<?xml version="1.0" encoding="UTF-8" standalone="no"?>
<!DOCTYPE svg PUBLIC "-//W3C//DTD SVG 1.1//EN"
 "http://www.w3.org/Graphics/SVG/1.1/DTD/svg11.dtd">
<!-- Generated by graphviz version 2.26.3 (20100126.1600)
 -->
<!-- Title: Urho3D::ColorFrame Pages: 1 -->
<svg width="194pt" height="223pt"
 viewBox="0.00 0.00 194.00 222.50" xmlns="http://www.w3.org/2000/svg" xmlns:xlink="http://www.w3.org/1999/xlink">
<g id="graph1" class="graph" transform="scale(1 1) rotate(0) translate(4 218.5)">
<title>Urho3D::ColorFrame</title>
<!-- Node1 -->
<g id="node1" class="node"><title>Node1</title>
<polygon fill="#bfbfbf" stroke="black" points="0,-0.5 0,-21.5 114,-21.5 114,-0.5 0,-0.5"/>
<text text-anchor="middle" x="57" y="-8.5" font-family="FreeSans" font-size="10.00">Urho3D::ColorFrame</text>
</g>
<!-- Node2 -->
<g id="node2" class="node"><title>Node2</title>
<a xlink:href="class_urho3_d_1_1_color.html" target="_top" xlink:title="RGBA color.">
<polygon fill="none" stroke="black" points="15,-132.5 15,-153.5 99,-153.5 99,-132.5 15,-132.5"/>
<text text-anchor="middle" x="57" y="-140.5" font-family="FreeSans" font-size="10.00">Urho3D::Color</text>
</a>
</g>
<!-- Node2&#45;&gt;Node1 -->
<g id="edge2" class="edge"><title>Node2&#45;&gt;Node1</title>
<path fill="none" stroke="#9a32cd" stroke-dasharray="5,2" d="M57,-122.078C57,-93.5071 57,-43.3534 57,-21.5825"/>
<polygon fill="#9a32cd" stroke="#9a32cd" points="53.5001,-122.198 57,-132.198 60.5001,-122.198 53.5001,-122.198"/>
<text text-anchor="middle" x="73" y="-44.5" font-family="FreeSans" font-size="10.00"> color_</text>
</g>
<!-- Node2&#45;&gt;Node2 -->
<g id="edge4" class="edge"><title>Node2&#45;&gt;Node2</title>
<path fill="none" stroke="#9a32cd" stroke-dasharray="5,2" d="M78.3847,-157.975C97.1215,-164.911 117,-159.919 117,-143 117,-123.312 90.0835,-119.775 69.3704,-132.387"/>
<polygon fill="#9a32cd" stroke="#9a32cd" points="79.8964,-154.819 69.3704,-153.613 76.8469,-161.12 79.8964,-154.819"/>
<text text-anchor="middle" x="151.5" y="-205.5" font-family="FreeSans" font-size="10.00"> CYAN</text>
<text text-anchor="middle" x="151.5" y="-192.5" font-family="FreeSans" font-size="10.00">GRAY</text>
<text text-anchor="middle" x="151.5" y="-179.5" font-family="FreeSans" font-size="10.00">YELLOW</text>
<text text-anchor="middle" x="151.5" y="-166.5" font-family="FreeSans" font-size="10.00">MAGENTA</text>
<text text-anchor="middle" x="151.5" y="-153.5" font-family="FreeSans" font-size="10.00">WHITE</text>
<text text-anchor="middle" x="151.5" y="-140.5" font-family="FreeSans" font-size="10.00">TRANSPARENT</text>
<text text-anchor="middle" x="151.5" y="-127.5" font-family="FreeSans" font-size="10.00">BLUE</text>
<text text-anchor="middle" x="151.5" y="-114.5" font-family="FreeSans" font-size="10.00">BLACK</text>
<text text-anchor="middle" x="151.5" y="-101.5" font-family="FreeSans" font-size="10.00">RED</text>
<text text-anchor="middle" x="151.5" y="-88.5" font-family="FreeSans" font-size="10.00">GREEN</text>
<text text-anchor="middle" x="151.5" y="-75.5" font-family="FreeSans" font-size="10.00">...</text>
</g>
</g>
</svg>
