<?xml version="1.0" encoding="UTF-8" standalone="no"?>
<!DOCTYPE svg PUBLIC "-//W3C//DTD SVG 1.1//EN"
 "http://www.w3.org/Graphics/SVG/1.1/DTD/svg11.dtd">
<!-- Generated by graphviz version 2.26.3 (20100126.1600)
 -->
<!-- Title: Urho3D::Font Pages: 1 -->
<svg width="1216pt" height="965pt"
 viewBox="0.00 0.00 1216.00 964.99" xmlns="http://www.w3.org/2000/svg" xmlns:xlink="http://www.w3.org/1999/xlink">
<g id="graph1" class="graph" transform="scale(1 1) rotate(0) translate(4 960.994)">
<title>Urho3D::Font</title>
<!-- Node1 -->
<g id="node1" class="node"><title>Node1</title>
<polygon fill="#bfbfbf" stroke="black" points="1095,-826.494 1095,-847.494 1175,-847.494 1175,-826.494 1095,-826.494"/>
<text text-anchor="middle" x="1135" y="-834.494" font-family="FreeSans" font-size="10.00">Urho3D::Font</text>
</g>
<!-- Node2 -->
<g id="node2" class="node"><title>Node2</title>
<a xlink:href="class_urho3_d_1_1_resource.html" target="_top" xlink:title="Base class for resources.">
<polygon fill="none" stroke="black" points="755.5,-826.494 755.5,-847.494 858.5,-847.494 858.5,-826.494 755.5,-826.494"/>
<text text-anchor="middle" x="807" y="-834.494" font-family="FreeSans" font-size="10.00">Urho3D::Resource</text>
</a>
</g>
<!-- Node2&#45;&gt;Node1 -->
<g id="edge2" class="edge"><title>Node2&#45;&gt;Node1</title>
<path fill="none" stroke="midnightblue" d="M868.902,-836.994C935.072,-836.994 1038.06,-836.994 1094.55,-836.994"/>
<polygon fill="midnightblue" stroke="midnightblue" points="868.611,-833.494 858.611,-836.994 868.611,-840.494 868.611,-833.494"/>
</g>
<!-- Node3 -->
<g id="node4" class="node"><title>Node3</title>
<a xlink:href="class_urho3_d_1_1_object.html" target="_top" xlink:title="Base class for objects with type identification, subsystem access and event sending/receiving capabil...">
<polygon fill="none" stroke="black" points="504,-542.494 504,-563.494 594,-563.494 594,-542.494 504,-542.494"/>
<text text-anchor="middle" x="549" y="-550.494" font-family="FreeSans" font-size="10.00">Urho3D::Object</text>
</a>
</g>
<!-- Node3&#45;&gt;Node2 -->
<g id="edge4" class="edge"><title>Node3&#45;&gt;Node2</title>
<path fill="none" stroke="midnightblue" d="M560.921,-572.431C574.202,-592.757 597.346,-624.499 624,-644.994 647.968,-663.425 668.053,-648.661 686,-672.994 724.284,-724.901 659.956,-769.875 704,-816.994 717.061,-830.967 736.735,-836.842 755.401,-838.912"/>
<polygon fill="midnightblue" stroke="midnightblue" points="563.7,-570.279 555.378,-563.722 557.795,-574.037 563.7,-570.279"/>
</g>
<!-- Node8 -->
<g id="node15" class="node"><title>Node8</title>
<a xlink:href="class_urho3_d_1_1_event_handler.html" target="_top" xlink:title="Internal helper class for invoking event handler functions.">
<polygon fill="none" stroke="red" points="745,-584.494 745,-605.494 869,-605.494 869,-584.494 745,-584.494"/>
<text text-anchor="middle" x="807" y="-592.494" font-family="FreeSans" font-size="10.00">Urho3D::EventHandler</text>
</a>
</g>
<!-- Node3&#45;&gt;Node8 -->
<g id="edge18" class="edge"><title>Node3&#45;&gt;Node8</title>
<path fill="none" stroke="#9a32cd" stroke-dasharray="5,2" d="M604.436,-563.553C611.024,-564.745 617.658,-565.917 624,-566.994 664.084,-573.8 709.238,-580.716 744.664,-585.973"/>
<polygon fill="#9a32cd" stroke="#9a32cd" points="604.637,-560.031 594.17,-561.673 603.376,-566.917 604.637,-560.031"/>
<text text-anchor="middle" x="655" y="-592.994" font-family="FreeSans" font-size="10.00"> sender_</text>
<text text-anchor="middle" x="655" y="-579.994" font-family="FreeSans" font-size="10.00">receiver_</text>
</g>
<!-- Node4 -->
<g id="node6" class="node"><title>Node4</title>
<a xlink:href="class_urho3_d_1_1_ref_counted.html" target="_top" xlink:title="Base class for intrusively reference&#45;counted objects. These are noncopyable and non&#45;assignable.">
<polygon fill="none" stroke="black" points="198,-275.494 198,-296.494 312,-296.494 312,-275.494 198,-275.494"/>
<text text-anchor="middle" x="255" y="-283.494" font-family="FreeSans" font-size="10.00">Urho3D::RefCounted</text>
</a>
</g>
<!-- Node4&#45;&gt;Node3 -->
<g id="edge6" class="edge"><title>Node4&#45;&gt;Node3</title>
<path fill="none" stroke="midnightblue" d="M315.673,-301.354C317.895,-302.767 320.016,-304.309 322,-305.994 335.939,-317.831 325.576,-331.753 340,-342.994 387.99,-380.393 427.191,-332.128 474,-370.994 529.478,-417.058 544.454,-510.828 548.005,-542.37"/>
<polygon fill="midnightblue" stroke="midnightblue" points="317.148,-298.173 306.683,-296.524 313.836,-304.34 317.148,-298.173"/>
</g>
<!-- Node6 -->
<g id="node10" class="node"><title>Node6</title>
<a xlink:href="class_urho3_d_1_1_context.html" target="_top" xlink:title="Urho3D execution context. Provides access to subsystems, object factories and attributes, and event receivers.">
<polygon fill="none" stroke="red" points="1086.5,-277.494 1086.5,-298.494 1183.5,-298.494 1183.5,-277.494 1086.5,-277.494"/>
<text text-anchor="middle" x="1135" y="-285.494" font-family="FreeSans" font-size="10.00">Urho3D::Context</text>
</a>
</g>
<!-- Node4&#45;&gt;Node6 -->
<g id="edge12" class="edge"><title>Node4&#45;&gt;Node6</title>
<path fill="none" stroke="midnightblue" d="M275.923,-268.69C337.004,-219.446 522.258,-79.0012 704,-30.994 851.489,7.9654 932.342,25.9456 1044,-77.994 1105.95,-135.66 1127.81,-242.744 1133.4,-277.091"/>
<polygon fill="midnightblue" stroke="midnightblue" points="273.379,-266.248 267.828,-275.272 277.795,-271.68 273.379,-266.248"/>
</g>
<!-- Node5 -->
<g id="node8" class="node"><title>Node5</title>
<a xlink:href="struct_urho3_d_1_1_ref_count.html" target="_top" xlink:title="Reference count structure.">
<polygon fill="none" stroke="black" points="0,-493.494 0,-514.494 102,-514.494 102,-493.494 0,-493.494"/>
<text text-anchor="middle" x="51" y="-501.494" font-family="FreeSans" font-size="10.00">Urho3D::RefCount</text>
</a>
</g>
<!-- Node5&#45;&gt;Node4 -->
<g id="edge8" class="edge"><title>Node5&#45;&gt;Node4</title>
<path fill="none" stroke="#9a32cd" stroke-dasharray="5,2" d="M59.3855,-483.795C77.0609,-443.715 122.022,-353.878 188,-305.994 193.305,-302.144 199.353,-299.028 205.595,-296.508"/>
<polygon fill="#9a32cd" stroke="#9a32cd" points="56.132,-482.501 55.394,-493.07 62.5619,-485.268 56.132,-482.501"/>
<text text-anchor="middle" x="145" y="-380.994" font-family="FreeSans" font-size="10.00"> refCount_</text>
</g>
<!-- Node23 -->
<g id="node57" class="node"><title>Node23</title>
<a xlink:href="class_urho3_d_1_1_shared_array_ptr.html" target="_top" xlink:title="Urho3D::SharedArrayPtr\l\&lt; unsigned char \&gt;">
<polygon fill="none" stroke="black" points="340.5,-762.994 340.5,-796.994 473.5,-796.994 473.5,-762.994 340.5,-762.994"/>
<text text-anchor="start" x="348.5" y="-783.994" font-family="FreeSans" font-size="10.00">Urho3D::SharedArrayPtr</text>
<text text-anchor="middle" x="407" y="-770.994" font-family="FreeSans" font-size="10.00">&lt; unsigned char &gt;</text>
</a>
</g>
<!-- Node5&#45;&gt;Node23 -->
<g id="edge72" class="edge"><title>Node5&#45;&gt;Node23</title>
<path fill="none" stroke="#9a32cd" stroke-dasharray="5,2" d="M73.1497,-521.166C137.057,-570.712 321.261,-713.522 384.991,-762.931"/>
<polygon fill="#9a32cd" stroke="#9a32cd" points="75.0032,-518.175 64.9556,-514.814 70.7142,-523.707 75.0032,-518.175"/>
<text text-anchor="middle" x="145" y="-598.994" font-family="FreeSans" font-size="10.00"> refCount_</text>
</g>
<!-- Node6&#45;&gt;Node3 -->
<g id="edge10" class="edge"><title>Node6&#45;&gt;Node3</title>
<path fill="none" stroke="#9a32cd" stroke-dasharray="5,2" d="M1128.93,-308.347C1117.81,-341.98 1090.9,-408.921 1044,-443.994 1007.71,-471.134 709.3,-525.175 594.119,-545.25"/>
<polygon fill="#9a32cd" stroke="#9a32cd" points="1132.31,-309.27 1131.99,-298.68 1125.63,-307.157 1132.31,-309.27"/>
<text text-anchor="middle" x="807" y="-527.994" font-family="FreeSans" font-size="10.00"> context_</text>
</g>
<!-- Node7 -->
<g id="node13" class="node"><title>Node7</title>
<a xlink:href="class_urho3_d_1_1_p_o_d_vector.html" target="_top" xlink:title="Urho3D::PODVector\&lt;\l Urho3D::Object * \&gt;">
<polygon fill="none" stroke="red" points="747.5,-105.994 747.5,-139.994 866.5,-139.994 866.5,-105.994 747.5,-105.994"/>
<text text-anchor="start" x="755.5" y="-126.994" font-family="FreeSans" font-size="10.00">Urho3D::PODVector&lt;</text>
<text text-anchor="middle" x="807" y="-113.994" font-family="FreeSans" font-size="10.00"> Urho3D::Object * &gt;</text>
</a>
</g>
<!-- Node7&#45;&gt;Node6 -->
<g id="edge14" class="edge"><title>Node7&#45;&gt;Node6</title>
<path fill="none" stroke="#9a32cd" stroke-dasharray="5,2" d="M876.638,-134.731C926.165,-145.378 992.73,-164.515 1044,-196.994 1079.67,-219.592 1112.27,-258.423 1126.89,-277.201"/>
<polygon fill="#9a32cd" stroke="#9a32cd" points="877.159,-131.265 866.655,-132.65 875.73,-138.118 877.159,-131.265"/>
<text text-anchor="middle" x="986" y="-200.994" font-family="FreeSans" font-size="10.00"> eventSenders_</text>
</g>
<!-- Node8&#45;&gt;Node6 -->
<g id="edge16" class="edge"><title>Node8&#45;&gt;Node6</title>
<path fill="none" stroke="#9a32cd" stroke-dasharray="5,2" d="M879.402,-588.671C931.559,-580.442 1000.19,-561.515 1044,-517.994 1109.65,-452.773 1129.26,-334.375 1133.82,-298.545"/>
<polygon fill="#9a32cd" stroke="#9a32cd" points="878.583,-585.254 869.203,-590.178 879.607,-592.178 878.583,-585.254"/>
<text text-anchor="middle" x="986" y="-580.994" font-family="FreeSans" font-size="10.00"> eventHandler_</text>
</g>
<!-- Node19 -->
<g id="node45" class="node"><title>Node19</title>
<a xlink:href="class_urho3_d_1_1_linked_list.html" target="_top" xlink:title="Urho3D::LinkedList\l\&lt; Urho3D::EventHandler \&gt;">
<polygon fill="none" stroke="black" points="1062,-569.994 1062,-603.994 1208,-603.994 1208,-569.994 1062,-569.994"/>
<text text-anchor="start" x="1070" y="-590.994" font-family="FreeSans" font-size="10.00">Urho3D::LinkedList</text>
<text text-anchor="middle" x="1135" y="-577.994" font-family="FreeSans" font-size="10.00">&lt; Urho3D::EventHandler &gt;</text>
</a>
</g>
<!-- Node8&#45;&gt;Node19 -->
<g id="edge56" class="edge"><title>Node8&#45;&gt;Node19</title>
<path fill="none" stroke="#9a32cd" stroke-dasharray="5,2" d="M879.53,-599.974C926.489,-602.347 988.927,-603.908 1044,-599.994 1049.73,-599.587 1055.65,-599.037 1061.59,-598.393"/>
<polygon fill="#9a32cd" stroke="#9a32cd" points="879.624,-596.474 869.453,-599.44 879.253,-603.464 879.624,-596.474"/>
<text text-anchor="middle" x="986" y="-605.994" font-family="FreeSans" font-size="10.00"> head_</text>
</g>
<!-- Node9 -->
<g id="node18" class="node"><title>Node9</title>
<a xlink:href="class_urho3_d_1_1_string_hash.html" target="_top" xlink:title="32&#45;bit hash value for a string.">
<polygon fill="none" stroke="black" points="492.5,-683.494 492.5,-704.494 605.5,-704.494 605.5,-683.494 492.5,-683.494"/>
<text text-anchor="middle" x="549" y="-691.494" font-family="FreeSans" font-size="10.00">Urho3D::StringHash</text>
</a>
</g>
<!-- Node9&#45;&gt;Node2 -->
<g id="edge64" class="edge"><title>Node9&#45;&gt;Node2</title>
<path fill="none" stroke="#9a32cd" stroke-dasharray="5,2" d="M603.153,-707.702C631.433,-717.429 664.524,-733.257 686,-757.994 703.973,-778.696 683.63,-798.645 704,-816.994 717.873,-829.49 737.149,-835.186 755.277,-837.524"/>
<polygon fill="#9a32cd" stroke="#9a32cd" points="603.97,-704.287 593.377,-704.512 601.798,-710.942 603.97,-704.287"/>
<text text-anchor="middle" x="655" y="-761.994" font-family="FreeSans" font-size="10.00"> nameHash_</text>
</g>
<!-- Node9&#45;&gt;Node8 -->
<g id="edge20" class="edge"><title>Node9&#45;&gt;Node8</title>
<path fill="none" stroke="#9a32cd" stroke-dasharray="5,2" d="M574.531,-678.152C604.474,-660.255 656.12,-631.478 704,-614.994 717.004,-610.517 731.296,-606.941 744.986,-604.124"/>
<polygon fill="#9a32cd" stroke="#9a32cd" points="572.71,-675.163 565.963,-683.332 576.331,-681.154 572.71,-675.163"/>
<text text-anchor="middle" x="655" y="-652.994" font-family="FreeSans" font-size="10.00"> eventType_</text>
</g>
<!-- Node9&#45;&gt;Node9 -->
<g id="edge22" class="edge"><title>Node9&#45;&gt;Node9</title>
<path fill="none" stroke="#9a32cd" stroke-dasharray="5,2" d="M529.465,-714.421C530.972,-719.343 537.484,-722.994 549,-722.994 567.426,-722.994 573.04,-713.647 565.842,-704.702"/>
<polygon fill="#9a32cd" stroke="#9a32cd" points="532.861,-715.273 532.158,-704.702 526.115,-713.404 532.861,-715.273"/>
<text text-anchor="middle" x="549" y="-726.994" font-family="FreeSans" font-size="10.00"> ZERO</text>
</g>
<!-- Node10 -->
<g id="node21" class="node"><title>Node10</title>
<a xlink:href="class_urho3_d_1_1_hash_map.html" target="_top" xlink:title="Urho3D::HashMap\&lt; Urho3D\l::StringHash, Urho3D::\lHashSet\&lt; Urho3D::Object * \&gt; \&gt;">
<polygon fill="none" stroke="black" points="720.5,-40.494 720.5,-87.494 893.5,-87.494 893.5,-40.494 720.5,-40.494"/>
<text text-anchor="start" x="728.5" y="-74.494" font-family="FreeSans" font-size="10.00">Urho3D::HashMap&lt; Urho3D</text>
<text text-anchor="start" x="728.5" y="-61.494" font-family="FreeSans" font-size="10.00">::StringHash, Urho3D::</text>
<text text-anchor="middle" x="807" y="-48.494" font-family="FreeSans" font-size="10.00">HashSet&lt; Urho3D::Object * &gt; &gt;</text>
</a>
</g>
<!-- Node10&#45;&gt;Node6 -->
<g id="edge24" class="edge"><title>Node10&#45;&gt;Node6</title>
<path fill="none" stroke="#9a32cd" stroke-dasharray="5,2" d="M903.659,-75.2581C949.92,-84.6118 1003.84,-101.719 1044,-132.994 1094.96,-172.68 1123.01,-249.529 1131.88,-277.494"/>
<polygon fill="#9a32cd" stroke="#9a32cd" points="904.09,-71.7767 893.608,-73.3218 902.766,-78.6503 904.09,-71.7767"/>
<text text-anchor="middle" x="986" y="-136.994" font-family="FreeSans" font-size="10.00"> eventReceivers_</text>
</g>
<!-- Node11 -->
<g id="node23" class="node"><title>Node11</title>
<a xlink:href="class_urho3_d_1_1_hash_base.html" target="_top" xlink:title="Hash set/map base class.">
<polygon fill="none" stroke="black" points="495,-315.494 495,-336.494 603,-336.494 603,-315.494 495,-315.494"/>
<text text-anchor="middle" x="549" y="-323.494" font-family="FreeSans" font-size="10.00">Urho3D::HashBase</text>
</a>
</g>
<!-- Node11&#45;&gt;Node10 -->
<g id="edge26" class="edge"><title>Node11&#45;&gt;Node10</title>
<path fill="none" stroke="midnightblue" d="M557.114,-305.849C576.029,-261.418 627.344,-154.416 704,-96.994 709.11,-93.1664 714.679,-89.7734 720.496,-86.7672"/>
<polygon fill="midnightblue" stroke="midnightblue" points="553.804,-304.693 553.194,-315.27 560.267,-307.383 553.804,-304.693"/>
</g>
<!-- Node14 -->
<g id="node31" class="node"><title>Node14</title>
<a xlink:href="class_urho3_d_1_1_hash_map.html" target="_top" xlink:title="Urho3D::HashMap\&lt; Urho3D\l::Object *, Urho3D::HashMap\l\&lt; Urho3D::StringHash, Urho3D\l::HashSet\&lt; Urho3D::Object * \&gt; \&gt; \&gt;">
<polygon fill="none" stroke="black" points="711.5,-223.994 711.5,-283.994 902.5,-283.994 902.5,-223.994 711.5,-223.994"/>
<text text-anchor="start" x="719.5" y="-270.994" font-family="FreeSans" font-size="10.00">Urho3D::HashMap&lt; Urho3D</text>
<text text-anchor="start" x="719.5" y="-257.994" font-family="FreeSans" font-size="10.00">::Object *, Urho3D::HashMap</text>
<text text-anchor="start" x="719.5" y="-244.994" font-family="FreeSans" font-size="10.00">&lt; Urho3D::StringHash, Urho3D</text>
<text text-anchor="middle" x="807" y="-231.994" font-family="FreeSans" font-size="10.00">::HashSet&lt; Urho3D::Object * &gt; &gt; &gt;</text>
</a>
</g>
<!-- Node11&#45;&gt;Node14 -->
<g id="edge38" class="edge"><title>Node11&#45;&gt;Node14</title>
<path fill="none" stroke="midnightblue" d="M596.804,-312.653C628.928,-303.688 672.373,-291.564 711.427,-280.666"/>
<polygon fill="midnightblue" stroke="midnightblue" points="595.483,-309.388 586.792,-315.447 597.365,-316.131 595.483,-309.388"/>
</g>
<!-- Node15 -->
<g id="node34" class="node"><title>Node15</title>
<a xlink:href="class_urho3_d_1_1_hash_map.html" target="_top" xlink:title="Urho3D::HashMap\&lt; Urho3D\l::StringHash, Urho3D::\lSharedPtr\&lt; Urho3D::Object \&gt; \&gt;">
<polygon fill="none" stroke="black" points="721,-368.494 721,-415.494 893,-415.494 893,-368.494 721,-368.494"/>
<text text-anchor="start" x="729" y="-402.494" font-family="FreeSans" font-size="10.00">Urho3D::HashMap&lt; Urho3D</text>
<text text-anchor="start" x="729" y="-389.494" font-family="FreeSans" font-size="10.00">::StringHash, Urho3D::</text>
<text text-anchor="middle" x="807" y="-376.494" font-family="FreeSans" font-size="10.00">SharedPtr&lt; Urho3D::Object &gt; &gt;</text>
</a>
</g>
<!-- Node11&#45;&gt;Node15 -->
<g id="edge42" class="edge"><title>Node11&#45;&gt;Node15</title>
<path fill="none" stroke="midnightblue" d="M600,-339.041C634.439,-347.85 680.753,-359.698 720.841,-369.953"/>
<polygon fill="midnightblue" stroke="midnightblue" points="600.722,-335.612 590.166,-336.525 598.987,-342.394 600.722,-335.612"/>
</g>
<!-- Node17 -->
<g id="node39" class="node"><title>Node17</title>
<a xlink:href="class_urho3_d_1_1_hash_map.html" target="_top" xlink:title="Urho3D::HashMap\&lt; Urho3D\l::StringHash, Urho3D::\lSharedPtr\&lt; Urho3D::ObjectFactory \&gt; \&gt;">
<polygon fill="none" stroke="black" points="704,-158.494 704,-205.494 910,-205.494 910,-158.494 704,-158.494"/>
<text text-anchor="start" x="712" y="-192.494" font-family="FreeSans" font-size="10.00">Urho3D::HashMap&lt; Urho3D</text>
<text text-anchor="start" x="712" y="-179.494" font-family="FreeSans" font-size="10.00">::StringHash, Urho3D::</text>
<text text-anchor="middle" x="807" y="-166.494" font-family="FreeSans" font-size="10.00">SharedPtr&lt; Urho3D::ObjectFactory &gt; &gt;</text>
</a>
</g>
<!-- Node11&#45;&gt;Node17 -->
<g id="edge48" class="edge"><title>Node11&#45;&gt;Node17</title>
<path fill="none" stroke="midnightblue" d="M568.918,-308.577C597.216,-284.599 651.472,-241.397 704,-214.994 710.795,-211.579 718.017,-208.418 725.363,-205.517"/>
<polygon fill="midnightblue" stroke="midnightblue" points="566.317,-306.197 561,-315.361 570.871,-311.512 566.317,-306.197"/>
</g>
<!-- Node18 -->
<g id="node42" class="node"><title>Node18</title>
<a xlink:href="class_urho3_d_1_1_hash_map.html" target="_top" xlink:title="Urho3D::HashMap\&lt; Urho3D\l::String, Urho3D::Vector\l\&lt; Urho3D::StringHash \&gt; \&gt;">
<polygon fill="none" stroke="black" points="731,-302.494 731,-349.494 883,-349.494 883,-302.494 731,-302.494"/>
<text text-anchor="start" x="739" y="-336.494" font-family="FreeSans" font-size="10.00">Urho3D::HashMap&lt; Urho3D</text>
<text text-anchor="start" x="739" y="-323.494" font-family="FreeSans" font-size="10.00">::String, Urho3D::Vector</text>
<text text-anchor="middle" x="807" y="-310.494" font-family="FreeSans" font-size="10.00">&lt; Urho3D::StringHash &gt; &gt;</text>
</a>
</g>
<!-- Node11&#45;&gt;Node18 -->
<g id="edge52" class="edge"><title>Node11&#45;&gt;Node18</title>
<path fill="none" stroke="midnightblue" d="M613.372,-325.994C649.039,-325.994 693.594,-325.994 730.969,-325.994"/>
<polygon fill="midnightblue" stroke="midnightblue" points="613.085,-322.494 603.085,-325.994 613.085,-329.494 613.085,-322.494"/>
</g>
<!-- Node22 -->
<g id="node54" class="node"><title>Node22</title>
<a xlink:href="class_urho3_d_1_1_hash_map.html" target="_top" xlink:title="Urho3D::HashMap\&lt; int,\l Urho3D::SharedPtr\&lt; Urho3D\l::FontFace \&gt; \&gt;">
<polygon fill="none" stroke="black" points="728,-624.494 728,-671.494 886,-671.494 886,-624.494 728,-624.494"/>
<text text-anchor="start" x="736" y="-658.494" font-family="FreeSans" font-size="10.00">Urho3D::HashMap&lt; int,</text>
<text text-anchor="start" x="736" y="-645.494" font-family="FreeSans" font-size="10.00"> Urho3D::SharedPtr&lt; Urho3D</text>
<text text-anchor="middle" x="807" y="-632.494" font-family="FreeSans" font-size="10.00">::FontFace &gt; &gt;</text>
</a>
</g>
<!-- Node11&#45;&gt;Node22 -->
<g id="edge68" class="edge"><title>Node11&#45;&gt;Node22</title>
<path fill="none" stroke="midnightblue" d="M554.81,-346.381C565.329,-383.445 588.099,-464.385 606,-532.994 614.436,-565.328 600.181,-582.557 624,-605.994 651.185,-632.743 691.746,-643.815 727.778,-647.952"/>
<polygon fill="midnightblue" stroke="midnightblue" points="558.171,-345.403 552.07,-336.741 551.438,-347.317 558.171,-345.403"/>
</g>
<!-- Node12 -->
<g id="node25" class="node"><title>Node12</title>
<a xlink:href="struct_urho3_d_1_1_hash_node_base.html" target="_top" xlink:title="Hash set/map node base class.">
<polygon fill="none" stroke="black" points="188,-386.494 188,-407.494 322,-407.494 322,-386.494 188,-386.494"/>
<text text-anchor="middle" x="255" y="-394.494" font-family="FreeSans" font-size="10.00">Urho3D::HashNodeBase</text>
</a>
</g>
<!-- Node12&#45;&gt;Node11 -->
<g id="edge28" class="edge"><title>Node12&#45;&gt;Node11</title>
<path fill="none" stroke="#9a32cd" stroke-dasharray="5,2" d="M308.497,-384.075C364.865,-370.462 452.593,-349.276 505.063,-336.605"/>
<polygon fill="#9a32cd" stroke="#9a32cd" points="307.596,-380.691 298.697,-386.441 309.24,-387.496 307.596,-380.691"/>
<text text-anchor="middle" x="407" y="-406.994" font-family="FreeSans" font-size="10.00"> ptrs_</text>
<text text-anchor="middle" x="407" y="-393.994" font-family="FreeSans" font-size="10.00">tail_</text>
<text text-anchor="middle" x="407" y="-380.994" font-family="FreeSans" font-size="10.00">head_</text>
</g>
<!-- Node12&#45;&gt;Node12 -->
<g id="edge30" class="edge"><title>Node12&#45;&gt;Node12</title>
<path fill="none" stroke="#9a32cd" stroke-dasharray="5,2" d="M234.728,-417.421C236.292,-422.343 243.049,-425.994 255,-425.994 274.121,-425.994 279.947,-416.647 272.478,-407.702"/>
<polygon fill="#9a32cd" stroke="#9a32cd" points="238.123,-418.28 237.522,-407.702 231.395,-416.346 238.123,-418.28"/>
<text text-anchor="middle" x="255" y="-455.994" font-family="FreeSans" font-size="10.00"> next_</text>
<text text-anchor="middle" x="255" y="-442.994" font-family="FreeSans" font-size="10.00">prev_</text>
<text text-anchor="middle" x="255" y="-429.994" font-family="FreeSans" font-size="10.00">down_</text>
</g>
<!-- Node13 -->
<g id="node28" class="node"><title>Node13</title>
<a xlink:href="struct_urho3_d_1_1_allocator_block.html" target="_top" xlink:title="Allocator memory block.">
<polygon fill="none" stroke="red" points="191.5,-315.494 191.5,-336.494 318.5,-336.494 318.5,-315.494 191.5,-315.494"/>
<text text-anchor="middle" x="255" y="-323.494" font-family="FreeSans" font-size="10.00">Urho3D::AllocatorBlock</text>
</a>
</g>
<!-- Node13&#45;&gt;Node11 -->
<g id="edge32" class="edge"><title>Node13&#45;&gt;Node11</title>
<path fill="none" stroke="#9a32cd" stroke-dasharray="5,2" d="M328.878,-325.994C380.429,-325.994 448.078,-325.994 494.704,-325.994"/>
<polygon fill="#9a32cd" stroke="#9a32cd" points="328.794,-322.494 318.794,-325.994 328.794,-329.494 328.794,-322.494"/>
<text text-anchor="middle" x="407" y="-329.994" font-family="FreeSans" font-size="10.00"> allocator_</text>
</g>
<!-- Node13&#45;&gt;Node13 -->
<g id="edge34" class="edge"><title>Node13&#45;&gt;Node13</title>
<path fill="none" stroke="#9a32cd" stroke-dasharray="5,2" d="M234.728,-346.421C236.292,-351.343 243.049,-354.994 255,-354.994 274.121,-354.994 279.947,-345.647 272.478,-336.702"/>
<polygon fill="#9a32cd" stroke="#9a32cd" points="238.123,-347.28 237.522,-336.702 231.395,-345.346 238.123,-347.28"/>
<text text-anchor="middle" x="255" y="-358.994" font-family="FreeSans" font-size="10.00"> next_</text>
</g>
<!-- Node14&#45;&gt;Node6 -->
<g id="edge36" class="edge"><title>Node14&#45;&gt;Node6</title>
<path fill="none" stroke="#9a32cd" stroke-dasharray="5,2" d="M912.745,-264.955C971.009,-270.995 1040.55,-278.203 1086.14,-282.929"/>
<polygon fill="#9a32cd" stroke="#9a32cd" points="913.061,-261.469 902.753,-263.92 912.339,-268.432 913.061,-261.469"/>
<text text-anchor="middle" x="986" y="-281.994" font-family="FreeSans" font-size="10.00"> specificEventReceivers_</text>
</g>
<!-- Node15&#45;&gt;Node6 -->
<g id="edge40" class="edge"><title>Node15&#45;&gt;Node6</title>
<path fill="none" stroke="#9a32cd" stroke-dasharray="5,2" d="M902.782,-370.32C946.372,-359.494 998.314,-345.235 1044,-328.994 1068.65,-320.23 1095.88,-307.54 1114.07,-298.605"/>
<polygon fill="#9a32cd" stroke="#9a32cd" points="901.916,-366.929 893.042,-372.717 903.588,-373.726 901.916,-366.929"/>
<text text-anchor="middle" x="986" y="-367.994" font-family="FreeSans" font-size="10.00"> subsystems_</text>
</g>
<!-- Node16 -->
<g id="node37" class="node"><title>Node16</title>
<a xlink:href="class_urho3_d_1_1_p_o_d_vector.html" target="_top" xlink:title="Urho3D::PODVector\&lt;\l Urho3D::HashMap * \&gt;">
<polygon fill="none" stroke="red" points="743.5,-433.994 743.5,-467.994 870.5,-467.994 870.5,-433.994 743.5,-433.994"/>
<text text-anchor="start" x="751.5" y="-454.994" font-family="FreeSans" font-size="10.00">Urho3D::PODVector&lt;</text>
<text text-anchor="middle" x="807" y="-441.994" font-family="FreeSans" font-size="10.00"> Urho3D::HashMap * &gt;</text>
</a>
</g>
<!-- Node16&#45;&gt;Node6 -->
<g id="edge44" class="edge"><title>Node16&#45;&gt;Node6</title>
<path fill="none" stroke="#9a32cd" stroke-dasharray="5,2" d="M880.614,-439.826C929.68,-429.933 994.079,-412.067 1044,-380.994 1080.63,-358.194 1113.26,-317.647 1127.46,-298.526"/>
<polygon fill="#9a32cd" stroke="#9a32cd" points="879.846,-436.41 870.701,-441.759 881.186,-443.281 879.846,-436.41"/>
<text text-anchor="middle" x="986" y="-430.994" font-family="FreeSans" font-size="10.00"> eventDataMaps_</text>
</g>
<!-- Node17&#45;&gt;Node6 -->
<g id="edge46" class="edge"><title>Node17&#45;&gt;Node6</title>
<path fill="none" stroke="#9a32cd" stroke-dasharray="5,2" d="M908.131,-208.223C950.465,-219.921 999.97,-234.543 1044,-249.994 1067.42,-258.214 1093.51,-269.313 1111.72,-277.393"/>
<polygon fill="#9a32cd" stroke="#9a32cd" points="908.944,-204.817 898.374,-205.544 907.09,-211.567 908.944,-204.817"/>
<text text-anchor="middle" x="986" y="-253.994" font-family="FreeSans" font-size="10.00"> factories_</text>
</g>
<!-- Node18&#45;&gt;Node6 -->
<g id="edge50" class="edge"><title>Node18&#45;&gt;Node6</title>
<path fill="none" stroke="#9a32cd" stroke-dasharray="5,2" d="M893.178,-316.01C954.792,-308.872 1035.48,-299.523 1086.29,-293.637"/>
<polygon fill="#9a32cd" stroke="#9a32cd" points="892.605,-312.553 883.074,-317.181 893.411,-319.506 892.605,-312.553"/>
<text text-anchor="middle" x="986" y="-315.994" font-family="FreeSans" font-size="10.00"> objectCategories_</text>
</g>
<!-- Node19&#45;&gt;Node3 -->
<g id="edge54" class="edge"><title>Node19&#45;&gt;Node3</title>
<path fill="none" stroke="#9a32cd" stroke-dasharray="5,2" d="M1053.21,-568.299C1050.11,-567.819 1047.03,-567.38 1044,-566.994 879.407,-546.008 681.644,-548.708 594.275,-551.307"/>
<polygon fill="#9a32cd" stroke="#9a32cd" points="1052.74,-571.769 1063.18,-569.965 1053.9,-564.864 1052.74,-571.769"/>
<text text-anchor="middle" x="807" y="-557.994" font-family="FreeSans" font-size="10.00"> eventHandlers_</text>
</g>
<!-- Node20 -->
<g id="node48" class="node"><title>Node20</title>
<a xlink:href="class_urho3_d_1_1_timer.html" target="_top" xlink:title="Low&#45;resolution operating system timer.">
<polygon fill="none" stroke="black" points="506,-755.494 506,-776.494 592,-776.494 592,-755.494 506,-755.494"/>
<text text-anchor="middle" x="549" y="-763.494" font-family="FreeSans" font-size="10.00">Urho3D::Timer</text>
</a>
</g>
<!-- Node20&#45;&gt;Node2 -->
<g id="edge58" class="edge"><title>Node20&#45;&gt;Node2</title>
<path fill="none" stroke="#9a32cd" stroke-dasharray="5,2" d="M601.996,-771.077C628.573,-775.385 660.452,-783.334 686,-797.994 696.089,-803.783 693.804,-811.396 704,-816.994 719.568,-825.542 738.219,-830.479 755.345,-833.317"/>
<polygon fill="#9a32cd" stroke="#9a32cd" points="602.502,-767.614 592.094,-769.598 601.468,-774.537 602.502,-767.614"/>
<text text-anchor="middle" x="655" y="-801.994" font-family="FreeSans" font-size="10.00"> useTimer_</text>
</g>
<!-- Node21 -->
<g id="node50" class="node"><title>Node21</title>
<a xlink:href="class_urho3_d_1_1_string.html" target="_top" xlink:title="String class.">
<polygon fill="none" stroke="black" points="505,-795.494 505,-816.494 593,-816.494 593,-795.494 505,-795.494"/>
<text text-anchor="middle" x="549" y="-803.494" font-family="FreeSans" font-size="10.00">Urho3D::String</text>
</a>
</g>
<!-- Node21&#45;&gt;Node2 -->
<g id="edge60" class="edge"><title>Node21&#45;&gt;Node2</title>
<path fill="none" stroke="#9a32cd" stroke-dasharray="5,2" d="M603.163,-812.502C647.909,-817.878 711.02,-825.461 755.124,-830.761"/>
<polygon fill="#9a32cd" stroke="#9a32cd" points="603.405,-809.006 593.059,-811.288 602.57,-815.956 603.405,-809.006"/>
<text text-anchor="middle" x="655" y="-825.994" font-family="FreeSans" font-size="10.00"> name_</text>
</g>
<!-- Node21&#45;&gt;Node21 -->
<g id="edge62" class="edge"><title>Node21&#45;&gt;Node21</title>
<path fill="none" stroke="#9a32cd" stroke-dasharray="5,2" d="M529.465,-826.421C530.972,-831.343 537.484,-834.994 549,-834.994 567.426,-834.994 573.04,-825.647 565.842,-816.702"/>
<polygon fill="#9a32cd" stroke="#9a32cd" points="532.861,-827.273 532.158,-816.702 526.115,-825.404 532.861,-827.273"/>
<text text-anchor="middle" x="549" y="-838.994" font-family="FreeSans" font-size="10.00"> EMPTY</text>
</g>
<!-- Node22&#45;&gt;Node1 -->
<g id="edge66" class="edge"><title>Node22&#45;&gt;Node1</title>
<path fill="none" stroke="#9a32cd" stroke-dasharray="5,2" d="M895.928,-668.702C942.817,-682.453 999.644,-703.814 1044,-734.994 1081.47,-761.334 1114.16,-805.932 1127.99,-826.288"/>
<polygon fill="#9a32cd" stroke="#9a32cd" points="896.659,-665.271 886.082,-665.883 894.732,-672 896.659,-665.271"/>
<text text-anchor="middle" x="986" y="-738.994" font-family="FreeSans" font-size="10.00"> faces_</text>
</g>
<!-- Node23&#45;&gt;Node1 -->
<g id="edge70" class="edge"><title>Node23&#45;&gt;Node1</title>
<path fill="none" stroke="#9a32cd" stroke-dasharray="5,2" d="M425.947,-805.079C441.429,-823.341 465.095,-846.619 492,-856.994 606.46,-901.129 921.923,-863.082 1044,-850.994 1060.7,-849.34 1079.01,-846.688 1094.8,-844.134"/>
<polygon fill="#9a32cd" stroke="#9a32cd" points="428.467,-802.631 419.427,-797.105 423.048,-807.062 428.467,-802.631"/>
<text text-anchor="middle" x="655" y="-880.994" font-family="FreeSans" font-size="10.00"> fontData_</text>
</g>
<!-- Node24 -->
<g id="node60" class="node"><title>Node24</title>
<a xlink:href="class_urho3_d_1_1_vector2.html" target="_top" xlink:title="Two&#45;dimensional vector.">
<polygon fill="none" stroke="black" points="759,-690.494 759,-711.494 855,-711.494 855,-690.494 759,-690.494"/>
<text text-anchor="middle" x="807" y="-698.494" font-family="FreeSans" font-size="10.00">Urho3D::Vector2</text>
</a>
</g>
<!-- Node24&#45;&gt;Node1 -->
<g id="edge74" class="edge"><title>Node24&#45;&gt;Node1</title>
<path fill="none" stroke="#9a32cd" stroke-dasharray="5,2" d="M842.062,-715.532C908.434,-743.052 1051,-802.163 1109.33,-826.348"/>
<polygon fill="#9a32cd" stroke="#9a32cd" points="843.043,-712.15 832.465,-711.553 840.362,-718.616 843.043,-712.15"/>
<text text-anchor="middle" x="986" y="-799.994" font-family="FreeSans" font-size="10.00"> scaledOffset_</text>
</g>
<!-- Node24&#45;&gt;Node24 -->
<g id="edge76" class="edge"><title>Node24&#45;&gt;Node24</title>
<path fill="none" stroke="#9a32cd" stroke-dasharray="5,2" d="M778.839,-721.049C780.687,-726.158 790.073,-729.994 807,-729.994 833.422,-729.994 841.472,-720.647 831.151,-711.702"/>
<polygon fill="#9a32cd" stroke="#9a32cd" points="782.123,-722.272 782.849,-711.702 775.69,-719.512 782.123,-722.272"/>
<text text-anchor="middle" x="807" y="-798.994" font-family="FreeSans" font-size="10.00"> ONE</text>
<text text-anchor="middle" x="807" y="-785.994" font-family="FreeSans" font-size="10.00">DOWN</text>
<text text-anchor="middle" x="807" y="-772.994" font-family="FreeSans" font-size="10.00">RIGHT</text>
<text text-anchor="middle" x="807" y="-759.994" font-family="FreeSans" font-size="10.00">LEFT</text>
<text text-anchor="middle" x="807" y="-746.994" font-family="FreeSans" font-size="10.00">ZERO</text>
<text text-anchor="middle" x="807" y="-733.994" font-family="FreeSans" font-size="10.00">UP</text>
</g>
<!-- Node25 -->
<g id="node63" class="node"><title>Node25</title>
<a xlink:href="class_urho3_d_1_1_int_vector2.html" target="_top" xlink:title="Two&#45;dimensional vector with integer values.">
<polygon fill="none" stroke="black" points="753,-904.494 753,-925.494 861,-925.494 861,-904.494 753,-904.494"/>
<text text-anchor="middle" x="807" y="-912.494" font-family="FreeSans" font-size="10.00">Urho3D::IntVector2</text>
</a>
</g>
<!-- Node25&#45;&gt;Node1 -->
<g id="edge78" class="edge"><title>Node25&#45;&gt;Node1</title>
<path fill="none" stroke="#9a32cd" stroke-dasharray="5,2" d="M871.112,-915.459C919.679,-914.099 987.465,-908.494 1044,-889.994 1073.54,-880.328 1103.98,-860.128 1121.09,-847.647"/>
<polygon fill="#9a32cd" stroke="#9a32cd" points="870.968,-911.961 861.051,-915.688 871.128,-918.959 870.968,-911.961"/>
<text text-anchor="middle" x="986" y="-914.994" font-family="FreeSans" font-size="10.00"> absoluteOffset_</text>
</g>
<!-- Node25&#45;&gt;Node25 -->
<g id="edge80" class="edge"><title>Node25&#45;&gt;Node25</title>
<path fill="none" stroke="#9a32cd" stroke-dasharray="5,2" d="M778.839,-935.049C780.687,-940.158 790.073,-943.994 807,-943.994 833.422,-943.994 841.472,-934.647 831.151,-925.702"/>
<polygon fill="#9a32cd" stroke="#9a32cd" points="782.123,-936.272 782.849,-925.702 775.69,-933.512 782.123,-936.272"/>
<text text-anchor="middle" x="807" y="-947.994" font-family="FreeSans" font-size="10.00"> ZERO</text>
</g>
</g>
</svg>
