<?xml version="1.0" encoding="UTF-8" standalone="no"?>
<!DOCTYPE svg PUBLIC "-//W3C//DTD SVG 1.1//EN"
 "http://www.w3.org/Graphics/SVG/1.1/DTD/svg11.dtd">
<!-- Generated by graphviz version 2.26.3 (20100126.1600)
 -->
<!-- Title: Urho3D::Sprite2D Pages: 1 -->
<!--zoomable 890 -->
<svg id="main" version="1.1" xmlns="http://www.w3.org/2000/svg" xmlns:xlink="http://www.w3.org/1999/xlink" xml:space="preserve" onload="init(evt)">
        <defs>
                <circle id="rim" cx="0" cy="0" r="7"/>
                <circle id="rim2" cx="0" cy="0" r="3.5"/>
                <g id="zoomPlus">
                        <use xlink:href="#rim" fill="#404040">
                                <set attributeName="fill" to="#808080" begin="zoomplus.mouseover" end="zoomplus.mouseout"/>
                        </use>
                        <path d="M-4,0h8M0,-4v8" fill="none" stroke="white" stroke-width="1.5" pointer-events="none"/>
                </g>
                <g id="zoomMin">
                        <use xlink:href="#rim" fill="#404040">
                                <set attributeName="fill" to="#808080" begin="zoomminus.mouseover" end="zoomminus.mouseout"/>
                        </use>
                        <path d="M-4,0h8" fill="none" stroke="white" stroke-width="1.5" pointer-events="none"/>
                </g>
                <g id="dirArrow">
                        <path fill="none" stroke="white" stroke-width="1.5" d="M0,-3.0v7 M-2.5,-0.5L0,-3.0L2.5,-0.5"/>
                </g>
               <g id="resetDef">
                       <use xlink:href="#rim2" fill="#404040">
                               <set attributeName="fill" to="#808080" begin="reset.mouseover" end="reset.mouseout"/>
                       </use>
               </g>
        </defs>

<script type="text/javascript">
var viewWidth = 2122;
var viewHeight = 890;
var sectionId = 'dynsection-1';
</script>
<script xlink:href="svgpan.js"/>
<svg id="graph" class="graph">
<g id="viewport">
<title>Urho3D::Sprite2D</title>
<!-- Node1 -->
<g id="node1" class="node"><title>Node1</title>
<polygon fill="#bfbfbf" stroke="black" points="2012.5,-252.5 2012.5,-273.5 2113.5,-273.5 2113.5,-252.5 2012.5,-252.5"/>
<text text-anchor="middle" x="2063" y="-260.5" font-family="FreeSans" font-size="10.00">Urho3D::Sprite2D</text>
</g>
<!-- Node2 -->
<g id="node2" class="node"><title>Node2</title>
<a xlink:href="class_urho3_d_1_1_resource.html" target="_top" xlink:title="Base class for resources.">
<polygon fill="none" stroke="black" points="562.5,-561.5 562.5,-582.5 665.5,-582.5 665.5,-561.5 562.5,-561.5"/>
<text text-anchor="middle" x="614" y="-569.5" font-family="FreeSans" font-size="10.00">Urho3D::Resource</text>
</a>
</g>
<!-- Node2&#45;&gt;Node1 -->
<g id="edge2" class="edge"><title>Node2&#45;&gt;Node1</title>
<path fill="none" stroke="midnightblue" d="M676.232,-584.045C818.168,-610.431 1176.99,-671 1480,-671 1480,-671 1480,-671 1839,-671 2025.66,-671 2057.84,-338.797 2062.35,-273.913"/>
<polygon fill="midnightblue" stroke="midnightblue" points="676.461,-580.527 665.988,-582.129 675.174,-587.408 676.461,-580.527"/>
</g>
<!-- Node16 -->
<g id="node38" class="node"><title>Node16</title>
<a xlink:href="class_urho3_d_1_1_sprite_sheet2_d.html" target="_top" xlink:title="Sprite sheet.">
<polygon fill="none" stroke="black" points="1536,-466.5 1536,-487.5 1666,-487.5 1666,-466.5 1536,-466.5"/>
<text text-anchor="middle" x="1601" y="-474.5" font-family="FreeSans" font-size="10.00">Urho3D::SpriteSheet2D</text>
</a>
</g>
<!-- Node2&#45;&gt;Node16 -->
<g id="edge48" class="edge"><title>Node2&#45;&gt;Node16</title>
<path fill="none" stroke="midnightblue" d="M675.558,-570.063C725.525,-568.656 797.801,-567 861,-567 861,-567 861,-567 1348,-567 1441.94,-567 1544.74,-511.241 1584.26,-487.5"/>
<polygon fill="midnightblue" stroke="midnightblue" points="675.455,-566.564 665.559,-570.349 675.655,-573.561 675.455,-566.564"/>
</g>
<!-- Node21 -->
<g id="node50" class="node"><title>Node21</title>
<a xlink:href="class_urho3_d_1_1_texture.html" target="_top" xlink:title="Base class for texture resources.">
<polygon fill="none" stroke="red" points="814,-450.5 814,-471.5 908,-471.5 908,-450.5 814,-450.5"/>
<text text-anchor="middle" x="861" y="-458.5" font-family="FreeSans" font-size="10.00">Urho3D::Texture</text>
</a>
</g>
<!-- Node2&#45;&gt;Node21 -->
<g id="edge62" class="edge"><title>Node2&#45;&gt;Node21</title>
<path fill="none" stroke="midnightblue" d="M646.872,-557.227C697.438,-534.504 793.09,-491.518 837.388,-471.611"/>
<polygon fill="midnightblue" stroke="midnightblue" points="645.37,-554.065 637.683,-561.357 648.239,-560.45 645.37,-554.065"/>
</g>
<!-- Node3 -->
<g id="node4" class="node"><title>Node3</title>
<a xlink:href="class_urho3_d_1_1_object.html" target="_top" xlink:title="Base class for objects with type identification, subsystem access and event sending/receiving capabil...">
<polygon fill="none" stroke="black" points="352,-725.5 352,-746.5 442,-746.5 442,-725.5 352,-725.5"/>
<text text-anchor="middle" x="397" y="-733.5" font-family="FreeSans" font-size="10.00">Urho3D::Object</text>
</a>
</g>
<!-- Node3&#45;&gt;Node2 -->
<g id="edge4" class="edge"><title>Node3&#45;&gt;Node2</title>
<path fill="none" stroke="midnightblue" d="M427.06,-720.559C465.962,-700.524 529.35,-667.68 534,-664 565.37,-639.175 594.025,-600.86 606.875,-582.505"/>
<polygon fill="midnightblue" stroke="midnightblue" points="425.038,-717.664 417.748,-725.352 428.241,-723.888 425.038,-717.664"/>
</g>
<!-- Node8 -->
<g id="node15" class="node"><title>Node8</title>
<a xlink:href="class_urho3_d_1_1_event_handler.html" target="_top" xlink:title="Internal helper class for invoking event handler functions.">
<polygon fill="none" stroke="red" points="552,-686.5 552,-707.5 676,-707.5 676,-686.5 552,-686.5"/>
<text text-anchor="middle" x="614" y="-694.5" font-family="FreeSans" font-size="10.00">Urho3D::EventHandler</text>
</a>
</g>
<!-- Node3&#45;&gt;Node8 -->
<g id="edge18" class="edge"><title>Node3&#45;&gt;Node8</title>
<path fill="none" stroke="#9a32cd" stroke-dasharray="5,2" d="M434.678,-722.284C446.491,-718.435 459.667,-714.596 472,-712 497.835,-706.562 526.75,-703.052 551.712,-700.808"/>
<polygon fill="#9a32cd" stroke="#9a32cd" points="433.489,-718.991 425.124,-725.493 435.718,-725.627 433.489,-718.991"/>
<text text-anchor="middle" x="503" y="-729" font-family="FreeSans" font-size="10.00"> sender_</text>
<text text-anchor="middle" x="503" y="-716" font-family="FreeSans" font-size="10.00">receiver_</text>
</g>
<!-- Node4 -->
<g id="node6" class="node"><title>Node4</title>
<a xlink:href="class_urho3_d_1_1_ref_counted.html" target="_top" xlink:title="Base class for intrusively reference&#45;counted objects. These are noncopyable and non&#45;assignable.">
<polygon fill="none" stroke="black" points="188,-725.5 188,-746.5 302,-746.5 302,-725.5 188,-725.5"/>
<text text-anchor="middle" x="245" y="-733.5" font-family="FreeSans" font-size="10.00">Urho3D::RefCounted</text>
</a>
</g>
<!-- Node4&#45;&gt;Node3 -->
<g id="edge6" class="edge"><title>Node4&#45;&gt;Node3</title>
<path fill="none" stroke="midnightblue" d="M312.222,-736C325.681,-736 339.512,-736 351.996,-736"/>
<polygon fill="midnightblue" stroke="midnightblue" points="312.032,-732.5 302.032,-736 312.032,-739.5 312.032,-732.5"/>
</g>
<!-- Node6 -->
<g id="node10" class="node"><title>Node6</title>
<a xlink:href="class_urho3_d_1_1_context.html" target="_top" xlink:title="Urho3D execution context. Provides access to subsystems, object factories and attributes, and event receivers.">
<polygon fill="none" stroke="red" points="812.5,-821.5 812.5,-842.5 909.5,-842.5 909.5,-821.5 812.5,-821.5"/>
<text text-anchor="middle" x="861" y="-829.5" font-family="FreeSans" font-size="10.00">Urho3D::Context</text>
</a>
</g>
<!-- Node4&#45;&gt;Node6 -->
<g id="edge12" class="edge"><title>Node4&#45;&gt;Node6</title>
<path fill="none" stroke="midnightblue" d="M270.091,-751.877C320.885,-782.969 440.553,-850.945 552,-875 654.181,-897.055 777.92,-861.415 832.634,-842.538"/>
<polygon fill="midnightblue" stroke="midnightblue" points="271.771,-748.801 261.425,-746.52 268.09,-754.755 271.771,-748.801"/>
</g>
<!-- Node5 -->
<g id="node8" class="node"><title>Node5</title>
<a xlink:href="struct_urho3_d_1_1_ref_count.html" target="_top" xlink:title="Reference count structure.">
<polygon fill="none" stroke="black" points="0,-378.5 0,-399.5 102,-399.5 102,-378.5 0,-378.5"/>
<text text-anchor="middle" x="51" y="-386.5" font-family="FreeSans" font-size="10.00">Urho3D::RefCount</text>
</a>
</g>
<!-- Node5&#45;&gt;Node4 -->
<g id="edge8" class="edge"><title>Node5&#45;&gt;Node4</title>
<path fill="none" stroke="#9a32cd" stroke-dasharray="5,2" d="M61.9139,-408.521C97.8443,-472.789 211.703,-676.442 239.051,-725.36"/>
<polygon fill="#9a32cd" stroke="#9a32cd" points="64.9537,-406.786 57.0188,-399.766 58.8437,-410.202 64.9537,-406.786"/>
<text text-anchor="middle" x="145" y="-597" font-family="FreeSans" font-size="10.00"> refCount_</text>
</g>
<!-- Node15 -->
<g id="node36" class="node"><title>Node15</title>
<a xlink:href="class_urho3_d_1_1_weak_ptr.html" target="_top" xlink:title="Urho3D::WeakPtr\&lt; Urho3D\l::SpriteSheet2D \&gt;">
<polygon fill="none" stroke="black" points="1766,-316 1766,-350 1912,-350 1912,-316 1766,-316"/>
<text text-anchor="start" x="1774" y="-337" font-family="FreeSans" font-size="10.00">Urho3D::WeakPtr&lt; Urho3D</text>
<text text-anchor="middle" x="1839" y="-324" font-family="FreeSans" font-size="10.00">::SpriteSheet2D &gt;</text>
</a>
</g>
<!-- Node5&#45;&gt;Node15 -->
<g id="edge72" class="edge"><title>Node5&#45;&gt;Node15</title>
<path fill="none" stroke="#9a32cd" stroke-dasharray="5,2" d="M66.1042,-370.188C96.1494,-335.057 167.251,-263 245,-263 245,-263 245,-263 1348,-263 1499.11,-263 1534.26,-294.725 1684,-315 1710.71,-318.617 1740.07,-322.141 1765.99,-325.099"/>
<polygon fill="#9a32cd" stroke="#9a32cd" points="63.0903,-368.337 59.3711,-378.257 68.4651,-372.821 63.0903,-368.337"/>
<text text-anchor="middle" x="861" y="-267" font-family="FreeSans" font-size="10.00"> refCount_</text>
</g>
<!-- Node6&#45;&gt;Node3 -->
<g id="edge10" class="edge"><title>Node6&#45;&gt;Node3</title>
<path fill="none" stroke="#9a32cd" stroke-dasharray="5,2" d="M802.35,-821.819C725.975,-808.268 588.466,-782.874 472,-756 459.788,-753.182 446.551,-749.772 434.645,-746.572"/>
<polygon fill="#9a32cd" stroke="#9a32cd" points="801.804,-825.276 812.261,-823.571 803.023,-818.383 801.804,-825.276"/>
<text text-anchor="middle" x="614" y="-801" font-family="FreeSans" font-size="10.00"> context_</text>
</g>
<!-- Node7 -->
<g id="node13" class="node"><title>Node7</title>
<a xlink:href="class_urho3_d_1_1_p_o_d_vector.html" target="_top" xlink:title="Urho3D::PODVector\&lt;\l Urho3D::Object * \&gt;">
<polygon fill="none" stroke="red" points="554.5,-832 554.5,-866 673.5,-866 673.5,-832 554.5,-832"/>
<text text-anchor="start" x="562.5" y="-853" font-family="FreeSans" font-size="10.00">Urho3D::PODVector&lt;</text>
<text text-anchor="middle" x="614" y="-840" font-family="FreeSans" font-size="10.00"> Urho3D::Object * &gt;</text>
</a>
</g>
<!-- Node7&#45;&gt;Node6 -->
<g id="edge14" class="edge"><title>Node7&#45;&gt;Node6</title>
<path fill="none" stroke="#9a32cd" stroke-dasharray="5,2" d="M683.968,-844.184C724.877,-841.369 775.502,-837.884 812.122,-835.364"/>
<polygon fill="#9a32cd" stroke="#9a32cd" points="683.528,-840.706 673.792,-844.885 684.009,-847.69 683.528,-840.706"/>
<text text-anchor="middle" x="732" y="-847" font-family="FreeSans" font-size="10.00"> eventSenders_</text>
</g>
<!-- Node8&#45;&gt;Node6 -->
<g id="edge16" class="edge"><title>Node8&#45;&gt;Node6</title>
<path fill="none" stroke="#9a32cd" stroke-dasharray="5,2" d="M646.716,-711.877C678.655,-726.696 728.385,-750.559 770,-774 797.26,-789.355 827.679,-809.358 845.536,-821.411"/>
<polygon fill="#9a32cd" stroke="#9a32cd" points="647.95,-708.592 637.403,-707.579 645.016,-714.947 647.95,-708.592"/>
<text text-anchor="middle" x="732" y="-778" font-family="FreeSans" font-size="10.00"> eventHandler_</text>
</g>
<!-- Node10 -->
<g id="node21" class="node"><title>Node10</title>
<a xlink:href="class_urho3_d_1_1_linked_list.html" target="_top" xlink:title="Urho3D::LinkedList\l\&lt; Urho3D::EventHandler \&gt;">
<polygon fill="none" stroke="black" points="788,-715 788,-749 934,-749 934,-715 788,-715"/>
<text text-anchor="start" x="796" y="-736" font-family="FreeSans" font-size="10.00">Urho3D::LinkedList</text>
<text text-anchor="middle" x="861" y="-723" font-family="FreeSans" font-size="10.00">&lt; Urho3D::EventHandler &gt;</text>
</a>
</g>
<!-- Node8&#45;&gt;Node10 -->
<g id="edge26" class="edge"><title>Node8&#45;&gt;Node10</title>
<path fill="none" stroke="#9a32cd" stroke-dasharray="5,2" d="M686.049,-689.154C712.656,-687.944 742.916,-688.572 770,-694 790.312,-698.071 811.753,-706.783 828.717,-714.839"/>
<polygon fill="#9a32cd" stroke="#9a32cd" points="685.838,-685.66 676.044,-689.701 686.221,-692.65 685.838,-685.66"/>
<text text-anchor="middle" x="732" y="-698" font-family="FreeSans" font-size="10.00"> head_</text>
</g>
<!-- Node9 -->
<g id="node18" class="node"><title>Node9</title>
<a xlink:href="class_urho3_d_1_1_string_hash.html" target="_top" xlink:title="32&#45;bit hash value for a string.">
<polygon fill="none" stroke="black" points="340.5,-620.5 340.5,-641.5 453.5,-641.5 453.5,-620.5 340.5,-620.5"/>
<text text-anchor="middle" x="397" y="-628.5" font-family="FreeSans" font-size="10.00">Urho3D::StringHash</text>
</a>
</g>
<!-- Node9&#45;&gt;Node2 -->
<g id="edge34" class="edge"><title>Node9&#45;&gt;Node2</title>
<path fill="none" stroke="#9a32cd" stroke-dasharray="5,2" d="M445.891,-617.707C484.974,-607.081 539.02,-592.386 575.175,-582.556"/>
<polygon fill="#9a32cd" stroke="#9a32cd" points="444.527,-614.451 435.795,-620.452 446.363,-621.206 444.527,-614.451"/>
<text text-anchor="middle" x="503" y="-614" font-family="FreeSans" font-size="10.00"> nameHash_</text>
</g>
<!-- Node9&#45;&gt;Node8 -->
<g id="edge20" class="edge"><title>Node9&#45;&gt;Node8</title>
<path fill="none" stroke="#9a32cd" stroke-dasharray="5,2" d="M441.547,-644.549C482.325,-656.951 541.846,-675.054 579.222,-686.422"/>
<polygon fill="#9a32cd" stroke="#9a32cd" points="442.451,-641.165 431.865,-641.604 440.414,-647.863 442.451,-641.165"/>
<text text-anchor="middle" x="503" y="-675" font-family="FreeSans" font-size="10.00"> eventType_</text>
</g>
<!-- Node9&#45;&gt;Node9 -->
<g id="edge22" class="edge"><title>Node9&#45;&gt;Node9</title>
<path fill="none" stroke="#9a32cd" stroke-dasharray="5,2" d="M383.082,-651.793C384.31,-656.529 388.95,-660 397,-660 410.211,-660 414.236,-650.653 409.076,-641.708"/>
<polygon fill="#9a32cd" stroke="#9a32cd" points="386.57,-652.174 384.924,-641.708 379.684,-650.916 386.57,-652.174"/>
<text text-anchor="middle" x="397" y="-664" font-family="FreeSans" font-size="10.00"> ZERO</text>
</g>
<!-- Node10&#45;&gt;Node3 -->
<g id="edge24" class="edge"><title>Node10&#45;&gt;Node3</title>
<path fill="none" stroke="#9a32cd" stroke-dasharray="5,2" d="M777.327,-742.503C774.859,-742.688 772.413,-742.855 770,-743 651.85,-750.115 512.304,-743.504 442.119,-739.139"/>
<polygon fill="#9a32cd" stroke="#9a32cd" points="777.889,-745.968 787.562,-741.646 777.305,-738.992 777.889,-745.968"/>
<text text-anchor="middle" x="614" y="-750" font-family="FreeSans" font-size="10.00"> eventHandlers_</text>
</g>
<!-- Node11 -->
<g id="node24" class="node"><title>Node11</title>
<a xlink:href="class_urho3_d_1_1_timer.html" target="_top" xlink:title="Low&#45;resolution operating system timer.">
<polygon fill="none" stroke="black" points="354,-561.5 354,-582.5 440,-582.5 440,-561.5 354,-561.5"/>
<text text-anchor="middle" x="397" y="-569.5" font-family="FreeSans" font-size="10.00">Urho3D::Timer</text>
</a>
</g>
<!-- Node11&#45;&gt;Node2 -->
<g id="edge28" class="edge"><title>Node11&#45;&gt;Node2</title>
<path fill="none" stroke="#9a32cd" stroke-dasharray="5,2" d="M450.366,-572C484.436,-572 528.384,-572 562.155,-572"/>
<polygon fill="#9a32cd" stroke="#9a32cd" points="450.132,-568.5 440.132,-572 450.132,-575.5 450.132,-568.5"/>
<text text-anchor="middle" x="503" y="-576" font-family="FreeSans" font-size="10.00"> useTimer_</text>
</g>
<!-- Node12 -->
<g id="node26" class="node"><title>Node12</title>
<a xlink:href="class_urho3_d_1_1_string.html" target="_top" xlink:title="String class.">
<polygon fill="none" stroke="black" points="353,-490.5 353,-511.5 441,-511.5 441,-490.5 353,-490.5"/>
<text text-anchor="middle" x="397" y="-498.5" font-family="FreeSans" font-size="10.00">Urho3D::String</text>
</a>
</g>
<!-- Node12&#45;&gt;Node2 -->
<g id="edge30" class="edge"><title>Node12&#45;&gt;Node2</title>
<path fill="none" stroke="#9a32cd" stroke-dasharray="5,2" d="M439.08,-514.768C480.769,-528.408 543.722,-549.006 581.646,-561.414"/>
<polygon fill="#9a32cd" stroke="#9a32cd" points="440.08,-511.413 429.487,-511.629 437.903,-518.066 440.08,-511.413"/>
<text text-anchor="middle" x="503" y="-548" font-family="FreeSans" font-size="10.00"> name_</text>
</g>
<!-- Node12&#45;&gt;Node12 -->
<g id="edge32" class="edge"><title>Node12&#45;&gt;Node12</title>
<path fill="none" stroke="#9a32cd" stroke-dasharray="5,2" d="M383.082,-521.793C384.31,-526.529 388.95,-530 397,-530 410.211,-530 414.236,-520.653 409.076,-511.708"/>
<polygon fill="#9a32cd" stroke="#9a32cd" points="386.57,-522.174 384.924,-511.708 379.684,-520.916 386.57,-522.174"/>
<text text-anchor="middle" x="397" y="-534" font-family="FreeSans" font-size="10.00"> EMPTY</text>
</g>
<!-- Node12&#45;&gt;Node16 -->
<g id="edge52" class="edge"><title>Node12&#45;&gt;Node16</title>
<path fill="none" stroke="#9a32cd" stroke-dasharray="5,2" d="M451.374,-499.916C648.089,-495.995 1322.33,-482.555 1535.7,-478.302"/>
<polygon fill="#9a32cd" stroke="#9a32cd" points="451.207,-496.419 441.279,-500.117 451.347,-503.417 451.207,-496.419"/>
<text text-anchor="middle" x="999" y="-493" font-family="FreeSans" font-size="10.00"> loadTextureName_</text>
</g>
<!-- Node13 -->
<g id="node30" class="node"><title>Node13</title>
<a xlink:href="class_urho3_d_1_1_int_rect.html" target="_top" xlink:title="Two&#45;dimensional bounding rectangle with integer values.">
<polygon fill="none" stroke="black" points="1793,-207.5 1793,-228.5 1885,-228.5 1885,-207.5 1793,-207.5"/>
<text text-anchor="middle" x="1839" y="-215.5" font-family="FreeSans" font-size="10.00">Urho3D::IntRect</text>
</a>
</g>
<!-- Node13&#45;&gt;Node1 -->
<g id="edge36" class="edge"><title>Node13&#45;&gt;Node1</title>
<path fill="none" stroke="#9a32cd" stroke-dasharray="5,2" d="M1895,-229.249C1930.97,-236.477 1977.33,-245.79 2012.23,-252.802"/>
<polygon fill="#9a32cd" stroke="#9a32cd" points="1895.63,-225.808 1885.14,-227.269 1894.26,-232.671 1895.63,-225.808"/>
<text text-anchor="middle" x="1962" y="-253" font-family="FreeSans" font-size="10.00"> rectangle_</text>
</g>
<!-- Node13&#45;&gt;Node13 -->
<g id="edge38" class="edge"><title>Node13&#45;&gt;Node13</title>
<path fill="none" stroke="#9a32cd" stroke-dasharray="5,2" d="M1816.52,-238.427C1818.25,-243.349 1825.75,-247 1839,-247 1860.21,-247 1866.67,-237.653 1858.38,-228.708"/>
<polygon fill="#9a32cd" stroke="#9a32cd" points="1819.91,-239.299 1819.62,-228.708 1813.24,-237.172 1819.91,-239.299"/>
<text text-anchor="middle" x="1839" y="-251" font-family="FreeSans" font-size="10.00"> ZERO</text>
</g>
<!-- Node14 -->
<g id="node33" class="node"><title>Node14</title>
<a xlink:href="class_urho3_d_1_1_vector2.html" target="_top" xlink:title="Two&#45;dimensional vector.">
<polygon fill="none" stroke="black" points="1791,-71.5 1791,-92.5 1887,-92.5 1887,-71.5 1791,-71.5"/>
<text text-anchor="middle" x="1839" y="-79.5" font-family="FreeSans" font-size="10.00">Urho3D::Vector2</text>
</a>
</g>
<!-- Node14&#45;&gt;Node1 -->
<g id="edge40" class="edge"><title>Node14&#45;&gt;Node1</title>
<path fill="none" stroke="#9a32cd" stroke-dasharray="5,2" d="M1860.04,-98.9992C1905.69,-135.886 2012.71,-222.368 2049.95,-252.457"/>
<polygon fill="#9a32cd" stroke="#9a32cd" points="1861.99,-96.0764 1852.01,-92.5137 1857.59,-101.521 1861.99,-96.0764"/>
<text text-anchor="middle" x="1962" y="-209" font-family="FreeSans" font-size="10.00"> hotSpot_</text>
</g>
<!-- Node14&#45;&gt;Node14 -->
<g id="edge42" class="edge"><title>Node14&#45;&gt;Node14</title>
<path fill="none" stroke="#9a32cd" stroke-dasharray="5,2" d="M1816.52,-102.427C1818.25,-107.349 1825.75,-111 1839,-111 1860.21,-111 1866.67,-101.653 1858.38,-92.7079"/>
<polygon fill="#9a32cd" stroke="#9a32cd" points="1819.91,-103.299 1819.62,-92.7079 1813.24,-101.172 1819.91,-103.299"/>
<text text-anchor="middle" x="1839" y="-180" font-family="FreeSans" font-size="10.00"> ONE</text>
<text text-anchor="middle" x="1839" y="-167" font-family="FreeSans" font-size="10.00">DOWN</text>
<text text-anchor="middle" x="1839" y="-154" font-family="FreeSans" font-size="10.00">RIGHT</text>
<text text-anchor="middle" x="1839" y="-141" font-family="FreeSans" font-size="10.00">LEFT</text>
<text text-anchor="middle" x="1839" y="-128" font-family="FreeSans" font-size="10.00">ZERO</text>
<text text-anchor="middle" x="1839" y="-115" font-family="FreeSans" font-size="10.00">UP</text>
</g>
<!-- Node15&#45;&gt;Node1 -->
<g id="edge44" class="edge"><title>Node15&#45;&gt;Node1</title>
<path fill="none" stroke="#9a32cd" stroke-dasharray="5,2" d="M1922.1,-321.402C1945.76,-316.761 1971.27,-310.451 1994,-302 2013.48,-294.76 2033.98,-282.492 2047.53,-273.647"/>
<polygon fill="#9a32cd" stroke="#9a32cd" points="1921.26,-317.998 1912.09,-323.29 1922.56,-324.877 1921.26,-317.998"/>
<text text-anchor="middle" x="1962" y="-323" font-family="FreeSans" font-size="10.00"> spriteSheet_</text>
</g>
<!-- Node16&#45;&gt;Node15 -->
<g id="edge46" class="edge"><title>Node16&#45;&gt;Node15</title>
<path fill="none" stroke="#9a32cd" stroke-dasharray="5,2" d="M1627.12,-461.198C1672.19,-433.928 1764.2,-378.257 1810.72,-350.109"/>
<polygon fill="#9a32cd" stroke="#9a32cd" points="1625.24,-458.24 1618.5,-466.411 1628.87,-464.229 1625.24,-458.24"/>
<text text-anchor="middle" x="1716" y="-430" font-family="FreeSans" font-size="10.00"> ptr_</text>
</g>
<!-- Node17 -->
<g id="node41" class="node"><title>Node17</title>
<a xlink:href="class_urho3_d_1_1_hash_map.html" target="_top" xlink:title="Urho3D::HashMap\&lt; Urho3D\l::String, Urho3D::SharedPtr\l\&lt; Urho3D::Sprite2D \&gt; \&gt;">
<polygon fill="none" stroke="red" points="1272,-595.5 1272,-642.5 1424,-642.5 1424,-595.5 1272,-595.5"/>
<text text-anchor="start" x="1280" y="-629.5" font-family="FreeSans" font-size="10.00">Urho3D::HashMap&lt; Urho3D</text>
<text text-anchor="start" x="1280" y="-616.5" font-family="FreeSans" font-size="10.00">::String, Urho3D::SharedPtr</text>
<text text-anchor="middle" x="1348" y="-603.5" font-family="FreeSans" font-size="10.00">&lt; Urho3D::Sprite2D &gt; &gt;</text>
</a>
</g>
<!-- Node17&#45;&gt;Node16 -->
<g id="edge50" class="edge"><title>Node17&#45;&gt;Node16</title>
<path fill="none" stroke="#9a32cd" stroke-dasharray="5,2" d="M1434.05,-611.309C1462.38,-605.863 1492.99,-596.628 1518,-581 1556.4,-557.004 1584.65,-508.789 1595.79,-487.506"/>
<polygon fill="#9a32cd" stroke="#9a32cd" points="1433.36,-607.876 1424.14,-613.082 1434.6,-614.767 1433.36,-607.876"/>
<text text-anchor="middle" x="1480" y="-613" font-family="FreeSans" font-size="10.00"> spriteMapping_</text>
</g>
<!-- Node18 -->
<g id="node44" class="node"><title>Node18</title>
<a xlink:href="class_urho3_d_1_1_shared_ptr.html" target="_top" xlink:title="Urho3D::SharedPtr\&lt;\l Urho3D::XMLFile \&gt;">
<polygon fill="none" stroke="red" points="803,-398 803,-432 919,-432 919,-398 803,-398"/>
<text text-anchor="start" x="811" y="-419" font-family="FreeSans" font-size="10.00">Urho3D::SharedPtr&lt;</text>
<text text-anchor="middle" x="861" y="-406" font-family="FreeSans" font-size="10.00"> Urho3D::XMLFile &gt;</text>
</a>
</g>
<!-- Node18&#45;&gt;Node16 -->
<g id="edge54" class="edge"><title>Node18&#45;&gt;Node16</title>
<path fill="none" stroke="#9a32cd" stroke-dasharray="5,2" d="M929.291,-417.868C1048.91,-423.363 1303.96,-437.188 1518,-463 1525.98,-463.962 1534.36,-465.157 1542.6,-466.441"/>
<polygon fill="#9a32cd" stroke="#9a32cd" points="929.331,-414.366 919.182,-417.408 929.013,-421.359 929.331,-414.366"/>
<text text-anchor="middle" x="1222" y="-441" font-family="FreeSans" font-size="10.00"> loadXMLFile_</text>
</g>
<!-- Node20 -->
<g id="node48" class="node"><title>Node20</title>
<a xlink:href="class_urho3_d_1_1_texture2_d.html" target="_top" xlink:title="2D texture resource.">
<polygon fill="none" stroke="black" points="1064.5,-357.5 1064.5,-378.5 1171.5,-378.5 1171.5,-357.5 1064.5,-357.5"/>
<text text-anchor="middle" x="1118" y="-365.5" font-family="FreeSans" font-size="10.00">Urho3D::Texture2D</text>
</a>
</g>
<!-- Node18&#45;&gt;Node20 -->
<g id="edge68" class="edge"><title>Node18&#45;&gt;Node20</title>
<path fill="none" stroke="#9a32cd" stroke-dasharray="5,2" d="M920.476,-394.982C930.897,-391.969 941.701,-389.155 952,-387 989.053,-379.248 1031.47,-374.462 1064.15,-371.633"/>
<polygon fill="#9a32cd" stroke="#9a32cd" points="919.215,-391.705 910.632,-397.916 921.215,-398.414 919.215,-391.705"/>
<text text-anchor="middle" x="999" y="-391" font-family="FreeSans" font-size="10.00"> loadParameters_</text>
</g>
<!-- Node19 -->
<g id="node46" class="node"><title>Node19</title>
<a xlink:href="class_urho3_d_1_1_shared_ptr.html" target="_top" xlink:title="Urho3D::SharedPtr\&lt;\l Urho3D::Texture2D \&gt;">
<polygon fill="none" stroke="black" points="1287,-351 1287,-385 1409,-385 1409,-351 1287,-351"/>
<text text-anchor="start" x="1295" y="-372" font-family="FreeSans" font-size="10.00">Urho3D::SharedPtr&lt;</text>
<text text-anchor="middle" x="1348" y="-359" font-family="FreeSans" font-size="10.00"> Urho3D::Texture2D &gt;</text>
</a>
</g>
<!-- Node19&#45;&gt;Node1 -->
<g id="edge78" class="edge"><title>Node19&#45;&gt;Node1</title>
<path fill="none" stroke="#9a32cd" stroke-dasharray="5,2" d="M1419.35,-357.522C1563.77,-336.314 1887.54,-288.766 2012.48,-270.419"/>
<polygon fill="#9a32cd" stroke="#9a32cd" points="1418.65,-354.086 1409.27,-359.002 1419.67,-361.012 1418.65,-354.086"/>
<text text-anchor="middle" x="1716" y="-334" font-family="FreeSans" font-size="10.00"> loadTexture_</text>
<text text-anchor="middle" x="1716" y="-321" font-family="FreeSans" font-size="10.00">texture_</text>
</g>
<!-- Node19&#45;&gt;Node16 -->
<g id="edge56" class="edge"><title>Node19&#45;&gt;Node16</title>
<path fill="none" stroke="#9a32cd" stroke-dasharray="5,2" d="M1419.13,-379.605C1450.51,-386.42 1487.17,-396.771 1518,-412 1546.88,-426.267 1575.28,-451.639 1590.21,-466.104"/>
<polygon fill="#9a32cd" stroke="#9a32cd" points="1419.65,-376.138 1409.15,-377.515 1418.22,-382.989 1419.65,-376.138"/>
<text text-anchor="middle" x="1480" y="-416" font-family="FreeSans" font-size="10.00"> texture_</text>
</g>
<!-- Node20&#45;&gt;Node19 -->
<g id="edge58" class="edge"><title>Node20&#45;&gt;Node19</title>
<path fill="none" stroke="#9a32cd" stroke-dasharray="5,2" d="M1182.03,-368C1214.84,-368 1254.59,-368 1286.97,-368"/>
<polygon fill="#9a32cd" stroke="#9a32cd" points="1181.63,-364.5 1171.63,-368 1181.63,-371.5 1181.63,-364.5"/>
<text text-anchor="middle" x="1222" y="-372" font-family="FreeSans" font-size="10.00"> ptr_</text>
</g>
<!-- Node21&#45;&gt;Node20 -->
<g id="edge60" class="edge"><title>Node21&#45;&gt;Node20</title>
<path fill="none" stroke="midnightblue" d="M911.541,-447.744C919.099,-445.591 926.776,-443.307 934,-441 984.495,-424.872 996.864,-419.887 1046,-400 1062.61,-393.277 1081.07,-385.055 1095.15,-378.629"/>
<polygon fill="midnightblue" stroke="midnightblue" points="910.409,-444.426 901.721,-450.49 912.294,-451.168 910.409,-444.426"/>
</g>
<!-- Node22 -->
<g id="node53" class="node"><title>Node22</title>
<a xlink:href="class_urho3_d_1_1_shared_ptr.html" target="_top" xlink:title="Urho3D::SharedPtr\&lt;\l Urho3D::Image \&gt;">
<polygon fill="none" stroke="red" points="803,-294 803,-328 919,-328 919,-294 803,-294"/>
<text text-anchor="start" x="811" y="-315" font-family="FreeSans" font-size="10.00">Urho3D::SharedPtr&lt;</text>
<text text-anchor="middle" x="861" y="-302" font-family="FreeSans" font-size="10.00"> Urho3D::Image &gt;</text>
</a>
</g>
<!-- Node22&#45;&gt;Node20 -->
<g id="edge64" class="edge"><title>Node22&#45;&gt;Node20</title>
<path fill="none" stroke="#9a32cd" stroke-dasharray="5,2" d="M929.399,-312.429C964.816,-314.653 1008.4,-319.731 1046,-331 1066.19,-337.052 1087.44,-348.715 1101.58,-357.335"/>
<polygon fill="#9a32cd" stroke="#9a32cd" points="929.345,-308.92 919.163,-311.85 928.95,-315.909 929.345,-308.92"/>
<text text-anchor="middle" x="999" y="-335" font-family="FreeSans" font-size="10.00"> loadImage_</text>
</g>
<!-- Node23 -->
<g id="node55" class="node"><title>Node23</title>
<a xlink:href="class_urho3_d_1_1_shared_ptr.html" target="_top" xlink:title="Urho3D::SharedPtr\&lt;\l Urho3D::RenderSurface \&gt;">
<polygon fill="none" stroke="red" points="789.5,-346 789.5,-380 932.5,-380 932.5,-346 789.5,-346"/>
<text text-anchor="start" x="797.5" y="-367" font-family="FreeSans" font-size="10.00">Urho3D::SharedPtr&lt;</text>
<text text-anchor="middle" x="861" y="-354" font-family="FreeSans" font-size="10.00"> Urho3D::RenderSurface &gt;</text>
</a>
</g>
<!-- Node23&#45;&gt;Node20 -->
<g id="edge66" class="edge"><title>Node23&#45;&gt;Node20</title>
<path fill="none" stroke="#9a32cd" stroke-dasharray="5,2" d="M943.014,-351.33C975.191,-348.41 1012.39,-347.086 1046,-351 1057.35,-352.322 1069.52,-354.78 1080.55,-357.423"/>
<polygon fill="#9a32cd" stroke="#9a32cd" points="942.368,-347.877 932.754,-352.33 943.046,-354.844 942.368,-347.877"/>
<text text-anchor="middle" x="999" y="-355" font-family="FreeSans" font-size="10.00"> renderSurface_</text>
</g>
<!-- Node24 -->
<g id="node58" class="node"><title>Node24</title>
<a xlink:href="class_urho3_d_1_1_shared_ptr.html" target="_top" xlink:title="Urho3D::SharedPtr\&lt;\l Urho3D::PListFile \&gt;">
<polygon fill="none" stroke="red" points="1290,-505 1290,-539 1406,-539 1406,-505 1290,-505"/>
<text text-anchor="start" x="1298" y="-526" font-family="FreeSans" font-size="10.00">Urho3D::SharedPtr&lt;</text>
<text text-anchor="middle" x="1348" y="-513" font-family="FreeSans" font-size="10.00"> Urho3D::PListFile &gt;</text>
</a>
</g>
<!-- Node24&#45;&gt;Node16 -->
<g id="edge70" class="edge"><title>Node24&#45;&gt;Node16</title>
<path fill="none" stroke="#9a32cd" stroke-dasharray="5,2" d="M1416.07,-509.893C1455.35,-502.907 1504.26,-494.207 1541.91,-487.51"/>
<polygon fill="#9a32cd" stroke="#9a32cd" points="1415.28,-506.479 1406.04,-511.676 1416.5,-513.371 1415.28,-506.479"/>
<text text-anchor="middle" x="1480" y="-508" font-family="FreeSans" font-size="10.00"> loadPListFile_</text>
</g>
<!-- Node25 -->
<g id="node61" class="node"><title>Node25</title>
<a xlink:href="class_urho3_d_1_1_int_vector2.html" target="_top" xlink:title="Two&#45;dimensional vector with integer values.">
<polygon fill="none" stroke="black" points="1785,-0.5 1785,-21.5 1893,-21.5 1893,-0.5 1785,-0.5"/>
<text text-anchor="middle" x="1839" y="-8.5" font-family="FreeSans" font-size="10.00">Urho3D::IntVector2</text>
</a>
</g>
<!-- Node25&#45;&gt;Node1 -->
<g id="edge74" class="edge"><title>Node25&#45;&gt;Node1</title>
<path fill="none" stroke="#9a32cd" stroke-dasharray="5,2" d="M1864.17,-27.2146C1878.56,-36.8218 1896.73,-49.5243 1912,-62 1950.95,-93.8268 1963.13,-100.289 1994,-140 2023.6,-178.081 2048.51,-230.391 2058.41,-252.48"/>
<polygon fill="#9a32cd" stroke="#9a32cd" points="1866.03,-24.2487 1855.75,-21.6625 1862.17,-30.0914 1866.03,-24.2487"/>
<text text-anchor="middle" x="1962" y="-144" font-family="FreeSans" font-size="10.00"> offset_</text>
</g>
<!-- Node25&#45;&gt;Node25 -->
<g id="edge76" class="edge"><title>Node25&#45;&gt;Node25</title>
<path fill="none" stroke="#9a32cd" stroke-dasharray="5,2" d="M1816.52,-31.4266C1818.25,-36.3489 1825.75,-40 1839,-40 1860.21,-40 1866.67,-30.6531 1858.38,-21.7079"/>
<polygon fill="#9a32cd" stroke="#9a32cd" points="1819.91,-32.2985 1819.62,-21.7079 1813.24,-30.1721 1819.91,-32.2985"/>
<text text-anchor="middle" x="1839" y="-44" font-family="FreeSans" font-size="10.00"> ZERO</text>
</g>
</g>
</svg>
        <g id="navigator" transform="translate(0 0)" fill="#404254">
                <rect fill="#f2f5e9" fill-opacity="0.5" stroke="#606060" stroke-width=".5" x="0" y="0" width="60" height="60"/>
                <use id="zoomplus" xlink:href="#zoomPlus" x="17" y="9" onmousedown="handleZoom(evt,'in')"/>
                <use id="zoomminus" xlink:href="#zoomMin" x="42" y="9" onmousedown="handleZoom(evt,'out')"/>
                <use id="reset" xlink:href="#resetDef" x="30" y="36" onmousedown="handleReset()"/>
                <g id="arrowUp" xlink:href="#dirArrow" transform="translate(30 24)" onmousedown="handlePan(0,-1)">
                  <use xlink:href="#rim" fill="#404040">
                        <set attributeName="fill" to="#808080" begin="arrowUp.mouseover" end="arrowUp.mouseout"/>
                  </use>
                  <path fill="none" stroke="white" stroke-width="1.5" d="M0,-3.0v7 M-2.5,-0.5L0,-3.0L2.5,-0.5"/>
                </g>
                <g id="arrowRight" xlink:href="#dirArrow" transform="rotate(90) translate(36 -43)" onmousedown="handlePan(1,0)">
                  <use xlink:href="#rim" fill="#404040">
                        <set attributeName="fill" to="#808080" begin="arrowRight.mouseover" end="arrowRight.mouseout"/>
                  </use>
                  <path fill="none" stroke="white" stroke-width="1.5" d="M0,-3.0v7 M-2.5,-0.5L0,-3.0L2.5,-0.5"/>
                </g>
                <g id="arrowDown" xlink:href="#dirArrow" transform="rotate(180) translate(-30 -48)" onmousedown="handlePan(0,1)">
                  <use xlink:href="#rim" fill="#404040">
                        <set attributeName="fill" to="#808080" begin="arrowDown.mouseover" end="arrowDown.mouseout"/>
                  </use>
                  <path fill="none" stroke="white" stroke-width="1.5" d="M0,-3.0v7 M-2.5,-0.5L0,-3.0L2.5,-0.5"/>
                </g>
                <g id="arrowLeft" xlink:href="#dirArrow" transform="rotate(270) translate(-36 17)" onmousedown="handlePan(-1,0)">
                  <use xlink:href="#rim" fill="#404040">
                        <set attributeName="fill" to="#808080" begin="arrowLeft.mouseover" end="arrowLeft.mouseout"/>
                  </use>
                  <path fill="none" stroke="white" stroke-width="1.5" d="M0,-3.0v7 M-2.5,-0.5L0,-3.0L2.5,-0.5"/>
                </g>
        </g>
        <svg viewBox="0 0 15 15" width="100%" height="30px" preserveAspectRatio="xMaxYMin meet">
         <g id="arrow_out" transform="scale(0.3 0.3)">
          <a xlink:href="class_urho3_d_1_1_sprite2_d__coll__graph_org.svg" target="_base">
           <rect id="button" ry="5" rx="5" y="6" x="6" height="38" width="38"
                fill="#f2f5e9" fill-opacity="0.5" stroke="#606060" stroke-width="1.0"/>
           <path id="arrow"
             d="M 11.500037,31.436501 C 11.940474,20.09759 22.043105,11.32322 32.158766,21.979434 L 37.068811,17.246167 C 37.068811,17.246167 37.088388,32 37.088388,32 L 22.160133,31.978069 C 22.160133,31.978069 26.997745,27.140456 26.997745,27.140456 C 18.528582,18.264221 13.291696,25.230495 11.500037,31.436501 z"
             style="fill:#404040;"/>
          </a>
         </g>
        </svg>
</svg>
