<?xml version="1.0" encoding="UTF-8" standalone="no"?>
<!DOCTYPE svg PUBLIC "-//W3C//DTD SVG 1.1//EN"
 "http://www.w3.org/Graphics/SVG/1.1/DTD/svg11.dtd">
<!-- Generated by graphviz version 2.26.3 (20100126.1600)
 -->
<!-- Title: Urho3D::TmxImageLayer2D Pages: 1 -->
<!--zoomable 1014 -->
<svg id="main" version="1.1" xmlns="http://www.w3.org/2000/svg" xmlns:xlink="http://www.w3.org/1999/xlink" xml:space="preserve" onload="init(evt)">
        <defs>
                <circle id="rim" cx="0" cy="0" r="7"/>
                <circle id="rim2" cx="0" cy="0" r="3.5"/>
                <g id="zoomPlus">
                        <use xlink:href="#rim" fill="#404040">
                                <set attributeName="fill" to="#808080" begin="zoomplus.mouseover" end="zoomplus.mouseout"/>
                        </use>
                        <path d="M-4,0h8M0,-4v8" fill="none" stroke="white" stroke-width="1.5" pointer-events="none"/>
                </g>
                <g id="zoomMin">
                        <use xlink:href="#rim" fill="#404040">
                                <set attributeName="fill" to="#808080" begin="zoomminus.mouseover" end="zoomminus.mouseout"/>
                        </use>
                        <path d="M-4,0h8" fill="none" stroke="white" stroke-width="1.5" pointer-events="none"/>
                </g>
                <g id="dirArrow">
                        <path fill="none" stroke="white" stroke-width="1.5" d="M0,-3.0v7 M-2.5,-0.5L0,-3.0L2.5,-0.5"/>
                </g>
               <g id="resetDef">
                       <use xlink:href="#rim2" fill="#404040">
                               <set attributeName="fill" to="#808080" begin="reset.mouseover" end="reset.mouseout"/>
                       </use>
               </g>
        </defs>

<script type="text/javascript">
var viewWidth = 1372;
var viewHeight = 1014;
var sectionId = 'dynsection-1';
</script>
<script xlink:href="svgpan.js"/>
<svg id="graph" class="graph">
<g id="viewport">
<title>Urho3D::TmxImageLayer2D</title>
<!-- Node1 -->
<g id="node1" class="node"><title>Node1</title>
<polygon fill="#bfbfbf" stroke="black" points="1214.5,-95.5 1214.5,-116.5 1363.5,-116.5 1363.5,-95.5 1214.5,-95.5"/>
<text text-anchor="middle" x="1289" y="-103.5" font-family="FreeSans" font-size="10.00">Urho3D::TmxImageLayer2D</text>
</g>
<!-- Node2 -->
<g id="node2" class="node"><title>Node2</title>
<a xlink:href="class_urho3_d_1_1_tmx_layer2_d.html" target="_top" xlink:title="Tmx layer.">
<polygon fill="none" stroke="black" points="1056.5,-95.5 1056.5,-116.5 1175.5,-116.5 1175.5,-95.5 1056.5,-95.5"/>
<text text-anchor="middle" x="1116" y="-103.5" font-family="FreeSans" font-size="10.00">Urho3D::TmxLayer2D</text>
</a>
</g>
<!-- Node2&#45;&gt;Node1 -->
<g id="edge2" class="edge"><title>Node2&#45;&gt;Node1</title>
<path fill="none" stroke="midnightblue" d="M1185.66,-106C1195.11,-106 1204.84,-106 1214.38,-106"/>
<polygon fill="midnightblue" stroke="midnightblue" points="1185.54,-102.5 1175.54,-106 1185.54,-109.5 1185.54,-102.5"/>
</g>
<!-- Node3 -->
<g id="node4" class="node"><title>Node3</title>
<a xlink:href="class_urho3_d_1_1_ref_counted.html" target="_top" xlink:title="Base class for intrusively reference&#45;counted objects. These are noncopyable and non&#45;assignable.">
<polygon fill="none" stroke="black" points="229,-76.5 229,-97.5 343,-97.5 343,-76.5 229,-76.5"/>
<text text-anchor="middle" x="286" y="-84.5" font-family="FreeSans" font-size="10.00">Urho3D::RefCounted</text>
</a>
</g>
<!-- Node3&#45;&gt;Node2 -->
<g id="edge4" class="edge"><title>Node3&#45;&gt;Node2</title>
<path fill="none" stroke="midnightblue" d="M353.127,-88.5366C511.382,-92.1593 905.8,-101.188 1056.33,-104.634"/>
<polygon fill="midnightblue" stroke="midnightblue" points="353.127,-85.0358 343.049,-88.3059 352.967,-92.034 353.127,-85.0358"/>
</g>
<!-- Node6 -->
<g id="node10" class="node"><title>Node6</title>
<a xlink:href="class_urho3_d_1_1_property_set2_d.html" target="_top" xlink:title="Property set.">
<polygon fill="none" stroke="black" points="550,-121.5 550,-142.5 680,-142.5 680,-121.5 550,-121.5"/>
<text text-anchor="middle" x="615" y="-129.5" font-family="FreeSans" font-size="10.00">Urho3D::PropertySet2D</text>
</a>
</g>
<!-- Node3&#45;&gt;Node6 -->
<g id="edge12" class="edge"><title>Node3&#45;&gt;Node6</title>
<path fill="none" stroke="midnightblue" d="M353.387,-96.2171C410.889,-104.082 493.051,-115.32 549.89,-123.094"/>
<polygon fill="midnightblue" stroke="midnightblue" points="353.69,-92.7259 343.307,-94.8384 352.741,-99.6614 353.69,-92.7259"/>
</g>
<!-- Node4 -->
<g id="node6" class="node"><title>Node4</title>
<a xlink:href="struct_urho3_d_1_1_ref_count.html" target="_top" xlink:title="Reference count structure.">
<polygon fill="none" stroke="black" points="0,-561.5 0,-582.5 102,-582.5 102,-561.5 0,-561.5"/>
<text text-anchor="middle" x="51" y="-569.5" font-family="FreeSans" font-size="10.00">Urho3D::RefCount</text>
</a>
</g>
<!-- Node4&#45;&gt;Node3 -->
<g id="edge6" class="edge"><title>Node4&#45;&gt;Node3</title>
<path fill="none" stroke="#9a32cd" stroke-dasharray="5,2" d="M54.208,-551.412C67.3484,-469.717 119.617,-169.791 188,-107 199.128,-96.7822 214.01,-91.1995 228.811,-88.2815"/>
<polygon fill="#9a32cd" stroke="#9a32cd" points="50.7267,-551.018 52.616,-561.443 57.6402,-552.116 50.7267,-551.018"/>
<text text-anchor="middle" x="145" y="-243" font-family="FreeSans" font-size="10.00"> refCount_</text>
</g>
<!-- Node8 -->
<g id="node15" class="node"><title>Node8</title>
<a xlink:href="class_urho3_d_1_1_weak_ptr.html" target="_top" xlink:title="Urho3D::WeakPtr\&lt; Urho3D\l::TmxFile2D \&gt;">
<polygon fill="none" stroke="black" points="758,-382 758,-416 904,-416 904,-382 758,-382"/>
<text text-anchor="start" x="766" y="-403" font-family="FreeSans" font-size="10.00">Urho3D::WeakPtr&lt; Urho3D</text>
<text text-anchor="middle" x="831" y="-390" font-family="FreeSans" font-size="10.00">::TmxFile2D &gt;</text>
</a>
</g>
<!-- Node4&#45;&gt;Node8 -->
<g id="edge40" class="edge"><title>Node4&#45;&gt;Node8</title>
<path fill="none" stroke="#9a32cd" stroke-dasharray="5,2" d="M112.138,-573.811C204.923,-574.896 385.943,-570.457 532,-527 632.125,-497.209 743.685,-443.63 797.865,-416.201"/>
<polygon fill="#9a32cd" stroke="#9a32cd" points="112.131,-570.311 102.082,-573.668 112.031,-577.31 112.131,-570.311"/>
<text text-anchor="middle" x="467" y="-559" font-family="FreeSans" font-size="10.00"> refCount_</text>
</g>
<!-- Node23 -->
<g id="node51" class="node"><title>Node23</title>
<a xlink:href="class_urho3_d_1_1_weak_ptr.html" target="_top" xlink:title="Urho3D::WeakPtr\&lt; Urho3D\l::SpriteSheet2D \&gt;">
<polygon fill="none" stroke="red" points="213,-918 213,-952 359,-952 359,-918 213,-918"/>
<text text-anchor="start" x="221" y="-939" font-family="FreeSans" font-size="10.00">Urho3D::WeakPtr&lt; Urho3D</text>
<text text-anchor="middle" x="286" y="-926" font-family="FreeSans" font-size="10.00">::SpriteSheet2D &gt;</text>
</a>
</g>
<!-- Node4&#45;&gt;Node23 -->
<g id="edge60" class="edge"><title>Node4&#45;&gt;Node23</title>
<path fill="none" stroke="#9a32cd" stroke-dasharray="5,2" d="M53.0898,-592.663C60.1765,-651.543 88.7019,-821.556 188,-909 195.134,-915.282 203.618,-920.071 212.566,-923.716"/>
<polygon fill="#9a32cd" stroke="#9a32cd" points="56.5669,-592.263 51.9735,-582.716 49.6106,-593.044 56.5669,-592.263"/>
<text text-anchor="middle" x="145" y="-892" font-family="FreeSans" font-size="10.00"> refCount_</text>
</g>
<!-- Node5 -->
<g id="node8" class="node"><title>Node5</title>
<a xlink:href="class_urho3_d_1_1_shared_ptr.html" target="_top" xlink:title="Urho3D::SharedPtr\&lt;\l Urho3D::PropertySet2D \&gt;">
<polygon fill="none" stroke="black" points="759,-115 759,-149 903,-149 903,-115 759,-115"/>
<text text-anchor="start" x="767" y="-136" font-family="FreeSans" font-size="10.00">Urho3D::SharedPtr&lt;</text>
<text text-anchor="middle" x="831" y="-123" font-family="FreeSans" font-size="10.00"> Urho3D::PropertySet2D &gt;</text>
</a>
</g>
<!-- Node5&#45;&gt;Node2 -->
<g id="edge8" class="edge"><title>Node5&#45;&gt;Node2</title>
<path fill="none" stroke="#9a32cd" stroke-dasharray="5,2" d="M913.463,-124.477C959.127,-120.311 1014.86,-115.227 1056.29,-111.447"/>
<polygon fill="#9a32cd" stroke="#9a32cd" points="912.927,-121.011 903.286,-125.405 913.563,-127.982 912.927,-121.011"/>
<text text-anchor="middle" x="980" y="-127" font-family="FreeSans" font-size="10.00"> propertySet_</text>
</g>
<!-- Node6&#45;&gt;Node5 -->
<g id="edge10" class="edge"><title>Node6&#45;&gt;Node5</title>
<path fill="none" stroke="#9a32cd" stroke-dasharray="5,2" d="M690.175,-132C712.45,-132 736.785,-132 758.864,-132"/>
<polygon fill="#9a32cd" stroke="#9a32cd" points="690.1,-128.5 680.1,-132 690.1,-135.5 690.1,-128.5"/>
<text text-anchor="middle" x="719" y="-136" font-family="FreeSans" font-size="10.00"> ptr_</text>
</g>
<!-- Node7 -->
<g id="node13" class="node"><title>Node7</title>
<a xlink:href="class_urho3_d_1_1_hash_map.html" target="_top" xlink:title="Urho3D::HashMap\&lt; Urho3D\l::String, Urho3D::String \&gt;">
<polygon fill="none" stroke="red" points="210,-116 210,-150 362,-150 362,-116 210,-116"/>
<text text-anchor="start" x="218" y="-137" font-family="FreeSans" font-size="10.00">Urho3D::HashMap&lt; Urho3D</text>
<text text-anchor="middle" x="286" y="-124" font-family="FreeSans" font-size="10.00">::String, Urho3D::String &gt;</text>
</a>
</g>
<!-- Node7&#45;&gt;Node6 -->
<g id="edge14" class="edge"><title>Node7&#45;&gt;Node6</title>
<path fill="none" stroke="#9a32cd" stroke-dasharray="5,2" d="M372.497,-132.737C428.081,-132.568 499.126,-132.352 549.926,-132.198"/>
<polygon fill="#9a32cd" stroke="#9a32cd" points="372.295,-129.238 362.306,-132.768 372.317,-136.238 372.295,-129.238"/>
<text text-anchor="middle" x="467" y="-136" font-family="FreeSans" font-size="10.00"> nameToValueMapping_</text>
</g>
<!-- Node8&#45;&gt;Node2 -->
<g id="edge16" class="edge"><title>Node8&#45;&gt;Node2</title>
<path fill="none" stroke="#9a32cd" stroke-dasharray="5,2" d="M854.569,-374.769C913.314,-314.375 1064.46,-158.983 1105.56,-116.738"/>
<polygon fill="#9a32cd" stroke="#9a32cd" points="852.018,-372.372 847.555,-381.981 857.036,-377.253 852.018,-372.372"/>
<text text-anchor="middle" x="980" y="-308" font-family="FreeSans" font-size="10.00"> tmxFile_</text>
</g>
<!-- Node9 -->
<g id="node17" class="node"><title>Node9</title>
<a xlink:href="class_urho3_d_1_1_tmx_file2_d.html" target="_top" xlink:title="Tile map file.">
<polygon fill="none" stroke="black" points="561,-388.5 561,-409.5 669,-409.5 669,-388.5 561,-388.5"/>
<text text-anchor="middle" x="615" y="-396.5" font-family="FreeSans" font-size="10.00">Urho3D::TmxFile2D</text>
</a>
</g>
<!-- Node9&#45;&gt;Node8 -->
<g id="edge18" class="edge"><title>Node9&#45;&gt;Node8</title>
<path fill="none" stroke="#9a32cd" stroke-dasharray="5,2" d="M679.233,-399C703.99,-399 732.442,-399 757.971,-399"/>
<polygon fill="#9a32cd" stroke="#9a32cd" points="679.227,-395.5 669.227,-399 679.227,-402.5 679.227,-395.5"/>
<text text-anchor="middle" x="719" y="-403" font-family="FreeSans" font-size="10.00"> ptr_</text>
</g>
<!-- Node10 -->
<g id="node19" class="node"><title>Node10</title>
<a xlink:href="class_urho3_d_1_1_resource.html" target="_top" xlink:title="Base class for resources.">
<polygon fill="none" stroke="red" points="234.5,-600.5 234.5,-621.5 337.5,-621.5 337.5,-600.5 234.5,-600.5"/>
<text text-anchor="middle" x="286" y="-608.5" font-family="FreeSans" font-size="10.00">Urho3D::Resource</text>
</a>
</g>
<!-- Node10&#45;&gt;Node9 -->
<g id="edge20" class="edge"><title>Node10&#45;&gt;Node9</title>
<path fill="none" stroke="midnightblue" d="M312.67,-595.238C335.653,-582.255 370.074,-564.218 402,-553 457.761,-533.407 483.228,-558.383 532,-525 575.448,-495.261 601.836,-434.546 611.169,-409.831"/>
<polygon fill="midnightblue" stroke="midnightblue" points="310.797,-592.277 303.859,-600.285 314.276,-598.352 310.797,-592.277"/>
</g>
<!-- Node20 -->
<g id="node42" class="node"><title>Node20</title>
<a xlink:href="class_urho3_d_1_1_sprite2_d.html" target="_top" xlink:title="Sprite.">
<polygon fill="none" stroke="black" points="564.5,-711.5 564.5,-732.5 665.5,-732.5 665.5,-711.5 564.5,-711.5"/>
<text text-anchor="middle" x="615" y="-719.5" font-family="FreeSans" font-size="10.00">Urho3D::Sprite2D</text>
</a>
</g>
<!-- Node10&#45;&gt;Node20 -->
<g id="edge48" class="edge"><title>Node10&#45;&gt;Node20</title>
<path fill="none" stroke="midnightblue" d="M347.756,-621.379C398.564,-631.189 471.752,-648.276 532,-674 556.647,-684.524 583.121,-700.796 599.376,-711.423"/>
<polygon fill="midnightblue" stroke="midnightblue" points="348.38,-617.935 337.904,-619.514 347.078,-624.813 348.38,-617.935"/>
</g>
<!-- Node11 -->
<g id="node21" class="node"><title>Node11</title>
<a xlink:href="class_urho3_d_1_1_string.html" target="_top" xlink:title="String class.">
<polygon fill="none" stroke="black" points="7,-35.5 7,-56.5 95,-56.5 95,-35.5 7,-35.5"/>
<text text-anchor="middle" x="51" y="-43.5" font-family="FreeSans" font-size="10.00">Urho3D::String</text>
</a>
</g>
<!-- Node11&#45;&gt;Node1 -->
<g id="edge68" class="edge"><title>Node11&#45;&gt;Node1</title>
<path fill="none" stroke="#9a32cd" stroke-dasharray="5,2" d="M93.4496,-32.555C140.142,-18.9786 217.64,-0 286,-0 286,-0 286,-0 1116,-0 1188.56,-0 1256.37,-68.6373 1280.08,-95.4488"/>
<polygon fill="#9a32cd" stroke="#9a32cd" points="92.2793,-29.2513 83.6847,-35.4467 94.2669,-35.9632 92.2793,-29.2513"/>
<text text-anchor="middle" x="719" y="-4" font-family="FreeSans" font-size="10.00"> source_</text>
</g>
<!-- Node11&#45;&gt;Node2 -->
<g id="edge42" class="edge"><title>Node11&#45;&gt;Node2</title>
<path fill="none" stroke="#9a32cd" stroke-dasharray="5,2" d="M105.27,-46C152.901,-46 224.044,-46 286,-46 286,-46 286,-46 831,-46 925.807,-46 1034.62,-78.1865 1086.07,-95.4113"/>
<polygon fill="#9a32cd" stroke="#9a32cd" points="105.178,-42.5001 95.1784,-46 105.178,-49.5001 105.178,-42.5001"/>
<text text-anchor="middle" x="615" y="-50" font-family="FreeSans" font-size="10.00"> name_</text>
</g>
<!-- Node11&#45;&gt;Node10 -->
<g id="edge22" class="edge"><title>Node11&#45;&gt;Node10</title>
<path fill="none" stroke="#9a32cd" stroke-dasharray="5,2" d="M54.4531,-66.7021C68.9352,-151.627 126.861,-472.602 188,-553 205.233,-575.661 234.087,-591.18 256.035,-600.422"/>
<polygon fill="#9a32cd" stroke="#9a32cd" points="57.8861,-66.011 52.7689,-56.7339 50.9839,-67.1772 57.8861,-66.011"/>
<text text-anchor="middle" x="145" y="-520" font-family="FreeSans" font-size="10.00"> name_</text>
</g>
<!-- Node11&#45;&gt;Node11 -->
<g id="edge24" class="edge"><title>Node11&#45;&gt;Node11</title>
<path fill="none" stroke="#9a32cd" stroke-dasharray="5,2" d="M33.6768,-66.4266C35.0132,-71.3489 40.7876,-75 51,-75 67.3398,-75 72.3184,-65.6531 65.9356,-56.7079"/>
<polygon fill="#9a32cd" stroke="#9a32cd" points="37.0775,-67.2541 36.0644,-56.7079 30.2796,-65.5841 37.0775,-67.2541"/>
<text text-anchor="middle" x="51" y="-79" font-family="FreeSans" font-size="10.00"> EMPTY</text>
</g>
<!-- Node12 -->
<g id="node24" class="node"><title>Node12</title>
<a xlink:href="class_urho3_d_1_1_hash_map.html" target="_top" xlink:title="Urho3D::HashMap\&lt; Urho3D\l::String, Urho3D::SharedPtr\l\&lt; Urho3D::XMLFile \&gt; \&gt;">
<polygon fill="none" stroke="red" points="210,-286.5 210,-333.5 362,-333.5 362,-286.5 210,-286.5"/>
<text text-anchor="start" x="218" y="-320.5" font-family="FreeSans" font-size="10.00">Urho3D::HashMap&lt; Urho3D</text>
<text text-anchor="start" x="218" y="-307.5" font-family="FreeSans" font-size="10.00">::String, Urho3D::SharedPtr</text>
<text text-anchor="middle" x="286" y="-294.5" font-family="FreeSans" font-size="10.00">&lt; Urho3D::XMLFile &gt; &gt;</text>
</a>
</g>
<!-- Node12&#45;&gt;Node9 -->
<g id="edge26" class="edge"><title>Node12&#45;&gt;Node9</title>
<path fill="none" stroke="#9a32cd" stroke-dasharray="5,2" d="M372.049,-322.311C419.879,-330.435 480.052,-342.791 532,-360 554.67,-367.51 579.27,-379.609 595.754,-388.341"/>
<polygon fill="#9a32cd" stroke="#9a32cd" points="372.477,-318.834 362.037,-320.641 371.325,-325.738 372.477,-318.834"/>
<text text-anchor="middle" x="467" y="-364" font-family="FreeSans" font-size="10.00"> tsxXMLFiles_</text>
</g>
<!-- Node13 -->
<g id="node26" class="node"><title>Node13</title>
<a xlink:href="class_urho3_d_1_1_vector.html" target="_top" xlink:title="Urho3D::Vector\&lt; Urho3D\l::TmxLayer2D * \&gt;">
<polygon fill="none" stroke="red" points="217,-234 217,-268 355,-268 355,-234 217,-234"/>
<text text-anchor="start" x="225" y="-255" font-family="FreeSans" font-size="10.00">Urho3D::Vector&lt; Urho3D</text>
<text text-anchor="middle" x="286" y="-242" font-family="FreeSans" font-size="10.00">::TmxLayer2D * &gt;</text>
</a>
</g>
<!-- Node13&#45;&gt;Node9 -->
<g id="edge28" class="edge"><title>Node13&#45;&gt;Node9</title>
<path fill="none" stroke="#9a32cd" stroke-dasharray="5,2" d="M365.384,-258.666C415.826,-266.27 480.988,-281.321 532,-311 566.49,-331.066 595.504,-369.821 608.172,-388.47"/>
<polygon fill="#9a32cd" stroke="#9a32cd" points="365.574,-255.157 355.177,-257.198 364.577,-262.086 365.574,-255.157"/>
<text text-anchor="middle" x="467" y="-315" font-family="FreeSans" font-size="10.00"> layers_</text>
</g>
<!-- Node14 -->
<g id="node28" class="node"><title>Node14</title>
<a xlink:href="class_urho3_d_1_1_hash_map.html" target="_top" xlink:title="Urho3D::HashMap\&lt; int,\l Urho3D::SharedPtr\&lt; Urho3D\l::PropertySet2D \&gt; \&gt;">
<polygon fill="none" stroke="red" points="207,-168.5 207,-215.5 365,-215.5 365,-168.5 207,-168.5"/>
<text text-anchor="start" x="215" y="-202.5" font-family="FreeSans" font-size="10.00">Urho3D::HashMap&lt; int,</text>
<text text-anchor="start" x="215" y="-189.5" font-family="FreeSans" font-size="10.00"> Urho3D::SharedPtr&lt; Urho3D</text>
<text text-anchor="middle" x="286" y="-176.5" font-family="FreeSans" font-size="10.00">::PropertySet2D &gt; &gt;</text>
</a>
</g>
<!-- Node14&#45;&gt;Node9 -->
<g id="edge30" class="edge"><title>Node14&#45;&gt;Node9</title>
<path fill="none" stroke="#9a32cd" stroke-dasharray="5,2" d="M375.5,-194.694C425.794,-200.262 487.255,-214.265 532,-248 581.206,-285.098 604.965,-360.267 612.369,-388.215"/>
<polygon fill="#9a32cd" stroke="#9a32cd" points="375.575,-191.184 365.273,-193.66 374.87,-198.149 375.575,-191.184"/>
<text text-anchor="middle" x="467" y="-252" font-family="FreeSans" font-size="10.00"> gidToPropertySetMapping_</text>
</g>
<!-- Node15 -->
<g id="node30" class="node"><title>Node15</title>
<a xlink:href="class_urho3_d_1_1_vector.html" target="_top" xlink:title="Urho3D::Vector\&lt; Urho3D\l::SharedPtr\&lt; Urho3D::Texture2D \&gt; \&gt;">
<polygon fill="none" stroke="red" points="188.5,-510 188.5,-544 383.5,-544 383.5,-510 188.5,-510"/>
<text text-anchor="start" x="196.5" y="-531" font-family="FreeSans" font-size="10.00">Urho3D::Vector&lt; Urho3D</text>
<text text-anchor="middle" x="286" y="-518" font-family="FreeSans" font-size="10.00">::SharedPtr&lt; Urho3D::Texture2D &gt; &gt;</text>
</a>
</g>
<!-- Node15&#45;&gt;Node9 -->
<g id="edge32" class="edge"><title>Node15&#45;&gt;Node9</title>
<path fill="none" stroke="#9a32cd" stroke-dasharray="5,2" d="M393.796,-512.112C448.239,-503.376 507.79,-491.599 532,-479 565.199,-461.723 594.184,-427 607.397,-409.537"/>
<polygon fill="#9a32cd" stroke="#9a32cd" points="393.03,-508.689 383.699,-513.707 394.123,-515.603 393.03,-508.689"/>
<text text-anchor="middle" x="467" y="-514" font-family="FreeSans" font-size="10.00"> tileSetTextures_</text>
</g>
<!-- Node16 -->
<g id="node32" class="node"><title>Node16</title>
<a xlink:href="struct_urho3_d_1_1_tile_map_info2_d.html" target="_top" xlink:title="Tile map infomation.">
<polygon fill="none" stroke="black" points="223,-470.5 223,-491.5 349,-491.5 349,-470.5 223,-470.5"/>
<text text-anchor="middle" x="286" y="-478.5" font-family="FreeSans" font-size="10.00">Urho3D::TileMapInfo2D</text>
</a>
</g>
<!-- Node16&#45;&gt;Node9 -->
<g id="edge34" class="edge"><title>Node16&#45;&gt;Node9</title>
<path fill="none" stroke="#9a32cd" stroke-dasharray="5,2" d="M359.217,-470.574C408.622,-462.602 474.962,-450.067 532,-433 553.035,-426.706 576.077,-417.031 592.535,-409.609"/>
<polygon fill="#9a32cd" stroke="#9a32cd" points="358.583,-467.131 349.256,-472.157 359.681,-474.044 358.583,-467.131"/>
<text text-anchor="middle" x="467" y="-466" font-family="FreeSans" font-size="10.00"> info_</text>
</g>
<!-- Node17 -->
<g id="node34" class="node"><title>Node17</title>
<a xlink:href="class_urho3_d_1_1_hash_map.html" target="_top" xlink:title="Urho3D::HashMap\&lt; int,\l Urho3D::SharedPtr\&lt; Urho3D\l::Sprite2D \&gt; \&gt;">
<polygon fill="none" stroke="red" points="207,-404.5 207,-451.5 365,-451.5 365,-404.5 207,-404.5"/>
<text text-anchor="start" x="215" y="-438.5" font-family="FreeSans" font-size="10.00">Urho3D::HashMap&lt; int,</text>
<text text-anchor="start" x="215" y="-425.5" font-family="FreeSans" font-size="10.00"> Urho3D::SharedPtr&lt; Urho3D</text>
<text text-anchor="middle" x="286" y="-412.5" font-family="FreeSans" font-size="10.00">::Sprite2D &gt; &gt;</text>
</a>
</g>
<!-- Node17&#45;&gt;Node9 -->
<g id="edge36" class="edge"><title>Node17&#45;&gt;Node9</title>
<path fill="none" stroke="#9a32cd" stroke-dasharray="5,2" d="M375.341,-420.125C434.65,-414.897 510.565,-408.206 560.887,-403.77"/>
<polygon fill="#9a32cd" stroke="#9a32cd" points="374.876,-416.652 365.222,-421.017 375.491,-423.625 374.876,-416.652"/>
<text text-anchor="middle" x="467" y="-420" font-family="FreeSans" font-size="10.00"> gidToSpriteMapping_</text>
</g>
<!-- Node18 -->
<g id="node36" class="node"><title>Node18</title>
<a xlink:href="class_urho3_d_1_1_shared_ptr.html" target="_top" xlink:title="Urho3D::SharedPtr\&lt;\l Urho3D::XMLFile \&gt;">
<polygon fill="none" stroke="red" points="228,-352 228,-386 344,-386 344,-352 228,-352"/>
<text text-anchor="start" x="236" y="-373" font-family="FreeSans" font-size="10.00">Urho3D::SharedPtr&lt;</text>
<text text-anchor="middle" x="286" y="-360" font-family="FreeSans" font-size="10.00"> Urho3D::XMLFile &gt;</text>
</a>
</g>
<!-- Node18&#45;&gt;Node9 -->
<g id="edge38" class="edge"><title>Node18&#45;&gt;Node9</title>
<path fill="none" stroke="#9a32cd" stroke-dasharray="5,2" d="M354.455,-373.85C403.846,-377.524 472.098,-382.959 532,-389 541.242,-389.932 551.051,-391.023 560.565,-392.135"/>
<polygon fill="#9a32cd" stroke="#9a32cd" points="354.442,-370.34 344.211,-373.093 353.926,-377.321 354.442,-370.34"/>
<text text-anchor="middle" x="467" y="-393" font-family="FreeSans" font-size="10.00"> loadXMLFile_</text>
</g>
<!-- Node19 -->
<g id="node40" class="node"><title>Node19</title>
<a xlink:href="class_urho3_d_1_1_shared_ptr.html" target="_top" xlink:title="Urho3D::SharedPtr\&lt;\l Urho3D::Sprite2D \&gt;">
<polygon fill="none" stroke="black" points="922,-472 922,-506 1038,-506 1038,-472 922,-472"/>
<text text-anchor="start" x="930" y="-493" font-family="FreeSans" font-size="10.00">Urho3D::SharedPtr&lt;</text>
<text text-anchor="middle" x="980" y="-480" font-family="FreeSans" font-size="10.00"> Urho3D::Sprite2D &gt;</text>
</a>
</g>
<!-- Node19&#45;&gt;Node1 -->
<g id="edge44" class="edge"><title>Node19&#45;&gt;Node1</title>
<path fill="none" stroke="#9a32cd" stroke-dasharray="5,2" d="M1000.35,-463.776C1060.98,-388.626 1238.76,-168.269 1280.27,-116.826"/>
<polygon fill="#9a32cd" stroke="#9a32cd" points="997.433,-461.819 993.877,-471.799 1002.88,-466.214 997.433,-461.819"/>
<text text-anchor="middle" x="1116" y="-396" font-family="FreeSans" font-size="10.00"> sprite_</text>
</g>
<!-- Node20&#45;&gt;Node19 -->
<g id="edge46" class="edge"><title>Node20&#45;&gt;Node19</title>
<path fill="none" stroke="#9a32cd" stroke-dasharray="5,2" d="M640.215,-705.904C706.492,-663.596 885.17,-549.535 953.201,-506.107"/>
<polygon fill="#9a32cd" stroke="#9a32cd" points="638.178,-703.052 631.632,-711.383 641.944,-708.952 638.178,-703.052"/>
<text text-anchor="middle" x="719" y="-671" font-family="FreeSans" font-size="10.00"> ptr_</text>
</g>
<!-- Node21 -->
<g id="node45" class="node"><title>Node21</title>
<a xlink:href="class_urho3_d_1_1_int_rect.html" target="_top" xlink:title="Two&#45;dimensional bounding rectangle with integer values.">
<polygon fill="none" stroke="black" points="240,-847.5 240,-868.5 332,-868.5 332,-847.5 240,-847.5"/>
<text text-anchor="middle" x="286" y="-855.5" font-family="FreeSans" font-size="10.00">Urho3D::IntRect</text>
</a>
</g>
<!-- Node21&#45;&gt;Node20 -->
<g id="edge50" class="edge"><title>Node21&#45;&gt;Node20</title>
<path fill="none" stroke="#9a32cd" stroke-dasharray="5,2" d="M342.002,-849.221C355.918,-846.319 370.664,-842.618 384,-838 468.177,-808.852 560.698,-755.164 598.014,-732.516"/>
<polygon fill="#9a32cd" stroke="#9a32cd" points="341.176,-845.817 332.048,-851.194 342.537,-852.683 341.176,-845.817"/>
<text text-anchor="middle" x="467" y="-834" font-family="FreeSans" font-size="10.00"> rectangle_</text>
</g>
<!-- Node21&#45;&gt;Node21 -->
<g id="edge52" class="edge"><title>Node21&#45;&gt;Node21</title>
<path fill="none" stroke="#9a32cd" stroke-dasharray="5,2" d="M260.063,-878.055C261.764,-883.164 270.41,-887 286,-887 310.336,-887 317.751,-877.653 308.245,-868.708"/>
<polygon fill="#9a32cd" stroke="#9a32cd" points="263.336,-879.294 263.755,-868.708 256.826,-876.722 263.336,-879.294"/>
<text text-anchor="middle" x="286" y="-891" font-family="FreeSans" font-size="10.00"> ZERO</text>
</g>
<!-- Node22 -->
<g id="node48" class="node"><title>Node22</title>
<a xlink:href="class_urho3_d_1_1_vector2.html" target="_top" xlink:title="Two&#45;dimensional vector.">
<polygon fill="none" stroke="black" points="238,-711.5 238,-732.5 334,-732.5 334,-711.5 238,-711.5"/>
<text text-anchor="middle" x="286" y="-719.5" font-family="FreeSans" font-size="10.00">Urho3D::Vector2</text>
</a>
</g>
<!-- Node22&#45;&gt;Node20 -->
<g id="edge54" class="edge"><title>Node22&#45;&gt;Node20</title>
<path fill="none" stroke="#9a32cd" stroke-dasharray="5,2" d="M344.277,-722C406.725,-722 504.859,-722 564.245,-722"/>
<polygon fill="#9a32cd" stroke="#9a32cd" points="344.192,-718.5 334.192,-722 344.192,-725.5 344.192,-718.5"/>
<text text-anchor="middle" x="467" y="-726" font-family="FreeSans" font-size="10.00"> hotSpot_</text>
</g>
<!-- Node22&#45;&gt;Node22 -->
<g id="edge56" class="edge"><title>Node22&#45;&gt;Node22</title>
<path fill="none" stroke="#9a32cd" stroke-dasharray="5,2" d="M260.063,-742.055C261.764,-747.164 270.41,-751 286,-751 310.336,-751 317.751,-741.653 308.245,-732.708"/>
<polygon fill="#9a32cd" stroke="#9a32cd" points="263.336,-743.294 263.755,-732.708 256.826,-740.722 263.336,-743.294"/>
<text text-anchor="middle" x="286" y="-820" font-family="FreeSans" font-size="10.00"> ONE</text>
<text text-anchor="middle" x="286" y="-807" font-family="FreeSans" font-size="10.00">DOWN</text>
<text text-anchor="middle" x="286" y="-794" font-family="FreeSans" font-size="10.00">RIGHT</text>
<text text-anchor="middle" x="286" y="-781" font-family="FreeSans" font-size="10.00">LEFT</text>
<text text-anchor="middle" x="286" y="-768" font-family="FreeSans" font-size="10.00">ZERO</text>
<text text-anchor="middle" x="286" y="-755" font-family="FreeSans" font-size="10.00">UP</text>
</g>
<!-- Node23&#45;&gt;Node20 -->
<g id="edge58" class="edge"><title>Node23&#45;&gt;Node20</title>
<path fill="none" stroke="#9a32cd" stroke-dasharray="5,2" d="M368.856,-920.372C420.298,-907.896 485.276,-885.616 532,-847 572.159,-813.81 600.229,-756.185 610.588,-732.563"/>
<polygon fill="#9a32cd" stroke="#9a32cd" points="368.023,-916.972 359.087,-922.664 369.622,-923.787 368.023,-916.972"/>
<text text-anchor="middle" x="467" y="-913" font-family="FreeSans" font-size="10.00"> spriteSheet_</text>
</g>
<!-- Node24 -->
<g id="node54" class="node"><title>Node24</title>
<a xlink:href="class_urho3_d_1_1_int_vector2.html" target="_top" xlink:title="Two&#45;dimensional vector with integer values.">
<polygon fill="none" stroke="black" points="232,-640.5 232,-661.5 340,-661.5 340,-640.5 232,-640.5"/>
<text text-anchor="middle" x="286" y="-648.5" font-family="FreeSans" font-size="10.00">Urho3D::IntVector2</text>
</a>
</g>
<!-- Node24&#45;&gt;Node20 -->
<g id="edge62" class="edge"><title>Node24&#45;&gt;Node20</title>
<path fill="none" stroke="#9a32cd" stroke-dasharray="5,2" d="M344.709,-663.67C407.834,-677.292 507.057,-698.705 566.101,-711.447"/>
<polygon fill="#9a32cd" stroke="#9a32cd" points="345.413,-660.241 334.899,-661.553 343.936,-667.084 345.413,-660.241"/>
<text text-anchor="middle" x="467" y="-706" font-family="FreeSans" font-size="10.00"> offset_</text>
</g>
<!-- Node24&#45;&gt;Node24 -->
<g id="edge64" class="edge"><title>Node24&#45;&gt;Node24</title>
<path fill="none" stroke="#9a32cd" stroke-dasharray="5,2" d="M260.063,-671.055C261.764,-676.164 270.41,-680 286,-680 310.336,-680 317.751,-670.653 308.245,-661.708"/>
<polygon fill="#9a32cd" stroke="#9a32cd" points="263.336,-672.294 263.755,-661.708 256.826,-669.722 263.336,-672.294"/>
<text text-anchor="middle" x="286" y="-684" font-family="FreeSans" font-size="10.00"> ZERO</text>
</g>
<!-- Node25 -->
<g id="node57" class="node"><title>Node25</title>
<a xlink:href="class_urho3_d_1_1_shared_ptr.html" target="_top" xlink:title="Urho3D::SharedPtr\&lt;\l Urho3D::Texture2D \&gt;">
<polygon fill="none" stroke="red" points="225,-970 225,-1004 347,-1004 347,-970 225,-970"/>
<text text-anchor="start" x="233" y="-991" font-family="FreeSans" font-size="10.00">Urho3D::SharedPtr&lt;</text>
<text text-anchor="middle" x="286" y="-978" font-family="FreeSans" font-size="10.00"> Urho3D::Texture2D &gt;</text>
</a>
</g>
<!-- Node25&#45;&gt;Node20 -->
<g id="edge66" class="edge"><title>Node25&#45;&gt;Node20</title>
<path fill="none" stroke="#9a32cd" stroke-dasharray="5,2" d="M357.276,-986.111C411.109,-981.819 483.721,-967.811 532,-926 593.565,-872.683 610.141,-766.865 613.972,-732.82"/>
<polygon fill="#9a32cd" stroke="#9a32cd" points="356.843,-982.633 347.113,-986.825 357.334,-989.616 356.843,-982.633"/>
<text text-anchor="middle" x="467" y="-997" font-family="FreeSans" font-size="10.00"> loadTexture_</text>
<text text-anchor="middle" x="467" y="-984" font-family="FreeSans" font-size="10.00">texture_</text>
</g>
</g>
</svg>
        <g id="navigator" transform="translate(0 0)" fill="#404254">
                <rect fill="#f2f5e9" fill-opacity="0.5" stroke="#606060" stroke-width=".5" x="0" y="0" width="60" height="60"/>
                <use id="zoomplus" xlink:href="#zoomPlus" x="17" y="9" onmousedown="handleZoom(evt,'in')"/>
                <use id="zoomminus" xlink:href="#zoomMin" x="42" y="9" onmousedown="handleZoom(evt,'out')"/>
                <use id="reset" xlink:href="#resetDef" x="30" y="36" onmousedown="handleReset()"/>
                <g id="arrowUp" xlink:href="#dirArrow" transform="translate(30 24)" onmousedown="handlePan(0,-1)">
                  <use xlink:href="#rim" fill="#404040">
                        <set attributeName="fill" to="#808080" begin="arrowUp.mouseover" end="arrowUp.mouseout"/>
                  </use>
                  <path fill="none" stroke="white" stroke-width="1.5" d="M0,-3.0v7 M-2.5,-0.5L0,-3.0L2.5,-0.5"/>
                </g>
                <g id="arrowRight" xlink:href="#dirArrow" transform="rotate(90) translate(36 -43)" onmousedown="handlePan(1,0)">
                  <use xlink:href="#rim" fill="#404040">
                        <set attributeName="fill" to="#808080" begin="arrowRight.mouseover" end="arrowRight.mouseout"/>
                  </use>
                  <path fill="none" stroke="white" stroke-width="1.5" d="M0,-3.0v7 M-2.5,-0.5L0,-3.0L2.5,-0.5"/>
                </g>
                <g id="arrowDown" xlink:href="#dirArrow" transform="rotate(180) translate(-30 -48)" onmousedown="handlePan(0,1)">
                  <use xlink:href="#rim" fill="#404040">
                        <set attributeName="fill" to="#808080" begin="arrowDown.mouseover" end="arrowDown.mouseout"/>
                  </use>
                  <path fill="none" stroke="white" stroke-width="1.5" d="M0,-3.0v7 M-2.5,-0.5L0,-3.0L2.5,-0.5"/>
                </g>
                <g id="arrowLeft" xlink:href="#dirArrow" transform="rotate(270) translate(-36 17)" onmousedown="handlePan(-1,0)">
                  <use xlink:href="#rim" fill="#404040">
                        <set attributeName="fill" to="#808080" begin="arrowLeft.mouseover" end="arrowLeft.mouseout"/>
                  </use>
                  <path fill="none" stroke="white" stroke-width="1.5" d="M0,-3.0v7 M-2.5,-0.5L0,-3.0L2.5,-0.5"/>
                </g>
        </g>
        <svg viewBox="0 0 15 15" width="100%" height="30px" preserveAspectRatio="xMaxYMin meet">
         <g id="arrow_out" transform="scale(0.3 0.3)">
          <a xlink:href="class_urho3_d_1_1_tmx_image_layer2_d__coll__graph_org.svg" target="_base">
           <rect id="button" ry="5" rx="5" y="6" x="6" height="38" width="38"
                fill="#f2f5e9" fill-opacity="0.5" stroke="#606060" stroke-width="1.0"/>
           <path id="arrow"
             d="M 11.500037,31.436501 C 11.940474,20.09759 22.043105,11.32322 32.158766,21.979434 L 37.068811,17.246167 C 37.068811,17.246167 37.088388,32 37.088388,32 L 22.160133,31.978069 C 22.160133,31.978069 26.997745,27.140456 26.997745,27.140456 C 18.528582,18.264221 13.291696,25.230495 11.500037,31.436501 z"
             style="fill:#404040;"/>
          </a>
         </g>
        </svg>
</svg>
