<?xml version="1.0" encoding="UTF-8" standalone="no"?>
<!DOCTYPE svg PUBLIC "-//W3C//DTD SVG 1.1//EN"
 "http://www.w3.org/Graphics/SVG/1.1/DTD/svg11.dtd">
<!-- Generated by graphviz version 2.26.3 (20100126.1600)
 -->
<!-- Title: Urho3D::RenderPath Pages: 1 -->
<!--zoomable 136 -->
<svg id="main" version="1.1" xmlns="http://www.w3.org/2000/svg" xmlns:xlink="http://www.w3.org/1999/xlink" xml:space="preserve" onload="init(evt)">
        <defs>
                <circle id="rim" cx="0" cy="0" r="7"/>
                <circle id="rim2" cx="0" cy="0" r="3.5"/>
                <g id="zoomPlus">
                        <use xlink:href="#rim" fill="#404040">
                                <set attributeName="fill" to="#808080" begin="zoomplus.mouseover" end="zoomplus.mouseout"/>
                        </use>
                        <path d="M-4,0h8M0,-4v8" fill="none" stroke="white" stroke-width="1.5" pointer-events="none"/>
                </g>
                <g id="zoomMin">
                        <use xlink:href="#rim" fill="#404040">
                                <set attributeName="fill" to="#808080" begin="zoomminus.mouseover" end="zoomminus.mouseout"/>
                        </use>
                        <path d="M-4,0h8" fill="none" stroke="white" stroke-width="1.5" pointer-events="none"/>
                </g>
                <g id="dirArrow">
                        <path fill="none" stroke="white" stroke-width="1.5" d="M0,-3.0v7 M-2.5,-0.5L0,-3.0L2.5,-0.5"/>
                </g>
               <g id="resetDef">
                       <use xlink:href="#rim2" fill="#404040">
                               <set attributeName="fill" to="#808080" begin="reset.mouseover" end="reset.mouseout"/>
                       </use>
               </g>
        </defs>

<script type="text/javascript">
var viewWidth = 572;
var viewHeight = 136;
var sectionId = 'dynsection-1';
</script>
<script xlink:href="svgpan.js"/>
<svg id="graph" class="graph">
<g id="viewport">
<title>Urho3D::RenderPath</title>
<!-- Node1 -->
<g id="node1" class="node"><title>Node1</title>
<polygon fill="#bfbfbf" stroke="black" points="450.5,-58.5 450.5,-79.5 563.5,-79.5 563.5,-58.5 450.5,-58.5"/>
<text text-anchor="middle" x="507" y="-66.5" font-family="FreeSans" font-size="10.00">Urho3D::RenderPath</text>
</g>
<!-- Node2 -->
<g id="node2" class="node"><title>Node2</title>
<a xlink:href="class_urho3_d_1_1_ref_counted.html" target="_top" xlink:title="Base class for intrusively reference&#45;counted objects. These are noncopyable and non&#45;assignable.">
<polygon fill="none" stroke="black" points="212,-104.5 212,-125.5 326,-125.5 326,-104.5 212,-104.5"/>
<text text-anchor="middle" x="269" y="-112.5" font-family="FreeSans" font-size="10.00">Urho3D::RefCounted</text>
</a>
</g>
<!-- Node2&#45;&gt;Node1 -->
<g id="edge2" class="edge"><title>Node2&#45;&gt;Node1</title>
<path fill="none" stroke="midnightblue" d="M336.25,-103.764C365.699,-98.6561 400.624,-92.3434 432,-86 441.815,-84.0157 452.316,-81.735 462.259,-79.5018"/>
<polygon fill="midnightblue" stroke="midnightblue" points="335.337,-100.37 326.077,-105.519 336.527,-107.268 335.337,-100.37"/>
</g>
<!-- Node3 -->
<g id="node4" class="node"><title>Node3</title>
<a xlink:href="struct_urho3_d_1_1_ref_count.html" target="_top" xlink:title="Reference count structure.">
<polygon fill="none" stroke="black" points="6,-104.5 6,-125.5 108,-125.5 108,-104.5 6,-104.5"/>
<text text-anchor="middle" x="57" y="-112.5" font-family="FreeSans" font-size="10.00">Urho3D::RefCount</text>
</a>
</g>
<!-- Node3&#45;&gt;Node2 -->
<g id="edge4" class="edge"><title>Node3&#45;&gt;Node2</title>
<path fill="none" stroke="#9a32cd" stroke-dasharray="5,2" d="M118.209,-115C147.653,-115 182.748,-115 211.668,-115"/>
<polygon fill="#9a32cd" stroke="#9a32cd" points="118.049,-111.5 108.049,-115 118.049,-118.5 118.049,-111.5"/>
<text text-anchor="middle" x="157" y="-119" font-family="FreeSans" font-size="10.00"> refCount_</text>
</g>
<!-- Node4 -->
<g id="node6" class="node"><title>Node4</title>
<a xlink:href="class_urho3_d_1_1_vector.html" target="_top" xlink:title="Urho3D::Vector\&lt; Urho3D\l::RenderPathCommand \&gt;">
<polygon fill="none" stroke="black" points="200,-52 200,-86 338,-86 338,-52 200,-52"/>
<text text-anchor="start" x="208" y="-73" font-family="FreeSans" font-size="10.00">Urho3D::Vector&lt; Urho3D</text>
<text text-anchor="middle" x="269" y="-60" font-family="FreeSans" font-size="10.00">::RenderPathCommand &gt;</text>
</a>
</g>
<!-- Node4&#45;&gt;Node1 -->
<g id="edge6" class="edge"><title>Node4&#45;&gt;Node1</title>
<path fill="none" stroke="#9a32cd" stroke-dasharray="5,2" d="M348.374,-69C381.82,-69 419.981,-69 450.491,-69"/>
<polygon fill="#9a32cd" stroke="#9a32cd" points="348.159,-65.5001 338.159,-69 348.159,-72.5001 348.159,-65.5001"/>
<text text-anchor="middle" x="394" y="-73" font-family="FreeSans" font-size="10.00"> commands_</text>
</g>
<!-- Node5 -->
<g id="node8" class="node"><title>Node5</title>
<a xlink:href="class_urho3_d_1_1_vector_base.html" target="_top" xlink:title="Vector base class.">
<polygon fill="none" stroke="black" points="0,-29.5 0,-50.5 114,-50.5 114,-29.5 0,-29.5"/>
<text text-anchor="middle" x="57" y="-37.5" font-family="FreeSans" font-size="10.00">Urho3D::VectorBase</text>
</a>
</g>
<!-- Node5&#45;&gt;Node4 -->
<g id="edge8" class="edge"><title>Node5&#45;&gt;Node4</title>
<path fill="none" stroke="midnightblue" d="M124.204,-49.1929C148.283,-52.4869 175.462,-56.2047 199.715,-59.5223"/>
<polygon fill="midnightblue" stroke="midnightblue" points="124.473,-45.6973 114.091,-47.8096 123.524,-52.6327 124.473,-45.6973"/>
</g>
<!-- Node6 -->
<g id="node10" class="node"><title>Node6</title>
<a xlink:href="class_urho3_d_1_1_vector.html" target="_top" xlink:title="Urho3D::Vector\&lt; Urho3D\l::RenderTargetInfo \&gt;">
<polygon fill="none" stroke="black" points="200,-0 200,-34 338,-34 338,-0 200,-0"/>
<text text-anchor="start" x="208" y="-21" font-family="FreeSans" font-size="10.00">Urho3D::Vector&lt; Urho3D</text>
<text text-anchor="middle" x="269" y="-8" font-family="FreeSans" font-size="10.00">::RenderTargetInfo &gt;</text>
</a>
</g>
<!-- Node5&#45;&gt;Node6 -->
<g id="edge12" class="edge"><title>Node5&#45;&gt;Node6</title>
<path fill="none" stroke="midnightblue" d="M124.204,-32.709C148.283,-30.0966 175.462,-27.148 199.715,-24.5168"/>
<polygon fill="midnightblue" stroke="midnightblue" points="123.655,-29.2479 114.091,-33.8062 124.41,-36.2071 123.655,-29.2479"/>
</g>
<!-- Node6&#45;&gt;Node1 -->
<g id="edge10" class="edge"><title>Node6&#45;&gt;Node1</title>
<path fill="none" stroke="#9a32cd" stroke-dasharray="5,2" d="M348.089,-33.7929C374.758,-39.506 404.683,-45.9714 432,-52 441.387,-54.0716 451.426,-56.3226 461.009,-58.4883"/>
<polygon fill="#9a32cd" stroke="#9a32cd" points="348.55,-30.3125 338.039,-31.6426 347.086,-37.1575 348.55,-30.3125"/>
<text text-anchor="middle" x="394" y="-56" font-family="FreeSans" font-size="10.00"> renderTargets_</text>
</g>
</g>
</svg>
        <g id="navigator" transform="translate(0 0)" fill="#404254">
                <rect fill="#f2f5e9" fill-opacity="0.5" stroke="#606060" stroke-width=".5" x="0" y="0" width="60" height="60"/>
                <use id="zoomplus" xlink:href="#zoomPlus" x="17" y="9" onmousedown="handleZoom(evt,'in')"/>
                <use id="zoomminus" xlink:href="#zoomMin" x="42" y="9" onmousedown="handleZoom(evt,'out')"/>
                <use id="reset" xlink:href="#resetDef" x="30" y="36" onmousedown="handleReset()"/>
                <g id="arrowUp" xlink:href="#dirArrow" transform="translate(30 24)" onmousedown="handlePan(0,-1)">
                  <use xlink:href="#rim" fill="#404040">
                        <set attributeName="fill" to="#808080" begin="arrowUp.mouseover" end="arrowUp.mouseout"/>
                  </use>
                  <path fill="none" stroke="white" stroke-width="1.5" d="M0,-3.0v7 M-2.5,-0.5L0,-3.0L2.5,-0.5"/>
                </g>
                <g id="arrowRight" xlink:href="#dirArrow" transform="rotate(90) translate(36 -43)" onmousedown="handlePan(1,0)">
                  <use xlink:href="#rim" fill="#404040">
                        <set attributeName="fill" to="#808080" begin="arrowRight.mouseover" end="arrowRight.mouseout"/>
                  </use>
                  <path fill="none" stroke="white" stroke-width="1.5" d="M0,-3.0v7 M-2.5,-0.5L0,-3.0L2.5,-0.5"/>
                </g>
                <g id="arrowDown" xlink:href="#dirArrow" transform="rotate(180) translate(-30 -48)" onmousedown="handlePan(0,1)">
                  <use xlink:href="#rim" fill="#404040">
                        <set attributeName="fill" to="#808080" begin="arrowDown.mouseover" end="arrowDown.mouseout"/>
                  </use>
                  <path fill="none" stroke="white" stroke-width="1.5" d="M0,-3.0v7 M-2.5,-0.5L0,-3.0L2.5,-0.5"/>
                </g>
                <g id="arrowLeft" xlink:href="#dirArrow" transform="rotate(270) translate(-36 17)" onmousedown="handlePan(-1,0)">
                  <use xlink:href="#rim" fill="#404040">
                        <set attributeName="fill" to="#808080" begin="arrowLeft.mouseover" end="arrowLeft.mouseout"/>
                  </use>
                  <path fill="none" stroke="white" stroke-width="1.5" d="M0,-3.0v7 M-2.5,-0.5L0,-3.0L2.5,-0.5"/>
                </g>
        </g>
        <svg viewBox="0 0 15 15" width="100%" height="30px" preserveAspectRatio="xMaxYMin meet">
         <g id="arrow_out" transform="scale(0.3 0.3)">
          <a xlink:href="class_urho3_d_1_1_render_path__coll__graph_org.svg" target="_base">
           <rect id="button" ry="5" rx="5" y="6" x="6" height="38" width="38"
                fill="#f2f5e9" fill-opacity="0.5" stroke="#606060" stroke-width="1.0"/>
           <path id="arrow"
             d="M 11.500037,31.436501 C 11.940474,20.09759 22.043105,11.32322 32.158766,21.979434 L 37.068811,17.246167 C 37.068811,17.246167 37.088388,32 37.088388,32 L 22.160133,31.978069 C 22.160133,31.978069 26.997745,27.140456 26.997745,27.140456 C 18.528582,18.264221 13.291696,25.230495 11.500037,31.436501 z"
             style="fill:#404040;"/>
          </a>
         </g>
        </svg>
</svg>
