<?xml version="1.0" encoding="UTF-8" standalone="no"?>
<!DOCTYPE svg PUBLIC "-//W3C//DTD SVG 1.1//EN"
 "http://www.w3.org/Graphics/SVG/1.1/DTD/svg11.dtd">
<!-- Generated by graphviz version 2.26.3 (20100126.1600)
 -->
<!-- Title: Urho3D::RigidBody2D Pages: 1 -->
<svg width="1930pt" height="817pt"
 viewBox="0.00 0.00 1930.00 817.45" xmlns="http://www.w3.org/2000/svg" xmlns:xlink="http://www.w3.org/1999/xlink">
<g id="graph1" class="graph" transform="scale(1 1) rotate(0) translate(4 813.455)">
<title>Urho3D::RigidBody2D</title>
<!-- Node1 -->
<g id="node1" class="node"><title>Node1</title>
<polygon fill="#bfbfbf" stroke="black" points="1802.5,-169.955 1802.5,-190.955 1921.5,-190.955 1921.5,-169.955 1802.5,-169.955"/>
<text text-anchor="middle" x="1862" y="-177.955" font-family="FreeSans" font-size="10.00">Urho3D::RigidBody2D</text>
</g>
<!-- Node2 -->
<g id="node2" class="node"><title>Node2</title>
<a xlink:href="class_urho3_d_1_1_component.html" target="_top" xlink:title="Base class for components. Components can be created to scene nodes.">
<polygon fill="none" stroke="black" points="1096,-462.955 1096,-483.955 1212,-483.955 1212,-462.955 1096,-462.955"/>
<text text-anchor="middle" x="1154" y="-470.955" font-family="FreeSans" font-size="10.00">Urho3D::Component</text>
</a>
</g>
<!-- Node2&#45;&gt;Node1 -->
<g id="edge2" class="edge"><title>Node2&#45;&gt;Node1</title>
<path fill="none" stroke="midnightblue" d="M1202.05,-460.111C1309.95,-429.147 1578.16,-346.574 1784,-236.455 1808.69,-223.244 1834.57,-203.255 1849.44,-191.074"/>
<polygon fill="midnightblue" stroke="midnightblue" points="1201.07,-456.749 1192.42,-462.859 1203,-463.481 1201.07,-456.749"/>
</g>
<!-- Node22 -->
<g id="node54" class="node"><title>Node22</title>
<a xlink:href="class_urho3_d_1_1_physics_world2_d.html" target="_top" xlink:title="2D physics simulation world component. Should be added only to the root scene node.">
<polygon fill="none" stroke="red" points="1330,-232.955 1330,-253.955 1464,-253.955 1464,-232.955 1330,-232.955"/>
<text text-anchor="middle" x="1397" y="-240.955" font-family="FreeSans" font-size="10.00">Urho3D::PhysicsWorld2D</text>
</a>
</g>
<!-- Node2&#45;&gt;Node22 -->
<g id="edge68" class="edge"><title>Node2&#45;&gt;Node22</title>
<path fill="none" stroke="midnightblue" d="M1187.14,-457.945C1195.87,-452.858 1204.85,-446.636 1212,-439.455 1223.24,-428.166 1221.47,-421.911 1230,-408.455 1271.91,-342.333 1266.68,-309.485 1330,-263.455 1335.3,-259.6 1341.35,-256.482 1347.59,-253.961"/>
<polygon fill="midnightblue" stroke="midnightblue" points="1185.3,-454.959 1178.21,-462.827 1188.66,-461.102 1185.3,-454.959"/>
</g>
<!-- Node3 -->
<g id="node4" class="node"><title>Node3</title>
<a xlink:href="class_urho3_d_1_1_animatable.html" target="_top" xlink:title="Base class for animatable object, an animatable object can be set animation on it&#39;s attributes...">
<polygon fill="none" stroke="black" points="425,-716.955 425,-737.955 539,-737.955 539,-716.955 425,-716.955"/>
<text text-anchor="middle" x="482" y="-724.955" font-family="FreeSans" font-size="10.00">Urho3D::Animatable</text>
</a>
</g>
<!-- Node3&#45;&gt;Node2 -->
<g id="edge4" class="edge"><title>Node3&#45;&gt;Node2</title>
<path fill="none" stroke="midnightblue" d="M549.325,-720.623C617.739,-713.19 718.779,-700.721 756,-688.455 916.366,-635.607 1088.09,-519.879 1138.98,-484.166"/>
<polygon fill="midnightblue" stroke="midnightblue" points="548.629,-717.178 539.06,-721.727 549.377,-724.138 548.629,-717.178"/>
</g>
<!-- Node8 -->
<g id="node14" class="node"><title>Node8</title>
<a xlink:href="class_urho3_d_1_1_node.html" target="_top" xlink:title="Scene node that may contain components and child nodes.">
<polygon fill="none" stroke="red" points="774.5,-452.955 774.5,-473.955 859.5,-473.955 859.5,-452.955 774.5,-452.955"/>
<text text-anchor="middle" x="817" y="-460.955" font-family="FreeSans" font-size="10.00">Urho3D::Node</text>
</a>
</g>
<!-- Node3&#45;&gt;Node8 -->
<g id="edge16" class="edge"><title>Node3&#45;&gt;Node8</title>
<path fill="none" stroke="midnightblue" d="M549.148,-720.168C561.19,-717.241 573.299,-713.155 584,-707.455 593.985,-702.135 591.995,-694.737 602,-689.455 663.59,-656.937 704.023,-706.813 756,-660.455 784.991,-634.598 808.663,-511.028 815.203,-473.978"/>
<polygon fill="midnightblue" stroke="midnightblue" points="548.106,-716.813 539.081,-722.363 549.597,-723.652 548.106,-716.813"/>
</g>
<!-- Node4 -->
<g id="node6" class="node"><title>Node4</title>
<a xlink:href="class_urho3_d_1_1_serializable.html" target="_top" xlink:title="Base class for objects with automatic serialization through attributes.">
<polygon fill="none" stroke="red" points="44,-680.955 44,-701.955 158,-701.955 158,-680.955 44,-680.955"/>
<text text-anchor="middle" x="101" y="-688.955" font-family="FreeSans" font-size="10.00">Urho3D::Serializable</text>
</a>
</g>
<!-- Node4&#45;&gt;Node3 -->
<g id="edge6" class="edge"><title>Node4&#45;&gt;Node3</title>
<path fill="none" stroke="midnightblue" d="M168.033,-697.788C240.913,-704.675 356.148,-715.563 424.882,-722.058"/>
<polygon fill="midnightblue" stroke="midnightblue" points="168.324,-694.301 158.04,-696.844 167.666,-701.269 168.324,-694.301"/>
</g>
<!-- Node5 -->
<g id="node8" class="node"><title>Node5</title>
<a xlink:href="class_urho3_d_1_1_hash_map.html" target="_top" xlink:title="Urho3D::HashMap\&lt; Urho3D\l::String, Urho3D::SharedPtr\l\&lt; Urho3D::AttributeAnimationInfo \&gt; \&gt;">
<polygon fill="none" stroke="red" points="0.5,-614.955 0.5,-661.955 201.5,-661.955 201.5,-614.955 0.5,-614.955"/>
<text text-anchor="start" x="8.5" y="-648.955" font-family="FreeSans" font-size="10.00">Urho3D::HashMap&lt; Urho3D</text>
<text text-anchor="start" x="8.5" y="-635.955" font-family="FreeSans" font-size="10.00">::String, Urho3D::SharedPtr</text>
<text text-anchor="middle" x="101" y="-622.955" font-family="FreeSans" font-size="10.00">&lt; Urho3D::AttributeAnimationInfo &gt; &gt;</text>
</a>
</g>
<!-- Node5&#45;&gt;Node3 -->
<g id="edge8" class="edge"><title>Node5&#45;&gt;Node3</title>
<path fill="none" stroke="#9a32cd" stroke-dasharray="5,2" d="M211.491,-641.282C260.38,-646.688 316.888,-658.925 362,-685.455 372.89,-691.859 369.16,-700.966 380,-707.455 393.471,-715.518 409.566,-720.41 424.946,-723.356"/>
<polygon fill="#9a32cd" stroke="#9a32cd" points="211.805,-637.796 201.501,-640.26 211.092,-644.76 211.805,-637.796"/>
<text text-anchor="middle" x="291" y="-689.455" font-family="FreeSans" font-size="10.00"> attributeAnimationInfos_</text>
</g>
<!-- Node6 -->
<g id="node10" class="node"><title>Node6</title>
<a xlink:href="class_urho3_d_1_1_shared_ptr.html" target="_top" xlink:title="Urho3D::SharedPtr\&lt;\l Urho3D::ObjectAnimation \&gt;">
<polygon fill="none" stroke="red" points="24.5,-772.455 24.5,-806.455 177.5,-806.455 177.5,-772.455 24.5,-772.455"/>
<text text-anchor="start" x="32.5" y="-793.455" font-family="FreeSans" font-size="10.00">Urho3D::SharedPtr&lt;</text>
<text text-anchor="middle" x="101" y="-780.455" font-family="FreeSans" font-size="10.00"> Urho3D::ObjectAnimation &gt;</text>
</a>
</g>
<!-- Node6&#45;&gt;Node3 -->
<g id="edge10" class="edge"><title>Node6&#45;&gt;Node3</title>
<path fill="none" stroke="#9a32cd" stroke-dasharray="5,2" d="M187.622,-777.421C238.494,-770.126 303.992,-760.343 362,-750.455 384.166,-746.676 408.549,-742.083 429.513,-737.998"/>
<polygon fill="#9a32cd" stroke="#9a32cd" points="187.054,-773.966 177.649,-778.845 188.044,-780.896 187.054,-773.966"/>
<text text-anchor="middle" x="291" y="-776.455" font-family="FreeSans" font-size="10.00"> objectAnimation_</text>
</g>
<!-- Node7 -->
<g id="node12" class="node"><title>Node7</title>
<a xlink:href="class_urho3_d_1_1_hash_set.html" target="_top" xlink:title="Urho3D::HashSet\&lt; const\l Urho3D::AttributeInfo * \&gt;">
<polygon fill="none" stroke="red" points="30.5,-720.455 30.5,-754.455 171.5,-754.455 171.5,-720.455 30.5,-720.455"/>
<text text-anchor="start" x="38.5" y="-741.455" font-family="FreeSans" font-size="10.00">Urho3D::HashSet&lt; const</text>
<text text-anchor="middle" x="101" y="-728.455" font-family="FreeSans" font-size="10.00"> Urho3D::AttributeInfo * &gt;</text>
</a>
</g>
<!-- Node7&#45;&gt;Node3 -->
<g id="edge12" class="edge"><title>Node7&#45;&gt;Node3</title>
<path fill="none" stroke="#9a32cd" stroke-dasharray="5,2" d="M181.848,-735.333C254.854,-733.417 360.438,-730.645 424.964,-728.952"/>
<polygon fill="#9a32cd" stroke="#9a32cd" points="181.675,-731.836 171.77,-735.597 181.859,-738.833 181.675,-731.836"/>
<text text-anchor="middle" x="291" y="-737.455" font-family="FreeSans" font-size="10.00"> animatedNetworkAttributes_</text>
</g>
<!-- Node8&#45;&gt;Node2 -->
<g id="edge14" class="edge"><title>Node8&#45;&gt;Node2</title>
<path fill="none" stroke="#9a32cd" stroke-dasharray="5,2" d="M869.93,-465.025C931.352,-466.848 1032.31,-469.844 1095.87,-471.73"/>
<polygon fill="#9a32cd" stroke="#9a32cd" points="869.781,-461.519 859.681,-464.721 869.573,-468.516 869.781,-461.519"/>
<text text-anchor="middle" x="978" y="-475.455" font-family="FreeSans" font-size="10.00"> node_</text>
</g>
<!-- Node8&#45;&gt;Node8 -->
<g id="edge54" class="edge"><title>Node8&#45;&gt;Node8</title>
<path fill="none" stroke="#9a32cd" stroke-dasharray="5,2" d="M791.433,-483.51C793.11,-488.619 801.633,-492.455 817,-492.455 840.988,-492.455 848.297,-483.108 838.927,-474.163"/>
<polygon fill="#9a32cd" stroke="#9a32cd" points="794.706,-484.751 795.073,-474.163 788.183,-482.211 794.706,-484.751"/>
<text text-anchor="middle" x="817" y="-496.455" font-family="FreeSans" font-size="10.00"> parent_</text>
</g>
<!-- Node11 -->
<g id="node21" class="node"><title>Node11</title>
<a xlink:href="class_urho3_d_1_1_scene.html" target="_top" xlink:title="Root scene node, represents the whole scene.">
<polygon fill="none" stroke="red" points="1109.5,-408.955 1109.5,-429.955 1198.5,-429.955 1198.5,-408.955 1109.5,-408.955"/>
<text text-anchor="middle" x="1154" y="-416.955" font-family="FreeSans" font-size="10.00">Urho3D::Scene</text>
</a>
</g>
<!-- Node8&#45;&gt;Node11 -->
<g id="edge24" class="edge"><title>Node8&#45;&gt;Node11</title>
<path fill="none" stroke="midnightblue" d="M838.297,-446.752C849.458,-439.02 863.745,-430.636 878,-426.455 956.881,-403.32 1053.94,-408.04 1109.42,-413.677"/>
<polygon fill="midnightblue" stroke="midnightblue" points="836.113,-444.013 830.078,-452.72 840.226,-449.677 836.113,-444.013"/>
</g>
<!-- Node9 -->
<g id="node17" class="node"><title>Node9</title>
<a xlink:href="class_urho3_d_1_1_p_o_d_vector.html" target="_top" xlink:title="Urho3D::PODVector\&lt;\l Urho3D::Node * \&gt;">
<polygon fill="none" stroke="black" points="422.5,-593.455 422.5,-627.455 541.5,-627.455 541.5,-593.455 422.5,-593.455"/>
<text text-anchor="start" x="430.5" y="-614.455" font-family="FreeSans" font-size="10.00">Urho3D::PODVector&lt;</text>
<text text-anchor="middle" x="482" y="-601.455" font-family="FreeSans" font-size="10.00"> Urho3D::Node * &gt;</text>
</a>
</g>
<!-- Node9&#45;&gt;Node8 -->
<g id="edge18" class="edge"><title>Node9&#45;&gt;Node8</title>
<path fill="none" stroke="#9a32cd" stroke-dasharray="5,2" d="M551.652,-605.071C621.591,-598.522 723.508,-585.516 756,-563.455 788.808,-541.179 807.028,-494.817 813.849,-473.988"/>
<polygon fill="#9a32cd" stroke="#9a32cd" points="551.217,-601.596 541.577,-605.99 551.854,-608.567 551.217,-601.596"/>
<text text-anchor="middle" x="679" y="-602.455" font-family="FreeSans" font-size="10.00"> dependencyNodes_</text>
</g>
<!-- Node10 -->
<g id="node19" class="node"><title>Node10</title>
<a xlink:href="class_urho3_d_1_1_vector_base.html" target="_top" xlink:title="Vector base class.">
<polygon fill="none" stroke="black" points="44,-404.955 44,-425.955 158,-425.955 158,-404.955 44,-404.955"/>
<text text-anchor="middle" x="101" y="-412.955" font-family="FreeSans" font-size="10.00">Urho3D::VectorBase</text>
</a>
</g>
<!-- Node10&#45;&gt;Node9 -->
<g id="edge20" class="edge"><title>Node10&#45;&gt;Node9</title>
<path fill="none" stroke="midnightblue" d="M119.117,-433.068C141.464,-454.13 181.265,-489.531 220,-513.455 286.191,-554.336 306.491,-558.979 380,-584.455 393.555,-589.152 408.387,-593.414 422.44,-597.065"/>
<polygon fill="midnightblue" stroke="midnightblue" points="121.361,-430.371 111.708,-426.005 116.531,-435.438 121.361,-430.371"/>
</g>
<!-- Node15 -->
<g id="node32" class="node"><title>Node15</title>
<a xlink:href="class_urho3_d_1_1_vector.html" target="_top" xlink:title="Urho3D::Vector\&lt; Urho3D\l::WeakPtr\&lt; Urho3D::Component \&gt; \&gt;">
<polygon fill="none" stroke="black" points="385,-418.455 385,-452.455 579,-452.455 579,-418.455 385,-418.455"/>
<text text-anchor="start" x="393" y="-439.455" font-family="FreeSans" font-size="10.00">Urho3D::Vector&lt; Urho3D</text>
<text text-anchor="middle" x="482" y="-426.455" font-family="FreeSans" font-size="10.00">::WeakPtr&lt; Urho3D::Component &gt; &gt;</text>
</a>
</g>
<!-- Node10&#45;&gt;Node15 -->
<g id="edge38" class="edge"><title>Node10&#45;&gt;Node15</title>
<path fill="none" stroke="midnightblue" d="M168.173,-418.981C228.278,-422.136 317.109,-426.799 384.936,-430.359"/>
<polygon fill="midnightblue" stroke="midnightblue" points="168.209,-415.478 158.04,-418.449 167.842,-422.468 168.209,-415.478"/>
</g>
<!-- Node17 -->
<g id="node37" class="node"><title>Node17</title>
<a xlink:href="class_urho3_d_1_1_vector.html" target="_top" xlink:title="Urho3D::Vector\&lt; Urho3D\l::SharedPtr\&lt; Urho3D::Component \&gt; \&gt;">
<polygon fill="none" stroke="black" points="380.5,-541.455 380.5,-575.455 583.5,-575.455 583.5,-541.455 380.5,-541.455"/>
<text text-anchor="start" x="388.5" y="-562.455" font-family="FreeSans" font-size="10.00">Urho3D::Vector&lt; Urho3D</text>
<text text-anchor="middle" x="482" y="-549.455" font-family="FreeSans" font-size="10.00">::SharedPtr&lt; Urho3D::Component &gt; &gt;</text>
</a>
</g>
<!-- Node10&#45;&gt;Node17 -->
<g id="edge44" class="edge"><title>Node10&#45;&gt;Node17</title>
<path fill="none" stroke="midnightblue" d="M132.157,-430.309C183.11,-454.191 287.829,-501.569 380,-532.455 389.53,-535.648 399.673,-538.67 409.727,-541.445"/>
<polygon fill="midnightblue" stroke="midnightblue" points="133.532,-427.088 122.993,-425.995 130.55,-433.421 133.532,-427.088"/>
</g>
<!-- Node20 -->
<g id="node49" class="node"><title>Node20</title>
<a xlink:href="class_urho3_d_1_1_vector.html" target="_top" xlink:title="Urho3D::Vector\&lt; Urho3D\l::SharedPtr\&lt; Urho3D::Node \&gt; \&gt;">
<polygon fill="none" stroke="black" points="395.5,-366.455 395.5,-400.455 568.5,-400.455 568.5,-366.455 395.5,-366.455"/>
<text text-anchor="start" x="403.5" y="-387.455" font-family="FreeSans" font-size="10.00">Urho3D::Vector&lt; Urho3D</text>
<text text-anchor="middle" x="482" y="-374.455" font-family="FreeSans" font-size="10.00">::SharedPtr&lt; Urho3D::Node &gt; &gt;</text>
</a>
</g>
<!-- Node10&#45;&gt;Node20 -->
<g id="edge62" class="edge"><title>Node10&#45;&gt;Node20</title>
<path fill="none" stroke="midnightblue" d="M168.289,-409.803C231.479,-404.496 326.347,-396.528 395.209,-390.744"/>
<polygon fill="midnightblue" stroke="midnightblue" points="167.712,-406.339 158.04,-410.664 168.297,-413.315 167.712,-406.339"/>
</g>
<!-- Node24 -->
<g id="node59" class="node"><title>Node24</title>
<a xlink:href="class_urho3_d_1_1_vector.html" target="_top" xlink:title="Urho3D::Vector\&lt; Urho3D\l::WeakPtr\&lt; Urho3D::Collision\lShape2D \&gt; \&gt;">
<polygon fill="none" stroke="black" points="602,-93.9547 602,-140.955 756,-140.955 756,-93.9547 602,-93.9547"/>
<text text-anchor="start" x="610" y="-127.955" font-family="FreeSans" font-size="10.00">Urho3D::Vector&lt; Urho3D</text>
<text text-anchor="start" x="610" y="-114.955" font-family="FreeSans" font-size="10.00">::WeakPtr&lt; Urho3D::Collision</text>
<text text-anchor="middle" x="679" y="-101.955" font-family="FreeSans" font-size="10.00">Shape2D &gt; &gt;</text>
</a>
</g>
<!-- Node10&#45;&gt;Node24 -->
<g id="edge74" class="edge"><title>Node10&#45;&gt;Node24</title>
<path fill="none" stroke="midnightblue" d="M110.927,-395.593C141.409,-337.158 240.145,-166.009 380,-103.455 450.208,-72.0522 539.172,-81.6381 601.74,-95.3151"/>
<polygon fill="midnightblue" stroke="midnightblue" points="107.628,-394.357 106.18,-404.852 113.857,-397.55 107.628,-394.357"/>
</g>
<!-- Node25 -->
<g id="node62" class="node"><title>Node25</title>
<a xlink:href="class_urho3_d_1_1_vector.html" target="_top" xlink:title="Urho3D::Vector\&lt; Urho3D\l::WeakPtr\&lt; Urho3D::Constraint2D \&gt; \&gt;">
<polygon fill="none" stroke="black" points="878,-45.4547 878,-79.4547 1078,-79.4547 1078,-45.4547 878,-45.4547"/>
<text text-anchor="start" x="886" y="-66.4547" font-family="FreeSans" font-size="10.00">Urho3D::Vector&lt; Urho3D</text>
<text text-anchor="middle" x="978" y="-53.4547" font-family="FreeSans" font-size="10.00">::WeakPtr&lt; Urho3D::Constraint2D &gt; &gt;</text>
</a>
</g>
<!-- Node10&#45;&gt;Node25 -->
<g id="edge78" class="edge"><title>Node10&#45;&gt;Node25</title>
<path fill="none" stroke="midnightblue" d="M102.462,-394.672C107.556,-339.048 129.542,-185.89 220,-110.455 424.943,60.4524 779.559,-8.85713 919.132,-45.3932"/>
<polygon fill="midnightblue" stroke="midnightblue" points="98.9673,-394.469 101.633,-404.723 105.944,-395.045 98.9673,-394.469"/>
</g>
<!-- Node11&#45;&gt;Node8 -->
<g id="edge22" class="edge"><title>Node11&#45;&gt;Node8</title>
<path fill="none" stroke="#9a32cd" stroke-dasharray="5,2" d="M1099.24,-422.996C1043.33,-427.129 954.181,-435.15 878,-448.455 871.017,-449.674 863.647,-451.242 856.538,-452.901"/>
<polygon fill="#9a32cd" stroke="#9a32cd" points="1099.56,-426.482 1109.28,-422.269 1099.06,-419.5 1099.56,-426.482"/>
<text text-anchor="middle" x="978" y="-452.455" font-family="FreeSans" font-size="10.00"> scene_</text>
</g>
<!-- Node12 -->
<g id="node24" class="node"><title>Node12</title>
<a xlink:href="class_urho3_d_1_1_hash_map.html" target="_top" xlink:title="Urho3D::HashMap\&lt; StringHash,\l Variant \&gt;">
<polygon fill="none" stroke="red" points="396,-274.455 396,-308.455 568,-308.455 568,-274.455 396,-274.455"/>
<text text-anchor="start" x="404" y="-295.455" font-family="FreeSans" font-size="10.00">Urho3D::HashMap&lt; StringHash,</text>
<text text-anchor="middle" x="482" y="-282.455" font-family="FreeSans" font-size="10.00"> Variant &gt;</text>
</a>
</g>
<!-- Node12&#45;&gt;Node8 -->
<g id="edge50" class="edge"><title>Node12&#45;&gt;Node8</title>
<path fill="none" stroke="#9a32cd" stroke-dasharray="5,2" d="M573.512,-310.365C583.116,-312.168 592.747,-313.9 602,-315.455 636.062,-321.178 728.077,-316.126 756,-336.455 795.945,-365.535 810.832,-427.796 815.335,-452.768"/>
<polygon fill="#9a32cd" stroke="#9a32cd" points="574.009,-306.897 563.531,-308.466 572.7,-313.773 574.009,-306.897"/>
<text text-anchor="middle" x="679" y="-340.455" font-family="FreeSans" font-size="10.00"> vars_</text>
</g>
<!-- Node12&#45;&gt;Node11 -->
<g id="edge26" class="edge"><title>Node12&#45;&gt;Node11</title>
<path fill="none" stroke="#9a32cd" stroke-dasharray="5,2" d="M570.372,-272.798C624.344,-264.26 694.564,-258.262 756,-269.455 907.83,-297.116 1077.02,-379.589 1134.03,-408.94"/>
<polygon fill="#9a32cd" stroke="#9a32cd" points="569.791,-269.347 560.489,-274.419 570.924,-276.255 569.791,-269.347"/>
<text text-anchor="middle" x="817" y="-298.455" font-family="FreeSans" font-size="10.00"> smoothingData_</text>
</g>
<!-- Node13 -->
<g id="node26" class="node"><title>Node13</title>
<a xlink:href="class_urho3_d_1_1_string.html" target="_top" xlink:title="String class.">
<polygon fill="none" stroke="black" points="438,-756.955 438,-777.955 526,-777.955 526,-756.955 438,-756.955"/>
<text text-anchor="middle" x="482" y="-764.955" font-family="FreeSans" font-size="10.00">Urho3D::String</text>
</a>
</g>
<!-- Node13&#45;&gt;Node8 -->
<g id="edge52" class="edge"><title>Node13&#45;&gt;Node8</title>
<path fill="none" stroke="#9a32cd" stroke-dasharray="5,2" d="M536.25,-759.16C551.846,-756.147 568.755,-752.27 584,-747.455 592.348,-744.818 593.835,-742.612 602,-739.455 669.247,-713.449 706.44,-740.821 756,-688.455 786.463,-656.267 809.447,-514.489 815.455,-474.179"/>
<polygon fill="#9a32cd" stroke="#9a32cd" points="535.418,-755.754 526.222,-761.015 536.692,-762.637 535.418,-755.754"/>
<text text-anchor="middle" x="679" y="-743.455" font-family="FreeSans" font-size="10.00"> name_</text>
</g>
<!-- Node13&#45;&gt;Node11 -->
<g id="edge28" class="edge"><title>Node13&#45;&gt;Node11</title>
<path fill="none" stroke="#9a32cd" stroke-dasharray="5,2" d="M536.684,-774.189C593.536,-778.996 684.1,-780.401 756,-752.455 928.49,-685.41 961.702,-632.408 1078,-488.455 1088.99,-474.848 1083.98,-466.16 1096,-453.455 1105.31,-443.62 1118.09,-435.717 1129.28,-430.015"/>
<polygon fill="#9a32cd" stroke="#9a32cd" points="536.749,-770.681 526.473,-773.258 536.114,-777.652 536.749,-770.681"/>
<text text-anchor="middle" x="817" y="-747.455" font-family="FreeSans" font-size="10.00"> fileName_</text>
</g>
<!-- Node13&#45;&gt;Node13 -->
<g id="edge30" class="edge"><title>Node13&#45;&gt;Node13</title>
<path fill="none" stroke="#9a32cd" stroke-dasharray="5,2" d="M446.529,-786.753C447.986,-792.235 459.81,-796.455 482,-796.455 515.027,-796.455 525.09,-787.108 512.189,-778.163"/>
<polygon fill="#9a32cd" stroke="#9a32cd" points="449.555,-788.514 451.811,-778.163 443.592,-784.848 449.555,-788.514"/>
<text text-anchor="middle" x="482" y="-800.455" font-family="FreeSans" font-size="10.00"> EMPTY</text>
</g>
<!-- Node14 -->
<g id="node29" class="node"><title>Node14</title>
<a xlink:href="class_urho3_d_1_1_quaternion.html" target="_top" xlink:title="Rotation represented as a four&#45;dimensional normalized vector.">
<polygon fill="none" stroke="black" points="425.5,-470.955 425.5,-491.955 538.5,-491.955 538.5,-470.955 425.5,-470.955"/>
<text text-anchor="middle" x="482" y="-478.955" font-family="FreeSans" font-size="10.00">Urho3D::Quaternion</text>
</a>
</g>
<!-- Node14&#45;&gt;Node8 -->
<g id="edge32" class="edge"><title>Node14&#45;&gt;Node8</title>
<path fill="none" stroke="#9a32cd" stroke-dasharray="5,2" d="M548.882,-477.861C615.993,-474.255 717.342,-468.809 774.277,-465.75"/>
<polygon fill="#9a32cd" stroke="#9a32cd" points="548.626,-474.37 538.828,-478.401 549.002,-481.36 548.626,-474.37"/>
<text text-anchor="middle" x="679" y="-492.455" font-family="FreeSans" font-size="10.00"> worldRotation_</text>
<text text-anchor="middle" x="679" y="-479.455" font-family="FreeSans" font-size="10.00">rotation_</text>
</g>
<!-- Node14&#45;&gt;Node14 -->
<g id="edge34" class="edge"><title>Node14&#45;&gt;Node14</title>
<path fill="none" stroke="#9a32cd" stroke-dasharray="5,2" d="M446.529,-500.753C447.986,-506.235 459.81,-510.455 482,-510.455 515.027,-510.455 525.09,-501.108 512.189,-492.163"/>
<polygon fill="#9a32cd" stroke="#9a32cd" points="449.555,-502.514 451.811,-492.163 443.592,-498.848 449.555,-502.514"/>
<text text-anchor="middle" x="482" y="-514.455" font-family="FreeSans" font-size="10.00"> IDENTITY</text>
</g>
<!-- Node15&#45;&gt;Node8 -->
<g id="edge36" class="edge"><title>Node15&#45;&gt;Node8</title>
<path fill="none" stroke="#9a32cd" stroke-dasharray="5,2" d="M589.039,-437.463C639.81,-439.398 701.213,-443.162 756,-450.455 762.011,-451.255 768.311,-452.327 774.486,-453.514"/>
<polygon fill="#9a32cd" stroke="#9a32cd" points="589.152,-433.965 579.032,-437.1 588.898,-440.96 589.152,-433.965"/>
<text text-anchor="middle" x="679" y="-454.455" font-family="FreeSans" font-size="10.00"> listeners_</text>
</g>
<!-- Node16 -->
<g id="node35" class="node"><title>Node16</title>
<a xlink:href="class_urho3_d_1_1_vector_buffer.html" target="_top" xlink:title="Dynamically sized buffer that can be read and written to as a stream.">
<polygon fill="none" stroke="red" points="422.5,-326.955 422.5,-347.955 541.5,-347.955 541.5,-326.955 422.5,-326.955"/>
<text text-anchor="middle" x="482" y="-334.955" font-family="FreeSans" font-size="10.00">Urho3D::VectorBuffer</text>
</a>
</g>
<!-- Node16&#45;&gt;Node8 -->
<g id="edge40" class="edge"><title>Node16&#45;&gt;Node8</title>
<path fill="none" stroke="#9a32cd" stroke-dasharray="5,2" d="M551.589,-345.734C632.046,-355.358 753.82,-370.105 756,-371.455 787.284,-390.824 805.955,-432.889 813.335,-452.711"/>
<polygon fill="#9a32cd" stroke="#9a32cd" points="551.85,-342.241 541.505,-344.529 551.019,-349.191 551.85,-342.241"/>
<text text-anchor="middle" x="679" y="-375.455" font-family="FreeSans" font-size="10.00"> attrBuffer_</text>
</g>
<!-- Node17&#45;&gt;Node8 -->
<g id="edge42" class="edge"><title>Node17&#45;&gt;Node8</title>
<path fill="none" stroke="#9a32cd" stroke-dasharray="5,2" d="M593.869,-547.414C644.761,-539.743 704.895,-526.883 756,-505.455 774.498,-497.699 793.103,-483.799 804.816,-474.124"/>
<polygon fill="#9a32cd" stroke="#9a32cd" points="593.209,-543.973 583.819,-548.88 594.219,-550.9 593.209,-543.973"/>
<text text-anchor="middle" x="679" y="-550.455" font-family="FreeSans" font-size="10.00"> components_</text>
</g>
<!-- Node18 -->
<g id="node40" class="node"><title>Node18</title>
<a xlink:href="class_urho3_d_1_1_vector3.html" target="_top" xlink:title="Three&#45;dimensional vector.">
<polygon fill="none" stroke="black" points="434,-112.955 434,-133.955 530,-133.955 530,-112.955 434,-112.955"/>
<text text-anchor="middle" x="482" y="-120.955" font-family="FreeSans" font-size="10.00">Urho3D::Vector3</text>
</a>
</g>
<!-- Node18&#45;&gt;Node8 -->
<g id="edge46" class="edge"><title>Node18&#45;&gt;Node8</title>
<path fill="none" stroke="#9a32cd" stroke-dasharray="5,2" d="M523.519,-137.425C583.265,-159.581 693.19,-208.336 756,-285.455 798.909,-338.139 812.361,-422.719 815.896,-452.584"/>
<polygon fill="#9a32cd" stroke="#9a32cd" points="524.618,-134.101 514.024,-133.972 522.225,-140.679 524.618,-134.101"/>
<text text-anchor="middle" x="679" y="-302.455" font-family="FreeSans" font-size="10.00"> scale_</text>
<text text-anchor="middle" x="679" y="-289.455" font-family="FreeSans" font-size="10.00">position_</text>
</g>
<!-- Node18&#45;&gt;Node18 -->
<g id="edge48" class="edge"><title>Node18&#45;&gt;Node18</title>
<path fill="none" stroke="#9a32cd" stroke-dasharray="5,2" d="M446.529,-142.753C447.986,-148.235 459.81,-152.455 482,-152.455 515.027,-152.455 525.09,-143.108 512.189,-134.163"/>
<polygon fill="#9a32cd" stroke="#9a32cd" points="449.555,-144.514 451.811,-134.163 443.592,-140.848 449.555,-144.514"/>
<text text-anchor="middle" x="482" y="-247.455" font-family="FreeSans" font-size="10.00"> ONE</text>
<text text-anchor="middle" x="482" y="-234.455" font-family="FreeSans" font-size="10.00">DOWN</text>
<text text-anchor="middle" x="482" y="-221.455" font-family="FreeSans" font-size="10.00">BACK</text>
<text text-anchor="middle" x="482" y="-208.455" font-family="FreeSans" font-size="10.00">RIGHT</text>
<text text-anchor="middle" x="482" y="-195.455" font-family="FreeSans" font-size="10.00">LEFT</text>
<text text-anchor="middle" x="482" y="-182.455" font-family="FreeSans" font-size="10.00">ZERO</text>
<text text-anchor="middle" x="482" y="-169.455" font-family="FreeSans" font-size="10.00">FORWARD</text>
<text text-anchor="middle" x="482" y="-156.455" font-family="FreeSans" font-size="10.00">UP</text>
</g>
<!-- Node19 -->
<g id="node46" class="node"><title>Node19</title>
<a xlink:href="class_urho3_d_1_1_string_hash.html" target="_top" xlink:title="32&#45;bit hash value for a string.">
<polygon fill="none" stroke="black" points="425.5,-645.955 425.5,-666.955 538.5,-666.955 538.5,-645.955 425.5,-645.955"/>
<text text-anchor="middle" x="482" y="-653.955" font-family="FreeSans" font-size="10.00">Urho3D::StringHash</text>
</a>
</g>
<!-- Node19&#45;&gt;Node8 -->
<g id="edge56" class="edge"><title>Node19&#45;&gt;Node8</title>
<path fill="none" stroke="#9a32cd" stroke-dasharray="5,2" d="M548.731,-649.956C624.569,-642.031 739.974,-628.121 756,-615.455 802.178,-578.957 813.561,-502.102 816.226,-474.018"/>
<polygon fill="#9a32cd" stroke="#9a32cd" points="548.354,-646.476 538.767,-650.987 549.074,-653.439 548.354,-646.476"/>
<text text-anchor="middle" x="679" y="-647.455" font-family="FreeSans" font-size="10.00"> nameHash_</text>
</g>
<!-- Node19&#45;&gt;Node19 -->
<g id="edge58" class="edge"><title>Node19&#45;&gt;Node19</title>
<path fill="none" stroke="#9a32cd" stroke-dasharray="5,2" d="M446.529,-675.753C447.986,-681.235 459.81,-685.455 482,-685.455 515.027,-685.455 525.09,-676.108 512.189,-667.163"/>
<polygon fill="#9a32cd" stroke="#9a32cd" points="449.555,-677.514 451.811,-667.163 443.592,-673.848 449.555,-677.514"/>
<text text-anchor="middle" x="482" y="-689.455" font-family="FreeSans" font-size="10.00"> ZERO</text>
</g>
<!-- Node20&#45;&gt;Node8 -->
<g id="edge60" class="edge"><title>Node20&#45;&gt;Node8</title>
<path fill="none" stroke="#9a32cd" stroke-dasharray="5,2" d="M578.718,-385.965C632.456,-390.02 699.643,-399.57 756,-421.455 774.938,-428.808 793.735,-443.084 805.352,-452.935"/>
<polygon fill="#9a32cd" stroke="#9a32cd" points="578.722,-382.457 568.502,-385.248 578.232,-389.44 578.722,-382.457"/>
<text text-anchor="middle" x="679" y="-425.455" font-family="FreeSans" font-size="10.00"> children_</text>
</g>
<!-- Node21 -->
<g id="node52" class="node"><title>Node21</title>
<a xlink:href="class_urho3_d_1_1_weak_ptr.html" target="_top" xlink:title="Urho3D::WeakPtr\&lt; Urho3D\l::PhysicsWorld2D \&gt;">
<polygon fill="none" stroke="black" points="1550,-226.455 1550,-260.455 1696,-260.455 1696,-226.455 1550,-226.455"/>
<text text-anchor="start" x="1558" y="-247.455" font-family="FreeSans" font-size="10.00">Urho3D::WeakPtr&lt; Urho3D</text>
<text text-anchor="middle" x="1623" y="-234.455" font-family="FreeSans" font-size="10.00">::PhysicsWorld2D &gt;</text>
</a>
</g>
<!-- Node21&#45;&gt;Node1 -->
<g id="edge64" class="edge"><title>Node21&#45;&gt;Node1</title>
<path fill="none" stroke="#9a32cd" stroke-dasharray="5,2" d="M1697.41,-223.842C1738.58,-212.989 1788.12,-199.93 1822.02,-190.993"/>
<polygon fill="#9a32cd" stroke="#9a32cd" points="1696.45,-220.473 1687.68,-226.406 1698.24,-227.241 1696.45,-220.473"/>
<text text-anchor="middle" x="1749" y="-223.455" font-family="FreeSans" font-size="10.00"> physicsWorld_</text>
</g>
<!-- Node22&#45;&gt;Node21 -->
<g id="edge66" class="edge"><title>Node22&#45;&gt;Node21</title>
<path fill="none" stroke="#9a32cd" stroke-dasharray="5,2" d="M1474.48,-243.455C1498.85,-243.455 1525.68,-243.455 1549.75,-243.455"/>
<polygon fill="#9a32cd" stroke="#9a32cd" points="1474.2,-239.955 1464.2,-243.455 1474.2,-246.955 1474.2,-239.955"/>
<text text-anchor="middle" x="1507" y="-247.455" font-family="FreeSans" font-size="10.00"> ptr_</text>
</g>
<!-- Node23 -->
<g id="node57" class="node"><title>Node23</title>
<a xlink:href="struct_urho3_d_1_1_ref_count.html" target="_top" xlink:title="Reference count structure.">
<polygon fill="none" stroke="black" points="1346,-272.955 1346,-293.955 1448,-293.955 1448,-272.955 1346,-272.955"/>
<text text-anchor="middle" x="1397" y="-280.955" font-family="FreeSans" font-size="10.00">Urho3D::RefCount</text>
</a>
</g>
<!-- Node23&#45;&gt;Node21 -->
<g id="edge70" class="edge"><title>Node23&#45;&gt;Node21</title>
<path fill="none" stroke="#9a32cd" stroke-dasharray="5,2" d="M1458.33,-273.217C1481.44,-269.305 1507.94,-264.751 1532,-260.455 1537.7,-259.438 1543.59,-258.37 1549.51,-257.287"/>
<polygon fill="#9a32cd" stroke="#9a32cd" points="1457.6,-269.793 1448.32,-274.909 1458.76,-276.695 1457.6,-269.793"/>
<text text-anchor="middle" x="1507" y="-273.455" font-family="FreeSans" font-size="10.00"> refCount_</text>
</g>
<!-- Node24&#45;&gt;Node1 -->
<g id="edge72" class="edge"><title>Node24&#45;&gt;Node1</title>
<path fill="none" stroke="#9a32cd" stroke-dasharray="5,2" d="M766.319,-131.31C825.816,-139.567 906.466,-148.455 978,-148.455 978,-148.455 978,-148.455 1623,-148.455 1688.93,-148.455 1764.2,-160.567 1812.36,-169.888"/>
<polygon fill="#9a32cd" stroke="#9a32cd" points="766.602,-127.815 756.212,-129.885 765.625,-134.747 766.602,-127.815"/>
<text text-anchor="middle" x="1271" y="-152.455" font-family="FreeSans" font-size="10.00"> collisionShapes_</text>
</g>
<!-- Node25&#45;&gt;Node1 -->
<g id="edge76" class="edge"><title>Node25&#45;&gt;Node1</title>
<path fill="none" stroke="#9a32cd" stroke-dasharray="5,2" d="M1088.18,-79.101C1143,-86.0139 1210.35,-92.4547 1271,-92.4547 1271,-92.4547 1271,-92.4547 1623,-92.4547 1696.95,-92.4547 1715.72,-106.065 1784,-134.455 1807.08,-144.051 1831.58,-159.472 1846.83,-169.78"/>
<polygon fill="#9a32cd" stroke="#9a32cd" points="1088.45,-75.6081 1078.09,-77.8062 1087.56,-82.5512 1088.45,-75.6081"/>
<text text-anchor="middle" x="1397" y="-96.4547" font-family="FreeSans" font-size="10.00"> constraints_</text>
</g>
</g>
</svg>
