<?xml version="1.0" encoding="UTF-8" standalone="no"?>
<!DOCTYPE svg PUBLIC "-//W3C//DTD SVG 1.1//EN"
 "http://www.w3.org/Graphics/SVG/1.1/DTD/svg11.dtd">
<!-- Generated by graphviz version 2.26.3 (20100126.1600)
 -->
<!-- Title: Urho3D::ParticleEmitter Pages: 1 -->
<!--zoomable 812 -->
<svg id="main" version="1.1" xmlns="http://www.w3.org/2000/svg" xmlns:xlink="http://www.w3.org/1999/xlink" xml:space="preserve" onload="init(evt)">
        <defs>
                <circle id="rim" cx="0" cy="0" r="7"/>
                <circle id="rim2" cx="0" cy="0" r="3.5"/>
                <g id="zoomPlus">
                        <use xlink:href="#rim" fill="#404040">
                                <set attributeName="fill" to="#808080" begin="zoomplus.mouseover" end="zoomplus.mouseout"/>
                        </use>
                        <path d="M-4,0h8M0,-4v8" fill="none" stroke="white" stroke-width="1.5" pointer-events="none"/>
                </g>
                <g id="zoomMin">
                        <use xlink:href="#rim" fill="#404040">
                                <set attributeName="fill" to="#808080" begin="zoomminus.mouseover" end="zoomminus.mouseout"/>
                        </use>
                        <path d="M-4,0h8" fill="none" stroke="white" stroke-width="1.5" pointer-events="none"/>
                </g>
                <g id="dirArrow">
                        <path fill="none" stroke="white" stroke-width="1.5" d="M0,-3.0v7 M-2.5,-0.5L0,-3.0L2.5,-0.5"/>
                </g>
               <g id="resetDef">
                       <use xlink:href="#rim2" fill="#404040">
                               <set attributeName="fill" to="#808080" begin="reset.mouseover" end="reset.mouseout"/>
                       </use>
               </g>
        </defs>

<script type="text/javascript">
var viewWidth = 1378;
var viewHeight = 812;
var sectionId = 'dynsection-1';
</script>
<script xlink:href="svgpan.js"/>
<svg id="graph" class="graph">
<g id="viewport">
<title>Urho3D::ParticleEmitter</title>
<!-- Node1 -->
<g id="node1" class="node"><title>Node1</title>
<polygon fill="#bfbfbf" stroke="black" points="1240.5,-348.497 1240.5,-369.497 1369.5,-369.497 1369.5,-348.497 1240.5,-348.497"/>
<text text-anchor="middle" x="1305" y="-356.497" font-family="FreeSans" font-size="10.00">Urho3D::ParticleEmitter</text>
</g>
<!-- Node2 -->
<g id="node2" class="node"><title>Node2</title>
<a xlink:href="class_urho3_d_1_1_billboard_set.html" target="_top" xlink:title="Billboard component.">
<polygon fill="none" stroke="black" points="1084.5,-218.497 1084.5,-239.497 1201.5,-239.497 1201.5,-218.497 1084.5,-218.497"/>
<text text-anchor="middle" x="1143" y="-226.497" font-family="FreeSans" font-size="10.00">Urho3D::BillboardSet</text>
</a>
</g>
<!-- Node2&#45;&gt;Node1 -->
<g id="edge2" class="edge"><title>Node2&#45;&gt;Node1</title>
<path fill="none" stroke="midnightblue" d="M1164.14,-245.962C1197.99,-273.123 1263.39,-325.609 1291.56,-348.212"/>
<polygon fill="midnightblue" stroke="midnightblue" points="1166.25,-243.165 1156.26,-239.636 1161.87,-248.624 1166.25,-243.165"/>
</g>
<!-- Node3 -->
<g id="node4" class="node"><title>Node3</title>
<a xlink:href="class_urho3_d_1_1_drawable.html" target="_top" xlink:title="Base class for visible components.">
<polygon fill="none" stroke="black" points="809,-513.497 809,-534.497 913,-534.497 913,-513.497 809,-513.497"/>
<text text-anchor="middle" x="861" y="-521.497" font-family="FreeSans" font-size="10.00">Urho3D::Drawable</text>
</a>
</g>
<!-- Node3&#45;&gt;Node2 -->
<g id="edge4" class="edge"><title>Node3&#45;&gt;Node2</title>
<path fill="none" stroke="midnightblue" d="M880.858,-506.612C894.381,-494.606 912.558,-478.136 928,-462.997 936.306,-454.854 935.979,-449.904 946,-443.997 993.454,-416.026 1027.45,-452.34 1066,-412.997 1090.3,-388.205 1071.57,-369.407 1084,-336.997 1098.46,-299.295 1123.73,-258.396 1135.96,-239.571"/>
<polygon fill="midnightblue" stroke="midnightblue" points="878.284,-504.215 873.106,-513.459 882.918,-509.462 878.284,-504.215"/>
</g>
<!-- Node6 -->
<g id="node10" class="node"><title>Node6</title>
<a xlink:href="class_urho3_d_1_1_zone.html" target="_top" xlink:title="Component that describes global rendering properties.">
<polygon fill="none" stroke="red" points="1100.5,-560.497 1100.5,-581.497 1185.5,-581.497 1185.5,-560.497 1100.5,-560.497"/>
<text text-anchor="middle" x="1143" y="-568.497" font-family="FreeSans" font-size="10.00">Urho3D::Zone</text>
</a>
</g>
<!-- Node3&#45;&gt;Node6 -->
<g id="edge12" class="edge"><title>Node3&#45;&gt;Node6</title>
<path fill="none" stroke="midnightblue" d="M883.143,-540.355C899.562,-551.42 922.993,-565.06 946,-570.997 997.827,-584.372 1059.91,-581.394 1100.34,-577.059"/>
<polygon fill="midnightblue" stroke="midnightblue" points="884.997,-537.381 874.79,-534.538 880.996,-543.125 884.997,-537.381"/>
</g>
<!-- Node13 -->
<g id="node28" class="node"><title>Node13</title>
<a xlink:href="class_urho3_d_1_1_light.html" target="_top" xlink:title="Light component.">
<polygon fill="none" stroke="red" points="1101.5,-449.497 1101.5,-470.497 1184.5,-470.497 1184.5,-449.497 1101.5,-449.497"/>
<text text-anchor="middle" x="1143" y="-457.497" font-family="FreeSans" font-size="10.00">Urho3D::Light</text>
</a>
</g>
<!-- Node3&#45;&gt;Node13 -->
<g id="edge34" class="edge"><title>Node3&#45;&gt;Node13</title>
<path fill="none" stroke="midnightblue" d="M923.588,-527.775C965.018,-528.343 1019.99,-525.35 1066,-509.997 1091.4,-501.522 1116.62,-482.637 1130.96,-470.655"/>
<polygon fill="midnightblue" stroke="midnightblue" points="923.433,-524.271 913.361,-527.559 923.285,-531.27 923.433,-524.271"/>
</g>
<!-- Node4 -->
<g id="node6" class="node"><title>Node4</title>
<a xlink:href="class_urho3_d_1_1_component.html" target="_top" xlink:title="Base class for components. Components can be created to scene nodes.">
<polygon fill="none" stroke="red" points="487,-364.497 487,-385.497 603,-385.497 603,-364.497 487,-364.497"/>
<text text-anchor="middle" x="545" y="-372.497" font-family="FreeSans" font-size="10.00">Urho3D::Component</text>
</a>
</g>
<!-- Node4&#45;&gt;Node3 -->
<g id="edge6" class="edge"><title>Node4&#45;&gt;Node3</title>
<path fill="none" stroke="midnightblue" d="M613.206,-369.799C663.565,-369.646 730.913,-377.653 776,-414.997 793.547,-429.531 781.22,-444.135 794,-462.997 808.118,-483.834 830.76,-502.453 845.757,-513.487"/>
<polygon fill="midnightblue" stroke="midnightblue" points="613.003,-366.301 603.052,-369.939 613.1,-373.3 613.003,-366.301"/>
</g>
<!-- Node5 -->
<g id="node8" class="node"><title>Node5</title>
<a xlink:href="class_urho3_d_1_1_hash_set.html" target="_top" xlink:title="Urho3D::HashSet\&lt; Urho3D\l::Camera * \&gt;">
<polygon fill="none" stroke="red" points="470.5,-653.997 470.5,-687.997 619.5,-687.997 619.5,-653.997 470.5,-653.997"/>
<text text-anchor="start" x="478.5" y="-674.997" font-family="FreeSans" font-size="10.00">Urho3D::HashSet&lt; Urho3D</text>
<text text-anchor="middle" x="545" y="-661.997" font-family="FreeSans" font-size="10.00">::Camera * &gt;</text>
</a>
</g>
<!-- Node5&#45;&gt;Node3 -->
<g id="edge8" class="edge"><title>Node5&#45;&gt;Node3</title>
<path fill="none" stroke="#9a32cd" stroke-dasharray="5,2" d="M605.212,-650.454C610.227,-648.643 615.208,-646.809 620,-644.997 690.097,-618.491 709.877,-616.267 776,-580.997 802.337,-566.949 830.713,-546.791 847.11,-534.593"/>
<polygon fill="#9a32cd" stroke="#9a32cd" points="603.808,-647.239 595.567,-653.898 606.162,-653.831 603.808,-647.239"/>
<text text-anchor="middle" x="707" y="-640.997" font-family="FreeSans" font-size="10.00"> viewCameras_</text>
</g>
<!-- Node6&#45;&gt;Node3 -->
<g id="edge10" class="edge"><title>Node6&#45;&gt;Node3</title>
<path fill="none" stroke="#9a32cd" stroke-dasharray="5,2" d="M1090.13,-562.051C1082.05,-560.689 1073.8,-559.303 1066,-557.997 1014.05,-549.304 954.679,-539.468 913.247,-532.62"/>
<polygon fill="#9a32cd" stroke="#9a32cd" points="1089.8,-565.543 1100.24,-563.755 1090.96,-558.641 1089.8,-565.543"/>
<text text-anchor="middle" x="1006" y="-561.997" font-family="FreeSans" font-size="10.00"> zone_</text>
</g>
<!-- Node7 -->
<g id="node13" class="node"><title>Node7</title>
<a xlink:href="class_urho3_d_1_1_bounding_box.html" target="_top" xlink:title="Three&#45;dimensional axis&#45;aligned bounding box.">
<polygon fill="none" stroke="black" points="218,-618.497 218,-639.497 340,-639.497 340,-618.497 218,-618.497"/>
<text text-anchor="middle" x="279" y="-626.497" font-family="FreeSans" font-size="10.00">Urho3D::BoundingBox</text>
</a>
</g>
<!-- Node7&#45;&gt;Node3 -->
<g id="edge38" class="edge"><title>Node7&#45;&gt;Node3</title>
<path fill="none" stroke="#9a32cd" stroke-dasharray="5,2" d="M303.013,-612.918C337.986,-590.522 405.783,-550.898 470,-534.997 588.323,-505.698 732.948,-512.079 808.819,-518.508"/>
<polygon fill="#9a32cd" stroke="#9a32cd" points="300.93,-610.098 294.45,-618.48 304.743,-615.968 300.93,-610.098"/>
<text text-anchor="middle" x="545" y="-551.997" font-family="FreeSans" font-size="10.00"> worldBoundingBox_</text>
<text text-anchor="middle" x="545" y="-538.997" font-family="FreeSans" font-size="10.00">boundingBox_</text>
</g>
<!-- Node7&#45;&gt;Node6 -->
<g id="edge14" class="edge"><title>Node7&#45;&gt;Node6</title>
<path fill="none" stroke="#9a32cd" stroke-dasharray="5,2" d="M310.239,-643.877C347.341,-660.654 411.574,-686.907 470,-696.997 725.064,-741.047 1033.13,-619 1119.5,-581.546"/>
<polygon fill="#9a32cd" stroke="#9a32cd" points="311.515,-640.612 300.966,-639.625 308.597,-646.975 311.515,-640.612"/>
<text text-anchor="middle" x="707" y="-707.997" font-family="FreeSans" font-size="10.00"> lastWorldBoundingBox_</text>
</g>
<!-- Node14 -->
<g id="node33" class="node"><title>Node14</title>
<a xlink:href="class_urho3_d_1_1_octant.html" target="_top" xlink:title="Octree octant">
<polygon fill="none" stroke="red" points="499,-570.497 499,-591.497 591,-591.497 591,-570.497 499,-570.497"/>
<text text-anchor="middle" x="545" y="-578.497" font-family="FreeSans" font-size="10.00">Urho3D::Octant</text>
</a>
</g>
<!-- Node7&#45;&gt;Node14 -->
<g id="edge44" class="edge"><title>Node7&#45;&gt;Node14</title>
<path fill="none" stroke="#9a32cd" stroke-dasharray="5,2" d="M347.279,-616.676C394.788,-608.103 456.867,-596.901 498.687,-589.355"/>
<polygon fill="#9a32cd" stroke="#9a32cd" points="346.594,-613.243 337.375,-618.463 347.837,-620.132 346.594,-613.243"/>
<text text-anchor="middle" x="405" y="-629.997" font-family="FreeSans" font-size="10.00"> cullingBox_</text>
<text text-anchor="middle" x="405" y="-616.997" font-family="FreeSans" font-size="10.00">worldBoundingBox_</text>
</g>
<!-- Node8 -->
<g id="node15" class="node"><title>Node8</title>
<a xlink:href="class_urho3_d_1_1_vector3.html" target="_top" xlink:title="Three&#45;dimensional vector.">
<polygon fill="none" stroke="black" points="4,-660.497 4,-681.497 100,-681.497 100,-660.497 4,-660.497"/>
<text text-anchor="middle" x="52" y="-668.497" font-family="FreeSans" font-size="10.00">Urho3D::Vector3</text>
</a>
</g>
<!-- Node8&#45;&gt;Node2 -->
<g id="edge64" class="edge"><title>Node8&#45;&gt;Node2</title>
<path fill="none" stroke="#9a32cd" stroke-dasharray="5,2" d="M54.3883,-650.14C67.8832,-537.205 139.01,-3.99721 279,-3.99721 279,-3.99721 279,-3.99721 861,-3.99721 953.663,-3.99721 994.049,16.3939 1066,-41.9972 1123.8,-88.9005 1138.67,-186.363 1142.08,-218.48"/>
<polygon fill="#9a32cd" stroke="#9a32cd" points="50.8913,-649.91 53.2014,-660.25 57.8436,-650.726 50.8913,-649.91"/>
<text text-anchor="middle" x="545" y="-20.9972" font-family="FreeSans" font-size="10.00"> previousOffset_</text>
<text text-anchor="middle" x="545" y="-7.99721" font-family="FreeSans" font-size="10.00">faceCameraAxes_</text>
</g>
<!-- Node8&#45;&gt;Node7 -->
<g id="edge16" class="edge"><title>Node8&#45;&gt;Node7</title>
<path fill="none" stroke="#9a32cd" stroke-dasharray="5,2" d="M110.051,-660.257C144.464,-653.889 187.894,-645.854 222.103,-639.524"/>
<polygon fill="#9a32cd" stroke="#9a32cd" points="109.337,-656.829 100.141,-662.09 110.611,-663.712 109.337,-656.829"/>
<text text-anchor="middle" x="161" y="-673.997" font-family="FreeSans" font-size="10.00"> max_</text>
<text text-anchor="middle" x="161" y="-660.997" font-family="FreeSans" font-size="10.00">min_</text>
</g>
<!-- Node8&#45;&gt;Node8 -->
<g id="edge18" class="edge"><title>Node8&#45;&gt;Node8</title>
<path fill="none" stroke="#9a32cd" stroke-dasharray="5,2" d="M32.0968,-691.424C33.6322,-696.346 40.2666,-699.997 52,-699.997 70.7734,-699.997 76.4935,-690.65 69.1601,-681.705"/>
<polygon fill="#9a32cd" stroke="#9a32cd" points="35.4918,-692.28 34.8399,-681.705 28.755,-690.378 35.4918,-692.28"/>
<text text-anchor="middle" x="52" y="-794.997" font-family="FreeSans" font-size="10.00"> ONE</text>
<text text-anchor="middle" x="52" y="-781.997" font-family="FreeSans" font-size="10.00">DOWN</text>
<text text-anchor="middle" x="52" y="-768.997" font-family="FreeSans" font-size="10.00">BACK</text>
<text text-anchor="middle" x="52" y="-755.997" font-family="FreeSans" font-size="10.00">RIGHT</text>
<text text-anchor="middle" x="52" y="-742.997" font-family="FreeSans" font-size="10.00">LEFT</text>
<text text-anchor="middle" x="52" y="-729.997" font-family="FreeSans" font-size="10.00">ZERO</text>
<text text-anchor="middle" x="52" y="-716.997" font-family="FreeSans" font-size="10.00">FORWARD</text>
<text text-anchor="middle" x="52" y="-703.997" font-family="FreeSans" font-size="10.00">UP</text>
</g>
<!-- Node8&#45;&gt;Node14 -->
<g id="edge42" class="edge"><title>Node8&#45;&gt;Node14</title>
<path fill="none" stroke="#9a32cd" stroke-dasharray="5,2" d="M108.238,-683.246C112.877,-683.951 117.508,-684.552 122,-684.997 269.13,-699.566 314.51,-697.367 452,-642.997 483.759,-630.438 515.807,-605.843 532.735,-591.698"/>
<polygon fill="#9a32cd" stroke="#9a32cd" points="108.559,-679.751 98.1199,-681.559 107.408,-686.656 108.559,-679.751"/>
<text text-anchor="middle" x="279" y="-708.997" font-family="FreeSans" font-size="10.00"> center_</text>
<text text-anchor="middle" x="279" y="-695.997" font-family="FreeSans" font-size="10.00">halfSize_</text>
</g>
<!-- Node25 -->
<g id="node63" class="node"><title>Node25</title>
<a xlink:href="class_urho3_d_1_1_particle_effect.html" target="_top" xlink:title="Particle effect definition.">
<polygon fill="none" stroke="red" points="218.5,-743.497 218.5,-764.497 339.5,-764.497 339.5,-743.497 218.5,-743.497"/>
<text text-anchor="middle" x="279" y="-751.497" font-family="FreeSans" font-size="10.00">Urho3D::ParticleEffect</text>
</a>
</g>
<!-- Node8&#45;&gt;Node25 -->
<g id="edge80" class="edge"><title>Node8&#45;&gt;Node25</title>
<path fill="none" stroke="#9a32cd" stroke-dasharray="5,2" d="M75.3613,-687.317C88.5624,-695.937 105.652,-706.125 122,-712.997 154.462,-726.643 192.655,-736.738 223.242,-743.496"/>
<polygon fill="#9a32cd" stroke="#9a32cd" points="77.1585,-684.308 66.9002,-681.659 73.2674,-690.127 77.1585,-684.308"/>
<text text-anchor="middle" x="161" y="-779.997" font-family="FreeSans" font-size="10.00"> constantForce_</text>
<text text-anchor="middle" x="161" y="-766.997" font-family="FreeSans" font-size="10.00">directionMax_</text>
<text text-anchor="middle" x="161" y="-753.997" font-family="FreeSans" font-size="10.00">emitterSize_</text>
<text text-anchor="middle" x="161" y="-740.997" font-family="FreeSans" font-size="10.00">directionMin_</text>
</g>
<!-- Node9 -->
<g id="node18" class="node"><title>Node9</title>
<a xlink:href="class_urho3_d_1_1_matrix3x4.html" target="_top" xlink:title="3x4 matrix for scene node transform calculations.">
<polygon fill="none" stroke="black" points="808,-388.497 808,-409.497 914,-409.497 914,-388.497 808,-388.497"/>
<text text-anchor="middle" x="861" y="-396.497" font-family="FreeSans" font-size="10.00">Urho3D::Matrix3x4</text>
</a>
</g>
<!-- Node9&#45;&gt;Node2 -->
<g id="edge70" class="edge"><title>Node9&#45;&gt;Node2</title>
<path fill="none" stroke="#9a32cd" stroke-dasharray="5,2" d="M875.765,-380.141C891.203,-361.862 917.169,-334.915 946,-320.997 994.628,-297.522 1017.56,-325.867 1066,-301.997 1096.4,-287.014 1122.88,-255.857 1135.37,-239.517"/>
<polygon fill="#9a32cd" stroke="#9a32cd" points="872.693,-378.369 869.065,-388.324 878.109,-382.804 872.693,-378.369"/>
<text text-anchor="middle" x="1006" y="-324.997" font-family="FreeSans" font-size="10.00"> transforms_</text>
</g>
<!-- Node9&#45;&gt;Node6 -->
<g id="edge20" class="edge"><title>Node9&#45;&gt;Node6</title>
<path fill="none" stroke="#9a32cd" stroke-dasharray="5,2" d="M877.924,-417.21C894.115,-433.79 919.873,-458.045 946,-473.997 994.887,-503.845 1015.05,-494.822 1066,-520.997 1088.97,-532.797 1113.7,-549.686 1128.77,-560.497"/>
<polygon fill="#9a32cd" stroke="#9a32cd" points="880.229,-414.557 870.784,-409.758 875.174,-419.4 880.229,-414.557"/>
<text text-anchor="middle" x="1006" y="-524.997" font-family="FreeSans" font-size="10.00"> inverseWorld_</text>
</g>
<!-- Node9&#45;&gt;Node9 -->
<g id="edge22" class="edge"><title>Node9&#45;&gt;Node9</title>
<path fill="none" stroke="#9a32cd" stroke-dasharray="5,2" d="M834.322,-419.052C836.072,-424.161 844.964,-427.997 861,-427.997 886.031,-427.997 893.658,-418.65 883.88,-409.705"/>
<polygon fill="#9a32cd" stroke="#9a32cd" points="837.598,-420.287 838.12,-409.705 831.113,-417.652 837.598,-420.287"/>
<text text-anchor="middle" x="861" y="-444.997" font-family="FreeSans" font-size="10.00"> IDENTITY</text>
<text text-anchor="middle" x="861" y="-431.997" font-family="FreeSans" font-size="10.00">ZERO</text>
</g>
<!-- Node9&#45;&gt;Node13 -->
<g id="edge36" class="edge"><title>Node9&#45;&gt;Node13</title>
<path fill="none" stroke="#9a32cd" stroke-dasharray="5,2" d="M924.244,-402.103C965.273,-405.312 1019.55,-411.821 1066,-424.997 1086.63,-430.848 1108.77,-441.409 1123.99,-449.405"/>
<polygon fill="#9a32cd" stroke="#9a32cd" points="924.341,-398.601 914.111,-401.356 923.826,-405.582 924.341,-398.601"/>
<text text-anchor="middle" x="1006" y="-428.997" font-family="FreeSans" font-size="10.00"> volumeTransform_</text>
</g>
<!-- Node10 -->
<g id="node21" class="node"><title>Node10</title>
<a xlink:href="class_urho3_d_1_1_p_o_d_vector.html" target="_top" xlink:title="Urho3D::PODVector\&lt;\l Urho3D::Light * \&gt;">
<polygon fill="none" stroke="black" points="485.5,-403.997 485.5,-437.997 604.5,-437.997 604.5,-403.997 485.5,-403.997"/>
<text text-anchor="start" x="493.5" y="-424.997" font-family="FreeSans" font-size="10.00">Urho3D::PODVector&lt;</text>
<text text-anchor="middle" x="545" y="-411.997" font-family="FreeSans" font-size="10.00"> Urho3D::Light * &gt;</text>
</a>
</g>
<!-- Node10&#45;&gt;Node3 -->
<g id="edge24" class="edge"><title>Node10&#45;&gt;Node3</title>
<path fill="none" stroke="#9a32cd" stroke-dasharray="5,2" d="M614.694,-418.815C662.092,-419.831 725.181,-426.193 776,-448.997 780.354,-450.951 826.923,-493.015 849.224,-513.275"/>
<polygon fill="#9a32cd" stroke="#9a32cd" points="614.573,-415.313 604.525,-418.673 614.475,-422.312 614.573,-415.313"/>
<text text-anchor="middle" x="707" y="-465.997" font-family="FreeSans" font-size="10.00"> vertexLights_</text>
<text text-anchor="middle" x="707" y="-452.997" font-family="FreeSans" font-size="10.00">lights_</text>
</g>
<!-- Node11 -->
<g id="node23" class="node"><title>Node11</title>
<a xlink:href="class_urho3_d_1_1_vector_base.html" target="_top" xlink:title="Vector base class.">
<polygon fill="none" stroke="black" points="222,-325.497 222,-346.497 336,-346.497 336,-325.497 222,-325.497"/>
<text text-anchor="middle" x="279" y="-333.497" font-family="FreeSans" font-size="10.00">Urho3D::VectorBase</text>
</a>
</g>
<!-- Node11&#45;&gt;Node10 -->
<g id="edge26" class="edge"><title>Node11&#45;&gt;Node10</title>
<path fill="none" stroke="midnightblue" d="M321.577,-349.603C367.731,-364.351 441.478,-387.917 491.509,-403.904"/>
<polygon fill="midnightblue" stroke="midnightblue" points="322.474,-346.215 311.884,-346.505 320.344,-352.883 322.474,-346.215"/>
</g>
<!-- Node12 -->
<g id="node25" class="node"><title>Node12</title>
<a xlink:href="class_urho3_d_1_1_vector.html" target="_top" xlink:title="Urho3D::Vector\&lt; Urho3D\l::SourceBatch \&gt;">
<polygon fill="none" stroke="black" points="476,-455.997 476,-489.997 614,-489.997 614,-455.997 476,-455.997"/>
<text text-anchor="start" x="484" y="-476.997" font-family="FreeSans" font-size="10.00">Urho3D::Vector&lt; Urho3D</text>
<text text-anchor="middle" x="545" y="-463.997" font-family="FreeSans" font-size="10.00">::SourceBatch &gt;</text>
</a>
</g>
<!-- Node11&#45;&gt;Node12 -->
<g id="edge30" class="edge"><title>Node11&#45;&gt;Node12</title>
<path fill="none" stroke="midnightblue" d="M301.265,-352.793C316.785,-364.174 338.181,-379.227 358,-390.997 405.851,-419.415 418.711,-425.393 470,-446.997 477.366,-450.1 485.244,-453.132 493.024,-455.965"/>
<polygon fill="midnightblue" stroke="midnightblue" points="302.982,-349.708 292.863,-346.568 298.815,-355.333 302.982,-349.708"/>
</g>
<!-- Node15 -->
<g id="node38" class="node"><title>Node15</title>
<a xlink:href="class_urho3_d_1_1_vector.html" target="_top" xlink:title="Urho3D::Vector\&lt; Urho3D\l::Billboard * \&gt;">
<polygon fill="none" stroke="black" points="638,-66.9972 638,-100.997 776,-100.997 776,-66.9972 638,-66.9972"/>
<text text-anchor="start" x="646" y="-87.9972" font-family="FreeSans" font-size="10.00">Urho3D::Vector&lt; Urho3D</text>
<text text-anchor="middle" x="707" y="-74.9972" font-family="FreeSans" font-size="10.00">::Billboard * &gt;</text>
</a>
</g>
<!-- Node11&#45;&gt;Node15 -->
<g id="edge50" class="edge"><title>Node11&#45;&gt;Node15</title>
<path fill="none" stroke="midnightblue" d="M290.712,-316.725C304.53,-295.334 329.291,-260.942 358,-238.997 448.201,-170.05 573.896,-123.986 647.234,-101.043"/>
<polygon fill="midnightblue" stroke="midnightblue" points="287.688,-314.958 285.319,-325.285 293.611,-318.69 287.688,-314.958"/>
</g>
<!-- Node19 -->
<g id="node47" class="node"><title>Node19</title>
<a xlink:href="class_urho3_d_1_1_p_o_d_vector.html" target="_top" xlink:title="Urho3D::PODVector\&lt;\l Urho3D::Billboard \&gt;">
<polygon fill="none" stroke="black" points="647.5,-204.997 647.5,-238.997 766.5,-238.997 766.5,-204.997 647.5,-204.997"/>
<text text-anchor="start" x="655.5" y="-225.997" font-family="FreeSans" font-size="10.00">Urho3D::PODVector&lt;</text>
<text text-anchor="middle" x="707" y="-212.997" font-family="FreeSans" font-size="10.00"> Urho3D::Billboard &gt;</text>
</a>
</g>
<!-- Node11&#45;&gt;Node19 -->
<g id="edge60" class="edge"><title>Node11&#45;&gt;Node19</title>
<path fill="none" stroke="midnightblue" d="M302.423,-319.725C337.168,-296.579 405.247,-254.967 470,-236.997 528.796,-220.681 598.821,-218.217 647.44,-219.042"/>
<polygon fill="midnightblue" stroke="midnightblue" points="300.262,-316.961 293.933,-325.458 304.18,-322.762 300.262,-316.961"/>
</g>
<!-- Node23 -->
<g id="node58" class="node"><title>Node23</title>
<a xlink:href="class_urho3_d_1_1_p_o_d_vector.html" target="_top" xlink:title="Urho3D::PODVector\&lt;\l Urho3D::Particle \&gt;">
<polygon fill="none" stroke="black" points="946.5,-341.997 946.5,-375.997 1065.5,-375.997 1065.5,-341.997 946.5,-341.997"/>
<text text-anchor="start" x="954.5" y="-362.997" font-family="FreeSans" font-size="10.00">Urho3D::PODVector&lt;</text>
<text text-anchor="middle" x="1006" y="-349.997" font-family="FreeSans" font-size="10.00"> Urho3D::Particle &gt;</text>
</a>
</g>
<!-- Node11&#45;&gt;Node23 -->
<g id="edge74" class="edge"><title>Node11&#45;&gt;Node23</title>
<path fill="none" stroke="midnightblue" d="M346.29,-338.126C487.409,-342.591 812.322,-352.87 946.434,-357.113"/>
<polygon fill="midnightblue" stroke="midnightblue" points="346.152,-334.62 336.046,-337.802 345.931,-341.617 346.152,-334.62"/>
</g>
<!-- Node12&#45;&gt;Node3 -->
<g id="edge28" class="edge"><title>Node12&#45;&gt;Node3</title>
<path fill="none" stroke="#9a32cd" stroke-dasharray="5,2" d="M624.462,-478.506C669.261,-482.468 726.086,-488.928 776,-498.997 794.094,-502.647 813.901,-508.369 829.841,-513.417"/>
<polygon fill="#9a32cd" stroke="#9a32cd" points="624.484,-474.995 614.221,-477.625 623.884,-481.97 624.484,-474.995"/>
<text text-anchor="middle" x="707" y="-502.997" font-family="FreeSans" font-size="10.00"> batches_</text>
</g>
<!-- Node13&#45;&gt;Node3 -->
<g id="edge32" class="edge"><title>Node13&#45;&gt;Node3</title>
<path fill="none" stroke="#9a32cd" stroke-dasharray="5,2" d="M1091.48,-451.665C1050.88,-447.117 993.415,-445.208 946,-460.997 914.631,-471.443 885.352,-498.346 870.732,-513.399"/>
<polygon fill="#9a32cd" stroke="#9a32cd" points="1091.07,-455.141 1101.42,-452.869 1091.91,-448.192 1091.07,-455.141"/>
<text text-anchor="middle" x="1006" y="-464.997" font-family="FreeSans" font-size="10.00"> firstLight_</text>
</g>
<!-- Node14&#45;&gt;Node3 -->
<g id="edge40" class="edge"><title>Node14&#45;&gt;Node3</title>
<path fill="none" stroke="#9a32cd" stroke-dasharray="5,2" d="M600.984,-571.228C647.784,-563.022 716.276,-550.918 776,-539.997 786.635,-538.052 798.012,-535.936 808.871,-533.898"/>
<polygon fill="#9a32cd" stroke="#9a32cd" points="600.291,-567.797 591.045,-572.97 601.499,-574.692 600.291,-567.797"/>
<text text-anchor="middle" x="707" y="-567.997" font-family="FreeSans" font-size="10.00"> octant_</text>
</g>
<!-- Node14&#45;&gt;Node14 -->
<g id="edge46" class="edge"><title>Node14&#45;&gt;Node14</title>
<path fill="none" stroke="#9a32cd" stroke-dasharray="5,2" d="M519.063,-601.052C520.764,-606.161 529.41,-609.997 545,-609.997 569.336,-609.997 576.751,-600.65 567.245,-591.705"/>
<polygon fill="#9a32cd" stroke="#9a32cd" points="522.336,-602.292 522.755,-591.705 515.826,-599.72 522.336,-602.292"/>
<text text-anchor="middle" x="545" y="-626.997" font-family="FreeSans" font-size="10.00"> parent_</text>
<text text-anchor="middle" x="545" y="-613.997" font-family="FreeSans" font-size="10.00">children_</text>
</g>
<!-- Node15&#45;&gt;Node2 -->
<g id="edge48" class="edge"><title>Node15&#45;&gt;Node2</title>
<path fill="none" stroke="#9a32cd" stroke-dasharray="5,2" d="M767.401,-64.3035C776.238,-62.1074 785.294,-60.2233 794,-58.9972 915.264,-41.9198 969.668,-27.3887 1066,-102.997 1106.53,-134.812 1130.89,-194.343 1139.48,-218.454"/>
<polygon fill="#9a32cd" stroke="#9a32cd" points="766.327,-60.9669 757.547,-66.8969 768.109,-67.7363 766.327,-60.9669"/>
<text text-anchor="middle" x="861" y="-62.9972" font-family="FreeSans" font-size="10.00"> sortedBillboards_</text>
</g>
<!-- Node16 -->
<g id="node41" class="node"><title>Node16</title>
<a xlink:href="class_urho3_d_1_1_vector_buffer.html" target="_top" xlink:title="Dynamically sized buffer that can be read and written to as a stream.">
<polygon fill="none" stroke="red" points="801.5,-286.497 801.5,-307.497 920.5,-307.497 920.5,-286.497 801.5,-286.497"/>
<text text-anchor="middle" x="861" y="-294.497" font-family="FreeSans" font-size="10.00">Urho3D::VectorBuffer</text>
</a>
</g>
<!-- Node16&#45;&gt;Node2 -->
<g id="edge52" class="edge"><title>Node16&#45;&gt;Node2</title>
<path fill="none" stroke="#9a32cd" stroke-dasharray="5,2" d="M930.565,-288.721C979.803,-282.437 1041.3,-273.611 1066,-265.997 1087.12,-259.487 1109.74,-248.021 1124.96,-239.574"/>
<polygon fill="#9a32cd" stroke="#9a32cd" points="930.061,-285.256 920.578,-289.982 930.938,-292.201 930.061,-285.256"/>
<text text-anchor="middle" x="1006" y="-289.997" font-family="FreeSans" font-size="10.00"> attrBuffer_</text>
</g>
<!-- Node17 -->
<g id="node43" class="node"><title>Node17</title>
<a xlink:href="class_urho3_d_1_1_deserializer.html" target="_top" xlink:title="Abstract stream for reading.">
<polygon fill="none" stroke="black" points="487,-286.497 487,-307.497 603,-307.497 603,-286.497 487,-286.497"/>
<text text-anchor="middle" x="545" y="-294.497" font-family="FreeSans" font-size="10.00">Urho3D::Deserializer</text>
</a>
</g>
<!-- Node17&#45;&gt;Node16 -->
<g id="edge54" class="edge"><title>Node17&#45;&gt;Node16</title>
<path fill="none" stroke="midnightblue" d="M613.516,-296.997C669.538,-296.997 747.952,-296.997 801.403,-296.997"/>
<polygon fill="midnightblue" stroke="midnightblue" points="613.328,-293.497 603.328,-296.997 613.327,-300.497 613.328,-293.497"/>
</g>
<!-- Node18 -->
<g id="node45" class="node"><title>Node18</title>
<a xlink:href="class_urho3_d_1_1_serializer.html" target="_top" xlink:title="Abstract stream for writing.">
<polygon fill="none" stroke="black" points="493,-246.497 493,-267.497 597,-267.497 597,-246.497 493,-246.497"/>
<text text-anchor="middle" x="545" y="-254.497" font-family="FreeSans" font-size="10.00">Urho3D::Serializer</text>
</a>
</g>
<!-- Node18&#45;&gt;Node16 -->
<g id="edge56" class="edge"><title>Node18&#45;&gt;Node16</title>
<path fill="none" stroke="midnightblue" d="M607.384,-264.894C663.716,-272.025 746.035,-282.445 801.467,-289.461"/>
<polygon fill="midnightblue" stroke="midnightblue" points="607.541,-261.386 597.181,-263.602 606.662,-268.331 607.541,-261.386"/>
</g>
<!-- Node19&#45;&gt;Node2 -->
<g id="edge58" class="edge"><title>Node19&#45;&gt;Node2</title>
<path fill="none" stroke="#9a32cd" stroke-dasharray="5,2" d="M777.156,-226.855C782.855,-227.243 788.524,-227.628 794,-227.997 914.697,-236.129 945.234,-245.031 1066,-237.997 1071.91,-237.653 1078.07,-237.161 1084.21,-236.583"/>
<polygon fill="#9a32cd" stroke="#9a32cd" points="777.119,-223.344 766.903,-226.153 776.641,-230.328 777.119,-223.344"/>
<text text-anchor="middle" x="861" y="-241.997" font-family="FreeSans" font-size="10.00"> billboards_</text>
</g>
<!-- Node20 -->
<g id="node50" class="node"><title>Node20</title>
<a xlink:href="class_urho3_d_1_1_shared_ptr.html" target="_top" xlink:title="Urho3D::SharedPtr\&lt;\l Urho3D::IndexBuffer \&gt;">
<polygon fill="none" stroke="red" points="797,-184.997 797,-218.997 925,-218.997 925,-184.997 797,-184.997"/>
<text text-anchor="start" x="805" y="-205.997" font-family="FreeSans" font-size="10.00">Urho3D::SharedPtr&lt;</text>
<text text-anchor="middle" x="861" y="-192.997" font-family="FreeSans" font-size="10.00"> Urho3D::IndexBuffer &gt;</text>
</a>
</g>
<!-- Node20&#45;&gt;Node2 -->
<g id="edge62" class="edge"><title>Node20&#45;&gt;Node2</title>
<path fill="none" stroke="#9a32cd" stroke-dasharray="5,2" d="M935.37,-209.118C981.892,-213.572 1040.98,-219.229 1084.22,-223.369"/>
<polygon fill="#9a32cd" stroke="#9a32cd" points="935.631,-205.627 925.343,-208.158 934.964,-212.595 935.631,-205.627"/>
<text text-anchor="middle" x="1006" y="-224.997" font-family="FreeSans" font-size="10.00"> indexBuffer_</text>
</g>
<!-- Node21 -->
<g id="node53" class="node"><title>Node21</title>
<a xlink:href="class_urho3_d_1_1_shared_ptr.html" target="_top" xlink:title="Urho3D::SharedPtr\&lt;\l Urho3D::Geometry \&gt;">
<polygon fill="none" stroke="red" points="800,-132.997 800,-166.997 922,-166.997 922,-132.997 800,-132.997"/>
<text text-anchor="start" x="808" y="-153.997" font-family="FreeSans" font-size="10.00">Urho3D::SharedPtr&lt;</text>
<text text-anchor="middle" x="861" y="-140.997" font-family="FreeSans" font-size="10.00"> Urho3D::Geometry &gt;</text>
</a>
</g>
<!-- Node21&#45;&gt;Node2 -->
<g id="edge66" class="edge"><title>Node21&#45;&gt;Node2</title>
<path fill="none" stroke="#9a32cd" stroke-dasharray="5,2" d="M931.996,-160.732C971.959,-167.801 1022.43,-178.461 1066,-192.997 1086.3,-199.77 1108.3,-210.42 1123.57,-218.382"/>
<polygon fill="#9a32cd" stroke="#9a32cd" points="932.523,-157.271 922.072,-159.012 931.328,-164.168 932.523,-157.271"/>
<text text-anchor="middle" x="1006" y="-196.997" font-family="FreeSans" font-size="10.00"> geometry_</text>
</g>
<!-- Node22 -->
<g id="node55" class="node"><title>Node22</title>
<a xlink:href="class_urho3_d_1_1_shared_ptr.html" target="_top" xlink:title="Urho3D::SharedPtr\&lt;\l Urho3D::VertexBuffer \&gt;">
<polygon fill="none" stroke="red" points="794.5,-80.9972 794.5,-114.997 927.5,-114.997 927.5,-80.9972 794.5,-80.9972"/>
<text text-anchor="start" x="802.5" y="-101.997" font-family="FreeSans" font-size="10.00">Urho3D::SharedPtr&lt;</text>
<text text-anchor="middle" x="861" y="-88.9972" font-family="FreeSans" font-size="10.00"> Urho3D::VertexBuffer &gt;</text>
</a>
</g>
<!-- Node22&#45;&gt;Node2 -->
<g id="edge68" class="edge"><title>Node22&#45;&gt;Node2</title>
<path fill="none" stroke="#9a32cd" stroke-dasharray="5,2" d="M937.91,-105.631C978.168,-112.202 1027.05,-124.397 1066,-146.997 1097.59,-165.324 1124.11,-200.63 1136.12,-218.331"/>
<polygon fill="#9a32cd" stroke="#9a32cd" points="938.289,-102.148 927.872,-104.078 937.219,-109.066 938.289,-102.148"/>
<text text-anchor="middle" x="1006" y="-150.997" font-family="FreeSans" font-size="10.00"> vertexBuffer_</text>
</g>
<!-- Node23&#45;&gt;Node1 -->
<g id="edge72" class="edge"><title>Node23&#45;&gt;Node1</title>
<path fill="none" stroke="#9a32cd" stroke-dasharray="5,2" d="M1075.82,-358.997C1125.54,-358.997 1191.89,-358.997 1240.4,-358.997"/>
<polygon fill="#9a32cd" stroke="#9a32cd" points="1075.79,-355.497 1065.79,-358.997 1075.79,-362.497 1075.79,-355.497"/>
<text text-anchor="middle" x="1143" y="-362.997" font-family="FreeSans" font-size="10.00"> particles_</text>
</g>
<!-- Node24 -->
<g id="node61" class="node"><title>Node24</title>
<a xlink:href="class_urho3_d_1_1_shared_ptr.html" target="_top" xlink:title="Urho3D::SharedPtr\&lt;\l Urho3D::ParticleEffect \&gt;">
<polygon fill="none" stroke="black" points="639.5,-736.997 639.5,-770.997 774.5,-770.997 774.5,-736.997 639.5,-736.997"/>
<text text-anchor="start" x="647.5" y="-757.997" font-family="FreeSans" font-size="10.00">Urho3D::SharedPtr&lt;</text>
<text text-anchor="middle" x="707" y="-744.997" font-family="FreeSans" font-size="10.00"> Urho3D::ParticleEffect &gt;</text>
</a>
</g>
<!-- Node24&#45;&gt;Node1 -->
<g id="edge76" class="edge"><title>Node24&#45;&gt;Node1</title>
<path fill="none" stroke="#9a32cd" stroke-dasharray="5,2" d="M785.044,-764.279C860.517,-770.744 976.315,-771.295 1066,-729.997 1223.63,-657.412 1289.42,-422.846 1302.49,-369.75"/>
<polygon fill="#9a32cd" stroke="#9a32cd" points="784.946,-760.756 774.669,-763.331 784.309,-767.727 784.946,-760.756"/>
<text text-anchor="middle" x="1006" y="-765.997" font-family="FreeSans" font-size="10.00"> effect_</text>
</g>
<!-- Node25&#45;&gt;Node24 -->
<g id="edge78" class="edge"><title>Node25&#45;&gt;Node24</title>
<path fill="none" stroke="#9a32cd" stroke-dasharray="5,2" d="M349.896,-753.997C430.243,-753.997 560.272,-753.997 639.281,-753.997"/>
<polygon fill="#9a32cd" stroke="#9a32cd" points="349.867,-750.497 339.867,-753.997 349.867,-757.497 349.867,-750.497"/>
<text text-anchor="middle" x="405" y="-757.997" font-family="FreeSans" font-size="10.00"> ptr_</text>
</g>
</g>
</svg>
        <g id="navigator" transform="translate(0 0)" fill="#404254">
                <rect fill="#f2f5e9" fill-opacity="0.5" stroke="#606060" stroke-width=".5" x="0" y="0" width="60" height="60"/>
                <use id="zoomplus" xlink:href="#zoomPlus" x="17" y="9" onmousedown="handleZoom(evt,'in')"/>
                <use id="zoomminus" xlink:href="#zoomMin" x="42" y="9" onmousedown="handleZoom(evt,'out')"/>
                <use id="reset" xlink:href="#resetDef" x="30" y="36" onmousedown="handleReset()"/>
                <g id="arrowUp" xlink:href="#dirArrow" transform="translate(30 24)" onmousedown="handlePan(0,-1)">
                  <use xlink:href="#rim" fill="#404040">
                        <set attributeName="fill" to="#808080" begin="arrowUp.mouseover" end="arrowUp.mouseout"/>
                  </use>
                  <path fill="none" stroke="white" stroke-width="1.5" d="M0,-3.0v7 M-2.5,-0.5L0,-3.0L2.5,-0.5"/>
                </g>
                <g id="arrowRight" xlink:href="#dirArrow" transform="rotate(90) translate(36 -43)" onmousedown="handlePan(1,0)">
                  <use xlink:href="#rim" fill="#404040">
                        <set attributeName="fill" to="#808080" begin="arrowRight.mouseover" end="arrowRight.mouseout"/>
                  </use>
                  <path fill="none" stroke="white" stroke-width="1.5" d="M0,-3.0v7 M-2.5,-0.5L0,-3.0L2.5,-0.5"/>
                </g>
                <g id="arrowDown" xlink:href="#dirArrow" transform="rotate(180) translate(-30 -48)" onmousedown="handlePan(0,1)">
                  <use xlink:href="#rim" fill="#404040">
                        <set attributeName="fill" to="#808080" begin="arrowDown.mouseover" end="arrowDown.mouseout"/>
                  </use>
                  <path fill="none" stroke="white" stroke-width="1.5" d="M0,-3.0v7 M-2.5,-0.5L0,-3.0L2.5,-0.5"/>
                </g>
                <g id="arrowLeft" xlink:href="#dirArrow" transform="rotate(270) translate(-36 17)" onmousedown="handlePan(-1,0)">
                  <use xlink:href="#rim" fill="#404040">
                        <set attributeName="fill" to="#808080" begin="arrowLeft.mouseover" end="arrowLeft.mouseout"/>
                  </use>
                  <path fill="none" stroke="white" stroke-width="1.5" d="M0,-3.0v7 M-2.5,-0.5L0,-3.0L2.5,-0.5"/>
                </g>
        </g>
        <svg viewBox="0 0 15 15" width="100%" height="30px" preserveAspectRatio="xMaxYMin meet">
         <g id="arrow_out" transform="scale(0.3 0.3)">
          <a xlink:href="class_urho3_d_1_1_particle_emitter__coll__graph_org.svg" target="_base">
           <rect id="button" ry="5" rx="5" y="6" x="6" height="38" width="38"
                fill="#f2f5e9" fill-opacity="0.5" stroke="#606060" stroke-width="1.0"/>
           <path id="arrow"
             d="M 11.500037,31.436501 C 11.940474,20.09759 22.043105,11.32322 32.158766,21.979434 L 37.068811,17.246167 C 37.068811,17.246167 37.088388,32 37.088388,32 L 22.160133,31.978069 C 22.160133,31.978069 26.997745,27.140456 26.997745,27.140456 C 18.528582,18.264221 13.291696,25.230495 11.500037,31.436501 z"
             style="fill:#404040;"/>
          </a>
         </g>
        </svg>
</svg>
