<?xml version="1.0" encoding="UTF-8" standalone="no"?>
<!DOCTYPE svg PUBLIC "-//W3C//DTD SVG 1.1//EN"
 "http://www.w3.org/Graphics/SVG/1.1/DTD/svg11.dtd">
<!-- Generated by graphviz version 2.26.3 (20100126.1600)
 -->
<!-- Title: Urho3D::Animation2D Pages: 1 -->
<!--zoomable 700 -->
<svg id="main" version="1.1" xmlns="http://www.w3.org/2000/svg" xmlns:xlink="http://www.w3.org/1999/xlink" xml:space="preserve" onload="init(evt)">
        <defs>
                <circle id="rim" cx="0" cy="0" r="7"/>
                <circle id="rim2" cx="0" cy="0" r="3.5"/>
                <g id="zoomPlus">
                        <use xlink:href="#rim" fill="#404040">
                                <set attributeName="fill" to="#808080" begin="zoomplus.mouseover" end="zoomplus.mouseout"/>
                        </use>
                        <path d="M-4,0h8M0,-4v8" fill="none" stroke="white" stroke-width="1.5" pointer-events="none"/>
                </g>
                <g id="zoomMin">
                        <use xlink:href="#rim" fill="#404040">
                                <set attributeName="fill" to="#808080" begin="zoomminus.mouseover" end="zoomminus.mouseout"/>
                        </use>
                        <path d="M-4,0h8" fill="none" stroke="white" stroke-width="1.5" pointer-events="none"/>
                </g>
                <g id="dirArrow">
                        <path fill="none" stroke="white" stroke-width="1.5" d="M0,-3.0v7 M-2.5,-0.5L0,-3.0L2.5,-0.5"/>
                </g>
               <g id="resetDef">
                       <use xlink:href="#rim2" fill="#404040">
                               <set attributeName="fill" to="#808080" begin="reset.mouseover" end="reset.mouseout"/>
                       </use>
               </g>
        </defs>

<script type="text/javascript">
var viewWidth = 2168;
var viewHeight = 700;
var sectionId = 'dynsection-1';
</script>
<script xlink:href="svgpan.js"/>
<svg id="graph" class="graph">
<g id="viewport">
<title>Urho3D::Animation2D</title>
<!-- Node1 -->
<g id="node1" class="node"><title>Node1</title>
<polygon fill="#bfbfbf" stroke="black" points="2038,-251.5 2038,-272.5 2160,-272.5 2160,-251.5 2038,-251.5"/>
<text text-anchor="middle" x="2099" y="-259.5" font-family="FreeSans" font-size="10.00">Urho3D::Animation2D</text>
</g>
<!-- Node2 -->
<g id="node2" class="node"><title>Node2</title>
<a xlink:href="class_urho3_d_1_1_ref_counted.html" target="_top" xlink:title="Base class for intrusively reference&#45;counted objects. These are noncopyable and non&#45;assignable.">
<polygon fill="none" stroke="black" points="198,-521.5 198,-542.5 312,-542.5 312,-521.5 198,-521.5"/>
<text text-anchor="middle" x="255" y="-529.5" font-family="FreeSans" font-size="10.00">Urho3D::RefCounted</text>
</a>
</g>
<!-- Node2&#45;&gt;Node1 -->
<g id="edge2" class="edge"><title>Node2&#45;&gt;Node1</title>
<path fill="none" stroke="midnightblue" d="M267.257,-551.129C296.132,-593.592 372.978,-692 465,-692 465,-692 465,-692 1855,-692 2054.14,-692 2092.73,-338.846 2098.22,-272.629"/>
<polygon fill="midnightblue" stroke="midnightblue" points="270.137,-549.139 261.688,-542.746 264.306,-553.013 270.137,-549.139"/>
</g>
<!-- Node9 -->
<g id="node16" class="node"><title>Node9</title>
<a xlink:href="class_urho3_d_1_1_object.html" target="_top" xlink:title="Base class for objects with type identification, subsystem access and event sending/receiving capabil...">
<polygon fill="none" stroke="black" points="420,-561.5 420,-582.5 510,-582.5 510,-561.5 420,-561.5"/>
<text text-anchor="middle" x="465" y="-569.5" font-family="FreeSans" font-size="10.00">Urho3D::Object</text>
</a>
</g>
<!-- Node2&#45;&gt;Node9 -->
<g id="edge18" class="edge"><title>Node2&#45;&gt;Node9</title>
<path fill="none" stroke="midnightblue" d="M320.004,-544.382C352.343,-550.542 390.635,-557.835 419.744,-563.38"/>
<polygon fill="midnightblue" stroke="midnightblue" points="320.653,-540.943 310.175,-542.51 319.343,-547.819 320.653,-540.943"/>
</g>
<!-- Node10 -->
<g id="node19" class="node"><title>Node10</title>
<a xlink:href="class_urho3_d_1_1_context.html" target="_top" xlink:title="Urho3D execution context. Provides access to subsystems, object factories and attributes, and event receivers.">
<polygon fill="none" stroke="red" points="1082.5,-490.5 1082.5,-511.5 1179.5,-511.5 1179.5,-490.5 1082.5,-490.5"/>
<text text-anchor="middle" x="1131" y="-498.5" font-family="FreeSans" font-size="10.00">Urho3D::Context</text>
</a>
</g>
<!-- Node2&#45;&gt;Node10 -->
<g id="edge22" class="edge"><title>Node2&#45;&gt;Node10</title>
<path fill="none" stroke="midnightblue" d="M322.119,-527.983C379.858,-524.644 465.39,-519.973 540,-517 741.275,-508.98 981.272,-503.853 1082.34,-501.897"/>
<polygon fill="midnightblue" stroke="midnightblue" points="321.807,-524.495 312.027,-528.57 322.214,-531.484 321.807,-524.495"/>
</g>
<!-- Node3 -->
<g id="node4" class="node"><title>Node3</title>
<a xlink:href="struct_urho3_d_1_1_ref_count.html" target="_top" xlink:title="Reference count structure.">
<polygon fill="none" stroke="black" points="0,-191.5 0,-212.5 102,-212.5 102,-191.5 0,-191.5"/>
<text text-anchor="middle" x="51" y="-199.5" font-family="FreeSans" font-size="10.00">Urho3D::RefCount</text>
</a>
</g>
<!-- Node3&#45;&gt;Node2 -->
<g id="edge4" class="edge"><title>Node3&#45;&gt;Node2</title>
<path fill="none" stroke="#9a32cd" stroke-dasharray="5,2" d="M55.9593,-222.498C69.2817,-273.861 110.215,-409.963 188,-494 198.991,-505.875 214.56,-515.014 227.924,-521.35"/>
<polygon fill="#9a32cd" stroke="#9a32cd" points="59.3063,-221.456 53.469,-212.614 52.5184,-223.166 59.3063,-221.456"/>
<text text-anchor="middle" x="145" y="-471" font-family="FreeSans" font-size="10.00"> refCount_</text>
</g>
<!-- Node6 -->
<g id="node10" class="node"><title>Node6</title>
<a xlink:href="class_urho3_d_1_1_weak_ptr.html" target="_top" xlink:title="Urho3D::WeakPtr\&lt; Urho3D\l::AnimationSet2D \&gt;">
<polygon fill="none" stroke="black" points="1782,-177 1782,-211 1928,-211 1928,-177 1782,-177"/>
<text text-anchor="start" x="1790" y="-198" font-family="FreeSans" font-size="10.00">Urho3D::WeakPtr&lt; Urho3D</text>
<text text-anchor="middle" x="1855" y="-185" font-family="FreeSans" font-size="10.00">::AnimationSet2D &gt;</text>
</a>
</g>
<!-- Node3&#45;&gt;Node6 -->
<g id="edge78" class="edge"><title>Node3&#45;&gt;Node6</title>
<path fill="none" stroke="#9a32cd" stroke-dasharray="5,2" d="M67.2989,-183.879C99.5532,-150.122 175.325,-81 255,-81 255,-81 255,-81 1655,-81 1731.97,-81 1806.56,-145.226 1838.61,-176.838"/>
<polygon fill="#9a32cd" stroke="#9a32cd" points="64.6704,-181.566 60.401,-191.262 69.7854,-186.344 64.6704,-181.566"/>
<text text-anchor="middle" x="935" y="-85" font-family="FreeSans" font-size="10.00"> refCount_</text>
</g>
<!-- Node4 -->
<g id="node6" class="node"><title>Node4</title>
<a xlink:href="class_urho3_d_1_1_vector.html" target="_top" xlink:title="Urho3D::Vector\&lt; Urho3D\l::AnimationTrack2D \&gt;">
<polygon fill="none" stroke="black" points="1222,-268 1222,-302 1360,-302 1360,-268 1222,-268"/>
<text text-anchor="start" x="1230" y="-289" font-family="FreeSans" font-size="10.00">Urho3D::Vector&lt; Urho3D</text>
<text text-anchor="middle" x="1291" y="-276" font-family="FreeSans" font-size="10.00">::AnimationTrack2D &gt;</text>
</a>
</g>
<!-- Node4&#45;&gt;Node1 -->
<g id="edge6" class="edge"><title>Node4&#45;&gt;Node1</title>
<path fill="none" stroke="#9a32cd" stroke-dasharray="5,2" d="M1370.43,-285C1419.33,-285 1483.3,-285 1540,-285 1540,-285 1540,-285 1855,-285 1917.55,-285 1988.72,-277.416 2037.98,-270.958"/>
<polygon fill="#9a32cd" stroke="#9a32cd" points="1370.23,-281.5 1360.23,-285 1370.23,-288.5 1370.23,-281.5"/>
<text text-anchor="middle" x="1655" y="-289" font-family="FreeSans" font-size="10.00"> tracks_</text>
</g>
<!-- Node5 -->
<g id="node8" class="node"><title>Node5</title>
<a xlink:href="class_urho3_d_1_1_vector_base.html" target="_top" xlink:title="Vector base class.">
<polygon fill="none" stroke="black" points="408,-271.5 408,-292.5 522,-292.5 522,-271.5 408,-271.5"/>
<text text-anchor="middle" x="465" y="-279.5" font-family="FreeSans" font-size="10.00">Urho3D::VectorBase</text>
</a>
</g>
<!-- Node5&#45;&gt;Node4 -->
<g id="edge8" class="edge"><title>Node5&#45;&gt;Node4</title>
<path fill="none" stroke="midnightblue" d="M532.395,-282.245C686.968,-282.806 1065.69,-284.182 1221.9,-284.749"/>
<polygon fill="midnightblue" stroke="midnightblue" points="532.113,-278.744 522.1,-282.207 532.087,-285.744 532.113,-278.744"/>
</g>
<!-- Node11 -->
<g id="node22" class="node"><title>Node11</title>
<a xlink:href="class_urho3_d_1_1_p_o_d_vector.html" target="_top" xlink:title="Urho3D::PODVector\&lt;\l Urho3D::Object * \&gt;">
<polygon fill="none" stroke="black" points="656.5,-310 656.5,-344 775.5,-344 775.5,-310 656.5,-310"/>
<text text-anchor="start" x="664.5" y="-331" font-family="FreeSans" font-size="10.00">Urho3D::PODVector&lt;</text>
<text text-anchor="middle" x="716" y="-318" font-family="FreeSans" font-size="10.00"> Urho3D::Object * &gt;</text>
</a>
</g>
<!-- Node5&#45;&gt;Node11 -->
<g id="edge26" class="edge"><title>Node5&#45;&gt;Node11</title>
<path fill="none" stroke="midnightblue" d="M530.938,-294.347C534,-294.909 537.033,-295.462 540,-296 578.618,-303.005 622.045,-310.657 656.099,-316.605"/>
<polygon fill="midnightblue" stroke="midnightblue" points="531.564,-290.904 521.096,-292.536 530.297,-297.788 531.564,-290.904"/>
</g>
<!-- Node22 -->
<g id="node53" class="node"><title>Node22</title>
<a xlink:href="class_urho3_d_1_1_vector.html" target="_top" xlink:title="Urho3D::Vector\&lt; Urho3D\l::SharedPtr\&lt; Urho3D::Animation2D \&gt; \&gt;">
<polygon fill="none" stroke="black" points="830.5,-183 830.5,-217 1039.5,-217 1039.5,-183 830.5,-183"/>
<text text-anchor="start" x="838.5" y="-204" font-family="FreeSans" font-size="10.00">Urho3D::Vector&lt; Urho3D</text>
<text text-anchor="middle" x="935" y="-191" font-family="FreeSans" font-size="10.00">::SharedPtr&lt; Urho3D::Animation2D &gt; &gt;</text>
</a>
</g>
<!-- Node5&#45;&gt;Node22 -->
<g id="edge66" class="edge"><title>Node5&#45;&gt;Node22</title>
<path fill="none" stroke="midnightblue" d="M483.725,-264.753C498.008,-252.724 518.78,-237.531 540,-230 634.304,-196.533 749.008,-191.418 830.461,-193.237"/>
<polygon fill="midnightblue" stroke="midnightblue" points="481.351,-262.179 476.111,-271.388 485.95,-267.457 481.351,-262.179"/>
</g>
<!-- Node6&#45;&gt;Node1 -->
<g id="edge10" class="edge"><title>Node6&#45;&gt;Node1</title>
<path fill="none" stroke="#9a32cd" stroke-dasharray="5,2" d="M1926.09,-213.811C1970.29,-226.131 2025.37,-241.48 2061.32,-251.499"/>
<polygon fill="#9a32cd" stroke="#9a32cd" points="1926.83,-210.385 1916.26,-211.071 1924.95,-217.128 1926.83,-210.385"/>
<text text-anchor="middle" x="1983" y="-242" font-family="FreeSans" font-size="10.00"> animationSet_</text>
</g>
<!-- Node7 -->
<g id="node12" class="node"><title>Node7</title>
<a xlink:href="class_urho3_d_1_1_animation_set2_d.html" target="_top" xlink:title="Spriter animation set, it includes one or more animations, for more information please refer to http:...">
<polygon fill="none" stroke="black" points="1586,-183.5 1586,-204.5 1724,-204.5 1724,-183.5 1586,-183.5"/>
<text text-anchor="middle" x="1655" y="-191.5" font-family="FreeSans" font-size="10.00">Urho3D::AnimationSet2D</text>
</a>
</g>
<!-- Node7&#45;&gt;Node6 -->
<g id="edge12" class="edge"><title>Node7&#45;&gt;Node6</title>
<path fill="none" stroke="#9a32cd" stroke-dasharray="5,2" d="M1734.29,-194C1749.96,-194 1766.34,-194 1781.8,-194"/>
<polygon fill="#9a32cd" stroke="#9a32cd" points="1734.11,-190.5 1724.11,-194 1734.11,-197.5 1734.11,-190.5"/>
<text text-anchor="middle" x="1753" y="-198" font-family="FreeSans" font-size="10.00"> ptr_</text>
</g>
<!-- Node8 -->
<g id="node14" class="node"><title>Node8</title>
<a xlink:href="class_urho3_d_1_1_resource.html" target="_top" xlink:title="Base class for resources.">
<polygon fill="none" stroke="black" points="664.5,-153.5 664.5,-174.5 767.5,-174.5 767.5,-153.5 664.5,-153.5"/>
<text text-anchor="middle" x="716" y="-161.5" font-family="FreeSans" font-size="10.00">Urho3D::Resource</text>
</a>
</g>
<!-- Node8&#45;&gt;Node7 -->
<g id="edge14" class="edge"><title>Node8&#45;&gt;Node7</title>
<path fill="none" stroke="midnightblue" d="M777.878,-153.613C910.331,-133.194 1230.68,-93.5128 1494,-138 1545.21,-146.652 1601.87,-169.76 1632.44,-183.437"/>
<polygon fill="midnightblue" stroke="midnightblue" points="777.253,-150.168 767.912,-155.168 778.332,-157.085 777.253,-150.168"/>
</g>
<!-- Node25 -->
<g id="node61" class="node"><title>Node25</title>
<a xlink:href="class_urho3_d_1_1_x_m_l_file.html" target="_top" xlink:title="XML document resource.">
<polygon fill="none" stroke="black" points="1084,-153.5 1084,-174.5 1178,-174.5 1178,-153.5 1084,-153.5"/>
<text text-anchor="middle" x="1131" y="-161.5" font-family="FreeSans" font-size="10.00">Urho3D::XMLFile</text>
</a>
</g>
<!-- Node8&#45;&gt;Node25 -->
<g id="edge76" class="edge"><title>Node8&#45;&gt;Node25</title>
<path fill="none" stroke="midnightblue" d="M777.834,-164C861.382,-164 1008.51,-164 1083.76,-164"/>
<polygon fill="midnightblue" stroke="midnightblue" points="777.721,-160.5 767.721,-164 777.721,-167.5 777.721,-160.5"/>
</g>
<!-- Node9&#45;&gt;Node8 -->
<g id="edge16" class="edge"><title>Node9&#45;&gt;Node8</title>
<path fill="none" stroke="midnightblue" d="M480.877,-553.058C513.419,-513.89 585.974,-424.677 602,-389 618.358,-352.584 604.216,-337.668 620,-301 642.392,-248.981 686.372,-196.72 706.06,-174.768"/>
<polygon fill="midnightblue" stroke="midnightblue" points="477.937,-551.119 474.222,-561.041 483.314,-555.601 477.937,-551.119"/>
</g>
<!-- Node12 -->
<g id="node25" class="node"><title>Node12</title>
<a xlink:href="class_urho3_d_1_1_event_handler.html" target="_top" xlink:title="Internal helper class for invoking event handler functions.">
<polygon fill="none" stroke="red" points="654,-544.5 654,-565.5 778,-565.5 778,-544.5 654,-544.5"/>
<text text-anchor="middle" x="716" y="-552.5" font-family="FreeSans" font-size="10.00">Urho3D::EventHandler</text>
</a>
</g>
<!-- Node9&#45;&gt;Node12 -->
<g id="edge30" class="edge"><title>Node9&#45;&gt;Node12</title>
<path fill="none" stroke="#9a32cd" stroke-dasharray="5,2" d="M520.391,-568.248C559.822,-565.578 612.85,-561.986 653.746,-559.216"/>
<polygon fill="#9a32cd" stroke="#9a32cd" points="519.904,-564.773 510.164,-568.941 520.377,-571.757 519.904,-564.773"/>
<text text-anchor="middle" x="571" y="-583" font-family="FreeSans" font-size="10.00"> sender_</text>
<text text-anchor="middle" x="571" y="-570" font-family="FreeSans" font-size="10.00">receiver_</text>
</g>
<!-- Node10&#45;&gt;Node9 -->
<g id="edge20" class="edge"><title>Node10&#45;&gt;Node9</title>
<path fill="none" stroke="#9a32cd" stroke-dasharray="5,2" d="M1113.55,-519.043C1096.5,-535.35 1068.96,-558.375 1040,-569 948.45,-602.59 699.472,-592.999 602,-596 574.457,-596.848 567.226,-600.25 540,-596 523.386,-593.406 505.423,-587.765 491.243,-582.603"/>
<polygon fill="#9a32cd" stroke="#9a32cd" points="1116.37,-521.175 1121.03,-511.662 1111.45,-516.191 1116.37,-521.175"/>
<text text-anchor="middle" x="716" y="-599" font-family="FreeSans" font-size="10.00"> context_</text>
</g>
<!-- Node11&#45;&gt;Node10 -->
<g id="edge24" class="edge"><title>Node11&#45;&gt;Node10</title>
<path fill="none" stroke="#9a32cd" stroke-dasharray="5,2" d="M786.09,-324.833C855.362,-325.815 961.995,-335.975 1040,-383 1084.31,-409.713 1114.93,-466.708 1126.2,-490.366"/>
<polygon fill="#9a32cd" stroke="#9a32cd" points="785.754,-321.331 775.726,-324.751 785.698,-328.33 785.754,-321.331"/>
<text text-anchor="middle" x="935" y="-387" font-family="FreeSans" font-size="10.00"> eventSenders_</text>
</g>
<!-- Node12&#45;&gt;Node10 -->
<g id="edge28" class="edge"><title>Node12&#45;&gt;Node10</title>
<path fill="none" stroke="#9a32cd" stroke-dasharray="5,2" d="M788.388,-554.192C854.478,-552.328 954.589,-546.671 1040,-530 1061.81,-525.744 1085.72,-517.997 1103.56,-511.581"/>
<polygon fill="#9a32cd" stroke="#9a32cd" points="787.987,-550.701 778.081,-554.46 788.168,-557.699 787.987,-550.701"/>
<text text-anchor="middle" x="935" y="-556" font-family="FreeSans" font-size="10.00"> eventHandler_</text>
</g>
<!-- Node19 -->
<g id="node44" class="node"><title>Node19</title>
<a xlink:href="class_urho3_d_1_1_linked_list.html" target="_top" xlink:title="Urho3D::LinkedList\l\&lt; Urho3D::EventHandler \&gt;">
<polygon fill="none" stroke="black" points="1058,-618 1058,-652 1204,-652 1204,-618 1058,-618"/>
<text text-anchor="start" x="1066" y="-639" font-family="FreeSans" font-size="10.00">Urho3D::LinkedList</text>
<text text-anchor="middle" x="1131" y="-626" font-family="FreeSans" font-size="10.00">&lt; Urho3D::EventHandler &gt;</text>
</a>
</g>
<!-- Node12&#45;&gt;Node19 -->
<g id="edge54" class="edge"><title>Node12&#45;&gt;Node19</title>
<path fill="none" stroke="#9a32cd" stroke-dasharray="5,2" d="M780.942,-567.519C855.994,-581.987 979.212,-605.74 1057.66,-620.861"/>
<polygon fill="#9a32cd" stroke="#9a32cd" points="781.163,-563.997 770.681,-565.541 779.837,-570.871 781.163,-563.997"/>
<text text-anchor="middle" x="935" y="-619" font-family="FreeSans" font-size="10.00"> head_</text>
</g>
<!-- Node13 -->
<g id="node28" class="node"><title>Node13</title>
<a xlink:href="class_urho3_d_1_1_string_hash.html" target="_top" xlink:title="32&#45;bit hash value for a string.">
<polygon fill="none" stroke="black" points="408.5,-422.5 408.5,-443.5 521.5,-443.5 521.5,-422.5 408.5,-422.5"/>
<text text-anchor="middle" x="465" y="-430.5" font-family="FreeSans" font-size="10.00">Urho3D::StringHash</text>
</a>
</g>
<!-- Node13&#45;&gt;Node8 -->
<g id="edge62" class="edge"><title>Node13&#45;&gt;Node8</title>
<path fill="none" stroke="#9a32cd" stroke-dasharray="5,2" d="M492.301,-417.043C502.113,-410.741 512.976,-403.077 522,-395 605.506,-320.251 684.966,-209.052 708.791,-174.577"/>
<polygon fill="#9a32cd" stroke="#9a32cd" points="490.306,-414.161 483.669,-422.419 494.007,-420.103 490.306,-414.161"/>
<text text-anchor="middle" x="571" y="-376" font-family="FreeSans" font-size="10.00"> nameHash_</text>
</g>
<!-- Node13&#45;&gt;Node12 -->
<g id="edge32" class="edge"><title>Node13&#45;&gt;Node12</title>
<path fill="none" stroke="#9a32cd" stroke-dasharray="5,2" d="M495.844,-447.992C547.395,-473.048 649.79,-522.818 694.394,-544.498"/>
<polygon fill="#9a32cd" stroke="#9a32cd" points="497.359,-444.837 486.836,-443.613 494.299,-451.133 497.359,-444.837"/>
<text text-anchor="middle" x="571" y="-501" font-family="FreeSans" font-size="10.00"> eventType_</text>
</g>
<!-- Node13&#45;&gt;Node13 -->
<g id="edge34" class="edge"><title>Node13&#45;&gt;Node13</title>
<path fill="none" stroke="#9a32cd" stroke-dasharray="5,2" d="M446.571,-453.427C447.993,-458.349 454.136,-462 465,-462 482.383,-462 487.679,-452.653 480.889,-443.708"/>
<polygon fill="#9a32cd" stroke="#9a32cd" points="449.969,-454.268 449.111,-443.708 443.196,-452.498 449.969,-454.268"/>
<text text-anchor="middle" x="465" y="-466" font-family="FreeSans" font-size="10.00"> ZERO</text>
</g>
<!-- Node14 -->
<g id="node31" class="node"><title>Node14</title>
<a xlink:href="class_urho3_d_1_1_hash_map.html" target="_top" xlink:title="Urho3D::HashMap\&lt; Urho3D\l::StringHash, Urho3D::\lHashSet\&lt; Urho3D::Object * \&gt; \&gt;">
<polygon fill="none" stroke="black" points="629.5,-362.5 629.5,-409.5 802.5,-409.5 802.5,-362.5 629.5,-362.5"/>
<text text-anchor="start" x="637.5" y="-396.5" font-family="FreeSans" font-size="10.00">Urho3D::HashMap&lt; Urho3D</text>
<text text-anchor="start" x="637.5" y="-383.5" font-family="FreeSans" font-size="10.00">::StringHash, Urho3D::</text>
<text text-anchor="middle" x="716" y="-370.5" font-family="FreeSans" font-size="10.00">HashSet&lt; Urho3D::Object * &gt; &gt;</text>
</a>
</g>
<!-- Node14&#45;&gt;Node10 -->
<g id="edge36" class="edge"><title>Node14&#45;&gt;Node10</title>
<path fill="none" stroke="#9a32cd" stroke-dasharray="5,2" d="M812.448,-397.503C878.004,-407.206 965.933,-423.946 1040,-451 1067.94,-461.205 1097.67,-479.026 1115.27,-490.406"/>
<polygon fill="#9a32cd" stroke="#9a32cd" points="812.933,-394.037 802.534,-396.064 811.927,-400.964 812.933,-394.037"/>
<text text-anchor="middle" x="935" y="-455" font-family="FreeSans" font-size="10.00"> eventReceivers_</text>
</g>
<!-- Node15 -->
<g id="node33" class="node"><title>Node15</title>
<a xlink:href="class_urho3_d_1_1_hash_base.html" target="_top" xlink:title="Hash set/map base class.">
<polygon fill="none" stroke="black" points="411,-364.5 411,-385.5 519,-385.5 519,-364.5 411,-364.5"/>
<text text-anchor="middle" x="465" y="-372.5" font-family="FreeSans" font-size="10.00">Urho3D::HashBase</text>
</a>
</g>
<!-- Node15&#45;&gt;Node14 -->
<g id="edge38" class="edge"><title>Node15&#45;&gt;Node14</title>
<path fill="none" stroke="midnightblue" d="M529.221,-377.814C559.668,-379.149 596.493,-380.763 629.37,-382.203"/>
<polygon fill="midnightblue" stroke="midnightblue" points="529.298,-374.315 519.154,-377.373 528.991,-381.308 529.298,-374.315"/>
</g>
<!-- Node18 -->
<g id="node41" class="node"><title>Node18</title>
<a xlink:href="class_urho3_d_1_1_hash_map.html" target="_top" xlink:title="Urho3D::HashMap\&lt; Urho3D\l::Object *, Urho3D::HashMap\l\&lt; Urho3D::StringHash, Urho3D\l::HashSet\&lt; Urho3D::Object * \&gt; \&gt; \&gt;">
<polygon fill="none" stroke="black" points="620.5,-428 620.5,-488 811.5,-488 811.5,-428 620.5,-428"/>
<text text-anchor="start" x="628.5" y="-475" font-family="FreeSans" font-size="10.00">Urho3D::HashMap&lt; Urho3D</text>
<text text-anchor="start" x="628.5" y="-462" font-family="FreeSans" font-size="10.00">::Object *, Urho3D::HashMap</text>
<text text-anchor="start" x="628.5" y="-449" font-family="FreeSans" font-size="10.00">&lt; Urho3D::StringHash, Urho3D</text>
<text text-anchor="middle" x="716" y="-436" font-family="FreeSans" font-size="10.00">::HashSet&lt; Urho3D::Object * &gt; &gt; &gt;</text>
</a>
</g>
<!-- Node15&#45;&gt;Node18 -->
<g id="edge50" class="edge"><title>Node15&#45;&gt;Node18</title>
<path fill="none" stroke="midnightblue" d="M515.415,-388.171C541.445,-395.269 573.614,-404.504 602,-414 614.675,-418.24 628.015,-423.058 640.926,-427.913"/>
<polygon fill="midnightblue" stroke="midnightblue" points="516.328,-384.792 505.761,-385.56 514.5,-391.55 516.328,-384.792"/>
</g>
<!-- Node23 -->
<g id="node56" class="node"><title>Node23</title>
<a xlink:href="class_urho3_d_1_1_hash_map.html" target="_top" xlink:title="Urho3D::HashMap\&lt; unsigned,\l Urho3D::SharedPtr\&lt; Urho3D\l::Sprite2D \&gt; \&gt;">
<polygon fill="none" stroke="black" points="854,-222.5 854,-269.5 1016,-269.5 1016,-222.5 854,-222.5"/>
<text text-anchor="start" x="862" y="-256.5" font-family="FreeSans" font-size="10.00">Urho3D::HashMap&lt; unsigned,</text>
<text text-anchor="start" x="862" y="-243.5" font-family="FreeSans" font-size="10.00"> Urho3D::SharedPtr&lt; Urho3D</text>
<text text-anchor="middle" x="935" y="-230.5" font-family="FreeSans" font-size="10.00">::Sprite2D &gt; &gt;</text>
</a>
</g>
<!-- Node15&#45;&gt;Node23 -->
<g id="edge70" class="edge"><title>Node15&#45;&gt;Node23</title>
<path fill="none" stroke="midnightblue" d="M491.995,-359.31C522.209,-342.425 573.094,-315.981 620,-301 697.474,-276.256 789.435,-261.821 853.931,-253.999"/>
<polygon fill="midnightblue" stroke="midnightblue" points="489.924,-356.46 482.942,-364.43 493.37,-362.553 489.924,-356.46"/>
</g>
<!-- Node16 -->
<g id="node35" class="node"><title>Node16</title>
<a xlink:href="struct_urho3_d_1_1_hash_node_base.html" target="_top" xlink:title="Hash set/map node base class.">
<polygon fill="none" stroke="black" points="188,-406.5 188,-427.5 322,-427.5 322,-406.5 188,-406.5"/>
<text text-anchor="middle" x="255" y="-414.5" font-family="FreeSans" font-size="10.00">Urho3D::HashNodeBase</text>
</a>
</g>
<!-- Node16&#45;&gt;Node15 -->
<g id="edge40" class="edge"><title>Node16&#45;&gt;Node15</title>
<path fill="none" stroke="#9a32cd" stroke-dasharray="5,2" d="M317.707,-404.459C347.837,-398.433 383.546,-391.291 412.258,-385.548"/>
<polygon fill="#9a32cd" stroke="#9a32cd" points="316.84,-401.063 307.721,-406.456 318.213,-407.927 316.84,-401.063"/>
<text text-anchor="middle" x="365" y="-429" font-family="FreeSans" font-size="10.00"> ptrs_</text>
<text text-anchor="middle" x="365" y="-416" font-family="FreeSans" font-size="10.00">tail_</text>
<text text-anchor="middle" x="365" y="-403" font-family="FreeSans" font-size="10.00">head_</text>
</g>
<!-- Node16&#45;&gt;Node16 -->
<g id="edge42" class="edge"><title>Node16&#45;&gt;Node16</title>
<path fill="none" stroke="#9a32cd" stroke-dasharray="5,2" d="M234.728,-437.427C236.292,-442.349 243.049,-446 255,-446 274.121,-446 279.947,-436.653 272.478,-427.708"/>
<polygon fill="#9a32cd" stroke="#9a32cd" points="238.123,-438.286 237.522,-427.708 231.395,-436.352 238.123,-438.286"/>
<text text-anchor="middle" x="255" y="-476" font-family="FreeSans" font-size="10.00"> next_</text>
<text text-anchor="middle" x="255" y="-463" font-family="FreeSans" font-size="10.00">prev_</text>
<text text-anchor="middle" x="255" y="-450" font-family="FreeSans" font-size="10.00">down_</text>
</g>
<!-- Node17 -->
<g id="node38" class="node"><title>Node17</title>
<a xlink:href="struct_urho3_d_1_1_allocator_block.html" target="_top" xlink:title="Allocator memory block.">
<polygon fill="none" stroke="red" points="191.5,-335.5 191.5,-356.5 318.5,-356.5 318.5,-335.5 191.5,-335.5"/>
<text text-anchor="middle" x="255" y="-343.5" font-family="FreeSans" font-size="10.00">Urho3D::AllocatorBlock</text>
</a>
</g>
<!-- Node17&#45;&gt;Node15 -->
<g id="edge44" class="edge"><title>Node17&#45;&gt;Node15</title>
<path fill="none" stroke="#9a32cd" stroke-dasharray="5,2" d="M328.674,-351.559C348.632,-353.483 370.192,-355.944 390,-359 399.605,-360.482 409.831,-362.42 419.543,-364.433"/>
<polygon fill="#9a32cd" stroke="#9a32cd" points="328.994,-348.074 318.712,-350.629 328.343,-355.043 328.994,-348.074"/>
<text text-anchor="middle" x="365" y="-363" font-family="FreeSans" font-size="10.00"> allocator_</text>
</g>
<!-- Node17&#45;&gt;Node17 -->
<g id="edge46" class="edge"><title>Node17&#45;&gt;Node17</title>
<path fill="none" stroke="#9a32cd" stroke-dasharray="5,2" d="M234.728,-366.427C236.292,-371.349 243.049,-375 255,-375 274.121,-375 279.947,-365.653 272.478,-356.708"/>
<polygon fill="#9a32cd" stroke="#9a32cd" points="238.123,-367.286 237.522,-356.708 231.395,-365.352 238.123,-367.286"/>
<text text-anchor="middle" x="255" y="-379" font-family="FreeSans" font-size="10.00"> next_</text>
</g>
<!-- Node18&#45;&gt;Node10 -->
<g id="edge48" class="edge"><title>Node18&#45;&gt;Node10</title>
<path fill="none" stroke="#9a32cd" stroke-dasharray="5,2" d="M821.792,-467.161C885.148,-472.886 967.254,-480.726 1040,-489 1053.77,-490.567 1068.7,-492.454 1082.4,-494.264"/>
<polygon fill="#9a32cd" stroke="#9a32cd" points="822.063,-463.671 811.789,-466.26 821.435,-470.643 822.063,-463.671"/>
<text text-anchor="middle" x="935" y="-493" font-family="FreeSans" font-size="10.00"> specificEventReceivers_</text>
</g>
<!-- Node19&#45;&gt;Node9 -->
<g id="edge52" class="edge"><title>Node19&#45;&gt;Node9</title>
<path fill="none" stroke="#9a32cd" stroke-dasharray="5,2" d="M1047.5,-640.12C907.42,-647.672 631.429,-657.806 540,-627 513.375,-618.029 488.295,-595.844 474.96,-582.553"/>
<polygon fill="#9a32cd" stroke="#9a32cd" points="1047.97,-643.6 1057.76,-639.559 1047.58,-636.611 1047.97,-643.6"/>
<text text-anchor="middle" x="716" y="-651" font-family="FreeSans" font-size="10.00"> eventHandlers_</text>
</g>
<!-- Node20 -->
<g id="node47" class="node"><title>Node20</title>
<a xlink:href="class_urho3_d_1_1_timer.html" target="_top" xlink:title="Low&#45;resolution operating system timer.">
<polygon fill="none" stroke="black" points="422,-153.5 422,-174.5 508,-174.5 508,-153.5 422,-153.5"/>
<text text-anchor="middle" x="465" y="-161.5" font-family="FreeSans" font-size="10.00">Urho3D::Timer</text>
</a>
</g>
<!-- Node20&#45;&gt;Node8 -->
<g id="edge56" class="edge"><title>Node20&#45;&gt;Node8</title>
<path fill="none" stroke="#9a32cd" stroke-dasharray="5,2" d="M518.161,-164C561.252,-164 621.621,-164 664.312,-164"/>
<polygon fill="#9a32cd" stroke="#9a32cd" points="518.148,-160.5 508.148,-164 518.148,-167.5 518.148,-160.5"/>
<text text-anchor="middle" x="571" y="-168" font-family="FreeSans" font-size="10.00"> useTimer_</text>
</g>
<!-- Node21 -->
<g id="node49" class="node"><title>Node21</title>
<a xlink:href="class_urho3_d_1_1_string.html" target="_top" xlink:title="String class.">
<polygon fill="none" stroke="black" points="421,-0.5 421,-21.5 509,-21.5 509,-0.5 421,-0.5"/>
<text text-anchor="middle" x="465" y="-8.5" font-family="FreeSans" font-size="10.00">Urho3D::String</text>
</a>
</g>
<!-- Node21&#45;&gt;Node1 -->
<g id="edge80" class="edge"><title>Node21&#45;&gt;Node1</title>
<path fill="none" stroke="#9a32cd" stroke-dasharray="5,2" d="M519.488,-16.1369C570.292,-20.4798 648.205,-26 716,-26 716,-26 716,-26 1855,-26 1986.42,-26 2074.03,-205.078 2094.43,-251.246"/>
<polygon fill="#9a32cd" stroke="#9a32cd" points="519.651,-12.638 509.386,-15.2583 519.045,-19.6117 519.651,-12.638"/>
<text text-anchor="middle" x="1436" y="-30" font-family="FreeSans" font-size="10.00"> name_</text>
</g>
<!-- Node21&#45;&gt;Node8 -->
<g id="edge58" class="edge"><title>Node21&#45;&gt;Node8</title>
<path fill="none" stroke="#9a32cd" stroke-dasharray="5,2" d="M491.091,-26.9042C542.43,-58.1982 655.33,-127.018 698.627,-153.41"/>
<polygon fill="#9a32cd" stroke="#9a32cd" points="492.613,-23.7327 482.252,-21.5163 488.969,-29.7098 492.613,-23.7327"/>
<text text-anchor="middle" x="571" y="-97" font-family="FreeSans" font-size="10.00"> name_</text>
</g>
<!-- Node21&#45;&gt;Node21 -->
<g id="edge60" class="edge"><title>Node21&#45;&gt;Node21</title>
<path fill="none" stroke="#9a32cd" stroke-dasharray="5,2" d="M446.571,-31.4266C447.993,-36.3489 454.136,-40 465,-40 482.383,-40 487.679,-30.6531 480.889,-21.7079"/>
<polygon fill="#9a32cd" stroke="#9a32cd" points="449.969,-32.2679 449.111,-21.7079 443.196,-30.4979 449.969,-32.2679"/>
<text text-anchor="middle" x="465" y="-44" font-family="FreeSans" font-size="10.00"> EMPTY</text>
</g>
<!-- Node22&#45;&gt;Node7 -->
<g id="edge64" class="edge"><title>Node22&#45;&gt;Node7</title>
<path fill="none" stroke="#9a32cd" stroke-dasharray="5,2" d="M1049.84,-199.217C1176.67,-198.323 1386.91,-196.756 1568,-195 1573.74,-194.944 1579.69,-194.883 1585.67,-194.819"/>
<polygon fill="#9a32cd" stroke="#9a32cd" points="1049.7,-195.718 1039.73,-199.288 1049.75,-202.717 1049.7,-195.718"/>
<text text-anchor="middle" x="1291" y="-201" font-family="FreeSans" font-size="10.00"> animations_</text>
</g>
<!-- Node23&#45;&gt;Node7 -->
<g id="edge68" class="edge"><title>Node23&#45;&gt;Node7</title>
<path fill="none" stroke="#9a32cd" stroke-dasharray="5,2" d="M1026.34,-243.88C1149.63,-240.285 1376,-231.092 1568,-209 1578.2,-207.826 1589.02,-206.239 1599.44,-204.536"/>
<polygon fill="#9a32cd" stroke="#9a32cd" points="1026.09,-240.386 1016.19,-244.17 1026.29,-247.383 1026.09,-240.386"/>
<text text-anchor="middle" x="1291" y="-239" font-family="FreeSans" font-size="10.00"> sprites_</text>
</g>
<!-- Node24 -->
<g id="node59" class="node"><title>Node24</title>
<a xlink:href="class_urho3_d_1_1_shared_ptr.html" target="_top" xlink:title="Urho3D::SharedPtr\&lt;\l Urho3D::XMLFile \&gt;">
<polygon fill="none" stroke="black" points="1378,-147 1378,-181 1494,-181 1494,-147 1378,-147"/>
<text text-anchor="start" x="1386" y="-168" font-family="FreeSans" font-size="10.00">Urho3D::SharedPtr&lt;</text>
<text text-anchor="middle" x="1436" y="-155" font-family="FreeSans" font-size="10.00"> Urho3D::XMLFile &gt;</text>
</a>
</g>
<!-- Node24&#45;&gt;Node7 -->
<g id="edge72" class="edge"><title>Node24&#45;&gt;Node7</title>
<path fill="none" stroke="#9a32cd" stroke-dasharray="5,2" d="M1504.34,-173.299C1524.81,-176.09 1547.32,-179.164 1568,-182 1573.74,-182.787 1579.69,-183.605 1585.67,-184.427"/>
<polygon fill="#9a32cd" stroke="#9a32cd" points="1504.54,-169.794 1494.16,-171.911 1503.59,-176.729 1504.54,-169.794"/>
<text text-anchor="middle" x="1540" y="-186" font-family="FreeSans" font-size="10.00"> spriterFile_</text>
</g>
<!-- Node25&#45;&gt;Node24 -->
<g id="edge74" class="edge"><title>Node25&#45;&gt;Node24</title>
<path fill="none" stroke="#9a32cd" stroke-dasharray="5,2" d="M1188.45,-164C1242.64,-164 1323.46,-164 1377.87,-164"/>
<polygon fill="#9a32cd" stroke="#9a32cd" points="1188.32,-160.5 1178.32,-164 1188.32,-167.5 1188.32,-160.5"/>
<text text-anchor="middle" x="1291" y="-168" font-family="FreeSans" font-size="10.00"> ptr_</text>
</g>
</g>
</svg>
        <g id="navigator" transform="translate(0 0)" fill="#404254">
                <rect fill="#f2f5e9" fill-opacity="0.5" stroke="#606060" stroke-width=".5" x="0" y="0" width="60" height="60"/>
                <use id="zoomplus" xlink:href="#zoomPlus" x="17" y="9" onmousedown="handleZoom(evt,'in')"/>
                <use id="zoomminus" xlink:href="#zoomMin" x="42" y="9" onmousedown="handleZoom(evt,'out')"/>
                <use id="reset" xlink:href="#resetDef" x="30" y="36" onmousedown="handleReset()"/>
                <g id="arrowUp" xlink:href="#dirArrow" transform="translate(30 24)" onmousedown="handlePan(0,-1)">
                  <use xlink:href="#rim" fill="#404040">
                        <set attributeName="fill" to="#808080" begin="arrowUp.mouseover" end="arrowUp.mouseout"/>
                  </use>
                  <path fill="none" stroke="white" stroke-width="1.5" d="M0,-3.0v7 M-2.5,-0.5L0,-3.0L2.5,-0.5"/>
                </g>
                <g id="arrowRight" xlink:href="#dirArrow" transform="rotate(90) translate(36 -43)" onmousedown="handlePan(1,0)">
                  <use xlink:href="#rim" fill="#404040">
                        <set attributeName="fill" to="#808080" begin="arrowRight.mouseover" end="arrowRight.mouseout"/>
                  </use>
                  <path fill="none" stroke="white" stroke-width="1.5" d="M0,-3.0v7 M-2.5,-0.5L0,-3.0L2.5,-0.5"/>
                </g>
                <g id="arrowDown" xlink:href="#dirArrow" transform="rotate(180) translate(-30 -48)" onmousedown="handlePan(0,1)">
                  <use xlink:href="#rim" fill="#404040">
                        <set attributeName="fill" to="#808080" begin="arrowDown.mouseover" end="arrowDown.mouseout"/>
                  </use>
                  <path fill="none" stroke="white" stroke-width="1.5" d="M0,-3.0v7 M-2.5,-0.5L0,-3.0L2.5,-0.5"/>
                </g>
                <g id="arrowLeft" xlink:href="#dirArrow" transform="rotate(270) translate(-36 17)" onmousedown="handlePan(-1,0)">
                  <use xlink:href="#rim" fill="#404040">
                        <set attributeName="fill" to="#808080" begin="arrowLeft.mouseover" end="arrowLeft.mouseout"/>
                  </use>
                  <path fill="none" stroke="white" stroke-width="1.5" d="M0,-3.0v7 M-2.5,-0.5L0,-3.0L2.5,-0.5"/>
                </g>
        </g>
        <svg viewBox="0 0 15 15" width="100%" height="30px" preserveAspectRatio="xMaxYMin meet">
         <g id="arrow_out" transform="scale(0.3 0.3)">
          <a xlink:href="class_urho3_d_1_1_animation2_d__coll__graph_org.svg" target="_base">
           <rect id="button" ry="5" rx="5" y="6" x="6" height="38" width="38"
                fill="#f2f5e9" fill-opacity="0.5" stroke="#606060" stroke-width="1.0"/>
           <path id="arrow"
             d="M 11.500037,31.436501 C 11.940474,20.09759 22.043105,11.32322 32.158766,21.979434 L 37.068811,17.246167 C 37.068811,17.246167 37.088388,32 37.088388,32 L 22.160133,31.978069 C 22.160133,31.978069 26.997745,27.140456 26.997745,27.140456 C 18.528582,18.264221 13.291696,25.230495 11.500037,31.436501 z"
             style="fill:#404040;"/>
          </a>
         </g>
        </svg>
</svg>
