<?xml version="1.0" encoding="UTF-8" standalone="no"?>
<!DOCTYPE svg PUBLIC "-//W3C//DTD SVG 1.1//EN"
 "http://www.w3.org/Graphics/SVG/1.1/DTD/svg11.dtd">
<!-- Generated by graphviz version 2.26.3 (20100126.1600)
 -->
<!-- Title: Urho3D::NavArea Pages: 1 -->
<!--zoomable 841 -->
<svg id="main" version="1.1" xmlns="http://www.w3.org/2000/svg" xmlns:xlink="http://www.w3.org/1999/xlink" xml:space="preserve" onload="init(evt)">
        <defs>
                <circle id="rim" cx="0" cy="0" r="7"/>
                <circle id="rim2" cx="0" cy="0" r="3.5"/>
                <g id="zoomPlus">
                        <use xlink:href="#rim" fill="#404040">
                                <set attributeName="fill" to="#808080" begin="zoomplus.mouseover" end="zoomplus.mouseout"/>
                        </use>
                        <path d="M-4,0h8M0,-4v8" fill="none" stroke="white" stroke-width="1.5" pointer-events="none"/>
                </g>
                <g id="zoomMin">
                        <use xlink:href="#rim" fill="#404040">
                                <set attributeName="fill" to="#808080" begin="zoomminus.mouseover" end="zoomminus.mouseout"/>
                        </use>
                        <path d="M-4,0h8" fill="none" stroke="white" stroke-width="1.5" pointer-events="none"/>
                </g>
                <g id="dirArrow">
                        <path fill="none" stroke="white" stroke-width="1.5" d="M0,-3.0v7 M-2.5,-0.5L0,-3.0L2.5,-0.5"/>
                </g>
               <g id="resetDef">
                       <use xlink:href="#rim2" fill="#404040">
                               <set attributeName="fill" to="#808080" begin="reset.mouseover" end="reset.mouseout"/>
                       </use>
               </g>
        </defs>

<script type="text/javascript">
var viewWidth = 1776;
var viewHeight = 841;
var sectionId = 'dynsection-1';
</script>
<script xlink:href="svgpan.js"/>
<svg id="graph" class="graph">
<g id="viewport">
<title>Urho3D::NavArea</title>
<!-- Node1 -->
<g id="node1" class="node"><title>Node1</title>
<polygon fill="#bfbfbf" stroke="black" points="1666.5,-657.5 1666.5,-678.5 1767.5,-678.5 1767.5,-657.5 1666.5,-657.5"/>
<text text-anchor="middle" x="1717" y="-665.5" font-family="FreeSans" font-size="10.00">Urho3D::NavArea</text>
</g>
<!-- Node2 -->
<g id="node2" class="node"><title>Node2</title>
<a xlink:href="class_urho3_d_1_1_component.html" target="_top" xlink:title="Base class for components. Components can be created to scene nodes.">
<polygon fill="none" stroke="black" points="1512,-364.5 1512,-385.5 1628,-385.5 1628,-364.5 1512,-364.5"/>
<text text-anchor="middle" x="1570" y="-372.5" font-family="FreeSans" font-size="10.00">Urho3D::Component</text>
</a>
</g>
<!-- Node2&#45;&gt;Node1 -->
<g id="edge2" class="edge"><title>Node2&#45;&gt;Node1</title>
<path fill="none" stroke="midnightblue" d="M1607.53,-390.373C1615.1,-394.838 1622.42,-400.349 1628,-407 1694.89,-486.799 1712.36,-619.401 1716.11,-657.481"/>
<polygon fill="midnightblue" stroke="midnightblue" points="1609.1,-387.244 1598.64,-385.607 1605.8,-393.415 1609.1,-387.244"/>
</g>
<!-- Node3 -->
<g id="node4" class="node"><title>Node3</title>
<a xlink:href="class_urho3_d_1_1_animatable.html" target="_top" xlink:title="Base class for animatable object, an animatable object can be set animation on it&#39;s attributes...">
<polygon fill="none" stroke="black" points="1001,-61.5 1001,-82.5 1115,-82.5 1115,-61.5 1001,-61.5"/>
<text text-anchor="middle" x="1058" y="-69.5" font-family="FreeSans" font-size="10.00">Urho3D::Animatable</text>
</a>
</g>
<!-- Node3&#45;&gt;Node2 -->
<g id="edge4" class="edge"><title>Node3&#45;&gt;Node2</title>
<path fill="none" stroke="midnightblue" d="M1097.72,-58.429C1147.49,-43.8443 1234.24,-26.5674 1300,-57 1446.9,-124.981 1543.1,-316.644 1565.15,-364.213"/>
<polygon fill="midnightblue" stroke="midnightblue" points="1096.53,-55.1328 1087.98,-61.3885 1098.57,-61.8305 1096.53,-55.1328"/>
</g>
<!-- Node12 -->
<g id="node22" class="node"><title>Node12</title>
<a xlink:href="class_urho3_d_1_1_node.html" target="_top" xlink:title="Scene node that may contain components and child nodes.">
<polygon fill="none" stroke="black" points="1318.5,-400.5 1318.5,-421.5 1403.5,-421.5 1403.5,-400.5 1318.5,-400.5"/>
<text text-anchor="middle" x="1361" y="-408.5" font-family="FreeSans" font-size="10.00">Urho3D::Node</text>
</a>
</g>
<!-- Node3&#45;&gt;Node12 -->
<g id="edge24" class="edge"><title>Node3&#45;&gt;Node12</title>
<path fill="none" stroke="midnightblue" d="M1125.22,-61.8013C1179.41,-57.6287 1253.94,-61.6735 1300,-105 1344.39,-146.753 1357.87,-351.49 1360.49,-400.462"/>
<polygon fill="midnightblue" stroke="midnightblue" points="1124.66,-58.3369 1115.01,-62.7022 1125.28,-65.3098 1124.66,-58.3369"/>
</g>
<!-- Node4 -->
<g id="node6" class="node"><title>Node4</title>
<a xlink:href="class_urho3_d_1_1_serializable.html" target="_top" xlink:title="Base class for objects with automatic serialization through attributes.">
<polygon fill="none" stroke="black" points="620,-146.5 620,-167.5 734,-167.5 734,-146.5 620,-146.5"/>
<text text-anchor="middle" x="677" y="-154.5" font-family="FreeSans" font-size="10.00">Urho3D::Serializable</text>
</a>
</g>
<!-- Node4&#45;&gt;Node3 -->
<g id="edge6" class="edge"><title>Node4&#45;&gt;Node3</title>
<path fill="none" stroke="midnightblue" d="M743.787,-148.351C755.492,-145.56 767.329,-141.872 778,-137 787.22,-132.791 786.774,-127.194 796,-123 798.373,-121.921 926.938,-97.1459 1003.06,-82.5306"/>
<polygon fill="midnightblue" stroke="midnightblue" points="743.035,-144.933 734.016,-150.492 744.533,-151.771 743.035,-144.933"/>
</g>
<!-- Node5 -->
<g id="node8" class="node"><title>Node5</title>
<a xlink:href="class_urho3_d_1_1_object.html" target="_top" xlink:title="Base class for objects with type identification, subsystem access and event sending/receiving capabil...">
<polygon fill="none" stroke="red" points="306,-317.5 306,-338.5 396,-338.5 396,-317.5 306,-317.5"/>
<text text-anchor="middle" x="351" y="-325.5" font-family="FreeSans" font-size="10.00">Urho3D::Object</text>
</a>
</g>
<!-- Node5&#45;&gt;Node4 -->
<g id="edge8" class="edge"><title>Node5&#45;&gt;Node4</title>
<path fill="none" stroke="midnightblue" d="M406.251,-316.918C452.963,-304.763 518.426,-280.727 558,-236 576.167,-215.468 555.664,-195.386 576,-177 588,-166.151 604.138,-160.473 619.988,-157.666"/>
<polygon fill="midnightblue" stroke="midnightblue" points="405.144,-313.587 396.289,-319.405 406.839,-320.378 405.144,-313.587"/>
</g>
<!-- Node23 -->
<g id="node54" class="node"><title>Node23</title>
<a xlink:href="class_urho3_d_1_1_connection.html" target="_top" xlink:title="Connection to a remote network host.">
<polygon fill="none" stroke="red" points="1001.5,-400.5 1001.5,-421.5 1114.5,-421.5 1114.5,-400.5 1001.5,-400.5"/>
<text text-anchor="middle" x="1058" y="-408.5" font-family="FreeSans" font-size="10.00">Urho3D::Connection</text>
</a>
</g>
<!-- Node5&#45;&gt;Node23 -->
<g id="edge66" class="edge"><title>Node5&#45;&gt;Node23</title>
<path fill="none" stroke="midnightblue" d="M406.411,-331.432C547.923,-340.305 913.275,-363.947 938,-373 947.267,-376.393 947.042,-381.86 956,-386 970.151,-392.54 986.227,-397.5 1001.36,-401.206"/>
<polygon fill="midnightblue" stroke="midnightblue" points="406.415,-327.925 396.216,-330.794 405.978,-334.912 406.415,-327.925"/>
</g>
<!-- Node6 -->
<g id="node10" class="node"><title>Node6</title>
<a xlink:href="class_urho3_d_1_1_hash_map.html" target="_top" xlink:title="Hash map template class.">
<polygon fill="none" stroke="red" points="278,-146.5 278,-167.5 424,-167.5 424,-146.5 278,-146.5"/>
<text text-anchor="middle" x="351" y="-154.5" font-family="FreeSans" font-size="10.00">Urho3D::HashMap&lt; T, U &gt;</text>
</a>
</g>
<!-- Node6&#45;&gt;Node4 -->
<g id="edge10" class="edge"><title>Node6&#45;&gt;Node4</title>
<path fill="none" stroke="#9a32cd" stroke-dasharray="5,2" d="M434.42,-157C492.503,-157 568.45,-157 619.774,-157"/>
<polygon fill="#9a32cd" stroke="#9a32cd" points="434.161,-153.5 424.161,-157 434.161,-160.5 434.161,-153.5"/>
<text text-anchor="middle" x="500" y="-161" font-family="FreeSans" font-size="10.00"> instanceDefaultValues_</text>
</g>
<!-- Node7 -->
<g id="node12" class="node"><title>Node7</title>
<a xlink:href="struct_urho3_d_1_1_network_state.html" target="_top" xlink:title="Per&#45;object attribute state for network replication, allocated on demand.">
<polygon fill="none" stroke="red" points="288.5,-246.5 288.5,-267.5 413.5,-267.5 413.5,-246.5 288.5,-246.5"/>
<text text-anchor="middle" x="351" y="-254.5" font-family="FreeSans" font-size="10.00">Urho3D::NetworkState</text>
</a>
</g>
<!-- Node7&#45;&gt;Node4 -->
<g id="edge12" class="edge"><title>Node7&#45;&gt;Node4</title>
<path fill="none" stroke="#9a32cd" stroke-dasharray="5,2" d="M386.289,-242.638C430.162,-225.207 507.623,-195.818 576,-177 590.046,-173.134 605.385,-169.703 619.771,-166.821"/>
<polygon fill="#9a32cd" stroke="#9a32cd" points="384.916,-239.418 376.929,-246.378 387.514,-245.918 384.916,-239.418"/>
<text text-anchor="middle" x="500" y="-223" font-family="FreeSans" font-size="10.00"> networkState_</text>
</g>
<!-- Node8 -->
<g id="node14" class="node"><title>Node8</title>
<a xlink:href="class_urho3_d_1_1_hash_map.html" target="_top" xlink:title="Urho3D::HashMap\&lt; StringHash,\l Variant \&gt;">
<polygon fill="none" stroke="red" points="0,-338 0,-372 172,-372 172,-338 0,-338"/>
<text text-anchor="start" x="8" y="-359" font-family="FreeSans" font-size="10.00">Urho3D::HashMap&lt; StringHash,</text>
<text text-anchor="middle" x="86" y="-346" font-family="FreeSans" font-size="10.00"> Variant &gt;</text>
</a>
</g>
<!-- Node8&#45;&gt;Node7 -->
<g id="edge14" class="edge"><title>Node8&#45;&gt;Node7</title>
<path fill="none" stroke="#9a32cd" stroke-dasharray="5,2" d="M141.805,-334.363C197.063,-313.928 279.463,-283.455 322.499,-267.54"/>
<polygon fill="#9a32cd" stroke="#9a32cd" points="140.325,-331.178 132.159,-337.93 142.753,-337.744 140.325,-331.178"/>
<text text-anchor="middle" x="225" y="-318" font-family="FreeSans" font-size="10.00"> previousVars_</text>
</g>
<!-- Node8&#45;&gt;Node12 -->
<g id="edge52" class="edge"><title>Node8&#45;&gt;Node12</title>
<path fill="none" stroke="#9a32cd" stroke-dasharray="5,2" d="M88.4913,-382.295C99.1498,-481.198 150.011,-815 351,-815 351,-815 351,-815 1058,-815 1165.96,-815 1220.99,-867.566 1300,-794 1328.27,-767.676 1354.88,-480.739 1360.08,-421.616"/>
<polygon fill="#9a32cd" stroke="#9a32cd" points="91.9573,-381.784 87.4563,-372.193 84.9938,-382.498 91.9573,-381.784"/>
<text text-anchor="middle" x="677" y="-819" font-family="FreeSans" font-size="10.00"> vars_</text>
</g>
<!-- Node14 -->
<g id="node27" class="node"><title>Node14</title>
<a xlink:href="class_urho3_d_1_1_scene.html" target="_top" xlink:title="Root scene node, represents the whole scene.">
<polygon fill="none" stroke="red" points="1525.5,-416.5 1525.5,-437.5 1614.5,-437.5 1614.5,-416.5 1525.5,-416.5"/>
<text text-anchor="middle" x="1570" y="-424.5" font-family="FreeSans" font-size="10.00">Urho3D::Scene</text>
</a>
</g>
<!-- Node8&#45;&gt;Node14 -->
<g id="edge32" class="edge"><title>Node8&#45;&gt;Node14</title>
<path fill="none" stroke="#9a32cd" stroke-dasharray="5,2" d="M92.1457,-327.941C112.74,-245.015 187.43,-0 351,-0 351,-0 351,-0 1239,-0 1276.11,-1.77636e-15 1276.39,-28.3766 1300,-57 1356.42,-125.396 1447.57,-334.086 1512,-395 1521.36,-403.849 1533.63,-411.08 1544.47,-416.415"/>
<polygon fill="#9a32cd" stroke="#9a32cd" points="88.6915,-327.335 89.7464,-337.878 95.4959,-328.979 88.6915,-327.335"/>
<text text-anchor="middle" x="867" y="-4" font-family="FreeSans" font-size="10.00"> smoothingData_</text>
</g>
<!-- Node8&#45;&gt;Node23 -->
<g id="edge74" class="edge"><title>Node8&#45;&gt;Node23</title>
<path fill="none" stroke="#9a32cd" stroke-dasharray="5,2" d="M182.343,-360.104C340.246,-368.542 663.984,-386.148 938,-403 958.632,-404.269 981.252,-405.753 1001.24,-407.096"/>
<polygon fill="#9a32cd" stroke="#9a32cd" points="182.357,-356.6 172.184,-359.562 181.983,-363.59 182.357,-356.6"/>
<text text-anchor="middle" x="500" y="-384" font-family="FreeSans" font-size="10.00"> identity_</text>
</g>
<!-- Node9 -->
<g id="node16" class="node"><title>Node9</title>
<a xlink:href="class_urho3_d_1_1_hash_map.html" target="_top" xlink:title="Urho3D::HashMap\&lt; Urho3D\l::String, Urho3D::SharedPtr\l\&lt; Urho3D::AttributeAnimationInfo \&gt; \&gt;">
<polygon fill="none" stroke="red" points="576.5,-80.5 576.5,-127.5 777.5,-127.5 777.5,-80.5 576.5,-80.5"/>
<text text-anchor="start" x="584.5" y="-114.5" font-family="FreeSans" font-size="10.00">Urho3D::HashMap&lt; Urho3D</text>
<text text-anchor="start" x="584.5" y="-101.5" font-family="FreeSans" font-size="10.00">::String, Urho3D::SharedPtr</text>
<text text-anchor="middle" x="677" y="-88.5" font-family="FreeSans" font-size="10.00">&lt; Urho3D::AttributeAnimationInfo &gt; &gt;</text>
</a>
</g>
<!-- Node9&#45;&gt;Node3 -->
<g id="edge16" class="edge"><title>Node9&#45;&gt;Node3</title>
<path fill="none" stroke="#9a32cd" stroke-dasharray="5,2" d="M787.828,-82.9715C790.576,-82.6241 793.303,-82.2991 796,-82 866.238,-74.2084 947.642,-72.1894 1000.84,-71.807"/>
<polygon fill="#9a32cd" stroke="#9a32cd" points="787.247,-79.518 777.804,-84.3214 788.182,-86.4553 787.247,-79.518"/>
<text text-anchor="middle" x="867" y="-86" font-family="FreeSans" font-size="10.00"> attributeAnimationInfos_</text>
</g>
<!-- Node10 -->
<g id="node18" class="node"><title>Node10</title>
<a xlink:href="class_urho3_d_1_1_shared_ptr.html" target="_top" xlink:title="Urho3D::SharedPtr\&lt;\l Urho3D::ObjectAnimation \&gt;">
<polygon fill="none" stroke="red" points="600.5,-28 600.5,-62 753.5,-62 753.5,-28 600.5,-28"/>
<text text-anchor="start" x="608.5" y="-49" font-family="FreeSans" font-size="10.00">Urho3D::SharedPtr&lt;</text>
<text text-anchor="middle" x="677" y="-36" font-family="FreeSans" font-size="10.00"> Urho3D::ObjectAnimation &gt;</text>
</a>
</g>
<!-- Node10&#45;&gt;Node3 -->
<g id="edge18" class="edge"><title>Node10&#45;&gt;Node3</title>
<path fill="none" stroke="#9a32cd" stroke-dasharray="5,2" d="M764.054,-40.7904C814.918,-39.4629 880.265,-39.7052 938,-46 965.548,-49.0036 996.063,-55.6614 1019.43,-61.4875"/>
<polygon fill="#9a32cd" stroke="#9a32cd" points="763.65,-37.3005 753.754,-41.0857 763.851,-44.2976 763.65,-37.3005"/>
<text text-anchor="middle" x="867" y="-50" font-family="FreeSans" font-size="10.00"> objectAnimation_</text>
</g>
<!-- Node11 -->
<g id="node20" class="node"><title>Node11</title>
<a xlink:href="class_urho3_d_1_1_hash_set.html" target="_top" xlink:title="Urho3D::HashSet\&lt; const\l Urho3D::AttributeInfo * \&gt;">
<polygon fill="none" stroke="red" points="606.5,-186 606.5,-220 747.5,-220 747.5,-186 606.5,-186"/>
<text text-anchor="start" x="614.5" y="-207" font-family="FreeSans" font-size="10.00">Urho3D::HashSet&lt; const</text>
<text text-anchor="middle" x="677" y="-194" font-family="FreeSans" font-size="10.00"> Urho3D::AttributeInfo * &gt;</text>
</a>
</g>
<!-- Node11&#45;&gt;Node3 -->
<g id="edge20" class="edge"><title>Node11&#45;&gt;Node3</title>
<path fill="none" stroke="#9a32cd" stroke-dasharray="5,2" d="M757.234,-189.18C764.674,-185.931 771.753,-181.928 778,-177 791.424,-166.41 782.106,-152.966 796,-143 847.951,-105.736 882.956,-152.522 938,-120 949.176,-113.397 945.097,-104.044 956,-97 969.324,-88.3928 985.372,-82.7485 1000.75,-79.0472"/>
<polygon fill="#9a32cd" stroke="#9a32cd" points="755.703,-186.02 747.651,-192.906 758.24,-192.544 755.703,-186.02"/>
<text text-anchor="middle" x="867" y="-147" font-family="FreeSans" font-size="10.00"> animatedNetworkAttributes_</text>
</g>
<!-- Node12&#45;&gt;Node2 -->
<g id="edge22" class="edge"><title>Node12&#45;&gt;Node2</title>
<path fill="none" stroke="#9a32cd" stroke-dasharray="5,2" d="M1400.8,-397.428C1407.81,-395.378 1415.07,-393.463 1422,-392 1451.35,-385.8 1484.49,-381.728 1511.96,-379.129"/>
<polygon fill="#9a32cd" stroke="#9a32cd" points="1399.34,-394.217 1390.8,-400.492 1401.39,-400.91 1399.34,-394.217"/>
<text text-anchor="middle" x="1458" y="-396" font-family="FreeSans" font-size="10.00"> node_</text>
</g>
<!-- Node12&#45;&gt;Node12 -->
<g id="edge56" class="edge"><title>Node12&#45;&gt;Node12</title>
<path fill="none" stroke="#9a32cd" stroke-dasharray="5,2" d="M1343.31,-431.427C1344.67,-436.349 1350.57,-440 1361,-440 1377.69,-440 1382.77,-430.653 1376.25,-421.708"/>
<polygon fill="#9a32cd" stroke="#9a32cd" points="1346.71,-432.259 1345.75,-421.708 1339.92,-430.556 1346.71,-432.259"/>
<text text-anchor="middle" x="1361" y="-444" font-family="FreeSans" font-size="10.00"> parent_</text>
</g>
<!-- Node12&#45;&gt;Node14 -->
<g id="edge30" class="edge"><title>Node12&#45;&gt;Node14</title>
<path fill="none" stroke="midnightblue" d="M1411.46,-423.448C1415.01,-424.057 1418.55,-424.586 1422,-425 1456.57,-429.153 1496.01,-429.47 1525.47,-428.848"/>
<polygon fill="midnightblue" stroke="midnightblue" points="1411.95,-419.979 1401.48,-421.55 1410.65,-426.856 1411.95,-419.979"/>
</g>
<!-- Node13 -->
<g id="node25" class="node"><title>Node13</title>
<a xlink:href="class_urho3_d_1_1_p_o_d_vector.html" target="_top" xlink:title="Urho3D::PODVector\&lt;\l Urho3D::Node * \&gt;">
<polygon fill="none" stroke="red" points="998.5,-202 998.5,-236 1117.5,-236 1117.5,-202 998.5,-202"/>
<text text-anchor="start" x="1006.5" y="-223" font-family="FreeSans" font-size="10.00">Urho3D::PODVector&lt;</text>
<text text-anchor="middle" x="1058" y="-210" font-family="FreeSans" font-size="10.00"> Urho3D::Node * &gt;</text>
</a>
</g>
<!-- Node13&#45;&gt;Node12 -->
<g id="edge26" class="edge"><title>Node13&#45;&gt;Node12</title>
<path fill="none" stroke="#9a32cd" stroke-dasharray="5,2" d="M1127.79,-214.687C1180.53,-215.117 1251.82,-224.052 1300,-263 1344.52,-298.992 1356.89,-372.893 1360.02,-400.387"/>
<polygon fill="#9a32cd" stroke="#9a32cd" points="1127.5,-211.187 1117.51,-214.708 1127.51,-218.187 1127.5,-211.187"/>
<text text-anchor="middle" x="1239" y="-267" font-family="FreeSans" font-size="10.00"> dependencyNodes_</text>
</g>
<!-- Node14&#45;&gt;Node12 -->
<g id="edge28" class="edge"><title>Node14&#45;&gt;Node12</title>
<path fill="none" stroke="#9a32cd" stroke-dasharray="5,2" d="M1515,-414.886C1507.96,-413.708 1500.83,-412.694 1494,-412 1463.91,-408.944 1429.78,-408.754 1403.64,-409.297"/>
<polygon fill="#9a32cd" stroke="#9a32cd" points="1514.74,-418.395 1525.2,-416.713 1515.97,-411.504 1514.74,-418.395"/>
<text text-anchor="middle" x="1458" y="-416" font-family="FreeSans" font-size="10.00"> scene_</text>
</g>
<!-- Node15 -->
<g id="node31" class="node"><title>Node15</title>
<a xlink:href="class_urho3_d_1_1_string.html" target="_top" xlink:title="String class.">
<polygon fill="none" stroke="black" points="633,-442.5 633,-463.5 721,-463.5 721,-442.5 633,-442.5"/>
<text text-anchor="middle" x="677" y="-450.5" font-family="FreeSans" font-size="10.00">Urho3D::String</text>
</a>
</g>
<!-- Node15&#45;&gt;Node12 -->
<g id="edge54" class="edge"><title>Node15&#45;&gt;Node12</title>
<path fill="none" stroke="#9a32cd" stroke-dasharray="5,2" d="M731.224,-455.089C839.913,-458.339 1091.85,-461.16 1300,-428 1309.34,-426.513 1319.28,-424.106 1328.38,-421.566"/>
<polygon fill="#9a32cd" stroke="#9a32cd" points="731.264,-451.588 721.159,-454.774 731.045,-458.585 731.264,-451.588"/>
<text text-anchor="middle" x="1058" y="-459" font-family="FreeSans" font-size="10.00"> name_</text>
</g>
<!-- Node15&#45;&gt;Node14 -->
<g id="edge34" class="edge"><title>Node15&#45;&gt;Node14</title>
<path fill="none" stroke="#9a32cd" stroke-dasharray="5,2" d="M714.773,-467.666C734.73,-476.464 758.963,-488.883 778,-504 874.613,-580.721 844.241,-664.749 956,-717 1038.13,-755.4 1069.39,-720.232 1160,-717 1222.34,-714.776 1243.49,-733.426 1300,-707 1435.19,-643.778 1538.18,-481.041 1563.82,-437.725"/>
<polygon fill="#9a32cd" stroke="#9a32cd" points="715.932,-464.355 705.361,-463.643 713.18,-470.792 715.932,-464.355"/>
<text text-anchor="middle" x="1239" y="-725" font-family="FreeSans" font-size="10.00"> fileName_</text>
</g>
<!-- Node15&#45;&gt;Node15 -->
<g id="edge36" class="edge"><title>Node15&#45;&gt;Node15</title>
<path fill="none" stroke="#9a32cd" stroke-dasharray="5,2" d="M644.252,-472.679C646.007,-477.975 656.923,-482 677,-482 707.594,-482 716.915,-472.653 704.965,-463.708"/>
<polygon fill="#9a32cd" stroke="#9a32cd" points="647.419,-474.179 649.035,-463.708 641.242,-470.885 647.419,-474.179"/>
<text text-anchor="middle" x="677" y="-486" font-family="FreeSans" font-size="10.00"> EMPTY</text>
</g>
<!-- Node15&#45;&gt;Node23 -->
<g id="edge76" class="edge"><title>Node15&#45;&gt;Node23</title>
<path fill="none" stroke="#9a32cd" stroke-dasharray="5,2" d="M715.119,-439.042C738.188,-431.289 768.39,-422.353 796,-418 866.117,-406.945 948.07,-406.764 1001.4,-408.309"/>
<polygon fill="#9a32cd" stroke="#9a32cd" points="713.699,-435.829 705.378,-442.387 715.972,-442.449 713.699,-435.829"/>
<text text-anchor="middle" x="867" y="-435" font-family="FreeSans" font-size="10.00"> sceneFileName_</text>
<text text-anchor="middle" x="867" y="-422" font-family="FreeSans" font-size="10.00">address_</text>
</g>
<!-- Node16 -->
<g id="node34" class="node"><title>Node16</title>
<a xlink:href="class_urho3_d_1_1_quaternion.html" target="_top" xlink:title="Rotation represented as a four&#45;dimensional normalized vector.">
<polygon fill="none" stroke="black" points="620.5,-278.5 620.5,-299.5 733.5,-299.5 733.5,-278.5 620.5,-278.5"/>
<text text-anchor="middle" x="677" y="-286.5" font-family="FreeSans" font-size="10.00">Urho3D::Quaternion</text>
</a>
</g>
<!-- Node16&#45;&gt;Node12 -->
<g id="edge38" class="edge"><title>Node16&#45;&gt;Node12</title>
<path fill="none" stroke="#9a32cd" stroke-dasharray="5,2" d="M743.904,-289.938C809.547,-291.739 904.524,-296.955 938,-312 948.037,-316.511 946.168,-324.058 956,-329 1038.26,-370.347 1069.76,-346.725 1160,-365 1214.91,-376.121 1277.8,-390.836 1318.4,-400.595"/>
<polygon fill="#9a32cd" stroke="#9a32cd" points="743.72,-286.432 733.635,-289.677 743.543,-293.43 743.72,-286.432"/>
<text text-anchor="middle" x="1058" y="-382" font-family="FreeSans" font-size="10.00"> worldRotation_</text>
<text text-anchor="middle" x="1058" y="-369" font-family="FreeSans" font-size="10.00">rotation_</text>
</g>
<!-- Node16&#45;&gt;Node16 -->
<g id="edge40" class="edge"><title>Node16&#45;&gt;Node16</title>
<path fill="none" stroke="#9a32cd" stroke-dasharray="5,2" d="M644.252,-308.679C646.007,-313.975 656.923,-318 677,-318 707.594,-318 716.915,-308.653 704.965,-299.708"/>
<polygon fill="#9a32cd" stroke="#9a32cd" points="647.419,-310.179 649.035,-299.708 641.242,-306.885 647.419,-310.179"/>
<text text-anchor="middle" x="677" y="-322" font-family="FreeSans" font-size="10.00"> IDENTITY</text>
</g>
<!-- Node16&#45;&gt;Node23 -->
<g id="edge68" class="edge"><title>Node16&#45;&gt;Node23</title>
<path fill="none" stroke="#9a32cd" stroke-dasharray="5,2" d="M743.491,-300.247C760.598,-303.121 778.98,-306.191 796,-309 827.54,-314.205 913.65,-311.289 938,-332 957.271,-348.39 937.398,-368.854 956,-386 968.334,-397.369 984.976,-403.795 1001.24,-407.363"/>
<polygon fill="#9a32cd" stroke="#9a32cd" points="744.028,-296.788 733.586,-298.581 742.867,-303.691 744.028,-296.788"/>
<text text-anchor="middle" x="867" y="-336" font-family="FreeSans" font-size="10.00"> rotation_</text>
</g>
<!-- Node17 -->
<g id="node37" class="node"><title>Node17</title>
<a xlink:href="class_urho3_d_1_1_vector.html" target="_top" xlink:title="Urho3D::Vector\&lt; Urho3D\l::WeakPtr\&lt; Urho3D::Component \&gt; \&gt;">
<polygon fill="none" stroke="red" points="961,-150 961,-184 1155,-184 1155,-150 961,-150"/>
<text text-anchor="start" x="969" y="-171" font-family="FreeSans" font-size="10.00">Urho3D::Vector&lt; Urho3D</text>
<text text-anchor="middle" x="1058" y="-158" font-family="FreeSans" font-size="10.00">::WeakPtr&lt; Urho3D::Component &gt; &gt;</text>
</a>
</g>
<!-- Node17&#45;&gt;Node12 -->
<g id="edge42" class="edge"><title>Node17&#45;&gt;Node12</title>
<path fill="none" stroke="#9a32cd" stroke-dasharray="5,2" d="M1165.14,-157.033C1211.53,-158.42 1263.45,-168.431 1300,-200 1331.53,-227.232 1353.67,-361.689 1359.49,-400.497"/>
<polygon fill="#9a32cd" stroke="#9a32cd" points="1165.08,-153.532 1155.02,-156.862 1164.96,-160.531 1165.08,-153.532"/>
<text text-anchor="middle" x="1239" y="-204" font-family="FreeSans" font-size="10.00"> listeners_</text>
</g>
<!-- Node18 -->
<g id="node39" class="node"><title>Node18</title>
<a xlink:href="class_urho3_d_1_1_vector_buffer.html" target="_top" xlink:title="Dynamically sized buffer that can be read and written to as a stream.">
<polygon fill="none" stroke="red" points="617.5,-238.5 617.5,-259.5 736.5,-259.5 736.5,-238.5 617.5,-238.5"/>
<text text-anchor="middle" x="677" y="-246.5" font-family="FreeSans" font-size="10.00">Urho3D::VectorBuffer</text>
</a>
</g>
<!-- Node18&#45;&gt;Node12 -->
<g id="edge44" class="edge"><title>Node18&#45;&gt;Node12</title>
<path fill="none" stroke="#9a32cd" stroke-dasharray="5,2" d="M746.692,-237.411C757.285,-235.016 768.008,-232.22 778,-229 852.395,-205.024 878.916,-207.171 938,-156 949.183,-146.315 943.015,-135.089 956,-128 1023.27,-91.2721 1244.32,-100.327 1300,-153 1337.11,-188.11 1355.73,-356.346 1360.02,-400.414"/>
<polygon fill="#9a32cd" stroke="#9a32cd" points="745.641,-234.057 736.604,-239.587 747.117,-240.9 745.641,-234.057"/>
<text text-anchor="middle" x="1058" y="-132" font-family="FreeSans" font-size="10.00"> attrBuffer_</text>
</g>
<!-- Node18&#45;&gt;Node23 -->
<g id="edge70" class="edge"><title>Node18&#45;&gt;Node23</title>
<path fill="none" stroke="#9a32cd" stroke-dasharray="5,2" d="M746.887,-240.383C805.753,-237.288 888.123,-243.399 938,-292 968.465,-321.686 926.701,-355.162 956,-386 967.805,-398.425 984.693,-405.096 1001.34,-408.563"/>
<polygon fill="#9a32cd" stroke="#9a32cd" points="746.311,-236.912 736.55,-241.032 746.75,-243.898 746.311,-236.912"/>
<text text-anchor="middle" x="867" y="-296" font-family="FreeSans" font-size="10.00"> msg_</text>
</g>
<!-- Node19 -->
<g id="node41" class="node"><title>Node19</title>
<a xlink:href="class_urho3_d_1_1_vector.html" target="_top" xlink:title="Urho3D::Vector\&lt; Urho3D\l::SharedPtr\&lt; Urho3D::Component \&gt; \&gt;">
<polygon fill="none" stroke="red" points="956.5,-674 956.5,-708 1159.5,-708 1159.5,-674 956.5,-674"/>
<text text-anchor="start" x="964.5" y="-695" font-family="FreeSans" font-size="10.00">Urho3D::Vector&lt; Urho3D</text>
<text text-anchor="middle" x="1058" y="-682" font-family="FreeSans" font-size="10.00">::SharedPtr&lt; Urho3D::Component &gt; &gt;</text>
</a>
</g>
<!-- Node19&#45;&gt;Node12 -->
<g id="edge46" class="edge"><title>Node19&#45;&gt;Node12</title>
<path fill="none" stroke="#9a32cd" stroke-dasharray="5,2" d="M1169.58,-691.51C1215.27,-686.047 1265.41,-671.908 1300,-639 1332.58,-608.002 1354.14,-462.541 1359.62,-421.693"/>
<polygon fill="#9a32cd" stroke="#9a32cd" points="1169.18,-688.033 1159.61,-692.576 1169.92,-694.994 1169.18,-688.033"/>
<text text-anchor="middle" x="1239" y="-694" font-family="FreeSans" font-size="10.00"> components_</text>
</g>
<!-- Node20 -->
<g id="node43" class="node"><title>Node20</title>
<a xlink:href="class_urho3_d_1_1_vector3.html" target="_top" xlink:title="Three&#45;dimensional vector.">
<polygon fill="none" stroke="black" points="629,-513.5 629,-534.5 725,-534.5 725,-513.5 629,-513.5"/>
<text text-anchor="middle" x="677" y="-521.5" font-family="FreeSans" font-size="10.00">Urho3D::Vector3</text>
</a>
</g>
<!-- Node20&#45;&gt;Node12 -->
<g id="edge48" class="edge"><title>Node20&#45;&gt;Node12</title>
<path fill="none" stroke="#9a32cd" stroke-dasharray="5,2" d="M735.423,-521.002C788.394,-517.986 868.571,-512.676 938,-505 1037.15,-494.038 1061.45,-487.419 1160,-472 1222.3,-462.253 1240.99,-471.212 1300,-449 1317.52,-442.407 1335.45,-430.494 1347.3,-421.759"/>
<polygon fill="#9a32cd" stroke="#9a32cd" points="734.992,-517.521 725.203,-521.575 735.383,-524.51 734.992,-517.521"/>
<text text-anchor="middle" x="1058" y="-519" font-family="FreeSans" font-size="10.00"> scale_</text>
<text text-anchor="middle" x="1058" y="-506" font-family="FreeSans" font-size="10.00">position_</text>
</g>
<!-- Node20&#45;&gt;Node20 -->
<g id="edge50" class="edge"><title>Node20&#45;&gt;Node20</title>
<path fill="none" stroke="#9a32cd" stroke-dasharray="5,2" d="M644.252,-543.679C646.007,-548.975 656.923,-553 677,-553 707.594,-553 716.915,-543.653 704.965,-534.708"/>
<polygon fill="#9a32cd" stroke="#9a32cd" points="647.419,-545.179 649.035,-534.708 641.242,-541.885 647.419,-545.179"/>
<text text-anchor="middle" x="677" y="-648" font-family="FreeSans" font-size="10.00"> ONE</text>
<text text-anchor="middle" x="677" y="-635" font-family="FreeSans" font-size="10.00">DOWN</text>
<text text-anchor="middle" x="677" y="-622" font-family="FreeSans" font-size="10.00">BACK</text>
<text text-anchor="middle" x="677" y="-609" font-family="FreeSans" font-size="10.00">RIGHT</text>
<text text-anchor="middle" x="677" y="-596" font-family="FreeSans" font-size="10.00">LEFT</text>
<text text-anchor="middle" x="677" y="-583" font-family="FreeSans" font-size="10.00">ZERO</text>
<text text-anchor="middle" x="677" y="-570" font-family="FreeSans" font-size="10.00">FORWARD</text>
<text text-anchor="middle" x="677" y="-557" font-family="FreeSans" font-size="10.00">UP</text>
</g>
<!-- Node20&#45;&gt;Node23 -->
<g id="edge72" class="edge"><title>Node20&#45;&gt;Node23</title>
<path fill="none" stroke="#9a32cd" stroke-dasharray="5,2" d="M735.372,-516.476C749.641,-513.547 764.639,-509.519 778,-504 786.886,-500.329 787.318,-496.132 796,-492 855.658,-463.604 878.342,-476.396 938,-448 946.682,-443.868 947.198,-439.869 956,-436 970.187,-429.763 986.198,-424.912 1001.26,-421.214"/>
<polygon fill="#9a32cd" stroke="#9a32cd" points="734.316,-513.114 725.146,-518.419 735.623,-519.99 734.316,-513.114"/>
<text text-anchor="middle" x="867" y="-496" font-family="FreeSans" font-size="10.00"> position_</text>
</g>
<!-- Node25 -->
<g id="node65" class="node"><title>Node25</title>
<a xlink:href="class_urho3_d_1_1_bounding_box.html" target="_top" xlink:title="Three&#45;dimensional axis&#45;aligned bounding box.">
<polygon fill="none" stroke="black" points="1178,-763.5 1178,-784.5 1300,-784.5 1300,-763.5 1178,-763.5"/>
<text text-anchor="middle" x="1239" y="-771.5" font-family="FreeSans" font-size="10.00">Urho3D::BoundingBox</text>
</a>
</g>
<!-- Node20&#45;&gt;Node25 -->
<g id="edge84" class="edge"><title>Node20&#45;&gt;Node25</title>
<path fill="none" stroke="#9a32cd" stroke-dasharray="5,2" d="M680.805,-544.515C690.561,-590.596 721.166,-702.02 796,-750 827.326,-770.085 1063.8,-773.523 1177.85,-774.001"/>
<polygon fill="#9a32cd" stroke="#9a32cd" points="684.199,-543.639 678.804,-534.521 677.336,-545.014 684.199,-543.639"/>
<text text-anchor="middle" x="867" y="-785" font-family="FreeSans" font-size="10.00"> max_</text>
<text text-anchor="middle" x="867" y="-772" font-family="FreeSans" font-size="10.00">min_</text>
</g>
<!-- Node21 -->
<g id="node49" class="node"><title>Node21</title>
<a xlink:href="class_urho3_d_1_1_string_hash.html" target="_top" xlink:title="32&#45;bit hash value for a string.">
<polygon fill="none" stroke="black" points="1001.5,-603.5 1001.5,-624.5 1114.5,-624.5 1114.5,-603.5 1001.5,-603.5"/>
<text text-anchor="middle" x="1058" y="-611.5" font-family="FreeSans" font-size="10.00">Urho3D::StringHash</text>
</a>
</g>
<!-- Node21&#45;&gt;Node12 -->
<g id="edge58" class="edge"><title>Node21&#45;&gt;Node12</title>
<path fill="none" stroke="#9a32cd" stroke-dasharray="5,2" d="M1124.62,-622.417C1177.78,-625.375 1251.17,-620.558 1300,-581 1326.07,-559.88 1351.18,-455.275 1358.72,-421.521"/>
<polygon fill="#9a32cd" stroke="#9a32cd" points="1124.82,-618.922 1114.61,-621.755 1124.36,-625.907 1124.82,-618.922"/>
<text text-anchor="middle" x="1239" y="-626" font-family="FreeSans" font-size="10.00"> nameHash_</text>
</g>
<!-- Node21&#45;&gt;Node21 -->
<g id="edge60" class="edge"><title>Node21&#45;&gt;Node21</title>
<path fill="none" stroke="#9a32cd" stroke-dasharray="5,2" d="M1024.51,-633.679C1026.3,-638.975 1037.47,-643 1058,-643 1089.29,-643 1098.82,-633.653 1086.6,-624.708"/>
<polygon fill="#9a32cd" stroke="#9a32cd" points="1027.69,-635.163 1029.4,-624.708 1021.54,-631.812 1027.69,-635.163"/>
<text text-anchor="middle" x="1058" y="-647" font-family="FreeSans" font-size="10.00"> ZERO</text>
</g>
<!-- Node22 -->
<g id="node52" class="node"><title>Node22</title>
<a xlink:href="class_urho3_d_1_1_vector.html" target="_top" xlink:title="Urho3D::Vector\&lt; Urho3D\l::SharedPtr\&lt; Urho3D::Node \&gt; \&gt;">
<polygon fill="none" stroke="red" points="971.5,-551 971.5,-585 1144.5,-585 1144.5,-551 971.5,-551"/>
<text text-anchor="start" x="979.5" y="-572" font-family="FreeSans" font-size="10.00">Urho3D::Vector&lt; Urho3D</text>
<text text-anchor="middle" x="1058" y="-559" font-family="FreeSans" font-size="10.00">::SharedPtr&lt; Urho3D::Node &gt; &gt;</text>
</a>
</g>
<!-- Node22&#45;&gt;Node12 -->
<g id="edge62" class="edge"><title>Node22&#45;&gt;Node12</title>
<path fill="none" stroke="#9a32cd" stroke-dasharray="5,2" d="M1154.63,-567.901C1202.27,-563.482 1258.29,-551.29 1300,-521 1334.81,-495.72 1352.17,-444.208 1358.32,-421.807"/>
<polygon fill="#9a32cd" stroke="#9a32cd" points="1154.28,-564.418 1144.6,-568.73 1154.85,-571.395 1154.28,-564.418"/>
<text text-anchor="middle" x="1239" y="-568" font-family="FreeSans" font-size="10.00"> children_</text>
</g>
<!-- Node23&#45;&gt;Node12 -->
<g id="edge64" class="edge"><title>Node23&#45;&gt;Node12</title>
<path fill="none" stroke="#9a32cd" stroke-dasharray="5,2" d="M1124.98,-411C1183.95,-411 1268.06,-411 1318.33,-411"/>
<polygon fill="#9a32cd" stroke="#9a32cd" points="1124.64,-407.5 1114.64,-411 1124.64,-414.5 1124.64,-407.5"/>
<text text-anchor="middle" x="1239" y="-415" font-family="FreeSans" font-size="10.00"> owner_</text>
</g>
<!-- Node24 -->
<g id="node62" class="node"><title>Node24</title>
<a xlink:href="class_urho3_d_1_1_matrix3x4.html" target="_top" xlink:title="3x4 matrix for scene node transform calculations.">
<polygon fill="none" stroke="black" points="1005,-254.5 1005,-275.5 1111,-275.5 1111,-254.5 1005,-254.5"/>
<text text-anchor="middle" x="1058" y="-262.5" font-family="FreeSans" font-size="10.00">Urho3D::Matrix3x4</text>
</a>
</g>
<!-- Node24&#45;&gt;Node12 -->
<g id="edge78" class="edge"><title>Node24&#45;&gt;Node12</title>
<path fill="none" stroke="#9a32cd" stroke-dasharray="5,2" d="M1121.32,-270.169C1173.13,-276.972 1246.35,-292.697 1300,-329 1327.48,-347.594 1347.36,-382.777 1356.08,-400.392"/>
<polygon fill="#9a32cd" stroke="#9a32cd" points="1121.61,-266.678 1111.25,-268.924 1120.75,-273.625 1121.61,-266.678"/>
<text text-anchor="middle" x="1239" y="-333" font-family="FreeSans" font-size="10.00"> worldTransform_</text>
</g>
<!-- Node24&#45;&gt;Node24 -->
<g id="edge80" class="edge"><title>Node24&#45;&gt;Node24</title>
<path fill="none" stroke="#9a32cd" stroke-dasharray="5,2" d="M1024.51,-284.679C1026.3,-289.975 1037.47,-294 1058,-294 1089.29,-294 1098.82,-284.653 1086.6,-275.708"/>
<polygon fill="#9a32cd" stroke="#9a32cd" points="1027.69,-286.163 1029.4,-275.708 1021.54,-282.812 1027.69,-286.163"/>
<text text-anchor="middle" x="1058" y="-311" font-family="FreeSans" font-size="10.00"> IDENTITY</text>
<text text-anchor="middle" x="1058" y="-298" font-family="FreeSans" font-size="10.00">ZERO</text>
</g>
<!-- Node25&#45;&gt;Node1 -->
<g id="edge82" class="edge"><title>Node25&#45;&gt;Node1</title>
<path fill="none" stroke="#9a32cd" stroke-dasharray="5,2" d="M1310.28,-772.213C1361.85,-769.732 1432.92,-763.859 1494,-750 1569.83,-732.796 1654.89,-696.469 1694.48,-678.508"/>
<polygon fill="#9a32cd" stroke="#9a32cd" points="1310.07,-768.719 1300.24,-772.665 1310.38,-775.712 1310.07,-768.719"/>
<text text-anchor="middle" x="1458" y="-766" font-family="FreeSans" font-size="10.00"> boundingBox_</text>
</g>
</g>
</svg>
        <g id="navigator" transform="translate(0 0)" fill="#404254">
                <rect fill="#f2f5e9" fill-opacity="0.5" stroke="#606060" stroke-width=".5" x="0" y="0" width="60" height="60"/>
                <use id="zoomplus" xlink:href="#zoomPlus" x="17" y="9" onmousedown="handleZoom(evt,'in')"/>
                <use id="zoomminus" xlink:href="#zoomMin" x="42" y="9" onmousedown="handleZoom(evt,'out')"/>
                <use id="reset" xlink:href="#resetDef" x="30" y="36" onmousedown="handleReset()"/>
                <g id="arrowUp" xlink:href="#dirArrow" transform="translate(30 24)" onmousedown="handlePan(0,-1)">
                  <use xlink:href="#rim" fill="#404040">
                        <set attributeName="fill" to="#808080" begin="arrowUp.mouseover" end="arrowUp.mouseout"/>
                  </use>
                  <path fill="none" stroke="white" stroke-width="1.5" d="M0,-3.0v7 M-2.5,-0.5L0,-3.0L2.5,-0.5"/>
                </g>
                <g id="arrowRight" xlink:href="#dirArrow" transform="rotate(90) translate(36 -43)" onmousedown="handlePan(1,0)">
                  <use xlink:href="#rim" fill="#404040">
                        <set attributeName="fill" to="#808080" begin="arrowRight.mouseover" end="arrowRight.mouseout"/>
                  </use>
                  <path fill="none" stroke="white" stroke-width="1.5" d="M0,-3.0v7 M-2.5,-0.5L0,-3.0L2.5,-0.5"/>
                </g>
                <g id="arrowDown" xlink:href="#dirArrow" transform="rotate(180) translate(-30 -48)" onmousedown="handlePan(0,1)">
                  <use xlink:href="#rim" fill="#404040">
                        <set attributeName="fill" to="#808080" begin="arrowDown.mouseover" end="arrowDown.mouseout"/>
                  </use>
                  <path fill="none" stroke="white" stroke-width="1.5" d="M0,-3.0v7 M-2.5,-0.5L0,-3.0L2.5,-0.5"/>
                </g>
                <g id="arrowLeft" xlink:href="#dirArrow" transform="rotate(270) translate(-36 17)" onmousedown="handlePan(-1,0)">
                  <use xlink:href="#rim" fill="#404040">
                        <set attributeName="fill" to="#808080" begin="arrowLeft.mouseover" end="arrowLeft.mouseout"/>
                  </use>
                  <path fill="none" stroke="white" stroke-width="1.5" d="M0,-3.0v7 M-2.5,-0.5L0,-3.0L2.5,-0.5"/>
                </g>
        </g>
        <svg viewBox="0 0 15 15" width="100%" height="30px" preserveAspectRatio="xMaxYMin meet">
         <g id="arrow_out" transform="scale(0.3 0.3)">
          <a xlink:href="class_urho3_d_1_1_nav_area__coll__graph_org.svg" target="_base">
           <rect id="button" ry="5" rx="5" y="6" x="6" height="38" width="38"
                fill="#f2f5e9" fill-opacity="0.5" stroke="#606060" stroke-width="1.0"/>
           <path id="arrow"
             d="M 11.500037,31.436501 C 11.940474,20.09759 22.043105,11.32322 32.158766,21.979434 L 37.068811,17.246167 C 37.068811,17.246167 37.088388,32 37.088388,32 L 22.160133,31.978069 C 22.160133,31.978069 26.997745,27.140456 26.997745,27.140456 C 18.528582,18.264221 13.291696,25.230495 11.500037,31.436501 z"
             style="fill:#404040;"/>
          </a>
         </g>
        </svg>
</svg>
