<?xml version="1.0" encoding="UTF-8" standalone="no"?>
<!DOCTYPE svg PUBLIC "-//W3C//DTD SVG 1.1//EN"
 "http://www.w3.org/Graphics/SVG/1.1/DTD/svg11.dtd">
<!-- Generated by graphviz version 2.26.3 (20100126.1600)
 -->
<!-- Title: Urho3D::DropDownList Pages: 1 -->
<svg width="1858pt" height="696pt"
 viewBox="0.00 0.00 1858.00 695.92" xmlns="http://www.w3.org/2000/svg" xmlns:xlink="http://www.w3.org/1999/xlink">
<g id="graph1" class="graph" transform="scale(1 1) rotate(0) translate(4 691.921)">
<title>Urho3D::DropDownList</title>
<!-- Node1 -->
<g id="node1" class="node"><title>Node1</title>
<polygon fill="#bfbfbf" stroke="black" points="1724.5,-227.421 1724.5,-248.421 1849.5,-248.421 1849.5,-227.421 1724.5,-227.421"/>
<text text-anchor="middle" x="1787" y="-235.421" font-family="FreeSans" font-size="10.00">Urho3D::DropDownList</text>
</g>
<!-- Node2 -->
<g id="node2" class="node"><title>Node2</title>
<a xlink:href="class_urho3_d_1_1_menu.html" target="_top" xlink:title="Menu UI element that optionally shows a popup.">
<polygon fill="none" stroke="black" points="1378,-160.421 1378,-181.421 1464,-181.421 1464,-160.421 1378,-160.421"/>
<text text-anchor="middle" x="1421" y="-168.421" font-family="FreeSans" font-size="10.00">Urho3D::Menu</text>
</a>
</g>
<!-- Node2&#45;&gt;Node1 -->
<g id="edge2" class="edge"><title>Node2&#45;&gt;Node1</title>
<path fill="none" stroke="midnightblue" d="M1474.12,-180.646C1542.08,-193.086 1659.33,-214.551 1729.38,-227.374"/>
<polygon fill="midnightblue" stroke="midnightblue" points="1474.53,-177.162 1464.06,-178.804 1473.27,-184.048 1474.53,-177.162"/>
</g>
<!-- Node3 -->
<g id="node4" class="node"><title>Node3</title>
<a xlink:href="class_urho3_d_1_1_button.html" target="_top" xlink:title="Pushbutton UI element.">
<polygon fill="none" stroke="black" points="1234,-76.4214 1234,-97.4214 1326,-97.4214 1326,-76.4214 1234,-76.4214"/>
<text text-anchor="middle" x="1280" y="-84.4214" font-family="FreeSans" font-size="10.00">Urho3D::Button</text>
</a>
</g>
<!-- Node3&#45;&gt;Node2 -->
<g id="edge4" class="edge"><title>Node3&#45;&gt;Node2</title>
<path fill="none" stroke="midnightblue" d="M1306.45,-102.679C1334.76,-119.546 1378.89,-145.836 1403.29,-160.369"/>
<polygon fill="midnightblue" stroke="midnightblue" points="1308.24,-99.6713 1297.86,-97.56 1304.66,-105.685 1308.24,-99.6713"/>
</g>
<!-- Node4 -->
<g id="node6" class="node"><title>Node4</title>
<a xlink:href="class_urho3_d_1_1_border_image.html" target="_top" xlink:title="Image UI element with optional border.">
<polygon fill="none" stroke="black" points="981,-76.4214 981,-97.4214 1103,-97.4214 1103,-76.4214 981,-76.4214"/>
<text text-anchor="middle" x="1042" y="-84.4214" font-family="FreeSans" font-size="10.00">Urho3D::BorderImage</text>
</a>
</g>
<!-- Node4&#45;&gt;Node3 -->
<g id="edge6" class="edge"><title>Node4&#45;&gt;Node3</title>
<path fill="none" stroke="midnightblue" d="M1113.55,-86.9214C1152.6,-86.9214 1199.8,-86.9214 1233.95,-86.9214"/>
<polygon fill="midnightblue" stroke="midnightblue" points="1113.29,-83.4215 1103.29,-86.9214 1113.29,-90.4215 1113.29,-83.4215"/>
</g>
<!-- Node5 -->
<g id="node8" class="node"><title>Node5</title>
<a xlink:href="class_urho3_d_1_1_u_i_element.html" target="_top" xlink:title="Base class for UI elements.">
<polygon fill="none" stroke="black" points="737.5,-339.421 737.5,-360.421 846.5,-360.421 846.5,-339.421 737.5,-339.421"/>
<text text-anchor="middle" x="792" y="-347.421" font-family="FreeSans" font-size="10.00">Urho3D::UIElement</text>
</a>
</g>
<!-- Node5&#45;&gt;Node4 -->
<g id="edge8" class="edge"><title>Node5&#45;&gt;Node4</title>
<path fill="none" stroke="midnightblue" d="M812.385,-332.272C825.208,-320.009 840.981,-302.572 850,-283.921 869.469,-243.66 842.057,-221.349 868,-184.921 901.286,-138.184 964.256,-110.918 1004.62,-97.4814"/>
<polygon fill="midnightblue" stroke="midnightblue" points="809.847,-329.85 804.869,-339.202 814.593,-334.996 809.847,-329.85"/>
</g>
<!-- Node5&#45;&gt;Node5 -->
<g id="edge30" class="edge"><title>Node5&#45;&gt;Node5</title>
<path fill="none" stroke="#9a32cd" stroke-dasharray="5,2" d="M769.517,-370.348C771.251,-375.27 778.746,-378.921 792,-378.921 813.207,-378.921 819.669,-369.575 811.385,-360.629"/>
<polygon fill="#9a32cd" stroke="#9a32cd" points="772.912,-371.22 772.615,-360.629 766.243,-369.093 772.912,-371.22"/>
<text text-anchor="middle" x="792" y="-382.921" font-family="FreeSans" font-size="10.00"> parent_</text>
</g>
<!-- Node21 -->
<g id="node49" class="node"><title>Node21</title>
<a xlink:href="class_urho3_d_1_1_shared_ptr.html" target="_top" xlink:title="Urho3D::SharedPtr\&lt;\l Urho3D::UIElement \&gt;">
<polygon fill="none" stroke="black" points="980.5,-246.921 980.5,-280.921 1103.5,-280.921 1103.5,-246.921 980.5,-246.921"/>
<text text-anchor="start" x="988.5" y="-267.921" font-family="FreeSans" font-size="10.00">Urho3D::SharedPtr&lt;</text>
<text text-anchor="middle" x="1042" y="-254.921" font-family="FreeSans" font-size="10.00"> Urho3D::UIElement &gt;</text>
</a>
</g>
<!-- Node5&#45;&gt;Node21 -->
<g id="edge60" class="edge"><title>Node5&#45;&gt;Node21</title>
<path fill="none" stroke="#9a32cd" stroke-dasharray="5,2" d="M831.163,-335.887C842.988,-331.682 856.012,-327.083 868,-322.921 909.283,-308.59 956.213,-292.7 990.922,-281.025"/>
<polygon fill="#9a32cd" stroke="#9a32cd" points="829.806,-332.654 821.561,-339.308 832.155,-339.248 829.806,-332.654"/>
<text text-anchor="middle" x="915" y="-326.921" font-family="FreeSans" font-size="10.00"> ptr_</text>
</g>
<!-- Node24 -->
<g id="node58" class="node"><title>Node24</title>
<a xlink:href="class_urho3_d_1_1_scroll_view.html" target="_top" xlink:title="Scrollable UI element for showing a (possibly large) child element.">
<polygon fill="none" stroke="red" points="1226.5,-315.421 1226.5,-336.421 1333.5,-336.421 1333.5,-315.421 1226.5,-315.421"/>
<text text-anchor="middle" x="1280" y="-323.421" font-family="FreeSans" font-size="10.00">Urho3D::ScrollView</text>
</a>
</g>
<!-- Node5&#45;&gt;Node24 -->
<g id="edge72" class="edge"><title>Node5&#45;&gt;Node24</title>
<path fill="none" stroke="midnightblue" d="M856.779,-349.831C938.712,-349.237 1084.07,-346.584 1208,-335.921 1213.91,-335.413 1220.08,-334.754 1226.21,-334.017"/>
<polygon fill="midnightblue" stroke="midnightblue" points="856.598,-346.332 846.621,-349.897 856.643,-353.332 856.598,-346.332"/>
</g>
<!-- Node6 -->
<g id="node10" class="node"><title>Node6</title>
<a xlink:href="class_urho3_d_1_1_animatable.html" target="_top" xlink:title="Base class for animatable object, an animatable object can be set animation on it&#39;s attributes...">
<polygon fill="none" stroke="black" points="422,-171.421 422,-192.421 536,-192.421 536,-171.421 422,-171.421"/>
<text text-anchor="middle" x="479" y="-179.421" font-family="FreeSans" font-size="10.00">Urho3D::Animatable</text>
</a>
</g>
<!-- Node6&#45;&gt;Node5 -->
<g id="edge10" class="edge"><title>Node6&#45;&gt;Node5</title>
<path fill="none" stroke="midnightblue" d="M546.295,-184.362C558.157,-187.682 569.431,-193.153 578,-201.921 609.869,-234.531 564.622,-269.839 596,-302.921 633.688,-342.657 662.766,-318.057 716,-330.921 727.105,-333.605 739.105,-336.573 750.217,-339.35"/>
<polygon fill="midnightblue" stroke="midnightblue" points="546.769,-180.88 536.24,-182.054 545.203,-187.703 546.769,-180.88"/>
</g>
<!-- Node7 -->
<g id="node12" class="node"><title>Node7</title>
<a xlink:href="class_urho3_d_1_1_serializable.html" target="_top" xlink:title="Base class for objects with automatic serialization through attributes.">
<polygon fill="none" stroke="red" points="44,-253.421 44,-274.421 158,-274.421 158,-253.421 44,-253.421"/>
<text text-anchor="middle" x="101" y="-261.421" font-family="FreeSans" font-size="10.00">Urho3D::Serializable</text>
</a>
</g>
<!-- Node7&#45;&gt;Node6 -->
<g id="edge12" class="edge"><title>Node7&#45;&gt;Node6</title>
<path fill="none" stroke="midnightblue" d="M168.472,-262.098C223.082,-258.31 300.714,-247.567 362,-217.921 371.636,-213.26 370.423,-206.702 380,-201.921 392.865,-195.5 407.645,-191.14 421.795,-188.18"/>
<polygon fill="midnightblue" stroke="midnightblue" points="167.97,-258.623 158.211,-262.747 168.412,-265.609 167.97,-258.623"/>
</g>
<!-- Node8 -->
<g id="node14" class="node"><title>Node8</title>
<a xlink:href="class_urho3_d_1_1_hash_map.html" target="_top" xlink:title="Urho3D::HashMap\&lt; Urho3D\l::String, Urho3D::SharedPtr\l\&lt; Urho3D::AttributeAnimationInfo \&gt; \&gt;">
<polygon fill="none" stroke="red" points="0.5,-187.421 0.5,-234.421 201.5,-234.421 201.5,-187.421 0.5,-187.421"/>
<text text-anchor="start" x="8.5" y="-221.421" font-family="FreeSans" font-size="10.00">Urho3D::HashMap&lt; Urho3D</text>
<text text-anchor="start" x="8.5" y="-208.421" font-family="FreeSans" font-size="10.00">::String, Urho3D::SharedPtr</text>
<text text-anchor="middle" x="101" y="-195.421" font-family="FreeSans" font-size="10.00">&lt; Urho3D::AttributeAnimationInfo &gt; &gt;</text>
</a>
</g>
<!-- Node8&#45;&gt;Node6 -->
<g id="edge14" class="edge"><title>Node8&#45;&gt;Node6</title>
<path fill="none" stroke="#9a32cd" stroke-dasharray="5,2" d="M211.837,-202.418C280.727,-197.133 366.434,-190.557 421.906,-186.302"/>
<polygon fill="#9a32cd" stroke="#9a32cd" points="211.503,-198.933 201.801,-203.188 212.039,-205.913 211.503,-198.933"/>
<text text-anchor="middle" x="291" y="-204.921" font-family="FreeSans" font-size="10.00"> attributeAnimationInfos_</text>
</g>
<!-- Node9 -->
<g id="node16" class="node"><title>Node9</title>
<a xlink:href="class_urho3_d_1_1_shared_ptr.html" target="_top" xlink:title="Urho3D::SharedPtr\&lt;\l Urho3D::ObjectAnimation \&gt;">
<polygon fill="none" stroke="red" points="24.5,-134.921 24.5,-168.921 177.5,-168.921 177.5,-134.921 24.5,-134.921"/>
<text text-anchor="start" x="32.5" y="-155.921" font-family="FreeSans" font-size="10.00">Urho3D::SharedPtr&lt;</text>
<text text-anchor="middle" x="101" y="-142.921" font-family="FreeSans" font-size="10.00"> Urho3D::ObjectAnimation &gt;</text>
</a>
</g>
<!-- Node9&#45;&gt;Node6 -->
<g id="edge16" class="edge"><title>Node9&#45;&gt;Node6</title>
<path fill="none" stroke="#9a32cd" stroke-dasharray="5,2" d="M188.337,-158.853C260.163,-164.553 359.878,-172.467 421.867,-177.387"/>
<polygon fill="#9a32cd" stroke="#9a32cd" points="188.195,-155.331 177.95,-158.028 187.641,-162.309 188.195,-155.331"/>
<text text-anchor="middle" x="291" y="-175.921" font-family="FreeSans" font-size="10.00"> objectAnimation_</text>
</g>
<!-- Node10 -->
<g id="node18" class="node"><title>Node10</title>
<a xlink:href="class_urho3_d_1_1_hash_set.html" target="_top" xlink:title="Urho3D::HashSet\&lt; const\l Urho3D::AttributeInfo * \&gt;">
<polygon fill="none" stroke="red" points="30.5,-82.9214 30.5,-116.921 171.5,-116.921 171.5,-82.9214 30.5,-82.9214"/>
<text text-anchor="start" x="38.5" y="-103.921" font-family="FreeSans" font-size="10.00">Urho3D::HashSet&lt; const</text>
<text text-anchor="middle" x="101" y="-90.9214" font-family="FreeSans" font-size="10.00"> Urho3D::AttributeInfo * &gt;</text>
</a>
</g>
<!-- Node10&#45;&gt;Node6 -->
<g id="edge18" class="edge"><title>Node10&#45;&gt;Node6</title>
<path fill="none" stroke="#9a32cd" stroke-dasharray="5,2" d="M181.855,-100.922C235.556,-104.538 306.177,-115.128 362,-143.921 372.055,-149.108 370.03,-156.573 380,-161.921 392.748,-168.76 407.561,-173.268 421.784,-176.237"/>
<polygon fill="#9a32cd" stroke="#9a32cd" points="181.884,-97.4175 171.691,-100.307 181.461,-104.405 181.884,-97.4175"/>
<text text-anchor="middle" x="291" y="-147.921" font-family="FreeSans" font-size="10.00"> animatedNetworkAttributes_</text>
</g>
<!-- Node11 -->
<g id="node20" class="node"><title>Node11</title>
<a xlink:href="class_urho3_d_1_1_int_rect.html" target="_top" xlink:title="Two&#45;dimensional bounding rectangle with integer values.">
<polygon fill="none" stroke="black" points="433,-100.421 433,-121.421 525,-121.421 525,-100.421 433,-100.421"/>
<text text-anchor="middle" x="479" y="-108.421" font-family="FreeSans" font-size="10.00">Urho3D::IntRect</text>
</a>
</g>
<!-- Node11&#45;&gt;Node4 -->
<g id="edge50" class="edge"><title>Node11&#45;&gt;Node4</title>
<path fill="none" stroke="#9a32cd" stroke-dasharray="5,2" d="M524.794,-125.165C543.731,-133.185 564.397,-145.057 578,-161.921 597.359,-185.92 571.532,-210.159 596,-228.921 638.323,-261.375 665.404,-245.787 716,-228.921 796.111,-202.218 790.272,-147.924 868,-114.921 903.627,-99.7945 946.531,-92.7803 980.821,-89.5548"/>
<polygon fill="#9a32cd" stroke="#9a32cd" points="525.972,-121.867 515.386,-121.425 523.386,-128.372 525.972,-121.867"/>
<text text-anchor="middle" x="792" y="-250.921" font-family="FreeSans" font-size="10.00"> imageRect_</text>
<text text-anchor="middle" x="792" y="-237.921" font-family="FreeSans" font-size="10.00">border_</text>
<text text-anchor="middle" x="792" y="-224.921" font-family="FreeSans" font-size="10.00">imageBorder_</text>
</g>
<!-- Node11&#45;&gt;Node5 -->
<g id="edge20" class="edge"><title>Node11&#45;&gt;Node5</title>
<path fill="none" stroke="#9a32cd" stroke-dasharray="5,2" d="M526.666,-125.28C545.336,-133.216 565.286,-144.993 578,-161.921 603.02,-195.236 566.011,-224.998 596,-253.921 634.867,-291.407 667.967,-248.251 716,-272.921 747.077,-288.883 773.115,-322.298 785.031,-339.379"/>
<polygon fill="#9a32cd" stroke="#9a32cd" points="527.94,-122.02 517.354,-121.58 525.355,-128.525 527.94,-122.02"/>
<text text-anchor="middle" x="656" y="-289.921" font-family="FreeSans" font-size="10.00"> clipBorder_</text>
<text text-anchor="middle" x="656" y="-276.921" font-family="FreeSans" font-size="10.00">layoutBorder_</text>
</g>
<!-- Node11&#45;&gt;Node11 -->
<g id="edge22" class="edge"><title>Node11&#45;&gt;Node11</title>
<path fill="none" stroke="#9a32cd" stroke-dasharray="5,2" d="M446.252,-130.6C448.007,-135.896 458.923,-139.921 479,-139.921 509.594,-139.921 518.915,-130.575 506.965,-121.629"/>
<polygon fill="#9a32cd" stroke="#9a32cd" points="449.419,-132.1 451.035,-121.629 443.242,-128.807 449.419,-132.1"/>
<text text-anchor="middle" x="479" y="-143.921" font-family="FreeSans" font-size="10.00"> ZERO</text>
</g>
<!-- Node12 -->
<g id="node23" class="node"><title>Node12</title>
<a xlink:href="class_urho3_d_1_1_vector.html" target="_top" xlink:title="Urho3D::Vector\&lt; Urho3D\l::SharedPtr\&lt; Urho3D::UIElement \&gt; \&gt;">
<polygon fill="none" stroke="black" points="380.5,-617.921 380.5,-651.921 577.5,-651.921 577.5,-617.921 380.5,-617.921"/>
<text text-anchor="start" x="388.5" y="-638.921" font-family="FreeSans" font-size="10.00">Urho3D::Vector&lt; Urho3D</text>
<text text-anchor="middle" x="479" y="-625.921" font-family="FreeSans" font-size="10.00">::SharedPtr&lt; Urho3D::UIElement &gt; &gt;</text>
</a>
</g>
<!-- Node12&#45;&gt;Node5 -->
<g id="edge24" class="edge"><title>Node12&#45;&gt;Node5</title>
<path fill="none" stroke="#9a32cd" stroke-dasharray="5,2" d="M587.918,-628.023C640.833,-622.457 697.036,-612.522 716,-594.921 740.493,-572.19 724.653,-554.004 734,-521.921 751.982,-460.201 778.136,-387.626 788.019,-360.689"/>
<polygon fill="#9a32cd" stroke="#9a32cd" points="587.339,-624.563 577.739,-629.045 588.039,-631.528 587.339,-624.563"/>
<text text-anchor="middle" x="656" y="-629.921" font-family="FreeSans" font-size="10.00"> children_</text>
</g>
<!-- Node13 -->
<g id="node25" class="node"><title>Node13</title>
<a xlink:href="class_urho3_d_1_1_vector_base.html" target="_top" xlink:title="Vector base class.">
<polygon fill="none" stroke="black" points="44,-656.421 44,-677.421 158,-677.421 158,-656.421 44,-656.421"/>
<text text-anchor="middle" x="101" y="-664.421" font-family="FreeSans" font-size="10.00">Urho3D::VectorBase</text>
</a>
</g>
<!-- Node13&#45;&gt;Node12 -->
<g id="edge26" class="edge"><title>Node13&#45;&gt;Node12</title>
<path fill="none" stroke="midnightblue" d="M168.709,-661.189C227.57,-656.206 313.609,-648.923 380.165,-643.288"/>
<polygon fill="midnightblue" stroke="midnightblue" points="168.079,-657.73 158.41,-662.061 168.67,-664.705 168.079,-657.73"/>
</g>
<!-- Node25 -->
<g id="node64" class="node"><title>Node25</title>
<a xlink:href="class_urho3_d_1_1_p_o_d_vector.html" target="_top" xlink:title="Urho3D::PODVector\&lt;\l unsigned \&gt;">
<polygon fill="none" stroke="black" points="596.5,-653.921 596.5,-687.921 715.5,-687.921 715.5,-653.921 596.5,-653.921"/>
<text text-anchor="start" x="604.5" y="-674.921" font-family="FreeSans" font-size="10.00">Urho3D::PODVector&lt;</text>
<text text-anchor="middle" x="656" y="-661.921" font-family="FreeSans" font-size="10.00"> unsigned &gt;</text>
</a>
</g>
<!-- Node13&#45;&gt;Node25 -->
<g id="edge82" class="edge"><title>Node13&#45;&gt;Node25</title>
<path fill="none" stroke="midnightblue" d="M168.294,-667.406C277.671,-668.195 492.254,-669.741 596.431,-670.492"/>
<polygon fill="midnightblue" stroke="midnightblue" points="168.07,-663.905 158.045,-667.333 168.02,-670.905 168.07,-663.905"/>
</g>
<!-- Node14 -->
<g id="node27" class="node"><title>Node14</title>
<a xlink:href="class_urho3_d_1_1_hash_map.html" target="_top" xlink:title="Urho3D::HashMap\&lt; StringHash,\l Variant \&gt;">
<polygon fill="none" stroke="red" points="393,-565.921 393,-599.921 565,-599.921 565,-565.921 393,-565.921"/>
<text text-anchor="start" x="401" y="-586.921" font-family="FreeSans" font-size="10.00">Urho3D::HashMap&lt; StringHash,</text>
<text text-anchor="middle" x="479" y="-573.921" font-family="FreeSans" font-size="10.00"> Variant &gt;</text>
</a>
</g>
<!-- Node14&#45;&gt;Node5 -->
<g id="edge28" class="edge"><title>Node14&#45;&gt;Node5</title>
<path fill="none" stroke="#9a32cd" stroke-dasharray="5,2" d="M575.317,-580.665C631.046,-577.484 694.335,-570.059 716,-552.921 732.159,-540.139 776.29,-400.666 788.709,-360.616"/>
<polygon fill="#9a32cd" stroke="#9a32cd" points="574.812,-577.187 565.011,-581.211 575.182,-584.177 574.812,-577.187"/>
<text text-anchor="middle" x="656" y="-581.921" font-family="FreeSans" font-size="10.00"> vars_</text>
</g>
<!-- Node15 -->
<g id="node30" class="node"><title>Node15</title>
<a xlink:href="class_urho3_d_1_1_string.html" target="_top" xlink:title="String class.">
<polygon fill="none" stroke="black" points="57,-488.421 57,-509.421 145,-509.421 145,-488.421 57,-488.421"/>
<text text-anchor="middle" x="101" y="-496.421" font-family="FreeSans" font-size="10.00">Urho3D::String</text>
</a>
</g>
<!-- Node15&#45;&gt;Node5 -->
<g id="edge32" class="edge"><title>Node15&#45;&gt;Node5</title>
<path fill="none" stroke="#9a32cd" stroke-dasharray="5,2" d="M155.395,-497.452C287.159,-493.094 619.675,-477.097 716,-424.921 745.992,-408.676 772.132,-377.038 784.464,-360.527"/>
<polygon fill="#9a32cd" stroke="#9a32cd" points="155.023,-493.962 145.14,-497.781 155.247,-500.958 155.023,-493.962"/>
<text text-anchor="middle" x="479" y="-501.921" font-family="FreeSans" font-size="10.00"> appliedStyle_</text>
<text text-anchor="middle" x="479" y="-488.921" font-family="FreeSans" font-size="10.00">name_</text>
</g>
<!-- Node15&#45;&gt;Node15 -->
<g id="edge34" class="edge"><title>Node15&#45;&gt;Node15</title>
<path fill="none" stroke="#9a32cd" stroke-dasharray="5,2" d="M65.5287,-518.22C66.986,-523.702 78.8098,-527.921 101,-527.921 134.027,-527.921 144.09,-518.575 131.189,-509.629"/>
<polygon fill="#9a32cd" stroke="#9a32cd" points="68.5545,-519.981 70.8109,-509.629 62.5916,-516.315 68.5545,-519.981"/>
<text text-anchor="middle" x="101" y="-531.921" font-family="FreeSans" font-size="10.00"> EMPTY</text>
</g>
<!-- Node16 -->
<g id="node33" class="node"><title>Node16</title>
<a xlink:href="class_urho3_d_1_1_x_path_query.html" target="_top" xlink:title="XPath query.">
<polygon fill="none" stroke="black" points="421.5,-526.421 421.5,-547.421 536.5,-547.421 536.5,-526.421 421.5,-526.421"/>
<text text-anchor="middle" x="479" y="-534.421" font-family="FreeSans" font-size="10.00">Urho3D::XPathQuery</text>
</a>
</g>
<!-- Node15&#45;&gt;Node16 -->
<g id="edge38" class="edge"><title>Node15&#45;&gt;Node16</title>
<path fill="none" stroke="#9a32cd" stroke-dasharray="5,2" d="M155.133,-504.363C225.793,-511.467 348.95,-523.848 421.318,-531.123"/>
<polygon fill="#9a32cd" stroke="#9a32cd" points="155.401,-500.873 145.101,-503.355 154.701,-507.838 155.401,-500.873"/>
<text text-anchor="middle" x="291" y="-527.921" font-family="FreeSans" font-size="10.00"> queryString_</text>
</g>
<!-- Node16&#45;&gt;Node5 -->
<g id="edge36" class="edge"><title>Node16&#45;&gt;Node5</title>
<path fill="none" stroke="#9a32cd" stroke-dasharray="5,2" d="M546.944,-540.624C598.013,-540.001 667.269,-531.532 716,-495.921 763.528,-461.19 783.777,-387.816 789.874,-360.479"/>
<polygon fill="#9a32cd" stroke="#9a32cd" points="546.653,-537.125 536.661,-540.648 546.669,-544.125 546.653,-537.125"/>
<text text-anchor="middle" x="656" y="-539.921" font-family="FreeSans" font-size="10.00"> styleXPathQuery_</text>
</g>
<!-- Node17 -->
<g id="node36" class="node"><title>Node17</title>
<a xlink:href="class_urho3_d_1_1_shared_ptr.html" target="_top" xlink:title="Urho3D::SharedPtr\&lt;\l Urho3D::XMLFile \&gt;">
<polygon fill="none" stroke="red" points="421,-411.921 421,-445.921 537,-445.921 537,-411.921 421,-411.921"/>
<text text-anchor="start" x="429" y="-432.921" font-family="FreeSans" font-size="10.00">Urho3D::SharedPtr&lt;</text>
<text text-anchor="middle" x="479" y="-419.921" font-family="FreeSans" font-size="10.00"> Urho3D::XMLFile &gt;</text>
</a>
</g>
<!-- Node17&#45;&gt;Node5 -->
<g id="edge40" class="edge"><title>Node17&#45;&gt;Node5</title>
<path fill="none" stroke="#9a32cd" stroke-dasharray="5,2" d="M547.084,-418.053C594.875,-409.648 659.993,-396.63 716,-379.921 733.943,-374.569 753.588,-366.76 768.41,-360.451"/>
<polygon fill="#9a32cd" stroke="#9a32cd" points="546.412,-414.617 537.159,-419.776 547.61,-421.514 546.412,-414.617"/>
<text text-anchor="middle" x="656" y="-411.921" font-family="FreeSans" font-size="10.00"> defaultStyle_</text>
</g>
<!-- Node18 -->
<g id="node38" class="node"><title>Node18</title>
<a xlink:href="class_urho3_d_1_1_int_vector2.html" target="_top" xlink:title="Two&#45;dimensional vector with integer values.">
<polygon fill="none" stroke="black" points="425,-29.4214 425,-50.4214 533,-50.4214 533,-29.4214 425,-29.4214"/>
<text text-anchor="middle" x="479" y="-37.4214" font-family="FreeSans" font-size="10.00">Urho3D::IntVector2</text>
</a>
</g>
<!-- Node18&#45;&gt;Node2 -->
<g id="edge62" class="edge"><title>Node18&#45;&gt;Node2</title>
<path fill="none" stroke="#9a32cd" stroke-dasharray="5,2" d="M543.13,-49.5815C603.002,-59.4313 687.303,-75.6772 716,-92.9214 726.537,-99.253 723.054,-108.327 734,-113.921 847.096,-171.723 1244.91,-172.86 1377.57,-171.561"/>
<polygon fill="#9a32cd" stroke="#9a32cd" points="543.432,-46.0847 533,-47.9373 542.31,-52.9943 543.432,-46.0847"/>
<text text-anchor="middle" x="1042" y="-170.921" font-family="FreeSans" font-size="10.00"> popupOffset_</text>
</g>
<!-- Node18&#45;&gt;Node3 -->
<g id="edge56" class="edge"><title>Node18&#45;&gt;Node3</title>
<path fill="none" stroke="#9a32cd" stroke-dasharray="5,2" d="M543.221,-27.7519C635.964,-11.9408 812.66,11.5753 962,-6.92139 1069.34,-20.2167 1192.52,-57.8441 1248.89,-76.3621"/>
<polygon fill="#9a32cd" stroke="#9a32cd" points="542.407,-24.3407 533.151,-29.495 543.601,-31.2381 542.407,-24.3407"/>
<text text-anchor="start" x="868" y="-36.9214" font-family="FreeSans" font-size="10.00"> pressedChildOffset</text>
<text text-anchor="middle" x="915" y="-23.9214" font-family="FreeSans" font-size="10.00">_</text>
<text text-anchor="middle" x="915" y="-10.9214" font-family="FreeSans" font-size="10.00">pressedOffset_</text>
</g>
<!-- Node18&#45;&gt;Node4 -->
<g id="edge54" class="edge"><title>Node18&#45;&gt;Node4</title>
<path fill="none" stroke="#9a32cd" stroke-dasharray="5,2" d="M543.31,-38.8534C617.414,-38.2317 742.768,-39.0495 850,-48.9214 900.204,-53.5433 912.61,-56.7982 962,-66.9214 975.324,-69.6522 989.775,-73.1105 1002.68,-76.3802"/>
<polygon fill="#9a32cd" stroke="#9a32cd" points="543.167,-35.3545 533.201,-38.9499 543.234,-42.3542 543.167,-35.3545"/>
<text text-anchor="middle" x="792" y="-52.9214" font-family="FreeSans" font-size="10.00"> hoverOffset_</text>
</g>
<!-- Node18&#45;&gt;Node5 -->
<g id="edge42" class="edge"><title>Node18&#45;&gt;Node5</title>
<path fill="none" stroke="#9a32cd" stroke-dasharray="5,2" d="M516.742,-54.5108C536.312,-63.2233 559.85,-75.5878 578,-90.9214 588.185,-99.5262 585.3,-106.966 596,-114.921 641.585,-148.817 680.229,-114.793 716,-158.921 751.345,-202.524 710.5,-232.949 734,-283.921 744.474,-306.64 765.331,-327.337 778.97,-339.278"/>
<polygon fill="#9a32cd" stroke="#9a32cd" points="518.063,-51.2691 507.494,-50.5301 515.295,-57.6987 518.063,-51.2691"/>
<text text-anchor="middle" x="656" y="-240.921" font-family="FreeSans" font-size="10.00"> maxSize_</text>
<text text-anchor="middle" x="656" y="-227.921" font-family="FreeSans" font-size="10.00">childOffset_</text>
<text text-anchor="middle" x="656" y="-214.921" font-family="FreeSans" font-size="10.00">size_</text>
<text text-anchor="middle" x="656" y="-201.921" font-family="FreeSans" font-size="10.00">position_</text>
<text text-anchor="start" x="621" y="-188.921" font-family="FreeSans" font-size="10.00">screenPosition</text>
<text text-anchor="middle" x="656" y="-175.921" font-family="FreeSans" font-size="10.00">_</text>
<text text-anchor="middle" x="656" y="-162.921" font-family="FreeSans" font-size="10.00">minSize_</text>
</g>
<!-- Node18&#45;&gt;Node18 -->
<g id="edge44" class="edge"><title>Node18&#45;&gt;Node18</title>
<path fill="none" stroke="#9a32cd" stroke-dasharray="5,2" d="M446.252,-59.6004C448.007,-64.896 458.923,-68.9214 479,-68.9214 509.594,-68.9214 518.915,-59.5745 506.965,-50.6292"/>
<polygon fill="#9a32cd" stroke="#9a32cd" points="449.419,-61.1001 451.035,-50.6292 443.242,-57.8066 449.419,-61.1001"/>
<text text-anchor="middle" x="479" y="-72.9214" font-family="FreeSans" font-size="10.00"> ZERO</text>
</g>
<!-- Node18&#45;&gt;Node24 -->
<g id="edge76" class="edge"><title>Node18&#45;&gt;Node24</title>
<path fill="none" stroke="#9a32cd" stroke-dasharray="5,2" d="M509.901,-54.8848C533.165,-65.7152 566.06,-80.1142 596,-89.9214 648.045,-106.969 673.375,-83.5349 716,-117.921 730.545,-129.655 719.793,-143.781 734,-155.921 814.295,-224.536 888.194,-147.371 962,-222.921 983.547,-244.977 956.974,-269.415 980,-289.921 1015.35,-321.407 1149.99,-326.39 1226.34,-326.59"/>
<polygon fill="#9a32cd" stroke="#9a32cd" points="511.095,-51.5786 500.557,-50.4855 508.113,-57.9118 511.095,-51.5786"/>
<text text-anchor="middle" x="915" y="-278.921" font-family="FreeSans" font-size="10.00"> viewPositionAttr_</text>
<text text-anchor="middle" x="915" y="-265.921" font-family="FreeSans" font-size="10.00">viewSize_</text>
<text text-anchor="start" x="872.5" y="-252.921" font-family="FreeSans" font-size="10.00">touchScrollSpeed</text>
<text text-anchor="middle" x="915" y="-239.921" font-family="FreeSans" font-size="10.00">_</text>
<text text-anchor="middle" x="915" y="-226.921" font-family="FreeSans" font-size="10.00">viewPosition_</text>
</g>
<!-- Node19 -->
<g id="node41" class="node"><title>Node19</title>
<a xlink:href="class_urho3_d_1_1_color.html" target="_top" xlink:title="RGBA color.">
<polygon fill="none" stroke="black" points="437,-211.421 437,-232.421 521,-232.421 521,-211.421 437,-211.421"/>
<text text-anchor="middle" x="479" y="-219.421" font-family="FreeSans" font-size="10.00">Urho3D::Color</text>
</a>
</g>
<!-- Node19&#45;&gt;Node5 -->
<g id="edge46" class="edge"><title>Node19&#45;&gt;Node5</title>
<path fill="none" stroke="#9a32cd" stroke-dasharray="5,2" d="M493.179,-240.599C513.12,-265.309 551.975,-308.052 596,-327.921 620.422,-338.943 688.234,-344.711 737.258,-347.53"/>
<polygon fill="#9a32cd" stroke="#9a32cd" points="495.875,-238.366 486.937,-232.678 490.377,-242.698 495.875,-238.366"/>
<text text-anchor="middle" x="656" y="-362.921" font-family="FreeSans" font-size="10.00"> derivedColor_</text>
<text text-anchor="middle" x="656" y="-349.921" font-family="FreeSans" font-size="10.00">color_</text>
</g>
<!-- Node19&#45;&gt;Node19 -->
<g id="edge48" class="edge"><title>Node19&#45;&gt;Node19</title>
<path fill="none" stroke="#9a32cd" stroke-dasharray="5,2" d="M446.252,-241.6C448.007,-246.896 458.923,-250.921 479,-250.921 509.594,-250.921 518.915,-241.575 506.965,-232.629"/>
<polygon fill="#9a32cd" stroke="#9a32cd" points="449.419,-243.1 451.035,-232.629 443.242,-239.807 449.419,-243.1"/>
<text text-anchor="middle" x="479" y="-384.921" font-family="FreeSans" font-size="10.00"> CYAN</text>
<text text-anchor="middle" x="479" y="-371.921" font-family="FreeSans" font-size="10.00">GRAY</text>
<text text-anchor="middle" x="479" y="-358.921" font-family="FreeSans" font-size="10.00">YELLOW</text>
<text text-anchor="middle" x="479" y="-345.921" font-family="FreeSans" font-size="10.00">MAGENTA</text>
<text text-anchor="middle" x="479" y="-332.921" font-family="FreeSans" font-size="10.00">WHITE</text>
<text text-anchor="middle" x="479" y="-319.921" font-family="FreeSans" font-size="10.00">TRANSPARENT</text>
<text text-anchor="middle" x="479" y="-306.921" font-family="FreeSans" font-size="10.00">BLUE</text>
<text text-anchor="middle" x="479" y="-293.921" font-family="FreeSans" font-size="10.00">BLACK</text>
<text text-anchor="middle" x="479" y="-280.921" font-family="FreeSans" font-size="10.00">RED</text>
<text text-anchor="middle" x="479" y="-267.921" font-family="FreeSans" font-size="10.00">GREEN</text>
<text text-anchor="middle" x="479" y="-254.921" font-family="FreeSans" font-size="10.00">...</text>
</g>
<!-- Node20 -->
<g id="node45" class="node"><title>Node20</title>
<a xlink:href="class_urho3_d_1_1_shared_ptr.html" target="_top" xlink:title="Urho3D::SharedPtr\&lt;\l Urho3D::Texture \&gt;">
<polygon fill="none" stroke="red" points="734,-70.9214 734,-104.921 850,-104.921 850,-70.9214 734,-70.9214"/>
<text text-anchor="start" x="742" y="-91.9214" font-family="FreeSans" font-size="10.00">Urho3D::SharedPtr&lt;</text>
<text text-anchor="middle" x="792" y="-78.9214" font-family="FreeSans" font-size="10.00"> Urho3D::Texture &gt;</text>
</a>
</g>
<!-- Node20&#45;&gt;Node4 -->
<g id="edge52" class="edge"><title>Node20&#45;&gt;Node4</title>
<path fill="none" stroke="#9a32cd" stroke-dasharray="5,2" d="M860.356,-74.7283C862.932,-74.4224 865.486,-74.151 868,-73.9214 909.605,-70.1214 920.358,-70.56 962,-73.9214 969.153,-74.4988 976.631,-75.3621 984.021,-76.3744"/>
<polygon fill="#9a32cd" stroke="#9a32cd" points="859.805,-71.2708 850.356,-76.0635 860.731,-78.2092 859.805,-71.2708"/>
<text text-anchor="middle" x="915" y="-77.9214" font-family="FreeSans" font-size="10.00"> texture_</text>
</g>
<!-- Node21&#45;&gt;Node1 -->
<g id="edge64" class="edge"><title>Node21&#45;&gt;Node1</title>
<path fill="none" stroke="#9a32cd" stroke-dasharray="5,2" d="M1114.04,-251.929C1161.12,-245.111 1224.04,-237.921 1280,-237.921 1280,-237.921 1280,-237.921 1586,-237.921 1632.24,-237.921 1684.46,-237.921 1724.08,-237.921"/>
<polygon fill="#9a32cd" stroke="#9a32cd" points="1113.32,-248.497 1103.94,-253.421 1114.34,-255.422 1113.32,-248.497"/>
<text text-anchor="middle" x="1421" y="-241.921" font-family="FreeSans" font-size="10.00"> placeholder_</text>
</g>
<!-- Node21&#45;&gt;Node2 -->
<g id="edge58" class="edge"><title>Node21&#45;&gt;Node2</title>
<path fill="none" stroke="#9a32cd" stroke-dasharray="5,2" d="M1080.2,-242.015C1093.13,-235.366 1107.88,-228.592 1122,-223.921 1210.34,-194.692 1318.99,-180.574 1377.96,-174.624"/>
<polygon fill="#9a32cd" stroke="#9a32cd" points="1078.35,-239.036 1071.14,-246.803 1081.62,-245.226 1078.35,-239.036"/>
<text text-anchor="middle" x="1280" y="-199.921" font-family="FreeSans" font-size="10.00"> popup_</text>
</g>
<!-- Node23 -->
<g id="node56" class="node"><title>Node23</title>
<a xlink:href="class_urho3_d_1_1_list_view.html" target="_top" xlink:title="Scrollable list UI element.">
<polygon fill="none" stroke="black" points="1372,-290.421 1372,-311.421 1470,-311.421 1470,-290.421 1372,-290.421"/>
<text text-anchor="middle" x="1421" y="-298.421" font-family="FreeSans" font-size="10.00">Urho3D::ListView</text>
</a>
</g>
<!-- Node21&#45;&gt;Node23 -->
<g id="edge78" class="edge"><title>Node21&#45;&gt;Node23</title>
<path fill="none" stroke="#9a32cd" stroke-dasharray="5,2" d="M1113.66,-269.595C1142.92,-272.009 1177.1,-274.95 1208,-277.921 1264.28,-283.332 1328.81,-290.426 1371.97,-295.297"/>
<polygon fill="#9a32cd" stroke="#9a32cd" points="1113.77,-266.093 1103.52,-268.765 1113.2,-273.07 1113.77,-266.093"/>
<text text-anchor="middle" x="1280" y="-294.921" font-family="FreeSans" font-size="10.00"> overlayContainer_</text>
</g>
<!-- Node21&#45;&gt;Node24 -->
<g id="edge74" class="edge"><title>Node21&#45;&gt;Node24</title>
<path fill="none" stroke="#9a32cd" stroke-dasharray="5,2" d="M1113.91,-275.905C1143.35,-281.519 1177.58,-288.962 1208,-297.921 1224.21,-302.696 1241.91,-309.554 1255.7,-315.287"/>
<polygon fill="#9a32cd" stroke="#9a32cd" points="1114.18,-272.395 1103.71,-273.996 1112.89,-279.276 1114.18,-272.395"/>
<text text-anchor="middle" x="1165" y="-301.921" font-family="FreeSans" font-size="10.00"> contentElement_</text>
</g>
<!-- Node22 -->
<g id="node54" class="node"><title>Node22</title>
<a xlink:href="class_urho3_d_1_1_shared_ptr.html" target="_top" xlink:title="Urho3D::SharedPtr\&lt;\l Urho3D::ListView \&gt;">
<polygon fill="none" stroke="black" points="1528,-269.921 1528,-303.921 1644,-303.921 1644,-269.921 1528,-269.921"/>
<text text-anchor="start" x="1536" y="-290.921" font-family="FreeSans" font-size="10.00">Urho3D::SharedPtr&lt;</text>
<text text-anchor="middle" x="1586" y="-277.921" font-family="FreeSans" font-size="10.00"> Urho3D::ListView &gt;</text>
</a>
</g>
<!-- Node22&#45;&gt;Node1 -->
<g id="edge66" class="edge"><title>Node22&#45;&gt;Node1</title>
<path fill="none" stroke="#9a32cd" stroke-dasharray="5,2" d="M1654.01,-270.341C1683.66,-263.113 1717.54,-254.854 1743.68,-248.481"/>
<polygon fill="#9a32cd" stroke="#9a32cd" points="1653.02,-266.98 1644.14,-272.749 1654.68,-273.78 1653.02,-266.98"/>
<text text-anchor="middle" x="1684" y="-271.921" font-family="FreeSans" font-size="10.00"> listView_</text>
</g>
<!-- Node23&#45;&gt;Node22 -->
<g id="edge68" class="edge"><title>Node23&#45;&gt;Node22</title>
<path fill="none" stroke="#9a32cd" stroke-dasharray="5,2" d="M1480.07,-295.91C1495.6,-294.592 1512.34,-293.172 1527.82,-291.858"/>
<polygon fill="#9a32cd" stroke="#9a32cd" points="1479.73,-292.426 1470.06,-296.759 1480.32,-299.401 1479.73,-292.426"/>
<text text-anchor="middle" x="1499" y="-298.921" font-family="FreeSans" font-size="10.00"> ptr_</text>
</g>
<!-- Node24&#45;&gt;Node23 -->
<g id="edge70" class="edge"><title>Node24&#45;&gt;Node23</title>
<path fill="none" stroke="midnightblue" d="M1343.76,-314.617C1353.1,-312.96 1362.61,-311.274 1371.61,-309.678"/>
<polygon fill="midnightblue" stroke="midnightblue" points="1342.94,-311.206 1333.71,-316.399 1344.17,-318.099 1342.94,-311.206"/>
</g>
<!-- Node25&#45;&gt;Node23 -->
<g id="edge80" class="edge"><title>Node25&#45;&gt;Node23</title>
<path fill="none" stroke="#9a32cd" stroke-dasharray="5,2" d="M702.78,-649.405C707.264,-647.248 711.73,-645.064 716,-642.921 805.757,-597.893 814.581,-535.921 915,-535.921 915,-535.921 915,-535.921 1280,-535.921 1386.1,-535.921 1414.35,-357.602 1419.86,-311.63"/>
<polygon fill="#9a32cd" stroke="#9a32cd" points="701.131,-646.314 693.605,-653.771 704.139,-652.635 701.131,-646.314"/>
<text text-anchor="middle" x="1042" y="-539.921" font-family="FreeSans" font-size="10.00"> selections_</text>
</g>
</g>
</svg>
