<?xml version="1.0" encoding="UTF-8" standalone="no"?>
<!DOCTYPE svg PUBLIC "-//W3C//DTD SVG 1.1//EN"
 "http://www.w3.org/Graphics/SVG/1.1/DTD/svg11.dtd">
<!-- Generated by graphviz version 2.26.3 (20100126.1600)
 -->
<!-- Title: Urho3D::Script Pages: 1 -->
<svg width="1186pt" height="1050pt"
 viewBox="0.00 0.00 1186.00 1050.35" xmlns="http://www.w3.org/2000/svg" xmlns:xlink="http://www.w3.org/1999/xlink">
<g id="graph1" class="graph" transform="scale(1 1) rotate(0) translate(4 1046.35)">
<title>Urho3D::Script</title>
<!-- Node1 -->
<g id="node1" class="node"><title>Node1</title>
<polygon fill="#bfbfbf" stroke="black" points="1061.5,-820.848 1061.5,-841.848 1148.5,-841.848 1148.5,-820.848 1061.5,-820.848"/>
<text text-anchor="middle" x="1105" y="-828.848" font-family="FreeSans" font-size="10.00">Urho3D::Script</text>
</g>
<!-- Node2 -->
<g id="node2" class="node"><title>Node2</title>
<a xlink:href="class_urho3_d_1_1_object.html" target="_top" xlink:title="Base class for objects with type identification, subsystem access and event sending/receiving capabil...">
<polygon fill="none" stroke="black" points="450,-720.848 450,-741.848 540,-741.848 540,-720.848 450,-720.848"/>
<text text-anchor="middle" x="495" y="-728.848" font-family="FreeSans" font-size="10.00">Urho3D::Object</text>
</a>
</g>
<!-- Node2&#45;&gt;Node1 -->
<g id="edge2" class="edge"><title>Node2&#45;&gt;Node1</title>
<path fill="none" stroke="midnightblue" d="M528.542,-745.698C541.319,-750.676 556.141,-755.875 570,-759.348 615.24,-770.686 627.778,-767.127 674,-773.348 815.609,-792.408 983.389,-814.985 1061.26,-825.462"/>
<polygon fill="midnightblue" stroke="midnightblue" points="529.805,-742.433 519.22,-741.966 527.203,-748.932 529.805,-742.433"/>
</g>
<!-- Node8 -->
<g id="node15" class="node"><title>Node8</title>
<a xlink:href="class_urho3_d_1_1_event_handler.html" target="_top" xlink:title="Internal helper class for invoking event handler functions.">
<polygon fill="none" stroke="red" points="715,-606.848 715,-627.848 839,-627.848 839,-606.848 715,-606.848"/>
<text text-anchor="middle" x="777" y="-614.848" font-family="FreeSans" font-size="10.00">Urho3D::EventHandler</text>
</a>
</g>
<!-- Node2&#45;&gt;Node8 -->
<g id="edge18" class="edge"><title>Node2&#45;&gt;Node8</title>
<path fill="none" stroke="#9a32cd" stroke-dasharray="5,2" d="M519.726,-715.363C553.321,-694.361 615.877,-657.757 674,-637.348 686.976,-632.792 701.258,-629.184 714.945,-626.36"/>
<polygon fill="#9a32cd" stroke="#9a32cd" points="517.631,-712.547 511.046,-720.847 521.37,-718.465 517.631,-712.547"/>
<text text-anchor="middle" x="613" y="-699.348" font-family="FreeSans" font-size="10.00"> sender_</text>
<text text-anchor="middle" x="613" y="-686.348" font-family="FreeSans" font-size="10.00">receiver_</text>
</g>
<!-- Node3 -->
<g id="node4" class="node"><title>Node3</title>
<a xlink:href="class_urho3_d_1_1_ref_counted.html" target="_top" xlink:title="Base class for intrusively reference&#45;counted objects. These are noncopyable and non&#45;assignable.">
<polygon fill="none" stroke="black" points="204,-720.848 204,-741.848 318,-741.848 318,-720.848 204,-720.848"/>
<text text-anchor="middle" x="261" y="-728.848" font-family="FreeSans" font-size="10.00">Urho3D::RefCounted</text>
</a>
</g>
<!-- Node3&#45;&gt;Node2 -->
<g id="edge4" class="edge"><title>Node3&#45;&gt;Node2</title>
<path fill="none" stroke="midnightblue" d="M328.446,-731.348C367.366,-731.348 415.26,-731.348 449.684,-731.348"/>
<polygon fill="midnightblue" stroke="midnightblue" points="328.243,-727.848 318.243,-731.348 328.243,-734.848 328.243,-727.848"/>
</g>
<!-- Node5 -->
<g id="node8" class="node"><title>Node5</title>
<a xlink:href="class_urho3_d_1_1_context.html" target="_top" xlink:title="Urho3D execution context. Provides access to subsystems, object factories and attributes, and event receivers.">
<polygon fill="none" stroke="black" points="1056.5,-322.848 1056.5,-343.848 1153.5,-343.848 1153.5,-322.848 1056.5,-322.848"/>
<text text-anchor="middle" x="1105" y="-330.848" font-family="FreeSans" font-size="10.00">Urho3D::Context</text>
</a>
</g>
<!-- Node3&#45;&gt;Node5 -->
<g id="edge10" class="edge"><title>Node3&#45;&gt;Node5</title>
<path fill="none" stroke="midnightblue" d="M263.892,-710.912C280.006,-606.256 369.265,-131.54 674,-36.3483 819.334,9.0506 904.255,27.1935 1014,-78.3483 1087.69,-149.216 1101.85,-283.732 1104.44,-322.589"/>
<polygon fill="midnightblue" stroke="midnightblue" points="260.424,-710.436 262.415,-720.842 267.348,-711.466 260.424,-710.436"/>
</g>
<!-- Node4 -->
<g id="node6" class="node"><title>Node4</title>
<a xlink:href="struct_urho3_d_1_1_ref_count.html" target="_top" xlink:title="Reference count structure.">
<polygon fill="none" stroke="black" points="0,-849.848 0,-870.848 102,-870.848 102,-849.848 0,-849.848"/>
<text text-anchor="middle" x="51" y="-857.848" font-family="FreeSans" font-size="10.00">Urho3D::RefCount</text>
</a>
</g>
<!-- Node4&#45;&gt;Node3 -->
<g id="edge6" class="edge"><title>Node4&#45;&gt;Node3</title>
<path fill="none" stroke="#9a32cd" stroke-dasharray="5,2" d="M95.6504,-844.934C97.8831,-843.525 100.018,-841.999 102,-840.348 113.656,-830.639 109.064,-821.862 120,-811.348 153.782,-778.872 203.265,-754.799 233.736,-741.937"/>
<polygon fill="#9a32cd" stroke="#9a32cd" points="93.7931,-841.959 86.669,-849.801 97.1286,-848.113 93.7931,-841.959"/>
<text text-anchor="middle" x="145" y="-815.348" font-family="FreeSans" font-size="10.00"> refCount_</text>
</g>
<!-- Node18 -->
<g id="node43" class="node"><title>Node18</title>
<a xlink:href="class_urho3_d_1_1_weak_ptr.html" target="_top" xlink:title="Urho3D::WeakPtr\&lt; Urho3D\l::Scene \&gt;">
<polygon fill="none" stroke="black" points="704,-913.348 704,-947.348 850,-947.348 850,-913.348 704,-913.348"/>
<text text-anchor="start" x="712" y="-934.348" font-family="FreeSans" font-size="10.00">Urho3D::WeakPtr&lt; Urho3D</text>
<text text-anchor="middle" x="777" y="-921.348" font-family="FreeSans" font-size="10.00">::Scene &gt;</text>
</a>
</g>
<!-- Node4&#45;&gt;Node18 -->
<g id="edge64" class="edge"><title>Node4&#45;&gt;Node18</title>
<path fill="none" stroke="#9a32cd" stroke-dasharray="5,2" d="M112.283,-871.282C114.887,-871.659 117.468,-872.017 120,-872.348 331.181,-899.984 582.315,-918.079 703.865,-925.909"/>
<polygon fill="#9a32cd" stroke="#9a32cd" points="112.585,-867.787 102.171,-869.741 111.53,-874.708 112.585,-867.787"/>
<text text-anchor="middle" x="386" y="-907.348" font-family="FreeSans" font-size="10.00"> refCount_</text>
</g>
<!-- Node24 -->
<g id="node61" class="node"><title>Node24</title>
<a xlink:href="class_urho3_d_1_1_weak_ptr.html" target="_top" xlink:title="Urho3D::WeakPtr\&lt; Urho3D\l::ScriptFile \&gt;">
<polygon fill="none" stroke="black" points="188,-830.348 188,-864.348 334,-864.348 334,-830.348 188,-830.348"/>
<text text-anchor="start" x="196" y="-851.348" font-family="FreeSans" font-size="10.00">Urho3D::WeakPtr&lt; Urho3D</text>
<text text-anchor="middle" x="261" y="-838.348" font-family="FreeSans" font-size="10.00">::ScriptFile &gt;</text>
</a>
</g>
<!-- Node4&#45;&gt;Node24 -->
<g id="edge80" class="edge"><title>Node4&#45;&gt;Node24</title>
<path fill="none" stroke="#9a32cd" stroke-dasharray="5,2" d="M112.332,-856.552C135.949,-855.09 163.152,-853.406 187.78,-851.881"/>
<polygon fill="#9a32cd" stroke="#9a32cd" points="111.868,-853.074 102.103,-857.185 112.3,-860.06 111.868,-853.074"/>
<text text-anchor="middle" x="145" y="-859.348" font-family="FreeSans" font-size="10.00"> refCount_</text>
</g>
<!-- Node5&#45;&gt;Node2 -->
<g id="edge8" class="edge"><title>Node5&#45;&gt;Node2</title>
<path fill="none" stroke="#9a32cd" stroke-dasharray="5,2" d="M1101.34,-354.03C1093.21,-393.475 1069.77,-479.347 1014,-522.348 892.36,-616.143 819.141,-534.07 674,-584.348 624.395,-601.532 610.564,-607.025 570,-640.348 540.26,-664.78 513.752,-702.405 501.769,-720.669"/>
<polygon fill="#9a32cd" stroke="#9a32cd" points="1104.82,-354.483 1103.28,-344.001 1097.94,-353.154 1104.82,-354.483"/>
<text text-anchor="middle" x="777" y="-588.348" font-family="FreeSans" font-size="10.00"> context_</text>
</g>
<!-- Node6 -->
<g id="node11" class="node"><title>Node6</title>
<a xlink:href="class_urho3_d_1_1_p_o_d_vector.html" target="_top" xlink:title="Urho3D::PODVector\&lt;\l Urho3D::Object * \&gt;">
<polygon fill="none" stroke="black" points="717.5,-505.348 717.5,-539.348 836.5,-539.348 836.5,-505.348 717.5,-505.348"/>
<text text-anchor="start" x="725.5" y="-526.348" font-family="FreeSans" font-size="10.00">Urho3D::PODVector&lt;</text>
<text text-anchor="middle" x="777" y="-513.348" font-family="FreeSans" font-size="10.00"> Urho3D::Object * &gt;</text>
</a>
</g>
<!-- Node6&#45;&gt;Node5 -->
<g id="edge12" class="edge"><title>Node6&#45;&gt;Node5</title>
<path fill="none" stroke="#9a32cd" stroke-dasharray="5,2" d="M846.636,-515.815C896.897,-508.272 964.369,-492.071 1014,-457.348 1057.76,-426.734 1088.69,-368.271 1100.12,-344.158"/>
<polygon fill="#9a32cd" stroke="#9a32cd" points="845.913,-512.383 836.505,-517.254 846.898,-519.313 845.913,-512.383"/>
<text text-anchor="middle" x="956" y="-509.348" font-family="FreeSans" font-size="10.00"> eventSenders_</text>
</g>
<!-- Node7 -->
<g id="node13" class="node"><title>Node7</title>
<a xlink:href="class_urho3_d_1_1_vector_base.html" target="_top" xlink:title="Vector base class.">
<polygon fill="none" stroke="black" points="438,-511.848 438,-532.848 552,-532.848 552,-511.848 438,-511.848"/>
<text text-anchor="middle" x="495" y="-519.848" font-family="FreeSans" font-size="10.00">Urho3D::VectorBase</text>
</a>
</g>
<!-- Node7&#45;&gt;Node6 -->
<g id="edge14" class="edge"><title>Node7&#45;&gt;Node6</title>
<path fill="none" stroke="midnightblue" d="M562.175,-522.348C609.277,-522.348 671.689,-522.348 717.098,-522.348"/>
<polygon fill="midnightblue" stroke="midnightblue" points="562.067,-518.848 552.067,-522.348 562.067,-525.848 562.067,-518.848"/>
</g>
<!-- Node13 -->
<g id="node28" class="node"><title>Node13</title>
<a xlink:href="class_urho3_d_1_1_p_o_d_vector.html" target="_top" xlink:title="Urho3D::PODVector\&lt;\l Urho3D::HashMap * \&gt;">
<polygon fill="none" stroke="black" points="713.5,-453.348 713.5,-487.348 840.5,-487.348 840.5,-453.348 713.5,-453.348"/>
<text text-anchor="start" x="721.5" y="-474.348" font-family="FreeSans" font-size="10.00">Urho3D::PODVector&lt;</text>
<text text-anchor="middle" x="777" y="-461.348" font-family="FreeSans" font-size="10.00"> Urho3D::HashMap * &gt;</text>
</a>
</g>
<!-- Node7&#45;&gt;Node13 -->
<g id="edge34" class="edge"><title>Node7&#45;&gt;Node13</title>
<path fill="none" stroke="midnightblue" d="M561.914,-510.009C607.776,-501.553 668.243,-490.403 713.381,-482.079"/>
<polygon fill="midnightblue" stroke="midnightblue" points="561.266,-506.57 552.067,-511.825 562.536,-513.454 561.266,-506.57"/>
</g>
<!-- Node22 -->
<g id="node54" class="node"><title>Node22</title>
<a xlink:href="class_urho3_d_1_1_vector.html" target="_top" xlink:title="Urho3D::Vector\&lt; asIScript\lContext * \&gt;">
<polygon fill="none" stroke="black" points="705.5,-698.348 705.5,-732.348 848.5,-732.348 848.5,-698.348 705.5,-698.348"/>
<text text-anchor="start" x="713.5" y="-719.348" font-family="FreeSans" font-size="10.00">Urho3D::Vector&lt; asIScript</text>
<text text-anchor="middle" x="777" y="-706.348" font-family="FreeSans" font-size="10.00">Context * &gt;</text>
</a>
</g>
<!-- Node7&#45;&gt;Node22 -->
<g id="edge68" class="edge"><title>Node7&#45;&gt;Node22</title>
<path fill="none" stroke="midnightblue" d="M505.661,-541.932C518.506,-564.055 541.902,-600.007 570,-623.348 602.72,-650.529 623.215,-638.246 656,-665.348 666.276,-673.844 662.901,-681.96 674,-689.348 683.442,-695.633 694.292,-700.399 705.328,-704.012"/>
<polygon fill="midnightblue" stroke="midnightblue" points="508.639,-540.088 500.671,-533.105 502.545,-543.533 508.639,-540.088"/>
</g>
<!-- Node8&#45;&gt;Node5 -->
<g id="edge16" class="edge"><title>Node8&#45;&gt;Node5</title>
<path fill="none" stroke="#9a32cd" stroke-dasharray="5,2" d="M849.305,-616.994C909.508,-615.249 989.24,-609.103 1014,-589.348 1054.93,-556.695 1093.3,-388.159 1102.78,-343.968"/>
<polygon fill="#9a32cd" stroke="#9a32cd" points="848.975,-613.502 839.068,-617.255 849.153,-620.499 848.975,-613.502"/>
<text text-anchor="middle" x="956" y="-618.348" font-family="FreeSans" font-size="10.00"> eventHandler_</text>
</g>
<!-- Node17 -->
<g id="node40" class="node"><title>Node17</title>
<a xlink:href="class_urho3_d_1_1_linked_list.html" target="_top" xlink:title="Urho3D::LinkedList\l\&lt; Urho3D::EventHandler \&gt;">
<polygon fill="none" stroke="black" points="1032,-690.348 1032,-724.348 1178,-724.348 1178,-690.348 1032,-690.348"/>
<text text-anchor="start" x="1040" y="-711.348" font-family="FreeSans" font-size="10.00">Urho3D::LinkedList</text>
<text text-anchor="middle" x="1105" y="-698.348" font-family="FreeSans" font-size="10.00">&lt; Urho3D::EventHandler &gt;</text>
</a>
</g>
<!-- Node8&#45;&gt;Node17 -->
<g id="edge50" class="edge"><title>Node8&#45;&gt;Node17</title>
<path fill="none" stroke="#9a32cd" stroke-dasharray="5,2" d="M845.501,-629.878C857.049,-632.211 868.89,-634.74 880,-637.348 940.149,-651.47 955.135,-655.58 1014,-674.348 1029.05,-679.147 1045.32,-684.871 1059.88,-690.194"/>
<polygon fill="#9a32cd" stroke="#9a32cd" points="845.943,-626.397 835.453,-627.881 844.579,-633.263 845.943,-626.397"/>
<text text-anchor="middle" x="956" y="-678.348" font-family="FreeSans" font-size="10.00"> head_</text>
</g>
<!-- Node9 -->
<g id="node18" class="node"><title>Node9</title>
<a xlink:href="class_urho3_d_1_1_hash_map.html" target="_top" xlink:title="Urho3D::HashMap\&lt; Urho3D\l::StringHash, Urho3D::\lHashSet\&lt; Urho3D::Object * \&gt; \&gt;">
<polygon fill="none" stroke="black" points="690.5,-309.848 690.5,-356.848 863.5,-356.848 863.5,-309.848 690.5,-309.848"/>
<text text-anchor="start" x="698.5" y="-343.848" font-family="FreeSans" font-size="10.00">Urho3D::HashMap&lt; Urho3D</text>
<text text-anchor="start" x="698.5" y="-330.848" font-family="FreeSans" font-size="10.00">::StringHash, Urho3D::</text>
<text text-anchor="middle" x="777" y="-317.848" font-family="FreeSans" font-size="10.00">HashSet&lt; Urho3D::Object * &gt; &gt;</text>
</a>
</g>
<!-- Node9&#45;&gt;Node5 -->
<g id="edge20" class="edge"><title>Node9&#45;&gt;Node5</title>
<path fill="none" stroke="#9a32cd" stroke-dasharray="5,2" d="M873.857,-333.348C933.8,-333.348 1008.21,-333.348 1056.14,-333.348"/>
<polygon fill="#9a32cd" stroke="#9a32cd" points="873.607,-329.848 863.607,-333.348 873.607,-336.848 873.607,-329.848"/>
<text text-anchor="middle" x="956" y="-337.348" font-family="FreeSans" font-size="10.00"> eventReceivers_</text>
</g>
<!-- Node10 -->
<g id="node20" class="node"><title>Node10</title>
<a xlink:href="class_urho3_d_1_1_hash_base.html" target="_top" xlink:title="Hash set/map base class.">
<polygon fill="none" stroke="red" points="441,-256.848 441,-277.848 549,-277.848 549,-256.848 441,-256.848"/>
<text text-anchor="middle" x="495" y="-264.848" font-family="FreeSans" font-size="10.00">Urho3D::HashBase</text>
</a>
</g>
<!-- Node10&#45;&gt;Node9 -->
<g id="edge22" class="edge"><title>Node10&#45;&gt;Node9</title>
<path fill="none" stroke="midnightblue" d="M549.804,-280.175C589.71,-289.514 644.561,-302.352 690.37,-313.073"/>
<polygon fill="midnightblue" stroke="midnightblue" points="550.53,-276.75 539.996,-277.879 548.935,-283.566 550.53,-276.75"/>
</g>
<!-- Node11 -->
<g id="node22" class="node"><title>Node11</title>
<a xlink:href="class_urho3_d_1_1_hash_map.html" target="_top" xlink:title="Urho3D::HashMap\&lt; Urho3D\l::Object *, Urho3D::HashMap\l\&lt; Urho3D::StringHash, Urho3D\l::HashSet\&lt; Urho3D::Object * \&gt; \&gt; \&gt;">
<polygon fill="none" stroke="black" points="681.5,-375.348 681.5,-435.348 872.5,-435.348 872.5,-375.348 681.5,-375.348"/>
<text text-anchor="start" x="689.5" y="-422.348" font-family="FreeSans" font-size="10.00">Urho3D::HashMap&lt; Urho3D</text>
<text text-anchor="start" x="689.5" y="-409.348" font-family="FreeSans" font-size="10.00">::Object *, Urho3D::HashMap</text>
<text text-anchor="start" x="689.5" y="-396.348" font-family="FreeSans" font-size="10.00">&lt; Urho3D::StringHash, Urho3D</text>
<text text-anchor="middle" x="777" y="-383.348" font-family="FreeSans" font-size="10.00">::HashSet&lt; Urho3D::Object * &gt; &gt; &gt;</text>
</a>
</g>
<!-- Node10&#45;&gt;Node11 -->
<g id="edge26" class="edge"><title>Node10&#45;&gt;Node11</title>
<path fill="none" stroke="midnightblue" d="M522.541,-282.85C536.706,-290.803 554.259,-300.627 570,-309.348 616.106,-334.892 626.126,-344.296 674,-366.348 680.599,-369.388 687.509,-372.385 694.492,-375.284"/>
<polygon fill="midnightblue" stroke="midnightblue" points="524.208,-279.772 513.775,-277.925 520.779,-285.875 524.208,-279.772"/>
</g>
<!-- Node12 -->
<g id="node25" class="node"><title>Node12</title>
<a xlink:href="class_urho3_d_1_1_hash_map.html" target="_top" xlink:title="Urho3D::HashMap\&lt; Urho3D\l::StringHash, Urho3D::\lSharedPtr\&lt; Urho3D::Object \&gt; \&gt;">
<polygon fill="none" stroke="black" points="691,-177.848 691,-224.848 863,-224.848 863,-177.848 691,-177.848"/>
<text text-anchor="start" x="699" y="-211.848" font-family="FreeSans" font-size="10.00">Urho3D::HashMap&lt; Urho3D</text>
<text text-anchor="start" x="699" y="-198.848" font-family="FreeSans" font-size="10.00">::StringHash, Urho3D::</text>
<text text-anchor="middle" x="777" y="-185.848" font-family="FreeSans" font-size="10.00">SharedPtr&lt; Urho3D::Object &gt; &gt;</text>
</a>
</g>
<!-- Node10&#45;&gt;Node12 -->
<g id="edge30" class="edge"><title>Node10&#45;&gt;Node12</title>
<path fill="none" stroke="midnightblue" d="M549.843,-254.513C589.912,-245.135 645.035,-232.234 690.944,-221.489"/>
<polygon fill="midnightblue" stroke="midnightblue" points="548.935,-251.131 539.996,-256.817 550.53,-257.946 548.935,-251.131"/>
</g>
<!-- Node14 -->
<g id="node31" class="node"><title>Node14</title>
<a xlink:href="class_urho3_d_1_1_hash_map.html" target="_top" xlink:title="Urho3D::HashMap\&lt; Urho3D\l::StringHash, Urho3D::\lSharedPtr\&lt; Urho3D::ObjectFactory \&gt; \&gt;">
<polygon fill="none" stroke="black" points="674,-111.848 674,-158.848 880,-158.848 880,-111.848 674,-111.848"/>
<text text-anchor="start" x="682" y="-145.848" font-family="FreeSans" font-size="10.00">Urho3D::HashMap&lt; Urho3D</text>
<text text-anchor="start" x="682" y="-132.848" font-family="FreeSans" font-size="10.00">::StringHash, Urho3D::</text>
<text text-anchor="middle" x="777" y="-119.848" font-family="FreeSans" font-size="10.00">SharedPtr&lt; Urho3D::ObjectFactory &gt; &gt;</text>
</a>
</g>
<!-- Node10&#45;&gt;Node14 -->
<g id="edge38" class="edge"><title>Node10&#45;&gt;Node14</title>
<path fill="none" stroke="midnightblue" d="M520.526,-251.136C554.545,-230.026 617.08,-192.927 674,-168.348 681.671,-165.036 689.788,-161.878 697.963,-158.921"/>
<polygon fill="midnightblue" stroke="midnightblue" points="518.341,-248.375 511.716,-256.643 522.051,-254.311 518.341,-248.375"/>
</g>
<!-- Node15 -->
<g id="node34" class="node"><title>Node15</title>
<a xlink:href="class_urho3_d_1_1_hash_map.html" target="_top" xlink:title="Urho3D::HashMap\&lt; Urho3D\l::String, Urho3D::Vector\l\&lt; Urho3D::StringHash \&gt; \&gt;">
<polygon fill="none" stroke="black" points="701,-243.848 701,-290.848 853,-290.848 853,-243.848 701,-243.848"/>
<text text-anchor="start" x="709" y="-277.848" font-family="FreeSans" font-size="10.00">Urho3D::HashMap&lt; Urho3D</text>
<text text-anchor="start" x="709" y="-264.848" font-family="FreeSans" font-size="10.00">::String, Urho3D::Vector</text>
<text text-anchor="middle" x="777" y="-251.848" font-family="FreeSans" font-size="10.00">&lt; Urho3D::StringHash &gt; &gt;</text>
</a>
</g>
<!-- Node10&#45;&gt;Node15 -->
<g id="edge42" class="edge"><title>Node10&#45;&gt;Node15</title>
<path fill="none" stroke="midnightblue" d="M559.165,-267.348C601.239,-267.348 656.454,-267.348 700.766,-267.348"/>
<polygon fill="midnightblue" stroke="midnightblue" points="559.039,-263.848 549.039,-267.348 559.039,-270.848 559.039,-263.848"/>
</g>
<!-- Node16 -->
<g id="node37" class="node"><title>Node16</title>
<a xlink:href="class_urho3_d_1_1_hash_map.html" target="_top" xlink:title="Urho3D::HashMap\&lt; Urho3D\l::StringHash, Urho3D::\lVector\&lt; Urho3D::AttributeInfo \&gt; \&gt;">
<polygon fill="none" stroke="black" points="685.5,-45.8483 685.5,-92.8483 868.5,-92.8483 868.5,-45.8483 685.5,-45.8483"/>
<text text-anchor="start" x="693.5" y="-79.8483" font-family="FreeSans" font-size="10.00">Urho3D::HashMap&lt; Urho3D</text>
<text text-anchor="start" x="693.5" y="-66.8483" font-family="FreeSans" font-size="10.00">::StringHash, Urho3D::</text>
<text text-anchor="middle" x="777" y="-53.8483" font-family="FreeSans" font-size="10.00">Vector&lt; Urho3D::AttributeInfo &gt; &gt;</text>
</a>
</g>
<!-- Node10&#45;&gt;Node16 -->
<g id="edge46" class="edge"><title>Node10&#45;&gt;Node16</title>
<path fill="none" stroke="midnightblue" d="M507.878,-248.302C521.805,-228.504 545.342,-197.266 570,-174.348 611.179,-136.076 623.571,-127.195 674,-102.348 680.906,-98.9457 688.242,-95.7865 695.693,-92.8801"/>
<polygon fill="midnightblue" stroke="midnightblue" points="504.831,-246.554 502.018,-256.768 510.587,-250.537 504.831,-246.554"/>
</g>
<!-- Node23 -->
<g id="node58" class="node"><title>Node23</title>
<a xlink:href="class_urho3_d_1_1_hash_map.html" target="_top" xlink:title="Urho3D::HashMap\&lt; const\l char *, asIObjectType * \&gt;">
<polygon fill="none" stroke="black" points="706,-646.348 706,-680.348 848,-680.348 848,-646.348 706,-646.348"/>
<text text-anchor="start" x="714" y="-667.348" font-family="FreeSans" font-size="10.00">Urho3D::HashMap&lt; const</text>
<text text-anchor="middle" x="777" y="-654.348" font-family="FreeSans" font-size="10.00"> char *, asIObjectType * &gt;</text>
</a>
</g>
<!-- Node10&#45;&gt;Node23 -->
<g id="edge74" class="edge"><title>Node10&#45;&gt;Node23</title>
<path fill="none" stroke="midnightblue" d="M498.608,-287.686C510.82,-350.295 556.583,-541.671 674,-637.348 683.222,-644.863 694.335,-650.241 705.801,-654.083"/>
<polygon fill="midnightblue" stroke="midnightblue" points="502.047,-287.033 496.763,-277.849 495.167,-288.323 502.047,-287.033"/>
</g>
<!-- Node11&#45;&gt;Node5 -->
<g id="edge24" class="edge"><title>Node11&#45;&gt;Node5</title>
<path fill="none" stroke="#9a32cd" stroke-dasharray="5,2" d="M882.809,-382.122C941.448,-369.25 1011.49,-353.875 1057.04,-343.876"/>
<polygon fill="#9a32cd" stroke="#9a32cd" points="881.77,-378.767 872.753,-384.329 883.271,-385.604 881.77,-378.767"/>
<text text-anchor="middle" x="956" y="-382.348" font-family="FreeSans" font-size="10.00"> specificEventReceivers_</text>
</g>
<!-- Node12&#45;&gt;Node5 -->
<g id="edge28" class="edge"><title>Node12&#45;&gt;Node5</title>
<path fill="none" stroke="#9a32cd" stroke-dasharray="5,2" d="M872.971,-225.726C916.928,-238.397 969.114,-255.597 1014,-276.348 1042.6,-289.569 1073.1,-310.175 1090.52,-322.654"/>
<polygon fill="#9a32cd" stroke="#9a32cd" points="873.721,-222.3 863.145,-222.929 871.805,-229.033 873.721,-222.3"/>
<text text-anchor="middle" x="956" y="-280.348" font-family="FreeSans" font-size="10.00"> subsystems_</text>
</g>
<!-- Node13&#45;&gt;Node5 -->
<g id="edge32" class="edge"><title>Node13&#45;&gt;Node5</title>
<path fill="none" stroke="#9a32cd" stroke-dasharray="5,2" d="M850.354,-453.936C898.485,-441.548 961.919,-422.088 1014,-395.348 1043.42,-380.243 1074.64,-357.239 1091.78,-343.911"/>
<polygon fill="#9a32cd" stroke="#9a32cd" points="849.469,-450.549 840.633,-456.395 851.186,-457.335 849.469,-450.549"/>
<text text-anchor="middle" x="956" y="-444.348" font-family="FreeSans" font-size="10.00"> eventDataMaps_</text>
</g>
<!-- Node14&#45;&gt;Node5 -->
<g id="edge36" class="edge"><title>Node14&#45;&gt;Node5</title>
<path fill="none" stroke="#9a32cd" stroke-dasharray="5,2" d="M889.8,-159.639C931.46,-172.253 977.394,-190.766 1014,-217.348 1055.01,-247.128 1087.02,-300.234 1099.42,-322.769"/>
<polygon fill="#9a32cd" stroke="#9a32cd" points="890.731,-156.265 880.149,-156.798 888.754,-162.98 890.731,-156.265"/>
<text text-anchor="middle" x="956" y="-221.348" font-family="FreeSans" font-size="10.00"> factories_</text>
</g>
<!-- Node15&#45;&gt;Node5 -->
<g id="edge40" class="edge"><title>Node15&#45;&gt;Node5</title>
<path fill="none" stroke="#9a32cd" stroke-dasharray="5,2" d="M863.178,-284.689C924.792,-297.087 1005.48,-313.323 1056.29,-323.548"/>
<polygon fill="#9a32cd" stroke="#9a32cd" points="863.568,-281.197 853.074,-282.656 862.187,-288.06 863.568,-281.197"/>
<text text-anchor="middle" x="956" y="-318.348" font-family="FreeSans" font-size="10.00"> objectCategories_</text>
</g>
<!-- Node16&#45;&gt;Node5 -->
<g id="edge44" class="edge"><title>Node16&#45;&gt;Node5</title>
<path fill="none" stroke="#9a32cd" stroke-dasharray="5,2" d="M878.579,-77.6889C924.323,-86.0007 976.379,-102.351 1014,-134.348 1075.64,-186.773 1097.7,-289.723 1103.38,-322.828"/>
<polygon fill="#9a32cd" stroke="#9a32cd" points="879.066,-74.2216 868.619,-75.9861 877.886,-81.1214 879.066,-74.2216"/>
<text text-anchor="middle" x="956" y="-151.348" font-family="FreeSans" font-size="10.00"> attributes_</text>
<text text-anchor="middle" x="956" y="-138.348" font-family="FreeSans" font-size="10.00">networkAttributes_</text>
</g>
<!-- Node17&#45;&gt;Node2 -->
<g id="edge48" class="edge"><title>Node17&#45;&gt;Node2</title>
<path fill="none" stroke="#9a32cd" stroke-dasharray="5,2" d="M1057.16,-728.143C1043.48,-733.135 1028.37,-737.767 1014,-740.348 841.259,-771.367 630.98,-749.983 540.247,-737.974"/>
<polygon fill="#9a32cd" stroke="#9a32cd" points="1058.73,-731.29 1066.83,-724.468 1056.24,-724.745 1058.73,-731.29"/>
<text text-anchor="middle" x="777" y="-760.348" font-family="FreeSans" font-size="10.00"> eventHandlers_</text>
</g>
<!-- Node18&#45;&gt;Node1 -->
<g id="edge52" class="edge"><title>Node18&#45;&gt;Node1</title>
<path fill="none" stroke="#9a32cd" stroke-dasharray="5,2" d="M860.282,-929.742C906.956,-926.904 965.379,-919.102 1014,-899.348 1047.07,-885.912 1078.87,-857.483 1094.66,-841.978"/>
<polygon fill="#9a32cd" stroke="#9a32cd" points="860.001,-926.252 850.206,-930.289 860.381,-933.241 860.001,-926.252"/>
<text text-anchor="middle" x="956" y="-929.348" font-family="FreeSans" font-size="10.00"> defaultScene_</text>
</g>
<!-- Node19 -->
<g id="node45" class="node"><title>Node19</title>
<a xlink:href="class_urho3_d_1_1_scene.html" target="_top" xlink:title="Root scene node, represents the whole scene.">
<polygon fill="none" stroke="red" points="450.5,-962.848 450.5,-983.848 539.5,-983.848 539.5,-962.848 450.5,-962.848"/>
<text text-anchor="middle" x="495" y="-970.848" font-family="FreeSans" font-size="10.00">Urho3D::Scene</text>
</a>
</g>
<!-- Node19&#45;&gt;Node18 -->
<g id="edge54" class="edge"><title>Node19&#45;&gt;Node18</title>
<path fill="none" stroke="#9a32cd" stroke-dasharray="5,2" d="M549.608,-965.022C593.562,-958.319 655.74,-948.838 703.971,-941.484"/>
<polygon fill="#9a32cd" stroke="#9a32cd" points="549.042,-961.567 539.684,-966.535 550.097,-968.487 549.042,-961.567"/>
<text text-anchor="middle" x="613" y="-965.348" font-family="FreeSans" font-size="10.00"> ptr_</text>
</g>
<!-- Node20 -->
<g id="node47" class="node"><title>Node20</title>
<a xlink:href="class_urho3_d_1_1_node.html" target="_top" xlink:title="Scene node that may contain components and child nodes.">
<polygon fill="none" stroke="red" points="734.5,-989.848 734.5,-1010.85 819.5,-1010.85 819.5,-989.848 734.5,-989.848"/>
<text text-anchor="middle" x="777" y="-997.848" font-family="FreeSans" font-size="10.00">Urho3D::Node</text>
</a>
</g>
<!-- Node19&#45;&gt;Node20 -->
<g id="edge58" class="edge"><title>Node19&#45;&gt;Node20</title>
<path fill="none" stroke="#9a32cd" stroke-dasharray="5,2" d="M534.196,-986.939C545.603,-990.321 558.179,-993.504 570,-995.348 626.297,-1004.13 692.233,-1003.95 734.291,-1002.55"/>
<polygon fill="#9a32cd" stroke="#9a32cd" points="535.108,-983.558 524.52,-983.945 533.038,-990.245 535.108,-983.558"/>
<text text-anchor="middle" x="613" y="-1006.35" font-family="FreeSans" font-size="10.00"> scene_</text>
</g>
<!-- Node20&#45;&gt;Node19 -->
<g id="edge56" class="edge"><title>Node20&#45;&gt;Node19</title>
<path fill="none" stroke="midnightblue" d="M724.12,-995.285C670.915,-990.191 589.77,-982.422 539.684,-977.627"/>
<polygon fill="midnightblue" stroke="midnightblue" points="724.083,-998.798 734.371,-996.267 724.75,-991.83 724.083,-998.798"/>
</g>
<!-- Node20&#45;&gt;Node20 -->
<g id="edge60" class="edge"><title>Node20&#45;&gt;Node20</title>
<path fill="none" stroke="#9a32cd" stroke-dasharray="5,2" d="M746.485,-1020.03C748.12,-1025.32 758.292,-1029.35 777,-1029.35 805.508,-1029.35 814.194,-1020 803.058,-1011.06"/>
<polygon fill="#9a32cd" stroke="#9a32cd" points="749.627,-1021.57 750.942,-1011.06 743.358,-1018.45 749.627,-1021.57"/>
<text text-anchor="middle" x="777" y="-1033.35" font-family="FreeSans" font-size="10.00"> parent_</text>
</g>
<!-- Node21 -->
<g id="node51" class="node"><title>Node21</title>
<a xlink:href="class_urho3_d_1_1_mutex.html" target="_top" xlink:title="Operating system mutual exclusion primitive.">
<polygon fill="none" stroke="black" points="216.5,-941.848 216.5,-962.848 305.5,-962.848 305.5,-941.848 216.5,-941.848"/>
<text text-anchor="middle" x="261" y="-949.848" font-family="FreeSans" font-size="10.00">Urho3D::Mutex</text>
</a>
</g>
<!-- Node21&#45;&gt;Node1 -->
<g id="edge70" class="edge"><title>Node21&#45;&gt;Node1</title>
<path fill="none" stroke="#9a32cd" stroke-dasharray="5,2" d="M315.667,-945.402C439.93,-929.464 753.068,-888.467 1014,-847.348 1029.37,-844.926 1046.16,-842.043 1061.08,-839.395"/>
<polygon fill="#9a32cd" stroke="#9a32cd" points="315.114,-941.944 305.64,-946.686 316.003,-948.887 315.114,-941.944"/>
<text text-anchor="middle" x="613" y="-914.348" font-family="FreeSans" font-size="10.00"> moduleMutex_</text>
</g>
<!-- Node21&#45;&gt;Node19 -->
<g id="edge62" class="edge"><title>Node21&#45;&gt;Node19</title>
<path fill="none" stroke="#9a32cd" stroke-dasharray="5,2" d="M315.64,-957.252C356.565,-960.925 411.873,-965.888 450.204,-969.328"/>
<polygon fill="#9a32cd" stroke="#9a32cd" points="315.837,-953.756 305.564,-956.348 315.211,-960.728 315.837,-953.756"/>
<text text-anchor="middle" x="386" y="-970.348" font-family="FreeSans" font-size="10.00"> sceneMutex_</text>
</g>
<!-- Node22&#45;&gt;Node1 -->
<g id="edge66" class="edge"><title>Node22&#45;&gt;Node1</title>
<path fill="none" stroke="#9a32cd" stroke-dasharray="5,2" d="M851.089,-735.124C898.312,-748.472 960.465,-767.425 1014,-788.348 1038.9,-798.08 1066.54,-811.539 1084.75,-820.793"/>
<polygon fill="#9a32cd" stroke="#9a32cd" points="851.821,-731.694 841.248,-732.362 849.93,-738.434 851.821,-731.694"/>
<text text-anchor="middle" x="956" y="-792.348" font-family="FreeSans" font-size="10.00"> scriptFileContexts_</text>
</g>
<!-- Node23&#45;&gt;Node1 -->
<g id="edge72" class="edge"><title>Node23&#45;&gt;Node1</title>
<path fill="none" stroke="#9a32cd" stroke-dasharray="5,2" d="M858.002,-681.37C915.885,-695.216 987.949,-714.72 1014,-731.348 1052.19,-755.724 1084.52,-800.183 1098.12,-820.589"/>
<polygon fill="#9a32cd" stroke="#9a32cd" points="858.648,-677.927 848.111,-679.026 857.034,-684.738 858.648,-677.927"/>
<text text-anchor="middle" x="956" y="-735.348" font-family="FreeSans" font-size="10.00"> objectTypes_</text>
</g>
<!-- Node24&#45;&gt;Node1 -->
<g id="edge76" class="edge"><title>Node24&#45;&gt;Node1</title>
<path fill="none" stroke="#9a32cd" stroke-dasharray="5,2" d="M344.07,-845.774C520.558,-842.428 927.669,-834.71 1061.49,-832.173"/>
<polygon fill="#9a32cd" stroke="#9a32cd" points="343.988,-842.274 334.056,-845.963 344.12,-849.273 343.988,-842.274"/>
<text text-anchor="middle" x="613" y="-845.348" font-family="FreeSans" font-size="10.00"> defaultScriptFile_</text>
</g>
<!-- Node25 -->
<g id="node63" class="node"><title>Node25</title>
<a xlink:href="class_urho3_d_1_1_script_file.html" target="_top" xlink:title="Script file resource.">
<polygon fill="none" stroke="red" points="0,-809.848 0,-830.848 102,-830.848 102,-809.848 0,-809.848"/>
<text text-anchor="middle" x="51" y="-817.848" font-family="FreeSans" font-size="10.00">Urho3D::ScriptFile</text>
</a>
</g>
<!-- Node25&#45;&gt;Node24 -->
<g id="edge78" class="edge"><title>Node25&#45;&gt;Node24</title>
<path fill="none" stroke="#9a32cd" stroke-dasharray="5,2" d="M112.341,-828.012C130.871,-830.346 151.268,-832.933 170,-835.348 175.848,-836.102 181.906,-836.889 187.992,-837.683"/>
<polygon fill="#9a32cd" stroke="#9a32cd" points="112.619,-824.52 102.26,-826.745 111.745,-831.465 112.619,-824.52"/>
<text text-anchor="middle" x="145" y="-839.348" font-family="FreeSans" font-size="10.00"> ptr_</text>
</g>
</g>
</svg>
