<?xml version="1.0" encoding="UTF-8" standalone="no"?>
<!DOCTYPE svg PUBLIC "-//W3C//DTD SVG 1.1//EN"
 "http://www.w3.org/Graphics/SVG/1.1/DTD/svg11.dtd">
<!-- Generated by graphviz version 2.26.3 (20100126.1600)
 -->
<!-- Title: Urho3D::FontFaceBitmap Pages: 1 -->
<svg width="144pt" height="146pt"
 viewBox="0.00 0.00 144.00 146.00" xmlns="http://www.w3.org/2000/svg" xmlns:xlink="http://www.w3.org/1999/xlink">
<g id="graph1" class="graph" transform="scale(1 1) rotate(0) translate(4 142)">
<title>Urho3D::FontFaceBitmap</title>
<!-- Node1 -->
<g id="node1" class="node"><title>Node1</title>
<polygon fill="#bfbfbf" stroke="black" points="-0.5,-0.5 -0.5,-21.5 136.5,-21.5 136.5,-0.5 -0.5,-0.5"/>
<text text-anchor="middle" x="68" y="-8.5" font-family="FreeSans" font-size="10.00">Urho3D::FontFaceBitmap</text>
</g>
<!-- Node2 -->
<g id="node2" class="node"><title>Node2</title>
<a xlink:href="class_urho3_d_1_1_font_face.html" target="_top" xlink:title="Font face description.">
<polygon fill="none" stroke="black" points="17,-58.5 17,-79.5 119,-79.5 119,-58.5 17,-58.5"/>
<text text-anchor="middle" x="68" y="-66.5" font-family="FreeSans" font-size="10.00">Urho3D::FontFace</text>
</a>
</g>
<!-- Node2&#45;&gt;Node1 -->
<g id="edge2" class="edge"><title>Node2&#45;&gt;Node1</title>
<path fill="none" stroke="midnightblue" d="M68,-48.1906C68,-39.1684 68,-28.9941 68,-21.5707"/>
<polygon fill="midnightblue" stroke="midnightblue" points="64.5001,-48.3619 68,-58.3619 71.5001,-48.3619 64.5001,-48.3619"/>
</g>
<!-- Node3 -->
<g id="node4" class="node"><title>Node3</title>
<a xlink:href="class_urho3_d_1_1_ref_counted.html" target="_top" xlink:title="Base class for intrusively reference&#45;counted objects. These are noncopyable and non&#45;assignable.">
<polygon fill="none" stroke="black" points="11,-116.5 11,-137.5 125,-137.5 125,-116.5 11,-116.5"/>
<text text-anchor="middle" x="68" y="-124.5" font-family="FreeSans" font-size="10.00">Urho3D::RefCounted</text>
</a>
</g>
<!-- Node3&#45;&gt;Node2 -->
<g id="edge4" class="edge"><title>Node3&#45;&gt;Node2</title>
<path fill="none" stroke="midnightblue" d="M68,-106.191C68,-97.1684 68,-86.9941 68,-79.5707"/>
<polygon fill="midnightblue" stroke="midnightblue" points="64.5001,-106.362 68,-116.362 71.5001,-106.362 64.5001,-106.362"/>
</g>
</g>
</svg>
