<?xml version="1.0" encoding="UTF-8" standalone="no"?>
<!DOCTYPE svg PUBLIC "-//W3C//DTD SVG 1.1//EN"
 "http://www.w3.org/Graphics/SVG/1.1/DTD/svg11.dtd">
<!-- Generated by graphviz version 2.26.3 (20100126.1600)
 -->
<!-- Title: Urho3D::NavigationMesh Pages: 1 -->
<svg width="186pt" height="378pt"
 viewBox="0.00 0.00 186.00 378.00" xmlns="http://www.w3.org/2000/svg" xmlns:xlink="http://www.w3.org/1999/xlink">
<g id="graph1" class="graph" transform="scale(1 1) rotate(0) translate(4 374)">
<title>Urho3D::NavigationMesh</title>
<!-- Node1 -->
<g id="node1" class="node"><title>Node1</title>
<polygon fill="#bfbfbf" stroke="black" points="21,-58.5 21,-79.5 157,-79.5 157,-58.5 21,-58.5"/>
<text text-anchor="middle" x="89" y="-66.5" font-family="FreeSans" font-size="10.00">Urho3D::NavigationMesh</text>
</g>
<!-- Node7 -->
<g id="node13" class="node"><title>Node7</title>
<a xlink:href="class_urho3_d_1_1_dynamic_navigation_mesh.html" target="_top" xlink:title="Urho3D::DynamicNavigationMesh">
<polygon fill="none" stroke="black" points="0,-0.5 0,-21.5 178,-21.5 178,-0.5 0,-0.5"/>
<text text-anchor="middle" x="89" y="-8.5" font-family="FreeSans" font-size="10.00">Urho3D::DynamicNavigationMesh</text>
</a>
</g>
<!-- Node1&#45;&gt;Node7 -->
<g id="edge12" class="edge"><title>Node1&#45;&gt;Node7</title>
<path fill="none" stroke="midnightblue" d="M89,-48.1906C89,-39.1684 89,-28.9941 89,-21.5707"/>
<polygon fill="midnightblue" stroke="midnightblue" points="85.5001,-48.3619 89,-58.3619 92.5001,-48.3619 85.5001,-48.3619"/>
</g>
<!-- Node2 -->
<g id="node2" class="node"><title>Node2</title>
<a xlink:href="class_urho3_d_1_1_component.html" target="_top" xlink:title="Base class for components. Components can be created to scene nodes.">
<polygon fill="none" stroke="black" points="31,-116.5 31,-137.5 147,-137.5 147,-116.5 31,-116.5"/>
<text text-anchor="middle" x="89" y="-124.5" font-family="FreeSans" font-size="10.00">Urho3D::Component</text>
</a>
</g>
<!-- Node2&#45;&gt;Node1 -->
<g id="edge2" class="edge"><title>Node2&#45;&gt;Node1</title>
<path fill="none" stroke="midnightblue" d="M89,-106.191C89,-97.1684 89,-86.9941 89,-79.5707"/>
<polygon fill="midnightblue" stroke="midnightblue" points="85.5001,-106.362 89,-116.362 92.5001,-106.362 85.5001,-106.362"/>
</g>
<!-- Node3 -->
<g id="node4" class="node"><title>Node3</title>
<a xlink:href="class_urho3_d_1_1_animatable.html" target="_top" xlink:title="Base class for animatable object, an animatable object can be set animation on it&#39;s attributes...">
<polygon fill="none" stroke="black" points="32,-174.5 32,-195.5 146,-195.5 146,-174.5 32,-174.5"/>
<text text-anchor="middle" x="89" y="-182.5" font-family="FreeSans" font-size="10.00">Urho3D::Animatable</text>
</a>
</g>
<!-- Node3&#45;&gt;Node2 -->
<g id="edge4" class="edge"><title>Node3&#45;&gt;Node2</title>
<path fill="none" stroke="midnightblue" d="M89,-164.191C89,-155.168 89,-144.994 89,-137.571"/>
<polygon fill="midnightblue" stroke="midnightblue" points="85.5001,-164.362 89,-174.362 92.5001,-164.362 85.5001,-164.362"/>
</g>
<!-- Node4 -->
<g id="node6" class="node"><title>Node4</title>
<a xlink:href="class_urho3_d_1_1_serializable.html" target="_top" xlink:title="Base class for objects with automatic serialization through attributes.">
<polygon fill="none" stroke="black" points="32,-232.5 32,-253.5 146,-253.5 146,-232.5 32,-232.5"/>
<text text-anchor="middle" x="89" y="-240.5" font-family="FreeSans" font-size="10.00">Urho3D::Serializable</text>
</a>
</g>
<!-- Node4&#45;&gt;Node3 -->
<g id="edge6" class="edge"><title>Node4&#45;&gt;Node3</title>
<path fill="none" stroke="midnightblue" d="M89,-222.191C89,-213.168 89,-202.994 89,-195.571"/>
<polygon fill="midnightblue" stroke="midnightblue" points="85.5001,-222.362 89,-232.362 92.5001,-222.362 85.5001,-222.362"/>
</g>
<!-- Node5 -->
<g id="node8" class="node"><title>Node5</title>
<a xlink:href="class_urho3_d_1_1_object.html" target="_top" xlink:title="Base class for objects with type identification, subsystem access and event sending/receiving capabil...">
<polygon fill="none" stroke="black" points="44,-290.5 44,-311.5 134,-311.5 134,-290.5 44,-290.5"/>
<text text-anchor="middle" x="89" y="-298.5" font-family="FreeSans" font-size="10.00">Urho3D::Object</text>
</a>
</g>
<!-- Node5&#45;&gt;Node4 -->
<g id="edge8" class="edge"><title>Node5&#45;&gt;Node4</title>
<path fill="none" stroke="midnightblue" d="M89,-280.191C89,-271.168 89,-260.994 89,-253.571"/>
<polygon fill="midnightblue" stroke="midnightblue" points="85.5001,-280.362 89,-290.362 92.5001,-280.362 85.5001,-280.362"/>
</g>
<!-- Node6 -->
<g id="node10" class="node"><title>Node6</title>
<a xlink:href="class_urho3_d_1_1_ref_counted.html" target="_top" xlink:title="Base class for intrusively reference&#45;counted objects. These are noncopyable and non&#45;assignable.">
<polygon fill="none" stroke="black" points="32,-348.5 32,-369.5 146,-369.5 146,-348.5 32,-348.5"/>
<text text-anchor="middle" x="89" y="-356.5" font-family="FreeSans" font-size="10.00">Urho3D::RefCounted</text>
</a>
</g>
<!-- Node6&#45;&gt;Node5 -->
<g id="edge10" class="edge"><title>Node6&#45;&gt;Node5</title>
<path fill="none" stroke="midnightblue" d="M89,-338.191C89,-329.168 89,-318.994 89,-311.571"/>
<polygon fill="midnightblue" stroke="midnightblue" points="85.5001,-338.362 89,-348.362 92.5001,-338.362 85.5001,-338.362"/>
</g>
</g>
</svg>
