<?xml version="1.0" encoding="UTF-8" standalone="no"?>
<!DOCTYPE svg PUBLIC "-//W3C//DTD SVG 1.1//EN"
 "http://www.w3.org/Graphics/SVG/1.1/DTD/svg11.dtd">
<!-- Generated by graphviz version 2.26.3 (20100126.1600)
 -->
<!-- Title: Urho3D::NavigationMesh::BuildTile Pages: 1 -->
<!--zoomable 812 -->
<svg id="main" version="1.1" xmlns="http://www.w3.org/2000/svg" xmlns:xlink="http://www.w3.org/1999/xlink" xml:space="preserve" onload="init(evt)">
        <defs>
                <circle id="rim" cx="0" cy="0" r="7"/>
                <circle id="rim2" cx="0" cy="0" r="3.5"/>
                <g id="zoomPlus">
                        <use xlink:href="#rim" fill="#404040">
                                <set attributeName="fill" to="#808080" begin="zoomplus.mouseover" end="zoomplus.mouseout"/>
                        </use>
                        <path d="M-4,0h8M0,-4v8" fill="none" stroke="white" stroke-width="1.5" pointer-events="none"/>
                </g>
                <g id="zoomMin">
                        <use xlink:href="#rim" fill="#404040">
                                <set attributeName="fill" to="#808080" begin="zoomminus.mouseover" end="zoomminus.mouseout"/>
                        </use>
                        <path d="M-4,0h8" fill="none" stroke="white" stroke-width="1.5" pointer-events="none"/>
                </g>
                <g id="dirArrow">
                        <path fill="none" stroke="white" stroke-width="1.5" d="M0,-3.0v7 M-2.5,-0.5L0,-3.0L2.5,-0.5"/>
                </g>
               <g id="resetDef">
                       <use xlink:href="#rim2" fill="#404040">
                               <set attributeName="fill" to="#808080" begin="reset.mouseover" end="reset.mouseout"/>
                       </use>
               </g>
        </defs>

<script type="text/javascript">
var viewWidth = 762;
var viewHeight = 812;
var sectionId = 'dynsection-2';
</script>
<script xlink:href="svgpan.js"/>
<svg id="graph" class="graph">
<g id="viewport">
<title>Urho3D::NavigationMesh::BuildTile</title>
<!-- Node1 -->
<g id="node1" class="node"><title>Node1</title>
<polygon fill="#bfbfbf" stroke="black" points="0,-266 0,-300 136,-300 136,-266 0,-266"/>
<text text-anchor="start" x="8" y="-287" font-family="FreeSans" font-size="10.00">Urho3D::NavigationMesh</text>
<text text-anchor="middle" x="68" y="-274" font-family="FreeSans" font-size="10.00">::BuildTile</text>
</g>
<!-- Node2 -->
<g id="node3" class="node"><title>Node2</title>
<a xlink:href="class_urho3_d_1_1_navigation_mesh.html#aa1afd3c3723b93fb9f93f97cc1dc4770" target="_top" xlink:title="Get geometry data within a bounding box.">
<polygon fill="none" stroke="red" points="182,-404 182,-438 318,-438 318,-404 182,-404"/>
<text text-anchor="start" x="190" y="-425" font-family="FreeSans" font-size="10.00">Urho3D::NavigationMesh</text>
<text text-anchor="middle" x="250" y="-412" font-family="FreeSans" font-size="10.00">::GetTileGeometry</text>
</a>
</g>
<!-- Node1&#45;&gt;Node2 -->
<g id="edge2" class="edge"><title>Node1&#45;&gt;Node2</title>
<path fill="none" stroke="midnightblue" d="M79.728,-300.323C97.1307,-324.774 132.066,-369.286 172,-395 174.419,-396.558 176.941,-398.031 179.534,-399.424"/>
<polygon fill="midnightblue" stroke="midnightblue" points="178.06,-402.6 188.58,-403.855 181.139,-396.313 178.06,-402.6"/>
</g>
<!-- Node20 -->
<g id="node40" class="node"><title>Node20</title>
<a xlink:href="class_urho3_d_1_1_p_o_d_vector.html#aba57fb468c4bdb5bf2b7c6573327ff31" target="_top" xlink:title="Return whether vector is empty.">
<polygon fill="none" stroke="black" points="191.5,-352 191.5,-386 308.5,-386 308.5,-352 191.5,-352"/>
<text text-anchor="start" x="199.5" y="-373" font-family="FreeSans" font-size="10.00">Urho3D::PODVector::</text>
<text text-anchor="middle" x="250" y="-360" font-family="FreeSans" font-size="10.00">Empty</text>
</a>
</g>
<!-- Node1&#45;&gt;Node20 -->
<g id="edge40" class="edge"><title>Node1&#45;&gt;Node20</title>
<path fill="none" stroke="midnightblue" d="M94.1534,-300.068C114.729,-313.003 144.433,-330.606 172,-343 176.064,-344.827 180.297,-346.596 184.598,-348.292"/>
<polygon fill="midnightblue" stroke="midnightblue" points="183.488,-351.614 194.079,-351.886 185.969,-345.069 183.488,-351.614"/>
</g>
<!-- Node21 -->
<g id="node42" class="node"><title>Node21</title>
<a xlink:href="class_urho3_d_1_1_p_o_d_vector.html#a4fe0251ca70afca844721a4a44717c83" target="_top" xlink:title="Return number of elements.">
<polygon fill="none" stroke="black" points="181.5,-312.5 181.5,-333.5 318.5,-333.5 318.5,-312.5 181.5,-312.5"/>
<text text-anchor="middle" x="250" y="-320.5" font-family="FreeSans" font-size="10.00">Urho3D::PODVector::Size</text>
</a>
</g>
<!-- Node1&#45;&gt;Node21 -->
<g id="edge42" class="edge"><title>Node1&#45;&gt;Node21</title>
<path fill="none" stroke="midnightblue" d="M136.029,-297.951C154.428,-301.995 174.168,-306.334 191.964,-310.245"/>
<polygon fill="midnightblue" stroke="midnightblue" points="191.674,-313.764 202.192,-312.493 193.176,-306.928 191.674,-313.764"/>
</g>
<!-- Node22 -->
<g id="node44" class="node"><title>Node22</title>
<a xlink:href="class_urho3_d_1_1_shared_array_ptr.html#ac0a9f7d0728fa3ba9be5889f44f7ac46" target="_top" xlink:title="Return the raw pointer.">
<polygon fill="none" stroke="black" points="172,-272.5 172,-293.5 328,-293.5 328,-272.5 172,-272.5"/>
<text text-anchor="middle" x="250" y="-280.5" font-family="FreeSans" font-size="10.00">Urho3D::SharedArrayPtr::Get</text>
</a>
</g>
<!-- Node1&#45;&gt;Node22 -->
<g id="edge44" class="edge"><title>Node1&#45;&gt;Node22</title>
<path fill="none" stroke="midnightblue" d="M136.029,-283C144.447,-283 153.146,-283 161.81,-283"/>
<polygon fill="midnightblue" stroke="midnightblue" points="161.947,-286.5 171.947,-283 161.947,-279.5 161.947,-286.5"/>
</g>
<!-- Node23 -->
<g id="node46" class="node"><title>Node23</title>
<a xlink:href="class_urho3_d_1_1_object.html#a48c407eb402e328382c2a61fb3db4441" target="_top" xlink:title="Return execution context.">
<polygon fill="none" stroke="black" points="174.5,-232.5 174.5,-253.5 325.5,-253.5 325.5,-232.5 174.5,-232.5"/>
<text text-anchor="middle" x="250" y="-240.5" font-family="FreeSans" font-size="10.00">Urho3D::Object::GetContext</text>
</a>
</g>
<!-- Node1&#45;&gt;Node23 -->
<g id="edge46" class="edge"><title>Node1&#45;&gt;Node23</title>
<path fill="none" stroke="midnightblue" d="M136.029,-268.049C154.428,-264.005 174.168,-259.666 191.964,-255.755"/>
<polygon fill="midnightblue" stroke="midnightblue" points="193.176,-259.072 202.192,-253.507 191.674,-252.236 193.176,-259.072"/>
</g>
<!-- Node24 -->
<g id="node48" class="node"><title>Node24</title>
<a xlink:href="class_urho3_d_1_1_context.html#acb628095602a49ade116c4761ab44004" target="_top" xlink:title="Return a preallocated map for event data. Used for optimization to avoid constant re&#45;allocation of ev...">
<polygon fill="none" stroke="red" points="176.5,-180 176.5,-214 323.5,-214 323.5,-180 176.5,-180"/>
<text text-anchor="start" x="184.5" y="-201" font-family="FreeSans" font-size="10.00">Urho3D::Context::GetEvent</text>
<text text-anchor="middle" x="250" y="-188" font-family="FreeSans" font-size="10.00">DataMap</text>
</a>
</g>
<!-- Node1&#45;&gt;Node24 -->
<g id="edge48" class="edge"><title>Node1&#45;&gt;Node24</title>
<path fill="none" stroke="midnightblue" d="M94.1534,-265.932C114.729,-252.997 144.433,-235.394 172,-223 176.064,-221.173 180.297,-219.404 184.598,-217.708"/>
<polygon fill="midnightblue" stroke="midnightblue" points="185.969,-220.931 194.079,-214.114 183.488,-214.386 185.969,-220.931"/>
</g>
<!-- Node25 -->
<g id="node50" class="node"><title>Node25</title>
<a xlink:href="class_urho3_d_1_1_object.html#a32020dbf77c196b9777eca479e8abb36" target="_top" xlink:title="Send event to all subscribers.">
<polygon fill="none" stroke="black" points="176,-140.5 176,-161.5 324,-161.5 324,-140.5 176,-140.5"/>
<text text-anchor="middle" x="250" y="-148.5" font-family="FreeSans" font-size="10.00">Urho3D::Object::SendEvent</text>
</a>
</g>
<!-- Node1&#45;&gt;Node25 -->
<g id="edge50" class="edge"><title>Node1&#45;&gt;Node25</title>
<path fill="none" stroke="midnightblue" d="M79.2028,-265.705C96.2124,-240.871 130.953,-195.421 172,-171 175.582,-168.869 179.387,-166.963 183.315,-165.259"/>
<polygon fill="midnightblue" stroke="midnightblue" points="184.599,-168.515 192.657,-161.637 182.068,-161.989 184.599,-168.515"/>
</g>
<!-- Node3 -->
<g id="node5" class="node"><title>Node3</title>
<a xlink:href="class_urho3_d_1_1_node.html#acbf5c9951a685acdbe75d1d39eeb7045" target="_top" xlink:title="Return world space transform matrix.">
<polygon fill="none" stroke="black" points="364.5,-782.5 364.5,-803.5 545.5,-803.5 545.5,-782.5 364.5,-782.5"/>
<text text-anchor="middle" x="455" y="-790.5" font-family="FreeSans" font-size="10.00">Urho3D::Node::GetWorldTransform</text>
</a>
</g>
<!-- Node2&#45;&gt;Node3 -->
<g id="edge4" class="edge"><title>Node2&#45;&gt;Node3</title>
<path fill="none" stroke="midnightblue" d="M253.277,-438.41C265.727,-502.755 312.032,-725.837 364,-773 365.527,-774.386 367.128,-775.684 368.791,-776.898"/>
<polygon fill="midnightblue" stroke="midnightblue" points="367.226,-780.044 377.577,-782.303 370.894,-774.082 367.226,-780.044"/>
</g>
<!-- Node4 -->
<g id="node7" class="node"><title>Node4</title>
<a xlink:href="class_urho3_d_1_1_matrix3x4.html#adbf4f5c122e4dbee49ab99550cc70315" target="_top" xlink:title="Return inverse.">
<polygon fill="none" stroke="black" points="399,-730 399,-764 511,-764 511,-730 399,-730"/>
<text text-anchor="start" x="407" y="-751" font-family="FreeSans" font-size="10.00">Urho3D::Matrix3x4::</text>
<text text-anchor="middle" x="455" y="-738" font-family="FreeSans" font-size="10.00">Inverse</text>
</a>
</g>
<!-- Node2&#45;&gt;Node4 -->
<g id="edge6" class="edge"><title>Node2&#45;&gt;Node4</title>
<path fill="none" stroke="midnightblue" d="M251.303,-438.178C256.117,-489.24 277.42,-641.471 364,-721 371.185,-727.6 379.932,-732.537 389.13,-736.227"/>
<polygon fill="midnightblue" stroke="midnightblue" points="388.238,-739.623 398.833,-739.639 390.56,-733.02 388.238,-739.623"/>
</g>
<!-- Node5 -->
<g id="node9" class="node"><title>Node5</title>
<a xlink:href="class_urho3_d_1_1_vector.html#a06762e9e70b9851f54a845555f28cd4b" target="_top" xlink:title="Return size of vector.">
<polygon fill="none" stroke="black" points="397,-690.5 397,-711.5 513,-711.5 513,-690.5 397,-690.5"/>
<text text-anchor="middle" x="455" y="-698.5" font-family="FreeSans" font-size="10.00">Urho3D::Vector::Size</text>
</a>
</g>
<!-- Node2&#45;&gt;Node5 -->
<g id="edge8" class="edge"><title>Node2&#45;&gt;Node5</title>
<path fill="none" stroke="midnightblue" d="M252.161,-438.137C259.018,-484.979 284.736,-615.985 364,-681 370.815,-686.59 378.852,-690.706 387.282,-693.723"/>
<polygon fill="midnightblue" stroke="midnightblue" points="386.335,-697.094 396.922,-696.682 388.389,-690.402 386.335,-697.094"/>
</g>
<!-- Node6 -->
<g id="node11" class="node"><title>Node6</title>
<a xlink:href="class_urho3_d_1_1_bounding_box.html#a3e31f522451bbabba857bd4e83384492" target="_top" xlink:title="Test if another bounding box is (partially) inside or outside.">
<polygon fill="none" stroke="black" points="394,-638 394,-672 516,-672 516,-638 394,-638"/>
<text text-anchor="start" x="402" y="-659" font-family="FreeSans" font-size="10.00">Urho3D::BoundingBox</text>
<text text-anchor="middle" x="455" y="-646" font-family="FreeSans" font-size="10.00">::IsInsideFast</text>
</a>
</g>
<!-- Node2&#45;&gt;Node6 -->
<g id="edge10" class="edge"><title>Node2&#45;&gt;Node6</title>
<path fill="none" stroke="midnightblue" d="M254.484,-438.227C265.765,-478.089 299.161,-577.222 364,-629 370.139,-633.902 377.159,-637.88 384.517,-641.108"/>
<polygon fill="midnightblue" stroke="midnightblue" points="383.389,-644.425 393.977,-644.809 385.939,-637.906 383.389,-644.425"/>
</g>
<!-- Node7 -->
<g id="node13" class="node"><title>Node7</title>
<a xlink:href="class_urho3_d_1_1_component.html#aaf7a7d9aea4ae4bcc527a5f0c33f3f1a" target="_top" xlink:title="Return scene node.">
<polygon fill="none" stroke="black" points="394,-586 394,-620 516,-620 516,-586 394,-586"/>
<text text-anchor="start" x="402" y="-607" font-family="FreeSans" font-size="10.00">Urho3D::Component::</text>
<text text-anchor="middle" x="455" y="-594" font-family="FreeSans" font-size="10.00">GetNode</text>
</a>
</g>
<!-- Node2&#45;&gt;Node7 -->
<g id="edge12" class="edge"><title>Node2&#45;&gt;Node7</title>
<path fill="none" stroke="midnightblue" d="M258.485,-438.149C274.727,-469.272 313.166,-535.229 364,-572 370.276,-576.539 377.266,-580.452 384.507,-583.815"/>
<polygon fill="midnightblue" stroke="midnightblue" points="383.206,-587.066 393.776,-587.788 385.963,-580.632 383.206,-587.066"/>
</g>
<!-- Node8 -->
<g id="node15" class="node"><title>Node8</title>
<a xlink:href="class_urho3_d_1_1_node.html#a92372a305fa427e9ce58df7f37a684ba" target="_top" xlink:title="Return position in world space.">
<polygon fill="none" stroke="black" points="582.5,-354.5 582.5,-375.5 753.5,-375.5 753.5,-354.5 582.5,-354.5"/>
<text text-anchor="middle" x="668" y="-362.5" font-family="FreeSans" font-size="10.00">Urho3D::Node::GetWorldPosition</text>
</a>
</g>
<!-- Node2&#45;&gt;Node8 -->
<g id="edge14" class="edge"><title>Node2&#45;&gt;Node8</title>
<path fill="none" stroke="midnightblue" d="M259.97,-438.001C277.148,-465.39 315.228,-518.304 364,-539 438.462,-570.598 474.239,-576.328 546,-539 609.127,-506.164 646.382,-424.043 660.918,-385.536"/>
<polygon fill="midnightblue" stroke="midnightblue" points="664.291,-386.503 664.418,-375.909 657.712,-384.111 664.291,-386.503"/>
</g>
<!-- Node9 -->
<g id="node17" class="node"><title>Node9</title>
<a xlink:href="class_urho3_d_1_1_off_mesh_connection.html#a69e72b1bc6e12d9771ee61d6043352ab" target="_top" xlink:title="Return endpoint node.">
<polygon fill="none" stroke="black" points="379,-496 379,-530 531,-530 531,-496 379,-496"/>
<text text-anchor="start" x="387" y="-517" font-family="FreeSans" font-size="10.00">Urho3D::OffMeshConnection</text>
<text text-anchor="middle" x="455" y="-504" font-family="FreeSans" font-size="10.00">::GetEndPoint</text>
</a>
</g>
<!-- Node2&#45;&gt;Node9 -->
<g id="edge16" class="edge"><title>Node2&#45;&gt;Node9</title>
<path fill="none" stroke="midnightblue" d="M275.315,-438.101C297.814,-452.694 332.004,-473.414 364,-487 368.7,-488.996 373.6,-490.89 378.583,-492.678"/>
<polygon fill="midnightblue" stroke="midnightblue" points="377.639,-496.055 388.234,-495.985 379.908,-489.433 377.639,-496.055"/>
</g>
<!-- Node10 -->
<g id="node19" class="node"><title>Node10</title>
<a xlink:href="class_urho3_d_1_1_p_o_d_vector.html#a3eb78093c096ab9e9d68595facc56470" target="_top" xlink:title="Add an element at the end.">
<polygon fill="none" stroke="black" points="385,-456.5 385,-477.5 525,-477.5 525,-456.5 385,-456.5"/>
<text text-anchor="middle" x="455" y="-464.5" font-family="FreeSans" font-size="10.00">Urho3D::PODVector::Push</text>
</a>
</g>
<!-- Node2&#45;&gt;Node10 -->
<g id="edge18" class="edge"><title>Node2&#45;&gt;Node10</title>
<path fill="none" stroke="midnightblue" d="M318.098,-436.624C333.207,-440.064 349.143,-443.673 364,-447 374.635,-449.381 385.975,-451.895 396.913,-454.305"/>
<polygon fill="midnightblue" stroke="midnightblue" points="396.294,-457.753 406.813,-456.484 397.799,-450.916 396.294,-457.753"/>
</g>
<!-- Node11 -->
<g id="node21" class="node"><title>Node11</title>
<a xlink:href="class_urho3_d_1_1_off_mesh_connection.html#a8aefa12835e6e525e2df3562c06c79bc" target="_top" xlink:title="Return radius.">
<polygon fill="none" stroke="black" points="379,-404 379,-438 531,-438 531,-404 379,-404"/>
<text text-anchor="start" x="387" y="-425" font-family="FreeSans" font-size="10.00">Urho3D::OffMeshConnection</text>
<text text-anchor="middle" x="455" y="-412" font-family="FreeSans" font-size="10.00">::GetRadius</text>
</a>
</g>
<!-- Node2&#45;&gt;Node11 -->
<g id="edge20" class="edge"><title>Node2&#45;&gt;Node11</title>
<path fill="none" stroke="midnightblue" d="M318.262,-421C334.37,-421 351.752,-421 368.546,-421"/>
<polygon fill="midnightblue" stroke="midnightblue" points="368.909,-424.5 378.909,-421 368.909,-417.5 368.909,-424.5"/>
</g>
<!-- Node12 -->
<g id="node23" class="node"><title>Node12</title>
<a xlink:href="class_urho3_d_1_1_off_mesh_connection.html#a0e8869f1d3d700466a39661d06d113f3" target="_top" xlink:title="Return the user assigned mask.">
<polygon fill="none" stroke="black" points="379,-352 379,-386 531,-386 531,-352 379,-352"/>
<text text-anchor="start" x="387" y="-373" font-family="FreeSans" font-size="10.00">Urho3D::OffMeshConnection</text>
<text text-anchor="middle" x="455" y="-360" font-family="FreeSans" font-size="10.00">::GetMask</text>
</a>
</g>
<!-- Node2&#45;&gt;Node12 -->
<g id="edge22" class="edge"><title>Node2&#45;&gt;Node12</title>
<path fill="none" stroke="midnightblue" d="M317.125,-403.973C336.593,-399.035 358.001,-393.605 378.022,-388.526"/>
<polygon fill="midnightblue" stroke="midnightblue" points="378.892,-391.916 387.725,-386.065 377.171,-385.131 378.892,-391.916"/>
</g>
<!-- Node13 -->
<g id="node25" class="node"><title>Node13</title>
<a xlink:href="class_urho3_d_1_1_off_mesh_connection.html#a05f0f760705f267152330fdeeb2fbf5d" target="_top" xlink:title="Return the user assigned area ID.">
<polygon fill="none" stroke="black" points="379,-300 379,-334 531,-334 531,-300 379,-300"/>
<text text-anchor="start" x="387" y="-321" font-family="FreeSans" font-size="10.00">Urho3D::OffMeshConnection</text>
<text text-anchor="middle" x="455" y="-308" font-family="FreeSans" font-size="10.00">::GetAreaID</text>
</a>
</g>
<!-- Node2&#45;&gt;Node13 -->
<g id="edge24" class="edge"><title>Node2&#45;&gt;Node13</title>
<path fill="none" stroke="midnightblue" d="M313.521,-403.826C318.64,-401.266 323.546,-398.34 328,-395 350.487,-378.135 341.152,-359.373 364,-343 365.899,-341.639 367.868,-340.349 369.893,-339.127"/>
<polygon fill="midnightblue" stroke="midnightblue" points="371.936,-342.002 379.089,-334.186 368.623,-335.836 371.936,-342.002"/>
</g>
<!-- Node14 -->
<g id="node27" class="node"><title>Node14</title>
<a xlink:href="class_urho3_d_1_1_off_mesh_connection.html#a15cd88df53778f91b6a8aae4def713db" target="_top" xlink:title="Return whether is bidirectional.">
<polygon fill="none" stroke="black" points="379,-248 379,-282 531,-282 531,-248 379,-248"/>
<text text-anchor="start" x="387" y="-269" font-family="FreeSans" font-size="10.00">Urho3D::OffMeshConnection</text>
<text text-anchor="middle" x="455" y="-256" font-family="FreeSans" font-size="10.00">::IsBidirectional</text>
</a>
</g>
<!-- Node2&#45;&gt;Node14 -->
<g id="edge26" class="edge"><title>Node2&#45;&gt;Node14</title>
<path fill="none" stroke="midnightblue" d="M316.451,-403.952C320.638,-401.376 324.549,-398.412 328,-395 362.785,-360.613 328.476,-324.624 364,-291 365.932,-289.172 367.983,-287.471 370.131,-285.888"/>
<polygon fill="midnightblue" stroke="midnightblue" points="372.282,-288.668 378.847,-280.353 368.529,-282.759 372.282,-288.668"/>
</g>
<!-- Node15 -->
<g id="node29" class="node"><title>Node15</title>
<a xlink:href="class_urho3_d_1_1_nav_area.html#a2e64e19a2614d56dda2fdaa70b5be978" target="_top" xlink:title="Get the area id for this volume.">
<polygon fill="none" stroke="black" points="371.5,-208.5 371.5,-229.5 538.5,-229.5 538.5,-208.5 371.5,-208.5"/>
<text text-anchor="middle" x="455" y="-216.5" font-family="FreeSans" font-size="10.00">Urho3D::NavArea::GetAreaType</text>
</a>
</g>
<!-- Node2&#45;&gt;Node15 -->
<g id="edge28" class="edge"><title>Node2&#45;&gt;Node15</title>
<path fill="none" stroke="midnightblue" d="M317.59,-403.88C321.404,-401.32 324.927,-398.38 328,-395 375.87,-342.354 313.423,-289.051 364,-239 365.304,-237.709 366.672,-236.494 368.094,-235.349"/>
<polygon fill="midnightblue" stroke="midnightblue" points="370.414,-238.008 376.784,-229.541 366.525,-232.188 370.414,-238.008"/>
</g>
<!-- Node16 -->
<g id="node31" class="node"><title>Node16</title>
<a xlink:href="class_urho3_d_1_1_nav_area.html#a2249b0f2a4071341ec58246c2a3e50cc" target="_top" xlink:title="Get the bounds of this navigation area in world space.">
<polygon fill="none" stroke="red" points="380.5,-156 380.5,-190 529.5,-190 529.5,-156 380.5,-156"/>
<text text-anchor="start" x="388.5" y="-177" font-family="FreeSans" font-size="10.00">Urho3D::NavArea::GetWorld</text>
<text text-anchor="middle" x="455" y="-164" font-family="FreeSans" font-size="10.00">BoundingBox</text>
</a>
</g>
<!-- Node2&#45;&gt;Node16 -->
<g id="edge30" class="edge"><title>Node2&#45;&gt;Node16</title>
<path fill="none" stroke="midnightblue" d="M318.12,-403.792C321.755,-401.253 325.098,-398.34 328,-395 386.09,-328.143 304.471,-264.579 364,-199 366.392,-196.365 369.03,-193.99 371.856,-191.85"/>
<polygon fill="midnightblue" stroke="midnightblue" points="373.766,-194.783 380.268,-186.418 369.969,-188.902 373.766,-194.783"/>
</g>
<!-- Node17 -->
<g id="node34" class="node"><title>Node17</title>
<a xlink:href="class_urho3_d_1_1_collision_shape.html#ab53e080fc12b027c7c9356a0017eeeb3" target="_top" xlink:title="Return shape type.">
<polygon fill="none" stroke="black" points="390.5,-104 390.5,-138 519.5,-138 519.5,-104 390.5,-104"/>
<text text-anchor="start" x="398.5" y="-125" font-family="FreeSans" font-size="10.00">Urho3D::CollisionShape</text>
<text text-anchor="middle" x="455" y="-112" font-family="FreeSans" font-size="10.00">::GetShapeType</text>
</a>
</g>
<!-- Node2&#45;&gt;Node17 -->
<g id="edge34" class="edge"><title>Node2&#45;&gt;Node17</title>
<path fill="none" stroke="midnightblue" d="M318.266,-403.917C321.866,-401.347 325.161,-398.394 328,-395 399.461,-309.57 290.7,-230.857 364,-147 368.832,-141.472 374.75,-137.081 381.228,-133.6"/>
<polygon fill="midnightblue" stroke="midnightblue" points="382.74,-136.757 390.359,-129.394 379.811,-130.399 382.74,-136.757"/>
</g>
<!-- Node18 -->
<g id="node36" class="node"><title>Node18</title>
<a xlink:href="class_urho3_d_1_1_collision_shape.html#a32558015cc4b86af7166690f5d89fe40" target="_top" xlink:title="Return triangle mesh / convex hull model.">
<polygon fill="none" stroke="black" points="390.5,-52 390.5,-86 519.5,-86 519.5,-52 390.5,-52"/>
<text text-anchor="start" x="398.5" y="-73" font-family="FreeSans" font-size="10.00">Urho3D::CollisionShape</text>
<text text-anchor="middle" x="455" y="-60" font-family="FreeSans" font-size="10.00">::GetModel</text>
</a>
</g>
<!-- Node2&#45;&gt;Node18 -->
<g id="edge36" class="edge"><title>Node2&#45;&gt;Node18</title>
<path fill="none" stroke="midnightblue" d="M318.017,-404.247C321.729,-401.6 325.113,-398.54 328,-395 412.882,-290.939 276.877,-197.193 364,-95 368.764,-89.4124 374.637,-84.9834 381.088,-81.4786"/>
<polygon fill="midnightblue" stroke="midnightblue" points="382.596,-84.6369 390.192,-77.2502 379.648,-78.2882 382.596,-84.6369"/>
</g>
<!-- Node19 -->
<g id="node38" class="node"><title>Node19</title>
<a xlink:href="class_urho3_d_1_1_collision_shape.html#a164baaf3ff9493570a1212dd72d1cef0" target="_top" xlink:title="Return model LOD level.">
<polygon fill="none" stroke="black" points="390.5,-0 390.5,-34 519.5,-34 519.5,-0 390.5,-0"/>
<text text-anchor="start" x="398.5" y="-21" font-family="FreeSans" font-size="10.00">Urho3D::CollisionShape</text>
<text text-anchor="middle" x="455" y="-8" font-family="FreeSans" font-size="10.00">::GetLodLevel</text>
</a>
</g>
<!-- Node2&#45;&gt;Node19 -->
<g id="edge38" class="edge"><title>Node2&#45;&gt;Node19</title>
<path fill="none" stroke="midnightblue" d="M318.088,-404.305C321.783,-401.644 325.144,-398.565 328,-395 426.331,-272.273 263.026,-163.562 364,-43 368.714,-37.3709 374.556,-32.9149 380.987,-29.3938"/>
<polygon fill="midnightblue" stroke="midnightblue" points="382.494,-32.5531 390.072,-25.1494 379.531,-26.2111 382.494,-32.5531"/>
</g>
<!-- Node16&#45;&gt;Node8 -->
<g id="edge32" class="edge"><title>Node16&#45;&gt;Node8</title>
<path fill="none" stroke="midnightblue" d="M529.889,-189.907C535.56,-192.518 541.009,-195.529 546,-199 601.588,-237.658 641.679,-309.92 658.793,-344.945"/>
<polygon fill="midnightblue" stroke="midnightblue" points="655.723,-346.637 663.183,-354.16 662.042,-343.627 655.723,-346.637"/>
</g>
</g>
</svg>
        <g id="navigator" transform="translate(0 0)" fill="#404254">
                <rect fill="#f2f5e9" fill-opacity="0.5" stroke="#606060" stroke-width=".5" x="0" y="0" width="60" height="60"/>
                <use id="zoomplus" xlink:href="#zoomPlus" x="17" y="9" onmousedown="handleZoom(evt,'in')"/>
                <use id="zoomminus" xlink:href="#zoomMin" x="42" y="9" onmousedown="handleZoom(evt,'out')"/>
                <use id="reset" xlink:href="#resetDef" x="30" y="36" onmousedown="handleReset()"/>
                <g id="arrowUp" xlink:href="#dirArrow" transform="translate(30 24)" onmousedown="handlePan(0,-1)">
                  <use xlink:href="#rim" fill="#404040">
                        <set attributeName="fill" to="#808080" begin="arrowUp.mouseover" end="arrowUp.mouseout"/>
                  </use>
                  <path fill="none" stroke="white" stroke-width="1.5" d="M0,-3.0v7 M-2.5,-0.5L0,-3.0L2.5,-0.5"/>
                </g>
                <g id="arrowRight" xlink:href="#dirArrow" transform="rotate(90) translate(36 -43)" onmousedown="handlePan(1,0)">
                  <use xlink:href="#rim" fill="#404040">
                        <set attributeName="fill" to="#808080" begin="arrowRight.mouseover" end="arrowRight.mouseout"/>
                  </use>
                  <path fill="none" stroke="white" stroke-width="1.5" d="M0,-3.0v7 M-2.5,-0.5L0,-3.0L2.5,-0.5"/>
                </g>
                <g id="arrowDown" xlink:href="#dirArrow" transform="rotate(180) translate(-30 -48)" onmousedown="handlePan(0,1)">
                  <use xlink:href="#rim" fill="#404040">
                        <set attributeName="fill" to="#808080" begin="arrowDown.mouseover" end="arrowDown.mouseout"/>
                  </use>
                  <path fill="none" stroke="white" stroke-width="1.5" d="M0,-3.0v7 M-2.5,-0.5L0,-3.0L2.5,-0.5"/>
                </g>
                <g id="arrowLeft" xlink:href="#dirArrow" transform="rotate(270) translate(-36 17)" onmousedown="handlePan(-1,0)">
                  <use xlink:href="#rim" fill="#404040">
                        <set attributeName="fill" to="#808080" begin="arrowLeft.mouseover" end="arrowLeft.mouseout"/>
                  </use>
                  <path fill="none" stroke="white" stroke-width="1.5" d="M0,-3.0v7 M-2.5,-0.5L0,-3.0L2.5,-0.5"/>
                </g>
        </g>
        <svg viewBox="0 0 15 15" width="100%" height="30px" preserveAspectRatio="xMaxYMin meet">
         <g id="arrow_out" transform="scale(0.3 0.3)">
          <a xlink:href="class_urho3_d_1_1_navigation_mesh_a602be9b482a0a9b7917bb13fd3b02cbf_cgraph_org.svg" target="_base">
           <rect id="button" ry="5" rx="5" y="6" x="6" height="38" width="38"
                fill="#f2f5e9" fill-opacity="0.5" stroke="#606060" stroke-width="1.0"/>
           <path id="arrow"
             d="M 11.500037,31.436501 C 11.940474,20.09759 22.043105,11.32322 32.158766,21.979434 L 37.068811,17.246167 C 37.068811,17.246167 37.088388,32 37.088388,32 L 22.160133,31.978069 C 22.160133,31.978069 26.997745,27.140456 26.997745,27.140456 C 18.528582,18.264221 13.291696,25.230495 11.500037,31.436501 z"
             style="fill:#404040;"/>
          </a>
         </g>
        </svg>
</svg>
