<?xml version="1.0" encoding="UTF-8" standalone="no"?>
<!DOCTYPE svg PUBLIC "-//W3C//DTD SVG 1.1//EN"
 "http://www.w3.org/Graphics/SVG/1.1/DTD/svg11.dtd">
<!-- Generated by graphviz version 2.26.3 (20100126.1600)
 -->
<!-- Title: rapidjson::Handler Pages: 1 -->
<!--zoomable 160 -->
<svg id="main" version="1.1" xmlns="http://www.w3.org/2000/svg" xmlns:xlink="http://www.w3.org/1999/xlink" xml:space="preserve" onload="init(evt)">
        <defs>
                <circle id="rim" cx="0" cy="0" r="7"/>
                <circle id="rim2" cx="0" cy="0" r="3.5"/>
                <g id="zoomPlus">
                        <use xlink:href="#rim" fill="#404040">
                                <set attributeName="fill" to="#808080" begin="zoomplus.mouseover" end="zoomplus.mouseout"/>
                        </use>
                        <path d="M-4,0h8M0,-4v8" fill="none" stroke="white" stroke-width="1.5" pointer-events="none"/>
                </g>
                <g id="zoomMin">
                        <use xlink:href="#rim" fill="#404040">
                                <set attributeName="fill" to="#808080" begin="zoomminus.mouseover" end="zoomminus.mouseout"/>
                        </use>
                        <path d="M-4,0h8" fill="none" stroke="white" stroke-width="1.5" pointer-events="none"/>
                </g>
                <g id="dirArrow">
                        <path fill="none" stroke="white" stroke-width="1.5" d="M0,-3.0v7 M-2.5,-0.5L0,-3.0L2.5,-0.5"/>
                </g>
               <g id="resetDef">
                       <use xlink:href="#rim2" fill="#404040">
                               <set attributeName="fill" to="#808080" begin="reset.mouseover" end="reset.mouseout"/>
                       </use>
               </g>
        </defs>

<script type="text/javascript">
var viewWidth = 544;
var viewHeight = 160;
var sectionId = 'dynsection-0';
</script>
<script xlink:href="svgpan.js"/>
<svg id="graph" class="graph">
<g id="viewport">
<title>rapidjson::Handler</title>
<!-- Node1 -->
<g id="node1" class="node"><title>Node1</title>
<polygon fill="#bfbfbf" stroke="black" points="0,-72.5 0,-93.5 104,-93.5 104,-72.5 0,-72.5"/>
<text text-anchor="middle" x="52" y="-80.5" font-family="FreeSans" font-size="10.00">rapidjson::Handler</text>
</g>
<!-- Node2 -->
<g id="node3" class="node"><title>Node2</title>
<a xlink:href="structrapidjson_1_1_base_reader_handler.html" target="_top" xlink:title="Default implementation of Handler.">
<polygon fill="none" stroke="black" points="147.5,-118 147.5,-152 308.5,-152 308.5,-118 147.5,-118"/>
<text text-anchor="start" x="155.5" y="-139" font-family="FreeSans" font-size="10.00">rapidjson::BaseReaderHandler</text>
<text text-anchor="middle" x="228" y="-126" font-family="FreeSans" font-size="10.00">&lt; Encoding &gt;</text>
</a>
</g>
<!-- Node1&#45;&gt;Node2 -->
<g id="edge2" class="edge"><title>Node1&#45;&gt;Node2</title>
<path fill="none" stroke="midnightblue" d="M97.4541,-96.4296C119.658,-102.99 146.621,-110.956 170.264,-117.942"/>
<polygon fill="midnightblue" stroke="midnightblue" points="98.1981,-92.9999 87.6162,-93.523 96.2147,-99.7131 98.1981,-92.9999"/>
</g>
<!-- Node3 -->
<g id="node5" class="node"><title>Node3</title>
<a xlink:href="classrapidjson_1_1_generic_document.html" target="_top" xlink:title="A document for parsing JSON text as DOM.">
<polygon fill="none" stroke="black" points="151.5,-66 151.5,-100 304.5,-100 304.5,-66 151.5,-66"/>
<text text-anchor="start" x="159.5" y="-87" font-family="FreeSans" font-size="10.00">rapidjson::GenericDocument</text>
<text text-anchor="middle" x="228" y="-74" font-family="FreeSans" font-size="10.00">&lt; Encoding, Allocator &gt;</text>
</a>
</g>
<!-- Node1&#45;&gt;Node3 -->
<g id="edge4" class="edge"><title>Node1&#45;&gt;Node3</title>
<path fill="none" stroke="midnightblue" d="M114.609,-83C126.534,-83 139.14,-83 151.442,-83"/>
<polygon fill="midnightblue" stroke="midnightblue" points="114.329,-79.5001 104.329,-83 114.329,-86.5001 114.329,-79.5001"/>
</g>
<!-- Node4 -->
<g id="node7" class="node"><title>Node4</title>
<a xlink:href="classrapidjson_1_1_writer.html" target="_top" xlink:title="JSON writer.">
<polygon fill="none" stroke="black" points="140.5,-0.5 140.5,-47.5 315.5,-47.5 315.5,-0.5 140.5,-0.5"/>
<text text-anchor="start" x="148.5" y="-34.5" font-family="FreeSans" font-size="10.00">rapidjson::Writer&lt;</text>
<text text-anchor="start" x="148.5" y="-21.5" font-family="FreeSans" font-size="10.00"> OutputStream, SourceEncoding,</text>
<text text-anchor="middle" x="228" y="-8.5" font-family="FreeSans" font-size="10.00"> TargetEncoding, Allocator &gt;</text>
</a>
</g>
<!-- Node1&#45;&gt;Node4 -->
<g id="edge6" class="edge"><title>Node1&#45;&gt;Node4</title>
<path fill="none" stroke="midnightblue" d="M93.1138,-69.2175C112.36,-62.7658 135.831,-54.8974 157.766,-47.5442"/>
<polygon fill="midnightblue" stroke="midnightblue" points="91.8342,-65.955 83.4653,-72.452 94.0592,-72.592 91.8342,-65.955"/>
</g>
<!-- Node5 -->
<g id="node9" class="node"><title>Node5</title>
<a xlink:href="classrapidjson_1_1_pretty_writer.html" target="_top" xlink:title="Writer with indentation and spacing.">
<polygon fill="none" stroke="black" points="352.5,-0.5 352.5,-47.5 535.5,-47.5 535.5,-0.5 352.5,-0.5"/>
<text text-anchor="start" x="360.5" y="-34.5" font-family="FreeSans" font-size="10.00">rapidjson::PrettyWriter</text>
<text text-anchor="start" x="360.5" y="-21.5" font-family="FreeSans" font-size="10.00">&lt; OutputStream, SourceEncoding,</text>
<text text-anchor="middle" x="444" y="-8.5" font-family="FreeSans" font-size="10.00"> TargetEncoding, Allocator &gt;</text>
</a>
</g>
<!-- Node4&#45;&gt;Node5 -->
<g id="edge8" class="edge"><title>Node4&#45;&gt;Node5</title>
<path fill="none" stroke="midnightblue" d="M325.588,-24C334.532,-24 343.572,-24 352.46,-24"/>
<polygon fill="midnightblue" stroke="midnightblue" points="325.544,-20.5001 315.544,-24 325.544,-27.5001 325.544,-20.5001"/>
</g>
</g>
</svg>
        <g id="navigator" transform="translate(0 0)" fill="#404254">
                <rect fill="#f2f5e9" fill-opacity="0.5" stroke="#606060" stroke-width=".5" x="0" y="0" width="60" height="60"/>
                <use id="zoomplus" xlink:href="#zoomPlus" x="17" y="9" onmousedown="handleZoom(evt,'in')"/>
                <use id="zoomminus" xlink:href="#zoomMin" x="42" y="9" onmousedown="handleZoom(evt,'out')"/>
                <use id="reset" xlink:href="#resetDef" x="30" y="36" onmousedown="handleReset()"/>
                <g id="arrowUp" xlink:href="#dirArrow" transform="translate(30 24)" onmousedown="handlePan(0,-1)">
                  <use xlink:href="#rim" fill="#404040">
                        <set attributeName="fill" to="#808080" begin="arrowUp.mouseover" end="arrowUp.mouseout"/>
                  </use>
                  <path fill="none" stroke="white" stroke-width="1.5" d="M0,-3.0v7 M-2.5,-0.5L0,-3.0L2.5,-0.5"/>
                </g>
                <g id="arrowRight" xlink:href="#dirArrow" transform="rotate(90) translate(36 -43)" onmousedown="handlePan(1,0)">
                  <use xlink:href="#rim" fill="#404040">
                        <set attributeName="fill" to="#808080" begin="arrowRight.mouseover" end="arrowRight.mouseout"/>
                  </use>
                  <path fill="none" stroke="white" stroke-width="1.5" d="M0,-3.0v7 M-2.5,-0.5L0,-3.0L2.5,-0.5"/>
                </g>
                <g id="arrowDown" xlink:href="#dirArrow" transform="rotate(180) translate(-30 -48)" onmousedown="handlePan(0,1)">
                  <use xlink:href="#rim" fill="#404040">
                        <set attributeName="fill" to="#808080" begin="arrowDown.mouseover" end="arrowDown.mouseout"/>
                  </use>
                  <path fill="none" stroke="white" stroke-width="1.5" d="M0,-3.0v7 M-2.5,-0.5L0,-3.0L2.5,-0.5"/>
                </g>
                <g id="arrowLeft" xlink:href="#dirArrow" transform="rotate(270) translate(-36 17)" onmousedown="handlePan(-1,0)">
                  <use xlink:href="#rim" fill="#404040">
                        <set attributeName="fill" to="#808080" begin="arrowLeft.mouseover" end="arrowLeft.mouseout"/>
                  </use>
                  <path fill="none" stroke="white" stroke-width="1.5" d="M0,-3.0v7 M-2.5,-0.5L0,-3.0L2.5,-0.5"/>
                </g>
        </g>
        <svg viewBox="0 0 15 15" width="100%" height="30px" preserveAspectRatio="xMaxYMin meet">
         <g id="arrow_out" transform="scale(0.3 0.3)">
          <a xlink:href="classrapidjson_1_1_handler__inherit__graph_org.svg" target="_base">
           <rect id="button" ry="5" rx="5" y="6" x="6" height="38" width="38"
                fill="#f2f5e9" fill-opacity="0.5" stroke="#606060" stroke-width="1.0"/>
           <path id="arrow"
             d="M 11.500037,31.436501 C 11.940474,20.09759 22.043105,11.32322 32.158766,21.979434 L 37.068811,17.246167 C 37.068811,17.246167 37.088388,32 37.088388,32 L 22.160133,31.978069 C 22.160133,31.978069 26.997745,27.140456 26.997745,27.140456 C 18.528582,18.264221 13.291696,25.230495 11.500037,31.436501 z"
             style="fill:#404040;"/>
          </a>
         </g>
        </svg>
</svg>
