<?xml version="1.0" encoding="UTF-8" standalone="no"?>
<!DOCTYPE svg PUBLIC "-//W3C//DTD SVG 1.1//EN"
 "http://www.w3.org/Graphics/SVG/1.1/DTD/svg11.dtd">
<!-- Generated by graphviz version 2.26.3 (20100126.1600)
 -->
<!-- Title: Urho3D::ShaderParameterAnimationInfo Pages: 1 -->
<svg width="1798pt" height="1010pt"
 viewBox="0.00 0.00 1798.00 1010.00" xmlns="http://www.w3.org/2000/svg" xmlns:xlink="http://www.w3.org/1999/xlink">
<g id="graph1" class="graph" transform="scale(1 1) rotate(0) translate(4 1006)">
<title>Urho3D::ShaderParameterAnimationInfo</title>
<!-- Node1 -->
<g id="node1" class="node"><title>Node1</title>
<polygon fill="#bfbfbf" stroke="black" points="1580,-855.5 1580,-876.5 1790,-876.5 1790,-855.5 1580,-855.5"/>
<text text-anchor="middle" x="1685" y="-863.5" font-family="FreeSans" font-size="10.00">Urho3D::ShaderParameterAnimationInfo</text>
</g>
<!-- Node2 -->
<g id="node2" class="node"><title>Node2</title>
<a xlink:href="class_urho3_d_1_1_value_animation_info.html" target="_top" xlink:title="Base class for a value animation instance, which includes animation runtime information and updates t...">
<polygon fill="none" stroke="black" points="1390,-762.5 1390,-783.5 1542,-783.5 1542,-762.5 1390,-762.5"/>
<text text-anchor="middle" x="1466" y="-770.5" font-family="FreeSans" font-size="10.00">Urho3D::ValueAnimationInfo</text>
</a>
</g>
<!-- Node2&#45;&gt;Node1 -->
<g id="edge2" class="edge"><title>Node2&#45;&gt;Node1</title>
<path fill="none" stroke="midnightblue" d="M1500.35,-787.589C1544.75,-806.444 1621,-838.821 1660.17,-855.456"/>
<polygon fill="midnightblue" stroke="midnightblue" points="1501.69,-784.356 1491.12,-783.668 1498.96,-790.799 1501.69,-784.356"/>
</g>
<!-- Node3 -->
<g id="node4" class="node"><title>Node3</title>
<a xlink:href="class_urho3_d_1_1_ref_counted.html" target="_top" xlink:title="Base class for intrusively reference&#45;counted objects. These are noncopyable and non&#45;assignable.">
<polygon fill="none" stroke="black" points="188,-671.5 188,-692.5 302,-692.5 302,-671.5 188,-671.5"/>
<text text-anchor="middle" x="245" y="-679.5" font-family="FreeSans" font-size="10.00">Urho3D::RefCounted</text>
</a>
</g>
<!-- Node3&#45;&gt;Node2 -->
<g id="edge4" class="edge"><title>Node3&#45;&gt;Node2</title>
<path fill="none" stroke="midnightblue" d="M312.391,-690.523C348.162,-694.341 392.9,-698 433,-698 433,-698 433,-698 1221,-698 1307.96,-698 1404.99,-741.74 1445.99,-762.413"/>
<polygon fill="midnightblue" stroke="midnightblue" points="312.395,-687.003 302.073,-689.391 311.632,-693.961 312.395,-687.003"/>
</g>
<!-- Node6 -->
<g id="node10" class="node"><title>Node6</title>
<a xlink:href="class_urho3_d_1_1_object.html" target="_top" xlink:title="Base class for objects with type identification, subsystem access and event sending/receiving capabil...">
<polygon fill="none" stroke="black" points="388,-647.5 388,-668.5 478,-668.5 478,-647.5 388,-647.5"/>
<text text-anchor="middle" x="433" y="-655.5" font-family="FreeSans" font-size="10.00">Urho3D::Object</text>
</a>
</g>
<!-- Node3&#45;&gt;Node6 -->
<g id="edge12" class="edge"><title>Node3&#45;&gt;Node6</title>
<path fill="none" stroke="midnightblue" d="M312.338,-673.404C337.363,-670.209 365.135,-666.664 387.722,-663.78"/>
<polygon fill="midnightblue" stroke="midnightblue" points="311.648,-669.963 302.172,-674.701 312.535,-676.907 311.648,-669.963"/>
</g>
<!-- Node7 -->
<g id="node13" class="node"><title>Node7</title>
<a xlink:href="class_urho3_d_1_1_context.html" target="_top" xlink:title="Urho3D execution context. Provides access to subsystems, object factories and attributes, and event receivers.">
<polygon fill="none" stroke="black" points="950.5,-308.5 950.5,-329.5 1047.5,-329.5 1047.5,-308.5 950.5,-308.5"/>
<text text-anchor="middle" x="999" y="-316.5" font-family="FreeSans" font-size="10.00">Urho3D::Context</text>
</a>
</g>
<!-- Node3&#45;&gt;Node7 -->
<g id="edge16" class="edge"><title>Node3&#45;&gt;Node7</title>
<path fill="none" stroke="midnightblue" d="M253.849,-661.883C284.963,-594.033 396.784,-373.378 568,-293 706.937,-227.775 899.334,-283.516 970.8,-308.449"/>
<polygon fill="midnightblue" stroke="midnightblue" points="250.471,-660.86 249.552,-671.415 256.852,-663.737 250.471,-660.86"/>
</g>
<!-- Node4 -->
<g id="node6" class="node"><title>Node4</title>
<a xlink:href="struct_urho3_d_1_1_ref_count.html" target="_top" xlink:title="Reference count structure.">
<polygon fill="none" stroke="black" points="0,-722.5 0,-743.5 102,-743.5 102,-722.5 0,-722.5"/>
<text text-anchor="middle" x="51" y="-730.5" font-family="FreeSans" font-size="10.00">Urho3D::RefCount</text>
</a>
</g>
<!-- Node4&#45;&gt;Node3 -->
<g id="edge6" class="edge"><title>Node4&#45;&gt;Node3</title>
<path fill="none" stroke="#9a32cd" stroke-dasharray="5,2" d="M100.902,-719.881C133.199,-711.391 174.694,-700.483 204.855,-692.554"/>
<polygon fill="#9a32cd" stroke="#9a32cd" points="99.9784,-716.505 91.1969,-722.433 101.758,-723.275 99.9784,-716.505"/>
<text text-anchor="middle" x="145" y="-718" font-family="FreeSans" font-size="10.00"> refCount_</text>
</g>
<!-- Node5 -->
<g id="node8" class="node"><title>Node5</title>
<a xlink:href="class_urho3_d_1_1_weak_ptr.html" target="_top" xlink:title="Urho3D::WeakPtr\&lt; Urho3D\l::Object \&gt;">
<polygon fill="none" stroke="black" points="598,-726 598,-760 744,-760 744,-726 598,-726"/>
<text text-anchor="start" x="606" y="-747" font-family="FreeSans" font-size="10.00">Urho3D::WeakPtr&lt; Urho3D</text>
<text text-anchor="middle" x="671" y="-734" font-family="FreeSans" font-size="10.00">::Object &gt;</text>
</a>
</g>
<!-- Node4&#45;&gt;Node5 -->
<g id="edge42" class="edge"><title>Node4&#45;&gt;Node5</title>
<path fill="none" stroke="#9a32cd" stroke-dasharray="5,2" d="M112.027,-733.984C226.849,-735.836 474.544,-739.831 597.986,-741.822"/>
<polygon fill="#9a32cd" stroke="#9a32cd" points="112.056,-730.484 102.001,-733.823 111.943,-737.484 112.056,-730.484"/>
<text text-anchor="middle" x="345" y="-743" font-family="FreeSans" font-size="10.00"> refCount_</text>
</g>
<!-- Node5&#45;&gt;Node2 -->
<g id="edge8" class="edge"><title>Node5&#45;&gt;Node2</title>
<path fill="none" stroke="#9a32cd" stroke-dasharray="5,2" d="M754.425,-746.148C909.585,-752.003 1240.32,-764.484 1389.82,-770.125"/>
<polygon fill="#9a32cd" stroke="#9a32cd" points="754.137,-742.635 744.012,-745.755 753.873,-749.63 754.137,-742.635"/>
<text text-anchor="middle" x="1109" y="-765" font-family="FreeSans" font-size="10.00"> target_</text>
</g>
<!-- Node6&#45;&gt;Node5 -->
<g id="edge10" class="edge"><title>Node6&#45;&gt;Node5</title>
<path fill="none" stroke="#9a32cd" stroke-dasharray="5,2" d="M472.131,-671.975C513.52,-686.757 578.851,-710.09 623.245,-725.945"/>
<polygon fill="#9a32cd" stroke="#9a32cd" points="473.256,-668.661 462.662,-668.593 470.902,-675.253 473.256,-668.661"/>
<text text-anchor="middle" x="523" y="-702" font-family="FreeSans" font-size="10.00"> ptr_</text>
</g>
<!-- Node9 -->
<g id="node18" class="node"><title>Node9</title>
<a xlink:href="class_urho3_d_1_1_event_handler.html" target="_top" xlink:title="Internal helper class for invoking event handler functions.">
<polygon fill="none" stroke="red" points="609,-599.5 609,-620.5 733,-620.5 733,-599.5 609,-599.5"/>
<text text-anchor="middle" x="671" y="-607.5" font-family="FreeSans" font-size="10.00">Urho3D::EventHandler</text>
</a>
</g>
<!-- Node6&#45;&gt;Node9 -->
<g id="edge22" class="edge"><title>Node6&#45;&gt;Node9</title>
<path fill="none" stroke="#9a32cd" stroke-dasharray="5,2" d="M453.144,-640.862C464.85,-631.987 480.345,-621.988 496,-617 532.214,-605.461 574.786,-603.522 608.873,-604.559"/>
<polygon fill="#9a32cd" stroke="#9a32cd" points="450.652,-638.371 444.992,-647.327 455.002,-643.856 450.652,-638.371"/>
<text text-anchor="middle" x="523" y="-634" font-family="FreeSans" font-size="10.00"> sender_</text>
<text text-anchor="middle" x="523" y="-621" font-family="FreeSans" font-size="10.00">receiver_</text>
</g>
<!-- Node20 -->
<g id="node43" class="node"><title>Node20</title>
<a xlink:href="class_urho3_d_1_1_resource.html" target="_top" xlink:title="Base class for resources.">
<polygon fill="none" stroke="red" points="619.5,-922.5 619.5,-943.5 722.5,-943.5 722.5,-922.5 619.5,-922.5"/>
<text text-anchor="middle" x="671" y="-930.5" font-family="FreeSans" font-size="10.00">Urho3D::Resource</text>
</a>
</g>
<!-- Node6&#45;&gt;Node20 -->
<g id="edge50" class="edge"><title>Node6&#45;&gt;Node20</title>
<path fill="none" stroke="midnightblue" d="M437.435,-678.379C449.236,-727.416 486.251,-852.408 568,-913 582.708,-923.901 601.741,-929.326 619.438,-931.893"/>
<polygon fill="midnightblue" stroke="midnightblue" points="440.841,-677.573 435.181,-668.617 434.02,-679.148 440.841,-677.573"/>
</g>
<!-- Node7&#45;&gt;Node6 -->
<g id="edge14" class="edge"><title>Node7&#45;&gt;Node6</title>
<path fill="none" stroke="#9a32cd" stroke-dasharray="5,2" d="M975.272,-335.407C957.419,-347.165 932.002,-362.684 908,-373 851.127,-397.445 834.348,-397.209 774,-411 683.393,-431.706 645.369,-395.498 568,-447 490.168,-498.811 447.849,-612.422 436.29,-647.484"/>
<polygon fill="#9a32cd" stroke="#9a32cd" points="977.51,-338.122 983.872,-329.649 973.615,-332.305 977.51,-338.122"/>
<text text-anchor="middle" x="671" y="-451" font-family="FreeSans" font-size="10.00"> context_</text>
</g>
<!-- Node8 -->
<g id="node16" class="node"><title>Node8</title>
<a xlink:href="class_urho3_d_1_1_p_o_d_vector.html" target="_top" xlink:title="Urho3D::PODVector\&lt;\l Urho3D::Object * \&gt;">
<polygon fill="none" stroke="red" points="611.5,-469 611.5,-503 730.5,-503 730.5,-469 611.5,-469"/>
<text text-anchor="start" x="619.5" y="-490" font-family="FreeSans" font-size="10.00">Urho3D::PODVector&lt;</text>
<text text-anchor="middle" x="671" y="-477" font-family="FreeSans" font-size="10.00"> Urho3D::Object * &gt;</text>
</a>
</g>
<!-- Node8&#45;&gt;Node7 -->
<g id="edge18" class="edge"><title>Node8&#45;&gt;Node7</title>
<path fill="none" stroke="#9a32cd" stroke-dasharray="5,2" d="M740.603,-490.329C790.698,-490.208 857.978,-483.126 908,-452 956.459,-421.846 985.472,-355.294 995.26,-329.501"/>
<polygon fill="#9a32cd" stroke="#9a32cd" points="740.528,-486.829 730.505,-490.261 740.481,-493.828 740.528,-486.829"/>
<text text-anchor="middle" x="850" y="-491" font-family="FreeSans" font-size="10.00"> eventSenders_</text>
</g>
<!-- Node9&#45;&gt;Node7 -->
<g id="edge20" class="edge"><title>Node9&#45;&gt;Node7</title>
<path fill="none" stroke="#9a32cd" stroke-dasharray="5,2" d="M743.458,-604.044C803.761,-597.708 883.553,-585.678 908,-565 983.62,-501.039 996.432,-368.19 998.575,-329.678"/>
<polygon fill="#9a32cd" stroke="#9a32cd" points="742.797,-600.593 733.202,-605.087 743.505,-607.557 742.797,-600.593"/>
<text text-anchor="middle" x="850" y="-602" font-family="FreeSans" font-size="10.00"> eventHandler_</text>
</g>
<!-- Node17 -->
<g id="node35" class="node"><title>Node17</title>
<a xlink:href="class_urho3_d_1_1_linked_list.html" target="_top" xlink:title="Urho3D::LinkedList\l\&lt; Urho3D::EventHandler \&gt;">
<polygon fill="none" stroke="black" points="926,-621 926,-655 1072,-655 1072,-621 926,-621"/>
<text text-anchor="start" x="934" y="-642" font-family="FreeSans" font-size="10.00">Urho3D::LinkedList</text>
<text text-anchor="middle" x="999" y="-629" font-family="FreeSans" font-size="10.00">&lt; Urho3D::EventHandler &gt;</text>
</a>
</g>
<!-- Node9&#45;&gt;Node17 -->
<g id="edge40" class="edge"><title>Node9&#45;&gt;Node17</title>
<path fill="none" stroke="#9a32cd" stroke-dasharray="5,2" d="M743.45,-616.048C790.377,-619.981 852.809,-625.245 908,-630 913.846,-630.504 919.904,-631.029 925.989,-631.559"/>
<polygon fill="#9a32cd" stroke="#9a32cd" points="743.637,-612.551 733.38,-615.204 743.052,-619.527 743.637,-612.551"/>
<text text-anchor="middle" x="850" y="-634" font-family="FreeSans" font-size="10.00"> head_</text>
</g>
<!-- Node10 -->
<g id="node21" class="node"><title>Node10</title>
<a xlink:href="class_urho3_d_1_1_hash_map.html" target="_top" xlink:title="Urho3D::HashMap\&lt; Urho3D\l::StringHash, Urho3D::\lHashSet\&lt; Urho3D::Object * \&gt; \&gt;">
<polygon fill="none" stroke="red" points="584.5,-0.5 584.5,-47.5 757.5,-47.5 757.5,-0.5 584.5,-0.5"/>
<text text-anchor="start" x="592.5" y="-34.5" font-family="FreeSans" font-size="10.00">Urho3D::HashMap&lt; Urho3D</text>
<text text-anchor="start" x="592.5" y="-21.5" font-family="FreeSans" font-size="10.00">::StringHash, Urho3D::</text>
<text text-anchor="middle" x="671" y="-8.5" font-family="FreeSans" font-size="10.00">HashSet&lt; Urho3D::Object * &gt; &gt;</text>
</a>
</g>
<!-- Node10&#45;&gt;Node7 -->
<g id="edge24" class="edge"><title>Node10&#45;&gt;Node7</title>
<path fill="none" stroke="#9a32cd" stroke-dasharray="5,2" d="M767.471,-24.3168C814.737,-29.2435 869.593,-42.7042 908,-76 981.864,-140.034 995.891,-270.111 998.45,-308.258"/>
<polygon fill="#9a32cd" stroke="#9a32cd" points="767.79,-20.8314 757.509,-23.3909 767.143,-27.8014 767.79,-20.8314"/>
<text text-anchor="middle" x="850" y="-80" font-family="FreeSans" font-size="10.00"> eventReceivers_</text>
</g>
<!-- Node11 -->
<g id="node23" class="node"><title>Node11</title>
<a xlink:href="class_urho3_d_1_1_hash_map.html" target="_top" xlink:title="Urho3D::HashMap\&lt; Urho3D\l::Object *, Urho3D::HashMap\l\&lt; Urho3D::StringHash, Urho3D\l::HashSet\&lt; Urho3D::Object * \&gt; \&gt; \&gt;">
<polygon fill="none" stroke="red" points="575.5,-521 575.5,-581 766.5,-581 766.5,-521 575.5,-521"/>
<text text-anchor="start" x="583.5" y="-568" font-family="FreeSans" font-size="10.00">Urho3D::HashMap&lt; Urho3D</text>
<text text-anchor="start" x="583.5" y="-555" font-family="FreeSans" font-size="10.00">::Object *, Urho3D::HashMap</text>
<text text-anchor="start" x="583.5" y="-542" font-family="FreeSans" font-size="10.00">&lt; Urho3D::StringHash, Urho3D</text>
<text text-anchor="middle" x="671" y="-529" font-family="FreeSans" font-size="10.00">::HashSet&lt; Urho3D::Object * &gt; &gt; &gt;</text>
</a>
</g>
<!-- Node11&#45;&gt;Node7 -->
<g id="edge26" class="edge"><title>Node11&#45;&gt;Node7</title>
<path fill="none" stroke="#9a32cd" stroke-dasharray="5,2" d="M776.751,-550.212C821.103,-545.082 870.879,-532.496 908,-504 967.907,-458.011 990.881,-362.155 997.106,-329.876"/>
<polygon fill="#9a32cd" stroke="#9a32cd" points="776.371,-546.733 766.789,-551.252 777.098,-553.695 776.371,-546.733"/>
<text text-anchor="middle" x="850" y="-552" font-family="FreeSans" font-size="10.00"> specificEventReceivers_</text>
</g>
<!-- Node12 -->
<g id="node25" class="node"><title>Node12</title>
<a xlink:href="class_urho3_d_1_1_hash_map.html" target="_top" xlink:title="Urho3D::HashMap\&lt; Urho3D\l::StringHash, Urho3D::\lSharedPtr\&lt; Urho3D::Object \&gt; \&gt;">
<polygon fill="none" stroke="red" points="585,-354.5 585,-401.5 757,-401.5 757,-354.5 585,-354.5"/>
<text text-anchor="start" x="593" y="-388.5" font-family="FreeSans" font-size="10.00">Urho3D::HashMap&lt; Urho3D</text>
<text text-anchor="start" x="593" y="-375.5" font-family="FreeSans" font-size="10.00">::StringHash, Urho3D::</text>
<text text-anchor="middle" x="671" y="-362.5" font-family="FreeSans" font-size="10.00">SharedPtr&lt; Urho3D::Object &gt; &gt;</text>
</a>
</g>
<!-- Node12&#45;&gt;Node7 -->
<g id="edge28" class="edge"><title>Node12&#45;&gt;Node7</title>
<path fill="none" stroke="#9a32cd" stroke-dasharray="5,2" d="M767.07,-361.184C810.179,-353.584 861.659,-344.434 908,-336 921.757,-333.496 936.673,-330.731 950.372,-328.171"/>
<polygon fill="#9a32cd" stroke="#9a32cd" points="766.395,-357.749 757.154,-362.93 767.61,-364.642 766.395,-357.749"/>
<text text-anchor="middle" x="850" y="-360" font-family="FreeSans" font-size="10.00"> subsystems_</text>
</g>
<!-- Node13 -->
<g id="node27" class="node"><title>Node13</title>
<a xlink:href="class_urho3_d_1_1_p_o_d_vector.html" target="_top" xlink:title="Urho3D::PODVector\&lt;\l Urho3D::HashMap * \&gt;">
<polygon fill="none" stroke="red" points="607.5,-302 607.5,-336 734.5,-336 734.5,-302 607.5,-302"/>
<text text-anchor="start" x="615.5" y="-323" font-family="FreeSans" font-size="10.00">Urho3D::PODVector&lt;</text>
<text text-anchor="middle" x="671" y="-310" font-family="FreeSans" font-size="10.00"> Urho3D::HashMap * &gt;</text>
</a>
</g>
<!-- Node13&#45;&gt;Node7 -->
<g id="edge30" class="edge"><title>Node13&#45;&gt;Node7</title>
<path fill="none" stroke="#9a32cd" stroke-dasharray="5,2" d="M744.881,-319C807.743,-319 896.226,-319 950.479,-319"/>
<polygon fill="#9a32cd" stroke="#9a32cd" points="744.631,-315.5 734.631,-319 744.631,-322.5 744.631,-315.5"/>
<text text-anchor="middle" x="850" y="-323" font-family="FreeSans" font-size="10.00"> eventDataMaps_</text>
</g>
<!-- Node14 -->
<g id="node29" class="node"><title>Node14</title>
<a xlink:href="class_urho3_d_1_1_hash_map.html" target="_top" xlink:title="Urho3D::HashMap\&lt; Urho3D\l::StringHash, Urho3D::\lSharedPtr\&lt; Urho3D::ObjectFactory \&gt; \&gt;">
<polygon fill="none" stroke="red" points="568,-198.5 568,-245.5 774,-245.5 774,-198.5 568,-198.5"/>
<text text-anchor="start" x="576" y="-232.5" font-family="FreeSans" font-size="10.00">Urho3D::HashMap&lt; Urho3D</text>
<text text-anchor="start" x="576" y="-219.5" font-family="FreeSans" font-size="10.00">::StringHash, Urho3D::</text>
<text text-anchor="middle" x="671" y="-206.5" font-family="FreeSans" font-size="10.00">SharedPtr&lt; Urho3D::ObjectFactory &gt; &gt;</text>
</a>
</g>
<!-- Node14&#45;&gt;Node7 -->
<g id="edge32" class="edge"><title>Node14&#45;&gt;Node7</title>
<path fill="none" stroke="#9a32cd" stroke-dasharray="5,2" d="M784.225,-221.067C824.508,-224.041 869.415,-231.265 908,-247 942.323,-260.998 974.318,-292.069 989.599,-308.439"/>
<polygon fill="#9a32cd" stroke="#9a32cd" points="784.299,-217.564 774.09,-220.4 783.839,-224.549 784.299,-217.564"/>
<text text-anchor="middle" x="850" y="-251" font-family="FreeSans" font-size="10.00"> factories_</text>
</g>
<!-- Node15 -->
<g id="node31" class="node"><title>Node15</title>
<a xlink:href="class_urho3_d_1_1_hash_map.html" target="_top" xlink:title="Urho3D::HashMap\&lt; Urho3D\l::String, Urho3D::Vector\l\&lt; Urho3D::StringHash \&gt; \&gt;">
<polygon fill="none" stroke="red" points="595,-132.5 595,-179.5 747,-179.5 747,-132.5 595,-132.5"/>
<text text-anchor="start" x="603" y="-166.5" font-family="FreeSans" font-size="10.00">Urho3D::HashMap&lt; Urho3D</text>
<text text-anchor="start" x="603" y="-153.5" font-family="FreeSans" font-size="10.00">::String, Urho3D::Vector</text>
<text text-anchor="middle" x="671" y="-140.5" font-family="FreeSans" font-size="10.00">&lt; Urho3D::StringHash &gt; &gt;</text>
</a>
</g>
<!-- Node15&#45;&gt;Node7 -->
<g id="edge34" class="edge"><title>Node15&#45;&gt;Node7</title>
<path fill="none" stroke="#9a32cd" stroke-dasharray="5,2" d="M757.069,-159.616C804.515,-164.951 862.785,-177.247 908,-205 950.95,-231.362 982.114,-285.625 993.863,-308.483"/>
<polygon fill="#9a32cd" stroke="#9a32cd" points="757.426,-156.134 747.118,-158.58 756.702,-163.096 757.426,-156.134"/>
<text text-anchor="middle" x="850" y="-209" font-family="FreeSans" font-size="10.00"> objectCategories_</text>
</g>
<!-- Node16 -->
<g id="node33" class="node"><title>Node16</title>
<a xlink:href="class_urho3_d_1_1_hash_map.html" target="_top" xlink:title="Urho3D::HashMap\&lt; Urho3D\l::StringHash, Urho3D::\lVector\&lt; Urho3D::AttributeInfo \&gt; \&gt;">
<polygon fill="none" stroke="red" points="579.5,-66.5 579.5,-113.5 762.5,-113.5 762.5,-66.5 579.5,-66.5"/>
<text text-anchor="start" x="587.5" y="-100.5" font-family="FreeSans" font-size="10.00">Urho3D::HashMap&lt; Urho3D</text>
<text text-anchor="start" x="587.5" y="-87.5" font-family="FreeSans" font-size="10.00">::StringHash, Urho3D::</text>
<text text-anchor="middle" x="671" y="-74.5" font-family="FreeSans" font-size="10.00">Vector&lt; Urho3D::AttributeInfo &gt; &gt;</text>
</a>
</g>
<!-- Node16&#45;&gt;Node7 -->
<g id="edge36" class="edge"><title>Node16&#45;&gt;Node7</title>
<path fill="none" stroke="#9a32cd" stroke-dasharray="5,2" d="M772.8,-89.9484C818.087,-94.6013 869.705,-106.856 908,-136 967.577,-181.34 990.765,-276.258 997.076,-308.227"/>
<polygon fill="#9a32cd" stroke="#9a32cd" points="772.92,-86.4448 762.642,-89.0192 772.282,-93.4157 772.92,-86.4448"/>
<text text-anchor="middle" x="850" y="-153" font-family="FreeSans" font-size="10.00"> attributes_</text>
<text text-anchor="middle" x="850" y="-140" font-family="FreeSans" font-size="10.00">networkAttributes_</text>
</g>
<!-- Node17&#45;&gt;Node6 -->
<g id="edge38" class="edge"><title>Node17&#45;&gt;Node6</title>
<path fill="none" stroke="#9a32cd" stroke-dasharray="5,2" d="M915.782,-642.651C913.158,-642.773 910.559,-642.889 908,-643 750.148,-649.828 562.66,-654.834 478.204,-656.924"/>
<polygon fill="#9a32cd" stroke="#9a32cd" points="916.173,-646.137 925.994,-642.161 915.838,-639.145 916.173,-646.137"/>
<text text-anchor="middle" x="671" y="-659" font-family="FreeSans" font-size="10.00"> eventHandlers_</text>
</g>
<!-- Node18 -->
<g id="node39" class="node"><title>Node18</title>
<a xlink:href="class_urho3_d_1_1_shared_ptr.html" target="_top" xlink:title="Urho3D::SharedPtr\&lt;\l Urho3D::ValueAnimation \&gt;">
<polygon fill="none" stroke="black" points="1146.5,-811 1146.5,-845 1295.5,-845 1295.5,-811 1146.5,-811"/>
<text text-anchor="start" x="1154.5" y="-832" font-family="FreeSans" font-size="10.00">Urho3D::SharedPtr&lt;</text>
<text text-anchor="middle" x="1221" y="-819" font-family="FreeSans" font-size="10.00"> Urho3D::ValueAnimation &gt;</text>
</a>
</g>
<!-- Node18&#45;&gt;Node2 -->
<g id="edge44" class="edge"><title>Node18&#45;&gt;Node2</title>
<path fill="none" stroke="#9a32cd" stroke-dasharray="5,2" d="M1305.57,-809.015C1343.63,-800.47 1387.12,-790.708 1419.2,-783.505"/>
<polygon fill="#9a32cd" stroke="#9a32cd" points="1304.5,-805.669 1295.51,-811.274 1306.03,-812.499 1304.5,-805.669"/>
<text text-anchor="middle" x="1343" y="-812" font-family="FreeSans" font-size="10.00"> animation_</text>
</g>
<!-- Node19 -->
<g id="node41" class="node"><title>Node19</title>
<a xlink:href="class_urho3_d_1_1_value_animation.html" target="_top" xlink:title="Value animation class.">
<polygon fill="none" stroke="black" points="932,-836.5 932,-857.5 1066,-857.5 1066,-836.5 932,-836.5"/>
<text text-anchor="middle" x="999" y="-844.5" font-family="FreeSans" font-size="10.00">Urho3D::ValueAnimation</text>
</a>
</g>
<!-- Node19&#45;&gt;Node18 -->
<g id="edge46" class="edge"><title>Node19&#45;&gt;Node18</title>
<path fill="none" stroke="#9a32cd" stroke-dasharray="5,2" d="M1076.45,-840.371C1099.1,-838.433 1123.79,-836.319 1146.26,-834.396"/>
<polygon fill="#9a32cd" stroke="#9a32cd" points="1075.87,-836.908 1066.21,-841.248 1076.47,-843.882 1075.87,-836.908"/>
<text text-anchor="middle" x="1109" y="-844" font-family="FreeSans" font-size="10.00"> ptr_</text>
</g>
<!-- Node20&#45;&gt;Node19 -->
<g id="edge48" class="edge"><title>Node20&#45;&gt;Node19</title>
<path fill="none" stroke="midnightblue" d="M732.641,-929.121C781.288,-924.703 850.328,-915.394 908,-896 936.062,-886.563 965.754,-868.935 983.317,-857.596"/>
<polygon fill="midnightblue" stroke="midnightblue" points="732.242,-925.642 722.581,-929.991 732.846,-932.616 732.242,-925.642"/>
</g>
<!-- Node21 -->
<g id="node46" class="node"><title>Node21</title>
<a xlink:href="class_urho3_d_1_1_timer.html" target="_top" xlink:title="Low&#45;resolution operating system timer.">
<polygon fill="none" stroke="black" points="390,-897.5 390,-918.5 476,-918.5 476,-897.5 390,-897.5"/>
<text text-anchor="middle" x="433" y="-905.5" font-family="FreeSans" font-size="10.00">Urho3D::Timer</text>
</a>
</g>
<!-- Node21&#45;&gt;Node20 -->
<g id="edge52" class="edge"><title>Node21&#45;&gt;Node20</title>
<path fill="none" stroke="#9a32cd" stroke-dasharray="5,2" d="M486.371,-906.102C506.385,-906.008 529.29,-906.637 550,-909 558.142,-909.929 559.977,-911.33 568,-913 584.674,-916.471 602.909,-920.074 619.339,-923.251"/>
<polygon fill="#9a32cd" stroke="#9a32cd" points="486.157,-902.604 476.196,-906.212 486.233,-909.603 486.157,-902.604"/>
<text text-anchor="middle" x="523" y="-913" font-family="FreeSans" font-size="10.00"> useTimer_</text>
</g>
<!-- Node22 -->
<g id="node48" class="node"><title>Node22</title>
<a xlink:href="class_urho3_d_1_1_string.html" target="_top" xlink:title="String class.">
<polygon fill="none" stroke="black" points="389,-949.5 389,-970.5 477,-970.5 477,-949.5 389,-949.5"/>
<text text-anchor="middle" x="433" y="-957.5" font-family="FreeSans" font-size="10.00">Urho3D::String</text>
</a>
</g>
<!-- Node22&#45;&gt;Node1 -->
<g id="edge64" class="edge"><title>Node22&#45;&gt;Node1</title>
<path fill="none" stroke="#9a32cd" stroke-dasharray="5,2" d="M487.481,-964.31C535.695,-967.752 607.981,-972 671,-972 671,-972 671,-972 1466,-972 1553.02,-972 1641.8,-903.363 1673.16,-876.551"/>
<polygon fill="#9a32cd" stroke="#9a32cd" points="487.497,-960.802 477.269,-963.568 486.989,-967.784 487.497,-960.802"/>
<text text-anchor="middle" x="1109" y="-976" font-family="FreeSans" font-size="10.00"> name_</text>
</g>
<!-- Node22&#45;&gt;Node20 -->
<g id="edge54" class="edge"><title>Node22&#45;&gt;Node20</title>
<path fill="none" stroke="#9a32cd" stroke-dasharray="5,2" d="M482.607,-947.383C487.117,-946.48 491.63,-945.665 496,-945 537.246,-938.72 584.464,-935.725 619.45,-934.297"/>
<polygon fill="#9a32cd" stroke="#9a32cd" points="481.848,-943.966 472.798,-949.475 483.308,-950.812 481.848,-943.966"/>
<text text-anchor="middle" x="523" y="-949" font-family="FreeSans" font-size="10.00"> name_</text>
</g>
<!-- Node22&#45;&gt;Node22 -->
<g id="edge56" class="edge"><title>Node22&#45;&gt;Node22</title>
<path fill="none" stroke="#9a32cd" stroke-dasharray="5,2" d="M416.884,-980.793C418.307,-985.529 423.678,-989 433,-989 448.297,-989 452.958,-979.653 446.982,-970.708"/>
<polygon fill="#9a32cd" stroke="#9a32cd" points="420.372,-981.216 419.018,-970.708 413.524,-979.767 420.372,-981.216"/>
<text text-anchor="middle" x="433" y="-993" font-family="FreeSans" font-size="10.00"> EMPTY</text>
</g>
<!-- Node23 -->
<g id="node51" class="node"><title>Node23</title>
<a xlink:href="class_urho3_d_1_1_vector.html" target="_top" xlink:title="Urho3D::Vector\&lt; Urho3D\l::VAnimEventFrame \&gt;">
<polygon fill="none" stroke="red" points="602,-778 602,-812 740,-812 740,-778 602,-778"/>
<text text-anchor="start" x="610" y="-799" font-family="FreeSans" font-size="10.00">Urho3D::Vector&lt; Urho3D</text>
<text text-anchor="middle" x="671" y="-786" font-family="FreeSans" font-size="10.00">::VAnimEventFrame &gt;</text>
</a>
</g>
<!-- Node23&#45;&gt;Node19 -->
<g id="edge58" class="edge"><title>Node23&#45;&gt;Node19</title>
<path fill="none" stroke="#9a32cd" stroke-dasharray="5,2" d="M750.009,-805.901C796.148,-812.458 855.45,-821.214 908,-830 919.73,-831.961 932.283,-834.209 944.202,-836.414"/>
<polygon fill="#9a32cd" stroke="#9a32cd" points="750.466,-802.43 740.074,-804.494 749.484,-809.361 750.466,-802.43"/>
<text text-anchor="middle" x="850" y="-834" font-family="FreeSans" font-size="10.00"> eventFrames_</text>
</g>
<!-- Node24 -->
<g id="node53" class="node"><title>Node24</title>
<a xlink:href="class_urho3_d_1_1_vector.html" target="_top" xlink:title="Urho3D::Vector\&lt; Variant \&gt;">
<polygon fill="none" stroke="red" points="598,-882.5 598,-903.5 744,-903.5 744,-882.5 598,-882.5"/>
<text text-anchor="middle" x="671" y="-890.5" font-family="FreeSans" font-size="10.00">Urho3D::Vector&lt; Variant &gt;</text>
</a>
</g>
<!-- Node24&#45;&gt;Node19 -->
<g id="edge60" class="edge"><title>Node24&#45;&gt;Node19</title>
<path fill="none" stroke="#9a32cd" stroke-dasharray="5,2" d="M754.155,-884.121C799.69,-878.933 857.059,-871.867 908,-864 920.23,-862.111 933.336,-859.821 945.684,-857.541"/>
<polygon fill="#9a32cd" stroke="#9a32cd" points="753.578,-880.664 744.035,-885.265 754.365,-887.62 753.578,-880.664"/>
<text text-anchor="middle" x="850" y="-883" font-family="FreeSans" font-size="10.00"> splineTangents_</text>
</g>
<!-- Node25 -->
<g id="node55" class="node"><title>Node25</title>
<a xlink:href="class_urho3_d_1_1_vector.html" target="_top" xlink:title="Urho3D::Vector\&lt; Urho3D\l::VAnimKeyFrame \&gt;">
<polygon fill="none" stroke="red" points="602,-830 602,-864 740,-864 740,-830 602,-830"/>
<text text-anchor="start" x="610" y="-851" font-family="FreeSans" font-size="10.00">Urho3D::Vector&lt; Urho3D</text>
<text text-anchor="middle" x="671" y="-838" font-family="FreeSans" font-size="10.00">::VAnimKeyFrame &gt;</text>
</a>
</g>
<!-- Node25&#45;&gt;Node19 -->
<g id="edge62" class="edge"><title>Node25&#45;&gt;Node19</title>
<path fill="none" stroke="#9a32cd" stroke-dasharray="5,2" d="M750.314,-847C805.857,-847 879.26,-847 931.898,-847"/>
<polygon fill="#9a32cd" stroke="#9a32cd" points="750.16,-843.5 740.16,-847 750.16,-850.5 750.16,-843.5"/>
<text text-anchor="middle" x="850" y="-851" font-family="FreeSans" font-size="10.00"> keyFrames_</text>
</g>
</g>
</svg>
