<?xml version="1.0" encoding="UTF-8" standalone="no"?>
<!DOCTYPE svg PUBLIC "-//W3C//DTD SVG 1.1//EN"
 "http://www.w3.org/Graphics/SVG/1.1/DTD/svg11.dtd">
<!-- Generated by graphviz version 2.26.3 (20100126.1600)
 -->
<!-- Title: Urho3D::Pass Pages: 1 -->
<svg width="654pt" height="192pt"
 viewBox="0.00 0.00 654.00 191.77" xmlns="http://www.w3.org/2000/svg" xmlns:xlink="http://www.w3.org/1999/xlink">
<g id="graph1" class="graph" transform="scale(1 1) rotate(0) translate(4 187.767)">
<title>Urho3D::Pass</title>
<!-- Node1 -->
<g id="node1" class="node"><title>Node1</title>
<polygon fill="#bfbfbf" stroke="black" points="564.5,-116.267 564.5,-137.267 645.5,-137.267 645.5,-116.267 564.5,-116.267"/>
<text text-anchor="middle" x="605" y="-124.267" font-family="FreeSans" font-size="10.00">Urho3D::Pass</text>
</g>
<!-- Node2 -->
<g id="node2" class="node"><title>Node2</title>
<a xlink:href="class_urho3_d_1_1_ref_counted.html" target="_top" xlink:title="Base class for intrusively reference&#45;counted objects. These are noncopyable and non&#45;assignable.">
<polygon fill="none" stroke="black" points="255,-160.267 255,-181.267 369,-181.267 369,-160.267 255,-160.267"/>
<text text-anchor="middle" x="312" y="-168.267" font-family="FreeSans" font-size="10.00">Urho3D::RefCounted</text>
</a>
</g>
<!-- Node2&#45;&gt;Node1 -->
<g id="edge2" class="edge"><title>Node2&#45;&gt;Node1</title>
<path fill="none" stroke="midnightblue" d="M379.354,-172.767C426.699,-172.583 491.129,-169.111 546,-154.767 560.589,-150.953 575.944,-143.545 587.331,-137.306"/>
<polygon fill="midnightblue" stroke="midnightblue" points="379.222,-169.267 369.219,-172.758 379.216,-176.267 379.222,-169.267"/>
</g>
<!-- Node3 -->
<g id="node4" class="node"><title>Node3</title>
<a xlink:href="struct_urho3_d_1_1_ref_count.html" target="_top" xlink:title="Reference count structure.">
<polygon fill="none" stroke="black" points="6,-160.267 6,-181.267 108,-181.267 108,-160.267 6,-160.267"/>
<text text-anchor="middle" x="57" y="-168.267" font-family="FreeSans" font-size="10.00">Urho3D::RefCount</text>
</a>
</g>
<!-- Node3&#45;&gt;Node2 -->
<g id="edge4" class="edge"><title>Node3&#45;&gt;Node2</title>
<path fill="none" stroke="#9a32cd" stroke-dasharray="5,2" d="M118.524,-170.767C159.898,-170.767 214.067,-170.767 254.561,-170.767"/>
<polygon fill="#9a32cd" stroke="#9a32cd" points="118.296,-167.267 108.296,-170.767 118.296,-174.267 118.296,-167.267"/>
<text text-anchor="middle" x="157" y="-174.767" font-family="FreeSans" font-size="10.00"> refCount_</text>
</g>
<!-- Node4 -->
<g id="node6" class="node"><title>Node4</title>
<a xlink:href="class_urho3_d_1_1_vector.html" target="_top" xlink:title="Urho3D::Vector\&lt; Urho3D\l::SharedPtr\&lt; Urho3D::ShaderVariation \&gt; \&gt;">
<polygon fill="none" stroke="black" points="200,-107.767 200,-141.767 424,-141.767 424,-107.767 200,-107.767"/>
<text text-anchor="start" x="208" y="-128.767" font-family="FreeSans" font-size="10.00">Urho3D::Vector&lt; Urho3D</text>
<text text-anchor="middle" x="312" y="-115.767" font-family="FreeSans" font-size="10.00">::SharedPtr&lt; Urho3D::ShaderVariation &gt; &gt;</text>
</a>
</g>
<!-- Node4&#45;&gt;Node1 -->
<g id="edge6" class="edge"><title>Node4&#45;&gt;Node1</title>
<path fill="none" stroke="#9a32cd" stroke-dasharray="5,2" d="M434.199,-125.601C480.703,-125.919 530.566,-126.259 564.337,-126.49"/>
<polygon fill="#9a32cd" stroke="#9a32cd" points="434.049,-122.1 424.025,-125.532 434.001,-129.1 434.049,-122.1"/>
<text text-anchor="middle" x="494" y="-142.767" font-family="FreeSans" font-size="10.00"> pixelShaders_</text>
<text text-anchor="middle" x="494" y="-129.767" font-family="FreeSans" font-size="10.00">vertexShaders_</text>
</g>
<!-- Node5 -->
<g id="node8" class="node"><title>Node5</title>
<a xlink:href="class_urho3_d_1_1_vector_base.html" target="_top" xlink:title="Vector base class.">
<polygon fill="none" stroke="black" points="0,-114.267 0,-135.267 114,-135.267 114,-114.267 0,-114.267"/>
<text text-anchor="middle" x="57" y="-122.267" font-family="FreeSans" font-size="10.00">Urho3D::VectorBase</text>
</a>
</g>
<!-- Node5&#45;&gt;Node4 -->
<g id="edge8" class="edge"><title>Node5&#45;&gt;Node4</title>
<path fill="none" stroke="midnightblue" d="M124.277,-124.767C147.456,-124.767 174.083,-124.767 199.86,-124.767"/>
<polygon fill="midnightblue" stroke="midnightblue" points="124.227,-121.267 114.227,-124.767 124.227,-128.267 124.227,-121.267"/>
</g>
<!-- Node6 -->
<g id="node10" class="node"><title>Node6</title>
<a xlink:href="class_urho3_d_1_1_string.html" target="_top" xlink:title="String class.">
<polygon fill="none" stroke="black" points="268,-2.26712 268,-23.2671 356,-23.2671 356,-2.26712 268,-2.26712"/>
<text text-anchor="middle" x="312" y="-10.2671" font-family="FreeSans" font-size="10.00">Urho3D::String</text>
</a>
</g>
<!-- Node6&#45;&gt;Node1 -->
<g id="edge10" class="edge"><title>Node6&#45;&gt;Node1</title>
<path fill="none" stroke="#9a32cd" stroke-dasharray="5,2" d="M366.172,-3.38434C416.518,2.42352 491.695,3.41049 546,-29.7671 578.631,-49.7029 595.688,-95.1286 602.036,-115.962"/>
<polygon fill="#9a32cd" stroke="#9a32cd" points="365.621,0.0741089 356.135,-4.64376 366.493,-6.87143 365.621,0.0741089"/>
<text text-anchor="middle" x="494" y="-111.767" font-family="FreeSans" font-size="10.00"> vertexShaderName_</text>
<text text-anchor="middle" x="494" y="-98.7671" font-family="FreeSans" font-size="10.00">pixelShaderName_</text>
<text text-anchor="start" x="442.5" y="-85.7671" font-family="FreeSans" font-size="10.00">vertexShaderDefines</text>
<text text-anchor="middle" x="494" y="-72.7671" font-family="FreeSans" font-size="10.00">_</text>
<text text-anchor="start" x="442.5" y="-59.7671" font-family="FreeSans" font-size="10.00">pixelShaderDefines</text>
<text text-anchor="middle" x="494" y="-46.7671" font-family="FreeSans" font-size="10.00">_</text>
<text text-anchor="middle" x="494" y="-33.7671" font-family="FreeSans" font-size="10.00">name_</text>
</g>
<!-- Node6&#45;&gt;Node6 -->
<g id="edge12" class="edge"><title>Node6&#45;&gt;Node6</title>
<path fill="none" stroke="#9a32cd" stroke-dasharray="5,2" d="M283.469,-32.8222C285.34,-37.9312 294.851,-41.7671 312,-41.7671 338.77,-41.7671 346.926,-32.4202 336.469,-23.475"/>
<polygon fill="#9a32cd" stroke="#9a32cd" points="286.755,-34.0414 287.531,-23.475 280.335,-31.2514 286.755,-34.0414"/>
<text text-anchor="middle" x="312" y="-45.7671" font-family="FreeSans" font-size="10.00"> EMPTY</text>
</g>
</g>
</svg>
