<?xml version="1.0" encoding="UTF-8" standalone="no"?>
<!DOCTYPE svg PUBLIC "-//W3C//DTD SVG 1.1//EN"
 "http://www.w3.org/Graphics/SVG/1.1/DTD/svg11.dtd">
<!-- Generated by graphviz version 2.26.3 (20100126.1600)
 -->
<!-- Title: rapidjson::MemoryPoolAllocator&lt; BaseAllocator &gt; Pages: 1 -->
<svg width="353pt" height="130pt"
 viewBox="0.00 0.00 353.00 130.00" xmlns="http://www.w3.org/2000/svg" xmlns:xlink="http://www.w3.org/1999/xlink">
<g id="graph1" class="graph" transform="scale(1 1) rotate(0) translate(4 126)">
<title>rapidjson::MemoryPoolAllocator&lt; BaseAllocator &gt;</title>
<!-- Node1 -->
<g id="node1" class="node"><title>Node1</title>
<polygon fill="#bfbfbf" stroke="black" points="18.5,-1 18.5,-35 185.5,-35 185.5,-1 18.5,-1"/>
<text text-anchor="start" x="26.5" y="-22" font-family="FreeSans" font-size="10.00">rapidjson::MemoryPoolAllocator</text>
<text text-anchor="middle" x="102" y="-9" font-family="FreeSans" font-size="10.00">&lt; BaseAllocator &gt;</text>
</g>
<!-- Node2 -->
<g id="node2" class="node"><title>Node2</title>
<a xlink:href="classrapidjson_1_1_allocator.html" target="_top" xlink:title="Concept for allocating, resizing and freeing memory block.">
<polygon fill="none" stroke="black" points="0,-93.5 0,-114.5 108,-114.5 108,-93.5 0,-93.5"/>
<text text-anchor="middle" x="54" y="-101.5" font-family="FreeSans" font-size="10.00">rapidjson::Allocator</text>
</a>
</g>
<!-- Node2&#45;&gt;Node1 -->
<g id="edge2" class="edge"><title>Node2&#45;&gt;Node1</title>
<path fill="none" stroke="midnightblue" d="M64.83,-84.5963C73.1218,-69.7402 84.4516,-49.4409 92.4162,-35.1709"/>
<polygon fill="midnightblue" stroke="midnightblue" points="61.7033,-83.0169 59.8857,-93.4547 67.8157,-86.4285 61.7033,-83.0169"/>
</g>
<!-- Node3 -->
<g id="node4" class="node"><title>Node3</title>
<a xlink:href="structrapidjson_1_1_memory_pool_allocator_1_1_chunk_header.html" target="_top" xlink:title="Chunk header for perpending to each chunk.">
<polygon fill="none" stroke="black" points="126,-87 126,-121 302,-121 302,-87 126,-87"/>
<text text-anchor="start" x="134" y="-108" font-family="FreeSans" font-size="10.00">rapidjson::MemoryPoolAllocator</text>
<text text-anchor="middle" x="214" y="-95" font-family="FreeSans" font-size="10.00">&lt; BaseAllocator &gt;::ChunkHeader</text>
</a>
</g>
<!-- Node3&#45;&gt;Node1 -->
<g id="edge4" class="edge"><title>Node3&#45;&gt;Node1</title>
<path fill="none" stroke="#9a32cd" stroke-dasharray="5,2" d="M183.656,-80.6999C164.946,-66.3338 141.363,-48.2251 124.357,-35.1669"/>
<polygon fill="#9a32cd" stroke="#9a32cd" points="181.541,-83.489 191.604,-86.8033 185.804,-77.937 181.541,-83.489"/>
<text text-anchor="middle" x="195.5" y="-58.5" font-family="FreeSans" font-size="10.00"> chunkHead_</text>
</g>
<!-- Node3&#45;&gt;Node3 -->
<g id="edge6" class="edge"><title>Node3&#45;&gt;Node3</title>
<path fill="none" stroke="#9a32cd" stroke-dasharray="5,2" d="M312.172,-109.091C317.097,-107.825 320,-106.128 320,-104 320,-100.678 312.925,-98.4067 302.134,-97.1868"/>
<polygon fill="#9a32cd" stroke="#9a32cd" points="311.398,-105.672 302.134,-110.813 312.582,-112.572 311.398,-105.672"/>
<text text-anchor="middle" x="332.5" y="-101.5" font-family="FreeSans" font-size="10.00"> next</text>
</g>
</g>
</svg>
