<?xml version="1.0" encoding="UTF-8" standalone="no"?>
<!DOCTYPE svg PUBLIC "-//W3C//DTD SVG 1.1//EN"
 "http://www.w3.org/Graphics/SVG/1.1/DTD/svg11.dtd">
<!-- Generated by graphviz version 2.26.3 (20100126.1600)
 -->
<!-- Title: Urho3D::Graphics::SetShaders Pages: 1 -->
<!--zoomable 292 -->
<svg id="main" version="1.1" xmlns="http://www.w3.org/2000/svg" xmlns:xlink="http://www.w3.org/1999/xlink" xml:space="preserve" onload="init(evt)">
        <defs>
                <circle id="rim" cx="0" cy="0" r="7"/>
                <circle id="rim2" cx="0" cy="0" r="3.5"/>
                <g id="zoomPlus">
                        <use xlink:href="#rim" fill="#404040">
                                <set attributeName="fill" to="#808080" begin="zoomplus.mouseover" end="zoomplus.mouseout"/>
                        </use>
                        <path d="M-4,0h8M0,-4v8" fill="none" stroke="white" stroke-width="1.5" pointer-events="none"/>
                </g>
                <g id="zoomMin">
                        <use xlink:href="#rim" fill="#404040">
                                <set attributeName="fill" to="#808080" begin="zoomminus.mouseover" end="zoomminus.mouseout"/>
                        </use>
                        <path d="M-4,0h8" fill="none" stroke="white" stroke-width="1.5" pointer-events="none"/>
                </g>
                <g id="dirArrow">
                        <path fill="none" stroke="white" stroke-width="1.5" d="M0,-3.0v7 M-2.5,-0.5L0,-3.0L2.5,-0.5"/>
                </g>
               <g id="resetDef">
                       <use xlink:href="#rim2" fill="#404040">
                               <set attributeName="fill" to="#808080" begin="reset.mouseover" end="reset.mouseout"/>
                       </use>
               </g>
        </defs>

<script type="text/javascript">
var viewWidth = 1298;
var viewHeight = 292;
var sectionId = 'dynsection-7';
</script>
<script xlink:href="svgpan.js"/>
<svg id="graph" class="graph">
<g id="viewport">
<title>Urho3D::Graphics::SetShaders</title>
<!-- Node1 -->
<g id="node1" class="node"><title>Node1</title>
<polygon fill="#bfbfbf" stroke="black" points="0,-146.5 0,-167.5 164,-167.5 164,-146.5 0,-146.5"/>
<text text-anchor="middle" x="82" y="-154.5" font-family="FreeSans" font-size="10.00">Urho3D::Graphics::SetShaders</text>
</g>
<!-- Node2 -->
<g id="node3" class="node"><title>Node2</title>
<a xlink:href="struct_urho3_d_1_1_batch.html#a16da122dc9ea3734a06cbc961c9e2959" target="_top" xlink:title="Prepare for rendering.">
<polygon fill="none" stroke="black" points="203.5,-216.5 203.5,-237.5 334.5,-237.5 334.5,-216.5 203.5,-216.5"/>
<text text-anchor="middle" x="269" y="-224.5" font-family="FreeSans" font-size="10.00">Urho3D::Batch::Prepare</text>
</a>
</g>
<!-- Node1&#45;&gt;Node2 -->
<g id="edge2" class="edge"><title>Node1&#45;&gt;Node2</title>
<path fill="none" stroke="midnightblue" d="M120.03,-171.236C155.883,-184.657 208.778,-204.457 240.944,-216.498"/>
<polygon fill="midnightblue" stroke="midnightblue" points="120.994,-167.859 110.401,-167.631 118.54,-174.415 120.994,-167.859"/>
</g>
<!-- Node9 -->
<g id="node20" class="node"><title>Node9</title>
<a xlink:href="class_urho3_d_1_1_debug_renderer.html#aea2bb49e63d7c40a6856e44d5be7565e" target="_top" xlink:title="Update vertex buffer and render all debug lines. The viewport and rendertarget should be set before...">
<polygon fill="none" stroke="black" points="784,-165 784,-199 918,-199 918,-165 784,-165"/>
<text text-anchor="start" x="792" y="-186" font-family="FreeSans" font-size="10.00">Urho3D::DebugRenderer</text>
<text text-anchor="middle" x="851" y="-173" font-family="FreeSans" font-size="10.00">::Render</text>
</a>
</g>
<!-- Node1&#45;&gt;Node9 -->
<g id="edge22" class="edge"><title>Node1&#45;&gt;Node9</title>
<path fill="none" stroke="midnightblue" d="M174.396,-160.004C331.25,-165.103 645.987,-175.335 783.787,-179.815"/>
<polygon fill="midnightblue" stroke="midnightblue" points="174.405,-156.502 164.296,-159.675 174.177,-163.499 174.405,-156.502"/>
</g>
<!-- Node10 -->
<g id="node23" class="node"><title>Node10</title>
<a xlink:href="class_urho3_d_1_1_graphics.html#a3e7b555e97944dd99eef236499d73d7b" target="_top" xlink:title="Clear any or all of rendertarget, depth buffer and stencil buffer.">
<polygon fill="none" stroke="black" points="203,-122.5 203,-143.5 335,-143.5 335,-122.5 203,-122.5"/>
<text text-anchor="middle" x="269" y="-130.5" font-family="FreeSans" font-size="10.00">Urho3D::Graphics::Clear</text>
</a>
</g>
<!-- Node1&#45;&gt;Node10 -->
<g id="edge26" class="edge"><title>Node1&#45;&gt;Node10</title>
<path fill="none" stroke="midnightblue" d="M174.082,-145.182C183.76,-143.94 193.459,-142.695 202.762,-141.501"/>
<polygon fill="midnightblue" stroke="midnightblue" points="173.494,-141.729 164.021,-146.473 174.385,-148.672 173.494,-141.729"/>
</g>
<!-- Node18 -->
<g id="node39" class="node"><title>Node18</title>
<a xlink:href="class_urho3_d_1_1_shader_precache.html#ae2b5464e3db1248b1e652dd79d5a05b9" target="_top" xlink:title="Load shaders from an XML file.">
<polygon fill="none" stroke="black" points="200,-50 200,-84 338,-84 338,-50 200,-50"/>
<text text-anchor="start" x="208" y="-71" font-family="FreeSans" font-size="10.00">Urho3D::ShaderPrecache</text>
<text text-anchor="middle" x="269" y="-58" font-family="FreeSans" font-size="10.00">::LoadShaders</text>
</a>
</g>
<!-- Node1&#45;&gt;Node18 -->
<g id="edge42" class="edge"><title>Node1&#45;&gt;Node18</title>
<path fill="none" stroke="midnightblue" d="M113.05,-142.056C146.26,-126.073 198.835,-100.769 233.622,-84.0271"/>
<polygon fill="midnightblue" stroke="midnightblue" points="111.31,-139.009 103.817,-146.5 114.346,-145.317 111.31,-139.009"/>
</g>
<!-- Node3 -->
<g id="node5" class="node"><title>Node3</title>
<a xlink:href="struct_urho3_d_1_1_batch.html#a229a795dd9852167869b93e3fce702e4" target="_top" xlink:title="Prepare and draw.">
<polygon fill="none" stroke="black" points="391.5,-262.5 391.5,-283.5 508.5,-283.5 508.5,-262.5 391.5,-262.5"/>
<text text-anchor="middle" x="450" y="-270.5" font-family="FreeSans" font-size="10.00">Urho3D::Batch::Draw</text>
</a>
</g>
<!-- Node2&#45;&gt;Node3 -->
<g id="edge4" class="edge"><title>Node2&#45;&gt;Node3</title>
<path fill="none" stroke="midnightblue" d="M320.512,-240.091C348.44,-247.189 382.494,-255.844 408.668,-262.496"/>
<polygon fill="midnightblue" stroke="midnightblue" points="321.079,-236.624 310.525,-237.553 319.355,-243.409 321.079,-236.624"/>
</g>
<!-- Node8 -->
<g id="node17" class="node"><title>Node8</title>
<a xlink:href="struct_urho3_d_1_1_batch_group.html#a6cc9fc5a0a3086ae2722b6affcc098c8" target="_top" xlink:title="Prepare and draw.">
<polygon fill="none" stroke="black" points="392,-210 392,-244 508,-244 508,-210 392,-210"/>
<text text-anchor="start" x="400" y="-231" font-family="FreeSans" font-size="10.00">Urho3D::BatchGroup</text>
<text text-anchor="middle" x="450" y="-218" font-family="FreeSans" font-size="10.00">::Draw</text>
</a>
</g>
<!-- Node2&#45;&gt;Node8 -->
<g id="edge18" class="edge"><title>Node2&#45;&gt;Node8</title>
<path fill="none" stroke="midnightblue" d="M344.819,-227C360.532,-227 376.852,-227 391.816,-227"/>
<polygon fill="midnightblue" stroke="midnightblue" points="344.601,-223.5 334.601,-227 344.601,-230.5 344.601,-223.5"/>
</g>
<!-- Node4 -->
<g id="node7" class="node"><title>Node4</title>
<a xlink:href="struct_urho3_d_1_1_batch_queue.html#ade4794edc01b189399f08b54401a242d" target="_top" xlink:title="Draw.">
<polygon fill="none" stroke="black" points="584.5,-231 584.5,-265 703.5,-265 703.5,-231 584.5,-231"/>
<text text-anchor="start" x="592.5" y="-252" font-family="FreeSans" font-size="10.00">Urho3D::BatchQueue</text>
<text text-anchor="middle" x="644" y="-239" font-family="FreeSans" font-size="10.00">::Draw</text>
</a>
</g>
<!-- Node3&#45;&gt;Node4 -->
<g id="edge6" class="edge"><title>Node3&#45;&gt;Node4</title>
<path fill="none" stroke="midnightblue" d="M518.757,-264.14C540.214,-261.374 563.692,-258.349 584.462,-255.672"/>
<polygon fill="midnightblue" stroke="midnightblue" points="518.203,-260.682 508.733,-265.431 519.098,-267.624 518.203,-260.682"/>
</g>
<!-- Node5 -->
<g id="node9" class="node"><title>Node5</title>
<a xlink:href="class_urho3_d_1_1_view.html#a2dd8e9237f495ba4ec4a69b195988cfa" target="_top" xlink:title="Execute render commands.">
<polygon fill="none" stroke="black" points="976,-211 976,-245 1134,-245 1134,-211 976,-211"/>
<text text-anchor="start" x="984" y="-232" font-family="FreeSans" font-size="10.00">Urho3D::View::ExecuteRender</text>
<text text-anchor="middle" x="1055" y="-219" font-family="FreeSans" font-size="10.00">PathCommands</text>
</a>
</g>
<!-- Node4&#45;&gt;Node5 -->
<g id="edge8" class="edge"><title>Node4&#45;&gt;Node5</title>
<path fill="none" stroke="midnightblue" d="M713.788,-251.377C773.861,-253.477 862.804,-254.663 940,-248 951.609,-246.998 963.805,-245.437 975.738,-243.619"/>
<polygon fill="midnightblue" stroke="midnightblue" points="713.781,-247.874 703.659,-251.004 713.524,-254.87 713.781,-247.874"/>
</g>
<!-- Node7 -->
<g id="node14" class="node"><title>Node7</title>
<a xlink:href="class_urho3_d_1_1_view.html#ae7e6e47346e5ff4346eb8cb251e013ef" target="_top" xlink:title="Render a shadow map.">
<polygon fill="none" stroke="black" points="762.5,-217.5 762.5,-238.5 939.5,-238.5 939.5,-217.5 762.5,-217.5"/>
<text text-anchor="middle" x="851" y="-225.5" font-family="FreeSans" font-size="10.00">Urho3D::View::RenderShadowMap</text>
</a>
</g>
<!-- Node4&#45;&gt;Node7 -->
<g id="edge14" class="edge"><title>Node4&#45;&gt;Node7</title>
<path fill="none" stroke="midnightblue" d="M713.646,-241.271C729.218,-239.766 745.94,-238.151 762.17,-236.583"/>
<polygon fill="midnightblue" stroke="midnightblue" points="713.212,-237.796 703.595,-242.242 713.886,-244.764 713.212,-237.796"/>
</g>
<!-- Node6 -->
<g id="node11" class="node"><title>Node6</title>
<a xlink:href="class_urho3_d_1_1_view.html#a124582e02f0e82ba799467b20b162436" target="_top" xlink:title="Render batches.">
<polygon fill="none" stroke="black" points="1170.5,-217.5 1170.5,-238.5 1289.5,-238.5 1289.5,-217.5 1170.5,-217.5"/>
<text text-anchor="middle" x="1230" y="-225.5" font-family="FreeSans" font-size="10.00">Urho3D::View::Render</text>
</a>
</g>
<!-- Node5&#45;&gt;Node6 -->
<g id="edge10" class="edge"><title>Node5&#45;&gt;Node6</title>
<path fill="none" stroke="midnightblue" d="M1144.11,-221.251C1153.03,-221.262 1161.93,-221.367 1170.44,-221.566"/>
<polygon fill="midnightblue" stroke="midnightblue" points="1144.04,-217.751 1134.05,-221.278 1144.06,-224.751 1144.04,-217.751"/>
</g>
<!-- Node6&#45;&gt;Node5 -->
<g id="edge12" class="edge"><title>Node6&#45;&gt;Node5</title>
<path fill="none" stroke="midnightblue" d="M1160.4,-234.623C1151.74,-234.747 1142.84,-234.78 1134.05,-234.722"/>
<polygon fill="midnightblue" stroke="midnightblue" points="1160.5,-238.122 1170.44,-234.434 1160.37,-231.123 1160.5,-238.122"/>
</g>
<!-- Node7&#45;&gt;Node5 -->
<g id="edge16" class="edge"><title>Node7&#45;&gt;Node5</title>
<path fill="none" stroke="midnightblue" d="M949.794,-228C958.513,-228 967.264,-228 975.791,-228"/>
<polygon fill="midnightblue" stroke="midnightblue" points="949.587,-224.5 939.587,-228 949.587,-231.5 949.587,-224.5"/>
</g>
<!-- Node8&#45;&gt;Node4 -->
<g id="edge20" class="edge"><title>Node8&#45;&gt;Node4</title>
<path fill="none" stroke="midnightblue" d="M518.29,-234.392C539.883,-236.73 563.564,-239.293 584.492,-241.558"/>
<polygon fill="midnightblue" stroke="midnightblue" points="518.525,-230.897 508.206,-233.301 517.772,-237.857 518.525,-230.897"/>
</g>
<!-- Node9&#45;&gt;Node6 -->
<g id="edge24" class="edge"><title>Node9&#45;&gt;Node6</title>
<path fill="none" stroke="midnightblue" d="M928.096,-183.419C985.271,-185.446 1064.94,-190.321 1134,-202 1155.28,-205.599 1178.67,-211.882 1197.03,-217.37"/>
<polygon fill="midnightblue" stroke="midnightblue" points="928.159,-179.919 918.048,-183.084 927.926,-186.915 928.159,-179.919"/>
</g>
<!-- Node11 -->
<g id="node25" class="node"><title>Node11</title>
<a xlink:href="class_urho3_d_1_1_graphics.html#adc16c8a19af1584c902fe29e3d21d6eb" target="_top" xlink:title="Set screen mode. Return true if successful.">
<polygon fill="none" stroke="black" points="375,-97.5 375,-118.5 525,-118.5 525,-97.5 375,-97.5"/>
<text text-anchor="middle" x="450" y="-105.5" font-family="FreeSans" font-size="10.00">Urho3D::Graphics::SetMode</text>
</a>
</g>
<!-- Node10&#45;&gt;Node11 -->
<g id="edge28" class="edge"><title>Node10&#45;&gt;Node11</title>
<path fill="none" stroke="midnightblue" d="M345.234,-122.47C355.045,-121.115 365.085,-119.729 374.878,-118.376"/>
<polygon fill="midnightblue" stroke="midnightblue" points="344.541,-119.033 335.113,-123.868 345.498,-125.967 344.541,-119.033"/>
</g>
<!-- Node12 -->
<g id="node27" class="node"><title>Node12</title>
<a xlink:href="class_urho3_d_1_1_engine.html#ae686bb22644561e57a4aaef3f8665c0e" target="_top" xlink:title="Initialize engine using parameters given and show the application window. Return true if successful...">
<polygon fill="none" stroke="black" points="576,-132.5 576,-153.5 712,-153.5 712,-132.5 576,-132.5"/>
<text text-anchor="middle" x="644" y="-140.5" font-family="FreeSans" font-size="10.00">Urho3D::Engine::Initialize</text>
</a>
</g>
<!-- Node11&#45;&gt;Node12 -->
<g id="edge30" class="edge"><title>Node11&#45;&gt;Node12</title>
<path fill="none" stroke="midnightblue" d="M518.135,-120.292C540.118,-124.258 564.276,-128.617 585.5,-132.446"/>
<polygon fill="midnightblue" stroke="midnightblue" points="518.669,-116.832 508.206,-118.501 517.426,-123.721 518.669,-116.832"/>
</g>
<!-- Node13 -->
<g id="node29" class="node"><title>Node13</title>
<a xlink:href="class_urho3_d_1_1_graphics.html#a6bb1ce37325a5ef2f7ba0e3f847b425f" target="_top" xlink:title="Set screen resolution only. Return true if successful.">
<polygon fill="none" stroke="black" points="569,-92.5 569,-113.5 719,-113.5 719,-92.5 569,-92.5"/>
<text text-anchor="middle" x="644" y="-100.5" font-family="FreeSans" font-size="10.00">Urho3D::Graphics::SetMode</text>
</a>
</g>
<!-- Node11&#45;&gt;Node13 -->
<g id="edge32" class="edge"><title>Node11&#45;&gt;Node13</title>
<path fill="none" stroke="midnightblue" d="M535.221,-105.804C546.43,-105.515 557.851,-105.22 568.874,-104.936"/>
<polygon fill="midnightblue" stroke="midnightblue" points="534.912,-102.31 525.005,-106.067 535.092,-109.308 534.912,-102.31"/>
</g>
<!-- Node14 -->
<g id="node31" class="node"><title>Node14</title>
<a xlink:href="class_urho3_d_1_1_graphics.html#a116de4d90d4b556f408b58878bfd5654" target="_top" xlink:title="Toggle between full screen and windowed mode. Return true if successful.">
<polygon fill="none" stroke="black" points="575.5,-40 575.5,-74 712.5,-74 712.5,-40 575.5,-40"/>
<text text-anchor="start" x="583.5" y="-61" font-family="FreeSans" font-size="10.00">Urho3D::Graphics::Toggle</text>
<text text-anchor="middle" x="644" y="-48" font-family="FreeSans" font-size="10.00">Fullscreen</text>
</a>
</g>
<!-- Node11&#45;&gt;Node14 -->
<g id="edge34" class="edge"><title>Node11&#45;&gt;Node14</title>
<path fill="none" stroke="midnightblue" d="M500.169,-94.8111C524.218,-88.4891 553.319,-80.8388 579.036,-74.0781"/>
<polygon fill="midnightblue" stroke="midnightblue" points="498.978,-91.5052 490.197,-97.4328 500.758,-98.2752 498.978,-91.5052"/>
</g>
<!-- Node15 -->
<g id="node33" class="node"><title>Node15</title>
<a xlink:href="class_urho3_d_1_1_graphics.html#a87d6974090e42a8c0d8ec676ca4da504" target="_top" xlink:title="Begin frame rendering. Return true if device available and can render.">
<polygon fill="none" stroke="black" points="562,-0.5 562,-21.5 726,-21.5 726,-0.5 562,-0.5"/>
<text text-anchor="middle" x="644" y="-8.5" font-family="FreeSans" font-size="10.00">Urho3D::Graphics::BeginFrame</text>
</a>
</g>
<!-- Node11&#45;&gt;Node15 -->
<g id="edge36" class="edge"><title>Node11&#45;&gt;Node15</title>
<path fill="none" stroke="midnightblue" d="M518.065,-93.0182C520.834,-91.5035 523.495,-89.8359 526,-88 550.168,-70.2894 537.672,-48.4913 562,-31 567.354,-27.1506 573.359,-24.0366 579.622,-21.5183"/>
<polygon fill="midnightblue" stroke="midnightblue" points="516.452,-89.9095 508.913,-97.3539 519.449,-96.2355 516.452,-89.9095"/>
</g>
<!-- Node16 -->
<g id="node35" class="node"><title>Node16</title>
<a xlink:href="class_urho3_d_1_1_engine.html#a9c582d4f4e9a7ea2b1a046dac4dea8e3" target="_top" xlink:title="Render after frame update.">
<polygon fill="none" stroke="black" points="785.5,-0.5 785.5,-21.5 916.5,-21.5 916.5,-0.5 785.5,-0.5"/>
<text text-anchor="middle" x="851" y="-8.5" font-family="FreeSans" font-size="10.00">Urho3D::Engine::Render</text>
</a>
</g>
<!-- Node15&#45;&gt;Node16 -->
<g id="edge38" class="edge"><title>Node15&#45;&gt;Node16</title>
<path fill="none" stroke="midnightblue" d="M736.316,-11C752.814,-11 769.695,-11 785.256,-11"/>
<polygon fill="midnightblue" stroke="midnightblue" points="736.109,-7.5001 726.109,-11 736.109,-14.5001 736.109,-7.5001"/>
</g>
<!-- Node17 -->
<g id="node37" class="node"><title>Node17</title>
<a xlink:href="class_urho3_d_1_1_engine.html#a7670e665e72f4efd8426ba7a9559d3b0" target="_top" xlink:title="Run one frame.">
<polygon fill="none" stroke="black" points="982.5,-0.5 982.5,-21.5 1127.5,-21.5 1127.5,-0.5 982.5,-0.5"/>
<text text-anchor="middle" x="1055" y="-8.5" font-family="FreeSans" font-size="10.00">Urho3D::Engine::RunFrame</text>
</a>
</g>
<!-- Node16&#45;&gt;Node17 -->
<g id="edge40" class="edge"><title>Node16&#45;&gt;Node17</title>
<path fill="none" stroke="midnightblue" d="M926.907,-11C945.057,-11 964.389,-11 982.386,-11"/>
<polygon fill="midnightblue" stroke="midnightblue" points="926.67,-7.5001 916.67,-11 926.67,-14.5001 926.67,-7.5001"/>
</g>
<!-- Node19 -->
<g id="node41" class="node"><title>Node19</title>
<a xlink:href="class_urho3_d_1_1_graphics.html#ab7a91acbf613629e3b95f600b10e6c2a" target="_top" xlink:title="Precache shader variations from an XML file generated with BeginDumpShaders().">
<polygon fill="none" stroke="black" points="374,-45 374,-79 526,-79 526,-45 374,-45"/>
<text text-anchor="start" x="382" y="-66" font-family="FreeSans" font-size="10.00">Urho3D::Graphics::Precache</text>
<text text-anchor="middle" x="450" y="-53" font-family="FreeSans" font-size="10.00">Shaders</text>
</a>
</g>
<!-- Node18&#45;&gt;Node19 -->
<g id="edge44" class="edge"><title>Node18&#45;&gt;Node19</title>
<path fill="none" stroke="midnightblue" d="M348.434,-64.8057C356.892,-64.5721 365.48,-64.3348 373.898,-64.1023"/>
<polygon fill="midnightblue" stroke="midnightblue" points="348.103,-61.3134 338.203,-65.0883 348.296,-68.3107 348.103,-61.3134"/>
</g>
</g>
</svg>
        <g id="navigator" transform="translate(0 0)" fill="#404254">
                <rect fill="#f2f5e9" fill-opacity="0.5" stroke="#606060" stroke-width=".5" x="0" y="0" width="60" height="60"/>
                <use id="zoomplus" xlink:href="#zoomPlus" x="17" y="9" onmousedown="handleZoom(evt,'in')"/>
                <use id="zoomminus" xlink:href="#zoomMin" x="42" y="9" onmousedown="handleZoom(evt,'out')"/>
                <use id="reset" xlink:href="#resetDef" x="30" y="36" onmousedown="handleReset()"/>
                <g id="arrowUp" xlink:href="#dirArrow" transform="translate(30 24)" onmousedown="handlePan(0,-1)">
                  <use xlink:href="#rim" fill="#404040">
                        <set attributeName="fill" to="#808080" begin="arrowUp.mouseover" end="arrowUp.mouseout"/>
                  </use>
                  <path fill="none" stroke="white" stroke-width="1.5" d="M0,-3.0v7 M-2.5,-0.5L0,-3.0L2.5,-0.5"/>
                </g>
                <g id="arrowRight" xlink:href="#dirArrow" transform="rotate(90) translate(36 -43)" onmousedown="handlePan(1,0)">
                  <use xlink:href="#rim" fill="#404040">
                        <set attributeName="fill" to="#808080" begin="arrowRight.mouseover" end="arrowRight.mouseout"/>
                  </use>
                  <path fill="none" stroke="white" stroke-width="1.5" d="M0,-3.0v7 M-2.5,-0.5L0,-3.0L2.5,-0.5"/>
                </g>
                <g id="arrowDown" xlink:href="#dirArrow" transform="rotate(180) translate(-30 -48)" onmousedown="handlePan(0,1)">
                  <use xlink:href="#rim" fill="#404040">
                        <set attributeName="fill" to="#808080" begin="arrowDown.mouseover" end="arrowDown.mouseout"/>
                  </use>
                  <path fill="none" stroke="white" stroke-width="1.5" d="M0,-3.0v7 M-2.5,-0.5L0,-3.0L2.5,-0.5"/>
                </g>
                <g id="arrowLeft" xlink:href="#dirArrow" transform="rotate(270) translate(-36 17)" onmousedown="handlePan(-1,0)">
                  <use xlink:href="#rim" fill="#404040">
                        <set attributeName="fill" to="#808080" begin="arrowLeft.mouseover" end="arrowLeft.mouseout"/>
                  </use>
                  <path fill="none" stroke="white" stroke-width="1.5" d="M0,-3.0v7 M-2.5,-0.5L0,-3.0L2.5,-0.5"/>
                </g>
        </g>
        <svg viewBox="0 0 15 15" width="100%" height="30px" preserveAspectRatio="xMaxYMin meet">
         <g id="arrow_out" transform="scale(0.3 0.3)">
          <a xlink:href="class_urho3_d_1_1_graphics_a1f9ba79f344a68937947b6416685fe3a_icgraph_org.svg" target="_base">
           <rect id="button" ry="5" rx="5" y="6" x="6" height="38" width="38"
                fill="#f2f5e9" fill-opacity="0.5" stroke="#606060" stroke-width="1.0"/>
           <path id="arrow"
             d="M 11.500037,31.436501 C 11.940474,20.09759 22.043105,11.32322 32.158766,21.979434 L 37.068811,17.246167 C 37.068811,17.246167 37.088388,32 37.088388,32 L 22.160133,31.978069 C 22.160133,31.978069 26.997745,27.140456 26.997745,27.140456 C 18.528582,18.264221 13.291696,25.230495 11.500037,31.436501 z"
             style="fill:#404040;"/>
          </a>
         </g>
        </svg>
</svg>
