<?xml version="1.0" encoding="UTF-8" standalone="no"?>
<!DOCTYPE svg PUBLIC "-//W3C//DTD SVG 1.1//EN"
 "http://www.w3.org/Graphics/SVG/1.1/DTD/svg11.dtd">
<!-- Generated by graphviz version 2.26.3 (20100126.1600)
 -->
<!-- Title: Urho3D::ScenePassInfo Pages: 1 -->
<svg width="1228pt" height="342pt"
 viewBox="0.00 0.00 1228.00 342.00" xmlns="http://www.w3.org/2000/svg" xmlns:xlink="http://www.w3.org/1999/xlink">
<g id="graph1" class="graph" transform="scale(1 1) rotate(0) translate(4 338)">
<title>Urho3D::ScenePassInfo</title>
<!-- Node1 -->
<g id="node1" class="node"><title>Node1</title>
<polygon fill="#bfbfbf" stroke="black" points="1092,-139.5 1092,-160.5 1220,-160.5 1220,-139.5 1092,-139.5"/>
<text text-anchor="middle" x="1156" y="-147.5" font-family="FreeSans" font-size="10.00">Urho3D::ScenePassInfo</text>
</g>
<!-- Node2 -->
<g id="node2" class="node"><title>Node2</title>
<a xlink:href="struct_urho3_d_1_1_batch_queue.html" target="_top" xlink:title="Queue that contains both instanced and non&#45;instanced draw calls.">
<polygon fill="none" stroke="black" points="868.5,-139.5 868.5,-160.5 987.5,-160.5 987.5,-139.5 868.5,-139.5"/>
<text text-anchor="middle" x="928" y="-147.5" font-family="FreeSans" font-size="10.00">Urho3D::BatchQueue</text>
</a>
</g>
<!-- Node2&#45;&gt;Node1 -->
<g id="edge2" class="edge"><title>Node2&#45;&gt;Node1</title>
<path fill="none" stroke="#9a32cd" stroke-dasharray="5,2" d="M997.984,-150C1027.94,-150 1062.68,-150 1091.95,-150"/>
<polygon fill="#9a32cd" stroke="#9a32cd" points="997.607,-146.5 987.607,-150 997.606,-153.5 997.607,-146.5"/>
<text text-anchor="middle" x="1040" y="-154" font-family="FreeSans" font-size="10.00"> batchQueue_</text>
</g>
<!-- Node3 -->
<g id="node4" class="node"><title>Node3</title>
<a xlink:href="class_urho3_d_1_1_hash_map.html" target="_top" xlink:title="Urho3D::HashMap\&lt; unsigned\l short, unsigned short \&gt;">
<polygon fill="none" stroke="black" points="565.5,-274 565.5,-308 724.5,-308 724.5,-274 565.5,-274"/>
<text text-anchor="start" x="573.5" y="-295" font-family="FreeSans" font-size="10.00">Urho3D::HashMap&lt; unsigned</text>
<text text-anchor="middle" x="645" y="-282" font-family="FreeSans" font-size="10.00"> short, unsigned short &gt;</text>
</a>
</g>
<!-- Node3&#45;&gt;Node2 -->
<g id="edge4" class="edge"><title>Node3&#45;&gt;Node2</title>
<path fill="none" stroke="#9a32cd" stroke-dasharray="5,2" d="M734.482,-277.287C772.082,-268.774 815.096,-255.247 850,-234 881.959,-214.546 909.044,-178.363 921.178,-160.514"/>
<polygon fill="#9a32cd" stroke="#9a32cd" points="733.568,-273.904 724.542,-279.451 735.057,-280.744 733.568,-273.904"/>
<text text-anchor="middle" x="797" y="-290" font-family="FreeSans" font-size="10.00"> materialRemapping_</text>
<text text-anchor="middle" x="797" y="-277" font-family="FreeSans" font-size="10.00">geometryRemapping_</text>
</g>
<!-- Node4 -->
<g id="node6" class="node"><title>Node4</title>
<a xlink:href="class_urho3_d_1_1_hash_base.html" target="_top" xlink:title="Hash set/map base class.">
<polygon fill="none" stroke="black" points="415,-228.5 415,-249.5 523,-249.5 523,-228.5 415,-228.5"/>
<text text-anchor="middle" x="469" y="-236.5" font-family="FreeSans" font-size="10.00">Urho3D::HashBase</text>
</a>
</g>
<!-- Node4&#45;&gt;Node3 -->
<g id="edge6" class="edge"><title>Node4&#45;&gt;Node3</title>
<path fill="none" stroke="midnightblue" d="M514.454,-252.43C536.658,-258.99 563.621,-266.956 587.264,-273.942"/>
<polygon fill="midnightblue" stroke="midnightblue" points="515.198,-249 504.616,-249.523 513.215,-255.713 515.198,-249"/>
</g>
<!-- Node8 -->
<g id="node17" class="node"><title>Node8</title>
<a xlink:href="class_urho3_d_1_1_hash_map.html" target="_top" xlink:title="Urho3D::HashMap\&lt; unsigned,\l unsigned \&gt;">
<polygon fill="none" stroke="black" points="564,-222 564,-256 726,-256 726,-222 564,-222"/>
<text text-anchor="start" x="572" y="-243" font-family="FreeSans" font-size="10.00">Urho3D::HashMap&lt; unsigned,</text>
<text text-anchor="middle" x="645" y="-230" font-family="FreeSans" font-size="10.00"> unsigned &gt;</text>
</a>
</g>
<!-- Node4&#45;&gt;Node8 -->
<g id="edge22" class="edge"><title>Node4&#45;&gt;Node8</title>
<path fill="none" stroke="midnightblue" d="M533.365,-239C543.25,-239 553.565,-239 563.759,-239"/>
<polygon fill="midnightblue" stroke="midnightblue" points="533.242,-235.5 523.242,-239 533.242,-242.5 533.242,-235.5"/>
</g>
<!-- Node9 -->
<g id="node20" class="node"><title>Node9</title>
<a xlink:href="class_urho3_d_1_1_hash_map.html" target="_top" xlink:title="Urho3D::HashMap\&lt; Urho3D\l::BatchGroupKey, Urho3D\l::BatchGroup \&gt;">
<polygon fill="none" stroke="black" points="569,-156.5 569,-203.5 721,-203.5 721,-156.5 569,-156.5"/>
<text text-anchor="start" x="577" y="-190.5" font-family="FreeSans" font-size="10.00">Urho3D::HashMap&lt; Urho3D</text>
<text text-anchor="start" x="577" y="-177.5" font-family="FreeSans" font-size="10.00">::BatchGroupKey, Urho3D</text>
<text text-anchor="middle" x="645" y="-164.5" font-family="FreeSans" font-size="10.00">::BatchGroup &gt;</text>
</a>
</g>
<!-- Node4&#45;&gt;Node9 -->
<g id="edge26" class="edge"><title>Node4&#45;&gt;Node9</title>
<path fill="none" stroke="midnightblue" d="M510.114,-225.218C529.36,-218.766 552.831,-210.897 574.766,-203.544"/>
<polygon fill="midnightblue" stroke="midnightblue" points="508.834,-221.955 500.465,-228.452 511.059,-228.592 508.834,-221.955"/>
</g>
<!-- Node5 -->
<g id="node8" class="node"><title>Node5</title>
<a xlink:href="struct_urho3_d_1_1_hash_node_base.html" target="_top" xlink:title="Hash set/map node base class.">
<polygon fill="none" stroke="black" points="192,-255.5 192,-276.5 326,-276.5 326,-255.5 192,-255.5"/>
<text text-anchor="middle" x="259" y="-263.5" font-family="FreeSans" font-size="10.00">Urho3D::HashNodeBase</text>
</a>
</g>
<!-- Node5&#45;&gt;Node4 -->
<g id="edge8" class="edge"><title>Node5&#45;&gt;Node4</title>
<path fill="none" stroke="#9a32cd" stroke-dasharray="5,2" d="M336.272,-256.065C362.378,-252.709 390.946,-249.035 414.87,-245.96"/>
<polygon fill="#9a32cd" stroke="#9a32cd" points="335.495,-252.636 326.023,-257.383 336.387,-259.579 335.495,-252.636"/>
<text text-anchor="middle" x="369" y="-284" font-family="FreeSans" font-size="10.00"> ptrs_</text>
<text text-anchor="middle" x="369" y="-271" font-family="FreeSans" font-size="10.00">tail_</text>
<text text-anchor="middle" x="369" y="-258" font-family="FreeSans" font-size="10.00">head_</text>
</g>
<!-- Node5&#45;&gt;Node5 -->
<g id="edge10" class="edge"><title>Node5&#45;&gt;Node5</title>
<path fill="none" stroke="#9a32cd" stroke-dasharray="5,2" d="M240.94,-286.427C242.333,-291.349 248.353,-295 259,-295 276.035,-295 281.226,-285.653 274.571,-276.708"/>
<polygon fill="#9a32cd" stroke="#9a32cd" points="244.338,-287.264 243.429,-276.708 237.557,-285.527 244.338,-287.264"/>
<text text-anchor="middle" x="259" y="-325" font-family="FreeSans" font-size="10.00"> next_</text>
<text text-anchor="middle" x="259" y="-312" font-family="FreeSans" font-size="10.00">prev_</text>
<text text-anchor="middle" x="259" y="-299" font-family="FreeSans" font-size="10.00">down_</text>
</g>
<!-- Node6 -->
<g id="node11" class="node"><title>Node6</title>
<a xlink:href="struct_urho3_d_1_1_allocator_block.html" target="_top" xlink:title="Allocator memory block.">
<polygon fill="none" stroke="black" points="195.5,-184.5 195.5,-205.5 322.5,-205.5 322.5,-184.5 195.5,-184.5"/>
<text text-anchor="middle" x="259" y="-192.5" font-family="FreeSans" font-size="10.00">Urho3D::AllocatorBlock</text>
</a>
</g>
<!-- Node6&#45;&gt;Node4 -->
<g id="edge12" class="edge"><title>Node6&#45;&gt;Node4</title>
<path fill="none" stroke="#9a32cd" stroke-dasharray="5,2" d="M319.275,-207.629C350.768,-214.228 388.864,-222.21 418.747,-228.471"/>
<polygon fill="#9a32cd" stroke="#9a32cd" points="319.805,-204.164 309.3,-205.539 318.37,-211.015 319.805,-204.164"/>
<text text-anchor="middle" x="369" y="-226" font-family="FreeSans" font-size="10.00"> allocator_</text>
</g>
<!-- Node6&#45;&gt;Node6 -->
<g id="edge14" class="edge"><title>Node6&#45;&gt;Node6</title>
<path fill="none" stroke="#9a32cd" stroke-dasharray="5,2" d="M240.94,-215.427C242.333,-220.349 248.353,-224 259,-224 276.035,-224 281.226,-214.653 274.571,-205.708"/>
<polygon fill="#9a32cd" stroke="#9a32cd" points="244.338,-216.264 243.429,-205.708 237.557,-214.527 244.338,-216.264"/>
<text text-anchor="middle" x="259" y="-228" font-family="FreeSans" font-size="10.00"> next_</text>
</g>
<!-- Node7 -->
<g id="node14" class="node"><title>Node7</title>
<a xlink:href="struct_urho3_d_1_1_allocator_node.html" target="_top" xlink:title="Allocator node.">
<polygon fill="none" stroke="black" points="0.5,-184.5 0.5,-205.5 127.5,-205.5 127.5,-184.5 0.5,-184.5"/>
<text text-anchor="middle" x="64" y="-192.5" font-family="FreeSans" font-size="10.00">Urho3D::AllocatorNode</text>
</a>
</g>
<!-- Node7&#45;&gt;Node6 -->
<g id="edge16" class="edge"><title>Node7&#45;&gt;Node6</title>
<path fill="none" stroke="#9a32cd" stroke-dasharray="5,2" d="M137.645,-195C156.576,-195 176.785,-195 195.172,-195"/>
<polygon fill="#9a32cd" stroke="#9a32cd" points="137.581,-191.5 127.58,-195 137.58,-198.5 137.581,-191.5"/>
<text text-anchor="middle" x="160" y="-199" font-family="FreeSans" font-size="10.00"> free_</text>
</g>
<!-- Node7&#45;&gt;Node7 -->
<g id="edge18" class="edge"><title>Node7&#45;&gt;Node7</title>
<path fill="none" stroke="#9a32cd" stroke-dasharray="5,2" d="M46.3082,-215.427C47.6731,-220.349 53.5703,-224 64,-224 80.6875,-224 85.772,-214.653 79.2534,-205.708"/>
<polygon fill="#9a32cd" stroke="#9a32cd" points="49.7078,-216.259 48.7466,-205.708 42.9182,-214.556 49.7078,-216.259"/>
<text text-anchor="middle" x="64" y="-228" font-family="FreeSans" font-size="10.00"> next_</text>
</g>
<!-- Node8&#45;&gt;Node2 -->
<g id="edge20" class="edge"><title>Node8&#45;&gt;Node2</title>
<path fill="none" stroke="#9a32cd" stroke-dasharray="5,2" d="M734.44,-219.569C770.747,-210.731 812.814,-199.267 850,-186 870.087,-178.833 892.072,-168.44 907.566,-160.661"/>
<polygon fill="#9a32cd" stroke="#9a32cd" points="733.267,-216.251 724.362,-221.992 734.903,-223.058 733.267,-216.251"/>
<text text-anchor="middle" x="797" y="-221" font-family="FreeSans" font-size="10.00"> shaderRemapping_</text>
</g>
<!-- Node9&#45;&gt;Node2 -->
<g id="edge24" class="edge"><title>Node9&#45;&gt;Node2</title>
<path fill="none" stroke="#9a32cd" stroke-dasharray="5,2" d="M731.396,-170.841C775.687,-166.146 828.516,-160.546 868.252,-156.334"/>
<polygon fill="#9a32cd" stroke="#9a32cd" points="730.786,-167.386 721.211,-171.921 731.524,-174.347 730.786,-167.386"/>
<text text-anchor="middle" x="797" y="-173" font-family="FreeSans" font-size="10.00"> batchGroups_</text>
</g>
<!-- Node10 -->
<g id="node23" class="node"><title>Node10</title>
<a xlink:href="class_urho3_d_1_1_p_o_d_vector.html" target="_top" xlink:title="Urho3D::PODVector\&lt;\l Urho3D::BatchGroup * \&gt;">
<polygon fill="none" stroke="black" points="575.5,-104 575.5,-138 714.5,-138 714.5,-104 575.5,-104"/>
<text text-anchor="start" x="583.5" y="-125" font-family="FreeSans" font-size="10.00">Urho3D::PODVector&lt;</text>
<text text-anchor="middle" x="645" y="-112" font-family="FreeSans" font-size="10.00"> Urho3D::BatchGroup * &gt;</text>
</a>
</g>
<!-- Node10&#45;&gt;Node2 -->
<g id="edge28" class="edge"><title>Node10&#45;&gt;Node2</title>
<path fill="none" stroke="#9a32cd" stroke-dasharray="5,2" d="M724.808,-127.028C762.776,-130.146 808.781,-134.287 850,-139 855.978,-139.684 862.206,-140.457 868.42,-141.269"/>
<polygon fill="#9a32cd" stroke="#9a32cd" points="725.082,-123.539 714.831,-126.217 724.514,-130.516 725.082,-123.539"/>
<text text-anchor="middle" x="797" y="-143" font-family="FreeSans" font-size="10.00"> sortedBatchGroups_</text>
</g>
<!-- Node11 -->
<g id="node25" class="node"><title>Node11</title>
<a xlink:href="class_urho3_d_1_1_vector_base.html" target="_top" xlink:title="Vector base class.">
<polygon fill="none" stroke="black" points="412,-58.5 412,-79.5 526,-79.5 526,-58.5 412,-58.5"/>
<text text-anchor="middle" x="469" y="-66.5" font-family="FreeSans" font-size="10.00">Urho3D::VectorBase</text>
</a>
</g>
<!-- Node11&#45;&gt;Node10 -->
<g id="edge30" class="edge"><title>Node11&#45;&gt;Node10</title>
<path fill="none" stroke="midnightblue" d="M514.454,-82.4296C536.658,-88.9898 563.621,-96.9561 587.264,-103.942"/>
<polygon fill="midnightblue" stroke="midnightblue" points="515.198,-78.9999 504.616,-79.523 513.215,-85.7131 515.198,-78.9999"/>
</g>
<!-- Node12 -->
<g id="node27" class="node"><title>Node12</title>
<a xlink:href="class_urho3_d_1_1_p_o_d_vector.html" target="_top" xlink:title="Urho3D::PODVector\&lt;\l Urho3D::Batch \&gt;">
<polygon fill="none" stroke="black" points="585.5,-52 585.5,-86 704.5,-86 704.5,-52 585.5,-52"/>
<text text-anchor="start" x="593.5" y="-73" font-family="FreeSans" font-size="10.00">Urho3D::PODVector&lt;</text>
<text text-anchor="middle" x="645" y="-60" font-family="FreeSans" font-size="10.00"> Urho3D::Batch &gt;</text>
</a>
</g>
<!-- Node11&#45;&gt;Node12 -->
<g id="edge34" class="edge"><title>Node11&#45;&gt;Node12</title>
<path fill="none" stroke="midnightblue" d="M536.556,-69C552.652,-69 569.715,-69 585.423,-69"/>
<polygon fill="midnightblue" stroke="midnightblue" points="536.142,-65.5001 526.142,-69 536.142,-72.5001 536.142,-65.5001"/>
</g>
<!-- Node13 -->
<g id="node30" class="node"><title>Node13</title>
<a xlink:href="class_urho3_d_1_1_p_o_d_vector.html" target="_top" xlink:title="Urho3D::PODVector\&lt;\l Urho3D::Batch * \&gt;">
<polygon fill="none" stroke="black" points="585.5,-0 585.5,-34 704.5,-34 704.5,-0 585.5,-0"/>
<text text-anchor="start" x="593.5" y="-21" font-family="FreeSans" font-size="10.00">Urho3D::PODVector&lt;</text>
<text text-anchor="middle" x="645" y="-8" font-family="FreeSans" font-size="10.00"> Urho3D::Batch * &gt;</text>
</a>
</g>
<!-- Node11&#45;&gt;Node13 -->
<g id="edge38" class="edge"><title>Node11&#45;&gt;Node13</title>
<path fill="none" stroke="midnightblue" d="M514.454,-55.5704C536.658,-49.0102 563.621,-41.0439 587.264,-34.0582"/>
<polygon fill="midnightblue" stroke="midnightblue" points="513.215,-52.2869 504.616,-58.477 515.198,-59.0001 513.215,-52.2869"/>
</g>
<!-- Node12&#45;&gt;Node2 -->
<g id="edge32" class="edge"><title>Node12&#45;&gt;Node2</title>
<path fill="none" stroke="#9a32cd" stroke-dasharray="5,2" d="M714.776,-79.2384C754.972,-86.2185 806.076,-96.9524 850,-112 871.233,-119.274 894.173,-130.953 909.64,-139.446"/>
<polygon fill="#9a32cd" stroke="#9a32cd" points="715.248,-75.7685 704.803,-77.5444 714.076,-82.6697 715.248,-75.7685"/>
<text text-anchor="middle" x="797" y="-116" font-family="FreeSans" font-size="10.00"> batches_</text>
</g>
<!-- Node13&#45;&gt;Node2 -->
<g id="edge36" class="edge"><title>Node13&#45;&gt;Node2</title>
<path fill="none" stroke="#9a32cd" stroke-dasharray="5,2" d="M714.95,-23.9431C756.428,-30.4447 808.776,-42.9656 850,-67 881.945,-85.6244 908.84,-121.327 921.017,-139.22"/>
<polygon fill="#9a32cd" stroke="#9a32cd" points="715.329,-20.4612 704.924,-22.4546 714.301,-27.3853 715.329,-20.4612"/>
<text text-anchor="middle" x="797" y="-71" font-family="FreeSans" font-size="10.00"> sortedBatches_</text>
</g>
</g>
</svg>
