<?xml version="1.0" encoding="UTF-8" standalone="no"?>
<!DOCTYPE svg PUBLIC "-//W3C//DTD SVG 1.1//EN"
 "http://www.w3.org/Graphics/SVG/1.1/DTD/svg11.dtd">
<!-- Generated by graphviz version 2.26.3 (20100126.1600)
 -->
<!-- Title: Urho3D::Bone Pages: 1 -->
<!--zoomable 942 -->
<svg id="main" version="1.1" xmlns="http://www.w3.org/2000/svg" xmlns:xlink="http://www.w3.org/1999/xlink" xml:space="preserve" onload="init(evt)">
        <defs>
                <circle id="rim" cx="0" cy="0" r="7"/>
                <circle id="rim2" cx="0" cy="0" r="3.5"/>
                <g id="zoomPlus">
                        <use xlink:href="#rim" fill="#404040">
                                <set attributeName="fill" to="#808080" begin="zoomplus.mouseover" end="zoomplus.mouseout"/>
                        </use>
                        <path d="M-4,0h8M0,-4v8" fill="none" stroke="white" stroke-width="1.5" pointer-events="none"/>
                </g>
                <g id="zoomMin">
                        <use xlink:href="#rim" fill="#404040">
                                <set attributeName="fill" to="#808080" begin="zoomminus.mouseover" end="zoomminus.mouseout"/>
                        </use>
                        <path d="M-4,0h8" fill="none" stroke="white" stroke-width="1.5" pointer-events="none"/>
                </g>
                <g id="dirArrow">
                        <path fill="none" stroke="white" stroke-width="1.5" d="M0,-3.0v7 M-2.5,-0.5L0,-3.0L2.5,-0.5"/>
                </g>
               <g id="resetDef">
                       <use xlink:href="#rim2" fill="#404040">
                               <set attributeName="fill" to="#808080" begin="reset.mouseover" end="reset.mouseout"/>
                       </use>
               </g>
        </defs>

<script type="text/javascript">
var viewWidth = 1290;
var viewHeight = 942;
var sectionId = 'dynsection-0';
</script>
<script xlink:href="svgpan.js"/>
<svg id="graph" class="graph">
<g id="viewport">
<title>Urho3D::Bone</title>
<!-- Node1 -->
<g id="node1" class="node"><title>Node1</title>
<polygon fill="#bfbfbf" stroke="black" points="1198,-728.5 1198,-749.5 1282,-749.5 1282,-728.5 1198,-728.5"/>
<text text-anchor="middle" x="1240" y="-736.5" font-family="FreeSans" font-size="10.00">Urho3D::Bone</text>
</g>
<!-- Node2 -->
<g id="node2" class="node"><title>Node2</title>
<a xlink:href="class_urho3_d_1_1_quaternion.html" target="_top" xlink:title="Rotation represented as a four&#45;dimensional normalized vector.">
<polygon fill="none" stroke="black" points="425.5,-759.5 425.5,-780.5 538.5,-780.5 538.5,-759.5 425.5,-759.5"/>
<text text-anchor="middle" x="482" y="-767.5" font-family="FreeSans" font-size="10.00">Urho3D::Quaternion</text>
</a>
</g>
<!-- Node2&#45;&gt;Node1 -->
<g id="edge2" class="edge"><title>Node2&#45;&gt;Node1</title>
<path fill="none" stroke="#9a32cd" stroke-dasharray="5,2" d="M549.002,-772.905C673.76,-777.311 949.89,-782.333 1180,-753 1186.47,-752.175 1193.27,-750.948 1199.86,-749.558"/>
<polygon fill="#9a32cd" stroke="#9a32cd" points="548.964,-769.402 538.843,-772.536 548.71,-776.397 548.964,-769.402"/>
<text text-anchor="middle" x="927" y="-777" font-family="FreeSans" font-size="10.00"> initialRotation_</text>
</g>
<!-- Node2&#45;&gt;Node2 -->
<g id="edge4" class="edge"><title>Node2&#45;&gt;Node2</title>
<path fill="none" stroke="#9a32cd" stroke-dasharray="5,2" d="M448.508,-789.679C450.302,-794.975 461.467,-799 482,-799 513.289,-799 522.822,-789.653 510.6,-780.708"/>
<polygon fill="#9a32cd" stroke="#9a32cd" points="451.685,-791.163 453.4,-780.708 445.539,-787.812 451.685,-791.163"/>
<text text-anchor="middle" x="482" y="-803" font-family="FreeSans" font-size="10.00"> IDENTITY</text>
</g>
<!-- Node5 -->
<g id="node10" class="node"><title>Node5</title>
<a xlink:href="class_urho3_d_1_1_node.html" target="_top" xlink:title="Scene node that may contain components and child nodes.">
<polygon fill="none" stroke="black" points="764.5,-366.5 764.5,-387.5 849.5,-387.5 849.5,-366.5 764.5,-366.5"/>
<text text-anchor="middle" x="807" y="-374.5" font-family="FreeSans" font-size="10.00">Urho3D::Node</text>
</a>
</g>
<!-- Node2&#45;&gt;Node5 -->
<g id="edge40" class="edge"><title>Node2&#45;&gt;Node5</title>
<path fill="none" stroke="#9a32cd" stroke-dasharray="5,2" d="M548.533,-763.638C560.869,-760.637 573.243,-756.287 584,-750 625.37,-725.821 699.268,-627.042 724,-586 766.517,-515.443 795.332,-419.213 804.149,-387.563"/>
<polygon fill="#9a32cd" stroke="#9a32cd" points="547.715,-760.234 538.679,-765.767 549.193,-767.077 547.715,-760.234"/>
<text text-anchor="middle" x="663" y="-752" font-family="FreeSans" font-size="10.00"> worldRotation_</text>
<text text-anchor="middle" x="663" y="-739" font-family="FreeSans" font-size="10.00">rotation_</text>
</g>
<!-- Node3 -->
<g id="node5" class="node"><title>Node3</title>
<a xlink:href="class_urho3_d_1_1_vector3.html" target="_top" xlink:title="Three&#45;dimensional vector.">
<polygon fill="none" stroke="black" points="53,-689.5 53,-710.5 149,-710.5 149,-689.5 53,-689.5"/>
<text text-anchor="middle" x="101" y="-697.5" font-family="FreeSans" font-size="10.00">Urho3D::Vector3</text>
</a>
</g>
<!-- Node3&#45;&gt;Node1 -->
<g id="edge6" class="edge"><title>Node3&#45;&gt;Node1</title>
<path fill="none" stroke="#9a32cd" stroke-dasharray="5,2" d="M125.543,-715.96C184.447,-752.675 339.521,-840 482,-840 482,-840 482,-840 1055,-840 1129.65,-840 1202.8,-775.864 1229.44,-749.809"/>
<polygon fill="#9a32cd" stroke="#9a32cd" points="127.257,-712.902 116.932,-710.523 123.519,-718.821 127.257,-712.902"/>
<text text-anchor="middle" x="807" y="-857" font-family="FreeSans" font-size="10.00"> initialScale_</text>
<text text-anchor="middle" x="807" y="-844" font-family="FreeSans" font-size="10.00">initialPosition_</text>
</g>
<!-- Node3&#45;&gt;Node3 -->
<g id="edge8" class="edge"><title>Node3&#45;&gt;Node3</title>
<path fill="none" stroke="#9a32cd" stroke-dasharray="5,2" d="M65.5287,-719.299C66.986,-724.781 78.8098,-729 101,-729 134.027,-729 144.09,-719.653 131.189,-710.708"/>
<polygon fill="#9a32cd" stroke="#9a32cd" points="68.5545,-721.06 70.8109,-710.708 62.5916,-717.393 68.5545,-721.06"/>
<text text-anchor="middle" x="101" y="-824" font-family="FreeSans" font-size="10.00"> ONE</text>
<text text-anchor="middle" x="101" y="-811" font-family="FreeSans" font-size="10.00">DOWN</text>
<text text-anchor="middle" x="101" y="-798" font-family="FreeSans" font-size="10.00">BACK</text>
<text text-anchor="middle" x="101" y="-785" font-family="FreeSans" font-size="10.00">RIGHT</text>
<text text-anchor="middle" x="101" y="-772" font-family="FreeSans" font-size="10.00">LEFT</text>
<text text-anchor="middle" x="101" y="-759" font-family="FreeSans" font-size="10.00">ZERO</text>
<text text-anchor="middle" x="101" y="-746" font-family="FreeSans" font-size="10.00">FORWARD</text>
<text text-anchor="middle" x="101" y="-733" font-family="FreeSans" font-size="10.00">UP</text>
</g>
<!-- Node3&#45;&gt;Node5 -->
<g id="edge52" class="edge"><title>Node3&#45;&gt;Node5</title>
<path fill="none" stroke="#9a32cd" stroke-dasharray="5,2" d="M128.226,-684.219C177.041,-656.618 283.396,-599.607 380,-569 467.768,-541.192 501.124,-573.101 584,-533 593.635,-528.338 592.487,-521.906 602,-517 651.445,-491.502 677.445,-519.456 724,-489 764.101,-462.766 791.822,-410.114 802.324,-387.602"/>
<polygon fill="#9a32cd" stroke="#9a32cd" points="126.208,-681.34 119.25,-689.331 129.672,-687.423 126.208,-681.34"/>
<text text-anchor="middle" x="482" y="-586" font-family="FreeSans" font-size="10.00"> scale_</text>
<text text-anchor="middle" x="482" y="-573" font-family="FreeSans" font-size="10.00">position_</text>
</g>
<!-- Node22 -->
<g id="node55" class="node"><title>Node22</title>
<a xlink:href="class_urho3_d_1_1_connection.html" target="_top" xlink:title="Connection to a remote network host.">
<polygon fill="none" stroke="red" points="425.5,-205.5 425.5,-226.5 538.5,-226.5 538.5,-205.5 425.5,-205.5"/>
<text text-anchor="middle" x="482" y="-213.5" font-family="FreeSans" font-size="10.00">Urho3D::Connection</text>
</a>
</g>
<!-- Node3&#45;&gt;Node22 -->
<g id="edge72" class="edge"><title>Node3&#45;&gt;Node22</title>
<path fill="none" stroke="#9a32cd" stroke-dasharray="5,2" d="M112.881,-680.223C132.861,-647.743 175.4,-581.839 220,-533 276.108,-471.559 323.338,-484.677 362,-411 379.652,-377.361 355.009,-269.611 380,-241 391.395,-227.955 408.379,-221.149 425.235,-217.748"/>
<polygon fill="#9a32cd" stroke="#9a32cd" points="109.642,-678.813 107.427,-689.174 115.619,-682.455 109.642,-678.813"/>
<text text-anchor="middle" x="291" y="-537" font-family="FreeSans" font-size="10.00"> position_</text>
</g>
<!-- Node25 -->
<g id="node66" class="node"><title>Node25</title>
<a xlink:href="class_urho3_d_1_1_bounding_box.html" target="_top" xlink:title="Three&#45;dimensional axis&#45;aligned bounding box.">
<polygon fill="none" stroke="black" points="602,-879.5 602,-900.5 724,-900.5 724,-879.5 602,-879.5"/>
<text text-anchor="middle" x="663" y="-887.5" font-family="FreeSans" font-size="10.00">Urho3D::BoundingBox</text>
</a>
</g>
<!-- Node3&#45;&gt;Node25 -->
<g id="edge86" class="edge"><title>Node3&#45;&gt;Node25</title>
<path fill="none" stroke="#9a32cd" stroke-dasharray="5,2" d="M109.78,-720.14C125.957,-754.491 164.015,-823.633 220,-854 342.26,-920.315 511.974,-911.092 601.706,-899.828"/>
<polygon fill="#9a32cd" stroke="#9a32cd" points="112.799,-718.325 105.466,-710.678 106.43,-721.229 112.799,-718.325"/>
<text text-anchor="middle" x="291" y="-915" font-family="FreeSans" font-size="10.00"> max_</text>
<text text-anchor="middle" x="291" y="-902" font-family="FreeSans" font-size="10.00">min_</text>
</g>
<!-- Node4 -->
<g id="node8" class="node"><title>Node4</title>
<a xlink:href="class_urho3_d_1_1_weak_ptr.html" target="_top" xlink:title="Urho3D::WeakPtr\&lt; Urho3D\l::Node \&gt;">
<polygon fill="none" stroke="black" points="982,-677 982,-711 1128,-711 1128,-677 982,-677"/>
<text text-anchor="start" x="990" y="-698" font-family="FreeSans" font-size="10.00">Urho3D::WeakPtr&lt; Urho3D</text>
<text text-anchor="middle" x="1055" y="-685" font-family="FreeSans" font-size="10.00">::Node &gt;</text>
</a>
</g>
<!-- Node4&#45;&gt;Node1 -->
<g id="edge10" class="edge"><title>Node4&#45;&gt;Node1</title>
<path fill="none" stroke="#9a32cd" stroke-dasharray="5,2" d="M1138.29,-702.672C1152.35,-705.079 1166.7,-708.133 1180,-712 1193.93,-716.05 1208.81,-722.727 1220.26,-728.427"/>
<polygon fill="#9a32cd" stroke="#9a32cd" points="1138.54,-699.168 1128.11,-701.031 1137.43,-706.078 1138.54,-699.168"/>
<text text-anchor="middle" x="1163" y="-716" font-family="FreeSans" font-size="10.00"> node_</text>
</g>
<!-- Node5&#45;&gt;Node4 -->
<g id="edge12" class="edge"><title>Node5&#45;&gt;Node4</title>
<path fill="none" stroke="#9a32cd" stroke-dasharray="5,2" d="M821.585,-395.643C865.957,-452.36 998.89,-622.279 1041.62,-676.894"/>
<polygon fill="#9a32cd" stroke="#9a32cd" points="824.17,-393.267 815.251,-387.547 818.657,-397.58 824.17,-393.267"/>
<text text-anchor="middle" x="927" y="-578" font-family="FreeSans" font-size="10.00"> ptr_</text>
</g>
<!-- Node5&#45;&gt;Node5 -->
<g id="edge58" class="edge"><title>Node5&#45;&gt;Node5</title>
<path fill="none" stroke="#9a32cd" stroke-dasharray="5,2" d="M784.885,-397.427C786.591,-402.349 793.963,-406 807,-406 827.859,-406 834.215,-396.653 826.067,-387.708"/>
<polygon fill="#9a32cd" stroke="#9a32cd" points="788.28,-398.297 787.933,-387.708 781.601,-396.202 788.28,-398.297"/>
<text text-anchor="middle" x="807" y="-410" font-family="FreeSans" font-size="10.00"> parent_</text>
</g>
<!-- Node13 -->
<g id="node26" class="node"><title>Node13</title>
<a xlink:href="class_urho3_d_1_1_scene.html" target="_top" xlink:title="Root scene node, represents the whole scene.">
<polygon fill="none" stroke="red" points="1010.5,-108.5 1010.5,-129.5 1099.5,-129.5 1099.5,-108.5 1010.5,-108.5"/>
<text text-anchor="middle" x="1055" y="-116.5" font-family="FreeSans" font-size="10.00">Urho3D::Scene</text>
</a>
</g>
<!-- Node5&#45;&gt;Node13 -->
<g id="edge30" class="edge"><title>Node5&#45;&gt;Node13</title>
<path fill="none" stroke="midnightblue" d="M857.169,-363.343C890.827,-352.05 934.275,-333.081 964,-304 1017.73,-251.435 1044.54,-160.621 1052.45,-129.681"/>
<polygon fill="midnightblue" stroke="midnightblue" points="855.949,-360.059 847.51,-366.465 858.102,-366.72 855.949,-360.059"/>
</g>
<!-- Node6 -->
<g id="node12" class="node"><title>Node6</title>
<a xlink:href="class_urho3_d_1_1_animatable.html" target="_top" xlink:title="Base class for animatable object, an animatable object can be set animation on it&#39;s attributes...">
<polygon fill="none" stroke="black" points="425,-294.5 425,-315.5 539,-315.5 539,-294.5 425,-294.5"/>
<text text-anchor="middle" x="482" y="-302.5" font-family="FreeSans" font-size="10.00">Urho3D::Animatable</text>
</a>
</g>
<!-- Node6&#45;&gt;Node5 -->
<g id="edge14" class="edge"><title>Node6&#45;&gt;Node5</title>
<path fill="none" stroke="midnightblue" d="M549.364,-314.554C598.234,-322.137 665.711,-333.954 724,-349 742.553,-353.789 762.95,-360.647 778.881,-366.377"/>
<polygon fill="midnightblue" stroke="midnightblue" points="549.643,-311.056 539.228,-313.001 548.582,-317.975 549.643,-311.056"/>
</g>
<!-- Node7 -->
<g id="node14" class="node"><title>Node7</title>
<a xlink:href="class_urho3_d_1_1_serializable.html" target="_top" xlink:title="Base class for objects with automatic serialization through attributes.">
<polygon fill="none" stroke="red" points="44,-264.5 44,-285.5 158,-285.5 158,-264.5 44,-264.5"/>
<text text-anchor="middle" x="101" y="-272.5" font-family="FreeSans" font-size="10.00">Urho3D::Serializable</text>
</a>
</g>
<!-- Node7&#45;&gt;Node6 -->
<g id="edge16" class="edge"><title>Node7&#45;&gt;Node6</title>
<path fill="none" stroke="midnightblue" d="M168.033,-280.278C240.913,-286.017 356.148,-295.09 424.882,-300.503"/>
<polygon fill="midnightblue" stroke="midnightblue" points="168.283,-276.787 158.04,-279.491 167.734,-283.766 168.283,-276.787"/>
</g>
<!-- Node8 -->
<g id="node16" class="node"><title>Node8</title>
<a xlink:href="class_urho3_d_1_1_hash_map.html" target="_top" xlink:title="Urho3D::HashMap\&lt; Urho3D\l::String, Urho3D::SharedPtr\l\&lt; Urho3D::AttributeAnimationInfo \&gt; \&gt;">
<polygon fill="none" stroke="red" points="0.5,-408.5 0.5,-455.5 201.5,-455.5 201.5,-408.5 0.5,-408.5"/>
<text text-anchor="start" x="8.5" y="-442.5" font-family="FreeSans" font-size="10.00">Urho3D::HashMap&lt; Urho3D</text>
<text text-anchor="start" x="8.5" y="-429.5" font-family="FreeSans" font-size="10.00">::String, Urho3D::SharedPtr</text>
<text text-anchor="middle" x="101" y="-416.5" font-family="FreeSans" font-size="10.00">&lt; Urho3D::AttributeAnimationInfo &gt; &gt;</text>
</a>
</g>
<!-- Node8&#45;&gt;Node6 -->
<g id="edge18" class="edge"><title>Node8&#45;&gt;Node6</title>
<path fill="none" stroke="#9a32cd" stroke-dasharray="5,2" d="M181.306,-405.4C197.302,-400.328 211.713,-395.983 220,-394 282.179,-379.124 312.255,-411.161 362,-371 379.082,-357.209 363.148,-339.071 380,-325 392.536,-314.533 408.956,-308.967 424.947,-306.145"/>
<polygon fill="#9a32cd" stroke="#9a32cd" points="180.2,-402.079 171.74,-408.457 182.331,-408.747 180.2,-402.079"/>
<text text-anchor="middle" x="291" y="-398" font-family="FreeSans" font-size="10.00"> attributeAnimationInfos_</text>
</g>
<!-- Node9 -->
<g id="node18" class="node"><title>Node9</title>
<a xlink:href="class_urho3_d_1_1_shared_ptr.html" target="_top" xlink:title="Urho3D::SharedPtr\&lt;\l Urho3D::ObjectAnimation \&gt;">
<polygon fill="none" stroke="red" points="24.5,-356 24.5,-390 177.5,-390 177.5,-356 24.5,-356"/>
<text text-anchor="start" x="32.5" y="-377" font-family="FreeSans" font-size="10.00">Urho3D::SharedPtr&lt;</text>
<text text-anchor="middle" x="101" y="-364" font-family="FreeSans" font-size="10.00"> Urho3D::ObjectAnimation &gt;</text>
</a>
</g>
<!-- Node9&#45;&gt;Node6 -->
<g id="edge20" class="edge"><title>Node9&#45;&gt;Node6</title>
<path fill="none" stroke="#9a32cd" stroke-dasharray="5,2" d="M187.676,-362.233C250.617,-353.939 330.108,-342.349 362,-333 370.401,-330.537 371.652,-327.637 380,-325 394.282,-320.489 410.026,-316.801 424.781,-313.876"/>
<polygon fill="#9a32cd" stroke="#9a32cd" points="187.187,-358.767 177.726,-363.535 188.095,-365.708 187.187,-358.767"/>
<text text-anchor="middle" x="291" y="-362" font-family="FreeSans" font-size="10.00"> objectAnimation_</text>
</g>
<!-- Node10 -->
<g id="node20" class="node"><title>Node10</title>
<a xlink:href="class_urho3_d_1_1_hash_set.html" target="_top" xlink:title="Urho3D::HashSet\&lt; const\l Urho3D::AttributeInfo * \&gt;">
<polygon fill="none" stroke="red" points="30.5,-304 30.5,-338 171.5,-338 171.5,-304 30.5,-304"/>
<text text-anchor="start" x="38.5" y="-325" font-family="FreeSans" font-size="10.00">Urho3D::HashSet&lt; const</text>
<text text-anchor="middle" x="101" y="-312" font-family="FreeSans" font-size="10.00"> Urho3D::AttributeInfo * &gt;</text>
</a>
</g>
<!-- Node10&#45;&gt;Node6 -->
<g id="edge22" class="edge"><title>Node10&#45;&gt;Node6</title>
<path fill="none" stroke="#9a32cd" stroke-dasharray="5,2" d="M181.848,-317.605C254.854,-314.539 360.438,-310.105 424.964,-307.395"/>
<polygon fill="#9a32cd" stroke="#9a32cd" points="181.615,-314.111 171.77,-318.028 181.908,-321.105 181.615,-314.111"/>
<text text-anchor="middle" x="291" y="-320" font-family="FreeSans" font-size="10.00"> animatedNetworkAttributes_</text>
</g>
<!-- Node11 -->
<g id="node22" class="node"><title>Node11</title>
<a xlink:href="class_urho3_d_1_1_p_o_d_vector.html" target="_top" xlink:title="Urho3D::PODVector\&lt;\l Urho3D::Node * \&gt;">
<polygon fill="none" stroke="black" points="422.5,-334 422.5,-368 541.5,-368 541.5,-334 422.5,-334"/>
<text text-anchor="start" x="430.5" y="-355" font-family="FreeSans" font-size="10.00">Urho3D::PODVector&lt;</text>
<text text-anchor="middle" x="482" y="-342" font-family="FreeSans" font-size="10.00"> Urho3D::Node * &gt;</text>
</a>
</g>
<!-- Node11&#45;&gt;Node5 -->
<g id="edge24" class="edge"><title>Node11&#45;&gt;Node5</title>
<path fill="none" stroke="#9a32cd" stroke-dasharray="5,2" d="M551.929,-351.136C600.377,-351.904 666.289,-354.283 724,-361 737.119,-362.527 751.272,-364.958 764.111,-367.468"/>
<polygon fill="#9a32cd" stroke="#9a32cd" points="551.913,-347.636 541.865,-350.996 551.816,-354.635 551.913,-347.636"/>
<text text-anchor="middle" x="663" y="-365" font-family="FreeSans" font-size="10.00"> dependencyNodes_</text>
</g>
<!-- Node12 -->
<g id="node24" class="node"><title>Node12</title>
<a xlink:href="class_urho3_d_1_1_vector_base.html" target="_top" xlink:title="Vector base class.">
<polygon fill="none" stroke="black" points="44,-485.5 44,-506.5 158,-506.5 158,-485.5 44,-485.5"/>
<text text-anchor="middle" x="101" y="-493.5" font-family="FreeSans" font-size="10.00">Urho3D::VectorBase</text>
</a>
</g>
<!-- Node12&#45;&gt;Node11 -->
<g id="edge26" class="edge"><title>Node12&#45;&gt;Node11</title>
<path fill="none" stroke="midnightblue" d="M167.967,-483.037C180.088,-478.655 192.027,-472.805 202,-465 214.245,-455.416 207.278,-443.94 220,-435 272.632,-398.016 309.368,-443.984 362,-407 374.722,-398.06 367.528,-386.286 380,-377 392.313,-367.833 407.527,-361.882 422.414,-358.025"/>
<polygon fill="midnightblue" stroke="midnightblue" points="166.642,-479.789 158.242,-486.245 168.835,-486.436 166.642,-479.789"/>
</g>
<!-- Node17 -->
<g id="node37" class="node"><title>Node17</title>
<a xlink:href="class_urho3_d_1_1_vector.html" target="_top" xlink:title="Urho3D::Vector\&lt; Urho3D\l::WeakPtr\&lt; Urho3D::Component \&gt; \&gt;">
<polygon fill="none" stroke="black" points="385,-490 385,-524 579,-524 579,-490 385,-490"/>
<text text-anchor="start" x="393" y="-511" font-family="FreeSans" font-size="10.00">Urho3D::Vector&lt; Urho3D</text>
<text text-anchor="middle" x="482" y="-498" font-family="FreeSans" font-size="10.00">::WeakPtr&lt; Urho3D::Component &gt; &gt;</text>
</a>
</g>
<!-- Node12&#45;&gt;Node17 -->
<g id="edge44" class="edge"><title>Node12&#45;&gt;Node17</title>
<path fill="none" stroke="midnightblue" d="M157.135,-508.558C176.897,-512.398 199.333,-516.106 220,-518 274.403,-522.987 335.372,-520.881 384.797,-517.237"/>
<polygon fill="midnightblue" stroke="midnightblue" points="157.559,-505.073 147.068,-506.546 156.188,-511.938 157.559,-505.073"/>
</g>
<!-- Node19 -->
<g id="node42" class="node"><title>Node19</title>
<a xlink:href="class_urho3_d_1_1_vector.html" target="_top" xlink:title="Urho3D::Vector\&lt; Urho3D\l::SharedPtr\&lt; Urho3D::Component \&gt; \&gt;">
<polygon fill="none" stroke="black" points="380.5,-438 380.5,-472 583.5,-472 583.5,-438 380.5,-438"/>
<text text-anchor="start" x="388.5" y="-459" font-family="FreeSans" font-size="10.00">Urho3D::Vector&lt; Urho3D</text>
<text text-anchor="middle" x="482" y="-446" font-family="FreeSans" font-size="10.00">::SharedPtr&lt; Urho3D::Component &gt; &gt;</text>
</a>
</g>
<!-- Node12&#45;&gt;Node19 -->
<g id="edge50" class="edge"><title>Node12&#45;&gt;Node19</title>
<path fill="none" stroke="midnightblue" d="M168.274,-505.552C221.964,-510.745 298.448,-512.642 362,-493 371.186,-490.161 371.216,-484.91 380,-481 387.513,-477.656 395.536,-474.684 403.658,-472.057"/>
<polygon fill="midnightblue" stroke="midnightblue" points="168.493,-502.056 158.187,-504.511 167.775,-509.019 168.493,-502.056"/>
</g>
<!-- Node21 -->
<g id="node52" class="node"><title>Node21</title>
<a xlink:href="class_urho3_d_1_1_vector.html" target="_top" xlink:title="Urho3D::Vector\&lt; Urho3D\l::SharedPtr\&lt; Urho3D::Node \&gt; \&gt;">
<polygon fill="none" stroke="black" points="395.5,-386 395.5,-420 568.5,-420 568.5,-386 395.5,-386"/>
<text text-anchor="start" x="403.5" y="-407" font-family="FreeSans" font-size="10.00">Urho3D::Vector&lt; Urho3D</text>
<text text-anchor="middle" x="482" y="-394" font-family="FreeSans" font-size="10.00">::SharedPtr&lt; Urho3D::Node &gt; &gt;</text>
</a>
</g>
<!-- Node12&#45;&gt;Node21 -->
<g id="edge66" class="edge"><title>Node12&#45;&gt;Node21</title>
<path fill="none" stroke="midnightblue" d="M144.833,-482.51C175.559,-473.093 212.441,-461.884 220,-460 282.417,-444.445 299.167,-445.781 362,-432 378.748,-428.327 396.748,-424.117 413.581,-420.065"/>
<polygon fill="midnightblue" stroke="midnightblue" points="143.652,-479.211 135.118,-485.49 145.705,-485.903 143.652,-479.211"/>
</g>
<!-- Node13&#45;&gt;Node5 -->
<g id="edge28" class="edge"><title>Node13&#45;&gt;Node5</title>
<path fill="none" stroke="#9a32cd" stroke-dasharray="5,2" d="M1037.7,-137.002C989.651,-186.984 855.636,-326.403 817.341,-366.243"/>
<polygon fill="#9a32cd" stroke="#9a32cd" points="1040.48,-139.153 1044.89,-129.518 1035.44,-134.302 1040.48,-139.153"/>
<text text-anchor="middle" x="927" y="-291" font-family="FreeSans" font-size="10.00"> scene_</text>
</g>
<!-- Node14 -->
<g id="node29" class="node"><title>Node14</title>
<a xlink:href="class_urho3_d_1_1_scene_resolver.html" target="_top" xlink:title="Utility class that resolves node &amp; component IDs after a scene or partial scene load.">
<polygon fill="none" stroke="red" points="742.5,-69.5 742.5,-90.5 871.5,-90.5 871.5,-69.5 742.5,-69.5"/>
<text text-anchor="middle" x="807" y="-77.5" font-family="FreeSans" font-size="10.00">Urho3D::SceneResolver</text>
</a>
</g>
<!-- Node14&#45;&gt;Node13 -->
<g id="edge32" class="edge"><title>Node14&#45;&gt;Node13</title>
<path fill="none" stroke="#9a32cd" stroke-dasharray="5,2" d="M881.79,-82.473C907.951,-84.193 937.419,-87.0984 964,-92 984.744,-95.8253 1007.49,-102.575 1025.06,-108.369"/>
<polygon fill="#9a32cd" stroke="#9a32cd" points="881.757,-78.9645 871.562,-81.8488 881.33,-85.9515 881.757,-78.9645"/>
<text text-anchor="middle" x="927" y="-96" font-family="FreeSans" font-size="10.00"> resolver_</text>
</g>
<!-- Node15 -->
<g id="node31" class="node"><title>Node15</title>
<a xlink:href="class_urho3_d_1_1_hash_map.html" target="_top" xlink:title="Urho3D::HashMap\&lt; StringHash,\l Variant \&gt;">
<polygon fill="none" stroke="red" points="15,-101 15,-135 187,-135 187,-101 15,-101"/>
<text text-anchor="start" x="23" y="-122" font-family="FreeSans" font-size="10.00">Urho3D::HashMap&lt; StringHash,</text>
<text text-anchor="middle" x="101" y="-109" font-family="FreeSans" font-size="10.00"> Variant &gt;</text>
</a>
</g>
<!-- Node15&#45;&gt;Node5 -->
<g id="edge54" class="edge"><title>Node15&#45;&gt;Node5</title>
<path fill="none" stroke="#9a32cd" stroke-dasharray="5,2" d="M197.373,-111.546C247.5,-110.979 309.171,-114.707 362,-131 370.959,-133.763 371.223,-138.704 380,-142 525.221,-196.53 600.51,-107.123 724,-201 780.478,-243.934 800.148,-334.862 805.394,-366.153"/>
<polygon fill="#9a32cd" stroke="#9a32cd" points="197.122,-108.05 187.184,-111.722 197.243,-115.049 197.122,-108.05"/>
<text text-anchor="middle" x="482" y="-166" font-family="FreeSans" font-size="10.00"> vars_</text>
</g>
<!-- Node15&#45;&gt;Node13 -->
<g id="edge34" class="edge"><title>Node15&#45;&gt;Node13</title>
<path fill="none" stroke="#9a32cd" stroke-dasharray="5,2" d="M197.462,-107.218C251.131,-101.757 319.183,-95.7193 380,-93 470.576,-88.95 493.368,-90.5004 584,-93 666.171,-95.2663 909.104,-109.967 1010.14,-116.206"/>
<polygon fill="#9a32cd" stroke="#9a32cd" points="196.86,-103.761 187.271,-108.265 197.576,-110.724 196.86,-103.761"/>
<text text-anchor="middle" x="663" y="-104" font-family="FreeSans" font-size="10.00"> smoothingData_</text>
</g>
<!-- Node15&#45;&gt;Node22 -->
<g id="edge74" class="edge"><title>Node15&#45;&gt;Node22</title>
<path fill="none" stroke="#9a32cd" stroke-dasharray="5,2" d="M138.278,-140.264C161.121,-152.933 191.38,-168.02 220,-177 257.187,-188.667 359.988,-201.982 425.214,-209.647"/>
<polygon fill="#9a32cd" stroke="#9a32cd" points="139.711,-137.054 129.282,-135.187 136.27,-143.15 139.711,-137.054"/>
<text text-anchor="middle" x="291" y="-206" font-family="FreeSans" font-size="10.00"> identity_</text>
</g>
<!-- Node16 -->
<g id="node33" class="node"><title>Node16</title>
<a xlink:href="class_urho3_d_1_1_string.html" target="_top" xlink:title="String class.">
<polygon fill="none" stroke="black" points="57,-30.5 57,-51.5 145,-51.5 145,-30.5 57,-30.5"/>
<text text-anchor="middle" x="101" y="-38.5" font-family="FreeSans" font-size="10.00">Urho3D::String</text>
</a>
</g>
<!-- Node16&#45;&gt;Node1 -->
<g id="edge88" class="edge"><title>Node16&#45;&gt;Node1</title>
<path fill="none" stroke="#9a32cd" stroke-dasharray="5,2" d="M155.097,-31.4852C228.779,-19.373 364.929,-0 482,-0 482,-0 482,-0 1055,-0 1212.22,-0 1236.98,-637.39 1239.71,-728.268"/>
<polygon fill="#9a32cd" stroke="#9a32cd" points="154.414,-28.0506 145.123,-33.1433 155.562,-34.9559 154.414,-28.0506"/>
<text text-anchor="middle" x="807" y="-4" font-family="FreeSans" font-size="10.00"> name_</text>
</g>
<!-- Node16&#45;&gt;Node5 -->
<g id="edge56" class="edge"><title>Node16&#45;&gt;Node5</title>
<path fill="none" stroke="#9a32cd" stroke-dasharray="5,2" d="M155.83,-47.5812C299.826,-65.3059 680.647,-115.19 724,-152 792.396,-210.073 804.457,-329.815 806.561,-366.248"/>
<polygon fill="#9a32cd" stroke="#9a32cd" points="155.825,-44.0545 145.474,-46.3116 154.974,-51.0025 155.825,-44.0545"/>
<text text-anchor="middle" x="482" y="-116" font-family="FreeSans" font-size="10.00"> name_</text>
</g>
<!-- Node16&#45;&gt;Node13 -->
<g id="edge36" class="edge"><title>Node16&#45;&gt;Node13</title>
<path fill="none" stroke="#9a32cd" stroke-dasharray="5,2" d="M155.287,-38.8231C281.572,-34.5244 604.657,-27.9404 872,-60 913.546,-64.9822 924.144,-67.256 964,-80 988.394,-87.8 1015.22,-99.732 1033.38,-108.344"/>
<polygon fill="#9a32cd" stroke="#9a32cd" points="154.98,-35.3316 145.109,-39.1793 155.225,-42.3273 154.98,-35.3316"/>
<text text-anchor="middle" x="663" y="-50" font-family="FreeSans" font-size="10.00"> fileName_</text>
</g>
<!-- Node16&#45;&gt;Node16 -->
<g id="edge38" class="edge"><title>Node16&#45;&gt;Node16</title>
<path fill="none" stroke="#9a32cd" stroke-dasharray="5,2" d="M65.5287,-60.2987C66.986,-65.7807 78.8098,-70 101,-70 134.027,-70 144.09,-60.6531 131.189,-51.7079"/>
<polygon fill="#9a32cd" stroke="#9a32cd" points="68.5545,-62.0596 70.8109,-51.7079 62.5916,-58.3931 68.5545,-62.0596"/>
<text text-anchor="middle" x="101" y="-74" font-family="FreeSans" font-size="10.00"> EMPTY</text>
</g>
<!-- Node16&#45;&gt;Node22 -->
<g id="edge76" class="edge"><title>Node16&#45;&gt;Node22</title>
<path fill="none" stroke="#9a32cd" stroke-dasharray="5,2" d="M140.141,-54.9873C208.855,-79.8193 345.498,-130.54 362,-147 376.959,-161.921 363.996,-177.205 380,-191 392.636,-201.892 409.27,-208.192 425.429,-211.791"/>
<polygon fill="#9a32cd" stroke="#9a32cd" points="141.113,-51.6172 130.518,-51.5186 138.739,-58.2024 141.113,-51.6172"/>
<text text-anchor="middle" x="291" y="-164" font-family="FreeSans" font-size="10.00"> sceneFileName_</text>
<text text-anchor="middle" x="291" y="-151" font-family="FreeSans" font-size="10.00">address_</text>
</g>
<!-- Node17&#45;&gt;Node5 -->
<g id="edge42" class="edge"><title>Node17&#45;&gt;Node5</title>
<path fill="none" stroke="#9a32cd" stroke-dasharray="5,2" d="M559.501,-487.429C567.778,-485.284 576.067,-483.113 584,-481 592.023,-478.863 593.921,-477.914 602,-476 655.773,-463.262 674.594,-476.757 724,-452 755.948,-435.991 784.849,-404.25 798.578,-387.662"/>
<polygon fill="#9a32cd" stroke="#9a32cd" points="558.62,-484.042 549.813,-489.93 560.37,-490.82 558.62,-484.042"/>
<text text-anchor="middle" x="663" y="-480" font-family="FreeSans" font-size="10.00"> listeners_</text>
</g>
<!-- Node18 -->
<g id="node40" class="node"><title>Node18</title>
<a xlink:href="class_urho3_d_1_1_vector_buffer.html" target="_top" xlink:title="Dynamically sized buffer that can be read and written to as a stream.">
<polygon fill="none" stroke="red" points="41.5,-224.5 41.5,-245.5 160.5,-245.5 160.5,-224.5 41.5,-224.5"/>
<text text-anchor="middle" x="101" y="-232.5" font-family="FreeSans" font-size="10.00">Urho3D::VectorBuffer</text>
</a>
</g>
<!-- Node18&#45;&gt;Node5 -->
<g id="edge46" class="edge"><title>Node18&#45;&gt;Node5</title>
<path fill="none" stroke="#9a32cd" stroke-dasharray="5,2" d="M171.014,-241.717C187.101,-243.193 204.14,-244.701 220,-246 381.648,-259.243 425.069,-239.65 584,-272 648.456,-285.12 665.237,-290.443 724,-320 750.392,-333.275 778.11,-353.864 793.902,-366.324"/>
<polygon fill="#9a32cd" stroke="#9a32cd" points="170.882,-238.19 160.602,-240.755 170.238,-245.161 170.882,-238.19"/>
<text text-anchor="middle" x="482" y="-276" font-family="FreeSans" font-size="10.00"> attrBuffer_</text>
</g>
<!-- Node18&#45;&gt;Node22 -->
<g id="edge70" class="edge"><title>Node18&#45;&gt;Node22</title>
<path fill="none" stroke="#9a32cd" stroke-dasharray="5,2" d="M170.577,-231.53C243.747,-227.881 357.489,-222.209 425.372,-218.824"/>
<polygon fill="#9a32cd" stroke="#9a32cd" points="170.344,-228.037 160.531,-232.031 170.693,-235.029 170.344,-228.037"/>
<text text-anchor="middle" x="291" y="-233" font-family="FreeSans" font-size="10.00"> msg_</text>
</g>
<!-- Node19&#45;&gt;Node5 -->
<g id="edge48" class="edge"><title>Node19&#45;&gt;Node5</title>
<path fill="none" stroke="#9a32cd" stroke-dasharray="5,2" d="M593.871,-439.67C635.205,-432.7 682.158,-423.228 724,-411 745.224,-404.797 768.44,-395.015 784.908,-387.532"/>
<polygon fill="#9a32cd" stroke="#9a32cd" points="593.061,-436.257 583.767,-441.343 594.205,-443.163 593.061,-436.257"/>
<text text-anchor="middle" x="663" y="-442" font-family="FreeSans" font-size="10.00"> components_</text>
</g>
<!-- Node20 -->
<g id="node49" class="node"><title>Node20</title>
<a xlink:href="class_urho3_d_1_1_string_hash.html" target="_top" xlink:title="32&#45;bit hash value for a string.">
<polygon fill="none" stroke="black" points="425.5,-688.5 425.5,-709.5 538.5,-709.5 538.5,-688.5 425.5,-688.5"/>
<text text-anchor="middle" x="482" y="-696.5" font-family="FreeSans" font-size="10.00">Urho3D::StringHash</text>
</a>
</g>
<!-- Node20&#45;&gt;Node1 -->
<g id="edge90" class="edge"><title>Node20&#45;&gt;Node1</title>
<path fill="none" stroke="#9a32cd" stroke-dasharray="5,2" d="M548.738,-702.988C601.254,-706.092 676.288,-710.455 742,-714 910.777,-723.105 1111.79,-732.864 1197.69,-736.983"/>
<polygon fill="#9a32cd" stroke="#9a32cd" points="548.734,-699.481 538.544,-702.384 548.32,-706.469 548.734,-699.481"/>
<text text-anchor="middle" x="927" y="-729" font-family="FreeSans" font-size="10.00"> nameHash_</text>
</g>
<!-- Node20&#45;&gt;Node5 -->
<g id="edge60" class="edge"><title>Node20&#45;&gt;Node5</title>
<path fill="none" stroke="#9a32cd" stroke-dasharray="5,2" d="M548.746,-697.665C561.917,-694.406 574.564,-688.679 584,-679 617.357,-644.784 568.518,-607.094 602,-573 640.661,-533.632 680.238,-583.607 724,-550 779.483,-507.391 799.791,-418.273 805.298,-387.623"/>
<polygon fill="#9a32cd" stroke="#9a32cd" points="547.731,-694.299 538.617,-699.701 549.111,-701.162 547.731,-694.299"/>
<text text-anchor="middle" x="663" y="-577" font-family="FreeSans" font-size="10.00"> nameHash_</text>
</g>
<!-- Node20&#45;&gt;Node20 -->
<g id="edge62" class="edge"><title>Node20&#45;&gt;Node20</title>
<path fill="none" stroke="#9a32cd" stroke-dasharray="5,2" d="M448.508,-718.679C450.302,-723.975 461.467,-728 482,-728 513.289,-728 522.822,-718.653 510.6,-709.708"/>
<polygon fill="#9a32cd" stroke="#9a32cd" points="451.685,-720.163 453.4,-709.708 445.539,-716.812 451.685,-720.163"/>
<text text-anchor="middle" x="482" y="-732" font-family="FreeSans" font-size="10.00"> ZERO</text>
</g>
<!-- Node21&#45;&gt;Node5 -->
<g id="edge64" class="edge"><title>Node21&#45;&gt;Node5</title>
<path fill="none" stroke="#9a32cd" stroke-dasharray="5,2" d="M578.819,-395.254C640.499,-390.32 717.357,-384.171 764.272,-380.418"/>
<polygon fill="#9a32cd" stroke="#9a32cd" points="578.356,-391.78 568.667,-396.067 578.914,-398.758 578.356,-391.78"/>
<text text-anchor="middle" x="663" y="-398" font-family="FreeSans" font-size="10.00"> children_</text>
</g>
<!-- Node22&#45;&gt;Node5 -->
<g id="edge68" class="edge"><title>Node22&#45;&gt;Node5</title>
<path fill="none" stroke="#9a32cd" stroke-dasharray="5,2" d="M548.755,-205.779C600.475,-201.371 671.866,-203.271 724,-236 773.318,-266.962 796.874,-338.753 804.302,-366.128"/>
<polygon fill="#9a32cd" stroke="#9a32cd" points="548.308,-202.306 538.685,-206.738 548.971,-209.274 548.308,-202.306"/>
<text text-anchor="middle" x="663" y="-240" font-family="FreeSans" font-size="10.00"> owner_</text>
</g>
<!-- Node23 -->
<g id="node61" class="node"><title>Node23</title>
<a xlink:href="class_urho3_d_1_1_matrix3x4.html" target="_top" xlink:title="3x4 matrix for scene node transform calculations.">
<polygon fill="none" stroke="black" points="429,-604.5 429,-625.5 535,-625.5 535,-604.5 429,-604.5"/>
<text text-anchor="middle" x="482" y="-612.5" font-family="FreeSans" font-size="10.00">Urho3D::Matrix3x4</text>
</a>
</g>
<!-- Node23&#45;&gt;Node1 -->
<g id="edge92" class="edge"><title>Node23&#45;&gt;Node1</title>
<path fill="none" stroke="#9a32cd" stroke-dasharray="5,2" d="M544.983,-626.744C563.315,-629.823 583.41,-632.873 602,-635 834.72,-661.622 904.725,-597.179 1128,-668 1168.38,-680.808 1208.57,-711.883 1227.99,-728.35"/>
<polygon fill="#9a32cd" stroke="#9a32cd" points="545.448,-623.273 535.001,-625.036 544.267,-630.172 545.448,-623.273"/>
<text text-anchor="middle" x="927" y="-639" font-family="FreeSans" font-size="10.00"> offsetMatrix_</text>
</g>
<!-- Node23&#45;&gt;Node5 -->
<g id="edge78" class="edge"><title>Node23&#45;&gt;Node5</title>
<path fill="none" stroke="#9a32cd" stroke-dasharray="5,2" d="M544.863,-609.835C559.101,-606.06 573.188,-599.909 584,-590 602.339,-573.191 583.213,-553.307 602,-537 643.669,-500.83 678.655,-545.438 724,-514 770.622,-481.677 795.646,-413.872 803.888,-387.66"/>
<polygon fill="#9a32cd" stroke="#9a32cd" points="543.989,-606.444 535.021,-612.086 545.55,-613.268 543.989,-606.444"/>
<text text-anchor="middle" x="663" y="-541" font-family="FreeSans" font-size="10.00"> worldTransform_</text>
</g>
<!-- Node23&#45;&gt;Node23 -->
<g id="edge80" class="edge"><title>Node23&#45;&gt;Node23</title>
<path fill="none" stroke="#9a32cd" stroke-dasharray="5,2" d="M448.508,-634.679C450.302,-639.975 461.467,-644 482,-644 513.289,-644 522.822,-634.653 510.6,-625.708"/>
<polygon fill="#9a32cd" stroke="#9a32cd" points="451.685,-636.163 453.4,-625.708 445.539,-632.812 451.685,-636.163"/>
<text text-anchor="middle" x="482" y="-661" font-family="FreeSans" font-size="10.00"> IDENTITY</text>
<text text-anchor="middle" x="482" y="-648" font-family="FreeSans" font-size="10.00">ZERO</text>
</g>
<!-- Node24 -->
<g id="node64" class="node"><title>Node24</title>
<a xlink:href="struct_urho3_d_1_1_ref_count.html" target="_top" xlink:title="Reference count structure.">
<polygon fill="none" stroke="black" points="756,-683.5 756,-704.5 858,-704.5 858,-683.5 756,-683.5"/>
<text text-anchor="middle" x="807" y="-691.5" font-family="FreeSans" font-size="10.00">Urho3D::RefCount</text>
</a>
</g>
<!-- Node24&#45;&gt;Node4 -->
<g id="edge82" class="edge"><title>Node24&#45;&gt;Node4</title>
<path fill="none" stroke="#9a32cd" stroke-dasharray="5,2" d="M868.448,-694C902.792,-694 945.809,-694 981.878,-694"/>
<polygon fill="#9a32cd" stroke="#9a32cd" points="868.085,-690.5 858.085,-694 868.085,-697.5 868.085,-690.5"/>
<text text-anchor="middle" x="927" y="-698" font-family="FreeSans" font-size="10.00"> refCount_</text>
</g>
<!-- Node25&#45;&gt;Node1 -->
<g id="edge84" class="edge"><title>Node25&#45;&gt;Node1</title>
<path fill="none" stroke="#9a32cd" stroke-dasharray="5,2" d="M718.734,-902.514C819.879,-921.926 1036.45,-947.99 1180,-854 1217.68,-829.329 1233.11,-773.016 1238.05,-749.56"/>
<polygon fill="#9a32cd" stroke="#9a32cd" points="719.217,-899.042 708.729,-900.543 717.864,-905.91 719.217,-899.042"/>
<text text-anchor="middle" x="927" y="-925" font-family="FreeSans" font-size="10.00"> boundingBox_</text>
</g>
</g>
</svg>
        <g id="navigator" transform="translate(0 0)" fill="#404254">
                <rect fill="#f2f5e9" fill-opacity="0.5" stroke="#606060" stroke-width=".5" x="0" y="0" width="60" height="60"/>
                <use id="zoomplus" xlink:href="#zoomPlus" x="17" y="9" onmousedown="handleZoom(evt,'in')"/>
                <use id="zoomminus" xlink:href="#zoomMin" x="42" y="9" onmousedown="handleZoom(evt,'out')"/>
                <use id="reset" xlink:href="#resetDef" x="30" y="36" onmousedown="handleReset()"/>
                <g id="arrowUp" xlink:href="#dirArrow" transform="translate(30 24)" onmousedown="handlePan(0,-1)">
                  <use xlink:href="#rim" fill="#404040">
                        <set attributeName="fill" to="#808080" begin="arrowUp.mouseover" end="arrowUp.mouseout"/>
                  </use>
                  <path fill="none" stroke="white" stroke-width="1.5" d="M0,-3.0v7 M-2.5,-0.5L0,-3.0L2.5,-0.5"/>
                </g>
                <g id="arrowRight" xlink:href="#dirArrow" transform="rotate(90) translate(36 -43)" onmousedown="handlePan(1,0)">
                  <use xlink:href="#rim" fill="#404040">
                        <set attributeName="fill" to="#808080" begin="arrowRight.mouseover" end="arrowRight.mouseout"/>
                  </use>
                  <path fill="none" stroke="white" stroke-width="1.5" d="M0,-3.0v7 M-2.5,-0.5L0,-3.0L2.5,-0.5"/>
                </g>
                <g id="arrowDown" xlink:href="#dirArrow" transform="rotate(180) translate(-30 -48)" onmousedown="handlePan(0,1)">
                  <use xlink:href="#rim" fill="#404040">
                        <set attributeName="fill" to="#808080" begin="arrowDown.mouseover" end="arrowDown.mouseout"/>
                  </use>
                  <path fill="none" stroke="white" stroke-width="1.5" d="M0,-3.0v7 M-2.5,-0.5L0,-3.0L2.5,-0.5"/>
                </g>
                <g id="arrowLeft" xlink:href="#dirArrow" transform="rotate(270) translate(-36 17)" onmousedown="handlePan(-1,0)">
                  <use xlink:href="#rim" fill="#404040">
                        <set attributeName="fill" to="#808080" begin="arrowLeft.mouseover" end="arrowLeft.mouseout"/>
                  </use>
                  <path fill="none" stroke="white" stroke-width="1.5" d="M0,-3.0v7 M-2.5,-0.5L0,-3.0L2.5,-0.5"/>
                </g>
        </g>
        <svg viewBox="0 0 15 15" width="100%" height="30px" preserveAspectRatio="xMaxYMin meet">
         <g id="arrow_out" transform="scale(0.3 0.3)">
          <a xlink:href="struct_urho3_d_1_1_bone__coll__graph_org.svg" target="_base">
           <rect id="button" ry="5" rx="5" y="6" x="6" height="38" width="38"
                fill="#f2f5e9" fill-opacity="0.5" stroke="#606060" stroke-width="1.0"/>
           <path id="arrow"
             d="M 11.500037,31.436501 C 11.940474,20.09759 22.043105,11.32322 32.158766,21.979434 L 37.068811,17.246167 C 37.068811,17.246167 37.088388,32 37.088388,32 L 22.160133,31.978069 C 22.160133,31.978069 26.997745,27.140456 26.997745,27.140456 C 18.528582,18.264221 13.291696,25.230495 11.500037,31.436501 z"
             style="fill:#404040;"/>
          </a>
         </g>
        </svg>
</svg>
