<?xml version="1.0" encoding="UTF-8" standalone="no"?>
<!DOCTYPE svg PUBLIC "-//W3C//DTD SVG 1.1//EN"
 "http://www.w3.org/Graphics/SVG/1.1/DTD/svg11.dtd">
<!-- Generated by graphviz version 2.26.3 (20100126.1600)
 -->
<!-- Title: Urho3D::AnimationStateTrack Pages: 1 -->
<!--zoomable 1007 -->
<svg id="main" version="1.1" xmlns="http://www.w3.org/2000/svg" xmlns:xlink="http://www.w3.org/1999/xlink" xml:space="preserve" onload="init(evt)">
        <defs>
                <circle id="rim" cx="0" cy="0" r="7"/>
                <circle id="rim2" cx="0" cy="0" r="3.5"/>
                <g id="zoomPlus">
                        <use xlink:href="#rim" fill="#404040">
                                <set attributeName="fill" to="#808080" begin="zoomplus.mouseover" end="zoomplus.mouseout"/>
                        </use>
                        <path d="M-4,0h8M0,-4v8" fill="none" stroke="white" stroke-width="1.5" pointer-events="none"/>
                </g>
                <g id="zoomMin">
                        <use xlink:href="#rim" fill="#404040">
                                <set attributeName="fill" to="#808080" begin="zoomminus.mouseover" end="zoomminus.mouseout"/>
                        </use>
                        <path d="M-4,0h8" fill="none" stroke="white" stroke-width="1.5" pointer-events="none"/>
                </g>
                <g id="dirArrow">
                        <path fill="none" stroke="white" stroke-width="1.5" d="M0,-3.0v7 M-2.5,-0.5L0,-3.0L2.5,-0.5"/>
                </g>
               <g id="resetDef">
                       <use xlink:href="#rim2" fill="#404040">
                               <set attributeName="fill" to="#808080" begin="reset.mouseover" end="reset.mouseout"/>
                       </use>
               </g>
        </defs>

<script type="text/javascript">
var viewWidth = 1500;
var viewHeight = 1007;
var sectionId = 'dynsection-0';
</script>
<script xlink:href="svgpan.js"/>
<svg id="graph" class="graph">
<g id="viewport">
<title>Urho3D::AnimationStateTrack</title>
<!-- Node1 -->
<g id="node1" class="node"><title>Node1</title>
<polygon fill="#bfbfbf" stroke="black" points="1334,-173.5 1334,-194.5 1492,-194.5 1492,-173.5 1334,-173.5"/>
<text text-anchor="middle" x="1413" y="-181.5" font-family="FreeSans" font-size="10.00">Urho3D::AnimationStateTrack</text>
</g>
<!-- Node2 -->
<g id="node2" class="node"><title>Node2</title>
<a xlink:href="struct_urho3_d_1_1_bone.html" target="_top" xlink:title="Bone in a skeleton.">
<polygon fill="none" stroke="black" points="1180,-530.5 1180,-551.5 1264,-551.5 1264,-530.5 1180,-530.5"/>
<text text-anchor="middle" x="1222" y="-538.5" font-family="FreeSans" font-size="10.00">Urho3D::Bone</text>
</a>
</g>
<!-- Node2&#45;&gt;Node1 -->
<g id="edge2" class="edge"><title>Node2&#45;&gt;Node1</title>
<path fill="none" stroke="#9a32cd" stroke-dasharray="5,2" d="M1232.49,-521.385C1267.66,-455.66 1380.61,-244.542 1407.31,-194.643"/>
<polygon fill="#9a32cd" stroke="#9a32cd" points="1229.35,-519.847 1227.72,-530.316 1235.52,-523.149 1229.35,-519.847"/>
<text text-anchor="middle" x="1299" y="-430" font-family="FreeSans" font-size="10.00"> bone_</text>
</g>
<!-- Node3 -->
<g id="node4" class="node"><title>Node3</title>
<a xlink:href="class_urho3_d_1_1_quaternion.html" target="_top" xlink:title="Rotation represented as a four&#45;dimensional normalized vector.">
<polygon fill="none" stroke="black" points="405.5,-658.5 405.5,-679.5 518.5,-679.5 518.5,-658.5 405.5,-658.5"/>
<text text-anchor="middle" x="462" y="-666.5" font-family="FreeSans" font-size="10.00">Urho3D::Quaternion</text>
</a>
</g>
<!-- Node3&#45;&gt;Node2 -->
<g id="edge4" class="edge"><title>Node3&#45;&gt;Node2</title>
<path fill="none" stroke="#9a32cd" stroke-dasharray="5,2" d="M529.073,-667.975C577.802,-666.537 645.23,-663.114 704,-655 885.978,-629.874 1098.91,-574.676 1184.03,-551.536"/>
<polygon fill="#9a32cd" stroke="#9a32cd" points="528.868,-664.48 518.968,-668.253 529.06,-671.477 528.868,-664.48"/>
<text text-anchor="middle" x="909" y="-629" font-family="FreeSans" font-size="10.00"> initialRotation_</text>
</g>
<!-- Node3&#45;&gt;Node3 -->
<g id="edge6" class="edge"><title>Node3&#45;&gt;Node3</title>
<path fill="none" stroke="#9a32cd" stroke-dasharray="5,2" d="M428.508,-688.679C430.302,-693.975 441.467,-698 462,-698 493.289,-698 502.822,-688.653 490.6,-679.708"/>
<polygon fill="#9a32cd" stroke="#9a32cd" points="431.685,-690.163 433.4,-679.708 425.539,-686.812 431.685,-690.163"/>
<text text-anchor="middle" x="462" y="-702" font-family="FreeSans" font-size="10.00"> IDENTITY</text>
</g>
<!-- Node6 -->
<g id="node12" class="node"><title>Node6</title>
<a xlink:href="class_urho3_d_1_1_node.html" target="_top" xlink:title="Scene node that may contain components and child nodes.">
<polygon fill="none" stroke="black" points="745.5,-501.5 745.5,-522.5 830.5,-522.5 830.5,-501.5 745.5,-501.5"/>
<text text-anchor="middle" x="788" y="-509.5" font-family="FreeSans" font-size="10.00">Urho3D::Node</text>
</a>
</g>
<!-- Node3&#45;&gt;Node6 -->
<g id="edge36" class="edge"><title>Node3&#45;&gt;Node6</title>
<path fill="none" stroke="#9a32cd" stroke-dasharray="5,2" d="M528.403,-657.374C540.599,-653.953 552.955,-649.576 564,-644 573.296,-639.307 572.581,-633.441 582,-629 631.909,-605.471 655.95,-633.125 704,-606 740.783,-585.235 769.848,-542.352 781.925,-522.504"/>
<polygon fill="#9a32cd" stroke="#9a32cd" points="527.471,-654 518.683,-659.918 529.244,-660.772 527.471,-654"/>
<text text-anchor="middle" x="643" y="-646" font-family="FreeSans" font-size="10.00"> worldRotation_</text>
<text text-anchor="middle" x="643" y="-633" font-family="FreeSans" font-size="10.00">rotation_</text>
</g>
<!-- Node4 -->
<g id="node7" class="node"><title>Node4</title>
<a xlink:href="class_urho3_d_1_1_vector3.html" target="_top" xlink:title="Three&#45;dimensional vector.">
<polygon fill="none" stroke="black" points="53,-508.5 53,-529.5 149,-529.5 149,-508.5 53,-508.5"/>
<text text-anchor="middle" x="101" y="-516.5" font-family="FreeSans" font-size="10.00">Urho3D::Vector3</text>
</a>
</g>
<!-- Node4&#45;&gt;Node2 -->
<g id="edge8" class="edge"><title>Node4&#45;&gt;Node2</title>
<path fill="none" stroke="#9a32cd" stroke-dasharray="5,2" d="M131.963,-504.238C155.566,-493.614 189.156,-479.828 220,-472 377.092,-432.13 420.223,-437.796 582,-428 636.123,-424.723 650.09,-422.188 704,-428 888.174,-447.855 1102.9,-506.327 1186.33,-530.43"/>
<polygon fill="#9a32cd" stroke="#9a32cd" points="130.447,-501.082 122.809,-508.425 133.359,-507.448 130.447,-501.082"/>
<text text-anchor="middle" x="788" y="-468" font-family="FreeSans" font-size="10.00"> initialScale_</text>
<text text-anchor="middle" x="788" y="-455" font-family="FreeSans" font-size="10.00">initialPosition_</text>
</g>
<!-- Node4&#45;&gt;Node4 -->
<g id="edge10" class="edge"><title>Node4&#45;&gt;Node4</title>
<path fill="none" stroke="#9a32cd" stroke-dasharray="5,2" d="M67.5078,-538.679C69.3025,-543.975 80.4666,-548 101,-548 132.289,-548 141.822,-538.653 129.6,-529.708"/>
<polygon fill="#9a32cd" stroke="#9a32cd" points="70.6851,-540.163 72.3998,-529.708 64.5395,-536.812 70.6851,-540.163"/>
<text text-anchor="middle" x="101" y="-643" font-family="FreeSans" font-size="10.00"> ONE</text>
<text text-anchor="middle" x="101" y="-630" font-family="FreeSans" font-size="10.00">DOWN</text>
<text text-anchor="middle" x="101" y="-617" font-family="FreeSans" font-size="10.00">BACK</text>
<text text-anchor="middle" x="101" y="-604" font-family="FreeSans" font-size="10.00">RIGHT</text>
<text text-anchor="middle" x="101" y="-591" font-family="FreeSans" font-size="10.00">LEFT</text>
<text text-anchor="middle" x="101" y="-578" font-family="FreeSans" font-size="10.00">ZERO</text>
<text text-anchor="middle" x="101" y="-565" font-family="FreeSans" font-size="10.00">FORWARD</text>
<text text-anchor="middle" x="101" y="-552" font-family="FreeSans" font-size="10.00">UP</text>
</g>
<!-- Node4&#45;&gt;Node6 -->
<g id="edge48" class="edge"><title>Node4&#45;&gt;Node6</title>
<path fill="none" stroke="#9a32cd" stroke-dasharray="5,2" d="M159.194,-518.407C294.412,-517.029 627.269,-513.638 745.492,-512.433"/>
<polygon fill="#9a32cd" stroke="#9a32cd" points="158.999,-514.909 149.035,-518.511 159.071,-521.908 158.999,-514.909"/>
<text text-anchor="middle" x="462" y="-533" font-family="FreeSans" font-size="10.00"> scale_</text>
<text text-anchor="middle" x="462" y="-520" font-family="FreeSans" font-size="10.00">position_</text>
</g>
<!-- Node20 -->
<g id="node51" class="node"><title>Node20</title>
<a xlink:href="class_urho3_d_1_1_connection.html" target="_top" xlink:title="Connection to a remote network host.">
<polygon fill="none" stroke="red" points="405.5,-569.5 405.5,-590.5 518.5,-590.5 518.5,-569.5 405.5,-569.5"/>
<text text-anchor="middle" x="462" y="-577.5" font-family="FreeSans" font-size="10.00">Urho3D::Connection</text>
</a>
</g>
<!-- Node4&#45;&gt;Node20 -->
<g id="edge68" class="edge"><title>Node4&#45;&gt;Node20</title>
<path fill="none" stroke="#9a32cd" stroke-dasharray="5,2" d="M159.284,-525.877C208.226,-531.973 279.91,-541.654 342,-553 367.733,-557.702 396.316,-564.087 419.129,-569.467"/>
<polygon fill="#9a32cd" stroke="#9a32cd" points="159.55,-522.383 149.197,-524.631 158.692,-529.33 159.55,-522.383"/>
<text text-anchor="middle" x="281" y="-557" font-family="FreeSans" font-size="10.00"> position_</text>
</g>
<!-- Node23 -->
<g id="node62" class="node"><title>Node23</title>
<a xlink:href="class_urho3_d_1_1_bounding_box.html" target="_top" xlink:title="Three&#45;dimensional axis&#45;aligned bounding box.">
<polygon fill="none" stroke="black" points="582,-900.5 582,-921.5 704,-921.5 704,-900.5 582,-900.5"/>
<text text-anchor="middle" x="643" y="-908.5" font-family="FreeSans" font-size="10.00">Urho3D::BoundingBox</text>
</a>
</g>
<!-- Node4&#45;&gt;Node23 -->
<g id="edge82" class="edge"><title>Node4&#45;&gt;Node23</title>
<path fill="none" stroke="#9a32cd" stroke-dasharray="5,2" d="M117.657,-537.138C139.08,-559.258 178.5,-596.037 220,-615 270.113,-637.899 305.193,-596.001 342,-637 379.802,-679.107 319.984,-850.992 360,-891 390.042,-921.036 508.092,-919.675 581.906,-915.591"/>
<polygon fill="#9a32cd" stroke="#9a32cd" points="120.031,-534.555 110.608,-529.712 114.954,-539.374 120.031,-534.555"/>
<text text-anchor="middle" x="281" y="-654" font-family="FreeSans" font-size="10.00"> max_</text>
<text text-anchor="middle" x="281" y="-641" font-family="FreeSans" font-size="10.00">min_</text>
</g>
<!-- Node5 -->
<g id="node10" class="node"><title>Node5</title>
<a xlink:href="class_urho3_d_1_1_weak_ptr.html" target="_top" xlink:title="Urho3D::WeakPtr\&lt; Urho3D\l::Node \&gt;">
<polygon fill="none" stroke="black" points="964,-183 964,-217 1110,-217 1110,-183 964,-183"/>
<text text-anchor="start" x="972" y="-204" font-family="FreeSans" font-size="10.00">Urho3D::WeakPtr&lt; Urho3D</text>
<text text-anchor="middle" x="1037" y="-191" font-family="FreeSans" font-size="10.00">::Node &gt;</text>
</a>
</g>
<!-- Node5&#45;&gt;Node1 -->
<g id="edge90" class="edge"><title>Node5&#45;&gt;Node1</title>
<path fill="none" stroke="#9a32cd" stroke-dasharray="5,2" d="M1120.41,-196.451C1184.12,-193.74 1271.35,-190.028 1333.95,-187.364"/>
<polygon fill="#9a32cd" stroke="#9a32cd" points="1120.23,-192.955 1110.39,-196.877 1120.53,-199.949 1120.23,-192.955"/>
<text text-anchor="middle" x="1222" y="-198" font-family="FreeSans" font-size="10.00"> node_</text>
</g>
<!-- Node5&#45;&gt;Node2 -->
<g id="edge12" class="edge"><title>Node5&#45;&gt;Node2</title>
<path fill="none" stroke="#9a32cd" stroke-dasharray="5,2" d="M1120.39,-197.615C1135.84,-200.898 1150.65,-207.1 1162,-218 1208.39,-262.539 1219.61,-479.233 1221.62,-530.235"/>
<polygon fill="#9a32cd" stroke="#9a32cd" points="1120.64,-194.106 1110.19,-195.86 1119.45,-201.004 1120.64,-194.106"/>
<text text-anchor="middle" x="1145" y="-222" font-family="FreeSans" font-size="10.00"> node_</text>
</g>
<!-- Node6&#45;&gt;Node5 -->
<g id="edge14" class="edge"><title>Node6&#45;&gt;Node5</title>
<path fill="none" stroke="#9a32cd" stroke-dasharray="5,2" d="M806.549,-494.154C820.15,-480.771 838.814,-461.776 854,-444 923.477,-362.675 997.25,-257.772 1025.28,-217.134"/>
<polygon fill="#9a32cd" stroke="#9a32cd" points="803.904,-491.845 799.19,-501.333 808.792,-496.855 803.904,-491.845"/>
<text text-anchor="middle" x="909" y="-423" font-family="FreeSans" font-size="10.00"> ptr_</text>
</g>
<!-- Node6&#45;&gt;Node6 -->
<g id="edge54" class="edge"><title>Node6&#45;&gt;Node6</title>
<path fill="none" stroke="#9a32cd" stroke-dasharray="5,2" d="M765.885,-532.427C767.591,-537.349 774.963,-541 788,-541 808.859,-541 815.215,-531.653 807.067,-522.708"/>
<polygon fill="#9a32cd" stroke="#9a32cd" points="769.28,-533.297 768.933,-522.708 762.601,-531.202 769.28,-533.297"/>
<text text-anchor="middle" x="788" y="-545" font-family="FreeSans" font-size="10.00"> parent_</text>
</g>
<!-- Node12 -->
<g id="node24" class="node"><title>Node12</title>
<a xlink:href="class_urho3_d_1_1_scene.html" target="_top" xlink:title="Root scene node, represents the whole scene.">
<polygon fill="none" stroke="red" points="992.5,-725.5 992.5,-746.5 1081.5,-746.5 1081.5,-725.5 992.5,-725.5"/>
<text text-anchor="middle" x="1037" y="-733.5" font-family="FreeSans" font-size="10.00">Urho3D::Scene</text>
</a>
</g>
<!-- Node6&#45;&gt;Node12 -->
<g id="edge28" class="edge"><title>Node6&#45;&gt;Node12</title>
<path fill="none" stroke="midnightblue" d="M804.805,-530.291C821.213,-547.732 847.257,-574.329 872,-595 902.848,-620.772 915.086,-621.307 946,-647 977.441,-673.13 1010.96,-707.973 1027.14,-725.29"/>
<polygon fill="midnightblue" stroke="midnightblue" points="806.951,-527.459 797.572,-522.53 801.83,-532.232 806.951,-527.459"/>
</g>
<!-- Node7 -->
<g id="node14" class="node"><title>Node7</title>
<a xlink:href="class_urho3_d_1_1_animatable.html" target="_top" xlink:title="Base class for animatable object, an animatable object can be set animation on it&#39;s attributes...">
<polygon fill="none" stroke="red" points="405,-380.5 405,-401.5 519,-401.5 519,-380.5 405,-380.5"/>
<text text-anchor="middle" x="462" y="-388.5" font-family="FreeSans" font-size="10.00">Urho3D::Animatable</text>
</a>
</g>
<!-- Node7&#45;&gt;Node6 -->
<g id="edge16" class="edge"><title>Node7&#45;&gt;Node6</title>
<path fill="none" stroke="midnightblue" d="M485.312,-407.484C508.731,-423.331 546.363,-446.897 582,-461 633.728,-481.472 650.049,-475.429 704,-489 719.397,-492.873 736.294,-497.438 750.872,-501.476"/>
<polygon fill="midnightblue" stroke="midnightblue" points="487,-404.397 476.776,-401.621 483.038,-410.167 487,-404.397"/>
</g>
<!-- Node8 -->
<g id="node16" class="node"><title>Node8</title>
<a xlink:href="class_urho3_d_1_1_serializable.html" target="_top" xlink:title="Base class for objects with automatic serialization through attributes.">
<polygon fill="none" stroke="red" points="44,-316.5 44,-337.5 158,-337.5 158,-316.5 44,-316.5"/>
<text text-anchor="middle" x="101" y="-324.5" font-family="FreeSans" font-size="10.00">Urho3D::Serializable</text>
</a>
</g>
<!-- Node8&#45;&gt;Node7 -->
<g id="edge18" class="edge"><title>Node8&#45;&gt;Node7</title>
<path fill="none" stroke="midnightblue" d="M168.394,-338.948C236.488,-351.02 340.554,-369.469 404.768,-380.854"/>
<polygon fill="midnightblue" stroke="midnightblue" points="168.659,-335.44 158.202,-337.141 167.437,-342.333 168.659,-335.44"/>
</g>
<!-- Node9 -->
<g id="node18" class="node"><title>Node9</title>
<a xlink:href="class_urho3_d_1_1_hash_map.html" target="_top" xlink:title="Urho3D::HashMap\&lt; Urho3D\l::String, Urho3D::SharedPtr\l\&lt; Urho3D::AttributeAnimationInfo \&gt; \&gt;">
<polygon fill="none" stroke="red" points="0.5,-356.5 0.5,-403.5 201.5,-403.5 201.5,-356.5 0.5,-356.5"/>
<text text-anchor="start" x="8.5" y="-390.5" font-family="FreeSans" font-size="10.00">Urho3D::HashMap&lt; Urho3D</text>
<text text-anchor="start" x="8.5" y="-377.5" font-family="FreeSans" font-size="10.00">::String, Urho3D::SharedPtr</text>
<text text-anchor="middle" x="101" y="-364.5" font-family="FreeSans" font-size="10.00">&lt; Urho3D::AttributeAnimationInfo &gt; &gt;</text>
</a>
</g>
<!-- Node9&#45;&gt;Node7 -->
<g id="edge20" class="edge"><title>Node9&#45;&gt;Node7</title>
<path fill="none" stroke="#9a32cd" stroke-dasharray="5,2" d="M211.601,-378.629C252.579,-378.602 299.425,-379.141 342,-381 362.572,-381.898 385.079,-383.586 404.986,-385.322"/>
<polygon fill="#9a32cd" stroke="#9a32cd" points="211.583,-375.129 201.589,-378.646 211.596,-382.129 211.583,-375.129"/>
<text text-anchor="middle" x="281" y="-385" font-family="FreeSans" font-size="10.00"> attributeAnimationInfos_</text>
</g>
<!-- Node10 -->
<g id="node20" class="node"><title>Node10</title>
<a xlink:href="class_urho3_d_1_1_p_o_d_vector.html" target="_top" xlink:title="Urho3D::PODVector\&lt;\l Urho3D::Node * \&gt;">
<polygon fill="none" stroke="black" points="402.5,-328 402.5,-362 521.5,-362 521.5,-328 402.5,-328"/>
<text text-anchor="start" x="410.5" y="-349" font-family="FreeSans" font-size="10.00">Urho3D::PODVector&lt;</text>
<text text-anchor="middle" x="462" y="-336" font-family="FreeSans" font-size="10.00"> Urho3D::Node * &gt;</text>
</a>
</g>
<!-- Node10&#45;&gt;Node6 -->
<g id="edge22" class="edge"><title>Node10&#45;&gt;Node6</title>
<path fill="none" stroke="#9a32cd" stroke-dasharray="5,2" d="M531.537,-354.646C543.141,-358.44 554.482,-363.704 564,-371 576.951,-380.927 569.429,-392.597 582,-403 626.069,-439.469 653.865,-416.457 704,-444 733.271,-460.081 762.448,-486.675 777.51,-501.387"/>
<polygon fill="#9a32cd" stroke="#9a32cd" points="532.342,-351.235 521.762,-351.792 530.38,-357.954 532.342,-351.235"/>
<text text-anchor="middle" x="643" y="-448" font-family="FreeSans" font-size="10.00"> dependencyNodes_</text>
</g>
<!-- Node11 -->
<g id="node22" class="node"><title>Node11</title>
<a xlink:href="class_urho3_d_1_1_vector_base.html" target="_top" xlink:title="Vector base class.">
<polygon fill="none" stroke="black" points="44,-230.5 44,-251.5 158,-251.5 158,-230.5 44,-230.5"/>
<text text-anchor="middle" x="101" y="-238.5" font-family="FreeSans" font-size="10.00">Urho3D::VectorBase</text>
</a>
</g>
<!-- Node11&#45;&gt;Node10 -->
<g id="edge24" class="edge"><title>Node11&#45;&gt;Node10</title>
<path fill="none" stroke="midnightblue" d="M140.14,-254.807C163.263,-262.8 193.174,-272.858 220,-281 281.695,-299.724 297.649,-302.592 360,-319 373.697,-322.604 388.448,-326.409 402.361,-329.963"/>
<polygon fill="midnightblue" stroke="midnightblue" points="141.27,-251.494 130.675,-251.519 138.973,-258.106 141.27,-251.494"/>
</g>
<!-- Node15 -->
<g id="node33" class="node"><title>Node15</title>
<a xlink:href="class_urho3_d_1_1_vector.html" target="_top" xlink:title="Urho3D::Vector\&lt; Urho3D\l::WeakPtr\&lt; Urho3D::Component \&gt; \&gt;">
<polygon fill="none" stroke="black" points="365,-276 365,-310 559,-310 559,-276 365,-276"/>
<text text-anchor="start" x="373" y="-297" font-family="FreeSans" font-size="10.00">Urho3D::Vector&lt; Urho3D</text>
<text text-anchor="middle" x="462" y="-284" font-family="FreeSans" font-size="10.00">::WeakPtr&lt; Urho3D::Component &gt; &gt;</text>
</a>
</g>
<!-- Node11&#45;&gt;Node15 -->
<g id="edge40" class="edge"><title>Node11&#45;&gt;Node15</title>
<path fill="none" stroke="midnightblue" d="M168.249,-250.687C223.592,-258.659 302.769,-270.064 364.979,-279.025"/>
<polygon fill="midnightblue" stroke="midnightblue" points="168.598,-247.201 158.202,-249.24 167.6,-254.13 168.598,-247.201"/>
</g>
<!-- Node17 -->
<g id="node38" class="node"><title>Node17</title>
<a xlink:href="class_urho3_d_1_1_vector.html" target="_top" xlink:title="Urho3D::Vector\&lt; Urho3D\l::SharedPtr\&lt; Urho3D::Component \&gt; \&gt;">
<polygon fill="none" stroke="black" points="360.5,-224 360.5,-258 563.5,-258 563.5,-224 360.5,-224"/>
<text text-anchor="start" x="368.5" y="-245" font-family="FreeSans" font-size="10.00">Urho3D::Vector&lt; Urho3D</text>
<text text-anchor="middle" x="462" y="-232" font-family="FreeSans" font-size="10.00">::SharedPtr&lt; Urho3D::Component &gt; &gt;</text>
</a>
</g>
<!-- Node11&#45;&gt;Node17 -->
<g id="edge46" class="edge"><title>Node11&#45;&gt;Node17</title>
<path fill="none" stroke="midnightblue" d="M168.344,-241C222.313,-241 298.901,-241 360.329,-241"/>
<polygon fill="midnightblue" stroke="midnightblue" points="168.202,-237.5 158.202,-241 168.201,-244.5 168.202,-237.5"/>
</g>
<!-- Node19 -->
<g id="node48" class="node"><title>Node19</title>
<a xlink:href="class_urho3_d_1_1_vector.html" target="_top" xlink:title="Urho3D::Vector\&lt; Urho3D\l::SharedPtr\&lt; Urho3D::Node \&gt; \&gt;">
<polygon fill="none" stroke="black" points="375.5,-172 375.5,-206 548.5,-206 548.5,-172 375.5,-172"/>
<text text-anchor="start" x="383.5" y="-193" font-family="FreeSans" font-size="10.00">Urho3D::Vector&lt; Urho3D</text>
<text text-anchor="middle" x="462" y="-180" font-family="FreeSans" font-size="10.00">::SharedPtr&lt; Urho3D::Node &gt; &gt;</text>
</a>
</g>
<!-- Node11&#45;&gt;Node19 -->
<g id="edge62" class="edge"><title>Node11&#45;&gt;Node19</title>
<path fill="none" stroke="midnightblue" d="M168.441,-231.285C226.94,-222.859 311.96,-210.612 375.463,-201.465"/>
<polygon fill="midnightblue" stroke="midnightblue" points="167.6,-227.87 158.202,-232.76 168.598,-234.799 167.6,-227.87"/>
</g>
<!-- Node25 -->
<g id="node71" class="node"><title>Node25</title>
<a xlink:href="class_urho3_d_1_1_vector.html" target="_top" xlink:title="Urho3D::Vector\&lt; Urho3D\l::AnimationKeyFrame \&gt;">
<polygon fill="none" stroke="black" points="393,-0 393,-34 531,-34 531,-0 393,-0"/>
<text text-anchor="start" x="401" y="-21" font-family="FreeSans" font-size="10.00">Urho3D::Vector&lt; Urho3D</text>
<text text-anchor="middle" x="462" y="-8" font-family="FreeSans" font-size="10.00">::AnimationKeyFrame &gt;</text>
</a>
</g>
<!-- Node11&#45;&gt;Node25 -->
<g id="edge96" class="edge"><title>Node11&#45;&gt;Node25</title>
<path fill="none" stroke="midnightblue" d="M119.968,-223.137C160.767,-185.604 261.194,-97.9081 360,-48 370.656,-42.6178 382.417,-37.9798 394.05,-34.0527"/>
<polygon fill="midnightblue" stroke="midnightblue" points="117.357,-220.785 112.405,-230.151 122.117,-225.917 117.357,-220.785"/>
</g>
<!-- Node12&#45;&gt;Node6 -->
<g id="edge26" class="edge"><title>Node12&#45;&gt;Node6</title>
<path fill="none" stroke="#9a32cd" stroke-dasharray="5,2" d="M1029.62,-715.415C1017.08,-683.044 988.733,-620.018 946,-582 912.265,-551.987 863.588,-533.07 829.196,-522.575"/>
<polygon fill="#9a32cd" stroke="#9a32cd" points="1026.48,-717.003 1033.27,-725.138 1033.03,-714.545 1026.48,-717.003"/>
<text text-anchor="middle" x="909" y="-586" font-family="FreeSans" font-size="10.00"> scene_</text>
</g>
<!-- Node13 -->
<g id="node27" class="node"><title>Node13</title>
<a xlink:href="class_urho3_d_1_1_hash_map.html" target="_top" xlink:title="Urho3D::HashMap\&lt; StringHash,\l Variant \&gt;">
<polygon fill="none" stroke="red" points="15,-772 15,-806 187,-806 187,-772 15,-772"/>
<text text-anchor="start" x="23" y="-793" font-family="FreeSans" font-size="10.00">Urho3D::HashMap&lt; StringHash,</text>
<text text-anchor="middle" x="101" y="-780" font-family="FreeSans" font-size="10.00"> Variant &gt;</text>
</a>
</g>
<!-- Node13&#45;&gt;Node6 -->
<g id="edge50" class="edge"><title>Node13&#45;&gt;Node6</title>
<path fill="none" stroke="#9a32cd" stroke-dasharray="5,2" d="M197.329,-782.229C241.545,-778.501 294.575,-773.155 342,-766 441.635,-750.969 471.042,-758.882 564,-720 572.87,-716.29 573.494,-712.482 582,-708 633.695,-680.76 659.947,-697.388 704,-659 749.207,-619.606 775.706,-549.65 784.606,-522.855"/>
<polygon fill="#9a32cd" stroke="#9a32cd" points="196.841,-778.758 187.164,-783.071 197.419,-785.734 196.841,-778.758"/>
<text text-anchor="middle" x="462" y="-767" font-family="FreeSans" font-size="10.00"> vars_</text>
</g>
<!-- Node13&#45;&gt;Node12 -->
<g id="edge30" class="edge"><title>Node13&#45;&gt;Node12</title>
<path fill="none" stroke="#9a32cd" stroke-dasharray="5,2" d="M134.392,-811.584C182.023,-842.366 273.329,-896.163 360,-918 508.286,-955.361 553.645,-952.896 704,-925 817.291,-903.981 850.224,-896.06 946,-832 982.459,-807.614 1015.17,-766.178 1029.43,-746.708"/>
<polygon fill="#9a32cd" stroke="#9a32cd" points="136.304,-808.652 126.017,-806.117 132.478,-814.514 136.304,-808.652"/>
<text text-anchor="middle" x="643" y="-947" font-family="FreeSans" font-size="10.00"> smoothingData_</text>
</g>
<!-- Node13&#45;&gt;Node20 -->
<g id="edge70" class="edge"><title>Node13&#45;&gt;Node20</title>
<path fill="none" stroke="#9a32cd" stroke-dasharray="5,2" d="M175.817,-768.702C229.379,-750.469 299.304,-718.483 342,-667 360.317,-644.914 339.287,-624.857 360,-605 372.24,-593.266 389.048,-586.758 405.49,-583.228"/>
<polygon fill="#9a32cd" stroke="#9a32cd" points="174.409,-765.481 166.016,-771.948 176.61,-772.126 174.409,-765.481"/>
<text text-anchor="middle" x="281" y="-753" font-family="FreeSans" font-size="10.00"> identity_</text>
</g>
<!-- Node14 -->
<g id="node29" class="node"><title>Node14</title>
<a xlink:href="class_urho3_d_1_1_string.html" target="_top" xlink:title="String class.">
<polygon fill="none" stroke="black" points="57,-670.5 57,-691.5 145,-691.5 145,-670.5 57,-670.5"/>
<text text-anchor="middle" x="101" y="-678.5" font-family="FreeSans" font-size="10.00">Urho3D::String</text>
</a>
</g>
<!-- Node14&#45;&gt;Node2 -->
<g id="edge84" class="edge"><title>Node14&#45;&gt;Node2</title>
<path fill="none" stroke="#9a32cd" stroke-dasharray="5,2" d="M122.985,-697.881C143.781,-714.072 175.643,-739.466 202,-763 275.377,-828.518 273.947,-870.337 360,-918 473.16,-980.676 513.642,-986 643,-986 643,-986 643,-986 1037,-986 1117.48,-986 1125.17,-926.552 1162,-855 1190.51,-799.609 1215.16,-599.888 1220.79,-551.576"/>
<polygon fill="#9a32cd" stroke="#9a32cd" points="125.111,-695.1 115.063,-691.741 120.823,-700.633 125.111,-695.1"/>
<text text-anchor="middle" x="788" y="-990" font-family="FreeSans" font-size="10.00"> name_</text>
</g>
<!-- Node14&#45;&gt;Node6 -->
<g id="edge52" class="edge"><title>Node14&#45;&gt;Node6</title>
<path fill="none" stroke="#9a32cd" stroke-dasharray="5,2" d="M155.304,-682.709C216.541,-683.685 311.556,-682.04 342,-664 354.727,-656.458 347.64,-644.13 360,-636 424.737,-593.417 633.208,-610.507 704,-579 734.676,-565.347 763.742,-537.77 778.297,-522.599"/>
<polygon fill="#9a32cd" stroke="#9a32cd" points="155.098,-679.205 145.034,-682.516 154.966,-686.204 155.098,-679.205"/>
<text text-anchor="middle" x="462" y="-640" font-family="FreeSans" font-size="10.00"> name_</text>
</g>
<!-- Node14&#45;&gt;Node12 -->
<g id="edge32" class="edge"><title>Node14&#45;&gt;Node12</title>
<path fill="none" stroke="#9a32cd" stroke-dasharray="5,2" d="M132.347,-695.641C155.901,-705.881 189.258,-718.795 220,-725 369.478,-755.171 844.14,-742.423 992.347,-737.566"/>
<polygon fill="#9a32cd" stroke="#9a32cd" points="133.763,-692.44 123.203,-691.585 130.925,-698.839 133.763,-692.44"/>
<text text-anchor="middle" x="643" y="-748" font-family="FreeSans" font-size="10.00"> fileName_</text>
</g>
<!-- Node14&#45;&gt;Node14 -->
<g id="edge34" class="edge"><title>Node14&#45;&gt;Node14</title>
<path fill="none" stroke="#9a32cd" stroke-dasharray="5,2" d="M67.5078,-700.679C69.3025,-705.975 80.4666,-710 101,-710 132.289,-710 141.822,-700.653 129.6,-691.708"/>
<polygon fill="#9a32cd" stroke="#9a32cd" points="70.6851,-702.163 72.3998,-691.708 64.5395,-698.812 70.6851,-702.163"/>
<text text-anchor="middle" x="101" y="-714" font-family="FreeSans" font-size="10.00"> EMPTY</text>
</g>
<!-- Node14&#45;&gt;Node20 -->
<g id="edge72" class="edge"><title>Node14&#45;&gt;Node20</title>
<path fill="none" stroke="#9a32cd" stroke-dasharray="5,2" d="M155.443,-681.197C172.236,-678.608 189.561,-672.838 202,-661 225.894,-638.26 194.383,-609.779 220,-589 247.387,-566.786 342.793,-569.82 405.316,-574.552"/>
<polygon fill="#9a32cd" stroke="#9a32cd" points="154.622,-677.769 145.104,-682.423 155.447,-684.721 154.622,-677.769"/>
<text text-anchor="middle" x="281" y="-606" font-family="FreeSans" font-size="10.00"> sceneFileName_</text>
<text text-anchor="middle" x="281" y="-593" font-family="FreeSans" font-size="10.00">address_</text>
</g>
<!-- Node24 -->
<g id="node69" class="node"><title>Node24</title>
<a xlink:href="struct_urho3_d_1_1_animation_track.html" target="_top" xlink:title="Skeletal animation track, stores keyframes of a single bone.">
<polygon fill="none" stroke="black" points="722,-76.5 722,-97.5 854,-97.5 854,-76.5 722,-76.5"/>
<text text-anchor="middle" x="788" y="-84.5" font-family="FreeSans" font-size="10.00">Urho3D::AnimationTrack</text>
</a>
</g>
<!-- Node14&#45;&gt;Node24 -->
<g id="edge98" class="edge"><title>Node14&#45;&gt;Node24</title>
<path fill="none" stroke="#9a32cd" stroke-dasharray="5,2" d="M155.204,-682.479C172.509,-680.085 190.208,-674.109 202,-661 231.843,-627.823 195.101,-498.032 220,-461 254.05,-410.358 308.8,-449.204 342,-398 361.314,-368.213 334.2,-103.386 360,-79 411.783,-30.0564 626.116,-58.9209 730.44,-76.4924"/>
<polygon fill="#9a32cd" stroke="#9a32cd" points="154.705,-679.012 145.109,-683.502 155.411,-685.976 154.705,-679.012"/>
<text text-anchor="middle" x="462" y="-83" font-family="FreeSans" font-size="10.00"> name_</text>
</g>
<!-- Node15&#45;&gt;Node6 -->
<g id="edge38" class="edge"><title>Node15&#45;&gt;Node6</title>
<path fill="none" stroke="#9a32cd" stroke-dasharray="5,2" d="M559.904,-315.67C561.31,-316.731 562.678,-317.84 564,-319 580.195,-333.203 565.31,-350.383 582,-364 624.691,-398.831 662.729,-349.499 704,-386 724.218,-403.881 708.223,-420.79 722,-444 735.94,-467.484 759.553,-489.104 774.432,-501.404"/>
<polygon fill="#9a32cd" stroke="#9a32cd" points="561.729,-312.681 551.452,-310.107 557.88,-318.528 561.729,-312.681"/>
<text text-anchor="middle" x="643" y="-390" font-family="FreeSans" font-size="10.00"> listeners_</text>
</g>
<!-- Node16 -->
<g id="node36" class="node"><title>Node16</title>
<a xlink:href="class_urho3_d_1_1_vector_buffer.html" target="_top" xlink:title="Dynamically sized buffer that can be read and written to as a stream.">
<polygon fill="none" stroke="red" points="41.5,-445.5 41.5,-466.5 160.5,-466.5 160.5,-445.5 41.5,-445.5"/>
<text text-anchor="middle" x="101" y="-453.5" font-family="FreeSans" font-size="10.00">Urho3D::VectorBuffer</text>
</a>
</g>
<!-- Node16&#45;&gt;Node6 -->
<g id="edge42" class="edge"><title>Node16&#45;&gt;Node6</title>
<path fill="none" stroke="#9a32cd" stroke-dasharray="5,2" d="M170.989,-455.734C219.129,-455.972 284.502,-457.125 342,-461 419.953,-466.254 649.38,-494.562 745.194,-506.589"/>
<polygon fill="#9a32cd" stroke="#9a32cd" points="171.001,-452.234 160.988,-455.696 170.974,-459.234 171.001,-452.234"/>
<text text-anchor="middle" x="462" y="-488" font-family="FreeSans" font-size="10.00"> attrBuffer_</text>
</g>
<!-- Node16&#45;&gt;Node20 -->
<g id="edge66" class="edge"><title>Node16&#45;&gt;Node20</title>
<path fill="none" stroke="#9a32cd" stroke-dasharray="5,2" d="M170.795,-458.082C223.146,-463.039 293.791,-477.36 342,-517 356.435,-528.869 345.521,-543.186 360,-555 372.785,-565.432 389.277,-571.612 405.259,-575.243"/>
<polygon fill="#9a32cd" stroke="#9a32cd" points="170.843,-454.573 160.581,-457.21 170.248,-461.548 170.843,-454.573"/>
<text text-anchor="middle" x="281" y="-521" font-family="FreeSans" font-size="10.00"> msg_</text>
</g>
<!-- Node17&#45;&gt;Node6 -->
<g id="edge44" class="edge"><title>Node17&#45;&gt;Node6</title>
<path fill="none" stroke="#9a32cd" stroke-dasharray="5,2" d="M561.03,-264.313C562.047,-265.178 563.038,-266.073 564,-267 584.357,-286.611 560.734,-309.379 582,-328 623.286,-364.15 664.639,-308.763 704,-347 735.451,-377.552 701.87,-405.047 722,-444 734.462,-468.116 758.278,-489.393 773.634,-501.473"/>
<polygon fill="#9a32cd" stroke="#9a32cd" points="562.908,-261.349 552.771,-258.267 558.773,-266.998 562.908,-261.349"/>
<text text-anchor="middle" x="643" y="-351" font-family="FreeSans" font-size="10.00"> components_</text>
</g>
<!-- Node18 -->
<g id="node45" class="node"><title>Node18</title>
<a xlink:href="class_urho3_d_1_1_string_hash.html" target="_top" xlink:title="32&#45;bit hash value for a string.">
<polygon fill="none" stroke="black" points="405.5,-101.5 405.5,-122.5 518.5,-122.5 518.5,-101.5 405.5,-101.5"/>
<text text-anchor="middle" x="462" y="-109.5" font-family="FreeSans" font-size="10.00">Urho3D::StringHash</text>
</a>
</g>
<!-- Node18&#45;&gt;Node2 -->
<g id="edge86" class="edge"><title>Node18&#45;&gt;Node2</title>
<path fill="none" stroke="#9a32cd" stroke-dasharray="5,2" d="M496.802,-126.526C546.655,-147.318 641.295,-186.731 722,-220 917.34,-300.526 1011.56,-251.648 1162,-400 1200.45,-437.919 1215.65,-504.361 1220.29,-530.248"/>
<polygon fill="#9a32cd" stroke="#9a32cd" points="498.022,-123.243 487.446,-122.623 495.327,-129.703 498.022,-123.243"/>
<text text-anchor="middle" x="909" y="-285" font-family="FreeSans" font-size="10.00"> nameHash_</text>
</g>
<!-- Node18&#45;&gt;Node6 -->
<g id="edge56" class="edge"><title>Node18&#45;&gt;Node6</title>
<path fill="none" stroke="#9a32cd" stroke-dasharray="5,2" d="M511.555,-126.209C530.659,-134.089 550.997,-145.865 564,-163 589.451,-196.537 551.689,-226.782 582,-256 621.508,-294.085 666.147,-235.27 704,-275 730.052,-302.344 705.972,-409.802 722,-444 733.451,-468.431 757.317,-489.467 772.991,-501.431"/>
<polygon fill="#9a32cd" stroke="#9a32cd" points="512.609,-122.864 502.019,-122.541 510.096,-129.397 512.609,-122.864"/>
<text text-anchor="middle" x="643" y="-279" font-family="FreeSans" font-size="10.00"> nameHash_</text>
</g>
<!-- Node18&#45;&gt;Node18 -->
<g id="edge58" class="edge"><title>Node18&#45;&gt;Node18</title>
<path fill="none" stroke="#9a32cd" stroke-dasharray="5,2" d="M428.508,-131.679C430.302,-136.975 441.467,-141 462,-141 493.289,-141 502.822,-131.653 490.6,-122.708"/>
<polygon fill="#9a32cd" stroke="#9a32cd" points="431.685,-133.163 433.4,-122.708 425.539,-129.812 431.685,-133.163"/>
<text text-anchor="middle" x="462" y="-145" font-family="FreeSans" font-size="10.00"> ZERO</text>
</g>
<!-- Node18&#45;&gt;Node24 -->
<g id="edge100" class="edge"><title>Node18&#45;&gt;Node24</title>
<path fill="none" stroke="#9a32cd" stroke-dasharray="5,2" d="M529.025,-106.86C585.411,-102.536 665.595,-96.3869 721.759,-92.0798"/>
<polygon fill="#9a32cd" stroke="#9a32cd" points="528.488,-103.391 518.785,-107.645 529.023,-110.37 528.488,-103.391"/>
<text text-anchor="middle" x="643" y="-107" font-family="FreeSans" font-size="10.00"> nameHash_</text>
</g>
<!-- Node19&#45;&gt;Node6 -->
<g id="edge60" class="edge"><title>Node19&#45;&gt;Node6</title>
<path fill="none" stroke="#9a32cd" stroke-dasharray="5,2" d="M557.282,-209.067C559.653,-210.886 561.901,-212.859 564,-215 588.602,-240.098 556.233,-268.1 582,-292 622.233,-329.318 665.586,-271.811 704,-311 745.756,-353.598 695.92,-390.353 722,-444 733.796,-468.266 757.565,-489.348 773.125,-501.367"/>
<polygon fill="#9a32cd" stroke="#9a32cd" points="559.065,-206.051 548.791,-203.463 555.209,-211.893 559.065,-206.051"/>
<text text-anchor="middle" x="643" y="-315" font-family="FreeSans" font-size="10.00"> children_</text>
</g>
<!-- Node20&#45;&gt;Node6 -->
<g id="edge64" class="edge"><title>Node20&#45;&gt;Node6</title>
<path fill="none" stroke="#9a32cd" stroke-dasharray="5,2" d="M528.837,-571.303C577.724,-564.307 645.448,-553.292 704,-539 722.453,-534.496 742.737,-528.02 758.75,-522.54"/>
<polygon fill="#9a32cd" stroke="#9a32cd" points="528.113,-567.871 518.701,-572.735 529.092,-574.802 528.113,-567.871"/>
<text text-anchor="middle" x="643" y="-566" font-family="FreeSans" font-size="10.00"> owner_</text>
</g>
<!-- Node21 -->
<g id="node57" class="node"><title>Node21</title>
<a xlink:href="class_urho3_d_1_1_matrix3x4.html" target="_top" xlink:title="3x4 matrix for scene node transform calculations.">
<polygon fill="none" stroke="black" points="409,-816.5 409,-837.5 515,-837.5 515,-816.5 409,-816.5"/>
<text text-anchor="middle" x="462" y="-824.5" font-family="FreeSans" font-size="10.00">Urho3D::Matrix3x4</text>
</a>
</g>
<!-- Node21&#45;&gt;Node2 -->
<g id="edge88" class="edge"><title>Node21&#45;&gt;Node2</title>
<path fill="none" stroke="#9a32cd" stroke-dasharray="5,2" d="M525.172,-838.251C649.257,-856.739 928.503,-880.126 1110,-756 1184.86,-704.8 1213.05,-587.446 1220.1,-551.596"/>
<polygon fill="#9a32cd" stroke="#9a32cd" points="525.495,-834.759 515.081,-836.706 524.436,-841.679 525.495,-834.759"/>
<text text-anchor="middle" x="909" y="-845" font-family="FreeSans" font-size="10.00"> offsetMatrix_</text>
</g>
<!-- Node21&#45;&gt;Node6 -->
<g id="edge74" class="edge"><title>Node21&#45;&gt;Node6</title>
<path fill="none" stroke="#9a32cd" stroke-dasharray="5,2" d="M525.068,-822.612C539.437,-818.832 553.534,-812.484 564,-802 587.913,-778.045 557.449,-751.3 582,-728 622.023,-690.017 660.865,-739.408 704,-705 764.564,-656.691 782.425,-556.036 786.776,-522.863"/>
<polygon fill="#9a32cd" stroke="#9a32cd" points="524.112,-819.239 515.118,-824.839 525.641,-826.07 524.112,-819.239"/>
<text text-anchor="middle" x="643" y="-732" font-family="FreeSans" font-size="10.00"> worldTransform_</text>
</g>
<!-- Node21&#45;&gt;Node21 -->
<g id="edge76" class="edge"><title>Node21&#45;&gt;Node21</title>
<path fill="none" stroke="#9a32cd" stroke-dasharray="5,2" d="M428.508,-846.679C430.302,-851.975 441.467,-856 462,-856 493.289,-856 502.822,-846.653 490.6,-837.708"/>
<polygon fill="#9a32cd" stroke="#9a32cd" points="431.685,-848.163 433.4,-837.708 425.539,-844.812 431.685,-848.163"/>
<text text-anchor="middle" x="462" y="-873" font-family="FreeSans" font-size="10.00"> IDENTITY</text>
<text text-anchor="middle" x="462" y="-860" font-family="FreeSans" font-size="10.00">ZERO</text>
</g>
<!-- Node22 -->
<g id="node60" class="node"><title>Node22</title>
<a xlink:href="struct_urho3_d_1_1_ref_count.html" target="_top" xlink:title="Reference count structure.">
<polygon fill="none" stroke="black" points="737,-189.5 737,-210.5 839,-210.5 839,-189.5 737,-189.5"/>
<text text-anchor="middle" x="788" y="-197.5" font-family="FreeSans" font-size="10.00">Urho3D::RefCount</text>
</a>
</g>
<!-- Node22&#45;&gt;Node5 -->
<g id="edge78" class="edge"><title>Node22&#45;&gt;Node5</title>
<path fill="none" stroke="#9a32cd" stroke-dasharray="5,2" d="M849.696,-200C884.178,-200 927.369,-200 963.583,-200"/>
<polygon fill="#9a32cd" stroke="#9a32cd" points="849.291,-196.5 839.291,-200 849.291,-203.5 849.291,-196.5"/>
<text text-anchor="middle" x="909" y="-204" font-family="FreeSans" font-size="10.00"> refCount_</text>
</g>
<!-- Node23&#45;&gt;Node2 -->
<g id="edge80" class="edge"><title>Node23&#45;&gt;Node2</title>
<path fill="none" stroke="#9a32cd" stroke-dasharray="5,2" d="M714.216,-922.659C825.504,-936.477 1040.46,-944.766 1162,-829 1203.42,-789.549 1218.29,-598.637 1221.36,-551.526"/>
<polygon fill="#9a32cd" stroke="#9a32cd" points="714.468,-919.163 704.102,-921.353 713.571,-926.105 714.468,-919.163"/>
<text text-anchor="middle" x="909" y="-933" font-family="FreeSans" font-size="10.00"> boundingBox_</text>
</g>
<!-- Node24&#45;&gt;Node1 -->
<g id="edge92" class="edge"><title>Node24&#45;&gt;Node1</title>
<path fill="none" stroke="#9a32cd" stroke-dasharray="5,2" d="M864.388,-98.8555C987.432,-117.952 1227.57,-155.221 1345.02,-173.45"/>
<polygon fill="#9a32cd" stroke="#9a32cd" points="864.713,-95.364 854.294,-97.2889 863.639,-102.281 864.713,-95.364"/>
<text text-anchor="middle" x="1145" y="-149" font-family="FreeSans" font-size="10.00"> track_</text>
</g>
<!-- Node25&#45;&gt;Node24 -->
<g id="edge94" class="edge"><title>Node25&#45;&gt;Node24</title>
<path fill="none" stroke="#9a32cd" stroke-dasharray="5,2" d="M541.188,-18.0572C589.186,-20.5161 651.153,-26.9547 704,-43 729.204,-50.6525 755.716,-65.9269 772.055,-76.3065"/>
<polygon fill="#9a32cd" stroke="#9a32cd" points="541.318,-14.5596 531.167,-17.5909 540.993,-21.552 541.318,-14.5596"/>
<text text-anchor="middle" x="643" y="-47" font-family="FreeSans" font-size="10.00"> keyFrames_</text>
</g>
</g>
</svg>
        <g id="navigator" transform="translate(0 0)" fill="#404254">
                <rect fill="#f2f5e9" fill-opacity="0.5" stroke="#606060" stroke-width=".5" x="0" y="0" width="60" height="60"/>
                <use id="zoomplus" xlink:href="#zoomPlus" x="17" y="9" onmousedown="handleZoom(evt,'in')"/>
                <use id="zoomminus" xlink:href="#zoomMin" x="42" y="9" onmousedown="handleZoom(evt,'out')"/>
                <use id="reset" xlink:href="#resetDef" x="30" y="36" onmousedown="handleReset()"/>
                <g id="arrowUp" xlink:href="#dirArrow" transform="translate(30 24)" onmousedown="handlePan(0,-1)">
                  <use xlink:href="#rim" fill="#404040">
                        <set attributeName="fill" to="#808080" begin="arrowUp.mouseover" end="arrowUp.mouseout"/>
                  </use>
                  <path fill="none" stroke="white" stroke-width="1.5" d="M0,-3.0v7 M-2.5,-0.5L0,-3.0L2.5,-0.5"/>
                </g>
                <g id="arrowRight" xlink:href="#dirArrow" transform="rotate(90) translate(36 -43)" onmousedown="handlePan(1,0)">
                  <use xlink:href="#rim" fill="#404040">
                        <set attributeName="fill" to="#808080" begin="arrowRight.mouseover" end="arrowRight.mouseout"/>
                  </use>
                  <path fill="none" stroke="white" stroke-width="1.5" d="M0,-3.0v7 M-2.5,-0.5L0,-3.0L2.5,-0.5"/>
                </g>
                <g id="arrowDown" xlink:href="#dirArrow" transform="rotate(180) translate(-30 -48)" onmousedown="handlePan(0,1)">
                  <use xlink:href="#rim" fill="#404040">
                        <set attributeName="fill" to="#808080" begin="arrowDown.mouseover" end="arrowDown.mouseout"/>
                  </use>
                  <path fill="none" stroke="white" stroke-width="1.5" d="M0,-3.0v7 M-2.5,-0.5L0,-3.0L2.5,-0.5"/>
                </g>
                <g id="arrowLeft" xlink:href="#dirArrow" transform="rotate(270) translate(-36 17)" onmousedown="handlePan(-1,0)">
                  <use xlink:href="#rim" fill="#404040">
                        <set attributeName="fill" to="#808080" begin="arrowLeft.mouseover" end="arrowLeft.mouseout"/>
                  </use>
                  <path fill="none" stroke="white" stroke-width="1.5" d="M0,-3.0v7 M-2.5,-0.5L0,-3.0L2.5,-0.5"/>
                </g>
        </g>
        <svg viewBox="0 0 15 15" width="100%" height="30px" preserveAspectRatio="xMaxYMin meet">
         <g id="arrow_out" transform="scale(0.3 0.3)">
          <a xlink:href="struct_urho3_d_1_1_animation_state_track__coll__graph_org.svg" target="_base">
           <rect id="button" ry="5" rx="5" y="6" x="6" height="38" width="38"
                fill="#f2f5e9" fill-opacity="0.5" stroke="#606060" stroke-width="1.0"/>
           <path id="arrow"
             d="M 11.500037,31.436501 C 11.940474,20.09759 22.043105,11.32322 32.158766,21.979434 L 37.068811,17.246167 C 37.068811,17.246167 37.088388,32 37.088388,32 L 22.160133,31.978069 C 22.160133,31.978069 26.997745,27.140456 26.997745,27.140456 C 18.528582,18.264221 13.291696,25.230495 11.500037,31.436501 z"
             style="fill:#404040;"/>
          </a>
         </g>
        </svg>
</svg>
