<?xml version="1.0" encoding="UTF-8" standalone="no"?>
<!DOCTYPE svg PUBLIC "-//W3C//DTD SVG 1.1//EN"
 "http://www.w3.org/Graphics/SVG/1.1/DTD/svg11.dtd">
<!-- Generated by graphviz version 2.26.3 (20100126.1600)
 -->
<!-- Title: Urho3D::OctreeQueryResult Pages: 1 -->
<!--zoomable 1019 -->
<svg id="main" version="1.1" xmlns="http://www.w3.org/2000/svg" xmlns:xlink="http://www.w3.org/1999/xlink" xml:space="preserve" onload="init(evt)">
        <defs>
                <circle id="rim" cx="0" cy="0" r="7"/>
                <circle id="rim2" cx="0" cy="0" r="3.5"/>
                <g id="zoomPlus">
                        <use xlink:href="#rim" fill="#404040">
                                <set attributeName="fill" to="#808080" begin="zoomplus.mouseover" end="zoomplus.mouseout"/>
                        </use>
                        <path d="M-4,0h8M0,-4v8" fill="none" stroke="white" stroke-width="1.5" pointer-events="none"/>
                </g>
                <g id="zoomMin">
                        <use xlink:href="#rim" fill="#404040">
                                <set attributeName="fill" to="#808080" begin="zoomminus.mouseover" end="zoomminus.mouseout"/>
                        </use>
                        <path d="M-4,0h8" fill="none" stroke="white" stroke-width="1.5" pointer-events="none"/>
                </g>
                <g id="dirArrow">
                        <path fill="none" stroke="white" stroke-width="1.5" d="M0,-3.0v7 M-2.5,-0.5L0,-3.0L2.5,-0.5"/>
                </g>
               <g id="resetDef">
                       <use xlink:href="#rim2" fill="#404040">
                               <set attributeName="fill" to="#808080" begin="reset.mouseover" end="reset.mouseout"/>
                       </use>
               </g>
        </defs>

<script type="text/javascript">
var viewWidth = 1532;
var viewHeight = 1019;
var sectionId = 'dynsection-0';
</script>
<script xlink:href="svgpan.js"/>
<svg id="graph" class="graph">
<g id="viewport">
<title>Urho3D::OctreeQueryResult</title>
<!-- Node1 -->
<g id="node1" class="node"><title>Node1</title>
<polygon fill="#bfbfbf" stroke="black" points="1374.5,-545.765 1374.5,-566.765 1523.5,-566.765 1523.5,-545.765 1374.5,-545.765"/>
<text text-anchor="middle" x="1449" y="-553.765" font-family="FreeSans" font-size="10.00">Urho3D::OctreeQueryResult</text>
</g>
<!-- Node2 -->
<g id="node2" class="node"><title>Node2</title>
<a xlink:href="class_urho3_d_1_1_drawable.html" target="_top" xlink:title="Base class for visible components.">
<polygon fill="none" stroke="black" points="1182,-776.765 1182,-797.765 1286,-797.765 1286,-776.765 1182,-776.765"/>
<text text-anchor="middle" x="1234" y="-784.765" font-family="FreeSans" font-size="10.00">Urho3D::Drawable</text>
</a>
</g>
<!-- Node2&#45;&gt;Node1 -->
<g id="edge2" class="edge"><title>Node2&#45;&gt;Node1</title>
<path fill="none" stroke="#9a32cd" stroke-dasharray="5,2" d="M1250.7,-769.327C1293.34,-723.513 1405.27,-603.251 1439.15,-566.853"/>
<polygon fill="#9a32cd" stroke="#9a32cd" points="1248.05,-767.035 1243.8,-776.74 1253.17,-771.804 1248.05,-767.035"/>
<text text-anchor="middle" x="1330" y="-709.265" font-family="FreeSans" font-size="10.00"> drawable_</text>
</g>
<!-- Node20 -->
<g id="node52" class="node"><title>Node20</title>
<a xlink:href="class_urho3_d_1_1_zone.html" target="_top" xlink:title="Component that describes global rendering properties.">
<polygon fill="none" stroke="red" points="1406.5,-905.765 1406.5,-926.765 1491.5,-926.765 1491.5,-905.765 1406.5,-905.765"/>
<text text-anchor="middle" x="1449" y="-913.765" font-family="FreeSans" font-size="10.00">Urho3D::Zone</text>
</a>
</g>
<!-- Node2&#45;&gt;Node20 -->
<g id="edge68" class="edge"><title>Node2&#45;&gt;Node20</title>
<path fill="none" stroke="midnightblue" d="M1244.38,-806.839C1256.16,-827.186 1277.27,-858.494 1304,-876.265 1334.77,-896.724 1375.83,-906.787 1406.39,-911.696"/>
<polygon fill="midnightblue" stroke="midnightblue" points="1247.28,-804.867 1239.36,-797.838 1241.17,-808.277 1247.28,-804.867"/>
</g>
<!-- Node24 -->
<g id="node63" class="node"><title>Node24</title>
<a xlink:href="class_urho3_d_1_1_light.html" target="_top" xlink:title="Light component.">
<polygon fill="none" stroke="red" points="1407.5,-743.765 1407.5,-764.765 1490.5,-764.765 1490.5,-743.765 1407.5,-743.765"/>
<text text-anchor="middle" x="1449" y="-751.765" font-family="FreeSans" font-size="10.00">Urho3D::Light</text>
</a>
</g>
<!-- Node2&#45;&gt;Node24 -->
<g id="edge82" class="edge"><title>Node2&#45;&gt;Node24</title>
<path fill="none" stroke="midnightblue" d="M1278.07,-774.091C1286.62,-771.883 1295.54,-769.81 1304,-768.265 1338.58,-761.949 1378.36,-758.365 1407.49,-756.407"/>
<polygon fill="midnightblue" stroke="midnightblue" points="1277.02,-770.75 1268.27,-776.723 1278.84,-777.51 1277.02,-770.75"/>
</g>
<!-- Node3 -->
<g id="node4" class="node"><title>Node3</title>
<a xlink:href="class_urho3_d_1_1_component.html" target="_top" xlink:title="Base class for components. Components can be created to scene nodes.">
<polygon fill="none" stroke="black" points="897,-582.765 897,-603.765 1013,-603.765 1013,-582.765 897,-582.765"/>
<text text-anchor="middle" x="955" y="-590.765" font-family="FreeSans" font-size="10.00">Urho3D::Component</text>
</a>
</g>
<!-- Node3&#45;&gt;Node2 -->
<g id="edge4" class="edge"><title>Node3&#45;&gt;Node2</title>
<path fill="none" stroke="midnightblue" d="M1001.6,-607.1C1011.14,-610.403 1021.01,-614.171 1030,-618.265 1092.92,-646.911 1112.08,-651.615 1164,-697.265 1191.8,-721.707 1216.34,-758.464 1227.54,-776.502"/>
<polygon fill="midnightblue" stroke="midnightblue" points="1002.43,-603.686 991.834,-603.834 1000.21,-610.324 1002.43,-603.686"/>
</g>
<!-- Node4 -->
<g id="node6" class="node"><title>Node4</title>
<a xlink:href="class_urho3_d_1_1_animatable.html" target="_top" xlink:title="Base class for animatable object, an animatable object can be set animation on it&#39;s attributes...">
<polygon fill="none" stroke="red" points="335,-683.765 335,-704.765 449,-704.765 449,-683.765 335,-683.765"/>
<text text-anchor="middle" x="392" y="-691.765" font-family="FreeSans" font-size="10.00">Urho3D::Animatable</text>
</a>
</g>
<!-- Node4&#45;&gt;Node3 -->
<g id="edge6" class="edge"><title>Node4&#45;&gt;Node3</title>
<path fill="none" stroke="midnightblue" d="M459.455,-682.212C502.525,-674.512 559.548,-664.312 610,-655.265 710.782,-637.195 828.112,-616.096 896.707,-603.756"/>
<polygon fill="midnightblue" stroke="midnightblue" points="458.604,-678.808 449.376,-684.014 459.836,-685.699 458.604,-678.808"/>
</g>
<!-- Node5 -->
<g id="node8" class="node"><title>Node5</title>
<a xlink:href="class_urho3_d_1_1_node.html" target="_top" xlink:title="Scene node that may contain components and child nodes.">
<polygon fill="none" stroke="black" points="646.5,-428.765 646.5,-449.765 731.5,-449.765 731.5,-428.765 646.5,-428.765"/>
<text text-anchor="middle" x="689" y="-436.765" font-family="FreeSans" font-size="10.00">Urho3D::Node</text>
</a>
</g>
<!-- Node4&#45;&gt;Node5 -->
<g id="edge10" class="edge"><title>Node4&#45;&gt;Node5</title>
<path fill="none" stroke="midnightblue" d="M458.004,-681.251C470.19,-677.964 482.644,-673.993 494,-669.265 502.656,-665.662 503.414,-662.032 512,-658.265 553.482,-640.067 576.198,-660.421 610,-630.265 666.499,-579.86 683.531,-482.792 687.772,-450.223"/>
<polygon fill="midnightblue" stroke="midnightblue" points="457.13,-677.862 448.316,-683.741 458.872,-684.641 457.13,-677.862"/>
</g>
<!-- Node5&#45;&gt;Node1 -->
<g id="edge96" class="edge"><title>Node5&#45;&gt;Node1</title>
<path fill="none" stroke="#9a32cd" stroke-dasharray="5,2" d="M741.809,-447.395C876.184,-468.082 1231.02,-522.708 1380.77,-545.762"/>
<polygon fill="#9a32cd" stroke="#9a32cd" points="742.18,-443.911 731.764,-445.849 741.115,-450.83 742.18,-443.911"/>
<text text-anchor="middle" x="1106" y="-515.265" font-family="FreeSans" font-size="10.00"> node_</text>
</g>
<!-- Node5&#45;&gt;Node3 -->
<g id="edge8" class="edge"><title>Node5&#45;&gt;Node3</title>
<path fill="none" stroke="#9a32cd" stroke-dasharray="5,2" d="M715.977,-454.883C770.063,-486.196 890.514,-555.932 936.589,-582.606"/>
<polygon fill="#9a32cd" stroke="#9a32cd" points="717.691,-451.832 707.283,-449.85 714.184,-457.89 717.691,-451.832"/>
<text text-anchor="middle" x="815" y="-543.265" font-family="FreeSans" font-size="10.00"> node_</text>
</g>
<!-- Node5&#45;&gt;Node5 -->
<g id="edge42" class="edge"><title>Node5&#45;&gt;Node5</title>
<path fill="none" stroke="#9a32cd" stroke-dasharray="5,2" d="M665.78,-459.692C667.571,-464.614 675.311,-468.265 689,-468.265 710.902,-468.265 717.576,-458.919 709.02,-449.973"/>
<polygon fill="#9a32cd" stroke="#9a32cd" points="669.176,-460.566 668.98,-449.973 662.528,-458.377 669.176,-460.566"/>
<text text-anchor="middle" x="689" y="-472.265" font-family="FreeSans" font-size="10.00"> parent_</text>
</g>
<!-- Node7 -->
<g id="node13" class="node"><title>Node7</title>
<a xlink:href="class_urho3_d_1_1_scene.html" target="_top" xlink:title="Root scene node, represents the whole scene.">
<polygon fill="none" stroke="red" points="910.5,-247.765 910.5,-268.765 999.5,-268.765 999.5,-247.765 910.5,-247.765"/>
<text text-anchor="middle" x="955" y="-255.765" font-family="FreeSans" font-size="10.00">Urho3D::Scene</text>
</a>
</g>
<!-- Node5&#45;&gt;Node7 -->
<g id="edge16" class="edge"><title>Node5&#45;&gt;Node7</title>
<path fill="none" stroke="midnightblue" d="M741.649,-436.845C778.232,-432.895 826.583,-422.944 862,-398.265 910.839,-364.234 940.897,-295.539 951.093,-269.036"/>
<polygon fill="midnightblue" stroke="midnightblue" points="741.281,-433.364 731.663,-437.807 741.953,-440.331 741.281,-433.364"/>
</g>
<!-- Node6 -->
<g id="node11" class="node"><title>Node6</title>
<a xlink:href="class_urho3_d_1_1_p_o_d_vector.html" target="_top" xlink:title="Urho3D::PODVector\&lt;\l Urho3D::Node * \&gt;">
<polygon fill="none" stroke="red" points="332.5,-468.265 332.5,-502.265 451.5,-502.265 451.5,-468.265 332.5,-468.265"/>
<text text-anchor="start" x="340.5" y="-489.265" font-family="FreeSans" font-size="10.00">Urho3D::PODVector&lt;</text>
<text text-anchor="middle" x="392" y="-476.265" font-family="FreeSans" font-size="10.00"> Urho3D::Node * &gt;</text>
</a>
</g>
<!-- Node6&#45;&gt;Node5 -->
<g id="edge12" class="edge"><title>Node6&#45;&gt;Node5</title>
<path fill="none" stroke="#9a32cd" stroke-dasharray="5,2" d="M461.924,-477.401C504.794,-472.224 560.723,-464.831 610,-456.265 621.887,-454.199 634.703,-451.603 646.482,-449.065"/>
<polygon fill="#9a32cd" stroke="#9a32cd" points="461.389,-473.94 451.876,-478.603 462.221,-480.891 461.389,-473.94"/>
<text text-anchor="middle" x="561" y="-475.265" font-family="FreeSans" font-size="10.00"> dependencyNodes_</text>
</g>
<!-- Node7&#45;&gt;Node5 -->
<g id="edge14" class="edge"><title>Node7&#45;&gt;Node5</title>
<path fill="none" stroke="#9a32cd" stroke-dasharray="5,2" d="M930.972,-274.615C877.298,-311.138 748.893,-398.511 704.451,-428.752"/>
<polygon fill="#9a32cd" stroke="#9a32cd" points="933.208,-277.327 939.506,-268.808 929.27,-271.54 933.208,-277.327"/>
<text text-anchor="middle" x="815" y="-385.265" font-family="FreeSans" font-size="10.00"> scene_</text>
</g>
<!-- Node8 -->
<g id="node16" class="node"><title>Node8</title>
<a xlink:href="class_urho3_d_1_1_hash_map.html" target="_top" xlink:title="Urho3D::HashMap\&lt; StringHash,\l Variant \&gt;">
<polygon fill="none" stroke="red" points="0,-457.265 0,-491.265 172,-491.265 172,-457.265 0,-457.265"/>
<text text-anchor="start" x="8" y="-478.265" font-family="FreeSans" font-size="10.00">Urho3D::HashMap&lt; StringHash,</text>
<text text-anchor="middle" x="86" y="-465.265" font-family="FreeSans" font-size="10.00"> Variant &gt;</text>
</a>
</g>
<!-- Node8&#45;&gt;Node5 -->
<g id="edge38" class="edge"><title>Node8&#45;&gt;Node5</title>
<path fill="none" stroke="#9a32cd" stroke-dasharray="5,2" d="M121.787,-496.404C141.195,-507.113 166.055,-518.808 190,-524.265 225.533,-532.363 235.571,-525.331 272,-524.265 423.007,-519.848 469.452,-543.663 610,-488.265 634.625,-478.559 660.121,-461.18 675.266,-449.941"/>
<polygon fill="#9a32cd" stroke="#9a32cd" points="123.427,-493.31 113.002,-491.42 119.972,-499.399 123.427,-493.31"/>
<text text-anchor="middle" x="392" y="-530.265" font-family="FreeSans" font-size="10.00"> vars_</text>
</g>
<!-- Node8&#45;&gt;Node7 -->
<g id="edge18" class="edge"><title>Node8&#45;&gt;Node7</title>
<path fill="none" stroke="#9a32cd" stroke-dasharray="5,2" d="M124.24,-452.187C143.592,-441.494 167.662,-428.915 190,-419.265 225.353,-403.994 248.555,-421.817 272,-391.265 308.203,-344.087 246.559,-164.877 290,-124.265 385.926,-34.5883 819.336,-202.825 929.48,-247.689"/>
<polygon fill="#9a32cd" stroke="#9a32cd" points="122.452,-449.176 115.426,-457.106 125.864,-455.289 122.452,-449.176"/>
<text text-anchor="middle" x="561" y="-140.265" font-family="FreeSans" font-size="10.00"> smoothingData_</text>
</g>
<!-- Node17 -->
<g id="node41" class="node"><title>Node17</title>
<a xlink:href="class_urho3_d_1_1_connection.html" target="_top" xlink:title="Connection to a remote network host.">
<polygon fill="none" stroke="red" points="335.5,-428.765 335.5,-449.765 448.5,-449.765 448.5,-428.765 335.5,-428.765"/>
<text text-anchor="middle" x="392" y="-436.765" font-family="FreeSans" font-size="10.00">Urho3D::Connection</text>
</a>
</g>
<!-- Node8&#45;&gt;Node17 -->
<g id="edge56" class="edge"><title>Node8&#45;&gt;Node17</title>
<path fill="none" stroke="#9a32cd" stroke-dasharray="5,2" d="M182.288,-463.252C232.508,-457.508 292.224,-450.678 335.064,-445.778"/>
<polygon fill="#9a32cd" stroke="#9a32cd" points="181.59,-459.809 172.052,-464.423 182.385,-466.764 181.59,-459.809"/>
<text text-anchor="middle" x="231" y="-466.265" font-family="FreeSans" font-size="10.00"> identity_</text>
</g>
<!-- Node9 -->
<g id="node18" class="node"><title>Node9</title>
<a xlink:href="class_urho3_d_1_1_string.html" target="_top" xlink:title="String class.">
<polygon fill="none" stroke="black" points="42,-53.7654 42,-74.7654 130,-74.7654 130,-53.7654 42,-53.7654"/>
<text text-anchor="middle" x="86" y="-61.7654" font-family="FreeSans" font-size="10.00">Urho3D::String</text>
</a>
</g>
<!-- Node9&#45;&gt;Node5 -->
<g id="edge40" class="edge"><title>Node9&#45;&gt;Node5</title>
<path fill="none" stroke="#9a32cd" stroke-dasharray="5,2" d="M140.524,-65.3223C219.713,-68.0227 370.569,-77.5751 494,-111.265 502.446,-113.571 503.857,-116.05 512,-119.265 554.88,-136.198 578.468,-119.633 610,-153.265 649.372,-195.26 680.211,-381.92 687.407,-428.638"/>
<polygon fill="#9a32cd" stroke="#9a32cd" points="140.406,-61.8169 130.3,-64.9985 140.185,-68.8134 140.406,-61.8169"/>
<text text-anchor="middle" x="392" y="-115.265" font-family="FreeSans" font-size="10.00"> name_</text>
</g>
<!-- Node9&#45;&gt;Node7 -->
<g id="edge20" class="edge"><title>Node9&#45;&gt;Node7</title>
<path fill="none" stroke="#9a32cd" stroke-dasharray="5,2" d="M131.654,-51.0224C259.251,-16.8908 625.699,61.1687 862,-91.2654 920.562,-129.043 945.627,-217.218 952.743,-247.686"/>
<polygon fill="#9a32cd" stroke="#9a32cd" points="130.554,-47.6944 121.821,-53.6933 132.388,-54.4497 130.554,-47.6944"/>
<text text-anchor="middle" x="561" y="-11.2654" font-family="FreeSans" font-size="10.00"> fileName_</text>
</g>
<!-- Node9&#45;&gt;Node9 -->
<g id="edge22" class="edge"><title>Node9&#45;&gt;Node9</title>
<path fill="none" stroke="#9a32cd" stroke-dasharray="5,2" d="M59.3216,-84.3205C61.0715,-89.4294 69.9644,-93.2654 86,-93.2654 111.031,-93.2654 118.658,-83.9185 108.88,-74.9733"/>
<polygon fill="#9a32cd" stroke="#9a32cd" points="62.5977,-85.5552 63.1199,-74.9733 56.1127,-82.9199 62.5977,-85.5552"/>
<text text-anchor="middle" x="86" y="-97.2654" font-family="FreeSans" font-size="10.00"> EMPTY</text>
</g>
<!-- Node9&#45;&gt;Node17 -->
<g id="edge58" class="edge"><title>Node9&#45;&gt;Node17</title>
<path fill="none" stroke="#9a32cd" stroke-dasharray="5,2" d="M97.2325,-84.0116C138.855,-157.121 282.298,-408.511 290,-414.265 303.072,-424.033 319.471,-430.027 335.273,-433.691"/>
<polygon fill="#9a32cd" stroke="#9a32cd" points="100.048,-81.8827 92.0599,-74.9229 93.9644,-85.3452 100.048,-81.8827"/>
<text text-anchor="middle" x="231" y="-399.265" font-family="FreeSans" font-size="10.00"> sceneFileName_</text>
<text text-anchor="middle" x="231" y="-386.265" font-family="FreeSans" font-size="10.00">address_</text>
</g>
<!-- Node10 -->
<g id="node21" class="node"><title>Node10</title>
<a xlink:href="class_urho3_d_1_1_quaternion.html" target="_top" xlink:title="Rotation represented as a four&#45;dimensional normalized vector.">
<polygon fill="none" stroke="black" points="335.5,-308.765 335.5,-329.765 448.5,-329.765 448.5,-308.765 335.5,-308.765"/>
<text text-anchor="middle" x="392" y="-316.765" font-family="FreeSans" font-size="10.00">Urho3D::Quaternion</text>
</a>
</g>
<!-- Node10&#45;&gt;Node5 -->
<g id="edge24" class="edge"><title>Node10&#45;&gt;Node5</title>
<path fill="none" stroke="#9a32cd" stroke-dasharray="5,2" d="M459.092,-320.238C504.09,-323.387 563.415,-332.519 610,-357.265 642.821,-374.7 670.041,-410.751 682.186,-428.672"/>
<polygon fill="#9a32cd" stroke="#9a32cd" points="459.047,-316.728 448.85,-319.606 458.616,-323.715 459.047,-316.728"/>
<text text-anchor="middle" x="561" y="-374.265" font-family="FreeSans" font-size="10.00"> worldRotation_</text>
<text text-anchor="middle" x="561" y="-361.265" font-family="FreeSans" font-size="10.00">rotation_</text>
</g>
<!-- Node10&#45;&gt;Node10 -->
<g id="edge26" class="edge"><title>Node10&#45;&gt;Node10</title>
<path fill="none" stroke="#9a32cd" stroke-dasharray="5,2" d="M362.357,-339.321C364.302,-344.429 374.183,-348.265 392,-348.265 419.812,-348.265 428.287,-338.919 417.422,-329.973"/>
<polygon fill="#9a32cd" stroke="#9a32cd" points="365.652,-340.528 366.578,-329.973 359.273,-337.647 365.652,-340.528"/>
<text text-anchor="middle" x="392" y="-352.265" font-family="FreeSans" font-size="10.00"> IDENTITY</text>
</g>
<!-- Node11 -->
<g id="node24" class="node"><title>Node11</title>
<a xlink:href="class_urho3_d_1_1_vector.html" target="_top" xlink:title="Urho3D::Vector\&lt; Urho3D\l::WeakPtr\&lt; Urho3D::Component \&gt; \&gt;">
<polygon fill="none" stroke="red" points="295,-256.265 295,-290.265 489,-290.265 489,-256.265 295,-256.265"/>
<text text-anchor="start" x="303" y="-277.265" font-family="FreeSans" font-size="10.00">Urho3D::Vector&lt; Urho3D</text>
<text text-anchor="middle" x="392" y="-264.265" font-family="FreeSans" font-size="10.00">::WeakPtr&lt; Urho3D::Component &gt; &gt;</text>
</a>
</g>
<!-- Node11&#45;&gt;Node5 -->
<g id="edge28" class="edge"><title>Node11&#45;&gt;Node5</title>
<path fill="none" stroke="#9a32cd" stroke-dasharray="5,2" d="M499.172,-273.583C536.826,-278.112 577.746,-288.449 610,-310.265 653.941,-339.987 677.724,-403.122 685.803,-428.435"/>
<polygon fill="#9a32cd" stroke="#9a32cd" points="499.481,-270.096 489.164,-272.504 498.731,-277.056 499.481,-270.096"/>
<text text-anchor="middle" x="561" y="-314.265" font-family="FreeSans" font-size="10.00"> listeners_</text>
</g>
<!-- Node12 -->
<g id="node26" class="node"><title>Node12</title>
<a xlink:href="class_urho3_d_1_1_vector_buffer.html" target="_top" xlink:title="Dynamically sized buffer that can be read and written to as a stream.">
<polygon fill="none" stroke="red" points="26.5,-393.765 26.5,-414.765 145.5,-414.765 145.5,-393.765 26.5,-393.765"/>
<text text-anchor="middle" x="86" y="-401.765" font-family="FreeSans" font-size="10.00">Urho3D::VectorBuffer</text>
</a>
</g>
<!-- Node12&#45;&gt;Node5 -->
<g id="edge30" class="edge"><title>Node12&#45;&gt;Node5</title>
<path fill="none" stroke="#9a32cd" stroke-dasharray="5,2" d="M155.718,-401.168C237.073,-398.35 375.567,-396.022 494,-406.265 546.851,-410.836 606.934,-421.91 646.27,-429.972"/>
<polygon fill="#9a32cd" stroke="#9a32cd" points="155.467,-397.675 145.599,-401.531 155.718,-404.67 155.467,-397.675"/>
<text text-anchor="middle" x="392" y="-410.265" font-family="FreeSans" font-size="10.00"> attrBuffer_</text>
</g>
<!-- Node12&#45;&gt;Node17 -->
<g id="edge52" class="edge"><title>Node12&#45;&gt;Node17</title>
<path fill="none" stroke="#9a32cd" stroke-dasharray="5,2" d="M155.967,-412.268C210.282,-418.481 284.625,-426.984 335.268,-432.776"/>
<polygon fill="#9a32cd" stroke="#9a32cd" points="156.059,-408.756 145.726,-411.097 155.264,-415.711 156.059,-408.756"/>
<text text-anchor="middle" x="231" y="-429.265" font-family="FreeSans" font-size="10.00"> msg_</text>
</g>
<!-- Node13 -->
<g id="node28" class="node"><title>Node13</title>
<a xlink:href="class_urho3_d_1_1_vector.html" target="_top" xlink:title="Urho3D::Vector\&lt; Urho3D\l::SharedPtr\&lt; Urho3D::Component \&gt; \&gt;">
<polygon fill="none" stroke="red" points="290.5,-204.265 290.5,-238.265 493.5,-238.265 493.5,-204.265 290.5,-204.265"/>
<text text-anchor="start" x="298.5" y="-225.265" font-family="FreeSans" font-size="10.00">Urho3D::Vector&lt; Urho3D</text>
<text text-anchor="middle" x="392" y="-212.265" font-family="FreeSans" font-size="10.00">::SharedPtr&lt; Urho3D::Component &gt; &gt;</text>
</a>
</g>
<!-- Node13&#45;&gt;Node5 -->
<g id="edge32" class="edge"><title>Node13&#45;&gt;Node5</title>
<path fill="none" stroke="#9a32cd" stroke-dasharray="5,2" d="M503.952,-220.174C540.908,-224.862 580.153,-235.866 610,-259.265 666.669,-303.693 683.59,-397.165 687.788,-428.654"/>
<polygon fill="#9a32cd" stroke="#9a32cd" points="503.926,-216.649 493.598,-219.014 503.147,-223.606 503.926,-216.649"/>
<text text-anchor="middle" x="561" y="-263.265" font-family="FreeSans" font-size="10.00"> components_</text>
</g>
<!-- Node14 -->
<g id="node30" class="node"><title>Node14</title>
<a xlink:href="class_urho3_d_1_1_vector3.html" target="_top" xlink:title="Three&#45;dimensional vector.">
<polygon fill="none" stroke="black" points="38,-748.765 38,-769.765 134,-769.765 134,-748.765 38,-748.765"/>
<text text-anchor="middle" x="86" y="-756.765" font-family="FreeSans" font-size="10.00">Urho3D::Vector3</text>
</a>
</g>
<!-- Node14&#45;&gt;Node5 -->
<g id="edge34" class="edge"><title>Node14&#45;&gt;Node5</title>
<path fill="none" stroke="#9a32cd" stroke-dasharray="5,2" d="M109.503,-742.816C146.198,-718.006 220.152,-671.454 290,-648.265 358.183,-625.629 551.998,-644.657 610,-602.265 663.063,-563.484 682.139,-479.383 687.355,-449.809"/>
<polygon fill="#9a32cd" stroke="#9a32cd" points="107.282,-740.095 101.002,-748.628 111.233,-745.873 107.282,-740.095"/>
<text text-anchor="middle" x="392" y="-665.265" font-family="FreeSans" font-size="10.00"> scale_</text>
<text text-anchor="middle" x="392" y="-652.265" font-family="FreeSans" font-size="10.00">position_</text>
</g>
<!-- Node14&#45;&gt;Node14 -->
<g id="edge36" class="edge"><title>Node14&#45;&gt;Node14</title>
<path fill="none" stroke="#9a32cd" stroke-dasharray="5,2" d="M59.3216,-779.321C61.0715,-784.429 69.9644,-788.265 86,-788.265 111.031,-788.265 118.658,-778.919 108.88,-769.973"/>
<polygon fill="#9a32cd" stroke="#9a32cd" points="62.5977,-780.555 63.1199,-769.973 56.1127,-777.92 62.5977,-780.555"/>
<text text-anchor="middle" x="86" y="-883.265" font-family="FreeSans" font-size="10.00"> ONE</text>
<text text-anchor="middle" x="86" y="-870.265" font-family="FreeSans" font-size="10.00">DOWN</text>
<text text-anchor="middle" x="86" y="-857.265" font-family="FreeSans" font-size="10.00">BACK</text>
<text text-anchor="middle" x="86" y="-844.265" font-family="FreeSans" font-size="10.00">RIGHT</text>
<text text-anchor="middle" x="86" y="-831.265" font-family="FreeSans" font-size="10.00">LEFT</text>
<text text-anchor="middle" x="86" y="-818.265" font-family="FreeSans" font-size="10.00">ZERO</text>
<text text-anchor="middle" x="86" y="-805.265" font-family="FreeSans" font-size="10.00">FORWARD</text>
<text text-anchor="middle" x="86" y="-792.265" font-family="FreeSans" font-size="10.00">UP</text>
</g>
<!-- Node14&#45;&gt;Node17 -->
<g id="edge54" class="edge"><title>Node14&#45;&gt;Node17</title>
<path fill="none" stroke="#9a32cd" stroke-dasharray="5,2" d="M98.4141,-740.163C140.482,-675.543 275.817,-468.631 290,-459.265 303.327,-450.465 319.629,-445.359 335.258,-442.445"/>
<polygon fill="#9a32cd" stroke="#9a32cd" points="95.429,-738.333 92.9096,-748.624 101.297,-742.15 95.429,-738.333"/>
<text text-anchor="middle" x="231" y="-600.265" font-family="FreeSans" font-size="10.00"> position_</text>
</g>
<!-- Node21 -->
<g id="node55" class="node"><title>Node21</title>
<a xlink:href="class_urho3_d_1_1_bounding_box.html" target="_top" xlink:title="Three&#45;dimensional axis&#45;aligned bounding box.">
<polygon fill="none" stroke="black" points="628,-946.765 628,-967.765 750,-967.765 750,-946.765 628,-946.765"/>
<text text-anchor="middle" x="689" y="-954.765" font-family="FreeSans" font-size="10.00">Urho3D::BoundingBox</text>
</a>
</g>
<!-- Node14&#45;&gt;Node21 -->
<g id="edge72" class="edge"><title>Node14&#45;&gt;Node21</title>
<path fill="none" stroke="#9a32cd" stroke-dasharray="5,2" d="M95.0639,-779.077C110.07,-809.367 143.139,-866.486 190,-893.265 330.48,-973.545 528.947,-971.152 627.916,-963.697"/>
<polygon fill="#9a32cd" stroke="#9a32cd" points="98.1517,-777.422 90.6736,-769.916 91.8392,-780.447 98.1517,-777.422"/>
<text text-anchor="middle" x="392" y="-982.265" font-family="FreeSans" font-size="10.00"> max_</text>
<text text-anchor="middle" x="392" y="-969.265" font-family="FreeSans" font-size="10.00">min_</text>
</g>
<!-- Node25 -->
<g id="node68" class="node"><title>Node25</title>
<a xlink:href="class_urho3_d_1_1_octant.html" target="_top" xlink:title="Octree octant">
<polygon fill="none" stroke="red" points="909,-723.765 909,-744.765 1001,-744.765 1001,-723.765 909,-723.765"/>
<text text-anchor="middle" x="955" y="-731.765" font-family="FreeSans" font-size="10.00">Urho3D::Octant</text>
</a>
</g>
<!-- Node14&#45;&gt;Node25 -->
<g id="edge90" class="edge"><title>Node14&#45;&gt;Node25</title>
<path fill="none" stroke="#9a32cd" stroke-dasharray="5,2" d="M138.407,-772.114C179.382,-781.471 237.934,-793.333 290,-798.265 522.379,-820.279 800.37,-768.129 908.647,-744.816"/>
<polygon fill="#9a32cd" stroke="#9a32cd" points="139.175,-768.7 128.643,-769.857 137.598,-775.52 139.175,-768.7"/>
<text text-anchor="middle" x="561" y="-817.265" font-family="FreeSans" font-size="10.00"> center_</text>
<text text-anchor="middle" x="561" y="-804.265" font-family="FreeSans" font-size="10.00">halfSize_</text>
</g>
<!-- Node15 -->
<g id="node36" class="node"><title>Node15</title>
<a xlink:href="class_urho3_d_1_1_string_hash.html" target="_top" xlink:title="32&#45;bit hash value for a string.">
<polygon fill="none" stroke="black" points="335.5,-133.765 335.5,-154.765 448.5,-154.765 448.5,-133.765 335.5,-133.765"/>
<text text-anchor="middle" x="392" y="-141.765" font-family="FreeSans" font-size="10.00">Urho3D::StringHash</text>
</a>
</g>
<!-- Node15&#45;&gt;Node5 -->
<g id="edge44" class="edge"><title>Node15&#45;&gt;Node5</title>
<path fill="none" stroke="#9a32cd" stroke-dasharray="5,2" d="M458.725,-146.891C506.537,-152.214 569.405,-166.757 610,-205.265 644.219,-237.725 677.968,-387.21 686.783,-428.61"/>
<polygon fill="#9a32cd" stroke="#9a32cd" points="459.065,-143.407 448.765,-145.889 458.364,-150.372 459.065,-143.407"/>
<text text-anchor="middle" x="561" y="-209.265" font-family="FreeSans" font-size="10.00"> nameHash_</text>
</g>
<!-- Node15&#45;&gt;Node15 -->
<g id="edge46" class="edge"><title>Node15&#45;&gt;Node15</title>
<path fill="none" stroke="#9a32cd" stroke-dasharray="5,2" d="M362.357,-164.321C364.302,-169.429 374.183,-173.265 392,-173.265 419.812,-173.265 428.287,-163.919 417.422,-154.973"/>
<polygon fill="#9a32cd" stroke="#9a32cd" points="365.652,-165.528 366.578,-154.973 359.273,-162.647 365.652,-165.528"/>
<text text-anchor="middle" x="392" y="-177.265" font-family="FreeSans" font-size="10.00"> ZERO</text>
</g>
<!-- Node16 -->
<g id="node39" class="node"><title>Node16</title>
<a xlink:href="class_urho3_d_1_1_vector.html" target="_top" xlink:title="Urho3D::Vector\&lt; Urho3D\l::SharedPtr\&lt; Urho3D::Node \&gt; \&gt;">
<polygon fill="none" stroke="red" points="305.5,-569.265 305.5,-603.265 478.5,-603.265 478.5,-569.265 305.5,-569.265"/>
<text text-anchor="start" x="313.5" y="-590.265" font-family="FreeSans" font-size="10.00">Urho3D::Vector&lt; Urho3D</text>
<text text-anchor="middle" x="392" y="-577.265" font-family="FreeSans" font-size="10.00">::SharedPtr&lt; Urho3D::Node &gt; &gt;</text>
</a>
</g>
<!-- Node16&#45;&gt;Node5 -->
<g id="edge48" class="edge"><title>Node16&#45;&gt;Node5</title>
<path fill="none" stroke="#9a32cd" stroke-dasharray="5,2" d="M488.777,-587.477C528.837,-584.006 574.196,-574.598 610,-552.265 650.417,-527.056 675.735,-472.758 685.006,-449.828"/>
<polygon fill="#9a32cd" stroke="#9a32cd" points="488.424,-583.994 478.715,-588.236 488.95,-590.974 488.424,-583.994"/>
<text text-anchor="middle" x="561" y="-589.265" font-family="FreeSans" font-size="10.00"> children_</text>
</g>
<!-- Node17&#45;&gt;Node5 -->
<g id="edge50" class="edge"><title>Node17&#45;&gt;Node5</title>
<path fill="none" stroke="#9a32cd" stroke-dasharray="5,2" d="M458.624,-439.265C515.97,-439.265 597.013,-439.265 646.118,-439.265"/>
<polygon fill="#9a32cd" stroke="#9a32cd" points="458.563,-435.765 448.563,-439.265 458.562,-442.765 458.563,-435.765"/>
<text text-anchor="middle" x="561" y="-443.265" font-family="FreeSans" font-size="10.00"> owner_</text>
</g>
<!-- Node18 -->
<g id="node47" class="node"><title>Node18</title>
<a xlink:href="class_urho3_d_1_1_matrix3x4.html" target="_top" xlink:title="3x4 matrix for scene node transform calculations.">
<polygon fill="none" stroke="black" points="339,-723.765 339,-744.765 445,-744.765 445,-723.765 339,-723.765"/>
<text text-anchor="middle" x="392" y="-731.765" font-family="FreeSans" font-size="10.00">Urho3D::Matrix3x4</text>
</a>
</g>
<!-- Node18&#45;&gt;Node5 -->
<g id="edge60" class="edge"><title>Node18&#45;&gt;Node5</title>
<path fill="none" stroke="#9a32cd" stroke-dasharray="5,2" d="M455.074,-725.53C468.186,-722.713 481.738,-719.037 494,-714.265 502.737,-710.866 503.725,-707.674 512,-703.265 554.3,-680.73 577.567,-693.553 610,-658.265 668.532,-594.581 684.41,-484.334 688.045,-449.873"/>
<polygon fill="#9a32cd" stroke="#9a32cd" points="454.277,-722.12 445.162,-727.521 455.655,-728.983 454.277,-722.12"/>
<text text-anchor="middle" x="561" y="-707.265" font-family="FreeSans" font-size="10.00"> worldTransform_</text>
</g>
<!-- Node18&#45;&gt;Node18 -->
<g id="edge62" class="edge"><title>Node18&#45;&gt;Node18</title>
<path fill="none" stroke="#9a32cd" stroke-dasharray="5,2" d="M362.357,-754.321C364.302,-759.429 374.183,-763.265 392,-763.265 419.812,-763.265 428.287,-753.919 417.422,-744.973"/>
<polygon fill="#9a32cd" stroke="#9a32cd" points="365.652,-755.528 366.578,-744.973 359.273,-752.647 365.652,-755.528"/>
<text text-anchor="middle" x="392" y="-780.265" font-family="FreeSans" font-size="10.00"> IDENTITY</text>
<text text-anchor="middle" x="392" y="-767.265" font-family="FreeSans" font-size="10.00">ZERO</text>
</g>
<!-- Node18&#45;&gt;Node20 -->
<g id="edge74" class="edge"><title>Node18&#45;&gt;Node20</title>
<path fill="none" stroke="#9a32cd" stroke-dasharray="5,2" d="M423.809,-749.079C500.324,-783.845 701.561,-870.149 880,-902.265 1074.02,-937.185 1311.2,-926.182 1406.44,-919.623"/>
<polygon fill="#9a32cd" stroke="#9a32cd" points="425.237,-745.883 414.687,-744.909 422.327,-752.25 425.237,-745.883"/>
<text text-anchor="middle" x="955" y="-923.265" font-family="FreeSans" font-size="10.00"> inverseWorld_</text>
</g>
<!-- Node18&#45;&gt;Node24 -->
<g id="edge84" class="edge"><title>Node18&#45;&gt;Node24</title>
<path fill="none" stroke="#9a32cd" stroke-dasharray="5,2" d="M455.346,-731.729C499.028,-729.323 558.308,-724.756 610,-716.265 732.004,-696.225 757.274,-664.265 880,-649.265 946.174,-641.178 963.835,-641.101 1030,-649.265 1178.11,-667.541 1349.14,-720.851 1417.96,-743.685"/>
<polygon fill="#9a32cd" stroke="#9a32cd" points="454.955,-728.245 445.153,-732.267 455.324,-735.235 454.955,-728.245"/>
<text text-anchor="middle" x="955" y="-653.265" font-family="FreeSans" font-size="10.00"> volumeTransform_</text>
</g>
<!-- Node19 -->
<g id="node50" class="node"><title>Node19</title>
<a xlink:href="class_urho3_d_1_1_hash_set.html" target="_top" xlink:title="Urho3D::HashSet\&lt; Urho3D\l::Camera * \&gt;">
<polygon fill="none" stroke="red" points="880.5,-671.265 880.5,-705.265 1029.5,-705.265 1029.5,-671.265 880.5,-671.265"/>
<text text-anchor="start" x="888.5" y="-692.265" font-family="FreeSans" font-size="10.00">Urho3D::HashSet&lt; Urho3D</text>
<text text-anchor="middle" x="955" y="-679.265" font-family="FreeSans" font-size="10.00">::Camera * &gt;</text>
</a>
</g>
<!-- Node19&#45;&gt;Node2 -->
<g id="edge64" class="edge"><title>Node19&#45;&gt;Node2</title>
<path fill="none" stroke="#9a32cd" stroke-dasharray="5,2" d="M1040.24,-699.152C1079.2,-706.188 1125.21,-717.473 1164,-735.265 1186.84,-745.743 1209.49,-764.497 1222.6,-776.388"/>
<polygon fill="#9a32cd" stroke="#9a32cd" points="1040.43,-695.632 1029.98,-697.365 1039.23,-702.528 1040.43,-695.632"/>
<text text-anchor="middle" x="1106" y="-739.265" font-family="FreeSans" font-size="10.00"> viewCameras_</text>
</g>
<!-- Node20&#45;&gt;Node2 -->
<g id="edge66" class="edge"><title>Node20&#45;&gt;Node2</title>
<path fill="none" stroke="#9a32cd" stroke-dasharray="5,2" d="M1422.68,-900.474C1378.2,-873.787 1289.33,-820.462 1251.59,-797.822"/>
<polygon fill="#9a32cd" stroke="#9a32cd" points="1421.09,-903.6 1431.46,-905.744 1424.69,-897.598 1421.09,-903.6"/>
<text text-anchor="middle" x="1330" y="-863.265" font-family="FreeSans" font-size="10.00"> zone_</text>
</g>
<!-- Node21&#45;&gt;Node2 -->
<g id="edge86" class="edge"><title>Node21&#45;&gt;Node2</title>
<path fill="none" stroke="#9a32cd" stroke-dasharray="5,2" d="M760.231,-963.982C830.132,-968.484 939.165,-969.892 1030,-946.265 1092.64,-929.974 1113.91,-930.25 1164,-889.265 1196.08,-863.016 1219.58,-818.371 1229.2,-797.988"/>
<polygon fill="#9a32cd" stroke="#9a32cd" points="760.424,-960.487 750.209,-963.298 759.947,-967.471 760.424,-960.487"/>
<text text-anchor="middle" x="955" y="-982.265" font-family="FreeSans" font-size="10.00"> worldBoundingBox_</text>
<text text-anchor="middle" x="955" y="-969.265" font-family="FreeSans" font-size="10.00">boundingBox_</text>
</g>
<!-- Node21&#45;&gt;Node20 -->
<g id="edge70" class="edge"><title>Node21&#45;&gt;Node20</title>
<path fill="none" stroke="#9a32cd" stroke-dasharray="5,2" d="M732.727,-970.532C744.137,-973.693 756.469,-976.847 768,-979.265 817.212,-989.587 829.843,-991.701 880,-995.265 1092.28,-1010.35 1148.33,-989.784 1356,-943.265 1376.18,-938.745 1398.44,-932.336 1416.12,-926.896"/>
<polygon fill="#9a32cd" stroke="#9a32cd" points="733.557,-967.129 722.981,-967.77 731.648,-973.864 733.557,-967.129"/>
<text text-anchor="middle" x="1106" y="-1002.27" font-family="FreeSans" font-size="10.00"> lastWorldBoundingBox_</text>
</g>
<!-- Node21&#45;&gt;Node25 -->
<g id="edge92" class="edge"><title>Node21&#45;&gt;Node25</title>
<path fill="none" stroke="#9a32cd" stroke-dasharray="5,2" d="M741.234,-944.041C786.096,-931.63 845.997,-912.193 862,-893.265 889.745,-860.449 858.431,-835.434 880,-798.265 893.574,-774.874 918.962,-755.977 936.41,-744.937"/>
<polygon fill="#9a32cd" stroke="#9a32cd" points="740.069,-940.73 731.339,-946.733 741.907,-947.485 740.069,-940.73"/>
<text text-anchor="middle" x="815" y="-952.265" font-family="FreeSans" font-size="10.00"> cullingBox_</text>
<text text-anchor="middle" x="815" y="-939.265" font-family="FreeSans" font-size="10.00">worldBoundingBox_</text>
</g>
<!-- Node22 -->
<g id="node59" class="node"><title>Node22</title>
<a xlink:href="class_urho3_d_1_1_p_o_d_vector.html" target="_top" xlink:title="Urho3D::PODVector\&lt;\l Urho3D::Light * \&gt;">
<polygon fill="none" stroke="red" points="895.5,-859.265 895.5,-893.265 1014.5,-893.265 1014.5,-859.265 895.5,-859.265"/>
<text text-anchor="start" x="903.5" y="-880.265" font-family="FreeSans" font-size="10.00">Urho3D::PODVector&lt;</text>
<text text-anchor="middle" x="955" y="-867.265" font-family="FreeSans" font-size="10.00"> Urho3D::Light * &gt;</text>
</a>
</g>
<!-- Node22&#45;&gt;Node2 -->
<g id="edge76" class="edge"><title>Node22&#45;&gt;Node2</title>
<path fill="none" stroke="#9a32cd" stroke-dasharray="5,2" d="M1024.92,-865.106C1066.26,-857.231 1119.14,-844.908 1164,-827.265 1183.8,-819.478 1204.76,-806.837 1218.53,-797.851"/>
<polygon fill="#9a32cd" stroke="#9a32cd" points="1024.13,-861.693 1014.94,-866.964 1025.41,-868.575 1024.13,-861.693"/>
<text text-anchor="middle" x="1106" y="-876.265" font-family="FreeSans" font-size="10.00"> vertexLights_</text>
<text text-anchor="middle" x="1106" y="-863.265" font-family="FreeSans" font-size="10.00">lights_</text>
</g>
<!-- Node23 -->
<g id="node61" class="node"><title>Node23</title>
<a xlink:href="class_urho3_d_1_1_vector.html" target="_top" xlink:title="Urho3D::Vector\&lt; Urho3D\l::SourceBatch \&gt;">
<polygon fill="none" stroke="red" points="886,-807.265 886,-841.265 1024,-841.265 1024,-807.265 886,-807.265"/>
<text text-anchor="start" x="894" y="-828.265" font-family="FreeSans" font-size="10.00">Urho3D::Vector&lt; Urho3D</text>
<text text-anchor="middle" x="955" y="-815.265" font-family="FreeSans" font-size="10.00">::SourceBatch &gt;</text>
</a>
</g>
<!-- Node23&#45;&gt;Node2 -->
<g id="edge78" class="edge"><title>Node23&#45;&gt;Node2</title>
<path fill="none" stroke="#9a32cd" stroke-dasharray="5,2" d="M1034.53,-813.719C1081.75,-807.457 1140.29,-799.692 1181.71,-794.2"/>
<polygon fill="#9a32cd" stroke="#9a32cd" points="1033.78,-810.287 1024.32,-815.072 1034.7,-817.227 1033.78,-810.287"/>
<text text-anchor="middle" x="1106" y="-814.265" font-family="FreeSans" font-size="10.00"> batches_</text>
</g>
<!-- Node24&#45;&gt;Node2 -->
<g id="edge80" class="edge"><title>Node24&#45;&gt;Node2</title>
<path fill="none" stroke="#9a32cd" stroke-dasharray="5,2" d="M1397.39,-762.187C1363.69,-767.36 1319.83,-774.091 1286.05,-779.277"/>
<polygon fill="#9a32cd" stroke="#9a32cd" points="1398.14,-765.612 1407.5,-760.635 1397.08,-758.693 1398.14,-765.612"/>
<text text-anchor="middle" x="1330" y="-779.265" font-family="FreeSans" font-size="10.00"> firstLight_</text>
</g>
<!-- Node25&#45;&gt;Node2 -->
<g id="edge88" class="edge"><title>Node25&#45;&gt;Node2</title>
<path fill="none" stroke="#9a32cd" stroke-dasharray="5,2" d="M1011.03,-744.909C1060.82,-754.367 1133.05,-768.088 1181.68,-777.327"/>
<polygon fill="#9a32cd" stroke="#9a32cd" points="1011.55,-741.445 1001.07,-743.017 1010.24,-748.322 1011.55,-741.445"/>
<text text-anchor="middle" x="1106" y="-776.265" font-family="FreeSans" font-size="10.00"> octant_</text>
</g>
<!-- Node25&#45;&gt;Node25 -->
<g id="edge94" class="edge"><title>Node25&#45;&gt;Node25</title>
<path fill="none" stroke="#9a32cd" stroke-dasharray="5,2" d="M929.063,-754.321C930.764,-759.429 939.41,-763.265 955,-763.265 979.336,-763.265 986.751,-753.919 977.245,-744.973"/>
<polygon fill="#9a32cd" stroke="#9a32cd" points="932.336,-755.56 932.755,-744.973 925.826,-752.988 932.336,-755.56"/>
<text text-anchor="middle" x="955" y="-780.265" font-family="FreeSans" font-size="10.00"> parent_</text>
<text text-anchor="middle" x="955" y="-767.265" font-family="FreeSans" font-size="10.00">children_</text>
</g>
</g>
</svg>
        <g id="navigator" transform="translate(0 0)" fill="#404254">
                <rect fill="#f2f5e9" fill-opacity="0.5" stroke="#606060" stroke-width=".5" x="0" y="0" width="60" height="60"/>
                <use id="zoomplus" xlink:href="#zoomPlus" x="17" y="9" onmousedown="handleZoom(evt,'in')"/>
                <use id="zoomminus" xlink:href="#zoomMin" x="42" y="9" onmousedown="handleZoom(evt,'out')"/>
                <use id="reset" xlink:href="#resetDef" x="30" y="36" onmousedown="handleReset()"/>
                <g id="arrowUp" xlink:href="#dirArrow" transform="translate(30 24)" onmousedown="handlePan(0,-1)">
                  <use xlink:href="#rim" fill="#404040">
                        <set attributeName="fill" to="#808080" begin="arrowUp.mouseover" end="arrowUp.mouseout"/>
                  </use>
                  <path fill="none" stroke="white" stroke-width="1.5" d="M0,-3.0v7 M-2.5,-0.5L0,-3.0L2.5,-0.5"/>
                </g>
                <g id="arrowRight" xlink:href="#dirArrow" transform="rotate(90) translate(36 -43)" onmousedown="handlePan(1,0)">
                  <use xlink:href="#rim" fill="#404040">
                        <set attributeName="fill" to="#808080" begin="arrowRight.mouseover" end="arrowRight.mouseout"/>
                  </use>
                  <path fill="none" stroke="white" stroke-width="1.5" d="M0,-3.0v7 M-2.5,-0.5L0,-3.0L2.5,-0.5"/>
                </g>
                <g id="arrowDown" xlink:href="#dirArrow" transform="rotate(180) translate(-30 -48)" onmousedown="handlePan(0,1)">
                  <use xlink:href="#rim" fill="#404040">
                        <set attributeName="fill" to="#808080" begin="arrowDown.mouseover" end="arrowDown.mouseout"/>
                  </use>
                  <path fill="none" stroke="white" stroke-width="1.5" d="M0,-3.0v7 M-2.5,-0.5L0,-3.0L2.5,-0.5"/>
                </g>
                <g id="arrowLeft" xlink:href="#dirArrow" transform="rotate(270) translate(-36 17)" onmousedown="handlePan(-1,0)">
                  <use xlink:href="#rim" fill="#404040">
                        <set attributeName="fill" to="#808080" begin="arrowLeft.mouseover" end="arrowLeft.mouseout"/>
                  </use>
                  <path fill="none" stroke="white" stroke-width="1.5" d="M0,-3.0v7 M-2.5,-0.5L0,-3.0L2.5,-0.5"/>
                </g>
        </g>
        <svg viewBox="0 0 15 15" width="100%" height="30px" preserveAspectRatio="xMaxYMin meet">
         <g id="arrow_out" transform="scale(0.3 0.3)">
          <a xlink:href="struct_urho3_d_1_1_octree_query_result__coll__graph_org.svg" target="_base">
           <rect id="button" ry="5" rx="5" y="6" x="6" height="38" width="38"
                fill="#f2f5e9" fill-opacity="0.5" stroke="#606060" stroke-width="1.0"/>
           <path id="arrow"
             d="M 11.500037,31.436501 C 11.940474,20.09759 22.043105,11.32322 32.158766,21.979434 L 37.068811,17.246167 C 37.068811,17.246167 37.088388,32 37.088388,32 L 22.160133,31.978069 C 22.160133,31.978069 26.997745,27.140456 26.997745,27.140456 C 18.528582,18.264221 13.291696,25.230495 11.500037,31.436501 z"
             style="fill:#404040;"/>
          </a>
         </g>
        </svg>
</svg>
