<?xml version="1.0" encoding="UTF-8" standalone="no"?>
<!DOCTYPE svg PUBLIC "-//W3C//DTD SVG 1.1//EN"
 "http://www.w3.org/Graphics/SVG/1.1/DTD/svg11.dtd">
<!-- Generated by graphviz version 2.26.3 (20100126.1600)
 -->
<!-- Title: Urho3D::DelayedCall Pages: 1 -->
<svg width="312pt" height="162pt"
 viewBox="0.00 0.00 312.00 162.00" xmlns="http://www.w3.org/2000/svg" xmlns:xlink="http://www.w3.org/1999/xlink">
<g id="graph1" class="graph" transform="scale(1 1) rotate(0) translate(4 158)">
<title>Urho3D::DelayedCall</title>
<!-- Node1 -->
<g id="node1" class="node"><title>Node1</title>
<polygon fill="#bfbfbf" stroke="black" points="82,-0.5 82,-21.5 198,-21.5 198,-0.5 82,-0.5"/>
<text text-anchor="middle" x="140" y="-8.5" font-family="FreeSans" font-size="10.00">Urho3D::DelayedCall</text>
</g>
<!-- Node2 -->
<g id="node2" class="node"><title>Node2</title>
<a xlink:href="class_urho3_d_1_1_vector.html" target="_top" xlink:title="Urho3D::Vector\&lt; Variant \&gt;">
<polygon fill="none" stroke="black" points="0,-72.5 0,-93.5 146,-93.5 146,-72.5 0,-72.5"/>
<text text-anchor="middle" x="73" y="-80.5" font-family="FreeSans" font-size="10.00">Urho3D::Vector&lt; Variant &gt;</text>
</a>
</g>
<!-- Node2&#45;&gt;Node1 -->
<g id="edge2" class="edge"><title>Node2&#45;&gt;Node1</title>
<path fill="none" stroke="#9a32cd" stroke-dasharray="5,2" d="M87.5615,-64.6179C93.9346,-56.8372 101.628,-47.7896 109,-40 114.978,-33.6838 122.031,-27.0289 127.898,-21.6895"/>
<polygon fill="#9a32cd" stroke="#9a32cd" points="84.8013,-62.465 81.2418,-72.4441 90.2474,-66.8628 84.8013,-62.465"/>
<text text-anchor="middle" x="141.5" y="-44.5" font-family="FreeSans" font-size="10.00"> parameters_</text>
</g>
<!-- Node3 -->
<g id="node4" class="node"><title>Node3</title>
<a xlink:href="class_urho3_d_1_1_vector_base.html" target="_top" xlink:title="Vector base class.">
<polygon fill="none" stroke="black" points="16,-132.5 16,-153.5 130,-153.5 130,-132.5 16,-132.5"/>
<text text-anchor="middle" x="73" y="-140.5" font-family="FreeSans" font-size="10.00">Urho3D::VectorBase</text>
</a>
</g>
<!-- Node3&#45;&gt;Node2 -->
<g id="edge4" class="edge"><title>Node3&#45;&gt;Node2</title>
<path fill="none" stroke="midnightblue" d="M73,-122.231C73,-112.592 73,-101.544 73,-93.6339"/>
<polygon fill="midnightblue" stroke="midnightblue" points="69.5001,-122.273 73,-132.273 76.5001,-122.273 69.5001,-122.273"/>
</g>
<!-- Node4 -->
<g id="node6" class="node"><title>Node4</title>
<a xlink:href="class_urho3_d_1_1_string.html" target="_top" xlink:title="String class.">
<polygon fill="none" stroke="black" points="164,-72.5 164,-93.5 252,-93.5 252,-72.5 164,-72.5"/>
<text text-anchor="middle" x="208" y="-80.5" font-family="FreeSans" font-size="10.00">Urho3D::String</text>
</a>
</g>
<!-- Node4&#45;&gt;Node1 -->
<g id="edge6" class="edge"><title>Node4&#45;&gt;Node1</title>
<path fill="none" stroke="#9a32cd" stroke-dasharray="5,2" d="M194.36,-64.1341C188.428,-56.3719 181.197,-47.4691 174,-40 167.756,-33.5192 160.189,-26.9573 153.781,-21.7184"/>
<polygon fill="#9a32cd" stroke="#9a32cd" points="191.649,-66.3537 200.434,-72.2759 197.26,-62.1678 191.649,-66.3537"/>
<text text-anchor="middle" x="216" y="-44.5" font-family="FreeSans" font-size="10.00"> declaration_</text>
</g>
<!-- Node4&#45;&gt;Node4 -->
<g id="edge8" class="edge"><title>Node4&#45;&gt;Node4</title>
<path fill="none" stroke="#9a32cd" stroke-dasharray="5,2" d="M262.258,-87.4197C267.019,-86.4874 270,-85.0142 270,-83 270,-79.7773 262.369,-77.9394 252.024,-77.4862"/>
<polygon fill="#9a32cd" stroke="#9a32cd" points="261.596,-83.9705 252.024,-88.5138 262.34,-90.9308 261.596,-83.9705"/>
<text text-anchor="middle" x="287" y="-80.5" font-family="FreeSans" font-size="10.00"> EMPTY</text>
</g>
</g>
</svg>
