<?xml version="1.0" encoding="UTF-8" standalone="no"?>
<!DOCTYPE svg PUBLIC "-//W3C//DTD SVG 1.1//EN"
 "http://www.w3.org/Graphics/SVG/1.1/DTD/svg11.dtd">
<!-- Generated by graphviz version 2.26.3 (20100126.1600)
 -->
<!-- Title: Urho3D::FileSystem::ScanDirInternal Pages: 1 -->
<svg width="1092pt" height="244pt"
 viewBox="0.00 0.00 1092.00 244.05" xmlns="http://www.w3.org/2000/svg" xmlns:xlink="http://www.w3.org/1999/xlink">
<g id="graph1" class="graph" transform="scale(1 1) rotate(0) translate(4 240.047)">
<title>Urho3D::FileSystem::ScanDirInternal</title>
<!-- Node1 -->
<g id="node1" class="node"><title>Node1</title>
<polygon fill="#bfbfbf" stroke="black" points="0.5,-95 0.5,-129 111.5,-129 111.5,-95 0.5,-95"/>
<text text-anchor="start" x="8.5" y="-116" font-family="FreeSans" font-size="10.00">Urho3D::FileSystem</text>
<text text-anchor="middle" x="56" y="-103" font-family="FreeSans" font-size="10.00">::ScanDirInternal</text>
</g>
<!-- Node2 -->
<g id="node3" class="node"><title>Node2</title>
<a xlink:href="class_urho3_d_1_1_file_system.html#a7cfc8edbdae22a13ba0f720fe008d8fa" target="_top" xlink:title="Scan a directory for specified files.">
<polygon fill="none" stroke="black" points="148.5,-95 148.5,-129 259.5,-129 259.5,-95 148.5,-95"/>
<text text-anchor="start" x="156.5" y="-116" font-family="FreeSans" font-size="10.00">Urho3D::FileSystem</text>
<text text-anchor="middle" x="204" y="-103" font-family="FreeSans" font-size="10.00">::ScanDir</text>
</a>
</g>
<!-- Node1&#45;&gt;Node2 -->
<g id="edge2" class="edge"><title>Node1&#45;&gt;Node2</title>
<path fill="none" stroke="midnightblue" d="M121.768,-112C130.576,-112 139.542,-112 148.158,-112"/>
<polygon fill="midnightblue" stroke="midnightblue" points="121.531,-108.5 111.531,-112 121.531,-115.5 121.531,-108.5"/>
</g>
<!-- Node3 -->
<g id="node5" class="node"><title>Node3</title>
<a xlink:href="class_urho3_d_1_1_resource_cache.html#a01a10b369530339081ae7c223abfafd8" target="_top" xlink:title="Add a resource load directory.">
<polygon fill="none" stroke="black" points="296.5,-132 296.5,-166 429.5,-166 429.5,-132 296.5,-132"/>
<text text-anchor="start" x="304.5" y="-153" font-family="FreeSans" font-size="10.00">Urho3D::ResourceCache</text>
<text text-anchor="middle" x="363" y="-140" font-family="FreeSans" font-size="10.00">::AddResourceDir</text>
</a>
</g>
<!-- Node2&#45;&gt;Node3 -->
<g id="edge4" class="edge"><title>Node2&#45;&gt;Node3</title>
<path fill="none" stroke="midnightblue" d="M269.533,-127.25C278.434,-129.321 287.576,-131.449 296.495,-133.524"/>
<polygon fill="midnightblue" stroke="midnightblue" points="270.144,-123.798 259.61,-124.941 268.557,-130.616 270.144,-123.798"/>
</g>
<!-- Node5 -->
<g id="node9" class="node"><title>Node5</title>
<a xlink:href="class_urho3_d_1_1_file_selector.html#a8ec8d229ef0e2a4836634e01e96803a7" target="_top" xlink:title="Refresh the directory listing.">
<polygon fill="none" stroke="black" points="306,-59 306,-93 420,-93 420,-59 306,-59"/>
<text text-anchor="start" x="314" y="-80" font-family="FreeSans" font-size="10.00">Urho3D::FileSelector</text>
<text text-anchor="middle" x="363" y="-67" font-family="FreeSans" font-size="10.00">::RefreshFiles</text>
</a>
</g>
<!-- Node2&#45;&gt;Node5 -->
<g id="edge8" class="edge"><title>Node2&#45;&gt;Node5</title>
<path fill="none" stroke="midnightblue" d="M269.578,-97.1521C281.597,-94.4308 294.054,-91.6103 305.804,-88.9499"/>
<polygon fill="midnightblue" stroke="midnightblue" points="268.591,-93.787 259.61,-99.4089 270.137,-100.614 268.591,-93.787"/>
</g>
<!-- Node4 -->
<g id="node7" class="node"><title>Node4</title>
<a xlink:href="class_urho3_d_1_1_engine.html#ae686bb22644561e57a4aaef3f8665c0e" target="_top" xlink:title="Initialize engine using parameters given and show the application window. Return true if successful...">
<polygon fill="none" stroke="black" points="466,-149.5 466,-170.5 602,-170.5 602,-149.5 466,-149.5"/>
<text text-anchor="middle" x="534" y="-157.5" font-family="FreeSans" font-size="10.00">Urho3D::Engine::Initialize</text>
</a>
</g>
<!-- Node3&#45;&gt;Node4 -->
<g id="edge6" class="edge"><title>Node3&#45;&gt;Node4</title>
<path fill="none" stroke="midnightblue" d="M439.752,-153.937C448.464,-154.498 457.298,-155.066 465.888,-155.619"/>
<polygon fill="midnightblue" stroke="midnightblue" points="439.807,-150.434 429.603,-153.284 439.357,-157.419 439.807,-150.434"/>
</g>
<!-- Node6 -->
<g id="node11" class="node"><title>Node6</title>
<a xlink:href="class_urho3_d_1_1_file_selector.html#a70224d0b3a485fd4aab57cc6b9af1c6f" target="_top" xlink:title="Set current path.">
<polygon fill="none" stroke="black" points="477,-97 477,-131 591,-131 591,-97 477,-97"/>
<text text-anchor="start" x="485" y="-118" font-family="FreeSans" font-size="10.00">Urho3D::FileSelector</text>
<text text-anchor="middle" x="534" y="-105" font-family="FreeSans" font-size="10.00">::SetPath</text>
</a>
</g>
<!-- Node5&#45;&gt;Node6 -->
<g id="edge10" class="edge"><title>Node5&#45;&gt;Node6</title>
<path fill="none" stroke="midnightblue" d="M430.359,-90.9686C445.701,-94.378 461.86,-97.969 476.735,-101.275"/>
<polygon fill="midnightblue" stroke="midnightblue" points="430.937,-87.5119 420.416,-88.7592 429.419,-94.3452 430.937,-87.5119"/>
</g>
<!-- Node12 -->
<g id="node26" class="node"><title>Node12</title>
<a xlink:href="class_urho3_d_1_1_file_selector.html#a8f0352bf675048a625d1b8e5ae2ce8ea" target="_top" xlink:title="Set filters.">
<polygon fill="none" stroke="black" points="641,-45 641,-79 755,-79 755,-45 641,-45"/>
<text text-anchor="start" x="649" y="-66" font-family="FreeSans" font-size="10.00">Urho3D::FileSelector</text>
<text text-anchor="middle" x="698" y="-53" font-family="FreeSans" font-size="10.00">::SetFilters</text>
</a>
</g>
<!-- Node5&#45;&gt;Node12 -->
<g id="edge28" class="edge"><title>Node5&#45;&gt;Node12</title>
<path fill="none" stroke="midnightblue" d="M430.237,-73.1901C491.953,-70.6109 582.404,-66.8309 640.748,-64.3926"/>
<polygon fill="midnightblue" stroke="midnightblue" points="430.053,-69.6946 420.208,-73.6092 430.345,-76.6885 430.053,-69.6946"/>
</g>
<!-- Node13 -->
<g id="node29" class="node"><title>Node13</title>
<a xlink:href="class_urho3_d_1_1_file_selector.html#a372b507fb35782c00d99ded29d4610f0" target="_top" xlink:title="Handle filter changed.">
<polygon fill="none" stroke="black" points="803,-0 803,-34 925,-34 925,-0 803,-0"/>
<text text-anchor="start" x="811" y="-21" font-family="FreeSans" font-size="10.00">Urho3D::FileSelector</text>
<text text-anchor="middle" x="864" y="-8" font-family="FreeSans" font-size="10.00">::HandleFilterChanged</text>
</a>
</g>
<!-- Node5&#45;&gt;Node13 -->
<g id="edge32" class="edge"><title>Node5&#45;&gt;Node13</title>
<path fill="none" stroke="midnightblue" d="M430.089,-65.082C485.679,-56.3147 566.819,-44.1614 638,-36 693.743,-29.6087 757.455,-24.4456 802.991,-21.1237"/>
<polygon fill="midnightblue" stroke="midnightblue" points="429.344,-61.6563 420.015,-66.6779 430.439,-68.5701 429.344,-61.6563"/>
</g>
<!-- Node7 -->
<g id="node13" class="node"><title>Node7</title>
<a xlink:href="class_urho3_d_1_1_file_selector.html#ae0e66de218b839be46c7f802abf04c80" target="_top" xlink:title="Construct.">
<polygon fill="none" stroke="black" points="970,-105 970,-139 1084,-139 1084,-105 970,-105"/>
<text text-anchor="start" x="978" y="-126" font-family="FreeSans" font-size="10.00">Urho3D::FileSelector</text>
<text text-anchor="middle" x="1027" y="-113" font-family="FreeSans" font-size="10.00">::FileSelector</text>
</a>
</g>
<!-- Node6&#45;&gt;Node7 -->
<g id="edge12" class="edge"><title>Node6&#45;&gt;Node7</title>
<path fill="none" stroke="midnightblue" d="M597.001,-136.39C598.725,-137.539 600.397,-138.742 602,-140 624.116,-157.35 614.499,-176.579 638,-192 697.101,-230.781 723.651,-216.078 794,-223 855.923,-229.093 877.017,-247.991 934,-223 973.074,-205.863 1002.97,-163.312 1017.43,-139.265"/>
<polygon fill="midnightblue" stroke="midnightblue" points="598.399,-133.151 588.008,-131.079 594.839,-139.178 598.399,-133.151"/>
</g>
<!-- Node8 -->
<g id="node15" class="node"><title>Node8</title>
<a xlink:href="class_urho3_d_1_1_file_selector.html#ac7c4c01759f09d23dd856c71a2cc1655" target="_top" xlink:title="Enter a directory or confirm a file. Return true if a directory entered.">
<polygon fill="none" stroke="black" points="641,-149 641,-183 755,-183 755,-149 641,-149"/>
<text text-anchor="start" x="649" y="-170" font-family="FreeSans" font-size="10.00">Urho3D::FileSelector</text>
<text text-anchor="middle" x="698" y="-157" font-family="FreeSans" font-size="10.00">::EnterFile</text>
</a>
</g>
<!-- Node6&#45;&gt;Node8 -->
<g id="edge14" class="edge"><title>Node6&#45;&gt;Node8</title>
<path fill="none" stroke="midnightblue" d="M597.648,-134.181C613.023,-139.056 629.306,-144.219 644.18,-148.935"/>
<polygon fill="midnightblue" stroke="midnightblue" points="598.29,-130.713 587.7,-131.027 596.174,-137.386 598.29,-130.713"/>
</g>
<!-- Node11 -->
<g id="node23" class="node"><title>Node11</title>
<a xlink:href="class_urho3_d_1_1_file_selector.html#ac07a78273e7db4a6d4ab33d807c072f7" target="_top" xlink:title="Handle path edited.">
<polygon fill="none" stroke="black" points="638,-97 638,-131 758,-131 758,-97 638,-97"/>
<text text-anchor="start" x="646" y="-118" font-family="FreeSans" font-size="10.00">Urho3D::FileSelector</text>
<text text-anchor="middle" x="698" y="-105" font-family="FreeSans" font-size="10.00">::HandlePathChanged</text>
</a>
</g>
<!-- Node6&#45;&gt;Node11 -->
<g id="edge24" class="edge"><title>Node6&#45;&gt;Node11</title>
<path fill="none" stroke="midnightblue" d="M601.391,-114C613.485,-114 626.017,-114 637.889,-114"/>
<polygon fill="midnightblue" stroke="midnightblue" points="601.359,-110.5 591.359,-114 601.359,-117.5 601.359,-110.5"/>
</g>
<!-- Node9 -->
<g id="node17" class="node"><title>Node9</title>
<a xlink:href="class_urho3_d_1_1_file_selector.html#a004ed41fadc3029706a35857268bfdaf" target="_top" xlink:title="Handle file doubleclicked from the list (enter directory / OK the file selection.)">
<polygon fill="none" stroke="black" points="794.5,-180 794.5,-214 933.5,-214 933.5,-180 794.5,-180"/>
<text text-anchor="start" x="802.5" y="-201" font-family="FreeSans" font-size="10.00">Urho3D::FileSelector</text>
<text text-anchor="middle" x="864" y="-188" font-family="FreeSans" font-size="10.00">::HandleFileDoubleClicked</text>
</a>
</g>
<!-- Node8&#45;&gt;Node9 -->
<g id="edge16" class="edge"><title>Node8&#45;&gt;Node9</title>
<path fill="none" stroke="midnightblue" d="M765.075,-178.526C774.747,-180.332 784.718,-182.194 794.437,-184.009"/>
<polygon fill="midnightblue" stroke="midnightblue" points="765.6,-175.064 755.128,-176.668 764.315,-181.945 765.6,-175.064"/>
</g>
<!-- Node10 -->
<g id="node20" class="node"><title>Node10</title>
<a xlink:href="class_urho3_d_1_1_file_selector.html#a5315d211e3108ad4012c648d1cbd3b6a" target="_top" xlink:title="Handle file list key pressed.">
<polygon fill="none" stroke="black" points="807,-128 807,-162 921,-162 921,-128 807,-128"/>
<text text-anchor="start" x="815" y="-149" font-family="FreeSans" font-size="10.00">Urho3D::FileSelector</text>
<text text-anchor="middle" x="864" y="-136" font-family="FreeSans" font-size="10.00">::HandleFileListKey</text>
</a>
</g>
<!-- Node8&#45;&gt;Node10 -->
<g id="edge20" class="edge"><title>Node8&#45;&gt;Node10</title>
<path fill="none" stroke="midnightblue" d="M765.064,-157.516C778.89,-155.767 793.328,-153.94 806.767,-152.24"/>
<polygon fill="midnightblue" stroke="midnightblue" points="764.609,-154.046 755.128,-158.773 765.488,-160.99 764.609,-154.046"/>
</g>
<!-- Node9&#45;&gt;Node7 -->
<g id="edge18" class="edge"><title>Node9&#45;&gt;Node7</title>
<path fill="none" stroke="midnightblue" d="M922.059,-176.101C926.124,-174.434 930.139,-172.726 934,-171 955.494,-161.394 978.94,-149.027 996.914,-139.121"/>
<polygon fill="midnightblue" stroke="midnightblue" points="920.519,-172.947 912.529,-179.905 923.114,-179.448 920.519,-172.947"/>
</g>
<!-- Node10&#45;&gt;Node7 -->
<g id="edge22" class="edge"><title>Node10&#45;&gt;Node7</title>
<path fill="none" stroke="midnightblue" d="M931.157,-135.524C943.973,-133.716 957.277,-131.838 969.747,-130.079"/>
<polygon fill="midnightblue" stroke="midnightblue" points="930.422,-132.093 921.009,-136.956 931.4,-139.024 930.422,-132.093"/>
</g>
<!-- Node11&#45;&gt;Node7 -->
<g id="edge26" class="edge"><title>Node11&#45;&gt;Node7</title>
<path fill="none" stroke="midnightblue" d="M768.206,-115.284C815.144,-116.193 878.277,-117.511 934,-119 945.627,-119.311 958.07,-119.684 969.951,-120.06"/>
<polygon fill="midnightblue" stroke="midnightblue" points="768.21,-111.784 758.144,-115.091 768.075,-118.782 768.21,-111.784"/>
</g>
<!-- Node12&#45;&gt;Node7 -->
<g id="edge30" class="edge"><title>Node12&#45;&gt;Node7</title>
<path fill="none" stroke="midnightblue" d="M765.478,-74.3059C825.703,-85.2892 912.927,-101.196 969.798,-111.568"/>
<polygon fill="midnightblue" stroke="midnightblue" points="765.773,-70.8022 755.307,-72.4512 764.517,-77.6886 765.773,-70.8022"/>
</g>
<!-- Node13&#45;&gt;Node7 -->
<g id="edge34" class="edge"><title>Node13&#45;&gt;Node7</title>
<path fill="none" stroke="midnightblue" d="M916.524,-38.4909C922.534,-41.4661 928.479,-44.6566 934,-48 961.71,-64.7802 990.41,-88.8109 1008.46,-104.888"/>
<polygon fill="midnightblue" stroke="midnightblue" points="917.612,-35.133 907.078,-34.0016 914.607,-41.4553 917.612,-35.133"/>
</g>
</g>
</svg>
