<?xml version="1.0" encoding="UTF-8" standalone="no"?>
<!DOCTYPE svg PUBLIC "-//W3C//DTD SVG 1.1//EN"
 "http://www.w3.org/Graphics/SVG/1.1/DTD/svg11.dtd">
<!-- Generated by graphviz version 2.26.3 (20100126.1600)
 -->
<!-- Title: Urho3D::ListBase Pages: 1 -->
<svg width="268pt" height="238pt"
 viewBox="0.00 0.00 268.00 238.00" xmlns="http://www.w3.org/2000/svg" xmlns:xlink="http://www.w3.org/1999/xlink">
<g id="graph1" class="graph" transform="scale(1 1) rotate(0) translate(4 234)">
<title>Urho3D::ListBase</title>
<!-- Node1 -->
<g id="node1" class="node"><title>Node1</title>
<polygon fill="#bfbfbf" stroke="black" points="0,-98.5 0,-119.5 100,-119.5 100,-98.5 0,-98.5"/>
<text text-anchor="middle" x="50" y="-106.5" font-family="FreeSans" font-size="10.00">Urho3D::ListBase</text>
</g>
<!-- Node2 -->
<g id="node3" class="node"><title>Node2</title>
<a xlink:href="class_urho3_d_1_1_list.html" target="_top" xlink:title="Urho3D::List\&lt; Urho3D\l::Decal \&gt;">
<polygon fill="none" stroke="black" points="136,-196 136,-230 260,-230 260,-196 136,-196"/>
<text text-anchor="start" x="144" y="-217" font-family="FreeSans" font-size="10.00">Urho3D::List&lt; Urho3D</text>
<text text-anchor="middle" x="198" y="-204" font-family="FreeSans" font-size="10.00">::Decal &gt;</text>
</a>
</g>
<!-- Node1&#45;&gt;Node2 -->
<g id="edge2" class="edge"><title>Node1&#45;&gt;Node2</title>
<path fill="none" stroke="midnightblue" d="M66.5764,-127.261C82.9173,-144.433 109.258,-169.977 136,-187 141.12,-190.259 146.718,-193.267 152.389,-195.991"/>
<polygon fill="midnightblue" stroke="midnightblue" points="68.7838,-124.497 59.4,-119.578 63.6682,-129.275 68.7838,-124.497"/>
</g>
<!-- Node3 -->
<g id="node5" class="node"><title>Node3</title>
<a xlink:href="class_urho3_d_1_1_list.html" target="_top" xlink:title="Urho3D::List\&lt; Urho3D\l::String \&gt;">
<polygon fill="none" stroke="black" points="136,-144 136,-178 260,-178 260,-144 136,-144"/>
<text text-anchor="start" x="144" y="-165" font-family="FreeSans" font-size="10.00">Urho3D::List&lt; Urho3D</text>
<text text-anchor="middle" x="198" y="-152" font-family="FreeSans" font-size="10.00">::String &gt;</text>
</a>
</g>
<!-- Node1&#45;&gt;Node3 -->
<g id="edge4" class="edge"><title>Node1&#45;&gt;Node3</title>
<path fill="none" stroke="midnightblue" d="M89.4903,-122.875C107.914,-129.348 130.015,-137.113 149.45,-143.942"/>
<polygon fill="midnightblue" stroke="midnightblue" points="90.5448,-119.536 79.95,-119.523 88.2244,-126.14 90.5448,-119.536"/>
</g>
<!-- Node4 -->
<g id="node7" class="node"><title>Node4</title>
<a xlink:href="class_urho3_d_1_1_list.html" target="_top" xlink:title="Urho3D::List\&lt; Urho3D\l::WorkItem * \&gt;">
<polygon fill="none" stroke="black" points="136,-92 136,-126 260,-126 260,-92 136,-92"/>
<text text-anchor="start" x="144" y="-113" font-family="FreeSans" font-size="10.00">Urho3D::List&lt; Urho3D</text>
<text text-anchor="middle" x="198" y="-100" font-family="FreeSans" font-size="10.00">::WorkItem * &gt;</text>
</a>
</g>
<!-- Node1&#45;&gt;Node4 -->
<g id="edge6" class="edge"><title>Node1&#45;&gt;Node4</title>
<path fill="none" stroke="midnightblue" d="M110.254,-109C118.699,-109 127.392,-109 135.871,-109"/>
<polygon fill="midnightblue" stroke="midnightblue" points="110.106,-105.5 100.106,-109 110.106,-112.5 110.106,-105.5"/>
</g>
<!-- Node5 -->
<g id="node9" class="node"><title>Node5</title>
<a xlink:href="class_urho3_d_1_1_list.html" target="_top" xlink:title="Urho3D::List\&lt; Urho3D\l::WorkItem \&gt;">
<polygon fill="none" stroke="black" points="136,-40 136,-74 260,-74 260,-40 136,-40"/>
<text text-anchor="start" x="144" y="-61" font-family="FreeSans" font-size="10.00">Urho3D::List&lt; Urho3D</text>
<text text-anchor="middle" x="198" y="-48" font-family="FreeSans" font-size="10.00">::WorkItem &gt;</text>
</a>
</g>
<!-- Node1&#45;&gt;Node5 -->
<g id="edge8" class="edge"><title>Node1&#45;&gt;Node5</title>
<path fill="none" stroke="midnightblue" d="M89.4903,-95.125C107.914,-88.6518 130.015,-80.8866 149.45,-74.0582"/>
<polygon fill="midnightblue" stroke="midnightblue" points="88.2244,-91.86 79.95,-98.477 90.5448,-98.4642 88.2244,-91.86"/>
</g>
<!-- Node6 -->
<g id="node11" class="node"><title>Node6</title>
<a xlink:href="class_urho3_d_1_1_list.html" target="_top" xlink:title="Doubly&#45;linked list template class.">
<polygon fill="none" stroke="black" points="146,-0.5 146,-21.5 250,-21.5 250,-0.5 146,-0.5"/>
<text text-anchor="middle" x="198" y="-8.5" font-family="FreeSans" font-size="10.00">Urho3D::List&lt; T &gt;</text>
</a>
</g>
<!-- Node1&#45;&gt;Node6 -->
<g id="edge10" class="edge"><title>Node1&#45;&gt;Node6</title>
<path fill="none" stroke="midnightblue" d="M66.0011,-90.5113C82.0917,-72.9605 108.409,-46.9572 136,-31 142.462,-27.2628 149.713,-24.1233 156.916,-21.5216"/>
<polygon fill="midnightblue" stroke="midnightblue" points="63.0289,-88.5836 58.9628,-98.3672 68.2425,-93.2547 63.0289,-88.5836"/>
</g>
</g>
</svg>
