<?xml version="1.0" encoding="UTF-8" standalone="no"?>
<!DOCTYPE svg PUBLIC "-//W3C//DTD SVG 1.1//EN"
 "http://www.w3.org/Graphics/SVG/1.1/DTD/svg11.dtd">
<!-- Generated by graphviz version 2.26.3 (20100126.1600)
 -->
<!-- Title: Urho3D::Thread Pages: 1 -->
<svg width="262pt" height="88pt"
 viewBox="0.00 0.00 262.00 88.00" xmlns="http://www.w3.org/2000/svg" xmlns:xlink="http://www.w3.org/1999/xlink">
<g id="graph1" class="graph" transform="scale(1 1) rotate(0) translate(4 84)">
<title>Urho3D::Thread</title>
<!-- Node1 -->
<g id="node1" class="node"><title>Node1</title>
<polygon fill="#bfbfbf" stroke="black" points="78,-58.5 78,-79.5 170,-79.5 170,-58.5 78,-58.5"/>
<text text-anchor="middle" x="124" y="-66.5" font-family="FreeSans" font-size="10.00">Urho3D::Thread</text>
</g>
<!-- Node2 -->
<g id="node3" class="node"><title>Node2</title>
<a xlink:href="class_urho3_d_1_1_file_watcher.html" target="_top" xlink:title="Watches a directory and its subdirectories for files being modified.">
<polygon fill="none" stroke="black" points="-0.5,-0.5 -0.5,-21.5 112.5,-21.5 112.5,-0.5 -0.5,-0.5"/>
<text text-anchor="middle" x="56" y="-8.5" font-family="FreeSans" font-size="10.00">Urho3D::FileWatcher</text>
</a>
</g>
<!-- Node1&#45;&gt;Node2 -->
<g id="edge2" class="edge"><title>Node1&#45;&gt;Node2</title>
<path fill="none" stroke="midnightblue" d="M103.706,-51.6908C92.2271,-41.8996 78.2442,-29.973 68.3932,-21.5707"/>
<polygon fill="midnightblue" stroke="midnightblue" points="101.648,-54.5353 111.528,-58.3619 106.191,-49.2095 101.648,-54.5353"/>
</g>
<!-- Node3 -->
<g id="node5" class="node"><title>Node3</title>
<a xlink:title="Worker thread managed by the work queue.">
<polygon fill="none" stroke="#bfbfbf" points="129.5,-0.5 129.5,-21.5 254.5,-21.5 254.5,-0.5 129.5,-0.5"/>
<text text-anchor="middle" x="192" y="-8.5" font-family="FreeSans" font-size="10.00">Urho3D::WorkerThread</text>
</a>
</g>
<!-- Node1&#45;&gt;Node3 -->
<g id="edge4" class="edge"><title>Node1&#45;&gt;Node3</title>
<path fill="none" stroke="midnightblue" d="M144.294,-51.6908C155.773,-41.8996 169.756,-29.973 179.607,-21.5707"/>
<polygon fill="midnightblue" stroke="midnightblue" points="141.809,-49.2095 136.472,-58.3619 146.352,-54.5353 141.809,-49.2095"/>
</g>
</g>
</svg>
