<?xml version="1.0" encoding="UTF-8" standalone="no"?>
<!DOCTYPE svg PUBLIC "-//W3C//DTD SVG 1.1//EN"
 "http://www.w3.org/Graphics/SVG/1.1/DTD/svg11.dtd">
<!-- Generated by graphviz version 2.26.3 (20100126.1600)
 -->
<!-- Title: Urho3D::AnimatedModel::UpdateBoneBoundingBox Pages: 1 -->
<svg width="494pt" height="94pt"
 viewBox="0.00 0.00 494.00 94.00" xmlns="http://www.w3.org/2000/svg" xmlns:xlink="http://www.w3.org/1999/xlink">
<g id="graph1" class="graph" transform="scale(1 1) rotate(0) translate(4 90)">
<title>Urho3D::AnimatedModel::UpdateBoneBoundingBox</title>
<!-- Node1 -->
<g id="node1" class="node"><title>Node1</title>
<polygon fill="#bfbfbf" stroke="black" points="0,-26 0,-60 146,-60 146,-26 0,-26"/>
<text text-anchor="start" x="8" y="-47" font-family="FreeSans" font-size="10.00">Urho3D::AnimatedModel</text>
<text text-anchor="middle" x="73" y="-34" font-family="FreeSans" font-size="10.00">::UpdateBoneBoundingBox</text>
</g>
<!-- Node2 -->
<g id="node3" class="node"><title>Node2</title>
<a xlink:href="class_urho3_d_1_1_animated_model.html#ae78d0e2c3f1d73b0f950e83796748058" target="_top" xlink:title="Prepare geometry for rendering. Called from a worker thread if possible (no GPU update.)">
<polygon fill="none" stroke="black" points="182,-52 182,-86 316,-86 316,-52 182,-52"/>
<text text-anchor="start" x="190" y="-73" font-family="FreeSans" font-size="10.00">Urho3D::AnimatedModel</text>
<text text-anchor="middle" x="249" y="-60" font-family="FreeSans" font-size="10.00">::UpdateGeometry</text>
</a>
</g>
<!-- Node1&#45;&gt;Node2 -->
<g id="edge2" class="edge"><title>Node1&#45;&gt;Node2</title>
<path fill="none" stroke="midnightblue" d="M156.14,-55.282C164.723,-56.5501 173.369,-57.8273 181.749,-59.0652"/>
<polygon fill="midnightblue" stroke="midnightblue" points="156.515,-51.7995 146.111,-53.8005 155.492,-58.7244 156.515,-51.7995"/>
</g>
<!-- Node3 -->
<g id="node5" class="node"><title>Node3</title>
<a xlink:href="class_urho3_d_1_1_animated_model.html#a4490aea6f65d9c5c617f8f6a4f762401" target="_top" xlink:title="Recalculate animations. Called from Update().">
<polygon fill="none" stroke="black" points="182,-0 182,-34 316,-34 316,-0 182,-0"/>
<text text-anchor="start" x="190" y="-21" font-family="FreeSans" font-size="10.00">Urho3D::AnimatedModel</text>
<text text-anchor="middle" x="249" y="-8" font-family="FreeSans" font-size="10.00">::UpdateAnimation</text>
</a>
</g>
<!-- Node1&#45;&gt;Node3 -->
<g id="edge4" class="edge"><title>Node1&#45;&gt;Node3</title>
<path fill="none" stroke="midnightblue" d="M156.14,-30.718C164.723,-29.4499 173.369,-28.1727 181.749,-26.9348"/>
<polygon fill="midnightblue" stroke="midnightblue" points="155.492,-27.2756 146.111,-32.1995 156.515,-34.2005 155.492,-27.2756"/>
</g>
<!-- Node4 -->
<g id="node7" class="node"><title>Node4</title>
<a xlink:href="class_urho3_d_1_1_animated_model.html#a9ea4b851811b37bb2ef96a0f91b360a3" target="_top" xlink:title="Update before octree reinsertion. Is called from a worker thread.">
<polygon fill="none" stroke="black" points="352,-0 352,-34 486,-34 486,-0 352,-0"/>
<text text-anchor="start" x="360" y="-21" font-family="FreeSans" font-size="10.00">Urho3D::AnimatedModel</text>
<text text-anchor="middle" x="419" y="-8" font-family="FreeSans" font-size="10.00">::Update</text>
</a>
</g>
<!-- Node3&#45;&gt;Node4 -->
<g id="edge6" class="edge"><title>Node3&#45;&gt;Node4</title>
<path fill="none" stroke="midnightblue" d="M326.425,-17C334.876,-17 343.428,-17 351.743,-17"/>
<polygon fill="midnightblue" stroke="midnightblue" points="326.189,-13.5001 316.189,-17 326.188,-20.5001 326.189,-13.5001"/>
</g>
</g>
</svg>
