<?xml version="1.0" encoding="UTF-8" standalone="no"?>
<!DOCTYPE svg PUBLIC "-//W3C//DTD SVG 1.1//EN"
 "http://www.w3.org/Graphics/SVG/1.1/DTD/svg11.dtd">
<!-- Generated by graphviz version 2.26.3 (20100126.1600)
 -->
<!-- Title: Urho3D::FileSystem::GetProgramDir Pages: 1 -->
<svg width="894pt" height="887pt"
 viewBox="0.00 0.00 894.00 887.00" xmlns="http://www.w3.org/2000/svg" xmlns:xlink="http://www.w3.org/1999/xlink">
<g id="graph1" class="graph" transform="scale(1 1) rotate(0) translate(4 883)">
<title>Urho3D::FileSystem::GetProgramDir</title>
<!-- Node1 -->
<g id="node1" class="node"><title>Node1</title>
<polygon fill="#bfbfbf" stroke="black" points="0.5,-643 0.5,-677 111.5,-677 111.5,-643 0.5,-643"/>
<text text-anchor="start" x="8.5" y="-664" font-family="FreeSans" font-size="10.00">Urho3D::FileSystem</text>
<text text-anchor="middle" x="56" y="-651" font-family="FreeSans" font-size="10.00">::GetProgramDir</text>
</g>
<!-- Node2 -->
<g id="node3" class="node"><title>Node2</title>
<a xlink:href="class_urho3_d_1_1_resource_cache.html#acaf617b205d693cd493febfc01c330a8" target="_top" xlink:title="Remove unsupported constructs from the resource name to prevent ambiguity, and normalize absolute fil...">
<polygon fill="none" stroke="black" points="148,-643 148,-677 284,-677 284,-643 148,-643"/>
<text text-anchor="start" x="156" y="-664" font-family="FreeSans" font-size="10.00">Urho3D::ResourceCache</text>
<text text-anchor="middle" x="216" y="-651" font-family="FreeSans" font-size="10.00">::SanitateResourceName</text>
</a>
</g>
<!-- Node1&#45;&gt;Node2 -->
<g id="edge2" class="edge"><title>Node1&#45;&gt;Node2</title>
<path fill="none" stroke="midnightblue" d="M121.57,-660C130.253,-660 139.17,-660 147.894,-660"/>
<polygon fill="midnightblue" stroke="midnightblue" points="121.511,-656.5 111.511,-660 121.511,-663.5 121.511,-656.5"/>
</g>
<!-- Node3 -->
<g id="node5" class="node"><title>Node3</title>
<a xlink:href="class_urho3_d_1_1_resource_cache.html#a21a4cb02435d1721c18ddc25f34a7231" target="_top" xlink:title="Open and return a file from the resource load paths or from inside a package file. If not found, use a fallback search with absolute path. Return null if fails.">
<polygon fill="none" stroke="black" points="517.5,-746 517.5,-780 650.5,-780 650.5,-746 517.5,-746"/>
<text text-anchor="start" x="525.5" y="-767" font-family="FreeSans" font-size="10.00">Urho3D::ResourceCache</text>
<text text-anchor="middle" x="584" y="-754" font-family="FreeSans" font-size="10.00">::GetFile</text>
</a>
</g>
<!-- Node2&#45;&gt;Node3 -->
<g id="edge4" class="edge"><title>Node2&#45;&gt;Node3</title>
<path fill="none" stroke="midnightblue" d="M286.623,-679.767C355.17,-698.952 458.119,-727.767 523.142,-745.966"/>
<polygon fill="midnightblue" stroke="midnightblue" points="287.341,-676.333 276.768,-677.008 285.454,-683.074 287.341,-676.333"/>
</g>
<!-- Node9 -->
<g id="node17" class="node"><title>Node9</title>
<a xlink:href="class_urho3_d_1_1_resource_cache.html#a294b31f0b88a9987f6c1fadbd07eea41" target="_top" xlink:title="Return a resource by type and name. Load if not loaded yet. Return null if fails.">
<polygon fill="none" stroke="red" points="320.5,-352 320.5,-386 453.5,-386 453.5,-352 320.5,-352"/>
<text text-anchor="start" x="328.5" y="-373" font-family="FreeSans" font-size="10.00">Urho3D::ResourceCache</text>
<text text-anchor="middle" x="387" y="-360" font-family="FreeSans" font-size="10.00">::GetResource</text>
</a>
</g>
<!-- Node2&#45;&gt;Node9 -->
<g id="edge16" class="edge"><title>Node2&#45;&gt;Node9</title>
<path fill="none" stroke="midnightblue" d="M231.263,-634.026C265.578,-575.63 348.065,-435.257 376.869,-386.241"/>
<polygon fill="midnightblue" stroke="midnightblue" points="228.234,-632.273 226.185,-642.668 234.269,-635.82 228.234,-632.273"/>
</g>
<!-- Node25 -->
<g id="node50" class="node"><title>Node25</title>
<a xlink:href="class_urho3_d_1_1_resource_cache.html#a94659e6c04c0bb9791019913b7866252" target="_top" xlink:title="Return whether a file exists by name.">
<polygon fill="none" stroke="red" points="320.5,-643 320.5,-677 453.5,-677 453.5,-643 320.5,-643"/>
<text text-anchor="start" x="328.5" y="-664" font-family="FreeSans" font-size="10.00">Urho3D::ResourceCache</text>
<text text-anchor="middle" x="387" y="-651" font-family="FreeSans" font-size="10.00">::Exists</text>
</a>
</g>
<!-- Node2&#45;&gt;Node25 -->
<g id="edge50" class="edge"><title>Node2&#45;&gt;Node25</title>
<path fill="none" stroke="midnightblue" d="M294.224,-660C302.928,-660 311.733,-660 320.275,-660"/>
<polygon fill="midnightblue" stroke="midnightblue" points="294.075,-656.5 284.075,-660 294.075,-663.5 294.075,-656.5"/>
</g>
<!-- Node4 -->
<g id="node7" class="node"><title>Node4</title>
<a xlink:href="class_urho3_d_1_1_shader.html#a461d39b561d39f3a791d42b0ff434bc4" target="_top" xlink:title="Process source code and include files. Return true if successful.">
<polygon fill="none" stroke="red" points="714.5,-661.5 714.5,-682.5 885.5,-682.5 885.5,-661.5 714.5,-661.5"/>
<text text-anchor="middle" x="800" y="-669.5" font-family="FreeSans" font-size="10.00">Urho3D::Shader::ProcessSource</text>
</a>
</g>
<!-- Node3&#45;&gt;Node4 -->
<g id="edge6" class="edge"><title>Node3&#45;&gt;Node4</title>
<path fill="none" stroke="midnightblue" d="M618.924,-740.523C644.408,-724.982 680.253,-704.864 714,-692 723.74,-688.287 734.374,-685.136 744.739,-682.509"/>
<polygon fill="midnightblue" stroke="midnightblue" points="617.032,-737.578 610.362,-745.81 620.71,-743.534 617.032,-737.578"/>
</g>
<!-- Node5 -->
<g id="node9" class="node"><title>Node5</title>
<a xlink:href="class_urho3_d_1_1_resource_cache.html#a95d38fca7d46be128efaa865acad0ec3" target="_top" xlink:title="Reload a resource. Return false and release it if fails.">
<polygon fill="none" stroke="red" points="733.5,-845 733.5,-879 866.5,-879 866.5,-845 733.5,-845"/>
<text text-anchor="start" x="741.5" y="-866" font-family="FreeSans" font-size="10.00">Urho3D::ResourceCache</text>
<text text-anchor="middle" x="800" y="-853" font-family="FreeSans" font-size="10.00">::ReloadResource</text>
</a>
</g>
<!-- Node3&#45;&gt;Node5 -->
<g id="edge8" class="edge"><title>Node3&#45;&gt;Node5</title>
<path fill="none" stroke="midnightblue" d="M619.108,-785.488C644.68,-801.17 680.555,-821.756 714,-836 721.606,-839.239 729.749,-842.252 737.88,-844.992"/>
<polygon fill="midnightblue" stroke="midnightblue" points="620.858,-782.455 610.513,-780.164 617.171,-788.405 620.858,-782.455"/>
</g>
<!-- Node6 -->
<g id="node11" class="node"><title>Node6</title>
<a xlink:href="class_urho3_d_1_1_resource_cache.html#a95a3d962a9a6b858b992bf95fbe856d3" target="_top" xlink:title="Return a resource by type and name hash. Load if not loaded yet. Return null if fails.">
<polygon fill="none" stroke="black" points="733.5,-793 733.5,-827 866.5,-827 866.5,-793 733.5,-793"/>
<text text-anchor="start" x="741.5" y="-814" font-family="FreeSans" font-size="10.00">Urho3D::ResourceCache</text>
<text text-anchor="middle" x="800" y="-801" font-family="FreeSans" font-size="10.00">::GetResource</text>
</a>
</g>
<!-- Node3&#45;&gt;Node6 -->
<g id="edge10" class="edge"><title>Node3&#45;&gt;Node6</title>
<path fill="none" stroke="midnightblue" d="M660.59,-779.665C684.322,-784.829 710.271,-790.476 733.278,-795.482"/>
<polygon fill="midnightblue" stroke="midnightblue" points="661.085,-776.191 650.57,-777.485 659.597,-783.031 661.085,-776.191"/>
</g>
<!-- Node7 -->
<g id="node13" class="node"><title>Node7</title>
<a xlink:href="class_urho3_d_1_1_script_file.html#a907ea2dc2ef7b59cc6e5990ebc4d1a3a" target="_top" xlink:title="Add a script section, checking for includes recursively. Return true if successful.">
<polygon fill="none" stroke="red" points="747.5,-701 747.5,-735 852.5,-735 852.5,-701 747.5,-701"/>
<text text-anchor="start" x="755.5" y="-722" font-family="FreeSans" font-size="10.00">Urho3D::ScriptFile</text>
<text text-anchor="middle" x="800" y="-709" font-family="FreeSans" font-size="10.00">::AddScriptSection</text>
</a>
</g>
<!-- Node3&#45;&gt;Node7 -->
<g id="edge12" class="edge"><title>Node3&#45;&gt;Node7</title>
<path fill="none" stroke="midnightblue" d="M660.579,-747.046C689.304,-741.062 721.277,-734.401 747.351,-728.968"/>
<polygon fill="midnightblue" stroke="midnightblue" points="659.646,-743.665 650.57,-749.131 661.073,-750.518 659.646,-743.665"/>
</g>
<!-- Node8 -->
<g id="node15" class="node"><title>Node8</title>
<a xlink:href="class_urho3_d_1_1_font.html#a692d4dd086e44b3aeba0b4d7018607df" target="_top" xlink:title="Return bitmap font face. Called internally. Return null on error.">
<polygon fill="none" stroke="black" points="720,-753.5 720,-774.5 880,-774.5 880,-753.5 720,-753.5"/>
<text text-anchor="middle" x="800" y="-761.5" font-family="FreeSans" font-size="10.00">Urho3D::Font::GetFaceBitmap</text>
</a>
</g>
<!-- Node3&#45;&gt;Node8 -->
<g id="edge14" class="edge"><title>Node3&#45;&gt;Node8</title>
<path fill="none" stroke="midnightblue" d="M660.768,-763.355C679.973,-763.444 700.618,-763.54 719.976,-763.63"/>
<polygon fill="midnightblue" stroke="midnightblue" points="660.586,-759.855 650.57,-763.308 660.553,-766.855 660.586,-759.855"/>
</g>
<!-- Node10 -->
<g id="node19" class="node"><title>Node10</title>
<a xlink:href="class_urho3_d_1_1_sound.html#a0cffb726ad05a4aceb253bea58dfd732" target="_top" xlink:title="Load optional parameters from an XML file.">
<polygon fill="none" stroke="red" points="496.5,-630.5 496.5,-651.5 671.5,-651.5 671.5,-630.5 496.5,-630.5"/>
<text text-anchor="middle" x="584" y="-638.5" font-family="FreeSans" font-size="10.00">Urho3D::Sound::LoadParameters</text>
</a>
</g>
<!-- Node9&#45;&gt;Node10 -->
<g id="edge18" class="edge"><title>Node9&#45;&gt;Node10</title>
<path fill="none" stroke="midnightblue" d="M389.899,-396.439C396.949,-448.678 419.918,-562.423 490,-621 494.481,-624.745 499.493,-627.84 504.808,-630.392"/>
<polygon fill="midnightblue" stroke="midnightblue" points="393.341,-395.754 388.626,-386.267 386.395,-396.624 393.341,-395.754"/>
</g>
<!-- Node11 -->
<g id="node21" class="node"><title>Node11</title>
<a xlink:href="class_urho3_d_1_1_sound_source.html#ad28b5e2f6a8192403cf34535f0a6dd74" target="_top" xlink:title="Set sound attribute.">
<polygon fill="none" stroke="red" points="522,-248 522,-282 646,-282 646,-248 522,-248"/>
<text text-anchor="start" x="530" y="-269" font-family="FreeSans" font-size="10.00">Urho3D::SoundSource</text>
<text text-anchor="middle" x="584" y="-256" font-family="FreeSans" font-size="10.00">::SetSoundAttr</text>
</a>
</g>
<!-- Node9&#45;&gt;Node11 -->
<g id="edge20" class="edge"><title>Node9&#45;&gt;Node11</title>
<path fill="none" stroke="midnightblue" d="M415.159,-345.543C435.078,-329.853 462.951,-309.657 490,-296 500.431,-290.733 511.953,-286.077 523.25,-282.079"/>
<polygon fill="midnightblue" stroke="midnightblue" points="412.76,-342.98 407.136,-351.959 417.132,-348.447 412.76,-342.98"/>
</g>
<!-- Node12 -->
<g id="node23" class="node"><title>Node12</title>
<a xlink:href="class_urho3_d_1_1_engine.html#ae686bb22644561e57a4aaef3f8665c0e" target="_top" xlink:title="Initialize engine using parameters given and show the application window. Return true if successful...">
<polygon fill="none" stroke="black" points="516,-208.5 516,-229.5 652,-229.5 652,-208.5 516,-208.5"/>
<text text-anchor="middle" x="584" y="-216.5" font-family="FreeSans" font-size="10.00">Urho3D::Engine::Initialize</text>
</a>
</g>
<!-- Node9&#45;&gt;Node12 -->
<g id="edge22" class="edge"><title>Node9&#45;&gt;Node12</title>
<path fill="none" stroke="midnightblue" d="M400.352,-342.911C417.102,-312.94 448.71,-264.611 490,-239 497.798,-234.163 506.584,-230.481 515.574,-227.681"/>
<polygon fill="midnightblue" stroke="midnightblue" points="397.142,-341.487 395.442,-351.944 403.292,-344.83 397.142,-341.487"/>
</g>
<!-- Node13 -->
<g id="node25" class="node"><title>Node13</title>
<a xlink:href="class_urho3_d_1_1_animated_model.html#a7b879933855254af2c3cee548270c628" target="_top" xlink:title="Set model attribute.">
<polygon fill="none" stroke="red" points="517,-156 517,-190 651,-190 651,-156 517,-156"/>
<text text-anchor="start" x="525" y="-177" font-family="FreeSans" font-size="10.00">Urho3D::AnimatedModel</text>
<text text-anchor="middle" x="584" y="-164" font-family="FreeSans" font-size="10.00">::SetModelAttr</text>
</a>
</g>
<!-- Node9&#45;&gt;Node13 -->
<g id="edge24" class="edge"><title>Node9&#45;&gt;Node13</title>
<path fill="none" stroke="midnightblue" d="M396.053,-342.041C410.119,-304.312 440.832,-236.219 490,-199 497.965,-192.97 507.252,-188.339 516.828,-184.782"/>
<polygon fill="midnightblue" stroke="midnightblue" points="392.625,-341.232 392.526,-351.826 399.21,-343.606 392.625,-341.232"/>
</g>
<!-- Node14 -->
<g id="node27" class="node"><title>Node14</title>
<a xlink:href="class_urho3_d_1_1_animated_model.html#abf556bc7a22151cd04fec0488c6aa295" target="_top" xlink:title="Set animation states attribute.">
<polygon fill="none" stroke="red" points="515.5,-104 515.5,-138 652.5,-138 652.5,-104 515.5,-104"/>
<text text-anchor="start" x="523.5" y="-125" font-family="FreeSans" font-size="10.00">Urho3D::AnimatedModel</text>
<text text-anchor="middle" x="584" y="-112" font-family="FreeSans" font-size="10.00">::SetAnimationStatesAttr</text>
</a>
</g>
<!-- Node9&#45;&gt;Node14 -->
<g id="edge26" class="edge"><title>Node9&#45;&gt;Node14</title>
<path fill="none" stroke="midnightblue" d="M391.917,-341.857C401.854,-294.972 428.81,-198.867 490,-147 497.362,-140.759 506.106,-136.009 515.252,-132.394"/>
<polygon fill="midnightblue" stroke="midnightblue" points="388.443,-341.379 389.897,-351.873 395.305,-342.763 388.443,-341.379"/>
</g>
<!-- Node15 -->
<g id="node29" class="node"><title>Node15</title>
<a xlink:href="class_urho3_d_1_1_animation.html#a850c77ecbf76b1991887419ec2a11a63" target="_top" xlink:title="Load resource. Return true if successful.">
<polygon fill="none" stroke="black" points="515.5,-590.5 515.5,-611.5 652.5,-611.5 652.5,-590.5 515.5,-590.5"/>
<text text-anchor="middle" x="584" y="-598.5" font-family="FreeSans" font-size="10.00">Urho3D::Animation::Load</text>
</a>
</g>
<!-- Node9&#45;&gt;Node15 -->
<g id="edge28" class="edge"><title>Node9&#45;&gt;Node15</title>
<path fill="none" stroke="midnightblue" d="M392.204,-396.278C402.421,-441.996 429.591,-533.719 490,-581 497.489,-586.862 506.303,-591.104 515.481,-594.159"/>
<polygon fill="midnightblue" stroke="midnightblue" points="395.568,-395.269 390.066,-386.215 388.721,-396.725 395.568,-395.269"/>
</g>
<!-- Node16 -->
<g id="node31" class="node"><title>Node16</title>
<a xlink:href="class_urho3_d_1_1_animation_controller.html#a2e4d4486d8319316ec3da1af3c7c83b2" target="_top" xlink:title="Set node animation states attribute.">
<polygon fill="none" stroke="red" points="502.5,-52 502.5,-86 665.5,-86 665.5,-52 502.5,-52"/>
<text text-anchor="start" x="510.5" y="-73" font-family="FreeSans" font-size="10.00">Urho3D::AnimationController</text>
<text text-anchor="middle" x="584" y="-60" font-family="FreeSans" font-size="10.00">::SetNodeAnimationStatesAttr</text>
</a>
</g>
<!-- Node9&#45;&gt;Node16 -->
<g id="edge30" class="edge"><title>Node9&#45;&gt;Node16</title>
<path fill="none" stroke="midnightblue" d="M389.212,-341.924C395.174,-287.035 416.504,-162.181 490,-95 493.749,-91.5728 497.911,-88.5918 502.336,-85.9995"/>
<polygon fill="midnightblue" stroke="midnightblue" points="385.723,-341.632 388.213,-351.931 392.689,-342.328 385.723,-341.632"/>
</g>
<!-- Node17 -->
<g id="node33" class="node"><title>Node17</title>
<a xlink:href="class_urho3_d_1_1_billboard_set.html#a9cf484aa746b17a129075df4d5e02b97" target="_top" xlink:title="Set material attribute.">
<polygon fill="none" stroke="red" points="525.5,-0 525.5,-34 642.5,-34 642.5,-0 525.5,-0"/>
<text text-anchor="start" x="533.5" y="-21" font-family="FreeSans" font-size="10.00">Urho3D::BillboardSet</text>
<text text-anchor="middle" x="584" y="-8" font-family="FreeSans" font-size="10.00">::SetMaterialAttr</text>
</a>
</g>
<!-- Node9&#45;&gt;Node17 -->
<g id="edge32" class="edge"><title>Node9&#45;&gt;Node17</title>
<path fill="none" stroke="midnightblue" d="M392.135,-341.822C405.96,-271.398 445.909,-85.5237 490,-43 499.628,-33.7141 512.265,-27.6833 525.138,-23.783"/>
<polygon fill="midnightblue" stroke="midnightblue" points="388.684,-341.237 390.216,-351.72 395.556,-342.569 388.684,-341.237"/>
</g>
<!-- Node18 -->
<g id="node35" class="node"><title>Node18</title>
<a xlink:href="class_urho3_d_1_1_custom_geometry.html#a73e85590cb09dbe385bb75560fa71f4d" target="_top" xlink:title="Set materials attribute.">
<polygon fill="none" stroke="red" points="511.5,-498 511.5,-532 656.5,-532 656.5,-498 511.5,-498"/>
<text text-anchor="start" x="519.5" y="-519" font-family="FreeSans" font-size="10.00">Urho3D::CustomGeometry</text>
<text text-anchor="middle" x="584" y="-506" font-family="FreeSans" font-size="10.00">::SetMaterialsAttr</text>
</a>
</g>
<!-- Node9&#45;&gt;Node18 -->
<g id="edge34" class="edge"><title>Node9&#45;&gt;Node18</title>
<path fill="none" stroke="midnightblue" d="M402.484,-394.797C420.248,-422.192 451.891,-464.806 490,-489 496.576,-493.175 503.823,-496.688 511.289,-499.644"/>
<polygon fill="midnightblue" stroke="midnightblue" points="405.309,-392.716 397.002,-386.139 399.394,-396.46 405.309,-392.716"/>
</g>
<!-- Node19 -->
<g id="node37" class="node"><title>Node19</title>
<a xlink:href="class_urho3_d_1_1_decal_set.html#a8d320a46fc58cd71d965a39ea2838261" target="_top" xlink:title="Set material attribute.">
<polygon fill="none" stroke="red" points="493,-458.5 493,-479.5 675,-479.5 675,-458.5 493,-458.5"/>
<text text-anchor="middle" x="584" y="-466.5" font-family="FreeSans" font-size="10.00">Urho3D::DecalSet::SetMaterialAttr</text>
</a>
</g>
<!-- Node9&#45;&gt;Node19 -->
<g id="edge36" class="edge"><title>Node9&#45;&gt;Node19</title>
<path fill="none" stroke="midnightblue" d="M411.239,-393.027C430.87,-411.118 460.09,-435.101 490,-449 498.171,-452.797 507.077,-455.882 516.045,-458.386"/>
<polygon fill="midnightblue" stroke="midnightblue" points="413.631,-390.472 403.949,-386.171 408.836,-395.572 413.631,-390.472"/>
</g>
<!-- Node20 -->
<g id="node39" class="node"><title>Node20</title>
<a xlink:href="class_urho3_d_1_1_light.html#a497fcf23f39bebcfa5af9f3d15c8b48d" target="_top" xlink:title="Set ramp texture attribute.">
<polygon fill="none" stroke="red" points="491.5,-418.5 491.5,-439.5 676.5,-439.5 676.5,-418.5 491.5,-418.5"/>
<text text-anchor="middle" x="584" y="-426.5" font-family="FreeSans" font-size="10.00">Urho3D::Light::SetRampTextureAttr</text>
</a>
</g>
<!-- Node9&#45;&gt;Node20 -->
<g id="edge38" class="edge"><title>Node9&#45;&gt;Node20</title>
<path fill="none" stroke="midnightblue" d="M436.225,-389.972C453.076,-396.652 472.175,-403.68 490,-409 501.831,-412.531 514.677,-415.692 526.962,-418.401"/>
<polygon fill="midnightblue" stroke="midnightblue" points="437.173,-386.581 426.59,-386.095 434.56,-393.075 437.173,-386.581"/>
</g>
<!-- Node21 -->
<g id="node41" class="node"><title>Node21</title>
<a xlink:href="class_urho3_d_1_1_light.html#a1822450acd51aee95e648018319a7ef8" target="_top" xlink:title="Set shape texture attribute.">
<polygon fill="none" stroke="red" points="490,-378.5 490,-399.5 678,-399.5 678,-378.5 490,-378.5"/>
<text text-anchor="middle" x="584" y="-386.5" font-family="FreeSans" font-size="10.00">Urho3D::Light::SetShapeTextureAttr</text>
</a>
</g>
<!-- Node9&#45;&gt;Node21 -->
<g id="edge40" class="edge"><title>Node9&#45;&gt;Node21</title>
<path fill="none" stroke="midnightblue" d="M463.91,-376.808C472.39,-377.669 481.095,-378.553 489.755,-379.432"/>
<polygon fill="midnightblue" stroke="midnightblue" points="463.998,-373.299 453.695,-375.771 463.291,-380.263 463.998,-373.299"/>
</g>
<!-- Node22 -->
<g id="node43" class="node"><title>Node22</title>
<a xlink:href="class_urho3_d_1_1_material.html#a843c233ee44a1b2d1aaea55d989782fe" target="_top" xlink:title="Load from an XML element. Return true if successful.">
<polygon fill="none" stroke="black" points="520.5,-338.5 520.5,-359.5 647.5,-359.5 647.5,-338.5 520.5,-338.5"/>
<text text-anchor="middle" x="584" y="-346.5" font-family="FreeSans" font-size="10.00">Urho3D::Material::Load</text>
</a>
</g>
<!-- Node9&#45;&gt;Node22 -->
<g id="edge42" class="edge"><title>Node9&#45;&gt;Node22</title>
<path fill="none" stroke="midnightblue" d="M463.683,-361.215C482.437,-359.311 502.303,-357.294 520.371,-355.46"/>
<polygon fill="midnightblue" stroke="midnightblue" points="463.291,-357.737 453.695,-362.229 463.998,-364.701 463.291,-357.737"/>
</g>
<!-- Node23 -->
<g id="node45" class="node"><title>Node23</title>
<a xlink:href="class_urho3_d_1_1_texture.html#a3dc57d4df2026810d0b13851758d2993" target="_top" xlink:title="Load parameters.">
<polygon fill="none" stroke="red" points="494.5,-550.5 494.5,-571.5 673.5,-571.5 673.5,-550.5 494.5,-550.5"/>
<text text-anchor="middle" x="584" y="-558.5" font-family="FreeSans" font-size="10.00">Urho3D::Texture::LoadParameters</text>
</a>
</g>
<!-- Node9&#45;&gt;Node23 -->
<g id="edge44" class="edge"><title>Node9&#45;&gt;Node23</title>
<path fill="none" stroke="midnightblue" d="M395.281,-395.602C408.685,-434.041 438.918,-504.498 490,-541 495.294,-544.783 501.157,-547.878 507.292,-550.406"/>
<polygon fill="midnightblue" stroke="midnightblue" points="398.594,-394.473 392.088,-386.111 391.959,-396.705 398.594,-394.473"/>
</g>
<!-- Node24 -->
<g id="node47" class="node"><title>Node24</title>
<a xlink:href="class_urho3_d_1_1_texture_cube.html#a121ad7baf18803a7c8c8171ef9a8c918" target="_top" xlink:title="Load resource. Return true if successful.">
<polygon fill="none" stroke="red" points="740.5,-419 740.5,-453 859.5,-453 859.5,-419 740.5,-419"/>
<text text-anchor="start" x="748.5" y="-440" font-family="FreeSans" font-size="10.00">Urho3D::TextureCube</text>
<text text-anchor="middle" x="800" y="-427" font-family="FreeSans" font-size="10.00">::Load</text>
</a>
</g>
<!-- Node9&#45;&gt;Node24 -->
<g id="edge48" class="edge"><title>Node9&#45;&gt;Node24</title>
<path fill="none" stroke="midnightblue" d="M430.904,-347.818C448.795,-340.29 469.955,-332.756 490,-329 572.127,-313.613 599.8,-299.566 678,-329 725.987,-347.062 767.405,-393.524 787.341,-418.875"/>
<polygon fill="midnightblue" stroke="midnightblue" points="429.107,-344.782 421.328,-351.975 431.895,-351.203 429.107,-344.782"/>
</g>
<!-- Node23&#45;&gt;Node24 -->
<g id="edge46" class="edge"><title>Node23&#45;&gt;Node24</title>
<path fill="none" stroke="midnightblue" d="M662.73,-547.391C668.002,-545.527 673.141,-543.408 678,-541 722.568,-518.911 764.141,-476.776 785.337,-453.151"/>
<polygon fill="midnightblue" stroke="midnightblue" points="661.578,-544.085 653.131,-550.48 663.723,-550.749 661.578,-544.085"/>
</g>
<!-- Node25&#45;&gt;Node3 -->
<g id="edge60" class="edge"><title>Node25&#45;&gt;Node3</title>
<path fill="none" stroke="midnightblue" d="M415.589,-683.406C435.504,-698.828 463.201,-718.578 490,-732 500.448,-737.233 511.978,-741.873 523.278,-745.866"/>
<polygon fill="midnightblue" stroke="midnightblue" points="417.582,-680.52 407.556,-677.093 413.256,-686.024 417.582,-680.52"/>
</g>
<!-- Node25&#45;&gt;Node4 -->
<g id="edge56" class="edge"><title>Node25&#45;&gt;Node4</title>
<path fill="none" stroke="midnightblue" d="M464.048,-662.239C535.145,-664.304 640.554,-667.367 714.285,-669.509"/>
<polygon fill="midnightblue" stroke="midnightblue" points="463.912,-658.733 453.815,-661.941 463.709,-665.73 463.912,-658.733"/>
</g>
<!-- Node25&#45;&gt;Node7 -->
<g id="edge62" class="edge"><title>Node25&#45;&gt;Node7</title>
<path fill="none" stroke="midnightblue" d="M463.642,-674.639C472.517,-676.185 481.449,-677.674 490,-679 580.188,-692.98 685.732,-705.43 747.49,-712.322"/>
<polygon fill="midnightblue" stroke="midnightblue" points="464.127,-671.17 453.67,-672.874 462.907,-678.063 464.127,-671.17"/>
</g>
<!-- Node25&#45;&gt;Node10 -->
<g id="edge52" class="edge"><title>Node25&#45;&gt;Node10</title>
<path fill="none" stroke="midnightblue" d="M463.816,-652.591C474.504,-651.561 485.551,-650.495 496.419,-649.447"/>
<polygon fill="midnightblue" stroke="midnightblue" points="463.313,-649.124 453.695,-653.567 463.985,-656.091 463.313,-649.124"/>
</g>
<!-- Node25&#45;&gt;Node15 -->
<g id="edge54" class="edge"><title>Node25&#45;&gt;Node15</title>
<path fill="none" stroke="midnightblue" d="M437.14,-639.263C453.778,-632.854 472.518,-626.137 490,-621 502.006,-617.472 515.045,-614.295 527.482,-611.565"/>
<polygon fill="midnightblue" stroke="midnightblue" points="435.652,-636.086 427.612,-642.986 438.2,-642.606 435.652,-636.086"/>
</g>
<!-- Node25&#45;&gt;Node23 -->
<g id="edge58" class="edge"><title>Node25&#45;&gt;Node23</title>
<path fill="none" stroke="midnightblue" d="M411.914,-635.721C431.567,-617.929 460.5,-594.599 490,-581 498.334,-577.158 507.425,-574.044 516.565,-571.522"/>
<polygon fill="midnightblue" stroke="midnightblue" points="409.31,-633.362 404.342,-642.72 414.061,-638.502 409.31,-633.362"/>
</g>
</g>
</svg>
