<?xml version="1.0" encoding="UTF-8" standalone="no"?>
<!DOCTYPE svg PUBLIC "-//W3C//DTD SVG 1.1//EN"
 "http://www.w3.org/Graphics/SVG/1.1/DTD/svg11.dtd">
<!-- Generated by graphviz version 2.26.3 (20100126.1600)
 -->
<!-- Title: Urho3D::FontFace Pages: 1 -->
<!--zoomable 224 -->
<svg id="main" version="1.1" xmlns="http://www.w3.org/2000/svg" xmlns:xlink="http://www.w3.org/1999/xlink" xml:space="preserve" onload="init(evt)">
        <defs>
                <circle id="rim" cx="0" cy="0" r="7"/>
                <circle id="rim2" cx="0" cy="0" r="3.5"/>
                <g id="zoomPlus">
                        <use xlink:href="#rim" fill="#404040">
                                <set attributeName="fill" to="#808080" begin="zoomplus.mouseover" end="zoomplus.mouseout"/>
                        </use>
                        <path d="M-4,0h8M0,-4v8" fill="none" stroke="white" stroke-width="1.5" pointer-events="none"/>
                </g>
                <g id="zoomMin">
                        <use xlink:href="#rim" fill="#404040">
                                <set attributeName="fill" to="#808080" begin="zoomminus.mouseover" end="zoomminus.mouseout"/>
                        </use>
                        <path d="M-4,0h8" fill="none" stroke="white" stroke-width="1.5" pointer-events="none"/>
                </g>
                <g id="dirArrow">
                        <path fill="none" stroke="white" stroke-width="1.5" d="M0,-3.0v7 M-2.5,-0.5L0,-3.0L2.5,-0.5"/>
                </g>
               <g id="resetDef">
                       <use xlink:href="#rim2" fill="#404040">
                               <set attributeName="fill" to="#808080" begin="reset.mouseover" end="reset.mouseout"/>
                       </use>
               </g>
        </defs>

<script type="text/javascript">
var viewWidth = 1016;
var viewHeight = 224;
var sectionId = 'dynsection-1';
</script>
<script xlink:href="svgpan.js"/>
<svg id="graph" class="graph">
<g id="viewport">
<title>Urho3D::FontFace</title>
<!-- Node1 -->
<g id="node1" class="node"><title>Node1</title>
<polygon fill="#bfbfbf" stroke="black" points="906,-84.5 906,-105.5 1008,-105.5 1008,-84.5 906,-84.5"/>
<text text-anchor="middle" x="957" y="-92.5" font-family="FreeSans" font-size="10.00">Urho3D::FontFace</text>
</g>
<!-- Node2 -->
<g id="node2" class="node"><title>Node2</title>
<a xlink:href="class_urho3_d_1_1_ref_counted.html" target="_top" xlink:title="Base class for intrusively reference&#45;counted objects. These are noncopyable and non&#45;assignable.">
<polygon fill="none" stroke="black" points="646,-156.5 646,-177.5 760,-177.5 760,-156.5 646,-156.5"/>
<text text-anchor="middle" x="703" y="-164.5" font-family="FreeSans" font-size="10.00">Urho3D::RefCounted</text>
</a>
</g>
<!-- Node2&#45;&gt;Node1 -->
<g id="edge2" class="edge"><title>Node2&#45;&gt;Node1</title>
<path fill="none" stroke="midnightblue" d="M770.333,-155.539C805.816,-148.637 849.786,-138.707 888,-126 904.699,-120.447 922.821,-112.214 936.301,-105.628"/>
<polygon fill="midnightblue" stroke="midnightblue" points="769.254,-152.182 760.087,-157.495 770.566,-159.058 769.254,-152.182"/>
</g>
<!-- Node3 -->
<g id="node4" class="node"><title>Node3</title>
<a xlink:href="struct_urho3_d_1_1_ref_count.html" target="_top" xlink:title="Reference count structure.">
<polygon fill="none" stroke="black" points="418,-156.5 418,-177.5 520,-177.5 520,-156.5 418,-156.5"/>
<text text-anchor="middle" x="469" y="-164.5" font-family="FreeSans" font-size="10.00">Urho3D::RefCount</text>
</a>
</g>
<!-- Node3&#45;&gt;Node2 -->
<g id="edge4" class="edge"><title>Node3&#45;&gt;Node2</title>
<path fill="none" stroke="#9a32cd" stroke-dasharray="5,2" d="M530.367,-167C566.114,-167 610.893,-167 645.886,-167"/>
<polygon fill="#9a32cd" stroke="#9a32cd" points="530.063,-163.5 520.063,-167 530.063,-170.5 530.063,-163.5"/>
<text text-anchor="middle" x="569" y="-171" font-family="FreeSans" font-size="10.00"> refCount_</text>
</g>
<!-- Node4 -->
<g id="node6" class="node"><title>Node4</title>
<a xlink:href="class_urho3_d_1_1_hash_map.html" target="_top" xlink:title="Urho3D::HashMap\&lt; unsigned,\l unsigned \&gt;">
<polygon fill="none" stroke="black" points="622,-104 622,-138 784,-138 784,-104 622,-104"/>
<text text-anchor="start" x="630" y="-125" font-family="FreeSans" font-size="10.00">Urho3D::HashMap&lt; unsigned,</text>
<text text-anchor="middle" x="703" y="-112" font-family="FreeSans" font-size="10.00"> unsigned &gt;</text>
</a>
</g>
<!-- Node4&#45;&gt;Node1 -->
<g id="edge6" class="edge"><title>Node4&#45;&gt;Node1</title>
<path fill="none" stroke="#9a32cd" stroke-dasharray="5,2" d="M794.022,-111.683C831.609,-107.835 873.779,-103.519 905.806,-100.24"/>
<polygon fill="#9a32cd" stroke="#9a32cd" points="793.657,-108.202 784.066,-112.702 794.37,-115.165 793.657,-108.202"/>
<text text-anchor="middle" x="850" y="-113" font-family="FreeSans" font-size="10.00"> glyphMapping_</text>
</g>
<!-- Node5 -->
<g id="node8" class="node"><title>Node5</title>
<a xlink:href="class_urho3_d_1_1_hash_base.html" target="_top" xlink:title="Hash set/map base class.">
<polygon fill="none" stroke="black" points="415,-110.5 415,-131.5 523,-131.5 523,-110.5 415,-110.5"/>
<text text-anchor="middle" x="469" y="-118.5" font-family="FreeSans" font-size="10.00">Urho3D::HashBase</text>
</a>
</g>
<!-- Node5&#45;&gt;Node4 -->
<g id="edge8" class="edge"><title>Node5&#45;&gt;Node4</title>
<path fill="none" stroke="midnightblue" d="M533.499,-121C560.843,-121 593.013,-121 621.938,-121"/>
<polygon fill="midnightblue" stroke="midnightblue" points="533.272,-117.5 523.272,-121 533.272,-124.5 533.272,-117.5"/>
</g>
<!-- Node6 -->
<g id="node10" class="node"><title>Node6</title>
<a xlink:href="struct_urho3_d_1_1_hash_node_base.html" target="_top" xlink:title="Hash set/map node base class.">
<polygon fill="none" stroke="black" points="192,-137.5 192,-158.5 326,-158.5 326,-137.5 192,-137.5"/>
<text text-anchor="middle" x="259" y="-145.5" font-family="FreeSans" font-size="10.00">Urho3D::HashNodeBase</text>
</a>
</g>
<!-- Node6&#45;&gt;Node5 -->
<g id="edge10" class="edge"><title>Node6&#45;&gt;Node5</title>
<path fill="none" stroke="#9a32cd" stroke-dasharray="5,2" d="M336.272,-138.065C362.378,-134.709 390.946,-131.035 414.87,-127.96"/>
<polygon fill="#9a32cd" stroke="#9a32cd" points="335.495,-134.636 326.023,-139.383 336.387,-141.579 335.495,-134.636"/>
<text text-anchor="middle" x="369" y="-166" font-family="FreeSans" font-size="10.00"> ptrs_</text>
<text text-anchor="middle" x="369" y="-153" font-family="FreeSans" font-size="10.00">tail_</text>
<text text-anchor="middle" x="369" y="-140" font-family="FreeSans" font-size="10.00">head_</text>
</g>
<!-- Node6&#45;&gt;Node6 -->
<g id="edge12" class="edge"><title>Node6&#45;&gt;Node6</title>
<path fill="none" stroke="#9a32cd" stroke-dasharray="5,2" d="M240.94,-168.427C242.333,-173.349 248.353,-177 259,-177 276.035,-177 281.226,-167.653 274.571,-158.708"/>
<polygon fill="#9a32cd" stroke="#9a32cd" points="244.338,-169.264 243.429,-158.708 237.557,-167.527 244.338,-169.264"/>
<text text-anchor="middle" x="259" y="-207" font-family="FreeSans" font-size="10.00"> next_</text>
<text text-anchor="middle" x="259" y="-194" font-family="FreeSans" font-size="10.00">prev_</text>
<text text-anchor="middle" x="259" y="-181" font-family="FreeSans" font-size="10.00">down_</text>
</g>
<!-- Node7 -->
<g id="node13" class="node"><title>Node7</title>
<a xlink:href="struct_urho3_d_1_1_allocator_block.html" target="_top" xlink:title="Allocator memory block.">
<polygon fill="none" stroke="black" points="195.5,-66.5 195.5,-87.5 322.5,-87.5 322.5,-66.5 195.5,-66.5"/>
<text text-anchor="middle" x="259" y="-74.5" font-family="FreeSans" font-size="10.00">Urho3D::AllocatorBlock</text>
</a>
</g>
<!-- Node7&#45;&gt;Node5 -->
<g id="edge14" class="edge"><title>Node7&#45;&gt;Node5</title>
<path fill="none" stroke="#9a32cd" stroke-dasharray="5,2" d="M319.275,-89.629C350.768,-96.2277 388.864,-104.21 418.747,-110.471"/>
<polygon fill="#9a32cd" stroke="#9a32cd" points="319.805,-86.1643 309.3,-87.5391 318.37,-93.0155 319.805,-86.1643"/>
<text text-anchor="middle" x="369" y="-108" font-family="FreeSans" font-size="10.00"> allocator_</text>
</g>
<!-- Node7&#45;&gt;Node7 -->
<g id="edge16" class="edge"><title>Node7&#45;&gt;Node7</title>
<path fill="none" stroke="#9a32cd" stroke-dasharray="5,2" d="M240.94,-97.4266C242.333,-102.349 248.353,-106 259,-106 276.035,-106 281.226,-96.6531 274.571,-87.7079"/>
<polygon fill="#9a32cd" stroke="#9a32cd" points="244.338,-98.2636 243.429,-87.7079 237.557,-96.5268 244.338,-98.2636"/>
<text text-anchor="middle" x="259" y="-110" font-family="FreeSans" font-size="10.00"> next_</text>
</g>
<!-- Node8 -->
<g id="node16" class="node"><title>Node8</title>
<a xlink:href="struct_urho3_d_1_1_allocator_node.html" target="_top" xlink:title="Allocator node.">
<polygon fill="none" stroke="black" points="0.5,-66.5 0.5,-87.5 127.5,-87.5 127.5,-66.5 0.5,-66.5"/>
<text text-anchor="middle" x="64" y="-74.5" font-family="FreeSans" font-size="10.00">Urho3D::AllocatorNode</text>
</a>
</g>
<!-- Node8&#45;&gt;Node7 -->
<g id="edge18" class="edge"><title>Node8&#45;&gt;Node7</title>
<path fill="none" stroke="#9a32cd" stroke-dasharray="5,2" d="M137.645,-77C156.576,-77 176.785,-77 195.172,-77"/>
<polygon fill="#9a32cd" stroke="#9a32cd" points="137.581,-73.5001 127.58,-77 137.58,-80.5001 137.581,-73.5001"/>
<text text-anchor="middle" x="160" y="-81" font-family="FreeSans" font-size="10.00"> free_</text>
</g>
<!-- Node8&#45;&gt;Node8 -->
<g id="edge20" class="edge"><title>Node8&#45;&gt;Node8</title>
<path fill="none" stroke="#9a32cd" stroke-dasharray="5,2" d="M46.3082,-97.4266C47.6731,-102.349 53.5703,-106 64,-106 80.6875,-106 85.772,-96.6531 79.2534,-87.7079"/>
<polygon fill="#9a32cd" stroke="#9a32cd" points="49.7078,-98.259 48.7466,-87.7079 42.9182,-96.5555 49.7078,-98.259"/>
<text text-anchor="middle" x="64" y="-110" font-family="FreeSans" font-size="10.00"> next_</text>
</g>
<!-- Node9 -->
<g id="node19" class="node"><title>Node9</title>
<a xlink:href="class_urho3_d_1_1_vector.html" target="_top" xlink:title="Urho3D::Vector\&lt; Urho3D\l::FontGlyph \&gt;">
<polygon fill="none" stroke="black" points="634,-52 634,-86 772,-86 772,-52 634,-52"/>
<text text-anchor="start" x="642" y="-73" font-family="FreeSans" font-size="10.00">Urho3D::Vector&lt; Urho3D</text>
<text text-anchor="middle" x="703" y="-60" font-family="FreeSans" font-size="10.00">::FontGlyph &gt;</text>
</a>
</g>
<!-- Node9&#45;&gt;Node1 -->
<g id="edge22" class="edge"><title>Node9&#45;&gt;Node1</title>
<path fill="none" stroke="#9a32cd" stroke-dasharray="5,2" d="M782.054,-74.8284C814.872,-77.5099 853.318,-80.9905 888,-85 893.772,-85.6673 899.805,-86.4359 905.798,-87.2443"/>
<polygon fill="#9a32cd" stroke="#9a32cd" points="782.309,-71.3377 772.06,-74.0221 781.746,-78.315 782.309,-71.3377"/>
<text text-anchor="middle" x="850" y="-89" font-family="FreeSans" font-size="10.00"> glyphs_</text>
</g>
<!-- Node10 -->
<g id="node21" class="node"><title>Node10</title>
<a xlink:href="class_urho3_d_1_1_vector_base.html" target="_top" xlink:title="Vector base class.">
<polygon fill="none" stroke="black" points="412,-29.5 412,-50.5 526,-50.5 526,-29.5 412,-29.5"/>
<text text-anchor="middle" x="469" y="-37.5" font-family="FreeSans" font-size="10.00">Urho3D::VectorBase</text>
</a>
</g>
<!-- Node10&#45;&gt;Node9 -->
<g id="edge24" class="edge"><title>Node10&#45;&gt;Node9</title>
<path fill="none" stroke="midnightblue" d="M536.381,-48.3506C566.949,-52.1389 603.063,-56.6146 633.841,-60.429"/>
<polygon fill="midnightblue" stroke="midnightblue" points="536.597,-44.8508 526.243,-47.0942 535.736,-51.7976 536.597,-44.8508"/>
</g>
<!-- Node11 -->
<g id="node23" class="node"><title>Node11</title>
<a xlink:href="class_urho3_d_1_1_vector.html" target="_top" xlink:title="Urho3D::Vector\&lt; Urho3D\l::SharedPtr\&lt; Urho3D::Texture \&gt; \&gt;">
<polygon fill="none" stroke="black" points="612,-0 612,-34 794,-34 794,-0 612,-0"/>
<text text-anchor="start" x="620" y="-21" font-family="FreeSans" font-size="10.00">Urho3D::Vector&lt; Urho3D</text>
<text text-anchor="middle" x="703" y="-8" font-family="FreeSans" font-size="10.00">::SharedPtr&lt; Urho3D::Texture &gt; &gt;</text>
</a>
</g>
<!-- Node10&#45;&gt;Node11 -->
<g id="edge28" class="edge"><title>Node10&#45;&gt;Node11</title>
<path fill="none" stroke="midnightblue" d="M536.431,-33.3722C559.898,-31.0655 586.63,-28.4381 611.705,-25.9734"/>
<polygon fill="midnightblue" stroke="midnightblue" points="535.852,-29.9121 526.243,-34.3736 536.537,-36.8785 535.852,-29.9121"/>
</g>
<!-- Node11&#45;&gt;Node1 -->
<g id="edge26" class="edge"><title>Node11&#45;&gt;Node1</title>
<path fill="none" stroke="#9a32cd" stroke-dasharray="5,2" d="M804.191,-35.8891C831.766,-42.2819 861.368,-50.3116 888,-60 906.051,-66.5666 925.465,-76.718 939.088,-84.4004"/>
<polygon fill="#9a32cd" stroke="#9a32cd" points="804.659,-32.4064 794.132,-33.6079 803.111,-39.2331 804.659,-32.4064"/>
<text text-anchor="middle" x="850" y="-64" font-family="FreeSans" font-size="10.00"> textures_</text>
</g>
</g>
</svg>
        <g id="navigator" transform="translate(0 0)" fill="#404254">
                <rect fill="#f2f5e9" fill-opacity="0.5" stroke="#606060" stroke-width=".5" x="0" y="0" width="60" height="60"/>
                <use id="zoomplus" xlink:href="#zoomPlus" x="17" y="9" onmousedown="handleZoom(evt,'in')"/>
                <use id="zoomminus" xlink:href="#zoomMin" x="42" y="9" onmousedown="handleZoom(evt,'out')"/>
                <use id="reset" xlink:href="#resetDef" x="30" y="36" onmousedown="handleReset()"/>
                <g id="arrowUp" xlink:href="#dirArrow" transform="translate(30 24)" onmousedown="handlePan(0,-1)">
                  <use xlink:href="#rim" fill="#404040">
                        <set attributeName="fill" to="#808080" begin="arrowUp.mouseover" end="arrowUp.mouseout"/>
                  </use>
                  <path fill="none" stroke="white" stroke-width="1.5" d="M0,-3.0v7 M-2.5,-0.5L0,-3.0L2.5,-0.5"/>
                </g>
                <g id="arrowRight" xlink:href="#dirArrow" transform="rotate(90) translate(36 -43)" onmousedown="handlePan(1,0)">
                  <use xlink:href="#rim" fill="#404040">
                        <set attributeName="fill" to="#808080" begin="arrowRight.mouseover" end="arrowRight.mouseout"/>
                  </use>
                  <path fill="none" stroke="white" stroke-width="1.5" d="M0,-3.0v7 M-2.5,-0.5L0,-3.0L2.5,-0.5"/>
                </g>
                <g id="arrowDown" xlink:href="#dirArrow" transform="rotate(180) translate(-30 -48)" onmousedown="handlePan(0,1)">
                  <use xlink:href="#rim" fill="#404040">
                        <set attributeName="fill" to="#808080" begin="arrowDown.mouseover" end="arrowDown.mouseout"/>
                  </use>
                  <path fill="none" stroke="white" stroke-width="1.5" d="M0,-3.0v7 M-2.5,-0.5L0,-3.0L2.5,-0.5"/>
                </g>
                <g id="arrowLeft" xlink:href="#dirArrow" transform="rotate(270) translate(-36 17)" onmousedown="handlePan(-1,0)">
                  <use xlink:href="#rim" fill="#404040">
                        <set attributeName="fill" to="#808080" begin="arrowLeft.mouseover" end="arrowLeft.mouseout"/>
                  </use>
                  <path fill="none" stroke="white" stroke-width="1.5" d="M0,-3.0v7 M-2.5,-0.5L0,-3.0L2.5,-0.5"/>
                </g>
        </g>
        <svg viewBox="0 0 15 15" width="100%" height="30px" preserveAspectRatio="xMaxYMin meet">
         <g id="arrow_out" transform="scale(0.3 0.3)">
          <a xlink:href="class_urho3_d_1_1_font_face__coll__graph_org.svg" target="_base">
           <rect id="button" ry="5" rx="5" y="6" x="6" height="38" width="38"
                fill="#f2f5e9" fill-opacity="0.5" stroke="#606060" stroke-width="1.0"/>
           <path id="arrow"
             d="M 11.500037,31.436501 C 11.940474,20.09759 22.043105,11.32322 32.158766,21.979434 L 37.068811,17.246167 C 37.068811,17.246167 37.088388,32 37.088388,32 L 22.160133,31.978069 C 22.160133,31.978069 26.997745,27.140456 26.997745,27.140456 C 18.528582,18.264221 13.291696,25.230495 11.500037,31.436501 z"
             style="fill:#404040;"/>
          </a>
         </g>
        </svg>
</svg>
