<?xml version="1.0" encoding="UTF-8" standalone="no"?>
<!DOCTYPE svg PUBLIC "-//W3C//DTD SVG 1.1//EN"
 "http://www.w3.org/Graphics/SVG/1.1/DTD/svg11.dtd">
<!-- Generated by graphviz version 2.26.3 (20100126.1600)
 -->
<!-- Title: Urho3D::AttributeInfo Pages: 1 -->
<!--zoomable 352 -->
<svg id="main" version="1.1" xmlns="http://www.w3.org/2000/svg" xmlns:xlink="http://www.w3.org/1999/xlink" xml:space="preserve" onload="init(evt)">
        <defs>
                <circle id="rim" cx="0" cy="0" r="7"/>
                <circle id="rim2" cx="0" cy="0" r="3.5"/>
                <g id="zoomPlus">
                        <use xlink:href="#rim" fill="#404040">
                                <set attributeName="fill" to="#808080" begin="zoomplus.mouseover" end="zoomplus.mouseout"/>
                        </use>
                        <path d="M-4,0h8M0,-4v8" fill="none" stroke="white" stroke-width="1.5" pointer-events="none"/>
                </g>
                <g id="zoomMin">
                        <use xlink:href="#rim" fill="#404040">
                                <set attributeName="fill" to="#808080" begin="zoomminus.mouseover" end="zoomminus.mouseout"/>
                        </use>
                        <path d="M-4,0h8" fill="none" stroke="white" stroke-width="1.5" pointer-events="none"/>
                </g>
                <g id="dirArrow">
                        <path fill="none" stroke="white" stroke-width="1.5" d="M0,-3.0v7 M-2.5,-0.5L0,-3.0L2.5,-0.5"/>
                </g>
               <g id="resetDef">
                       <use xlink:href="#rim2" fill="#404040">
                               <set attributeName="fill" to="#808080" begin="reset.mouseover" end="reset.mouseout"/>
                       </use>
               </g>
        </defs>

<script type="text/javascript">
var viewWidth = 1392;
var viewHeight = 352;
var sectionId = 'dynsection-0';
</script>
<script xlink:href="svgpan.js"/>
<svg id="graph" class="graph">
<g id="viewport">
<title>Urho3D::AttributeInfo</title>
<!-- Node1 -->
<g id="node1" class="node"><title>Node1</title>
<polygon fill="#bfbfbf" stroke="black" points="1264.5,-77.5 1264.5,-98.5 1383.5,-98.5 1383.5,-77.5 1264.5,-77.5"/>
<text text-anchor="middle" x="1324" y="-85.5" font-family="FreeSans" font-size="10.00">Urho3D::AttributeInfo</text>
</g>
<!-- Node2 -->
<g id="node2" class="node"><title>Node2</title>
<a xlink:href="class_urho3_d_1_1_variant.html" target="_top" xlink:title="Variable that supports a fixed set of types.">
<polygon fill="none" stroke="black" points="1033.5,-160.5 1033.5,-181.5 1126.5,-181.5 1126.5,-160.5 1033.5,-160.5"/>
<text text-anchor="middle" x="1080" y="-168.5" font-family="FreeSans" font-size="10.00">Urho3D::Variant</text>
</a>
</g>
<!-- Node2&#45;&gt;Node1 -->
<g id="edge2" class="edge"><title>Node2&#45;&gt;Node1</title>
<path fill="none" stroke="#9a32cd" stroke-dasharray="5,2" d="M1120.45,-157.241C1168.93,-140.75 1249.1,-113.478 1292.96,-98.5574"/>
<polygon fill="#9a32cd" stroke="#9a32cd" points="1119.24,-153.954 1110.9,-160.488 1121.5,-160.581 1119.24,-153.954"/>
<text text-anchor="middle" x="1212" y="-140" font-family="FreeSans" font-size="10.00"> defaultValue_</text>
</g>
<!-- Node2&#45;&gt;Node2 -->
<g id="edge12" class="edge"><title>Node2&#45;&gt;Node2</title>
<path fill="none" stroke="#9a32cd" stroke-dasharray="5,2" d="M1055.67,-191.427C1057.55,-196.349 1065.66,-200 1080,-200 1102.95,-200 1109.94,-190.653 1100.97,-181.708"/>
<polygon fill="#9a32cd" stroke="#9a32cd" points="1059.07,-192.303 1059.03,-181.708 1052.46,-190.02 1059.07,-192.303"/>
<text text-anchor="middle" x="1080" y="-204" font-family="FreeSans" font-size="10.00"> EMPTY</text>
</g>
<!-- Node3 -->
<g id="node4" class="node"><title>Node3</title>
<a xlink:href="class_urho3_d_1_1_vector.html" target="_top" xlink:title="Vector template class.">
<polygon fill="none" stroke="black" points="571,-322.5 571,-343.5 689,-343.5 689,-322.5 571,-322.5"/>
<text text-anchor="middle" x="630" y="-330.5" font-family="FreeSans" font-size="10.00">Urho3D::Vector&lt; T &gt;</text>
</a>
</g>
<!-- Node3&#45;&gt;Node2 -->
<g id="edge4" class="edge"><title>Node3&#45;&gt;Node2</title>
<path fill="none" stroke="#9a32cd" stroke-dasharray="5,2" d="M699.443,-326.337C744.132,-321.027 803.152,-312.097 854,-298 913.172,-281.596 928.699,-276.487 982,-246 1015.66,-226.747 1050.71,-197.227 1068.36,-181.582"/>
<polygon fill="#9a32cd" stroke="#9a32cd" points="698.804,-322.887 689.272,-327.512 699.607,-329.841 698.804,-322.887"/>
<text text-anchor="middle" x="781" y="-329" font-family="FreeSans" font-size="10.00"> emptyVariantVector</text>
</g>
<!-- Node4 -->
<g id="node6" class="node"><title>Node4</title>
<a xlink:href="class_urho3_d_1_1_vector_base.html" target="_top" xlink:title="Vector base class.">
<polygon fill="none" stroke="black" points="202,-288.5 202,-309.5 316,-309.5 316,-288.5 202,-288.5"/>
<text text-anchor="middle" x="259" y="-296.5" font-family="FreeSans" font-size="10.00">Urho3D::VectorBase</text>
</a>
</g>
<!-- Node4&#45;&gt;Node3 -->
<g id="edge6" class="edge"><title>Node4&#45;&gt;Node3</title>
<path fill="none" stroke="midnightblue" d="M326.192,-308.888C332.208,-309.651 338.21,-310.369 344,-311 422.22,-319.521 512.831,-325.904 570.741,-329.543"/>
<polygon fill="midnightblue" stroke="midnightblue" points="326.46,-305.393 316.09,-307.567 325.552,-312.334 326.46,-305.393"/>
</g>
<!-- Node5 -->
<g id="node8" class="node"><title>Node5</title>
<a xlink:href="class_urho3_d_1_1_p_o_d_vector.html" target="_top" xlink:title="Urho3D::PODVector\&lt;\l unsigned char \&gt;">
<polygon fill="none" stroke="black" points="570.5,-277 570.5,-311 689.5,-311 689.5,-277 570.5,-277"/>
<text text-anchor="start" x="578.5" y="-298" font-family="FreeSans" font-size="10.00">Urho3D::PODVector&lt;</text>
<text text-anchor="middle" x="630" y="-285" font-family="FreeSans" font-size="10.00"> unsigned char &gt;</text>
</a>
</g>
<!-- Node4&#45;&gt;Node5 -->
<g id="edge10" class="edge"><title>Node4&#45;&gt;Node5</title>
<path fill="none" stroke="midnightblue" d="M326.57,-298.089C396.207,-297.151 503.725,-295.702 570.32,-294.804"/>
<polygon fill="midnightblue" stroke="midnightblue" points="326.108,-294.595 316.156,-298.23 326.202,-301.595 326.108,-294.595"/>
</g>
<!-- Node10 -->
<g id="node23" class="node"><title>Node10</title>
<a xlink:href="class_urho3_d_1_1_vector.html" target="_top" xlink:title="Urho3D::Vector\&lt; Urho3D\l::StringHash \&gt;">
<polygon fill="none" stroke="black" points="413,-237 413,-271 551,-271 551,-237 413,-237"/>
<text text-anchor="start" x="421" y="-258" font-family="FreeSans" font-size="10.00">Urho3D::Vector&lt; Urho3D</text>
<text text-anchor="middle" x="482" y="-245" font-family="FreeSans" font-size="10.00">::StringHash &gt;</text>
</a>
</g>
<!-- Node4&#45;&gt;Node10 -->
<g id="edge30" class="edge"><title>Node4&#45;&gt;Node10</title>
<path fill="none" stroke="midnightblue" d="M321.113,-286.466C349.582,-280.721 383.436,-273.89 412.727,-267.979"/>
<polygon fill="midnightblue" stroke="midnightblue" points="320.394,-283.041 311.284,-288.449 321.778,-289.902 320.394,-283.041"/>
</g>
<!-- Node5&#45;&gt;Node2 -->
<g id="edge8" class="edge"><title>Node5&#45;&gt;Node2</title>
<path fill="none" stroke="#9a32cd" stroke-dasharray="5,2" d="M699.938,-283.445C771.878,-271.494 886.579,-249.376 982,-217 1010.3,-207.398 1041.25,-191.979 1060.64,-181.672"/>
<polygon fill="#9a32cd" stroke="#9a32cd" points="698.943,-280.062 689.642,-285.135 700.077,-286.969 698.943,-280.062"/>
<text text-anchor="middle" x="781" y="-285" font-family="FreeSans" font-size="10.00"> emptyBuffer</text>
</g>
<!-- Node6 -->
<g id="node12" class="node"><title>Node6</title>
<a xlink:href="struct_urho3_d_1_1_resource_ref.html" target="_top" xlink:title="Typed resource reference.">
<polygon fill="none" stroke="black" points="722.5,-160.5 722.5,-181.5 839.5,-181.5 839.5,-160.5 722.5,-160.5"/>
<text text-anchor="middle" x="781" y="-168.5" font-family="FreeSans" font-size="10.00">Urho3D::ResourceRef</text>
</a>
</g>
<!-- Node6&#45;&gt;Node2 -->
<g id="edge14" class="edge"><title>Node6&#45;&gt;Node2</title>
<path fill="none" stroke="#9a32cd" stroke-dasharray="5,2" d="M849.947,-171C906.154,-171 984.018,-171 1033.19,-171"/>
<polygon fill="#9a32cd" stroke="#9a32cd" points="849.716,-167.5 839.716,-171 849.716,-174.5 849.716,-167.5"/>
<text text-anchor="middle" x="927" y="-175" font-family="FreeSans" font-size="10.00"> emptyResourceRef</text>
</g>
<!-- Node7 -->
<g id="node14" class="node"><title>Node7</title>
<a xlink:href="class_urho3_d_1_1_short_string_hash.html" target="_top" xlink:title="16&#45;bit hash value for a string.">
<polygon fill="none" stroke="black" points="412.5,-166.5 412.5,-187.5 551.5,-187.5 551.5,-166.5 412.5,-166.5"/>
<text text-anchor="middle" x="482" y="-174.5" font-family="FreeSans" font-size="10.00">Urho3D::ShortStringHash</text>
</a>
</g>
<!-- Node7&#45;&gt;Node6 -->
<g id="edge16" class="edge"><title>Node7&#45;&gt;Node6</title>
<path fill="none" stroke="#9a32cd" stroke-dasharray="5,2" d="M561.78,-175.174C564.553,-175.114 567.3,-175.056 570,-175 621.466,-173.927 679.996,-172.827 722.334,-172.053"/>
<polygon fill="#9a32cd" stroke="#9a32cd" points="561.573,-171.677 551.651,-175.393 561.725,-178.676 561.573,-171.677"/>
<text text-anchor="middle" x="630" y="-179" font-family="FreeSans" font-size="10.00"> type_</text>
</g>
<!-- Node7&#45;&gt;Node7 -->
<g id="edge18" class="edge"><title>Node7&#45;&gt;Node7</title>
<path fill="none" stroke="#9a32cd" stroke-dasharray="5,2" d="M461.36,-197.427C462.952,-202.349 469.832,-206 482,-206 501.469,-206 507.401,-196.653 499.796,-187.708"/>
<polygon fill="#9a32cd" stroke="#9a32cd" points="464.754,-198.288 464.204,-187.708 458.036,-196.322 464.754,-198.288"/>
<text text-anchor="middle" x="482" y="-210" font-family="FreeSans" font-size="10.00"> ZERO</text>
</g>
<!-- Node9 -->
<g id="node20" class="node"><title>Node9</title>
<a xlink:href="struct_urho3_d_1_1_resource_ref_list.html" target="_top" xlink:title="List of typed resource references.">
<polygon fill="none" stroke="black" points="714,-200.5 714,-221.5 848,-221.5 848,-200.5 714,-200.5"/>
<text text-anchor="middle" x="781" y="-208.5" font-family="FreeSans" font-size="10.00">Urho3D::ResourceRefList</text>
</a>
</g>
<!-- Node7&#45;&gt;Node9 -->
<g id="edge26" class="edge"><title>Node7&#45;&gt;Node9</title>
<path fill="none" stroke="#9a32cd" stroke-dasharray="5,2" d="M561.773,-187.028C564.549,-187.359 567.298,-187.684 570,-188 618.128,-193.631 672.486,-199.546 713.975,-203.967"/>
<polygon fill="#9a32cd" stroke="#9a32cd" points="561.986,-183.528 551.639,-185.808 561.149,-190.478 561.986,-183.528"/>
<text text-anchor="middle" x="630" y="-204" font-family="FreeSans" font-size="10.00"> type_</text>
</g>
<!-- Node8 -->
<g id="node17" class="node"><title>Node8</title>
<a xlink:href="class_urho3_d_1_1_string_hash.html" target="_top" xlink:title="32&#45;bit hash value for a string.">
<polygon fill="none" stroke="black" points="425.5,-95.5 425.5,-116.5 538.5,-116.5 538.5,-95.5 425.5,-95.5"/>
<text text-anchor="middle" x="482" y="-103.5" font-family="FreeSans" font-size="10.00">Urho3D::StringHash</text>
</a>
</g>
<!-- Node8&#45;&gt;Node6 -->
<g id="edge20" class="edge"><title>Node8&#45;&gt;Node6</title>
<path fill="none" stroke="#9a32cd" stroke-dasharray="5,2" d="M540.163,-118.644C596.262,-130.84 680.181,-149.083 732.698,-160.499"/>
<polygon fill="#9a32cd" stroke="#9a32cd" points="540.887,-115.22 530.372,-116.516 539.4,-122.06 540.887,-115.22"/>
<text text-anchor="middle" x="630" y="-153" font-family="FreeSans" font-size="10.00"> id_</text>
</g>
<!-- Node8&#45;&gt;Node8 -->
<g id="edge22" class="edge"><title>Node8&#45;&gt;Node8</title>
<path fill="none" stroke="#9a32cd" stroke-dasharray="5,2" d="M461.36,-126.427C462.952,-131.349 469.832,-135 482,-135 501.469,-135 507.401,-125.653 499.796,-116.708"/>
<polygon fill="#9a32cd" stroke="#9a32cd" points="464.754,-127.288 464.204,-116.708 458.036,-125.322 464.754,-127.288"/>
<text text-anchor="middle" x="482" y="-139" font-family="FreeSans" font-size="10.00"> ZERO</text>
</g>
<!-- Node9&#45;&gt;Node2 -->
<g id="edge24" class="edge"><title>Node9&#45;&gt;Node2</title>
<path fill="none" stroke="#9a32cd" stroke-dasharray="5,2" d="M858.414,-202.544C895.803,-198.259 941.286,-192.752 982,-187 998.728,-184.637 1017.01,-181.738 1033.21,-179.06"/>
<polygon fill="#9a32cd" stroke="#9a32cd" points="857.633,-199.11 848.094,-203.719 858.426,-206.065 857.633,-199.11"/>
<text text-anchor="middle" x="927" y="-204" font-family="FreeSans" font-size="10.00"> emptyResourceRefList</text>
</g>
<!-- Node10&#45;&gt;Node9 -->
<g id="edge28" class="edge"><title>Node10&#45;&gt;Node9</title>
<path fill="none" stroke="#9a32cd" stroke-dasharray="5,2" d="M561.297,-242.596C608.836,-235.759 668.628,-227.161 713.829,-220.66"/>
<polygon fill="#9a32cd" stroke="#9a32cd" points="560.748,-239.139 551.348,-244.027 561.745,-246.068 560.748,-239.139"/>
<text text-anchor="middle" x="630" y="-245" font-family="FreeSans" font-size="10.00"> ids_</text>
</g>
<!-- Node11 -->
<g id="node26" class="node"><title>Node11</title>
<a xlink:href="class_urho3_d_1_1_hash_map.html" target="_top" xlink:title="Hash map template class.">
<polygon fill="none" stroke="black" points="708,-120.5 708,-141.5 854,-141.5 854,-120.5 708,-120.5"/>
<text text-anchor="middle" x="781" y="-128.5" font-family="FreeSans" font-size="10.00">Urho3D::HashMap&lt; T, U &gt;</text>
</a>
</g>
<!-- Node11&#45;&gt;Node2 -->
<g id="edge32" class="edge"><title>Node11&#45;&gt;Node2</title>
<path fill="none" stroke="#9a32cd" stroke-dasharray="5,2" d="M864.205,-139.429C900.451,-143.383 943.39,-148.447 982,-154 998.75,-156.409 1017.04,-159.465 1033.23,-162.319"/>
<polygon fill="#9a32cd" stroke="#9a32cd" points="864.487,-135.94 854.169,-138.344 863.735,-142.899 864.487,-135.94"/>
<text text-anchor="middle" x="927" y="-158" font-family="FreeSans" font-size="10.00"> emptyVariantMap</text>
</g>
<!-- Node12 -->
<g id="node28" class="node"><title>Node12</title>
<a xlink:href="class_urho3_d_1_1_hash_base.html" target="_top" xlink:title="Hash set/map base class.">
<polygon fill="none" stroke="black" points="428,-55.5 428,-76.5 536,-76.5 536,-55.5 428,-55.5"/>
<text text-anchor="middle" x="482" y="-63.5" font-family="FreeSans" font-size="10.00">Urho3D::HashBase</text>
</a>
</g>
<!-- Node12&#45;&gt;Node11 -->
<g id="edge34" class="edge"><title>Node12&#45;&gt;Node11</title>
<path fill="none" stroke="midnightblue" d="M540.163,-78.6441C596.262,-90.8395 680.181,-109.083 732.698,-120.499"/>
<polygon fill="midnightblue" stroke="midnightblue" points="540.887,-75.2199 530.372,-76.5156 539.4,-82.0601 540.887,-75.2199"/>
</g>
<!-- Node13 -->
<g id="node30" class="node"><title>Node13</title>
<a xlink:href="struct_urho3_d_1_1_hash_node_base.html" target="_top" xlink:title="Hash set/map node base class.">
<polygon fill="none" stroke="black" points="192,-126.5 192,-147.5 326,-147.5 326,-126.5 192,-126.5"/>
<text text-anchor="middle" x="259" y="-134.5" font-family="FreeSans" font-size="10.00">Urho3D::HashNodeBase</text>
</a>
</g>
<!-- Node13&#45;&gt;Node12 -->
<g id="edge36" class="edge"><title>Node13&#45;&gt;Node12</title>
<path fill="none" stroke="#9a32cd" stroke-dasharray="5,2" d="M305.561,-123.467C312.434,-121.364 319.415,-119.168 326,-117 364.592,-104.295 373.334,-98.4769 412,-86 422.104,-82.7397 433.114,-79.4656 443.347,-76.5379"/>
<polygon fill="#9a32cd" stroke="#9a32cd" points="304.187,-120.226 295.627,-126.469 306.212,-126.927 304.187,-120.226"/>
<text text-anchor="middle" x="369" y="-140" font-family="FreeSans" font-size="10.00"> ptrs_</text>
<text text-anchor="middle" x="369" y="-127" font-family="FreeSans" font-size="10.00">tail_</text>
<text text-anchor="middle" x="369" y="-114" font-family="FreeSans" font-size="10.00">head_</text>
</g>
<!-- Node13&#45;&gt;Node13 -->
<g id="edge38" class="edge"><title>Node13&#45;&gt;Node13</title>
<path fill="none" stroke="#9a32cd" stroke-dasharray="5,2" d="M240.94,-157.427C242.333,-162.349 248.353,-166 259,-166 276.035,-166 281.226,-156.653 274.571,-147.708"/>
<polygon fill="#9a32cd" stroke="#9a32cd" points="244.338,-158.264 243.429,-147.708 237.557,-156.527 244.338,-158.264"/>
<text text-anchor="middle" x="259" y="-196" font-family="FreeSans" font-size="10.00"> next_</text>
<text text-anchor="middle" x="259" y="-183" font-family="FreeSans" font-size="10.00">prev_</text>
<text text-anchor="middle" x="259" y="-170" font-family="FreeSans" font-size="10.00">down_</text>
</g>
<!-- Node14 -->
<g id="node33" class="node"><title>Node14</title>
<a xlink:href="struct_urho3_d_1_1_allocator_block.html" target="_top" xlink:title="Allocator memory block.">
<polygon fill="none" stroke="black" points="195.5,-55.5 195.5,-76.5 322.5,-76.5 322.5,-55.5 195.5,-55.5"/>
<text text-anchor="middle" x="259" y="-63.5" font-family="FreeSans" font-size="10.00">Urho3D::AllocatorBlock</text>
</a>
</g>
<!-- Node14&#45;&gt;Node12 -->
<g id="edge40" class="edge"><title>Node14&#45;&gt;Node12</title>
<path fill="none" stroke="#9a32cd" stroke-dasharray="5,2" d="M332.925,-66C363.899,-66 399.255,-66 427.759,-66"/>
<polygon fill="#9a32cd" stroke="#9a32cd" points="332.604,-62.5001 322.604,-66 332.604,-69.5001 332.604,-62.5001"/>
<text text-anchor="middle" x="369" y="-70" font-family="FreeSans" font-size="10.00"> allocator_</text>
</g>
<!-- Node14&#45;&gt;Node14 -->
<g id="edge42" class="edge"><title>Node14&#45;&gt;Node14</title>
<path fill="none" stroke="#9a32cd" stroke-dasharray="5,2" d="M240.94,-86.4266C242.333,-91.3489 248.353,-95 259,-95 276.035,-95 281.226,-85.6531 274.571,-76.7079"/>
<polygon fill="#9a32cd" stroke="#9a32cd" points="244.338,-87.2636 243.429,-76.7079 237.557,-85.5268 244.338,-87.2636"/>
<text text-anchor="middle" x="259" y="-99" font-family="FreeSans" font-size="10.00"> next_</text>
</g>
<!-- Node15 -->
<g id="node36" class="node"><title>Node15</title>
<a xlink:href="struct_urho3_d_1_1_allocator_node.html" target="_top" xlink:title="Allocator node.">
<polygon fill="none" stroke="black" points="0.5,-55.5 0.5,-76.5 127.5,-76.5 127.5,-55.5 0.5,-55.5"/>
<text text-anchor="middle" x="64" y="-63.5" font-family="FreeSans" font-size="10.00">Urho3D::AllocatorNode</text>
</a>
</g>
<!-- Node15&#45;&gt;Node14 -->
<g id="edge44" class="edge"><title>Node15&#45;&gt;Node14</title>
<path fill="none" stroke="#9a32cd" stroke-dasharray="5,2" d="M137.645,-66C156.576,-66 176.785,-66 195.172,-66"/>
<polygon fill="#9a32cd" stroke="#9a32cd" points="137.581,-62.5001 127.58,-66 137.58,-69.5001 137.581,-62.5001"/>
<text text-anchor="middle" x="160" y="-70" font-family="FreeSans" font-size="10.00"> free_</text>
</g>
<!-- Node15&#45;&gt;Node15 -->
<g id="edge46" class="edge"><title>Node15&#45;&gt;Node15</title>
<path fill="none" stroke="#9a32cd" stroke-dasharray="5,2" d="M46.3082,-86.4266C47.6731,-91.3489 53.5703,-95 64,-95 80.6875,-95 85.772,-85.6531 79.2534,-76.7079"/>
<polygon fill="#9a32cd" stroke="#9a32cd" points="49.7078,-87.259 48.7466,-76.7079 42.9182,-85.5555 49.7078,-87.259"/>
<text text-anchor="middle" x="64" y="-99" font-family="FreeSans" font-size="10.00"> next_</text>
</g>
<!-- Node16 -->
<g id="node39" class="node"><title>Node16</title>
<a xlink:href="struct_urho3_d_1_1_variant_value.html" target="_top" xlink:title="Union for the possible variant values. Also stores non&#45;POD objects such as String which must not exce...">
<polygon fill="none" stroke="black" points="721.5,-80.5 721.5,-101.5 840.5,-101.5 840.5,-80.5 721.5,-80.5"/>
<text text-anchor="middle" x="781" y="-88.5" font-family="FreeSans" font-size="10.00">Urho3D::VariantValue</text>
</a>
</g>
<!-- Node16&#45;&gt;Node2 -->
<g id="edge48" class="edge"><title>Node16&#45;&gt;Node2</title>
<path fill="none" stroke="#9a32cd" stroke-dasharray="5,2" d="M850.563,-96.9235C889.816,-101.536 939.39,-109.507 982,-123 1011.62,-132.379 1043.51,-149.441 1062.6,-160.492"/>
<polygon fill="#9a32cd" stroke="#9a32cd" points="850.887,-93.438 840.558,-95.7939 850.102,-100.394 850.887,-93.438"/>
<text text-anchor="middle" x="927" y="-127" font-family="FreeSans" font-size="10.00"> value_</text>
</g>
<!-- Node17 -->
<g id="node41" class="node"><title>Node17</title>
<a xlink:href="class_urho3_d_1_1_shared_ptr.html" target="_top" xlink:title="Urho3D::SharedPtr\&lt;\l Urho3D::AttributeAccessor \&gt;">
<polygon fill="none" stroke="black" points="1000.5,-71 1000.5,-105 1159.5,-105 1159.5,-71 1000.5,-71"/>
<text text-anchor="start" x="1008.5" y="-92" font-family="FreeSans" font-size="10.00">Urho3D::SharedPtr&lt;</text>
<text text-anchor="middle" x="1080" y="-79" font-family="FreeSans" font-size="10.00"> Urho3D::AttributeAccessor &gt;</text>
</a>
</g>
<!-- Node17&#45;&gt;Node1 -->
<g id="edge50" class="edge"><title>Node17&#45;&gt;Node1</title>
<path fill="none" stroke="#9a32cd" stroke-dasharray="5,2" d="M1169.67,-88C1201.2,-88 1235.83,-88 1264.28,-88"/>
<polygon fill="#9a32cd" stroke="#9a32cd" points="1169.56,-84.5001 1159.56,-88 1169.56,-91.5001 1169.56,-84.5001"/>
<text text-anchor="middle" x="1212" y="-92" font-family="FreeSans" font-size="10.00"> accessor_</text>
</g>
<!-- Node18 -->
<g id="node43" class="node"><title>Node18</title>
<a xlink:href="class_urho3_d_1_1_attribute_accessor.html" target="_top" xlink:title="Internal helper class for invoking attribute accessors.">
<polygon fill="none" stroke="black" points="708.5,-25.5 708.5,-46.5 853.5,-46.5 853.5,-25.5 708.5,-25.5"/>
<text text-anchor="middle" x="781" y="-33.5" font-family="FreeSans" font-size="10.00">Urho3D::AttributeAccessor</text>
</a>
</g>
<!-- Node18&#45;&gt;Node17 -->
<g id="edge52" class="edge"><title>Node18&#45;&gt;Node17</title>
<path fill="none" stroke="#9a32cd" stroke-dasharray="5,2" d="M863.813,-40.0787C900.338,-42.9432 943.6,-47.7967 982,-56 990.247,-57.7617 991.99,-59.3634 1000,-62 1008.88,-64.9223 1018.32,-68.0084 1027.48,-70.9939"/>
<polygon fill="#9a32cd" stroke="#9a32cd" points="863.933,-36.5779 853.7,-39.3223 863.411,-43.5585 863.933,-36.5779"/>
<text text-anchor="middle" x="927" y="-60" font-family="FreeSans" font-size="10.00"> ptr_</text>
</g>
<!-- Node19 -->
<g id="node45" class="node"><title>Node19</title>
<a xlink:href="class_urho3_d_1_1_ref_counted.html" target="_top" xlink:title="Base class for intrusively reference&#45;counted objects. These are noncopyable and non&#45;assignable.">
<polygon fill="none" stroke="black" points="425,-15.5 425,-36.5 539,-36.5 539,-15.5 425,-15.5"/>
<text text-anchor="middle" x="482" y="-23.5" font-family="FreeSans" font-size="10.00">Urho3D::RefCounted</text>
</a>
</g>
<!-- Node19&#45;&gt;Node18 -->
<g id="edge54" class="edge"><title>Node19&#45;&gt;Node18</title>
<path fill="none" stroke="midnightblue" d="M549.436,-28.2554C596.716,-29.8366 659.863,-31.9486 708.271,-33.5676"/>
<polygon fill="midnightblue" stroke="midnightblue" points="549.408,-24.7526 539.296,-27.9163 549.174,-31.7487 549.408,-24.7526"/>
</g>
<!-- Node20 -->
<g id="node47" class="node"><title>Node20</title>
<a xlink:href="struct_urho3_d_1_1_ref_count.html" target="_top" xlink:title="Reference count structure.">
<polygon fill="none" stroke="black" points="208,-15.5 208,-36.5 310,-36.5 310,-15.5 208,-15.5"/>
<text text-anchor="middle" x="259" y="-23.5" font-family="FreeSans" font-size="10.00">Urho3D::RefCount</text>
</a>
</g>
<!-- Node20&#45;&gt;Node19 -->
<g id="edge56" class="edge"><title>Node20&#45;&gt;Node19</title>
<path fill="none" stroke="#9a32cd" stroke-dasharray="5,2" d="M320.473,-26C353.071,-26 392.867,-26 424.8,-26"/>
<polygon fill="#9a32cd" stroke="#9a32cd" points="320.161,-22.5001 310.161,-26 320.161,-29.5001 320.161,-22.5001"/>
<text text-anchor="middle" x="369" y="-30" font-family="FreeSans" font-size="10.00"> refCount_</text>
</g>
<!-- Node21 -->
<g id="node49" class="node"><title>Node21</title>
<a xlink:href="class_urho3_d_1_1_string.html" target="_top" xlink:title="String class.">
<polygon fill="none" stroke="black" points="1036,-0.5 1036,-21.5 1124,-21.5 1124,-0.5 1036,-0.5"/>
<text text-anchor="middle" x="1080" y="-8.5" font-family="FreeSans" font-size="10.00">Urho3D::String</text>
</a>
</g>
<!-- Node21&#45;&gt;Node1 -->
<g id="edge58" class="edge"><title>Node21&#45;&gt;Node1</title>
<path fill="none" stroke="#9a32cd" stroke-dasharray="5,2" d="M1123.17,-24.6237C1171,-39.7178 1247.1,-63.7333 1290.6,-77.459"/>
<polygon fill="#9a32cd" stroke="#9a32cd" points="1124.01,-21.2168 1113.42,-21.5451 1121.9,-27.8923 1124.01,-21.2168"/>
<text text-anchor="middle" x="1212" y="-68" font-family="FreeSans" font-size="10.00"> name_</text>
</g>
<!-- Node21&#45;&gt;Node21 -->
<g id="edge60" class="edge"><title>Node21&#45;&gt;Node21</title>
<path fill="none" stroke="#9a32cd" stroke-dasharray="5,2" d="M1055.67,-31.4266C1057.55,-36.3489 1065.66,-40 1080,-40 1102.95,-40 1109.94,-30.6531 1100.97,-21.7079"/>
<polygon fill="#9a32cd" stroke="#9a32cd" points="1059.07,-32.3026 1059.03,-21.7079 1052.46,-30.0197 1059.07,-32.3026"/>
<text text-anchor="middle" x="1080" y="-44" font-family="FreeSans" font-size="10.00"> EMPTY</text>
</g>
</g>
</svg>
        <g id="navigator" transform="translate(0 0)" fill="#404254">
                <rect fill="#f2f5e9" fill-opacity="0.5" stroke="#606060" stroke-width=".5" x="0" y="0" width="60" height="60"/>
                <use id="zoomplus" xlink:href="#zoomPlus" x="17" y="9" onmousedown="handleZoom(evt,'in')"/>
                <use id="zoomminus" xlink:href="#zoomMin" x="42" y="9" onmousedown="handleZoom(evt,'out')"/>
                <use id="reset" xlink:href="#resetDef" x="30" y="36" onmousedown="handleReset()"/>
                <g id="arrowUp" xlink:href="#dirArrow" transform="translate(30 24)" onmousedown="handlePan(0,-1)">
                  <use xlink:href="#rim" fill="#404040">
                        <set attributeName="fill" to="#808080" begin="arrowUp.mouseover" end="arrowUp.mouseout"/>
                  </use>
                  <path fill="none" stroke="white" stroke-width="1.5" d="M0,-3.0v7 M-2.5,-0.5L0,-3.0L2.5,-0.5"/>
                </g>
                <g id="arrowRight" xlink:href="#dirArrow" transform="rotate(90) translate(36 -43)" onmousedown="handlePan(1,0)">
                  <use xlink:href="#rim" fill="#404040">
                        <set attributeName="fill" to="#808080" begin="arrowRight.mouseover" end="arrowRight.mouseout"/>
                  </use>
                  <path fill="none" stroke="white" stroke-width="1.5" d="M0,-3.0v7 M-2.5,-0.5L0,-3.0L2.5,-0.5"/>
                </g>
                <g id="arrowDown" xlink:href="#dirArrow" transform="rotate(180) translate(-30 -48)" onmousedown="handlePan(0,1)">
                  <use xlink:href="#rim" fill="#404040">
                        <set attributeName="fill" to="#808080" begin="arrowDown.mouseover" end="arrowDown.mouseout"/>
                  </use>
                  <path fill="none" stroke="white" stroke-width="1.5" d="M0,-3.0v7 M-2.5,-0.5L0,-3.0L2.5,-0.5"/>
                </g>
                <g id="arrowLeft" xlink:href="#dirArrow" transform="rotate(270) translate(-36 17)" onmousedown="handlePan(-1,0)">
                  <use xlink:href="#rim" fill="#404040">
                        <set attributeName="fill" to="#808080" begin="arrowLeft.mouseover" end="arrowLeft.mouseout"/>
                  </use>
                  <path fill="none" stroke="white" stroke-width="1.5" d="M0,-3.0v7 M-2.5,-0.5L0,-3.0L2.5,-0.5"/>
                </g>
        </g>
        <svg viewBox="0 0 15 15" width="100%" height="30px" preserveAspectRatio="xMaxYMin meet">
         <g id="arrow_out" transform="scale(0.3 0.3)">
          <a xlink:href="struct_urho3_d_1_1_attribute_info__coll__graph_org.svg" target="_base">
           <rect id="button" ry="5" rx="5" y="6" x="6" height="38" width="38"
                fill="#f2f5e9" fill-opacity="0.5" stroke="#606060" stroke-width="1.0"/>
           <path id="arrow"
             d="M 11.500037,31.436501 C 11.940474,20.09759 22.043105,11.32322 32.158766,21.979434 L 37.068811,17.246167 C 37.068811,17.246167 37.088388,32 37.088388,32 L 22.160133,31.978069 C 22.160133,31.978069 26.997745,27.140456 26.997745,27.140456 C 18.528582,18.264221 13.291696,25.230495 11.500037,31.436501 z"
             style="fill:#404040;"/>
          </a>
         </g>
        </svg>
</svg>
