<?xml version="1.0" encoding="UTF-8" standalone="no"?>
<!DOCTYPE svg PUBLIC "-//W3C//DTD SVG 1.1//EN"
 "http://www.w3.org/Graphics/SVG/1.1/DTD/svg11.dtd">
<!-- Generated by graphviz version 2.26.3 (20100126.1600)
 -->
<!-- Title: Urho3D::BackgroundLoader Pages: 1 -->
<!--zoomable 806 -->
<svg id="main" version="1.1" xmlns="http://www.w3.org/2000/svg" xmlns:xlink="http://www.w3.org/1999/xlink" xml:space="preserve" onload="init(evt)">
        <defs>
                <circle id="rim" cx="0" cy="0" r="7"/>
                <circle id="rim2" cx="0" cy="0" r="3.5"/>
                <g id="zoomPlus">
                        <use xlink:href="#rim" fill="#404040">
                                <set attributeName="fill" to="#808080" begin="zoomplus.mouseover" end="zoomplus.mouseout"/>
                        </use>
                        <path d="M-4,0h8M0,-4v8" fill="none" stroke="white" stroke-width="1.5" pointer-events="none"/>
                </g>
                <g id="zoomMin">
                        <use xlink:href="#rim" fill="#404040">
                                <set attributeName="fill" to="#808080" begin="zoomminus.mouseover" end="zoomminus.mouseout"/>
                        </use>
                        <path d="M-4,0h8" fill="none" stroke="white" stroke-width="1.5" pointer-events="none"/>
                </g>
                <g id="dirArrow">
                        <path fill="none" stroke="white" stroke-width="1.5" d="M0,-3.0v7 M-2.5,-0.5L0,-3.0L2.5,-0.5"/>
                </g>
               <g id="resetDef">
                       <use xlink:href="#rim2" fill="#404040">
                               <set attributeName="fill" to="#808080" begin="reset.mouseover" end="reset.mouseout"/>
                       </use>
               </g>
        </defs>

<script type="text/javascript">
var viewWidth = 1592;
var viewHeight = 806;
var sectionId = 'dynsection-1';
</script>
<script xlink:href="svgpan.js"/>
<svg id="graph" class="graph">
<g id="viewport">
<title>Urho3D::BackgroundLoader</title>
<!-- Node1 -->
<g id="node1" class="node"><title>Node1</title>
<polygon fill="#bfbfbf" stroke="black" points="766.5,-605.5 766.5,-626.5 915.5,-626.5 915.5,-605.5 766.5,-605.5"/>
<text text-anchor="middle" x="841" y="-613.5" font-family="FreeSans" font-size="10.00">Urho3D::BackgroundLoader</text>
</g>
<!-- Node19 -->
<g id="node45" class="node"><title>Node19</title>
<a xlink:href="class_urho3_d_1_1_shared_ptr.html" target="_top" xlink:title="Urho3D::SharedPtr\&lt;\l Urho3D::BackgroundLoader \&gt;">
<polygon fill="none" stroke="black" points="1152,-623 1152,-657 1316,-657 1316,-623 1152,-623"/>
<text text-anchor="start" x="1160" y="-644" font-family="FreeSans" font-size="10.00">Urho3D::SharedPtr&lt;</text>
<text text-anchor="middle" x="1234" y="-631" font-family="FreeSans" font-size="10.00"> Urho3D::BackgroundLoader &gt;</text>
</a>
</g>
<!-- Node1&#45;&gt;Node19 -->
<g id="edge56" class="edge"><title>Node1&#45;&gt;Node19</title>
<path fill="none" stroke="#9a32cd" stroke-dasharray="5,2" d="M925.949,-621.188C992.927,-625.278 1085.76,-630.947 1151.97,-634.991"/>
<polygon fill="#9a32cd" stroke="#9a32cd" points="926.04,-617.687 915.845,-620.571 925.613,-624.674 926.04,-617.687"/>
<text text-anchor="middle" x="1034" y="-637" font-family="FreeSans" font-size="10.00"> ptr_</text>
</g>
<!-- Node2 -->
<g id="node2" class="node"><title>Node2</title>
<a xlink:href="class_urho3_d_1_1_ref_counted.html" target="_top" xlink:title="Base class for intrusively reference&#45;counted objects. These are noncopyable and non&#45;assignable.">
<polygon fill="none" stroke="black" points="220,-454.5 220,-475.5 334,-475.5 334,-454.5 220,-454.5"/>
<text text-anchor="middle" x="277" y="-462.5" font-family="FreeSans" font-size="10.00">Urho3D::RefCounted</text>
</a>
</g>
<!-- Node2&#45;&gt;Node1 -->
<g id="edge2" class="edge"><title>Node2&#45;&gt;Node1</title>
<path fill="none" stroke="midnightblue" d="M283.524,-485.406C295.254,-518.268 323.334,-581.963 372,-609 437.49,-645.384 651.124,-633.082 766.113,-623.284"/>
<polygon fill="midnightblue" stroke="midnightblue" points="286.824,-484.24 280.284,-475.905 280.199,-486.499 286.824,-484.24"/>
</g>
<!-- Node6 -->
<g id="node10" class="node"><title>Node6</title>
<a xlink:href="class_urho3_d_1_1_object.html" target="_top" xlink:title="Base class for objects with type identification, subsystem access and event sending/receiving capabil...">
<polygon fill="none" stroke="black" points="412,-454.5 412,-475.5 502,-475.5 502,-454.5 412,-454.5"/>
<text text-anchor="middle" x="457" y="-462.5" font-family="FreeSans" font-size="10.00">Urho3D::Object</text>
</a>
</g>
<!-- Node2&#45;&gt;Node6 -->
<g id="edge12" class="edge"><title>Node2&#45;&gt;Node6</title>
<path fill="none" stroke="midnightblue" d="M344.593,-465C367.024,-465 391.438,-465 411.764,-465"/>
<polygon fill="midnightblue" stroke="midnightblue" points="344.448,-461.5 334.448,-465 344.448,-468.5 344.448,-461.5"/>
</g>
<!-- Node7 -->
<g id="node13" class="node"><title>Node7</title>
<a xlink:href="class_urho3_d_1_1_context.html" target="_top" xlink:title="Urho3D execution context. Provides access to subsystems, object factories and attributes, and event receivers.">
<polygon fill="none" stroke="red" points="1185.5,-319.5 1185.5,-340.5 1282.5,-340.5 1282.5,-319.5 1185.5,-319.5"/>
<text text-anchor="middle" x="1234" y="-327.5" font-family="FreeSans" font-size="10.00">Urho3D::Context</text>
</a>
</g>
<!-- Node2&#45;&gt;Node7 -->
<g id="edge16" class="edge"><title>Node2&#45;&gt;Node7</title>
<path fill="none" stroke="midnightblue" d="M307.469,-450.087C358.349,-426.019 464.462,-379.355 560,-360 790.169,-313.371 1073.24,-321.38 1185.15,-327.044"/>
<polygon fill="midnightblue" stroke="midnightblue" points="305.854,-446.979 298.337,-454.446 308.869,-453.297 305.854,-446.979"/>
</g>
<!-- Node3 -->
<g id="node4" class="node"><title>Node3</title>
<a xlink:href="struct_urho3_d_1_1_ref_count.html" target="_top" xlink:title="Reference count structure.">
<polygon fill="none" stroke="black" points="16,-454.5 16,-475.5 118,-475.5 118,-454.5 16,-454.5"/>
<text text-anchor="middle" x="67" y="-462.5" font-family="FreeSans" font-size="10.00">Urho3D::RefCount</text>
</a>
</g>
<!-- Node3&#45;&gt;Node2 -->
<g id="edge4" class="edge"><title>Node3&#45;&gt;Node2</title>
<path fill="none" stroke="#9a32cd" stroke-dasharray="5,2" d="M128.464,-465C157.297,-465 191.451,-465 219.735,-465"/>
<polygon fill="#9a32cd" stroke="#9a32cd" points="128.103,-461.5 118.103,-465 128.103,-468.5 128.103,-461.5"/>
<text text-anchor="middle" x="177" y="-469" font-family="FreeSans" font-size="10.00"> refCount_</text>
</g>
<!-- Node4 -->
<g id="node6" class="node"><title>Node4</title>
<a xlink:href="class_urho3_d_1_1_thread.html" target="_top" xlink:title="Operating system thread.">
<polygon fill="none" stroke="black" points="411,-578.5 411,-599.5 503,-599.5 503,-578.5 411,-578.5"/>
<text text-anchor="middle" x="457" y="-586.5" font-family="FreeSans" font-size="10.00">Urho3D::Thread</text>
</a>
</g>
<!-- Node4&#45;&gt;Node1 -->
<g id="edge6" class="edge"><title>Node4&#45;&gt;Node1</title>
<path fill="none" stroke="midnightblue" d="M513.665,-592.984C580.593,-597.69 692.156,-605.534 766.147,-610.737"/>
<polygon fill="midnightblue" stroke="midnightblue" points="513.54,-589.467 503.319,-592.257 513.049,-596.45 513.54,-589.467"/>
</g>
<!-- Node5 -->
<g id="node8" class="node"><title>Node5</title>
<a xlink:href="class_urho3_d_1_1_resource_cache.html" target="_top" xlink:title="Resource cache subsystem. Loads resources on demand and stores them for later access.">
<polygon fill="none" stroke="black" points="1450.5,-331.5 1450.5,-352.5 1583.5,-352.5 1583.5,-331.5 1450.5,-331.5"/>
<text text-anchor="middle" x="1517" y="-339.5" font-family="FreeSans" font-size="10.00">Urho3D::ResourceCache</text>
</a>
</g>
<!-- Node5&#45;&gt;Node1 -->
<g id="edge8" class="edge"><title>Node5&#45;&gt;Node1</title>
<path fill="none" stroke="#9a32cd" stroke-dasharray="5,2" d="M1515.79,-362.872C1511.97,-407.374 1496.27,-511.473 1432,-560 1391.62,-590.49 1065.43,-607.155 915.675,-613.264"/>
<polygon fill="#9a32cd" stroke="#9a32cd" points="1519.29,-362.911 1516.54,-352.681 1512.31,-362.397 1519.29,-362.911"/>
<text text-anchor="middle" x="1234" y="-604" font-family="FreeSans" font-size="10.00"> owner_</text>
</g>
<!-- Node6&#45;&gt;Node5 -->
<g id="edge10" class="edge"><title>Node6&#45;&gt;Node5</title>
<path fill="none" stroke="midnightblue" d="M511.964,-474.432C522.277,-477.343 532.724,-481.118 542,-486 551.472,-490.985 550.243,-497.599 560,-502 644.072,-539.918 673.941,-521.434 766,-527 897.47,-534.948 1259.04,-533.198 1316,-521 1370.9,-509.243 1388.97,-507.063 1432,-471 1473.32,-436.371 1502.15,-376.596 1512.64,-352.509"/>
<polygon fill="midnightblue" stroke="midnightblue" points="512.717,-471.011 502.159,-471.898 510.965,-477.789 512.717,-471.011"/>
</g>
<!-- Node10 -->
<g id="node20" class="node"><title>Node10</title>
<a xlink:href="class_urho3_d_1_1_event_handler.html" target="_top" xlink:title="Internal helper class for invoking event handler functions.">
<polygon fill="none" stroke="red" points="779,-407.5 779,-428.5 903,-428.5 903,-407.5 779,-407.5"/>
<text text-anchor="middle" x="841" y="-415.5" font-family="FreeSans" font-size="10.00">Urho3D::EventHandler</text>
</a>
</g>
<!-- Node6&#45;&gt;Node10 -->
<g id="edge24" class="edge"><title>Node6&#45;&gt;Node10</title>
<path fill="none" stroke="#9a32cd" stroke-dasharray="5,2" d="M487.296,-450.032C507.384,-440.919 534.622,-430.083 560,-425 634.167,-410.146 721.535,-410.713 778.929,-413.473"/>
<polygon fill="#9a32cd" stroke="#9a32cd" points="485.639,-446.942 478.048,-454.334 488.592,-453.289 485.639,-446.942"/>
<text text-anchor="middle" x="654" y="-442" font-family="FreeSans" font-size="10.00"> sender_</text>
<text text-anchor="middle" x="654" y="-429" font-family="FreeSans" font-size="10.00">receiver_</text>
</g>
<!-- Node21 -->
<g id="node50" class="node"><title>Node21</title>
<a xlink:href="class_urho3_d_1_1_resource_router.html" target="_top" xlink:title="Optional resource request processor. Can deny requests, re&#45;route resource file names, or perform other processing per request.">
<polygon fill="none" stroke="black" points="774,-496.5 774,-517.5 908,-517.5 908,-496.5 774,-496.5"/>
<text text-anchor="middle" x="841" y="-504.5" font-family="FreeSans" font-size="10.00">Urho3D::ResourceRouter</text>
</a>
</g>
<!-- Node6&#45;&gt;Node21 -->
<g id="edge62" class="edge"><title>Node6&#45;&gt;Node21</title>
<path fill="none" stroke="midnightblue" d="M512.037,-472.851C527.535,-474.961 544.416,-477.165 560,-479 633.035,-487.6 716.956,-495.734 773.931,-500.997"/>
<polygon fill="midnightblue" stroke="midnightblue" points="512.463,-469.377 502.079,-471.483 511.51,-476.312 512.463,-469.377"/>
</g>
<!-- Node7&#45;&gt;Node6 -->
<g id="edge14" class="edge"><title>Node7&#45;&gt;Node6</title>
<path fill="none" stroke="#9a32cd" stroke-dasharray="5,2" d="M1175.29,-338.517C1161.74,-340.4 1147.38,-342.33 1134,-344 879.334,-375.795 804.325,-328.444 560,-407 526.005,-417.93 490.639,-440.797 471.47,-454.324"/>
<polygon fill="#9a32cd" stroke="#9a32cd" points="1176.05,-341.945 1185.46,-337.091 1175.08,-335.013 1176.05,-341.945"/>
<text text-anchor="middle" x="841" y="-366" font-family="FreeSans" font-size="10.00"> context_</text>
</g>
<!-- Node8 -->
<g id="node16" class="node"><title>Node8</title>
<a xlink:href="class_urho3_d_1_1_p_o_d_vector.html" target="_top" xlink:title="Urho3D::PODVector\&lt;\l Urho3D::Object * \&gt;">
<polygon fill="none" stroke="black" points="781.5,-219 781.5,-253 900.5,-253 900.5,-219 781.5,-219"/>
<text text-anchor="start" x="789.5" y="-240" font-family="FreeSans" font-size="10.00">Urho3D::PODVector&lt;</text>
<text text-anchor="middle" x="841" y="-227" font-family="FreeSans" font-size="10.00"> Urho3D::Object * &gt;</text>
</a>
</g>
<!-- Node8&#45;&gt;Node7 -->
<g id="edge18" class="edge"><title>Node8&#45;&gt;Node7</title>
<path fill="none" stroke="#9a32cd" stroke-dasharray="5,2" d="M910.89,-238.685C991.678,-242.334 1115.92,-249.836 1134,-262 1148.51,-271.763 1139.07,-285.216 1152,-297 1163.11,-307.132 1177.74,-314.342 1191.55,-319.383"/>
<polygon fill="#9a32cd" stroke="#9a32cd" points="910.92,-235.183 900.775,-238.238 910.61,-242.176 910.92,-235.183"/>
<text text-anchor="middle" x="1034" y="-266" font-family="FreeSans" font-size="10.00"> eventSenders_</text>
</g>
<!-- Node9 -->
<g id="node18" class="node"><title>Node9</title>
<a xlink:href="class_urho3_d_1_1_vector_base.html" target="_top" xlink:title="Vector base class.">
<polygon fill="none" stroke="black" points="400,-167.5 400,-188.5 514,-188.5 514,-167.5 400,-167.5"/>
<text text-anchor="middle" x="457" y="-175.5" font-family="FreeSans" font-size="10.00">Urho3D::VectorBase</text>
</a>
</g>
<!-- Node9&#45;&gt;Node8 -->
<g id="edge20" class="edge"><title>Node9&#45;&gt;Node8</title>
<path fill="none" stroke="midnightblue" d="M501.643,-191.227C519.638,-196.158 540.676,-201.421 560,-205 635.768,-219.032 724.29,-227.512 781.425,-231.973"/>
<polygon fill="midnightblue" stroke="midnightblue" points="502.561,-187.85 491.989,-188.535 500.681,-194.593 502.561,-187.85"/>
</g>
<!-- Node17 -->
<g id="node39" class="node"><title>Node17</title>
<a xlink:href="class_urho3_d_1_1_vector.html" target="_top" xlink:title="Urho3D::Vector\&lt; Urho3D\l::SharedPtr\&lt; Urho3D::Package\lFile \&gt; \&gt;">
<polygon fill="none" stroke="black" points="952,-187.5 952,-234.5 1116,-234.5 1116,-187.5 952,-187.5"/>
<text text-anchor="start" x="960" y="-221.5" font-family="FreeSans" font-size="10.00">Urho3D::Vector&lt; Urho3D</text>
<text text-anchor="start" x="960" y="-208.5" font-family="FreeSans" font-size="10.00">::SharedPtr&lt; Urho3D::Package</text>
<text text-anchor="middle" x="1034" y="-195.5" font-family="FreeSans" font-size="10.00">File &gt; &gt;</text>
</a>
</g>
<!-- Node9&#45;&gt;Node17 -->
<g id="edge48" class="edge"><title>Node9&#45;&gt;Node17</title>
<path fill="none" stroke="midnightblue" d="M524.451,-181.858C630.777,-187.939 837.037,-199.735 951.843,-206.301"/>
<polygon fill="midnightblue" stroke="midnightblue" points="524.353,-178.346 514.169,-181.27 523.953,-185.335 524.353,-178.346"/>
</g>
<!-- Node18 -->
<g id="node42" class="node"><title>Node18</title>
<a xlink:href="class_urho3_d_1_1_vector.html" target="_top" xlink:title="Urho3D::Vector\&lt; Urho3D\l::String \&gt;">
<polygon fill="none" stroke="black" points="965,-147 965,-181 1103,-181 1103,-147 965,-147"/>
<text text-anchor="start" x="973" y="-168" font-family="FreeSans" font-size="10.00">Urho3D::Vector&lt; Urho3D</text>
<text text-anchor="middle" x="1034" y="-155" font-family="FreeSans" font-size="10.00">::String &gt;</text>
</a>
</g>
<!-- Node9&#45;&gt;Node18 -->
<g id="edge52" class="edge"><title>Node9&#45;&gt;Node18</title>
<path fill="none" stroke="midnightblue" d="M524.181,-176.37C634.529,-173.693 853.035,-168.391 964.731,-165.681"/>
<polygon fill="midnightblue" stroke="midnightblue" points="524.081,-172.871 514.169,-176.613 524.251,-179.869 524.081,-172.871"/>
</g>
<!-- Node24 -->
<g id="node58" class="node"><title>Node24</title>
<a xlink:href="class_urho3_d_1_1_vector.html" target="_top" xlink:title="Urho3D::Vector\&lt; Urho3D\l::SharedPtr\&lt; Urho3D::FileWatcher \&gt; \&gt;">
<polygon fill="none" stroke="black" points="934,-101 934,-135 1134,-135 1134,-101 934,-101"/>
<text text-anchor="start" x="942" y="-122" font-family="FreeSans" font-size="10.00">Urho3D::Vector&lt; Urho3D</text>
<text text-anchor="middle" x="1034" y="-109" font-family="FreeSans" font-size="10.00">::SharedPtr&lt; Urho3D::FileWatcher &gt; &gt;</text>
</a>
</g>
<!-- Node9&#45;&gt;Node24 -->
<g id="edge72" class="edge"><title>Node9&#45;&gt;Node24</title>
<path fill="none" stroke="midnightblue" d="M524.482,-170.76C536.319,-169.5 548.519,-168.207 560,-167 688.969,-153.447 837.712,-138.12 933.661,-128.273"/>
<polygon fill="midnightblue" stroke="midnightblue" points="523.774,-167.316 514.202,-171.856 524.516,-174.276 523.774,-167.316"/>
</g>
<!-- Node10&#45;&gt;Node7 -->
<g id="edge22" class="edge"><title>Node10&#45;&gt;Node7</title>
<path fill="none" stroke="#9a32cd" stroke-dasharray="5,2" d="M913.219,-408.676C998.258,-397.656 1128.72,-380.599 1134,-379 1164.53,-369.757 1197.25,-352.073 1216.65,-340.669"/>
<polygon fill="#9a32cd" stroke="#9a32cd" points="912.553,-405.233 903.085,-409.989 913.452,-412.175 912.553,-405.233"/>
<text text-anchor="middle" x="1034" y="-408" font-family="FreeSans" font-size="10.00"> eventHandler_</text>
</g>
<!-- Node15 -->
<g id="node33" class="node"><title>Node15</title>
<a xlink:href="class_urho3_d_1_1_linked_list.html" target="_top" xlink:title="Urho3D::LinkedList\l\&lt; Urho3D::EventHandler \&gt;">
<polygon fill="none" stroke="black" points="1161,-423 1161,-457 1307,-457 1307,-423 1161,-423"/>
<text text-anchor="start" x="1169" y="-444" font-family="FreeSans" font-size="10.00">Urho3D::LinkedList</text>
<text text-anchor="middle" x="1234" y="-431" font-family="FreeSans" font-size="10.00">&lt; Urho3D::EventHandler &gt;</text>
</a>
</g>
<!-- Node10&#45;&gt;Node15 -->
<g id="edge40" class="edge"><title>Node10&#45;&gt;Node15</title>
<path fill="none" stroke="#9a32cd" stroke-dasharray="5,2" d="M913.397,-422.053C983.85,-425.997 1090.33,-431.958 1160.99,-435.913"/>
<polygon fill="#9a32cd" stroke="#9a32cd" points="913.452,-418.55 903.272,-421.486 913.061,-425.54 913.452,-418.55"/>
<text text-anchor="middle" x="1034" y="-438" font-family="FreeSans" font-size="10.00"> head_</text>
</g>
<!-- Node11 -->
<g id="node23" class="node"><title>Node11</title>
<a xlink:href="class_urho3_d_1_1_hash_map.html" target="_top" xlink:title="Urho3D::HashMap\&lt; Urho3D\l::StringHash, Urho3D::\lHashSet\&lt; Urho3D::Object * \&gt; \&gt;">
<polygon fill="none" stroke="black" points="567.5,-248.5 567.5,-295.5 740.5,-295.5 740.5,-248.5 567.5,-248.5"/>
<text text-anchor="start" x="575.5" y="-282.5" font-family="FreeSans" font-size="10.00">Urho3D::HashMap&lt; Urho3D</text>
<text text-anchor="start" x="575.5" y="-269.5" font-family="FreeSans" font-size="10.00">::StringHash, Urho3D::</text>
<text text-anchor="middle" x="654" y="-256.5" font-family="FreeSans" font-size="10.00">HashSet&lt; Urho3D::Object * &gt; &gt;</text>
</a>
</g>
<!-- Node11&#45;&gt;Node7 -->
<g id="edge26" class="edge"><title>Node11&#45;&gt;Node7</title>
<path fill="none" stroke="#9a32cd" stroke-dasharray="5,2" d="M750.93,-279.52C847.98,-287.371 1001.53,-300.664 1134,-316 1150.8,-317.945 1169.15,-320.413 1185.49,-322.734"/>
<polygon fill="#9a32cd" stroke="#9a32cd" points="751.091,-276.022 740.842,-278.707 750.528,-282.999 751.091,-276.022"/>
<text text-anchor="middle" x="841" y="-297" font-family="FreeSans" font-size="10.00"> eventReceivers_</text>
</g>
<!-- Node12 -->
<g id="node25" class="node"><title>Node12</title>
<a xlink:href="class_urho3_d_1_1_hash_base.html" target="_top" xlink:title="Hash set/map base class.">
<polygon fill="none" stroke="black" points="223,-168.5 223,-189.5 331,-189.5 331,-168.5 223,-168.5"/>
<text text-anchor="middle" x="277" y="-176.5" font-family="FreeSans" font-size="10.00">Urho3D::HashBase</text>
</a>
</g>
<!-- Node12&#45;&gt;Node11 -->
<g id="edge28" class="edge"><title>Node12&#45;&gt;Node11</title>
<path fill="none" stroke="midnightblue" d="M329.766,-192.017C391.327,-207.203 494.009,-232.533 567.326,-250.619"/>
<polygon fill="midnightblue" stroke="midnightblue" points="330.427,-188.575 319.88,-189.578 328.75,-195.371 330.427,-188.575"/>
</g>
<!-- Node16 -->
<g id="node36" class="node"><title>Node16</title>
<a xlink:href="class_urho3_d_1_1_hash_map.html" target="_top" xlink:title="Urho3D::HashMap\&lt; Urho3D\l::StringHash, Urho3D::\lHashSet\&lt; Urho3D::StringHash \&gt; \&gt;">
<polygon fill="none" stroke="black" points="560,-0.5 560,-47.5 748,-47.5 748,-0.5 560,-0.5"/>
<text text-anchor="start" x="568" y="-34.5" font-family="FreeSans" font-size="10.00">Urho3D::HashMap&lt; Urho3D</text>
<text text-anchor="start" x="568" y="-21.5" font-family="FreeSans" font-size="10.00">::StringHash, Urho3D::</text>
<text text-anchor="middle" x="654" y="-8.5" font-family="FreeSans" font-size="10.00">HashSet&lt; Urho3D::StringHash &gt; &gt;</text>
</a>
</g>
<!-- Node12&#45;&gt;Node16 -->
<g id="edge44" class="edge"><title>Node12&#45;&gt;Node16</title>
<path fill="none" stroke="midnightblue" d="M294.871,-161.307C312.919,-144.355 342.304,-119.173 372,-104 431.14,-73.7835 503.265,-53.5848 559.769,-41.0425"/>
<polygon fill="midnightblue" stroke="midnightblue" points="292.214,-159.005 287.415,-168.45 297.057,-164.059 292.214,-159.005"/>
</g>
<!-- Node22 -->
<g id="node53" class="node"><title>Node22</title>
<a xlink:href="class_urho3_d_1_1_hash_map.html" target="_top" xlink:title="Urho3D::HashMap\&lt; Urho3D\l::StringHash, Urho3D::\lResourceGroup \&gt;">
<polygon fill="none" stroke="black" points="578,-53.5 578,-100.5 730,-100.5 730,-53.5 578,-53.5"/>
<text text-anchor="start" x="586" y="-87.5" font-family="FreeSans" font-size="10.00">Urho3D::HashMap&lt; Urho3D</text>
<text text-anchor="start" x="586" y="-74.5" font-family="FreeSans" font-size="10.00">::StringHash, Urho3D::</text>
<text text-anchor="middle" x="654" y="-61.5" font-family="FreeSans" font-size="10.00">ResourceGroup &gt;</text>
</a>
</g>
<!-- Node12&#45;&gt;Node22 -->
<g id="edge66" class="edge"><title>Node12&#45;&gt;Node22</title>
<path fill="none" stroke="midnightblue" d="M325.759,-165.808C389.731,-148.5 502.68,-117.941 577.941,-97.5784"/>
<polygon fill="midnightblue" stroke="midnightblue" points="324.664,-162.478 315.926,-168.468 326.493,-169.235 324.664,-162.478"/>
</g>
<!-- Node25 -->
<g id="node61" class="node"><title>Node25</title>
<a xlink:href="class_urho3_d_1_1_hash_map.html" target="_top" xlink:title="Urho3D::HashMap\&lt; Urho3D\l::Pair\&lt; Urho3D::StringHash,\l Urho3D::StringHash \&gt;, Urho3D\l::BackgroundLoadItem \&gt;">
<polygon fill="none" stroke="black" points="372,-495 372,-555 542,-555 542,-495 372,-495"/>
<text text-anchor="start" x="380" y="-542" font-family="FreeSans" font-size="10.00">Urho3D::HashMap&lt; Urho3D</text>
<text text-anchor="start" x="380" y="-529" font-family="FreeSans" font-size="10.00">::Pair&lt; Urho3D::StringHash,</text>
<text text-anchor="start" x="380" y="-516" font-family="FreeSans" font-size="10.00"> Urho3D::StringHash &gt;, Urho3D</text>
<text text-anchor="middle" x="457" y="-503" font-family="FreeSans" font-size="10.00">::BackgroundLoadItem &gt;</text>
</a>
</g>
<!-- Node12&#45;&gt;Node25 -->
<g id="edge76" class="edge"><title>Node12&#45;&gt;Node25</title>
<path fill="none" stroke="midnightblue" d="M277.856,-199.677C281.127,-253.289 296.839,-398.608 372,-485 375.104,-488.568 378.596,-491.841 382.348,-494.841"/>
<polygon fill="midnightblue" stroke="midnightblue" points="281.35,-199.485 277.329,-189.683 274.36,-199.853 281.35,-199.485"/>
</g>
<!-- Node13 -->
<g id="node27" class="node"><title>Node13</title>
<a xlink:href="struct_urho3_d_1_1_hash_node_base.html" target="_top" xlink:title="Hash set/map node base class.">
<polygon fill="none" stroke="black" points="0,-119.5 0,-140.5 134,-140.5 134,-119.5 0,-119.5"/>
<text text-anchor="middle" x="67" y="-127.5" font-family="FreeSans" font-size="10.00">Urho3D::HashNodeBase</text>
</a>
</g>
<!-- Node13&#45;&gt;Node12 -->
<g id="edge30" class="edge"><title>Node13&#45;&gt;Node12</title>
<path fill="none" stroke="#9a32cd" stroke-dasharray="5,2" d="M143.227,-142.374C162.508,-145.98 183.103,-150.247 202,-155 216.982,-158.768 233.351,-163.886 246.963,-168.428"/>
<polygon fill="#9a32cd" stroke="#9a32cd" points="143.747,-138.911 133.28,-140.549 142.484,-145.796 143.747,-138.911"/>
<text text-anchor="middle" x="177" y="-185" font-family="FreeSans" font-size="10.00"> ptrs_</text>
<text text-anchor="middle" x="177" y="-172" font-family="FreeSans" font-size="10.00">tail_</text>
<text text-anchor="middle" x="177" y="-159" font-family="FreeSans" font-size="10.00">head_</text>
</g>
<!-- Node13&#45;&gt;Node13 -->
<g id="edge32" class="edge"><title>Node13&#45;&gt;Node13</title>
<path fill="none" stroke="#9a32cd" stroke-dasharray="5,2" d="M46.7282,-150.427C48.292,-155.349 55.0493,-159 67,-159 86.1211,-159 91.9471,-149.653 84.4779,-140.708"/>
<polygon fill="#9a32cd" stroke="#9a32cd" points="50.1229,-151.286 49.5221,-140.708 43.3954,-149.352 50.1229,-151.286"/>
<text text-anchor="middle" x="67" y="-189" font-family="FreeSans" font-size="10.00"> next_</text>
<text text-anchor="middle" x="67" y="-176" font-family="FreeSans" font-size="10.00">prev_</text>
<text text-anchor="middle" x="67" y="-163" font-family="FreeSans" font-size="10.00">down_</text>
</g>
<!-- Node14 -->
<g id="node30" class="node"><title>Node14</title>
<a xlink:href="struct_urho3_d_1_1_allocator_block.html" target="_top" xlink:title="Allocator memory block.">
<polygon fill="none" stroke="red" points="3.5,-216.5 3.5,-237.5 130.5,-237.5 130.5,-216.5 3.5,-216.5"/>
<text text-anchor="middle" x="67" y="-224.5" font-family="FreeSans" font-size="10.00">Urho3D::AllocatorBlock</text>
</a>
</g>
<!-- Node14&#45;&gt;Node12 -->
<g id="edge34" class="edge"><title>Node14&#45;&gt;Node12</title>
<path fill="none" stroke="#9a32cd" stroke-dasharray="5,2" d="M123.252,-214.142C156.973,-206.435 199.315,-196.757 231.022,-189.509"/>
<polygon fill="#9a32cd" stroke="#9a32cd" points="122.054,-210.826 113.085,-216.466 123.614,-217.65 122.054,-210.826"/>
<text text-anchor="middle" x="177" y="-212" font-family="FreeSans" font-size="10.00"> allocator_</text>
</g>
<!-- Node14&#45;&gt;Node14 -->
<g id="edge36" class="edge"><title>Node14&#45;&gt;Node14</title>
<path fill="none" stroke="#9a32cd" stroke-dasharray="5,2" d="M46.7282,-247.427C48.292,-252.349 55.0493,-256 67,-256 86.1211,-256 91.9471,-246.653 84.4779,-237.708"/>
<polygon fill="#9a32cd" stroke="#9a32cd" points="50.1229,-248.286 49.5221,-237.708 43.3954,-246.352 50.1229,-248.286"/>
<text text-anchor="middle" x="67" y="-260" font-family="FreeSans" font-size="10.00"> next_</text>
</g>
<!-- Node15&#45;&gt;Node6 -->
<g id="edge38" class="edge"><title>Node15&#45;&gt;Node6</title>
<path fill="none" stroke="#9a32cd" stroke-dasharray="5,2" d="M1150.7,-449.727C1145.05,-450.212 1139.45,-450.645 1134,-451 896.446,-466.491 611.107,-466.235 502.219,-465.451"/>
<polygon fill="#9a32cd" stroke="#9a32cd" points="1151.24,-453.192 1160.88,-448.801 1150.61,-446.221 1151.24,-453.192"/>
<text text-anchor="middle" x="841" y="-468" font-family="FreeSans" font-size="10.00"> eventHandlers_</text>
</g>
<!-- Node16&#45;&gt;Node5 -->
<g id="edge42" class="edge"><title>Node16&#45;&gt;Node5</title>
<path fill="none" stroke="#9a32cd" stroke-dasharray="5,2" d="M758.358,-20.7882C890.545,-19.3649 1124.22,-25.7233 1316,-78 1369.67,-92.6291 1392.9,-85.4381 1432,-125 1492.87,-186.58 1511.37,-296.844 1515.8,-331.366"/>
<polygon fill="#9a32cd" stroke="#9a32cd" points="758.192,-17.2899 748.236,-20.9147 758.279,-24.2894 758.192,-17.2899"/>
<text text-anchor="middle" x="1034" y="-46" font-family="FreeSans" font-size="10.00"> dependentResources_</text>
</g>
<!-- Node17&#45;&gt;Node5 -->
<g id="edge46" class="edge"><title>Node17&#45;&gt;Node5</title>
<path fill="none" stroke="#9a32cd" stroke-dasharray="5,2" d="M1125.97,-235.943C1232.2,-264.756 1402.09,-310.833 1478.07,-331.441"/>
<polygon fill="#9a32cd" stroke="#9a32cd" points="1126.78,-232.536 1116.21,-233.297 1124.94,-239.292 1126.78,-232.536"/>
<text text-anchor="middle" x="1234" y="-288" font-family="FreeSans" font-size="10.00"> packages_</text>
</g>
<!-- Node18&#45;&gt;Node5 -->
<g id="edge50" class="edge"><title>Node18&#45;&gt;Node5</title>
<path fill="none" stroke="#9a32cd" stroke-dasharray="5,2" d="M1113.39,-180.482C1120.36,-181.988 1127.31,-183.508 1134,-185 1215.12,-203.098 1238.16,-198.871 1316,-228 1370.55,-248.414 1381.47,-260.015 1432,-289 1456.44,-303.019 1483.98,-320.519 1500.92,-331.481"/>
<polygon fill="#9a32cd" stroke="#9a32cd" points="1113.69,-176.966 1103.17,-178.292 1112.22,-183.811 1113.69,-176.966"/>
<text text-anchor="middle" x="1234" y="-232" font-family="FreeSans" font-size="10.00"> resourceDirs_</text>
</g>
<!-- Node19&#45;&gt;Node5 -->
<g id="edge54" class="edge"><title>Node19&#45;&gt;Node5</title>
<path fill="none" stroke="#9a32cd" stroke-dasharray="5,2" d="M1326.71,-643.869C1363.29,-640.737 1403.35,-630.864 1432,-606 1472.46,-570.893 1506.8,-397.385 1515.09,-352.576"/>
<polygon fill="#9a32cd" stroke="#9a32cd" points="1326.22,-640.394 1316.49,-644.581 1326.71,-647.377 1326.22,-640.394"/>
<text text-anchor="middle" x="1383" y="-646" font-family="FreeSans" font-size="10.00"> backgroundLoader_</text>
</g>
<!-- Node20 -->
<g id="node48" class="node"><title>Node20</title>
<a xlink:href="class_urho3_d_1_1_shared_ptr.html" target="_top" xlink:title="Urho3D::SharedPtr\&lt;\l Urho3D::ResourceRouter \&gt;">
<polygon fill="none" stroke="black" points="1160,-478 1160,-512 1308,-512 1308,-478 1160,-478"/>
<text text-anchor="start" x="1168" y="-499" font-family="FreeSans" font-size="10.00">Urho3D::SharedPtr&lt;</text>
<text text-anchor="middle" x="1234" y="-486" font-family="FreeSans" font-size="10.00"> Urho3D::ResourceRouter &gt;</text>
</a>
</g>
<!-- Node20&#45;&gt;Node5 -->
<g id="edge58" class="edge"><title>Node20&#45;&gt;Node5</title>
<path fill="none" stroke="#9a32cd" stroke-dasharray="5,2" d="M1297.09,-474.236C1303.55,-471.65 1309.96,-468.89 1316,-466 1389.23,-430.955 1469.42,-375.943 1502,-352.814"/>
<polygon fill="#9a32cd" stroke="#9a32cd" points="1295.67,-471.03 1287.6,-477.898 1298.19,-477.56 1295.67,-471.03"/>
<text text-anchor="middle" x="1383" y="-458" font-family="FreeSans" font-size="10.00"> resourceRouter_</text>
</g>
<!-- Node21&#45;&gt;Node20 -->
<g id="edge60" class="edge"><title>Node21&#45;&gt;Node20</title>
<path fill="none" stroke="#9a32cd" stroke-dasharray="5,2" d="M918.199,-504.643C988.212,-502.505 1090.74,-499.374 1159.8,-497.266"/>
<polygon fill="#9a32cd" stroke="#9a32cd" points="918.001,-501.147 908.113,-504.951 918.215,-508.144 918.001,-501.147"/>
<text text-anchor="middle" x="1034" y="-508" font-family="FreeSans" font-size="10.00"> ptr_</text>
</g>
<!-- Node22&#45;&gt;Node5 -->
<g id="edge64" class="edge"><title>Node22&#45;&gt;Node5</title>
<path fill="none" stroke="#9a32cd" stroke-dasharray="5,2" d="M740.397,-71.3386C836.785,-66.4192 997.171,-62.4059 1134,-79 1216.61,-89.0191 1236.96,-96.9451 1316,-123 1369.15,-140.522 1391.18,-133.712 1432,-172 1482.06,-218.955 1506.89,-301.835 1514.44,-331.264"/>
<polygon fill="#9a32cd" stroke="#9a32cd" points="740.211,-67.8434 730.408,-71.8634 740.578,-74.8338 740.211,-67.8434"/>
<text text-anchor="middle" x="1034" y="-83" font-family="FreeSans" font-size="10.00"> resourceGroups_</text>
</g>
<!-- Node23 -->
<g id="node56" class="node"><title>Node23</title>
<a xlink:href="class_urho3_d_1_1_mutex.html" target="_top" xlink:title="Operating system mutual exclusion primitive.">
<polygon fill="none" stroke="black" points="412.5,-667.5 412.5,-688.5 501.5,-688.5 501.5,-667.5 412.5,-667.5"/>
<text text-anchor="middle" x="457" y="-675.5" font-family="FreeSans" font-size="10.00">Urho3D::Mutex</text>
</a>
</g>
<!-- Node23&#45;&gt;Node1 -->
<g id="edge78" class="edge"><title>Node23&#45;&gt;Node1</title>
<path fill="none" stroke="#9a32cd" stroke-dasharray="5,2" d="M511.596,-669.182C527.214,-666.751 544.267,-664.184 560,-662 643.379,-650.427 665.213,-654.244 748,-639 766.157,-635.657 786.052,-630.889 802.766,-626.56"/>
<polygon fill="#9a32cd" stroke="#9a32cd" points="510.906,-665.747 501.569,-670.754 511.99,-672.663 510.906,-665.747"/>
<text text-anchor="middle" x="654" y="-666" font-family="FreeSans" font-size="10.00"> backgroundLoadMutex_</text>
</g>
<!-- Node23&#45;&gt;Node5 -->
<g id="edge68" class="edge"><title>Node23&#45;&gt;Node5</title>
<path fill="none" stroke="#9a32cd" stroke-dasharray="5,2" d="M495.175,-691.95C637.736,-741.362 1145.41,-892.919 1432,-659 1481.77,-618.377 1509.81,-403.356 1515.79,-352.697"/>
<polygon fill="#9a32cd" stroke="#9a32cd" points="496.144,-688.581 485.549,-688.576 493.828,-695.187 496.144,-688.581"/>
<text text-anchor="middle" x="1034" y="-789" font-family="FreeSans" font-size="10.00"> resourceMutex_</text>
</g>
<!-- Node24&#45;&gt;Node5 -->
<g id="edge70" class="edge"><title>Node24&#45;&gt;Node5</title>
<path fill="none" stroke="#9a32cd" stroke-dasharray="5,2" d="M1144.46,-125.708C1231.19,-136.956 1350.53,-164.526 1432,-232 1468.25,-262.019 1498.59,-310.13 1511,-331.353"/>
<polygon fill="#9a32cd" stroke="#9a32cd" points="1144.67,-122.208 1134.31,-124.448 1143.8,-129.154 1144.67,-122.208"/>
<text text-anchor="middle" x="1234" y="-171" font-family="FreeSans" font-size="10.00"> fileWatchers_</text>
</g>
<!-- Node25&#45;&gt;Node1 -->
<g id="edge74" class="edge"><title>Node25&#45;&gt;Node1</title>
<path fill="none" stroke="#9a32cd" stroke-dasharray="5,2" d="M552.017,-551.305C554.702,-551.896 557.367,-552.462 560,-553 642.645,-569.876 666.442,-557.475 748,-579 773.034,-585.607 800.432,-597.057 818.961,-605.475"/>
<polygon fill="#9a32cd" stroke="#9a32cd" points="552.757,-547.884 542.229,-549.072 551.2,-554.709 552.757,-547.884"/>
<text text-anchor="middle" x="654" y="-583" font-family="FreeSans" font-size="10.00"> backgroundLoadQueue_</text>
</g>
</g>
</svg>
        <g id="navigator" transform="translate(0 0)" fill="#404254">
                <rect fill="#f2f5e9" fill-opacity="0.5" stroke="#606060" stroke-width=".5" x="0" y="0" width="60" height="60"/>
                <use id="zoomplus" xlink:href="#zoomPlus" x="17" y="9" onmousedown="handleZoom(evt,'in')"/>
                <use id="zoomminus" xlink:href="#zoomMin" x="42" y="9" onmousedown="handleZoom(evt,'out')"/>
                <use id="reset" xlink:href="#resetDef" x="30" y="36" onmousedown="handleReset()"/>
                <g id="arrowUp" xlink:href="#dirArrow" transform="translate(30 24)" onmousedown="handlePan(0,-1)">
                  <use xlink:href="#rim" fill="#404040">
                        <set attributeName="fill" to="#808080" begin="arrowUp.mouseover" end="arrowUp.mouseout"/>
                  </use>
                  <path fill="none" stroke="white" stroke-width="1.5" d="M0,-3.0v7 M-2.5,-0.5L0,-3.0L2.5,-0.5"/>
                </g>
                <g id="arrowRight" xlink:href="#dirArrow" transform="rotate(90) translate(36 -43)" onmousedown="handlePan(1,0)">
                  <use xlink:href="#rim" fill="#404040">
                        <set attributeName="fill" to="#808080" begin="arrowRight.mouseover" end="arrowRight.mouseout"/>
                  </use>
                  <path fill="none" stroke="white" stroke-width="1.5" d="M0,-3.0v7 M-2.5,-0.5L0,-3.0L2.5,-0.5"/>
                </g>
                <g id="arrowDown" xlink:href="#dirArrow" transform="rotate(180) translate(-30 -48)" onmousedown="handlePan(0,1)">
                  <use xlink:href="#rim" fill="#404040">
                        <set attributeName="fill" to="#808080" begin="arrowDown.mouseover" end="arrowDown.mouseout"/>
                  </use>
                  <path fill="none" stroke="white" stroke-width="1.5" d="M0,-3.0v7 M-2.5,-0.5L0,-3.0L2.5,-0.5"/>
                </g>
                <g id="arrowLeft" xlink:href="#dirArrow" transform="rotate(270) translate(-36 17)" onmousedown="handlePan(-1,0)">
                  <use xlink:href="#rim" fill="#404040">
                        <set attributeName="fill" to="#808080" begin="arrowLeft.mouseover" end="arrowLeft.mouseout"/>
                  </use>
                  <path fill="none" stroke="white" stroke-width="1.5" d="M0,-3.0v7 M-2.5,-0.5L0,-3.0L2.5,-0.5"/>
                </g>
        </g>
        <svg viewBox="0 0 15 15" width="100%" height="30px" preserveAspectRatio="xMaxYMin meet">
         <g id="arrow_out" transform="scale(0.3 0.3)">
          <a xlink:href="class_urho3_d_1_1_background_loader__coll__graph_org.svg" target="_base">
           <rect id="button" ry="5" rx="5" y="6" x="6" height="38" width="38"
                fill="#f2f5e9" fill-opacity="0.5" stroke="#606060" stroke-width="1.0"/>
           <path id="arrow"
             d="M 11.500037,31.436501 C 11.940474,20.09759 22.043105,11.32322 32.158766,21.979434 L 37.068811,17.246167 C 37.068811,17.246167 37.088388,32 37.088388,32 L 22.160133,31.978069 C 22.160133,31.978069 26.997745,27.140456 26.997745,27.140456 C 18.528582,18.264221 13.291696,25.230495 11.500037,31.436501 z"
             style="fill:#404040;"/>
          </a>
         </g>
        </svg>
</svg>
