<?xml version="1.0" encoding="UTF-8" standalone="no"?>
<!DOCTYPE svg PUBLIC "-//W3C//DTD SVG 1.1//EN"
 "http://www.w3.org/Graphics/SVG/1.1/DTD/svg11.dtd">
<!-- Generated by graphviz version 2.26.3 (20100126.1600)
 -->
<!-- Title: Urho3D::SpriteSheet2D Pages: 1 -->
<!--zoomable 477 -->
<svg id="main" version="1.1" xmlns="http://www.w3.org/2000/svg" xmlns:xlink="http://www.w3.org/1999/xlink" xml:space="preserve" onload="init(evt)">
        <defs>
                <circle id="rim" cx="0" cy="0" r="7"/>
                <circle id="rim2" cx="0" cy="0" r="3.5"/>
                <g id="zoomPlus">
                        <use xlink:href="#rim" fill="#404040">
                                <set attributeName="fill" to="#808080" begin="zoomplus.mouseover" end="zoomplus.mouseout"/>
                        </use>
                        <path d="M-4,0h8M0,-4v8" fill="none" stroke="white" stroke-width="1.5" pointer-events="none"/>
                </g>
                <g id="zoomMin">
                        <use xlink:href="#rim" fill="#404040">
                                <set attributeName="fill" to="#808080" begin="zoomminus.mouseover" end="zoomminus.mouseout"/>
                        </use>
                        <path d="M-4,0h8" fill="none" stroke="white" stroke-width="1.5" pointer-events="none"/>
                </g>
                <g id="dirArrow">
                        <path fill="none" stroke="white" stroke-width="1.5" d="M0,-3.0v7 M-2.5,-0.5L0,-3.0L2.5,-0.5"/>
                </g>
               <g id="resetDef">
                       <use xlink:href="#rim2" fill="#404040">
                               <set attributeName="fill" to="#808080" begin="reset.mouseover" end="reset.mouseout"/>
                       </use>
               </g>
        </defs>

<script type="text/javascript">
var viewWidth = 2224;
var viewHeight = 477;
var sectionId = 'dynsection-1';
</script>
<script xlink:href="svgpan.js"/>
<svg id="graph" class="graph">
<g id="viewport">
<title>Urho3D::SpriteSheet2D</title>
<!-- Node1 -->
<g id="node1" class="node"><title>Node1</title>
<polygon fill="#bfbfbf" stroke="black" points="2086,-224.5 2086,-245.5 2216,-245.5 2216,-224.5 2086,-224.5"/>
<text text-anchor="middle" x="2151" y="-232.5" font-family="FreeSans" font-size="10.00">Urho3D::SpriteSheet2D</text>
</g>
<!-- Node2 -->
<g id="node2" class="node"><title>Node2</title>
<a xlink:href="class_urho3_d_1_1_resource.html" target="_top" xlink:title="Base class for resources.">
<polygon fill="none" stroke="black" points="906.5,-250.5 906.5,-271.5 1009.5,-271.5 1009.5,-250.5 906.5,-250.5"/>
<text text-anchor="middle" x="958" y="-258.5" font-family="FreeSans" font-size="10.00">Urho3D::Resource</text>
</a>
</g>
<!-- Node2&#45;&gt;Node1 -->
<g id="edge2" class="edge"><title>Node2&#45;&gt;Node1</title>
<path fill="none" stroke="midnightblue" d="M992.779,-246.696C1028,-233.519 1084.35,-216 1135,-216 1135,-216 1135,-216 1898,-216 1961.98,-216 2034.8,-222.117 2085.84,-227.409"/>
<polygon fill="midnightblue" stroke="midnightblue" points="991.075,-243.6 982.992,-250.449 993.582,-250.136 991.075,-243.6"/>
</g>
<!-- Node17 -->
<g id="node38" class="node"><title>Node17</title>
<a xlink:href="class_urho3_d_1_1_x_m_l_file.html" target="_top" xlink:title="XML document resource.">
<polygon fill="none" stroke="black" points="1088,-250.5 1088,-271.5 1182,-271.5 1182,-250.5 1088,-250.5"/>
<text text-anchor="middle" x="1135" y="-258.5" font-family="FreeSans" font-size="10.00">Urho3D::XMLFile</text>
</a>
</g>
<!-- Node2&#45;&gt;Node17 -->
<g id="edge46" class="edge"><title>Node2&#45;&gt;Node17</title>
<path fill="none" stroke="midnightblue" d="M1019.73,-261C1042.07,-261 1066.91,-261 1087.8,-261"/>
<polygon fill="midnightblue" stroke="midnightblue" points="1019.67,-257.5 1009.67,-261 1019.67,-264.5 1019.67,-257.5"/>
</g>
<!-- Node20 -->
<g id="node45" class="node"><title>Node20</title>
<a xlink:href="class_urho3_d_1_1_texture.html" target="_top" xlink:title="Base class for texture resources.">
<polygon fill="none" stroke="red" points="1202,-372.5 1202,-393.5 1296,-393.5 1296,-372.5 1202,-372.5"/>
<text text-anchor="middle" x="1249" y="-380.5" font-family="FreeSans" font-size="10.00">Urho3D::Texture</text>
</a>
</g>
<!-- Node2&#45;&gt;Node20 -->
<g id="edge54" class="edge"><title>Node2&#45;&gt;Node20</title>
<path fill="none" stroke="midnightblue" d="M992.375,-275.411C1051.65,-300.263 1171.75,-350.614 1223.89,-372.475"/>
<polygon fill="midnightblue" stroke="midnightblue" points="993.638,-272.146 983.062,-271.507 990.931,-278.602 993.638,-272.146"/>
</g>
<!-- Node24 -->
<g id="node55" class="node"><title>Node24</title>
<a xlink:href="class_urho3_d_1_1_p_list_file.html" target="_top" xlink:title="Property list (plist).">
<polygon fill="none" stroke="black" points="1086.5,-166.5 1086.5,-187.5 1183.5,-187.5 1183.5,-166.5 1086.5,-166.5"/>
<text text-anchor="middle" x="1135" y="-174.5" font-family="FreeSans" font-size="10.00">Urho3D::PListFile</text>
</a>
</g>
<!-- Node2&#45;&gt;Node24 -->
<g id="edge66" class="edge"><title>Node2&#45;&gt;Node24</title>
<path fill="none" stroke="midnightblue" d="M978.943,-243.97C994.881,-231.708 1017.79,-215.535 1040,-205 1055.22,-197.778 1072.71,-191.983 1088.5,-187.579"/>
<polygon fill="midnightblue" stroke="midnightblue" points="976.559,-241.391 970.854,-250.319 980.881,-246.898 976.559,-241.391"/>
</g>
<!-- Node3 -->
<g id="node4" class="node"><title>Node3</title>
<a xlink:href="class_urho3_d_1_1_object.html" target="_top" xlink:title="Base class for objects with type identification, subsystem access and event sending/receiving capabil...">
<polygon fill="none" stroke="black" points="694,-250.5 694,-271.5 784,-271.5 784,-250.5 694,-250.5"/>
<text text-anchor="middle" x="739" y="-258.5" font-family="FreeSans" font-size="10.00">Urho3D::Object</text>
</a>
</g>
<!-- Node3&#45;&gt;Node2 -->
<g id="edge4" class="edge"><title>Node3&#45;&gt;Node2</title>
<path fill="none" stroke="midnightblue" d="M794.461,-261C828.865,-261 872.766,-261 906.418,-261"/>
<polygon fill="midnightblue" stroke="midnightblue" points="794.111,-257.5 784.111,-261 794.111,-264.5 794.111,-257.5"/>
</g>
<!-- Node4 -->
<g id="node6" class="node"><title>Node4</title>
<a xlink:href="class_urho3_d_1_1_ref_counted.html" target="_top" xlink:title="Base class for intrusively reference&#45;counted objects. These are noncopyable and non&#45;assignable.">
<polygon fill="none" stroke="black" points="191,-256.5 191,-277.5 305,-277.5 305,-256.5 191,-256.5"/>
<text text-anchor="middle" x="248" y="-264.5" font-family="FreeSans" font-size="10.00">Urho3D::RefCounted</text>
</a>
</g>
<!-- Node4&#45;&gt;Node3 -->
<g id="edge6" class="edge"><title>Node4&#45;&gt;Node3</title>
<path fill="none" stroke="midnightblue" d="M315.44,-266.176C417.103,-264.934 606.929,-262.614 693.664,-261.554"/>
<polygon fill="midnightblue" stroke="midnightblue" points="315.241,-262.678 305.285,-266.3 315.327,-269.677 315.241,-262.678"/>
</g>
<!-- Node6 -->
<g id="node10" class="node"><title>Node6</title>
<a xlink:href="class_urho3_d_1_1_context.html" target="_top" xlink:title="Urho3D execution context. Provides access to subsystems, object factories and attributes, and event receivers.">
<polygon fill="none" stroke="red" points="444.5,-289.5 444.5,-310.5 541.5,-310.5 541.5,-289.5 444.5,-289.5"/>
<text text-anchor="middle" x="493" y="-297.5" font-family="FreeSans" font-size="10.00">Urho3D::Context</text>
</a>
</g>
<!-- Node4&#45;&gt;Node6 -->
<g id="edge12" class="edge"><title>Node4&#45;&gt;Node6</title>
<path fill="none" stroke="midnightblue" d="M315.295,-276.064C356.209,-281.575 407.51,-288.485 444.462,-293.462"/>
<polygon fill="midnightblue" stroke="midnightblue" points="315.51,-272.562 305.132,-274.695 314.576,-279.499 315.51,-272.562"/>
</g>
<!-- Node5 -->
<g id="node8" class="node"><title>Node5</title>
<a xlink:href="struct_urho3_d_1_1_ref_count.html" target="_top" xlink:title="Reference count structure.">
<polygon fill="none" stroke="black" points="0,-256.5 0,-277.5 102,-277.5 102,-256.5 0,-256.5"/>
<text text-anchor="middle" x="51" y="-264.5" font-family="FreeSans" font-size="10.00">Urho3D::RefCount</text>
</a>
</g>
<!-- Node5&#45;&gt;Node4 -->
<g id="edge8" class="edge"><title>Node5&#45;&gt;Node4</title>
<path fill="none" stroke="#9a32cd" stroke-dasharray="5,2" d="M112.357,-267C137.388,-267 166.169,-267 190.761,-267"/>
<polygon fill="#9a32cd" stroke="#9a32cd" points="112.245,-263.5 102.245,-267 112.245,-270.5 112.245,-263.5"/>
<text text-anchor="middle" x="145" y="-271" font-family="FreeSans" font-size="10.00"> refCount_</text>
</g>
<!-- Node6&#45;&gt;Node3 -->
<g id="edge10" class="edge"><title>Node6&#45;&gt;Node3</title>
<path fill="none" stroke="#9a32cd" stroke-dasharray="5,2" d="M551.679,-292.003C584.722,-287.354 626.718,-281.202 664,-275 673.669,-273.391 684.015,-271.543 693.838,-269.728"/>
<polygon fill="#9a32cd" stroke="#9a32cd" points="551.145,-288.544 541.727,-293.396 552.115,-295.476 551.145,-288.544"/>
<text text-anchor="middle" x="624" y="-291" font-family="FreeSans" font-size="10.00"> context_</text>
</g>
<!-- Node7 -->
<g id="node13" class="node"><title>Node7</title>
<a xlink:href="class_urho3_d_1_1_p_o_d_vector.html" target="_top" xlink:title="Urho3D::PODVector\&lt;\l Urho3D::Object * \&gt;">
<polygon fill="none" stroke="red" points="188.5,-302 188.5,-336 307.5,-336 307.5,-302 188.5,-302"/>
<text text-anchor="start" x="196.5" y="-323" font-family="FreeSans" font-size="10.00">Urho3D::PODVector&lt;</text>
<text text-anchor="middle" x="248" y="-310" font-family="FreeSans" font-size="10.00"> Urho3D::Object * &gt;</text>
</a>
</g>
<!-- Node7&#45;&gt;Node6 -->
<g id="edge14" class="edge"><title>Node7&#45;&gt;Node6</title>
<path fill="none" stroke="#9a32cd" stroke-dasharray="5,2" d="M317.68,-313.596C358.106,-310.461 408.024,-306.59 444.243,-303.781"/>
<polygon fill="#9a32cd" stroke="#9a32cd" points="317.32,-310.114 307.62,-314.376 317.861,-317.093 317.32,-310.114"/>
<text text-anchor="middle" x="364" y="-316" font-family="FreeSans" font-size="10.00"> eventSenders_</text>
</g>
<!-- Node8 -->
<g id="node15" class="node"><title>Node8</title>
<a xlink:href="class_urho3_d_1_1_linked_list.html" target="_top" xlink:title="Urho3D::LinkedList\l\&lt; Urho3D::EventHandler \&gt;">
<polygon fill="none" stroke="red" points="420,-199 420,-233 566,-233 566,-199 420,-199"/>
<text text-anchor="start" x="428" y="-220" font-family="FreeSans" font-size="10.00">Urho3D::LinkedList</text>
<text text-anchor="middle" x="493" y="-207" font-family="FreeSans" font-size="10.00">&lt; Urho3D::EventHandler &gt;</text>
</a>
</g>
<!-- Node8&#45;&gt;Node3 -->
<g id="edge16" class="edge"><title>Node8&#45;&gt;Node3</title>
<path fill="none" stroke="#9a32cd" stroke-dasharray="5,2" d="M576.319,-220.303C604.443,-222.933 635.837,-227.171 664,-234 672.342,-236.023 673.949,-238.023 682,-241 690.558,-244.164 699.882,-247.488 708.463,-250.497"/>
<polygon fill="#9a32cd" stroke="#9a32cd" points="576.386,-216.795 566.118,-219.405 575.772,-223.768 576.386,-216.795"/>
<text text-anchor="middle" x="624" y="-238" font-family="FreeSans" font-size="10.00"> eventHandlers_</text>
</g>
<!-- Node9 -->
<g id="node17" class="node"><title>Node9</title>
<a xlink:href="class_urho3_d_1_1_timer.html" target="_top" xlink:title="Low&#45;resolution operating system timer.">
<polygon fill="none" stroke="black" points="696,-210.5 696,-231.5 782,-231.5 782,-210.5 696,-210.5"/>
<text text-anchor="middle" x="739" y="-218.5" font-family="FreeSans" font-size="10.00">Urho3D::Timer</text>
</a>
</g>
<!-- Node9&#45;&gt;Node2 -->
<g id="edge18" class="edge"><title>Node9&#45;&gt;Node2</title>
<path fill="none" stroke="#9a32cd" stroke-dasharray="5,2" d="M792.424,-229.484C817.788,-233.636 848.499,-238.843 876,-244 886.574,-245.983 897.887,-248.24 908.628,-250.447"/>
<polygon fill="#9a32cd" stroke="#9a32cd" points="792.699,-225.983 782.267,-227.831 791.574,-232.892 792.699,-225.983"/>
<text text-anchor="middle" x="845" y="-248" font-family="FreeSans" font-size="10.00"> useTimer_</text>
</g>
<!-- Node10 -->
<g id="node19" class="node"><title>Node10</title>
<a xlink:href="class_urho3_d_1_1_string.html" target="_top" xlink:title="String class.">
<polygon fill="none" stroke="black" points="695,-398.5 695,-419.5 783,-419.5 783,-398.5 695,-398.5"/>
<text text-anchor="middle" x="739" y="-406.5" font-family="FreeSans" font-size="10.00">Urho3D::String</text>
</a>
</g>
<!-- Node10&#45;&gt;Node1 -->
<g id="edge40" class="edge"><title>Node10&#45;&gt;Node1</title>
<path fill="none" stroke="#9a32cd" stroke-dasharray="5,2" d="M778.28,-422.677C821.694,-436.553 893.964,-456 958,-456 958,-456 958,-456 1898,-456 2027.47,-456 2122.65,-289.805 2145.65,-245.659"/>
<polygon fill="#9a32cd" stroke="#9a32cd" points="779.27,-419.318 768.677,-419.548 777.101,-425.974 779.27,-419.318"/>
<text text-anchor="middle" x="1386" y="-460" font-family="FreeSans" font-size="10.00"> loadTextureName_</text>
</g>
<!-- Node10&#45;&gt;Node2 -->
<g id="edge20" class="edge"><title>Node10&#45;&gt;Node2</title>
<path fill="none" stroke="#9a32cd" stroke-dasharray="5,2" d="M763.074,-392.731C808.27,-362.188 904.658,-297.048 942.393,-271.547"/>
<polygon fill="#9a32cd" stroke="#9a32cd" points="761.076,-389.857 754.75,-398.356 764.995,-395.657 761.076,-389.857"/>
<text text-anchor="middle" x="845" y="-360" font-family="FreeSans" font-size="10.00"> name_</text>
</g>
<!-- Node10&#45;&gt;Node10 -->
<g id="edge22" class="edge"><title>Node10&#45;&gt;Node10</title>
<path fill="none" stroke="#9a32cd" stroke-dasharray="5,2" d="M719.465,-429.427C720.972,-434.349 727.484,-438 739,-438 757.426,-438 763.04,-428.653 755.842,-419.708"/>
<polygon fill="#9a32cd" stroke="#9a32cd" points="722.861,-430.279 722.158,-419.708 716.115,-428.41 722.861,-430.279"/>
<text text-anchor="middle" x="739" y="-442" font-family="FreeSans" font-size="10.00"> EMPTY</text>
</g>
<!-- Node11 -->
<g id="node22" class="node"><title>Node11</title>
<a xlink:href="class_urho3_d_1_1_string_hash.html" target="_top" xlink:title="32&#45;bit hash value for a string.">
<polygon fill="none" stroke="black" points="682.5,-290.5 682.5,-311.5 795.5,-311.5 795.5,-290.5 682.5,-290.5"/>
<text text-anchor="middle" x="739" y="-298.5" font-family="FreeSans" font-size="10.00">Urho3D::StringHash</text>
</a>
</g>
<!-- Node11&#45;&gt;Node2 -->
<g id="edge24" class="edge"><title>Node11&#45;&gt;Node2</title>
<path fill="none" stroke="#9a32cd" stroke-dasharray="5,2" d="M805.53,-288.848C837.926,-282.931 876.287,-275.925 906.426,-270.42"/>
<polygon fill="#9a32cd" stroke="#9a32cd" points="804.891,-285.407 795.683,-290.647 806.149,-292.293 804.891,-285.407"/>
<text text-anchor="middle" x="845" y="-290" font-family="FreeSans" font-size="10.00"> nameHash_</text>
</g>
<!-- Node11&#45;&gt;Node11 -->
<g id="edge26" class="edge"><title>Node11&#45;&gt;Node11</title>
<path fill="none" stroke="#9a32cd" stroke-dasharray="5,2" d="M719.465,-321.427C720.972,-326.349 727.484,-330 739,-330 757.426,-330 763.04,-320.653 755.842,-311.708"/>
<polygon fill="#9a32cd" stroke="#9a32cd" points="722.861,-322.279 722.158,-311.708 716.115,-320.41 722.861,-322.279"/>
<text text-anchor="middle" x="739" y="-334" font-family="FreeSans" font-size="10.00"> ZERO</text>
</g>
<!-- Node12 -->
<g id="node25" class="node"><title>Node12</title>
<a xlink:href="class_urho3_d_1_1_hash_map.html" target="_top" xlink:title="Urho3D::HashMap\&lt; Urho3D\l::String, Urho3D::SharedPtr\l\&lt; Urho3D::Sprite2D \&gt; \&gt;">
<polygon fill="none" stroke="black" points="1822,-91.5 1822,-138.5 1974,-138.5 1974,-91.5 1822,-91.5"/>
<text text-anchor="start" x="1830" y="-125.5" font-family="FreeSans" font-size="10.00">Urho3D::HashMap&lt; Urho3D</text>
<text text-anchor="start" x="1830" y="-112.5" font-family="FreeSans" font-size="10.00">::String, Urho3D::SharedPtr</text>
<text text-anchor="middle" x="1898" y="-99.5" font-family="FreeSans" font-size="10.00">&lt; Urho3D::Sprite2D &gt; &gt;</text>
</a>
</g>
<!-- Node12&#45;&gt;Node1 -->
<g id="edge28" class="edge"><title>Node12&#45;&gt;Node1</title>
<path fill="none" stroke="#9a32cd" stroke-dasharray="5,2" d="M1984.26,-123.306C2012.21,-128.547 2042.53,-137.087 2068,-151 2101.82,-169.48 2130.73,-206.119 2143.7,-224.28"/>
<polygon fill="#9a32cd" stroke="#9a32cd" points="1984.54,-119.802 1974.09,-121.521 1983.33,-126.697 1984.54,-119.802"/>
<text text-anchor="middle" x="2030" y="-155" font-family="FreeSans" font-size="10.00"> spriteMapping_</text>
</g>
<!-- Node13 -->
<g id="node27" class="node"><title>Node13</title>
<a xlink:href="class_urho3_d_1_1_hash_base.html" target="_top" xlink:title="Hash set/map base class.">
<polygon fill="none" stroke="black" points="1610,-71.5 1610,-92.5 1718,-92.5 1718,-71.5 1610,-71.5"/>
<text text-anchor="middle" x="1664" y="-79.5" font-family="FreeSans" font-size="10.00">Urho3D::HashBase</text>
</a>
</g>
<!-- Node13&#45;&gt;Node12 -->
<g id="edge30" class="edge"><title>Node13&#45;&gt;Node12</title>
<path fill="none" stroke="midnightblue" d="M1728.27,-91.0639C1757.23,-95.1472 1791.63,-99.9988 1821.87,-104.263"/>
<polygon fill="midnightblue" stroke="midnightblue" points="1728.66,-87.5846 1718.27,-89.6538 1727.69,-94.516 1728.66,-87.5846"/>
</g>
<!-- Node14 -->
<g id="node29" class="node"><title>Node14</title>
<a xlink:href="struct_urho3_d_1_1_hash_node_base.html" target="_top" xlink:title="Hash set/map node base class.">
<polygon fill="none" stroke="black" points="1319,-71.5 1319,-92.5 1453,-92.5 1453,-71.5 1319,-71.5"/>
<text text-anchor="middle" x="1386" y="-79.5" font-family="FreeSans" font-size="10.00">Urho3D::HashNodeBase</text>
</a>
</g>
<!-- Node14&#45;&gt;Node13 -->
<g id="edge32" class="edge"><title>Node14&#45;&gt;Node13</title>
<path fill="none" stroke="#9a32cd" stroke-dasharray="5,2" d="M1463.36,-82C1509.98,-82 1568.19,-82 1609.89,-82"/>
<polygon fill="#9a32cd" stroke="#9a32cd" points="1463.3,-78.5001 1453.3,-82 1463.3,-85.5001 1463.3,-78.5001"/>
<text text-anchor="middle" x="1534" y="-112" font-family="FreeSans" font-size="10.00"> ptrs_</text>
<text text-anchor="middle" x="1534" y="-99" font-family="FreeSans" font-size="10.00">tail_</text>
<text text-anchor="middle" x="1534" y="-86" font-family="FreeSans" font-size="10.00">head_</text>
</g>
<!-- Node14&#45;&gt;Node14 -->
<g id="edge34" class="edge"><title>Node14&#45;&gt;Node14</title>
<path fill="none" stroke="#9a32cd" stroke-dasharray="5,2" d="M1360.8,-102.055C1362.46,-107.164 1370.86,-111 1386,-111 1409.64,-111 1416.84,-101.653 1407.61,-92.7079"/>
<polygon fill="#9a32cd" stroke="#9a32cd" points="1364.08,-103.298 1364.39,-92.7079 1357.54,-100.79 1364.08,-103.298"/>
<text text-anchor="middle" x="1386" y="-141" font-family="FreeSans" font-size="10.00"> next_</text>
<text text-anchor="middle" x="1386" y="-128" font-family="FreeSans" font-size="10.00">prev_</text>
<text text-anchor="middle" x="1386" y="-115" font-family="FreeSans" font-size="10.00">down_</text>
</g>
<!-- Node15 -->
<g id="node32" class="node"><title>Node15</title>
<a xlink:href="struct_urho3_d_1_1_allocator_block.html" target="_top" xlink:title="Allocator memory block.">
<polygon fill="none" stroke="red" points="1322.5,-0.5 1322.5,-21.5 1449.5,-21.5 1449.5,-0.5 1322.5,-0.5"/>
<text text-anchor="middle" x="1386" y="-8.5" font-family="FreeSans" font-size="10.00">Urho3D::AllocatorBlock</text>
</a>
</g>
<!-- Node15&#45;&gt;Node13 -->
<g id="edge36" class="edge"><title>Node15&#45;&gt;Node13</title>
<path fill="none" stroke="#9a32cd" stroke-dasharray="5,2" d="M1437.25,-24.0888C1490.57,-37.7073 1573.05,-58.7705 1622.45,-71.3893"/>
<polygon fill="#9a32cd" stroke="#9a32cd" points="1437.87,-20.6362 1427.32,-21.5528 1436.14,-27.4185 1437.87,-20.6362"/>
<text text-anchor="middle" x="1534" y="-67" font-family="FreeSans" font-size="10.00"> allocator_</text>
</g>
<!-- Node15&#45;&gt;Node15 -->
<g id="edge38" class="edge"><title>Node15&#45;&gt;Node15</title>
<path fill="none" stroke="#9a32cd" stroke-dasharray="5,2" d="M1360.8,-31.0551C1362.46,-36.164 1370.86,-40 1386,-40 1409.64,-40 1416.84,-30.6531 1407.61,-21.7079"/>
<polygon fill="#9a32cd" stroke="#9a32cd" points="1364.08,-32.298 1364.39,-21.7079 1357.54,-29.7899 1364.08,-32.298"/>
<text text-anchor="middle" x="1386" y="-44" font-family="FreeSans" font-size="10.00"> next_</text>
</g>
<!-- Node16 -->
<g id="node36" class="node"><title>Node16</title>
<a xlink:href="class_urho3_d_1_1_shared_ptr.html" target="_top" xlink:title="Urho3D::SharedPtr\&lt;\l Urho3D::XMLFile \&gt;">
<polygon fill="none" stroke="black" points="1328,-244 1328,-278 1444,-278 1444,-244 1328,-244"/>
<text text-anchor="start" x="1336" y="-265" font-family="FreeSans" font-size="10.00">Urho3D::SharedPtr&lt;</text>
<text text-anchor="middle" x="1386" y="-252" font-family="FreeSans" font-size="10.00"> Urho3D::XMLFile &gt;</text>
</a>
</g>
<!-- Node16&#45;&gt;Node1 -->
<g id="edge42" class="edge"><title>Node16&#45;&gt;Node1</title>
<path fill="none" stroke="#9a32cd" stroke-dasharray="5,2" d="M1454.32,-258.678C1600.65,-253.705 1942.68,-242.08 2086,-237.209"/>
<polygon fill="#9a32cd" stroke="#9a32cd" points="1454,-255.187 1444.13,-259.024 1454.24,-262.183 1454,-255.187"/>
<text text-anchor="middle" x="1770" y="-252" font-family="FreeSans" font-size="10.00"> loadXMLFile_</text>
</g>
<!-- Node19 -->
<g id="node43" class="node"><title>Node19</title>
<a xlink:href="class_urho3_d_1_1_texture2_d.html" target="_top" xlink:title="2D texture resource.">
<polygon fill="none" stroke="black" points="1610.5,-312.5 1610.5,-333.5 1717.5,-333.5 1717.5,-312.5 1610.5,-312.5"/>
<text text-anchor="middle" x="1664" y="-320.5" font-family="FreeSans" font-size="10.00">Urho3D::Texture2D</text>
</a>
</g>
<!-- Node16&#45;&gt;Node19 -->
<g id="edge60" class="edge"><title>Node16&#45;&gt;Node19</title>
<path fill="none" stroke="#9a32cd" stroke-dasharray="5,2" d="M1454.19,-271.128C1494.57,-277.732 1546.55,-287.293 1592,-299 1606.55,-302.747 1622.41,-307.916 1635.54,-312.497"/>
<polygon fill="#9a32cd" stroke="#9a32cd" points="1454.62,-267.652 1444.19,-269.514 1453.5,-274.563 1454.62,-267.652"/>
<text text-anchor="middle" x="1534" y="-303" font-family="FreeSans" font-size="10.00"> loadParameters_</text>
</g>
<!-- Node17&#45;&gt;Node16 -->
<g id="edge44" class="edge"><title>Node17&#45;&gt;Node16</title>
<path fill="none" stroke="#9a32cd" stroke-dasharray="5,2" d="M1192.23,-261C1232.84,-261 1287.17,-261 1327.97,-261"/>
<polygon fill="#9a32cd" stroke="#9a32cd" points="1192.21,-257.5 1182.21,-261 1192.21,-264.5 1192.21,-257.5"/>
<text text-anchor="middle" x="1249" y="-265" font-family="FreeSans" font-size="10.00"> ptr_</text>
</g>
<!-- Node18 -->
<g id="node41" class="node"><title>Node18</title>
<a xlink:href="class_urho3_d_1_1_shared_ptr.html" target="_top" xlink:title="Urho3D::SharedPtr\&lt;\l Urho3D::Texture2D \&gt;">
<polygon fill="none" stroke="black" points="1837,-288 1837,-322 1959,-322 1959,-288 1837,-288"/>
<text text-anchor="start" x="1845" y="-309" font-family="FreeSans" font-size="10.00">Urho3D::SharedPtr&lt;</text>
<text text-anchor="middle" x="1898" y="-296" font-family="FreeSans" font-size="10.00"> Urho3D::Texture2D &gt;</text>
</a>
</g>
<!-- Node18&#45;&gt;Node1 -->
<g id="edge48" class="edge"><title>Node18&#45;&gt;Node1</title>
<path fill="none" stroke="#9a32cd" stroke-dasharray="5,2" d="M1969.38,-292.177C2000.04,-285.975 2036.08,-277.748 2068,-268 2088.47,-261.75 2110.99,-252.649 2127.4,-245.587"/>
<polygon fill="#9a32cd" stroke="#9a32cd" points="1968.33,-288.818 1959.21,-294.202 1969.7,-295.683 1968.33,-288.818"/>
<text text-anchor="middle" x="2030" y="-290" font-family="FreeSans" font-size="10.00"> texture_</text>
</g>
<!-- Node19&#45;&gt;Node18 -->
<g id="edge50" class="edge"><title>Node19&#45;&gt;Node18</title>
<path fill="none" stroke="#9a32cd" stroke-dasharray="5,2" d="M1727.94,-318.081C1761.83,-315.475 1803.24,-312.289 1836.72,-309.714"/>
<polygon fill="#9a32cd" stroke="#9a32cd" points="1727.39,-314.614 1717.68,-318.87 1727.92,-321.593 1727.39,-314.614"/>
<text text-anchor="middle" x="1770" y="-321" font-family="FreeSans" font-size="10.00"> ptr_</text>
</g>
<!-- Node20&#45;&gt;Node19 -->
<g id="edge52" class="edge"><title>Node20&#45;&gt;Node19</title>
<path fill="none" stroke="midnightblue" d="M1306.06,-391.764C1376.01,-400.086 1496.97,-406.521 1592,-370 1614.71,-361.272 1637.69,-344.604 1651.39,-333.646"/>
<polygon fill="midnightblue" stroke="midnightblue" points="1306.47,-388.288 1296.12,-390.527 1305.61,-395.235 1306.47,-388.288"/>
</g>
<!-- Node21 -->
<g id="node48" class="node"><title>Node21</title>
<a xlink:href="class_urho3_d_1_1_shared_ptr.html" target="_top" xlink:title="Urho3D::SharedPtr\&lt;\l Urho3D::Image \&gt;">
<polygon fill="none" stroke="red" points="1328,-348 1328,-382 1444,-382 1444,-348 1328,-348"/>
<text text-anchor="start" x="1336" y="-369" font-family="FreeSans" font-size="10.00">Urho3D::SharedPtr&lt;</text>
<text text-anchor="middle" x="1386" y="-356" font-family="FreeSans" font-size="10.00"> Urho3D::Image &gt;</text>
</a>
</g>
<!-- Node21&#45;&gt;Node19 -->
<g id="edge56" class="edge"><title>Node21&#45;&gt;Node19</title>
<path fill="none" stroke="#9a32cd" stroke-dasharray="5,2" d="M1454.25,-356.714C1494.43,-351.589 1546.2,-344.558 1592,-337 1598.41,-335.942 1605.12,-334.751 1611.76,-333.52"/>
<polygon fill="#9a32cd" stroke="#9a32cd" points="1453.77,-353.247 1444.29,-357.976 1454.65,-360.191 1453.77,-353.247"/>
<text text-anchor="middle" x="1534" y="-357" font-family="FreeSans" font-size="10.00"> loadImage_</text>
</g>
<!-- Node22 -->
<g id="node50" class="node"><title>Node22</title>
<a xlink:href="class_urho3_d_1_1_shared_ptr.html" target="_top" xlink:title="Urho3D::SharedPtr\&lt;\l Urho3D::RenderSurface \&gt;">
<polygon fill="none" stroke="red" points="1314.5,-296 1314.5,-330 1457.5,-330 1457.5,-296 1314.5,-296"/>
<text text-anchor="start" x="1322.5" y="-317" font-family="FreeSans" font-size="10.00">Urho3D::SharedPtr&lt;</text>
<text text-anchor="middle" x="1386" y="-304" font-family="FreeSans" font-size="10.00"> Urho3D::RenderSurface &gt;</text>
</a>
</g>
<!-- Node22&#45;&gt;Node19 -->
<g id="edge58" class="edge"><title>Node22&#45;&gt;Node19</title>
<path fill="none" stroke="#9a32cd" stroke-dasharray="5,2" d="M1467.83,-315.944C1513.78,-317.596 1569.81,-319.612 1610.21,-321.065"/>
<polygon fill="#9a32cd" stroke="#9a32cd" points="1467.71,-312.437 1457.59,-315.575 1467.46,-319.433 1467.71,-312.437"/>
<text text-anchor="middle" x="1534" y="-324" font-family="FreeSans" font-size="10.00"> renderSurface_</text>
</g>
<!-- Node23 -->
<g id="node53" class="node"><title>Node23</title>
<a xlink:href="class_urho3_d_1_1_shared_ptr.html" target="_top" xlink:title="Urho3D::SharedPtr\&lt;\l Urho3D::PListFile \&gt;">
<polygon fill="none" stroke="black" points="1476,-161 1476,-195 1592,-195 1592,-161 1476,-161"/>
<text text-anchor="start" x="1484" y="-182" font-family="FreeSans" font-size="10.00">Urho3D::SharedPtr&lt;</text>
<text text-anchor="middle" x="1534" y="-169" font-family="FreeSans" font-size="10.00"> Urho3D::PListFile &gt;</text>
</a>
</g>
<!-- Node23&#45;&gt;Node1 -->
<g id="edge62" class="edge"><title>Node23&#45;&gt;Node1</title>
<path fill="none" stroke="#9a32cd" stroke-dasharray="5,2" d="M1602.32,-173.798C1704.81,-169.12 1903.82,-166.352 2068,-202 2089.97,-206.771 2113.68,-216.724 2130.11,-224.459"/>
<polygon fill="#9a32cd" stroke="#9a32cd" points="1601.93,-170.312 1592.11,-174.285 1602.27,-177.304 1601.93,-170.312"/>
<text text-anchor="middle" x="1770" y="-177" font-family="FreeSans" font-size="10.00"> loadPListFile_</text>
</g>
<!-- Node24&#45;&gt;Node23 -->
<g id="edge64" class="edge"><title>Node24&#45;&gt;Node23</title>
<path fill="none" stroke="#9a32cd" stroke-dasharray="5,2" d="M1193.84,-177.147C1269.58,-177.337 1400.38,-177.665 1475.81,-177.854"/>
<polygon fill="#9a32cd" stroke="#9a32cd" points="1193.54,-173.647 1183.53,-177.122 1193.52,-180.647 1193.54,-173.647"/>
<text text-anchor="middle" x="1249" y="-182" font-family="FreeSans" font-size="10.00"> ptr_</text>
</g>
<!-- Node25 -->
<g id="node58" class="node"><title>Node25</title>
<a xlink:href="class_urho3_d_1_1_p_list_value_map.html" target="_top" xlink:title="Urho3D::PListValueMap">
<polygon fill="none" stroke="red" points="894,-152.5 894,-173.5 1022,-173.5 1022,-152.5 894,-152.5"/>
<text text-anchor="middle" x="958" y="-160.5" font-family="FreeSans" font-size="10.00">Urho3D::PListValueMap</text>
</a>
</g>
<!-- Node25&#45;&gt;Node24 -->
<g id="edge68" class="edge"><title>Node25&#45;&gt;Node24</title>
<path fill="none" stroke="#9a32cd" stroke-dasharray="5,2" d="M1032.1,-161.826C1044.12,-162.166 1056.42,-162.834 1068,-164 1074.01,-164.606 1080.29,-165.486 1086.48,-166.507"/>
<polygon fill="#9a32cd" stroke="#9a32cd" points="1032.16,-158.327 1022.09,-161.613 1032.01,-165.325 1032.16,-158.327"/>
<text text-anchor="middle" x="1054" y="-168" font-family="FreeSans" font-size="10.00"> root_</text>
</g>
</g>
</svg>
        <g id="navigator" transform="translate(0 0)" fill="#404254">
                <rect fill="#f2f5e9" fill-opacity="0.5" stroke="#606060" stroke-width=".5" x="0" y="0" width="60" height="60"/>
                <use id="zoomplus" xlink:href="#zoomPlus" x="17" y="9" onmousedown="handleZoom(evt,'in')"/>
                <use id="zoomminus" xlink:href="#zoomMin" x="42" y="9" onmousedown="handleZoom(evt,'out')"/>
                <use id="reset" xlink:href="#resetDef" x="30" y="36" onmousedown="handleReset()"/>
                <g id="arrowUp" xlink:href="#dirArrow" transform="translate(30 24)" onmousedown="handlePan(0,-1)">
                  <use xlink:href="#rim" fill="#404040">
                        <set attributeName="fill" to="#808080" begin="arrowUp.mouseover" end="arrowUp.mouseout"/>
                  </use>
                  <path fill="none" stroke="white" stroke-width="1.5" d="M0,-3.0v7 M-2.5,-0.5L0,-3.0L2.5,-0.5"/>
                </g>
                <g id="arrowRight" xlink:href="#dirArrow" transform="rotate(90) translate(36 -43)" onmousedown="handlePan(1,0)">
                  <use xlink:href="#rim" fill="#404040">
                        <set attributeName="fill" to="#808080" begin="arrowRight.mouseover" end="arrowRight.mouseout"/>
                  </use>
                  <path fill="none" stroke="white" stroke-width="1.5" d="M0,-3.0v7 M-2.5,-0.5L0,-3.0L2.5,-0.5"/>
                </g>
                <g id="arrowDown" xlink:href="#dirArrow" transform="rotate(180) translate(-30 -48)" onmousedown="handlePan(0,1)">
                  <use xlink:href="#rim" fill="#404040">
                        <set attributeName="fill" to="#808080" begin="arrowDown.mouseover" end="arrowDown.mouseout"/>
                  </use>
                  <path fill="none" stroke="white" stroke-width="1.5" d="M0,-3.0v7 M-2.5,-0.5L0,-3.0L2.5,-0.5"/>
                </g>
                <g id="arrowLeft" xlink:href="#dirArrow" transform="rotate(270) translate(-36 17)" onmousedown="handlePan(-1,0)">
                  <use xlink:href="#rim" fill="#404040">
                        <set attributeName="fill" to="#808080" begin="arrowLeft.mouseover" end="arrowLeft.mouseout"/>
                  </use>
                  <path fill="none" stroke="white" stroke-width="1.5" d="M0,-3.0v7 M-2.5,-0.5L0,-3.0L2.5,-0.5"/>
                </g>
        </g>
        <svg viewBox="0 0 15 15" width="100%" height="30px" preserveAspectRatio="xMaxYMin meet">
         <g id="arrow_out" transform="scale(0.3 0.3)">
          <a xlink:href="class_urho3_d_1_1_sprite_sheet2_d__coll__graph_org.svg" target="_base">
           <rect id="button" ry="5" rx="5" y="6" x="6" height="38" width="38"
                fill="#f2f5e9" fill-opacity="0.5" stroke="#606060" stroke-width="1.0"/>
           <path id="arrow"
             d="M 11.500037,31.436501 C 11.940474,20.09759 22.043105,11.32322 32.158766,21.979434 L 37.068811,17.246167 C 37.068811,17.246167 37.088388,32 37.088388,32 L 22.160133,31.978069 C 22.160133,31.978069 26.997745,27.140456 26.997745,27.140456 C 18.528582,18.264221 13.291696,25.230495 11.500037,31.436501 z"
             style="fill:#404040;"/>
          </a>
         </g>
        </svg>
</svg>
