<?xml version="1.0" encoding="UTF-8" standalone="no"?>
<!DOCTYPE svg PUBLIC "-//W3C//DTD SVG 1.1//EN"
 "http://www.w3.org/Graphics/SVG/1.1/DTD/svg11.dtd">
<!-- Generated by graphviz version 2.26.3 (20100126.1600)
 -->
<!-- Title: Urho3D::Text Pages: 1 -->
<svg width="1370pt" height="938pt"
 viewBox="0.00 0.00 1370.00 938.38" xmlns="http://www.w3.org/2000/svg" xmlns:xlink="http://www.w3.org/1999/xlink">
<g id="graph1" class="graph" transform="scale(1 1) rotate(0) translate(4 934.38)">
<title>Urho3D::Text</title>
<!-- Node1 -->
<g id="node1" class="node"><title>Node1</title>
<polygon fill="#bfbfbf" stroke="black" points="1284,-682.88 1284,-703.88 1362,-703.88 1362,-682.88 1284,-682.88"/>
<text text-anchor="middle" x="1323" y="-690.88" font-family="FreeSans" font-size="10.00">Urho3D::Text</text>
</g>
<!-- Node2 -->
<g id="node2" class="node"><title>Node2</title>
<a xlink:href="class_urho3_d_1_1_u_i_element.html" target="_top" xlink:title="Base class for UI elements.">
<polygon fill="none" stroke="black" points="1054.5,-411.88 1054.5,-432.88 1163.5,-432.88 1163.5,-411.88 1054.5,-411.88"/>
<text text-anchor="middle" x="1109" y="-419.88" font-family="FreeSans" font-size="10.00">Urho3D::UIElement</text>
</a>
</g>
<!-- Node2&#45;&gt;Node1 -->
<g id="edge2" class="edge"><title>Node2&#45;&gt;Node1</title>
<path fill="none" stroke="midnightblue" d="M1124.45,-441.126C1152.85,-475.684 1215.1,-551.892 1266,-617.38 1283.81,-640.299 1304.07,-667.626 1315,-682.468"/>
<polygon fill="midnightblue" stroke="midnightblue" points="1127.04,-438.769 1117.99,-433.27 1121.64,-443.216 1127.04,-438.769"/>
</g>
<!-- Node2&#45;&gt;Node2 -->
<g id="edge26" class="edge"><title>Node2&#45;&gt;Node2</title>
<path fill="none" stroke="#9a32cd" stroke-dasharray="5,2" d="M1086.15,-442.806C1087.91,-447.729 1095.53,-451.38 1109,-451.38 1130.55,-451.38 1137.12,-442.033 1128.7,-433.088"/>
<polygon fill="#9a32cd" stroke="#9a32cd" points="1089.54,-443.68 1089.3,-433.088 1082.89,-441.522 1089.54,-443.68"/>
<text text-anchor="middle" x="1109" y="-455.38" font-family="FreeSans" font-size="10.00"> parent_</text>
</g>
<!-- Node3 -->
<g id="node4" class="node"><title>Node3</title>
<a xlink:href="class_urho3_d_1_1_animatable.html" target="_top" xlink:title="Base class for animatable object, an animatable object can be set animation on it&#39;s attributes...">
<polygon fill="none" stroke="red" points="626,-457.88 626,-478.88 740,-478.88 740,-457.88 626,-457.88"/>
<text text-anchor="middle" x="683" y="-465.88" font-family="FreeSans" font-size="10.00">Urho3D::Animatable</text>
</a>
</g>
<!-- Node3&#45;&gt;Node2 -->
<g id="edge4" class="edge"><title>Node3&#45;&gt;Node2</title>
<path fill="none" stroke="midnightblue" d="M750.211,-464.511C818.004,-460.152 925.57,-451.983 1018,-439.38 1030.9,-437.621 1044.75,-435.273 1057.65,-432.885"/>
<polygon fill="midnightblue" stroke="midnightblue" points="749.851,-461.027 740.093,-465.152 750.294,-468.013 749.851,-461.027"/>
</g>
<!-- Node4 -->
<g id="node6" class="node"><title>Node4</title>
<a xlink:href="class_urho3_d_1_1_serializable.html" target="_top" xlink:title="Base class for objects with automatic serialization through attributes.">
<polygon fill="none" stroke="red" points="268,-411.88 268,-432.88 382,-432.88 382,-411.88 268,-411.88"/>
<text text-anchor="middle" x="325" y="-419.88" font-family="FreeSans" font-size="10.00">Urho3D::Serializable</text>
</a>
</g>
<!-- Node4&#45;&gt;Node3 -->
<g id="edge6" class="edge"><title>Node4&#45;&gt;Node3</title>
<path fill="none" stroke="midnightblue" d="M392.209,-431.016C459.582,-439.672 562.188,-452.856 625.785,-461.028"/>
<polygon fill="midnightblue" stroke="midnightblue" points="392.487,-427.523 382.122,-429.719 391.594,-434.465 392.487,-427.523"/>
</g>
<!-- Node5 -->
<g id="node8" class="node"><title>Node5</title>
<a xlink:href="class_urho3_d_1_1_hash_map.html" target="_top" xlink:title="Urho3D::HashMap\&lt; Urho3D\l::String, Urho3D::SharedPtr\l\&lt; Urho3D::AttributeAnimationInfo \&gt; \&gt;">
<polygon fill="none" stroke="red" points="224.5,-503.88 224.5,-550.88 425.5,-550.88 425.5,-503.88 224.5,-503.88"/>
<text text-anchor="start" x="232.5" y="-537.88" font-family="FreeSans" font-size="10.00">Urho3D::HashMap&lt; Urho3D</text>
<text text-anchor="start" x="232.5" y="-524.88" font-family="FreeSans" font-size="10.00">::String, Urho3D::SharedPtr</text>
<text text-anchor="middle" x="325" y="-511.88" font-family="FreeSans" font-size="10.00">&lt; Urho3D::AttributeAnimationInfo &gt; &gt;</text>
</a>
</g>
<!-- Node5&#45;&gt;Node3 -->
<g id="edge8" class="edge"><title>Node5&#45;&gt;Node3</title>
<path fill="none" stroke="#9a32cd" stroke-dasharray="5,2" d="M435.663,-509.142C498.639,-498.763 574.893,-486.196 625.935,-477.784"/>
<polygon fill="#9a32cd" stroke="#9a32cd" points="434.973,-505.708 425.676,-510.788 436.112,-512.615 434.973,-505.708"/>
<text text-anchor="middle" x="505" y="-510.38" font-family="FreeSans" font-size="10.00"> attributeAnimationInfos_</text>
</g>
<!-- Node6 -->
<g id="node10" class="node"><title>Node6</title>
<a xlink:href="class_urho3_d_1_1_shared_ptr.html" target="_top" xlink:title="Urho3D::SharedPtr\&lt;\l Urho3D::ObjectAnimation \&gt;">
<polygon fill="none" stroke="red" points="248.5,-451.38 248.5,-485.38 401.5,-485.38 401.5,-451.38 248.5,-451.38"/>
<text text-anchor="start" x="256.5" y="-472.38" font-family="FreeSans" font-size="10.00">Urho3D::SharedPtr&lt;</text>
<text text-anchor="middle" x="325" y="-459.38" font-family="FreeSans" font-size="10.00"> Urho3D::ObjectAnimation &gt;</text>
</a>
</g>
<!-- Node6&#45;&gt;Node3 -->
<g id="edge10" class="edge"><title>Node6&#45;&gt;Node3</title>
<path fill="none" stroke="#9a32cd" stroke-dasharray="5,2" d="M411.856,-468.38C478.401,-468.38 568.307,-468.38 625.984,-468.38"/>
<polygon fill="#9a32cd" stroke="#9a32cd" points="411.8,-464.88 401.8,-468.38 411.8,-471.88 411.8,-464.88"/>
<text text-anchor="middle" x="505" y="-472.38" font-family="FreeSans" font-size="10.00"> objectAnimation_</text>
</g>
<!-- Node7 -->
<g id="node12" class="node"><title>Node7</title>
<a xlink:href="class_urho3_d_1_1_int_rect.html" target="_top" xlink:title="Two&#45;dimensional bounding rectangle with integer values.">
<polygon fill="none" stroke="black" points="637,-497.88 637,-518.88 729,-518.88 729,-497.88 637,-497.88"/>
<text text-anchor="middle" x="683" y="-505.88" font-family="FreeSans" font-size="10.00">Urho3D::IntRect</text>
</a>
</g>
<!-- Node7&#45;&gt;Node2 -->
<g id="edge12" class="edge"><title>Node7&#45;&gt;Node2</title>
<path fill="none" stroke="#9a32cd" stroke-dasharray="5,2" d="M739.498,-505.779C806.923,-501.542 922.534,-490.668 1018,-463.38 1043.82,-455.998 1071.74,-442.525 1089.74,-433.043"/>
<polygon fill="#9a32cd" stroke="#9a32cd" points="738.873,-502.31 729.101,-506.404 739.293,-509.298 738.873,-502.31"/>
<text text-anchor="middle" x="909" y="-517.38" font-family="FreeSans" font-size="10.00"> clipBorder_</text>
<text text-anchor="middle" x="909" y="-504.38" font-family="FreeSans" font-size="10.00">layoutBorder_</text>
</g>
<!-- Node7&#45;&gt;Node7 -->
<g id="edge14" class="edge"><title>Node7&#45;&gt;Node7</title>
<path fill="none" stroke="#9a32cd" stroke-dasharray="5,2" d="M649.88,-528.059C651.655,-533.354 662.695,-537.38 683,-537.38 713.941,-537.38 723.369,-528.033 711.282,-519.088"/>
<polygon fill="#9a32cd" stroke="#9a32cd" points="653.052,-529.551 654.718,-519.088 646.891,-526.228 653.052,-529.551"/>
<text text-anchor="middle" x="683" y="-541.38" font-family="FreeSans" font-size="10.00"> ZERO</text>
</g>
<!-- Node8 -->
<g id="node15" class="node"><title>Node8</title>
<a xlink:href="class_urho3_d_1_1_vector.html" target="_top" xlink:title="Urho3D::Vector\&lt; Urho3D\l::SharedPtr\&lt; Urho3D::UIElement \&gt; \&gt;">
<polygon fill="none" stroke="black" points="584.5,-698.38 584.5,-732.38 781.5,-732.38 781.5,-698.38 584.5,-698.38"/>
<text text-anchor="start" x="592.5" y="-719.38" font-family="FreeSans" font-size="10.00">Urho3D::Vector&lt; Urho3D</text>
<text text-anchor="middle" x="683" y="-706.38" font-family="FreeSans" font-size="10.00">::SharedPtr&lt; Urho3D::UIElement &gt; &gt;</text>
</a>
</g>
<!-- Node8&#45;&gt;Node2 -->
<g id="edge16" class="edge"><title>Node8&#45;&gt;Node2</title>
<path fill="none" stroke="#9a32cd" stroke-dasharray="5,2" d="M791.926,-710.686C886.404,-706.132 1009.38,-698.833 1018,-691.38 1046.22,-666.97 1025.18,-645.09 1036,-609.38 1056.81,-540.669 1091.4,-461.453 1104.12,-433.13"/>
<polygon fill="#9a32cd" stroke="#9a32cd" points="791.541,-707.2 781.719,-711.173 791.875,-714.192 791.541,-707.2"/>
<text text-anchor="middle" x="909" y="-713.38" font-family="FreeSans" font-size="10.00"> children_</text>
</g>
<!-- Node9 -->
<g id="node17" class="node"><title>Node9</title>
<a xlink:href="class_urho3_d_1_1_vector_base.html" target="_top" xlink:title="Vector base class.">
<polygon fill="none" stroke="black" points="268,-827.88 268,-848.88 382,-848.88 382,-827.88 268,-827.88"/>
<text text-anchor="middle" x="325" y="-835.88" font-family="FreeSans" font-size="10.00">Urho3D::VectorBase</text>
</a>
</g>
<!-- Node9&#45;&gt;Node8 -->
<g id="edge18" class="edge"><title>Node9&#45;&gt;Node8</title>
<path fill="none" stroke="midnightblue" d="M356.77,-823.452C380.536,-812.543 413.973,-797.733 444,-786.38 505.134,-763.265 521.259,-759.687 584,-741.38 594.321,-738.368 605.292,-735.328 616.031,-732.441"/>
<polygon fill="midnightblue" stroke="midnightblue" points="355.142,-820.349 347.532,-827.72 358.078,-826.704 355.142,-820.349"/>
</g>
<!-- Node17 -->
<g id="node39" class="node"><title>Node17</title>
<a xlink:href="class_urho3_d_1_1_p_o_d_vector.html" target="_top" xlink:title="Urho3D::PODVector\&lt;\l int \&gt;">
<polygon fill="none" stroke="black" points="849.5,-896.38 849.5,-930.38 968.5,-930.38 968.5,-896.38 849.5,-896.38"/>
<text text-anchor="start" x="857.5" y="-917.38" font-family="FreeSans" font-size="10.00">Urho3D::PODVector&lt;</text>
<text text-anchor="middle" x="909" y="-904.38" font-family="FreeSans" font-size="10.00"> int &gt;</text>
</a>
</g>
<!-- Node9&#45;&gt;Node17 -->
<g id="edge48" class="edge"><title>Node9&#45;&gt;Node17</title>
<path fill="none" stroke="midnightblue" d="M372.192,-851.497C393.913,-857.116 420.113,-863.308 444,-867.38 588.346,-891.983 760.309,-904.76 849.186,-910.156"/>
<polygon fill="midnightblue" stroke="midnightblue" points="372.797,-848.037 362.236,-848.881 371.019,-854.807 372.797,-848.037"/>
</g>
<!-- Node22 -->
<g id="node52" class="node"><title>Node22</title>
<a xlink:href="class_urho3_d_1_1_p_o_d_vector.html" target="_top" xlink:title="Urho3D::PODVector\&lt;\l Urho3D::CharLocation \&gt;">
<polygon fill="none" stroke="black" points="840.5,-857.38 840.5,-891.38 977.5,-891.38 977.5,-857.38 840.5,-857.38"/>
<text text-anchor="start" x="848.5" y="-878.38" font-family="FreeSans" font-size="10.00">Urho3D::PODVector&lt;</text>
<text text-anchor="middle" x="909" y="-865.38" font-family="FreeSans" font-size="10.00"> Urho3D::CharLocation &gt;</text>
</a>
</g>
<!-- Node9&#45;&gt;Node22 -->
<g id="edge64" class="edge"><title>Node9&#45;&gt;Node22</title>
<path fill="none" stroke="midnightblue" d="M392.449,-845.761C409.273,-847.442 427.283,-849.106 444,-850.38 584.652,-861.095 749.611,-868.353 840.387,-871.889"/>
<polygon fill="midnightblue" stroke="midnightblue" points="392.452,-842.243 382.149,-844.715 391.744,-849.208 392.452,-842.243"/>
</g>
<!-- Node23 -->
<g id="node55" class="node"><title>Node23</title>
<a xlink:href="class_urho3_d_1_1_vector.html" target="_top" xlink:title="Urho3D::Vector\&lt; Urho3D\l::PODVector\&lt; Urho3D::GlyphLocation \&gt; \&gt;">
<polygon fill="none" stroke="black" points="800,-817.38 800,-851.38 1018,-851.38 1018,-817.38 800,-817.38"/>
<text text-anchor="start" x="808" y="-838.38" font-family="FreeSans" font-size="10.00">Urho3D::Vector&lt; Urho3D</text>
<text text-anchor="middle" x="909" y="-825.38" font-family="FreeSans" font-size="10.00">::PODVector&lt; Urho3D::GlyphLocation &gt; &gt;</text>
</a>
</g>
<!-- Node9&#45;&gt;Node23 -->
<g id="edge68" class="edge"><title>Node9&#45;&gt;Node23</title>
<path fill="none" stroke="midnightblue" d="M392.309,-837.919C492.036,-837.236 680.113,-835.947 799.75,-835.128"/>
<polygon fill="midnightblue" stroke="midnightblue" points="392.035,-834.42 382.06,-837.989 392.083,-841.42 392.035,-834.42"/>
</g>
<!-- Node25 -->
<g id="node62" class="node"><title>Node25</title>
<a xlink:href="class_urho3_d_1_1_p_o_d_vector.html" target="_top" xlink:title="Urho3D::PODVector\&lt;\l unsigned \&gt;">
<polygon fill="none" stroke="black" points="1049.5,-735.38 1049.5,-769.38 1168.5,-769.38 1168.5,-735.38 1049.5,-735.38"/>
<text text-anchor="start" x="1057.5" y="-756.38" font-family="FreeSans" font-size="10.00">Urho3D::PODVector&lt;</text>
<text text-anchor="middle" x="1109" y="-743.38" font-family="FreeSans" font-size="10.00"> unsigned &gt;</text>
</a>
</g>
<!-- Node9&#45;&gt;Node25 -->
<g id="edge78" class="edge"><title>Node9&#45;&gt;Node25</title>
<path fill="none" stroke="midnightblue" d="M392.441,-833.605C542.231,-822.78 898.798,-795.732 1018,-775.38 1028.12,-773.652 1038.77,-771.382 1049.08,-768.94"/>
<polygon fill="midnightblue" stroke="midnightblue" points="391.742,-830.147 382.02,-834.356 392.245,-837.128 391.742,-830.147"/>
</g>
<!-- Node10 -->
<g id="node19" class="node"><title>Node10</title>
<a xlink:href="class_urho3_d_1_1_vector2.html" target="_top" xlink:title="Two&#45;dimensional vector.">
<polygon fill="none" stroke="black" points="6,-382.88 6,-403.88 102,-403.88 102,-382.88 6,-382.88"/>
<text text-anchor="middle" x="54" y="-390.88" font-family="FreeSans" font-size="10.00">Urho3D::Vector2</text>
</a>
</g>
<!-- Node10&#45;&gt;Node2 -->
<g id="edge20" class="edge"><title>Node10&#45;&gt;Node2</title>
<path fill="none" stroke="#9a32cd" stroke-dasharray="5,2" d="M112.525,-392.129C236.202,-389.815 533.218,-385.991 782,-396.38 878.019,-400.389 989.538,-410.41 1054.4,-416.775"/>
<polygon fill="#9a32cd" stroke="#9a32cd" points="112.09,-388.637 102.158,-392.327 112.223,-395.636 112.09,-388.637"/>
<text text-anchor="middle" x="505" y="-394.38" font-family="FreeSans" font-size="10.00"> layoutFlexScale_</text>
</g>
<!-- Node10&#45;&gt;Node10 -->
<g id="edge22" class="edge"><title>Node10&#45;&gt;Node10</title>
<path fill="none" stroke="#9a32cd" stroke-dasharray="5,2" d="M33.3596,-413.806C34.9519,-418.729 41.832,-422.38 54,-422.38 73.4688,-422.38 79.4006,-413.033 71.7957,-404.088"/>
<polygon fill="#9a32cd" stroke="#9a32cd" points="36.7541,-414.668 36.2043,-404.088 30.036,-412.702 36.7541,-414.668"/>
<text text-anchor="middle" x="54" y="-491.38" font-family="FreeSans" font-size="10.00"> ONE</text>
<text text-anchor="middle" x="54" y="-478.38" font-family="FreeSans" font-size="10.00">DOWN</text>
<text text-anchor="middle" x="54" y="-465.38" font-family="FreeSans" font-size="10.00">RIGHT</text>
<text text-anchor="middle" x="54" y="-452.38" font-family="FreeSans" font-size="10.00">LEFT</text>
<text text-anchor="middle" x="54" y="-439.38" font-family="FreeSans" font-size="10.00">ZERO</text>
<text text-anchor="middle" x="54" y="-426.38" font-family="FreeSans" font-size="10.00">UP</text>
</g>
<!-- Node20 -->
<g id="node46" class="node"><title>Node20</title>
<a xlink:href="class_urho3_d_1_1_font.html" target="_top" xlink:title="Font resource.">
<polygon fill="none" stroke="red" points="285,-594.88 285,-615.88 365,-615.88 365,-594.88 285,-594.88"/>
<text text-anchor="middle" x="325" y="-602.88" font-family="FreeSans" font-size="10.00">Urho3D::Font</text>
</a>
</g>
<!-- Node10&#45;&gt;Node20 -->
<g id="edge56" class="edge"><title>Node10&#45;&gt;Node20</title>
<path fill="none" stroke="#9a32cd" stroke-dasharray="5,2" d="M69.1075,-412.124C96.8418,-445.562 159.019,-516.132 224,-560.38 245.738,-575.182 273.135,-587.029 293.909,-594.844"/>
<polygon fill="#9a32cd" stroke="#9a32cd" points="71.5688,-409.606 62.5201,-404.095 66.157,-414.046 71.5688,-409.606"/>
<text text-anchor="middle" x="166" y="-548.38" font-family="FreeSans" font-size="10.00"> scaledOffset_</text>
</g>
<!-- Node11 -->
<g id="node22" class="node"><title>Node11</title>
<a xlink:href="class_urho3_d_1_1_hash_map.html" target="_top" xlink:title="Urho3D::HashMap\&lt; StringHash,\l Variant \&gt;">
<polygon fill="none" stroke="red" points="597,-405.38 597,-439.38 769,-439.38 769,-405.38 597,-405.38"/>
<text text-anchor="start" x="605" y="-426.38" font-family="FreeSans" font-size="10.00">Urho3D::HashMap&lt; StringHash,</text>
<text text-anchor="middle" x="683" y="-413.38" font-family="FreeSans" font-size="10.00"> Variant &gt;</text>
</a>
</g>
<!-- Node11&#45;&gt;Node2 -->
<g id="edge24" class="edge"><title>Node11&#45;&gt;Node2</title>
<path fill="none" stroke="#9a32cd" stroke-dasharray="5,2" d="M779.383,-422.38C864.32,-422.38 985.023,-422.38 1054.34,-422.38"/>
<polygon fill="#9a32cd" stroke="#9a32cd" points="779.207,-418.88 769.207,-422.38 779.207,-425.88 779.207,-418.88"/>
<text text-anchor="middle" x="909" y="-426.38" font-family="FreeSans" font-size="10.00"> vars_</text>
</g>
<!-- Node12 -->
<g id="node25" class="node"><title>Node12</title>
<a xlink:href="class_urho3_d_1_1_string.html" target="_top" xlink:title="String class.">
<polygon fill="none" stroke="black" points="281,-272.88 281,-293.88 369,-293.88 369,-272.88 281,-272.88"/>
<text text-anchor="middle" x="325" y="-280.88" font-family="FreeSans" font-size="10.00">Urho3D::String</text>
</a>
</g>
<!-- Node12&#45;&gt;Node1 -->
<g id="edge70" class="edge"><title>Node12&#45;&gt;Node1</title>
<path fill="none" stroke="#9a32cd" stroke-dasharray="5,2" d="M351.407,-267.566C399.253,-237.86 501.302,-169.528 566,-90.3798 577.071,-76.8366 569.068,-64.4912 584,-55.3798 748.766,45.1623 834.432,-11.7183 1018,-71.3798 1099.86,-97.9842 1126,-109.015 1182,-174.38 1243.39,-246.043 1238.98,-278.966 1266,-369.38 1301.9,-489.494 1318.14,-641.827 1322.04,-682.824"/>
<polygon fill="#9a32cd" stroke="#9a32cd" points="349.544,-264.603 342.857,-272.821 353.209,-270.567 349.544,-264.603"/>
<text text-anchor="middle" x="909" y="-75.3798" font-family="FreeSans" font-size="10.00"> text_</text>
</g>
<!-- Node12&#45;&gt;Node2 -->
<g id="edge28" class="edge"><title>Node12&#45;&gt;Node2</title>
<path fill="none" stroke="#9a32cd" stroke-dasharray="5,2" d="M379.661,-280.479C523.226,-273.756 907.525,-261.789 1018,-319.38 1059.47,-340.999 1090.78,-389.89 1103.18,-411.621"/>
<polygon fill="#9a32cd" stroke="#9a32cd" points="379.164,-276.999 369.343,-280.973 379.499,-283.991 379.164,-276.999"/>
<text text-anchor="middle" x="683" y="-294.38" font-family="FreeSans" font-size="10.00"> appliedStyle_</text>
<text text-anchor="middle" x="683" y="-281.38" font-family="FreeSans" font-size="10.00">name_</text>
</g>
<!-- Node12&#45;&gt;Node12 -->
<g id="edge30" class="edge"><title>Node12&#45;&gt;Node12</title>
<path fill="none" stroke="#9a32cd" stroke-dasharray="5,2" d="M295.728,-303.435C297.648,-308.544 307.405,-312.38 325,-312.38 352.465,-312.38 360.833,-303.033 350.105,-294.088"/>
<polygon fill="#9a32cd" stroke="#9a32cd" points="299.02,-304.646 299.895,-294.088 292.626,-301.796 299.02,-304.646"/>
<text text-anchor="middle" x="325" y="-316.38" font-family="FreeSans" font-size="10.00"> EMPTY</text>
</g>
<!-- Node13 -->
<g id="node28" class="node"><title>Node13</title>
<a xlink:href="class_urho3_d_1_1_x_path_query.html" target="_top" xlink:title="XPath query.">
<polygon fill="none" stroke="black" points="625.5,-327.88 625.5,-348.88 740.5,-348.88 740.5,-327.88 625.5,-327.88"/>
<text text-anchor="middle" x="683" y="-335.88" font-family="FreeSans" font-size="10.00">Urho3D::XPathQuery</text>
</a>
</g>
<!-- Node12&#45;&gt;Node13 -->
<g id="edge34" class="edge"><title>Node12&#45;&gt;Node13</title>
<path fill="none" stroke="#9a32cd" stroke-dasharray="5,2" d="M379.505,-291.753C445.862,-301.948 557.44,-319.09 625.238,-329.506"/>
<polygon fill="#9a32cd" stroke="#9a32cd" points="379.672,-288.238 369.257,-290.179 378.609,-295.157 379.672,-288.238"/>
<text text-anchor="middle" x="505" y="-322.38" font-family="FreeSans" font-size="10.00"> queryString_</text>
</g>
<!-- Node13&#45;&gt;Node2 -->
<g id="edge32" class="edge"><title>Node13&#45;&gt;Node2</title>
<path fill="none" stroke="#9a32cd" stroke-dasharray="5,2" d="M751.158,-328.71C820.58,-321.608 930.204,-318.075 1018,-350.38 1052.98,-363.25 1084.92,-395.119 1099.95,-411.807"/>
<polygon fill="#9a32cd" stroke="#9a32cd" points="750.36,-325.276 740.793,-329.828 751.11,-332.236 750.36,-325.276"/>
<text text-anchor="middle" x="909" y="-354.38" font-family="FreeSans" font-size="10.00"> styleXPathQuery_</text>
</g>
<!-- Node14 -->
<g id="node31" class="node"><title>Node14</title>
<a xlink:href="class_urho3_d_1_1_shared_ptr.html" target="_top" xlink:title="Urho3D::SharedPtr\&lt;\l Urho3D::XMLFile \&gt;">
<polygon fill="none" stroke="red" points="625,-568.38 625,-602.38 741,-602.38 741,-568.38 625,-568.38"/>
<text text-anchor="start" x="633" y="-589.38" font-family="FreeSans" font-size="10.00">Urho3D::SharedPtr&lt;</text>
<text text-anchor="middle" x="683" y="-576.38" font-family="FreeSans" font-size="10.00"> Urho3D::XMLFile &gt;</text>
</a>
</g>
<!-- Node14&#45;&gt;Node2 -->
<g id="edge36" class="edge"><title>Node14&#45;&gt;Node2</title>
<path fill="none" stroke="#9a32cd" stroke-dasharray="5,2" d="M751.398,-587.66C822.51,-587.074 934.845,-577.624 1018,-530.38 1060,-506.519 1091.25,-455.426 1103.42,-433.143"/>
<polygon fill="#9a32cd" stroke="#9a32cd" points="751.205,-584.16 741.214,-587.685 751.222,-591.16 751.205,-584.16"/>
<text text-anchor="middle" x="909" y="-589.38" font-family="FreeSans" font-size="10.00"> defaultStyle_</text>
</g>
<!-- Node15 -->
<g id="node33" class="node"><title>Node15</title>
<a xlink:href="class_urho3_d_1_1_int_vector2.html" target="_top" xlink:title="Two&#45;dimensional vector with integer values.">
<polygon fill="none" stroke="black" points="0,-149.88 0,-170.88 108,-170.88 108,-149.88 0,-149.88"/>
<text text-anchor="middle" x="54" y="-157.88" font-family="FreeSans" font-size="10.00">Urho3D::IntVector2</text>
</a>
</g>
<!-- Node15&#45;&gt;Node2 -->
<g id="edge38" class="edge"><title>Node15&#45;&gt;Node2</title>
<path fill="none" stroke="#9a32cd" stroke-dasharray="5,2" d="M90.317,-146.2C197.146,-106.399 519.318,-0.0669928 782,-55.3798 894.162,-78.9977 951.489,-66.0284 1018,-159.38 1046.21,-198.969 1010.58,-335.949 1036,-377.38 1045.81,-393.369 1063.65,-404.52 1079.23,-411.722"/>
<polygon fill="#9a32cd" stroke="#9a32cd" points="88.7853,-143.037 80.6602,-149.836 91.2521,-149.588 88.7853,-143.037"/>
<text text-anchor="middle" x="505" y="-136.38" font-family="FreeSans" font-size="10.00"> maxSize_</text>
<text text-anchor="middle" x="505" y="-123.38" font-family="FreeSans" font-size="10.00">childOffset_</text>
<text text-anchor="middle" x="505" y="-110.38" font-family="FreeSans" font-size="10.00">size_</text>
<text text-anchor="middle" x="505" y="-97.3798" font-family="FreeSans" font-size="10.00">position_</text>
<text text-anchor="start" x="470" y="-84.3798" font-family="FreeSans" font-size="10.00">screenPosition</text>
<text text-anchor="middle" x="505" y="-71.3798" font-family="FreeSans" font-size="10.00">_</text>
<text text-anchor="middle" x="505" y="-58.3798" font-family="FreeSans" font-size="10.00">minSize_</text>
</g>
<!-- Node15&#45;&gt;Node15 -->
<g id="edge40" class="edge"><title>Node15&#45;&gt;Node15</title>
<path fill="none" stroke="#9a32cd" stroke-dasharray="5,2" d="M33.3596,-180.806C34.9519,-185.729 41.832,-189.38 54,-189.38 73.4688,-189.38 79.4006,-180.033 71.7957,-171.088"/>
<polygon fill="#9a32cd" stroke="#9a32cd" points="36.7541,-181.668 36.2043,-171.088 30.036,-179.702 36.7541,-181.668"/>
<text text-anchor="middle" x="54" y="-193.38" font-family="FreeSans" font-size="10.00"> ZERO</text>
</g>
<!-- Node15&#45;&gt;Node20 -->
<g id="edge58" class="edge"><title>Node15&#45;&gt;Node20</title>
<path fill="none" stroke="#9a32cd" stroke-dasharray="5,2" d="M66.4099,-179.631C95.5551,-225.761 168.721,-347.068 206,-458.38 220.619,-502.031 195.661,-524.103 224,-560.38 238.89,-579.441 263.59,-590.64 284.836,-597.098"/>
<polygon fill="#9a32cd" stroke="#9a32cd" points="69.2112,-177.514 60.8875,-170.959 63.3068,-181.274 69.2112,-177.514"/>
<text text-anchor="middle" x="166" y="-462.38" font-family="FreeSans" font-size="10.00"> absoluteOffset_</text>
</g>
<!-- Node16 -->
<g id="node36" class="node"><title>Node16</title>
<a xlink:href="class_urho3_d_1_1_color.html" target="_top" xlink:title="RGBA color.">
<polygon fill="none" stroke="black" points="641,-64.8798 641,-85.8798 725,-85.8798 725,-64.8798 641,-64.8798"/>
<text text-anchor="middle" x="683" y="-72.8798" font-family="FreeSans" font-size="10.00">Urho3D::Color</text>
</a>
</g>
<!-- Node16&#45;&gt;Node1 -->
<g id="edge80" class="edge"><title>Node16&#45;&gt;Node1</title>
<path fill="none" stroke="#9a32cd" stroke-dasharray="5,2" d="M735.487,-79.1369C805.046,-86.2392 929.301,-106.472 1018,-163.38 1223.96,-295.519 1306.3,-619.377 1320.65,-682.585"/>
<polygon fill="#9a32cd" stroke="#9a32cd" points="735.51,-75.6228 725.219,-78.1437 734.836,-82.5903 735.51,-75.6228"/>
<text text-anchor="middle" x="1109" y="-364.38" font-family="FreeSans" font-size="10.00"> selectionColor_</text>
<text text-anchor="middle" x="1109" y="-351.38" font-family="FreeSans" font-size="10.00">effectColor_</text>
<text text-anchor="middle" x="1109" y="-338.38" font-family="FreeSans" font-size="10.00">hoverColor_</text>
</g>
<!-- Node16&#45;&gt;Node2 -->
<g id="edge42" class="edge"><title>Node16&#45;&gt;Node2</title>
<path fill="none" stroke="#9a32cd" stroke-dasharray="5,2" d="M702.547,-92.949C724.831,-112.269 762.98,-143.238 800,-163.38 890.657,-212.705 940.824,-174.855 1018,-243.38 1072.74,-291.987 1098.91,-381.299 1106.54,-411.827"/>
<polygon fill="#9a32cd" stroke="#9a32cd" points="704.642,-90.1308 694.818,-86.1618 700.022,-95.3904 704.642,-90.1308"/>
<text text-anchor="middle" x="909" y="-260.38" font-family="FreeSans" font-size="10.00"> derivedColor_</text>
<text text-anchor="middle" x="909" y="-247.38" font-family="FreeSans" font-size="10.00">color_</text>
</g>
<!-- Node16&#45;&gt;Node16 -->
<g id="edge44" class="edge"><title>Node16&#45;&gt;Node16</title>
<path fill="none" stroke="#9a32cd" stroke-dasharray="5,2" d="M649.88,-95.0588C651.655,-100.354 662.695,-104.38 683,-104.38 713.941,-104.38 723.369,-95.0329 711.282,-86.0876"/>
<polygon fill="#9a32cd" stroke="#9a32cd" points="653.052,-96.5507 654.718,-86.0876 646.891,-93.2282 653.052,-96.5507"/>
<text text-anchor="middle" x="683" y="-238.38" font-family="FreeSans" font-size="10.00"> CYAN</text>
<text text-anchor="middle" x="683" y="-225.38" font-family="FreeSans" font-size="10.00">GRAY</text>
<text text-anchor="middle" x="683" y="-212.38" font-family="FreeSans" font-size="10.00">YELLOW</text>
<text text-anchor="middle" x="683" y="-199.38" font-family="FreeSans" font-size="10.00">MAGENTA</text>
<text text-anchor="middle" x="683" y="-186.38" font-family="FreeSans" font-size="10.00">WHITE</text>
<text text-anchor="middle" x="683" y="-173.38" font-family="FreeSans" font-size="10.00">TRANSPARENT</text>
<text text-anchor="middle" x="683" y="-160.38" font-family="FreeSans" font-size="10.00">BLUE</text>
<text text-anchor="middle" x="683" y="-147.38" font-family="FreeSans" font-size="10.00">BLACK</text>
<text text-anchor="middle" x="683" y="-134.38" font-family="FreeSans" font-size="10.00">RED</text>
<text text-anchor="middle" x="683" y="-121.38" font-family="FreeSans" font-size="10.00">GREEN</text>
<text text-anchor="middle" x="683" y="-108.38" font-family="FreeSans" font-size="10.00">...</text>
</g>
<!-- Node17&#45;&gt;Node1 -->
<g id="edge46" class="edge"><title>Node17&#45;&gt;Node1</title>
<path fill="none" stroke="#9a32cd" stroke-dasharray="5,2" d="M978.811,-914.269C1035.2,-912.925 1115.79,-906.277 1182,-882.38 1223.97,-867.23 1237.37,-861.607 1266,-827.38 1298.6,-788.404 1315.15,-728.025 1320.75,-703.88"/>
<polygon fill="#9a32cd" stroke="#9a32cd" points="978.504,-910.774 968.571,-914.461 978.635,-917.772 978.504,-910.774"/>
<text text-anchor="middle" x="1109" y="-914.38" font-family="FreeSans" font-size="10.00"> rowWidths_</text>
</g>
<!-- Node18 -->
<g id="node42" class="node"><title>Node18</title>
<a xlink:href="class_urho3_d_1_1_weak_ptr.html" target="_top" xlink:title="Urho3D::WeakPtr\&lt; Urho3D\l::FontFace \&gt;">
<polygon fill="none" stroke="black" points="1036,-676.38 1036,-710.38 1182,-710.38 1182,-676.38 1036,-676.38"/>
<text text-anchor="start" x="1044" y="-697.38" font-family="FreeSans" font-size="10.00">Urho3D::WeakPtr&lt; Urho3D</text>
<text text-anchor="middle" x="1109" y="-684.38" font-family="FreeSans" font-size="10.00">::FontFace &gt;</text>
</a>
</g>
<!-- Node18&#45;&gt;Node1 -->
<g id="edge50" class="edge"><title>Node18&#45;&gt;Node1</title>
<path fill="none" stroke="#9a32cd" stroke-dasharray="5,2" d="M1192.18,-693.38C1223.76,-693.38 1258.26,-693.38 1283.89,-693.38"/>
<polygon fill="#9a32cd" stroke="#9a32cd" points="1192.05,-689.88 1182.05,-693.38 1192.05,-696.88 1192.05,-689.88"/>
<text text-anchor="middle" x="1233" y="-697.38" font-family="FreeSans" font-size="10.00"> fontFace_</text>
</g>
<!-- Node19 -->
<g id="node44" class="node"><title>Node19</title>
<a xlink:href="class_urho3_d_1_1_font_face.html" target="_top" xlink:title="Font face description.">
<polygon fill="none" stroke="red" points="632,-658.88 632,-679.88 734,-679.88 734,-658.88 632,-658.88"/>
<text text-anchor="middle" x="683" y="-666.88" font-family="FreeSans" font-size="10.00">Urho3D::FontFace</text>
</a>
</g>
<!-- Node19&#45;&gt;Node18 -->
<g id="edge52" class="edge"><title>Node19&#45;&gt;Node18</title>
<path fill="none" stroke="#9a32cd" stroke-dasharray="5,2" d="M744.218,-668.524C811.498,-668.165 922.695,-669.288 1018,-678.38 1023.74,-678.927 1029.66,-679.617 1035.61,-680.399"/>
<polygon fill="#9a32cd" stroke="#9a32cd" points="744.188,-665.024 734.211,-668.59 744.234,-672.024 744.188,-665.024"/>
<text text-anchor="middle" x="909" y="-682.38" font-family="FreeSans" font-size="10.00"> ptr_</text>
</g>
<!-- Node20&#45;&gt;Node19 -->
<g id="edge54" class="edge"><title>Node20&#45;&gt;Node19</title>
<path fill="none" stroke="#9a32cd" stroke-dasharray="5,2" d="M359.528,-619.702C382.955,-628.813 414.852,-640.049 444,-646.38 507.75,-660.226 582.876,-665.738 631.643,-667.932"/>
<polygon fill="#9a32cd" stroke="#9a32cd" points="360.625,-616.373 350.039,-615.949 358.05,-622.882 360.625,-616.373"/>
<text text-anchor="middle" x="505" y="-666.38" font-family="FreeSans" font-size="10.00"> font_</text>
</g>
<!-- Node24 -->
<g id="node59" class="node"><title>Node24</title>
<a xlink:href="class_urho3_d_1_1_shared_ptr.html" target="_top" xlink:title="Urho3D::SharedPtr\&lt;\l Urho3D::Font \&gt;">
<polygon fill="none" stroke="black" points="851,-614.38 851,-648.38 967,-648.38 967,-614.38 851,-614.38"/>
<text text-anchor="start" x="859" y="-635.38" font-family="FreeSans" font-size="10.00">Urho3D::SharedPtr&lt;</text>
<text text-anchor="middle" x="909" y="-622.38" font-family="FreeSans" font-size="10.00"> Urho3D::Font &gt;</text>
</a>
</g>
<!-- Node20&#45;&gt;Node24 -->
<g id="edge74" class="edge"><title>Node20&#45;&gt;Node24</title>
<path fill="none" stroke="#9a32cd" stroke-dasharray="5,2" d="M375.435,-607.625C483.422,-612.433 736.459,-623.698 850.932,-628.795"/>
<polygon fill="#9a32cd" stroke="#9a32cd" points="375.286,-604.115 365.141,-607.167 374.975,-611.108 375.286,-604.115"/>
<text text-anchor="middle" x="505" y="-619.38" font-family="FreeSans" font-size="10.00"> ptr_</text>
</g>
<!-- Node21 -->
<g id="node50" class="node"><title>Node21</title>
<a xlink:href="struct_urho3_d_1_1_ref_count.html" target="_top" xlink:title="Reference count structure.">
<polygon fill="none" stroke="black" points="632,-750.88 632,-771.88 734,-771.88 734,-750.88 632,-750.88"/>
<text text-anchor="middle" x="683" y="-758.88" font-family="FreeSans" font-size="10.00">Urho3D::RefCount</text>
</a>
</g>
<!-- Node21&#45;&gt;Node18 -->
<g id="edge60" class="edge"><title>Node21&#45;&gt;Node18</title>
<path fill="none" stroke="#9a32cd" stroke-dasharray="5,2" d="M744.369,-761.071C812.231,-759.495 924.355,-753.219 1018,-730.38 1037.05,-725.732 1057.35,-717.794 1073.93,-710.459"/>
<polygon fill="#9a32cd" stroke="#9a32cd" points="744.202,-757.573 734.276,-761.278 744.346,-764.572 744.202,-757.573"/>
<text text-anchor="middle" x="909" y="-762.38" font-family="FreeSans" font-size="10.00"> refCount_</text>
</g>
<!-- Node22&#45;&gt;Node1 -->
<g id="edge62" class="edge"><title>Node22&#45;&gt;Node1</title>
<path fill="none" stroke="#9a32cd" stroke-dasharray="5,2" d="M987.747,-870.568C1043.09,-866.242 1118.32,-857.021 1182,-837.38 1221.89,-825.078 1235.82,-824.209 1266,-795.38 1294.31,-768.339 1312.33,-724.096 1319.49,-703.958"/>
<polygon fill="#9a32cd" stroke="#9a32cd" points="987.364,-867.087 977.651,-871.32 987.884,-874.067 987.364,-867.087"/>
<text text-anchor="middle" x="1109" y="-869.38" font-family="FreeSans" font-size="10.00"> charLocations_</text>
</g>
<!-- Node23&#45;&gt;Node1 -->
<g id="edge66" class="edge"><title>Node23&#45;&gt;Node1</title>
<path fill="none" stroke="#9a32cd" stroke-dasharray="5,2" d="M1028.25,-822.537C1116.14,-812.056 1226.91,-794.639 1266,-770.38 1292.14,-754.154 1310.27,-721.167 1318.31,-704.119"/>
<polygon fill="#9a32cd" stroke="#9a32cd" points="1027.72,-819.075 1018.19,-823.718 1028.53,-826.028 1027.72,-819.075"/>
<text text-anchor="middle" x="1109" y="-824.38" font-family="FreeSans" font-size="10.00"> pageGlyphLocations_</text>
</g>
<!-- Node24&#45;&gt;Node1 -->
<g id="edge72" class="edge"><title>Node24&#45;&gt;Node1</title>
<path fill="none" stroke="#9a32cd" stroke-dasharray="5,2" d="M977.259,-633.614C1032.76,-636.271 1112.91,-642.025 1182,-654.38 1220.25,-661.22 1263.15,-673.815 1291.47,-682.842"/>
<polygon fill="#9a32cd" stroke="#9a32cd" points="977.34,-630.114 967.19,-633.153 977.02,-637.106 977.34,-630.114"/>
<text text-anchor="middle" x="1109" y="-658.38" font-family="FreeSans" font-size="10.00"> font_</text>
</g>
<!-- Node25&#45;&gt;Node1 -->
<g id="edge76" class="edge"><title>Node25&#45;&gt;Node1</title>
<path fill="none" stroke="#9a32cd" stroke-dasharray="5,2" d="M1178.6,-734.215C1205.9,-726.972 1237.47,-718.45 1266,-710.38 1273.15,-708.356 1280.79,-706.126 1288.08,-703.966"/>
<polygon fill="#9a32cd" stroke="#9a32cd" points="1177.52,-730.88 1168.75,-736.823 1179.31,-737.647 1177.52,-730.88"/>
<text text-anchor="middle" x="1233" y="-757.38" font-family="FreeSans" font-size="10.00"> unicodeText_</text>
<text text-anchor="middle" x="1233" y="-744.38" font-family="FreeSans" font-size="10.00">printToText_</text>
<text text-anchor="middle" x="1233" y="-731.38" font-family="FreeSans" font-size="10.00">printText_</text>
</g>
</g>
</svg>
