<?xml version="1.0" encoding="UTF-8" standalone="no"?>
<!DOCTYPE svg PUBLIC "-//W3C//DTD SVG 1.1//EN"
 "http://www.w3.org/Graphics/SVG/1.1/DTD/svg11.dtd">
<!-- Generated by graphviz version 2.26.3 (20100126.1600)
 -->
<!-- Title: Urho3D::NavigationMesh Pages: 1 -->
<!--zoomable 913 -->
<svg id="main" version="1.1" xmlns="http://www.w3.org/2000/svg" xmlns:xlink="http://www.w3.org/1999/xlink" xml:space="preserve" onload="init(evt)">
        <defs>
                <circle id="rim" cx="0" cy="0" r="7"/>
                <circle id="rim2" cx="0" cy="0" r="3.5"/>
                <g id="zoomPlus">
                        <use xlink:href="#rim" fill="#404040">
                                <set attributeName="fill" to="#808080" begin="zoomplus.mouseover" end="zoomplus.mouseout"/>
                        </use>
                        <path d="M-4,0h8M0,-4v8" fill="none" stroke="white" stroke-width="1.5" pointer-events="none"/>
                </g>
                <g id="zoomMin">
                        <use xlink:href="#rim" fill="#404040">
                                <set attributeName="fill" to="#808080" begin="zoomminus.mouseover" end="zoomminus.mouseout"/>
                        </use>
                        <path d="M-4,0h8" fill="none" stroke="white" stroke-width="1.5" pointer-events="none"/>
                </g>
                <g id="dirArrow">
                        <path fill="none" stroke="white" stroke-width="1.5" d="M0,-3.0v7 M-2.5,-0.5L0,-3.0L2.5,-0.5"/>
                </g>
               <g id="resetDef">
                       <use xlink:href="#rim2" fill="#404040">
                               <set attributeName="fill" to="#808080" begin="reset.mouseover" end="reset.mouseout"/>
                       </use>
               </g>
        </defs>

<script type="text/javascript">
var viewWidth = 1582;
var viewHeight = 913;
var sectionId = 'dynsection-1';
</script>
<script xlink:href="svgpan.js"/>
<svg id="graph" class="graph">
<g id="viewport">
<title>Urho3D::NavigationMesh</title>
<!-- Node1 -->
<g id="node1" class="node"><title>Node1</title>
<polygon fill="#bfbfbf" stroke="black" points="1438,-67.5 1438,-88.5 1574,-88.5 1574,-67.5 1438,-67.5"/>
<text text-anchor="middle" x="1506" y="-75.5" font-family="FreeSans" font-size="10.00">Urho3D::NavigationMesh</text>
</g>
<!-- Node2 -->
<g id="node2" class="node"><title>Node2</title>
<a xlink:href="class_urho3_d_1_1_component.html" target="_top" xlink:title="Base class for components. Components can be created to scene nodes.">
<polygon fill="none" stroke="black" points="1284,-210.5 1284,-231.5 1400,-231.5 1400,-210.5 1284,-210.5"/>
<text text-anchor="middle" x="1342" y="-218.5" font-family="FreeSans" font-size="10.00">Urho3D::Component</text>
</a>
</g>
<!-- Node2&#45;&gt;Node1 -->
<g id="edge2" class="edge"><title>Node2&#45;&gt;Node1</title>
<path fill="none" stroke="midnightblue" d="M1362.02,-203.547C1396.46,-173.511 1465.95,-112.925 1493.92,-88.5305"/>
<polygon fill="midnightblue" stroke="midnightblue" points="1359.3,-201.275 1354.06,-210.485 1363.9,-206.551 1359.3,-201.275"/>
</g>
<!-- Node3 -->
<g id="node4" class="node"><title>Node3</title>
<a xlink:href="class_urho3_d_1_1_animatable.html" target="_top" xlink:title="Base class for animatable object, an animatable object can be set animation on it&#39;s attributes...">
<polygon fill="none" stroke="black" points="723,-210.5 723,-231.5 837,-231.5 837,-210.5 723,-210.5"/>
<text text-anchor="middle" x="780" y="-218.5" font-family="FreeSans" font-size="10.00">Urho3D::Animatable</text>
</a>
</g>
<!-- Node3&#45;&gt;Node2 -->
<g id="edge4" class="edge"><title>Node3&#45;&gt;Node2</title>
<path fill="none" stroke="midnightblue" d="M847.331,-221C958.532,-221 1178.69,-221 1283.67,-221"/>
<polygon fill="midnightblue" stroke="midnightblue" points="847.241,-217.5 837.241,-221 847.241,-224.5 847.241,-217.5"/>
</g>
<!-- Node10 -->
<g id="node18" class="node"><title>Node10</title>
<a xlink:href="class_urho3_d_1_1_node.html" target="_top" xlink:title="Scene node that may contain components and child nodes.">
<polygon fill="none" stroke="black" points="1040.5,-506.5 1040.5,-527.5 1125.5,-527.5 1125.5,-506.5 1040.5,-506.5"/>
<text text-anchor="middle" x="1083" y="-514.5" font-family="FreeSans" font-size="10.00">Urho3D::Node</text>
</a>
</g>
<!-- Node3&#45;&gt;Node10 -->
<g id="edge20" class="edge"><title>Node3&#45;&gt;Node10</title>
<path fill="none" stroke="midnightblue" d="M847.247,-227.703C910.038,-235.34 997.626,-249.976 1022,-274 1056.15,-307.663 1076.73,-463.615 1081.78,-506.219"/>
<polygon fill="midnightblue" stroke="midnightblue" points="847.348,-224.191 837.006,-226.492 846.526,-231.142 847.348,-224.191"/>
</g>
<!-- Node4 -->
<g id="node6" class="node"><title>Node4</title>
<a xlink:href="class_urho3_d_1_1_serializable.html" target="_top" xlink:title="Base class for objects with automatic serialization through attributes.">
<polygon fill="none" stroke="red" points="342,-309.5 342,-330.5 456,-330.5 456,-309.5 342,-309.5"/>
<text text-anchor="middle" x="399" y="-317.5" font-family="FreeSans" font-size="10.00">Urho3D::Serializable</text>
</a>
</g>
<!-- Node4&#45;&gt;Node3 -->
<g id="edge6" class="edge"><title>Node4&#45;&gt;Node3</title>
<path fill="none" stroke="midnightblue" d="M466.33,-324.536C523.146,-324.916 603.955,-316.984 660,-276 674.12,-265.675 664.019,-251.512 678,-241 690.837,-231.348 707.076,-225.99 722.801,-223.107"/>
<polygon fill="midnightblue" stroke="midnightblue" points="466.065,-321.031 456.011,-324.374 465.955,-328.03 466.065,-321.031"/>
</g>
<!-- Node5 -->
<g id="node8" class="node"><title>Node5</title>
<a xlink:href="class_urho3_d_1_1_object.html" target="_top" xlink:title="Base class for objects with type identification, subsystem access and event sending/receiving capabil...">
<polygon fill="none" stroke="red" points="28,-433.5 28,-454.5 118,-454.5 118,-433.5 28,-433.5"/>
<text text-anchor="middle" x="73" y="-441.5" font-family="FreeSans" font-size="10.00">Urho3D::Object</text>
</a>
</g>
<!-- Node5&#45;&gt;Node4 -->
<g id="edge8" class="edge"><title>Node5&#45;&gt;Node4</title>
<path fill="none" stroke="midnightblue" d="M100.93,-428.442C142.622,-405.837 224.151,-364.001 298,-340 311.94,-335.47 327.312,-331.789 341.769,-328.88"/>
<polygon fill="midnightblue" stroke="midnightblue" points="99.0323,-425.49 91.9349,-433.357 102.389,-431.633 99.0323,-425.49"/>
</g>
<!-- Node22 -->
<g id="node51" class="node"><title>Node22</title>
<a xlink:href="class_urho3_d_1_1_connection.html" target="_top" xlink:title="Connection to a remote network host.">
<polygon fill="none" stroke="red" points="723.5,-539.5 723.5,-560.5 836.5,-560.5 836.5,-539.5 723.5,-539.5"/>
<text text-anchor="middle" x="780" y="-547.5" font-family="FreeSans" font-size="10.00">Urho3D::Connection</text>
</a>
</g>
<!-- Node5&#45;&gt;Node22 -->
<g id="edge62" class="edge"><title>Node5&#45;&gt;Node22</title>
<path fill="none" stroke="midnightblue" d="M109.243,-458.085C153.178,-474.499 229.814,-501.022 298,-514 378.064,-529.239 614.141,-542.079 723.372,-547.387"/>
<polygon fill="midnightblue" stroke="midnightblue" points="110.446,-454.798 99.854,-454.545 107.976,-461.348 110.446,-454.798"/>
</g>
<!-- Node6 -->
<g id="node10" class="node"><title>Node6</title>
<a xlink:href="class_urho3_d_1_1_hash_map.html" target="_top" xlink:title="Hash map template class.">
<polygon fill="none" stroke="red" points="0,-309.5 0,-330.5 146,-330.5 146,-309.5 0,-309.5"/>
<text text-anchor="middle" x="73" y="-317.5" font-family="FreeSans" font-size="10.00">Urho3D::HashMap&lt; T, U &gt;</text>
</a>
</g>
<!-- Node6&#45;&gt;Node4 -->
<g id="edge10" class="edge"><title>Node6&#45;&gt;Node4</title>
<path fill="none" stroke="#9a32cd" stroke-dasharray="5,2" d="M156.42,-320C214.503,-320 290.45,-320 341.774,-320"/>
<polygon fill="#9a32cd" stroke="#9a32cd" points="156.161,-316.5 146.161,-320 156.161,-323.5 156.161,-316.5"/>
<text text-anchor="middle" x="222" y="-324" font-family="FreeSans" font-size="10.00"> instanceDefaultValues_</text>
</g>
<!-- Node7 -->
<g id="node12" class="node"><title>Node7</title>
<a xlink:href="class_urho3_d_1_1_hash_map.html" target="_top" xlink:title="Urho3D::HashMap\&lt; Urho3D\l::String, Urho3D::SharedPtr\l\&lt; Urho3D::AttributeAnimationInfo \&gt; \&gt;">
<polygon fill="none" stroke="red" points="298.5,-349.5 298.5,-396.5 499.5,-396.5 499.5,-349.5 298.5,-349.5"/>
<text text-anchor="start" x="306.5" y="-383.5" font-family="FreeSans" font-size="10.00">Urho3D::HashMap&lt; Urho3D</text>
<text text-anchor="start" x="306.5" y="-370.5" font-family="FreeSans" font-size="10.00">::String, Urho3D::SharedPtr</text>
<text text-anchor="middle" x="399" y="-357.5" font-family="FreeSans" font-size="10.00">&lt; Urho3D::AttributeAnimationInfo &gt; &gt;</text>
</a>
</g>
<!-- Node7&#45;&gt;Node3 -->
<g id="edge12" class="edge"><title>Node7&#45;&gt;Node3</title>
<path fill="none" stroke="#9a32cd" stroke-dasharray="5,2" d="M509.864,-373.595C561.763,-368.073 620.666,-352.577 660,-314 683.857,-290.602 653.809,-264.053 678,-241 690.018,-229.547 706.572,-223.742 722.849,-221.006"/>
<polygon fill="#9a32cd" stroke="#9a32cd" points="509.21,-370.141 499.585,-374.57 509.871,-377.11 509.21,-370.141"/>
<text text-anchor="middle" x="589" y="-375" font-family="FreeSans" font-size="10.00"> attributeAnimationInfos_</text>
</g>
<!-- Node8 -->
<g id="node14" class="node"><title>Node8</title>
<a xlink:href="class_urho3_d_1_1_shared_ptr.html" target="_top" xlink:title="Urho3D::SharedPtr\&lt;\l Urho3D::ObjectAnimation \&gt;">
<polygon fill="none" stroke="red" points="322.5,-257 322.5,-291 475.5,-291 475.5,-257 322.5,-257"/>
<text text-anchor="start" x="330.5" y="-278" font-family="FreeSans" font-size="10.00">Urho3D::SharedPtr&lt;</text>
<text text-anchor="middle" x="399" y="-265" font-family="FreeSans" font-size="10.00"> Urho3D::ObjectAnimation &gt;</text>
</a>
</g>
<!-- Node8&#45;&gt;Node3 -->
<g id="edge14" class="edge"><title>Node8&#45;&gt;Node3</title>
<path fill="none" stroke="#9a32cd" stroke-dasharray="5,2" d="M485.527,-262.741C536.366,-256.039 601.864,-247.258 660,-239 680.544,-236.082 703.044,-232.745 722.954,-229.743"/>
<polygon fill="#9a32cd" stroke="#9a32cd" points="485.019,-259.277 475.561,-264.052 485.932,-266.217 485.019,-259.277"/>
<text text-anchor="middle" x="589" y="-263" font-family="FreeSans" font-size="10.00"> objectAnimation_</text>
</g>
<!-- Node9 -->
<g id="node16" class="node"><title>Node9</title>
<a xlink:href="class_urho3_d_1_1_hash_set.html" target="_top" xlink:title="Urho3D::HashSet\&lt; const\l Urho3D::AttributeInfo * \&gt;">
<polygon fill="none" stroke="red" points="328.5,-205 328.5,-239 469.5,-239 469.5,-205 328.5,-205"/>
<text text-anchor="start" x="336.5" y="-226" font-family="FreeSans" font-size="10.00">Urho3D::HashSet&lt; const</text>
<text text-anchor="middle" x="399" y="-213" font-family="FreeSans" font-size="10.00"> Urho3D::AttributeInfo * &gt;</text>
</a>
</g>
<!-- Node9&#45;&gt;Node3 -->
<g id="edge16" class="edge"><title>Node9&#45;&gt;Node3</title>
<path fill="none" stroke="#9a32cd" stroke-dasharray="5,2" d="M479.848,-221.788C552.854,-221.596 658.438,-221.319 722.964,-221.15"/>
<polygon fill="#9a32cd" stroke="#9a32cd" points="479.761,-218.288 469.77,-221.814 479.779,-225.288 479.761,-218.288"/>
<text text-anchor="middle" x="589" y="-226" font-family="FreeSans" font-size="10.00"> animatedNetworkAttributes_</text>
</g>
<!-- Node10&#45;&gt;Node2 -->
<g id="edge18" class="edge"><title>Node10&#45;&gt;Node2</title>
<path fill="none" stroke="#9a32cd" stroke-dasharray="5,2" d="M1098.93,-498.792C1147.72,-443.033 1294.09,-275.751 1332.62,-231.718"/>
<polygon fill="#9a32cd" stroke="#9a32cd" points="1096.17,-496.635 1092.22,-506.465 1101.44,-501.244 1096.17,-496.635"/>
<text text-anchor="middle" x="1205" y="-449" font-family="FreeSans" font-size="10.00"> node_</text>
</g>
<!-- Node10&#45;&gt;Node10 -->
<g id="edge52" class="edge"><title>Node10&#45;&gt;Node10</title>
<path fill="none" stroke="#9a32cd" stroke-dasharray="5,2" d="M1060.52,-537.427C1062.25,-542.349 1069.75,-546 1083,-546 1104.21,-546 1110.67,-536.653 1102.38,-527.708"/>
<polygon fill="#9a32cd" stroke="#9a32cd" points="1063.91,-538.299 1063.62,-527.708 1057.24,-536.172 1063.91,-538.299"/>
<text text-anchor="middle" x="1083" y="-550" font-family="FreeSans" font-size="10.00"> parent_</text>
</g>
<!-- Node12 -->
<g id="node23" class="node"><title>Node12</title>
<a xlink:href="class_urho3_d_1_1_scene.html" target="_top" xlink:title="Root scene node, represents the whole scene.">
<polygon fill="none" stroke="red" points="1297.5,-767.5 1297.5,-788.5 1386.5,-788.5 1386.5,-767.5 1297.5,-767.5"/>
<text text-anchor="middle" x="1342" y="-775.5" font-family="FreeSans" font-size="10.00">Urho3D::Scene</text>
</a>
</g>
<!-- Node10&#45;&gt;Node12 -->
<g id="edge26" class="edge"><title>Node10&#45;&gt;Node12</title>
<path fill="none" stroke="midnightblue" d="M1135.61,-526.973C1175.94,-537.096 1230.54,-556.506 1266,-592 1317.77,-643.826 1335.75,-735.787 1340.54,-767.162"/>
<polygon fill="midnightblue" stroke="midnightblue" points="1136.22,-523.521 1125.68,-524.596 1134.59,-530.328 1136.22,-523.521"/>
</g>
<!-- Node11 -->
<g id="node21" class="node"><title>Node11</title>
<a xlink:href="class_urho3_d_1_1_p_o_d_vector.html" target="_top" xlink:title="Urho3D::PODVector\&lt;\l Urho3D::Node * \&gt;">
<polygon fill="none" stroke="red" points="720.5,-425 720.5,-459 839.5,-459 839.5,-425 720.5,-425"/>
<text text-anchor="start" x="728.5" y="-446" font-family="FreeSans" font-size="10.00">Urho3D::PODVector&lt;</text>
<text text-anchor="middle" x="780" y="-433" font-family="FreeSans" font-size="10.00"> Urho3D::Node * &gt;</text>
</a>
</g>
<!-- Node11&#45;&gt;Node10 -->
<g id="edge22" class="edge"><title>Node11&#45;&gt;Node10</title>
<path fill="none" stroke="#9a32cd" stroke-dasharray="5,2" d="M849.755,-439.254C899.533,-439.703 967.106,-445.315 1022,-468 1042.84,-476.612 1062.3,-494.659 1073.41,-506.283"/>
<polygon fill="#9a32cd" stroke="#9a32cd" points="849.739,-435.754 839.73,-439.231 849.722,-442.754 849.739,-435.754"/>
<text text-anchor="middle" x="961" y="-472" font-family="FreeSans" font-size="10.00"> dependencyNodes_</text>
</g>
<!-- Node12&#45;&gt;Node10 -->
<g id="edge24" class="edge"><title>Node12&#45;&gt;Node10</title>
<path fill="none" stroke="#9a32cd" stroke-dasharray="5,2" d="M1321.82,-760.659C1285.04,-728.709 1205.25,-657.786 1144,-592 1123.64,-570.135 1102.1,-542.417 1090.87,-527.555"/>
<polygon fill="#9a32cd" stroke="#9a32cd" points="1319.55,-763.322 1329.4,-767.22 1324.13,-758.029 1319.55,-763.322"/>
<text text-anchor="middle" x="1205" y="-713" font-family="FreeSans" font-size="10.00"> scene_</text>
</g>
<!-- Node13 -->
<g id="node26" class="node"><title>Node13</title>
<a xlink:href="class_urho3_d_1_1_hash_map.html" target="_top" xlink:title="Urho3D::HashMap\&lt; StringHash,\l Variant \&gt;">
<polygon fill="none" stroke="red" points="313,-852 313,-886 485,-886 485,-852 313,-852"/>
<text text-anchor="start" x="321" y="-873" font-family="FreeSans" font-size="10.00">Urho3D::HashMap&lt; StringHash,</text>
<text text-anchor="middle" x="399" y="-860" font-family="FreeSans" font-size="10.00"> Variant &gt;</text>
</a>
</g>
<!-- Node13&#45;&gt;Node10 -->
<g id="edge48" class="edge"><title>Node13&#45;&gt;Node10</title>
<path fill="none" stroke="#9a32cd" stroke-dasharray="5,2" d="M495.355,-870.955C660.403,-873.369 983.271,-873.649 1022,-840 1070.68,-797.706 1080.95,-578.355 1082.69,-527.525"/>
<polygon fill="#9a32cd" stroke="#9a32cd" points="495.251,-867.454 485.199,-870.801 495.145,-874.453 495.251,-867.454"/>
<text text-anchor="middle" x="780" y="-875" font-family="FreeSans" font-size="10.00"> vars_</text>
</g>
<!-- Node13&#45;&gt;Node12 -->
<g id="edge28" class="edge"><title>Node13&#45;&gt;Node12</title>
<path fill="none" stroke="#9a32cd" stroke-dasharray="5,2" d="M495.372,-882.911C503.017,-883.723 510.629,-884.437 518,-885 588.917,-890.414 606.88,-887.333 678,-888 940.963,-890.465 1018.93,-912.079 1266,-822 1288.77,-813.696 1312.58,-798.734 1327.34,-788.588"/>
<polygon fill="#9a32cd" stroke="#9a32cd" points="495.647,-879.42 485.321,-881.791 494.871,-886.377 495.647,-879.42"/>
<text text-anchor="middle" x="961" y="-896" font-family="FreeSans" font-size="10.00"> smoothingData_</text>
</g>
<!-- Node13&#45;&gt;Node22 -->
<g id="edge70" class="edge"><title>Node13&#45;&gt;Node22</title>
<path fill="none" stroke="#9a32cd" stroke-dasharray="5,2" d="M449.154,-847.555C509.614,-818.918 609.388,-762.197 660,-681 685.277,-640.447 645.451,-609.986 678,-575 689.736,-562.385 706.706,-555.677 723.448,-552.234"/>
<polygon fill="#9a32cd" stroke="#9a32cd" points="447.389,-844.516 439.801,-851.91 450.344,-850.862 447.389,-844.516"/>
<text text-anchor="middle" x="589" y="-812" font-family="FreeSans" font-size="10.00"> identity_</text>
</g>
<!-- Node14 -->
<g id="node28" class="node"><title>Node14</title>
<a xlink:href="class_urho3_d_1_1_string.html" target="_top" xlink:title="String class.">
<polygon fill="none" stroke="black" points="355,-719.5 355,-740.5 443,-740.5 443,-719.5 355,-719.5"/>
<text text-anchor="middle" x="399" y="-727.5" font-family="FreeSans" font-size="10.00">Urho3D::String</text>
</a>
</g>
<!-- Node14&#45;&gt;Node10 -->
<g id="edge50" class="edge"><title>Node14&#45;&gt;Node10</title>
<path fill="none" stroke="#9a32cd" stroke-dasharray="5,2" d="M453.596,-731.826C589.653,-735.196 938.839,-736.234 1022,-662 1063.77,-624.717 1077.76,-554.164 1081.67,-527.532"/>
<polygon fill="#9a32cd" stroke="#9a32cd" points="453.492,-728.322 443.404,-731.559 453.309,-735.319 453.492,-728.322"/>
<text text-anchor="middle" x="780" y="-734" font-family="FreeSans" font-size="10.00"> name_</text>
</g>
<!-- Node14&#45;&gt;Node12 -->
<g id="edge30" class="edge"><title>Node14&#45;&gt;Node12</title>
<path fill="none" stroke="#9a32cd" stroke-dasharray="5,2" d="M417.54,-747.463C439.52,-766.852 478.213,-796.996 518,-809 807.527,-896.355 1180.32,-818.431 1301.81,-788.518"/>
<polygon fill="#9a32cd" stroke="#9a32cd" points="419.732,-744.727 409.966,-740.619 415.039,-749.921 419.732,-744.727"/>
<text text-anchor="middle" x="961" y="-851" font-family="FreeSans" font-size="10.00"> fileName_</text>
</g>
<!-- Node14&#45;&gt;Node14 -->
<g id="edge32" class="edge"><title>Node14&#45;&gt;Node14</title>
<path fill="none" stroke="#9a32cd" stroke-dasharray="5,2" d="M366.252,-749.679C368.007,-754.975 378.923,-759 399,-759 429.594,-759 438.915,-749.653 426.965,-740.708"/>
<polygon fill="#9a32cd" stroke="#9a32cd" points="369.419,-751.179 371.035,-740.708 363.242,-747.885 369.419,-751.179"/>
<text text-anchor="middle" x="399" y="-763" font-family="FreeSans" font-size="10.00"> EMPTY</text>
</g>
<!-- Node14&#45;&gt;Node22 -->
<g id="edge72" class="edge"><title>Node14&#45;&gt;Node22</title>
<path fill="none" stroke="#9a32cd" stroke-dasharray="5,2" d="M423.194,-713.613C470.281,-682.403 578.375,-614.069 678,-575 693.022,-569.109 709.848,-564.303 725.435,-560.537"/>
<polygon fill="#9a32cd" stroke="#9a32cd" points="420.986,-710.879 414.61,-719.34 424.871,-716.701 420.986,-710.879"/>
<text text-anchor="middle" x="589" y="-668" font-family="FreeSans" font-size="10.00"> sceneFileName_</text>
<text text-anchor="middle" x="589" y="-655" font-family="FreeSans" font-size="10.00">address_</text>
</g>
<!-- Node15 -->
<g id="node31" class="node"><title>Node15</title>
<a xlink:href="class_urho3_d_1_1_quaternion.html" target="_top" xlink:title="Rotation represented as a four&#45;dimensional normalized vector.">
<polygon fill="none" stroke="black" points="342.5,-452.5 342.5,-473.5 455.5,-473.5 455.5,-452.5 342.5,-452.5"/>
<text text-anchor="middle" x="399" y="-460.5" font-family="FreeSans" font-size="10.00">Urho3D::Quaternion</text>
</a>
</g>
<!-- Node15&#45;&gt;Node10 -->
<g id="edge34" class="edge"><title>Node15&#45;&gt;Node10</title>
<path fill="none" stroke="#9a32cd" stroke-dasharray="5,2" d="M465.694,-468.265C605.314,-479.288 924.977,-504.525 1040.42,-513.639"/>
<polygon fill="#9a32cd" stroke="#9a32cd" points="465.801,-464.763 455.557,-467.465 465.25,-471.741 465.801,-464.763"/>
<text text-anchor="middle" x="780" y="-517" font-family="FreeSans" font-size="10.00"> worldRotation_</text>
<text text-anchor="middle" x="780" y="-504" font-family="FreeSans" font-size="10.00">rotation_</text>
</g>
<!-- Node15&#45;&gt;Node15 -->
<g id="edge36" class="edge"><title>Node15&#45;&gt;Node15</title>
<path fill="none" stroke="#9a32cd" stroke-dasharray="5,2" d="M366.252,-482.679C368.007,-487.975 378.923,-492 399,-492 429.594,-492 438.915,-482.653 426.965,-473.708"/>
<polygon fill="#9a32cd" stroke="#9a32cd" points="369.419,-484.179 371.035,-473.708 363.242,-480.885 369.419,-484.179"/>
<text text-anchor="middle" x="399" y="-496" font-family="FreeSans" font-size="10.00"> IDENTITY</text>
</g>
<!-- Node15&#45;&gt;Node22 -->
<g id="edge64" class="edge"><title>Node15&#45;&gt;Node22</title>
<path fill="none" stroke="#9a32cd" stroke-dasharray="5,2" d="M465.491,-474.247C482.598,-477.121 500.98,-480.191 518,-483 581.081,-493.409 603.484,-476.109 660,-506 670.283,-511.438 667.942,-519.156 678,-525 691.715,-532.969 707.888,-538.409 723.265,-542.119"/>
<polygon fill="#9a32cd" stroke="#9a32cd" points="466.028,-470.788 455.586,-472.581 464.867,-477.691 466.028,-470.788"/>
<text text-anchor="middle" x="589" y="-510" font-family="FreeSans" font-size="10.00"> rotation_</text>
</g>
<!-- Node16 -->
<g id="node34" class="node"><title>Node16</title>
<a xlink:href="class_urho3_d_1_1_vector.html" target="_top" xlink:title="Urho3D::Vector\&lt; Urho3D\l::WeakPtr\&lt; Urho3D::Component \&gt; \&gt;">
<polygon fill="none" stroke="red" points="683,-373 683,-407 877,-407 877,-373 683,-373"/>
<text text-anchor="start" x="691" y="-394" font-family="FreeSans" font-size="10.00">Urho3D::Vector&lt; Urho3D</text>
<text text-anchor="middle" x="780" y="-381" font-family="FreeSans" font-size="10.00">::WeakPtr&lt; Urho3D::Component &gt; &gt;</text>
</a>
</g>
<!-- Node16&#45;&gt;Node10 -->
<g id="edge38" class="edge"><title>Node16&#45;&gt;Node10</title>
<path fill="none" stroke="#9a32cd" stroke-dasharray="5,2" d="M887.092,-386.736C931.741,-389.93 982.321,-399.875 1022,-425 1053.09,-444.684 1071.86,-486.592 1079.3,-506.316"/>
<polygon fill="#9a32cd" stroke="#9a32cd" points="887.266,-383.24 877.071,-386.124 886.839,-390.227 887.266,-383.24"/>
<text text-anchor="middle" x="961" y="-429" font-family="FreeSans" font-size="10.00"> listeners_</text>
</g>
<!-- Node17 -->
<g id="node36" class="node"><title>Node17</title>
<a xlink:href="class_urho3_d_1_1_vector_buffer.html" target="_top" xlink:title="Dynamically sized buffer that can be read and written to as a stream.">
<polygon fill="none" stroke="red" points="339.5,-597.5 339.5,-618.5 458.5,-618.5 458.5,-597.5 339.5,-597.5"/>
<text text-anchor="middle" x="399" y="-605.5" font-family="FreeSans" font-size="10.00">Urho3D::VectorBuffer</text>
</a>
</g>
<!-- Node17&#45;&gt;Node10 -->
<g id="edge40" class="edge"><title>Node17&#45;&gt;Node10</title>
<path fill="none" stroke="#9a32cd" stroke-dasharray="5,2" d="M457.215,-620.366C476.47,-623.895 498.068,-627.255 518,-629 580.871,-634.505 603.265,-656.643 660,-629 671.669,-623.315 666.799,-612.56 678,-606 744.743,-566.912 949.159,-579.014 1022,-553 1039.14,-546.879 1056.85,-535.803 1068.74,-527.547"/>
<polygon fill="#9a32cd" stroke="#9a32cd" points="457.855,-616.925 447.38,-618.513 456.559,-623.804 457.855,-616.925"/>
<text text-anchor="middle" x="780" y="-610" font-family="FreeSans" font-size="10.00"> attrBuffer_</text>
</g>
<!-- Node17&#45;&gt;Node22 -->
<g id="edge66" class="edge"><title>Node17&#45;&gt;Node22</title>
<path fill="none" stroke="#9a32cd" stroke-dasharray="5,2" d="M433.017,-593.558C456.458,-584.287 488.57,-572.914 518,-567 587.826,-552.969 670.018,-549.733 723.468,-549.341"/>
<polygon fill="#9a32cd" stroke="#9a32cd" points="431.501,-590.395 423.535,-597.38 434.118,-596.887 431.501,-590.395"/>
<text text-anchor="middle" x="589" y="-571" font-family="FreeSans" font-size="10.00"> msg_</text>
</g>
<!-- Node18 -->
<g id="node38" class="node"><title>Node18</title>
<a xlink:href="class_urho3_d_1_1_vector.html" target="_top" xlink:title="Urho3D::Vector\&lt; Urho3D\l::SharedPtr\&lt; Urho3D::Component \&gt; \&gt;">
<polygon fill="none" stroke="red" points="678.5,-321 678.5,-355 881.5,-355 881.5,-321 678.5,-321"/>
<text text-anchor="start" x="686.5" y="-342" font-family="FreeSans" font-size="10.00">Urho3D::Vector&lt; Urho3D</text>
<text text-anchor="middle" x="780" y="-329" font-family="FreeSans" font-size="10.00">::SharedPtr&lt; Urho3D::Component &gt; &gt;</text>
</a>
</g>
<!-- Node18&#45;&gt;Node10 -->
<g id="edge42" class="edge"><title>Node18&#45;&gt;Node10</title>
<path fill="none" stroke="#9a32cd" stroke-dasharray="5,2" d="M891.772,-330.302C936.247,-332.714 985.43,-342.894 1022,-371 1066.87,-405.485 1079.03,-479.009 1082.06,-506.414"/>
<polygon fill="#9a32cd" stroke="#9a32cd" points="891.907,-326.804 881.769,-329.883 891.614,-333.798 891.907,-326.804"/>
<text text-anchor="middle" x="961" y="-375" font-family="FreeSans" font-size="10.00"> components_</text>
</g>
<!-- Node19 -->
<g id="node40" class="node"><title>Node19</title>
<a xlink:href="class_urho3_d_1_1_vector3.html" target="_top" xlink:title="Three&#45;dimensional vector.">
<polygon fill="none" stroke="black" points="351,-43.5 351,-64.5 447,-64.5 447,-43.5 351,-43.5"/>
<text text-anchor="middle" x="399" y="-51.5" font-family="FreeSans" font-size="10.00">Urho3D::Vector3</text>
</a>
</g>
<!-- Node19&#45;&gt;Node1 -->
<g id="edge78" class="edge"><title>Node19&#45;&gt;Node1</title>
<path fill="none" stroke="#9a32cd" stroke-dasharray="5,2" d="M457.263,-54.2479C532.005,-54.544 665.654,-55 780,-55 780,-55 780,-55 1342,-55 1380.81,-55 1424.3,-61.3961 1456.73,-67.4424"/>
<polygon fill="#9a32cd" stroke="#9a32cd" points="457.129,-50.7474 447.115,-54.2072 457.101,-57.7473 457.129,-50.7474"/>
<text text-anchor="middle" x="1083" y="-59" font-family="FreeSans" font-size="10.00"> padding_</text>
</g>
<!-- Node19&#45;&gt;Node10 -->
<g id="edge44" class="edge"><title>Node19&#45;&gt;Node10</title>
<path fill="none" stroke="#9a32cd" stroke-dasharray="5,2" d="M424.225,-69.8684C447.648,-83.8767 483.937,-103.768 518,-115 736.485,-187.046 874.709,-56.2748 1022,-233 1058,-276.194 1077.57,-459.636 1082.02,-506.212"/>
<polygon fill="#9a32cd" stroke="#9a32cd" points="425.976,-66.837 415.613,-64.6349 422.341,-72.8191 425.976,-66.837"/>
<text text-anchor="middle" x="780" y="-158" font-family="FreeSans" font-size="10.00"> scale_</text>
<text text-anchor="middle" x="780" y="-145" font-family="FreeSans" font-size="10.00">position_</text>
</g>
<!-- Node19&#45;&gt;Node19 -->
<g id="edge46" class="edge"><title>Node19&#45;&gt;Node19</title>
<path fill="none" stroke="#9a32cd" stroke-dasharray="5,2" d="M366.252,-73.6791C368.007,-78.9746 378.923,-83 399,-83 429.594,-83 438.915,-73.6531 426.965,-64.7079"/>
<polygon fill="#9a32cd" stroke="#9a32cd" points="369.419,-75.1787 371.035,-64.7079 363.242,-71.8852 369.419,-75.1787"/>
<text text-anchor="middle" x="399" y="-178" font-family="FreeSans" font-size="10.00"> ONE</text>
<text text-anchor="middle" x="399" y="-165" font-family="FreeSans" font-size="10.00">DOWN</text>
<text text-anchor="middle" x="399" y="-152" font-family="FreeSans" font-size="10.00">BACK</text>
<text text-anchor="middle" x="399" y="-139" font-family="FreeSans" font-size="10.00">RIGHT</text>
<text text-anchor="middle" x="399" y="-126" font-family="FreeSans" font-size="10.00">LEFT</text>
<text text-anchor="middle" x="399" y="-113" font-family="FreeSans" font-size="10.00">ZERO</text>
<text text-anchor="middle" x="399" y="-100" font-family="FreeSans" font-size="10.00">FORWARD</text>
<text text-anchor="middle" x="399" y="-87" font-family="FreeSans" font-size="10.00">UP</text>
</g>
<!-- Node19&#45;&gt;Node22 -->
<g id="edge68" class="edge"><title>Node19&#45;&gt;Node22</title>
<path fill="none" stroke="#9a32cd" stroke-dasharray="5,2" d="M416.645,-71.9428C440.269,-97.2172 481.359,-145.848 500,-196 514.93,-236.169 494.48,-352.178 518,-388 557.52,-448.191 614.595,-410.115 660,-466 677.288,-487.278 658.082,-506.162 678,-525 690.253,-536.588 706.968,-543.066 723.321,-546.614"/>
<polygon fill="#9a32cd" stroke="#9a32cd" points="419.07,-69.4137 409.639,-64.5852 414,-74.2408 419.07,-69.4137"/>
<text text-anchor="middle" x="589" y="-470" font-family="FreeSans" font-size="10.00"> position_</text>
</g>
<!-- Node24 -->
<g id="node63" class="node"><title>Node24</title>
<a xlink:title="Temporary data for finding a path.">
<polygon fill="none" stroke="#bfbfbf" points="900,-0.5 900,-21.5 1022,-21.5 1022,-0.5 900,-0.5"/>
<text text-anchor="middle" x="961" y="-8.5" font-family="FreeSans" font-size="10.00">Urho3D::FindPathData</text>
</a>
</g>
<!-- Node19&#45;&gt;Node24 -->
<g id="edge82" class="edge"><title>Node19&#45;&gt;Node24</title>
<path fill="none" stroke="#9a32cd" stroke-dasharray="5,2" d="M448.412,-41.1541C469.677,-36.1605 494.91,-30.9419 518,-28 653.52,-10.7329 814.083,-9.23768 899.81,-9.94432"/>
<polygon fill="#9a32cd" stroke="#9a32cd" points="447.54,-37.764 438.632,-43.4997 449.172,-44.571 447.54,-37.764"/>
<text text-anchor="middle" x="589" y="-32" font-family="FreeSans" font-size="10.00"> pathPoints_</text>
</g>
<!-- Node25 -->
<g id="node66" class="node"><title>Node25</title>
<a xlink:href="class_urho3_d_1_1_bounding_box.html" target="_top" xlink:title="Three&#45;dimensional axis&#45;aligned bounding box.">
<polygon fill="none" stroke="black" points="1144,-90.5 1144,-111.5 1266,-111.5 1266,-90.5 1144,-90.5"/>
<text text-anchor="middle" x="1205" y="-98.5" font-family="FreeSans" font-size="10.00">Urho3D::BoundingBox</text>
</a>
</g>
<!-- Node19&#45;&gt;Node25 -->
<g id="edge86" class="edge"><title>Node19&#45;&gt;Node25</title>
<path fill="none" stroke="#9a32cd" stroke-dasharray="5,2" d="M457.395,-62.2925C476.659,-64.7789 498.216,-67.295 518,-69 748.483,-88.863 1023.6,-96.9896 1143.78,-99.7673"/>
<polygon fill="#9a32cd" stroke="#9a32cd" points="457.625,-58.7927 447.254,-60.9596 456.713,-65.733 457.625,-58.7927"/>
<text text-anchor="middle" x="780" y="-108" font-family="FreeSans" font-size="10.00"> max_</text>
<text text-anchor="middle" x="780" y="-95" font-family="FreeSans" font-size="10.00">min_</text>
</g>
<!-- Node20 -->
<g id="node46" class="node"><title>Node20</title>
<a xlink:href="class_urho3_d_1_1_string_hash.html" target="_top" xlink:title="32&#45;bit hash value for a string.">
<polygon fill="none" stroke="black" points="723.5,-250.5 723.5,-271.5 836.5,-271.5 836.5,-250.5 723.5,-250.5"/>
<text text-anchor="middle" x="780" y="-258.5" font-family="FreeSans" font-size="10.00">Urho3D::StringHash</text>
</a>
</g>
<!-- Node20&#45;&gt;Node10 -->
<g id="edge54" class="edge"><title>Node20&#45;&gt;Node10</title>
<path fill="none" stroke="#9a32cd" stroke-dasharray="5,2" d="M846.937,-268.33C909.491,-276.492 996.903,-291.689 1022,-315 1051.12,-342.051 1074.7,-468.383 1081.21,-506.247"/>
<polygon fill="#9a32cd" stroke="#9a32cd" points="847.098,-264.822 836.736,-267.032 846.214,-271.766 847.098,-264.822"/>
<text text-anchor="middle" x="961" y="-319" font-family="FreeSans" font-size="10.00"> nameHash_</text>
</g>
<!-- Node20&#45;&gt;Node20 -->
<g id="edge56" class="edge"><title>Node20&#45;&gt;Node20</title>
<path fill="none" stroke="#9a32cd" stroke-dasharray="5,2" d="M746.508,-280.679C748.302,-285.975 759.467,-290 780,-290 811.289,-290 820.822,-280.653 808.6,-271.708"/>
<polygon fill="#9a32cd" stroke="#9a32cd" points="749.685,-282.163 751.4,-271.708 743.539,-278.812 749.685,-282.163"/>
<text text-anchor="middle" x="780" y="-294" font-family="FreeSans" font-size="10.00"> ZERO</text>
</g>
<!-- Node21 -->
<g id="node49" class="node"><title>Node21</title>
<a xlink:href="class_urho3_d_1_1_vector.html" target="_top" xlink:title="Urho3D::Vector\&lt; Urho3D\l::SharedPtr\&lt; Urho3D::Node \&gt; \&gt;">
<polygon fill="none" stroke="red" points="693.5,-761 693.5,-795 866.5,-795 866.5,-761 693.5,-761"/>
<text text-anchor="start" x="701.5" y="-782" font-family="FreeSans" font-size="10.00">Urho3D::Vector&lt; Urho3D</text>
<text text-anchor="middle" x="780" y="-769" font-family="FreeSans" font-size="10.00">::SharedPtr&lt; Urho3D::Node &gt; &gt;</text>
</a>
</g>
<!-- Node21&#45;&gt;Node10 -->
<g id="edge58" class="edge"><title>Node21&#45;&gt;Node10</title>
<path fill="none" stroke="#9a32cd" stroke-dasharray="5,2" d="M876.679,-787.991C925.705,-787.731 982.969,-778.505 1022,-744 1055.55,-714.336 1076.41,-568.657 1081.68,-527.719"/>
<polygon fill="#9a32cd" stroke="#9a32cd" points="876.696,-784.491 866.672,-787.922 876.647,-791.491 876.696,-784.491"/>
<text text-anchor="middle" x="961" y="-791" font-family="FreeSans" font-size="10.00"> children_</text>
</g>
<!-- Node22&#45;&gt;Node10 -->
<g id="edge60" class="edge"><title>Node22&#45;&gt;Node10</title>
<path fill="none" stroke="#9a32cd" stroke-dasharray="5,2" d="M846.609,-542.746C905.605,-536.32 989.96,-527.133 1040.33,-521.647"/>
<polygon fill="#9a32cd" stroke="#9a32cd" points="846.199,-539.269 836.637,-543.832 846.957,-546.228 846.199,-539.269"/>
<text text-anchor="middle" x="961" y="-540" font-family="FreeSans" font-size="10.00"> owner_</text>
</g>
<!-- Node23 -->
<g id="node59" class="node"><title>Node23</title>
<a xlink:href="class_urho3_d_1_1_matrix3x4.html" target="_top" xlink:title="3x4 matrix for scene node transform calculations.">
<polygon fill="none" stroke="black" points="727,-628.5 727,-649.5 833,-649.5 833,-628.5 727,-628.5"/>
<text text-anchor="middle" x="780" y="-636.5" font-family="FreeSans" font-size="10.00">Urho3D::Matrix3x4</text>
</a>
</g>
<!-- Node23&#45;&gt;Node10 -->
<g id="edge74" class="edge"><title>Node23&#45;&gt;Node10</title>
<path fill="none" stroke="#9a32cd" stroke-dasharray="5,2" d="M843.358,-645.82C895.191,-648.256 968.424,-644.231 1022,-611 1053.91,-591.209 1072.38,-547.832 1079.53,-527.681"/>
<polygon fill="#9a32cd" stroke="#9a32cd" points="843.469,-642.321 833.288,-645.253 843.076,-649.31 843.469,-642.321"/>
<text text-anchor="middle" x="961" y="-649" font-family="FreeSans" font-size="10.00"> worldTransform_</text>
</g>
<!-- Node23&#45;&gt;Node23 -->
<g id="edge76" class="edge"><title>Node23&#45;&gt;Node23</title>
<path fill="none" stroke="#9a32cd" stroke-dasharray="5,2" d="M746.508,-658.679C748.302,-663.975 759.467,-668 780,-668 811.289,-668 820.822,-658.653 808.6,-649.708"/>
<polygon fill="#9a32cd" stroke="#9a32cd" points="749.685,-660.163 751.4,-649.708 743.539,-656.812 749.685,-660.163"/>
<text text-anchor="middle" x="780" y="-685" font-family="FreeSans" font-size="10.00"> IDENTITY</text>
<text text-anchor="middle" x="780" y="-672" font-family="FreeSans" font-size="10.00">ZERO</text>
</g>
<!-- Node24&#45;&gt;Node1 -->
<g id="edge80" class="edge"><title>Node24&#45;&gt;Node1</title>
<path fill="none" stroke="#9a32cd" stroke-dasharray="5,2" d="M1032.45,-7.83107C1123.78,-5.55185 1286.11,-7.48704 1420,-41 1443.81,-46.9592 1469.45,-58.7613 1486.48,-67.4402"/>
<polygon fill="#9a32cd" stroke="#9a32cd" points="1032.12,-4.33891 1022.21,-8.1118 1032.31,-11.3363 1032.12,-4.33891"/>
<text text-anchor="middle" x="1205" y="-20" font-family="FreeSans" font-size="10.00"> pathData_</text>
</g>
<!-- Node25&#45;&gt;Node1 -->
<g id="edge84" class="edge"><title>Node25&#45;&gt;Node1</title>
<path fill="none" stroke="#9a32cd" stroke-dasharray="5,2" d="M1276.46,-95.5393C1325.38,-91.8019 1389.84,-86.8764 1437.99,-83.1967"/>
<polygon fill="#9a32cd" stroke="#9a32cd" points="1275.98,-92.0661 1266.27,-96.3179 1276.51,-99.0457 1275.98,-92.0661"/>
<text text-anchor="middle" x="1342" y="-99" font-family="FreeSans" font-size="10.00"> boundingBox_</text>
</g>
</g>
</svg>
        <g id="navigator" transform="translate(0 0)" fill="#404254">
                <rect fill="#f2f5e9" fill-opacity="0.5" stroke="#606060" stroke-width=".5" x="0" y="0" width="60" height="60"/>
                <use id="zoomplus" xlink:href="#zoomPlus" x="17" y="9" onmousedown="handleZoom(evt,'in')"/>
                <use id="zoomminus" xlink:href="#zoomMin" x="42" y="9" onmousedown="handleZoom(evt,'out')"/>
                <use id="reset" xlink:href="#resetDef" x="30" y="36" onmousedown="handleReset()"/>
                <g id="arrowUp" xlink:href="#dirArrow" transform="translate(30 24)" onmousedown="handlePan(0,-1)">
                  <use xlink:href="#rim" fill="#404040">
                        <set attributeName="fill" to="#808080" begin="arrowUp.mouseover" end="arrowUp.mouseout"/>
                  </use>
                  <path fill="none" stroke="white" stroke-width="1.5" d="M0,-3.0v7 M-2.5,-0.5L0,-3.0L2.5,-0.5"/>
                </g>
                <g id="arrowRight" xlink:href="#dirArrow" transform="rotate(90) translate(36 -43)" onmousedown="handlePan(1,0)">
                  <use xlink:href="#rim" fill="#404040">
                        <set attributeName="fill" to="#808080" begin="arrowRight.mouseover" end="arrowRight.mouseout"/>
                  </use>
                  <path fill="none" stroke="white" stroke-width="1.5" d="M0,-3.0v7 M-2.5,-0.5L0,-3.0L2.5,-0.5"/>
                </g>
                <g id="arrowDown" xlink:href="#dirArrow" transform="rotate(180) translate(-30 -48)" onmousedown="handlePan(0,1)">
                  <use xlink:href="#rim" fill="#404040">
                        <set attributeName="fill" to="#808080" begin="arrowDown.mouseover" end="arrowDown.mouseout"/>
                  </use>
                  <path fill="none" stroke="white" stroke-width="1.5" d="M0,-3.0v7 M-2.5,-0.5L0,-3.0L2.5,-0.5"/>
                </g>
                <g id="arrowLeft" xlink:href="#dirArrow" transform="rotate(270) translate(-36 17)" onmousedown="handlePan(-1,0)">
                  <use xlink:href="#rim" fill="#404040">
                        <set attributeName="fill" to="#808080" begin="arrowLeft.mouseover" end="arrowLeft.mouseout"/>
                  </use>
                  <path fill="none" stroke="white" stroke-width="1.5" d="M0,-3.0v7 M-2.5,-0.5L0,-3.0L2.5,-0.5"/>
                </g>
        </g>
        <svg viewBox="0 0 15 15" width="100%" height="30px" preserveAspectRatio="xMaxYMin meet">
         <g id="arrow_out" transform="scale(0.3 0.3)">
          <a xlink:href="class_urho3_d_1_1_navigation_mesh__coll__graph_org.svg" target="_base">
           <rect id="button" ry="5" rx="5" y="6" x="6" height="38" width="38"
                fill="#f2f5e9" fill-opacity="0.5" stroke="#606060" stroke-width="1.0"/>
           <path id="arrow"
             d="M 11.500037,31.436501 C 11.940474,20.09759 22.043105,11.32322 32.158766,21.979434 L 37.068811,17.246167 C 37.068811,17.246167 37.088388,32 37.088388,32 L 22.160133,31.978069 C 22.160133,31.978069 26.997745,27.140456 26.997745,27.140456 C 18.528582,18.264221 13.291696,25.230495 11.500037,31.436501 z"
             style="fill:#404040;"/>
          </a>
         </g>
        </svg>
</svg>
