<?xml version="1.0" encoding="UTF-8" standalone="no"?>
<!DOCTYPE svg PUBLIC "-//W3C//DTD SVG 1.1//EN"
 "http://www.w3.org/Graphics/SVG/1.1/DTD/svg11.dtd">
<!-- Generated by graphviz version 2.26.3 (20100126.1600)
 -->
<!-- Title: Urho3D::ListBase Pages: 1 -->
<svg width="340pt" height="398pt"
 viewBox="0.00 0.00 340.00 398.00" xmlns="http://www.w3.org/2000/svg" xmlns:xlink="http://www.w3.org/1999/xlink">
<g id="graph1" class="graph" transform="scale(1 1) rotate(0) translate(4 394)">
<title>Urho3D::ListBase</title>
<!-- Node1 -->
<g id="node1" class="node"><title>Node1</title>
<polygon fill="#bfbfbf" stroke="black" points="0,-190.5 0,-211.5 100,-211.5 100,-190.5 0,-190.5"/>
<text text-anchor="middle" x="50" y="-198.5" font-family="FreeSans" font-size="10.00">Urho3D::ListBase</text>
</g>
<!-- Node2 -->
<g id="node3" class="node"><title>Node2</title>
<a xlink:href="class_urho3_d_1_1_list.html" target="_top" xlink:title="Urho3D::List\&lt; AsyncExecRequest * \&gt;">
<polygon fill="none" stroke="black" points="136,-368.5 136,-389.5 332,-389.5 332,-368.5 136,-368.5"/>
<text text-anchor="middle" x="234" y="-376.5" font-family="FreeSans" font-size="10.00">Urho3D::List&lt; AsyncExecRequest * &gt;</text>
</a>
</g>
<!-- Node1&#45;&gt;Node2 -->
<g id="edge2" class="edge"><title>Node1&#45;&gt;Node2</title>
<path fill="none" stroke="midnightblue" d="M55.0359,-221.302C64.6226,-255.47 88.8734,-324.144 136,-359 141.026,-362.717 146.576,-365.785 152.404,-368.311"/>
<polygon fill="midnightblue" stroke="midnightblue" points="58.3832,-220.27 52.4282,-211.507 51.6189,-222.071 58.3832,-220.27"/>
</g>
<!-- Node3 -->
<g id="node5" class="node"><title>Node3</title>
<a xlink:href="class_urho3_d_1_1_list.html" target="_top" xlink:title="Urho3D::List\&lt; int \&gt;">
<polygon fill="none" stroke="black" points="179,-328.5 179,-349.5 289,-349.5 289,-328.5 179,-328.5"/>
<text text-anchor="middle" x="234" y="-336.5" font-family="FreeSans" font-size="10.00">Urho3D::List&lt; int &gt;</text>
</a>
</g>
<!-- Node1&#45;&gt;Node3 -->
<g id="edge4" class="edge"><title>Node1&#45;&gt;Node3</title>
<path fill="none" stroke="midnightblue" d="M58.656,-220.69C71.4878,-247.437 98.1796,-294.697 136,-319 148.709,-327.167 164.099,-332.093 178.879,-335.037"/>
<polygon fill="midnightblue" stroke="midnightblue" points="61.7962,-219.142 54.4224,-211.535 55.4425,-222.08 61.7962,-219.142"/>
</g>
<!-- Node4 -->
<g id="node7" class="node"><title>Node4</title>
<a xlink:href="class_urho3_d_1_1_list.html" target="_top" xlink:title="Urho3D::List\&lt; Urho3D\l::Decal \&gt;">
<polygon fill="none" stroke="black" points="172,-276 172,-310 296,-310 296,-276 172,-276"/>
<text text-anchor="start" x="180" y="-297" font-family="FreeSans" font-size="10.00">Urho3D::List&lt; Urho3D</text>
<text text-anchor="middle" x="234" y="-284" font-family="FreeSans" font-size="10.00">::Decal &gt;</text>
</a>
</g>
<!-- Node1&#45;&gt;Node4 -->
<g id="edge6" class="edge"><title>Node1&#45;&gt;Node4</title>
<path fill="none" stroke="midnightblue" d="M68.4747,-218.702C84.9645,-233.593 110.399,-254.413 136,-267 147.137,-272.475 159.572,-276.907 171.745,-280.454"/>
<polygon fill="midnightblue" stroke="midnightblue" points="70.4334,-215.747 60.7134,-211.531 65.6828,-220.888 70.4334,-215.747"/>
</g>
<!-- Node5 -->
<g id="node9" class="node"><title>Node5</title>
<a xlink:href="class_urho3_d_1_1_list.html" target="_top" xlink:title="Urho3D::List\&lt; Urho3D\l::Pair\&lt; Urho3D::SharedArray\lPtr\&lt; signed char \&gt;, unsigned \&gt; \&gt;">
<polygon fill="none" stroke="black" points="144,-210.5 144,-257.5 324,-257.5 324,-210.5 144,-210.5"/>
<text text-anchor="start" x="152" y="-244.5" font-family="FreeSans" font-size="10.00">Urho3D::List&lt; Urho3D</text>
<text text-anchor="start" x="152" y="-231.5" font-family="FreeSans" font-size="10.00">::Pair&lt; Urho3D::SharedArray</text>
<text text-anchor="middle" x="234" y="-218.5" font-family="FreeSans" font-size="10.00">Ptr&lt; signed char &gt;, unsigned &gt; &gt;</text>
</a>
</g>
<!-- Node1&#45;&gt;Node5 -->
<g id="edge8" class="edge"><title>Node1&#45;&gt;Node5</title>
<path fill="none" stroke="midnightblue" d="M110.343,-211.822C121.072,-213.747 132.455,-215.788 143.802,-217.823"/>
<polygon fill="midnightblue" stroke="midnightblue" points="110.74,-208.338 100.279,-210.017 109.504,-215.228 110.74,-208.338"/>
</g>
<!-- Node6 -->
<g id="node11" class="node"><title>Node6</title>
<a xlink:href="class_urho3_d_1_1_list.html" target="_top" xlink:title="Urho3D::List\&lt; Urho3D\l::SharedPtr\&lt; Urho3D::\lWorkItem \&gt; \&gt;">
<polygon fill="none" stroke="black" points="171.5,-144.5 171.5,-191.5 296.5,-191.5 296.5,-144.5 171.5,-144.5"/>
<text text-anchor="start" x="179.5" y="-178.5" font-family="FreeSans" font-size="10.00">Urho3D::List&lt; Urho3D</text>
<text text-anchor="start" x="179.5" y="-165.5" font-family="FreeSans" font-size="10.00">::SharedPtr&lt; Urho3D::</text>
<text text-anchor="middle" x="234" y="-152.5" font-family="FreeSans" font-size="10.00">WorkItem &gt; &gt;</text>
</a>
</g>
<!-- Node1&#45;&gt;Node6 -->
<g id="edge10" class="edge"><title>Node1&#45;&gt;Node6</title>
<path fill="none" stroke="midnightblue" d="M110.283,-190.188C129.835,-186.682 151.564,-182.785 171.289,-179.247"/>
<polygon fill="midnightblue" stroke="midnightblue" points="109.504,-186.772 100.279,-191.983 110.74,-193.662 109.504,-186.772"/>
</g>
<!-- Node7 -->
<g id="node13" class="node"><title>Node7</title>
<a xlink:href="class_urho3_d_1_1_list.html" target="_top" xlink:title="Urho3D::List\&lt; Urho3D\l::StoredLogMessage \&gt;">
<polygon fill="none" stroke="black" points="171,-92 171,-126 297,-126 297,-92 171,-92"/>
<text text-anchor="start" x="179" y="-113" font-family="FreeSans" font-size="10.00">Urho3D::List&lt; Urho3D</text>
<text text-anchor="middle" x="234" y="-100" font-family="FreeSans" font-size="10.00">::StoredLogMessage &gt;</text>
</a>
</g>
<!-- Node1&#45;&gt;Node7 -->
<g id="edge12" class="edge"><title>Node1&#45;&gt;Node7</title>
<path fill="none" stroke="midnightblue" d="M68.4747,-183.298C84.9645,-168.407 110.399,-147.587 136,-135 146.9,-129.641 159.043,-125.282 170.968,-121.774"/>
<polygon fill="midnightblue" stroke="midnightblue" points="65.6828,-181.112 60.7134,-190.469 70.4334,-186.253 65.6828,-181.112"/>
</g>
<!-- Node8 -->
<g id="node15" class="node"><title>Node8</title>
<a xlink:href="class_urho3_d_1_1_list.html" target="_top" xlink:title="Urho3D::List\&lt; Urho3D\l::WorkItem * \&gt;">
<polygon fill="none" stroke="black" points="172,-40 172,-74 296,-74 296,-40 172,-40"/>
<text text-anchor="start" x="180" y="-61" font-family="FreeSans" font-size="10.00">Urho3D::List&lt; Urho3D</text>
<text text-anchor="middle" x="234" y="-48" font-family="FreeSans" font-size="10.00">::WorkItem * &gt;</text>
</a>
</g>
<!-- Node1&#45;&gt;Node8 -->
<g id="edge14" class="edge"><title>Node1&#45;&gt;Node8</title>
<path fill="none" stroke="midnightblue" d="M59.0572,-181.22C72.2007,-154.763 99.0859,-108.263 136,-83 146.677,-75.693 159.301,-70.4386 171.875,-66.6605"/>
<polygon fill="midnightblue" stroke="midnightblue" points="55.8743,-179.763 54.7004,-190.293 62.1844,-182.793 55.8743,-179.763"/>
</g>
<!-- Node9 -->
<g id="node17" class="node"><title>Node9</title>
<a xlink:href="class_urho3_d_1_1_list.html" target="_top" xlink:title="Doubly&#45;linked list template class.">
<polygon fill="none" stroke="black" points="182,-0.5 182,-21.5 286,-21.5 286,-0.5 182,-0.5"/>
<text text-anchor="middle" x="234" y="-8.5" font-family="FreeSans" font-size="10.00">Urho3D::List&lt; T &gt;</text>
</a>
</g>
<!-- Node1&#45;&gt;Node9 -->
<g id="edge16" class="edge"><title>Node1&#45;&gt;Node9</title>
<path fill="none" stroke="midnightblue" d="M54.321,-180.19C63.0136,-143.833 86.1992,-69.0072 136,-31 149.045,-21.0446 165.813,-15.7137 181.778,-12.9498"/>
<polygon fill="midnightblue" stroke="midnightblue" points="50.8595,-179.63 52.0751,-190.154 57.6882,-181.169 50.8595,-179.63"/>
</g>
</g>
</svg>
