<?xml version="1.0" encoding="UTF-8" standalone="no"?>
<!DOCTYPE svg PUBLIC "-//W3C//DTD SVG 1.1//EN"
 "http://www.w3.org/Graphics/SVG/1.1/DTD/svg11.dtd">
<!-- Generated by graphviz version 2.26.3 (20100126.1600)
 -->
<!-- Title: Urho3D::ScratchBuffer Pages: 1 -->
<svg width="140pt" height="188pt"
 viewBox="0.00 0.00 140.00 188.00" xmlns="http://www.w3.org/2000/svg" xmlns:xlink="http://www.w3.org/1999/xlink">
<g id="graph1" class="graph" transform="scale(1 1) rotate(0) translate(4 184)">
<title>Urho3D::ScratchBuffer</title>
<!-- Node1 -->
<g id="node1" class="node"><title>Node1</title>
<polygon fill="#bfbfbf" stroke="black" points="3.5,-0.5 3.5,-21.5 128.5,-21.5 128.5,-0.5 3.5,-0.5"/>
<text text-anchor="middle" x="66" y="-8.5" font-family="FreeSans" font-size="10.00">Urho3D::ScratchBuffer</text>
</g>
<!-- Node2 -->
<g id="node2" class="node"><title>Node2</title>
<a xlink:href="class_urho3_d_1_1_shared_array_ptr.html" target="_top" xlink:title="Urho3D::SharedArrayPtr\l\&lt; unsigned char \&gt;">
<polygon fill="none" stroke="black" points="-0.5,-73 -0.5,-107 132.5,-107 132.5,-73 -0.5,-73"/>
<text text-anchor="start" x="7.5" y="-94" font-family="FreeSans" font-size="10.00">Urho3D::SharedArrayPtr</text>
<text text-anchor="middle" x="66" y="-81" font-family="FreeSans" font-size="10.00">&lt; unsigned char &gt;</text>
</a>
</g>
<!-- Node2&#45;&gt;Node1 -->
<g id="edge2" class="edge"><title>Node2&#45;&gt;Node1</title>
<path fill="none" stroke="#9a32cd" stroke-dasharray="5,2" d="M66,-62.6228C66,-48.4727 66,-32.0243 66,-21.5672"/>
<polygon fill="#9a32cd" stroke="#9a32cd" points="62.5001,-62.8581 66,-72.8582 69.5001,-62.8582 62.5001,-62.8581"/>
<text text-anchor="middle" x="81.5" y="-44.5" font-family="FreeSans" font-size="10.00"> data_</text>
</g>
<!-- Node3 -->
<g id="node4" class="node"><title>Node3</title>
<a xlink:href="struct_urho3_d_1_1_ref_count.html" target="_top" xlink:title="Reference count structure.">
<polygon fill="none" stroke="black" points="15,-158.5 15,-179.5 117,-179.5 117,-158.5 15,-158.5"/>
<text text-anchor="middle" x="66" y="-166.5" font-family="FreeSans" font-size="10.00">Urho3D::RefCount</text>
</a>
</g>
<!-- Node3&#45;&gt;Node2 -->
<g id="edge4" class="edge"><title>Node3&#45;&gt;Node2</title>
<path fill="none" stroke="#9a32cd" stroke-dasharray="5,2" d="M66,-148.162C66,-135.363 66,-119.171 66,-107.124"/>
<polygon fill="#9a32cd" stroke="#9a32cd" points="62.5001,-148.346 66,-158.346 69.5001,-148.346 62.5001,-148.346"/>
<text text-anchor="middle" x="91" y="-130.5" font-family="FreeSans" font-size="10.00"> refCount_</text>
</g>
</g>
</svg>
