<?xml version="1.0" encoding="UTF-8" standalone="no"?>
<!DOCTYPE svg PUBLIC "-//W3C//DTD SVG 1.1//EN"
 "http://www.w3.org/Graphics/SVG/1.1/DTD/svg11.dtd">
<!-- Generated by graphviz version 2.26.3 (20100126.1600)
 -->
<!-- Title: rapidjson::UTF32&lt; CharType &gt; Pages: 1 -->
<svg width="240pt" height="160pt"
 viewBox="0.00 0.00 240.00 160.00" xmlns="http://www.w3.org/2000/svg" xmlns:xlink="http://www.w3.org/1999/xlink">
<g id="graph1" class="graph" transform="scale(1 1) rotate(0) translate(4 156)">
<title>rapidjson::UTF32&lt; CharType &gt;</title>
<!-- Node1 -->
<g id="node1" class="node"><title>Node1</title>
<polygon fill="#bfbfbf" stroke="black" points="35,-72.5 35,-93.5 197,-93.5 197,-72.5 35,-72.5"/>
<text text-anchor="middle" x="116" y="-80.5" font-family="FreeSans" font-size="10.00">rapidjson::UTF32&lt; CharType &gt;</text>
</g>
<!-- Node3 -->
<g id="node5" class="node"><title>Node3</title>
<a xlink:href="structrapidjson_1_1_u_t_f32_b_e.html" target="_top" xlink:title="UTF&#45;32 big endian encoding.">
<polygon fill="none" stroke="black" points="-0.5,-1 -0.5,-35 108.5,-35 108.5,-1 -0.5,-1"/>
<text text-anchor="start" x="7.5" y="-22" font-family="FreeSans" font-size="10.00">rapidjson::UTF32BE</text>
<text text-anchor="middle" x="54" y="-9" font-family="FreeSans" font-size="10.00">&lt; CharType &gt;</text>
</a>
</g>
<!-- Node1&#45;&gt;Node3 -->
<g id="edge4" class="edge"><title>Node1&#45;&gt;Node3</title>
<path fill="none" stroke="midnightblue" d="M98.8186,-64.9873C89.9139,-55.6517 79.0965,-44.3109 70.3202,-35.1099"/>
<polygon fill="midnightblue" stroke="midnightblue" points="96.3272,-67.4462 105.762,-72.2666 101.392,-62.6147 96.3272,-67.4462"/>
</g>
<!-- Node4 -->
<g id="node7" class="node"><title>Node4</title>
<a xlink:href="structrapidjson_1_1_u_t_f32_l_e.html" target="_top" xlink:title="UTF&#45;32 little endian enocoding.">
<polygon fill="none" stroke="black" points="125.5,-1 125.5,-35 232.5,-35 232.5,-1 125.5,-1"/>
<text text-anchor="start" x="133.5" y="-22" font-family="FreeSans" font-size="10.00">rapidjson::UTF32LE</text>
<text text-anchor="middle" x="179" y="-9" font-family="FreeSans" font-size="10.00">&lt; CharType &gt;</text>
</a>
</g>
<!-- Node1&#45;&gt;Node4 -->
<g id="edge6" class="edge"><title>Node1&#45;&gt;Node4</title>
<path fill="none" stroke="midnightblue" d="M133.458,-64.9873C142.507,-55.6517 153.499,-44.3109 162.417,-35.1099"/>
<polygon fill="midnightblue" stroke="midnightblue" points="130.85,-62.65 126.403,-72.2666 135.876,-67.5218 130.85,-62.65"/>
</g>
<!-- Node2 -->
<g id="node2" class="node"><title>Node2</title>
<a xlink:href="classrapidjson_1_1_encoding.html" target="_top" xlink:title="Concept for encoding of Unicode characters.">
<polygon fill="none" stroke="black" points="61,-130.5 61,-151.5 171,-151.5 171,-130.5 61,-130.5"/>
<text text-anchor="middle" x="116" y="-138.5" font-family="FreeSans" font-size="10.00">rapidjson::Encoding</text>
</a>
</g>
<!-- Node2&#45;&gt;Node1 -->
<g id="edge2" class="edge"><title>Node2&#45;&gt;Node1</title>
<path fill="none" stroke="midnightblue" d="M116,-120.191C116,-111.168 116,-100.994 116,-93.5707"/>
<polygon fill="midnightblue" stroke="midnightblue" points="112.5,-120.362 116,-130.362 119.5,-120.362 112.5,-120.362"/>
</g>
</g>
</svg>
