<?xml version="1.0" encoding="UTF-8" standalone="no"?>
<!DOCTYPE svg PUBLIC "-//W3C//DTD SVG 1.1//EN"
 "http://www.w3.org/Graphics/SVG/1.1/DTD/svg11.dtd">
<!-- Generated by graphviz version 2.26.3 (20100126.1600)
 -->
<!-- Title: Urho3D::Window Pages: 1 -->
<!--zoomable 892 -->
<svg id="main" version="1.1" xmlns="http://www.w3.org/2000/svg" xmlns:xlink="http://www.w3.org/1999/xlink" xml:space="preserve" onload="init(evt)">
        <defs>
                <circle id="rim" cx="0" cy="0" r="7"/>
                <circle id="rim2" cx="0" cy="0" r="3.5"/>
                <g id="zoomPlus">
                        <use xlink:href="#rim" fill="#404040">
                                <set attributeName="fill" to="#808080" begin="zoomplus.mouseover" end="zoomplus.mouseout"/>
                        </use>
                        <path d="M-4,0h8M0,-4v8" fill="none" stroke="white" stroke-width="1.5" pointer-events="none"/>
                </g>
                <g id="zoomMin">
                        <use xlink:href="#rim" fill="#404040">
                                <set attributeName="fill" to="#808080" begin="zoomminus.mouseover" end="zoomminus.mouseout"/>
                        </use>
                        <path d="M-4,0h8" fill="none" stroke="white" stroke-width="1.5" pointer-events="none"/>
                </g>
                <g id="dirArrow">
                        <path fill="none" stroke="white" stroke-width="1.5" d="M0,-3.0v7 M-2.5,-0.5L0,-3.0L2.5,-0.5"/>
                </g>
               <g id="resetDef">
                       <use xlink:href="#rim2" fill="#404040">
                               <set attributeName="fill" to="#808080" begin="reset.mouseover" end="reset.mouseout"/>
                       </use>
               </g>
        </defs>

<script type="text/javascript">
var viewWidth = 1662;
var viewHeight = 892;
var sectionId = 'dynsection-1';
</script>
<script xlink:href="svgpan.js"/>
<svg id="graph" class="graph">
<g id="viewport">
<title>Urho3D::Window</title>
<!-- Node1 -->
<g id="node1" class="node"><title>Node1</title>
<polygon fill="#bfbfbf" stroke="black" points="1558.5,-80.5 1558.5,-101.5 1653.5,-101.5 1653.5,-80.5 1558.5,-80.5"/>
<text text-anchor="middle" x="1606" y="-88.5" font-family="FreeSans" font-size="10.00">Urho3D::Window</text>
</g>
<!-- Node2 -->
<g id="node2" class="node"><title>Node2</title>
<a xlink:href="class_urho3_d_1_1_border_image.html" target="_top" xlink:title="Image UI element with optional border.">
<polygon fill="none" stroke="black" points="1398,-216.5 1398,-237.5 1520,-237.5 1520,-216.5 1398,-216.5"/>
<text text-anchor="middle" x="1459" y="-224.5" font-family="FreeSans" font-size="10.00">Urho3D::BorderImage</text>
</a>
</g>
<!-- Node2&#45;&gt;Node1 -->
<g id="edge2" class="edge"><title>Node2&#45;&gt;Node1</title>
<path fill="none" stroke="midnightblue" d="M1478.09,-209.337C1509.07,-180.679 1569.34,-124.914 1594.52,-101.622"/>
<polygon fill="midnightblue" stroke="midnightblue" points="1475.5,-206.968 1470.53,-216.328 1480.25,-212.106 1475.5,-206.968"/>
</g>
<!-- Node3 -->
<g id="node4" class="node"><title>Node3</title>
<a xlink:href="class_urho3_d_1_1_u_i_element.html" target="_top" xlink:title="Base class for UI elements.">
<polygon fill="none" stroke="black" points="1153.5,-514.5 1153.5,-535.5 1262.5,-535.5 1262.5,-514.5 1153.5,-514.5"/>
<text text-anchor="middle" x="1208" y="-522.5" font-family="FreeSans" font-size="10.00">Urho3D::UIElement</text>
</a>
</g>
<!-- Node3&#45;&gt;Node2 -->
<g id="edge4" class="edge"><title>Node3&#45;&gt;Node2</title>
<path fill="none" stroke="midnightblue" d="M1223.44,-506.669C1270.72,-450.534 1412.57,-282.121 1449.91,-237.79"/>
<polygon fill="midnightblue" stroke="midnightblue" points="1220.7,-504.491 1216.93,-514.394 1226.05,-509 1220.7,-504.491"/>
</g>
<!-- Node3&#45;&gt;Node3 -->
<g id="edge38" class="edge"><title>Node3&#45;&gt;Node3</title>
<path fill="none" stroke="#9a32cd" stroke-dasharray="5,2" d="M1186.25,-545.427C1187.93,-550.349 1195.18,-554 1208,-554 1228.51,-554 1234.76,-544.653 1226.75,-535.708"/>
<polygon fill="#9a32cd" stroke="#9a32cd" points="1189.65,-546.295 1189.25,-535.708 1182.96,-544.232 1189.65,-546.295"/>
<text text-anchor="middle" x="1208" y="-558" font-family="FreeSans" font-size="10.00"> parent_</text>
</g>
<!-- Node4 -->
<g id="node6" class="node"><title>Node4</title>
<a xlink:href="class_urho3_d_1_1_animatable.html" target="_top" xlink:title="Base class for animatable object, an animatable object can be set animation on it&#39;s attributes...">
<polygon fill="none" stroke="black" points="874,-831.5 874,-852.5 988,-852.5 988,-831.5 874,-831.5"/>
<text text-anchor="middle" x="931" y="-839.5" font-family="FreeSans" font-size="10.00">Urho3D::Animatable</text>
</a>
</g>
<!-- Node4&#45;&gt;Node3 -->
<g id="edge6" class="edge"><title>Node4&#45;&gt;Node3</title>
<path fill="none" stroke="midnightblue" d="M998.365,-836.18C1042.8,-828.698 1098.75,-811.671 1132,-773 1195.56,-699.074 1205.97,-572.814 1207.67,-535.611"/>
<polygon fill="midnightblue" stroke="midnightblue" points="997.549,-832.765 988.206,-837.76 998.625,-839.681 997.549,-832.765"/>
</g>
<!-- Node5 -->
<g id="node8" class="node"><title>Node5</title>
<a xlink:href="class_urho3_d_1_1_serializable.html" target="_top" xlink:title="Base class for objects with automatic serialization through attributes.">
<polygon fill="none" stroke="red" points="290,-848.5 290,-869.5 404,-869.5 404,-848.5 290,-848.5"/>
<text text-anchor="middle" x="347" y="-856.5" font-family="FreeSans" font-size="10.00">Urho3D::Serializable</text>
</a>
</g>
<!-- Node5&#45;&gt;Node4 -->
<g id="edge8" class="edge"><title>Node5&#45;&gt;Node4</title>
<path fill="none" stroke="midnightblue" d="M398.814,-871.529C406.544,-872.968 414.451,-874.204 422,-875 595.405,-893.291 640.768,-878.861 814,-859 833.577,-856.756 854.924,-853.804 873.961,-850.991"/>
<polygon fill="midnightblue" stroke="midnightblue" points="399.288,-868.055 388.797,-869.54 397.924,-874.921 399.288,-868.055"/>
</g>
<!-- Node6 -->
<g id="node10" class="node"><title>Node6</title>
<a xlink:href="class_urho3_d_1_1_object.html" target="_top" xlink:title="Base class for objects with type identification, subsystem access and event sending/receiving capabil...">
<polygon fill="none" stroke="red" points="0,-691.5 0,-712.5 90,-712.5 90,-691.5 0,-691.5"/>
<text text-anchor="middle" x="45" y="-699.5" font-family="FreeSans" font-size="10.00">Urho3D::Object</text>
</a>
</g>
<!-- Node6&#45;&gt;Node5 -->
<g id="edge10" class="edge"><title>Node6&#45;&gt;Node5</title>
<path fill="none" stroke="midnightblue" d="M74.3636,-717.265C135.256,-748.921 273.969,-821.033 326.407,-848.294"/>
<polygon fill="midnightblue" stroke="midnightblue" points="75.7711,-714.052 65.284,-712.545 72.5422,-720.263 75.7711,-714.052"/>
</g>
<!-- Node20 -->
<g id="node45" class="node"><title>Node20</title>
<a xlink:href="class_urho3_d_1_1_resource.html" target="_top" xlink:title="Base class for resources.">
<polygon fill="none" stroke="red" points="166.5,-456.5 166.5,-477.5 269.5,-477.5 269.5,-456.5 166.5,-456.5"/>
<text text-anchor="middle" x="218" y="-464.5" font-family="FreeSans" font-size="10.00">Urho3D::Resource</text>
</a>
</g>
<!-- Node6&#45;&gt;Node20 -->
<g id="edge54" class="edge"><title>Node6&#45;&gt;Node20</title>
<path fill="none" stroke="midnightblue" d="M52.58,-681.881C68.2432,-642.48 107.502,-554.107 164,-498 172.437,-489.621 183.594,-482.719 193.575,-477.572"/>
<polygon fill="midnightblue" stroke="midnightblue" points="49.2327,-680.832 48.8717,-691.421 55.7571,-683.368 49.2327,-680.832"/>
</g>
<!-- Node7 -->
<g id="node12" class="node"><title>Node7</title>
<a xlink:href="class_urho3_d_1_1_hash_map.html" target="_top" xlink:title="Urho3D::HashMap\&lt; Urho3D\l::String, Urho3D::SharedPtr\l\&lt; Urho3D::AttributeAnimationInfo \&gt; \&gt;">
<polygon fill="none" stroke="black" points="422.5,-818.5 422.5,-865.5 623.5,-865.5 623.5,-818.5 422.5,-818.5"/>
<text text-anchor="start" x="430.5" y="-852.5" font-family="FreeSans" font-size="10.00">Urho3D::HashMap&lt; Urho3D</text>
<text text-anchor="start" x="430.5" y="-839.5" font-family="FreeSans" font-size="10.00">::String, Urho3D::SharedPtr</text>
<text text-anchor="middle" x="523" y="-826.5" font-family="FreeSans" font-size="10.00">&lt; Urho3D::AttributeAnimationInfo &gt; &gt;</text>
</a>
</g>
<!-- Node7&#45;&gt;Node4 -->
<g id="edge12" class="edge"><title>Node7&#45;&gt;Node4</title>
<path fill="none" stroke="#9a32cd" stroke-dasharray="5,2" d="M633.901,-842C711.505,-842 811.991,-842 873.946,-842"/>
<polygon fill="#9a32cd" stroke="#9a32cd" points="633.592,-838.5 623.592,-842 633.592,-845.5 633.592,-838.5"/>
<text text-anchor="middle" x="728" y="-846" font-family="FreeSans" font-size="10.00"> attributeAnimationInfos_</text>
</g>
<!-- Node8 -->
<g id="node14" class="node"><title>Node8</title>
<a xlink:href="class_urho3_d_1_1_hash_base.html" target="_top" xlink:title="Hash set/map base class.">
<polygon fill="none" stroke="red" points="164,-720.5 164,-741.5 272,-741.5 272,-720.5 164,-720.5"/>
<text text-anchor="middle" x="218" y="-728.5" font-family="FreeSans" font-size="10.00">Urho3D::HashBase</text>
</a>
</g>
<!-- Node8&#45;&gt;Node7 -->
<g id="edge14" class="edge"><title>Node8&#45;&gt;Node7</title>
<path fill="none" stroke="midnightblue" d="M253.702,-745.265C294.271,-761.331 362.568,-787.943 422,-809 430.868,-812.142 440.211,-815.342 449.488,-818.451"/>
<polygon fill="midnightblue" stroke="midnightblue" points="254.839,-741.951 244.253,-741.515 252.257,-748.457 254.839,-741.951"/>
</g>
<!-- Node10 -->
<g id="node18" class="node"><title>Node10</title>
<a xlink:href="class_urho3_d_1_1_hash_set.html" target="_top" xlink:title="Urho3D::HashSet\&lt; const\l Urho3D::AttributeInfo * \&gt;">
<polygon fill="none" stroke="black" points="452.5,-714 452.5,-748 593.5,-748 593.5,-714 452.5,-714"/>
<text text-anchor="start" x="460.5" y="-735" font-family="FreeSans" font-size="10.00">Urho3D::HashSet&lt; const</text>
<text text-anchor="middle" x="523" y="-722" font-family="FreeSans" font-size="10.00"> Urho3D::AttributeInfo * &gt;</text>
</a>
</g>
<!-- Node8&#45;&gt;Node10 -->
<g id="edge20" class="edge"><title>Node8&#45;&gt;Node10</title>
<path fill="none" stroke="midnightblue" d="M282.188,-731C332.011,-731 401.02,-731 452.398,-731"/>
<polygon fill="midnightblue" stroke="midnightblue" points="282.176,-727.5 272.176,-731 282.176,-734.5 282.176,-727.5"/>
</g>
<!-- Node15 -->
<g id="node31" class="node"><title>Node15</title>
<a xlink:href="class_urho3_d_1_1_hash_map.html" target="_top" xlink:title="Urho3D::HashMap\&lt; StringHash,\l Variant \&gt;">
<polygon fill="none" stroke="black" points="642,-612 642,-646 814,-646 814,-612 642,-612"/>
<text text-anchor="start" x="650" y="-633" font-family="FreeSans" font-size="10.00">Urho3D::HashMap&lt; StringHash,</text>
<text text-anchor="middle" x="728" y="-620" font-family="FreeSans" font-size="10.00"> Variant &gt;</text>
</a>
</g>
<!-- Node8&#45;&gt;Node15 -->
<g id="edge36" class="edge"><title>Node8&#45;&gt;Node15</title>
<path fill="none" stroke="midnightblue" d="M254.33,-716.851C294.673,-701.706 362.03,-678.096 422,-665 495.294,-648.994 580.123,-639.721 641.849,-634.607"/>
<polygon fill="midnightblue" stroke="midnightblue" points="253.033,-713.599 244.921,-720.414 255.512,-720.146 253.033,-713.599"/>
</g>
<!-- Node9 -->
<g id="node16" class="node"><title>Node9</title>
<a xlink:href="class_urho3_d_1_1_shared_ptr.html" target="_top" xlink:title="Urho3D::SharedPtr\&lt;\l Urho3D::ObjectAnimation \&gt;">
<polygon fill="none" stroke="red" points="446.5,-766 446.5,-800 599.5,-800 599.5,-766 446.5,-766"/>
<text text-anchor="start" x="454.5" y="-787" font-family="FreeSans" font-size="10.00">Urho3D::SharedPtr&lt;</text>
<text text-anchor="middle" x="523" y="-774" font-family="FreeSans" font-size="10.00"> Urho3D::ObjectAnimation &gt;</text>
</a>
</g>
<!-- Node9&#45;&gt;Node4 -->
<g id="edge16" class="edge"><title>Node9&#45;&gt;Node4</title>
<path fill="none" stroke="#9a32cd" stroke-dasharray="5,2" d="M609.789,-795.504C667.641,-803.845 745.375,-815.062 814,-825 833.501,-827.824 854.83,-830.921 873.873,-833.688"/>
<polygon fill="#9a32cd" stroke="#9a32cd" points="609.986,-791.997 599.589,-794.034 608.988,-798.925 609.986,-791.997"/>
<text text-anchor="middle" x="728" y="-829" font-family="FreeSans" font-size="10.00"> objectAnimation_</text>
</g>
<!-- Node10&#45;&gt;Node4 -->
<g id="edge18" class="edge"><title>Node10&#45;&gt;Node4</title>
<path fill="none" stroke="#9a32cd" stroke-dasharray="5,2" d="M603.99,-726.66C667.249,-727.428 754.173,-738.113 814,-784 828.828,-795.373 817.281,-810.485 832,-822 843.946,-831.346 859.122,-836.659 873.981,-839.599"/>
<polygon fill="#9a32cd" stroke="#9a32cd" points="603.667,-723.158 593.653,-726.619 603.64,-730.158 603.667,-723.158"/>
<text text-anchor="middle" x="728" y="-788" font-family="FreeSans" font-size="10.00"> animatedNetworkAttributes_</text>
</g>
<!-- Node11 -->
<g id="node21" class="node"><title>Node11</title>
<a xlink:href="class_urho3_d_1_1_int_rect.html" target="_top" xlink:title="Two&#45;dimensional bounding rectangle with integer values.">
<polygon fill="none" stroke="black" points="885,-279.5 885,-300.5 977,-300.5 977,-279.5 885,-279.5"/>
<text text-anchor="middle" x="931" y="-287.5" font-family="FreeSans" font-size="10.00">Urho3D::IntRect</text>
</a>
</g>
<!-- Node11&#45;&gt;Node1 -->
<g id="edge86" class="edge"><title>Node11&#45;&gt;Node1</title>
<path fill="none" stroke="#9a32cd" stroke-dasharray="5,2" d="M987.386,-290.204C1003.12,-287.458 1018.92,-281.595 1030,-270 1066.04,-232.281 1010.35,-190.118 1048,-154 1066.38,-136.368 1426.67,-105.535 1558.34,-94.8079"/>
<polygon fill="#9a32cd" stroke="#9a32cd" points="986.551,-286.785 977.108,-291.588 987.485,-293.722 986.551,-286.785"/>
<text text-anchor="middle" x="1332" y="-124" font-family="FreeSans" font-size="10.00"> resizeBorder_</text>
</g>
<!-- Node11&#45;&gt;Node2 -->
<g id="edge66" class="edge"><title>Node11&#45;&gt;Node2</title>
<path fill="none" stroke="#9a32cd" stroke-dasharray="5,2" d="M987.289,-284.684C1072.45,-276.426 1239.07,-259.428 1380,-240 1385.78,-239.203 1391.8,-238.317 1397.81,-237.394"/>
<polygon fill="#9a32cd" stroke="#9a32cd" points="986.931,-281.202 977.314,-285.647 987.604,-288.17 986.931,-281.202"/>
<text text-anchor="middle" x="1208" y="-298" font-family="FreeSans" font-size="10.00"> imageRect_</text>
<text text-anchor="middle" x="1208" y="-285" font-family="FreeSans" font-size="10.00">border_</text>
<text text-anchor="middle" x="1208" y="-272" font-family="FreeSans" font-size="10.00">imageBorder_</text>
</g>
<!-- Node11&#45;&gt;Node3 -->
<g id="edge22" class="edge"><title>Node11&#45;&gt;Node3</title>
<path fill="none" stroke="#9a32cd" stroke-dasharray="5,2" d="M947.903,-308.053C974.515,-336.114 1025.47,-388.301 1048,-401 1081.72,-420.003 1099.98,-402.256 1132,-424 1167.22,-447.914 1192.71,-493.586 1202.98,-514.305"/>
<polygon fill="#9a32cd" stroke="#9a32cd" points="950.193,-305.38 940.784,-300.509 945.102,-310.184 950.193,-305.38"/>
<text text-anchor="middle" x="1090" y="-441" font-family="FreeSans" font-size="10.00"> clipBorder_</text>
<text text-anchor="middle" x="1090" y="-428" font-family="FreeSans" font-size="10.00">layoutBorder_</text>
</g>
<!-- Node11&#45;&gt;Node11 -->
<g id="edge24" class="edge"><title>Node11&#45;&gt;Node11</title>
<path fill="none" stroke="#9a32cd" stroke-dasharray="5,2" d="M901.728,-310.055C903.648,-315.164 913.405,-319 931,-319 958.465,-319 966.833,-309.653 956.105,-300.708"/>
<polygon fill="#9a32cd" stroke="#9a32cd" points="905.02,-311.266 905.895,-300.708 898.626,-308.416 905.02,-311.266"/>
<text text-anchor="middle" x="931" y="-323" font-family="FreeSans" font-size="10.00"> ZERO</text>
</g>
<!-- Node12 -->
<g id="node24" class="node"><title>Node12</title>
<a xlink:href="class_urho3_d_1_1_vector.html" target="_top" xlink:title="Urho3D::Vector\&lt; Urho3D\l::SharedPtr\&lt; Urho3D::UIElement \&gt; \&gt;">
<polygon fill="none" stroke="black" points="832.5,-779 832.5,-813 1029.5,-813 1029.5,-779 832.5,-779"/>
<text text-anchor="start" x="840.5" y="-800" font-family="FreeSans" font-size="10.00">Urho3D::Vector&lt; Urho3D</text>
<text text-anchor="middle" x="931" y="-787" font-family="FreeSans" font-size="10.00">::SharedPtr&lt; Urho3D::UIElement &gt; &gt;</text>
</a>
</g>
<!-- Node12&#45;&gt;Node3 -->
<g id="edge26" class="edge"><title>Node12&#45;&gt;Node3</title>
<path fill="none" stroke="#9a32cd" stroke-dasharray="5,2" d="M1020.05,-775.088C1023.47,-773.51 1026.8,-771.817 1030,-770 1129.91,-713.303 1188.94,-574.91 1204.09,-535.581"/>
<polygon fill="#9a32cd" stroke="#9a32cd" points="1018.66,-771.875 1010.81,-778.999 1021.39,-778.321 1018.66,-771.875"/>
<text text-anchor="middle" x="1090" y="-760" font-family="FreeSans" font-size="10.00"> children_</text>
</g>
<!-- Node13 -->
<g id="node26" class="node"><title>Node13</title>
<a xlink:href="class_urho3_d_1_1_vector_base.html" target="_top" xlink:title="Vector base class.">
<polygon fill="none" stroke="black" points="466,-674.5 466,-695.5 580,-695.5 580,-674.5 466,-674.5"/>
<text text-anchor="middle" x="523" y="-682.5" font-family="FreeSans" font-size="10.00">Urho3D::VectorBase</text>
</a>
</g>
<!-- Node13&#45;&gt;Node12 -->
<g id="edge28" class="edge"><title>Node13&#45;&gt;Node12</title>
<path fill="none" stroke="midnightblue" d="M590.09,-675.934C654.307,-671.059 750.537,-674.183 814,-724 831.269,-737.556 815.601,-755.404 832,-770 835.717,-773.308 839.805,-776.204 844.138,-778.737"/>
<polygon fill="midnightblue" stroke="midnightblue" points="589.738,-672.451 580.068,-676.779 590.327,-679.426 589.738,-672.451"/>
</g>
<!-- Node14 -->
<g id="node28" class="node"><title>Node14</title>
<a xlink:href="class_urho3_d_1_1_vector2.html" target="_top" xlink:title="Two&#45;dimensional vector.">
<polygon fill="none" stroke="black" points="883,-643.5 883,-664.5 979,-664.5 979,-643.5 883,-643.5"/>
<text text-anchor="middle" x="931" y="-651.5" font-family="FreeSans" font-size="10.00">Urho3D::Vector2</text>
</a>
</g>
<!-- Node14&#45;&gt;Node3 -->
<g id="edge30" class="edge"><title>Node14&#45;&gt;Node3</title>
<path fill="none" stroke="#9a32cd" stroke-dasharray="5,2" d="M989.187,-657.388C1031.54,-657.242 1088.8,-651.429 1132,-626 1168.88,-604.291 1193.67,-557.053 1203.39,-535.773"/>
<polygon fill="#9a32cd" stroke="#9a32cd" points="989.056,-653.887 979.031,-657.316 989.006,-660.887 989.056,-653.887"/>
<text text-anchor="middle" x="1090" y="-657" font-family="FreeSans" font-size="10.00"> layoutFlexScale_</text>
</g>
<!-- Node14&#45;&gt;Node14 -->
<g id="edge32" class="edge"><title>Node14&#45;&gt;Node14</title>
<path fill="none" stroke="#9a32cd" stroke-dasharray="5,2" d="M901.728,-674.055C903.648,-679.164 913.405,-683 931,-683 958.465,-683 966.833,-673.653 956.105,-664.708"/>
<polygon fill="#9a32cd" stroke="#9a32cd" points="905.02,-675.266 905.895,-664.708 898.626,-672.416 905.02,-675.266"/>
<text text-anchor="middle" x="931" y="-752" font-family="FreeSans" font-size="10.00"> ONE</text>
<text text-anchor="middle" x="931" y="-739" font-family="FreeSans" font-size="10.00">DOWN</text>
<text text-anchor="middle" x="931" y="-726" font-family="FreeSans" font-size="10.00">RIGHT</text>
<text text-anchor="middle" x="931" y="-713" font-family="FreeSans" font-size="10.00">LEFT</text>
<text text-anchor="middle" x="931" y="-700" font-family="FreeSans" font-size="10.00">ZERO</text>
<text text-anchor="middle" x="931" y="-687" font-family="FreeSans" font-size="10.00">UP</text>
</g>
<!-- Node15&#45;&gt;Node3 -->
<g id="edge34" class="edge"><title>Node15&#45;&gt;Node3</title>
<path fill="none" stroke="#9a32cd" stroke-dasharray="5,2" d="M824.317,-619.872C934.689,-609.01 1104.01,-590.97 1132,-580 1158.08,-569.777 1183.42,-548.463 1197.25,-535.577"/>
<polygon fill="#9a32cd" stroke="#9a32cd" points="823.769,-616.409 814.159,-620.868 824.452,-623.375 823.769,-616.409"/>
<text text-anchor="middle" x="931" y="-622" font-family="FreeSans" font-size="10.00"> vars_</text>
</g>
<!-- Node16 -->
<g id="node35" class="node"><title>Node16</title>
<a xlink:href="class_urho3_d_1_1_string.html" target="_top" xlink:title="String class.">
<polygon fill="none" stroke="black" points="1,-509.5 1,-530.5 89,-530.5 89,-509.5 1,-509.5"/>
<text text-anchor="middle" x="45" y="-517.5" font-family="FreeSans" font-size="10.00">Urho3D::String</text>
</a>
</g>
<!-- Node16&#45;&gt;Node3 -->
<g id="edge40" class="edge"><title>Node16&#45;&gt;Node3</title>
<path fill="none" stroke="#9a32cd" stroke-dasharray="5,2" d="M78.3473,-534.393C112.685,-547.887 168.075,-566 218,-566 218,-566 218,-566 931,-566 1014.13,-566 1109.8,-547.707 1164.16,-535.559"/>
<polygon fill="#9a32cd" stroke="#9a32cd" points="79.4031,-531.045 68.8197,-530.553 76.7868,-537.537 79.4031,-531.045"/>
<text text-anchor="middle" x="523" y="-583" font-family="FreeSans" font-size="10.00"> appliedStyle_</text>
<text text-anchor="middle" x="523" y="-570" font-family="FreeSans" font-size="10.00">name_</text>
</g>
<!-- Node16&#45;&gt;Node16 -->
<g id="edge42" class="edge"><title>Node16&#45;&gt;Node16</title>
<path fill="none" stroke="#9a32cd" stroke-dasharray="5,2" d="M29.983,-540.793C31.3084,-545.529 36.314,-549 45,-549 59.2539,-549 63.5969,-539.653 58.029,-530.708"/>
<polygon fill="#9a32cd" stroke="#9a32cd" points="33.4709,-541.196 31.971,-530.708 26.6031,-539.842 33.4709,-541.196"/>
<text text-anchor="middle" x="45" y="-553" font-family="FreeSans" font-size="10.00"> EMPTY</text>
</g>
<!-- Node17 -->
<g id="node38" class="node"><title>Node17</title>
<a xlink:href="class_urho3_d_1_1_x_path_query.html" target="_top" xlink:title="XPath query.">
<polygon fill="none" stroke="black" points="670.5,-512.5 670.5,-533.5 785.5,-533.5 785.5,-512.5 670.5,-512.5"/>
<text text-anchor="middle" x="728" y="-520.5" font-family="FreeSans" font-size="10.00">Urho3D::XPathQuery</text>
</a>
</g>
<!-- Node16&#45;&gt;Node17 -->
<g id="edge46" class="edge"><title>Node16&#45;&gt;Node17</title>
<path fill="none" stroke="#9a32cd" stroke-dasharray="5,2" d="M99.2511,-520.238C225.87,-520.794 539.989,-522.174 670.114,-522.746"/>
<polygon fill="#9a32cd" stroke="#9a32cd" points="99.0405,-516.737 89.0252,-520.193 99.0097,-523.737 99.0405,-516.737"/>
<text text-anchor="middle" x="218" y="-524" font-family="FreeSans" font-size="10.00"> queryString_</text>
</g>
<!-- Node16&#45;&gt;Node20 -->
<g id="edge56" class="edge"><title>Node16&#45;&gt;Node20</title>
<path fill="none" stroke="#9a32cd" stroke-dasharray="5,2" d="M60.7299,-501.692C72.3868,-489.598 89.4188,-474.773 108,-468 126.302,-461.328 147.482,-459.814 166.342,-460.407"/>
<polygon fill="#9a32cd" stroke="#9a32cd" points="58.0787,-499.404 53.8836,-509.133 63.2301,-504.144 58.0787,-499.404"/>
<text text-anchor="middle" x="127" y="-472" font-family="FreeSans" font-size="10.00"> name_</text>
</g>
<!-- Node17&#45;&gt;Node3 -->
<g id="edge44" class="edge"><title>Node17&#45;&gt;Node3</title>
<path fill="none" stroke="#9a32cd" stroke-dasharray="5,2" d="M796.071,-523.284C892.006,-523.683 1065.1,-524.405 1153.23,-524.772"/>
<polygon fill="#9a32cd" stroke="#9a32cd" points="795.914,-519.783 785.899,-523.241 795.885,-526.783 795.914,-519.783"/>
<text text-anchor="middle" x="931" y="-528" font-family="FreeSans" font-size="10.00"> styleXPathQuery_</text>
</g>
<!-- Node18 -->
<g id="node41" class="node"><title>Node18</title>
<a xlink:href="class_urho3_d_1_1_shared_ptr.html" target="_top" xlink:title="Urho3D::SharedPtr\&lt;\l Urho3D::XMLFile \&gt;">
<polygon fill="none" stroke="black" points="873,-455 873,-489 989,-489 989,-455 873,-455"/>
<text text-anchor="start" x="881" y="-476" font-family="FreeSans" font-size="10.00">Urho3D::SharedPtr&lt;</text>
<text text-anchor="middle" x="931" y="-463" font-family="FreeSans" font-size="10.00"> Urho3D::XMLFile &gt;</text>
</a>
</g>
<!-- Node18&#45;&gt;Node3 -->
<g id="edge48" class="edge"><title>Node18&#45;&gt;Node3</title>
<path fill="none" stroke="#9a32cd" stroke-dasharray="5,2" d="M999.194,-477.189C1038.41,-481.073 1088.4,-487.562 1132,-498 1149.29,-502.141 1168.13,-508.818 1182.73,-514.496"/>
<polygon fill="#9a32cd" stroke="#9a32cd" points="999.497,-473.702 989.209,-476.233 998.829,-480.67 999.497,-473.702"/>
<text text-anchor="middle" x="1090" y="-502" font-family="FreeSans" font-size="10.00"> defaultStyle_</text>
</g>
<!-- Node19 -->
<g id="node43" class="node"><title>Node19</title>
<a xlink:href="class_urho3_d_1_1_x_m_l_file.html" target="_top" xlink:title="XML document resource.">
<polygon fill="none" stroke="black" points="476,-459.5 476,-480.5 570,-480.5 570,-459.5 476,-459.5"/>
<text text-anchor="middle" x="523" y="-467.5" font-family="FreeSans" font-size="10.00">Urho3D::XMLFile</text>
</a>
</g>
<!-- Node19&#45;&gt;Node18 -->
<g id="edge50" class="edge"><title>Node19&#45;&gt;Node18</title>
<path fill="none" stroke="#9a32cd" stroke-dasharray="5,2" d="M580.252,-470.281C657.633,-470.66 794.861,-471.333 872.752,-471.714"/>
<polygon fill="#9a32cd" stroke="#9a32cd" points="580.218,-466.781 570.201,-470.231 580.184,-473.78 580.218,-466.781"/>
<text text-anchor="middle" x="728" y="-475" font-family="FreeSans" font-size="10.00"> ptr_</text>
</g>
<!-- Node20&#45;&gt;Node19 -->
<g id="edge52" class="edge"><title>Node20&#45;&gt;Node19</title>
<path fill="none" stroke="midnightblue" d="M279.851,-467.608C337.698,-468.177 422.863,-469.015 475.529,-469.533"/>
<polygon fill="midnightblue" stroke="midnightblue" points="279.773,-464.108 269.739,-467.509 279.704,-471.107 279.773,-464.108"/>
</g>
<!-- Node24 -->
<g id="node58" class="node"><title>Node24</title>
<a xlink:href="class_urho3_d_1_1_texture.html" target="_top" xlink:title="Base class for texture resources.">
<polygon fill="none" stroke="black" points="884,-159.5 884,-180.5 978,-180.5 978,-159.5 884,-159.5"/>
<text text-anchor="middle" x="931" y="-167.5" font-family="FreeSans" font-size="10.00">Urho3D::Texture</text>
</a>
</g>
<!-- Node20&#45;&gt;Node24 -->
<g id="edge72" class="edge"><title>Node20&#45;&gt;Node24</title>
<path fill="none" stroke="midnightblue" d="M261.411,-454.064C337.667,-436.102 499.399,-400.777 624,-340 726.439,-290.033 729.614,-240.075 832,-190 848.25,-182.053 867.087,-175.862 883.941,-171.832"/>
<polygon fill="midnightblue" stroke="midnightblue" points="260.151,-450.766 251.231,-456.484 261.77,-457.577 260.151,-450.766"/>
</g>
<!-- Node20&#45;&gt;Node24 -->
<g id="edge76" class="edge"><title>Node20&#45;&gt;Node24</title>
<path fill="none" stroke="midnightblue" d="M279.857,-462.023C361.595,-448.689 508.696,-414.242 624,-358 726.439,-308.033 729.614,-258.075 832,-208 857.903,-195.332 890.381,-187.128 910.92,-180.544"/>
<polygon fill="midnightblue" stroke="midnightblue" points="279.069,-458.604 269.735,-463.618 280.158,-465.518 279.069,-458.604"/>
</g>
<!-- Node21 -->
<g id="node49" class="node"><title>Node21</title>
<a xlink:href="class_urho3_d_1_1_int_vector2.html" target="_top" xlink:title="Two&#45;dimensional vector with integer values.">
<polygon fill="none" stroke="black" points="877,-208.5 877,-229.5 985,-229.5 985,-208.5 877,-208.5"/>
<text text-anchor="middle" x="931" y="-216.5" font-family="FreeSans" font-size="10.00">Urho3D::IntVector2</text>
</a>
</g>
<!-- Node21&#45;&gt;Node1 -->
<g id="edge88" class="edge"><title>Node21&#45;&gt;Node1</title>
<path fill="none" stroke="#9a32cd" stroke-dasharray="5,2" d="M994.652,-210.918C1007.8,-206.567 1020.51,-199.97 1030,-190 1053.63,-165.169 1023.92,-139.402 1048,-115 1124.01,-37.9612 1176.61,-68.4373 1284,-55 1385.45,-42.3063 1505.15,-65.7823 1566.05,-80.468"/>
<polygon fill="#9a32cd" stroke="#9a32cd" points="993.671,-207.558 985.042,-213.706 995.622,-214.281 993.671,-207.558"/>
<text text-anchor="middle" x="1332" y="-98" font-family="FreeSans" font-size="10.00"> dragBeginPosition_</text>
<text text-anchor="middle" x="1332" y="-85" font-family="FreeSans" font-size="10.00">modalFrameSize_</text>
<text text-anchor="middle" x="1332" y="-72" font-family="FreeSans" font-size="10.00">dragBeginCursor_</text>
<text text-anchor="middle" x="1332" y="-59" font-family="FreeSans" font-size="10.00">dragBeginSize_</text>
</g>
<!-- Node21&#45;&gt;Node2 -->
<g id="edge84" class="edge"><title>Node21&#45;&gt;Node2</title>
<path fill="none" stroke="#9a32cd" stroke-dasharray="5,2" d="M995.239,-219.973C1097.79,-221.527 1297.16,-224.548 1397.77,-226.072"/>
<polygon fill="#9a32cd" stroke="#9a32cd" points="995.076,-216.471 985.024,-219.819 994.97,-223.47 995.076,-216.471"/>
<text text-anchor="middle" x="1208" y="-229" font-family="FreeSans" font-size="10.00"> hoverOffset_</text>
</g>
<!-- Node21&#45;&gt;Node3 -->
<g id="edge58" class="edge"><title>Node21&#45;&gt;Node3</title>
<path fill="none" stroke="#9a32cd" stroke-dasharray="5,2" d="M994.304,-232.146C1038.38,-244.351 1095.57,-266.747 1132,-306 1190.59,-369.124 1204.33,-479.748 1207.27,-514.347"/>
<polygon fill="#9a32cd" stroke="#9a32cd" points="995.107,-228.738 984.544,-229.549 993.307,-235.503 995.107,-228.738"/>
<text text-anchor="middle" x="1090" y="-388" font-family="FreeSans" font-size="10.00"> maxSize_</text>
<text text-anchor="middle" x="1090" y="-375" font-family="FreeSans" font-size="10.00">childOffset_</text>
<text text-anchor="middle" x="1090" y="-362" font-family="FreeSans" font-size="10.00">size_</text>
<text text-anchor="middle" x="1090" y="-349" font-family="FreeSans" font-size="10.00">position_</text>
<text text-anchor="start" x="1055" y="-336" font-family="FreeSans" font-size="10.00">screenPosition</text>
<text text-anchor="middle" x="1090" y="-323" font-family="FreeSans" font-size="10.00">_</text>
<text text-anchor="middle" x="1090" y="-310" font-family="FreeSans" font-size="10.00">minSize_</text>
</g>
<!-- Node21&#45;&gt;Node21 -->
<g id="edge60" class="edge"><title>Node21&#45;&gt;Node21</title>
<path fill="none" stroke="#9a32cd" stroke-dasharray="5,2" d="M901.728,-239.055C903.648,-244.164 913.405,-248 931,-248 958.465,-248 966.833,-238.653 956.105,-229.708"/>
<polygon fill="#9a32cd" stroke="#9a32cd" points="905.02,-240.266 905.895,-229.708 898.626,-237.416 905.02,-240.266"/>
<text text-anchor="middle" x="931" y="-252" font-family="FreeSans" font-size="10.00"> ZERO</text>
</g>
<!-- Node22 -->
<g id="node52" class="node"><title>Node22</title>
<a xlink:href="class_urho3_d_1_1_color.html" target="_top" xlink:title="RGBA color.">
<polygon fill="none" stroke="black" points="481,-157.5 481,-178.5 565,-178.5 565,-157.5 481,-157.5"/>
<text text-anchor="middle" x="523" y="-165.5" font-family="FreeSans" font-size="10.00">Urho3D::Color</text>
</a>
</g>
<!-- Node22&#45;&gt;Node1 -->
<g id="edge90" class="edge"><title>Node22&#45;&gt;Node1</title>
<path fill="none" stroke="#9a32cd" stroke-dasharray="5,2" d="M575.53,-160.213C591.329,-157.175 608.562,-153.156 624,-148 767.67,-100.014 779.528,-0 931,-0 931,-0 931,-0 1459,-0 1519.33,-0 1575.54,-56.0988 1596.91,-80.2038"/>
<polygon fill="#9a32cd" stroke="#9a32cd" points="574.595,-156.825 565.389,-162.069 575.855,-163.711 574.595,-156.825"/>
<text text-anchor="middle" x="1208" y="-17" font-family="FreeSans" font-size="10.00"> modalShadeColor_</text>
<text text-anchor="middle" x="1208" y="-4" font-family="FreeSans" font-size="10.00">modalFrameColor_</text>
</g>
<!-- Node22&#45;&gt;Node3 -->
<g id="edge62" class="edge"><title>Node22&#45;&gt;Node3</title>
<path fill="none" stroke="#9a32cd" stroke-dasharray="5,2" d="M548.619,-183.861C600.797,-215.821 723.635,-289.319 832,-341 917.518,-381.785 957.841,-358.601 1030,-420 1041.84,-430.076 1035.92,-440.206 1048,-450 1078.68,-474.878 1096.24,-462.236 1132,-479 1154.06,-489.343 1177.84,-504.441 1192.82,-514.485"/>
<polygon fill="#9a32cd" stroke="#9a32cd" points="550.355,-180.82 540.003,-178.567 546.691,-186.784 550.355,-180.82"/>
<text text-anchor="middle" x="931" y="-437" font-family="FreeSans" font-size="10.00"> derivedColor_</text>
<text text-anchor="middle" x="931" y="-424" font-family="FreeSans" font-size="10.00">color_</text>
</g>
<!-- Node22&#45;&gt;Node22 -->
<g id="edge64" class="edge"><title>Node22&#45;&gt;Node22</title>
<path fill="none" stroke="#9a32cd" stroke-dasharray="5,2" d="M490.252,-187.679C492.007,-192.975 502.923,-197 523,-197 553.594,-197 562.915,-187.653 550.965,-178.708"/>
<polygon fill="#9a32cd" stroke="#9a32cd" points="493.419,-189.179 495.035,-178.708 487.242,-185.885 493.419,-189.179"/>
<text text-anchor="middle" x="523" y="-331" font-family="FreeSans" font-size="10.00"> CYAN</text>
<text text-anchor="middle" x="523" y="-318" font-family="FreeSans" font-size="10.00">GRAY</text>
<text text-anchor="middle" x="523" y="-305" font-family="FreeSans" font-size="10.00">YELLOW</text>
<text text-anchor="middle" x="523" y="-292" font-family="FreeSans" font-size="10.00">MAGENTA</text>
<text text-anchor="middle" x="523" y="-279" font-family="FreeSans" font-size="10.00">WHITE</text>
<text text-anchor="middle" x="523" y="-266" font-family="FreeSans" font-size="10.00">TRANSPARENT</text>
<text text-anchor="middle" x="523" y="-253" font-family="FreeSans" font-size="10.00">BLUE</text>
<text text-anchor="middle" x="523" y="-240" font-family="FreeSans" font-size="10.00">BLACK</text>
<text text-anchor="middle" x="523" y="-227" font-family="FreeSans" font-size="10.00">RED</text>
<text text-anchor="middle" x="523" y="-214" font-family="FreeSans" font-size="10.00">GREEN</text>
<text text-anchor="middle" x="523" y="-201" font-family="FreeSans" font-size="10.00">...</text>
</g>
<!-- Node22&#45;&gt;Node24 -->
<g id="edge82" class="edge"><title>Node22&#45;&gt;Node24</title>
<path fill="none" stroke="#9a32cd" stroke-dasharray="5,2" d="M575.466,-168.257C655.533,-168.65 806.991,-169.392 883.794,-169.769"/>
<polygon fill="#9a32cd" stroke="#9a32cd" points="575.144,-164.756 565.126,-168.207 575.109,-171.756 575.144,-164.756"/>
<text text-anchor="middle" x="728" y="-174" font-family="FreeSans" font-size="10.00"> borderColor_</text>
</g>
<!-- Node23 -->
<g id="node56" class="node"><title>Node23</title>
<a xlink:href="class_urho3_d_1_1_shared_ptr.html" target="_top" xlink:title="Urho3D::SharedPtr\&lt;\l Urho3D::Texture \&gt;">
<polygon fill="none" stroke="black" points="1150,-157 1150,-191 1266,-191 1266,-157 1150,-157"/>
<text text-anchor="start" x="1158" y="-178" font-family="FreeSans" font-size="10.00">Urho3D::SharedPtr&lt;</text>
<text text-anchor="middle" x="1208" y="-165" font-family="FreeSans" font-size="10.00"> Urho3D::Texture &gt;</text>
</a>
</g>
<!-- Node23&#45;&gt;Node2 -->
<g id="edge68" class="edge"><title>Node23&#45;&gt;Node2</title>
<path fill="none" stroke="#9a32cd" stroke-dasharray="5,2" d="M1276.31,-181.465C1308.09,-185.666 1346.25,-191.752 1380,-200 1397.6,-204.301 1416.85,-210.839 1431.94,-216.404"/>
<polygon fill="#9a32cd" stroke="#9a32cd" points="1276.6,-177.973 1266.23,-180.167 1275.7,-184.915 1276.6,-177.973"/>
<text text-anchor="middle" x="1332" y="-204" font-family="FreeSans" font-size="10.00"> texture_</text>
</g>
<!-- Node23&#45;&gt;Node24 -->
<g id="edge80" class="edge"><title>Node23&#45;&gt;Node24</title>
<path fill="none" stroke="#9a32cd" stroke-dasharray="5,2" d="M1139.64,-160.807C1137.07,-160.501 1134.51,-160.23 1132,-160 1079.46,-155.201 1018.97,-159.543 978.188,-163.911"/>
<polygon fill="#9a32cd" stroke="#9a32cd" points="1139.27,-164.288 1149.64,-162.142 1140.2,-157.349 1139.27,-164.288"/>
<text text-anchor="middle" x="1090" y="-164" font-family="FreeSans" font-size="10.00"> backupTexture_</text>
</g>
<!-- Node24&#45;&gt;Node23 -->
<g id="edge70" class="edge"><title>Node24&#45;&gt;Node23</title>
<path fill="none" stroke="#9a32cd" stroke-dasharray="5,2" d="M988.226,-174.109C1007.23,-175.291 1028.52,-176.418 1048,-177 1085.32,-178.115 1094.67,-177.736 1132,-177 1137.81,-176.885 1143.87,-176.722 1149.91,-176.529"/>
<polygon fill="#9a32cd" stroke="#9a32cd" points="988.424,-170.615 978.221,-173.469 987.978,-177.601 988.424,-170.615"/>
<text text-anchor="middle" x="1090" y="-182" font-family="FreeSans" font-size="10.00"> ptr_</text>
</g>
<!-- Node25 -->
<g id="node61" class="node"><title>Node25</title>
<a xlink:href="class_urho3_d_1_1_g_p_u_object.html" target="_top" xlink:title="Base class for GPU resources.">
<polygon fill="none" stroke="red" points="467.5,-117.5 467.5,-138.5 578.5,-138.5 578.5,-117.5 467.5,-117.5"/>
<text text-anchor="middle" x="523" y="-125.5" font-family="FreeSans" font-size="10.00">Urho3D::GPUObject</text>
</a>
</g>
<!-- Node25&#45;&gt;Node24 -->
<g id="edge74" class="edge"><title>Node25&#45;&gt;Node24</title>
<path fill="none" stroke="midnightblue" d="M588.903,-129.659C671.488,-135.806 810.99,-150.371 883.709,-160.619"/>
<polygon fill="midnightblue" stroke="midnightblue" points="589.101,-126.165 578.875,-128.935 588.597,-133.146 589.101,-126.165"/>
</g>
<!-- Node25&#45;&gt;Node24 -->
<g id="edge78" class="edge"><title>Node25&#45;&gt;Node24</title>
<path fill="none" stroke="midnightblue" d="M588.477,-139.853C671.081,-150.726 811.117,-164.939 883.905,-169.657"/>
<polygon fill="midnightblue" stroke="midnightblue" points="588.825,-136.368 578.449,-138.511 587.897,-143.307 588.825,-136.368"/>
</g>
</g>
</svg>
        <g id="navigator" transform="translate(0 0)" fill="#404254">
                <rect fill="#f2f5e9" fill-opacity="0.5" stroke="#606060" stroke-width=".5" x="0" y="0" width="60" height="60"/>
                <use id="zoomplus" xlink:href="#zoomPlus" x="17" y="9" onmousedown="handleZoom(evt,'in')"/>
                <use id="zoomminus" xlink:href="#zoomMin" x="42" y="9" onmousedown="handleZoom(evt,'out')"/>
                <use id="reset" xlink:href="#resetDef" x="30" y="36" onmousedown="handleReset()"/>
                <g id="arrowUp" xlink:href="#dirArrow" transform="translate(30 24)" onmousedown="handlePan(0,-1)">
                  <use xlink:href="#rim" fill="#404040">
                        <set attributeName="fill" to="#808080" begin="arrowUp.mouseover" end="arrowUp.mouseout"/>
                  </use>
                  <path fill="none" stroke="white" stroke-width="1.5" d="M0,-3.0v7 M-2.5,-0.5L0,-3.0L2.5,-0.5"/>
                </g>
                <g id="arrowRight" xlink:href="#dirArrow" transform="rotate(90) translate(36 -43)" onmousedown="handlePan(1,0)">
                  <use xlink:href="#rim" fill="#404040">
                        <set attributeName="fill" to="#808080" begin="arrowRight.mouseover" end="arrowRight.mouseout"/>
                  </use>
                  <path fill="none" stroke="white" stroke-width="1.5" d="M0,-3.0v7 M-2.5,-0.5L0,-3.0L2.5,-0.5"/>
                </g>
                <g id="arrowDown" xlink:href="#dirArrow" transform="rotate(180) translate(-30 -48)" onmousedown="handlePan(0,1)">
                  <use xlink:href="#rim" fill="#404040">
                        <set attributeName="fill" to="#808080" begin="arrowDown.mouseover" end="arrowDown.mouseout"/>
                  </use>
                  <path fill="none" stroke="white" stroke-width="1.5" d="M0,-3.0v7 M-2.5,-0.5L0,-3.0L2.5,-0.5"/>
                </g>
                <g id="arrowLeft" xlink:href="#dirArrow" transform="rotate(270) translate(-36 17)" onmousedown="handlePan(-1,0)">
                  <use xlink:href="#rim" fill="#404040">
                        <set attributeName="fill" to="#808080" begin="arrowLeft.mouseover" end="arrowLeft.mouseout"/>
                  </use>
                  <path fill="none" stroke="white" stroke-width="1.5" d="M0,-3.0v7 M-2.5,-0.5L0,-3.0L2.5,-0.5"/>
                </g>
        </g>
        <svg viewBox="0 0 15 15" width="100%" height="30px" preserveAspectRatio="xMaxYMin meet">
         <g id="arrow_out" transform="scale(0.3 0.3)">
          <a xlink:href="class_urho3_d_1_1_window__coll__graph_org.svg" target="_base">
           <rect id="button" ry="5" rx="5" y="6" x="6" height="38" width="38"
                fill="#f2f5e9" fill-opacity="0.5" stroke="#606060" stroke-width="1.0"/>
           <path id="arrow"
             d="M 11.500037,31.436501 C 11.940474,20.09759 22.043105,11.32322 32.158766,21.979434 L 37.068811,17.246167 C 37.068811,17.246167 37.088388,32 37.088388,32 L 22.160133,31.978069 C 22.160133,31.978069 26.997745,27.140456 26.997745,27.140456 C 18.528582,18.264221 13.291696,25.230495 11.500037,31.436501 z"
             style="fill:#404040;"/>
          </a>
         </g>
        </svg>
</svg>
