<?xml version="1.0" encoding="UTF-8" standalone="no"?>
<!DOCTYPE svg PUBLIC "-//W3C//DTD SVG 1.1//EN"
 "http://www.w3.org/Graphics/SVG/1.1/DTD/svg11.dtd">
<!-- Generated by graphviz version 2.26.3 (20100126.1600)
 -->
<!-- Title: Urho3D::GraphicsImpl Pages: 1 -->
<svg width="980pt" height="212pt"
 viewBox="0.00 0.00 980.00 212.00" xmlns="http://www.w3.org/2000/svg" xmlns:xlink="http://www.w3.org/1999/xlink">
<g id="graph1" class="graph" transform="scale(1 1) rotate(0) translate(4 208)">
<title>Urho3D::GraphicsImpl</title>
<!-- Node1 -->
<g id="node1" class="node"><title>Node1</title>
<polygon fill="#bfbfbf" stroke="black" points="850,-84.5 850,-105.5 972,-105.5 972,-84.5 850,-84.5"/>
<text text-anchor="middle" x="911" y="-92.5" font-family="FreeSans" font-size="10.00">Urho3D::GraphicsImpl</text>
</g>
<!-- Node2 -->
<g id="node2" class="node"><title>Node2</title>
<a xlink:href="class_urho3_d_1_1_hash_map.html" target="_top" xlink:title="Urho3D::HashMap\&lt; unsigned\l long long, Urho3D::FrameBuffer\lObject \&gt;">
<polygon fill="none" stroke="black" points="558,-156.5 558,-203.5 728,-203.5 728,-156.5 558,-156.5"/>
<text text-anchor="start" x="566" y="-190.5" font-family="FreeSans" font-size="10.00">Urho3D::HashMap&lt; unsigned</text>
<text text-anchor="start" x="566" y="-177.5" font-family="FreeSans" font-size="10.00"> long long, Urho3D::FrameBuffer</text>
<text text-anchor="middle" x="643" y="-164.5" font-family="FreeSans" font-size="10.00">Object &gt;</text>
</a>
</g>
<!-- Node2&#45;&gt;Node1 -->
<g id="edge2" class="edge"><title>Node2&#45;&gt;Node1</title>
<path fill="none" stroke="#9a32cd" stroke-dasharray="5,2" d="M738,-155.587C768.263,-147.217 801.736,-137.337 832,-127 850.765,-120.591 871.53,-112.124 887.06,-105.509"/>
<polygon fill="#9a32cd" stroke="#9a32cd" points="737.013,-152.228 728.295,-158.25 738.865,-158.979 737.013,-152.228"/>
<text text-anchor="middle" x="789" y="-156" font-family="FreeSans" font-size="10.00"> frameBuffers_</text>
</g>
<!-- Node3 -->
<g id="node4" class="node"><title>Node3</title>
<a xlink:href="class_urho3_d_1_1_hash_base.html" target="_top" xlink:title="Hash set/map base class.">
<polygon fill="none" stroke="black" points="412,-77.5 412,-98.5 520,-98.5 520,-77.5 412,-77.5"/>
<text text-anchor="middle" x="466" y="-85.5" font-family="FreeSans" font-size="10.00">Urho3D::HashBase</text>
</a>
</g>
<!-- Node3&#45;&gt;Node2 -->
<g id="edge4" class="edge"><title>Node3&#45;&gt;Node2</title>
<path fill="none" stroke="midnightblue" d="M488.647,-104.341C506.82,-117 533.289,-134.439 558,-147 564.491,-150.3 571.394,-153.479 578.351,-156.475"/>
<polygon fill="midnightblue" stroke="midnightblue" points="490.627,-101.454 480.437,-98.5529 486.593,-107.175 490.627,-101.454"/>
</g>
<!-- Node7 -->
<g id="node15" class="node"><title>Node7</title>
<a xlink:href="class_urho3_d_1_1_hash_map.html" target="_top" xlink:title="Urho3D::HashMap\&lt; unsigned,\l ID3D11DepthStencilState * \&gt;">
<polygon fill="none" stroke="black" points="562,-104 562,-138 724,-138 724,-104 562,-104"/>
<text text-anchor="start" x="570" y="-125" font-family="FreeSans" font-size="10.00">Urho3D::HashMap&lt; unsigned,</text>
<text text-anchor="middle" x="643" y="-112" font-family="FreeSans" font-size="10.00"> ID3D11DepthStencilState * &gt;</text>
</a>
</g>
<!-- Node3&#45;&gt;Node7 -->
<g id="edge20" class="edge"><title>Node3&#45;&gt;Node7</title>
<path fill="none" stroke="midnightblue" d="M530.185,-99.9666C540.483,-101.887 551.258,-103.896 561.89,-105.878"/>
<polygon fill="midnightblue" stroke="midnightblue" points="530.54,-96.4726 520.068,-98.0804 529.257,-103.354 530.54,-96.4726"/>
</g>
<!-- Node8 -->
<g id="node18" class="node"><title>Node8</title>
<a xlink:href="class_urho3_d_1_1_hash_map.html" target="_top" xlink:title="Urho3D::HashMap\&lt; unsigned,\l ID3D11RasterizerState * \&gt;">
<polygon fill="none" stroke="black" points="562,-52 562,-86 724,-86 724,-52 562,-52"/>
<text text-anchor="start" x="570" y="-73" font-family="FreeSans" font-size="10.00">Urho3D::HashMap&lt; unsigned,</text>
<text text-anchor="middle" x="643" y="-60" font-family="FreeSans" font-size="10.00"> ID3D11RasterizerState * &gt;</text>
</a>
</g>
<!-- Node3&#45;&gt;Node8 -->
<g id="edge24" class="edge"><title>Node3&#45;&gt;Node8</title>
<path fill="none" stroke="midnightblue" d="M530.185,-81.1101C540.483,-80.0046 551.258,-78.848 561.89,-77.7067"/>
<polygon fill="midnightblue" stroke="midnightblue" points="529.637,-77.6487 520.068,-82.1961 530.384,-84.6087 529.637,-77.6487"/>
</g>
<!-- Node9 -->
<g id="node21" class="node"><title>Node9</title>
<a xlink:href="class_urho3_d_1_1_hash_map.html" target="_top" xlink:title="Urho3D::HashMap\&lt; unsigned,\l ID3D11BlendState * \&gt;">
<polygon fill="none" stroke="black" points="562,-0 562,-34 724,-34 724,-0 562,-0"/>
<text text-anchor="start" x="570" y="-21" font-family="FreeSans" font-size="10.00">Urho3D::HashMap&lt; unsigned,</text>
<text text-anchor="middle" x="643" y="-8" font-family="FreeSans" font-size="10.00"> ID3D11BlendState * &gt;</text>
</a>
</g>
<!-- Node3&#45;&gt;Node9 -->
<g id="edge28" class="edge"><title>Node3&#45;&gt;Node9</title>
<path fill="none" stroke="midnightblue" d="M494.631,-72.5392C512.526,-63.2442 536.23,-51.5912 558,-43 566.039,-39.8277 574.628,-36.7991 583.142,-34.0032"/>
<polygon fill="midnightblue" stroke="midnightblue" points="492.559,-69.6744 485.336,-77.4261 495.816,-75.8702 492.559,-69.6744"/>
</g>
<!-- Node4 -->
<g id="node6" class="node"><title>Node4</title>
<a xlink:href="struct_urho3_d_1_1_hash_node_base.html" target="_top" xlink:title="Hash set/map node base class.">
<polygon fill="none" stroke="black" points="192,-109.5 192,-130.5 326,-130.5 326,-109.5 192,-109.5"/>
<text text-anchor="middle" x="259" y="-117.5" font-family="FreeSans" font-size="10.00">Urho3D::HashNodeBase</text>
</a>
</g>
<!-- Node4&#45;&gt;Node3 -->
<g id="edge6" class="edge"><title>Node4&#45;&gt;Node3</title>
<path fill="none" stroke="#9a32cd" stroke-dasharray="5,2" d="M336.109,-108.08C361.309,-104.184 388.746,-99.9427 411.883,-96.366"/>
<polygon fill="#9a32cd" stroke="#9a32cd" points="335.555,-104.624 326.207,-109.611 336.624,-111.542 335.555,-104.624"/>
<text text-anchor="middle" x="369" y="-135" font-family="FreeSans" font-size="10.00"> ptrs_</text>
<text text-anchor="middle" x="369" y="-122" font-family="FreeSans" font-size="10.00">tail_</text>
<text text-anchor="middle" x="369" y="-109" font-family="FreeSans" font-size="10.00">head_</text>
</g>
<!-- Node4&#45;&gt;Node4 -->
<g id="edge8" class="edge"><title>Node4&#45;&gt;Node4</title>
<path fill="none" stroke="#9a32cd" stroke-dasharray="5,2" d="M240.94,-140.427C242.333,-145.349 248.353,-149 259,-149 276.035,-149 281.226,-139.653 274.571,-130.708"/>
<polygon fill="#9a32cd" stroke="#9a32cd" points="244.338,-141.264 243.429,-130.708 237.557,-139.527 244.338,-141.264"/>
<text text-anchor="middle" x="259" y="-179" font-family="FreeSans" font-size="10.00"> next_</text>
<text text-anchor="middle" x="259" y="-166" font-family="FreeSans" font-size="10.00">prev_</text>
<text text-anchor="middle" x="259" y="-153" font-family="FreeSans" font-size="10.00">down_</text>
</g>
<!-- Node5 -->
<g id="node9" class="node"><title>Node5</title>
<a xlink:href="struct_urho3_d_1_1_allocator_block.html" target="_top" xlink:title="Allocator memory block.">
<polygon fill="none" stroke="black" points="195.5,-38.5 195.5,-59.5 322.5,-59.5 322.5,-38.5 195.5,-38.5"/>
<text text-anchor="middle" x="259" y="-46.5" font-family="FreeSans" font-size="10.00">Urho3D::AllocatorBlock</text>
</a>
</g>
<!-- Node5&#45;&gt;Node3 -->
<g id="edge10" class="edge"><title>Node5&#45;&gt;Node3</title>
<path fill="none" stroke="#9a32cd" stroke-dasharray="5,2" d="M324.877,-61.4115C352.953,-66.7013 385.305,-72.7966 411.945,-77.8157"/>
<polygon fill="#9a32cd" stroke="#9a32cd" points="325.22,-57.9147 314.745,-59.5026 323.924,-64.7936 325.22,-57.9147"/>
<text text-anchor="middle" x="369" y="-78" font-family="FreeSans" font-size="10.00"> allocator_</text>
</g>
<!-- Node5&#45;&gt;Node5 -->
<g id="edge12" class="edge"><title>Node5&#45;&gt;Node5</title>
<path fill="none" stroke="#9a32cd" stroke-dasharray="5,2" d="M240.94,-69.4266C242.333,-74.3489 248.353,-78 259,-78 276.035,-78 281.226,-68.6531 274.571,-59.7079"/>
<polygon fill="#9a32cd" stroke="#9a32cd" points="244.338,-70.2636 243.429,-59.7079 237.557,-68.5268 244.338,-70.2636"/>
<text text-anchor="middle" x="259" y="-82" font-family="FreeSans" font-size="10.00"> next_</text>
</g>
<!-- Node6 -->
<g id="node12" class="node"><title>Node6</title>
<a xlink:href="struct_urho3_d_1_1_allocator_node.html" target="_top" xlink:title="Allocator node.">
<polygon fill="none" stroke="black" points="0.5,-38.5 0.5,-59.5 127.5,-59.5 127.5,-38.5 0.5,-38.5"/>
<text text-anchor="middle" x="64" y="-46.5" font-family="FreeSans" font-size="10.00">Urho3D::AllocatorNode</text>
</a>
</g>
<!-- Node6&#45;&gt;Node5 -->
<g id="edge14" class="edge"><title>Node6&#45;&gt;Node5</title>
<path fill="none" stroke="#9a32cd" stroke-dasharray="5,2" d="M137.645,-49C156.576,-49 176.785,-49 195.172,-49"/>
<polygon fill="#9a32cd" stroke="#9a32cd" points="137.581,-45.5001 127.58,-49 137.58,-52.5001 137.581,-45.5001"/>
<text text-anchor="middle" x="160" y="-53" font-family="FreeSans" font-size="10.00"> free_</text>
</g>
<!-- Node6&#45;&gt;Node6 -->
<g id="edge16" class="edge"><title>Node6&#45;&gt;Node6</title>
<path fill="none" stroke="#9a32cd" stroke-dasharray="5,2" d="M46.3082,-69.4266C47.6731,-74.3489 53.5703,-78 64,-78 80.6875,-78 85.772,-68.6531 79.2534,-59.7079"/>
<polygon fill="#9a32cd" stroke="#9a32cd" points="49.7078,-70.259 48.7466,-59.7079 42.9182,-68.5555 49.7078,-70.259"/>
<text text-anchor="middle" x="64" y="-82" font-family="FreeSans" font-size="10.00"> next_</text>
</g>
<!-- Node7&#45;&gt;Node1 -->
<g id="edge18" class="edge"><title>Node7&#45;&gt;Node1</title>
<path fill="none" stroke="#9a32cd" stroke-dasharray="5,2" d="M734.213,-112.151C772.3,-108.456 815.54,-104.261 849.723,-100.945"/>
<polygon fill="#9a32cd" stroke="#9a32cd" points="733.751,-108.679 724.136,-113.129 734.427,-115.647 733.751,-108.679"/>
<text text-anchor="middle" x="789" y="-114" font-family="FreeSans" font-size="10.00"> depthStates_</text>
</g>
<!-- Node8&#45;&gt;Node1 -->
<g id="edge22" class="edge"><title>Node8&#45;&gt;Node1</title>
<path fill="none" stroke="#9a32cd" stroke-dasharray="5,2" d="M734.368,-75.9659C765.384,-78.5351 800.224,-81.6453 832,-85 837.774,-85.6096 843.78,-86.2884 849.787,-86.9971"/>
<polygon fill="#9a32cd" stroke="#9a32cd" points="734.258,-72.4453 724.006,-75.1158 733.686,-79.4219 734.258,-72.4453"/>
<text text-anchor="middle" x="789" y="-89" font-family="FreeSans" font-size="10.00"> rasterizerStates_</text>
</g>
<!-- Node9&#45;&gt;Node1 -->
<g id="edge26" class="edge"><title>Node9&#45;&gt;Node1</title>
<path fill="none" stroke="#9a32cd" stroke-dasharray="5,2" d="M734.438,-34.072C765.735,-40.8959 800.731,-49.6246 832,-60 852.218,-66.7084 874.313,-76.7434 889.982,-84.3505"/>
<polygon fill="#9a32cd" stroke="#9a32cd" points="734.927,-30.5974 724.415,-31.9236 733.46,-37.4419 734.927,-30.5974"/>
<text text-anchor="middle" x="789" y="-64" font-family="FreeSans" font-size="10.00"> blendStates_</text>
</g>
</g>
</svg>
