<?xml version="1.0" encoding="UTF-8" standalone="no"?>
<!DOCTYPE svg PUBLIC "-//W3C//DTD SVG 1.1//EN"
 "http://www.w3.org/Graphics/SVG/1.1/DTD/svg11.dtd">
<!-- Generated by graphviz version 2.26.3 (20100126.1600)
 -->
<!-- Title: Urho3D::Graphics::SetShaders Pages: 1 -->
<!--zoomable 637 -->
<svg id="main" version="1.1" xmlns="http://www.w3.org/2000/svg" xmlns:xlink="http://www.w3.org/1999/xlink" xml:space="preserve" onload="init(evt)">
        <defs>
                <circle id="rim" cx="0" cy="0" r="7"/>
                <circle id="rim2" cx="0" cy="0" r="3.5"/>
                <g id="zoomPlus">
                        <use xlink:href="#rim" fill="#404040">
                                <set attributeName="fill" to="#808080" begin="zoomplus.mouseover" end="zoomplus.mouseout"/>
                        </use>
                        <path d="M-4,0h8M0,-4v8" fill="none" stroke="white" stroke-width="1.5" pointer-events="none"/>
                </g>
                <g id="zoomMin">
                        <use xlink:href="#rim" fill="#404040">
                                <set attributeName="fill" to="#808080" begin="zoomminus.mouseover" end="zoomminus.mouseout"/>
                        </use>
                        <path d="M-4,0h8" fill="none" stroke="white" stroke-width="1.5" pointer-events="none"/>
                </g>
                <g id="dirArrow">
                        <path fill="none" stroke="white" stroke-width="1.5" d="M0,-3.0v7 M-2.5,-0.5L0,-3.0L2.5,-0.5"/>
                </g>
               <g id="resetDef">
                       <use xlink:href="#rim2" fill="#404040">
                               <set attributeName="fill" to="#808080" begin="reset.mouseover" end="reset.mouseout"/>
                       </use>
               </g>
        </defs>

<script type="text/javascript">
var viewWidth = 900;
var viewHeight = 637;
var sectionId = 'dynsection-6';
</script>
<script xlink:href="svgpan.js"/>
<svg id="graph" class="graph">
<g id="viewport">
<title>Urho3D::Graphics::SetShaders</title>
<!-- Node1 -->
<g id="node1" class="node"><title>Node1</title>
<polygon fill="#bfbfbf" stroke="black" points="0,-362.5 0,-383.5 164,-383.5 164,-362.5 0,-362.5"/>
<text text-anchor="middle" x="82" y="-370.5" font-family="FreeSans" font-size="10.00">Urho3D::Graphics::SetShaders</text>
</g>
<!-- Node2 -->
<g id="node3" class="node"><title>Node2</title>
<a xlink:href="class_urho3_d_1_1_shader_variation.html#aab33e116bbdedb8ff3d21ff8730c0173" target="_top" xlink:title="Return the owner resource.">
<polygon fill="none" stroke="black" points="211,-595 211,-629 347,-629 347,-595 211,-595"/>
<text text-anchor="start" x="219" y="-616" font-family="FreeSans" font-size="10.00">Urho3D::ShaderVariation</text>
<text text-anchor="middle" x="279" y="-603" font-family="FreeSans" font-size="10.00">::GetOwner</text>
</a>
</g>
<!-- Node1&#45;&gt;Node2 -->
<g id="edge2" class="edge"><title>Node1&#45;&gt;Node2</title>
<path fill="none" stroke="midnightblue" d="M85.2142,-383.73C95.8668,-417.544 133.188,-523.066 200,-581 203.866,-584.353 208.138,-587.366 212.634,-590.071"/>
<polygon fill="midnightblue" stroke="midnightblue" points="211.051,-593.194 221.507,-594.9 214.397,-587.046 211.051,-593.194"/>
</g>
<!-- Node3 -->
<g id="node5" class="node"><title>Node3</title>
<a xlink:href="class_urho3_d_1_1_shader.html#a6b87d4cfeb2c21cf2c138aa593631f77" target="_top" xlink:title="Return a variation with defines.">
<polygon fill="none" stroke="black" points="566.5,-556.5 566.5,-577.5 725.5,-577.5 725.5,-556.5 566.5,-556.5"/>
<text text-anchor="middle" x="646" y="-564.5" font-family="FreeSans" font-size="10.00">Urho3D::Shader::GetVariation</text>
</a>
</g>
<!-- Node1&#45;&gt;Node3 -->
<g id="edge4" class="edge"><title>Node1&#45;&gt;Node3</title>
<path fill="none" stroke="midnightblue" d="M85.4016,-383.822C96.1161,-415.845 132.524,-510.251 200,-548 258.784,-580.886 443.363,-577.872 555.806,-572.549"/>
<polygon fill="midnightblue" stroke="midnightblue" points="556.302,-576.029 566.12,-572.045 555.961,-569.038 556.302,-576.029"/>
</g>
<!-- Node5 -->
<g id="node9" class="node"><title>Node5</title>
<a xlink:href="class_urho3_d_1_1_shader_variation.html#ab7c7533a1d7a15d1c8e386718a2a3acb" target="_top" xlink:title="Return defines.">
<polygon fill="none" stroke="black" points="211,-505 211,-539 347,-539 347,-505 211,-505"/>
<text text-anchor="start" x="219" y="-526" font-family="FreeSans" font-size="10.00">Urho3D::ShaderVariation</text>
<text text-anchor="middle" x="279" y="-513" font-family="FreeSans" font-size="10.00">::GetDefines</text>
</a>
</g>
<!-- Node1&#45;&gt;Node5 -->
<g id="edge8" class="edge"><title>Node1&#45;&gt;Node5</title>
<path fill="none" stroke="midnightblue" d="M89.28,-383.554C106.069,-407.128 149.921,-464.46 200,-496 202.463,-497.551 205.027,-499.019 207.662,-500.407"/>
<polygon fill="midnightblue" stroke="midnightblue" points="206.32,-503.645 216.849,-504.826 209.354,-497.337 206.32,-503.645"/>
</g>
<!-- Node6 -->
<g id="node11" class="node"><title>Node6</title>
<a xlink:href="class_urho3_d_1_1_g_p_u_object.html#a67142837fc5ed67f4b0bf7f97df2cb5d" target="_top" xlink:title="Return Direct3D object.">
<polygon fill="none" stroke="black" points="220.5,-453 220.5,-487 337.5,-487 337.5,-453 220.5,-453"/>
<text text-anchor="start" x="228.5" y="-474" font-family="FreeSans" font-size="10.00">Urho3D::GPUObject::</text>
<text text-anchor="middle" x="279" y="-461" font-family="FreeSans" font-size="10.00">GetGPUObject</text>
</a>
</g>
<!-- Node1&#45;&gt;Node6 -->
<g id="edge10" class="edge"><title>Node1&#45;&gt;Node6</title>
<path fill="none" stroke="midnightblue" d="M97.0454,-383.566C118.906,-398.56 161.096,-426.167 200,-444 204.022,-445.844 208.213,-447.618 212.474,-449.314"/>
<polygon fill="midnightblue" stroke="midnightblue" points="211.288,-452.608 221.879,-452.897 213.78,-446.066 211.288,-452.608"/>
</g>
<!-- Node7 -->
<g id="node13" class="node"><title>Node7</title>
<a xlink:href="class_urho3_d_1_1_shader_variation.html#a5edd8bf851488e3320748be9d6dd0916" target="_top" xlink:title="Return compile error/warning string.">
<polygon fill="none" stroke="black" points="211,-401 211,-435 347,-435 347,-401 211,-401"/>
<text text-anchor="start" x="219" y="-422" font-family="FreeSans" font-size="10.00">Urho3D::ShaderVariation</text>
<text text-anchor="middle" x="279" y="-409" font-family="FreeSans" font-size="10.00">::GetCompilerOutput</text>
</a>
</g>
<!-- Node1&#45;&gt;Node7 -->
<g id="edge12" class="edge"><title>Node1&#45;&gt;Node7</title>
<path fill="none" stroke="midnightblue" d="M128.188,-383.551C149.778,-388.482 176.091,-394.493 200.657,-400.104"/>
<polygon fill="midnightblue" stroke="midnightblue" points="200.167,-403.582 210.695,-402.397 201.726,-396.758 200.167,-403.582"/>
</g>
<!-- Node8 -->
<g id="node15" class="node"><title>Node8</title>
<a xlink:href="class_urho3_d_1_1_string.html#a69ac7aadaa628fc05fc96abde992fcdc" target="_top" xlink:title="Return whether the string is empty.">
<polygon fill="none" stroke="black" points="764.5,-458.5 764.5,-479.5 889.5,-479.5 889.5,-458.5 764.5,-458.5"/>
<text text-anchor="middle" x="827" y="-466.5" font-family="FreeSans" font-size="10.00">Urho3D::String::Empty</text>
</a>
</g>
<!-- Node1&#45;&gt;Node8 -->
<g id="edge14" class="edge"><title>Node1&#45;&gt;Node8</title>
<path fill="none" stroke="midnightblue" d="M92.3016,-362.344C128.986,-325.269 258.328,-201.895 394,-160 429.107,-149.159 711.436,-152.3 726,-163 773.846,-198.154 811.784,-385.373 823.352,-448.329"/>
<polygon fill="midnightblue" stroke="midnightblue" points="819.925,-449.046 825.147,-458.265 826.813,-447.802 819.925,-449.046"/>
</g>
<!-- Node9 -->
<g id="node17" class="node"><title>Node9</title>
<a xlink:href="class_urho3_d_1_1_shader_variation.html#a796302110897b35c3faf6c18208e289c" target="_top" xlink:title="Compile the shader. Return true if successful.">
<polygon fill="none" stroke="black" points="211,-311 211,-345 347,-345 347,-311 211,-311"/>
<text text-anchor="start" x="219" y="-332" font-family="FreeSans" font-size="10.00">Urho3D::ShaderVariation</text>
<text text-anchor="middle" x="279" y="-319" font-family="FreeSans" font-size="10.00">::Create</text>
</a>
</g>
<!-- Node1&#45;&gt;Node9 -->
<g id="edge16" class="edge"><title>Node1&#45;&gt;Node9</title>
<path fill="none" stroke="midnightblue" d="M128.188,-362.449C149.778,-357.518 176.091,-351.507 200.657,-345.896"/>
<polygon fill="midnightblue" stroke="midnightblue" points="201.726,-349.242 210.695,-343.603 200.167,-342.418 201.726,-349.242"/>
</g>
<!-- Node17 -->
<g id="node36" class="node"><title>Node17</title>
<a xlink:href="class_urho3_d_1_1_shader_variation.html#a6da1356b18b052d0413ff106934103fc" target="_top" xlink:title="Return full shader name.">
<polygon fill="none" stroke="black" points="578,-400 578,-434 714,-434 714,-400 578,-400"/>
<text text-anchor="start" x="586" y="-421" font-family="FreeSans" font-size="10.00">Urho3D::ShaderVariation</text>
<text text-anchor="middle" x="646" y="-408" font-family="FreeSans" font-size="10.00">::GetFullName</text>
</a>
</g>
<!-- Node1&#45;&gt;Node17 -->
<g id="edge54" class="edge"><title>Node1&#45;&gt;Node17</title>
<path fill="none" stroke="midnightblue" d="M164.144,-372.205C219.525,-373.236 293.899,-377.679 358,-392 374.754,-395.743 377.2,-402.467 394,-406 451.332,-418.056 517.563,-420.515 567.735,-420.116"/>
<polygon fill="midnightblue" stroke="midnightblue" points="567.91,-423.614 577.867,-419.995 567.826,-416.614 567.91,-423.614"/>
</g>
<!-- Node21 -->
<g id="node49" class="node"><title>Node21</title>
<a xlink:href="class_urho3_d_1_1_hash_map.html#a9dc4e5c0ad1feb3eec2d2f1f1714698d" target="_top" xlink:title="Return iterator to the pair with key, or end iterator if not found.">
<polygon fill="none" stroke="black" points="214.5,-118.5 214.5,-139.5 343.5,-139.5 343.5,-118.5 214.5,-118.5"/>
<text text-anchor="middle" x="279" y="-126.5" font-family="FreeSans" font-size="10.00">Urho3D::HashMap::Find</text>
</a>
</g>
<!-- Node1&#45;&gt;Node21 -->
<g id="edge56" class="edge"><title>Node1&#45;&gt;Node21</title>
<path fill="none" stroke="midnightblue" d="M84.7376,-362.009C94.183,-326.375 128.809,-212.94 200,-154 204.945,-149.906 210.566,-146.48 216.478,-143.613"/>
<polygon fill="midnightblue" stroke="midnightblue" points="218.139,-146.709 225.952,-139.552 215.382,-140.275 218.139,-146.709"/>
</g>
<!-- Node22 -->
<g id="node51" class="node"><title>Node22</title>
<a xlink:href="class_urho3_d_1_1_hash_map.html#a47eb201d8441d4e4be8626e615cb562d" target="_top" xlink:title="Return iterator to the end.">
<polygon fill="none" stroke="black" points="215,-78.5 215,-99.5 343,-99.5 343,-78.5 215,-78.5"/>
<text text-anchor="middle" x="279" y="-86.5" font-family="FreeSans" font-size="10.00">Urho3D::HashMap::End</text>
</a>
</g>
<!-- Node1&#45;&gt;Node22 -->
<g id="edge58" class="edge"><title>Node1&#45;&gt;Node22</title>
<path fill="none" stroke="midnightblue" d="M83.409,-362.484C89.3208,-322.657 115.853,-179.762 200,-109 201.99,-107.327 204.101,-105.791 206.305,-104.381"/>
<polygon fill="midnightblue" stroke="midnightblue" points="208.097,-107.391 215.215,-99.5442 204.757,-101.239 208.097,-107.391"/>
</g>
<!-- Node23 -->
<g id="node53" class="node"><title>Node23</title>
<a xlink:href="class_urho3_d_1_1_graphics.html#a4738d35a14589f7d2ff4946fd48b2381" target="_top" xlink:title="Set shader float constants.">
<polygon fill="none" stroke="black" points="200,-26 200,-60 358,-60 358,-26 200,-26"/>
<text text-anchor="start" x="208" y="-47" font-family="FreeSans" font-size="10.00">Urho3D::Graphics::SetShader</text>
<text text-anchor="middle" x="279" y="-34" font-family="FreeSans" font-size="10.00">Parameter</text>
</a>
</g>
<!-- Node1&#45;&gt;Node23 -->
<g id="edge60" class="edge"><title>Node1&#45;&gt;Node23</title>
<path fill="none" stroke="midnightblue" d="M82.9247,-362.336C87.2442,-319.108 109.245,-155.128 200,-69 201.113,-67.9439 202.269,-66.9308 203.464,-65.9587"/>
<polygon fill="midnightblue" stroke="midnightblue" points="205.639,-68.7094 211.844,-60.1219 201.638,-62.9653 205.639,-68.7094"/>
</g>
<!-- Node4 -->
<g id="node7" class="node"><title>Node4</title>
<a xlink:href="class_urho3_d_1_1_string.html#a6b405eba451da6c0f216a8649adf79aa" target="_top" xlink:title="Return the C string.">
<polygon fill="none" stroke="black" points="762.5,-510.5 762.5,-531.5 891.5,-531.5 891.5,-510.5 762.5,-510.5"/>
<text text-anchor="middle" x="827" y="-518.5" font-family="FreeSans" font-size="10.00">Urho3D::String::CString</text>
</a>
</g>
<!-- Node3&#45;&gt;Node4 -->
<g id="edge6" class="edge"><title>Node3&#45;&gt;Node4</title>
<path fill="none" stroke="midnightblue" d="M688.362,-556.468C700.519,-553.43 713.789,-550.098 726,-547 742.423,-542.833 760.335,-538.239 776.453,-534.086"/>
<polygon fill="midnightblue" stroke="midnightblue" points="777.419,-537.451 786.228,-531.565 775.671,-530.673 777.419,-537.451"/>
</g>
<!-- Node10 -->
<g id="node19" class="node"><title>Node10</title>
<a xlink:href="class_urho3_d_1_1_shader_variation.html#ad356475c4c1d8b88b3469cf7a6acef67" target="_top" xlink:title="Release the shader.">
<polygon fill="none" stroke="black" points="394,-169 394,-203 530,-203 530,-169 394,-169"/>
<text text-anchor="start" x="402" y="-190" font-family="FreeSans" font-size="10.00">Urho3D::ShaderVariation</text>
<text text-anchor="middle" x="462" y="-177" font-family="FreeSans" font-size="10.00">::Release</text>
</a>
</g>
<!-- Node9&#45;&gt;Node10 -->
<g id="edge18" class="edge"><title>Node9&#45;&gt;Node10</title>
<path fill="none" stroke="midnightblue" d="M292.081,-310.767C311.752,-285.894 351.232,-239.865 394,-212 396.303,-210.499 398.706,-209.066 401.175,-207.699"/>
<polygon fill="midnightblue" stroke="midnightblue" points="403.012,-210.692 410.342,-203.042 399.841,-204.451 403.012,-210.692"/>
</g>
<!-- Node13 -->
<g id="node25" class="node"><title>Node13</title>
<a xlink:href="class_urho3_d_1_1_string_hash.html#aa6a3cc97942d1840f4f649591b165099" target="_top" xlink:title="Return as string.">
<polygon fill="none" stroke="black" points="405.5,-311 405.5,-345 518.5,-345 518.5,-311 405.5,-311"/>
<text text-anchor="start" x="413.5" y="-332" font-family="FreeSans" font-size="10.00">Urho3D::StringHash</text>
<text text-anchor="middle" x="462" y="-319" font-family="FreeSans" font-size="10.00">::ToString</text>
</a>
</g>
<!-- Node9&#45;&gt;Node13 -->
<g id="edge24" class="edge"><title>Node9&#45;&gt;Node13</title>
<path fill="none" stroke="midnightblue" d="M347.142,-328C362.898,-328 379.643,-328 395.334,-328"/>
<polygon fill="midnightblue" stroke="midnightblue" points="395.472,-331.5 405.472,-328 395.472,-324.5 395.472,-331.5"/>
</g>
<!-- Node14 -->
<g id="node27" class="node"><title>Node14</title>
<a xlink:href="class_urho3_d_1_1_shader_variation.html#a521f1e28728cc83e54757f91131a8d07" target="_top" xlink:title="Load bytecode from a file. Return true if successful.">
<polygon fill="none" stroke="red" points="394,-453 394,-487 530,-487 530,-453 394,-453"/>
<text text-anchor="start" x="402" y="-474" font-family="FreeSans" font-size="10.00">Urho3D::ShaderVariation</text>
<text text-anchor="middle" x="462" y="-461" font-family="FreeSans" font-size="10.00">::LoadByteCode</text>
</a>
</g>
<!-- Node9&#45;&gt;Node14 -->
<g id="edge26" class="edge"><title>Node9&#45;&gt;Node14</title>
<path fill="none" stroke="midnightblue" d="M301.074,-345.129C333.637,-370.396 394.658,-417.746 431.484,-446.321"/>
<polygon fill="midnightblue" stroke="midnightblue" points="429.801,-449.445 439.848,-452.811 434.093,-443.915 429.801,-449.445"/>
</g>
<!-- Node18 -->
<g id="node38" class="node"><title>Node18</title>
<a xlink:href="class_urho3_d_1_1_shader_variation.html#aba1943001c9b78648ee27df03dfd1abf" target="_top" xlink:title="Compile from source. Return true if successful.">
<polygon fill="none" stroke="red" points="394,-363 394,-397 530,-397 530,-363 394,-363"/>
<text text-anchor="start" x="402" y="-384" font-family="FreeSans" font-size="10.00">Urho3D::ShaderVariation</text>
<text text-anchor="middle" x="462" y="-371" font-family="FreeSans" font-size="10.00">::Compile</text>
</a>
</g>
<!-- Node9&#45;&gt;Node18 -->
<g id="edge40" class="edge"><title>Node9&#45;&gt;Node18</title>
<path fill="none" stroke="midnightblue" d="M338.921,-345.027C355.984,-349.875 374.716,-355.198 392.307,-360.197"/>
<polygon fill="midnightblue" stroke="midnightblue" points="391.368,-363.568 401.944,-362.935 393.282,-356.835 391.368,-363.568"/>
</g>
<!-- Node19 -->
<g id="node42" class="node"><title>Node19</title>
<a xlink:href="class_urho3_d_1_1_p_o_d_vector.html#a4fe0251ca70afca844721a4a44717c83" target="_top" xlink:title="Return number of elements.">
<polygon fill="none" stroke="black" points="577.5,-272.5 577.5,-293.5 714.5,-293.5 714.5,-272.5 577.5,-272.5"/>
<text text-anchor="middle" x="646" y="-280.5" font-family="FreeSans" font-size="10.00">Urho3D::PODVector::Size</text>
</a>
</g>
<!-- Node9&#45;&gt;Node19 -->
<g id="edge52" class="edge"><title>Node9&#45;&gt;Node19</title>
<path fill="none" stroke="midnightblue" d="M346.794,-310.935C362.23,-307.535 378.615,-304.306 394,-302 451.642,-293.359 517.321,-288.57 567.173,-285.961"/>
<polygon fill="midnightblue" stroke="midnightblue" points="567.433,-289.453 577.244,-285.453 567.08,-282.462 567.433,-289.453"/>
</g>
<!-- Node20 -->
<g id="node44" class="node"><title>Node20</title>
<a xlink:href="class_urho3_d_1_1_shader_variation.html#a5b73d61548e40e1554472b77873f6a8d" target="_top" xlink:title="Save bytecode to a file.">
<polygon fill="none" stroke="red" points="394,-221 394,-255 530,-255 530,-221 394,-221"/>
<text text-anchor="start" x="402" y="-242" font-family="FreeSans" font-size="10.00">Urho3D::ShaderVariation</text>
<text text-anchor="middle" x="462" y="-229" font-family="FreeSans" font-size="10.00">::SaveByteCode</text>
</a>
</g>
<!-- Node9&#45;&gt;Node20 -->
<g id="edge48" class="edge"><title>Node9&#45;&gt;Node20</title>
<path fill="none" stroke="midnightblue" d="M311.514,-310.81C334.435,-298.818 365.926,-282.592 394,-269 400.583,-265.813 407.565,-262.526 414.45,-259.338"/>
<polygon fill="midnightblue" stroke="midnightblue" points="416.108,-262.428 423.732,-255.071 413.184,-256.068 416.108,-262.428"/>
</g>
<!-- Node11 -->
<g id="node21" class="node"><title>Node11</title>
<a xlink:href="class_urho3_d_1_1_string.html#ac6f0b2fb0bce5afbeb088c7cb15abbe1" target="_top" xlink:title="Clear the string.">
<polygon fill="none" stroke="red" points="586.5,-172.5 586.5,-193.5 705.5,-193.5 705.5,-172.5 586.5,-172.5"/>
<text text-anchor="middle" x="646" y="-180.5" font-family="FreeSans" font-size="10.00">Urho3D::String::Clear</text>
</a>
</g>
<!-- Node10&#45;&gt;Node11 -->
<g id="edge20" class="edge"><title>Node10&#45;&gt;Node11</title>
<path fill="none" stroke="midnightblue" d="M530.253,-184.887C545.211,-184.643 561.068,-184.385 576.089,-184.14"/>
<polygon fill="midnightblue" stroke="midnightblue" points="576.392,-187.635 586.334,-183.973 576.278,-180.636 576.392,-187.635"/>
</g>
<!-- Node12 -->
<g id="node23" class="node"><title>Node12</title>
<a xlink:href="class_urho3_d_1_1_p_o_d_vector.html#a56e61cb5b8216360fd62b20eb78b5faf" target="_top" xlink:title="Clear the vector.">
<polygon fill="none" stroke="black" points="587.5,-212 587.5,-246 704.5,-246 704.5,-212 587.5,-212"/>
<text text-anchor="start" x="595.5" y="-233" font-family="FreeSans" font-size="10.00">Urho3D::PODVector::</text>
<text text-anchor="middle" x="646" y="-220" font-family="FreeSans" font-size="10.00">Clear</text>
</a>
</g>
<!-- Node10&#45;&gt;Node12 -->
<g id="edge22" class="edge"><title>Node10&#45;&gt;Node12</title>
<path fill="none" stroke="midnightblue" d="M530.253,-201.951C545.606,-205.538 561.907,-209.348 577.279,-212.94"/>
<polygon fill="midnightblue" stroke="midnightblue" points="576.693,-216.398 587.227,-215.265 578.286,-209.581 576.693,-216.398"/>
</g>
<!-- Node15 -->
<g id="node29" class="node"><title>Node15</title>
<a xlink:href="class_urho3_d_1_1_resource_cache.html#a94659e6c04c0bb9791019913b7866252" target="_top" xlink:title="Return whether a file exists by name.">
<polygon fill="none" stroke="red" points="579.5,-452 579.5,-486 712.5,-486 712.5,-452 579.5,-452"/>
<text text-anchor="start" x="587.5" y="-473" font-family="FreeSans" font-size="10.00">Urho3D::ResourceCache</text>
<text text-anchor="middle" x="646" y="-460" font-family="FreeSans" font-size="10.00">::Exists</text>
</a>
</g>
<!-- Node14&#45;&gt;Node15 -->
<g id="edge28" class="edge"><title>Node14&#45;&gt;Node15</title>
<path fill="none" stroke="midnightblue" d="M530.253,-469.629C542.923,-469.56 556.238,-469.488 569.145,-469.418"/>
<polygon fill="midnightblue" stroke="midnightblue" points="569.407,-472.916 579.387,-469.362 569.368,-465.917 569.407,-472.916"/>
</g>
<!-- Node16 -->
<g id="node32" class="node"><title>Node16</title>
<a xlink:href="class_urho3_d_1_1_file_system.html#ab597bbe58fed7bbc825c8c01f5b2d60c" target="_top" xlink:title="Returns the file&#39;s last modified time as seconds since 1.1.1970, or 0 if can not be accessed...">
<polygon fill="none" stroke="red" points="584.5,-504 584.5,-538 707.5,-538 707.5,-504 584.5,-504"/>
<text text-anchor="start" x="592.5" y="-525" font-family="FreeSans" font-size="10.00">Urho3D::FileSystem</text>
<text text-anchor="middle" x="646" y="-512" font-family="FreeSans" font-size="10.00">::GetLastModifiedTime</text>
</a>
</g>
<!-- Node14&#45;&gt;Node16 -->
<g id="edge32" class="edge"><title>Node14&#45;&gt;Node16</title>
<path fill="none" stroke="midnightblue" d="M523.525,-487.053C539.944,-491.604 557.822,-496.559 574.717,-501.242"/>
<polygon fill="midnightblue" stroke="midnightblue" points="573.961,-504.665 584.533,-503.963 575.831,-497.919 573.961,-504.665"/>
</g>
<!-- Node14&#45;&gt;Node17 -->
<g id="edge38" class="edge"><title>Node14&#45;&gt;Node17</title>
<path fill="none" stroke="midnightblue" d="M521.232,-452.939C539.042,-447.809 558.737,-442.136 577.116,-436.842"/>
<polygon fill="midnightblue" stroke="midnightblue" points="578.239,-440.161 586.879,-434.029 576.301,-433.434 578.239,-440.161"/>
</g>
<!-- Node15&#45;&gt;Node8 -->
<g id="edge30" class="edge"><title>Node15&#45;&gt;Node8</title>
<path fill="none" stroke="midnightblue" d="M712.627,-469C726.121,-469 740.378,-469 754.077,-469"/>
<polygon fill="midnightblue" stroke="midnightblue" points="754.421,-472.5 764.421,-469 754.421,-465.5 754.421,-472.5"/>
</g>
<!-- Node16&#45;&gt;Node4 -->
<g id="edge36" class="edge"><title>Node16&#45;&gt;Node4</title>
<path fill="none" stroke="midnightblue" d="M707.531,-521C721.853,-521 737.258,-521 752.086,-521"/>
<polygon fill="midnightblue" stroke="midnightblue" points="752.24,-524.5 762.24,-521 752.24,-517.5 752.24,-524.5"/>
</g>
<!-- Node16&#45;&gt;Node8 -->
<g id="edge34" class="edge"><title>Node16&#45;&gt;Node8</title>
<path fill="none" stroke="midnightblue" d="M705.266,-503.973C729.694,-496.955 757.583,-488.943 780.498,-482.36"/>
<polygon fill="midnightblue" stroke="midnightblue" points="781.673,-485.664 790.317,-479.539 779.74,-478.936 781.673,-485.664"/>
</g>
<!-- Node18&#45;&gt;Node4 -->
<g id="edge44" class="edge"><title>Node18&#45;&gt;Node4</title>
<path fill="none" stroke="midnightblue" d="M530.275,-363.481C587.972,-353.699 669.945,-350.112 726,-391 763.488,-418.345 730.964,-454.506 762,-489 768.24,-495.935 776.321,-501.538 784.652,-505.998"/>
<polygon fill="midnightblue" stroke="midnightblue" points="783.19,-509.179 793.714,-510.399 786.247,-502.882 783.19,-509.179"/>
</g>
<!-- Node18&#45;&gt;Node17 -->
<g id="edge42" class="edge"><title>Node18&#45;&gt;Node17</title>
<path fill="none" stroke="midnightblue" d="M530.253,-393.725C542.52,-396.191 555.391,-398.78 567.91,-401.297"/>
<polygon fill="midnightblue" stroke="midnightblue" points="567.363,-404.757 577.857,-403.297 568.743,-397.895 567.363,-404.757"/>
</g>
<!-- Node18&#45;&gt;Node19 -->
<g id="edge46" class="edge"><title>Node18&#45;&gt;Node19</title>
<path fill="none" stroke="midnightblue" d="M510.033,-362.909C516.823,-360.126 523.649,-357.125 530,-354 563.292,-337.62 599.42,-314.597 622.359,-299.259"/>
<polygon fill="midnightblue" stroke="midnightblue" points="624.427,-302.085 630.759,-293.59 620.512,-296.283 624.427,-302.085"/>
</g>
<!-- Node20&#45;&gt;Node19 -->
<g id="edge50" class="edge"><title>Node20&#45;&gt;Node19</title>
<path fill="none" stroke="midnightblue" d="M530.253,-254.692C550.981,-259.762 573.436,-265.253 593.002,-270.039"/>
<polygon fill="midnightblue" stroke="midnightblue" points="592.401,-273.495 602.946,-272.471 594.064,-266.695 592.401,-273.495"/>
</g>
<!-- Node24 -->
<g id="node55" class="node"><title>Node24</title>
<a xlink:href="class_urho3_d_1_1_constant_buffer.html#ae0945cead0ad3a4557db5936df4159ac" target="_top" xlink:title="Return whether has unapplied data.">
<polygon fill="none" stroke="black" points="396.5,-52 396.5,-86 527.5,-86 527.5,-52 396.5,-52"/>
<text text-anchor="start" x="404.5" y="-73" font-family="FreeSans" font-size="10.00">Urho3D::ConstantBuffer</text>
<text text-anchor="middle" x="462" y="-60" font-family="FreeSans" font-size="10.00">::IsDirty</text>
</a>
</g>
<!-- Node23&#45;&gt;Node24 -->
<g id="edge62" class="edge"><title>Node23&#45;&gt;Node24</title>
<path fill="none" stroke="midnightblue" d="M358.202,-54.2528C367.566,-55.5832 377.105,-56.9384 386.417,-58.2614"/>
<polygon fill="midnightblue" stroke="midnightblue" points="386.02,-61.7402 396.413,-59.6817 387.005,-54.8098 386.02,-61.7402"/>
</g>
<!-- Node25 -->
<g id="node57" class="node"><title>Node25</title>
<a xlink:href="class_urho3_d_1_1_constant_buffer.html#a0a964b0e54b8c97bd86721b614f2b769" target="_top" xlink:title="Set a generic parameter and mark buffer dirty.">
<polygon fill="none" stroke="black" points="396.5,-0 396.5,-34 527.5,-34 527.5,-0 396.5,-0"/>
<text text-anchor="start" x="404.5" y="-21" font-family="FreeSans" font-size="10.00">Urho3D::ConstantBuffer</text>
<text text-anchor="middle" x="462" y="-8" font-family="FreeSans" font-size="10.00">::SetParameter</text>
</a>
</g>
<!-- Node23&#45;&gt;Node25 -->
<g id="edge64" class="edge"><title>Node23&#45;&gt;Node25</title>
<path fill="none" stroke="midnightblue" d="M358.202,-31.7472C367.566,-30.4168 377.105,-29.0616 386.417,-27.7386"/>
<polygon fill="midnightblue" stroke="midnightblue" points="387.005,-31.1902 396.413,-26.3183 386.02,-24.2598 387.005,-31.1902"/>
</g>
</g>
</svg>
        <g id="navigator" transform="translate(0 0)" fill="#404254">
                <rect fill="#f2f5e9" fill-opacity="0.5" stroke="#606060" stroke-width=".5" x="0" y="0" width="60" height="60"/>
                <use id="zoomplus" xlink:href="#zoomPlus" x="17" y="9" onmousedown="handleZoom(evt,'in')"/>
                <use id="zoomminus" xlink:href="#zoomMin" x="42" y="9" onmousedown="handleZoom(evt,'out')"/>
                <use id="reset" xlink:href="#resetDef" x="30" y="36" onmousedown="handleReset()"/>
                <g id="arrowUp" xlink:href="#dirArrow" transform="translate(30 24)" onmousedown="handlePan(0,-1)">
                  <use xlink:href="#rim" fill="#404040">
                        <set attributeName="fill" to="#808080" begin="arrowUp.mouseover" end="arrowUp.mouseout"/>
                  </use>
                  <path fill="none" stroke="white" stroke-width="1.5" d="M0,-3.0v7 M-2.5,-0.5L0,-3.0L2.5,-0.5"/>
                </g>
                <g id="arrowRight" xlink:href="#dirArrow" transform="rotate(90) translate(36 -43)" onmousedown="handlePan(1,0)">
                  <use xlink:href="#rim" fill="#404040">
                        <set attributeName="fill" to="#808080" begin="arrowRight.mouseover" end="arrowRight.mouseout"/>
                  </use>
                  <path fill="none" stroke="white" stroke-width="1.5" d="M0,-3.0v7 M-2.5,-0.5L0,-3.0L2.5,-0.5"/>
                </g>
                <g id="arrowDown" xlink:href="#dirArrow" transform="rotate(180) translate(-30 -48)" onmousedown="handlePan(0,1)">
                  <use xlink:href="#rim" fill="#404040">
                        <set attributeName="fill" to="#808080" begin="arrowDown.mouseover" end="arrowDown.mouseout"/>
                  </use>
                  <path fill="none" stroke="white" stroke-width="1.5" d="M0,-3.0v7 M-2.5,-0.5L0,-3.0L2.5,-0.5"/>
                </g>
                <g id="arrowLeft" xlink:href="#dirArrow" transform="rotate(270) translate(-36 17)" onmousedown="handlePan(-1,0)">
                  <use xlink:href="#rim" fill="#404040">
                        <set attributeName="fill" to="#808080" begin="arrowLeft.mouseover" end="arrowLeft.mouseout"/>
                  </use>
                  <path fill="none" stroke="white" stroke-width="1.5" d="M0,-3.0v7 M-2.5,-0.5L0,-3.0L2.5,-0.5"/>
                </g>
        </g>
        <svg viewBox="0 0 15 15" width="100%" height="30px" preserveAspectRatio="xMaxYMin meet">
         <g id="arrow_out" transform="scale(0.3 0.3)">
          <a xlink:href="class_urho3_d_1_1_graphics_a1f9ba79f344a68937947b6416685fe3a_cgraph_org.svg" target="_base">
           <rect id="button" ry="5" rx="5" y="6" x="6" height="38" width="38"
                fill="#f2f5e9" fill-opacity="0.5" stroke="#606060" stroke-width="1.0"/>
           <path id="arrow"
             d="M 11.500037,31.436501 C 11.940474,20.09759 22.043105,11.32322 32.158766,21.979434 L 37.068811,17.246167 C 37.068811,17.246167 37.088388,32 37.088388,32 L 22.160133,31.978069 C 22.160133,31.978069 26.997745,27.140456 26.997745,27.140456 C 18.528582,18.264221 13.291696,25.230495 11.500037,31.436501 z"
             style="fill:#404040;"/>
          </a>
         </g>
        </svg>
</svg>
