<?xml version="1.0" encoding="UTF-8" standalone="no"?>
<!DOCTYPE svg PUBLIC "-//W3C//DTD SVG 1.1//EN"
 "http://www.w3.org/Graphics/SVG/1.1/DTD/svg11.dtd">
<!-- Generated by graphviz version 2.26.3 (20100126.1600)
 -->
<!-- Title: Urho3D::Renderer::GetShadowMap Pages: 1 -->
<svg width="1016pt" height="670pt"
 viewBox="0.00 0.00 1016.00 670.00" xmlns="http://www.w3.org/2000/svg" xmlns:xlink="http://www.w3.org/1999/xlink">
<g id="graph1" class="graph" transform="scale(1 1) rotate(0) translate(4 666)">
<title>Urho3D::Renderer::GetShadowMap</title>
<!-- Node1 -->
<g id="node1" class="node"><title>Node1</title>
<polygon fill="#bfbfbf" stroke="black" points="0.5,-334.5 0.5,-355.5 183.5,-355.5 183.5,-334.5 0.5,-334.5"/>
<text text-anchor="middle" x="92" y="-342.5" font-family="FreeSans" font-size="10.00">Urho3D::Renderer::GetShadowMap</text>
</g>
<!-- Node2 -->
<g id="node3" class="node"><title>Node2</title>
<a xlink:href="class_urho3_d_1_1_light.html#af45d4adeed71b11d7b505004bb526811" target="_top" xlink:title="Return light type.">
<polygon fill="none" stroke="black" points="229,-640.5 229,-661.5 379,-661.5 379,-640.5 229,-640.5"/>
<text text-anchor="middle" x="304" y="-648.5" font-family="FreeSans" font-size="10.00">Urho3D::Light::GetLightType</text>
</a>
</g>
<!-- Node1&#45;&gt;Node2 -->
<g id="edge2" class="edge"><title>Node1&#45;&gt;Node2</title>
<path fill="none" stroke="midnightblue" d="M93.3729,-355.559C99.4209,-397.597 127.632,-554.476 220,-631 222.02,-632.674 224.157,-634.212 226.384,-635.626"/>
<polygon fill="midnightblue" stroke="midnightblue" points="224.912,-638.808 235.373,-640.483 228.239,-632.65 224.912,-638.808"/>
</g>
<!-- Node3 -->
<g id="node5" class="node"><title>Node3</title>
<a xlink:href="class_urho3_d_1_1_light.html#a4bf62991616e9a38efe521f8ad27fb1f" target="_top" xlink:title="Return shadow map focus parameters.">
<polygon fill="none" stroke="black" points="232.5,-588 232.5,-622 375.5,-622 375.5,-588 232.5,-588"/>
<text text-anchor="start" x="240.5" y="-609" font-family="FreeSans" font-size="10.00">Urho3D::Light::GetShadow</text>
<text text-anchor="middle" x="304" y="-596" font-family="FreeSans" font-size="10.00">Focus</text>
</a>
</g>
<!-- Node1&#45;&gt;Node3 -->
<g id="edge4" class="edge"><title>Node1&#45;&gt;Node3</title>
<path fill="none" stroke="midnightblue" d="M94.7263,-355.717C104.674,-392.632 142.556,-515.703 220,-579 221.551,-580.268 223.165,-581.474 224.829,-582.622"/>
<polygon fill="midnightblue" stroke="midnightblue" points="223.163,-585.704 233.531,-587.885 226.785,-579.715 223.163,-585.704"/>
</g>
<!-- Node4 -->
<g id="node7" class="node"><title>Node4</title>
<a xlink:href="class_urho3_d_1_1_light.html#aaa05c515672ed24c9bce8818ba005eeb" target="_top" xlink:title="Return shadow resolution.">
<polygon fill="none" stroke="black" points="232.5,-536 232.5,-570 375.5,-570 375.5,-536 232.5,-536"/>
<text text-anchor="start" x="240.5" y="-557" font-family="FreeSans" font-size="10.00">Urho3D::Light::GetShadow</text>
<text text-anchor="middle" x="304" y="-544" font-family="FreeSans" font-size="10.00">Resolution</text>
</a>
</g>
<!-- Node1&#45;&gt;Node4 -->
<g id="edge6" class="edge"><title>Node1&#45;&gt;Node4</title>
<path fill="none" stroke="midnightblue" d="M96.9746,-355.863C111.502,-386.434 156.862,-474.09 220,-522 224.601,-525.491 229.636,-528.622 234.882,-531.424"/>
<polygon fill="midnightblue" stroke="midnightblue" points="233.352,-534.571 243.871,-535.833 236.434,-528.287 233.352,-534.571"/>
</g>
<!-- Node5 -->
<g id="node9" class="node"><title>Node5</title>
<a xlink:href="class_urho3_d_1_1_camera.html#ac362ac9c057c3546e19cedaf23185438" target="_top" xlink:title="Return view matrix.">
<polygon fill="none" stroke="black" points="232.5,-458.5 232.5,-479.5 375.5,-479.5 375.5,-458.5 232.5,-458.5"/>
<text text-anchor="middle" x="304" y="-466.5" font-family="FreeSans" font-size="10.00">Urho3D::Camera::GetView</text>
</a>
</g>
<!-- Node1&#45;&gt;Node5 -->
<g id="edge8" class="edge"><title>Node1&#45;&gt;Node5</title>
<path fill="none" stroke="midnightblue" d="M102.675,-355.541C123.501,-375.555 171.753,-419.261 220,-444 228.642,-448.431 238.196,-452.207 247.671,-455.378"/>
<polygon fill="midnightblue" stroke="midnightblue" points="246.885,-458.8 257.474,-458.467 248.988,-452.124 246.885,-458.8"/>
</g>
<!-- Node7 -->
<g id="node13" class="node"><title>Node7</title>
<a xlink:href="class_urho3_d_1_1_node.html#a92372a305fa427e9ce58df7f37a684ba" target="_top" xlink:title="Return position in world space.">
<polygon fill="none" stroke="black" points="633.5,-452.5 633.5,-473.5 804.5,-473.5 804.5,-452.5 633.5,-452.5"/>
<text text-anchor="middle" x="719" y="-460.5" font-family="FreeSans" font-size="10.00">Urho3D::Node::GetWorldPosition</text>
</a>
</g>
<!-- Node1&#45;&gt;Node7 -->
<g id="edge22" class="edge"><title>Node1&#45;&gt;Node7</title>
<path fill="none" stroke="midnightblue" d="M97.331,-355.69C112.131,-383.991 156.837,-460.636 220,-489 377.733,-559.833 592.341,-504.605 679.642,-476.677"/>
<polygon fill="midnightblue" stroke="midnightblue" points="680.733,-480.003 689.158,-473.578 678.566,-473.347 680.733,-480.003"/>
</g>
<!-- Node10 -->
<g id="node19" class="node"><title>Node10</title>
<a xlink:href="class_urho3_d_1_1_camera.html#a2ec28df0c7d7d50f17eb6af6d41ccfad" target="_top" xlink:title="Return API&#45;specific projection matrix.">
<polygon fill="none" stroke="black" points="220,-380.5 220,-401.5 388,-401.5 388,-380.5 220,-380.5"/>
<text text-anchor="middle" x="304" y="-388.5" font-family="FreeSans" font-size="10.00">Urho3D::Camera::GetProjection</text>
</a>
</g>
<!-- Node1&#45;&gt;Node10 -->
<g id="edge18" class="edge"><title>Node1&#45;&gt;Node10</title>
<path fill="none" stroke="midnightblue" d="M140.637,-355.553C171.878,-362.332 212.633,-371.175 245.62,-378.333"/>
<polygon fill="midnightblue" stroke="midnightblue" points="245.074,-381.796 255.589,-380.496 246.559,-374.955 245.074,-381.796"/>
</g>
<!-- Node11 -->
<g id="node21" class="node"><title>Node11</title>
<a xlink:href="class_urho3_d_1_1_component.html#aaf7a7d9aea4ae4bcc527a5f0c33f3f1a" target="_top" xlink:title="Return scene node.">
<polygon fill="none" stroke="black" points="243,-328 243,-362 365,-362 365,-328 243,-328"/>
<text text-anchor="start" x="251" y="-349" font-family="FreeSans" font-size="10.00">Urho3D::Component::</text>
<text text-anchor="middle" x="304" y="-336" font-family="FreeSans" font-size="10.00">GetNode</text>
</a>
</g>
<!-- Node1&#45;&gt;Node11 -->
<g id="edge20" class="edge"><title>Node1&#45;&gt;Node11</title>
<path fill="none" stroke="midnightblue" d="M183.753,-345C200.185,-345 217.082,-345 232.826,-345"/>
<polygon fill="midnightblue" stroke="midnightblue" points="232.989,-348.5 242.989,-345 232.989,-341.5 232.989,-348.5"/>
</g>
<!-- Node12 -->
<g id="node24" class="node"><title>Node12</title>
<a xlink:href="class_urho3_d_1_1_light.html#a2b7ae39dce58fc351f4a4c693aa8cc4f" target="_top" xlink:title="Return range.">
<polygon fill="none" stroke="black" points="236,-288.5 236,-309.5 372,-309.5 372,-288.5 236,-288.5"/>
<text text-anchor="middle" x="304" y="-296.5" font-family="FreeSans" font-size="10.00">Urho3D::Light::GetRange</text>
</a>
</g>
<!-- Node1&#45;&gt;Node12 -->
<g id="edge24" class="edge"><title>Node1&#45;&gt;Node12</title>
<path fill="none" stroke="midnightblue" d="M140.637,-334.447C171.878,-327.668 212.633,-318.825 245.62,-311.667"/>
<polygon fill="midnightblue" stroke="midnightblue" points="246.559,-315.045 255.589,-309.504 245.074,-308.204 246.559,-315.045"/>
</g>
<!-- Node13 -->
<g id="node26" class="node"><title>Node13</title>
<a xlink:href="class_urho3_d_1_1_bounding_box.html#afd34713236804d7207ce7fd709e99db9" target="_top" xlink:title="Define from another bounding box.">
<polygon fill="none" stroke="black" points="243,-236 243,-270 365,-270 365,-236 243,-236"/>
<text text-anchor="start" x="251" y="-257" font-family="FreeSans" font-size="10.00">Urho3D::BoundingBox</text>
<text text-anchor="middle" x="304" y="-244" font-family="FreeSans" font-size="10.00">::Define</text>
</a>
</g>
<!-- Node1&#45;&gt;Node13 -->
<g id="edge26" class="edge"><title>Node1&#45;&gt;Node13</title>
<path fill="none" stroke="midnightblue" d="M110.171,-334.332C134.557,-320.32 179.5,-295.559 220,-279 224.736,-277.064 229.672,-275.189 234.673,-273.392"/>
<polygon fill="midnightblue" stroke="midnightblue" points="236.039,-276.623 244.339,-270.039 233.744,-270.01 236.039,-276.623"/>
</g>
<!-- Node14 -->
<g id="node28" class="node"><title>Node14</title>
<a xlink:href="class_urho3_d_1_1_light.html#a973fe2a585b847ca605abd52201bbced" target="_top" xlink:title="Return spotlight frustum.">
<polygon fill="none" stroke="black" points="437.5,-354.5 437.5,-375.5 582.5,-375.5 582.5,-354.5 437.5,-354.5"/>
<text text-anchor="middle" x="510" y="-362.5" font-family="FreeSans" font-size="10.00">Urho3D::Light::GetFrustum</text>
</a>
</g>
<!-- Node1&#45;&gt;Node14 -->
<g id="edge28" class="edge"><title>Node1&#45;&gt;Node14</title>
<path fill="none" stroke="midnightblue" d="M106.818,-355.666C129.739,-371.438 175.779,-400.27 220,-411 292.561,-428.606 316.955,-433.973 388,-411 406.779,-404.928 406.035,-393.174 424,-385 429.363,-382.56 435.054,-380.402 440.855,-378.496"/>
<polygon fill="midnightblue" stroke="midnightblue" points="442.123,-381.769 450.68,-375.521 440.095,-375.069 442.123,-381.769"/>
</g>
<!-- Node16 -->
<g id="node34" class="node"><title>Node16</title>
<a xlink:href="class_urho3_d_1_1_frustum.html#a6d92b5a77b61ecfe80b3e1294656c6ad" target="_top" xlink:title="Return transformed by a 3x3 matrix.">
<polygon fill="none" stroke="black" points="222,-196.5 222,-217.5 386,-217.5 386,-196.5 222,-196.5"/>
<text text-anchor="middle" x="304" y="-204.5" font-family="FreeSans" font-size="10.00">Urho3D::Frustum::Transformed</text>
</a>
</g>
<!-- Node1&#45;&gt;Node16 -->
<g id="edge36" class="edge"><title>Node1&#45;&gt;Node16</title>
<path fill="none" stroke="midnightblue" d="M100.315,-334.259C119.013,-310.891 166.91,-255.267 220,-227 224.243,-224.741 228.74,-222.734 233.362,-220.952"/>
<polygon fill="midnightblue" stroke="midnightblue" points="234.691,-224.195 242.983,-217.6 232.388,-217.585 234.691,-224.195"/>
</g>
<!-- Node21 -->
<g id="node44" class="node"><title>Node21</title>
<a xlink:href="class_urho3_d_1_1_bounding_box.html#a74321dc939044750fb994e1cef136f11" target="_top" xlink:title="Return projected by a 4x4 projection matrix.">
<polygon fill="none" stroke="black" points="243,-144 243,-178 365,-178 365,-144 243,-144"/>
<text text-anchor="start" x="251" y="-165" font-family="FreeSans" font-size="10.00">Urho3D::BoundingBox</text>
<text text-anchor="middle" x="304" y="-152" font-family="FreeSans" font-size="10.00">::Projected</text>
</a>
</g>
<!-- Node1&#45;&gt;Node21 -->
<g id="edge46" class="edge"><title>Node1&#45;&gt;Node21</title>
<path fill="none" stroke="midnightblue" d="M97.6219,-334.352C113.144,-305.985 159.484,-227.962 220,-187 224.237,-184.132 228.804,-181.569 233.543,-179.281"/>
<polygon fill="midnightblue" stroke="midnightblue" points="235.072,-182.432 242.825,-175.211 232.261,-176.022 235.072,-182.432"/>
</g>
<!-- Node23 -->
<g id="node48" class="node"><title>Node23</title>
<a xlink:href="class_urho3_d_1_1_rect.html#a5e990bcf9bf576f6cc39bf722841d7cf" target="_top" xlink:title="Return size.">
<polygon fill="none" stroke="black" points="251,-104.5 251,-125.5 357,-125.5 357,-104.5 251,-104.5"/>
<text text-anchor="middle" x="304" y="-112.5" font-family="FreeSans" font-size="10.00">Urho3D::Rect::Size</text>
</a>
</g>
<!-- Node1&#45;&gt;Node23 -->
<g id="edge50" class="edge"><title>Node1&#45;&gt;Node23</title>
<path fill="none" stroke="midnightblue" d="M95.2374,-334.236C106.304,-299.375 146.092,-188.726 220,-135 226.309,-130.414 233.524,-126.865 241.015,-124.123"/>
<polygon fill="midnightblue" stroke="midnightblue" points="242.142,-127.437 250.604,-121.062 240.014,-120.769 242.142,-127.437"/>
</g>
<!-- Node24 -->
<g id="node50" class="node"><title>Node24</title>
<a xlink:href="class_urho3_d_1_1_light.html#ac49e2867d3ecada84bdea766d6fd11d3" target="_top" xlink:title="Return number of shadow map cascade splits for a directional light, considering also graphics API lim...">
<polygon fill="none" stroke="black" points="220.5,-52 220.5,-86 387.5,-86 387.5,-52 220.5,-52"/>
<text text-anchor="start" x="228.5" y="-73" font-family="FreeSans" font-size="10.00">Urho3D::Light::GetNumShadow</text>
<text text-anchor="middle" x="304" y="-60" font-family="FreeSans" font-size="10.00">Splits</text>
</a>
</g>
<!-- Node1&#45;&gt;Node24 -->
<g id="edge52" class="edge"><title>Node1&#45;&gt;Node24</title>
<path fill="none" stroke="midnightblue" d="M94.3053,-334.367C103.184,-295.982 138.808,-163.232 220,-95 221.366,-93.8521 222.782,-92.7548 224.241,-91.706"/>
<polygon fill="midnightblue" stroke="midnightblue" points="226.398,-94.4855 233.016,-86.2123 222.683,-88.5524 226.398,-94.4855"/>
</g>
<!-- Node25 -->
<g id="node52" class="node"><title>Node25</title>
<a xlink:href="class_urho3_d_1_1_shared_ptr.html#a921bd6b5a659b42c9f660a083640eb8f" target="_top" xlink:title="Reset to null and release the object reference.">
<polygon fill="none" stroke="black" points="247.5,-0 247.5,-34 360.5,-34 360.5,-0 247.5,-0"/>
<text text-anchor="start" x="255.5" y="-21" font-family="FreeSans" font-size="10.00">Urho3D::SharedPtr::</text>
<text text-anchor="middle" x="304" y="-8" font-family="FreeSans" font-size="10.00">Reset</text>
</a>
</g>
<!-- Node1&#45;&gt;Node25 -->
<g id="edge54" class="edge"><title>Node1&#45;&gt;Node25</title>
<path fill="none" stroke="midnightblue" d="M93.2885,-334.341C99.0805,-291.144 126.644,-127.397 220,-43 225.174,-38.3227 231.176,-34.4868 237.547,-31.3409"/>
<polygon fill="midnightblue" stroke="midnightblue" points="239.305,-34.3937 247.091,-27.2079 236.523,-27.9702 239.305,-34.3937"/>
</g>
<!-- Node6 -->
<g id="node11" class="node"><title>Node6</title>
<a xlink:href="class_urho3_d_1_1_camera.html#aea08392686708a220a06f4b32a64d610" target="_top" xlink:title="Get effective world transform for matrix and frustum calculations including reflection but excluding ...">
<polygon fill="none" stroke="black" points="429.5,-446 429.5,-480 590.5,-480 590.5,-446 429.5,-446"/>
<text text-anchor="start" x="437.5" y="-467" font-family="FreeSans" font-size="10.00">Urho3D::Camera::GetEffective</text>
<text text-anchor="middle" x="510" y="-454" font-family="FreeSans" font-size="10.00">WorldTransform</text>
</a>
</g>
<!-- Node5&#45;&gt;Node6 -->
<g id="edge10" class="edge"><title>Node5&#45;&gt;Node6</title>
<path fill="none" stroke="midnightblue" d="M375.76,-466.91C389.817,-466.5 404.732,-466.066 419.313,-465.641"/>
<polygon fill="midnightblue" stroke="midnightblue" points="419.445,-469.139 429.339,-465.349 419.241,-462.142 419.445,-469.139"/>
</g>
<!-- Node9 -->
<g id="node17" class="node"><title>Node9</title>
<a xlink:href="class_urho3_d_1_1_matrix3x4.html#adbf4f5c122e4dbee49ab99550cc70315" target="_top" xlink:title="Return inverse.">
<polygon fill="none" stroke="black" points="454,-394 454,-428 566,-428 566,-394 454,-394"/>
<text text-anchor="start" x="462" y="-415" font-family="FreeSans" font-size="10.00">Urho3D::Matrix3x4::</text>
<text text-anchor="middle" x="510" y="-402" font-family="FreeSans" font-size="10.00">Inverse</text>
</a>
</g>
<!-- Node5&#45;&gt;Node9 -->
<g id="edge16" class="edge"><title>Node5&#45;&gt;Node9</title>
<path fill="none" stroke="midnightblue" d="M341.305,-458.497C369.903,-450.445 410.097,-439.128 444.078,-429.561"/>
<polygon fill="midnightblue" stroke="midnightblue" points="445.265,-432.862 453.942,-426.783 443.368,-426.124 445.265,-432.862"/>
</g>
<!-- Node6&#45;&gt;Node7 -->
<g id="edge12" class="edge"><title>Node6&#45;&gt;Node7</title>
<path fill="none" stroke="midnightblue" d="M590.506,-463C601.247,-463 612.345,-463 623.314,-463"/>
<polygon fill="midnightblue" stroke="midnightblue" points="623.336,-466.5 633.336,-463 623.336,-459.5 623.336,-466.5"/>
</g>
<!-- Node8 -->
<g id="node15" class="node"><title>Node8</title>
<a xlink:href="class_urho3_d_1_1_node.html#aa0f97335ff8b25e10e0a89ee9a87a253" target="_top" xlink:title="Return rotation in world space.">
<polygon fill="none" stroke="black" points="632.5,-403.5 632.5,-424.5 805.5,-424.5 805.5,-403.5 632.5,-403.5"/>
<text text-anchor="middle" x="719" y="-411.5" font-family="FreeSans" font-size="10.00">Urho3D::Node::GetWorldRotation</text>
</a>
</g>
<!-- Node6&#45;&gt;Node8 -->
<g id="edge14" class="edge"><title>Node6&#45;&gt;Node8</title>
<path fill="none" stroke="midnightblue" d="M582.512,-446C609.246,-439.732 639.072,-432.739 664.007,-426.893"/>
<polygon fill="midnightblue" stroke="midnightblue" points="665.077,-430.237 674.014,-424.547 663.479,-423.422 665.077,-430.237"/>
</g>
<!-- Node14&#45;&gt;Node7 -->
<g id="edge30" class="edge"><title>Node14&#45;&gt;Node7</title>
<path fill="none" stroke="midnightblue" d="M577.225,-375.626C583.849,-378.124 590.241,-381.203 596,-385 618.562,-399.873 610.156,-418.091 632,-434 640.485,-440.18 650.37,-445.1 660.371,-448.999"/>
<polygon fill="midnightblue" stroke="midnightblue" points="659.359,-452.354 669.953,-452.433 661.72,-445.764 659.359,-452.354"/>
</g>
<!-- Node14&#45;&gt;Node8 -->
<g id="edge32" class="edge"><title>Node14&#45;&gt;Node8</title>
<path fill="none" stroke="midnightblue" d="M555.531,-375.561C568.599,-378.6 582.866,-381.924 596,-385 618.498,-390.268 643.303,-396.11 664.709,-401.162"/>
<polygon fill="midnightblue" stroke="midnightblue" points="664.064,-404.606 674.6,-403.497 665.672,-397.793 664.064,-404.606"/>
</g>
<!-- Node15 -->
<g id="node32" class="node"><title>Node15</title>
<a xlink:href="class_urho3_d_1_1_frustum.html#ae3bb6685c4a3500651952fe03e6442ae" target="_top" xlink:title="Define with projection parameters and a transform matrix.">
<polygon fill="none" stroke="black" points="651.5,-354.5 651.5,-375.5 786.5,-375.5 786.5,-354.5 651.5,-354.5"/>
<text text-anchor="middle" x="719" y="-362.5" font-family="FreeSans" font-size="10.00">Urho3D::Frustum::Define</text>
</a>
</g>
<!-- Node14&#45;&gt;Node15 -->
<g id="edge34" class="edge"><title>Node14&#45;&gt;Node15</title>
<path fill="none" stroke="midnightblue" d="M582.512,-365C601.4,-365 621.831,-365 640.99,-365"/>
<polygon fill="midnightblue" stroke="midnightblue" points="641.181,-368.5 651.181,-365 641.181,-361.5 641.181,-368.5"/>
</g>
<!-- Node17 -->
<g id="node36" class="node"><title>Node17</title>
<a xlink:href="class_urho3_d_1_1_frustum.html#a07e681ce8be0bf8746b0e2630bf38582" target="_top" xlink:title="Update the planes. Called internally.">
<polygon fill="none" stroke="black" points="424.5,-196.5 424.5,-217.5 595.5,-217.5 595.5,-196.5 424.5,-196.5"/>
<text text-anchor="middle" x="510" y="-204.5" font-family="FreeSans" font-size="10.00">Urho3D::Frustum::UpdatePlanes</text>
</a>
</g>
<!-- Node16&#45;&gt;Node17 -->
<g id="edge38" class="edge"><title>Node16&#45;&gt;Node17</title>
<path fill="none" stroke="midnightblue" d="M386.009,-207C395.237,-207 404.7,-207 414.085,-207"/>
<polygon fill="midnightblue" stroke="midnightblue" points="414.222,-210.5 424.222,-207 414.222,-203.5 414.222,-210.5"/>
</g>
<!-- Node18 -->
<g id="node38" class="node"><title>Node18</title>
<a xlink:href="class_urho3_d_1_1_plane.html#a17f585cedc9d8957198ae2d8990d4029" target="_top" xlink:title="Define from 3 vertices.">
<polygon fill="none" stroke="black" points="658,-176.5 658,-197.5 780,-197.5 780,-176.5 658,-176.5"/>
<text text-anchor="middle" x="719" y="-184.5" font-family="FreeSans" font-size="10.00">Urho3D::Plane::Define</text>
</a>
</g>
<!-- Node17&#45;&gt;Node18 -->
<g id="edge40" class="edge"><title>Node17&#45;&gt;Node18</title>
<path fill="none" stroke="midnightblue" d="M595.611,-198.808C612.882,-197.155 630.865,-195.434 647.587,-193.834"/>
<polygon fill="midnightblue" stroke="midnightblue" points="648.197,-197.291 657.819,-192.855 647.531,-190.323 648.197,-197.291"/>
</g>
<!-- Node20 -->
<g id="node42" class="node"><title>Node20</title>
<a xlink:href="class_urho3_d_1_1_frustum.html#a83ec1c0d1884707c7894a5c99851eb69" target="_top" xlink:title="Return distance of a point to the frustum, or 0 if inside.">
<polygon fill="none" stroke="black" points="646,-216.5 646,-237.5 792,-237.5 792,-216.5 646,-216.5"/>
<text text-anchor="middle" x="719" y="-224.5" font-family="FreeSans" font-size="10.00">Urho3D::Frustum::Distance</text>
</a>
</g>
<!-- Node17&#45;&gt;Node20 -->
<g id="edge44" class="edge"><title>Node17&#45;&gt;Node20</title>
<path fill="none" stroke="midnightblue" d="M595.611,-215.192C608.907,-216.465 622.624,-217.777 635.863,-219.044"/>
<polygon fill="midnightblue" stroke="midnightblue" points="635.591,-222.534 645.879,-220.003 636.258,-215.566 635.591,-222.534"/>
</g>
<!-- Node19 -->
<g id="node40" class="node"><title>Node19</title>
<a xlink:href="class_urho3_d_1_1_vector3.html#a37cee8661514bc13c71c67f1308308ea" target="_top" xlink:title="Calculate cross product.">
<polygon fill="none" stroke="black" points="842,-176.5 842,-197.5 1008,-197.5 1008,-176.5 842,-176.5"/>
<text text-anchor="middle" x="925" y="-184.5" font-family="FreeSans" font-size="10.00">Urho3D::Vector3::CrossProduct</text>
</a>
</g>
<!-- Node18&#45;&gt;Node19 -->
<g id="edge42" class="edge"><title>Node18&#45;&gt;Node19</title>
<path fill="none" stroke="midnightblue" d="M780.249,-187C796.409,-187 814.22,-187 831.658,-187"/>
<polygon fill="midnightblue" stroke="midnightblue" points="831.867,-190.5 841.867,-187 831.867,-183.5 831.867,-190.5"/>
</g>
<!-- Node22 -->
<g id="node46" class="node"><title>Node22</title>
<a xlink:href="class_urho3_d_1_1_rect.html#a31dd9880cc9d0dda98cb34976bb3bd80" target="_top" xlink:title="Merge a point.">
<polygon fill="none" stroke="black" points="452,-150.5 452,-171.5 568,-171.5 568,-150.5 452,-150.5"/>
<text text-anchor="middle" x="510" y="-158.5" font-family="FreeSans" font-size="10.00">Urho3D::Rect::Merge</text>
</a>
</g>
<!-- Node21&#45;&gt;Node22 -->
<g id="edge48" class="edge"><title>Node21&#45;&gt;Node22</title>
<path fill="none" stroke="midnightblue" d="M365.249,-161C389.328,-161 417.072,-161 441.787,-161"/>
<polygon fill="midnightblue" stroke="midnightblue" points="441.813,-164.5 451.813,-161 441.813,-157.5 441.813,-164.5"/>
</g>
</g>
</svg>
