<?xml version="1.0" encoding="UTF-8" standalone="no"?>
<!DOCTYPE svg PUBLIC "-//W3C//DTD SVG 1.1//EN"
 "http://www.w3.org/Graphics/SVG/1.1/DTD/svg11.dtd">
<!-- Generated by graphviz version 2.26.3 (20100126.1600)
 -->
<!-- Title: Urho3D::StaticSprite2D Pages: 1 -->
<!--zoomable 825 -->
<svg id="main" version="1.1" xmlns="http://www.w3.org/2000/svg" xmlns:xlink="http://www.w3.org/1999/xlink" xml:space="preserve" onload="init(evt)">
        <defs>
                <circle id="rim" cx="0" cy="0" r="7"/>
                <circle id="rim2" cx="0" cy="0" r="3.5"/>
                <g id="zoomPlus">
                        <use xlink:href="#rim" fill="#404040">
                                <set attributeName="fill" to="#808080" begin="zoomplus.mouseover" end="zoomplus.mouseout"/>
                        </use>
                        <path d="M-4,0h8M0,-4v8" fill="none" stroke="white" stroke-width="1.5" pointer-events="none"/>
                </g>
                <g id="zoomMin">
                        <use xlink:href="#rim" fill="#404040">
                                <set attributeName="fill" to="#808080" begin="zoomminus.mouseover" end="zoomminus.mouseout"/>
                        </use>
                        <path d="M-4,0h8" fill="none" stroke="white" stroke-width="1.5" pointer-events="none"/>
                </g>
                <g id="dirArrow">
                        <path fill="none" stroke="white" stroke-width="1.5" d="M0,-3.0v7 M-2.5,-0.5L0,-3.0L2.5,-0.5"/>
                </g>
               <g id="resetDef">
                       <use xlink:href="#rim2" fill="#404040">
                               <set attributeName="fill" to="#808080" begin="reset.mouseover" end="reset.mouseout"/>
                       </use>
               </g>
        </defs>

<script type="text/javascript">
var viewWidth = 1642;
var viewHeight = 825;
var sectionId = 'dynsection-1';
</script>
<script xlink:href="svgpan.js"/>
<svg id="graph" class="graph">
<g id="viewport">
<title>Urho3D::StaticSprite2D</title>
<!-- Node1 -->
<g id="node1" class="node"><title>Node1</title>
<polygon fill="#bfbfbf" stroke="black" points="1504.5,-388.5 1504.5,-409.5 1633.5,-409.5 1633.5,-388.5 1504.5,-388.5"/>
<text text-anchor="middle" x="1569" y="-396.5" font-family="FreeSans" font-size="10.00">Urho3D::StaticSprite2D</text>
</g>
<!-- Node2 -->
<g id="node2" class="node"><title>Node2</title>
<a xlink:href="class_urho3_d_1_1_drawable2_d.html" target="_top" xlink:title="Base class for 2D visible components.">
<polygon fill="none" stroke="black" points="1314.5,-437.5 1314.5,-458.5 1431.5,-458.5 1431.5,-437.5 1314.5,-437.5"/>
<text text-anchor="middle" x="1373" y="-445.5" font-family="FreeSans" font-size="10.00">Urho3D::Drawable2D</text>
</a>
</g>
<!-- Node2&#45;&gt;Node1 -->
<g id="edge2" class="edge"><title>Node2&#45;&gt;Node1</title>
<path fill="none" stroke="midnightblue" d="M1425.04,-434.989C1456.8,-427.05 1496.88,-417.029 1526.68,-409.579"/>
<polygon fill="midnightblue" stroke="midnightblue" points="1423.9,-431.667 1415.05,-437.488 1425.6,-438.458 1423.9,-431.667"/>
</g>
<!-- Node3 -->
<g id="node4" class="node"><title>Node3</title>
<a xlink:href="class_urho3_d_1_1_drawable.html" target="_top" xlink:title="Base class for visible components.">
<polygon fill="none" stroke="black" points="583,-699.5 583,-720.5 687,-720.5 687,-699.5 583,-699.5"/>
<text text-anchor="middle" x="635" y="-707.5" font-family="FreeSans" font-size="10.00">Urho3D::Drawable</text>
</a>
</g>
<!-- Node3&#45;&gt;Node2 -->
<g id="edge4" class="edge"><title>Node3&#45;&gt;Node2</title>
<path fill="none" stroke="midnightblue" d="M696.504,-697.854C699.993,-695.643 703.209,-693.046 706,-690 735.032,-658.316 692.817,-624.569 724,-595 765.004,-556.119 1174.3,-544.587 1228,-527 1278.67,-510.405 1332.26,-476.221 1357.77,-458.767"/>
<polygon fill="midnightblue" stroke="midnightblue" points="694.625,-694.886 687.357,-702.594 697.846,-701.101 694.625,-694.886"/>
</g>
<!-- Node5 -->
<g id="node8" class="node"><title>Node5</title>
<a xlink:href="class_urho3_d_1_1_zone.html" target="_top" xlink:title="Component that describes global rendering properties.">
<polygon fill="none" stroke="red" points="866.5,-747.5 866.5,-768.5 951.5,-768.5 951.5,-747.5 866.5,-747.5"/>
<text text-anchor="middle" x="909" y="-755.5" font-family="FreeSans" font-size="10.00">Urho3D::Zone</text>
</a>
</g>
<!-- Node3&#45;&gt;Node5 -->
<g id="edge10" class="edge"><title>Node3&#45;&gt;Node5</title>
<path fill="none" stroke="midnightblue" d="M697.236,-720.903C748.942,-729.961 821.129,-742.606 866.449,-750.546"/>
<polygon fill="midnightblue" stroke="midnightblue" points="697.636,-717.42 687.182,-719.141 696.428,-724.315 697.636,-717.42"/>
</g>
<!-- Node12 -->
<g id="node26" class="node"><title>Node12</title>
<a xlink:href="class_urho3_d_1_1_light.html" target="_top" xlink:title="Light component.">
<polygon fill="none" stroke="red" points="867.5,-678.5 867.5,-699.5 950.5,-699.5 950.5,-678.5 867.5,-678.5"/>
<text text-anchor="middle" x="909" y="-686.5" font-family="FreeSans" font-size="10.00">Urho3D::Light</text>
</a>
</g>
<!-- Node3&#45;&gt;Node12 -->
<g id="edge32" class="edge"><title>Node3&#45;&gt;Node12</title>
<path fill="none" stroke="midnightblue" d="M697.363,-709.381C732.802,-708.587 777.96,-706.833 818,-703 834.23,-701.446 851.973,-698.908 867.447,-696.417"/>
<polygon fill="midnightblue" stroke="midnightblue" points="697.093,-705.886 687.167,-709.589 697.236,-712.884 697.093,-705.886"/>
</g>
<!-- Node16 -->
<g id="node40" class="node"><title>Node16</title>
<a xlink:href="class_urho3_d_1_1_renderer2_d.html" target="_top" xlink:title="2D renderer components.">
<polygon fill="none" stroke="red" points="851,-455.5 851,-476.5 967,-476.5 967,-455.5 851,-455.5"/>
<text text-anchor="middle" x="909" y="-463.5" font-family="FreeSans" font-size="10.00">Urho3D::Renderer2D</text>
</a>
</g>
<!-- Node3&#45;&gt;Node16 -->
<g id="edge52" class="edge"><title>Node3&#45;&gt;Node16</title>
<path fill="none" stroke="midnightblue" d="M696.161,-698.282C699.803,-695.977 703.142,-693.242 706,-690 741.664,-649.546 688.639,-610.719 724,-570 752.583,-537.087 779.592,-562.618 818,-542 851.189,-524.184 883.429,-493.003 899.117,-476.669"/>
<polygon fill="midnightblue" stroke="midnightblue" points="694.469,-695.216 687.192,-702.917 697.683,-701.435 694.469,-695.216"/>
</g>
<!-- Node4 -->
<g id="node6" class="node"><title>Node4</title>
<a xlink:href="class_urho3_d_1_1_component.html" target="_top" xlink:title="Base class for components. Components can be created to scene nodes.">
<polygon fill="none" stroke="red" points="263,-753.5 263,-774.5 379,-774.5 379,-753.5 263,-753.5"/>
<text text-anchor="middle" x="321" y="-761.5" font-family="FreeSans" font-size="10.00">Urho3D::Component</text>
</a>
</g>
<!-- Node4&#45;&gt;Node3 -->
<g id="edge6" class="edge"><title>Node4&#45;&gt;Node3</title>
<path fill="none" stroke="midnightblue" d="M389.539,-752.213C447.753,-742.202 530.054,-728.048 582.979,-718.946"/>
<polygon fill="midnightblue" stroke="midnightblue" points="388.587,-748.825 379.325,-753.97 389.774,-755.724 388.587,-748.825"/>
</g>
<!-- Node5&#45;&gt;Node3 -->
<g id="edge8" class="edge"><title>Node5&#45;&gt;Node3</title>
<path fill="none" stroke="#9a32cd" stroke-dasharray="5,2" d="M856.273,-762.403C818.83,-764.127 767.662,-763.618 724,-753 697.154,-746.472 668.874,-731.147 651.581,-720.673"/>
<polygon fill="#9a32cd" stroke="#9a32cd" points="856.651,-765.888 866.452,-761.864 856.281,-758.898 856.651,-765.888"/>
<text text-anchor="middle" x="771" y="-767" font-family="FreeSans" font-size="10.00"> zone_</text>
</g>
<!-- Node6 -->
<g id="node11" class="node"><title>Node6</title>
<a xlink:href="class_urho3_d_1_1_bounding_box.html" target="_top" xlink:title="Three&#45;dimensional axis&#45;aligned bounding box.">
<polygon fill="none" stroke="red" points="0,-665.5 0,-686.5 122,-686.5 122,-665.5 0,-665.5"/>
<text text-anchor="middle" x="61" y="-673.5" font-family="FreeSans" font-size="10.00">Urho3D::BoundingBox</text>
</a>
</g>
<!-- Node6&#45;&gt;Node3 -->
<g id="edge36" class="edge"><title>Node6&#45;&gt;Node3</title>
<path fill="none" stroke="#9a32cd" stroke-dasharray="5,2" d="M132.288,-686.231C134.889,-686.508 137.466,-686.765 140,-687 301.047,-701.922 492.513,-707.331 582.866,-709.152"/>
<polygon fill="#9a32cd" stroke="#9a32cd" points="132.509,-682.734 122.178,-685.084 131.72,-689.689 132.509,-682.734"/>
<text text-anchor="middle" x="321" y="-719" font-family="FreeSans" font-size="10.00"> worldBoundingBox_</text>
<text text-anchor="middle" x="321" y="-706" font-family="FreeSans" font-size="10.00">boundingBox_</text>
</g>
<!-- Node6&#45;&gt;Node5 -->
<g id="edge12" class="edge"><title>Node6&#45;&gt;Node5</title>
<path fill="none" stroke="#9a32cd" stroke-dasharray="5,2" d="M82.469,-693.146C116.193,-718.863 184.703,-766.291 252,-784 311.49,-799.655 473.804,-822.647 818,-780 836.55,-777.702 856.798,-773.029 873.474,-768.578"/>
<polygon fill="#9a32cd" stroke="#9a32cd" points="84.3361,-690.166 74.287,-686.809 80.0497,-695.7 84.3361,-690.166"/>
<text text-anchor="middle" x="477" y="-808" font-family="FreeSans" font-size="10.00"> lastWorldBoundingBox_</text>
</g>
<!-- Node13 -->
<g id="node31" class="node"><title>Node13</title>
<a xlink:href="class_urho3_d_1_1_octant.html" target="_top" xlink:title="Octree octant">
<polygon fill="none" stroke="red" points="275,-607.5 275,-628.5 367,-628.5 367,-607.5 275,-607.5"/>
<text text-anchor="middle" x="321" y="-615.5" font-family="FreeSans" font-size="10.00">Urho3D::Octant</text>
</a>
</g>
<!-- Node6&#45;&gt;Node13 -->
<g id="edge40" class="edge"><title>Node6&#45;&gt;Node13</title>
<path fill="none" stroke="#9a32cd" stroke-dasharray="5,2" d="M118.113,-663.259C165.126,-652.772 230.929,-638.093 274.703,-628.328"/>
<polygon fill="#9a32cd" stroke="#9a32cd" points="117.082,-659.903 108.084,-665.497 118.606,-666.735 117.082,-659.903"/>
<text text-anchor="middle" x="187" y="-674" font-family="FreeSans" font-size="10.00"> cullingBox_</text>
<text text-anchor="middle" x="187" y="-661" font-family="FreeSans" font-size="10.00">worldBoundingBox_</text>
</g>
<!-- Node6&#45;&gt;Node16 -->
<g id="edge54" class="edge"><title>Node6&#45;&gt;Node16</title>
<path fill="none" stroke="#9a32cd" stroke-dasharray="5,2" d="M87.5237,-660.376C102.591,-651.891 121.99,-641.611 140,-634 188.162,-613.648 202.169,-613.834 252,-598 321.26,-575.992 337.202,-565.404 408,-549 468.438,-534.997 496.413,-565.283 546,-528 561.259,-516.527 548.271,-499.818 564,-489 609.07,-458.002 764.822,-459.483 850.821,-462.909"/>
<polygon fill="#9a32cd" stroke="#9a32cd" points="85.6994,-657.388 78.7529,-665.387 89.172,-663.465 85.6994,-657.388"/>
<text text-anchor="middle" x="477" y="-553" font-family="FreeSans" font-size="10.00"> frustumBoundingBox_</text>
</g>
<!-- Node7 -->
<g id="node13" class="node"><title>Node7</title>
<a xlink:href="class_urho3_d_1_1_color.html" target="_top" xlink:title="RGBA color.">
<polygon fill="none" stroke="black" points="593,-498.5 593,-519.5 677,-519.5 677,-498.5 593,-498.5"/>
<text text-anchor="middle" x="635" y="-506.5" font-family="FreeSans" font-size="10.00">Urho3D::Color</text>
</a>
</g>
<!-- Node7&#45;&gt;Node1 -->
<g id="edge86" class="edge"><title>Node7&#45;&gt;Node1</title>
<path fill="none" stroke="#9a32cd" stroke-dasharray="5,2" d="M687.082,-513.986C816.135,-524.709 1159.95,-543.286 1432,-468 1478.71,-455.073 1528.25,-425.652 1552.99,-409.723"/>
<polygon fill="#9a32cd" stroke="#9a32cd" points="687.336,-510.495 677.075,-513.134 686.742,-517.469 687.336,-510.495"/>
<text text-anchor="middle" x="1155" y="-524" font-family="FreeSans" font-size="10.00"> color_</text>
</g>
<!-- Node7&#45;&gt;Node5 -->
<g id="edge14" class="edge"><title>Node7&#45;&gt;Node5</title>
<path fill="none" stroke="#9a32cd" stroke-dasharray="5,2" d="M650.694,-527.207C667.343,-545.598 695.177,-573.818 724,-592 761.974,-615.954 788.783,-594.909 818,-629 841.716,-656.672 815.408,-678.931 836,-709 847.902,-726.379 868.185,-739.26 884.355,-747.443"/>
<polygon fill="#9a32cd" stroke="#9a32cd" points="653.126,-524.674 643.869,-519.521 647.891,-529.322 653.126,-524.674"/>
<text text-anchor="middle" x="771" y="-672" font-family="FreeSans" font-size="10.00"> ambientEndColor_</text>
<text text-anchor="middle" x="771" y="-659" font-family="FreeSans" font-size="10.00">fogColor_</text>
<text text-anchor="middle" x="771" y="-646" font-family="FreeSans" font-size="10.00">ambientColor_</text>
<text text-anchor="middle" x="771" y="-633" font-family="FreeSans" font-size="10.00">ambientStartColor_</text>
</g>
<!-- Node7&#45;&gt;Node7 -->
<g id="edge16" class="edge"><title>Node7&#45;&gt;Node7</title>
<path fill="none" stroke="#9a32cd" stroke-dasharray="5,2" d="M609.804,-529.055C611.456,-534.164 619.855,-538 635,-538 658.641,-538 665.844,-528.653 656.609,-519.708"/>
<polygon fill="#9a32cd" stroke="#9a32cd" points="613.076,-530.298 613.391,-519.708 606.54,-527.79 613.076,-530.298"/>
<text text-anchor="middle" x="635" y="-672" font-family="FreeSans" font-size="10.00"> CYAN</text>
<text text-anchor="middle" x="635" y="-659" font-family="FreeSans" font-size="10.00">GRAY</text>
<text text-anchor="middle" x="635" y="-646" font-family="FreeSans" font-size="10.00">YELLOW</text>
<text text-anchor="middle" x="635" y="-633" font-family="FreeSans" font-size="10.00">MAGENTA</text>
<text text-anchor="middle" x="635" y="-620" font-family="FreeSans" font-size="10.00">WHITE</text>
<text text-anchor="middle" x="635" y="-607" font-family="FreeSans" font-size="10.00">TRANSPARENT</text>
<text text-anchor="middle" x="635" y="-594" font-family="FreeSans" font-size="10.00">BLUE</text>
<text text-anchor="middle" x="635" y="-581" font-family="FreeSans" font-size="10.00">BLACK</text>
<text text-anchor="middle" x="635" y="-568" font-family="FreeSans" font-size="10.00">RED</text>
<text text-anchor="middle" x="635" y="-555" font-family="FreeSans" font-size="10.00">GREEN</text>
<text text-anchor="middle" x="635" y="-542" font-family="FreeSans" font-size="10.00">...</text>
</g>
<!-- Node7&#45;&gt;Node12 -->
<g id="edge34" class="edge"><title>Node7&#45;&gt;Node12</title>
<path fill="none" stroke="#9a32cd" stroke-dasharray="5,2" d="M687.226,-521.252C725.862,-532.067 778.425,-550.598 818,-579 857.467,-607.324 889.843,-656.757 902.851,-678.373"/>
<polygon fill="#9a32cd" stroke="#9a32cd" points="687.788,-517.778 677.221,-518.536 685.954,-524.533 687.788,-517.778"/>
<text text-anchor="middle" x="771" y="-583" font-family="FreeSans" font-size="10.00"> color_</text>
</g>
<!-- Node8 -->
<g id="node16" class="node"><title>Node8</title>
<a xlink:href="class_urho3_d_1_1_p_o_d_vector.html" target="_top" xlink:title="Urho3D::PODVector\&lt;\l Urho3D::Light * \&gt;">
<polygon fill="none" stroke="black" points="261.5,-392 261.5,-426 380.5,-426 380.5,-392 261.5,-392"/>
<text text-anchor="start" x="269.5" y="-413" font-family="FreeSans" font-size="10.00">Urho3D::PODVector&lt;</text>
<text text-anchor="middle" x="321" y="-400" font-family="FreeSans" font-size="10.00"> Urho3D::Light * &gt;</text>
</a>
</g>
<!-- Node8&#45;&gt;Node3 -->
<g id="edge18" class="edge"><title>Node8&#45;&gt;Node3</title>
<path fill="none" stroke="#9a32cd" stroke-dasharray="5,2" d="M390.854,-421.314C455.926,-432.942 543.349,-449.03 546,-452 581.32,-491.569 530.408,-648.954 564,-690 568.947,-696.045 575.568,-700.345 582.784,-703.388"/>
<polygon fill="#9a32cd" stroke="#9a32cd" points="391.078,-417.799 380.619,-419.489 389.849,-424.691 391.078,-417.799"/>
<text text-anchor="middle" x="477" y="-469" font-family="FreeSans" font-size="10.00"> vertexLights_</text>
<text text-anchor="middle" x="477" y="-456" font-family="FreeSans" font-size="10.00">lights_</text>
</g>
<!-- Node9 -->
<g id="node18" class="node"><title>Node9</title>
<a xlink:href="class_urho3_d_1_1_vector_base.html" target="_top" xlink:title="Vector base class.">
<polygon fill="none" stroke="black" points="4,-421.5 4,-442.5 118,-442.5 118,-421.5 4,-421.5"/>
<text text-anchor="middle" x="61" y="-429.5" font-family="FreeSans" font-size="10.00">Urho3D::VectorBase</text>
</a>
</g>
<!-- Node9&#45;&gt;Node8 -->
<g id="edge20" class="edge"><title>Node9&#45;&gt;Node8</title>
<path fill="none" stroke="midnightblue" d="M128.275,-426.049C169.452,-422.406 221.673,-417.787 261.366,-414.275"/>
<polygon fill="midnightblue" stroke="midnightblue" points="127.711,-422.585 118.058,-426.953 128.328,-429.558 127.711,-422.585"/>
</g>
<!-- Node10 -->
<g id="node20" class="node"><title>Node10</title>
<a xlink:href="class_urho3_d_1_1_p_o_d_vector.html" target="_top" xlink:title="Urho3D::PODVector\&lt;\l Urho3D::Camera * \&gt;">
<polygon fill="none" stroke="black" points="261,-444 261,-478 381,-478 381,-444 261,-444"/>
<text text-anchor="start" x="269" y="-465" font-family="FreeSans" font-size="10.00">Urho3D::PODVector&lt;</text>
<text text-anchor="middle" x="321" y="-452" font-family="FreeSans" font-size="10.00"> Urho3D::Camera * &gt;</text>
</a>
</g>
<!-- Node9&#45;&gt;Node10 -->
<g id="edge24" class="edge"><title>Node9&#45;&gt;Node10</title>
<path fill="none" stroke="midnightblue" d="M128.238,-439.5C169.264,-444.076 221.262,-449.875 260.911,-454.298"/>
<polygon fill="midnightblue" stroke="midnightblue" points="128.384,-435.994 118.058,-438.364 127.608,-442.951 128.384,-435.994"/>
</g>
<!-- Node11 -->
<g id="node23" class="node"><title>Node11</title>
<a xlink:href="class_urho3_d_1_1_vector.html" target="_top" xlink:title="Urho3D::Vector\&lt; Urho3D\l::SourceBatch \&gt;">
<polygon fill="none" stroke="black" points="252,-496 252,-530 390,-530 390,-496 252,-496"/>
<text text-anchor="start" x="260" y="-517" font-family="FreeSans" font-size="10.00">Urho3D::Vector&lt; Urho3D</text>
<text text-anchor="middle" x="321" y="-504" font-family="FreeSans" font-size="10.00">::SourceBatch &gt;</text>
</a>
</g>
<!-- Node9&#45;&gt;Node11 -->
<g id="edge28" class="edge"><title>Node9&#45;&gt;Node11</title>
<path fill="none" stroke="midnightblue" d="M99.2585,-446.044C112.149,-450.646 126.65,-455.683 140,-460 179.567,-472.794 224.422,-485.937 259.58,-495.935"/>
<polygon fill="midnightblue" stroke="midnightblue" points="100.355,-442.719 89.7604,-442.628 97.986,-449.306 100.355,-442.719"/>
</g>
<!-- Node14 -->
<g id="node35" class="node"><title>Node14</title>
<a xlink:href="class_urho3_d_1_1_vector.html" target="_top" xlink:title="Urho3D::Vector\&lt; Urho3D\l::SourceBatch2D \&gt;">
<polygon fill="none" stroke="black" points="408,-347 408,-381 546,-381 546,-347 408,-347"/>
<text text-anchor="start" x="416" y="-368" font-family="FreeSans" font-size="10.00">Urho3D::Vector&lt; Urho3D</text>
<text text-anchor="middle" x="477" y="-355" font-family="FreeSans" font-size="10.00">::SourceBatch2D &gt;</text>
</a>
</g>
<!-- Node9&#45;&gt;Node14 -->
<g id="edge46" class="edge"><title>Node9&#45;&gt;Node14</title>
<path fill="none" stroke="midnightblue" d="M104.96,-418.491C143.386,-407.221 200.876,-391.654 252,-383 303.793,-374.233 363.012,-369.438 407.693,-366.859"/>
<polygon fill="midnightblue" stroke="midnightblue" points="103.728,-415.205 95.1333,-421.401 105.716,-421.917 103.728,-415.205"/>
</g>
<!-- Node10&#45;&gt;Node3 -->
<g id="edge22" class="edge"><title>Node10&#45;&gt;Node3</title>
<path fill="none" stroke="#9a32cd" stroke-dasharray="5,2" d="M391.008,-477.302C456.558,-492.64 544.673,-513.484 546,-515 597.49,-573.84 513.668,-630.166 564,-690 569.029,-695.978 575.692,-700.243 582.926,-703.271"/>
<polygon fill="#9a32cd" stroke="#9a32cd" points="391.64,-473.855 381.106,-474.986 390.046,-480.671 391.64,-473.855"/>
<text text-anchor="middle" x="477" y="-519" font-family="FreeSans" font-size="10.00"> viewCameras_</text>
</g>
<!-- Node11&#45;&gt;Node3 -->
<g id="edge26" class="edge"><title>Node11&#45;&gt;Node3</title>
<path fill="none" stroke="#9a32cd" stroke-dasharray="5,2" d="M355.515,-535.661C371.218,-545.542 390.228,-556.916 408,-566 467.24,-596.28 502.152,-573.964 546,-624 566.039,-646.867 542.59,-668.411 564,-690 569.23,-695.274 575.735,-699.185 582.668,-702.079"/>
<polygon fill="#9a32cd" stroke="#9a32cd" points="357.003,-532.459 346.686,-530.045 353.246,-538.366 357.003,-532.459"/>
<text text-anchor="middle" x="477" y="-628" font-family="FreeSans" font-size="10.00"> batches_</text>
</g>
<!-- Node12&#45;&gt;Node3 -->
<g id="edge30" class="edge"><title>Node12&#45;&gt;Node3</title>
<path fill="none" stroke="#9a32cd" stroke-dasharray="5,2" d="M857.235,-686.308C820.043,-685.098 768.776,-684.908 724,-690 707.321,-691.897 689.195,-695.652 673.68,-699.401"/>
<polygon fill="#9a32cd" stroke="#9a32cd" points="857.215,-689.81 867.335,-686.674 857.468,-682.815 857.215,-689.81"/>
<text text-anchor="middle" x="771" y="-694" font-family="FreeSans" font-size="10.00"> firstLight_</text>
</g>
<!-- Node13&#45;&gt;Node3 -->
<g id="edge38" class="edge"><title>Node13&#45;&gt;Node3</title>
<path fill="none" stroke="#9a32cd" stroke-dasharray="5,2" d="M374.901,-631.048C420.91,-642.726 488.551,-661.181 546,-682 554.231,-684.983 555.765,-687.028 564,-690 573.516,-693.435 583.92,-696.654 593.758,-699.464"/>
<polygon fill="#9a32cd" stroke="#9a32cd" points="375.687,-627.637 365.135,-628.589 373.978,-634.425 375.687,-627.637"/>
<text text-anchor="middle" x="477" y="-686" font-family="FreeSans" font-size="10.00"> octant_</text>
</g>
<!-- Node13&#45;&gt;Node13 -->
<g id="edge42" class="edge"><title>Node13&#45;&gt;Node13</title>
<path fill="none" stroke="#9a32cd" stroke-dasharray="5,2" d="M296.305,-638.427C298.21,-643.349 306.442,-647 321,-647 344.293,-647 351.39,-637.653 342.291,-628.708"/>
<polygon fill="#9a32cd" stroke="#9a32cd" points="299.707,-639.303 299.709,-628.708 293.1,-636.989 299.707,-639.303"/>
<text text-anchor="middle" x="321" y="-664" font-family="FreeSans" font-size="10.00"> parent_</text>
<text text-anchor="middle" x="321" y="-651" font-family="FreeSans" font-size="10.00">children_</text>
</g>
<!-- Node14&#45;&gt;Node2 -->
<g id="edge44" class="edge"><title>Node14&#45;&gt;Node2</title>
<path fill="none" stroke="#9a32cd" stroke-dasharray="5,2" d="M556.19,-357.027C694.407,-346.928 987.86,-334.706 1228,-387 1275.5,-397.344 1327.05,-422.794 1354.05,-437.343"/>
<polygon fill="#9a32cd" stroke="#9a32cd" points="555.82,-353.545 546.108,-357.781 556.341,-360.526 555.82,-353.545"/>
<text text-anchor="middle" x="909" y="-358" font-family="FreeSans" font-size="10.00"> sourceBatches_</text>
</g>
<!-- Node15 -->
<g id="node38" class="node"><title>Node15</title>
<a xlink:href="class_urho3_d_1_1_weak_ptr.html" target="_top" xlink:title="Urho3D::WeakPtr\&lt; Urho3D\l::Renderer2D \&gt;">
<polygon fill="none" stroke="black" points="1082,-440 1082,-474 1228,-474 1228,-440 1082,-440"/>
<text text-anchor="start" x="1090" y="-461" font-family="FreeSans" font-size="10.00">Urho3D::WeakPtr&lt; Urho3D</text>
<text text-anchor="middle" x="1155" y="-448" font-family="FreeSans" font-size="10.00">::Renderer2D &gt;</text>
</a>
</g>
<!-- Node15&#45;&gt;Node2 -->
<g id="edge48" class="edge"><title>Node15&#45;&gt;Node2</title>
<path fill="none" stroke="#9a32cd" stroke-dasharray="5,2" d="M1238.2,-453.565C1263.62,-452.516 1291.03,-451.384 1314.45,-450.417"/>
<polygon fill="#9a32cd" stroke="#9a32cd" points="1238.04,-450.068 1228.2,-453.978 1238.33,-457.063 1238.04,-450.068"/>
<text text-anchor="middle" x="1271" y="-457" font-family="FreeSans" font-size="10.00"> renderer_</text>
</g>
<!-- Node16&#45;&gt;Node15 -->
<g id="edge50" class="edge"><title>Node16&#45;&gt;Node15</title>
<path fill="none" stroke="#9a32cd" stroke-dasharray="5,2" d="M977.583,-463.491C1009.99,-462.305 1048.7,-460.889 1081.69,-459.682"/>
<polygon fill="#9a32cd" stroke="#9a32cd" points="977.164,-460.004 967.299,-463.867 977.42,-466.999 977.164,-460.004"/>
<text text-anchor="middle" x="1032" y="-466" font-family="FreeSans" font-size="10.00"> ptr_</text>
</g>
<!-- Node17 -->
<g id="node44" class="node"><title>Node17</title>
<a xlink:href="class_urho3_d_1_1_shared_ptr.html" target="_top" xlink:title="Urho3D::SharedPtr\&lt;\l Urho3D::Material \&gt;">
<polygon fill="none" stroke="black" points="577,-392 577,-426 693,-426 693,-392 577,-392"/>
<text text-anchor="start" x="585" y="-413" font-family="FreeSans" font-size="10.00">Urho3D::SharedPtr&lt;</text>
<text text-anchor="middle" x="635" y="-400" font-family="FreeSans" font-size="10.00"> Urho3D::Material &gt;</text>
</a>
</g>
<!-- Node17&#45;&gt;Node1 -->
<g id="edge84" class="edge"><title>Node17&#45;&gt;Node1</title>
<path fill="none" stroke="#9a32cd" stroke-dasharray="5,2" d="M703.111,-408.271C876.821,-406.411 1334.6,-401.51 1504.4,-399.692"/>
<polygon fill="#9a32cd" stroke="#9a32cd" points="703.035,-404.771 693.073,-408.378 703.11,-411.771 703.035,-404.771"/>
<text text-anchor="middle" x="1155" y="-409" font-family="FreeSans" font-size="10.00"> customMaterial_</text>
</g>
<!-- Node17&#45;&gt;Node16 -->
<g id="edge56" class="edge"><title>Node17&#45;&gt;Node16</title>
<path fill="none" stroke="#9a32cd" stroke-dasharray="5,2" d="M703.267,-420.615C737.766,-426.756 780.22,-434.725 818,-443 835.032,-446.731 853.724,-451.361 869.713,-455.487"/>
<polygon fill="#9a32cd" stroke="#9a32cd" points="703.752,-417.147 693.295,-418.852 702.533,-424.04 703.752,-417.147"/>
<text text-anchor="middle" x="771" y="-447" font-family="FreeSans" font-size="10.00"> material_</text>
</g>
<!-- Node18 -->
<g id="node46" class="node"><title>Node18</title>
<a xlink:href="class_urho3_d_1_1_material.html" target="_top" xlink:title="Describes how to render 3D geometries.">
<polygon fill="none" stroke="red" points="272,-244.5 272,-265.5 370,-265.5 370,-244.5 272,-244.5"/>
<text text-anchor="middle" x="321" y="-252.5" font-family="FreeSans" font-size="10.00">Urho3D::Material</text>
</a>
</g>
<!-- Node18&#45;&gt;Node17 -->
<g id="edge58" class="edge"><title>Node18&#45;&gt;Node17</title>
<path fill="none" stroke="#9a32cd" stroke-dasharray="5,2" d="M328.291,-275.317C340.049,-304.818 366.2,-358.741 408,-384 435.486,-400.61 519.088,-406.209 576.777,-408.082"/>
<polygon fill="#9a32cd" stroke="#9a32cd" points="331.439,-273.75 324.608,-265.651 324.898,-276.242 331.439,-273.75"/>
<text text-anchor="middle" x="477" y="-411" font-family="FreeSans" font-size="10.00"> ptr_</text>
</g>
<!-- Node19 -->
<g id="node48" class="node"><title>Node19</title>
<a xlink:href="class_urho3_d_1_1_resource.html" target="_top" xlink:title="Base class for resources.">
<polygon fill="none" stroke="red" points="9.5,-169.5 9.5,-190.5 112.5,-190.5 112.5,-169.5 9.5,-169.5"/>
<text text-anchor="middle" x="61" y="-177.5" font-family="FreeSans" font-size="10.00">Urho3D::Resource</text>
</a>
</g>
<!-- Node19&#45;&gt;Node18 -->
<g id="edge60" class="edge"><title>Node19&#45;&gt;Node18</title>
<path fill="none" stroke="midnightblue" d="M107.134,-193.308C157.742,-207.906 237.936,-231.039 284.402,-244.443"/>
<polygon fill="midnightblue" stroke="midnightblue" points="108.004,-189.916 97.4257,-190.507 106.064,-196.642 108.004,-189.916"/>
</g>
<!-- Node23 -->
<g id="node57" class="node"><title>Node23</title>
<a xlink:href="class_urho3_d_1_1_sprite2_d.html" target="_top" xlink:title="Sprite.">
<polygon fill="none" stroke="red" points="1104.5,-174.5 1104.5,-195.5 1205.5,-195.5 1205.5,-174.5 1104.5,-174.5"/>
<text text-anchor="middle" x="1155" y="-182.5" font-family="FreeSans" font-size="10.00">Urho3D::Sprite2D</text>
</a>
</g>
<!-- Node19&#45;&gt;Node23 -->
<g id="edge72" class="edge"><title>Node19&#45;&gt;Node23</title>
<path fill="none" stroke="midnightblue" d="M121.711,-167.521C174.218,-157.819 252.288,-146 321,-146 321,-146 321,-146 909,-146 981.862,-146 1065.38,-162.896 1113.97,-174.446"/>
<polygon fill="midnightblue" stroke="midnightblue" points="120.742,-164.141 111.561,-169.429 122.035,-171.021 120.742,-164.141"/>
</g>
<!-- Node20 -->
<g id="node50" class="node"><title>Node20</title>
<a xlink:href="struct_urho3_d_1_1_ref_count.html" target="_top" xlink:title="Reference count structure.">
<polygon fill="none" stroke="black" points="584,-284.5 584,-305.5 686,-305.5 686,-284.5 584,-284.5"/>
<text text-anchor="middle" x="635" y="-292.5" font-family="FreeSans" font-size="10.00">Urho3D::RefCount</text>
</a>
</g>
<!-- Node20&#45;&gt;Node15 -->
<g id="edge62" class="edge"><title>Node20&#45;&gt;Node15</title>
<path fill="none" stroke="#9a32cd" stroke-dasharray="5,2" d="M696.196,-299.943C792.348,-307.86 969.249,-323.092 982,-329 1038.18,-355.032 1030.41,-391.764 1082,-426 1089.92,-431.253 1098.87,-435.927 1107.72,-439.951"/>
<polygon fill="#9a32cd" stroke="#9a32cd" points="696.272,-296.438 686.019,-299.108 695.699,-303.414 696.272,-296.438"/>
<text text-anchor="middle" x="909" y="-333" font-family="FreeSans" font-size="10.00"> refCount_</text>
</g>
<!-- Node25 -->
<g id="node64" class="node"><title>Node25</title>
<a xlink:href="class_urho3_d_1_1_weak_ptr.html" target="_top" xlink:title="Urho3D::WeakPtr\&lt; Urho3D\l::SpriteSheet2D \&gt;">
<polygon fill="none" stroke="red" points="836,-245 836,-279 982,-279 982,-245 836,-245"/>
<text text-anchor="start" x="844" y="-266" font-family="FreeSans" font-size="10.00">Urho3D::WeakPtr&lt; Urho3D</text>
<text text-anchor="middle" x="909" y="-253" font-family="FreeSans" font-size="10.00">::SpriteSheet2D &gt;</text>
</a>
</g>
<!-- Node20&#45;&gt;Node25 -->
<g id="edge82" class="edge"><title>Node20&#45;&gt;Node25</title>
<path fill="none" stroke="#9a32cd" stroke-dasharray="5,2" d="M696.145,-287.636C737.449,-282.661 792.186,-276.069 835.809,-270.815"/>
<polygon fill="#9a32cd" stroke="#9a32cd" points="695.726,-284.161 686.216,-288.832 696.563,-291.111 695.726,-284.161"/>
<text text-anchor="middle" x="771" y="-288" font-family="FreeSans" font-size="10.00"> refCount_</text>
</g>
<!-- Node21 -->
<g id="node52" class="node"><title>Node21</title>
<a xlink:href="class_urho3_d_1_1_vector2.html" target="_top" xlink:title="Two&#45;dimensional vector.">
<polygon fill="none" stroke="black" points="861,-0.5 861,-21.5 957,-21.5 957,-0.5 861,-0.5"/>
<text text-anchor="middle" x="909" y="-8.5" font-family="FreeSans" font-size="10.00">Urho3D::Vector2</text>
</a>
</g>
<!-- Node21&#45;&gt;Node1 -->
<g id="edge64" class="edge"><title>Node21&#45;&gt;Node1</title>
<path fill="none" stroke="#9a32cd" stroke-dasharray="5,2" d="M950.26,-25.0482C981.907,-36.2812 1026.4,-53.071 1064,-71 1234.98,-152.521 1277.01,-177.094 1432,-286 1480.94,-320.389 1534.38,-367.551 1557.4,-388.378"/>
<polygon fill="#9a32cd" stroke="#9a32cd" points="951.056,-21.6181 940.462,-21.602 948.734,-28.2216 951.056,-21.6181"/>
<text text-anchor="middle" x="1271" y="-197" font-family="FreeSans" font-size="10.00"> hotSpot_</text>
</g>
<!-- Node21&#45;&gt;Node21 -->
<g id="edge66" class="edge"><title>Node21&#45;&gt;Node21</title>
<path fill="none" stroke="#9a32cd" stroke-dasharray="5,2" d="M886.517,-31.4266C888.251,-36.3489 895.746,-40 909,-40 930.207,-40 936.669,-30.6531 928.385,-21.7079"/>
<polygon fill="#9a32cd" stroke="#9a32cd" points="889.912,-32.2985 889.615,-21.7079 883.243,-30.1721 889.912,-32.2985"/>
<text text-anchor="middle" x="909" y="-109" font-family="FreeSans" font-size="10.00"> ONE</text>
<text text-anchor="middle" x="909" y="-96" font-family="FreeSans" font-size="10.00">DOWN</text>
<text text-anchor="middle" x="909" y="-83" font-family="FreeSans" font-size="10.00">RIGHT</text>
<text text-anchor="middle" x="909" y="-70" font-family="FreeSans" font-size="10.00">LEFT</text>
<text text-anchor="middle" x="909" y="-57" font-family="FreeSans" font-size="10.00">ZERO</text>
<text text-anchor="middle" x="909" y="-44" font-family="FreeSans" font-size="10.00">UP</text>
</g>
<!-- Node21&#45;&gt;Node23 -->
<g id="edge78" class="edge"><title>Node21&#45;&gt;Node23</title>
<path fill="none" stroke="#9a32cd" stroke-dasharray="5,2" d="M932.768,-27.3545C963.272,-48.3907 1017.77,-86.1367 1064,-119 1091.2,-138.337 1122.66,-161.289 1140.56,-174.399"/>
<polygon fill="#9a32cd" stroke="#9a32cd" points="934.688,-24.4267 924.468,-21.6341 930.716,-30.1906 934.688,-24.4267"/>
<text text-anchor="middle" x="1032" y="-123" font-family="FreeSans" font-size="10.00"> hotSpot_</text>
</g>
<!-- Node22 -->
<g id="node55" class="node"><title>Node22</title>
<a xlink:href="class_urho3_d_1_1_shared_ptr.html" target="_top" xlink:title="Urho3D::SharedPtr\&lt;\l Urho3D::Sprite2D \&gt;">
<polygon fill="none" stroke="black" points="1315,-295 1315,-329 1431,-329 1431,-295 1315,-295"/>
<text text-anchor="start" x="1323" y="-316" font-family="FreeSans" font-size="10.00">Urho3D::SharedPtr&lt;</text>
<text text-anchor="middle" x="1373" y="-303" font-family="FreeSans" font-size="10.00"> Urho3D::Sprite2D &gt;</text>
</a>
</g>
<!-- Node22&#45;&gt;Node1 -->
<g id="edge68" class="edge"><title>Node22&#45;&gt;Node1</title>
<path fill="none" stroke="#9a32cd" stroke-dasharray="5,2" d="M1420.89,-333.258C1460.27,-350.739 1514.43,-374.776 1545.16,-388.416"/>
<polygon fill="#9a32cd" stroke="#9a32cd" points="1422.28,-330.047 1411.72,-329.188 1419.44,-336.445 1422.28,-330.047"/>
<text text-anchor="middle" x="1468" y="-365" font-family="FreeSans" font-size="10.00"> sprite_</text>
</g>
<!-- Node23&#45;&gt;Node22 -->
<g id="edge70" class="edge"><title>Node23&#45;&gt;Node22</title>
<path fill="none" stroke="#9a32cd" stroke-dasharray="5,2" d="M1181.88,-200.658C1223.02,-224.624 1301.29,-270.225 1343.79,-294.982"/>
<polygon fill="#9a32cd" stroke="#9a32cd" points="1183.61,-197.619 1173.21,-195.61 1180.09,-203.668 1183.61,-197.619"/>
<text text-anchor="middle" x="1271" y="-268" font-family="FreeSans" font-size="10.00"> ptr_</text>
</g>
<!-- Node24 -->
<g id="node60" class="node"><title>Node24</title>
<a xlink:href="class_urho3_d_1_1_int_rect.html" target="_top" xlink:title="Two&#45;dimensional bounding rectangle with integer values.">
<polygon fill="none" stroke="black" points="863,-174.5 863,-195.5 955,-195.5 955,-174.5 863,-174.5"/>
<text text-anchor="middle" x="909" y="-182.5" font-family="FreeSans" font-size="10.00">Urho3D::IntRect</text>
</a>
</g>
<!-- Node24&#45;&gt;Node23 -->
<g id="edge74" class="edge"><title>Node24&#45;&gt;Node23</title>
<path fill="none" stroke="#9a32cd" stroke-dasharray="5,2" d="M965.307,-185C1007.17,-185 1063.81,-185 1104.27,-185"/>
<polygon fill="#9a32cd" stroke="#9a32cd" points="965.271,-181.5 955.271,-185 965.271,-188.5 965.271,-181.5"/>
<text text-anchor="middle" x="1032" y="-189" font-family="FreeSans" font-size="10.00"> rectangle_</text>
</g>
<!-- Node24&#45;&gt;Node24 -->
<g id="edge76" class="edge"><title>Node24&#45;&gt;Node24</title>
<path fill="none" stroke="#9a32cd" stroke-dasharray="5,2" d="M886.517,-205.427C888.251,-210.349 895.746,-214 909,-214 930.207,-214 936.669,-204.653 928.385,-195.708"/>
<polygon fill="#9a32cd" stroke="#9a32cd" points="889.912,-206.299 889.615,-195.708 883.243,-204.172 889.912,-206.299"/>
<text text-anchor="middle" x="909" y="-218" font-family="FreeSans" font-size="10.00"> ZERO</text>
</g>
<!-- Node25&#45;&gt;Node23 -->
<g id="edge80" class="edge"><title>Node25&#45;&gt;Node23</title>
<path fill="none" stroke="#9a32cd" stroke-dasharray="5,2" d="M973.172,-241.914C1020.63,-227.06 1083.36,-207.424 1121.36,-195.529"/>
<polygon fill="#9a32cd" stroke="#9a32cd" points="972.093,-238.584 963.595,-244.911 974.184,-245.264 972.093,-238.584"/>
<text text-anchor="middle" x="1032" y="-237" font-family="FreeSans" font-size="10.00"> spriteSheet_</text>
</g>
</g>
</svg>
        <g id="navigator" transform="translate(0 0)" fill="#404254">
                <rect fill="#f2f5e9" fill-opacity="0.5" stroke="#606060" stroke-width=".5" x="0" y="0" width="60" height="60"/>
                <use id="zoomplus" xlink:href="#zoomPlus" x="17" y="9" onmousedown="handleZoom(evt,'in')"/>
                <use id="zoomminus" xlink:href="#zoomMin" x="42" y="9" onmousedown="handleZoom(evt,'out')"/>
                <use id="reset" xlink:href="#resetDef" x="30" y="36" onmousedown="handleReset()"/>
                <g id="arrowUp" xlink:href="#dirArrow" transform="translate(30 24)" onmousedown="handlePan(0,-1)">
                  <use xlink:href="#rim" fill="#404040">
                        <set attributeName="fill" to="#808080" begin="arrowUp.mouseover" end="arrowUp.mouseout"/>
                  </use>
                  <path fill="none" stroke="white" stroke-width="1.5" d="M0,-3.0v7 M-2.5,-0.5L0,-3.0L2.5,-0.5"/>
                </g>
                <g id="arrowRight" xlink:href="#dirArrow" transform="rotate(90) translate(36 -43)" onmousedown="handlePan(1,0)">
                  <use xlink:href="#rim" fill="#404040">
                        <set attributeName="fill" to="#808080" begin="arrowRight.mouseover" end="arrowRight.mouseout"/>
                  </use>
                  <path fill="none" stroke="white" stroke-width="1.5" d="M0,-3.0v7 M-2.5,-0.5L0,-3.0L2.5,-0.5"/>
                </g>
                <g id="arrowDown" xlink:href="#dirArrow" transform="rotate(180) translate(-30 -48)" onmousedown="handlePan(0,1)">
                  <use xlink:href="#rim" fill="#404040">
                        <set attributeName="fill" to="#808080" begin="arrowDown.mouseover" end="arrowDown.mouseout"/>
                  </use>
                  <path fill="none" stroke="white" stroke-width="1.5" d="M0,-3.0v7 M-2.5,-0.5L0,-3.0L2.5,-0.5"/>
                </g>
                <g id="arrowLeft" xlink:href="#dirArrow" transform="rotate(270) translate(-36 17)" onmousedown="handlePan(-1,0)">
                  <use xlink:href="#rim" fill="#404040">
                        <set attributeName="fill" to="#808080" begin="arrowLeft.mouseover" end="arrowLeft.mouseout"/>
                  </use>
                  <path fill="none" stroke="white" stroke-width="1.5" d="M0,-3.0v7 M-2.5,-0.5L0,-3.0L2.5,-0.5"/>
                </g>
        </g>
        <svg viewBox="0 0 15 15" width="100%" height="30px" preserveAspectRatio="xMaxYMin meet">
         <g id="arrow_out" transform="scale(0.3 0.3)">
          <a xlink:href="class_urho3_d_1_1_static_sprite2_d__coll__graph_org.svg" target="_base">
           <rect id="button" ry="5" rx="5" y="6" x="6" height="38" width="38"
                fill="#f2f5e9" fill-opacity="0.5" stroke="#606060" stroke-width="1.0"/>
           <path id="arrow"
             d="M 11.500037,31.436501 C 11.940474,20.09759 22.043105,11.32322 32.158766,21.979434 L 37.068811,17.246167 C 37.068811,17.246167 37.088388,32 37.088388,32 L 22.160133,31.978069 C 22.160133,31.978069 26.997745,27.140456 26.997745,27.140456 C 18.528582,18.264221 13.291696,25.230495 11.500037,31.436501 z"
             style="fill:#404040;"/>
          </a>
         </g>
        </svg>
</svg>
