<?xml version="1.0" encoding="UTF-8" standalone="no"?>
<!DOCTYPE svg PUBLIC "-//W3C//DTD SVG 1.1//EN"
 "http://www.w3.org/Graphics/SVG/1.1/DTD/svg11.dtd">
<!-- Generated by graphviz version 2.26.3 (20100126.1600)
 -->
<!-- Title: Urho3D::LineEdit Pages: 1 -->
<!--zoomable 1014 -->
<svg id="main" version="1.1" xmlns="http://www.w3.org/2000/svg" xmlns:xlink="http://www.w3.org/1999/xlink" xml:space="preserve" onload="init(evt)">
        <defs>
                <circle id="rim" cx="0" cy="0" r="7"/>
                <circle id="rim2" cx="0" cy="0" r="3.5"/>
                <g id="zoomPlus">
                        <use xlink:href="#rim" fill="#404040">
                                <set attributeName="fill" to="#808080" begin="zoomplus.mouseover" end="zoomplus.mouseout"/>
                        </use>
                        <path d="M-4,0h8M0,-4v8" fill="none" stroke="white" stroke-width="1.5" pointer-events="none"/>
                </g>
                <g id="zoomMin">
                        <use xlink:href="#rim" fill="#404040">
                                <set attributeName="fill" to="#808080" begin="zoomminus.mouseover" end="zoomminus.mouseout"/>
                        </use>
                        <path d="M-4,0h8" fill="none" stroke="white" stroke-width="1.5" pointer-events="none"/>
                </g>
                <g id="dirArrow">
                        <path fill="none" stroke="white" stroke-width="1.5" d="M0,-3.0v7 M-2.5,-0.5L0,-3.0L2.5,-0.5"/>
                </g>
               <g id="resetDef">
                       <use xlink:href="#rim2" fill="#404040">
                               <set attributeName="fill" to="#808080" begin="reset.mouseover" end="reset.mouseout"/>
                       </use>
               </g>
        </defs>

<script type="text/javascript">
var viewWidth = 1558;
var viewHeight = 1014;
var sectionId = 'dynsection-1';
</script>
<script xlink:href="svgpan.js"/>
<svg id="graph" class="graph">
<g id="viewport">
<title>Urho3D::LineEdit</title>
<!-- Node1 -->
<g id="node1" class="node"><title>Node1</title>
<polygon fill="#bfbfbf" stroke="black" points="1452.5,-730.181 1452.5,-751.181 1549.5,-751.181 1549.5,-730.181 1452.5,-730.181"/>
<text text-anchor="middle" x="1501" y="-738.181" font-family="FreeSans" font-size="10.00">Urho3D::LineEdit</text>
</g>
<!-- Node2 -->
<g id="node2" class="node"><title>Node2</title>
<a xlink:href="class_urho3_d_1_1_border_image.html" target="_top" xlink:title="Image UI element with optional border.">
<polygon fill="none" stroke="black" points="966,-685.181 966,-706.181 1088,-706.181 1088,-685.181 966,-685.181"/>
<text text-anchor="middle" x="1027" y="-693.181" font-family="FreeSans" font-size="10.00">Urho3D::BorderImage</text>
</a>
</g>
<!-- Node2&#45;&gt;Node1 -->
<g id="edge2" class="edge"><title>Node2&#45;&gt;Node1</title>
<path fill="none" stroke="midnightblue" d="M1098.23,-696.423C1168.96,-697.896 1280.37,-702.204 1376,-714.681 1403.69,-718.294 1434.41,-724.649 1458.46,-730.171"/>
<polygon fill="midnightblue" stroke="midnightblue" points="1098.16,-692.921 1088.09,-696.225 1098.02,-699.92 1098.16,-692.921"/>
</g>
<!-- Node22 -->
<g id="node58" class="node"><title>Node22</title>
<a xlink:href="class_urho3_d_1_1_shared_ptr.html" target="_top" xlink:title="Urho3D::SharedPtr\&lt;\l Urho3D::BorderImage \&gt;">
<polygon fill="none" stroke="black" points="1240,-723.681 1240,-757.681 1376,-757.681 1376,-723.681 1240,-723.681"/>
<text text-anchor="start" x="1248" y="-744.681" font-family="FreeSans" font-size="10.00">Urho3D::SharedPtr&lt;</text>
<text text-anchor="middle" x="1308" y="-731.681" font-family="FreeSans" font-size="10.00"> Urho3D::BorderImage &gt;</text>
</a>
</g>
<!-- Node2&#45;&gt;Node22 -->
<g id="edge76" class="edge"><title>Node2&#45;&gt;Node22</title>
<path fill="none" stroke="#9a32cd" stroke-dasharray="5,2" d="M1095.6,-707.937C1099.12,-708.534 1102.6,-709.118 1106,-709.681 1150.46,-717.03 1200.52,-724.717 1239.68,-730.598"/>
<polygon fill="#9a32cd" stroke="#9a32cd" points="1096.09,-704.47 1085.65,-706.229 1094.91,-711.369 1096.09,-704.47"/>
<text text-anchor="middle" x="1164" y="-731.681" font-family="FreeSans" font-size="10.00"> ptr_</text>
</g>
<!-- Node3 -->
<g id="node4" class="node"><title>Node3</title>
<a xlink:href="class_urho3_d_1_1_u_i_element.html" target="_top" xlink:title="Base class for UI elements.">
<polygon fill="none" stroke="black" points="528.5,-305.181 528.5,-326.181 637.5,-326.181 637.5,-305.181 528.5,-305.181"/>
<text text-anchor="middle" x="583" y="-313.181" font-family="FreeSans" font-size="10.00">Urho3D::UIElement</text>
</a>
</g>
<!-- Node3&#45;&gt;Node2 -->
<g id="edge4" class="edge"><title>Node3&#45;&gt;Node2</title>
<path fill="none" stroke="midnightblue" d="M622.733,-329.852C695.848,-357.703 852.908,-426.028 948,-529.681 992.663,-578.365 1016.75,-656.852 1024.33,-685.115"/>
<polygon fill="midnightblue" stroke="midnightblue" points="623.581,-326.432 612.989,-326.191 621.119,-332.985 623.581,-326.432"/>
</g>
<!-- Node3&#45;&gt;Node3 -->
<g id="edge20" class="edge"><title>Node3&#45;&gt;Node3</title>
<path fill="none" stroke="#9a32cd" stroke-dasharray="5,2" d="M559.042,-336.107C560.891,-341.03 568.876,-344.681 583,-344.681 605.598,-344.681 612.483,-335.334 603.656,-326.389"/>
<polygon fill="#9a32cd" stroke="#9a32cd" points="562.441,-336.983 562.344,-326.389 555.813,-334.731 562.441,-336.983"/>
<text text-anchor="middle" x="583" y="-348.681" font-family="FreeSans" font-size="10.00"> parent_</text>
</g>
<!-- Node18 -->
<g id="node47" class="node"><title>Node18</title>
<a xlink:href="class_urho3_d_1_1_text.html" target="_top" xlink:title="Text UI element.">
<polygon fill="none" stroke="red" points="789,-259.181 789,-280.181 867,-280.181 867,-259.181 789,-259.181"/>
<text text-anchor="middle" x="828" y="-267.181" font-family="FreeSans" font-size="10.00">Urho3D::Text</text>
</a>
</g>
<!-- Node3&#45;&gt;Node18 -->
<g id="edge62" class="edge"><title>Node3&#45;&gt;Node18</title>
<path fill="none" stroke="midnightblue" d="M647.536,-305.386C679.099,-300.153 717.61,-293.473 752,-286.681 763.938,-284.323 776.875,-281.522 788.634,-278.88"/>
<polygon fill="midnightblue" stroke="midnightblue" points="646.844,-301.953 637.546,-307.033 647.982,-308.86 646.844,-301.953"/>
</g>
<!-- Node4 -->
<g id="node6" class="node"><title>Node4</title>
<a xlink:href="class_urho3_d_1_1_animatable.html" target="_top" xlink:title="Base class for animatable object, an animatable object can be set animation on it&#39;s attributes...">
<polygon fill="none" stroke="red" points="230,-306.181 230,-327.181 344,-327.181 344,-306.181 230,-306.181"/>
<text text-anchor="middle" x="287" y="-314.181" font-family="FreeSans" font-size="10.00">Urho3D::Animatable</text>
</a>
</g>
<!-- Node4&#45;&gt;Node3 -->
<g id="edge6" class="edge"><title>Node4&#45;&gt;Node3</title>
<path fill="none" stroke="midnightblue" d="M354.312,-316.453C406.878,-316.276 479.003,-316.032 528.105,-315.866"/>
<polygon fill="midnightblue" stroke="midnightblue" points="354.06,-312.954 344.072,-316.488 354.084,-319.954 354.06,-312.954"/>
</g>
<!-- Node5 -->
<g id="node8" class="node"><title>Node5</title>
<a xlink:href="class_urho3_d_1_1_int_rect.html" target="_top" xlink:title="Two&#45;dimensional bounding rectangle with integer values.">
<polygon fill="none" stroke="black" points="241,-547.181 241,-568.181 333,-568.181 333,-547.181 241,-547.181"/>
<text text-anchor="middle" x="287" y="-555.181" font-family="FreeSans" font-size="10.00">Urho3D::IntRect</text>
</a>
</g>
<!-- Node5&#45;&gt;Node2 -->
<g id="edge40" class="edge"><title>Node5&#45;&gt;Node2</title>
<path fill="none" stroke="#9a32cd" stroke-dasharray="5,2" d="M343.355,-553.876C384.673,-552.01 442.038,-551.341 492,-557.681 688.741,-582.646 916.651,-657.296 997.061,-685.095"/>
<polygon fill="#9a32cd" stroke="#9a32cd" points="343.027,-550.388 333.21,-554.373 343.369,-557.38 343.027,-550.388"/>
<text text-anchor="middle" x="713" y="-638.681" font-family="FreeSans" font-size="10.00"> imageRect_</text>
<text text-anchor="middle" x="713" y="-625.681" font-family="FreeSans" font-size="10.00">border_</text>
<text text-anchor="middle" x="713" y="-612.681" font-family="FreeSans" font-size="10.00">imageBorder_</text>
</g>
<!-- Node5&#45;&gt;Node3 -->
<g id="edge8" class="edge"><title>Node5&#45;&gt;Node3</title>
<path fill="none" stroke="#9a32cd" stroke-dasharray="5,2" d="M343.314,-555.012C358.309,-552.086 373.73,-546.847 386,-537.681 399.698,-527.448 391.606,-515.459 404,-503.681 435.277,-473.957 465.374,-496.633 492,-462.681 517.441,-430.239 488.245,-406.702 510,-371.681 522.559,-351.464 545.228,-335.81 561.984,-326.256"/>
<polygon fill="#9a32cd" stroke="#9a32cd" points="342.352,-551.623 333.046,-556.687 343.479,-558.531 342.352,-551.623"/>
<text text-anchor="middle" x="448" y="-520.681" font-family="FreeSans" font-size="10.00"> clipBorder_</text>
<text text-anchor="middle" x="448" y="-507.681" font-family="FreeSans" font-size="10.00">layoutBorder_</text>
</g>
<!-- Node5&#45;&gt;Node5 -->
<g id="edge10" class="edge"><title>Node5&#45;&gt;Node5</title>
<path fill="none" stroke="#9a32cd" stroke-dasharray="5,2" d="M259.58,-577.736C261.379,-582.845 270.519,-586.681 287,-586.681 312.727,-586.681 320.565,-577.334 310.516,-568.389"/>
<polygon fill="#9a32cd" stroke="#9a32cd" points="262.86,-578.965 263.484,-568.389 256.401,-576.267 262.86,-578.965"/>
<text text-anchor="middle" x="287" y="-590.681" font-family="FreeSans" font-size="10.00"> ZERO</text>
</g>
<!-- Node6 -->
<g id="node11" class="node"><title>Node6</title>
<a xlink:href="class_urho3_d_1_1_vector.html" target="_top" xlink:title="Urho3D::Vector\&lt; Urho3D\l::SharedPtr\&lt; Urho3D::UIElement \&gt; \&gt;">
<polygon fill="none" stroke="red" points="188.5,-99.6807 188.5,-133.681 385.5,-133.681 385.5,-99.6807 188.5,-99.6807"/>
<text text-anchor="start" x="196.5" y="-120.681" font-family="FreeSans" font-size="10.00">Urho3D::Vector&lt; Urho3D</text>
<text text-anchor="middle" x="287" y="-107.681" font-family="FreeSans" font-size="10.00">::SharedPtr&lt; Urho3D::UIElement &gt; &gt;</text>
</a>
</g>
<!-- Node6&#45;&gt;Node3 -->
<g id="edge12" class="edge"><title>Node6&#45;&gt;Node3</title>
<path fill="none" stroke="#9a32cd" stroke-dasharray="5,2" d="M383.726,-99.153C422.152,-97.8671 463.822,-104.507 492,-131.681 518.391,-157.131 486.203,-267.79 510,-295.681 514.947,-301.479 521.399,-305.676 528.421,-308.7"/>
<polygon fill="#9a32cd" stroke="#9a32cd" points="383.321,-95.6691 373.514,-99.6786 383.681,-102.66 383.321,-95.6691"/>
<text text-anchor="middle" x="448" y="-135.681" font-family="FreeSans" font-size="10.00"> children_</text>
</g>
<!-- Node7 -->
<g id="node13" class="node"><title>Node7</title>
<a xlink:href="class_urho3_d_1_1_vector2.html" target="_top" xlink:title="Two&#45;dimensional vector.">
<polygon fill="none" stroke="black" points="239,-618.181 239,-639.181 335,-639.181 335,-618.181 239,-618.181"/>
<text text-anchor="middle" x="287" y="-626.181" font-family="FreeSans" font-size="10.00">Urho3D::Vector2</text>
</a>
</g>
<!-- Node7&#45;&gt;Node3 -->
<g id="edge14" class="edge"><title>Node7&#45;&gt;Node3</title>
<path fill="none" stroke="#9a32cd" stroke-dasharray="5,2" d="M345.135,-622.523C359.038,-619.559 373.472,-615.172 386,-608.681 395.77,-603.618 395.373,-598.512 404,-591.681 440.722,-562.6 467.542,-573.63 492,-533.681 529.825,-471.897 474.411,-434.779 510,-371.681 521.535,-351.229 543.893,-335.8 560.841,-326.369"/>
<polygon fill="#9a32cd" stroke="#9a32cd" points="344.302,-619.119 335.139,-624.439 345.62,-625.993 344.302,-619.119"/>
<text text-anchor="middle" x="448" y="-595.681" font-family="FreeSans" font-size="10.00"> layoutFlexScale_</text>
</g>
<!-- Node7&#45;&gt;Node7 -->
<g id="edge16" class="edge"><title>Node7&#45;&gt;Node7</title>
<path fill="none" stroke="#9a32cd" stroke-dasharray="5,2" d="M259.58,-648.736C261.379,-653.845 270.519,-657.681 287,-657.681 312.727,-657.681 320.565,-648.334 310.516,-639.389"/>
<polygon fill="#9a32cd" stroke="#9a32cd" points="262.86,-649.965 263.484,-639.389 256.401,-647.267 262.86,-649.965"/>
<text text-anchor="middle" x="287" y="-726.681" font-family="FreeSans" font-size="10.00"> ONE</text>
<text text-anchor="middle" x="287" y="-713.681" font-family="FreeSans" font-size="10.00">DOWN</text>
<text text-anchor="middle" x="287" y="-700.681" font-family="FreeSans" font-size="10.00">RIGHT</text>
<text text-anchor="middle" x="287" y="-687.681" font-family="FreeSans" font-size="10.00">LEFT</text>
<text text-anchor="middle" x="287" y="-674.681" font-family="FreeSans" font-size="10.00">ZERO</text>
<text text-anchor="middle" x="287" y="-661.681" font-family="FreeSans" font-size="10.00">UP</text>
</g>
<!-- Node23 -->
<g id="node62" class="node"><title>Node23</title>
<a xlink:href="class_urho3_d_1_1_font.html" target="_top" xlink:title="Font resource.">
<polygon fill="none" stroke="black" points="543,-830.181 543,-851.181 623,-851.181 623,-830.181 543,-830.181"/>
<text text-anchor="middle" x="583" y="-838.181" font-family="FreeSans" font-size="10.00">Urho3D::Font</text>
</a>
</g>
<!-- Node7&#45;&gt;Node23 -->
<g id="edge88" class="edge"><title>Node7&#45;&gt;Node23</title>
<path fill="none" stroke="#9a32cd" stroke-dasharray="5,2" d="M345.42,-620.249C402.082,-612.729 481.074,-604.249 492,-613.681 512.744,-631.589 499.911,-710.201 510,-735.681 525.202,-774.076 556.85,-812.107 573.021,-830.034"/>
<polygon fill="#9a32cd" stroke="#9a32cd" points="344.918,-616.785 335.475,-621.589 345.853,-623.722 344.918,-616.785"/>
<text text-anchor="middle" x="448" y="-617.681" font-family="FreeSans" font-size="10.00"> scaledOffset_</text>
</g>
<!-- Node8 -->
<g id="node16" class="node"><title>Node8</title>
<a xlink:href="class_urho3_d_1_1_hash_map.html" target="_top" xlink:title="Urho3D::HashMap\&lt; StringHash,\l Variant \&gt;">
<polygon fill="none" stroke="red" points="201,-47.6807 201,-81.6807 373,-81.6807 373,-47.6807 201,-47.6807"/>
<text text-anchor="start" x="209" y="-68.6807" font-family="FreeSans" font-size="10.00">Urho3D::HashMap&lt; StringHash,</text>
<text text-anchor="middle" x="287" y="-55.6807" font-family="FreeSans" font-size="10.00"> Variant &gt;</text>
</a>
</g>
<!-- Node8&#45;&gt;Node3 -->
<g id="edge18" class="edge"><title>Node8&#45;&gt;Node3</title>
<path fill="none" stroke="#9a32cd" stroke-dasharray="5,2" d="M383.501,-48.415C422.212,-47.5578 464.159,-54.7484 492,-82.6807 525.534,-116.325 479.622,-259.161 510,-295.681 514.874,-301.54 521.287,-305.771 528.29,-308.811"/>
<polygon fill="#9a32cd" stroke="#9a32cd" points="383.064,-44.9297 373.213,-48.8286 383.346,-51.924 383.064,-44.9297"/>
<text text-anchor="middle" x="448" y="-86.6807" font-family="FreeSans" font-size="10.00"> vars_</text>
</g>
<!-- Node9 -->
<g id="node19" class="node"><title>Node9</title>
<a xlink:href="class_urho3_d_1_1_string.html" target="_top" xlink:title="String class.">
<polygon fill="none" stroke="black" points="0,-199.181 0,-220.181 88,-220.181 88,-199.181 0,-199.181"/>
<text text-anchor="middle" x="44" y="-207.181" font-family="FreeSans" font-size="10.00">Urho3D::String</text>
</a>
</g>
<!-- Node9&#45;&gt;Node1 -->
<g id="edge78" class="edge"><title>Node9&#45;&gt;Node1</title>
<path fill="none" stroke="#9a32cd" stroke-dasharray="5,2" d="M45.2341,-230.577C50.8038,-322.415 74.6924,-690.553 106,-801.681 128.965,-883.195 120.982,-921.907 188,-973.681 223.455,-1001.07 242.197,-992.681 287,-992.681 287,-992.681 287,-992.681 1308,-992.681 1431.72,-992.681 1486.87,-798.881 1498.57,-751.188"/>
<polygon fill="#9a32cd" stroke="#9a32cd" points="48.7134,-230.124 44.6209,-220.352 41.7259,-230.543 48.7134,-230.124"/>
<text text-anchor="middle" x="828" y="-996.681" font-family="FreeSans" font-size="10.00"> line_</text>
</g>
<!-- Node9&#45;&gt;Node3 -->
<g id="edge22" class="edge"><title>Node9&#45;&gt;Node3</title>
<path fill="none" stroke="#9a32cd" stroke-dasharray="5,2" d="M98.4064,-202.811C166.98,-196.019 287.762,-190.296 386,-218.681 438.65,-233.893 446.727,-250.797 492,-281.681 500.372,-287.392 500.938,-291.143 510,-295.681 517.52,-299.446 525.842,-302.579 534.096,-305.16"/>
<polygon fill="#9a32cd" stroke="#9a32cd" points="97.8547,-199.35 88.2686,-203.861 98.576,-206.312 97.8547,-199.35"/>
<text text-anchor="middle" x="287" y="-235.681" font-family="FreeSans" font-size="10.00"> appliedStyle_</text>
<text text-anchor="middle" x="287" y="-222.681" font-family="FreeSans" font-size="10.00">name_</text>
</g>
<!-- Node9&#45;&gt;Node9 -->
<g id="edge24" class="edge"><title>Node9&#45;&gt;Node9</title>
<path fill="none" stroke="#9a32cd" stroke-dasharray="5,2" d="M26.6768,-230.107C28.0132,-235.03 33.7876,-238.681 44,-238.681 60.3398,-238.681 65.3184,-229.334 58.9356,-220.389"/>
<polygon fill="#9a32cd" stroke="#9a32cd" points="30.0775,-230.935 29.0644,-220.389 23.2796,-229.265 30.0775,-230.935"/>
<text text-anchor="middle" x="44" y="-242.681" font-family="FreeSans" font-size="10.00"> EMPTY</text>
</g>
<!-- Node10 -->
<g id="node22" class="node"><title>Node10</title>
<a xlink:href="class_urho3_d_1_1_x_path_query.html" target="_top" xlink:title="XPath query.">
<polygon fill="none" stroke="black" points="229.5,-152.181 229.5,-173.181 344.5,-173.181 344.5,-152.181 229.5,-152.181"/>
<text text-anchor="middle" x="287" y="-160.181" font-family="FreeSans" font-size="10.00">Urho3D::XPathQuery</text>
</a>
</g>
<!-- Node9&#45;&gt;Node10 -->
<g id="edge28" class="edge"><title>Node9&#45;&gt;Node10</title>
<path fill="none" stroke="#9a32cd" stroke-dasharray="5,2" d="M73.3067,-194.765C83.4294,-190.199 94.9958,-185.613 106,-182.681 146.325,-171.937 193.187,-166.955 229.124,-164.65"/>
<polygon fill="#9a32cd" stroke="#9a32cd" points="71.6745,-191.665 64.1093,-199.082 74.6488,-198.002 71.6745,-191.665"/>
<text text-anchor="middle" x="138" y="-186.681" font-family="FreeSans" font-size="10.00"> queryString_</text>
</g>
<!-- Node16 -->
<g id="node38" class="node"><title>Node16</title>
<a xlink:href="class_urho3_d_1_1_resource.html" target="_top" xlink:title="Base class for resources.">
<polygon fill="none" stroke="red" points="235.5,-825.181 235.5,-846.181 338.5,-846.181 338.5,-825.181 235.5,-825.181"/>
<text text-anchor="middle" x="287" y="-833.181" font-family="FreeSans" font-size="10.00">Urho3D::Resource</text>
</a>
</g>
<!-- Node9&#45;&gt;Node16 -->
<g id="edge48" class="edge"><title>Node9&#45;&gt;Node16</title>
<path fill="none" stroke="#9a32cd" stroke-dasharray="5,2" d="M45.9641,-230.355C55.5439,-326.767 100.495,-731.097 188,-815.681 200.545,-827.806 218.293,-833.528 235.306,-835.991"/>
<polygon fill="#9a32cd" stroke="#9a32cd" points="49.4465,-230.003 44.9921,-220.39 42.4796,-230.682 49.4465,-230.003"/>
<text text-anchor="middle" x="138" y="-788.681" font-family="FreeSans" font-size="10.00"> name_</text>
</g>
<!-- Node9&#45;&gt;Node18 -->
<g id="edge70" class="edge"><title>Node9&#45;&gt;Node18</title>
<path fill="none" stroke="#9a32cd" stroke-dasharray="5,2" d="M53.4052,-190.025C72.605,-152.466 120.287,-71.3343 188,-38.6807 309.723,20.0188 361.613,2.83646 492,-32.6807 621.365,-67.9195 648.05,-100.996 752,-185.681 780.055,-208.536 807.042,-241.931 820.004,-258.908"/>
<polygon fill="#9a32cd" stroke="#9a32cd" points="50.2684,-188.472 48.9464,-198.984 56.5353,-191.591 50.2684,-188.472"/>
<text text-anchor="middle" x="448" y="-36.6807" font-family="FreeSans" font-size="10.00"> text_</text>
</g>
<!-- Node10&#45;&gt;Node3 -->
<g id="edge26" class="edge"><title>Node10&#45;&gt;Node3</title>
<path fill="none" stroke="#9a32cd" stroke-dasharray="5,2" d="M346.563,-150.814C392.291,-145.419 453.869,-146.797 492,-182.681 529.035,-217.533 476.06,-257.807 510,-295.681 514.999,-301.259 521.391,-305.344 528.307,-308.326"/>
<polygon fill="#9a32cd" stroke="#9a32cd" points="345.934,-147.367 336.477,-152.142 346.848,-154.307 345.934,-147.367"/>
<text text-anchor="middle" x="448" y="-186.681" font-family="FreeSans" font-size="10.00"> styleXPathQuery_</text>
</g>
<!-- Node11 -->
<g id="node25" class="node"><title>Node11</title>
<a xlink:href="class_urho3_d_1_1_shared_ptr.html" target="_top" xlink:title="Urho3D::SharedPtr\&lt;\l Urho3D::XMLFile \&gt;">
<polygon fill="none" stroke="red" points="229,-253.681 229,-287.681 345,-287.681 345,-253.681 229,-253.681"/>
<text text-anchor="start" x="237" y="-274.681" font-family="FreeSans" font-size="10.00">Urho3D::SharedPtr&lt;</text>
<text text-anchor="middle" x="287" y="-261.681" font-family="FreeSans" font-size="10.00"> Urho3D::XMLFile &gt;</text>
</a>
</g>
<!-- Node11&#45;&gt;Node3 -->
<g id="edge30" class="edge"><title>Node11&#45;&gt;Node3</title>
<path fill="none" stroke="#9a32cd" stroke-dasharray="5,2" d="M355.58,-279.195C395.465,-284.36 446.657,-291.353 492,-298.681 504.058,-300.629 516.977,-302.919 529.183,-305.176"/>
<polygon fill="#9a32cd" stroke="#9a32cd" points="355.798,-275.694 345.433,-277.889 354.904,-282.637 355.798,-275.694"/>
<text text-anchor="middle" x="448" y="-302.681" font-family="FreeSans" font-size="10.00"> defaultStyle_</text>
</g>
<!-- Node12 -->
<g id="node27" class="node"><title>Node12</title>
<a xlink:href="class_urho3_d_1_1_int_vector2.html" target="_top" xlink:title="Two&#45;dimensional vector with integer values.">
<polygon fill="none" stroke="black" points="233,-754.181 233,-775.181 341,-775.181 341,-754.181 233,-754.181"/>
<text text-anchor="middle" x="287" y="-762.181" font-family="FreeSans" font-size="10.00">Urho3D::IntVector2</text>
</a>
</g>
<!-- Node12&#45;&gt;Node2 -->
<g id="edge56" class="edge"><title>Node12&#45;&gt;Node2</title>
<path fill="none" stroke="#9a32cd" stroke-dasharray="5,2" d="M351.473,-761.588C461.375,-755.974 691.948,-742.702 886,-721.681 913.682,-718.682 920.596,-717.612 948,-712.681 958.632,-710.767 970.015,-708.467 980.736,-706.186"/>
<polygon fill="#9a32cd" stroke="#9a32cd" points="351.029,-758.106 341.219,-762.108 351.384,-765.097 351.029,-758.106"/>
<text text-anchor="middle" x="713" y="-744.681" font-family="FreeSans" font-size="10.00"> hoverOffset_</text>
</g>
<!-- Node12&#45;&gt;Node3 -->
<g id="edge32" class="edge"><title>Node12&#45;&gt;Node3</title>
<path fill="none" stroke="#9a32cd" stroke-dasharray="5,2" d="M351.061,-762.995C364.07,-759.79 376.621,-754.173 386,-744.681 416.203,-714.111 374.67,-681.089 404,-649.681 431.591,-620.135 466.18,-657.786 492,-626.681 528.283,-582.97 483.092,-421.711 510,-371.681 521.122,-351.001 543.541,-335.606 560.616,-326.245"/>
<polygon fill="#9a32cd" stroke="#9a32cd" points="350.185,-759.601 341.069,-765.001 351.562,-766.464 350.185,-759.601"/>
<text text-anchor="middle" x="448" y="-731.681" font-family="FreeSans" font-size="10.00"> maxSize_</text>
<text text-anchor="middle" x="448" y="-718.681" font-family="FreeSans" font-size="10.00">childOffset_</text>
<text text-anchor="middle" x="448" y="-705.681" font-family="FreeSans" font-size="10.00">size_</text>
<text text-anchor="middle" x="448" y="-692.681" font-family="FreeSans" font-size="10.00">position_</text>
<text text-anchor="start" x="413" y="-679.681" font-family="FreeSans" font-size="10.00">screenPosition</text>
<text text-anchor="middle" x="448" y="-666.681" font-family="FreeSans" font-size="10.00">_</text>
<text text-anchor="middle" x="448" y="-653.681" font-family="FreeSans" font-size="10.00">minSize_</text>
</g>
<!-- Node12&#45;&gt;Node12 -->
<g id="edge34" class="edge"><title>Node12&#45;&gt;Node12</title>
<path fill="none" stroke="#9a32cd" stroke-dasharray="5,2" d="M259.58,-784.736C261.379,-789.845 270.519,-793.681 287,-793.681 312.727,-793.681 320.565,-784.334 310.516,-775.389"/>
<polygon fill="#9a32cd" stroke="#9a32cd" points="262.86,-785.965 263.484,-775.389 256.401,-783.267 262.86,-785.965"/>
<text text-anchor="middle" x="287" y="-797.681" font-family="FreeSans" font-size="10.00"> ZERO</text>
</g>
<!-- Node12&#45;&gt;Node23 -->
<g id="edge90" class="edge"><title>Node12&#45;&gt;Node23</title>
<path fill="none" stroke="#9a32cd" stroke-dasharray="5,2" d="M337.849,-777.736C395.837,-792.625 489.471,-816.666 542.666,-830.325"/>
<polygon fill="#9a32cd" stroke="#9a32cd" points="338.714,-774.345 328.158,-775.248 336.973,-781.125 338.714,-774.345"/>
<text text-anchor="middle" x="448" y="-819.681" font-family="FreeSans" font-size="10.00"> absoluteOffset_</text>
</g>
<!-- Node13 -->
<g id="node30" class="node"><title>Node13</title>
<a xlink:href="class_urho3_d_1_1_color.html" target="_top" xlink:title="RGBA color.">
<polygon fill="none" stroke="black" points="245,-346.181 245,-367.181 329,-367.181 329,-346.181 245,-346.181"/>
<text text-anchor="middle" x="287" y="-354.181" font-family="FreeSans" font-size="10.00">Urho3D::Color</text>
</a>
</g>
<!-- Node13&#45;&gt;Node3 -->
<g id="edge36" class="edge"><title>Node13&#45;&gt;Node3</title>
<path fill="none" stroke="#9a32cd" stroke-dasharray="5,2" d="M339.153,-349.647C380.591,-344.037 440.019,-335.943 492,-328.681 503.696,-327.046 516.234,-325.271 528.15,-323.572"/>
<polygon fill="#9a32cd" stroke="#9a32cd" points="338.461,-346.209 329.02,-351.018 339.399,-353.146 338.461,-346.209"/>
<text text-anchor="middle" x="448" y="-356.681" font-family="FreeSans" font-size="10.00"> derivedColor_</text>
<text text-anchor="middle" x="448" y="-343.681" font-family="FreeSans" font-size="10.00">color_</text>
</g>
<!-- Node13&#45;&gt;Node13 -->
<g id="edge38" class="edge"><title>Node13&#45;&gt;Node13</title>
<path fill="none" stroke="#9a32cd" stroke-dasharray="5,2" d="M259.58,-376.736C261.379,-381.845 270.519,-385.681 287,-385.681 312.727,-385.681 320.565,-376.334 310.516,-367.389"/>
<polygon fill="#9a32cd" stroke="#9a32cd" points="262.86,-377.965 263.484,-367.389 256.401,-375.267 262.86,-377.965"/>
<text text-anchor="middle" x="287" y="-519.681" font-family="FreeSans" font-size="10.00"> CYAN</text>
<text text-anchor="middle" x="287" y="-506.681" font-family="FreeSans" font-size="10.00">GRAY</text>
<text text-anchor="middle" x="287" y="-493.681" font-family="FreeSans" font-size="10.00">YELLOW</text>
<text text-anchor="middle" x="287" y="-480.681" font-family="FreeSans" font-size="10.00">MAGENTA</text>
<text text-anchor="middle" x="287" y="-467.681" font-family="FreeSans" font-size="10.00">WHITE</text>
<text text-anchor="middle" x="287" y="-454.681" font-family="FreeSans" font-size="10.00">TRANSPARENT</text>
<text text-anchor="middle" x="287" y="-441.681" font-family="FreeSans" font-size="10.00">BLUE</text>
<text text-anchor="middle" x="287" y="-428.681" font-family="FreeSans" font-size="10.00">BLACK</text>
<text text-anchor="middle" x="287" y="-415.681" font-family="FreeSans" font-size="10.00">RED</text>
<text text-anchor="middle" x="287" y="-402.681" font-family="FreeSans" font-size="10.00">GREEN</text>
<text text-anchor="middle" x="287" y="-389.681" font-family="FreeSans" font-size="10.00">...</text>
</g>
<!-- Node15 -->
<g id="node36" class="node"><title>Node15</title>
<a xlink:href="class_urho3_d_1_1_texture.html" target="_top" xlink:title="Base class for texture resources.">
<polygon fill="none" stroke="red" points="536,-705.181 536,-726.181 630,-726.181 630,-705.181 536,-705.181"/>
<text text-anchor="middle" x="583" y="-713.181" font-family="FreeSans" font-size="10.00">Urho3D::Texture</text>
</a>
</g>
<!-- Node13&#45;&gt;Node15 -->
<g id="edge54" class="edge"><title>Node13&#45;&gt;Node15</title>
<path fill="none" stroke="#9a32cd" stroke-dasharray="5,2" d="M320.651,-371.386C344.025,-381.591 375.897,-395.488 404,-407.681 443.082,-424.637 463.145,-414.339 492,-445.681 565.207,-525.195 579.74,-665.668 582.427,-705.116"/>
<polygon fill="#9a32cd" stroke="#9a32cd" points="321.755,-368.048 311.19,-367.254 318.954,-374.463 321.755,-368.048"/>
<text text-anchor="middle" x="448" y="-449.681" font-family="FreeSans" font-size="10.00"> borderColor_</text>
</g>
<!-- Node13&#45;&gt;Node18 -->
<g id="edge72" class="edge"><title>Node13&#45;&gt;Node18</title>
<path fill="none" stroke="#9a32cd" stroke-dasharray="5,2" d="M339.411,-367.456C411.988,-380.289 546.527,-396.494 656,-366.681 720.832,-349.024 787.213,-301.545 814.768,-280.258"/>
<polygon fill="#9a32cd" stroke="#9a32cd" points="339.628,-363.938 329.163,-365.593 338.376,-370.825 339.628,-363.938"/>
<text text-anchor="middle" x="583" y="-412.681" font-family="FreeSans" font-size="10.00"> selectionColor_</text>
<text text-anchor="middle" x="583" y="-399.681" font-family="FreeSans" font-size="10.00">effectColor_</text>
<text text-anchor="middle" x="583" y="-386.681" font-family="FreeSans" font-size="10.00">hoverColor_</text>
</g>
<!-- Node14 -->
<g id="node34" class="node"><title>Node14</title>
<a xlink:href="class_urho3_d_1_1_shared_ptr.html" target="_top" xlink:title="Urho3D::SharedPtr\&lt;\l Urho3D::Texture \&gt;">
<polygon fill="none" stroke="black" points="770,-678.681 770,-712.681 886,-712.681 886,-678.681 770,-678.681"/>
<text text-anchor="start" x="778" y="-699.681" font-family="FreeSans" font-size="10.00">Urho3D::SharedPtr&lt;</text>
<text text-anchor="middle" x="828" y="-686.681" font-family="FreeSans" font-size="10.00"> Urho3D::Texture &gt;</text>
</a>
</g>
<!-- Node14&#45;&gt;Node2 -->
<g id="edge42" class="edge"><title>Node14&#45;&gt;Node2</title>
<path fill="none" stroke="#9a32cd" stroke-dasharray="5,2" d="M896.264,-695.681C918.806,-695.681 943.728,-695.681 965.714,-695.681"/>
<polygon fill="#9a32cd" stroke="#9a32cd" points="896.094,-692.181 886.094,-695.681 896.094,-699.181 896.094,-692.181"/>
<text text-anchor="middle" x="926" y="-699.681" font-family="FreeSans" font-size="10.00"> texture_</text>
</g>
<!-- Node14&#45;&gt;Node15 -->
<g id="edge52" class="edge"><title>Node14&#45;&gt;Node15</title>
<path fill="none" stroke="#9a32cd" stroke-dasharray="5,2" d="M759.692,-701.257C718.463,-704.622 666.978,-708.825 630.238,-711.824"/>
<polygon fill="#9a32cd" stroke="#9a32cd" points="759.984,-704.745 769.667,-700.443 759.415,-697.768 759.984,-704.745"/>
<text text-anchor="middle" x="713" y="-711.681" font-family="FreeSans" font-size="10.00"> backupTexture_</text>
</g>
<!-- Node15&#45;&gt;Node14 -->
<g id="edge44" class="edge"><title>Node15&#45;&gt;Node14</title>
<path fill="none" stroke="#9a32cd" stroke-dasharray="5,2" d="M614.729,-701.091C631.88,-694.001 653.661,-686.255 674,-682.681 705.447,-677.155 740.935,-679.575 769.911,-683.748"/>
<polygon fill="#9a32cd" stroke="#9a32cd" points="613.034,-698.008 605.211,-705.153 615.782,-704.447 613.034,-698.008"/>
<text text-anchor="middle" x="713" y="-686.681" font-family="FreeSans" font-size="10.00"> ptr_</text>
</g>
<!-- Node16&#45;&gt;Node15 -->
<g id="edge46" class="edge"><title>Node16&#45;&gt;Node15</title>
<path fill="none" stroke="midnightblue" d="M348.986,-827.198C391.228,-822.981 447.37,-814.835 492,-792.681 525.1,-776.25 554.368,-743.717 570.297,-726.349"/>
<polygon fill="midnightblue" stroke="midnightblue" points="348.457,-823.733 338.835,-828.167 349.122,-830.701 348.457,-823.733"/>
</g>
<!-- Node16&#45;&gt;Node15 -->
<g id="edge50" class="edge"><title>Node16&#45;&gt;Node15</title>
<path fill="none" stroke="midnightblue" d="M348.986,-842.372C391.228,-840.981 447.37,-832.835 492,-810.681 532.109,-790.771 566.592,-747.216 578.532,-726.273"/>
<polygon fill="midnightblue" stroke="midnightblue" points="348.76,-838.875 338.835,-842.582 348.905,-845.874 348.76,-838.875"/>
</g>
<!-- Node16&#45;&gt;Node23 -->
<g id="edge82" class="edge"><title>Node16&#45;&gt;Node23</title>
<path fill="none" stroke="midnightblue" d="M349.021,-841.343C366.762,-842.721 386.132,-843.994 404,-844.681 443.082,-846.182 452.898,-845.54 492,-844.681 508.601,-844.316 526.892,-843.578 542.695,-842.833"/>
<polygon fill="midnightblue" stroke="midnightblue" points="349.035,-837.833 338.787,-840.524 348.476,-844.811 349.035,-837.833"/>
</g>
<!-- Node17 -->
<g id="node45" class="node"><title>Node17</title>
<a xlink:href="class_urho3_d_1_1_shared_ptr.html" target="_top" xlink:title="Urho3D::SharedPtr\&lt;\l Urho3D::Text \&gt;">
<polygon fill="none" stroke="black" points="1106,-369.681 1106,-403.681 1222,-403.681 1222,-369.681 1106,-369.681"/>
<text text-anchor="start" x="1114" y="-390.681" font-family="FreeSans" font-size="10.00">Urho3D::SharedPtr&lt;</text>
<text text-anchor="middle" x="1164" y="-377.681" font-family="FreeSans" font-size="10.00"> Urho3D::Text &gt;</text>
</a>
</g>
<!-- Node17&#45;&gt;Node1 -->
<g id="edge58" class="edge"><title>Node17&#45;&gt;Node1</title>
<path fill="none" stroke="#9a32cd" stroke-dasharray="5,2" d="M1187.44,-411.3C1254.45,-481.698 1445.02,-681.881 1490.95,-730.125"/>
<polygon fill="#9a32cd" stroke="#9a32cd" points="1189.68,-408.584 1180.25,-403.755 1184.61,-413.411 1189.68,-408.584"/>
<text text-anchor="middle" x="1308" y="-612.681" font-family="FreeSans" font-size="10.00"> text_</text>
</g>
<!-- Node18&#45;&gt;Node17 -->
<g id="edge60" class="edge"><title>Node18&#45;&gt;Node17</title>
<path fill="none" stroke="#9a32cd" stroke-dasharray="5,2" d="M868.199,-283.678C930.067,-305.222 1048.44,-346.441 1115.16,-369.672"/>
<polygon fill="#9a32cd" stroke="#9a32cd" points="869.005,-280.253 858.41,-280.27 866.703,-286.864 869.005,-280.253"/>
<text text-anchor="middle" x="926" y="-314.681" font-family="FreeSans" font-size="10.00"> ptr_</text>
</g>
<!-- Node19 -->
<g id="node50" class="node"><title>Node19</title>
<a xlink:href="class_urho3_d_1_1_p_o_d_vector.html" target="_top" xlink:title="Urho3D::PODVector\&lt;\l int \&gt;">
<polygon fill="none" stroke="red" points="523.5,-252.681 523.5,-286.681 642.5,-286.681 642.5,-252.681 523.5,-252.681"/>
<text text-anchor="start" x="531.5" y="-273.681" font-family="FreeSans" font-size="10.00">Urho3D::PODVector&lt;</text>
<text text-anchor="middle" x="583" y="-260.681" font-family="FreeSans" font-size="10.00"> int &gt;</text>
</a>
</g>
<!-- Node19&#45;&gt;Node18 -->
<g id="edge64" class="edge"><title>Node19&#45;&gt;Node18</title>
<path fill="none" stroke="#9a32cd" stroke-dasharray="5,2" d="M652.712,-269.681C696.836,-269.681 752.259,-269.681 788.836,-269.681"/>
<polygon fill="#9a32cd" stroke="#9a32cd" points="652.62,-266.181 642.62,-269.681 652.62,-273.181 652.62,-266.181"/>
<text text-anchor="middle" x="713" y="-273.681" font-family="FreeSans" font-size="10.00"> rowWidths_</text>
</g>
<!-- Node20 -->
<g id="node52" class="node"><title>Node20</title>
<a xlink:href="class_urho3_d_1_1_weak_ptr.html" target="_top" xlink:title="Urho3D::WeakPtr\&lt; Urho3D\l::FontFace \&gt;">
<polygon fill="none" stroke="red" points="510,-200.681 510,-234.681 656,-234.681 656,-200.681 510,-200.681"/>
<text text-anchor="start" x="518" y="-221.681" font-family="FreeSans" font-size="10.00">Urho3D::WeakPtr&lt; Urho3D</text>
<text text-anchor="middle" x="583" y="-208.681" font-family="FreeSans" font-size="10.00">::FontFace &gt;</text>
</a>
</g>
<!-- Node20&#45;&gt;Node18 -->
<g id="edge66" class="edge"><title>Node20&#45;&gt;Node18</title>
<path fill="none" stroke="#9a32cd" stroke-dasharray="5,2" d="M666.18,-234.634C693.536,-240.283 724.086,-246.669 752,-252.681 764.028,-255.271 777.108,-258.168 788.972,-260.826"/>
<polygon fill="#9a32cd" stroke="#9a32cd" points="666.757,-231.18 656.256,-232.588 665.344,-238.035 666.757,-231.18"/>
<text text-anchor="middle" x="713" y="-256.681" font-family="FreeSans" font-size="10.00"> fontFace_</text>
</g>
<!-- Node21 -->
<g id="node54" class="node"><title>Node21</title>
<a xlink:href="class_urho3_d_1_1_p_o_d_vector.html" target="_top" xlink:title="Urho3D::PODVector\&lt;\l Urho3D::CharLocation \&gt;">
<polygon fill="none" stroke="red" points="514.5,-148.681 514.5,-182.681 651.5,-182.681 651.5,-148.681 514.5,-148.681"/>
<text text-anchor="start" x="522.5" y="-169.681" font-family="FreeSans" font-size="10.00">Urho3D::PODVector&lt;</text>
<text text-anchor="middle" x="583" y="-156.681" font-family="FreeSans" font-size="10.00"> Urho3D::CharLocation &gt;</text>
</a>
</g>
<!-- Node21&#45;&gt;Node18 -->
<g id="edge68" class="edge"><title>Node21&#45;&gt;Node18</title>
<path fill="none" stroke="#9a32cd" stroke-dasharray="5,2" d="M660.611,-185.642C689.93,-194.425 723.158,-205.905 752,-219.681 775.23,-230.776 799.689,-248.013 814.395,-259.072"/>
<polygon fill="#9a32cd" stroke="#9a32cd" points="661.411,-182.229 650.83,-182.768 659.437,-188.945 661.411,-182.229"/>
<text text-anchor="middle" x="713" y="-223.681" font-family="FreeSans" font-size="10.00"> charLocations_</text>
</g>
<!-- Node22&#45;&gt;Node1 -->
<g id="edge74" class="edge"><title>Node22&#45;&gt;Node1</title>
<path fill="none" stroke="#9a32cd" stroke-dasharray="5,2" d="M1386.21,-740.681C1408.58,-740.681 1432.31,-740.681 1452.35,-740.681"/>
<polygon fill="#9a32cd" stroke="#9a32cd" points="1386.04,-737.181 1376.04,-740.681 1386.04,-744.181 1386.04,-737.181"/>
<text text-anchor="middle" x="1414" y="-744.681" font-family="FreeSans" font-size="10.00"> cursor_</text>
</g>
<!-- Node23&#45;&gt;Node1 -->
<g id="edge80" class="edge"><title>Node23&#45;&gt;Node1</title>
<path fill="none" stroke="#9a32cd" stroke-dasharray="5,2" d="M633.241,-831.224C682.622,-822.762 760.221,-811.681 828,-811.681 828,-811.681 828,-811.681 1308,-811.681 1377.08,-811.681 1452,-771.117 1484.46,-751.31"/>
<polygon fill="#9a32cd" stroke="#9a32cd" points="632.396,-827.819 623.146,-832.985 633.599,-834.715 632.396,-827.819"/>
<text text-anchor="middle" x="1027" y="-815.681" font-family="FreeSans" font-size="10.00"> lastFont_</text>
</g>
<!-- Node24 -->
<g id="node65" class="node"><title>Node24</title>
<a xlink:href="class_urho3_d_1_1_hash_map.html" target="_top" xlink:title="Urho3D::HashMap\&lt; int,\l Urho3D::SharedPtr\&lt; Urho3D\l::FontFace \&gt; \&gt;">
<polygon fill="none" stroke="red" points="208,-917.181 208,-964.181 366,-964.181 366,-917.181 208,-917.181"/>
<text text-anchor="start" x="216" y="-951.181" font-family="FreeSans" font-size="10.00">Urho3D::HashMap&lt; int,</text>
<text text-anchor="start" x="216" y="-938.181" font-family="FreeSans" font-size="10.00"> Urho3D::SharedPtr&lt; Urho3D</text>
<text text-anchor="middle" x="287" y="-925.181" font-family="FreeSans" font-size="10.00">::FontFace &gt; &gt;</text>
</a>
</g>
<!-- Node24&#45;&gt;Node23 -->
<g id="edge84" class="edge"><title>Node24&#45;&gt;Node23</title>
<path fill="none" stroke="#9a32cd" stroke-dasharray="5,2" d="M376.209,-921.513C412.657,-912.571 454.887,-900.769 492,-886.681 518.315,-876.692 547.045,-861.366 565.04,-851.186"/>
<polygon fill="#9a32cd" stroke="#9a32cd" points="374.989,-918.207 366.092,-923.959 376.634,-925.011 374.989,-918.207"/>
<text text-anchor="middle" x="448" y="-916.681" font-family="FreeSans" font-size="10.00"> faces_</text>
</g>
<!-- Node25 -->
<g id="node67" class="node"><title>Node25</title>
<a xlink:href="class_urho3_d_1_1_shared_array_ptr.html" target="_top" xlink:title="Urho3D::SharedArrayPtr\l\&lt; unsigned char \&gt;">
<polygon fill="none" stroke="red" points="220.5,-864.681 220.5,-898.681 353.5,-898.681 353.5,-864.681 220.5,-864.681"/>
<text text-anchor="start" x="228.5" y="-885.681" font-family="FreeSans" font-size="10.00">Urho3D::SharedArrayPtr</text>
<text text-anchor="middle" x="287" y="-872.681" font-family="FreeSans" font-size="10.00">&lt; unsigned char &gt;</text>
</a>
</g>
<!-- Node25&#45;&gt;Node23 -->
<g id="edge86" class="edge"><title>Node25&#45;&gt;Node23</title>
<path fill="none" stroke="#9a32cd" stroke-dasharray="5,2" d="M363.781,-874.602C402.358,-870.656 449.764,-865.215 492,-858.681 508.711,-856.095 527.023,-852.602 542.81,-849.382"/>
<polygon fill="#9a32cd" stroke="#9a32cd" points="363.258,-871.137 353.66,-875.624 363.961,-878.101 363.258,-871.137"/>
<text text-anchor="middle" x="448" y="-873.681" font-family="FreeSans" font-size="10.00"> fontData_</text>
</g>
</g>
</svg>
        <g id="navigator" transform="translate(0 0)" fill="#404254">
                <rect fill="#f2f5e9" fill-opacity="0.5" stroke="#606060" stroke-width=".5" x="0" y="0" width="60" height="60"/>
                <use id="zoomplus" xlink:href="#zoomPlus" x="17" y="9" onmousedown="handleZoom(evt,'in')"/>
                <use id="zoomminus" xlink:href="#zoomMin" x="42" y="9" onmousedown="handleZoom(evt,'out')"/>
                <use id="reset" xlink:href="#resetDef" x="30" y="36" onmousedown="handleReset()"/>
                <g id="arrowUp" xlink:href="#dirArrow" transform="translate(30 24)" onmousedown="handlePan(0,-1)">
                  <use xlink:href="#rim" fill="#404040">
                        <set attributeName="fill" to="#808080" begin="arrowUp.mouseover" end="arrowUp.mouseout"/>
                  </use>
                  <path fill="none" stroke="white" stroke-width="1.5" d="M0,-3.0v7 M-2.5,-0.5L0,-3.0L2.5,-0.5"/>
                </g>
                <g id="arrowRight" xlink:href="#dirArrow" transform="rotate(90) translate(36 -43)" onmousedown="handlePan(1,0)">
                  <use xlink:href="#rim" fill="#404040">
                        <set attributeName="fill" to="#808080" begin="arrowRight.mouseover" end="arrowRight.mouseout"/>
                  </use>
                  <path fill="none" stroke="white" stroke-width="1.5" d="M0,-3.0v7 M-2.5,-0.5L0,-3.0L2.5,-0.5"/>
                </g>
                <g id="arrowDown" xlink:href="#dirArrow" transform="rotate(180) translate(-30 -48)" onmousedown="handlePan(0,1)">
                  <use xlink:href="#rim" fill="#404040">
                        <set attributeName="fill" to="#808080" begin="arrowDown.mouseover" end="arrowDown.mouseout"/>
                  </use>
                  <path fill="none" stroke="white" stroke-width="1.5" d="M0,-3.0v7 M-2.5,-0.5L0,-3.0L2.5,-0.5"/>
                </g>
                <g id="arrowLeft" xlink:href="#dirArrow" transform="rotate(270) translate(-36 17)" onmousedown="handlePan(-1,0)">
                  <use xlink:href="#rim" fill="#404040">
                        <set attributeName="fill" to="#808080" begin="arrowLeft.mouseover" end="arrowLeft.mouseout"/>
                  </use>
                  <path fill="none" stroke="white" stroke-width="1.5" d="M0,-3.0v7 M-2.5,-0.5L0,-3.0L2.5,-0.5"/>
                </g>
        </g>
        <svg viewBox="0 0 15 15" width="100%" height="30px" preserveAspectRatio="xMaxYMin meet">
         <g id="arrow_out" transform="scale(0.3 0.3)">
          <a xlink:href="class_urho3_d_1_1_line_edit__coll__graph_org.svg" target="_base">
           <rect id="button" ry="5" rx="5" y="6" x="6" height="38" width="38"
                fill="#f2f5e9" fill-opacity="0.5" stroke="#606060" stroke-width="1.0"/>
           <path id="arrow"
             d="M 11.500037,31.436501 C 11.940474,20.09759 22.043105,11.32322 32.158766,21.979434 L 37.068811,17.246167 C 37.068811,17.246167 37.088388,32 37.088388,32 L 22.160133,31.978069 C 22.160133,31.978069 26.997745,27.140456 26.997745,27.140456 C 18.528582,18.264221 13.291696,25.230495 11.500037,31.436501 z"
             style="fill:#404040;"/>
          </a>
         </g>
        </svg>
</svg>
