<?xml version="1.0" encoding="UTF-8" standalone="no"?>
<!DOCTYPE svg PUBLIC "-//W3C//DTD SVG 1.1//EN"
 "http://www.w3.org/Graphics/SVG/1.1/DTD/svg11.dtd">
<!-- Generated by graphviz version 2.26.3 (20100126.1600)
 -->
<!-- Title: Graphical Class Hierarchy Pages: 1 -->
<svg width="572pt" height="160pt"
 viewBox="0.00 0.00 572.00 160.00" xmlns="http://www.w3.org/2000/svg" xmlns:xlink="http://www.w3.org/1999/xlink">
<g id="graph1" class="graph" transform="scale(1 1) rotate(0) translate(4 156)">
<title>Graphical Class Hierarchy</title>
<!-- Node1 -->
<g id="node1" class="node"><title>Node1</title>
<a xlink:href="classrapidjson_1_1_generic_value.html" target="_top" xlink:title="Represents a JSON value. Use Value for UTF8 encoding and default allocator.">
<polygon fill="none" stroke="black" points="0.5,-118 0.5,-152 131.5,-152 131.5,-118 0.5,-118"/>
<text text-anchor="start" x="8.5" y="-139" font-family="FreeSans" font-size="10.00">rapidjson::GenericValue</text>
<text text-anchor="middle" x="66" y="-126" font-family="FreeSans" font-size="10.00">&lt; Encoding, Allocator &gt;</text>
</a>
</g>
<!-- Node2 -->
<g id="node3" class="node"><title>Node2</title>
<a xlink:href="classrapidjson_1_1_generic_document.html" target="_top" xlink:title="A document for parsing JSON text as DOM.">
<polygon fill="none" stroke="black" points="179.5,-118 179.5,-152 332.5,-152 332.5,-118 179.5,-118"/>
<text text-anchor="start" x="187.5" y="-139" font-family="FreeSans" font-size="10.00">rapidjson::GenericDocument</text>
<text text-anchor="middle" x="256" y="-126" font-family="FreeSans" font-size="10.00">&lt; Encoding, Allocator &gt;</text>
</a>
</g>
<!-- Node1&#45;&gt;Node2 -->
<g id="edge2" class="edge"><title>Node1&#45;&gt;Node2</title>
<path fill="none" stroke="midnightblue" d="M141.863,-135C154.164,-135 166.913,-135 179.236,-135"/>
<polygon fill="midnightblue" stroke="midnightblue" points="141.653,-131.5 131.653,-135 141.653,-138.5 141.653,-131.5"/>
</g>
<!-- Node3 -->
<g id="node4" class="node"><title>Node3</title>
<a xlink:href="classrapidjson_1_1_handler.html" target="_top" xlink:title="Concept for receiving events from GenericReader upon parsing.">
<polygon fill="none" stroke="black" points="14,-72.5 14,-93.5 118,-93.5 118,-72.5 14,-72.5"/>
<text text-anchor="middle" x="66" y="-80.5" font-family="FreeSans" font-size="10.00">rapidjson::Handler</text>
</a>
</g>
<!-- Node3&#45;&gt;Node2 -->
<g id="edge6" class="edge"><title>Node3&#45;&gt;Node2</title>
<path fill="none" stroke="midnightblue" d="M114.101,-96.1644C138.252,-102.774 167.802,-110.862 193.672,-117.942"/>
<polygon fill="midnightblue" stroke="midnightblue" points="115.019,-92.787 104.449,-93.523 113.171,-99.5387 115.019,-92.787"/>
</g>
<!-- Node4 -->
<g id="node6" class="node"><title>Node4</title>
<a xlink:href="structrapidjson_1_1_base_reader_handler.html" target="_top" xlink:title="Default implementation of Handler.">
<polygon fill="none" stroke="black" points="175.5,-66 175.5,-100 336.5,-100 336.5,-66 175.5,-66"/>
<text text-anchor="start" x="183.5" y="-87" font-family="FreeSans" font-size="10.00">rapidjson::BaseReaderHandler</text>
<text text-anchor="middle" x="256" y="-74" font-family="FreeSans" font-size="10.00">&lt; Encoding &gt;</text>
</a>
</g>
<!-- Node3&#45;&gt;Node4 -->
<g id="edge4" class="edge"><title>Node3&#45;&gt;Node4</title>
<path fill="none" stroke="midnightblue" d="M128.361,-83C143.4,-83 159.682,-83 175.422,-83"/>
<polygon fill="midnightblue" stroke="midnightblue" points="128.17,-79.5001 118.17,-83 128.17,-86.5001 128.17,-79.5001"/>
</g>
<!-- Node5 -->
<g id="node9" class="node"><title>Node5</title>
<a xlink:href="classrapidjson_1_1_writer.html" target="_top" xlink:title="JSON writer.">
<polygon fill="none" stroke="black" points="168.5,-0.5 168.5,-47.5 343.5,-47.5 343.5,-0.5 168.5,-0.5"/>
<text text-anchor="start" x="176.5" y="-34.5" font-family="FreeSans" font-size="10.00">rapidjson::Writer&lt;</text>
<text text-anchor="start" x="176.5" y="-21.5" font-family="FreeSans" font-size="10.00"> OutputStream, SourceEncoding,</text>
<text text-anchor="middle" x="256" y="-8.5" font-family="FreeSans" font-size="10.00"> TargetEncoding, Allocator &gt;</text>
</a>
</g>
<!-- Node3&#45;&gt;Node5 -->
<g id="edge8" class="edge"><title>Node3&#45;&gt;Node5</title>
<path fill="none" stroke="midnightblue" d="M109.529,-69.4831C130.463,-62.9825 156.174,-54.9986 180.18,-47.5442"/>
<polygon fill="midnightblue" stroke="midnightblue" points="108.48,-66.1438 99.9682,-72.452 110.556,-72.8289 108.48,-66.1438"/>
</g>
<!-- Node6 -->
<g id="node11" class="node"><title>Node6</title>
<a xlink:href="classrapidjson_1_1_pretty_writer.html" target="_top" xlink:title="Writer with indentation and spacing.">
<polygon fill="none" stroke="black" points="380.5,-0.5 380.5,-47.5 563.5,-47.5 563.5,-0.5 380.5,-0.5"/>
<text text-anchor="start" x="388.5" y="-34.5" font-family="FreeSans" font-size="10.00">rapidjson::PrettyWriter</text>
<text text-anchor="start" x="388.5" y="-21.5" font-family="FreeSans" font-size="10.00">&lt; OutputStream, SourceEncoding,</text>
<text text-anchor="middle" x="472" y="-8.5" font-family="FreeSans" font-size="10.00"> TargetEncoding, Allocator &gt;</text>
</a>
</g>
<!-- Node5&#45;&gt;Node6 -->
<g id="edge10" class="edge"><title>Node5&#45;&gt;Node6</title>
<path fill="none" stroke="midnightblue" d="M353.588,-24C362.532,-24 371.572,-24 380.46,-24"/>
<polygon fill="midnightblue" stroke="midnightblue" points="353.544,-20.5001 343.544,-24 353.544,-27.5001 353.544,-20.5001"/>
</g>
</g>
</svg>
