<?xml version="1.0" encoding="UTF-8" standalone="no"?>
<!DOCTYPE svg PUBLIC "-//W3C//DTD SVG 1.1//EN"
 "http://www.w3.org/Graphics/SVG/1.1/DTD/svg11.dtd">
<!-- Generated by graphviz version 2.26.3 (20100126.1600)
 -->
<!-- Title: Urho3D::AnimatedModel::UpdateBoneBoundingBox Pages: 1 -->
<svg width="372pt" height="346pt"
 viewBox="0.00 0.00 372.00 346.00" xmlns="http://www.w3.org/2000/svg" xmlns:xlink="http://www.w3.org/1999/xlink">
<g id="graph1" class="graph" transform="scale(1 1) rotate(0) translate(4 342)">
<title>Urho3D::AnimatedModel::UpdateBoneBoundingBox</title>
<!-- Node1 -->
<g id="node1" class="node"><title>Node1</title>
<polygon fill="#bfbfbf" stroke="black" points="0,-146 0,-180 146,-180 146,-146 0,-146"/>
<text text-anchor="start" x="8" y="-167" font-family="FreeSans" font-size="10.00">Urho3D::AnimatedModel</text>
<text text-anchor="middle" x="73" y="-154" font-family="FreeSans" font-size="10.00">::UpdateBoneBoundingBox</text>
</g>
<!-- Node2 -->
<g id="node3" class="node"><title>Node2</title>
<a xlink:href="a00281.html#a9906a8792ea89023870b6db38bb994ef" target="_top" xlink:title="Return number of bones.">
<polygon fill="none" stroke="black" points="199,-304 199,-338 347,-338 347,-304 199,-304"/>
<text text-anchor="start" x="207" y="-325" font-family="FreeSans" font-size="10.00">Urho3D::Skeleton::GetNum</text>
<text text-anchor="middle" x="273" y="-312" font-family="FreeSans" font-size="10.00">Bones</text>
</a>
</g>
<!-- Node1&#45;&gt;Node2 -->
<g id="edge2" class="edge"><title>Node1&#45;&gt;Node2</title>
<path fill="none" stroke="midnightblue" d="M82.6168,-180.422C99.1632,-208.766 135.744,-264.732 182,-295 184.449,-296.603 186.998,-298.108 189.621,-299.522"/>
<polygon fill="midnightblue" stroke="midnightblue" points="188.263,-302.754 198.786,-303.986 191.328,-296.46 188.263,-302.754"/>
</g>
<!-- Node3 -->
<g id="node5" class="node"><title>Node3</title>
<a xlink:href="a00200.html#acbf5c9951a685acdbe75d1d39eeb7045" target="_top" xlink:title="Return world space transform matrix.">
<polygon fill="none" stroke="black" points="182.5,-264.5 182.5,-285.5 363.5,-285.5 363.5,-264.5 182.5,-264.5"/>
<text text-anchor="middle" x="273" y="-272.5" font-family="FreeSans" font-size="10.00">Urho3D::Node::GetWorldTransform</text>
</a>
</g>
<!-- Node1&#45;&gt;Node3 -->
<g id="edge4" class="edge"><title>Node1&#45;&gt;Node3</title>
<path fill="none" stroke="midnightblue" d="M88.17,-180.124C107.733,-201.094 143.81,-236.141 182,-255 186.684,-257.313 191.635,-259.361 196.71,-261.174"/>
<polygon fill="midnightblue" stroke="midnightblue" points="195.995,-264.621 206.587,-264.377 198.155,-257.962 195.995,-264.621"/>
</g>
<!-- Node4 -->
<g id="node7" class="node"><title>Node4</title>
<a xlink:href="a00184.html#adbf4f5c122e4dbee49ab99550cc70315" target="_top" xlink:title="Return inverse.">
<polygon fill="none" stroke="black" points="217,-212 217,-246 329,-246 329,-212 217,-212"/>
<text text-anchor="start" x="225" y="-233" font-family="FreeSans" font-size="10.00">Urho3D::Matrix3x4::</text>
<text text-anchor="middle" x="273" y="-220" font-family="FreeSans" font-size="10.00">Inverse</text>
</a>
</g>
<!-- Node1&#45;&gt;Node4 -->
<g id="edge6" class="edge"><title>Node1&#45;&gt;Node4</title>
<path fill="none" stroke="midnightblue" d="M117.29,-180.091C136.988,-187.475 160.534,-196.005 182,-203 190.172,-205.663 198.805,-208.323 207.368,-210.871"/>
<polygon fill="midnightblue" stroke="midnightblue" points="206.397,-214.234 216.978,-213.694 208.37,-207.517 206.397,-214.234"/>
</g>
<!-- Node5 -->
<g id="node9" class="node"><title>Node5</title>
<a xlink:href="a00281.html#ab0956a7e86b964eff60a7bc442e41f1e" target="_top" xlink:title="Return all bones.">
<polygon fill="none" stroke="black" points="195.5,-172.5 195.5,-193.5 350.5,-193.5 350.5,-172.5 195.5,-172.5"/>
<text text-anchor="middle" x="273" y="-180.5" font-family="FreeSans" font-size="10.00">Urho3D::Skeleton::GetBones</text>
</a>
</g>
<!-- Node1&#45;&gt;Node5 -->
<g id="edge8" class="edge"><title>Node1&#45;&gt;Node5</title>
<path fill="none" stroke="midnightblue" d="M146.054,-170.305C158.858,-171.586 172.3,-172.93 185.45,-174.245"/>
<polygon fill="midnightblue" stroke="midnightblue" points="185.135,-177.731 195.433,-175.243 185.831,-170.766 185.135,-177.731"/>
</g>
<!-- Node6 -->
<g id="node11" class="node"><title>Node6</title>
<a xlink:href="a00326.html#aa20f23bae4cf1d7cda06f6c3b47c7504" target="_top" xlink:title="Return iterator to the beginning.">
<polygon fill="none" stroke="black" points="211.5,-132.5 211.5,-153.5 334.5,-153.5 334.5,-132.5 211.5,-132.5"/>
<text text-anchor="middle" x="273" y="-140.5" font-family="FreeSans" font-size="10.00">Urho3D::Vector::Begin</text>
</a>
</g>
<!-- Node1&#45;&gt;Node6 -->
<g id="edge10" class="edge"><title>Node1&#45;&gt;Node6</title>
<path fill="none" stroke="midnightblue" d="M146.054,-155.695C164.047,-153.895 183.298,-151.97 201.23,-150.177"/>
<polygon fill="midnightblue" stroke="midnightblue" points="201.725,-153.645 211.327,-149.167 201.029,-146.68 201.725,-153.645"/>
</g>
<!-- Node7 -->
<g id="node13" class="node"><title>Node7</title>
<a xlink:href="a00326.html#af79ffb0683568b08fe130ee028bfd1ef" target="_top" xlink:title="Return iterator to the end.">
<polygon fill="none" stroke="black" points="216,-92.5 216,-113.5 330,-113.5 330,-92.5 216,-92.5"/>
<text text-anchor="middle" x="273" y="-100.5" font-family="FreeSans" font-size="10.00">Urho3D::Vector::End</text>
</a>
</g>
<!-- Node1&#45;&gt;Node7 -->
<g id="edge12" class="edge"><title>Node1&#45;&gt;Node7</title>
<path fill="none" stroke="midnightblue" d="M115.262,-145.975C135.281,-138.304 159.651,-129.524 182,-123 190.78,-120.437 200.122,-118.03 209.348,-115.836"/>
<polygon fill="midnightblue" stroke="midnightblue" points="210.327,-119.202 219.282,-113.541 208.751,-112.382 210.327,-119.202"/>
</g>
<!-- Node8 -->
<g id="node15" class="node"><title>Node8</title>
<a xlink:href="a00078.html#a4befcf3c67e94eb2f1924e1179b09bd2" target="_top" xlink:title="Merge a point.">
<polygon fill="none" stroke="black" points="212,-40 212,-74 334,-74 334,-40 212,-40"/>
<text text-anchor="start" x="220" y="-61" font-family="FreeSans" font-size="10.00">Urho3D::BoundingBox</text>
<text text-anchor="middle" x="273" y="-48" font-family="FreeSans" font-size="10.00">::Merge</text>
</a>
</g>
<!-- Node1&#45;&gt;Node8 -->
<g id="edge14" class="edge"><title>Node1&#45;&gt;Node8</title>
<path fill="none" stroke="midnightblue" d="M91.7208,-145.995C112.421,-128.01 147.432,-99.9428 182,-83 188.39,-79.8679 195.223,-77.0514 202.166,-74.5333"/>
<polygon fill="midnightblue" stroke="midnightblue" points="203.341,-77.8307 211.67,-71.283 201.075,-71.2073 203.341,-77.8307"/>
</g>
<!-- Node9 -->
<g id="node17" class="node"><title>Node9</title>
<a xlink:href="a00200.html#a92372a305fa427e9ce58df7f37a684ba" target="_top" xlink:title="Return position in world space.">
<polygon fill="none" stroke="black" points="187.5,-0.5 187.5,-21.5 358.5,-21.5 358.5,-0.5 187.5,-0.5"/>
<text text-anchor="middle" x="273" y="-8.5" font-family="FreeSans" font-size="10.00">Urho3D::Node::GetWorldPosition</text>
</a>
</g>
<!-- Node1&#45;&gt;Node9 -->
<g id="edge16" class="edge"><title>Node1&#45;&gt;Node9</title>
<path fill="none" stroke="midnightblue" d="M82.1511,-145.716C98.274,-117.053 134.575,-59.9752 182,-31 185.397,-28.9246 188.982,-27.0634 192.687,-25.3944"/>
<polygon fill="midnightblue" stroke="midnightblue" points="194.12,-28.591 202.106,-21.6291 191.521,-22.0911 194.12,-28.591"/>
</g>
</g>
</svg>
