<?xml version="1.0" encoding="UTF-8" standalone="no"?>
<!DOCTYPE svg PUBLIC "-//W3C//DTD SVG 1.1//EN"
 "http://www.w3.org/Graphics/SVG/1.1/DTD/svg11.dtd">
<!-- Generated by graphviz version 2.26.3 (20100126.1600)
 -->
<!-- Title: Urho3D::AnimatedModel::OnWorldBoundingBoxUpdate Pages: 1 -->
<svg width="572pt" height="174pt"
 viewBox="0.00 0.00 572.00 174.00" xmlns="http://www.w3.org/2000/svg" xmlns:xlink="http://www.w3.org/1999/xlink">
<g id="graph1" class="graph" transform="scale(1 1) rotate(0) translate(4 170)">
<title>Urho3D::AnimatedModel::OnWorldBoundingBoxUpdate</title>
<!-- Node1 -->
<g id="node1" class="node"><title>Node1</title>
<polygon fill="#bfbfbf" stroke="black" points="0,-66 0,-100 160,-100 160,-66 0,-66"/>
<text text-anchor="start" x="8" y="-87" font-family="FreeSans" font-size="10.00">Urho3D::AnimatedModel</text>
<text text-anchor="middle" x="80" y="-74" font-family="FreeSans" font-size="10.00">::OnWorldBoundingBoxUpdate</text>
</g>
<!-- Node2 -->
<g id="node3" class="node"><title>Node2</title>
<a xlink:href="a00085.html#aa75dc3b9cce0c3c6ea4e34e4f8f125c2" target="_top" xlink:title="Return transformed by a 3x3 matrix.">
<polygon fill="none" stroke="black" points="226,-132 226,-166 348,-166 348,-132 226,-132"/>
<text text-anchor="start" x="234" y="-153" font-family="FreeSans" font-size="10.00">Urho3D::BoundingBox</text>
<text text-anchor="middle" x="287" y="-140" font-family="FreeSans" font-size="10.00">::Transformed</text>
</a>
</g>
<!-- Node1&#45;&gt;Node2 -->
<g id="edge2" class="edge"><title>Node1&#45;&gt;Node2</title>
<path fill="none" stroke="midnightblue" d="M127.499,-100.024C148.419,-107.355 173.345,-115.863 196,-123 202.423,-125.023 209.122,-127.065 215.843,-129.068"/>
<polygon fill="midnightblue" stroke="midnightblue" points="215.096,-132.497 225.678,-131.967 217.076,-125.782 215.096,-132.497"/>
</g>
<!-- Node3 -->
<g id="node5" class="node"><title>Node3</title>
<a xlink:href="a00231.html#acbf5c9951a685acdbe75d1d39eeb7045" target="_top" xlink:title="Return world space transform matrix.">
<polygon fill="none" stroke="black" points="196.5,-92.5 196.5,-113.5 377.5,-113.5 377.5,-92.5 196.5,-92.5"/>
<text text-anchor="middle" x="287" y="-100.5" font-family="FreeSans" font-size="10.00">Urho3D::Node::GetWorldTransform</text>
</a>
</g>
<!-- Node1&#45;&gt;Node3 -->
<g id="edge4" class="edge"><title>Node1&#45;&gt;Node3</title>
<path fill="none" stroke="midnightblue" d="M160.032,-90.7325C168.536,-91.5542 177.263,-92.3974 185.967,-93.2384"/>
<polygon fill="midnightblue" stroke="midnightblue" points="185.869,-96.7451 196.16,-94.2232 186.543,-89.7776 185.869,-96.7451"/>
</g>
<!-- Node4 -->
<g id="node7" class="node"><title>Node4</title>
<a xlink:href="a00231.html#a96f75cc225a16978220dd771f76bdb18" target="_top" xlink:title="Return component by type. If there are several, returns the first.">
<polygon fill="none" stroke="black" points="205,-52.5 205,-73.5 369,-73.5 369,-52.5 205,-52.5"/>
<text text-anchor="middle" x="287" y="-60.5" font-family="FreeSans" font-size="10.00">Urho3D::Node::GetComponent</text>
</a>
</g>
<!-- Node1&#45;&gt;Node4 -->
<g id="edge6" class="edge"><title>Node1&#45;&gt;Node4</title>
<path fill="none" stroke="midnightblue" d="M160.032,-75.2675C171.383,-74.1708 183.131,-73.0356 194.692,-71.9187"/>
<polygon fill="midnightblue" stroke="midnightblue" points="195.17,-75.3888 204.787,-70.9432 194.497,-68.4213 195.17,-75.3888"/>
</g>
<!-- Node5 -->
<g id="node9" class="node"><title>Node5</title>
<a xlink:href="a00146.html#a3930dc9342c0aefcfd4c94eb8079e365" target="_top" xlink:title="Return world&#45;space bounding box.">
<polygon fill="none" stroke="black" points="211,-0 211,-34 363,-34 363,-0 211,-0"/>
<text text-anchor="start" x="219" y="-21" font-family="FreeSans" font-size="10.00">Urho3D::Drawable::GetWorld</text>
<text text-anchor="middle" x="287" y="-8" font-family="FreeSans" font-size="10.00">BoundingBox</text>
</a>
</g>
<!-- Node1&#45;&gt;Node5 -->
<g id="edge8" class="edge"><title>Node1&#45;&gt;Node5</title>
<path fill="none" stroke="midnightblue" d="M127.499,-65.9757C148.419,-58.6448 173.345,-50.1367 196,-43 202.423,-40.9767 209.122,-38.9348 215.843,-36.9321"/>
<polygon fill="midnightblue" stroke="midnightblue" points="217.076,-40.2178 225.678,-34.0329 215.096,-33.5034 217.076,-40.2178"/>
</g>
<!-- Node6 -->
<g id="node11" class="node"><title>Node6</title>
<a xlink:href="a00146.html#af146747caaf6fd85ab71fda4e364bde4" target="_top" xlink:title="Recalculate the world&#45;space bounding box.">
<polygon fill="none" stroke="black" points="414.5,-0 414.5,-34 563.5,-34 563.5,-0 414.5,-0"/>
<text text-anchor="start" x="422.5" y="-21" font-family="FreeSans" font-size="10.00">Urho3D::Drawable::OnWorld</text>
<text text-anchor="middle" x="489" y="-8" font-family="FreeSans" font-size="10.00">BoundingBoxUpdate</text>
</a>
</g>
<!-- Node5&#45;&gt;Node6 -->
<g id="edge10" class="edge"><title>Node5&#45;&gt;Node6</title>
<path fill="none" stroke="midnightblue" d="M363.08,-17C376.448,-17 390.437,-17 404.029,-17"/>
<polygon fill="midnightblue" stroke="midnightblue" points="404.329,-20.5001 414.329,-17 404.329,-13.5001 404.329,-20.5001"/>
</g>
</g>
</svg>
