<?xml version="1.0" encoding="UTF-8" standalone="no"?>
<!DOCTYPE svg PUBLIC "-//W3C//DTD SVG 1.1//EN"
 "http://www.w3.org/Graphics/SVG/1.1/DTD/svg11.dtd">
<!-- Generated by graphviz version 2.26.3 (20100126.1600)
 -->
<!-- Title: Urho3D::Graphics::Clear Pages: 1 -->
<!--zoomable 552 -->
<svg id="main" version="1.1" xmlns="http://www.w3.org/2000/svg" xmlns:xlink="http://www.w3.org/1999/xlink" xml:space="preserve" onload="init(evt)">
        <defs>
                <circle id="rim" cx="0" cy="0" r="7"/>
                <circle id="rim2" cx="0" cy="0" r="3.5"/>
                <g id="zoomPlus">
                        <use xlink:href="#rim" fill="#404040">
                                <set attributeName="fill" to="#808080" begin="zoomplus.mouseover" end="zoomplus.mouseout"/>
                        </use>
                        <path d="M-4,0h8M0,-4v8" fill="none" stroke="white" stroke-width="1.5" pointer-events="none"/>
                </g>
                <g id="zoomMin">
                        <use xlink:href="#rim" fill="#404040">
                                <set attributeName="fill" to="#808080" begin="zoomminus.mouseover" end="zoomminus.mouseout"/>
                        </use>
                        <path d="M-4,0h8" fill="none" stroke="white" stroke-width="1.5" pointer-events="none"/>
                </g>
                <g id="dirArrow">
                        <path fill="none" stroke="white" stroke-width="1.5" d="M0,-3.0v7 M-2.5,-0.5L0,-3.0L2.5,-0.5"/>
                </g>
               <g id="resetDef">
                       <use xlink:href="#rim2" fill="#404040">
                               <set attributeName="fill" to="#808080" begin="reset.mouseover" end="reset.mouseout"/>
                       </use>
               </g>
        </defs>

<script type="text/javascript">
var viewWidth = 962;
var viewHeight = 552;
var sectionId = 'dynsection-2';
</script>
<script xlink:href="svgpan.js"/>
<svg id="graph" class="graph">
<g id="viewport">
<title>Urho3D::Graphics::Clear</title>
<!-- Node1 -->
<g id="node1" class="node"><title>Node1</title>
<polygon fill="#bfbfbf" stroke="black" points="0,-355.5 0,-376.5 132,-376.5 132,-355.5 0,-355.5"/>
<text text-anchor="middle" x="66" y="-363.5" font-family="FreeSans" font-size="10.00">Urho3D::Graphics::Clear</text>
</g>
<!-- Node2 -->
<g id="node3" class="node"><title>Node2</title>
<a xlink:href="a00138.html#a1d523ca46d14955ac6bc9c2b9e3feb3c" target="_top" xlink:title="Select FBO and commit changes.">
<polygon fill="none" stroke="black" points="184,-260 184,-294 330,-294 330,-260 184,-260"/>
<text text-anchor="start" x="192" y="-281" font-family="FreeSans" font-size="10.00">Urho3D::Graphics::Commit</text>
<text text-anchor="middle" x="257" y="-268" font-family="FreeSans" font-size="10.00">Framebuffer</text>
</a>
</g>
<!-- Node1&#45;&gt;Node2 -->
<g id="edge2" class="edge"><title>Node1&#45;&gt;Node2</title>
<path fill="none" stroke="midnightblue" d="M88.6603,-355.441C118.631,-341.476 172.166,-316.53 210.83,-298.514"/>
<polygon fill="midnightblue" stroke="midnightblue" points="212.73,-301.49 220.316,-294.093 209.774,-295.145 212.73,-301.49"/>
</g>
<!-- Node3 -->
<g id="node5" class="node"><title>Node3</title>
<a xlink:href="a00138.html#a016c9d34850452e2e97a51f520d15443" target="_top" xlink:title="Return rendertarget width and height.">
<polygon fill="none" stroke="black" points="382,-470 382,-504 540,-504 540,-470 382,-470"/>
<text text-anchor="start" x="390" y="-491" font-family="FreeSans" font-size="10.00">Urho3D::Graphics::GetRender</text>
<text text-anchor="middle" x="461" y="-478" font-family="FreeSans" font-size="10.00">TargetDimensions</text>
</a>
</g>
<!-- Node1&#45;&gt;Node3 -->
<g id="edge52" class="edge"><title>Node1&#45;&gt;Node3</title>
<path fill="none" stroke="midnightblue" d="M73.206,-376.581C88.0916,-397.438 124.508,-443.525 168,-463 231.96,-491.64 311.598,-496.462 371.697,-494.776"/>
<polygon fill="midnightblue" stroke="midnightblue" points="372.052,-498.266 381.925,-494.422 371.809,-491.27 372.052,-498.266"/>
</g>
<!-- Node20 -->
<g id="node44" class="node"><title>Node20</title>
<a xlink:href="a00138.html#a491fe007ce9f8dce215ba00f5c27ff0d" target="_top" xlink:title="Set color write on/off.">
<polygon fill="none" stroke="black" points="182.5,-208 182.5,-242 331.5,-242 331.5,-208 182.5,-208"/>
<text text-anchor="start" x="190.5" y="-229" font-family="FreeSans" font-size="10.00">Urho3D::Graphics::SetColor</text>
<text text-anchor="middle" x="257" y="-216" font-family="FreeSans" font-size="10.00">Write</text>
</a>
</g>
<!-- Node1&#45;&gt;Node20 -->
<g id="edge48" class="edge"><title>Node1&#45;&gt;Node20</title>
<path fill="none" stroke="midnightblue" d="M72.4612,-355.321C86.7574,-332.608 123.364,-279.279 168,-251 170.486,-249.425 173.071,-247.942 175.727,-246.547"/>
<polygon fill="midnightblue" stroke="midnightblue" points="177.475,-249.591 184.999,-242.131 174.465,-243.271 177.475,-249.591"/>
</g>
<!-- Node21 -->
<g id="node46" class="node"><title>Node21</title>
<a xlink:href="a00138.html#abce9b1421f7b2d1179659ca887171f2a" target="_top" xlink:title="Set depth write on/off.">
<polygon fill="none" stroke="black" points="180.5,-156 180.5,-190 333.5,-190 333.5,-156 180.5,-156"/>
<text text-anchor="start" x="188.5" y="-177" font-family="FreeSans" font-size="10.00">Urho3D::Graphics::SetDepth</text>
<text text-anchor="middle" x="257" y="-164" font-family="FreeSans" font-size="10.00">Write</text>
</a>
</g>
<!-- Node1&#45;&gt;Node21 -->
<g id="edge50" class="edge"><title>Node1&#45;&gt;Node21</title>
<path fill="none" stroke="midnightblue" d="M69.4951,-355.119C79.6225,-325.354 111.889,-241.954 168,-199 169.817,-197.609 171.708,-196.292 173.657,-195.045"/>
<polygon fill="midnightblue" stroke="midnightblue" points="175.559,-197.99 182.538,-190.018 172.111,-191.898 175.559,-197.99"/>
</g>
<!-- Node22 -->
<g id="node49" class="node"><title>Node22</title>
<a xlink:href="a00138.html#a27670beb9e90540f69da3d24da2d07bd" target="_top" xlink:title="Set scissor test.">
<polygon fill="none" stroke="black" points="168.5,-432.5 168.5,-453.5 345.5,-453.5 345.5,-432.5 168.5,-432.5"/>
<text text-anchor="middle" x="257" y="-440.5" font-family="FreeSans" font-size="10.00">Urho3D::Graphics::SetScissorTest</text>
</a>
</g>
<!-- Node1&#45;&gt;Node22 -->
<g id="edge54" class="edge"><title>Node1&#45;&gt;Node22</title>
<path fill="none" stroke="midnightblue" d="M83.9236,-376.514C103.911,-387.909 137.454,-406.059 168,-418 179.211,-422.383 191.492,-426.343 203.254,-429.752"/>
<polygon fill="midnightblue" stroke="midnightblue" points="202.403,-433.149 212.977,-432.484 204.296,-426.41 202.403,-433.149"/>
</g>
<!-- Node24 -->
<g id="node54" class="node"><title>Node24</title>
<a xlink:href="a00153.html#ac268b351be57db860350147b5eb771ef" target="_top" xlink:title="Return width.">
<polygon fill="none" stroke="black" points="399,-430.5 399,-451.5 523,-451.5 523,-430.5 399,-430.5"/>
<text text-anchor="middle" x="461" y="-438.5" font-family="FreeSans" font-size="10.00">Urho3D::IntRect::Width</text>
</a>
</g>
<!-- Node1&#45;&gt;Node24 -->
<g id="edge64" class="edge"><title>Node1&#45;&gt;Node24</title>
<path fill="none" stroke="midnightblue" d="M108.557,-376.603C126.805,-380.996 148.395,-385.991 168,-390 242.957,-405.328 329.305,-419.999 388.745,-429.637"/>
<polygon fill="midnightblue" stroke="midnightblue" points="388.353,-433.119 398.783,-431.259 389.469,-426.209 388.353,-433.119"/>
</g>
<!-- Node25 -->
<g id="node56" class="node"><title>Node25</title>
<a xlink:href="a00153.html#a69df34bbfeb4f2473fd1bb532e038770" target="_top" xlink:title="Return height.">
<polygon fill="none" stroke="black" points="396.5,-390.5 396.5,-411.5 525.5,-411.5 525.5,-390.5 396.5,-390.5"/>
<text text-anchor="middle" x="461" y="-398.5" font-family="FreeSans" font-size="10.00">Urho3D::IntRect::Height</text>
</a>
</g>
<!-- Node1&#45;&gt;Node25 -->
<g id="edge66" class="edge"><title>Node1&#45;&gt;Node25</title>
<path fill="none" stroke="midnightblue" d="M132.207,-371.49C188.954,-376.24 272.872,-383.369 346,-390 358.972,-391.176 372.764,-392.464 386.125,-393.73"/>
<polygon fill="midnightblue" stroke="midnightblue" points="385.95,-397.229 396.237,-394.692 386.613,-390.261 385.95,-397.229"/>
</g>
<!-- Node2&#45;&gt;Node3 -->
<g id="edge4" class="edge"><title>Node2&#45;&gt;Node3</title>
<path fill="none" stroke="midnightblue" d="M266.656,-294.057C290.143,-335.028 350.624,-437.345 382,-461 383.827,-462.377 385.73,-463.683 387.693,-464.922"/>
<polygon fill="midnightblue" stroke="midnightblue" points="386.2,-468.098 396.634,-469.934 389.622,-461.991 386.2,-468.098"/>
</g>
<!-- Node8 -->
<g id="node15" class="node"><title>Node8</title>
<a xlink:href="a00240.html#a3a7c4f50c5887e1d74f30b6350a2619c" target="_top" xlink:title="Return parent texture.">
<polygon fill="none" stroke="black" points="396.5,-0 396.5,-34 525.5,-34 525.5,-0 396.5,-0"/>
<text text-anchor="start" x="404.5" y="-21" font-family="FreeSans" font-size="10.00">Urho3D::RenderSurface</text>
<text text-anchor="middle" x="461" y="-8" font-family="FreeSans" font-size="10.00">::GetParentTexture</text>
</a>
</g>
<!-- Node2&#45;&gt;Node8 -->
<g id="edge14" class="edge"><title>Node2&#45;&gt;Node8</title>
<path fill="none" stroke="midnightblue" d="M330.158,-263.441C336.075,-260.13 341.497,-256.043 346,-251 408.493,-181.025 320.695,-114.019 382,-43 383.775,-40.9438 385.716,-39.0494 387.788,-37.3041"/>
<polygon fill="midnightblue" stroke="midnightblue" points="390.189,-39.8948 396.364,-31.2848 386.168,-34.1653 390.189,-39.8948"/>
</g>
<!-- Node9 -->
<g id="node17" class="node"><title>Node9</title>
<a xlink:href="a00298.html#a2f053f59f1001c8c85c9382d07900211" target="_top" xlink:title="Return texture format.">
<polygon fill="none" stroke="black" points="385,-350.5 385,-371.5 537,-371.5 537,-350.5 385,-350.5"/>
<text text-anchor="middle" x="461" y="-358.5" font-family="FreeSans" font-size="10.00">Urho3D::Texture::GetFormat</text>
</a>
</g>
<!-- Node2&#45;&gt;Node9 -->
<g id="edge16" class="edge"><title>Node2&#45;&gt;Node9</title>
<path fill="none" stroke="midnightblue" d="M289.89,-294.015C314.793,-306.53 350.053,-323.471 382,-336 392.356,-340.061 403.664,-343.95 414.404,-347.4"/>
<polygon fill="midnightblue" stroke="midnightblue" points="413.474,-350.777 424.063,-350.438 415.574,-344.099 413.474,-350.777"/>
</g>
<!-- Node10 -->
<g id="node19" class="node"><title>Node10</title>
<a xlink:href="a00298.html#a0c6760bb91c25cb9b5387eb9cae27a50" target="_top" xlink:title="Return whether parameters are dirty.">
<polygon fill="none" stroke="black" points="585.5,-122 585.5,-156 758.5,-156 758.5,-122 585.5,-122"/>
<text text-anchor="start" x="593.5" y="-143" font-family="FreeSans" font-size="10.00">Urho3D::Texture::GetParameters</text>
<text text-anchor="middle" x="672" y="-130" font-family="FreeSans" font-size="10.00">Dirty</text>
</a>
</g>
<!-- Node2&#45;&gt;Node10 -->
<g id="edge18" class="edge"><title>Node2&#45;&gt;Node10</title>
<path fill="none" stroke="midnightblue" d="M330.182,-261.461C335.872,-258.551 341.244,-255.098 346,-251 374.922,-226.075 351.094,-195.418 382,-173 412.128,-151.146 503.109,-143.177 575.22,-140.354"/>
<polygon fill="midnightblue" stroke="midnightblue" points="575.396,-143.85 585.262,-139.988 575.141,-136.854 575.396,-143.85"/>
</g>
<!-- Node11 -->
<g id="node21" class="node"><title>Node11</title>
<a xlink:href="a00138.html#a8b325a50b867fe7866389f94e8a8575a" target="_top" xlink:title="Bind texture unit 0 for update. Called by Texture.">
<polygon fill="none" stroke="black" points="382,-260 382,-294 540,-294 540,-260 382,-260"/>
<text text-anchor="start" x="390" y="-281" font-family="FreeSans" font-size="10.00">Urho3D::Graphics::SetTexture</text>
<text text-anchor="middle" x="461" y="-268" font-family="FreeSans" font-size="10.00">ForUpdate</text>
</a>
</g>
<!-- Node2&#45;&gt;Node11 -->
<g id="edge20" class="edge"><title>Node2&#45;&gt;Node11</title>
<path fill="none" stroke="midnightblue" d="M330.072,-277C343.596,-277 357.859,-277 371.799,-277"/>
<polygon fill="midnightblue" stroke="midnightblue" points="371.876,-280.5 381.876,-277 371.876,-273.5 371.876,-280.5"/>
</g>
<!-- Node13 -->
<g id="node25" class="node"><title>Node13</title>
<a xlink:href="a00137.html#acc3aa11294b3d788965f299ca9bfb81c" target="_top" xlink:title="Return the object&#39;s OpenGL handle.">
<polygon fill="none" stroke="black" points="613.5,-306 613.5,-340 730.5,-340 730.5,-306 613.5,-306"/>
<text text-anchor="start" x="621.5" y="-327" font-family="FreeSans" font-size="10.00">Urho3D::GPUObject::</text>
<text text-anchor="middle" x="672" y="-314" font-family="FreeSans" font-size="10.00">GetGPUObject</text>
</a>
</g>
<!-- Node2&#45;&gt;Node13 -->
<g id="edge42" class="edge"><title>Node2&#45;&gt;Node13</title>
<path fill="none" stroke="midnightblue" d="M330.078,-293.94C347.047,-297.389 365.092,-300.67 382,-303 457.224,-313.368 544.204,-318.458 603.134,-320.892"/>
<polygon fill="midnightblue" stroke="midnightblue" points="603.305,-324.401 613.437,-321.302 603.584,-317.407 603.305,-324.401"/>
</g>
<!-- Node14 -->
<g id="node27" class="node"><title>Node14</title>
<a xlink:href="a00298.html#a7eaf51cf81ac775bdc87e00ec1a47979" target="_top" xlink:title="Update changed parameters to OpenGL. Called by Graphics when binding the texture.">
<polygon fill="none" stroke="black" points="576.5,-174.5 576.5,-195.5 767.5,-195.5 767.5,-174.5 576.5,-174.5"/>
<text text-anchor="middle" x="672" y="-182.5" font-family="FreeSans" font-size="10.00">Urho3D::Texture::UpdateParameters</text>
</a>
</g>
<!-- Node2&#45;&gt;Node14 -->
<g id="edge26" class="edge"><title>Node2&#45;&gt;Node14</title>
<path fill="none" stroke="midnightblue" d="M328.975,-259.827C334.923,-257.267 340.685,-254.341 346,-251 366.25,-238.273 360.608,-221.697 382,-211 438.512,-182.74 508.975,-175.879 566.292,-176.256"/>
<polygon fill="midnightblue" stroke="midnightblue" points="566.42,-179.758 576.469,-176.399 566.519,-172.759 566.42,-179.758"/>
</g>
<!-- Node16 -->
<g id="node31" class="node"><title>Node16</title>
<a xlink:href="a00138.html#ab7a2098ed479f28acbd7b3549c5dc205" target="_top" xlink:title="Set texture.">
<polygon fill="none" stroke="black" points="382,-220.5 382,-241.5 540,-241.5 540,-220.5 382,-220.5"/>
<text text-anchor="middle" x="461" y="-228.5" font-family="FreeSans" font-size="10.00">Urho3D::Graphics::SetTexture</text>
</a>
</g>
<!-- Node2&#45;&gt;Node16 -->
<g id="edge30" class="edge"><title>Node2&#45;&gt;Node16</title>
<path fill="none" stroke="midnightblue" d="M330.072,-260.523C354.472,-255.021 381.279,-248.976 404.247,-243.797"/>
<polygon fill="midnightblue" stroke="midnightblue" points="405.186,-247.173 414.171,-241.559 403.646,-240.345 405.186,-247.173"/>
</g>
<!-- Node18 -->
<g id="node40" class="node"><title>Node18</title>
<a xlink:href="a00240.html#a5c60fb09e5a2dd4545148d5a06d57d4b" target="_top" xlink:title="Return renderbuffer if created.">
<polygon fill="none" stroke="black" points="396.5,-92 396.5,-126 525.5,-126 525.5,-92 396.5,-92"/>
<text text-anchor="start" x="404.5" y="-113" font-family="FreeSans" font-size="10.00">Urho3D::RenderSurface</text>
<text text-anchor="middle" x="461" y="-100" font-family="FreeSans" font-size="10.00">::GetRenderBuffer</text>
</a>
</g>
<!-- Node2&#45;&gt;Node18 -->
<g id="edge44" class="edge"><title>Node2&#45;&gt;Node18</title>
<path fill="none" stroke="midnightblue" d="M330.295,-262.286C336.032,-259.204 341.381,-255.486 346,-251 383.208,-214.87 346.45,-177.762 382,-140 384.954,-136.862 388.264,-134.037 391.811,-131.493"/>
<polygon fill="midnightblue" stroke="midnightblue" points="393.856,-134.342 400.459,-126.056 390.13,-128.416 393.856,-134.342"/>
</g>
<!-- Node19 -->
<g id="node42" class="node"><title>Node19</title>
<a xlink:href="a00298.html#af0adf78530abb05a692b52c0df297c9f" target="_top" xlink:title="Return whether is using sRGB sampling and writing.">
<polygon fill="none" stroke="black" points="389,-52.5 389,-73.5 533,-73.5 533,-52.5 389,-52.5"/>
<text text-anchor="middle" x="461" y="-60.5" font-family="FreeSans" font-size="10.00">Urho3D::Texture::GetSRGB</text>
</a>
</g>
<!-- Node2&#45;&gt;Node19 -->
<g id="edge46" class="edge"><title>Node2&#45;&gt;Node19</title>
<path fill="none" stroke="midnightblue" d="M330.375,-263.017C336.17,-259.787 341.507,-255.834 346,-251 397.986,-195.066 329.008,-137.982 382,-83 383.249,-81.7044 384.568,-80.4881 385.949,-79.3465"/>
<polygon fill="midnightblue" stroke="midnightblue" points="388.13,-82.0965 394.449,-73.5924 384.206,-76.2997 388.13,-82.0965"/>
</g>
<!-- Node4 -->
<g id="node7" class="node"><title>Node4</title>
<a xlink:href="a00240.html#a1be67d97ab77b0d6f24776a3f75c5e6a" target="_top" xlink:title="Return width.">
<polygon fill="none" stroke="black" points="607.5,-496 607.5,-530 736.5,-530 736.5,-496 607.5,-496"/>
<text text-anchor="start" x="615.5" y="-517" font-family="FreeSans" font-size="10.00">Urho3D::RenderSurface</text>
<text text-anchor="middle" x="672" y="-504" font-family="FreeSans" font-size="10.00">::GetWidth</text>
</a>
</g>
<!-- Node3&#45;&gt;Node4 -->
<g id="edge6" class="edge"><title>Node3&#45;&gt;Node4</title>
<path fill="none" stroke="midnightblue" d="M540.169,-496.755C558.817,-499.053 578.637,-501.496 597.091,-503.769"/>
<polygon fill="midnightblue" stroke="midnightblue" points="596.833,-507.264 607.186,-505.013 597.689,-500.317 596.833,-507.264"/>
</g>
<!-- Node6 -->
<g id="node11" class="node"><title>Node6</title>
<a xlink:href="a00240.html#a3c0b5d48265c55fd1692924b9e45ce24" target="_top" xlink:title="Return height.">
<polygon fill="none" stroke="black" points="607.5,-444 607.5,-478 736.5,-478 736.5,-444 607.5,-444"/>
<text text-anchor="start" x="615.5" y="-465" font-family="FreeSans" font-size="10.00">Urho3D::RenderSurface</text>
<text text-anchor="middle" x="672" y="-452" font-family="FreeSans" font-size="10.00">::GetHeight</text>
</a>
</g>
<!-- Node3&#45;&gt;Node6 -->
<g id="edge10" class="edge"><title>Node3&#45;&gt;Node6</title>
<path fill="none" stroke="midnightblue" d="M540.169,-477.245C558.817,-474.947 578.637,-472.504 597.091,-470.231"/>
<polygon fill="midnightblue" stroke="midnightblue" points="597.689,-473.683 607.186,-468.987 596.833,-466.736 597.689,-473.683"/>
</g>
<!-- Node5 -->
<g id="node9" class="node"><title>Node5</title>
<a xlink:href="a00298.html#acfd4faedc2f8b67d4e704158cc4e8781" target="_top" xlink:title="Return width.">
<polygon fill="none" stroke="black" points="807.5,-502.5 807.5,-523.5 950.5,-523.5 950.5,-502.5 807.5,-502.5"/>
<text text-anchor="middle" x="879" y="-510.5" font-family="FreeSans" font-size="10.00">Urho3D::Texture::GetWidth</text>
</a>
</g>
<!-- Node4&#45;&gt;Node5 -->
<g id="edge8" class="edge"><title>Node4&#45;&gt;Node5</title>
<path fill="none" stroke="midnightblue" d="M736.645,-513C755.824,-513 777.087,-513 797.204,-513"/>
<polygon fill="midnightblue" stroke="midnightblue" points="797.286,-516.5 807.286,-513 797.286,-509.5 797.286,-516.5"/>
</g>
<!-- Node7 -->
<g id="node13" class="node"><title>Node7</title>
<a xlink:href="a00298.html#a1620a19d49cd5a72926a74b9b7205d7b" target="_top" xlink:title="Return height.">
<polygon fill="none" stroke="black" points="804.5,-450.5 804.5,-471.5 953.5,-471.5 953.5,-450.5 804.5,-450.5"/>
<text text-anchor="middle" x="879" y="-458.5" font-family="FreeSans" font-size="10.00">Urho3D::Texture::GetHeight</text>
</a>
</g>
<!-- Node6&#45;&gt;Node7 -->
<g id="edge12" class="edge"><title>Node6&#45;&gt;Node7</title>
<path fill="none" stroke="midnightblue" d="M736.645,-461C754.845,-461 774.92,-461 794.113,-461"/>
<polygon fill="midnightblue" stroke="midnightblue" points="794.359,-464.5 804.359,-461 794.359,-457.5 794.359,-464.5"/>
</g>
<!-- Node12 -->
<g id="node23" class="node"><title>Node12</title>
<a xlink:href="a00298.html#a0f0fa1e6a8ac9b41832b5d5d6f5ffab3" target="_top" xlink:title="Return texture&#39;s OpenGL target.">
<polygon fill="none" stroke="black" points="599,-266.5 599,-287.5 745,-287.5 745,-266.5 599,-266.5"/>
<text text-anchor="middle" x="672" y="-274.5" font-family="FreeSans" font-size="10.00">Urho3D::Texture::GetTarget</text>
</a>
</g>
<!-- Node11&#45;&gt;Node12 -->
<g id="edge22" class="edge"><title>Node11&#45;&gt;Node12</title>
<path fill="none" stroke="midnightblue" d="M540.169,-277C555.901,-277 572.467,-277 588.343,-277"/>
<polygon fill="midnightblue" stroke="midnightblue" points="588.661,-280.5 598.661,-277 588.66,-273.5 588.661,-280.5"/>
</g>
<!-- Node11&#45;&gt;Node13 -->
<g id="edge24" class="edge"><title>Node11&#45;&gt;Node13</title>
<path fill="none" stroke="midnightblue" d="M539.269,-294.063C560.334,-298.656 582.953,-303.587 603.445,-308.054"/>
<polygon fill="midnightblue" stroke="midnightblue" points="602.801,-311.496 613.317,-310.207 604.292,-304.657 602.801,-311.496"/>
</g>
<!-- Node15 -->
<g id="node29" class="node"><title>Node15</title>
<a xlink:href="a00084.html#af4fe4462664d0de4722288e0bcc2b1cc" target="_top" xlink:title="Return float data.">
<polygon fill="none" stroke="black" points="822.5,-174.5 822.5,-195.5 935.5,-195.5 935.5,-174.5 822.5,-174.5"/>
<text text-anchor="middle" x="879" y="-182.5" font-family="FreeSans" font-size="10.00">Urho3D::Color::Data</text>
</a>
</g>
<!-- Node14&#45;&gt;Node15 -->
<g id="edge28" class="edge"><title>Node14&#45;&gt;Node15</title>
<path fill="none" stroke="midnightblue" d="M767.623,-185C782.711,-185 798.024,-185 812.268,-185"/>
<polygon fill="midnightblue" stroke="midnightblue" points="812.433,-188.5 822.433,-185 812.433,-181.5 812.433,-188.5"/>
</g>
<!-- Node16&#45;&gt;Node10 -->
<g id="edge38" class="edge"><title>Node16&#45;&gt;Node10</title>
<path fill="none" stroke="midnightblue" d="M476.341,-220.479C497.793,-206.175 538.358,-180.594 576,-165 580.812,-163.007 585.823,-161.122 590.919,-159.348"/>
<polygon fill="midnightblue" stroke="midnightblue" points="592.403,-162.543 600.794,-156.074 590.2,-155.899 592.403,-162.543"/>
</g>
<!-- Node16&#45;&gt;Node12 -->
<g id="edge34" class="edge"><title>Node16&#45;&gt;Node12</title>
<path fill="none" stroke="midnightblue" d="M506.848,-241.553C527.898,-246.35 553.197,-252.047 576,-257 587.195,-259.431 599.137,-261.966 610.66,-264.383"/>
<polygon fill="midnightblue" stroke="midnightblue" points="610.145,-267.85 620.65,-266.47 611.577,-260.998 610.145,-267.85"/>
</g>
<!-- Node16&#45;&gt;Node13 -->
<g id="edge36" class="edge"><title>Node16&#45;&gt;Node13</title>
<path fill="none" stroke="midnightblue" d="M520.622,-241.509C527.447,-244.023 534.073,-247.139 540,-251 561.753,-265.17 554.365,-282.651 576,-297 584.364,-302.547 593.879,-306.916 603.591,-310.355"/>
<polygon fill="midnightblue" stroke="midnightblue" points="602.742,-313.759 613.333,-313.494 604.888,-307.096 602.742,-313.759"/>
</g>
<!-- Node16&#45;&gt;Node14 -->
<g id="edge40" class="edge"><title>Node16&#45;&gt;Node14</title>
<path fill="none" stroke="midnightblue" d="M506.848,-220.447C527.898,-215.65 553.197,-209.953 576,-205 587.195,-202.569 599.137,-200.034 610.66,-197.617"/>
<polygon fill="midnightblue" stroke="midnightblue" points="611.577,-201.002 620.65,-195.53 610.145,-194.15 611.577,-201.002"/>
</g>
<!-- Node17 -->
<g id="node33" class="node"><title>Node17</title>
<a xlink:href="a00298.html#ae4e6f15cfc20a4fc50a0947e9606f83d" target="_top" xlink:title="Return backup texture.">
<polygon fill="none" stroke="black" points="596,-214 596,-248 748,-248 748,-214 596,-214"/>
<text text-anchor="start" x="604" y="-235" font-family="FreeSans" font-size="10.00">Urho3D::Texture::GetBackup</text>
<text text-anchor="middle" x="672" y="-222" font-family="FreeSans" font-size="10.00">Texture</text>
</a>
</g>
<!-- Node16&#45;&gt;Node17 -->
<g id="edge32" class="edge"><title>Node16&#45;&gt;Node17</title>
<path fill="none" stroke="midnightblue" d="M540.169,-231C554.991,-231 570.553,-231 585.582,-231"/>
<polygon fill="midnightblue" stroke="midnightblue" points="585.885,-234.5 595.885,-231 585.885,-227.5 585.885,-234.5"/>
</g>
<!-- Node22&#45;&gt;Node3 -->
<g id="edge56" class="edge"><title>Node22&#45;&gt;Node3</title>
<path fill="none" stroke="midnightblue" d="M305.863,-453.539C325.68,-457.813 349.21,-462.888 371.878,-467.778"/>
<polygon fill="midnightblue" stroke="midnightblue" points="371.356,-471.245 381.869,-469.933 372.832,-464.403 371.356,-471.245"/>
</g>
<!-- Node23 -->
<g id="node52" class="node"><title>Node23</title>
<a xlink:href="a00153.html#a7d8747bfdd710559f3715160beac2872" target="_top" xlink:title="Return size.">
<polygon fill="none" stroke="black" points="402,-522.5 402,-543.5 520,-543.5 520,-522.5 402,-522.5"/>
<text text-anchor="middle" x="461" y="-530.5" font-family="FreeSans" font-size="10.00">Urho3D::IntRect::Size</text>
</a>
</g>
<!-- Node22&#45;&gt;Node23 -->
<g id="edge58" class="edge"><title>Node22&#45;&gt;Node23</title>
<path fill="none" stroke="midnightblue" d="M272.898,-453.716C296.007,-468.862 340.641,-496.518 382,-513 388.181,-515.463 394.758,-517.697 401.375,-519.701"/>
<polygon fill="midnightblue" stroke="midnightblue" points="400.482,-523.086 411.06,-522.475 402.41,-516.356 400.482,-523.086"/>
</g>
<!-- Node22&#45;&gt;Node24 -->
<g id="edge60" class="edge"><title>Node22&#45;&gt;Node24</title>
<path fill="none" stroke="midnightblue" d="M345.587,-442.131C360.037,-441.99 374.852,-441.845 388.846,-441.707"/>
<polygon fill="midnightblue" stroke="midnightblue" points="388.908,-445.207 398.873,-441.609 388.839,-438.207 388.908,-445.207"/>
</g>
<!-- Node22&#45;&gt;Node25 -->
<g id="edge62" class="edge"><title>Node22&#45;&gt;Node25</title>
<path fill="none" stroke="midnightblue" d="M308.214,-432.456C335.981,-426.739 370.489,-419.635 399.681,-413.625"/>
<polygon fill="midnightblue" stroke="midnightblue" points="400.676,-416.993 409.764,-411.548 399.264,-410.137 400.676,-416.993"/>
</g>
</g>
</svg>
        <g id="navigator" transform="translate(0 0)" fill="#404254">
                <rect fill="#f2f5e9" fill-opacity="0.5" stroke="#606060" stroke-width=".5" x="0" y="0" width="60" height="60"/>
                <use id="zoomplus" xlink:href="#zoomPlus" x="17" y="9" onmousedown="handleZoom(evt,'in')"/>
                <use id="zoomminus" xlink:href="#zoomMin" x="42" y="9" onmousedown="handleZoom(evt,'out')"/>
                <use id="reset" xlink:href="#resetDef" x="30" y="36" onmousedown="handleReset()"/>
                <g id="arrowUp" xlink:href="#dirArrow" transform="translate(30 24)" onmousedown="handlePan(0,-1)">
                  <use xlink:href="#rim" fill="#404040">
                        <set attributeName="fill" to="#808080" begin="arrowUp.mouseover" end="arrowUp.mouseout"/>
                  </use>
                  <path fill="none" stroke="white" stroke-width="1.5" d="M0,-3.0v7 M-2.5,-0.5L0,-3.0L2.5,-0.5"/>
                </g>
                <g id="arrowRight" xlink:href="#dirArrow" transform="rotate(90) translate(36 -43)" onmousedown="handlePan(1,0)">
                  <use xlink:href="#rim" fill="#404040">
                        <set attributeName="fill" to="#808080" begin="arrowRight.mouseover" end="arrowRight.mouseout"/>
                  </use>
                  <path fill="none" stroke="white" stroke-width="1.5" d="M0,-3.0v7 M-2.5,-0.5L0,-3.0L2.5,-0.5"/>
                </g>
                <g id="arrowDown" xlink:href="#dirArrow" transform="rotate(180) translate(-30 -48)" onmousedown="handlePan(0,1)">
                  <use xlink:href="#rim" fill="#404040">
                        <set attributeName="fill" to="#808080" begin="arrowDown.mouseover" end="arrowDown.mouseout"/>
                  </use>
                  <path fill="none" stroke="white" stroke-width="1.5" d="M0,-3.0v7 M-2.5,-0.5L0,-3.0L2.5,-0.5"/>
                </g>
                <g id="arrowLeft" xlink:href="#dirArrow" transform="rotate(270) translate(-36 17)" onmousedown="handlePan(-1,0)">
                  <use xlink:href="#rim" fill="#404040">
                        <set attributeName="fill" to="#808080" begin="arrowLeft.mouseover" end="arrowLeft.mouseout"/>
                  </use>
                  <path fill="none" stroke="white" stroke-width="1.5" d="M0,-3.0v7 M-2.5,-0.5L0,-3.0L2.5,-0.5"/>
                </g>
        </g>
        <svg viewBox="0 0 15 15" width="100%" height="30px" preserveAspectRatio="xMaxYMin meet">
         <g id="arrow_out" transform="scale(0.3 0.3)">
          <a xlink:href="a00138_a3e7b555e97944dd99eef236499d73d7b_cgraph_org.svg" target="_base">
           <rect id="button" ry="5" rx="5" y="6" x="6" height="38" width="38"
                fill="#f2f5e9" fill-opacity="0.5" stroke="#606060" stroke-width="1.0"/>
           <path id="arrow"
             d="M 11.500037,31.436501 C 11.940474,20.09759 22.043105,11.32322 32.158766,21.979434 L 37.068811,17.246167 C 37.068811,17.246167 37.088388,32 37.088388,32 L 22.160133,31.978069 C 22.160133,31.978069 26.997745,27.140456 26.997745,27.140456 C 18.528582,18.264221 13.291696,25.230495 11.500037,31.436501 z"
             style="fill:#404040;"/>
          </a>
         </g>
        </svg>
</svg>
