<?xml version="1.0" encoding="UTF-8" standalone="no"?>
<!DOCTYPE svg PUBLIC "-//W3C//DTD SVG 1.1//EN"
 "http://www.w3.org/Graphics/SVG/1.1/DTD/svg11.dtd">
<!-- Generated by graphviz version 2.26.3 (20100126.1600)
 -->
<!-- Title: Urho3D::FileSystem::GetProgramDir Pages: 1 -->
<svg width="640pt" height="212pt"
 viewBox="0.00 0.00 640.00 212.00" xmlns="http://www.w3.org/2000/svg" xmlns:xlink="http://www.w3.org/1999/xlink">
<g id="graph1" class="graph" transform="scale(1 1) rotate(0) translate(4 208)">
<title>Urho3D::FileSystem::GetProgramDir</title>
<!-- Node1 -->
<g id="node1" class="node"><title>Node1</title>
<polygon fill="#bfbfbf" stroke="black" points="0.5,-92 0.5,-126 111.5,-126 111.5,-92 0.5,-92"/>
<text text-anchor="start" x="8.5" y="-113" font-family="FreeSans" font-size="10.00">Urho3D::FileSystem</text>
<text text-anchor="middle" x="56" y="-100" font-family="FreeSans" font-size="10.00">::GetProgramDir</text>
</g>
<!-- Node2 -->
<g id="node3" class="node"><title>Node2</title>
<a xlink:href="a00341.html#a69ac7aadaa628fc05fc96abde992fcdc" target="_top" xlink:title="Return whether the string is empty.">
<polygon fill="none" stroke="black" points="151.5,-182.5 151.5,-203.5 276.5,-203.5 276.5,-182.5 151.5,-182.5"/>
<text text-anchor="middle" x="214" y="-190.5" font-family="FreeSans" font-size="10.00">Urho3D::String::Empty</text>
</a>
</g>
<!-- Node1&#45;&gt;Node2 -->
<g id="edge2" class="edge"><title>Node1&#45;&gt;Node2</title>
<path fill="none" stroke="midnightblue" d="M79.7833,-126.21C97.8956,-138.824 123.762,-155.805 148,-168 155.788,-171.919 164.346,-175.59 172.644,-178.85"/>
<polygon fill="midnightblue" stroke="midnightblue" points="171.612,-182.202 182.204,-182.476 174.095,-175.657 171.612,-182.202"/>
</g>
<!-- Node3 -->
<g id="node5" class="node"><title>Node3</title>
<a xlink:href="a00341.html#a6b405eba451da6c0f216a8649adf79aa" target="_top" xlink:title="Return the C string.">
<polygon fill="none" stroke="black" points="323.5,-130.5 323.5,-151.5 452.5,-151.5 452.5,-130.5 323.5,-130.5"/>
<text text-anchor="middle" x="388" y="-138.5" font-family="FreeSans" font-size="10.00">Urho3D::String::CString</text>
</a>
</g>
<!-- Node1&#45;&gt;Node3 -->
<g id="edge4" class="edge"><title>Node1&#45;&gt;Node3</title>
<path fill="none" stroke="midnightblue" d="M107.562,-126.018C120.616,-129.646 134.707,-132.988 148,-135 202.902,-143.309 265.659,-144.595 313.227,-143.917"/>
<polygon fill="midnightblue" stroke="midnightblue" points="313.506,-147.413 323.443,-143.738 313.384,-140.414 313.506,-147.413"/>
</g>
<!-- Node4 -->
<g id="node7" class="node"><title>Node4</title>
<a xlink:href="a00161.html#a575af6ad91fa461aca37622cfe928c85" target="_top" xlink:title="Return the absolute current working directory.">
<polygon fill="none" stroke="black" points="158.5,-92 158.5,-126 269.5,-126 269.5,-92 158.5,-92"/>
<text text-anchor="start" x="166.5" y="-113" font-family="FreeSans" font-size="10.00">Urho3D::FileSystem</text>
<text text-anchor="middle" x="214" y="-100" font-family="FreeSans" font-size="10.00">::GetCurrentDir</text>
</a>
</g>
<!-- Node1&#45;&gt;Node4 -->
<g id="edge6" class="edge"><title>Node1&#45;&gt;Node4</title>
<path fill="none" stroke="midnightblue" d="M111.705,-109C123.505,-109 136.066,-109 148.2,-109"/>
<polygon fill="midnightblue" stroke="midnightblue" points="148.266,-112.5 158.266,-109 148.266,-105.5 148.266,-112.5"/>
</g>
<!-- Node5 -->
<g id="node9" class="node"><title>Node5</title>
<a xlink:href="a00161.html#a2cd013d75ee49cea693188f3471d228e" target="_top" xlink:title="Check if a directory exists.">
<polygon fill="none" stroke="black" points="158.5,-40 158.5,-74 269.5,-74 269.5,-40 158.5,-40"/>
<text text-anchor="start" x="166.5" y="-61" font-family="FreeSans" font-size="10.00">Urho3D::FileSystem</text>
<text text-anchor="middle" x="214" y="-48" font-family="FreeSans" font-size="10.00">::DirExists</text>
</a>
</g>
<!-- Node1&#45;&gt;Node5 -->
<g id="edge8" class="edge"><title>Node1&#45;&gt;Node5</title>
<path fill="none" stroke="midnightblue" d="M107.735,-91.9733C122.058,-87.2595 137.743,-82.0973 152.56,-77.2207"/>
<polygon fill="midnightblue" stroke="midnightblue" points="153.744,-80.5158 162.149,-74.065 151.556,-73.8667 153.744,-80.5158"/>
</g>
<!-- Node10 -->
<g id="node21" class="node"><title>Node10</title>
<a xlink:href="a00341.html#ab08b5f1f7cee23f3e14eebcb2f7f8d4e" target="_top" xlink:title="Replace all occurrences of a character.">
<polygon fill="none" stroke="black" points="148.5,-0.5 148.5,-21.5 279.5,-21.5 279.5,-0.5 148.5,-0.5"/>
<text text-anchor="middle" x="214" y="-8.5" font-family="FreeSans" font-size="10.00">Urho3D::String::Replace</text>
</a>
</g>
<!-- Node1&#45;&gt;Node10 -->
<g id="edge22" class="edge"><title>Node1&#45;&gt;Node10</title>
<path fill="none" stroke="midnightblue" d="M72.0531,-91.7366C89.2808,-74.1511 118.209,-47.2258 148,-31 151.951,-28.848 156.164,-26.8968 160.478,-25.1339"/>
<polygon fill="midnightblue" stroke="midnightblue" points="161.874,-28.3485 170.017,-21.5704 159.425,-21.7911 161.874,-28.3485"/>
</g>
<!-- Node5&#45;&gt;Node3 -->
<g id="edge20" class="edge"><title>Node5&#45;&gt;Node3</title>
<path fill="none" stroke="midnightblue" d="M259.388,-74.0649C266.348,-76.916 273.408,-79.9442 280,-83 308.258,-96.0985 339.501,-113.175 361.083,-125.401"/>
<polygon fill="midnightblue" stroke="midnightblue" points="359.568,-128.566 369.988,-130.482 363.037,-122.486 359.568,-128.566"/>
</g>
<!-- Node6 -->
<g id="node11" class="node"><title>Node6</title>
<a xlink:href="a00161.html#a1e3cbbed618e7f98ce56c5fa8de9ac43" target="_top" xlink:title="Check if a path is allowed to be accessed. If no paths are registered, all are allowed.">
<polygon fill="none" stroke="black" points="332.5,-53 332.5,-87 443.5,-87 443.5,-53 332.5,-53"/>
<text text-anchor="start" x="340.5" y="-74" font-family="FreeSans" font-size="10.00">Urho3D::FileSystem</text>
<text text-anchor="middle" x="388" y="-61" font-family="FreeSans" font-size="10.00">::CheckAccess</text>
</a>
</g>
<!-- Node5&#45;&gt;Node6 -->
<g id="edge10" class="edge"><title>Node5&#45;&gt;Node6</title>
<path fill="none" stroke="midnightblue" d="M269.533,-61.149C286.327,-62.4038 304.93,-63.7936 322.321,-65.0929"/>
<polygon fill="midnightblue" stroke="midnightblue" points="322.165,-68.5909 332.398,-65.8458 322.686,-61.6104 322.165,-68.5909"/>
</g>
<!-- Node9 -->
<g id="node17" class="node"><title>Node9</title>
<a xlink:href="a00341.html#a6dffd447850e4d687096a79dafe8bdac" target="_top" xlink:title="Return whether starts with a string.">
<polygon fill="none" stroke="black" points="316.5,-13.5 316.5,-34.5 459.5,-34.5 459.5,-13.5 316.5,-13.5"/>
<text text-anchor="middle" x="388" y="-21.5" font-family="FreeSans" font-size="10.00">Urho3D::String::StartsWith</text>
</a>
</g>
<!-- Node5&#45;&gt;Node9 -->
<g id="edge16" class="edge"><title>Node5&#45;&gt;Node9</title>
<path fill="none" stroke="midnightblue" d="M269.533,-46.4679C286.327,-43.2827 304.93,-39.7547 322.321,-36.4564"/>
<polygon fill="midnightblue" stroke="midnightblue" points="323.225,-39.8474 332.398,-34.5453 321.921,-32.97 323.225,-39.8474"/>
</g>
<!-- Node7 -->
<g id="node13" class="node"><title>Node7</title>
<a xlink:href="a00341.html#a3d2477d745f6e572795b77ac69075c5d" target="_top" xlink:title="Return whether contains a specific occurences of string.">
<polygon fill="none" stroke="black" points="496,-59.5 496,-80.5 632,-80.5 632,-59.5 496,-59.5"/>
<text text-anchor="middle" x="564" y="-67.5" font-family="FreeSans" font-size="10.00">Urho3D::String::Contains</text>
</a>
</g>
<!-- Node6&#45;&gt;Node7 -->
<g id="edge12" class="edge"><title>Node6&#45;&gt;Node7</title>
<path fill="none" stroke="midnightblue" d="M443.688,-70C456.978,-70 471.41,-70 485.512,-70"/>
<polygon fill="midnightblue" stroke="midnightblue" points="485.702,-73.5001 495.702,-70 485.702,-66.5001 485.702,-73.5001"/>
</g>
<!-- Node8 -->
<g id="node15" class="node"><title>Node8</title>
<a xlink:href="a00341.html#a7cb1eb905c5e4b88d8d281455d8d0caf" target="_top" xlink:title="Return index to the first occurrence of a string, or NPOS if not found.">
<polygon fill="none" stroke="black" points="507.5,-16.5 507.5,-37.5 620.5,-37.5 620.5,-16.5 507.5,-16.5"/>
<text text-anchor="middle" x="564" y="-24.5" font-family="FreeSans" font-size="10.00">Urho3D::String::Find</text>
</a>
</g>
<!-- Node6&#45;&gt;Node8 -->
<g id="edge14" class="edge"><title>Node6&#45;&gt;Node8</title>
<path fill="none" stroke="midnightblue" d="M443.688,-56.3945C465.248,-51.1268 489.815,-45.1248 511.103,-39.9237"/>
<polygon fill="midnightblue" stroke="midnightblue" points="512.062,-43.2924 520.946,-37.519 510.401,-36.4924 512.062,-43.2924"/>
</g>
<!-- Node9&#45;&gt;Node8 -->
<g id="edge18" class="edge"><title>Node9&#45;&gt;Node8</title>
<path fill="none" stroke="midnightblue" d="M459.586,-25.2202C472.003,-25.4319 484.871,-25.6512 497.155,-25.8606"/>
<polygon fill="midnightblue" stroke="midnightblue" points="497.255,-29.3627 507.313,-26.0338 497.375,-22.3637 497.255,-29.3627"/>
</g>
</g>
</svg>
