<?xml version="1.0" encoding="UTF-8" standalone="no"?>
<!DOCTYPE svg PUBLIC "-//W3C//DTD SVG 1.1//EN"
 "http://www.w3.org/Graphics/SVG/1.1/DTD/svg11.dtd">
<!-- Generated by graphviz version 2.26.3 (20100126.1600)
 -->
<!-- Title: Urho3D::FileSystem::GetProgramDir Pages: 1 -->
<svg width="884pt" height="766pt"
 viewBox="0.00 0.00 884.00 766.00" xmlns="http://www.w3.org/2000/svg" xmlns:xlink="http://www.w3.org/1999/xlink">
<g id="graph1" class="graph" transform="scale(1 1) rotate(0) translate(4 762)">
<title>Urho3D::FileSystem::GetProgramDir</title>
<!-- Node1 -->
<g id="node1" class="node"><title>Node1</title>
<polygon fill="#bfbfbf" stroke="black" points="0.5,-494 0.5,-528 111.5,-528 111.5,-494 0.5,-494"/>
<text text-anchor="start" x="8.5" y="-515" font-family="FreeSans" font-size="10.00">Urho3D::FileSystem</text>
<text text-anchor="middle" x="56" y="-502" font-family="FreeSans" font-size="10.00">::GetProgramDir</text>
</g>
<!-- Node2 -->
<g id="node3" class="node"><title>Node2</title>
<a xlink:href="a00243.html#acaf617b205d693cd493febfc01c330a8" target="_top" xlink:title="Remove unsupported constructs from the resource name to prevent ambiguity, and normalize absolute fil...">
<polygon fill="none" stroke="black" points="149,-517 149,-551 285,-551 285,-517 149,-517"/>
<text text-anchor="start" x="157" y="-538" font-family="FreeSans" font-size="10.00">Urho3D::ResourceCache</text>
<text text-anchor="middle" x="217" y="-525" font-family="FreeSans" font-size="10.00">::SanitateResourceName</text>
</a>
</g>
<!-- Node1&#45;&gt;Node2 -->
<g id="edge2" class="edge"><title>Node1&#45;&gt;Node2</title>
<path fill="none" stroke="midnightblue" d="M121.772,-520.396C130.668,-521.667 139.812,-522.973 148.75,-524.25"/>
<polygon fill="midnightblue" stroke="midnightblue" points="122.253,-516.929 111.858,-518.98 121.263,-523.859 122.253,-516.929"/>
</g>
<!-- Node25 -->
<g id="node57" class="node"><title>Node25</title>
<a xlink:href="a00253.html#a7063ccf0fcfbb9adafe8fc5d73bb1b78" target="_top" xlink:title="Print the whole script API (all registered classes, methods and properties) to the log...">
<polygon fill="none" stroke="black" points="148.5,-477.5 148.5,-498.5 285.5,-498.5 285.5,-477.5 148.5,-477.5"/>
<text text-anchor="middle" x="217" y="-485.5" font-family="FreeSans" font-size="10.00">Urho3D::Script::DumpAPI</text>
</a>
</g>
<!-- Node1&#45;&gt;Node25 -->
<g id="edge64" class="edge"><title>Node1&#45;&gt;Node25</title>
<path fill="none" stroke="midnightblue" d="M121.98,-501.574C130.717,-500.326 139.689,-499.044 148.468,-497.79"/>
<polygon fill="midnightblue" stroke="midnightblue" points="121.263,-498.141 111.858,-503.02 122.253,-505.071 121.263,-498.141"/>
</g>
<!-- Node3 -->
<g id="node5" class="node"><title>Node3</title>
<a xlink:href="a00243.html#a21a4cb02435d1721c18ddc25f34a7231" target="_top" xlink:title="Open and return a file from the resource load paths or from inside a package file. If not found, use a fallback search with absolute path. Return null if fails.">
<polygon fill="none" stroke="black" points="322.5,-609 322.5,-643 455.5,-643 455.5,-609 322.5,-609"/>
<text text-anchor="start" x="330.5" y="-630" font-family="FreeSans" font-size="10.00">Urho3D::ResourceCache</text>
<text text-anchor="middle" x="389" y="-617" font-family="FreeSans" font-size="10.00">::GetFile</text>
</a>
</g>
<!-- Node2&#45;&gt;Node3 -->
<g id="edge4" class="edge"><title>Node2&#45;&gt;Node3</title>
<path fill="none" stroke="midnightblue" d="M257.995,-555.927C288.299,-572.137 328.985,-593.899 356.931,-608.847"/>
<polygon fill="midnightblue" stroke="midnightblue" points="259.417,-552.719 248.949,-551.089 256.116,-558.892 259.417,-552.719"/>
</g>
<!-- Node7 -->
<g id="node13" class="node"><title>Node7</title>
<a xlink:href="a00243.html#a294b31f0b88a9987f6c1fadbd07eea41" target="_top" xlink:title="Return a resource by type and name. Load if not loaded yet. Return null if fails.">
<polygon fill="none" stroke="red" points="505.5,-386 505.5,-420 638.5,-420 638.5,-386 505.5,-386"/>
<text text-anchor="start" x="513.5" y="-407" font-family="FreeSans" font-size="10.00">Urho3D::ResourceCache</text>
<text text-anchor="middle" x="572" y="-394" font-family="FreeSans" font-size="10.00">::GetResource</text>
</a>
</g>
<!-- Node2&#45;&gt;Node7 -->
<g id="edge48" class="edge"><title>Node2&#45;&gt;Node7</title>
<path fill="none" stroke="midnightblue" d="M272.933,-513.36C342.773,-487.588 460.939,-443.983 525.86,-420.026"/>
<polygon fill="midnightblue" stroke="midnightblue" points="271.58,-510.128 263.41,-516.874 274.003,-516.696 271.58,-510.128"/>
</g>
<!-- Node24 -->
<g id="node49" class="node"><title>Node24</title>
<a xlink:href="a00243.html#a94659e6c04c0bb9791019913b7866252" target="_top" xlink:title="Return whether a file exists by name.">
<polygon fill="none" stroke="red" points="505.5,-517 505.5,-551 638.5,-551 638.5,-517 505.5,-517"/>
<text text-anchor="start" x="513.5" y="-538" font-family="FreeSans" font-size="10.00">Urho3D::ResourceCache</text>
<text text-anchor="middle" x="572" y="-525" font-family="FreeSans" font-size="10.00">::Exists</text>
</a>
</g>
<!-- Node2&#45;&gt;Node24 -->
<g id="edge50" class="edge"><title>Node2&#45;&gt;Node24</title>
<path fill="none" stroke="midnightblue" d="M295.307,-534C358.274,-534 445.773,-534 505.405,-534"/>
<polygon fill="midnightblue" stroke="midnightblue" points="295.028,-530.5 285.028,-534 295.027,-537.5 295.028,-530.5"/>
</g>
<!-- Node4 -->
<g id="node7" class="node"><title>Node4</title>
<a xlink:href="a00262.html#a461d39b561d39f3a791d42b0ff434bc4" target="_top" xlink:title="Process source code and include files. Return true if successful.">
<polygon fill="none" stroke="red" points="696.5,-736.5 696.5,-757.5 867.5,-757.5 867.5,-736.5 696.5,-736.5"/>
<text text-anchor="middle" x="782" y="-744.5" font-family="FreeSans" font-size="10.00">Urho3D::Shader::ProcessSource</text>
</a>
</g>
<!-- Node3&#45;&gt;Node4 -->
<g id="edge6" class="edge"><title>Node3&#45;&gt;Node4</title>
<path fill="none" stroke="midnightblue" d="M417.192,-649.584C436.931,-664.869 464.583,-683.927 492,-695 557.688,-721.529 637.182,-734.573 696.317,-740.958"/>
<polygon fill="midnightblue" stroke="midnightblue" points="419.255,-646.754 409.24,-643.299 414.914,-652.246 419.255,-646.754"/>
</g>
<!-- Node5 -->
<g id="node9" class="node"><title>Node5</title>
<a xlink:href="a00285.html#abacb48c866a3bf2f6ec386cb59461803" target="_top" xlink:title="Apply default materials from a material list file. If filename is empty (default), the model&#39;s resource name with extension .txt will be used.">
<polygon fill="none" stroke="black" points="724,-632 724,-666 840,-666 840,-632 724,-632"/>
<text text-anchor="start" x="732" y="-653" font-family="FreeSans" font-size="10.00">Urho3D::StaticModel</text>
<text text-anchor="middle" x="782" y="-640" font-family="FreeSans" font-size="10.00">::ApplyMaterialList</text>
</a>
</g>
<!-- Node3&#45;&gt;Node5 -->
<g id="edge8" class="edge"><title>Node3&#45;&gt;Node5</title>
<path fill="none" stroke="midnightblue" d="M455.888,-645.424C467.818,-648.158 480.204,-650.534 492,-652 571.945,-661.934 665.24,-658.279 723.969,-654.14"/>
<polygon fill="midnightblue" stroke="midnightblue" points="456.537,-641.98 445.997,-643.054 454.907,-648.788 456.537,-641.98"/>
</g>
<!-- Node6 -->
<g id="node11" class="node"><title>Node6</title>
<a xlink:href="a00243.html#a95d38fca7d46be128efaa865acad0ec3" target="_top" xlink:title="Reload a resource. Return false and release it if fails.">
<polygon fill="none" stroke="red" points="505.5,-609 505.5,-643 638.5,-643 638.5,-609 505.5,-609"/>
<text text-anchor="start" x="513.5" y="-630" font-family="FreeSans" font-size="10.00">Urho3D::ResourceCache</text>
<text text-anchor="middle" x="572" y="-617" font-family="FreeSans" font-size="10.00">::ReloadResource</text>
</a>
</g>
<!-- Node3&#45;&gt;Node6 -->
<g id="edge10" class="edge"><title>Node3&#45;&gt;Node6</title>
<path fill="none" stroke="midnightblue" d="M465.608,-626C478.849,-626 492.518,-626 505.465,-626"/>
<polygon fill="midnightblue" stroke="midnightblue" points="465.585,-622.5 455.585,-626 465.585,-629.5 465.585,-622.5"/>
</g>
<!-- Node3&#45;&gt;Node7 -->
<g id="edge12" class="edge"><title>Node3&#45;&gt;Node7</title>
<path fill="none" stroke="midnightblue" d="M409.564,-600.941C447.095,-555.207 525.782,-459.32 557.896,-420.187"/>
<polygon fill="midnightblue" stroke="midnightblue" points="406.694,-598.921 403.056,-608.872 412.105,-603.362 406.694,-598.921"/>
</g>
<!-- Node22 -->
<g id="node44" class="node"><title>Node22</title>
<a xlink:href="a00256.html#a907ea2dc2ef7b59cc6e5990ebc4d1a3a" target="_top" xlink:title="Add a script section, checking for includes recursively. Return true if successful.">
<polygon fill="none" stroke="red" points="729.5,-684 729.5,-718 834.5,-718 834.5,-684 729.5,-684"/>
<text text-anchor="start" x="737.5" y="-705" font-family="FreeSans" font-size="10.00">Urho3D::ScriptFile</text>
<text text-anchor="middle" x="782" y="-692" font-family="FreeSans" font-size="10.00">::AddScriptSection</text>
</a>
</g>
<!-- Node3&#45;&gt;Node22 -->
<g id="edge44" class="edge"><title>Node3&#45;&gt;Node22</title>
<path fill="none" stroke="midnightblue" d="M432.08,-647.219C450.18,-655.274 471.709,-663.761 492,-669 573.168,-689.958 670.592,-697.192 729.329,-699.688"/>
<polygon fill="midnightblue" stroke="midnightblue" points="433.504,-644.021 422.952,-643.065 430.604,-650.393 433.504,-644.021"/>
</g>
<!-- Node23 -->
<g id="node46" class="node"><title>Node23</title>
<a xlink:href="a00127.html#a5058e909ed317de4b6f10ea541c86773" target="_top" xlink:title="Return bitmap font face. Called internally. Return null on error.">
<polygon fill="none" stroke="black" points="492,-569.5 492,-590.5 652,-590.5 652,-569.5 492,-569.5"/>
<text text-anchor="middle" x="572" y="-577.5" font-family="FreeSans" font-size="10.00">Urho3D::Font::GetFaceBitmap</text>
</a>
</g>
<!-- Node3&#45;&gt;Node23 -->
<g id="edge46" class="edge"><title>Node3&#45;&gt;Node23</title>
<path fill="none" stroke="midnightblue" d="M465.72,-606.613C474.581,-604.38 483.488,-602.138 492,-600 504.219,-596.93 517.49,-593.608 529.647,-590.569"/>
<polygon fill="midnightblue" stroke="midnightblue" points="464.6,-603.286 455.759,-609.125 466.311,-610.074 464.6,-603.286"/>
</g>
<!-- Node7&#45;&gt;Node5 -->
<g id="edge42" class="edge"><title>Node7&#45;&gt;Node5</title>
<path fill="none" stroke="midnightblue" d="M594.907,-427.809C612.593,-448.082 636.574,-478.168 652,-508 676.6,-555.573 649.5,-585.77 688,-623 697.738,-632.416 710.569,-638.487 723.609,-642.382"/>
<polygon fill="midnightblue" stroke="midnightblue" points="597.484,-425.44 588.232,-420.278 592.246,-430.083 597.484,-425.44"/>
</g>
<!-- Node8 -->
<g id="node15" class="node"><title>Node8</title>
<a xlink:href="a00277.html#a0cffb726ad05a4aceb253bea58dfd732" target="_top" xlink:title="Load optional parameters from an XML file.">
<polygon fill="none" stroke="red" points="694.5,-512.5 694.5,-533.5 869.5,-533.5 869.5,-512.5 694.5,-512.5"/>
<text text-anchor="middle" x="782" y="-520.5" font-family="FreeSans" font-size="10.00">Urho3D::Sound::LoadParameters</text>
</a>
</g>
<!-- Node7&#45;&gt;Node8 -->
<g id="edge14" class="edge"><title>Node7&#45;&gt;Node8</title>
<path fill="none" stroke="midnightblue" d="M593.386,-427.48C614.944,-450.559 650.337,-484.314 688,-503 695.772,-506.856 704.265,-509.971 712.866,-512.486"/>
<polygon fill="midnightblue" stroke="midnightblue" points="595.959,-425.108 586.623,-420.1 590.799,-429.837 595.959,-425.108"/>
</g>
<!-- Node9 -->
<g id="node17" class="node"><title>Node9</title>
<a xlink:href="a00279.html#ad28b5e2f6a8192403cf34535f0a6dd74" target="_top" xlink:title="Set sound attribute.">
<polygon fill="none" stroke="red" points="720,-300 720,-334 844,-334 844,-300 720,-300"/>
<text text-anchor="start" x="728" y="-321" font-family="FreeSans" font-size="10.00">Urho3D::SoundSource</text>
<text text-anchor="middle" x="782" y="-308" font-family="FreeSans" font-size="10.00">::SetSoundAttr</text>
</a>
</g>
<!-- Node7&#45;&gt;Node9 -->
<g id="edge16" class="edge"><title>Node7&#45;&gt;Node9</title>
<path fill="none" stroke="midnightblue" d="M609.568,-381.037C631.835,-368.667 660.912,-353.619 688,-343 698.168,-339.014 709.179,-335.386 719.964,-332.189"/>
<polygon fill="midnightblue" stroke="midnightblue" points="607.778,-378.028 600.775,-385.978 611.208,-384.13 607.778,-378.028"/>
</g>
<!-- Node10 -->
<g id="node19" class="node"><title>Node10</title>
<a xlink:href="a00117.html#ae686bb22644561e57a4aaef3f8665c0e" target="_top" xlink:title="Initialize engine using parameters given and show the application window. Return true if successful...">
<polygon fill="none" stroke="black" points="714,-260.5 714,-281.5 850,-281.5 850,-260.5 714,-260.5"/>
<text text-anchor="middle" x="782" y="-268.5" font-family="FreeSans" font-size="10.00">Urho3D::Engine::Initialize</text>
</a>
</g>
<!-- Node7&#45;&gt;Node10 -->
<g id="edge18" class="edge"><title>Node7&#45;&gt;Node10</title>
<path fill="none" stroke="midnightblue" d="M590.729,-378.033C611.557,-352.129 647.632,-312.467 688,-291 695.955,-286.77 704.736,-283.434 713.642,-280.804"/>
<polygon fill="midnightblue" stroke="midnightblue" points="587.955,-375.898 584.516,-385.919 593.454,-380.23 587.955,-375.898"/>
</g>
<!-- Node11 -->
<g id="node21" class="node"><title>Node11</title>
<a xlink:href="a00049.html#a7b879933855254af2c3cee548270c628" target="_top" xlink:title="Set model attribute.">
<polygon fill="none" stroke="red" points="715,-208 715,-242 849,-242 849,-208 715,-208"/>
<text text-anchor="start" x="723" y="-229" font-family="FreeSans" font-size="10.00">Urho3D::AnimatedModel</text>
<text text-anchor="middle" x="782" y="-216" font-family="FreeSans" font-size="10.00">::SetModelAttr</text>
</a>
</g>
<!-- Node7&#45;&gt;Node11 -->
<g id="edge20" class="edge"><title>Node7&#45;&gt;Node11</title>
<path fill="none" stroke="midnightblue" d="M584.879,-377.041C603.128,-342.954 639.734,-283.625 688,-251 696.136,-245.5 705.411,-241.158 714.89,-237.731"/>
<polygon fill="midnightblue" stroke="midnightblue" points="581.757,-375.459 580.224,-385.942 587.96,-378.703 581.757,-375.459"/>
</g>
<!-- Node12 -->
<g id="node23" class="node"><title>Node12</title>
<a xlink:href="a00049.html#abf556bc7a22151cd04fec0488c6aa295" target="_top" xlink:title="Set animation states attribute.">
<polygon fill="none" stroke="red" points="713.5,-156 713.5,-190 850.5,-190 850.5,-156 713.5,-156"/>
<text text-anchor="start" x="721.5" y="-177" font-family="FreeSans" font-size="10.00">Urho3D::AnimatedModel</text>
<text text-anchor="middle" x="782" y="-164" font-family="FreeSans" font-size="10.00">::SetAnimationStatesAttr</text>
</a>
</g>
<!-- Node7&#45;&gt;Node12 -->
<g id="edge22" class="edge"><title>Node7&#45;&gt;Node12</title>
<path fill="none" stroke="midnightblue" d="M579.848,-376.087C594.041,-332.235 628.192,-245.591 688,-199 695.48,-193.173 704.186,-188.651 713.223,-185.142"/>
<polygon fill="midnightblue" stroke="midnightblue" points="576.466,-375.177 576.816,-385.766 583.146,-377.27 576.466,-375.177"/>
</g>
<!-- Node13 -->
<g id="node25" class="node"><title>Node13</title>
<a xlink:href="a00050.html#a850c77ecbf76b1991887419ec2a11a63" target="_top" xlink:title="Load resource. Return true if successful.">
<polygon fill="none" stroke="black" points="713.5,-592.5 713.5,-613.5 850.5,-613.5 850.5,-592.5 713.5,-592.5"/>
<text text-anchor="middle" x="782" y="-600.5" font-family="FreeSans" font-size="10.00">Urho3D::Animation::Load</text>
</a>
</g>
<!-- Node7&#45;&gt;Node13 -->
<g id="edge24" class="edge"><title>Node7&#45;&gt;Node13</title>
<path fill="none" stroke="midnightblue" d="M593.365,-427.994C610.432,-448.64 634.333,-479.139 652,-508 671.304,-539.535 658.937,-560.142 688,-583 695.475,-588.879 704.282,-593.132 713.456,-596.191"/>
<polygon fill="midnightblue" stroke="midnightblue" points="595.83,-425.485 586.735,-420.051 590.457,-429.971 595.83,-425.485"/>
</g>
<!-- Node14 -->
<g id="node27" class="node"><title>Node14</title>
<a xlink:href="a00052.html#a2e4d4486d8319316ec3da1af3c7c83b2" target="_top" xlink:title="Set node animation states attribute.">
<polygon fill="none" stroke="red" points="700.5,-104 700.5,-138 863.5,-138 863.5,-104 700.5,-104"/>
<text text-anchor="start" x="708.5" y="-125" font-family="FreeSans" font-size="10.00">Urho3D::AnimationController</text>
<text text-anchor="middle" x="782" y="-112" font-family="FreeSans" font-size="10.00">::SetNodeAnimationStatesAttr</text>
</a>
</g>
<!-- Node7&#45;&gt;Node14 -->
<g id="edge26" class="edge"><title>Node7&#45;&gt;Node14</title>
<path fill="none" stroke="midnightblue" d="M576.512,-375.777C586.644,-323.413 616.191,-208.422 688,-147 691.989,-143.588 696.39,-140.621 701.045,-138.042"/>
<polygon fill="midnightblue" stroke="midnightblue" points="573.059,-375.201 574.686,-385.67 579.943,-376.471 573.059,-375.201"/>
</g>
<!-- Node15 -->
<g id="node29" class="node"><title>Node15</title>
<a xlink:href="a00072.html#a9cf484aa746b17a129075df4d5e02b97" target="_top" xlink:title="Set material attribute.">
<polygon fill="none" stroke="red" points="723.5,-52 723.5,-86 840.5,-86 840.5,-52 723.5,-52"/>
<text text-anchor="start" x="731.5" y="-73" font-family="FreeSans" font-size="10.00">Urho3D::BillboardSet</text>
<text text-anchor="middle" x="782" y="-60" font-family="FreeSans" font-size="10.00">::SetMaterialAttr</text>
</a>
</g>
<!-- Node7&#45;&gt;Node15 -->
<g id="edge28" class="edge"><title>Node7&#45;&gt;Node15</title>
<path fill="none" stroke="midnightblue" d="M574.195,-375.495C580.496,-315.419 604.003,-171.731 688,-95 697.876,-85.9782 710.608,-80.0486 723.494,-76.1618"/>
<polygon fill="midnightblue" stroke="midnightblue" points="570.687,-375.414 573.209,-385.704 577.655,-376.087 570.687,-375.414"/>
</g>
<!-- Node16 -->
<g id="node31" class="node"><title>Node16</title>
<a xlink:href="a00102.html#a73e85590cb09dbe385bb75560fa71f4d" target="_top" xlink:title="Set materials attribute.">
<polygon fill="none" stroke="red" points="709.5,-0 709.5,-34 854.5,-34 854.5,-0 709.5,-0"/>
<text text-anchor="start" x="717.5" y="-21" font-family="FreeSans" font-size="10.00">Urho3D::CustomGeometry</text>
<text text-anchor="middle" x="782" y="-8" font-family="FreeSans" font-size="10.00">::SetMaterialsAttr</text>
</a>
</g>
<!-- Node7&#45;&gt;Node16 -->
<g id="edge30" class="edge"><title>Node7&#45;&gt;Node16</title>
<path fill="none" stroke="midnightblue" d="M577.344,-375.567C592.615,-299.853 638.537,-90.4346 688,-43 694.11,-37.1402 701.42,-32.5775 709.227,-29.0289"/>
<polygon fill="midnightblue" stroke="midnightblue" points="573.84,-375.241 575.317,-385.732 580.705,-376.61 573.84,-375.241"/>
</g>
<!-- Node17 -->
<g id="node33" class="node"><title>Node17</title>
<a xlink:href="a00108.html#a8d320a46fc58cd71d965a39ea2838261" target="_top" xlink:title="Set material attribute.">
<polygon fill="none" stroke="red" points="691,-472.5 691,-493.5 873,-493.5 873,-472.5 691,-472.5"/>
<text text-anchor="middle" x="782" y="-480.5" font-family="FreeSans" font-size="10.00">Urho3D::DecalSet::SetMaterialAttr</text>
</a>
</g>
<!-- Node7&#45;&gt;Node17 -->
<g id="edge32" class="edge"><title>Node7&#45;&gt;Node17</title>
<path fill="none" stroke="midnightblue" d="M608.884,-425.317C631.13,-437.945 660.417,-453.134 688,-463 698.447,-466.737 709.81,-469.882 720.907,-472.49"/>
<polygon fill="midnightblue" stroke="midnightblue" points="610.525,-422.223 600.113,-420.265 607.031,-428.289 610.525,-422.223"/>
</g>
<!-- Node18 -->
<g id="node35" class="node"><title>Node18</title>
<a xlink:href="a00159.html#a497fcf23f39bebcfa5af9f3d15c8b48d" target="_top" xlink:title="Set ramp texture attribute.">
<polygon fill="none" stroke="red" points="689.5,-432.5 689.5,-453.5 874.5,-453.5 874.5,-432.5 689.5,-432.5"/>
<text text-anchor="middle" x="782" y="-440.5" font-family="FreeSans" font-size="10.00">Urho3D::Light::SetRampTextureAttr</text>
</a>
</g>
<!-- Node7&#45;&gt;Node18 -->
<g id="edge34" class="edge"><title>Node7&#45;&gt;Node18</title>
<path fill="none" stroke="midnightblue" d="M648.86,-417.64C674.652,-422.553 702.891,-427.932 726.698,-432.466"/>
<polygon fill="midnightblue" stroke="midnightblue" points="649.212,-414.144 638.734,-415.711 647.902,-421.021 649.212,-414.144"/>
</g>
<!-- Node19 -->
<g id="node37" class="node"><title>Node19</title>
<a xlink:href="a00159.html#a1822450acd51aee95e648018319a7ef8" target="_top" xlink:title="Set shape texture attribute.">
<polygon fill="none" stroke="red" points="688,-392.5 688,-413.5 876,-413.5 876,-392.5 688,-392.5"/>
<text text-anchor="middle" x="782" y="-400.5" font-family="FreeSans" font-size="10.00">Urho3D::Light::SetShapeTextureAttr</text>
</a>
</g>
<!-- Node7&#45;&gt;Node19 -->
<g id="edge36" class="edge"><title>Node7&#45;&gt;Node19</title>
<path fill="none" stroke="midnightblue" d="M648.773,-403C661.469,-403 674.76,-403 687.825,-403"/>
<polygon fill="midnightblue" stroke="midnightblue" points="648.734,-399.5 638.734,-403 648.734,-406.5 648.734,-399.5"/>
</g>
<!-- Node20 -->
<g id="node39" class="node"><title>Node20</title>
<a xlink:href="a00175.html#a843c233ee44a1b2d1aaea55d989782fe" target="_top" xlink:title="Load from an XML element. Return true if successful.">
<polygon fill="none" stroke="black" points="718.5,-352.5 718.5,-373.5 845.5,-373.5 845.5,-352.5 718.5,-352.5"/>
<text text-anchor="middle" x="782" y="-360.5" font-family="FreeSans" font-size="10.00">Urho3D::Material::Load</text>
</a>
</g>
<!-- Node7&#45;&gt;Node20 -->
<g id="edge38" class="edge"><title>Node7&#45;&gt;Node20</title>
<path fill="none" stroke="midnightblue" d="M648.86,-388.36C674.652,-383.447 702.891,-378.068 726.698,-373.534"/>
<polygon fill="midnightblue" stroke="midnightblue" points="647.902,-384.979 638.734,-390.289 649.212,-391.856 647.902,-384.979"/>
</g>
<!-- Node21 -->
<g id="node41" class="node"><title>Node21</title>
<a xlink:href="a00296.html#a3dc57d4df2026810d0b13851758d2993" target="_top" xlink:title="Load parameters.">
<polygon fill="none" stroke="red" points="692.5,-552.5 692.5,-573.5 871.5,-573.5 871.5,-552.5 692.5,-552.5"/>
<text text-anchor="middle" x="782" y="-560.5" font-family="FreeSans" font-size="10.00">Urho3D::Texture::LoadParameters</text>
</a>
</g>
<!-- Node7&#45;&gt;Node21 -->
<g id="edge40" class="edge"><title>Node7&#45;&gt;Node21</title>
<path fill="none" stroke="midnightblue" d="M591.38,-428.161C621.041,-466.388 675.573,-535.479 688,-543 694.281,-546.801 701.179,-549.887 708.297,-552.39"/>
<polygon fill="midnightblue" stroke="midnightblue" points="593.996,-425.821 585.107,-420.057 588.461,-430.107 593.996,-425.821"/>
</g>
<!-- Node24&#45;&gt;Node4 -->
<g id="edge56" class="edge"><title>Node24&#45;&gt;Node4</title>
<path fill="none" stroke="midnightblue" d="M647.025,-555.18C648.784,-556.678 650.449,-558.283 652,-560 702.884,-616.354 634.239,-673.383 688,-727 691.662,-730.652 695.816,-733.714 700.288,-736.273"/>
<polygon fill="midnightblue" stroke="midnightblue" points="648.935,-552.242 638.768,-549.261 644.857,-557.932 648.935,-552.242"/>
</g>
<!-- Node24&#45;&gt;Node5 -->
<g id="edge60" class="edge"><title>Node24&#45;&gt;Node5</title>
<path fill="none" stroke="midnightblue" d="M647.102,-556.347C648.792,-557.505 650.428,-558.721 652,-560 677.016,-580.352 662.538,-603.208 688,-623 698.427,-631.105 711.227,-636.685 723.985,-640.526"/>
<polygon fill="midnightblue" stroke="midnightblue" points="648.642,-553.189 638.267,-551.041 645.038,-559.19 648.642,-553.189"/>
</g>
<!-- Node24&#45;&gt;Node8 -->
<g id="edge52" class="edge"><title>Node24&#45;&gt;Node8</title>
<path fill="none" stroke="midnightblue" d="M648.825,-529.976C663.61,-529.201 679.2,-528.385 694.299,-527.594"/>
<polygon fill="midnightblue" stroke="midnightblue" points="648.537,-526.486 638.734,-530.504 648.903,-533.476 648.537,-526.486"/>
</g>
<!-- Node24&#45;&gt;Node13 -->
<g id="edge54" class="edge"><title>Node24&#45;&gt;Node13</title>
<path fill="none" stroke="midnightblue" d="M640.015,-554.764C644.114,-556.428 648.138,-558.175 652,-560 669.167,-568.111 670.432,-575.798 688,-583 697.263,-586.798 707.347,-589.914 717.359,-592.459"/>
<polygon fill="midnightblue" stroke="midnightblue" points="640.948,-551.373 630.358,-551.037 638.427,-557.903 640.948,-551.373"/>
</g>
<!-- Node24&#45;&gt;Node21 -->
<g id="edge58" class="edge"><title>Node24&#45;&gt;Node21</title>
<path fill="none" stroke="midnightblue" d="M648.66,-544.586C667.329,-547.165 687.291,-549.921 705.934,-552.496"/>
<polygon fill="midnightblue" stroke="midnightblue" points="649.119,-541.117 638.734,-543.216 648.161,-548.051 649.119,-541.117"/>
</g>
<!-- Node24&#45;&gt;Node22 -->
<g id="edge62" class="edge"><title>Node24&#45;&gt;Node22</title>
<path fill="none" stroke="midnightblue" d="M647.369,-555.809C648.988,-557.125 650.536,-558.52 652,-560 689.664,-598.075 649.5,-637.77 688,-675 699.198,-685.829 714.488,-692.232 729.482,-695.993"/>
<polygon fill="midnightblue" stroke="midnightblue" points="648.966,-552.659 638.745,-549.868 644.994,-558.424 648.966,-552.659"/>
</g>
</g>
</svg>
