<?xml version="1.0" encoding="UTF-8" standalone="no"?>
<!DOCTYPE svg PUBLIC "-//W3C//DTD SVG 1.1//EN"
 "http://www.w3.org/Graphics/SVG/1.1/DTD/svg11.dtd">
<!-- Generated by graphviz version 2.26.3 (20100126.1600)
 -->
<!-- Title: Urho3D::Input::AddScreenJoystick Pages: 1 -->
<!--zoomable 818 -->
<svg id="main" version="1.1" xmlns="http://www.w3.org/2000/svg" xmlns:xlink="http://www.w3.org/1999/xlink" xml:space="preserve" onload="init(evt)">
        <defs>
                <circle id="rim" cx="0" cy="0" r="7"/>
                <circle id="rim2" cx="0" cy="0" r="3.5"/>
                <g id="zoomPlus">
                        <use xlink:href="#rim" fill="#404040">
                                <set attributeName="fill" to="#808080" begin="zoomplus.mouseover" end="zoomplus.mouseout"/>
                        </use>
                        <path d="M-4,0h8M0,-4v8" fill="none" stroke="white" stroke-width="1.5" pointer-events="none"/>
                </g>
                <g id="zoomMin">
                        <use xlink:href="#rim" fill="#404040">
                                <set attributeName="fill" to="#808080" begin="zoomminus.mouseover" end="zoomminus.mouseout"/>
                        </use>
                        <path d="M-4,0h8" fill="none" stroke="white" stroke-width="1.5" pointer-events="none"/>
                </g>
                <g id="dirArrow">
                        <path fill="none" stroke="white" stroke-width="1.5" d="M0,-3.0v7 M-2.5,-0.5L0,-3.0L2.5,-0.5"/>
                </g>
               <g id="resetDef">
                       <use xlink:href="#rim2" fill="#404040">
                               <set attributeName="fill" to="#808080" begin="reset.mouseover" end="reset.mouseout"/>
                       </use>
               </g>
        </defs>

<script type="text/javascript">
var viewWidth = 834;
var viewHeight = 818;
var sectionId = 'dynsection-2';
</script>
<script xlink:href="svgpan.js"/>
<svg id="graph" class="graph">
<g id="viewport">
<title>Urho3D::Input::AddScreenJoystick</title>
<!-- Node1 -->
<g id="node1" class="node"><title>Node1</title>
<polygon fill="#bfbfbf" stroke="black" points="0,-384 0,-418 142,-418 142,-384 0,-384"/>
<text text-anchor="start" x="8" y="-405" font-family="FreeSans" font-size="10.00">Urho3D::Input::AddScreen</text>
<text text-anchor="middle" x="71" y="-392" font-family="FreeSans" font-size="10.00">Joystick</text>
</g>
<!-- Node2 -->
<g id="node3" class="node"><title>Node2</title>
<a xlink:href="a00289.html#a86e4e2d374cd56109534566c1050a274" target="_top" xlink:title="Return a resource by type and name. Load if not loaded yet. Return null if not found or if fails...">
<polygon fill="none" stroke="black" points="184.5,-776 184.5,-810 317.5,-810 317.5,-776 184.5,-776"/>
<text text-anchor="start" x="192.5" y="-797" font-family="FreeSans" font-size="10.00">Urho3D::ResourceCache</text>
<text text-anchor="middle" x="251" y="-784" font-family="FreeSans" font-size="10.00">::GetResource</text>
</a>
</g>
<!-- Node1&#45;&gt;Node2 -->
<g id="edge2" class="edge"><title>Node1&#45;&gt;Node2</title>
<path fill="none" stroke="midnightblue" d="M74.0724,-418.097C85.9168,-482.374 130.337,-708.599 178,-762 180.708,-765.034 183.762,-767.78 187.047,-770.265"/>
<polygon fill="midnightblue" stroke="midnightblue" points="185.346,-773.336 195.622,-775.917 189.199,-767.491 185.346,-773.336"/>
</g>
<!-- Node3 -->
<g id="node5" class="node"><title>Node3</title>
<a xlink:href="a00340.html#a6b405eba451da6c0f216a8649adf79aa" target="_top" xlink:title="Return the C string.">
<polygon fill="none" stroke="black" points="360.5,-759.5 360.5,-780.5 489.5,-780.5 489.5,-759.5 360.5,-759.5"/>
<text text-anchor="middle" x="425" y="-767.5" font-family="FreeSans" font-size="10.00">Urho3D::String::CString</text>
</a>
</g>
<!-- Node1&#45;&gt;Node3 -->
<g id="edge58" class="edge"><title>Node1&#45;&gt;Node3</title>
<path fill="none" stroke="midnightblue" d="M74.1804,-418.143C85.905,-479.467 128.6,-686.541 178,-729 203.294,-750.74 287.018,-761.149 350.032,-765.999"/>
<polygon fill="midnightblue" stroke="midnightblue" points="350.12,-769.515 360.35,-766.759 350.634,-762.534 350.12,-769.515"/>
</g>
<!-- Node4 -->
<g id="node7" class="node"><title>Node4</title>
<a xlink:href="a00359.html#aeb17cee1b62a29b57c557bbaab230243" target="_top" xlink:title="Load a UI layout from an XML file. Optionally specify another XML file for element style...">
<polygon fill="none" stroke="black" points="185.5,-698.5 185.5,-719.5 316.5,-719.5 316.5,-698.5 185.5,-698.5"/>
<text text-anchor="middle" x="251" y="-706.5" font-family="FreeSans" font-size="10.00">Urho3D::UI::LoadLayout</text>
</a>
</g>
<!-- Node1&#45;&gt;Node4 -->
<g id="edge6" class="edge"><title>Node1&#45;&gt;Node4</title>
<path fill="none" stroke="midnightblue" d="M72.1196,-418.229C76.3054,-468.021 95.3761,-613.369 178,-689 179.693,-690.55 181.495,-691.981 183.383,-693.304"/>
<polygon fill="midnightblue" stroke="midnightblue" points="181.744,-696.399 192.143,-698.427 185.278,-690.357 181.744,-696.399"/>
</g>
<!-- Node5 -->
<g id="node9" class="node"><title>Node5</title>
<a xlink:href="a00359.html#a0a91caff1edbcab1038879d9c79a4e44" target="_top" xlink:title="Return root UI element.">
<polygon fill="none" stroke="black" points="194.5,-658.5 194.5,-679.5 307.5,-679.5 307.5,-658.5 194.5,-658.5"/>
<text text-anchor="middle" x="251" y="-666.5" font-family="FreeSans" font-size="10.00">Urho3D::UI::GetRoot</text>
</a>
</g>
<!-- Node1&#45;&gt;Node5 -->
<g id="edge8" class="edge"><title>Node1&#45;&gt;Node5</title>
<path fill="none" stroke="midnightblue" d="M73.2565,-418.107C80.1135,-463.071 104.911,-585.483 178,-649 180.232,-650.939 182.635,-652.692 185.163,-654.277"/>
<polygon fill="midnightblue" stroke="midnightblue" points="183.69,-657.457 194.166,-659.04 186.963,-651.27 183.69,-657.457"/>
</g>
<!-- Node6 -->
<g id="node11" class="node"><title>Node6</title>
<a xlink:href="a00361.html#aa1d4bf467b99749011b103227deb3004" target="_top" xlink:title="Return size.">
<polygon fill="none" stroke="black" points="193.5,-606 193.5,-640 308.5,-640 308.5,-606 193.5,-606"/>
<text text-anchor="start" x="201.5" y="-627" font-family="FreeSans" font-size="10.00">Urho3D::UIElement::</text>
<text text-anchor="middle" x="251" y="-614" font-family="FreeSans" font-size="10.00">GetSize</text>
</a>
</g>
<!-- Node1&#45;&gt;Node6 -->
<g id="edge10" class="edge"><title>Node1&#45;&gt;Node6</title>
<path fill="none" stroke="midnightblue" d="M76.3593,-418.234C88.6006,-454.98 121.964,-541.765 178,-592 181.592,-595.22 185.567,-598.139 189.754,-600.779"/>
<polygon fill="midnightblue" stroke="midnightblue" points="188.17,-603.905 198.591,-605.814 191.635,-597.823 188.17,-603.905"/>
</g>
<!-- Node7 -->
<g id="node13" class="node"><title>Node7</title>
<a xlink:href="a00361.html#a76a4d4fc652ea858d46846ac2739ee98" target="_top" xlink:title="Add a child element.">
<polygon fill="none" stroke="black" points="193.5,-516 193.5,-550 308.5,-550 308.5,-516 193.5,-516"/>
<text text-anchor="start" x="201.5" y="-537" font-family="FreeSans" font-size="10.00">Urho3D::UIElement::</text>
<text text-anchor="middle" x="251" y="-524" font-family="FreeSans" font-size="10.00">AddChild</text>
</a>
</g>
<!-- Node1&#45;&gt;Node7 -->
<g id="edge12" class="edge"><title>Node1&#45;&gt;Node7</title>
<path fill="none" stroke="midnightblue" d="M84.0871,-418.013C102.669,-441.119 138.822,-482.359 178,-507 180.456,-508.544 183.015,-510.013 185.645,-511.408"/>
<polygon fill="midnightblue" stroke="midnightblue" points="184.277,-514.635 194.799,-515.868 187.342,-508.342 184.277,-514.635"/>
</g>
<!-- Node12 -->
<g id="node25" class="node"><title>Node12</title>
<a xlink:href="a00366.html#aa20f23bae4cf1d7cda06f6c3b47c7504" target="_top" xlink:title="Return iterator to the beginning.">
<polygon fill="none" stroke="black" points="189.5,-476.5 189.5,-497.5 312.5,-497.5 312.5,-476.5 189.5,-476.5"/>
<text text-anchor="middle" x="251" y="-484.5" font-family="FreeSans" font-size="10.00">Urho3D::Vector::Begin</text>
</a>
</g>
<!-- Node1&#45;&gt;Node12 -->
<g id="edge26" class="edge"><title>Node1&#45;&gt;Node12</title>
<path fill="none" stroke="midnightblue" d="M94.5654,-418.279C115.558,-432.987 147.575,-453.774 178,-467 183.404,-469.349 189.155,-471.489 194.965,-473.421"/>
<polygon fill="midnightblue" stroke="midnightblue" points="194.16,-476.836 204.749,-476.476 196.247,-470.154 194.16,-476.836"/>
</g>
<!-- Node13 -->
<g id="node27" class="node"><title>Node13</title>
<a xlink:href="a00366.html#af79ffb0683568b08fe130ee028bfd1ef" target="_top" xlink:title="Return iterator to the end.">
<polygon fill="none" stroke="black" points="194,-436.5 194,-457.5 308,-457.5 308,-436.5 194,-436.5"/>
<text text-anchor="middle" x="251" y="-444.5" font-family="FreeSans" font-size="10.00">Urho3D::Vector::End</text>
</a>
</g>
<!-- Node1&#45;&gt;Node13 -->
<g id="edge28" class="edge"><title>Node1&#45;&gt;Node13</title>
<path fill="none" stroke="midnightblue" d="M137.77,-418.063C158.303,-423.311 180.568,-429.001 199.877,-433.935"/>
<polygon fill="midnightblue" stroke="midnightblue" points="199.125,-437.355 209.68,-436.44 200.858,-430.573 199.125,-437.355"/>
</g>
<!-- Node14 -->
<g id="node29" class="node"><title>Node14</title>
<a xlink:href="a00361.html#a784af86dd836d5257b7c807f8cb9b072" target="_top" xlink:title="Return name.">
<polygon fill="none" stroke="black" points="193.5,-384 193.5,-418 308.5,-418 308.5,-384 193.5,-384"/>
<text text-anchor="start" x="201.5" y="-405" font-family="FreeSans" font-size="10.00">Urho3D::UIElement::</text>
<text text-anchor="middle" x="251" y="-392" font-family="FreeSans" font-size="10.00">GetName</text>
</a>
</g>
<!-- Node1&#45;&gt;Node14 -->
<g id="edge30" class="edge"><title>Node1&#45;&gt;Node14</title>
<path fill="none" stroke="midnightblue" d="M142.141,-401C155.688,-401 169.832,-401 183.269,-401"/>
<polygon fill="midnightblue" stroke="midnightblue" points="183.386,-404.5 193.385,-401 183.385,-397.5 183.386,-404.5"/>
</g>
<!-- Node15 -->
<g id="node31" class="node"><title>Node15</title>
<a xlink:href="a00340.html#a6dffd447850e4d687096a79dafe8bdac" target="_top" xlink:title="Return whether starts with a string.">
<polygon fill="none" stroke="black" points="179.5,-344.5 179.5,-365.5 322.5,-365.5 322.5,-344.5 179.5,-344.5"/>
<text text-anchor="middle" x="251" y="-352.5" font-family="FreeSans" font-size="10.00">Urho3D::String::StartsWith</text>
</a>
</g>
<!-- Node1&#45;&gt;Node15 -->
<g id="edge32" class="edge"><title>Node1&#45;&gt;Node15</title>
<path fill="none" stroke="midnightblue" d="M137.77,-383.937C158.303,-378.689 180.568,-372.999 199.877,-368.065"/>
<polygon fill="midnightblue" stroke="midnightblue" points="200.858,-371.427 209.68,-365.56 199.125,-364.645 200.858,-371.427"/>
</g>
<!-- Node17 -->
<g id="node35" class="node"><title>Node17</title>
<a xlink:href="a00361.html#a2de24717fe9c66ab2d15a3b37c037bd0" target="_top" xlink:title="Return child element by index.">
<polygon fill="none" stroke="black" points="193.5,-292 193.5,-326 308.5,-326 308.5,-292 193.5,-292"/>
<text text-anchor="start" x="201.5" y="-313" font-family="FreeSans" font-size="10.00">Urho3D::UIElement::</text>
<text text-anchor="middle" x="251" y="-300" font-family="FreeSans" font-size="10.00">GetChild</text>
</a>
</g>
<!-- Node1&#45;&gt;Node17 -->
<g id="edge36" class="edge"><title>Node1&#45;&gt;Node17</title>
<path fill="none" stroke="midnightblue" d="M95.2395,-383.995C116.399,-369.659 148.287,-349.259 178,-335 181.582,-333.281 185.309,-331.613 189.1,-330.006"/>
<polygon fill="midnightblue" stroke="midnightblue" points="190.659,-333.151 198.608,-326.147 188.026,-326.665 190.659,-333.151"/>
</g>
<!-- Node18 -->
<g id="node37" class="node"><title>Node18</title>
<a xlink:href="a00361.html#a8a0131dfc7f06ce10cdb77418ec830a9" target="_top" xlink:title="Set whether is visible.">
<polygon fill="none" stroke="black" points="367.5,-572 367.5,-606 482.5,-606 482.5,-572 367.5,-572"/>
<text text-anchor="start" x="375.5" y="-593" font-family="FreeSans" font-size="10.00">Urho3D::UIElement::</text>
<text text-anchor="middle" x="425" y="-580" font-family="FreeSans" font-size="10.00">SetVisible</text>
</a>
</g>
<!-- Node1&#45;&gt;Node18 -->
<g id="edge38" class="edge"><title>Node1&#45;&gt;Node18</title>
<path fill="none" stroke="midnightblue" d="M77.0373,-418.161C89.8122,-451.661 123.006,-525.42 178,-559 231.832,-591.871 304.611,-597.004 357.21,-595.348"/>
<polygon fill="midnightblue" stroke="midnightblue" points="357.599,-598.835 367.449,-594.932 357.315,-591.841 357.599,-598.835"/>
</g>
<!-- Node19 -->
<g id="node42" class="node"><title>Node19</title>
<a xlink:href="a00346.html#a0c97b8f60cad489151940e742be739ba" target="_top" xlink:title="Return text.">
<polygon fill="none" stroke="black" points="191,-252.5 191,-273.5 311,-273.5 311,-252.5 191,-252.5"/>
<text text-anchor="middle" x="251" y="-260.5" font-family="FreeSans" font-size="10.00">Urho3D::Text::GetText</text>
</a>
</g>
<!-- Node1&#45;&gt;Node19 -->
<g id="edge46" class="edge"><title>Node1&#45;&gt;Node19</title>
<path fill="none" stroke="midnightblue" d="M81.9026,-383.724C99.125,-357.87 135.113,-309.343 178,-283 181.368,-280.931 184.952,-279.073 188.655,-277.403"/>
<polygon fill="midnightblue" stroke="midnightblue" points="190.074,-280.605 198.05,-273.631 187.466,-274.109 190.074,-280.605"/>
</g>
<!-- Node20 -->
<g id="node44" class="node"><title>Node20</title>
<a xlink:href="a00340.html#a11572e3c07f60de65ac5d0c1ca5b6ba3" target="_top" xlink:title="Return length.">
<polygon fill="none" stroke="black" points="187.5,-212.5 187.5,-233.5 314.5,-233.5 314.5,-212.5 187.5,-212.5"/>
<text text-anchor="middle" x="251" y="-220.5" font-family="FreeSans" font-size="10.00">Urho3D::String::Length</text>
</a>
</g>
<!-- Node1&#45;&gt;Node20 -->
<g id="edge48" class="edge"><title>Node1&#45;&gt;Node20</title>
<path fill="none" stroke="midnightblue" d="M77.8063,-383.767C91.5982,-351.126 126.016,-280.227 178,-243 180.671,-241.087 183.516,-239.357 186.477,-237.793"/>
<polygon fill="midnightblue" stroke="midnightblue" points="188.02,-240.936 195.643,-233.578 185.096,-234.576 188.02,-240.936"/>
</g>
<!-- Node21 -->
<g id="node46" class="node"><title>Node21</title>
<a xlink:href="a00175.html#ae3cde3a1cc3464293a61030e73c33c58" target="_top" xlink:title="Return whether has no elements.">
<polygon fill="none" stroke="black" points="178.5,-172.5 178.5,-193.5 323.5,-193.5 323.5,-172.5 178.5,-172.5"/>
<text text-anchor="middle" x="251" y="-180.5" font-family="FreeSans" font-size="10.00">Urho3D::HashBase::Empty</text>
</a>
</g>
<!-- Node1&#45;&gt;Node21 -->
<g id="edge50" class="edge"><title>Node1&#45;&gt;Node21</title>
<path fill="none" stroke="midnightblue" d="M75.2578,-383.988C85.7693,-345.585 116.661,-251.734 178,-203 180.267,-201.199 182.684,-199.56 185.209,-198.068"/>
<polygon fill="midnightblue" stroke="midnightblue" points="186.807,-201.182 194.147,-193.543 183.645,-194.937 186.807,-201.182"/>
</g>
<!-- Node22 -->
<g id="node48" class="node"><title>Node22</title>
<a xlink:href="a00177.html#ad7e80c0c98d795960287fdce2215e312" target="_top" xlink:title="Insert a pair. Return an iterator to it.">
<polygon fill="none" stroke="black" points="182.5,-132.5 182.5,-153.5 319.5,-153.5 319.5,-132.5 182.5,-132.5"/>
<text text-anchor="middle" x="251" y="-140.5" font-family="FreeSans" font-size="10.00">Urho3D::HashMap::Insert</text>
</a>
</g>
<!-- Node1&#45;&gt;Node22 -->
<g id="edge52" class="edge"><title>Node1&#45;&gt;Node22</title>
<path fill="none" stroke="midnightblue" d="M73.5912,-383.936C81.145,-340.245 107.268,-223.533 178,-163 179.966,-161.318 182.061,-159.776 184.253,-158.363"/>
<polygon fill="midnightblue" stroke="midnightblue" points="186.023,-161.385 193.13,-153.527 182.674,-155.238 186.023,-161.385"/>
</g>
<!-- Node23 -->
<g id="node50" class="node"><title>Node23</title>
<a xlink:href="a00177.html#a9dc4e5c0ad1feb3eec2d2f1f1714698d" target="_top" xlink:title="Return iterator to the pair with key, or end iterator if not found.">
<polygon fill="none" stroke="black" points="186.5,-92.5 186.5,-113.5 315.5,-113.5 315.5,-92.5 186.5,-92.5"/>
<text text-anchor="middle" x="251" y="-100.5" font-family="FreeSans" font-size="10.00">Urho3D::HashMap::Find</text>
</a>
</g>
<!-- Node1&#45;&gt;Node23 -->
<g id="edge54" class="edge"><title>Node1&#45;&gt;Node23</title>
<path fill="none" stroke="midnightblue" d="M72.3905,-383.662C77.2516,-334.918 97.8478,-195.512 178,-123 179.702,-121.46 181.512,-120.037 183.407,-118.722"/>
<polygon fill="midnightblue" stroke="midnightblue" points="185.298,-121.672 192.189,-113.624 181.784,-115.618 185.298,-121.672"/>
</g>
<!-- Node24 -->
<g id="node52" class="node"><title>Node24</title>
<a xlink:href="a00177.html#a47eb201d8441d4e4be8626e615cb562d" target="_top" xlink:title="Return iterator to the end.">
<polygon fill="none" stroke="black" points="187,-52.5 187,-73.5 315,-73.5 315,-52.5 187,-52.5"/>
<text text-anchor="middle" x="251" y="-60.5" font-family="FreeSans" font-size="10.00">Urho3D::HashMap::End</text>
</a>
</g>
<!-- Node1&#45;&gt;Node24 -->
<g id="edge56" class="edge"><title>Node1&#45;&gt;Node24</title>
<path fill="none" stroke="midnightblue" d="M74.5819,-383.716C87.3253,-323.798 132.157,-126.294 178,-83 179.505,-81.579 181.101,-80.2571 182.771,-79.0275"/>
<polygon fill="midnightblue" stroke="midnightblue" points="184.938,-81.8057 191.662,-73.6176 181.3,-75.8257 184.938,-81.8057"/>
</g>
<!-- Node25 -->
<g id="node55" class="node"><title>Node25</title>
<a xlink:href="a00361.html#a78b11afb8372b05bc6660e7faa8a0947" target="_top" xlink:title="Set a user variable.">
<polygon fill="none" stroke="black" points="193.5,-0 193.5,-34 308.5,-34 308.5,-0 193.5,-0"/>
<text text-anchor="start" x="201.5" y="-21" font-family="FreeSans" font-size="10.00">Urho3D::UIElement::</text>
<text text-anchor="middle" x="251" y="-8" font-family="FreeSans" font-size="10.00">SetVar</text>
</a>
</g>
<!-- Node1&#45;&gt;Node25 -->
<g id="edge60" class="edge"><title>Node1&#45;&gt;Node25</title>
<path fill="none" stroke="midnightblue" d="M73.9942,-383.955C85.556,-319.883 129.088,-94.5093 178,-43 180.041,-40.8507 182.271,-38.8787 184.643,-37.0695"/>
<polygon fill="midnightblue" stroke="midnightblue" points="186.703,-39.9053 193.184,-31.5242 182.891,-34.0341 186.703,-39.9053"/>
</g>
<!-- Node2&#45;&gt;Node3 -->
<g id="edge4" class="edge"><title>Node2&#45;&gt;Node3</title>
<path fill="none" stroke="midnightblue" d="M317.775,-784.173C328.379,-782.772 339.407,-781.314 350.18,-779.89"/>
<polygon fill="midnightblue" stroke="midnightblue" points="350.955,-783.318 360.41,-778.538 350.037,-776.378 350.955,-783.318"/>
</g>
<!-- Node8 -->
<g id="node15" class="node"><title>Node8</title>
<a xlink:href="a00361.html#afca95d8f1971fbbdcf725f715cc8c7a9" target="_top" xlink:title="Insert a child element into a specific position in the child list.">
<polygon fill="none" stroke="red" points="367.5,-505 367.5,-539 482.5,-539 482.5,-505 367.5,-505"/>
<text text-anchor="start" x="375.5" y="-526" font-family="FreeSans" font-size="10.00">Urho3D::UIElement::</text>
<text text-anchor="middle" x="425" y="-513" font-family="FreeSans" font-size="10.00">InsertChild</text>
</a>
</g>
<!-- Node7&#45;&gt;Node8 -->
<g id="edge14" class="edge"><title>Node7&#45;&gt;Node8</title>
<path fill="none" stroke="midnightblue" d="M308.939,-529.337C324.348,-528.363 341.13,-527.302 357.022,-526.297"/>
<polygon fill="midnightblue" stroke="midnightblue" points="357.554,-529.771 367.314,-525.647 357.113,-522.785 357.554,-529.771"/>
</g>
<!-- Node9 -->
<g id="node17" class="node"><title>Node9</title>
<a xlink:href="a00361.html#a7cba78373c23a734a1ccd2d4a27d8cb0" target="_top" xlink:title="Manually update layout. Should not be necessary in most cases, but is provided for completeness...">
<polygon fill="none" stroke="red" points="526.5,-497 526.5,-531 641.5,-531 641.5,-497 526.5,-497"/>
<text text-anchor="start" x="534.5" y="-518" font-family="FreeSans" font-size="10.00">Urho3D::UIElement::</text>
<text text-anchor="middle" x="584" y="-505" font-family="FreeSans" font-size="10.00">UpdateLayout</text>
</a>
</g>
<!-- Node8&#45;&gt;Node9 -->
<g id="edge16" class="edge"><title>Node8&#45;&gt;Node9</title>
<path fill="none" stroke="midnightblue" d="M482.852,-519.089C493.73,-518.542 505.192,-517.965 516.337,-517.404"/>
<polygon fill="midnightblue" stroke="midnightblue" points="516.645,-520.893 526.457,-516.895 516.294,-513.902 516.645,-520.893"/>
</g>
<!-- Node10 -->
<g id="node19" class="node"><title>Node10</title>
<a xlink:href="a00238.html#ab8dbe9844094c04463def7df1fa650d5" target="_top" xlink:title="Return a preallocated map for event data. Used for optimization to avoid constant re&#45;allocation of ev...">
<polygon fill="none" stroke="red" points="682,-542 682,-576 822,-576 822,-542 682,-542"/>
<text text-anchor="start" x="690" y="-563" font-family="FreeSans" font-size="10.00">Urho3D::Object::GetEvent</text>
<text text-anchor="middle" x="752" y="-550" font-family="FreeSans" font-size="10.00">DataMap</text>
</a>
</g>
<!-- Node8&#45;&gt;Node10 -->
<g id="edge22" class="edge"><title>Node8&#45;&gt;Node10</title>
<path fill="none" stroke="midnightblue" d="M482.541,-533.204C496.71,-535.7 511.872,-538.151 526,-540 574.162,-546.302 628.386,-550.943 671.646,-554.059"/>
<polygon fill="midnightblue" stroke="midnightblue" points="671.608,-557.565 681.831,-554.78 672.102,-550.583 671.608,-557.565"/>
</g>
<!-- Node11 -->
<g id="node21" class="node"><title>Node11</title>
<a xlink:href="a00238.html#a32020dbf77c196b9777eca479e8abb36" target="_top" xlink:title="Send event to all subscribers.">
<polygon fill="none" stroke="black" points="678,-502.5 678,-523.5 826,-523.5 826,-502.5 678,-502.5"/>
<text text-anchor="middle" x="752" y="-510.5" font-family="FreeSans" font-size="10.00">Urho3D::Object::SendEvent</text>
</a>
</g>
<!-- Node8&#45;&gt;Node11 -->
<g id="edge24" class="edge"><title>Node8&#45;&gt;Node11</title>
<path fill="none" stroke="midnightblue" d="M465.996,-504.828C484.053,-498.153 505.733,-491.32 526,-488 576.878,-479.666 590.766,-482.251 642,-488 663.048,-490.362 685.944,-495.19 705.37,-499.979"/>
<polygon fill="midnightblue" stroke="midnightblue" points="704.63,-503.402 715.184,-502.466 706.35,-496.616 704.63,-503.402"/>
</g>
<!-- Node9&#45;&gt;Node10 -->
<g id="edge18" class="edge"><title>Node9&#45;&gt;Node10</title>
<path fill="none" stroke="midnightblue" d="M641.816,-529.486C653.649,-532.656 666.253,-536.032 678.55,-539.326"/>
<polygon fill="midnightblue" stroke="midnightblue" points="677.76,-542.738 688.325,-541.944 679.572,-535.976 677.76,-542.738"/>
</g>
<!-- Node9&#45;&gt;Node11 -->
<g id="edge20" class="edge"><title>Node9&#45;&gt;Node11</title>
<path fill="none" stroke="midnightblue" d="M641.816,-513.656C650.139,-513.606 658.843,-513.555 667.553,-513.503"/>
<polygon fill="midnightblue" stroke="midnightblue" points="667.78,-517.001 677.759,-513.442 667.738,-510.002 667.78,-517.001"/>
</g>
<!-- Node16 -->
<g id="node33" class="node"><title>Node16</title>
<a xlink:href="a00340.html#a7cb1eb905c5e4b88d8d281455d8d0caf" target="_top" xlink:title="Return index to the first occurrence of a string, or NPOS if not found.">
<polygon fill="none" stroke="black" points="368.5,-344.5 368.5,-365.5 481.5,-365.5 481.5,-344.5 368.5,-344.5"/>
<text text-anchor="middle" x="425" y="-352.5" font-family="FreeSans" font-size="10.00">Urho3D::String::Find</text>
</a>
</g>
<!-- Node15&#45;&gt;Node16 -->
<g id="edge34" class="edge"><title>Node15&#45;&gt;Node16</title>
<path fill="none" stroke="midnightblue" d="M322.526,-355C334.343,-355 346.553,-355 358.247,-355"/>
<polygon fill="midnightblue" stroke="midnightblue" points="358.368,-358.5 368.368,-355 358.368,-351.5 358.368,-358.5"/>
</g>
<!-- Node18&#45;&gt;Node9 -->
<g id="edge40" class="edge"><title>Node18&#45;&gt;Node9</title>
<path fill="none" stroke="midnightblue" d="M461.08,-571.981C484.072,-561.136 514.054,-546.993 538.651,-535.391"/>
<polygon fill="midnightblue" stroke="midnightblue" points="540.237,-538.513 547.788,-531.081 537.251,-532.182 540.237,-538.513"/>
</g>
<!-- Node18&#45;&gt;Node10 -->
<g id="edge42" class="edge"><title>Node18&#45;&gt;Node10</title>
<path fill="none" stroke="midnightblue" d="M482.711,-604.806C526.786,-614.488 588.796,-622.942 642,-611 668.033,-605.157 695.155,-592.421 715.954,-581.016"/>
<polygon fill="midnightblue" stroke="midnightblue" points="717.75,-584.022 724.748,-576.067 714.317,-577.921 717.75,-584.022"/>
</g>
<!-- Node18&#45;&gt;Node11 -->
<g id="edge44" class="edge"><title>Node18&#45;&gt;Node11</title>
<path fill="none" stroke="midnightblue" d="M482.635,-576.292C526.403,-566.567 588.054,-552.71 642,-540 660.976,-535.529 681.751,-530.472 700.087,-525.953"/>
<polygon fill="midnightblue" stroke="midnightblue" points="701.127,-529.301 709.996,-523.505 699.448,-522.505 701.127,-529.301"/>
</g>
</g>
</svg>
        <g id="navigator" transform="translate(0 0)" fill="#404254">
                <rect fill="#f2f5e9" fill-opacity="0.5" stroke="#606060" stroke-width=".5" x="0" y="0" width="60" height="60"/>
                <use id="zoomplus" xlink:href="#zoomPlus" x="17" y="9" onmousedown="handleZoom(evt,'in')"/>
                <use id="zoomminus" xlink:href="#zoomMin" x="42" y="9" onmousedown="handleZoom(evt,'out')"/>
                <use id="reset" xlink:href="#resetDef" x="30" y="36" onmousedown="handleReset()"/>
                <g id="arrowUp" xlink:href="#dirArrow" transform="translate(30 24)" onmousedown="handlePan(0,-1)">
                  <use xlink:href="#rim" fill="#404040">
                        <set attributeName="fill" to="#808080" begin="arrowUp.mouseover" end="arrowUp.mouseout"/>
                  </use>
                  <path fill="none" stroke="white" stroke-width="1.5" d="M0,-3.0v7 M-2.5,-0.5L0,-3.0L2.5,-0.5"/>
                </g>
                <g id="arrowRight" xlink:href="#dirArrow" transform="rotate(90) translate(36 -43)" onmousedown="handlePan(1,0)">
                  <use xlink:href="#rim" fill="#404040">
                        <set attributeName="fill" to="#808080" begin="arrowRight.mouseover" end="arrowRight.mouseout"/>
                  </use>
                  <path fill="none" stroke="white" stroke-width="1.5" d="M0,-3.0v7 M-2.5,-0.5L0,-3.0L2.5,-0.5"/>
                </g>
                <g id="arrowDown" xlink:href="#dirArrow" transform="rotate(180) translate(-30 -48)" onmousedown="handlePan(0,1)">
                  <use xlink:href="#rim" fill="#404040">
                        <set attributeName="fill" to="#808080" begin="arrowDown.mouseover" end="arrowDown.mouseout"/>
                  </use>
                  <path fill="none" stroke="white" stroke-width="1.5" d="M0,-3.0v7 M-2.5,-0.5L0,-3.0L2.5,-0.5"/>
                </g>
                <g id="arrowLeft" xlink:href="#dirArrow" transform="rotate(270) translate(-36 17)" onmousedown="handlePan(-1,0)">
                  <use xlink:href="#rim" fill="#404040">
                        <set attributeName="fill" to="#808080" begin="arrowLeft.mouseover" end="arrowLeft.mouseout"/>
                  </use>
                  <path fill="none" stroke="white" stroke-width="1.5" d="M0,-3.0v7 M-2.5,-0.5L0,-3.0L2.5,-0.5"/>
                </g>
        </g>
        <svg viewBox="0 0 15 15" width="100%" height="30px" preserveAspectRatio="xMaxYMin meet">
         <g id="arrow_out" transform="scale(0.3 0.3)">
          <a xlink:href="a00186_af07e2ed4318bed15d7b38c7fce2c0405_cgraph_org.svg" target="_base">
           <rect id="button" ry="5" rx="5" y="6" x="6" height="38" width="38"
                fill="#f2f5e9" fill-opacity="0.5" stroke="#606060" stroke-width="1.0"/>
           <path id="arrow"
             d="M 11.500037,31.436501 C 11.940474,20.09759 22.043105,11.32322 32.158766,21.979434 L 37.068811,17.246167 C 37.068811,17.246167 37.088388,32 37.088388,32 L 22.160133,31.978069 C 22.160133,31.978069 26.997745,27.140456 26.997745,27.140456 C 18.528582,18.264221 13.291696,25.230495 11.500037,31.436501 z"
             style="fill:#404040;"/>
          </a>
         </g>
        </svg>
</svg>
