<?xml version="1.0" encoding="UTF-8" standalone="no"?>
<!DOCTYPE svg PUBLIC "-//W3C//DTD SVG 1.1//EN"
 "http://www.w3.org/Graphics/SVG/1.1/DTD/svg11.dtd">
<!-- Generated by graphviz version 2.26.3 (20100126.1600)
 -->
<!-- Title: Urho3D::Input::ResetState Pages: 1 -->
<svg width="1124pt" height="156pt"
 viewBox="0.00 0.00 1124.00 156.00" xmlns="http://www.w3.org/2000/svg" xmlns:xlink="http://www.w3.org/1999/xlink">
<g id="graph1" class="graph" transform="scale(1 1) rotate(0) translate(4 152)">
<title>Urho3D::Input::ResetState</title>
<!-- Node1 -->
<g id="node1" class="node"><title>Node1</title>
<polygon fill="#bfbfbf" stroke="black" points="0,-86.5 0,-107.5 142,-107.5 142,-86.5 0,-86.5"/>
<text text-anchor="middle" x="71" y="-94.5" font-family="FreeSans" font-size="10.00">Urho3D::Input::ResetState</text>
</g>
<!-- Node2 -->
<g id="node3" class="node"><title>Node2</title>
<a xlink:href="a00180.html#a27cc394541aad050f3a48c503c65e364" target="_top" xlink:title="Clear the set.">
<polygon fill="none" stroke="black" points="197.5,-126.5 197.5,-147.5 328.5,-147.5 328.5,-126.5 197.5,-126.5"/>
<text text-anchor="middle" x="263" y="-134.5" font-family="FreeSans" font-size="10.00">Urho3D::HashSet::Clear</text>
</a>
</g>
<!-- Node1&#45;&gt;Node2 -->
<g id="edge2" class="edge"><title>Node1&#45;&gt;Node2</title>
<path fill="none" stroke="midnightblue" d="M121.446,-107.51C146.371,-112.702 176.63,-119.006 202.764,-124.451"/>
<polygon fill="midnightblue" stroke="midnightblue" points="202.055,-127.878 212.558,-126.491 203.482,-121.025 202.055,-127.878"/>
</g>
<!-- Node3 -->
<g id="node5" class="node"><title>Node3</title>
<a xlink:href="a00187.html#a18266163742f83e3e22fd57d9f76d938" target="_top" xlink:title="Clear touch states and send touch end events.">
<polygon fill="none" stroke="black" points="187,-86.5 187,-107.5 339,-107.5 339,-86.5 187,-86.5"/>
<text text-anchor="middle" x="263" y="-94.5" font-family="FreeSans" font-size="10.00">Urho3D::Input::ClearTouches</text>
</a>
</g>
<!-- Node1&#45;&gt;Node3 -->
<g id="edge4" class="edge"><title>Node1&#45;&gt;Node3</title>
<path fill="none" stroke="midnightblue" d="M142.221,-97C153.447,-97 165.158,-97 176.681,-97"/>
<polygon fill="midnightblue" stroke="midnightblue" points="176.742,-100.5 186.742,-97 176.742,-93.5001 176.742,-100.5"/>
</g>
<!-- Node8 -->
<g id="node15" class="node"><title>Node8</title>
<a xlink:href="a00187.html#a243227daecf2b0e920fa51b916f67c89" target="_top" xlink:title="Handle a mouse button change.">
<polygon fill="none" stroke="black" points="178,-46.5 178,-67.5 348,-67.5 348,-46.5 178,-46.5"/>
<text text-anchor="middle" x="263" y="-54.5" font-family="FreeSans" font-size="10.00">Urho3D::Input::SetMouseButton</text>
</a>
</g>
<!-- Node1&#45;&gt;Node8 -->
<g id="edge14" class="edge"><title>Node1&#45;&gt;Node8</title>
<path fill="none" stroke="midnightblue" d="M121.446,-86.4905C146.371,-81.2977 176.63,-74.9936 202.764,-69.5492"/>
<polygon fill="midnightblue" stroke="midnightblue" points="203.482,-72.9748 212.558,-67.5087 202.055,-66.1219 203.482,-72.9748"/>
</g>
<!-- Node4 -->
<g id="node7" class="node"><title>Node4</title>
<a xlink:href="a00241.html#ab8dbe9844094c04463def7df1fa650d5" target="_top" xlink:title="Return a preallocated map for event data. Used for optimization to avoid constant re&#45;allocation of ev...">
<polygon fill="none" stroke="black" points="390,-40 390,-74 530,-74 530,-40 390,-40"/>
<text text-anchor="start" x="398" y="-61" font-family="FreeSans" font-size="10.00">Urho3D::Object::GetEvent</text>
<text text-anchor="middle" x="460" y="-48" font-family="FreeSans" font-size="10.00">DataMap</text>
</a>
</g>
<!-- Node3&#45;&gt;Node4 -->
<g id="edge6" class="edge"><title>Node3&#45;&gt;Node4</title>
<path fill="none" stroke="midnightblue" d="M314.759,-86.4905C334.63,-82.4558 357.804,-77.7504 379.73,-73.2985"/>
<polygon fill="midnightblue" stroke="midnightblue" points="380.596,-76.6941 389.7,-71.2742 379.203,-69.8341 380.596,-76.6941"/>
</g>
<!-- Node7 -->
<g id="node13" class="node"><title>Node7</title>
<a xlink:href="a00241.html#a32020dbf77c196b9777eca479e8abb36" target="_top" xlink:title="Send event to all subscribers.">
<polygon fill="none" stroke="black" points="386,-92.5 386,-113.5 534,-113.5 534,-92.5 386,-92.5"/>
<text text-anchor="middle" x="460" y="-100.5" font-family="FreeSans" font-size="10.00">Urho3D::Object::SendEvent</text>
</a>
</g>
<!-- Node3&#45;&gt;Node7 -->
<g id="edge12" class="edge"><title>Node3&#45;&gt;Node7</title>
<path fill="none" stroke="midnightblue" d="M339.165,-99.3198C351.177,-99.6856 363.656,-100.066 375.837,-100.437"/>
<polygon fill="midnightblue" stroke="midnightblue" points="375.879,-103.939 385.981,-100.746 376.092,-96.9427 375.879,-103.939"/>
</g>
<!-- Node5 -->
<g id="node9" class="node"><title>Node5</title>
<a xlink:href="a00125.html#acb628095602a49ade116c4761ab44004" target="_top" xlink:title="Return a preallocated map for event data. Used for optimization to avoid constant re&#45;allocation of ev...">
<polygon fill="none" stroke="black" points="584.5,-40 584.5,-74 731.5,-74 731.5,-40 584.5,-40"/>
<text text-anchor="start" x="592.5" y="-61" font-family="FreeSans" font-size="10.00">Urho3D::Context::GetEvent</text>
<text text-anchor="middle" x="658" y="-48" font-family="FreeSans" font-size="10.00">DataMap</text>
</a>
</g>
<!-- Node4&#45;&gt;Node5 -->
<g id="edge8" class="edge"><title>Node4&#45;&gt;Node5</title>
<path fill="none" stroke="midnightblue" d="M530.086,-57C544.367,-57 559.529,-57 574.231,-57"/>
<polygon fill="midnightblue" stroke="midnightblue" points="574.319,-60.5001 584.319,-57 574.319,-53.5001 574.319,-60.5001"/>
</g>
<!-- Node6 -->
<g id="node11" class="node"><title>Node6</title>
<a xlink:href="a00178.html#ac02bdba9ea0d1055a3a75f6bae2ffc69" target="_top" xlink:title="Clear the map.">
<polygon fill="none" stroke="black" points="787.5,-46.5 787.5,-67.5 922.5,-67.5 922.5,-46.5 787.5,-46.5"/>
<text text-anchor="middle" x="855" y="-54.5" font-family="FreeSans" font-size="10.00">Urho3D::HashMap::Clear</text>
</a>
</g>
<!-- Node5&#45;&gt;Node6 -->
<g id="edge10" class="edge"><title>Node5&#45;&gt;Node6</title>
<path fill="none" stroke="midnightblue" d="M731.636,-57C746.465,-57 762.098,-57 777.068,-57"/>
<polygon fill="midnightblue" stroke="midnightblue" points="777.308,-60.5001 787.308,-57 777.308,-53.5001 777.308,-60.5001"/>
</g>
<!-- Node8&#45;&gt;Node4 -->
<g id="edge16" class="edge"><title>Node8&#45;&gt;Node4</title>
<path fill="none" stroke="midnightblue" d="M348.261,-57C358.634,-57 369.206,-57 379.507,-57"/>
<polygon fill="midnightblue" stroke="midnightblue" points="379.699,-60.5001 389.699,-57 379.699,-53.5001 379.699,-60.5001"/>
</g>
<!-- Node8&#45;&gt;Node7 -->
<g id="edge26" class="edge"><title>Node8&#45;&gt;Node7</title>
<path fill="none" stroke="midnightblue" d="M308.196,-67.5533C336.976,-74.2737 374.445,-83.0228 404.957,-90.1472"/>
<polygon fill="midnightblue" stroke="midnightblue" points="404.481,-93.6302 415.015,-92.4958 406.072,-86.8135 404.481,-93.6302"/>
</g>
<!-- Node9 -->
<g id="node18" class="node"><title>Node9</title>
<a xlink:href="a00187.html#acecabdaba17f8aaa9477b720311dccf4" target="_top" xlink:title="Return the currently held down qualifiers.">
<polygon fill="none" stroke="black" points="384.5,-0.5 384.5,-21.5 535.5,-21.5 535.5,-0.5 384.5,-0.5"/>
<text text-anchor="middle" x="460" y="-8.5" font-family="FreeSans" font-size="10.00">Urho3D::Input::GetQualifiers</text>
</a>
</g>
<!-- Node8&#45;&gt;Node9 -->
<g id="edge18" class="edge"><title>Node8&#45;&gt;Node9</title>
<path fill="none" stroke="midnightblue" d="M308.196,-46.4467C336.976,-39.7263 374.445,-30.9772 404.957,-23.8528"/>
<polygon fill="midnightblue" stroke="midnightblue" points="406.072,-27.1865 415.015,-21.5042 404.481,-20.3698 406.072,-27.1865"/>
</g>
<!-- Node10 -->
<g id="node20" class="node"><title>Node10</title>
<a xlink:href="a00187.html#a4e9e717f2dd16b24d8afe81027687ef8" target="_top" xlink:title="Check if a qualifier key is held down.">
<polygon fill="none" stroke="black" points="572,-0.5 572,-21.5 744,-21.5 744,-0.5 572,-0.5"/>
<text text-anchor="middle" x="658" y="-8.5" font-family="FreeSans" font-size="10.00">Urho3D::Input::GetQualifierDown</text>
</a>
</g>
<!-- Node9&#45;&gt;Node10 -->
<g id="edge20" class="edge"><title>Node9&#45;&gt;Node10</title>
<path fill="none" stroke="midnightblue" d="M535.703,-11C544.177,-11 552.893,-11 561.583,-11"/>
<polygon fill="midnightblue" stroke="midnightblue" points="561.755,-14.5001 571.755,-11 561.755,-7.5001 561.755,-14.5001"/>
</g>
<!-- Node11 -->
<g id="node22" class="node"><title>Node11</title>
<a xlink:href="a00187.html#a8995ff227b84083c0b1a9050bb211357" target="_top" xlink:title="Check if a key is held down.">
<polygon fill="none" stroke="black" points="780.5,-0.5 780.5,-21.5 929.5,-21.5 929.5,-0.5 780.5,-0.5"/>
<text text-anchor="middle" x="855" y="-8.5" font-family="FreeSans" font-size="10.00">Urho3D::Input::GetKeyDown</text>
</a>
</g>
<!-- Node10&#45;&gt;Node11 -->
<g id="edge22" class="edge"><title>Node10&#45;&gt;Node11</title>
<path fill="none" stroke="midnightblue" d="M744.12,-11C752.827,-11 761.665,-11 770.356,-11"/>
<polygon fill="midnightblue" stroke="midnightblue" points="770.474,-14.5001 780.474,-11 770.474,-7.5001 770.474,-14.5001"/>
</g>
<!-- Node12 -->
<g id="node24" class="node"><title>Node12</title>
<a xlink:href="a00180.html#a2f418238fbfa023388fb141c2759534a" target="_top" xlink:title="Return whether contains a key.">
<polygon fill="none" stroke="black" points="966.5,-0.5 966.5,-21.5 1115.5,-21.5 1115.5,-0.5 966.5,-0.5"/>
<text text-anchor="middle" x="1041" y="-8.5" font-family="FreeSans" font-size="10.00">Urho3D::HashSet::Contains</text>
</a>
</g>
<!-- Node11&#45;&gt;Node12 -->
<g id="edge24" class="edge"><title>Node11&#45;&gt;Node12</title>
<path fill="none" stroke="midnightblue" d="M929.582,-11C938.393,-11 947.435,-11 956.373,-11"/>
<polygon fill="midnightblue" stroke="midnightblue" points="956.402,-14.5001 966.402,-11 956.402,-7.5001 956.402,-14.5001"/>
</g>
</g>
</svg>
