<?xml version="1.0" encoding="UTF-8" standalone="no"?>
<!DOCTYPE svg PUBLIC "-//W3C//DTD SVG 1.1//EN"
 "http://www.w3.org/Graphics/SVG/1.1/DTD/svg11.dtd">
<!-- Generated by graphviz version 2.26.3 (20100126.1600)
 -->
<!-- Title: Urho3D::Scene::UpdateAsyncLoading Pages: 1 -->
<svg width="1076pt" height="524pt"
 viewBox="0.00 0.00 1076.00 524.00" xmlns="http://www.w3.org/2000/svg" xmlns:xlink="http://www.w3.org/1999/xlink">
<g id="graph1" class="graph" transform="scale(1 1) rotate(0) translate(4 520)">
<title>Urho3D::Scene::UpdateAsyncLoading</title>
<!-- Node1 -->
<g id="node1" class="node"><title>Node1</title>
<polygon fill="#bfbfbf" stroke="black" points="0.5,-169 0.5,-203 159.5,-203 159.5,-169 0.5,-169"/>
<text text-anchor="start" x="8.5" y="-190" font-family="FreeSans" font-size="10.00">Urho3D::Scene::UpdateAsync</text>
<text text-anchor="middle" x="80" y="-177" font-family="FreeSans" font-size="10.00">Loading</text>
</g>
<!-- Node2 -->
<g id="node3" class="node"><title>Node2</title>
<a xlink:href="a00248.html#a019a062421bf4e2d4f5f213245008f28" target="_top" xlink:title="Finish asynchronous loading.">
<polygon fill="none" stroke="black" points="196,-300 196,-334 346,-334 346,-300 196,-300"/>
<text text-anchor="start" x="204" y="-321" font-family="FreeSans" font-size="10.00">Urho3D::Scene::FinishAsync</text>
<text text-anchor="middle" x="271" y="-308" font-family="FreeSans" font-size="10.00">Loading</text>
</a>
</g>
<!-- Node1&#45;&gt;Node2 -->
<g id="edge2" class="edge"><title>Node1&#45;&gt;Node2</title>
<path fill="none" stroke="midnightblue" d="M104.97,-203.126C138.858,-226.369 199.517,-267.973 237.382,-293.943"/>
<polygon fill="midnightblue" stroke="midnightblue" points="235.798,-297.1 246.024,-299.87 239.757,-291.327 235.798,-297.1"/>
</g>
<!-- Node14 -->
<g id="node31" class="node"><title>Node14</title>
<a xlink:href="a00200.html#a32020dbf77c196b9777eca479e8abb36" target="_top" xlink:title="Send event to all subscribers.">
<polygon fill="none" stroke="black" points="583,-455.5 583,-476.5 731,-476.5 731,-455.5 583,-455.5"/>
<text text-anchor="middle" x="657" y="-463.5" font-family="FreeSans" font-size="10.00">Urho3D::Object::SendEvent</text>
</a>
</g>
<!-- Node1&#45;&gt;Node14 -->
<g id="edge76" class="edge"><title>Node1&#45;&gt;Node14</title>
<path fill="none" stroke="midnightblue" d="M89.1581,-203.047C106.539,-234.134 146.987,-300.719 196,-343 266.909,-404.17 292.212,-415.393 382,-442 444.182,-460.426 517.469,-466.078 572.744,-467.312"/>
<polygon fill="midnightblue" stroke="midnightblue" points="572.787,-470.813 582.848,-467.493 572.913,-463.815 572.787,-470.813"/>
</g>
<!-- Node15 -->
<g id="node33" class="node"><title>Node15</title>
<a xlink:href="a00194.html#abf5b4b7cb68f7161ebaeb1db0fdc680d" target="_top" xlink:title="Create a child scene node (with specified ID if provided).">
<polygon fill="none" stroke="black" points="198,-494.5 198,-515.5 344,-515.5 344,-494.5 198,-494.5"/>
<text text-anchor="middle" x="271" y="-502.5" font-family="FreeSans" font-size="10.00">Urho3D::Node::CreateChild</text>
</a>
</g>
<!-- Node1&#45;&gt;Node15 -->
<g id="edge36" class="edge"><title>Node1&#45;&gt;Node15</title>
<path fill="none" stroke="midnightblue" d="M81.7442,-203.033C87.7637,-252.983 112.149,-400.564 196,-480 200.11,-483.894 204.843,-487.182 209.891,-489.958"/>
<polygon fill="midnightblue" stroke="midnightblue" points="208.719,-493.277 219.252,-494.423 211.733,-486.959 208.719,-493.277"/>
</g>
<!-- Node17 -->
<g id="node38" class="node"><title>Node17</title>
<a xlink:href="a00251.html#ab1d8eba7016a02851c191e203be845c9" target="_top" xlink:title="Remember a created node.">
<polygon fill="none" stroke="black" points="399.5,-130 399.5,-164 528.5,-164 528.5,-130 399.5,-130"/>
<text text-anchor="start" x="407.5" y="-151" font-family="FreeSans" font-size="10.00">Urho3D::SceneResolver</text>
<text text-anchor="middle" x="464" y="-138" font-family="FreeSans" font-size="10.00">::AddNode</text>
</a>
</g>
<!-- Node1&#45;&gt;Node17 -->
<g id="edge42" class="edge"><title>Node1&#45;&gt;Node17</title>
<path fill="none" stroke="midnightblue" d="M159.719,-171.177C171.844,-169.235 184.233,-167.428 196,-166 261.034,-158.108 335.375,-153.157 389.236,-150.295"/>
<polygon fill="midnightblue" stroke="midnightblue" points="389.582,-153.782 399.387,-149.767 389.219,-146.791 389.582,-153.782"/>
</g>
<!-- Node18 -->
<g id="node40" class="node"><title>Node18</title>
<a xlink:href="a00194.html#aed2e490abd9969275d53949f9cd56213" target="_top" xlink:title="Load from binary data. Return true if successful.">
<polygon fill="none" stroke="black" points="214,-215.5 214,-236.5 328,-236.5 328,-215.5 214,-215.5"/>
<text text-anchor="middle" x="271" y="-223.5" font-family="FreeSans" font-size="10.00">Urho3D::Node::Load</text>
</a>
</g>
<!-- Node1&#45;&gt;Node18 -->
<g id="edge44" class="edge"><title>Node1&#45;&gt;Node18</title>
<path fill="none" stroke="midnightblue" d="M159.618,-202.674C176.741,-206.26 194.565,-209.993 210.804,-213.393"/>
<polygon fill="midnightblue" stroke="midnightblue" points="210.184,-216.84 220.689,-215.464 211.619,-209.988 210.184,-216.84"/>
</g>
<!-- Node20 -->
<g id="node47" class="node"><title>Node20</title>
<a xlink:href="a00330.html#a3c721dad5590beb49a04e9d5108d68ff" target="_top" xlink:title="Return an integer attribute, or zero if missing.">
<polygon fill="none" stroke="black" points="404.5,-78 404.5,-112 523.5,-112 523.5,-78 404.5,-78"/>
<text text-anchor="start" x="412.5" y="-99" font-family="FreeSans" font-size="10.00">Urho3D::XMLElement</text>
<text text-anchor="middle" x="464" y="-86" font-family="FreeSans" font-size="10.00">::GetInt</text>
</a>
</g>
<!-- Node1&#45;&gt;Node20 -->
<g id="edge54" class="edge"><title>Node1&#45;&gt;Node20</title>
<path fill="none" stroke="midnightblue" d="M131.083,-168.955C151.189,-162.56 174.557,-155.513 196,-150 262.799,-132.825 340.047,-117.438 394.397,-107.337"/>
<polygon fill="midnightblue" stroke="midnightblue" points="395.073,-110.771 404.271,-105.513 393.802,-103.887 395.073,-110.771"/>
</g>
<!-- Node23 -->
<g id="node53" class="node"><title>Node23</title>
<a xlink:href="a00194.html#ac36784ed3c7e7f41b68bef4e91d6a646" target="_top" xlink:title="Load from XML data. Return true if successful.">
<polygon fill="none" stroke="black" points="204,-175.5 204,-196.5 338,-196.5 338,-175.5 204,-175.5"/>
<text text-anchor="middle" x="271" y="-183.5" font-family="FreeSans" font-size="10.00">Urho3D::Node::LoadXML</text>
</a>
</g>
<!-- Node1&#45;&gt;Node23 -->
<g id="edge60" class="edge"><title>Node1&#45;&gt;Node23</title>
<path fill="none" stroke="midnightblue" d="M159.618,-186C170.903,-186 182.493,-186 193.733,-186"/>
<polygon fill="midnightblue" stroke="midnightblue" points="193.938,-189.5 203.938,-186 193.937,-182.5 193.938,-189.5"/>
</g>
<!-- Node24 -->
<g id="node59" class="node"><title>Node24</title>
<a xlink:href="a00330.html#aa151f57fcb4eca0607acc2412a5eda5b" target="_top" xlink:title="Return next sibling element.">
<polygon fill="none" stroke="black" points="597.5,-30 597.5,-64 716.5,-64 716.5,-30 597.5,-30"/>
<text text-anchor="start" x="605.5" y="-51" font-family="FreeSans" font-size="10.00">Urho3D::XMLElement</text>
<text text-anchor="middle" x="657" y="-38" font-family="FreeSans" font-size="10.00">::GetNext</text>
</a>
</g>
<!-- Node1&#45;&gt;Node24 -->
<g id="edge70" class="edge"><title>Node1&#45;&gt;Node24</title>
<path fill="none" stroke="midnightblue" d="M102.795,-168.782C125.364,-152.498 161.454,-128.461 196,-114 326.692,-59.2929 494.393,-48.0842 587.251,-46.4594"/>
<polygon fill="midnightblue" stroke="midnightblue" points="587.424,-49.9574 597.373,-46.3153 587.324,-42.9581 587.424,-49.9574"/>
</g>
<!-- Node25 -->
<g id="node62" class="node"><title>Node25</title>
<a xlink:href="a00303.html#a22dac8a7c8bda20a7e2355618c3a1418" target="_top" xlink:title="Return elapsed milliseconds and optionally reset.">
<polygon fill="none" stroke="black" points="203,-0.5 203,-21.5 339,-21.5 339,-0.5 203,-0.5"/>
<text text-anchor="middle" x="271" y="-8.5" font-family="FreeSans" font-size="10.00">Urho3D::Timer::GetMSec</text>
</a>
</g>
<!-- Node1&#45;&gt;Node25 -->
<g id="edge74" class="edge"><title>Node1&#45;&gt;Node25</title>
<path fill="none" stroke="midnightblue" d="M88.7198,-168.937C105.388,-137.976 144.721,-72.3876 196,-36 201.925,-31.7953 208.607,-28.2605 215.48,-25.2984"/>
<polygon fill="midnightblue" stroke="midnightblue" points="216.879,-28.5092 224.915,-21.605 214.328,-21.9908 216.879,-28.5092"/>
</g>
<!-- Node3 -->
<g id="node5" class="node"><title>Node3</title>
<a xlink:href="a00251.html#a4322ce210921b372aa621462408597cc" target="_top" xlink:title="Resolve component and node ID attributes and reset.">
<polygon fill="none" stroke="red" points="399.5,-274 399.5,-308 528.5,-308 528.5,-274 399.5,-274"/>
<text text-anchor="start" x="407.5" y="-295" font-family="FreeSans" font-size="10.00">Urho3D::SceneResolver</text>
<text text-anchor="middle" x="464" y="-282" font-family="FreeSans" font-size="10.00">::Resolve</text>
</a>
</g>
<!-- Node2&#45;&gt;Node3 -->
<g id="edge4" class="edge"><title>Node2&#45;&gt;Node3</title>
<path fill="none" stroke="midnightblue" d="M346.171,-306.873C360.31,-304.969 375.091,-302.977 389.217,-301.074"/>
<polygon fill="midnightblue" stroke="midnightblue" points="389.926,-304.511 399.369,-299.707 388.991,-297.573 389.926,-304.511"/>
</g>
<!-- Node11 -->
<g id="node25" class="node"><title>Node11</title>
<a xlink:href="a00194.html#a4da7020e1322e1e66600aed5b8b5e2d9" target="_top" xlink:title="Apply attribute changes that can not be applied immediately recursively to child nodes and components...">
<polygon fill="none" stroke="black" points="382,-182.5 382,-203.5 546,-203.5 546,-182.5 382,-182.5"/>
<text text-anchor="middle" x="464" y="-190.5" font-family="FreeSans" font-size="10.00">Urho3D::Node::ApplyAttributes</text>
</a>
</g>
<!-- Node2&#45;&gt;Node11 -->
<g id="edge28" class="edge"><title>Node2&#45;&gt;Node11</title>
<path fill="none" stroke="midnightblue" d="M289.266,-299.663C320.062,-270.463 379.257,-214.485 382,-213 386.209,-210.722 390.678,-208.701 395.272,-206.906"/>
<polygon fill="midnightblue" stroke="midnightblue" points="396.57,-210.16 404.837,-203.533 394.242,-203.558 396.57,-210.16"/>
</g>
<!-- Node12 -->
<g id="node27" class="node"><title>Node12</title>
<a xlink:href="a00248.html#aad4b930c9f2dc906c9cf960b2dfeebb3" target="_top" xlink:title="Finish loading. Sets the scene filename and checksum.">
<polygon fill="none" stroke="red" points="384.5,-378.5 384.5,-399.5 543.5,-399.5 543.5,-378.5 384.5,-378.5"/>
<text text-anchor="middle" x="464" y="-386.5" font-family="FreeSans" font-size="10.00">Urho3D::Scene::FinishLoading</text>
</a>
</g>
<!-- Node2&#45;&gt;Node12 -->
<g id="edge30" class="edge"><title>Node2&#45;&gt;Node12</title>
<path fill="none" stroke="midnightblue" d="M303.31,-334.227C325.081,-345.31 354.702,-359.385 382,-369 389.015,-371.471 396.472,-373.748 403.92,-375.812"/>
<polygon fill="midnightblue" stroke="midnightblue" points="403.104,-379.217 413.668,-378.399 404.9,-372.451 403.104,-379.217"/>
</g>
<!-- Node13 -->
<g id="node29" class="node"><title>Node13</title>
<a xlink:href="a00248.html#a08f99dc8b2497499e581f2eb7ce1a082" target="_top" xlink:title="Stop asynchronous loading.">
<polygon fill="none" stroke="red" points="391,-326 391,-360 537,-360 537,-326 391,-326"/>
<text text-anchor="start" x="399" y="-347" font-family="FreeSans" font-size="10.00">Urho3D::Scene::StopAsync</text>
<text text-anchor="middle" x="464" y="-334" font-family="FreeSans" font-size="10.00">Loading</text>
</a>
</g>
<!-- Node2&#45;&gt;Node13 -->
<g id="edge32" class="edge"><title>Node2&#45;&gt;Node13</title>
<path fill="none" stroke="midnightblue" d="M346.171,-327.127C357.55,-328.66 369.346,-330.249 380.881,-331.803"/>
<polygon fill="midnightblue" stroke="midnightblue" points="380.556,-335.29 390.934,-333.157 381.491,-328.353 380.556,-335.29"/>
</g>
<!-- Node2&#45;&gt;Node14 -->
<g id="edge34" class="edge"><title>Node2&#45;&gt;Node14</title>
<path fill="none" stroke="midnightblue" d="M286.478,-334.189C306.432,-355.226 343.202,-390.343 382,-409 415.872,-425.288 508.681,-442.63 577.156,-453.85"/>
<polygon fill="midnightblue" stroke="midnightblue" points="576.641,-457.312 587.073,-455.46 577.763,-450.402 576.641,-457.312"/>
</g>
<!-- Node4 -->
<g id="node7" class="node"><title>Node4</title>
<a xlink:href="a00143.html#a2f418238fbfa023388fb141c2759534a" target="_top" xlink:title="Return whether contains a key.">
<polygon fill="none" stroke="black" points="582.5,-196.5 582.5,-217.5 731.5,-217.5 731.5,-196.5 582.5,-196.5"/>
<text text-anchor="middle" x="657" y="-204.5" font-family="FreeSans" font-size="10.00">Urho3D::HashSet::Contains</text>
</a>
</g>
<!-- Node3&#45;&gt;Node4 -->
<g id="edge6" class="edge"><title>Node3&#45;&gt;Node4</title>
<path fill="none" stroke="midnightblue" d="M527.434,-273.987C533.877,-271.351 540.183,-268.366 546,-265 564.787,-254.131 563.293,-243.007 582,-232 589.312,-227.698 597.465,-224.015 605.628,-220.905"/>
<polygon fill="midnightblue" stroke="midnightblue" points="606.915,-224.162 615.164,-217.513 604.569,-217.566 606.915,-224.162"/>
</g>
<!-- Node5 -->
<g id="node9" class="node"><title>Node5</title>
<a xlink:href="a00200.html#abc59a1d0b1bb4c67ed06d220c3c81c4a" target="_top" xlink:title="Return type hash.">
<polygon fill="none" stroke="black" points="934,-219.5 934,-240.5 1068,-240.5 1068,-219.5 934,-219.5"/>
<text text-anchor="middle" x="1001" y="-227.5" font-family="FreeSans" font-size="10.00">Urho3D::Object::GetType</text>
</a>
</g>
<!-- Node3&#45;&gt;Node5 -->
<g id="edge8" class="edge"><title>Node3&#45;&gt;Node5</title>
<path fill="none" stroke="midnightblue" d="M528.607,-276.39C534.899,-273.294 540.847,-269.544 546,-265 574.636,-239.746 549.839,-207.578 582,-187 707.267,-106.85 897.933,-181.181 971.036,-215.132"/>
<polygon fill="midnightblue" stroke="midnightblue" points="969.619,-218.333 980.155,-219.443 972.611,-212.005 969.619,-218.333"/>
</g>
<!-- Node6 -->
<g id="node11" class="node"><title>Node6</title>
<a xlink:href="a00260.html#aba0920b61420d159fdc99628eb295a71" target="_top" xlink:title="Return attribute descriptions, or null if none defined.">
<polygon fill="none" stroke="red" points="776,-275 776,-309 890,-309 890,-275 776,-275"/>
<text text-anchor="start" x="784" y="-296" font-family="FreeSans" font-size="10.00">Urho3D::Serializable</text>
<text text-anchor="middle" x="833" y="-283" font-family="FreeSans" font-size="10.00">::GetAttributes</text>
</a>
</g>
<!-- Node3&#45;&gt;Node6 -->
<g id="edge10" class="edge"><title>Node3&#45;&gt;Node6</title>
<path fill="none" stroke="midnightblue" d="M528.5,-307.857C545.756,-311.638 564.482,-315.093 582,-317 648.275,-324.215 665.823,-325.068 732,-317 743.095,-315.647 754.727,-313.488 765.988,-310.991"/>
<polygon fill="midnightblue" stroke="midnightblue" points="766.816,-314.392 775.766,-308.722 765.234,-307.573 766.816,-314.392"/>
</g>
<!-- Node7 -->
<g id="node14" class="node"><title>Node7</title>
<a xlink:href="a00143.html#a14064ab8bc6c6c6782961cb95295a2ee" target="_top" xlink:title="Insert a key. Return an iterator to it.">
<polygon fill="none" stroke="black" points="590,-364.5 590,-385.5 724,-385.5 724,-364.5 590,-364.5"/>
<text text-anchor="middle" x="657" y="-372.5" font-family="FreeSans" font-size="10.00">Urho3D::HashSet::Insert</text>
</a>
</g>
<!-- Node3&#45;&gt;Node7 -->
<g id="edge14" class="edge"><title>Node3&#45;&gt;Node7</title>
<path fill="none" stroke="midnightblue" d="M527.434,-308.013C533.877,-310.649 540.183,-313.634 546,-317 564.787,-327.869 563.293,-338.993 582,-350 589.312,-354.302 597.465,-357.985 605.628,-361.095"/>
<polygon fill="midnightblue" stroke="midnightblue" points="604.569,-364.434 615.164,-364.487 606.915,-357.838 604.569,-364.434"/>
</g>
<!-- Node8 -->
<g id="node16" class="node"><title>Node8</title>
<a xlink:href="a00313.html#a06762e9e70b9851f54a845555f28cd4b" target="_top" xlink:title="Return size of vector.">
<polygon fill="none" stroke="black" points="775,-365.5 775,-386.5 891,-386.5 891,-365.5 775,-365.5"/>
<text text-anchor="middle" x="833" y="-373.5" font-family="FreeSans" font-size="10.00">Urho3D::Vector::Size</text>
</a>
</g>
<!-- Node3&#45;&gt;Node8 -->
<g id="edge16" class="edge"><title>Node3&#45;&gt;Node8</title>
<path fill="none" stroke="midnightblue" d="M528.607,-305.61C534.899,-308.706 540.847,-312.456 546,-317 574.636,-342.254 549.839,-374.422 582,-395 649.295,-438.058 748.476,-409.93 799.686,-390.328"/>
<polygon fill="midnightblue" stroke="midnightblue" points="801.249,-393.474 809.265,-386.545 798.678,-386.963 801.249,-393.474"/>
</g>
<!-- Node9 -->
<g id="node18" class="node"><title>Node9</title>
<a xlink:href="a00313.html#acc6d3367d69abfd9545f22381cfee50c" target="_top" xlink:title="Return element at index.">
<polygon fill="none" stroke="black" points="779.5,-235.5 779.5,-256.5 886.5,-256.5 886.5,-235.5 779.5,-235.5"/>
<text text-anchor="middle" x="833" y="-243.5" font-family="FreeSans" font-size="10.00">Urho3D::Vector::At</text>
</a>
</g>
<!-- Node3&#45;&gt;Node9 -->
<g id="edge18" class="edge"><title>Node3&#45;&gt;Node9</title>
<path fill="none" stroke="midnightblue" d="M528.615,-275.038C545.87,-271.249 564.567,-267.567 582,-265 645.301,-255.678 718.297,-250.804 769.193,-248.34"/>
<polygon fill="midnightblue" stroke="midnightblue" points="769.561,-251.826 779.387,-247.864 769.234,-244.834 769.561,-251.826"/>
</g>
<!-- Node10 -->
<g id="node20" class="node"><title>Node10</title>
<a xlink:href="a00260.html#af82bb29224a484c6fb01003b6a202531" target="_top" xlink:title="Return attribute value by index. Return empty if illegal index.">
<polygon fill="none" stroke="red" points="600,-274 600,-308 714,-308 714,-274 600,-274"/>
<text text-anchor="start" x="608" y="-295" font-family="FreeSans" font-size="10.00">Urho3D::Serializable</text>
<text text-anchor="middle" x="657" y="-282" font-family="FreeSans" font-size="10.00">::GetAttribute</text>
</a>
</g>
<!-- Node3&#45;&gt;Node10 -->
<g id="edge20" class="edge"><title>Node3&#45;&gt;Node10</title>
<path fill="none" stroke="midnightblue" d="M528.535,-291C548.224,-291 569.916,-291 589.779,-291"/>
<polygon fill="midnightblue" stroke="midnightblue" points="589.979,-294.5 599.979,-291 589.979,-287.5 589.979,-294.5"/>
</g>
<!-- Node6&#45;&gt;Node5 -->
<g id="edge12" class="edge"><title>Node6&#45;&gt;Node5</title>
<path fill="none" stroke="midnightblue" d="M879.351,-274.894C905.588,-265.211 938.004,-253.249 962.774,-244.107"/>
<polygon fill="midnightblue" stroke="midnightblue" points="964.032,-247.374 972.202,-240.628 961.609,-240.807 964.032,-247.374"/>
</g>
<!-- Node10&#45;&gt;Node6 -->
<g id="edge22" class="edge"><title>Node10&#45;&gt;Node6</title>
<path fill="none" stroke="midnightblue" d="M714.142,-291.325C730.517,-291.418 748.524,-291.52 765.461,-291.616"/>
<polygon fill="midnightblue" stroke="midnightblue" points="765.824,-295.118 775.844,-291.675 765.864,-288.118 765.824,-295.118"/>
</g>
<!-- Node10&#45;&gt;Node8 -->
<g id="edge24" class="edge"><title>Node10&#45;&gt;Node8</title>
<path fill="none" stroke="midnightblue" d="M692.616,-308.201C724.52,-323.609 770.866,-345.992 801.458,-360.767"/>
<polygon fill="midnightblue" stroke="midnightblue" points="800.272,-364.08 810.799,-365.278 803.316,-357.777 800.272,-364.08"/>
</g>
<!-- Node10&#45;&gt;Node9 -->
<g id="edge26" class="edge"><title>Node10&#45;&gt;Node9</title>
<path fill="none" stroke="midnightblue" d="M714.142,-276.39C735.978,-270.807 760.716,-264.482 781.948,-259.053"/>
<polygon fill="midnightblue" stroke="midnightblue" points="782.925,-262.416 791.746,-256.548 781.191,-255.634 782.925,-262.416"/>
</g>
<!-- Node16 -->
<g id="node35" class="node"><title>Node16</title>
<a xlink:href="a00194.html#a4fe38a2be941c8ca1fa59b9639775c09" target="_top" xlink:title="Set name of the scene node. Names are not required to be unique.">
<polygon fill="none" stroke="red" points="395.5,-494.5 395.5,-515.5 532.5,-515.5 532.5,-494.5 395.5,-494.5"/>
<text text-anchor="middle" x="464" y="-502.5" font-family="FreeSans" font-size="10.00">Urho3D::Node::SetName</text>
</a>
</g>
<!-- Node15&#45;&gt;Node16 -->
<g id="edge38" class="edge"><title>Node15&#45;&gt;Node16</title>
<path fill="none" stroke="midnightblue" d="M344.24,-505C357.582,-505 371.554,-505 385.051,-505"/>
<polygon fill="midnightblue" stroke="midnightblue" points="385.263,-508.5 395.263,-505 385.263,-501.5 385.263,-508.5"/>
</g>
<!-- Node16&#45;&gt;Node14 -->
<g id="edge40" class="edge"><title>Node16&#45;&gt;Node14</title>
<path fill="none" stroke="midnightblue" d="M515.974,-494.497C540.32,-489.578 569.508,-483.68 594.997,-478.529"/>
<polygon fill="midnightblue" stroke="midnightblue" points="595.824,-481.933 604.933,-476.521 594.438,-475.071 595.824,-481.933"/>
</g>
<!-- Node18&#45;&gt;Node3 -->
<g id="edge50" class="edge"><title>Node18&#45;&gt;Node3</title>
<path fill="none" stroke="midnightblue" d="M300.129,-236.51C322.469,-244.504 354.103,-255.679 382,-265 387.626,-266.88 393.48,-268.802 399.356,-270.709"/>
<polygon fill="midnightblue" stroke="midnightblue" points="398.638,-274.154 409.23,-273.892 400.786,-267.492 398.638,-274.154"/>
</g>
<!-- Node18&#45;&gt;Node11 -->
<g id="edge52" class="edge"><title>Node18&#45;&gt;Node11</title>
<path fill="none" stroke="midnightblue" d="M328.123,-216.233C348.274,-212.787 371.19,-208.869 392.387,-205.245"/>
<polygon fill="midnightblue" stroke="midnightblue" points="393.044,-208.683 402.311,-203.548 391.864,-201.783 393.044,-208.683"/>
</g>
<!-- Node18&#45;&gt;Node17 -->
<g id="edge48" class="edge"><title>Node18&#45;&gt;Node17</title>
<path fill="none" stroke="midnightblue" d="M323.498,-215.485C331.285,-212.943 339.027,-209.821 346,-206 365.035,-195.57 363.213,-183.869 382,-173 384.999,-171.265 388.129,-169.63 391.34,-168.093"/>
<polygon fill="midnightblue" stroke="midnightblue" points="392.835,-171.259 400.566,-164.013 390.005,-164.856 392.835,-171.259"/>
</g>
<!-- Node19 -->
<g id="node42" class="node"><title>Node19</title>
<a xlink:href="a00113.html#ac237484f24d551dd8ccd812b181b500b" target="_top" xlink:title="Read a 32&#45;bit integer.">
<polygon fill="none" stroke="red" points="406,-222 406,-256 522,-256 522,-222 406,-222"/>
<text text-anchor="start" x="414" y="-243" font-family="FreeSans" font-size="10.00">Urho3D::Deserializer</text>
<text text-anchor="middle" x="464" y="-230" font-family="FreeSans" font-size="10.00">::ReadInt</text>
</a>
</g>
<!-- Node18&#45;&gt;Node19 -->
<g id="edge46" class="edge"><title>Node18&#45;&gt;Node19</title>
<path fill="none" stroke="midnightblue" d="M328.123,-229.848C349.329,-231.276 373.598,-232.911 395.702,-234.4"/>
<polygon fill="midnightblue" stroke="midnightblue" points="395.474,-237.892 405.687,-235.072 395.944,-230.908 395.474,-237.892"/>
</g>
<!-- Node21 -->
<g id="node49" class="node"><title>Node21</title>
<a xlink:href="a00330.html#a0f9070917f31e8b8ef0755a787b4941a" target="_top" xlink:title="Return attribute, or empty if missing.">
<polygon fill="none" stroke="red" points="597.5,-82 597.5,-116 716.5,-116 716.5,-82 597.5,-82"/>
<text text-anchor="start" x="605.5" y="-103" font-family="FreeSans" font-size="10.00">Urho3D::XMLElement</text>
<text text-anchor="middle" x="657" y="-90" font-family="FreeSans" font-size="10.00">::GetAttribute</text>
</a>
</g>
<!-- Node20&#45;&gt;Node21 -->
<g id="edge56" class="edge"><title>Node20&#45;&gt;Node21</title>
<path fill="none" stroke="midnightblue" d="M523.745,-96.2382C543.819,-96.6543 566.388,-97.122 587.167,-97.5527"/>
<polygon fill="midnightblue" stroke="midnightblue" points="587.135,-101.053 597.205,-97.7607 587.28,-94.0542 587.135,-101.053"/>
</g>
<!-- Node22 -->
<g id="node51" class="node"><title>Node22</title>
<a xlink:href="a00289.html#a6b405eba451da6c0f216a8649adf79aa" target="_top" xlink:title="Return the C string.">
<polygon fill="none" stroke="black" points="768.5,-62.5 768.5,-83.5 897.5,-83.5 897.5,-62.5 768.5,-62.5"/>
<text text-anchor="middle" x="833" y="-70.5" font-family="FreeSans" font-size="10.00">Urho3D::String::CString</text>
</a>
</g>
<!-- Node21&#45;&gt;Node22 -->
<g id="edge58" class="edge"><title>Node21&#45;&gt;Node22</title>
<path fill="none" stroke="midnightblue" d="M716.586,-90.1976C729.987,-88.2179 744.373,-86.0926 758.304,-84.0347"/>
<polygon fill="midnightblue" stroke="midnightblue" points="758.965,-87.475 768.347,-82.5511 757.942,-80.5502 758.965,-87.475"/>
</g>
<!-- Node23&#45;&gt;Node3 -->
<g id="edge66" class="edge"><title>Node23&#45;&gt;Node3</title>
<path fill="none" stroke="midnightblue" d="M329.199,-196.644C335.188,-199.135 340.927,-202.209 346,-206 370.606,-224.388 357.827,-246.045 382,-265 384.644,-267.073 387.457,-268.983 390.389,-270.742"/>
<polygon fill="midnightblue" stroke="midnightblue" points="389.016,-273.976 399.489,-275.579 392.301,-267.795 389.016,-273.976"/>
</g>
<!-- Node23&#45;&gt;Node11 -->
<g id="edge68" class="edge"><title>Node23&#45;&gt;Node11</title>
<path fill="none" stroke="midnightblue" d="M338.231,-188.438C348.976,-188.828 360.255,-189.237 371.463,-189.644"/>
<polygon fill="midnightblue" stroke="midnightblue" points="371.598,-193.151 381.718,-190.016 371.852,-186.155 371.598,-193.151"/>
</g>
<!-- Node23&#45;&gt;Node17 -->
<g id="edge64" class="edge"><title>Node23&#45;&gt;Node17</title>
<path fill="none" stroke="midnightblue" d="M322.974,-175.497C343.306,-171.389 367.016,-166.598 389.129,-162.129"/>
<polygon fill="midnightblue" stroke="midnightblue" points="390.049,-165.514 399.158,-160.103 388.663,-158.653 390.049,-165.514"/>
</g>
<!-- Node23&#45;&gt;Node20 -->
<g id="edge62" class="edge"><title>Node23&#45;&gt;Node20</title>
<path fill="none" stroke="midnightblue" d="M286.58,-175.365C307.532,-161.423 346.29,-136.878 382,-121 386.294,-119.091 390.772,-117.258 395.323,-115.511"/>
<polygon fill="midnightblue" stroke="midnightblue" points="396.554,-118.788 404.732,-112.052 394.139,-112.218 396.554,-118.788"/>
</g>
<!-- Node24&#45;&gt;Node22 -->
<g id="edge72" class="edge"><title>Node24&#45;&gt;Node22</title>
<path fill="none" stroke="midnightblue" d="M716.586,-55.8024C729.987,-57.7821 744.373,-59.9074 758.304,-61.9653"/>
<polygon fill="midnightblue" stroke="midnightblue" points="757.942,-65.4498 768.347,-63.4489 758.965,-58.525 757.942,-65.4498"/>
</g>
</g>
</svg>
