<?xml version="1.0" encoding="UTF-8" standalone="no"?>
<!DOCTYPE svg PUBLIC "-//W3C//DTD SVG 1.1//EN"
 "http://www.w3.org/Graphics/SVG/1.1/DTD/svg11.dtd">
<!-- Generated by graphviz version 2.26.3 (20100126.1600)
 -->
<!-- Title: Urho3D::Shader::Load Pages: 1 -->
<svg width="902pt" height="716pt"
 viewBox="0.00 0.00 902.00 716.00" xmlns="http://www.w3.org/2000/svg" xmlns:xlink="http://www.w3.org/1999/xlink">
<g id="graph1" class="graph" transform="scale(1 1) rotate(0) translate(4 712)">
<title>Urho3D::Shader::Load</title>
<!-- Node1 -->
<g id="node1" class="node"><title>Node1</title>
<polygon fill="#bfbfbf" stroke="black" points="0.5,-294.5 0.5,-315.5 123.5,-315.5 123.5,-294.5 0.5,-294.5"/>
<text text-anchor="middle" x="62" y="-302.5" font-family="FreeSans" font-size="10.00">Urho3D::Shader::Load</text>
</g>
<!-- Node2 -->
<g id="node3" class="node"><title>Node2</title>
<a xlink:href="a00113.html#a33caea30e323600e37922bc4215261cd" target="_top" xlink:title="Return name of the stream.">
<polygon fill="none" stroke="black" points="194,-542 194,-576 310,-576 310,-542 194,-542"/>
<text text-anchor="start" x="202" y="-563" font-family="FreeSans" font-size="10.00">Urho3D::Deserializer</text>
<text text-anchor="middle" x="252" y="-550" font-family="FreeSans" font-size="10.00">::GetName</text>
</a>
</g>
<!-- Node1&#45;&gt;Node2 -->
<g id="edge2" class="edge"><title>Node1&#45;&gt;Node2</title>
<path fill="none" stroke="midnightblue" d="M63.3417,-315.716C68.4714,-352.06 90.2046,-471.768 160,-533 166.964,-539.109 175.264,-543.79 183.987,-547.376"/>
<polygon fill="midnightblue" stroke="midnightblue" points="182.981,-550.734 193.575,-550.852 185.367,-544.153 182.981,-550.734"/>
</g>
<!-- Node3 -->
<g id="node5" class="node"><title>Node3</title>
<a xlink:href="a00264.html#a26e7c023bbc854a86d4ce722b632059f" target="_top" xlink:title="Parse from an XML element. Return true if successful.">
<polygon fill="none" stroke="black" points="190,-490 190,-524 314,-524 314,-490 190,-490"/>
<text text-anchor="start" x="198" y="-511" font-family="FreeSans" font-size="10.00">Urho3D::ShaderParser</text>
<text text-anchor="middle" x="252" y="-498" font-family="FreeSans" font-size="10.00">::Parse</text>
</a>
</g>
<!-- Node1&#45;&gt;Node3 -->
<g id="edge4" class="edge"><title>Node1&#45;&gt;Node3</title>
<path fill="none" stroke="midnightblue" d="M71.9477,-315.576C101.12,-346.591 187.014,-437.909 228.733,-482.263"/>
<polygon fill="midnightblue" stroke="midnightblue" points="226.347,-484.835 235.747,-489.721 231.445,-480.039 226.347,-484.835"/>
</g>
<!-- Node15 -->
<g id="node36" class="node"><title>Node15</title>
<a xlink:href="a00264.html#a3efa530f47c8b98846f7c4dd0f96b155" target="_top" xlink:title="Return error message if parsing failed.">
<polygon fill="none" stroke="black" points="190,-184 190,-218 314,-218 314,-184 190,-184"/>
<text text-anchor="start" x="198" y="-205" font-family="FreeSans" font-size="10.00">Urho3D::ShaderParser</text>
<text text-anchor="middle" x="252" y="-192" font-family="FreeSans" font-size="10.00">::GetErrorMessage</text>
</a>
</g>
<!-- Node1&#45;&gt;Node15 -->
<g id="edge42" class="edge"><title>Node1&#45;&gt;Node15</title>
<path fill="none" stroke="midnightblue" d="M72.4467,-294.293C89.3465,-277.565 124.397,-245.257 160,-227 166.397,-223.72 173.263,-220.805 180.256,-218.226"/>
<polygon fill="midnightblue" stroke="midnightblue" points="181.53,-221.489 189.838,-214.915 179.243,-214.873 181.53,-221.489"/>
</g>
<!-- Node16 -->
<g id="node38" class="node"><title>Node16</title>
<a xlink:href="a00241.html#a86a3c2dcfe91852a70ba129989b41a6a" target="_top" xlink:title="Return name.">
<polygon fill="none" stroke="black" points="572.5,-244.5 572.5,-265.5 727.5,-265.5 727.5,-244.5 572.5,-244.5"/>
<text text-anchor="middle" x="650" y="-252.5" font-family="FreeSans" font-size="10.00">Urho3D::Resource::GetName</text>
</a>
</g>
<!-- Node1&#45;&gt;Node16 -->
<g id="edge44" class="edge"><title>Node1&#45;&gt;Node16</title>
<path fill="none" stroke="midnightblue" d="M123.871,-313.695C215.23,-324.649 391.051,-338.498 536,-307 567.992,-300.048 601.769,-283.298 624.175,-270.673"/>
<polygon fill="midnightblue" stroke="midnightblue" points="626.131,-273.585 633.043,-265.556 622.632,-267.522 626.131,-273.585"/>
</g>
<!-- Node17 -->
<g id="node40" class="node"><title>Node17</title>
<a xlink:href="a00260.html#a461d39b561d39f3a791d42b0ff434bc4" target="_top" xlink:title="Process source code and include files. Return true if successful.">
<polygon fill="none" stroke="black" points="166.5,-236.5 166.5,-257.5 337.5,-257.5 337.5,-236.5 166.5,-236.5"/>
<text text-anchor="middle" x="252" y="-244.5" font-family="FreeSans" font-size="10.00">Urho3D::Shader::ProcessSource</text>
</a>
</g>
<!-- Node1&#45;&gt;Node17 -->
<g id="edge46" class="edge"><title>Node1&#45;&gt;Node17</title>
<path fill="none" stroke="midnightblue" d="M96.4076,-294.497C127.651,-284.959 173.901,-270.841 207.858,-260.475"/>
<polygon fill="midnightblue" stroke="midnightblue" points="208.985,-263.79 217.528,-257.523 206.942,-257.095 208.985,-263.79"/>
</g>
<!-- Node25 -->
<g id="node58" class="node"><title>Node25</title>
<a xlink:href="a00241.html#a965ad58111e131f7725edec44358c75e" target="_top" xlink:title="Set memory use in bytes, possibly approximate.">
<polygon fill="none" stroke="black" points="160.5,-144.5 160.5,-165.5 343.5,-165.5 343.5,-144.5 160.5,-144.5"/>
<text text-anchor="middle" x="252" y="-152.5" font-family="FreeSans" font-size="10.00">Urho3D::Resource::SetMemoryUse</text>
</a>
</g>
<!-- Node1&#45;&gt;Node25 -->
<g id="edge66" class="edge"><title>Node1&#45;&gt;Node25</title>
<path fill="none" stroke="midnightblue" d="M66.8234,-294.196C78.6979,-268.927 111.916,-205.783 160,-175 163.145,-172.987 166.461,-171.174 169.892,-169.541"/>
<polygon fill="midnightblue" stroke="midnightblue" points="171.345,-172.727 179.208,-165.627 168.633,-166.274 171.345,-172.727"/>
</g>
<!-- Node4 -->
<g id="node7" class="node"><title>Node4</title>
<a xlink:href="a00309.html#a06762e9e70b9851f54a845555f28cd4b" target="_top" xlink:title="Return size of vector.">
<polygon fill="none" stroke="black" points="592,-391.5 592,-412.5 708,-412.5 708,-391.5 592,-391.5"/>
<text text-anchor="middle" x="650" y="-399.5" font-family="FreeSans" font-size="10.00">Urho3D::Vector::Size</text>
</a>
</g>
<!-- Node3&#45;&gt;Node4 -->
<g id="edge6" class="edge"><title>Node3&#45;&gt;Node4</title>
<path fill="none" stroke="midnightblue" d="M278.815,-489.803C303.952,-474.517 343.091,-452.813 380,-441 446.669,-419.662 526.355,-409.963 581.804,-405.576"/>
<polygon fill="midnightblue" stroke="midnightblue" points="582.159,-409.059 591.867,-404.817 581.632,-402.079 582.159,-409.059"/>
</g>
<!-- Node5 -->
<g id="node9" class="node"><title>Node5</title>
<a xlink:href="a00286.html#ac6f0b2fb0bce5afbeb088c7cb15abbe1" target="_top" xlink:title="Clear the string.">
<polygon fill="none" stroke="black" points="398.5,-686.5 398.5,-707.5 517.5,-707.5 517.5,-686.5 398.5,-686.5"/>
<text text-anchor="middle" x="458" y="-694.5" font-family="FreeSans" font-size="10.00">Urho3D::String::Clear</text>
</a>
</g>
<!-- Node3&#45;&gt;Node5 -->
<g id="edge8" class="edge"><title>Node3&#45;&gt;Node5</title>
<path fill="none" stroke="midnightblue" d="M314.259,-515.078C325.315,-518.987 335.875,-524.695 344,-533 388.626,-578.618 336.173,-625.613 380,-672 383.571,-675.779 387.712,-678.989 392.189,-681.715"/>
<polygon fill="midnightblue" stroke="midnightblue" points="390.664,-684.866 401.15,-686.382 393.898,-678.658 390.664,-684.866"/>
</g>
<!-- Node7 -->
<g id="node13" class="node"><title>Node7</title>
<a xlink:href="a00326.html#a07b4b8753884e62d7ca8ab40d7b4a912" target="_top" xlink:title="Return child element, or null if missing.">
<polygon fill="none" stroke="black" points="590.5,-544 590.5,-578 709.5,-578 709.5,-544 590.5,-544"/>
<text text-anchor="start" x="598.5" y="-565" font-family="FreeSans" font-size="10.00">Urho3D::XMLElement</text>
<text text-anchor="middle" x="650" y="-552" font-family="FreeSans" font-size="10.00">::GetChild</text>
</a>
</g>
<!-- Node3&#45;&gt;Node7 -->
<g id="edge12" class="edge"><title>Node3&#45;&gt;Node7</title>
<path fill="none" stroke="midnightblue" d="M314.162,-515.833C335.077,-518.78 358.545,-522.061 380,-525 448.004,-534.315 525.689,-544.64 580.217,-551.835"/>
<polygon fill="midnightblue" stroke="midnightblue" points="580.091,-555.349 590.462,-553.186 581.006,-548.409 580.091,-555.349"/>
</g>
<!-- Node9 -->
<g id="node17" class="node"><title>Node9</title>
<a xlink:href="a00326.html#a0f9070917f31e8b8ef0755a787b4941a" target="_top" xlink:title="Return attribute, or empty if missing.">
<polygon fill="none" stroke="black" points="590.5,-492 590.5,-526 709.5,-526 709.5,-492 590.5,-492"/>
<text text-anchor="start" x="598.5" y="-513" font-family="FreeSans" font-size="10.00">Urho3D::XMLElement</text>
<text text-anchor="middle" x="650" y="-500" font-family="FreeSans" font-size="10.00">::GetAttribute</text>
</a>
</g>
<!-- Node3&#45;&gt;Node9 -->
<g id="edge16" class="edge"><title>Node3&#45;&gt;Node9</title>
<path fill="none" stroke="midnightblue" d="M314.166,-509.333C335.08,-510.014 358.548,-510.665 380,-511 449.325,-512.083 466.669,-511.608 536,-511 550.176,-510.876 565.342,-510.664 579.835,-510.424"/>
<polygon fill="midnightblue" stroke="midnightblue" points="580.307,-513.917 590.246,-510.246 580.187,-506.918 580.307,-513.917"/>
</g>
<!-- Node11 -->
<g id="node22" class="node"><title>Node11</title>
<a xlink:href="a00286.html#a69ac7aadaa628fc05fc96abde992fcdc" target="_top" xlink:title="Return whether the string is empty.">
<polygon fill="none" stroke="black" points="587.5,-438.5 587.5,-459.5 712.5,-459.5 712.5,-438.5 587.5,-438.5"/>
<text text-anchor="middle" x="650" y="-446.5" font-family="FreeSans" font-size="10.00">Urho3D::String::Empty</text>
</a>
</g>
<!-- Node3&#45;&gt;Node11 -->
<g id="edge22" class="edge"><title>Node3&#45;&gt;Node11</title>
<path fill="none" stroke="midnightblue" d="M288.047,-489.911C313.201,-478.884 347.887,-465.439 380,-459 445.783,-445.809 522.342,-444.237 577.101,-445.417"/>
<polygon fill="midnightblue" stroke="midnightblue" points="577.323,-448.924 587.408,-445.678 577.5,-441.926 577.323,-448.924"/>
</g>
<!-- Node12 -->
<g id="node24" class="node"><title>Node12</title>
<a xlink:href="a00264.html#a88367a11dafd0bb6ccde997859a218bc" target="_top" xlink:title="Parse options for a shader.">
<polygon fill="none" stroke="red" points="396,-468 396,-502 520,-502 520,-468 396,-468"/>
<text text-anchor="start" x="404" y="-489" font-family="FreeSans" font-size="10.00">Urho3D::ShaderParser</text>
<text text-anchor="middle" x="458" y="-476" font-family="FreeSans" font-size="10.00">::ParseOptions</text>
</a>
</g>
<!-- Node3&#45;&gt;Node12 -->
<g id="edge24" class="edge"><title>Node3&#45;&gt;Node12</title>
<path fill="none" stroke="midnightblue" d="M314.086,-500.369C336.583,-497.967 362.189,-495.232 385.503,-492.742"/>
<polygon fill="midnightblue" stroke="midnightblue" points="386.114,-496.197 395.686,-491.655 385.37,-489.237 386.114,-496.197"/>
</g>
<!-- Node13 -->
<g id="node30" class="node"><title>Node13</title>
<a xlink:href="a00326.html#aa151f57fcb4eca0607acc2412a5eda5b" target="_top" xlink:title="Return next sibling element.">
<polygon fill="none" stroke="black" points="590.5,-596 590.5,-630 709.5,-630 709.5,-596 590.5,-596"/>
<text text-anchor="start" x="598.5" y="-617" font-family="FreeSans" font-size="10.00">Urho3D::XMLElement</text>
<text text-anchor="middle" x="650" y="-604" font-family="FreeSans" font-size="10.00">::GetNext</text>
</a>
</g>
<!-- Node3&#45;&gt;Node13 -->
<g id="edge40" class="edge"><title>Node3&#45;&gt;Node13</title>
<path fill="none" stroke="midnightblue" d="M314.257,-515.73C325.182,-519.592 335.694,-525.115 344,-533 380.084,-567.255 339.555,-610.022 380,-639 446.54,-686.675 547.199,-657.62 604.966,-634.055"/>
<polygon fill="midnightblue" stroke="midnightblue" points="606.332,-637.278 614.202,-630.184 603.626,-630.822 606.332,-637.278"/>
</g>
<!-- Node14 -->
<g id="node33" class="node"><title>Node14</title>
<a xlink:href="a00264.html#ace657e79f389af60fc3608044d1cdc36" target="_top" xlink:title="Construct shader combinations from the options.">
<polygon fill="none" stroke="red" points="396,-596 396,-630 520,-630 520,-596 396,-596"/>
<text text-anchor="start" x="404" y="-617" font-family="FreeSans" font-size="10.00">Urho3D::ShaderParser</text>
<text text-anchor="middle" x="458" y="-604" font-family="FreeSans" font-size="10.00">::BuildCombinations</text>
</a>
</g>
<!-- Node3&#45;&gt;Node14 -->
<g id="edge38" class="edge"><title>Node3&#45;&gt;Node14</title>
<path fill="none" stroke="midnightblue" d="M314.413,-518.556C324.84,-522.15 335.134,-526.852 344,-533 366.207,-548.399 358.614,-565.48 380,-582 384.397,-585.396 389.214,-588.468 394.228,-591.238"/>
<polygon fill="midnightblue" stroke="midnightblue" points="392.918,-594.498 403.42,-595.9 396.085,-588.255 392.918,-594.498"/>
</g>
<!-- Node6 -->
<g id="node11" class="node"><title>Node6</title>
<a xlink:href="a00286.html#aed2d8d23da6f2403c7aaa20082036f88" target="_top" xlink:title="Resize the string.">
<polygon fill="none" stroke="red" points="588,-686.5 588,-707.5 712,-707.5 712,-686.5 588,-686.5"/>
<text text-anchor="middle" x="650" y="-694.5" font-family="FreeSans" font-size="10.00">Urho3D::String::Resize</text>
</a>
</g>
<!-- Node5&#45;&gt;Node6 -->
<g id="edge10" class="edge"><title>Node5&#45;&gt;Node6</title>
<path fill="none" stroke="midnightblue" d="M517.698,-697C536.633,-697 557.779,-697 577.512,-697"/>
<polygon fill="midnightblue" stroke="midnightblue" points="577.684,-700.5 587.684,-697 577.684,-693.5 577.684,-700.5"/>
</g>
<!-- Node8 -->
<g id="node15" class="node"><title>Node8</title>
<a xlink:href="a00286.html#a6b405eba451da6c0f216a8649adf79aa" target="_top" xlink:title="Return the C string.">
<polygon fill="none" stroke="black" points="764.5,-550.5 764.5,-571.5 893.5,-571.5 893.5,-550.5 764.5,-550.5"/>
<text text-anchor="middle" x="829" y="-558.5" font-family="FreeSans" font-size="10.00">Urho3D::String::CString</text>
</a>
</g>
<!-- Node7&#45;&gt;Node8 -->
<g id="edge14" class="edge"><title>Node7&#45;&gt;Node8</title>
<path fill="none" stroke="midnightblue" d="M709.604,-561C723.9,-561 739.345,-561 754.231,-561"/>
<polygon fill="midnightblue" stroke="midnightblue" points="754.426,-564.5 764.426,-561 754.426,-557.5 754.426,-564.5"/>
</g>
<!-- Node9&#45;&gt;Node8 -->
<g id="edge20" class="edge"><title>Node9&#45;&gt;Node8</title>
<path fill="none" stroke="midnightblue" d="M708.611,-526.027C732.77,-533.045 760.35,-541.057 783.012,-547.64"/>
<polygon fill="midnightblue" stroke="midnightblue" points="782.143,-551.033 792.723,-550.461 784.096,-544.311 782.143,-551.033"/>
</g>
<!-- Node10 -->
<g id="node19" class="node"><title>Node10</title>
<a xlink:href="a00326.html#ac4d343320eace4e61d92e2ad30b80bc1" target="_top" xlink:title="Return attribute as C string, or null if missing.">
<polygon fill="none" stroke="black" points="769.5,-492 769.5,-526 888.5,-526 888.5,-492 769.5,-492"/>
<text text-anchor="start" x="777.5" y="-513" font-family="FreeSans" font-size="10.00">Urho3D::XMLElement</text>
<text text-anchor="middle" x="829" y="-500" font-family="FreeSans" font-size="10.00">::GetAttributeCString</text>
</a>
</g>
<!-- Node9&#45;&gt;Node10 -->
<g id="edge18" class="edge"><title>Node9&#45;&gt;Node10</title>
<path fill="none" stroke="midnightblue" d="M709.604,-509C725.522,-509 742.866,-509 759.275,-509"/>
<polygon fill="midnightblue" stroke="midnightblue" points="759.351,-512.5 769.351,-509 759.351,-505.5 759.351,-512.5"/>
</g>
<!-- Node12&#45;&gt;Node4 -->
<g id="edge32" class="edge"><title>Node12&#45;&gt;Node4</title>
<path fill="none" stroke="midnightblue" d="M489.942,-467.99C512.531,-456.289 543.709,-440.792 572,-429 583.151,-424.352 595.417,-419.837 606.853,-415.872"/>
<polygon fill="midnightblue" stroke="midnightblue" points="608.303,-419.076 616.642,-412.539 606.047,-412.449 608.303,-419.076"/>
</g>
<!-- Node12&#45;&gt;Node7 -->
<g id="edge26" class="edge"><title>Node12&#45;&gt;Node7</title>
<path fill="none" stroke="midnightblue" d="M494.61,-502.077C516.793,-512.169 545.781,-524.905 572,-535 576.789,-536.844 581.772,-538.683 586.799,-540.482"/>
<polygon fill="midnightblue" stroke="midnightblue" points="585.887,-543.871 596.482,-543.882 588.207,-537.267 585.887,-543.871"/>
</g>
<!-- Node12&#45;&gt;Node9 -->
<g id="edge28" class="edge"><title>Node12&#45;&gt;Node9</title>
<path fill="none" stroke="midnightblue" d="M520.072,-492.759C539.291,-495.161 560.593,-497.824 580.294,-500.287"/>
<polygon fill="midnightblue" stroke="midnightblue" points="580.074,-503.786 590.431,-501.554 580.942,-496.84 580.074,-503.786"/>
</g>
<!-- Node12&#45;&gt;Node11 -->
<g id="edge30" class="edge"><title>Node12&#45;&gt;Node11</title>
<path fill="none" stroke="midnightblue" d="M520.072,-473.362C540.503,-469.531 563.288,-465.259 584.001,-461.375"/>
<polygon fill="midnightblue" stroke="midnightblue" points="584.8,-464.786 593.983,-459.503 583.51,-457.906 584.8,-464.786"/>
</g>
<!-- Node12&#45;&gt;Node13 -->
<g id="edge34" class="edge"><title>Node12&#45;&gt;Node13</title>
<path fill="none" stroke="midnightblue" d="M472.944,-502.166C493.291,-524.574 531.803,-563.673 572,-587 574.84,-588.648 577.798,-590.209 580.832,-591.687"/>
<polygon fill="midnightblue" stroke="midnightblue" points="579.56,-594.953 590.115,-595.87 582.436,-588.571 579.56,-594.953"/>
</g>
<!-- Node13&#45;&gt;Node8 -->
<g id="edge36" class="edge"><title>Node13&#45;&gt;Node8</title>
<path fill="none" stroke="midnightblue" d="M708.611,-595.973C732.77,-588.955 760.35,-580.943 783.012,-574.36"/>
<polygon fill="midnightblue" stroke="midnightblue" points="784.096,-577.689 792.723,-571.539 782.143,-570.967 784.096,-577.689"/>
</g>
<!-- Node17&#45;&gt;Node4 -->
<g id="edge58" class="edge"><title>Node17&#45;&gt;Node4</title>
<path fill="none" stroke="midnightblue" d="M273.001,-257.637C298.125,-270.177 341.611,-291.295 380,-307 459.017,-339.326 553.583,-371.051 607.238,-388.422"/>
<polygon fill="midnightblue" stroke="midnightblue" points="606.176,-391.757 616.767,-391.495 608.324,-385.095 606.176,-391.757"/>
</g>
<!-- Node18 -->
<g id="node42" class="node"><title>Node18</title>
<a xlink:href="a00242.html#a94659e6c04c0bb9791019913b7866252" target="_top" xlink:title="Return whether a file exists by name.">
<polygon fill="none" stroke="red" points="391.5,-184 391.5,-218 524.5,-218 524.5,-184 391.5,-184"/>
<text text-anchor="start" x="399.5" y="-205" font-family="FreeSans" font-size="10.00">Urho3D::ResourceCache</text>
<text text-anchor="middle" x="458" y="-192" font-family="FreeSans" font-size="10.00">::Exists</text>
</a>
</g>
<!-- Node17&#45;&gt;Node18 -->
<g id="edge48" class="edge"><title>Node17&#45;&gt;Node18</title>
<path fill="none" stroke="midnightblue" d="M301.198,-236.401C315.048,-233.392 330.12,-230.091 344,-227 356.117,-224.301 368.95,-221.408 381.466,-218.568"/>
<polygon fill="midnightblue" stroke="midnightblue" points="382.44,-221.936 391.415,-216.306 380.888,-215.11 382.44,-221.936"/>
</g>
<!-- Node19 -->
<g id="node44" class="node"><title>Node19</title>
<a xlink:href="a00242.html#ad7e4af193a42aee59f07236b532f2df6" target="_top" xlink:title="Store a dependency for a resource. If a dependency file changes, the resource will be reloaded...">
<polygon fill="none" stroke="black" points="382,-132 382,-166 534,-166 534,-132 382,-132"/>
<text text-anchor="start" x="390" y="-153" font-family="FreeSans" font-size="10.00">Urho3D::ResourceCache</text>
<text text-anchor="middle" x="458" y="-140" font-family="FreeSans" font-size="10.00">::StoreResourceDependency</text>
</a>
</g>
<!-- Node17&#45;&gt;Node19 -->
<g id="edge50" class="edge"><title>Node17&#45;&gt;Node19</title>
<path fill="none" stroke="midnightblue" d="M325.422,-236.441C331.984,-233.921 338.294,-230.817 344,-227 367.362,-211.369 357.513,-191.865 380,-175 381.809,-173.643 383.693,-172.354 385.636,-171.131"/>
<polygon fill="midnightblue" stroke="midnightblue" points="387.468,-174.117 394.479,-166.174 384.045,-168.011 387.468,-174.117"/>
</g>
<!-- Node20 -->
<g id="node47" class="node"><title>Node20</title>
<a xlink:href="a00242.html#a21a4cb02435d1721c18ddc25f34a7231" target="_top" xlink:title="Open and return a file from the resource load paths or from inside a package file. If not found, use a fallback search with absolute path. Return null if fails.">
<polygon fill="none" stroke="red" points="391.5,-0 391.5,-34 524.5,-34 524.5,-0 391.5,-0"/>
<text text-anchor="start" x="399.5" y="-21" font-family="FreeSans" font-size="10.00">Urho3D::ResourceCache</text>
<text text-anchor="middle" x="458" y="-8" font-family="FreeSans" font-size="10.00">::GetFile</text>
</a>
</g>
<!-- Node17&#45;&gt;Node20 -->
<g id="edge54" class="edge"><title>Node17&#45;&gt;Node20</title>
<path fill="none" stroke="midnightblue" d="M331.641,-236.442C336.158,-233.852 340.34,-230.737 344,-227 402.305,-167.467 324.984,-105.585 380,-43 381.031,-41.8274 382.116,-40.7076 383.249,-39.6381"/>
<polygon fill="midnightblue" stroke="midnightblue" points="385.64,-42.2105 391.35,-33.2857 381.321,-36.702 385.64,-42.2105"/>
</g>
<!-- Node21 -->
<g id="node49" class="node"><title>Node21</title>
<a xlink:href="a00309.html#a083b39861b996df82f811a9a4ebff109" target="_top" xlink:title="Add an element at the end.">
<polygon fill="none" stroke="black" points="398.5,-276.5 398.5,-297.5 517.5,-297.5 517.5,-276.5 398.5,-276.5"/>
<text text-anchor="middle" x="458" y="-284.5" font-family="FreeSans" font-size="10.00">Urho3D::Vector::Push</text>
</a>
</g>
<!-- Node17&#45;&gt;Node21 -->
<g id="edge56" class="edge"><title>Node17&#45;&gt;Node21</title>
<path fill="none" stroke="midnightblue" d="M306.124,-257.51C332.985,-262.725 365.619,-269.062 393.742,-274.523"/>
<polygon fill="midnightblue" stroke="midnightblue" points="393.396,-278.021 403.88,-276.491 394.731,-271.149 393.396,-278.021"/>
</g>
<!-- Node22 -->
<g id="node52" class="node"><title>Node22</title>
<a xlink:href="a00309.html#a76da1334013d652c918044123e08d927" target="_top" xlink:title="Erase a range of elements.">
<polygon fill="none" stroke="black" points="396.5,-236.5 396.5,-257.5 519.5,-257.5 519.5,-236.5 396.5,-236.5"/>
<text text-anchor="middle" x="458" y="-244.5" font-family="FreeSans" font-size="10.00">Urho3D::Vector::Erase</text>
</a>
</g>
<!-- Node17&#45;&gt;Node22 -->
<g id="edge60" class="edge"><title>Node17&#45;&gt;Node22</title>
<path fill="none" stroke="midnightblue" d="M337.573,-247C353.714,-247 370.443,-247 386.112,-247"/>
<polygon fill="midnightblue" stroke="midnightblue" points="386.239,-250.5 396.239,-247 386.239,-243.5 386.239,-250.5"/>
</g>
<!-- Node23 -->
<g id="node54" class="node"><title>Node23</title>
<a xlink:href="a00309.html#a59348abb9b8a78f19208613d45431fc9" target="_top" xlink:title="Insert an element at position.">
<polygon fill="none" stroke="black" points="396.5,-92.5 396.5,-113.5 519.5,-113.5 519.5,-92.5 396.5,-92.5"/>
<text text-anchor="middle" x="458" y="-100.5" font-family="FreeSans" font-size="10.00">Urho3D::Vector::Insert</text>
</a>
</g>
<!-- Node17&#45;&gt;Node23 -->
<g id="edge62" class="edge"><title>Node17&#45;&gt;Node23</title>
<path fill="none" stroke="midnightblue" d="M330.185,-236.286C335.168,-233.75 339.843,-230.689 344,-227 380.585,-194.534 344.021,-156.136 380,-123 382.291,-120.89 384.774,-118.996 387.399,-117.295"/>
<polygon fill="midnightblue" stroke="midnightblue" points="389.093,-120.358 396.199,-112.5 385.744,-114.212 389.093,-120.358"/>
</g>
<!-- Node24 -->
<g id="node56" class="node"><title>Node24</title>
<a xlink:href="a00268.html#ac0a9f7d0728fa3ba9be5889f44f7ac46" target="_top" xlink:title="Return the raw pointer.">
<polygon fill="none" stroke="black" points="380,-52.5 380,-73.5 536,-73.5 536,-52.5 380,-52.5"/>
<text text-anchor="middle" x="458" y="-60.5" font-family="FreeSans" font-size="10.00">Urho3D::SharedArrayPtr::Get</text>
</a>
</g>
<!-- Node17&#45;&gt;Node24 -->
<g id="edge64" class="edge"><title>Node17&#45;&gt;Node24</title>
<path fill="none" stroke="midnightblue" d="M330.992,-236.459C335.724,-233.874 340.127,-230.755 344,-227 391.363,-181.079 333.493,-129.788 380,-83 381.287,-81.7049 382.646,-80.4898 384.067,-79.3501"/>
<polygon fill="midnightblue" stroke="midnightblue" points="386.36,-82.0308 392.793,-73.6123 382.514,-76.1819 386.36,-82.0308"/>
</g>
<!-- Node19&#45;&gt;Node16 -->
<g id="edge52" class="edge"><title>Node19&#45;&gt;Node16</title>
<path fill="none" stroke="midnightblue" d="M515.44,-166.013C522.493,-168.721 529.499,-171.724 536,-175 571.073,-192.676 607.535,-220.13 629.503,-237.836"/>
<polygon fill="midnightblue" stroke="midnightblue" points="627.489,-240.711 637.447,-244.327 631.917,-235.289 627.489,-240.711"/>
</g>
</g>
</svg>
