<?xml version="1.0" encoding="UTF-8" standalone="no"?>
<!DOCTYPE svg PUBLIC "-//W3C//DTD SVG 1.1//EN"
 "http://www.w3.org/Graphics/SVG/1.1/DTD/svg11.dtd">
<!-- Generated by graphviz version 2.26.3 (20100126.1600)
 -->
<!-- Title: Urho3D::UI::SetModalElement Pages: 1 -->
<!--zoomable 540 -->
<svg id="main" version="1.1" xmlns="http://www.w3.org/2000/svg" xmlns:xlink="http://www.w3.org/1999/xlink" xml:space="preserve" onload="init(evt)">
        <defs>
                <circle id="rim" cx="0" cy="0" r="7"/>
                <circle id="rim2" cx="0" cy="0" r="3.5"/>
                <g id="zoomPlus">
                        <use xlink:href="#rim" fill="#404040">
                                <set attributeName="fill" to="#808080" begin="zoomplus.mouseover" end="zoomplus.mouseout"/>
                        </use>
                        <path d="M-4,0h8M0,-4v8" fill="none" stroke="white" stroke-width="1.5" pointer-events="none"/>
                </g>
                <g id="zoomMin">
                        <use xlink:href="#rim" fill="#404040">
                                <set attributeName="fill" to="#808080" begin="zoomminus.mouseover" end="zoomminus.mouseout"/>
                        </use>
                        <path d="M-4,0h8" fill="none" stroke="white" stroke-width="1.5" pointer-events="none"/>
                </g>
                <g id="dirArrow">
                        <path fill="none" stroke="white" stroke-width="1.5" d="M0,-3.0v7 M-2.5,-0.5L0,-3.0L2.5,-0.5"/>
                </g>
               <g id="resetDef">
                       <use xlink:href="#rim2" fill="#404040">
                               <set attributeName="fill" to="#808080" begin="reset.mouseover" end="reset.mouseout"/>
                       </use>
               </g>
        </defs>

<script type="text/javascript">
var viewWidth = 1178;
var viewHeight = 540;
var sectionId = 'dynsection-2';
</script>
<script xlink:href="svgpan.js"/>
<svg id="graph" class="graph">
<g id="viewport">
<title>Urho3D::UI::SetModalElement</title>
<!-- Node1 -->
<g id="node1" class="node"><title>Node1</title>
<polygon fill="#bfbfbf" stroke="black" points="0,-249.322 0,-270.322 160,-270.322 160,-249.322 0,-249.322"/>
<text text-anchor="middle" x="80" y="-257.322" font-family="FreeSans" font-size="10.00">Urho3D::UI::SetModalElement</text>
</g>
<!-- Node2 -->
<g id="node3" class="node"><title>Node2</title>
<a xlink:href="a00201.html#abc59a1d0b1bb4c67ed06d220c3c81c4a" target="_top" xlink:title="Return type hash.">
<polygon fill="none" stroke="black" points="198,-510.322 198,-531.322 332,-531.322 332,-510.322 198,-510.322"/>
<text text-anchor="middle" x="265" y="-518.322" font-family="FreeSans" font-size="10.00">Urho3D::Object::GetType</text>
</a>
</g>
<!-- Node1&#45;&gt;Node2 -->
<g id="edge2" class="edge"><title>Node1&#45;&gt;Node2</title>
<path fill="none" stroke="midnightblue" d="M82.2327,-270.486C90.4703,-307.242 122.567,-430.003 196,-495.822 200.437,-499.799 205.556,-503.157 210.959,-505.99"/>
<polygon fill="midnightblue" stroke="midnightblue" points="209.704,-509.266 220.25,-510.278 212.637,-502.91 209.704,-509.266"/>
</g>
<!-- Node3 -->
<g id="node5" class="node"><title>Node3</title>
<a xlink:href="a00311.html#a8f37f6947eb234aa829791950c5a1790" target="_top" xlink:title="Return parent element.">
<polygon fill="none" stroke="black" points="1038.5,-441.822 1038.5,-475.822 1153.5,-475.822 1153.5,-441.822 1038.5,-441.822"/>
<text text-anchor="start" x="1046.5" y="-462.822" font-family="FreeSans" font-size="10.00">Urho3D::UIElement::</text>
<text text-anchor="middle" x="1096" y="-449.822" font-family="FreeSans" font-size="10.00">GetParent</text>
</a>
</g>
<!-- Node1&#45;&gt;Node3 -->
<g id="edge4" class="edge"><title>Node1&#45;&gt;Node3</title>
<path fill="none" stroke="midnightblue" d="M84.787,-270.442C98.0897,-298.715 138.356,-376.35 196,-415.822 286.924,-478.083 324.802,-481.822 435,-481.822 435,-481.822 435,-481.822 751,-481.822 847.352,-481.822 958.507,-472.78 1028.02,-466.035"/>
<polygon fill="midnightblue" stroke="midnightblue" points="1028.78,-469.477 1038.39,-465.016 1028.1,-462.511 1028.78,-469.477"/>
</g>
<!-- Node4 -->
<g id="node7" class="node"><title>Node4</title>
<a xlink:href="a00311.html#a78b11afb8372b05bc6660e7faa8a0947" target="_top" xlink:title="Set a user variable.">
<polygon fill="none" stroke="black" points="207.5,-320.822 207.5,-354.822 322.5,-354.822 322.5,-320.822 207.5,-320.822"/>
<text text-anchor="start" x="215.5" y="-341.822" font-family="FreeSans" font-size="10.00">Urho3D::UIElement::</text>
<text text-anchor="middle" x="265" y="-328.822" font-family="FreeSans" font-size="10.00">SetVar</text>
</a>
</g>
<!-- Node1&#45;&gt;Node4 -->
<g id="edge6" class="edge"><title>Node1&#45;&gt;Node4</title>
<path fill="none" stroke="midnightblue" d="M102.495,-270.397C125.737,-281.207 163.148,-298.284 196,-311.822 200.174,-313.542 204.507,-315.282 208.877,-317.003"/>
<polygon fill="midnightblue" stroke="midnightblue" points="207.865,-320.364 218.453,-320.726 210.401,-313.84 207.865,-320.364"/>
</g>
<!-- Node5 -->
<g id="node9" class="node"><title>Node5</title>
<a xlink:href="a00311.html#a77fd78016a84c237c101fd363560c406" target="_top" xlink:title="Find child index. Return M_MAX_UNSIGNED if not found.">
<polygon fill="none" stroke="black" points="207.5,-268.822 207.5,-302.822 322.5,-302.822 322.5,-268.822 207.5,-268.822"/>
<text text-anchor="start" x="215.5" y="-289.822" font-family="FreeSans" font-size="10.00">Urho3D::UIElement::</text>
<text text-anchor="middle" x="265" y="-276.822" font-family="FreeSans" font-size="10.00">FindChild</text>
</a>
</g>
<!-- Node1&#45;&gt;Node5 -->
<g id="edge8" class="edge"><title>Node1&#45;&gt;Node5</title>
<path fill="none" stroke="midnightblue" d="M154.713,-270.322C168.835,-272.307 183.532,-274.372 197.418,-276.324"/>
<polygon fill="midnightblue" stroke="midnightblue" points="196.977,-279.796 207.367,-277.722 197.952,-272.864 196.977,-279.796"/>
</g>
<!-- Node6 -->
<g id="node11" class="node"><title>Node6</title>
<a xlink:href="a00311.html#a716e59972776da716fb58ccdbb67aece" target="_top" xlink:title="Set parent element. Same as parent&#45;&gt;InsertChild(index, this).">
<polygon fill="none" stroke="black" points="207.5,-372.822 207.5,-406.822 322.5,-406.822 322.5,-372.822 207.5,-372.822"/>
<text text-anchor="start" x="215.5" y="-393.822" font-family="FreeSans" font-size="10.00">Urho3D::UIElement::</text>
<text text-anchor="middle" x="265" y="-380.822" font-family="FreeSans" font-size="10.00">SetParent</text>
</a>
</g>
<!-- Node1&#45;&gt;Node6 -->
<g id="edge10" class="edge"><title>Node1&#45;&gt;Node6</title>
<path fill="none" stroke="midnightblue" d="M89.2236,-270.376C107.658,-290.907 151.147,-336.591 196,-363.822 198.597,-365.399 201.306,-366.907 204.083,-368.345"/>
<polygon fill="midnightblue" stroke="midnightblue" points="202.605,-371.517 213.133,-372.7 205.64,-365.21 202.605,-371.517"/>
</g>
<!-- Node19 -->
<g id="node45" class="node"><title>Node19</title>
<a xlink:href="a00311.html#a2427709a7f3082f54ace336b17491fb3" target="_top" xlink:title="Return a user variable.">
<polygon fill="none" stroke="black" points="207.5,-216.822 207.5,-250.822 322.5,-250.822 322.5,-216.822 207.5,-216.822"/>
<text text-anchor="start" x="215.5" y="-237.822" font-family="FreeSans" font-size="10.00">Urho3D::UIElement::</text>
<text text-anchor="middle" x="265" y="-224.822" font-family="FreeSans" font-size="10.00">GetVar</text>
</a>
</g>
<!-- Node1&#45;&gt;Node19 -->
<g id="edge52" class="edge"><title>Node1&#45;&gt;Node19</title>
<path fill="none" stroke="midnightblue" d="M154.713,-249.322C168.835,-247.337 183.532,-245.272 197.418,-243.32"/>
<polygon fill="midnightblue" stroke="midnightblue" points="197.952,-246.779 207.367,-241.922 196.977,-239.848 197.952,-246.779"/>
</g>
<!-- Node22 -->
<g id="node51" class="node"><title>Node22</title>
<a xlink:href="a00314.html#a480bcdd5bc80492fafa36c0d00340b26" target="_top" xlink:title="Return pointer or null on type mismatch.">
<polygon fill="none" stroke="black" points="200,-177.322 200,-198.322 330,-198.322 330,-177.322 200,-177.322"/>
<text text-anchor="middle" x="265" y="-185.322" font-family="FreeSans" font-size="10.00">Urho3D::Variant::GetPtr</text>
</a>
</g>
<!-- Node1&#45;&gt;Node22 -->
<g id="edge58" class="edge"><title>Node1&#45;&gt;Node22</title>
<path fill="none" stroke="midnightblue" d="M101.433,-249.128C124.436,-237.909 162.229,-220.217 196,-207.822 202.07,-205.594 208.512,-203.448 214.925,-201.443"/>
<polygon fill="midnightblue" stroke="midnightblue" points="216.366,-204.663 224.922,-198.415 214.337,-197.964 216.366,-204.663"/>
</g>
<!-- Node23 -->
<g id="node53" class="node"><title>Node23</title>
<a xlink:href="a00314.html#a83c65b30946cd3b226b0a018c8962c7f" target="_top" xlink:title="Return unsigned int or zero on type mismatch.">
<polygon fill="none" stroke="black" points="197,-137.322 197,-158.322 333,-158.322 333,-137.322 197,-137.322"/>
<text text-anchor="middle" x="265" y="-145.322" font-family="FreeSans" font-size="10.00">Urho3D::Variant::GetUInt</text>
</a>
</g>
<!-- Node1&#45;&gt;Node23 -->
<g id="edge60" class="edge"><title>Node1&#45;&gt;Node23</title>
<path fill="none" stroke="midnightblue" d="M90.5008,-249.095C109.724,-230.046 152.599,-190.215 196,-167.822 200.278,-165.615 204.834,-163.619 209.487,-161.82"/>
<polygon fill="midnightblue" stroke="midnightblue" points="210.865,-165.045 219.117,-158.401 208.523,-158.448 210.865,-165.045"/>
</g>
<!-- Node24 -->
<g id="node55" class="node"><title>Node24</title>
<a xlink:href="a00311.html#a18cc52d320a11084881c887ea9db9727" target="_top" xlink:title="Return all user variables.">
<polygon fill="none" stroke="black" points="207.5,-84.8219 207.5,-118.822 322.5,-118.822 322.5,-84.8219 207.5,-84.8219"/>
<text text-anchor="start" x="215.5" y="-105.822" font-family="FreeSans" font-size="10.00">Urho3D::UIElement::</text>
<text text-anchor="middle" x="265" y="-92.8219" font-family="FreeSans" font-size="10.00">GetVars</text>
</a>
</g>
<!-- Node1&#45;&gt;Node24 -->
<g id="edge62" class="edge"><title>Node1&#45;&gt;Node24</title>
<path fill="none" stroke="midnightblue" d="M86.7785,-248.992C102.819,-224.184 145.566,-162.704 196,-127.822 198.119,-126.356 200.331,-124.961 202.609,-123.633"/>
<polygon fill="midnightblue" stroke="midnightblue" points="204.458,-126.614 211.66,-118.843 201.184,-120.427 204.458,-126.614"/>
</g>
<!-- Node25 -->
<g id="node57" class="node"><title>Node25</title>
<a xlink:href="a00142.html#a3add264fee0501af663e1689968f9993" target="_top" xlink:title="Erase a pair by key. Return true if was found.">
<polygon fill="none" stroke="black" points="196.5,-45.3219 196.5,-66.3219 333.5,-66.3219 333.5,-45.3219 196.5,-45.3219"/>
<text text-anchor="middle" x="265" y="-53.3219" font-family="FreeSans" font-size="10.00">Urho3D::HashMap::Erase</text>
</a>
</g>
<!-- Node1&#45;&gt;Node25 -->
<g id="edge64" class="edge"><title>Node1&#45;&gt;Node25</title>
<path fill="none" stroke="midnightblue" d="M83.5915,-249.206C94.8159,-217.666 132.338,-123.738 196,-75.8219 198.462,-73.9691 201.091,-72.2876 203.832,-70.7617"/>
<polygon fill="midnightblue" stroke="midnightblue" points="205.407,-73.8878 212.901,-66.3982 202.372,-67.58 205.407,-73.8878"/>
</g>
<!-- Node7 -->
<g id="node13" class="node"><title>Node7</title>
<a xlink:href="a00311.html#afca95d8f1971fbbdcf725f715cc8c7a9" target="_top" xlink:title="Insert a child element into a specific position in the child list.">
<polygon fill="none" stroke="black" points="377.5,-262.822 377.5,-296.822 492.5,-296.822 492.5,-262.822 377.5,-262.822"/>
<text text-anchor="start" x="385.5" y="-283.822" font-family="FreeSans" font-size="10.00">Urho3D::UIElement::</text>
<text text-anchor="middle" x="435" y="-270.822" font-family="FreeSans" font-size="10.00">InsertChild</text>
</a>
</g>
<!-- Node6&#45;&gt;Node7 -->
<g id="edge12" class="edge"><title>Node6&#45;&gt;Node7</title>
<path fill="none" stroke="midnightblue" d="M316.385,-372.664C322.465,-369.995 328.468,-367.041 334,-363.822 362.713,-347.112 391.45,-322.222 410.888,-303.871"/>
<polygon fill="midnightblue" stroke="midnightblue" points="413.318,-306.39 418.116,-296.943 408.475,-301.336 413.318,-306.39"/>
</g>
<!-- Node8 -->
<g id="node15" class="node"><title>Node8</title>
<a xlink:href="a00311.html#a3dcde71270ecb76924e19cd6e0667e59" target="_top" xlink:title="Return default style.">
<polygon fill="none" stroke="black" points="693.5,-178.822 693.5,-212.822 808.5,-212.822 808.5,-178.822 693.5,-178.822"/>
<text text-anchor="start" x="701.5" y="-199.822" font-family="FreeSans" font-size="10.00">Urho3D::UIElement::</text>
<text text-anchor="middle" x="751" y="-186.822" font-family="FreeSans" font-size="10.00">GetDefaultStyle</text>
</a>
</g>
<!-- Node7&#45;&gt;Node8 -->
<g id="edge14" class="edge"><title>Node7&#45;&gt;Node8</title>
<path fill="none" stroke="midnightblue" d="M480.944,-262.704C487.43,-259.925 493.946,-256.932 500,-253.822 516.889,-245.147 518.264,-237.598 536,-230.822 583.259,-212.766 639.837,-204.023 683.089,-199.791"/>
<polygon fill="midnightblue" stroke="midnightblue" points="683.586,-203.26 693.222,-198.857 682.944,-196.289 683.586,-203.26"/>
</g>
<!-- Node9 -->
<g id="node17" class="node"><title>Node9</title>
<a xlink:href="a00311.html#a49a86d0ee7b5d788ec48183668a82d4d" target="_top" xlink:title="Remove from the parent element. If no other shared pointer references exist, causes immediate deletio...">
<polygon fill="none" stroke="black" points="536.5,-239.822 536.5,-273.822 651.5,-273.822 651.5,-239.822 536.5,-239.822"/>
<text text-anchor="start" x="544.5" y="-260.822" font-family="FreeSans" font-size="10.00">Urho3D::UIElement::</text>
<text text-anchor="middle" x="594" y="-247.822" font-family="FreeSans" font-size="10.00">Remove</text>
</a>
</g>
<!-- Node7&#45;&gt;Node9 -->
<g id="edge16" class="edge"><title>Node7&#45;&gt;Node9</title>
<path fill="none" stroke="midnightblue" d="M492.852,-271.453C503.73,-269.88 515.192,-268.222 526.337,-266.61"/>
<polygon fill="midnightblue" stroke="midnightblue" points="527.061,-270.041 536.457,-265.146 526.059,-263.114 527.061,-270.041"/>
</g>
<!-- Node11 -->
<g id="node21" class="node"><title>Node11</title>
<a xlink:href="a00311.html#ac6787671e32acfe72f1f195dc3464cc2" target="_top" xlink:title="Get element which should send child added / removed events.">
<polygon fill="none" stroke="black" points="850.5,-133.822 850.5,-167.822 985.5,-167.822 985.5,-133.822 850.5,-133.822"/>
<text text-anchor="start" x="858.5" y="-154.822" font-family="FreeSans" font-size="10.00">Urho3D::UIElement::</text>
<text text-anchor="middle" x="918" y="-141.822" font-family="FreeSans" font-size="10.00">GetElementEventSender</text>
</a>
</g>
<!-- Node7&#45;&gt;Node11 -->
<g id="edge48" class="edge"><title>Node7&#45;&gt;Node11</title>
<path fill="none" stroke="midnightblue" d="M489.839,-262.743C493.592,-260.17 497.048,-257.215 500,-253.822 543.868,-203.402 483.389,-149.036 536,-107.822 636.765,-28.8854 800.963,-92.3647 876.985,-129.17"/>
<polygon fill="midnightblue" stroke="midnightblue" points="875.726,-132.452 886.243,-133.733 878.821,-126.173 875.726,-132.452"/>
</g>
<!-- Node12 -->
<g id="node23" class="node"><title>Node12</title>
<a xlink:href="a00311.html#a696f2c9d35d4b2e262b2c666bceda61f" target="_top" xlink:title="Return root element.">
<polygon fill="none" stroke="black" points="860.5,-419.822 860.5,-453.822 975.5,-453.822 975.5,-419.822 860.5,-419.822"/>
<text text-anchor="start" x="868.5" y="-440.822" font-family="FreeSans" font-size="10.00">Urho3D::UIElement::</text>
<text text-anchor="middle" x="918" y="-427.822" font-family="FreeSans" font-size="10.00">GetRoot</text>
</a>
</g>
<!-- Node7&#45;&gt;Node12 -->
<g id="edge46" class="edge"><title>Node7&#45;&gt;Node12</title>
<path fill="none" stroke="midnightblue" d="M441.073,-297.213C453.298,-329.22 484.22,-396.743 536,-424.822 634.866,-478.435 770.277,-466.313 850.497,-452"/>
<polygon fill="midnightblue" stroke="midnightblue" points="851.282,-455.415 860.48,-450.157 850.011,-448.531 851.282,-455.415"/>
</g>
<!-- Node13 -->
<g id="node26" class="node"><title>Node13</title>
<a xlink:href="a00201.html#a32020dbf77c196b9777eca479e8abb36" target="_top" xlink:title="Send event to all subscribers.">
<polygon fill="none" stroke="black" points="1022,-223.322 1022,-244.322 1170,-244.322 1170,-223.322 1022,-223.322"/>
<text text-anchor="middle" x="1096" y="-231.322" font-family="FreeSans" font-size="10.00">Urho3D::Object::SendEvent</text>
</a>
</g>
<!-- Node7&#45;&gt;Node13 -->
<g id="edge50" class="edge"><title>Node7&#45;&gt;Node13</title>
<path fill="none" stroke="midnightblue" d="M490.337,-262.698C493.929,-260.137 497.216,-257.197 500,-253.822 554.136,-188.195 470.431,-120.027 536,-65.8219 691.467,62.6993 814.08,-19.3178 986,-124.822 1026,-149.369 1062.6,-191.121 1081.83,-215.201"/>
<polygon fill="midnightblue" stroke="midnightblue" points="1079.18,-217.496 1088.11,-223.208 1084.69,-213.178 1079.18,-217.496"/>
</g>
<!-- Node14 -->
<g id="node28" class="node"><title>Node14</title>
<a xlink:href="a00311.html#a7cba78373c23a734a1ccd2d4a27d8cb0" target="_top" xlink:title="Manually update layout. Should not be necessary in most cases, but is provided for completeness...">
<polygon fill="none" stroke="red" points="860.5,-261.822 860.5,-295.822 975.5,-295.822 975.5,-261.822 860.5,-261.822"/>
<text text-anchor="start" x="868.5" y="-282.822" font-family="FreeSans" font-size="10.00">Urho3D::UIElement::</text>
<text text-anchor="middle" x="918" y="-269.822" font-family="FreeSans" font-size="10.00">UpdateLayout</text>
</a>
</g>
<!-- Node7&#45;&gt;Node14 -->
<g id="edge44" class="edge"><title>Node7&#45;&gt;Node14</title>
<path fill="none" stroke="midnightblue" d="M492.677,-281.831C506.842,-282.242 521.968,-282.614 536,-282.822 659.542,-284.656 690.467,-285.197 814,-282.822 825.714,-282.597 838.167,-282.229 850.232,-281.805"/>
<polygon fill="midnightblue" stroke="midnightblue" points="850.386,-285.302 860.251,-281.438 850.129,-278.307 850.386,-285.302"/>
</g>
<!-- Node15 -->
<g id="node31" class="node"><title>Node15</title>
<a xlink:href="a00311.html#ad18ecc5e79b04d47079bdc979eed8240" target="_top" xlink:title="Mark screen position as needing an update.">
<polygon fill="none" stroke="black" points="536.5,-381.822 536.5,-415.822 651.5,-415.822 651.5,-381.822 536.5,-381.822"/>
<text text-anchor="start" x="544.5" y="-402.822" font-family="FreeSans" font-size="10.00">Urho3D::UIElement::</text>
<text text-anchor="middle" x="594" y="-389.822" font-family="FreeSans" font-size="10.00">MarkDirty</text>
</a>
</g>
<!-- Node7&#45;&gt;Node15 -->
<g id="edge32" class="edge"><title>Node7&#45;&gt;Node15</title>
<path fill="none" stroke="midnightblue" d="M450.413,-297.063C469.124,-317.223 502.367,-350.652 536,-372.822 538.136,-374.23 540.361,-375.597 542.642,-376.917"/>
<polygon fill="midnightblue" stroke="midnightblue" points="541.178,-380.104 551.64,-381.776 544.504,-373.945 541.178,-380.104"/>
</g>
<!-- Node16 -->
<g id="node33" class="node"><title>Node16</title>
<a xlink:href="a00291.html#a69ac7aadaa628fc05fc96abde992fcdc" target="_top" xlink:title="Return whether the string is empty.">
<polygon fill="none" stroke="black" points="688.5,-121.322 688.5,-142.322 813.5,-142.322 813.5,-121.322 688.5,-121.322"/>
<text text-anchor="middle" x="751" y="-129.322" font-family="FreeSans" font-size="10.00">Urho3D::String::Empty</text>
</a>
</g>
<!-- Node7&#45;&gt;Node16 -->
<g id="edge34" class="edge"><title>Node7&#45;&gt;Node16</title>
<path fill="none" stroke="midnightblue" d="M489.285,-262.727C493.21,-260.154 496.854,-257.203 500,-253.822 535.904,-215.232 494.106,-172.809 536,-140.822 583.304,-104.703 654.995,-110.053 702.401,-119.247"/>
<polygon fill="midnightblue" stroke="midnightblue" points="701.924,-122.722 712.425,-121.317 703.34,-115.867 701.924,-122.722"/>
</g>
<!-- Node17 -->
<g id="node35" class="node"><title>Node17</title>
<a xlink:href="a00311.html#affa64ab2ceb254b85add7bb1332a9cd9" target="_top" xlink:title="Set style from an XML file. Find the style element by name. If the style file is not explicitly provi...">
<polygon fill="none" stroke="red" points="536.5,-149.822 536.5,-183.822 651.5,-183.822 651.5,-149.822 536.5,-149.822"/>
<text text-anchor="start" x="544.5" y="-170.822" font-family="FreeSans" font-size="10.00">Urho3D::UIElement::</text>
<text text-anchor="middle" x="594" y="-157.822" font-family="FreeSans" font-size="10.00">SetStyle</text>
</a>
</g>
<!-- Node7&#45;&gt;Node17 -->
<g id="edge36" class="edge"><title>Node7&#45;&gt;Node17</title>
<path fill="none" stroke="midnightblue" d="M486.743,-262.685C491.459,-260.091 495.969,-257.149 500,-253.822 522.82,-234.988 514.253,-217.885 536,-197.822 539.299,-194.778 542.952,-191.938 546.774,-189.312"/>
<polygon fill="midnightblue" stroke="midnightblue" points="548.749,-192.204 555.335,-183.904 545.011,-186.285 548.749,-192.204"/>
</g>
<!-- Node18 -->
<g id="node39" class="node"><title>Node18</title>
<a xlink:href="a00311.html#a769c46ee7ca54cbaf367aa93cf7f3ea3" target="_top" xlink:title="Verify that child elements have proper alignment for layout mode.">
<polygon fill="none" stroke="black" points="536.5,-329.822 536.5,-363.822 651.5,-363.822 651.5,-329.822 536.5,-329.822"/>
<text text-anchor="start" x="544.5" y="-350.822" font-family="FreeSans" font-size="10.00">Urho3D::UIElement::</text>
<text text-anchor="middle" x="594" y="-337.822" font-family="FreeSans" font-size="10.00">VerifyChildAlignment</text>
</a>
</g>
<!-- Node7&#45;&gt;Node18 -->
<g id="edge42" class="edge"><title>Node7&#45;&gt;Node18</title>
<path fill="none" stroke="midnightblue" d="M475.534,-296.902C496.465,-305.722 522.185,-316.56 544.305,-325.881"/>
<polygon fill="midnightblue" stroke="midnightblue" points="542.966,-329.115 553.54,-329.773 545.684,-322.664 542.966,-329.115"/>
</g>
<!-- Node10 -->
<g id="node19" class="node"><title>Node10</title>
<a xlink:href="a00311.html#a9ccf68e4882157d8fc2489ea9b10a658" target="_top" xlink:title="Remove a child element. Starting search at specified index if provided.">
<polygon fill="none" stroke="red" points="693.5,-239.822 693.5,-273.822 808.5,-273.822 808.5,-239.822 693.5,-239.822"/>
<text text-anchor="start" x="701.5" y="-260.822" font-family="FreeSans" font-size="10.00">Urho3D::UIElement::</text>
<text text-anchor="middle" x="751" y="-247.822" font-family="FreeSans" font-size="10.00">RemoveChild</text>
</a>
</g>
<!-- Node9&#45;&gt;Node10 -->
<g id="edge18" class="edge"><title>Node9&#45;&gt;Node10</title>
<path fill="none" stroke="midnightblue" d="M651.57,-256.822C661.915,-256.822 672.785,-256.822 683.384,-256.822"/>
<polygon fill="midnightblue" stroke="midnightblue" points="683.437,-260.322 693.437,-256.822 683.437,-253.322 683.437,-260.322"/>
</g>
<!-- Node10&#45;&gt;Node11 -->
<g id="edge20" class="edge"><title>Node10&#45;&gt;Node11</title>
<path fill="none" stroke="midnightblue" d="M783.055,-239.757C793.077,-234.225 804.098,-227.934 814,-221.822 838.579,-206.649 865.49,-188.225 885.778,-173.948"/>
<polygon fill="midnightblue" stroke="midnightblue" points="887.897,-176.736 894.041,-168.105 883.856,-171.021 887.897,-176.736"/>
</g>
<!-- Node10&#45;&gt;Node12 -->
<g id="edge22" class="edge"><title>Node10&#45;&gt;Node12</title>
<path fill="none" stroke="midnightblue" d="M767.013,-274.081C796.813,-306.202 860.869,-375.244 895.187,-412.233"/>
<polygon fill="midnightblue" stroke="midnightblue" points="892.669,-414.665 902.036,-419.615 897.8,-409.904 892.669,-414.665"/>
</g>
<!-- Node10&#45;&gt;Node13 -->
<g id="edge26" class="edge"><title>Node10&#45;&gt;Node13</title>
<path fill="none" stroke="midnightblue" d="M808.745,-252.972C864.166,-249.278 948.508,-243.655 1011.48,-239.456"/>
<polygon fill="midnightblue" stroke="midnightblue" points="1012.05,-242.926 1021.8,-238.769 1011.58,-235.942 1012.05,-242.926"/>
</g>
<!-- Node10&#45;&gt;Node14 -->
<g id="edge28" class="edge"><title>Node10&#45;&gt;Node14</title>
<path fill="none" stroke="midnightblue" d="M808.94,-264.455C822.227,-266.205 836.47,-268.082 850.134,-269.882"/>
<polygon fill="midnightblue" stroke="midnightblue" points="850.073,-273.404 860.445,-271.24 850.988,-266.464 850.073,-273.404"/>
</g>
<!-- Node12&#45;&gt;Node3 -->
<g id="edge24" class="edge"><title>Node12&#45;&gt;Node3</title>
<path fill="none" stroke="midnightblue" d="M975.791,-443.965C992.594,-446.041 1011.09,-448.328 1028.44,-450.472"/>
<polygon fill="midnightblue" stroke="midnightblue" points="1028.14,-453.962 1038.5,-451.715 1029,-447.015 1028.14,-453.962"/>
</g>
<!-- Node14&#45;&gt;Node13 -->
<g id="edge30" class="edge"><title>Node14&#45;&gt;Node13</title>
<path fill="none" stroke="midnightblue" d="M975.791,-264.212C997.875,-258.629 1022.89,-252.304 1044.37,-246.875"/>
<polygon fill="midnightblue" stroke="midnightblue" points="1045.44,-250.214 1054.28,-244.37 1043.72,-243.428 1045.44,-250.214"/>
</g>
<!-- Node17&#45;&gt;Node8 -->
<g id="edge40" class="edge"><title>Node17&#45;&gt;Node8</title>
<path fill="none" stroke="midnightblue" d="M651.57,-177.456C661.915,-179.367 672.785,-181.375 683.384,-183.332"/>
<polygon fill="midnightblue" stroke="midnightblue" points="682.968,-186.815 693.437,-185.189 684.24,-179.931 682.968,-186.815"/>
</g>
<!-- Node17&#45;&gt;Node16 -->
<g id="edge38" class="edge"><title>Node17&#45;&gt;Node16</title>
<path fill="none" stroke="midnightblue" d="M651.57,-153.988C665.372,-150.911 680.106,-147.626 693.888,-144.554"/>
<polygon fill="midnightblue" stroke="midnightblue" points="694.73,-147.952 703.729,-142.36 693.207,-141.12 694.73,-147.952"/>
</g>
<!-- Node20 -->
<g id="node47" class="node"><title>Node20</title>
<a xlink:href="a00142.html#a9dc4e5c0ad1feb3eec2d2f1f1714698d" target="_top" xlink:title="Return iterator to the pair with key, or end iterator if not found.">
<polygon fill="none" stroke="black" points="370.5,-223.322 370.5,-244.322 499.5,-244.322 499.5,-223.322 370.5,-223.322"/>
<text text-anchor="middle" x="435" y="-231.322" font-family="FreeSans" font-size="10.00">Urho3D::HashMap::Find</text>
</a>
</g>
<!-- Node19&#45;&gt;Node20 -->
<g id="edge54" class="edge"><title>Node19&#45;&gt;Node20</title>
<path fill="none" stroke="midnightblue" d="M322.554,-233.822C334.715,-233.822 347.716,-233.822 360.403,-233.822"/>
<polygon fill="midnightblue" stroke="midnightblue" points="360.488,-237.322 370.488,-233.822 360.488,-230.322 360.488,-237.322"/>
</g>
<!-- Node21 -->
<g id="node49" class="node"><title>Node21</title>
<a xlink:href="a00142.html#a47eb201d8441d4e4be8626e615cb562d" target="_top" xlink:title="Return iterator to the end.">
<polygon fill="none" stroke="black" points="371,-183.322 371,-204.322 499,-204.322 499,-183.322 371,-183.322"/>
<text text-anchor="middle" x="435" y="-191.322" font-family="FreeSans" font-size="10.00">Urho3D::HashMap::End</text>
</a>
</g>
<!-- Node19&#45;&gt;Node21 -->
<g id="edge56" class="edge"><title>Node19&#45;&gt;Node21</title>
<path fill="none" stroke="midnightblue" d="M322.554,-220.28C341.166,-215.901 361.744,-211.059 380.155,-206.727"/>
<polygon fill="midnightblue" stroke="midnightblue" points="381.2,-210.076 390.133,-204.379 379.597,-203.262 381.2,-210.076"/>
</g>
</g>
</svg>
        <g id="navigator" transform="translate(0 0)" fill="#404254">
                <rect fill="#f2f5e9" fill-opacity="0.5" stroke="#606060" stroke-width=".5" x="0" y="0" width="60" height="60"/>
                <use id="zoomplus" xlink:href="#zoomPlus" x="17" y="9" onmousedown="handleZoom(evt,'in')"/>
                <use id="zoomminus" xlink:href="#zoomMin" x="42" y="9" onmousedown="handleZoom(evt,'out')"/>
                <use id="reset" xlink:href="#resetDef" x="30" y="36" onmousedown="handleReset()"/>
                <g id="arrowUp" xlink:href="#dirArrow" transform="translate(30 24)" onmousedown="handlePan(0,-1)">
                  <use xlink:href="#rim" fill="#404040">
                        <set attributeName="fill" to="#808080" begin="arrowUp.mouseover" end="arrowUp.mouseout"/>
                  </use>
                  <path fill="none" stroke="white" stroke-width="1.5" d="M0,-3.0v7 M-2.5,-0.5L0,-3.0L2.5,-0.5"/>
                </g>
                <g id="arrowRight" xlink:href="#dirArrow" transform="rotate(90) translate(36 -43)" onmousedown="handlePan(1,0)">
                  <use xlink:href="#rim" fill="#404040">
                        <set attributeName="fill" to="#808080" begin="arrowRight.mouseover" end="arrowRight.mouseout"/>
                  </use>
                  <path fill="none" stroke="white" stroke-width="1.5" d="M0,-3.0v7 M-2.5,-0.5L0,-3.0L2.5,-0.5"/>
                </g>
                <g id="arrowDown" xlink:href="#dirArrow" transform="rotate(180) translate(-30 -48)" onmousedown="handlePan(0,1)">
                  <use xlink:href="#rim" fill="#404040">
                        <set attributeName="fill" to="#808080" begin="arrowDown.mouseover" end="arrowDown.mouseout"/>
                  </use>
                  <path fill="none" stroke="white" stroke-width="1.5" d="M0,-3.0v7 M-2.5,-0.5L0,-3.0L2.5,-0.5"/>
                </g>
                <g id="arrowLeft" xlink:href="#dirArrow" transform="rotate(270) translate(-36 17)" onmousedown="handlePan(-1,0)">
                  <use xlink:href="#rim" fill="#404040">
                        <set attributeName="fill" to="#808080" begin="arrowLeft.mouseover" end="arrowLeft.mouseout"/>
                  </use>
                  <path fill="none" stroke="white" stroke-width="1.5" d="M0,-3.0v7 M-2.5,-0.5L0,-3.0L2.5,-0.5"/>
                </g>
        </g>
        <svg viewBox="0 0 15 15" width="100%" height="30px" preserveAspectRatio="xMaxYMin meet">
         <g id="arrow_out" transform="scale(0.3 0.3)">
          <a xlink:href="a00309_a70d676b6b63b600b08b56c18389f63c4_cgraph_org.svg" target="_base">
           <rect id="button" ry="5" rx="5" y="6" x="6" height="38" width="38"
                fill="#f2f5e9" fill-opacity="0.5" stroke="#606060" stroke-width="1.0"/>
           <path id="arrow"
             d="M 11.500037,31.436501 C 11.940474,20.09759 22.043105,11.32322 32.158766,21.979434 L 37.068811,17.246167 C 37.068811,17.246167 37.088388,32 37.088388,32 L 22.160133,31.978069 C 22.160133,31.978069 26.997745,27.140456 26.997745,27.140456 C 18.528582,18.264221 13.291696,25.230495 11.500037,31.436501 z"
             style="fill:#404040;"/>
          </a>
         </g>
        </svg>
</svg>
