<?xml version="1.0" encoding="UTF-8" standalone="no"?>
<!DOCTYPE svg PUBLIC "-//W3C//DTD SVG 1.1//EN"
 "http://www.w3.org/Graphics/SVG/1.1/DTD/svg11.dtd">
<!-- Generated by graphviz version 2.26.3 (20100126.1600)
 -->
<!-- Title: Urho3D::ScrollView::Update Pages: 1 -->
<!--zoomable 276 -->
<svg id="main" version="1.1" xmlns="http://www.w3.org/2000/svg" xmlns:xlink="http://www.w3.org/1999/xlink" xml:space="preserve" onload="init(evt)">
        <defs>
                <circle id="rim" cx="0" cy="0" r="7"/>
                <circle id="rim2" cx="0" cy="0" r="3.5"/>
                <g id="zoomPlus">
                        <use xlink:href="#rim" fill="#404040">
                                <set attributeName="fill" to="#808080" begin="zoomplus.mouseover" end="zoomplus.mouseout"/>
                        </use>
                        <path d="M-4,0h8M0,-4v8" fill="none" stroke="white" stroke-width="1.5" pointer-events="none"/>
                </g>
                <g id="zoomMin">
                        <use xlink:href="#rim" fill="#404040">
                                <set attributeName="fill" to="#808080" begin="zoomminus.mouseover" end="zoomminus.mouseout"/>
                        </use>
                        <path d="M-4,0h8" fill="none" stroke="white" stroke-width="1.5" pointer-events="none"/>
                </g>
                <g id="dirArrow">
                        <path fill="none" stroke="white" stroke-width="1.5" d="M0,-3.0v7 M-2.5,-0.5L0,-3.0L2.5,-0.5"/>
                </g>
               <g id="resetDef">
                       <use xlink:href="#rim2" fill="#404040">
                               <set attributeName="fill" to="#808080" begin="reset.mouseover" end="reset.mouseout"/>
                       </use>
               </g>
        </defs>

<script type="text/javascript">
var viewWidth = 952;
var viewHeight = 276;
var sectionId = 'dynsection-2';
</script>
<script xlink:href="svgpan.js"/>
<svg id="graph" class="graph">
<g id="viewport">
<title>Urho3D::ScrollView::Update</title>
<!-- Node1 -->
<g id="node1" class="node"><title>Node1</title>
<polygon fill="#bfbfbf" stroke="black" points="0.5,-130 0.5,-164 107.5,-164 107.5,-130 0.5,-130"/>
<text text-anchor="start" x="8.5" y="-151" font-family="FreeSans" font-size="10.00">Urho3D::ScrollView</text>
<text text-anchor="middle" x="54" y="-138" font-family="FreeSans" font-size="10.00">::Update</text>
</g>
<!-- Node2 -->
<g id="node3" class="node"><title>Node2</title>
<a xlink:href="a00379.html#ac3426df12a6621a2fea7c6f18795501d" target="_top" xlink:title="Return whether is visible.">
<polygon fill="none" stroke="black" points="144.5,-234 144.5,-268 259.5,-268 259.5,-234 144.5,-234"/>
<text text-anchor="start" x="152.5" y="-255" font-family="FreeSans" font-size="10.00">Urho3D::UIElement::</text>
<text text-anchor="middle" x="202" y="-242" font-family="FreeSans" font-size="10.00">IsVisible</text>
</a>
</g>
<!-- Node1&#45;&gt;Node2 -->
<g id="edge2" class="edge"><title>Node1&#45;&gt;Node2</title>
<path fill="none" stroke="midnightblue" d="M70.7096,-164.175C87.9247,-181.189 116.108,-207.21 144,-225 146.276,-226.452 148.648,-227.864 151.075,-229.23"/>
<polygon fill="midnightblue" stroke="midnightblue" points="149.561,-232.389 160.037,-233.968 152.832,-226.2 149.561,-232.389"/>
</g>
<!-- Node3 -->
<g id="node5" class="node"><title>Node3</title>
<a xlink:href="a00379.html#ae6ec675c864b55862ae03faa44049dc0" target="_top" xlink:title="Return whether reacts to input.">
<polygon fill="none" stroke="black" points="144.5,-182 144.5,-216 259.5,-216 259.5,-182 144.5,-182"/>
<text text-anchor="start" x="152.5" y="-203" font-family="FreeSans" font-size="10.00">Urho3D::UIElement::</text>
<text text-anchor="middle" x="202" y="-190" font-family="FreeSans" font-size="10.00">IsEnabled</text>
</a>
</g>
<!-- Node1&#45;&gt;Node3 -->
<g id="edge4" class="edge"><title>Node1&#45;&gt;Node3</title>
<path fill="none" stroke="midnightblue" d="M102.461,-164.027C115.621,-168.651 130.01,-173.706 143.655,-178.5"/>
<polygon fill="midnightblue" stroke="midnightblue" points="142.836,-181.922 153.43,-181.935 145.156,-175.318 142.836,-181.922"/>
</g>
<!-- Node4 -->
<g id="node7" class="node"><title>Node4</title>
<a xlink:href="a00379.html#ae743f7537516c77dee6dd53b248680a4" target="_top" xlink:title="Return whether has focus.">
<polygon fill="none" stroke="black" points="144.5,-130 144.5,-164 259.5,-164 259.5,-130 144.5,-130"/>
<text text-anchor="start" x="152.5" y="-151" font-family="FreeSans" font-size="10.00">Urho3D::UIElement::</text>
<text text-anchor="middle" x="202" y="-138" font-family="FreeSans" font-size="10.00">HasFocus</text>
</a>
</g>
<!-- Node1&#45;&gt;Node4 -->
<g id="edge6" class="edge"><title>Node1&#45;&gt;Node4</title>
<path fill="none" stroke="midnightblue" d="M107.85,-147C116.404,-147 125.348,-147 134.173,-147"/>
<polygon fill="midnightblue" stroke="midnightblue" points="134.448,-150.5 144.448,-147 134.448,-143.5 134.448,-150.5"/>
</g>
<!-- Node5 -->
<g id="node9" class="node"><title>Node5</title>
<a xlink:href="a00379.html#a8f37f6947eb234aa829791950c5a1790" target="_top" xlink:title="Return parent element.">
<polygon fill="none" stroke="black" points="144.5,-78 144.5,-112 259.5,-112 259.5,-78 144.5,-78"/>
<text text-anchor="start" x="152.5" y="-99" font-family="FreeSans" font-size="10.00">Urho3D::UIElement::</text>
<text text-anchor="middle" x="202" y="-86" font-family="FreeSans" font-size="10.00">GetParent</text>
</a>
</g>
<!-- Node1&#45;&gt;Node5 -->
<g id="edge8" class="edge"><title>Node1&#45;&gt;Node5</title>
<path fill="none" stroke="midnightblue" d="M102.461,-129.973C115.621,-125.349 130.01,-120.294 143.655,-115.5"/>
<polygon fill="midnightblue" stroke="midnightblue" points="145.156,-118.682 153.43,-112.065 142.836,-112.078 145.156,-118.682"/>
</g>
<!-- Node6 -->
<g id="node11" class="node"><title>Node6</title>
<a xlink:href="a00320.html#ae94d56b53ef42a14be5d6fc56a29656a" target="_top" xlink:title="Set view offset from the top&#45;left corner.">
<polygon fill="none" stroke="black" points="148.5,-26 148.5,-60 255.5,-60 255.5,-26 148.5,-26"/>
<text text-anchor="start" x="156.5" y="-47" font-family="FreeSans" font-size="10.00">Urho3D::ScrollView</text>
<text text-anchor="middle" x="202" y="-34" font-family="FreeSans" font-size="10.00">::SetViewPosition</text>
</a>
</g>
<!-- Node1&#45;&gt;Node6 -->
<g id="edge10" class="edge"><title>Node1&#45;&gt;Node6</title>
<path fill="none" stroke="midnightblue" d="M70.7096,-129.825C87.9247,-112.811 116.108,-86.7897 144,-69 146.276,-67.548 148.648,-66.1361 151.075,-64.7698"/>
<polygon fill="midnightblue" stroke="midnightblue" points="152.832,-67.7998 160.037,-60.0323 149.561,-61.6112 152.832,-67.7998"/>
</g>
<!-- Node7 -->
<g id="node13" class="node"><title>Node7</title>
<a xlink:href="a00320.html#a7246427277d9a85bb7eaaabeec9828f5" target="_top" xlink:title="Limit and update the view with a new position.">
<polygon fill="none" stroke="black" points="296.5,-52 296.5,-86 403.5,-86 403.5,-52 296.5,-52"/>
<text text-anchor="start" x="304.5" y="-73" font-family="FreeSans" font-size="10.00">Urho3D::ScrollView</text>
<text text-anchor="middle" x="350" y="-60" font-family="FreeSans" font-size="10.00">::UpdateView</text>
</a>
</g>
<!-- Node6&#45;&gt;Node7 -->
<g id="edge12" class="edge"><title>Node6&#45;&gt;Node7</title>
<path fill="none" stroke="midnightblue" d="M255.85,-52.4601C265.768,-54.2025 276.209,-56.0367 286.382,-57.8239"/>
<polygon fill="midnightblue" stroke="midnightblue" points="285.983,-61.3073 296.438,-59.5904 287.194,-54.4129 285.983,-61.3073"/>
</g>
<!-- Node12 -->
<g id="node23" class="node"><title>Node12</title>
<a xlink:href="a00320.html#a22536fbdac5ebd948a424eb15d7a7c39" target="_top" xlink:title="Update the scrollbars&#39; ranges and positions.">
<polygon fill="none" stroke="black" points="296.5,-0 296.5,-34 403.5,-34 403.5,-0 296.5,-0"/>
<text text-anchor="start" x="304.5" y="-21" font-family="FreeSans" font-size="10.00">Urho3D::ScrollView</text>
<text text-anchor="middle" x="350" y="-8" font-family="FreeSans" font-size="10.00">::UpdateScrollBars</text>
</a>
</g>
<!-- Node6&#45;&gt;Node12 -->
<g id="edge22" class="edge"><title>Node6&#45;&gt;Node12</title>
<path fill="none" stroke="midnightblue" d="M255.85,-33.5399C265.768,-31.7975 276.209,-29.9633 286.382,-28.1761"/>
<polygon fill="midnightblue" stroke="midnightblue" points="287.194,-31.5871 296.438,-26.4096 285.983,-24.6927 287.194,-31.5871"/>
</g>
<!-- Node8 -->
<g id="node15" class="node"><title>Node8</title>
<a xlink:href="a00249.html#ab8dbe9844094c04463def7df1fa650d5" target="_top" xlink:title="Return a preallocated map for event data. Used for optimization to avoid constant re&#45;allocation of ev...">
<polygon fill="none" stroke="black" points="444,-75 444,-109 584,-109 584,-75 444,-75"/>
<text text-anchor="start" x="452" y="-96" font-family="FreeSans" font-size="10.00">Urho3D::Object::GetEvent</text>
<text text-anchor="middle" x="514" y="-83" font-family="FreeSans" font-size="10.00">DataMap</text>
</a>
</g>
<!-- Node7&#45;&gt;Node8 -->
<g id="edge14" class="edge"><title>Node7&#45;&gt;Node8</title>
<path fill="none" stroke="midnightblue" d="M403.7,-76.5311C413.298,-77.8772 423.487,-79.306 433.641,-80.7302"/>
<polygon fill="midnightblue" stroke="midnightblue" points="433.372,-84.2266 443.762,-82.1495 434.345,-77.2945 433.372,-84.2266"/>
</g>
<!-- Node11 -->
<g id="node21" class="node"><title>Node11</title>
<a xlink:href="a00249.html#a32020dbf77c196b9777eca479e8abb36" target="_top" xlink:title="Send event to all subscribers.">
<polygon fill="none" stroke="black" points="440,-35.5 440,-56.5 588,-56.5 588,-35.5 440,-35.5"/>
<text text-anchor="middle" x="514" y="-43.5" font-family="FreeSans" font-size="10.00">Urho3D::Object::SendEvent</text>
</a>
</g>
<!-- Node7&#45;&gt;Node11 -->
<g id="edge20" class="edge"><title>Node7&#45;&gt;Node11</title>
<path fill="none" stroke="midnightblue" d="M403.7,-61.4689C412.116,-60.2886 420.986,-59.0447 429.888,-57.7961"/>
<polygon fill="midnightblue" stroke="midnightblue" points="430.515,-61.2426 439.932,-56.3876 429.542,-54.3105 430.515,-61.2426"/>
</g>
<!-- Node9 -->
<g id="node17" class="node"><title>Node9</title>
<a xlink:href="a00129.html#acb628095602a49ade116c4761ab44004" target="_top" xlink:title="Return a preallocated map for event data. Used for optimization to avoid constant re&#45;allocation of ev...">
<polygon fill="none" stroke="black" points="624.5,-75 624.5,-109 771.5,-109 771.5,-75 624.5,-75"/>
<text text-anchor="start" x="632.5" y="-96" font-family="FreeSans" font-size="10.00">Urho3D::Context::GetEvent</text>
<text text-anchor="middle" x="698" y="-83" font-family="FreeSans" font-size="10.00">DataMap</text>
</a>
</g>
<!-- Node8&#45;&gt;Node9 -->
<g id="edge16" class="edge"><title>Node8&#45;&gt;Node9</title>
<path fill="none" stroke="midnightblue" d="M584.087,-92C593.989,-92 604.251,-92 614.376,-92"/>
<polygon fill="midnightblue" stroke="midnightblue" points="614.438,-95.5001 624.438,-92 614.437,-88.5001 614.438,-95.5001"/>
</g>
<!-- Node10 -->
<g id="node19" class="node"><title>Node10</title>
<a xlink:href="a00184.html#ac02bdba9ea0d1055a3a75f6bae2ffc69" target="_top" xlink:title="Clear the map.">
<polygon fill="none" stroke="black" points="808.5,-81.5 808.5,-102.5 943.5,-102.5 943.5,-81.5 808.5,-81.5"/>
<text text-anchor="middle" x="876" y="-89.5" font-family="FreeSans" font-size="10.00">Urho3D::HashMap::Clear</text>
</a>
</g>
<!-- Node9&#45;&gt;Node10 -->
<g id="edge18" class="edge"><title>Node9&#45;&gt;Node10</title>
<path fill="none" stroke="midnightblue" d="M771.684,-92C780.415,-92 789.348,-92 798.134,-92"/>
<polygon fill="midnightblue" stroke="midnightblue" points="798.359,-95.5001 808.359,-92 798.359,-88.5001 798.359,-95.5001"/>
</g>
</g>
</svg>
        <g id="navigator" transform="translate(0 0)" fill="#404254">
                <rect fill="#f2f5e9" fill-opacity="0.5" stroke="#606060" stroke-width=".5" x="0" y="0" width="60" height="60"/>
                <use id="zoomplus" xlink:href="#zoomPlus" x="17" y="9" onmousedown="handleZoom(evt,'in')"/>
                <use id="zoomminus" xlink:href="#zoomMin" x="42" y="9" onmousedown="handleZoom(evt,'out')"/>
                <use id="reset" xlink:href="#resetDef" x="30" y="36" onmousedown="handleReset()"/>
                <g id="arrowUp" xlink:href="#dirArrow" transform="translate(30 24)" onmousedown="handlePan(0,-1)">
                  <use xlink:href="#rim" fill="#404040">
                        <set attributeName="fill" to="#808080" begin="arrowUp.mouseover" end="arrowUp.mouseout"/>
                  </use>
                  <path fill="none" stroke="white" stroke-width="1.5" d="M0,-3.0v7 M-2.5,-0.5L0,-3.0L2.5,-0.5"/>
                </g>
                <g id="arrowRight" xlink:href="#dirArrow" transform="rotate(90) translate(36 -43)" onmousedown="handlePan(1,0)">
                  <use xlink:href="#rim" fill="#404040">
                        <set attributeName="fill" to="#808080" begin="arrowRight.mouseover" end="arrowRight.mouseout"/>
                  </use>
                  <path fill="none" stroke="white" stroke-width="1.5" d="M0,-3.0v7 M-2.5,-0.5L0,-3.0L2.5,-0.5"/>
                </g>
                <g id="arrowDown" xlink:href="#dirArrow" transform="rotate(180) translate(-30 -48)" onmousedown="handlePan(0,1)">
                  <use xlink:href="#rim" fill="#404040">
                        <set attributeName="fill" to="#808080" begin="arrowDown.mouseover" end="arrowDown.mouseout"/>
                  </use>
                  <path fill="none" stroke="white" stroke-width="1.5" d="M0,-3.0v7 M-2.5,-0.5L0,-3.0L2.5,-0.5"/>
                </g>
                <g id="arrowLeft" xlink:href="#dirArrow" transform="rotate(270) translate(-36 17)" onmousedown="handlePan(-1,0)">
                  <use xlink:href="#rim" fill="#404040">
                        <set attributeName="fill" to="#808080" begin="arrowLeft.mouseover" end="arrowLeft.mouseout"/>
                  </use>
                  <path fill="none" stroke="white" stroke-width="1.5" d="M0,-3.0v7 M-2.5,-0.5L0,-3.0L2.5,-0.5"/>
                </g>
        </g>
        <svg viewBox="0 0 15 15" width="100%" height="30px" preserveAspectRatio="xMaxYMin meet">
         <g id="arrow_out" transform="scale(0.3 0.3)">
          <a xlink:href="a00320_afa04df4648f35067a1c8f9f7e02aad3b_cgraph_org.svg" target="_base">
           <rect id="button" ry="5" rx="5" y="6" x="6" height="38" width="38"
                fill="#f2f5e9" fill-opacity="0.5" stroke="#606060" stroke-width="1.0"/>
           <path id="arrow"
             d="M 11.500037,31.436501 C 11.940474,20.09759 22.043105,11.32322 32.158766,21.979434 L 37.068811,17.246167 C 37.068811,17.246167 37.088388,32 37.088388,32 L 22.160133,31.978069 C 22.160133,31.978069 26.997745,27.140456 26.997745,27.140456 C 18.528582,18.264221 13.291696,25.230495 11.500037,31.436501 z"
             style="fill:#404040;"/>
          </a>
         </g>
        </svg>
</svg>
