<?xml version="1.0" encoding="UTF-8" standalone="no"?>
<!DOCTYPE svg PUBLIC "-//W3C//DTD SVG 1.1//EN"
 "http://www.w3.org/Graphics/SVG/1.1/DTD/svg11.dtd">
<!-- Generated by graphviz version 2.26.3 (20100126.1600)
 -->
<!-- Title: Urho3D::Technique::CreatePass Pages: 1 -->
<!--zoomable 254 -->
<svg id="main" version="1.1" xmlns="http://www.w3.org/2000/svg" xmlns:xlink="http://www.w3.org/1999/xlink" xml:space="preserve" onload="init(evt)">
        <defs>
                <circle id="rim" cx="0" cy="0" r="7"/>
                <circle id="rim2" cx="0" cy="0" r="3.5"/>
                <g id="zoomPlus">
                        <use xlink:href="#rim" fill="#404040">
                                <set attributeName="fill" to="#808080" begin="zoomplus.mouseover" end="zoomplus.mouseout"/>
                        </use>
                        <path d="M-4,0h8M0,-4v8" fill="none" stroke="white" stroke-width="1.5" pointer-events="none"/>
                </g>
                <g id="zoomMin">
                        <use xlink:href="#rim" fill="#404040">
                                <set attributeName="fill" to="#808080" begin="zoomminus.mouseover" end="zoomminus.mouseout"/>
                        </use>
                        <path d="M-4,0h8" fill="none" stroke="white" stroke-width="1.5" pointer-events="none"/>
                </g>
                <g id="dirArrow">
                        <path fill="none" stroke="white" stroke-width="1.5" d="M0,-3.0v7 M-2.5,-0.5L0,-3.0L2.5,-0.5"/>
                </g>
               <g id="resetDef">
                       <use xlink:href="#rim2" fill="#404040">
                               <set attributeName="fill" to="#808080" begin="reset.mouseover" end="reset.mouseout"/>
                       </use>
               </g>
        </defs>

<script type="text/javascript">
var viewWidth = 896;
var viewHeight = 254;
var sectionId = 'dynsection-3';
</script>
<script xlink:href="svgpan.js"/>
<svg id="graph" class="graph">
<g id="viewport">
<title>Urho3D::Technique::CreatePass</title>
<!-- Node1 -->
<g id="node1" class="node"><title>Node1</title>
<polygon fill="#bfbfbf" stroke="black" points="0.5,-138 0.5,-172 113.5,-172 113.5,-138 0.5,-138"/>
<text text-anchor="start" x="8.5" y="-159" font-family="FreeSans" font-size="10.00">Urho3D::Technique::</text>
<text text-anchor="middle" x="57" y="-146" font-family="FreeSans" font-size="10.00">CreatePass</text>
</g>
<!-- Node2 -->
<g id="node3" class="node"><title>Node2</title>
<a xlink:href="a00309.html#afb9869de451d89d25cfe19c99816eb3a" target="_top" xlink:title="Load resource. Return true if successful.">
<polygon fill="none" stroke="black" points="158,-190.5 158,-211.5 294,-211.5 294,-190.5 158,-190.5"/>
<text text-anchor="middle" x="226" y="-198.5" font-family="FreeSans" font-size="10.00">Urho3D::Technique::Load</text>
</a>
</g>
<!-- Node1&#45;&gt;Node2 -->
<g id="edge2" class="edge"><title>Node1&#45;&gt;Node2</title>
<path fill="none" stroke="midnightblue" d="M123.209,-173.644C132.207,-176.138 141.326,-178.646 150,-181 161.456,-184.108 173.903,-187.414 185.344,-190.424"/>
<polygon fill="midnightblue" stroke="midnightblue" points="124.092,-170.256 113.519,-170.95 122.217,-177.001 124.092,-170.256"/>
</g>
<!-- Node3 -->
<g id="node5" class="node"><title>Node3</title>
<a xlink:href="a00314.html#a63bf86fc02caa281fb5fc8a54356abfb" target="_top" xlink:title="Create materials for text rendering. May only be called from the main thread. Text UI batches must be...">
<polygon fill="none" stroke="black" points="150,-138 150,-172 302,-172 302,-138 150,-138"/>
<text text-anchor="start" x="158" y="-159" font-family="FreeSans" font-size="10.00">Urho3D::Text3D::UpdateText</text>
<text text-anchor="middle" x="226" y="-146" font-family="FreeSans" font-size="10.00">Materials</text>
</a>
</g>
<!-- Node1&#45;&gt;Node3 -->
<g id="edge4" class="edge"><title>Node1&#45;&gt;Node3</title>
<path fill="none" stroke="midnightblue" d="M123.979,-155C132.49,-155 141.249,-155 149.89,-155"/>
<polygon fill="midnightblue" stroke="midnightblue" points="123.745,-151.5 113.745,-155 123.745,-158.5 123.745,-151.5"/>
</g>
<!-- Node10 -->
<g id="node19" class="node"><title>Node10</title>
<a xlink:href="a00124.html#abac4ff84f0e6b3f4d31cc08b780b22bb" target="_top" xlink:title="Create a default material when a material is not specified.">
<polygon fill="none" stroke="black" points="162,-52 162,-86 290,-86 290,-52 162,-52"/>
<text text-anchor="start" x="170" y="-73" font-family="FreeSans" font-size="10.00">Urho3D::Drawable2D</text>
<text text-anchor="middle" x="226" y="-60" font-family="FreeSans" font-size="10.00">::CreateDefaultMaterial</text>
</a>
</g>
<!-- Node1&#45;&gt;Node10 -->
<g id="edge18" class="edge"><title>Node1&#45;&gt;Node10</title>
<path fill="none" stroke="midnightblue" d="M99.8087,-133.216C128.583,-118.573 165.963,-99.5515 192.553,-86.0201"/>
<polygon fill="midnightblue" stroke="midnightblue" points="98.1185,-130.149 90.7935,-137.803 101.293,-136.387 98.1185,-130.149"/>
</g>
<!-- Node4 -->
<g id="node7" class="node"><title>Node4</title>
<a xlink:href="a00314.html#ac253b0e6e1b596d2b65c87739fe40b59" target="_top" xlink:title="Apply attribute changes that can not be applied immediately.">
<polygon fill="none" stroke="black" points="338.5,-224.5 338.5,-245.5 509.5,-245.5 509.5,-224.5 338.5,-224.5"/>
<text text-anchor="middle" x="424" y="-232.5" font-family="FreeSans" font-size="10.00">Urho3D::Text3D::ApplyAttributes</text>
</a>
</g>
<!-- Node3&#45;&gt;Node4 -->
<g id="edge6" class="edge"><title>Node3&#45;&gt;Node4</title>
<path fill="none" stroke="midnightblue" d="M293.722,-176.427C296.568,-177.87 299.34,-179.394 302,-181 320.84,-192.376 318.609,-204.591 338,-215 345.158,-218.843 353.039,-221.951 361.035,-224.465"/>
<polygon fill="midnightblue" stroke="midnightblue" points="294.976,-173.15 284.435,-172.089 292.014,-179.493 294.976,-173.15"/>
</g>
<!-- Node5 -->
<g id="node9" class="node"><title>Node5</title>
<a xlink:href="a00314.html#a94f9f160c95632a4dd1ce1f656eded13" target="_top" xlink:title="Set material.">
<polygon fill="none" stroke="black" points="348,-184.5 348,-205.5 500,-205.5 500,-184.5 348,-184.5"/>
<text text-anchor="middle" x="424" y="-192.5" font-family="FreeSans" font-size="10.00">Urho3D::Text3D::SetMaterial</text>
</a>
</g>
<!-- Node3&#45;&gt;Node5 -->
<g id="edge8" class="edge"><title>Node3&#45;&gt;Node5</title>
<path fill="none" stroke="midnightblue" d="M312.194,-172.413C332.564,-176.528 353.67,-180.792 371.983,-184.491"/>
<polygon fill="midnightblue" stroke="midnightblue" points="312.764,-168.957 302.269,-170.408 311.378,-175.819 312.764,-168.957"/>
</g>
<!-- Node8 -->
<g id="node15" class="node"><title>Node8</title>
<a xlink:href="a00314.html#ad45b2e7b43a4b08e29010206ef65cf40" target="_top" xlink:title="Set font and font size. Return true if successful.">
<polygon fill="none" stroke="black" points="356.5,-144.5 356.5,-165.5 491.5,-165.5 491.5,-144.5 356.5,-144.5"/>
<text text-anchor="middle" x="424" y="-152.5" font-family="FreeSans" font-size="10.00">Urho3D::Text3D::SetFont</text>
</a>
</g>
<!-- Node3&#45;&gt;Node8 -->
<g id="edge14" class="edge"><title>Node3&#45;&gt;Node8</title>
<path fill="none" stroke="midnightblue" d="M312.412,-155C327.175,-155 342.318,-155 356.498,-155"/>
<polygon fill="midnightblue" stroke="midnightblue" points="312.269,-151.5 302.269,-155 312.269,-158.5 312.269,-151.5"/>
</g>
<!-- Node9 -->
<g id="node17" class="node"><title>Node9</title>
<a xlink:href="a00314.html#a539320e56a328d3923e6a50ab86c52c5" target="_top" xlink:title="Set text. Text is assumed to be either ASCII or UTF8&#45;encoded.">
<polygon fill="none" stroke="black" points="357.5,-104.5 357.5,-125.5 490.5,-125.5 490.5,-104.5 357.5,-104.5"/>
<text text-anchor="middle" x="424" y="-112.5" font-family="FreeSans" font-size="10.00">Urho3D::Text3D::SetText</text>
</a>
</g>
<!-- Node3&#45;&gt;Node9 -->
<g id="edge16" class="edge"><title>Node3&#45;&gt;Node9</title>
<path fill="none" stroke="midnightblue" d="M312.194,-137.587C332.564,-133.472 353.67,-129.208 371.983,-125.509"/>
<polygon fill="midnightblue" stroke="midnightblue" points="311.378,-134.181 302.269,-139.592 312.764,-141.043 311.378,-134.181"/>
</g>
<!-- Node6 -->
<g id="node11" class="node"><title>Node6</title>
<a xlink:href="a00314.html#a618274ddd7da2a3b6753eb9f90664191" target="_top" xlink:title="Set material attribute.">
<polygon fill="none" stroke="black" points="546,-184.5 546,-205.5 716,-205.5 716,-184.5 546,-184.5"/>
<text text-anchor="middle" x="631" y="-192.5" font-family="FreeSans" font-size="10.00">Urho3D::Text3D::SetMaterialAttr</text>
</a>
</g>
<!-- Node5&#45;&gt;Node6 -->
<g id="edge10" class="edge"><title>Node5&#45;&gt;Node6</title>
<path fill="none" stroke="midnightblue" d="M510.414,-195C522.146,-195 534.179,-195 545.887,-195"/>
<polygon fill="midnightblue" stroke="midnightblue" points="510.197,-191.5 500.197,-195 510.197,-198.5 510.197,-191.5"/>
</g>
<!-- Node7 -->
<g id="node13" class="node"><title>Node7</title>
<a xlink:href="a00314.html#a8d7300ae719ca749d031f65acdc0a23b" target="_top" xlink:title="Register object factory. Drawable must be registered first.">
<polygon fill="none" stroke="black" points="752,-178 752,-212 888,-212 888,-178 752,-178"/>
<text text-anchor="start" x="760" y="-199" font-family="FreeSans" font-size="10.00">Urho3D::Text3D::Register</text>
<text text-anchor="middle" x="820" y="-186" font-family="FreeSans" font-size="10.00">Object</text>
</a>
</g>
<!-- Node6&#45;&gt;Node7 -->
<g id="edge12" class="edge"><title>Node6&#45;&gt;Node7</title>
<path fill="none" stroke="midnightblue" d="M726.217,-195C734.847,-195 743.468,-195 751.794,-195"/>
<polygon fill="midnightblue" stroke="midnightblue" points="726.101,-191.5 716.101,-195 726.101,-198.5 726.101,-191.5"/>
</g>
<!-- Node11 -->
<g id="node21" class="node"><title>Node11</title>
<a xlink:href="a00124.html#a7205456e5a83f2fd92c8d4c1b3c09060" target="_top" xlink:title="Construct.">
<polygon fill="none" stroke="black" points="365.5,-52 365.5,-86 482.5,-86 482.5,-52 365.5,-52"/>
<text text-anchor="start" x="373.5" y="-73" font-family="FreeSans" font-size="10.00">Urho3D::Drawable2D</text>
<text text-anchor="middle" x="424" y="-60" font-family="FreeSans" font-size="10.00">::Drawable2D</text>
</a>
</g>
<!-- Node10&#45;&gt;Node11 -->
<g id="edge20" class="edge"><title>Node10&#45;&gt;Node11</title>
<path fill="none" stroke="midnightblue" d="M300.09,-69C321.606,-69 344.801,-69 365.239,-69"/>
<polygon fill="midnightblue" stroke="midnightblue" points="300.012,-65.5001 290.011,-69 300.011,-72.5001 300.012,-65.5001"/>
</g>
<!-- Node12 -->
<g id="node23" class="node"><title>Node12</title>
<a xlink:href="a00124.html#a98bb7d51a9534357b88d046ce18b7087" target="_top" xlink:title="Set material.">
<polygon fill="none" stroke="black" points="365.5,-0 365.5,-34 482.5,-34 482.5,-0 365.5,-0"/>
<text text-anchor="start" x="373.5" y="-21" font-family="FreeSans" font-size="10.00">Urho3D::Drawable2D</text>
<text text-anchor="middle" x="424" y="-8" font-family="FreeSans" font-size="10.00">::SetMaterial</text>
</a>
</g>
<!-- Node10&#45;&gt;Node12 -->
<g id="edge22" class="edge"><title>Node10&#45;&gt;Node12</title>
<path fill="none" stroke="midnightblue" d="M299.798,-49.6187C321.396,-43.9464 344.709,-37.8239 365.239,-32.4321"/>
<polygon fill="midnightblue" stroke="midnightblue" points="298.794,-46.2635 290.011,-52.1889 300.573,-53.0339 298.794,-46.2635"/>
</g>
<!-- Node13 -->
<g id="node25" class="node"><title>Node13</title>
<a xlink:href="a00124.html#ad90f854face0569f9ff78a2298fc9d29" target="_top" xlink:title="Set material attribute.">
<polygon fill="none" stroke="black" points="572.5,-0 572.5,-34 689.5,-34 689.5,-0 572.5,-0"/>
<text text-anchor="start" x="580.5" y="-21" font-family="FreeSans" font-size="10.00">Urho3D::Drawable2D</text>
<text text-anchor="middle" x="631" y="-8" font-family="FreeSans" font-size="10.00">::SetMaterialAttr</text>
</a>
</g>
<!-- Node12&#45;&gt;Node13 -->
<g id="edge24" class="edge"><title>Node12&#45;&gt;Node13</title>
<path fill="none" stroke="midnightblue" d="M492.846,-17C518.637,-17 547.674,-17 572.447,-17"/>
<polygon fill="midnightblue" stroke="midnightblue" points="492.764,-13.5001 482.764,-17 492.764,-20.5001 492.764,-13.5001"/>
</g>
<!-- Node14 -->
<g id="node27" class="node"><title>Node14</title>
<a xlink:href="a00124.html#a5998406d2ae3a93eb6c4b43dc5c9d735" target="_top" xlink:title="Register object factory. Drawable must be registered first.">
<polygon fill="none" stroke="black" points="761.5,-0 761.5,-34 878.5,-34 878.5,-0 761.5,-0"/>
<text text-anchor="start" x="769.5" y="-21" font-family="FreeSans" font-size="10.00">Urho3D::Drawable2D</text>
<text text-anchor="middle" x="820" y="-8" font-family="FreeSans" font-size="10.00">::RegisterObject</text>
</a>
</g>
<!-- Node13&#45;&gt;Node14 -->
<g id="edge26" class="edge"><title>Node13&#45;&gt;Node14</title>
<path fill="none" stroke="midnightblue" d="M699.612,-17C719.881,-17 741.872,-17 761.445,-17"/>
<polygon fill="midnightblue" stroke="midnightblue" points="699.506,-13.5001 689.506,-17 699.506,-20.5001 699.506,-13.5001"/>
</g>
</g>
</svg>
        <g id="navigator" transform="translate(0 0)" fill="#404254">
                <rect fill="#f2f5e9" fill-opacity="0.5" stroke="#606060" stroke-width=".5" x="0" y="0" width="60" height="60"/>
                <use id="zoomplus" xlink:href="#zoomPlus" x="17" y="9" onmousedown="handleZoom(evt,'in')"/>
                <use id="zoomminus" xlink:href="#zoomMin" x="42" y="9" onmousedown="handleZoom(evt,'out')"/>
                <use id="reset" xlink:href="#resetDef" x="30" y="36" onmousedown="handleReset()"/>
                <g id="arrowUp" xlink:href="#dirArrow" transform="translate(30 24)" onmousedown="handlePan(0,-1)">
                  <use xlink:href="#rim" fill="#404040">
                        <set attributeName="fill" to="#808080" begin="arrowUp.mouseover" end="arrowUp.mouseout"/>
                  </use>
                  <path fill="none" stroke="white" stroke-width="1.5" d="M0,-3.0v7 M-2.5,-0.5L0,-3.0L2.5,-0.5"/>
                </g>
                <g id="arrowRight" xlink:href="#dirArrow" transform="rotate(90) translate(36 -43)" onmousedown="handlePan(1,0)">
                  <use xlink:href="#rim" fill="#404040">
                        <set attributeName="fill" to="#808080" begin="arrowRight.mouseover" end="arrowRight.mouseout"/>
                  </use>
                  <path fill="none" stroke="white" stroke-width="1.5" d="M0,-3.0v7 M-2.5,-0.5L0,-3.0L2.5,-0.5"/>
                </g>
                <g id="arrowDown" xlink:href="#dirArrow" transform="rotate(180) translate(-30 -48)" onmousedown="handlePan(0,1)">
                  <use xlink:href="#rim" fill="#404040">
                        <set attributeName="fill" to="#808080" begin="arrowDown.mouseover" end="arrowDown.mouseout"/>
                  </use>
                  <path fill="none" stroke="white" stroke-width="1.5" d="M0,-3.0v7 M-2.5,-0.5L0,-3.0L2.5,-0.5"/>
                </g>
                <g id="arrowLeft" xlink:href="#dirArrow" transform="rotate(270) translate(-36 17)" onmousedown="handlePan(-1,0)">
                  <use xlink:href="#rim" fill="#404040">
                        <set attributeName="fill" to="#808080" begin="arrowLeft.mouseover" end="arrowLeft.mouseout"/>
                  </use>
                  <path fill="none" stroke="white" stroke-width="1.5" d="M0,-3.0v7 M-2.5,-0.5L0,-3.0L2.5,-0.5"/>
                </g>
        </g>
        <svg viewBox="0 0 15 15" width="100%" height="30px" preserveAspectRatio="xMaxYMin meet">
         <g id="arrow_out" transform="scale(0.3 0.3)">
          <a xlink:href="a00309_a7efca31910fbbbbad6c0e055cc5e4948_icgraph_org.svg" target="_base">
           <rect id="button" ry="5" rx="5" y="6" x="6" height="38" width="38"
                fill="#f2f5e9" fill-opacity="0.5" stroke="#606060" stroke-width="1.0"/>
           <path id="arrow"
             d="M 11.500037,31.436501 C 11.940474,20.09759 22.043105,11.32322 32.158766,21.979434 L 37.068811,17.246167 C 37.068811,17.246167 37.088388,32 37.088388,32 L 22.160133,31.978069 C 22.160133,31.978069 26.997745,27.140456 26.997745,27.140456 C 18.528582,18.264221 13.291696,25.230495 11.500037,31.436501 z"
             style="fill:#404040;"/>
          </a>
         </g>
        </svg>
</svg>
