<?xml version="1.0" encoding="UTF-8" standalone="no"?>
<!DOCTYPE svg PUBLIC "-//W3C//DTD SVG 1.1//EN"
 "http://www.w3.org/Graphics/SVG/1.1/DTD/svg11.dtd">
<!-- Generated by graphviz version 2.26.3 (20100126.1600)
 -->
<!-- Title: Urho3D::View::RenderQuad Pages: 1 -->
<!--zoomable 508 -->
<svg id="main" version="1.1" xmlns="http://www.w3.org/2000/svg" xmlns:xlink="http://www.w3.org/1999/xlink" xml:space="preserve" onload="init(evt)">
        <defs>
                <circle id="rim" cx="0" cy="0" r="7"/>
                <circle id="rim2" cx="0" cy="0" r="3.5"/>
                <g id="zoomPlus">
                        <use xlink:href="#rim" fill="#404040">
                                <set attributeName="fill" to="#808080" begin="zoomplus.mouseover" end="zoomplus.mouseout"/>
                        </use>
                        <path d="M-4,0h8M0,-4v8" fill="none" stroke="white" stroke-width="1.5" pointer-events="none"/>
                </g>
                <g id="zoomMin">
                        <use xlink:href="#rim" fill="#404040">
                                <set attributeName="fill" to="#808080" begin="zoomminus.mouseover" end="zoomminus.mouseout"/>
                        </use>
                        <path d="M-4,0h8" fill="none" stroke="white" stroke-width="1.5" pointer-events="none"/>
                </g>
                <g id="dirArrow">
                        <path fill="none" stroke="white" stroke-width="1.5" d="M0,-3.0v7 M-2.5,-0.5L0,-3.0L2.5,-0.5"/>
                </g>
               <g id="resetDef">
                       <use xlink:href="#rim2" fill="#404040">
                               <set attributeName="fill" to="#808080" begin="reset.mouseover" end="reset.mouseout"/>
                       </use>
               </g>
        </defs>

<script type="text/javascript">
var viewWidth = 998;
var viewHeight = 508;
var sectionId = 'dynsection-2';
</script>
<script xlink:href="svgpan.js"/>
<svg id="graph" class="graph">
<g id="viewport">
<title>Urho3D::View::RenderQuad</title>
<!-- Node1 -->
<g id="node1" class="node"><title>Node1</title>
<polygon fill="#bfbfbf" stroke="black" points="0.5,-337.5 0.5,-358.5 145.5,-358.5 145.5,-337.5 0.5,-337.5"/>
<text text-anchor="middle" x="73" y="-345.5" font-family="FreeSans" font-size="10.00">Urho3D::View::RenderQuad</text>
</g>
<!-- Node2 -->
<g id="node3" class="node"><title>Node2</title>
<a xlink:href="a00330.html#a69ac7aadaa628fc05fc96abde992fcdc" target="_top" xlink:title="Return whether the string is empty.">
<polygon fill="none" stroke="black" points="211.5,-440.5 211.5,-461.5 336.5,-461.5 336.5,-440.5 211.5,-440.5"/>
<text text-anchor="middle" x="274" y="-448.5" font-family="FreeSans" font-size="10.00">Urho3D::String::Empty</text>
</a>
</g>
<!-- Node1&#45;&gt;Node2 -->
<g id="edge2" class="edge"><title>Node1&#45;&gt;Node2</title>
<path fill="none" stroke="midnightblue" d="M83.6856,-358.776C102.07,-376.664 141.616,-412.36 182,-431 188.182,-433.853 194.788,-436.308 201.517,-438.417"/>
<polygon fill="midnightblue" stroke="midnightblue" points="200.849,-441.867 211.427,-441.268 202.784,-435.14 200.849,-441.867"/>
</g>
<!-- Node3 -->
<g id="node5" class="node"><title>Node3</title>
<a xlink:href="a00169.html#a620be7ef6fc8e2958ef4f09523fd5c72" target="_top" xlink:title="Return iterator to the beginning.">
<polygon fill="none" stroke="black" points="205.5,-400.5 205.5,-421.5 342.5,-421.5 342.5,-400.5 205.5,-400.5"/>
<text text-anchor="middle" x="274" y="-408.5" font-family="FreeSans" font-size="10.00">Urho3D::HashMap::Begin</text>
</a>
</g>
<!-- Node1&#45;&gt;Node3 -->
<g id="edge4" class="edge"><title>Node1&#45;&gt;Node3</title>
<path fill="none" stroke="midnightblue" d="M96.4232,-358.519C118.235,-368.005 151.83,-381.835 182,-391 190.614,-393.617 199.78,-396.033 208.862,-398.214"/>
<polygon fill="midnightblue" stroke="midnightblue" points="208.121,-401.635 218.653,-400.487 209.704,-394.817 208.121,-401.635"/>
</g>
<!-- Node4 -->
<g id="node7" class="node"><title>Node4</title>
<a xlink:href="a00169.html#a47eb201d8441d4e4be8626e615cb562d" target="_top" xlink:title="Return iterator to the end.">
<polygon fill="none" stroke="black" points="210,-360.5 210,-381.5 338,-381.5 338,-360.5 210,-360.5"/>
<text text-anchor="middle" x="274" y="-368.5" font-family="FreeSans" font-size="10.00">Urho3D::HashMap::End</text>
</a>
</g>
<!-- Node1&#45;&gt;Node4 -->
<g id="edge6" class="edge"><title>Node1&#45;&gt;Node4</title>
<path fill="none" stroke="midnightblue" d="M145.566,-356.304C163.144,-358.315 181.96,-360.468 199.621,-362.489"/>
<polygon fill="midnightblue" stroke="midnightblue" points="199.534,-366.002 209.867,-363.661 200.33,-359.047 199.534,-366.002"/>
</g>
<!-- Node5 -->
<g id="node9" class="node"><title>Node5</title>
<a xlink:href="a00365.html#ab5121071c672db6986aa3fba4e116be0" target="_top" xlink:title="Set global (per&#45;frame) shader parameters. Called by Batch and internally by View.">
<polygon fill="none" stroke="black" points="190.5,-308 190.5,-342 357.5,-342 357.5,-308 190.5,-308"/>
<text text-anchor="start" x="198.5" y="-329" font-family="FreeSans" font-size="10.00">Urho3D::View::SetGlobalShader</text>
<text text-anchor="middle" x="274" y="-316" font-family="FreeSans" font-size="10.00">Parameters</text>
</a>
</g>
<!-- Node1&#45;&gt;Node5 -->
<g id="edge8" class="edge"><title>Node1&#45;&gt;Node5</title>
<path fill="none" stroke="midnightblue" d="M145.566,-339.696C156.785,-338.413 168.509,-337.071 180.115,-335.743"/>
<polygon fill="midnightblue" stroke="midnightblue" points="180.731,-339.196 190.268,-334.581 179.935,-332.241 180.731,-339.196"/>
</g>
<!-- Node7 -->
<g id="node13" class="node"><title>Node7</title>
<a xlink:href="a00365.html#a67a7530de1420cd59ebeea52cff0bce3" target="_top" xlink:title="Set camera&#45;specific shader parameters. Called by Batch and internally by View.">
<polygon fill="none" stroke="black" points="186,-256 186,-290 362,-290 362,-256 186,-256"/>
<text text-anchor="start" x="194" y="-277" font-family="FreeSans" font-size="10.00">Urho3D::View::SetCameraShader</text>
<text text-anchor="middle" x="274" y="-264" font-family="FreeSans" font-size="10.00">Parameters</text>
</a>
</g>
<!-- Node1&#45;&gt;Node7 -->
<g id="edge12" class="edge"><title>Node1&#45;&gt;Node7</title>
<path fill="none" stroke="midnightblue" d="M93.9223,-337.483C115.59,-326.857 150.609,-310.421 182,-299 187.496,-297 193.221,-295.059 199.01,-293.197"/>
<polygon fill="midnightblue" stroke="midnightblue" points="200.28,-296.467 208.78,-290.143 198.191,-289.786 200.28,-296.467"/>
</g>
<!-- Node21 -->
<g id="node43" class="node"><title>Node21</title>
<a xlink:href="a00365.html#a8a0d2b6f29de3fc69357f6c41cad194c" target="_top" xlink:title="Draw a fullscreen quad. Shaders and renderstates must have been set beforehand.">
<polygon fill="none" stroke="black" points="182.5,-137.5 182.5,-158.5 365.5,-158.5 365.5,-137.5 182.5,-137.5"/>
<text text-anchor="middle" x="274" y="-145.5" font-family="FreeSans" font-size="10.00">Urho3D::View::DrawFullscreenQuad</text>
</a>
</g>
<!-- Node1&#45;&gt;Node21 -->
<g id="edge44" class="edge"><title>Node1&#45;&gt;Node21</title>
<path fill="none" stroke="midnightblue" d="M83.8066,-337.247C116.594,-304.623 215.183,-206.525 256.001,-165.91"/>
<polygon fill="midnightblue" stroke="midnightblue" points="258.52,-168.341 263.14,-158.806 253.583,-163.378 258.52,-168.341"/>
</g>
<!-- Node6 -->
<g id="node11" class="node"><title>Node6</title>
<a xlink:href="a00286.html#a0a930c7558efff91e463ba12641ec095" target="_top" xlink:title="Return elapsed time in seconds.">
<polygon fill="none" stroke="black" points="405.5,-478.5 405.5,-499.5 578.5,-499.5 578.5,-478.5 405.5,-478.5"/>
<text text-anchor="middle" x="492" y="-486.5" font-family="FreeSans" font-size="10.00">Urho3D::Scene::GetElapsedTime</text>
</a>
</g>
<!-- Node5&#45;&gt;Node6 -->
<g id="edge10" class="edge"><title>Node5&#45;&gt;Node6</title>
<path fill="none" stroke="midnightblue" d="M354.615,-342.13C358.721,-344.693 362.561,-347.632 366,-351 405.17,-389.368 361.757,-431.759 402,-469 403.498,-470.386 405.07,-471.684 406.705,-472.898"/>
<polygon fill="midnightblue" stroke="midnightblue" points="405.017,-475.971 415.352,-478.304 408.727,-470.035 405.017,-475.971"/>
</g>
<!-- Node8 -->
<g id="node15" class="node"><title>Node8</title>
<a xlink:href="a00084.html#aea08392686708a220a06f4b32a64d610" target="_top" xlink:title="Get effective world transform for matrix and frustum calculations including reflection but excluding ...">
<polygon fill="none" stroke="black" points="618.5,-353 618.5,-387 779.5,-387 779.5,-353 618.5,-353"/>
<text text-anchor="start" x="626.5" y="-374" font-family="FreeSans" font-size="10.00">Urho3D::Camera::GetEffective</text>
<text text-anchor="middle" x="699" y="-361" font-family="FreeSans" font-size="10.00">WorldTransform</text>
</a>
</g>
<!-- Node7&#45;&gt;Node8 -->
<g id="edge14" class="edge"><title>Node7&#45;&gt;Node8</title>
<path fill="none" stroke="midnightblue" d="M350.743,-290.125C356.119,-292.683 361.273,-295.623 366,-299 388.872,-315.34 377.531,-337.166 402,-351 464.31,-386.229 546.159,-388.893 608.151,-383.921"/>
<polygon fill="midnightblue" stroke="midnightblue" points="608.66,-387.389 618.313,-383.024 608.044,-380.417 608.66,-387.389"/>
</g>
<!-- Node11 -->
<g id="node21" class="node"><title>Node11</title>
<a xlink:href="a00208.html#ab1ebfaa60931f81617c1210152cf3aac" target="_top" xlink:title="Return the translation part.">
<polygon fill="none" stroke="black" points="436,-308 436,-342 548,-342 548,-308 436,-308"/>
<text text-anchor="start" x="444" y="-329" font-family="FreeSans" font-size="10.00">Urho3D::Matrix3x4::</text>
<text text-anchor="middle" x="492" y="-316" font-family="FreeSans" font-size="10.00">Translation</text>
</a>
</g>
<!-- Node7&#45;&gt;Node11 -->
<g id="edge20" class="edge"><title>Node7&#45;&gt;Node11</title>
<path fill="none" stroke="midnightblue" d="M345.381,-290.027C371.253,-296.198 400.347,-303.138 425.757,-309.199"/>
<polygon fill="midnightblue" stroke="midnightblue" points="425.126,-312.646 435.665,-311.562 426.75,-305.837 425.126,-312.646"/>
</g>
<!-- Node12 -->
<g id="node23" class="node"><title>Node12</title>
<a xlink:href="a00208.html#a90989b1a0f90dbdab1897603fedad3b0" target="_top" xlink:title="Return the rotation matrix with scaling removed.">
<polygon fill="none" stroke="black" points="436,-256 436,-290 548,-290 548,-256 436,-256"/>
<text text-anchor="start" x="444" y="-277" font-family="FreeSans" font-size="10.00">Urho3D::Matrix3x4::</text>
<text text-anchor="middle" x="492" y="-264" font-family="FreeSans" font-size="10.00">RotationMatrix</text>
</a>
</g>
<!-- Node7&#45;&gt;Node12 -->
<g id="edge22" class="edge"><title>Node7&#45;&gt;Node12</title>
<path fill="none" stroke="midnightblue" d="M362.041,-273C383.273,-273 405.609,-273 425.658,-273"/>
<polygon fill="midnightblue" stroke="midnightblue" points="425.916,-276.5 435.916,-273 425.916,-269.5 425.916,-276.5"/>
</g>
<!-- Node14 -->
<g id="node27" class="node"><title>Node14</title>
<a xlink:href="a00084.html#acc01c6201d2489565fa9e9b4966e23ad" target="_top" xlink:title="Return near clip distance.">
<polygon fill="none" stroke="black" points="618.5,-181.5 618.5,-202.5 779.5,-202.5 779.5,-181.5 618.5,-181.5"/>
<text text-anchor="middle" x="699" y="-189.5" font-family="FreeSans" font-size="10.00">Urho3D::Camera::GetNearClip</text>
</a>
</g>
<!-- Node7&#45;&gt;Node14 -->
<g id="edge26" class="edge"><title>Node7&#45;&gt;Node14</title>
<path fill="none" stroke="midnightblue" d="M356.928,-255.938C371.921,-252.915 387.419,-249.831 402,-247 480.226,-231.813 570.231,-215.277 630.469,-204.344"/>
<polygon fill="midnightblue" stroke="midnightblue" points="631.401,-207.732 640.616,-202.504 630.152,-200.844 631.401,-207.732"/>
</g>
<!-- Node15 -->
<g id="node29" class="node"><title>Node15</title>
<a xlink:href="a00084.html#a2ce91bcd0b92b35b95ae8fe81950dab3" target="_top" xlink:title="Return far clip distance.">
<polygon fill="none" stroke="black" points="416,-178.5 416,-199.5 568,-199.5 568,-178.5 416,-178.5"/>
<text text-anchor="middle" x="492" y="-186.5" font-family="FreeSans" font-size="10.00">Urho3D::Camera::GetFarClip</text>
</a>
</g>
<!-- Node7&#45;&gt;Node15 -->
<g id="edge28" class="edge"><title>Node7&#45;&gt;Node15</title>
<path fill="none" stroke="midnightblue" d="M307.066,-255.967C332.553,-243.281 368.918,-226.13 402,-214 413.774,-209.683 426.646,-205.693 438.88,-202.227"/>
<polygon fill="midnightblue" stroke="midnightblue" points="439.814,-205.6 448.52,-199.562 437.949,-198.853 439.814,-205.6"/>
</g>
<!-- Node16 -->
<g id="node31" class="node"><title>Node16</title>
<a xlink:href="a00084.html#a0dd3b8b6da4b74d1f828619f8610ed1f" target="_top" xlink:title="Return orthographic flag.">
<polygon fill="none" stroke="black" points="405.5,-138.5 405.5,-159.5 578.5,-159.5 578.5,-138.5 405.5,-138.5"/>
<text text-anchor="middle" x="492" y="-146.5" font-family="FreeSans" font-size="10.00">Urho3D::Camera::IsOrthographic</text>
</a>
</g>
<!-- Node7&#45;&gt;Node16 -->
<g id="edge30" class="edge"><title>Node7&#45;&gt;Node16</title>
<path fill="none" stroke="midnightblue" d="M290.011,-255.705C312.652,-232.336 356.376,-191.066 402,-169 406.953,-166.604 412.199,-164.491 417.569,-162.629"/>
<polygon fill="midnightblue" stroke="midnightblue" points="418.856,-165.892 427.334,-159.538 416.744,-159.219 418.856,-165.892"/>
</g>
<!-- Node17 -->
<g id="node33" class="node"><title>Node17</title>
<a xlink:href="a00084.html#a7112f5b622eb75c70c5a44a4a6dc4d47" target="_top" xlink:title="Return frustum near and far sizes.">
<polygon fill="none" stroke="black" points="402,-98.5 402,-119.5 582,-119.5 582,-98.5 402,-98.5"/>
<text text-anchor="middle" x="492" y="-106.5" font-family="FreeSans" font-size="10.00">Urho3D::Camera::GetFrustumSize</text>
</a>
</g>
<!-- Node7&#45;&gt;Node17 -->
<g id="edge32" class="edge"><title>Node7&#45;&gt;Node17</title>
<path fill="none" stroke="midnightblue" d="M288.93,-255.93C321.917,-218.252 398.386,-131.124 402,-129 405.648,-126.856 409.502,-124.941 413.482,-123.231"/>
<polygon fill="midnightblue" stroke="midnightblue" points="414.869,-126.448 422.955,-119.602 412.365,-119.911 414.869,-126.448"/>
</g>
<!-- Node18 -->
<g id="node36" class="node"><title>Node18</title>
<a xlink:href="a00084.html#a2ec28df0c7d7d50f17eb6af6d41ccfad" target="_top" xlink:title="Return API&#45;specific projection matrix.">
<polygon fill="none" stroke="black" points="408,-438.5 408,-459.5 576,-459.5 576,-438.5 408,-438.5"/>
<text text-anchor="middle" x="492" y="-446.5" font-family="FreeSans" font-size="10.00">Urho3D::Camera::GetProjection</text>
</a>
</g>
<!-- Node7&#45;&gt;Node18 -->
<g id="edge36" class="edge"><title>Node7&#45;&gt;Node18</title>
<path fill="none" stroke="midnightblue" d="M354.719,-290.025C358.799,-292.614 362.605,-295.587 366,-299 408.281,-341.504 358.53,-387.713 402,-429 403.48,-430.405 405.035,-431.72 406.655,-432.951"/>
<polygon fill="midnightblue" stroke="midnightblue" points="404.928,-436 415.243,-438.42 408.689,-430.096 404.928,-436"/>
</g>
<!-- Node19 -->
<g id="node38" class="node"><title>Node19</title>
<a xlink:href="a00084.html#ac362ac9c057c3546e19cedaf23185438" target="_top" xlink:title="Return view matrix.">
<polygon fill="none" stroke="black" points="420.5,-398.5 420.5,-419.5 563.5,-419.5 563.5,-398.5 420.5,-398.5"/>
<text text-anchor="middle" x="492" y="-406.5" font-family="FreeSans" font-size="10.00">Urho3D::Camera::GetView</text>
</a>
</g>
<!-- Node7&#45;&gt;Node19 -->
<g id="edge38" class="edge"><title>Node7&#45;&gt;Node19</title>
<path fill="none" stroke="midnightblue" d="M353.337,-290.061C357.868,-292.636 362.141,-295.596 366,-299 396.768,-326.138 371.171,-356.931 402,-384 406.528,-387.976 411.637,-391.324 417.064,-394.143"/>
<polygon fill="midnightblue" stroke="midnightblue" points="415.897,-397.457 426.45,-398.406 418.792,-391.084 415.897,-397.457"/>
</g>
<!-- Node9 -->
<g id="node17" class="node"><title>Node9</title>
<a xlink:href="a00226.html#a92372a305fa427e9ce58df7f37a684ba" target="_top" xlink:title="Return position in world space.">
<polygon fill="none" stroke="black" points="817.5,-379.5 817.5,-400.5 988.5,-400.5 988.5,-379.5 817.5,-379.5"/>
<text text-anchor="middle" x="903" y="-387.5" font-family="FreeSans" font-size="10.00">Urho3D::Node::GetWorldPosition</text>
</a>
</g>
<!-- Node8&#45;&gt;Node9 -->
<g id="edge16" class="edge"><title>Node8&#45;&gt;Node9</title>
<path fill="none" stroke="midnightblue" d="M779.626,-377.905C788.705,-378.795 798.02,-379.708 807.266,-380.614"/>
<polygon fill="midnightblue" stroke="midnightblue" points="806.963,-384.101 817.257,-381.594 807.646,-377.135 806.963,-384.101"/>
</g>
<!-- Node10 -->
<g id="node19" class="node"><title>Node10</title>
<a xlink:href="a00226.html#aa0f97335ff8b25e10e0a89ee9a87a253" target="_top" xlink:title="Return rotation in world space.">
<polygon fill="none" stroke="black" points="816.5,-339.5 816.5,-360.5 989.5,-360.5 989.5,-339.5 816.5,-339.5"/>
<text text-anchor="middle" x="903" y="-347.5" font-family="FreeSans" font-size="10.00">Urho3D::Node::GetWorldRotation</text>
</a>
</g>
<!-- Node8&#45;&gt;Node10 -->
<g id="edge18" class="edge"><title>Node8&#45;&gt;Node10</title>
<path fill="none" stroke="midnightblue" d="M779.626,-362.095C788.365,-361.239 797.324,-360.36 806.228,-359.487"/>
<polygon fill="midnightblue" stroke="midnightblue" points="806.635,-362.964 816.245,-358.505 805.951,-355.998 806.635,-362.964"/>
</g>
<!-- Node13 -->
<g id="node25" class="node"><title>Node13</title>
<a xlink:href="a00207.html#ac95674b85fd23173b0fbf0a329fed542" target="_top" xlink:title="Return scaled by a vector.">
<polygon fill="none" stroke="black" points="632.5,-262.5 632.5,-283.5 765.5,-283.5 765.5,-262.5 632.5,-262.5"/>
<text text-anchor="middle" x="699" y="-270.5" font-family="FreeSans" font-size="10.00">Urho3D::Matrix3::Scaled</text>
</a>
</g>
<!-- Node12&#45;&gt;Node13 -->
<g id="edge24" class="edge"><title>Node12&#45;&gt;Node13</title>
<path fill="none" stroke="midnightblue" d="M548.017,-273C570.853,-273 597.627,-273 622.235,-273"/>
<polygon fill="midnightblue" stroke="midnightblue" points="622.267,-276.5 632.267,-273 622.267,-269.5 622.267,-276.5"/>
</g>
<!-- Node17&#45;&gt;Node14 -->
<g id="edge34" class="edge"><title>Node17&#45;&gt;Node14</title>
<path fill="none" stroke="midnightblue" d="M550.777,-119.608C561.322,-122.201 572.099,-125.315 582,-129 615.255,-141.377 650.784,-161.623 673.851,-175.815"/>
<polygon fill="midnightblue" stroke="midnightblue" points="672.3,-178.973 682.637,-181.299 676.007,-173.035 672.3,-178.973"/>
</g>
<!-- Node19&#45;&gt;Node8 -->
<g id="edge40" class="edge"><title>Node19&#45;&gt;Node8</title>
<path fill="none" stroke="midnightblue" d="M547.745,-398.497C566.371,-394.988 587.64,-390.981 608.227,-387.102"/>
<polygon fill="midnightblue" stroke="midnightblue" points="609.085,-390.502 618.264,-385.211 607.789,-383.623 609.085,-390.502"/>
</g>
<!-- Node20 -->
<g id="node41" class="node"><title>Node20</title>
<a xlink:href="a00208.html#adbf4f5c122e4dbee49ab99550cc70315" target="_top" xlink:title="Return inverse.">
<polygon fill="none" stroke="black" points="643,-405 643,-439 755,-439 755,-405 643,-405"/>
<text text-anchor="start" x="651" y="-426" font-family="FreeSans" font-size="10.00">Urho3D::Matrix3x4::</text>
<text text-anchor="middle" x="699" y="-413" font-family="FreeSans" font-size="10.00">Inverse</text>
</a>
</g>
<!-- Node19&#45;&gt;Node20 -->
<g id="edge42" class="edge"><title>Node19&#45;&gt;Node20</title>
<path fill="none" stroke="midnightblue" d="M563.528,-413.492C585.924,-414.899 610.534,-416.444 632.564,-417.828"/>
<polygon fill="midnightblue" stroke="midnightblue" points="632.618,-421.338 642.818,-418.472 633.057,-414.352 632.618,-421.338"/>
</g>
<!-- Node22 -->
<g id="node45" class="node"><title>Node22</title>
<a xlink:href="a00162.html#a4a7263e950743d3a59f18469766bfe19" target="_top" xlink:title="Draw.">
<polygon fill="none" stroke="black" points="423.5,-58.5 423.5,-79.5 560.5,-79.5 560.5,-58.5 423.5,-58.5"/>
<text text-anchor="middle" x="492" y="-66.5" font-family="FreeSans" font-size="10.00">Urho3D::Geometry::Draw</text>
</a>
</g>
<!-- Node21&#45;&gt;Node22 -->
<g id="edge46" class="edge"><title>Node21&#45;&gt;Node22</title>
<path fill="none" stroke="midnightblue" d="M293.419,-137.456C318.047,-124.46 362.12,-102.45 402,-89 409.656,-86.418 417.791,-84.0766 425.92,-81.9814"/>
<polygon fill="midnightblue" stroke="midnightblue" points="426.926,-85.3382 435.799,-79.5481 425.252,-78.5413 426.926,-85.3382"/>
</g>
<!-- Node23 -->
<g id="node47" class="node"><title>Node23</title>
<a xlink:href="a00165.html#a4da194cd8c29eadca368f12b380f0fda" target="_top" xlink:title="Set index buffer.">
<polygon fill="none" stroke="red" points="624.5,-52 624.5,-86 773.5,-86 773.5,-52 624.5,-52"/>
<text text-anchor="start" x="632.5" y="-73" font-family="FreeSans" font-size="10.00">Urho3D::Graphics::SetIndex</text>
<text text-anchor="middle" x="699" y="-60" font-family="FreeSans" font-size="10.00">Buffer</text>
</a>
</g>
<!-- Node22&#45;&gt;Node23 -->
<g id="edge48" class="edge"><title>Node22&#45;&gt;Node23</title>
<path fill="none" stroke="midnightblue" d="M560.64,-69C577.758,-69 596.317,-69 614.116,-69"/>
<polygon fill="midnightblue" stroke="midnightblue" points="614.491,-72.5001 624.491,-69 614.491,-65.5001 614.491,-72.5001"/>
</g>
<!-- Node24 -->
<g id="node49" class="node"><title>Node24</title>
<a xlink:href="a00165.html#ac4b784736878024a6710c5e9a3f74c36" target="_top" xlink:title="Set multiple vertex buffers.">
<polygon fill="none" stroke="red" points="621.5,-0 621.5,-34 776.5,-34 776.5,-0 621.5,-0"/>
<text text-anchor="start" x="629.5" y="-21" font-family="FreeSans" font-size="10.00">Urho3D::Graphics::SetVertex</text>
<text text-anchor="middle" x="699" y="-8" font-family="FreeSans" font-size="10.00">Buffers</text>
</a>
</g>
<!-- Node22&#45;&gt;Node24 -->
<g id="edge50" class="edge"><title>Node22&#45;&gt;Node24</title>
<path fill="none" stroke="midnightblue" d="M533.89,-58.477C558.938,-52.1846 591.557,-43.9906 621.179,-36.5492"/>
<polygon fill="midnightblue" stroke="midnightblue" points="622.249,-39.8892 631.095,-34.0582 620.544,-33.1002 622.249,-39.8892"/>
</g>
<!-- Node25 -->
<g id="node51" class="node"><title>Node25</title>
<a xlink:href="a00165.html#a53af62ede0ca685ae4ad4e65898379a0" target="_top" xlink:title="Draw non&#45;indexed geometry.">
<polygon fill="none" stroke="red" points="633.5,-104.5 633.5,-125.5 764.5,-125.5 764.5,-104.5 633.5,-104.5"/>
<text text-anchor="middle" x="699" y="-112.5" font-family="FreeSans" font-size="10.00">Urho3D::Graphics::Draw</text>
</a>
</g>
<!-- Node22&#45;&gt;Node25 -->
<g id="edge52" class="edge"><title>Node22&#45;&gt;Node25</title>
<path fill="none" stroke="midnightblue" d="M539.49,-79.5533C569.863,-86.3029 609.445,-95.0989 641.58,-102.24"/>
<polygon fill="midnightblue" stroke="midnightblue" points="641.21,-105.743 651.731,-104.496 642.728,-98.9097 641.21,-105.743"/>
</g>
</g>
</svg>
        <g id="navigator" transform="translate(0 0)" fill="#404254">
                <rect fill="#f2f5e9" fill-opacity="0.5" stroke="#606060" stroke-width=".5" x="0" y="0" width="60" height="60"/>
                <use id="zoomplus" xlink:href="#zoomPlus" x="17" y="9" onmousedown="handleZoom(evt,'in')"/>
                <use id="zoomminus" xlink:href="#zoomMin" x="42" y="9" onmousedown="handleZoom(evt,'out')"/>
                <use id="reset" xlink:href="#resetDef" x="30" y="36" onmousedown="handleReset()"/>
                <g id="arrowUp" xlink:href="#dirArrow" transform="translate(30 24)" onmousedown="handlePan(0,-1)">
                  <use xlink:href="#rim" fill="#404040">
                        <set attributeName="fill" to="#808080" begin="arrowUp.mouseover" end="arrowUp.mouseout"/>
                  </use>
                  <path fill="none" stroke="white" stroke-width="1.5" d="M0,-3.0v7 M-2.5,-0.5L0,-3.0L2.5,-0.5"/>
                </g>
                <g id="arrowRight" xlink:href="#dirArrow" transform="rotate(90) translate(36 -43)" onmousedown="handlePan(1,0)">
                  <use xlink:href="#rim" fill="#404040">
                        <set attributeName="fill" to="#808080" begin="arrowRight.mouseover" end="arrowRight.mouseout"/>
                  </use>
                  <path fill="none" stroke="white" stroke-width="1.5" d="M0,-3.0v7 M-2.5,-0.5L0,-3.0L2.5,-0.5"/>
                </g>
                <g id="arrowDown" xlink:href="#dirArrow" transform="rotate(180) translate(-30 -48)" onmousedown="handlePan(0,1)">
                  <use xlink:href="#rim" fill="#404040">
                        <set attributeName="fill" to="#808080" begin="arrowDown.mouseover" end="arrowDown.mouseout"/>
                  </use>
                  <path fill="none" stroke="white" stroke-width="1.5" d="M0,-3.0v7 M-2.5,-0.5L0,-3.0L2.5,-0.5"/>
                </g>
                <g id="arrowLeft" xlink:href="#dirArrow" transform="rotate(270) translate(-36 17)" onmousedown="handlePan(-1,0)">
                  <use xlink:href="#rim" fill="#404040">
                        <set attributeName="fill" to="#808080" begin="arrowLeft.mouseover" end="arrowLeft.mouseout"/>
                  </use>
                  <path fill="none" stroke="white" stroke-width="1.5" d="M0,-3.0v7 M-2.5,-0.5L0,-3.0L2.5,-0.5"/>
                </g>
        </g>
        <svg viewBox="0 0 15 15" width="100%" height="30px" preserveAspectRatio="xMaxYMin meet">
         <g id="arrow_out" transform="scale(0.3 0.3)">
          <a xlink:href="a00365_a798fe80282652472bd0fb2c0694bbfb8_cgraph_org.svg" target="_base">
           <rect id="button" ry="5" rx="5" y="6" x="6" height="38" width="38"
                fill="#f2f5e9" fill-opacity="0.5" stroke="#606060" stroke-width="1.0"/>
           <path id="arrow"
             d="M 11.500037,31.436501 C 11.940474,20.09759 22.043105,11.32322 32.158766,21.979434 L 37.068811,17.246167 C 37.068811,17.246167 37.088388,32 37.088388,32 L 22.160133,31.978069 C 22.160133,31.978069 26.997745,27.140456 26.997745,27.140456 C 18.528582,18.264221 13.291696,25.230495 11.500037,31.436501 z"
             style="fill:#404040;"/>
          </a>
         </g>
        </svg>
</svg>
