<?xml version="1.0" encoding="UTF-8" standalone="no"?>
<!DOCTYPE svg PUBLIC "-//W3C//DTD SVG 1.1//EN"
 "http://www.w3.org/Graphics/SVG/1.1/DTD/svg11.dtd">
<!-- Generated by graphviz version 2.26.3 (20100126.1600)
 -->
<!-- Title: Urho3D::Technique::CreatePass Pages: 1 -->
<svg width="896pt" height="202pt"
 viewBox="0.00 0.00 896.00 202.00" xmlns="http://www.w3.org/2000/svg" xmlns:xlink="http://www.w3.org/1999/xlink">
<g id="graph1" class="graph" transform="scale(1 1) rotate(0) translate(4 198)">
<title>Urho3D::Technique::CreatePass</title>
<!-- Node1 -->
<g id="node1" class="node"><title>Node1</title>
<polygon fill="#bfbfbf" stroke="black" points="0.5,-86 0.5,-120 113.5,-120 113.5,-86 0.5,-86"/>
<text text-anchor="start" x="8.5" y="-107" font-family="FreeSans" font-size="10.00">Urho3D::Technique::</text>
<text text-anchor="middle" x="57" y="-94" font-family="FreeSans" font-size="10.00">CreatePass</text>
</g>
<!-- Node2 -->
<g id="node3" class="node"><title>Node2</title>
<a xlink:href="a00356.html#a88a59d6c02e7e42628cf9a6ec79209f5" target="_top" xlink:title="Load resource from stream. May be called from a worker thread. Return true if successful.">
<polygon fill="none" stroke="black" points="169.5,-138 169.5,-172 282.5,-172 282.5,-138 169.5,-138"/>
<text text-anchor="start" x="177.5" y="-159" font-family="FreeSans" font-size="10.00">Urho3D::Technique::</text>
<text text-anchor="middle" x="226" y="-146" font-family="FreeSans" font-size="10.00">BeginLoad</text>
</a>
</g>
<!-- Node1&#45;&gt;Node2 -->
<g id="edge2" class="edge"><title>Node1&#45;&gt;Node2</title>
<path fill="none" stroke="midnightblue" d="M122.136,-123.042C138.113,-127.958 155.065,-133.174 170.539,-137.935"/>
<polygon fill="midnightblue" stroke="midnightblue" points="122.924,-119.622 112.337,-120.027 120.865,-126.313 122.924,-119.622"/>
</g>
<!-- Node3 -->
<g id="node5" class="node"><title>Node3</title>
<a xlink:href="a00361.html#a63bf86fc02caa281fb5fc8a54356abfb" target="_top" xlink:title="Create materials for text rendering. May only be called from the main thread. Text UI batches must be...">
<polygon fill="none" stroke="black" points="150,-86 150,-120 302,-120 302,-86 150,-86"/>
<text text-anchor="start" x="158" y="-107" font-family="FreeSans" font-size="10.00">Urho3D::Text3D::UpdateText</text>
<text text-anchor="middle" x="226" y="-94" font-family="FreeSans" font-size="10.00">Materials</text>
</a>
</g>
<!-- Node1&#45;&gt;Node3 -->
<g id="edge4" class="edge"><title>Node1&#45;&gt;Node3</title>
<path fill="none" stroke="midnightblue" d="M123.979,-103C132.49,-103 141.249,-103 149.89,-103"/>
<polygon fill="midnightblue" stroke="midnightblue" points="123.745,-99.5001 113.745,-103 123.745,-106.5 123.745,-99.5001"/>
</g>
<!-- Node10 -->
<g id="node19" class="node"><title>Node10</title>
<a xlink:href="a00224.html#a05d5540dc2319da0348bc84cfed7c810" target="_top" xlink:title="Create material by texture and blend mode.">
<polygon fill="none" stroke="black" points="155.5,-17 155.5,-51 296.5,-51 296.5,-17 155.5,-17"/>
<text text-anchor="start" x="163.5" y="-38" font-family="FreeSans" font-size="10.00">Urho3D::MaterialCache2D</text>
<text text-anchor="middle" x="226" y="-25" font-family="FreeSans" font-size="10.00">::CreateMaterial</text>
</a>
</g>
<!-- Node1&#45;&gt;Node10 -->
<g id="edge18" class="edge"><title>Node1&#45;&gt;Node10</title>
<path fill="none" stroke="midnightblue" d="M108.194,-82.0982C132.486,-72.1804 161.149,-60.4777 184.12,-51.0991"/>
<polygon fill="midnightblue" stroke="midnightblue" points="106.71,-78.9235 98.7753,-85.9438 109.356,-85.4042 106.71,-78.9235"/>
</g>
<!-- Node4 -->
<g id="node7" class="node"><title>Node4</title>
<a xlink:href="a00361.html#ac253b0e6e1b596d2b65c87739fe40b59" target="_top" xlink:title="Apply attribute changes that can not be applied immediately.">
<polygon fill="none" stroke="black" points="338.5,-172.5 338.5,-193.5 509.5,-193.5 509.5,-172.5 338.5,-172.5"/>
<text text-anchor="middle" x="424" y="-180.5" font-family="FreeSans" font-size="10.00">Urho3D::Text3D::ApplyAttributes</text>
</a>
</g>
<!-- Node3&#45;&gt;Node4 -->
<g id="edge6" class="edge"><title>Node3&#45;&gt;Node4</title>
<path fill="none" stroke="midnightblue" d="M293.722,-124.427C296.568,-125.87 299.34,-127.394 302,-129 320.84,-140.376 318.609,-152.591 338,-163 345.158,-166.843 353.039,-169.951 361.035,-172.465"/>
<polygon fill="midnightblue" stroke="midnightblue" points="294.976,-121.15 284.435,-120.089 292.014,-127.493 294.976,-121.15"/>
</g>
<!-- Node5 -->
<g id="node9" class="node"><title>Node5</title>
<a xlink:href="a00361.html#a94f9f160c95632a4dd1ce1f656eded13" target="_top" xlink:title="Set material.">
<polygon fill="none" stroke="black" points="348,-132.5 348,-153.5 500,-153.5 500,-132.5 348,-132.5"/>
<text text-anchor="middle" x="424" y="-140.5" font-family="FreeSans" font-size="10.00">Urho3D::Text3D::SetMaterial</text>
</a>
</g>
<!-- Node3&#45;&gt;Node5 -->
<g id="edge8" class="edge"><title>Node3&#45;&gt;Node5</title>
<path fill="none" stroke="midnightblue" d="M312.194,-120.413C332.564,-124.528 353.67,-128.792 371.983,-132.491"/>
<polygon fill="midnightblue" stroke="midnightblue" points="312.764,-116.957 302.269,-118.408 311.378,-123.819 312.764,-116.957"/>
</g>
<!-- Node8 -->
<g id="node15" class="node"><title>Node8</title>
<a xlink:href="a00361.html#ad45b2e7b43a4b08e29010206ef65cf40" target="_top" xlink:title="Set font and font size. Return true if successful.">
<polygon fill="none" stroke="black" points="356.5,-92.5 356.5,-113.5 491.5,-113.5 491.5,-92.5 356.5,-92.5"/>
<text text-anchor="middle" x="424" y="-100.5" font-family="FreeSans" font-size="10.00">Urho3D::Text3D::SetFont</text>
</a>
</g>
<!-- Node3&#45;&gt;Node8 -->
<g id="edge14" class="edge"><title>Node3&#45;&gt;Node8</title>
<path fill="none" stroke="midnightblue" d="M312.412,-103C327.175,-103 342.318,-103 356.498,-103"/>
<polygon fill="midnightblue" stroke="midnightblue" points="312.269,-99.5001 302.269,-103 312.269,-106.5 312.269,-99.5001"/>
</g>
<!-- Node9 -->
<g id="node17" class="node"><title>Node9</title>
<a xlink:href="a00361.html#a539320e56a328d3923e6a50ab86c52c5" target="_top" xlink:title="Set text. Text is assumed to be either ASCII or UTF8&#45;encoded.">
<polygon fill="none" stroke="black" points="357.5,-52.5 357.5,-73.5 490.5,-73.5 490.5,-52.5 357.5,-52.5"/>
<text text-anchor="middle" x="424" y="-60.5" font-family="FreeSans" font-size="10.00">Urho3D::Text3D::SetText</text>
</a>
</g>
<!-- Node3&#45;&gt;Node9 -->
<g id="edge16" class="edge"><title>Node3&#45;&gt;Node9</title>
<path fill="none" stroke="midnightblue" d="M312.194,-85.5871C332.564,-81.4719 353.67,-77.2081 371.983,-73.5085"/>
<polygon fill="midnightblue" stroke="midnightblue" points="311.378,-82.1812 302.269,-87.5922 312.764,-89.0426 311.378,-82.1812"/>
</g>
<!-- Node6 -->
<g id="node11" class="node"><title>Node6</title>
<a xlink:href="a00361.html#a618274ddd7da2a3b6753eb9f90664191" target="_top" xlink:title="Set material attribute.">
<polygon fill="none" stroke="black" points="546,-132.5 546,-153.5 716,-153.5 716,-132.5 546,-132.5"/>
<text text-anchor="middle" x="631" y="-140.5" font-family="FreeSans" font-size="10.00">Urho3D::Text3D::SetMaterialAttr</text>
</a>
</g>
<!-- Node5&#45;&gt;Node6 -->
<g id="edge10" class="edge"><title>Node5&#45;&gt;Node6</title>
<path fill="none" stroke="midnightblue" d="M510.414,-143C522.146,-143 534.179,-143 545.887,-143"/>
<polygon fill="midnightblue" stroke="midnightblue" points="510.197,-139.5 500.197,-143 510.197,-146.5 510.197,-139.5"/>
</g>
<!-- Node7 -->
<g id="node13" class="node"><title>Node7</title>
<a xlink:href="a00361.html#a8d7300ae719ca749d031f65acdc0a23b" target="_top" xlink:title="Register object factory. Drawable must be registered first.">
<polygon fill="none" stroke="black" points="752,-126 752,-160 888,-160 888,-126 752,-126"/>
<text text-anchor="start" x="760" y="-147" font-family="FreeSans" font-size="10.00">Urho3D::Text3D::Register</text>
<text text-anchor="middle" x="820" y="-134" font-family="FreeSans" font-size="10.00">Object</text>
</a>
</g>
<!-- Node6&#45;&gt;Node7 -->
<g id="edge12" class="edge"><title>Node6&#45;&gt;Node7</title>
<path fill="none" stroke="midnightblue" d="M726.217,-143C734.847,-143 743.468,-143 751.794,-143"/>
<polygon fill="midnightblue" stroke="midnightblue" points="726.101,-139.5 716.101,-143 726.101,-146.5 726.101,-139.5"/>
</g>
<!-- Node11 -->
<g id="node21" class="node"><title>Node11</title>
<a xlink:href="a00224.html#aa5c2e92c65cbdb17bcadcc9cd607fc76" target="_top" xlink:title="Return material by texture and blend mode.">
<polygon fill="none" stroke="black" points="353.5,-0 353.5,-34 494.5,-34 494.5,-0 353.5,-0"/>
<text text-anchor="start" x="361.5" y="-21" font-family="FreeSans" font-size="10.00">Urho3D::MaterialCache2D</text>
<text text-anchor="middle" x="424" y="-8" font-family="FreeSans" font-size="10.00">::GetMaterial</text>
</a>
</g>
<!-- Node10&#45;&gt;Node11 -->
<g id="edge20" class="edge"><title>Node10&#45;&gt;Node11</title>
<path fill="none" stroke="midnightblue" d="M306.704,-27.0708C322.174,-25.7426 338.261,-24.3614 353.383,-23.0631"/>
<polygon fill="midnightblue" stroke="midnightblue" points="306.308,-23.5919 296.644,-27.9346 306.907,-30.5662 306.308,-23.5919"/>
</g>
</g>
</svg>
