<?xml version="1.0" encoding="UTF-8" standalone="no"?>
<!DOCTYPE svg PUBLIC "-//W3C//DTD SVG 1.1//EN"
 "http://www.w3.org/Graphics/SVG/1.1/DTD/svg11.dtd">
<!-- Generated by graphviz version 2.26.3 (20100126.1600)
 -->
<!-- Title: Urho3D::SoundSource Pages: 1 -->
<!--zoomable 901 -->
<svg id="main" version="1.1" xmlns="http://www.w3.org/2000/svg" xmlns:xlink="http://www.w3.org/1999/xlink" xml:space="preserve" onload="init(evt)">
        <defs>
                <circle id="rim" cx="0" cy="0" r="7"/>
                <circle id="rim2" cx="0" cy="0" r="3.5"/>
                <g id="zoomPlus">
                        <use xlink:href="#rim" fill="#404040">
                                <set attributeName="fill" to="#808080" begin="zoomplus.mouseover" end="zoomplus.mouseout"/>
                        </use>
                        <path d="M-4,0h8M0,-4v8" fill="none" stroke="white" stroke-width="1.5" pointer-events="none"/>
                </g>
                <g id="zoomMin">
                        <use xlink:href="#rim" fill="#404040">
                                <set attributeName="fill" to="#808080" begin="zoomminus.mouseover" end="zoomminus.mouseout"/>
                        </use>
                        <path d="M-4,0h8" fill="none" stroke="white" stroke-width="1.5" pointer-events="none"/>
                </g>
                <g id="dirArrow">
                        <path fill="none" stroke="white" stroke-width="1.5" d="M0,-3.0v7 M-2.5,-0.5L0,-3.0L2.5,-0.5"/>
                </g>
               <g id="resetDef">
                       <use xlink:href="#rim2" fill="#404040">
                               <set attributeName="fill" to="#808080" begin="reset.mouseover" end="reset.mouseout"/>
                       </use>
               </g>
        </defs>

<script type="text/javascript">
var viewWidth = 1486;
var viewHeight = 901;
var sectionId = 'dynsection-1';
</script>
<script xlink:href="svgpan.js"/>
<svg id="graph" class="graph">
<g id="viewport">
<title>Urho3D::SoundSource</title>
<!-- Node1 -->
<g id="node1" class="node"><title>Node1</title>
<polygon fill="#bfbfbf" stroke="black" points="1354,-696.5 1354,-717.5 1478,-717.5 1478,-696.5 1354,-696.5"/>
<text text-anchor="middle" x="1416" y="-704.5" font-family="FreeSans" font-size="10.00">Urho3D::SoundSource</text>
</g>
<!-- Node2 -->
<g id="node2" class="node"><title>Node2</title>
<a xlink:href="a00089.html" target="_top" xlink:title="Base class for components. Components can be created to scene nodes.">
<polygon fill="none" stroke="black" points="1132,-696.5 1132,-717.5 1248,-717.5 1248,-696.5 1132,-696.5"/>
<text text-anchor="middle" x="1190" y="-704.5" font-family="FreeSans" font-size="10.00">Urho3D::Component</text>
</a>
</g>
<!-- Node2&#45;&gt;Node1 -->
<g id="edge2" class="edge"><title>Node2&#45;&gt;Node1</title>
<path fill="none" stroke="midnightblue" d="M1258.27,-707C1288.59,-707 1324.04,-707 1353.64,-707"/>
<polygon fill="midnightblue" stroke="midnightblue" points="1258.2,-703.5 1248.2,-707 1258.2,-710.5 1258.2,-703.5"/>
</g>
<!-- Node3 -->
<g id="node4" class="node"><title>Node3</title>
<a xlink:href="a00269.html" target="_top" xlink:title="Base class for objects with automatic serialization through attributes.">
<polygon fill="none" stroke="black" points="619,-793.5 619,-814.5 733,-814.5 733,-793.5 619,-793.5"/>
<text text-anchor="middle" x="676" y="-801.5" font-family="FreeSans" font-size="10.00">Urho3D::Serializable</text>
</a>
</g>
<!-- Node3&#45;&gt;Node2 -->
<g id="edge4" class="edge"><title>Node3&#45;&gt;Node2</title>
<path fill="none" stroke="midnightblue" d="M743.432,-803.741C786.721,-802.65 843.994,-799.483 894,-791 993.801,-774.07 1108.04,-736.177 1160.66,-717.632"/>
<polygon fill="midnightblue" stroke="midnightblue" points="743.221,-800.244 733.301,-803.965 743.376,-807.243 743.221,-800.244"/>
</g>
<!-- Node8 -->
<g id="node14" class="node"><title>Node8</title>
<a xlink:href="a00199.html" target="_top" xlink:title="Scene node that may contain components and child nodes.">
<polygon fill="none" stroke="black" points="942.5,-452.5 942.5,-473.5 1027.5,-473.5 1027.5,-452.5 942.5,-452.5"/>
<text text-anchor="middle" x="985" y="-460.5" font-family="FreeSans" font-size="10.00">Urho3D::Node</text>
</a>
</g>
<!-- Node3&#45;&gt;Node8 -->
<g id="edge16" class="edge"><title>Node3&#45;&gt;Node8</title>
<path fill="none" stroke="midnightblue" d="M743.35,-795.861C803.124,-788.058 882.71,-776.019 894,-766 940.115,-725.078 975.332,-522.908 983.3,-473.775"/>
<polygon fill="midnightblue" stroke="midnightblue" points="742.662,-792.42 733.192,-797.171 743.558,-799.363 742.662,-792.42"/>
</g>
<!-- Node4 -->
<g id="node6" class="node"><title>Node4</title>
<a xlink:href="a00205.html" target="_top" xlink:title="Base class for objects with type identification, subsystem access and event sending/receiving capabil...">
<polygon fill="none" stroke="red" points="304,-699.5 304,-720.5 394,-720.5 394,-699.5 304,-699.5"/>
<text text-anchor="middle" x="349" y="-707.5" font-family="FreeSans" font-size="10.00">Urho3D::Object</text>
</a>
</g>
<!-- Node4&#45;&gt;Node3 -->
<g id="edge6" class="edge"><title>Node4&#45;&gt;Node3</title>
<path fill="none" stroke="midnightblue" d="M404.513,-717.007C448.02,-724.328 508.872,-738.715 556,-766 565.791,-771.669 564.015,-778.68 574,-784 587.697,-791.297 603.702,-795.948 618.919,-798.908"/>
<polygon fill="midnightblue" stroke="midnightblue" points="404.828,-713.513 394.399,-715.379 403.716,-720.424 404.828,-713.513"/>
</g>
<!-- Node19 -->
<g id="node46" class="node"><title>Node19</title>
<a xlink:href="a00093.html" target="_top" xlink:title="Connection to a remote network host.">
<polygon fill="none" stroke="red" points="619.5,-353.5 619.5,-374.5 732.5,-374.5 732.5,-353.5 619.5,-353.5"/>
<text text-anchor="middle" x="676" y="-361.5" font-family="FreeSans" font-size="10.00">Urho3D::Connection</text>
</a>
</g>
<!-- Node4&#45;&gt;Node19 -->
<g id="edge58" class="edge"><title>Node4&#45;&gt;Node19</title>
<path fill="none" stroke="midnightblue" d="M378.942,-694.48C425.685,-668.48 514.891,-611.37 556,-535 572.017,-505.244 551.017,-408.774 574,-384 585.598,-371.498 602.532,-365.501 619.283,-362.91"/>
<polygon fill="midnightblue" stroke="midnightblue" points="377.016,-691.543 369.915,-699.406 380.37,-697.688 377.016,-691.543"/>
</g>
<!-- Node22 -->
<g id="node58" class="node"><title>Node22</title>
<a xlink:href="a00067.html" target="_top" xlink:title="Audio subsystem.">
<polygon fill="none" stroke="red" points="633,-753.5 633,-774.5 719,-774.5 719,-753.5 633,-753.5"/>
<text text-anchor="middle" x="676" y="-761.5" font-family="FreeSans" font-size="10.00">Urho3D::Audio</text>
</a>
</g>
<!-- Node4&#45;&gt;Node22 -->
<g id="edge76" class="edge"><title>Node4&#45;&gt;Node22</title>
<path fill="none" stroke="midnightblue" d="M404.374,-702.809C447.805,-699.672 508.621,-700.952 556,-724 566.754,-729.231 563.597,-738.102 574,-744 591.817,-754.102 613.885,-759.178 632.933,-761.699"/>
<polygon fill="midnightblue" stroke="midnightblue" points="403.96,-699.331 394.28,-703.639 404.534,-706.307 403.96,-699.331"/>
</g>
<!-- Node5 -->
<g id="node8" class="node"><title>Node5</title>
<a xlink:href="a00146.html" target="_top" xlink:title="Hash map template class.">
<polygon fill="none" stroke="red" points="276,-793.5 276,-814.5 422,-814.5 422,-793.5 276,-793.5"/>
<text text-anchor="middle" x="349" y="-801.5" font-family="FreeSans" font-size="10.00">Urho3D::HashMap&lt; T, U &gt;</text>
</a>
</g>
<!-- Node5&#45;&gt;Node3 -->
<g id="edge8" class="edge"><title>Node5&#45;&gt;Node3</title>
<path fill="none" stroke="#9a32cd" stroke-dasharray="5,2" d="M432.693,-804C491.05,-804 567.379,-804 618.858,-804"/>
<polygon fill="#9a32cd" stroke="#9a32cd" points="432.385,-800.5 422.385,-804 432.385,-807.5 432.385,-800.5"/>
<text text-anchor="middle" x="498" y="-808" font-family="FreeSans" font-size="10.00"> instanceDefaultValues_</text>
</g>
<!-- Node6 -->
<g id="node10" class="node"><title>Node6</title>
<a xlink:href="a00198.html" target="_top" xlink:title="Per&#45;object attribute state for network replication, allocated on demand.">
<polygon fill="none" stroke="red" points="286.5,-746.5 286.5,-767.5 411.5,-767.5 411.5,-746.5 286.5,-746.5"/>
<text text-anchor="middle" x="349" y="-754.5" font-family="FreeSans" font-size="10.00">Urho3D::NetworkState</text>
</a>
</g>
<!-- Node6&#45;&gt;Node3 -->
<g id="edge10" class="edge"><title>Node6&#45;&gt;Node3</title>
<path fill="none" stroke="#9a32cd" stroke-dasharray="5,2" d="M421.729,-767.453C481.147,-775.994 563.979,-787.899 618.751,-795.771"/>
<polygon fill="#9a32cd" stroke="#9a32cd" points="422.058,-763.965 411.662,-766.006 421.062,-770.894 422.058,-763.965"/>
<text text-anchor="middle" x="498" y="-790" font-family="FreeSans" font-size="10.00"> networkState_</text>
</g>
<!-- Node7 -->
<g id="node12" class="node"><title>Node7</title>
<a xlink:href="a00146.html" target="_top" xlink:title="Urho3D::HashMap\&lt; ShortString\lHash, Variant \&gt;">
<polygon fill="none" stroke="red" points="0,-545 0,-579 170,-579 170,-545 0,-545"/>
<text text-anchor="start" x="8" y="-566" font-family="FreeSans" font-size="10.00">Urho3D::HashMap&lt; ShortString</text>
<text text-anchor="middle" x="85" y="-553" font-family="FreeSans" font-size="10.00">Hash, Variant &gt;</text>
</a>
</g>
<!-- Node7&#45;&gt;Node6 -->
<g id="edge12" class="edge"><title>Node7&#45;&gt;Node6</title>
<path fill="none" stroke="#9a32cd" stroke-dasharray="5,2" d="M107.255,-586.647C140.772,-622.499 207.595,-689.197 276,-730 287.257,-736.715 300.464,-742.217 312.527,-746.462"/>
<polygon fill="#9a32cd" stroke="#9a32cd" points="109.598,-584.026 100.236,-579.066 104.462,-588.782 109.598,-584.026"/>
<text text-anchor="middle" x="223" y="-719" font-family="FreeSans" font-size="10.00"> previousVars_</text>
</g>
<!-- Node7&#45;&gt;Node8 -->
<g id="edge54" class="edge"><title>Node7&#45;&gt;Node8</title>
<path fill="none" stroke="#9a32cd" stroke-dasharray="5,2" d="M93.8549,-588.594C114.687,-646.017 172.967,-779.975 276,-824 481.167,-911.666 557.028,-854.82 778,-824 831.087,-816.596 856.222,-829.025 894,-791 941.065,-743.627 975.952,-524.268 983.483,-473.506"/>
<polygon fill="#9a32cd" stroke="#9a32cd" points="97.1372,-587.378 90.506,-579.115 90.537,-589.709 97.1372,-587.378"/>
<text text-anchor="middle" x="498" y="-874" font-family="FreeSans" font-size="10.00"> vars_</text>
</g>
<!-- Node10 -->
<g id="node19" class="node"><title>Node10</title>
<a xlink:href="a00257.html" target="_top" xlink:title="Root scene node, represents the whole scene.">
<polygon fill="none" stroke="red" points="1145.5,-155.5 1145.5,-176.5 1234.5,-176.5 1234.5,-155.5 1145.5,-155.5"/>
<text text-anchor="middle" x="1190" y="-163.5" font-family="FreeSans" font-size="10.00">Urho3D::Scene</text>
</a>
</g>
<!-- Node7&#45;&gt;Node10 -->
<g id="edge28" class="edge"><title>Node7&#45;&gt;Node10</title>
<path fill="none" stroke="#9a32cd" stroke-dasharray="5,2" d="M86.1239,-534.772C92.0792,-428.837 128.772,-50 349,-50 349,-50 349,-50 985,-50 1070.06,-50 1152.23,-126.578 1180.05,-155.295"/>
<polygon fill="#9a32cd" stroke="#9a32cd" points="82.618,-534.798 85.6003,-544.965 89.6088,-535.158 82.618,-534.798"/>
<text text-anchor="middle" x="676" y="-54" font-family="FreeSans" font-size="10.00"> smoothingData_</text>
</g>
<!-- Node7&#45;&gt;Node19 -->
<g id="edge66" class="edge"><title>Node7&#45;&gt;Node19</title>
<path fill="none" stroke="#9a32cd" stroke-dasharray="5,2" d="M150.81,-542.032C247.039,-512.813 415.514,-461.572 422,-459 492.028,-431.233 502.636,-408.125 574,-384 588.445,-379.117 604.468,-375.278 619.452,-372.327"/>
<polygon fill="#9a32cd" stroke="#9a32cd" points="149.712,-538.707 141.161,-544.961 151.746,-545.405 149.712,-538.707"/>
<text text-anchor="middle" x="349" y="-507" font-family="FreeSans" font-size="10.00"> identity_</text>
</g>
<!-- Node8&#45;&gt;Node2 -->
<g id="edge14" class="edge"><title>Node8&#45;&gt;Node2</title>
<path fill="none" stroke="#9a32cd" stroke-dasharray="5,2" d="M1000.63,-481.604C1041.25,-529.949 1149.18,-658.415 1181.03,-696.326"/>
<polygon fill="#9a32cd" stroke="#9a32cd" points="1003.19,-479.204 994.073,-473.799 997.826,-483.707 1003.19,-479.204"/>
<text text-anchor="middle" x="1095" y="-618" font-family="FreeSans" font-size="10.00"> node_</text>
</g>
<!-- Node8&#45;&gt;Node8 -->
<g id="edge46" class="edge"><title>Node8&#45;&gt;Node8</title>
<path fill="none" stroke="#9a32cd" stroke-dasharray="5,2" d="M964.728,-483.427C966.292,-488.349 973.049,-492 985,-492 1004.12,-492 1009.95,-482.653 1002.48,-473.708"/>
<polygon fill="#9a32cd" stroke="#9a32cd" points="968.123,-484.286 967.522,-473.708 961.395,-482.352 968.123,-484.286"/>
<text text-anchor="middle" x="985" y="-496" font-family="FreeSans" font-size="10.00"> parent_</text>
</g>
<!-- Node8&#45;&gt;Node10 -->
<g id="edge22" class="edge"><title>Node8&#45;&gt;Node10</title>
<path fill="none" stroke="midnightblue" d="M1000.54,-444.153C1025.57,-413.486 1075.84,-350.52 1114,-294 1142.49,-251.805 1172.14,-198.752 1184.29,-176.539"/>
<polygon fill="midnightblue" stroke="midnightblue" points="997.537,-442.3 993.907,-452.253 1002.95,-446.736 997.537,-442.3"/>
</g>
<!-- Node9 -->
<g id="node17" class="node"><title>Node9</title>
<a xlink:href="a00229.html" target="_top" xlink:title="Urho3D::PODVector\&lt;\l Urho3D::Node * \&gt;">
<polygon fill="none" stroke="red" points="616.5,-190 616.5,-224 735.5,-224 735.5,-190 616.5,-190"/>
<text text-anchor="start" x="624.5" y="-211" font-family="FreeSans" font-size="10.00">Urho3D::PODVector&lt;</text>
<text text-anchor="middle" x="676" y="-198" font-family="FreeSans" font-size="10.00"> Urho3D::Node * &gt;</text>
</a>
</g>
<!-- Node9&#45;&gt;Node8 -->
<g id="edge18" class="edge"><title>Node9&#45;&gt;Node8</title>
<path fill="none" stroke="#9a32cd" stroke-dasharray="5,2" d="M745.811,-198.015C792.34,-195.862 852.366,-200.929 894,-233 967.652,-289.735 981.813,-415.007 984.43,-452.315"/>
<polygon fill="#9a32cd" stroke="#9a32cd" points="745.58,-194.522 735.8,-198.597 745.986,-201.51 745.58,-194.522"/>
<text text-anchor="middle" x="845" y="-237" font-family="FreeSans" font-size="10.00"> dependencyNodes_</text>
</g>
<!-- Node10&#45;&gt;Node8 -->
<g id="edge20" class="edge"><title>Node10&#45;&gt;Node8</title>
<path fill="none" stroke="#9a32cd" stroke-dasharray="5,2" d="M1169.4,-183.141C1144.9,-204.285 1103.83,-242.213 1076,-281 1033.37,-340.416 1000.18,-422.741 989.04,-452.079"/>
<polygon fill="#9a32cd" stroke="#9a32cd" points="1171.69,-185.788 1177.03,-176.637 1167.15,-180.46 1171.69,-185.788"/>
<text text-anchor="middle" x="1095" y="-285" font-family="FreeSans" font-size="10.00"> scene_</text>
</g>
<!-- Node11 -->
<g id="node22" class="node"><title>Node11</title>
<a xlink:href="a00299.html" target="_top" xlink:title="String class.">
<polygon fill="none" stroke="black" points="305,-235.5 305,-256.5 393,-256.5 393,-235.5 305,-235.5"/>
<text text-anchor="middle" x="349" y="-243.5" font-family="FreeSans" font-size="10.00">Urho3D::String</text>
</a>
</g>
<!-- Node11&#45;&gt;Node8 -->
<g id="edge44" class="edge"><title>Node11&#45;&gt;Node8</title>
<path fill="none" stroke="#9a32cd" stroke-dasharray="5,2" d="M403.528,-246.891C525.628,-249.886 816.392,-262.877 894,-319 943.126,-354.526 971.928,-425.495 981.453,-452.362"/>
<polygon fill="#9a32cd" stroke="#9a32cd" points="403.369,-243.387 393.291,-246.654 403.207,-250.385 403.369,-243.387"/>
<text text-anchor="middle" x="676" y="-282" font-family="FreeSans" font-size="10.00"> name_</text>
</g>
<!-- Node11&#45;&gt;Node10 -->
<g id="edge24" class="edge"><title>Node11&#45;&gt;Node10</title>
<path fill="none" stroke="#9a32cd" stroke-dasharray="5,2" d="M369.077,-228.535C406.361,-197.398 490.149,-133.373 574,-110 791.487,-49.3775 1067.24,-126.105 1158.85,-155.465"/>
<polygon fill="#9a32cd" stroke="#9a32cd" points="366.399,-226.217 361.031,-235.352 370.924,-231.558 366.399,-226.217"/>
<text text-anchor="middle" x="845" y="-100" font-family="FreeSans" font-size="10.00"> fileName_</text>
</g>
<!-- Node11&#45;&gt;Node11 -->
<g id="edge26" class="edge"><title>Node11&#45;&gt;Node11</title>
<path fill="none" stroke="#9a32cd" stroke-dasharray="5,2" d="M325.78,-266.427C327.571,-271.349 335.311,-275 349,-275 370.902,-275 377.576,-265.653 369.02,-256.708"/>
<polygon fill="#9a32cd" stroke="#9a32cd" points="329.176,-267.301 328.98,-256.708 322.528,-265.111 329.176,-267.301"/>
<text text-anchor="middle" x="349" y="-279" font-family="FreeSans" font-size="10.00"> EMPTY</text>
</g>
<!-- Node11&#45;&gt;Node19 -->
<g id="edge64" class="edge"><title>Node11&#45;&gt;Node19</title>
<path fill="none" stroke="#9a32cd" stroke-dasharray="5,2" d="M402.244,-259.07C455.02,-272.752 531.435,-294.743 556,-313 567.28,-321.384 562.423,-331.032 574,-339 587.367,-348.2 603.768,-354.025 619.478,-357.709"/>
<polygon fill="#9a32cd" stroke="#9a32cd" points="402.911,-255.628 392.355,-256.532 401.171,-262.408 402.911,-255.628"/>
<text text-anchor="middle" x="498" y="-317" font-family="FreeSans" font-size="10.00"> sceneFileName_</text>
</g>
<!-- Node12 -->
<g id="node26" class="node"><title>Node12</title>
<a xlink:href="a00234.html" target="_top" xlink:title="Rotation represented as a four&#45;dimensional normalized vector.">
<polygon fill="none" stroke="black" points="619.5,-119.5 619.5,-140.5 732.5,-140.5 732.5,-119.5 619.5,-119.5"/>
<text text-anchor="middle" x="676" y="-127.5" font-family="FreeSans" font-size="10.00">Urho3D::Quaternion</text>
</a>
</g>
<!-- Node12&#45;&gt;Node8 -->
<g id="edge30" class="edge"><title>Node12&#45;&gt;Node8</title>
<path fill="none" stroke="#9a32cd" stroke-dasharray="5,2" d="M742.776,-124.804C790.426,-124.79 853.071,-132.824 894,-169 938.839,-208.631 974.882,-404.002 983.192,-452.225"/>
<polygon fill="#9a32cd" stroke="#9a32cd" points="742.501,-121.307 732.544,-124.929 742.586,-128.306 742.501,-121.307"/>
<text text-anchor="middle" x="845" y="-186" font-family="FreeSans" font-size="10.00"> worldRotation_</text>
<text text-anchor="middle" x="845" y="-173" font-family="FreeSans" font-size="10.00">rotation_</text>
</g>
<!-- Node12&#45;&gt;Node12 -->
<g id="edge32" class="edge"><title>Node12&#45;&gt;Node12</title>
<path fill="none" stroke="#9a32cd" stroke-dasharray="5,2" d="M644.741,-149.679C646.416,-154.975 656.835,-159 676,-159 705.203,-159 714.101,-149.653 702.693,-140.708"/>
<polygon fill="#9a32cd" stroke="#9a32cd" points="647.89,-151.208 649.307,-140.708 641.651,-148.032 647.89,-151.208"/>
<text text-anchor="middle" x="676" y="-163" font-family="FreeSans" font-size="10.00"> IDENTITY</text>
</g>
<!-- Node13 -->
<g id="node29" class="node"><title>Node13</title>
<a xlink:href="a00325.html" target="_top" xlink:title="Urho3D::Vector\&lt; Urho3D\l::WeakPtr\&lt; Urho3D::Component \&gt; \&gt;">
<polygon fill="none" stroke="red" points="579,-701 579,-735 773,-735 773,-701 579,-701"/>
<text text-anchor="start" x="587" y="-722" font-family="FreeSans" font-size="10.00">Urho3D::Vector&lt; Urho3D</text>
<text text-anchor="middle" x="676" y="-709" font-family="FreeSans" font-size="10.00">::WeakPtr&lt; Urho3D::Component &gt; &gt;</text>
</a>
</g>
<!-- Node13&#45;&gt;Node8 -->
<g id="edge34" class="edge"><title>Node13&#45;&gt;Node8</title>
<path fill="none" stroke="#9a32cd" stroke-dasharray="5,2" d="M783.407,-711.308C821.784,-704.226 863.123,-690.64 894,-665 957.029,-612.66 978.171,-507.577 983.495,-473.753"/>
<polygon fill="#9a32cd" stroke="#9a32cd" points="782.466,-707.918 773.2,-713.055 783.647,-714.818 782.466,-707.918"/>
<text text-anchor="middle" x="845" y="-711" font-family="FreeSans" font-size="10.00"> listeners_</text>
</g>
<!-- Node14 -->
<g id="node31" class="node"><title>Node14</title>
<a xlink:href="a00330.html" target="_top" xlink:title="Dynamically sized buffer that can be read and written to as a stream.">
<polygon fill="none" stroke="red" points="289.5,-526.5 289.5,-547.5 408.5,-547.5 408.5,-526.5 289.5,-526.5"/>
<text text-anchor="middle" x="349" y="-534.5" font-family="FreeSans" font-size="10.00">Urho3D::VectorBuffer</text>
</a>
</g>
<!-- Node14&#45;&gt;Node8 -->
<g id="edge36" class="edge"><title>Node14&#45;&gt;Node8</title>
<path fill="none" stroke="#9a32cd" stroke-dasharray="5,2" d="M419.027,-541.008C524.312,-545.037 728.666,-545.06 894,-498 917.281,-491.373 942.947,-481.229 961.069,-473.565"/>
<polygon fill="#9a32cd" stroke="#9a32cd" points="418.977,-537.503 408.843,-540.594 418.693,-544.497 418.977,-537.503"/>
<text text-anchor="middle" x="676" y="-545" font-family="FreeSans" font-size="10.00"> attrBuffer_</text>
</g>
<!-- Node14&#45;&gt;Node19 -->
<g id="edge60" class="edge"><title>Node14&#45;&gt;Node19</title>
<path fill="none" stroke="#9a32cd" stroke-dasharray="5,2" d="M415.469,-524.616C475.523,-513.358 554.738,-498.304 556,-497 591.363,-460.453 538.687,-420.596 574,-384 585.779,-371.794 602.66,-365.855 619.308,-363.226"/>
<polygon fill="#9a32cd" stroke="#9a32cd" points="414.819,-521.176 405.634,-526.458 416.107,-528.057 414.819,-521.176"/>
<text text-anchor="middle" x="498" y="-522" font-family="FreeSans" font-size="10.00"> msg_</text>
</g>
<!-- Node15 -->
<g id="node33" class="node"><title>Node15</title>
<a xlink:href="a00325.html" target="_top" xlink:title="Urho3D::Vector\&lt; Urho3D\l::SharedPtr\&lt; Urho3D::Component \&gt; \&gt;">
<polygon fill="none" stroke="red" points="574.5,-649 574.5,-683 777.5,-683 777.5,-649 574.5,-649"/>
<text text-anchor="start" x="582.5" y="-670" font-family="FreeSans" font-size="10.00">Urho3D::Vector&lt; Urho3D</text>
<text text-anchor="middle" x="676" y="-657" font-family="FreeSans" font-size="10.00">::SharedPtr&lt; Urho3D::Component &gt; &gt;</text>
</a>
</g>
<!-- Node15&#45;&gt;Node8 -->
<g id="edge38" class="edge"><title>Node15&#45;&gt;Node8</title>
<path fill="none" stroke="#9a32cd" stroke-dasharray="5,2" d="M787.507,-651.502C824.124,-642.594 863.27,-628.214 894,-605 941.662,-568.995 971.148,-500.202 981.161,-473.74"/>
<polygon fill="#9a32cd" stroke="#9a32cd" points="786.711,-648.093 777.759,-653.761 788.291,-654.913 786.711,-648.093"/>
<text text-anchor="middle" x="845" y="-652" font-family="FreeSans" font-size="10.00"> components_</text>
</g>
<!-- Node16 -->
<g id="node35" class="node"><title>Node16</title>
<a xlink:href="a00327.html" target="_top" xlink:title="Three&#45;dimensional vector.">
<polygon fill="none" stroke="black" points="301,-306.5 301,-327.5 397,-327.5 397,-306.5 301,-306.5"/>
<text text-anchor="middle" x="349" y="-314.5" font-family="FreeSans" font-size="10.00">Urho3D::Vector3</text>
</a>
</g>
<!-- Node16&#45;&gt;Node8 -->
<g id="edge40" class="edge"><title>Node16&#45;&gt;Node8</title>
<path fill="none" stroke="#9a32cd" stroke-dasharray="5,2" d="M407.337,-313.707C507.879,-308.602 709.598,-301.027 778,-318 867.004,-340.085 948.651,-422.755 975.63,-452.366"/>
<polygon fill="#9a32cd" stroke="#9a32cd" points="407.152,-310.212 397.346,-314.223 407.513,-317.202 407.152,-310.212"/>
<text text-anchor="middle" x="676" y="-335" font-family="FreeSans" font-size="10.00"> scale_</text>
<text text-anchor="middle" x="676" y="-322" font-family="FreeSans" font-size="10.00">position_</text>
</g>
<!-- Node16&#45;&gt;Node16 -->
<g id="edge42" class="edge"><title>Node16&#45;&gt;Node16</title>
<path fill="none" stroke="#9a32cd" stroke-dasharray="5,2" d="M325.78,-337.427C327.571,-342.349 335.311,-346 349,-346 370.902,-346 377.576,-336.653 369.02,-327.708"/>
<polygon fill="#9a32cd" stroke="#9a32cd" points="329.176,-338.301 328.98,-327.708 322.528,-336.111 329.176,-338.301"/>
<text text-anchor="middle" x="349" y="-441" font-family="FreeSans" font-size="10.00"> ONE</text>
<text text-anchor="middle" x="349" y="-428" font-family="FreeSans" font-size="10.00">DOWN</text>
<text text-anchor="middle" x="349" y="-415" font-family="FreeSans" font-size="10.00">BACK</text>
<text text-anchor="middle" x="349" y="-402" font-family="FreeSans" font-size="10.00">RIGHT</text>
<text text-anchor="middle" x="349" y="-389" font-family="FreeSans" font-size="10.00">LEFT</text>
<text text-anchor="middle" x="349" y="-376" font-family="FreeSans" font-size="10.00">ZERO</text>
<text text-anchor="middle" x="349" y="-363" font-family="FreeSans" font-size="10.00">FORWARD</text>
<text text-anchor="middle" x="349" y="-350" font-family="FreeSans" font-size="10.00">UP</text>
</g>
<!-- Node16&#45;&gt;Node19 -->
<g id="edge62" class="edge"><title>Node16&#45;&gt;Node19</title>
<path fill="none" stroke="#9a32cd" stroke-dasharray="5,2" d="M407.311,-325.381C467.249,-333.996 559.962,-347.322 619.304,-355.851"/>
<polygon fill="#9a32cd" stroke="#9a32cd" points="407.646,-321.893 397.25,-323.935 406.65,-328.822 407.646,-321.893"/>
<text text-anchor="middle" x="498" y="-350" font-family="FreeSans" font-size="10.00"> position_</text>
</g>
<!-- Node17 -->
<g id="node40" class="node"><title>Node17</title>
<a xlink:href="a00300.html" target="_top" xlink:title="32&#45;bit hash value for a string.">
<polygon fill="none" stroke="black" points="619.5,-578.5 619.5,-599.5 732.5,-599.5 732.5,-578.5 619.5,-578.5"/>
<text text-anchor="middle" x="676" y="-586.5" font-family="FreeSans" font-size="10.00">Urho3D::StringHash</text>
</a>
</g>
<!-- Node17&#45;&gt;Node8 -->
<g id="edge48" class="edge"><title>Node17&#45;&gt;Node8</title>
<path fill="none" stroke="#9a32cd" stroke-dasharray="5,2" d="M743.088,-591.979C788.085,-591.278 847.409,-584.965 894,-561 934.261,-540.291 965.986,-494.27 978.82,-473.514"/>
<polygon fill="#9a32cd" stroke="#9a32cd" points="742.823,-588.481 732.847,-592.047 742.87,-595.481 742.823,-588.481"/>
<text text-anchor="middle" x="845" y="-592" font-family="FreeSans" font-size="10.00"> nameHash_</text>
</g>
<!-- Node17&#45;&gt;Node17 -->
<g id="edge50" class="edge"><title>Node17&#45;&gt;Node17</title>
<path fill="none" stroke="#9a32cd" stroke-dasharray="5,2" d="M644.741,-608.679C646.416,-613.975 656.835,-618 676,-618 705.203,-618 714.101,-608.653 702.693,-599.708"/>
<polygon fill="#9a32cd" stroke="#9a32cd" points="647.89,-610.208 649.307,-599.708 641.651,-607.032 647.89,-610.208"/>
<text text-anchor="middle" x="676" y="-622" font-family="FreeSans" font-size="10.00"> ZERO</text>
</g>
<!-- Node18 -->
<g id="node43" class="node"><title>Node18</title>
<a xlink:href="a00325.html" target="_top" xlink:title="Urho3D::Vector\&lt; Urho3D\l::SharedPtr\&lt; Urho3D::Node \&gt; \&gt;">
<polygon fill="none" stroke="red" points="589.5,-477 589.5,-511 762.5,-511 762.5,-477 589.5,-477"/>
<text text-anchor="start" x="597.5" y="-498" font-family="FreeSans" font-size="10.00">Urho3D::Vector&lt; Urho3D</text>
<text text-anchor="middle" x="676" y="-485" font-family="FreeSans" font-size="10.00">::SharedPtr&lt; Urho3D::Node &gt; &gt;</text>
</a>
</g>
<!-- Node18&#45;&gt;Node8 -->
<g id="edge52" class="edge"><title>Node18&#45;&gt;Node8</title>
<path fill="none" stroke="#9a32cd" stroke-dasharray="5,2" d="M772.992,-484.269C829.814,-478.569 898.742,-471.654 942.248,-467.289"/>
<polygon fill="#9a32cd" stroke="#9a32cd" points="772.497,-480.801 762.896,-485.282 773.195,-487.766 772.497,-480.801"/>
<text text-anchor="middle" x="845" y="-485" font-family="FreeSans" font-size="10.00"> children_</text>
</g>
<!-- Node19&#45;&gt;Node8 -->
<g id="edge56" class="edge"><title>Node19&#45;&gt;Node8</title>
<path fill="none" stroke="#9a32cd" stroke-dasharray="5,2" d="M742.568,-372.635C786.596,-379.72 845.015,-391.779 894,-411 922.118,-422.033 952.034,-440.622 969.592,-452.329"/>
<polygon fill="#9a32cd" stroke="#9a32cd" points="742.973,-369.156 732.553,-371.069 741.892,-376.072 742.973,-369.156"/>
<text text-anchor="middle" x="845" y="-415" font-family="FreeSans" font-size="10.00"> owner_</text>
</g>
<!-- Node20 -->
<g id="node53" class="node"><title>Node20</title>
<a xlink:href="a00183.html" target="_top" xlink:title="3x4 matrix for scene node transform calculations.">
<polygon fill="none" stroke="black" points="623,-393.5 623,-414.5 729,-414.5 729,-393.5 623,-393.5"/>
<text text-anchor="middle" x="676" y="-401.5" font-family="FreeSans" font-size="10.00">Urho3D::Matrix3x4</text>
</a>
</g>
<!-- Node20&#45;&gt;Node8 -->
<g id="edge68" class="edge"><title>Node20&#45;&gt;Node8</title>
<path fill="none" stroke="#9a32cd" stroke-dasharray="5,2" d="M738.971,-416.024C799.669,-427.613 889.842,-444.831 942.498,-454.885"/>
<polygon fill="#9a32cd" stroke="#9a32cd" points="739.598,-412.58 729.119,-414.142 738.285,-419.456 739.598,-412.58"/>
<text text-anchor="middle" x="845" y="-449" font-family="FreeSans" font-size="10.00"> worldTransform_</text>
</g>
<!-- Node20&#45;&gt;Node20 -->
<g id="edge70" class="edge"><title>Node20&#45;&gt;Node20</title>
<path fill="none" stroke="#9a32cd" stroke-dasharray="5,2" d="M644.741,-423.679C646.416,-428.975 656.835,-433 676,-433 705.203,-433 714.101,-423.653 702.693,-414.708"/>
<polygon fill="#9a32cd" stroke="#9a32cd" points="647.89,-425.208 649.307,-414.708 641.651,-422.032 647.89,-425.208"/>
<text text-anchor="middle" x="676" y="-450" font-family="FreeSans" font-size="10.00"> IDENTITY</text>
<text text-anchor="middle" x="676" y="-437" font-family="FreeSans" font-size="10.00">ZERO</text>
</g>
<!-- Node21 -->
<g id="node56" class="node"><title>Node21</title>
<a xlink:href="a00338.html" target="_top" xlink:title="Urho3D::WeakPtr\&lt; Urho3D\l::Audio \&gt;">
<polygon fill="none" stroke="black" points="912,-833 912,-867 1058,-867 1058,-833 912,-833"/>
<text text-anchor="start" x="920" y="-854" font-family="FreeSans" font-size="10.00">Urho3D::WeakPtr&lt; Urho3D</text>
<text text-anchor="middle" x="985" y="-841" font-family="FreeSans" font-size="10.00">::Audio &gt;</text>
</a>
</g>
<!-- Node21&#45;&gt;Node1 -->
<g id="edge72" class="edge"><title>Node21&#45;&gt;Node1</title>
<path fill="none" stroke="#9a32cd" stroke-dasharray="5,2" d="M1046.13,-829.72C1139.15,-798.855 1312.96,-741.188 1384.25,-717.535"/>
<polygon fill="#9a32cd" stroke="#9a32cd" points="1044.95,-826.422 1036.56,-832.893 1047.15,-833.066 1044.95,-826.422"/>
<text text-anchor="middle" x="1190" y="-803" font-family="FreeSans" font-size="10.00"> audio_</text>
</g>
<!-- Node22&#45;&gt;Node21 -->
<g id="edge74" class="edge"><title>Node22&#45;&gt;Node21</title>
<path fill="none" stroke="#9a32cd" stroke-dasharray="5,2" d="M729.292,-773.249C745.059,-776.308 762.299,-779.972 778,-784 833.17,-798.154 895.276,-818.573 936.94,-832.942"/>
<polygon fill="#9a32cd" stroke="#9a32cd" points="729.653,-769.755 719.175,-771.329 728.347,-776.632 729.653,-769.755"/>
<text text-anchor="middle" x="845" y="-821" font-family="FreeSans" font-size="10.00"> ptr_</text>
</g>
<!-- Node23 -->
<g id="node61" class="node"><title>Node23</title>
<a xlink:href="a00242.html" target="_top" xlink:title="Reference count structure.">
<polygon fill="none" stroke="black" points="625,-871.5 625,-892.5 727,-892.5 727,-871.5 625,-871.5"/>
<text text-anchor="middle" x="676" y="-879.5" font-family="FreeSans" font-size="10.00">Urho3D::RefCount</text>
</a>
</g>
<!-- Node23&#45;&gt;Node21 -->
<g id="edge78" class="edge"><title>Node23&#45;&gt;Node21</title>
<path fill="none" stroke="#9a32cd" stroke-dasharray="5,2" d="M737.096,-875.673C787.336,-870.47 858.671,-863.083 911.93,-857.567"/>
<polygon fill="#9a32cd" stroke="#9a32cd" points="736.611,-872.204 727.025,-876.716 737.332,-879.167 736.611,-872.204"/>
<text text-anchor="middle" x="845" y="-872" font-family="FreeSans" font-size="10.00"> refCount_</text>
</g>
<!-- Node24 -->
<g id="node63" class="node"><title>Node24</title>
<a xlink:href="a00278.html" target="_top" xlink:title="Urho3D::SharedPtr\&lt;\l Urho3D::Sound \&gt;">
<polygon fill="none" stroke="black" points="1132,-31 1132,-65 1248,-65 1248,-31 1132,-31"/>
<text text-anchor="start" x="1140" y="-52" font-family="FreeSans" font-size="10.00">Urho3D::SharedPtr&lt;</text>
<text text-anchor="middle" x="1190" y="-39" font-family="FreeSans" font-size="10.00"> Urho3D::Sound &gt;</text>
</a>
</g>
<!-- Node24&#45;&gt;Node1 -->
<g id="edge80" class="edge"><title>Node24&#45;&gt;Node1</title>
<path fill="none" stroke="#9a32cd" stroke-dasharray="5,2" d="M1207.45,-73.5144C1220.02,-92.7733 1236.71,-120.203 1248,-146 1341.17,-358.811 1401.86,-638.667 1413.83,-696.337"/>
<polygon fill="#9a32cd" stroke="#9a32cd" points="1210.26,-71.4212 1201.82,-65.018 1204.42,-75.2875 1210.26,-71.4212"/>
<text text-anchor="middle" x="1301" y="-404" font-family="FreeSans" font-size="10.00"> sound_</text>
<text text-anchor="middle" x="1301" y="-391" font-family="FreeSans" font-size="10.00">decodeBuffer_</text>
</g>
<!-- Node25 -->
<g id="node65" class="node"><title>Node25</title>
<a xlink:href="a00284.html" target="_top" xlink:title="Sound resource.">
<polygon fill="none" stroke="red" points="940,-0.5 940,-21.5 1030,-21.5 1030,-0.5 940,-0.5"/>
<text text-anchor="middle" x="985" y="-8.5" font-family="FreeSans" font-size="10.00">Urho3D::Sound</text>
</a>
</g>
<!-- Node25&#45;&gt;Node24 -->
<g id="edge82" class="edge"><title>Node25&#45;&gt;Node24</title>
<path fill="none" stroke="#9a32cd" stroke-dasharray="5,2" d="M1040.4,-13.411C1063.35,-15.1175 1090.13,-18.0301 1114,-23 1123.79,-25.0385 1134.09,-27.9079 1143.83,-30.9796"/>
<polygon fill="#9a32cd" stroke="#9a32cd" points="1040.36,-9.90049 1030.14,-12.7088 1039.88,-16.8841 1040.36,-9.90049"/>
<text text-anchor="middle" x="1095" y="-27" font-family="FreeSans" font-size="10.00"> ptr_</text>
</g>
</g>
</svg>
        <g id="navigator" transform="translate(0 0)" fill="#404254">
                <rect fill="#f2f5e9" fill-opacity="0.5" stroke="#606060" stroke-width=".5" x="0" y="0" width="60" height="60"/>
                <use id="zoomplus" xlink:href="#zoomPlus" x="17" y="9" onmousedown="handleZoom(evt,'in')"/>
                <use id="zoomminus" xlink:href="#zoomMin" x="42" y="9" onmousedown="handleZoom(evt,'out')"/>
                <use id="reset" xlink:href="#resetDef" x="30" y="36" onmousedown="handleReset()"/>
                <g id="arrowUp" xlink:href="#dirArrow" transform="translate(30 24)" onmousedown="handlePan(0,-1)">
                  <use xlink:href="#rim" fill="#404040">
                        <set attributeName="fill" to="#808080" begin="arrowUp.mouseover" end="arrowUp.mouseout"/>
                  </use>
                  <path fill="none" stroke="white" stroke-width="1.5" d="M0,-3.0v7 M-2.5,-0.5L0,-3.0L2.5,-0.5"/>
                </g>
                <g id="arrowRight" xlink:href="#dirArrow" transform="rotate(90) translate(36 -43)" onmousedown="handlePan(1,0)">
                  <use xlink:href="#rim" fill="#404040">
                        <set attributeName="fill" to="#808080" begin="arrowRight.mouseover" end="arrowRight.mouseout"/>
                  </use>
                  <path fill="none" stroke="white" stroke-width="1.5" d="M0,-3.0v7 M-2.5,-0.5L0,-3.0L2.5,-0.5"/>
                </g>
                <g id="arrowDown" xlink:href="#dirArrow" transform="rotate(180) translate(-30 -48)" onmousedown="handlePan(0,1)">
                  <use xlink:href="#rim" fill="#404040">
                        <set attributeName="fill" to="#808080" begin="arrowDown.mouseover" end="arrowDown.mouseout"/>
                  </use>
                  <path fill="none" stroke="white" stroke-width="1.5" d="M0,-3.0v7 M-2.5,-0.5L0,-3.0L2.5,-0.5"/>
                </g>
                <g id="arrowLeft" xlink:href="#dirArrow" transform="rotate(270) translate(-36 17)" onmousedown="handlePan(-1,0)">
                  <use xlink:href="#rim" fill="#404040">
                        <set attributeName="fill" to="#808080" begin="arrowLeft.mouseover" end="arrowLeft.mouseout"/>
                  </use>
                  <path fill="none" stroke="white" stroke-width="1.5" d="M0,-3.0v7 M-2.5,-0.5L0,-3.0L2.5,-0.5"/>
                </g>
        </g>
        <svg viewBox="0 0 15 15" width="100%" height="30px" preserveAspectRatio="xMaxYMin meet">
         <g id="arrow_out" transform="scale(0.3 0.3)">
          <a xlink:href="a00759_org.svg" target="_base">
           <rect id="button" ry="5" rx="5" y="6" x="6" height="38" width="38"
                fill="#f2f5e9" fill-opacity="0.5" stroke="#606060" stroke-width="1.0"/>
           <path id="arrow"
             d="M 11.500037,31.436501 C 11.940474,20.09759 22.043105,11.32322 32.158766,21.979434 L 37.068811,17.246167 C 37.068811,17.246167 37.088388,32 37.088388,32 L 22.160133,31.978069 C 22.160133,31.978069 26.997745,27.140456 26.997745,27.140456 C 18.528582,18.264221 13.291696,25.230495 11.500037,31.436501 z"
             style="fill:#404040;"/>
          </a>
         </g>
        </svg>
</svg>
