<?xml version="1.0" encoding="UTF-8" standalone="no"?>
<!DOCTYPE svg PUBLIC "-//W3C//DTD SVG 1.1//EN"
 "http://www.w3.org/Graphics/SVG/1.1/DTD/svg11.dtd">
<!-- Generated by graphviz version 2.26.3 (20100126.1600)
 -->
<!-- Title: Urho3D::SoundSource3D Pages: 1 -->
<!--zoomable 733 -->
<svg id="main" version="1.1" xmlns="http://www.w3.org/2000/svg" xmlns:xlink="http://www.w3.org/1999/xlink" xml:space="preserve" onload="init(evt)">
        <defs>
                <circle id="rim" cx="0" cy="0" r="7"/>
                <circle id="rim2" cx="0" cy="0" r="3.5"/>
                <g id="zoomPlus">
                        <use xlink:href="#rim" fill="#404040">
                                <set attributeName="fill" to="#808080" begin="zoomplus.mouseover" end="zoomplus.mouseout"/>
                        </use>
                        <path d="M-4,0h8M0,-4v8" fill="none" stroke="white" stroke-width="1.5" pointer-events="none"/>
                </g>
                <g id="zoomMin">
                        <use xlink:href="#rim" fill="#404040">
                                <set attributeName="fill" to="#808080" begin="zoomminus.mouseover" end="zoomminus.mouseout"/>
                        </use>
                        <path d="M-4,0h8" fill="none" stroke="white" stroke-width="1.5" pointer-events="none"/>
                </g>
                <g id="dirArrow">
                        <path fill="none" stroke="white" stroke-width="1.5" d="M0,-3.0v7 M-2.5,-0.5L0,-3.0L2.5,-0.5"/>
                </g>
               <g id="resetDef">
                       <use xlink:href="#rim2" fill="#404040">
                               <set attributeName="fill" to="#808080" begin="reset.mouseover" end="reset.mouseout"/>
                       </use>
               </g>
        </defs>

<script type="text/javascript">
var viewWidth = 1414;
var viewHeight = 733;
var sectionId = 'dynsection-1';
</script>
<script xlink:href="svgpan.js"/>
<svg id="graph" class="graph">
<g id="viewport">
<title>Urho3D::SoundSource3D</title>
<!-- Node1 -->
<g id="node1" class="node"><title>Node1</title>
<polygon fill="#bfbfbf" stroke="black" points="1268.5,-149.5 1268.5,-170.5 1405.5,-170.5 1405.5,-149.5 1268.5,-149.5"/>
<text text-anchor="middle" x="1337" y="-157.5" font-family="FreeSans" font-size="10.00">Urho3D::SoundSource3D</text>
</g>
<!-- Node2 -->
<g id="node2" class="node"><title>Node2</title>
<a xlink:href="a00308.html" target="_top" xlink:title="Sound source component with stereo position.">
<polygon fill="none" stroke="black" points="1106,-149.5 1106,-170.5 1230,-170.5 1230,-149.5 1106,-149.5"/>
<text text-anchor="middle" x="1168" y="-157.5" font-family="FreeSans" font-size="10.00">Urho3D::SoundSource</text>
</a>
</g>
<!-- Node2&#45;&gt;Node1 -->
<g id="edge2" class="edge"><title>Node2&#45;&gt;Node1</title>
<path fill="none" stroke="midnightblue" d="M1240.68,-160C1249.83,-160 1259.18,-160 1268.27,-160"/>
<polygon fill="midnightblue" stroke="midnightblue" points="1240.45,-156.5 1230.45,-160 1240.45,-163.5 1240.45,-156.5"/>
</g>
<!-- Node3 -->
<g id="node4" class="node"><title>Node3</title>
<a xlink:href="a00098.html" target="_top" xlink:title="Base class for components. Components can be created to scene nodes.">
<polygon fill="none" stroke="black" points="868,-175.5 868,-196.5 984,-196.5 984,-175.5 868,-175.5"/>
<text text-anchor="middle" x="926" y="-183.5" font-family="FreeSans" font-size="10.00">Urho3D::Component</text>
</a>
</g>
<!-- Node3&#45;&gt;Node2 -->
<g id="edge4" class="edge"><title>Node3&#45;&gt;Node2</title>
<path fill="none" stroke="midnightblue" d="M994.391,-178.652C1029.33,-174.899 1071.53,-170.365 1105.57,-166.707"/>
<polygon fill="midnightblue" stroke="midnightblue" points="993.842,-175.191 984.273,-179.739 994.59,-182.151 993.842,-175.191"/>
</g>
<!-- Node4 -->
<g id="node6" class="node"><title>Node4</title>
<a xlink:href="a00291.html" target="_top" xlink:title="Base class for objects with automatic serialization through attributes.">
<polygon fill="none" stroke="black" points="343,-162.5 343,-183.5 457,-183.5 457,-162.5 343,-162.5"/>
<text text-anchor="middle" x="400" y="-170.5" font-family="FreeSans" font-size="10.00">Urho3D::Serializable</text>
</a>
</g>
<!-- Node4&#45;&gt;Node3 -->
<g id="edge6" class="edge"><title>Node4&#45;&gt;Node3</title>
<path fill="none" stroke="midnightblue" d="M467.115,-174.659C571.169,-177.23 769.646,-182.136 867.912,-184.564"/>
<polygon fill="midnightblue" stroke="midnightblue" points="467.125,-171.158 457.042,-174.41 466.952,-178.156 467.125,-171.158"/>
</g>
<!-- Node8 -->
<g id="node14" class="node"><title>Node8</title>
<a xlink:href="a00221.html" target="_top" xlink:title="Scene node that may contain components and child nodes.">
<polygon fill="none" stroke="red" points="666.5,-318.5 666.5,-339.5 751.5,-339.5 751.5,-318.5 666.5,-318.5"/>
<text text-anchor="middle" x="709" y="-326.5" font-family="FreeSans" font-size="10.00">Urho3D::Node</text>
</a>
</g>
<!-- Node4&#45;&gt;Node8 -->
<g id="edge16" class="edge"><title>Node4&#45;&gt;Node8</title>
<path fill="none" stroke="midnightblue" d="M467.201,-178.886C512.667,-185.409 572.493,-199.136 618,-228 656.666,-252.525 688.989,-297.881 702.377,-318.413"/>
<polygon fill="midnightblue" stroke="midnightblue" points="467.523,-175.398 457.144,-177.526 466.585,-182.335 467.523,-175.398"/>
</g>
<!-- Node5 -->
<g id="node8" class="node"><title>Node5</title>
<a xlink:href="a00223.html" target="_top" xlink:title="Base class for objects with type identification, subsystem access and event sending/receiving capabil...">
<polygon fill="none" stroke="red" points="28,-353.5 28,-374.5 118,-374.5 118,-353.5 28,-353.5"/>
<text text-anchor="middle" x="73" y="-361.5" font-family="FreeSans" font-size="10.00">Urho3D::Object</text>
</a>
</g>
<!-- Node5&#45;&gt;Node4 -->
<g id="edge8" class="edge"><title>Node5&#45;&gt;Node4</title>
<path fill="none" stroke="midnightblue" d="M94.1502,-347.05C145.676,-305.884 275.155,-203.25 298,-193 311.912,-186.758 327.753,-182.458 342.734,-179.497"/>
<polygon fill="midnightblue" stroke="midnightblue" points="91.9251,-344.348 86.3015,-353.327 96.2971,-349.815 91.9251,-344.348"/>
</g>
<!-- Node20 -->
<g id="node46" class="node"><title>Node20</title>
<a xlink:href="a00069.html" target="_top" xlink:title="Audio subsystem.">
<polygon fill="none" stroke="red" points="357,-703.5 357,-724.5 443,-724.5 443,-703.5 357,-703.5"/>
<text text-anchor="middle" x="400" y="-711.5" font-family="FreeSans" font-size="10.00">Urho3D::Audio</text>
</a>
</g>
<!-- Node5&#45;&gt;Node20 -->
<g id="edge56" class="edge"><title>Node5&#45;&gt;Node20</title>
<path fill="none" stroke="midnightblue" d="M80.4298,-384.426C102.954,-443.237 176.475,-613.859 298,-694 315.249,-705.375 337.473,-710.576 356.771,-712.85"/>
<polygon fill="midnightblue" stroke="midnightblue" points="83.6058,-382.927 76.8173,-374.793 77.0515,-385.385 83.6058,-382.927"/>
</g>
<!-- Node6 -->
<g id="node10" class="node"><title>Node6</title>
<a xlink:href="a00162.html" target="_top" xlink:title="Hash map template class.">
<polygon fill="none" stroke="red" points="0,-142.5 0,-163.5 146,-163.5 146,-142.5 0,-142.5"/>
<text text-anchor="middle" x="73" y="-150.5" font-family="FreeSans" font-size="10.00">Urho3D::HashMap&lt; T, U &gt;</text>
</a>
</g>
<!-- Node6&#45;&gt;Node4 -->
<g id="edge10" class="edge"><title>Node6&#45;&gt;Node4</title>
<path fill="none" stroke="#9a32cd" stroke-dasharray="5,2" d="M156.804,-153.118C194.502,-153.662 239.531,-154.99 280,-158 300.519,-159.526 322.913,-162.082 342.741,-164.656"/>
<polygon fill="#9a32cd" stroke="#9a32cd" points="156.419,-149.613 146.375,-152.985 156.329,-156.613 156.419,-149.613"/>
<text text-anchor="middle" x="222" y="-162" font-family="FreeSans" font-size="10.00"> instanceDefaultValues_</text>
</g>
<!-- Node7 -->
<g id="node12" class="node"><title>Node7</title>
<a xlink:href="a00216.html" target="_top" xlink:title="Per&#45;object attribute state for network replication, allocated on demand.">
<polygon fill="none" stroke="red" points="10.5,-182.5 10.5,-203.5 135.5,-203.5 135.5,-182.5 10.5,-182.5"/>
<text text-anchor="middle" x="73" y="-190.5" font-family="FreeSans" font-size="10.00">Urho3D::NetworkState</text>
</a>
</g>
<!-- Node7&#45;&gt;Node4 -->
<g id="edge12" class="edge"><title>Node7&#45;&gt;Node4</title>
<path fill="none" stroke="#9a32cd" stroke-dasharray="5,2" d="M145.729,-188.552C205.147,-184.918 287.979,-179.851 342.751,-176.501"/>
<polygon fill="#9a32cd" stroke="#9a32cd" points="145.43,-185.063 135.662,-189.167 145.857,-192.05 145.43,-185.063"/>
<text text-anchor="middle" x="222" y="-191" font-family="FreeSans" font-size="10.00"> networkState_</text>
</g>
<!-- Node8&#45;&gt;Node3 -->
<g id="edge14" class="edge"><title>Node8&#45;&gt;Node3</title>
<path fill="none" stroke="#9a32cd" stroke-dasharray="5,2" d="M733.487,-312.863C778.325,-283.316 872.453,-221.287 910.02,-196.531"/>
<polygon fill="#9a32cd" stroke="#9a32cd" points="731.381,-310.06 724.957,-318.485 735.232,-315.905 731.381,-310.06"/>
<text text-anchor="middle" x="819" y="-270" font-family="FreeSans" font-size="10.00"> node_</text>
</g>
<!-- Node8&#45;&gt;Node8 -->
<g id="edge44" class="edge"><title>Node8&#45;&gt;Node8</title>
<path fill="none" stroke="#9a32cd" stroke-dasharray="5,2" d="M688.728,-349.427C690.292,-354.349 697.049,-358 709,-358 728.121,-358 733.947,-348.653 726.478,-339.708"/>
<polygon fill="#9a32cd" stroke="#9a32cd" points="692.123,-350.286 691.522,-339.708 685.395,-348.352 692.123,-350.286"/>
<text text-anchor="middle" x="709" y="-362" font-family="FreeSans" font-size="10.00"> parent_</text>
</g>
<!-- Node10 -->
<g id="node19" class="node"><title>Node10</title>
<a xlink:href="a00279.html" target="_top" xlink:title="Root scene node, represents the whole scene.">
<polygon fill="none" stroke="red" points="881.5,-346.5 881.5,-367.5 970.5,-367.5 970.5,-346.5 881.5,-346.5"/>
<text text-anchor="middle" x="926" y="-354.5" font-family="FreeSans" font-size="10.00">Urho3D::Scene</text>
</a>
</g>
<!-- Node8&#45;&gt;Node10 -->
<g id="edge22" class="edge"><title>Node8&#45;&gt;Node10</title>
<path fill="none" stroke="midnightblue" d="M761.443,-337.453C774.055,-339.379 787.496,-341.344 800,-343 826.947,-346.568 857.218,-349.952 881.335,-352.499"/>
<polygon fill="midnightblue" stroke="midnightblue" points="761.956,-333.991 751.539,-335.923 760.887,-340.909 761.956,-333.991"/>
</g>
<!-- Node9 -->
<g id="node17" class="node"><title>Node9</title>
<a xlink:href="a00250.html" target="_top" xlink:title="Urho3D::PODVector\&lt;\l Urho3D::Node * \&gt;">
<polygon fill="none" stroke="red" points="340.5,-417 340.5,-451 459.5,-451 459.5,-417 340.5,-417"/>
<text text-anchor="start" x="348.5" y="-438" font-family="FreeSans" font-size="10.00">Urho3D::PODVector&lt;</text>
<text text-anchor="middle" x="400" y="-425" font-family="FreeSans" font-size="10.00"> Urho3D::Node * &gt;</text>
</a>
</g>
<!-- Node9&#45;&gt;Node8 -->
<g id="edge18" class="edge"><title>Node9&#45;&gt;Node8</title>
<path fill="none" stroke="#9a32cd" stroke-dasharray="5,2" d="M469.764,-419.191C513.17,-408.985 569.722,-393.87 618,-375 644.051,-364.818 672.609,-349.682 690.656,-339.586"/>
<polygon fill="#9a32cd" stroke="#9a32cd" points="468.821,-415.816 459.87,-421.486 470.403,-422.635 468.821,-415.816"/>
<text text-anchor="middle" x="569" y="-409" font-family="FreeSans" font-size="10.00"> dependencyNodes_</text>
</g>
<!-- Node10&#45;&gt;Node8 -->
<g id="edge20" class="edge"><title>Node10&#45;&gt;Node8</title>
<path fill="none" stroke="#9a32cd" stroke-dasharray="5,2" d="M888.996,-343.035C873.481,-337.869 855.103,-332.633 838,-330 809.445,-325.605 776.912,-325.385 751.661,-326.249"/>
<polygon fill="#9a32cd" stroke="#9a32cd" points="888.142,-346.442 898.737,-346.391 890.423,-339.824 888.142,-346.442"/>
<text text-anchor="middle" x="819" y="-334" font-family="FreeSans" font-size="10.00"> scene_</text>
</g>
<!-- Node11 -->
<g id="node22" class="node"><title>Node11</title>
<a xlink:href="a00323.html" target="_top" xlink:title="String class.">
<polygon fill="none" stroke="black" points="356,-592.5 356,-613.5 444,-613.5 444,-592.5 356,-592.5"/>
<text text-anchor="middle" x="400" y="-600.5" font-family="FreeSans" font-size="10.00">Urho3D::String</text>
</a>
</g>
<!-- Node11&#45;&gt;Node8 -->
<g id="edge42" class="edge"><title>Node11&#45;&gt;Node8</title>
<path fill="none" stroke="#9a32cd" stroke-dasharray="5,2" d="M454.327,-595.609C469.989,-592.61 486.915,-588.513 502,-583 510.596,-579.859 511.68,-576.811 520,-573 562.186,-553.675 584.214,-568.806 618,-537 679.13,-479.453 701.533,-373.674 707.334,-339.763"/>
<polygon fill="#9a32cd" stroke="#9a32cd" points="453.47,-592.207 444.249,-597.425 454.711,-599.096 453.47,-592.207"/>
<text text-anchor="middle" x="569" y="-577" font-family="FreeSans" font-size="10.00"> name_</text>
</g>
<!-- Node11&#45;&gt;Node10 -->
<g id="edge24" class="edge"><title>Node11&#45;&gt;Node10</title>
<path fill="none" stroke="#9a32cd" stroke-dasharray="5,2" d="M454.325,-606.966C499.555,-608.365 564.904,-605.899 618,-586 753.708,-535.139 881.144,-405.402 916.405,-367.529"/>
<polygon fill="#9a32cd" stroke="#9a32cd" points="454.264,-603.462 444.137,-606.576 453.996,-610.456 454.264,-603.462"/>
<text text-anchor="middle" x="709" y="-581" font-family="FreeSans" font-size="10.00"> fileName_</text>
</g>
<!-- Node11&#45;&gt;Node11 -->
<g id="edge26" class="edge"><title>Node11&#45;&gt;Node11</title>
<path fill="none" stroke="#9a32cd" stroke-dasharray="5,2" d="M368.741,-622.679C370.416,-627.975 380.835,-632 400,-632 429.203,-632 438.101,-622.653 426.693,-613.708"/>
<polygon fill="#9a32cd" stroke="#9a32cd" points="371.89,-624.208 373.307,-613.708 365.651,-621.032 371.89,-624.208"/>
<text text-anchor="middle" x="400" y="-636" font-family="FreeSans" font-size="10.00"> EMPTY</text>
</g>
<!-- Node12 -->
<g id="node25" class="node"><title>Node12</title>
<a xlink:href="a00255.html" target="_top" xlink:title="Rotation represented as a four&#45;dimensional normalized vector.">
<polygon fill="none" stroke="black" points="343.5,-346.5 343.5,-367.5 456.5,-367.5 456.5,-346.5 343.5,-346.5"/>
<text text-anchor="middle" x="400" y="-354.5" font-family="FreeSans" font-size="10.00">Urho3D::Quaternion</text>
</a>
</g>
<!-- Node12&#45;&gt;Node8 -->
<g id="edge28" class="edge"><title>Node12&#45;&gt;Node8</title>
<path fill="none" stroke="#9a32cd" stroke-dasharray="5,2" d="M466.887,-350.939C527.34,-345.461 614.525,-337.561 666.111,-332.886"/>
<polygon fill="#9a32cd" stroke="#9a32cd" points="466.319,-347.476 456.675,-351.864 466.95,-354.448 466.319,-347.476"/>
<text text-anchor="middle" x="569" y="-362" font-family="FreeSans" font-size="10.00"> worldRotation_</text>
<text text-anchor="middle" x="569" y="-349" font-family="FreeSans" font-size="10.00">rotation_</text>
</g>
<!-- Node12&#45;&gt;Node12 -->
<g id="edge30" class="edge"><title>Node12&#45;&gt;Node12</title>
<path fill="none" stroke="#9a32cd" stroke-dasharray="5,2" d="M368.741,-376.679C370.416,-381.975 380.835,-386 400,-386 429.203,-386 438.101,-376.653 426.693,-367.708"/>
<polygon fill="#9a32cd" stroke="#9a32cd" points="371.89,-378.208 373.307,-367.708 365.651,-375.032 371.89,-378.208"/>
<text text-anchor="middle" x="400" y="-390" font-family="FreeSans" font-size="10.00"> IDENTITY</text>
</g>
<!-- Node13 -->
<g id="node28" class="node"><title>Node13</title>
<a xlink:href="a00349.html" target="_top" xlink:title="Urho3D::Vector\&lt; Urho3D\l::WeakPtr\&lt; Urho3D::Component \&gt; \&gt;">
<polygon fill="none" stroke="red" points="303,-294 303,-328 497,-328 497,-294 303,-294"/>
<text text-anchor="start" x="311" y="-315" font-family="FreeSans" font-size="10.00">Urho3D::Vector&lt; Urho3D</text>
<text text-anchor="middle" x="400" y="-302" font-family="FreeSans" font-size="10.00">::WeakPtr&lt; Urho3D::Component &gt; &gt;</text>
</a>
</g>
<!-- Node13&#45;&gt;Node8 -->
<g id="edge32" class="edge"><title>Node13&#45;&gt;Node8</title>
<path fill="none" stroke="#9a32cd" stroke-dasharray="5,2" d="M507.55,-311.75C542.788,-312.586 582.103,-314.147 618,-317 633.726,-318.25 650.899,-320.328 666.046,-322.406"/>
<polygon fill="#9a32cd" stroke="#9a32cd" points="507.315,-308.244 497.241,-311.523 507.161,-315.242 507.315,-308.244"/>
<text text-anchor="middle" x="569" y="-321" font-family="FreeSans" font-size="10.00"> listeners_</text>
</g>
<!-- Node14 -->
<g id="node30" class="node"><title>Node14</title>
<a xlink:href="a00354.html" target="_top" xlink:title="Dynamically sized buffer that can be read and written to as a stream.">
<polygon fill="none" stroke="red" points="340.5,-254.5 340.5,-275.5 459.5,-275.5 459.5,-254.5 340.5,-254.5"/>
<text text-anchor="middle" x="400" y="-262.5" font-family="FreeSans" font-size="10.00">Urho3D::VectorBuffer</text>
</a>
</g>
<!-- Node14&#45;&gt;Node8 -->
<g id="edge34" class="edge"><title>Node14&#45;&gt;Node8</title>
<path fill="none" stroke="#9a32cd" stroke-dasharray="5,2" d="M470.006,-270.668C513.133,-275.134 569.303,-282.713 618,-295 641.384,-300.9 667.039,-310.818 685.13,-318.423"/>
<polygon fill="#9a32cd" stroke="#9a32cd" points="470.195,-267.169 459.896,-269.653 469.496,-274.134 470.195,-267.169"/>
<text text-anchor="middle" x="569" y="-299" font-family="FreeSans" font-size="10.00"> attrBuffer_</text>
</g>
<!-- Node15 -->
<g id="node32" class="node"><title>Node15</title>
<a xlink:href="a00349.html" target="_top" xlink:title="Urho3D::Vector\&lt; Urho3D\l::SharedPtr\&lt; Urho3D::Component \&gt; \&gt;">
<polygon fill="none" stroke="red" points="298.5,-202 298.5,-236 501.5,-236 501.5,-202 298.5,-202"/>
<text text-anchor="start" x="306.5" y="-223" font-family="FreeSans" font-size="10.00">Urho3D::Vector&lt; Urho3D</text>
<text text-anchor="middle" x="400" y="-210" font-family="FreeSans" font-size="10.00">::SharedPtr&lt; Urho3D::Component &gt; &gt;</text>
</a>
</g>
<!-- Node15&#45;&gt;Node8 -->
<g id="edge36" class="edge"><title>Node15&#45;&gt;Node8</title>
<path fill="none" stroke="#9a32cd" stroke-dasharray="5,2" d="M511.936,-229.898C546.93,-235.953 584.996,-245.367 618,-260 650.806,-274.545 682.713,-303.015 698.592,-318.448"/>
<polygon fill="#9a32cd" stroke="#9a32cd" points="512.107,-226.379 501.67,-228.201 510.966,-233.285 512.107,-226.379"/>
<text text-anchor="middle" x="569" y="-264" font-family="FreeSans" font-size="10.00"> components_</text>
</g>
<!-- Node16 -->
<g id="node34" class="node"><title>Node16</title>
<a xlink:href="a00351.html" target="_top" xlink:title="Three&#45;dimensional vector.">
<polygon fill="none" stroke="black" points="352,-0.5 352,-21.5 448,-21.5 448,-0.5 352,-0.5"/>
<text text-anchor="middle" x="400" y="-8.5" font-family="FreeSans" font-size="10.00">Urho3D::Vector3</text>
</a>
</g>
<!-- Node16&#45;&gt;Node8 -->
<g id="edge38" class="edge"><title>Node16&#45;&gt;Node8</title>
<path fill="none" stroke="#9a32cd" stroke-dasharray="5,2" d="M431.526,-26.1349C477.34,-49.3965 562.854,-97.74 618,-159 664.362,-210.502 695.246,-289.866 705.37,-318.36"/>
<polygon fill="#9a32cd" stroke="#9a32cd" points="432.886,-22.902 422.377,-21.5562 429.754,-29.1618 432.886,-22.902"/>
<text text-anchor="middle" x="569" y="-176" font-family="FreeSans" font-size="10.00"> scale_</text>
<text text-anchor="middle" x="569" y="-163" font-family="FreeSans" font-size="10.00">position_</text>
</g>
<!-- Node16&#45;&gt;Node16 -->
<g id="edge40" class="edge"><title>Node16&#45;&gt;Node16</title>
<path fill="none" stroke="#9a32cd" stroke-dasharray="5,2" d="M368.741,-30.6791C370.416,-35.9746 380.835,-40 400,-40 429.203,-40 438.101,-30.6531 426.693,-21.7079"/>
<polygon fill="#9a32cd" stroke="#9a32cd" points="371.89,-32.2076 373.307,-21.7079 365.651,-29.0325 371.89,-32.2076"/>
<text text-anchor="middle" x="400" y="-135" font-family="FreeSans" font-size="10.00"> ONE</text>
<text text-anchor="middle" x="400" y="-122" font-family="FreeSans" font-size="10.00">DOWN</text>
<text text-anchor="middle" x="400" y="-109" font-family="FreeSans" font-size="10.00">BACK</text>
<text text-anchor="middle" x="400" y="-96" font-family="FreeSans" font-size="10.00">RIGHT</text>
<text text-anchor="middle" x="400" y="-83" font-family="FreeSans" font-size="10.00">LEFT</text>
<text text-anchor="middle" x="400" y="-70" font-family="FreeSans" font-size="10.00">ZERO</text>
<text text-anchor="middle" x="400" y="-57" font-family="FreeSans" font-size="10.00">FORWARD</text>
<text text-anchor="middle" x="400" y="-44" font-family="FreeSans" font-size="10.00">UP</text>
</g>
<!-- Node17 -->
<g id="node39" class="node"><title>Node17</title>
<a xlink:href="a00324.html" target="_top" xlink:title="32&#45;bit hash value for a string.">
<polygon fill="none" stroke="black" points="343.5,-521.5 343.5,-542.5 456.5,-542.5 456.5,-521.5 343.5,-521.5"/>
<text text-anchor="middle" x="400" y="-529.5" font-family="FreeSans" font-size="10.00">Urho3D::StringHash</text>
</a>
</g>
<!-- Node17&#45;&gt;Node8 -->
<g id="edge46" class="edge"><title>Node17&#45;&gt;Node8</title>
<path fill="none" stroke="#9a32cd" stroke-dasharray="5,2" d="M466.794,-529.6C513.316,-524.848 574.568,-512.108 618,-479 667.901,-440.961 696.417,-367.013 705.653,-339.578"/>
<polygon fill="#9a32cd" stroke="#9a32cd" points="466.439,-526.118 456.803,-530.522 467.083,-533.088 466.439,-526.118"/>
<text text-anchor="middle" x="569" y="-524" font-family="FreeSans" font-size="10.00"> nameHash_</text>
</g>
<!-- Node17&#45;&gt;Node17 -->
<g id="edge48" class="edge"><title>Node17&#45;&gt;Node17</title>
<path fill="none" stroke="#9a32cd" stroke-dasharray="5,2" d="M368.741,-551.679C370.416,-556.975 380.835,-561 400,-561 429.203,-561 438.101,-551.653 426.693,-542.708"/>
<polygon fill="#9a32cd" stroke="#9a32cd" points="371.89,-553.208 373.307,-542.708 365.651,-550.032 371.89,-553.208"/>
<text text-anchor="middle" x="400" y="-565" font-family="FreeSans" font-size="10.00"> ZERO</text>
</g>
<!-- Node18 -->
<g id="node42" class="node"><title>Node18</title>
<a xlink:href="a00349.html" target="_top" xlink:title="Urho3D::Vector\&lt; Urho3D\l::SharedPtr\&lt; Urho3D::Node \&gt; \&gt;">
<polygon fill="none" stroke="red" points="313.5,-469 313.5,-503 486.5,-503 486.5,-469 313.5,-469"/>
<text text-anchor="start" x="321.5" y="-490" font-family="FreeSans" font-size="10.00">Urho3D::Vector&lt; Urho3D</text>
<text text-anchor="middle" x="400" y="-477" font-family="FreeSans" font-size="10.00">::SharedPtr&lt; Urho3D::Node &gt; &gt;</text>
</a>
</g>
<!-- Node18&#45;&gt;Node8 -->
<g id="edge50" class="edge"><title>Node18&#45;&gt;Node8</title>
<path fill="none" stroke="#9a32cd" stroke-dasharray="5,2" d="M496.714,-469.454C536.351,-459.747 581.41,-444.758 618,-422 654.637,-399.213 687.261,-358.659 701.465,-339.535"/>
<polygon fill="#9a32cd" stroke="#9a32cd" points="495.687,-466.1 486.762,-471.809 497.299,-472.912 495.687,-466.1"/>
<text text-anchor="middle" x="569" y="-466" font-family="FreeSans" font-size="10.00"> children_</text>
</g>
<!-- Node19 -->
<g id="node44" class="node"><title>Node19</title>
<a xlink:href="a00362.html" target="_top" xlink:title="Urho3D::WeakPtr\&lt; Urho3D\l::Audio \&gt;">
<polygon fill="none" stroke="black" points="636,-657 636,-691 782,-691 782,-657 636,-657"/>
<text text-anchor="start" x="644" y="-678" font-family="FreeSans" font-size="10.00">Urho3D::WeakPtr&lt; Urho3D</text>
<text text-anchor="middle" x="709" y="-665" font-family="FreeSans" font-size="10.00">::Audio &gt;</text>
</a>
</g>
<!-- Node19&#45;&gt;Node2 -->
<g id="edge52" class="edge"><title>Node19&#45;&gt;Node2</title>
<path fill="none" stroke="#9a32cd" stroke-dasharray="5,2" d="M734.064,-649.721C785.013,-600.013 903.662,-482.439 996,-377 1062.83,-300.692 1136.34,-202.757 1160.12,-170.684"/>
<polygon fill="#9a32cd" stroke="#9a32cd" points="731.488,-647.344 726.766,-656.829 736.371,-652.359 731.488,-647.344"/>
<text text-anchor="middle" x="926" y="-528" font-family="FreeSans" font-size="10.00"> audio_</text>
</g>
<!-- Node20&#45;&gt;Node19 -->
<g id="edge54" class="edge"><title>Node20&#45;&gt;Node19</title>
<path fill="none" stroke="#9a32cd" stroke-dasharray="5,2" d="M453.349,-709.094C497.559,-704.797 561.992,-697.998 618,-690 623.717,-689.184 629.625,-688.28 635.558,-687.331"/>
<polygon fill="#9a32cd" stroke="#9a32cd" points="452.74,-705.637 443.121,-710.079 453.41,-712.605 452.74,-705.637"/>
<text text-anchor="middle" x="569" y="-705" font-family="FreeSans" font-size="10.00"> ptr_</text>
</g>
<!-- Node21 -->
<g id="node49" class="node"><title>Node21</title>
<a xlink:href="a00263.html" target="_top" xlink:title="Reference count structure.">
<polygon fill="none" stroke="black" points="349,-663.5 349,-684.5 451,-684.5 451,-663.5 349,-663.5"/>
<text text-anchor="middle" x="400" y="-671.5" font-family="FreeSans" font-size="10.00">Urho3D::RefCount</text>
</a>
</g>
<!-- Node21&#45;&gt;Node19 -->
<g id="edge58" class="edge"><title>Node21&#45;&gt;Node19</title>
<path fill="none" stroke="#9a32cd" stroke-dasharray="5,2" d="M461.096,-674C511.336,-674 582.671,-674 635.93,-674"/>
<polygon fill="#9a32cd" stroke="#9a32cd" points="461.025,-670.5 451.025,-674 461.025,-677.5 461.025,-670.5"/>
<text text-anchor="middle" x="569" y="-678" font-family="FreeSans" font-size="10.00"> refCount_</text>
</g>
<!-- Node22 -->
<g id="node51" class="node"><title>Node22</title>
<a xlink:href="a00300.html" target="_top" xlink:title="Urho3D::SharedPtr\&lt;\l Urho3D::SoundStream \&gt;">
<polygon fill="none" stroke="black" points="856,-123 856,-157 996,-157 996,-123 856,-123"/>
<text text-anchor="start" x="864" y="-144" font-family="FreeSans" font-size="10.00">Urho3D::SharedPtr&lt;</text>
<text text-anchor="middle" x="926" y="-131" font-family="FreeSans" font-size="10.00"> Urho3D::SoundStream &gt;</text>
</a>
</g>
<!-- Node22&#45;&gt;Node2 -->
<g id="edge60" class="edge"><title>Node22&#45;&gt;Node2</title>
<path fill="none" stroke="#9a32cd" stroke-dasharray="5,2" d="M1006.45,-143.967C1032.5,-145.519 1061.5,-147.528 1088,-150 1093.71,-150.533 1099.65,-151.152 1105.59,-151.815"/>
<polygon fill="#9a32cd" stroke="#9a32cd" points="1006.43,-140.461 996.245,-143.374 1006.03,-147.449 1006.43,-140.461"/>
<text text-anchor="middle" x="1051" y="-154" font-family="FreeSans" font-size="10.00"> soundStream_</text>
</g>
<!-- Node23 -->
<g id="node53" class="node"><title>Node23</title>
<a xlink:href="a00310.html" target="_top" xlink:title="Base class for sound streams.">
<polygon fill="none" stroke="red" points="646,-123.5 646,-144.5 772,-144.5 772,-123.5 646,-123.5"/>
<text text-anchor="middle" x="709" y="-131.5" font-family="FreeSans" font-size="10.00">Urho3D::SoundStream</text>
</a>
</g>
<!-- Node23&#45;&gt;Node22 -->
<g id="edge62" class="edge"><title>Node23&#45;&gt;Node22</title>
<path fill="none" stroke="#9a32cd" stroke-dasharray="5,2" d="M782.099,-136.021C805.934,-136.68 832.327,-137.41 855.934,-138.063"/>
<polygon fill="#9a32cd" stroke="#9a32cd" points="782.15,-132.521 772.057,-135.744 781.956,-139.519 782.15,-132.521"/>
<text text-anchor="middle" x="819" y="-142" font-family="FreeSans" font-size="10.00"> ptr_</text>
</g>
<!-- Node24 -->
<g id="node55" class="node"><title>Node24</title>
<a xlink:href="a00300.html" target="_top" xlink:title="Urho3D::SharedPtr\&lt;\l Urho3D::Sound \&gt;">
<polygon fill="none" stroke="black" points="868,-71 868,-105 984,-105 984,-71 868,-71"/>
<text text-anchor="start" x="876" y="-92" font-family="FreeSans" font-size="10.00">Urho3D::SharedPtr&lt;</text>
<text text-anchor="middle" x="926" y="-79" font-family="FreeSans" font-size="10.00"> Urho3D::Sound &gt;</text>
</a>
</g>
<!-- Node24&#45;&gt;Node2 -->
<g id="edge64" class="edge"><title>Node24&#45;&gt;Node2</title>
<path fill="none" stroke="#9a32cd" stroke-dasharray="5,2" d="M994.374,-94.059C1023.78,-98.0182 1058.17,-104.489 1088,-115 1112.05,-123.473 1137.29,-138.933 1152.83,-149.336"/>
<polygon fill="#9a32cd" stroke="#9a32cd" points="994.561,-90.5545 984.198,-92.7609 993.675,-97.4983 994.561,-90.5545"/>
<text text-anchor="middle" x="1051" y="-132" font-family="FreeSans" font-size="10.00"> streamBuffer_</text>
<text text-anchor="middle" x="1051" y="-119" font-family="FreeSans" font-size="10.00">sound_</text>
</g>
<!-- Node25 -->
<g id="node57" class="node"><title>Node25</title>
<a xlink:href="a00306.html" target="_top" xlink:title="Sound resource.">
<polygon fill="none" stroke="red" points="664,-77.5 664,-98.5 754,-98.5 754,-77.5 664,-77.5"/>
<text text-anchor="middle" x="709" y="-85.5" font-family="FreeSans" font-size="10.00">Urho3D::Sound</text>
</a>
</g>
<!-- Node25&#45;&gt;Node24 -->
<g id="edge66" class="edge"><title>Node25&#45;&gt;Node24</title>
<path fill="none" stroke="#9a32cd" stroke-dasharray="5,2" d="M764.603,-88C796.159,-88 835.619,-88 867.622,-88"/>
<polygon fill="#9a32cd" stroke="#9a32cd" points="764.226,-84.5001 754.226,-88 764.226,-91.5001 764.226,-84.5001"/>
<text text-anchor="middle" x="819" y="-92" font-family="FreeSans" font-size="10.00"> ptr_</text>
</g>
</g>
</svg>
        <g id="navigator" transform="translate(0 0)" fill="#404254">
                <rect fill="#f2f5e9" fill-opacity="0.5" stroke="#606060" stroke-width=".5" x="0" y="0" width="60" height="60"/>
                <use id="zoomplus" xlink:href="#zoomPlus" x="17" y="9" onmousedown="handleZoom(evt,'in')"/>
                <use id="zoomminus" xlink:href="#zoomMin" x="42" y="9" onmousedown="handleZoom(evt,'out')"/>
                <use id="reset" xlink:href="#resetDef" x="30" y="36" onmousedown="handleReset()"/>
                <g id="arrowUp" xlink:href="#dirArrow" transform="translate(30 24)" onmousedown="handlePan(0,-1)">
                  <use xlink:href="#rim" fill="#404040">
                        <set attributeName="fill" to="#808080" begin="arrowUp.mouseover" end="arrowUp.mouseout"/>
                  </use>
                  <path fill="none" stroke="white" stroke-width="1.5" d="M0,-3.0v7 M-2.5,-0.5L0,-3.0L2.5,-0.5"/>
                </g>
                <g id="arrowRight" xlink:href="#dirArrow" transform="rotate(90) translate(36 -43)" onmousedown="handlePan(1,0)">
                  <use xlink:href="#rim" fill="#404040">
                        <set attributeName="fill" to="#808080" begin="arrowRight.mouseover" end="arrowRight.mouseout"/>
                  </use>
                  <path fill="none" stroke="white" stroke-width="1.5" d="M0,-3.0v7 M-2.5,-0.5L0,-3.0L2.5,-0.5"/>
                </g>
                <g id="arrowDown" xlink:href="#dirArrow" transform="rotate(180) translate(-30 -48)" onmousedown="handlePan(0,1)">
                  <use xlink:href="#rim" fill="#404040">
                        <set attributeName="fill" to="#808080" begin="arrowDown.mouseover" end="arrowDown.mouseout"/>
                  </use>
                  <path fill="none" stroke="white" stroke-width="1.5" d="M0,-3.0v7 M-2.5,-0.5L0,-3.0L2.5,-0.5"/>
                </g>
                <g id="arrowLeft" xlink:href="#dirArrow" transform="rotate(270) translate(-36 17)" onmousedown="handlePan(-1,0)">
                  <use xlink:href="#rim" fill="#404040">
                        <set attributeName="fill" to="#808080" begin="arrowLeft.mouseover" end="arrowLeft.mouseout"/>
                  </use>
                  <path fill="none" stroke="white" stroke-width="1.5" d="M0,-3.0v7 M-2.5,-0.5L0,-3.0L2.5,-0.5"/>
                </g>
        </g>
        <svg viewBox="0 0 15 15" width="100%" height="30px" preserveAspectRatio="xMaxYMin meet">
         <g id="arrow_out" transform="scale(0.3 0.3)">
          <a xlink:href="a00832_org.svg" target="_base">
           <rect id="button" ry="5" rx="5" y="6" x="6" height="38" width="38"
                fill="#f2f5e9" fill-opacity="0.5" stroke="#606060" stroke-width="1.0"/>
           <path id="arrow"
             d="M 11.500037,31.436501 C 11.940474,20.09759 22.043105,11.32322 32.158766,21.979434 L 37.068811,17.246167 C 37.068811,17.246167 37.088388,32 37.088388,32 L 22.160133,31.978069 C 22.160133,31.978069 26.997745,27.140456 26.997745,27.140456 C 18.528582,18.264221 13.291696,25.230495 11.500037,31.436501 z"
             style="fill:#404040;"/>
          </a>
         </g>
        </svg>
</svg>
