<?xml version="1.0" encoding="UTF-8" standalone="no"?>
<!DOCTYPE svg PUBLIC "-//W3C//DTD SVG 1.1//EN"
 "http://www.w3.org/Graphics/SVG/1.1/DTD/svg11.dtd">
<!-- Generated by graphviz version 2.26.3 (20100126.1600)
 -->
<!-- Title: Urho3D::SoundListener Pages: 1 -->
<!--zoomable 830 -->
<svg id="main" version="1.1" xmlns="http://www.w3.org/2000/svg" xmlns:xlink="http://www.w3.org/1999/xlink" xml:space="preserve" onload="init(evt)">
        <defs>
                <circle id="rim" cx="0" cy="0" r="7"/>
                <circle id="rim2" cx="0" cy="0" r="3.5"/>
                <g id="zoomPlus">
                        <use xlink:href="#rim" fill="#404040">
                                <set attributeName="fill" to="#808080" begin="zoomplus.mouseover" end="zoomplus.mouseout"/>
                        </use>
                        <path d="M-4,0h8M0,-4v8" fill="none" stroke="white" stroke-width="1.5" pointer-events="none"/>
                </g>
                <g id="zoomMin">
                        <use xlink:href="#rim" fill="#404040">
                                <set attributeName="fill" to="#808080" begin="zoomminus.mouseover" end="zoomminus.mouseout"/>
                        </use>
                        <path d="M-4,0h8" fill="none" stroke="white" stroke-width="1.5" pointer-events="none"/>
                </g>
                <g id="dirArrow">
                        <path fill="none" stroke="white" stroke-width="1.5" d="M0,-3.0v7 M-2.5,-0.5L0,-3.0L2.5,-0.5"/>
                </g>
               <g id="resetDef">
                       <use xlink:href="#rim2" fill="#404040">
                               <set attributeName="fill" to="#808080" begin="reset.mouseover" end="reset.mouseout"/>
                       </use>
               </g>
        </defs>

<script type="text/javascript">
var viewWidth = 1918;
var viewHeight = 830;
var sectionId = 'dynsection-1';
</script>
<script xlink:href="svgpan.js"/>
<svg id="graph" class="graph">
<g id="viewport">
<title>Urho3D::SoundListener</title>
<!-- Node1 -->
<g id="node1" class="node"><title>Node1</title>
<polygon fill="#bfbfbf" stroke="black" points="1782,-686.5 1782,-707.5 1910,-707.5 1910,-686.5 1782,-686.5"/>
<text text-anchor="middle" x="1846" y="-694.5" font-family="FreeSans" font-size="10.00">Urho3D::SoundListener</text>
</g>
<!-- Node2 -->
<g id="node2" class="node"><title>Node2</title>
<a xlink:href="a00099.html" target="_top" xlink:title="Base class for components. Components can be created to scene nodes.">
<polygon fill="none" stroke="black" points="1628,-686.5 1628,-707.5 1744,-707.5 1744,-686.5 1628,-686.5"/>
<text text-anchor="middle" x="1686" y="-694.5" font-family="FreeSans" font-size="10.00">Urho3D::Component</text>
</a>
</g>
<!-- Node2&#45;&gt;Node1 -->
<g id="edge2" class="edge"><title>Node2&#45;&gt;Node1</title>
<path fill="none" stroke="midnightblue" d="M1754.4,-697C1763.51,-697 1772.84,-697 1781.88,-697"/>
<polygon fill="midnightblue" stroke="midnightblue" points="1754.22,-693.5 1744.22,-697 1754.22,-700.5 1754.22,-693.5"/>
</g>
<!-- Node3 -->
<g id="node4" class="node"><title>Node3</title>
<a xlink:href="a00282.html" target="_top" xlink:title="Base class for scene objects.">
<polygon fill="none" stroke="black" points="1118,-794.5 1118,-815.5 1238,-815.5 1238,-794.5 1118,-794.5"/>
<text text-anchor="middle" x="1178" y="-802.5" font-family="FreeSans" font-size="10.00">Urho3D::SceneObject</text>
</a>
</g>
<!-- Node3&#45;&gt;Node2 -->
<g id="edge4" class="edge"><title>Node3&#45;&gt;Node2</title>
<path fill="none" stroke="midnightblue" d="M1248.17,-815.36C1337.2,-825.17 1493.21,-831.01 1610,-774 1641.4,-758.675 1667.29,-724.971 1679.1,-707.685"/>
<polygon fill="midnightblue" stroke="midnightblue" points="1248.52,-811.876 1238.18,-814.211 1247.72,-818.831 1248.52,-811.876"/>
</g>
<!-- Node11 -->
<g id="node22" class="node"><title>Node11</title>
<a xlink:href="a00220.html" target="_top" xlink:title="Scene node that may contain components and child nodes.">
<polygon fill="none" stroke="black" points="1436.5,-386.5 1436.5,-407.5 1521.5,-407.5 1521.5,-386.5 1436.5,-386.5"/>
<text text-anchor="middle" x="1479" y="-394.5" font-family="FreeSans" font-size="10.00">Urho3D::Node</text>
</a>
</g>
<!-- Node3&#45;&gt;Node11 -->
<g id="edge26" class="edge"><title>Node3&#45;&gt;Node11</title>
<path fill="none" stroke="midnightblue" d="M1248.19,-803.492C1303.6,-800.802 1374.95,-793.514 1396,-774 1452.02,-722.052 1474.09,-463.595 1478.25,-407.679"/>
<polygon fill="midnightblue" stroke="midnightblue" points="1247.88,-800.002 1238.05,-803.943 1248.19,-806.995 1247.88,-800.002"/>
</g>
<!-- Node4 -->
<g id="node6" class="node"><title>Node4</title>
<a xlink:href="a00294.html" target="_top" xlink:title="Base class for objects with automatic serialization through attributes.">
<polygon fill="none" stroke="black" points="839,-682.5 839,-703.5 953,-703.5 953,-682.5 839,-682.5"/>
<text text-anchor="middle" x="896" y="-690.5" font-family="FreeSans" font-size="10.00">Urho3D::Serializable</text>
</a>
</g>
<!-- Node4&#45;&gt;Node3 -->
<g id="edge6" class="edge"><title>Node4&#45;&gt;Node3</title>
<path fill="none" stroke="midnightblue" d="M909.226,-711.818C923.144,-730.068 946.781,-756.993 974,-771 1018.7,-794.001 1075.52,-802.013 1117.83,-804.552"/>
<polygon fill="midnightblue" stroke="midnightblue" points="911.955,-709.621 903.202,-703.65 906.321,-713.776 911.955,-709.621"/>
</g>
<!-- Node5 -->
<g id="node8" class="node"><title>Node5</title>
<a xlink:href="a00225.html" target="_top" xlink:title="Base class for objects with type identification, subsystem access and event sending/receiving capabil...">
<polygon fill="none" stroke="red" points="516,-544.5 516,-565.5 606,-565.5 606,-544.5 516,-544.5"/>
<text text-anchor="middle" x="561" y="-552.5" font-family="FreeSans" font-size="10.00">Urho3D::Object</text>
</a>
</g>
<!-- Node5&#45;&gt;Node4 -->
<g id="edge8" class="edge"><title>Node5&#45;&gt;Node4</title>
<path fill="none" stroke="midnightblue" d="M616.725,-558.311C673.659,-564.473 761.504,-582.037 818,-632 832.908,-645.184 821.296,-659.589 836,-673 840.219,-676.848 845.199,-679.957 850.458,-682.47"/>
<polygon fill="midnightblue" stroke="midnightblue" points="616.766,-554.798 606.468,-557.288 616.071,-561.763 616.766,-554.798"/>
</g>
<!-- Node24 -->
<g id="node61" class="node"><title>Node24</title>
<a xlink:href="a00103.html" target="_top" xlink:title="Connection to a remote network host.">
<polygon fill="none" stroke="red" points="1121.5,-470.5 1121.5,-491.5 1234.5,-491.5 1234.5,-470.5 1121.5,-470.5"/>
<text text-anchor="middle" x="1178" y="-478.5" font-family="FreeSans" font-size="10.00">Urho3D::Connection</text>
</a>
</g>
<!-- Node5&#45;&gt;Node24 -->
<g id="edge78" class="edge"><title>Node5&#45;&gt;Node24</title>
<path fill="none" stroke="midnightblue" d="M616.378,-552.643C708.528,-548.128 898.941,-536.274 1058,-510 1061.95,-509.347 1102.21,-499.567 1135.03,-491.542"/>
<polygon fill="midnightblue" stroke="midnightblue" points="615.99,-549.158 606.169,-553.133 616.325,-556.149 615.99,-549.158"/>
</g>
<!-- Node6 -->
<g id="node10" class="node"><title>Node6</title>
<a xlink:href="a00163.html" target="_top" xlink:title="Hash map template class.">
<polygon fill="none" stroke="black" points="334,-682.5 334,-703.5 480,-703.5 480,-682.5 334,-682.5"/>
<text text-anchor="middle" x="407" y="-690.5" font-family="FreeSans" font-size="10.00">Urho3D::HashMap&lt; T, U &gt;</text>
</a>
</g>
<!-- Node6&#45;&gt;Node4 -->
<g id="edge10" class="edge"><title>Node6&#45;&gt;Node4</title>
<path fill="none" stroke="#9a32cd" stroke-dasharray="5,2" d="M490.5,-693C589.755,-693 752.735,-693 838.735,-693"/>
<polygon fill="#9a32cd" stroke="#9a32cd" points="490.208,-689.5 480.208,-693 490.208,-696.5 490.208,-689.5"/>
<text text-anchor="middle" x="561" y="-697" font-family="FreeSans" font-size="10.00"> instanceDefaultValues_</text>
</g>
<!-- Node7 -->
<g id="node12" class="node"><title>Node7</title>
<a xlink:href="a00161.html" target="_top" xlink:title="Hash set/map base class.">
<polygon fill="none" stroke="red" points="0,-682.5 0,-703.5 108,-703.5 108,-682.5 0,-682.5"/>
<text text-anchor="middle" x="54" y="-690.5" font-family="FreeSans" font-size="10.00">Urho3D::HashBase</text>
</a>
</g>
<!-- Node7&#45;&gt;Node6 -->
<g id="edge12" class="edge"><title>Node7&#45;&gt;Node6</title>
<path fill="none" stroke="midnightblue" d="M118.623,-693C179.436,-693 270.395,-693 333.846,-693"/>
<polygon fill="midnightblue" stroke="midnightblue" points="118.383,-689.5 108.383,-693 118.383,-696.5 118.383,-689.5"/>
</g>
<!-- Node9 -->
<g id="node16" class="node"><title>Node9</title>
<a xlink:href="a00163.html" target="_top" xlink:title="Urho3D::HashMap\&lt; ShortString\lHash, Variant \&gt;">
<polygon fill="none" stroke="black" points="146,-482 146,-516 316,-516 316,-482 146,-482"/>
<text text-anchor="start" x="154" y="-503" font-family="FreeSans" font-size="10.00">Urho3D::HashMap&lt; ShortString</text>
<text text-anchor="middle" x="231" y="-490" font-family="FreeSans" font-size="10.00">Hash, Variant &gt;</text>
</a>
</g>
<!-- Node7&#45;&gt;Node9 -->
<g id="edge18" class="edge"><title>Node7&#45;&gt;Node9</title>
<path fill="none" stroke="midnightblue" d="M70.7461,-674.646C104.933,-637.175 182.317,-552.358 215.46,-516.032"/>
<polygon fill="midnightblue" stroke="midnightblue" points="67.9229,-672.547 63.7684,-682.293 73.094,-677.265 67.9229,-672.547"/>
</g>
<!-- Node10 -->
<g id="node19" class="node"><title>Node10</title>
<a xlink:href="a00163.html" target="_top" xlink:title="Urho3D::HashMap\&lt; const\l Urho3D::AttributeInfo\l *, Urho3D::SharedPtr\&lt;\l Urho3D::AttributeAnimation \&gt; \&gt;">
<polygon fill="none" stroke="black" points="642,-744 642,-804 818,-804 818,-744 642,-744"/>
<text text-anchor="start" x="650" y="-791" font-family="FreeSans" font-size="10.00">Urho3D::HashMap&lt; const</text>
<text text-anchor="start" x="650" y="-778" font-family="FreeSans" font-size="10.00"> Urho3D::AttributeInfo</text>
<text text-anchor="start" x="650" y="-765" font-family="FreeSans" font-size="10.00"> *, Urho3D::SharedPtr&lt;</text>
<text text-anchor="middle" x="730" y="-752" font-family="FreeSans" font-size="10.00"> Urho3D::AttributeAnimation &gt; &gt;</text>
</a>
</g>
<!-- Node7&#45;&gt;Node10 -->
<g id="edge22" class="edge"><title>Node7&#45;&gt;Node10</title>
<path fill="none" stroke="midnightblue" d="M115.479,-705.3C119.033,-705.904 122.56,-706.476 126,-707 308.655,-734.841 524.061,-755.945 641.932,-766.5"/>
<polygon fill="midnightblue" stroke="midnightblue" points="115.889,-701.819 105.434,-703.53 114.674,-708.712 115.889,-701.819"/>
</g>
<!-- Node8 -->
<g id="node14" class="node"><title>Node8</title>
<a xlink:href="a00218.html" target="_top" xlink:title="Per&#45;object attribute state for network replication, allocated on demand.">
<polygon fill="none" stroke="red" points="498.5,-618.5 498.5,-639.5 623.5,-639.5 623.5,-618.5 498.5,-618.5"/>
<text text-anchor="middle" x="561" y="-626.5" font-family="FreeSans" font-size="10.00">Urho3D::NetworkState</text>
</a>
</g>
<!-- Node8&#45;&gt;Node4 -->
<g id="edge14" class="edge"><title>Node8&#45;&gt;Node4</title>
<path fill="none" stroke="#9a32cd" stroke-dasharray="5,2" d="M633.712,-635.01C685.664,-640.379 756.894,-649.945 818,-666 826.302,-668.181 827.926,-670.086 836,-673 844.882,-676.205 854.568,-679.514 863.515,-682.495"/>
<polygon fill="#9a32cd" stroke="#9a32cd" points="633.887,-631.51 623.587,-633.991 633.186,-638.474 633.887,-631.51"/>
<text text-anchor="middle" x="730" y="-670" font-family="FreeSans" font-size="10.00"> networkState_</text>
</g>
<!-- Node9&#45;&gt;Node8 -->
<g id="edge16" class="edge"><title>Node9&#45;&gt;Node8</title>
<path fill="none" stroke="#9a32cd" stroke-dasharray="5,2" d="M284.197,-519.956C355.627,-548.096 479.841,-597.028 534.215,-618.448"/>
<polygon fill="#9a32cd" stroke="#9a32cd" points="285.068,-516.538 274.481,-516.129 282.502,-523.051 285.068,-516.538"/>
<text text-anchor="middle" x="407" y="-598" font-family="FreeSans" font-size="10.00"> previousVars_</text>
</g>
<!-- Node9&#45;&gt;Node11 -->
<g id="edge74" class="edge"><title>Node9&#45;&gt;Node11</title>
<path fill="none" stroke="#9a32cd" stroke-dasharray="5,2" d="M252.338,-473.901C301.048,-419.587 426.643,-296 561,-296 561,-296 561,-296 1178,-296 1277.71,-296 1303.45,-311.885 1396,-349 1421.03,-359.038 1447.62,-375.593 1463.77,-386.398"/>
<polygon fill="#9a32cd" stroke="#9a32cd" points="249.452,-471.881 245.453,-481.692 254.698,-476.516 249.452,-471.881"/>
<text text-anchor="middle" x="896" y="-300" font-family="FreeSans" font-size="10.00"> vars_</text>
</g>
<!-- Node14 -->
<g id="node29" class="node"><title>Node14</title>
<a xlink:href="a00281.html" target="_top" xlink:title="Root scene node, represents the whole scene.">
<polygon fill="none" stroke="red" points="1641.5,-358.5 1641.5,-379.5 1730.5,-379.5 1730.5,-358.5 1641.5,-358.5"/>
<text text-anchor="middle" x="1686" y="-366.5" font-family="FreeSans" font-size="10.00">Urho3D::Scene</text>
</a>
</g>
<!-- Node9&#45;&gt;Node14 -->
<g id="edge42" class="edge"><title>Node9&#45;&gt;Node14</title>
<path fill="none" stroke="#9a32cd" stroke-dasharray="5,2" d="M236.766,-472.036C259.227,-375.101 350.266,-50 561,-50 561,-50 561,-50 1479,-50 1629.53,-50 1676.12,-303.035 1684.51,-358.386"/>
<polygon fill="#9a32cd" stroke="#9a32cd" points="233.316,-471.421 234.526,-481.947 240.144,-472.964 233.316,-471.421"/>
<text text-anchor="middle" x="1016" y="-54" font-family="FreeSans" font-size="10.00"> smoothingData_</text>
</g>
<!-- Node9&#45;&gt;Node24 -->
<g id="edge86" class="edge"><title>Node9&#45;&gt;Node24</title>
<path fill="none" stroke="#9a32cd" stroke-dasharray="5,2" d="M326.567,-497.184C522.463,-493.46 964.313,-485.062 1121.32,-482.077"/>
<polygon fill="#9a32cd" stroke="#9a32cd" points="326.223,-493.689 316.291,-497.379 326.356,-500.688 326.223,-493.689"/>
<text text-anchor="middle" x="730" y="-495" font-family="FreeSans" font-size="10.00"> identity_</text>
</g>
<!-- Node10&#45;&gt;Node3 -->
<g id="edge20" class="edge"><title>Node10&#45;&gt;Node3</title>
<path fill="none" stroke="#9a32cd" stroke-dasharray="5,2" d="M828.241,-783.892C872.712,-788.103 925.968,-792.777 974,-796 1022.28,-799.24 1077.07,-801.584 1117.71,-803.066"/>
<polygon fill="#9a32cd" stroke="#9a32cd" points="828.303,-780.382 818.016,-782.917 827.639,-787.35 828.303,-780.382"/>
<text text-anchor="middle" x="896" y="-798" font-family="FreeSans" font-size="10.00"> attributeAnimations_</text>
</g>
<!-- Node11&#45;&gt;Node2 -->
<g id="edge24" class="edge"><title>Node11&#45;&gt;Node2</title>
<path fill="none" stroke="#9a32cd" stroke-dasharray="5,2" d="M1492.23,-416.178C1531.81,-473.534 1648.39,-642.496 1678.72,-686.451"/>
<polygon fill="#9a32cd" stroke="#9a32cd" points="1494.93,-413.92 1486.37,-407.677 1489.17,-417.896 1494.93,-413.92"/>
<text text-anchor="middle" x="1586" y="-586" font-family="FreeSans" font-size="10.00"> node_</text>
</g>
<!-- Node11&#45;&gt;Node11 -->
<g id="edge64" class="edge"><title>Node11&#45;&gt;Node11</title>
<path fill="none" stroke="#9a32cd" stroke-dasharray="5,2" d="M1459.47,-417.427C1460.97,-422.349 1467.48,-426 1479,-426 1497.43,-426 1503.04,-416.653 1495.84,-407.708"/>
<polygon fill="#9a32cd" stroke="#9a32cd" points="1462.86,-418.279 1462.16,-407.708 1456.11,-416.41 1462.86,-418.279"/>
<text text-anchor="middle" x="1479" y="-430" font-family="FreeSans" font-size="10.00"> parent_</text>
</g>
<!-- Node11&#45;&gt;Node14 -->
<g id="edge34" class="edge"><title>Node11&#45;&gt;Node14</title>
<path fill="none" stroke="midnightblue" d="M1531.54,-392.302C1555.52,-389.922 1584.25,-386.742 1610,-383 1620.22,-381.514 1631.17,-379.656 1641.49,-377.783"/>
<polygon fill="midnightblue" stroke="midnightblue" points="1531.19,-388.819 1521.58,-393.272 1531.87,-395.786 1531.19,-388.819"/>
</g>
<!-- Node12 -->
<g id="node25" class="node"><title>Node12</title>
<a xlink:href="a00252.html" target="_top" xlink:title="Urho3D::PODVector\&lt;\l Urho3D::Node * \&gt;">
<polygon fill="none" stroke="black" points="1118.5,-182 1118.5,-216 1237.5,-216 1237.5,-182 1118.5,-182"/>
<text text-anchor="start" x="1126.5" y="-203" font-family="FreeSans" font-size="10.00">Urho3D::PODVector&lt;</text>
<text text-anchor="middle" x="1178" y="-190" font-family="FreeSans" font-size="10.00"> Urho3D::Node * &gt;</text>
</a>
</g>
<!-- Node12&#45;&gt;Node11 -->
<g id="edge28" class="edge"><title>Node12&#45;&gt;Node11</title>
<path fill="none" stroke="#9a32cd" stroke-dasharray="5,2" d="M1247.84,-190.969C1293.94,-189.338 1353.46,-194.633 1396,-225 1452.67,-265.453 1472.22,-355.279 1477.41,-386.254"/>
<polygon fill="#9a32cd" stroke="#9a32cd" points="1247.45,-187.484 1237.63,-191.45 1247.78,-194.476 1247.45,-187.484"/>
<text text-anchor="middle" x="1347" y="-229" font-family="FreeSans" font-size="10.00"> dependencyNodes_</text>
</g>
<!-- Node13 -->
<g id="node27" class="node"><title>Node13</title>
<a xlink:href="a00356.html" target="_top" xlink:title="Vector base class.">
<polygon fill="none" stroke="black" points="839,-161.5 839,-182.5 953,-182.5 953,-161.5 839,-161.5"/>
<text text-anchor="middle" x="896" y="-169.5" font-family="FreeSans" font-size="10.00">Urho3D::VectorBase</text>
</a>
</g>
<!-- Node13&#45;&gt;Node12 -->
<g id="edge30" class="edge"><title>Node13&#45;&gt;Node12</title>
<path fill="none" stroke="midnightblue" d="M963.175,-178.432C1010.28,-182.941 1072.69,-188.917 1118.1,-193.265"/>
<polygon fill="midnightblue" stroke="midnightblue" points="963.355,-174.933 953.067,-177.464 962.688,-181.901 963.355,-174.933"/>
</g>
<!-- Node18 -->
<g id="node41" class="node"><title>Node18</title>
<a xlink:href="a00352.html" target="_top" xlink:title="Urho3D::Vector\&lt; Urho3D\l::WeakPtr\&lt; Urho3D::Component \&gt; \&gt;">
<polygon fill="none" stroke="black" points="1081,-130 1081,-164 1275,-164 1275,-130 1081,-130"/>
<text text-anchor="start" x="1089" y="-151" font-family="FreeSans" font-size="10.00">Urho3D::Vector&lt; Urho3D</text>
<text text-anchor="middle" x="1178" y="-138" font-family="FreeSans" font-size="10.00">::WeakPtr&lt; Urho3D::Component &gt; &gt;</text>
</a>
</g>
<!-- Node13&#45;&gt;Node18 -->
<g id="edge50" class="edge"><title>Node13&#45;&gt;Node18</title>
<path fill="none" stroke="midnightblue" d="M963.21,-166.042C998.345,-162.927 1041.99,-159.057 1080.74,-155.622"/>
<polygon fill="midnightblue" stroke="midnightblue" points="962.719,-162.571 953.067,-166.941 963.337,-169.544 962.719,-162.571"/>
</g>
<!-- Node20 -->
<g id="node46" class="node"><title>Node20</title>
<a xlink:href="a00352.html" target="_top" xlink:title="Urho3D::Vector\&lt; Urho3D\l::SharedPtr\&lt; Urho3D::Component \&gt; \&gt;">
<polygon fill="none" stroke="black" points="1076.5,-78 1076.5,-112 1279.5,-112 1279.5,-78 1076.5,-78"/>
<text text-anchor="start" x="1084.5" y="-99" font-family="FreeSans" font-size="10.00">Urho3D::Vector&lt; Urho3D</text>
<text text-anchor="middle" x="1178" y="-86" font-family="FreeSans" font-size="10.00">::SharedPtr&lt; Urho3D::Component &gt; &gt;</text>
</a>
</g>
<!-- Node13&#45;&gt;Node20 -->
<g id="edge56" class="edge"><title>Node13&#45;&gt;Node20</title>
<path fill="none" stroke="midnightblue" d="M941.931,-158.623C978.249,-148.134 1030.27,-133.304 1076,-121 1087.03,-118.032 1098.75,-114.964 1110.17,-112.021"/>
<polygon fill="midnightblue" stroke="midnightblue" points="940.756,-155.32 932.123,-161.461 942.701,-162.044 940.756,-155.32"/>
</g>
<!-- Node23 -->
<g id="node57" class="node"><title>Node23</title>
<a xlink:href="a00352.html" target="_top" xlink:title="Urho3D::Vector\&lt; Urho3D\l::SharedPtr\&lt; Urho3D::Node \&gt; \&gt;">
<polygon fill="none" stroke="black" points="1091.5,-234 1091.5,-268 1264.5,-268 1264.5,-234 1091.5,-234"/>
<text text-anchor="start" x="1099.5" y="-255" font-family="FreeSans" font-size="10.00">Urho3D::Vector&lt; Urho3D</text>
<text text-anchor="middle" x="1178" y="-242" font-family="FreeSans" font-size="10.00">::SharedPtr&lt; Urho3D::Node &gt; &gt;</text>
</a>
</g>
<!-- Node13&#45;&gt;Node23 -->
<g id="edge72" class="edge"><title>Node13&#45;&gt;Node23</title>
<path fill="none" stroke="midnightblue" d="M935.715,-185.775C947.943,-189.872 961.481,-194.261 974,-198 1018,-211.143 1067.89,-224.138 1107.32,-233.97"/>
<polygon fill="midnightblue" stroke="midnightblue" points="936.828,-182.457 926.234,-182.571 934.587,-189.088 936.828,-182.457"/>
</g>
<!-- Node14&#45;&gt;Node11 -->
<g id="edge32" class="edge"><title>Node14&#45;&gt;Node11</title>
<path fill="none" stroke="#9a32cd" stroke-dasharray="5,2" d="M1631.22,-365.851C1609.54,-365.538 1584.47,-366.344 1562,-370 1542.26,-373.212 1520.81,-380.29 1504.66,-386.393"/>
<polygon fill="#9a32cd" stroke="#9a32cd" points="1631.17,-369.351 1641.24,-366.077 1631.32,-362.352 1631.17,-369.351"/>
<text text-anchor="middle" x="1586" y="-374" font-family="FreeSans" font-size="10.00"> scene_</text>
</g>
<!-- Node15 -->
<g id="node32" class="node"><title>Node15</title>
<a xlink:href="a00285.html" target="_top" xlink:title="Utility class that resolves node &amp; component IDs after a scene or partial scene load.">
<polygon fill="none" stroke="red" points="1414.5,-0.5 1414.5,-21.5 1543.5,-21.5 1543.5,-0.5 1414.5,-0.5"/>
<text text-anchor="middle" x="1479" y="-8.5" font-family="FreeSans" font-size="10.00">Urho3D::SceneResolver</text>
</a>
</g>
<!-- Node15&#45;&gt;Node14 -->
<g id="edge36" class="edge"><title>Node15&#45;&gt;Node14</title>
<path fill="none" stroke="#9a32cd" stroke-dasharray="5,2" d="M1553.78,-2.46895C1574.1,-3.95503 1594.69,-9.49218 1610,-23 1662.34,-69.1831 1681.62,-305.513 1685.31,-358.464"/>
<polygon fill="#9a32cd" stroke="#9a32cd" points="1553.67,1.03859 1543.53,-2.04373 1553.38,-5.95539 1553.67,1.03859"/>
<text text-anchor="middle" x="1586" y="-27" font-family="FreeSans" font-size="10.00"> resolver_</text>
</g>
<!-- Node16 -->
<g id="node34" class="node"><title>Node16</title>
<a xlink:href="a00326.html" target="_top" xlink:title="String class.">
<polygon fill="none" stroke="black" points="852,-611.5 852,-632.5 940,-632.5 940,-611.5 852,-611.5"/>
<text text-anchor="middle" x="896" y="-619.5" font-family="FreeSans" font-size="10.00">Urho3D::String</text>
</a>
</g>
<!-- Node16&#45;&gt;Node11 -->
<g id="edge62" class="edge"><title>Node16&#45;&gt;Node11</title>
<path fill="none" stroke="#9a32cd" stroke-dasharray="5,2" d="M950.063,-629.837C958.073,-630.735 966.24,-631.505 974,-632 1011.26,-634.379 1020.68,-632.924 1058,-632 1209.33,-628.253 1281.49,-689.005 1396,-590 1454.49,-539.427 1473.03,-440.258 1477.67,-407.662"/>
<polygon fill="#9a32cd" stroke="#9a32cd" points="950.388,-626.351 940.044,-628.642 949.559,-633.302 950.388,-626.351"/>
<text text-anchor="middle" x="1178" y="-651" font-family="FreeSans" font-size="10.00"> name_</text>
</g>
<!-- Node16&#45;&gt;Node14 -->
<g id="edge38" class="edge"><title>Node16&#45;&gt;Node14</title>
<path fill="none" stroke="#9a32cd" stroke-dasharray="5,2" d="M917.719,-638.691C957.602,-668.938 1041.57,-730.649 1076,-741 1212.31,-781.985 1261.2,-773.725 1396,-728 1501.17,-692.324 1540.71,-685.79 1610,-599 1666.15,-528.668 1681.53,-415.2 1685.07,-379.862"/>
<polygon fill="#9a32cd" stroke="#9a32cd" points="919.764,-635.849 909.688,-632.574 915.522,-641.418 919.764,-635.849"/>
<text text-anchor="middle" x="1347" y="-761" font-family="FreeSans" font-size="10.00"> fileName_</text>
</g>
<!-- Node16&#45;&gt;Node16 -->
<g id="edge40" class="edge"><title>Node16&#45;&gt;Node16</title>
<path fill="none" stroke="#9a32cd" stroke-dasharray="5,2" d="M873.885,-642.427C875.591,-647.349 882.963,-651 896,-651 916.859,-651 923.215,-641.653 915.067,-632.708"/>
<polygon fill="#9a32cd" stroke="#9a32cd" points="877.28,-643.297 876.933,-632.708 870.601,-641.202 877.28,-643.297"/>
<text text-anchor="middle" x="896" y="-655" font-family="FreeSans" font-size="10.00"> EMPTY</text>
</g>
<!-- Node16&#45;&gt;Node24 -->
<g id="edge84" class="edge"><title>Node16&#45;&gt;Node24</title>
<path fill="none" stroke="#9a32cd" stroke-dasharray="5,2" d="M950.339,-619.213C985.59,-614.546 1030.01,-602.825 1058,-574 1079.78,-551.572 1053.69,-527.902 1076,-506 1088.1,-494.121 1104.87,-487.574 1121.32,-484.052"/>
<polygon fill="#9a32cd" stroke="#9a32cd" points="949.718,-615.762 940.192,-620.399 950.531,-622.715 949.718,-615.762"/>
<text text-anchor="middle" x="1016" y="-619" font-family="FreeSans" font-size="10.00"> sceneFileName_</text>
</g>
<!-- Node17 -->
<g id="node38" class="node"><title>Node17</title>
<a xlink:href="a00257.html" target="_top" xlink:title="Rotation represented as a four&#45;dimensional normalized vector.">
<polygon fill="none" stroke="black" points="1121.5,-679.5 1121.5,-700.5 1234.5,-700.5 1234.5,-679.5 1121.5,-679.5"/>
<text text-anchor="middle" x="1178" y="-687.5" font-family="FreeSans" font-size="10.00">Urho3D::Quaternion</text>
</a>
</g>
<!-- Node17&#45;&gt;Node11 -->
<g id="edge44" class="edge"><title>Node17&#45;&gt;Node11</title>
<path fill="none" stroke="#9a32cd" stroke-dasharray="5,2" d="M1244.87,-699.014C1292.28,-701.585 1354.58,-696.707 1396,-662 1437.11,-627.55 1469.46,-452.801 1477.22,-407.656"/>
<polygon fill="#9a32cd" stroke="#9a32cd" points="1244.9,-695.508 1234.69,-698.336 1244.44,-702.493 1244.9,-695.508"/>
<text text-anchor="middle" x="1347" y="-715" font-family="FreeSans" font-size="10.00"> worldRotation_</text>
<text text-anchor="middle" x="1347" y="-702" font-family="FreeSans" font-size="10.00">rotation_</text>
</g>
<!-- Node17&#45;&gt;Node17 -->
<g id="edge46" class="edge"><title>Node17&#45;&gt;Node17</title>
<path fill="none" stroke="#9a32cd" stroke-dasharray="5,2" d="M1147.99,-710.055C1149.96,-715.164 1159.96,-719 1178,-719 1206.16,-719 1214.74,-709.653 1203.74,-700.708"/>
<polygon fill="#9a32cd" stroke="#9a32cd" points="1151.29,-711.258 1152.26,-700.708 1144.92,-708.347 1151.29,-711.258"/>
<text text-anchor="middle" x="1178" y="-723" font-family="FreeSans" font-size="10.00"> IDENTITY</text>
</g>
<!-- Node18&#45;&gt;Node11 -->
<g id="edge48" class="edge"><title>Node18&#45;&gt;Node11</title>
<path fill="none" stroke="#9a32cd" stroke-dasharray="5,2" d="M1285.24,-139.442C1323.7,-141.995 1365.14,-151.456 1396,-176 1465.12,-230.978 1476.69,-350.001 1478.62,-386.284"/>
<polygon fill="#9a32cd" stroke="#9a32cd" points="1285.18,-135.935 1275.01,-138.918 1284.82,-142.925 1285.18,-135.935"/>
<text text-anchor="middle" x="1347" y="-180" font-family="FreeSans" font-size="10.00"> listeners_</text>
</g>
<!-- Node19 -->
<g id="node44" class="node"><title>Node19</title>
<a xlink:href="a00357.html" target="_top" xlink:title="Dynamically sized buffer that can be read and written to as a stream.">
<polygon fill="none" stroke="red" points="836.5,-568.5 836.5,-589.5 955.5,-589.5 955.5,-568.5 836.5,-568.5"/>
<text text-anchor="middle" x="896" y="-576.5" font-family="FreeSans" font-size="10.00">Urho3D::VectorBuffer</text>
</a>
</g>
<!-- Node19&#45;&gt;Node11 -->
<g id="edge52" class="edge"><title>Node19&#45;&gt;Node11</title>
<path fill="none" stroke="#9a32cd" stroke-dasharray="5,2" d="M964.432,-590.212C995.212,-591.763 1030.68,-588.383 1058,-571 1072.43,-561.822 1062.18,-547.063 1076,-537 1150.43,-482.812 1189.95,-520.177 1280,-501 1331.98,-489.931 1349.11,-497.005 1396,-472 1427.36,-455.277 1456.3,-424.138 1470.25,-407.738"/>
<polygon fill="#9a32cd" stroke="#9a32cd" points="964.408,-586.703 954.192,-589.511 963.929,-593.686 964.408,-586.703"/>
<text text-anchor="middle" x="1178" y="-541" font-family="FreeSans" font-size="10.00"> attrBuffer_</text>
</g>
<!-- Node19&#45;&gt;Node24 -->
<g id="edge80" class="edge"><title>Node19&#45;&gt;Node24</title>
<path fill="none" stroke="#9a32cd" stroke-dasharray="5,2" d="M944.855,-565.843C992.336,-553.04 1057.41,-535.442 1058,-535 1070.17,-525.938 1063.72,-514.911 1076,-506 1089.21,-496.415 1105.65,-490.476 1121.44,-486.806"/>
<polygon fill="#9a32cd" stroke="#9a32cd" points="943.764,-562.512 935.02,-568.495 945.586,-569.271 943.764,-562.512"/>
<text text-anchor="middle" x="1016" y="-561" font-family="FreeSans" font-size="10.00"> msg_</text>
</g>
<!-- Node20&#45;&gt;Node11 -->
<g id="edge54" class="edge"><title>Node20&#45;&gt;Node11</title>
<path fill="none" stroke="#9a32cd" stroke-dasharray="5,2" d="M1289.73,-87.2357C1327.25,-90.2131 1366.9,-100.208 1396,-125 1437.9,-160.703 1469.78,-340.599 1477.31,-386.386"/>
<polygon fill="#9a32cd" stroke="#9a32cd" points="1289.94,-83.7417 1279.74,-86.6 1289.5,-90.7276 1289.94,-83.7417"/>
<text text-anchor="middle" x="1347" y="-129" font-family="FreeSans" font-size="10.00"> components_</text>
</g>
<!-- Node21 -->
<g id="node49" class="node"><title>Node21</title>
<a xlink:href="a00354.html" target="_top" xlink:title="Three&#45;dimensional vector.">
<polygon fill="none" stroke="black" points="848,-327.5 848,-348.5 944,-348.5 944,-327.5 848,-327.5"/>
<text text-anchor="middle" x="896" y="-335.5" font-family="FreeSans" font-size="10.00">Urho3D::Vector3</text>
</a>
</g>
<!-- Node21&#45;&gt;Node11 -->
<g id="edge58" class="edge"><title>Node21&#45;&gt;Node11</title>
<path fill="none" stroke="#9a32cd" stroke-dasharray="5,2" d="M954.385,-336.485C1029.9,-335.323 1165.35,-335.953 1280,-351 1337.84,-358.591 1403.51,-375.42 1443.07,-386.48"/>
<polygon fill="#9a32cd" stroke="#9a32cd" points="954.075,-332.989 944.136,-336.659 954.194,-339.988 954.075,-332.989"/>
<text text-anchor="middle" x="1178" y="-368" font-family="FreeSans" font-size="10.00"> scale_</text>
<text text-anchor="middle" x="1178" y="-355" font-family="FreeSans" font-size="10.00">position_</text>
</g>
<!-- Node21&#45;&gt;Node21 -->
<g id="edge60" class="edge"><title>Node21&#45;&gt;Node21</title>
<path fill="none" stroke="#9a32cd" stroke-dasharray="5,2" d="M873.885,-358.427C875.591,-363.349 882.963,-367 896,-367 916.859,-367 923.215,-357.653 915.067,-348.708"/>
<polygon fill="#9a32cd" stroke="#9a32cd" points="877.28,-359.297 876.933,-348.708 870.601,-357.202 877.28,-359.297"/>
<text text-anchor="middle" x="896" y="-462" font-family="FreeSans" font-size="10.00"> ONE</text>
<text text-anchor="middle" x="896" y="-449" font-family="FreeSans" font-size="10.00">DOWN</text>
<text text-anchor="middle" x="896" y="-436" font-family="FreeSans" font-size="10.00">BACK</text>
<text text-anchor="middle" x="896" y="-423" font-family="FreeSans" font-size="10.00">RIGHT</text>
<text text-anchor="middle" x="896" y="-410" font-family="FreeSans" font-size="10.00">LEFT</text>
<text text-anchor="middle" x="896" y="-397" font-family="FreeSans" font-size="10.00">ZERO</text>
<text text-anchor="middle" x="896" y="-384" font-family="FreeSans" font-size="10.00">FORWARD</text>
<text text-anchor="middle" x="896" y="-371" font-family="FreeSans" font-size="10.00">UP</text>
</g>
<!-- Node21&#45;&gt;Node24 -->
<g id="edge82" class="edge"><title>Node21&#45;&gt;Node24</title>
<path fill="none" stroke="#9a32cd" stroke-dasharray="5,2" d="M915.2,-355.108C946.517,-382.04 1011.58,-434.027 1076,-461 1090.23,-466.959 1106.33,-471.169 1121.47,-474.132"/>
<polygon fill="#9a32cd" stroke="#9a32cd" points="917.478,-352.451 907.638,-348.524 912.882,-357.73 917.478,-352.451"/>
<text text-anchor="middle" x="1016" y="-455" font-family="FreeSans" font-size="10.00"> position_</text>
</g>
<!-- Node22 -->
<g id="node54" class="node"><title>Node22</title>
<a xlink:href="a00327.html" target="_top" xlink:title="32&#45;bit hash value for a string.">
<polygon fill="none" stroke="black" points="1121.5,-559.5 1121.5,-580.5 1234.5,-580.5 1234.5,-559.5 1121.5,-559.5"/>
<text text-anchor="middle" x="1178" y="-567.5" font-family="FreeSans" font-size="10.00">Urho3D::StringHash</text>
</a>
</g>
<!-- Node22&#45;&gt;Node11 -->
<g id="edge66" class="edge"><title>Node22&#45;&gt;Node11</title>
<path fill="none" stroke="#9a32cd" stroke-dasharray="5,2" d="M1244.9,-576.264C1291.03,-577.238 1351.76,-571.576 1396,-542 1445.67,-508.79 1469.15,-435.137 1476.42,-407.633"/>
<polygon fill="#9a32cd" stroke="#9a32cd" points="1244.81,-572.759 1234.7,-575.936 1244.58,-579.755 1244.81,-572.759"/>
<text text-anchor="middle" x="1347" y="-577" font-family="FreeSans" font-size="10.00"> nameHash_</text>
</g>
<!-- Node22&#45;&gt;Node22 -->
<g id="edge68" class="edge"><title>Node22&#45;&gt;Node22</title>
<path fill="none" stroke="#9a32cd" stroke-dasharray="5,2" d="M1147.99,-590.055C1149.96,-595.164 1159.96,-599 1178,-599 1206.16,-599 1214.74,-589.653 1203.74,-580.708"/>
<polygon fill="#9a32cd" stroke="#9a32cd" points="1151.29,-591.258 1152.26,-580.708 1144.92,-588.347 1151.29,-591.258"/>
<text text-anchor="middle" x="1178" y="-603" font-family="FreeSans" font-size="10.00"> ZERO</text>
</g>
<!-- Node23&#45;&gt;Node11 -->
<g id="edge70" class="edge"><title>Node23&#45;&gt;Node11</title>
<path fill="none" stroke="#9a32cd" stroke-dasharray="5,2" d="M1274.68,-240.965C1314.72,-241.203 1360.09,-247.528 1396,-269 1442.14,-296.594 1467.3,-360.912 1475.73,-386.361"/>
<polygon fill="#9a32cd" stroke="#9a32cd" points="1274.6,-237.465 1264.62,-241.03 1274.64,-244.465 1274.6,-237.465"/>
<text text-anchor="middle" x="1347" y="-273" font-family="FreeSans" font-size="10.00"> children_</text>
</g>
<!-- Node24&#45;&gt;Node11 -->
<g id="edge76" class="edge"><title>Node24&#45;&gt;Node11</title>
<path fill="none" stroke="#9a32cd" stroke-dasharray="5,2" d="M1244.52,-469.131C1256.39,-466.68 1268.6,-463.94 1280,-461 1341.32,-445.186 1411.51,-421.194 1449.98,-407.521"/>
<polygon fill="#9a32cd" stroke="#9a32cd" points="1243.76,-465.713 1234.65,-471.121 1245.14,-472.575 1243.76,-465.713"/>
<text text-anchor="middle" x="1347" y="-459" font-family="FreeSans" font-size="10.00"> owner_</text>
</g>
<!-- Node25 -->
<g id="node68" class="node"><title>Node25</title>
<a xlink:href="a00203.html" target="_top" xlink:title="3x4 matrix for scene node transform calculations.">
<polygon fill="none" stroke="black" points="1125,-386.5 1125,-407.5 1231,-407.5 1231,-386.5 1125,-386.5"/>
<text text-anchor="middle" x="1178" y="-394.5" font-family="FreeSans" font-size="10.00">Urho3D::Matrix3x4</text>
</a>
</g>
<!-- Node25&#45;&gt;Node11 -->
<g id="edge88" class="edge"><title>Node25&#45;&gt;Node11</title>
<path fill="none" stroke="#9a32cd" stroke-dasharray="5,2" d="M1241.36,-397C1299.89,-397 1385.24,-397 1436.14,-397"/>
<polygon fill="#9a32cd" stroke="#9a32cd" points="1241.12,-393.5 1231.12,-397 1241.12,-400.5 1241.12,-393.5"/>
<text text-anchor="middle" x="1347" y="-401" font-family="FreeSans" font-size="10.00"> worldTransform_</text>
</g>
<!-- Node25&#45;&gt;Node25 -->
<g id="edge90" class="edge"><title>Node25&#45;&gt;Node25</title>
<path fill="none" stroke="#9a32cd" stroke-dasharray="5,2" d="M1147.99,-417.055C1149.96,-422.164 1159.96,-426 1178,-426 1206.16,-426 1214.74,-416.653 1203.74,-407.708"/>
<polygon fill="#9a32cd" stroke="#9a32cd" points="1151.29,-418.258 1152.26,-407.708 1144.92,-415.347 1151.29,-418.258"/>
<text text-anchor="middle" x="1178" y="-443" font-family="FreeSans" font-size="10.00"> IDENTITY</text>
<text text-anchor="middle" x="1178" y="-430" font-family="FreeSans" font-size="10.00">ZERO</text>
</g>
</g>
</svg>
        <g id="navigator" transform="translate(0 0)" fill="#404254">
                <rect fill="#f2f5e9" fill-opacity="0.5" stroke="#606060" stroke-width=".5" x="0" y="0" width="60" height="60"/>
                <use id="zoomplus" xlink:href="#zoomPlus" x="17" y="9" onmousedown="handleZoom(evt,'in')"/>
                <use id="zoomminus" xlink:href="#zoomMin" x="42" y="9" onmousedown="handleZoom(evt,'out')"/>
                <use id="reset" xlink:href="#resetDef" x="30" y="36" onmousedown="handleReset()"/>
                <g id="arrowUp" xlink:href="#dirArrow" transform="translate(30 24)" onmousedown="handlePan(0,-1)">
                  <use xlink:href="#rim" fill="#404040">
                        <set attributeName="fill" to="#808080" begin="arrowUp.mouseover" end="arrowUp.mouseout"/>
                  </use>
                  <path fill="none" stroke="white" stroke-width="1.5" d="M0,-3.0v7 M-2.5,-0.5L0,-3.0L2.5,-0.5"/>
                </g>
                <g id="arrowRight" xlink:href="#dirArrow" transform="rotate(90) translate(36 -43)" onmousedown="handlePan(1,0)">
                  <use xlink:href="#rim" fill="#404040">
                        <set attributeName="fill" to="#808080" begin="arrowRight.mouseover" end="arrowRight.mouseout"/>
                  </use>
                  <path fill="none" stroke="white" stroke-width="1.5" d="M0,-3.0v7 M-2.5,-0.5L0,-3.0L2.5,-0.5"/>
                </g>
                <g id="arrowDown" xlink:href="#dirArrow" transform="rotate(180) translate(-30 -48)" onmousedown="handlePan(0,1)">
                  <use xlink:href="#rim" fill="#404040">
                        <set attributeName="fill" to="#808080" begin="arrowDown.mouseover" end="arrowDown.mouseout"/>
                  </use>
                  <path fill="none" stroke="white" stroke-width="1.5" d="M0,-3.0v7 M-2.5,-0.5L0,-3.0L2.5,-0.5"/>
                </g>
                <g id="arrowLeft" xlink:href="#dirArrow" transform="rotate(270) translate(-36 17)" onmousedown="handlePan(-1,0)">
                  <use xlink:href="#rim" fill="#404040">
                        <set attributeName="fill" to="#808080" begin="arrowLeft.mouseover" end="arrowLeft.mouseout"/>
                  </use>
                  <path fill="none" stroke="white" stroke-width="1.5" d="M0,-3.0v7 M-2.5,-0.5L0,-3.0L2.5,-0.5"/>
                </g>
        </g>
        <svg viewBox="0 0 15 15" width="100%" height="30px" preserveAspectRatio="xMaxYMin meet">
         <g id="arrow_out" transform="scale(0.3 0.3)">
          <a xlink:href="a00833_org.svg" target="_base">
           <rect id="button" ry="5" rx="5" y="6" x="6" height="38" width="38"
                fill="#f2f5e9" fill-opacity="0.5" stroke="#606060" stroke-width="1.0"/>
           <path id="arrow"
             d="M 11.500037,31.436501 C 11.940474,20.09759 22.043105,11.32322 32.158766,21.979434 L 37.068811,17.246167 C 37.068811,17.246167 37.088388,32 37.088388,32 L 22.160133,31.978069 C 22.160133,31.978069 26.997745,27.140456 26.997745,27.140456 C 18.528582,18.264221 13.291696,25.230495 11.500037,31.436501 z"
             style="fill:#404040;"/>
          </a>
         </g>
        </svg>
</svg>
