<?xml version="1.0" encoding="UTF-8" standalone="no"?>
<!DOCTYPE svg PUBLIC "-//W3C//DTD SVG 1.1//EN"
 "http://www.w3.org/Graphics/SVG/1.1/DTD/svg11.dtd">
<!-- Generated by graphviz version 2.26.3 (20100126.1600)
 -->
<!-- Title: Urho3D::Engine Pages: 1 -->
<!--zoomable 691 -->
<svg id="main" version="1.1" xmlns="http://www.w3.org/2000/svg" xmlns:xlink="http://www.w3.org/1999/xlink" xml:space="preserve" onload="init(evt)">
        <defs>
                <circle id="rim" cx="0" cy="0" r="7"/>
                <circle id="rim2" cx="0" cy="0" r="3.5"/>
                <g id="zoomPlus">
                        <use xlink:href="#rim" fill="#404040">
                                <set attributeName="fill" to="#808080" begin="zoomplus.mouseover" end="zoomplus.mouseout"/>
                        </use>
                        <path d="M-4,0h8M0,-4v8" fill="none" stroke="white" stroke-width="1.5" pointer-events="none"/>
                </g>
                <g id="zoomMin">
                        <use xlink:href="#rim" fill="#404040">
                                <set attributeName="fill" to="#808080" begin="zoomminus.mouseover" end="zoomminus.mouseout"/>
                        </use>
                        <path d="M-4,0h8" fill="none" stroke="white" stroke-width="1.5" pointer-events="none"/>
                </g>
                <g id="dirArrow">
                        <path fill="none" stroke="white" stroke-width="1.5" d="M0,-3.0v7 M-2.5,-0.5L0,-3.0L2.5,-0.5"/>
                </g>
               <g id="resetDef">
                       <use xlink:href="#rim2" fill="#404040">
                               <set attributeName="fill" to="#808080" begin="reset.mouseover" end="reset.mouseout"/>
                       </use>
               </g>
        </defs>

<script type="text/javascript">
var viewWidth = 1240;
var viewHeight = 691;
var sectionId = 'dynsection-1';
</script>
<script xlink:href="svgpan.js"/>
<svg id="graph" class="graph">
<g id="viewport">
<title>Urho3D::Engine</title>
<!-- Node1 -->
<g id="node1" class="node"><title>Node1</title>
<polygon fill="#bfbfbf" stroke="black" points="782,-546.5 782,-567.5 874,-567.5 874,-546.5 782,-546.5"/>
<text text-anchor="middle" x="828" y="-554.5" font-family="FreeSans" font-size="10.00">Urho3D::Engine</text>
</g>
<!-- Node2 -->
<g id="node2" class="node"><title>Node2</title>
<a xlink:href="a00200.html" target="_top" xlink:title="Base class for objects with type identification, subsystem access and event sending/receiving capabil...">
<polygon fill="none" stroke="black" points="455,-565.5 455,-586.5 545,-586.5 545,-565.5 455,-565.5"/>
<text text-anchor="middle" x="500" y="-573.5" font-family="FreeSans" font-size="10.00">Urho3D::Object</text>
</a>
</g>
<!-- Node2&#45;&gt;Node1 -->
<g id="edge2" class="edge"><title>Node2&#45;&gt;Node1</title>
<path fill="none" stroke="midnightblue" d="M555.515,-572.784C619.194,-569.095 722.443,-563.115 781.882,-559.671"/>
<polygon fill="midnightblue" stroke="midnightblue" points="555.043,-569.306 545.263,-573.378 555.448,-576.294 555.043,-569.306"/>
</g>
<!-- Node15 -->
<g id="node34" class="node"><title>Node15</title>
<a xlink:href="a00118.html" target="_top" xlink:title="Internal helper class for invoking event handler functions.">
<polygon fill="none" stroke="black" points="766,-457.5 766,-478.5 890,-478.5 890,-457.5 766,-457.5"/>
<text text-anchor="middle" x="828" y="-465.5" font-family="FreeSans" font-size="10.00">Urho3D::EventHandler</text>
</a>
</g>
<!-- Node2&#45;&gt;Node15 -->
<g id="edge46" class="edge"><title>Node2&#45;&gt;Node15</title>
<path fill="none" stroke="#9a32cd" stroke-dasharray="5,2" d="M554.411,-564.986C558.707,-562.555 562.665,-559.597 566,-556 591.073,-528.957 555.567,-498.486 584,-475 610.71,-452.937 702.831,-456.201 765.914,-461.44"/>
<polygon fill="#9a32cd" stroke="#9a32cd" points="552.796,-561.877 545.209,-569.273 555.752,-568.223 552.796,-561.877"/>
<text text-anchor="middle" x="644" y="-492" font-family="FreeSans" font-size="10.00"> sender_</text>
<text text-anchor="middle" x="644" y="-479" font-family="FreeSans" font-size="10.00">receiver_</text>
</g>
<!-- Node3 -->
<g id="node4" class="node"><title>Node3</title>
<a xlink:href="a00234.html" target="_top" xlink:title="Base class for intrusively reference&#45;counted objects. These are noncopyable and non&#45;assignable.">
<polygon fill="none" stroke="black" points="224,-629.5 224,-650.5 338,-650.5 338,-629.5 224,-629.5"/>
<text text-anchor="middle" x="281" y="-637.5" font-family="FreeSans" font-size="10.00">Urho3D::RefCounted</text>
</a>
</g>
<!-- Node3&#45;&gt;Node2 -->
<g id="edge4" class="edge"><title>Node3&#45;&gt;Node2</title>
<path fill="none" stroke="midnightblue" d="M326.847,-626.602C367.566,-614.702 426.276,-597.545 463.783,-586.584"/>
<polygon fill="midnightblue" stroke="midnightblue" points="325.78,-623.267 317.163,-629.432 327.744,-629.986 325.78,-623.267"/>
</g>
<!-- Node5 -->
<g id="node8" class="node"><title>Node5</title>
<a xlink:href="a00095.html" target="_top" xlink:title="Urho3D execution context. Provides access to subsystems, object factories and attributes, and event receivers.">
<polygon fill="none" stroke="black" points="1110.5,-332.5 1110.5,-353.5 1207.5,-353.5 1207.5,-332.5 1110.5,-332.5"/>
<text text-anchor="middle" x="1159" y="-340.5" font-family="FreeSans" font-size="10.00">Urho3D::Context</text>
</a>
</g>
<!-- Node3&#45;&gt;Node5 -->
<g id="edge10" class="edge"><title>Node3&#45;&gt;Node5</title>
<path fill="none" stroke="midnightblue" d="M348.322,-642.94C468.94,-646.162 728.486,-643.745 934,-577 996.956,-556.554 1020.22,-557.805 1068,-512 1118.04,-464.036 1146.84,-382.447 1155.88,-353.538"/>
<polygon fill="midnightblue" stroke="midnightblue" points="348.231,-639.436 338.134,-642.645 348.028,-646.433 348.231,-639.436"/>
</g>
<!-- Node4 -->
<g id="node6" class="node"><title>Node4</title>
<a xlink:href="a00233.html" target="_top" xlink:title="Reference count structure.">
<polygon fill="none" stroke="black" points="13,-629.5 13,-650.5 115,-650.5 115,-629.5 13,-629.5"/>
<text text-anchor="middle" x="64" y="-637.5" font-family="FreeSans" font-size="10.00">Urho3D::RefCount</text>
</a>
</g>
<!-- Node4&#45;&gt;Node3 -->
<g id="edge6" class="edge"><title>Node4&#45;&gt;Node3</title>
<path fill="none" stroke="#9a32cd" stroke-dasharray="5,2" d="M125.358,-640C156.225,-640 193.412,-640 223.695,-640"/>
<polygon fill="#9a32cd" stroke="#9a32cd" points="125.151,-636.5 115.151,-640 125.151,-643.5 125.151,-636.5"/>
<text text-anchor="middle" x="171" y="-644" font-family="FreeSans" font-size="10.00"> refCount_</text>
</g>
<!-- Node5&#45;&gt;Node2 -->
<g id="edge8" class="edge"><title>Node5&#45;&gt;Node2</title>
<path fill="none" stroke="#9a32cd" stroke-dasharray="5,2" d="M1152.6,-363.286C1141.28,-395.474 1114.42,-457.513 1068,-486 975.9,-542.522 678.741,-481.024 584,-533 572.62,-539.243 576.71,-548.665 566,-556 559.678,-560.33 552.392,-563.745 545.019,-566.431"/>
<polygon fill="#9a32cd" stroke="#9a32cd" points="1155.99,-364.2 1155.85,-353.606 1149.35,-361.972 1155.99,-364.2"/>
<text text-anchor="middle" x="828" y="-516" font-family="FreeSans" font-size="10.00"> context_</text>
</g>
<!-- Node6 -->
<g id="node11" class="node"><title>Node6</title>
<a xlink:href="a00141.html" target="_top" xlink:title="Urho3D::HashMap\&lt; Urho3D\l::ShortStringHash, Urho3D\l::Vector\&lt; Urho3D::AttributeInfo \&gt; \&gt;">
<polygon fill="none" stroke="black" points="733.5,-210.5 733.5,-257.5 922.5,-257.5 922.5,-210.5 733.5,-210.5"/>
<text text-anchor="start" x="741.5" y="-244.5" font-family="FreeSans" font-size="10.00">Urho3D::HashMap&lt; Urho3D</text>
<text text-anchor="start" x="741.5" y="-231.5" font-family="FreeSans" font-size="10.00">::ShortStringHash, Urho3D</text>
<text text-anchor="middle" x="828" y="-218.5" font-family="FreeSans" font-size="10.00">::Vector&lt; Urho3D::AttributeInfo &gt; &gt;</text>
</a>
</g>
<!-- Node6&#45;&gt;Node5 -->
<g id="edge12" class="edge"><title>Node6&#45;&gt;Node5</title>
<path fill="none" stroke="#9a32cd" stroke-dasharray="5,2" d="M932.486,-248.521C975.475,-256.557 1025.14,-268.557 1068,-286 1097.53,-298.016 1128.21,-319.412 1145.33,-332.295"/>
<polygon fill="#9a32cd" stroke="#9a32cd" points="933.033,-245.063 922.567,-246.714 931.778,-251.95 933.033,-245.063"/>
<text text-anchor="middle" x="1010" y="-303" font-family="FreeSans" font-size="10.00"> attributes_</text>
<text text-anchor="middle" x="1010" y="-290" font-family="FreeSans" font-size="10.00">networkAttributes_</text>
</g>
<!-- Node7 -->
<g id="node13" class="node"><title>Node7</title>
<a xlink:href="a00139.html" target="_top" xlink:title="Hash set/map base class.">
<polygon fill="none" stroke="black" points="446,-211.5 446,-232.5 554,-232.5 554,-211.5 446,-211.5"/>
<text text-anchor="middle" x="500" y="-219.5" font-family="FreeSans" font-size="10.00">Urho3D::HashBase</text>
</a>
</g>
<!-- Node7&#45;&gt;Node6 -->
<g id="edge14" class="edge"><title>Node7&#45;&gt;Node6</title>
<path fill="none" stroke="midnightblue" d="M564.447,-224.358C612.574,-226.119 679.101,-228.552 733.273,-230.534"/>
<polygon fill="midnightblue" stroke="midnightblue" points="564.284,-220.85 554.163,-223.982 564.028,-227.845 564.284,-220.85"/>
</g>
<!-- Node13 -->
<g id="node28" class="node"><title>Node13</title>
<a xlink:href="a00141.html" target="_top" xlink:title="Urho3D::HashMap\&lt; Urho3D\l::ShortStringHash, Urho3D\l::SharedPtr\&lt; Urho3D::Object \&gt; \&gt;">
<polygon fill="none" stroke="black" points="739,-66.5 739,-113.5 917,-113.5 917,-66.5 739,-66.5"/>
<text text-anchor="start" x="747" y="-100.5" font-family="FreeSans" font-size="10.00">Urho3D::HashMap&lt; Urho3D</text>
<text text-anchor="start" x="747" y="-87.5" font-family="FreeSans" font-size="10.00">::ShortStringHash, Urho3D</text>
<text text-anchor="middle" x="828" y="-74.5" font-family="FreeSans" font-size="10.00">::SharedPtr&lt; Urho3D::Object &gt; &gt;</text>
</a>
</g>
<!-- Node7&#45;&gt;Node13 -->
<g id="edge34" class="edge"><title>Node7&#45;&gt;Node13</title>
<path fill="none" stroke="midnightblue" d="M530.236,-206.732C546.136,-198.834 566.011,-189.163 584,-181 644.585,-153.509 659.5,-145.803 722,-123 730.782,-119.796 740.04,-116.622 749.28,-113.581"/>
<polygon fill="midnightblue" stroke="midnightblue" points="528.286,-203.794 520.903,-211.392 531.413,-210.057 528.286,-203.794"/>
</g>
<!-- Node14 -->
<g id="node31" class="node"><title>Node14</title>
<a xlink:href="a00141.html" target="_top" xlink:title="Urho3D::HashMap\&lt; Urho3D\l::String, Urho3D::Vector\l\&lt; Urho3D::ShortStringHash \&gt; \&gt;">
<polygon fill="none" stroke="black" points="741.5,-0.5 741.5,-47.5 914.5,-47.5 914.5,-0.5 741.5,-0.5"/>
<text text-anchor="start" x="749.5" y="-34.5" font-family="FreeSans" font-size="10.00">Urho3D::HashMap&lt; Urho3D</text>
<text text-anchor="start" x="749.5" y="-21.5" font-family="FreeSans" font-size="10.00">::String, Urho3D::Vector</text>
<text text-anchor="middle" x="828" y="-8.5" font-family="FreeSans" font-size="10.00">&lt; Urho3D::ShortStringHash &gt; &gt;</text>
</a>
</g>
<!-- Node7&#45;&gt;Node14 -->
<g id="edge38" class="edge"><title>Node7&#45;&gt;Node14</title>
<path fill="none" stroke="midnightblue" d="M513.261,-203.135C528.509,-182.464 555.172,-149.286 584,-127 631.473,-90.3001 693.952,-64.2512 743.801,-47.5312"/>
<polygon fill="midnightblue" stroke="midnightblue" points="510.297,-201.26 507.272,-211.414 515.969,-205.363 510.297,-201.26"/>
</g>
<!-- Node18 -->
<g id="node43" class="node"><title>Node18</title>
<a xlink:href="a00141.html" target="_top" xlink:title="Urho3D::HashMap\&lt; Urho3D\l::StringHash, Urho3D::\lHashSet\&lt; Urho3D::Object * \&gt; \&gt;">
<polygon fill="none" stroke="black" points="741.5,-276.5 741.5,-323.5 914.5,-323.5 914.5,-276.5 741.5,-276.5"/>
<text text-anchor="start" x="749.5" y="-310.5" font-family="FreeSans" font-size="10.00">Urho3D::HashMap&lt; Urho3D</text>
<text text-anchor="start" x="749.5" y="-297.5" font-family="FreeSans" font-size="10.00">::StringHash, Urho3D::</text>
<text text-anchor="middle" x="828" y="-284.5" font-family="FreeSans" font-size="10.00">HashSet&lt; Urho3D::Object * &gt; &gt;</text>
</a>
</g>
<!-- Node7&#45;&gt;Node18 -->
<g id="edge54" class="edge"><title>Node7&#45;&gt;Node18</title>
<path fill="none" stroke="midnightblue" d="M554.223,-234.913C564.129,-237.272 574.375,-239.71 584,-242 636.208,-254.42 694.702,-268.325 741.328,-279.406"/>
<polygon fill="midnightblue" stroke="midnightblue" points="555.004,-231.502 544.465,-232.59 553.383,-238.311 555.004,-231.502"/>
</g>
<!-- Node19 -->
<g id="node46" class="node"><title>Node19</title>
<a xlink:href="a00141.html" target="_top" xlink:title="Urho3D::HashMap\&lt; Urho3D\l::Object *, Urho3D::HashMap\l\&lt; Urho3D::StringHash, Urho3D\l::HashSet\&lt; Urho3D::Object * \&gt; \&gt; \&gt;">
<polygon fill="none" stroke="black" points="732.5,-132 732.5,-192 923.5,-192 923.5,-132 732.5,-132"/>
<text text-anchor="start" x="740.5" y="-179" font-family="FreeSans" font-size="10.00">Urho3D::HashMap&lt; Urho3D</text>
<text text-anchor="start" x="740.5" y="-166" font-family="FreeSans" font-size="10.00">::Object *, Urho3D::HashMap</text>
<text text-anchor="start" x="740.5" y="-153" font-family="FreeSans" font-size="10.00">&lt; Urho3D::StringHash, Urho3D</text>
<text text-anchor="middle" x="828" y="-140" font-family="FreeSans" font-size="10.00">::HashSet&lt; Urho3D::Object * &gt; &gt; &gt;</text>
</a>
</g>
<!-- Node7&#45;&gt;Node19 -->
<g id="edge58" class="edge"><title>Node7&#45;&gt;Node19</title>
<path fill="none" stroke="midnightblue" d="M564.087,-210.277C611.952,-201.521 678.164,-189.409 732.292,-179.508"/>
<polygon fill="midnightblue" stroke="midnightblue" points="563.369,-206.85 554.163,-212.092 564.629,-213.736 563.369,-206.85"/>
</g>
<!-- Node20 -->
<g id="node49" class="node"><title>Node20</title>
<a xlink:href="a00141.html" target="_top" xlink:title="Urho3D::HashMap\&lt; Urho3D\l::ShortStringHash, Urho3D\l::SharedPtr\&lt; Urho3D::ObjectFactory \&gt; \&gt;">
<polygon fill="none" stroke="black" points="722,-342.5 722,-389.5 934,-389.5 934,-342.5 722,-342.5"/>
<text text-anchor="start" x="730" y="-376.5" font-family="FreeSans" font-size="10.00">Urho3D::HashMap&lt; Urho3D</text>
<text text-anchor="start" x="730" y="-363.5" font-family="FreeSans" font-size="10.00">::ShortStringHash, Urho3D</text>
<text text-anchor="middle" x="828" y="-350.5" font-family="FreeSans" font-size="10.00">::SharedPtr&lt; Urho3D::ObjectFactory &gt; &gt;</text>
</a>
</g>
<!-- Node7&#45;&gt;Node20 -->
<g id="edge62" class="edge"><title>Node7&#45;&gt;Node20</title>
<path fill="none" stroke="midnightblue" d="M526.428,-237.923C542.803,-247.583 564.383,-259.944 584,-270 643.998,-300.757 659.02,-308.931 722,-333 730.552,-336.268 739.58,-339.46 748.612,-342.491"/>
<polygon fill="midnightblue" stroke="midnightblue" points="527.828,-234.684 517.442,-232.586 524.253,-240.702 527.828,-234.684"/>
</g>
<!-- Node8 -->
<g id="node15" class="node"><title>Node8</title>
<a xlink:href="a00142.html" target="_top" xlink:title="Hash set/map node base class.">
<polygon fill="none" stroke="black" points="214,-271.5 214,-292.5 348,-292.5 348,-271.5 214,-271.5"/>
<text text-anchor="middle" x="281" y="-279.5" font-family="FreeSans" font-size="10.00">Urho3D::HashNodeBase</text>
</a>
</g>
<!-- Node8&#45;&gt;Node7 -->
<g id="edge16" class="edge"><title>Node8&#45;&gt;Node7</title>
<path fill="none" stroke="#9a32cd" stroke-dasharray="5,2" d="M329.157,-268.806C368.984,-257.895 424.795,-242.604 461.647,-232.508"/>
<polygon fill="#9a32cd" stroke="#9a32cd" points="328.117,-265.462 319.397,-271.48 329.967,-272.213 328.117,-265.462"/>
<text text-anchor="middle" x="391" y="-288" font-family="FreeSans" font-size="10.00"> ptrs_</text>
<text text-anchor="middle" x="391" y="-275" font-family="FreeSans" font-size="10.00">tail_</text>
<text text-anchor="middle" x="391" y="-262" font-family="FreeSans" font-size="10.00">head_</text>
</g>
<!-- Node8&#45;&gt;Node8 -->
<g id="edge18" class="edge"><title>Node8&#45;&gt;Node8</title>
<path fill="none" stroke="#9a32cd" stroke-dasharray="5,2" d="M260.728,-302.427C262.292,-307.349 269.049,-311 281,-311 300.121,-311 305.947,-301.653 298.478,-292.708"/>
<polygon fill="#9a32cd" stroke="#9a32cd" points="264.123,-303.286 263.522,-292.708 257.395,-301.352 264.123,-303.286"/>
<text text-anchor="middle" x="281" y="-341" font-family="FreeSans" font-size="10.00"> next_</text>
<text text-anchor="middle" x="281" y="-328" font-family="FreeSans" font-size="10.00">prev_</text>
<text text-anchor="middle" x="281" y="-315" font-family="FreeSans" font-size="10.00">down_</text>
</g>
<!-- Node9 -->
<g id="node18" class="node"><title>Node9</title>
<a xlink:href="a00047.html" target="_top" xlink:title="Allocator memory block.">
<polygon fill="none" stroke="black" points="217.5,-200.5 217.5,-221.5 344.5,-221.5 344.5,-200.5 217.5,-200.5"/>
<text text-anchor="middle" x="281" y="-208.5" font-family="FreeSans" font-size="10.00">Urho3D::AllocatorBlock</text>
</a>
</g>
<!-- Node9&#45;&gt;Node7 -->
<g id="edge20" class="edge"><title>Node9&#45;&gt;Node7</title>
<path fill="none" stroke="#9a32cd" stroke-dasharray="5,2" d="M354.985,-214.716C384.747,-216.211 418.434,-217.903 445.844,-219.28"/>
<polygon fill="#9a32cd" stroke="#9a32cd" points="354.801,-211.203 344.638,-214.196 354.45,-218.194 354.801,-211.203"/>
<text text-anchor="middle" x="391" y="-222" font-family="FreeSans" font-size="10.00"> allocator_</text>
</g>
<!-- Node9&#45;&gt;Node9 -->
<g id="edge22" class="edge"><title>Node9&#45;&gt;Node9</title>
<path fill="none" stroke="#9a32cd" stroke-dasharray="5,2" d="M260.728,-231.427C262.292,-236.349 269.049,-240 281,-240 300.121,-240 305.947,-230.653 298.478,-221.708"/>
<polygon fill="#9a32cd" stroke="#9a32cd" points="264.123,-232.286 263.522,-221.708 257.395,-230.352 264.123,-232.286"/>
<text text-anchor="middle" x="281" y="-244" font-family="FreeSans" font-size="10.00"> next_</text>
</g>
<!-- Node10 -->
<g id="node21" class="node"><title>Node10</title>
<a xlink:href="a00048.html" target="_top" xlink:title="Allocator node.">
<polygon fill="none" stroke="black" points="0.5,-200.5 0.5,-221.5 127.5,-221.5 127.5,-200.5 0.5,-200.5"/>
<text text-anchor="middle" x="64" y="-208.5" font-family="FreeSans" font-size="10.00">Urho3D::AllocatorNode</text>
</a>
</g>
<!-- Node10&#45;&gt;Node9 -->
<g id="edge24" class="edge"><title>Node10&#45;&gt;Node9</title>
<path fill="none" stroke="#9a32cd" stroke-dasharray="5,2" d="M137.765,-211C163.616,-211 192.409,-211 217.36,-211"/>
<polygon fill="#9a32cd" stroke="#9a32cd" points="137.641,-207.5 127.641,-211 137.641,-214.5 137.641,-207.5"/>
<text text-anchor="middle" x="171" y="-215" font-family="FreeSans" font-size="10.00"> free_</text>
</g>
<!-- Node10&#45;&gt;Node10 -->
<g id="edge26" class="edge"><title>Node10&#45;&gt;Node10</title>
<path fill="none" stroke="#9a32cd" stroke-dasharray="5,2" d="M44.4653,-231.427C45.9723,-236.349 52.4839,-240 64,-240 82.4258,-240 88.0399,-230.653 80.8423,-221.708"/>
<polygon fill="#9a32cd" stroke="#9a32cd" points="47.8609,-232.279 47.1577,-221.708 41.1149,-230.41 47.8609,-232.279"/>
<text text-anchor="middle" x="64" y="-244" font-family="FreeSans" font-size="10.00"> next_</text>
</g>
<!-- Node11 -->
<g id="node24" class="node"><title>Node11</title>
<a xlink:href="a00220.html" target="_top" xlink:title="Urho3D::PODVector\&lt;\l Urho3D::Object * \&gt;">
<polygon fill="none" stroke="black" points="584.5,-350 584.5,-384 703.5,-384 703.5,-350 584.5,-350"/>
<text text-anchor="start" x="592.5" y="-371" font-family="FreeSans" font-size="10.00">Urho3D::PODVector&lt;</text>
<text text-anchor="middle" x="644" y="-358" font-family="FreeSans" font-size="10.00"> Urho3D::Object * &gt;</text>
</a>
</g>
<!-- Node11&#45;&gt;Node5 -->
<g id="edge28" class="edge"><title>Node11&#45;&gt;Node5</title>
<path fill="none" stroke="#9a32cd" stroke-dasharray="5,2" d="M696.806,-387.993C699.241,-389.002 701.649,-390.008 704,-391 712.066,-394.404 713.436,-397.183 722,-399 872.82,-431.006 918.861,-413.098 1068,-374 1089.63,-368.329 1113.55,-360.101 1131.44,-353.547"/>
<polygon fill="#9a32cd" stroke="#9a32cd" points="697.92,-384.667 687.34,-384.11 695.263,-391.144 697.92,-384.667"/>
<text text-anchor="middle" x="828" y="-419" font-family="FreeSans" font-size="10.00"> eventSenders_</text>
</g>
<!-- Node12 -->
<g id="node26" class="node"><title>Node12</title>
<a xlink:href="a00315.html" target="_top" xlink:title="Vector base class.">
<polygon fill="none" stroke="black" points="224,-408.5 224,-429.5 338,-429.5 338,-408.5 224,-408.5"/>
<text text-anchor="middle" x="281" y="-416.5" font-family="FreeSans" font-size="10.00">Urho3D::VectorBase</text>
</a>
</g>
<!-- Node12&#45;&gt;Node11 -->
<g id="edge30" class="edge"><title>Node12&#45;&gt;Node11</title>
<path fill="none" stroke="midnightblue" d="M311.255,-404.044C341.48,-389.999 389.697,-369.985 434,-362 491.736,-351.594 507.363,-360.123 566,-362 571.968,-362.191 578.188,-362.464 584.398,-362.785"/>
<polygon fill="midnightblue" stroke="midnightblue" points="309.646,-400.934 302.102,-408.372 312.638,-407.262 309.646,-400.934"/>
</g>
<!-- Node23 -->
<g id="node57" class="node"><title>Node23</title>
<a xlink:href="a00220.html" target="_top" xlink:title="Urho3D::PODVector\&lt;\l float \&gt;">
<polygon fill="none" stroke="black" points="440.5,-513 440.5,-547 559.5,-547 559.5,-513 440.5,-513"/>
<text text-anchor="start" x="448.5" y="-534" font-family="FreeSans" font-size="10.00">Urho3D::PODVector&lt;</text>
<text text-anchor="middle" x="500" y="-521" font-family="FreeSans" font-size="10.00"> float &gt;</text>
</a>
</g>
<!-- Node12&#45;&gt;Node23 -->
<g id="edge72" class="edge"><title>Node12&#45;&gt;Node23</title>
<path fill="none" stroke="midnightblue" d="M307.116,-434.901C337.138,-452.85 388.182,-482.364 434,-504 440.459,-507.05 447.379,-510.053 454.22,-512.873"/>
<polygon fill="midnightblue" stroke="midnightblue" points="308.876,-431.876 298.502,-429.723 305.27,-437.875 308.876,-431.876"/>
</g>
<!-- Node13&#45;&gt;Node5 -->
<g id="edge32" class="edge"><title>Node13&#45;&gt;Node5</title>
<path fill="none" stroke="#9a32cd" stroke-dasharray="5,2" d="M927.154,-104.999C974.187,-116.311 1028.57,-135.979 1068,-170 1121.7,-216.337 1148.37,-302.322 1156.35,-332.333"/>
<polygon fill="#9a32cd" stroke="#9a32cd" points="927.768,-101.548 917.237,-102.709 926.194,-108.369 927.768,-101.548"/>
<text text-anchor="middle" x="1010" y="-174" font-family="FreeSans" font-size="10.00"> subsystems_</text>
</g>
<!-- Node14&#45;&gt;Node5 -->
<g id="edge36" class="edge"><title>Node14&#45;&gt;Node5</title>
<path fill="none" stroke="#9a32cd" stroke-dasharray="5,2" d="M924.544,-32.1668C972.933,-40.8842 1029.31,-58.7086 1068,-95 1140.76,-163.24 1155.57,-294.541 1158.38,-332.49"/>
<polygon fill="#9a32cd" stroke="#9a32cd" points="925.11,-28.7128 914.665,-30.4917 923.939,-35.6143 925.11,-28.7128"/>
<text text-anchor="middle" x="1010" y="-99" font-family="FreeSans" font-size="10.00"> objectCategories_</text>
</g>
<!-- Node15&#45;&gt;Node5 -->
<g id="edge40" class="edge"><title>Node15&#45;&gt;Node5</title>
<path fill="none" stroke="#9a32cd" stroke-dasharray="5,2" d="M900.266,-472.241C949.937,-472.211 1016.04,-466.179 1068,-440 1108.01,-419.843 1139.64,-374.531 1152.61,-353.766"/>
<polygon fill="#9a32cd" stroke="#9a32cd" points="900.27,-468.741 890.244,-472.167 900.218,-475.741 900.27,-468.741"/>
<text text-anchor="middle" x="1010" y="-473" font-family="FreeSans" font-size="10.00"> eventHandler_</text>
</g>
<!-- Node21 -->
<g id="node52" class="node"><title>Node21</title>
<a xlink:href="a00163.html" target="_top" xlink:title="Urho3D::LinkedList\l\&lt; Urho3D::EventHandler \&gt;">
<polygon fill="none" stroke="black" points="1086,-611 1086,-645 1232,-645 1232,-611 1086,-611"/>
<text text-anchor="start" x="1094" y="-632" font-family="FreeSans" font-size="10.00">Urho3D::LinkedList</text>
<text text-anchor="middle" x="1159" y="-619" font-family="FreeSans" font-size="10.00">&lt; Urho3D::EventHandler &gt;</text>
</a>
</g>
<!-- Node15&#45;&gt;Node21 -->
<g id="edge66" class="edge"><title>Node15&#45;&gt;Node21</title>
<path fill="none" stroke="#9a32cd" stroke-dasharray="5,2" d="M897.011,-481.008C909.535,-484.284 922.321,-488.253 934,-493 1012.92,-525.073 1096.6,-582.323 1135.97,-610.855"/>
<polygon fill="#9a32cd" stroke="#9a32cd" points="897.599,-477.547 887.049,-478.528 895.907,-484.34 897.599,-477.547"/>
<text text-anchor="middle" x="1010" y="-567" font-family="FreeSans" font-size="10.00"> head_</text>
</g>
<!-- Node16 -->
<g id="node36" class="node"><title>Node16</title>
<a xlink:href="a00164.html" target="_top" xlink:title="Singly&#45;linked list node base class.">
<polygon fill="none" stroke="black" points="434,-371.5 434,-392.5 566,-392.5 566,-371.5 434,-371.5"/>
<text text-anchor="middle" x="500" y="-379.5" font-family="FreeSans" font-size="10.00">Urho3D::LinkedListNode</text>
</a>
</g>
<!-- Node16&#45;&gt;Node15 -->
<g id="edge42" class="edge"><title>Node16&#45;&gt;Node15</title>
<path fill="none" stroke="midnightblue" d="M576.248,-393.707C615.49,-401.36 663.469,-413.294 704,-431 712.811,-434.849 713.181,-439.169 722,-443 736.047,-449.102 751.817,-453.846 766.813,-457.479"/>
<polygon fill="midnightblue" stroke="midnightblue" points="576.686,-390.228 566.209,-391.805 575.382,-397.105 576.686,-390.228"/>
</g>
<!-- Node16&#45;&gt;Node16 -->
<g id="edge44" class="edge"><title>Node16&#45;&gt;Node16</title>
<path fill="none" stroke="#9a32cd" stroke-dasharray="5,2" d="M480.097,-402.427C481.632,-407.349 488.267,-411 500,-411 518.773,-411 524.493,-401.653 517.16,-392.708"/>
<polygon fill="#9a32cd" stroke="#9a32cd" points="483.492,-403.283 482.84,-392.708 476.755,-401.381 483.492,-403.283"/>
<text text-anchor="middle" x="500" y="-415" font-family="FreeSans" font-size="10.00"> next_</text>
</g>
<!-- Node17 -->
<g id="node40" class="node"><title>Node17</title>
<a xlink:href="a00288.html" target="_top" xlink:title="32&#45;bit hash value for a string.">
<polygon fill="none" stroke="black" points="443.5,-442.5 443.5,-463.5 556.5,-463.5 556.5,-442.5 443.5,-442.5"/>
<text text-anchor="middle" x="500" y="-450.5" font-family="FreeSans" font-size="10.00">Urho3D::StringHash</text>
</a>
</g>
<!-- Node17&#45;&gt;Node15 -->
<g id="edge48" class="edge"><title>Node17&#45;&gt;Node15</title>
<path fill="none" stroke="#9a32cd" stroke-dasharray="5,2" d="M565.737,-440.982C571.894,-440.177 578.053,-439.492 584,-439 637.152,-434.601 651.018,-432.887 704,-439 706.073,-439.239 748.842,-449.286 783.577,-457.487"/>
<polygon fill="#9a32cd" stroke="#9a32cd" points="564.828,-437.575 555.414,-442.436 565.805,-444.507 564.828,-437.575"/>
<text text-anchor="middle" x="644" y="-443" font-family="FreeSans" font-size="10.00"> eventType_</text>
</g>
<!-- Node17&#45;&gt;Node17 -->
<g id="edge50" class="edge"><title>Node17&#45;&gt;Node17</title>
<path fill="none" stroke="#9a32cd" stroke-dasharray="5,2" d="M480.097,-473.427C481.632,-478.349 488.267,-482 500,-482 518.773,-482 524.493,-472.653 517.16,-463.708"/>
<polygon fill="#9a32cd" stroke="#9a32cd" points="483.492,-474.283 482.84,-463.708 476.755,-472.381 483.492,-474.283"/>
<text text-anchor="middle" x="500" y="-486" font-family="FreeSans" font-size="10.00"> ZERO</text>
</g>
<!-- Node18&#45;&gt;Node5 -->
<g id="edge52" class="edge"><title>Node18&#45;&gt;Node5</title>
<path fill="none" stroke="#9a32cd" stroke-dasharray="5,2" d="M924.569,-312.545C985.545,-320.467 1061.72,-330.363 1110.38,-336.683"/>
<polygon fill="#9a32cd" stroke="#9a32cd" points="924.902,-309.059 914.534,-311.242 924,-316.001 924.902,-309.059"/>
<text text-anchor="middle" x="1010" y="-334" font-family="FreeSans" font-size="10.00"> eventReceivers_</text>
</g>
<!-- Node19&#45;&gt;Node5 -->
<g id="edge56" class="edge"><title>Node19&#45;&gt;Node5</title>
<path fill="none" stroke="#9a32cd" stroke-dasharray="5,2" d="M933.585,-180.883C977.641,-192.113 1027.8,-209.517 1068,-236 1107.91,-262.296 1140.05,-311.048 1152.92,-332.456"/>
<polygon fill="#9a32cd" stroke="#9a32cd" points="934.249,-177.442 923.701,-178.44 932.569,-184.237 934.249,-177.442"/>
<text text-anchor="middle" x="1010" y="-240" font-family="FreeSans" font-size="10.00"> specificEventReceivers_</text>
</g>
<!-- Node20&#45;&gt;Node5 -->
<g id="edge60" class="edge"><title>Node20&#45;&gt;Node5</title>
<path fill="none" stroke="#9a32cd" stroke-dasharray="5,2" d="M944.259,-357.922C1001.23,-353.963 1066.77,-349.409 1110.31,-346.383"/>
<polygon fill="#9a32cd" stroke="#9a32cd" points="943.83,-354.443 934.096,-358.628 944.315,-361.426 943.83,-354.443"/>
<text text-anchor="middle" x="1010" y="-361" font-family="FreeSans" font-size="10.00"> factories_</text>
</g>
<!-- Node21&#45;&gt;Node2 -->
<g id="edge64" class="edge"><title>Node21&#45;&gt;Node2</title>
<path fill="none" stroke="#9a32cd" stroke-dasharray="5,2" d="M1077.47,-647.062C961.359,-669.832 744.639,-695.841 584,-618 572.631,-612.491 576.5,-603.025 566,-596 559.731,-591.806 552.55,-588.464 545.286,-585.81"/>
<polygon fill="#9a32cd" stroke="#9a32cd" points="1078.25,-650.477 1087.37,-645.082 1076.87,-643.613 1078.25,-650.477"/>
<text text-anchor="middle" x="828" y="-674" font-family="FreeSans" font-size="10.00"> eventHandlers_</text>
</g>
<!-- Node22 -->
<g id="node55" class="node"><title>Node22</title>
<a xlink:href="a00146.html" target="_top" xlink:title="High&#45;resolution operating system timer used in profiling.">
<polygon fill="none" stroke="black" points="444.5,-605.5 444.5,-626.5 555.5,-626.5 555.5,-605.5 444.5,-605.5"/>
<text text-anchor="middle" x="500" y="-613.5" font-family="FreeSans" font-size="10.00">Urho3D::HiresTimer</text>
</a>
</g>
<!-- Node22&#45;&gt;Node1 -->
<g id="edge68" class="edge"><title>Node22&#45;&gt;Node1</title>
<path fill="none" stroke="#9a32cd" stroke-dasharray="5,2" d="M565.802,-605.075C605.801,-598.344 657.888,-589.417 704,-581 729.777,-576.295 758.508,-570.753 781.819,-566.18"/>
<polygon fill="#9a32cd" stroke="#9a32cd" points="565.186,-601.63 555.904,-606.738 566.346,-608.533 565.186,-601.63"/>
<text text-anchor="middle" x="644" y="-605" font-family="FreeSans" font-size="10.00"> frameTimer_</text>
</g>
<!-- Node23&#45;&gt;Node1 -->
<g id="edge70" class="edge"><title>Node23&#45;&gt;Node1</title>
<path fill="none" stroke="#9a32cd" stroke-dasharray="5,2" d="M569.788,-535.745C633.762,-541.011 726.679,-548.66 781.86,-553.202"/>
<polygon fill="#9a32cd" stroke="#9a32cd" points="570.032,-532.253 559.779,-534.921 569.458,-539.23 570.032,-532.253"/>
<text text-anchor="middle" x="644" y="-550" font-family="FreeSans" font-size="10.00"> lastTimeSteps_</text>
</g>
</g>
</svg>
        <g id="navigator" transform="translate(0 0)" fill="#404254">
                <rect fill="#f2f5e9" fill-opacity="0.5" stroke="#606060" stroke-width=".5" x="0" y="0" width="60" height="60"/>
                <use id="zoomplus" xlink:href="#zoomPlus" x="17" y="9" onmousedown="handleZoom(evt,'in')"/>
                <use id="zoomminus" xlink:href="#zoomMin" x="42" y="9" onmousedown="handleZoom(evt,'out')"/>
                <use id="reset" xlink:href="#resetDef" x="30" y="36" onmousedown="handleReset()"/>
                <g id="arrowUp" xlink:href="#dirArrow" transform="translate(30 24)" onmousedown="handlePan(0,-1)">
                  <use xlink:href="#rim" fill="#404040">
                        <set attributeName="fill" to="#808080" begin="arrowUp.mouseover" end="arrowUp.mouseout"/>
                  </use>
                  <path fill="none" stroke="white" stroke-width="1.5" d="M0,-3.0v7 M-2.5,-0.5L0,-3.0L2.5,-0.5"/>
                </g>
                <g id="arrowRight" xlink:href="#dirArrow" transform="rotate(90) translate(36 -43)" onmousedown="handlePan(1,0)">
                  <use xlink:href="#rim" fill="#404040">
                        <set attributeName="fill" to="#808080" begin="arrowRight.mouseover" end="arrowRight.mouseout"/>
                  </use>
                  <path fill="none" stroke="white" stroke-width="1.5" d="M0,-3.0v7 M-2.5,-0.5L0,-3.0L2.5,-0.5"/>
                </g>
                <g id="arrowDown" xlink:href="#dirArrow" transform="rotate(180) translate(-30 -48)" onmousedown="handlePan(0,1)">
                  <use xlink:href="#rim" fill="#404040">
                        <set attributeName="fill" to="#808080" begin="arrowDown.mouseover" end="arrowDown.mouseout"/>
                  </use>
                  <path fill="none" stroke="white" stroke-width="1.5" d="M0,-3.0v7 M-2.5,-0.5L0,-3.0L2.5,-0.5"/>
                </g>
                <g id="arrowLeft" xlink:href="#dirArrow" transform="rotate(270) translate(-36 17)" onmousedown="handlePan(-1,0)">
                  <use xlink:href="#rim" fill="#404040">
                        <set attributeName="fill" to="#808080" begin="arrowLeft.mouseover" end="arrowLeft.mouseout"/>
                  </use>
                  <path fill="none" stroke="white" stroke-width="1.5" d="M0,-3.0v7 M-2.5,-0.5L0,-3.0L2.5,-0.5"/>
                </g>
        </g>
        <svg viewBox="0 0 15 15" width="100%" height="30px" preserveAspectRatio="xMaxYMin meet">
         <g id="arrow_out" transform="scale(0.3 0.3)">
          <a xlink:href="a00888_org.svg" target="_base">
           <rect id="button" ry="5" rx="5" y="6" x="6" height="38" width="38"
                fill="#f2f5e9" fill-opacity="0.5" stroke="#606060" stroke-width="1.0"/>
           <path id="arrow"
             d="M 11.500037,31.436501 C 11.940474,20.09759 22.043105,11.32322 32.158766,21.979434 L 37.068811,17.246167 C 37.068811,17.246167 37.088388,32 37.088388,32 L 22.160133,31.978069 C 22.160133,31.978069 26.997745,27.140456 26.997745,27.140456 C 18.528582,18.264221 13.291696,25.230495 11.500037,31.436501 z"
             style="fill:#404040;"/>
          </a>
         </g>
        </svg>
</svg>
