<?xml version="1.0" encoding="UTF-8" standalone="no"?>
<!DOCTYPE svg PUBLIC "-//W3C//DTD SVG 1.1//EN"
 "http://www.w3.org/Graphics/SVG/1.1/DTD/svg11.dtd">
<!-- Generated by graphviz version 2.26.3 (20100126.1600)
 -->
<!-- Title: Urho3D::SoundSource Pages: 1 -->
<svg width="1322pt" height="824pt"
 viewBox="0.00 0.00 1322.00 824.00" xmlns="http://www.w3.org/2000/svg" xmlns:xlink="http://www.w3.org/1999/xlink">
<g id="graph1" class="graph" transform="scale(1 1) rotate(0) translate(4 820)">
<title>Urho3D::SoundSource</title>
<!-- Node1 -->
<g id="node1" class="node"><title>Node1</title>
<polygon fill="#bfbfbf" stroke="black" points="1190,-84.5 1190,-105.5 1314,-105.5 1314,-84.5 1190,-84.5"/>
<text text-anchor="middle" x="1252" y="-92.5" font-family="FreeSans" font-size="10.00">Urho3D::SoundSource</text>
</g>
<!-- Node2 -->
<g id="node2" class="node"><title>Node2</title>
<a xlink:href="a00102.html" target="_top" xlink:title="Base class for components. Components can be created to scene nodes.">
<polygon fill="none" stroke="black" points="949,-171.5 949,-192.5 1065,-192.5 1065,-171.5 949,-171.5"/>
<text text-anchor="middle" x="1007" y="-179.5" font-family="FreeSans" font-size="10.00">Urho3D::Component</text>
</a>
</g>
<!-- Node2&#45;&gt;Node1 -->
<g id="edge2" class="edge"><title>Node2&#45;&gt;Node1</title>
<path fill="none" stroke="midnightblue" d="M1051.62,-168.394C1084.99,-157.975 1131.64,-142.904 1172,-128 1190.89,-121.026 1211.92,-112.311 1227.68,-105.589"/>
<polygon fill="midnightblue" stroke="midnightblue" points="1050.22,-165.164 1041.71,-171.473 1052.29,-171.849 1050.22,-165.164"/>
</g>
<!-- Node3 -->
<g id="node4" class="node"><title>Node3</title>
<a xlink:href="a00054.html" target="_top" xlink:title="Base class for animatable object, an animatable object can be set animation on it&#39;s attributes...">
<polygon fill="none" stroke="black" points="429,-171.5 429,-192.5 543,-192.5 543,-171.5 429,-171.5"/>
<text text-anchor="middle" x="486" y="-179.5" font-family="FreeSans" font-size="10.00">Urho3D::Animatable</text>
</a>
</g>
<!-- Node3&#45;&gt;Node2 -->
<g id="edge4" class="edge"><title>Node3&#45;&gt;Node2</title>
<path fill="none" stroke="midnightblue" d="M553.54,-182C656.675,-182 851.66,-182 948.863,-182"/>
<polygon fill="midnightblue" stroke="midnightblue" points="553.246,-178.5 543.246,-182 553.246,-185.5 553.246,-178.5"/>
</g>
<!-- Node8 -->
<g id="node14" class="node"><title>Node8</title>
<a xlink:href="a00235.html" target="_top" xlink:title="Scene node that may contain components and child nodes.">
<polygon fill="none" stroke="red" points="742.5,-525.5 742.5,-546.5 827.5,-546.5 827.5,-525.5 742.5,-525.5"/>
<text text-anchor="middle" x="785" y="-533.5" font-family="FreeSans" font-size="10.00">Urho3D::Node</text>
</a>
</g>
<!-- Node3&#45;&gt;Node8 -->
<g id="edge16" class="edge"><title>Node3&#45;&gt;Node8</title>
<path fill="none" stroke="midnightblue" d="M553.634,-185.565C602.509,-191.855 666.317,-208.381 704,-251 742.076,-294.063 775.407,-479.164 783.256,-525.468"/>
<polygon fill="midnightblue" stroke="midnightblue" points="553.785,-182.058 543.446,-184.372 552.971,-189.011 553.785,-182.058"/>
</g>
<!-- Node4 -->
<g id="node6" class="node"><title>Node4</title>
<a xlink:href="a00310.html" target="_top" xlink:title="Base class for objects with automatic serialization through attributes.">
<polygon fill="none" stroke="red" points="44,-254.5 44,-275.5 158,-275.5 158,-254.5 44,-254.5"/>
<text text-anchor="middle" x="101" y="-262.5" font-family="FreeSans" font-size="10.00">Urho3D::Serializable</text>
</a>
</g>
<!-- Node4&#45;&gt;Node3 -->
<g id="edge6" class="edge"><title>Node4&#45;&gt;Node3</title>
<path fill="none" stroke="midnightblue" d="M168.344,-263.954C223.999,-260.66 303.703,-250.204 366,-219 375.839,-214.072 374.215,-207.035 384,-202 397.719,-194.941 413.652,-190.366 428.79,-187.403"/>
<polygon fill="midnightblue" stroke="midnightblue" points="168.042,-260.465 158.241,-264.489 168.412,-267.455 168.042,-260.465"/>
</g>
<!-- Node5 -->
<g id="node8" class="node"><title>Node5</title>
<a xlink:href="a00176.html" target="_top" xlink:title="Urho3D::HashMap\&lt; Urho3D\l::String, Urho3D::SharedPtr\l\&lt; Urho3D::AttributeAnimationInfo \&gt; \&gt;">
<polygon fill="none" stroke="red" points="0.5,-188.5 0.5,-235.5 201.5,-235.5 201.5,-188.5 0.5,-188.5"/>
<text text-anchor="start" x="8.5" y="-222.5" font-family="FreeSans" font-size="10.00">Urho3D::HashMap&lt; Urho3D</text>
<text text-anchor="start" x="8.5" y="-209.5" font-family="FreeSans" font-size="10.00">::String, Urho3D::SharedPtr</text>
<text text-anchor="middle" x="101" y="-196.5" font-family="FreeSans" font-size="10.00">&lt; Urho3D::AttributeAnimationInfo &gt; &gt;</text>
</a>
</g>
<!-- Node5&#45;&gt;Node3 -->
<g id="edge8" class="edge"><title>Node5&#45;&gt;Node3</title>
<path fill="none" stroke="#9a32cd" stroke-dasharray="5,2" d="M211.977,-203.352C282.894,-197.826 371.918,-190.89 428.892,-186.45"/>
<polygon fill="#9a32cd" stroke="#9a32cd" points="211.349,-199.891 201.651,-204.157 211.893,-206.87 211.349,-199.891"/>
<text text-anchor="middle" x="293" y="-206" font-family="FreeSans" font-size="10.00"> attributeAnimationInstances_</text>
</g>
<!-- Node6 -->
<g id="node10" class="node"><title>Node6</title>
<a xlink:href="a00320.html" target="_top" xlink:title="Urho3D::SharedPtr\&lt;\l Urho3D::ObjectAnimation \&gt;">
<polygon fill="none" stroke="red" points="24.5,-136 24.5,-170 177.5,-170 177.5,-136 24.5,-136"/>
<text text-anchor="start" x="32.5" y="-157" font-family="FreeSans" font-size="10.00">Urho3D::SharedPtr&lt;</text>
<text text-anchor="middle" x="101" y="-144" font-family="FreeSans" font-size="10.00"> Urho3D::ObjectAnimation &gt;</text>
</a>
</g>
<!-- Node6&#45;&gt;Node3 -->
<g id="edge10" class="edge"><title>Node6&#45;&gt;Node3</title>
<path fill="none" stroke="#9a32cd" stroke-dasharray="5,2" d="M187.712,-159.532C261.372,-165.08 365.008,-172.886 428.719,-177.685"/>
<polygon fill="#9a32cd" stroke="#9a32cd" points="187.759,-156.025 177.524,-158.764 187.233,-163.005 187.759,-156.025"/>
<text text-anchor="middle" x="293" y="-176" font-family="FreeSans" font-size="10.00"> objectAnimation_</text>
</g>
<!-- Node7 -->
<g id="node12" class="node"><title>Node7</title>
<a xlink:href="a00178.html" target="_top" xlink:title="Urho3D::HashSet\&lt; const\l Urho3D::AttributeInfo * \&gt;">
<polygon fill="none" stroke="red" points="30.5,-84 30.5,-118 171.5,-118 171.5,-84 30.5,-84"/>
<text text-anchor="start" x="38.5" y="-105" font-family="FreeSans" font-size="10.00">Urho3D::HashSet&lt; const</text>
<text text-anchor="middle" x="101" y="-92" font-family="FreeSans" font-size="10.00"> Urho3D::AttributeInfo * &gt;</text>
</a>
</g>
<!-- Node7&#45;&gt;Node3 -->
<g id="edge12" class="edge"><title>Node7&#45;&gt;Node3</title>
<path fill="none" stroke="#9a32cd" stroke-dasharray="5,2" d="M181.52,-111.495C234.333,-119.083 304.703,-130.531 366,-145 396.978,-152.313 431.653,-163.319 455.732,-171.427"/>
<polygon fill="#9a32cd" stroke="#9a32cd" points="181.927,-108.018 171.534,-110.076 180.942,-114.948 181.927,-108.018"/>
<text text-anchor="middle" x="293" y="-149" font-family="FreeSans" font-size="10.00"> animatedNetworkAttributes_</text>
</g>
<!-- Node8&#45;&gt;Node2 -->
<g id="edge14" class="edge"><title>Node8&#45;&gt;Node2</title>
<path fill="none" stroke="#9a32cd" stroke-dasharray="5,2" d="M797.198,-516.55C838.069,-451.377 969.352,-242.034 1000.38,-192.553"/>
<polygon fill="#9a32cd" stroke="#9a32cd" points="793.992,-515.074 791.644,-525.405 799.922,-518.793 793.992,-515.074"/>
<text text-anchor="middle" x="891" y="-405" font-family="FreeSans" font-size="10.00"> node_</text>
</g>
<!-- Node8&#45;&gt;Node8 -->
<g id="edge44" class="edge"><title>Node8&#45;&gt;Node8</title>
<path fill="none" stroke="#9a32cd" stroke-dasharray="5,2" d="M765.465,-556.427C766.972,-561.349 773.484,-565 785,-565 803.426,-565 809.04,-555.653 801.842,-546.708"/>
<polygon fill="#9a32cd" stroke="#9a32cd" points="768.861,-557.279 768.158,-546.708 762.115,-555.41 768.861,-557.279"/>
<text text-anchor="middle" x="785" y="-569" font-family="FreeSans" font-size="10.00"> parent_</text>
</g>
<!-- Node10 -->
<g id="node19" class="node"><title>Node10</title>
<a xlink:href="a00298.html" target="_top" xlink:title="Root scene node, represents the whole scene.">
<polygon fill="none" stroke="red" points="962.5,-558.5 962.5,-579.5 1051.5,-579.5 1051.5,-558.5 962.5,-558.5"/>
<text text-anchor="middle" x="1007" y="-566.5" font-family="FreeSans" font-size="10.00">Urho3D::Scene</text>
</a>
</g>
<!-- Node8&#45;&gt;Node10 -->
<g id="edge22" class="edge"><title>Node8&#45;&gt;Node10</title>
<path fill="none" stroke="midnightblue" d="M837.586,-540.416C861.574,-542.739 890.299,-545.954 916,-550 931.146,-552.384 947.582,-555.616 962.266,-558.737"/>
<polygon fill="midnightblue" stroke="midnightblue" points="837.903,-536.931 827.619,-539.475 837.245,-543.9 837.903,-536.931"/>
</g>
<!-- Node9 -->
<g id="node17" class="node"><title>Node9</title>
<a xlink:href="a00268.html" target="_top" xlink:title="Urho3D::PODVector\&lt;\l Urho3D::Node * \&gt;">
<polygon fill="none" stroke="red" points="426.5,-711 426.5,-745 545.5,-745 545.5,-711 426.5,-711"/>
<text text-anchor="start" x="434.5" y="-732" font-family="FreeSans" font-size="10.00">Urho3D::PODVector&lt;</text>
<text text-anchor="middle" x="486" y="-719" font-family="FreeSans" font-size="10.00"> Urho3D::Node * &gt;</text>
</a>
</g>
<!-- Node9&#45;&gt;Node8 -->
<g id="edge18" class="edge"><title>Node9&#45;&gt;Node8</title>
<path fill="none" stroke="#9a32cd" stroke-dasharray="5,2" d="M555.451,-721.32C601.547,-713.881 661.214,-698.168 704,-665 746.01,-632.434 771.985,-571.482 781.207,-546.795"/>
<polygon fill="#9a32cd" stroke="#9a32cd" points="554.896,-717.864 545.536,-722.828 555.948,-724.785 554.896,-717.864"/>
<text text-anchor="middle" x="655" y="-713" font-family="FreeSans" font-size="10.00"> dependencyNodes_</text>
</g>
<!-- Node10&#45;&gt;Node8 -->
<g id="edge20" class="edge"><title>Node10&#45;&gt;Node8</title>
<path fill="none" stroke="#9a32cd" stroke-dasharray="5,2" d="M952.312,-560.871C913.814,-555.148 863.022,-547.598 827.541,-542.324"/>
<polygon fill="#9a32cd" stroke="#9a32cd" points="951.913,-564.35 962.319,-562.358 952.942,-557.426 951.913,-564.35"/>
<text text-anchor="middle" x="891" y="-559" font-family="FreeSans" font-size="10.00"> scene_</text>
</g>
<!-- Node11 -->
<g id="node22" class="node"><title>Node11</title>
<a xlink:href="a00343.html" target="_top" xlink:title="String class.">
<polygon fill="none" stroke="black" points="442,-763.5 442,-784.5 530,-784.5 530,-763.5 442,-763.5"/>
<text text-anchor="middle" x="486" y="-771.5" font-family="FreeSans" font-size="10.00">Urho3D::String</text>
</a>
</g>
<!-- Node11&#45;&gt;Node8 -->
<g id="edge42" class="edge"><title>Node11&#45;&gt;Node8</title>
<path fill="none" stroke="#9a32cd" stroke-dasharray="5,2" d="M540.109,-765.24C555.702,-762.219 572.645,-758.453 588,-754 596.244,-751.609 597.802,-749.542 606,-747 648.731,-733.749 669.703,-752.727 704,-724 761.487,-675.849 779.236,-579.357 783.7,-546.921"/>
<polygon fill="#9a32cd" stroke="#9a32cd" points="539.272,-761.836 530.088,-767.118 540.561,-768.717 539.272,-761.836"/>
<text text-anchor="middle" x="655" y="-751" font-family="FreeSans" font-size="10.00"> name_</text>
</g>
<!-- Node11&#45;&gt;Node10 -->
<g id="edge24" class="edge"><title>Node11&#45;&gt;Node10</title>
<path fill="none" stroke="#9a32cd" stroke-dasharray="5,2" d="M540.332,-777.837C585.298,-779.298 650.278,-777.404 704,-760 830.299,-719.084 956.681,-613.569 995.163,-579.662"/>
<polygon fill="#9a32cd" stroke="#9a32cd" points="540.332,-774.335 530.203,-777.441 540.058,-781.329 540.332,-774.335"/>
<text text-anchor="middle" x="785" y="-756" font-family="FreeSans" font-size="10.00"> fileName_</text>
</g>
<!-- Node11&#45;&gt;Node11 -->
<g id="edge26" class="edge"><title>Node11&#45;&gt;Node11</title>
<path fill="none" stroke="#9a32cd" stroke-dasharray="5,2" d="M454.741,-793.679C456.416,-798.975 466.835,-803 486,-803 515.203,-803 524.101,-793.653 512.693,-784.708"/>
<polygon fill="#9a32cd" stroke="#9a32cd" points="457.89,-795.208 459.307,-784.708 451.651,-792.032 457.89,-795.208"/>
<text text-anchor="middle" x="486" y="-807" font-family="FreeSans" font-size="10.00"> EMPTY</text>
</g>
<!-- Node12 -->
<g id="node25" class="node"><title>Node12</title>
<a xlink:href="a00273.html" target="_top" xlink:title="Rotation represented as a four&#45;dimensional normalized vector.">
<polygon fill="none" stroke="black" points="429.5,-640.5 429.5,-661.5 542.5,-661.5 542.5,-640.5 429.5,-640.5"/>
<text text-anchor="middle" x="486" y="-648.5" font-family="FreeSans" font-size="10.00">Urho3D::Quaternion</text>
</a>
</g>
<!-- Node12&#45;&gt;Node8 -->
<g id="edge28" class="edge"><title>Node12&#45;&gt;Node8</title>
<path fill="none" stroke="#9a32cd" stroke-dasharray="5,2" d="M552.9,-644.907C597.562,-638.807 656.575,-626.731 704,-603 733.051,-588.463 760.863,-561.75 775.114,-546.821"/>
<polygon fill="#9a32cd" stroke="#9a32cd" points="552.203,-641.468 542.737,-646.227 553.104,-648.41 552.203,-641.468"/>
<text text-anchor="middle" x="655" y="-652" font-family="FreeSans" font-size="10.00"> worldRotation_</text>
<text text-anchor="middle" x="655" y="-639" font-family="FreeSans" font-size="10.00">rotation_</text>
</g>
<!-- Node12&#45;&gt;Node12 -->
<g id="edge30" class="edge"><title>Node12&#45;&gt;Node12</title>
<path fill="none" stroke="#9a32cd" stroke-dasharray="5,2" d="M454.741,-670.679C456.416,-675.975 466.835,-680 486,-680 515.203,-680 524.101,-670.653 512.693,-661.708"/>
<polygon fill="#9a32cd" stroke="#9a32cd" points="457.89,-672.208 459.307,-661.708 451.651,-669.032 457.89,-672.208"/>
<text text-anchor="middle" x="486" y="-684" font-family="FreeSans" font-size="10.00"> IDENTITY</text>
</g>
<!-- Node13 -->
<g id="node28" class="node"><title>Node13</title>
<a xlink:href="a00374.html" target="_top" xlink:title="Urho3D::Vector\&lt; Urho3D\l::WeakPtr\&lt; Urho3D::Component \&gt; \&gt;">
<polygon fill="none" stroke="red" points="389,-588 389,-622 583,-622 583,-588 389,-588"/>
<text text-anchor="start" x="397" y="-609" font-family="FreeSans" font-size="10.00">Urho3D::Vector&lt; Urho3D</text>
<text text-anchor="middle" x="486" y="-596" font-family="FreeSans" font-size="10.00">::WeakPtr&lt; Urho3D::Component &gt; &gt;</text>
</a>
</g>
<!-- Node13&#45;&gt;Node8 -->
<g id="edge32" class="edge"><title>Node13&#45;&gt;Node8</title>
<path fill="none" stroke="#9a32cd" stroke-dasharray="5,2" d="M593.061,-589.744C628.658,-583.641 668.311,-575.719 704,-566 723.099,-560.799 744.038,-552.985 759.841,-546.636"/>
<polygon fill="#9a32cd" stroke="#9a32cd" points="592.415,-586.303 583.135,-591.417 593.578,-593.206 592.415,-586.303"/>
<text text-anchor="middle" x="655" y="-590" font-family="FreeSans" font-size="10.00"> listeners_</text>
</g>
<!-- Node14 -->
<g id="node30" class="node"><title>Node14</title>
<a xlink:href="a00379.html" target="_top" xlink:title="Dynamically sized buffer that can be read and written to as a stream.">
<polygon fill="none" stroke="red" points="426.5,-548.5 426.5,-569.5 545.5,-569.5 545.5,-548.5 426.5,-548.5"/>
<text text-anchor="middle" x="486" y="-556.5" font-family="FreeSans" font-size="10.00">Urho3D::VectorBuffer</text>
</a>
</g>
<!-- Node14&#45;&gt;Node8 -->
<g id="edge34" class="edge"><title>Node14&#45;&gt;Node8</title>
<path fill="none" stroke="#9a32cd" stroke-dasharray="5,2" d="M555.928,-553.621C613.623,-549.183 693.633,-543.028 742.221,-539.291"/>
<polygon fill="#9a32cd" stroke="#9a32cd" points="555.491,-550.144 545.788,-554.401 556.028,-557.124 555.491,-550.144"/>
<text text-anchor="middle" x="655" y="-553" font-family="FreeSans" font-size="10.00"> attrBuffer_</text>
</g>
<!-- Node15 -->
<g id="node32" class="node"><title>Node15</title>
<a xlink:href="a00374.html" target="_top" xlink:title="Urho3D::Vector\&lt; Urho3D\l::SharedPtr\&lt; Urho3D::Component \&gt; \&gt;">
<polygon fill="none" stroke="red" points="384.5,-496 384.5,-530 587.5,-530 587.5,-496 384.5,-496"/>
<text text-anchor="start" x="392.5" y="-517" font-family="FreeSans" font-size="10.00">Urho3D::Vector&lt; Urho3D</text>
<text text-anchor="middle" x="486" y="-504" font-family="FreeSans" font-size="10.00">::SharedPtr&lt; Urho3D::Component &gt; &gt;</text>
</a>
</g>
<!-- Node15&#45;&gt;Node8 -->
<g id="edge36" class="edge"><title>Node15&#45;&gt;Node8</title>
<path fill="none" stroke="#9a32cd" stroke-dasharray="5,2" d="M597.624,-517.424C631.803,-519.241 669.485,-521.712 704,-525 716.432,-526.184 729.889,-527.854 742.196,-529.536"/>
<polygon fill="#9a32cd" stroke="#9a32cd" points="597.779,-513.927 587.611,-516.905 597.416,-520.918 597.779,-513.927"/>
<text text-anchor="middle" x="655" y="-529" font-family="FreeSans" font-size="10.00"> components_</text>
</g>
<!-- Node16 -->
<g id="node34" class="node"><title>Node16</title>
<a xlink:href="a00376.html" target="_top" xlink:title="Three&#45;dimensional vector.">
<polygon fill="none" stroke="black" points="438,-334.5 438,-355.5 534,-355.5 534,-334.5 438,-334.5"/>
<text text-anchor="middle" x="486" y="-342.5" font-family="FreeSans" font-size="10.00">Urho3D::Vector3</text>
</a>
</g>
<!-- Node16&#45;&gt;Node8 -->
<g id="edge38" class="edge"><title>Node16&#45;&gt;Node8</title>
<path fill="none" stroke="#9a32cd" stroke-dasharray="5,2" d="M511.282,-361.15C570.904,-399.237 718.996,-493.837 768.55,-525.492"/>
<polygon fill="#9a32cd" stroke="#9a32cd" points="512.813,-357.975 502.501,-355.541 509.045,-363.874 512.813,-357.975"/>
<text text-anchor="middle" x="655" y="-496" font-family="FreeSans" font-size="10.00"> scale_</text>
<text text-anchor="middle" x="655" y="-483" font-family="FreeSans" font-size="10.00">position_</text>
</g>
<!-- Node16&#45;&gt;Node16 -->
<g id="edge40" class="edge"><title>Node16&#45;&gt;Node16</title>
<path fill="none" stroke="#9a32cd" stroke-dasharray="5,2" d="M454.741,-364.679C456.416,-369.975 466.835,-374 486,-374 515.203,-374 524.101,-364.653 512.693,-355.708"/>
<polygon fill="#9a32cd" stroke="#9a32cd" points="457.89,-366.208 459.307,-355.708 451.651,-363.032 457.89,-366.208"/>
<text text-anchor="middle" x="486" y="-469" font-family="FreeSans" font-size="10.00"> ONE</text>
<text text-anchor="middle" x="486" y="-456" font-family="FreeSans" font-size="10.00">DOWN</text>
<text text-anchor="middle" x="486" y="-443" font-family="FreeSans" font-size="10.00">BACK</text>
<text text-anchor="middle" x="486" y="-430" font-family="FreeSans" font-size="10.00">RIGHT</text>
<text text-anchor="middle" x="486" y="-417" font-family="FreeSans" font-size="10.00">LEFT</text>
<text text-anchor="middle" x="486" y="-404" font-family="FreeSans" font-size="10.00">ZERO</text>
<text text-anchor="middle" x="486" y="-391" font-family="FreeSans" font-size="10.00">FORWARD</text>
<text text-anchor="middle" x="486" y="-378" font-family="FreeSans" font-size="10.00">UP</text>
</g>
<!-- Node17 -->
<g id="node39" class="node"><title>Node17</title>
<a xlink:href="a00344.html" target="_top" xlink:title="32&#45;bit hash value for a string.">
<polygon fill="none" stroke="black" points="429.5,-263.5 429.5,-284.5 542.5,-284.5 542.5,-263.5 429.5,-263.5"/>
<text text-anchor="middle" x="486" y="-271.5" font-family="FreeSans" font-size="10.00">Urho3D::StringHash</text>
</a>
</g>
<!-- Node17&#45;&gt;Node8 -->
<g id="edge46" class="edge"><title>Node17&#45;&gt;Node8</title>
<path fill="none" stroke="#9a32cd" stroke-dasharray="5,2" d="M521.991,-288.56C568.794,-308.971 650.829,-349.97 704,-406 740.427,-444.385 769.167,-501.648 780.159,-525.244"/>
<polygon fill="#9a32cd" stroke="#9a32cd" points="523.132,-285.241 512.562,-284.519 520.374,-291.675 523.132,-285.241"/>
<text text-anchor="middle" x="655" y="-410" font-family="FreeSans" font-size="10.00"> nameHash_</text>
</g>
<!-- Node17&#45;&gt;Node17 -->
<g id="edge48" class="edge"><title>Node17&#45;&gt;Node17</title>
<path fill="none" stroke="#9a32cd" stroke-dasharray="5,2" d="M454.741,-293.679C456.416,-298.975 466.835,-303 486,-303 515.203,-303 524.101,-293.653 512.693,-284.708"/>
<polygon fill="#9a32cd" stroke="#9a32cd" points="457.89,-295.208 459.307,-284.708 451.651,-292.032 457.89,-295.208"/>
<text text-anchor="middle" x="486" y="-307" font-family="FreeSans" font-size="10.00"> ZERO</text>
</g>
<!-- Node18 -->
<g id="node42" class="node"><title>Node18</title>
<a xlink:href="a00374.html" target="_top" xlink:title="Urho3D::Vector\&lt; Urho3D\l::SharedPtr\&lt; Urho3D::Node \&gt; \&gt;">
<polygon fill="none" stroke="red" points="399.5,-211 399.5,-245 572.5,-245 572.5,-211 399.5,-211"/>
<text text-anchor="start" x="407.5" y="-232" font-family="FreeSans" font-size="10.00">Urho3D::Vector&lt; Urho3D</text>
<text text-anchor="middle" x="486" y="-219" font-family="FreeSans" font-size="10.00">::SharedPtr&lt; Urho3D::Node &gt; &gt;</text>
</a>
</g>
<!-- Node18&#45;&gt;Node8 -->
<g id="edge50" class="edge"><title>Node18&#45;&gt;Node8</title>
<path fill="none" stroke="#9a32cd" stroke-dasharray="5,2" d="M582.195,-246.508C625.11,-259.442 672.898,-281.089 704,-317 760.529,-382.269 779.065,-490.535 783.696,-525.064"/>
<polygon fill="#9a32cd" stroke="#9a32cd" points="583.13,-243.135 572.551,-243.72 581.186,-249.859 583.13,-243.135"/>
<text text-anchor="middle" x="655" y="-321" font-family="FreeSans" font-size="10.00"> children_</text>
</g>
<!-- Node19 -->
<g id="node44" class="node"><title>Node19</title>
<a xlink:href="a00387.html" target="_top" xlink:title="Urho3D::WeakPtr\&lt; Urho3D\l::Audio \&gt;">
<polygon fill="none" stroke="black" points="934,-104 934,-138 1080,-138 1080,-104 934,-104"/>
<text text-anchor="start" x="942" y="-125" font-family="FreeSans" font-size="10.00">Urho3D::WeakPtr&lt; Urho3D</text>
<text text-anchor="middle" x="1007" y="-112" font-family="FreeSans" font-size="10.00">::Audio &gt;</text>
</a>
</g>
<!-- Node19&#45;&gt;Node1 -->
<g id="edge52" class="edge"><title>Node19&#45;&gt;Node1</title>
<path fill="none" stroke="#9a32cd" stroke-dasharray="5,2" d="M1090.17,-112.174C1122.84,-108.707 1159.68,-104.797 1189.95,-101.585"/>
<polygon fill="#9a32cd" stroke="#9a32cd" points="1089.75,-108.699 1080.18,-113.234 1090.49,-115.659 1089.75,-108.699"/>
<text text-anchor="middle" x="1135" y="-115" font-family="FreeSans" font-size="10.00"> audio_</text>
</g>
<!-- Node20 -->
<g id="node46" class="node"><title>Node20</title>
<a xlink:href="a00073.html" target="_top" xlink:title="Audio subsystem.">
<polygon fill="none" stroke="red" points="742,-132.5 742,-153.5 828,-153.5 828,-132.5 742,-132.5"/>
<text text-anchor="middle" x="785" y="-140.5" font-family="FreeSans" font-size="10.00">Urho3D::Audio</text>
</a>
</g>
<!-- Node20&#45;&gt;Node19 -->
<g id="edge54" class="edge"><title>Node20&#45;&gt;Node19</title>
<path fill="none" stroke="#9a32cd" stroke-dasharray="5,2" d="M838.279,-137.72C866.928,-134.881 902.684,-131.338 933.897,-128.244"/>
<polygon fill="#9a32cd" stroke="#9a32cd" points="837.673,-134.263 828.067,-138.732 838.364,-141.229 837.673,-134.263"/>
<text text-anchor="middle" x="891" y="-138" font-family="FreeSans" font-size="10.00"> ptr_</text>
</g>
<!-- Node21 -->
<g id="node48" class="node"><title>Node21</title>
<a xlink:href="a00281.html" target="_top" xlink:title="Reference count structure.">
<polygon fill="none" stroke="black" points="734,-92.5 734,-113.5 836,-113.5 836,-92.5 734,-92.5"/>
<text text-anchor="middle" x="785" y="-100.5" font-family="FreeSans" font-size="10.00">Urho3D::RefCount</text>
</a>
</g>
<!-- Node21&#45;&gt;Node19 -->
<g id="edge56" class="edge"><title>Node21&#45;&gt;Node19</title>
<path fill="none" stroke="#9a32cd" stroke-dasharray="5,2" d="M846.305,-104.025C868.315,-104.74 893.301,-105.951 916,-108 921.722,-108.517 927.634,-109.145 933.57,-109.843"/>
<polygon fill="#9a32cd" stroke="#9a32cd" points="846.192,-100.52 836.092,-103.721 845.984,-107.517 846.192,-100.52"/>
<text text-anchor="middle" x="891" y="-112" font-family="FreeSans" font-size="10.00"> refCount_</text>
</g>
<!-- Node22 -->
<g id="node50" class="node"><title>Node22</title>
<a xlink:href="a00320.html" target="_top" xlink:title="Urho3D::SharedPtr\&lt;\l Urho3D::SoundStream \&gt;">
<polygon fill="none" stroke="black" points="937,-52 937,-86 1077,-86 1077,-52 937,-52"/>
<text text-anchor="start" x="945" y="-73" font-family="FreeSans" font-size="10.00">Urho3D::SharedPtr&lt;</text>
<text text-anchor="middle" x="1007" y="-60" font-family="FreeSans" font-size="10.00"> Urho3D::SoundStream &gt;</text>
</a>
</g>
<!-- Node22&#45;&gt;Node1 -->
<g id="edge58" class="edge"><title>Node22&#45;&gt;Node1</title>
<path fill="none" stroke="#9a32cd" stroke-dasharray="5,2" d="M1087.37,-77.5287C1120.63,-81.0588 1158.62,-85.0899 1189.71,-88.3898"/>
<polygon fill="#9a32cd" stroke="#9a32cd" points="1087.52,-74.0255 1077.21,-76.4506 1086.78,-80.9864 1087.52,-74.0255"/>
<text text-anchor="middle" x="1135" y="-89" font-family="FreeSans" font-size="10.00"> soundStream_</text>
</g>
<!-- Node23 -->
<g id="node52" class="node"><title>Node23</title>
<a xlink:href="a00330.html" target="_top" xlink:title="Base class for sound streams.">
<polygon fill="none" stroke="red" points="722,-52.5 722,-73.5 848,-73.5 848,-52.5 722,-52.5"/>
<text text-anchor="middle" x="785" y="-60.5" font-family="FreeSans" font-size="10.00">Urho3D::SoundStream</text>
</a>
</g>
<!-- Node23&#45;&gt;Node22 -->
<g id="edge60" class="edge"><title>Node23&#45;&gt;Node22</title>
<path fill="none" stroke="#9a32cd" stroke-dasharray="5,2" d="M858.282,-64.9806C883.551,-65.6635 911.779,-66.4265 936.796,-67.1026"/>
<polygon fill="#9a32cd" stroke="#9a32cd" points="858.113,-61.4749 848.022,-64.7033 857.924,-68.4723 858.113,-61.4749"/>
<text text-anchor="middle" x="891" y="-70" font-family="FreeSans" font-size="10.00"> ptr_</text>
</g>
<!-- Node24 -->
<g id="node54" class="node"><title>Node24</title>
<a xlink:href="a00320.html" target="_top" xlink:title="Urho3D::SharedPtr\&lt;\l Urho3D::Sound \&gt;">
<polygon fill="none" stroke="black" points="949,-0 949,-34 1065,-34 1065,-0 949,-0"/>
<text text-anchor="start" x="957" y="-21" font-family="FreeSans" font-size="10.00">Urho3D::SharedPtr&lt;</text>
<text text-anchor="middle" x="1007" y="-8" font-family="FreeSans" font-size="10.00"> Urho3D::Sound &gt;</text>
</a>
</g>
<!-- Node24&#45;&gt;Node1 -->
<g id="edge62" class="edge"><title>Node24&#45;&gt;Node1</title>
<path fill="none" stroke="#9a32cd" stroke-dasharray="5,2" d="M1075.26,-24.4265C1105.55,-29.0835 1141.22,-36.4705 1172,-48 1196.44,-57.1549 1221.98,-73.5443 1237.45,-84.346"/>
<polygon fill="#9a32cd" stroke="#9a32cd" points="1075.61,-20.9408 1065.21,-22.9498 1074.6,-27.8665 1075.61,-20.9408"/>
<text text-anchor="middle" x="1135" y="-65" font-family="FreeSans" font-size="10.00"> streamBuffer_</text>
<text text-anchor="middle" x="1135" y="-52" font-family="FreeSans" font-size="10.00">sound_</text>
</g>
<!-- Node25 -->
<g id="node56" class="node"><title>Node25</title>
<a xlink:href="a00326.html" target="_top" xlink:title="Sound resource.">
<polygon fill="none" stroke="red" points="740,-6.5 740,-27.5 830,-27.5 830,-6.5 740,-6.5"/>
<text text-anchor="middle" x="785" y="-14.5" font-family="FreeSans" font-size="10.00">Urho3D::Sound</text>
</a>
</g>
<!-- Node25&#45;&gt;Node24 -->
<g id="edge64" class="edge"><title>Node25&#45;&gt;Node24</title>
<path fill="none" stroke="#9a32cd" stroke-dasharray="5,2" d="M840.573,-17C873.562,-17 915.338,-17 948.782,-17"/>
<polygon fill="#9a32cd" stroke="#9a32cd" points="840.193,-13.5001 830.193,-17 840.193,-20.5001 840.193,-13.5001"/>
<text text-anchor="middle" x="891" y="-21" font-family="FreeSans" font-size="10.00"> ptr_</text>
</g>
</g>
</svg>
