<?xml version="1.0" encoding="UTF-8" standalone="no"?>
<!DOCTYPE svg PUBLIC "-//W3C//DTD SVG 1.1//EN"
 "http://www.w3.org/Graphics/SVG/1.1/DTD/svg11.dtd">
<!-- Generated by graphviz version 2.26.3 (20100126.1600)
 -->
<!-- Title: Urho3D::RefCounted Pages: 1 -->
<!--zoomable 737 -->
<svg id="main" version="1.1" xmlns="http://www.w3.org/2000/svg" xmlns:xlink="http://www.w3.org/1999/xlink" xml:space="preserve" onload="init(evt)">
        <defs>
                <circle id="rim" cx="0" cy="0" r="7"/>
                <circle id="rim2" cx="0" cy="0" r="3.5"/>
                <g id="zoomPlus">
                        <use xlink:href="#rim" fill="#404040">
                                <set attributeName="fill" to="#808080" begin="zoomplus.mouseover" end="zoomplus.mouseout"/>
                        </use>
                        <path d="M-4,0h8M0,-4v8" fill="none" stroke="white" stroke-width="1.5" pointer-events="none"/>
                </g>
                <g id="zoomMin">
                        <use xlink:href="#rim" fill="#404040">
                                <set attributeName="fill" to="#808080" begin="zoomminus.mouseover" end="zoomminus.mouseout"/>
                        </use>
                        <path d="M-4,0h8" fill="none" stroke="white" stroke-width="1.5" pointer-events="none"/>
                </g>
                <g id="dirArrow">
                        <path fill="none" stroke="white" stroke-width="1.5" d="M0,-3.0v7 M-2.5,-0.5L0,-3.0L2.5,-0.5"/>
                </g>
               <g id="resetDef">
                       <use xlink:href="#rim2" fill="#404040">
                               <set attributeName="fill" to="#808080" begin="reset.mouseover" end="reset.mouseout"/>
                       </use>
               </g>
        </defs>

<script type="text/javascript">
var viewWidth = 524;
var viewHeight = 737;
var sectionId = 'dynsection-0';
</script>
<script xlink:href="svgpan.js"/>
<svg id="graph" class="graph">
<g id="viewport">
<title>Urho3D::RefCounted</title>
<!-- Node1 -->
<g id="node1" class="node"><title>Node1</title>
<polygon fill="#bfbfbf" stroke="black" points="0,-340.5 0,-361.5 114,-361.5 114,-340.5 0,-340.5"/>
<text text-anchor="middle" x="57" y="-348.5" font-family="FreeSans" font-size="10.00">Urho3D::RefCounted</text>
</g>
<!-- Node2 -->
<g id="node3" class="node"><title>Node2</title>
<a xlink:href="a00060.html" target="_top" xlink:title="Animation instance.">
<polygon fill="none" stroke="black" points="168,-692.5 168,-713.5 302,-713.5 302,-692.5 168,-692.5"/>
<text text-anchor="middle" x="235" y="-700.5" font-family="FreeSans" font-size="10.00">Urho3D::AnimationState</text>
</a>
</g>
<!-- Node1&#45;&gt;Node2 -->
<g id="edge2" class="edge"><title>Node1&#45;&gt;Node2</title>
<path fill="none" stroke="midnightblue" d="M60.0053,-371.627C69.9571,-437.135 103.847,-638.748 150,-683 155.143,-687.931 161.263,-691.726 167.827,-694.635"/>
<polygon fill="midnightblue" stroke="midnightblue" points="63.4587,-371.054 58.5207,-361.681 56.5354,-372.088 63.4587,-371.054"/>
</g>
<!-- Node3 -->
<g id="node5" class="node"><title>Node3</title>
<a xlink:href="a00067.html" target="_top" xlink:title="Internal helper class for invoking attribute accessors.">
<polygon fill="none" stroke="black" points="162.5,-652.5 162.5,-673.5 307.5,-673.5 307.5,-652.5 162.5,-652.5"/>
<text text-anchor="middle" x="235" y="-660.5" font-family="FreeSans" font-size="10.00">Urho3D::AttributeAccessor</text>
</a>
</g>
<!-- Node1&#45;&gt;Node3 -->
<g id="edge4" class="edge"><title>Node1&#45;&gt;Node3</title>
<path fill="none" stroke="midnightblue" d="M60.885,-371.842C72.5344,-432.154 108.917,-604.974 150,-643 154.116,-646.81 158.819,-649.937 163.851,-652.498"/>
<polygon fill="midnightblue" stroke="midnightblue" points="64.2533,-370.819 58.9462,-361.65 57.3765,-372.127 64.2533,-370.819"/>
</g>
<!-- Node6 -->
<g id="node11" class="node"><title>Node6</title>
<a xlink:href="a00070.html" target="_top" xlink:title="Attribute animation instance.">
<polygon fill="none" stroke="black" points="160,-600 160,-634 310,-634 310,-600 160,-600"/>
<text text-anchor="start" x="168" y="-621" font-family="FreeSans" font-size="10.00">Urho3D::AttributeAnimation</text>
<text text-anchor="middle" x="235" y="-608" font-family="FreeSans" font-size="10.00">Instance</text>
</a>
</g>
<!-- Node1&#45;&gt;Node6 -->
<g id="edge10" class="edge"><title>Node1&#45;&gt;Node6</title>
<path fill="none" stroke="midnightblue" d="M59.0067,-371.687C64.5994,-417.883 84.5431,-530.145 150,-591 153.617,-594.362 157.657,-597.29 161.959,-599.84"/>
<polygon fill="midnightblue" stroke="midnightblue" points="62.4773,-371.228 57.8985,-361.673 55.5198,-371.998 62.4773,-371.228"/>
</g>
<!-- Node7 -->
<g id="node13" class="node"><title>Node7</title>
<a xlink:href="a00097.html" target="_top" xlink:title="Base class for collision shape geometry data.">
<polygon fill="none" stroke="black" points="150,-560.5 150,-581.5 320,-581.5 320,-560.5 150,-560.5"/>
<text text-anchor="middle" x="235" y="-568.5" font-family="FreeSans" font-size="10.00">Urho3D::CollisionGeometryData</text>
</a>
</g>
<!-- Node1&#45;&gt;Node7 -->
<g id="edge12" class="edge"><title>Node1&#45;&gt;Node7</title>
<path fill="none" stroke="midnightblue" d="M60.4477,-371.555C68.4172,-412.385 92.0611,-503.829 150,-551 154.703,-554.829 160.011,-557.949 165.62,-560.489"/>
<polygon fill="midnightblue" stroke="midnightblue" points="63.8822,-370.879 58.6365,-361.674 56.9969,-372.141 63.8822,-370.879"/>
</g>
<!-- Node11 -->
<g id="node21" class="node"><title>Node11</title>
<a xlink:href="a00125.html" target="_top" xlink:title="Urho3D execution context. Provides access to subsystems, object factories and attributes, and event receivers.">
<polygon fill="none" stroke="black" points="186.5,-520.5 186.5,-541.5 283.5,-541.5 283.5,-520.5 186.5,-520.5"/>
<text text-anchor="middle" x="235" y="-528.5" font-family="FreeSans" font-size="10.00">Urho3D::Context</text>
</a>
</g>
<!-- Node1&#45;&gt;Node11 -->
<g id="edge20" class="edge"><title>Node1&#45;&gt;Node11</title>
<path fill="none" stroke="midnightblue" d="M62.9822,-371.43C74.1528,-405.838 101.548,-475.1 150,-511 160.475,-518.762 173.505,-523.566 186.191,-526.523"/>
<polygon fill="midnightblue" stroke="midnightblue" points="66.2283,-370.081 59.9193,-361.569 59.5433,-372.158 66.2283,-370.081"/>
</g>
<!-- Node12 -->
<g id="node23" class="node"><title>Node12</title>
<a xlink:href="a00161.html" target="_top" xlink:title="Font face description.">
<polygon fill="none" stroke="black" points="184,-480.5 184,-501.5 286,-501.5 286,-480.5 184,-480.5"/>
<text text-anchor="middle" x="235" y="-488.5" font-family="FreeSans" font-size="10.00">Urho3D::FontFace</text>
</a>
</g>
<!-- Node1&#45;&gt;Node12 -->
<g id="edge22" class="edge"><title>Node1&#45;&gt;Node12</title>
<path fill="none" stroke="midnightblue" d="M66.8075,-370.866C81.2065,-397.88 110.679,-445.725 150,-471 160.075,-477.476 172.026,-481.859 183.736,-484.825"/>
<polygon fill="midnightblue" stroke="midnightblue" points="69.7338,-368.904 62.0378,-361.622 63.5132,-372.114 69.7338,-368.904"/>
</g>
<!-- Node13 -->
<g id="node25" class="node"><title>Node13</title>
<a xlink:href="a00180.html" target="_top" xlink:title="An HTTP connection with response data stream.">
<polygon fill="none" stroke="black" points="175.5,-440.5 175.5,-461.5 294.5,-461.5 294.5,-440.5 175.5,-440.5"/>
<text text-anchor="middle" x="235" y="-448.5" font-family="FreeSans" font-size="10.00">Urho3D::HttpRequest</text>
</a>
</g>
<!-- Node1&#45;&gt;Node13 -->
<g id="edge24" class="edge"><title>Node1&#45;&gt;Node13</title>
<path fill="none" stroke="midnightblue" d="M73.1956,-369.348C90.4288,-387.714 119.384,-415.42 150,-431 157.836,-434.988 166.485,-438.195 175.176,-440.771"/>
<polygon fill="midnightblue" stroke="midnightblue" points="75.4741,-366.653 66.1386,-361.643 70.3122,-371.381 75.4741,-366.653"/>
</g>
<!-- Node14 -->
<g id="node27" class="node"><title>Node14</title>
<a xlink:href="a00206.html" target="_top" xlink:title="Lua function.">
<polygon fill="none" stroke="black" points="177,-400.5 177,-421.5 293,-421.5 293,-400.5 177,-400.5"/>
<text text-anchor="middle" x="235" y="-408.5" font-family="FreeSans" font-size="10.00">Urho3D::LuaFunction</text>
</a>
</g>
<!-- Node1&#45;&gt;Node14 -->
<g id="edge26" class="edge"><title>Node1&#45;&gt;Node14</title>
<path fill="none" stroke="midnightblue" d="M88.0818,-365.992C105.907,-374.176 128.875,-384.031 150,-391 160.798,-394.562 172.564,-397.753 183.805,-400.486"/>
<polygon fill="midnightblue" stroke="midnightblue" points="89.295,-362.696 78.7523,-361.646 86.3391,-369.042 89.295,-362.696"/>
</g>
<!-- Node15 -->
<g id="node29" class="node"><title>Node15</title>
<a xlink:href="a00235.html" target="_top" xlink:title="Base class for objects with type identification, subsystem access and event sending/receiving capabil...">
<polygon fill="none" stroke="red" points="190,-360.5 190,-381.5 280,-381.5 280,-360.5 190,-360.5"/>
<text text-anchor="middle" x="235" y="-368.5" font-family="FreeSans" font-size="10.00">Urho3D::Object</text>
</a>
</g>
<!-- Node1&#45;&gt;Node15 -->
<g id="edge28" class="edge"><title>Node1&#45;&gt;Node15</title>
<path fill="none" stroke="midnightblue" d="M124.53,-358.588C146.401,-361.045 170.111,-363.709 189.938,-365.937"/>
<polygon fill="midnightblue" stroke="midnightblue" points="124.628,-355.077 114.3,-357.438 123.847,-362.033 124.628,-355.077"/>
</g>
<!-- Node16 -->
<g id="node31" class="node"><title>Node16</title>
<a xlink:href="a00237.html" target="_top" xlink:title="Base class for object factories.">
<polygon fill="none" stroke="red" points="172.5,-320.5 172.5,-341.5 297.5,-341.5 297.5,-320.5 172.5,-320.5"/>
<text text-anchor="middle" x="235" y="-328.5" font-family="FreeSans" font-size="10.00">Urho3D::ObjectFactory</text>
</a>
</g>
<!-- Node1&#45;&gt;Node16 -->
<g id="edge30" class="edge"><title>Node1&#45;&gt;Node16</title>
<path fill="none" stroke="midnightblue" d="M124.452,-343.421C140.144,-341.658 156.785,-339.788 172.263,-338.049"/>
<polygon fill="midnightblue" stroke="midnightblue" points="123.847,-339.967 114.3,-344.562 124.628,-346.923 123.847,-339.967"/>
</g>
<!-- Node17 -->
<g id="node33" class="node"><title>Node17</title>
<a xlink:href="a00256.html" target="_top" xlink:title="Material rendering pass, which defines shaders and render state.">
<polygon fill="none" stroke="black" points="194.5,-280.5 194.5,-301.5 275.5,-301.5 275.5,-280.5 194.5,-280.5"/>
<text text-anchor="middle" x="235" y="-288.5" font-family="FreeSans" font-size="10.00">Urho3D::Pass</text>
</a>
</g>
<!-- Node1&#45;&gt;Node17 -->
<g id="edge32" class="edge"><title>Node1&#45;&gt;Node17</title>
<path fill="none" stroke="midnightblue" d="M88.0818,-336.008C105.907,-327.824 128.875,-317.969 150,-311 164.253,-306.298 180.194,-302.242 194.386,-299.035"/>
<polygon fill="midnightblue" stroke="midnightblue" points="86.3391,-332.958 78.7523,-340.354 89.295,-339.304 86.3391,-332.958"/>
</g>
<!-- Node18 -->
<g id="node35" class="node"><title>Node18</title>
<a xlink:href="a00280.html" target="_top" xlink:title="Rendering path definition.">
<polygon fill="none" stroke="black" points="178.5,-240.5 178.5,-261.5 291.5,-261.5 291.5,-240.5 178.5,-240.5"/>
<text text-anchor="middle" x="235" y="-248.5" font-family="FreeSans" font-size="10.00">Urho3D::RenderPath</text>
</a>
</g>
<!-- Node1&#45;&gt;Node18 -->
<g id="edge34" class="edge"><title>Node1&#45;&gt;Node18</title>
<path fill="none" stroke="midnightblue" d="M73.1956,-332.652C90.4288,-314.286 119.384,-286.58 150,-271 158.782,-266.531 168.584,-263.042 178.323,-260.323"/>
<polygon fill="midnightblue" stroke="midnightblue" points="70.3122,-330.619 66.1386,-340.357 75.4741,-335.347 70.3122,-330.619"/>
</g>
<!-- Node19 -->
<g id="node37" class="node"><title>Node19</title>
<a xlink:href="a00282.html" target="_top" xlink:title="Color or depth&#45;stencil surface that can be rendered into.">
<polygon fill="none" stroke="black" points="170.5,-200.5 170.5,-221.5 299.5,-221.5 299.5,-200.5 170.5,-200.5"/>
<text text-anchor="middle" x="235" y="-208.5" font-family="FreeSans" font-size="10.00">Urho3D::RenderSurface</text>
</a>
</g>
<!-- Node1&#45;&gt;Node19 -->
<g id="edge36" class="edge"><title>Node1&#45;&gt;Node19</title>
<path fill="none" stroke="midnightblue" d="M66.8075,-331.134C81.2065,-304.12 110.679,-256.275 150,-231 156.249,-226.983 163.22,-223.772 170.407,-221.204"/>
<polygon fill="midnightblue" stroke="midnightblue" points="63.5132,-329.886 62.0378,-340.378 69.7338,-333.096 63.5132,-329.886"/>
</g>
<!-- Node20 -->
<g id="node39" class="node"><title>Node20</title>
<a xlink:href="a00309.html" target="_top" xlink:title="Linked shader program on the GPU.">
<polygon fill="none" stroke="black" points="167.5,-160.5 167.5,-181.5 302.5,-181.5 302.5,-160.5 167.5,-160.5"/>
<text text-anchor="middle" x="235" y="-168.5" font-family="FreeSans" font-size="10.00">Urho3D::ShaderProgram</text>
</a>
</g>
<!-- Node1&#45;&gt;Node20 -->
<g id="edge38" class="edge"><title>Node1&#45;&gt;Node20</title>
<path fill="none" stroke="midnightblue" d="M62.9822,-330.57C74.1528,-296.162 101.548,-226.9 150,-191 155.238,-187.119 161.114,-183.978 167.267,-181.437"/>
<polygon fill="midnightblue" stroke="midnightblue" points="59.5433,-329.842 59.9193,-340.431 66.2283,-331.919 59.5433,-329.842"/>
</g>
<!-- Node21 -->
<g id="node41" class="node"><title>Node21</title>
<a xlink:href="a00310.html" target="_top" xlink:title="Vertex or pixel shader on the GPU.">
<polygon fill="none" stroke="black" points="167,-120.5 167,-141.5 303,-141.5 303,-120.5 167,-120.5"/>
<text text-anchor="middle" x="235" y="-128.5" font-family="FreeSans" font-size="10.00">Urho3D::ShaderVariation</text>
</a>
</g>
<!-- Node1&#45;&gt;Node21 -->
<g id="edge40" class="edge"><title>Node1&#45;&gt;Node21</title>
<path fill="none" stroke="midnightblue" d="M60.4477,-330.445C68.4172,-289.615 92.0611,-198.171 150,-151 155.055,-146.884 160.81,-143.587 166.888,-140.949"/>
<polygon fill="midnightblue" stroke="midnightblue" points="56.9969,-329.859 58.6365,-340.326 63.8822,-331.121 56.9969,-329.859"/>
</g>
<!-- Node22 -->
<g id="node43" class="node"><title>Node22</title>
<a xlink:href="a00323.html" target="_top" xlink:title="Base class for sound streams.">
<polygon fill="none" stroke="red" points="172,-80.5 172,-101.5 298,-101.5 298,-80.5 172,-80.5"/>
<text text-anchor="middle" x="235" y="-88.5" font-family="FreeSans" font-size="10.00">Urho3D::SoundStream</text>
</a>
</g>
<!-- Node1&#45;&gt;Node22 -->
<g id="edge42" class="edge"><title>Node1&#45;&gt;Node22</title>
<path fill="none" stroke="midnightblue" d="M58.6901,-330.323C63.6531,-283.686 82.4224,-169.806 150,-111 156.29,-105.527 163.801,-101.482 171.717,-98.5045"/>
<polygon fill="midnightblue" stroke="midnightblue" points="55.1926,-330.131 57.7245,-340.419 62.1608,-330.798 55.1926,-330.131"/>
</g>
<!-- Node23 -->
<g id="node45" class="node"><title>Node23</title>
<a xlink:title="Worker thread managed by the work queue.">
<polygon fill="none" stroke="#bfbfbf" points="172.5,-40.5 172.5,-61.5 297.5,-61.5 297.5,-40.5 172.5,-40.5"/>
<text text-anchor="middle" x="235" y="-48.5" font-family="FreeSans" font-size="10.00">Urho3D::WorkerThread</text>
</a>
</g>
<!-- Node1&#45;&gt;Node23 -->
<g id="edge44" class="edge"><title>Node1&#45;&gt;Node23</title>
<path fill="none" stroke="midnightblue" d="M61.0897,-330.616C73.165,-272.406 110.311,-107.284 150,-71 156.378,-65.1695 164.129,-60.9439 172.327,-57.8975"/>
<polygon fill="midnightblue" stroke="midnightblue" points="57.648,-329.976 59.0734,-340.475 64.5061,-331.379 57.648,-329.976"/>
</g>
<!-- Node24 -->
<g id="node47" class="node"><title>Node24</title>
<a xlink:href="a00377.html" target="_top" xlink:title="Work queue item.">
<polygon fill="none" stroke="black" points="183,-0.5 183,-21.5 287,-21.5 287,-0.5 183,-0.5"/>
<text text-anchor="middle" x="235" y="-8.5" font-family="FreeSans" font-size="10.00">Urho3D::WorkItem</text>
</a>
</g>
<!-- Node1&#45;&gt;Node24 -->
<g id="edge46" class="edge"><title>Node1&#45;&gt;Node24</title>
<path fill="none" stroke="midnightblue" d="M60.2484,-330.294C70.6972,-266.287 105.376,-73.3723 150,-31 158.905,-22.5446 170.684,-17.4376 182.627,-14.4066"/>
<polygon fill="midnightblue" stroke="midnightblue" points="56.7604,-329.94 58.6314,-340.368 63.6719,-331.049 56.7604,-329.94"/>
</g>
<!-- Node4 -->
<g id="node7" class="node"><title>Node4</title>
<a xlink:href="a00068.html" target="_top" xlink:title="Template implementation of the attribute accessor invoke helper class.">
<polygon fill="none" stroke="black" points="363.5,-695 363.5,-729 508.5,-729 508.5,-695 363.5,-695"/>
<text text-anchor="start" x="371.5" y="-716" font-family="FreeSans" font-size="10.00">Urho3D::AttributeAccessor</text>
<text text-anchor="middle" x="436" y="-703" font-family="FreeSans" font-size="10.00">Impl&lt; T, U &gt;</text>
</a>
</g>
<!-- Node3&#45;&gt;Node4 -->
<g id="edge6" class="edge"><title>Node3&#45;&gt;Node4</title>
<path fill="none" stroke="midnightblue" d="M290.238,-675.88C300.152,-678.225 310.387,-680.668 320,-683 335.735,-686.818 352.651,-691.001 368.566,-694.973"/>
<polygon fill="midnightblue" stroke="midnightblue" points="291,-672.464 280.464,-673.574 289.394,-679.277 291,-672.464"/>
</g>
<!-- Node5 -->
<g id="node9" class="node"><title>Node5</title>
<a xlink:href="a00275.html" target="_top" xlink:title="Template implementation of the attribute accessor invoke helper class using const references...">
<polygon fill="none" stroke="black" points="356.5,-643 356.5,-677 515.5,-677 515.5,-643 356.5,-643"/>
<text text-anchor="start" x="364.5" y="-664" font-family="FreeSans" font-size="10.00">Urho3D::RefAttributeAccessor</text>
<text text-anchor="middle" x="436" y="-651" font-family="FreeSans" font-size="10.00">Impl&lt; T, U &gt;</text>
</a>
</g>
<!-- Node3&#45;&gt;Node5 -->
<g id="edge8" class="edge"><title>Node3&#45;&gt;Node5</title>
<path fill="none" stroke="midnightblue" d="M317.717,-661.765C330.502,-661.575 343.683,-661.378 356.397,-661.188"/>
<polygon fill="midnightblue" stroke="midnightblue" points="317.512,-658.268 307.566,-661.917 317.617,-665.267 317.512,-658.268"/>
</g>
<!-- Node8 -->
<g id="node15" class="node"><title>Node8</title>
<a xlink:href="a00127.html" target="_top" xlink:title="Convex hull geometry data.">
<polygon fill="none" stroke="black" points="377,-600.5 377,-621.5 495,-621.5 495,-600.5 377,-600.5"/>
<text text-anchor="middle" x="436" y="-608.5" font-family="FreeSans" font-size="10.00">Urho3D::ConvexData</text>
</a>
</g>
<!-- Node7&#45;&gt;Node8 -->
<g id="edge14" class="edge"><title>Node7&#45;&gt;Node8</title>
<path fill="none" stroke="midnightblue" d="M297.703,-583.478C325.144,-588.939 356.985,-595.276 383.194,-600.491"/>
<polygon fill="midnightblue" stroke="midnightblue" points="298.301,-580.029 287.81,-581.51 296.935,-586.894 298.301,-580.029"/>
</g>
<!-- Node9 -->
<g id="node17" class="node"><title>Node9</title>
<a xlink:href="a00178.html" target="_top" xlink:title="Heightfield geometry data.">
<polygon fill="none" stroke="black" points="369,-560.5 369,-581.5 503,-581.5 503,-560.5 369,-560.5"/>
<text text-anchor="middle" x="436" y="-568.5" font-family="FreeSans" font-size="10.00">Urho3D::HeightfieldData</text>
</a>
</g>
<!-- Node7&#45;&gt;Node9 -->
<g id="edge16" class="edge"><title>Node7&#45;&gt;Node9</title>
<path fill="none" stroke="midnightblue" d="M330.59,-571C343.543,-571 356.605,-571 368.913,-571"/>
<polygon fill="midnightblue" stroke="midnightblue" points="330.242,-567.5 320.242,-571 330.242,-574.5 330.242,-567.5"/>
</g>
<!-- Node10 -->
<g id="node19" class="node"><title>Node10</title>
<a xlink:href="a00354.html" target="_top" xlink:title="Triangle mesh geometry data.">
<polygon fill="none" stroke="black" points="364,-520.5 364,-541.5 508,-541.5 508,-520.5 364,-520.5"/>
<text text-anchor="middle" x="436" y="-528.5" font-family="FreeSans" font-size="10.00">Urho3D::TriangleMeshData</text>
</a>
</g>
<!-- Node7&#45;&gt;Node10 -->
<g id="edge18" class="edge"><title>Node7&#45;&gt;Node10</title>
<path fill="none" stroke="midnightblue" d="M297.703,-558.522C325.144,-553.061 356.985,-546.724 383.194,-541.509"/>
<polygon fill="midnightblue" stroke="midnightblue" points="296.935,-555.106 287.81,-560.49 298.301,-561.971 296.935,-555.106"/>
</g>
</g>
</svg>
        <g id="navigator" transform="translate(0 0)" fill="#404254">
                <rect fill="#f2f5e9" fill-opacity="0.5" stroke="#606060" stroke-width=".5" x="0" y="0" width="60" height="60"/>
                <use id="zoomplus" xlink:href="#zoomPlus" x="17" y="9" onmousedown="handleZoom(evt,'in')"/>
                <use id="zoomminus" xlink:href="#zoomMin" x="42" y="9" onmousedown="handleZoom(evt,'out')"/>
                <use id="reset" xlink:href="#resetDef" x="30" y="36" onmousedown="handleReset()"/>
                <g id="arrowUp" xlink:href="#dirArrow" transform="translate(30 24)" onmousedown="handlePan(0,-1)">
                  <use xlink:href="#rim" fill="#404040">
                        <set attributeName="fill" to="#808080" begin="arrowUp.mouseover" end="arrowUp.mouseout"/>
                  </use>
                  <path fill="none" stroke="white" stroke-width="1.5" d="M0,-3.0v7 M-2.5,-0.5L0,-3.0L2.5,-0.5"/>
                </g>
                <g id="arrowRight" xlink:href="#dirArrow" transform="rotate(90) translate(36 -43)" onmousedown="handlePan(1,0)">
                  <use xlink:href="#rim" fill="#404040">
                        <set attributeName="fill" to="#808080" begin="arrowRight.mouseover" end="arrowRight.mouseout"/>
                  </use>
                  <path fill="none" stroke="white" stroke-width="1.5" d="M0,-3.0v7 M-2.5,-0.5L0,-3.0L2.5,-0.5"/>
                </g>
                <g id="arrowDown" xlink:href="#dirArrow" transform="rotate(180) translate(-30 -48)" onmousedown="handlePan(0,1)">
                  <use xlink:href="#rim" fill="#404040">
                        <set attributeName="fill" to="#808080" begin="arrowDown.mouseover" end="arrowDown.mouseout"/>
                  </use>
                  <path fill="none" stroke="white" stroke-width="1.5" d="M0,-3.0v7 M-2.5,-0.5L0,-3.0L2.5,-0.5"/>
                </g>
                <g id="arrowLeft" xlink:href="#dirArrow" transform="rotate(270) translate(-36 17)" onmousedown="handlePan(-1,0)">
                  <use xlink:href="#rim" fill="#404040">
                        <set attributeName="fill" to="#808080" begin="arrowLeft.mouseover" end="arrowLeft.mouseout"/>
                  </use>
                  <path fill="none" stroke="white" stroke-width="1.5" d="M0,-3.0v7 M-2.5,-0.5L0,-3.0L2.5,-0.5"/>
                </g>
        </g>
        <svg viewBox="0 0 15 15" width="100%" height="30px" preserveAspectRatio="xMaxYMin meet">
         <g id="arrow_out" transform="scale(0.3 0.3)">
          <a xlink:href="a00956_org.svg" target="_base">
           <rect id="button" ry="5" rx="5" y="6" x="6" height="38" width="38"
                fill="#f2f5e9" fill-opacity="0.5" stroke="#606060" stroke-width="1.0"/>
           <path id="arrow"
             d="M 11.500037,31.436501 C 11.940474,20.09759 22.043105,11.32322 32.158766,21.979434 L 37.068811,17.246167 C 37.068811,17.246167 37.088388,32 37.088388,32 L 22.160133,31.978069 C 22.160133,31.978069 26.997745,27.140456 26.997745,27.140456 C 18.528582,18.264221 13.291696,25.230495 11.500037,31.436501 z"
             style="fill:#404040;"/>
          </a>
         </g>
        </svg>
</svg>
