<?xml version="1.0" encoding="UTF-8" standalone="no"?>
<!DOCTYPE svg PUBLIC "-//W3C//DTD SVG 1.1//EN"
 "http://www.w3.org/Graphics/SVG/1.1/DTD/svg11.dtd">
<!-- Generated by graphviz version 2.26.3 (20100126.1600)
 -->
<!-- Title: Urho3D::AnimatedModel Pages: 1 -->
<svg width="1356pt" height="866pt"
 viewBox="0.00 0.00 1356.00 866.00" xmlns="http://www.w3.org/2000/svg" xmlns:xlink="http://www.w3.org/1999/xlink">
<g id="graph1" class="graph" transform="scale(1 1) rotate(0) translate(4 862)">
<title>Urho3D::AnimatedModel</title>
<!-- Node1 -->
<g id="node1" class="node"><title>Node1</title>
<polygon fill="#bfbfbf" stroke="black" points="1214,-306.5 1214,-327.5 1348,-327.5 1348,-306.5 1214,-306.5"/>
<text text-anchor="middle" x="1281" y="-314.5" font-family="FreeSans" font-size="10.00">Urho3D::AnimatedModel</text>
</g>
<!-- Node2 -->
<g id="node2" class="node"><title>Node2</title>
<a xlink:href="a00310.html" target="_top" xlink:title="Static model component.">
<polygon fill="none" stroke="black" points="905,-530.5 905,-551.5 1021,-551.5 1021,-530.5 905,-530.5"/>
<text text-anchor="middle" x="963" y="-538.5" font-family="FreeSans" font-size="10.00">Urho3D::StaticModel</text>
</a>
</g>
<!-- Node2&#45;&gt;Node1 -->
<g id="edge2" class="edge"><title>Node2&#45;&gt;Node1</title>
<path fill="none" stroke="midnightblue" d="M1031.2,-539.526C1081.53,-535.164 1149.14,-522.06 1196,-485 1249.58,-442.623 1272.33,-357.464 1278.88,-327.624"/>
<polygon fill="midnightblue" stroke="midnightblue" points="1030.76,-536.05 1021.06,-540.308 1031.3,-543.029 1030.76,-536.05"/>
</g>
<!-- Node3 -->
<g id="node4" class="node"><title>Node3</title>
<a xlink:href="a00128.html" target="_top" xlink:title="Base class for visible components.">
<polygon fill="none" stroke="red" points="486,-674.5 486,-695.5 590,-695.5 590,-674.5 486,-674.5"/>
<text text-anchor="middle" x="538" y="-682.5" font-family="FreeSans" font-size="10.00">Urho3D::Drawable</text>
</a>
</g>
<!-- Node3&#45;&gt;Node2 -->
<g id="edge4" class="edge"><title>Node3&#45;&gt;Node2</title>
<path fill="none" stroke="midnightblue" d="M600.458,-683.453C664.585,-679.839 766.031,-668.405 846,-633 891.366,-612.915 934.495,-571.207 953.225,-551.609"/>
<polygon fill="midnightblue" stroke="midnightblue" points="599.912,-679.976 590.105,-683.986 600.272,-686.967 599.912,-679.976"/>
</g>
<!-- Node4 -->
<g id="node6" class="node"><title>Node4</title>
<a xlink:href="a00097.html" target="_top" xlink:title="Base class for components. Components can be created to scene nodes.">
<polygon fill="none" stroke="red" points="187,-657.5 187,-678.5 303,-678.5 303,-657.5 187,-657.5"/>
<text text-anchor="middle" x="245" y="-665.5" font-family="FreeSans" font-size="10.00">Urho3D::Component</text>
</a>
</g>
<!-- Node4&#45;&gt;Node3 -->
<g id="edge6" class="edge"><title>Node4&#45;&gt;Node3</title>
<path fill="none" stroke="midnightblue" d="M313.498,-671.974C366.125,-675.028 437.71,-679.181 485.769,-681.97"/>
<polygon fill="midnightblue" stroke="midnightblue" points="313.424,-668.464 303.238,-671.379 313.018,-675.452 313.424,-668.464"/>
</g>
<!-- Node5 -->
<g id="node8" class="node"><title>Node5</title>
<a xlink:href="a00157.html" target="_top" xlink:title="Urho3D::HashSet\&lt; Urho3D\l::Camera * \&gt;">
<polygon fill="none" stroke="red" points="170.5,-605 170.5,-639 319.5,-639 319.5,-605 170.5,-605"/>
<text text-anchor="start" x="178.5" y="-626" font-family="FreeSans" font-size="10.00">Urho3D::HashSet&lt; Urho3D</text>
<text text-anchor="middle" x="245" y="-613" font-family="FreeSans" font-size="10.00">::Camera * &gt;</text>
</a>
</g>
<!-- Node5&#45;&gt;Node3 -->
<g id="edge8" class="edge"><title>Node5&#45;&gt;Node3</title>
<path fill="none" stroke="#9a32cd" stroke-dasharray="5,2" d="M329.943,-631.771C363.515,-637.009 402.099,-644.769 436,-656 444.49,-658.813 445.594,-661.944 454,-665 464.144,-668.688 475.226,-671.883 485.917,-674.572"/>
<polygon fill="#9a32cd" stroke="#9a32cd" points="330.106,-628.256 319.695,-630.225 329.062,-635.178 330.106,-628.256"/>
<text text-anchor="middle" x="387" y="-660" font-family="FreeSans" font-size="10.00"> viewCameras_</text>
</g>
<!-- Node6 -->
<g id="node10" class="node"><title>Node6</title>
<a xlink:href="a00080.html" target="_top" xlink:title="Three&#45;dimensional axis&#45;aligned bounding box.">
<polygon fill="none" stroke="black" points="184,-714.5 184,-735.5 306,-735.5 306,-714.5 184,-714.5"/>
<text text-anchor="middle" x="245" y="-722.5" font-family="FreeSans" font-size="10.00">Urho3D::BoundingBox</text>
</a>
</g>
<!-- Node6&#45;&gt;Node1 -->
<g id="edge56" class="edge"><title>Node6&#45;&gt;Node1</title>
<path fill="none" stroke="#9a32cd" stroke-dasharray="5,2" d="M316.504,-728.735C352.398,-729.947 396.533,-730.431 436,-728 619.688,-716.686 668.944,-720.207 846,-670 1008.32,-623.972 1077.07,-642.677 1196,-523 1254.09,-464.546 1274.36,-360.754 1279.53,-327.536"/>
<polygon fill="#9a32cd" stroke="#9a32cd" points="316.249,-725.224 306.128,-728.358 315.994,-732.219 316.249,-725.224"/>
<text text-anchor="middle" x="743" y="-717" font-family="FreeSans" font-size="10.00"> boneBoundingBox_</text>
</g>
<!-- Node6&#45;&gt;Node3 -->
<g id="edge10" class="edge"><title>Node6&#45;&gt;Node3</title>
<path fill="none" stroke="#9a32cd" stroke-dasharray="5,2" d="M291.714,-711.92C306.425,-708.214 322.8,-704.509 338,-702 387.854,-693.769 445.396,-689.409 485.923,-687.174"/>
<polygon fill="#9a32cd" stroke="#9a32cd" points="290.638,-708.583 281.831,-714.472 292.388,-715.361 290.638,-708.583"/>
<text text-anchor="middle" x="387" y="-719" font-family="FreeSans" font-size="10.00"> worldBoundingBox_</text>
<text text-anchor="middle" x="387" y="-706" font-family="FreeSans" font-size="10.00">boundingBox_</text>
</g>
<!-- Node7 -->
<g id="node12" class="node"><title>Node7</title>
<a xlink:href="a00342.html" target="_top" xlink:title="Three&#45;dimensional vector.">
<polygon fill="none" stroke="black" points="4,-714.5 4,-735.5 100,-735.5 100,-714.5 4,-714.5"/>
<text text-anchor="middle" x="52" y="-722.5" font-family="FreeSans" font-size="10.00">Urho3D::Vector3</text>
</a>
</g>
<!-- Node7&#45;&gt;Node6 -->
<g id="edge12" class="edge"><title>Node7&#45;&gt;Node6</title>
<path fill="none" stroke="#9a32cd" stroke-dasharray="5,2" d="M110.282,-725C133.556,-725 160.366,-725 183.912,-725"/>
<polygon fill="#9a32cd" stroke="#9a32cd" points="110.204,-721.5 100.204,-725 110.204,-728.5 110.204,-721.5"/>
<text text-anchor="middle" x="137" y="-742" font-family="FreeSans" font-size="10.00"> max_</text>
<text text-anchor="middle" x="137" y="-729" font-family="FreeSans" font-size="10.00">min_</text>
</g>
<!-- Node7&#45;&gt;Node7 -->
<g id="edge14" class="edge"><title>Node7&#45;&gt;Node7</title>
<path fill="none" stroke="#9a32cd" stroke-dasharray="5,2" d="M36.6167,-745.793C37.9744,-750.529 43.1022,-754 52,-754 66.6016,-754 71.0505,-744.653 65.3467,-735.708"/>
<polygon fill="#9a32cd" stroke="#9a32cd" points="40.1046,-746.203 38.6533,-735.708 33.2431,-744.817 40.1046,-746.203"/>
<text text-anchor="middle" x="52" y="-849" font-family="FreeSans" font-size="10.00"> ONE</text>
<text text-anchor="middle" x="52" y="-836" font-family="FreeSans" font-size="10.00">DOWN</text>
<text text-anchor="middle" x="52" y="-823" font-family="FreeSans" font-size="10.00">BACK</text>
<text text-anchor="middle" x="52" y="-810" font-family="FreeSans" font-size="10.00">RIGHT</text>
<text text-anchor="middle" x="52" y="-797" font-family="FreeSans" font-size="10.00">LEFT</text>
<text text-anchor="middle" x="52" y="-784" font-family="FreeSans" font-size="10.00">ZERO</text>
<text text-anchor="middle" x="52" y="-771" font-family="FreeSans" font-size="10.00">FORWARD</text>
<text text-anchor="middle" x="52" y="-758" font-family="FreeSans" font-size="10.00">UP</text>
</g>
<!-- Node8 -->
<g id="node15" class="node"><title>Node8</title>
<a xlink:href="a00268.html" target="_top" xlink:title="List of typed resource references.">
<polygon fill="none" stroke="red" points="471,-502.5 471,-523.5 605,-523.5 605,-502.5 471,-502.5"/>
<text text-anchor="middle" x="538" y="-510.5" font-family="FreeSans" font-size="10.00">Urho3D::ResourceRefList</text>
</a>
</g>
<!-- Node8&#45;&gt;Node2 -->
<g id="edge16" class="edge"><title>Node8&#45;&gt;Node2</title>
<path fill="none" stroke="#9a32cd" stroke-dasharray="5,2" d="M615.17,-516.934C677.489,-520.249 767.431,-525.348 846,-531 865.114,-532.375 885.966,-534.089 904.702,-535.707"/>
<polygon fill="#9a32cd" stroke="#9a32cd" points="615.196,-513.43 605.025,-516.397 614.826,-520.42 615.196,-513.43"/>
<text text-anchor="middle" x="743" y="-535" font-family="FreeSans" font-size="10.00"> materialsAttr_</text>
</g>
<!-- Node9 -->
<g id="node17" class="node"><title>Node9</title>
<a xlink:href="a00292.html" target="_top" xlink:title="Urho3D::SharedPtr\&lt;\l Urho3D::Model \&gt;">
<polygon fill="none" stroke="red" points="480,-450 480,-484 596,-484 596,-450 480,-450"/>
<text text-anchor="start" x="488" y="-471" font-family="FreeSans" font-size="10.00">Urho3D::SharedPtr&lt;</text>
<text text-anchor="middle" x="538" y="-458" font-family="FreeSans" font-size="10.00"> Urho3D::Model &gt;</text>
</a>
</g>
<!-- Node9&#45;&gt;Node2 -->
<g id="edge18" class="edge"><title>Node9&#45;&gt;Node2</title>
<path fill="none" stroke="#9a32cd" stroke-dasharray="5,2" d="M606.399,-470.672C669.263,-475.011 764.738,-484.046 846,-502 877.779,-509.021 913.067,-521.454 936.494,-530.396"/>
<polygon fill="#9a32cd" stroke="#9a32cd" points="606.422,-467.165 596.211,-469.99 605.955,-474.15 606.422,-467.165"/>
<text text-anchor="middle" x="743" y="-506" font-family="FreeSans" font-size="10.00"> model_</text>
</g>
<!-- Node10 -->
<g id="node19" class="node"><title>Node10</title>
<a xlink:href="a00340.html" target="_top" xlink:title="Urho3D::Vector\&lt; Urho3D\l::Vector\&lt; Urho3D::SharedPtr\l\&lt; Urho3D::Geometry \&gt; \&gt; \&gt;">
<polygon fill="none" stroke="black" points="460.5,-608.5 460.5,-655.5 615.5,-655.5 615.5,-608.5 460.5,-608.5"/>
<text text-anchor="start" x="468.5" y="-642.5" font-family="FreeSans" font-size="10.00">Urho3D::Vector&lt; Urho3D</text>
<text text-anchor="start" x="468.5" y="-629.5" font-family="FreeSans" font-size="10.00">::Vector&lt; Urho3D::SharedPtr</text>
<text text-anchor="middle" x="538" y="-616.5" font-family="FreeSans" font-size="10.00">&lt; Urho3D::Geometry &gt; &gt; &gt;</text>
</a>
</g>
<!-- Node10&#45;&gt;Node2 -->
<g id="edge20" class="edge"><title>Node10&#45;&gt;Node2</title>
<path fill="none" stroke="#9a32cd" stroke-dasharray="5,2" d="M625.831,-618.689C687.745,-608.659 772.405,-593.641 846,-576 875.071,-569.032 907.612,-559.122 930.981,-551.625"/>
<polygon fill="#9a32cd" stroke="#9a32cd" points="625.026,-615.273 615.708,-620.317 626.137,-622.184 625.026,-615.273"/>
<text text-anchor="middle" x="743" y="-620" font-family="FreeSans" font-size="10.00"> geometries_</text>
</g>
<!-- Node11 -->
<g id="node21" class="node"><title>Node11</title>
<a xlink:href="a00344.html" target="_top" xlink:title="Vector base class.">
<polygon fill="none" stroke="black" points="188,-297.5 188,-318.5 302,-318.5 302,-297.5 188,-297.5"/>
<text text-anchor="middle" x="245" y="-305.5" font-family="FreeSans" font-size="10.00">Urho3D::VectorBase</text>
</a>
</g>
<!-- Node11&#45;&gt;Node10 -->
<g id="edge22" class="edge"><title>Node11&#45;&gt;Node10</title>
<path fill="none" stroke="midnightblue" d="M252.455,-328.535C266.006,-364.209 297.093,-438.978 338,-493 380.16,-548.677 394.731,-562.059 454,-599 459.452,-602.398 465.312,-605.554 471.31,-608.458"/>
<polygon fill="midnightblue" stroke="midnightblue" points="255.594,-326.934 248.822,-318.786 249.035,-329.378 255.594,-326.934"/>
</g>
<!-- Node12 -->
<g id="node23" class="node"><title>Node12</title>
<a xlink:href="a00242.html" target="_top" xlink:title="Urho3D::PODVector\&lt;\l Urho3D::StaticModelGeometry\lData \&gt;">
<polygon fill="none" stroke="black" points="454.5,-542.5 454.5,-589.5 621.5,-589.5 621.5,-542.5 454.5,-542.5"/>
<text text-anchor="start" x="462.5" y="-576.5" font-family="FreeSans" font-size="10.00">Urho3D::PODVector&lt;</text>
<text text-anchor="start" x="462.5" y="-563.5" font-family="FreeSans" font-size="10.00"> Urho3D::StaticModelGeometry</text>
<text text-anchor="middle" x="538" y="-550.5" font-family="FreeSans" font-size="10.00">Data &gt;</text>
</a>
</g>
<!-- Node11&#45;&gt;Node12 -->
<g id="edge26" class="edge"><title>Node11&#45;&gt;Node12</title>
<path fill="none" stroke="midnightblue" d="M256.805,-327.185C273.294,-353.235 304.934,-400.602 338,-436 383.876,-485.112 396.199,-498.714 454,-533 459.66,-536.357 465.724,-539.501 471.906,-542.411"/>
<polygon fill="midnightblue" stroke="midnightblue" points="259.713,-325.234 251.441,-318.613 253.779,-328.947 259.713,-325.234"/>
</g>
<!-- Node13 -->
<g id="node26" class="node"><title>Node13</title>
<a xlink:href="a00340.html" target="_top" xlink:title="Urho3D::Vector\&lt; Urho3D\l::SharedPtr\&lt; Urho3D::Animation\lState \&gt; \&gt;">
<polygon fill="none" stroke="black" points="656.5,-245.5 656.5,-292.5 829.5,-292.5 829.5,-245.5 656.5,-245.5"/>
<text text-anchor="start" x="664.5" y="-279.5" font-family="FreeSans" font-size="10.00">Urho3D::Vector&lt; Urho3D</text>
<text text-anchor="start" x="664.5" y="-266.5" font-family="FreeSans" font-size="10.00">::SharedPtr&lt; Urho3D::Animation</text>
<text text-anchor="middle" x="743" y="-253.5" font-family="FreeSans" font-size="10.00">State &gt; &gt;</text>
</a>
</g>
<!-- Node11&#45;&gt;Node13 -->
<g id="edge30" class="edge"><title>Node11&#45;&gt;Node13</title>
<path fill="none" stroke="midnightblue" d="M312.452,-297.135C321.036,-295.962 329.714,-294.878 338,-294 447.46,-282.405 574.176,-275.651 656.307,-272.148"/>
<polygon fill="midnightblue" stroke="midnightblue" points="311.859,-293.684 302.446,-298.546 312.837,-300.615 311.859,-293.684"/>
</g>
<!-- Node15 -->
<g id="node31" class="node"><title>Node15</title>
<a xlink:href="a00340.html" target="_top" xlink:title="Urho3D::Vector\&lt; Urho3D\l::Bone \&gt;">
<polygon fill="none" stroke="black" points="469,-208 469,-242 607,-242 607,-208 469,-208"/>
<text text-anchor="start" x="477" y="-229" font-family="FreeSans" font-size="10.00">Urho3D::Vector&lt; Urho3D</text>
<text text-anchor="middle" x="538" y="-216" font-family="FreeSans" font-size="10.00">::Bone &gt;</text>
</a>
</g>
<!-- Node11&#45;&gt;Node15 -->
<g id="edge36" class="edge"><title>Node11&#45;&gt;Node15</title>
<path fill="none" stroke="midnightblue" d="M268.721,-291.602C286.88,-279.846 312.979,-264.621 338,-256 380.19,-241.464 429.741,-233.721 468.967,-229.608"/>
<polygon fill="midnightblue" stroke="midnightblue" points="266.402,-288.94 259.997,-297.379 270.267,-294.776 266.402,-288.94"/>
</g>
<!-- Node19 -->
<g id="node40" class="node"><title>Node19</title>
<a xlink:href="a00242.html" target="_top" xlink:title="Urho3D::PODVector\&lt;\l unsigned char \&gt;">
<polygon fill="none" stroke="black" points="478.5,-80 478.5,-114 597.5,-114 597.5,-80 478.5,-80"/>
<text text-anchor="start" x="486.5" y="-101" font-family="FreeSans" font-size="10.00">Urho3D::PODVector&lt;</text>
<text text-anchor="middle" x="538" y="-88" font-family="FreeSans" font-size="10.00"> unsigned char &gt;</text>
</a>
</g>
<!-- Node11&#45;&gt;Node19 -->
<g id="edge46" class="edge"><title>Node11&#45;&gt;Node19</title>
<path fill="none" stroke="midnightblue" d="M249.248,-287.298C258.269,-249.012 283.173,-167.46 338,-128 378.496,-98.8539 435.603,-92.5037 478.432,-92.6279"/>
<polygon fill="midnightblue" stroke="midnightblue" points="245.78,-286.768 247.027,-297.289 252.613,-288.287 245.78,-286.768"/>
</g>
<!-- Node20 -->
<g id="node43" class="node"><title>Node20</title>
<a xlink:href="a00340.html" target="_top" xlink:title="Urho3D::Vector\&lt; Urho3D\l::PODVector\&lt; unsigned \&gt; \&gt;">
<polygon fill="none" stroke="black" points="667,-163 667,-197 819,-197 819,-163 667,-163"/>
<text text-anchor="start" x="675" y="-184" font-family="FreeSans" font-size="10.00">Urho3D::Vector&lt; Urho3D</text>
<text text-anchor="middle" x="743" y="-171" font-family="FreeSans" font-size="10.00">::PODVector&lt; unsigned &gt; &gt;</text>
</a>
</g>
<!-- Node11&#45;&gt;Node20 -->
<g id="edge50" class="edge"><title>Node11&#45;&gt;Node20</title>
<path fill="none" stroke="midnightblue" d="M261.666,-290.025C279.082,-272.278 308.006,-245.597 338,-230 442.341,-175.743 581.656,-170.827 666.715,-174.076"/>
<polygon fill="midnightblue" stroke="midnightblue" points="258.911,-287.841 254.511,-297.479 263.961,-292.688 258.911,-287.841"/>
</g>
<!-- Node21 -->
<g id="node46" class="node"><title>Node21</title>
<a xlink:href="a00340.html" target="_top" xlink:title="Urho3D::Vector\&lt; Urho3D\l::SharedPtr\&lt; Urho3D::VertexBuffer \&gt; \&gt;">
<polygon fill="none" stroke="black" points="640,-120 640,-154 846,-154 846,-120 640,-120"/>
<text text-anchor="start" x="648" y="-141" font-family="FreeSans" font-size="10.00">Urho3D::Vector&lt; Urho3D</text>
<text text-anchor="middle" x="743" y="-128" font-family="FreeSans" font-size="10.00">::SharedPtr&lt; Urho3D::VertexBuffer &gt; &gt;</text>
</a>
</g>
<!-- Node11&#45;&gt;Node21 -->
<g id="edge54" class="edge"><title>Node11&#45;&gt;Node21</title>
<path fill="none" stroke="midnightblue" d="M254.76,-288.343C269.103,-261.666 298.511,-214.625 338,-191 429.461,-136.282 553.072,-127.192 639.589,-129.02"/>
<polygon fill="midnightblue" stroke="midnightblue" points="251.518,-286.991 250.011,-297.478 257.729,-290.22 251.518,-286.991"/>
</g>
<!-- Node22 -->
<g id="node50" class="node"><title>Node22</title>
<a xlink:href="a00340.html" target="_top" xlink:title="Urho3D::Vector\&lt; Urho3D\l::PODVector\&lt; Urho3D::Matrix3x4 * \&gt; \&gt;">
<polygon fill="none" stroke="black" points="640,-408 640,-442 846,-442 846,-408 640,-408"/>
<text text-anchor="start" x="648" y="-429" font-family="FreeSans" font-size="10.00">Urho3D::Vector&lt; Urho3D</text>
<text text-anchor="middle" x="743" y="-416" font-family="FreeSans" font-size="10.00">::PODVector&lt; Urho3D::Matrix3x4 * &gt; &gt;</text>
</a>
</g>
<!-- Node11&#45;&gt;Node22 -->
<g id="edge60" class="edge"><title>Node11&#45;&gt;Node22</title>
<path fill="none" stroke="midnightblue" d="M258.183,-327.164C274.229,-348.711 303.5,-382.685 338,-398 433.806,-440.53 555.013,-442.752 639.756,-437.148"/>
<polygon fill="midnightblue" stroke="midnightblue" points="260.826,-324.845 252.138,-318.781 255.148,-328.939 260.826,-324.845"/>
</g>
<!-- Node23 -->
<g id="node53" class="node"><title>Node23</title>
<a xlink:href="a00340.html" target="_top" xlink:title="Urho3D::Vector\&lt; Urho3D\l::PODVector\&lt; Urho3D::Matrix3x4 \&gt; \&gt;">
<polygon fill="none" stroke="black" points="864.5,-401 864.5,-435 1061.5,-435 1061.5,-401 864.5,-401"/>
<text text-anchor="start" x="872.5" y="-422" font-family="FreeSans" font-size="10.00">Urho3D::Vector&lt; Urho3D</text>
<text text-anchor="middle" x="963" y="-409" font-family="FreeSans" font-size="10.00">::PODVector&lt; Urho3D::Matrix3x4 &gt; &gt;</text>
</a>
</g>
<!-- Node11&#45;&gt;Node23 -->
<g id="edge64" class="edge"><title>Node11&#45;&gt;Node23</title>
<path fill="none" stroke="midnightblue" d="M279.46,-322.339C296.752,-328.989 318.187,-336.417 338,-341 559.398,-392.216 620.895,-367.89 846,-399 852.014,-399.831 858.195,-400.723 864.425,-401.651"/>
<polygon fill="midnightblue" stroke="midnightblue" points="280.388,-318.944 269.801,-318.542 277.827,-325.458 280.388,-318.944"/>
</g>
<!-- Node24 -->
<g id="node56" class="node"><title>Node24</title>
<a xlink:href="a00340.html" target="_top" xlink:title="Urho3D::Vector\&lt; Urho3D\l::ModelMorph \&gt;">
<polygon fill="none" stroke="black" points="674,-332 674,-366 812,-366 812,-332 674,-332"/>
<text text-anchor="start" x="682" y="-353" font-family="FreeSans" font-size="10.00">Urho3D::Vector&lt; Urho3D</text>
<text text-anchor="middle" x="743" y="-340" font-family="FreeSans" font-size="10.00">::ModelMorph &gt;</text>
</a>
</g>
<!-- Node11&#45;&gt;Node24 -->
<g id="edge68" class="edge"><title>Node11&#45;&gt;Node24</title>
<path fill="none" stroke="midnightblue" d="M312.456,-318.826C321.04,-320.006 329.716,-321.102 338,-322 455.522,-334.741 592.926,-342.378 673.694,-346.129"/>
<polygon fill="midnightblue" stroke="midnightblue" points="312.843,-315.346 302.451,-317.409 311.862,-322.277 312.843,-315.346"/>
</g>
<!-- Node25 -->
<g id="node59" class="node"><title>Node25</title>
<a xlink:href="a00242.html" target="_top" xlink:title="Urho3D::PODVector\&lt;\l Urho3D::Matrix3x4 \&gt;">
<polygon fill="none" stroke="black" points="903,-300 903,-334 1023,-334 1023,-300 903,-300"/>
<text text-anchor="start" x="911" y="-321" font-family="FreeSans" font-size="10.00">Urho3D::PODVector&lt;</text>
<text text-anchor="middle" x="963" y="-308" font-family="FreeSans" font-size="10.00"> Urho3D::Matrix3x4 &gt;</text>
</a>
</g>
<!-- Node11&#45;&gt;Node25 -->
<g id="edge72" class="edge"><title>Node11&#45;&gt;Node25</title>
<path fill="none" stroke="midnightblue" d="M312.365,-308.844C451.753,-310.592 769.882,-314.579 902.847,-316.246"/>
<polygon fill="midnightblue" stroke="midnightblue" points="312.285,-305.343 302.241,-308.718 312.197,-312.343 312.285,-305.343"/>
</g>
<!-- Node12&#45;&gt;Node2 -->
<g id="edge24" class="edge"><title>Node12&#45;&gt;Node2</title>
<path fill="none" stroke="#9a32cd" stroke-dasharray="5,2" d="M631.948,-560.474C715.284,-555.572 834.395,-548.565 904.705,-544.429"/>
<polygon fill="#9a32cd" stroke="#9a32cd" points="631.49,-556.994 621.713,-561.076 631.901,-563.982 631.49,-556.994"/>
<text text-anchor="middle" x="743" y="-563" font-family="FreeSans" font-size="10.00"> geometryData_</text>
</g>
<!-- Node13&#45;&gt;Node1 -->
<g id="edge28" class="edge"><title>Node13&#45;&gt;Node1</title>
<path fill="none" stroke="#9a32cd" stroke-dasharray="5,2" d="M839.916,-268.017C903.268,-268.29 987.734,-270.382 1062,-278 1121.55,-284.108 1189.27,-297.117 1233.44,-306.431"/>
<polygon fill="#9a32cd" stroke="#9a32cd" points="839.548,-264.517 829.538,-267.988 839.528,-271.516 839.548,-264.517"/>
<text text-anchor="middle" x="963" y="-282" font-family="FreeSans" font-size="10.00"> animationStates_</text>
</g>
<!-- Node14 -->
<g id="node29" class="node"><title>Node14</title>
<a xlink:href="a00294.html" target="_top" xlink:title="Hierarchical collection of bones.">
<polygon fill="none" stroke="black" points="912.5,-211.5 912.5,-232.5 1013.5,-232.5 1013.5,-211.5 912.5,-211.5"/>
<text text-anchor="middle" x="963" y="-219.5" font-family="FreeSans" font-size="10.00">Urho3D::Skeleton</text>
</a>
</g>
<!-- Node14&#45;&gt;Node1 -->
<g id="edge32" class="edge"><title>Node14&#45;&gt;Node1</title>
<path fill="none" stroke="#9a32cd" stroke-dasharray="5,2" d="M1023.87,-217.022C1072.41,-215.411 1141.11,-218.516 1196,-242 1229.65,-256.4 1259.28,-289.467 1272.96,-306.474"/>
<polygon fill="#9a32cd" stroke="#9a32cd" points="1023.68,-213.527 1013.83,-217.432 1023.96,-220.521 1023.68,-213.527"/>
<text text-anchor="middle" x="1138" y="-246" font-family="FreeSans" font-size="10.00"> skeleton_</text>
</g>
<!-- Node15&#45;&gt;Node14 -->
<g id="edge34" class="edge"><title>Node15&#45;&gt;Node14</title>
<path fill="none" stroke="#9a32cd" stroke-dasharray="5,2" d="M617.226,-223.318C624.922,-223.194 632.611,-223.084 640,-223 736.305,-221.907 848.772,-221.83 912.368,-221.898"/>
<polygon fill="#9a32cd" stroke="#9a32cd" points="617.069,-219.82 607.13,-223.49 617.189,-226.819 617.069,-219.82"/>
<text text-anchor="middle" x="743" y="-227" font-family="FreeSans" font-size="10.00"> bones_</text>
</g>
<!-- Node16 -->
<g id="node34" class="node"><title>Node16</title>
<a xlink:href="a00345.html" target="_top" xlink:title="Dynamically sized buffer that can be read and written to as a stream.">
<polygon fill="none" stroke="black" points="903.5,-57.5 903.5,-78.5 1022.5,-78.5 1022.5,-57.5 903.5,-57.5"/>
<text text-anchor="middle" x="963" y="-65.5" font-family="FreeSans" font-size="10.00">Urho3D::VectorBuffer</text>
</a>
</g>
<!-- Node16&#45;&gt;Node1 -->
<g id="edge38" class="edge"><title>Node16&#45;&gt;Node1</title>
<path fill="none" stroke="#9a32cd" stroke-dasharray="5,2" d="M1032.69,-61.5393C1083.18,-60.6223 1150.31,-67.6357 1196,-104 1262.98,-157.305 1277.41,-271.311 1280.31,-306.461"/>
<polygon fill="#9a32cd" stroke="#9a32cd" points="1032.4,-58.0462 1022.51,-61.8348 1032.61,-65.0432 1032.4,-58.0462"/>
<text text-anchor="middle" x="1138" y="-108" font-family="FreeSans" font-size="10.00"> attrBuffer_</text>
</g>
<!-- Node17 -->
<g id="node36" class="node"><title>Node17</title>
<a xlink:href="a00126.html" target="_top" xlink:title="Abstract stream for reading.">
<polygon fill="none" stroke="black" points="480,-40.5 480,-61.5 596,-61.5 596,-40.5 480,-40.5"/>
<text text-anchor="middle" x="538" y="-48.5" font-family="FreeSans" font-size="10.00">Urho3D::Deserializer</text>
</a>
</g>
<!-- Node17&#45;&gt;Node16 -->
<g id="edge40" class="edge"><title>Node17&#45;&gt;Node16</title>
<path fill="none" stroke="midnightblue" d="M606.199,-53.728C688.427,-57.0171 825.294,-62.4918 903.449,-65.618"/>
<polygon fill="midnightblue" stroke="midnightblue" points="606.335,-50.2307 596.203,-53.3281 606.055,-57.2251 606.335,-50.2307"/>
</g>
<!-- Node18 -->
<g id="node38" class="node"><title>Node18</title>
<a xlink:href="a00284.html" target="_top" xlink:title="Abstract stream for writing.">
<polygon fill="none" stroke="black" points="486,-0.5 486,-21.5 590,-21.5 590,-0.5 486,-0.5"/>
<text text-anchor="middle" x="538" y="-8.5" font-family="FreeSans" font-size="10.00">Urho3D::Serializer</text>
</a>
</g>
<!-- Node18&#45;&gt;Node16 -->
<g id="edge42" class="edge"><title>Node18&#45;&gt;Node16</title>
<path fill="none" stroke="midnightblue" d="M600.095,-19.1998C662.306,-27.4303 760.798,-40.5033 846,-52 864.692,-54.5222 885.06,-57.298 903.485,-59.8193"/>
<polygon fill="midnightblue" stroke="midnightblue" points="600.424,-15.7128 590.051,-17.8713 599.506,-22.6524 600.424,-15.7128"/>
</g>
<!-- Node19&#45;&gt;Node16 -->
<g id="edge44" class="edge"><title>Node19&#45;&gt;Node16</title>
<path fill="none" stroke="#9a32cd" stroke-dasharray="5,2" d="M607.55,-92.2542C689.823,-86.6403 825.403,-77.389 903.176,-72.0821"/>
<polygon fill="#9a32cd" stroke="#9a32cd" points="607.28,-88.7644 597.542,-92.9371 607.757,-95.7482 607.28,-88.7644"/>
<text text-anchor="middle" x="743" y="-94" font-family="FreeSans" font-size="10.00"> buffer_</text>
</g>
<!-- Node20&#45;&gt;Node1 -->
<g id="edge48" class="edge"><title>Node20&#45;&gt;Node1</title>
<path fill="none" stroke="#9a32cd" stroke-dasharray="5,2" d="M829.173,-165.308C925.584,-153.457 1083.03,-148.225 1196,-215 1234.69,-237.873 1263.76,-285.082 1275.41,-306.282"/>
<polygon fill="#9a32cd" stroke="#9a32cd" points="828.646,-161.847 819.171,-166.588 829.535,-168.79 828.646,-161.847"/>
<text text-anchor="middle" x="963" y="-171" font-family="FreeSans" font-size="10.00"> geometryBoneMappings_</text>
</g>
<!-- Node21&#45;&gt;Node1 -->
<g id="edge52" class="edge"><title>Node21&#45;&gt;Node1</title>
<path fill="none" stroke="#9a32cd" stroke-dasharray="5,2" d="M827.817,-118.253C926.02,-101.658 1088.07,-90.6213 1196,-168 1245.86,-203.746 1270.52,-278.444 1278.25,-306.259"/>
<polygon fill="#9a32cd" stroke="#9a32cd" points="827.178,-114.812 817.929,-119.98 828.382,-121.708 827.178,-114.812"/>
<text text-anchor="middle" x="963" y="-119" font-family="FreeSans" font-size="10.00"> morphVertexBuffers_</text>
</g>
<!-- Node22&#45;&gt;Node1 -->
<g id="edge58" class="edge"><title>Node22&#45;&gt;Node1</title>
<path fill="none" stroke="#9a32cd" stroke-dasharray="5,2" d="M807.325,-444.716C899.93,-469.112 1073.16,-499.519 1196,-430 1238.52,-405.939 1266.3,-351.004 1276.56,-327.733"/>
<polygon fill="#9a32cd" stroke="#9a32cd" points="808.096,-441.299 797.53,-442.079 806.276,-448.058 808.096,-441.299"/>
<text text-anchor="middle" x="963" y="-477" font-family="FreeSans" font-size="10.00"> geometrySkinMatrixPtrs_</text>
</g>
<!-- Node23&#45;&gt;Node1 -->
<g id="edge62" class="edge"><title>Node23&#45;&gt;Node1</title>
<path fill="none" stroke="#9a32cd" stroke-dasharray="5,2" d="M1071.73,-413.914C1112.03,-409.394 1157.31,-400.641 1196,-384 1227.07,-370.636 1256.47,-342.941 1271.19,-327.675"/>
<polygon fill="#9a32cd" stroke="#9a32cd" points="1071.17,-410.452 1061.59,-414.974 1071.9,-417.414 1071.17,-410.452"/>
<text text-anchor="middle" x="1138" y="-417" font-family="FreeSans" font-size="10.00"> geometrySkinMatrices_</text>
</g>
<!-- Node24&#45;&gt;Node1 -->
<g id="edge66" class="edge"><title>Node24&#45;&gt;Node1</title>
<path fill="none" stroke="#9a32cd" stroke-dasharray="5,2" d="M822.245,-351.108C912.98,-352.428 1065.88,-351.307 1196,-334 1208.38,-332.353 1221.67,-329.987 1233.97,-327.542"/>
<polygon fill="#9a32cd" stroke="#9a32cd" points="822.091,-347.605 812.036,-350.945 821.979,-354.604 822.091,-347.605"/>
<text text-anchor="middle" x="963" y="-356" font-family="FreeSans" font-size="10.00"> morphs_</text>
</g>
<!-- Node25&#45;&gt;Node1 -->
<g id="edge70" class="edge"><title>Node25&#45;&gt;Node1</title>
<path fill="none" stroke="#9a32cd" stroke-dasharray="5,2" d="M1033.33,-317C1087.16,-317 1160.91,-317 1213.91,-317"/>
<polygon fill="#9a32cd" stroke="#9a32cd" points="1033.19,-313.5 1023.19,-317 1033.19,-320.5 1033.19,-313.5"/>
<text text-anchor="middle" x="1138" y="-321" font-family="FreeSans" font-size="10.00"> skinMatrices_</text>
</g>
</g>
</svg>
