<?xml version="1.0" encoding="UTF-8" standalone="no"?>
<!DOCTYPE svg PUBLIC "-//W3C//DTD SVG 1.1//EN"
 "http://www.w3.org/Graphics/SVG/1.1/DTD/svg11.dtd">
<!-- Generated by graphviz version 2.26.3 (20100126.1600)
 -->
<!-- Title: Urho3D::Light Pages: 1 -->
<!--zoomable 803 -->
<svg id="main" version="1.1" xmlns="http://www.w3.org/2000/svg" xmlns:xlink="http://www.w3.org/1999/xlink" xml:space="preserve" onload="init(evt)">
        <defs>
                <circle id="rim" cx="0" cy="0" r="7"/>
                <circle id="rim2" cx="0" cy="0" r="3.5"/>
                <g id="zoomPlus">
                        <use xlink:href="#rim" fill="#404040">
                                <set attributeName="fill" to="#808080" begin="zoomplus.mouseover" end="zoomplus.mouseout"/>
                        </use>
                        <path d="M-4,0h8M0,-4v8" fill="none" stroke="white" stroke-width="1.5" pointer-events="none"/>
                </g>
                <g id="zoomMin">
                        <use xlink:href="#rim" fill="#404040">
                                <set attributeName="fill" to="#808080" begin="zoomminus.mouseover" end="zoomminus.mouseout"/>
                        </use>
                        <path d="M-4,0h8" fill="none" stroke="white" stroke-width="1.5" pointer-events="none"/>
                </g>
                <g id="dirArrow">
                        <path fill="none" stroke="white" stroke-width="1.5" d="M0,-3.0v7 M-2.5,-0.5L0,-3.0L2.5,-0.5"/>
                </g>
               <g id="resetDef">
                       <use xlink:href="#rim2" fill="#404040">
                               <set attributeName="fill" to="#808080" begin="reset.mouseover" end="reset.mouseout"/>
                       </use>
               </g>
        </defs>

<script type="text/javascript">
var viewWidth = 1916;
var viewHeight = 803;
var sectionId = 'dynsection-1';
</script>
<script xlink:href="svgpan.js"/>
<svg id="graph" class="graph">
<g id="viewport">
<title>Urho3D::Light</title>
<!-- Node1 -->
<g id="node1" class="node"><title>Node1</title>
<polygon fill="#bfbfbf" stroke="black" points="1033.5,-317.051 1033.5,-338.051 1116.5,-338.051 1116.5,-317.051 1033.5,-317.051"/>
<text text-anchor="middle" x="1075" y="-325.051" font-family="FreeSans" font-size="10.00">Urho3D::Light</text>
</g>
<!-- Node2 -->
<g id="node2" class="node"><title>Node2</title>
<a xlink:href="a00115.html" target="_top" xlink:title="Base class for visible components.">
<polygon fill="none" stroke="black" points="1315,-463.051 1315,-484.051 1419,-484.051 1419,-463.051 1315,-463.051"/>
<text text-anchor="middle" x="1367" y="-471.051" font-family="FreeSans" font-size="10.00">Urho3D::Drawable</text>
</a>
</g>
<!-- Node1&#45;&gt;Node2 -->
<g id="edge44" class="edge"><title>Node1&#45;&gt;Node2</title>
<path fill="none" stroke="#9a32cd" stroke-dasharray="5,2" d="M1126.61,-336.522C1138.24,-338.525 1150.54,-340.625 1162,-342.551 1213.52,-351.211 1232.95,-335.103 1278,-361.551 1320.41,-386.446 1350.46,-439.831 1361.9,-462.742"/>
<polygon fill="#9a32cd" stroke="#9a32cd" points="1127.04,-333.044 1116.59,-334.794 1125.85,-339.942 1127.04,-333.044"/>
<text text-anchor="middle" x="1220" y="-365.551" font-family="FreeSans" font-size="10.00"> firstLight_</text>
</g>
<!-- Node17 -->
<g id="node46" class="node"><title>Node17</title>
<a xlink:href="a00160.html" target="_top" xlink:title="Queue for light related draw calls.">
<polygon fill="none" stroke="black" points="1296,-164.051 1296,-185.051 1438,-185.051 1438,-164.051 1296,-164.051"/>
<text text-anchor="middle" x="1367" y="-172.051" font-family="FreeSans" font-size="10.00">Urho3D::LightBatchQueue</text>
</a>
</g>
<!-- Node1&#45;&gt;Node17 -->
<g id="edge82" class="edge"><title>Node1&#45;&gt;Node17</title>
<path fill="none" stroke="#9a32cd" stroke-dasharray="5,2" d="M1113.06,-312.535C1124.17,-306.695 1135.58,-299.076 1144,-289.551 1158.27,-273.413 1145.43,-258.312 1162,-244.551 1202.44,-210.973 1228.46,-239.118 1278,-221.551 1304.68,-212.089 1333.23,-195.781 1350.6,-185.081"/>
<polygon fill="#9a32cd" stroke="#9a32cd" points="1111.32,-309.491 1103.87,-317.026 1114.39,-315.781 1111.32,-309.491"/>
<text text-anchor="middle" x="1220" y="-248.551" font-family="FreeSans" font-size="10.00"> light_</text>
</g>
<!-- Node2&#45;&gt;Node1 -->
<g id="edge2" class="edge"><title>Node2&#45;&gt;Node1</title>
<path fill="none" stroke="midnightblue" d="M1348.64,-456.122C1331.61,-440.881 1304.9,-419.252 1278,-406.551 1230.04,-383.909 1211.18,-398.397 1162,-378.551 1135.21,-367.741 1106.81,-349.679 1090.01,-338.204"/>
<polygon fill="midnightblue" stroke="midnightblue" points="1346.44,-458.855 1356.19,-463.024 1351.17,-453.691 1346.44,-458.855"/>
</g>
<!-- Node7 -->
<g id="node15" class="node"><title>Node7</title>
<a xlink:href="a00331.html" target="_top" xlink:title="Component that describes global rendering properties">
<polygon fill="none" stroke="black" points="1526.5,-496.051 1526.5,-517.051 1611.5,-517.051 1611.5,-496.051 1526.5,-496.051"/>
<text text-anchor="middle" x="1569" y="-504.051" font-family="FreeSans" font-size="10.00">Urho3D::Zone</text>
</a>
</g>
<!-- Node2&#45;&gt;Node7 -->
<g id="edge20" class="edge"><title>Node2&#45;&gt;Node7</title>
<path fill="none" stroke="midnightblue" d="M1429.57,-477.023C1454.18,-479.101 1482.58,-482.386 1508,-487.551 1518.44,-489.671 1529.62,-492.873 1539.53,-496.047"/>
<polygon fill="midnightblue" stroke="midnightblue" points="1429.52,-473.508 1419.27,-476.205 1428.97,-480.486 1429.52,-473.508"/>
</g>
<!-- Node3 -->
<g id="node4" class="node"><title>Node3</title>
<a xlink:href="a00085.html" target="_top" xlink:title="Base class for components. Components can be created to scene nodes.">
<polygon fill="none" stroke="black" points="476,-484.051 476,-505.051 592,-505.051 592,-484.051 476,-484.051"/>
<text text-anchor="middle" x="534" y="-492.051" font-family="FreeSans" font-size="10.00">Urho3D::Component</text>
</a>
</g>
<!-- Node3&#45;&gt;Node2 -->
<g id="edge4" class="edge"><title>Node3&#45;&gt;Node2</title>
<path fill="none" stroke="midnightblue" d="M602.697,-494.627C733.98,-494.468 1029.56,-492.648 1278,-480.551 1289.92,-479.97 1302.72,-479.106 1314.8,-478.181"/>
<polygon fill="midnightblue" stroke="midnightblue" points="602.393,-491.127 592.397,-494.636 602.4,-498.127 602.393,-491.127"/>
</g>
<!-- Node12 -->
<g id="node29" class="node"><title>Node12</title>
<a xlink:href="a00078.html" target="_top" xlink:title="Camera component.">
<polygon fill="none" stroke="red" points="735,-439.051 735,-460.051 833,-460.051 833,-439.051 735,-439.051"/>
<text text-anchor="middle" x="784" y="-447.051" font-family="FreeSans" font-size="10.00">Urho3D::Camera</text>
</a>
</g>
<!-- Node3&#45;&gt;Node12 -->
<g id="edge38" class="edge"><title>Node3&#45;&gt;Node12</title>
<path fill="none" stroke="midnightblue" d="M602.172,-482.28C644.152,-474.723 696.996,-465.211 734.881,-458.392"/>
<polygon fill="midnightblue" stroke="midnightblue" points="601.52,-478.841 592.298,-484.057 602.76,-485.73 601.52,-478.841"/>
</g>
<!-- Node4 -->
<g id="node6" class="node"><title>Node4</title>
<a xlink:href="a00258.html" target="_top" xlink:title="Base class for objects with automatic serialization through attributes.">
<polygon fill="none" stroke="red" points="0,-645.051 0,-666.051 114,-666.051 114,-645.051 0,-645.051"/>
<text text-anchor="middle" x="57" y="-653.051" font-family="FreeSans" font-size="10.00">Urho3D::Serializable</text>
</a>
</g>
<!-- Node4&#45;&gt;Node3 -->
<g id="edge6" class="edge"><title>Node4&#45;&gt;Node3</title>
<path fill="none" stroke="midnightblue" d="M62.2051,-676.049C70.9698,-705.723 91.7935,-759.601 132,-782.551 163.651,-800.617 179.975,-795.608 214,-782.551 368.914,-723.105 495.794,-550.18 526.763,-505.296"/>
<polygon fill="midnightblue" stroke="midnightblue" points="65.5509,-675.016 59.508,-666.314 58.805,-676.885 65.5509,-675.016"/>
</g>
<!-- Node5 -->
<g id="node8" class="node"><title>Node5</title>
<a xlink:href="a00193.html" target="_top" xlink:title="Scene node that may contain components and child nodes.">
<polygon fill="none" stroke="red" points="260.5,-484.051 260.5,-505.051 345.5,-505.051 345.5,-484.051 260.5,-484.051"/>
<text text-anchor="middle" x="303" y="-492.051" font-family="FreeSans" font-size="10.00">Urho3D::Node</text>
</a>
</g>
<!-- Node4&#45;&gt;Node5 -->
<g id="edge10" class="edge"><title>Node4&#45;&gt;Node5</title>
<path fill="none" stroke="midnightblue" d="M81.7665,-639.342C132.023,-606.45 244.771,-532.66 286.8,-505.153"/>
<polygon fill="midnightblue" stroke="midnightblue" points="79.5914,-636.582 73.1407,-644.987 83.4247,-642.439 79.5914,-636.582"/>
</g>
<!-- Node5&#45;&gt;Node3 -->
<g id="edge8" class="edge"><title>Node5&#45;&gt;Node3</title>
<path fill="none" stroke="#9a32cd" stroke-dasharray="5,2" d="M355.891,-494.551C391.72,-494.551 439.07,-494.551 475.941,-494.551"/>
<polygon fill="#9a32cd" stroke="#9a32cd" points="355.638,-491.051 345.638,-494.551 355.638,-498.051 355.638,-491.051"/>
<text text-anchor="middle" x="425" y="-498.551" font-family="FreeSans" font-size="10.00"> node_</text>
</g>
<!-- Node5&#45;&gt;Node5 -->
<g id="edge12" class="edge"><title>Node5&#45;&gt;Node5</title>
<path fill="none" stroke="#9a32cd" stroke-dasharray="5,2" d="M280.517,-514.977C282.251,-519.9 289.746,-523.551 303,-523.551 324.207,-523.551 330.669,-514.204 322.385,-505.259"/>
<polygon fill="#9a32cd" stroke="#9a32cd" points="283.912,-515.849 283.615,-505.259 277.243,-513.723 283.912,-515.849"/>
<text text-anchor="middle" x="303" y="-527.551" font-family="FreeSans" font-size="10.00"> parent_</text>
</g>
<!-- Node6 -->
<g id="node12" class="node"><title>Node6</title>
<a xlink:href="a00178.html" target="_top" xlink:title="3x4 matrix for scene node transform calculations.">
<polygon fill="none" stroke="black" points="4,-454.051 4,-475.051 110,-475.051 110,-454.051 4,-454.051"/>
<text text-anchor="middle" x="57" y="-462.051" font-family="FreeSans" font-size="10.00">Urho3D::Matrix3x4</text>
</a>
</g>
<!-- Node6&#45;&gt;Node1 -->
<g id="edge92" class="edge"><title>Node6&#45;&gt;Node1</title>
<path fill="none" stroke="#9a32cd" stroke-dasharray="5,2" d="M62.0321,-444.227C80.6592,-374.395 152.532,-148.551 303,-148.551 303,-148.551 303,-148.551 649,-148.551 724.538,-148.551 932.485,-122.325 988,-173.551 1026.34,-208.931 976.083,-246.808 1006,-289.551 1014.78,-302.099 1029.09,-310.941 1042.4,-316.918"/>
<polygon fill="#9a32cd" stroke="#9a32cd" points="58.6105,-443.479 59.4959,-454.037 65.3877,-445.231 58.6105,-443.479"/>
<text text-anchor="middle" x="534" y="-152.551" font-family="FreeSans" font-size="10.00"> volumeTransform_</text>
</g>
<!-- Node6&#45;&gt;Node5 -->
<g id="edge14" class="edge"><title>Node6&#45;&gt;Node5</title>
<path fill="none" stroke="#9a32cd" stroke-dasharray="5,2" d="M120.09,-472.245C164.061,-477.607 221.549,-484.618 260.241,-489.336"/>
<polygon fill="#9a32cd" stroke="#9a32cd" points="120.426,-468.76 110.075,-471.023 119.578,-475.708 120.426,-468.76"/>
<text text-anchor="middle" x="173" y="-486.551" font-family="FreeSans" font-size="10.00"> worldTransform_</text>
</g>
<!-- Node6&#45;&gt;Node6 -->
<g id="edge16" class="edge"><title>Node6&#45;&gt;Node6</title>
<path fill="none" stroke="#9a32cd" stroke-dasharray="5,2" d="M35.6225,-484.977C37.2716,-489.9 44.3975,-493.551 57,-493.551 77.1641,-493.551 83.3078,-484.204 75.4312,-475.259"/>
<polygon fill="#9a32cd" stroke="#9a32cd" points="39.017,-485.844 38.5688,-475.259 32.318,-483.813 39.017,-485.844"/>
<text text-anchor="middle" x="57" y="-510.551" font-family="FreeSans" font-size="10.00"> IDENTITY</text>
<text text-anchor="middle" x="57" y="-497.551" font-family="FreeSans" font-size="10.00">ZERO</text>
</g>
<!-- Node6&#45;&gt;Node7 -->
<g id="edge32" class="edge"><title>Node6&#45;&gt;Node7</title>
<path fill="none" stroke="#9a32cd" stroke-dasharray="5,2" d="M62.5447,-484.995C82.4045,-553.184 156.709,-768.551 303,-768.551 303,-768.551 303,-768.551 1367,-768.551 1496.23,-768.551 1554.34,-566.162 1566.52,-517.146"/>
<polygon fill="#9a32cd" stroke="#9a32cd" points="65.9119,-484.04 59.8221,-475.37 59.1762,-485.945 65.9119,-484.04"/>
<text text-anchor="middle" x="784" y="-772.551" font-family="FreeSans" font-size="10.00"> inverseWorld_</text>
</g>
<!-- Node6&#45;&gt;Node12 -->
<g id="edge40" class="edge"><title>Node6&#45;&gt;Node12</title>
<path fill="none" stroke="#9a32cd" stroke-dasharray="5,2" d="M120.491,-463.241C263.17,-460.297 606.679,-453.209 734.76,-450.567"/>
<polygon fill="#9a32cd" stroke="#9a32cd" points="120.089,-459.748 110.164,-463.454 120.234,-466.747 120.089,-459.748"/>
<text text-anchor="middle" x="425" y="-461.551" font-family="FreeSans" font-size="10.00"> view_</text>
</g>
<!-- Node7&#45;&gt;Node2 -->
<g id="edge18" class="edge"><title>Node7&#45;&gt;Node2</title>
<path fill="none" stroke="#9a32cd" stroke-dasharray="5,2" d="M1516.47,-497.97C1486.46,-493.066 1448.95,-486.939 1419.02,-482.049"/>
<polygon fill="#9a32cd" stroke="#9a32cd" points="1515.91,-501.424 1526.34,-499.582 1517.04,-494.516 1515.91,-501.424"/>
<text text-anchor="middle" x="1482" y="-512.551" font-family="FreeSans" font-size="10.00"> lastZone_</text>
<text text-anchor="middle" x="1482" y="-499.551" font-family="FreeSans" font-size="10.00">zone_</text>
</g>
<!-- Node8 -->
<g id="node18" class="node"><title>Node8</title>
<a xlink:href="a00322.html" target="_top" xlink:title="Urho3D::WeakPtr\&lt; Urho3D\l::Zone \&gt;">
<polygon fill="none" stroke="red" points="1762,-489.551 1762,-523.551 1908,-523.551 1908,-489.551 1762,-489.551"/>
<text text-anchor="start" x="1770" y="-510.551" font-family="FreeSans" font-size="10.00">Urho3D::WeakPtr&lt; Urho3D</text>
<text text-anchor="middle" x="1835" y="-497.551" font-family="FreeSans" font-size="10.00">::Zone &gt;</text>
</a>
</g>
<!-- Node7&#45;&gt;Node8 -->
<g id="edge24" class="edge"><title>Node7&#45;&gt;Node8</title>
<path fill="none" stroke="#9a32cd" stroke-dasharray="5,2" d="M1621.72,-514.819C1624.52,-515.104 1627.29,-515.352 1630,-515.551 1680.53,-519.258 1693.39,-518.047 1744,-515.551 1749.71,-515.269 1755.61,-514.889 1761.54,-514.443"/>
<polygon fill="#9a32cd" stroke="#9a32cd" points="1621.91,-511.317 1611.57,-513.644 1621.1,-518.271 1621.91,-511.317"/>
<text text-anchor="middle" x="1687" y="-521.551" font-family="FreeSans" font-size="10.00"> ptr_</text>
</g>
<!-- Node8&#45;&gt;Node7 -->
<g id="edge22" class="edge"><title>Node8&#45;&gt;Node7</title>
<path fill="none" stroke="#9a32cd" stroke-dasharray="5,2" d="M1782.83,-486.211C1770.3,-482.208 1756.83,-478.611 1744,-476.551 1693.97,-468.517 1679.35,-465.072 1630,-476.551 1613.91,-480.294 1597.17,-488.915 1585.31,-495.96"/>
<polygon fill="#9a32cd" stroke="#9a32cd" points="1782.06,-489.641 1792.65,-489.487 1784.27,-483.001 1782.06,-489.641"/>
<text text-anchor="start" x="1630.5" y="-506.551" font-family="FreeSans" font-size="10.00"> lastAmbientEndZone</text>
<text text-anchor="middle" x="1687" y="-493.551" font-family="FreeSans" font-size="10.00">_</text>
<text text-anchor="middle" x="1687" y="-480.551" font-family="FreeSans" font-size="10.00">lastAmbientStartZone_</text>
</g>
<!-- Node9 -->
<g id="node21" class="node"><title>Node9</title>
<a xlink:href="a00075.html" target="_top" xlink:title="Three&#45;dimensional axis&#45;aligned bounding box.">
<polygon fill="none" stroke="red" points="723,-666.051 723,-687.051 845,-687.051 845,-666.051 723,-666.051"/>
<text text-anchor="middle" x="784" y="-674.051" font-family="FreeSans" font-size="10.00">Urho3D::BoundingBox</text>
</a>
</g>
<!-- Node9&#45;&gt;Node2 -->
<g id="edge46" class="edge"><title>Node9&#45;&gt;Node2</title>
<path fill="none" stroke="#9a32cd" stroke-dasharray="5,2" d="M855.305,-684.566C959.489,-692.288 1154.33,-691.134 1278,-594.551 1318.9,-562.609 1349.99,-507.211 1361.81,-484.125"/>
<polygon fill="#9a32cd" stroke="#9a32cd" points="855.45,-681.066 845.205,-683.768 854.898,-688.045 855.45,-681.066"/>
<text text-anchor="middle" x="1075" y="-701.551" font-family="FreeSans" font-size="10.00"> worldBoundingBox_</text>
<text text-anchor="middle" x="1075" y="-688.551" font-family="FreeSans" font-size="10.00">boundingBox_</text>
</g>
<!-- Node9&#45;&gt;Node7 -->
<g id="edge26" class="edge"><title>Node9&#45;&gt;Node7</title>
<path fill="none" stroke="#9a32cd" stroke-dasharray="5,2" d="M826.62,-690.052C894.577,-709.578 1031.31,-740.648 1144,-714.551 1316.86,-674.519 1500.58,-553.963 1553.78,-517.266"/>
<polygon fill="#9a32cd" stroke="#9a32cd" points="827.292,-686.602 816.711,-687.146 825.322,-693.319 827.292,-686.602"/>
<text text-anchor="middle" x="1220" y="-713.551" font-family="FreeSans" font-size="10.00"> lastWorldBoundingBox_</text>
</g>
<!-- Node15 -->
<g id="node40" class="node"><title>Node15</title>
<a xlink:href="a00203.html" target="_top" xlink:title="Octree octant">
<polygon fill="none" stroke="red" points="1029,-575.051 1029,-596.051 1121,-596.051 1121,-575.051 1029,-575.051"/>
<text text-anchor="middle" x="1075" y="-583.051" font-family="FreeSans" font-size="10.00">Urho3D::Octant</text>
</a>
</g>
<!-- Node9&#45;&gt;Node15 -->
<g id="edge54" class="edge"><title>Node9&#45;&gt;Node15</title>
<path fill="none" stroke="#9a32cd" stroke-dasharray="5,2" d="M816.316,-661.765C834.738,-653.672 858.392,-643.839 880,-636.551 930.068,-619.664 988.915,-604.954 1028.77,-595.729"/>
<polygon fill="#9a32cd" stroke="#9a32cd" points="814.65,-658.675 806.933,-665.935 817.493,-665.072 814.65,-658.675"/>
<text text-anchor="middle" x="934" y="-653.551" font-family="FreeSans" font-size="10.00"> cullingBox_</text>
<text text-anchor="middle" x="934" y="-640.551" font-family="FreeSans" font-size="10.00">worldBoundingBox_</text>
</g>
<!-- Node10 -->
<g id="node23" class="node"><title>Node10</title>
<a xlink:href="a00083.html" target="_top" xlink:title="RGBA color.">
<polygon fill="none" stroke="black" points="261,-218.051 261,-239.051 345,-239.051 345,-218.051 261,-218.051"/>
<text text-anchor="middle" x="303" y="-226.051" font-family="FreeSans" font-size="10.00">Urho3D::Color</text>
</a>
</g>
<!-- Node10&#45;&gt;Node1 -->
<g id="edge90" class="edge"><title>Node10&#45;&gt;Node1</title>
<path fill="none" stroke="#9a32cd" stroke-dasharray="5,2" d="M341.755,-242.489C412.822,-267.264 569.264,-318.185 706,-337.551 782.581,-348.397 802.658,-339.884 880,-340.551 927.998,-340.965 940.132,-344.107 988,-340.551 1002.77,-339.453 1018.84,-337.321 1033.1,-335.096"/>
<polygon fill="#9a32cd" stroke="#9a32cd" points="342.899,-239.181 332.304,-239.172 340.581,-245.786 342.899,-239.181"/>
<text text-anchor="middle" x="649" y="-337.551" font-family="FreeSans" font-size="10.00"> color_</text>
</g>
<!-- Node10&#45;&gt;Node7 -->
<g id="edge28" class="edge"><title>Node10&#45;&gt;Node7</title>
<path fill="none" stroke="#9a32cd" stroke-dasharray="5,2" d="M355.117,-224.474C414.859,-218.185 514.513,-202.678 592,-165.551 650.716,-137.418 648.552,-104.19 706,-73.5508 777.446,-35.446 799.943,-31.6879 880,-19.5508 1055.35,7.03392 1111.97,13.815 1278,-48.5508 1357.85,-78.5459 1384.96,-87.7421 1438,-154.551 1528.21,-268.182 1560.57,-450.193 1567.49,-495.883"/>
<polygon fill="#9a32cd" stroke="#9a32cd" points="354.76,-220.992 345.161,-225.476 355.461,-227.957 354.76,-220.992"/>
<text text-anchor="middle" x="934" y="-62.5508" font-family="FreeSans" font-size="10.00"> ambientEndColor_</text>
<text text-anchor="middle" x="934" y="-49.5508" font-family="FreeSans" font-size="10.00">fogColor_</text>
<text text-anchor="middle" x="934" y="-36.5508" font-family="FreeSans" font-size="10.00">ambientColor_</text>
<text text-anchor="middle" x="934" y="-23.5508" font-family="FreeSans" font-size="10.00">ambientStartColor_</text>
</g>
<!-- Node10&#45;&gt;Node10 -->
<g id="edge30" class="edge"><title>Node10&#45;&gt;Node10</title>
<path fill="none" stroke="#9a32cd" stroke-dasharray="5,2" d="M280.517,-248.977C282.251,-253.9 289.746,-257.551 303,-257.551 324.207,-257.551 330.669,-248.204 322.385,-239.259"/>
<polygon fill="#9a32cd" stroke="#9a32cd" points="283.912,-249.849 283.615,-239.259 277.243,-247.723 283.912,-249.849"/>
<text text-anchor="middle" x="303" y="-391.551" font-family="FreeSans" font-size="10.00"> CYAN</text>
<text text-anchor="middle" x="303" y="-378.551" font-family="FreeSans" font-size="10.00">GRAY</text>
<text text-anchor="middle" x="303" y="-365.551" font-family="FreeSans" font-size="10.00">YELLOW</text>
<text text-anchor="middle" x="303" y="-352.551" font-family="FreeSans" font-size="10.00">MAGENTA</text>
<text text-anchor="middle" x="303" y="-339.551" font-family="FreeSans" font-size="10.00">WHITE</text>
<text text-anchor="middle" x="303" y="-326.551" font-family="FreeSans" font-size="10.00">TRANSPARENT</text>
<text text-anchor="middle" x="303" y="-313.551" font-family="FreeSans" font-size="10.00">BLUE</text>
<text text-anchor="middle" x="303" y="-300.551" font-family="FreeSans" font-size="10.00">BLACK</text>
<text text-anchor="middle" x="303" y="-287.551" font-family="FreeSans" font-size="10.00">RED</text>
<text text-anchor="middle" x="303" y="-274.551" font-family="FreeSans" font-size="10.00">GREEN</text>
<text text-anchor="middle" x="303" y="-261.551" font-family="FreeSans" font-size="10.00">...</text>
</g>
<!-- Node22 -->
<g id="node57" class="node"><title>Node22</title>
<a xlink:href="a00294.html" target="_top" xlink:title="Base class for texture resources.">
<polygon fill="none" stroke="red" points="487,-218.051 487,-239.051 581,-239.051 581,-218.051 487,-218.051"/>
<text text-anchor="middle" x="534" y="-226.051" font-family="FreeSans" font-size="10.00">Urho3D::Texture</text>
</a>
</g>
<!-- Node10&#45;&gt;Node22 -->
<g id="edge78" class="edge"><title>Node10&#45;&gt;Node22</title>
<path fill="none" stroke="#9a32cd" stroke-dasharray="5,2" d="M355.315,-228.551C394.764,-228.551 448.421,-228.551 486.615,-228.551"/>
<polygon fill="#9a32cd" stroke="#9a32cd" points="355.1,-225.051 345.1,-228.551 355.1,-232.051 355.1,-225.051"/>
<text text-anchor="middle" x="425" y="-232.551" font-family="FreeSans" font-size="10.00"> borderColor_</text>
</g>
<!-- Node11 -->
<g id="node27" class="node"><title>Node11</title>
<a xlink:href="a00219.html" target="_top" xlink:title="Urho3D::PODVector\&lt;\l Urho3D::Light * \&gt;">
<polygon fill="none" stroke="red" points="1015.5,-246.551 1015.5,-280.551 1134.5,-280.551 1134.5,-246.551 1015.5,-246.551"/>
<text text-anchor="start" x="1023.5" y="-267.551" font-family="FreeSans" font-size="10.00">Urho3D::PODVector&lt;</text>
<text text-anchor="middle" x="1075" y="-254.551" font-family="FreeSans" font-size="10.00"> Urho3D::Light * &gt;</text>
</a>
</g>
<!-- Node11&#45;&gt;Node2 -->
<g id="edge34" class="edge"><title>Node11&#45;&gt;Node2</title>
<path fill="none" stroke="#9a32cd" stroke-dasharray="5,2" d="M1145,-260.54C1195.01,-259.762 1257.01,-262.03 1278,-276.551 1343.74,-322.03 1361.7,-428.207 1365.87,-462.593"/>
<polygon fill="#9a32cd" stroke="#9a32cd" points="1144.78,-257.044 1134.85,-260.741 1144.92,-264.042 1144.78,-257.044"/>
<text text-anchor="middle" x="1220" y="-293.551" font-family="FreeSans" font-size="10.00"> vertexLights_</text>
<text text-anchor="middle" x="1220" y="-280.551" font-family="FreeSans" font-size="10.00">lights_</text>
</g>
<!-- Node11&#45;&gt;Node17 -->
<g id="edge64" class="edge"><title>Node11&#45;&gt;Node17</title>
<path fill="none" stroke="#9a32cd" stroke-dasharray="5,2" d="M1105.01,-240.36C1121.08,-229.063 1141.71,-216.281 1162,-208.551 1185.98,-199.414 1246.6,-189.934 1295.75,-183.312"/>
<polygon fill="#9a32cd" stroke="#9a32cd" points="1102.64,-237.752 1096.58,-246.441 1106.74,-243.429 1102.64,-237.752"/>
<text text-anchor="middle" x="1220" y="-212.551" font-family="FreeSans" font-size="10.00"> vertexLights_</text>
</g>
<!-- Node12&#45;&gt;Node2 -->
<g id="edge36" class="edge"><title>Node12&#45;&gt;Node2</title>
<path fill="none" stroke="#9a32cd" stroke-dasharray="5,2" d="M843.511,-452.001C957.848,-456.707 1206.48,-466.943 1314.8,-471.402"/>
<polygon fill="#9a32cd" stroke="#9a32cd" points="843.339,-448.491 833.204,-451.576 843.051,-455.485 843.339,-448.491"/>
<text text-anchor="middle" x="1075" y="-467.551" font-family="FreeSans" font-size="10.00"> viewCamera_</text>
</g>
<!-- Node14 -->
<g id="node37" class="node"><title>Node14</title>
<a xlink:href="a00131.html" target="_top" xlink:title="Rendering frame update parameters.">
<polygon fill="none" stroke="red" points="1021.5,-396.051 1021.5,-417.051 1128.5,-417.051 1128.5,-396.051 1021.5,-396.051"/>
<text text-anchor="middle" x="1075" y="-404.051" font-family="FreeSans" font-size="10.00">Urho3D::FrameInfo</text>
</a>
</g>
<!-- Node12&#45;&gt;Node14 -->
<g id="edge50" class="edge"><title>Node12&#45;&gt;Node14</title>
<path fill="none" stroke="#9a32cd" stroke-dasharray="5,2" d="M833.072,-436.466C848.051,-432.832 864.625,-429.169 880,-426.551 927.472,-418.467 982.04,-413.209 1021.36,-410.123"/>
<polygon fill="#9a32cd" stroke="#9a32cd" points="831.856,-433.162 822.992,-438.965 833.54,-439.956 831.856,-433.162"/>
<text text-anchor="middle" x="934" y="-430.551" font-family="FreeSans" font-size="10.00"> camera_</text>
</g>
<!-- Node13 -->
<g id="node33" class="node"><title>Node13</title>
<a xlink:href="a00310.html" target="_top" xlink:title="Urho3D::Vector\&lt; Urho3D\l::SourceBatch \&gt;">
<polygon fill="none" stroke="red" points="1006,-522.551 1006,-556.551 1144,-556.551 1144,-522.551 1006,-522.551"/>
<text text-anchor="start" x="1014" y="-543.551" font-family="FreeSans" font-size="10.00">Urho3D::Vector&lt; Urho3D</text>
<text text-anchor="middle" x="1075" y="-530.551" font-family="FreeSans" font-size="10.00">::SourceBatch &gt;</text>
</a>
</g>
<!-- Node13&#45;&gt;Node2 -->
<g id="edge42" class="edge"><title>Node13&#45;&gt;Node2</title>
<path fill="none" stroke="#9a32cd" stroke-dasharray="5,2" d="M1154.34,-531.601C1192.19,-526.754 1237.87,-519.361 1278,-508.551 1301.25,-502.289 1326.71,-491.892 1344.42,-484.053"/>
<polygon fill="#9a32cd" stroke="#9a32cd" points="1153.88,-528.131 1144.39,-532.84 1154.74,-535.077 1153.88,-528.131"/>
<text text-anchor="middle" x="1220" y="-533.551" font-family="FreeSans" font-size="10.00"> batches_</text>
</g>
<!-- Node14&#45;&gt;Node2 -->
<g id="edge48" class="edge"><title>Node14&#45;&gt;Node2</title>
<path fill="none" stroke="#9a32cd" stroke-dasharray="5,2" d="M1138.7,-406.551C1179.33,-408.073 1232.67,-412.922 1278,-426.551 1305.44,-434.801 1334.25,-451.77 1351.41,-462.9"/>
<polygon fill="#9a32cd" stroke="#9a32cd" points="1138.77,-403.051 1128.66,-406.232 1138.55,-410.048 1138.77,-403.051"/>
<text text-anchor="middle" x="1220" y="-430.551" font-family="FreeSans" font-size="10.00"> viewFrame_</text>
</g>
<!-- Node15&#45;&gt;Node2 -->
<g id="edge52" class="edge"><title>Node15&#45;&gt;Node2</title>
<path fill="none" stroke="#9a32cd" stroke-dasharray="5,2" d="M1131.41,-582.213C1173.48,-577.977 1231.47,-568.364 1278,-546.551 1311.11,-531.027 1342.36,-500.395 1357.49,-484.186"/>
<polygon fill="#9a32cd" stroke="#9a32cd" points="1130.97,-578.738 1121.34,-583.155 1131.62,-585.708 1130.97,-578.738"/>
<text text-anchor="middle" x="1220" y="-581.551" font-family="FreeSans" font-size="10.00"> octant_</text>
</g>
<!-- Node15&#45;&gt;Node15 -->
<g id="edge56" class="edge"><title>Node15&#45;&gt;Node15</title>
<path fill="none" stroke="#9a32cd" stroke-dasharray="5,2" d="M1049.06,-605.606C1050.76,-610.715 1059.41,-614.551 1075,-614.551 1099.34,-614.551 1106.75,-605.204 1097.24,-596.259"/>
<polygon fill="#9a32cd" stroke="#9a32cd" points="1052.34,-606.845 1052.76,-596.259 1045.83,-604.273 1052.34,-606.845"/>
<text text-anchor="middle" x="1075" y="-631.551" font-family="FreeSans" font-size="10.00"> parent_</text>
<text text-anchor="middle" x="1075" y="-618.551" font-family="FreeSans" font-size="10.00">children_</text>
</g>
<!-- Node16 -->
<g id="node44" class="node"><title>Node16</title>
<a xlink:href="a00079.html" target="_top" xlink:title="Cascaded shadow map parameters.">
<polygon fill="none" stroke="black" points="706,-307.051 706,-328.051 862,-328.051 862,-307.051 706,-307.051"/>
<text text-anchor="middle" x="784" y="-315.051" font-family="FreeSans" font-size="10.00">Urho3D::CascadeParameters</text>
</a>
</g>
<!-- Node16&#45;&gt;Node1 -->
<g id="edge58" class="edge"><title>Node16&#45;&gt;Node1</title>
<path fill="none" stroke="#9a32cd" stroke-dasharray="5,2" d="M872.535,-320.593C925.968,-322.429 991.571,-324.684 1033.34,-326.119"/>
<polygon fill="#9a32cd" stroke="#9a32cd" points="872.48,-317.089 862.365,-320.244 872.239,-324.085 872.48,-317.089"/>
<text text-anchor="middle" x="934" y="-327.551" font-family="FreeSans" font-size="10.00"> shadowCascade_</text>
</g>
<!-- Node17&#45;&gt;Node1 -->
<g id="edge60" class="edge"><title>Node17&#45;&gt;Node1</title>
<path fill="none" stroke="#9a32cd" stroke-dasharray="5,2" d="M1359.9,-194.537C1348.06,-224.577 1321.25,-280.605 1278,-306.551 1264.52,-314.639 1172.14,-321.607 1116.75,-325.119"/>
<polygon fill="#9a32cd" stroke="#9a32cd" points="1363.21,-195.679 1363.46,-185.087 1356.66,-193.209 1363.21,-195.679"/>
<text text-anchor="middle" x="1220" y="-325.551" font-family="FreeSans" font-size="10.00"> lightQueue_</text>
</g>
<!-- Node18 -->
<g id="node48" class="node"><title>Node18</title>
<a xlink:href="a00310.html" target="_top" xlink:title="Urho3D::Vector\&lt; Urho3D\l::ShadowBatchQueue \&gt;">
<polygon fill="none" stroke="red" points="1006,-79.5508 1006,-113.551 1144,-113.551 1144,-79.5508 1006,-79.5508"/>
<text text-anchor="start" x="1014" y="-100.551" font-family="FreeSans" font-size="10.00">Urho3D::Vector&lt; Urho3D</text>
<text text-anchor="middle" x="1075" y="-87.5508" font-family="FreeSans" font-size="10.00">::ShadowBatchQueue &gt;</text>
</a>
</g>
<!-- Node18&#45;&gt;Node17 -->
<g id="edge62" class="edge"><title>Node18&#45;&gt;Node17</title>
<path fill="none" stroke="#9a32cd" stroke-dasharray="5,2" d="M1154.26,-99.3342C1192.47,-102.517 1238.48,-109.098 1278,-122.551 1306.63,-132.296 1336.25,-151.836 1353.07,-163.992"/>
<polygon fill="#9a32cd" stroke="#9a32cd" points="1154.45,-95.8387 1144.21,-98.5598 1153.91,-102.818 1154.45,-95.8387"/>
<text text-anchor="middle" x="1220" y="-126.551" font-family="FreeSans" font-size="10.00"> shadowSplits_</text>
</g>
<!-- Node19 -->
<g id="node51" class="node"><title>Node19</title>
<a xlink:href="a00069.html" target="_top" xlink:title="Queue that contains both instanced and non&#45;instanced draw calls.">
<polygon fill="none" stroke="red" points="1015.5,-40.0508 1015.5,-61.0508 1134.5,-61.0508 1134.5,-40.0508 1015.5,-40.0508"/>
<text text-anchor="middle" x="1075" y="-48.0508" font-family="FreeSans" font-size="10.00">Urho3D::BatchQueue</text>
</a>
</g>
<!-- Node19&#45;&gt;Node17 -->
<g id="edge66" class="edge"><title>Node19&#45;&gt;Node17</title>
<path fill="none" stroke="#9a32cd" stroke-dasharray="5,2" d="M1144.66,-50.6644C1185.52,-53.3076 1236.99,-61.2456 1278,-82.5508 1315.86,-102.222 1346.99,-144.136 1360.19,-163.864"/>
<polygon fill="#9a32cd" stroke="#9a32cd" points="1144.69,-47.1609 1134.51,-50.1015 1144.31,-54.1502 1144.69,-47.1609"/>
<text text-anchor="middle" x="1220" y="-86.5508" font-family="FreeSans" font-size="10.00"> litBatches_</text>
</g>
<!-- Node20 -->
<g id="node53" class="node"><title>Node20</title>
<a xlink:href="a00219.html" target="_top" xlink:title="Urho3D::PODVector\&lt;\l Urho3D::Batch \&gt;">
<polygon fill="none" stroke="red" points="724.5,-82.5508 724.5,-116.551 843.5,-116.551 843.5,-82.5508 724.5,-82.5508"/>
<text text-anchor="start" x="732.5" y="-103.551" font-family="FreeSans" font-size="10.00">Urho3D::PODVector&lt;</text>
<text text-anchor="middle" x="784" y="-90.5508" font-family="FreeSans" font-size="10.00"> Urho3D::Batch &gt;</text>
</a>
</g>
<!-- Node20&#45;&gt;Node17 -->
<g id="edge80" class="edge"><title>Node20&#45;&gt;Node17</title>
<path fill="none" stroke="#9a32cd" stroke-dasharray="5,2" d="M853.792,-108.529C965.446,-122.893 1183.09,-150.892 1295.69,-165.378"/>
<polygon fill="#9a32cd" stroke="#9a32cd" points="854.016,-105.029 843.651,-107.225 853.123,-111.972 854.016,-105.029"/>
<text text-anchor="middle" x="1075" y="-149.551" font-family="FreeSans" font-size="10.00"> volumeBatches_</text>
</g>
<!-- Node20&#45;&gt;Node19 -->
<g id="edge68" class="edge"><title>Node20&#45;&gt;Node19</title>
<path fill="none" stroke="#9a32cd" stroke-dasharray="5,2" d="M853.852,-94.1668C893.453,-90.4084 943.778,-84.4443 988,-75.5508 989.348,-75.2797 1015.24,-67.8283 1038.43,-61.1311"/>
<polygon fill="#9a32cd" stroke="#9a32cd" points="853.401,-90.6935 843.765,-95.0987 854.045,-97.6638 853.401,-90.6935"/>
<text text-anchor="middle" x="934" y="-94.5508" font-family="FreeSans" font-size="10.00"> batches_</text>
</g>
<!-- Node21 -->
<g id="node55" class="node"><title>Node21</title>
<a xlink:href="a00295.html" target="_top" xlink:title="2D texture resource.">
<polygon fill="none" stroke="red" points="880.5,-182.051 880.5,-203.051 987.5,-203.051 987.5,-182.051 880.5,-182.051"/>
<text text-anchor="middle" x="934" y="-190.051" font-family="FreeSans" font-size="10.00">Urho3D::Texture2D</text>
</a>
</g>
<!-- Node21&#45;&gt;Node17 -->
<g id="edge70" class="edge"><title>Node21&#45;&gt;Node17</title>
<path fill="none" stroke="#9a32cd" stroke-dasharray="5,2" d="M997.891,-189.895C1077.4,-186.59 1212.79,-180.961 1295.63,-177.518"/>
<polygon fill="#9a32cd" stroke="#9a32cd" points="997.375,-186.413 987.529,-190.326 997.665,-193.407 997.375,-186.413"/>
<text text-anchor="middle" x="1075" y="-192.551" font-family="FreeSans" font-size="10.00"> shadowMap_</text>
</g>
<!-- Node22&#45;&gt;Node21 -->
<g id="edge72" class="edge"><title>Node22&#45;&gt;Node21</title>
<path fill="none" stroke="midnightblue" d="M591.38,-219.768C624.758,-214.937 667.677,-209.2 706,-205.551 765.598,-199.875 834.214,-196.372 880.474,-194.453"/>
<polygon fill="midnightblue" stroke="midnightblue" points="590.732,-216.325 581.343,-221.235 591.744,-223.252 590.732,-216.325"/>
</g>
<!-- Node23 -->
<g id="node59" class="node"><title>Node23</title>
<a xlink:href="a00269.html" target="_top" xlink:title="Urho3D::SharedPtr\&lt;\l Urho3D::Texture \&gt;">
<polygon fill="none" stroke="black" points="726,-214.551 726,-248.551 842,-248.551 842,-214.551 726,-214.551"/>
<text text-anchor="start" x="734" y="-235.551" font-family="FreeSans" font-size="10.00">Urho3D::SharedPtr&lt;</text>
<text text-anchor="middle" x="784" y="-222.551" font-family="FreeSans" font-size="10.00"> Urho3D::Texture &gt;</text>
</a>
</g>
<!-- Node22&#45;&gt;Node23 -->
<g id="edge76" class="edge"><title>Node22&#45;&gt;Node23</title>
<path fill="none" stroke="#9a32cd" stroke-dasharray="5,2" d="M591.666,-236.942C597.844,-237.6 604.045,-238.161 610,-238.551 648.615,-241.08 692.115,-239.33 725.961,-236.948"/>
<polygon fill="#9a32cd" stroke="#9a32cd" points="591.674,-233.419 581.339,-235.752 590.873,-240.373 591.674,-233.419"/>
<text text-anchor="middle" x="649" y="-243.551" font-family="FreeSans" font-size="10.00"> ptr_</text>
</g>
<!-- Node23&#45;&gt;Node1 -->
<g id="edge88" class="edge"><title>Node23&#45;&gt;Node1</title>
<path fill="none" stroke="#9a32cd" stroke-dasharray="5,2" d="M852.369,-224.859C894.818,-224.136 948.599,-229.786 988,-256.551 1001.82,-265.938 994.211,-277.714 1006,-289.551 1017.77,-301.372 1034,-310.557 1047.75,-316.933"/>
<polygon fill="#9a32cd" stroke="#9a32cd" points="852.007,-221.368 842.114,-225.159 852.212,-228.365 852.007,-221.368"/>
<text text-anchor="middle" x="934" y="-273.551" font-family="FreeSans" font-size="10.00"> shapeTexture_</text>
<text text-anchor="middle" x="934" y="-260.551" font-family="FreeSans" font-size="10.00">rampTexture_</text>
</g>
<!-- Node23&#45;&gt;Node22 -->
<g id="edge74" class="edge"><title>Node23&#45;&gt;Node22</title>
<path fill="none" stroke="#9a32cd" stroke-dasharray="5,2" d="M715.836,-226.764C706.487,-226.261 697.009,-225.832 688,-225.551 653.35,-224.469 644.66,-224.867 610,-225.551 600.626,-225.736 590.606,-226.049 581.02,-226.405"/>
<polygon fill="#9a32cd" stroke="#9a32cd" points="715.718,-230.263 725.9,-227.334 716.115,-223.274 715.718,-230.263"/>
<text text-anchor="middle" x="649" y="-229.551" font-family="FreeSans" font-size="10.00"> backupTexture_</text>
</g>
<!-- Node24 -->
<g id="node65" class="node"><title>Node24</title>
<a xlink:href="a00126.html" target="_top" xlink:title="Shadow map focusing parameters.">
<polygon fill="none" stroke="black" points="712.5,-267.051 712.5,-288.051 855.5,-288.051 855.5,-267.051 712.5,-267.051"/>
<text text-anchor="middle" x="784" y="-275.051" font-family="FreeSans" font-size="10.00">Urho3D::FocusParameters</text>
</a>
</g>
<!-- Node24&#45;&gt;Node1 -->
<g id="edge84" class="edge"><title>Node24&#45;&gt;Node1</title>
<path fill="none" stroke="#9a32cd" stroke-dasharray="5,2" d="M866.029,-285.308C903.431,-289.535 948.163,-295.56 988,-303.551 1005.67,-307.095 1025.02,-312.298 1040.97,-316.954"/>
<polygon fill="#9a32cd" stroke="#9a32cd" points="866.008,-281.785 855.684,-284.164 865.238,-288.742 866.008,-281.785"/>
<text text-anchor="middle" x="934" y="-307.551" font-family="FreeSans" font-size="10.00"> shadowFocus_</text>
</g>
<!-- Node25 -->
<g id="node67" class="node"><title>Node25</title>
<a xlink:href="a00070.html" target="_top" xlink:title="Shadow depth bias parameters.">
<polygon fill="none" stroke="black" points="716.5,-385.051 716.5,-406.051 851.5,-406.051 851.5,-385.051 716.5,-385.051"/>
<text text-anchor="middle" x="784" y="-393.051" font-family="FreeSans" font-size="10.00">Urho3D::BiasParameters</text>
</a>
</g>
<!-- Node25&#45;&gt;Node1 -->
<g id="edge86" class="edge"><title>Node25&#45;&gt;Node1</title>
<path fill="none" stroke="#9a32cd" stroke-dasharray="5,2" d="M861.77,-390.294C900.304,-386.331 947.201,-379.445 988,-367.551 1012.58,-360.385 1039.07,-347.366 1056.28,-338.128"/>
<polygon fill="#9a32cd" stroke="#9a32cd" points="861.26,-386.827 851.651,-391.288 861.945,-393.794 861.26,-386.827"/>
<text text-anchor="middle" x="934" y="-391.551" font-family="FreeSans" font-size="10.00"> shadowBias_</text>
</g>
</g>
</svg>
        <g id="navigator" transform="translate(0 0)" fill="#404254">
                <rect fill="#f2f5e9" fill-opacity="0.5" stroke="#606060" stroke-width=".5" x="0" y="0" width="60" height="60"/>
                <use id="zoomplus" xlink:href="#zoomPlus" x="17" y="9" onmousedown="handleZoom(evt,'in')"/>
                <use id="zoomminus" xlink:href="#zoomMin" x="42" y="9" onmousedown="handleZoom(evt,'out')"/>
                <use id="reset" xlink:href="#resetDef" x="30" y="36" onmousedown="handleReset()"/>
                <g id="arrowUp" xlink:href="#dirArrow" transform="translate(30 24)" onmousedown="handlePan(0,-1)">
                  <use xlink:href="#rim" fill="#404040">
                        <set attributeName="fill" to="#808080" begin="arrowUp.mouseover" end="arrowUp.mouseout"/>
                  </use>
                  <path fill="none" stroke="white" stroke-width="1.5" d="M0,-3.0v7 M-2.5,-0.5L0,-3.0L2.5,-0.5"/>
                </g>
                <g id="arrowRight" xlink:href="#dirArrow" transform="rotate(90) translate(36 -43)" onmousedown="handlePan(1,0)">
                  <use xlink:href="#rim" fill="#404040">
                        <set attributeName="fill" to="#808080" begin="arrowRight.mouseover" end="arrowRight.mouseout"/>
                  </use>
                  <path fill="none" stroke="white" stroke-width="1.5" d="M0,-3.0v7 M-2.5,-0.5L0,-3.0L2.5,-0.5"/>
                </g>
                <g id="arrowDown" xlink:href="#dirArrow" transform="rotate(180) translate(-30 -48)" onmousedown="handlePan(0,1)">
                  <use xlink:href="#rim" fill="#404040">
                        <set attributeName="fill" to="#808080" begin="arrowDown.mouseover" end="arrowDown.mouseout"/>
                  </use>
                  <path fill="none" stroke="white" stroke-width="1.5" d="M0,-3.0v7 M-2.5,-0.5L0,-3.0L2.5,-0.5"/>
                </g>
                <g id="arrowLeft" xlink:href="#dirArrow" transform="rotate(270) translate(-36 17)" onmousedown="handlePan(-1,0)">
                  <use xlink:href="#rim" fill="#404040">
                        <set attributeName="fill" to="#808080" begin="arrowLeft.mouseover" end="arrowLeft.mouseout"/>
                  </use>
                  <path fill="none" stroke="white" stroke-width="1.5" d="M0,-3.0v7 M-2.5,-0.5L0,-3.0L2.5,-0.5"/>
                </g>
        </g>
        <svg viewBox="0 0 15 15" width="100%" height="30px" preserveAspectRatio="xMaxYMin meet">
         <g id="arrow_out" transform="scale(0.3 0.3)">
          <a xlink:href="a00964_org.svg" target="_base">
           <rect id="button" ry="5" rx="5" y="6" x="6" height="38" width="38"
                fill="#f2f5e9" fill-opacity="0.5" stroke="#606060" stroke-width="1.0"/>
           <path id="arrow"
             d="M 11.500037,31.436501 C 11.940474,20.09759 22.043105,11.32322 32.158766,21.979434 L 37.068811,17.246167 C 37.068811,17.246167 37.088388,32 37.088388,32 L 22.160133,31.978069 C 22.160133,31.978069 26.997745,27.140456 26.997745,27.140456 C 18.528582,18.264221 13.291696,25.230495 11.500037,31.436501 z"
             style="fill:#404040;"/>
          </a>
         </g>
        </svg>
</svg>
