<?xml version="1.0" encoding="UTF-8" standalone="no"?>
<!DOCTYPE svg PUBLIC "-//W3C//DTD SVG 1.1//EN"
 "http://www.w3.org/Graphics/SVG/1.1/DTD/svg11.dtd">
<!-- Generated by graphviz version 2.26.3 (20100126.1600)
 -->
<!-- Title: Urho3D::EventHandlerImpl&lt; T &gt; Pages: 1 -->
<svg width="1388pt" height="684pt"
 viewBox="0.00 0.00 1388.00 684.42" xmlns="http://www.w3.org/2000/svg" xmlns:xlink="http://www.w3.org/1999/xlink">
<g id="graph1" class="graph" transform="scale(1 1) rotate(0) translate(4 680.421)">
<title>Urho3D::EventHandlerImpl&lt; T &gt;</title>
<!-- Node1 -->
<g id="node1" class="node"><title>Node1</title>
<polygon fill="#bfbfbf" stroke="black" points="1002,-109.921 1002,-130.921 1174,-130.921 1174,-109.921 1002,-109.921"/>
<text text-anchor="middle" x="1088" y="-117.921" font-family="FreeSans" font-size="10.00">Urho3D::EventHandlerImpl&lt; T &gt;</text>
</g>
<!-- Node2 -->
<g id="node2" class="node"><title>Node2</title>
<a xlink:href="a00151.html" target="_top" xlink:title="Internal helper class for invoking event handler functions.">
<polygon fill="none" stroke="black" points="682,-48.9213 682,-69.9213 806,-69.9213 806,-48.9213 682,-48.9213"/>
<text text-anchor="middle" x="744" y="-56.9213" font-family="FreeSans" font-size="10.00">Urho3D::EventHandler</text>
</a>
</g>
<!-- Node2&#45;&gt;Node1 -->
<g id="edge2" class="edge"><title>Node2&#45;&gt;Node1</title>
<path fill="none" stroke="midnightblue" d="M815.983,-70.2071C863.733,-77.586 927.731,-87.9041 984,-98.4213 1002.5,-101.88 1022.77,-106.075 1040.46,-109.871"/>
<polygon fill="midnightblue" stroke="midnightblue" points="816.465,-66.7401 806.049,-68.6781 815.4,-73.6587 816.465,-66.7401"/>
</g>
<!-- Node7 -->
<g id="node13" class="node"><title>Node7</title>
<a xlink:href="a00125.html" target="_top" xlink:title="Urho3D execution context. Provides access to subsystems, object factories and attributes, and event receivers.">
<polygon fill="none" stroke="black" points="1039.5,-363.921 1039.5,-384.921 1136.5,-384.921 1136.5,-363.921 1039.5,-363.921"/>
<text text-anchor="middle" x="1088" y="-371.921" font-family="FreeSans" font-size="10.00">Urho3D::Context</text>
</a>
</g>
<!-- Node2&#45;&gt;Node7 -->
<g id="edge46" class="edge"><title>Node2&#45;&gt;Node7</title>
<path fill="none" stroke="#9a32cd" stroke-dasharray="5,2" d="M813.604,-72.8006C826.12,-76.5907 838.751,-81.3857 850,-87.4213 859.432,-92.4818 859.655,-96.7185 868,-103.421 917.627,-143.282 941.751,-139.811 984,-187.421 1035.53,-245.493 1072.24,-333.384 1083.98,-363.699"/>
<polygon fill="#9a32cd" stroke="#9a32cd" points="814.195,-69.3303 803.619,-69.9719 812.287,-76.0652 814.195,-69.3303"/>
<text text-anchor="middle" x="926" y="-191.421" font-family="FreeSans" font-size="10.00"> eventHandler_</text>
</g>
<!-- Node21 -->
<g id="node52" class="node"><title>Node21</title>
<a xlink:href="a00196.html" target="_top" xlink:title="Urho3D::LinkedList\l\&lt; Urho3D::EventHandler \&gt;">
<polygon fill="none" stroke="black" points="1015,-57.4213 1015,-91.4213 1161,-91.4213 1161,-57.4213 1015,-57.4213"/>
<text text-anchor="start" x="1023" y="-78.4213" font-family="FreeSans" font-size="10.00">Urho3D::LinkedList</text>
<text text-anchor="middle" x="1088" y="-65.4213" font-family="FreeSans" font-size="10.00">&lt; Urho3D::EventHandler &gt;</text>
</a>
</g>
<!-- Node2&#45;&gt;Node21 -->
<g id="edge66" class="edge"><title>Node2&#45;&gt;Node21</title>
<path fill="none" stroke="#9a32cd" stroke-dasharray="5,2" d="M816.249,-55.465C863.954,-53.6781 927.799,-52.8583 984,-57.4213 994.029,-58.2356 1004.55,-59.4847 1014.89,-60.9442"/>
<polygon fill="#9a32cd" stroke="#9a32cd" points="815.871,-51.9772 806.019,-55.8722 816.15,-58.9716 815.871,-51.9772"/>
<text text-anchor="middle" x="926" y="-61.4213" font-family="FreeSans" font-size="10.00"> head_</text>
</g>
<!-- Node3 -->
<g id="node4" class="node"><title>Node3</title>
<a xlink:href="a00197.html" target="_top" xlink:title="Singly&#45;linked list node base class.">
<polygon fill="none" stroke="black" points="412,-27.9213 412,-48.9213 544,-48.9213 544,-27.9213 412,-27.9213"/>
<text text-anchor="middle" x="478" y="-35.9213" font-family="FreeSans" font-size="10.00">Urho3D::LinkedListNode</text>
</a>
</g>
<!-- Node3&#45;&gt;Node2 -->
<g id="edge4" class="edge"><title>Node3&#45;&gt;Node2</title>
<path fill="none" stroke="midnightblue" d="M554.186,-44.436C594.657,-47.6311 643.772,-51.5086 681.901,-54.5188"/>
<polygon fill="midnightblue" stroke="midnightblue" points="554.339,-40.9373 544.095,-43.6393 553.788,-47.9156 554.339,-40.9373"/>
</g>
<!-- Node3&#45;&gt;Node3 -->
<g id="edge6" class="edge"><title>Node3&#45;&gt;Node3</title>
<path fill="none" stroke="#9a32cd" stroke-dasharray="5,2" d="M458.097,-58.8479C459.632,-63.7702 466.267,-67.4213 478,-67.4213 496.773,-67.4213 502.493,-58.0744 495.16,-49.1292"/>
<polygon fill="#9a32cd" stroke="#9a32cd" points="461.492,-59.7039 460.84,-49.1292 454.755,-57.8024 461.492,-59.7039"/>
<text text-anchor="middle" x="478" y="-71.4213" font-family="FreeSans" font-size="10.00"> next_</text>
</g>
<!-- Node4 -->
<g id="node7" class="node"><title>Node4</title>
<a xlink:href="a00235.html" target="_top" xlink:title="Base class for objects with type identification, subsystem access and event sending/receiving capabil...">
<polygon fill="none" stroke="black" points="1290,-180.921 1290,-201.921 1380,-201.921 1380,-180.921 1290,-180.921"/>
<text text-anchor="middle" x="1335" y="-188.921" font-family="FreeSans" font-size="10.00">Urho3D::Object</text>
</a>
</g>
<!-- Node4&#45;&gt;Node2 -->
<g id="edge8" class="edge"><title>Node4&#45;&gt;Node2</title>
<path fill="none" stroke="#9a32cd" stroke-dasharray="5,2" d="M1324.44,-171.609C1302.55,-133.103 1248.04,-49.5634 1174,-22.4213 1030.66,30.1225 843.103,-24.4106 772.513,-48.86"/>
<polygon fill="#9a32cd" stroke="#9a32cd" points="1321.61,-173.726 1329.52,-180.781 1327.73,-170.336 1321.61,-173.726"/>
<text text-anchor="middle" x="1088" y="-39.4213" font-family="FreeSans" font-size="10.00"> sender_</text>
<text text-anchor="middle" x="1088" y="-26.4213" font-family="FreeSans" font-size="10.00">receiver_</text>
</g>
<!-- Node5 -->
<g id="node9" class="node"><title>Node5</title>
<a xlink:href="a00277.html" target="_top" xlink:title="Base class for intrusively reference&#45;counted objects. These are noncopyable and non&#45;assignable.">
<polygon fill="none" stroke="black" points="687,-652.921 687,-673.921 801,-673.921 801,-652.921 687,-652.921"/>
<text text-anchor="middle" x="744" y="-660.921" font-family="FreeSans" font-size="10.00">Urho3D::RefCounted</text>
</a>
</g>
<!-- Node5&#45;&gt;Node4 -->
<g id="edge10" class="edge"><title>Node5&#45;&gt;Node4</title>
<path fill="none" stroke="midnightblue" d="M811.232,-670.254C861.511,-672.384 930.513,-668.799 984,-641.421 1185.97,-538.041 1307.47,-259.531 1330.85,-201.932"/>
<polygon fill="midnightblue" stroke="midnightblue" points="811.284,-666.753 801.119,-669.739 810.927,-673.744 811.284,-666.753"/>
</g>
<!-- Node5&#45;&gt;Node7 -->
<g id="edge16" class="edge"><title>Node5&#45;&gt;Node7</title>
<path fill="none" stroke="midnightblue" d="M811.14,-652.721C877.386,-641.642 970.656,-624.442 984,-613.421 1059.71,-550.893 1081.8,-422.643 1086.77,-385.018"/>
<polygon fill="midnightblue" stroke="midnightblue" points="810.458,-649.286 801.166,-654.377 811.604,-656.192 810.458,-649.286"/>
</g>
<!-- Node6 -->
<g id="node11" class="node"><title>Node6</title>
<a xlink:href="a00276.html" target="_top" xlink:title="Reference count structure.">
<polygon fill="none" stroke="black" points="427,-652.921 427,-673.921 529,-673.921 529,-652.921 427,-652.921"/>
<text text-anchor="middle" x="478" y="-660.921" font-family="FreeSans" font-size="10.00">Urho3D::RefCount</text>
</a>
</g>
<!-- Node6&#45;&gt;Node5 -->
<g id="edge12" class="edge"><title>Node6&#45;&gt;Node5</title>
<path fill="none" stroke="#9a32cd" stroke-dasharray="5,2" d="M539.38,-663.421C583.817,-663.421 643.453,-663.421 686.875,-663.421"/>
<polygon fill="#9a32cd" stroke="#9a32cd" points="539.288,-659.921 529.287,-663.421 539.287,-666.921 539.288,-659.921"/>
<text text-anchor="middle" x="591" y="-667.421" font-family="FreeSans" font-size="10.00"> refCount_</text>
</g>
<!-- Node7&#45;&gt;Node4 -->
<g id="edge14" class="edge"><title>Node7&#45;&gt;Node4</title>
<path fill="none" stroke="#9a32cd" stroke-dasharray="5,2" d="M1110.57,-357.697C1160.55,-320.668 1279.38,-232.629 1320.61,-202.08"/>
<polygon fill="#9a32cd" stroke="#9a32cd" points="1108.3,-355.026 1102.35,-363.791 1112.47,-360.651 1108.3,-355.026"/>
<text text-anchor="middle" x="1232" y="-297.421" font-family="FreeSans" font-size="10.00"> context_</text>
</g>
<!-- Node8 -->
<g id="node16" class="node"><title>Node8</title>
<a xlink:href="a00174.html" target="_top" xlink:title="Urho3D::HashMap\&lt; Urho3D\l::ShortStringHash, Urho3D\l::Vector\&lt; Urho3D::AttributeInfo \&gt; \&gt;">
<polygon fill="none" stroke="black" points="649.5,-416.921 649.5,-463.921 838.5,-463.921 838.5,-416.921 649.5,-416.921"/>
<text text-anchor="start" x="657.5" y="-450.921" font-family="FreeSans" font-size="10.00">Urho3D::HashMap&lt; Urho3D</text>
<text text-anchor="start" x="657.5" y="-437.921" font-family="FreeSans" font-size="10.00">::ShortStringHash, Urho3D</text>
<text text-anchor="middle" x="744" y="-424.921" font-family="FreeSans" font-size="10.00">::Vector&lt; Urho3D::AttributeInfo &gt; &gt;</text>
</a>
</g>
<!-- Node8&#45;&gt;Node7 -->
<g id="edge18" class="edge"><title>Node8&#45;&gt;Node7</title>
<path fill="none" stroke="#9a32cd" stroke-dasharray="5,2" d="M848.954,-420.285C912.347,-408.122 990.145,-393.196 1039.41,-383.744"/>
<polygon fill="#9a32cd" stroke="#9a32cd" points="848.071,-416.89 838.91,-422.212 849.391,-423.765 848.071,-416.89"/>
<text text-anchor="middle" x="926" y="-431.421" font-family="FreeSans" font-size="10.00"> attributes_</text>
<text text-anchor="middle" x="926" y="-418.421" font-family="FreeSans" font-size="10.00">networkAttributes_</text>
</g>
<!-- Node9 -->
<g id="node18" class="node"><title>Node9</title>
<a xlink:href="a00172.html" target="_top" xlink:title="Hash set/map base class.">
<polygon fill="none" stroke="black" points="424,-314.921 424,-335.921 532,-335.921 532,-314.921 424,-314.921"/>
<text text-anchor="middle" x="478" y="-322.921" font-family="FreeSans" font-size="10.00">Urho3D::HashBase</text>
</a>
</g>
<!-- Node9&#45;&gt;Node8 -->
<g id="edge20" class="edge"><title>Node9&#45;&gt;Node8</title>
<path fill="none" stroke="midnightblue" d="M505.212,-341.197C536.517,-358.91 589.815,-387.744 638,-407.421 646.119,-410.737 654.7,-413.916 663.323,-416.903"/>
<polygon fill="midnightblue" stroke="midnightblue" points="506.653,-337.99 496.232,-336.079 503.187,-344.072 506.653,-337.99"/>
</g>
<!-- Node15 -->
<g id="node33" class="node"><title>Node15</title>
<a xlink:href="a00174.html" target="_top" xlink:title="Urho3D::HashMap\&lt; Urho3D\l::ShortStringHash, Urho3D\l::SharedPtr\&lt; Urho3D::Object \&gt; \&gt;">
<polygon fill="none" stroke="black" points="655,-350.921 655,-397.921 833,-397.921 833,-350.921 655,-350.921"/>
<text text-anchor="start" x="663" y="-384.921" font-family="FreeSans" font-size="10.00">Urho3D::HashMap&lt; Urho3D</text>
<text text-anchor="start" x="663" y="-371.921" font-family="FreeSans" font-size="10.00">::ShortStringHash, Urho3D</text>
<text text-anchor="middle" x="744" y="-358.921" font-family="FreeSans" font-size="10.00">::SharedPtr&lt; Urho3D::Object &gt; &gt;</text>
</a>
</g>
<!-- Node9&#45;&gt;Node15 -->
<g id="edge40" class="edge"><title>Node9&#45;&gt;Node15</title>
<path fill="none" stroke="midnightblue" d="M542.352,-337.276C576.112,-343.495 618.004,-351.211 654.842,-357.997"/>
<polygon fill="midnightblue" stroke="midnightblue" points="542.618,-333.766 532.15,-335.396 541.35,-340.65 542.618,-333.766"/>
</g>
<!-- Node16 -->
<g id="node36" class="node"><title>Node16</title>
<a xlink:href="a00174.html" target="_top" xlink:title="Urho3D::HashMap\&lt; Urho3D\l::String, Urho3D::Vector\l\&lt; Urho3D::ShortStringHash \&gt; \&gt;">
<polygon fill="none" stroke="black" points="657.5,-284.921 657.5,-331.921 830.5,-331.921 830.5,-284.921 657.5,-284.921"/>
<text text-anchor="start" x="665.5" y="-318.921" font-family="FreeSans" font-size="10.00">Urho3D::HashMap&lt; Urho3D</text>
<text text-anchor="start" x="665.5" y="-305.921" font-family="FreeSans" font-size="10.00">::String, Urho3D::Vector</text>
<text text-anchor="middle" x="744" y="-292.921" font-family="FreeSans" font-size="10.00">&lt; Urho3D::ShortStringHash &gt; &gt;</text>
</a>
</g>
<!-- Node9&#45;&gt;Node16 -->
<g id="edge44" class="edge"><title>Node9&#45;&gt;Node16</title>
<path fill="none" stroke="midnightblue" d="M542.132,-321.323C576.732,-319.111 619.921,-316.351 657.462,-313.952"/>
<polygon fill="midnightblue" stroke="midnightblue" points="541.906,-317.83 532.15,-321.961 542.353,-324.816 541.906,-317.83"/>
</g>
<!-- Node17 -->
<g id="node40" class="node"><title>Node17</title>
<a xlink:href="a00174.html" target="_top" xlink:title="Urho3D::HashMap\&lt; Urho3D\l::StringHash, Urho3D::\lHashSet\&lt; Urho3D::Object * \&gt; \&gt;">
<polygon fill="none" stroke="black" points="657.5,-218.921 657.5,-265.921 830.5,-265.921 830.5,-218.921 657.5,-218.921"/>
<text text-anchor="start" x="665.5" y="-252.921" font-family="FreeSans" font-size="10.00">Urho3D::HashMap&lt; Urho3D</text>
<text text-anchor="start" x="665.5" y="-239.921" font-family="FreeSans" font-size="10.00">::StringHash, Urho3D::</text>
<text text-anchor="middle" x="744" y="-226.921" font-family="FreeSans" font-size="10.00">HashSet&lt; Urho3D::Object * &gt; &gt;</text>
</a>
</g>
<!-- Node9&#45;&gt;Node17 -->
<g id="edge50" class="edge"><title>Node9&#45;&gt;Node17</title>
<path fill="none" stroke="midnightblue" d="M521.266,-311.887C553.457,-301.82 598.471,-287.751 638,-275.421 647.844,-272.351 658.203,-269.123 668.432,-265.936"/>
<polygon fill="midnightblue" stroke="midnightblue" points="520.208,-308.551 511.708,-314.876 522.297,-315.232 520.208,-308.551"/>
</g>
<!-- Node18 -->
<g id="node43" class="node"><title>Node18</title>
<a xlink:href="a00174.html" target="_top" xlink:title="Urho3D::HashMap\&lt; Urho3D\l::Object *, Urho3D::HashMap\l\&lt; Urho3D::StringHash, Urho3D\l::HashSet\&lt; Urho3D::Object * \&gt; \&gt; \&gt;">
<polygon fill="none" stroke="black" points="648.5,-140.421 648.5,-200.421 839.5,-200.421 839.5,-140.421 648.5,-140.421"/>
<text text-anchor="start" x="656.5" y="-187.421" font-family="FreeSans" font-size="10.00">Urho3D::HashMap&lt; Urho3D</text>
<text text-anchor="start" x="656.5" y="-174.421" font-family="FreeSans" font-size="10.00">::Object *, Urho3D::HashMap</text>
<text text-anchor="start" x="656.5" y="-161.421" font-family="FreeSans" font-size="10.00">&lt; Urho3D::StringHash, Urho3D</text>
<text text-anchor="middle" x="744" y="-148.421" font-family="FreeSans" font-size="10.00">::HashSet&lt; Urho3D::Object * &gt; &gt; &gt;</text>
</a>
</g>
<!-- Node9&#45;&gt;Node18 -->
<g id="edge54" class="edge"><title>Node9&#45;&gt;Node18</title>
<path fill="none" stroke="midnightblue" d="M497.863,-308.218C526.986,-283.671 583.718,-238.37 638,-209.421 643.883,-206.284 650.073,-203.292 656.384,-200.462"/>
<polygon fill="midnightblue" stroke="midnightblue" points="495.423,-305.699 490.075,-314.845 499.959,-311.03 495.423,-305.699"/>
</g>
<!-- Node19 -->
<g id="node46" class="node"><title>Node19</title>
<a xlink:href="a00174.html" target="_top" xlink:title="Urho3D::HashMap\&lt; Urho3D\l::ShortStringHash, Urho3D\l::SharedPtr\&lt; Urho3D::ObjectFactory \&gt; \&gt;">
<polygon fill="none" stroke="black" points="638,-482.921 638,-529.921 850,-529.921 850,-482.921 638,-482.921"/>
<text text-anchor="start" x="646" y="-516.921" font-family="FreeSans" font-size="10.00">Urho3D::HashMap&lt; Urho3D</text>
<text text-anchor="start" x="646" y="-503.921" font-family="FreeSans" font-size="10.00">::ShortStringHash, Urho3D</text>
<text text-anchor="middle" x="744" y="-490.921" font-family="FreeSans" font-size="10.00">::SharedPtr&lt; Urho3D::ObjectFactory &gt; &gt;</text>
</a>
</g>
<!-- Node9&#45;&gt;Node19 -->
<g id="edge58" class="edge"><title>Node9&#45;&gt;Node19</title>
<path fill="none" stroke="midnightblue" d="M493.092,-343.972C519.369,-375.105 576.614,-437.936 638,-473.421 644.007,-476.894 650.421,-480.042 657.008,-482.889"/>
<polygon fill="midnightblue" stroke="midnightblue" points="495.611,-341.527 486.524,-336.08 490.231,-346.005 495.611,-341.527"/>
</g>
<!-- Node10 -->
<g id="node20" class="node"><title>Node10</title>
<a xlink:href="a00175.html" target="_top" xlink:title="Hash set/map node base class.">
<polygon fill="none" stroke="black" points="192,-341.921 192,-362.921 326,-362.921 326,-341.921 192,-341.921"/>
<text text-anchor="middle" x="259" y="-349.921" font-family="FreeSans" font-size="10.00">Urho3D::HashNodeBase</text>
</a>
</g>
<!-- Node10&#45;&gt;Node9 -->
<g id="edge22" class="edge"><title>Node10&#45;&gt;Node9</title>
<path fill="none" stroke="#9a32cd" stroke-dasharray="5,2" d="M336.269,-342.895C365.177,-339.331 397.375,-335.361 423.768,-332.107"/>
<polygon fill="#9a32cd" stroke="#9a32cd" points="335.692,-339.44 326.196,-344.137 336.549,-346.387 335.692,-339.44"/>
<text text-anchor="middle" x="369" y="-370.421" font-family="FreeSans" font-size="10.00"> ptrs_</text>
<text text-anchor="middle" x="369" y="-357.421" font-family="FreeSans" font-size="10.00">tail_</text>
<text text-anchor="middle" x="369" y="-344.421" font-family="FreeSans" font-size="10.00">head_</text>
</g>
<!-- Node10&#45;&gt;Node10 -->
<g id="edge24" class="edge"><title>Node10&#45;&gt;Node10</title>
<path fill="none" stroke="#9a32cd" stroke-dasharray="5,2" d="M240.94,-372.848C242.333,-377.77 248.353,-381.421 259,-381.421 276.035,-381.421 281.226,-372.074 274.571,-363.129"/>
<polygon fill="#9a32cd" stroke="#9a32cd" points="244.338,-373.685 243.429,-363.129 237.557,-371.948 244.338,-373.685"/>
<text text-anchor="middle" x="259" y="-411.421" font-family="FreeSans" font-size="10.00"> next_</text>
<text text-anchor="middle" x="259" y="-398.421" font-family="FreeSans" font-size="10.00">prev_</text>
<text text-anchor="middle" x="259" y="-385.421" font-family="FreeSans" font-size="10.00">down_</text>
</g>
<!-- Node11 -->
<g id="node23" class="node"><title>Node11</title>
<a xlink:href="a00049.html" target="_top" xlink:title="Allocator memory block.">
<polygon fill="none" stroke="black" points="195.5,-270.921 195.5,-291.921 322.5,-291.921 322.5,-270.921 195.5,-270.921"/>
<text text-anchor="middle" x="259" y="-278.921" font-family="FreeSans" font-size="10.00">Urho3D::AllocatorBlock</text>
</a>
</g>
<!-- Node11&#45;&gt;Node9 -->
<g id="edge26" class="edge"><title>Node11&#45;&gt;Node9</title>
<path fill="none" stroke="#9a32cd" stroke-dasharray="5,2" d="M321.432,-293.965C354.357,-300.58 394.295,-308.604 425.593,-314.892"/>
<polygon fill="#9a32cd" stroke="#9a32cd" points="321.949,-290.499 311.456,-291.96 320.571,-297.362 321.949,-290.499"/>
<text text-anchor="middle" x="369" y="-310.421" font-family="FreeSans" font-size="10.00"> allocator_</text>
</g>
<!-- Node11&#45;&gt;Node11 -->
<g id="edge28" class="edge"><title>Node11&#45;&gt;Node11</title>
<path fill="none" stroke="#9a32cd" stroke-dasharray="5,2" d="M240.94,-301.848C242.333,-306.77 248.353,-310.421 259,-310.421 276.035,-310.421 281.226,-301.074 274.571,-292.129"/>
<polygon fill="#9a32cd" stroke="#9a32cd" points="244.338,-302.685 243.429,-292.129 237.557,-300.948 244.338,-302.685"/>
<text text-anchor="middle" x="259" y="-314.421" font-family="FreeSans" font-size="10.00"> next_</text>
</g>
<!-- Node12 -->
<g id="node26" class="node"><title>Node12</title>
<a xlink:href="a00050.html" target="_top" xlink:title="Allocator node.">
<polygon fill="none" stroke="black" points="0.5,-270.921 0.5,-291.921 127.5,-291.921 127.5,-270.921 0.5,-270.921"/>
<text text-anchor="middle" x="64" y="-278.921" font-family="FreeSans" font-size="10.00">Urho3D::AllocatorNode</text>
</a>
</g>
<!-- Node12&#45;&gt;Node11 -->
<g id="edge30" class="edge"><title>Node12&#45;&gt;Node11</title>
<path fill="none" stroke="#9a32cd" stroke-dasharray="5,2" d="M137.645,-281.421C156.576,-281.421 176.785,-281.421 195.172,-281.421"/>
<polygon fill="#9a32cd" stroke="#9a32cd" points="137.581,-277.921 127.58,-281.421 137.58,-284.921 137.581,-277.921"/>
<text text-anchor="middle" x="160" y="-285.421" font-family="FreeSans" font-size="10.00"> free_</text>
</g>
<!-- Node12&#45;&gt;Node12 -->
<g id="edge32" class="edge"><title>Node12&#45;&gt;Node12</title>
<path fill="none" stroke="#9a32cd" stroke-dasharray="5,2" d="M46.3082,-301.848C47.6731,-306.77 53.5703,-310.421 64,-310.421 80.6875,-310.421 85.772,-301.074 79.2534,-292.129"/>
<polygon fill="#9a32cd" stroke="#9a32cd" points="49.7078,-302.68 48.7466,-292.129 42.9182,-300.977 49.7078,-302.68"/>
<text text-anchor="middle" x="64" y="-314.421" font-family="FreeSans" font-size="10.00"> next_</text>
</g>
<!-- Node13 -->
<g id="node29" class="node"><title>Node13</title>
<a xlink:href="a00263.html" target="_top" xlink:title="Urho3D::PODVector\&lt;\l Urho3D::Object * \&gt;">
<polygon fill="none" stroke="black" points="684.5,-600.421 684.5,-634.421 803.5,-634.421 803.5,-600.421 684.5,-600.421"/>
<text text-anchor="start" x="692.5" y="-621.421" font-family="FreeSans" font-size="10.00">Urho3D::PODVector&lt;</text>
<text text-anchor="middle" x="744" y="-608.421" font-family="FreeSans" font-size="10.00"> Urho3D::Object * &gt;</text>
</a>
</g>
<!-- Node13&#45;&gt;Node7 -->
<g id="edge34" class="edge"><title>Node13&#45;&gt;Node7</title>
<path fill="none" stroke="#9a32cd" stroke-dasharray="5,2" d="M813.543,-607.907C874.509,-598.429 957.434,-582.424 984,-562.421 1047.17,-514.856 1077.04,-417.142 1085.44,-384.958"/>
<polygon fill="#9a32cd" stroke="#9a32cd" points="812.936,-604.459 803.579,-609.428 813.993,-611.378 812.936,-604.459"/>
<text text-anchor="middle" x="926" y="-600.421" font-family="FreeSans" font-size="10.00"> eventSenders_</text>
</g>
<!-- Node14 -->
<g id="node31" class="node"><title>Node14</title>
<a xlink:href="a00366.html" target="_top" xlink:title="Vector base class.">
<polygon fill="none" stroke="black" points="421,-577.921 421,-598.921 535,-598.921 535,-577.921 421,-577.921"/>
<text text-anchor="middle" x="478" y="-585.921" font-family="FreeSans" font-size="10.00">Urho3D::VectorBase</text>
</a>
</g>
<!-- Node14&#45;&gt;Node13 -->
<g id="edge36" class="edge"><title>Node14&#45;&gt;Node13</title>
<path fill="none" stroke="midnightblue" d="M545.114,-595.738C587.938,-600.407 642.953,-606.405 684.263,-610.909"/>
<polygon fill="midnightblue" stroke="midnightblue" points="545.384,-592.247 535.064,-594.643 544.625,-599.206 545.384,-592.247"/>
</g>
<!-- Node20 -->
<g id="node49" class="node"><title>Node20</title>
<a xlink:href="a00263.html" target="_top" xlink:title="Urho3D::PODVector\&lt;\l Urho3D::HashMap * \&gt;">
<polygon fill="none" stroke="black" points="680.5,-548.421 680.5,-582.421 807.5,-582.421 807.5,-548.421 680.5,-548.421"/>
<text text-anchor="start" x="688.5" y="-569.421" font-family="FreeSans" font-size="10.00">Urho3D::PODVector&lt;</text>
<text text-anchor="middle" x="744" y="-556.421" font-family="FreeSans" font-size="10.00"> Urho3D::HashMap * &gt;</text>
</a>
</g>
<!-- Node14&#45;&gt;Node20 -->
<g id="edge62" class="edge"><title>Node14&#45;&gt;Node20</title>
<path fill="none" stroke="midnightblue" d="M545.055,-582.623C586.442,-579.045 639.234,-574.48 680.034,-570.952"/>
<polygon fill="midnightblue" stroke="midnightblue" points="544.725,-579.139 535.064,-583.487 545.328,-586.113 544.725,-579.139"/>
</g>
<!-- Node15&#45;&gt;Node7 -->
<g id="edge38" class="edge"><title>Node15&#45;&gt;Node7</title>
<path fill="none" stroke="#9a32cd" stroke-dasharray="5,2" d="M843.201,-374.421C907.473,-374.421 988.375,-374.421 1039.16,-374.421"/>
<polygon fill="#9a32cd" stroke="#9a32cd" points="843.036,-370.921 833.036,-374.421 843.036,-377.921 843.036,-370.921"/>
<text text-anchor="middle" x="926" y="-378.421" font-family="FreeSans" font-size="10.00"> subsystems_</text>
</g>
<!-- Node16&#45;&gt;Node7 -->
<g id="edge42" class="edge"><title>Node16&#45;&gt;Node7</title>
<path fill="none" stroke="#9a32cd" stroke-dasharray="5,2" d="M840.639,-326.963C905.449,-339.397 988.052,-355.245 1039.49,-365.114"/>
<polygon fill="#9a32cd" stroke="#9a32cd" points="841.286,-323.523 830.806,-325.076 839.967,-330.398 841.286,-323.523"/>
<text text-anchor="middle" x="926" y="-356.421" font-family="FreeSans" font-size="10.00"> objectCategories_</text>
</g>
<!-- Node17&#45;&gt;Node7 -->
<g id="edge48" class="edge"><title>Node17&#45;&gt;Node7</title>
<path fill="none" stroke="#9a32cd" stroke-dasharray="5,2" d="M840.19,-267.085C884.725,-279.763 937.869,-296.705 984,-316.421 1016.32,-330.234 1051.57,-351.278 1071.62,-363.859"/>
<polygon fill="#9a32cd" stroke="#9a32cd" points="841.106,-263.707 830.532,-264.363 839.208,-270.444 841.106,-263.707"/>
<text text-anchor="middle" x="926" y="-320.421" font-family="FreeSans" font-size="10.00"> eventReceivers_</text>
</g>
<!-- Node18&#45;&gt;Node7 -->
<g id="edge52" class="edge"><title>Node18&#45;&gt;Node7</title>
<path fill="none" stroke="#9a32cd" stroke-dasharray="5,2" d="M849.203,-197.302C893.192,-211.527 943.408,-231.867 984,-259.421 1027.88,-289.205 1065.81,-341.25 1080.97,-363.658"/>
<polygon fill="#9a32cd" stroke="#9a32cd" points="850.216,-193.952 839.626,-194.269 848.103,-200.625 850.216,-193.952"/>
<text text-anchor="middle" x="926" y="-263.421" font-family="FreeSans" font-size="10.00"> specificEventReceivers_</text>
</g>
<!-- Node19&#45;&gt;Node7 -->
<g id="edge56" class="edge"><title>Node19&#45;&gt;Node7</title>
<path fill="none" stroke="#9a32cd" stroke-dasharray="5,2" d="M860.143,-484.807C900.376,-475.148 945.113,-461.91 984,-444.421 1019.73,-428.353 1056.63,-400.274 1075.39,-385.018"/>
<polygon fill="#9a32cd" stroke="#9a32cd" points="859.222,-481.428 850.288,-487.123 860.824,-488.242 859.222,-481.428"/>
<text text-anchor="middle" x="926" y="-486.421" font-family="FreeSans" font-size="10.00"> factories_</text>
</g>
<!-- Node20&#45;&gt;Node7 -->
<g id="edge60" class="edge"><title>Node20&#45;&gt;Node7</title>
<path fill="none" stroke="#9a32cd" stroke-dasharray="5,2" d="M817.742,-557.305C867.938,-548.998 934.065,-532.385 984,-499.421 1031.36,-468.16 1068.46,-408.93 1082.22,-384.923"/>
<polygon fill="#9a32cd" stroke="#9a32cd" points="816.937,-553.888 807.605,-558.906 818.029,-560.803 816.937,-553.888"/>
<text text-anchor="middle" x="926" y="-549.421" font-family="FreeSans" font-size="10.00"> eventDataMaps_</text>
</g>
<!-- Node21&#45;&gt;Node4 -->
<g id="edge64" class="edge"><title>Node21&#45;&gt;Node4</title>
<path fill="none" stroke="#9a32cd" stroke-dasharray="5,2" d="M1160.28,-94.9857C1164.96,-96.7134 1169.57,-98.5281 1174,-100.421 1229.8,-124.277 1290.96,-162.509 1319.15,-180.886"/>
<polygon fill="#9a32cd" stroke="#9a32cd" points="1161.18,-91.5946 1150.59,-91.5645 1158.85,-98.195 1161.18,-91.5946"/>
<text text-anchor="middle" x="1232" y="-154.421" font-family="FreeSans" font-size="10.00"> eventHandlers_</text>
</g>
<!-- Node22 -->
<g id="node55" class="node"><title>Node22</title>
<a xlink:href="a00337.html" target="_top" xlink:title="32&#45;bit hash value for a string.">
<polygon fill="none" stroke="black" points="421.5,-98.9213 421.5,-119.921 534.5,-119.921 534.5,-98.9213 421.5,-98.9213"/>
<text text-anchor="middle" x="478" y="-106.921" font-family="FreeSans" font-size="10.00">Urho3D::StringHash</text>
</a>
</g>
<!-- Node22&#45;&gt;Node1 -->
<g id="edge72" class="edge"><title>Node22&#45;&gt;Node1</title>
<path fill="none" stroke="#9a32cd" stroke-dasharray="5,2" d="M544.644,-110.623C655.813,-112.628 878.994,-116.652 1001.91,-118.869"/>
<polygon fill="#9a32cd" stroke="#9a32cd" points="544.628,-107.122 534.566,-110.441 544.502,-114.121 544.628,-107.122"/>
<text text-anchor="middle" x="744" y="-120.421" font-family="FreeSans" font-size="10.00"> function_</text>
</g>
<!-- Node22&#45;&gt;Node2 -->
<g id="edge68" class="edge"><title>Node22&#45;&gt;Node2</title>
<path fill="none" stroke="#9a32cd" stroke-dasharray="5,2" d="M524.147,-95.9305C530.834,-93.8327 537.613,-91.6273 544,-89.4213 552.113,-86.619 553.68,-84.5308 562,-82.4213 601.207,-72.4811 646.305,-66.7429 681.8,-63.4839"/>
<polygon fill="#9a32cd" stroke="#9a32cd" points="522.996,-92.6228 514.472,-98.9146 525.059,-99.3119 522.996,-92.6228"/>
<text text-anchor="middle" x="591" y="-86.4213" font-family="FreeSans" font-size="10.00"> eventType_</text>
</g>
<!-- Node22&#45;&gt;Node22 -->
<g id="edge70" class="edge"><title>Node22&#45;&gt;Node22</title>
<path fill="none" stroke="#9a32cd" stroke-dasharray="5,2" d="M458.097,-129.848C459.632,-134.77 466.267,-138.421 478,-138.421 496.773,-138.421 502.493,-129.074 495.16,-120.129"/>
<polygon fill="#9a32cd" stroke="#9a32cd" points="461.492,-130.704 460.84,-120.129 454.755,-128.802 461.492,-130.704"/>
<text text-anchor="middle" x="478" y="-142.421" font-family="FreeSans" font-size="10.00"> ZERO</text>
</g>
</g>
</svg>
