<?xml version="1.0" encoding="UTF-8" standalone="no"?>
<!DOCTYPE svg PUBLIC "-//W3C//DTD SVG 1.1//EN"
 "http://www.w3.org/Graphics/SVG/1.1/DTD/svg11.dtd">
<!-- Generated by graphviz version 2.26.3 (20100126.1600)
 -->
<!-- Title: Urho3D::AnimationController Pages: 1 -->
<!--zoomable 870 -->
<svg id="main" version="1.1" xmlns="http://www.w3.org/2000/svg" xmlns:xlink="http://www.w3.org/1999/xlink" xml:space="preserve" onload="init(evt)">
        <defs>
                <circle id="rim" cx="0" cy="0" r="7"/>
                <circle id="rim2" cx="0" cy="0" r="3.5"/>
                <g id="zoomPlus">
                        <use xlink:href="#rim" fill="#404040">
                                <set attributeName="fill" to="#808080" begin="zoomplus.mouseover" end="zoomplus.mouseout"/>
                        </use>
                        <path d="M-4,0h8M0,-4v8" fill="none" stroke="white" stroke-width="1.5" pointer-events="none"/>
                </g>
                <g id="zoomMin">
                        <use xlink:href="#rim" fill="#404040">
                                <set attributeName="fill" to="#808080" begin="zoomminus.mouseover" end="zoomminus.mouseout"/>
                        </use>
                        <path d="M-4,0h8" fill="none" stroke="white" stroke-width="1.5" pointer-events="none"/>
                </g>
                <g id="dirArrow">
                        <path fill="none" stroke="white" stroke-width="1.5" d="M0,-3.0v7 M-2.5,-0.5L0,-3.0L2.5,-0.5"/>
                </g>
               <g id="resetDef">
                       <use xlink:href="#rim2" fill="#404040">
                               <set attributeName="fill" to="#808080" begin="reset.mouseover" end="reset.mouseout"/>
                       </use>
               </g>
        </defs>

<script type="text/javascript">
var viewWidth = 1840;
var viewHeight = 870;
var sectionId = 'dynsection-1';
</script>
<script xlink:href="svgpan.js"/>
<svg id="graph" class="graph">
<g id="viewport">
<title>Urho3D::AnimationController</title>
<!-- Node1 -->
<g id="node1" class="node"><title>Node1</title>
<polygon fill="#bfbfbf" stroke="black" points="1676.5,-69.5 1676.5,-90.5 1831.5,-90.5 1831.5,-69.5 1676.5,-69.5"/>
<text text-anchor="middle" x="1754" y="-77.5" font-family="FreeSans" font-size="10.00">Urho3D::AnimationController</text>
</g>
<!-- Node2 -->
<g id="node2" class="node"><title>Node2</title>
<a xlink:href="a00085.html" target="_top" xlink:title="Base class for components. Components can be created to scene nodes.">
<polygon fill="none" stroke="black" points="1522,-480.5 1522,-501.5 1638,-501.5 1638,-480.5 1522,-480.5"/>
<text text-anchor="middle" x="1580" y="-488.5" font-family="FreeSans" font-size="10.00">Urho3D::Component</text>
</a>
</g>
<!-- Node2&#45;&gt;Node1 -->
<g id="edge2" class="edge"><title>Node2&#45;&gt;Node1</title>
<path fill="none" stroke="midnightblue" d="M1610.11,-475.092C1620.19,-468.495 1630.7,-460.021 1638,-450 1726.4,-328.665 1748.81,-137.961 1753.12,-90.811"/>
<polygon fill="midnightblue" stroke="midnightblue" points="1608.15,-472.185 1601.46,-480.397 1611.81,-478.152 1608.15,-472.185"/>
</g>
<!-- Node3 -->
<g id="node4" class="node"><title>Node3</title>
<a xlink:href="a00259.html" target="_top" xlink:title="Base class for objects with automatic serialization through attributes.">
<polygon fill="none" stroke="black" points="938,-503.5 938,-524.5 1052,-524.5 1052,-503.5 938,-503.5"/>
<text text-anchor="middle" x="995" y="-511.5" font-family="FreeSans" font-size="10.00">Urho3D::Serializable</text>
</a>
</g>
<!-- Node3&#45;&gt;Node2 -->
<g id="edge4" class="edge"><title>Node3&#45;&gt;Node2</title>
<path fill="none" stroke="midnightblue" d="M1062.4,-520.574C1133.5,-526.507 1248.76,-533.276 1348,-526 1417.9,-520.875 1434.72,-513.576 1504,-503 1509.81,-502.113 1515.87,-501.176 1521.92,-500.234"/>
<polygon fill="midnightblue" stroke="midnightblue" points="1062.5,-517.07 1052.24,-519.707 1061.91,-524.045 1062.5,-517.07"/>
</g>
<!-- Node8 -->
<g id="node14" class="node"><title>Node8</title>
<a xlink:href="a00194.html" target="_top" xlink:title="Scene node that may contain components and child nodes.">
<polygon fill="none" stroke="red" points="1262.5,-464.5 1262.5,-485.5 1347.5,-485.5 1347.5,-464.5 1262.5,-464.5"/>
<text text-anchor="middle" x="1305" y="-472.5" font-family="FreeSans" font-size="10.00">Urho3D::Node</text>
</a>
</g>
<!-- Node3&#45;&gt;Node8 -->
<g id="edge16" class="edge"><title>Node3&#45;&gt;Node8</title>
<path fill="none" stroke="midnightblue" d="M1062.23,-509.548C1112.51,-505.662 1182.83,-499.049 1244,-489 1250,-488.014 1256.3,-486.789 1262.47,-485.477"/>
<polygon fill="midnightblue" stroke="midnightblue" points="1061.84,-506.067 1052.13,-510.312 1062.37,-513.047 1061.84,-506.067"/>
</g>
<!-- Node4 -->
<g id="node6" class="node"><title>Node4</title>
<a xlink:href="a00200.html" target="_top" xlink:title="Base class for objects with type identification, subsystem access and event sending/receiving capabil...">
<polygon fill="none" stroke="red" points="590,-443.5 590,-464.5 680,-464.5 680,-443.5 590,-443.5"/>
<text text-anchor="middle" x="635" y="-451.5" font-family="FreeSans" font-size="10.00">Urho3D::Object</text>
</a>
</g>
<!-- Node4&#45;&gt;Node3 -->
<g id="edge6" class="edge"><title>Node4&#45;&gt;Node3</title>
<path fill="none" stroke="midnightblue" d="M666.799,-468.704C683.97,-476.006 705.747,-484.26 726,-489 797.813,-505.809 882.9,-511.401 937.857,-513.213"/>
<polygon fill="midnightblue" stroke="midnightblue" points="667.832,-465.336 657.267,-464.548 665.035,-471.753 667.832,-465.336"/>
</g>
<!-- Node23 -->
<g id="node57" class="node"><title>Node23</title>
<a xlink:href="a00089.html" target="_top" xlink:title="Connection to a remote network host.">
<polygon fill="none" stroke="red" points="938.5,-338.5 938.5,-359.5 1051.5,-359.5 1051.5,-338.5 938.5,-338.5"/>
<text text-anchor="middle" x="995" y="-346.5" font-family="FreeSans" font-size="10.00">Urho3D::Connection</text>
</a>
</g>
<!-- Node4&#45;&gt;Node23 -->
<g id="edge72" class="edge"><title>Node4&#45;&gt;Node23</title>
<path fill="none" stroke="midnightblue" d="M683.788,-440.783C691.883,-438.547 700.184,-436.228 708,-434 799.205,-408.003 906.229,-375.874 960.166,-359.568"/>
<polygon fill="midnightblue" stroke="midnightblue" points="682.777,-437.431 674.063,-443.457 684.633,-444.18 682.777,-437.431"/>
</g>
<!-- Node5 -->
<g id="node8" class="node"><title>Node5</title>
<a xlink:href="a00141.html" target="_top" xlink:title="Hash map template class.">
<polygon fill="none" stroke="red" points="562,-561.5 562,-582.5 708,-582.5 708,-561.5 562,-561.5"/>
<text text-anchor="middle" x="635" y="-569.5" font-family="FreeSans" font-size="10.00">Urho3D::HashMap&lt; T, U &gt;</text>
</a>
</g>
<!-- Node5&#45;&gt;Node3 -->
<g id="edge8" class="edge"><title>Node5&#45;&gt;Node3</title>
<path fill="none" stroke="#9a32cd" stroke-dasharray="5,2" d="M718.37,-566.424C788.495,-561.251 883.055,-553.01 920,-544 938.529,-539.481 958.538,-531.297 973.225,-524.617"/>
<polygon fill="#9a32cd" stroke="#9a32cd" points="717.93,-562.946 708.211,-567.164 718.439,-569.928 717.93,-562.946"/>
<text text-anchor="middle" x="823" y="-569" font-family="FreeSans" font-size="10.00"> instanceDefaultValues_</text>
</g>
<!-- Node6 -->
<g id="node10" class="node"><title>Node6</title>
<a xlink:href="a00193.html" target="_top" xlink:title="Per&#45;object attribute state for network replication, allocated on demand.">
<polygon fill="none" stroke="red" points="572.5,-521.5 572.5,-542.5 697.5,-542.5 697.5,-521.5 572.5,-521.5"/>
<text text-anchor="middle" x="635" y="-529.5" font-family="FreeSans" font-size="10.00">Urho3D::NetworkState</text>
</a>
</g>
<!-- Node6&#45;&gt;Node3 -->
<g id="edge10" class="edge"><title>Node6&#45;&gt;Node3</title>
<path fill="none" stroke="#9a32cd" stroke-dasharray="5,2" d="M707.893,-528.355C775.733,-524.963 875.473,-519.976 937.758,-516.862"/>
<polygon fill="#9a32cd" stroke="#9a32cd" points="707.52,-524.87 697.707,-528.865 707.87,-531.861 707.52,-524.87"/>
<text text-anchor="middle" x="823" y="-531" font-family="FreeSans" font-size="10.00"> networkState_</text>
</g>
<!-- Node7 -->
<g id="node12" class="node"><title>Node7</title>
<a xlink:href="a00141.html" target="_top" xlink:title="Urho3D::HashMap\&lt; ShortString\lHash, Variant \&gt;">
<polygon fill="none" stroke="red" points="152,-476 152,-510 322,-510 322,-476 152,-476"/>
<text text-anchor="start" x="160" y="-497" font-family="FreeSans" font-size="10.00">Urho3D::HashMap&lt; ShortString</text>
<text text-anchor="middle" x="237" y="-484" font-family="FreeSans" font-size="10.00">Hash, Variant &gt;</text>
</a>
</g>
<!-- Node7&#45;&gt;Node6 -->
<g id="edge12" class="edge"><title>Node7&#45;&gt;Node6</title>
<path fill="none" stroke="#9a32cd" stroke-dasharray="5,2" d="M332.257,-506.123C334.865,-506.426 337.449,-506.719 340,-507 420.082,-515.83 512.696,-523.22 572.47,-527.622"/>
<polygon fill="#9a32cd" stroke="#9a32cd" points="332.455,-502.622 322.111,-504.911 331.625,-509.572 332.455,-502.622"/>
<text text-anchor="middle" x="442" y="-529" font-family="FreeSans" font-size="10.00"> previousVars_</text>
</g>
<!-- Node7&#45;&gt;Node8 -->
<g id="edge68" class="edge"><title>Node7&#45;&gt;Node8</title>
<path fill="none" stroke="#9a32cd" stroke-dasharray="5,2" d="M332.199,-491.396C555.34,-487.635 1105.12,-478.369 1262.36,-475.719"/>
<polygon fill="#9a32cd" stroke="#9a32cd" points="332.084,-487.897 322.145,-491.565 332.202,-494.896 332.084,-487.897"/>
<text text-anchor="middle" x="823" y="-488" font-family="FreeSans" font-size="10.00"> vars_</text>
</g>
<!-- Node7&#45;&gt;Node23 -->
<g id="edge80" class="edge"><title>Node7&#45;&gt;Node23</title>
<path fill="none" stroke="#9a32cd" stroke-dasharray="5,2" d="M259.783,-468.428C309,-417.384 431.401,-301.124 562,-259 623.756,-239.081 653.342,-224.028 708,-259 724.081,-269.289 710.698,-286.586 726,-298 795.83,-350.085 834.993,-306.95 920,-326 934.752,-329.306 950.811,-334.069 964.271,-338.404"/>
<polygon fill="#9a32cd" stroke="#9a32cd" points="257.163,-466.104 252.791,-475.755 262.227,-470.937 257.163,-466.104"/>
<text text-anchor="middle" x="635" y="-263" font-family="FreeSans" font-size="10.00"> identity_</text>
</g>
<!-- Node8&#45;&gt;Node2 -->
<g id="edge14" class="edge"><title>Node8&#45;&gt;Node2</title>
<path fill="none" stroke="#9a32cd" stroke-dasharray="5,2" d="M1357.94,-478.08C1404.91,-480.813 1473.41,-484.798 1521.88,-487.619"/>
<polygon fill="#9a32cd" stroke="#9a32cd" points="1357.85,-474.569 1347.67,-477.482 1357.45,-481.557 1357.85,-474.569"/>
<text text-anchor="middle" x="1435" y="-490" font-family="FreeSans" font-size="10.00"> node_</text>
</g>
<!-- Node8&#45;&gt;Node8 -->
<g id="edge58" class="edge"><title>Node8&#45;&gt;Node8</title>
<path fill="none" stroke="#9a32cd" stroke-dasharray="5,2" d="M1281.04,-495.427C1282.89,-500.349 1290.88,-504 1305,-504 1327.6,-504 1334.48,-494.653 1325.66,-485.708"/>
<polygon fill="#9a32cd" stroke="#9a32cd" points="1284.44,-496.302 1284.34,-485.708 1277.81,-494.05 1284.44,-496.302"/>
<text text-anchor="middle" x="1305" y="-508" font-family="FreeSans" font-size="10.00"> parent_</text>
</g>
<!-- Node11 -->
<g id="node21" class="node"><title>Node11</title>
<a xlink:href="a00248.html" target="_top" xlink:title="Root scene node, represents the whole scene.">
<polygon fill="none" stroke="red" points="1535.5,-419.5 1535.5,-440.5 1624.5,-440.5 1624.5,-419.5 1535.5,-419.5"/>
<text text-anchor="middle" x="1580" y="-427.5" font-family="FreeSans" font-size="10.00">Urho3D::Scene</text>
</a>
</g>
<!-- Node8&#45;&gt;Node11 -->
<g id="edge24" class="edge"><title>Node8&#45;&gt;Node11</title>
<path fill="none" stroke="midnightblue" d="M1357.85,-467.173C1397.99,-461.131 1454.53,-452.408 1504,-444 1514.18,-442.269 1525.12,-440.313 1535.43,-438.423"/>
<polygon fill="midnightblue" stroke="midnightblue" points="1357.13,-463.743 1347.76,-468.689 1358.17,-470.665 1357.13,-463.743"/>
</g>
<!-- Node9 -->
<g id="node17" class="node"><title>Node9</title>
<a xlink:href="a00220.html" target="_top" xlink:title="Urho3D::PODVector\&lt;\l Urho3D::Node * \&gt;">
<polygon fill="none" stroke="black" points="382.5,-730 382.5,-764 501.5,-764 501.5,-730 382.5,-730"/>
<text text-anchor="start" x="390.5" y="-751" font-family="FreeSans" font-size="10.00">Urho3D::PODVector&lt;</text>
<text text-anchor="middle" x="442" y="-738" font-family="FreeSans" font-size="10.00"> Urho3D::Node * &gt;</text>
</a>
</g>
<!-- Node9&#45;&gt;Node8 -->
<g id="edge18" class="edge"><title>Node9&#45;&gt;Node8</title>
<path fill="none" stroke="#9a32cd" stroke-dasharray="5,2" d="M495.132,-767.61C636.958,-818.78 1028.31,-934.244 1244,-743 1283.72,-707.781 1300.48,-531.334 1304.18,-485.757"/>
<polygon fill="#9a32cd" stroke="#9a32cd" points="495.952,-764.183 485.358,-764.042 493.551,-770.758 495.952,-764.183"/>
<text text-anchor="middle" x="823" y="-853" font-family="FreeSans" font-size="10.00"> dependencyNodes_</text>
</g>
<!-- Node10 -->
<g id="node19" class="node"><title>Node10</title>
<a xlink:href="a00315.html" target="_top" xlink:title="Vector base class.">
<polygon fill="none" stroke="black" points="0,-600.5 0,-621.5 114,-621.5 114,-600.5 0,-600.5"/>
<text text-anchor="middle" x="57" y="-608.5" font-family="FreeSans" font-size="10.00">Urho3D::VectorBase</text>
</a>
</g>
<!-- Node10&#45;&gt;Node9 -->
<g id="edge20" class="edge"><title>Node10&#45;&gt;Node9</title>
<path fill="none" stroke="midnightblue" d="M71.9658,-629.165C89.1522,-648.717 119.227,-679.14 152,-695 226.128,-730.874 321.718,-742.192 382.456,-745.653"/>
<polygon fill="midnightblue" stroke="midnightblue" points="74.5837,-626.841 65.419,-621.525 69.2683,-631.396 74.5837,-626.841"/>
</g>
<!-- Node14 -->
<g id="node30" class="node"><title>Node14</title>
<a xlink:href="a00311.html" target="_top" xlink:title="Urho3D::Vector\&lt; Urho3D\l::WeakPtr\&lt; Urho3D::Component \&gt; \&gt;">
<polygon fill="none" stroke="black" points="726,-590 726,-624 920,-624 920,-590 726,-590"/>
<text text-anchor="start" x="734" y="-611" font-family="FreeSans" font-size="10.00">Urho3D::Vector&lt; Urho3D</text>
<text text-anchor="middle" x="823" y="-598" font-family="FreeSans" font-size="10.00">::WeakPtr&lt; Urho3D::Component &gt; &gt;</text>
</a>
</g>
<!-- Node10&#45;&gt;Node14 -->
<g id="edge36" class="edge"><title>Node10&#45;&gt;Node14</title>
<path fill="none" stroke="midnightblue" d="M124.543,-610.647C260.64,-609.937 568.268,-608.33 725.9,-607.507"/>
<polygon fill="midnightblue" stroke="midnightblue" points="124.243,-607.149 114.261,-610.701 124.279,-614.149 124.243,-607.149"/>
</g>
<!-- Node18 -->
<g id="node39" class="node"><title>Node18</title>
<a xlink:href="a00220.html" target="_top" xlink:title="Urho3D::PODVector\&lt;\l unsigned char \&gt;">
<polygon fill="none" stroke="black" points="177.5,-180 177.5,-214 296.5,-214 296.5,-180 177.5,-180"/>
<text text-anchor="start" x="185.5" y="-201" font-family="FreeSans" font-size="10.00">Urho3D::PODVector&lt;</text>
<text text-anchor="middle" x="237" y="-188" font-family="FreeSans" font-size="10.00"> unsigned char &gt;</text>
</a>
</g>
<!-- Node10&#45;&gt;Node18 -->
<g id="edge46" class="edge"><title>Node10&#45;&gt;Node18</title>
<path fill="none" stroke="midnightblue" d="M59.4143,-589.957C68.1677,-517.169 100.461,-277.548 152,-223 158.889,-215.709 167.759,-210.444 177.161,-206.647"/>
<polygon fill="midnightblue" stroke="midnightblue" points="55.9073,-589.812 58.2122,-600.153 62.8591,-590.632 55.9073,-589.812"/>
</g>
<!-- Node19 -->
<g id="node42" class="node"><title>Node19</title>
<a xlink:href="a00311.html" target="_top" xlink:title="Urho3D::Vector\&lt; Urho3D\l::SharedPtr\&lt; Urho3D::Component \&gt; \&gt;">
<polygon fill="none" stroke="black" points="340.5,-670 340.5,-704 543.5,-704 543.5,-670 340.5,-670"/>
<text text-anchor="start" x="348.5" y="-691" font-family="FreeSans" font-size="10.00">Urho3D::Vector&lt; Urho3D</text>
<text text-anchor="middle" x="442" y="-678" font-family="FreeSans" font-size="10.00">::SharedPtr&lt; Urho3D::Component &gt; &gt;</text>
</a>
</g>
<!-- Node10&#45;&gt;Node19 -->
<g id="edge50" class="edge"><title>Node10&#45;&gt;Node19</title>
<path fill="none" stroke="midnightblue" d="M75.7284,-628.238C90.0129,-640.262 110.786,-655.454 132,-663 198.752,-686.744 278.543,-692.45 340.456,-692.372"/>
<polygon fill="midnightblue" stroke="midnightblue" points="77.9532,-625.534 68.1135,-621.606 73.356,-630.813 77.9532,-625.534"/>
</g>
<!-- Node22 -->
<g id="node53" class="node"><title>Node22</title>
<a xlink:href="a00311.html" target="_top" xlink:title="Urho3D::Vector\&lt; Urho3D\l::SharedPtr\&lt; Urho3D::Node \&gt; \&gt;">
<polygon fill="none" stroke="black" points="736.5,-629 736.5,-663 909.5,-663 909.5,-629 736.5,-629"/>
<text text-anchor="start" x="744.5" y="-650" font-family="FreeSans" font-size="10.00">Urho3D::Vector&lt; Urho3D</text>
<text text-anchor="middle" x="823" y="-637" font-family="FreeSans" font-size="10.00">::SharedPtr&lt; Urho3D::Node &gt; &gt;</text>
</a>
</g>
<!-- Node10&#45;&gt;Node22 -->
<g id="edge66" class="edge"><title>Node10&#45;&gt;Node22</title>
<path fill="none" stroke="midnightblue" d="M122.677,-622.924C125.823,-623.325 128.943,-623.688 132,-624 348.572,-646.108 605.122,-647.932 736.29,-647.117"/>
<polygon fill="midnightblue" stroke="midnightblue" points="122.967,-619.431 112.581,-621.525 122.006,-626.365 122.967,-619.431"/>
</g>
<!-- Node24 -->
<g id="node64" class="node"><title>Node24</title>
<a xlink:href="a00311.html" target="_top" xlink:title="Urho3D::Vector\&lt; Urho3D\l::SharedPtr\&lt; Urho3D::Animation\lState \&gt; \&gt;">
<polygon fill="none" stroke="black" points="1070.5,-35.5 1070.5,-82.5 1243.5,-82.5 1243.5,-35.5 1070.5,-35.5"/>
<text text-anchor="start" x="1078.5" y="-69.5" font-family="FreeSans" font-size="10.00">Urho3D::Vector&lt; Urho3D</text>
<text text-anchor="start" x="1078.5" y="-56.5" font-family="FreeSans" font-size="10.00">::SharedPtr&lt; Urho3D::Animation</text>
<text text-anchor="middle" x="1157" y="-43.5" font-family="FreeSans" font-size="10.00">State &gt; &gt;</text>
</a>
</g>
<!-- Node10&#45;&gt;Node24 -->
<g id="edge84" class="edge"><title>Node10&#45;&gt;Node24</title>
<path fill="none" stroke="midnightblue" d="M59.2125,-590.094C68.1524,-508.349 103.467,-210.925 152,-131 177.111,-89.6478 188.621,-63 237,-63 237,-63 237,-63 823,-63 907.086,-63 1003.07,-61.7167 1070.5,-60.6039"/>
<polygon fill="midnightblue" stroke="midnightblue" points="55.7203,-589.834 58.1274,-600.152 62.6799,-590.585 55.7203,-589.834"/>
</g>
<!-- Node25 -->
<g id="node68" class="node"><title>Node25</title>
<a xlink:href="a00311.html" target="_top" xlink:title="Urho3D::Vector\&lt; Urho3D\l::AnimationControl \&gt;">
<polygon fill="none" stroke="black" points="1366,-0 1366,-34 1504,-34 1504,-0 1366,-0"/>
<text text-anchor="start" x="1374" y="-21" font-family="FreeSans" font-size="10.00">Urho3D::Vector&lt; Urho3D</text>
<text text-anchor="middle" x="1435" y="-8" font-family="FreeSans" font-size="10.00">::AnimationControl &gt;</text>
</a>
</g>
<!-- Node10&#45;&gt;Node25 -->
<g id="edge90" class="edge"><title>Node10&#45;&gt;Node25</title>
<path fill="none" stroke="midnightblue" d="M58.0643,-590.11C63.0256,-500.015 86.4764,-145.365 152,-59 177.351,-25.5855 195.057,-18 237,-18 237,-18 237,-18 1157,-18 1228.19,-18 1309.63,-17.668 1365.88,-17.3866"/>
<polygon fill="midnightblue" stroke="midnightblue" points="54.5651,-590.004 57.5273,-600.176 61.5551,-590.377 54.5651,-590.004"/>
</g>
<!-- Node11&#45;&gt;Node8 -->
<g id="edge22" class="edge"><title>Node11&#45;&gt;Node8</title>
<path fill="none" stroke="#9a32cd" stroke-dasharray="5,2" d="M1525.35,-421.244C1481.22,-416.286 1418.11,-414.032 1366,-431 1345.89,-437.549 1326.8,-453.43 1315.5,-464.209"/>
<polygon fill="#9a32cd" stroke="#9a32cd" points="1524.96,-424.722 1535.3,-422.444 1525.8,-417.772 1524.96,-424.722"/>
<text text-anchor="middle" x="1435" y="-435" font-family="FreeSans" font-size="10.00"> scene_</text>
</g>
<!-- Node12 -->
<g id="node24" class="node"><title>Node12</title>
<a xlink:href="a00287.html" target="_top" xlink:title="String class.">
<polygon fill="none" stroke="black" points="591,-121.5 591,-142.5 679,-142.5 679,-121.5 591,-121.5"/>
<text text-anchor="middle" x="635" y="-129.5" font-family="FreeSans" font-size="10.00">Urho3D::String</text>
</a>
</g>
<!-- Node12&#45;&gt;Node8 -->
<g id="edge56" class="edge"><title>Node12&#45;&gt;Node8</title>
<path fill="none" stroke="#9a32cd" stroke-dasharray="5,2" d="M689.311,-141.948C701.374,-144.046 714.109,-146.175 726,-148 840.755,-165.612 1157.88,-138.145 1244,-216 1282.04,-250.386 1299.98,-419.905 1304.07,-464.328"/>
<polygon fill="#9a32cd" stroke="#9a32cd" points="689.825,-138.484 679.37,-140.2 688.613,-145.379 689.825,-138.484"/>
<text text-anchor="middle" x="995" y="-166" font-family="FreeSans" font-size="10.00"> name_</text>
</g>
<!-- Node12&#45;&gt;Node11 -->
<g id="edge26" class="edge"><title>Node12&#45;&gt;Node11</title>
<path fill="none" stroke="#9a32cd" stroke-dasharray="5,2" d="M689.472,-121.687C798.847,-103.45 1051.19,-73.9189 1244,-147 1401.97,-206.875 1538.12,-375.001 1571.94,-419.228"/>
<polygon fill="#9a32cd" stroke="#9a32cd" points="688.611,-118.284 679.341,-123.413 689.787,-125.184 688.611,-118.284"/>
<text text-anchor="middle" x="1157" y="-151" font-family="FreeSans" font-size="10.00"> fileName_</text>
</g>
<!-- Node12&#45;&gt;Node12 -->
<g id="edge28" class="edge"><title>Node12&#45;&gt;Node12</title>
<path fill="none" stroke="#9a32cd" stroke-dasharray="5,2" d="M599.902,-151.299C601.344,-156.781 613.043,-161 635,-161 667.68,-161 677.637,-151.653 664.871,-142.708"/>
<polygon fill="#9a32cd" stroke="#9a32cd" points="602.921,-153.07 605.129,-142.708 596.941,-149.432 602.921,-153.07"/>
<text text-anchor="middle" x="635" y="-165" font-family="FreeSans" font-size="10.00"> EMPTY</text>
</g>
<!-- Node12&#45;&gt;Node23 -->
<g id="edge78" class="edge"><title>Node12&#45;&gt;Node23</title>
<path fill="none" stroke="#9a32cd" stroke-dasharray="5,2" d="M659.729,-148.223C674.115,-157.917 692.424,-170.704 708,-183 716.402,-189.632 716.505,-194.06 726,-199 804.61,-239.898 857.617,-182.066 920,-245 945.351,-270.575 915.057,-296.244 938,-324 943.095,-330.163 950.007,-334.852 957.26,-338.405"/>
<polygon fill="#9a32cd" stroke="#9a32cd" points="661.599,-145.262 651.339,-142.618 657.71,-151.083 661.599,-145.262"/>
<text text-anchor="middle" x="823" y="-249" font-family="FreeSans" font-size="10.00"> sceneFileName_</text>
</g>
<!-- Node13 -->
<g id="node27" class="node"><title>Node13</title>
<a xlink:href="a00225.html" target="_top" xlink:title="Rotation represented as a four&#45;dimensional normalized vector.">
<polygon fill="none" stroke="black" points="938.5,-218.5 938.5,-239.5 1051.5,-239.5 1051.5,-218.5 938.5,-218.5"/>
<text text-anchor="middle" x="995" y="-226.5" font-family="FreeSans" font-size="10.00">Urho3D::Quaternion</text>
</a>
</g>
<!-- Node13&#45;&gt;Node8 -->
<g id="edge30" class="edge"><title>Node13&#45;&gt;Node8</title>
<path fill="none" stroke="#9a32cd" stroke-dasharray="5,2" d="M1061.63,-220.977C1116.98,-218.151 1194.41,-223.643 1244,-267 1274.88,-294 1297.4,-425.849 1303.41,-464.396"/>
<polygon fill="#9a32cd" stroke="#9a32cd" points="1061.33,-217.488 1051.56,-221.594 1061.76,-224.475 1061.33,-217.488"/>
<text text-anchor="middle" x="1157" y="-284" font-family="FreeSans" font-size="10.00"> worldRotation_</text>
<text text-anchor="middle" x="1157" y="-271" font-family="FreeSans" font-size="10.00">rotation_</text>
</g>
<!-- Node13&#45;&gt;Node13 -->
<g id="edge32" class="edge"><title>Node13&#45;&gt;Node13</title>
<path fill="none" stroke="#9a32cd" stroke-dasharray="5,2" d="M964.987,-249.055C966.955,-254.164 976.96,-258 995,-258 1023.16,-258 1031.74,-248.653 1020.74,-239.708"/>
<polygon fill="#9a32cd" stroke="#9a32cd" points="968.285,-250.258 969.26,-239.708 961.919,-247.347 968.285,-250.258"/>
<text text-anchor="middle" x="995" y="-262" font-family="FreeSans" font-size="10.00"> IDENTITY</text>
</g>
<!-- Node14&#45;&gt;Node8 -->
<g id="edge34" class="edge"><title>Node14&#45;&gt;Node8</title>
<path fill="none" stroke="#9a32cd" stroke-dasharray="5,2" d="M902.982,-587.191C908.764,-585.513 914.486,-583.776 920,-582 928.17,-579.369 929.767,-577.43 938,-575 1071.17,-535.698 1114.75,-562.746 1244,-512 1261.06,-505.3 1278.79,-493.981 1290.7,-485.622"/>
<polygon fill="#9a32cd" stroke="#9a32cd" points="901.889,-583.863 893.221,-589.957 903.797,-590.598 901.889,-583.863"/>
<text text-anchor="middle" x="995" y="-579" font-family="FreeSans" font-size="10.00"> listeners_</text>
</g>
<!-- Node15 -->
<g id="node33" class="node"><title>Node15</title>
<a xlink:href="a00316.html" target="_top" xlink:title="Dynamically sized buffer that can be read and written to as a stream.">
<polygon fill="none" stroke="black" points="575.5,-192.5 575.5,-213.5 694.5,-213.5 694.5,-192.5 575.5,-192.5"/>
<text text-anchor="middle" x="635" y="-200.5" font-family="FreeSans" font-size="10.00">Urho3D::VectorBuffer</text>
</a>
</g>
<!-- Node15&#45;&gt;Node1 -->
<g id="edge86" class="edge"><title>Node15&#45;&gt;Node1</title>
<path fill="none" stroke="#9a32cd" stroke-dasharray="5,2" d="M688.298,-190.135C801.994,-163.128 1065.42,-103 1157,-103 1157,-103 1157,-103 1580,-103 1621.14,-103 1667.27,-96.6039 1701.7,-90.5576"/>
<polygon fill="#9a32cd" stroke="#9a32cd" points="687.339,-186.766 678.422,-192.487 688.96,-193.575 687.339,-186.766"/>
<text text-anchor="middle" x="1305" y="-107" font-family="FreeSans" font-size="10.00"> attrBuffer_</text>
</g>
<!-- Node15&#45;&gt;Node8 -->
<g id="edge38" class="edge"><title>Node15&#45;&gt;Node8</title>
<path fill="none" stroke="#9a32cd" stroke-dasharray="5,2" d="M668.356,-217.424C685.335,-224.26 706.468,-232.003 726,-237 810.398,-258.591 840.422,-229.554 920,-265 929.513,-269.237 928.548,-275.629 938,-280 1063.28,-337.93 1135.67,-247.475 1244,-333 1287.17,-367.082 1300.32,-437.637 1303.84,-464.396"/>
<polygon fill="#9a32cd" stroke="#9a32cd" points="669.461,-214.094 658.881,-213.532 666.801,-220.569 669.461,-214.094"/>
<text text-anchor="middle" x="995" y="-304" font-family="FreeSans" font-size="10.00"> attrBuffer_</text>
</g>
<!-- Node15&#45;&gt;Node23 -->
<g id="edge74" class="edge"><title>Node15&#45;&gt;Node23</title>
<path fill="none" stroke="#9a32cd" stroke-dasharray="5,2" d="M692.099,-217.679C697.817,-220.54 703.254,-223.946 708,-228 721.001,-239.105 711.898,-252.332 726,-262 797.614,-311.094 849.75,-233.973 920,-285 935.446,-296.219 924.373,-310.63 938,-324 944.171,-330.054 952.051,-334.766 959.97,-338.383"/>
<polygon fill="#9a32cd" stroke="#9a32cd" points="693.499,-214.472 682.939,-213.619 690.663,-220.871 693.499,-214.472"/>
<text text-anchor="middle" x="823" y="-289" font-family="FreeSans" font-size="10.00"> msg_</text>
</g>
<!-- Node16 -->
<g id="node35" class="node"><title>Node16</title>
<a xlink:href="a00113.html" target="_top" xlink:title="Abstract stream for reading.">
<polygon fill="none" stroke="black" points="179,-140.5 179,-161.5 295,-161.5 295,-140.5 179,-140.5"/>
<text text-anchor="middle" x="237" y="-148.5" font-family="FreeSans" font-size="10.00">Urho3D::Deserializer</text>
</a>
</g>
<!-- Node16&#45;&gt;Node15 -->
<g id="edge40" class="edge"><title>Node16&#45;&gt;Node15</title>
<path fill="none" stroke="midnightblue" d="M305.084,-159.84C367.297,-167.925 461.839,-180.23 544,-191 554.112,-192.326 564.856,-193.738 575.283,-195.112"/>
<polygon fill="midnightblue" stroke="midnightblue" points="305.369,-156.348 295.002,-158.53 304.467,-163.29 305.369,-156.348"/>
</g>
<!-- Node17 -->
<g id="node37" class="node"><title>Node17</title>
<a xlink:href="a00260.html" target="_top" xlink:title="Abstract stream for writing.">
<polygon fill="none" stroke="black" points="185,-232.5 185,-253.5 289,-253.5 289,-232.5 185,-232.5"/>
<text text-anchor="middle" x="237" y="-240.5" font-family="FreeSans" font-size="10.00">Urho3D::Serializer</text>
</a>
</g>
<!-- Node17&#45;&gt;Node15 -->
<g id="edge42" class="edge"><title>Node17&#45;&gt;Node15</title>
<path fill="none" stroke="midnightblue" d="M299.343,-236.734C374.887,-229.142 501.248,-216.442 575.493,-208.981"/>
<polygon fill="midnightblue" stroke="midnightblue" points="298.631,-233.288 289.032,-237.771 299.331,-240.253 298.631,-233.288"/>
</g>
<!-- Node18&#45;&gt;Node15 -->
<g id="edge44" class="edge"><title>Node18&#45;&gt;Node15</title>
<path fill="none" stroke="#9a32cd" stroke-dasharray="5,2" d="M306.825,-196.202C369.06,-195.735 462.622,-195.633 544,-198 554.122,-198.294 564.871,-198.754 575.3,-199.278"/>
<polygon fill="#9a32cd" stroke="#9a32cd" points="306.701,-192.703 296.729,-196.283 306.757,-199.702 306.701,-192.703"/>
<text text-anchor="middle" x="442" y="-202" font-family="FreeSans" font-size="10.00"> buffer_</text>
</g>
<!-- Node19&#45;&gt;Node8 -->
<g id="edge48" class="edge"><title>Node19&#45;&gt;Node8</title>
<path fill="none" stroke="#9a32cd" stroke-dasharray="5,2" d="M553.932,-690.051C677.172,-691.266 880.586,-686.924 1052,-653 1139.83,-635.617 1175.46,-649.606 1244,-592 1278.72,-562.818 1296.22,-508.787 1302.37,-485.802"/>
<polygon fill="#9a32cd" stroke="#9a32cd" points="553.77,-686.549 543.731,-689.936 553.691,-693.549 553.77,-686.549"/>
<text text-anchor="middle" x="823" y="-691" font-family="FreeSans" font-size="10.00"> components_</text>
</g>
<!-- Node20 -->
<g id="node45" class="node"><title>Node20</title>
<a xlink:href="a00313.html" target="_top" xlink:title="Three&#45;dimensional vector.">
<polygon fill="none" stroke="black" points="587,-281.5 587,-302.5 683,-302.5 683,-281.5 587,-281.5"/>
<text text-anchor="middle" x="635" y="-289.5" font-family="FreeSans" font-size="10.00">Urho3D::Vector3</text>
</a>
</g>
<!-- Node20&#45;&gt;Node8 -->
<g id="edge52" class="edge"><title>Node20&#45;&gt;Node8</title>
<path fill="none" stroke="#9a32cd" stroke-dasharray="5,2" d="M652.582,-310.285C669.719,-326.966 697.323,-350.944 726,-364 832.585,-412.526 1129.35,-437.119 1244,-461 1249.96,-462.241 1256.23,-463.609 1262.39,-464.989"/>
<polygon fill="#9a32cd" stroke="#9a32cd" points="654.599,-307.353 645.05,-302.762 649.652,-312.305 654.599,-307.353"/>
<text text-anchor="middle" x="995" y="-448" font-family="FreeSans" font-size="10.00"> scale_</text>
<text text-anchor="middle" x="995" y="-435" font-family="FreeSans" font-size="10.00">position_</text>
</g>
<!-- Node20&#45;&gt;Node20 -->
<g id="edge54" class="edge"><title>Node20&#45;&gt;Node20</title>
<path fill="none" stroke="#9a32cd" stroke-dasharray="5,2" d="M599.902,-311.299C601.344,-316.781 613.043,-321 635,-321 667.68,-321 677.637,-311.653 664.871,-302.708"/>
<polygon fill="#9a32cd" stroke="#9a32cd" points="602.921,-313.07 605.129,-302.708 596.941,-309.432 602.921,-313.07"/>
<text text-anchor="middle" x="635" y="-416" font-family="FreeSans" font-size="10.00"> ONE</text>
<text text-anchor="middle" x="635" y="-403" font-family="FreeSans" font-size="10.00">DOWN</text>
<text text-anchor="middle" x="635" y="-390" font-family="FreeSans" font-size="10.00">BACK</text>
<text text-anchor="middle" x="635" y="-377" font-family="FreeSans" font-size="10.00">RIGHT</text>
<text text-anchor="middle" x="635" y="-364" font-family="FreeSans" font-size="10.00">LEFT</text>
<text text-anchor="middle" x="635" y="-351" font-family="FreeSans" font-size="10.00">ZERO</text>
<text text-anchor="middle" x="635" y="-338" font-family="FreeSans" font-size="10.00">FORWARD</text>
<text text-anchor="middle" x="635" y="-325" font-family="FreeSans" font-size="10.00">UP</text>
</g>
<!-- Node20&#45;&gt;Node23 -->
<g id="edge76" class="edge"><title>Node20&#45;&gt;Node23</title>
<path fill="none" stroke="#9a32cd" stroke-dasharray="5,2" d="M667.53,-306.617C684.598,-313.65 706.057,-321.51 726,-326 798.135,-342.239 883.513,-347.198 938.422,-348.613"/>
<polygon fill="#9a32cd" stroke="#9a32cd" points="668.607,-303.273 658.033,-302.604 665.882,-309.72 668.607,-303.273"/>
<text text-anchor="middle" x="823" y="-351" font-family="FreeSans" font-size="10.00"> position_</text>
</g>
<!-- Node21 -->
<g id="node50" class="node"><title>Node21</title>
<a xlink:href="a00288.html" target="_top" xlink:title="32&#45;bit hash value for a string.">
<polygon fill="none" stroke="black" points="938.5,-701.5 938.5,-722.5 1051.5,-722.5 1051.5,-701.5 938.5,-701.5"/>
<text text-anchor="middle" x="995" y="-709.5" font-family="FreeSans" font-size="10.00">Urho3D::StringHash</text>
</a>
</g>
<!-- Node21&#45;&gt;Node8 -->
<g id="edge60" class="edge"><title>Node21&#45;&gt;Node8</title>
<path fill="none" stroke="#9a32cd" stroke-dasharray="5,2" d="M1058.73,-723.8C1114.01,-730.198 1192.97,-729.58 1244,-687 1276.13,-660.194 1297.85,-524.707 1303.52,-485.589"/>
<polygon fill="#9a32cd" stroke="#9a32cd" points="1059.05,-720.313 1048.69,-722.532 1058.17,-727.258 1059.05,-720.313"/>
<text text-anchor="middle" x="1157" y="-730" font-family="FreeSans" font-size="10.00"> nameHash_</text>
</g>
<!-- Node21&#45;&gt;Node21 -->
<g id="edge62" class="edge"><title>Node21&#45;&gt;Node21</title>
<path fill="none" stroke="#9a32cd" stroke-dasharray="5,2" d="M964.987,-732.055C966.955,-737.164 976.96,-741 995,-741 1023.16,-741 1031.74,-731.653 1020.74,-722.708"/>
<polygon fill="#9a32cd" stroke="#9a32cd" points="968.285,-733.258 969.26,-722.708 961.919,-730.347 968.285,-733.258"/>
<text text-anchor="middle" x="995" y="-745" font-family="FreeSans" font-size="10.00"> ZERO</text>
</g>
<!-- Node22&#45;&gt;Node8 -->
<g id="edge64" class="edge"><title>Node22&#45;&gt;Node8</title>
<path fill="none" stroke="#9a32cd" stroke-dasharray="5,2" d="M920.068,-639.303C1009.77,-629.385 1143.89,-604.814 1244,-544 1268.6,-529.057 1288.76,-501.015 1298.57,-485.682"/>
<polygon fill="#9a32cd" stroke="#9a32cd" points="919.473,-635.846 909.9,-640.386 920.214,-642.807 919.473,-635.846"/>
<text text-anchor="middle" x="995" y="-640" font-family="FreeSans" font-size="10.00"> children_</text>
</g>
<!-- Node23&#45;&gt;Node8 -->
<g id="edge70" class="edge"><title>Node23&#45;&gt;Node8</title>
<path fill="none" stroke="#9a32cd" stroke-dasharray="5,2" d="M1061.62,-339.1C1115.02,-334.668 1189.74,-336.661 1244,-371 1278.84,-393.052 1296.18,-442.751 1302.33,-464.488"/>
<polygon fill="#9a32cd" stroke="#9a32cd" points="1061.21,-335.624 1051.57,-340.031 1061.85,-342.594 1061.21,-335.624"/>
<text text-anchor="middle" x="1157" y="-375" font-family="FreeSans" font-size="10.00"> owner_</text>
</g>
<!-- Node24&#45;&gt;Node1 -->
<g id="edge82" class="edge"><title>Node24&#45;&gt;Node1</title>
<path fill="none" stroke="#9a32cd" stroke-dasharray="5,2" d="M1253.89,-62.4084C1371.58,-66.548 1567.75,-73.4486 1676.12,-77.2605"/>
<polygon fill="#9a32cd" stroke="#9a32cd" points="1253.93,-58.9074 1243.81,-62.0536 1253.68,-65.9031 1253.93,-58.9074"/>
<text text-anchor="middle" x="1435" y="-75" font-family="FreeSans" font-size="10.00"> nodeAnimationStates_</text>
</g>
<!-- Node25&#45;&gt;Node1 -->
<g id="edge88" class="edge"><title>Node25&#45;&gt;Node1</title>
<path fill="none" stroke="#9a32cd" stroke-dasharray="5,2" d="M1514.91,-15.8344C1552.68,-16.8726 1598.14,-20.436 1638,-30 1673.83,-38.595 1712.59,-57.4423 1735,-69.3842"/>
<polygon fill="#9a32cd" stroke="#9a32cd" points="1514.54,-12.3257 1504.47,-15.6057 1514.39,-19.324 1514.54,-12.3257"/>
<text text-anchor="middle" x="1580" y="-34" font-family="FreeSans" font-size="10.00"> animations_</text>
</g>
</g>
</svg>
        <g id="navigator" transform="translate(0 0)" fill="#404254">
                <rect fill="#f2f5e9" fill-opacity="0.5" stroke="#606060" stroke-width=".5" x="0" y="0" width="60" height="60"/>
                <use id="zoomplus" xlink:href="#zoomPlus" x="17" y="9" onmousedown="handleZoom(evt,'in')"/>
                <use id="zoomminus" xlink:href="#zoomMin" x="42" y="9" onmousedown="handleZoom(evt,'out')"/>
                <use id="reset" xlink:href="#resetDef" x="30" y="36" onmousedown="handleReset()"/>
                <g id="arrowUp" xlink:href="#dirArrow" transform="translate(30 24)" onmousedown="handlePan(0,-1)">
                  <use xlink:href="#rim" fill="#404040">
                        <set attributeName="fill" to="#808080" begin="arrowUp.mouseover" end="arrowUp.mouseout"/>
                  </use>
                  <path fill="none" stroke="white" stroke-width="1.5" d="M0,-3.0v7 M-2.5,-0.5L0,-3.0L2.5,-0.5"/>
                </g>
                <g id="arrowRight" xlink:href="#dirArrow" transform="rotate(90) translate(36 -43)" onmousedown="handlePan(1,0)">
                  <use xlink:href="#rim" fill="#404040">
                        <set attributeName="fill" to="#808080" begin="arrowRight.mouseover" end="arrowRight.mouseout"/>
                  </use>
                  <path fill="none" stroke="white" stroke-width="1.5" d="M0,-3.0v7 M-2.5,-0.5L0,-3.0L2.5,-0.5"/>
                </g>
                <g id="arrowDown" xlink:href="#dirArrow" transform="rotate(180) translate(-30 -48)" onmousedown="handlePan(0,1)">
                  <use xlink:href="#rim" fill="#404040">
                        <set attributeName="fill" to="#808080" begin="arrowDown.mouseover" end="arrowDown.mouseout"/>
                  </use>
                  <path fill="none" stroke="white" stroke-width="1.5" d="M0,-3.0v7 M-2.5,-0.5L0,-3.0L2.5,-0.5"/>
                </g>
                <g id="arrowLeft" xlink:href="#dirArrow" transform="rotate(270) translate(-36 17)" onmousedown="handlePan(-1,0)">
                  <use xlink:href="#rim" fill="#404040">
                        <set attributeName="fill" to="#808080" begin="arrowLeft.mouseover" end="arrowLeft.mouseout"/>
                  </use>
                  <path fill="none" stroke="white" stroke-width="1.5" d="M0,-3.0v7 M-2.5,-0.5L0,-3.0L2.5,-0.5"/>
                </g>
        </g>
        <svg viewBox="0 0 15 15" width="100%" height="30px" preserveAspectRatio="xMaxYMin meet">
         <g id="arrow_out" transform="scale(0.3 0.3)">
          <a xlink:href="a00905_org.svg" target="_base">
           <rect id="button" ry="5" rx="5" y="6" x="6" height="38" width="38"
                fill="#f2f5e9" fill-opacity="0.5" stroke="#606060" stroke-width="1.0"/>
           <path id="arrow"
             d="M 11.500037,31.436501 C 11.940474,20.09759 22.043105,11.32322 32.158766,21.979434 L 37.068811,17.246167 C 37.068811,17.246167 37.088388,32 37.088388,32 L 22.160133,31.978069 C 22.160133,31.978069 26.997745,27.140456 26.997745,27.140456 C 18.528582,18.264221 13.291696,25.230495 11.500037,31.436501 z"
             style="fill:#404040;"/>
          </a>
         </g>
        </svg>
</svg>
