<?xml version="1.0" encoding="UTF-8" standalone="no"?>
<!DOCTYPE svg PUBLIC "-//W3C//DTD SVG 1.1//EN"
 "http://www.w3.org/Graphics/SVG/1.1/DTD/svg11.dtd">
<!-- Generated by graphviz version 2.26.3 (20100126.1600)
 -->
<!-- Title: Urho3D::WorkQueue Pages: 1 -->
<svg width="1132pt" height="940pt"
 viewBox="0.00 0.00 1132.00 940.00" xmlns="http://www.w3.org/2000/svg" xmlns:xlink="http://www.w3.org/1999/xlink">
<g id="graph1" class="graph" transform="scale(1 1) rotate(0) translate(4 936)">
<title>Urho3D::WorkQueue</title>
<!-- Node1 -->
<g id="node1" class="node"><title>Node1</title>
<polygon fill="#bfbfbf" stroke="black" points="994.5,-118.5 994.5,-139.5 1107.5,-139.5 1107.5,-118.5 994.5,-118.5"/>
<text text-anchor="middle" x="1051" y="-126.5" font-family="FreeSans" font-size="10.00">Urho3D::WorkQueue</text>
</g>
<!-- Node2 -->
<g id="node2" class="node"><title>Node2</title>
<a xlink:href="a00206.html" target="_top" xlink:title="Base class for objects with type identification, subsystem access and event sending/receiving capabil...">
<polygon fill="none" stroke="black" points="423,-805.5 423,-826.5 513,-826.5 513,-805.5 423,-805.5"/>
<text text-anchor="middle" x="468" y="-813.5" font-family="FreeSans" font-size="10.00">Urho3D::Object</text>
</a>
</g>
<!-- Node2&#45;&gt;Node1 -->
<g id="edge2" class="edge"><title>Node2&#45;&gt;Node1</title>
<path fill="none" stroke="midnightblue" d="M521.029,-803.004C642.406,-772.76 932.137,-697.54 960,-662 980.169,-636.274 972.968,-548.3 978,-516 1001.37,-366.023 1039.1,-185.133 1048.72,-139.729"/>
<polygon fill="midnightblue" stroke="midnightblue" points="520.062,-799.638 511.202,-805.447 521.751,-806.432 520.062,-799.638"/>
</g>
<!-- Node13 -->
<g id="node28" class="node"><title>Node13</title>
<a xlink:href="a00124.html" target="_top" xlink:title="Internal helper class for invoking event handler functions.">
<polygon fill="none" stroke="red" points="658,-852.5 658,-873.5 782,-873.5 782,-852.5 658,-852.5"/>
<text text-anchor="middle" x="720" y="-860.5" font-family="FreeSans" font-size="10.00">Urho3D::EventHandler</text>
</a>
</g>
<!-- Node2&#45;&gt;Node13 -->
<g id="edge38" class="edge"><title>Node2&#45;&gt;Node13</title>
<path fill="none" stroke="#9a32cd" stroke-dasharray="5,2" d="M523.007,-826.259C564.58,-834.013 621.46,-844.622 663.414,-852.446"/>
<polygon fill="#9a32cd" stroke="#9a32cd" points="523.525,-822.796 513.053,-824.403 522.241,-829.677 523.525,-822.796"/>
<text text-anchor="middle" x="574" y="-856" font-family="FreeSans" font-size="10.00"> sender_</text>
<text text-anchor="middle" x="574" y="-843" font-family="FreeSans" font-size="10.00">receiver_</text>
</g>
<!-- Node3 -->
<g id="node4" class="node"><title>Node3</title>
<a xlink:href="a00244.html" target="_top" xlink:title="Base class for intrusively reference&#45;counted objects. These are noncopyable and non&#45;assignable.">
<polygon fill="none" stroke="black" points="195,-733.5 195,-754.5 309,-754.5 309,-733.5 195,-733.5"/>
<text text-anchor="middle" x="252" y="-741.5" font-family="FreeSans" font-size="10.00">Urho3D::RefCounted</text>
</a>
</g>
<!-- Node3&#45;&gt;Node2 -->
<g id="edge4" class="edge"><title>Node3&#45;&gt;Node2</title>
<path fill="none" stroke="midnightblue" d="M293.457,-757.819C335.154,-771.718 398.533,-792.844 436.35,-805.45"/>
<polygon fill="midnightblue" stroke="midnightblue" points="294.465,-754.466 283.872,-754.624 292.252,-761.107 294.465,-754.466"/>
</g>
<!-- Node5 -->
<g id="node8" class="node"><title>Node5</title>
<a xlink:href="a00100.html" target="_top" xlink:title="Urho3D execution context. Provides access to subsystems, object factories and attributes, and event receivers.">
<polygon fill="none" stroke="black" points="1002.5,-525.5 1002.5,-546.5 1099.5,-546.5 1099.5,-525.5 1002.5,-525.5"/>
<text text-anchor="middle" x="1051" y="-533.5" font-family="FreeSans" font-size="10.00">Urho3D::Context</text>
</a>
</g>
<!-- Node3&#45;&gt;Node5 -->
<g id="edge10" class="edge"><title>Node3&#45;&gt;Node5</title>
<path fill="none" stroke="midnightblue" d="M319.506,-747.039C427.702,-750.424 646.063,-751.129 826,-713 888.339,-699.79 909.445,-700.792 960,-662 1002.82,-629.147 1034.27,-570.723 1045.99,-546.734"/>
<polygon fill="midnightblue" stroke="midnightblue" points="319.495,-743.537 309.385,-746.705 319.263,-750.533 319.495,-743.537"/>
</g>
<!-- Node4 -->
<g id="node6" class="node"><title>Node4</title>
<a xlink:href="a00243.html" target="_top" xlink:title="Reference count structure.">
<polygon fill="none" stroke="black" points="0,-733.5 0,-754.5 102,-754.5 102,-733.5 0,-733.5"/>
<text text-anchor="middle" x="51" y="-741.5" font-family="FreeSans" font-size="10.00">Urho3D::RefCount</text>
</a>
</g>
<!-- Node4&#45;&gt;Node3 -->
<g id="edge6" class="edge"><title>Node4&#45;&gt;Node3</title>
<path fill="none" stroke="#9a32cd" stroke-dasharray="5,2" d="M112.441,-744C138.665,-744 169.09,-744 194.827,-744"/>
<polygon fill="#9a32cd" stroke="#9a32cd" points="112.241,-740.5 102.241,-744 112.241,-747.5 112.241,-740.5"/>
<text text-anchor="middle" x="145" y="-748" font-family="FreeSans" font-size="10.00"> refCount_</text>
</g>
<!-- Node5&#45;&gt;Node2 -->
<g id="edge8" class="edge"><title>Node5&#45;&gt;Node2</title>
<path fill="none" stroke="#9a32cd" stroke-dasharray="5,2" d="M1048.05,-556.459C1040.91,-598.419 1018.73,-694.583 960,-746 893.95,-803.826 622.014,-813.951 513.256,-815.672"/>
<polygon fill="#9a32cd" stroke="#9a32cd" points="1051.51,-557.005 1049.62,-546.58 1044.6,-555.907 1051.51,-557.005"/>
<text text-anchor="middle" x="720" y="-816" font-family="FreeSans" font-size="10.00"> context_</text>
</g>
<!-- Node6 -->
<g id="node11" class="node"><title>Node6</title>
<a xlink:href="a00147.html" target="_top" xlink:title="Urho3D::HashMap\&lt; Urho3D\l::ShortStringHash, Urho3D\l::Vector\&lt; Urho3D::AttributeInfo \&gt; \&gt;">
<polygon fill="none" stroke="black" points="625.5,-512.5 625.5,-559.5 814.5,-559.5 814.5,-512.5 625.5,-512.5"/>
<text text-anchor="start" x="633.5" y="-546.5" font-family="FreeSans" font-size="10.00">Urho3D::HashMap&lt; Urho3D</text>
<text text-anchor="start" x="633.5" y="-533.5" font-family="FreeSans" font-size="10.00">::ShortStringHash, Urho3D</text>
<text text-anchor="middle" x="720" y="-520.5" font-family="FreeSans" font-size="10.00">::Vector&lt; Urho3D::AttributeInfo &gt; &gt;</text>
</a>
</g>
<!-- Node6&#45;&gt;Node5 -->
<g id="edge12" class="edge"><title>Node6&#45;&gt;Node5</title>
<path fill="none" stroke="#9a32cd" stroke-dasharray="5,2" d="M825.016,-536C884.317,-536 955.632,-536 1002.07,-536"/>
<polygon fill="#9a32cd" stroke="#9a32cd" points="824.851,-532.5 814.851,-536 824.851,-539.5 824.851,-532.5"/>
<text text-anchor="middle" x="902" y="-553" font-family="FreeSans" font-size="10.00"> attributes_</text>
<text text-anchor="middle" x="902" y="-540" font-family="FreeSans" font-size="10.00">networkAttributes_</text>
</g>
<!-- Node7 -->
<g id="node13" class="node"><title>Node7</title>
<a xlink:href="a00145.html" target="_top" xlink:title="Hash set/map base class.">
<polygon fill="none" stroke="red" points="414,-459.5 414,-480.5 522,-480.5 522,-459.5 414,-459.5"/>
<text text-anchor="middle" x="468" y="-467.5" font-family="FreeSans" font-size="10.00">Urho3D::HashBase</text>
</a>
</g>
<!-- Node7&#45;&gt;Node6 -->
<g id="edge14" class="edge"><title>Node7&#45;&gt;Node6</title>
<path fill="none" stroke="midnightblue" d="M518.198,-483.147C550.142,-491.513 592.432,-502.589 630.043,-512.44"/>
<polygon fill="midnightblue" stroke="midnightblue" points="518.769,-479.679 508.209,-480.531 516.996,-486.45 518.769,-479.679"/>
</g>
<!-- Node11 -->
<g id="node22" class="node"><title>Node11</title>
<a xlink:href="a00147.html" target="_top" xlink:title="Urho3D::HashMap\&lt; Urho3D\l::ShortStringHash, Urho3D\l::SharedPtr\&lt; Urho3D::Object \&gt; \&gt;">
<polygon fill="none" stroke="black" points="631,-446.5 631,-493.5 809,-493.5 809,-446.5 631,-446.5"/>
<text text-anchor="start" x="639" y="-480.5" font-family="FreeSans" font-size="10.00">Urho3D::HashMap&lt; Urho3D</text>
<text text-anchor="start" x="639" y="-467.5" font-family="FreeSans" font-size="10.00">::ShortStringHash, Urho3D</text>
<text text-anchor="middle" x="720" y="-454.5" font-family="FreeSans" font-size="10.00">::SharedPtr&lt; Urho3D::Object &gt; &gt;</text>
</a>
</g>
<!-- Node7&#45;&gt;Node11 -->
<g id="edge26" class="edge"><title>Node7&#45;&gt;Node11</title>
<path fill="none" stroke="midnightblue" d="M532.37,-470C562.287,-470 598.354,-470 630.84,-470"/>
<polygon fill="midnightblue" stroke="midnightblue" points="532.06,-466.5 522.06,-470 532.06,-473.5 532.06,-466.5"/>
</g>
<!-- Node12 -->
<g id="node25" class="node"><title>Node12</title>
<a xlink:href="a00147.html" target="_top" xlink:title="Urho3D::HashMap\&lt; Urho3D\l::String, Urho3D::Vector\l\&lt; Urho3D::ShortStringHash \&gt; \&gt;">
<polygon fill="none" stroke="black" points="633.5,-380.5 633.5,-427.5 806.5,-427.5 806.5,-380.5 633.5,-380.5"/>
<text text-anchor="start" x="641.5" y="-414.5" font-family="FreeSans" font-size="10.00">Urho3D::HashMap&lt; Urho3D</text>
<text text-anchor="start" x="641.5" y="-401.5" font-family="FreeSans" font-size="10.00">::String, Urho3D::Vector</text>
<text text-anchor="middle" x="720" y="-388.5" font-family="FreeSans" font-size="10.00">&lt; Urho3D::ShortStringHash &gt; &gt;</text>
</a>
</g>
<!-- Node7&#45;&gt;Node12 -->
<g id="edge30" class="edge"><title>Node7&#45;&gt;Node12</title>
<path fill="none" stroke="midnightblue" d="M518.058,-456.89C550.994,-448.263 594.974,-436.745 633.481,-426.66"/>
<polygon fill="midnightblue" stroke="midnightblue" points="516.996,-453.55 508.209,-459.469 518.769,-460.321 516.996,-453.55"/>
</g>
<!-- Node15 -->
<g id="node34" class="node"><title>Node15</title>
<a xlink:href="a00147.html" target="_top" xlink:title="Urho3D::HashMap\&lt; Urho3D\l::StringHash, Urho3D::\lHashSet\&lt; Urho3D::Object * \&gt; \&gt;">
<polygon fill="none" stroke="black" points="633.5,-314.5 633.5,-361.5 806.5,-361.5 806.5,-314.5 633.5,-314.5"/>
<text text-anchor="start" x="641.5" y="-348.5" font-family="FreeSans" font-size="10.00">Urho3D::HashMap&lt; Urho3D</text>
<text text-anchor="start" x="641.5" y="-335.5" font-family="FreeSans" font-size="10.00">::StringHash, Urho3D::</text>
<text text-anchor="middle" x="720" y="-322.5" font-family="FreeSans" font-size="10.00">HashSet&lt; Urho3D::Object * &gt; &gt;</text>
</a>
</g>
<!-- Node7&#45;&gt;Node15 -->
<g id="edge42" class="edge"><title>Node7&#45;&gt;Node15</title>
<path fill="none" stroke="midnightblue" d="M488.919,-452.872C516.228,-431.226 566.197,-394.023 614,-371 621.033,-367.613 628.493,-364.471 636.07,-361.583"/>
<polygon fill="midnightblue" stroke="midnightblue" points="486.493,-450.33 480.879,-459.315 490.871,-455.792 486.493,-450.33"/>
</g>
<!-- Node16 -->
<g id="node37" class="node"><title>Node16</title>
<a xlink:href="a00147.html" target="_top" xlink:title="Urho3D::HashMap\&lt; Urho3D\l::Object *, Urho3D::HashMap\l\&lt; Urho3D::StringHash, Urho3D\l::HashSet\&lt; Urho3D::Object * \&gt; \&gt; \&gt;">
<polygon fill="none" stroke="black" points="624.5,-644 624.5,-704 815.5,-704 815.5,-644 624.5,-644"/>
<text text-anchor="start" x="632.5" y="-691" font-family="FreeSans" font-size="10.00">Urho3D::HashMap&lt; Urho3D</text>
<text text-anchor="start" x="632.5" y="-678" font-family="FreeSans" font-size="10.00">::Object *, Urho3D::HashMap</text>
<text text-anchor="start" x="632.5" y="-665" font-family="FreeSans" font-size="10.00">&lt; Urho3D::StringHash, Urho3D</text>
<text text-anchor="middle" x="720" y="-652" font-family="FreeSans" font-size="10.00">::HashSet&lt; Urho3D::Object * &gt; &gt; &gt;</text>
</a>
</g>
<!-- Node7&#45;&gt;Node16 -->
<g id="edge46" class="edge"><title>Node7&#45;&gt;Node16</title>
<path fill="none" stroke="midnightblue" d="M480.426,-489.494C503.065,-523.558 554.247,-594.166 614,-635 618.695,-638.208 623.687,-641.19 628.847,-643.956"/>
<polygon fill="midnightblue" stroke="midnightblue" points="483.216,-487.365 474.814,-480.911 477.357,-491.196 483.216,-487.365"/>
</g>
<!-- Node17 -->
<g id="node40" class="node"><title>Node17</title>
<a xlink:href="a00147.html" target="_top" xlink:title="Urho3D::HashMap\&lt; Urho3D\l::ShortStringHash, Urho3D\l::SharedPtr\&lt; Urho3D::ObjectFactory \&gt; \&gt;">
<polygon fill="none" stroke="black" points="614,-578.5 614,-625.5 826,-625.5 826,-578.5 614,-578.5"/>
<text text-anchor="start" x="622" y="-612.5" font-family="FreeSans" font-size="10.00">Urho3D::HashMap&lt; Urho3D</text>
<text text-anchor="start" x="622" y="-599.5" font-family="FreeSans" font-size="10.00">::ShortStringHash, Urho3D</text>
<text text-anchor="middle" x="720" y="-586.5" font-family="FreeSans" font-size="10.00">::SharedPtr&lt; Urho3D::ObjectFactory &gt; &gt;</text>
</a>
</g>
<!-- Node7&#45;&gt;Node17 -->
<g id="edge50" class="edge"><title>Node7&#45;&gt;Node17</title>
<path fill="none" stroke="midnightblue" d="M488.919,-487.128C516.228,-508.774 566.197,-545.977 614,-569 621.033,-572.387 628.493,-575.529 636.07,-578.417"/>
<polygon fill="midnightblue" stroke="midnightblue" points="490.871,-484.208 480.879,-480.685 486.493,-489.67 490.871,-484.208"/>
</g>
<!-- Node8 -->
<g id="node15" class="node"><title>Node8</title>
<a xlink:href="a00049.html" target="_top" xlink:title="Allocator memory block.">
<polygon fill="none" stroke="red" points="188.5,-299.5 188.5,-320.5 315.5,-320.5 315.5,-299.5 188.5,-299.5"/>
<text text-anchor="middle" x="252" y="-307.5" font-family="FreeSans" font-size="10.00">Urho3D::AllocatorBlock</text>
</a>
</g>
<!-- Node8&#45;&gt;Node7 -->
<g id="edge16" class="edge"><title>Node8&#45;&gt;Node7</title>
<path fill="none" stroke="#9a32cd" stroke-dasharray="5,2" d="M274.661,-326.786C319.14,-359.733 416.735,-432.026 453.555,-459.3"/>
<polygon fill="#9a32cd" stroke="#9a32cd" points="276.627,-323.886 266.508,-320.746 272.46,-329.511 276.627,-323.886"/>
<text text-anchor="middle" x="359" y="-408" font-family="FreeSans" font-size="10.00"> allocator_</text>
</g>
<!-- Node8&#45;&gt;Node8 -->
<g id="edge18" class="edge"><title>Node8&#45;&gt;Node8</title>
<path fill="none" stroke="#9a32cd" stroke-dasharray="5,2" d="M232.465,-330.427C233.972,-335.349 240.484,-339 252,-339 270.426,-339 276.04,-329.653 268.842,-320.708"/>
<polygon fill="#9a32cd" stroke="#9a32cd" points="235.861,-331.279 235.158,-320.708 229.115,-329.41 235.861,-331.279"/>
<text text-anchor="middle" x="252" y="-343" font-family="FreeSans" font-size="10.00"> next_</text>
</g>
<!-- Node22 -->
<g id="node54" class="node"><title>Node22</title>
<a xlink:href="a00172.html" target="_top" xlink:title="Doubly&#45;linked list base class.">
<polygon fill="none" stroke="black" points="418,-72.5 418,-93.5 518,-93.5 518,-72.5 418,-72.5"/>
<text text-anchor="middle" x="468" y="-80.5" font-family="FreeSans" font-size="10.00">Urho3D::ListBase</text>
</a>
</g>
<!-- Node8&#45;&gt;Node22 -->
<g id="edge68" class="edge"><title>Node8&#45;&gt;Node22</title>
<path fill="none" stroke="#9a32cd" stroke-dasharray="5,2" d="M269.099,-292.03C312.091,-246.848 423.7,-129.556 457.894,-93.6212"/>
<polygon fill="#9a32cd" stroke="#9a32cd" points="266.486,-289.699 262.128,-299.356 271.557,-294.524 266.486,-289.699"/>
<text text-anchor="middle" x="359" y="-227" font-family="FreeSans" font-size="10.00"> allocator_</text>
</g>
<!-- Node9 -->
<g id="node18" class="node"><title>Node9</title>
<a xlink:href="a00230.html" target="_top" xlink:title="Urho3D::PODVector\&lt;\l Urho3D::Object * \&gt;">
<polygon fill="none" stroke="black" points="660.5,-262 660.5,-296 779.5,-296 779.5,-262 660.5,-262"/>
<text text-anchor="start" x="668.5" y="-283" font-family="FreeSans" font-size="10.00">Urho3D::PODVector&lt;</text>
<text text-anchor="middle" x="720" y="-270" font-family="FreeSans" font-size="10.00"> Urho3D::Object * &gt;</text>
</a>
</g>
<!-- Node9&#45;&gt;Node5 -->
<g id="edge20" class="edge"><title>Node9&#45;&gt;Node5</title>
<path fill="none" stroke="#9a32cd" stroke-dasharray="5,2" d="M789.891,-283.469C842.23,-290.202 912.67,-306.884 960,-348 1017.76,-398.177 1042.13,-493.356 1048.91,-525.266"/>
<polygon fill="#9a32cd" stroke="#9a32cd" points="790.021,-279.96 779.677,-282.251 789.192,-286.911 790.021,-279.96"/>
<text text-anchor="middle" x="902" y="-352" font-family="FreeSans" font-size="10.00"> eventSenders_</text>
</g>
<!-- Node10 -->
<g id="node20" class="node"><title>Node10</title>
<a xlink:href="a00330.html" target="_top" xlink:title="Vector base class.">
<polygon fill="none" stroke="black" points="411,-216.5 411,-237.5 525,-237.5 525,-216.5 411,-216.5"/>
<text text-anchor="middle" x="468" y="-224.5" font-family="FreeSans" font-size="10.00">Urho3D::VectorBase</text>
</a>
</g>
<!-- Node10&#45;&gt;Node9 -->
<g id="edge22" class="edge"><title>Node10&#45;&gt;Node9</title>
<path fill="none" stroke="midnightblue" d="M528.857,-239.558C568.718,-247.783 620.577,-258.484 660.22,-266.664"/>
<polygon fill="midnightblue" stroke="midnightblue" points="529.497,-236.116 518.996,-237.523 528.082,-242.972 529.497,-236.116"/>
</g>
<!-- Node18 -->
<g id="node43" class="node"><title>Node18</title>
<a xlink:href="a00230.html" target="_top" xlink:title="Urho3D::PODVector\&lt;\l Urho3D::HashMap * \&gt;">
<polygon fill="none" stroke="black" points="656.5,-210 656.5,-244 783.5,-244 783.5,-210 656.5,-210"/>
<text text-anchor="start" x="664.5" y="-231" font-family="FreeSans" font-size="10.00">Urho3D::PODVector&lt;</text>
<text text-anchor="middle" x="720" y="-218" font-family="FreeSans" font-size="10.00"> Urho3D::HashMap * &gt;</text>
</a>
</g>
<!-- Node10&#45;&gt;Node18 -->
<g id="edge54" class="edge"><title>Node10&#45;&gt;Node18</title>
<path fill="none" stroke="midnightblue" d="M535.52,-227C573.063,-227 619.507,-227 656.402,-227"/>
<polygon fill="midnightblue" stroke="midnightblue" points="535.183,-223.5 525.183,-227 535.183,-230.5 535.183,-223.5"/>
</g>
<!-- Node20 -->
<g id="node49" class="node"><title>Node20</title>
<a xlink:href="a00326.html" target="_top" xlink:title="Urho3D::Vector\&lt; Urho3D\l::SharedPtr\&lt; WorkerThread \&gt; \&gt;">
<polygon fill="none" stroke="black" points="635,-158 635,-192 805,-192 805,-158 635,-158"/>
<text text-anchor="start" x="643" y="-179" font-family="FreeSans" font-size="10.00">Urho3D::Vector&lt; Urho3D</text>
<text text-anchor="middle" x="720" y="-166" font-family="FreeSans" font-size="10.00">::SharedPtr&lt; WorkerThread &gt; &gt;</text>
</a>
</g>
<!-- Node10&#45;&gt;Node20 -->
<g id="edge62" class="edge"><title>Node10&#45;&gt;Node20</title>
<path fill="none" stroke="midnightblue" d="M528.828,-214.448C561.386,-207.73 601.955,-199.359 637.333,-192.058"/>
<polygon fill="midnightblue" stroke="midnightblue" points="528.082,-211.028 518.996,-216.477 529.497,-217.884 528.082,-211.028"/>
</g>
<!-- Node11&#45;&gt;Node5 -->
<g id="edge24" class="edge"><title>Node11&#45;&gt;Node5</title>
<path fill="none" stroke="#9a32cd" stroke-dasharray="5,2" d="M819.098,-489.76C879.571,-501.818 954.223,-516.703 1002.21,-526.272"/>
<polygon fill="#9a32cd" stroke="#9a32cd" points="819.629,-486.297 809.137,-487.774 818.26,-493.162 819.629,-486.297"/>
<text text-anchor="middle" x="902" y="-520" font-family="FreeSans" font-size="10.00"> subsystems_</text>
</g>
<!-- Node12&#45;&gt;Node5 -->
<g id="edge28" class="edge"><title>Node12&#45;&gt;Node5</title>
<path fill="none" stroke="#9a32cd" stroke-dasharray="5,2" d="M816.463,-427.365C861.169,-439.791 914.375,-456.895 960,-478 988.906,-491.371 1019.55,-512.561 1036.88,-525.288"/>
<polygon fill="#9a32cd" stroke="#9a32cd" points="817.335,-423.975 806.766,-424.705 815.484,-430.725 817.335,-423.975"/>
<text text-anchor="middle" x="902" y="-482" font-family="FreeSans" font-size="10.00"> objectCategories_</text>
</g>
<!-- Node13&#45;&gt;Node5 -->
<g id="edge32" class="edge"><title>Node13&#45;&gt;Node5</title>
<path fill="none" stroke="#9a32cd" stroke-dasharray="5,2" d="M792.28,-860.781C853.575,-857.436 935.354,-849.045 960,-828 1005.23,-789.381 1040.98,-594.783 1049.21,-546.737"/>
<polygon fill="#9a32cd" stroke="#9a32cd" points="792.055,-857.288 782.247,-861.295 792.413,-864.279 792.055,-857.288"/>
<text text-anchor="middle" x="902" y="-860" font-family="FreeSans" font-size="10.00"> eventHandler_</text>
</g>
<!-- Node19 -->
<g id="node46" class="node"><title>Node19</title>
<a xlink:href="a00169.html" target="_top" xlink:title="Urho3D::LinkedList\l\&lt; Urho3D::EventHandler \&gt;">
<polygon fill="none" stroke="black" points="978,-884 978,-918 1124,-918 1124,-884 978,-884"/>
<text text-anchor="start" x="986" y="-905" font-family="FreeSans" font-size="10.00">Urho3D::LinkedList</text>
<text text-anchor="middle" x="1051" y="-892" font-family="FreeSans" font-size="10.00">&lt; Urho3D::EventHandler &gt;</text>
</a>
</g>
<!-- Node13&#45;&gt;Node19 -->
<g id="edge58" class="edge"><title>Node13&#45;&gt;Node19</title>
<path fill="none" stroke="#9a32cd" stroke-dasharray="5,2" d="M792.455,-869.822C840.116,-874.488 903.835,-881.066 960,-888 965.702,-888.704 971.6,-889.467 977.526,-890.259"/>
<polygon fill="#9a32cd" stroke="#9a32cd" points="792.525,-866.312 782.232,-868.826 791.846,-873.279 792.525,-866.312"/>
<text text-anchor="middle" x="902" y="-892" font-family="FreeSans" font-size="10.00"> head_</text>
</g>
<!-- Node14 -->
<g id="node30" class="node"><title>Node14</title>
<a xlink:href="a00170.html" target="_top" xlink:title="Singly&#45;linked list node base class.">
<polygon fill="none" stroke="black" points="402,-879.5 402,-900.5 534,-900.5 534,-879.5 402,-879.5"/>
<text text-anchor="middle" x="468" y="-887.5" font-family="FreeSans" font-size="10.00">Urho3D::LinkedListNode</text>
</a>
</g>
<!-- Node14&#45;&gt;Node13 -->
<g id="edge34" class="edge"><title>Node14&#45;&gt;Node13</title>
<path fill="none" stroke="midnightblue" d="M544.259,-881.829C580.549,-877.941 623.396,-873.35 657.698,-869.675"/>
<polygon fill="midnightblue" stroke="midnightblue" points="543.78,-878.361 534.21,-882.906 544.526,-885.321 543.78,-878.361"/>
</g>
<!-- Node14&#45;&gt;Node14 -->
<g id="edge36" class="edge"><title>Node14&#45;&gt;Node14</title>
<path fill="none" stroke="#9a32cd" stroke-dasharray="5,2" d="M448.465,-910.427C449.972,-915.349 456.484,-919 468,-919 486.426,-919 492.04,-909.653 484.842,-900.708"/>
<polygon fill="#9a32cd" stroke="#9a32cd" points="451.861,-911.279 451.158,-900.708 445.115,-909.41 451.861,-911.279"/>
<text text-anchor="middle" x="468" y="-923" font-family="FreeSans" font-size="10.00"> next_</text>
</g>
<!-- Node15&#45;&gt;Node5 -->
<g id="edge40" class="edge"><title>Node15&#45;&gt;Node5</title>
<path fill="none" stroke="#9a32cd" stroke-dasharray="5,2" d="M816.47,-355.977C862.98,-368.021 917.704,-387.445 960,-418 1001.52,-447.996 1033.25,-502.18 1045.5,-525.193"/>
<polygon fill="#9a32cd" stroke="#9a32cd" points="817.229,-352.559 806.677,-353.517 815.524,-359.348 817.229,-352.559"/>
<text text-anchor="middle" x="902" y="-422" font-family="FreeSans" font-size="10.00"> eventReceivers_</text>
</g>
<!-- Node16&#45;&gt;Node5 -->
<g id="edge44" class="edge"><title>Node16&#45;&gt;Node5</title>
<path fill="none" stroke="#9a32cd" stroke-dasharray="5,2" d="M825.661,-651.211C868.619,-639.805 917.942,-623.897 960,-603 991.274,-587.461 1023.05,-561.139 1039.51,-546.542"/>
<polygon fill="#9a32cd" stroke="#9a32cd" points="824.539,-647.886 815.744,-653.794 826.304,-654.66 824.539,-647.886"/>
<text text-anchor="middle" x="902" y="-649" font-family="FreeSans" font-size="10.00"> specificEventReceivers_</text>
</g>
<!-- Node17&#45;&gt;Node5 -->
<g id="edge48" class="edge"><title>Node17&#45;&gt;Node5</title>
<path fill="none" stroke="#9a32cd" stroke-dasharray="5,2" d="M836.135,-588.625C875.712,-582.999 920.042,-575.511 960,-566 981.523,-560.877 1005.24,-552.98 1023.07,-546.574"/>
<polygon fill="#9a32cd" stroke="#9a32cd" points="835.601,-585.165 826.181,-590.015 836.57,-592.098 835.601,-585.165"/>
<text text-anchor="middle" x="902" y="-590" font-family="FreeSans" font-size="10.00"> factories_</text>
</g>
<!-- Node18&#45;&gt;Node5 -->
<g id="edge52" class="edge"><title>Node18&#45;&gt;Node5</title>
<path fill="none" stroke="#9a32cd" stroke-dasharray="5,2" d="M793.813,-223.885C846.068,-225.618 914.652,-236.406 960,-276 999.987,-310.914 1039.05,-480.798 1048.73,-525.307"/>
<polygon fill="#9a32cd" stroke="#9a32cd" points="793.669,-220.38 783.592,-223.653 793.51,-227.379 793.669,-220.38"/>
<text text-anchor="middle" x="902" y="-280" font-family="FreeSans" font-size="10.00"> eventDataMaps_</text>
</g>
<!-- Node19&#45;&gt;Node2 -->
<g id="edge56" class="edge"><title>Node19&#45;&gt;Node2</title>
<path fill="none" stroke="#9a32cd" stroke-dasharray="5,2" d="M967.627,-902.933C879.31,-903.732 736.051,-901.458 614,-883 586.068,-878.776 578.101,-879.805 552,-869 525.234,-857.92 497.422,-838.557 481.465,-826.555"/>
<polygon fill="#9a32cd" stroke="#9a32cd" points="967.892,-906.431 977.855,-902.825 967.818,-899.431 967.892,-906.431"/>
<text text-anchor="middle" x="720" y="-905" font-family="FreeSans" font-size="10.00"> eventHandlers_</text>
</g>
<!-- Node20&#45;&gt;Node1 -->
<g id="edge60" class="edge"><title>Node20&#45;&gt;Node1</title>
<path fill="none" stroke="#9a32cd" stroke-dasharray="5,2" d="M815.293,-164.914C859.412,-159.878 912.471,-153.303 960,-146 972.232,-144.12 985.338,-141.834 997.686,-139.554"/>
<polygon fill="#9a32cd" stroke="#9a32cd" points="814.695,-161.459 805.153,-166.062 815.483,-168.415 814.695,-161.459"/>
<text text-anchor="middle" x="902" y="-166" font-family="FreeSans" font-size="10.00"> threads_</text>
</g>
<!-- Node21 -->
<g id="node52" class="node"><title>Node21</title>
<a xlink:href="a00171.html" target="_top" xlink:title="Urho3D::List\&lt; Urho3D\l::WorkItem * \&gt;">
<polygon fill="none" stroke="black" points="658,-66 658,-100 782,-100 782,-66 658,-66"/>
<text text-anchor="start" x="666" y="-87" font-family="FreeSans" font-size="10.00">Urho3D::List&lt; Urho3D</text>
<text text-anchor="middle" x="720" y="-74" font-family="FreeSans" font-size="10.00">::WorkItem * &gt;</text>
</a>
</g>
<!-- Node21&#45;&gt;Node1 -->
<g id="edge64" class="edge"><title>Node21&#45;&gt;Node1</title>
<path fill="none" stroke="#9a32cd" stroke-dasharray="5,2" d="M792.293,-90.507C840.016,-95.7646 903.865,-103.374 960,-112 972.232,-113.88 985.338,-116.166 997.686,-118.446"/>
<polygon fill="#9a32cd" stroke="#9a32cd" points="792.379,-86.9956 782.058,-89.3881 791.619,-93.9542 792.379,-86.9956"/>
<text text-anchor="middle" x="902" y="-116" font-family="FreeSans" font-size="10.00"> queue_</text>
</g>
<!-- Node22&#45;&gt;Node21 -->
<g id="edge66" class="edge"><title>Node22&#45;&gt;Node21</title>
<path fill="none" stroke="midnightblue" d="M528.294,-83C567.476,-83 618.429,-83 657.955,-83"/>
<polygon fill="midnightblue" stroke="midnightblue" points="528.088,-79.5001 518.088,-83 528.088,-86.5001 528.088,-79.5001"/>
</g>
<!-- Node24 -->
<g id="node60" class="node"><title>Node24</title>
<a xlink:href="a00171.html" target="_top" xlink:title="Urho3D::List\&lt; Urho3D\l::SharedPtr\&lt; Urho3D::\lWorkItem \&gt; \&gt;">
<polygon fill="none" stroke="black" points="657.5,-0.5 657.5,-47.5 782.5,-47.5 782.5,-0.5 657.5,-0.5"/>
<text text-anchor="start" x="665.5" y="-34.5" font-family="FreeSans" font-size="10.00">Urho3D::List&lt; Urho3D</text>
<text text-anchor="start" x="665.5" y="-21.5" font-family="FreeSans" font-size="10.00">::SharedPtr&lt; Urho3D::</text>
<text text-anchor="middle" x="720" y="-8.5" font-family="FreeSans" font-size="10.00">WorkItem &gt; &gt;</text>
</a>
</g>
<!-- Node22&#45;&gt;Node24 -->
<g id="edge76" class="edge"><title>Node22&#45;&gt;Node24</title>
<path fill="none" stroke="midnightblue" d="M522.809,-70.1677C562.432,-60.8909 616.036,-48.3408 657.354,-38.6672"/>
<polygon fill="midnightblue" stroke="midnightblue" points="521.991,-66.7644 513.053,-72.452 523.587,-73.5801 521.991,-66.7644"/>
</g>
<!-- Node23 -->
<g id="node57" class="node"><title>Node23</title>
<a xlink:href="a00174.html" target="_top" xlink:title="Doubly&#45;linked list node base class.">
<polygon fill="none" stroke="black" points="189.5,-72.5 189.5,-93.5 314.5,-93.5 314.5,-72.5 189.5,-72.5"/>
<text text-anchor="middle" x="252" y="-80.5" font-family="FreeSans" font-size="10.00">Urho3D::ListNodeBase</text>
</a>
</g>
<!-- Node23&#45;&gt;Node22 -->
<g id="edge70" class="edge"><title>Node23&#45;&gt;Node22</title>
<path fill="none" stroke="#9a32cd" stroke-dasharray="5,2" d="M324.941,-83C355.465,-83 390.181,-83 417.769,-83"/>
<polygon fill="#9a32cd" stroke="#9a32cd" points="324.766,-79.5001 314.766,-83 324.766,-86.5001 324.766,-79.5001"/>
<text text-anchor="middle" x="359" y="-100" font-family="FreeSans" font-size="10.00"> tail_</text>
<text text-anchor="middle" x="359" y="-87" font-family="FreeSans" font-size="10.00">head_</text>
</g>
<!-- Node23&#45;&gt;Node23 -->
<g id="edge72" class="edge"><title>Node23&#45;&gt;Node23</title>
<path fill="none" stroke="#9a32cd" stroke-dasharray="5,2" d="M232.465,-103.427C233.972,-108.349 240.484,-112 252,-112 270.426,-112 276.04,-102.653 268.842,-93.7079"/>
<polygon fill="#9a32cd" stroke="#9a32cd" points="235.861,-104.279 235.158,-93.7079 229.115,-102.41 235.861,-104.279"/>
<text text-anchor="middle" x="252" y="-129" font-family="FreeSans" font-size="10.00"> next_</text>
<text text-anchor="middle" x="252" y="-116" font-family="FreeSans" font-size="10.00">prev_</text>
</g>
<!-- Node24&#45;&gt;Node1 -->
<g id="edge74" class="edge"><title>Node24&#45;&gt;Node1</title>
<path fill="none" stroke="#9a32cd" stroke-dasharray="5,2" d="M792.806,-29.0509C841.569,-34.339 906.401,-45.113 960,-67 991.149,-79.7196 1022.48,-104.254 1039.02,-118.347"/>
<polygon fill="#9a32cd" stroke="#9a32cd" points="792.96,-25.5483 782.654,-28.0037 792.242,-32.5114 792.96,-25.5483"/>
<text text-anchor="middle" x="902" y="-84" font-family="FreeSans" font-size="10.00"> poolItems_</text>
<text text-anchor="middle" x="902" y="-71" font-family="FreeSans" font-size="10.00">workItems_</text>
</g>
<!-- Node25 -->
<g id="node63" class="node"><title>Node25</title>
<a xlink:href="a00192.html" target="_top" xlink:title="Operating system mutual exclusion primitive.">
<polygon fill="none" stroke="black" points="675.5,-118.5 675.5,-139.5 764.5,-139.5 764.5,-118.5 675.5,-118.5"/>
<text text-anchor="middle" x="720" y="-126.5" font-family="FreeSans" font-size="10.00">Urho3D::Mutex</text>
</a>
</g>
<!-- Node25&#45;&gt;Node1 -->
<g id="edge78" class="edge"><title>Node25&#45;&gt;Node1</title>
<path fill="none" stroke="#9a32cd" stroke-dasharray="5,2" d="M774.793,-129C835.499,-129 932.907,-129 994.349,-129"/>
<polygon fill="#9a32cd" stroke="#9a32cd" points="774.64,-125.5 764.64,-129 774.64,-132.5 774.64,-125.5"/>
<text text-anchor="middle" x="902" y="-133" font-family="FreeSans" font-size="10.00"> queueMutex_</text>
</g>
</g>
</svg>
