<?xml version="1.0" encoding="UTF-8" standalone="no"?>
<!DOCTYPE svg PUBLIC "-//W3C//DTD SVG 1.1//EN"
 "http://www.w3.org/Graphics/SVG/1.1/DTD/svg11.dtd">
<!-- Generated by graphviz version 2.26.3 (20100126.1600)
 -->
<!-- Title: Urho3D::TechniqueEntry Pages: 1 -->
<svg width="1534pt" height="810pt"
 viewBox="0.00 0.00 1534.00 810.00" xmlns="http://www.w3.org/2000/svg" xmlns:xlink="http://www.w3.org/1999/xlink">
<g id="graph1" class="graph" transform="scale(1 1) rotate(0) translate(4 806)">
<title>Urho3D::TechniqueEntry</title>
<!-- Node1 -->
<g id="node1" class="node"><title>Node1</title>
<polygon fill="#bfbfbf" stroke="black" points="1394.5,-114.5 1394.5,-135.5 1525.5,-135.5 1525.5,-114.5 1394.5,-114.5"/>
<text text-anchor="middle" x="1460" y="-122.5" font-family="FreeSans" font-size="10.00">Urho3D::TechniqueEntry</text>
</g>
<!-- Node2 -->
<g id="node2" class="node"><title>Node2</title>
<a xlink:href="a00271.html" target="_top" xlink:title="Urho3D::SharedPtr\&lt;\l Urho3D::Technique \&gt;">
<polygon fill="none" stroke="black" points="1180.5,-108 1180.5,-142 1301.5,-142 1301.5,-108 1180.5,-108"/>
<text text-anchor="start" x="1188.5" y="-129" font-family="FreeSans" font-size="10.00">Urho3D::SharedPtr&lt;</text>
<text text-anchor="middle" x="1241" y="-116" font-family="FreeSans" font-size="10.00"> Urho3D::Technique &gt;</text>
</a>
</g>
<!-- Node2&#45;&gt;Node1 -->
<g id="edge2" class="edge"><title>Node2&#45;&gt;Node1</title>
<path fill="none" stroke="#9a32cd" stroke-dasharray="5,2" d="M1312.03,-125C1338.43,-125 1368.26,-125 1394.18,-125"/>
<polygon fill="#9a32cd" stroke="#9a32cd" points="1311.71,-121.5 1301.71,-125 1311.71,-128.5 1311.71,-121.5"/>
<text text-anchor="middle" x="1348" y="-129" font-family="FreeSans" font-size="10.00"> technique_</text>
</g>
<!-- Node3 -->
<g id="node4" class="node"><title>Node3</title>
<a xlink:href="a00291.html" target="_top" xlink:title="Material technique. Consists of several passes.">
<polygon fill="none" stroke="black" points="995.5,-114.5 995.5,-135.5 1102.5,-135.5 1102.5,-114.5 995.5,-114.5"/>
<text text-anchor="middle" x="1049" y="-122.5" font-family="FreeSans" font-size="10.00">Urho3D::Technique</text>
</a>
</g>
<!-- Node3&#45;&gt;Node2 -->
<g id="edge4" class="edge"><title>Node3&#45;&gt;Node2</title>
<path fill="none" stroke="#9a32cd" stroke-dasharray="5,2" d="M1112.84,-125C1134.54,-125 1158.71,-125 1180.17,-125"/>
<polygon fill="#9a32cd" stroke="#9a32cd" points="1112.74,-121.5 1102.74,-125 1112.74,-128.5 1112.74,-121.5"/>
<text text-anchor="middle" x="1151" y="-129" font-family="FreeSans" font-size="10.00"> ptr_</text>
</g>
<!-- Node4 -->
<g id="node6" class="node"><title>Node4</title>
<a xlink:href="a00245.html" target="_top" xlink:title="Base class for resources.">
<polygon fill="none" stroke="black" points="666.5,-154.5 666.5,-175.5 769.5,-175.5 769.5,-154.5 666.5,-154.5"/>
<text text-anchor="middle" x="718" y="-162.5" font-family="FreeSans" font-size="10.00">Urho3D::Resource</text>
</a>
</g>
<!-- Node4&#45;&gt;Node3 -->
<g id="edge6" class="edge"><title>Node4&#45;&gt;Node3</title>
<path fill="none" stroke="midnightblue" d="M779.768,-157.536C841.825,-150.036 936.485,-138.597 995.451,-131.471"/>
<polygon fill="midnightblue" stroke="midnightblue" points="779.227,-154.075 769.719,-158.75 780.066,-161.025 779.227,-154.075"/>
</g>
<!-- Node5 -->
<g id="node8" class="node"><title>Node5</title>
<a xlink:href="a00202.html" target="_top" xlink:title="Base class for objects with type identification, subsystem access and event sending/receiving capabil...">
<polygon fill="none" stroke="black" points="405,-676.5 405,-697.5 495,-697.5 495,-676.5 405,-676.5"/>
<text text-anchor="middle" x="450" y="-684.5" font-family="FreeSans" font-size="10.00">Urho3D::Object</text>
</a>
</g>
<!-- Node5&#45;&gt;Node4 -->
<g id="edge8" class="edge"><title>Node5&#45;&gt;Node4</title>
<path fill="none" stroke="midnightblue" d="M469.155,-668.82C483.486,-654.202 502.517,-632.462 514,-610 528.622,-581.398 522.865,-570.797 532,-540 556.54,-457.267 575.594,-440.31 594,-356 602.15,-318.669 586.106,-213.098 612,-185 625.706,-170.127 646.714,-164.243 666.422,-162.412"/>
<polygon fill="midnightblue" stroke="midnightblue" points="466.384,-666.639 461.754,-676.168 471.316,-671.606 466.384,-666.639"/>
</g>
<!-- Node13 -->
<g id="node25" class="node"><title>Node13</title>
<a xlink:href="a00120.html" target="_top" xlink:title="Internal helper class for invoking event handler functions.">
<polygon fill="none" stroke="red" points="656,-703.5 656,-724.5 780,-724.5 780,-703.5 656,-703.5"/>
<text text-anchor="middle" x="718" y="-711.5" font-family="FreeSans" font-size="10.00">Urho3D::EventHandler</text>
</a>
</g>
<!-- Node5&#45;&gt;Node13 -->
<g id="edge28" class="edge"><title>Node5&#45;&gt;Node13</title>
<path fill="none" stroke="#9a32cd" stroke-dasharray="5,2" d="M505.095,-683.35C532.065,-682.585 564.913,-683.176 594,-688 602.319,-689.38 603.838,-691.88 612,-694 626.048,-697.649 641.305,-700.921 655.751,-703.711"/>
<polygon fill="#9a32cd" stroke="#9a32cd" points="504.936,-679.853 495.066,-683.703 505.183,-686.849 504.936,-679.853"/>
<text text-anchor="middle" x="563" y="-705" font-family="FreeSans" font-size="10.00"> sender_</text>
<text text-anchor="middle" x="563" y="-692" font-family="FreeSans" font-size="10.00">receiver_</text>
</g>
<!-- Node6 -->
<g id="node10" class="node"><title>Node6</title>
<a xlink:href="a00237.html" target="_top" xlink:title="Base class for intrusively reference&#45;counted objects. These are noncopyable and non&#45;assignable.">
<polygon fill="none" stroke="black" points="195,-709.5 195,-730.5 309,-730.5 309,-709.5 195,-709.5"/>
<text text-anchor="middle" x="252" y="-717.5" font-family="FreeSans" font-size="10.00">Urho3D::RefCounted</text>
</a>
</g>
<!-- Node6&#45;&gt;Node5 -->
<g id="edge10" class="edge"><title>Node6&#45;&gt;Node5</title>
<path fill="none" stroke="midnightblue" d="M319.228,-708.795C347.506,-704.082 379.652,-698.725 404.997,-694.501"/>
<polygon fill="midnightblue" stroke="midnightblue" points="318.293,-705.403 309.004,-710.499 319.444,-712.308 318.293,-705.403"/>
</g>
<!-- Node8 -->
<g id="node14" class="node"><title>Node8</title>
<a xlink:href="a00097.html" target="_top" xlink:title="Urho3D execution context. Provides access to subsystems, object factories and attributes, and event receivers.">
<polygon fill="none" stroke="red" points="1000.5,-513.5 1000.5,-534.5 1097.5,-534.5 1097.5,-513.5 1000.5,-513.5"/>
<text text-anchor="middle" x="1049" y="-521.5" font-family="FreeSans" font-size="10.00">Urho3D::Context</text>
</a>
</g>
<!-- Node6&#45;&gt;Node8 -->
<g id="edge16" class="edge"><title>Node6&#45;&gt;Node8</title>
<path fill="none" stroke="midnightblue" d="M319.207,-724.371C485.582,-734.58 906.92,-756.475 958,-720 1023.03,-673.562 1042.84,-568.714 1047.66,-534.801"/>
<polygon fill="midnightblue" stroke="midnightblue" points="319.295,-720.87 309.098,-723.746 318.863,-727.856 319.295,-720.87"/>
</g>
<!-- Node7 -->
<g id="node12" class="node"><title>Node7</title>
<a xlink:href="a00236.html" target="_top" xlink:title="Reference count structure.">
<polygon fill="none" stroke="black" points="0,-709.5 0,-730.5 102,-730.5 102,-709.5 0,-709.5"/>
<text text-anchor="middle" x="51" y="-717.5" font-family="FreeSans" font-size="10.00">Urho3D::RefCount</text>
</a>
</g>
<!-- Node7&#45;&gt;Node6 -->
<g id="edge12" class="edge"><title>Node7&#45;&gt;Node6</title>
<path fill="none" stroke="#9a32cd" stroke-dasharray="5,2" d="M112.441,-720C138.665,-720 169.09,-720 194.827,-720"/>
<polygon fill="#9a32cd" stroke="#9a32cd" points="112.241,-716.5 102.241,-720 112.241,-723.5 112.241,-716.5"/>
<text text-anchor="middle" x="145" y="-724" font-family="FreeSans" font-size="10.00"> refCount_</text>
</g>
<!-- Node8&#45;&gt;Node5 -->
<g id="edge14" class="edge"><title>Node8&#45;&gt;Node5</title>
<path fill="none" stroke="#9a32cd" stroke-dasharray="5,2" d="M990.435,-529.144C871.832,-539.573 614.233,-562.285 612,-563 543.193,-585.048 481.175,-650.698 458.82,-676.459"/>
<polygon fill="#9a32cd" stroke="#9a32cd" points="990.786,-532.627 1000.44,-528.265 990.173,-525.654 990.786,-532.627"/>
<text text-anchor="middle" x="718" y="-567" font-family="FreeSans" font-size="10.00"> context_</text>
</g>
<!-- Node9 -->
<g id="node17" class="node"><title>Node9</title>
<a xlink:href="a00143.html" target="_top" xlink:title="Urho3D::HashMap\&lt; Urho3D\l::ShortStringHash, Urho3D\l::Vector\&lt; Urho3D::AttributeInfo \&gt; \&gt;">
<polygon fill="none" stroke="red" points="623.5,-637.5 623.5,-684.5 812.5,-684.5 812.5,-637.5 623.5,-637.5"/>
<text text-anchor="start" x="631.5" y="-671.5" font-family="FreeSans" font-size="10.00">Urho3D::HashMap&lt; Urho3D</text>
<text text-anchor="start" x="631.5" y="-658.5" font-family="FreeSans" font-size="10.00">::ShortStringHash, Urho3D</text>
<text text-anchor="middle" x="718" y="-645.5" font-family="FreeSans" font-size="10.00">::Vector&lt; Urho3D::AttributeInfo &gt; &gt;</text>
</a>
</g>
<!-- Node9&#45;&gt;Node8 -->
<g id="edge18" class="edge"><title>Node9&#45;&gt;Node8</title>
<path fill="none" stroke="#9a32cd" stroke-dasharray="5,2" d="M822.626,-650.14C866.292,-642.559 916.421,-629.72 958,-608 993.827,-589.285 1026.11,-552.756 1040.73,-534.67"/>
<polygon fill="#9a32cd" stroke="#9a32cd" points="821.836,-646.723 812.546,-651.817 822.985,-653.628 821.836,-646.723"/>
<text text-anchor="middle" x="900" y="-663" font-family="FreeSans" font-size="10.00"> attributes_</text>
<text text-anchor="middle" x="900" y="-650" font-family="FreeSans" font-size="10.00">networkAttributes_</text>
</g>
<!-- Node10 -->
<g id="node19" class="node"><title>Node10</title>
<a xlink:href="a00223.html" target="_top" xlink:title="Urho3D::PODVector\&lt;\l Urho3D::Object * \&gt;">
<polygon fill="none" stroke="red" points="658.5,-585 658.5,-619 777.5,-619 777.5,-585 658.5,-585"/>
<text text-anchor="start" x="666.5" y="-606" font-family="FreeSans" font-size="10.00">Urho3D::PODVector&lt;</text>
<text text-anchor="middle" x="718" y="-593" font-family="FreeSans" font-size="10.00"> Urho3D::Object * &gt;</text>
</a>
</g>
<!-- Node10&#45;&gt;Node8 -->
<g id="edge20" class="edge"><title>Node10&#45;&gt;Node8</title>
<path fill="none" stroke="#9a32cd" stroke-dasharray="5,2" d="M787.883,-597.829C836.437,-593.553 902.187,-584.993 958,-568 984.692,-559.873 1013.33,-544.868 1031.2,-534.664"/>
<polygon fill="#9a32cd" stroke="#9a32cd" points="787.464,-594.352 777.793,-598.678 788.051,-601.327 787.464,-594.352"/>
<text text-anchor="middle" x="900" y="-595" font-family="FreeSans" font-size="10.00"> eventSenders_</text>
</g>
<!-- Node11 -->
<g id="node21" class="node"><title>Node11</title>
<a xlink:href="a00143.html" target="_top" xlink:title="Urho3D::HashMap\&lt; Urho3D\l::ShortStringHash, Urho3D\l::SharedPtr\&lt; Urho3D::Object \&gt; \&gt;">
<polygon fill="none" stroke="red" points="629,-404.5 629,-451.5 807,-451.5 807,-404.5 629,-404.5"/>
<text text-anchor="start" x="637" y="-438.5" font-family="FreeSans" font-size="10.00">Urho3D::HashMap&lt; Urho3D</text>
<text text-anchor="start" x="637" y="-425.5" font-family="FreeSans" font-size="10.00">::ShortStringHash, Urho3D</text>
<text text-anchor="middle" x="718" y="-412.5" font-family="FreeSans" font-size="10.00">::SharedPtr&lt; Urho3D::Object &gt; &gt;</text>
</a>
</g>
<!-- Node11&#45;&gt;Node8 -->
<g id="edge22" class="edge"><title>Node11&#45;&gt;Node8</title>
<path fill="none" stroke="#9a32cd" stroke-dasharray="5,2" d="M816.879,-449.622C860.515,-459.957 912.191,-473.283 958,-488 981.131,-495.431 1006.82,-505.793 1024.98,-513.493"/>
<polygon fill="#9a32cd" stroke="#9a32cd" points="817.658,-446.21 807.122,-447.33 816.056,-453.024 817.658,-446.21"/>
<text text-anchor="middle" x="900" y="-492" font-family="FreeSans" font-size="10.00"> subsystems_</text>
</g>
<!-- Node12 -->
<g id="node23" class="node"><title>Node12</title>
<a xlink:href="a00143.html" target="_top" xlink:title="Urho3D::HashMap\&lt; Urho3D\l::String, Urho3D::Vector\l\&lt; Urho3D::ShortStringHash \&gt; \&gt;">
<polygon fill="none" stroke="red" points="631.5,-338.5 631.5,-385.5 804.5,-385.5 804.5,-338.5 631.5,-338.5"/>
<text text-anchor="start" x="639.5" y="-372.5" font-family="FreeSans" font-size="10.00">Urho3D::HashMap&lt; Urho3D</text>
<text text-anchor="start" x="639.5" y="-359.5" font-family="FreeSans" font-size="10.00">::String, Urho3D::Vector</text>
<text text-anchor="middle" x="718" y="-346.5" font-family="FreeSans" font-size="10.00">&lt; Urho3D::ShortStringHash &gt; &gt;</text>
</a>
</g>
<!-- Node12&#45;&gt;Node8 -->
<g id="edge24" class="edge"><title>Node12&#45;&gt;Node8</title>
<path fill="none" stroke="#9a32cd" stroke-dasharray="5,2" d="M814.553,-382.417C860.094,-394.629 913.968,-412.946 958,-439 992.792,-459.587 1025.31,-495.452 1040.31,-513.29"/>
<polygon fill="#9a32cd" stroke="#9a32cd" points="815.23,-378.976 804.67,-379.826 813.455,-385.747 815.23,-378.976"/>
<text text-anchor="middle" x="900" y="-443" font-family="FreeSans" font-size="10.00"> objectCategories_</text>
</g>
<!-- Node13&#45;&gt;Node8 -->
<g id="edge26" class="edge"><title>Node13&#45;&gt;Node8</title>
<path fill="none" stroke="#9a32cd" stroke-dasharray="5,2" d="M790.418,-709.26C850.856,-704.099 931.276,-694.056 958,-676 1010.75,-640.357 1037.69,-562.974 1046.07,-534.657"/>
<polygon fill="#9a32cd" stroke="#9a32cd" points="789.822,-705.797 780.143,-710.107 790.397,-712.774 789.822,-705.797"/>
<text text-anchor="middle" x="900" y="-707" font-family="FreeSans" font-size="10.00"> eventHandler_</text>
</g>
<!-- Node18 -->
<g id="node37" class="node"><title>Node18</title>
<a xlink:href="a00165.html" target="_top" xlink:title="Urho3D::LinkedList\l\&lt; Urho3D::EventHandler \&gt;">
<polygon fill="none" stroke="black" points="976,-768 976,-802 1122,-802 1122,-768 976,-768"/>
<text text-anchor="start" x="984" y="-789" font-family="FreeSans" font-size="10.00">Urho3D::LinkedList</text>
<text text-anchor="middle" x="1049" y="-776" font-family="FreeSans" font-size="10.00">&lt; Urho3D::EventHandler &gt;</text>
</a>
</g>
<!-- Node13&#45;&gt;Node18 -->
<g id="edge42" class="edge"><title>Node13&#45;&gt;Node18</title>
<path fill="none" stroke="#9a32cd" stroke-dasharray="5,2" d="M777.246,-726.708C832.861,-738.638 916.21,-756.516 975.926,-769.326"/>
<polygon fill="#9a32cd" stroke="#9a32cd" points="777.708,-723.228 767.197,-724.553 776.24,-730.072 777.708,-723.228"/>
<text text-anchor="middle" x="900" y="-768" font-family="FreeSans" font-size="10.00"> head_</text>
</g>
<!-- Node14 -->
<g id="node28" class="node"><title>Node14</title>
<a xlink:href="a00290.html" target="_top" xlink:title="32&#45;bit hash value for a string.">
<polygon fill="none" stroke="black" points="393.5,-548.5 393.5,-569.5 506.5,-569.5 506.5,-548.5 393.5,-548.5"/>
<text text-anchor="middle" x="450" y="-556.5" font-family="FreeSans" font-size="10.00">Urho3D::StringHash</text>
</a>
</g>
<!-- Node14&#45;&gt;Node4 -->
<g id="edge50" class="edge"><title>Node14&#45;&gt;Node4</title>
<path fill="none" stroke="#9a32cd" stroke-dasharray="5,2" d="M457.556,-538.589C485.346,-463.977 581.838,-209.106 612,-185 627.214,-172.84 647.561,-167.26 666.36,-164.919"/>
<polygon fill="#9a32cd" stroke="#9a32cd" points="454.172,-537.648 453.97,-548.241 460.733,-540.086 454.172,-537.648"/>
<text text-anchor="middle" x="563" y="-343" font-family="FreeSans" font-size="10.00"> nameHash_</text>
</g>
<!-- Node14&#45;&gt;Node13 -->
<g id="edge30" class="edge"><title>Node14&#45;&gt;Node13</title>
<path fill="none" stroke="#9a32cd" stroke-dasharray="5,2" d="M477.373,-575.111C508.178,-594.143 558.54,-628.054 594,-666 604.101,-676.809 599.732,-685.733 612,-694 624.89,-702.686 640.564,-707.842 655.862,-710.844"/>
<polygon fill="#9a32cd" stroke="#9a32cd" points="478.84,-571.907 468.479,-569.694 475.199,-577.885 478.84,-571.907"/>
<text text-anchor="middle" x="563" y="-670" font-family="FreeSans" font-size="10.00"> eventType_</text>
</g>
<!-- Node14&#45;&gt;Node14 -->
<g id="edge32" class="edge"><title>Node14&#45;&gt;Node14</title>
<path fill="none" stroke="#9a32cd" stroke-dasharray="5,2" d="M431.94,-579.427C433.333,-584.349 439.353,-588 450,-588 467.035,-588 472.226,-578.653 465.571,-569.708"/>
<polygon fill="#9a32cd" stroke="#9a32cd" points="435.338,-580.264 434.429,-569.708 428.557,-578.527 435.338,-580.264"/>
<text text-anchor="middle" x="450" y="-592" font-family="FreeSans" font-size="10.00"> ZERO</text>
</g>
<!-- Node15 -->
<g id="node31" class="node"><title>Node15</title>
<a xlink:href="a00143.html" target="_top" xlink:title="Urho3D::HashMap\&lt; Urho3D\l::StringHash, Urho3D::\lHashSet\&lt; Urho3D::Object * \&gt; \&gt;">
<polygon fill="none" stroke="red" points="631.5,-470.5 631.5,-517.5 804.5,-517.5 804.5,-470.5 631.5,-470.5"/>
<text text-anchor="start" x="639.5" y="-504.5" font-family="FreeSans" font-size="10.00">Urho3D::HashMap&lt; Urho3D</text>
<text text-anchor="start" x="639.5" y="-491.5" font-family="FreeSans" font-size="10.00">::StringHash, Urho3D::</text>
<text text-anchor="middle" x="718" y="-478.5" font-family="FreeSans" font-size="10.00">HashSet&lt; Urho3D::Object * &gt; &gt;</text>
</a>
</g>
<!-- Node15&#45;&gt;Node8 -->
<g id="edge34" class="edge"><title>Node15&#45;&gt;Node8</title>
<path fill="none" stroke="#9a32cd" stroke-dasharray="5,2" d="M814.569,-502.752C875.545,-508.279 951.722,-515.183 1000.38,-519.593"/>
<polygon fill="#9a32cd" stroke="#9a32cd" points="814.809,-499.26 804.534,-501.843 814.177,-506.231 814.809,-499.26"/>
<text text-anchor="middle" x="900" y="-519" font-family="FreeSans" font-size="10.00"> eventReceivers_</text>
</g>
<!-- Node16 -->
<g id="node33" class="node"><title>Node16</title>
<a xlink:href="a00143.html" target="_top" xlink:title="Urho3D::HashMap\&lt; Urho3D\l::Object *, Urho3D::HashMap\l\&lt; Urho3D::StringHash, Urho3D\l::HashSet\&lt; Urho3D::Object * \&gt; \&gt; \&gt;">
<polygon fill="none" stroke="red" points="622.5,-260 622.5,-320 813.5,-320 813.5,-260 622.5,-260"/>
<text text-anchor="start" x="630.5" y="-307" font-family="FreeSans" font-size="10.00">Urho3D::HashMap&lt; Urho3D</text>
<text text-anchor="start" x="630.5" y="-294" font-family="FreeSans" font-size="10.00">::Object *, Urho3D::HashMap</text>
<text text-anchor="start" x="630.5" y="-281" font-family="FreeSans" font-size="10.00">&lt; Urho3D::StringHash, Urho3D</text>
<text text-anchor="middle" x="718" y="-268" font-family="FreeSans" font-size="10.00">::HashSet&lt; Urho3D::Object * &gt; &gt; &gt;</text>
</a>
</g>
<!-- Node16&#45;&gt;Node8 -->
<g id="edge36" class="edge"><title>Node16&#45;&gt;Node8</title>
<path fill="none" stroke="#9a32cd" stroke-dasharray="5,2" d="M823.326,-310.117C868.4,-322.723 919.419,-342.732 958,-374 1006.51,-413.315 1035.68,-485.852 1045.38,-513.193"/>
<polygon fill="#9a32cd" stroke="#9a32cd" points="824.074,-306.694 813.507,-307.46 822.246,-313.451 824.074,-306.694"/>
<text text-anchor="middle" x="900" y="-378" font-family="FreeSans" font-size="10.00"> specificEventReceivers_</text>
</g>
<!-- Node17 -->
<g id="node35" class="node"><title>Node17</title>
<a xlink:href="a00143.html" target="_top" xlink:title="Urho3D::HashMap\&lt; Urho3D\l::ShortStringHash, Urho3D\l::SharedPtr\&lt; Urho3D::ObjectFactory \&gt; \&gt;">
<polygon fill="none" stroke="red" points="612,-194.5 612,-241.5 824,-241.5 824,-194.5 612,-194.5"/>
<text text-anchor="start" x="620" y="-228.5" font-family="FreeSans" font-size="10.00">Urho3D::HashMap&lt; Urho3D</text>
<text text-anchor="start" x="620" y="-215.5" font-family="FreeSans" font-size="10.00">::ShortStringHash, Urho3D</text>
<text text-anchor="middle" x="718" y="-202.5" font-family="FreeSans" font-size="10.00">::SharedPtr&lt; Urho3D::ObjectFactory &gt; &gt;</text>
</a>
</g>
<!-- Node17&#45;&gt;Node8 -->
<g id="edge38" class="edge"><title>Node17&#45;&gt;Node8</title>
<path fill="none" stroke="#9a32cd" stroke-dasharray="5,2" d="M834.065,-236.085C877.514,-247.96 924.424,-267.59 958,-300 1022.93,-362.678 1042.98,-478.072 1047.74,-513.427"/>
<polygon fill="#9a32cd" stroke="#9a32cd" points="834.834,-232.668 824.274,-233.521 833.061,-239.44 834.834,-232.668"/>
<text text-anchor="middle" x="900" y="-304" font-family="FreeSans" font-size="10.00"> factories_</text>
</g>
<!-- Node18&#45;&gt;Node5 -->
<g id="edge40" class="edge"><title>Node18&#45;&gt;Node5</title>
<path fill="none" stroke="#9a32cd" stroke-dasharray="5,2" d="M965.523,-786.841C927.706,-786.789 882.492,-785.491 842,-781 738.301,-769.5 713.745,-757.102 612,-734 576.26,-725.885 567.207,-724.182 532,-714 514.723,-709.003 495.625,-702.758 480.21,-697.533"/>
<polygon fill="#9a32cd" stroke="#9a32cd" points="965.989,-790.341 975.983,-786.825 965.978,-783.341 965.989,-790.341"/>
<text text-anchor="middle" x="718" y="-782" font-family="FreeSans" font-size="10.00"> eventHandlers_</text>
</g>
<!-- Node19 -->
<g id="node40" class="node"><title>Node19</title>
<a xlink:href="a00304.html" target="_top" xlink:title="Low&#45;resolution operating system timer.">
<polygon fill="none" stroke="black" points="407,-154.5 407,-175.5 493,-175.5 493,-154.5 407,-154.5"/>
<text text-anchor="middle" x="450" y="-162.5" font-family="FreeSans" font-size="10.00">Urho3D::Timer</text>
</a>
</g>
<!-- Node19&#45;&gt;Node4 -->
<g id="edge44" class="edge"><title>Node19&#45;&gt;Node4</title>
<path fill="none" stroke="#9a32cd" stroke-dasharray="5,2" d="M503.121,-165C550.491,-165 619.406,-165 666.329,-165"/>
<polygon fill="#9a32cd" stroke="#9a32cd" points="503.059,-161.5 493.059,-165 503.059,-168.5 503.059,-161.5"/>
<text text-anchor="middle" x="563" y="-169" font-family="FreeSans" font-size="10.00"> useTimer_</text>
</g>
<!-- Node20 -->
<g id="node42" class="node"><title>Node20</title>
<a xlink:href="a00289.html" target="_top" xlink:title="String class.">
<polygon fill="none" stroke="black" points="406,-194.5 406,-215.5 494,-215.5 494,-194.5 406,-194.5"/>
<text text-anchor="middle" x="450" y="-202.5" font-family="FreeSans" font-size="10.00">Urho3D::String</text>
</a>
</g>
<!-- Node20&#45;&gt;Node4 -->
<g id="edge46" class="edge"><title>Node20&#45;&gt;Node4</title>
<path fill="none" stroke="#9a32cd" stroke-dasharray="5,2" d="M504.32,-196.893C551.651,-189.828 619.808,-179.656 666.337,-172.711"/>
<polygon fill="#9a32cd" stroke="#9a32cd" points="503.628,-193.457 494.255,-198.395 504.662,-200.38 503.628,-193.457"/>
<text text-anchor="middle" x="563" y="-196" font-family="FreeSans" font-size="10.00"> name_</text>
</g>
<!-- Node20&#45;&gt;Node20 -->
<g id="edge48" class="edge"><title>Node20&#45;&gt;Node20</title>
<path fill="none" stroke="#9a32cd" stroke-dasharray="5,2" d="M431.94,-225.427C433.333,-230.349 439.353,-234 450,-234 467.035,-234 472.226,-224.653 465.571,-215.708"/>
<polygon fill="#9a32cd" stroke="#9a32cd" points="435.338,-226.264 434.429,-215.708 428.557,-224.527 435.338,-226.264"/>
<text text-anchor="middle" x="450" y="-238" font-family="FreeSans" font-size="10.00"> EMPTY</text>
</g>
<!-- Node21 -->
<g id="node46" class="node"><title>Node21</title>
<a xlink:href="a00146.html" target="_top" xlink:title="Urho3D::HashTable\&lt;\l Urho3D::SharedPtr\&lt;\l Urho3D::Pass \&gt;, 16 \&gt;">
<polygon fill="none" stroke="black" points="655.5,-70.5 655.5,-117.5 780.5,-117.5 780.5,-70.5 655.5,-70.5"/>
<text text-anchor="start" x="663.5" y="-104.5" font-family="FreeSans" font-size="10.00">Urho3D::HashTable&lt;</text>
<text text-anchor="start" x="663.5" y="-91.5" font-family="FreeSans" font-size="10.00"> Urho3D::SharedPtr&lt;</text>
<text text-anchor="middle" x="718" y="-78.5" font-family="FreeSans" font-size="10.00"> Urho3D::Pass &gt;, 16 &gt;</text>
</a>
</g>
<!-- Node21&#45;&gt;Node3 -->
<g id="edge52" class="edge"><title>Node21&#45;&gt;Node3</title>
<path fill="none" stroke="#9a32cd" stroke-dasharray="5,2" d="M790.719,-100.811C852.498,-106.597 939.761,-114.769 995.36,-119.976"/>
<polygon fill="#9a32cd" stroke="#9a32cd" points="790.931,-97.3151 780.648,-99.8673 790.278,-104.285 790.931,-97.3151"/>
<text text-anchor="middle" x="900" y="-120" font-family="FreeSans" font-size="10.00"> passes_</text>
</g>
<!-- Node22 -->
<g id="node48" class="node"><title>Node22</title>
<a xlink:href="a00048.html" target="_top" xlink:title="Allocator memory block.">
<polygon fill="none" stroke="black" points="386.5,-83.5 386.5,-104.5 513.5,-104.5 513.5,-83.5 386.5,-83.5"/>
<text text-anchor="middle" x="450" y="-91.5" font-family="FreeSans" font-size="10.00">Urho3D::AllocatorBlock</text>
</a>
</g>
<!-- Node22&#45;&gt;Node21 -->
<g id="edge54" class="edge"><title>Node22&#45;&gt;Node21</title>
<path fill="none" stroke="#9a32cd" stroke-dasharray="5,2" d="M523.532,-94C564.892,-94 615.976,-94 655.406,-94"/>
<polygon fill="#9a32cd" stroke="#9a32cd" points="523.512,-90.5001 513.512,-94 523.512,-97.5001 523.512,-90.5001"/>
<text text-anchor="middle" x="563" y="-98" font-family="FreeSans" font-size="10.00"> allocator_</text>
</g>
<!-- Node22&#45;&gt;Node22 -->
<g id="edge56" class="edge"><title>Node22&#45;&gt;Node22</title>
<path fill="none" stroke="#9a32cd" stroke-dasharray="5,2" d="M431.94,-114.427C433.333,-119.349 439.353,-123 450,-123 467.035,-123 472.226,-113.653 465.571,-104.708"/>
<polygon fill="#9a32cd" stroke="#9a32cd" points="435.338,-115.264 434.429,-104.708 428.557,-113.527 435.338,-115.264"/>
<text text-anchor="middle" x="450" y="-127" font-family="FreeSans" font-size="10.00"> next_</text>
</g>
<!-- Node23 -->
<g id="node51" class="node"><title>Node23</title>
<a xlink:href="a00049.html" target="_top" xlink:title="Allocator node.">
<polygon fill="none" stroke="black" points="188.5,-83.5 188.5,-104.5 315.5,-104.5 315.5,-83.5 188.5,-83.5"/>
<text text-anchor="middle" x="252" y="-91.5" font-family="FreeSans" font-size="10.00">Urho3D::AllocatorNode</text>
</a>
</g>
<!-- Node23&#45;&gt;Node22 -->
<g id="edge58" class="edge"><title>Node23&#45;&gt;Node22</title>
<path fill="none" stroke="#9a32cd" stroke-dasharray="5,2" d="M325.975,-94C345.836,-94 367.136,-94 386.381,-94"/>
<polygon fill="#9a32cd" stroke="#9a32cd" points="325.738,-90.5001 315.738,-94 325.738,-97.5001 325.738,-90.5001"/>
<text text-anchor="middle" x="351" y="-98" font-family="FreeSans" font-size="10.00"> free_</text>
</g>
<!-- Node23&#45;&gt;Node23 -->
<g id="edge60" class="edge"><title>Node23&#45;&gt;Node23</title>
<path fill="none" stroke="#9a32cd" stroke-dasharray="5,2" d="M233.94,-114.427C235.333,-119.349 241.353,-123 252,-123 269.035,-123 274.226,-113.653 267.571,-104.708"/>
<polygon fill="#9a32cd" stroke="#9a32cd" points="237.338,-115.264 236.429,-104.708 230.557,-113.527 237.338,-115.264"/>
<text text-anchor="middle" x="252" y="-127" font-family="FreeSans" font-size="10.00"> next_</text>
</g>
<!-- Node24 -->
<g id="node54" class="node"><title>Node24</title>
<a xlink:href="a00199.html" target="_top" xlink:title="Hash table node.">
<polygon fill="none" stroke="black" points="392,-0 392,-34 508,-34 508,-0 392,-0"/>
<text text-anchor="start" x="400" y="-21" font-family="FreeSans" font-size="10.00">Urho3D::HashTable&lt;</text>
<text text-anchor="middle" x="450" y="-8" font-family="FreeSans" font-size="10.00"> T, U &gt;::Node</text>
</a>
</g>
<!-- Node24&#45;&gt;Node21 -->
<g id="edge62" class="edge"><title>Node24&#45;&gt;Node21</title>
<path fill="none" stroke="#9a32cd" stroke-dasharray="5,2" d="M517.8,-36.48C560.051,-48.6193 614.029,-64.1278 655.288,-75.9819"/>
<polygon fill="#9a32cd" stroke="#9a32cd" points="518.73,-33.1054 508.152,-33.7079 516.797,-39.8333 518.73,-33.1054"/>
<text text-anchor="middle" x="563" y="-62" font-family="FreeSans" font-size="10.00"> ptrs_</text>
</g>
<!-- Node24&#45;&gt;Node24 -->
<g id="edge64" class="edge"><title>Node24&#45;&gt;Node24</title>
<path fill="none" stroke="#9a32cd" stroke-dasharray="5,2" d="M432.933,-44.3176C435.33,-48.8645 441.019,-52 450,-52 464.738,-52 470.611,-43.5562 467.617,-34.2878"/>
<polygon fill="#9a32cd" stroke="#9a32cd" points="436.426,-44.081 432.383,-34.2878 429.436,-44.4645 436.426,-44.081"/>
<text text-anchor="middle" x="450" y="-56" font-family="FreeSans" font-size="10.00"> next_</text>
</g>
<!-- Node25 -->
<g id="node57" class="node"><title>Node25</title>
<polygon fill="none" stroke="#bfbfbf" points="237.5,-6.5 237.5,-27.5 266.5,-27.5 266.5,-6.5 237.5,-6.5"/>
<text text-anchor="middle" x="252" y="-14.5" font-family="FreeSans" font-size="10.00">T</text>
</g>
<!-- Node25&#45;&gt;Node24 -->
<g id="edge66" class="edge"><title>Node25&#45;&gt;Node24</title>
<path fill="none" stroke="#9a32cd" stroke-dasharray="5,2" d="M276.892,-17C305.588,-17 353.711,-17 391.944,-17"/>
<polygon fill="#9a32cd" stroke="#9a32cd" points="276.559,-13.5001 266.559,-17 276.559,-20.5001 276.559,-13.5001"/>
<text text-anchor="middle" x="351" y="-21" font-family="FreeSans" font-size="10.00"> value_</text>
</g>
</g>
</svg>
