<?xml version="1.0" encoding="UTF-8" standalone="no"?>
<!DOCTYPE svg PUBLIC "-//W3C//DTD SVG 1.1//EN"
 "http://www.w3.org/Graphics/SVG/1.1/DTD/svg11.dtd">
<!-- Generated by graphviz version 2.26.3 (20100126.1600)
 -->
<!-- Title: Urho3D::DecalSet Pages: 1 -->
<svg width="1698pt" height="663pt"
 viewBox="0.00 0.00 1698.00 663.00" xmlns="http://www.w3.org/2000/svg" xmlns:xlink="http://www.w3.org/1999/xlink">
<g id="graph1" class="graph" transform="scale(1 1) rotate(0) translate(4 659)">
<title>Urho3D::DecalSet</title>
<!-- Node1 -->
<g id="node1" class="node"><title>Node1</title>
<polygon fill="#bfbfbf" stroke="black" points="1290.5,-149.5 1290.5,-170.5 1393.5,-170.5 1393.5,-149.5 1290.5,-149.5"/>
<text text-anchor="middle" x="1342" y="-157.5" font-family="FreeSans" font-size="10.00">Urho3D::DecalSet</text>
</g>
<!-- Node2 -->
<g id="node2" class="node"><title>Node2</title>
<a xlink:href="a00116.html" target="_top" xlink:title="Base class for visible components.">
<polygon fill="none" stroke="black" points="1067,-415.5 1067,-436.5 1171,-436.5 1171,-415.5 1067,-415.5"/>
<text text-anchor="middle" x="1119" y="-423.5" font-family="FreeSans" font-size="10.00">Urho3D::Drawable</text>
</a>
</g>
<!-- Node2&#45;&gt;Node1 -->
<g id="edge2" class="edge"><title>Node2&#45;&gt;Node1</title>
<path fill="none" stroke="midnightblue" d="M1139.92,-408.346C1170.97,-381.513 1230.09,-327.968 1272,-275 1300.14,-239.441 1325.83,-191.734 1336.62,-170.712"/>
<polygon fill="midnightblue" stroke="midnightblue" points="1137.26,-406.017 1131.94,-415.183 1141.81,-411.332 1137.26,-406.017"/>
</g>
<!-- Node6 -->
<g id="node12" class="node"><title>Node6</title>
<a xlink:href="a00335.html" target="_top" xlink:title="Component that describes global rendering properties">
<polygon fill="none" stroke="red" points="1299.5,-489.5 1299.5,-510.5 1384.5,-510.5 1384.5,-489.5 1299.5,-489.5"/>
<text text-anchor="middle" x="1342" y="-497.5" font-family="FreeSans" font-size="10.00">Urho3D::Zone</text>
</a>
</g>
<!-- Node2&#45;&gt;Node6 -->
<g id="edge16" class="edge"><title>Node2&#45;&gt;Node6</title>
<path fill="none" stroke="midnightblue" d="M1137.64,-443.495C1153.84,-457.572 1178.64,-476.517 1204,-486 1234.56,-497.43 1271.43,-500.683 1299.37,-501.212"/>
<polygon fill="midnightblue" stroke="midnightblue" points="1139.78,-440.713 1129.99,-436.653 1135.11,-445.929 1139.78,-440.713"/>
</g>
<!-- Node13 -->
<g id="node30" class="node"><title>Node13</title>
<a xlink:href="a00160.html" target="_top" xlink:title="Light component.">
<polygon fill="none" stroke="red" points="1300.5,-401.5 1300.5,-422.5 1383.5,-422.5 1383.5,-401.5 1300.5,-401.5"/>
<text text-anchor="middle" x="1342" y="-409.5" font-family="FreeSans" font-size="10.00">Urho3D::Light</text>
</a>
</g>
<!-- Node2&#45;&gt;Node13 -->
<g id="edge38" class="edge"><title>Node2&#45;&gt;Node13</title>
<path fill="none" stroke="midnightblue" d="M1181.45,-422.08C1219.44,-419.695 1266.92,-416.714 1300.36,-414.614"/>
<polygon fill="midnightblue" stroke="midnightblue" points="1180.76,-418.616 1171,-422.735 1181.2,-425.602 1180.76,-418.616"/>
</g>
<!-- Node3 -->
<g id="node4" class="node"><title>Node3</title>
<a xlink:href="a00086.html" target="_top" xlink:title="Base class for components. Components can be created to scene nodes.">
<polygon fill="none" stroke="black" points="308,-388.5 308,-409.5 424,-409.5 424,-388.5 308,-388.5"/>
<text text-anchor="middle" x="366" y="-396.5" font-family="FreeSans" font-size="10.00">Urho3D::Component</text>
</a>
</g>
<!-- Node3&#45;&gt;Node2 -->
<g id="edge4" class="edge"><title>Node3&#45;&gt;Node2</title>
<path fill="none" stroke="midnightblue" d="M434.093,-398.436C532.238,-397.963 719.132,-398.331 878,-406 943.209,-409.148 1018.12,-415.851 1066.89,-420.628"/>
<polygon fill="midnightblue" stroke="midnightblue" points="433.993,-394.936 424.012,-398.489 434.03,-401.936 433.993,-394.936"/>
</g>
<!-- Node11 -->
<g id="node24" class="node"><title>Node11</title>
<a xlink:href="a00079.html" target="_top" xlink:title="Camera component.">
<polygon fill="none" stroke="red" points="497,-415.5 497,-436.5 595,-436.5 595,-415.5 497,-415.5"/>
<text text-anchor="middle" x="546" y="-423.5" font-family="FreeSans" font-size="10.00">Urho3D::Camera</text>
</a>
</g>
<!-- Node3&#45;&gt;Node11 -->
<g id="edge30" class="edge"><title>Node3&#45;&gt;Node11</title>
<path fill="none" stroke="midnightblue" d="M434.487,-409.273C455.261,-412.389 477.659,-415.749 496.892,-418.634"/>
<polygon fill="midnightblue" stroke="midnightblue" points="434.849,-405.788 424.441,-407.766 433.811,-412.711 434.849,-405.788"/>
</g>
<!-- Node4 -->
<g id="node6" class="node"><title>Node4</title>
<a xlink:href="a00262.html" target="_top" xlink:title="Base class for objects with automatic serialization through attributes.">
<polygon fill="none" stroke="red" points="0,-399.5 0,-420.5 114,-420.5 114,-399.5 0,-399.5"/>
<text text-anchor="middle" x="57" y="-407.5" font-family="FreeSans" font-size="10.00">Urho3D::Serializable</text>
</a>
</g>
<!-- Node4&#45;&gt;Node3 -->
<g id="edge6" class="edge"><title>Node4&#45;&gt;Node3</title>
<path fill="none" stroke="midnightblue" d="M124.273,-413.98C133.584,-414.403 143.028,-414.764 152,-415 190.209,-416.005 199.852,-417.375 238,-415 260.911,-413.574 285.995,-410.724 307.839,-407.821"/>
<polygon fill="midnightblue" stroke="midnightblue" points="124.406,-410.483 114.25,-413.501 124.071,-417.475 124.406,-410.483"/>
</g>
<!-- Node5 -->
<g id="node8" class="node"><title>Node5</title>
<a xlink:href="a00197.html" target="_top" xlink:title="Scene node that may contain components and child nodes.">
<polygon fill="none" stroke="red" points="152.5,-353.5 152.5,-374.5 237.5,-374.5 237.5,-353.5 152.5,-353.5"/>
<text text-anchor="middle" x="195" y="-361.5" font-family="FreeSans" font-size="10.00">Urho3D::Node</text>
</a>
</g>
<!-- Node4&#45;&gt;Node5 -->
<g id="edge10" class="edge"><title>Node4&#45;&gt;Node5</title>
<path fill="none" stroke="midnightblue" d="M98.2481,-396.251C119.156,-389.281 144.144,-380.952 163.487,-374.504"/>
<polygon fill="midnightblue" stroke="midnightblue" points="97.04,-392.964 88.66,-399.447 99.2536,-399.605 97.04,-392.964"/>
</g>
<!-- Node5&#45;&gt;Node3 -->
<g id="edge8" class="edge"><title>Node5&#45;&gt;Node3</title>
<path fill="none" stroke="#9a32cd" stroke-dasharray="5,2" d="M247.537,-374.753C268.785,-379.102 293.24,-384.108 314.393,-388.437"/>
<polygon fill="#9a32cd" stroke="#9a32cd" points="248.208,-371.318 237.709,-372.742 246.804,-378.176 248.208,-371.318"/>
<text text-anchor="middle" x="273" y="-386" font-family="FreeSans" font-size="10.00"> node_</text>
</g>
<!-- Node5&#45;&gt;Node5 -->
<g id="edge12" class="edge"><title>Node5&#45;&gt;Node5</title>
<path fill="none" stroke="#9a32cd" stroke-dasharray="5,2" d="M183.646,-384.793C184.648,-389.529 188.433,-393 195,-393 205.777,-393 209.061,-383.653 204.851,-374.708"/>
<polygon fill="#9a32cd" stroke="#9a32cd" points="187.136,-385.115 185.149,-374.708 180.213,-384.083 187.136,-385.115"/>
<text text-anchor="middle" x="195" y="-397" font-family="FreeSans" font-size="10.00"> parent_</text>
</g>
<!-- Node6&#45;&gt;Node2 -->
<g id="edge14" class="edge"><title>Node6&#45;&gt;Node2</title>
<path fill="none" stroke="#9a32cd" stroke-dasharray="5,2" d="M1318.11,-483.955C1304.98,-475.762 1288.12,-466.233 1272,-460 1239.51,-447.441 1201.26,-438.941 1171.14,-433.58"/>
<polygon fill="#9a32cd" stroke="#9a32cd" points="1316.24,-486.915 1326.55,-489.358 1320.02,-481.019 1316.24,-486.915"/>
<text text-anchor="middle" x="1238" y="-477" font-family="FreeSans" font-size="10.00"> lastZone_</text>
<text text-anchor="middle" x="1238" y="-464" font-family="FreeSans" font-size="10.00">zone_</text>
</g>
<!-- Node7 -->
<g id="node15" class="node"><title>Node7</title>
<a xlink:href="a00326.html" target="_top" xlink:title="Urho3D::WeakPtr\&lt; Urho3D\l::Zone \&gt;">
<polygon fill="none" stroke="red" points="1544,-483 1544,-517 1690,-517 1690,-483 1544,-483"/>
<text text-anchor="start" x="1552" y="-504" font-family="FreeSans" font-size="10.00">Urho3D::WeakPtr&lt; Urho3D</text>
<text text-anchor="middle" x="1617" y="-491" font-family="FreeSans" font-size="10.00">::Zone &gt;</text>
</a>
</g>
<!-- Node6&#45;&gt;Node7 -->
<g id="edge20" class="edge"><title>Node6&#45;&gt;Node7</title>
<path fill="none" stroke="#9a32cd" stroke-dasharray="5,2" d="M1395.06,-507.546C1400.77,-508.141 1406.5,-508.648 1412,-509 1462.56,-512.237 1475.39,-511.496 1526,-509 1531.71,-508.718 1537.61,-508.338 1543.54,-507.892"/>
<polygon fill="#9a32cd" stroke="#9a32cd" points="1395.19,-504.038 1384.86,-506.391 1394.4,-510.994 1395.19,-504.038"/>
<text text-anchor="middle" x="1469" y="-515" font-family="FreeSans" font-size="10.00"> ptr_</text>
</g>
<!-- Node7&#45;&gt;Node6 -->
<g id="edge18" class="edge"><title>Node7&#45;&gt;Node6</title>
<path fill="none" stroke="#9a32cd" stroke-dasharray="5,2" d="M1564.83,-479.66C1552.3,-475.657 1538.83,-472.06 1526,-470 1475.97,-461.967 1461.63,-459.813 1412,-470 1393.87,-473.722 1374.63,-482.345 1360.92,-489.396"/>
<polygon fill="#9a32cd" stroke="#9a32cd" points="1564.06,-483.09 1574.65,-482.936 1566.27,-476.45 1564.06,-483.09"/>
<text text-anchor="start" x="1412.5" y="-500" font-family="FreeSans" font-size="10.00"> lastAmbientEndZone</text>
<text text-anchor="middle" x="1469" y="-487" font-family="FreeSans" font-size="10.00">_</text>
<text text-anchor="middle" x="1469" y="-474" font-family="FreeSans" font-size="10.00">lastAmbientStartZone_</text>
</g>
<!-- Node8 -->
<g id="node18" class="node"><title>Node8</title>
<a xlink:href="a00076.html" target="_top" xlink:title="Three&#45;dimensional axis&#45;aligned bounding box.">
<polygon fill="none" stroke="red" points="485,-566.5 485,-587.5 607,-587.5 607,-566.5 485,-566.5"/>
<text text-anchor="middle" x="546" y="-574.5" font-family="FreeSans" font-size="10.00">Urho3D::BoundingBox</text>
</a>
</g>
<!-- Node8&#45;&gt;Node2 -->
<g id="edge40" class="edge"><title>Node8&#45;&gt;Node2</title>
<path fill="none" stroke="#9a32cd" stroke-dasharray="5,2" d="M600.344,-564.03C639.227,-554.77 692.82,-542.05 740,-531 870.583,-500.417 906.647,-505.052 1034,-463 1056.31,-455.632 1080.82,-444.634 1097.76,-436.542"/>
<polygon fill="#9a32cd" stroke="#9a32cd" points="599.204,-560.703 590.287,-566.425 600.826,-567.513 599.204,-560.703"/>
<text text-anchor="middle" x="809" y="-548" font-family="FreeSans" font-size="10.00"> worldBoundingBox_</text>
<text text-anchor="middle" x="809" y="-535" font-family="FreeSans" font-size="10.00">boundingBox_</text>
</g>
<!-- Node8&#45;&gt;Node6 -->
<g id="edge22" class="edge"><title>Node8&#45;&gt;Node6</title>
<path fill="none" stroke="#9a32cd" stroke-dasharray="5,2" d="M578.749,-591.654C616.653,-607.697 681.389,-632.3 740,-641 971.735,-675.399 1245.89,-548.663 1321.71,-510.538"/>
<polygon fill="#9a32cd" stroke="#9a32cd" points="579.823,-588.306 569.254,-587.576 577.061,-594.738 579.823,-588.306"/>
<text text-anchor="middle" x="965" y="-646" font-family="FreeSans" font-size="10.00"> lastWorldBoundingBox_</text>
</g>
<!-- Node15 -->
<g id="node37" class="node"><title>Node15</title>
<a xlink:href="a00205.html" target="_top" xlink:title="Octree octant">
<polygon fill="none" stroke="red" points="763,-566.5 763,-587.5 855,-587.5 855,-566.5 763,-566.5"/>
<text text-anchor="middle" x="809" y="-574.5" font-family="FreeSans" font-size="10.00">Urho3D::Octant</text>
</a>
</g>
<!-- Node8&#45;&gt;Node15 -->
<g id="edge48" class="edge"><title>Node8&#45;&gt;Node15</title>
<path fill="none" stroke="#9a32cd" stroke-dasharray="5,2" d="M617.594,-577C663.843,-577 722.666,-577 762.817,-577"/>
<polygon fill="#9a32cd" stroke="#9a32cd" points="617.33,-573.5 607.33,-577 617.33,-580.5 617.33,-573.5"/>
<text text-anchor="middle" x="675" y="-594" font-family="FreeSans" font-size="10.00"> cullingBox_</text>
<text text-anchor="middle" x="675" y="-581" font-family="FreeSans" font-size="10.00">worldBoundingBox_</text>
</g>
<!-- Node9 -->
<g id="node20" class="node"><title>Node9</title>
<a xlink:href="a00222.html" target="_top" xlink:title="Urho3D::PODVector\&lt;\l Urho3D::Light * \&gt;">
<polygon fill="none" stroke="black" points="749.5,-273 749.5,-307 868.5,-307 868.5,-273 749.5,-273"/>
<text text-anchor="start" x="757.5" y="-294" font-family="FreeSans" font-size="10.00">Urho3D::PODVector&lt;</text>
<text text-anchor="middle" x="809" y="-281" font-family="FreeSans" font-size="10.00"> Urho3D::Light * &gt;</text>
</a>
</g>
<!-- Node9&#45;&gt;Node2 -->
<g id="edge24" class="edge"><title>Node9&#45;&gt;Node2</title>
<path fill="none" stroke="#9a32cd" stroke-dasharray="5,2" d="M878.916,-280.558C925.717,-277.626 987.097,-280.581 1034,-307 1078.46,-332.045 1105.51,-391.121 1115.07,-415.35"/>
<polygon fill="#9a32cd" stroke="#9a32cd" points="878.58,-277.073 868.861,-281.291 879.089,-284.054 878.58,-277.073"/>
<text text-anchor="middle" x="965" y="-324" font-family="FreeSans" font-size="10.00"> vertexLights_</text>
<text text-anchor="middle" x="965" y="-311" font-family="FreeSans" font-size="10.00">lights_</text>
</g>
<!-- Node10 -->
<g id="node22" class="node"><title>Node10</title>
<a xlink:href="a00318.html" target="_top" xlink:title="Vector base class.">
<polygon fill="none" stroke="black" points="489,-252.5 489,-273.5 603,-273.5 603,-252.5 489,-252.5"/>
<text text-anchor="middle" x="546" y="-260.5" font-family="FreeSans" font-size="10.00">Urho3D::VectorBase</text>
</a>
</g>
<!-- Node10&#45;&gt;Node9 -->
<g id="edge26" class="edge"><title>Node10&#45;&gt;Node9</title>
<path fill="none" stroke="midnightblue" d="M613.205,-269.899C655.203,-274.211 708.807,-279.714 749.306,-283.872"/>
<polygon fill="midnightblue" stroke="midnightblue" points="613.372,-266.398 603.067,-268.859 612.657,-273.362 613.372,-266.398"/>
</g>
<!-- Node12 -->
<g id="node27" class="node"><title>Node12</title>
<a xlink:href="a00314.html" target="_top" xlink:title="Urho3D::Vector\&lt; Urho3D\l::SourceBatch \&gt;">
<polygon fill="none" stroke="black" points="740,-325 740,-359 878,-359 878,-325 740,-325"/>
<text text-anchor="start" x="748" y="-346" font-family="FreeSans" font-size="10.00">Urho3D::Vector&lt; Urho3D</text>
<text text-anchor="middle" x="809" y="-333" font-family="FreeSans" font-size="10.00">::SourceBatch &gt;</text>
</a>
</g>
<!-- Node10&#45;&gt;Node12 -->
<g id="edge34" class="edge"><title>Node10&#45;&gt;Node12</title>
<path fill="none" stroke="midnightblue" d="M586.764,-276.764C599.894,-281.105 614.532,-285.85 628,-290 667.525,-302.18 712.184,-315.02 747.252,-324.893"/>
<polygon fill="midnightblue" stroke="midnightblue" points="587.654,-273.371 577.061,-273.538 585.446,-280.014 587.654,-273.371"/>
</g>
<!-- Node16 -->
<g id="node41" class="node"><title>Node16</title>
<a xlink:href="a00314.html" target="_top" xlink:title="Urho3D::Vector\&lt; Urho3D\l::Bone \&gt;">
<polygon fill="none" stroke="black" points="896,-145 896,-179 1034,-179 1034,-145 896,-145"/>
<text text-anchor="start" x="904" y="-166" font-family="FreeSans" font-size="10.00">Urho3D::Vector&lt; Urho3D</text>
<text text-anchor="middle" x="965" y="-153" font-family="FreeSans" font-size="10.00">::Bone &gt;</text>
</a>
</g>
<!-- Node10&#45;&gt;Node16 -->
<g id="edge54" class="edge"><title>Node10&#45;&gt;Node16</title>
<path fill="none" stroke="midnightblue" d="M576.536,-247.858C614.048,-229.973 680.094,-200.79 740,-186 791.392,-173.312 851.021,-167.331 895.977,-164.513"/>
<polygon fill="midnightblue" stroke="midnightblue" points="574.676,-244.868 567.187,-252.363 577.715,-251.174 574.676,-244.868"/>
</g>
<!-- Node25 -->
<g id="node61" class="node"><title>Node25</title>
<a xlink:href="a00222.html" target="_top" xlink:title="Urho3D::PODVector\&lt;\l Urho3D::Matrix3x4 \&gt;">
<polygon fill="none" stroke="black" points="905,-233 905,-267 1025,-267 1025,-233 905,-233"/>
<text text-anchor="start" x="913" y="-254" font-family="FreeSans" font-size="10.00">Urho3D::PODVector&lt;</text>
<text text-anchor="middle" x="965" y="-241" font-family="FreeSans" font-size="10.00"> Urho3D::Matrix3x4 &gt;</text>
</a>
</g>
<!-- Node10&#45;&gt;Node25 -->
<g id="edge76" class="edge"><title>Node10&#45;&gt;Node25</title>
<path fill="none" stroke="midnightblue" d="M613.425,-260.908C694.037,-258.407 827.717,-254.259 904.927,-251.864"/>
<polygon fill="midnightblue" stroke="midnightblue" points="613.268,-257.411 603.382,-261.22 613.485,-264.408 613.268,-257.411"/>
</g>
<!-- Node11&#45;&gt;Node2 -->
<g id="edge28" class="edge"><title>Node11&#45;&gt;Node2</title>
<path fill="none" stroke="#9a32cd" stroke-dasharray="5,2" d="M599.639,-438.542C609.044,-440.333 618.773,-441.929 628,-443 807.24,-463.813 854.613,-462.506 1034,-443 1047.17,-441.568 1061.32,-439.112 1074.24,-436.505"/>
<polygon fill="#9a32cd" stroke="#9a32cd" points="600.09,-435.063 589.599,-436.537 598.72,-441.927 600.09,-435.063"/>
<text text-anchor="middle" x="809" y="-462" font-family="FreeSans" font-size="10.00"> viewCamera_</text>
</g>
<!-- Node14 -->
<g id="node34" class="node"><title>Node14</title>
<a xlink:href="a00132.html" target="_top" xlink:title="Rendering frame update parameters.">
<polygon fill="none" stroke="red" points="755.5,-415.5 755.5,-436.5 862.5,-436.5 862.5,-415.5 755.5,-415.5"/>
<text text-anchor="middle" x="809" y="-423.5" font-family="FreeSans" font-size="10.00">Urho3D::FrameInfo</text>
</a>
</g>
<!-- Node11&#45;&gt;Node14 -->
<g id="edge44" class="edge"><title>Node11&#45;&gt;Node14</title>
<path fill="none" stroke="#9a32cd" stroke-dasharray="5,2" d="M605.352,-426C650.302,-426 711.544,-426 755.1,-426"/>
<polygon fill="#9a32cd" stroke="#9a32cd" points="605.16,-422.5 595.16,-426 605.16,-429.5 605.16,-422.5"/>
<text text-anchor="middle" x="675" y="-430" font-family="FreeSans" font-size="10.00"> camera_</text>
</g>
<!-- Node12&#45;&gt;Node2 -->
<g id="edge32" class="edge"><title>Node12&#45;&gt;Node2</title>
<path fill="none" stroke="#9a32cd" stroke-dasharray="5,2" d="M888.343,-337.396C932.59,-337.491 987.903,-342.119 1034,-360 1065.53,-372.229 1094.96,-400.159 1109.51,-415.474"/>
<polygon fill="#9a32cd" stroke="#9a32cd" points="888.194,-333.897 878.214,-337.453 888.233,-340.897 888.194,-333.897"/>
<text text-anchor="middle" x="965" y="-364" font-family="FreeSans" font-size="10.00"> batches_</text>
</g>
<!-- Node13&#45;&gt;Node2 -->
<g id="edge36" class="edge"><title>Node13&#45;&gt;Node2</title>
<path fill="none" stroke="#9a32cd" stroke-dasharray="5,2" d="M1290.18,-401.28C1284.07,-400.343 1277.91,-399.544 1272,-399 1241.91,-396.229 1233.87,-394.371 1204,-399 1183.65,-402.154 1161.5,-409.319 1144.92,-415.475"/>
<polygon fill="#9a32cd" stroke="#9a32cd" points="1289.91,-404.783 1300.35,-402.968 1291.06,-397.878 1289.91,-404.783"/>
<text text-anchor="middle" x="1238" y="-403" font-family="FreeSans" font-size="10.00"> firstLight_</text>
</g>
<!-- Node14&#45;&gt;Node2 -->
<g id="edge42" class="edge"><title>Node14&#45;&gt;Node2</title>
<path fill="none" stroke="#9a32cd" stroke-dasharray="5,2" d="M872.68,-426C930.022,-426 1013.28,-426 1066.79,-426"/>
<polygon fill="#9a32cd" stroke="#9a32cd" points="872.644,-422.5 862.644,-426 872.644,-429.5 872.644,-422.5"/>
<text text-anchor="middle" x="965" y="-430" font-family="FreeSans" font-size="10.00"> viewFrame_</text>
</g>
<!-- Node15&#45;&gt;Node2 -->
<g id="edge46" class="edge"><title>Node15&#45;&gt;Node2</title>
<path fill="none" stroke="#9a32cd" stroke-dasharray="5,2" d="M865.28,-577.708C913.344,-575.873 982.646,-567.244 1034,-536 1074.82,-511.162 1103.35,-458.943 1114.17,-436.556"/>
<polygon fill="#9a32cd" stroke="#9a32cd" points="864.952,-574.216 855.059,-578.008 865.158,-581.213 864.952,-574.216"/>
<text text-anchor="middle" x="965" y="-579" font-family="FreeSans" font-size="10.00"> octant_</text>
</g>
<!-- Node15&#45;&gt;Node15 -->
<g id="edge50" class="edge"><title>Node15&#45;&gt;Node15</title>
<path fill="none" stroke="#9a32cd" stroke-dasharray="5,2" d="M784.305,-597.427C786.21,-602.349 794.442,-606 809,-606 832.293,-606 839.39,-596.653 830.291,-587.708"/>
<polygon fill="#9a32cd" stroke="#9a32cd" points="787.707,-598.303 787.709,-587.708 781.1,-595.989 787.707,-598.303"/>
<text text-anchor="middle" x="809" y="-623" font-family="FreeSans" font-size="10.00"> parent_</text>
<text text-anchor="middle" x="809" y="-610" font-family="FreeSans" font-size="10.00">children_</text>
</g>
<!-- Node16&#45;&gt;Node1 -->
<g id="edge52" class="edge"><title>Node16&#45;&gt;Node1</title>
<path fill="none" stroke="#9a32cd" stroke-dasharray="5,2" d="M1044.36,-161.579C1118.41,-161.186 1226.74,-160.611 1290.25,-160.275"/>
<polygon fill="#9a32cd" stroke="#9a32cd" points="1044.13,-158.08 1034.15,-161.633 1044.17,-165.08 1044.13,-158.08"/>
<text text-anchor="middle" x="1119" y="-165" font-family="FreeSans" font-size="10.00"> bones_</text>
</g>
<!-- Node17 -->
<g id="node44" class="node"><title>Node17</title>
<a xlink:href="a00166.html" target="_top" xlink:title="Urho3D::List\&lt; Urho3D\l::Decal \&gt;">
<polygon fill="none" stroke="black" points="1057,-191 1057,-225 1181,-225 1181,-191 1057,-191"/>
<text text-anchor="start" x="1065" y="-212" font-family="FreeSans" font-size="10.00">Urho3D::List&lt; Urho3D</text>
<text text-anchor="middle" x="1119" y="-199" font-family="FreeSans" font-size="10.00">::Decal &gt;</text>
</a>
</g>
<!-- Node17&#45;&gt;Node1 -->
<g id="edge56" class="edge"><title>Node17&#45;&gt;Node1</title>
<path fill="none" stroke="#9a32cd" stroke-dasharray="5,2" d="M1191.25,-192.448C1224.51,-185.289 1263.11,-176.982 1292.92,-170.564"/>
<polygon fill="#9a32cd" stroke="#9a32cd" points="1190.16,-189.103 1181.12,-194.629 1191.63,-195.947 1190.16,-189.103"/>
<text text-anchor="middle" x="1238" y="-192" font-family="FreeSans" font-size="10.00"> decals_</text>
</g>
<!-- Node18 -->
<g id="node46" class="node"><title>Node18</title>
<a xlink:href="a00167.html" target="_top" xlink:title="Doubly&#45;linked list base class.">
<polygon fill="none" stroke="red" points="759,-195.5 759,-216.5 859,-216.5 859,-195.5 759,-195.5"/>
<text text-anchor="middle" x="809" y="-203.5" font-family="FreeSans" font-size="10.00">Urho3D::ListBase</text>
</a>
</g>
<!-- Node18&#45;&gt;Node17 -->
<g id="edge58" class="edge"><title>Node18&#45;&gt;Node17</title>
<path fill="none" stroke="midnightblue" d="M869.277,-206.389C923.324,-206.738 1002.29,-207.247 1056.89,-207.599"/>
<polygon fill="midnightblue" stroke="midnightblue" points="869.174,-202.888 859.151,-206.324 869.129,-209.888 869.174,-202.888"/>
</g>
<!-- Node19 -->
<g id="node48" class="node"><title>Node19</title>
<a xlink:href="a00270.html" target="_top" xlink:title="Urho3D::SharedPtr\&lt;\l Urho3D::IndexBuffer \&gt;">
<polygon fill="none" stroke="black" points="482,-68 482,-102 610,-102 610,-68 482,-68"/>
<text text-anchor="start" x="490" y="-89" font-family="FreeSans" font-size="10.00">Urho3D::SharedPtr&lt;</text>
<text text-anchor="middle" x="546" y="-76" font-family="FreeSans" font-size="10.00"> Urho3D::IndexBuffer &gt;</text>
</a>
</g>
<!-- Node19&#45;&gt;Node1 -->
<g id="edge60" class="edge"><title>Node19&#45;&gt;Node1</title>
<path fill="none" stroke="#9a32cd" stroke-dasharray="5,2" d="M620.179,-89.8068C715.899,-96.2318 887.541,-108.507 1034,-123 1124.31,-131.936 1229.17,-145.138 1290.3,-153.119"/>
<polygon fill="#9a32cd" stroke="#9a32cd" points="620.234,-86.3027 610.023,-89.1279 619.767,-93.2871 620.234,-86.3027"/>
<text text-anchor="middle" x="965" y="-127" font-family="FreeSans" font-size="10.00"> indexBuffer_</text>
</g>
<!-- Node22 -->
<g id="node54" class="node"><title>Node22</title>
<a xlink:href="a00135.html" target="_top" xlink:title="Defines one or more vertex buffers, an index buffer and a draw range.">
<polygon fill="none" stroke="red" points="755.5,-15.5 755.5,-36.5 862.5,-36.5 862.5,-15.5 755.5,-15.5"/>
<text text-anchor="middle" x="809" y="-23.5" font-family="FreeSans" font-size="10.00">Urho3D::Geometry</text>
</a>
</g>
<!-- Node19&#45;&gt;Node22 -->
<g id="edge68" class="edge"><title>Node19&#45;&gt;Node22</title>
<path fill="none" stroke="#9a32cd" stroke-dasharray="5,2" d="M619.845,-68.4339C665.468,-58.1992 722.635,-45.3746 762.115,-36.5179"/>
<polygon fill="#9a32cd" stroke="#9a32cd" points="618.992,-65.0383 610.001,-70.6424 620.524,-71.8685 618.992,-65.0383"/>
<text text-anchor="middle" x="675" y="-69" font-family="FreeSans" font-size="10.00"> indexBuffer_</text>
</g>
<!-- Node20 -->
<g id="node50" class="node"><title>Node20</title>
<a xlink:href="a00150.html" target="_top" xlink:title="Hardware index buffer.">
<polygon fill="none" stroke="red" points="309.5,-74.5 309.5,-95.5 422.5,-95.5 422.5,-74.5 309.5,-74.5"/>
<text text-anchor="middle" x="366" y="-82.5" font-family="FreeSans" font-size="10.00">Urho3D::IndexBuffer</text>
</a>
</g>
<!-- Node20&#45;&gt;Node19 -->
<g id="edge62" class="edge"><title>Node20&#45;&gt;Node19</title>
<path fill="none" stroke="#9a32cd" stroke-dasharray="5,2" d="M433.25,-85C449.178,-85 466.122,-85 481.905,-85"/>
<polygon fill="#9a32cd" stroke="#9a32cd" points="432.953,-81.5001 422.953,-85 432.953,-88.5001 432.953,-81.5001"/>
<text text-anchor="middle" x="453" y="-89" font-family="FreeSans" font-size="10.00"> ptr_</text>
</g>
<!-- Node21 -->
<g id="node52" class="node"><title>Node21</title>
<a xlink:href="a00270.html" target="_top" xlink:title="Urho3D::SharedPtr\&lt;\l Urho3D::Geometry \&gt;">
<polygon fill="none" stroke="black" points="1058,-0 1058,-34 1180,-34 1180,-0 1058,-0"/>
<text text-anchor="start" x="1066" y="-21" font-family="FreeSans" font-size="10.00">Urho3D::SharedPtr&lt;</text>
<text text-anchor="middle" x="1119" y="-8" font-family="FreeSans" font-size="10.00"> Urho3D::Geometry &gt;</text>
</a>
</g>
<!-- Node21&#45;&gt;Node1 -->
<g id="edge64" class="edge"><title>Node21&#45;&gt;Node1</title>
<path fill="none" stroke="#9a32cd" stroke-dasharray="5,2" d="M1190.32,-21.8608C1217.79,-26.5289 1248.23,-35.3792 1272,-52 1308.07,-77.2273 1330.08,-127.583 1338.31,-149.455"/>
<polygon fill="#9a32cd" stroke="#9a32cd" points="1190.77,-18.3888 1180.35,-20.3235 1189.7,-25.307 1190.77,-18.3888"/>
<text text-anchor="middle" x="1238" y="-56" font-family="FreeSans" font-size="10.00"> geometry_</text>
</g>
<!-- Node22&#45;&gt;Node21 -->
<g id="edge66" class="edge"><title>Node22&#45;&gt;Node21</title>
<path fill="none" stroke="#9a32cd" stroke-dasharray="5,2" d="M872.825,-24.147C927.033,-22.5732 1004.33,-20.3292 1057.78,-18.7774"/>
<polygon fill="#9a32cd" stroke="#9a32cd" points="872.538,-20.6538 862.644,-24.4426 872.741,-27.6508 872.538,-20.6538"/>
<text text-anchor="middle" x="965" y="-28" font-family="FreeSans" font-size="10.00"> ptr_</text>
</g>
<!-- Node23 -->
<g id="node57" class="node"><title>Node23</title>
<a xlink:href="a00270.html" target="_top" xlink:title="Urho3D::SharedPtr\&lt;\l Urho3D::VertexBuffer \&gt;">
<polygon fill="none" stroke="black" points="1052.5,-52 1052.5,-86 1185.5,-86 1185.5,-52 1052.5,-52"/>
<text text-anchor="start" x="1060.5" y="-73" font-family="FreeSans" font-size="10.00">Urho3D::SharedPtr&lt;</text>
<text text-anchor="middle" x="1119" y="-60" font-family="FreeSans" font-size="10.00"> Urho3D::VertexBuffer &gt;</text>
</a>
</g>
<!-- Node23&#45;&gt;Node1 -->
<g id="edge70" class="edge"><title>Node23&#45;&gt;Node1</title>
<path fill="none" stroke="#9a32cd" stroke-dasharray="5,2" d="M1196.12,-67.8521C1221.36,-70.0942 1248.85,-75.4802 1272,-87 1300.92,-101.394 1324.43,-132.808 1335.37,-149.341"/>
<polygon fill="#9a32cd" stroke="#9a32cd" points="1196.06,-64.3383 1185.83,-67.0966 1195.55,-71.3195 1196.06,-64.3383"/>
<text text-anchor="middle" x="1238" y="-91" font-family="FreeSans" font-size="10.00"> vertexBuffer_</text>
</g>
<!-- Node24 -->
<g id="node59" class="node"><title>Node24</title>
<a xlink:href="a00320.html" target="_top" xlink:title="Hardware vertex buffer.">
<polygon fill="none" stroke="red" points="749.5,-58.5 749.5,-79.5 868.5,-79.5 868.5,-58.5 749.5,-58.5"/>
<text text-anchor="middle" x="809" y="-66.5" font-family="FreeSans" font-size="10.00">Urho3D::VertexBuffer</text>
</a>
</g>
<!-- Node24&#45;&gt;Node23 -->
<g id="edge72" class="edge"><title>Node24&#45;&gt;Node23</title>
<path fill="none" stroke="#9a32cd" stroke-dasharray="5,2" d="M878.904,-69C930.855,-69 1001.29,-69 1052.43,-69"/>
<polygon fill="#9a32cd" stroke="#9a32cd" points="878.771,-65.5001 868.771,-69 878.771,-72.5001 878.771,-65.5001"/>
<text text-anchor="middle" x="965" y="-73" font-family="FreeSans" font-size="10.00"> ptr_</text>
</g>
<!-- Node25&#45;&gt;Node1 -->
<g id="edge74" class="edge"><title>Node25&#45;&gt;Node1</title>
<path fill="none" stroke="#9a32cd" stroke-dasharray="5,2" d="M1035.27,-251.418C1099.84,-250.074 1196.66,-241.235 1272,-205 1292.44,-195.169 1314.14,-180.471 1327.86,-170.574"/>
<polygon fill="#9a32cd" stroke="#9a32cd" points="1035.14,-247.919 1025.19,-251.572 1035.24,-254.918 1035.14,-247.919"/>
<text text-anchor="middle" x="1119" y="-254" font-family="FreeSans" font-size="10.00"> skinMatrices_</text>
</g>
</g>
</svg>
