<?xml version="1.0" encoding="UTF-8" standalone="no"?>
<!DOCTYPE svg PUBLIC "-//W3C//DTD SVG 1.1//EN"
 "http://www.w3.org/Graphics/SVG/1.1/DTD/svg11.dtd">
<!-- Generated by graphviz version 2.26.3 (20100126.1600)
 -->
<!-- Title: Urho3D::Console Pages: 1 -->
<svg width="1588pt" height="1011pt"
 viewBox="0.00 0.00 1588.00 1011.00" xmlns="http://www.w3.org/2000/svg" xmlns:xlink="http://www.w3.org/1999/xlink">
<g id="graph1" class="graph" transform="scale(1 1) rotate(0) translate(4 1007)">
<title>Urho3D::Console</title>
<!-- Node1 -->
<g id="node1" class="node"><title>Node1</title>
<polygon fill="#bfbfbf" stroke="black" points="1458,-121.5 1458,-142.5 1556,-142.5 1556,-121.5 1458,-121.5"/>
<text text-anchor="middle" x="1507" y="-129.5" font-family="FreeSans" font-size="10.00">Urho3D::Console</text>
</g>
<!-- Node2 -->
<g id="node2" class="node"><title>Node2</title>
<a xlink:href="a00206.html" target="_top" xlink:title="Base class for objects with type identification, subsystem access and event sending/receiving capabil...">
<polygon fill="none" stroke="black" points="866,-789.5 866,-810.5 956,-810.5 956,-789.5 866,-789.5"/>
<text text-anchor="middle" x="911" y="-797.5" font-family="FreeSans" font-size="10.00">Urho3D::Object</text>
</a>
</g>
<!-- Node2&#45;&gt;Node1 -->
<g id="edge2" class="edge"><title>Node2&#45;&gt;Node1</title>
<path fill="none" stroke="midnightblue" d="M914.708,-779.206C930.44,-693.325 994.341,-367.643 1070,-301 1141.89,-237.676 1188.2,-281.468 1282,-262 1341.85,-249.578 1363.18,-261.766 1416,-231 1455.14,-208.206 1487.22,-163.105 1500.46,-142.597"/>
<polygon fill="midnightblue" stroke="midnightblue" points="911.259,-778.611 912.92,-789.075 918.147,-779.859 911.259,-778.611"/>
</g>
<!-- Node11 -->
<g id="node21" class="node"><title>Node11</title>
<a xlink:href="a00124.html" target="_top" xlink:title="Internal helper class for invoking event handler functions.">
<polygon fill="none" stroke="red" points="1114,-909.5 1114,-930.5 1238,-930.5 1238,-909.5 1114,-909.5"/>
<text text-anchor="middle" x="1176" y="-917.5" font-family="FreeSans" font-size="10.00">Urho3D::EventHandler</text>
</a>
</g>
<!-- Node2&#45;&gt;Node11 -->
<g id="edge24" class="edge"><title>Node2&#45;&gt;Node11</title>
<path fill="none" stroke="#9a32cd" stroke-dasharray="5,2" d="M932.319,-817.123C961.573,-839.715 1016.63,-879.057 1070,-900 1083.77,-905.404 1099.14,-909.378 1113.8,-912.289"/>
<polygon fill="#9a32cd" stroke="#9a32cd" points="934.13,-814.097 924.098,-810.689 929.815,-819.609 934.13,-814.097"/>
<text text-anchor="middle" x="1019" y="-908" font-family="FreeSans" font-size="10.00"> sender_</text>
<text text-anchor="middle" x="1019" y="-895" font-family="FreeSans" font-size="10.00">receiver_</text>
</g>
<!-- Node3 -->
<g id="node4" class="node"><title>Node3</title>
<a xlink:href="a00244.html" target="_top" xlink:title="Base class for intrusively reference&#45;counted objects. These are noncopyable and non&#45;assignable.">
<polygon fill="none" stroke="black" points="653,-623.5 653,-644.5 767,-644.5 767,-623.5 653,-623.5"/>
<text text-anchor="middle" x="710" y="-631.5" font-family="FreeSans" font-size="10.00">Urho3D::RefCounted</text>
</a>
</g>
<!-- Node3&#45;&gt;Node2 -->
<g id="edge4" class="edge"><title>Node3&#45;&gt;Node2</title>
<path fill="none" stroke="midnightblue" d="M730.693,-651.09C772.168,-685.342 864.386,-761.503 898.228,-789.452"/>
<polygon fill="midnightblue" stroke="midnightblue" points="732.818,-648.306 722.879,-644.637 728.361,-653.703 732.818,-648.306"/>
</g>
<!-- Node5 -->
<g id="node8" class="node"><title>Node5</title>
<a xlink:href="a00100.html" target="_top" xlink:title="Urho3D execution context. Provides access to subsystems, object factories and attributes, and event receivers.">
<polygon fill="none" stroke="black" points="1458.5,-611.5 1458.5,-632.5 1555.5,-632.5 1555.5,-611.5 1458.5,-611.5"/>
<text text-anchor="middle" x="1507" y="-619.5" font-family="FreeSans" font-size="10.00">Urho3D::Context</text>
</a>
</g>
<!-- Node3&#45;&gt;Node5 -->
<g id="edge10" class="edge"><title>Node3&#45;&gt;Node5</title>
<path fill="none" stroke="midnightblue" d="M777.324,-632.986C934.366,-630.622 1321.93,-624.786 1458.46,-622.731"/>
<polygon fill="midnightblue" stroke="midnightblue" points="777.264,-629.487 767.318,-633.137 777.37,-636.486 777.264,-629.487"/>
</g>
<!-- Node4 -->
<g id="node6" class="node"><title>Node4</title>
<a xlink:href="a00243.html" target="_top" xlink:title="Reference count structure.">
<polygon fill="none" stroke="black" points="370,-623.5 370,-644.5 472,-644.5 472,-623.5 370,-623.5"/>
<text text-anchor="middle" x="421" y="-631.5" font-family="FreeSans" font-size="10.00">Urho3D::RefCount</text>
</a>
</g>
<!-- Node4&#45;&gt;Node3 -->
<g id="edge6" class="edge"><title>Node4&#45;&gt;Node3</title>
<path fill="none" stroke="#9a32cd" stroke-dasharray="5,2" d="M482.114,-634C532.526,-634 603.522,-634 652.821,-634"/>
<polygon fill="#9a32cd" stroke="#9a32cd" points="482.002,-630.5 472.002,-634 482.002,-637.5 482.002,-630.5"/>
<text text-anchor="middle" x="562" y="-638" font-family="FreeSans" font-size="10.00"> refCount_</text>
</g>
<!-- Node5&#45;&gt;Node2 -->
<g id="edge8" class="edge"><title>Node5&#45;&gt;Node2</title>
<path fill="none" stroke="#9a32cd" stroke-dasharray="5,2" d="M1496.75,-641.646C1482.27,-667.472 1453.34,-712.432 1416,-737 1340.8,-786.472 1065.41,-797.102 956.126,-799.381"/>
<polygon fill="#9a32cd" stroke="#9a32cd" points="1499.88,-643.224 1501.59,-632.768 1493.73,-639.877 1499.88,-643.224"/>
<text text-anchor="middle" x="1176" y="-798" font-family="FreeSans" font-size="10.00"> context_</text>
</g>
<!-- Node6 -->
<g id="node11" class="node"><title>Node6</title>
<a xlink:href="a00147.html" target="_top" xlink:title="Urho3D::HashMap\&lt; Urho3D\l::ShortStringHash, Urho3D\l::Vector\&lt; Urho3D::AttributeInfo \&gt; \&gt;">
<polygon fill="none" stroke="red" points="1081.5,-650.5 1081.5,-697.5 1270.5,-697.5 1270.5,-650.5 1081.5,-650.5"/>
<text text-anchor="start" x="1089.5" y="-684.5" font-family="FreeSans" font-size="10.00">Urho3D::HashMap&lt; Urho3D</text>
<text text-anchor="start" x="1089.5" y="-671.5" font-family="FreeSans" font-size="10.00">::ShortStringHash, Urho3D</text>
<text text-anchor="middle" x="1176" y="-658.5" font-family="FreeSans" font-size="10.00">::Vector&lt; Urho3D::AttributeInfo &gt; &gt;</text>
</a>
</g>
<!-- Node6&#45;&gt;Node5 -->
<g id="edge12" class="edge"><title>Node6&#45;&gt;Node5</title>
<path fill="none" stroke="#9a32cd" stroke-dasharray="5,2" d="M1281.02,-657.502C1340.32,-648.186 1411.63,-636.982 1458.07,-629.687"/>
<polygon fill="#9a32cd" stroke="#9a32cd" points="1280.19,-654.089 1270.85,-659.099 1281.27,-661.004 1280.19,-654.089"/>
<text text-anchor="middle" x="1358" y="-671" font-family="FreeSans" font-size="10.00"> attributes_</text>
<text text-anchor="middle" x="1358" y="-658" font-family="FreeSans" font-size="10.00">networkAttributes_</text>
</g>
<!-- Node7 -->
<g id="node13" class="node"><title>Node7</title>
<a xlink:href="a00230.html" target="_top" xlink:title="Urho3D::PODVector\&lt;\l Urho3D::Object * \&gt;">
<polygon fill="none" stroke="black" points="1116.5,-362 1116.5,-396 1235.5,-396 1235.5,-362 1116.5,-362"/>
<text text-anchor="start" x="1124.5" y="-383" font-family="FreeSans" font-size="10.00">Urho3D::PODVector&lt;</text>
<text text-anchor="middle" x="1176" y="-370" font-family="FreeSans" font-size="10.00"> Urho3D::Object * &gt;</text>
</a>
</g>
<!-- Node7&#45;&gt;Node5 -->
<g id="edge14" class="edge"><title>Node7&#45;&gt;Node5</title>
<path fill="none" stroke="#9a32cd" stroke-dasharray="5,2" d="M1245.9,-382.043C1297.93,-387.652 1367.96,-402.664 1416,-442 1472.9,-488.584 1497.68,-579.865 1504.75,-611.166"/>
<polygon fill="#9a32cd" stroke="#9a32cd" points="1246.05,-378.54 1235.75,-381.042 1245.36,-385.506 1246.05,-378.54"/>
<text text-anchor="middle" x="1358" y="-446" font-family="FreeSans" font-size="10.00"> eventSenders_</text>
</g>
<!-- Node8 -->
<g id="node15" class="node"><title>Node8</title>
<a xlink:href="a00330.html" target="_top" xlink:title="Vector base class.">
<polygon fill="none" stroke="black" points="854,-210.5 854,-231.5 968,-231.5 968,-210.5 854,-210.5"/>
<text text-anchor="middle" x="911" y="-218.5" font-family="FreeSans" font-size="10.00">Urho3D::VectorBase</text>
</a>
</g>
<!-- Node8&#45;&gt;Node7 -->
<g id="edge16" class="edge"><title>Node8&#45;&gt;Node7</title>
<path fill="none" stroke="midnightblue" d="M927.732,-239.472C954.79,-268.19 1011.09,-323.321 1070,-353 1084.3,-360.204 1100.71,-365.485 1116.27,-369.328"/>
<polygon fill="midnightblue" stroke="midnightblue" points="929.969,-236.737 920.6,-231.789 924.839,-241.499 929.969,-236.737"/>
</g>
<!-- Node15 -->
<g id="node30" class="node"><title>Node15</title>
<a xlink:href="a00230.html" target="_top" xlink:title="Urho3D::PODVector\&lt;\l Urho3D::HashMap * \&gt;">
<polygon fill="none" stroke="black" points="1112.5,-310 1112.5,-344 1239.5,-344 1239.5,-310 1112.5,-310"/>
<text text-anchor="start" x="1120.5" y="-331" font-family="FreeSans" font-size="10.00">Urho3D::PODVector&lt;</text>
<text text-anchor="middle" x="1176" y="-318" font-family="FreeSans" font-size="10.00"> Urho3D::HashMap * &gt;</text>
</a>
</g>
<!-- Node8&#45;&gt;Node15 -->
<g id="edge34" class="edge"><title>Node8&#45;&gt;Node15</title>
<path fill="none" stroke="midnightblue" d="M978.211,-227.283C1002.25,-231.217 1029.05,-237.611 1052,-248 1061.23,-252.18 1061.67,-256.231 1070,-262 1095.03,-279.326 1124.64,-297.285 1146.2,-309.923"/>
<polygon fill="midnightblue" stroke="midnightblue" points="978.51,-223.788 968.097,-225.743 977.456,-230.708 978.51,-223.788"/>
</g>
<!-- Node17 -->
<g id="node36" class="node"><title>Node17</title>
<a xlink:href="a00326.html" target="_top" xlink:title="Urho3D::Vector\&lt; Urho3D\l::String \&gt;">
<polygon fill="none" stroke="black" points="1107,-167 1107,-201 1245,-201 1245,-167 1107,-167"/>
<text text-anchor="start" x="1115" y="-188" font-family="FreeSans" font-size="10.00">Urho3D::Vector&lt; Urho3D</text>
<text text-anchor="middle" x="1176" y="-175" font-family="FreeSans" font-size="10.00">::String &gt;</text>
</a>
</g>
<!-- Node8&#45;&gt;Node17 -->
<g id="edge42" class="edge"><title>Node8&#45;&gt;Node17</title>
<path fill="none" stroke="midnightblue" d="M978.193,-211.618C1017.5,-206.131 1067.02,-199.216 1106.69,-193.678"/>
<polygon fill="midnightblue" stroke="midnightblue" points="977.595,-208.168 968.175,-213.017 978.563,-215.101 977.595,-208.168"/>
</g>
<!-- Node23 -->
<g id="node52" class="node"><title>Node23</title>
<a xlink:href="a00326.html" target="_top" xlink:title="Urho3D::Vector\&lt; Urho3D\l::Pair\&lt; int, Urho3D::String \&gt; \&gt;">
<polygon fill="none" stroke="black" points="1094.5,-219 1094.5,-253 1257.5,-253 1257.5,-219 1094.5,-219"/>
<text text-anchor="start" x="1102.5" y="-240" font-family="FreeSans" font-size="10.00">Urho3D::Vector&lt; Urho3D</text>
<text text-anchor="middle" x="1176" y="-227" font-family="FreeSans" font-size="10.00">::Pair&lt; int, Urho3D::String &gt; &gt;</text>
</a>
</g>
<!-- Node8&#45;&gt;Node23 -->
<g id="edge62" class="edge"><title>Node8&#45;&gt;Node23</title>
<path fill="none" stroke="midnightblue" d="M978.464,-220.72C1001.78,-220.951 1028.05,-221.578 1052,-223 1065.72,-223.815 1080.26,-225.025 1094.38,-226.385"/>
<polygon fill="midnightblue" stroke="midnightblue" points="978.353,-217.219 968.327,-220.642 978.299,-224.219 978.353,-217.219"/>
</g>
<!-- Node9 -->
<g id="node17" class="node"><title>Node9</title>
<a xlink:href="a00147.html" target="_top" xlink:title="Urho3D::HashMap\&lt; Urho3D\l::ShortStringHash, Urho3D\l::SharedPtr\&lt; Urho3D::Object \&gt; \&gt;">
<polygon fill="none" stroke="red" points="1087,-546.5 1087,-593.5 1265,-593.5 1265,-546.5 1087,-546.5"/>
<text text-anchor="start" x="1095" y="-580.5" font-family="FreeSans" font-size="10.00">Urho3D::HashMap&lt; Urho3D</text>
<text text-anchor="start" x="1095" y="-567.5" font-family="FreeSans" font-size="10.00">::ShortStringHash, Urho3D</text>
<text text-anchor="middle" x="1176" y="-554.5" font-family="FreeSans" font-size="10.00">::SharedPtr&lt; Urho3D::Object &gt; &gt;</text>
</a>
</g>
<!-- Node9&#45;&gt;Node5 -->
<g id="edge18" class="edge"><title>Node9&#45;&gt;Node5</title>
<path fill="none" stroke="#9a32cd" stroke-dasharray="5,2" d="M1275.21,-576.198C1318.7,-579.976 1370.16,-585.893 1416,-595 1436.53,-599.078 1459.08,-605.755 1476.6,-611.448"/>
<polygon fill="#9a32cd" stroke="#9a32cd" points="1275.46,-572.707 1265.2,-575.353 1274.87,-579.682 1275.46,-572.707"/>
<text text-anchor="middle" x="1358" y="-599" font-family="FreeSans" font-size="10.00"> subsystems_</text>
</g>
<!-- Node10 -->
<g id="node19" class="node"><title>Node10</title>
<a xlink:href="a00147.html" target="_top" xlink:title="Urho3D::HashMap\&lt; Urho3D\l::String, Urho3D::Vector\l\&lt; Urho3D::ShortStringHash \&gt; \&gt;">
<polygon fill="none" stroke="red" points="1089.5,-480.5 1089.5,-527.5 1262.5,-527.5 1262.5,-480.5 1089.5,-480.5"/>
<text text-anchor="start" x="1097.5" y="-514.5" font-family="FreeSans" font-size="10.00">Urho3D::HashMap&lt; Urho3D</text>
<text text-anchor="start" x="1097.5" y="-501.5" font-family="FreeSans" font-size="10.00">::String, Urho3D::Vector</text>
<text text-anchor="middle" x="1176" y="-488.5" font-family="FreeSans" font-size="10.00">&lt; Urho3D::ShortStringHash &gt; &gt;</text>
</a>
</g>
<!-- Node10&#45;&gt;Node5 -->
<g id="edge20" class="edge"><title>Node10&#45;&gt;Node5</title>
<path fill="none" stroke="#9a32cd" stroke-dasharray="5,2" d="M1272.75,-519.452C1317.51,-528.582 1370.68,-542.301 1416,-562 1446.02,-575.05 1477.03,-597.863 1493.97,-611.284"/>
<polygon fill="#9a32cd" stroke="#9a32cd" points="1273.23,-515.98 1262.74,-517.459 1271.86,-522.845 1273.23,-515.98"/>
<text text-anchor="middle" x="1358" y="-566" font-family="FreeSans" font-size="10.00"> objectCategories_</text>
</g>
<!-- Node11&#45;&gt;Node5 -->
<g id="edge22" class="edge"><title>Node11&#45;&gt;Node5</title>
<path fill="none" stroke="#9a32cd" stroke-dasharray="5,2" d="M1248.19,-914.332C1309.42,-908.139 1391.16,-896.155 1416,-875 1493.47,-809.023 1504.99,-671.948 1506.7,-632.707"/>
<polygon fill="#9a32cd" stroke="#9a32cd" points="1247.78,-910.856 1238.16,-915.314 1248.46,-917.823 1247.78,-910.856"/>
<text text-anchor="middle" x="1358" y="-912" font-family="FreeSans" font-size="10.00"> eventHandler_</text>
</g>
<!-- Node16 -->
<g id="node33" class="node"><title>Node16</title>
<a xlink:href="a00169.html" target="_top" xlink:title="Urho3D::LinkedList\l\&lt; Urho3D::EventHandler \&gt;">
<polygon fill="none" stroke="black" points="1434,-935 1434,-969 1580,-969 1580,-935 1434,-935"/>
<text text-anchor="start" x="1442" y="-956" font-family="FreeSans" font-size="10.00">Urho3D::LinkedList</text>
<text text-anchor="middle" x="1507" y="-943" font-family="FreeSans" font-size="10.00">&lt; Urho3D::EventHandler &gt;</text>
</a>
</g>
<!-- Node11&#45;&gt;Node16 -->
<g id="edge38" class="edge"><title>Node11&#45;&gt;Node16</title>
<path fill="none" stroke="#9a32cd" stroke-dasharray="5,2" d="M1248.46,-925.129C1296.12,-928.726 1359.84,-933.961 1416,-940 1421.7,-940.613 1427.6,-941.292 1433.53,-942.004"/>
<polygon fill="#9a32cd" stroke="#9a32cd" points="1248.47,-921.62 1238.24,-924.363 1247.95,-928.6 1248.47,-921.62"/>
<text text-anchor="middle" x="1358" y="-944" font-family="FreeSans" font-size="10.00"> head_</text>
</g>
<!-- Node12 -->
<g id="node24" class="node"><title>Node12</title>
<a xlink:href="a00147.html" target="_top" xlink:title="Urho3D::HashMap\&lt; Urho3D\l::StringHash, Urho3D::\lHashSet\&lt; Urho3D::Object * \&gt; \&gt;">
<polygon fill="none" stroke="red" points="1089.5,-414.5 1089.5,-461.5 1262.5,-461.5 1262.5,-414.5 1089.5,-414.5"/>
<text text-anchor="start" x="1097.5" y="-448.5" font-family="FreeSans" font-size="10.00">Urho3D::HashMap&lt; Urho3D</text>
<text text-anchor="start" x="1097.5" y="-435.5" font-family="FreeSans" font-size="10.00">::StringHash, Urho3D::</text>
<text text-anchor="middle" x="1176" y="-422.5" font-family="FreeSans" font-size="10.00">HashSet&lt; Urho3D::Object * &gt; &gt;</text>
</a>
</g>
<!-- Node12&#45;&gt;Node5 -->
<g id="edge26" class="edge"><title>Node12&#45;&gt;Node5</title>
<path fill="none" stroke="#9a32cd" stroke-dasharray="5,2" d="M1272.57,-452.154C1318.85,-462.294 1373.34,-479.409 1416,-508 1457.65,-535.916 1489.31,-588.845 1501.52,-611.395"/>
<polygon fill="#9a32cd" stroke="#9a32cd" points="1273.03,-448.674 1262.53,-450.033 1271.59,-455.523 1273.03,-448.674"/>
<text text-anchor="middle" x="1358" y="-512" font-family="FreeSans" font-size="10.00"> eventReceivers_</text>
</g>
<!-- Node13 -->
<g id="node26" class="node"><title>Node13</title>
<a xlink:href="a00147.html" target="_top" xlink:title="Urho3D::HashMap\&lt; Urho3D\l::Object *, Urho3D::HashMap\l\&lt; Urho3D::StringHash, Urho3D\l::HashSet\&lt; Urho3D::Object * \&gt; \&gt; \&gt;">
<polygon fill="none" stroke="red" points="1080.5,-831 1080.5,-891 1271.5,-891 1271.5,-831 1080.5,-831"/>
<text text-anchor="start" x="1088.5" y="-878" font-family="FreeSans" font-size="10.00">Urho3D::HashMap&lt; Urho3D</text>
<text text-anchor="start" x="1088.5" y="-865" font-family="FreeSans" font-size="10.00">::Object *, Urho3D::HashMap</text>
<text text-anchor="start" x="1088.5" y="-852" font-family="FreeSans" font-size="10.00">&lt; Urho3D::StringHash, Urho3D</text>
<text text-anchor="middle" x="1176" y="-839" font-family="FreeSans" font-size="10.00">::HashSet&lt; Urho3D::Object * &gt; &gt; &gt;</text>
</a>
</g>
<!-- Node13&#45;&gt;Node5 -->
<g id="edge28" class="edge"><title>Node13&#45;&gt;Node5</title>
<path fill="none" stroke="#9a32cd" stroke-dasharray="5,2" d="M1281.87,-860.916C1327.17,-855.993 1378.21,-843.374 1416,-814 1477.74,-766.004 1499.63,-665.83 1505.33,-632.812"/>
<polygon fill="#9a32cd" stroke="#9a32cd" points="1281.31,-857.453 1271.7,-861.905 1281.99,-864.421 1281.31,-857.453"/>
<text text-anchor="middle" x="1358" y="-862" font-family="FreeSans" font-size="10.00"> specificEventReceivers_</text>
</g>
<!-- Node14 -->
<g id="node28" class="node"><title>Node14</title>
<a xlink:href="a00147.html" target="_top" xlink:title="Urho3D::HashMap\&lt; Urho3D\l::ShortStringHash, Urho3D\l::SharedPtr\&lt; Urho3D::ObjectFactory \&gt; \&gt;">
<polygon fill="none" stroke="red" points="1070,-716.5 1070,-763.5 1282,-763.5 1282,-716.5 1070,-716.5"/>
<text text-anchor="start" x="1078" y="-750.5" font-family="FreeSans" font-size="10.00">Urho3D::HashMap&lt; Urho3D</text>
<text text-anchor="start" x="1078" y="-737.5" font-family="FreeSans" font-size="10.00">::ShortStringHash, Urho3D</text>
<text text-anchor="middle" x="1176" y="-724.5" font-family="FreeSans" font-size="10.00">::SharedPtr&lt; Urho3D::ObjectFactory &gt; &gt;</text>
</a>
</g>
<!-- Node14&#45;&gt;Node5 -->
<g id="edge30" class="edge"><title>Node14&#45;&gt;Node5</title>
<path fill="none" stroke="#9a32cd" stroke-dasharray="5,2" d="M1291.94,-721.94C1332.25,-713.335 1377.09,-701.08 1416,-684 1446.63,-670.553 1477.91,-646.518 1494.63,-632.654"/>
<polygon fill="#9a32cd" stroke="#9a32cd" points="1291.14,-718.53 1282.07,-723.994 1292.57,-725.383 1291.14,-718.53"/>
<text text-anchor="middle" x="1358" y="-724" font-family="FreeSans" font-size="10.00"> factories_</text>
</g>
<!-- Node15&#45;&gt;Node5 -->
<g id="edge32" class="edge"><title>Node15&#45;&gt;Node5</title>
<path fill="none" stroke="#9a32cd" stroke-dasharray="5,2" d="M1249.85,-323.402C1301.96,-324.788 1370.35,-335.057 1416,-374 1491.89,-438.737 1504.51,-572.487 1506.59,-611.252"/>
<polygon fill="#9a32cd" stroke="#9a32cd" points="1249.71,-319.899 1239.65,-323.237 1249.59,-326.898 1249.71,-319.899"/>
<text text-anchor="middle" x="1358" y="-378" font-family="FreeSans" font-size="10.00"> eventDataMaps_</text>
</g>
<!-- Node16&#45;&gt;Node2 -->
<g id="edge36" class="edge"><title>Node16&#45;&gt;Node2</title>
<path fill="none" stroke="#9a32cd" stroke-dasharray="5,2" d="M1428.3,-971.121C1318.34,-992.983 1117.48,-1014.71 986,-921 945.746,-892.312 922.613,-834.597 914.418,-810.719"/>
<polygon fill="#9a32cd" stroke="#9a32cd" points="1429.23,-974.504 1438.33,-969.077 1427.83,-967.645 1429.23,-974.504"/>
<text text-anchor="middle" x="1176" y="-994" font-family="FreeSans" font-size="10.00"> eventHandlers_</text>
</g>
<!-- Node17&#45;&gt;Node1 -->
<g id="edge40" class="edge"><title>Node17&#45;&gt;Node1</title>
<path fill="none" stroke="#9a32cd" stroke-dasharray="5,2" d="M1255.25,-173.252C1302.08,-166.699 1362.5,-157.895 1416,-149 1429.63,-146.733 1444.38,-144.071 1457.95,-141.535"/>
<polygon fill="#9a32cd" stroke="#9a32cd" points="1254.59,-169.81 1245.17,-174.657 1255.56,-176.743 1254.59,-169.81"/>
<text text-anchor="middle" x="1358" y="-170" font-family="FreeSans" font-size="10.00"> history_</text>
</g>
<!-- Node18 -->
<g id="node39" class="node"><title>Node18</title>
<a xlink:href="a00279.html" target="_top" xlink:title="Urho3D::SharedPtr\&lt;\l Urho3D::UIElement \&gt;">
<polygon fill="none" stroke="black" points="500.5,-38 500.5,-72 623.5,-72 623.5,-38 500.5,-38"/>
<text text-anchor="start" x="508.5" y="-59" font-family="FreeSans" font-size="10.00">Urho3D::SharedPtr&lt;</text>
<text text-anchor="middle" x="562" y="-46" font-family="FreeSans" font-size="10.00"> Urho3D::UIElement &gt;</text>
</a>
</g>
<!-- Node18&#45;&gt;Node1 -->
<g id="edge44" class="edge"><title>Node18&#45;&gt;Node1</title>
<path fill="none" stroke="#9a32cd" stroke-dasharray="5,2" d="M633.801,-51.0994C684.657,-48.6685 754.491,-46 816,-46 816,-46 816,-46 1176,-46 1294.75,-46 1429.98,-98.4902 1483.46,-121.455"/>
<polygon fill="#9a32cd" stroke="#9a32cd" points="633.387,-47.6153 623.569,-51.5975 633.728,-54.607 633.387,-47.6153"/>
<text text-anchor="middle" x="911" y="-50" font-family="FreeSans" font-size="10.00"> rowContainer_</text>
</g>
<!-- Node19 -->
<g id="node41" class="node"><title>Node19</title>
<a xlink:href="a00321.html" target="_top" xlink:title="Base class for UI elements.">
<polygon fill="none" stroke="red" points="192.5,-65.5 192.5,-86.5 301.5,-86.5 301.5,-65.5 192.5,-65.5"/>
<text text-anchor="middle" x="247" y="-73.5" font-family="FreeSans" font-size="10.00">Urho3D::UIElement</text>
</a>
</g>
<!-- Node19&#45;&gt;Node18 -->
<g id="edge46" class="edge"><title>Node19&#45;&gt;Node18</title>
<path fill="none" stroke="#9a32cd" stroke-dasharray="5,2" d="M311.744,-68.7137C314.533,-68.4602 317.294,-68.2208 320,-68 381.225,-63.0046 451.328,-59.4787 500.268,-57.371"/>
<polygon fill="#9a32cd" stroke="#9a32cd" points="311.202,-65.2495 301.58,-69.6843 311.867,-72.2178 311.202,-65.2495"/>
<text text-anchor="middle" x="331" y="-72" font-family="FreeSans" font-size="10.00"> ptr_</text>
</g>
<!-- Node19&#45;&gt;Node19 -->
<g id="edge48" class="edge"><title>Node19&#45;&gt;Node19</title>
<path fill="none" stroke="#9a32cd" stroke-dasharray="5,2" d="M231.617,-96.7934C232.974,-101.529 238.102,-105 247,-105 261.602,-105 266.05,-95.6531 260.347,-86.7079"/>
<polygon fill="#9a32cd" stroke="#9a32cd" points="235.105,-97.2028 233.653,-86.7079 228.243,-95.8172 235.105,-97.2028"/>
<text text-anchor="middle" x="247" y="-109" font-family="FreeSans" font-size="10.00"> parent_</text>
</g>
<!-- Node22 -->
<g id="node49" class="node"><title>Node22</title>
<a xlink:href="a00078.html" target="_top" xlink:title="Image UI element with optional border.">
<polygon fill="none" stroke="red" points="360,-86.5 360,-107.5 482,-107.5 482,-86.5 360,-86.5"/>
<text text-anchor="middle" x="421" y="-94.5" font-family="FreeSans" font-size="10.00">Urho3D::BorderImage</text>
</a>
</g>
<!-- Node19&#45;&gt;Node22 -->
<g id="edge58" class="edge"><title>Node19&#45;&gt;Node22</title>
<path fill="none" stroke="midnightblue" d="M311.768,-83.8169C327.542,-85.7206 344.36,-87.7504 359.954,-89.6324"/>
<polygon fill="midnightblue" stroke="midnightblue" points="311.925,-80.3104 301.577,-82.5869 311.086,-87.26 311.925,-80.3104"/>
</g>
<!-- Node20 -->
<g id="node44" class="node"><title>Node20</title>
<a xlink:href="a00300.html" target="_top" xlink:title="String class.">
<polygon fill="none" stroke="black" points="0,-65.5 0,-86.5 88,-86.5 88,-65.5 0,-65.5"/>
<text text-anchor="middle" x="44" y="-73.5" font-family="FreeSans" font-size="10.00">Urho3D::String</text>
</a>
</g>
<!-- Node20&#45;&gt;Node1 -->
<g id="edge64" class="edge"><title>Node20&#45;&gt;Node1</title>
<path fill="none" stroke="#9a32cd" stroke-dasharray="5,2" d="M68.7154,-60.1373C105.864,-37.8608 179.004,-0 247,-0 247,-0 247,-0 1176,-0 1285.74,-7.10543e-15 1317.67,-9.2897 1416,-58 1449.39,-74.5408 1481.54,-105.248 1497.17,-121.415"/>
<polygon fill="#9a32cd" stroke="#9a32cd" points="66.7702,-57.2243 60.0712,-65.4325 70.4268,-63.1934 66.7702,-57.2243"/>
<text text-anchor="middle" x="710" y="-4" font-family="FreeSans" font-size="10.00"> currentRow_</text>
</g>
<!-- Node20&#45;&gt;Node19 -->
<g id="edge50" class="edge"><title>Node20&#45;&gt;Node19</title>
<path fill="none" stroke="#9a32cd" stroke-dasharray="5,2" d="M98.42,-76C127.449,-76 163.079,-76 192.17,-76"/>
<polygon fill="#9a32cd" stroke="#9a32cd" points="98.048,-72.5001 88.048,-76 98.0479,-79.5001 98.048,-72.5001"/>
<text text-anchor="middle" x="140" y="-93" font-family="FreeSans" font-size="10.00"> appliedStyle_</text>
<text text-anchor="middle" x="140" y="-80" font-family="FreeSans" font-size="10.00">name_</text>
</g>
<!-- Node20&#45;&gt;Node20 -->
<g id="edge52" class="edge"><title>Node20&#45;&gt;Node20</title>
<path fill="none" stroke="#9a32cd" stroke-dasharray="5,2" d="M26.3082,-96.4266C27.6731,-101.349 33.5703,-105 44,-105 60.6875,-105 65.772,-95.6531 59.2534,-86.7079"/>
<polygon fill="#9a32cd" stroke="#9a32cd" points="29.7078,-97.259 28.7466,-86.7079 22.9182,-95.5555 29.7078,-97.259"/>
<text text-anchor="middle" x="44" y="-109" font-family="FreeSans" font-size="10.00"> EMPTY</text>
</g>
<!-- Node25 -->
<g id="node58" class="node"><title>Node25</title>
<a xlink:href="a00168.html" target="_top" xlink:title="Single&#45;line text editor UI element.">
<polygon fill="none" stroke="red" points="862.5,-129.5 862.5,-150.5 959.5,-150.5 959.5,-129.5 862.5,-129.5"/>
<text text-anchor="middle" x="911" y="-137.5" font-family="FreeSans" font-size="10.00">Urho3D::LineEdit</text>
</a>
</g>
<!-- Node20&#45;&gt;Node25 -->
<g id="edge74" class="edge"><title>Node20&#45;&gt;Node25</title>
<path fill="none" stroke="#9a32cd" stroke-dasharray="5,2" d="M61.8981,-93.7574C95.2555,-124.878 170.507,-186 247,-186 247,-186 247,-186 710,-186 773.183,-186 844.787,-164.134 883.167,-150.553"/>
<polygon fill="#9a32cd" stroke="#9a32cd" points="63.995,-90.9204 54.3448,-86.5473 59.1616,-95.9839 63.995,-90.9204"/>
<text text-anchor="middle" x="421" y="-190" font-family="FreeSans" font-size="10.00"> line_</text>
</g>
<!-- Node21 -->
<g id="node47" class="node"><title>Node21</title>
<a xlink:href="a00279.html" target="_top" xlink:title="Urho3D::SharedPtr\&lt;\l Urho3D::BorderImage \&gt;">
<polygon fill="none" stroke="black" points="642,-80 642,-114 778,-114 778,-80 642,-80"/>
<text text-anchor="start" x="650" y="-101" font-family="FreeSans" font-size="10.00">Urho3D::SharedPtr&lt;</text>
<text text-anchor="middle" x="710" y="-88" font-family="FreeSans" font-size="10.00"> Urho3D::BorderImage &gt;</text>
</a>
</g>
<!-- Node21&#45;&gt;Node1 -->
<g id="edge54" class="edge"><title>Node21&#45;&gt;Node1</title>
<path fill="none" stroke="#9a32cd" stroke-dasharray="5,2" d="M788.368,-95.7744C898.657,-94.6091 1105.89,-94.4677 1282,-106 1342.82,-109.983 1412.47,-118.674 1457.97,-124.912"/>
<polygon fill="#9a32cd" stroke="#9a32cd" points="788.287,-92.275 778.327,-95.8862 788.365,-99.2745 788.287,-92.275"/>
<text text-anchor="middle" x="1019" y="-100" font-family="FreeSans" font-size="10.00"> background_</text>
</g>
<!-- Node21&#45;&gt;Node25 -->
<g id="edge72" class="edge"><title>Node21&#45;&gt;Node25</title>
<path fill="none" stroke="#9a32cd" stroke-dasharray="5,2" d="M788.421,-111.184C804.21,-114.251 820.663,-117.6 836,-121 847.54,-123.558 860.009,-126.603 871.404,-129.497"/>
<polygon fill="#9a32cd" stroke="#9a32cd" points="788.641,-107.662 778.16,-109.211 787.32,-114.536 788.641,-107.662"/>
<text text-anchor="middle" x="816" y="-125" font-family="FreeSans" font-size="10.00"> cursor_</text>
</g>
<!-- Node22&#45;&gt;Node21 -->
<g id="edge56" class="edge"><title>Node22&#45;&gt;Node21</title>
<path fill="none" stroke="#9a32cd" stroke-dasharray="5,2" d="M492.413,-97C538.085,-97 596.978,-97 641.974,-97"/>
<polygon fill="#9a32cd" stroke="#9a32cd" points="492.29,-93.5001 482.289,-97 492.289,-100.5 492.29,-93.5001"/>
<text text-anchor="middle" x="562" y="-101" font-family="FreeSans" font-size="10.00"> ptr_</text>
</g>
<!-- Node22&#45;&gt;Node25 -->
<g id="edge70" class="edge"><title>Node22&#45;&gt;Node25</title>
<path fill="none" stroke="midnightblue" d="M474.504,-109.604C482.997,-111.289 491.712,-112.835 500,-114 630.571,-132.362 664.38,-126.12 796,-134 817.753,-135.302 841.83,-136.583 862.309,-137.625"/>
<polygon fill="midnightblue" stroke="midnightblue" points="475.175,-106.169 464.674,-107.576 473.761,-113.025 475.175,-106.169"/>
</g>
<!-- Node23&#45;&gt;Node1 -->
<g id="edge60" class="edge"><title>Node23&#45;&gt;Node1</title>
<path fill="none" stroke="#9a32cd" stroke-dasharray="5,2" d="M1267.58,-222.298C1313.12,-213.859 1368.45,-201.12 1416,-183 1444.09,-172.295 1474.02,-154.029 1491.58,-142.509"/>
<polygon fill="#9a32cd" stroke="#9a32cd" points="1266.94,-218.858 1257.72,-224.087 1268.19,-225.746 1266.94,-218.858"/>
<text text-anchor="middle" x="1358" y="-218" font-family="FreeSans" font-size="10.00"> pendingRows_</text>
</g>
<!-- Node24 -->
<g id="node56" class="node"><title>Node24</title>
<a xlink:href="a00279.html" target="_top" xlink:title="Urho3D::SharedPtr\&lt;\l Urho3D::LineEdit \&gt;">
<polygon fill="none" stroke="black" points="1118,-115 1118,-149 1234,-149 1234,-115 1118,-115"/>
<text text-anchor="start" x="1126" y="-136" font-family="FreeSans" font-size="10.00">Urho3D::SharedPtr&lt;</text>
<text text-anchor="middle" x="1176" y="-123" font-family="FreeSans" font-size="10.00"> Urho3D::LineEdit &gt;</text>
</a>
</g>
<!-- Node24&#45;&gt;Node1 -->
<g id="edge66" class="edge"><title>Node24&#45;&gt;Node1</title>
<path fill="none" stroke="#9a32cd" stroke-dasharray="5,2" d="M1244.38,-132C1308.04,-132 1401.38,-132 1457.94,-132"/>
<polygon fill="#9a32cd" stroke="#9a32cd" points="1244.03,-128.5 1234.03,-132 1244.03,-135.5 1244.03,-128.5"/>
<text text-anchor="middle" x="1358" y="-136" font-family="FreeSans" font-size="10.00"> lineEdit_</text>
</g>
<!-- Node25&#45;&gt;Node24 -->
<g id="edge68" class="edge"><title>Node25&#45;&gt;Node24</title>
<path fill="none" stroke="#9a32cd" stroke-dasharray="5,2" d="M969.858,-138.223C1013.83,-136.896 1073.65,-135.09 1117.53,-133.765"/>
<polygon fill="#9a32cd" stroke="#9a32cd" points="969.495,-134.732 959.605,-138.533 969.706,-141.729 969.495,-134.732"/>
<text text-anchor="middle" x="1019" y="-141" font-family="FreeSans" font-size="10.00"> ptr_</text>
</g>
</g>
</svg>
