<?xml version="1.0" encoding="UTF-8" standalone="no"?>
<!DOCTYPE svg PUBLIC "-//W3C//DTD SVG 1.1//EN"
 "http://www.w3.org/Graphics/SVG/1.1/DTD/svg11.dtd">
<!-- Generated by graphviz version 2.26.3 (20100126.1600)
 -->
<!-- Title: Urho3D::Batch Pages: 1 -->
<!--zoomable 630 -->
<svg id="main" version="1.1" xmlns="http://www.w3.org/2000/svg" xmlns:xlink="http://www.w3.org/1999/xlink" xml:space="preserve" onload="init(evt)">
        <defs>
                <circle id="rim" cx="0" cy="0" r="7"/>
                <circle id="rim2" cx="0" cy="0" r="3.5"/>
                <g id="zoomPlus">
                        <use xlink:href="#rim" fill="#404040">
                                <set attributeName="fill" to="#808080" begin="zoomplus.mouseover" end="zoomplus.mouseout"/>
                        </use>
                        <path d="M-4,0h8M0,-4v8" fill="none" stroke="white" stroke-width="1.5" pointer-events="none"/>
                </g>
                <g id="zoomMin">
                        <use xlink:href="#rim" fill="#404040">
                                <set attributeName="fill" to="#808080" begin="zoomminus.mouseover" end="zoomminus.mouseout"/>
                        </use>
                        <path d="M-4,0h8" fill="none" stroke="white" stroke-width="1.5" pointer-events="none"/>
                </g>
                <g id="dirArrow">
                        <path fill="none" stroke="white" stroke-width="1.5" d="M0,-3.0v7 M-2.5,-0.5L0,-3.0L2.5,-0.5"/>
                </g>
               <g id="resetDef">
                       <use xlink:href="#rim2" fill="#404040">
                               <set attributeName="fill" to="#808080" begin="reset.mouseover" end="reset.mouseout"/>
                       </use>
               </g>
        </defs>

<script type="text/javascript">
var viewWidth = 1746;
var viewHeight = 630;
var sectionId = 'dynsection-1';
</script>
<script xlink:href="svgpan.js"/>
<svg id="graph" class="graph">
<g id="viewport">
<title>Urho3D::Batch</title>
<!-- Node1 -->
<g id="node1" class="node"><title>Node1</title>
<polygon fill="#bfbfbf" stroke="black" points="1621.5,-228.5 1621.5,-249.5 1708.5,-249.5 1708.5,-228.5 1621.5,-228.5"/>
<text text-anchor="middle" x="1665" y="-236.5" font-family="FreeSans" font-size="10.00">Urho3D::Batch</text>
</g>
<!-- Node2 -->
<g id="node2" class="node"><title>Node2</title>
<a xlink:href="a00167.html" target="_top" xlink:title="Queue for light related draw calls.">
<polygon fill="none" stroke="black" points="458,-371.5 458,-392.5 600,-392.5 600,-371.5 458,-371.5"/>
<text text-anchor="middle" x="529" y="-379.5" font-family="FreeSans" font-size="10.00">Urho3D::LightBatchQueue</text>
</a>
</g>
<!-- Node2&#45;&gt;Node1 -->
<g id="edge2" class="edge"><title>Node2&#45;&gt;Node1</title>
<path fill="none" stroke="#9a32cd" stroke-dasharray="5,2" d="M610.208,-382C661.484,-382 729.12,-382 789,-382 789,-382 789,-382 1374,-382 1494.18,-382 1616.3,-282.539 1653.54,-249.515"/>
<polygon fill="#9a32cd" stroke="#9a32cd" points="610.178,-378.5 600.178,-382 610.178,-385.5 610.178,-378.5"/>
<text text-anchor="middle" x="1087" y="-386" font-family="FreeSans" font-size="10.00"> lightQueue_</text>
</g>
<!-- Node8 -->
<g id="node15" class="node"><title>Node8</title>
<a xlink:href="a00166.html" target="_top" xlink:title="Light component.">
<polygon fill="none" stroke="red" points="747.5,-423.5 747.5,-444.5 830.5,-444.5 830.5,-423.5 747.5,-423.5"/>
<text text-anchor="middle" x="789" y="-431.5" font-family="FreeSans" font-size="10.00">Urho3D::Light</text>
</a>
</g>
<!-- Node2&#45;&gt;Node8 -->
<g id="edge46" class="edge"><title>Node2&#45;&gt;Node8</title>
<path fill="none" stroke="#9a32cd" stroke-dasharray="5,2" d="M610.249,-393.563C641.568,-398.517 677.588,-404.823 710,-412 724.595,-415.232 740.508,-419.514 754.202,-423.441"/>
<polygon fill="#9a32cd" stroke="#9a32cd" points="610.677,-390.087 600.257,-392.003 609.597,-397.004 610.677,-390.087"/>
<text text-anchor="middle" x="664" y="-416" font-family="FreeSans" font-size="10.00"> lightQueue_</text>
</g>
<!-- Node3 -->
<g id="node4" class="node"><title>Node3</title>
<a xlink:href="a00328.html" target="_top" xlink:title="Urho3D::Vector\&lt; Urho3D\l::ShadowBatchQueue \&gt;">
<polygon fill="none" stroke="red" points="204,-390 204,-424 342,-424 342,-390 204,-390"/>
<text text-anchor="start" x="212" y="-411" font-family="FreeSans" font-size="10.00">Urho3D::Vector&lt; Urho3D</text>
<text text-anchor="middle" x="273" y="-398" font-family="FreeSans" font-size="10.00">::ShadowBatchQueue &gt;</text>
</a>
</g>
<!-- Node3&#45;&gt;Node2 -->
<g id="edge4" class="edge"><title>Node3&#45;&gt;Node2</title>
<path fill="none" stroke="#9a32cd" stroke-dasharray="5,2" d="M352.55,-399.231C386.234,-395.942 425.17,-392.14 457.884,-388.945"/>
<polygon fill="#9a32cd" stroke="#9a32cd" points="351.89,-395.779 342.277,-400.235 352.57,-402.746 351.89,-395.779"/>
<text text-anchor="middle" x="400" y="-402" font-family="FreeSans" font-size="10.00"> shadowSplits_</text>
</g>
<!-- Node4 -->
<g id="node6" class="node"><title>Node4</title>
<a xlink:href="a00232.html" target="_top" xlink:title="Urho3D::PODVector\&lt;\l Urho3D::Light * \&gt;">
<polygon fill="none" stroke="red" points="213.5,-532 213.5,-566 332.5,-566 332.5,-532 213.5,-532"/>
<text text-anchor="start" x="221.5" y="-553" font-family="FreeSans" font-size="10.00">Urho3D::PODVector&lt;</text>
<text text-anchor="middle" x="273" y="-540" font-family="FreeSans" font-size="10.00"> Urho3D::Light * &gt;</text>
</a>
</g>
<!-- Node4&#45;&gt;Node2 -->
<g id="edge6" class="edge"><title>Node4&#45;&gt;Node2</title>
<path fill="none" stroke="#9a32cd" stroke-dasharray="5,2" d="M333.5,-528.165C368.996,-513.132 412.196,-489.536 440,-456 456.146,-436.525 439.695,-419.462 458,-402 461.985,-398.199 466.634,-395.111 471.612,-392.603"/>
<polygon fill="#9a32cd" stroke="#9a32cd" points="332.106,-524.954 324.185,-531.99 334.765,-531.429 332.106,-524.954"/>
<text text-anchor="middle" x="400" y="-518" font-family="FreeSans" font-size="10.00"> vertexLights_</text>
</g>
<!-- Node9 -->
<g id="node17" class="node"><title>Node9</title>
<a xlink:href="a00121.html" target="_top" xlink:title="Base class for visible components.">
<polygon fill="none" stroke="red" points="1035,-436.5 1035,-457.5 1139,-457.5 1139,-436.5 1035,-436.5"/>
<text text-anchor="middle" x="1087" y="-444.5" font-family="FreeSans" font-size="10.00">Urho3D::Drawable</text>
</a>
</g>
<!-- Node4&#45;&gt;Node9 -->
<g id="edge40" class="edge"><title>Node4&#45;&gt;Node9</title>
<path fill="none" stroke="#9a32cd" stroke-dasharray="5,2" d="M328.094,-569.552C364.412,-581.978 413.344,-596.616 458,-603 520.476,-611.932 539.679,-621.559 600,-603 665.744,-582.772 664.753,-543.041 728,-516 786.511,-490.984 805.555,-498.247 868,-486 924.846,-474.851 990.263,-463.378 1034.69,-455.788"/>
<polygon fill="#9a32cd" stroke="#9a32cd" points="328.793,-566.09 318.199,-566.114 326.496,-572.702 328.793,-566.09"/>
<text text-anchor="middle" x="664" y="-612" font-family="FreeSans" font-size="10.00"> vertexLights_</text>
<text text-anchor="middle" x="664" y="-599" font-family="FreeSans" font-size="10.00">lights_</text>
</g>
<!-- Node5 -->
<g id="node8" class="node"><title>Node5</title>
<a xlink:href="a00073.html" target="_top" xlink:title="Queue that contains both instanced and non&#45;instanced draw calls.">
<polygon fill="none" stroke="red" points="213.5,-349.5 213.5,-370.5 332.5,-370.5 332.5,-349.5 213.5,-349.5"/>
<text text-anchor="middle" x="273" y="-357.5" font-family="FreeSans" font-size="10.00">Urho3D::BatchQueue</text>
</a>
</g>
<!-- Node5&#45;&gt;Node2 -->
<g id="edge8" class="edge"><title>Node5&#45;&gt;Node2</title>
<path fill="none" stroke="#9a32cd" stroke-dasharray="5,2" d="M343.103,-355.471C373.062,-354.597 408.354,-354.977 440,-359 458.998,-361.415 479.741,-366.62 496.419,-371.468"/>
<polygon fill="#9a32cd" stroke="#9a32cd" points="342.617,-351.986 332.744,-355.829 342.859,-358.982 342.617,-351.986"/>
<text text-anchor="middle" x="400" y="-376" font-family="FreeSans" font-size="10.00"> litBaseBatches_</text>
<text text-anchor="middle" x="400" y="-363" font-family="FreeSans" font-size="10.00">litBatches_</text>
</g>
<!-- Node6 -->
<g id="node10" class="node"><title>Node6</title>
<a xlink:href="a00232.html" target="_top" xlink:title="Urho3D::PODVector\&lt;\l Urho3D::Batch \&gt;">
<polygon fill="none" stroke="red" points="0.5,-319 0.5,-353 119.5,-353 119.5,-319 0.5,-319"/>
<text text-anchor="start" x="8.5" y="-340" font-family="FreeSans" font-size="10.00">Urho3D::PODVector&lt;</text>
<text text-anchor="middle" x="60" y="-327" font-family="FreeSans" font-size="10.00"> Urho3D::Batch &gt;</text>
</a>
</g>
<!-- Node6&#45;&gt;Node2 -->
<g id="edge14" class="edge"><title>Node6&#45;&gt;Node2</title>
<path fill="none" stroke="#9a32cd" stroke-dasharray="5,2" d="M129.765,-330.76C153.328,-329.225 179.792,-327.756 204,-327 265.303,-325.086 281.108,-319.652 342,-327 386.52,-332.372 397,-338.277 440,-351 460.553,-357.081 483.377,-365.056 500.765,-371.394"/>
<polygon fill="#9a32cd" stroke="#9a32cd" points="129.257,-327.286 119.512,-331.444 129.723,-334.27 129.257,-327.286"/>
<text text-anchor="middle" x="273" y="-331" font-family="FreeSans" font-size="10.00"> volumeBatches_</text>
</g>
<!-- Node6&#45;&gt;Node5 -->
<g id="edge10" class="edge"><title>Node6&#45;&gt;Node5</title>
<path fill="none" stroke="#9a32cd" stroke-dasharray="5,2" d="M129.78,-343.863C156.807,-346.908 187.427,-350.358 213.399,-353.284"/>
<polygon fill="#9a32cd" stroke="#9a32cd" points="129.945,-340.359 119.616,-342.717 129.161,-347.315 129.945,-340.359"/>
<text text-anchor="middle" x="162" y="-354" font-family="FreeSans" font-size="10.00"> batches_</text>
</g>
<!-- Node7 -->
<g id="node12" class="node"><title>Node7</title>
<a xlink:href="a00311.html" target="_top" xlink:title="2D texture resource.">
<polygon fill="none" stroke="red" points="219.5,-442.5 219.5,-463.5 326.5,-463.5 326.5,-442.5 219.5,-442.5"/>
<text text-anchor="middle" x="273" y="-450.5" font-family="FreeSans" font-size="10.00">Urho3D::Texture2D</text>
</a>
</g>
<!-- Node7&#45;&gt;Node2 -->
<g id="edge12" class="edge"><title>Node7&#45;&gt;Node2</title>
<path fill="none" stroke="#9a32cd" stroke-dasharray="5,2" d="M336.781,-444.668C368.754,-438.969 407.484,-429.701 440,-415 448.992,-410.935 449.114,-406.293 458,-402 465.726,-398.268 474.271,-395.119 482.677,-392.504"/>
<polygon fill="#9a32cd" stroke="#9a32cd" points="335.923,-441.264 326.654,-446.396 337.1,-448.164 335.923,-441.264"/>
<text text-anchor="middle" x="400" y="-443" font-family="FreeSans" font-size="10.00"> shadowMap_</text>
</g>
<!-- Node8&#45;&gt;Node2 -->
<g id="edge16" class="edge"><title>Node8&#45;&gt;Node2</title>
<path fill="none" stroke="#9a32cd" stroke-dasharray="5,2" d="M736.967,-444.379C701.283,-448.765 654.058,-448.981 618,-429 605.385,-422.01 611.665,-410.481 600,-402 594.718,-398.159 588.722,-395.055 582.507,-392.546"/>
<polygon fill="#9a32cd" stroke="#9a32cd" points="737.746,-447.805 747.175,-442.974 736.791,-440.871 737.746,-447.805"/>
<text text-anchor="middle" x="664" y="-450" font-family="FreeSans" font-size="10.00"> light_</text>
</g>
<!-- Node8&#45;&gt;Node9 -->
<g id="edge42" class="edge"><title>Node8&#45;&gt;Node9</title>
<path fill="none" stroke="#9a32cd" stroke-dasharray="5,2" d="M840.697,-423.501C849.76,-422.044 859.128,-420.78 868,-420 911.388,-416.185 922.707,-415.228 966,-420 994.454,-423.136 1026,-430.301 1049.75,-436.462"/>
<polygon fill="#9a32cd" stroke="#9a32cd" points="839.908,-420.085 830.637,-425.213 841.083,-426.985 839.908,-420.085"/>
<text text-anchor="middle" x="917" y="-424" font-family="FreeSans" font-size="10.00"> firstLight_</text>
</g>
<!-- Node9&#45;&gt;Node8 -->
<g id="edge18" class="edge"><title>Node9&#45;&gt;Node8</title>
<path fill="none" stroke="midnightblue" d="M1024.58,-444.277C966.361,-441.737 881.145,-438.02 830.749,-435.821"/>
<polygon fill="midnightblue" stroke="midnightblue" points="1024.62,-447.782 1034.76,-444.721 1024.92,-440.788 1024.62,-447.782"/>
</g>
<!-- Node11 -->
<g id="node21" class="node"><title>Node11</title>
<a xlink:href="a00350.html" target="_top" xlink:title="Component that describes global rendering properties">
<polygon fill="none" stroke="black" points="1331.5,-464.5 1331.5,-485.5 1416.5,-485.5 1416.5,-464.5 1331.5,-464.5"/>
<text text-anchor="middle" x="1374" y="-472.5" font-family="FreeSans" font-size="10.00">Urho3D::Zone</text>
</a>
</g>
<!-- Node9&#45;&gt;Node11 -->
<g id="edge24" class="edge"><title>Node9&#45;&gt;Node11</title>
<path fill="none" stroke="midnightblue" d="M1149.35,-447.59C1189.15,-448.586 1241.78,-451.05 1288,-457 1302.22,-458.831 1317.59,-461.744 1331.36,-464.698"/>
<polygon fill="midnightblue" stroke="midnightblue" points="1149.33,-444.089 1139.26,-447.362 1149.17,-451.087 1149.33,-444.089"/>
</g>
<!-- Node10 -->
<g id="node19" class="node"><title>Node10</title>
<a xlink:href="a00090.html" target="_top" xlink:title="Base class for components. Components can be created to scene nodes.">
<polygon fill="none" stroke="red" points="731,-279.5 731,-300.5 847,-300.5 847,-279.5 731,-279.5"/>
<text text-anchor="middle" x="789" y="-287.5" font-family="FreeSans" font-size="10.00">Urho3D::Component</text>
</a>
</g>
<!-- Node10&#45;&gt;Node9 -->
<g id="edge20" class="edge"><title>Node10&#45;&gt;Node9</title>
<path fill="none" stroke="midnightblue" d="M811.867,-306.596C827.353,-317.519 848.474,-331.812 868,-343 935.561,-381.713 1019.84,-418.786 1061.4,-436.372"/>
<polygon fill="midnightblue" stroke="midnightblue" points="813.63,-303.554 803.455,-300.603 809.569,-309.255 813.63,-303.554"/>
</g>
<!-- Node22 -->
<g id="node54" class="node"><title>Node22</title>
<a xlink:href="a00082.html" target="_top" xlink:title="Camera component.">
<polygon fill="none" stroke="red" points="1038,-279.5 1038,-300.5 1136,-300.5 1136,-279.5 1038,-279.5"/>
<text text-anchor="middle" x="1087" y="-287.5" font-family="FreeSans" font-size="10.00">Urho3D::Camera</text>
</a>
</g>
<!-- Node10&#45;&gt;Node22 -->
<g id="edge68" class="edge"><title>Node10&#45;&gt;Node22</title>
<path fill="none" stroke="midnightblue" d="M857.2,-290C912.321,-290 988.592,-290 1037.86,-290"/>
<polygon fill="midnightblue" stroke="midnightblue" points="857.165,-286.5 847.165,-290 857.165,-293.5 857.165,-286.5"/>
</g>
<!-- Node11&#45;&gt;Node1 -->
<g id="edge52" class="edge"><title>Node11&#45;&gt;Node1</title>
<path fill="none" stroke="#9a32cd" stroke-dasharray="5,2" d="M1418.26,-461.299C1469.5,-444.8 1549.93,-416.724 1574,-396 1623.18,-353.655 1652.14,-277.798 1661.57,-249.782"/>
<polygon fill="#9a32cd" stroke="#9a32cd" points="1416.89,-458.063 1408.43,-464.439 1419.02,-464.731 1416.89,-458.063"/>
<text text-anchor="middle" x="1517" y="-451" font-family="FreeSans" font-size="10.00"> zone_</text>
</g>
<!-- Node11&#45;&gt;Node9 -->
<g id="edge22" class="edge"><title>Node11&#45;&gt;Node9</title>
<path fill="none" stroke="#9a32cd" stroke-dasharray="5,2" d="M1321.42,-469.87C1269.63,-464.818 1190.99,-457.146 1139.31,-452.103"/>
<polygon fill="#9a32cd" stroke="#9a32cd" points="1321.11,-473.356 1331.4,-470.844 1321.79,-466.389 1321.11,-473.356"/>
<text text-anchor="middle" x="1248" y="-482" font-family="FreeSans" font-size="10.00"> lastZone_</text>
<text text-anchor="middle" x="1248" y="-469" font-family="FreeSans" font-size="10.00">zone_</text>
</g>
<!-- Node12 -->
<g id="node24" class="node"><title>Node12</title>
<a xlink:href="a00341.html" target="_top" xlink:title="Urho3D::WeakPtr\&lt; Urho3D\l::Zone \&gt;">
<polygon fill="none" stroke="red" points="1592,-475 1592,-509 1738,-509 1738,-475 1592,-475"/>
<text text-anchor="start" x="1600" y="-496" font-family="FreeSans" font-size="10.00">Urho3D::WeakPtr&lt; Urho3D</text>
<text text-anchor="middle" x="1665" y="-483" font-family="FreeSans" font-size="10.00">::Zone &gt;</text>
</a>
</g>
<!-- Node11&#45;&gt;Node12 -->
<g id="edge28" class="edge"><title>Node11&#45;&gt;Node12</title>
<path fill="none" stroke="#9a32cd" stroke-dasharray="5,2" d="M1426.84,-470.122C1467.27,-467.313 1524.32,-465.342 1574,-471 1582.22,-471.936 1590.77,-473.332 1599.2,-474.968"/>
<polygon fill="#9a32cd" stroke="#9a32cd" points="1426.4,-466.645 1416.68,-470.87 1426.91,-473.626 1426.4,-466.645"/>
<text text-anchor="middle" x="1517" y="-475" font-family="FreeSans" font-size="10.00"> ptr_</text>
</g>
<!-- Node12&#45;&gt;Node11 -->
<g id="edge26" class="edge"><title>Node12&#45;&gt;Node11</title>
<path fill="none" stroke="#9a32cd" stroke-dasharray="5,2" d="M1581.52,-492.834C1544.27,-492.572 1499.88,-491.389 1460,-488 1445.86,-486.798 1430.5,-484.726 1416.74,-482.585"/>
<polygon fill="#9a32cd" stroke="#9a32cd" points="1581.81,-496.336 1591.82,-492.885 1581.84,-489.336 1581.81,-496.336"/>
<text text-anchor="start" x="1460.5" y="-522" font-family="FreeSans" font-size="10.00"> lastAmbientEndZone</text>
<text text-anchor="middle" x="1517" y="-509" font-family="FreeSans" font-size="10.00">_</text>
<text text-anchor="middle" x="1517" y="-496" font-family="FreeSans" font-size="10.00">lastAmbientStartZone_</text>
</g>
<!-- Node13 -->
<g id="node27" class="node"><title>Node13</title>
<a xlink:href="a00079.html" target="_top" xlink:title="Three&#45;dimensional axis&#45;aligned bounding box.">
<polygon fill="none" stroke="red" points="728,-525.5 728,-546.5 850,-546.5 850,-525.5 728,-525.5"/>
<text text-anchor="middle" x="789" y="-533.5" font-family="FreeSans" font-size="10.00">Urho3D::BoundingBox</text>
</a>
</g>
<!-- Node13&#45;&gt;Node9 -->
<g id="edge44" class="edge"><title>Node13&#45;&gt;Node9</title>
<path fill="none" stroke="#9a32cd" stroke-dasharray="5,2" d="M823.809,-521.642C837.45,-516.317 853.324,-510.487 868,-506 910.784,-492.919 922.763,-494.495 966,-483 995.76,-475.088 1029.3,-465.017 1053.51,-457.54"/>
<polygon fill="#9a32cd" stroke="#9a32cd" points="822.326,-518.465 814.319,-525.404 824.905,-524.972 822.326,-518.465"/>
<text text-anchor="middle" x="917" y="-523" font-family="FreeSans" font-size="10.00"> worldBoundingBox_</text>
<text text-anchor="middle" x="917" y="-510" font-family="FreeSans" font-size="10.00">boundingBox_</text>
</g>
<!-- Node13&#45;&gt;Node11 -->
<g id="edge30" class="edge"><title>Node13&#45;&gt;Node11</title>
<path fill="none" stroke="#9a32cd" stroke-dasharray="5,2" d="M860.34,-535.878C892.635,-535.44 931.274,-534.382 966,-532 1109.71,-522.14 1146.06,-519.577 1288,-495 1302.8,-492.437 1318.87,-488.905 1333.07,-485.522"/>
<polygon fill="#9a32cd" stroke="#9a32cd" points="860.048,-532.381 850.091,-536 860.131,-539.381 860.048,-532.381"/>
<text text-anchor="middle" x="1087" y="-534" font-family="FreeSans" font-size="10.00"> lastWorldBoundingBox_</text>
</g>
<!-- Node14 -->
<g id="node29" class="node"><title>Node14</title>
<a xlink:href="a00088.html" target="_top" xlink:title="RGBA color.">
<polygon fill="none" stroke="black" points="487,-411.5 487,-432.5 571,-432.5 571,-411.5 487,-411.5"/>
<text text-anchor="middle" x="529" y="-419.5" font-family="FreeSans" font-size="10.00">Urho3D::Color</text>
</a>
</g>
<!-- Node14&#45;&gt;Node8 -->
<g id="edge48" class="edge"><title>Node14&#45;&gt;Node8</title>
<path fill="none" stroke="#9a32cd" stroke-dasharray="5,2" d="M554.077,-437.904C571.315,-447.862 595.135,-459.766 618,-465 657.858,-474.124 669.824,-472.601 710,-465 730.557,-461.111 752.615,-451.998 768.184,-444.654"/>
<polygon fill="#9a32cd" stroke="#9a32cd" points="555.607,-434.741 545.226,-432.626 552.022,-440.754 555.607,-434.741"/>
<text text-anchor="middle" x="664" y="-475" font-family="FreeSans" font-size="10.00"> color_</text>
</g>
<!-- Node14&#45;&gt;Node11 -->
<g id="edge32" class="edge"><title>Node14&#45;&gt;Node11</title>
<path fill="none" stroke="#9a32cd" stroke-dasharray="5,2" d="M546.73,-439.861C579.203,-471.097 651.914,-534.381 728,-556 788.37,-573.153 990.923,-581.386 1190,-547 1253.04,-536.111 1321.88,-502.875 1354.62,-485.631"/>
<polygon fill="#9a32cd" stroke="#9a32cd" points="548.959,-437.145 539.363,-432.655 544.064,-442.149 548.959,-437.145"/>
<text text-anchor="middle" x="917" y="-613" font-family="FreeSans" font-size="10.00"> ambientEndColor_</text>
<text text-anchor="middle" x="917" y="-600" font-family="FreeSans" font-size="10.00">fogColor_</text>
<text text-anchor="middle" x="917" y="-587" font-family="FreeSans" font-size="10.00">ambientColor_</text>
<text text-anchor="middle" x="917" y="-574" font-family="FreeSans" font-size="10.00">ambientStartColor_</text>
</g>
<!-- Node14&#45;&gt;Node14 -->
<g id="edge34" class="edge"><title>Node14&#45;&gt;Node14</title>
<path fill="none" stroke="#9a32cd" stroke-dasharray="5,2" d="M505.411,-442.427C507.231,-447.349 515.094,-451 529,-451 551.25,-451 558.029,-441.653 549.338,-432.708"/>
<polygon fill="#9a32cd" stroke="#9a32cd" points="508.809,-443.302 508.662,-432.708 502.17,-441.081 508.809,-443.302"/>
<text text-anchor="middle" x="529" y="-585" font-family="FreeSans" font-size="10.00"> CYAN</text>
<text text-anchor="middle" x="529" y="-572" font-family="FreeSans" font-size="10.00">GRAY</text>
<text text-anchor="middle" x="529" y="-559" font-family="FreeSans" font-size="10.00">YELLOW</text>
<text text-anchor="middle" x="529" y="-546" font-family="FreeSans" font-size="10.00">MAGENTA</text>
<text text-anchor="middle" x="529" y="-533" font-family="FreeSans" font-size="10.00">WHITE</text>
<text text-anchor="middle" x="529" y="-520" font-family="FreeSans" font-size="10.00">TRANSPARENT</text>
<text text-anchor="middle" x="529" y="-507" font-family="FreeSans" font-size="10.00">BLUE</text>
<text text-anchor="middle" x="529" y="-494" font-family="FreeSans" font-size="10.00">BLACK</text>
<text text-anchor="middle" x="529" y="-481" font-family="FreeSans" font-size="10.00">RED</text>
<text text-anchor="middle" x="529" y="-468" font-family="FreeSans" font-size="10.00">GREEN</text>
<text text-anchor="middle" x="529" y="-455" font-family="FreeSans" font-size="10.00">...</text>
</g>
<!-- Node15 -->
<g id="node32" class="node"><title>Node15</title>
<a xlink:href="a00186.html" target="_top" xlink:title="3x4 matrix for scene node transform calculations.">
<polygon fill="none" stroke="black" points="476,-255.5 476,-276.5 582,-276.5 582,-255.5 476,-255.5"/>
<text text-anchor="middle" x="529" y="-263.5" font-family="FreeSans" font-size="10.00">Urho3D::Matrix3x4</text>
</a>
</g>
<!-- Node15&#45;&gt;Node1 -->
<g id="edge78" class="edge"><title>Node15&#45;&gt;Node1</title>
<path fill="none" stroke="#9a32cd" stroke-dasharray="5,2" d="M537.012,-245.741C563.054,-183.619 651.648,-0 789,-0 789,-0 789,-0 1374,-0 1520.12,-0 1632.9,-182.168 1659.19,-228.422"/>
<polygon fill="#9a32cd" stroke="#9a32cd" points="533.671,-244.662 533.123,-255.243 540.15,-247.314 533.671,-244.662"/>
<text text-anchor="middle" x="1087" y="-4" font-family="FreeSans" font-size="10.00"> worldTransform_</text>
</g>
<!-- Node15&#45;&gt;Node8 -->
<g id="edge50" class="edge"><title>Node15&#45;&gt;Node8</title>
<path fill="none" stroke="#9a32cd" stroke-dasharray="5,2" d="M549.66,-282.939C567.248,-296.959 593.491,-316.944 618,-332 656.953,-355.929 670.793,-354.49 710,-378 733.934,-392.352 760.046,-411.637 775.448,-423.424"/>
<polygon fill="#9a32cd" stroke="#9a32cd" points="551.75,-280.129 541.766,-276.584 547.36,-285.582 551.75,-280.129"/>
<text text-anchor="middle" x="664" y="-382" font-family="FreeSans" font-size="10.00"> volumeTransform_</text>
</g>
<!-- Node15&#45;&gt;Node11 -->
<g id="edge36" class="edge"><title>Node15&#45;&gt;Node11</title>
<path fill="none" stroke="#9a32cd" stroke-dasharray="5,2" d="M580.078,-278.916C620.1,-288.642 677.304,-301.678 728,-310 931.805,-343.456 994.827,-292.449 1190,-360 1261.2,-384.642 1333.45,-440.971 1361.66,-464.436"/>
<polygon fill="#9a32cd" stroke="#9a32cd" points="580.833,-275.498 570.288,-276.52 579.169,-282.297 580.833,-275.498"/>
<text text-anchor="middle" x="917" y="-326" font-family="FreeSans" font-size="10.00"> inverseWorld_</text>
</g>
<!-- Node15&#45;&gt;Node15 -->
<g id="edge38" class="edge"><title>Node15&#45;&gt;Node15</title>
<path fill="none" stroke="#9a32cd" stroke-dasharray="5,2" d="M505.411,-286.427C507.231,-291.349 515.094,-295 529,-295 551.25,-295 558.029,-285.653 549.338,-276.708"/>
<polygon fill="#9a32cd" stroke="#9a32cd" points="508.809,-287.302 508.662,-276.708 502.17,-285.081 508.809,-287.302"/>
<text text-anchor="middle" x="529" y="-312" font-family="FreeSans" font-size="10.00"> IDENTITY</text>
<text text-anchor="middle" x="529" y="-299" font-family="FreeSans" font-size="10.00">ZERO</text>
</g>
<!-- Node15&#45;&gt;Node22 -->
<g id="edge70" class="edge"><title>Node15&#45;&gt;Node22</title>
<path fill="none" stroke="#9a32cd" stroke-dasharray="5,2" d="M592.243,-257.209C631.281,-252.231 682.441,-246.511 728,-244 782.14,-241.016 796.027,-238.811 850,-244 850.295,-244.028 968.648,-267.012 1037.97,-280.476"/>
<polygon fill="#9a32cd" stroke="#9a32cd" points="591.549,-253.77 582.08,-258.523 592.446,-260.712 591.549,-253.77"/>
<text text-anchor="middle" x="789" y="-261" font-family="FreeSans" font-size="10.00"> view_</text>
<text text-anchor="middle" x="789" y="-248" font-family="FreeSans" font-size="10.00">reflectionMatrix_</text>
</g>
<!-- Node16 -->
<g id="node42" class="node"><title>Node16</title>
<a xlink:href="a00141.html" target="_top" xlink:title="Defines one or more vertex buffers, an index buffer and a draw range.">
<polygon fill="none" stroke="black" points="1320.5,-126.5 1320.5,-147.5 1427.5,-147.5 1427.5,-126.5 1320.5,-126.5"/>
<text text-anchor="middle" x="1374" y="-134.5" font-family="FreeSans" font-size="10.00">Urho3D::Geometry</text>
</a>
</g>
<!-- Node16&#45;&gt;Node1 -->
<g id="edge54" class="edge"><title>Node16&#45;&gt;Node1</title>
<path fill="none" stroke="#9a32cd" stroke-dasharray="5,2" d="M1437.7,-133.881C1478.31,-134.219 1531.16,-139.077 1574,-158 1610.37,-174.067 1642.4,-210.22 1656.85,-228.292"/>
<polygon fill="#9a32cd" stroke="#9a32cd" points="1437.65,-130.381 1427.65,-133.887 1437.65,-137.381 1437.65,-130.381"/>
<text text-anchor="middle" x="1517" y="-162" font-family="FreeSans" font-size="10.00"> geometry_</text>
</g>
<!-- Node17 -->
<g id="node44" class="node"><title>Node17</title>
<a xlink:href="a00208.html" target="_top" xlink:title="Base class for objects with type identification, subsystem access and event sending/receiving capabil...">
<polygon fill="none" stroke="red" points="1042,-239.5 1042,-260.5 1132,-260.5 1132,-239.5 1042,-239.5"/>
<text text-anchor="middle" x="1087" y="-247.5" font-family="FreeSans" font-size="10.00">Urho3D::Object</text>
</a>
</g>
<!-- Node17&#45;&gt;Node16 -->
<g id="edge56" class="edge"><title>Node17&#45;&gt;Node16</title>
<path fill="none" stroke="midnightblue" d="M1142.25,-252.927C1186.77,-252.272 1248.28,-244.139 1288,-209 1306.32,-192.794 1288.3,-173.881 1306,-157 1310.18,-153.008 1315.13,-149.808 1320.4,-147.243"/>
<polygon fill="midnightblue" stroke="midnightblue" points="1142.16,-249.427 1132.17,-252.953 1142.18,-256.427 1142.16,-249.427"/>
</g>
<!-- Node18 -->
<g id="node46" class="node"><title>Node18</title>
<a xlink:href="a00280.html" target="_top" xlink:title="Urho3D::SharedArrayPtr\l\&lt; unsigned char \&gt;">
<polygon fill="none" stroke="red" points="1020.5,-187 1020.5,-221 1153.5,-221 1153.5,-187 1020.5,-187"/>
<text text-anchor="start" x="1028.5" y="-208" font-family="FreeSans" font-size="10.00">Urho3D::SharedArrayPtr</text>
<text text-anchor="middle" x="1087" y="-195" font-family="FreeSans" font-size="10.00">&lt; unsigned char &gt;</text>
</a>
</g>
<!-- Node18&#45;&gt;Node16 -->
<g id="edge58" class="edge"><title>Node18&#45;&gt;Node16</title>
<path fill="none" stroke="#9a32cd" stroke-dasharray="5,2" d="M1163.71,-189.412C1201.32,-181.893 1247.2,-172.177 1288,-162 1293.09,-160.73 1316.73,-153.847 1337.94,-147.624"/>
<polygon fill="#9a32cd" stroke="#9a32cd" points="1162.96,-185.992 1153.84,-191.373 1164.33,-192.858 1162.96,-185.992"/>
<text text-anchor="middle" x="1248" y="-196" font-family="FreeSans" font-size="10.00"> rawVertexData_</text>
<text text-anchor="middle" x="1248" y="-183" font-family="FreeSans" font-size="10.00">rawIndexData_</text>
</g>
<!-- Node19 -->
<g id="node48" class="node"><title>Node19</title>
<a xlink:href="a00281.html" target="_top" xlink:title="Urho3D::SharedPtr\&lt;\l Urho3D::IndexBuffer \&gt;">
<polygon fill="none" stroke="red" points="1023,-135 1023,-169 1151,-169 1151,-135 1023,-135"/>
<text text-anchor="start" x="1031" y="-156" font-family="FreeSans" font-size="10.00">Urho3D::SharedPtr&lt;</text>
<text text-anchor="middle" x="1087" y="-143" font-family="FreeSans" font-size="10.00"> Urho3D::IndexBuffer &gt;</text>
</a>
</g>
<!-- Node19&#45;&gt;Node16 -->
<g id="edge60" class="edge"><title>Node19&#45;&gt;Node16</title>
<path fill="none" stroke="#9a32cd" stroke-dasharray="5,2" d="M1161.12,-148.126C1210.91,-145.524 1275.37,-142.155 1320.26,-139.809"/>
<polygon fill="#9a32cd" stroke="#9a32cd" points="1160.85,-144.635 1151.05,-148.652 1161.22,-151.626 1160.85,-144.635"/>
<text text-anchor="middle" x="1248" y="-149" font-family="FreeSans" font-size="10.00"> indexBuffer_</text>
</g>
<!-- Node20 -->
<g id="node50" class="node"><title>Node20</title>
<a xlink:href="a00328.html" target="_top" xlink:title="Urho3D::Vector\&lt; Urho3D\l::SharedPtr\&lt; Urho3D::VertexBuffer \&gt; \&gt;">
<polygon fill="none" stroke="red" points="984,-83 984,-117 1190,-117 1190,-83 984,-83"/>
<text text-anchor="start" x="992" y="-104" font-family="FreeSans" font-size="10.00">Urho3D::Vector&lt; Urho3D</text>
<text text-anchor="middle" x="1087" y="-91" font-family="FreeSans" font-size="10.00">::SharedPtr&lt; Urho3D::VertexBuffer &gt; &gt;</text>
</a>
</g>
<!-- Node20&#45;&gt;Node16 -->
<g id="edge62" class="edge"><title>Node20&#45;&gt;Node16</title>
<path fill="none" stroke="#9a32cd" stroke-dasharray="5,2" d="M1200.16,-112.884C1228.84,-116.322 1259.57,-120.155 1288,-124 1298.47,-125.417 1309.65,-127.031 1320.36,-128.628"/>
<polygon fill="#9a32cd" stroke="#9a32cd" points="1200.45,-109.395 1190.11,-111.686 1199.62,-116.345 1200.45,-109.395"/>
<text text-anchor="middle" x="1248" y="-128" font-family="FreeSans" font-size="10.00"> vertexBuffers_</text>
</g>
<!-- Node21 -->
<g id="node52" class="node"><title>Node21</title>
<a xlink:href="a00232.html" target="_top" xlink:title="Urho3D::PODVector\&lt;\l unsigned \&gt;">
<polygon fill="none" stroke="red" points="1027.5,-31 1027.5,-65 1146.5,-65 1146.5,-31 1027.5,-31"/>
<text text-anchor="start" x="1035.5" y="-52" font-family="FreeSans" font-size="10.00">Urho3D::PODVector&lt;</text>
<text text-anchor="middle" x="1087" y="-39" font-family="FreeSans" font-size="10.00"> unsigned &gt;</text>
</a>
</g>
<!-- Node21&#45;&gt;Node16 -->
<g id="edge64" class="edge"><title>Node21&#45;&gt;Node16</title>
<path fill="none" stroke="#9a32cd" stroke-dasharray="5,2" d="M1157.04,-61.5375C1196.12,-69.9672 1245.37,-82.0539 1288,-97 1311.46,-105.227 1337.17,-117.665 1354.31,-126.485"/>
<polygon fill="#9a32cd" stroke="#9a32cd" points="1157.33,-58.0205 1146.82,-59.3658 1155.87,-64.8677 1157.33,-58.0205"/>
<text text-anchor="middle" x="1248" y="-101" font-family="FreeSans" font-size="10.00"> elementMasks_</text>
</g>
<!-- Node22&#45;&gt;Node1 -->
<g id="edge66" class="edge"><title>Node22&#45;&gt;Node1</title>
<path fill="none" stroke="#9a32cd" stroke-dasharray="5,2" d="M1146.54,-292.74C1238.96,-295.78 1422.1,-296.945 1574,-268 1595.99,-263.81 1620.09,-255.974 1637.97,-249.504"/>
<polygon fill="#9a32cd" stroke="#9a32cd" points="1146.39,-289.233 1136.27,-292.382 1146.14,-296.228 1146.39,-289.233"/>
<text text-anchor="middle" x="1374" y="-297" font-family="FreeSans" font-size="10.00"> camera_</text>
</g>
<!-- Node23 -->
<g id="node58" class="node"><title>Node23</title>
<a xlink:href="a00183.html" target="_top" xlink:title="Describes how to render 3D geometries.">
<polygon fill="none" stroke="red" points="1325,-246.5 1325,-267.5 1423,-267.5 1423,-246.5 1325,-246.5"/>
<text text-anchor="middle" x="1374" y="-254.5" font-family="FreeSans" font-size="10.00">Urho3D::Material</text>
</a>
</g>
<!-- Node23&#45;&gt;Node1 -->
<g id="edge72" class="edge"><title>Node23&#45;&gt;Node1</title>
<path fill="none" stroke="#9a32cd" stroke-dasharray="5,2" d="M1433.14,-253.342C1488.98,-249.888 1571.42,-244.788 1621.48,-241.692"/>
<polygon fill="#9a32cd" stroke="#9a32cd" points="1432.8,-249.856 1423.04,-253.967 1433.23,-256.843 1432.8,-249.856"/>
<text text-anchor="middle" x="1517" y="-255" font-family="FreeSans" font-size="10.00"> material_</text>
</g>
<!-- Node24 -->
<g id="node60" class="node"><title>Node24</title>
<a xlink:href="a00278.html" target="_top" xlink:title="Vertex or pixel shader on the GPU.">
<polygon fill="none" stroke="red" points="1306,-206.5 1306,-227.5 1442,-227.5 1442,-206.5 1306,-206.5"/>
<text text-anchor="middle" x="1374" y="-214.5" font-family="FreeSans" font-size="10.00">Urho3D::ShaderVariation</text>
</a>
</g>
<!-- Node24&#45;&gt;Node1 -->
<g id="edge74" class="edge"><title>Node24&#45;&gt;Node1</title>
<path fill="none" stroke="#9a32cd" stroke-dasharray="5,2" d="M1452.56,-210.443C1489.56,-208.727 1534.21,-208.633 1574,-214 1594.62,-216.781 1617.18,-222.955 1634.68,-228.472"/>
<polygon fill="#9a32cd" stroke="#9a32cd" points="1452.14,-206.959 1442.34,-210.966 1452.5,-213.95 1452.14,-206.959"/>
<text text-anchor="middle" x="1517" y="-231" font-family="FreeSans" font-size="10.00"> pixelShader_</text>
<text text-anchor="middle" x="1517" y="-218" font-family="FreeSans" font-size="10.00">vertexShader_</text>
</g>
<!-- Node25 -->
<g id="node62" class="node"><title>Node25</title>
<a xlink:href="a00227.html" target="_top" xlink:title="Material rendering pass, which defines shaders and render state.">
<polygon fill="none" stroke="red" points="1333.5,-166.5 1333.5,-187.5 1414.5,-187.5 1414.5,-166.5 1333.5,-166.5"/>
<text text-anchor="middle" x="1374" y="-174.5" font-family="FreeSans" font-size="10.00">Urho3D::Pass</text>
</a>
</g>
<!-- Node25&#45;&gt;Node1 -->
<g id="edge76" class="edge"><title>Node25&#45;&gt;Node1</title>
<path fill="none" stroke="#9a32cd" stroke-dasharray="5,2" d="M1424.69,-175.262C1465.72,-175.165 1524.58,-178.014 1574,-192 1602.23,-199.99 1631.87,-217.205 1649.38,-228.434"/>
<polygon fill="#9a32cd" stroke="#9a32cd" points="1424.64,-171.763 1414.67,-175.346 1424.69,-178.762 1424.64,-171.763"/>
<text text-anchor="middle" x="1517" y="-196" font-family="FreeSans" font-size="10.00"> pass_</text>
</g>
</g>
</svg>
        <g id="navigator" transform="translate(0 0)" fill="#404254">
                <rect fill="#f2f5e9" fill-opacity="0.5" stroke="#606060" stroke-width=".5" x="0" y="0" width="60" height="60"/>
                <use id="zoomplus" xlink:href="#zoomPlus" x="17" y="9" onmousedown="handleZoom(evt,'in')"/>
                <use id="zoomminus" xlink:href="#zoomMin" x="42" y="9" onmousedown="handleZoom(evt,'out')"/>
                <use id="reset" xlink:href="#resetDef" x="30" y="36" onmousedown="handleReset()"/>
                <g id="arrowUp" xlink:href="#dirArrow" transform="translate(30 24)" onmousedown="handlePan(0,-1)">
                  <use xlink:href="#rim" fill="#404040">
                        <set attributeName="fill" to="#808080" begin="arrowUp.mouseover" end="arrowUp.mouseout"/>
                  </use>
                  <path fill="none" stroke="white" stroke-width="1.5" d="M0,-3.0v7 M-2.5,-0.5L0,-3.0L2.5,-0.5"/>
                </g>
                <g id="arrowRight" xlink:href="#dirArrow" transform="rotate(90) translate(36 -43)" onmousedown="handlePan(1,0)">
                  <use xlink:href="#rim" fill="#404040">
                        <set attributeName="fill" to="#808080" begin="arrowRight.mouseover" end="arrowRight.mouseout"/>
                  </use>
                  <path fill="none" stroke="white" stroke-width="1.5" d="M0,-3.0v7 M-2.5,-0.5L0,-3.0L2.5,-0.5"/>
                </g>
                <g id="arrowDown" xlink:href="#dirArrow" transform="rotate(180) translate(-30 -48)" onmousedown="handlePan(0,1)">
                  <use xlink:href="#rim" fill="#404040">
                        <set attributeName="fill" to="#808080" begin="arrowDown.mouseover" end="arrowDown.mouseout"/>
                  </use>
                  <path fill="none" stroke="white" stroke-width="1.5" d="M0,-3.0v7 M-2.5,-0.5L0,-3.0L2.5,-0.5"/>
                </g>
                <g id="arrowLeft" xlink:href="#dirArrow" transform="rotate(270) translate(-36 17)" onmousedown="handlePan(-1,0)">
                  <use xlink:href="#rim" fill="#404040">
                        <set attributeName="fill" to="#808080" begin="arrowLeft.mouseover" end="arrowLeft.mouseout"/>
                  </use>
                  <path fill="none" stroke="white" stroke-width="1.5" d="M0,-3.0v7 M-2.5,-0.5L0,-3.0L2.5,-0.5"/>
                </g>
        </g>
        <svg viewBox="0 0 15 15" width="100%" height="30px" preserveAspectRatio="xMaxYMin meet">
         <g id="arrow_out" transform="scale(0.3 0.3)">
          <a xlink:href="a00960_org.svg" target="_base">
           <rect id="button" ry="5" rx="5" y="6" x="6" height="38" width="38"
                fill="#f2f5e9" fill-opacity="0.5" stroke="#606060" stroke-width="1.0"/>
           <path id="arrow"
             d="M 11.500037,31.436501 C 11.940474,20.09759 22.043105,11.32322 32.158766,21.979434 L 37.068811,17.246167 C 37.068811,17.246167 37.088388,32 37.088388,32 L 22.160133,31.978069 C 22.160133,31.978069 26.997745,27.140456 26.997745,27.140456 C 18.528582,18.264221 13.291696,25.230495 11.500037,31.436501 z"
             style="fill:#404040;"/>
          </a>
         </g>
        </svg>
</svg>
