<?xml version="1.0" encoding="UTF-8" standalone="no"?>
<!DOCTYPE svg PUBLIC "-//W3C//DTD SVG 1.1//EN"
 "http://www.w3.org/Graphics/SVG/1.1/DTD/svg11.dtd">
<!-- Generated by graphviz version 2.26.3 (20100126.1600)
 -->
<!-- Title: Urho3D::ShaderPrecache Pages: 1 -->
<svg width="1388pt" height="935pt"
 viewBox="0.00 0.00 1388.00 935.00" xmlns="http://www.w3.org/2000/svg" xmlns:xlink="http://www.w3.org/1999/xlink">
<g id="graph1" class="graph" transform="scale(1 1) rotate(0) translate(4 931)">
<title>Urho3D::ShaderPrecache</title>
<!-- Node1 -->
<g id="node1" class="node"><title>Node1</title>
<polygon fill="#bfbfbf" stroke="black" points="1242,-710.5 1242,-731.5 1380,-731.5 1380,-710.5 1242,-710.5"/>
<text text-anchor="middle" x="1311" y="-718.5" font-family="FreeSans" font-size="10.00">Urho3D::ShaderPrecache</text>
</g>
<!-- Node2 -->
<g id="node2" class="node"><title>Node2</title>
<a xlink:href="a00202.html" target="_top" xlink:title="Base class for objects with type identification, subsystem access and event sending/receiving capabil...">
<polygon fill="none" stroke="black" points="420,-653.5 420,-674.5 510,-674.5 510,-653.5 420,-653.5"/>
<text text-anchor="middle" x="465" y="-661.5" font-family="FreeSans" font-size="10.00">Urho3D::Object</text>
</a>
</g>
<!-- Node2&#45;&gt;Node1 -->
<g id="edge2" class="edge"><title>Node2&#45;&gt;Node1</title>
<path fill="none" stroke="midnightblue" d="M520.712,-659.036C639.791,-649.664 927.513,-633.64 1164,-673 1208.36,-680.383 1257.6,-698.654 1286.35,-710.404"/>
<polygon fill="midnightblue" stroke="midnightblue" points="520.085,-655.575 510.397,-659.864 520.646,-662.552 520.085,-655.575"/>
</g>
<!-- Node14 -->
<g id="node31" class="node"><title>Node14</title>
<a xlink:href="a00120.html" target="_top" xlink:title="Internal helper class for invoking event handler functions.">
<polygon fill="none" stroke="red" points="664,-728.5 664,-749.5 788,-749.5 788,-728.5 664,-728.5"/>
<text text-anchor="middle" x="726" y="-736.5" font-family="FreeSans" font-size="10.00">Urho3D::EventHandler</text>
</a>
</g>
<!-- Node2&#45;&gt;Node14 -->
<g id="edge38" class="edge"><title>Node2&#45;&gt;Node14</title>
<path fill="none" stroke="#9a32cd" stroke-dasharray="5,2" d="M504.989,-677.878C536.132,-688.448 580.554,-703.005 620,-714 638.76,-719.229 659.583,-724.297 677.773,-728.488"/>
<polygon fill="#9a32cd" stroke="#9a32cd" points="505.961,-674.512 495.367,-674.596 503.701,-681.137 505.961,-674.512"/>
<text text-anchor="middle" x="571" y="-725" font-family="FreeSans" font-size="10.00"> sender_</text>
<text text-anchor="middle" x="571" y="-712" font-family="FreeSans" font-size="10.00">receiver_</text>
</g>
<!-- Node22 -->
<g id="node54" class="node"><title>Node22</title>
<a xlink:href="a00245.html" target="_top" xlink:title="Base class for resources.">
<polygon fill="none" stroke="black" points="674.5,-833.5 674.5,-854.5 777.5,-854.5 777.5,-833.5 674.5,-833.5"/>
<text text-anchor="middle" x="726" y="-841.5" font-family="FreeSans" font-size="10.00">Urho3D::Resource</text>
</a>
</g>
<!-- Node2&#45;&gt;Node22 -->
<g id="edge68" class="edge"><title>Node2&#45;&gt;Node22</title>
<path fill="none" stroke="midnightblue" d="M479.838,-683.114C491.696,-698.665 508.506,-721.34 522,-742 530.712,-755.339 527.863,-762.679 540,-773 578.576,-805.802 633.913,-824.313 674.195,-834.147"/>
<polygon fill="midnightblue" stroke="midnightblue" points="482.358,-680.649 473.491,-674.85 476.807,-684.913 482.358,-680.649"/>
</g>
<!-- Node3 -->
<g id="node4" class="node"><title>Node3</title>
<a xlink:href="a00237.html" target="_top" xlink:title="Base class for intrusively reference&#45;counted objects. These are noncopyable and non&#45;assignable.">
<polygon fill="none" stroke="black" points="198,-621.5 198,-642.5 312,-642.5 312,-621.5 198,-621.5"/>
<text text-anchor="middle" x="255" y="-629.5" font-family="FreeSans" font-size="10.00">Urho3D::RefCounted</text>
</a>
</g>
<!-- Node3&#45;&gt;Node2 -->
<g id="edge4" class="edge"><title>Node3&#45;&gt;Node2</title>
<path fill="none" stroke="midnightblue" d="M322.258,-642.249C354.161,-647.11 391.427,-652.789 419.881,-657.125"/>
<polygon fill="midnightblue" stroke="midnightblue" points="322.519,-638.748 312.106,-640.702 321.465,-645.668 322.519,-638.748"/>
</g>
<!-- Node5 -->
<g id="node8" class="node"><title>Node5</title>
<a xlink:href="a00097.html" target="_top" xlink:title="Urho3D execution context. Provides access to subsystems, object factories and attributes, and event receivers.">
<polygon fill="none" stroke="black" points="1042.5,-397.5 1042.5,-418.5 1139.5,-418.5 1139.5,-397.5 1042.5,-397.5"/>
<text text-anchor="middle" x="1091" y="-405.5" font-family="FreeSans" font-size="10.00">Urho3D::Context</text>
</a>
</g>
<!-- Node3&#45;&gt;Node5 -->
<g id="edge10" class="edge"><title>Node3&#45;&gt;Node5</title>
<path fill="none" stroke="midnightblue" d="M322.14,-629.012C500.049,-620.855 971.971,-597.581 1000,-579 1058.86,-539.979 1082.39,-449.909 1088.94,-418.8"/>
<polygon fill="midnightblue" stroke="midnightblue" points="321.947,-625.517 312.117,-629.469 322.266,-632.509 321.947,-625.517"/>
</g>
<!-- Node4 -->
<g id="node6" class="node"><title>Node4</title>
<a xlink:href="a00236.html" target="_top" xlink:title="Reference count structure.">
<polygon fill="none" stroke="black" points="0,-621.5 0,-642.5 102,-642.5 102,-621.5 0,-621.5"/>
<text text-anchor="middle" x="51" y="-629.5" font-family="FreeSans" font-size="10.00">Urho3D::RefCount</text>
</a>
</g>
<!-- Node4&#45;&gt;Node3 -->
<g id="edge6" class="edge"><title>Node4&#45;&gt;Node3</title>
<path fill="none" stroke="#9a32cd" stroke-dasharray="5,2" d="M112.345,-632C139.414,-632 171.051,-632 197.643,-632"/>
<polygon fill="#9a32cd" stroke="#9a32cd" points="112.215,-628.5 102.214,-632 112.214,-635.5 112.215,-628.5"/>
<text text-anchor="middle" x="145" y="-636" font-family="FreeSans" font-size="10.00"> refCount_</text>
</g>
<!-- Node5&#45;&gt;Node2 -->
<g id="edge8" class="edge"><title>Node5&#45;&gt;Node2</title>
<path fill="none" stroke="#9a32cd" stroke-dasharray="5,2" d="M1069.66,-425.145C1052.02,-438.409 1025.77,-456.126 1000,-466 920.068,-496.623 697.429,-492.508 620,-529 554.149,-560.035 494.821,-627.334 473.437,-653.394"/>
<polygon fill="#9a32cd" stroke="#9a32cd" points="1072.26,-427.556 1078.05,-418.68 1067.99,-422.011 1072.26,-427.556"/>
<text text-anchor="middle" x="726" y="-533" font-family="FreeSans" font-size="10.00"> context_</text>
</g>
<!-- Node6 -->
<g id="node11" class="node"><title>Node6</title>
<a xlink:href="a00143.html" target="_top" xlink:title="Urho3D::HashMap\&lt; Urho3D\l::ShortStringHash, Urho3D\l::Vector\&lt; Urho3D::AttributeInfo \&gt; \&gt;">
<polygon fill="none" stroke="black" points="631.5,-108.5 631.5,-155.5 820.5,-155.5 820.5,-108.5 631.5,-108.5"/>
<text text-anchor="start" x="639.5" y="-142.5" font-family="FreeSans" font-size="10.00">Urho3D::HashMap&lt; Urho3D</text>
<text text-anchor="start" x="639.5" y="-129.5" font-family="FreeSans" font-size="10.00">::ShortStringHash, Urho3D</text>
<text text-anchor="middle" x="726" y="-116.5" font-family="FreeSans" font-size="10.00">::Vector&lt; Urho3D::AttributeInfo &gt; &gt;</text>
</a>
</g>
<!-- Node6&#45;&gt;Node5 -->
<g id="edge12" class="edge"><title>Node6&#45;&gt;Node5</title>
<path fill="none" stroke="#9a32cd" stroke-dasharray="5,2" d="M830.628,-151.651C897.616,-166.292 976.277,-188.013 1000,-213 1023.6,-237.86 1004.93,-256.308 1018,-288 1035.85,-331.286 1067.99,-377.143 1082.94,-397.366"/>
<polygon fill="#9a32cd" stroke="#9a32cd" points="831.349,-148.226 820.837,-149.543 829.876,-155.07 831.349,-148.226"/>
<text text-anchor="middle" x="925" y="-230" font-family="FreeSans" font-size="10.00"> attributes_</text>
<text text-anchor="middle" x="925" y="-217" font-family="FreeSans" font-size="10.00">networkAttributes_</text>
</g>
<!-- Node7 -->
<g id="node13" class="node"><title>Node7</title>
<a xlink:href="a00141.html" target="_top" xlink:title="Hash set/map base class.">
<polygon fill="none" stroke="black" points="411,-187.5 411,-208.5 519,-208.5 519,-187.5 411,-187.5"/>
<text text-anchor="middle" x="465" y="-195.5" font-family="FreeSans" font-size="10.00">Urho3D::HashBase</text>
</a>
</g>
<!-- Node7&#45;&gt;Node6 -->
<g id="edge14" class="edge"><title>Node7&#45;&gt;Node6</title>
<path fill="none" stroke="midnightblue" d="M516.561,-184.961C549.696,-176.583 593.707,-165.453 632.831,-155.56"/>
<polygon fill="midnightblue" stroke="midnightblue" points="515.482,-181.624 506.645,-187.469 517.198,-188.411 515.482,-181.624"/>
</g>
<!-- Node12 -->
<g id="node25" class="node"><title>Node12</title>
<a xlink:href="a00143.html" target="_top" xlink:title="Urho3D::HashMap\&lt; Urho3D\l::ShortStringHash, Urho3D\l::SharedPtr\&lt; Urho3D::Object \&gt; \&gt;">
<polygon fill="none" stroke="black" points="637,-42.5 637,-89.5 815,-89.5 815,-42.5 637,-42.5"/>
<text text-anchor="start" x="645" y="-76.5" font-family="FreeSans" font-size="10.00">Urho3D::HashMap&lt; Urho3D</text>
<text text-anchor="start" x="645" y="-63.5" font-family="FreeSans" font-size="10.00">::ShortStringHash, Urho3D</text>
<text text-anchor="middle" x="726" y="-50.5" font-family="FreeSans" font-size="10.00">::SharedPtr&lt; Urho3D::Object &gt; &gt;</text>
</a>
</g>
<!-- Node7&#45;&gt;Node12 -->
<g id="edge30" class="edge"><title>Node7&#45;&gt;Node12</title>
<path fill="none" stroke="midnightblue" d="M487.014,-181.243C516.118,-159.738 569.618,-122.418 620,-99 627.253,-95.6285 634.941,-92.4829 642.731,-89.5785"/>
<polygon fill="midnightblue" stroke="midnightblue" points="484.716,-178.59 478.795,-187.376 488.903,-184.201 484.716,-178.59"/>
</g>
<!-- Node13 -->
<g id="node28" class="node"><title>Node13</title>
<a xlink:href="a00143.html" target="_top" xlink:title="Urho3D::HashMap\&lt; Urho3D\l::String, Urho3D::Vector\l\&lt; Urho3D::ShortStringHash \&gt; \&gt;">
<polygon fill="none" stroke="black" points="639.5,-384.5 639.5,-431.5 812.5,-431.5 812.5,-384.5 639.5,-384.5"/>
<text text-anchor="start" x="647.5" y="-418.5" font-family="FreeSans" font-size="10.00">Urho3D::HashMap&lt; Urho3D</text>
<text text-anchor="start" x="647.5" y="-405.5" font-family="FreeSans" font-size="10.00">::String, Urho3D::Vector</text>
<text text-anchor="middle" x="726" y="-392.5" font-family="FreeSans" font-size="10.00">&lt; Urho3D::ShortStringHash &gt; &gt;</text>
</a>
</g>
<!-- Node7&#45;&gt;Node13 -->
<g id="edge34" class="edge"><title>Node7&#45;&gt;Node13</title>
<path fill="none" stroke="midnightblue" d="M476.615,-217.2C499.504,-253.426 553.994,-332.067 620,-375 626.059,-378.941 632.617,-382.435 639.399,-385.53"/>
<polygon fill="midnightblue" stroke="midnightblue" points="479.499,-215.21 471.25,-208.561 473.552,-218.902 479.499,-215.21"/>
</g>
<!-- Node16 -->
<g id="node37" class="node"><title>Node16</title>
<a xlink:href="a00143.html" target="_top" xlink:title="Urho3D::HashMap\&lt; Urho3D\l::StringHash, Urho3D::\lHashSet\&lt; Urho3D::Object * \&gt; \&gt;">
<polygon fill="none" stroke="black" points="639.5,-174.5 639.5,-221.5 812.5,-221.5 812.5,-174.5 639.5,-174.5"/>
<text text-anchor="start" x="647.5" y="-208.5" font-family="FreeSans" font-size="10.00">Urho3D::HashMap&lt; Urho3D</text>
<text text-anchor="start" x="647.5" y="-195.5" font-family="FreeSans" font-size="10.00">::StringHash, Urho3D::</text>
<text text-anchor="middle" x="726" y="-182.5" font-family="FreeSans" font-size="10.00">HashSet&lt; Urho3D::Object * &gt; &gt;</text>
</a>
</g>
<!-- Node7&#45;&gt;Node16 -->
<g id="edge46" class="edge"><title>Node7&#45;&gt;Node16</title>
<path fill="none" stroke="midnightblue" d="M529.123,-198C562.339,-198 603.374,-198 639.37,-198"/>
<polygon fill="midnightblue" stroke="midnightblue" points="529.079,-194.5 519.079,-198 529.079,-201.5 529.079,-194.5"/>
</g>
<!-- Node17 -->
<g id="node40" class="node"><title>Node17</title>
<a xlink:href="a00143.html" target="_top" xlink:title="Urho3D::HashMap\&lt; Urho3D\l::Object *, Urho3D::HashMap\l\&lt; Urho3D::StringHash, Urho3D\l::HashSet\&lt; Urho3D::Object * \&gt; \&gt; \&gt;">
<polygon fill="none" stroke="black" points="630.5,-306 630.5,-366 821.5,-366 821.5,-306 630.5,-306"/>
<text text-anchor="start" x="638.5" y="-353" font-family="FreeSans" font-size="10.00">Urho3D::HashMap&lt; Urho3D</text>
<text text-anchor="start" x="638.5" y="-340" font-family="FreeSans" font-size="10.00">::Object *, Urho3D::HashMap</text>
<text text-anchor="start" x="638.5" y="-327" font-family="FreeSans" font-size="10.00">&lt; Urho3D::StringHash, Urho3D</text>
<text text-anchor="middle" x="726" y="-314" font-family="FreeSans" font-size="10.00">::HashSet&lt; Urho3D::Object * &gt; &gt; &gt;</text>
</a>
</g>
<!-- Node7&#45;&gt;Node17 -->
<g id="edge50" class="edge"><title>Node7&#45;&gt;Node17</title>
<path fill="none" stroke="midnightblue" d="M487.661,-214.697C517.068,-235.832 570.487,-272.44 620,-297 626.236,-300.093 632.781,-303.079 639.429,-305.927"/>
<polygon fill="midnightblue" stroke="midnightblue" points="489.488,-211.698 479.337,-208.665 485.381,-217.366 489.488,-211.698"/>
</g>
<!-- Node18 -->
<g id="node43" class="node"><title>Node18</title>
<a xlink:href="a00143.html" target="_top" xlink:title="Urho3D::HashMap\&lt; Urho3D\l::ShortStringHash, Urho3D\l::SharedPtr\&lt; Urho3D::ObjectFactory \&gt; \&gt;">
<polygon fill="none" stroke="black" points="620,-240.5 620,-287.5 832,-287.5 832,-240.5 620,-240.5"/>
<text text-anchor="start" x="628" y="-274.5" font-family="FreeSans" font-size="10.00">Urho3D::HashMap&lt; Urho3D</text>
<text text-anchor="start" x="628" y="-261.5" font-family="FreeSans" font-size="10.00">::ShortStringHash, Urho3D</text>
<text text-anchor="middle" x="726" y="-248.5" font-family="FreeSans" font-size="10.00">::SharedPtr&lt; Urho3D::ObjectFactory &gt; &gt;</text>
</a>
</g>
<!-- Node7&#45;&gt;Node18 -->
<g id="edge54" class="edge"><title>Node7&#45;&gt;Node18</title>
<path fill="none" stroke="midnightblue" d="M516.561,-211.039C549.696,-219.417 593.707,-230.547 632.831,-240.44"/>
<polygon fill="midnightblue" stroke="midnightblue" points="517.198,-207.589 506.645,-208.531 515.482,-214.376 517.198,-207.589"/>
</g>
<!-- Node25 -->
<g id="node63" class="node"><title>Node25</title>
<a xlink:href="a00145.html" target="_top" xlink:title="Urho3D::HashSet\&lt; Urho3D\l::String \&gt;">
<polygon fill="none" stroke="black" points="850.5,-0 850.5,-34 999.5,-34 999.5,-0 850.5,-0"/>
<text text-anchor="start" x="858.5" y="-21" font-family="FreeSans" font-size="10.00">Urho3D::HashSet&lt; Urho3D</text>
<text text-anchor="middle" x="925" y="-8" font-family="FreeSans" font-size="10.00">::String &gt;</text>
</a>
</g>
<!-- Node7&#45;&gt;Node25 -->
<g id="edge80" class="edge"><title>Node7&#45;&gt;Node25</title>
<path fill="none" stroke="midnightblue" d="M475.613,-178.696C497.129,-141.866 549.866,-62.6053 620,-33 693.764,-1.86237 786.624,-1.89077 850.389,-7.15228"/>
<polygon fill="midnightblue" stroke="midnightblue" points="472.513,-177.066 470.602,-187.487 478.595,-180.532 472.513,-177.066"/>
</g>
<!-- Node8 -->
<g id="node15" class="node"><title>Node8</title>
<a xlink:href="a00144.html" target="_top" xlink:title="Hash set/map node base class.">
<polygon fill="none" stroke="black" points="188,-222.5 188,-243.5 322,-243.5 322,-222.5 188,-222.5"/>
<text text-anchor="middle" x="255" y="-230.5" font-family="FreeSans" font-size="10.00">Urho3D::HashNodeBase</text>
</a>
</g>
<!-- Node8&#45;&gt;Node7 -->
<g id="edge16" class="edge"><title>Node8&#45;&gt;Node7</title>
<path fill="none" stroke="#9a32cd" stroke-dasharray="5,2" d="M327.895,-220.851C355.169,-216.305 385.641,-211.227 410.918,-207.014"/>
<polygon fill="#9a32cd" stroke="#9a32cd" points="327.295,-217.402 318.007,-222.499 328.446,-224.307 327.295,-217.402"/>
<text text-anchor="middle" x="365" y="-249" font-family="FreeSans" font-size="10.00"> ptrs_</text>
<text text-anchor="middle" x="365" y="-236" font-family="FreeSans" font-size="10.00">tail_</text>
<text text-anchor="middle" x="365" y="-223" font-family="FreeSans" font-size="10.00">head_</text>
</g>
<!-- Node8&#45;&gt;Node8 -->
<g id="edge18" class="edge"><title>Node8&#45;&gt;Node8</title>
<path fill="none" stroke="#9a32cd" stroke-dasharray="5,2" d="M234.728,-253.427C236.292,-258.349 243.049,-262 255,-262 274.121,-262 279.947,-252.653 272.478,-243.708"/>
<polygon fill="#9a32cd" stroke="#9a32cd" points="238.123,-254.286 237.522,-243.708 231.395,-252.352 238.123,-254.286"/>
<text text-anchor="middle" x="255" y="-292" font-family="FreeSans" font-size="10.00"> next_</text>
<text text-anchor="middle" x="255" y="-279" font-family="FreeSans" font-size="10.00">prev_</text>
<text text-anchor="middle" x="255" y="-266" font-family="FreeSans" font-size="10.00">down_</text>
</g>
<!-- Node9 -->
<g id="node18" class="node"><title>Node9</title>
<a xlink:href="a00048.html" target="_top" xlink:title="Allocator memory block.">
<polygon fill="none" stroke="red" points="191.5,-151.5 191.5,-172.5 318.5,-172.5 318.5,-151.5 191.5,-151.5"/>
<text text-anchor="middle" x="255" y="-159.5" font-family="FreeSans" font-size="10.00">Urho3D::AllocatorBlock</text>
</a>
</g>
<!-- Node9&#45;&gt;Node7 -->
<g id="edge20" class="edge"><title>Node9&#45;&gt;Node7</title>
<path fill="none" stroke="#9a32cd" stroke-dasharray="5,2" d="M326.307,-174.224C353.927,-178.959 385.026,-184.29 410.765,-188.703"/>
<polygon fill="#9a32cd" stroke="#9a32cd" points="326.753,-170.75 316.305,-172.509 325.57,-177.649 326.753,-170.75"/>
<text text-anchor="middle" x="365" y="-189" font-family="FreeSans" font-size="10.00"> allocator_</text>
</g>
<!-- Node9&#45;&gt;Node9 -->
<g id="edge22" class="edge"><title>Node9&#45;&gt;Node9</title>
<path fill="none" stroke="#9a32cd" stroke-dasharray="5,2" d="M234.728,-182.427C236.292,-187.349 243.049,-191 255,-191 274.121,-191 279.947,-181.653 272.478,-172.708"/>
<polygon fill="#9a32cd" stroke="#9a32cd" points="238.123,-183.286 237.522,-172.708 231.395,-181.352 238.123,-183.286"/>
<text text-anchor="middle" x="255" y="-195" font-family="FreeSans" font-size="10.00"> next_</text>
</g>
<!-- Node10 -->
<g id="node21" class="node"><title>Node10</title>
<a xlink:href="a00223.html" target="_top" xlink:title="Urho3D::PODVector\&lt;\l Urho3D::Object * \&gt;">
<polygon fill="none" stroke="black" points="666.5,-450 666.5,-484 785.5,-484 785.5,-450 666.5,-450"/>
<text text-anchor="start" x="674.5" y="-471" font-family="FreeSans" font-size="10.00">Urho3D::PODVector&lt;</text>
<text text-anchor="middle" x="726" y="-458" font-family="FreeSans" font-size="10.00"> Urho3D::Object * &gt;</text>
</a>
</g>
<!-- Node10&#45;&gt;Node5 -->
<g id="edge24" class="edge"><title>Node10&#45;&gt;Node5</title>
<path fill="none" stroke="#9a32cd" stroke-dasharray="5,2" d="M795.75,-456.949C851.185,-448.806 930.659,-436.788 1000,-425 1013.78,-422.657 1028.71,-419.943 1042.41,-417.38"/>
<polygon fill="#9a32cd" stroke="#9a32cd" points="795.074,-453.51 785.687,-458.423 796.088,-460.436 795.074,-453.51"/>
<text text-anchor="middle" x="925" y="-453" font-family="FreeSans" font-size="10.00"> eventSenders_</text>
</g>
<!-- Node11 -->
<g id="node23" class="node"><title>Node11</title>
<a xlink:href="a00320.html" target="_top" xlink:title="Vector base class.">
<polygon fill="none" stroke="black" points="408,-513.5 408,-534.5 522,-534.5 522,-513.5 408,-513.5"/>
<text text-anchor="middle" x="465" y="-521.5" font-family="FreeSans" font-size="10.00">Urho3D::VectorBase</text>
</a>
</g>
<!-- Node11&#45;&gt;Node10 -->
<g id="edge26" class="edge"><title>Node11&#45;&gt;Node10</title>
<path fill="none" stroke="midnightblue" d="M518.092,-511.057C525.444,-509.323 532.904,-507.595 540,-506 582.17,-496.521 629.887,-486.53 666.431,-479.034"/>
<polygon fill="midnightblue" stroke="midnightblue" points="517.1,-507.695 508.18,-513.412 518.718,-514.506 517.1,-507.695"/>
</g>
<!-- Node19 -->
<g id="node46" class="node"><title>Node19</title>
<a xlink:href="a00223.html" target="_top" xlink:title="Urho3D::PODVector\&lt;\l Urho3D::HashMap * \&gt;">
<polygon fill="none" stroke="black" points="662.5,-551 662.5,-585 789.5,-585 789.5,-551 662.5,-551"/>
<text text-anchor="start" x="670.5" y="-572" font-family="FreeSans" font-size="10.00">Urho3D::PODVector&lt;</text>
<text text-anchor="middle" x="726" y="-559" font-family="FreeSans" font-size="10.00"> Urho3D::HashMap * &gt;</text>
</a>
</g>
<!-- Node11&#45;&gt;Node19 -->
<g id="edge58" class="edge"><title>Node11&#45;&gt;Node19</title>
<path fill="none" stroke="midnightblue" d="M532.238,-535.335C572.357,-542.099 623,-550.636 662.449,-557.287"/>
<polygon fill="midnightblue" stroke="midnightblue" points="532.72,-531.867 522.278,-533.656 531.557,-538.77 532.72,-531.867"/>
</g>
<!-- Node12&#45;&gt;Node5 -->
<g id="edge28" class="edge"><title>Node12&#45;&gt;Node5</title>
<path fill="none" stroke="#9a32cd" stroke-dasharray="5,2" d="M825.501,-66.5581C885.003,-72.4846 957.142,-90.542 1000,-140 1021.7,-165.038 1007.15,-256.697 1018,-288 1033.26,-332.006 1066.38,-377.145 1082.22,-397.231"/>
<polygon fill="#9a32cd" stroke="#9a32cd" points="825.581,-63.0514 815.31,-65.6476 824.958,-70.0237 825.581,-63.0514"/>
<text text-anchor="middle" x="925" y="-144" font-family="FreeSans" font-size="10.00"> subsystems_</text>
</g>
<!-- Node13&#45;&gt;Node5 -->
<g id="edge32" class="edge"><title>Node13&#45;&gt;Node5</title>
<path fill="none" stroke="#9a32cd" stroke-dasharray="5,2" d="M823.233,-408C893.977,-408 986.771,-408 1042.48,-408"/>
<polygon fill="#9a32cd" stroke="#9a32cd" points="822.963,-404.5 812.963,-408 822.963,-411.5 822.963,-404.5"/>
<text text-anchor="middle" x="925" y="-412" font-family="FreeSans" font-size="10.00"> objectCategories_</text>
</g>
<!-- Node14&#45;&gt;Node5 -->
<g id="edge36" class="edge"><title>Node14&#45;&gt;Node5</title>
<path fill="none" stroke="#9a32cd" stroke-dasharray="5,2" d="M798.051,-728.26C809.879,-724.766 821.642,-720.136 832,-714 842.289,-707.905 840.771,-701.605 850,-694 910.001,-644.56 948.008,-661.803 1000,-604 1052.94,-545.146 1080.43,-450.159 1088.46,-418.584"/>
<polygon fill="#9a32cd" stroke="#9a32cd" points="796.874,-724.952 788.13,-730.936 798.696,-731.711 796.874,-724.952"/>
<text text-anchor="middle" x="925" y="-698" font-family="FreeSans" font-size="10.00"> eventHandler_</text>
</g>
<!-- Node20 -->
<g id="node49" class="node"><title>Node20</title>
<a xlink:href="a00165.html" target="_top" xlink:title="Urho3D::LinkedList\l\&lt; Urho3D::EventHandler \&gt;">
<polygon fill="none" stroke="black" points="1018,-682 1018,-716 1164,-716 1164,-682 1018,-682"/>
<text text-anchor="start" x="1026" y="-703" font-family="FreeSans" font-size="10.00">Urho3D::LinkedList</text>
<text text-anchor="middle" x="1091" y="-690" font-family="FreeSans" font-size="10.00">&lt; Urho3D::EventHandler &gt;</text>
</a>
</g>
<!-- Node14&#45;&gt;Node20 -->
<g id="edge62" class="edge"><title>Node14&#45;&gt;Node20</title>
<path fill="none" stroke="#9a32cd" stroke-dasharray="5,2" d="M798.135,-732.21C853.425,-726.865 931.593,-719.004 1000,-711 1005.7,-710.333 1011.59,-709.617 1017.52,-708.878"/>
<polygon fill="#9a32cd" stroke="#9a32cd" points="797.703,-728.735 788.085,-733.178 798.374,-735.703 797.703,-728.735"/>
<text text-anchor="middle" x="925" y="-732" font-family="FreeSans" font-size="10.00"> head_</text>
</g>
<!-- Node15 -->
<g id="node34" class="node"><title>Node15</title>
<a xlink:href="a00291.html" target="_top" xlink:title="32&#45;bit hash value for a string.">
<polygon fill="none" stroke="black" points="408.5,-751.5 408.5,-772.5 521.5,-772.5 521.5,-751.5 408.5,-751.5"/>
<text text-anchor="middle" x="465" y="-759.5" font-family="FreeSans" font-size="10.00">Urho3D::StringHash</text>
</a>
</g>
<!-- Node15&#45;&gt;Node14 -->
<g id="edge40" class="edge"><title>Node15&#45;&gt;Node14</title>
<path fill="none" stroke="#9a32cd" stroke-dasharray="5,2" d="M531.7,-756.122C572.273,-752.547 623.76,-748.01 663.538,-744.504"/>
<polygon fill="#9a32cd" stroke="#9a32cd" points="531.287,-752.645 521.633,-757.009 531.902,-759.618 531.287,-752.645"/>
<text text-anchor="middle" x="571" y="-760" font-family="FreeSans" font-size="10.00"> eventType_</text>
</g>
<!-- Node15&#45;&gt;Node15 -->
<g id="edge42" class="edge"><title>Node15&#45;&gt;Node15</title>
<path fill="none" stroke="#9a32cd" stroke-dasharray="5,2" d="M446.571,-782.427C447.993,-787.349 454.136,-791 465,-791 482.383,-791 487.679,-781.653 480.889,-772.708"/>
<polygon fill="#9a32cd" stroke="#9a32cd" points="449.969,-783.268 449.111,-772.708 443.196,-781.498 449.969,-783.268"/>
<text text-anchor="middle" x="465" y="-795" font-family="FreeSans" font-size="10.00"> ZERO</text>
</g>
<!-- Node15&#45;&gt;Node22 -->
<g id="edge76" class="edge"><title>Node15&#45;&gt;Node22</title>
<path fill="none" stroke="#9a32cd" stroke-dasharray="5,2" d="M481.484,-779.799C495.578,-793.784 517.156,-812.443 540,-822 582.896,-839.946 635.906,-844.708 674.346,-845.415"/>
<polygon fill="#9a32cd" stroke="#9a32cd" points="483.95,-777.315 474.463,-772.598 478.938,-782.201 483.95,-777.315"/>
<text text-anchor="middle" x="571" y="-843" font-family="FreeSans" font-size="10.00"> nameHash_</text>
</g>
<!-- Node16&#45;&gt;Node5 -->
<g id="edge44" class="edge"><title>Node16&#45;&gt;Node5</title>
<path fill="none" stroke="#9a32cd" stroke-dasharray="5,2" d="M819.256,-225.347C823.607,-227.149 827.876,-229.034 832,-231 840.679,-235.138 841.263,-238.987 850,-243 912.914,-271.892 942.995,-245.714 1000,-285 1043.74,-315.147 1074.68,-373.263 1086.12,-397.246"/>
<polygon fill="#9a32cd" stroke="#9a32cd" points="820.207,-221.959 809.621,-221.535 817.632,-228.469 820.207,-221.959"/>
<text text-anchor="middle" x="925" y="-289" font-family="FreeSans" font-size="10.00"> eventReceivers_</text>
</g>
<!-- Node17&#45;&gt;Node5 -->
<g id="edge48" class="edge"><title>Node17&#45;&gt;Node5</title>
<path fill="none" stroke="#9a32cd" stroke-dasharray="5,2" d="M832.008,-356.911C901.45,-370.609 988.932,-387.866 1042.37,-398.408"/>
<polygon fill="#9a32cd" stroke="#9a32cd" points="832.388,-353.419 821.899,-354.917 831.033,-360.286 832.388,-353.419"/>
<text text-anchor="middle" x="925" y="-393" font-family="FreeSans" font-size="10.00"> specificEventReceivers_</text>
</g>
<!-- Node18&#45;&gt;Node5 -->
<g id="edge52" class="edge"><title>Node18&#45;&gt;Node5</title>
<path fill="none" stroke="#9a32cd" stroke-dasharray="5,2" d="M817.497,-290.299C893.784,-312.344 991.378,-340.873 1000,-345 1030.33,-359.52 1061.72,-383.628 1078.54,-397.431"/>
<polygon fill="#9a32cd" stroke="#9a32cd" points="818.413,-286.92 807.834,-287.508 816.471,-293.646 818.413,-286.92"/>
<text text-anchor="middle" x="925" y="-349" font-family="FreeSans" font-size="10.00"> factories_</text>
</g>
<!-- Node19&#45;&gt;Node5 -->
<g id="edge56" class="edge"><title>Node19&#45;&gt;Node5</title>
<path fill="none" stroke="#9a32cd" stroke-dasharray="5,2" d="M799.542,-565.442C868.945,-561.867 967.121,-553.459 1000,-534 1046.91,-506.239 1076.45,-443.838 1086.82,-418.748"/>
<polygon fill="#9a32cd" stroke="#9a32cd" points="799.338,-561.948 789.522,-565.935 799.682,-568.939 799.338,-561.948"/>
<text text-anchor="middle" x="925" y="-567" font-family="FreeSans" font-size="10.00"> eventDataMaps_</text>
</g>
<!-- Node20&#45;&gt;Node2 -->
<g id="edge60" class="edge"><title>Node20&#45;&gt;Node2</title>
<path fill="none" stroke="#9a32cd" stroke-dasharray="5,2" d="M1007.63,-694.339C873.488,-686.839 614.256,-672.345 510.02,-666.517"/>
<polygon fill="#9a32cd" stroke="#9a32cd" points="1007.67,-697.847 1017.85,-694.91 1008.07,-690.858 1007.67,-697.847"/>
<text text-anchor="middle" x="726" y="-689" font-family="FreeSans" font-size="10.00"> eventHandlers_</text>
</g>
<!-- Node21 -->
<g id="node52" class="node"><title>Node21</title>
<a xlink:href="a00334.html" target="_top" xlink:title="XML document resource.">
<polygon fill="none" stroke="black" points="1044,-819.5 1044,-840.5 1138,-840.5 1138,-819.5 1044,-819.5"/>
<text text-anchor="middle" x="1091" y="-827.5" font-family="FreeSans" font-size="10.00">Urho3D::XMLFile</text>
</a>
</g>
<!-- Node21&#45;&gt;Node1 -->
<g id="edge64" class="edge"><title>Node21&#45;&gt;Node1</title>
<path fill="none" stroke="#9a32cd" stroke-dasharray="5,2" d="M1148.44,-823.66C1172.75,-819.332 1200.76,-812.088 1224,-800 1257.67,-782.492 1288.34,-748.722 1302.59,-731.563"/>
<polygon fill="#9a32cd" stroke="#9a32cd" points="1147.57,-820.256 1138.27,-825.342 1148.71,-827.162 1147.57,-820.256"/>
<text text-anchor="middle" x="1203" y="-820" font-family="FreeSans" font-size="10.00"> xmlFile_</text>
</g>
<!-- Node22&#45;&gt;Node21 -->
<g id="edge66" class="edge"><title>Node22&#45;&gt;Node21</title>
<path fill="none" stroke="midnightblue" d="M787.853,-841.628C860.216,-838.852 978.421,-834.318 1043.8,-831.811"/>
<polygon fill="midnightblue" stroke="midnightblue" points="787.38,-838.143 777.521,-842.024 787.648,-845.138 787.38,-838.143"/>
</g>
<!-- Node23 -->
<g id="node57" class="node"><title>Node23</title>
<a xlink:href="a00305.html" target="_top" xlink:title="Low&#45;resolution operating system timer.">
<polygon fill="none" stroke="black" points="422,-905.5 422,-926.5 508,-926.5 508,-905.5 422,-905.5"/>
<text text-anchor="middle" x="465" y="-913.5" font-family="FreeSans" font-size="10.00">Urho3D::Timer</text>
</a>
</g>
<!-- Node23&#45;&gt;Node22 -->
<g id="edge70" class="edge"><title>Node23&#45;&gt;Node22</title>
<path fill="none" stroke="#9a32cd" stroke-dasharray="5,2" d="M512.902,-902.786C563.2,-888.91 641.293,-867.368 687.667,-854.575"/>
<polygon fill="#9a32cd" stroke="#9a32cd" points="511.94,-899.42 503.231,-905.453 513.802,-906.168 511.94,-899.42"/>
<text text-anchor="middle" x="571" y="-898" font-family="FreeSans" font-size="10.00"> useTimer_</text>
</g>
<!-- Node24 -->
<g id="node59" class="node"><title>Node24</title>
<a xlink:href="a00290.html" target="_top" xlink:title="String class.">
<polygon fill="none" stroke="black" points="421,-826.5 421,-847.5 509,-847.5 509,-826.5 421,-826.5"/>
<text text-anchor="middle" x="465" y="-834.5" font-family="FreeSans" font-size="10.00">Urho3D::String</text>
</a>
</g>
<!-- Node24&#45;&gt;Node1 -->
<g id="edge82" class="edge"><title>Node24&#45;&gt;Node1</title>
<path fill="none" stroke="#9a32cd" stroke-dasharray="5,2" d="M512.88,-823.938C521.849,-821.757 531.177,-819.666 540,-818 796.848,-769.499 1106.54,-738.851 1241.97,-726.814"/>
<polygon fill="#9a32cd" stroke="#9a32cd" points="511.805,-820.599 502.953,-826.421 513.503,-827.39 511.805,-820.599"/>
<text text-anchor="middle" x="925" y="-773" font-family="FreeSans" font-size="10.00"> fileName_</text>
</g>
<!-- Node24&#45;&gt;Node22 -->
<g id="edge72" class="edge"><title>Node24&#45;&gt;Node22</title>
<path fill="none" stroke="#9a32cd" stroke-dasharray="5,2" d="M505.151,-850.416C516.307,-853.545 528.513,-856.422 540,-858 585.075,-864.191 636.699,-859.37 674.106,-853.759"/>
<polygon fill="#9a32cd" stroke="#9a32cd" points="505.835,-846.969 495.253,-847.502 503.858,-853.684 505.835,-846.969"/>
<text text-anchor="middle" x="571" y="-865" font-family="FreeSans" font-size="10.00"> name_</text>
</g>
<!-- Node24&#45;&gt;Node24 -->
<g id="edge74" class="edge"><title>Node24&#45;&gt;Node24</title>
<path fill="none" stroke="#9a32cd" stroke-dasharray="5,2" d="M446.571,-857.427C447.993,-862.349 454.136,-866 465,-866 482.383,-866 487.679,-856.653 480.889,-847.708"/>
<polygon fill="#9a32cd" stroke="#9a32cd" points="449.969,-858.268 449.111,-847.708 443.196,-856.498 449.969,-858.268"/>
<text text-anchor="middle" x="465" y="-870" font-family="FreeSans" font-size="10.00"> EMPTY</text>
</g>
<!-- Node25&#45;&gt;Node1 -->
<g id="edge78" class="edge"><title>Node25&#45;&gt;Node1</title>
<path fill="none" stroke="#9a32cd" stroke-dasharray="5,2" d="M966.763,-39.6268C978.455,-47.2734 990.54,-56.5563 1000,-67 1195.4,-282.711 1291.72,-643.099 1308.37,-710.104"/>
<polygon fill="#9a32cd" stroke="#9a32cd" points="968.281,-36.448 957.949,-34.1063 964.566,-42.3805 968.281,-36.448"/>
<text text-anchor="middle" x="1091" y="-318" font-family="FreeSans" font-size="10.00"> usedCombinations_</text>
</g>
</g>
</svg>
