<?xml version="1.0" encoding="UTF-8" standalone="no"?>
<!DOCTYPE svg PUBLIC "-//W3C//DTD SVG 1.1//EN"
 "http://www.w3.org/Graphics/SVG/1.1/DTD/svg11.dtd">
<!-- Generated by graphviz version 2.26.3 (20100126.1600)
 -->
<!-- Title: Urho3D::OctreeQueryResult Pages: 1 -->
<!--zoomable 813 -->
<svg id="main" version="1.1" xmlns="http://www.w3.org/2000/svg" xmlns:xlink="http://www.w3.org/1999/xlink" xml:space="preserve" onload="init(evt)">
        <defs>
                <circle id="rim" cx="0" cy="0" r="7"/>
                <circle id="rim2" cx="0" cy="0" r="3.5"/>
                <g id="zoomPlus">
                        <use xlink:href="#rim" fill="#404040">
                                <set attributeName="fill" to="#808080" begin="zoomplus.mouseover" end="zoomplus.mouseout"/>
                        </use>
                        <path d="M-4,0h8M0,-4v8" fill="none" stroke="white" stroke-width="1.5" pointer-events="none"/>
                </g>
                <g id="zoomMin">
                        <use xlink:href="#rim" fill="#404040">
                                <set attributeName="fill" to="#808080" begin="zoomminus.mouseover" end="zoomminus.mouseout"/>
                        </use>
                        <path d="M-4,0h8" fill="none" stroke="white" stroke-width="1.5" pointer-events="none"/>
                </g>
                <g id="dirArrow">
                        <path fill="none" stroke="white" stroke-width="1.5" d="M0,-3.0v7 M-2.5,-0.5L0,-3.0L2.5,-0.5"/>
                </g>
               <g id="resetDef">
                       <use xlink:href="#rim2" fill="#404040">
                               <set attributeName="fill" to="#808080" begin="reset.mouseover" end="reset.mouseout"/>
                       </use>
               </g>
        </defs>

<script type="text/javascript">
var viewWidth = 1838;
var viewHeight = 813;
var sectionId = 'dynsection-0';
</script>
<script xlink:href="svgpan.js"/>
<svg id="graph" class="graph">
<g id="viewport">
<title>Urho3D::OctreeQueryResult</title>
<!-- Node1 -->
<g id="node1" class="node"><title>Node1</title>
<polygon fill="#bfbfbf" stroke="black" points="1680.5,-402.624 1680.5,-423.624 1829.5,-423.624 1829.5,-402.624 1680.5,-402.624"/>
<text text-anchor="middle" x="1755" y="-410.624" font-family="FreeSans" font-size="10.00">Urho3D::OctreeQueryResult</text>
</g>
<!-- Node2 -->
<g id="node2" class="node"><title>Node2</title>
<a xlink:href="a00116.html" target="_top" xlink:title="Base class for visible components.">
<polygon fill="none" stroke="black" points="1488,-516.624 1488,-537.624 1592,-537.624 1592,-516.624 1488,-516.624"/>
<text text-anchor="middle" x="1540" y="-524.624" font-family="FreeSans" font-size="10.00">Urho3D::Drawable</text>
</a>
</g>
<!-- Node2&#45;&gt;Node1 -->
<g id="edge2" class="edge"><title>Node2&#45;&gt;Node1</title>
<path fill="none" stroke="#9a32cd" stroke-dasharray="5,2" d="M1568.92,-511.79C1613.18,-488.32 1696.62,-444.077 1734.89,-423.785"/>
<polygon fill="#9a32cd" stroke="#9a32cd" points="1567.04,-508.827 1559.84,-516.603 1570.32,-515.011 1567.04,-508.827"/>
<text text-anchor="middle" x="1636" y="-490.124" font-family="FreeSans" font-size="10.00"> drawable_</text>
</g>
<!-- Node18 -->
<g id="node46" class="node"><title>Node18</title>
<a xlink:href="a00337.html" target="_top" xlink:title="Component that describes global rendering properties">
<polygon fill="none" stroke="red" points="1712.5,-593.624 1712.5,-614.624 1797.5,-614.624 1797.5,-593.624 1712.5,-593.624"/>
<text text-anchor="middle" x="1755" y="-601.624" font-family="FreeSans" font-size="10.00">Urho3D::Zone</text>
</a>
</g>
<!-- Node2&#45;&gt;Node18 -->
<g id="edge60" class="edge"><title>Node2&#45;&gt;Node18</title>
<path fill="none" stroke="midnightblue" d="M1554.83,-545.86C1567.7,-560.634 1587.73,-580.325 1610,-590.124 1642.29,-604.334 1682.45,-607.214 1712.31,-606.893"/>
<polygon fill="midnightblue" stroke="midnightblue" points="1557.22,-543.261 1548.12,-537.841 1551.85,-547.755 1557.22,-543.261"/>
</g>
<!-- Node23 -->
<g id="node59" class="node"><title>Node23</title>
<a xlink:href="a00160.html" target="_top" xlink:title="Light component.">
<polygon fill="none" stroke="red" points="1713.5,-499.624 1713.5,-520.624 1796.5,-520.624 1796.5,-499.624 1713.5,-499.624"/>
<text text-anchor="middle" x="1755" y="-507.624" font-family="FreeSans" font-size="10.00">Urho3D::Light</text>
</a>
</g>
<!-- Node2&#45;&gt;Node23 -->
<g id="edge76" class="edge"><title>Node2&#45;&gt;Node23</title>
<path fill="none" stroke="midnightblue" d="M1597.05,-514.852C1601.42,-514.177 1605.77,-513.587 1610,-513.124 1644.67,-509.329 1684.26,-508.762 1713.31,-509.041"/>
<polygon fill="midnightblue" stroke="midnightblue" points="1596.17,-511.452 1586.89,-516.562 1597.33,-518.355 1596.17,-511.452"/>
</g>
<!-- Node3 -->
<g id="node4" class="node"><title>Node3</title>
<a xlink:href="a00086.html" target="_top" xlink:title="Base class for components. Components can be created to scene nodes.">
<polygon fill="none" stroke="black" points="792,-405.624 792,-426.624 908,-426.624 908,-405.624 792,-405.624"/>
<text text-anchor="middle" x="850" y="-413.624" font-family="FreeSans" font-size="10.00">Urho3D::Component</text>
</a>
</g>
<!-- Node3&#45;&gt;Node2 -->
<g id="edge4" class="edge"><title>Node3&#45;&gt;Node2</title>
<path fill="none" stroke="midnightblue" d="M918.571,-407.34C1060.64,-390.579 1381.28,-360.638 1470,-419.124 1506.75,-443.352 1528.39,-494.247 1536.42,-516.419"/>
<polygon fill="midnightblue" stroke="midnightblue" points="917.762,-403.912 908.247,-408.572 918.591,-410.862 917.762,-403.912"/>
</g>
<!-- Node21 -->
<g id="node54" class="node"><title>Node21</title>
<a xlink:href="a00079.html" target="_top" xlink:title="Camera component.">
<polygon fill="none" stroke="red" points="958,-516.624 958,-537.624 1056,-537.624 1056,-516.624 958,-516.624"/>
<text text-anchor="middle" x="1007" y="-524.624" font-family="FreeSans" font-size="10.00">Urho3D::Camera</text>
</a>
</g>
<!-- Node3&#45;&gt;Node21 -->
<g id="edge70" class="edge"><title>Node3&#45;&gt;Node21</title>
<path fill="none" stroke="midnightblue" d="M873.539,-432.766C906.178,-455.842 964.263,-496.909 991.761,-516.35"/>
<polygon fill="midnightblue" stroke="midnightblue" points="875.24,-429.682 865.054,-426.767 871.199,-435.398 875.24,-429.682"/>
</g>
<!-- Node4 -->
<g id="node6" class="node"><title>Node4</title>
<a xlink:href="a00262.html" target="_top" xlink:title="Base class for objects with automatic serialization through attributes.">
<polygon fill="none" stroke="red" points="333,-551.624 333,-572.624 447,-572.624 447,-551.624 333,-551.624"/>
<text text-anchor="middle" x="390" y="-559.624" font-family="FreeSans" font-size="10.00">Urho3D::Serializable</text>
</a>
</g>
<!-- Node4&#45;&gt;Node3 -->
<g id="edge6" class="edge"><title>Node4&#45;&gt;Node3</title>
<path fill="none" stroke="midnightblue" d="M457.338,-572.754C510.753,-580.189 580.798,-587.431 608,-579.124 709.739,-548.056 807.407,-458.274 839.222,-427.012"/>
<polygon fill="midnightblue" stroke="midnightblue" points="457.626,-569.26 447.233,-571.319 456.641,-576.191 457.626,-569.26"/>
</g>
<!-- Node5 -->
<g id="node8" class="node"><title>Node5</title>
<a xlink:href="a00197.html" target="_top" xlink:title="Scene node that may contain components and child nodes.">
<polygon fill="none" stroke="red" points="626.5,-314.624 626.5,-335.624 711.5,-335.624 711.5,-314.624 626.5,-314.624"/>
<text text-anchor="middle" x="669" y="-322.624" font-family="FreeSans" font-size="10.00">Urho3D::Node</text>
</a>
</g>
<!-- Node4&#45;&gt;Node5 -->
<g id="edge10" class="edge"><title>Node4&#45;&gt;Node5</title>
<path fill="none" stroke="midnightblue" d="M457.352,-552.045C517.128,-542.535 596.715,-528.262 608,-518.124 636.232,-492.761 660.249,-372.799 667.065,-335.93"/>
<polygon fill="midnightblue" stroke="midnightblue" points="456.527,-548.632 447.194,-553.646 457.617,-555.547 456.527,-548.632"/>
</g>
<!-- Node5&#45;&gt;Node1 -->
<g id="edge92" class="edge"><title>Node5&#45;&gt;Node1</title>
<path fill="none" stroke="#9a32cd" stroke-dasharray="5,2" d="M721.997,-331.389C758.035,-335.116 806.828,-339.124 850,-339.124 850,-339.124 850,-339.124 1540,-339.124 1616.98,-339.124 1701.43,-382.06 1737.31,-402.522"/>
<polygon fill="#9a32cd" stroke="#9a32cd" points="722.029,-327.872 711.716,-330.297 721.29,-334.833 722.029,-327.872"/>
<text text-anchor="middle" x="1133" y="-343.124" font-family="FreeSans" font-size="10.00"> node_</text>
</g>
<!-- Node5&#45;&gt;Node3 -->
<g id="edge8" class="edge"><title>Node5&#45;&gt;Node3</title>
<path fill="none" stroke="#9a32cd" stroke-dasharray="5,2" d="M699.356,-340.386C736.121,-358.87 797.083,-389.519 829.017,-405.575"/>
<polygon fill="#9a32cd" stroke="#9a32cd" points="700.624,-337.106 690.117,-335.741 697.479,-343.36 700.624,-337.106"/>
<text text-anchor="middle" x="752" y="-379.124" font-family="FreeSans" font-size="10.00"> node_</text>
</g>
<!-- Node5&#45;&gt;Node5 -->
<g id="edge38" class="edge"><title>Node5&#45;&gt;Node5</title>
<path fill="none" stroke="#9a32cd" stroke-dasharray="5,2" d="M653.983,-345.917C655.308,-350.653 660.314,-354.124 669,-354.124 683.254,-354.124 687.597,-344.777 682.029,-335.832"/>
<polygon fill="#9a32cd" stroke="#9a32cd" points="657.471,-346.32 655.971,-335.832 650.603,-344.966 657.471,-346.32"/>
<text text-anchor="middle" x="669" y="-358.124" font-family="FreeSans" font-size="10.00"> parent_</text>
</g>
<!-- Node7 -->
<g id="node13" class="node"><title>Node7</title>
<a xlink:href="a00250.html" target="_top" xlink:title="Root scene node, represents the whole scene.">
<polygon fill="none" stroke="red" points="805.5,-267.624 805.5,-288.624 894.5,-288.624 894.5,-267.624 805.5,-267.624"/>
<text text-anchor="middle" x="850" y="-275.624" font-family="FreeSans" font-size="10.00">Urho3D::Scene</text>
</a>
</g>
<!-- Node5&#45;&gt;Node7 -->
<g id="edge16" class="edge"><title>Node5&#45;&gt;Node7</title>
<path fill="none" stroke="midnightblue" d="M695.765,-309.677C706.155,-304.298 718.343,-298.716 730,-295.124 754.331,-287.627 782.47,-283.419 805.382,-281.066"/>
<polygon fill="midnightblue" stroke="midnightblue" points="693.948,-306.68 686.796,-314.497 697.261,-312.846 693.948,-306.68"/>
</g>
<!-- Node6 -->
<g id="node11" class="node"><title>Node6</title>
<a xlink:href="a00222.html" target="_top" xlink:title="Urho3D::PODVector\&lt;\l Urho3D::Node * \&gt;">
<polygon fill="none" stroke="red" points="330.5,-643.124 330.5,-677.124 449.5,-677.124 449.5,-643.124 330.5,-643.124"/>
<text text-anchor="start" x="338.5" y="-664.124" font-family="FreeSans" font-size="10.00">Urho3D::PODVector&lt;</text>
<text text-anchor="middle" x="390" y="-651.124" font-family="FreeSans" font-size="10.00"> Urho3D::Node * &gt;</text>
</a>
</g>
<!-- Node6&#45;&gt;Node5 -->
<g id="edge12" class="edge"><title>Node6&#45;&gt;Node5</title>
<path fill="none" stroke="#9a32cd" stroke-dasharray="5,2" d="M459.673,-662.865C507.746,-660.849 569.671,-649.875 608,-611.124 647.897,-570.787 664.625,-382.89 668.229,-335.832"/>
<polygon fill="#9a32cd" stroke="#9a32cd" points="459.529,-659.367 449.638,-663.165 459.739,-666.364 459.529,-659.367"/>
<text text-anchor="middle" x="559" y="-660.124" font-family="FreeSans" font-size="10.00"> dependencyNodes_</text>
</g>
<!-- Node7&#45;&gt;Node5 -->
<g id="edge14" class="edge"><title>Node7&#45;&gt;Node5</title>
<path fill="none" stroke="#9a32cd" stroke-dasharray="5,2" d="M799.767,-291.168C771.352,-298.546 736.285,-307.652 709.62,-314.576"/>
<polygon fill="#9a32cd" stroke="#9a32cd" points="800.716,-294.537 809.516,-288.636 798.957,-287.762 800.716,-294.537"/>
<text text-anchor="middle" x="752" y="-313.124" font-family="FreeSans" font-size="10.00"> scene_</text>
</g>
<!-- Node8 -->
<g id="node16" class="node"><title>Node8</title>
<a xlink:href="a00291.html" target="_top" xlink:title="String class.">
<polygon fill="none" stroke="black" points="41,-54.6239 41,-75.6239 129,-75.6239 129,-54.6239 41,-54.6239"/>
<text text-anchor="middle" x="85" y="-62.6239" font-family="FreeSans" font-size="10.00">Urho3D::String</text>
</a>
</g>
<!-- Node8&#45;&gt;Node5 -->
<g id="edge36" class="edge"><title>Node8&#45;&gt;Node5</title>
<path fill="none" stroke="#9a32cd" stroke-dasharray="5,2" d="M139.308,-52.8603C243.799,-32.7175 474.292,-5.52735 608,-121.124 638.411,-147.416 661.179,-276.287 667.339,-314.454"/>
<polygon fill="#9a32cd" stroke="#9a32cd" points="138.426,-49.4669 129.296,-54.8436 139.786,-56.3335 138.426,-49.4669"/>
<text text-anchor="middle" x="390" y="-61.1239" font-family="FreeSans" font-size="10.00"> name_</text>
</g>
<!-- Node8&#45;&gt;Node7 -->
<g id="edge18" class="edge"><title>Node8&#45;&gt;Node7</title>
<path fill="none" stroke="#9a32cd" stroke-dasharray="5,2" d="M120.583,-51.1601C140.143,-44.2297 165.036,-36.609 188,-33.1239 372.705,-5.09275 439.825,31.2317 608,-50.1239 720.499,-104.546 815.798,-229.987 842.529,-267.402"/>
<polygon fill="#9a32cd" stroke="#9a32cd" points="119.36,-47.8806 111.16,-54.5904 121.754,-54.4583 119.36,-47.8806"/>
<text text-anchor="middle" x="559" y="-54.1239" font-family="FreeSans" font-size="10.00"> fileName_</text>
</g>
<!-- Node8&#45;&gt;Node8 -->
<g id="edge20" class="edge"><title>Node8&#45;&gt;Node8</title>
<path fill="none" stroke="#9a32cd" stroke-dasharray="5,2" d="M58.3216,-85.179C60.0715,-90.2879 68.9644,-94.1239 85,-94.1239 110.031,-94.1239 117.658,-84.777 107.88,-75.8318"/>
<polygon fill="#9a32cd" stroke="#9a32cd" points="61.5977,-86.4137 62.1199,-75.8318 55.1127,-83.7785 61.5977,-86.4137"/>
<text text-anchor="middle" x="85" y="-98.1239" font-family="FreeSans" font-size="10.00"> EMPTY</text>
</g>
<!-- Node17 -->
<g id="node40" class="node"><title>Node17</title>
<a xlink:href="a00090.html" target="_top" xlink:title="Connection to a remote network host.">
<polygon fill="none" stroke="red" points="333.5,-154.624 333.5,-175.624 446.5,-175.624 446.5,-154.624 333.5,-154.624"/>
<text text-anchor="middle" x="390" y="-162.624" font-family="FreeSans" font-size="10.00">Urho3D::Connection</text>
</a>
</g>
<!-- Node8&#45;&gt;Node17 -->
<g id="edge54" class="edge"><title>Node8&#45;&gt;Node17</title>
<path fill="none" stroke="#9a32cd" stroke-dasharray="5,2" d="M119.973,-79.4266C160.101,-95.5129 228.095,-121.781 288,-140.124 305.521,-145.489 325.005,-150.494 342.211,-154.596"/>
<polygon fill="#9a32cd" stroke="#9a32cd" points="121.219,-76.1553 110.635,-75.6654 118.603,-82.6483 121.219,-76.1553"/>
<text text-anchor="middle" x="229" y="-137.124" font-family="FreeSans" font-size="10.00"> sceneFileName_</text>
</g>
<!-- Node9 -->
<g id="node19" class="node"><title>Node9</title>
<a xlink:href="a00227.html" target="_top" xlink:title="Rotation represented as a four&#45;dimensional normalized vector.">
<polygon fill="none" stroke="black" points="333.5,-366.624 333.5,-387.624 446.5,-387.624 446.5,-366.624 333.5,-366.624"/>
<text text-anchor="middle" x="390" y="-374.624" font-family="FreeSans" font-size="10.00">Urho3D::Quaternion</text>
</a>
</g>
<!-- Node9&#45;&gt;Node5 -->
<g id="edge22" class="edge"><title>Node9&#45;&gt;Node5</title>
<path fill="none" stroke="#9a32cd" stroke-dasharray="5,2" d="M456.664,-365.784C499.878,-358.288 557.351,-348.049 608,-338.124 613.951,-336.958 620.217,-335.68 626.376,-334.395"/>
<polygon fill="#9a32cd" stroke="#9a32cd" points="455.813,-362.379 446.556,-367.532 457.006,-369.277 455.813,-362.379"/>
<text text-anchor="middle" x="559" y="-372.124" font-family="FreeSans" font-size="10.00"> worldRotation_</text>
<text text-anchor="middle" x="559" y="-359.124" font-family="FreeSans" font-size="10.00">rotation_</text>
</g>
<!-- Node9&#45;&gt;Node9 -->
<g id="edge24" class="edge"><title>Node9&#45;&gt;Node9</title>
<path fill="none" stroke="#9a32cd" stroke-dasharray="5,2" d="M360.357,-397.179C362.302,-402.288 372.183,-406.124 390,-406.124 417.812,-406.124 426.287,-396.777 415.422,-387.832"/>
<polygon fill="#9a32cd" stroke="#9a32cd" points="363.652,-398.386 364.578,-387.832 357.273,-395.506 363.652,-398.386"/>
<text text-anchor="middle" x="390" y="-410.124" font-family="FreeSans" font-size="10.00"> IDENTITY</text>
</g>
<!-- Node10 -->
<g id="node22" class="node"><title>Node10</title>
<a xlink:href="a00316.html" target="_top" xlink:title="Urho3D::Vector\&lt; Urho3D\l::WeakPtr\&lt; Urho3D::Component \&gt; \&gt;">
<polygon fill="none" stroke="red" points="293,-591.124 293,-625.124 487,-625.124 487,-591.124 293,-591.124"/>
<text text-anchor="start" x="301" y="-612.124" font-family="FreeSans" font-size="10.00">Urho3D::Vector&lt; Urho3D</text>
<text text-anchor="middle" x="390" y="-599.124" font-family="FreeSans" font-size="10.00">::WeakPtr&lt; Urho3D::Component &gt; &gt;</text>
</a>
</g>
<!-- Node10&#45;&gt;Node5 -->
<g id="edge26" class="edge"><title>Node10&#45;&gt;Node5</title>
<path fill="none" stroke="#9a32cd" stroke-dasharray="5,2" d="M497.113,-598.595C536.827,-589.844 579.166,-573.483 608,-543.124 637.569,-511.992 661.101,-375.193 667.36,-335.783"/>
<polygon fill="#9a32cd" stroke="#9a32cd" points="496.172,-595.216 487.083,-600.66 497.583,-602.072 496.172,-595.216"/>
<text text-anchor="middle" x="559" y="-598.124" font-family="FreeSans" font-size="10.00"> listeners_</text>
</g>
<!-- Node11 -->
<g id="node24" class="node"><title>Node11</title>
<a xlink:href="a00321.html" target="_top" xlink:title="Dynamically sized buffer that can be read and written to as a stream.">
<polygon fill="none" stroke="red" points="25.5,-230.624 25.5,-251.624 144.5,-251.624 144.5,-230.624 25.5,-230.624"/>
<text text-anchor="middle" x="85" y="-238.624" font-family="FreeSans" font-size="10.00">Urho3D::VectorBuffer</text>
</a>
</g>
<!-- Node11&#45;&gt;Node5 -->
<g id="edge28" class="edge"><title>Node11&#45;&gt;Node5</title>
<path fill="none" stroke="#9a32cd" stroke-dasharray="5,2" d="M154.96,-242.231C236.503,-244.532 375.018,-251.582 492,-273.124 545.232,-282.926 605.319,-302.448 640.011,-314.585"/>
<polygon fill="#9a32cd" stroke="#9a32cd" points="154.906,-238.728 144.816,-241.961 154.72,-245.726 154.906,-238.728"/>
<text text-anchor="middle" x="390" y="-277.124" font-family="FreeSans" font-size="10.00"> attrBuffer_</text>
</g>
<!-- Node11&#45;&gt;Node17 -->
<g id="edge50" class="edge"><title>Node11&#45;&gt;Node17</title>
<path fill="none" stroke="#9a32cd" stroke-dasharray="5,2" d="M129.677,-227.753C170.643,-215.742 233.1,-198.059 288,-185.124 302.666,-181.668 318.617,-178.339 333.453,-175.422"/>
<polygon fill="#9a32cd" stroke="#9a32cd" points="128.603,-224.42 119.999,-230.602 130.58,-231.135 128.603,-224.42"/>
<text text-anchor="middle" x="229" y="-214.124" font-family="FreeSans" font-size="10.00"> msg_</text>
</g>
<!-- Node12 -->
<g id="node26" class="node"><title>Node12</title>
<a xlink:href="a00316.html" target="_top" xlink:title="Urho3D::Vector\&lt; Urho3D\l::SharedPtr\&lt; Urho3D::Component \&gt; \&gt;">
<polygon fill="none" stroke="red" points="288.5,-437.124 288.5,-471.124 491.5,-471.124 491.5,-437.124 288.5,-437.124"/>
<text text-anchor="start" x="296.5" y="-458.124" font-family="FreeSans" font-size="10.00">Urho3D::Vector&lt; Urho3D</text>
<text text-anchor="middle" x="390" y="-445.124" font-family="FreeSans" font-size="10.00">::SharedPtr&lt; Urho3D::Component &gt; &gt;</text>
</a>
</g>
<!-- Node12&#45;&gt;Node5 -->
<g id="edge30" class="edge"><title>Node12&#45;&gt;Node5</title>
<path fill="none" stroke="#9a32cd" stroke-dasharray="5,2" d="M488.713,-434.48C527.855,-423.814 572.015,-407.989 608,-385.124 629.565,-371.421 649.688,-349.047 660.572,-335.838"/>
<polygon fill="#9a32cd" stroke="#9a32cd" points="487.65,-431.141 478.878,-437.082 489.44,-437.908 487.65,-431.141"/>
<text text-anchor="middle" x="559" y="-431.124" font-family="FreeSans" font-size="10.00"> components_</text>
</g>
<!-- Node13 -->
<g id="node28" class="node"><title>Node13</title>
<a xlink:href="a00318.html" target="_top" xlink:title="Three&#45;dimensional vector.">
<polygon fill="none" stroke="black" points="37,-595.624 37,-616.624 133,-616.624 133,-595.624 37,-595.624"/>
<text text-anchor="middle" x="85" y="-603.624" font-family="FreeSans" font-size="10.00">Urho3D::Vector3</text>
</a>
</g>
<!-- Node13&#45;&gt;Node5 -->
<g id="edge32" class="edge"><title>Node13&#45;&gt;Node5</title>
<path fill="none" stroke="#9a32cd" stroke-dasharray="5,2" d="M113.624,-590.759C152.175,-570.696 223.411,-535.82 288,-516.124 427.438,-473.602 496.411,-537.927 608,-444.124 643.365,-414.396 660.608,-358.978 666.534,-335.774"/>
<polygon fill="#9a32cd" stroke="#9a32cd" points="111.778,-587.775 104.551,-595.523 115.032,-593.973 111.778,-587.775"/>
<text text-anchor="middle" x="390" y="-533.124" font-family="FreeSans" font-size="10.00"> scale_</text>
<text text-anchor="middle" x="390" y="-520.124" font-family="FreeSans" font-size="10.00">position_</text>
</g>
<!-- Node13&#45;&gt;Node13 -->
<g id="edge34" class="edge"><title>Node13&#45;&gt;Node13</title>
<path fill="none" stroke="#9a32cd" stroke-dasharray="5,2" d="M58.3216,-626.179C60.0715,-631.288 68.9644,-635.124 85,-635.124 110.031,-635.124 117.658,-625.777 107.88,-616.832"/>
<polygon fill="#9a32cd" stroke="#9a32cd" points="61.5977,-627.414 62.1199,-616.832 55.1127,-624.778 61.5977,-627.414"/>
<text text-anchor="middle" x="85" y="-730.124" font-family="FreeSans" font-size="10.00"> ONE</text>
<text text-anchor="middle" x="85" y="-717.124" font-family="FreeSans" font-size="10.00">DOWN</text>
<text text-anchor="middle" x="85" y="-704.124" font-family="FreeSans" font-size="10.00">BACK</text>
<text text-anchor="middle" x="85" y="-691.124" font-family="FreeSans" font-size="10.00">RIGHT</text>
<text text-anchor="middle" x="85" y="-678.124" font-family="FreeSans" font-size="10.00">LEFT</text>
<text text-anchor="middle" x="85" y="-665.124" font-family="FreeSans" font-size="10.00">ZERO</text>
<text text-anchor="middle" x="85" y="-652.124" font-family="FreeSans" font-size="10.00">FORWARD</text>
<text text-anchor="middle" x="85" y="-639.124" font-family="FreeSans" font-size="10.00">UP</text>
</g>
<!-- Node13&#45;&gt;Node17 -->
<g id="edge52" class="edge"><title>Node13&#45;&gt;Node17</title>
<path fill="none" stroke="#9a32cd" stroke-dasharray="5,2" d="M95.1692,-586.174C123.676,-530.068 206.423,-365.934 270,-227.124 278.457,-208.66 272.205,-197.89 288,-185.124 300.771,-174.801 317.352,-169.29 333.419,-166.474"/>
<polygon fill="#9a32cd" stroke="#9a32cd" points="91.9094,-584.863 90.4946,-595.363 98.1485,-588.037 91.9094,-584.863"/>
<text text-anchor="middle" x="229" y="-398.124" font-family="FreeSans" font-size="10.00"> position_</text>
</g>
<!-- Node19 -->
<g id="node49" class="node"><title>Node19</title>
<a xlink:href="a00076.html" target="_top" xlink:title="Three&#45;dimensional axis&#45;aligned bounding box.">
<polygon fill="none" stroke="black" points="946,-684.624 946,-705.624 1068,-705.624 1068,-684.624 946,-684.624"/>
<text text-anchor="middle" x="1007" y="-692.624" font-family="FreeSans" font-size="10.00">Urho3D::BoundingBox</text>
</a>
</g>
<!-- Node13&#45;&gt;Node19 -->
<g id="edge64" class="edge"><title>Node13&#45;&gt;Node19</title>
<path fill="none" stroke="#9a32cd" stroke-dasharray="5,2" d="M112.576,-621.572C164.936,-649.409 283.086,-705.124 390,-705.124 390,-705.124 390,-705.124 850,-705.124 881.682,-705.124 916.888,-703.071 945.919,-700.825"/>
<polygon fill="#9a32cd" stroke="#9a32cd" points="114.045,-618.388 103.583,-616.719 110.721,-624.548 114.045,-618.388"/>
<text text-anchor="middle" x="669" y="-722.124" font-family="FreeSans" font-size="10.00"> max_</text>
<text text-anchor="middle" x="669" y="-709.124" font-family="FreeSans" font-size="10.00">min_</text>
</g>
<!-- Node25 -->
<g id="node66" class="node"><title>Node25</title>
<a xlink:href="a00205.html" target="_top" xlink:title="Octree octant">
<polygon fill="none" stroke="red" points="1221,-660.624 1221,-681.624 1313,-681.624 1313,-660.624 1221,-660.624"/>
<text text-anchor="middle" x="1267" y="-668.624" font-family="FreeSans" font-size="10.00">Urho3D::Octant</text>
</a>
</g>
<!-- Node13&#45;&gt;Node25 -->
<g id="edge86" class="edge"><title>Node13&#45;&gt;Node25</title>
<path fill="none" stroke="#9a32cd" stroke-dasharray="5,2" d="M101.787,-624.145C144.982,-668.452 265.352,-779.124 390,-779.124 390,-779.124 390,-779.124 1007,-779.124 1107.93,-779.124 1215.21,-708.852 1252.92,-681.676"/>
<polygon fill="#9a32cd" stroke="#9a32cd" points="104.083,-621.482 94.636,-616.685 99.0299,-626.326 104.083,-621.482"/>
<text text-anchor="middle" x="752" y="-796.124" font-family="FreeSans" font-size="10.00"> center_</text>
<text text-anchor="middle" x="752" y="-783.124" font-family="FreeSans" font-size="10.00">halfSize_</text>
</g>
<!-- Node14 -->
<g id="node33" class="node"><title>Node14</title>
<a xlink:href="a00292.html" target="_top" xlink:title="32&#45;bit hash value for a string.">
<polygon fill="none" stroke="black" points="333.5,-295.624 333.5,-316.624 446.5,-316.624 446.5,-295.624 333.5,-295.624"/>
<text text-anchor="middle" x="390" y="-303.624" font-family="FreeSans" font-size="10.00">Urho3D::StringHash</text>
</a>
</g>
<!-- Node14&#45;&gt;Node5 -->
<g id="edge40" class="edge"><title>Node14&#45;&gt;Node5</title>
<path fill="none" stroke="#9a32cd" stroke-dasharray="5,2" d="M457.055,-310.69C509.686,-314.275 581.359,-319.156 626.399,-322.223"/>
<polygon fill="#9a32cd" stroke="#9a32cd" points="457.011,-307.179 446.796,-309.992 456.535,-314.163 457.011,-307.179"/>
<text text-anchor="middle" x="559" y="-325.124" font-family="FreeSans" font-size="10.00"> nameHash_</text>
</g>
<!-- Node14&#45;&gt;Node14 -->
<g id="edge42" class="edge"><title>Node14&#45;&gt;Node14</title>
<path fill="none" stroke="#9a32cd" stroke-dasharray="5,2" d="M360.357,-326.179C362.302,-331.288 372.183,-335.124 390,-335.124 417.812,-335.124 426.287,-325.777 415.422,-316.832"/>
<polygon fill="#9a32cd" stroke="#9a32cd" points="363.652,-327.386 364.578,-316.832 357.273,-324.506 363.652,-327.386"/>
<text text-anchor="middle" x="390" y="-339.124" font-family="FreeSans" font-size="10.00"> ZERO</text>
</g>
<!-- Node15 -->
<g id="node36" class="node"><title>Node15</title>
<a xlink:href="a00316.html" target="_top" xlink:title="Urho3D::Vector\&lt; Urho3D\l::SharedPtr\&lt; Urho3D::Node \&gt; \&gt;">
<polygon fill="none" stroke="red" points="303.5,-194.124 303.5,-228.124 476.5,-228.124 476.5,-194.124 303.5,-194.124"/>
<text text-anchor="start" x="311.5" y="-215.124" font-family="FreeSans" font-size="10.00">Urho3D::Vector&lt; Urho3D</text>
<text text-anchor="middle" x="390" y="-202.124" font-family="FreeSans" font-size="10.00">::SharedPtr&lt; Urho3D::Node &gt; &gt;</text>
</a>
</g>
<!-- Node15&#45;&gt;Node5 -->
<g id="edge44" class="edge"><title>Node15&#45;&gt;Node5</title>
<path fill="none" stroke="#9a32cd" stroke-dasharray="5,2" d="M486.607,-205.747C526.638,-207.644 572.022,-215.475 608,-237.124 638.423,-255.43 657.405,-295.406 665.083,-314.526"/>
<polygon fill="#9a32cd" stroke="#9a32cd" points="486.673,-202.247 476.554,-205.387 486.423,-209.242 486.673,-202.247"/>
<text text-anchor="middle" x="559" y="-241.124" font-family="FreeSans" font-size="10.00"> children_</text>
</g>
<!-- Node16 -->
<g id="node38" class="node"><title>Node16</title>
<a xlink:href="a00142.html" target="_top" xlink:title="Urho3D::HashMap\&lt; ShortString\lHash, Variant \&gt;">
<polygon fill="none" stroke="red" points="0,-136.124 0,-170.124 170,-170.124 170,-136.124 0,-136.124"/>
<text text-anchor="start" x="8" y="-157.124" font-family="FreeSans" font-size="10.00">Urho3D::HashMap&lt; ShortString</text>
<text text-anchor="middle" x="85" y="-144.124" font-family="FreeSans" font-size="10.00">Hash, Variant &gt;</text>
</a>
</g>
<!-- Node16&#45;&gt;Node5 -->
<g id="edge46" class="edge"><title>Node16&#45;&gt;Node5</title>
<path fill="none" stroke="#9a32cd" stroke-dasharray="5,2" d="M180.224,-139.361C313.466,-122.4 546.186,-101.885 608,-155.124 657.656,-197.892 666.891,-284.136 668.608,-314.362"/>
<polygon fill="#9a32cd" stroke="#9a32cd" points="179.487,-135.927 170.017,-140.678 180.383,-142.869 179.487,-135.927"/>
<text text-anchor="middle" x="390" y="-132.124" font-family="FreeSans" font-size="10.00"> vars_</text>
</g>
<!-- Node16&#45;&gt;Node17 -->
<g id="edge56" class="edge"><title>Node16&#45;&gt;Node17</title>
<path fill="none" stroke="#9a32cd" stroke-dasharray="5,2" d="M180.571,-156.884C230.651,-158.854 290.295,-161.201 333.099,-162.885"/>
<polygon fill="#9a32cd" stroke="#9a32cd" points="180.495,-153.378 170.365,-156.483 180.22,-160.373 180.495,-153.378"/>
<text text-anchor="middle" x="229" y="-165.124" font-family="FreeSans" font-size="10.00"> identity_</text>
</g>
<!-- Node17&#45;&gt;Node5 -->
<g id="edge48" class="edge"><title>Node17&#45;&gt;Node5</title>
<path fill="none" stroke="#9a32cd" stroke-dasharray="5,2" d="M456.969,-156.915C503.575,-154.798 564.853,-159.589 608,-191.124 650.099,-221.893 663.838,-288.715 667.683,-314.592"/>
<polygon fill="#9a32cd" stroke="#9a32cd" points="456.744,-153.422 446.96,-157.485 457.142,-160.411 456.744,-153.422"/>
<text text-anchor="middle" x="559" y="-195.124" font-family="FreeSans" font-size="10.00"> owner_</text>
</g>
<!-- Node18&#45;&gt;Node2 -->
<g id="edge58" class="edge"><title>Node18&#45;&gt;Node2</title>
<path fill="none" stroke="#9a32cd" stroke-dasharray="5,2" d="M1723.02,-589.32C1705.25,-581.358 1682.61,-571.657 1662,-564.124 1634.56,-554.097 1602.98,-544.573 1578.83,-537.699"/>
<polygon fill="#9a32cd" stroke="#9a32cd" points="1721.8,-592.609 1732.36,-593.54 1724.69,-586.231 1721.8,-592.609"/>
<text text-anchor="middle" x="1636" y="-581.124" font-family="FreeSans" font-size="10.00"> lastZone_</text>
<text text-anchor="middle" x="1636" y="-568.124" font-family="FreeSans" font-size="10.00">zone_</text>
</g>
<!-- Node19&#45;&gt;Node2 -->
<g id="edge78" class="edge"><title>Node19&#45;&gt;Node2</title>
<path fill="none" stroke="#9a32cd" stroke-dasharray="5,2" d="M1041.09,-680.632C1078.86,-665.048 1141.86,-640.452 1198,-625.124 1316.57,-592.749 1356.38,-622.017 1470,-575.124 1492.34,-565.904 1514.78,-548.798 1528.03,-537.694"/>
<polygon fill="#9a32cd" stroke="#9a32cd" points="1039.48,-677.51 1031.59,-684.58 1042.17,-683.974 1039.48,-677.51"/>
<text text-anchor="middle" x="1267" y="-642.124" font-family="FreeSans" font-size="10.00"> worldBoundingBox_</text>
<text text-anchor="middle" x="1267" y="-629.124" font-family="FreeSans" font-size="10.00">boundingBox_</text>
</g>
<!-- Node19&#45;&gt;Node18 -->
<g id="edge62" class="edge"><title>Node19&#45;&gt;Node18</title>
<path fill="none" stroke="#9a32cd" stroke-dasharray="5,2" d="M1051.74,-708.523C1062.87,-711.597 1074.82,-714.677 1086,-717.124 1135.25,-727.904 1147.74,-731.111 1198,-735.124 1259.14,-740.006 1275.37,-744.381 1336,-735.124 1490.83,-711.485 1667.08,-641.383 1730.59,-614.646"/>
<polygon fill="#9a32cd" stroke="#9a32cd" points="1052.36,-705.064 1041.79,-705.721 1050.47,-711.801 1052.36,-705.064"/>
<text text-anchor="middle" x="1412" y="-735.124" font-family="FreeSans" font-size="10.00"> lastWorldBoundingBox_</text>
</g>
<!-- Node19&#45;&gt;Node25 -->
<g id="edge88" class="edge"><title>Node19&#45;&gt;Node25</title>
<path fill="none" stroke="#9a32cd" stroke-dasharray="5,2" d="M1078.37,-688.536C1123.77,-684.345 1181.25,-679.039 1220.76,-675.392"/>
<polygon fill="#9a32cd" stroke="#9a32cd" points="1077.92,-685.062 1068.29,-689.467 1078.57,-692.033 1077.92,-685.062"/>
<text text-anchor="middle" x="1133" y="-704.124" font-family="FreeSans" font-size="10.00"> cullingBox_</text>
<text text-anchor="middle" x="1133" y="-691.124" font-family="FreeSans" font-size="10.00">worldBoundingBox_</text>
</g>
<!-- Node20 -->
<g id="node52" class="node"><title>Node20</title>
<a xlink:href="a00222.html" target="_top" xlink:title="Urho3D::PODVector\&lt;\l Urho3D::Light * \&gt;">
<polygon fill="none" stroke="red" points="1207.5,-457.124 1207.5,-491.124 1326.5,-491.124 1326.5,-457.124 1207.5,-457.124"/>
<text text-anchor="start" x="1215.5" y="-478.124" font-family="FreeSans" font-size="10.00">Urho3D::PODVector&lt;</text>
<text text-anchor="middle" x="1267" y="-465.124" font-family="FreeSans" font-size="10.00"> Urho3D::Light * &gt;</text>
</a>
</g>
<!-- Node20&#45;&gt;Node2 -->
<g id="edge66" class="edge"><title>Node20&#45;&gt;Node2</title>
<path fill="none" stroke="#9a32cd" stroke-dasharray="5,2" d="M1337.01,-470.88C1376.79,-470.935 1427.06,-474.237 1470,-487.124 1490.91,-493.4 1512.33,-506.881 1525.87,-516.455"/>
<polygon fill="#9a32cd" stroke="#9a32cd" points="1336.86,-467.38 1326.88,-470.935 1336.9,-474.38 1336.86,-467.38"/>
<text text-anchor="middle" x="1412" y="-504.124" font-family="FreeSans" font-size="10.00"> vertexLights_</text>
<text text-anchor="middle" x="1412" y="-491.124" font-family="FreeSans" font-size="10.00">lights_</text>
</g>
<!-- Node21&#45;&gt;Node2 -->
<g id="edge68" class="edge"><title>Node21&#45;&gt;Node2</title>
<path fill="none" stroke="#9a32cd" stroke-dasharray="5,2" d="M1066.29,-527.124C1171.27,-527.124 1388.12,-527.124 1487.8,-527.124"/>
<polygon fill="#9a32cd" stroke="#9a32cd" points="1066.19,-523.624 1056.19,-527.124 1066.19,-530.624 1066.19,-523.624"/>
<text text-anchor="middle" x="1267" y="-531.124" font-family="FreeSans" font-size="10.00"> viewCamera_</text>
</g>
<!-- Node24 -->
<g id="node63" class="node"><title>Node24</title>
<a xlink:href="a00132.html" target="_top" xlink:title="Rendering frame update parameters.">
<polygon fill="none" stroke="red" points="1213.5,-558.624 1213.5,-579.624 1320.5,-579.624 1320.5,-558.624 1213.5,-558.624"/>
<text text-anchor="middle" x="1267" y="-566.624" font-family="FreeSans" font-size="10.00">Urho3D::FrameInfo</text>
</a>
</g>
<!-- Node21&#45;&gt;Node24 -->
<g id="edge82" class="edge"><title>Node21&#45;&gt;Node24</title>
<path fill="none" stroke="#9a32cd" stroke-dasharray="5,2" d="M1066.53,-537.818C1073.1,-538.954 1079.69,-540.076 1086,-541.124 1128.82,-548.229 1177.43,-555.718 1213.49,-561.161"/>
<polygon fill="#9a32cd" stroke="#9a32cd" points="1066.73,-534.299 1056.28,-536.028 1065.53,-541.195 1066.73,-534.299"/>
<text text-anchor="middle" x="1133" y="-559.124" font-family="FreeSans" font-size="10.00"> camera_</text>
</g>
<!-- Node22 -->
<g id="node57" class="node"><title>Node22</title>
<a xlink:href="a00316.html" target="_top" xlink:title="Urho3D::Vector\&lt; Urho3D\l::SourceBatch \&gt;">
<polygon fill="none" stroke="red" points="1198,-405.124 1198,-439.124 1336,-439.124 1336,-405.124 1198,-405.124"/>
<text text-anchor="start" x="1206" y="-426.124" font-family="FreeSans" font-size="10.00">Urho3D::Vector&lt; Urho3D</text>
<text text-anchor="middle" x="1267" y="-413.124" font-family="FreeSans" font-size="10.00">::SourceBatch &gt;</text>
</a>
</g>
<!-- Node22&#45;&gt;Node2 -->
<g id="edge72" class="edge"><title>Node22&#45;&gt;Node2</title>
<path fill="none" stroke="#9a32cd" stroke-dasharray="5,2" d="M1346.52,-422.892C1385.59,-426.123 1432.26,-434.411 1470,-454.124 1498.64,-469.082 1522.27,-500.25 1533.3,-516.598"/>
<polygon fill="#9a32cd" stroke="#9a32cd" points="1346.47,-419.379 1336.24,-422.143 1345.96,-426.361 1346.47,-419.379"/>
<text text-anchor="middle" x="1412" y="-458.124" font-family="FreeSans" font-size="10.00"> batches_</text>
</g>
<!-- Node23&#45;&gt;Node2 -->
<g id="edge74" class="edge"><title>Node23&#45;&gt;Node2</title>
<path fill="none" stroke="#9a32cd" stroke-dasharray="5,2" d="M1703.39,-514.205C1669.69,-516.87 1625.83,-520.337 1592.05,-523.009"/>
<polygon fill="#9a32cd" stroke="#9a32cd" points="1703.81,-517.683 1713.5,-513.405 1703.25,-510.705 1703.81,-517.683"/>
<text text-anchor="middle" x="1636" y="-525.124" font-family="FreeSans" font-size="10.00"> firstLight_</text>
</g>
<!-- Node24&#45;&gt;Node2 -->
<g id="edge80" class="edge"><title>Node24&#45;&gt;Node2</title>
<path fill="none" stroke="#9a32cd" stroke-dasharray="5,2" d="M1330.72,-561.337C1370.8,-556.192 1423.53,-548.968 1470,-541.124 1476.23,-540.072 1482.76,-538.883 1489.22,-537.654"/>
<polygon fill="#9a32cd" stroke="#9a32cd" points="1330.04,-557.896 1320.56,-562.632 1330.92,-564.84 1330.04,-557.896"/>
<text text-anchor="middle" x="1412" y="-562.124" font-family="FreeSans" font-size="10.00"> viewFrame_</text>
</g>
<!-- Node25&#45;&gt;Node2 -->
<g id="edge84" class="edge"><title>Node25&#45;&gt;Node2</title>
<path fill="none" stroke="#9a32cd" stroke-dasharray="5,2" d="M1323.18,-671.004C1366.56,-668.406 1426.34,-659.143 1470,-630.124 1505.11,-606.787 1527.35,-559.24 1535.95,-537.906"/>
<polygon fill="#9a32cd" stroke="#9a32cd" points="1322.9,-667.514 1313.09,-671.507 1323.25,-674.505 1322.9,-667.514"/>
<text text-anchor="middle" x="1412" y="-671.124" font-family="FreeSans" font-size="10.00"> octant_</text>
</g>
<!-- Node25&#45;&gt;Node25 -->
<g id="edge90" class="edge"><title>Node25&#45;&gt;Node25</title>
<path fill="none" stroke="#9a32cd" stroke-dasharray="5,2" d="M1242.31,-691.551C1244.21,-696.473 1252.44,-700.124 1267,-700.124 1290.29,-700.124 1297.39,-690.777 1288.29,-681.832"/>
<polygon fill="#9a32cd" stroke="#9a32cd" points="1245.71,-692.427 1245.71,-681.832 1239.1,-690.113 1245.71,-692.427"/>
<text text-anchor="middle" x="1267" y="-717.124" font-family="FreeSans" font-size="10.00"> parent_</text>
<text text-anchor="middle" x="1267" y="-704.124" font-family="FreeSans" font-size="10.00">children_</text>
</g>
</g>
</svg>
        <g id="navigator" transform="translate(0 0)" fill="#404254">
                <rect fill="#f2f5e9" fill-opacity="0.5" stroke="#606060" stroke-width=".5" x="0" y="0" width="60" height="60"/>
                <use id="zoomplus" xlink:href="#zoomPlus" x="17" y="9" onmousedown="handleZoom(evt,'in')"/>
                <use id="zoomminus" xlink:href="#zoomMin" x="42" y="9" onmousedown="handleZoom(evt,'out')"/>
                <use id="reset" xlink:href="#resetDef" x="30" y="36" onmousedown="handleReset()"/>
                <g id="arrowUp" xlink:href="#dirArrow" transform="translate(30 24)" onmousedown="handlePan(0,-1)">
                  <use xlink:href="#rim" fill="#404040">
                        <set attributeName="fill" to="#808080" begin="arrowUp.mouseover" end="arrowUp.mouseout"/>
                  </use>
                  <path fill="none" stroke="white" stroke-width="1.5" d="M0,-3.0v7 M-2.5,-0.5L0,-3.0L2.5,-0.5"/>
                </g>
                <g id="arrowRight" xlink:href="#dirArrow" transform="rotate(90) translate(36 -43)" onmousedown="handlePan(1,0)">
                  <use xlink:href="#rim" fill="#404040">
                        <set attributeName="fill" to="#808080" begin="arrowRight.mouseover" end="arrowRight.mouseout"/>
                  </use>
                  <path fill="none" stroke="white" stroke-width="1.5" d="M0,-3.0v7 M-2.5,-0.5L0,-3.0L2.5,-0.5"/>
                </g>
                <g id="arrowDown" xlink:href="#dirArrow" transform="rotate(180) translate(-30 -48)" onmousedown="handlePan(0,1)">
                  <use xlink:href="#rim" fill="#404040">
                        <set attributeName="fill" to="#808080" begin="arrowDown.mouseover" end="arrowDown.mouseout"/>
                  </use>
                  <path fill="none" stroke="white" stroke-width="1.5" d="M0,-3.0v7 M-2.5,-0.5L0,-3.0L2.5,-0.5"/>
                </g>
                <g id="arrowLeft" xlink:href="#dirArrow" transform="rotate(270) translate(-36 17)" onmousedown="handlePan(-1,0)">
                  <use xlink:href="#rim" fill="#404040">
                        <set attributeName="fill" to="#808080" begin="arrowLeft.mouseover" end="arrowLeft.mouseout"/>
                  </use>
                  <path fill="none" stroke="white" stroke-width="1.5" d="M0,-3.0v7 M-2.5,-0.5L0,-3.0L2.5,-0.5"/>
                </g>
        </g>
        <svg viewBox="0 0 15 15" width="100%" height="30px" preserveAspectRatio="xMaxYMin meet">
         <g id="arrow_out" transform="scale(0.3 0.3)">
          <a xlink:href="a01021_org.svg" target="_base">
           <rect id="button" ry="5" rx="5" y="6" x="6" height="38" width="38"
                fill="#f2f5e9" fill-opacity="0.5" stroke="#606060" stroke-width="1.0"/>
           <path id="arrow"
             d="M 11.500037,31.436501 C 11.940474,20.09759 22.043105,11.32322 32.158766,21.979434 L 37.068811,17.246167 C 37.068811,17.246167 37.088388,32 37.088388,32 L 22.160133,31.978069 C 22.160133,31.978069 26.997745,27.140456 26.997745,27.140456 C 18.528582,18.264221 13.291696,25.230495 11.500037,31.436501 z"
             style="fill:#404040;"/>
          </a>
         </g>
        </svg>
</svg>
