<?xml version="1.0" encoding="UTF-8" standalone="no"?>
<!DOCTYPE svg PUBLIC "-//W3C//DTD SVG 1.1//EN"
 "http://www.w3.org/Graphics/SVG/1.1/DTD/svg11.dtd">
<!-- Generated by graphviz version 2.26.3 (20100126.1600)
 -->
<!-- Title: Urho3D::RayQueryResult Pages: 1 -->
<svg width="1864pt" height="832pt"
 viewBox="0.00 0.00 1864.00 832.44" xmlns="http://www.w3.org/2000/svg" xmlns:xlink="http://www.w3.org/1999/xlink">
<g id="graph1" class="graph" transform="scale(1 1) rotate(0) translate(4 828.444)">
<title>Urho3D::RayQueryResult</title>
<!-- Node1 -->
<g id="node1" class="node"><title>Node1</title>
<polygon fill="#bfbfbf" stroke="black" points="1722,-749.944 1722,-770.944 1856,-770.944 1856,-749.944 1722,-749.944"/>
<text text-anchor="middle" x="1789" y="-757.944" font-family="FreeSans" font-size="10.00">Urho3D::RayQueryResult</text>
</g>
<!-- Node2 -->
<g id="node2" class="node"><title>Node2</title>
<a xlink:href="a00115.html" target="_top" xlink:title="Base class for visible components.">
<polygon fill="none" stroke="black" points="1530,-513.944 1530,-534.944 1634,-534.944 1634,-513.944 1530,-513.944"/>
<text text-anchor="middle" x="1582" y="-521.944" font-family="FreeSans" font-size="10.00">Urho3D::Drawable</text>
</a>
</g>
<!-- Node2&#45;&gt;Node1 -->
<g id="edge2" class="edge"><title>Node2&#45;&gt;Node1</title>
<path fill="none" stroke="#9a32cd" stroke-dasharray="5,2" d="M1598.09,-542.79C1639.26,-589.724 1747.42,-713.044 1779.75,-749.897"/>
<polygon fill="#9a32cd" stroke="#9a32cd" points="1600.66,-540.408 1591.43,-535.198 1595.4,-545.024 1600.66,-540.408"/>
<text text-anchor="middle" x="1678" y="-660.444" font-family="FreeSans" font-size="10.00"> drawable_</text>
</g>
<!-- Node18 -->
<g id="node46" class="node"><title>Node18</title>
<a xlink:href="a00333.html" target="_top" xlink:title="Component that describes global rendering properties">
<polygon fill="none" stroke="red" points="1746.5,-447.944 1746.5,-468.944 1831.5,-468.944 1831.5,-447.944 1746.5,-447.944"/>
<text text-anchor="middle" x="1789" y="-455.944" font-family="FreeSans" font-size="10.00">Urho3D::Zone</text>
</a>
</g>
<!-- Node2&#45;&gt;Node18 -->
<g id="edge60" class="edge"><title>Node2&#45;&gt;Node18</title>
<path fill="none" stroke="midnightblue" d="M1625.24,-510.659C1664.11,-498.263 1720.4,-480.318 1755.82,-469.022"/>
<polygon fill="midnightblue" stroke="midnightblue" points="1623.72,-507.468 1615.26,-513.84 1625.85,-514.137 1623.72,-507.468"/>
</g>
<!-- Node23 -->
<g id="node59" class="node"><title>Node23</title>
<a xlink:href="a00159.html" target="_top" xlink:title="Light component.">
<polygon fill="none" stroke="red" points="1747.5,-529.944 1747.5,-550.944 1830.5,-550.944 1830.5,-529.944 1747.5,-529.944"/>
<text text-anchor="middle" x="1789" y="-537.944" font-family="FreeSans" font-size="10.00">Urho3D::Light</text>
</a>
</g>
<!-- Node2&#45;&gt;Node23 -->
<g id="edge76" class="edge"><title>Node2&#45;&gt;Node23</title>
<path fill="none" stroke="midnightblue" d="M1644.33,-529.262C1677.61,-531.834 1717.68,-534.932 1747.2,-537.213"/>
<polygon fill="midnightblue" stroke="midnightblue" points="1644.47,-525.763 1634.23,-528.482 1643.94,-532.742 1644.47,-525.763"/>
</g>
<!-- Node3 -->
<g id="node4" class="node"><title>Node3</title>
<a xlink:href="a00085.html" target="_top" xlink:title="Base class for components. Components can be created to scene nodes.">
<polygon fill="none" stroke="black" points="792,-496.944 792,-517.944 908,-517.944 908,-496.944 792,-496.944"/>
<text text-anchor="middle" x="850" y="-504.944" font-family="FreeSans" font-size="10.00">Urho3D::Component</text>
</a>
</g>
<!-- Node3&#45;&gt;Node2 -->
<g id="edge4" class="edge"><title>Node3&#45;&gt;Node2</title>
<path fill="none" stroke="midnightblue" d="M918.258,-509.252C920.872,-509.317 923.46,-509.382 926,-509.444 1150.64,-514.968 1418.56,-520.885 1529.7,-523.309"/>
<polygon fill="midnightblue" stroke="midnightblue" points="918.177,-505.749 908.092,-508.993 918,-512.746 918.177,-505.749"/>
</g>
<!-- Node21 -->
<g id="node54" class="node"><title>Node21</title>
<a xlink:href="a00078.html" target="_top" xlink:title="Camera component.">
<polygon fill="none" stroke="red" points="1000,-472.944 1000,-493.944 1098,-493.944 1098,-472.944 1000,-472.944"/>
<text text-anchor="middle" x="1049" y="-480.944" font-family="FreeSans" font-size="10.00">Urho3D::Camera</text>
</a>
</g>
<!-- Node3&#45;&gt;Node21 -->
<g id="edge70" class="edge"><title>Node3&#45;&gt;Node21</title>
<path fill="none" stroke="midnightblue" d="M918.2,-499.219C945.05,-495.981 975.286,-492.334 999.919,-489.363"/>
<polygon fill="midnightblue" stroke="midnightblue" points="917.603,-495.766 908.094,-500.438 918.441,-502.715 917.603,-495.766"/>
</g>
<!-- Node4 -->
<g id="node6" class="node"><title>Node4</title>
<a xlink:href="a00260.html" target="_top" xlink:title="Base class for objects with automatic serialization through attributes.">
<polygon fill="none" stroke="red" points="333,-637.944 333,-658.944 447,-658.944 447,-637.944 333,-637.944"/>
<text text-anchor="middle" x="390" y="-645.944" font-family="FreeSans" font-size="10.00">Urho3D::Serializable</text>
</a>
</g>
<!-- Node4&#45;&gt;Node3 -->
<g id="edge6" class="edge"><title>Node4&#45;&gt;Node3</title>
<path fill="none" stroke="midnightblue" d="M457.287,-648.677C500.987,-647.275 558.765,-642.472 608,-628.444 699.028,-602.508 796.687,-542.437 834.143,-518.035"/>
<polygon fill="midnightblue" stroke="midnightblue" points="456.962,-645.184 447.06,-648.952 457.15,-652.182 456.962,-645.184"/>
</g>
<!-- Node5 -->
<g id="node8" class="node"><title>Node5</title>
<a xlink:href="a00195.html" target="_top" xlink:title="Scene node that may contain components and child nodes.">
<polygon fill="none" stroke="red" points="626.5,-361.944 626.5,-382.944 711.5,-382.944 711.5,-361.944 626.5,-361.944"/>
<text text-anchor="middle" x="669" y="-369.944" font-family="FreeSans" font-size="10.00">Urho3D::Node</text>
</a>
</g>
<!-- Node4&#45;&gt;Node5 -->
<g id="edge10" class="edge"><title>Node4&#45;&gt;Node5</title>
<path fill="none" stroke="midnightblue" d="M457.198,-638.212C517.088,-628.508 596.958,-613.899 608,-603.444 641.132,-572.074 662.368,-424.022 667.686,-383.003"/>
<polygon fill="midnightblue" stroke="midnightblue" points="456.341,-634.804 447.022,-639.845 457.45,-641.716 456.341,-634.804"/>
</g>
<!-- Node5&#45;&gt;Node1 -->
<g id="edge94" class="edge"><title>Node5&#45;&gt;Node1</title>
<path fill="none" stroke="#9a32cd" stroke-dasharray="5,2" d="M680.344,-391.824C691.895,-410.976 710.792,-440.761 730,-464.444 754.746,-494.955 763.164,-500.765 792,-527.444 938.252,-662.757 975.753,-760.444 1175,-760.444 1175,-760.444 1175,-760.444 1582,-760.444 1628.72,-760.444 1681.37,-760.444 1721.88,-760.444"/>
<polygon fill="#9a32cd" stroke="#9a32cd" points="683.277,-389.909 675.152,-383.109 677.263,-393.491 683.277,-389.909"/>
<text text-anchor="middle" x="1175" y="-764.444" font-family="FreeSans" font-size="10.00"> node_</text>
</g>
<!-- Node5&#45;&gt;Node3 -->
<g id="edge8" class="edge"><title>Node5&#45;&gt;Node3</title>
<path fill="none" stroke="#9a32cd" stroke-dasharray="5,2" d="M691.541,-389.256C729.381,-417.48 804.601,-473.583 835.863,-496.9"/>
<polygon fill="#9a32cd" stroke="#9a32cd" points="693.311,-386.211 683.203,-383.037 689.126,-391.822 693.311,-386.211"/>
<text text-anchor="middle" x="752" y="-451.444" font-family="FreeSans" font-size="10.00"> node_</text>
</g>
<!-- Node5&#45;&gt;Node5 -->
<g id="edge38" class="edge"><title>Node5&#45;&gt;Node5</title>
<path fill="none" stroke="#9a32cd" stroke-dasharray="5,2" d="M653.983,-393.237C655.308,-397.973 660.314,-401.444 669,-401.444 683.254,-401.444 687.597,-392.097 682.029,-383.152"/>
<polygon fill="#9a32cd" stroke="#9a32cd" points="657.471,-393.64 655.971,-383.152 650.603,-392.286 657.471,-393.64"/>
<text text-anchor="middle" x="669" y="-405.444" font-family="FreeSans" font-size="10.00"> parent_</text>
</g>
<!-- Node7 -->
<g id="node13" class="node"><title>Node7</title>
<a xlink:href="a00248.html" target="_top" xlink:title="Root scene node, represents the whole scene.">
<polygon fill="none" stroke="red" points="805.5,-333.944 805.5,-354.944 894.5,-354.944 894.5,-333.944 805.5,-333.944"/>
<text text-anchor="middle" x="850" y="-341.944" font-family="FreeSans" font-size="10.00">Urho3D::Scene</text>
</a>
</g>
<!-- Node5&#45;&gt;Node7 -->
<g id="edge16" class="edge"><title>Node5&#45;&gt;Node7</title>
<path fill="none" stroke="midnightblue" d="M721.864,-365.916C738.567,-363.714 757.078,-361.129 774,-358.444 784.203,-356.825 795.144,-354.914 805.456,-353.032"/>
<polygon fill="midnightblue" stroke="midnightblue" points="721.193,-362.474 711.728,-367.235 722.096,-369.415 721.193,-362.474"/>
</g>
<!-- Node6 -->
<g id="node11" class="node"><title>Node6</title>
<a xlink:href="a00220.html" target="_top" xlink:title="Urho3D::PODVector\&lt;\l Urho3D::Node * \&gt;">
<polygon fill="none" stroke="red" points="330.5,-302.444 330.5,-336.444 449.5,-336.444 449.5,-302.444 330.5,-302.444"/>
<text text-anchor="start" x="338.5" y="-323.444" font-family="FreeSans" font-size="10.00">Urho3D::PODVector&lt;</text>
<text text-anchor="middle" x="390" y="-310.444" font-family="FreeSans" font-size="10.00"> Urho3D::Node * &gt;</text>
</a>
</g>
<!-- Node6&#45;&gt;Node5 -->
<g id="edge12" class="edge"><title>Node6&#45;&gt;Node5</title>
<path fill="none" stroke="#9a32cd" stroke-dasharray="5,2" d="M459.816,-322.473C503.102,-325.646 559.508,-332.143 608,-345.444 622.296,-349.365 637.546,-356.115 649.222,-361.885"/>
<polygon fill="#9a32cd" stroke="#9a32cd" points="459.887,-318.97 449.669,-321.772 459.404,-325.953 459.887,-318.97"/>
<text text-anchor="middle" x="559" y="-349.444" font-family="FreeSans" font-size="10.00"> dependencyNodes_</text>
</g>
<!-- Node7&#45;&gt;Node5 -->
<g id="edge14" class="edge"><title>Node7&#45;&gt;Node5</title>
<path fill="none" stroke="#9a32cd" stroke-dasharray="5,2" d="M795.174,-340.239C774.537,-339.87 750.993,-340.914 730,-345.444 715.057,-348.669 699.306,-355.746 687.553,-361.846"/>
<polygon fill="#9a32cd" stroke="#9a32cd" points="795.26,-343.743 805.358,-340.538 795.465,-336.746 795.26,-343.743"/>
<text text-anchor="middle" x="752" y="-349.444" font-family="FreeSans" font-size="10.00"> scene_</text>
</g>
<!-- Node8 -->
<g id="node16" class="node"><title>Node8</title>
<a xlink:href="a00288.html" target="_top" xlink:title="String class.">
<polygon fill="none" stroke="black" points="41,-45.9441 41,-66.9441 129,-66.9441 129,-45.9441 41,-45.9441"/>
<text text-anchor="middle" x="85" y="-53.9441" font-family="FreeSans" font-size="10.00">Urho3D::String</text>
</a>
</g>
<!-- Node8&#45;&gt;Node5 -->
<g id="edge36" class="edge"><title>Node8&#45;&gt;Node5</title>
<path fill="none" stroke="#9a32cd" stroke-dasharray="5,2" d="M139.316,-51.8718C259.974,-43.0199 544.668,-29.7691 608,-95.4441 646.113,-134.967 664.113,-315.822 668.12,-361.792"/>
<polygon fill="#9a32cd" stroke="#9a32cd" points="138.904,-48.3928 129.194,-52.6325 139.428,-55.3732 138.904,-48.3928"/>
<text text-anchor="middle" x="390" y="-58.4441" font-family="FreeSans" font-size="10.00"> name_</text>
</g>
<!-- Node8&#45;&gt;Node7 -->
<g id="edge18" class="edge"><title>Node8&#45;&gt;Node7</title>
<path fill="none" stroke="#9a32cd" stroke-dasharray="5,2" d="M126.958,-42.9044C219.345,-15.6291 445.077,36.9414 608,-41.4441 743.286,-106.533 826.509,-288.143 845.717,-333.882"/>
<polygon fill="#9a32cd" stroke="#9a32cd" points="125.709,-39.6252 117.141,-45.8569 127.725,-46.3286 125.709,-39.6252"/>
<text text-anchor="middle" x="559" y="-45.4441" font-family="FreeSans" font-size="10.00"> fileName_</text>
</g>
<!-- Node8&#45;&gt;Node8 -->
<g id="edge20" class="edge"><title>Node8&#45;&gt;Node8</title>
<path fill="none" stroke="#9a32cd" stroke-dasharray="5,2" d="M58.3216,-76.4992C60.0715,-81.6081 68.9644,-85.4441 85,-85.4441 110.031,-85.4441 117.658,-76.0972 107.88,-67.152"/>
<polygon fill="#9a32cd" stroke="#9a32cd" points="61.5977,-77.7339 62.1199,-67.152 55.1127,-75.0987 61.5977,-77.7339"/>
<text text-anchor="middle" x="85" y="-89.4441" font-family="FreeSans" font-size="10.00"> EMPTY</text>
</g>
<!-- Node17 -->
<g id="node40" class="node"><title>Node17</title>
<a xlink:href="a00089.html" target="_top" xlink:title="Connection to a remote network host.">
<polygon fill="none" stroke="red" points="333.5,-262.944 333.5,-283.944 446.5,-283.944 446.5,-262.944 333.5,-262.944"/>
<text text-anchor="middle" x="390" y="-270.944" font-family="FreeSans" font-size="10.00">Urho3D::Connection</text>
</a>
</g>
<!-- Node8&#45;&gt;Node17 -->
<g id="edge54" class="edge"><title>Node8&#45;&gt;Node17</title>
<path fill="none" stroke="#9a32cd" stroke-dasharray="5,2" d="M98.4454,-75.4952C127.818,-115.542 202.012,-208.458 288,-253.444 301.831,-260.68 317.961,-265.309 333.256,-268.268"/>
<polygon fill="#9a32cd" stroke="#9a32cd" points="101.107,-73.2023 92.413,-67.1468 95.433,-77.3021 101.107,-73.2023"/>
<text text-anchor="middle" x="229" y="-246.444" font-family="FreeSans" font-size="10.00"> sceneFileName_</text>
</g>
<!-- Node9 -->
<g id="node19" class="node"><title>Node9</title>
<a xlink:href="a00225.html" target="_top" xlink:title="Rotation represented as a four&#45;dimensional normalized vector.">
<polygon fill="none" stroke="black" points="333.5,-191.944 333.5,-212.944 446.5,-212.944 446.5,-191.944 333.5,-191.944"/>
<text text-anchor="middle" x="390" y="-199.944" font-family="FreeSans" font-size="10.00">Urho3D::Quaternion</text>
</a>
</g>
<!-- Node9&#45;&gt;Node5 -->
<g id="edge22" class="edge"><title>Node9&#45;&gt;Node5</title>
<path fill="none" stroke="#9a32cd" stroke-dasharray="5,2" d="M456.679,-202.49C503.425,-205.759 564.996,-216.935 608,-250.444 645.359,-279.554 661.576,-337.643 666.883,-361.663"/>
<polygon fill="#9a32cd" stroke="#9a32cd" points="456.832,-198.993 446.641,-201.892 456.416,-205.981 456.832,-198.993"/>
<text text-anchor="middle" x="559" y="-267.444" font-family="FreeSans" font-size="10.00"> worldRotation_</text>
<text text-anchor="middle" x="559" y="-254.444" font-family="FreeSans" font-size="10.00">rotation_</text>
</g>
<!-- Node9&#45;&gt;Node9 -->
<g id="edge24" class="edge"><title>Node9&#45;&gt;Node9</title>
<path fill="none" stroke="#9a32cd" stroke-dasharray="5,2" d="M360.357,-222.499C362.302,-227.608 372.183,-231.444 390,-231.444 417.812,-231.444 426.287,-222.097 415.422,-213.152"/>
<polygon fill="#9a32cd" stroke="#9a32cd" points="363.652,-223.706 364.578,-213.152 357.273,-220.826 363.652,-223.706"/>
<text text-anchor="middle" x="390" y="-235.444" font-family="FreeSans" font-size="10.00"> IDENTITY</text>
</g>
<!-- Node10 -->
<g id="node22" class="node"><title>Node10</title>
<a xlink:href="a00312.html" target="_top" xlink:title="Urho3D::Vector\&lt; Urho3D\l::WeakPtr\&lt; Urho3D::Component \&gt; \&gt;">
<polygon fill="none" stroke="red" points="293,-139.444 293,-173.444 487,-173.444 487,-139.444 293,-139.444"/>
<text text-anchor="start" x="301" y="-160.444" font-family="FreeSans" font-size="10.00">Urho3D::Vector&lt; Urho3D</text>
<text text-anchor="middle" x="390" y="-147.444" font-family="FreeSans" font-size="10.00">::WeakPtr&lt; Urho3D::Component &gt; &gt;</text>
</a>
</g>
<!-- Node10&#45;&gt;Node5 -->
<g id="edge26" class="edge"><title>Node10&#45;&gt;Node5</title>
<path fill="none" stroke="#9a32cd" stroke-dasharray="5,2" d="M497.459,-153.322C536.151,-157.426 577.691,-168.57 608,-194.444 634.585,-217.138 659.349,-326.275 666.76,-361.475"/>
<polygon fill="#9a32cd" stroke="#9a32cd" points="497.441,-149.805 487.165,-152.384 496.807,-156.777 497.441,-149.805"/>
<text text-anchor="middle" x="559" y="-198.444" font-family="FreeSans" font-size="10.00"> listeners_</text>
</g>
<!-- Node11 -->
<g id="node24" class="node"><title>Node11</title>
<a xlink:href="a00317.html" target="_top" xlink:title="Dynamically sized buffer that can be read and written to as a stream.">
<polygon fill="none" stroke="red" points="25.5,-311.944 25.5,-332.944 144.5,-332.944 144.5,-311.944 25.5,-311.944"/>
<text text-anchor="middle" x="85" y="-319.944" font-family="FreeSans" font-size="10.00">Urho3D::VectorBuffer</text>
</a>
</g>
<!-- Node11&#45;&gt;Node5 -->
<g id="edge28" class="edge"><title>Node11&#45;&gt;Node5</title>
<path fill="none" stroke="#9a32cd" stroke-dasharray="5,2" d="M118.074,-336.923C137.934,-344.874 163.938,-353.999 188,-358.444 347.581,-387.923 541.926,-380.726 626.398,-375.539"/>
<polygon fill="#9a32cd" stroke="#9a32cd" points="119.153,-333.583 108.573,-333.022 116.494,-340.058 119.153,-333.583"/>
<text text-anchor="middle" x="390" y="-383.444" font-family="FreeSans" font-size="10.00"> attrBuffer_</text>
</g>
<!-- Node11&#45;&gt;Node17 -->
<g id="edge50" class="edge"><title>Node11&#45;&gt;Node17</title>
<path fill="none" stroke="#9a32cd" stroke-dasharray="5,2" d="M110.131,-306.579C130.305,-294.831 159.819,-279.806 188,-273.444 236.063,-262.594 292.214,-263.654 333.099,-266.818"/>
<polygon fill="#9a32cd" stroke="#9a32cd" points="108.077,-303.729 101.291,-311.866 111.67,-309.737 108.077,-303.729"/>
<text text-anchor="middle" x="229" y="-277.444" font-family="FreeSans" font-size="10.00"> msg_</text>
</g>
<!-- Node12 -->
<g id="node26" class="node"><title>Node12</title>
<a xlink:href="a00312.html" target="_top" xlink:title="Urho3D::Vector\&lt; Urho3D\l::SharedPtr\&lt; Urho3D::Component \&gt; \&gt;">
<polygon fill="none" stroke="red" points="288.5,-87.4441 288.5,-121.444 491.5,-121.444 491.5,-87.4441 288.5,-87.4441"/>
<text text-anchor="start" x="296.5" y="-108.444" font-family="FreeSans" font-size="10.00">Urho3D::Vector&lt; Urho3D</text>
<text text-anchor="middle" x="390" y="-95.4441" font-family="FreeSans" font-size="10.00">::SharedPtr&lt; Urho3D::Component &gt; &gt;</text>
</a>
</g>
<!-- Node12&#45;&gt;Node5 -->
<g id="edge30" class="edge"><title>Node12&#45;&gt;Node5</title>
<path fill="none" stroke="#9a32cd" stroke-dasharray="5,2" d="M501.705,-98.2298C539.522,-101.781 579.379,-112.558 608,-138.444 642.251,-169.421 662.683,-319.971 667.752,-361.701"/>
<polygon fill="#9a32cd" stroke="#9a32cd" points="501.867,-94.7319 491.626,-97.4452 501.324,-101.711 501.867,-94.7319"/>
<text text-anchor="middle" x="559" y="-142.444" font-family="FreeSans" font-size="10.00"> components_</text>
</g>
<!-- Node13 -->
<g id="node28" class="node"><title>Node13</title>
<a xlink:href="a00314.html" target="_top" xlink:title="Three&#45;dimensional vector.">
<polygon fill="none" stroke="black" points="37,-676.944 37,-697.944 133,-697.944 133,-676.944 37,-676.944"/>
<text text-anchor="middle" x="85" y="-684.944" font-family="FreeSans" font-size="10.00">Urho3D::Vector3</text>
</a>
</g>
<!-- Node13&#45;&gt;Node1 -->
<g id="edge92" class="edge"><title>Node13&#45;&gt;Node1</title>
<path fill="none" stroke="#9a32cd" stroke-dasharray="5,2" d="M110.083,-703.409C160.827,-734.125 280.192,-798.444 390,-798.444 390,-798.444 390,-798.444 1582,-798.444 1643.02,-798.444 1712.52,-782.273 1753.46,-771.029"/>
<polygon fill="#9a32cd" stroke="#9a32cd" points="111.777,-700.341 101.425,-698.087 108.112,-706.305 111.777,-700.341"/>
<text text-anchor="middle" x="948" y="-815.444" font-family="FreeSans" font-size="10.00"> normal_</text>
<text text-anchor="middle" x="948" y="-802.444" font-family="FreeSans" font-size="10.00">position_</text>
</g>
<!-- Node13&#45;&gt;Node5 -->
<g id="edge32" class="edge"><title>Node13&#45;&gt;Node5</title>
<path fill="none" stroke="#9a32cd" stroke-dasharray="5,2" d="M116.829,-672.558C156.372,-654.429 226.186,-623.613 288,-602.444 428.843,-554.211 498.947,-604.788 608,-503.444 644.939,-469.117 661.477,-407.936 666.878,-383.233"/>
<polygon fill="#9a32cd" stroke="#9a32cd" points="115.068,-669.516 107.451,-676.88 117.998,-675.873 115.068,-669.516"/>
<text text-anchor="middle" x="390" y="-619.444" font-family="FreeSans" font-size="10.00"> scale_</text>
<text text-anchor="middle" x="390" y="-606.444" font-family="FreeSans" font-size="10.00">position_</text>
</g>
<!-- Node13&#45;&gt;Node13 -->
<g id="edge34" class="edge"><title>Node13&#45;&gt;Node13</title>
<path fill="none" stroke="#9a32cd" stroke-dasharray="5,2" d="M58.3216,-707.499C60.0715,-712.608 68.9644,-716.444 85,-716.444 110.031,-716.444 117.658,-707.097 107.88,-698.152"/>
<polygon fill="#9a32cd" stroke="#9a32cd" points="61.5977,-708.734 62.1199,-698.152 55.1127,-706.099 61.5977,-708.734"/>
<text text-anchor="middle" x="85" y="-811.444" font-family="FreeSans" font-size="10.00"> ONE</text>
<text text-anchor="middle" x="85" y="-798.444" font-family="FreeSans" font-size="10.00">DOWN</text>
<text text-anchor="middle" x="85" y="-785.444" font-family="FreeSans" font-size="10.00">BACK</text>
<text text-anchor="middle" x="85" y="-772.444" font-family="FreeSans" font-size="10.00">RIGHT</text>
<text text-anchor="middle" x="85" y="-759.444" font-family="FreeSans" font-size="10.00">LEFT</text>
<text text-anchor="middle" x="85" y="-746.444" font-family="FreeSans" font-size="10.00">ZERO</text>
<text text-anchor="middle" x="85" y="-733.444" font-family="FreeSans" font-size="10.00">FORWARD</text>
<text text-anchor="middle" x="85" y="-720.444" font-family="FreeSans" font-size="10.00">UP</text>
</g>
<!-- Node13&#45;&gt;Node17 -->
<g id="edge52" class="edge"><title>Node13&#45;&gt;Node17</title>
<path fill="none" stroke="#9a32cd" stroke-dasharray="5,2" d="M95.0873,-667.287C134.92,-587.764 279.518,-299.817 288,-293.444 300.985,-283.689 317.446,-278.321 333.335,-275.461"/>
<polygon fill="#9a32cd" stroke="#9a32cd" points="91.7251,-666.184 90.3774,-676.693 97.9843,-669.319 91.7251,-666.184"/>
<text text-anchor="middle" x="229" y="-485.444" font-family="FreeSans" font-size="10.00"> position_</text>
</g>
<!-- Node19 -->
<g id="node49" class="node"><title>Node19</title>
<a xlink:href="a00075.html" target="_top" xlink:title="Three&#45;dimensional axis&#45;aligned bounding box.">
<polygon fill="none" stroke="black" points="988,-661.944 988,-682.944 1110,-682.944 1110,-661.944 988,-661.944"/>
<text text-anchor="middle" x="1049" y="-669.944" font-family="FreeSans" font-size="10.00">Urho3D::BoundingBox</text>
</a>
</g>
<!-- Node13&#45;&gt;Node19 -->
<g id="edge64" class="edge"><title>Node13&#45;&gt;Node19</title>
<path fill="none" stroke="#9a32cd" stroke-dasharray="5,2" d="M143.333,-687.444C204.718,-687.444 304.155,-687.444 390,-687.444 390,-687.444 390,-687.444 850,-687.444 896.253,-687.444 948.383,-683.365 987.682,-679.461"/>
<polygon fill="#9a32cd" stroke="#9a32cd" points="143.071,-683.944 133.071,-687.444 143.071,-690.944 143.071,-683.944"/>
<text text-anchor="middle" x="669" y="-704.444" font-family="FreeSans" font-size="10.00"> max_</text>
<text text-anchor="middle" x="669" y="-691.444" font-family="FreeSans" font-size="10.00">min_</text>
</g>
<!-- Node25 -->
<g id="node66" class="node"><title>Node25</title>
<a xlink:href="a00204.html" target="_top" xlink:title="Octree octant">
<polygon fill="none" stroke="red" points="1263,-666.944 1263,-687.944 1355,-687.944 1355,-666.944 1263,-666.944"/>
<text text-anchor="middle" x="1309" y="-674.944" font-family="FreeSans" font-size="10.00">Urho3D::Octant</text>
</a>
</g>
<!-- Node13&#45;&gt;Node25 -->
<g id="edge86" class="edge"><title>Node13&#45;&gt;Node25</title>
<path fill="none" stroke="#9a32cd" stroke-dasharray="5,2" d="M143.038,-696.352C157.68,-698.318 173.391,-700.188 188,-701.444 645.868,-740.828 768.869,-782.037 1222,-705.444 1242.96,-701.9 1265.82,-694.395 1282.84,-688.046"/>
<polygon fill="#9a32cd" stroke="#9a32cd" points="143.483,-692.88 133.099,-694.981 142.527,-699.815 143.483,-692.88"/>
<text text-anchor="middle" x="752" y="-765.444" font-family="FreeSans" font-size="10.00"> center_</text>
<text text-anchor="middle" x="752" y="-752.444" font-family="FreeSans" font-size="10.00">halfSize_</text>
</g>
<!-- Node14 -->
<g id="node33" class="node"><title>Node14</title>
<a xlink:href="a00289.html" target="_top" xlink:title="32&#45;bit hash value for a string.">
<polygon fill="none" stroke="black" points="333.5,-455.944 333.5,-476.944 446.5,-476.944 446.5,-455.944 333.5,-455.944"/>
<text text-anchor="middle" x="390" y="-463.944" font-family="FreeSans" font-size="10.00">Urho3D::StringHash</text>
</a>
</g>
<!-- Node14&#45;&gt;Node5 -->
<g id="edge40" class="edge"><title>Node14&#45;&gt;Node5</title>
<path fill="none" stroke="#9a32cd" stroke-dasharray="5,2" d="M457.061,-460.061C501.542,-453.916 560.287,-442.058 608,-419.444 627.571,-410.168 646.8,-393.811 658.283,-383.049"/>
<polygon fill="#9a32cd" stroke="#9a32cd" points="456.394,-456.618 446.938,-461.395 457.309,-463.558 456.394,-456.618"/>
<text text-anchor="middle" x="559" y="-453.444" font-family="FreeSans" font-size="10.00"> nameHash_</text>
</g>
<!-- Node14&#45;&gt;Node14 -->
<g id="edge42" class="edge"><title>Node14&#45;&gt;Node14</title>
<path fill="none" stroke="#9a32cd" stroke-dasharray="5,2" d="M360.357,-486.499C362.302,-491.608 372.183,-495.444 390,-495.444 417.812,-495.444 426.287,-486.097 415.422,-477.152"/>
<polygon fill="#9a32cd" stroke="#9a32cd" points="363.652,-487.706 364.578,-477.152 357.273,-484.826 363.652,-487.706"/>
<text text-anchor="middle" x="390" y="-499.444" font-family="FreeSans" font-size="10.00"> ZERO</text>
</g>
<!-- Node15 -->
<g id="node36" class="node"><title>Node15</title>
<a xlink:href="a00312.html" target="_top" xlink:title="Urho3D::Vector\&lt; Urho3D\l::SharedPtr\&lt; Urho3D::Node \&gt; \&gt;">
<polygon fill="none" stroke="red" points="303.5,-403.444 303.5,-437.444 476.5,-437.444 476.5,-403.444 303.5,-403.444"/>
<text text-anchor="start" x="311.5" y="-424.444" font-family="FreeSans" font-size="10.00">Urho3D::Vector&lt; Urho3D</text>
<text text-anchor="middle" x="390" y="-411.444" font-family="FreeSans" font-size="10.00">::SharedPtr&lt; Urho3D::Node &gt; &gt;</text>
</a>
</g>
<!-- Node15&#45;&gt;Node5 -->
<g id="edge44" class="edge"><title>Node15&#45;&gt;Node5</title>
<path fill="none" stroke="#9a32cd" stroke-dasharray="5,2" d="M486.724,-406.864C524.645,-401.147 568.465,-394.054 608,-386.444 613.975,-385.294 620.255,-383.977 626.42,-382.622"/>
<polygon fill="#9a32cd" stroke="#9a32cd" points="486.078,-403.421 476.706,-408.363 487.114,-410.344 486.078,-403.421"/>
<text text-anchor="middle" x="559" y="-406.444" font-family="FreeSans" font-size="10.00"> children_</text>
</g>
<!-- Node16 -->
<g id="node38" class="node"><title>Node16</title>
<a xlink:href="a00141.html" target="_top" xlink:title="Urho3D::HashMap\&lt; ShortString\lHash, Variant \&gt;">
<polygon fill="none" stroke="red" points="0,-414.444 0,-448.444 170,-448.444 170,-414.444 0,-414.444"/>
<text text-anchor="start" x="8" y="-435.444" font-family="FreeSans" font-size="10.00">Urho3D::HashMap&lt; ShortString</text>
<text text-anchor="middle" x="85" y="-422.444" font-family="FreeSans" font-size="10.00">Hash, Variant &gt;</text>
</a>
</g>
<!-- Node16&#45;&gt;Node5 -->
<g id="edge46" class="edge"><title>Node16&#45;&gt;Node5</title>
<path fill="none" stroke="#9a32cd" stroke-dasharray="5,2" d="M123.541,-453.315C163.291,-474.519 227.798,-505.218 288,-517.444 376.853,-535.489 403.271,-536.088 492,-517.444 547.115,-505.863 565.096,-502.927 608,-466.444 636.159,-442.499 656.121,-402.318 664.542,-383.192"/>
<polygon fill="#9a32cd" stroke="#9a32cd" points="125.178,-450.222 114.716,-448.547 121.85,-456.38 125.178,-450.222"/>
<text text-anchor="middle" x="390" y="-534.444" font-family="FreeSans" font-size="10.00"> vars_</text>
</g>
<!-- Node16&#45;&gt;Node17 -->
<g id="edge56" class="edge"><title>Node16&#45;&gt;Node17</title>
<path fill="none" stroke="#9a32cd" stroke-dasharray="5,2" d="M111.347,-407.417C129.182,-390.343 152.576,-366.297 170,-342.444 179.854,-328.953 174.441,-319.204 188,-309.444 199.727,-301.003 277.73,-288.801 333.289,-280.996"/>
<polygon fill="#9a32cd" stroke="#9a32cd" points="108.942,-404.875 104.078,-414.287 113.75,-409.962 108.942,-404.875"/>
<text text-anchor="middle" x="229" y="-313.444" font-family="FreeSans" font-size="10.00"> identity_</text>
</g>
<!-- Node17&#45;&gt;Node5 -->
<g id="edge48" class="edge"><title>Node17&#45;&gt;Node5</title>
<path fill="none" stroke="#9a32cd" stroke-dasharray="5,2" d="M456.997,-274.208C501.953,-277.194 561.267,-286.066 608,-310.444 631.563,-322.736 651.559,-347.431 661.755,-361.665"/>
<polygon fill="#9a32cd" stroke="#9a32cd" points="456.952,-270.7 446.765,-273.613 456.545,-277.688 456.952,-270.7"/>
<text text-anchor="middle" x="559" y="-314.444" font-family="FreeSans" font-size="10.00"> owner_</text>
</g>
<!-- Node18&#45;&gt;Node2 -->
<g id="edge58" class="edge"><title>Node18&#45;&gt;Node2</title>
<path fill="none" stroke="#9a32cd" stroke-dasharray="5,2" d="M1736.3,-450.056C1710.09,-448.042 1678.45,-448.948 1652,-459.444 1624.1,-470.518 1600.66,-498.426 1589.32,-513.827"/>
<polygon fill="#9a32cd" stroke="#9a32cd" points="1736.14,-453.557 1746.42,-450.997 1736.79,-446.587 1736.14,-453.557"/>
<text text-anchor="middle" x="1678" y="-476.444" font-family="FreeSans" font-size="10.00"> lastZone_</text>
<text text-anchor="middle" x="1678" y="-463.444" font-family="FreeSans" font-size="10.00">zone_</text>
</g>
<!-- Node19&#45;&gt;Node2 -->
<g id="edge78" class="edge"><title>Node19&#45;&gt;Node2</title>
<path fill="none" stroke="#9a32cd" stroke-dasharray="5,2" d="M1105.04,-659.682C1143.03,-651.211 1194.43,-640.1 1240,-631.444 1360.38,-608.579 1401.37,-639.124 1512,-586.444 1537.8,-574.16 1561.21,-549.462 1573.32,-535.225"/>
<polygon fill="#9a32cd" stroke="#9a32cd" points="1104.18,-656.286 1095.19,-661.886 1105.71,-663.117 1104.18,-656.286"/>
<text text-anchor="middle" x="1309" y="-648.444" font-family="FreeSans" font-size="10.00"> worldBoundingBox_</text>
<text text-anchor="middle" x="1309" y="-635.444" font-family="FreeSans" font-size="10.00">boundingBox_</text>
</g>
<!-- Node19&#45;&gt;Node18 -->
<g id="edge62" class="edge"><title>Node19&#45;&gt;Node18</title>
<path fill="none" stroke="#9a32cd" stroke-dasharray="5,2" d="M1054.24,-652.03C1070.32,-594.134 1125.03,-428.915 1240,-364.444 1426.4,-259.92 1700.11,-405.917 1771.47,-447.792"/>
<polygon fill="#9a32cd" stroke="#9a32cd" points="1050.82,-651.265 1051.6,-661.831 1057.58,-653.082 1050.82,-651.265"/>
<text text-anchor="middle" x="1454" y="-344.444" font-family="FreeSans" font-size="10.00"> lastWorldBoundingBox_</text>
</g>
<!-- Node19&#45;&gt;Node25 -->
<g id="edge88" class="edge"><title>Node19&#45;&gt;Node25</title>
<path fill="none" stroke="#9a32cd" stroke-dasharray="5,2" d="M1120.37,-673.817C1165.77,-674.69 1223.25,-675.795 1262.76,-676.555"/>
<polygon fill="#9a32cd" stroke="#9a32cd" points="1120.35,-670.316 1110.29,-673.623 1120.22,-677.314 1120.35,-670.316"/>
<text text-anchor="middle" x="1175" y="-692.444" font-family="FreeSans" font-size="10.00"> cullingBox_</text>
<text text-anchor="middle" x="1175" y="-679.444" font-family="FreeSans" font-size="10.00">worldBoundingBox_</text>
</g>
<!-- Node20 -->
<g id="node52" class="node"><title>Node20</title>
<a xlink:href="a00220.html" target="_top" xlink:title="Urho3D::PODVector\&lt;\l Urho3D::Light * \&gt;">
<polygon fill="none" stroke="red" points="1249.5,-552.444 1249.5,-586.444 1368.5,-586.444 1368.5,-552.444 1249.5,-552.444"/>
<text text-anchor="start" x="1257.5" y="-573.444" font-family="FreeSans" font-size="10.00">Urho3D::PODVector&lt;</text>
<text text-anchor="middle" x="1309" y="-560.444" font-family="FreeSans" font-size="10.00"> Urho3D::Light * &gt;</text>
</a>
</g>
<!-- Node20&#45;&gt;Node2 -->
<g id="edge66" class="edge"><title>Node20&#45;&gt;Node2</title>
<path fill="none" stroke="#9a32cd" stroke-dasharray="5,2" d="M1378.63,-559.617C1417.87,-553.877 1467.75,-546.243 1512,-538.444 1518.1,-537.368 1524.49,-536.179 1530.82,-534.961"/>
<polygon fill="#9a32cd" stroke="#9a32cd" points="1378.02,-556.168 1368.63,-561.072 1379.03,-563.095 1378.02,-556.168"/>
<text text-anchor="middle" x="1454" y="-573.444" font-family="FreeSans" font-size="10.00"> vertexLights_</text>
<text text-anchor="middle" x="1454" y="-560.444" font-family="FreeSans" font-size="10.00">lights_</text>
</g>
<!-- Node21&#45;&gt;Node2 -->
<g id="edge68" class="edge"><title>Node21&#45;&gt;Node2</title>
<path fill="none" stroke="#9a32cd" stroke-dasharray="5,2" d="M1108.4,-483.546C1196.84,-484.455 1368.15,-489.137 1512,-510.444 1518.62,-511.425 1525.56,-512.615 1532.4,-513.882"/>
<polygon fill="#9a32cd" stroke="#9a32cd" points="1108.32,-480.045 1098.29,-483.455 1108.26,-487.045 1108.32,-480.045"/>
<text text-anchor="middle" x="1309" y="-498.444" font-family="FreeSans" font-size="10.00"> viewCamera_</text>
</g>
<!-- Node24 -->
<g id="node63" class="node"><title>Node24</title>
<a xlink:href="a00131.html" target="_top" xlink:title="Rendering frame update parameters.">
<polygon fill="none" stroke="red" points="1255.5,-373.944 1255.5,-394.944 1362.5,-394.944 1362.5,-373.944 1255.5,-373.944"/>
<text text-anchor="middle" x="1309" y="-381.944" font-family="FreeSans" font-size="10.00">Urho3D::FrameInfo</text>
</a>
</g>
<!-- Node21&#45;&gt;Node24 -->
<g id="edge82" class="edge"><title>Node21&#45;&gt;Node24</title>
<path fill="none" stroke="#9a32cd" stroke-dasharray="5,2" d="M1081.65,-468.647C1119.34,-451.87 1183.42,-424.276 1240,-404.444 1249.53,-401.102 1259.94,-397.873 1269.72,-395.019"/>
<polygon fill="#9a32cd" stroke="#9a32cd" points="1079.9,-465.595 1072.2,-472.873 1082.76,-471.985 1079.9,-465.595"/>
<text text-anchor="middle" x="1175" y="-450.444" font-family="FreeSans" font-size="10.00"> camera_</text>
</g>
<!-- Node22 -->
<g id="node57" class="node"><title>Node22</title>
<a xlink:href="a00312.html" target="_top" xlink:title="Urho3D::Vector\&lt; Urho3D\l::SourceBatch \&gt;">
<polygon fill="none" stroke="red" points="1240,-413.444 1240,-447.444 1378,-447.444 1378,-413.444 1240,-413.444"/>
<text text-anchor="start" x="1248" y="-434.444" font-family="FreeSans" font-size="10.00">Urho3D::Vector&lt; Urho3D</text>
<text text-anchor="middle" x="1309" y="-421.444" font-family="FreeSans" font-size="10.00">::SourceBatch &gt;</text>
</a>
</g>
<!-- Node22&#45;&gt;Node2 -->
<g id="edge72" class="edge"><title>Node22&#45;&gt;Node2</title>
<path fill="none" stroke="#9a32cd" stroke-dasharray="5,2" d="M1388.58,-429.046C1427.47,-431.191 1473.95,-438.104 1512,-456.444 1539.63,-469.759 1563.18,-498.239 1574.61,-513.783"/>
<polygon fill="#9a32cd" stroke="#9a32cd" points="1388.5,-425.539 1378.35,-428.581 1388.18,-432.532 1388.5,-425.539"/>
<text text-anchor="middle" x="1454" y="-460.444" font-family="FreeSans" font-size="10.00"> batches_</text>
</g>
<!-- Node23&#45;&gt;Node2 -->
<g id="edge74" class="edge"><title>Node23&#45;&gt;Node2</title>
<path fill="none" stroke="#9a32cd" stroke-dasharray="5,2" d="M1737,-540.006C1711.36,-539.419 1680.01,-538.146 1652,-535.444 1646.24,-534.889 1640.24,-534.167 1634.28,-533.358"/>
<polygon fill="#9a32cd" stroke="#9a32cd" points="1737.18,-543.51 1747.25,-540.212 1737.32,-536.512 1737.18,-543.51"/>
<text text-anchor="middle" x="1678" y="-542.444" font-family="FreeSans" font-size="10.00"> firstLight_</text>
</g>
<!-- Node24&#45;&gt;Node2 -->
<g id="edge80" class="edge"><title>Node24&#45;&gt;Node2</title>
<path fill="none" stroke="#9a32cd" stroke-dasharray="5,2" d="M1373.12,-379.797C1415.67,-379.779 1471.03,-385.916 1512,-412.444 1550.11,-437.121 1571.14,-490.625 1578.72,-513.602"/>
<polygon fill="#9a32cd" stroke="#9a32cd" points="1372.82,-376.3 1362.87,-379.919 1372.91,-383.3 1372.82,-376.3"/>
<text text-anchor="middle" x="1454" y="-416.444" font-family="FreeSans" font-size="10.00"> viewFrame_</text>
</g>
<!-- Node25&#45;&gt;Node2 -->
<g id="edge84" class="edge"><title>Node25&#45;&gt;Node2</title>
<path fill="none" stroke="#9a32cd" stroke-dasharray="5,2" d="M1365.5,-677.786C1409.04,-675.441 1468.9,-666.294 1512,-636.444 1549.32,-610.594 1570.79,-557.732 1578.6,-535.105"/>
<polygon fill="#9a32cd" stroke="#9a32cd" points="1365.2,-674.296 1355.36,-678.226 1365.5,-681.289 1365.2,-674.296"/>
<text text-anchor="middle" x="1454" y="-678.444" font-family="FreeSans" font-size="10.00"> octant_</text>
</g>
<!-- Node25&#45;&gt;Node25 -->
<g id="edge90" class="edge"><title>Node25&#45;&gt;Node25</title>
<path fill="none" stroke="#9a32cd" stroke-dasharray="5,2" d="M1284.31,-697.871C1286.21,-702.793 1294.44,-706.444 1309,-706.444 1332.29,-706.444 1339.39,-697.097 1330.29,-688.152"/>
<polygon fill="#9a32cd" stroke="#9a32cd" points="1287.71,-698.747 1287.71,-688.152 1281.1,-696.433 1287.71,-698.747"/>
<text text-anchor="middle" x="1309" y="-723.444" font-family="FreeSans" font-size="10.00"> parent_</text>
<text text-anchor="middle" x="1309" y="-710.444" font-family="FreeSans" font-size="10.00">children_</text>
</g>
</g>
</svg>
