<?xml version="1.0" encoding="UTF-8" standalone="no"?>
<!DOCTYPE svg PUBLIC "-//W3C//DTD SVG 1.1//EN"
 "http://www.w3.org/Graphics/SVG/1.1/DTD/svg11.dtd">
<!-- Generated by graphviz version 2.26.3 (20100126.1600)
 -->
<!-- Title: Urho3D::Variant Pages: 1 -->
<!--zoomable 342 -->
<svg id="main" version="1.1" xmlns="http://www.w3.org/2000/svg" xmlns:xlink="http://www.w3.org/1999/xlink" xml:space="preserve" onload="init(evt)">
        <defs>
                <circle id="rim" cx="0" cy="0" r="7"/>
                <circle id="rim2" cx="0" cy="0" r="3.5"/>
                <g id="zoomPlus">
                        <use xlink:href="#rim" fill="#404040">
                                <set attributeName="fill" to="#808080" begin="zoomplus.mouseover" end="zoomplus.mouseout"/>
                        </use>
                        <path d="M-4,0h8M0,-4v8" fill="none" stroke="white" stroke-width="1.5" pointer-events="none"/>
                </g>
                <g id="zoomMin">
                        <use xlink:href="#rim" fill="#404040">
                                <set attributeName="fill" to="#808080" begin="zoomminus.mouseover" end="zoomminus.mouseout"/>
                        </use>
                        <path d="M-4,0h8" fill="none" stroke="white" stroke-width="1.5" pointer-events="none"/>
                </g>
                <g id="dirArrow">
                        <path fill="none" stroke="white" stroke-width="1.5" d="M0,-3.0v7 M-2.5,-0.5L0,-3.0L2.5,-0.5"/>
                </g>
               <g id="resetDef">
                       <use xlink:href="#rim2" fill="#404040">
                               <set attributeName="fill" to="#808080" begin="reset.mouseover" end="reset.mouseout"/>
                       </use>
               </g>
        </defs>

<script type="text/javascript">
var viewWidth = 1100;
var viewHeight = 342;
var sectionId = 'dynsection-0';
</script>
<script xlink:href="svgpan.js"/>
<svg id="graph" class="graph">
<g id="viewport">
<title>Urho3D::Variant</title>
<!-- Node1 -->
<g id="node1" class="node"><title>Node1</title>
<polygon fill="#bfbfbf" stroke="black" points="998.5,-174.5 998.5,-195.5 1091.5,-195.5 1091.5,-174.5 998.5,-174.5"/>
<text text-anchor="middle" x="1045" y="-182.5" font-family="FreeSans" font-size="10.00">Urho3D::Variant</text>
</g>
<!-- Node1&#45;&gt;Node1 -->
<g id="edge10" class="edge"><title>Node1&#45;&gt;Node1</title>
<path fill="none" stroke="#9a32cd" stroke-dasharray="5,2" d="M1022.89,-205.427C1024.59,-210.349 1031.96,-214 1045,-214 1065.86,-214 1072.21,-204.653 1064.07,-195.708"/>
<polygon fill="#9a32cd" stroke="#9a32cd" points="1026.28,-206.297 1025.93,-195.708 1019.6,-204.202 1026.28,-206.297"/>
<text text-anchor="middle" x="1045" y="-218" font-family="FreeSans" font-size="10.00"> EMPTY</text>
</g>
<!-- Node2 -->
<g id="node2" class="node"><title>Node2</title>
<a xlink:href="a00387.html" target="_top" xlink:title="Vector template class.">
<polygon fill="none" stroke="black" points="569,-312.5 569,-333.5 687,-333.5 687,-312.5 569,-312.5"/>
<text text-anchor="middle" x="628" y="-320.5" font-family="FreeSans" font-size="10.00">Urho3D::Vector&lt; T &gt;</text>
</a>
</g>
<!-- Node2&#45;&gt;Node1 -->
<g id="edge2" class="edge"><title>Node2&#45;&gt;Node1</title>
<path fill="none" stroke="#9a32cd" stroke-dasharray="5,2" d="M697.369,-319.679C771.875,-313.395 891.476,-295.262 980,-243 1002.14,-229.929 1023.54,-208.641 1035.42,-195.813"/>
<polygon fill="#9a32cd" stroke="#9a32cd" points="696.855,-316.208 687.163,-320.489 697.409,-323.186 696.855,-316.208"/>
<text text-anchor="middle" x="779" y="-322" font-family="FreeSans" font-size="10.00"> emptyVariantVector</text>
</g>
<!-- Node3 -->
<g id="node4" class="node"><title>Node3</title>
<a xlink:href="a00391.html" target="_top" xlink:title="Vector base class.">
<polygon fill="none" stroke="black" points="202,-277.5 202,-298.5 316,-298.5 316,-277.5 202,-277.5"/>
<text text-anchor="middle" x="259" y="-285.5" font-family="FreeSans" font-size="10.00">Urho3D::VectorBase</text>
</a>
</g>
<!-- Node3&#45;&gt;Node2 -->
<g id="edge4" class="edge"><title>Node3&#45;&gt;Node2</title>
<path fill="none" stroke="midnightblue" d="M326.209,-296.978C332.221,-297.696 338.218,-298.382 344,-299 421.614,-307.297 511.415,-314.482 568.911,-318.775"/>
<polygon fill="midnightblue" stroke="midnightblue" points="326.462,-293.483 316.112,-295.744 325.613,-300.431 326.462,-293.483"/>
</g>
<!-- Node4 -->
<g id="node6" class="node"><title>Node4</title>
<a xlink:href="a00276.html" target="_top" xlink:title="Urho3D::PODVector\&lt;\l unsigned char \&gt;">
<polygon fill="none" stroke="black" points="568.5,-264 568.5,-298 687.5,-298 687.5,-264 568.5,-264"/>
<text text-anchor="start" x="576.5" y="-285" font-family="FreeSans" font-size="10.00">Urho3D::PODVector&lt;</text>
<text text-anchor="middle" x="628" y="-272" font-family="FreeSans" font-size="10.00"> unsigned char &gt;</text>
</a>
</g>
<!-- Node3&#45;&gt;Node4 -->
<g id="edge8" class="edge"><title>Node3&#45;&gt;Node4</title>
<path fill="none" stroke="midnightblue" d="M326.605,-286.718C395.819,-285.405 502.351,-283.384 568.472,-282.129"/>
<polygon fill="midnightblue" stroke="midnightblue" points="326.183,-283.225 316.251,-286.914 326.316,-290.224 326.183,-283.225"/>
</g>
<!-- Node9 -->
<g id="node20" class="node"><title>Node9</title>
<a xlink:href="a00387.html" target="_top" xlink:title="Urho3D::Vector\&lt; Urho3D\l::String \&gt;">
<polygon fill="none" stroke="black" points="412,-226 412,-260 550,-260 550,-226 412,-226"/>
<text text-anchor="start" x="420" y="-247" font-family="FreeSans" font-size="10.00">Urho3D::Vector&lt; Urho3D</text>
<text text-anchor="middle" x="481" y="-234" font-family="FreeSans" font-size="10.00">::String &gt;</text>
</a>
</g>
<!-- Node3&#45;&gt;Node9 -->
<g id="edge26" class="edge"><title>Node3&#45;&gt;Node9</title>
<path fill="none" stroke="midnightblue" d="M321.162,-275.4C349.3,-269.696 382.669,-262.932 411.621,-257.063"/>
<polygon fill="midnightblue" stroke="midnightblue" points="320.154,-272.033 311.049,-277.449 321.545,-278.893 320.154,-272.033"/>
</g>
<!-- Node4&#45;&gt;Node1 -->
<g id="edge6" class="edge"><title>Node4&#45;&gt;Node1</title>
<path fill="none" stroke="#9a32cd" stroke-dasharray="5,2" d="M697.942,-273.064C769.885,-263.707 884.588,-245.445 980,-215 995.748,-209.975 1012.68,-202.074 1025.31,-195.641"/>
<polygon fill="#9a32cd" stroke="#9a32cd" points="697.121,-269.641 687.645,-274.381 698.008,-276.584 697.121,-269.641"/>
<text text-anchor="middle" x="779" y="-275" font-family="FreeSans" font-size="10.00"> emptyBuffer</text>
</g>
<!-- Node5 -->
<g id="node10" class="node"><title>Node5</title>
<a xlink:href="a00302.html" target="_top" xlink:title="Typed resource reference.">
<polygon fill="none" stroke="black" points="720.5,-155.5 720.5,-176.5 837.5,-176.5 837.5,-155.5 720.5,-155.5"/>
<text text-anchor="middle" x="779" y="-163.5" font-family="FreeSans" font-size="10.00">Urho3D::ResourceRef</text>
</a>
</g>
<!-- Node5&#45;&gt;Node1 -->
<g id="edge12" class="edge"><title>Node5&#45;&gt;Node1</title>
<path fill="none" stroke="#9a32cd" stroke-dasharray="5,2" d="M847.911,-163.191C886.84,-162.563 936.31,-163.371 980,-169 989.336,-170.203 999.272,-172.246 1008.49,-174.478"/>
<polygon fill="#9a32cd" stroke="#9a32cd" points="847.668,-159.695 837.739,-163.391 847.806,-166.694 847.668,-159.695"/>
<text text-anchor="middle" x="925" y="-173" font-family="FreeSans" font-size="10.00"> emptyResourceRef</text>
</g>
<!-- Node6 -->
<g id="node12" class="node"><title>Node6</title>
<a xlink:href="a00352.html" target="_top" xlink:title="String class.">
<polygon fill="none" stroke="black" points="437,-84.5 437,-105.5 525,-105.5 525,-84.5 437,-84.5"/>
<text text-anchor="middle" x="481" y="-92.5" font-family="FreeSans" font-size="10.00">Urho3D::String</text>
</a>
</g>
<!-- Node6&#45;&gt;Node5 -->
<g id="edge14" class="edge"><title>Node6&#45;&gt;Node5</title>
<path fill="none" stroke="#9a32cd" stroke-dasharray="5,2" d="M535.225,-107.919C592.36,-121.532 681.281,-142.718 734.465,-155.389"/>
<polygon fill="#9a32cd" stroke="#9a32cd" points="535.831,-104.466 525.292,-105.553 534.208,-111.275 535.831,-104.466"/>
<text text-anchor="middle" x="628" y="-147" font-family="FreeSans" font-size="10.00"> name_</text>
</g>
<!-- Node6&#45;&gt;Node6 -->
<g id="edge16" class="edge"><title>Node6&#45;&gt;Node6</title>
<path fill="none" stroke="#9a32cd" stroke-dasharray="5,2" d="M460.36,-115.427C461.952,-120.349 468.832,-124 481,-124 500.469,-124 506.401,-114.653 498.796,-105.708"/>
<polygon fill="#9a32cd" stroke="#9a32cd" points="463.754,-116.288 463.204,-105.708 457.036,-114.322 463.754,-116.288"/>
<text text-anchor="middle" x="481" y="-128" font-family="FreeSans" font-size="10.00"> EMPTY</text>
</g>
<!-- Node7 -->
<g id="node15" class="node"><title>Node7</title>
<a xlink:href="a00353.html" target="_top" xlink:title="32&#45;bit hash value for a string.">
<polygon fill="none" stroke="black" points="424.5,-155.5 424.5,-176.5 537.5,-176.5 537.5,-155.5 424.5,-155.5"/>
<text text-anchor="middle" x="481" y="-163.5" font-family="FreeSans" font-size="10.00">Urho3D::StringHash</text>
</a>
</g>
<!-- Node7&#45;&gt;Node5 -->
<g id="edge18" class="edge"><title>Node7&#45;&gt;Node5</title>
<path fill="none" stroke="#9a32cd" stroke-dasharray="5,2" d="M547.85,-166C599.682,-166 670.807,-166 720.422,-166"/>
<polygon fill="#9a32cd" stroke="#9a32cd" points="547.753,-162.5 537.753,-166 547.753,-169.5 547.753,-162.5"/>
<text text-anchor="middle" x="628" y="-170" font-family="FreeSans" font-size="10.00"> type_</text>
</g>
<!-- Node7&#45;&gt;Node7 -->
<g id="edge20" class="edge"><title>Node7&#45;&gt;Node7</title>
<path fill="none" stroke="#9a32cd" stroke-dasharray="5,2" d="M460.36,-186.427C461.952,-191.349 468.832,-195 481,-195 500.469,-195 506.401,-185.653 498.796,-176.708"/>
<polygon fill="#9a32cd" stroke="#9a32cd" points="463.754,-187.288 463.204,-176.708 457.036,-185.322 463.754,-187.288"/>
<text text-anchor="middle" x="481" y="-199" font-family="FreeSans" font-size="10.00"> ZERO</text>
</g>
<!-- Node8 -->
<g id="node18" class="node"><title>Node8</title>
<a xlink:href="a00303.html" target="_top" xlink:title="List of typed resource references.">
<polygon fill="none" stroke="black" points="712,-195.5 712,-216.5 846,-216.5 846,-195.5 712,-195.5"/>
<text text-anchor="middle" x="779" y="-203.5" font-family="FreeSans" font-size="10.00">Urho3D::ResourceRefList</text>
</a>
</g>
<!-- Node7&#45;&gt;Node8 -->
<g id="edge28" class="edge"><title>Node7&#45;&gt;Node8</title>
<path fill="none" stroke="#9a32cd" stroke-dasharray="5,2" d="M547.598,-177.852C554.48,-178.966 561.376,-180.037 568,-181 616.004,-187.977 670.365,-194.383 711.887,-198.963"/>
<polygon fill="#9a32cd" stroke="#9a32cd" points="547.994,-174.371 537.558,-176.197 546.855,-181.277 547.994,-174.371"/>
<text text-anchor="middle" x="628" y="-199" font-family="FreeSans" font-size="10.00"> type_</text>
</g>
<!-- Node8&#45;&gt;Node1 -->
<g id="edge22" class="edge"><title>Node8&#45;&gt;Node1</title>
<path fill="none" stroke="#9a32cd" stroke-dasharray="5,2" d="M856.365,-199.892C902.381,-196.259 959.236,-191.771 998.429,-188.677"/>
<polygon fill="#9a32cd" stroke="#9a32cd" points="855.817,-196.425 846.123,-200.701 856.368,-203.403 855.817,-196.425"/>
<text text-anchor="middle" x="925" y="-202" font-family="FreeSans" font-size="10.00"> emptyResourceRefList</text>
</g>
<!-- Node9&#45;&gt;Node8 -->
<g id="edge24" class="edge"><title>Node9&#45;&gt;Node8</title>
<path fill="none" stroke="#9a32cd" stroke-dasharray="5,2" d="M560.188,-234.316C598.776,-229.958 645.842,-224.454 688,-219 695.755,-217.997 703.876,-216.901 711.937,-215.785"/>
<polygon fill="#9a32cd" stroke="#9a32cd" points="559.602,-230.86 550.056,-235.456 560.385,-237.816 559.602,-230.86"/>
<text text-anchor="middle" x="628" y="-237" font-family="FreeSans" font-size="10.00"> names_</text>
</g>
<!-- Node10 -->
<g id="node24" class="node"><title>Node10</title>
<a xlink:href="a00182.html" target="_top" xlink:title="Hash map template class.">
<polygon fill="none" stroke="black" points="706,-115.5 706,-136.5 852,-136.5 852,-115.5 706,-115.5"/>
<text text-anchor="middle" x="779" y="-123.5" font-family="FreeSans" font-size="10.00">Urho3D::HashMap&lt; T, U &gt;</text>
</a>
</g>
<!-- Node10&#45;&gt;Node1 -->
<g id="edge30" class="edge"><title>Node10&#45;&gt;Node1</title>
<path fill="none" stroke="#9a32cd" stroke-dasharray="5,2" d="M862.432,-126.12C899.251,-128.24 942.572,-133.605 980,-146 999.239,-152.371 1018.85,-165.19 1031.43,-174.394"/>
<polygon fill="#9a32cd" stroke="#9a32cd" points="862.393,-122.614 852.229,-125.605 862.04,-129.605 862.393,-122.614"/>
<text text-anchor="middle" x="925" y="-150" font-family="FreeSans" font-size="10.00"> emptyVariantMap</text>
</g>
<!-- Node11 -->
<g id="node26" class="node"><title>Node11</title>
<a xlink:href="a00180.html" target="_top" xlink:title="Hash set/map base class.">
<polygon fill="none" stroke="black" points="427,-44.5 427,-65.5 535,-65.5 535,-44.5 427,-44.5"/>
<text text-anchor="middle" x="481" y="-52.5" font-family="FreeSans" font-size="10.00">Urho3D::HashBase</text>
</a>
</g>
<!-- Node11&#45;&gt;Node10 -->
<g id="edge32" class="edge"><title>Node11&#45;&gt;Node10</title>
<path fill="none" stroke="midnightblue" d="M535.225,-67.9193C592.36,-81.532 681.281,-102.718 734.465,-115.389"/>
<polygon fill="midnightblue" stroke="midnightblue" points="535.831,-64.4658 525.292,-65.5528 534.208,-71.2752 535.831,-64.4658"/>
</g>
<!-- Node12 -->
<g id="node28" class="node"><title>Node12</title>
<a xlink:href="a00183.html" target="_top" xlink:title="Hash set/map node base class.">
<polygon fill="none" stroke="black" points="192,-71.5 192,-92.5 326,-92.5 326,-71.5 192,-71.5"/>
<text text-anchor="middle" x="259" y="-79.5" font-family="FreeSans" font-size="10.00">Urho3D::HashNodeBase</text>
</a>
</g>
<!-- Node12&#45;&gt;Node11 -->
<g id="edge34" class="edge"><title>Node12&#45;&gt;Node11</title>
<path fill="none" stroke="#9a32cd" stroke-dasharray="5,2" d="M336.175,-72.6139C366.009,-68.9854 399.447,-64.9186 426.67,-61.6076"/>
<polygon fill="#9a32cd" stroke="#9a32cd" points="335.714,-69.144 326.21,-73.8258 336.559,-76.0928 335.714,-69.144"/>
<text text-anchor="middle" x="369" y="-101" font-family="FreeSans" font-size="10.00"> ptrs_</text>
<text text-anchor="middle" x="369" y="-88" font-family="FreeSans" font-size="10.00">tail_</text>
<text text-anchor="middle" x="369" y="-75" font-family="FreeSans" font-size="10.00">head_</text>
</g>
<!-- Node12&#45;&gt;Node12 -->
<g id="edge36" class="edge"><title>Node12&#45;&gt;Node12</title>
<path fill="none" stroke="#9a32cd" stroke-dasharray="5,2" d="M240.94,-102.427C242.333,-107.349 248.353,-111 259,-111 276.035,-111 281.226,-101.653 274.571,-92.7079"/>
<polygon fill="#9a32cd" stroke="#9a32cd" points="244.338,-103.264 243.429,-92.7079 237.557,-101.527 244.338,-103.264"/>
<text text-anchor="middle" x="259" y="-141" font-family="FreeSans" font-size="10.00"> next_</text>
<text text-anchor="middle" x="259" y="-128" font-family="FreeSans" font-size="10.00">prev_</text>
<text text-anchor="middle" x="259" y="-115" font-family="FreeSans" font-size="10.00">down_</text>
</g>
<!-- Node13 -->
<g id="node31" class="node"><title>Node13</title>
<a xlink:href="a00052.html" target="_top" xlink:title="Allocator memory block.">
<polygon fill="none" stroke="black" points="195.5,-0.5 195.5,-21.5 322.5,-21.5 322.5,-0.5 195.5,-0.5"/>
<text text-anchor="middle" x="259" y="-8.5" font-family="FreeSans" font-size="10.00">Urho3D::AllocatorBlock</text>
</a>
</g>
<!-- Node13&#45;&gt;Node11 -->
<g id="edge38" class="edge"><title>Node13&#45;&gt;Node11</title>
<path fill="none" stroke="#9a32cd" stroke-dasharray="5,2" d="M322.287,-23.5434C355.663,-30.1585 396.148,-38.1825 427.875,-44.4707"/>
<polygon fill="#9a32cd" stroke="#9a32cd" points="322.664,-20.0501 312.175,-21.5391 321.303,-26.9166 322.664,-20.0501"/>
<text text-anchor="middle" x="369" y="-41" font-family="FreeSans" font-size="10.00"> allocator_</text>
</g>
<!-- Node13&#45;&gt;Node13 -->
<g id="edge40" class="edge"><title>Node13&#45;&gt;Node13</title>
<path fill="none" stroke="#9a32cd" stroke-dasharray="5,2" d="M240.94,-31.4266C242.333,-36.3489 248.353,-40 259,-40 276.035,-40 281.226,-30.6531 274.571,-21.7079"/>
<polygon fill="#9a32cd" stroke="#9a32cd" points="244.338,-32.2636 243.429,-21.7079 237.557,-30.5268 244.338,-32.2636"/>
<text text-anchor="middle" x="259" y="-44" font-family="FreeSans" font-size="10.00"> next_</text>
</g>
<!-- Node14 -->
<g id="node34" class="node"><title>Node14</title>
<a xlink:href="a00053.html" target="_top" xlink:title="Allocator node.">
<polygon fill="none" stroke="black" points="0.5,-0.5 0.5,-21.5 127.5,-21.5 127.5,-0.5 0.5,-0.5"/>
<text text-anchor="middle" x="64" y="-8.5" font-family="FreeSans" font-size="10.00">Urho3D::AllocatorNode</text>
</a>
</g>
<!-- Node14&#45;&gt;Node13 -->
<g id="edge42" class="edge"><title>Node14&#45;&gt;Node13</title>
<path fill="none" stroke="#9a32cd" stroke-dasharray="5,2" d="M137.645,-11C156.576,-11 176.785,-11 195.172,-11"/>
<polygon fill="#9a32cd" stroke="#9a32cd" points="137.581,-7.5001 127.58,-11 137.58,-14.5001 137.581,-7.5001"/>
<text text-anchor="middle" x="160" y="-15" font-family="FreeSans" font-size="10.00"> free_</text>
</g>
<!-- Node14&#45;&gt;Node14 -->
<g id="edge44" class="edge"><title>Node14&#45;&gt;Node14</title>
<path fill="none" stroke="#9a32cd" stroke-dasharray="5,2" d="M46.3082,-31.4266C47.6731,-36.3489 53.5703,-40 64,-40 80.6875,-40 85.772,-30.6531 79.2534,-21.7079"/>
<polygon fill="#9a32cd" stroke="#9a32cd" points="49.7078,-32.259 48.7466,-21.7079 42.9182,-30.5555 49.7078,-32.259"/>
<text text-anchor="middle" x="64" y="-44" font-family="FreeSans" font-size="10.00"> next_</text>
</g>
<!-- Node15 -->
<g id="node37" class="node"><title>Node15</title>
<a xlink:href="a00386.html" target="_top" xlink:title="Union for the possible variant values. Also stores non&#45;POD objects such as String which must not exce...">
<polygon fill="none" stroke="black" points="719.5,-75.5 719.5,-96.5 838.5,-96.5 838.5,-75.5 719.5,-75.5"/>
<text text-anchor="middle" x="779" y="-83.5" font-family="FreeSans" font-size="10.00">Urho3D::VariantValue</text>
</a>
</g>
<!-- Node15&#45;&gt;Node1 -->
<g id="edge46" class="edge"><title>Node15&#45;&gt;Node1</title>
<path fill="none" stroke="#9a32cd" stroke-dasharray="5,2" d="M848.725,-81.6623C889.217,-82.0529 939.973,-87.7222 980,-109 1008.51,-124.158 1029.91,-157.409 1039.47,-174.46"/>
<polygon fill="#9a32cd" stroke="#9a32cd" points="848.661,-78.1622 838.664,-81.6704 848.667,-85.1622 848.661,-78.1622"/>
<text text-anchor="middle" x="925" y="-113" font-family="FreeSans" font-size="10.00"> value_</text>
</g>
</g>
</svg>
        <g id="navigator" transform="translate(0 0)" fill="#404254">
                <rect fill="#f2f5e9" fill-opacity="0.5" stroke="#606060" stroke-width=".5" x="0" y="0" width="60" height="60"/>
                <use id="zoomplus" xlink:href="#zoomPlus" x="17" y="9" onmousedown="handleZoom(evt,'in')"/>
                <use id="zoomminus" xlink:href="#zoomMin" x="42" y="9" onmousedown="handleZoom(evt,'out')"/>
                <use id="reset" xlink:href="#resetDef" x="30" y="36" onmousedown="handleReset()"/>
                <g id="arrowUp" xlink:href="#dirArrow" transform="translate(30 24)" onmousedown="handlePan(0,-1)">
                  <use xlink:href="#rim" fill="#404040">
                        <set attributeName="fill" to="#808080" begin="arrowUp.mouseover" end="arrowUp.mouseout"/>
                  </use>
                  <path fill="none" stroke="white" stroke-width="1.5" d="M0,-3.0v7 M-2.5,-0.5L0,-3.0L2.5,-0.5"/>
                </g>
                <g id="arrowRight" xlink:href="#dirArrow" transform="rotate(90) translate(36 -43)" onmousedown="handlePan(1,0)">
                  <use xlink:href="#rim" fill="#404040">
                        <set attributeName="fill" to="#808080" begin="arrowRight.mouseover" end="arrowRight.mouseout"/>
                  </use>
                  <path fill="none" stroke="white" stroke-width="1.5" d="M0,-3.0v7 M-2.5,-0.5L0,-3.0L2.5,-0.5"/>
                </g>
                <g id="arrowDown" xlink:href="#dirArrow" transform="rotate(180) translate(-30 -48)" onmousedown="handlePan(0,1)">
                  <use xlink:href="#rim" fill="#404040">
                        <set attributeName="fill" to="#808080" begin="arrowDown.mouseover" end="arrowDown.mouseout"/>
                  </use>
                  <path fill="none" stroke="white" stroke-width="1.5" d="M0,-3.0v7 M-2.5,-0.5L0,-3.0L2.5,-0.5"/>
                </g>
                <g id="arrowLeft" xlink:href="#dirArrow" transform="rotate(270) translate(-36 17)" onmousedown="handlePan(-1,0)">
                  <use xlink:href="#rim" fill="#404040">
                        <set attributeName="fill" to="#808080" begin="arrowLeft.mouseover" end="arrowLeft.mouseout"/>
                  </use>
                  <path fill="none" stroke="white" stroke-width="1.5" d="M0,-3.0v7 M-2.5,-0.5L0,-3.0L2.5,-0.5"/>
                </g>
        </g>
        <svg viewBox="0 0 15 15" width="100%" height="30px" preserveAspectRatio="xMaxYMin meet">
         <g id="arrow_out" transform="scale(0.3 0.3)">
          <a xlink:href="a01070_org.svg" target="_base">
           <rect id="button" ry="5" rx="5" y="6" x="6" height="38" width="38"
                fill="#f2f5e9" fill-opacity="0.5" stroke="#606060" stroke-width="1.0"/>
           <path id="arrow"
             d="M 11.500037,31.436501 C 11.940474,20.09759 22.043105,11.32322 32.158766,21.979434 L 37.068811,17.246167 C 37.068811,17.246167 37.088388,32 37.088388,32 L 22.160133,31.978069 C 22.160133,31.978069 26.997745,27.140456 26.997745,27.140456 C 18.528582,18.264221 13.291696,25.230495 11.500037,31.436501 z"
             style="fill:#404040;"/>
          </a>
         </g>
        </svg>
</svg>
