<?xml version="1.0" encoding="UTF-8" standalone="no"?>
<!DOCTYPE svg PUBLIC "-//W3C//DTD SVG 1.1//EN"
 "http://www.w3.org/Graphics/SVG/1.1/DTD/svg11.dtd">
<!-- Generated by graphviz version 2.26.3 (20100126.1600)
 -->
<!-- Title: Urho3D::ShadowBatchQueue Pages: 1 -->
<!--zoomable 798 -->
<svg id="main" version="1.1" xmlns="http://www.w3.org/2000/svg" xmlns:xlink="http://www.w3.org/1999/xlink" xml:space="preserve" onload="init(evt)">
        <defs>
                <circle id="rim" cx="0" cy="0" r="7"/>
                <circle id="rim2" cx="0" cy="0" r="3.5"/>
                <g id="zoomPlus">
                        <use xlink:href="#rim" fill="#404040">
                                <set attributeName="fill" to="#808080" begin="zoomplus.mouseover" end="zoomplus.mouseout"/>
                        </use>
                        <path d="M-4,0h8M0,-4v8" fill="none" stroke="white" stroke-width="1.5" pointer-events="none"/>
                </g>
                <g id="zoomMin">
                        <use xlink:href="#rim" fill="#404040">
                                <set attributeName="fill" to="#808080" begin="zoomminus.mouseover" end="zoomminus.mouseout"/>
                        </use>
                        <path d="M-4,0h8" fill="none" stroke="white" stroke-width="1.5" pointer-events="none"/>
                </g>
                <g id="dirArrow">
                        <path fill="none" stroke="white" stroke-width="1.5" d="M0,-3.0v7 M-2.5,-0.5L0,-3.0L2.5,-0.5"/>
                </g>
               <g id="resetDef">
                       <use xlink:href="#rim2" fill="#404040">
                               <set attributeName="fill" to="#808080" begin="reset.mouseover" end="reset.mouseout"/>
                       </use>
               </g>
        </defs>

<script type="text/javascript">
var viewWidth = 1470;
var viewHeight = 798;
var sectionId = 'dynsection-0';
</script>
<script xlink:href="svgpan.js"/>
<svg id="graph" class="graph">
<g id="viewport">
<title>Urho3D::ShadowBatchQueue</title>
<!-- Node1 -->
<g id="node1" class="node"><title>Node1</title>
<polygon fill="#bfbfbf" stroke="black" points="1306,-562.5 1306,-583.5 1462,-583.5 1462,-562.5 1306,-562.5"/>
<text text-anchor="middle" x="1384" y="-570.5" font-family="FreeSans" font-size="10.00">Urho3D::ShadowBatchQueue</text>
</g>
<!-- Node2 -->
<g id="node2" class="node"><title>Node2</title>
<a xlink:href="a00184.html" target="_top" xlink:title="Two&#45;dimensional bounding rectangle with integer values.">
<polygon fill="none" stroke="black" points="1078,-602.5 1078,-623.5 1170,-623.5 1170,-602.5 1078,-602.5"/>
<text text-anchor="middle" x="1124" y="-610.5" font-family="FreeSans" font-size="10.00">Urho3D::IntRect</text>
</a>
</g>
<!-- Node2&#45;&gt;Node1 -->
<g id="edge2" class="edge"><title>Node2&#45;&gt;Node1</title>
<path fill="none" stroke="#9a32cd" stroke-dasharray="5,2" d="M1180.3,-605.042C1211.97,-600.496 1252.21,-594.6 1288,-589 1299.02,-587.276 1310.74,-585.377 1322.06,-583.509"/>
<polygon fill="#9a32cd" stroke="#9a32cd" points="1179.74,-601.587 1170.34,-606.469 1180.73,-608.516 1179.74,-601.587"/>
<text text-anchor="middle" x="1245" y="-605" font-family="FreeSans" font-size="10.00"> shadowViewport_</text>
</g>
<!-- Node2&#45;&gt;Node2 -->
<g id="edge4" class="edge"><title>Node2&#45;&gt;Node2</title>
<path fill="none" stroke="#9a32cd" stroke-dasharray="5,2" d="M1101.89,-633.427C1103.59,-638.349 1110.96,-642 1124,-642 1144.86,-642 1151.21,-632.653 1143.07,-623.708"/>
<polygon fill="#9a32cd" stroke="#9a32cd" points="1105.28,-634.297 1104.93,-623.708 1098.6,-632.202 1105.28,-634.297"/>
<text text-anchor="middle" x="1124" y="-646" font-family="FreeSans" font-size="10.00"> ZERO</text>
</g>
<!-- Node3 -->
<g id="node5" class="node"><title>Node3</title>
<a xlink:href="a00078.html" target="_top" xlink:title="Queue that contains both instanced and non&#45;instanced draw calls.">
<polygon fill="none" stroke="black" points="1064.5,-562.5 1064.5,-583.5 1183.5,-583.5 1183.5,-562.5 1064.5,-562.5"/>
<text text-anchor="middle" x="1124" y="-570.5" font-family="FreeSans" font-size="10.00">Urho3D::BatchQueue</text>
</a>
</g>
<!-- Node3&#45;&gt;Node1 -->
<g id="edge6" class="edge"><title>Node3&#45;&gt;Node1</title>
<path fill="none" stroke="#9a32cd" stroke-dasharray="5,2" d="M1193.67,-573C1228.27,-573 1270.2,-573 1305.88,-573"/>
<polygon fill="#9a32cd" stroke="#9a32cd" points="1193.65,-569.5 1183.65,-573 1193.65,-576.5 1193.65,-569.5"/>
<text text-anchor="middle" x="1245" y="-577" font-family="FreeSans" font-size="10.00"> shadowBatches_</text>
</g>
<!-- Node4 -->
<g id="node7" class="node"><title>Node4</title>
<a xlink:href="a00173.html" target="_top" xlink:title="Urho3D::HashMap\&lt; unsigned\l short, unsigned short \&gt;">
<polygon fill="none" stroke="black" points="761.5,-726 761.5,-760 920.5,-760 920.5,-726 761.5,-726"/>
<text text-anchor="start" x="769.5" y="-747" font-family="FreeSans" font-size="10.00">Urho3D::HashMap&lt; unsigned</text>
<text text-anchor="middle" x="841" y="-734" font-family="FreeSans" font-size="10.00"> short, unsigned short &gt;</text>
</a>
</g>
<!-- Node4&#45;&gt;Node3 -->
<g id="edge8" class="edge"><title>Node4&#45;&gt;Node3</title>
<path fill="none" stroke="#9a32cd" stroke-dasharray="5,2" d="M930.618,-741.914C971.228,-736.661 1016.62,-723.322 1046,-692 1076.6,-659.382 1034.7,-626.785 1064,-593 1067.31,-589.184 1071.37,-586.094 1075.8,-583.592"/>
<polygon fill="#9a32cd" stroke="#9a32cd" points="930.217,-738.437 920.682,-743.054 931.015,-745.391 930.217,-738.437"/>
<text text-anchor="middle" x="993" y="-757" font-family="FreeSans" font-size="10.00"> materialRemapping_</text>
<text text-anchor="middle" x="993" y="-744" font-family="FreeSans" font-size="10.00">geometryRemapping_</text>
</g>
<!-- Node5 -->
<g id="node9" class="node"><title>Node5</title>
<a xlink:href="a00171.html" target="_top" xlink:title="Hash set/map base class.">
<polygon fill="none" stroke="black" points="533,-680.5 533,-701.5 641,-701.5 641,-680.5 533,-680.5"/>
<text text-anchor="middle" x="587" y="-688.5" font-family="FreeSans" font-size="10.00">Urho3D::HashBase</text>
</a>
</g>
<!-- Node5&#45;&gt;Node4 -->
<g id="edge10" class="edge"><title>Node5&#45;&gt;Node4</title>
<path fill="none" stroke="midnightblue" d="M648.613,-703.614C682.454,-710.542 724.811,-719.213 761.161,-726.655"/>
<polygon fill="midnightblue" stroke="midnightblue" points="648.899,-700.1 638.401,-701.523 647.495,-706.958 648.899,-700.1"/>
</g>
<!-- Node8 -->
<g id="node17" class="node"><title>Node8</title>
<a xlink:href="a00173.html" target="_top" xlink:title="Urho3D::HashMap\&lt; unsigned,\l unsigned \&gt;">
<polygon fill="none" stroke="black" points="760,-674 760,-708 922,-708 922,-674 760,-674"/>
<text text-anchor="start" x="768" y="-695" font-family="FreeSans" font-size="10.00">Urho3D::HashMap&lt; unsigned,</text>
<text text-anchor="middle" x="841" y="-682" font-family="FreeSans" font-size="10.00"> unsigned &gt;</text>
</a>
</g>
<!-- Node5&#45;&gt;Node8 -->
<g id="edge22" class="edge"><title>Node5&#45;&gt;Node8</title>
<path fill="none" stroke="midnightblue" d="M651.588,-691C684.508,-691 724.874,-691 759.871,-691"/>
<polygon fill="midnightblue" stroke="midnightblue" points="651.178,-687.5 641.178,-691 651.178,-694.5 651.178,-687.5"/>
</g>
<!-- Node9 -->
<g id="node20" class="node"><title>Node9</title>
<a xlink:href="a00173.html" target="_top" xlink:title="Urho3D::HashMap\&lt; Urho3D\l::BatchGroupKey, Urho3D\l::BatchGroup \&gt;">
<polygon fill="none" stroke="black" points="765,-608.5 765,-655.5 917,-655.5 917,-608.5 765,-608.5"/>
<text text-anchor="start" x="773" y="-642.5" font-family="FreeSans" font-size="10.00">Urho3D::HashMap&lt; Urho3D</text>
<text text-anchor="start" x="773" y="-629.5" font-family="FreeSans" font-size="10.00">::BatchGroupKey, Urho3D</text>
<text text-anchor="middle" x="841" y="-616.5" font-family="FreeSans" font-size="10.00">::BatchGroup &gt;</text>
</a>
</g>
<!-- Node5&#45;&gt;Node9 -->
<g id="edge26" class="edge"><title>Node5&#45;&gt;Node9</title>
<path fill="none" stroke="midnightblue" d="M642.217,-678.174C678.116,-669.835 725.408,-658.85 764.858,-649.687"/>
<polygon fill="midnightblue" stroke="midnightblue" points="641.359,-674.78 632.41,-680.452 642.943,-681.599 641.359,-674.78"/>
</g>
<!-- Node6 -->
<g id="node11" class="node"><title>Node6</title>
<a xlink:href="a00174.html" target="_top" xlink:title="Hash set/map node base class.">
<polygon fill="none" stroke="black" points="278,-640.5 278,-661.5 412,-661.5 412,-640.5 278,-640.5"/>
<text text-anchor="middle" x="345" y="-648.5" font-family="FreeSans" font-size="10.00">Urho3D::HashNodeBase</text>
</a>
</g>
<!-- Node6&#45;&gt;Node5 -->
<g id="edge12" class="edge"><title>Node6&#45;&gt;Node5</title>
<path fill="none" stroke="#9a32cd" stroke-dasharray="5,2" d="M422.273,-657.193C450.643,-660.149 482.924,-664.313 512,-670 525.801,-672.699 540.767,-676.671 553.673,-680.436"/>
<polygon fill="#9a32cd" stroke="#9a32cd" points="422.311,-653.679 412.011,-656.159 421.609,-660.644 422.311,-653.679"/>
<text text-anchor="middle" x="471" y="-700" font-family="FreeSans" font-size="10.00"> ptrs_</text>
<text text-anchor="middle" x="471" y="-687" font-family="FreeSans" font-size="10.00">tail_</text>
<text text-anchor="middle" x="471" y="-674" font-family="FreeSans" font-size="10.00">head_</text>
</g>
<!-- Node6&#45;&gt;Node6 -->
<g id="edge14" class="edge"><title>Node6&#45;&gt;Node6</title>
<path fill="none" stroke="#9a32cd" stroke-dasharray="5,2" d="M321.78,-671.427C323.571,-676.349 331.311,-680 345,-680 366.902,-680 373.576,-670.653 365.02,-661.708"/>
<polygon fill="#9a32cd" stroke="#9a32cd" points="325.176,-672.301 324.98,-661.708 318.528,-670.111 325.176,-672.301"/>
<text text-anchor="middle" x="345" y="-710" font-family="FreeSans" font-size="10.00"> next_</text>
<text text-anchor="middle" x="345" y="-697" font-family="FreeSans" font-size="10.00">prev_</text>
<text text-anchor="middle" x="345" y="-684" font-family="FreeSans" font-size="10.00">down_</text>
</g>
<!-- Node7 -->
<g id="node14" class="node"><title>Node7</title>
<a xlink:href="a00049.html" target="_top" xlink:title="Allocator memory block.">
<polygon fill="none" stroke="red" points="281.5,-737.5 281.5,-758.5 408.5,-758.5 408.5,-737.5 281.5,-737.5"/>
<text text-anchor="middle" x="345" y="-745.5" font-family="FreeSans" font-size="10.00">Urho3D::AllocatorBlock</text>
</a>
</g>
<!-- Node7&#45;&gt;Node5 -->
<g id="edge16" class="edge"><title>Node7&#45;&gt;Node5</title>
<path fill="none" stroke="#9a32cd" stroke-dasharray="5,2" d="M400.164,-735.207C432.717,-727.635 474.716,-717.827 512,-709 522.164,-706.594 533.096,-703.983 543.386,-701.515"/>
<polygon fill="#9a32cd" stroke="#9a32cd" points="399.328,-731.808 390.381,-737.481 400.913,-738.626 399.328,-731.808"/>
<text text-anchor="middle" x="471" y="-731" font-family="FreeSans" font-size="10.00"> allocator_</text>
</g>
<!-- Node7&#45;&gt;Node7 -->
<g id="edge18" class="edge"><title>Node7&#45;&gt;Node7</title>
<path fill="none" stroke="#9a32cd" stroke-dasharray="5,2" d="M321.78,-768.427C323.571,-773.349 331.311,-777 345,-777 366.902,-777 373.576,-767.653 365.02,-758.708"/>
<polygon fill="#9a32cd" stroke="#9a32cd" points="325.176,-769.301 324.98,-758.708 318.528,-767.111 325.176,-769.301"/>
<text text-anchor="middle" x="345" y="-781" font-family="FreeSans" font-size="10.00"> next_</text>
</g>
<!-- Node8&#45;&gt;Node3 -->
<g id="edge20" class="edge"><title>Node8&#45;&gt;Node3</title>
<path fill="none" stroke="#9a32cd" stroke-dasharray="5,2" d="M932.375,-678.304C970.811,-669.205 1013.95,-653.629 1046,-627 1059.15,-616.074 1050.95,-604.052 1064,-593 1068.52,-589.167 1073.81,-586.062 1079.33,-583.547"/>
<polygon fill="#9a32cd" stroke="#9a32cd" points="931.184,-674.984 922.195,-680.591 932.719,-681.814 931.184,-674.984"/>
<text text-anchor="middle" x="993" y="-679" font-family="FreeSans" font-size="10.00"> shaderRemapping_</text>
</g>
<!-- Node9&#45;&gt;Node3 -->
<g id="edge24" class="edge"><title>Node9&#45;&gt;Node3</title>
<path fill="none" stroke="#9a32cd" stroke-dasharray="5,2" d="M927.599,-614.508C964.16,-607.058 1007.18,-598.208 1046,-590 1055.76,-587.936 1066.2,-585.688 1076.17,-583.523"/>
<polygon fill="#9a32cd" stroke="#9a32cd" points="926.568,-611.146 917.467,-616.57 927.964,-618.005 926.568,-611.146"/>
<text text-anchor="middle" x="993" y="-614" font-family="FreeSans" font-size="10.00"> batchGroups_</text>
</g>
<!-- Node10 -->
<g id="node23" class="node"><title>Node10</title>
<a xlink:href="a00262.html" target="_top" xlink:title="Urho3D::PODVector\&lt;\l Urho3D::BatchGroup * \&gt;">
<polygon fill="none" stroke="black" points="771.5,-556 771.5,-590 910.5,-590 910.5,-556 771.5,-556"/>
<text text-anchor="start" x="779.5" y="-577" font-family="FreeSans" font-size="10.00">Urho3D::PODVector&lt;</text>
<text text-anchor="middle" x="841" y="-564" font-family="FreeSans" font-size="10.00"> Urho3D::BatchGroup * &gt;</text>
</a>
</g>
<!-- Node10&#45;&gt;Node3 -->
<g id="edge28" class="edge"><title>Node10&#45;&gt;Node3</title>
<path fill="none" stroke="#9a32cd" stroke-dasharray="5,2" d="M920.739,-573C966.31,-573 1022.52,-573 1064.26,-573"/>
<polygon fill="#9a32cd" stroke="#9a32cd" points="920.592,-569.5 910.592,-573 920.592,-576.5 920.592,-569.5"/>
<text text-anchor="middle" x="993" y="-577" font-family="FreeSans" font-size="10.00"> sortedBatchGroups_</text>
</g>
<!-- Node11 -->
<g id="node25" class="node"><title>Node11</title>
<a xlink:href="a00365.html" target="_top" xlink:title="Vector base class.">
<polygon fill="none" stroke="black" points="530,-516.5 530,-537.5 644,-537.5 644,-516.5 530,-516.5"/>
<text text-anchor="middle" x="587" y="-524.5" font-family="FreeSans" font-size="10.00">Urho3D::VectorBase</text>
</a>
</g>
<!-- Node11&#45;&gt;Node10 -->
<g id="edge30" class="edge"><title>Node11&#45;&gt;Node10</title>
<path fill="none" stroke="midnightblue" d="M653.944,-539.124C690.028,-545.659 734.516,-553.715 771.051,-560.332"/>
<polygon fill="midnightblue" stroke="midnightblue" points="654.466,-535.661 644.003,-537.323 653.219,-542.549 654.466,-535.661"/>
</g>
<!-- Node12 -->
<g id="node27" class="node"><title>Node12</title>
<a xlink:href="a00262.html" target="_top" xlink:title="Urho3D::PODVector\&lt;\l Urho3D::Batch \&gt;">
<polygon fill="none" stroke="black" points="781.5,-504 781.5,-538 900.5,-538 900.5,-504 781.5,-504"/>
<text text-anchor="start" x="789.5" y="-525" font-family="FreeSans" font-size="10.00">Urho3D::PODVector&lt;</text>
<text text-anchor="middle" x="841" y="-512" font-family="FreeSans" font-size="10.00"> Urho3D::Batch &gt;</text>
</a>
</g>
<!-- Node11&#45;&gt;Node12 -->
<g id="edge34" class="edge"><title>Node11&#45;&gt;Node12</title>
<path fill="none" stroke="midnightblue" d="M654.062,-525.416C693.506,-524.484 742.96,-523.316 781.093,-522.415"/>
<polygon fill="midnightblue" stroke="midnightblue" points="653.917,-521.918 644.003,-525.653 654.082,-528.916 653.917,-521.918"/>
</g>
<!-- Node13 -->
<g id="node30" class="node"><title>Node13</title>
<a xlink:href="a00262.html" target="_top" xlink:title="Urho3D::PODVector\&lt;\l Urho3D::Batch * \&gt;">
<polygon fill="none" stroke="black" points="781.5,-452 781.5,-486 900.5,-486 900.5,-452 781.5,-452"/>
<text text-anchor="start" x="789.5" y="-473" font-family="FreeSans" font-size="10.00">Urho3D::PODVector&lt;</text>
<text text-anchor="middle" x="841" y="-460" font-family="FreeSans" font-size="10.00"> Urho3D::Batch * &gt;</text>
</a>
</g>
<!-- Node11&#45;&gt;Node13 -->
<g id="edge38" class="edge"><title>Node11&#45;&gt;Node13</title>
<path fill="none" stroke="midnightblue" d="M642.835,-514.25C683.875,-504.879 739.557,-492.164 781.447,-482.599"/>
<polygon fill="midnightblue" stroke="midnightblue" points="641.967,-510.858 632.997,-516.497 643.526,-517.683 641.967,-510.858"/>
</g>
<!-- Node12&#45;&gt;Node3 -->
<g id="edge32" class="edge"><title>Node12&#45;&gt;Node3</title>
<path fill="none" stroke="#9a32cd" stroke-dasharray="5,2" d="M910.893,-532.124C950.592,-538.645 1001.17,-547.292 1046,-556 1056.2,-557.982 1067.12,-560.262 1077.46,-562.495"/>
<polygon fill="#9a32cd" stroke="#9a32cd" points="911.217,-528.631 900.783,-530.471 910.087,-535.539 911.217,-528.631"/>
<text text-anchor="middle" x="993" y="-560" font-family="FreeSans" font-size="10.00"> batches_</text>
</g>
<!-- Node13&#45;&gt;Node3 -->
<g id="edge36" class="edge"><title>Node13&#45;&gt;Node3</title>
<path fill="none" stroke="#9a32cd" stroke-dasharray="5,2" d="M910.786,-480.021C951.41,-487.974 1002.94,-500.754 1046,-520 1071.11,-531.224 1096.86,-550.541 1111.59,-562.496"/>
<polygon fill="#9a32cd" stroke="#9a32cd" points="911.182,-476.534 900.704,-478.102 909.873,-483.41 911.182,-476.534"/>
<text text-anchor="middle" x="993" y="-524" font-family="FreeSans" font-size="10.00"> sortedBatches_</text>
</g>
<!-- Node14 -->
<g id="node33" class="node"><title>Node14</title>
<a xlink:href="a00088.html" target="_top" xlink:title="Camera component.">
<polygon fill="none" stroke="black" points="1075,-285.5 1075,-306.5 1173,-306.5 1173,-285.5 1075,-285.5"/>
<text text-anchor="middle" x="1124" y="-293.5" font-family="FreeSans" font-size="10.00">Urho3D::Camera</text>
</a>
</g>
<!-- Node14&#45;&gt;Node1 -->
<g id="edge40" class="edge"><title>Node14&#45;&gt;Node1</title>
<path fill="none" stroke="#9a32cd" stroke-dasharray="5,2" d="M1141.02,-314.134C1190.79,-367.158 1335,-520.801 1374.12,-562.469"/>
<polygon fill="#9a32cd" stroke="#9a32cd" points="1143.27,-311.416 1133.87,-306.52 1138.17,-316.207 1143.27,-311.416"/>
<text text-anchor="middle" x="1245" y="-471" font-family="FreeSans" font-size="10.00"> shadowCamera_</text>
</g>
<!-- Node15 -->
<g id="node35" class="node"><title>Node15</title>
<a xlink:href="a00102.html" target="_top" xlink:title="Base class for components. Components can be created to scene nodes.">
<polygon fill="none" stroke="black" points="783,-406.5 783,-427.5 899,-427.5 899,-406.5 783,-406.5"/>
<text text-anchor="middle" x="841" y="-414.5" font-family="FreeSans" font-size="10.00">Urho3D::Component</text>
</a>
</g>
<!-- Node15&#45;&gt;Node14 -->
<g id="edge42" class="edge"><title>Node15&#45;&gt;Node14</title>
<path fill="none" stroke="midnightblue" d="M909.183,-416.457C950.929,-413.52 1004.18,-404.935 1046,-382 1079.58,-363.585 1106.28,-325.132 1117.82,-306.529"/>
<polygon fill="midnightblue" stroke="midnightblue" points="908.872,-412.97 899.104,-417.074 909.299,-419.957 908.872,-412.97"/>
</g>
<!-- Node16 -->
<g id="node37" class="node"><title>Node16</title>
<a xlink:href="a00051.html" target="_top" xlink:title="Base class for animatable object.">
<polygon fill="none" stroke="red" points="288,-466.5 288,-487.5 402,-487.5 402,-466.5 288,-466.5"/>
<text text-anchor="middle" x="345" y="-474.5" font-family="FreeSans" font-size="10.00">Urho3D::Animatable</text>
</a>
</g>
<!-- Node16&#45;&gt;Node15 -->
<g id="edge44" class="edge"><title>Node16&#45;&gt;Node15</title>
<path fill="none" stroke="midnightblue" d="M412.229,-475.448C473.005,-473.401 564.819,-468.701 644,-458 698.007,-450.702 759.346,-437.073 799.027,-427.54"/>
<polygon fill="midnightblue" stroke="midnightblue" points="411.883,-471.958 402.001,-475.778 412.108,-478.954 411.883,-471.958"/>
</g>
<!-- Node19 -->
<g id="node43" class="node"><title>Node19</title>
<a xlink:href="a00229.html" target="_top" xlink:title="Scene node that may contain components and child nodes.">
<polygon fill="none" stroke="red" points="544.5,-396.5 544.5,-417.5 629.5,-417.5 629.5,-396.5 544.5,-396.5"/>
<text text-anchor="middle" x="587" y="-404.5" font-family="FreeSans" font-size="10.00">Urho3D::Node</text>
</a>
</g>
<!-- Node16&#45;&gt;Node19 -->
<g id="edge52" class="edge"><title>Node16&#45;&gt;Node19</title>
<path fill="none" stroke="midnightblue" d="M391.291,-463.61C437.663,-450.197 508.088,-429.826 550.607,-417.527"/>
<polygon fill="midnightblue" stroke="midnightblue" points="390.126,-460.304 381.492,-466.445 392.071,-467.028 390.126,-460.304"/>
</g>
<!-- Node17 -->
<g id="node39" class="node"><title>Node17</title>
<a xlink:href="a00303.html" target="_top" xlink:title="Base class for objects with automatic serialization through attributes.">
<polygon fill="none" stroke="red" points="20,-489.5 20,-510.5 134,-510.5 134,-489.5 20,-489.5"/>
<text text-anchor="middle" x="77" y="-497.5" font-family="FreeSans" font-size="10.00">Urho3D::Serializable</text>
</a>
</g>
<!-- Node17&#45;&gt;Node16 -->
<g id="edge46" class="edge"><title>Node17&#45;&gt;Node16</title>
<path fill="none" stroke="midnightblue" d="M144.26,-494.228C188.539,-490.428 245.873,-485.507 287.924,-481.898"/>
<polygon fill="midnightblue" stroke="midnightblue" points="143.828,-490.752 134.164,-495.094 144.427,-497.726 143.828,-490.752"/>
</g>
<!-- Node18 -->
<g id="node41" class="node"><title>Node18</title>
<a xlink:href="a00312.html" target="_top" xlink:title="Urho3D::SharedPtr\&lt;\l Urho3D::ObjectAnimation \&gt;">
<polygon fill="none" stroke="red" points="0.5,-437 0.5,-471 153.5,-471 153.5,-437 0.5,-437"/>
<text text-anchor="start" x="8.5" y="-458" font-family="FreeSans" font-size="10.00">Urho3D::SharedPtr&lt;</text>
<text text-anchor="middle" x="77" y="-445" font-family="FreeSans" font-size="10.00"> Urho3D::ObjectAnimation &gt;</text>
</a>
</g>
<!-- Node18&#45;&gt;Node16 -->
<g id="edge48" class="edge"><title>Node18&#45;&gt;Node16</title>
<path fill="none" stroke="#9a32cd" stroke-dasharray="5,2" d="M163.8,-459.342C194.246,-461.434 228.661,-464.045 260,-467 269.024,-467.851 278.573,-468.864 287.886,-469.914"/>
<polygon fill="#9a32cd" stroke="#9a32cd" points="163.851,-455.838 153.637,-458.653 163.378,-462.822 163.851,-455.838"/>
<text text-anchor="middle" x="216" y="-471" font-family="FreeSans" font-size="10.00"> objectAnimation_</text>
</g>
<!-- Node19&#45;&gt;Node15 -->
<g id="edge50" class="edge"><title>Node19&#45;&gt;Node15</title>
<path fill="none" stroke="#9a32cd" stroke-dasharray="5,2" d="M639.737,-409.076C681.419,-410.717 739.554,-413.006 782.631,-414.702"/>
<polygon fill="#9a32cd" stroke="#9a32cd" points="639.644,-405.57 629.514,-408.674 639.368,-412.565 639.644,-405.57"/>
<text text-anchor="middle" x="702" y="-417" font-family="FreeSans" font-size="10.00"> node_</text>
</g>
<!-- Node19&#45;&gt;Node19 -->
<g id="edge58" class="edge"><title>Node19&#45;&gt;Node19</title>
<path fill="none" stroke="#9a32cd" stroke-dasharray="5,2" d="M565.991,-427.427C567.612,-432.349 574.615,-436 587,-436 606.816,-436 612.854,-426.653 605.113,-417.708"/>
<polygon fill="#9a32cd" stroke="#9a32cd" points="569.385,-428.291 568.887,-417.708 562.677,-426.292 569.385,-428.291"/>
<text text-anchor="middle" x="587" y="-440" font-family="FreeSans" font-size="10.00"> parent_</text>
</g>
<!-- Node20 -->
<g id="node46" class="node"><title>Node20</title>
<a xlink:href="a00363.html" target="_top" xlink:title="Three&#45;dimensional vector.">
<polygon fill="none" stroke="black" points="297,-220.5 297,-241.5 393,-241.5 393,-220.5 297,-220.5"/>
<text text-anchor="middle" x="345" y="-228.5" font-family="FreeSans" font-size="10.00">Urho3D::Vector3</text>
</a>
</g>
<!-- Node20&#45;&gt;Node19 -->
<g id="edge54" class="edge"><title>Node20&#45;&gt;Node19</title>
<path fill="none" stroke="#9a32cd" stroke-dasharray="5,2" d="M363.271,-248.58C380.033,-264.347 405.851,-287.743 430,-306 477.829,-342.158 538.521,-378.802 568.506,-396.346"/>
<polygon fill="#9a32cd" stroke="#9a32cd" points="365.481,-245.851 355.817,-241.508 360.663,-250.93 365.481,-245.851"/>
<text text-anchor="middle" x="471" y="-378" font-family="FreeSans" font-size="10.00"> scale_</text>
<text text-anchor="middle" x="471" y="-365" font-family="FreeSans" font-size="10.00">position_</text>
</g>
<!-- Node20&#45;&gt;Node20 -->
<g id="edge56" class="edge"><title>Node20&#45;&gt;Node20</title>
<path fill="none" stroke="#9a32cd" stroke-dasharray="5,2" d="M321.78,-251.427C323.571,-256.349 331.311,-260 345,-260 366.902,-260 373.576,-250.653 365.02,-241.708"/>
<polygon fill="#9a32cd" stroke="#9a32cd" points="325.176,-252.301 324.98,-241.708 318.528,-250.111 325.176,-252.301"/>
<text text-anchor="middle" x="345" y="-355" font-family="FreeSans" font-size="10.00"> ONE</text>
<text text-anchor="middle" x="345" y="-342" font-family="FreeSans" font-size="10.00">DOWN</text>
<text text-anchor="middle" x="345" y="-329" font-family="FreeSans" font-size="10.00">BACK</text>
<text text-anchor="middle" x="345" y="-316" font-family="FreeSans" font-size="10.00">RIGHT</text>
<text text-anchor="middle" x="345" y="-303" font-family="FreeSans" font-size="10.00">LEFT</text>
<text text-anchor="middle" x="345" y="-290" font-family="FreeSans" font-size="10.00">ZERO</text>
<text text-anchor="middle" x="345" y="-277" font-family="FreeSans" font-size="10.00">FORWARD</text>
<text text-anchor="middle" x="345" y="-264" font-family="FreeSans" font-size="10.00">UP</text>
</g>
<!-- Node22 -->
<g id="node53" class="node"><title>Node22</title>
<a xlink:href="a00261.html" target="_top" xlink:title="Surface in three&#45;dimensional space.">
<polygon fill="none" stroke="black" points="544,-210.5 544,-231.5 630,-231.5 630,-210.5 544,-210.5"/>
<text text-anchor="middle" x="587" y="-218.5" font-family="FreeSans" font-size="10.00">Urho3D::Plane</text>
</a>
</g>
<!-- Node20&#45;&gt;Node22 -->
<g id="edge68" class="edge"><title>Node20&#45;&gt;Node22</title>
<path fill="none" stroke="#9a32cd" stroke-dasharray="5,2" d="M403.212,-228.595C446.517,-226.805 504.663,-224.402 543.86,-222.783"/>
<polygon fill="#9a32cd" stroke="#9a32cd" points="402.948,-225.102 393.101,-229.012 403.237,-232.096 402.948,-225.102"/>
<text text-anchor="middle" x="471" y="-245" font-family="FreeSans" font-size="10.00"> normal_</text>
<text text-anchor="middle" x="471" y="-232" font-family="FreeSans" font-size="10.00">absNormal_</text>
</g>
<!-- Node23 -->
<g id="node57" class="node"><title>Node23</title>
<a xlink:href="a00164.html" target="_top" xlink:title="Convex constructed of 6 planes.">
<polygon fill="none" stroke="black" points="792,-285.5 792,-306.5 890,-306.5 890,-285.5 792,-285.5"/>
<text text-anchor="middle" x="841" y="-293.5" font-family="FreeSans" font-size="10.00">Urho3D::Frustum</text>
</a>
</g>
<!-- Node20&#45;&gt;Node23 -->
<g id="edge74" class="edge"><title>Node20&#45;&gt;Node23</title>
<path fill="none" stroke="#9a32cd" stroke-dasharray="5,2" d="M383.737,-244.82C398.119,-249.548 414.665,-254.517 430,-258 558.402,-287.163 714.224,-294.039 791.95,-295.597"/>
<polygon fill="#9a32cd" stroke="#9a32cd" points="384.761,-241.472 374.167,-241.607 382.533,-248.108 384.761,-241.472"/>
<text text-anchor="middle" x="587" y="-292" font-family="FreeSans" font-size="10.00"> vertices_</text>
</g>
<!-- Node21 -->
<g id="node50" class="node"><title>Node21</title>
<a xlink:href="a00212.html" target="_top" xlink:title="3x4 matrix for scene node transform calculations.">
<polygon fill="none" stroke="black" points="292,-382.5 292,-403.5 398,-403.5 398,-382.5 292,-382.5"/>
<text text-anchor="middle" x="345" y="-390.5" font-family="FreeSans" font-size="10.00">Urho3D::Matrix3x4</text>
</a>
</g>
<!-- Node21&#45;&gt;Node14 -->
<g id="edge84" class="edge"><title>Node21&#45;&gt;Node14</title>
<path fill="none" stroke="#9a32cd" stroke-dasharray="5,2" d="M408.022,-387.957C531.154,-377.63 812.093,-351.735 1046,-313 1056.8,-311.211 1068.37,-308.907 1079.19,-306.577"/>
<polygon fill="#9a32cd" stroke="#9a32cd" points="407.69,-384.472 398.016,-388.791 408.272,-391.448 407.69,-384.472"/>
<text text-anchor="middle" x="702" y="-381" font-family="FreeSans" font-size="10.00"> view_</text>
<text text-anchor="middle" x="702" y="-368" font-family="FreeSans" font-size="10.00">reflectionMatrix_</text>
</g>
<!-- Node21&#45;&gt;Node19 -->
<g id="edge60" class="edge"><title>Node21&#45;&gt;Node19</title>
<path fill="none" stroke="#9a32cd" stroke-dasharray="5,2" d="M408.174,-396.655C451.11,-399.139 506.747,-402.357 544.479,-404.54"/>
<polygon fill="#9a32cd" stroke="#9a32cd" points="408.293,-393.156 398.108,-396.072 407.889,-400.144 408.293,-393.156"/>
<text text-anchor="middle" x="471" y="-407" font-family="FreeSans" font-size="10.00"> worldTransform_</text>
</g>
<!-- Node21&#45;&gt;Node21 -->
<g id="edge62" class="edge"><title>Node21&#45;&gt;Node21</title>
<path fill="none" stroke="#9a32cd" stroke-dasharray="5,2" d="M321.78,-413.427C323.571,-418.349 331.311,-422 345,-422 366.902,-422 373.576,-412.653 365.02,-403.708"/>
<polygon fill="#9a32cd" stroke="#9a32cd" points="325.176,-414.301 324.98,-403.708 318.528,-412.111 325.176,-414.301"/>
<text text-anchor="middle" x="345" y="-439" font-family="FreeSans" font-size="10.00"> IDENTITY</text>
<text text-anchor="middle" x="345" y="-426" font-family="FreeSans" font-size="10.00">ZERO</text>
</g>
<!-- Node22&#45;&gt;Node14 -->
<g id="edge64" class="edge"><title>Node22&#45;&gt;Node14</title>
<path fill="none" stroke="#9a32cd" stroke-dasharray="5,2" d="M640.263,-223.347C706.58,-226.788 823.181,-234.546 922,-250 979.39,-258.975 1044.76,-274.933 1085.21,-285.492"/>
<polygon fill="#9a32cd" stroke="#9a32cd" points="640.226,-219.841 630.062,-222.831 639.872,-226.832 640.226,-219.841"/>
<text text-anchor="middle" x="841" y="-267" font-family="FreeSans" font-size="10.00"> clipPlane_</text>
<text text-anchor="middle" x="841" y="-254" font-family="FreeSans" font-size="10.00">reflectionPlane_</text>
</g>
<!-- Node22&#45;&gt;Node22 -->
<g id="edge66" class="edge"><title>Node22&#45;&gt;Node22</title>
<path fill="none" stroke="#9a32cd" stroke-dasharray="5,2" d="M565.991,-241.427C567.612,-246.349 574.615,-250 587,-250 606.816,-250 612.854,-240.653 605.113,-231.708"/>
<polygon fill="#9a32cd" stroke="#9a32cd" points="569.385,-242.291 568.887,-231.708 562.677,-240.292 569.385,-242.291"/>
<text text-anchor="middle" x="587" y="-254" font-family="FreeSans" font-size="10.00"> UP</text>
</g>
<!-- Node22&#45;&gt;Node23 -->
<g id="edge72" class="edge"><title>Node22&#45;&gt;Node23</title>
<path fill="none" stroke="#9a32cd" stroke-dasharray="5,2" d="M622.664,-235.15C635.027,-239.831 649.037,-244.89 662,-249 707.022,-263.275 759.36,-276.653 795.767,-285.458"/>
<polygon fill="#9a32cd" stroke="#9a32cd" points="623.744,-231.815 613.154,-231.501 621.237,-238.351 623.744,-231.815"/>
<text text-anchor="middle" x="702" y="-276" font-family="FreeSans" font-size="10.00"> planes_</text>
</g>
<!-- Node23&#45;&gt;Node14 -->
<g id="edge70" class="edge"><title>Node23&#45;&gt;Node14</title>
<path fill="none" stroke="#9a32cd" stroke-dasharray="5,2" d="M900.332,-296C952.086,-296 1026.28,-296 1074.8,-296"/>
<polygon fill="#9a32cd" stroke="#9a32cd" points="900.295,-292.5 890.295,-296 900.295,-299.5 900.295,-292.5"/>
<text text-anchor="middle" x="993" y="-300" font-family="FreeSans" font-size="10.00"> frustum_</text>
</g>
<!-- Node24 -->
<g id="node61" class="node"><title>Node24</title>
<a xlink:href="a00362.html" target="_top" xlink:title="Two&#45;dimensional vector.">
<polygon fill="none" stroke="black" points="793,-84.5 793,-105.5 889,-105.5 889,-84.5 793,-84.5"/>
<text text-anchor="middle" x="841" y="-92.5" font-family="FreeSans" font-size="10.00">Urho3D::Vector2</text>
</a>
</g>
<!-- Node24&#45;&gt;Node14 -->
<g id="edge76" class="edge"><title>Node24&#45;&gt;Node14</title>
<path fill="none" stroke="#9a32cd" stroke-dasharray="5,2" d="M874.193,-109.784C916.451,-129.47 990.613,-166.973 1046,-211 1075.01,-234.056 1102.82,-268.179 1116.02,-285.333"/>
<polygon fill="#9a32cd" stroke="#9a32cd" points="875.47,-106.519 864.923,-105.513 872.541,-112.877 875.47,-106.519"/>
<text text-anchor="middle" x="993" y="-215" font-family="FreeSans" font-size="10.00"> projectionOffset_</text>
</g>
<!-- Node24&#45;&gt;Node24 -->
<g id="edge78" class="edge"><title>Node24&#45;&gt;Node24</title>
<path fill="none" stroke="#9a32cd" stroke-dasharray="5,2" d="M815.433,-115.055C817.11,-120.164 825.633,-124 841,-124 864.988,-124 872.297,-114.653 862.927,-105.708"/>
<polygon fill="#9a32cd" stroke="#9a32cd" points="818.706,-116.296 819.073,-105.708 812.183,-113.756 818.706,-116.296"/>
<text text-anchor="middle" x="841" y="-193" font-family="FreeSans" font-size="10.00"> ONE</text>
<text text-anchor="middle" x="841" y="-180" font-family="FreeSans" font-size="10.00">DOWN</text>
<text text-anchor="middle" x="841" y="-167" font-family="FreeSans" font-size="10.00">RIGHT</text>
<text text-anchor="middle" x="841" y="-154" font-family="FreeSans" font-size="10.00">LEFT</text>
<text text-anchor="middle" x="841" y="-141" font-family="FreeSans" font-size="10.00">ZERO</text>
<text text-anchor="middle" x="841" y="-128" font-family="FreeSans" font-size="10.00">UP</text>
</g>
<!-- Node25 -->
<g id="node64" class="node"><title>Node25</title>
<a xlink:href="a00213.html" target="_top" xlink:title="4x4 matrix for arbitrary linear transforms including projection.">
<polygon fill="none" stroke="black" points="793.5,-0.5 793.5,-21.5 888.5,-21.5 888.5,-0.5 793.5,-0.5"/>
<text text-anchor="middle" x="841" y="-8.5" font-family="FreeSans" font-size="10.00">Urho3D::Matrix4</text>
</a>
</g>
<!-- Node25&#45;&gt;Node14 -->
<g id="edge80" class="edge"><title>Node25&#45;&gt;Node14</title>
<path fill="none" stroke="#9a32cd" stroke-dasharray="5,2" d="M881.123,-25.2505C926.356,-43.0869 999.619,-77.5522 1046,-128 1091.05,-177.002 1114.24,-256.601 1121.47,-285.277"/>
<polygon fill="#9a32cd" stroke="#9a32cd" points="882.23,-21.9263 871.641,-21.5931 879.711,-28.4573 882.23,-21.9263"/>
<text text-anchor="middle" x="993" y="-132" font-family="FreeSans" font-size="10.00"> projection_</text>
</g>
<!-- Node25&#45;&gt;Node25 -->
<g id="edge82" class="edge"><title>Node25&#45;&gt;Node25</title>
<path fill="none" stroke="#9a32cd" stroke-dasharray="5,2" d="M815.433,-31.0551C817.11,-36.164 825.633,-40 841,-40 864.988,-40 872.297,-30.6531 862.927,-21.7079"/>
<polygon fill="#9a32cd" stroke="#9a32cd" points="818.706,-32.2963 819.073,-21.7079 812.183,-29.7561 818.706,-32.2963"/>
<text text-anchor="middle" x="841" y="-57" font-family="FreeSans" font-size="10.00"> IDENTITY</text>
<text text-anchor="middle" x="841" y="-44" font-family="FreeSans" font-size="10.00">ZERO</text>
</g>
</g>
</svg>
        <g id="navigator" transform="translate(0 0)" fill="#404254">
                <rect fill="#f2f5e9" fill-opacity="0.5" stroke="#606060" stroke-width=".5" x="0" y="0" width="60" height="60"/>
                <use id="zoomplus" xlink:href="#zoomPlus" x="17" y="9" onmousedown="handleZoom(evt,'in')"/>
                <use id="zoomminus" xlink:href="#zoomMin" x="42" y="9" onmousedown="handleZoom(evt,'out')"/>
                <use id="reset" xlink:href="#resetDef" x="30" y="36" onmousedown="handleReset()"/>
                <g id="arrowUp" xlink:href="#dirArrow" transform="translate(30 24)" onmousedown="handlePan(0,-1)">
                  <use xlink:href="#rim" fill="#404040">
                        <set attributeName="fill" to="#808080" begin="arrowUp.mouseover" end="arrowUp.mouseout"/>
                  </use>
                  <path fill="none" stroke="white" stroke-width="1.5" d="M0,-3.0v7 M-2.5,-0.5L0,-3.0L2.5,-0.5"/>
                </g>
                <g id="arrowRight" xlink:href="#dirArrow" transform="rotate(90) translate(36 -43)" onmousedown="handlePan(1,0)">
                  <use xlink:href="#rim" fill="#404040">
                        <set attributeName="fill" to="#808080" begin="arrowRight.mouseover" end="arrowRight.mouseout"/>
                  </use>
                  <path fill="none" stroke="white" stroke-width="1.5" d="M0,-3.0v7 M-2.5,-0.5L0,-3.0L2.5,-0.5"/>
                </g>
                <g id="arrowDown" xlink:href="#dirArrow" transform="rotate(180) translate(-30 -48)" onmousedown="handlePan(0,1)">
                  <use xlink:href="#rim" fill="#404040">
                        <set attributeName="fill" to="#808080" begin="arrowDown.mouseover" end="arrowDown.mouseout"/>
                  </use>
                  <path fill="none" stroke="white" stroke-width="1.5" d="M0,-3.0v7 M-2.5,-0.5L0,-3.0L2.5,-0.5"/>
                </g>
                <g id="arrowLeft" xlink:href="#dirArrow" transform="rotate(270) translate(-36 17)" onmousedown="handlePan(-1,0)">
                  <use xlink:href="#rim" fill="#404040">
                        <set attributeName="fill" to="#808080" begin="arrowLeft.mouseover" end="arrowLeft.mouseout"/>
                  </use>
                  <path fill="none" stroke="white" stroke-width="1.5" d="M0,-3.0v7 M-2.5,-0.5L0,-3.0L2.5,-0.5"/>
                </g>
        </g>
        <svg viewBox="0 0 15 15" width="100%" height="30px" preserveAspectRatio="xMaxYMin meet">
         <g id="arrow_out" transform="scale(0.3 0.3)">
          <a xlink:href="a01078_org.svg" target="_base">
           <rect id="button" ry="5" rx="5" y="6" x="6" height="38" width="38"
                fill="#f2f5e9" fill-opacity="0.5" stroke="#606060" stroke-width="1.0"/>
           <path id="arrow"
             d="M 11.500037,31.436501 C 11.940474,20.09759 22.043105,11.32322 32.158766,21.979434 L 37.068811,17.246167 C 37.068811,17.246167 37.088388,32 37.088388,32 L 22.160133,31.978069 C 22.160133,31.978069 26.997745,27.140456 26.997745,27.140456 C 18.528582,18.264221 13.291696,25.230495 11.500037,31.436501 z"
             style="fill:#404040;"/>
          </a>
         </g>
        </svg>
</svg>
