<?xml version="1.0" encoding="UTF-8" standalone="no"?>
<!DOCTYPE svg PUBLIC "-//W3C//DTD SVG 1.1//EN"
 "http://www.w3.org/Graphics/SVG/1.1/DTD/svg11.dtd">
<!-- Generated by graphviz version 2.26.3 (20100126.1600)
 -->
<!-- Title: Urho3D::ShaderOption Pages: 1 -->
<svg width="440pt" height="228pt"
 viewBox="0.00 0.00 440.00 228.00" xmlns="http://www.w3.org/2000/svg" xmlns:xlink="http://www.w3.org/1999/xlink">
<g id="graph1" class="graph" transform="scale(1 1) rotate(0) translate(4 224)">
<title>Urho3D::ShaderOption</title>
<!-- Node1 -->
<g id="node1" class="node"><title>Node1</title>
<polygon fill="#bfbfbf" stroke="black" points="152.5,-0.5 152.5,-21.5 277.5,-21.5 277.5,-0.5 152.5,-0.5"/>
<text text-anchor="middle" x="215" y="-8.5" font-family="FreeSans" font-size="10.00">Urho3D::ShaderOption</text>
</g>
<!-- Node2 -->
<g id="node2" class="node"><title>Node2</title>
<a xlink:href="a00311.html" target="_top" xlink:title="Urho3D::Vector\&lt; Urho3D\l::String \&gt;">
<polygon fill="none" stroke="black" points="0,-125 0,-159 138,-159 138,-125 0,-125"/>
<text text-anchor="start" x="8" y="-146" font-family="FreeSans" font-size="10.00">Urho3D::Vector&lt; Urho3D</text>
<text text-anchor="middle" x="69" y="-133" font-family="FreeSans" font-size="10.00">::String &gt;</text>
</a>
</g>
<!-- Node2&#45;&gt;Node1 -->
<g id="edge2" class="edge"><title>Node2&#45;&gt;Node1</title>
<path fill="none" stroke="#9a32cd" stroke-dasharray="5,2" d="M82.5671,-116.154C95.6417,-93.4167 117.34,-60.7885 144,-40 154.08,-32.14 166.585,-26.0969 178.278,-21.6133"/>
<polygon fill="#9a32cd" stroke="#9a32cd" points="79.485,-114.494 77.6636,-124.931 85.5961,-117.908 79.485,-114.494"/>
<text text-anchor="middle" x="177.5" y="-96.5" font-family="FreeSans" font-size="10.00"> defines_</text>
<text text-anchor="middle" x="177.5" y="-83.5" font-family="FreeSans" font-size="10.00">includes_</text>
<text text-anchor="middle" x="177.5" y="-70.5" font-family="FreeSans" font-size="10.00">requires_</text>
<text text-anchor="middle" x="177.5" y="-57.5" font-family="FreeSans" font-size="10.00">excludes_</text>
<text text-anchor="middle" x="177.5" y="-44.5" font-family="FreeSans" font-size="10.00">defineValues_</text>
</g>
<!-- Node3 -->
<g id="node4" class="node"><title>Node3</title>
<a xlink:href="a00315.html" target="_top" xlink:title="Vector base class.">
<polygon fill="none" stroke="black" points="99,-198.5 99,-219.5 213,-219.5 213,-198.5 99,-198.5"/>
<text text-anchor="middle" x="156" y="-206.5" font-family="FreeSans" font-size="10.00">Urho3D::VectorBase</text>
</a>
</g>
<!-- Node3&#45;&gt;Node2 -->
<g id="edge4" class="edge"><title>Node3&#45;&gt;Node2</title>
<path fill="none" stroke="midnightblue" d="M133.969,-192.034C120.841,-181.924 104.232,-169.132 91.0926,-159.014"/>
<polygon fill="midnightblue" stroke="midnightblue" points="131.964,-194.907 142.022,-198.235 136.235,-189.361 131.964,-194.907"/>
</g>
<!-- Node5 -->
<g id="node9" class="node"><title>Node5</title>
<a xlink:href="a00220.html" target="_top" xlink:title="Urho3D::PODVector\&lt;\l unsigned \&gt;">
<polygon fill="none" stroke="black" points="155.5,-125 155.5,-159 274.5,-159 274.5,-125 155.5,-125"/>
<text text-anchor="start" x="163.5" y="-146" font-family="FreeSans" font-size="10.00">Urho3D::PODVector&lt;</text>
<text text-anchor="middle" x="215" y="-133" font-family="FreeSans" font-size="10.00"> unsigned &gt;</text>
</a>
</g>
<!-- Node3&#45;&gt;Node5 -->
<g id="edge12" class="edge"><title>Node3&#45;&gt;Node5</title>
<path fill="none" stroke="midnightblue" d="M172.228,-190.572C180.911,-180.712 191.532,-168.65 200.018,-159.014"/>
<polygon fill="midnightblue" stroke="midnightblue" points="169.461,-188.417 165.479,-198.235 174.715,-193.043 169.461,-188.417"/>
</g>
<!-- Node4 -->
<g id="node6" class="node"><title>Node4</title>
<a xlink:href="a00287.html" target="_top" xlink:title="String class.">
<polygon fill="none" stroke="black" points="292,-131.5 292,-152.5 380,-152.5 380,-131.5 292,-131.5"/>
<text text-anchor="middle" x="336" y="-139.5" font-family="FreeSans" font-size="10.00">Urho3D::String</text>
</a>
</g>
<!-- Node4&#45;&gt;Node1 -->
<g id="edge6" class="edge"><title>Node4&#45;&gt;Node1</title>
<path fill="none" stroke="#9a32cd" stroke-dasharray="5,2" d="M335.213,-121.462C333.239,-98.6054 326.636,-61.9999 305,-40 298.381,-33.27 279.547,-26.7344 260.808,-21.5766"/>
<polygon fill="#9a32cd" stroke="#9a32cd" points="331.721,-121.7 335.856,-131.454 338.707,-121.25 331.721,-121.7"/>
<text text-anchor="middle" x="350.5" y="-70.5" font-family="FreeSans" font-size="10.00"> name_</text>
</g>
<!-- Node4&#45;&gt;Node4 -->
<g id="edge8" class="edge"><title>Node4&#45;&gt;Node4</title>
<path fill="none" stroke="#9a32cd" stroke-dasharray="5,2" d="M390.258,-147.304C395.019,-146.185 398,-144.417 398,-142 398,-138.133 390.369,-135.927 380.024,-135.383"/>
<polygon fill="#9a32cd" stroke="#9a32cd" points="389.498,-143.872 380.024,-148.617 390.389,-150.816 389.498,-143.872"/>
<text text-anchor="middle" x="415" y="-139.5" font-family="FreeSans" font-size="10.00"> EMPTY</text>
</g>
<!-- Node5&#45;&gt;Node1 -->
<g id="edge10" class="edge"><title>Node5&#45;&gt;Node1</title>
<path fill="none" stroke="#9a32cd" stroke-dasharray="5,2" d="M215,-114.635C215,-85.7701 215,-41.7433 215,-21.6578"/>
<polygon fill="#9a32cd" stroke="#9a32cd" points="211.5,-114.874 215,-124.874 218.5,-114.874 211.5,-114.874"/>
<text text-anchor="middle" x="258" y="-70.5" font-family="FreeSans" font-size="10.00"> requirementBits_</text>
</g>
</g>
</svg>
