<?xml version="1.0" encoding="UTF-8" standalone="no"?>
<!DOCTYPE svg PUBLIC "-//W3C//DTD SVG 1.1//EN"
 "http://www.w3.org/Graphics/SVG/1.1/DTD/svg11.dtd">
<!-- Generated by graphviz version 2.26.3 (20100126.1600)
 -->
<!-- Title: Urho3D::AnimationStateTrack Pages: 1 -->
<!--zoomable 1082 -->
<svg id="main" version="1.1" xmlns="http://www.w3.org/2000/svg" xmlns:xlink="http://www.w3.org/1999/xlink" xml:space="preserve" onload="init(evt)">
        <defs>
                <circle id="rim" cx="0" cy="0" r="7"/>
                <circle id="rim2" cx="0" cy="0" r="3.5"/>
                <g id="zoomPlus">
                        <use xlink:href="#rim" fill="#404040">
                                <set attributeName="fill" to="#808080" begin="zoomplus.mouseover" end="zoomplus.mouseout"/>
                        </use>
                        <path d="M-4,0h8M0,-4v8" fill="none" stroke="white" stroke-width="1.5" pointer-events="none"/>
                </g>
                <g id="zoomMin">
                        <use xlink:href="#rim" fill="#404040">
                                <set attributeName="fill" to="#808080" begin="zoomminus.mouseover" end="zoomminus.mouseout"/>
                        </use>
                        <path d="M-4,0h8" fill="none" stroke="white" stroke-width="1.5" pointer-events="none"/>
                </g>
                <g id="dirArrow">
                        <path fill="none" stroke="white" stroke-width="1.5" d="M0,-3.0v7 M-2.5,-0.5L0,-3.0L2.5,-0.5"/>
                </g>
               <g id="resetDef">
                       <use xlink:href="#rim2" fill="#404040">
                               <set attributeName="fill" to="#808080" begin="reset.mouseover" end="reset.mouseout"/>
                       </use>
               </g>
        </defs>

<script type="text/javascript">
var viewWidth = 1500;
var viewHeight = 1082;
var sectionId = 'dynsection-0';
</script>
<script xlink:href="svgpan.js"/>
<svg id="graph" class="graph">
<g id="viewport">
<title>Urho3D::AnimationStateTrack</title>
<!-- Node1 -->
<g id="node1" class="node"><title>Node1</title>
<polygon fill="#bfbfbf" stroke="black" points="1334,-712.839 1334,-733.839 1492,-733.839 1492,-712.839 1334,-712.839"/>
<text text-anchor="middle" x="1413" y="-720.839" font-family="FreeSans" font-size="10.00">Urho3D::AnimationStateTrack</text>
</g>
<!-- Node2 -->
<g id="node2" class="node"><title>Node2</title>
<a xlink:href="a00082.html" target="_top" xlink:title="Bone in a skeleton.">
<polygon fill="none" stroke="black" points="1180,-712.839 1180,-733.839 1264,-733.839 1264,-712.839 1180,-712.839"/>
<text text-anchor="middle" x="1222" y="-720.839" font-family="FreeSans" font-size="10.00">Urho3D::Bone</text>
</a>
</g>
<!-- Node2&#45;&gt;Node1 -->
<g id="edge2" class="edge"><title>Node2&#45;&gt;Node1</title>
<path fill="none" stroke="#9a32cd" stroke-dasharray="5,2" d="M1274.55,-723.339C1292.87,-723.339 1313.85,-723.339 1333.84,-723.339"/>
<polygon fill="#9a32cd" stroke="#9a32cd" points="1274.39,-719.839 1264.39,-723.339 1274.39,-726.839 1274.39,-719.839"/>
<text text-anchor="middle" x="1299" y="-727.339" font-family="FreeSans" font-size="10.00"> bone_</text>
</g>
<!-- Node3 -->
<g id="node4" class="node"><title>Node3</title>
<a xlink:href="a00275.html" target="_top" xlink:title="Rotation represented as a four&#45;dimensional normalized vector.">
<polygon fill="none" stroke="black" points="405.5,-645.839 405.5,-666.839 518.5,-666.839 518.5,-645.839 405.5,-645.839"/>
<text text-anchor="middle" x="462" y="-653.839" font-family="FreeSans" font-size="10.00">Urho3D::Quaternion</text>
</a>
</g>
<!-- Node3&#45;&gt;Node2 -->
<g id="edge4" class="edge"><title>Node3&#45;&gt;Node2</title>
<path fill="none" stroke="#9a32cd" stroke-dasharray="5,2" d="M506.723,-669.638C529.123,-675.754 556.779,-682.492 582,-686.339 805.349,-720.406 1076.91,-723.71 1179.78,-723.618"/>
<polygon fill="#9a32cd" stroke="#9a32cd" points="507.401,-666.193 496.829,-666.884 505.524,-672.937 507.401,-666.193"/>
<text text-anchor="middle" x="909" y="-722.339" font-family="FreeSans" font-size="10.00"> initialRotation_</text>
</g>
<!-- Node3&#45;&gt;Node3 -->
<g id="edge6" class="edge"><title>Node3&#45;&gt;Node3</title>
<path fill="none" stroke="#9a32cd" stroke-dasharray="5,2" d="M428.508,-676.018C430.302,-681.313 441.467,-685.339 462,-685.339 493.289,-685.339 502.822,-675.992 490.6,-667.047"/>
<polygon fill="#9a32cd" stroke="#9a32cd" points="431.685,-677.502 433.4,-667.047 425.539,-674.15 431.685,-677.502"/>
<text text-anchor="middle" x="462" y="-689.339" font-family="FreeSans" font-size="10.00"> IDENTITY</text>
</g>
<!-- Node6 -->
<g id="node12" class="node"><title>Node6</title>
<a xlink:href="a00239.html" target="_top" xlink:title="Scene node that may contain components and child nodes.">
<polygon fill="none" stroke="black" points="745.5,-461.839 745.5,-482.839 830.5,-482.839 830.5,-461.839 745.5,-461.839"/>
<text text-anchor="middle" x="788" y="-469.839" font-family="FreeSans" font-size="10.00">Urho3D::Node</text>
</a>
</g>
<!-- Node3&#45;&gt;Node6 -->
<g id="edge36" class="edge"><title>Node3&#45;&gt;Node6</title>
<path fill="none" stroke="#9a32cd" stroke-dasharray="5,2" d="M528.76,-659.705C580.8,-659.084 652.615,-650.777 704,-615.339 752.59,-581.828 777.225,-510.288 785.112,-483.114"/>
<polygon fill="#9a32cd" stroke="#9a32cd" points="528.618,-656.206 518.628,-659.733 528.637,-663.205 528.618,-656.206"/>
<text text-anchor="middle" x="643" y="-673.339" font-family="FreeSans" font-size="10.00"> worldRotation_</text>
<text text-anchor="middle" x="643" y="-660.339" font-family="FreeSans" font-size="10.00">rotation_</text>
</g>
<!-- Node4 -->
<g id="node7" class="node"><title>Node4</title>
<a xlink:href="a00378.html" target="_top" xlink:title="Three&#45;dimensional vector.">
<polygon fill="none" stroke="black" points="53,-120.839 53,-141.839 149,-141.839 149,-120.839 53,-120.839"/>
<text text-anchor="middle" x="101" y="-128.839" font-family="FreeSans" font-size="10.00">Urho3D::Vector3</text>
</a>
</g>
<!-- Node4&#45;&gt;Node2 -->
<g id="edge8" class="edge"><title>Node4&#45;&gt;Node2</title>
<path fill="none" stroke="#9a32cd" stroke-dasharray="5,2" d="M159.289,-130.947C247.342,-131.068 419.362,-134.084 564,-153.339 694.836,-170.756 736.921,-156.396 854,-217.339 990.999,-288.65 1021.52,-325.748 1110,-452.339 1142.37,-498.655 1202.82,-668.437 1218.31,-712.719"/>
<polygon fill="#9a32cd" stroke="#9a32cd" points="159.232,-127.447 149.231,-130.946 159.231,-134.447 159.232,-127.447"/>
<text text-anchor="middle" x="788" y="-234.339" font-family="FreeSans" font-size="10.00"> initialScale_</text>
<text text-anchor="middle" x="788" y="-221.339" font-family="FreeSans" font-size="10.00">initialPosition_</text>
</g>
<!-- Node4&#45;&gt;Node4 -->
<g id="edge10" class="edge"><title>Node4&#45;&gt;Node4</title>
<path fill="none" stroke="#9a32cd" stroke-dasharray="5,2" d="M67.5078,-151.018C69.3025,-156.313 80.4666,-160.339 101,-160.339 132.289,-160.339 141.822,-150.992 129.6,-142.047"/>
<polygon fill="#9a32cd" stroke="#9a32cd" points="70.6851,-152.502 72.3998,-142.047 64.5395,-149.15 70.6851,-152.502"/>
<text text-anchor="middle" x="101" y="-255.339" font-family="FreeSans" font-size="10.00"> ONE</text>
<text text-anchor="middle" x="101" y="-242.339" font-family="FreeSans" font-size="10.00">DOWN</text>
<text text-anchor="middle" x="101" y="-229.339" font-family="FreeSans" font-size="10.00">BACK</text>
<text text-anchor="middle" x="101" y="-216.339" font-family="FreeSans" font-size="10.00">RIGHT</text>
<text text-anchor="middle" x="101" y="-203.339" font-family="FreeSans" font-size="10.00">LEFT</text>
<text text-anchor="middle" x="101" y="-190.339" font-family="FreeSans" font-size="10.00">ZERO</text>
<text text-anchor="middle" x="101" y="-177.339" font-family="FreeSans" font-size="10.00">FORWARD</text>
<text text-anchor="middle" x="101" y="-164.339" font-family="FreeSans" font-size="10.00">UP</text>
</g>
<!-- Node4&#45;&gt;Node6 -->
<g id="edge48" class="edge"><title>Node4&#45;&gt;Node6</title>
<path fill="none" stroke="#9a32cd" stroke-dasharray="5,2" d="M159.138,-137.826C293.652,-153.883 621.164,-199.324 704,-269.339 766.046,-321.782 782.995,-427.488 786.938,-461.52"/>
<polygon fill="#9a32cd" stroke="#9a32cd" points="159.368,-134.328 149.026,-136.63 158.546,-141.28 159.368,-134.328"/>
<text text-anchor="middle" x="462" y="-226.339" font-family="FreeSans" font-size="10.00"> scale_</text>
<text text-anchor="middle" x="462" y="-213.339" font-family="FreeSans" font-size="10.00">position_</text>
</g>
<!-- Node20 -->
<g id="node51" class="node"><title>Node20</title>
<a xlink:href="a00106.html" target="_top" xlink:title="Connection to a remote network host.">
<polygon fill="none" stroke="red" points="405.5,-308.839 405.5,-329.839 518.5,-329.839 518.5,-308.839 405.5,-308.839"/>
<text text-anchor="middle" x="462" y="-316.839" font-family="FreeSans" font-size="10.00">Urho3D::Connection</text>
</a>
</g>
<!-- Node4&#45;&gt;Node20 -->
<g id="edge68" class="edge"><title>Node4&#45;&gt;Node20</title>
<path fill="none" stroke="#9a32cd" stroke-dasharray="5,2" d="M127.055,-147.329C171.423,-174.633 264.383,-232.165 342,-282.339 350.075,-287.558 351.198,-290.469 360,-294.339 374.187,-300.576 390.198,-305.427 405.258,-309.125"/>
<polygon fill="#9a32cd" stroke="#9a32cd" points="128.699,-144.232 118.348,-141.975 125.033,-150.195 128.699,-144.232"/>
<text text-anchor="middle" x="281" y="-286.339" font-family="FreeSans" font-size="10.00"> position_</text>
</g>
<!-- Node23 -->
<g id="node62" class="node"><title>Node23</title>
<a xlink:href="a00084.html" target="_top" xlink:title="Three&#45;dimensional axis&#45;aligned bounding box.">
<polygon fill="none" stroke="black" points="582,-46.8387 582,-67.8387 704,-67.8387 704,-46.8387 582,-46.8387"/>
<text text-anchor="middle" x="643" y="-54.8387" font-family="FreeSans" font-size="10.00">Urho3D::BoundingBox</text>
</a>
</g>
<!-- Node4&#45;&gt;Node23 -->
<g id="edge82" class="edge"><title>Node4&#45;&gt;Node23</title>
<path fill="none" stroke="#9a32cd" stroke-dasharray="5,2" d="M135.982,-117.062C159.367,-108.149 191.042,-97.2763 220,-91.3387 346.844,-65.3306 498.891,-59.0082 581.753,-57.6001"/>
<polygon fill="#9a32cd" stroke="#9a32cd" points="134.556,-113.861 126.499,-120.742 137.088,-120.387 134.556,-113.861"/>
<text text-anchor="middle" x="281" y="-108.339" font-family="FreeSans" font-size="10.00"> max_</text>
<text text-anchor="middle" x="281" y="-95.3387" font-family="FreeSans" font-size="10.00">min_</text>
</g>
<!-- Node5 -->
<g id="node10" class="node"><title>Node5</title>
<a xlink:href="a00389.html" target="_top" xlink:title="Urho3D::WeakPtr\&lt; Urho3D\l::Node \&gt;">
<polygon fill="none" stroke="black" points="964,-79.3387 964,-113.339 1110,-113.339 1110,-79.3387 964,-79.3387"/>
<text text-anchor="start" x="972" y="-100.339" font-family="FreeSans" font-size="10.00">Urho3D::WeakPtr&lt; Urho3D</text>
<text text-anchor="middle" x="1037" y="-87.3387" font-family="FreeSans" font-size="10.00">::Node &gt;</text>
</a>
</g>
<!-- Node5&#45;&gt;Node1 -->
<g id="edge90" class="edge"><title>Node5&#45;&gt;Node1</title>
<path fill="none" stroke="#9a32cd" stroke-dasharray="5,2" d="M1120.34,-83.6933C1135.17,-85.0232 1149.76,-88.991 1162,-97.3387 1387.37,-251.1 1410.42,-643.536 1412.74,-712.811"/>
<polygon fill="#9a32cd" stroke="#9a32cd" points="1120.23,-80.1832 1110.06,-83.1726 1119.87,-87.1742 1120.23,-80.1832"/>
<text text-anchor="middle" x="1222" y="-198.339" font-family="FreeSans" font-size="10.00"> node_</text>
</g>
<!-- Node5&#45;&gt;Node2 -->
<g id="edge12" class="edge"><title>Node5&#45;&gt;Node2</title>
<path fill="none" stroke="#9a32cd" stroke-dasharray="5,2" d="M1120.17,-97.2222C1136,-101.222 1151.02,-108.313 1162,-120.339 1203.68,-165.976 1219.4,-635.954 1221.7,-712.753"/>
<polygon fill="#9a32cd" stroke="#9a32cd" points="1120.76,-93.768 1110.25,-95.1143 1119.3,-100.615 1120.76,-93.768"/>
<text text-anchor="middle" x="1145" y="-124.339" font-family="FreeSans" font-size="10.00"> node_</text>
</g>
<!-- Node6&#45;&gt;Node5 -->
<g id="edge14" class="edge"><title>Node6&#45;&gt;Node5</title>
<path fill="none" stroke="#9a32cd" stroke-dasharray="5,2" d="M800.844,-452.943C844.133,-387.576 984.274,-175.957 1025.49,-113.712"/>
<polygon fill="#9a32cd" stroke="#9a32cd" points="797.787,-451.221 795.184,-461.491 803.623,-455.086 797.787,-451.221"/>
<text text-anchor="middle" x="909" y="-344.339" font-family="FreeSans" font-size="10.00"> ptr_</text>
</g>
<!-- Node6&#45;&gt;Node6 -->
<g id="edge52" class="edge"><title>Node6&#45;&gt;Node6</title>
<path fill="none" stroke="#9a32cd" stroke-dasharray="5,2" d="M765.885,-492.765C767.591,-497.688 774.963,-501.339 788,-501.339 808.859,-501.339 815.215,-491.992 807.067,-483.047"/>
<polygon fill="#9a32cd" stroke="#9a32cd" points="769.28,-493.636 768.933,-483.047 762.601,-491.541 769.28,-493.636"/>
<text text-anchor="middle" x="788" y="-505.339" font-family="FreeSans" font-size="10.00"> parent_</text>
</g>
<!-- Node12 -->
<g id="node24" class="node"><title>Node12</title>
<a xlink:href="a00300.html" target="_top" xlink:title="Root scene node, represents the whole scene.">
<polygon fill="none" stroke="red" points="992.5,-461.839 992.5,-482.839 1081.5,-482.839 1081.5,-461.839 992.5,-461.839"/>
<text text-anchor="middle" x="1037" y="-469.839" font-family="FreeSans" font-size="10.00">Urho3D::Scene</text>
</a>
</g>
<!-- Node6&#45;&gt;Node12 -->
<g id="edge28" class="edge"><title>Node6&#45;&gt;Node12</title>
<path fill="none" stroke="midnightblue" d="M840.871,-470.888C851.194,-470.659 861.935,-470.459 872,-470.339 904.887,-469.947 913.113,-469.977 946,-470.339 961.011,-470.504 977.413,-470.822 992.106,-471.156"/>
<polygon fill="midnightblue" stroke="midnightblue" points="840.645,-467.392 830.729,-471.125 840.808,-474.39 840.645,-467.392"/>
</g>
<!-- Node7 -->
<g id="node14" class="node"><title>Node7</title>
<a xlink:href="a00054.html" target="_top" xlink:title="Base class for animatable object, an animatable object can be set animation on it&#39;s attributes...">
<polygon fill="none" stroke="red" points="405,-397.839 405,-418.839 519,-418.839 519,-397.839 405,-397.839"/>
<text text-anchor="middle" x="462" y="-405.839" font-family="FreeSans" font-size="10.00">Urho3D::Animatable</text>
</a>
</g>
<!-- Node7&#45;&gt;Node6 -->
<g id="edge16" class="edge"><title>Node7&#45;&gt;Node6</title>
<path fill="none" stroke="midnightblue" d="M529.414,-420.155C578.037,-428.853 645.191,-441.225 704,-453.339 717.473,-456.114 732.111,-459.348 745.336,-462.353"/>
<polygon fill="midnightblue" stroke="midnightblue" points="529.789,-416.666 519.33,-418.356 528.56,-423.558 529.789,-416.666"/>
</g>
<!-- Node8 -->
<g id="node16" class="node"><title>Node8</title>
<a xlink:href="a00312.html" target="_top" xlink:title="Base class for objects with automatic serialization through attributes.">
<polygon fill="none" stroke="red" points="44,-441.839 44,-462.839 158,-462.839 158,-441.839 44,-441.839"/>
<text text-anchor="middle" x="101" y="-449.839" font-family="FreeSans" font-size="10.00">Urho3D::Serializable</text>
</a>
</g>
<!-- Node8&#45;&gt;Node7 -->
<g id="edge18" class="edge"><title>Node8&#45;&gt;Node7</title>
<path fill="none" stroke="midnightblue" d="M168.394,-444.125C236.488,-435.825 340.554,-423.141 404.768,-415.314"/>
<polygon fill="midnightblue" stroke="midnightblue" points="167.705,-440.683 158.202,-445.367 168.552,-447.631 167.705,-440.683"/>
</g>
<!-- Node9 -->
<g id="node18" class="node"><title>Node9</title>
<a xlink:href="a00178.html" target="_top" xlink:title="Urho3D::HashMap\&lt; Urho3D\l::String, Urho3D::SharedPtr\l\&lt; Urho3D::AttributeAnimationInfo \&gt; \&gt;">
<polygon fill="none" stroke="red" points="0.5,-375.839 0.5,-422.839 201.5,-422.839 201.5,-375.839 0.5,-375.839"/>
<text text-anchor="start" x="8.5" y="-409.839" font-family="FreeSans" font-size="10.00">Urho3D::HashMap&lt; Urho3D</text>
<text text-anchor="start" x="8.5" y="-396.839" font-family="FreeSans" font-size="10.00">::String, Urho3D::SharedPtr</text>
<text text-anchor="middle" x="101" y="-383.839" font-family="FreeSans" font-size="10.00">&lt; Urho3D::AttributeAnimationInfo &gt; &gt;</text>
</a>
</g>
<!-- Node9&#45;&gt;Node7 -->
<g id="edge20" class="edge"><title>Node9&#45;&gt;Node7</title>
<path fill="none" stroke="#9a32cd" stroke-dasharray="5,2" d="M211.685,-402.098C275.555,-403.691 353.213,-405.627 404.928,-406.916"/>
<polygon fill="#9a32cd" stroke="#9a32cd" points="211.643,-398.596 201.559,-401.846 211.468,-405.594 211.643,-398.596"/>
<text text-anchor="middle" x="281" y="-409.339" font-family="FreeSans" font-size="10.00"> attributeAnimationInfos_</text>
</g>
<!-- Node10 -->
<g id="node20" class="node"><title>Node10</title>
<a xlink:href="a00270.html" target="_top" xlink:title="Urho3D::PODVector\&lt;\l Urho3D::Node * \&gt;">
<polygon fill="none" stroke="black" points="402.5,-437.339 402.5,-471.339 521.5,-471.339 521.5,-437.339 402.5,-437.339"/>
<text text-anchor="start" x="410.5" y="-458.339" font-family="FreeSans" font-size="10.00">Urho3D::PODVector&lt;</text>
<text text-anchor="middle" x="462" y="-445.339" font-family="FreeSans" font-size="10.00"> Urho3D::Node * &gt;</text>
</a>
</g>
<!-- Node10&#45;&gt;Node6 -->
<g id="edge22" class="edge"><title>Node10&#45;&gt;Node6</title>
<path fill="none" stroke="#9a32cd" stroke-dasharray="5,2" d="M531.783,-455.649C580.166,-456.872 646.059,-459.162 704,-463.339 717.459,-464.309 732.092,-465.744 745.319,-467.185"/>
<polygon fill="#9a32cd" stroke="#9a32cd" points="531.816,-452.149 521.734,-455.404 531.646,-459.147 531.816,-452.149"/>
<text text-anchor="middle" x="643" y="-467.339" font-family="FreeSans" font-size="10.00"> dependencyNodes_</text>
</g>
<!-- Node11 -->
<g id="node22" class="node"><title>Node11</title>
<a xlink:href="a00380.html" target="_top" xlink:title="Vector base class.">
<polygon fill="none" stroke="black" points="44,-550.839 44,-571.839 158,-571.839 158,-550.839 44,-550.839"/>
<text text-anchor="middle" x="101" y="-558.839" font-family="FreeSans" font-size="10.00">Urho3D::VectorBase</text>
</a>
</g>
<!-- Node11&#45;&gt;Node10 -->
<g id="edge24" class="edge"><title>Node11&#45;&gt;Node10</title>
<path fill="none" stroke="midnightblue" d="M143.305,-547.774C165.949,-540.708 194.378,-532.146 220,-525.339 273.767,-511.054 292.946,-523.58 342,-497.339 351.703,-492.148 350.36,-485.645 360,-480.339 372.967,-473.2 387.94,-467.976 402.352,-464.17"/>
<polygon fill="midnightblue" stroke="midnightblue" points="142.152,-544.468 133.66,-550.802 144.249,-551.146 142.152,-544.468"/>
</g>
<!-- Node15 -->
<g id="node33" class="node"><title>Node15</title>
<a xlink:href="a00376.html" target="_top" xlink:title="Urho3D::Vector\&lt; Urho3D\l::WeakPtr\&lt; Urho3D::Component \&gt; \&gt;">
<polygon fill="none" stroke="black" points="365,-593.339 365,-627.339 559,-627.339 559,-593.339 365,-593.339"/>
<text text-anchor="start" x="373" y="-614.339" font-family="FreeSans" font-size="10.00">Urho3D::Vector&lt; Urho3D</text>
<text text-anchor="middle" x="462" y="-601.339" font-family="FreeSans" font-size="10.00">::WeakPtr&lt; Urho3D::Component &gt; &gt;</text>
</a>
</g>
<!-- Node11&#45;&gt;Node15 -->
<g id="edge40" class="edge"><title>Node11&#45;&gt;Node15</title>
<path fill="none" stroke="midnightblue" d="M168.249,-570.467C223.592,-577.979 302.769,-588.726 364.979,-597.17"/>
<polygon fill="midnightblue" stroke="midnightblue" points="168.581,-566.98 158.202,-569.103 167.64,-573.916 168.581,-566.98"/>
</g>
<!-- Node17 -->
<g id="node38" class="node"><title>Node17</title>
<a xlink:href="a00376.html" target="_top" xlink:title="Urho3D::Vector\&lt; Urho3D\l::SharedPtr\&lt; Urho3D::Component \&gt; \&gt;">
<polygon fill="none" stroke="black" points="360.5,-489.339 360.5,-523.339 563.5,-523.339 563.5,-489.339 360.5,-489.339"/>
<text text-anchor="start" x="368.5" y="-510.339" font-family="FreeSans" font-size="10.00">Urho3D::Vector&lt; Urho3D</text>
<text text-anchor="middle" x="462" y="-497.339" font-family="FreeSans" font-size="10.00">::SharedPtr&lt; Urho3D::Component &gt; &gt;</text>
</a>
</g>
<!-- Node11&#45;&gt;Node17 -->
<g id="edge46" class="edge"><title>Node11&#45;&gt;Node17</title>
<path fill="none" stroke="midnightblue" d="M168.344,-551.079C222.313,-542.856 298.901,-531.188 360.329,-521.829"/>
<polygon fill="midnightblue" stroke="midnightblue" points="167.56,-547.658 158.202,-552.624 168.615,-554.578 167.56,-547.658"/>
</g>
<!-- Node19 -->
<g id="node47" class="node"><title>Node19</title>
<a xlink:href="a00376.html" target="_top" xlink:title="Urho3D::Vector\&lt; Urho3D\l::SharedPtr\&lt; Urho3D::Node \&gt; \&gt;">
<polygon fill="none" stroke="black" points="375.5,-541.339 375.5,-575.339 548.5,-575.339 548.5,-541.339 375.5,-541.339"/>
<text text-anchor="start" x="383.5" y="-562.339" font-family="FreeSans" font-size="10.00">Urho3D::Vector&lt; Urho3D</text>
<text text-anchor="middle" x="462" y="-549.339" font-family="FreeSans" font-size="10.00">::SharedPtr&lt; Urho3D::Node &gt; &gt;</text>
</a>
</g>
<!-- Node11&#45;&gt;Node19 -->
<g id="edge60" class="edge"><title>Node11&#45;&gt;Node19</title>
<path fill="none" stroke="midnightblue" d="M168.441,-560.778C226.94,-560.292 311.96,-559.586 375.463,-559.058"/>
<polygon fill="midnightblue" stroke="midnightblue" points="168.172,-557.28 158.202,-560.863 168.23,-564.28 168.172,-557.28"/>
</g>
<!-- Node25 -->
<g id="node71" class="node"><title>Node25</title>
<a xlink:href="a00376.html" target="_top" xlink:title="Urho3D::Vector\&lt; Urho3D\l::AnimationKeyFrame \&gt;">
<polygon fill="none" stroke="black" points="393,-920.339 393,-954.339 531,-954.339 531,-920.339 393,-920.339"/>
<text text-anchor="start" x="401" y="-941.339" font-family="FreeSans" font-size="10.00">Urho3D::Vector&lt; Urho3D</text>
<text text-anchor="middle" x="462" y="-928.339" font-family="FreeSans" font-size="10.00">::AnimationKeyFrame &gt;</text>
</a>
</g>
<!-- Node11&#45;&gt;Node25 -->
<g id="edge96" class="edge"><title>Node11&#45;&gt;Node25</title>
<path fill="none" stroke="midnightblue" d="M109.631,-581.093C136.87,-641.015 227.143,-822.064 360,-911.339 369.859,-917.964 381.288,-922.901 392.853,-926.58"/>
<polygon fill="midnightblue" stroke="midnightblue" points="112.82,-579.65 105.541,-571.951 106.43,-582.508 112.82,-579.65"/>
</g>
<!-- Node12&#45;&gt;Node6 -->
<g id="edge26" class="edge"><title>Node12&#45;&gt;Node6</title>
<path fill="none" stroke="#9a32cd" stroke-dasharray="5,2" d="M982.103,-472.339C936.437,-472.339 872.361,-472.339 830.522,-472.339"/>
<polygon fill="#9a32cd" stroke="#9a32cd" points="982.131,-475.839 992.131,-472.339 982.131,-468.839 982.131,-475.839"/>
<text text-anchor="middle" x="909" y="-476.339" font-family="FreeSans" font-size="10.00"> scene_</text>
</g>
<!-- Node13 -->
<g id="node27" class="node"><title>Node13</title>
<a xlink:href="a00345.html" target="_top" xlink:title="String class.">
<polygon fill="none" stroke="black" points="57,-979.839 57,-1000.84 145,-1000.84 145,-979.839 57,-979.839"/>
<text text-anchor="middle" x="101" y="-987.839" font-family="FreeSans" font-size="10.00">Urho3D::String</text>
</a>
</g>
<!-- Node13&#45;&gt;Node2 -->
<g id="edge84" class="edge"><title>Node13&#45;&gt;Node2</title>
<path fill="none" stroke="#9a32cd" stroke-dasharray="5,2" d="M141.763,-1003.92C258.597,-1040.42 602.396,-1130.81 854,-1022.34 1021.82,-949.989 1175.32,-778.269 1213.13,-733.932"/>
<polygon fill="#9a32cd" stroke="#9a32cd" points="142.724,-1000.55 132.134,-1000.87 140.611,-1007.22 142.724,-1000.55"/>
<text text-anchor="middle" x="788" y="-1064.34" font-family="FreeSans" font-size="10.00"> name_</text>
</g>
<!-- Node13&#45;&gt;Node6 -->
<g id="edge50" class="edge"><title>Node13&#45;&gt;Node6</title>
<path fill="none" stroke="#9a32cd" stroke-dasharray="5,2" d="M114.292,-971.509C148.761,-924.28 246.303,-800.49 360,-743.339 394.649,-725.922 673.887,-708.775 704,-684.339 769.786,-630.954 784.285,-518.678 787.271,-483.275"/>
<polygon fill="#9a32cd" stroke="#9a32cd" points="111.433,-969.49 108.426,-979.649 117.112,-973.582 111.433,-969.49"/>
<text text-anchor="middle" x="462" y="-747.339" font-family="FreeSans" font-size="10.00"> name_</text>
</g>
<!-- Node13&#45;&gt;Node12 -->
<g id="edge30" class="edge"><title>Node13&#45;&gt;Node12</title>
<path fill="none" stroke="#9a32cd" stroke-dasharray="5,2" d="M155.324,-997.26C307.466,-1015.61 734.452,-1059.72 854,-993.339 918.77,-957.377 916.519,-922.304 946,-854.339 1006.36,-715.177 1030.54,-529.353 1035.83,-483.102"/>
<polygon fill="#9a32cd" stroke="#9a32cd" points="155.628,-993.771 145.279,-996.038 154.783,-1000.72 155.628,-993.771"/>
<text text-anchor="middle" x="643" y="-1032.34" font-family="FreeSans" font-size="10.00"> fileName_</text>
</g>
<!-- Node13&#45;&gt;Node13 -->
<g id="edge32" class="edge"><title>Node13&#45;&gt;Node13</title>
<path fill="none" stroke="#9a32cd" stroke-dasharray="5,2" d="M67.5078,-1010.02C69.3025,-1015.31 80.4666,-1019.34 101,-1019.34 132.289,-1019.34 141.822,-1009.99 129.6,-1001.05"/>
<polygon fill="#9a32cd" stroke="#9a32cd" points="70.6851,-1011.5 72.3998,-1001.05 64.5395,-1008.15 70.6851,-1011.5"/>
<text text-anchor="middle" x="101" y="-1023.34" font-family="FreeSans" font-size="10.00"> EMPTY</text>
</g>
<!-- Node13&#45;&gt;Node20 -->
<g id="edge70" class="edge"><title>Node13&#45;&gt;Node20</title>
<path fill="none" stroke="#9a32cd" stroke-dasharray="5,2" d="M109.366,-970.32C128.732,-924.005 178.187,-805.889 220,-707.339 273.815,-580.499 299.229,-553.316 342,-422.339 353.044,-388.519 335.014,-369.666 360,-344.339 371.972,-332.203 388.806,-325.597 405.352,-322.101"/>
<polygon fill="#9a32cd" stroke="#9a32cd" points="106.034,-969.216 105.406,-979.792 112.492,-971.916 106.034,-969.216"/>
<text text-anchor="middle" x="281" y="-711.339" font-family="FreeSans" font-size="10.00"> sceneFileName_</text>
</g>
<!-- Node24 -->
<g id="node69" class="node"><title>Node24</title>
<a xlink:href="a00064.html" target="_top" xlink:title="Skeletal animation track, stores keyframes of a single bone.">
<polygon fill="none" stroke="black" points="722,-962.839 722,-983.839 854,-983.839 854,-962.839 722,-962.839"/>
<text text-anchor="middle" x="788" y="-970.839" font-family="FreeSans" font-size="10.00">Urho3D::AnimationTrack</text>
</a>
</g>
<!-- Node13&#45;&gt;Node24 -->
<g id="edge98" class="edge"><title>Node13&#45;&gt;Node24</title>
<path fill="none" stroke="#9a32cd" stroke-dasharray="5,2" d="M155.366,-989.304C261.063,-987.242 501.659,-982.301 704,-976.339 709.835,-976.167 715.897,-975.975 721.973,-975.775"/>
<polygon fill="#9a32cd" stroke="#9a32cd" points="155.192,-985.807 145.262,-989.5 155.328,-992.805 155.192,-985.807"/>
<text text-anchor="middle" x="462" y="-988.339" font-family="FreeSans" font-size="10.00"> name_</text>
</g>
<!-- Node14 -->
<g id="node30" class="node"><title>Node14</title>
<a xlink:href="a00178.html" target="_top" xlink:title="Urho3D::HashMap\&lt; ShortString\lHash, Variant \&gt;">
<polygon fill="none" stroke="red" points="16,-282.339 16,-316.339 186,-316.339 186,-282.339 16,-282.339"/>
<text text-anchor="start" x="24" y="-303.339" font-family="FreeSans" font-size="10.00">Urho3D::HashMap&lt; ShortString</text>
<text text-anchor="middle" x="101" y="-290.339" font-family="FreeSans" font-size="10.00">Hash, Variant &gt;</text>
</a>
</g>
<!-- Node14&#45;&gt;Node6 -->
<g id="edge62" class="edge"><title>Node14&#45;&gt;Node6</title>
<path fill="none" stroke="#9a32cd" stroke-dasharray="5,2" d="M196.232,-287.486C345.372,-271.002 625.174,-249.085 704,-305.339 759.212,-344.74 780.261,-431.115 786.129,-461.503"/>
<polygon fill="#9a32cd" stroke="#9a32cd" points="195.711,-284.022 186.162,-288.613 196.489,-290.979 195.711,-284.022"/>
<text text-anchor="middle" x="462" y="-277.339" font-family="FreeSans" font-size="10.00"> vars_</text>
</g>
<!-- Node14&#45;&gt;Node12 -->
<g id="edge34" class="edge"><title>Node14&#45;&gt;Node12</title>
<path fill="none" stroke="#9a32cd" stroke-dasharray="5,2" d="M181.962,-279.483C188.772,-277.515 195.525,-275.457 202,-273.339 265.692,-252.498 292.16,-262.139 342,-217.339 354.716,-205.908 345.352,-192.158 360,-183.339 437.675,-136.572 475.939,-161.759 564,-183.339 772.432,-234.417 976.651,-415.802 1025.84,-461.716"/>
<polygon fill="#9a32cd" stroke="#9a32cd" points="180.645,-276.218 171.97,-282.301 182.544,-282.956 180.645,-276.218"/>
<text text-anchor="middle" x="643" y="-238.339" font-family="FreeSans" font-size="10.00"> smoothingData_</text>
</g>
<!-- Node14&#45;&gt;Node20 -->
<g id="edge72" class="edge"><title>Node14&#45;&gt;Node20</title>
<path fill="none" stroke="#9a32cd" stroke-dasharray="5,2" d="M196.344,-298.38C240.683,-298.586 294.091,-299.759 342,-303.339 362.75,-304.889 385.397,-307.633 405.371,-310.416"/>
<polygon fill="#9a32cd" stroke="#9a32cd" points="196.165,-294.88 186.154,-298.349 196.143,-301.88 196.165,-294.88"/>
<text text-anchor="middle" x="281" y="-307.339" font-family="FreeSans" font-size="10.00"> identity_</text>
</g>
<!-- Node15&#45;&gt;Node6 -->
<g id="edge38" class="edge"><title>Node15&#45;&gt;Node6</title>
<path fill="none" stroke="#9a32cd" stroke-dasharray="5,2" d="M569.394,-600.309C613.174,-592.869 663.021,-579.91 704,-557.339 738.346,-538.421 767.763,-501.106 780.808,-482.87"/>
<polygon fill="#9a32cd" stroke="#9a32cd" points="568.591,-596.894 559.28,-601.949 569.712,-603.803 568.591,-596.894"/>
<text text-anchor="middle" x="643" y="-602.339" font-family="FreeSans" font-size="10.00"> listeners_</text>
</g>
<!-- Node16 -->
<g id="node36" class="node"><title>Node16</title>
<a xlink:href="a00381.html" target="_top" xlink:title="Dynamically sized buffer that can be read and written to as a stream.">
<polygon fill="none" stroke="red" points="41.5,-335.839 41.5,-356.839 160.5,-356.839 160.5,-335.839 41.5,-335.839"/>
<text text-anchor="middle" x="101" y="-343.839" font-family="FreeSans" font-size="10.00">Urho3D::VectorBuffer</text>
</a>
</g>
<!-- Node16&#45;&gt;Node6 -->
<g id="edge42" class="edge"><title>Node16&#45;&gt;Node6</title>
<path fill="none" stroke="#9a32cd" stroke-dasharray="5,2" d="M171.024,-350.197C295.746,-357.144 545.141,-371.399 564,-375.339 645.514,-392.368 733.867,-440.405 770.534,-461.814"/>
<polygon fill="#9a32cd" stroke="#9a32cd" points="170.987,-346.69 160.808,-349.629 170.598,-353.679 170.987,-346.69"/>
<text text-anchor="middle" x="462" y="-379.339" font-family="FreeSans" font-size="10.00"> attrBuffer_</text>
</g>
<!-- Node16&#45;&gt;Node20 -->
<g id="edge66" class="edge"><title>Node16&#45;&gt;Node20</title>
<path fill="none" stroke="#9a32cd" stroke-dasharray="5,2" d="M170.849,-341.115C239.15,-336.006 341.87,-328.324 405.277,-323.581"/>
<polygon fill="#9a32cd" stroke="#9a32cd" points="170.323,-337.644 160.612,-341.88 170.845,-344.625 170.323,-337.644"/>
<text text-anchor="middle" x="281" y="-341.339" font-family="FreeSans" font-size="10.00"> msg_</text>
</g>
<!-- Node17&#45;&gt;Node6 -->
<g id="edge44" class="edge"><title>Node17&#45;&gt;Node6</title>
<path fill="none" stroke="#9a32cd" stroke-dasharray="5,2" d="M573.944,-494.664C632.961,-488.508 701.912,-481.317 745.269,-476.795"/>
<polygon fill="#9a32cd" stroke="#9a32cd" points="573.39,-491.202 563.807,-495.721 574.117,-498.164 573.39,-491.202"/>
<text text-anchor="middle" x="643" y="-498.339" font-family="FreeSans" font-size="10.00"> components_</text>
</g>
<!-- Node18 -->
<g id="node44" class="node"><title>Node18</title>
<a xlink:href="a00346.html" target="_top" xlink:title="32&#45;bit hash value for a string.">
<polygon fill="none" stroke="black" points="405.5,-849.839 405.5,-870.839 518.5,-870.839 518.5,-849.839 405.5,-849.839"/>
<text text-anchor="middle" x="462" y="-857.839" font-family="FreeSans" font-size="10.00">Urho3D::StringHash</text>
</a>
</g>
<!-- Node18&#45;&gt;Node2 -->
<g id="edge86" class="edge"><title>Node18&#45;&gt;Node2</title>
<path fill="none" stroke="#9a32cd" stroke-dasharray="5,2" d="M528.842,-861.425C648.594,-861.438 906.239,-852.623 1110,-784.339 1146.95,-771.956 1186.03,-747.768 1206.85,-733.859"/>
<polygon fill="#9a32cd" stroke="#9a32cd" points="528.735,-857.925 518.728,-861.403 528.72,-864.925 528.735,-857.925"/>
<text text-anchor="middle" x="909" y="-841.339" font-family="FreeSans" font-size="10.00"> nameHash_</text>
</g>
<!-- Node18&#45;&gt;Node6 -->
<g id="edge54" class="edge"><title>Node18&#45;&gt;Node6</title>
<path fill="none" stroke="#9a32cd" stroke-dasharray="5,2" d="M528.52,-849.995C540.482,-847.376 552.725,-844.184 564,-840.339 572.23,-837.532 698.458,-777.04 704,-770.339 742.365,-723.944 777.904,-530.584 786.189,-482.969"/>
<polygon fill="#9a32cd" stroke="#9a32cd" points="527.645,-846.603 518.566,-852.064 529.068,-853.456 527.645,-846.603"/>
<text text-anchor="middle" x="643" y="-834.339" font-family="FreeSans" font-size="10.00"> nameHash_</text>
</g>
<!-- Node18&#45;&gt;Node18 -->
<g id="edge56" class="edge"><title>Node18&#45;&gt;Node18</title>
<path fill="none" stroke="#9a32cd" stroke-dasharray="5,2" d="M428.508,-880.018C430.302,-885.313 441.467,-889.339 462,-889.339 493.289,-889.339 502.822,-879.992 490.6,-871.047"/>
<polygon fill="#9a32cd" stroke="#9a32cd" points="431.685,-881.502 433.4,-871.047 425.539,-878.15 431.685,-881.502"/>
<text text-anchor="middle" x="462" y="-893.339" font-family="FreeSans" font-size="10.00"> ZERO</text>
</g>
<!-- Node18&#45;&gt;Node24 -->
<g id="edge100" class="edge"><title>Node18&#45;&gt;Node24</title>
<path fill="none" stroke="#9a32cd" stroke-dasharray="5,2" d="M514.986,-873.405C564.586,-886.266 640.381,-907.544 704,-932.339 726.831,-941.237 751.954,-953.903 768.721,-962.795"/>
<polygon fill="#9a32cd" stroke="#9a32cd" points="515.676,-869.969 505.12,-870.868 513.933,-876.748 515.676,-869.969"/>
<text text-anchor="middle" x="643" y="-936.339" font-family="FreeSans" font-size="10.00"> nameHash_</text>
</g>
<!-- Node19&#45;&gt;Node6 -->
<g id="edge58" class="edge"><title>Node19&#45;&gt;Node6</title>
<path fill="none" stroke="#9a32cd" stroke-dasharray="5,2" d="M558.7,-545.084C603.54,-537.54 657.156,-526.512 704,-511.339 727.097,-503.857 752.172,-491.633 768.855,-482.864"/>
<polygon fill="#9a32cd" stroke="#9a32cd" points="557.98,-541.655 548.683,-546.736 559.12,-548.562 557.98,-541.655"/>
<text text-anchor="middle" x="643" y="-544.339" font-family="FreeSans" font-size="10.00"> children_</text>
</g>
<!-- Node20&#45;&gt;Node6 -->
<g id="edge64" class="edge"><title>Node20&#45;&gt;Node6</title>
<path fill="none" stroke="#9a32cd" stroke-dasharray="5,2" d="M528.723,-309.552C580.27,-305.42 651.445,-307.48 704,-339.339 751.642,-368.22 776.695,-435.528 784.908,-461.68"/>
<polygon fill="#9a32cd" stroke="#9a32cd" points="528.334,-306.073 518.687,-310.454 528.96,-313.044 528.334,-306.073"/>
<text text-anchor="middle" x="643" y="-343.339" font-family="FreeSans" font-size="10.00"> owner_</text>
</g>
<!-- Node21 -->
<g id="node57" class="node"><title>Node21</title>
<a xlink:href="a00219.html" target="_top" xlink:title="3x4 matrix for scene node transform calculations.">
<polygon fill="none" stroke="black" points="409,-765.839 409,-786.839 515,-786.839 515,-765.839 409,-765.839"/>
<text text-anchor="middle" x="462" y="-773.839" font-family="FreeSans" font-size="10.00">Urho3D::Matrix3x4</text>
</a>
</g>
<!-- Node21&#45;&gt;Node2 -->
<g id="edge88" class="edge"><title>Node21&#45;&gt;Node2</title>
<path fill="none" stroke="#9a32cd" stroke-dasharray="5,2" d="M504.626,-789.7C527.344,-796.13 555.915,-803.127 582,-806.339 813.578,-834.847 1091.91,-762.049 1187.68,-733.9"/>
<polygon fill="#9a32cd" stroke="#9a32cd" points="505.531,-786.319 494.952,-786.897 503.583,-793.042 505.531,-786.319"/>
<text text-anchor="middle" x="909" y="-804.339" font-family="FreeSans" font-size="10.00"> offsetMatrix_</text>
</g>
<!-- Node21&#45;&gt;Node6 -->
<g id="edge74" class="edge"><title>Node21&#45;&gt;Node6</title>
<path fill="none" stroke="#9a32cd" stroke-dasharray="5,2" d="M525.279,-766.569C587.983,-755.696 678.279,-736.44 704,-712.339 773.741,-646.989 785.6,-520.521 787.599,-483.049"/>
<polygon fill="#9a32cd" stroke="#9a32cd" points="524.349,-763.176 515.079,-768.306 525.525,-770.077 524.349,-763.176"/>
<text text-anchor="middle" x="643" y="-758.339" font-family="FreeSans" font-size="10.00"> worldTransform_</text>
</g>
<!-- Node21&#45;&gt;Node21 -->
<g id="edge76" class="edge"><title>Node21&#45;&gt;Node21</title>
<path fill="none" stroke="#9a32cd" stroke-dasharray="5,2" d="M428.508,-796.018C430.302,-801.313 441.467,-805.339 462,-805.339 493.289,-805.339 502.822,-795.992 490.6,-787.047"/>
<polygon fill="#9a32cd" stroke="#9a32cd" points="431.685,-797.502 433.4,-787.047 425.539,-794.15 431.685,-797.502"/>
<text text-anchor="middle" x="462" y="-822.339" font-family="FreeSans" font-size="10.00"> IDENTITY</text>
<text text-anchor="middle" x="462" y="-809.339" font-family="FreeSans" font-size="10.00">ZERO</text>
</g>
<!-- Node22 -->
<g id="node60" class="node"><title>Node22</title>
<a xlink:href="a00283.html" target="_top" xlink:title="Reference count structure.">
<polygon fill="none" stroke="black" points="737,-73.8387 737,-94.8387 839,-94.8387 839,-73.8387 737,-73.8387"/>
<text text-anchor="middle" x="788" y="-81.8387" font-family="FreeSans" font-size="10.00">Urho3D::RefCount</text>
</a>
</g>
<!-- Node22&#45;&gt;Node5 -->
<g id="edge78" class="edge"><title>Node22&#45;&gt;Node5</title>
<path fill="none" stroke="#9a32cd" stroke-dasharray="5,2" d="M849.371,-82.4716C878.655,-82.0579 914.17,-82.2491 946,-84.3387 951.724,-84.7145 957.638,-85.222 963.575,-85.8165"/>
<polygon fill="#9a32cd" stroke="#9a32cd" points="849.228,-78.9734 839.289,-82.641 849.346,-85.9724 849.228,-78.9734"/>
<text text-anchor="middle" x="909" y="-88.3387" font-family="FreeSans" font-size="10.00"> refCount_</text>
</g>
<!-- Node23&#45;&gt;Node2 -->
<g id="edge80" class="edge"><title>Node23&#45;&gt;Node2</title>
<path fill="none" stroke="#9a32cd" stroke-dasharray="5,2" d="M682.901,-43.6111C785.534,-11.0919 1057.9,56.8876 1162,-97.3387 1171.01,-110.687 1214.4,-631.433 1221.12,-712.718"/>
<polygon fill="#9a32cd" stroke="#9a32cd" points="681.668,-40.3313 673.225,-46.7323 683.817,-46.9932 681.668,-40.3313"/>
<text text-anchor="middle" x="909" y="-8.33874" font-family="FreeSans" font-size="10.00"> boundingBox_</text>
</g>
<!-- Node24&#45;&gt;Node1 -->
<g id="edge92" class="edge"><title>Node24&#45;&gt;Node1</title>
<path fill="none" stroke="#9a32cd" stroke-dasharray="5,2" d="M823.759,-959.035C937.192,-913.662 1287.3,-773.617 1386.54,-733.924"/>
<polygon fill="#9a32cd" stroke="#9a32cd" points="822.441,-955.793 814.456,-962.756 825.041,-962.292 822.441,-955.793"/>
<text text-anchor="middle" x="1145" y="-840.339" font-family="FreeSans" font-size="10.00"> track_</text>
</g>
<!-- Node25&#45;&gt;Node24 -->
<g id="edge94" class="edge"><title>Node25&#45;&gt;Node24</title>
<path fill="none" stroke="#9a32cd" stroke-dasharray="5,2" d="M541.301,-945.627C588.56,-950.624 649.725,-957.193 704,-963.339 709.837,-964 715.901,-964.698 721.978,-965.407"/>
<polygon fill="#9a32cd" stroke="#9a32cd" points="541.443,-942.123 531.13,-944.553 540.708,-949.084 541.443,-942.123"/>
<text text-anchor="middle" x="643" y="-967.339" font-family="FreeSans" font-size="10.00"> keyFrames_</text>
</g>
</g>
</svg>
        <g id="navigator" transform="translate(0 0)" fill="#404254">
                <rect fill="#f2f5e9" fill-opacity="0.5" stroke="#606060" stroke-width=".5" x="0" y="0" width="60" height="60"/>
                <use id="zoomplus" xlink:href="#zoomPlus" x="17" y="9" onmousedown="handleZoom(evt,'in')"/>
                <use id="zoomminus" xlink:href="#zoomMin" x="42" y="9" onmousedown="handleZoom(evt,'out')"/>
                <use id="reset" xlink:href="#resetDef" x="30" y="36" onmousedown="handleReset()"/>
                <g id="arrowUp" xlink:href="#dirArrow" transform="translate(30 24)" onmousedown="handlePan(0,-1)">
                  <use xlink:href="#rim" fill="#404040">
                        <set attributeName="fill" to="#808080" begin="arrowUp.mouseover" end="arrowUp.mouseout"/>
                  </use>
                  <path fill="none" stroke="white" stroke-width="1.5" d="M0,-3.0v7 M-2.5,-0.5L0,-3.0L2.5,-0.5"/>
                </g>
                <g id="arrowRight" xlink:href="#dirArrow" transform="rotate(90) translate(36 -43)" onmousedown="handlePan(1,0)">
                  <use xlink:href="#rim" fill="#404040">
                        <set attributeName="fill" to="#808080" begin="arrowRight.mouseover" end="arrowRight.mouseout"/>
                  </use>
                  <path fill="none" stroke="white" stroke-width="1.5" d="M0,-3.0v7 M-2.5,-0.5L0,-3.0L2.5,-0.5"/>
                </g>
                <g id="arrowDown" xlink:href="#dirArrow" transform="rotate(180) translate(-30 -48)" onmousedown="handlePan(0,1)">
                  <use xlink:href="#rim" fill="#404040">
                        <set attributeName="fill" to="#808080" begin="arrowDown.mouseover" end="arrowDown.mouseout"/>
                  </use>
                  <path fill="none" stroke="white" stroke-width="1.5" d="M0,-3.0v7 M-2.5,-0.5L0,-3.0L2.5,-0.5"/>
                </g>
                <g id="arrowLeft" xlink:href="#dirArrow" transform="rotate(270) translate(-36 17)" onmousedown="handlePan(-1,0)">
                  <use xlink:href="#rim" fill="#404040">
                        <set attributeName="fill" to="#808080" begin="arrowLeft.mouseover" end="arrowLeft.mouseout"/>
                  </use>
                  <path fill="none" stroke="white" stroke-width="1.5" d="M0,-3.0v7 M-2.5,-0.5L0,-3.0L2.5,-0.5"/>
                </g>
        </g>
        <svg viewBox="0 0 15 15" width="100%" height="30px" preserveAspectRatio="xMaxYMin meet">
         <g id="arrow_out" transform="scale(0.3 0.3)">
          <a xlink:href="a01089_org.svg" target="_base">
           <rect id="button" ry="5" rx="5" y="6" x="6" height="38" width="38"
                fill="#f2f5e9" fill-opacity="0.5" stroke="#606060" stroke-width="1.0"/>
           <path id="arrow"
             d="M 11.500037,31.436501 C 11.940474,20.09759 22.043105,11.32322 32.158766,21.979434 L 37.068811,17.246167 C 37.068811,17.246167 37.088388,32 37.088388,32 L 22.160133,31.978069 C 22.160133,31.978069 26.997745,27.140456 26.997745,27.140456 C 18.528582,18.264221 13.291696,25.230495 11.500037,31.436501 z"
             style="fill:#404040;"/>
          </a>
         </g>
        </svg>
</svg>
