<?xml version="1.0" encoding="UTF-8" standalone="no"?>
<!DOCTYPE svg PUBLIC "-//W3C//DTD SVG 1.1//EN"
 "http://www.w3.org/Graphics/SVG/1.1/DTD/svg11.dtd">
<!-- Generated by graphviz version 2.26.3 (20100126.1600)
 -->
<!-- Title: Urho3D::StaticModel Pages: 1 -->
<svg width="2022pt" height="921pt"
 viewBox="0.00 0.00 2022.00 921.00" xmlns="http://www.w3.org/2000/svg" xmlns:xlink="http://www.w3.org/1999/xlink">
<g id="graph1" class="graph" transform="scale(1 1) rotate(0) translate(4 917)">
<title>Urho3D::StaticModel</title>
<!-- Node1 -->
<g id="node1" class="node"><title>Node1</title>
<polygon fill="#bfbfbf" stroke="black" points="1602,-182.5 1602,-203.5 1718,-203.5 1718,-182.5 1602,-182.5"/>
<text text-anchor="middle" x="1660" y="-190.5" font-family="FreeSans" font-size="10.00">Urho3D::StaticModel</text>
</g>
<!-- Node2 -->
<g id="node2" class="node"><title>Node2</title>
<a xlink:href="a00115.html" target="_top" xlink:title="Base class for visible components.">
<polygon fill="none" stroke="black" points="1349,-532.5 1349,-553.5 1453,-553.5 1453,-532.5 1349,-532.5"/>
<text text-anchor="middle" x="1401" y="-540.5" font-family="FreeSans" font-size="10.00">Urho3D::Drawable</text>
</a>
</g>
<!-- Node2&#45;&gt;Node1 -->
<g id="edge2" class="edge"><title>Node2&#45;&gt;Node1</title>
<path fill="none" stroke="midnightblue" d="M1414.98,-524.102C1462.29,-460.177 1615.4,-253.275 1652.06,-203.732"/>
<polygon fill="midnightblue" stroke="midnightblue" points="1412.17,-522.021 1409.04,-532.141 1417.8,-526.185 1412.17,-522.021"/>
</g>
<!-- Node7 -->
<g id="node15" class="node"><title>Node7</title>
<a xlink:href="a00333.html" target="_top" xlink:title="Component that describes global rendering properties">
<polygon fill="none" stroke="black" points="1617.5,-548.5 1617.5,-569.5 1702.5,-569.5 1702.5,-548.5 1617.5,-548.5"/>
<text text-anchor="middle" x="1660" y="-556.5" font-family="FreeSans" font-size="10.00">Urho3D::Zone</text>
</a>
</g>
<!-- Node2&#45;&gt;Node7 -->
<g id="edge20" class="edge"><title>Node2&#45;&gt;Node7</title>
<path fill="none" stroke="midnightblue" d="M1463.4,-540.424C1498.85,-539.69 1544.01,-539.981 1584,-544 1594.84,-545.089 1606.43,-546.991 1617.21,-549.082"/>
<polygon fill="midnightblue" stroke="midnightblue" points="1463.11,-536.93 1453.2,-540.668 1463.28,-543.927 1463.11,-536.93"/>
</g>
<!-- Node16 -->
<g id="node41" class="node"><title>Node16</title>
<a xlink:href="a00159.html" target="_top" xlink:title="Light component.">
<polygon fill="none" stroke="red" points="1618.5,-691.5 1618.5,-712.5 1701.5,-712.5 1701.5,-691.5 1618.5,-691.5"/>
<text text-anchor="middle" x="1660" y="-699.5" font-family="FreeSans" font-size="10.00">Urho3D::Light</text>
</a>
</g>
<!-- Node2&#45;&gt;Node16 -->
<g id="edge54" class="edge"><title>Node2&#45;&gt;Node16</title>
<path fill="none" stroke="midnightblue" d="M1417.94,-560.742C1434.99,-577.922 1462.63,-603.953 1490,-622 1503.14,-630.663 1593.09,-671.734 1636.57,-691.424"/>
<polygon fill="midnightblue" stroke="midnightblue" points="1420.38,-558.233 1410.88,-553.531 1415.37,-563.127 1420.38,-558.233"/>
</g>
<!-- Node3 -->
<g id="node4" class="node"><title>Node3</title>
<a xlink:href="a00085.html" target="_top" xlink:title="Base class for components. Components can be created to scene nodes.">
<polygon fill="none" stroke="black" points="434,-628.5 434,-649.5 550,-649.5 550,-628.5 434,-628.5"/>
<text text-anchor="middle" x="492" y="-636.5" font-family="FreeSans" font-size="10.00">Urho3D::Component</text>
</a>
</g>
<!-- Node3&#45;&gt;Node2 -->
<g id="edge4" class="edge"><title>Node3&#45;&gt;Node2</title>
<path fill="none" stroke="midnightblue" d="M560.371,-640.394C676.671,-642.285 920.403,-644.16 1126,-632 1209,-627.091 1234.89,-643.094 1312,-612 1345,-598.693 1376.06,-569.432 1391.26,-553.627"/>
<polygon fill="midnightblue" stroke="midnightblue" points="560.251,-636.892 550.194,-640.223 560.133,-643.891 560.251,-636.892"/>
</g>
<!-- Node13 -->
<g id="node31" class="node"><title>Node13</title>
<a xlink:href="a00078.html" target="_top" xlink:title="Camera component.">
<polygon fill="none" stroke="red" points="691,-565.5 691,-586.5 789,-586.5 789,-565.5 691,-565.5"/>
<text text-anchor="middle" x="740" y="-573.5" font-family="FreeSans" font-size="10.00">Urho3D::Camera</text>
</a>
</g>
<!-- Node3&#45;&gt;Node13 -->
<g id="edge40" class="edge"><title>Node3&#45;&gt;Node13</title>
<path fill="none" stroke="midnightblue" d="M543.265,-625.977C589.173,-614.315 655.655,-597.426 698.355,-586.579"/>
<polygon fill="midnightblue" stroke="midnightblue" points="542.34,-622.601 533.51,-628.455 544.064,-629.385 542.34,-622.601"/>
</g>
<!-- Node4 -->
<g id="node6" class="node"><title>Node4</title>
<a xlink:href="a00260.html" target="_top" xlink:title="Base class for objects with automatic serialization through attributes.">
<polygon fill="none" stroke="red" points="0,-601.5 0,-622.5 114,-622.5 114,-601.5 0,-601.5"/>
<text text-anchor="middle" x="57" y="-609.5" font-family="FreeSans" font-size="10.00">Urho3D::Serializable</text>
</a>
</g>
<!-- Node4&#45;&gt;Node3 -->
<g id="edge6" class="edge"><title>Node4&#45;&gt;Node3</title>
<path fill="none" stroke="midnightblue" d="M101.367,-625.383C136.447,-635.234 186.859,-647.783 232,-653 301.154,-660.993 381.195,-654.303 434,-647.703"/>
<polygon fill="midnightblue" stroke="midnightblue" points="102.024,-621.931 91.4473,-622.554 100.104,-628.662 102.024,-621.931"/>
</g>
<!-- Node5 -->
<g id="node8" class="node"><title>Node5</title>
<a xlink:href="a00195.html" target="_top" xlink:title="Scene node that may contain components and child nodes.">
<polygon fill="none" stroke="red" points="232.5,-591.5 232.5,-612.5 317.5,-612.5 317.5,-591.5 232.5,-591.5"/>
<text text-anchor="middle" x="275" y="-599.5" font-family="FreeSans" font-size="10.00">Urho3D::Node</text>
</a>
</g>
<!-- Node4&#45;&gt;Node5 -->
<g id="edge10" class="edge"><title>Node4&#45;&gt;Node5</title>
<path fill="none" stroke="midnightblue" d="M124.472,-608.905C159.628,-607.292 201.559,-605.369 232.227,-603.962"/>
<polygon fill="midnightblue" stroke="midnightblue" points="124.106,-605.418 114.277,-609.373 124.427,-612.411 124.106,-605.418"/>
</g>
<!-- Node5&#45;&gt;Node3 -->
<g id="edge8" class="edge"><title>Node5&#45;&gt;Node3</title>
<path fill="none" stroke="#9a32cd" stroke-dasharray="5,2" d="M327.698,-610.985C359.795,-616.458 400.842,-623.457 433.88,-629.09"/>
<polygon fill="#9a32cd" stroke="#9a32cd" points="328.059,-607.497 317.613,-609.266 326.883,-614.397 328.059,-607.497"/>
<text text-anchor="middle" x="376" y="-629" font-family="FreeSans" font-size="10.00"> node_</text>
</g>
<!-- Node5&#45;&gt;Node5 -->
<g id="edge12" class="edge"><title>Node5&#45;&gt;Node5</title>
<path fill="none" stroke="#9a32cd" stroke-dasharray="5,2" d="M256.571,-622.427C257.993,-627.349 264.136,-631 275,-631 292.383,-631 297.679,-621.653 290.889,-612.708"/>
<polygon fill="#9a32cd" stroke="#9a32cd" points="259.969,-623.268 259.111,-612.708 253.196,-621.498 259.969,-623.268"/>
<text text-anchor="middle" x="275" y="-635" font-family="FreeSans" font-size="10.00"> parent_</text>
</g>
<!-- Node6 -->
<g id="node12" class="node"><title>Node6</title>
<a xlink:href="a00178.html" target="_top" xlink:title="3x4 matrix for scene node transform calculations.">
<polygon fill="none" stroke="black" points="4,-685.5 4,-706.5 110,-706.5 110,-685.5 4,-685.5"/>
<text text-anchor="middle" x="57" y="-693.5" font-family="FreeSans" font-size="10.00">Urho3D::Matrix3x4</text>
</a>
</g>
<!-- Node6&#45;&gt;Node5 -->
<g id="edge14" class="edge"><title>Node6&#45;&gt;Node5</title>
<path fill="none" stroke="#9a32cd" stroke-dasharray="5,2" d="M120.309,-685.002C156.455,-678.042 197.73,-668.737 214,-660 236.144,-648.109 256.068,-626.014 266.76,-612.795"/>
<polygon fill="#9a32cd" stroke="#9a32cd" points="119.45,-681.603 110.275,-686.901 120.752,-688.481 119.45,-681.603"/>
<text text-anchor="middle" x="173" y="-686" font-family="FreeSans" font-size="10.00"> worldTransform_</text>
</g>
<!-- Node6&#45;&gt;Node6 -->
<g id="edge16" class="edge"><title>Node6&#45;&gt;Node6</title>
<path fill="none" stroke="#9a32cd" stroke-dasharray="5,2" d="M35.6225,-716.427C37.2716,-721.349 44.3975,-725 57,-725 77.1641,-725 83.3078,-715.653 75.4312,-706.708"/>
<polygon fill="#9a32cd" stroke="#9a32cd" points="39.017,-717.293 38.5688,-706.708 32.318,-715.262 39.017,-717.293"/>
<text text-anchor="middle" x="57" y="-742" font-family="FreeSans" font-size="10.00"> IDENTITY</text>
<text text-anchor="middle" x="57" y="-729" font-family="FreeSans" font-size="10.00">ZERO</text>
</g>
<!-- Node6&#45;&gt;Node7 -->
<g id="edge32" class="edge"><title>Node6&#45;&gt;Node7</title>
<path fill="none" stroke="#9a32cd" stroke-dasharray="5,2" d="M120.388,-702.224C163.852,-705.962 222.861,-710 275,-710 275,-710 275,-710 606,-710 715.067,-710 1483.72,-668.885 1584,-626 1613.27,-613.482 1639.14,-585.172 1651.79,-569.659"/>
<polygon fill="#9a32cd" stroke="#9a32cd" points="120.513,-698.722 110.245,-701.333 119.901,-705.695 120.513,-698.722"/>
<text text-anchor="middle" x="740" y="-712" font-family="FreeSans" font-size="10.00"> inverseWorld_</text>
</g>
<!-- Node6&#45;&gt;Node13 -->
<g id="edge46" class="edge"><title>Node6&#45;&gt;Node13</title>
<path fill="none" stroke="#9a32cd" stroke-dasharray="5,2" d="M75.7257,-678.497C105.868,-651.639 168.251,-601.343 232,-582 393.839,-532.894 598.242,-553.985 690.648,-567.665"/>
<polygon fill="#9a32cd" stroke="#9a32cd" points="73.1629,-676.096 68.1045,-685.405 77.8642,-681.282 73.1629,-676.096"/>
<text text-anchor="middle" x="376" y="-576" font-family="FreeSans" font-size="10.00"> view_</text>
<text text-anchor="middle" x="376" y="-563" font-family="FreeSans" font-size="10.00">reflectionMatrix_</text>
</g>
<!-- Node6&#45;&gt;Node16 -->
<g id="edge58" class="edge"><title>Node6&#45;&gt;Node16</title>
<path fill="none" stroke="#9a32cd" stroke-dasharray="5,2" d="M66.2133,-715.769C91.5995,-766.982 167.85,-900 275,-900 275,-900 275,-900 1401,-900 1525.52,-900 1627.3,-753.772 1653.46,-712.645"/>
<polygon fill="#9a32cd" stroke="#9a32cd" points="69.3234,-714.161 61.8201,-706.681 63.0211,-717.207 69.3234,-714.161"/>
<text text-anchor="middle" x="740" y="-904" font-family="FreeSans" font-size="10.00"> volumeTransform_</text>
</g>
<!-- Node7&#45;&gt;Node2 -->
<g id="edge18" class="edge"><title>Node7&#45;&gt;Node2</title>
<path fill="none" stroke="#9a32cd" stroke-dasharray="5,2" d="M1607.26,-555.742C1562.26,-552.962 1497.91,-548.987 1453.1,-546.219"/>
<polygon fill="#9a32cd" stroke="#9a32cd" points="1607.21,-559.245 1617.4,-556.369 1607.64,-552.259 1607.21,-559.245"/>
<text text-anchor="middle" x="1537" y="-571" font-family="FreeSans" font-size="10.00"> lastZone_</text>
<text text-anchor="middle" x="1537" y="-558" font-family="FreeSans" font-size="10.00">zone_</text>
</g>
<!-- Node8 -->
<g id="node18" class="node"><title>Node8</title>
<a xlink:href="a00324.html" target="_top" xlink:title="Urho3D::WeakPtr\&lt; Urho3D\l::Zone \&gt;">
<polygon fill="none" stroke="red" points="1868,-542 1868,-576 2014,-576 2014,-542 1868,-542"/>
<text text-anchor="start" x="1876" y="-563" font-family="FreeSans" font-size="10.00">Urho3D::WeakPtr&lt; Urho3D</text>
<text text-anchor="middle" x="1941" y="-550" font-family="FreeSans" font-size="10.00">::Zone &gt;</text>
</a>
</g>
<!-- Node7&#45;&gt;Node8 -->
<g id="edge24" class="edge"><title>Node7&#45;&gt;Node8</title>
<path fill="none" stroke="#9a32cd" stroke-dasharray="5,2" d="M1712.66,-566.051C1720.47,-566.86 1728.44,-567.554 1736,-568 1786.58,-570.984 1799.39,-570.496 1850,-568 1855.71,-567.718 1861.61,-567.338 1867.54,-566.892"/>
<polygon fill="#9a32cd" stroke="#9a32cd" points="1712.85,-562.551 1702.53,-564.932 1712.08,-569.508 1712.85,-562.551"/>
<text text-anchor="middle" x="1793" y="-574" font-family="FreeSans" font-size="10.00"> ptr_</text>
</g>
<!-- Node8&#45;&gt;Node7 -->
<g id="edge22" class="edge"><title>Node8&#45;&gt;Node7</title>
<path fill="none" stroke="#9a32cd" stroke-dasharray="5,2" d="M1888.83,-538.66C1876.3,-534.657 1862.83,-531.06 1850,-529 1799.97,-520.967 1785.77,-519.532 1736,-529 1716.49,-532.711 1695.59,-541.335 1680.65,-548.389"/>
<polygon fill="#9a32cd" stroke="#9a32cd" points="1888.06,-542.09 1898.65,-541.936 1890.27,-535.45 1888.06,-542.09"/>
<text text-anchor="start" x="1736.5" y="-559" font-family="FreeSans" font-size="10.00"> lastAmbientEndZone</text>
<text text-anchor="middle" x="1793" y="-546" font-family="FreeSans" font-size="10.00">_</text>
<text text-anchor="middle" x="1793" y="-533" font-family="FreeSans" font-size="10.00">lastAmbientStartZone_</text>
</g>
<!-- Node9 -->
<g id="node21" class="node"><title>Node9</title>
<a xlink:href="a00075.html" target="_top" xlink:title="Three&#45;dimensional axis&#45;aligned bounding box.">
<polygon fill="none" stroke="red" points="679,-336.5 679,-357.5 801,-357.5 801,-336.5 679,-336.5"/>
<text text-anchor="middle" x="740" y="-344.5" font-family="FreeSans" font-size="10.00">Urho3D::BoundingBox</text>
</a>
</g>
<!-- Node9&#45;&gt;Node2 -->
<g id="edge60" class="edge"><title>Node9&#45;&gt;Node2</title>
<path fill="none" stroke="#9a32cd" stroke-dasharray="5,2" d="M810.488,-358.434C813.104,-359.798 815.621,-361.314 818,-363 830.688,-371.988 823.574,-383.653 836,-393 841.417,-397.075 1231.68,-498.919 1360.35,-532.425"/>
<polygon fill="#9a32cd" stroke="#9a32cd" points="811.833,-355.202 801.272,-354.362 809.004,-361.605 811.833,-355.202"/>
<text text-anchor="middle" x="1059" y="-486" font-family="FreeSans" font-size="10.00"> worldBoundingBox_</text>
<text text-anchor="middle" x="1059" y="-473" font-family="FreeSans" font-size="10.00">boundingBox_</text>
</g>
<!-- Node9&#45;&gt;Node7 -->
<g id="edge26" class="edge"><title>Node9&#45;&gt;Node7</title>
<path fill="none" stroke="#9a32cd" stroke-dasharray="5,2" d="M811.353,-336.708C921.491,-323.442 1138.34,-307.811 1312,-360 1454.97,-402.966 1602.67,-513.641 1646.8,-548.394"/>
<polygon fill="#9a32cd" stroke="#9a32cd" points="810.851,-333.243 801.354,-337.941 811.708,-340.191 810.851,-333.243"/>
<text text-anchor="middle" x="1228" y="-364" font-family="FreeSans" font-size="10.00"> lastWorldBoundingBox_</text>
</g>
<!-- Node18 -->
<g id="node50" class="node"><title>Node18</title>
<a xlink:href="a00204.html" target="_top" xlink:title="Octree octant">
<polygon fill="none" stroke="red" points="1013,-357.5 1013,-378.5 1105,-378.5 1105,-357.5 1013,-357.5"/>
<text text-anchor="middle" x="1059" y="-365.5" font-family="FreeSans" font-size="10.00">Urho3D::Octant</text>
</a>
</g>
<!-- Node9&#45;&gt;Node18 -->
<g id="edge68" class="edge"><title>Node9&#45;&gt;Node18</title>
<path fill="none" stroke="#9a32cd" stroke-dasharray="5,2" d="M811.147,-351.684C872.618,-355.73 959.667,-361.461 1012.56,-364.943"/>
<polygon fill="#9a32cd" stroke="#9a32cd" points="811.337,-348.189 801.129,-351.024 810.877,-355.174 811.337,-348.189"/>
<text text-anchor="middle" x="905" y="-380" font-family="FreeSans" font-size="10.00"> cullingBox_</text>
<text text-anchor="middle" x="905" y="-367" font-family="FreeSans" font-size="10.00">worldBoundingBox_</text>
</g>
<!-- Node23 -->
<g id="node64" class="node"><title>Node23</title>
<a xlink:href="a00183.html" target="_top" xlink:title="3D model resource.">
<polygon fill="none" stroke="red" points="1015,-230.5 1015,-251.5 1103,-251.5 1103,-230.5 1015,-230.5"/>
<text text-anchor="middle" x="1059" y="-238.5" font-family="FreeSans" font-size="10.00">Urho3D::Model</text>
</a>
</g>
<!-- Node9&#45;&gt;Node23 -->
<g id="edge90" class="edge"><title>Node9&#45;&gt;Node23</title>
<path fill="none" stroke="#9a32cd" stroke-dasharray="5,2" d="M753.929,-328.288C770.766,-307.287 801.21,-274.172 836,-259 893.854,-233.769 968.114,-233.317 1014.64,-236.352"/>
<polygon fill="#9a32cd" stroke="#9a32cd" points="751.15,-326.159 747.768,-336.2 756.674,-330.46 751.15,-326.159"/>
<text text-anchor="middle" x="905" y="-263" font-family="FreeSans" font-size="10.00"> boundingBox_</text>
</g>
<!-- Node10 -->
<g id="node23" class="node"><title>Node10</title>
<a xlink:href="a00083.html" target="_top" xlink:title="RGBA color.">
<polygon fill="none" stroke="black" points="1359,-689.5 1359,-710.5 1443,-710.5 1443,-689.5 1359,-689.5"/>
<text text-anchor="middle" x="1401" y="-697.5" font-family="FreeSans" font-size="10.00">Urho3D::Color</text>
</a>
</g>
<!-- Node10&#45;&gt;Node7 -->
<g id="edge28" class="edge"><title>Node10&#45;&gt;Node7</title>
<path fill="none" stroke="#9a32cd" stroke-dasharray="5,2" d="M1453.47,-694.147C1503.59,-688.208 1573.08,-678.926 1584,-672 1623.73,-646.799 1647.62,-592.496 1656.28,-569.563"/>
<polygon fill="#9a32cd" stroke="#9a32cd" points="1452.93,-690.686 1443.41,-695.326 1453.75,-697.638 1452.93,-690.686"/>
<text text-anchor="middle" x="1537" y="-732" font-family="FreeSans" font-size="10.00"> ambientEndColor_</text>
<text text-anchor="middle" x="1537" y="-719" font-family="FreeSans" font-size="10.00">fogColor_</text>
<text text-anchor="middle" x="1537" y="-706" font-family="FreeSans" font-size="10.00">ambientColor_</text>
<text text-anchor="middle" x="1537" y="-693" font-family="FreeSans" font-size="10.00">ambientStartColor_</text>
</g>
<!-- Node10&#45;&gt;Node10 -->
<g id="edge30" class="edge"><title>Node10&#45;&gt;Node10</title>
<path fill="none" stroke="#9a32cd" stroke-dasharray="5,2" d="M1375.8,-720.055C1377.46,-725.164 1385.86,-729 1401,-729 1424.64,-729 1431.84,-719.653 1422.61,-710.708"/>
<polygon fill="#9a32cd" stroke="#9a32cd" points="1379.08,-721.298 1379.39,-710.708 1372.54,-718.79 1379.08,-721.298"/>
<text text-anchor="middle" x="1401" y="-863" font-family="FreeSans" font-size="10.00"> CYAN</text>
<text text-anchor="middle" x="1401" y="-850" font-family="FreeSans" font-size="10.00">GRAY</text>
<text text-anchor="middle" x="1401" y="-837" font-family="FreeSans" font-size="10.00">YELLOW</text>
<text text-anchor="middle" x="1401" y="-824" font-family="FreeSans" font-size="10.00">MAGENTA</text>
<text text-anchor="middle" x="1401" y="-811" font-family="FreeSans" font-size="10.00">WHITE</text>
<text text-anchor="middle" x="1401" y="-798" font-family="FreeSans" font-size="10.00">TRANSPARENT</text>
<text text-anchor="middle" x="1401" y="-785" font-family="FreeSans" font-size="10.00">BLUE</text>
<text text-anchor="middle" x="1401" y="-772" font-family="FreeSans" font-size="10.00">BLACK</text>
<text text-anchor="middle" x="1401" y="-759" font-family="FreeSans" font-size="10.00">RED</text>
<text text-anchor="middle" x="1401" y="-746" font-family="FreeSans" font-size="10.00">GREEN</text>
<text text-anchor="middle" x="1401" y="-733" font-family="FreeSans" font-size="10.00">...</text>
</g>
<!-- Node10&#45;&gt;Node16 -->
<g id="edge56" class="edge"><title>Node10&#45;&gt;Node16</title>
<path fill="none" stroke="#9a32cd" stroke-dasharray="5,2" d="M1424.3,-716.366C1441.55,-727.436 1466.1,-741.077 1490,-747 1530.55,-757.05 1543.71,-758.035 1584,-747 1608.25,-740.358 1632.62,-723.758 1647.01,-712.685"/>
<polygon fill="#9a32cd" stroke="#9a32cd" points="1425.79,-713.155 1415.52,-710.547 1421.92,-718.989 1425.79,-713.155"/>
<text text-anchor="middle" x="1537" y="-758" font-family="FreeSans" font-size="10.00"> color_</text>
</g>
<!-- Node11 -->
<g id="node27" class="node"><title>Node11</title>
<a xlink:href="a00220.html" target="_top" xlink:title="Urho3D::PODVector\&lt;\l Urho3D::Light * \&gt;">
<polygon fill="none" stroke="black" points="845.5,-489 845.5,-523 964.5,-523 964.5,-489 845.5,-489"/>
<text text-anchor="start" x="853.5" y="-510" font-family="FreeSans" font-size="10.00">Urho3D::PODVector&lt;</text>
<text text-anchor="middle" x="905" y="-497" font-family="FreeSans" font-size="10.00"> Urho3D::Light * &gt;</text>
</a>
</g>
<!-- Node11&#45;&gt;Node2 -->
<g id="edge34" class="edge"><title>Node11&#45;&gt;Node2</title>
<path fill="none" stroke="#9a32cd" stroke-dasharray="5,2" d="M974.902,-511.214C1075.59,-518.725 1259.16,-532.419 1348.86,-539.111"/>
<polygon fill="#9a32cd" stroke="#9a32cd" points="975.062,-507.717 964.829,-510.463 974.541,-514.697 975.062,-507.717"/>
<text text-anchor="middle" x="1059" y="-539" font-family="FreeSans" font-size="10.00"> vertexLights_</text>
<text text-anchor="middle" x="1059" y="-526" font-family="FreeSans" font-size="10.00">lights_</text>
</g>
<!-- Node12 -->
<g id="node29" class="node"><title>Node12</title>
<a xlink:href="a00316.html" target="_top" xlink:title="Vector base class.">
<polygon fill="none" stroke="black" points="435,-188.5 435,-209.5 549,-209.5 549,-188.5 435,-188.5"/>
<text text-anchor="middle" x="492" y="-196.5" font-family="FreeSans" font-size="10.00">Urho3D::VectorBase</text>
</a>
</g>
<!-- Node12&#45;&gt;Node11 -->
<g id="edge36" class="edge"><title>Node12&#45;&gt;Node11</title>
<path fill="none" stroke="midnightblue" d="M508.094,-217.524C536.926,-250.08 600.172,-318.686 662,-367 733.352,-422.757 756.386,-429.855 836,-473 846.04,-478.441 857.121,-483.951 867.411,-488.869"/>
<polygon fill="midnightblue" stroke="midnightblue" points="510.446,-214.898 501.214,-209.699 505.189,-219.52 510.446,-214.898"/>
</g>
<!-- Node15 -->
<g id="node38" class="node"><title>Node15</title>
<a xlink:href="a00312.html" target="_top" xlink:title="Urho3D::Vector\&lt; Urho3D\l::SourceBatch \&gt;">
<polygon fill="none" stroke="black" points="836,-280 836,-314 974,-314 974,-280 836,-280"/>
<text text-anchor="start" x="844" y="-301" font-family="FreeSans" font-size="10.00">Urho3D::Vector&lt; Urho3D</text>
<text text-anchor="middle" x="905" y="-288" font-family="FreeSans" font-size="10.00">::SourceBatch &gt;</text>
</a>
</g>
<!-- Node12&#45;&gt;Node15 -->
<g id="edge50" class="edge"><title>Node12&#45;&gt;Node15</title>
<path fill="none" stroke="midnightblue" d="M546.702,-211.98C621.216,-229.661 754.632,-261.32 835.952,-280.616"/>
<polygon fill="midnightblue" stroke="midnightblue" points="547.129,-208.484 536.591,-209.581 545.512,-215.295 547.129,-208.484"/>
</g>
<!-- Node21 -->
<g id="node59" class="node"><title>Node21</title>
<a xlink:href="a00312.html" target="_top" xlink:title="Urho3D::Vector\&lt; Urho3D\l::String \&gt;">
<polygon fill="none" stroke="black" points="671,-71 671,-105 809,-105 809,-71 671,-71"/>
<text text-anchor="start" x="679" y="-92" font-family="FreeSans" font-size="10.00">Urho3D::Vector&lt; Urho3D</text>
<text text-anchor="middle" x="740" y="-79" font-family="FreeSans" font-size="10.00">::String &gt;</text>
</a>
</g>
<!-- Node12&#45;&gt;Node21 -->
<g id="edge80" class="edge"><title>Node12&#45;&gt;Node21</title>
<path fill="none" stroke="midnightblue" d="M520.073,-183.416C553.318,-165.327 610.668,-135.262 662,-114 669.517,-110.886 677.553,-107.87 685.505,-105.063"/>
<polygon fill="midnightblue" stroke="midnightblue" points="518.053,-180.532 510.961,-188.403 521.414,-186.672 518.053,-180.532"/>
</g>
<!-- Node24 -->
<g id="node66" class="node"><title>Node24</title>
<a xlink:href="a00312.html" target="_top" xlink:title="Urho3D::Vector\&lt; Urho3D\l::Vector\&lt; Urho3D::SharedPtr\l\&lt; Urho3D::Geometry \&gt; \&gt; \&gt;">
<polygon fill="none" stroke="black" points="662.5,-123.5 662.5,-170.5 817.5,-170.5 817.5,-123.5 662.5,-123.5"/>
<text text-anchor="start" x="670.5" y="-157.5" font-family="FreeSans" font-size="10.00">Urho3D::Vector&lt; Urho3D</text>
<text text-anchor="start" x="670.5" y="-144.5" font-family="FreeSans" font-size="10.00">::Vector&lt; Urho3D::SharedPtr</text>
<text text-anchor="middle" x="740" y="-131.5" font-family="FreeSans" font-size="10.00">&lt; Urho3D::Geometry &gt; &gt; &gt;</text>
</a>
</g>
<!-- Node12&#45;&gt;Node24 -->
<g id="edge88" class="edge"><title>Node12&#45;&gt;Node24</title>
<path fill="none" stroke="midnightblue" d="M552.158,-186.386C585.199,-179.458 626.556,-170.787 662.047,-163.345"/>
<polygon fill="midnightblue" stroke="midnightblue" points="551.255,-182.999 542.187,-188.477 552.692,-189.85 551.255,-182.999"/>
</g>
<!-- Node25 -->
<g id="node71" class="node"><title>Node25</title>
<a xlink:href="a00220.html" target="_top" xlink:title="Urho3D::PODVector\&lt;\l Urho3D::StaticModelGeometry\lData \&gt;">
<polygon fill="none" stroke="black" points="1144.5,-169.5 1144.5,-216.5 1311.5,-216.5 1311.5,-169.5 1144.5,-169.5"/>
<text text-anchor="start" x="1152.5" y="-203.5" font-family="FreeSans" font-size="10.00">Urho3D::PODVector&lt;</text>
<text text-anchor="start" x="1152.5" y="-190.5" font-family="FreeSans" font-size="10.00"> Urho3D::StaticModelGeometry</text>
<text text-anchor="middle" x="1228" y="-177.5" font-family="FreeSans" font-size="10.00">Data &gt;</text>
</a>
</g>
<!-- Node12&#45;&gt;Node25 -->
<g id="edge96" class="edge"><title>Node12&#45;&gt;Node25</title>
<path fill="none" stroke="midnightblue" d="M559.334,-198.451C694.221,-197.351 997.209,-194.881 1144.48,-193.681"/>
<polygon fill="midnightblue" stroke="midnightblue" points="559.111,-194.953 549.14,-198.534 559.168,-201.952 559.111,-194.953"/>
</g>
<!-- Node13&#45;&gt;Node2 -->
<g id="edge38" class="edge"><title>Node13&#45;&gt;Node2</title>
<path fill="none" stroke="#9a32cd" stroke-dasharray="5,2" d="M799.156,-587.966C811.295,-590.001 824.024,-591.832 836,-593 1046.59,-613.544 1106.88,-635.951 1312,-584 1338.06,-577.401 1365.85,-563.33 1383.31,-553.524"/>
<polygon fill="#9a32cd" stroke="#9a32cd" points="799.58,-584.488 789.128,-586.219 798.379,-591.384 799.58,-584.488"/>
<text text-anchor="middle" x="1059" y="-619" font-family="FreeSans" font-size="10.00"> viewCamera_</text>
</g>
<!-- Node17 -->
<g id="node47" class="node"><title>Node17</title>
<a xlink:href="a00131.html" target="_top" xlink:title="Rendering frame update parameters.">
<polygon fill="none" stroke="red" points="1005.5,-565.5 1005.5,-586.5 1112.5,-586.5 1112.5,-565.5 1005.5,-565.5"/>
<text text-anchor="middle" x="1059" y="-573.5" font-family="FreeSans" font-size="10.00">Urho3D::FrameInfo</text>
</a>
</g>
<!-- Node13&#45;&gt;Node17 -->
<g id="edge64" class="edge"><title>Node13&#45;&gt;Node17</title>
<path fill="none" stroke="#9a32cd" stroke-dasharray="5,2" d="M799.438,-576C858.504,-576 948.282,-576 1005.27,-576"/>
<polygon fill="#9a32cd" stroke="#9a32cd" points="799.145,-572.5 789.145,-576 799.145,-579.5 799.145,-572.5"/>
<text text-anchor="middle" x="905" y="-580" font-family="FreeSans" font-size="10.00"> camera_</text>
</g>
<!-- Node14 -->
<g id="node34" class="node"><title>Node14</title>
<a xlink:href="a00219.html" target="_top" xlink:title="Surface in three&#45;dimensional space.">
<polygon fill="none" stroke="red" points="449,-482.5 449,-503.5 535,-503.5 535,-482.5 449,-482.5"/>
<text text-anchor="middle" x="492" y="-490.5" font-family="FreeSans" font-size="10.00">Urho3D::Plane</text>
</a>
</g>
<!-- Node14&#45;&gt;Node13 -->
<g id="edge42" class="edge"><title>Node14&#45;&gt;Node13</title>
<path fill="none" stroke="#9a32cd" stroke-dasharray="5,2" d="M545.374,-499.404C575.029,-503.979 612.24,-511.419 644,-523 674.048,-533.957 706.002,-553.358 724.42,-565.402"/>
<polygon fill="#9a32cd" stroke="#9a32cd" points="545.625,-495.904 535.221,-497.904 544.602,-502.828 545.625,-495.904"/>
<text text-anchor="middle" x="606" y="-540" font-family="FreeSans" font-size="10.00"> clipPlane_</text>
<text text-anchor="middle" x="606" y="-527" font-family="FreeSans" font-size="10.00">reflectionPlane_</text>
</g>
<!-- Node14&#45;&gt;Node14 -->
<g id="edge44" class="edge"><title>Node14&#45;&gt;Node14</title>
<path fill="none" stroke="#9a32cd" stroke-dasharray="5,2" d="M470.991,-513.427C472.612,-518.349 479.615,-522 492,-522 511.816,-522 517.854,-512.653 510.113,-503.708"/>
<polygon fill="#9a32cd" stroke="#9a32cd" points="474.385,-514.291 473.887,-503.708 467.677,-512.292 474.385,-514.291"/>
<text text-anchor="middle" x="492" y="-526" font-family="FreeSans" font-size="10.00"> UP</text>
</g>
<!-- Node15&#45;&gt;Node2 -->
<g id="edge48" class="edge"><title>Node15&#45;&gt;Node2</title>
<path fill="none" stroke="#9a32cd" stroke-dasharray="5,2" d="M984.301,-288.791C1087.66,-279.783 1261.24,-270.966 1312,-307 1351.37,-334.947 1388.95,-489.836 1398.61,-532.256"/>
<polygon fill="#9a32cd" stroke="#9a32cd" points="983.865,-285.316 974.216,-289.69 984.487,-292.288 983.865,-285.316"/>
<text text-anchor="middle" x="1059" y="-292" font-family="FreeSans" font-size="10.00"> batches_</text>
</g>
<!-- Node16&#45;&gt;Node2 -->
<g id="edge52" class="edge"><title>Node16&#45;&gt;Node2</title>
<path fill="none" stroke="#9a32cd" stroke-dasharray="5,2" d="M1649.13,-682.413C1636.31,-661.146 1613.02,-627.718 1584,-609 1547.67,-585.57 1530.67,-598.654 1490,-584 1465.83,-575.293 1439.21,-562.593 1421.44,-553.64"/>
<polygon fill="#9a32cd" stroke="#9a32cd" points="1646.2,-684.353 1654.26,-691.233 1652.25,-680.83 1646.2,-684.353"/>
<text text-anchor="middle" x="1537" y="-613" font-family="FreeSans" font-size="10.00"> firstLight_</text>
</g>
<!-- Node17&#45;&gt;Node2 -->
<g id="edge62" class="edge"><title>Node17&#45;&gt;Node2</title>
<path fill="none" stroke="#9a32cd" stroke-dasharray="5,2" d="M1122.98,-569.827C1188.25,-563.529 1288.3,-553.875 1348.9,-548.027"/>
<polygon fill="#9a32cd" stroke="#9a32cd" points="1122.43,-566.363 1112.81,-570.807 1123.1,-573.331 1122.43,-566.363"/>
<text text-anchor="middle" x="1228" y="-571" font-family="FreeSans" font-size="10.00"> viewFrame_</text>
</g>
<!-- Node18&#45;&gt;Node2 -->
<g id="edge66" class="edge"><title>Node18&#45;&gt;Node2</title>
<path fill="none" stroke="#9a32cd" stroke-dasharray="5,2" d="M1115.55,-371.957C1169.7,-378.016 1251.85,-393.33 1312,-432 1352.93,-458.314 1383.57,-509.861 1395.52,-532.223"/>
<polygon fill="#9a32cd" stroke="#9a32cd" points="1115.75,-368.459 1105.44,-370.897 1115.02,-375.42 1115.75,-368.459"/>
<text text-anchor="middle" x="1228" y="-436" font-family="FreeSans" font-size="10.00"> octant_</text>
</g>
<!-- Node18&#45;&gt;Node18 -->
<g id="edge70" class="edge"><title>Node18&#45;&gt;Node18</title>
<path fill="none" stroke="#9a32cd" stroke-dasharray="5,2" d="M1030.47,-388.055C1032.34,-393.164 1041.85,-397 1059,-397 1085.77,-397 1093.93,-387.653 1083.47,-378.708"/>
<polygon fill="#9a32cd" stroke="#9a32cd" points="1033.76,-389.274 1034.53,-378.708 1027.34,-386.484 1033.76,-389.274"/>
<text text-anchor="middle" x="1059" y="-414" font-family="FreeSans" font-size="10.00"> parent_</text>
<text text-anchor="middle" x="1059" y="-401" font-family="FreeSans" font-size="10.00">children_</text>
</g>
<!-- Node19 -->
<g id="node54" class="node"><title>Node19</title>
<a xlink:href="a00246.html" target="_top" xlink:title="List of typed resource references.">
<polygon fill="none" stroke="black" points="992,-77.5 992,-98.5 1126,-98.5 1126,-77.5 992,-77.5"/>
<text text-anchor="middle" x="1059" y="-85.5" font-family="FreeSans" font-size="10.00">Urho3D::ResourceRefList</text>
</a>
</g>
<!-- Node19&#45;&gt;Node1 -->
<g id="edge72" class="edge"><title>Node19&#45;&gt;Node1</title>
<path fill="none" stroke="#9a32cd" stroke-dasharray="5,2" d="M1136.49,-80.4658C1242.03,-73.302 1434.88,-71.3701 1584,-133 1611.34,-144.301 1637.01,-168.423 1650.38,-182.395"/>
<polygon fill="#9a32cd" stroke="#9a32cd" points="1135.97,-76.994 1126.25,-81.1967 1136.47,-83.9763 1135.97,-76.994"/>
<text text-anchor="middle" x="1401" y="-103" font-family="FreeSans" font-size="10.00"> materialsAttr_</text>
</g>
<!-- Node20 -->
<g id="node56" class="node"><title>Node20</title>
<a xlink:href="a00272.html" target="_top" xlink:title="16&#45;bit hash value for a string.">
<polygon fill="none" stroke="black" points="670.5,-0.5 670.5,-21.5 809.5,-21.5 809.5,-0.5 670.5,-0.5"/>
<text text-anchor="middle" x="740" y="-8.5" font-family="FreeSans" font-size="10.00">Urho3D::ShortStringHash</text>
</a>
</g>
<!-- Node20&#45;&gt;Node19 -->
<g id="edge74" class="edge"><title>Node20&#45;&gt;Node19</title>
<path fill="none" stroke="#9a32cd" stroke-dasharray="5,2" d="M793.718,-23.9663C856.05,-39.0122 957.634,-63.5323 1015.33,-77.459"/>
<polygon fill="#9a32cd" stroke="#9a32cd" points="794.229,-20.4893 783.687,-21.5451 792.586,-27.2938 794.229,-20.4893"/>
<text text-anchor="middle" x="905" y="-72" font-family="FreeSans" font-size="10.00"> type_</text>
</g>
<!-- Node20&#45;&gt;Node20 -->
<g id="edge76" class="edge"><title>Node20&#45;&gt;Node20</title>
<path fill="none" stroke="#9a32cd" stroke-dasharray="5,2" d="M715.305,-31.4266C717.21,-36.3489 725.442,-40 740,-40 763.293,-40 770.39,-30.6531 761.291,-21.7079"/>
<polygon fill="#9a32cd" stroke="#9a32cd" points="718.707,-32.3027 718.709,-21.7079 712.1,-29.989 718.707,-32.3027"/>
<text text-anchor="middle" x="740" y="-44" font-family="FreeSans" font-size="10.00"> ZERO</text>
</g>
<!-- Node21&#45;&gt;Node19 -->
<g id="edge78" class="edge"><title>Node21&#45;&gt;Node19</title>
<path fill="none" stroke="#9a32cd" stroke-dasharray="5,2" d="M819.272,-88C872.352,-88 941.46,-88 991.831,-88"/>
<polygon fill="#9a32cd" stroke="#9a32cd" points="819.218,-84.5001 809.218,-88 819.218,-91.5001 819.218,-84.5001"/>
<text text-anchor="middle" x="905" y="-92" font-family="FreeSans" font-size="10.00"> names_</text>
</g>
<!-- Node22 -->
<g id="node62" class="node"><title>Node22</title>
<a xlink:href="a00271.html" target="_top" xlink:title="Urho3D::SharedPtr\&lt;\l Urho3D::Model \&gt;">
<polygon fill="none" stroke="black" points="1343,-224 1343,-258 1459,-258 1459,-224 1343,-224"/>
<text text-anchor="start" x="1351" y="-245" font-family="FreeSans" font-size="10.00">Urho3D::SharedPtr&lt;</text>
<text text-anchor="middle" x="1401" y="-232" font-family="FreeSans" font-size="10.00"> Urho3D::Model &gt;</text>
</a>
</g>
<!-- Node22&#45;&gt;Node1 -->
<g id="edge82" class="edge"><title>Node22&#45;&gt;Node1</title>
<path fill="none" stroke="#9a32cd" stroke-dasharray="5,2" d="M1469.19,-228.362C1510.85,-220.641 1563.52,-210.881 1602.96,-203.571"/>
<polygon fill="#9a32cd" stroke="#9a32cd" points="1468.32,-224.964 1459.12,-230.228 1469.6,-231.847 1468.32,-224.964"/>
<text text-anchor="middle" x="1537" y="-229" font-family="FreeSans" font-size="10.00"> model_</text>
</g>
<!-- Node23&#45;&gt;Node22 -->
<g id="edge84" class="edge"><title>Node23&#45;&gt;Node22</title>
<path fill="none" stroke="#9a32cd" stroke-dasharray="5,2" d="M1113.09,-241C1175.74,-241 1278.56,-241 1342.87,-241"/>
<polygon fill="#9a32cd" stroke="#9a32cd" points="1113.01,-237.5 1103.01,-241 1113.01,-244.5 1113.01,-237.5"/>
<text text-anchor="middle" x="1228" y="-245" font-family="FreeSans" font-size="10.00"> ptr_</text>
</g>
<!-- Node24&#45;&gt;Node1 -->
<g id="edge92" class="edge"><title>Node24&#45;&gt;Node1</title>
<path fill="none" stroke="#9a32cd" stroke-dasharray="5,2" d="M828.091,-143.417C940.521,-139.667 1140.96,-135.744 1312,-147 1414.47,-153.743 1532.81,-171.538 1601.74,-182.915"/>
<polygon fill="#9a32cd" stroke="#9a32cd" points="827.697,-139.928 817.822,-143.767 827.936,-146.924 827.697,-139.928"/>
<text text-anchor="middle" x="1228" y="-151" font-family="FreeSans" font-size="10.00"> geometries_</text>
</g>
<!-- Node24&#45;&gt;Node23 -->
<g id="edge86" class="edge"><title>Node24&#45;&gt;Node23</title>
<path fill="none" stroke="#9a32cd" stroke-dasharray="5,2" d="M827.392,-172.752C891.86,-191.749 976.235,-216.612 1023.3,-230.48"/>
<polygon fill="#9a32cd" stroke="#9a32cd" points="828.21,-169.344 817.628,-169.875 826.231,-176.059 828.21,-169.344"/>
<text text-anchor="middle" x="905" y="-220" font-family="FreeSans" font-size="10.00"> geometries_</text>
</g>
<!-- Node25&#45;&gt;Node1 -->
<g id="edge94" class="edge"><title>Node25&#45;&gt;Node1</title>
<path fill="none" stroke="#9a32cd" stroke-dasharray="5,2" d="M1321.75,-193C1407,-193 1530.13,-193 1601.92,-193"/>
<polygon fill="#9a32cd" stroke="#9a32cd" points="1321.55,-189.5 1311.55,-193 1321.55,-196.5 1321.55,-189.5"/>
<text text-anchor="middle" x="1401" y="-197" font-family="FreeSans" font-size="10.00"> geometryData_</text>
</g>
</g>
</svg>
