<?xml version="1.0" encoding="UTF-8" standalone="no"?>
<!DOCTYPE svg PUBLIC "-//W3C//DTD SVG 1.1//EN"
 "http://www.w3.org/Graphics/SVG/1.1/DTD/svg11.dtd">
<!-- Generated by graphviz version 2.26.3 (20100126.1600)
 -->
<!-- Title: Urho3D::BatchGroup Pages: 1 -->
<!--zoomable 736 -->
<svg id="main" version="1.1" xmlns="http://www.w3.org/2000/svg" xmlns:xlink="http://www.w3.org/1999/xlink" xml:space="preserve" onload="init(evt)">
        <defs>
                <circle id="rim" cx="0" cy="0" r="7"/>
                <circle id="rim2" cx="0" cy="0" r="3.5"/>
                <g id="zoomPlus">
                        <use xlink:href="#rim" fill="#404040">
                                <set attributeName="fill" to="#808080" begin="zoomplus.mouseover" end="zoomplus.mouseout"/>
                        </use>
                        <path d="M-4,0h8M0,-4v8" fill="none" stroke="white" stroke-width="1.5" pointer-events="none"/>
                </g>
                <g id="zoomMin">
                        <use xlink:href="#rim" fill="#404040">
                                <set attributeName="fill" to="#808080" begin="zoomminus.mouseover" end="zoomminus.mouseout"/>
                        </use>
                        <path d="M-4,0h8" fill="none" stroke="white" stroke-width="1.5" pointer-events="none"/>
                </g>
                <g id="dirArrow">
                        <path fill="none" stroke="white" stroke-width="1.5" d="M0,-3.0v7 M-2.5,-0.5L0,-3.0L2.5,-0.5"/>
                </g>
               <g id="resetDef">
                       <use xlink:href="#rim2" fill="#404040">
                               <set attributeName="fill" to="#808080" begin="reset.mouseover" end="reset.mouseout"/>
                       </use>
               </g>
        </defs>

<script type="text/javascript">
var viewWidth = 2110;
var viewHeight = 736;
var sectionId = 'dynsection-1';
</script>
<script xlink:href="svgpan.js"/>
<svg id="graph" class="graph">
<g id="viewport">
<title>Urho3D::BatchGroup</title>
<!-- Node1 -->
<g id="node1" class="node"><title>Node1</title>
<polygon fill="#bfbfbf" stroke="black" points="1986,-58.5 1986,-79.5 2102,-79.5 2102,-58.5 1986,-58.5"/>
<text text-anchor="middle" x="2044" y="-66.5" font-family="FreeSans" font-size="10.00">Urho3D::BatchGroup</text>
</g>
<!-- Node2 -->
<g id="node2" class="node"><title>Node2</title>
<a xlink:href="a00071.html" target="_top" xlink:title="Queued 3D geometry draw call.">
<polygon fill="none" stroke="black" points="1831.5,-243.5 1831.5,-264.5 1918.5,-264.5 1918.5,-243.5 1831.5,-243.5"/>
<text text-anchor="middle" x="1875" y="-251.5" font-family="FreeSans" font-size="10.00">Urho3D::Batch</text>
</a>
</g>
<!-- Node2&#45;&gt;Node1 -->
<g id="edge2" class="edge"><title>Node2&#45;&gt;Node1</title>
<path fill="none" stroke="midnightblue" d="M1891.96,-235.433C1926.99,-197.092 2006.35,-110.211 2034.16,-79.7757"/>
<polygon fill="midnightblue" stroke="midnightblue" points="1888.98,-233.51 1884.82,-243.254 1894.15,-238.231 1888.98,-233.51"/>
</g>
<!-- Node3 -->
<g id="node4" class="node"><title>Node3</title>
<a xlink:href="a00181.html" target="_top" xlink:title="Queue for light related draw calls.">
<polygon fill="none" stroke="black" points="740,-379.5 740,-400.5 882,-400.5 882,-379.5 740,-379.5"/>
<text text-anchor="middle" x="811" y="-387.5" font-family="FreeSans" font-size="10.00">Urho3D::LightBatchQueue</text>
</a>
</g>
<!-- Node3&#45;&gt;Node2 -->
<g id="edge4" class="edge"><title>Node3&#45;&gt;Node2</title>
<path fill="none" stroke="#9a32cd" stroke-dasharray="5,2" d="M849.271,-376.175C899.474,-359.304 990.636,-333 1071,-333 1071,-333 1071,-333 1584,-333 1673.29,-333 1699.79,-343.677 1784,-314 1815.41,-302.93 1846.64,-278.722 1863.1,-264.673"/>
<polygon fill="#9a32cd" stroke="#9a32cd" points="848.123,-372.868 839.791,-379.412 850.386,-379.492 848.123,-372.868"/>
<text text-anchor="middle" x="1333" y="-337" font-family="FreeSans" font-size="10.00"> lightQueue_</text>
</g>
<!-- Node10 -->
<g id="node21" class="node"><title>Node10</title>
<a xlink:href="a00180.html" target="_top" xlink:title="Light component.">
<polygon fill="none" stroke="red" points="1029.5,-419.5 1029.5,-440.5 1112.5,-440.5 1112.5,-419.5 1029.5,-419.5"/>
<text text-anchor="middle" x="1071" y="-427.5" font-family="FreeSans" font-size="10.00">Urho3D::Light</text>
</a>
</g>
<!-- Node3&#45;&gt;Node10 -->
<g id="edge52" class="edge"><title>Node3&#45;&gt;Node10</title>
<path fill="none" stroke="#9a32cd" stroke-dasharray="5,2" d="M892.151,-380.042C923.902,-378.702 960.248,-380.386 992,-390 1001.2,-392.786 1001.6,-397.313 1010,-402 1021.4,-408.362 1034.5,-414.516 1045.63,-419.427"/>
<polygon fill="#9a32cd" stroke="#9a32cd" points="891.817,-376.555 882.015,-380.577 892.186,-383.545 891.817,-376.555"/>
<text text-anchor="middle" x="946" y="-394" font-family="FreeSans" font-size="10.00"> lightQueue_</text>
</g>
<!-- Node4 -->
<g id="node6" class="node"><title>Node4</title>
<a xlink:href="a00349.html" target="_top" xlink:title="Urho3D::Vector\&lt; Urho3D\l::ShadowBatchQueue \&gt;">
<polygon fill="none" stroke="black" points="290,-295 290,-329 428,-329 428,-295 290,-295"/>
<text text-anchor="start" x="298" y="-316" font-family="FreeSans" font-size="10.00">Urho3D::Vector&lt; Urho3D</text>
<text text-anchor="middle" x="359" y="-303" font-family="FreeSans" font-size="10.00">::ShadowBatchQueue &gt;</text>
</a>
</g>
<!-- Node4&#45;&gt;Node3 -->
<g id="edge6" class="edge"><title>Node4&#45;&gt;Node3</title>
<path fill="none" stroke="#9a32cd" stroke-dasharray="5,2" d="M438.353,-307.917C476.979,-306.968 524.03,-307.35 566,-312 636.625,-319.825 654.902,-323.613 722,-347 747.278,-355.811 774.798,-369.851 792.44,-379.476"/>
<polygon fill="#9a32cd" stroke="#9a32cd" points="438.108,-304.422 428.21,-308.201 438.304,-311.419 438.108,-304.422"/>
<text text-anchor="middle" x="506" y="-316" font-family="FreeSans" font-size="10.00"> shadowSplits_</text>
</g>
<!-- Node5 -->
<g id="node8" class="node"><title>Node5</title>
<a xlink:href="a00353.html" target="_top" xlink:title="Vector base class.">
<polygon fill="none" stroke="black" points="0,-339.5 0,-360.5 114,-360.5 114,-339.5 0,-339.5"/>
<text text-anchor="middle" x="57" y="-347.5" font-family="FreeSans" font-size="10.00">Urho3D::VectorBase</text>
</a>
</g>
<!-- Node5&#45;&gt;Node4 -->
<g id="edge8" class="edge"><title>Node5&#45;&gt;Node4</title>
<path fill="none" stroke="midnightblue" d="M124.085,-341.559C173.371,-335.357 240.134,-326.957 289.89,-320.696"/>
<polygon fill="midnightblue" stroke="midnightblue" points="123.644,-338.087 114.159,-342.808 124.518,-345.032 123.644,-338.087"/>
</g>
<!-- Node6 -->
<g id="node10" class="node"><title>Node6</title>
<a xlink:href="a00250.html" target="_top" xlink:title="Urho3D::PODVector\&lt;\l Urho3D::Light * \&gt;">
<polygon fill="none" stroke="black" points="446.5,-463 446.5,-497 565.5,-497 565.5,-463 446.5,-463"/>
<text text-anchor="start" x="454.5" y="-484" font-family="FreeSans" font-size="10.00">Urho3D::PODVector&lt;</text>
<text text-anchor="middle" x="506" y="-471" font-family="FreeSans" font-size="10.00"> Urho3D::Light * &gt;</text>
</a>
</g>
<!-- Node5&#45;&gt;Node6 -->
<g id="edge12" class="edge"><title>Node5&#45;&gt;Node6</title>
<path fill="none" stroke="midnightblue" d="M77.9456,-366.784C96.3888,-380.716 124.519,-399.971 152,-411 250.787,-450.646 374.479,-468.065 446.436,-475.294"/>
<polygon fill="midnightblue" stroke="midnightblue" points="80.009,-363.955 69.9531,-360.619 75.7338,-369.498 80.009,-363.955"/>
</g>
<!-- Node8 -->
<g id="node15" class="node"><title>Node8</title>
<a xlink:href="a00250.html" target="_top" xlink:title="Urho3D::PODVector\&lt;\l Urho3D::Batch \&gt;">
<polygon fill="none" stroke="black" points="152.5,-368 152.5,-402 271.5,-402 271.5,-368 152.5,-368"/>
<text text-anchor="start" x="160.5" y="-389" font-family="FreeSans" font-size="10.00">Urho3D::PODVector&lt;</text>
<text text-anchor="middle" x="212" y="-376" font-family="FreeSans" font-size="10.00"> Urho3D::Batch &gt;</text>
</a>
</g>
<!-- Node5&#45;&gt;Node8 -->
<g id="edge18" class="edge"><title>Node5&#45;&gt;Node8</title>
<path fill="none" stroke="midnightblue" d="M113.441,-362.745C126.083,-365.599 139.533,-368.636 152.302,-371.52"/>
<polygon fill="midnightblue" stroke="midnightblue" points="114.03,-359.29 103.505,-360.501 112.489,-366.118 114.03,-359.29"/>
</g>
<!-- Node25 -->
<g id="node64" class="node"><title>Node25</title>
<a xlink:href="a00250.html" target="_top" xlink:title="Urho3D::PODVector\&lt;\l Urho3D::InstanceData \&gt;">
<polygon fill="none" stroke="black" points="584.5,-111 584.5,-145 721.5,-145 721.5,-111 584.5,-111"/>
<text text-anchor="start" x="592.5" y="-132" font-family="FreeSans" font-size="10.00">Urho3D::PODVector&lt;</text>
<text text-anchor="middle" x="653" y="-119" font-family="FreeSans" font-size="10.00"> Urho3D::InstanceData &gt;</text>
</a>
</g>
<!-- Node5&#45;&gt;Node25 -->
<g id="edge82" class="edge"><title>Node5&#45;&gt;Node25</title>
<path fill="none" stroke="midnightblue" d="M94.8835,-335.889C199.657,-296.863 493.068,-187.572 606.975,-145.143"/>
<polygon fill="midnightblue" stroke="midnightblue" points="93.4947,-332.671 85.3454,-339.442 95.9381,-339.231 93.4947,-332.671"/>
</g>
<!-- Node6&#45;&gt;Node3 -->
<g id="edge10" class="edge"><title>Node6&#45;&gt;Node3</title>
<path fill="none" stroke="#9a32cd" stroke-dasharray="5,2" d="M575.472,-467.485C578.352,-466.981 581.204,-466.484 584,-466 645.269,-455.396 663.615,-464.387 722,-443 750.538,-432.546 780.184,-412.797 797.038,-400.581"/>
<polygon fill="#9a32cd" stroke="#9a32cd" points="574.849,-464.041 565.608,-469.222 576.063,-470.935 574.849,-464.041"/>
<text text-anchor="middle" x="653" y="-470" font-family="FreeSans" font-size="10.00"> vertexLights_</text>
</g>
<!-- Node11 -->
<g id="node23" class="node"><title>Node11</title>
<a xlink:href="a00135.html" target="_top" xlink:title="Base class for visible components.">
<polygon fill="none" stroke="red" points="1281,-443.5 1281,-464.5 1385,-464.5 1385,-443.5 1281,-443.5"/>
<text text-anchor="middle" x="1333" y="-451.5" font-family="FreeSans" font-size="10.00">Urho3D::Drawable</text>
</a>
</g>
<!-- Node6&#45;&gt;Node11 -->
<g id="edge46" class="edge"><title>Node6&#45;&gt;Node11</title>
<path fill="none" stroke="#9a32cd" stroke-dasharray="5,2" d="M575.79,-479.998C618.095,-479.917 673.157,-479.67 722,-479 955.817,-475.792 1015.05,-487.385 1248,-467 1258.71,-466.063 1270.12,-464.625 1280.98,-463.041"/>
<polygon fill="#9a32cd" stroke="#9a32cd" points="575.59,-476.498 565.596,-480.015 575.602,-483.498 575.59,-476.498"/>
<text text-anchor="middle" x="946" y="-496" font-family="FreeSans" font-size="10.00"> vertexLights_</text>
<text text-anchor="middle" x="946" y="-483" font-family="FreeSans" font-size="10.00">lights_</text>
</g>
<!-- Node7 -->
<g id="node13" class="node"><title>Node7</title>
<a xlink:href="a00074.html" target="_top" xlink:title="Queue that contains both instanced and non&#45;instanced draw calls.">
<polygon fill="none" stroke="red" points="446.5,-374.5 446.5,-395.5 565.5,-395.5 565.5,-374.5 446.5,-374.5"/>
<text text-anchor="middle" x="506" y="-382.5" font-family="FreeSans" font-size="10.00">Urho3D::BatchQueue</text>
</a>
</g>
<!-- Node7&#45;&gt;Node3 -->
<g id="edge14" class="edge"><title>Node7&#45;&gt;Node3</title>
<path fill="none" stroke="#9a32cd" stroke-dasharray="5,2" d="M575.75,-386.143C624.864,-386.949 690.402,-388.023 739.828,-388.833"/>
<polygon fill="#9a32cd" stroke="#9a32cd" points="575.587,-382.64 565.531,-385.976 575.472,-389.639 575.587,-382.64"/>
<text text-anchor="middle" x="653" y="-405" font-family="FreeSans" font-size="10.00"> litBaseBatches_</text>
<text text-anchor="middle" x="653" y="-392" font-family="FreeSans" font-size="10.00">litBatches_</text>
</g>
<!-- Node8&#45;&gt;Node3 -->
<g id="edge22" class="edge"><title>Node8&#45;&gt;Node3</title>
<path fill="none" stroke="#9a32cd" stroke-dasharray="5,2" d="M281.861,-400.792C284.603,-401.233 287.324,-401.638 290,-402 480.397,-427.76 532.095,-447.168 722,-418 743.614,-414.68 767.182,-407.075 784.633,-400.628"/>
<polygon fill="#9a32cd" stroke="#9a32cd" points="282.323,-397.32 271.872,-399.063 281.128,-404.218 282.323,-397.32"/>
<text text-anchor="middle" x="506" y="-436" font-family="FreeSans" font-size="10.00"> volumeBatches_</text>
</g>
<!-- Node8&#45;&gt;Node7 -->
<g id="edge16" class="edge"><title>Node8&#45;&gt;Node7</title>
<path fill="none" stroke="#9a32cd" stroke-dasharray="5,2" d="M281.963,-385C332.101,-385 398.904,-385 446.486,-385"/>
<polygon fill="#9a32cd" stroke="#9a32cd" points="281.85,-381.5 271.85,-385 281.85,-388.5 281.85,-381.5"/>
<text text-anchor="middle" x="359" y="-389" font-family="FreeSans" font-size="10.00"> batches_</text>
</g>
<!-- Node9 -->
<g id="node18" class="node"><title>Node9</title>
<a xlink:href="a00332.html" target="_top" xlink:title="2D texture resource.">
<polygon fill="none" stroke="red" points="452.5,-334.5 452.5,-355.5 559.5,-355.5 559.5,-334.5 452.5,-334.5"/>
<text text-anchor="middle" x="506" y="-342.5" font-family="FreeSans" font-size="10.00">Urho3D::Texture2D</text>
</a>
</g>
<!-- Node9&#45;&gt;Node3 -->
<g id="edge20" class="edge"><title>Node9&#45;&gt;Node3</title>
<path fill="none" stroke="#9a32cd" stroke-dasharray="5,2" d="M569.595,-350.027C612.772,-353.939 671.059,-360.193 722,-369 738.113,-371.786 755.667,-375.729 770.895,-379.448"/>
<polygon fill="#9a32cd" stroke="#9a32cd" points="569.784,-346.53 559.514,-349.131 569.165,-353.503 569.784,-346.53"/>
<text text-anchor="middle" x="653" y="-373" font-family="FreeSans" font-size="10.00"> shadowMap_</text>
</g>
<!-- Node10&#45;&gt;Node3 -->
<g id="edge24" class="edge"><title>Node10&#45;&gt;Node3</title>
<path fill="none" stroke="#9a32cd" stroke-dasharray="5,2" d="M1019.28,-423.796C985.306,-419.535 939.924,-413.493 900,-407 888.2,-405.081 875.562,-402.803 863.624,-400.548"/>
<polygon fill="#9a32cd" stroke="#9a32cd" points="1019.09,-427.298 1029.44,-425.06 1019.95,-420.352 1019.09,-427.298"/>
<text text-anchor="middle" x="946" y="-423" font-family="FreeSans" font-size="10.00"> light_</text>
</g>
<!-- Node10&#45;&gt;Node11 -->
<g id="edge48" class="edge"><title>Node10&#45;&gt;Node11</title>
<path fill="none" stroke="#9a32cd" stroke-dasharray="5,2" d="M1122.76,-439.302C1131.82,-440.704 1141.17,-442.011 1150,-443 1193.97,-447.926 1244.14,-450.745 1280.82,-452.294"/>
<polygon fill="#9a32cd" stroke="#9a32cd" points="1123.14,-435.816 1112.71,-437.688 1122.03,-442.728 1123.14,-435.816"/>
<text text-anchor="middle" x="1199" y="-454" font-family="FreeSans" font-size="10.00"> firstLight_</text>
</g>
<!-- Node11&#45;&gt;Node10 -->
<g id="edge26" class="edge"><title>Node11&#45;&gt;Node10</title>
<path fill="none" stroke="midnightblue" d="M1270.83,-448.122C1263.14,-447.403 1255.39,-446.682 1248,-446 1201.76,-441.734 1148.71,-436.954 1112.85,-433.739"/>
<polygon fill="midnightblue" stroke="midnightblue" points="1270.58,-451.613 1280.86,-449.062 1271.23,-444.644 1270.58,-451.613"/>
</g>
<!-- Node12 -->
<g id="node25" class="node"><title>Node12</title>
<a xlink:href="a00371.html" target="_top" xlink:title="Component that describes global rendering properties">
<polygon fill="none" stroke="black" points="1541.5,-415.5 1541.5,-436.5 1626.5,-436.5 1626.5,-415.5 1541.5,-415.5"/>
<text text-anchor="middle" x="1584" y="-423.5" font-family="FreeSans" font-size="10.00">Urho3D::Zone</text>
</a>
</g>
<!-- Node11&#45;&gt;Node12 -->
<g id="edge30" class="edge"><title>Node11&#45;&gt;Node12</title>
<path fill="none" stroke="midnightblue" d="M1395.33,-449.845C1426.27,-447.495 1464.16,-444.183 1498,-440 1512.11,-438.255 1527.46,-435.904 1541.22,-433.627"/>
<polygon fill="midnightblue" stroke="midnightblue" points="1394.84,-446.372 1385.13,-450.605 1395.36,-453.353 1394.84,-446.372"/>
</g>
<!-- Node12&#45;&gt;Node2 -->
<g id="edge58" class="edge"><title>Node12&#45;&gt;Node2</title>
<path fill="none" stroke="#9a32cd" stroke-dasharray="5,2" d="M1636.52,-414.878C1693.66,-402.636 1777.77,-384.134 1784,-380 1829.2,-350.019 1859.52,-289.442 1870.46,-264.797"/>
<polygon fill="#9a32cd" stroke="#9a32cd" points="1635.59,-411.498 1626.55,-417.012 1637.06,-418.344 1635.59,-411.498"/>
<text text-anchor="middle" x="1727" y="-410" font-family="FreeSans" font-size="10.00"> zone_</text>
</g>
<!-- Node12&#45;&gt;Node11 -->
<g id="edge28" class="edge"><title>Node12&#45;&gt;Node11</title>
<path fill="none" stroke="#9a32cd" stroke-dasharray="5,2" d="M1531.14,-422.288C1498.37,-420.98 1455.5,-421.071 1418,-427 1397.81,-430.192 1375.84,-437.27 1359.3,-443.379"/>
<polygon fill="#9a32cd" stroke="#9a32cd" points="1531.26,-425.797 1541.41,-422.756 1531.58,-418.804 1531.26,-425.797"/>
<text text-anchor="middle" x="1458" y="-431" font-family="FreeSans" font-size="10.00"> zone_</text>
</g>
<!-- Node13 -->
<g id="node28" class="node"><title>Node13</title>
<a xlink:href="a00362.html" target="_top" xlink:title="Urho3D::WeakPtr\&lt; Urho3D\l::Zone \&gt;">
<polygon fill="none" stroke="red" points="1802,-452 1802,-486 1948,-486 1948,-452 1802,-452"/>
<text text-anchor="start" x="1810" y="-473" font-family="FreeSans" font-size="10.00">Urho3D::WeakPtr&lt; Urho3D</text>
<text text-anchor="middle" x="1875" y="-460" font-family="FreeSans" font-size="10.00">::Zone &gt;</text>
</a>
</g>
<!-- Node12&#45;&gt;Node13 -->
<g id="edge34" class="edge"><title>Node12&#45;&gt;Node13</title>
<path fill="none" stroke="#9a32cd" stroke-dasharray="5,2" d="M1604.7,-442.986C1621.23,-455.398 1645.61,-471.199 1670,-478 1712.55,-489.864 1761.98,-488.123 1801.64,-483.174"/>
<polygon fill="#9a32cd" stroke="#9a32cd" points="1606.41,-439.886 1596.36,-436.518 1602.12,-445.415 1606.41,-439.886"/>
<text text-anchor="middle" x="1727" y="-490" font-family="FreeSans" font-size="10.00"> ptr_</text>
</g>
<!-- Node13&#45;&gt;Node12 -->
<g id="edge32" class="edge"><title>Node13&#45;&gt;Node12</title>
<path fill="none" stroke="#9a32cd" stroke-dasharray="5,2" d="M1820.84,-448.66C1808.86,-444.862 1796.12,-441.352 1784,-439 1730.37,-428.593 1667.3,-426.061 1626.54,-425.66"/>
<polygon fill="#9a32cd" stroke="#9a32cd" points="1820.11,-452.103 1830.7,-451.9 1822.3,-445.453 1820.11,-452.103"/>
<text text-anchor="start" x="1670.5" y="-469" font-family="FreeSans" font-size="10.00"> lastAmbientEndZone</text>
<text text-anchor="middle" x="1727" y="-456" font-family="FreeSans" font-size="10.00">_</text>
<text text-anchor="middle" x="1727" y="-443" font-family="FreeSans" font-size="10.00">lastAmbientStartZone_</text>
</g>
<!-- Node14 -->
<g id="node31" class="node"><title>Node14</title>
<a xlink:href="a00080.html" target="_top" xlink:title="Three&#45;dimensional axis&#45;aligned bounding box.">
<polygon fill="none" stroke="red" points="1010,-371.5 1010,-392.5 1132,-392.5 1132,-371.5 1010,-371.5"/>
<text text-anchor="middle" x="1071" y="-379.5" font-family="FreeSans" font-size="10.00">Urho3D::BoundingBox</text>
</a>
</g>
<!-- Node14&#45;&gt;Node11 -->
<g id="edge50" class="edge"><title>Node14&#45;&gt;Node11</title>
<path fill="none" stroke="#9a32cd" stroke-dasharray="5,2" d="M1142.05,-386.089C1174.93,-389.477 1214.13,-395.672 1248,-407 1274.07,-415.717 1301.4,-432.388 1317.82,-443.35"/>
<polygon fill="#9a32cd" stroke="#9a32cd" points="1142.35,-382.602 1132.06,-385.125 1141.68,-389.569 1142.35,-382.602"/>
<text text-anchor="middle" x="1199" y="-424" font-family="FreeSans" font-size="10.00"> worldBoundingBox_</text>
<text text-anchor="middle" x="1199" y="-411" font-family="FreeSans" font-size="10.00">boundingBox_</text>
</g>
<!-- Node14&#45;&gt;Node12 -->
<g id="edge36" class="edge"><title>Node14&#45;&gt;Node12</title>
<path fill="none" stroke="#9a32cd" stroke-dasharray="5,2" d="M1142.34,-380.43C1174.64,-380.227 1213.28,-380.689 1248,-383 1354.06,-390.06 1477.85,-408.587 1541.47,-418.868"/>
<polygon fill="#9a32cd" stroke="#9a32cd" points="1142.06,-376.932 1132.09,-380.518 1142.12,-383.932 1142.06,-376.932"/>
<text text-anchor="middle" x="1333" y="-401" font-family="FreeSans" font-size="10.00"> lastWorldBoundingBox_</text>
</g>
<!-- Node15 -->
<g id="node33" class="node"><title>Node15</title>
<a xlink:href="a00096.html" target="_top" xlink:title="RGBA color.">
<polygon fill="none" stroke="black" points="769,-545.5 769,-566.5 853,-566.5 853,-545.5 769,-545.5"/>
<text text-anchor="middle" x="811" y="-553.5" font-family="FreeSans" font-size="10.00">Urho3D::Color</text>
</a>
</g>
<!-- Node15&#45;&gt;Node10 -->
<g id="edge54" class="edge"><title>Node15&#45;&gt;Node10</title>
<path fill="none" stroke="#9a32cd" stroke-dasharray="5,2" d="M863.174,-547.382C912.592,-538.936 980.869,-526.423 992,-520 1026.39,-500.153 1053.44,-459.822 1064.96,-440.622"/>
<polygon fill="#9a32cd" stroke="#9a32cd" points="862.526,-543.942 853.253,-549.067 863.698,-550.843 862.526,-543.942"/>
<text text-anchor="middle" x="946" y="-544" font-family="FreeSans" font-size="10.00"> color_</text>
</g>
<!-- Node15&#45;&gt;Node12 -->
<g id="edge38" class="edge"><title>Node15&#45;&gt;Node12</title>
<path fill="none" stroke="#9a32cd" stroke-dasharray="5,2" d="M863.492,-558.669C899.693,-559.857 948.872,-560.179 992,-556 1220.08,-533.897 1277.12,-518.032 1498,-457 1518.5,-451.336 1541.1,-443.108 1557.99,-436.552"/>
<polygon fill="#9a32cd" stroke="#9a32cd" points="863.29,-555.159 853.17,-558.295 863.037,-562.155 863.29,-555.159"/>
<text text-anchor="middle" x="1199" y="-580" font-family="FreeSans" font-size="10.00"> ambientEndColor_</text>
<text text-anchor="middle" x="1199" y="-567" font-family="FreeSans" font-size="10.00">fogColor_</text>
<text text-anchor="middle" x="1199" y="-554" font-family="FreeSans" font-size="10.00">ambientColor_</text>
<text text-anchor="middle" x="1199" y="-541" font-family="FreeSans" font-size="10.00">ambientStartColor_</text>
</g>
<!-- Node15&#45;&gt;Node15 -->
<g id="edge40" class="edge"><title>Node15&#45;&gt;Node15</title>
<path fill="none" stroke="#9a32cd" stroke-dasharray="5,2" d="M786.305,-576.427C788.21,-581.349 796.442,-585 811,-585 834.293,-585 841.39,-575.653 832.291,-566.708"/>
<polygon fill="#9a32cd" stroke="#9a32cd" points="789.707,-577.303 789.709,-566.708 783.1,-574.989 789.707,-577.303"/>
<text text-anchor="middle" x="811" y="-719" font-family="FreeSans" font-size="10.00"> CYAN</text>
<text text-anchor="middle" x="811" y="-706" font-family="FreeSans" font-size="10.00">GRAY</text>
<text text-anchor="middle" x="811" y="-693" font-family="FreeSans" font-size="10.00">YELLOW</text>
<text text-anchor="middle" x="811" y="-680" font-family="FreeSans" font-size="10.00">MAGENTA</text>
<text text-anchor="middle" x="811" y="-667" font-family="FreeSans" font-size="10.00">WHITE</text>
<text text-anchor="middle" x="811" y="-654" font-family="FreeSans" font-size="10.00">TRANSPARENT</text>
<text text-anchor="middle" x="811" y="-641" font-family="FreeSans" font-size="10.00">BLUE</text>
<text text-anchor="middle" x="811" y="-628" font-family="FreeSans" font-size="10.00">BLACK</text>
<text text-anchor="middle" x="811" y="-615" font-family="FreeSans" font-size="10.00">RED</text>
<text text-anchor="middle" x="811" y="-602" font-family="FreeSans" font-size="10.00">GREEN</text>
<text text-anchor="middle" x="811" y="-589" font-family="FreeSans" font-size="10.00">...</text>
</g>
<!-- Node16 -->
<g id="node36" class="node"><title>Node16</title>
<a xlink:href="a00201.html" target="_top" xlink:title="3x4 matrix for scene node transform calculations.">
<polygon fill="none" stroke="black" points="758,-240.5 758,-261.5 864,-261.5 864,-240.5 758,-240.5"/>
<text text-anchor="middle" x="811" y="-248.5" font-family="FreeSans" font-size="10.00">Urho3D::Matrix3x4</text>
</a>
</g>
<!-- Node16&#45;&gt;Node2 -->
<g id="edge78" class="edge"><title>Node16&#45;&gt;Node2</title>
<path fill="none" stroke="#9a32cd" stroke-dasharray="5,2" d="M874.23,-246.351C882.885,-245.827 891.659,-245.355 900,-245 1233.95,-230.77 1318.08,-219.056 1652,-234 1714.52,-236.798 1786.6,-243.987 1831.49,-248.937"/>
<polygon fill="#9a32cd" stroke="#9a32cd" points="873.917,-242.863 864.156,-246.985 874.357,-249.849 873.917,-242.863"/>
<text text-anchor="middle" x="1333" y="-232" font-family="FreeSans" font-size="10.00"> worldTransform_</text>
</g>
<!-- Node16&#45;&gt;Node10 -->
<g id="edge56" class="edge"><title>Node16&#45;&gt;Node10</title>
<path fill="none" stroke="#9a32cd" stroke-dasharray="5,2" d="M847.518,-265.535C887.601,-283.1 951.612,-316.116 992,-362 1004.88,-376.634 996.267,-388.164 1010,-402 1017.47,-409.526 1027.34,-415.24 1036.95,-419.478"/>
<polygon fill="#9a32cd" stroke="#9a32cd" points="848.688,-262.229 838.117,-261.507 845.93,-268.663 848.688,-262.229"/>
<text text-anchor="middle" x="946" y="-366" font-family="FreeSans" font-size="10.00"> volumeTransform_</text>
</g>
<!-- Node16&#45;&gt;Node12 -->
<g id="edge42" class="edge"><title>Node16&#45;&gt;Node12</title>
<path fill="none" stroke="#9a32cd" stroke-dasharray="5,2" d="M874.507,-247.242C985.066,-242.903 1218.44,-243.583 1400,-311 1458.95,-332.889 1461.96,-359.854 1516,-392 1530.52,-400.637 1547.52,-409.137 1560.89,-415.478"/>
<polygon fill="#9a32cd" stroke="#9a32cd" points="874.041,-243.758 864.197,-247.676 874.335,-250.752 874.041,-243.758"/>
<text text-anchor="middle" x="1199" y="-273" font-family="FreeSans" font-size="10.00"> inverseWorld_</text>
</g>
<!-- Node16&#45;&gt;Node16 -->
<g id="edge44" class="edge"><title>Node16&#45;&gt;Node16</title>
<path fill="none" stroke="#9a32cd" stroke-dasharray="5,2" d="M786.305,-271.427C788.21,-276.349 796.442,-280 811,-280 834.293,-280 841.39,-270.653 832.291,-261.708"/>
<polygon fill="#9a32cd" stroke="#9a32cd" points="789.707,-272.303 789.709,-261.708 783.1,-269.989 789.707,-272.303"/>
<text text-anchor="middle" x="811" y="-297" font-family="FreeSans" font-size="10.00"> IDENTITY</text>
<text text-anchor="middle" x="811" y="-284" font-family="FreeSans" font-size="10.00">ZERO</text>
</g>
<!-- Node21 -->
<g id="node54" class="node"><title>Node21</title>
<a xlink:href="a00084.html" target="_top" xlink:title="Camera component.">
<polygon fill="none" stroke="red" points="1150,-67.5 1150,-88.5 1248,-88.5 1248,-67.5 1150,-67.5"/>
<text text-anchor="middle" x="1199" y="-75.5" font-family="FreeSans" font-size="10.00">Urho3D::Camera</text>
</a>
</g>
<!-- Node16&#45;&gt;Node21 -->
<g id="edge70" class="edge"><title>Node16&#45;&gt;Node21</title>
<path fill="none" stroke="#9a32cd" stroke-dasharray="5,2" d="M832.927,-234.106C850.418,-221.162 875.897,-203.464 900,-191 990.944,-143.971 1106.11,-106.036 1163.34,-88.5146"/>
<polygon fill="#9a32cd" stroke="#9a32cd" points="830.454,-231.587 824.558,-240.389 834.657,-237.185 830.454,-231.587"/>
<text text-anchor="middle" x="946" y="-208" font-family="FreeSans" font-size="10.00"> view_</text>
<text text-anchor="middle" x="946" y="-195" font-family="FreeSans" font-size="10.00">reflectionMatrix_</text>
</g>
<!-- Node17 -->
<g id="node46" class="node"><title>Node17</title>
<a xlink:href="a00155.html" target="_top" xlink:title="Defines one or more vertex buffers, an index buffer and a draw range.">
<polygon fill="none" stroke="red" points="1530.5,-146.5 1530.5,-167.5 1637.5,-167.5 1637.5,-146.5 1530.5,-146.5"/>
<text text-anchor="middle" x="1584" y="-154.5" font-family="FreeSans" font-size="10.00">Urho3D::Geometry</text>
</a>
</g>
<!-- Node17&#45;&gt;Node2 -->
<g id="edge60" class="edge"><title>Node17&#45;&gt;Node2</title>
<path fill="none" stroke="#9a32cd" stroke-dasharray="5,2" d="M1647.61,-159.22C1687.97,-162.456 1740.57,-170.116 1784,-188 1816.3,-201.302 1847.92,-228.27 1864.02,-243.289"/>
<polygon fill="#9a32cd" stroke="#9a32cd" points="1647.85,-155.728 1637.62,-158.489 1647.34,-162.71 1647.85,-155.728"/>
<text text-anchor="middle" x="1727" y="-192" font-family="FreeSans" font-size="10.00"> geometry_</text>
</g>
<!-- Node18 -->
<g id="node48" class="node"><title>Node18</title>
<a xlink:href="a00223.html" target="_top" xlink:title="Base class for objects with type identification, subsystem access and event sending/receiving capabil...">
<polygon fill="none" stroke="red" points="1288,-173.5 1288,-194.5 1378,-194.5 1378,-173.5 1288,-173.5"/>
<text text-anchor="middle" x="1333" y="-181.5" font-family="FreeSans" font-size="10.00">Urho3D::Object</text>
</a>
</g>
<!-- Node18&#45;&gt;Node17 -->
<g id="edge62" class="edge"><title>Node18&#45;&gt;Node17</title>
<path fill="none" stroke="midnightblue" d="M1388.33,-180.213C1420.41,-177.79 1461.55,-174.297 1498,-170 1508.5,-168.763 1519.68,-167.23 1530.4,-165.656"/>
<polygon fill="midnightblue" stroke="midnightblue" points="1387.96,-176.73 1378.25,-180.961 1388.48,-183.711 1387.96,-176.73"/>
</g>
<!-- Node19 -->
<g id="node50" class="node"><title>Node19</title>
<a xlink:href="a00299.html" target="_top" xlink:title="Urho3D::SharedArrayPtr\l\&lt; unsigned char \&gt;">
<polygon fill="none" stroke="red" points="1266.5,-121 1266.5,-155 1399.5,-155 1399.5,-121 1266.5,-121"/>
<text text-anchor="start" x="1274.5" y="-142" font-family="FreeSans" font-size="10.00">Urho3D::SharedArrayPtr</text>
<text text-anchor="middle" x="1333" y="-129" font-family="FreeSans" font-size="10.00">&lt; unsigned char &gt;</text>
</a>
</g>
<!-- Node19&#45;&gt;Node17 -->
<g id="edge64" class="edge"><title>Node19&#45;&gt;Node17</title>
<path fill="none" stroke="#9a32cd" stroke-dasharray="5,2" d="M1409.81,-138.981C1437.64,-139.815 1469.28,-141.316 1498,-144 1508.52,-144.984 1519.72,-146.401 1530.44,-147.942"/>
<polygon fill="#9a32cd" stroke="#9a32cd" points="1409.84,-135.481 1399.75,-138.704 1409.65,-142.478 1409.84,-135.481"/>
<text text-anchor="middle" x="1458" y="-161" font-family="FreeSans" font-size="10.00"> rawVertexData_</text>
<text text-anchor="middle" x="1458" y="-148" font-family="FreeSans" font-size="10.00">rawIndexData_</text>
</g>
<!-- Node20 -->
<g id="node52" class="node"><title>Node20</title>
<a xlink:href="a00300.html" target="_top" xlink:title="Urho3D::SharedPtr\&lt;\l Urho3D::IndexBuffer \&gt;">
<polygon fill="none" stroke="red" points="1269,-69 1269,-103 1397,-103 1397,-69 1269,-69"/>
<text text-anchor="start" x="1277" y="-90" font-family="FreeSans" font-size="10.00">Urho3D::SharedPtr&lt;</text>
<text text-anchor="middle" x="1333" y="-77" font-family="FreeSans" font-size="10.00"> Urho3D::IndexBuffer &gt;</text>
</a>
</g>
<!-- Node20&#45;&gt;Node17 -->
<g id="edge66" class="edge"><title>Node20&#45;&gt;Node17</title>
<path fill="none" stroke="#9a32cd" stroke-dasharray="5,2" d="M1407.09,-99.3407C1435.77,-105.238 1468.69,-112.912 1498,-122 1519.86,-128.779 1543.93,-138.806 1561.03,-146.392"/>
<polygon fill="#9a32cd" stroke="#9a32cd" points="1407.62,-95.879 1397.13,-97.3293 1406.24,-102.74 1407.62,-95.879"/>
<text text-anchor="middle" x="1458" y="-126" font-family="FreeSans" font-size="10.00"> indexBuffer_</text>
</g>
<!-- Node21&#45;&gt;Node2 -->
<g id="edge68" class="edge"><title>Node21&#45;&gt;Node2</title>
<path fill="none" stroke="#9a32cd" stroke-dasharray="5,2" d="M1241.1,-64.8917C1249.28,-62.8571 1257.85,-61.0757 1266,-60 1325.04,-52.207 1340.9,-52.6509 1400,-60 1574.68,-81.7216 1632.33,-67.6533 1784,-157 1822.4,-179.62 1854.62,-223.266 1868.16,-243.378"/>
<polygon fill="#9a32cd" stroke="#9a32cd" points="1240.14,-61.5261 1231.37,-67.4684 1241.93,-68.2931 1240.14,-61.5261"/>
<text text-anchor="middle" x="1458" y="-75" font-family="FreeSans" font-size="10.00"> camera_</text>
</g>
<!-- Node22 -->
<g id="node57" class="node"><title>Node22</title>
<a xlink:href="a00197.html" target="_top" xlink:title="Describes how to render 3D geometries.">
<polygon fill="none" stroke="red" points="1535,-361.5 1535,-382.5 1633,-382.5 1633,-361.5 1535,-361.5"/>
<text text-anchor="middle" x="1584" y="-369.5" font-family="FreeSans" font-size="10.00">Urho3D::Material</text>
</a>
</g>
<!-- Node22&#45;&gt;Node2 -->
<g id="edge72" class="edge"><title>Node22&#45;&gt;Node2</title>
<path fill="none" stroke="#9a32cd" stroke-dasharray="5,2" d="M1643.44,-367.823C1693.25,-363.569 1759.97,-355.892 1784,-344 1822.24,-325.08 1854.31,-283.915 1867.95,-264.515"/>
<polygon fill="#9a32cd" stroke="#9a32cd" points="1643.08,-364.34 1633.4,-368.654 1643.66,-371.317 1643.08,-364.34"/>
<text text-anchor="middle" x="1727" y="-368" font-family="FreeSans" font-size="10.00"> material_</text>
</g>
<!-- Node23 -->
<g id="node59" class="node"><title>Node23</title>
<a xlink:href="a00297.html" target="_top" xlink:title="Vertex or pixel shader on the GPU.">
<polygon fill="none" stroke="red" points="1516,-283.5 1516,-304.5 1652,-304.5 1652,-283.5 1516,-283.5"/>
<text text-anchor="middle" x="1584" y="-291.5" font-family="FreeSans" font-size="10.00">Urho3D::ShaderVariation</text>
</a>
</g>
<!-- Node23&#45;&gt;Node2 -->
<g id="edge74" class="edge"><title>Node23&#45;&gt;Node2</title>
<path fill="none" stroke="#9a32cd" stroke-dasharray="5,2" d="M1662.37,-285.599C1699.33,-281.38 1744,-275.912 1784,-270 1799.39,-267.725 1816.19,-264.877 1831.11,-262.217"/>
<polygon fill="#9a32cd" stroke="#9a32cd" points="1661.7,-282.152 1652.16,-286.755 1662.49,-289.107 1661.7,-282.152"/>
<text text-anchor="middle" x="1727" y="-301" font-family="FreeSans" font-size="10.00"> pixelShader_</text>
<text text-anchor="middle" x="1727" y="-288" font-family="FreeSans" font-size="10.00">vertexShader_</text>
</g>
<!-- Node24 -->
<g id="node61" class="node"><title>Node24</title>
<a xlink:href="a00243.html" target="_top" xlink:title="Material rendering pass, which defines shaders and render state.">
<polygon fill="none" stroke="red" points="1543.5,-243.5 1543.5,-264.5 1624.5,-264.5 1624.5,-243.5 1543.5,-243.5"/>
<text text-anchor="middle" x="1584" y="-251.5" font-family="FreeSans" font-size="10.00">Urho3D::Pass</text>
</a>
</g>
<!-- Node24&#45;&gt;Node2 -->
<g id="edge76" class="edge"><title>Node24&#45;&gt;Node2</title>
<path fill="none" stroke="#9a32cd" stroke-dasharray="5,2" d="M1635.1,-254C1690.69,-254 1778.63,-254 1831.18,-254"/>
<polygon fill="#9a32cd" stroke="#9a32cd" points="1634.77,-250.5 1624.77,-254 1634.77,-257.5 1634.77,-250.5"/>
<text text-anchor="middle" x="1727" y="-258" font-family="FreeSans" font-size="10.00"> pass_</text>
</g>
<!-- Node25&#45;&gt;Node1 -->
<g id="edge80" class="edge"><title>Node25&#45;&gt;Node1</title>
<path fill="none" stroke="#9a32cd" stroke-dasharray="5,2" d="M683.394,-104.658C734.6,-67.735 842.625,-0 946,-0 946,-0 946,-0 1875,-0 1935.85,-0 2000.49,-38.8125 2029,-58.2188"/>
<polygon fill="#9a32cd" stroke="#9a32cd" points="681.091,-102.006 675.09,-110.737 685.226,-107.654 681.091,-102.006"/>
<text text-anchor="middle" x="1333" y="-4" font-family="FreeSans" font-size="10.00"> instances_</text>
</g>
</g>
</svg>
        <g id="navigator" transform="translate(0 0)" fill="#404254">
                <rect fill="#f2f5e9" fill-opacity="0.5" stroke="#606060" stroke-width=".5" x="0" y="0" width="60" height="60"/>
                <use id="zoomplus" xlink:href="#zoomPlus" x="17" y="9" onmousedown="handleZoom(evt,'in')"/>
                <use id="zoomminus" xlink:href="#zoomMin" x="42" y="9" onmousedown="handleZoom(evt,'out')"/>
                <use id="reset" xlink:href="#resetDef" x="30" y="36" onmousedown="handleReset()"/>
                <g id="arrowUp" xlink:href="#dirArrow" transform="translate(30 24)" onmousedown="handlePan(0,-1)">
                  <use xlink:href="#rim" fill="#404040">
                        <set attributeName="fill" to="#808080" begin="arrowUp.mouseover" end="arrowUp.mouseout"/>
                  </use>
                  <path fill="none" stroke="white" stroke-width="1.5" d="M0,-3.0v7 M-2.5,-0.5L0,-3.0L2.5,-0.5"/>
                </g>
                <g id="arrowRight" xlink:href="#dirArrow" transform="rotate(90) translate(36 -43)" onmousedown="handlePan(1,0)">
                  <use xlink:href="#rim" fill="#404040">
                        <set attributeName="fill" to="#808080" begin="arrowRight.mouseover" end="arrowRight.mouseout"/>
                  </use>
                  <path fill="none" stroke="white" stroke-width="1.5" d="M0,-3.0v7 M-2.5,-0.5L0,-3.0L2.5,-0.5"/>
                </g>
                <g id="arrowDown" xlink:href="#dirArrow" transform="rotate(180) translate(-30 -48)" onmousedown="handlePan(0,1)">
                  <use xlink:href="#rim" fill="#404040">
                        <set attributeName="fill" to="#808080" begin="arrowDown.mouseover" end="arrowDown.mouseout"/>
                  </use>
                  <path fill="none" stroke="white" stroke-width="1.5" d="M0,-3.0v7 M-2.5,-0.5L0,-3.0L2.5,-0.5"/>
                </g>
                <g id="arrowLeft" xlink:href="#dirArrow" transform="rotate(270) translate(-36 17)" onmousedown="handlePan(-1,0)">
                  <use xlink:href="#rim" fill="#404040">
                        <set attributeName="fill" to="#808080" begin="arrowLeft.mouseover" end="arrowLeft.mouseout"/>
                  </use>
                  <path fill="none" stroke="white" stroke-width="1.5" d="M0,-3.0v7 M-2.5,-0.5L0,-3.0L2.5,-0.5"/>
                </g>
        </g>
        <svg viewBox="0 0 15 15" width="100%" height="30px" preserveAspectRatio="xMaxYMin meet">
         <g id="arrow_out" transform="scale(0.3 0.3)">
          <a xlink:href="a01035_org.svg" target="_base">
           <rect id="button" ry="5" rx="5" y="6" x="6" height="38" width="38"
                fill="#f2f5e9" fill-opacity="0.5" stroke="#606060" stroke-width="1.0"/>
           <path id="arrow"
             d="M 11.500037,31.436501 C 11.940474,20.09759 22.043105,11.32322 32.158766,21.979434 L 37.068811,17.246167 C 37.068811,17.246167 37.088388,32 37.088388,32 L 22.160133,31.978069 C 22.160133,31.978069 26.997745,27.140456 26.997745,27.140456 C 18.528582,18.264221 13.291696,25.230495 11.500037,31.436501 z"
             style="fill:#404040;"/>
          </a>
         </g>
        </svg>
</svg>
