<?xml version="1.0" encoding="UTF-8" standalone="no"?>
<!DOCTYPE svg PUBLIC "-//W3C//DTD SVG 1.1//EN"
 "http://www.w3.org/Graphics/SVG/1.1/DTD/svg11.dtd">
<!-- Generated by graphviz version 2.26.3 (20100126.1600)
 -->
<!-- Title: Urho3D::AnimationStateTrack Pages: 1 -->
<svg width="1524pt" height="1084pt"
 viewBox="0.00 0.00 1524.00 1084.43" xmlns="http://www.w3.org/2000/svg" xmlns:xlink="http://www.w3.org/1999/xlink">
<g id="graph1" class="graph" transform="scale(1 1) rotate(0) translate(4 1080.43)">
<title>Urho3D::AnimationStateTrack</title>
<!-- Node1 -->
<g id="node1" class="node"><title>Node1</title>
<polygon fill="#bfbfbf" stroke="black" points="1358,-712.839 1358,-733.839 1516,-733.839 1516,-712.839 1358,-712.839"/>
<text text-anchor="middle" x="1437" y="-720.839" font-family="FreeSans" font-size="10.00">Urho3D::AnimationStateTrack</text>
</g>
<!-- Node2 -->
<g id="node2" class="node"><title>Node2</title>
<a xlink:href="a00082.html" target="_top" xlink:title="Bone in a skeleton.">
<polygon fill="none" stroke="black" points="1204,-712.839 1204,-733.839 1288,-733.839 1288,-712.839 1204,-712.839"/>
<text text-anchor="middle" x="1246" y="-720.839" font-family="FreeSans" font-size="10.00">Urho3D::Bone</text>
</a>
</g>
<!-- Node2&#45;&gt;Node1 -->
<g id="edge2" class="edge"><title>Node2&#45;&gt;Node1</title>
<path fill="none" stroke="#9a32cd" stroke-dasharray="5,2" d="M1298.55,-723.339C1316.87,-723.339 1337.85,-723.339 1357.84,-723.339"/>
<polygon fill="#9a32cd" stroke="#9a32cd" points="1298.39,-719.839 1288.39,-723.339 1298.39,-726.839 1298.39,-719.839"/>
<text text-anchor="middle" x="1323" y="-727.339" font-family="FreeSans" font-size="10.00"> bone_</text>
</g>
<!-- Node3 -->
<g id="node4" class="node"><title>Node3</title>
<a xlink:href="a00273.html" target="_top" xlink:title="Rotation represented as a four&#45;dimensional normalized vector.">
<polygon fill="none" stroke="black" points="429.5,-645.839 429.5,-666.839 542.5,-666.839 542.5,-645.839 429.5,-645.839"/>
<text text-anchor="middle" x="486" y="-653.839" font-family="FreeSans" font-size="10.00">Urho3D::Quaternion</text>
</a>
</g>
<!-- Node3&#45;&gt;Node2 -->
<g id="edge4" class="edge"><title>Node3&#45;&gt;Node2</title>
<path fill="none" stroke="#9a32cd" stroke-dasharray="5,2" d="M530.723,-669.638C553.123,-675.754 580.779,-682.492 606,-686.339 829.349,-720.406 1100.91,-723.71 1203.78,-723.618"/>
<polygon fill="#9a32cd" stroke="#9a32cd" points="531.401,-666.193 520.829,-666.884 529.524,-672.937 531.401,-666.193"/>
<text text-anchor="middle" x="933" y="-722.339" font-family="FreeSans" font-size="10.00"> initialRotation_</text>
</g>
<!-- Node3&#45;&gt;Node3 -->
<g id="edge6" class="edge"><title>Node3&#45;&gt;Node3</title>
<path fill="none" stroke="#9a32cd" stroke-dasharray="5,2" d="M452.508,-676.018C454.302,-681.313 465.467,-685.339 486,-685.339 517.289,-685.339 526.822,-675.992 514.6,-667.047"/>
<polygon fill="#9a32cd" stroke="#9a32cd" points="455.685,-677.502 457.4,-667.047 449.539,-674.15 455.685,-677.502"/>
<text text-anchor="middle" x="486" y="-689.339" font-family="FreeSans" font-size="10.00"> IDENTITY</text>
</g>
<!-- Node6 -->
<g id="node12" class="node"><title>Node6</title>
<a xlink:href="a00235.html" target="_top" xlink:title="Scene node that may contain components and child nodes.">
<polygon fill="none" stroke="black" points="769.5,-461.839 769.5,-482.839 854.5,-482.839 854.5,-461.839 769.5,-461.839"/>
<text text-anchor="middle" x="812" y="-469.839" font-family="FreeSans" font-size="10.00">Urho3D::Node</text>
</a>
</g>
<!-- Node3&#45;&gt;Node6 -->
<g id="edge36" class="edge"><title>Node3&#45;&gt;Node6</title>
<path fill="none" stroke="#9a32cd" stroke-dasharray="5,2" d="M552.76,-659.705C604.8,-659.084 676.615,-650.777 728,-615.339 776.59,-581.828 801.225,-510.288 809.112,-483.114"/>
<polygon fill="#9a32cd" stroke="#9a32cd" points="552.618,-656.206 542.628,-659.733 552.637,-663.205 552.618,-656.206"/>
<text text-anchor="middle" x="667" y="-673.339" font-family="FreeSans" font-size="10.00"> worldRotation_</text>
<text text-anchor="middle" x="667" y="-660.339" font-family="FreeSans" font-size="10.00">rotation_</text>
</g>
<!-- Node4 -->
<g id="node7" class="node"><title>Node4</title>
<a xlink:href="a00376.html" target="_top" xlink:title="Three&#45;dimensional vector.">
<polygon fill="none" stroke="black" points="53,-120.839 53,-141.839 149,-141.839 149,-120.839 53,-120.839"/>
<text text-anchor="middle" x="101" y="-128.839" font-family="FreeSans" font-size="10.00">Urho3D::Vector3</text>
</a>
</g>
<!-- Node4&#45;&gt;Node2 -->
<g id="edge8" class="edge"><title>Node4&#45;&gt;Node2</title>
<path fill="none" stroke="#9a32cd" stroke-dasharray="5,2" d="M159.472,-130.744C251.19,-130.538 434.289,-133.059 588,-153.339 718.856,-170.603 760.921,-156.396 878,-217.339 1015,-288.65 1045.52,-325.748 1134,-452.339 1166.37,-498.655 1226.82,-668.437 1242.31,-712.719"/>
<polygon fill="#9a32cd" stroke="#9a32cd" points="159.27,-127.245 149.282,-130.779 159.294,-134.244 159.27,-127.245"/>
<text text-anchor="middle" x="812" y="-234.339" font-family="FreeSans" font-size="10.00"> initialScale_</text>
<text text-anchor="middle" x="812" y="-221.339" font-family="FreeSans" font-size="10.00">initialPosition_</text>
</g>
<!-- Node4&#45;&gt;Node4 -->
<g id="edge10" class="edge"><title>Node4&#45;&gt;Node4</title>
<path fill="none" stroke="#9a32cd" stroke-dasharray="5,2" d="M65.1553,-150.637C66.6279,-156.119 78.5762,-160.339 101,-160.339 134.375,-160.339 144.544,-150.992 131.507,-142.047"/>
<polygon fill="#9a32cd" stroke="#9a32cd" points="68.1883,-152.388 70.4932,-142.047 62.2426,-148.693 68.1883,-152.388"/>
<text text-anchor="middle" x="101" y="-255.339" font-family="FreeSans" font-size="10.00"> ONE</text>
<text text-anchor="middle" x="101" y="-242.339" font-family="FreeSans" font-size="10.00">DOWN</text>
<text text-anchor="middle" x="101" y="-229.339" font-family="FreeSans" font-size="10.00">BACK</text>
<text text-anchor="middle" x="101" y="-216.339" font-family="FreeSans" font-size="10.00">RIGHT</text>
<text text-anchor="middle" x="101" y="-203.339" font-family="FreeSans" font-size="10.00">LEFT</text>
<text text-anchor="middle" x="101" y="-190.339" font-family="FreeSans" font-size="10.00">ZERO</text>
<text text-anchor="middle" x="101" y="-177.339" font-family="FreeSans" font-size="10.00">FORWARD</text>
<text text-anchor="middle" x="101" y="-164.339" font-family="FreeSans" font-size="10.00">UP</text>
</g>
<!-- Node4&#45;&gt;Node6 -->
<g id="edge48" class="edge"><title>Node4&#45;&gt;Node6</title>
<path fill="none" stroke="#9a32cd" stroke-dasharray="5,2" d="M159.307,-141.009C306.423,-165.848 684.122,-232.517 728,-269.339 790.231,-321.562 807.057,-427.415 810.954,-461.501"/>
<polygon fill="#9a32cd" stroke="#9a32cd" points="159.564,-137.503 149.121,-139.294 158.401,-144.406 159.564,-137.503"/>
<text text-anchor="middle" x="486" y="-241.339" font-family="FreeSans" font-size="10.00"> scale_</text>
<text text-anchor="middle" x="486" y="-228.339" font-family="FreeSans" font-size="10.00">position_</text>
</g>
<!-- Node20 -->
<g id="node51" class="node"><title>Node20</title>
<a xlink:href="a00106.html" target="_top" xlink:title="Connection to a remote network host.">
<polygon fill="none" stroke="red" points="429.5,-308.839 429.5,-329.839 542.5,-329.839 542.5,-308.839 429.5,-308.839"/>
<text text-anchor="middle" x="486" y="-316.839" font-family="FreeSans" font-size="10.00">Urho3D::Connection</text>
</a>
</g>
<!-- Node4&#45;&gt;Node20 -->
<g id="edge68" class="edge"><title>Node4&#45;&gt;Node20</title>
<path fill="none" stroke="#9a32cd" stroke-dasharray="5,2" d="M130.28,-146.544C179.796,-172.56 282.807,-227.982 366,-281.339 374.307,-286.666 375.042,-290.199 384,-294.339 398.151,-300.879 414.227,-305.839 429.364,-309.545"/>
<polygon fill="#9a32cd" stroke="#9a32cd" points="131.874,-143.429 121.392,-141.889 128.626,-149.63 131.874,-143.429"/>
<text text-anchor="middle" x="293" y="-285.339" font-family="FreeSans" font-size="10.00"> position_</text>
</g>
<!-- Node23 -->
<g id="node62" class="node"><title>Node23</title>
<a xlink:href="a00084.html" target="_top" xlink:title="Three&#45;dimensional axis&#45;aligned bounding box.">
<polygon fill="none" stroke="black" points="606,-46.8387 606,-67.8387 728,-67.8387 728,-46.8387 606,-46.8387"/>
<text text-anchor="middle" x="667" y="-54.8387" font-family="FreeSans" font-size="10.00">Urho3D::BoundingBox</text>
</a>
</g>
<!-- Node4&#45;&gt;Node23 -->
<g id="edge82" class="edge"><title>Node4&#45;&gt;Node23</title>
<path fill="none" stroke="#9a32cd" stroke-dasharray="5,2" d="M135.973,-117.021C159.355,-108.091 191.029,-97.2142 220,-91.3387 355.961,-63.7649 519.3,-58.106 605.974,-57.212"/>
<polygon fill="#9a32cd" stroke="#9a32cd" points="134.543,-113.822 126.492,-120.709 137.081,-120.346 134.543,-113.822"/>
<text text-anchor="middle" x="293" y="-108.339" font-family="FreeSans" font-size="10.00"> max_</text>
<text text-anchor="middle" x="293" y="-95.3387" font-family="FreeSans" font-size="10.00">min_</text>
</g>
<!-- Node5 -->
<g id="node10" class="node"><title>Node5</title>
<a xlink:href="a00387.html" target="_top" xlink:title="Urho3D::WeakPtr\&lt; Urho3D\l::Node \&gt;">
<polygon fill="none" stroke="black" points="988,-79.3387 988,-113.339 1134,-113.339 1134,-79.3387 988,-79.3387"/>
<text text-anchor="start" x="996" y="-100.339" font-family="FreeSans" font-size="10.00">Urho3D::WeakPtr&lt; Urho3D</text>
<text text-anchor="middle" x="1061" y="-87.3387" font-family="FreeSans" font-size="10.00">::Node &gt;</text>
</a>
</g>
<!-- Node5&#45;&gt;Node1 -->
<g id="edge90" class="edge"><title>Node5&#45;&gt;Node1</title>
<path fill="none" stroke="#9a32cd" stroke-dasharray="5,2" d="M1144.34,-83.6933C1159.17,-85.0232 1173.76,-88.991 1186,-97.3387 1411.37,-251.1 1434.42,-643.536 1436.74,-712.811"/>
<polygon fill="#9a32cd" stroke="#9a32cd" points="1144.23,-80.1832 1134.06,-83.1726 1143.87,-87.1742 1144.23,-80.1832"/>
<text text-anchor="middle" x="1246" y="-198.339" font-family="FreeSans" font-size="10.00"> node_</text>
</g>
<!-- Node5&#45;&gt;Node2 -->
<g id="edge12" class="edge"><title>Node5&#45;&gt;Node2</title>
<path fill="none" stroke="#9a32cd" stroke-dasharray="5,2" d="M1144.17,-97.2222C1160,-101.222 1175.02,-108.313 1186,-120.339 1227.68,-165.976 1243.4,-635.954 1245.7,-712.753"/>
<polygon fill="#9a32cd" stroke="#9a32cd" points="1144.76,-93.768 1134.25,-95.1143 1143.3,-100.615 1144.76,-93.768"/>
<text text-anchor="middle" x="1169" y="-124.339" font-family="FreeSans" font-size="10.00"> node_</text>
</g>
<!-- Node6&#45;&gt;Node5 -->
<g id="edge14" class="edge"><title>Node6&#45;&gt;Node5</title>
<path fill="none" stroke="#9a32cd" stroke-dasharray="5,2" d="M824.844,-452.943C868.133,-387.576 1008.27,-175.957 1049.49,-113.712"/>
<polygon fill="#9a32cd" stroke="#9a32cd" points="821.787,-451.221 819.184,-461.491 827.623,-455.086 821.787,-451.221"/>
<text text-anchor="middle" x="933" y="-344.339" font-family="FreeSans" font-size="10.00"> ptr_</text>
</g>
<!-- Node6&#45;&gt;Node6 -->
<g id="edge52" class="edge"><title>Node6&#45;&gt;Node6</title>
<path fill="none" stroke="#9a32cd" stroke-dasharray="5,2" d="M789.885,-492.765C791.591,-497.688 798.963,-501.339 812,-501.339 832.859,-501.339 839.215,-491.992 831.067,-483.047"/>
<polygon fill="#9a32cd" stroke="#9a32cd" points="793.28,-493.636 792.933,-483.047 786.601,-491.541 793.28,-493.636"/>
<text text-anchor="middle" x="812" y="-505.339" font-family="FreeSans" font-size="10.00"> parent_</text>
</g>
<!-- Node12 -->
<g id="node24" class="node"><title>Node12</title>
<a xlink:href="a00298.html" target="_top" xlink:title="Root scene node, represents the whole scene.">
<polygon fill="none" stroke="red" points="1016.5,-461.839 1016.5,-482.839 1105.5,-482.839 1105.5,-461.839 1016.5,-461.839"/>
<text text-anchor="middle" x="1061" y="-469.839" font-family="FreeSans" font-size="10.00">Urho3D::Scene</text>
</a>
</g>
<!-- Node6&#45;&gt;Node12 -->
<g id="edge28" class="edge"><title>Node6&#45;&gt;Node12</title>
<path fill="none" stroke="midnightblue" d="M864.871,-470.888C875.194,-470.659 885.935,-470.459 896,-470.339 928.887,-469.947 937.113,-469.977 970,-470.339 985.011,-470.504 1001.41,-470.822 1016.11,-471.156"/>
<polygon fill="midnightblue" stroke="midnightblue" points="864.645,-467.392 854.729,-471.125 864.808,-474.39 864.645,-467.392"/>
</g>
<!-- Node7 -->
<g id="node14" class="node"><title>Node7</title>
<a xlink:href="a00054.html" target="_top" xlink:title="Base class for animatable object, an animatable object can be set animation on it&#39;s attributes...">
<polygon fill="none" stroke="red" points="429,-397.839 429,-418.839 543,-418.839 543,-397.839 429,-397.839"/>
<text text-anchor="middle" x="486" y="-405.839" font-family="FreeSans" font-size="10.00">Urho3D::Animatable</text>
</a>
</g>
<!-- Node7&#45;&gt;Node6 -->
<g id="edge16" class="edge"><title>Node7&#45;&gt;Node6</title>
<path fill="none" stroke="midnightblue" d="M553.414,-420.155C602.037,-428.853 669.191,-441.225 728,-453.339 741.473,-456.114 756.111,-459.348 769.336,-462.353"/>
<polygon fill="midnightblue" stroke="midnightblue" points="553.789,-416.666 543.33,-418.356 552.56,-423.558 553.789,-416.666"/>
</g>
<!-- Node8 -->
<g id="node16" class="node"><title>Node8</title>
<a xlink:href="a00310.html" target="_top" xlink:title="Base class for objects with automatic serialization through attributes.">
<polygon fill="none" stroke="red" points="44,-441.839 44,-462.839 158,-462.839 158,-441.839 44,-441.839"/>
<text text-anchor="middle" x="101" y="-449.839" font-family="FreeSans" font-size="10.00">Urho3D::Serializable</text>
</a>
</g>
<!-- Node8&#45;&gt;Node7 -->
<g id="edge18" class="edge"><title>Node8&#45;&gt;Node7</title>
<path fill="none" stroke="midnightblue" d="M168.211,-445.272C221.797,-439.568 298.741,-431.222 366,-423.339 386.54,-420.931 409.039,-418.156 428.949,-415.652"/>
<polygon fill="midnightblue" stroke="midnightblue" points="167.724,-441.804 158.15,-446.341 168.464,-448.764 167.724,-441.804"/>
</g>
<!-- Node9 -->
<g id="node18" class="node"><title>Node9</title>
<a xlink:href="a00176.html" target="_top" xlink:title="Urho3D::HashMap\&lt; Urho3D\l::String, Urho3D::SharedPtr\l\&lt; Urho3D::AttributeAnimationInfo \&gt; \&gt;">
<polygon fill="none" stroke="red" points="0.5,-375.839 0.5,-422.839 201.5,-422.839 201.5,-375.839 0.5,-375.839"/>
<text text-anchor="start" x="8.5" y="-409.839" font-family="FreeSans" font-size="10.00">Urho3D::HashMap&lt; Urho3D</text>
<text text-anchor="start" x="8.5" y="-396.839" font-family="FreeSans" font-size="10.00">::String, Urho3D::SharedPtr</text>
<text text-anchor="middle" x="101" y="-383.839" font-family="FreeSans" font-size="10.00">&lt; Urho3D::AttributeAnimationInfo &gt; &gt;</text>
</a>
</g>
<!-- Node9&#45;&gt;Node7 -->
<g id="edge20" class="edge"><title>Node9&#45;&gt;Node7</title>
<path fill="none" stroke="#9a32cd" stroke-dasharray="5,2" d="M211.977,-401.933C282.894,-403.591 371.918,-405.672 428.892,-407.004"/>
<polygon fill="#9a32cd" stroke="#9a32cd" points="211.73,-398.426 201.651,-401.692 211.567,-405.424 211.73,-398.426"/>
<text text-anchor="middle" x="293" y="-410.339" font-family="FreeSans" font-size="10.00"> attributeAnimationInstances_</text>
</g>
<!-- Node10 -->
<g id="node20" class="node"><title>Node10</title>
<a xlink:href="a00268.html" target="_top" xlink:title="Urho3D::PODVector\&lt;\l Urho3D::Node * \&gt;">
<polygon fill="none" stroke="black" points="426.5,-437.339 426.5,-471.339 545.5,-471.339 545.5,-437.339 426.5,-437.339"/>
<text text-anchor="start" x="434.5" y="-458.339" font-family="FreeSans" font-size="10.00">Urho3D::PODVector&lt;</text>
<text text-anchor="middle" x="486" y="-445.339" font-family="FreeSans" font-size="10.00"> Urho3D::Node * &gt;</text>
</a>
</g>
<!-- Node10&#45;&gt;Node6 -->
<g id="edge22" class="edge"><title>Node10&#45;&gt;Node6</title>
<path fill="none" stroke="#9a32cd" stroke-dasharray="5,2" d="M555.783,-455.649C604.166,-456.872 670.059,-459.162 728,-463.339 741.459,-464.309 756.092,-465.744 769.319,-467.185"/>
<polygon fill="#9a32cd" stroke="#9a32cd" points="555.816,-452.149 545.734,-455.404 555.646,-459.147 555.816,-452.149"/>
<text text-anchor="middle" x="667" y="-467.339" font-family="FreeSans" font-size="10.00"> dependencyNodes_</text>
</g>
<!-- Node11 -->
<g id="node22" class="node"><title>Node11</title>
<a xlink:href="a00378.html" target="_top" xlink:title="Vector base class.">
<polygon fill="none" stroke="black" points="44,-550.839 44,-571.839 158,-571.839 158,-550.839 44,-550.839"/>
<text text-anchor="middle" x="101" y="-558.839" font-family="FreeSans" font-size="10.00">Urho3D::VectorBase</text>
</a>
</g>
<!-- Node11&#45;&gt;Node10 -->
<g id="edge24" class="edge"><title>Node11&#45;&gt;Node10</title>
<path fill="none" stroke="midnightblue" d="M142.25,-547.702C165.019,-540.468 193.894,-531.772 220,-525.339 284.152,-509.529 307.188,-527.447 366,-497.339 375.795,-492.324 374.36,-485.645 384,-480.339 396.967,-473.2 411.94,-467.976 426.352,-464.17"/>
<polygon fill="midnightblue" stroke="midnightblue" points="141.025,-544.419 132.571,-550.805 143.163,-551.085 141.025,-544.419"/>
</g>
<!-- Node15 -->
<g id="node33" class="node"><title>Node15</title>
<a xlink:href="a00374.html" target="_top" xlink:title="Urho3D::Vector\&lt; Urho3D\l::WeakPtr\&lt; Urho3D::Component \&gt; \&gt;">
<polygon fill="none" stroke="black" points="389,-593.339 389,-627.339 583,-627.339 583,-593.339 389,-593.339"/>
<text text-anchor="start" x="397" y="-614.339" font-family="FreeSans" font-size="10.00">Urho3D::Vector&lt; Urho3D</text>
<text text-anchor="middle" x="486" y="-601.339" font-family="FreeSans" font-size="10.00">::WeakPtr&lt; Urho3D::Component &gt; &gt;</text>
</a>
</g>
<!-- Node11&#45;&gt;Node15 -->
<g id="edge40" class="edge"><title>Node11&#45;&gt;Node15</title>
<path fill="none" stroke="midnightblue" d="M168.505,-569.93C229.516,-577.695 320.037,-589.216 388.831,-597.972"/>
<polygon fill="midnightblue" stroke="midnightblue" points="168.585,-566.412 158.223,-568.622 167.701,-573.356 168.585,-566.412"/>
</g>
<!-- Node17 -->
<g id="node38" class="node"><title>Node17</title>
<a xlink:href="a00374.html" target="_top" xlink:title="Urho3D::Vector\&lt; Urho3D\l::SharedPtr\&lt; Urho3D::Component \&gt; \&gt;">
<polygon fill="none" stroke="black" points="384.5,-489.339 384.5,-523.339 587.5,-523.339 587.5,-489.339 384.5,-489.339"/>
<text text-anchor="start" x="392.5" y="-510.339" font-family="FreeSans" font-size="10.00">Urho3D::Vector&lt; Urho3D</text>
<text text-anchor="middle" x="486" y="-497.339" font-family="FreeSans" font-size="10.00">::SharedPtr&lt; Urho3D::Component &gt; &gt;</text>
</a>
</g>
<!-- Node11&#45;&gt;Node17 -->
<g id="edge46" class="edge"><title>Node11&#45;&gt;Node17</title>
<path fill="none" stroke="midnightblue" d="M168.286,-551.726C227.965,-543.201 316.006,-530.624 384.283,-520.87"/>
<polygon fill="midnightblue" stroke="midnightblue" points="167.627,-548.285 158.223,-553.164 168.617,-555.215 167.627,-548.285"/>
</g>
<!-- Node19 -->
<g id="node47" class="node"><title>Node19</title>
<a xlink:href="a00374.html" target="_top" xlink:title="Urho3D::Vector\&lt; Urho3D\l::SharedPtr\&lt; Urho3D::Node \&gt; \&gt;">
<polygon fill="none" stroke="black" points="399.5,-541.339 399.5,-575.339 572.5,-575.339 572.5,-541.339 399.5,-541.339"/>
<text text-anchor="start" x="407.5" y="-562.339" font-family="FreeSans" font-size="10.00">Urho3D::Vector&lt; Urho3D</text>
<text text-anchor="middle" x="486" y="-549.339" font-family="FreeSans" font-size="10.00">::SharedPtr&lt; Urho3D::Node &gt; &gt;</text>
</a>
</g>
<!-- Node11&#45;&gt;Node19 -->
<g id="edge60" class="edge"><title>Node11&#45;&gt;Node19</title>
<path fill="none" stroke="midnightblue" d="M168.224,-560.815C232.348,-560.315 329.258,-559.56 399.194,-559.015"/>
<polygon fill="midnightblue" stroke="midnightblue" points="168.195,-557.315 158.223,-560.893 168.25,-564.315 168.195,-557.315"/>
</g>
<!-- Node25 -->
<g id="node71" class="node"><title>Node25</title>
<a xlink:href="a00374.html" target="_top" xlink:title="Urho3D::Vector\&lt; Urho3D\l::AnimationKeyFrame \&gt;">
<polygon fill="none" stroke="black" points="417,-920.339 417,-954.339 555,-954.339 555,-920.339 417,-920.339"/>
<text text-anchor="start" x="425" y="-941.339" font-family="FreeSans" font-size="10.00">Urho3D::Vector&lt; Urho3D</text>
<text text-anchor="middle" x="486" y="-928.339" font-family="FreeSans" font-size="10.00">::AnimationKeyFrame &gt;</text>
</a>
</g>
<!-- Node11&#45;&gt;Node25 -->
<g id="edge96" class="edge"><title>Node11&#45;&gt;Node25</title>
<path fill="none" stroke="midnightblue" d="M110.958,-581.089C142.227,-640.999 244.714,-822.017 384,-911.339 393.922,-917.702 405.32,-922.509 416.819,-926.14"/>
<polygon fill="midnightblue" stroke="midnightblue" points="113.942,-579.238 106.253,-571.949 107.718,-582.442 113.942,-579.238"/>
</g>
<!-- Node12&#45;&gt;Node6 -->
<g id="edge26" class="edge"><title>Node12&#45;&gt;Node6</title>
<path fill="none" stroke="#9a32cd" stroke-dasharray="5,2" d="M1006.1,-472.339C960.437,-472.339 896.361,-472.339 854.522,-472.339"/>
<polygon fill="#9a32cd" stroke="#9a32cd" points="1006.13,-475.839 1016.13,-472.339 1006.13,-468.839 1006.13,-475.839"/>
<text text-anchor="middle" x="933" y="-476.339" font-family="FreeSans" font-size="10.00"> scene_</text>
</g>
<!-- Node13 -->
<g id="node27" class="node"><title>Node13</title>
<a xlink:href="a00343.html" target="_top" xlink:title="String class.">
<polygon fill="none" stroke="black" points="57,-979.839 57,-1000.84 145,-1000.84 145,-979.839 57,-979.839"/>
<text text-anchor="middle" x="101" y="-987.839" font-family="FreeSans" font-size="10.00">Urho3D::String</text>
</a>
</g>
<!-- Node13&#45;&gt;Node2 -->
<g id="edge84" class="edge"><title>Node13&#45;&gt;Node2</title>
<path fill="none" stroke="#9a32cd" stroke-dasharray="5,2" d="M142.264,-1004.08C262.111,-1041.55 618.155,-1135.37 878,-1022.34 1045.58,-949.444 1199.25,-778.124 1237.12,-733.903"/>
<polygon fill="#9a32cd" stroke="#9a32cd" points="142.985,-1000.64 132.395,-1000.96 140.871,-1007.31 142.985,-1000.64"/>
<text text-anchor="middle" x="812" y="-1065.34" font-family="FreeSans" font-size="10.00"> name_</text>
</g>
<!-- Node13&#45;&gt;Node6 -->
<g id="edge50" class="edge"><title>Node13&#45;&gt;Node6</title>
<path fill="none" stroke="#9a32cd" stroke-dasharray="5,2" d="M115.716,-971.825C154.177,-924.869 263.125,-800.794 384,-743.339 419.025,-726.69 697.887,-708.775 728,-684.339 793.786,-630.954 808.285,-518.678 811.271,-483.275"/>
<polygon fill="#9a32cd" stroke="#9a32cd" points="112.943,-969.688 109.368,-979.662 118.382,-974.094 112.943,-969.688"/>
<text text-anchor="middle" x="486" y="-747.339" font-family="FreeSans" font-size="10.00"> name_</text>
</g>
<!-- Node13&#45;&gt;Node12 -->
<g id="edge30" class="edge"><title>Node13&#45;&gt;Node12</title>
<path fill="none" stroke="#9a32cd" stroke-dasharray="5,2" d="M155.415,-997.274C310.954,-1016.06 754.209,-1062.07 878,-993.339 942.77,-957.377 940.519,-922.304 970,-854.339 1030.36,-715.177 1054.54,-529.353 1059.83,-483.102"/>
<polygon fill="#9a32cd" stroke="#9a32cd" points="155.506,-993.76 145.156,-996.024 154.66,-1000.71 155.506,-993.76"/>
<text text-anchor="middle" x="667" y="-1033.34" font-family="FreeSans" font-size="10.00"> fileName_</text>
</g>
<!-- Node13&#45;&gt;Node13 -->
<g id="edge32" class="edge"><title>Node13&#45;&gt;Node13</title>
<path fill="none" stroke="#9a32cd" stroke-dasharray="5,2" d="M65.1553,-1009.64C66.6279,-1015.12 78.5762,-1019.34 101,-1019.34 134.375,-1019.34 144.544,-1009.99 131.507,-1001.05"/>
<polygon fill="#9a32cd" stroke="#9a32cd" points="68.1883,-1011.39 70.4932,-1001.05 62.2426,-1007.69 68.1883,-1011.39"/>
<text text-anchor="middle" x="101" y="-1023.34" font-family="FreeSans" font-size="10.00"> EMPTY</text>
</g>
<!-- Node13&#45;&gt;Node20 -->
<g id="edge70" class="edge"><title>Node13&#45;&gt;Node20</title>
<path fill="none" stroke="#9a32cd" stroke-dasharray="5,2" d="M108.887,-970.106C127.25,-923.345 174.746,-804.357 220,-707.339 279.995,-578.718 317.409,-556.686 366,-423.339 378.329,-389.504 358.745,-370.009 384,-344.339 395.955,-332.186 412.784,-325.576 429.332,-322.081"/>
<polygon fill="#9a32cd" stroke="#9a32cd" points="105.528,-969.087 105.141,-979.674 112.046,-971.638 105.528,-969.087"/>
<text text-anchor="middle" x="293" y="-711.339" font-family="FreeSans" font-size="10.00"> sceneFileName_</text>
</g>
<!-- Node24 -->
<g id="node69" class="node"><title>Node24</title>
<a xlink:href="a00064.html" target="_top" xlink:title="Skeletal animation track, stores keyframes of a single bone.">
<polygon fill="none" stroke="black" points="746,-962.839 746,-983.839 878,-983.839 878,-962.839 746,-962.839"/>
<text text-anchor="middle" x="812" y="-970.839" font-family="FreeSans" font-size="10.00">Urho3D::AnimationTrack</text>
</a>
</g>
<!-- Node13&#45;&gt;Node24 -->
<g id="edge98" class="edge"><title>Node13&#45;&gt;Node24</title>
<path fill="none" stroke="#9a32cd" stroke-dasharray="5,2" d="M155.154,-989.373C263.793,-987.383 516.077,-982.489 728,-976.339 733.835,-976.169 739.897,-975.98 745.973,-975.78"/>
<polygon fill="#9a32cd" stroke="#9a32cd" points="155.029,-985.875 145.095,-989.557 155.157,-992.874 155.029,-985.875"/>
<text text-anchor="middle" x="486" y="-988.339" font-family="FreeSans" font-size="10.00"> name_</text>
</g>
<!-- Node14 -->
<g id="node30" class="node"><title>Node14</title>
<a xlink:href="a00176.html" target="_top" xlink:title="Urho3D::HashMap\&lt; ShortString\lHash, Variant \&gt;">
<polygon fill="none" stroke="red" points="16,-282.339 16,-316.339 186,-316.339 186,-282.339 16,-282.339"/>
<text text-anchor="start" x="24" y="-303.339" font-family="FreeSans" font-size="10.00">Urho3D::HashMap&lt; ShortString</text>
<text text-anchor="middle" x="101" y="-290.339" font-family="FreeSans" font-size="10.00">Hash, Variant &gt;</text>
</a>
</g>
<!-- Node14&#45;&gt;Node6 -->
<g id="edge62" class="edge"><title>Node14&#45;&gt;Node6</title>
<path fill="none" stroke="#9a32cd" stroke-dasharray="5,2" d="M196.202,-287.395C350.271,-270.145 645.359,-246.362 728,-305.339 783.212,-344.74 804.261,-431.115 810.129,-461.503"/>
<polygon fill="#9a32cd" stroke="#9a32cd" points="195.804,-283.918 186.261,-288.521 196.592,-290.873 195.804,-283.918"/>
<text text-anchor="middle" x="486" y="-275.339" font-family="FreeSans" font-size="10.00"> vars_</text>
</g>
<!-- Node14&#45;&gt;Node12 -->
<g id="edge34" class="edge"><title>Node14&#45;&gt;Node12</title>
<path fill="none" stroke="#9a32cd" stroke-dasharray="5,2" d="M179.995,-279.629C187.454,-277.58 194.883,-275.466 202,-273.339 275.794,-251.277 307.413,-267.337 366,-217.339 379.006,-206.239 369.352,-192.158 384,-183.339 461.675,-136.572 499.939,-161.759 588,-183.339 796.432,-234.417 1000.65,-415.802 1049.84,-461.716"/>
<polygon fill="#9a32cd" stroke="#9a32cd" points="178.934,-276.29 170.196,-282.281 180.763,-283.047 178.934,-276.29"/>
<text text-anchor="middle" x="667" y="-238.339" font-family="FreeSans" font-size="10.00"> smoothingData_</text>
</g>
<!-- Node14&#45;&gt;Node20 -->
<g id="edge72" class="edge"><title>Node14&#45;&gt;Node20</title>
<path fill="none" stroke="#9a32cd" stroke-dasharray="5,2" d="M196.395,-298.076C246.877,-298.09 309.87,-299.188 366,-303.339 386.751,-304.873 409.398,-307.614 429.372,-310.398"/>
<polygon fill="#9a32cd" stroke="#9a32cd" points="196.141,-294.576 186.146,-298.088 196.15,-301.576 196.141,-294.576"/>
<text text-anchor="middle" x="293" y="-307.339" font-family="FreeSans" font-size="10.00"> identity_</text>
</g>
<!-- Node15&#45;&gt;Node6 -->
<g id="edge38" class="edge"><title>Node15&#45;&gt;Node6</title>
<path fill="none" stroke="#9a32cd" stroke-dasharray="5,2" d="M593.394,-600.309C637.174,-592.869 687.021,-579.91 728,-557.339 762.346,-538.421 791.763,-501.106 804.808,-482.87"/>
<polygon fill="#9a32cd" stroke="#9a32cd" points="592.591,-596.894 583.28,-601.949 593.712,-603.803 592.591,-596.894"/>
<text text-anchor="middle" x="667" y="-602.339" font-family="FreeSans" font-size="10.00"> listeners_</text>
</g>
<!-- Node16 -->
<g id="node36" class="node"><title>Node16</title>
<a xlink:href="a00379.html" target="_top" xlink:title="Dynamically sized buffer that can be read and written to as a stream.">
<polygon fill="none" stroke="red" points="41.5,-335.839 41.5,-356.839 160.5,-356.839 160.5,-335.839 41.5,-335.839"/>
<text text-anchor="middle" x="101" y="-343.839" font-family="FreeSans" font-size="10.00">Urho3D::VectorBuffer</text>
</a>
</g>
<!-- Node16&#45;&gt;Node6 -->
<g id="edge42" class="edge"><title>Node16&#45;&gt;Node6</title>
<path fill="none" stroke="#9a32cd" stroke-dasharray="5,2" d="M170.793,-349.961C300.618,-356.775 567.964,-371.185 588,-375.339 669.54,-392.243 757.879,-440.346 794.538,-461.794"/>
<polygon fill="#9a32cd" stroke="#9a32cd" points="170.725,-346.453 160.555,-349.425 170.358,-353.444 170.725,-346.453"/>
<text text-anchor="middle" x="486" y="-379.339" font-family="FreeSans" font-size="10.00"> attrBuffer_</text>
</g>
<!-- Node16&#45;&gt;Node20 -->
<g id="edge66" class="edge"><title>Node16&#45;&gt;Node20</title>
<path fill="none" stroke="#9a32cd" stroke-dasharray="5,2" d="M170.905,-341.436C245.002,-336.24 360.603,-328.133 429.265,-323.318"/>
<polygon fill="#9a32cd" stroke="#9a32cd" points="170.464,-337.959 160.734,-342.15 170.954,-344.941 170.464,-337.959"/>
<text text-anchor="middle" x="293" y="-342.339" font-family="FreeSans" font-size="10.00"> msg_</text>
</g>
<!-- Node17&#45;&gt;Node6 -->
<g id="edge44" class="edge"><title>Node17&#45;&gt;Node6</title>
<path fill="none" stroke="#9a32cd" stroke-dasharray="5,2" d="M597.944,-494.664C656.961,-488.508 725.912,-481.317 769.269,-476.795"/>
<polygon fill="#9a32cd" stroke="#9a32cd" points="597.39,-491.202 587.807,-495.721 598.117,-498.164 597.39,-491.202"/>
<text text-anchor="middle" x="667" y="-498.339" font-family="FreeSans" font-size="10.00"> components_</text>
</g>
<!-- Node18 -->
<g id="node44" class="node"><title>Node18</title>
<a xlink:href="a00344.html" target="_top" xlink:title="32&#45;bit hash value for a string.">
<polygon fill="none" stroke="black" points="429.5,-849.839 429.5,-870.839 542.5,-870.839 542.5,-849.839 429.5,-849.839"/>
<text text-anchor="middle" x="486" y="-857.839" font-family="FreeSans" font-size="10.00">Urho3D::StringHash</text>
</a>
</g>
<!-- Node18&#45;&gt;Node2 -->
<g id="edge86" class="edge"><title>Node18&#45;&gt;Node2</title>
<path fill="none" stroke="#9a32cd" stroke-dasharray="5,2" d="M552.842,-861.425C672.594,-861.438 930.239,-852.623 1134,-784.339 1170.95,-771.956 1210.03,-747.768 1230.85,-733.859"/>
<polygon fill="#9a32cd" stroke="#9a32cd" points="552.735,-857.925 542.728,-861.403 552.72,-864.925 552.735,-857.925"/>
<text text-anchor="middle" x="933" y="-841.339" font-family="FreeSans" font-size="10.00"> nameHash_</text>
</g>
<!-- Node18&#45;&gt;Node6 -->
<g id="edge54" class="edge"><title>Node18&#45;&gt;Node6</title>
<path fill="none" stroke="#9a32cd" stroke-dasharray="5,2" d="M552.52,-849.995C564.482,-847.376 576.725,-844.184 588,-840.339 596.23,-837.532 722.458,-777.04 728,-770.339 766.365,-723.944 801.904,-530.584 810.189,-482.969"/>
<polygon fill="#9a32cd" stroke="#9a32cd" points="551.645,-846.603 542.566,-852.064 553.068,-853.456 551.645,-846.603"/>
<text text-anchor="middle" x="667" y="-834.339" font-family="FreeSans" font-size="10.00"> nameHash_</text>
</g>
<!-- Node18&#45;&gt;Node18 -->
<g id="edge56" class="edge"><title>Node18&#45;&gt;Node18</title>
<path fill="none" stroke="#9a32cd" stroke-dasharray="5,2" d="M452.508,-880.018C454.302,-885.313 465.467,-889.339 486,-889.339 517.289,-889.339 526.822,-879.992 514.6,-871.047"/>
<polygon fill="#9a32cd" stroke="#9a32cd" points="455.685,-881.502 457.4,-871.047 449.539,-878.15 455.685,-881.502"/>
<text text-anchor="middle" x="486" y="-893.339" font-family="FreeSans" font-size="10.00"> ZERO</text>
</g>
<!-- Node18&#45;&gt;Node24 -->
<g id="edge100" class="edge"><title>Node18&#45;&gt;Node24</title>
<path fill="none" stroke="#9a32cd" stroke-dasharray="5,2" d="M538.986,-873.405C588.586,-886.266 664.381,-907.544 728,-932.339 750.831,-941.237 775.954,-953.903 792.721,-962.795"/>
<polygon fill="#9a32cd" stroke="#9a32cd" points="539.676,-869.969 529.12,-870.868 537.933,-876.748 539.676,-869.969"/>
<text text-anchor="middle" x="667" y="-936.339" font-family="FreeSans" font-size="10.00"> nameHash_</text>
</g>
<!-- Node19&#45;&gt;Node6 -->
<g id="edge58" class="edge"><title>Node19&#45;&gt;Node6</title>
<path fill="none" stroke="#9a32cd" stroke-dasharray="5,2" d="M582.7,-545.084C627.54,-537.54 681.156,-526.512 728,-511.339 751.097,-503.857 776.172,-491.633 792.855,-482.864"/>
<polygon fill="#9a32cd" stroke="#9a32cd" points="581.98,-541.655 572.683,-546.736 583.12,-548.562 581.98,-541.655"/>
<text text-anchor="middle" x="667" y="-544.339" font-family="FreeSans" font-size="10.00"> children_</text>
</g>
<!-- Node20&#45;&gt;Node6 -->
<g id="edge64" class="edge"><title>Node20&#45;&gt;Node6</title>
<path fill="none" stroke="#9a32cd" stroke-dasharray="5,2" d="M552.723,-309.552C604.27,-305.42 675.445,-307.48 728,-339.339 775.642,-368.22 800.695,-435.528 808.908,-461.68"/>
<polygon fill="#9a32cd" stroke="#9a32cd" points="552.334,-306.073 542.687,-310.454 552.96,-313.044 552.334,-306.073"/>
<text text-anchor="middle" x="667" y="-343.339" font-family="FreeSans" font-size="10.00"> owner_</text>
</g>
<!-- Node21 -->
<g id="node57" class="node"><title>Node21</title>
<a xlink:href="a00217.html" target="_top" xlink:title="3x4 matrix for scene node transform calculations.">
<polygon fill="none" stroke="black" points="433,-765.839 433,-786.839 539,-786.839 539,-765.839 433,-765.839"/>
<text text-anchor="middle" x="486" y="-773.839" font-family="FreeSans" font-size="10.00">Urho3D::Matrix3x4</text>
</a>
</g>
<!-- Node21&#45;&gt;Node2 -->
<g id="edge88" class="edge"><title>Node21&#45;&gt;Node2</title>
<path fill="none" stroke="#9a32cd" stroke-dasharray="5,2" d="M528.626,-789.7C551.344,-796.13 579.915,-803.127 606,-806.339 837.578,-834.847 1115.91,-762.049 1211.68,-733.9"/>
<polygon fill="#9a32cd" stroke="#9a32cd" points="529.531,-786.319 518.952,-786.897 527.583,-793.042 529.531,-786.319"/>
<text text-anchor="middle" x="933" y="-804.339" font-family="FreeSans" font-size="10.00"> offsetMatrix_</text>
</g>
<!-- Node21&#45;&gt;Node6 -->
<g id="edge74" class="edge"><title>Node21&#45;&gt;Node6</title>
<path fill="none" stroke="#9a32cd" stroke-dasharray="5,2" d="M549.279,-766.569C611.983,-755.696 702.279,-736.44 728,-712.339 797.741,-646.989 809.6,-520.521 811.599,-483.049"/>
<polygon fill="#9a32cd" stroke="#9a32cd" points="548.349,-763.176 539.079,-768.306 549.525,-770.077 548.349,-763.176"/>
<text text-anchor="middle" x="667" y="-758.339" font-family="FreeSans" font-size="10.00"> worldTransform_</text>
</g>
<!-- Node21&#45;&gt;Node21 -->
<g id="edge76" class="edge"><title>Node21&#45;&gt;Node21</title>
<path fill="none" stroke="#9a32cd" stroke-dasharray="5,2" d="M452.508,-796.018C454.302,-801.313 465.467,-805.339 486,-805.339 517.289,-805.339 526.822,-795.992 514.6,-787.047"/>
<polygon fill="#9a32cd" stroke="#9a32cd" points="455.685,-797.502 457.4,-787.047 449.539,-794.15 455.685,-797.502"/>
<text text-anchor="middle" x="486" y="-822.339" font-family="FreeSans" font-size="10.00"> IDENTITY</text>
<text text-anchor="middle" x="486" y="-809.339" font-family="FreeSans" font-size="10.00">ZERO</text>
</g>
<!-- Node22 -->
<g id="node60" class="node"><title>Node22</title>
<a xlink:href="a00281.html" target="_top" xlink:title="Reference count structure.">
<polygon fill="none" stroke="black" points="761,-73.8387 761,-94.8387 863,-94.8387 863,-73.8387 761,-73.8387"/>
<text text-anchor="middle" x="812" y="-81.8387" font-family="FreeSans" font-size="10.00">Urho3D::RefCount</text>
</a>
</g>
<!-- Node22&#45;&gt;Node5 -->
<g id="edge78" class="edge"><title>Node22&#45;&gt;Node5</title>
<path fill="none" stroke="#9a32cd" stroke-dasharray="5,2" d="M873.371,-82.4716C902.655,-82.0579 938.17,-82.2491 970,-84.3387 975.724,-84.7145 981.638,-85.222 987.575,-85.8165"/>
<polygon fill="#9a32cd" stroke="#9a32cd" points="873.228,-78.9734 863.289,-82.641 873.346,-85.9724 873.228,-78.9734"/>
<text text-anchor="middle" x="933" y="-88.3387" font-family="FreeSans" font-size="10.00"> refCount_</text>
</g>
<!-- Node23&#45;&gt;Node2 -->
<g id="edge80" class="edge"><title>Node23&#45;&gt;Node2</title>
<path fill="none" stroke="#9a32cd" stroke-dasharray="5,2" d="M706.901,-43.6111C809.534,-11.0919 1081.9,56.8876 1186,-97.3387 1195.01,-110.687 1238.4,-631.433 1245.12,-712.718"/>
<polygon fill="#9a32cd" stroke="#9a32cd" points="705.668,-40.3313 697.225,-46.7323 707.817,-46.9932 705.668,-40.3313"/>
<text text-anchor="middle" x="933" y="-8.33874" font-family="FreeSans" font-size="10.00"> boundingBox_</text>
</g>
<!-- Node24&#45;&gt;Node1 -->
<g id="edge92" class="edge"><title>Node24&#45;&gt;Node1</title>
<path fill="none" stroke="#9a32cd" stroke-dasharray="5,2" d="M847.759,-959.035C961.192,-913.662 1311.3,-773.617 1410.54,-733.924"/>
<polygon fill="#9a32cd" stroke="#9a32cd" points="846.441,-955.793 838.456,-962.756 849.041,-962.292 846.441,-955.793"/>
<text text-anchor="middle" x="1169" y="-840.339" font-family="FreeSans" font-size="10.00"> track_</text>
</g>
<!-- Node25&#45;&gt;Node24 -->
<g id="edge94" class="edge"><title>Node25&#45;&gt;Node24</title>
<path fill="none" stroke="#9a32cd" stroke-dasharray="5,2" d="M565.301,-945.627C612.56,-950.624 673.725,-957.193 728,-963.339 733.837,-964 739.901,-964.698 745.978,-965.407"/>
<polygon fill="#9a32cd" stroke="#9a32cd" points="565.443,-942.123 555.13,-944.553 564.708,-949.084 565.443,-942.123"/>
<text text-anchor="middle" x="667" y="-967.339" font-family="FreeSans" font-size="10.00"> keyFrames_</text>
</g>
</g>
</svg>
