<?xml version="1.0" encoding="UTF-8" standalone="no"?>
<!DOCTYPE svg PUBLIC "-//W3C//DTD SVG 1.1//EN"
 "http://www.w3.org/Graphics/SVG/1.1/DTD/svg11.dtd">
<!-- Generated by graphviz version 2.26.3 (20100126.1600)
 -->
<!-- Title: Urho3D::ShaderProgram Pages: 1 -->
<svg width="2072pt" height="791pt"
 viewBox="0.00 0.00 2072.00 791.00" xmlns="http://www.w3.org/2000/svg" xmlns:xlink="http://www.w3.org/1999/xlink">
<g id="graph1" class="graph" transform="scale(1 1) rotate(0) translate(4 787)">
<title>Urho3D::ShaderProgram</title>
<!-- Node1 -->
<g id="node1" class="node"><title>Node1</title>
<polygon fill="#bfbfbf" stroke="black" points="785.5,-174.5 785.5,-195.5 920.5,-195.5 920.5,-174.5 785.5,-174.5"/>
<text text-anchor="middle" x="853" y="-182.5" font-family="FreeSans" font-size="10.00">Urho3D::ShaderProgram</text>
</g>
<!-- Node6 -->
<g id="node10" class="node"><title>Node6</title>
<a xlink:href="a00139.html" target="_top" xlink:title="Graphics subsystem. Manages the application window, rendering state and GPU resources.">
<polygon fill="none" stroke="red" points="1046.5,-421.5 1046.5,-442.5 1147.5,-442.5 1147.5,-421.5 1046.5,-421.5"/>
<text text-anchor="middle" x="1097" y="-429.5" font-family="FreeSans" font-size="10.00">Urho3D::Graphics</text>
</a>
</g>
<!-- Node1&#45;&gt;Node6 -->
<g id="edge52" class="edge"><title>Node1&#45;&gt;Node6</title>
<path fill="none" stroke="#9a32cd" stroke-dasharray="5,2" d="M913.412,-200.194C918.033,-202.938 922.321,-206.176 926,-210 945.304,-230.062 926.677,-248.205 944,-270 970.754,-303.662 997.216,-287.98 1028,-318 1060.46,-349.657 1083.66,-399.664 1092.76,-421.366"/>
<polygon fill="#9a32cd" stroke="#9a32cd" points="914.689,-196.917 904.189,-195.505 911.517,-203.157 914.689,-196.917"/>
<text text-anchor="middle" x="986" y="-322" font-family="FreeSans" font-size="10.00"> shaderProgram_</text>
</g>
<!-- Node2 -->
<g id="node2" class="node"><title>Node2</title>
<a xlink:href="a00237.html" target="_top" xlink:title="Base class for intrusively reference&#45;counted objects. These are noncopyable and non&#45;assignable.">
<polygon fill="none" stroke="black" points="433,-204.5 433,-225.5 547,-225.5 547,-204.5 433,-204.5"/>
<text text-anchor="middle" x="490" y="-212.5" font-family="FreeSans" font-size="10.00">Urho3D::RefCounted</text>
</a>
</g>
<!-- Node2&#45;&gt;Node1 -->
<g id="edge2" class="edge"><title>Node2&#45;&gt;Node1</title>
<path fill="none" stroke="midnightblue" d="M557.261,-209.441C622.286,-204.067 720.275,-195.969 785.411,-190.586"/>
<polygon fill="midnightblue" stroke="midnightblue" points="556.796,-205.968 547.118,-210.279 557.372,-212.944 556.796,-205.968"/>
</g>
<!-- Node7 -->
<g id="node12" class="node"><title>Node7</title>
<a xlink:href="a00202.html" target="_top" xlink:title="Base class for objects with type identification, subsystem access and event sending/receiving capabil...">
<polygon fill="none" stroke="red" points="808,-566.5 808,-587.5 898,-587.5 898,-566.5 808,-566.5"/>
<text text-anchor="middle" x="853" y="-574.5" font-family="FreeSans" font-size="10.00">Urho3D::Object</text>
</a>
</g>
<!-- Node2&#45;&gt;Node7 -->
<g id="edge14" class="edge"><title>Node2&#45;&gt;Node7</title>
<path fill="none" stroke="midnightblue" d="M556.452,-228.803C559.821,-230.621 563.033,-232.676 566,-235 579.153,-245.301 575.301,-253.737 584,-268 664.808,-400.5 653.79,-466.682 780,-557 788.228,-562.888 798.111,-567.044 807.909,-569.976"/>
<polygon fill="midnightblue" stroke="midnightblue" points="557.77,-225.557 547.226,-224.526 554.826,-231.908 557.77,-225.557"/>
</g>
<!-- Node11 -->
<g id="node22" class="node"><title>Node11</title>
<a xlink:href="a00242.html" target="_top" xlink:title="Color or depth&#45;stencil surface that can be rendered into.">
<polygon fill="none" stroke="red" points="1926.5,-489.5 1926.5,-510.5 2055.5,-510.5 2055.5,-489.5 1926.5,-489.5"/>
<text text-anchor="middle" x="1991" y="-497.5" font-family="FreeSans" font-size="10.00">Urho3D::RenderSurface</text>
</a>
</g>
<!-- Node2&#45;&gt;Node11 -->
<g id="edge26" class="edge"><title>Node2&#45;&gt;Node11</title>
<path fill="none" stroke="midnightblue" d="M556.209,-226.494C559.844,-228.861 563.163,-231.67 566,-235 592.504,-266.102 565.699,-381.464 584,-418 650.485,-550.73 704.55,-616 853,-616 853,-616 853,-616 1738,-616 1838.51,-616 1942.71,-539.422 1978.25,-510.705"/>
<polygon fill="midnightblue" stroke="midnightblue" points="557.705,-223.326 547.231,-221.737 554.428,-229.512 557.705,-223.326"/>
</g>
<!-- Node23 -->
<g id="node58" class="node"><title>Node23</title>
<a xlink:href="a00269.html" target="_top" xlink:title="Vertex or pixel shader on the GPU.">
<polygon fill="none" stroke="black" points="1670,-135.5 1670,-156.5 1806,-156.5 1806,-135.5 1670,-135.5"/>
<text text-anchor="middle" x="1738" y="-143.5" font-family="FreeSans" font-size="10.00">Urho3D::ShaderVariation</text>
</a>
</g>
<!-- Node2&#45;&gt;Node23 -->
<g id="edge74" class="edge"><title>Node2&#45;&gt;Node23</title>
<path fill="none" stroke="midnightblue" d="M533.637,-201.484C549.387,-196.99 567.379,-192.298 584,-189 760.251,-154.034 806.314,-146 986,-146 986,-146 986,-146 1576,-146 1606.8,-146 1640.89,-146 1669.82,-146"/>
<polygon fill="midnightblue" stroke="midnightblue" points="532.271,-198.236 523.647,-204.391 534.227,-204.957 532.271,-198.236"/>
</g>
<!-- Node3 -->
<g id="node4" class="node"><title>Node3</title>
<a xlink:href="a00236.html" target="_top" xlink:title="Reference count structure.">
<polygon fill="none" stroke="black" points="223,-121.5 223,-142.5 325,-142.5 325,-121.5 223,-121.5"/>
<text text-anchor="middle" x="274" y="-129.5" font-family="FreeSans" font-size="10.00">Urho3D::RefCount</text>
</a>
</g>
<!-- Node3&#45;&gt;Node2 -->
<g id="edge4" class="edge"><title>Node3&#45;&gt;Node2</title>
<path fill="none" stroke="#9a32cd" stroke-dasharray="5,2" d="M310.82,-146.244C339.046,-157.153 378.971,-172.561 414,-186 429.954,-192.121 447.805,-198.934 462.196,-204.418"/>
<polygon fill="#9a32cd" stroke="#9a32cd" points="311.941,-142.925 301.352,-142.583 309.417,-149.454 311.941,-142.925"/>
<text text-anchor="middle" x="371" y="-182" font-family="FreeSans" font-size="10.00"> refCount_</text>
</g>
<!-- Node5 -->
<g id="node8" class="node"><title>Node5</title>
<a xlink:href="a00328.html" target="_top" xlink:title="Urho3D::WeakPtr\&lt; Urho3D\l::Graphics \&gt;">
<polygon fill="none" stroke="black" points="1264,-324 1264,-358 1410,-358 1410,-324 1264,-324"/>
<text text-anchor="start" x="1272" y="-345" font-family="FreeSans" font-size="10.00">Urho3D::WeakPtr&lt; Urho3D</text>
<text text-anchor="middle" x="1337" y="-332" font-family="FreeSans" font-size="10.00">::Graphics &gt;</text>
</a>
</g>
<!-- Node3&#45;&gt;Node5 -->
<g id="edge82" class="edge"><title>Node3&#45;&gt;Node5</title>
<path fill="none" stroke="#9a32cd" stroke-dasharray="5,2" d="M284.571,-151.631C304.778,-187.203 352.408,-262.215 414,-301 443.463,-319.553 455.183,-320 490,-320 490,-320 490,-320 1097,-320 1153.15,-320 1216.41,-325.775 1263.88,-331.268"/>
<polygon fill="#9a32cd" stroke="#9a32cd" points="287.528,-149.747 279.61,-142.707 281.41,-153.148 287.528,-149.747"/>
<text text-anchor="middle" x="853" y="-324" font-family="FreeSans" font-size="10.00"> refCount_</text>
</g>
<!-- Node21 -->
<g id="node51" class="node"><title>Node21</title>
<a xlink:href="a00328.html" target="_top" xlink:title="Urho3D::WeakPtr\&lt; Urho3D\l::Shader \&gt;">
<polygon fill="none" stroke="red" points="780,-84 780,-118 926,-118 926,-84 780,-84"/>
<text text-anchor="start" x="788" y="-105" font-family="FreeSans" font-size="10.00">Urho3D::WeakPtr&lt; Urho3D</text>
<text text-anchor="middle" x="853" y="-92" font-family="FreeSans" font-size="10.00">::Shader &gt;</text>
</a>
</g>
<!-- Node3&#45;&gt;Node21 -->
<g id="edge64" class="edge"><title>Node3&#45;&gt;Node21</title>
<path fill="none" stroke="#9a32cd" stroke-dasharray="5,2" d="M322.458,-119.007C349.229,-112.491 383.208,-105.298 414,-102 542.072,-88.2845 692.368,-92.2419 779.731,-96.5158"/>
<polygon fill="#9a32cd" stroke="#9a32cd" points="321.434,-115.655 312.573,-121.461 323.121,-122.448 321.434,-115.655"/>
<text text-anchor="middle" x="490" y="-106" font-family="FreeSans" font-size="10.00"> refCount_</text>
</g>
<!-- Node25 -->
<g id="node68" class="node"><title>Node25</title>
<a xlink:href="a00328.html" target="_top" xlink:title="Urho3D::WeakPtr\&lt; Urho3D\l::ShaderVariation \&gt;">
<polygon fill="none" stroke="black" points="1918,-129 1918,-163 2064,-163 2064,-129 1918,-129"/>
<text text-anchor="start" x="1926" y="-150" font-family="FreeSans" font-size="10.00">Urho3D::WeakPtr&lt; Urho3D</text>
<text text-anchor="middle" x="1991" y="-137" font-family="FreeSans" font-size="10.00">::ShaderVariation &gt;</text>
</a>
</g>
<!-- Node3&#45;&gt;Node25 -->
<g id="edge92" class="edge"><title>Node3&#45;&gt;Node25</title>
<path fill="none" stroke="#9a32cd" stroke-dasharray="5,2" d="M289.756,-113.737C322.872,-77.5056 403.79,-0 490,-0 490,-0 490,-0 1738,-0 1840.19,-0 1938.25,-90.453 1975.38,-128.966"/>
<polygon fill="#9a32cd" stroke="#9a32cd" points="287.14,-111.412 283.08,-121.198 292.357,-116.079 287.14,-111.412"/>
<text text-anchor="middle" x="1206" y="-4" font-family="FreeSans" font-size="10.00"> refCount_</text>
</g>
<!-- Node4 -->
<g id="node6" class="node"><title>Node4</title>
<a xlink:href="a00138.html" target="_top" xlink:title="Base class for GPU resources.">
<polygon fill="none" stroke="black" points="1520.5,-330.5 1520.5,-351.5 1631.5,-351.5 1631.5,-330.5 1520.5,-330.5"/>
<text text-anchor="middle" x="1576" y="-338.5" font-family="FreeSans" font-size="10.00">Urho3D::GPUObject</text>
</a>
</g>
<!-- Node4&#45;&gt;Node1 -->
<g id="edge6" class="edge"><title>Node4&#45;&gt;Node1</title>
<path fill="none" stroke="midnightblue" d="M1510.22,-330.6C1479.74,-325.806 1443.03,-320.067 1410,-315 1358.25,-307.06 985.583,-276.816 944,-245 928.195,-232.907 941.146,-216.91 926,-204 922.113,-200.687 917.716,-197.942 913.055,-195.67"/>
<polygon fill="midnightblue" stroke="midnightblue" points="1509.88,-334.089 1520.3,-332.187 1510.97,-327.175 1509.88,-334.089"/>
</g>
<!-- Node12 -->
<g id="node25" class="node"><title>Node12</title>
<a xlink:href="a00298.html" target="_top" xlink:title="Base class for texture resources.">
<polygon fill="none" stroke="red" points="1691,-399.5 1691,-420.5 1785,-420.5 1785,-399.5 1691,-399.5"/>
<text text-anchor="middle" x="1738" y="-407.5" font-family="FreeSans" font-size="10.00">Urho3D::Texture</text>
</a>
</g>
<!-- Node4&#45;&gt;Node12 -->
<g id="edge30" class="edge"><title>Node4&#45;&gt;Node12</title>
<path fill="none" stroke="midnightblue" d="M1633.55,-354.43C1639.85,-356.406 1646.11,-358.597 1652,-361 1677.93,-371.587 1705.71,-388.557 1722.46,-399.49"/>
<polygon fill="midnightblue" stroke="midnightblue" points="1634.24,-350.984 1623.65,-351.502 1632.25,-357.696 1634.24,-350.984"/>
</g>
<!-- Node20 -->
<g id="node47" class="node"><title>Node20</title>
<a xlink:href="a00322.html" target="_top" xlink:title="Hardware vertex buffer.">
<polygon fill="none" stroke="red" points="1678.5,-439.5 1678.5,-460.5 1797.5,-460.5 1797.5,-439.5 1678.5,-439.5"/>
<text text-anchor="middle" x="1738" y="-447.5" font-family="FreeSans" font-size="10.00">Urho3D::VertexBuffer</text>
</a>
</g>
<!-- Node4&#45;&gt;Node20 -->
<g id="edge60" class="edge"><title>Node4&#45;&gt;Node20</title>
<path fill="none" stroke="midnightblue" d="M1590.89,-359.596C1607.96,-379.737 1637.78,-411.466 1670,-430 1676.51,-433.743 1683.77,-436.838 1691.07,-439.381"/>
<polygon fill="midnightblue" stroke="midnightblue" points="1593.46,-357.21 1584.38,-351.745 1588.07,-361.678 1593.46,-357.21"/>
</g>
<!-- Node4&#45;&gt;Node23 -->
<g id="edge76" class="edge"><title>Node4&#45;&gt;Node23</title>
<path fill="none" stroke="midnightblue" d="M1591.52,-322.314C1624.84,-282.206 1702.34,-188.924 1728.89,-156.969"/>
<polygon fill="midnightblue" stroke="midnightblue" points="1588.64,-320.31 1584.94,-330.238 1594.02,-324.783 1588.64,-320.31"/>
</g>
<!-- Node5&#45;&gt;Node4 -->
<g id="edge8" class="edge"><title>Node5&#45;&gt;Node4</title>
<path fill="none" stroke="#9a32cd" stroke-dasharray="5,2" d="M1420.13,-341C1453.2,-341 1490.37,-341 1520.13,-341"/>
<polygon fill="#9a32cd" stroke="#9a32cd" points="1420.01,-337.5 1410.01,-341 1420.01,-344.5 1420.01,-337.5"/>
<text text-anchor="middle" x="1465" y="-345" font-family="FreeSans" font-size="10.00"> graphics_</text>
</g>
<!-- Node6&#45;&gt;Node5 -->
<g id="edge10" class="edge"><title>Node6&#45;&gt;Node5</title>
<path fill="none" stroke="#9a32cd" stroke-dasharray="5,2" d="M1116.72,-414.929C1129.89,-404.337 1148.03,-391.225 1166,-383 1183.65,-374.922 1225.87,-364.523 1263.94,-356.093"/>
<polygon fill="#9a32cd" stroke="#9a32cd" points="1114.32,-412.378 1108.84,-421.448 1118.78,-417.772 1114.32,-412.378"/>
<text text-anchor="middle" x="1206" y="-387" font-family="FreeSans" font-size="10.00"> ptr_</text>
</g>
<!-- Node7&#45;&gt;Node6 -->
<g id="edge12" class="edge"><title>Node7&#45;&gt;Node6</title>
<path fill="none" stroke="midnightblue" d="M907.876,-564.514C914.126,-562.35 920.294,-559.857 926,-557 935.062,-552.462 935.064,-547.782 944,-543 978.696,-524.431 995.51,-537.204 1028,-515 1056.93,-495.229 1080.41,-460.054 1090.97,-442.53"/>
<polygon fill="midnightblue" stroke="midnightblue" points="906.508,-561.277 898.043,-567.649 908.634,-567.946 906.508,-561.277"/>
</g>
<!-- Node7&#45;&gt;Node20 -->
<g id="edge58" class="edge"><title>Node7&#45;&gt;Node20</title>
<path fill="none" stroke="midnightblue" d="M908.443,-568.78C957.808,-562.177 1032.05,-554 1097,-554 1097,-554 1097,-554 1465,-554 1539.98,-554 1562.78,-558.829 1632,-530 1671.8,-513.424 1710.01,-478.378 1727.72,-460.69"/>
<polygon fill="midnightblue" stroke="midnightblue" points="907.736,-565.344 898.3,-570.162 908.681,-572.28 907.736,-565.344"/>
</g>
<!-- Node8 -->
<g id="node15" class="node"><title>Node8</title>
<a xlink:href="a00154.html" target="_top" xlink:title="Two&#45;dimensional bounding rectangle with integer values.">
<polygon fill="none" stroke="black" points="807,-495.5 807,-516.5 899,-516.5 899,-495.5 807,-495.5"/>
<text text-anchor="middle" x="853" y="-503.5" font-family="FreeSans" font-size="10.00">Urho3D::IntRect</text>
</a>
</g>
<!-- Node8&#45;&gt;Node6 -->
<g id="edge16" class="edge"><title>Node8&#45;&gt;Node6</title>
<path fill="none" stroke="#9a32cd" stroke-dasharray="5,2" d="M909.248,-494.626C951.768,-485.75 1006.39,-473.677 1028,-466 1045.74,-459.698 1064.87,-450.024 1078.48,-442.604"/>
<polygon fill="#9a32cd" stroke="#9a32cd" points="908.358,-491.236 899.278,-496.695 909.781,-498.09 908.358,-491.236"/>
<text text-anchor="middle" x="986" y="-503" font-family="FreeSans" font-size="10.00"> viewport_</text>
<text text-anchor="middle" x="986" y="-490" font-family="FreeSans" font-size="10.00">scissorRect_</text>
</g>
<!-- Node8&#45;&gt;Node8 -->
<g id="edge18" class="edge"><title>Node8&#45;&gt;Node8</title>
<path fill="none" stroke="#9a32cd" stroke-dasharray="5,2" d="M828.674,-526.427C830.55,-531.349 838.659,-535 853,-535 875.945,-535 882.936,-525.653 873.973,-516.708"/>
<polygon fill="#9a32cd" stroke="#9a32cd" points="832.074,-527.303 832.027,-516.708 825.457,-525.02 832.074,-527.303"/>
<text text-anchor="middle" x="853" y="-539" font-family="FreeSans" font-size="10.00"> ZERO</text>
</g>
<!-- Node9 -->
<g id="node18" class="node"><title>Node9</title>
<a xlink:href="a00316.html" target="_top" xlink:title="Urho3D::Vector\&lt; Urho3D\l::ScratchBuffer \&gt;">
<polygon fill="none" stroke="red" points="784,-443 784,-477 922,-477 922,-443 784,-443"/>
<text text-anchor="start" x="792" y="-464" font-family="FreeSans" font-size="10.00">Urho3D::Vector&lt; Urho3D</text>
<text text-anchor="middle" x="853" y="-451" font-family="FreeSans" font-size="10.00">::ScratchBuffer &gt;</text>
</a>
</g>
<!-- Node9&#45;&gt;Node6 -->
<g id="edge20" class="edge"><title>Node9&#45;&gt;Node6</title>
<path fill="none" stroke="#9a32cd" stroke-dasharray="5,2" d="M932.627,-450.863C969.971,-446.577 1013.36,-441.598 1046.18,-437.831"/>
<polygon fill="#9a32cd" stroke="#9a32cd" points="931.804,-447.434 922.268,-452.051 932.602,-454.388 931.804,-447.434"/>
<text text-anchor="middle" x="986" y="-453" font-family="FreeSans" font-size="10.00"> scratchBuffers_</text>
</g>
<!-- Node10 -->
<g id="node20" class="node"><title>Node10</title>
<a xlink:href="a00150.html" target="_top" xlink:title="Image resource.">
<polygon fill="none" stroke="red" points="808.5,-403.5 808.5,-424.5 897.5,-424.5 897.5,-403.5 808.5,-403.5"/>
<text text-anchor="middle" x="853" y="-411.5" font-family="FreeSans" font-size="10.00">Urho3D::Image</text>
</a>
</g>
<!-- Node10&#45;&gt;Node6 -->
<g id="edge22" class="edge"><title>Node10&#45;&gt;Node6</title>
<path fill="none" stroke="#9a32cd" stroke-dasharray="5,2" d="M908.111,-412.177C942.661,-411.717 988.063,-412.363 1028,-417 1036.77,-418.018 1046.06,-419.65 1054.89,-421.47"/>
<polygon fill="#9a32cd" stroke="#9a32cd" points="907.695,-408.683 897.756,-412.351 907.813,-415.682 907.695,-408.683"/>
<text text-anchor="middle" x="986" y="-421" font-family="FreeSans" font-size="10.00"> windowIcon_</text>
</g>
<!-- Node11&#45;&gt;Node6 -->
<g id="edge24" class="edge"><title>Node11&#45;&gt;Node6</title>
<path fill="none" stroke="#9a32cd" stroke-dasharray="5,2" d="M1916.12,-500C1865.76,-500 1797.89,-500 1738,-500 1337,-500 1337,-500 1337,-500 1253.85,-500 1160.43,-461.75 1118.91,-442.625"/>
<polygon fill="#9a32cd" stroke="#9a32cd" points="1916.27,-503.5 1926.27,-500 1916.27,-496.5 1916.27,-503.5"/>
<text text-anchor="middle" x="1576" y="-517" font-family="FreeSans" font-size="10.00"> depthStencil_</text>
<text text-anchor="middle" x="1576" y="-504" font-family="FreeSans" font-size="10.00">renderTargets_</text>
</g>
<!-- Node12&#45;&gt;Node6 -->
<g id="edge66" class="edge"><title>Node12&#45;&gt;Node6</title>
<path fill="none" stroke="#9a32cd" stroke-dasharray="5,2" d="M1680.55,-411.972C1556.47,-416.23 1265.17,-426.228 1147.57,-430.265"/>
<polygon fill="#9a32cd" stroke="#9a32cd" points="1680.73,-415.468 1690.61,-411.627 1680.49,-408.472 1680.73,-415.468"/>
<text text-anchor="middle" x="1465" y="-424" font-family="FreeSans" font-size="10.00"> textures_</text>
</g>
<!-- Node12&#45;&gt;Node11 -->
<g id="edge28" class="edge"><title>Node12&#45;&gt;Node11</title>
<path fill="none" stroke="#9a32cd" stroke-dasharray="5,2" d="M1785.79,-423.558C1792.6,-425.635 1799.49,-427.816 1806,-430 1863.3,-449.235 1929.25,-475.108 1964.88,-489.4"/>
<polygon fill="#9a32cd" stroke="#9a32cd" points="1786.51,-420.121 1775.93,-420.603 1784.5,-426.826 1786.51,-420.121"/>
<text text-anchor="middle" x="1862" y="-467" font-family="FreeSans" font-size="10.00"> parentTexture_</text>
</g>
<!-- Node13 -->
<g id="node28" class="node"><title>Node13</title>
<a xlink:href="a00143.html" target="_top" xlink:title="Urho3D::HashMap\&lt; int,\l Urho3D::SharedPtr\&lt; Urho3D\l::Texture2D \&gt; \&gt;">
<polygon fill="none" stroke="black" points="594,-735.5 594,-782.5 752,-782.5 752,-735.5 594,-735.5"/>
<text text-anchor="start" x="602" y="-769.5" font-family="FreeSans" font-size="10.00">Urho3D::HashMap&lt; int,</text>
<text text-anchor="start" x="602" y="-756.5" font-family="FreeSans" font-size="10.00"> Urho3D::SharedPtr&lt; Urho3D</text>
<text text-anchor="middle" x="673" y="-743.5" font-family="FreeSans" font-size="10.00">::Texture2D &gt; &gt;</text>
</a>
</g>
<!-- Node13&#45;&gt;Node6 -->
<g id="edge32" class="edge"><title>Node13&#45;&gt;Node6</title>
<path fill="none" stroke="#9a32cd" stroke-dasharray="5,2" d="M762.436,-757.557C812.466,-753.859 874.86,-744.308 926,-721 980.218,-696.289 994.51,-683.281 1028,-634 1071.95,-569.326 1090.33,-474.037 1095.43,-442.535"/>
<polygon fill="#9a32cd" stroke="#9a32cd" points="762.022,-754.077 752.279,-758.241 762.492,-761.061 762.022,-754.077"/>
<text text-anchor="middle" x="853" y="-759" font-family="FreeSans" font-size="10.00"> depthTextures_</text>
</g>
<!-- Node14 -->
<g id="node30" class="node"><title>Node14</title>
<a xlink:href="a00141.html" target="_top" xlink:title="Hash set/map base class.">
<polygon fill="none" stroke="black" points="220,-675.5 220,-696.5 328,-696.5 328,-675.5 220,-675.5"/>
<text text-anchor="middle" x="274" y="-683.5" font-family="FreeSans" font-size="10.00">Urho3D::HashBase</text>
</a>
</g>
<!-- Node14&#45;&gt;Node13 -->
<g id="edge34" class="edge"><title>Node14&#45;&gt;Node13</title>
<path fill="none" stroke="midnightblue" d="M313.254,-699.772C323.796,-703.131 335.254,-706.479 346,-709 429.589,-728.613 527.068,-742.37 593.707,-750.423"/>
<polygon fill="midnightblue" stroke="midnightblue" points="314.074,-696.358 303.482,-696.575 311.898,-703.011 314.074,-696.358"/>
</g>
<!-- Node17 -->
<g id="node38" class="node"><title>Node17</title>
<a xlink:href="a00143.html" target="_top" xlink:title="Urho3D::HashMap\&lt; Urho3D\l::String, TextureUnit \&gt;">
<polygon fill="none" stroke="black" points="597,-696 597,-730 749,-730 749,-696 597,-696"/>
<text text-anchor="start" x="605" y="-717" font-family="FreeSans" font-size="10.00">Urho3D::HashMap&lt; Urho3D</text>
<text text-anchor="middle" x="673" y="-704" font-family="FreeSans" font-size="10.00">::String, TextureUnit &gt;</text>
</a>
</g>
<!-- Node14&#45;&gt;Node17 -->
<g id="edge46" class="edge"><title>Node14&#45;&gt;Node17</title>
<path fill="none" stroke="midnightblue" d="M338.312,-693.316C340.907,-693.558 343.478,-693.787 346,-694 431.847,-701.258 530.609,-706.58 596.934,-709.715"/>
<polygon fill="midnightblue" stroke="midnightblue" points="338.516,-689.82 328.224,-692.334 337.837,-696.787 338.516,-689.82"/>
</g>
<!-- Node18 -->
<g id="node41" class="node"><title>Node18</title>
<a xlink:href="a00143.html" target="_top" xlink:title="Urho3D::HashMap\&lt; Pair\l\&lt; ShaderVariation *,\l ShaderVariation * \&gt;,\l SharedPtr\&lt; ShaderProgram \&gt; \&gt;">
<polygon fill="none" stroke="black" points="584.5,-631 584.5,-691 761.5,-691 761.5,-631 584.5,-631"/>
<text text-anchor="start" x="592.5" y="-678" font-family="FreeSans" font-size="10.00">Urho3D::HashMap&lt; Pair</text>
<text text-anchor="start" x="592.5" y="-665" font-family="FreeSans" font-size="10.00">&lt; ShaderVariation *,</text>
<text text-anchor="start" x="592.5" y="-652" font-family="FreeSans" font-size="10.00"> ShaderVariation * &gt;,</text>
<text text-anchor="middle" x="673" y="-639" font-family="FreeSans" font-size="10.00"> SharedPtr&lt; ShaderProgram &gt; &gt;</text>
</a>
</g>
<!-- Node14&#45;&gt;Node18 -->
<g id="edge50" class="edge"><title>Node14&#45;&gt;Node18</title>
<path fill="none" stroke="midnightblue" d="M338.603,-681.952C405.349,-677.77 509.995,-671.213 584.433,-666.549"/>
<polygon fill="midnightblue" stroke="midnightblue" points="337.988,-678.484 328.226,-682.602 338.425,-685.47 337.988,-678.484"/>
</g>
<!-- Node24 -->
<g id="node65" class="node"><title>Node24</title>
<a xlink:href="a00143.html" target="_top" xlink:title="Urho3D::HashMap\&lt; Urho3D\l::StringHash, Urho3D::\lShaderParameter \&gt;">
<polygon fill="none" stroke="black" points="414,-244.5 414,-291.5 566,-291.5 566,-244.5 414,-244.5"/>
<text text-anchor="start" x="422" y="-278.5" font-family="FreeSans" font-size="10.00">Urho3D::HashMap&lt; Urho3D</text>
<text text-anchor="start" x="422" y="-265.5" font-family="FreeSans" font-size="10.00">::StringHash, Urho3D::</text>
<text text-anchor="middle" x="490" y="-252.5" font-family="FreeSans" font-size="10.00">ShaderParameter &gt;</text>
</a>
</g>
<!-- Node14&#45;&gt;Node24 -->
<g id="edge86" class="edge"><title>Node14&#45;&gt;Node24</title>
<path fill="none" stroke="midnightblue" d="M284.194,-666.273C319.863,-597.247 438.99,-366.714 477.72,-291.763"/>
<polygon fill="midnightblue" stroke="midnightblue" points="281.038,-664.757 279.556,-675.247 287.257,-667.97 281.038,-664.757"/>
</g>
<!-- Node15 -->
<g id="node32" class="node"><title>Node15</title>
<a xlink:href="a00144.html" target="_top" xlink:title="Hash set/map node base class.">
<polygon fill="none" stroke="black" points="0,-702.5 0,-723.5 134,-723.5 134,-702.5 0,-702.5"/>
<text text-anchor="middle" x="67" y="-710.5" font-family="FreeSans" font-size="10.00">Urho3D::HashNodeBase</text>
</a>
</g>
<!-- Node15&#45;&gt;Node14 -->
<g id="edge36" class="edge"><title>Node15&#45;&gt;Node14</title>
<path fill="none" stroke="#9a32cd" stroke-dasharray="5,2" d="M144.444,-702.899C169.552,-699.624 196.848,-696.063 219.883,-693.059"/>
<polygon fill="#9a32cd" stroke="#9a32cd" points="143.67,-699.47 134.207,-704.234 144.576,-706.411 143.67,-699.47"/>
<text text-anchor="middle" x="177" y="-731" font-family="FreeSans" font-size="10.00"> ptrs_</text>
<text text-anchor="middle" x="177" y="-718" font-family="FreeSans" font-size="10.00">tail_</text>
<text text-anchor="middle" x="177" y="-705" font-family="FreeSans" font-size="10.00">head_</text>
</g>
<!-- Node15&#45;&gt;Node15 -->
<g id="edge38" class="edge"><title>Node15&#45;&gt;Node15</title>
<path fill="none" stroke="#9a32cd" stroke-dasharray="5,2" d="M46.7282,-733.427C48.292,-738.349 55.0493,-742 67,-742 86.1211,-742 91.9471,-732.653 84.4779,-723.708"/>
<polygon fill="#9a32cd" stroke="#9a32cd" points="50.1229,-734.286 49.5221,-723.708 43.3954,-732.352 50.1229,-734.286"/>
<text text-anchor="middle" x="67" y="-772" font-family="FreeSans" font-size="10.00"> next_</text>
<text text-anchor="middle" x="67" y="-759" font-family="FreeSans" font-size="10.00">prev_</text>
<text text-anchor="middle" x="67" y="-746" font-family="FreeSans" font-size="10.00">down_</text>
</g>
<!-- Node16 -->
<g id="node35" class="node"><title>Node16</title>
<a xlink:href="a00048.html" target="_top" xlink:title="Allocator memory block.">
<polygon fill="none" stroke="red" points="3.5,-631.5 3.5,-652.5 130.5,-652.5 130.5,-631.5 3.5,-631.5"/>
<text text-anchor="middle" x="67" y="-639.5" font-family="FreeSans" font-size="10.00">Urho3D::AllocatorBlock</text>
</a>
</g>
<!-- Node16&#45;&gt;Node14 -->
<g id="edge40" class="edge"><title>Node16&#45;&gt;Node14</title>
<path fill="none" stroke="#9a32cd" stroke-dasharray="5,2" d="M126.414,-654.629C157.457,-661.228 195.009,-669.21 224.465,-675.471"/>
<polygon fill="#9a32cd" stroke="#9a32cd" points="127.091,-651.195 116.582,-652.539 125.635,-658.042 127.091,-651.195"/>
<text text-anchor="middle" x="177" y="-674" font-family="FreeSans" font-size="10.00"> allocator_</text>
</g>
<!-- Node16&#45;&gt;Node16 -->
<g id="edge42" class="edge"><title>Node16&#45;&gt;Node16</title>
<path fill="none" stroke="#9a32cd" stroke-dasharray="5,2" d="M46.7282,-662.427C48.292,-667.349 55.0493,-671 67,-671 86.1211,-671 91.9471,-661.653 84.4779,-652.708"/>
<polygon fill="#9a32cd" stroke="#9a32cd" points="50.1229,-663.286 49.5221,-652.708 43.3954,-661.352 50.1229,-663.286"/>
<text text-anchor="middle" x="67" y="-675" font-family="FreeSans" font-size="10.00"> next_</text>
</g>
<!-- Node17&#45;&gt;Node6 -->
<g id="edge44" class="edge"><title>Node17&#45;&gt;Node6</title>
<path fill="none" stroke="#9a32cd" stroke-dasharray="5,2" d="M759.499,-707.512C809.919,-701.769 873.677,-690.022 926,-666 978.861,-641.731 992.342,-629.954 1028,-584 1064.07,-537.521 1086.32,-469.177 1093.99,-442.871"/>
<polygon fill="#9a32cd" stroke="#9a32cd" points="758.842,-704.062 749.276,-708.615 759.593,-711.022 758.842,-704.062"/>
<text text-anchor="middle" x="853" y="-708" font-family="FreeSans" font-size="10.00"> textureUnits_</text>
</g>
<!-- Node18&#45;&gt;Node6 -->
<g id="edge48" class="edge"><title>Node18&#45;&gt;Node6</title>
<path fill="none" stroke="#9a32cd" stroke-dasharray="5,2" d="M771.452,-650.771C849.812,-637.832 957.641,-608.647 1028,-543 1060.35,-512.815 1083.45,-464.211 1092.62,-442.762"/>
<polygon fill="#9a32cd" stroke="#9a32cd" points="770.891,-647.316 761.565,-652.344 771.991,-654.229 770.891,-647.316"/>
<text text-anchor="middle" x="853" y="-653" font-family="FreeSans" font-size="10.00"> shaderPrograms_</text>
</g>
<!-- Node19 -->
<g id="node45" class="node"><title>Node19</title>
<a xlink:href="a00316.html" target="_top" xlink:title="Urho3D::Vector\&lt; Urho3D\l::GPUObject * \&gt;">
<polygon fill="none" stroke="red" points="784,-351 784,-385 922,-385 922,-351 784,-351"/>
<text text-anchor="start" x="792" y="-372" font-family="FreeSans" font-size="10.00">Urho3D::Vector&lt; Urho3D</text>
<text text-anchor="middle" x="853" y="-359" font-family="FreeSans" font-size="10.00">::GPUObject * &gt;</text>
</a>
</g>
<!-- Node19&#45;&gt;Node6 -->
<g id="edge54" class="edge"><title>Node19&#45;&gt;Node6</title>
<path fill="none" stroke="#9a32cd" stroke-dasharray="5,2" d="M932.168,-374.455C962.667,-378.424 997.484,-384.798 1028,-395 1047.21,-401.422 1067.43,-412.902 1080.98,-421.378"/>
<polygon fill="#9a32cd" stroke="#9a32cd" points="932.357,-370.951 922.003,-373.199 931.498,-377.899 932.357,-370.951"/>
<text text-anchor="middle" x="986" y="-399" font-family="FreeSans" font-size="10.00"> gpuObjects_</text>
</g>
<!-- Node20&#45;&gt;Node6 -->
<g id="edge56" class="edge"><title>Node20&#45;&gt;Node6</title>
<path fill="none" stroke="#9a32cd" stroke-dasharray="5,2" d="M1668.12,-448.038C1537.98,-444.383 1261.4,-436.617 1147.57,-433.42"/>
<polygon fill="#9a32cd" stroke="#9a32cd" points="1668.27,-451.543 1678.36,-448.325 1668.47,-444.546 1668.27,-451.543"/>
<text text-anchor="middle" x="1465" y="-447" font-family="FreeSans" font-size="10.00"> vertexBuffers_</text>
</g>
<!-- Node21&#45;&gt;Node6 -->
<g id="edge62" class="edge"><title>Node21&#45;&gt;Node6</title>
<path fill="none" stroke="#9a32cd" stroke-dasharray="5,2" d="M888.49,-123.898C927.48,-150.666 989.646,-198.33 1028,-253 1067.79,-309.711 1088.47,-392.435 1094.83,-421.462"/>
<polygon fill="#9a32cd" stroke="#9a32cd" points="890.304,-120.899 880.062,-118.189 886.378,-126.695 890.304,-120.899"/>
<text text-anchor="middle" x="986" y="-257" font-family="FreeSans" font-size="10.00"> lastShader_</text>
</g>
<!-- Node21&#45;&gt;Node23 -->
<g id="edge78" class="edge"><title>Node21&#45;&gt;Node23</title>
<path fill="none" stroke="#9a32cd" stroke-dasharray="5,2" d="M936.296,-103.041C983.449,-104.027 1043.52,-105 1097,-105 1097,-105 1097,-105 1576,-105 1625.61,-105 1681.23,-123.293 1712.69,-135.441"/>
<polygon fill="#9a32cd" stroke="#9a32cd" points="936.205,-99.5387 926.132,-102.824 936.055,-106.537 936.205,-99.5387"/>
<text text-anchor="middle" x="1337" y="-109" font-family="FreeSans" font-size="10.00"> owner_</text>
</g>
<!-- Node22 -->
<g id="node55" class="node"><title>Node22</title>
<a xlink:href="a00290.html" target="_top" xlink:title="String class.">
<polygon fill="none" stroke="black" points="446,-124.5 446,-145.5 534,-145.5 534,-124.5 446,-124.5"/>
<text text-anchor="middle" x="490" y="-132.5" font-family="FreeSans" font-size="10.00">Urho3D::String</text>
</a>
</g>
<!-- Node22&#45;&gt;Node1 -->
<g id="edge94" class="edge"><title>Node22&#45;&gt;Node1</title>
<path fill="none" stroke="#9a32cd" stroke-dasharray="5,2" d="M544.084,-142.45C608.375,-151.305 715.705,-166.089 785.41,-175.69"/>
<polygon fill="#9a32cd" stroke="#9a32cd" points="544.532,-138.978 534.148,-141.081 543.577,-145.913 544.532,-138.978"/>
<text text-anchor="middle" x="673" y="-175" font-family="FreeSans" font-size="10.00"> linkerOutput_</text>
</g>
<!-- Node22&#45;&gt;Node6 -->
<g id="edge68" class="edge"><title>Node22&#45;&gt;Node6</title>
<path fill="none" stroke="#9a32cd" stroke-dasharray="5,2" d="M513.413,-151.238C531.797,-163.218 558.471,-178.95 584,-188 656.655,-213.757 870.395,-192.613 926,-246 953.855,-272.744 920.242,-300.558 944,-331 969.559,-363.75 993.363,-349.063 1028,-372 1050.5,-386.9 1073.55,-408.47 1086.49,-421.28"/>
<polygon fill="#9a32cd" stroke="#9a32cd" points="515.114,-148.166 504.851,-145.537 511.235,-153.993 515.114,-148.166"/>
<text text-anchor="middle" x="853" y="-289" font-family="FreeSans" font-size="10.00"> lastShaderName_</text>
<text text-anchor="middle" x="853" y="-276" font-family="FreeSans" font-size="10.00">windowTitle_</text>
<text text-anchor="middle" x="853" y="-263" font-family="FreeSans" font-size="10.00">shaderPath_</text>
<text text-anchor="middle" x="853" y="-250" font-family="FreeSans" font-size="10.00">shaderExtension_</text>
</g>
<!-- Node22&#45;&gt;Node22 -->
<g id="edge70" class="edge"><title>Node22&#45;&gt;Node22</title>
<path fill="none" stroke="#9a32cd" stroke-dasharray="5,2" d="M468.254,-155.427C469.931,-160.349 477.18,-164 490,-164 510.512,-164 516.761,-154.653 508.749,-145.708"/>
<polygon fill="#9a32cd" stroke="#9a32cd" points="471.649,-156.295 471.251,-145.708 464.959,-154.232 471.649,-156.295"/>
<text text-anchor="middle" x="490" y="-168" font-family="FreeSans" font-size="10.00"> EMPTY</text>
</g>
<!-- Node22&#45;&gt;Node23 -->
<g id="edge80" class="edge"><title>Node22&#45;&gt;Node23</title>
<path fill="none" stroke="#9a32cd" stroke-dasharray="5,2" d="M544.229,-124.051C551.564,-122.434 558.979,-120.728 566,-119 694.699,-87.3298 720.462,-38 853,-38 853,-38 853,-38 1576,-38 1645.63,-38 1708.1,-107.932 1729.84,-135.25"/>
<polygon fill="#9a32cd" stroke="#9a32cd" points="543.354,-120.66 534.321,-126.196 544.835,-127.501 543.354,-120.66"/>
<text text-anchor="middle" x="1206" y="-81" font-family="FreeSans" font-size="10.00"> defines_</text>
<text text-anchor="middle" x="1206" y="-68" font-family="FreeSans" font-size="10.00">fullName_</text>
<text text-anchor="middle" x="1206" y="-55" font-family="FreeSans" font-size="10.00">name_</text>
<text text-anchor="middle" x="1206" y="-42" font-family="FreeSans" font-size="10.00">compilerOutput_</text>
</g>
<!-- Node23&#45;&gt;Node6 -->
<g id="edge72" class="edge"><title>Node23&#45;&gt;Node6</title>
<path fill="none" stroke="#9a32cd" stroke-dasharray="5,2" d="M1665.54,-158.063C1660.96,-158.742 1656.42,-159.394 1652,-160 1552.75,-173.608 1522.15,-150.774 1428,-185 1296.63,-232.76 1272.92,-268.959 1166,-359 1142.26,-378.995 1118.17,-406.477 1105.7,-421.368"/>
<polygon fill="#9a32cd" stroke="#9a32cd" points="1666.22,-161.499 1675.58,-156.538 1665.17,-154.578 1666.22,-161.499"/>
<text text-anchor="middle" x="1465" y="-202" font-family="FreeSans" font-size="10.00"> pixelShader_</text>
<text text-anchor="middle" x="1465" y="-189" font-family="FreeSans" font-size="10.00">vertexShader_</text>
</g>
<!-- Node23&#45;&gt;Node25 -->
<g id="edge90" class="edge"><title>Node23&#45;&gt;Node25</title>
<path fill="none" stroke="#9a32cd" stroke-dasharray="5,2" d="M1816.45,-146C1848.81,-146 1886.09,-146 1917.87,-146"/>
<polygon fill="#9a32cd" stroke="#9a32cd" points="1816.13,-142.5 1806.13,-146 1816.13,-149.5 1816.13,-142.5"/>
<text text-anchor="middle" x="1862" y="-150" font-family="FreeSans" font-size="10.00"> ptr_</text>
</g>
<!-- Node24&#45;&gt;Node1 -->
<g id="edge84" class="edge"><title>Node24&#45;&gt;Node1</title>
<path fill="none" stroke="#9a32cd" stroke-dasharray="5,2" d="M575.986,-253.488C629.782,-243.778 700.336,-229.893 762,-214 782.553,-208.703 805.303,-201.453 822.914,-195.527"/>
<polygon fill="#9a32cd" stroke="#9a32cd" points="575.368,-250.043 566.142,-255.252 576.602,-256.933 575.368,-250.043"/>
<text text-anchor="middle" x="673" y="-255" font-family="FreeSans" font-size="10.00"> shaderParameters_</text>
</g>
<!-- Node25&#45;&gt;Node1 -->
<g id="edge88" class="edge"><title>Node25&#45;&gt;Node1</title>
<path fill="none" stroke="#9a32cd" stroke-dasharray="5,2" d="M1907.6,-161.8C1905.04,-162.215 1902.5,-162.616 1900,-163 1691.58,-195.001 1638.81,-215.764 1428,-211 1244.43,-206.852 1028.14,-195.263 920.682,-189.053"/>
<polygon fill="#9a32cd" stroke="#9a32cd" points="1908.27,-165.236 1917.56,-160.141 1907.12,-158.331 1908.27,-165.236"/>
<text text-anchor="middle" x="1465" y="-228" font-family="FreeSans" font-size="10.00"> pixelShader_</text>
<text text-anchor="middle" x="1465" y="-215" font-family="FreeSans" font-size="10.00">vertexShader_</text>
</g>
</g>
</svg>
