<?xml version="1.0" encoding="UTF-8" standalone="no"?>
<!DOCTYPE svg PUBLIC "-//W3C//DTD SVG 1.1//EN"
 "http://www.w3.org/Graphics/SVG/1.1/DTD/svg11.dtd">
<!-- Generated by graphviz version 2.26.3 (20100126.1600)
 -->
<!-- Title: Urho3D::Drawable Pages: 1 -->
<svg width="2098pt" height="566pt"
 viewBox="0.00 0.00 2098.00 566.14" xmlns="http://www.w3.org/2000/svg" xmlns:xlink="http://www.w3.org/1999/xlink">
<g id="graph1" class="graph" transform="scale(1 1) rotate(0) translate(4 562.14)">
<title>Urho3D::Drawable</title>
<!-- Node1 -->
<g id="node1" class="node"><title>Node1</title>
<polygon fill="#bfbfbf" stroke="black" points="1448,-203.64 1448,-224.64 1552,-224.64 1552,-203.64 1448,-203.64"/>
<text text-anchor="middle" x="1500" y="-211.64" font-family="FreeSans" font-size="10.00">Urho3D::Drawable</text>
</g>
<!-- Node10 -->
<g id="node22" class="node"><title>Node10</title>
<a xlink:href="a00404.html" target="_top" xlink:title="Component that describes global rendering properties">
<polygon fill="none" stroke="black" points="1708.5,-402.64 1708.5,-423.64 1793.5,-423.64 1793.5,-402.64 1708.5,-402.64"/>
<text text-anchor="middle" x="1751" y="-410.64" font-family="FreeSans" font-size="10.00">Urho3D::Zone</text>
</a>
</g>
<!-- Node1&#45;&gt;Node10 -->
<g id="edge28" class="edge"><title>Node1&#45;&gt;Node10</title>
<path fill="none" stroke="midnightblue" d="M1561.46,-222.275C1567.68,-225.206 1573.39,-229.068 1578,-234.14 1612.52,-272.082 1562.22,-309.541 1596,-348.14 1624.71,-380.943 1650.15,-358.47 1690,-376.14 1706.53,-383.47 1724.05,-394.474 1736.05,-402.577"/>
<polygon fill="midnightblue" stroke="midnightblue" points="1562.65,-218.982 1552.06,-218.617 1560.11,-225.506 1562.65,-218.982"/>
</g>
<!-- Node18 -->
<g id="node44" class="node"><title>Node18</title>
<a xlink:href="a00199.html" target="_top" xlink:title="Light component.">
<polygon fill="none" stroke="black" points="1709.5,-141.64 1709.5,-162.64 1792.5,-162.64 1792.5,-141.64 1709.5,-141.64"/>
<text text-anchor="middle" x="1751" y="-149.64" font-family="FreeSans" font-size="10.00">Urho3D::Light</text>
</a>
</g>
<!-- Node1&#45;&gt;Node18 -->
<g id="edge56" class="edge"><title>Node1&#45;&gt;Node18</title>
<path fill="none" stroke="midnightblue" d="M1552.5,-201.172C1599.16,-189.646 1666.46,-173.021 1709.47,-162.399"/>
<polygon fill="midnightblue" stroke="midnightblue" points="1551.45,-197.827 1542.58,-203.623 1553.13,-204.622 1551.45,-197.827"/>
</g>
<!-- Node2 -->
<g id="node2" class="node"><title>Node2</title>
<a xlink:href="a00103.html" target="_top" xlink:title="Base class for components. Components can be created to scene nodes.">
<polygon fill="none" stroke="black" points="573,-242.64 573,-263.64 689,-263.64 689,-242.64 573,-242.64"/>
<text text-anchor="middle" x="631" y="-250.64" font-family="FreeSans" font-size="10.00">Urho3D::Component</text>
</a>
</g>
<!-- Node2&#45;&gt;Node1 -->
<g id="edge2" class="edge"><title>Node2&#45;&gt;Node1</title>
<path fill="none" stroke="midnightblue" d="M699.474,-252.802C834.466,-251.681 1144.39,-246.858 1404,-226.14 1418.23,-225.004 1433.6,-223.3 1447.77,-221.53"/>
<polygon fill="midnightblue" stroke="midnightblue" points="699.256,-249.303 689.283,-252.882 699.311,-256.303 699.256,-249.303"/>
</g>
<!-- Node25 -->
<g id="node68" class="node"><title>Node25</title>
<a xlink:href="a00249.html" target="_top" xlink:title="Octree component. Should be added only to the root scene node">
<polygon fill="none" stroke="red" points="883,-318.64 883,-339.64 975,-339.64 975,-318.64 883,-318.64"/>
<text text-anchor="middle" x="929" y="-326.64" font-family="FreeSans" font-size="10.00">Urho3D::Octree</text>
</a>
</g>
<!-- Node2&#45;&gt;Node25 -->
<g id="edge90" class="edge"><title>Node2&#45;&gt;Node25</title>
<path fill="none" stroke="midnightblue" d="M699.175,-257.917C743.705,-263.008 802.233,-273.507 850,-295.14 859.232,-299.321 859.053,-304.38 868,-309.14 874.887,-312.804 882.569,-315.96 890.096,-318.611"/>
<polygon fill="midnightblue" stroke="midnightblue" points="699.354,-254.416 689.036,-256.824 698.603,-261.376 699.354,-254.416"/>
</g>
<!-- Node3 -->
<g id="node4" class="node"><title>Node3</title>
<a xlink:href="a00054.html" target="_top" xlink:title="Base class for animatable object, an animatable object can be set animation on it&#39;s attributes...">
<polygon fill="none" stroke="red" points="152,-229.64 152,-250.64 266,-250.64 266,-229.64 152,-229.64"/>
<text text-anchor="middle" x="209" y="-237.64" font-family="FreeSans" font-size="10.00">Urho3D::Animatable</text>
</a>
</g>
<!-- Node3&#45;&gt;Node2 -->
<g id="edge4" class="edge"><title>Node3&#45;&gt;Node2</title>
<path fill="none" stroke="midnightblue" d="M276.556,-242.221C358.498,-244.745 495.255,-248.958 572.757,-251.346"/>
<polygon fill="midnightblue" stroke="midnightblue" points="276.455,-238.717 266.352,-241.907 276.239,-245.713 276.455,-238.717"/>
</g>
<!-- Node5 -->
<g id="node8" class="node"><title>Node5</title>
<a xlink:href="a00238.html" target="_top" xlink:title="Scene node that may contain components and child nodes.">
<polygon fill="none" stroke="red" points="398.5,-295.64 398.5,-316.64 483.5,-316.64 483.5,-295.64 398.5,-295.64"/>
<text text-anchor="middle" x="441" y="-303.64" font-family="FreeSans" font-size="10.00">Urho3D::Node</text>
</a>
</g>
<!-- Node3&#45;&gt;Node5 -->
<g id="edge10" class="edge"><title>Node3&#45;&gt;Node5</title>
<path fill="none" stroke="midnightblue" d="M255.808,-253.456C299.392,-265.855 363.515,-284.097 403.73,-295.537"/>
<polygon fill="midnightblue" stroke="midnightblue" points="256.594,-250.041 246.018,-250.671 254.678,-256.774 256.594,-250.041"/>
</g>
<!-- Node4 -->
<g id="node6" class="node"><title>Node4</title>
<a xlink:href="a00315.html" target="_top" xlink:title="Base class for objects with automatic serialization through attributes.">
<polygon fill="none" stroke="red" points="0,-229.64 0,-250.64 114,-250.64 114,-229.64 0,-229.64"/>
<text text-anchor="middle" x="57" y="-237.64" font-family="FreeSans" font-size="10.00">Urho3D::Serializable</text>
</a>
</g>
<!-- Node4&#45;&gt;Node3 -->
<g id="edge6" class="edge"><title>Node4&#45;&gt;Node3</title>
<path fill="none" stroke="midnightblue" d="M124.321,-240.14C133.526,-240.14 142.903,-240.14 151.902,-240.14"/>
<polygon fill="midnightblue" stroke="midnightblue" points="124.032,-236.64 114.032,-240.14 124.032,-243.64 124.032,-236.64"/>
</g>
<!-- Node5&#45;&gt;Node2 -->
<g id="edge8" class="edge"><title>Node5&#45;&gt;Node2</title>
<path fill="none" stroke="#9a32cd" stroke-dasharray="5,2" d="M488.676,-292.841C520.969,-283.833 563.059,-272.092 593.073,-263.72"/>
<polygon fill="#9a32cd" stroke="#9a32cd" points="487.685,-289.484 478.993,-295.542 489.565,-296.226 487.685,-289.484"/>
<text text-anchor="middle" x="533" y="-288.14" font-family="FreeSans" font-size="10.00"> node_</text>
</g>
<!-- Node5&#45;&gt;Node5 -->
<g id="edge16" class="edge"><title>Node5&#45;&gt;Node5</title>
<path fill="none" stroke="#9a32cd" stroke-dasharray="5,2" d="M424.152,-326.933C425.639,-331.669 431.255,-335.14 441,-335.14 456.992,-335.14 461.865,-325.793 455.618,-316.848"/>
<polygon fill="#9a32cd" stroke="#9a32cd" points="427.64,-327.368 426.382,-316.848 420.805,-325.856 427.64,-327.368"/>
<text text-anchor="middle" x="441" y="-339.14" font-family="FreeSans" font-size="10.00"> parent_</text>
</g>
<!-- Node6 -->
<g id="node11" class="node"><title>Node6</title>
<a xlink:href="a00384.html" target="_top" xlink:title="Three&#45;dimensional vector.">
<polygon fill="none" stroke="black" points="161,-414.64 161,-435.64 257,-435.64 257,-414.64 161,-414.64"/>
<text text-anchor="middle" x="209" y="-422.64" font-family="FreeSans" font-size="10.00">Urho3D::Vector3</text>
</a>
</g>
<!-- Node6&#45;&gt;Node5 -->
<g id="edge12" class="edge"><title>Node6&#45;&gt;Node5</title>
<path fill="none" stroke="#9a32cd" stroke-dasharray="5,2" d="M237.764,-409.594C251.687,-402.121 268.67,-393.083 284,-385.14 332.224,-360.152 389.29,-331.72 419.587,-316.714"/>
<polygon fill="#9a32cd" stroke="#9a32cd" points="235.82,-406.665 228.671,-414.484 239.136,-412.83 235.82,-406.665"/>
<text text-anchor="middle" x="325" y="-402.14" font-family="FreeSans" font-size="10.00"> scale_</text>
<text text-anchor="middle" x="325" y="-389.14" font-family="FreeSans" font-size="10.00">position_</text>
</g>
<!-- Node6&#45;&gt;Node6 -->
<g id="edge14" class="edge"><title>Node6&#45;&gt;Node6</title>
<path fill="none" stroke="#9a32cd" stroke-dasharray="5,2" d="M195.082,-445.933C196.31,-450.669 200.95,-454.14 209,-454.14 222.211,-454.14 226.236,-444.793 221.076,-435.848"/>
<polygon fill="#9a32cd" stroke="#9a32cd" points="198.57,-446.314 196.924,-435.848 191.684,-445.056 198.57,-446.314"/>
<text text-anchor="middle" x="209" y="-549.14" font-family="FreeSans" font-size="10.00"> ONE</text>
<text text-anchor="middle" x="209" y="-536.14" font-family="FreeSans" font-size="10.00">DOWN</text>
<text text-anchor="middle" x="209" y="-523.14" font-family="FreeSans" font-size="10.00">BACK</text>
<text text-anchor="middle" x="209" y="-510.14" font-family="FreeSans" font-size="10.00">RIGHT</text>
<text text-anchor="middle" x="209" y="-497.14" font-family="FreeSans" font-size="10.00">LEFT</text>
<text text-anchor="middle" x="209" y="-484.14" font-family="FreeSans" font-size="10.00">ZERO</text>
<text text-anchor="middle" x="209" y="-471.14" font-family="FreeSans" font-size="10.00">FORWARD</text>
<text text-anchor="middle" x="209" y="-458.14" font-family="FreeSans" font-size="10.00">UP</text>
</g>
<!-- Node13 -->
<g id="node30" class="node"><title>Node13</title>
<a xlink:href="a00085.html" target="_top" xlink:title="Three&#45;dimensional axis&#45;aligned bounding box.">
<polygon fill="none" stroke="black" points="868,-469.64 868,-490.64 990,-490.64 990,-469.64 868,-469.64"/>
<text text-anchor="middle" x="929" y="-477.64" font-family="FreeSans" font-size="10.00">Urho3D::BoundingBox</text>
</a>
</g>
<!-- Node6&#45;&gt;Node13 -->
<g id="edge38" class="edge"><title>Node6&#45;&gt;Node13</title>
<path fill="none" stroke="#9a32cd" stroke-dasharray="5,2" d="M267.34,-436.74C272.956,-437.643 278.578,-438.464 284,-439.14 497.501,-465.753 753.036,-475.501 867.854,-478.718"/>
<polygon fill="#9a32cd" stroke="#9a32cd" points="267.723,-433.255 257.28,-435.041 266.557,-440.157 267.723,-433.255"/>
<text text-anchor="middle" x="533" y="-480.14" font-family="FreeSans" font-size="10.00"> max_</text>
<text text-anchor="middle" x="533" y="-467.14" font-family="FreeSans" font-size="10.00">min_</text>
</g>
<!-- Node23 -->
<g id="node61" class="node"><title>Node23</title>
<a xlink:href="a00248.html" target="_top" xlink:title="Octree octant">
<polygon fill="none" stroke="black" points="1149,-348.64 1149,-369.64 1241,-369.64 1241,-348.64 1149,-348.64"/>
<text text-anchor="middle" x="1195" y="-356.64" font-family="FreeSans" font-size="10.00">Urho3D::Octant</text>
</a>
</g>
<!-- Node6&#45;&gt;Node23 -->
<g id="edge84" class="edge"><title>Node6&#45;&gt;Node23</title>
<path fill="none" stroke="#9a32cd" stroke-dasharray="5,2" d="M267.197,-425.212C397.079,-424.964 720.384,-422.087 990,-401.14 1040.01,-397.254 1052.92,-397.519 1102,-387.14 1123.28,-382.64 1146.73,-375.565 1164.76,-369.653"/>
<polygon fill="#9a32cd" stroke="#9a32cd" points="267.07,-421.712 257.075,-425.226 267.081,-428.712 267.07,-421.712"/>
<text text-anchor="middle" x="631" y="-437.14" font-family="FreeSans" font-size="10.00"> center_</text>
<text text-anchor="middle" x="631" y="-424.14" font-family="FreeSans" font-size="10.00">halfSize_</text>
</g>
<!-- Node7 -->
<g id="node15" class="node"><title>Node7</title>
<a xlink:href="a00221.html" target="_top" xlink:title="3x4 matrix for scene node transform calculations.">
<polygon fill="none" stroke="black" points="156,-299.64 156,-320.64 262,-320.64 262,-299.64 156,-299.64"/>
<text text-anchor="middle" x="209" y="-307.64" font-family="FreeSans" font-size="10.00">Urho3D::Matrix3x4</text>
</a>
</g>
<!-- Node7&#45;&gt;Node5 -->
<g id="edge18" class="edge"><title>Node7&#45;&gt;Node5</title>
<path fill="none" stroke="#9a32cd" stroke-dasharray="5,2" d="M272.432,-309.046C312.504,-308.356 363.191,-307.482 398.47,-306.873"/>
<polygon fill="#9a32cd" stroke="#9a32cd" points="272.164,-305.55 262.225,-309.222 272.284,-312.549 272.164,-305.55"/>
<text text-anchor="middle" x="325" y="-312.14" font-family="FreeSans" font-size="10.00"> worldTransform_</text>
</g>
<!-- Node7&#45;&gt;Node7 -->
<g id="edge20" class="edge"><title>Node7&#45;&gt;Node7</title>
<path fill="none" stroke="#9a32cd" stroke-dasharray="5,2" d="M195.082,-330.933C196.31,-335.669 200.95,-339.14 209,-339.14 222.211,-339.14 226.236,-329.793 221.076,-320.848"/>
<polygon fill="#9a32cd" stroke="#9a32cd" points="198.57,-331.314 196.924,-320.848 191.684,-330.056 198.57,-331.314"/>
<text text-anchor="middle" x="209" y="-356.14" font-family="FreeSans" font-size="10.00"> IDENTITY</text>
<text text-anchor="middle" x="209" y="-343.14" font-family="FreeSans" font-size="10.00">ZERO</text>
</g>
<!-- Node7&#45;&gt;Node10 -->
<g id="edge44" class="edge"><title>Node7&#45;&gt;Node10</title>
<path fill="none" stroke="#9a32cd" stroke-dasharray="5,2" d="M225.73,-327.948C239.968,-342.116 261.621,-361.441 284,-373.14 399.897,-433.73 440.231,-422.244 568,-450.14 932.001,-529.612 1031.52,-520.698 1404,-512.14 1531.25,-509.216 1578.45,-558.45 1690,-497.14 1720.01,-480.646 1739.07,-442.364 1746.91,-423.722"/>
<polygon fill="#9a32cd" stroke="#9a32cd" points="228.121,-325.388 218.625,-320.69 223.118,-330.284 228.121,-325.388"/>
<text text-anchor="middle" x="929" y="-518.14" font-family="FreeSans" font-size="10.00"> inverseWorld_</text>
</g>
<!-- Node7&#45;&gt;Node18 -->
<g id="edge74" class="edge"><title>Node7&#45;&gt;Node18</title>
<path fill="none" stroke="#9a32cd" stroke-dasharray="5,2" d="M228.91,-292.785C270.835,-256.417 365.857,-174.994 384,-168.14 880.58,19.4574 1047.6,-116.714 1578,-138.14 1623.01,-139.958 1674.45,-144.428 1709.46,-147.831"/>
<polygon fill="#9a32cd" stroke="#9a32cd" points="226.524,-290.221 221.271,-299.422 231.115,-295.505 226.524,-290.221"/>
<text text-anchor="middle" x="929" y="-81.1401" font-family="FreeSans" font-size="10.00"> volumeTransform_</text>
</g>
<!-- Node8 -->
<g id="node18" class="node"><title>Node8</title>
<a xlink:href="a00181.html" target="_top" xlink:title="Urho3D::HashSet\&lt; Urho3D\l::Camera * \&gt;">
<polygon fill="none" stroke="black" points="1120.5,-275.14 1120.5,-309.14 1269.5,-309.14 1269.5,-275.14 1120.5,-275.14"/>
<text text-anchor="start" x="1128.5" y="-296.14" font-family="FreeSans" font-size="10.00">Urho3D::HashSet&lt; Urho3D</text>
<text text-anchor="middle" x="1195" y="-283.14" font-family="FreeSans" font-size="10.00">::Camera * &gt;</text>
</a>
</g>
<!-- Node8&#45;&gt;Node1 -->
<g id="edge22" class="edge"><title>Node8&#45;&gt;Node1</title>
<path fill="none" stroke="#9a32cd" stroke-dasharray="5,2" d="M1279.85,-295.031C1320.18,-292.713 1367.44,-284.316 1404,-261.14 1416.18,-253.418 1410.24,-242.483 1422,-234.14 1429.64,-228.722 1438.62,-224.769 1447.72,-221.887"/>
<polygon fill="#9a32cd" stroke="#9a32cd" points="1279.59,-291.54 1269.76,-295.495 1279.91,-298.532 1279.59,-291.54"/>
<text text-anchor="middle" x="1346" y="-298.14" font-family="FreeSans" font-size="10.00"> viewCameras_</text>
</g>
<!-- Node9 -->
<g id="node20" class="node"><title>Node9</title>
<a xlink:href="a00177.html" target="_top" xlink:title="Hash set/map base class.">
<polygon fill="none" stroke="red" points="875,-278.64 875,-299.64 983,-299.64 983,-278.64 875,-278.64"/>
<text text-anchor="middle" x="929" y="-286.64" font-family="FreeSans" font-size="10.00">Urho3D::HashBase</text>
</a>
</g>
<!-- Node9&#45;&gt;Node8 -->
<g id="edge24" class="edge"><title>Node9&#45;&gt;Node8</title>
<path fill="none" stroke="midnightblue" d="M993.638,-289.869C1031.85,-290.3 1080.41,-290.848 1120.26,-291.297"/>
<polygon fill="midnightblue" stroke="midnightblue" points="993.189,-286.364 983.15,-289.751 993.11,-293.363 993.189,-286.364"/>
</g>
<!-- Node10&#45;&gt;Node1 -->
<g id="edge26" class="edge"><title>Node10&#45;&gt;Node1</title>
<path fill="none" stroke="#9a32cd" stroke-dasharray="5,2" d="M1740.65,-393.478C1730.21,-375.592 1712.47,-349.813 1690,-335.14 1653.9,-311.563 1626.18,-341.938 1596,-311.14 1571.4,-286.038 1602.58,-259.255 1578,-234.14 1570.96,-226.947 1561.71,-222.218 1552.05,-219.136"/>
<polygon fill="#9a32cd" stroke="#9a32cd" points="1737.74,-395.456 1745.67,-402.482 1743.85,-392.044 1737.74,-395.456"/>
<text text-anchor="middle" x="1643" y="-339.14" font-family="FreeSans" font-size="10.00"> zone_</text>
</g>
<!-- Node11 -->
<g id="node25" class="node"><title>Node11</title>
<a xlink:href="a00395.html" target="_top" xlink:title="Urho3D::WeakPtr\&lt; Urho3D\l::Zone \&gt;">
<polygon fill="none" stroke="red" points="1944,-396.14 1944,-430.14 2090,-430.14 2090,-396.14 1944,-396.14"/>
<text text-anchor="start" x="1952" y="-417.14" font-family="FreeSans" font-size="10.00">Urho3D::WeakPtr&lt; Urho3D</text>
<text text-anchor="middle" x="2017" y="-404.14" font-family="FreeSans" font-size="10.00">::Zone &gt;</text>
</a>
</g>
<!-- Node10&#45;&gt;Node11 -->
<g id="edge32" class="edge"><title>Node10&#45;&gt;Node11</title>
<path fill="none" stroke="#9a32cd" stroke-dasharray="5,2" d="M1803.72,-421.408C1806.52,-421.694 1809.29,-421.941 1812,-422.14 1862.53,-425.848 1875.39,-424.636 1926,-422.14 1931.71,-421.858 1937.61,-421.478 1943.54,-421.032"/>
<polygon fill="#9a32cd" stroke="#9a32cd" points="1803.91,-417.906 1793.57,-420.233 1803.1,-424.86 1803.91,-417.906"/>
<text text-anchor="middle" x="1869" y="-428.14" font-family="FreeSans" font-size="10.00"> ptr_</text>
</g>
<!-- Node11&#45;&gt;Node10 -->
<g id="edge30" class="edge"><title>Node11&#45;&gt;Node10</title>
<path fill="none" stroke="#9a32cd" stroke-dasharray="5,2" d="M1964.83,-392.8C1952.3,-388.797 1938.83,-385.2 1926,-383.14 1875.97,-375.107 1861.35,-371.662 1812,-383.14 1795.91,-386.883 1779.17,-395.504 1767.31,-402.549"/>
<polygon fill="#9a32cd" stroke="#9a32cd" points="1964.06,-396.23 1974.65,-396.076 1966.27,-389.59 1964.06,-396.23"/>
<text text-anchor="start" x="1812.5" y="-413.14" font-family="FreeSans" font-size="10.00"> lastAmbientEndZone</text>
<text text-anchor="middle" x="1869" y="-400.14" font-family="FreeSans" font-size="10.00">_</text>
<text text-anchor="middle" x="1869" y="-387.14" font-family="FreeSans" font-size="10.00">lastAmbientStartZone_</text>
</g>
<!-- Node12 -->
<g id="node28" class="node"><title>Node12</title>
<a xlink:href="a00325.html" target="_top" xlink:title="Urho3D::SharedPtr\&lt;\l Urho3D::Texture \&gt;">
<polygon fill="none" stroke="red" points="1442,-243.14 1442,-277.14 1558,-277.14 1558,-243.14 1442,-243.14"/>
<text text-anchor="start" x="1450" y="-264.14" font-family="FreeSans" font-size="10.00">Urho3D::SharedPtr&lt;</text>
<text text-anchor="middle" x="1500" y="-251.14" font-family="FreeSans" font-size="10.00"> Urho3D::Texture &gt;</text>
</a>
</g>
<!-- Node12&#45;&gt;Node10 -->
<g id="edge34" class="edge"><title>Node12&#45;&gt;Node10</title>
<path fill="none" stroke="#9a32cd" stroke-dasharray="5,2" d="M1567.34,-276.951C1571.26,-279.582 1574.88,-282.624 1578,-286.14 1604.23,-315.655 1568.02,-345.284 1596,-373.14 1626.21,-403.21 1648.87,-380.956 1690,-392.14 1700.92,-395.108 1712.71,-399.003 1723,-402.631"/>
<polygon fill="#9a32cd" stroke="#9a32cd" points="1568.75,-273.725 1558.32,-271.822 1565.28,-279.809 1568.75,-273.725"/>
<text text-anchor="middle" x="1643" y="-396.14" font-family="FreeSans" font-size="10.00"> zoneTexture_</text>
</g>
<!-- Node12&#45;&gt;Node18 -->
<g id="edge70" class="edge"><title>Node12&#45;&gt;Node18</title>
<path fill="none" stroke="#9a32cd" stroke-dasharray="5,2" d="M1568.4,-253.351C1614.18,-247.852 1669.66,-239.059 1690,-227.14 1716.65,-211.529 1736.5,-179.614 1745.56,-162.896"/>
<polygon fill="#9a32cd" stroke="#9a32cd" points="1567.72,-249.906 1558.19,-254.542 1568.53,-256.859 1567.72,-249.906"/>
<text text-anchor="middle" x="1643" y="-266.14" font-family="FreeSans" font-size="10.00"> shapeTexture_</text>
<text text-anchor="middle" x="1643" y="-253.14" font-family="FreeSans" font-size="10.00">rampTexture_</text>
</g>
<!-- Node13&#45;&gt;Node1 -->
<g id="edge76" class="edge"><title>Node13&#45;&gt;Node1</title>
<path fill="none" stroke="#9a32cd" stroke-dasharray="5,2" d="M1000.55,-477.676C1031.85,-475.85 1068.9,-472.671 1102,-467.14 1240.39,-444.014 1316.11,-484.516 1404,-375.14 1443.57,-325.894 1380.18,-281.494 1422,-234.14 1428.76,-226.491 1438,-221.577 1447.77,-218.462"/>
<polygon fill="#9a32cd" stroke="#9a32cd" points="999.965,-474.203 990.172,-478.245 1000.35,-481.193 999.965,-474.203"/>
<text text-anchor="middle" x="1195" y="-481.14" font-family="FreeSans" font-size="10.00"> worldBoundingBox_</text>
<text text-anchor="middle" x="1195" y="-468.14" font-family="FreeSans" font-size="10.00">boundingBox_</text>
</g>
<!-- Node13&#45;&gt;Node10 -->
<g id="edge36" class="edge"><title>Node13&#45;&gt;Node10</title>
<path fill="none" stroke="#9a32cd" stroke-dasharray="5,2" d="M1000.39,-485.848C1036.26,-488.404 1080.4,-491.08 1120,-492.14 1323.49,-497.587 1374.67,-496.95 1578,-487.14 1627.88,-484.734 1645,-499.801 1690,-478.14 1715.1,-466.057 1735.06,-438.831 1744.7,-423.73"/>
<polygon fill="#9a32cd" stroke="#9a32cd" points="1000.25,-482.329 990.023,-485.096 999.744,-489.311 1000.25,-482.329"/>
<text text-anchor="middle" x="1346" y="-499.14" font-family="FreeSans" font-size="10.00"> lastWorldBoundingBox_</text>
</g>
<!-- Node13&#45;&gt;Node23 -->
<g id="edge86" class="edge"><title>Node13&#45;&gt;Node23</title>
<path fill="none" stroke="#9a32cd" stroke-dasharray="5,2" d="M956.781,-464.563C971.633,-456.717 990.434,-447.538 1008,-441.14 1048.41,-426.422 1062.43,-434.994 1102,-418.14 1132.26,-405.253 1163.84,-383.049 1181.31,-369.866"/>
<polygon fill="#9a32cd" stroke="#9a32cd" points="954.788,-461.66 947.643,-469.483 958.107,-467.823 954.788,-461.66"/>
<text text-anchor="middle" x="1055" y="-458.14" font-family="FreeSans" font-size="10.00"> cullingBox_</text>
<text text-anchor="middle" x="1055" y="-445.14" font-family="FreeSans" font-size="10.00">worldBoundingBox_</text>
</g>
<!-- Node14 -->
<g id="node33" class="node"><title>Node14</title>
<a xlink:href="a00101.html" target="_top" xlink:title="RGBA color.">
<polygon fill="none" stroke="black" points="1458,-295.64 1458,-316.64 1542,-316.64 1542,-295.64 1458,-295.64"/>
<text text-anchor="middle" x="1500" y="-303.64" font-family="FreeSans" font-size="10.00">Urho3D::Color</text>
</a>
</g>
<!-- Node14&#45;&gt;Node10 -->
<g id="edge40" class="edge"><title>Node14&#45;&gt;Node10</title>
<path fill="none" stroke="#9a32cd" stroke-dasharray="5,2" d="M1511.32,-325.734C1526.84,-350.408 1557.24,-391.682 1596,-409.14 1631.34,-425.059 1675.97,-424.334 1708.25,-420.654"/>
<polygon fill="#9a32cd" stroke="#9a32cd" points="1514.13,-323.612 1505.95,-316.88 1508.15,-327.244 1514.13,-323.612"/>
<text text-anchor="middle" x="1643" y="-465.14" font-family="FreeSans" font-size="10.00"> ambientEndColor_</text>
<text text-anchor="middle" x="1643" y="-452.14" font-family="FreeSans" font-size="10.00">fogColor_</text>
<text text-anchor="middle" x="1643" y="-439.14" font-family="FreeSans" font-size="10.00">ambientColor_</text>
<text text-anchor="middle" x="1643" y="-426.14" font-family="FreeSans" font-size="10.00">ambientStartColor_</text>
</g>
<!-- Node14&#45;&gt;Node14 -->
<g id="edge42" class="edge"><title>Node14&#45;&gt;Node14</title>
<path fill="none" stroke="#9a32cd" stroke-dasharray="5,2" d="M1473.69,-326.195C1475.42,-331.304 1484.19,-335.14 1500,-335.14 1524.68,-335.14 1532.2,-325.793 1522.56,-316.848"/>
<polygon fill="#9a32cd" stroke="#9a32cd" points="1476.97,-327.432 1477.44,-316.848 1470.47,-324.829 1476.97,-327.432"/>
<text text-anchor="middle" x="1500" y="-469.14" font-family="FreeSans" font-size="10.00"> CYAN</text>
<text text-anchor="middle" x="1500" y="-456.14" font-family="FreeSans" font-size="10.00">GRAY</text>
<text text-anchor="middle" x="1500" y="-443.14" font-family="FreeSans" font-size="10.00">YELLOW</text>
<text text-anchor="middle" x="1500" y="-430.14" font-family="FreeSans" font-size="10.00">MAGENTA</text>
<text text-anchor="middle" x="1500" y="-417.14" font-family="FreeSans" font-size="10.00">WHITE</text>
<text text-anchor="middle" x="1500" y="-404.14" font-family="FreeSans" font-size="10.00">TRANSPARENT</text>
<text text-anchor="middle" x="1500" y="-391.14" font-family="FreeSans" font-size="10.00">BLUE</text>
<text text-anchor="middle" x="1500" y="-378.14" font-family="FreeSans" font-size="10.00">BLACK</text>
<text text-anchor="middle" x="1500" y="-365.14" font-family="FreeSans" font-size="10.00">RED</text>
<text text-anchor="middle" x="1500" y="-352.14" font-family="FreeSans" font-size="10.00">GREEN</text>
<text text-anchor="middle" x="1500" y="-339.14" font-family="FreeSans" font-size="10.00">...</text>
</g>
<!-- Node14&#45;&gt;Node18 -->
<g id="edge72" class="edge"><title>Node14&#45;&gt;Node18</title>
<path fill="none" stroke="#9a32cd" stroke-dasharray="5,2" d="M1552.55,-300.35C1604.9,-294.184 1679.04,-284.22 1690,-276.14 1728.82,-247.531 1744.29,-187.405 1749.14,-162.89"/>
<polygon fill="#9a32cd" stroke="#9a32cd" points="1551.92,-296.899 1542.39,-301.531 1552.73,-303.852 1551.92,-296.899"/>
<text text-anchor="middle" x="1643" y="-298.14" font-family="FreeSans" font-size="10.00"> color_</text>
</g>
<!-- Node15 -->
<g id="node37" class="node"><title>Node15</title>
<a xlink:href="a00272.html" target="_top" xlink:title="Urho3D::PODVector\&lt;\l Urho3D::Light * \&gt;">
<polygon fill="none" stroke="black" points="1135.5,-147.14 1135.5,-181.14 1254.5,-181.14 1254.5,-147.14 1135.5,-147.14"/>
<text text-anchor="start" x="1143.5" y="-168.14" font-family="FreeSans" font-size="10.00">Urho3D::PODVector&lt;</text>
<text text-anchor="middle" x="1195" y="-155.14" font-family="FreeSans" font-size="10.00"> Urho3D::Light * &gt;</text>
</a>
</g>
<!-- Node15&#45;&gt;Node1 -->
<g id="edge46" class="edge"><title>Node15&#45;&gt;Node1</title>
<path fill="none" stroke="#9a32cd" stroke-dasharray="5,2" d="M1265.11,-158.252C1306.17,-156.665 1358.7,-157.874 1404,-169.14 1412.68,-171.299 1413.94,-174.266 1422,-178.14 1440.28,-186.927 1461.15,-196.538 1476.7,-203.617"/>
<polygon fill="#9a32cd" stroke="#9a32cd" points="1264.76,-154.764 1254.93,-158.711 1265.08,-161.757 1264.76,-154.764"/>
<text text-anchor="middle" x="1346" y="-186.14" font-family="FreeSans" font-size="10.00"> vertexLights_</text>
<text text-anchor="middle" x="1346" y="-173.14" font-family="FreeSans" font-size="10.00">lights_</text>
</g>
<!-- Node20 -->
<g id="node49" class="node"><title>Node20</title>
<a xlink:href="a00200.html" target="_top" xlink:title="Queue for light related draw calls.">
<polygon fill="none" stroke="red" points="1946,-105.64 1946,-126.64 2088,-126.64 2088,-105.64 1946,-105.64"/>
<text text-anchor="middle" x="2017" y="-113.64" font-family="FreeSans" font-size="10.00">Urho3D::LightBatchQueue</text>
</a>
</g>
<!-- Node15&#45;&gt;Node20 -->
<g id="edge62" class="edge"><title>Node15&#45;&gt;Node20</title>
<path fill="none" stroke="#9a32cd" stroke-dasharray="5,2" d="M1221.51,-140.36C1261.54,-106.175 1341.35,-44.5712 1422,-20.1401 1639.3,45.6883 1915.73,-69.061 1994.91,-105.551"/>
<polygon fill="#9a32cd" stroke="#9a32cd" points="1219.09,-137.826 1213.81,-147.014 1223.67,-143.121 1219.09,-137.826"/>
<text text-anchor="middle" x="1643" y="-15.1401" font-family="FreeSans" font-size="10.00"> vertexLights_</text>
</g>
<!-- Node16 -->
<g id="node39" class="node"><title>Node16</title>
<a xlink:href="a00386.html" target="_top" xlink:title="Vector base class.">
<polygon fill="none" stroke="black" points="384,-177.64 384,-198.64 498,-198.64 498,-177.64 384,-177.64"/>
<text text-anchor="middle" x="441" y="-185.64" font-family="FreeSans" font-size="10.00">Urho3D::VectorBase</text>
</a>
</g>
<!-- Node16&#45;&gt;Node15 -->
<g id="edge48" class="edge"><title>Node16&#45;&gt;Node15</title>
<path fill="none" stroke="midnightblue" d="M508.384,-185.862C563.215,-184.018 642.604,-181.37 712,-179.14 864.4,-174.243 1043.86,-168.739 1135.14,-165.958"/>
<polygon fill="midnightblue" stroke="midnightblue" points="507.974,-182.374 498.097,-186.208 508.21,-189.37 507.974,-182.374"/>
</g>
<!-- Node17 -->
<g id="node41" class="node"><title>Node17</title>
<a xlink:href="a00382.html" target="_top" xlink:title="Urho3D::Vector\&lt; Urho3D\l::SourceBatch \&gt;">
<polygon fill="none" stroke="black" points="712,-188.14 712,-222.14 850,-222.14 850,-188.14 712,-188.14"/>
<text text-anchor="start" x="720" y="-209.14" font-family="FreeSans" font-size="10.00">Urho3D::Vector&lt; Urho3D</text>
<text text-anchor="middle" x="781" y="-196.14" font-family="FreeSans" font-size="10.00">::SourceBatch &gt;</text>
</a>
</g>
<!-- Node16&#45;&gt;Node17 -->
<g id="edge52" class="edge"><title>Node16&#45;&gt;Node17</title>
<path fill="none" stroke="midnightblue" d="M508.598,-191.52C567.441,-194.462 652.375,-198.709 711.712,-201.676"/>
<polygon fill="midnightblue" stroke="midnightblue" points="508.454,-188.009 498.292,-191.005 508.105,-195 508.454,-188.009"/>
</g>
<!-- Node24 -->
<g id="node63" class="node"><title>Node24</title>
<a xlink:href="a00272.html" target="_top" xlink:title="Urho3D::PODVector\&lt;\l Urho3D::Drawable * \&gt;">
<polygon fill="none" stroke="black" points="568,-288.14 568,-322.14 694,-322.14 694,-288.14 568,-288.14"/>
<text text-anchor="start" x="576" y="-309.14" font-family="FreeSans" font-size="10.00">Urho3D::PODVector&lt;</text>
<text text-anchor="middle" x="631" y="-296.14" font-family="FreeSans" font-size="10.00"> Urho3D::Drawable * &gt;</text>
</a>
</g>
<!-- Node16&#45;&gt;Node24 -->
<g id="edge82" class="edge"><title>Node16&#45;&gt;Node24</title>
<path fill="none" stroke="midnightblue" d="M463.928,-204.703C488.958,-222.493 530.484,-251.164 568,-273.14 576.786,-278.287 586.497,-283.46 595.61,-288.101"/>
<polygon fill="midnightblue" stroke="midnightblue" points="465.662,-201.64 455.491,-198.674 461.592,-207.335 465.662,-201.64"/>
</g>
<!-- Node17&#45;&gt;Node1 -->
<g id="edge50" class="edge"><title>Node17&#45;&gt;Node1</title>
<path fill="none" stroke="#9a32cd" stroke-dasharray="5,2" d="M860.649,-206.137C1008.89,-207.993 1323.37,-211.929 1447.77,-213.486"/>
<polygon fill="#9a32cd" stroke="#9a32cd" points="860.31,-202.633 850.267,-206.007 860.222,-209.632 860.31,-202.633"/>
<text text-anchor="middle" x="1055" y="-213.14" font-family="FreeSans" font-size="10.00"> batches_</text>
</g>
<!-- Node18&#45;&gt;Node1 -->
<g id="edge54" class="edge"><title>Node18&#45;&gt;Node1</title>
<path fill="none" stroke="#9a32cd" stroke-dasharray="5,2" d="M1730.09,-168.848C1718.85,-176.931 1704.38,-185.979 1690,-191.14 1645.28,-207.194 1591.24,-212.489 1552.24,-214.036"/>
<polygon fill="#9a32cd" stroke="#9a32cd" points="1732.44,-171.461 1738.34,-162.665 1728.24,-165.858 1732.44,-171.461"/>
<text text-anchor="middle" x="1643" y="-214.14" font-family="FreeSans" font-size="10.00"> firstLight_</text>
</g>
<!-- Node18&#45;&gt;Node20 -->
<g id="edge64" class="edge"><title>Node18&#45;&gt;Node20</title>
<path fill="none" stroke="#9a32cd" stroke-dasharray="5,2" d="M1770.91,-135.278C1782.19,-126.847 1797,-117.525 1812,-113.14 1857.78,-99.7563 1911.8,-101.206 1952.89,-105.627"/>
<polygon fill="#9a32cd" stroke="#9a32cd" points="1768.74,-132.53 1763.04,-141.455 1773.06,-138.038 1768.74,-132.53"/>
<text text-anchor="middle" x="1869" y="-117.14" font-family="FreeSans" font-size="10.00"> light_</text>
</g>
<!-- Node19 -->
<g id="node47" class="node"><title>Node19</title>
<a xlink:href="a00090.html" target="_top" xlink:title="Cascaded shadow map parameters.">
<polygon fill="none" stroke="black" points="1422,-29.6401 1422,-50.6401 1578,-50.6401 1578,-29.6401 1422,-29.6401"/>
<text text-anchor="middle" x="1500" y="-37.6401" font-family="FreeSans" font-size="10.00">Urho3D::CascadeParameters</text>
</a>
</g>
<!-- Node19&#45;&gt;Node18 -->
<g id="edge58" class="edge"><title>Node19&#45;&gt;Node18</title>
<path fill="none" stroke="#9a32cd" stroke-dasharray="5,2" d="M1588.73,-32.0876C1622.54,-32.9603 1660.09,-39.025 1690,-57.1401 1722.52,-76.8402 1740.78,-121.239 1747.72,-141.589"/>
<polygon fill="#9a32cd" stroke="#9a32cd" points="1588.41,-28.5841 1578.37,-31.9759 1588.33,-35.5836 1588.41,-28.5841"/>
<text text-anchor="middle" x="1643" y="-61.1401" font-family="FreeSans" font-size="10.00"> shadowCascade_</text>
</g>
<!-- Node20&#45;&gt;Node18 -->
<g id="edge60" class="edge"><title>Node20&#45;&gt;Node18</title>
<path fill="none" stroke="#9a32cd" stroke-dasharray="5,2" d="M1939.74,-128.177C1935.09,-128.854 1930.48,-129.513 1926,-130.14 1880.51,-136.497 1828.25,-142.958 1792.77,-147.218"/>
<polygon fill="#9a32cd" stroke="#9a32cd" points="1940.56,-131.593 1949.94,-126.671 1939.54,-124.668 1940.56,-131.593"/>
<text text-anchor="middle" x="1869" y="-149.14" font-family="FreeSans" font-size="10.00"> lightQueue_</text>
</g>
<!-- Node21 -->
<g id="node53" class="node"><title>Node21</title>
<a xlink:href="a00160.html" target="_top" xlink:title="Shadow map focusing parameters.">
<polygon fill="none" stroke="black" points="1428.5,-147.64 1428.5,-168.64 1571.5,-168.64 1571.5,-147.64 1428.5,-147.64"/>
<text text-anchor="middle" x="1500" y="-155.64" font-family="FreeSans" font-size="10.00">Urho3D::FocusParameters</text>
</a>
</g>
<!-- Node21&#45;&gt;Node18 -->
<g id="edge66" class="edge"><title>Node21&#45;&gt;Node18</title>
<path fill="none" stroke="#9a32cd" stroke-dasharray="5,2" d="M1581.59,-153.636C1586.46,-153.446 1591.3,-153.278 1596,-153.14 1634.33,-152.019 1678.02,-151.836 1709.22,-151.894"/>
<polygon fill="#9a32cd" stroke="#9a32cd" points="1581.39,-150.141 1571.54,-154.054 1581.68,-157.135 1581.39,-150.141"/>
<text text-anchor="middle" x="1643" y="-157.14" font-family="FreeSans" font-size="10.00"> shadowFocus_</text>
</g>
<!-- Node22 -->
<g id="node55" class="node"><title>Node22</title>
<a xlink:href="a00080.html" target="_top" xlink:title="Shadow depth bias parameters.">
<polygon fill="none" stroke="black" points="1432.5,-69.6401 1432.5,-90.6401 1567.5,-90.6401 1567.5,-69.6401 1432.5,-69.6401"/>
<text text-anchor="middle" x="1500" y="-77.6401" font-family="FreeSans" font-size="10.00">Urho3D::BiasParameters</text>
</a>
</g>
<!-- Node22&#45;&gt;Node18 -->
<g id="edge68" class="edge"><title>Node22&#45;&gt;Node18</title>
<path fill="none" stroke="#9a32cd" stroke-dasharray="5,2" d="M1578.14,-72.9401C1613.66,-72.664 1655.39,-76.6808 1690,-92.1401 1713.87,-102.803 1733.75,-127.164 1743.85,-141.348"/>
<polygon fill="#9a32cd" stroke="#9a32cd" points="1577.74,-69.4471 1567.81,-73.1405 1577.88,-76.4458 1577.74,-69.4471"/>
<text text-anchor="middle" x="1643" y="-96.1401" font-family="FreeSans" font-size="10.00"> shadowBias_</text>
</g>
<!-- Node23&#45;&gt;Node1 -->
<g id="edge78" class="edge"><title>Node23&#45;&gt;Node1</title>
<path fill="none" stroke="#9a32cd" stroke-dasharray="5,2" d="M1251.17,-361.571C1298.27,-360.434 1364.07,-350.916 1404,-311.14 1428.9,-286.337 1397.42,-259.255 1422,-234.14 1429.04,-226.947 1438.29,-222.218 1447.95,-219.136"/>
<polygon fill="#9a32cd" stroke="#9a32cd" points="1251.08,-358.072 1241.12,-361.694 1251.16,-365.071 1251.08,-358.072"/>
<text text-anchor="middle" x="1346" y="-362.14" font-family="FreeSans" font-size="10.00"> octant_</text>
</g>
<!-- Node23&#45;&gt;Node23 -->
<g id="edge96" class="edge"><title>Node23&#45;&gt;Node23</title>
<path fill="none" stroke="#9a32cd" stroke-dasharray="5,2" d="M1169.06,-379.195C1170.76,-384.304 1179.41,-388.14 1195,-388.14 1219.34,-388.14 1226.75,-378.793 1217.24,-369.848"/>
<polygon fill="#9a32cd" stroke="#9a32cd" points="1172.34,-380.434 1172.76,-369.848 1165.83,-377.862 1172.34,-380.434"/>
<text text-anchor="middle" x="1195" y="-405.14" font-family="FreeSans" font-size="10.00"> parent_</text>
<text text-anchor="middle" x="1195" y="-392.14" font-family="FreeSans" font-size="10.00">children_</text>
</g>
<!-- Node23&#45;&gt;Node25 -->
<g id="edge92" class="edge"><title>Node23&#45;&gt;Node25</title>
<path fill="none" stroke="midnightblue" d="M1138.63,-355.645C1101.44,-353.013 1051.71,-348.871 1008,-343.14 997.366,-341.746 985.982,-339.924 975.261,-338.057"/>
<polygon fill="midnightblue" stroke="midnightblue" points="1138.55,-359.148 1148.77,-356.347 1139.03,-352.164 1138.55,-359.148"/>
</g>
<!-- Node24&#45;&gt;Node23 -->
<g id="edge80" class="edge"><title>Node24&#45;&gt;Node23</title>
<path fill="none" stroke="#9a32cd" stroke-dasharray="5,2" d="M652.586,-329.8C667.539,-344.92 688.86,-362.906 712,-371.14 791.421,-399.4 1043.88,-375.885 1148.69,-364.477"/>
<polygon fill="#9a32cd" stroke="#9a32cd" points="654.801,-327.051 645.371,-322.222 649.731,-331.878 654.801,-327.051"/>
<text text-anchor="middle" x="929" y="-388.14" font-family="FreeSans" font-size="10.00"> drawables_</text>
</g>
<!-- Node24&#45;&gt;Node25 -->
<g id="edge94" class="edge"><title>Node24&#45;&gt;Node25</title>
<path fill="none" stroke="#9a32cd" stroke-dasharray="5,2" d="M704.156,-300.412C746.897,-298.908 801.753,-299.147 850,-306.14 866.823,-308.578 885.076,-313.72 899.795,-318.524"/>
<polygon fill="#9a32cd" stroke="#9a32cd" points="703.975,-296.916 694.12,-300.805 704.249,-303.911 703.975,-296.916"/>
<text text-anchor="start" x="729" y="-362.14" font-family="FreeSans" font-size="10.00"> drawableReinsertions</text>
<text text-anchor="middle" x="781" y="-349.14" font-family="FreeSans" font-size="10.00">_</text>
<text text-anchor="start" x="729" y="-336.14" font-family="FreeSans" font-size="10.00">drawableUpdates</text>
<text text-anchor="middle" x="781" y="-323.14" font-family="FreeSans" font-size="10.00">_</text>
<text text-anchor="middle" x="781" y="-310.14" font-family="FreeSans" font-size="10.00">rayQueryDrawables_</text>
</g>
<!-- Node25&#45;&gt;Node23 -->
<g id="edge88" class="edge"><title>Node25&#45;&gt;Node23</title>
<path fill="none" stroke="#9a32cd" stroke-dasharray="5,2" d="M985.396,-325.276C1019.38,-323.985 1063.4,-324.148 1102,-330.14 1125.06,-333.721 1150.29,-341.868 1168.64,-348.618"/>
<polygon fill="#9a32cd" stroke="#9a32cd" points="985.029,-321.789 975.19,-325.719 985.332,-328.782 985.029,-321.789"/>
<text text-anchor="middle" x="1055" y="-334.14" font-family="FreeSans" font-size="10.00"> root_</text>
</g>
</g>
</svg>
