<?xml version="1.0" encoding="UTF-8" standalone="no"?>
<!DOCTYPE svg PUBLIC "-//W3C//DTD SVG 1.1//EN"
 "http://www.w3.org/Graphics/SVG/1.1/DTD/svg11.dtd">
<!-- Generated by graphviz version 2.26.3 (20100126.1600)
 -->
<!-- Title: Urho3D::FileSystem Pages: 1 -->
<!--zoomable 855 -->
<svg id="main" version="1.1" xmlns="http://www.w3.org/2000/svg" xmlns:xlink="http://www.w3.org/1999/xlink" xml:space="preserve" onload="init(evt)">
        <defs>
                <circle id="rim" cx="0" cy="0" r="7"/>
                <circle id="rim2" cx="0" cy="0" r="3.5"/>
                <g id="zoomPlus">
                        <use xlink:href="#rim" fill="#404040">
                                <set attributeName="fill" to="#808080" begin="zoomplus.mouseover" end="zoomplus.mouseout"/>
                        </use>
                        <path d="M-4,0h8M0,-4v8" fill="none" stroke="white" stroke-width="1.5" pointer-events="none"/>
                </g>
                <g id="zoomMin">
                        <use xlink:href="#rim" fill="#404040">
                                <set attributeName="fill" to="#808080" begin="zoomminus.mouseover" end="zoomminus.mouseout"/>
                        </use>
                        <path d="M-4,0h8" fill="none" stroke="white" stroke-width="1.5" pointer-events="none"/>
                </g>
                <g id="dirArrow">
                        <path fill="none" stroke="white" stroke-width="1.5" d="M0,-3.0v7 M-2.5,-0.5L0,-3.0L2.5,-0.5"/>
                </g>
               <g id="resetDef">
                       <use xlink:href="#rim2" fill="#404040">
                               <set attributeName="fill" to="#808080" begin="reset.mouseover" end="reset.mouseout"/>
                       </use>
               </g>
        </defs>

<script type="text/javascript">
var viewWidth = 1178;
var viewHeight = 855;
var sectionId = 'dynsection-1';
</script>
<script xlink:href="svgpan.js"/>
<svg id="graph" class="graph">
<g id="viewport">
<title>Urho3D::FileSystem</title>
<!-- Node1 -->
<g id="node1" class="node"><title>Node1</title>
<polygon fill="#bfbfbf" stroke="black" points="1041.5,-786.365 1041.5,-807.365 1152.5,-807.365 1152.5,-786.365 1041.5,-786.365"/>
<text text-anchor="middle" x="1097" y="-794.365" font-family="FreeSans" font-size="10.00">Urho3D::FileSystem</text>
</g>
<!-- Node2 -->
<g id="node2" class="node"><title>Node2</title>
<a xlink:href="a00200.html" target="_top" xlink:title="Base class for objects with type identification, subsystem access and event sending/receiving capabil...">
<polygon fill="none" stroke="black" points="455,-668.365 455,-689.365 545,-689.365 545,-668.365 455,-668.365"/>
<text text-anchor="middle" x="500" y="-676.365" font-family="FreeSans" font-size="10.00">Urho3D::Object</text>
</a>
</g>
<!-- Node2&#45;&gt;Node1 -->
<g id="edge2" class="edge"><title>Node2&#45;&gt;Node1</title>
<path fill="none" stroke="midnightblue" d="M513.574,-697.723C538.317,-730.276 594.305,-795.917 660,-820.865 802.421,-874.95 989.812,-829.594 1064.37,-807.386"/>
<polygon fill="midnightblue" stroke="midnightblue" points="516.219,-695.415 507.442,-689.481 510.603,-699.593 516.219,-695.415"/>
</g>
<!-- Node15 -->
<g id="node34" class="node"><title>Node15</title>
<a xlink:href="a00118.html" target="_top" xlink:title="Internal helper class for invoking event handler functions.">
<polygon fill="none" stroke="black" points="704,-621.365 704,-642.365 828,-642.365 828,-621.365 704,-621.365"/>
<text text-anchor="middle" x="766" y="-629.365" font-family="FreeSans" font-size="10.00">Urho3D::EventHandler</text>
</a>
</g>
<!-- Node2&#45;&gt;Node15 -->
<g id="edge46" class="edge"><title>Node2&#45;&gt;Node15</title>
<path fill="none" stroke="#9a32cd" stroke-dasharray="5,2" d="M548.491,-664.642C554.569,-662.092 560.556,-659.173 566,-655.865 575.404,-650.15 573.855,-643.126 584,-638.865 621.608,-623.069 667.528,-621.415 703.833,-623.661"/>
<polygon fill="#9a32cd" stroke="#9a32cd" points="546.989,-661.47 538.93,-668.348 549.519,-667.997 546.989,-661.47"/>
<text text-anchor="middle" x="613" y="-655.865" font-family="FreeSans" font-size="10.00"> sender_</text>
<text text-anchor="middle" x="613" y="-642.865" font-family="FreeSans" font-size="10.00">receiver_</text>
</g>
<!-- Node3 -->
<g id="node4" class="node"><title>Node3</title>
<a xlink:href="a00234.html" target="_top" xlink:title="Base class for intrusively reference&#45;counted objects. These are noncopyable and non&#45;assignable.">
<polygon fill="none" stroke="black" points="224,-404.365 224,-425.365 338,-425.365 338,-404.365 224,-404.365"/>
<text text-anchor="middle" x="281" y="-412.365" font-family="FreeSans" font-size="10.00">Urho3D::RefCounted</text>
</a>
</g>
<!-- Node3&#45;&gt;Node2 -->
<g id="edge4" class="edge"><title>Node3&#45;&gt;Node2</title>
<path fill="none" stroke="midnightblue" d="M342.682,-430.596C344.551,-431.907 346.332,-433.327 348,-434.865 425.484,-506.312 358.152,-582.683 434,-655.865 439.851,-661.51 447.16,-665.775 454.763,-668.997"/>
<polygon fill="midnightblue" stroke="midnightblue" points="344.399,-427.546 334,-425.518 340.865,-433.588 344.399,-427.546"/>
</g>
<!-- Node5 -->
<g id="node8" class="node"><title>Node5</title>
<a xlink:href="a00095.html" target="_top" xlink:title="Urho3D execution context. Provides access to subsystems, object factories and attributes, and event receivers.">
<polygon fill="none" stroke="black" points="1048.5,-331.365 1048.5,-352.365 1145.5,-352.365 1145.5,-331.365 1048.5,-331.365"/>
<text text-anchor="middle" x="1097" y="-339.365" font-family="FreeSans" font-size="10.00">Urho3D::Context</text>
</a>
</g>
<!-- Node3&#45;&gt;Node5 -->
<g id="edge10" class="edge"><title>Node3&#45;&gt;Node5</title>
<path fill="none" stroke="midnightblue" d="M343.484,-398.824C345.073,-397.599 346.584,-396.282 348,-394.865 359.84,-383.015 420.706,-116.057 434,-105.865 636.053,49.0329 813.127,29.3235 1006,-136.865 1068.83,-191.005 1090.11,-296.969 1095.48,-331.039"/>
<polygon fill="midnightblue" stroke="midnightblue" points="341.554,-395.903 334.976,-404.208 345.297,-401.818 341.554,-395.903"/>
</g>
<!-- Node4 -->
<g id="node6" class="node"><title>Node4</title>
<a xlink:href="a00233.html" target="_top" xlink:title="Reference count structure.">
<polygon fill="none" stroke="black" points="13,-404.365 13,-425.365 115,-425.365 115,-404.365 13,-404.365"/>
<text text-anchor="middle" x="64" y="-412.365" font-family="FreeSans" font-size="10.00">Urho3D::RefCount</text>
</a>
</g>
<!-- Node4&#45;&gt;Node3 -->
<g id="edge6" class="edge"><title>Node4&#45;&gt;Node3</title>
<path fill="none" stroke="#9a32cd" stroke-dasharray="5,2" d="M125.358,-414.865C156.225,-414.865 193.412,-414.865 223.695,-414.865"/>
<polygon fill="#9a32cd" stroke="#9a32cd" points="125.151,-411.365 115.151,-414.865 125.151,-418.365 125.151,-411.365"/>
<text text-anchor="middle" x="171" y="-418.865" font-family="FreeSans" font-size="10.00"> refCount_</text>
</g>
<!-- Node5&#45;&gt;Node2 -->
<g id="edge8" class="edge"><title>Node5&#45;&gt;Node2</title>
<path fill="none" stroke="#9a32cd" stroke-dasharray="5,2" d="M1094.33,-362.731C1085.5,-428.077 1054.99,-626.694 1006,-664.865 996.977,-671.895 667.792,-676.752 545.304,-678.319"/>
<polygon fill="#9a32cd" stroke="#9a32cd" points="1097.84,-362.838 1095.68,-352.465 1090.9,-361.921 1097.84,-362.838"/>
<text text-anchor="middle" x="766" y="-679.865" font-family="FreeSans" font-size="10.00"> context_</text>
</g>
<!-- Node6 -->
<g id="node11" class="node"><title>Node6</title>
<a xlink:href="a00141.html" target="_top" xlink:title="Urho3D::HashMap\&lt; Urho3D\l::ShortStringHash, Urho3D\l::Vector\&lt; Urho3D::AttributeInfo \&gt; \&gt;">
<polygon fill="none" stroke="black" points="671.5,-161.365 671.5,-208.365 860.5,-208.365 860.5,-161.365 671.5,-161.365"/>
<text text-anchor="start" x="679.5" y="-195.365" font-family="FreeSans" font-size="10.00">Urho3D::HashMap&lt; Urho3D</text>
<text text-anchor="start" x="679.5" y="-182.365" font-family="FreeSans" font-size="10.00">::ShortStringHash, Urho3D</text>
<text text-anchor="middle" x="766" y="-169.365" font-family="FreeSans" font-size="10.00">::Vector&lt; Urho3D::AttributeInfo &gt; &gt;</text>
</a>
</g>
<!-- Node6&#45;&gt;Node5 -->
<g id="edge12" class="edge"><title>Node6&#45;&gt;Node5</title>
<path fill="none" stroke="#9a32cd" stroke-dasharray="5,2" d="M870.533,-198.859C914.521,-207.958 964.918,-222.802 1006,-246.865 1043.84,-269.027 1076.11,-311.384 1089.88,-331.177"/>
<polygon fill="#9a32cd" stroke="#9a32cd" points="871.161,-195.415 860.669,-196.891 869.791,-202.28 871.161,-195.415"/>
<text text-anchor="middle" x="948" y="-263.865" font-family="FreeSans" font-size="10.00"> attributes_</text>
<text text-anchor="middle" x="948" y="-250.865" font-family="FreeSans" font-size="10.00">networkAttributes_</text>
</g>
<!-- Node7 -->
<g id="node13" class="node"><title>Node7</title>
<a xlink:href="a00139.html" target="_top" xlink:title="Hash set/map base class.">
<polygon fill="none" stroke="black" points="446,-378.365 446,-399.365 554,-399.365 554,-378.365 446,-378.365"/>
<text text-anchor="middle" x="500" y="-386.365" font-family="FreeSans" font-size="10.00">Urho3D::HashBase</text>
</a>
</g>
<!-- Node7&#45;&gt;Node6 -->
<g id="edge14" class="edge"><title>Node7&#45;&gt;Node6</title>
<path fill="none" stroke="midnightblue" d="M512.427,-369.466C536.411,-333.672 592.703,-257.304 660,-217.865 665.903,-214.405 672.208,-211.271 678.688,-208.437"/>
<polygon fill="midnightblue" stroke="midnightblue" points="509.361,-367.757 506.786,-378.034 515.208,-371.606 509.361,-367.757"/>
</g>
<!-- Node13 -->
<g id="node28" class="node"><title>Node13</title>
<a xlink:href="a00141.html" target="_top" xlink:title="Urho3D::HashMap\&lt; Urho3D\l::ShortStringHash, Urho3D\l::SharedPtr\&lt; Urho3D::Object \&gt; \&gt;">
<polygon fill="none" stroke="black" points="677,-503.365 677,-550.365 855,-550.365 855,-503.365 677,-503.365"/>
<text text-anchor="start" x="685" y="-537.365" font-family="FreeSans" font-size="10.00">Urho3D::HashMap&lt; Urho3D</text>
<text text-anchor="start" x="685" y="-524.365" font-family="FreeSans" font-size="10.00">::ShortStringHash, Urho3D</text>
<text text-anchor="middle" x="766" y="-511.365" font-family="FreeSans" font-size="10.00">::SharedPtr&lt; Urho3D::Object &gt; &gt;</text>
</a>
</g>
<!-- Node7&#45;&gt;Node13 -->
<g id="edge34" class="edge"><title>Node7&#45;&gt;Node13</title>
<path fill="none" stroke="midnightblue" d="M521.331,-405.681C550.967,-428.365 606.954,-468.809 660,-493.865 667.145,-497.24 674.721,-500.38 682.405,-503.275"/>
<polygon fill="midnightblue" stroke="midnightblue" points="523.405,-402.86 513.353,-399.514 519.124,-408.399 523.405,-402.86"/>
</g>
<!-- Node14 -->
<g id="node31" class="node"><title>Node14</title>
<a xlink:href="a00141.html" target="_top" xlink:title="Urho3D::HashMap\&lt; Urho3D\l::String, Urho3D::Vector\l\&lt; Urho3D::ShortStringHash \&gt; \&gt;">
<polygon fill="none" stroke="black" points="679.5,-437.365 679.5,-484.365 852.5,-484.365 852.5,-437.365 679.5,-437.365"/>
<text text-anchor="start" x="687.5" y="-471.365" font-family="FreeSans" font-size="10.00">Urho3D::HashMap&lt; Urho3D</text>
<text text-anchor="start" x="687.5" y="-458.365" font-family="FreeSans" font-size="10.00">::String, Urho3D::Vector</text>
<text text-anchor="middle" x="766" y="-445.365" font-family="FreeSans" font-size="10.00">&lt; Urho3D::ShortStringHash &gt; &gt;</text>
</a>
</g>
<!-- Node7&#45;&gt;Node14 -->
<g id="edge38" class="edge"><title>Node7&#45;&gt;Node14</title>
<path fill="none" stroke="midnightblue" d="M548.848,-402.087C585.301,-411.954 636.07,-425.696 679.352,-437.411"/>
<polygon fill="midnightblue" stroke="midnightblue" points="549.531,-398.646 538.964,-399.411 547.702,-405.403 549.531,-398.646"/>
</g>
<!-- Node18 -->
<g id="node43" class="node"><title>Node18</title>
<a xlink:href="a00141.html" target="_top" xlink:title="Urho3D::HashMap\&lt; Urho3D\l::StringHash, Urho3D::\lHashSet\&lt; Urho3D::Object * \&gt; \&gt;">
<polygon fill="none" stroke="black" points="679.5,-293.365 679.5,-340.365 852.5,-340.365 852.5,-293.365 679.5,-293.365"/>
<text text-anchor="start" x="687.5" y="-327.365" font-family="FreeSans" font-size="10.00">Urho3D::HashMap&lt; Urho3D</text>
<text text-anchor="start" x="687.5" y="-314.365" font-family="FreeSans" font-size="10.00">::StringHash, Urho3D::</text>
<text text-anchor="middle" x="766" y="-301.365" font-family="FreeSans" font-size="10.00">HashSet&lt; Urho3D::Object * &gt; &gt;</text>
</a>
</g>
<!-- Node7&#45;&gt;Node18 -->
<g id="edge54" class="edge"><title>Node7&#45;&gt;Node18</title>
<path fill="none" stroke="midnightblue" d="M548.848,-375.643C585.301,-365.776 636.07,-352.034 679.352,-340.318"/>
<polygon fill="midnightblue" stroke="midnightblue" points="547.702,-372.327 538.964,-378.318 549.531,-379.084 547.702,-372.327"/>
</g>
<!-- Node19 -->
<g id="node46" class="node"><title>Node19</title>
<a xlink:href="a00141.html" target="_top" xlink:title="Urho3D::HashMap\&lt; Urho3D\l::Object *, Urho3D::HashMap\l\&lt; Urho3D::StringHash, Urho3D\l::HashSet\&lt; Urho3D::Object * \&gt; \&gt; \&gt;">
<polygon fill="none" stroke="black" points="670.5,-358.865 670.5,-418.865 861.5,-418.865 861.5,-358.865 670.5,-358.865"/>
<text text-anchor="start" x="678.5" y="-405.865" font-family="FreeSans" font-size="10.00">Urho3D::HashMap&lt; Urho3D</text>
<text text-anchor="start" x="678.5" y="-392.865" font-family="FreeSans" font-size="10.00">::Object *, Urho3D::HashMap</text>
<text text-anchor="start" x="678.5" y="-379.865" font-family="FreeSans" font-size="10.00">&lt; Urho3D::StringHash, Urho3D</text>
<text text-anchor="middle" x="766" y="-366.865" font-family="FreeSans" font-size="10.00">::HashSet&lt; Urho3D::Object * &gt; &gt; &gt;</text>
</a>
</g>
<!-- Node7&#45;&gt;Node19 -->
<g id="edge58" class="edge"><title>Node7&#45;&gt;Node19</title>
<path fill="none" stroke="midnightblue" d="M564.224,-388.865C596.081,-388.865 635.201,-388.865 670.487,-388.865"/>
<polygon fill="midnightblue" stroke="midnightblue" points="564.15,-385.365 554.15,-388.865 564.15,-392.365 564.15,-385.365"/>
</g>
<!-- Node20 -->
<g id="node49" class="node"><title>Node20</title>
<a xlink:href="a00141.html" target="_top" xlink:title="Urho3D::HashMap\&lt; Urho3D\l::ShortStringHash, Urho3D\l::SharedPtr\&lt; Urho3D::ObjectFactory \&gt; \&gt;">
<polygon fill="none" stroke="black" points="660,-227.365 660,-274.365 872,-274.365 872,-227.365 660,-227.365"/>
<text text-anchor="start" x="668" y="-261.365" font-family="FreeSans" font-size="10.00">Urho3D::HashMap&lt; Urho3D</text>
<text text-anchor="start" x="668" y="-248.365" font-family="FreeSans" font-size="10.00">::ShortStringHash, Urho3D</text>
<text text-anchor="middle" x="766" y="-235.365" font-family="FreeSans" font-size="10.00">::SharedPtr&lt; Urho3D::ObjectFactory &gt; &gt;</text>
</a>
</g>
<!-- Node7&#45;&gt;Node20 -->
<g id="edge62" class="edge"><title>Node7&#45;&gt;Node20</title>
<path fill="none" stroke="midnightblue" d="M521.331,-372.049C550.967,-349.364 606.954,-308.921 660,-283.865 667.145,-280.49 674.721,-277.349 682.405,-274.455"/>
<polygon fill="midnightblue" stroke="midnightblue" points="519.124,-369.331 513.353,-378.216 523.405,-374.869 519.124,-369.331"/>
</g>
<!-- Node23 -->
<g id="node58" class="node"><title>Node23</title>
<a xlink:href="a00143.html" target="_top" xlink:title="Urho3D::HashSet\&lt; Urho3D\l::String \&gt;">
<polygon fill="none" stroke="black" points="691.5,-568.865 691.5,-602.865 840.5,-602.865 840.5,-568.865 691.5,-568.865"/>
<text text-anchor="start" x="699.5" y="-589.865" font-family="FreeSans" font-size="10.00">Urho3D::HashSet&lt; Urho3D</text>
<text text-anchor="middle" x="766" y="-576.865" font-family="FreeSans" font-size="10.00">::String &gt;</text>
</a>
</g>
<!-- Node7&#45;&gt;Node23 -->
<g id="edge74" class="edge"><title>Node7&#45;&gt;Node23</title>
<path fill="none" stroke="midnightblue" d="M512.348,-408.399C536.203,-444.418 592.288,-521.144 660,-559.865 669.623,-565.367 680.383,-569.713 691.258,-573.143"/>
<polygon fill="midnightblue" stroke="midnightblue" points="515.126,-406.25 506.74,-399.775 509.257,-410.066 515.126,-406.25"/>
</g>
<!-- Node8 -->
<g id="node15" class="node"><title>Node8</title>
<a xlink:href="a00142.html" target="_top" xlink:title="Hash set/map node base class.">
<polygon fill="none" stroke="black" points="214,-307.365 214,-328.365 348,-328.365 348,-307.365 214,-307.365"/>
<text text-anchor="middle" x="281" y="-315.365" font-family="FreeSans" font-size="10.00">Urho3D::HashNodeBase</text>
</a>
</g>
<!-- Node8&#45;&gt;Node7 -->
<g id="edge16" class="edge"><title>Node8&#45;&gt;Node7</title>
<path fill="none" stroke="#9a32cd" stroke-dasharray="5,2" d="M323.468,-331.633C365.541,-345.273 429.074,-365.871 467.348,-378.279"/>
<polygon fill="#9a32cd" stroke="#9a32cd" points="324.379,-328.249 313.787,-328.494 322.22,-334.908 324.379,-328.249"/>
<text text-anchor="middle" x="391" y="-389.865" font-family="FreeSans" font-size="10.00"> ptrs_</text>
<text text-anchor="middle" x="391" y="-376.865" font-family="FreeSans" font-size="10.00">tail_</text>
<text text-anchor="middle" x="391" y="-363.865" font-family="FreeSans" font-size="10.00">head_</text>
</g>
<!-- Node8&#45;&gt;Node8 -->
<g id="edge18" class="edge"><title>Node8&#45;&gt;Node8</title>
<path fill="none" stroke="#9a32cd" stroke-dasharray="5,2" d="M260.728,-338.291C262.292,-343.214 269.049,-346.865 281,-346.865 300.121,-346.865 305.947,-337.518 298.478,-328.573"/>
<polygon fill="#9a32cd" stroke="#9a32cd" points="264.123,-339.151 263.522,-328.573 257.395,-337.216 264.123,-339.151"/>
<text text-anchor="middle" x="281" y="-376.865" font-family="FreeSans" font-size="10.00"> next_</text>
<text text-anchor="middle" x="281" y="-363.865" font-family="FreeSans" font-size="10.00">prev_</text>
<text text-anchor="middle" x="281" y="-350.865" font-family="FreeSans" font-size="10.00">down_</text>
</g>
<!-- Node9 -->
<g id="node18" class="node"><title>Node9</title>
<a xlink:href="a00047.html" target="_top" xlink:title="Allocator memory block.">
<polygon fill="none" stroke="black" points="217.5,-444.365 217.5,-465.365 344.5,-465.365 344.5,-444.365 217.5,-444.365"/>
<text text-anchor="middle" x="281" y="-452.365" font-family="FreeSans" font-size="10.00">Urho3D::AllocatorBlock</text>
</a>
</g>
<!-- Node9&#45;&gt;Node7 -->
<g id="edge20" class="edge"><title>Node9&#45;&gt;Node7</title>
<path fill="none" stroke="#9a32cd" stroke-dasharray="5,2" d="M326.237,-441.387C333.516,-439.211 340.967,-436.979 348,-434.865 388.266,-422.762 434.498,-408.755 465.299,-399.407"/>
<polygon fill="#9a32cd" stroke="#9a32cd" points="325.054,-438.087 316.474,-444.303 327.058,-444.794 325.054,-438.087"/>
<text text-anchor="middle" x="391" y="-432.865" font-family="FreeSans" font-size="10.00"> allocator_</text>
</g>
<!-- Node9&#45;&gt;Node9 -->
<g id="edge22" class="edge"><title>Node9&#45;&gt;Node9</title>
<path fill="none" stroke="#9a32cd" stroke-dasharray="5,2" d="M260.728,-475.291C262.292,-480.214 269.049,-483.865 281,-483.865 300.121,-483.865 305.947,-474.518 298.478,-465.573"/>
<polygon fill="#9a32cd" stroke="#9a32cd" points="264.123,-476.151 263.522,-465.573 257.395,-474.216 264.123,-476.151"/>
<text text-anchor="middle" x="281" y="-487.865" font-family="FreeSans" font-size="10.00"> next_</text>
</g>
<!-- Node10 -->
<g id="node21" class="node"><title>Node10</title>
<a xlink:href="a00048.html" target="_top" xlink:title="Allocator node.">
<polygon fill="none" stroke="black" points="0.5,-444.365 0.5,-465.365 127.5,-465.365 127.5,-444.365 0.5,-444.365"/>
<text text-anchor="middle" x="64" y="-452.365" font-family="FreeSans" font-size="10.00">Urho3D::AllocatorNode</text>
</a>
</g>
<!-- Node10&#45;&gt;Node9 -->
<g id="edge24" class="edge"><title>Node10&#45;&gt;Node9</title>
<path fill="none" stroke="#9a32cd" stroke-dasharray="5,2" d="M137.765,-454.865C163.616,-454.865 192.409,-454.865 217.36,-454.865"/>
<polygon fill="#9a32cd" stroke="#9a32cd" points="137.641,-451.365 127.641,-454.865 137.641,-458.365 137.641,-451.365"/>
<text text-anchor="middle" x="171" y="-458.865" font-family="FreeSans" font-size="10.00"> free_</text>
</g>
<!-- Node10&#45;&gt;Node10 -->
<g id="edge26" class="edge"><title>Node10&#45;&gt;Node10</title>
<path fill="none" stroke="#9a32cd" stroke-dasharray="5,2" d="M44.4653,-475.291C45.9723,-480.214 52.4839,-483.865 64,-483.865 82.4258,-483.865 88.0399,-474.518 80.8423,-465.573"/>
<polygon fill="#9a32cd" stroke="#9a32cd" points="47.8609,-476.144 47.1577,-465.573 41.1149,-474.275 47.8609,-476.144"/>
<text text-anchor="middle" x="64" y="-487.865" font-family="FreeSans" font-size="10.00"> next_</text>
</g>
<!-- Node11 -->
<g id="node24" class="node"><title>Node11</title>
<a xlink:href="a00220.html" target="_top" xlink:title="Urho3D::PODVector\&lt;\l Urho3D::Object * \&gt;">
<polygon fill="none" stroke="black" points="706.5,-108.865 706.5,-142.865 825.5,-142.865 825.5,-108.865 706.5,-108.865"/>
<text text-anchor="start" x="714.5" y="-129.865" font-family="FreeSans" font-size="10.00">Urho3D::PODVector&lt;</text>
<text text-anchor="middle" x="766" y="-116.865" font-family="FreeSans" font-size="10.00"> Urho3D::Object * &gt;</text>
</a>
</g>
<!-- Node11&#45;&gt;Node5 -->
<g id="edge28" class="edge"><title>Node11&#45;&gt;Node5</title>
<path fill="none" stroke="#9a32cd" stroke-dasharray="5,2" d="M835.637,-129.594C887.206,-135.51 956.771,-150.458 1006,-187.865 1056.94,-226.569 1084.82,-302.702 1093.77,-330.965"/>
<polygon fill="#9a32cd" stroke="#9a32cd" points="835.888,-126.101 825.575,-128.528 835.15,-133.062 835.888,-126.101"/>
<text text-anchor="middle" x="948" y="-191.865" font-family="FreeSans" font-size="10.00"> eventSenders_</text>
</g>
<!-- Node12 -->
<g id="node26" class="node"><title>Node12</title>
<a xlink:href="a00316.html" target="_top" xlink:title="Vector base class.">
<polygon fill="none" stroke="black" points="443,-115.365 443,-136.365 557,-136.365 557,-115.365 443,-115.365"/>
<text text-anchor="middle" x="500" y="-123.365" font-family="FreeSans" font-size="10.00">Urho3D::VectorBase</text>
</a>
</g>
<!-- Node12&#45;&gt;Node11 -->
<g id="edge30" class="edge"><title>Node12&#45;&gt;Node11</title>
<path fill="none" stroke="midnightblue" d="M567.114,-125.865C609.938,-125.865 664.953,-125.865 706.263,-125.865"/>
<polygon fill="midnightblue" stroke="midnightblue" points="567.064,-122.365 557.064,-125.865 567.064,-129.365 567.064,-122.365"/>
</g>
<!-- Node13&#45;&gt;Node5 -->
<g id="edge32" class="edge"><title>Node13&#45;&gt;Node5</title>
<path fill="none" stroke="#9a32cd" stroke-dasharray="5,2" d="M864.96,-505.441C910.558,-492.475 963.787,-472.728 1006,-443.865 1043.81,-418.013 1076.33,-373.167 1090.05,-352.66"/>
<polygon fill="#9a32cd" stroke="#9a32cd" points="863.756,-502.143 855.054,-508.187 865.625,-508.889 863.756,-502.143"/>
<text text-anchor="middle" x="948" y="-499.865" font-family="FreeSans" font-size="10.00"> subsystems_</text>
</g>
<!-- Node14&#45;&gt;Node5 -->
<g id="edge36" class="edge"><title>Node14&#45;&gt;Node5</title>
<path fill="none" stroke="#9a32cd" stroke-dasharray="5,2" d="M862.491,-436.325C906.861,-423.926 959.786,-407.543 1006,-388.865 1032.21,-378.27 1060.97,-362.706 1079,-352.432"/>
<polygon fill="#9a32cd" stroke="#9a32cd" points="861.281,-433.028 852.577,-439.069 863.148,-439.775 861.281,-433.028"/>
<text text-anchor="middle" x="948" y="-430.865" font-family="FreeSans" font-size="10.00"> objectCategories_</text>
</g>
<!-- Node15&#45;&gt;Node5 -->
<g id="edge40" class="edge"><title>Node15&#45;&gt;Node5</title>
<path fill="none" stroke="#9a32cd" stroke-dasharray="5,2" d="M838.312,-622.747C849.846,-620.016 861.446,-616.47 872,-611.865 939.868,-582.255 957.635,-568.933 1006,-512.865 1051.47,-460.153 1082.9,-380.882 1093.27,-352.468"/>
<polygon fill="#9a32cd" stroke="#9a32cd" points="837.248,-619.397 828.222,-624.943 838.737,-626.237 837.248,-619.397"/>
<text text-anchor="middle" x="948" y="-606.865" font-family="FreeSans" font-size="10.00"> eventHandler_</text>
</g>
<!-- Node21 -->
<g id="node52" class="node"><title>Node21</title>
<a xlink:href="a00163.html" target="_top" xlink:title="Urho3D::LinkedList\l\&lt; Urho3D::EventHandler \&gt;">
<polygon fill="none" stroke="black" points="1024,-666.865 1024,-700.865 1170,-700.865 1170,-666.865 1024,-666.865"/>
<text text-anchor="start" x="1032" y="-687.865" font-family="FreeSans" font-size="10.00">Urho3D::LinkedList</text>
<text text-anchor="middle" x="1097" y="-674.865" font-family="FreeSans" font-size="10.00">&lt; Urho3D::EventHandler &gt;</text>
</a>
</g>
<!-- Node15&#45;&gt;Node21 -->
<g id="edge66" class="edge"><title>Node15&#45;&gt;Node21</title>
<path fill="none" stroke="#9a32cd" stroke-dasharray="5,2" d="M838.275,-643.219C893.238,-651.854 968.56,-663.687 1023.76,-672.359"/>
<polygon fill="#9a32cd" stroke="#9a32cd" points="838.681,-639.74 828.259,-641.646 837.594,-646.655 838.681,-639.74"/>
<text text-anchor="middle" x="948" y="-671.865" font-family="FreeSans" font-size="10.00"> head_</text>
</g>
<!-- Node16 -->
<g id="node36" class="node"><title>Node16</title>
<a xlink:href="a00164.html" target="_top" xlink:title="Singly&#45;linked list node base class.">
<polygon fill="none" stroke="black" points="434,-523.365 434,-544.365 566,-544.365 566,-523.365 434,-523.365"/>
<text text-anchor="middle" x="500" y="-531.365" font-family="FreeSans" font-size="10.00">Urho3D::LinkedListNode</text>
</a>
</g>
<!-- Node16&#45;&gt;Node15 -->
<g id="edge42" class="edge"><title>Node16&#45;&gt;Node15</title>
<path fill="none" stroke="midnightblue" d="M541.125,-547.875C570.441,-558.785 610.139,-575.481 642,-595.865 651.016,-601.633 650.393,-607.146 660,-611.865 673.531,-618.511 689.034,-622.955 703.931,-625.925"/>
<polygon fill="midnightblue" stroke="midnightblue" points="542.201,-544.542 531.608,-544.4 539.801,-551.118 542.201,-544.542"/>
</g>
<!-- Node16&#45;&gt;Node16 -->
<g id="edge44" class="edge"><title>Node16&#45;&gt;Node16</title>
<path fill="none" stroke="#9a32cd" stroke-dasharray="5,2" d="M480.097,-554.291C481.632,-559.214 488.267,-562.865 500,-562.865 518.773,-562.865 524.493,-553.518 517.16,-544.573"/>
<polygon fill="#9a32cd" stroke="#9a32cd" points="483.492,-555.147 482.84,-544.573 476.755,-553.246 483.492,-555.147"/>
<text text-anchor="middle" x="500" y="-566.865" font-family="FreeSans" font-size="10.00"> next_</text>
</g>
<!-- Node17 -->
<g id="node40" class="node"><title>Node17</title>
<a xlink:href="a00289.html" target="_top" xlink:title="32&#45;bit hash value for a string.">
<polygon fill="none" stroke="black" points="443.5,-594.365 443.5,-615.365 556.5,-615.365 556.5,-594.365 443.5,-594.365"/>
<text text-anchor="middle" x="500" y="-602.365" font-family="FreeSans" font-size="10.00">Urho3D::StringHash</text>
</a>
</g>
<!-- Node17&#45;&gt;Node15 -->
<g id="edge48" class="edge"><title>Node17&#45;&gt;Node15</title>
<path fill="none" stroke="#9a32cd" stroke-dasharray="5,2" d="M567.166,-603.123C572.86,-603.019 578.53,-602.93 584,-602.865 609.776,-602.558 616.912,-596.942 642,-602.865 650.705,-604.92 651.524,-609.008 660,-611.865 673.931,-616.56 689.286,-620.256 703.881,-623.125"/>
<polygon fill="#9a32cd" stroke="#9a32cd" points="566.858,-599.629 556.93,-603.326 566.997,-606.627 566.858,-599.629"/>
<text text-anchor="middle" x="613" y="-606.865" font-family="FreeSans" font-size="10.00"> eventType_</text>
</g>
<!-- Node17&#45;&gt;Node17 -->
<g id="edge50" class="edge"><title>Node17&#45;&gt;Node17</title>
<path fill="none" stroke="#9a32cd" stroke-dasharray="5,2" d="M480.097,-625.291C481.632,-630.214 488.267,-633.865 500,-633.865 518.773,-633.865 524.493,-624.518 517.16,-615.573"/>
<polygon fill="#9a32cd" stroke="#9a32cd" points="483.492,-626.147 482.84,-615.573 476.755,-624.246 483.492,-626.147"/>
<text text-anchor="middle" x="500" y="-637.865" font-family="FreeSans" font-size="10.00"> ZERO</text>
</g>
<!-- Node18&#45;&gt;Node5 -->
<g id="edge52" class="edge"><title>Node18&#45;&gt;Node5</title>
<path fill="none" stroke="#9a32cd" stroke-dasharray="5,2" d="M862.835,-320.41C906.616,-322.45 958.973,-325.497 1006,-329.865 1019.8,-331.147 1034.74,-332.944 1048.43,-334.757"/>
<polygon fill="#9a32cd" stroke="#9a32cd" points="862.915,-316.91 852.766,-319.952 862.597,-323.903 862.915,-316.91"/>
<text text-anchor="middle" x="948" y="-333.865" font-family="FreeSans" font-size="10.00"> eventReceivers_</text>
</g>
<!-- Node19&#45;&gt;Node5 -->
<g id="edge56" class="edge"><title>Node19&#45;&gt;Node5</title>
<path fill="none" stroke="#9a32cd" stroke-dasharray="5,2" d="M871.895,-373.828C931.135,-365.417 1002.13,-355.335 1048.34,-348.775"/>
<polygon fill="#9a32cd" stroke="#9a32cd" points="871.148,-370.399 861.739,-375.271 872.132,-377.33 871.148,-370.399"/>
<text text-anchor="middle" x="948" y="-375.865" font-family="FreeSans" font-size="10.00"> specificEventReceivers_</text>
</g>
<!-- Node20&#45;&gt;Node5 -->
<g id="edge60" class="edge"><title>Node20&#45;&gt;Node5</title>
<path fill="none" stroke="#9a32cd" stroke-dasharray="5,2" d="M882.037,-273.739C921.699,-282.537 966.106,-293.481 1006,-305.865 1029.2,-313.068 1054.88,-323.457 1073.02,-331.225"/>
<polygon fill="#9a32cd" stroke="#9a32cd" points="882.579,-270.275 872.062,-271.549 881.078,-277.112 882.579,-270.275"/>
<text text-anchor="middle" x="948" y="-309.865" font-family="FreeSans" font-size="10.00"> factories_</text>
</g>
<!-- Node21&#45;&gt;Node2 -->
<g id="edge64" class="edge"><title>Node21&#45;&gt;Node2</title>
<path fill="none" stroke="#9a32cd" stroke-dasharray="5,2" d="M1013.31,-692.387C1010.85,-692.559 1008.41,-692.719 1006,-692.865 852.498,-702.16 813.754,-698.898 660,-695.865 626.202,-695.198 617.627,-696.317 584,-692.865 571.352,-691.566 557.722,-689.56 545.197,-687.469"/>
<polygon fill="#9a32cd" stroke="#9a32cd" points="1013.82,-695.858 1023.53,-691.616 1013.3,-688.878 1013.82,-695.858"/>
<text text-anchor="middle" x="766" y="-702.865" font-family="FreeSans" font-size="10.00"> eventHandlers_</text>
</g>
<!-- Node22 -->
<g id="node55" class="node"><title>Node22</title>
<a xlink:href="a00288.html" target="_top" xlink:title="String class.">
<polygon fill="none" stroke="black" points="722,-759.365 722,-780.365 810,-780.365 810,-759.365 722,-759.365"/>
<text text-anchor="middle" x="766" y="-767.365" font-family="FreeSans" font-size="10.00">Urho3D::String</text>
</a>
</g>
<!-- Node22&#45;&gt;Node1 -->
<g id="edge68" class="edge"><title>Node22&#45;&gt;Node1</title>
<path fill="none" stroke="#9a32cd" stroke-dasharray="5,2" d="M820.498,-774.31C881.521,-779.288 979.898,-787.313 1041.38,-792.328"/>
<polygon fill="#9a32cd" stroke="#9a32cd" points="820.548,-770.803 810.297,-773.478 819.979,-777.78 820.548,-770.803"/>
<text text-anchor="middle" x="948" y="-792.865" font-family="FreeSans" font-size="10.00"> programDir_</text>
</g>
<!-- Node22&#45;&gt;Node22 -->
<g id="edge70" class="edge"><title>Node22&#45;&gt;Node22</title>
<path fill="none" stroke="#9a32cd" stroke-dasharray="5,2" d="M737.839,-789.92C739.687,-795.029 749.073,-798.865 766,-798.865 792.422,-798.865 800.472,-789.518 790.151,-780.573"/>
<polygon fill="#9a32cd" stroke="#9a32cd" points="741.123,-791.143 741.849,-780.573 734.69,-788.383 741.123,-791.143"/>
<text text-anchor="middle" x="766" y="-802.865" font-family="FreeSans" font-size="10.00"> EMPTY</text>
</g>
<!-- Node23&#45;&gt;Node1 -->
<g id="edge72" class="edge"><title>Node23&#45;&gt;Node1</title>
<path fill="none" stroke="#9a32cd" stroke-dasharray="5,2" d="M850.065,-597.006C858.183,-600.741 865.717,-605.59 872,-611.865 895.643,-635.479 869.557,-658.431 890,-684.865 914.435,-716.46 1022.27,-765.116 1071.88,-786.349"/>
<polygon fill="#9a32cd" stroke="#9a32cd" points="851.272,-593.719 840.688,-593.246 848.667,-600.217 851.272,-593.719"/>
<text text-anchor="middle" x="948" y="-759.865" font-family="FreeSans" font-size="10.00"> allowedPaths_</text>
</g>
</g>
</svg>
        <g id="navigator" transform="translate(0 0)" fill="#404254">
                <rect fill="#f2f5e9" fill-opacity="0.5" stroke="#606060" stroke-width=".5" x="0" y="0" width="60" height="60"/>
                <use id="zoomplus" xlink:href="#zoomPlus" x="17" y="9" onmousedown="handleZoom(evt,'in')"/>
                <use id="zoomminus" xlink:href="#zoomMin" x="42" y="9" onmousedown="handleZoom(evt,'out')"/>
                <use id="reset" xlink:href="#resetDef" x="30" y="36" onmousedown="handleReset()"/>
                <g id="arrowUp" xlink:href="#dirArrow" transform="translate(30 24)" onmousedown="handlePan(0,-1)">
                  <use xlink:href="#rim" fill="#404040">
                        <set attributeName="fill" to="#808080" begin="arrowUp.mouseover" end="arrowUp.mouseout"/>
                  </use>
                  <path fill="none" stroke="white" stroke-width="1.5" d="M0,-3.0v7 M-2.5,-0.5L0,-3.0L2.5,-0.5"/>
                </g>
                <g id="arrowRight" xlink:href="#dirArrow" transform="rotate(90) translate(36 -43)" onmousedown="handlePan(1,0)">
                  <use xlink:href="#rim" fill="#404040">
                        <set attributeName="fill" to="#808080" begin="arrowRight.mouseover" end="arrowRight.mouseout"/>
                  </use>
                  <path fill="none" stroke="white" stroke-width="1.5" d="M0,-3.0v7 M-2.5,-0.5L0,-3.0L2.5,-0.5"/>
                </g>
                <g id="arrowDown" xlink:href="#dirArrow" transform="rotate(180) translate(-30 -48)" onmousedown="handlePan(0,1)">
                  <use xlink:href="#rim" fill="#404040">
                        <set attributeName="fill" to="#808080" begin="arrowDown.mouseover" end="arrowDown.mouseout"/>
                  </use>
                  <path fill="none" stroke="white" stroke-width="1.5" d="M0,-3.0v7 M-2.5,-0.5L0,-3.0L2.5,-0.5"/>
                </g>
                <g id="arrowLeft" xlink:href="#dirArrow" transform="rotate(270) translate(-36 17)" onmousedown="handlePan(-1,0)">
                  <use xlink:href="#rim" fill="#404040">
                        <set attributeName="fill" to="#808080" begin="arrowLeft.mouseover" end="arrowLeft.mouseout"/>
                  </use>
                  <path fill="none" stroke="white" stroke-width="1.5" d="M0,-3.0v7 M-2.5,-0.5L0,-3.0L2.5,-0.5"/>
                </g>
        </g>
        <svg viewBox="0 0 15 15" width="100%" height="30px" preserveAspectRatio="xMaxYMin meet">
         <g id="arrow_out" transform="scale(0.3 0.3)">
          <a xlink:href="a01137_org.svg" target="_base">
           <rect id="button" ry="5" rx="5" y="6" x="6" height="38" width="38"
                fill="#f2f5e9" fill-opacity="0.5" stroke="#606060" stroke-width="1.0"/>
           <path id="arrow"
             d="M 11.500037,31.436501 C 11.940474,20.09759 22.043105,11.32322 32.158766,21.979434 L 37.068811,17.246167 C 37.068811,17.246167 37.088388,32 37.088388,32 L 22.160133,31.978069 C 22.160133,31.978069 26.997745,27.140456 26.997745,27.140456 C 18.528582,18.264221 13.291696,25.230495 11.500037,31.436501 z"
             style="fill:#404040;"/>
          </a>
         </g>
        </svg>
</svg>
