<?xml version="1.0" encoding="UTF-8" standalone="no"?>
<!DOCTYPE svg PUBLIC "-//W3C//DTD SVG 1.1//EN"
 "http://www.w3.org/Graphics/SVG/1.1/DTD/svg11.dtd">
<!-- Generated by graphviz version 2.26.3 (20100126.1600)
 -->
<!-- Title: Urho3D::Geometry Pages: 1 -->
<svg width="1394pt" height="916pt"
 viewBox="0.00 0.00 1394.00 916.00" xmlns="http://www.w3.org/2000/svg" xmlns:xlink="http://www.w3.org/1999/xlink">
<g id="graph1" class="graph" transform="scale(1 1) rotate(0) translate(4 912)">
<title>Urho3D::Geometry</title>
<!-- Node1 -->
<g id="node1" class="node"><title>Node1</title>
<polygon fill="#bfbfbf" stroke="black" points="1278.5,-767.5 1278.5,-788.5 1385.5,-788.5 1385.5,-767.5 1278.5,-767.5"/>
<text text-anchor="middle" x="1332" y="-775.5" font-family="FreeSans" font-size="10.00">Urho3D::Geometry</text>
</g>
<!-- Node2 -->
<g id="node2" class="node"><title>Node2</title>
<a xlink:href="a00241.html" target="_top" xlink:title="Base class for objects with type identification, subsystem access and event sending/receiving capabil...">
<polygon fill="none" stroke="black" points="362,-726.5 362,-747.5 452,-747.5 452,-726.5 362,-726.5"/>
<text text-anchor="middle" x="407" y="-734.5" font-family="FreeSans" font-size="10.00">Urho3D::Object</text>
</a>
</g>
<!-- Node2&#45;&gt;Node1 -->
<g id="edge2" class="edge"><title>Node2&#45;&gt;Node1</title>
<path fill="none" stroke="midnightblue" d="M462.469,-744.039C472.296,-745.14 482.441,-746.181 492,-747 788.253,-772.37 1145.03,-776.993 1278.33,-777.824"/>
<polygon fill="midnightblue" stroke="midnightblue" points="462.717,-740.545 452.382,-742.878 461.916,-747.499 462.717,-740.545"/>
</g>
<!-- Node12 -->
<g id="node25" class="node"><title>Node12</title>
<a xlink:href="a00151.html" target="_top" xlink:title="Internal helper class for invoking event handler functions.">
<polygon fill="none" stroke="black" points="622,-554.5 622,-575.5 746,-575.5 746,-554.5 622,-554.5"/>
<text text-anchor="middle" x="684" y="-562.5" font-family="FreeSans" font-size="10.00">Urho3D::EventHandler</text>
</a>
</g>
<!-- Node2&#45;&gt;Node12 -->
<g id="edge34" class="edge"><title>Node2&#45;&gt;Node12</title>
<path fill="none" stroke="#9a32cd" stroke-dasharray="5,2" d="M427.522,-719.599C444.333,-705.71 469.012,-686.138 492,-671 551.307,-631.945 626.103,-593.537 662.344,-575.56"/>
<polygon fill="#9a32cd" stroke="#9a32cd" points="424.936,-717.198 419.498,-726.291 429.42,-722.574 424.936,-717.198"/>
<text text-anchor="middle" x="526" y="-688" font-family="FreeSans" font-size="10.00"> sender_</text>
<text text-anchor="middle" x="526" y="-675" font-family="FreeSans" font-size="10.00">receiver_</text>
</g>
<!-- Node22 -->
<g id="node54" class="node"><title>Node22</title>
<a xlink:href="a00184.html" target="_top" xlink:title="Hardware index buffer.">
<polygon fill="none" stroke="black" points="627.5,-812.5 627.5,-833.5 740.5,-833.5 740.5,-812.5 627.5,-812.5"/>
<text text-anchor="middle" x="684" y="-820.5" font-family="FreeSans" font-size="10.00">Urho3D::IndexBuffer</text>
</a>
</g>
<!-- Node2&#45;&gt;Node22 -->
<g id="edge68" class="edge"><title>Node2&#45;&gt;Node22</title>
<path fill="none" stroke="midnightblue" d="M431.085,-752.922C447.606,-763.178 470.37,-776.037 492,-784 536.049,-800.217 588.401,-810.283 627.304,-816.117"/>
<polygon fill="midnightblue" stroke="midnightblue" points="432.915,-749.939 422.596,-747.54 429.167,-755.85 432.915,-749.939"/>
</g>
<!-- Node3 -->
<g id="node4" class="node"><title>Node3</title>
<a xlink:href="a00283.html" target="_top" xlink:title="Base class for intrusively reference&#45;counted objects. These are noncopyable and non&#45;assignable.">
<polygon fill="none" stroke="black" points="188,-726.5 188,-747.5 302,-747.5 302,-726.5 188,-726.5"/>
<text text-anchor="middle" x="245" y="-734.5" font-family="FreeSans" font-size="10.00">Urho3D::RefCounted</text>
</a>
</g>
<!-- Node3&#45;&gt;Node2 -->
<g id="edge4" class="edge"><title>Node3&#45;&gt;Node2</title>
<path fill="none" stroke="midnightblue" d="M312.369,-737C329.044,-737 346.513,-737 361.838,-737"/>
<polygon fill="midnightblue" stroke="midnightblue" points="312.115,-733.5 302.115,-737 312.115,-740.5 312.115,-733.5"/>
</g>
<!-- Node5 -->
<g id="node8" class="node"><title>Node5</title>
<a xlink:href="a00125.html" target="_top" xlink:title="Urho3D execution context. Provides access to subsystems, object factories and attributes, and event receivers.">
<polygon fill="none" stroke="black" points="1056.5,-355.5 1056.5,-376.5 1153.5,-376.5 1153.5,-355.5 1056.5,-355.5"/>
<text text-anchor="middle" x="1105" y="-363.5" font-family="FreeSans" font-size="10.00">Urho3D::Context</text>
</a>
</g>
<!-- Node3&#45;&gt;Node5 -->
<g id="edge10" class="edge"><title>Node3&#45;&gt;Node5</title>
<path fill="none" stroke="midnightblue" d="M245.887,-716.445C249.212,-667.574 265.005,-544.325 340,-488 380.115,-457.872 740.044,-455.618 790,-451 889.654,-441.788 919.995,-462.336 1014,-428 1045.96,-416.325 1077.47,-390.911 1093.71,-376.508"/>
<polygon fill="midnightblue" stroke="midnightblue" points="242.392,-716.261 245.315,-726.445 249.38,-716.661 242.392,-716.261"/>
</g>
<!-- Node4 -->
<g id="node6" class="node"><title>Node4</title>
<a xlink:href="a00282.html" target="_top" xlink:title="Reference count structure.">
<polygon fill="none" stroke="black" points="0,-786.5 0,-807.5 102,-807.5 102,-786.5 0,-786.5"/>
<text text-anchor="middle" x="51" y="-794.5" font-family="FreeSans" font-size="10.00">Urho3D::RefCount</text>
</a>
</g>
<!-- Node4&#45;&gt;Node3 -->
<g id="edge6" class="edge"><title>Node4&#45;&gt;Node3</title>
<path fill="none" stroke="#9a32cd" stroke-dasharray="5,2" d="M95.209,-783.327C130.287,-772.478 178.609,-757.533 210.78,-747.584"/>
<polygon fill="#9a32cd" stroke="#9a32cd" points="93.7561,-780.113 85.2367,-786.411 95.8244,-786.8 93.7561,-780.113"/>
<text text-anchor="middle" x="145" y="-778" font-family="FreeSans" font-size="10.00"> refCount_</text>
</g>
<!-- Node20 -->
<g id="node49" class="node"><title>Node20</title>
<a xlink:href="a00319.html" target="_top" xlink:title="Urho3D::SharedArrayPtr\l\&lt; unsigned char \&gt;">
<polygon fill="none" stroke="black" points="340.5,-852 340.5,-886 473.5,-886 473.5,-852 340.5,-852"/>
<text text-anchor="start" x="348.5" y="-873" font-family="FreeSans" font-size="10.00">Urho3D::SharedArrayPtr</text>
<text text-anchor="middle" x="407" y="-860" font-family="FreeSans" font-size="10.00">&lt; unsigned char &gt;</text>
</a>
</g>
<!-- Node4&#45;&gt;Node20 -->
<g id="edge62" class="edge"><title>Node4&#45;&gt;Node20</title>
<path fill="none" stroke="#9a32cd" stroke-dasharray="5,2" d="M111.883,-809.313C175.404,-822.16 274.702,-842.243 340.307,-855.511"/>
<polygon fill="#9a32cd" stroke="#9a32cd" points="112.502,-805.868 102.006,-807.316 111.114,-812.729 112.502,-805.868"/>
<text text-anchor="middle" x="245" y="-851" font-family="FreeSans" font-size="10.00"> refCount_</text>
</g>
<!-- Node5&#45;&gt;Node2 -->
<g id="edge8" class="edge"><title>Node5&#45;&gt;Node2</title>
<path fill="none" stroke="#9a32cd" stroke-dasharray="5,2" d="M1099.06,-386.293C1081.98,-443.995 1032.81,-605.894 1014,-622 1008.58,-626.644 591.967,-703.172 452.165,-728.749"/>
<polygon fill="#9a32cd" stroke="#9a32cd" points="1102.47,-387.083 1101.94,-376.501 1095.76,-385.104 1102.47,-387.083"/>
<text text-anchor="middle" x="684" y="-709" font-family="FreeSans" font-size="10.00"> context_</text>
</g>
<!-- Node6 -->
<g id="node11" class="node"><title>Node6</title>
<a xlink:href="a00176.html" target="_top" xlink:title="Urho3D::HashMap\&lt; Urho3D\l::ShortStringHash, Urho3D\l::Vector\&lt; Urho3D::AttributeInfo \&gt; \&gt;">
<polygon fill="none" stroke="black" points="589.5,-78.5 589.5,-125.5 778.5,-125.5 778.5,-78.5 589.5,-78.5"/>
<text text-anchor="start" x="597.5" y="-112.5" font-family="FreeSans" font-size="10.00">Urho3D::HashMap&lt; Urho3D</text>
<text text-anchor="start" x="597.5" y="-99.5" font-family="FreeSans" font-size="10.00">::ShortStringHash, Urho3D</text>
<text text-anchor="middle" x="684" y="-86.5" font-family="FreeSans" font-size="10.00">::Vector&lt; Urho3D::AttributeInfo &gt; &gt;</text>
</a>
</g>
<!-- Node6&#45;&gt;Node5 -->
<g id="edge12" class="edge"><title>Node6&#45;&gt;Node5</title>
<path fill="none" stroke="#9a32cd" stroke-dasharray="5,2" d="M788.751,-93.2495C859.269,-92.8813 950.607,-103.781 1014,-153 1082.29,-206.021 1100.06,-320.22 1104,-355.44"/>
<polygon fill="#9a32cd" stroke="#9a32cd" points="788.457,-89.7529 778.503,-93.3824 788.548,-96.7523 788.457,-89.7529"/>
<text text-anchor="middle" x="911" y="-170" font-family="FreeSans" font-size="10.00"> attributes_</text>
<text text-anchor="middle" x="911" y="-157" font-family="FreeSans" font-size="10.00">networkAttributes_</text>
</g>
<!-- Node7 -->
<g id="node13" class="node"><title>Node7</title>
<a xlink:href="a00174.html" target="_top" xlink:title="Hash set/map base class.">
<polygon fill="none" stroke="red" points="353,-186.5 353,-207.5 461,-207.5 461,-186.5 353,-186.5"/>
<text text-anchor="middle" x="407" y="-194.5" font-family="FreeSans" font-size="10.00">Urho3D::HashBase</text>
</a>
</g>
<!-- Node7&#45;&gt;Node6 -->
<g id="edge14" class="edge"><title>Node7&#45;&gt;Node6</title>
<path fill="none" stroke="midnightblue" d="M444.675,-182.775C479.207,-169.872 531.831,-150.547 578,-135 587.316,-131.863 597.127,-128.666 606.866,-125.558"/>
<polygon fill="midnightblue" stroke="midnightblue" points="443.138,-179.613 435.001,-186.399 445.594,-186.168 443.138,-179.613"/>
</g>
<!-- Node10 -->
<g id="node19" class="node"><title>Node10</title>
<a xlink:href="a00176.html" target="_top" xlink:title="Urho3D::HashMap\&lt; Urho3D\l::ShortStringHash, Urho3D\l::SharedPtr\&lt; Urho3D::Object \&gt; \&gt;">
<polygon fill="none" stroke="black" points="595,-342.5 595,-389.5 773,-389.5 773,-342.5 595,-342.5"/>
<text text-anchor="start" x="603" y="-376.5" font-family="FreeSans" font-size="10.00">Urho3D::HashMap&lt; Urho3D</text>
<text text-anchor="start" x="603" y="-363.5" font-family="FreeSans" font-size="10.00">::ShortStringHash, Urho3D</text>
<text text-anchor="middle" x="684" y="-350.5" font-family="FreeSans" font-size="10.00">::SharedPtr&lt; Urho3D::Object &gt; &gt;</text>
</a>
</g>
<!-- Node7&#45;&gt;Node10 -->
<g id="edge22" class="edge"><title>Node7&#45;&gt;Node10</title>
<path fill="none" stroke="midnightblue" d="M425.024,-215.173C454.536,-243.985 516.1,-300.233 578,-333 584.473,-336.427 591.36,-339.563 598.395,-342.42"/>
<polygon fill="midnightblue" stroke="midnightblue" points="427.15,-212.353 417.576,-207.816 422.231,-217.334 427.15,-212.353"/>
</g>
<!-- Node11 -->
<g id="node22" class="node"><title>Node11</title>
<a xlink:href="a00176.html" target="_top" xlink:title="Urho3D::HashMap\&lt; Urho3D\l::String, Urho3D::Vector\l\&lt; Urho3D::ShortStringHash \&gt; \&gt;">
<polygon fill="none" stroke="black" points="597.5,-276.5 597.5,-323.5 770.5,-323.5 770.5,-276.5 597.5,-276.5"/>
<text text-anchor="start" x="605.5" y="-310.5" font-family="FreeSans" font-size="10.00">Urho3D::HashMap&lt; Urho3D</text>
<text text-anchor="start" x="605.5" y="-297.5" font-family="FreeSans" font-size="10.00">::String, Urho3D::Vector</text>
<text text-anchor="middle" x="684" y="-284.5" font-family="FreeSans" font-size="10.00">&lt; Urho3D::ShortStringHash &gt; &gt;</text>
</a>
</g>
<!-- Node7&#45;&gt;Node11 -->
<g id="edge26" class="edge"><title>Node7&#45;&gt;Node11</title>
<path fill="none" stroke="midnightblue" d="M440.318,-211.644C474.54,-226.446 529.508,-249.563 578,-267 586.887,-270.196 596.256,-273.377 605.596,-276.432"/>
<polygon fill="midnightblue" stroke="midnightblue" points="441.383,-208.29 430.816,-207.517 438.594,-214.711 441.383,-208.29"/>
</g>
<!-- Node15 -->
<g id="node34" class="node"><title>Node15</title>
<a xlink:href="a00176.html" target="_top" xlink:title="Urho3D::HashMap\&lt; Urho3D\l::StringHash, Urho3D::\lHashSet\&lt; Urho3D::Object * \&gt; \&gt;">
<polygon fill="none" stroke="black" points="597.5,-144.5 597.5,-191.5 770.5,-191.5 770.5,-144.5 597.5,-144.5"/>
<text text-anchor="start" x="605.5" y="-178.5" font-family="FreeSans" font-size="10.00">Urho3D::HashMap&lt; Urho3D</text>
<text text-anchor="start" x="605.5" y="-165.5" font-family="FreeSans" font-size="10.00">::StringHash, Urho3D::</text>
<text text-anchor="middle" x="684" y="-152.5" font-family="FreeSans" font-size="10.00">HashSet&lt; Urho3D::Object * &gt; &gt;</text>
</a>
</g>
<!-- Node7&#45;&gt;Node15 -->
<g id="edge42" class="edge"><title>Node7&#45;&gt;Node15</title>
<path fill="none" stroke="midnightblue" d="M471.353,-190.263C508.841,-186.338 556.607,-181.337 597.367,-177.07"/>
<polygon fill="midnightblue" stroke="midnightblue" points="470.647,-186.817 461.066,-191.34 471.376,-193.779 470.647,-186.817"/>
</g>
<!-- Node16 -->
<g id="node37" class="node"><title>Node16</title>
<a xlink:href="a00176.html" target="_top" xlink:title="Urho3D::HashMap\&lt; Urho3D\l::Object *, Urho3D::HashMap\l\&lt; Urho3D::StringHash, Urho3D\l::HashSet\&lt; Urho3D::Object * \&gt; \&gt; \&gt;">
<polygon fill="none" stroke="black" points="588.5,-0 588.5,-60 779.5,-60 779.5,-0 588.5,-0"/>
<text text-anchor="start" x="596.5" y="-47" font-family="FreeSans" font-size="10.00">Urho3D::HashMap&lt; Urho3D</text>
<text text-anchor="start" x="596.5" y="-34" font-family="FreeSans" font-size="10.00">::Object *, Urho3D::HashMap</text>
<text text-anchor="start" x="596.5" y="-21" font-family="FreeSans" font-size="10.00">&lt; Urho3D::StringHash, Urho3D</text>
<text text-anchor="middle" x="684" y="-8" font-family="FreeSans" font-size="10.00">::HashSet&lt; Urho3D::Object * &gt; &gt; &gt;</text>
</a>
</g>
<!-- Node7&#45;&gt;Node16 -->
<g id="edge46" class="edge"><title>Node7&#45;&gt;Node16</title>
<path fill="none" stroke="midnightblue" d="M426.33,-179.53C456.735,-152.775 518.427,-101.356 578,-69 583.772,-65.8648 589.849,-62.8822 596.052,-60.0661"/>
<polygon fill="midnightblue" stroke="midnightblue" points="423.764,-177.128 418.612,-186.386 428.413,-182.362 423.764,-177.128"/>
</g>
<!-- Node17 -->
<g id="node40" class="node"><title>Node17</title>
<a xlink:href="a00176.html" target="_top" xlink:title="Urho3D::HashMap\&lt; Urho3D\l::ShortStringHash, Urho3D\l::SharedPtr\&lt; Urho3D::ObjectFactory \&gt; \&gt;">
<polygon fill="none" stroke="black" points="578,-210.5 578,-257.5 790,-257.5 790,-210.5 578,-210.5"/>
<text text-anchor="start" x="586" y="-244.5" font-family="FreeSans" font-size="10.00">Urho3D::HashMap&lt; Urho3D</text>
<text text-anchor="start" x="586" y="-231.5" font-family="FreeSans" font-size="10.00">::ShortStringHash, Urho3D</text>
<text text-anchor="middle" x="684" y="-218.5" font-family="FreeSans" font-size="10.00">::SharedPtr&lt; Urho3D::ObjectFactory &gt; &gt;</text>
</a>
</g>
<!-- Node7&#45;&gt;Node17 -->
<g id="edge50" class="edge"><title>Node7&#45;&gt;Node17</title>
<path fill="none" stroke="midnightblue" d="M471.085,-205.56C502.786,-209.795 541.885,-215.017 577.89,-219.826"/>
<polygon fill="midnightblue" stroke="midnightblue" points="471.441,-202.077 461.066,-204.222 470.515,-209.015 471.441,-202.077"/>
</g>
<!-- Node8 -->
<g id="node15" class="node"><title>Node8</title>
<a xlink:href="a00269.html" target="_top" xlink:title="Urho3D::PODVector\&lt;\l Urho3D::Object * \&gt;">
<polygon fill="none" stroke="black" points="624.5,-408 624.5,-442 743.5,-442 743.5,-408 624.5,-408"/>
<text text-anchor="start" x="632.5" y="-429" font-family="FreeSans" font-size="10.00">Urho3D::PODVector&lt;</text>
<text text-anchor="middle" x="684" y="-416" font-family="FreeSans" font-size="10.00"> Urho3D::Object * &gt;</text>
</a>
</g>
<!-- Node8&#45;&gt;Node5 -->
<g id="edge16" class="edge"><title>Node8&#45;&gt;Node5</title>
<path fill="none" stroke="#9a32cd" stroke-dasharray="5,2" d="M753.768,-417.312C820.675,-409.659 924.455,-397.05 1014,-383 1027.81,-380.833 1042.75,-378.175 1056.45,-375.611"/>
<polygon fill="#9a32cd" stroke="#9a32cd" points="753.303,-413.843 743.763,-418.451 754.095,-420.798 753.303,-413.843"/>
<text text-anchor="middle" x="911" y="-415" font-family="FreeSans" font-size="10.00"> eventSenders_</text>
</g>
<!-- Node9 -->
<g id="node17" class="node"><title>Node9</title>
<a xlink:href="a00378.html" target="_top" xlink:title="Vector base class.">
<polygon fill="none" stroke="black" points="350,-639.5 350,-660.5 464,-660.5 464,-639.5 350,-639.5"/>
<text text-anchor="middle" x="407" y="-647.5" font-family="FreeSans" font-size="10.00">Urho3D::VectorBase</text>
</a>
</g>
<!-- Node9&#45;&gt;Node8 -->
<g id="edge18" class="edge"><title>Node9&#45;&gt;Node8</title>
<path fill="none" stroke="midnightblue" d="M470.285,-633.692C471.597,-632.542 472.84,-631.313 474,-630 505.931,-593.863 463.482,-561.888 492,-523 523.87,-479.542 580.636,-453.967 624.206,-439.906"/>
<polygon fill="midnightblue" stroke="midnightblue" points="468.269,-630.831 462.104,-639.448 472.297,-636.556 468.269,-630.831"/>
</g>
<!-- Node18 -->
<g id="node43" class="node"><title>Node18</title>
<a xlink:href="a00269.html" target="_top" xlink:title="Urho3D::PODVector\&lt;\l Urho3D::HashMap * \&gt;">
<polygon fill="none" stroke="black" points="620.5,-501 620.5,-535 747.5,-535 747.5,-501 620.5,-501"/>
<text text-anchor="start" x="628.5" y="-522" font-family="FreeSans" font-size="10.00">Urho3D::PODVector&lt;</text>
<text text-anchor="middle" x="684" y="-509" font-family="FreeSans" font-size="10.00"> Urho3D::HashMap * &gt;</text>
</a>
</g>
<!-- Node9&#45;&gt;Node18 -->
<g id="edge54" class="edge"><title>Node9&#45;&gt;Node18</title>
<path fill="none" stroke="midnightblue" d="M468.314,-634.3C470.307,-632.981 472.211,-631.551 474,-630 488.425,-617.495 478.903,-604.89 492,-591 521.737,-559.462 537.591,-560.686 578,-545 591.454,-539.777 606.263,-535.276 620.435,-531.528"/>
<polygon fill="midnightblue" stroke="midnightblue" points="466.15,-631.498 459.098,-639.405 469.541,-637.621 466.15,-631.498"/>
</g>
<!-- Node24 -->
<g id="node60" class="node"><title>Node24</title>
<a xlink:href="a00374.html" target="_top" xlink:title="Urho3D::Vector\&lt; Urho3D\l::SharedPtr\&lt; Urho3D::VertexBuffer \&gt; \&gt;">
<polygon fill="none" stroke="black" points="808,-729 808,-763 1014,-763 1014,-729 808,-729"/>
<text text-anchor="start" x="816" y="-750" font-family="FreeSans" font-size="10.00">Urho3D::Vector&lt; Urho3D</text>
<text text-anchor="middle" x="911" y="-737" font-family="FreeSans" font-size="10.00">::SharedPtr&lt; Urho3D::VertexBuffer &gt; &gt;</text>
</a>
</g>
<!-- Node9&#45;&gt;Node24 -->
<g id="edge76" class="edge"><title>Node9&#45;&gt;Node24</title>
<path fill="none" stroke="midnightblue" d="M453.71,-663.074C466.095,-666.27 479.5,-669.488 492,-672 623.194,-698.36 658.774,-688.801 790,-715 809.564,-718.906 830.694,-724.008 849.737,-728.942"/>
<polygon fill="midnightblue" stroke="midnightblue" points="454.595,-659.687 444.033,-660.53 452.815,-666.457 454.595,-659.687"/>
</g>
<!-- Node25 -->
<g id="node63" class="node"><title>Node25</title>
<a xlink:href="a00269.html" target="_top" xlink:title="Urho3D::PODVector\&lt;\l unsigned \&gt;">
<polygon fill="none" stroke="black" points="851.5,-665 851.5,-699 970.5,-699 970.5,-665 851.5,-665"/>
<text text-anchor="start" x="859.5" y="-686" font-family="FreeSans" font-size="10.00">Urho3D::PODVector&lt;</text>
<text text-anchor="middle" x="911" y="-673" font-family="FreeSans" font-size="10.00"> unsigned &gt;</text>
</a>
</g>
<!-- Node9&#45;&gt;Node25 -->
<g id="edge80" class="edge"><title>Node9&#45;&gt;Node25</title>
<path fill="none" stroke="midnightblue" d="M452.493,-636.58C470.37,-631.416 487.675,-626.599 492,-626 551.443,-617.769 675.497,-603.088 790,-628 823.043,-635.189 858.035,-651.927 881.843,-664.877"/>
<polygon fill="midnightblue" stroke="midnightblue" points="451.208,-633.308 442.581,-639.459 453.161,-640.03 451.208,-633.308"/>
</g>
<!-- Node10&#45;&gt;Node5 -->
<g id="edge20" class="edge"><title>Node10&#45;&gt;Node5</title>
<path fill="none" stroke="#9a32cd" stroke-dasharray="5,2" d="M783.071,-366C869.07,-366 989.93,-366 1056.41,-366"/>
<polygon fill="#9a32cd" stroke="#9a32cd" points="783.026,-362.5 773.026,-366 783.026,-369.5 783.026,-362.5"/>
<text text-anchor="middle" x="911" y="-370" font-family="FreeSans" font-size="10.00"> subsystems_</text>
</g>
<!-- Node11&#45;&gt;Node5 -->
<g id="edge24" class="edge"><title>Node11&#45;&gt;Node5</title>
<path fill="none" stroke="#9a32cd" stroke-dasharray="5,2" d="M780.598,-313.376C846.466,-322.734 935.623,-335.865 1014,-349 1027.79,-351.311 1042.72,-354.015 1056.42,-356.577"/>
<polygon fill="#9a32cd" stroke="#9a32cd" points="781.035,-309.903 770.643,-311.965 780.053,-316.834 781.035,-309.903"/>
<text text-anchor="middle" x="911" y="-353" font-family="FreeSans" font-size="10.00"> objectCategories_</text>
</g>
<!-- Node12&#45;&gt;Node5 -->
<g id="edge28" class="edge"><title>Node12&#45;&gt;Node5</title>
<path fill="none" stroke="#9a32cd" stroke-dasharray="5,2" d="M756.262,-561.333C846.89,-556.189 993.02,-545.881 1014,-532 1071.29,-494.098 1095.69,-407.441 1102.72,-376.899"/>
<polygon fill="#9a32cd" stroke="#9a32cd" points="755.83,-557.852 746.041,-561.905 756.221,-564.841 755.83,-557.852"/>
<text text-anchor="middle" x="911" y="-562" font-family="FreeSans" font-size="10.00"> eventHandler_</text>
</g>
<!-- Node19 -->
<g id="node46" class="node"><title>Node19</title>
<a xlink:href="a00200.html" target="_top" xlink:title="Urho3D::LinkedList\l\&lt; Urho3D::EventHandler \&gt;">
<polygon fill="none" stroke="black" points="1032,-601 1032,-635 1178,-635 1178,-601 1032,-601"/>
<text text-anchor="start" x="1040" y="-622" font-family="FreeSans" font-size="10.00">Urho3D::LinkedList</text>
<text text-anchor="middle" x="1105" y="-609" font-family="FreeSans" font-size="10.00">&lt; Urho3D::EventHandler &gt;</text>
</a>
</g>
<!-- Node12&#45;&gt;Node19 -->
<g id="edge58" class="edge"><title>Node12&#45;&gt;Node19</title>
<path fill="none" stroke="#9a32cd" stroke-dasharray="5,2" d="M756.207,-574.09C833.137,-583.775 954.273,-599.025 1031.64,-608.765"/>
<polygon fill="#9a32cd" stroke="#9a32cd" points="756.479,-570.597 746.12,-572.82 755.604,-577.542 756.479,-570.597"/>
<text text-anchor="middle" x="911" y="-609" font-family="FreeSans" font-size="10.00"> head_</text>
</g>
<!-- Node13 -->
<g id="node27" class="node"><title>Node13</title>
<a xlink:href="a00201.html" target="_top" xlink:title="Singly&#45;linked list node base class.">
<polygon fill="none" stroke="black" points="341,-568.5 341,-589.5 473,-589.5 473,-568.5 341,-568.5"/>
<text text-anchor="middle" x="407" y="-576.5" font-family="FreeSans" font-size="10.00">Urho3D::LinkedListNode</text>
</a>
</g>
<!-- Node13&#45;&gt;Node12 -->
<g id="edge30" class="edge"><title>Node13&#45;&gt;Node12</title>
<path fill="none" stroke="midnightblue" d="M483.345,-575.141C526.978,-572.936 580.996,-570.206 621.989,-568.134"/>
<polygon fill="midnightblue" stroke="midnightblue" points="483.159,-571.646 473.348,-575.647 483.512,-578.637 483.159,-571.646"/>
</g>
<!-- Node13&#45;&gt;Node13 -->
<g id="edge32" class="edge"><title>Node13&#45;&gt;Node13</title>
<path fill="none" stroke="#9a32cd" stroke-dasharray="5,2" d="M391.25,-599.793C392.64,-604.529 397.89,-608 407,-608 421.949,-608 426.504,-598.653 420.665,-589.708"/>
<polygon fill="#9a32cd" stroke="#9a32cd" points="394.738,-600.209 393.335,-589.708 387.883,-598.792 394.738,-600.209"/>
<text text-anchor="middle" x="407" y="-612" font-family="FreeSans" font-size="10.00"> next_</text>
</g>
<!-- Node14 -->
<g id="node31" class="node"><title>Node14</title>
<a xlink:href="a00344.html" target="_top" xlink:title="32&#45;bit hash value for a string.">
<polygon fill="none" stroke="black" points="350.5,-497.5 350.5,-518.5 463.5,-518.5 463.5,-497.5 350.5,-497.5"/>
<text text-anchor="middle" x="407" y="-505.5" font-family="FreeSans" font-size="10.00">Urho3D::StringHash</text>
</a>
</g>
<!-- Node14&#45;&gt;Node12 -->
<g id="edge36" class="edge"><title>Node14&#45;&gt;Node12</title>
<path fill="none" stroke="#9a32cd" stroke-dasharray="5,2" d="M466.268,-520.659C499.163,-527.639 540.826,-536.405 578,-544 595.002,-547.474 613.557,-551.179 630.322,-554.495"/>
<polygon fill="#9a32cd" stroke="#9a32cd" points="466.865,-517.207 456.355,-518.553 465.41,-524.055 466.865,-517.207"/>
<text text-anchor="middle" x="526" y="-544" font-family="FreeSans" font-size="10.00"> eventType_</text>
</g>
<!-- Node14&#45;&gt;Node14 -->
<g id="edge38" class="edge"><title>Node14&#45;&gt;Node14</title>
<path fill="none" stroke="#9a32cd" stroke-dasharray="5,2" d="M391.25,-528.793C392.64,-533.529 397.89,-537 407,-537 421.949,-537 426.504,-527.653 420.665,-518.708"/>
<polygon fill="#9a32cd" stroke="#9a32cd" points="394.738,-529.209 393.335,-518.708 387.883,-527.792 394.738,-529.209"/>
<text text-anchor="middle" x="407" y="-541" font-family="FreeSans" font-size="10.00"> ZERO</text>
</g>
<!-- Node15&#45;&gt;Node5 -->
<g id="edge40" class="edge"><title>Node15&#45;&gt;Node5</title>
<path fill="none" stroke="#9a32cd" stroke-dasharray="5,2" d="M780.802,-178.162C864.023,-188.386 976.397,-206.193 1014,-231 1062.13,-262.752 1091.34,-329.625 1101.22,-355.483"/>
<polygon fill="#9a32cd" stroke="#9a32cd" points="781.153,-174.679 770.805,-176.953 780.312,-181.629 781.153,-174.679"/>
<text text-anchor="middle" x="911" y="-235" font-family="FreeSans" font-size="10.00"> eventReceivers_</text>
</g>
<!-- Node16&#45;&gt;Node5 -->
<g id="edge44" class="edge"><title>Node16&#45;&gt;Node5</title>
<path fill="none" stroke="#9a32cd" stroke-dasharray="5,2" d="M790.208,-17.8399C861.385,-15.6502 952.911,-25.1672 1014,-77 1058.92,-115.116 1094.9,-307.795 1103.2,-355.369"/>
<polygon fill="#9a32cd" stroke="#9a32cd" points="789.716,-14.3564 779.861,-18.2443 789.99,-21.351 789.716,-14.3564"/>
<text text-anchor="middle" x="911" y="-81" font-family="FreeSans" font-size="10.00"> specificEventReceivers_</text>
</g>
<!-- Node17&#45;&gt;Node5 -->
<g id="edge48" class="edge"><title>Node17&#45;&gt;Node5</title>
<path fill="none" stroke="#9a32cd" stroke-dasharray="5,2" d="M800.597,-245.554C865.444,-254.927 946.448,-271.617 1014,-301 1045.69,-314.784 1077.31,-340.825 1093.63,-355.413"/>
<polygon fill="#9a32cd" stroke="#9a32cd" points="800.723,-242.037 790.333,-244.111 799.749,-248.969 800.723,-242.037"/>
<text text-anchor="middle" x="911" y="-305" font-family="FreeSans" font-size="10.00"> factories_</text>
</g>
<!-- Node18&#45;&gt;Node5 -->
<g id="edge52" class="edge"><title>Node18&#45;&gt;Node5</title>
<path fill="none" stroke="#9a32cd" stroke-dasharray="5,2" d="M757.773,-517.093C841.359,-514.912 971.496,-507.678 1014,-484 1059.2,-458.819 1089.32,-400.962 1100.33,-376.854"/>
<polygon fill="#9a32cd" stroke="#9a32cd" points="757.479,-513.599 747.566,-517.341 757.648,-520.597 757.479,-513.599"/>
<text text-anchor="middle" x="911" y="-519" font-family="FreeSans" font-size="10.00"> eventDataMaps_</text>
</g>
<!-- Node19&#45;&gt;Node2 -->
<g id="edge56" class="edge"><title>Node19&#45;&gt;Node2</title>
<path fill="none" stroke="#9a32cd" stroke-dasharray="5,2" d="M1085.53,-643.018C1068.86,-662.364 1043,-687.836 1014,-700 962.703,-721.516 584.485,-732.682 452.382,-735.957"/>
<polygon fill="#9a32cd" stroke="#9a32cd" points="1088.37,-645.077 1092.1,-635.158 1083,-640.589 1088.37,-645.077"/>
<text text-anchor="middle" x="684" y="-736" font-family="FreeSans" font-size="10.00"> eventHandlers_</text>
</g>
<!-- Node20&#45;&gt;Node1 -->
<g id="edge60" class="edge"><title>Node20&#45;&gt;Node1</title>
<path fill="none" stroke="#9a32cd" stroke-dasharray="5,2" d="M483.891,-874.821C623.512,-883.668 927.456,-894.982 1178,-849 1215.88,-842.048 1225.06,-837.184 1260,-821 1280.35,-811.577 1302.27,-797.931 1316.51,-788.552"/>
<polygon fill="#9a32cd" stroke="#9a32cd" points="483.927,-871.316 473.721,-874.163 483.474,-878.302 483.927,-871.316"/>
<text text-anchor="middle" x="911" y="-899" font-family="FreeSans" font-size="10.00"> rawVertexData_</text>
<text text-anchor="middle" x="911" y="-886" font-family="FreeSans" font-size="10.00">rawIndexData_</text>
</g>
<!-- Node20&#45;&gt;Node22 -->
<g id="edge72" class="edge"><title>Node20&#45;&gt;Node22</title>
<path fill="none" stroke="#9a32cd" stroke-dasharray="5,2" d="M483.809,-856.245C529.251,-848.698 585.829,-839.303 627.233,-832.427"/>
<polygon fill="#9a32cd" stroke="#9a32cd" points="482.992,-852.832 473.701,-857.923 484.139,-859.738 482.992,-852.832"/>
<text text-anchor="middle" x="526" y="-858" font-family="FreeSans" font-size="10.00"> shadowData_</text>
</g>
<!-- Node21 -->
<g id="node52" class="node"><title>Node21</title>
<a xlink:href="a00320.html" target="_top" xlink:title="Urho3D::SharedPtr\&lt;\l Urho3D::IndexBuffer \&gt;">
<polygon fill="none" stroke="black" points="1041,-806 1041,-840 1169,-840 1169,-806 1041,-806"/>
<text text-anchor="start" x="1049" y="-827" font-family="FreeSans" font-size="10.00">Urho3D::SharedPtr&lt;</text>
<text text-anchor="middle" x="1105" y="-814" font-family="FreeSans" font-size="10.00"> Urho3D::IndexBuffer &gt;</text>
</a>
</g>
<!-- Node21&#45;&gt;Node1 -->
<g id="edge64" class="edge"><title>Node21&#45;&gt;Node1</title>
<path fill="none" stroke="#9a32cd" stroke-dasharray="5,2" d="M1179.06,-808.318C1211.58,-801.871 1249.04,-794.445 1278.75,-788.557"/>
<polygon fill="#9a32cd" stroke="#9a32cd" points="1178.27,-804.907 1169.14,-810.285 1179.63,-811.774 1178.27,-804.907"/>
<text text-anchor="middle" x="1228" y="-808" font-family="FreeSans" font-size="10.00"> indexBuffer_</text>
</g>
<!-- Node22&#45;&gt;Node21 -->
<g id="edge66" class="edge"><title>Node22&#45;&gt;Node21</title>
<path fill="none" stroke="#9a32cd" stroke-dasharray="5,2" d="M751.181,-823C830.824,-823 962.591,-823 1040.87,-823"/>
<polygon fill="#9a32cd" stroke="#9a32cd" points="750.778,-819.5 740.778,-823 750.778,-826.5 750.778,-819.5"/>
<text text-anchor="middle" x="911" y="-827" font-family="FreeSans" font-size="10.00"> ptr_</text>
</g>
<!-- Node23 -->
<g id="node57" class="node"><title>Node23</title>
<a xlink:href="a00171.html" target="_top" xlink:title="Base class for GPU resources.">
<polygon fill="none" stroke="red" points="351.5,-812.5 351.5,-833.5 462.5,-833.5 462.5,-812.5 351.5,-812.5"/>
<text text-anchor="middle" x="407" y="-820.5" font-family="FreeSans" font-size="10.00">Urho3D::GPUObject</text>
</a>
</g>
<!-- Node23&#45;&gt;Node22 -->
<g id="edge70" class="edge"><title>Node23&#45;&gt;Node22</title>
<path fill="none" stroke="midnightblue" d="M472.818,-823C519.889,-823 582.589,-823 627.417,-823"/>
<polygon fill="midnightblue" stroke="midnightblue" points="472.722,-819.5 462.722,-823 472.722,-826.5 472.722,-819.5"/>
</g>
<!-- Node24&#45;&gt;Node1 -->
<g id="edge74" class="edge"><title>Node24&#45;&gt;Node1</title>
<path fill="none" stroke="#9a32cd" stroke-dasharray="5,2" d="M1024.22,-744.66C1071.79,-744.994 1127.66,-746.56 1178,-751 1214.76,-754.242 1223.66,-757.589 1260,-764 1266.14,-765.084 1272.58,-766.266 1278.96,-767.469"/>
<polygon fill="#9a32cd" stroke="#9a32cd" points="1024.21,-741.161 1014.2,-744.607 1024.18,-748.16 1024.21,-741.161"/>
<text text-anchor="middle" x="1105" y="-755" font-family="FreeSans" font-size="10.00"> vertexBuffers_</text>
</g>
<!-- Node25&#45;&gt;Node1 -->
<g id="edge78" class="edge"><title>Node25&#45;&gt;Node1</title>
<path fill="none" stroke="#9a32cd" stroke-dasharray="5,2" d="M980.828,-689.539C1052.31,-698.561 1165.94,-716.542 1260,-748 1276.7,-753.584 1295,-761.233 1308.98,-767.409"/>
<polygon fill="#9a32cd" stroke="#9a32cd" points="980.949,-686.027 970.595,-688.272 980.09,-692.974 980.949,-686.027"/>
<text text-anchor="middle" x="1105" y="-727" font-family="FreeSans" font-size="10.00"> elementMasks_</text>
</g>
</g>
</svg>
