<?xml version="1.0" encoding="UTF-8" standalone="no"?>
<!DOCTYPE svg PUBLIC "-//W3C//DTD SVG 1.1//EN"
 "http://www.w3.org/Graphics/SVG/1.1/DTD/svg11.dtd">
<!-- Generated by graphviz version 2.26.3 (20100126.1600)
 -->
<!-- Title: Urho3D::Material Pages: 1 -->
<!--zoomable 504 -->
<svg id="main" version="1.1" xmlns="http://www.w3.org/2000/svg" xmlns:xlink="http://www.w3.org/1999/xlink" xml:space="preserve" onload="init(evt)">
        <defs>
                <circle id="rim" cx="0" cy="0" r="7"/>
                <circle id="rim2" cx="0" cy="0" r="3.5"/>
                <g id="zoomPlus">
                        <use xlink:href="#rim" fill="#404040">
                                <set attributeName="fill" to="#808080" begin="zoomplus.mouseover" end="zoomplus.mouseout"/>
                        </use>
                        <path d="M-4,0h8M0,-4v8" fill="none" stroke="white" stroke-width="1.5" pointer-events="none"/>
                </g>
                <g id="zoomMin">
                        <use xlink:href="#rim" fill="#404040">
                                <set attributeName="fill" to="#808080" begin="zoomminus.mouseover" end="zoomminus.mouseout"/>
                        </use>
                        <path d="M-4,0h8" fill="none" stroke="white" stroke-width="1.5" pointer-events="none"/>
                </g>
                <g id="dirArrow">
                        <path fill="none" stroke="white" stroke-width="1.5" d="M0,-3.0v7 M-2.5,-0.5L0,-3.0L2.5,-0.5"/>
                </g>
               <g id="resetDef">
                       <use xlink:href="#rim2" fill="#404040">
                               <set attributeName="fill" to="#808080" begin="reset.mouseover" end="reset.mouseout"/>
                       </use>
               </g>
        </defs>

<script type="text/javascript">
var viewWidth = 2360;
var viewHeight = 504;
var sectionId = 'dynsection-1';
</script>
<script xlink:href="svgpan.js"/>
<svg id="graph" class="graph">
<g id="viewport">
<title>Urho3D::Material</title>
<!-- Node1 -->
<g id="node1" class="node"><title>Node1</title>
<polygon fill="#bfbfbf" stroke="black" points="2254,-105.5 2254,-126.5 2352,-126.5 2352,-105.5 2254,-105.5"/>
<text text-anchor="middle" x="2303" y="-113.5" font-family="FreeSans" font-size="10.00">Urho3D::Material</text>
</g>
<!-- Node2 -->
<g id="node2" class="node"><title>Node2</title>
<a xlink:href="a00291.html" target="_top" xlink:title="Base class for resources.">
<polygon fill="none" stroke="black" points="1479.5,-233.5 1479.5,-254.5 1582.5,-254.5 1582.5,-233.5 1479.5,-233.5"/>
<text text-anchor="middle" x="1531" y="-241.5" font-family="FreeSans" font-size="10.00">Urho3D::Resource</text>
</a>
</g>
<!-- Node2&#45;&gt;Node1 -->
<g id="edge2" class="edge"><title>Node2&#45;&gt;Node1</title>
<path fill="none" stroke="midnightblue" d="M1592.96,-238.623C1741.87,-225.255 2116.31,-188.85 2236,-151 2254.27,-145.223 2273.49,-134.651 2286.64,-126.633"/>
<polygon fill="midnightblue" stroke="midnightblue" points="1592.29,-235.17 1582.64,-239.546 1592.91,-242.142 1592.29,-235.17"/>
</g>
<!-- Node23 -->
<g id="node53" class="node"><title>Node23</title>
<a xlink:href="a00351.html" target="_top" xlink:title="Base class for texture resources.">
<polygon fill="none" stroke="black" points="1816,-256.5 1816,-277.5 1910,-277.5 1910,-256.5 1816,-256.5"/>
<text text-anchor="middle" x="1863" y="-264.5" font-family="FreeSans" font-size="10.00">Urho3D::Texture</text>
</a>
</g>
<!-- Node2&#45;&gt;Node23 -->
<g id="edge64" class="edge"><title>Node2&#45;&gt;Node23</title>
<path fill="none" stroke="midnightblue" d="M1592.56,-248.265C1657.19,-252.742 1757.36,-259.682 1815.94,-263.74"/>
<polygon fill="midnightblue" stroke="midnightblue" points="1592.73,-244.768 1582.51,-247.569 1592.24,-251.751 1592.73,-244.768"/>
</g>
<!-- Node3 -->
<g id="node4" class="node"><title>Node3</title>
<a xlink:href="a00241.html" target="_top" xlink:title="Base class for objects with type identification, subsystem access and event sending/receiving capabil...">
<polygon fill="none" stroke="black" points="1184,-276.5 1184,-297.5 1274,-297.5 1274,-276.5 1184,-276.5"/>
<text text-anchor="middle" x="1229" y="-284.5" font-family="FreeSans" font-size="10.00">Urho3D::Object</text>
</a>
</g>
<!-- Node3&#45;&gt;Node2 -->
<g id="edge4" class="edge"><title>Node3&#45;&gt;Node2</title>
<path fill="none" stroke="midnightblue" d="M1284.06,-282.292C1327.19,-278.244 1388.61,-271.685 1442,-263 1456.35,-260.666 1471.88,-257.556 1485.89,-254.529"/>
<polygon fill="midnightblue" stroke="midnightblue" points="1283.69,-278.811 1274.05,-283.217 1284.33,-285.782 1283.69,-278.811"/>
</g>
<!-- Node4 -->
<g id="node6" class="node"><title>Node4</title>
<a xlink:href="a00283.html" target="_top" xlink:title="Base class for intrusively reference&#45;counted objects. These are noncopyable and non&#45;assignable.">
<polygon fill="none" stroke="black" points="458,-314.5 458,-335.5 572,-335.5 572,-314.5 458,-314.5"/>
<text text-anchor="middle" x="515" y="-322.5" font-family="FreeSans" font-size="10.00">Urho3D::RefCounted</text>
</a>
</g>
<!-- Node4&#45;&gt;Node3 -->
<g id="edge6" class="edge"><title>Node4&#45;&gt;Node3</title>
<path fill="none" stroke="midnightblue" d="M582.293,-326.135C699.072,-327.313 946.64,-326.307 1154,-302 1163.76,-300.856 1174.14,-299.12 1183.98,-297.23"/>
<polygon fill="midnightblue" stroke="midnightblue" points="582.12,-322.633 572.082,-326.023 582.043,-329.633 582.12,-322.633"/>
</g>
<!-- Node6 -->
<g id="node10" class="node"><title>Node6</title>
<a xlink:href="a00125.html" target="_top" xlink:title="Urho3D execution context. Provides access to subsystems, object factories and attributes, and event receivers.">
<polygon fill="none" stroke="red" points="822.5,-268.5 822.5,-289.5 919.5,-289.5 919.5,-268.5 822.5,-268.5"/>
<text text-anchor="middle" x="871" y="-276.5" font-family="FreeSans" font-size="10.00">Urho3D::Context</text>
</a>
</g>
<!-- Node4&#45;&gt;Node6 -->
<g id="edge12" class="edge"><title>Node4&#45;&gt;Node6</title>
<path fill="none" stroke="midnightblue" d="M582.221,-316.968C635.813,-310.483 712.761,-300.989 780,-292 793.762,-290.16 808.68,-288.07 822.379,-286.111"/>
<polygon fill="midnightblue" stroke="midnightblue" points="581.667,-313.509 572.159,-318.183 582.507,-320.459 581.667,-313.509"/>
</g>
<!-- Node5 -->
<g id="node8" class="node"><title>Node5</title>
<a xlink:href="a00282.html" target="_top" xlink:title="Reference count structure.">
<polygon fill="none" stroke="black" points="226,-314.5 226,-335.5 328,-335.5 328,-314.5 226,-314.5"/>
<text text-anchor="middle" x="277" y="-322.5" font-family="FreeSans" font-size="10.00">Urho3D::RefCount</text>
</a>
</g>
<!-- Node5&#45;&gt;Node4 -->
<g id="edge8" class="edge"><title>Node5&#45;&gt;Node4</title>
<path fill="none" stroke="#9a32cd" stroke-dasharray="5,2" d="M338.174,-325C375.024,-325 421.648,-325 457.767,-325"/>
<polygon fill="#9a32cd" stroke="#9a32cd" points="338.057,-321.5 328.057,-325 338.057,-328.5 338.057,-321.5"/>
<text text-anchor="middle" x="377" y="-329" font-family="FreeSans" font-size="10.00"> refCount_</text>
</g>
<!-- Node6&#45;&gt;Node3 -->
<g id="edge10" class="edge"><title>Node6&#45;&gt;Node3</title>
<path fill="none" stroke="#9a32cd" stroke-dasharray="5,2" d="M929.806,-280.314C1001.02,-281.905 1119.41,-284.551 1183.84,-285.991"/>
<polygon fill="#9a32cd" stroke="#9a32cd" points="929.73,-276.812 919.654,-280.087 929.573,-283.81 929.73,-276.812"/>
<text text-anchor="middle" x="1058" y="-289" font-family="FreeSans" font-size="10.00"> context_</text>
</g>
<!-- Node7 -->
<g id="node13" class="node"><title>Node7</title>
<a xlink:href="a00176.html" target="_top" xlink:title="Urho3D::HashMap\&lt; Urho3D\l::ShortStringHash, Urho3D\l::Vector\&lt; Urho3D::AttributeInfo \&gt; \&gt;">
<polygon fill="none" stroke="black" points="420.5,-245.5 420.5,-292.5 609.5,-292.5 609.5,-245.5 420.5,-245.5"/>
<text text-anchor="start" x="428.5" y="-279.5" font-family="FreeSans" font-size="10.00">Urho3D::HashMap&lt; Urho3D</text>
<text text-anchor="start" x="428.5" y="-266.5" font-family="FreeSans" font-size="10.00">::ShortStringHash, Urho3D</text>
<text text-anchor="middle" x="515" y="-253.5" font-family="FreeSans" font-size="10.00">::Vector&lt; Urho3D::AttributeInfo &gt; &gt;</text>
</a>
</g>
<!-- Node7&#45;&gt;Node6 -->
<g id="edge14" class="edge"><title>Node7&#45;&gt;Node6</title>
<path fill="none" stroke="#9a32cd" stroke-dasharray="5,2" d="M619.798,-263.853C668.557,-262.473 727.299,-262.255 780,-266 793.849,-266.984 808.795,-268.801 822.493,-270.771"/>
<polygon fill="#9a32cd" stroke="#9a32cd" points="619.439,-260.362 609.55,-264.164 619.652,-267.359 619.439,-260.362"/>
<text text-anchor="middle" x="704" y="-283" font-family="FreeSans" font-size="10.00"> attributes_</text>
<text text-anchor="middle" x="704" y="-270" font-family="FreeSans" font-size="10.00">networkAttributes_</text>
</g>
<!-- Node8 -->
<g id="node15" class="node"><title>Node8</title>
<a xlink:href="a00174.html" target="_top" xlink:title="Hash set/map base class.">
<polygon fill="none" stroke="black" points="223,-160.5 223,-181.5 331,-181.5 331,-160.5 223,-160.5"/>
<text text-anchor="middle" x="277" y="-168.5" font-family="FreeSans" font-size="10.00">Urho3D::HashBase</text>
</a>
</g>
<!-- Node8&#45;&gt;Node7 -->
<g id="edge16" class="edge"><title>Node8&#45;&gt;Node7</title>
<path fill="none" stroke="midnightblue" d="M307.647,-185.925C336.364,-199.671 380.644,-220.259 420,-236 428.025,-239.21 436.498,-242.412 444.946,-245.489"/>
<polygon fill="midnightblue" stroke="midnightblue" points="309.063,-182.722 298.534,-181.542 306.029,-189.031 309.063,-182.722"/>
</g>
<!-- Node13 -->
<g id="node27" class="node"><title>Node13</title>
<a xlink:href="a00176.html" target="_top" xlink:title="Urho3D::HashMap\&lt; Urho3D\l::ShortStringHash, Urho3D\l::SharedPtr\&lt; Urho3D::Object \&gt; \&gt;">
<polygon fill="none" stroke="black" points="426,-179.5 426,-226.5 604,-226.5 604,-179.5 426,-179.5"/>
<text text-anchor="start" x="434" y="-213.5" font-family="FreeSans" font-size="10.00">Urho3D::HashMap&lt; Urho3D</text>
<text text-anchor="start" x="434" y="-200.5" font-family="FreeSans" font-size="10.00">::ShortStringHash, Urho3D</text>
<text text-anchor="middle" x="515" y="-187.5" font-family="FreeSans" font-size="10.00">::SharedPtr&lt; Urho3D::Object &gt; &gt;</text>
</a>
</g>
<!-- Node8&#45;&gt;Node13 -->
<g id="edge32" class="edge"><title>Node8&#45;&gt;Node13</title>
<path fill="none" stroke="midnightblue" d="M341.111,-179.62C367.12,-183.117 397.61,-187.216 425.732,-190.998"/>
<polygon fill="midnightblue" stroke="midnightblue" points="341.383,-176.125 331.006,-178.261 340.45,-183.063 341.383,-176.125"/>
</g>
<!-- Node18 -->
<g id="node40" class="node"><title>Node18</title>
<a xlink:href="a00176.html" target="_top" xlink:title="Urho3D::HashMap\&lt; Urho3D\l::StringHash, Urho3D::\lMaterialShaderParameter \&gt;">
<polygon fill="none" stroke="black" points="628,-88.5 628,-135.5 780,-135.5 780,-88.5 628,-88.5"/>
<text text-anchor="start" x="636" y="-122.5" font-family="FreeSans" font-size="10.00">Urho3D::HashMap&lt; Urho3D</text>
<text text-anchor="start" x="636" y="-109.5" font-family="FreeSans" font-size="10.00">::StringHash, Urho3D::</text>
<text text-anchor="middle" x="704" y="-96.5" font-family="FreeSans" font-size="10.00">MaterialShaderParameter &gt;</text>
</a>
</g>
<!-- Node8&#45;&gt;Node18 -->
<g id="edge48" class="edge"><title>Node8&#45;&gt;Node18</title>
<path fill="none" stroke="midnightblue" d="M304.411,-155.736C318.253,-148.773 335.561,-141.167 352,-137 444.94,-113.44 555.797,-109.343 627.93,-109.717"/>
<polygon fill="midnightblue" stroke="midnightblue" points="302.693,-152.684 295.435,-160.403 305.922,-158.895 302.693,-152.684"/>
</g>
<!-- Node20 -->
<g id="node46" class="node"><title>Node20</title>
<a xlink:href="a00176.html" target="_top" xlink:title="Urho3D::HashMap\&lt; Urho3D\l::StringHash, Urho3D::\lSharedPtr\&lt; Urho3D::MaterialShader\lParameterAnimationInstance \&gt; \&gt;">
<polygon fill="none" stroke="black" points="962.5,-114 962.5,-174 1153.5,-174 1153.5,-114 962.5,-114"/>
<text text-anchor="start" x="970.5" y="-161" font-family="FreeSans" font-size="10.00">Urho3D::HashMap&lt; Urho3D</text>
<text text-anchor="start" x="970.5" y="-148" font-family="FreeSans" font-size="10.00">::StringHash, Urho3D::</text>
<text text-anchor="start" x="970.5" y="-135" font-family="FreeSans" font-size="10.00">SharedPtr&lt; Urho3D::MaterialShader</text>
<text text-anchor="middle" x="1058" y="-122" font-family="FreeSans" font-size="10.00">ParameterAnimationInstance &gt; &gt;</text>
</a>
</g>
<!-- Node8&#45;&gt;Node20 -->
<g id="edge56" class="edge"><title>Node8&#45;&gt;Node20</title>
<path fill="none" stroke="midnightblue" d="M341.659,-168.765C479.108,-164.013 800.924,-152.887 962.252,-147.31"/>
<polygon fill="midnightblue" stroke="midnightblue" points="341.171,-165.279 331.298,-169.123 341.413,-172.275 341.171,-165.279"/>
</g>
<!-- Node9 -->
<g id="node17" class="node"><title>Node9</title>
<a xlink:href="a00177.html" target="_top" xlink:title="Hash set/map node base class.">
<polygon fill="none" stroke="black" points="0,-187.5 0,-208.5 134,-208.5 134,-187.5 0,-187.5"/>
<text text-anchor="middle" x="67" y="-195.5" font-family="FreeSans" font-size="10.00">Urho3D::HashNodeBase</text>
</a>
</g>
<!-- Node9&#45;&gt;Node8 -->
<g id="edge18" class="edge"><title>Node9&#45;&gt;Node8</title>
<path fill="none" stroke="#9a32cd" stroke-dasharray="5,2" d="M144.272,-188.065C170.378,-184.709 198.946,-181.035 222.87,-177.96"/>
<polygon fill="#9a32cd" stroke="#9a32cd" points="143.495,-184.636 134.023,-189.383 144.387,-191.579 143.495,-184.636"/>
<text text-anchor="middle" x="177" y="-216" font-family="FreeSans" font-size="10.00"> ptrs_</text>
<text text-anchor="middle" x="177" y="-203" font-family="FreeSans" font-size="10.00">tail_</text>
<text text-anchor="middle" x="177" y="-190" font-family="FreeSans" font-size="10.00">head_</text>
</g>
<!-- Node9&#45;&gt;Node9 -->
<g id="edge20" class="edge"><title>Node9&#45;&gt;Node9</title>
<path fill="none" stroke="#9a32cd" stroke-dasharray="5,2" d="M46.7282,-218.427C48.292,-223.349 55.0493,-227 67,-227 86.1211,-227 91.9471,-217.653 84.4779,-208.708"/>
<polygon fill="#9a32cd" stroke="#9a32cd" points="50.1229,-219.286 49.5221,-208.708 43.3954,-217.352 50.1229,-219.286"/>
<text text-anchor="middle" x="67" y="-257" font-family="FreeSans" font-size="10.00"> next_</text>
<text text-anchor="middle" x="67" y="-244" font-family="FreeSans" font-size="10.00">prev_</text>
<text text-anchor="middle" x="67" y="-231" font-family="FreeSans" font-size="10.00">down_</text>
</g>
<!-- Node10 -->
<g id="node20" class="node"><title>Node10</title>
<a xlink:href="a00052.html" target="_top" xlink:title="Allocator memory block.">
<polygon fill="none" stroke="red" points="3.5,-116.5 3.5,-137.5 130.5,-137.5 130.5,-116.5 3.5,-116.5"/>
<text text-anchor="middle" x="67" y="-124.5" font-family="FreeSans" font-size="10.00">Urho3D::AllocatorBlock</text>
</a>
</g>
<!-- Node10&#45;&gt;Node8 -->
<g id="edge22" class="edge"><title>Node10&#45;&gt;Node8</title>
<path fill="none" stroke="#9a32cd" stroke-dasharray="5,2" d="M127.275,-139.629C158.768,-146.228 196.864,-154.21 226.747,-160.471"/>
<polygon fill="#9a32cd" stroke="#9a32cd" points="127.805,-136.164 117.3,-137.539 126.37,-143.015 127.805,-136.164"/>
<text text-anchor="middle" x="177" y="-158" font-family="FreeSans" font-size="10.00"> allocator_</text>
</g>
<!-- Node10&#45;&gt;Node10 -->
<g id="edge24" class="edge"><title>Node10&#45;&gt;Node10</title>
<path fill="none" stroke="#9a32cd" stroke-dasharray="5,2" d="M46.7282,-147.427C48.292,-152.349 55.0493,-156 67,-156 86.1211,-156 91.9471,-146.653 84.4779,-137.708"/>
<polygon fill="#9a32cd" stroke="#9a32cd" points="50.1229,-148.286 49.5221,-137.708 43.3954,-146.352 50.1229,-148.286"/>
<text text-anchor="middle" x="67" y="-160" font-family="FreeSans" font-size="10.00"> next_</text>
</g>
<!-- Node11 -->
<g id="node23" class="node"><title>Node11</title>
<a xlink:href="a00269.html" target="_top" xlink:title="Urho3D::PODVector\&lt;\l Urho3D::Object * \&gt;">
<polygon fill="none" stroke="black" points="455.5,-51 455.5,-85 574.5,-85 574.5,-51 455.5,-51"/>
<text text-anchor="start" x="463.5" y="-72" font-family="FreeSans" font-size="10.00">Urho3D::PODVector&lt;</text>
<text text-anchor="middle" x="515" y="-59" font-family="FreeSans" font-size="10.00"> Urho3D::Object * &gt;</text>
</a>
</g>
<!-- Node11&#45;&gt;Node6 -->
<g id="edge26" class="edge"><title>Node11&#45;&gt;Node6</title>
<path fill="none" stroke="#9a32cd" stroke-dasharray="5,2" d="M584.463,-57.2816C653.321,-48.3943 752.406,-40.86 780,-66 811.841,-95.01 770.31,-226.004 798,-259 804.251,-266.449 812.988,-271.262 822.251,-274.342"/>
<polygon fill="#9a32cd" stroke="#9a32cd" points="583.987,-53.8139 574.535,-58.5989 584.908,-60.7531 583.987,-53.8139"/>
<text text-anchor="middle" x="704" y="-70" font-family="FreeSans" font-size="10.00"> eventSenders_</text>
</g>
<!-- Node12 -->
<g id="node25" class="node"><title>Node12</title>
<a xlink:href="a00378.html" target="_top" xlink:title="Vector base class.">
<polygon fill="none" stroke="black" points="220,-30.5 220,-51.5 334,-51.5 334,-30.5 220,-30.5"/>
<text text-anchor="middle" x="277" y="-38.5" font-family="FreeSans" font-size="10.00">Urho3D::VectorBase</text>
</a>
</g>
<!-- Node12&#45;&gt;Node11 -->
<g id="edge28" class="edge"><title>Node12&#45;&gt;Node11</title>
<path fill="none" stroke="midnightblue" d="M344.114,-48.6137C379.026,-52.5743 421.346,-57.3754 455.137,-61.2088"/>
<polygon fill="midnightblue" stroke="midnightblue" points="344.338,-45.1168 334.007,-47.4672 343.549,-52.0722 344.338,-45.1168"/>
</g>
<!-- Node19 -->
<g id="node43" class="node"><title>Node19</title>
<a xlink:href="a00374.html" target="_top" xlink:title="Urho3D::Vector\&lt; Urho3D\l::TechniqueEntry \&gt;">
<polygon fill="none" stroke="black" points="1304,-24 1304,-58 1442,-58 1442,-24 1304,-24"/>
<text text-anchor="start" x="1312" y="-45" font-family="FreeSans" font-size="10.00">Urho3D::Vector&lt; Urho3D</text>
<text text-anchor="middle" x="1373" y="-32" font-family="FreeSans" font-size="10.00">::TechniqueEntry &gt;</text>
</a>
</g>
<!-- Node12&#45;&gt;Node19 -->
<g id="edge52" class="edge"><title>Node12&#45;&gt;Node19</title>
<path fill="none" stroke="midnightblue" d="M344.317,-33.1866C391.923,-28.3281 457.286,-23 515,-23 515,-23 515,-23 1058,-23 1142.77,-23 1240.16,-29.5774 1303.93,-34.7802"/>
<polygon fill="midnightblue" stroke="midnightblue" points="343.719,-29.7299 334.135,-34.2463 344.444,-36.6923 343.719,-29.7299"/>
</g>
<!-- Node13&#45;&gt;Node6 -->
<g id="edge30" class="edge"><title>Node13&#45;&gt;Node6</title>
<path fill="none" stroke="#9a32cd" stroke-dasharray="5,2" d="M614.111,-206.909C665.36,-211.817 727.914,-222.417 780,-245 789.299,-249.032 788.938,-254.462 798,-259 805.637,-262.824 814.103,-265.996 822.483,-268.6"/>
<polygon fill="#9a32cd" stroke="#9a32cd" points="614.291,-203.411 604.018,-206.001 613.664,-210.383 614.291,-203.411"/>
<text text-anchor="middle" x="704" y="-249" font-family="FreeSans" font-size="10.00"> subsystems_</text>
</g>
<!-- Node14 -->
<g id="node30" class="node"><title>Node14</title>
<a xlink:href="a00200.html" target="_top" xlink:title="Urho3D::LinkedList\l\&lt; Urho3D::EventHandler \&gt;">
<polygon fill="none" stroke="red" points="798,-216 798,-250 944,-250 944,-216 798,-216"/>
<text text-anchor="start" x="806" y="-237" font-family="FreeSans" font-size="10.00">Urho3D::LinkedList</text>
<text text-anchor="middle" x="871" y="-224" font-family="FreeSans" font-size="10.00">&lt; Urho3D::EventHandler &gt;</text>
</a>
</g>
<!-- Node14&#45;&gt;Node3 -->
<g id="edge34" class="edge"><title>Node14&#45;&gt;Node3</title>
<path fill="none" stroke="#9a32cd" stroke-dasharray="5,2" d="M954.29,-237.979C1011.01,-242.38 1087.56,-250.3 1154,-264 1169.07,-267.108 1185.45,-271.953 1199.05,-276.397"/>
<polygon fill="#9a32cd" stroke="#9a32cd" points="954.53,-234.487 944.294,-237.224 954.002,-241.468 954.53,-234.487"/>
<text text-anchor="middle" x="1058" y="-268" font-family="FreeSans" font-size="10.00"> eventHandlers_</text>
</g>
<!-- Node15 -->
<g id="node32" class="node"><title>Node15</title>
<a xlink:href="a00358.html" target="_top" xlink:title="Low&#45;resolution operating system timer.">
<polygon fill="none" stroke="black" points="1186,-236.5 1186,-257.5 1272,-257.5 1272,-236.5 1186,-236.5"/>
<text text-anchor="middle" x="1229" y="-244.5" font-family="FreeSans" font-size="10.00">Urho3D::Timer</text>
</a>
</g>
<!-- Node15&#45;&gt;Node2 -->
<g id="edge36" class="edge"><title>Node15&#45;&gt;Node2</title>
<path fill="none" stroke="#9a32cd" stroke-dasharray="5,2" d="M1282.28,-246.471C1337.89,-245.918 1424.51,-245.058 1479.47,-244.512"/>
<polygon fill="#9a32cd" stroke="#9a32cd" points="1282.23,-242.971 1272.27,-246.57 1282.3,-249.971 1282.23,-242.971"/>
<text text-anchor="middle" x="1373" y="-250" font-family="FreeSans" font-size="10.00"> useTimer_</text>
</g>
<!-- Node16 -->
<g id="node34" class="node"><title>Node16</title>
<a xlink:href="a00343.html" target="_top" xlink:title="String class.">
<polygon fill="none" stroke="black" points="1185,-165.5 1185,-186.5 1273,-186.5 1273,-165.5 1185,-165.5"/>
<text text-anchor="middle" x="1229" y="-173.5" font-family="FreeSans" font-size="10.00">Urho3D::String</text>
</a>
</g>
<!-- Node16&#45;&gt;Node2 -->
<g id="edge38" class="edge"><title>Node16&#45;&gt;Node2</title>
<path fill="none" stroke="#9a32cd" stroke-dasharray="5,2" d="M1283.19,-188.202C1340.46,-201.096 1429.84,-221.223 1484.16,-233.453"/>
<polygon fill="#9a32cd" stroke="#9a32cd" points="1283.76,-184.743 1273.24,-185.961 1282.22,-191.572 1283.76,-184.743"/>
<text text-anchor="middle" x="1373" y="-227" font-family="FreeSans" font-size="10.00"> name_</text>
</g>
<!-- Node16&#45;&gt;Node16 -->
<g id="edge40" class="edge"><title>Node16&#45;&gt;Node16</title>
<path fill="none" stroke="#9a32cd" stroke-dasharray="5,2" d="M1202.32,-196.055C1204.07,-201.164 1212.96,-205 1229,-205 1254.03,-205 1261.66,-195.653 1251.88,-186.708"/>
<polygon fill="#9a32cd" stroke="#9a32cd" points="1205.6,-197.29 1206.12,-186.708 1199.11,-194.655 1205.6,-197.29"/>
<text text-anchor="middle" x="1229" y="-209" font-family="FreeSans" font-size="10.00"> EMPTY</text>
</g>
<!-- Node17 -->
<g id="node37" class="node"><title>Node17</title>
<a xlink:href="a00344.html" target="_top" xlink:title="32&#45;bit hash value for a string.">
<polygon fill="none" stroke="black" points="1172.5,-316.5 1172.5,-337.5 1285.5,-337.5 1285.5,-316.5 1172.5,-316.5"/>
<text text-anchor="middle" x="1229" y="-324.5" font-family="FreeSans" font-size="10.00">Urho3D::StringHash</text>
</a>
</g>
<!-- Node17&#45;&gt;Node2 -->
<g id="edge42" class="edge"><title>Node17&#45;&gt;Node2</title>
<path fill="none" stroke="#9a32cd" stroke-dasharray="5,2" d="M1295.98,-325.035C1340.07,-321.139 1397.61,-310.916 1442,-285 1452.62,-278.802 1449.64,-270.617 1460,-264 1465.94,-260.209 1472.6,-257.124 1479.4,-254.616"/>
<polygon fill="#9a32cd" stroke="#9a32cd" points="1295.63,-321.552 1285.94,-325.834 1296.18,-328.529 1295.63,-321.552"/>
<text text-anchor="middle" x="1373" y="-328" font-family="FreeSans" font-size="10.00"> nameHash_</text>
</g>
<!-- Node17&#45;&gt;Node17 -->
<g id="edge44" class="edge"><title>Node17&#45;&gt;Node17</title>
<path fill="none" stroke="#9a32cd" stroke-dasharray="5,2" d="M1202.32,-347.055C1204.07,-352.164 1212.96,-356 1229,-356 1254.03,-356 1261.66,-346.653 1251.88,-337.708"/>
<polygon fill="#9a32cd" stroke="#9a32cd" points="1205.6,-348.29 1206.12,-337.708 1199.11,-345.655 1205.6,-348.29"/>
<text text-anchor="middle" x="1229" y="-360" font-family="FreeSans" font-size="10.00"> ZERO</text>
</g>
<!-- Node18&#45;&gt;Node1 -->
<g id="edge46" class="edge"><title>Node18&#45;&gt;Node1</title>
<path fill="none" stroke="#9a32cd" stroke-dasharray="5,2" d="M790.586,-105.901C862.227,-101.38 966.672,-96 1058,-96 1058,-96 1058,-96 2092,-96 2147.56,-96 2210.99,-102.958 2253.67,-108.666"/>
<polygon fill="#9a32cd" stroke="#9a32cd" points="790.016,-102.43 780.26,-106.561 790.463,-109.416 790.016,-102.43"/>
<text text-anchor="middle" x="1531" y="-100" font-family="FreeSans" font-size="10.00"> shaderParameters_</text>
</g>
<!-- Node19&#45;&gt;Node1 -->
<g id="edge50" class="edge"><title>Node19&#45;&gt;Node1</title>
<path fill="none" stroke="#9a32cd" stroke-dasharray="5,2" d="M1452.38,-44.3245C1520.46,-46.8885 1621.16,-50 1709,-50 1709,-50 1709,-50 2092,-50 2157.56,-50 2174.28,-59.8808 2236,-82 2253.44,-88.2491 2272.14,-98.0267 2285.35,-105.496"/>
<polygon fill="#9a32cd" stroke="#9a32cd" points="1452.29,-40.8185 1442.16,-43.9345 1452.02,-47.8134 1452.29,-40.8185"/>
<text text-anchor="middle" x="1863" y="-54" font-family="FreeSans" font-size="10.00"> techniques_</text>
</g>
<!-- Node20&#45;&gt;Node1 -->
<g id="edge54" class="edge"><title>Node20&#45;&gt;Node1</title>
<path fill="none" stroke="#9a32cd" stroke-dasharray="5,2" d="M1163.84,-140.476C1224.96,-138.734 1303.31,-137 1373,-137 1373,-137 1373,-137 2092,-137 2147.59,-137 2211.01,-129.694 2253.68,-123.7"/>
<polygon fill="#9a32cd" stroke="#9a32cd" points="1163.69,-136.978 1153.8,-140.766 1163.89,-143.976 1163.69,-136.978"/>
<text text-anchor="start" x="1620.5" y="-154" font-family="FreeSans" font-size="10.00"> materialShaderParameterAnimation</text>
<text text-anchor="middle" x="1709" y="-141" font-family="FreeSans" font-size="10.00">Instances_</text>
</g>
<!-- Node21 -->
<g id="node49" class="node"><title>Node21</title>
<a xlink:href="a00079.html" target="_top" xlink:title="Shadow depth bias parameters.">
<polygon fill="none" stroke="black" points="2024.5,-0.5 2024.5,-21.5 2159.5,-21.5 2159.5,-0.5 2024.5,-0.5"/>
<text text-anchor="middle" x="2092" y="-8.5" font-family="FreeSans" font-size="10.00">Urho3D::BiasParameters</text>
</a>
</g>
<!-- Node21&#45;&gt;Node1 -->
<g id="edge58" class="edge"><title>Node21&#45;&gt;Node1</title>
<path fill="none" stroke="#9a32cd" stroke-dasharray="5,2" d="M2169.87,-5.53927C2192.39,-7.03399 2216.21,-11.8065 2236,-23 2269.43,-41.9101 2290.53,-85.1662 2298.9,-105.311"/>
<polygon fill="#9a32cd" stroke="#9a32cd" points="2169.78,-2.03171 2159.63,-5.07186 2169.46,-9.02442 2169.78,-2.03171"/>
<text text-anchor="middle" x="2207" y="-27" font-family="FreeSans" font-size="10.00"> depthBias_</text>
</g>
<!-- Node22 -->
<g id="node51" class="node"><title>Node22</title>
<a xlink:href="a00320.html" target="_top" xlink:title="Urho3D::SharedPtr\&lt;\l Urho3D::Texture \&gt;">
<polygon fill="none" stroke="black" points="2034,-214 2034,-248 2150,-248 2150,-214 2034,-214"/>
<text text-anchor="start" x="2042" y="-235" font-family="FreeSans" font-size="10.00">Urho3D::SharedPtr&lt;</text>
<text text-anchor="middle" x="2092" y="-222" font-family="FreeSans" font-size="10.00"> Urho3D::Texture &gt;</text>
</a>
</g>
<!-- Node22&#45;&gt;Node1 -->
<g id="edge60" class="edge"><title>Node22&#45;&gt;Node1</title>
<path fill="none" stroke="#9a32cd" stroke-dasharray="5,2" d="M2160.21,-224.144C2185.43,-219.306 2213.36,-211.059 2236,-197 2264.99,-178.994 2287.38,-144.073 2297.34,-126.557"/>
<polygon fill="#9a32cd" stroke="#9a32cd" points="2159.56,-220.704 2150.33,-225.896 2160.78,-227.597 2159.56,-220.704"/>
<text text-anchor="middle" x="2207" y="-223" font-family="FreeSans" font-size="10.00"> textures_</text>
</g>
<!-- Node22&#45;&gt;Node23 -->
<g id="edge68" class="edge"><title>Node22&#45;&gt;Node23</title>
<path fill="none" stroke="#9a32cd" stroke-dasharray="5,2" d="M2023.38,-221.103C1993.57,-219.002 1958.56,-219.534 1928,-228 1908.22,-233.48 1888.41,-246.764 1875.95,-256.305"/>
<polygon fill="#9a32cd" stroke="#9a32cd" points="2023.43,-224.619 2033.68,-221.947 2024,-217.643 2023.43,-224.619"/>
<text text-anchor="middle" x="1967" y="-232" font-family="FreeSans" font-size="10.00"> backupTexture_</text>
</g>
<!-- Node23&#45;&gt;Node22 -->
<g id="edge62" class="edge"><title>Node23&#45;&gt;Node22</title>
<path fill="none" stroke="#9a32cd" stroke-dasharray="5,2" d="M1920.16,-258.323C1946.33,-254.32 1977.75,-249.473 2006,-245 2014.96,-243.581 2024.45,-242.058 2033.72,-240.558"/>
<polygon fill="#9a32cd" stroke="#9a32cd" points="1919.39,-254.9 1910.03,-259.87 1920.45,-261.82 1919.39,-254.9"/>
<text text-anchor="middle" x="1967" y="-261" font-family="FreeSans" font-size="10.00"> ptr_</text>
</g>
<!-- Node24 -->
<g id="node56" class="node"><title>Node24</title>
<a xlink:href="a00171.html" target="_top" xlink:title="Base class for GPU resources.">
<polygon fill="none" stroke="red" points="1475.5,-474.5 1475.5,-495.5 1586.5,-495.5 1586.5,-474.5 1475.5,-474.5"/>
<text text-anchor="middle" x="1531" y="-482.5" font-family="FreeSans" font-size="10.00">Urho3D::GPUObject</text>
</a>
</g>
<!-- Node24&#45;&gt;Node23 -->
<g id="edge66" class="edge"><title>Node24&#45;&gt;Node23</title>
<path fill="none" stroke="midnightblue" d="M1587.69,-471.132C1592.62,-469.299 1597.46,-467.26 1602,-465 1709.95,-411.277 1818.1,-310.746 1852.09,-277.776"/>
<polygon fill="midnightblue" stroke="midnightblue" points="1586.47,-467.851 1578.15,-474.407 1588.74,-474.473 1586.47,-467.851"/>
</g>
<!-- Node25 -->
<g id="node59" class="node"><title>Node25</title>
<a xlink:href="a00100.html" target="_top" xlink:title="RGBA color.">
<polygon fill="none" stroke="black" points="1489,-273.5 1489,-294.5 1573,-294.5 1573,-273.5 1489,-273.5"/>
<text text-anchor="middle" x="1531" y="-281.5" font-family="FreeSans" font-size="10.00">Urho3D::Color</text>
</a>
</g>
<!-- Node25&#45;&gt;Node23 -->
<g id="edge70" class="edge"><title>Node25&#45;&gt;Node23</title>
<path fill="none" stroke="#9a32cd" stroke-dasharray="5,2" d="M1583.31,-281.322C1647.25,-278.048 1754.5,-272.556 1815.95,-269.409"/>
<polygon fill="#9a32cd" stroke="#9a32cd" points="1582.86,-277.84 1573.05,-281.847 1583.21,-284.831 1582.86,-277.84"/>
<text text-anchor="middle" x="1709" y="-283" font-family="FreeSans" font-size="10.00"> borderColor_</text>
</g>
<!-- Node25&#45;&gt;Node25 -->
<g id="edge72" class="edge"><title>Node25&#45;&gt;Node25</title>
<path fill="none" stroke="#9a32cd" stroke-dasharray="5,2" d="M1501.73,-304.055C1503.65,-309.164 1513.41,-313 1531,-313 1558.46,-313 1566.83,-303.653 1556.1,-294.708"/>
<polygon fill="#9a32cd" stroke="#9a32cd" points="1505.02,-305.266 1505.9,-294.708 1498.63,-302.416 1505.02,-305.266"/>
<text text-anchor="middle" x="1531" y="-447" font-family="FreeSans" font-size="10.00"> CYAN</text>
<text text-anchor="middle" x="1531" y="-434" font-family="FreeSans" font-size="10.00">GRAY</text>
<text text-anchor="middle" x="1531" y="-421" font-family="FreeSans" font-size="10.00">YELLOW</text>
<text text-anchor="middle" x="1531" y="-408" font-family="FreeSans" font-size="10.00">MAGENTA</text>
<text text-anchor="middle" x="1531" y="-395" font-family="FreeSans" font-size="10.00">WHITE</text>
<text text-anchor="middle" x="1531" y="-382" font-family="FreeSans" font-size="10.00">TRANSPARENT</text>
<text text-anchor="middle" x="1531" y="-369" font-family="FreeSans" font-size="10.00">BLUE</text>
<text text-anchor="middle" x="1531" y="-356" font-family="FreeSans" font-size="10.00">BLACK</text>
<text text-anchor="middle" x="1531" y="-343" font-family="FreeSans" font-size="10.00">RED</text>
<text text-anchor="middle" x="1531" y="-330" font-family="FreeSans" font-size="10.00">GREEN</text>
<text text-anchor="middle" x="1531" y="-317" font-family="FreeSans" font-size="10.00">...</text>
</g>
</g>
</svg>
        <g id="navigator" transform="translate(0 0)" fill="#404254">
                <rect fill="#f2f5e9" fill-opacity="0.5" stroke="#606060" stroke-width=".5" x="0" y="0" width="60" height="60"/>
                <use id="zoomplus" xlink:href="#zoomPlus" x="17" y="9" onmousedown="handleZoom(evt,'in')"/>
                <use id="zoomminus" xlink:href="#zoomMin" x="42" y="9" onmousedown="handleZoom(evt,'out')"/>
                <use id="reset" xlink:href="#resetDef" x="30" y="36" onmousedown="handleReset()"/>
                <g id="arrowUp" xlink:href="#dirArrow" transform="translate(30 24)" onmousedown="handlePan(0,-1)">
                  <use xlink:href="#rim" fill="#404040">
                        <set attributeName="fill" to="#808080" begin="arrowUp.mouseover" end="arrowUp.mouseout"/>
                  </use>
                  <path fill="none" stroke="white" stroke-width="1.5" d="M0,-3.0v7 M-2.5,-0.5L0,-3.0L2.5,-0.5"/>
                </g>
                <g id="arrowRight" xlink:href="#dirArrow" transform="rotate(90) translate(36 -43)" onmousedown="handlePan(1,0)">
                  <use xlink:href="#rim" fill="#404040">
                        <set attributeName="fill" to="#808080" begin="arrowRight.mouseover" end="arrowRight.mouseout"/>
                  </use>
                  <path fill="none" stroke="white" stroke-width="1.5" d="M0,-3.0v7 M-2.5,-0.5L0,-3.0L2.5,-0.5"/>
                </g>
                <g id="arrowDown" xlink:href="#dirArrow" transform="rotate(180) translate(-30 -48)" onmousedown="handlePan(0,1)">
                  <use xlink:href="#rim" fill="#404040">
                        <set attributeName="fill" to="#808080" begin="arrowDown.mouseover" end="arrowDown.mouseout"/>
                  </use>
                  <path fill="none" stroke="white" stroke-width="1.5" d="M0,-3.0v7 M-2.5,-0.5L0,-3.0L2.5,-0.5"/>
                </g>
                <g id="arrowLeft" xlink:href="#dirArrow" transform="rotate(270) translate(-36 17)" onmousedown="handlePan(-1,0)">
                  <use xlink:href="#rim" fill="#404040">
                        <set attributeName="fill" to="#808080" begin="arrowLeft.mouseover" end="arrowLeft.mouseout"/>
                  </use>
                  <path fill="none" stroke="white" stroke-width="1.5" d="M0,-3.0v7 M-2.5,-0.5L0,-3.0L2.5,-0.5"/>
                </g>
        </g>
        <svg viewBox="0 0 15 15" width="100%" height="30px" preserveAspectRatio="xMaxYMin meet">
         <g id="arrow_out" transform="scale(0.3 0.3)">
          <a xlink:href="a01154_org.svg" target="_base">
           <rect id="button" ry="5" rx="5" y="6" x="6" height="38" width="38"
                fill="#f2f5e9" fill-opacity="0.5" stroke="#606060" stroke-width="1.0"/>
           <path id="arrow"
             d="M 11.500037,31.436501 C 11.940474,20.09759 22.043105,11.32322 32.158766,21.979434 L 37.068811,17.246167 C 37.068811,17.246167 37.088388,32 37.088388,32 L 22.160133,31.978069 C 22.160133,31.978069 26.997745,27.140456 26.997745,27.140456 C 18.528582,18.264221 13.291696,25.230495 11.500037,31.436501 z"
             style="fill:#404040;"/>
          </a>
         </g>
        </svg>
</svg>
