<?xml version="1.0" encoding="UTF-8" standalone="no"?>
<!DOCTYPE svg PUBLIC "-//W3C//DTD SVG 1.1//EN"
 "http://www.w3.org/Graphics/SVG/1.1/DTD/svg11.dtd">
<!-- Generated by graphviz version 2.26.3 (20100126.1600)
 -->
<!-- Title: Urho3D::RenderTargetInfo Pages: 1 -->
<svg width="323pt" height="114pt"
 viewBox="0.00 0.00 323.00 114.00" xmlns="http://www.w3.org/2000/svg" xmlns:xlink="http://www.w3.org/1999/xlink">
<g id="graph1" class="graph" transform="scale(1 1) rotate(0) translate(4 110)">
<title>Urho3D::RenderTargetInfo</title>
<!-- Node1 -->
<g id="node1" class="node"><title>Node1</title>
<polygon fill="#bfbfbf" stroke="black" points="58.5,-0.5 58.5,-21.5 197.5,-21.5 197.5,-0.5 58.5,-0.5"/>
<text text-anchor="middle" x="128" y="-8.5" font-family="FreeSans" font-size="10.00">Urho3D::RenderTargetInfo</text>
</g>
<!-- Node2 -->
<g id="node2" class="node"><title>Node2</title>
<a xlink:href="a00314.html" target="_top" xlink:title="String class.">
<polygon fill="none" stroke="black" points="0,-84.5 0,-105.5 88,-105.5 88,-84.5 0,-84.5"/>
<text text-anchor="middle" x="44" y="-92.5" font-family="FreeSans" font-size="10.00">Urho3D::String</text>
</a>
</g>
<!-- Node2&#45;&gt;Node1 -->
<g id="edge2" class="edge"><title>Node2&#45;&gt;Node1</title>
<path fill="none" stroke="#9a32cd" stroke-dasharray="5,2" d="M61.7703,-77.2297C78.6553,-60.3447 103.481,-35.5195 117.448,-21.5523"/>
<polygon fill="#9a32cd" stroke="#9a32cd" points="59.2349,-74.8154 54.6387,-84.3613 64.1846,-79.7651 59.2349,-74.8154"/>
<text text-anchor="middle" x="116" y="-57" font-family="FreeSans" font-size="10.00"> tag_</text>
<text text-anchor="middle" x="116" y="-44" font-family="FreeSans" font-size="10.00">name_</text>
</g>
<!-- Node2&#45;&gt;Node2 -->
<g id="edge4" class="edge"><title>Node2&#45;&gt;Node2</title>
<path fill="none" stroke="#9a32cd" stroke-dasharray="5,2" d="M98.2578,-101.188C103.019,-99.8824 106,-97.8198 106,-95 106,-90.4883 98.3686,-87.9152 88.0244,-87.2807"/>
<polygon fill="#9a32cd" stroke="#9a32cd" points="97.3961,-97.7775 88.0244,-102.719 98.4324,-104.7 97.3961,-97.7775"/>
<text text-anchor="middle" x="123" y="-92.5" font-family="FreeSans" font-size="10.00"> EMPTY</text>
</g>
<!-- Node3 -->
<g id="node5" class="node"><title>Node3</title>
<a xlink:href="a00168.html" target="_top" xlink:title="Two&#45;dimensional vector with integer values.">
<polygon fill="none" stroke="black" points="158,-84.5 158,-105.5 266,-105.5 266,-84.5 158,-84.5"/>
<text text-anchor="middle" x="212" y="-92.5" font-family="FreeSans" font-size="10.00">Urho3D::IntVector2</text>
</a>
</g>
<!-- Node3&#45;&gt;Node1 -->
<g id="edge6" class="edge"><title>Node3&#45;&gt;Node1</title>
<path fill="none" stroke="#9a32cd" stroke-dasharray="5,2" d="M194.23,-77.2297C177.345,-60.3447 152.519,-35.5195 138.552,-21.5523"/>
<polygon fill="#9a32cd" stroke="#9a32cd" points="191.815,-79.7651 201.361,-84.3613 196.765,-74.8154 191.815,-79.7651"/>
<text text-anchor="middle" x="196" y="-50.5" font-family="FreeSans" font-size="10.00"> size_</text>
</g>
<!-- Node3&#45;&gt;Node3 -->
<g id="edge8" class="edge"><title>Node3&#45;&gt;Node3</title>
<path fill="none" stroke="#9a32cd" stroke-dasharray="5,2" d="M275.964,-100.949C280.934,-99.6369 284,-97.6538 284,-95 284,-90.8574 276.529,-88.3492 266.007,-87.4754"/>
<polygon fill="#9a32cd" stroke="#9a32cd" points="275.337,-97.5047 266.007,-102.525 276.431,-104.419 275.337,-97.5047"/>
<text text-anchor="middle" x="299.5" y="-92.5" font-family="FreeSans" font-size="10.00"> ZERO</text>
</g>
</g>
</svg>
