<?xml version="1.0" encoding="UTF-8" standalone="no"?>
<!DOCTYPE svg PUBLIC "-//W3C//DTD SVG 1.1//EN"
 "http://www.w3.org/Graphics/SVG/1.1/DTD/svg11.dtd">
<!-- Generated by graphviz version 2.26.3 (20100126.1600)
 -->
<!-- Title: Urho3D::LuaScript Pages: 1 -->
<!--zoomable 935 -->
<svg id="main" version="1.1" xmlns="http://www.w3.org/2000/svg" xmlns:xlink="http://www.w3.org/1999/xlink" xml:space="preserve" onload="init(evt)">
        <defs>
                <circle id="rim" cx="0" cy="0" r="7"/>
                <circle id="rim2" cx="0" cy="0" r="3.5"/>
                <g id="zoomPlus">
                        <use xlink:href="#rim" fill="#404040">
                                <set attributeName="fill" to="#808080" begin="zoomplus.mouseover" end="zoomplus.mouseout"/>
                        </use>
                        <path d="M-4,0h8M0,-4v8" fill="none" stroke="white" stroke-width="1.5" pointer-events="none"/>
                </g>
                <g id="zoomMin">
                        <use xlink:href="#rim" fill="#404040">
                                <set attributeName="fill" to="#808080" begin="zoomminus.mouseover" end="zoomminus.mouseout"/>
                        </use>
                        <path d="M-4,0h8" fill="none" stroke="white" stroke-width="1.5" pointer-events="none"/>
                </g>
                <g id="dirArrow">
                        <path fill="none" stroke="white" stroke-width="1.5" d="M0,-3.0v7 M-2.5,-0.5L0,-3.0L2.5,-0.5"/>
                </g>
               <g id="resetDef">
                       <use xlink:href="#rim2" fill="#404040">
                               <set attributeName="fill" to="#808080" begin="reset.mouseover" end="reset.mouseout"/>
                       </use>
               </g>
        </defs>

<script type="text/javascript">
var viewWidth = 1228;
var viewHeight = 935;
var sectionId = 'dynsection-1';
</script>
<script xlink:href="svgpan.js"/>
<svg id="graph" class="graph">
<g id="viewport">
<title>Urho3D::LuaScript</title>
<!-- Node1 -->
<g id="node1" class="node"><title>Node1</title>
<polygon fill="#bfbfbf" stroke="black" points="1095,-101.5 1095,-122.5 1199,-122.5 1199,-101.5 1095,-101.5"/>
<text text-anchor="middle" x="1147" y="-109.5" font-family="FreeSans" font-size="10.00">Urho3D::LuaScript</text>
</g>
<!-- Node2 -->
<g id="node2" class="node"><title>Node2</title>
<a xlink:href="a00201.html" target="_top" xlink:title="Base class for objects with type identification, subsystem access and event sending/receiving capabil...">
<polygon fill="none" stroke="black" points="455,-96.5 455,-117.5 545,-117.5 545,-96.5 455,-96.5"/>
<text text-anchor="middle" x="500" y="-104.5" font-family="FreeSans" font-size="10.00">Urho3D::Object</text>
</a>
</g>
<!-- Node2&#45;&gt;Node1 -->
<g id="edge2" class="edge"><title>Node2&#45;&gt;Node1</title>
<path fill="none" stroke="midnightblue" d="M555.131,-97.3242C564.739,-95.7773 574.649,-94.2702 584,-93 617.655,-88.4283 626.113,-87.296 660,-85 835.625,-73.1006 882.778,-46.6967 1056,-78 1080.73,-82.4688 1107.5,-93.2535 1125.56,-101.488"/>
<polygon fill="midnightblue" stroke="midnightblue" points="554.564,-93.8703 545.262,-98.9425 555.697,-100.778 554.564,-93.8703"/>
</g>
<!-- Node15 -->
<g id="node34" class="node"><title>Node15</title>
<a xlink:href="a00119.html" target="_top" xlink:title="Internal helper class for invoking event handler functions.">
<polygon fill="none" stroke="black" points="704,-138.5 704,-159.5 828,-159.5 828,-138.5 704,-138.5"/>
<text text-anchor="middle" x="766" y="-146.5" font-family="FreeSans" font-size="10.00">Urho3D::EventHandler</text>
</a>
</g>
<!-- Node2&#45;&gt;Node15 -->
<g id="edge46" class="edge"><title>Node2&#45;&gt;Node15</title>
<path fill="none" stroke="#9a32cd" stroke-dasharray="5,2" d="M555.186,-115.714C598.454,-122.545 658.67,-132.053 703.672,-139.159"/>
<polygon fill="#9a32cd" stroke="#9a32cd" points="555.547,-112.227 545.123,-114.125 554.455,-119.142 555.547,-112.227"/>
<text text-anchor="middle" x="613" y="-146" font-family="FreeSans" font-size="10.00"> sender_</text>
<text text-anchor="middle" x="613" y="-133" font-family="FreeSans" font-size="10.00">receiver_</text>
</g>
<!-- Node3 -->
<g id="node4" class="node"><title>Node3</title>
<a xlink:href="a00236.html" target="_top" xlink:title="Base class for intrusively reference&#45;counted objects. These are noncopyable and non&#45;assignable.">
<polygon fill="none" stroke="black" points="224,-701.5 224,-722.5 338,-722.5 338,-701.5 224,-701.5"/>
<text text-anchor="middle" x="281" y="-709.5" font-family="FreeSans" font-size="10.00">Urho3D::RefCounted</text>
</a>
</g>
<!-- Node3&#45;&gt;Node2 -->
<g id="edge4" class="edge"><title>Node3&#45;&gt;Node2</title>
<path fill="none" stroke="midnightblue" d="M301.939,-694.554C333.429,-666.855 391.857,-609.418 416,-546 431.908,-504.214 410.542,-182.064 434,-144 441.512,-131.811 454.592,-123.293 467.137,-117.531"/>
<polygon fill="midnightblue" stroke="midnightblue" points="299.466,-692.065 294.186,-701.251 304.042,-697.363 299.466,-692.065"/>
</g>
<!-- Node5 -->
<g id="node8" class="node"><title>Node5</title>
<a xlink:href="a00096.html" target="_top" xlink:title="Urho3D execution context. Provides access to subsystems, object factories and attributes, and event receivers.">
<polygon fill="none" stroke="black" points="1098.5,-611.5 1098.5,-632.5 1195.5,-632.5 1195.5,-611.5 1098.5,-611.5"/>
<text text-anchor="middle" x="1147" y="-619.5" font-family="FreeSans" font-size="10.00">Urho3D::Context</text>
</a>
</g>
<!-- Node3&#45;&gt;Node5 -->
<g id="edge10" class="edge"><title>Node3&#45;&gt;Node5</title>
<path fill="none" stroke="midnightblue" d="M330.426,-725C402.337,-743.175 540.298,-775.27 660,-787 753.773,-796.189 778.241,-796.333 872,-787 955.005,-778.737 986.026,-795.406 1056,-750 1102.2,-720.019 1132.15,-657.657 1142.73,-632.681"/>
<polygon fill="midnightblue" stroke="midnightblue" points="331.28,-721.606 320.726,-722.531 329.554,-728.389 331.28,-721.606"/>
</g>
<!-- Node4 -->
<g id="node6" class="node"><title>Node4</title>
<a xlink:href="a00235.html" target="_top" xlink:title="Reference count structure.">
<polygon fill="none" stroke="black" points="13,-701.5 13,-722.5 115,-722.5 115,-701.5 13,-701.5"/>
<text text-anchor="middle" x="64" y="-709.5" font-family="FreeSans" font-size="10.00">Urho3D::RefCount</text>
</a>
</g>
<!-- Node4&#45;&gt;Node3 -->
<g id="edge6" class="edge"><title>Node4&#45;&gt;Node3</title>
<path fill="none" stroke="#9a32cd" stroke-dasharray="5,2" d="M125.358,-712C156.225,-712 193.412,-712 223.695,-712"/>
<polygon fill="#9a32cd" stroke="#9a32cd" points="125.151,-708.5 115.151,-712 125.151,-715.5 125.151,-708.5"/>
<text text-anchor="middle" x="171" y="-716" font-family="FreeSans" font-size="10.00"> refCount_</text>
</g>
<!-- Node5&#45;&gt;Node2 -->
<g id="edge8" class="edge"><title>Node5&#45;&gt;Node2</title>
<path fill="none" stroke="#9a32cd" stroke-dasharray="5,2" d="M1145.45,-601.306C1139.31,-525.34 1114.18,-263.38 1056,-208 1001.81,-156.413 945.661,-229.999 890,-180 868.018,-160.254 895.335,-134.126 872,-116 822.32,-77.4107 632.94,-92.3259 545.163,-101.672"/>
<polygon fill="#9a32cd" stroke="#9a32cd" points="1141.97,-601.785 1146.24,-611.481 1148.95,-601.239 1141.97,-601.785"/>
<text text-anchor="middle" x="766" y="-120" font-family="FreeSans" font-size="10.00"> context_</text>
</g>
<!-- Node6 -->
<g id="node11" class="node"><title>Node6</title>
<a xlink:href="a00142.html" target="_top" xlink:title="Urho3D::HashMap\&lt; Urho3D\l::ShortStringHash, Urho3D\l::Vector\&lt; Urho3D::AttributeInfo \&gt; \&gt;">
<polygon fill="none" stroke="black" points="671.5,-454.5 671.5,-501.5 860.5,-501.5 860.5,-454.5 671.5,-454.5"/>
<text text-anchor="start" x="679.5" y="-488.5" font-family="FreeSans" font-size="10.00">Urho3D::HashMap&lt; Urho3D</text>
<text text-anchor="start" x="679.5" y="-475.5" font-family="FreeSans" font-size="10.00">::ShortStringHash, Urho3D</text>
<text text-anchor="middle" x="766" y="-462.5" font-family="FreeSans" font-size="10.00">::Vector&lt; Urho3D::AttributeInfo &gt; &gt;</text>
</a>
</g>
<!-- Node6&#45;&gt;Node5 -->
<g id="edge12" class="edge"><title>Node6&#45;&gt;Node5</title>
<path fill="none" stroke="#9a32cd" stroke-dasharray="5,2" d="M870.742,-489.941C927.767,-499.404 998.259,-516.057 1056,-545 1090.23,-562.157 1122.51,-594.728 1137.78,-611.476"/>
<polygon fill="#9a32cd" stroke="#9a32cd" points="871.051,-486.446 860.622,-488.313 869.939,-493.357 871.051,-486.446"/>
<text text-anchor="middle" x="973" y="-562" font-family="FreeSans" font-size="10.00"> attributes_</text>
<text text-anchor="middle" x="973" y="-549" font-family="FreeSans" font-size="10.00">networkAttributes_</text>
</g>
<!-- Node7 -->
<g id="node13" class="node"><title>Node7</title>
<a xlink:href="a00140.html" target="_top" xlink:title="Hash set/map base class.">
<polygon fill="none" stroke="black" points="446,-467.5 446,-488.5 554,-488.5 554,-467.5 446,-467.5"/>
<text text-anchor="middle" x="500" y="-475.5" font-family="FreeSans" font-size="10.00">Urho3D::HashBase</text>
</a>
</g>
<!-- Node7&#45;&gt;Node6 -->
<g id="edge14" class="edge"><title>Node7&#45;&gt;Node6</title>
<path fill="none" stroke="midnightblue" d="M564.294,-478C596.379,-478 635.819,-478 671.287,-478"/>
<polygon fill="midnightblue" stroke="midnightblue" points="564.15,-474.5 554.15,-478 564.15,-481.5 564.15,-474.5"/>
</g>
<!-- Node13 -->
<g id="node28" class="node"><title>Node13</title>
<a xlink:href="a00142.html" target="_top" xlink:title="Urho3D::HashMap\&lt; Urho3D\l::ShortStringHash, Urho3D\l::SharedPtr\&lt; Urho3D::Object \&gt; \&gt;">
<polygon fill="none" stroke="black" points="677,-388.5 677,-435.5 855,-435.5 855,-388.5 677,-388.5"/>
<text text-anchor="start" x="685" y="-422.5" font-family="FreeSans" font-size="10.00">Urho3D::HashMap&lt; Urho3D</text>
<text text-anchor="start" x="685" y="-409.5" font-family="FreeSans" font-size="10.00">::ShortStringHash, Urho3D</text>
<text text-anchor="middle" x="766" y="-396.5" font-family="FreeSans" font-size="10.00">::SharedPtr&lt; Urho3D::Object &gt; &gt;</text>
</a>
</g>
<!-- Node7&#45;&gt;Node13 -->
<g id="edge34" class="edge"><title>Node7&#45;&gt;Node13</title>
<path fill="none" stroke="midnightblue" d="M552.56,-464.959C587.99,-456.168 635.617,-444.351 676.893,-434.109"/>
<polygon fill="midnightblue" stroke="midnightblue" points="551.305,-461.664 542.443,-467.469 552.991,-468.458 551.305,-461.664"/>
</g>
<!-- Node14 -->
<g id="node31" class="node"><title>Node14</title>
<a xlink:href="a00142.html" target="_top" xlink:title="Urho3D::HashMap\&lt; Urho3D\l::String, Urho3D::Vector\l\&lt; Urho3D::ShortStringHash \&gt; \&gt;">
<polygon fill="none" stroke="black" points="679.5,-730.5 679.5,-777.5 852.5,-777.5 852.5,-730.5 679.5,-730.5"/>
<text text-anchor="start" x="687.5" y="-764.5" font-family="FreeSans" font-size="10.00">Urho3D::HashMap&lt; Urho3D</text>
<text text-anchor="start" x="687.5" y="-751.5" font-family="FreeSans" font-size="10.00">::String, Urho3D::Vector</text>
<text text-anchor="middle" x="766" y="-738.5" font-family="FreeSans" font-size="10.00">&lt; Urho3D::ShortStringHash &gt; &gt;</text>
</a>
</g>
<!-- Node7&#45;&gt;Node14 -->
<g id="edge38" class="edge"><title>Node7&#45;&gt;Node14</title>
<path fill="none" stroke="midnightblue" d="M506.971,-498.17C524.471,-545.569 575.039,-664.311 660,-721 666.012,-725.012 672.538,-728.556 679.297,-731.684"/>
<polygon fill="midnightblue" stroke="midnightblue" points="510.243,-496.925 503.567,-488.698 503.655,-499.292 510.243,-496.925"/>
</g>
<!-- Node18 -->
<g id="node43" class="node"><title>Node18</title>
<a xlink:href="a00142.html" target="_top" xlink:title="Urho3D::HashMap\&lt; Urho3D\l::StringHash, Urho3D::\lHashSet\&lt; Urho3D::Object * \&gt; \&gt;">
<polygon fill="none" stroke="black" points="679.5,-598.5 679.5,-645.5 852.5,-645.5 852.5,-598.5 679.5,-598.5"/>
<text text-anchor="start" x="687.5" y="-632.5" font-family="FreeSans" font-size="10.00">Urho3D::HashMap&lt; Urho3D</text>
<text text-anchor="start" x="687.5" y="-619.5" font-family="FreeSans" font-size="10.00">::StringHash, Urho3D::</text>
<text text-anchor="middle" x="766" y="-606.5" font-family="FreeSans" font-size="10.00">HashSet&lt; Urho3D::Object * &gt; &gt;</text>
</a>
</g>
<!-- Node7&#45;&gt;Node18 -->
<g id="edge54" class="edge"><title>Node7&#45;&gt;Node18</title>
<path fill="none" stroke="midnightblue" d="M520.256,-495.124C549.446,-519.058 605.804,-562.541 660,-589 667.015,-592.425 674.463,-595.592 682.032,-598.497"/>
<polygon fill="midnightblue" stroke="midnightblue" points="522.368,-492.328 512.434,-488.643 517.902,-497.719 522.368,-492.328"/>
</g>
<!-- Node19 -->
<g id="node46" class="node"><title>Node19</title>
<a xlink:href="a00142.html" target="_top" xlink:title="Urho3D::HashMap\&lt; Urho3D\l::Object *, Urho3D::HashMap\l\&lt; Urho3D::StringHash, Urho3D\l::HashSet\&lt; Urho3D::Object * \&gt; \&gt; \&gt;">
<polygon fill="none" stroke="black" points="670.5,-520 670.5,-580 861.5,-580 861.5,-520 670.5,-520"/>
<text text-anchor="start" x="678.5" y="-567" font-family="FreeSans" font-size="10.00">Urho3D::HashMap&lt; Urho3D</text>
<text text-anchor="start" x="678.5" y="-554" font-family="FreeSans" font-size="10.00">::Object *, Urho3D::HashMap</text>
<text text-anchor="start" x="678.5" y="-541" font-family="FreeSans" font-size="10.00">&lt; Urho3D::StringHash, Urho3D</text>
<text text-anchor="middle" x="766" y="-528" font-family="FreeSans" font-size="10.00">::HashSet&lt; Urho3D::Object * &gt; &gt; &gt;</text>
</a>
</g>
<!-- Node7&#45;&gt;Node19 -->
<g id="edge58" class="edge"><title>Node7&#45;&gt;Node19</title>
<path fill="none" stroke="midnightblue" d="M548.639,-491.166C582.604,-500.359 629.069,-512.936 670.322,-524.102"/>
<polygon fill="midnightblue" stroke="midnightblue" points="549.531,-487.781 538.964,-488.547 547.702,-494.538 549.531,-487.781"/>
</g>
<!-- Node20 -->
<g id="node49" class="node"><title>Node20</title>
<a xlink:href="a00142.html" target="_top" xlink:title="Urho3D::HashMap\&lt; Urho3D\l::ShortStringHash, Urho3D\l::SharedPtr\&lt; Urho3D::ObjectFactory \&gt; \&gt;">
<polygon fill="none" stroke="black" points="660,-664.5 660,-711.5 872,-711.5 872,-664.5 660,-664.5"/>
<text text-anchor="start" x="668" y="-698.5" font-family="FreeSans" font-size="10.00">Urho3D::HashMap&lt; Urho3D</text>
<text text-anchor="start" x="668" y="-685.5" font-family="FreeSans" font-size="10.00">::ShortStringHash, Urho3D</text>
<text text-anchor="middle" x="766" y="-672.5" font-family="FreeSans" font-size="10.00">::SharedPtr&lt; Urho3D::ObjectFactory &gt; &gt;</text>
</a>
</g>
<!-- Node7&#45;&gt;Node20 -->
<g id="edge62" class="edge"><title>Node7&#45;&gt;Node20</title>
<path fill="none" stroke="midnightblue" d="M512.026,-497.378C535.714,-533.907 592.061,-613.039 660,-655 665.657,-658.494 671.715,-661.646 677.963,-664.484"/>
<polygon fill="midnightblue" stroke="midnightblue" points="514.798,-495.216 506.473,-488.663 508.895,-498.978 514.798,-495.216"/>
</g>
<!-- Node23 -->
<g id="node58" class="node"><title>Node23</title>
<a xlink:href="a00142.html" target="_top" xlink:title="Urho3D::HashMap\&lt; Urho3D\l::Object *, Urho3D::HashMap\l\&lt; Urho3D::StringHash, Urho3D\l::WeakPtr\&lt; Urho3D::LuaFunction \&gt; \&gt; \&gt;">
<polygon fill="none" stroke="black" points="663,-310 663,-370 869,-370 869,-310 663,-310"/>
<text text-anchor="start" x="671" y="-357" font-family="FreeSans" font-size="10.00">Urho3D::HashMap&lt; Urho3D</text>
<text text-anchor="start" x="671" y="-344" font-family="FreeSans" font-size="10.00">::Object *, Urho3D::HashMap</text>
<text text-anchor="start" x="671" y="-331" font-family="FreeSans" font-size="10.00">&lt; Urho3D::StringHash, Urho3D</text>
<text text-anchor="middle" x="766" y="-318" font-family="FreeSans" font-size="10.00">::WeakPtr&lt; Urho3D::LuaFunction &gt; &gt; &gt;</text>
</a>
</g>
<!-- Node7&#45;&gt;Node23 -->
<g id="edge74" class="edge"><title>Node7&#45;&gt;Node23</title>
<path fill="none" stroke="midnightblue" d="M523.088,-461.639C553.452,-440.614 608.95,-403.869 660,-379 666.346,-375.908 673.004,-372.915 679.759,-370.054"/>
<polygon fill="midnightblue" stroke="midnightblue" points="521.058,-458.787 514.859,-467.379 525.063,-464.528 521.058,-458.787"/>
</g>
<!-- Node24 -->
<g id="node61" class="node"><title>Node24</title>
<a xlink:href="a00142.html" target="_top" xlink:title="Urho3D::HashMap\&lt; Urho3D\l::String, Urho3D::SharedPtr\l\&lt; Urho3D::LuaFunction \&gt; \&gt;">
<polygon fill="none" stroke="black" points="690,-244.5 690,-291.5 842,-291.5 842,-244.5 690,-244.5"/>
<text text-anchor="start" x="698" y="-278.5" font-family="FreeSans" font-size="10.00">Urho3D::HashMap&lt; Urho3D</text>
<text text-anchor="start" x="698" y="-265.5" font-family="FreeSans" font-size="10.00">::String, Urho3D::SharedPtr</text>
<text text-anchor="middle" x="766" y="-252.5" font-family="FreeSans" font-size="10.00">&lt; Urho3D::LuaFunction &gt; &gt;</text>
</a>
</g>
<!-- Node7&#45;&gt;Node24 -->
<g id="edge78" class="edge"><title>Node7&#45;&gt;Node24</title>
<path fill="none" stroke="midnightblue" d="M512.121,-458.774C535.972,-422.505 592.583,-343.795 660,-301 669.194,-295.164 679.493,-290.296 689.961,-286.254"/>
<polygon fill="midnightblue" stroke="midnightblue" points="509.019,-457.127 506.528,-467.425 514.897,-460.928 509.019,-457.127"/>
</g>
<!-- Node25 -->
<g id="node64" class="node"><title>Node25</title>
<a xlink:href="a00142.html" target="_top" xlink:title="Urho3D::HashMap\&lt; Urho3D\l::StringHash, Urho3D::\lWeakPtr\&lt; Urho3D::LuaFunction \&gt; \&gt;">
<polygon fill="none" stroke="black" points="672,-178.5 672,-225.5 860,-225.5 860,-178.5 672,-178.5"/>
<text text-anchor="start" x="680" y="-212.5" font-family="FreeSans" font-size="10.00">Urho3D::HashMap&lt; Urho3D</text>
<text text-anchor="start" x="680" y="-199.5" font-family="FreeSans" font-size="10.00">::StringHash, Urho3D::</text>
<text text-anchor="middle" x="766" y="-186.5" font-family="FreeSans" font-size="10.00">WeakPtr&lt; Urho3D::LuaFunction &gt; &gt;</text>
</a>
</g>
<!-- Node7&#45;&gt;Node25 -->
<g id="edge82" class="edge"><title>Node7&#45;&gt;Node25</title>
<path fill="none" stroke="midnightblue" d="M506.531,-457.652C523.214,-409.365 572.385,-287.949 660,-235 665.773,-231.511 671.95,-228.359 678.31,-225.517"/>
<polygon fill="midnightblue" stroke="midnightblue" points="503.159,-456.698 503.3,-467.292 509.796,-458.922 503.159,-456.698"/>
</g>
<!-- Node8 -->
<g id="node15" class="node"><title>Node8</title>
<a xlink:href="a00143.html" target="_top" xlink:title="Hash set/map node base class.">
<polygon fill="none" stroke="black" points="214,-511.5 214,-532.5 348,-532.5 348,-511.5 214,-511.5"/>
<text text-anchor="middle" x="281" y="-519.5" font-family="FreeSans" font-size="10.00">Urho3D::HashNodeBase</text>
</a>
</g>
<!-- Node8&#45;&gt;Node7 -->
<g id="edge16" class="edge"><title>Node8&#45;&gt;Node7</title>
<path fill="none" stroke="#9a32cd" stroke-dasharray="5,2" d="M343.432,-509.457C376.357,-502.841 416.295,-494.817 447.593,-488.529"/>
<polygon fill="#9a32cd" stroke="#9a32cd" points="342.571,-506.06 333.456,-511.461 343.949,-512.922 342.571,-506.06"/>
<text text-anchor="middle" x="391" y="-533" font-family="FreeSans" font-size="10.00"> ptrs_</text>
<text text-anchor="middle" x="391" y="-520" font-family="FreeSans" font-size="10.00">tail_</text>
<text text-anchor="middle" x="391" y="-507" font-family="FreeSans" font-size="10.00">head_</text>
</g>
<!-- Node8&#45;&gt;Node8 -->
<g id="edge18" class="edge"><title>Node8&#45;&gt;Node8</title>
<path fill="none" stroke="#9a32cd" stroke-dasharray="5,2" d="M260.728,-542.427C262.292,-547.349 269.049,-551 281,-551 300.121,-551 305.947,-541.653 298.478,-532.708"/>
<polygon fill="#9a32cd" stroke="#9a32cd" points="264.123,-543.286 263.522,-532.708 257.395,-541.352 264.123,-543.286"/>
<text text-anchor="middle" x="281" y="-581" font-family="FreeSans" font-size="10.00"> next_</text>
<text text-anchor="middle" x="281" y="-568" font-family="FreeSans" font-size="10.00">prev_</text>
<text text-anchor="middle" x="281" y="-555" font-family="FreeSans" font-size="10.00">down_</text>
</g>
<!-- Node9 -->
<g id="node18" class="node"><title>Node9</title>
<a xlink:href="a00047.html" target="_top" xlink:title="Allocator memory block.">
<polygon fill="none" stroke="black" points="217.5,-440.5 217.5,-461.5 344.5,-461.5 344.5,-440.5 217.5,-440.5"/>
<text text-anchor="middle" x="281" y="-448.5" font-family="FreeSans" font-size="10.00">Urho3D::AllocatorBlock</text>
</a>
</g>
<!-- Node9&#45;&gt;Node7 -->
<g id="edge20" class="edge"><title>Node9&#45;&gt;Node7</title>
<path fill="none" stroke="#9a32cd" stroke-dasharray="5,2" d="M354.595,-460.073C384.452,-463.754 418.314,-467.929 445.844,-471.323"/>
<polygon fill="#9a32cd" stroke="#9a32cd" points="354.991,-456.596 344.638,-458.846 354.135,-463.543 354.991,-456.596"/>
<text text-anchor="middle" x="391" y="-470" font-family="FreeSans" font-size="10.00"> allocator_</text>
</g>
<!-- Node9&#45;&gt;Node9 -->
<g id="edge22" class="edge"><title>Node9&#45;&gt;Node9</title>
<path fill="none" stroke="#9a32cd" stroke-dasharray="5,2" d="M260.728,-471.427C262.292,-476.349 269.049,-480 281,-480 300.121,-480 305.947,-470.653 298.478,-461.708"/>
<polygon fill="#9a32cd" stroke="#9a32cd" points="264.123,-472.286 263.522,-461.708 257.395,-470.352 264.123,-472.286"/>
<text text-anchor="middle" x="281" y="-484" font-family="FreeSans" font-size="10.00"> next_</text>
</g>
<!-- Node10 -->
<g id="node21" class="node"><title>Node10</title>
<a xlink:href="a00048.html" target="_top" xlink:title="Allocator node.">
<polygon fill="none" stroke="black" points="0.5,-440.5 0.5,-461.5 127.5,-461.5 127.5,-440.5 0.5,-440.5"/>
<text text-anchor="middle" x="64" y="-448.5" font-family="FreeSans" font-size="10.00">Urho3D::AllocatorNode</text>
</a>
</g>
<!-- Node10&#45;&gt;Node9 -->
<g id="edge24" class="edge"><title>Node10&#45;&gt;Node9</title>
<path fill="none" stroke="#9a32cd" stroke-dasharray="5,2" d="M137.765,-451C163.616,-451 192.409,-451 217.36,-451"/>
<polygon fill="#9a32cd" stroke="#9a32cd" points="137.641,-447.5 127.641,-451 137.641,-454.5 137.641,-447.5"/>
<text text-anchor="middle" x="171" y="-455" font-family="FreeSans" font-size="10.00"> free_</text>
</g>
<!-- Node10&#45;&gt;Node10 -->
<g id="edge26" class="edge"><title>Node10&#45;&gt;Node10</title>
<path fill="none" stroke="#9a32cd" stroke-dasharray="5,2" d="M44.4653,-471.427C45.9723,-476.349 52.4839,-480 64,-480 82.4258,-480 88.0399,-470.653 80.8423,-461.708"/>
<polygon fill="#9a32cd" stroke="#9a32cd" points="47.8609,-472.279 47.1577,-461.708 41.1149,-470.41 47.8609,-472.279"/>
<text text-anchor="middle" x="64" y="-484" font-family="FreeSans" font-size="10.00"> next_</text>
</g>
<!-- Node11 -->
<g id="node24" class="node"><title>Node11</title>
<a xlink:href="a00222.html" target="_top" xlink:title="Urho3D::PODVector\&lt;\l Urho3D::Object * \&gt;">
<polygon fill="none" stroke="black" points="706.5,-834 706.5,-868 825.5,-868 825.5,-834 706.5,-834"/>
<text text-anchor="start" x="714.5" y="-855" font-family="FreeSans" font-size="10.00">Urho3D::PODVector&lt;</text>
<text text-anchor="middle" x="766" y="-842" font-family="FreeSans" font-size="10.00"> Urho3D::Object * &gt;</text>
</a>
</g>
<!-- Node11&#45;&gt;Node5 -->
<g id="edge28" class="edge"><title>Node11&#45;&gt;Node5</title>
<path fill="none" stroke="#9a32cd" stroke-dasharray="5,2" d="M835.748,-851.294C910.144,-850.278 1021.89,-844.521 1056,-820 1121.43,-772.967 1140.98,-667.129 1145.7,-632.901"/>
<polygon fill="#9a32cd" stroke="#9a32cd" points="835.471,-847.797 825.51,-851.407 835.548,-854.796 835.471,-847.797"/>
<text text-anchor="middle" x="973" y="-853" font-family="FreeSans" font-size="10.00"> eventSenders_</text>
</g>
<!-- Node12 -->
<g id="node26" class="node"><title>Node12</title>
<a xlink:href="a00318.html" target="_top" xlink:title="Vector base class.">
<polygon fill="none" stroke="black" points="443,-859.5 443,-880.5 557,-880.5 557,-859.5 443,-859.5"/>
<text text-anchor="middle" x="500" y="-867.5" font-family="FreeSans" font-size="10.00">Urho3D::VectorBase</text>
</a>
</g>
<!-- Node12&#45;&gt;Node11 -->
<g id="edge30" class="edge"><title>Node12&#45;&gt;Node11</title>
<path fill="none" stroke="midnightblue" d="M567.114,-865.206C609.938,-862.147 664.953,-858.218 706.263,-855.267"/>
<polygon fill="midnightblue" stroke="midnightblue" points="566.789,-861.72 557.064,-865.924 567.288,-868.703 566.789,-861.72"/>
</g>
<!-- Node21 -->
<g id="node52" class="node"><title>Node21</title>
<a xlink:href="a00222.html" target="_top" xlink:title="Urho3D::PODVector\&lt;\l Urho3D::HashMap * \&gt;">
<polygon fill="none" stroke="black" points="702.5,-886 702.5,-920 829.5,-920 829.5,-886 702.5,-886"/>
<text text-anchor="start" x="710.5" y="-907" font-family="FreeSans" font-size="10.00">Urho3D::PODVector&lt;</text>
<text text-anchor="middle" x="766" y="-894" font-family="FreeSans" font-size="10.00"> Urho3D::HashMap * &gt;</text>
</a>
</g>
<!-- Node12&#45;&gt;Node21 -->
<g id="edge66" class="edge"><title>Node12&#45;&gt;Node21</title>
<path fill="none" stroke="midnightblue" d="M567.055,-878.319C608.442,-883.453 661.234,-890.003 702.034,-895.064"/>
<polygon fill="midnightblue" stroke="midnightblue" points="567.419,-874.837 557.064,-877.079 566.557,-881.784 567.419,-874.837"/>
</g>
<!-- Node13&#45;&gt;Node5 -->
<g id="edge32" class="edge"><title>Node13&#45;&gt;Node5</title>
<path fill="none" stroke="#9a32cd" stroke-dasharray="5,2" d="M865.561,-415.355C925.441,-421.718 1000.54,-437.791 1056,-477 1105.75,-512.173 1134.18,-583.996 1143.53,-611.216"/>
<polygon fill="#9a32cd" stroke="#9a32cd" points="865.623,-411.845 855.328,-414.346 864.936,-418.811 865.623,-411.845"/>
<text text-anchor="middle" x="973" y="-481" font-family="FreeSans" font-size="10.00"> subsystems_</text>
</g>
<!-- Node14&#45;&gt;Node5 -->
<g id="edge36" class="edge"><title>Node14&#45;&gt;Node5</title>
<path fill="none" stroke="#9a32cd" stroke-dasharray="5,2" d="M862.583,-739.713C920.383,-728.982 994.349,-711.344 1056,-684 1086.58,-670.436 1117.88,-646.444 1134.62,-632.619"/>
<polygon fill="#9a32cd" stroke="#9a32cd" points="861.931,-736.274 852.719,-741.507 863.184,-743.161 861.931,-736.274"/>
<text text-anchor="middle" x="973" y="-737" font-family="FreeSans" font-size="10.00"> objectCategories_</text>
</g>
<!-- Node15&#45;&gt;Node5 -->
<g id="edge40" class="edge"><title>Node15&#45;&gt;Node5</title>
<path fill="none" stroke="#9a32cd" stroke-dasharray="5,2" d="M838.019,-153.036C850.247,-156.284 862.154,-161.32 872,-169 887.053,-180.741 879.676,-191.942 890,-208 951.185,-303.17 996.817,-304.572 1056,-401 1102.01,-475.972 1134.22,-578.331 1143.94,-611.303"/>
<polygon fill="#9a32cd" stroke="#9a32cd" points="838.705,-149.602 828.178,-150.797 837.152,-156.428 838.705,-149.602"/>
<text text-anchor="middle" x="973" y="-405" font-family="FreeSans" font-size="10.00"> eventHandler_</text>
</g>
<!-- Node22 -->
<g id="node55" class="node"><title>Node22</title>
<a xlink:href="a00164.html" target="_top" xlink:title="Urho3D::LinkedList\l\&lt; Urho3D::EventHandler \&gt;">
<polygon fill="none" stroke="black" points="1074,-0 1074,-34 1220,-34 1220,-0 1074,-0"/>
<text text-anchor="start" x="1082" y="-21" font-family="FreeSans" font-size="10.00">Urho3D::LinkedList</text>
<text text-anchor="middle" x="1147" y="-8" font-family="FreeSans" font-size="10.00">&lt; Urho3D::EventHandler &gt;</text>
</a>
</g>
<!-- Node15&#45;&gt;Node22 -->
<g id="edge70" class="edge"><title>Node15&#45;&gt;Node22</title>
<path fill="none" stroke="#9a32cd" stroke-dasharray="5,2" d="M837.852,-142.741C850.419,-138.84 862.492,-132.914 872,-124 892.001,-105.25 869.565,-83.2756 890,-65 939.735,-20.5215 1017.09,-11.2968 1073.95,-11.505"/>
<polygon fill="#9a32cd" stroke="#9a32cd" points="836.926,-139.366 828.18,-145.345 838.746,-146.125 836.926,-139.366"/>
<text text-anchor="middle" x="973" y="-69" font-family="FreeSans" font-size="10.00"> head_</text>
</g>
<!-- Node16 -->
<g id="node36" class="node"><title>Node16</title>
<a xlink:href="a00165.html" target="_top" xlink:title="Singly&#45;linked list node base class.">
<polygon fill="none" stroke="black" points="434,-153.5 434,-174.5 566,-174.5 566,-153.5 434,-153.5"/>
<text text-anchor="middle" x="500" y="-161.5" font-family="FreeSans" font-size="10.00">Urho3D::LinkedListNode</text>
</a>
</g>
<!-- Node16&#45;&gt;Node15 -->
<g id="edge42" class="edge"><title>Node16&#45;&gt;Node15</title>
<path fill="none" stroke="midnightblue" d="M576.228,-166.841C578.85,-166.901 581.447,-166.954 584,-167 609.774,-167.46 616.289,-168.856 642,-167 662.829,-165.496 685.474,-162.589 705.643,-159.542"/>
<polygon fill="midnightblue" stroke="midnightblue" points="576.11,-163.337 566.024,-166.581 575.931,-170.335 576.11,-163.337"/>
</g>
<!-- Node16&#45;&gt;Node16 -->
<g id="edge44" class="edge"><title>Node16&#45;&gt;Node16</title>
<path fill="none" stroke="#9a32cd" stroke-dasharray="5,2" d="M480.097,-184.427C481.632,-189.349 488.267,-193 500,-193 518.773,-193 524.493,-183.653 517.16,-174.708"/>
<polygon fill="#9a32cd" stroke="#9a32cd" points="483.492,-185.283 482.84,-174.708 476.755,-183.381 483.492,-185.283"/>
<text text-anchor="middle" x="500" y="-197" font-family="FreeSans" font-size="10.00"> next_</text>
</g>
<!-- Node17 -->
<g id="node40" class="node"><title>Node17</title>
<a xlink:href="a00289.html" target="_top" xlink:title="32&#45;bit hash value for a string.">
<polygon fill="none" stroke="black" points="443.5,-224.5 443.5,-245.5 556.5,-245.5 556.5,-224.5 443.5,-224.5"/>
<text text-anchor="middle" x="500" y="-232.5" font-family="FreeSans" font-size="10.00">Urho3D::StringHash</text>
</a>
</g>
<!-- Node17&#45;&gt;Node15 -->
<g id="edge48" class="edge"><title>Node17&#45;&gt;Node15</title>
<path fill="none" stroke="#9a32cd" stroke-dasharray="5,2" d="M547.415,-221.423C553.706,-219.391 560.038,-217.227 566,-215 600.665,-202.053 609.603,-198.881 642,-181 650.418,-176.354 651.097,-172.631 660,-169 673.786,-163.378 689.232,-159.318 703.978,-156.394"/>
<polygon fill="#9a32cd" stroke="#9a32cd" points="546.116,-218.163 537.623,-224.497 548.212,-224.841 546.116,-218.163"/>
<text text-anchor="middle" x="613" y="-212" font-family="FreeSans" font-size="10.00"> eventType_</text>
</g>
<!-- Node17&#45;&gt;Node17 -->
<g id="edge50" class="edge"><title>Node17&#45;&gt;Node17</title>
<path fill="none" stroke="#9a32cd" stroke-dasharray="5,2" d="M480.097,-255.427C481.632,-260.349 488.267,-264 500,-264 518.773,-264 524.493,-254.653 517.16,-245.708"/>
<polygon fill="#9a32cd" stroke="#9a32cd" points="483.492,-256.283 482.84,-245.708 476.755,-254.381 483.492,-256.283"/>
<text text-anchor="middle" x="500" y="-268" font-family="FreeSans" font-size="10.00"> ZERO</text>
</g>
<!-- Node18&#45;&gt;Node5 -->
<g id="edge52" class="edge"><title>Node18&#45;&gt;Node5</title>
<path fill="none" stroke="#9a32cd" stroke-dasharray="5,2" d="M863.357,-622C938.495,-622 1039.28,-622 1098.27,-622"/>
<polygon fill="#9a32cd" stroke="#9a32cd" points="862.932,-618.5 852.932,-622 862.931,-625.5 862.932,-618.5"/>
<text text-anchor="middle" x="973" y="-626" font-family="FreeSans" font-size="10.00"> eventReceivers_</text>
</g>
<!-- Node19&#45;&gt;Node5 -->
<g id="edge56" class="edge"><title>Node19&#45;&gt;Node5</title>
<path fill="none" stroke="#9a32cd" stroke-dasharray="5,2" d="M871.51,-569.939C945.724,-583.964 1041.58,-602.079 1098.45,-612.825"/>
<polygon fill="#9a32cd" stroke="#9a32cd" points="872.127,-566.494 861.651,-568.076 870.827,-573.372 872.127,-566.494"/>
<text text-anchor="middle" x="973" y="-608" font-family="FreeSans" font-size="10.00"> specificEventReceivers_</text>
</g>
<!-- Node20&#45;&gt;Node5 -->
<g id="edge60" class="edge"><title>Node20&#45;&gt;Node5</title>
<path fill="none" stroke="#9a32cd" stroke-dasharray="5,2" d="M882.251,-668.83C935.279,-659.964 998.854,-649.165 1056,-639 1069.77,-636.551 1084.69,-633.804 1098.38,-631.243"/>
<polygon fill="#9a32cd" stroke="#9a32cd" points="881.422,-665.42 872.135,-670.519 882.575,-672.324 881.422,-665.42"/>
<text text-anchor="middle" x="973" y="-671" font-family="FreeSans" font-size="10.00"> factories_</text>
</g>
<!-- Node21&#45;&gt;Node5 -->
<g id="edge64" class="edge"><title>Node21&#45;&gt;Node5</title>
<path fill="none" stroke="#9a32cd" stroke-dasharray="5,2" d="M839.729,-913.297C903.659,-918.03 995.219,-914.19 1056,-866 1133.05,-804.908 1144.86,-671.497 1146.67,-632.751"/>
<polygon fill="#9a32cd" stroke="#9a32cd" points="839.969,-909.805 829.714,-912.47 839.392,-916.781 839.969,-909.805"/>
<text text-anchor="middle" x="973" y="-918" font-family="FreeSans" font-size="10.00"> eventDataMaps_</text>
</g>
<!-- Node22&#45;&gt;Node2 -->
<g id="edge68" class="edge"><title>Node22&#45;&gt;Node2</title>
<path fill="none" stroke="#9a32cd" stroke-dasharray="5,2" d="M1063.78,-14.1455C1061.16,-14.091 1058.56,-14.0422 1056,-14 879.414,-11.09 831.092,-3.19678 660,-47 609.993,-59.8029 554.048,-82.9204 523.339,-96.4164"/>
<polygon fill="#9a32cd" stroke="#9a32cd" points="1063.91,-17.6494 1073.99,-14.3815 1064.08,-10.6512 1063.91,-17.6494"/>
<text text-anchor="middle" x="766" y="-51" font-family="FreeSans" font-size="10.00"> eventHandlers_</text>
</g>
<!-- Node23&#45;&gt;Node1 -->
<g id="edge72" class="edge"><title>Node23&#45;&gt;Node1</title>
<path fill="none" stroke="#9a32cd" stroke-dasharray="5,2" d="M870.05,-303.053C870.713,-302.381 871.363,-301.697 872,-301 892.799,-278.238 870.254,-257.681 890,-234 921.076,-196.73 1055.86,-144.796 1116.84,-122.668"/>
<polygon fill="#9a32cd" stroke="#9a32cd" points="867.623,-300.528 862.492,-309.797 872.284,-305.751 867.623,-300.528"/>
<text text-anchor="middle" x="973" y="-238" font-family="FreeSans" font-size="10.00"> objectToEventTypeToFunctionMap_</text>
</g>
<!-- Node24&#45;&gt;Node1 -->
<g id="edge76" class="edge"><title>Node24&#45;&gt;Node1</title>
<path fill="none" stroke="#9a32cd" stroke-dasharray="5,2" d="M851.274,-251.204C859.055,-246.947 866.181,-241.632 872,-235 902.938,-199.739 855.252,-162.513 890,-131 904.81,-117.569 1024.24,-113.631 1094.96,-112.477"/>
<polygon fill="#9a32cd" stroke="#9a32cd" points="849.721,-248.067 842.246,-255.575 852.772,-254.368 849.721,-248.067"/>
<text text-anchor="middle" x="973" y="-135" font-family="FreeSans" font-size="10.00"> functionNameToFunctionMap_</text>
</g>
<!-- Node25&#45;&gt;Node1 -->
<g id="edge80" class="edge"><title>Node25&#45;&gt;Node1</title>
<path fill="none" stroke="#9a32cd" stroke-dasharray="5,2" d="M868.181,-172.761C869.501,-171.557 870.776,-170.304 872,-169 895.166,-144.322 863.387,-115.915 890,-95 921.378,-70.3397 1033.95,-88.334 1099.23,-101.489"/>
<polygon fill="#9a32cd" stroke="#9a32cd" points="865.814,-170.171 860.161,-179.132 870.168,-175.652 865.814,-170.171"/>
<text text-anchor="middle" x="973" y="-99" font-family="FreeSans" font-size="10.00"> eventTypeToFunctionMap_</text>
</g>
</g>
</svg>
        <g id="navigator" transform="translate(0 0)" fill="#404254">
                <rect fill="#f2f5e9" fill-opacity="0.5" stroke="#606060" stroke-width=".5" x="0" y="0" width="60" height="60"/>
                <use id="zoomplus" xlink:href="#zoomPlus" x="17" y="9" onmousedown="handleZoom(evt,'in')"/>
                <use id="zoomminus" xlink:href="#zoomMin" x="42" y="9" onmousedown="handleZoom(evt,'out')"/>
                <use id="reset" xlink:href="#resetDef" x="30" y="36" onmousedown="handleReset()"/>
                <g id="arrowUp" xlink:href="#dirArrow" transform="translate(30 24)" onmousedown="handlePan(0,-1)">
                  <use xlink:href="#rim" fill="#404040">
                        <set attributeName="fill" to="#808080" begin="arrowUp.mouseover" end="arrowUp.mouseout"/>
                  </use>
                  <path fill="none" stroke="white" stroke-width="1.5" d="M0,-3.0v7 M-2.5,-0.5L0,-3.0L2.5,-0.5"/>
                </g>
                <g id="arrowRight" xlink:href="#dirArrow" transform="rotate(90) translate(36 -43)" onmousedown="handlePan(1,0)">
                  <use xlink:href="#rim" fill="#404040">
                        <set attributeName="fill" to="#808080" begin="arrowRight.mouseover" end="arrowRight.mouseout"/>
                  </use>
                  <path fill="none" stroke="white" stroke-width="1.5" d="M0,-3.0v7 M-2.5,-0.5L0,-3.0L2.5,-0.5"/>
                </g>
                <g id="arrowDown" xlink:href="#dirArrow" transform="rotate(180) translate(-30 -48)" onmousedown="handlePan(0,1)">
                  <use xlink:href="#rim" fill="#404040">
                        <set attributeName="fill" to="#808080" begin="arrowDown.mouseover" end="arrowDown.mouseout"/>
                  </use>
                  <path fill="none" stroke="white" stroke-width="1.5" d="M0,-3.0v7 M-2.5,-0.5L0,-3.0L2.5,-0.5"/>
                </g>
                <g id="arrowLeft" xlink:href="#dirArrow" transform="rotate(270) translate(-36 17)" onmousedown="handlePan(-1,0)">
                  <use xlink:href="#rim" fill="#404040">
                        <set attributeName="fill" to="#808080" begin="arrowLeft.mouseover" end="arrowLeft.mouseout"/>
                  </use>
                  <path fill="none" stroke="white" stroke-width="1.5" d="M0,-3.0v7 M-2.5,-0.5L0,-3.0L2.5,-0.5"/>
                </g>
        </g>
        <svg viewBox="0 0 15 15" width="100%" height="30px" preserveAspectRatio="xMaxYMin meet">
         <g id="arrow_out" transform="scale(0.3 0.3)">
          <a xlink:href="a01171_org.svg" target="_base">
           <rect id="button" ry="5" rx="5" y="6" x="6" height="38" width="38"
                fill="#f2f5e9" fill-opacity="0.5" stroke="#606060" stroke-width="1.0"/>
           <path id="arrow"
             d="M 11.500037,31.436501 C 11.940474,20.09759 22.043105,11.32322 32.158766,21.979434 L 37.068811,17.246167 C 37.068811,17.246167 37.088388,32 37.088388,32 L 22.160133,31.978069 C 22.160133,31.978069 26.997745,27.140456 26.997745,27.140456 C 18.528582,18.264221 13.291696,25.230495 11.500037,31.436501 z"
             style="fill:#404040;"/>
          </a>
         </g>
        </svg>
</svg>
