<?xml version="1.0" encoding="UTF-8" standalone="no"?>
<!DOCTYPE svg PUBLIC "-//W3C//DTD SVG 1.1//EN"
 "http://www.w3.org/Graphics/SVG/1.1/DTD/svg11.dtd">
<!-- Generated by graphviz version 2.26.3 (20100126.1600)
 -->
<!-- Title: Urho3D::FrameInfo Pages: 1 -->
<!--zoomable 964 -->
<svg id="main" version="1.1" xmlns="http://www.w3.org/2000/svg" xmlns:xlink="http://www.w3.org/1999/xlink" xml:space="preserve" onload="init(evt)">
        <defs>
                <circle id="rim" cx="0" cy="0" r="7"/>
                <circle id="rim2" cx="0" cy="0" r="3.5"/>
                <g id="zoomPlus">
                        <use xlink:href="#rim" fill="#404040">
                                <set attributeName="fill" to="#808080" begin="zoomplus.mouseover" end="zoomplus.mouseout"/>
                        </use>
                        <path d="M-4,0h8M0,-4v8" fill="none" stroke="white" stroke-width="1.5" pointer-events="none"/>
                </g>
                <g id="zoomMin">
                        <use xlink:href="#rim" fill="#404040">
                                <set attributeName="fill" to="#808080" begin="zoomminus.mouseover" end="zoomminus.mouseout"/>
                        </use>
                        <path d="M-4,0h8" fill="none" stroke="white" stroke-width="1.5" pointer-events="none"/>
                </g>
                <g id="dirArrow">
                        <path fill="none" stroke="white" stroke-width="1.5" d="M0,-3.0v7 M-2.5,-0.5L0,-3.0L2.5,-0.5"/>
                </g>
               <g id="resetDef">
                       <use xlink:href="#rim2" fill="#404040">
                               <set attributeName="fill" to="#808080" begin="reset.mouseover" end="reset.mouseout"/>
                       </use>
               </g>
        </defs>

<script type="text/javascript">
var viewWidth = 1472;
var viewHeight = 964;
var sectionId = 'dynsection-0';
</script>
<script xlink:href="svgpan.js"/>
<svg id="graph" class="graph">
<g id="viewport">
<title>Urho3D::FrameInfo</title>
<!-- Node1 -->
<g id="node1" class="node"><title>Node1</title>
<polygon fill="#bfbfbf" stroke="black" points="1356.5,-144.431 1356.5,-165.431 1463.5,-165.431 1463.5,-144.431 1356.5,-144.431"/>
<text text-anchor="middle" x="1410" y="-152.431" font-family="FreeSans" font-size="10.00">Urho3D::FrameInfo</text>
</g>
<!-- Node2 -->
<g id="node2" class="node"><title>Node2</title>
<a xlink:href="a00088.html" target="_top" xlink:title="Camera component.">
<polygon fill="none" stroke="black" points="1167,-176.431 1167,-197.431 1265,-197.431 1265,-176.431 1167,-176.431"/>
<text text-anchor="middle" x="1216" y="-184.431" font-family="FreeSans" font-size="10.00">Urho3D::Camera</text>
</a>
</g>
<!-- Node2&#45;&gt;Node1 -->
<g id="edge2" class="edge"><title>Node2&#45;&gt;Node1</title>
<path fill="none" stroke="#9a32cd" stroke-dasharray="5,2" d="M1275.26,-177.156C1301.12,-172.89 1331.23,-167.924 1356.41,-163.77"/>
<polygon fill="#9a32cd" stroke="#9a32cd" points="1274.5,-173.733 1265.21,-178.814 1275.64,-180.64 1274.5,-173.733"/>
<text text-anchor="middle" x="1313" y="-178.931" font-family="FreeSans" font-size="10.00"> camera_</text>
</g>
<!-- Node3 -->
<g id="node4" class="node"><title>Node3</title>
<a xlink:href="a00102.html" target="_top" xlink:title="Base class for components. Components can be created to scene nodes.">
<polygon fill="none" stroke="black" points="924,-579.431 924,-600.431 1040,-600.431 1040,-579.431 924,-579.431"/>
<text text-anchor="middle" x="982" y="-587.431" font-family="FreeSans" font-size="10.00">Urho3D::Component</text>
</a>
</g>
<!-- Node3&#45;&gt;Node2 -->
<g id="edge4" class="edge"><title>Node3&#45;&gt;Node2</title>
<path fill="none" stroke="midnightblue" d="M1010.62,-573.85C1020.81,-567.118 1031.79,-558.6 1040,-548.931 1140.87,-430.143 1199.55,-243.619 1213.01,-197.504"/>
<polygon fill="midnightblue" stroke="midnightblue" points="1008.56,-571.009 1001.95,-579.289 1012.28,-576.939 1008.56,-571.009"/>
</g>
<!-- Node4 -->
<g id="node6" class="node"><title>Node4</title>
<a xlink:href="a00054.html" target="_top" xlink:title="Base class for animatable object, an animatable object can be set animation on it&#39;s attributes...">
<polygon fill="none" stroke="black" points="429,-852.431 429,-873.431 543,-873.431 543,-852.431 429,-852.431"/>
<text text-anchor="middle" x="486" y="-860.431" font-family="FreeSans" font-size="10.00">Urho3D::Animatable</text>
</a>
</g>
<!-- Node4&#45;&gt;Node3 -->
<g id="edge6" class="edge"><title>Node4&#45;&gt;Node3</title>
<path fill="none" stroke="midnightblue" d="M553.227,-868.814C597.779,-870.087 656.54,-866.616 704,-845.931 836.02,-788.39 946.024,-641.319 974.709,-600.55"/>
<polygon fill="midnightblue" stroke="midnightblue" points="553.21,-865.311 543.086,-868.436 552.949,-872.306 553.21,-865.311"/>
</g>
<!-- Node9 -->
<g id="node16" class="node"><title>Node9</title>
<a xlink:href="a00235.html" target="_top" xlink:title="Scene node that may contain components and child nodes.">
<polygon fill="none" stroke="red" points="722.5,-562.431 722.5,-583.431 807.5,-583.431 807.5,-562.431 722.5,-562.431"/>
<text text-anchor="middle" x="765" y="-570.431" font-family="FreeSans" font-size="10.00">Urho3D::Node</text>
</a>
</g>
<!-- Node4&#45;&gt;Node9 -->
<g id="edge18" class="edge"><title>Node4&#45;&gt;Node9</title>
<path fill="none" stroke="midnightblue" d="M553.469,-856.586C609.337,-849.95 682.857,-837.562 704,-816.931 738.533,-783.233 758.903,-625.874 763.828,-583.477"/>
<polygon fill="midnightblue" stroke="midnightblue" points="552.794,-853.141 543.259,-857.759 553.593,-860.095 552.794,-853.141"/>
</g>
<!-- Node5 -->
<g id="node8" class="node"><title>Node5</title>
<a xlink:href="a00310.html" target="_top" xlink:title="Base class for objects with automatic serialization through attributes.">
<polygon fill="none" stroke="red" points="44,-934.431 44,-955.431 158,-955.431 158,-934.431 44,-934.431"/>
<text text-anchor="middle" x="101" y="-942.431" font-family="FreeSans" font-size="10.00">Urho3D::Serializable</text>
</a>
</g>
<!-- Node5&#45;&gt;Node4 -->
<g id="edge8" class="edge"><title>Node5&#45;&gt;Node4</title>
<path fill="none" stroke="midnightblue" d="M168.111,-935.551C221.953,-927.482 299.288,-914.668 366,-898.931 396.484,-891.74 430.642,-881.248 454.696,-873.444"/>
<polygon fill="midnightblue" stroke="midnightblue" points="167.381,-932.121 158.003,-937.051 168.409,-939.045 167.381,-932.121"/>
</g>
<!-- Node6 -->
<g id="node10" class="node"><title>Node6</title>
<a xlink:href="a00176.html" target="_top" xlink:title="Urho3D::HashMap\&lt; Urho3D\l::String, Urho3D::SharedPtr\l\&lt; Urho3D::AttributeAnimationInfo \&gt; \&gt;">
<polygon fill="none" stroke="red" points="0.5,-868.431 0.5,-915.431 201.5,-915.431 201.5,-868.431 0.5,-868.431"/>
<text text-anchor="start" x="8.5" y="-902.431" font-family="FreeSans" font-size="10.00">Urho3D::HashMap&lt; Urho3D</text>
<text text-anchor="start" x="8.5" y="-889.431" font-family="FreeSans" font-size="10.00">::String, Urho3D::SharedPtr</text>
<text text-anchor="middle" x="101" y="-876.431" font-family="FreeSans" font-size="10.00">&lt; Urho3D::AttributeAnimationInfo &gt; &gt;</text>
</a>
</g>
<!-- Node6&#45;&gt;Node4 -->
<g id="edge10" class="edge"><title>Node6&#45;&gt;Node4</title>
<path fill="none" stroke="#9a32cd" stroke-dasharray="5,2" d="M211.977,-883.571C282.894,-878.23 371.918,-871.524 428.892,-867.232"/>
<polygon fill="#9a32cd" stroke="#9a32cd" points="211.36,-880.108 201.651,-884.349 211.886,-887.088 211.36,-880.108"/>
<text text-anchor="middle" x="293" y="-885.931" font-family="FreeSans" font-size="10.00"> attributeAnimationInstances_</text>
</g>
<!-- Node7 -->
<g id="node12" class="node"><title>Node7</title>
<a xlink:href="a00320.html" target="_top" xlink:title="Urho3D::SharedPtr\&lt;\l Urho3D::ObjectAnimation \&gt;">
<polygon fill="none" stroke="red" points="24.5,-815.931 24.5,-849.931 177.5,-849.931 177.5,-815.931 24.5,-815.931"/>
<text text-anchor="start" x="32.5" y="-836.931" font-family="FreeSans" font-size="10.00">Urho3D::SharedPtr&lt;</text>
<text text-anchor="middle" x="101" y="-823.931" font-family="FreeSans" font-size="10.00"> Urho3D::ObjectAnimation &gt;</text>
</a>
</g>
<!-- Node7&#45;&gt;Node4 -->
<g id="edge12" class="edge"><title>Node7&#45;&gt;Node4</title>
<path fill="none" stroke="#9a32cd" stroke-dasharray="5,2" d="M187.712,-839.687C261.372,-845.427 365.008,-853.503 428.719,-858.467"/>
<polygon fill="#9a32cd" stroke="#9a32cd" points="187.766,-836.181 177.524,-838.894 187.222,-843.16 187.766,-836.181"/>
<text text-anchor="middle" x="293" y="-856.931" font-family="FreeSans" font-size="10.00"> objectAnimation_</text>
</g>
<!-- Node8 -->
<g id="node14" class="node"><title>Node8</title>
<a xlink:href="a00178.html" target="_top" xlink:title="Urho3D::HashSet\&lt; const\l Urho3D::AttributeInfo * \&gt;">
<polygon fill="none" stroke="red" points="30.5,-763.931 30.5,-797.931 171.5,-797.931 171.5,-763.931 30.5,-763.931"/>
<text text-anchor="start" x="38.5" y="-784.931" font-family="FreeSans" font-size="10.00">Urho3D::HashSet&lt; const</text>
<text text-anchor="middle" x="101" y="-771.931" font-family="FreeSans" font-size="10.00"> Urho3D::AttributeInfo * &gt;</text>
</a>
</g>
<!-- Node8&#45;&gt;Node4 -->
<g id="edge14" class="edge"><title>Node8&#45;&gt;Node4</title>
<path fill="none" stroke="#9a32cd" stroke-dasharray="5,2" d="M181.623,-781.604C236.319,-785.025 308.8,-795.517 366,-824.931 376.061,-830.105 374.015,-837.611 384,-842.931 397.697,-850.228 413.702,-854.879 428.919,-857.839"/>
<polygon fill="#9a32cd" stroke="#9a32cd" points="181.805,-778.109 171.625,-781.045 181.414,-785.098 181.805,-778.109"/>
<text text-anchor="middle" x="293" y="-828.931" font-family="FreeSans" font-size="10.00"> animatedNetworkAttributes_</text>
</g>
<!-- Node9&#45;&gt;Node3 -->
<g id="edge16" class="edge"><title>Node9&#45;&gt;Node3</title>
<path fill="none" stroke="#9a32cd" stroke-dasharray="5,2" d="M817.698,-577.059C849.795,-579.574 890.842,-582.789 923.88,-585.378"/>
<polygon fill="#9a32cd" stroke="#9a32cd" points="817.856,-573.561 807.613,-576.269 817.309,-580.54 817.856,-573.561"/>
<text text-anchor="middle" x="866" y="-588.931" font-family="FreeSans" font-size="10.00"> node_</text>
</g>
<!-- Node9&#45;&gt;Node9 -->
<g id="edge46" class="edge"><title>Node9&#45;&gt;Node9</title>
<path fill="none" stroke="#9a32cd" stroke-dasharray="5,2" d="M746.571,-593.357C747.993,-598.28 754.136,-601.931 765,-601.931 782.383,-601.931 787.679,-592.584 780.889,-583.639"/>
<polygon fill="#9a32cd" stroke="#9a32cd" points="749.969,-594.199 749.111,-583.639 743.196,-592.429 749.969,-594.199"/>
<text text-anchor="middle" x="765" y="-605.931" font-family="FreeSans" font-size="10.00"> parent_</text>
</g>
<!-- Node11 -->
<g id="node21" class="node"><title>Node11</title>
<a xlink:href="a00298.html" target="_top" xlink:title="Root scene node, represents the whole scene.">
<polygon fill="none" stroke="red" points="937.5,-518.431 937.5,-539.431 1026.5,-539.431 1026.5,-518.431 937.5,-518.431"/>
<text text-anchor="middle" x="982" y="-526.431" font-family="FreeSans" font-size="10.00">Urho3D::Scene</text>
</a>
</g>
<!-- Node9&#45;&gt;Node11 -->
<g id="edge24" class="edge"><title>Node9&#45;&gt;Node11</title>
<path fill="none" stroke="midnightblue" d="M817.607,-562.264C854.21,-554.842 902.488,-545.053 937.245,-538.006"/>
<polygon fill="midnightblue" stroke="midnightblue" points="816.718,-558.873 807.613,-564.29 818.109,-565.733 816.718,-558.873"/>
</g>
<!-- Node10 -->
<g id="node19" class="node"><title>Node10</title>
<a xlink:href="a00268.html" target="_top" xlink:title="Urho3D::PODVector\&lt;\l Urho3D::Node * \&gt;">
<polygon fill="none" stroke="red" points="426.5,-747.931 426.5,-781.931 545.5,-781.931 545.5,-747.931 426.5,-747.931"/>
<text text-anchor="start" x="434.5" y="-768.931" font-family="FreeSans" font-size="10.00">Urho3D::PODVector&lt;</text>
<text text-anchor="middle" x="486" y="-755.931" font-family="FreeSans" font-size="10.00"> Urho3D::Node * &gt;</text>
</a>
</g>
<!-- Node10&#45;&gt;Node9 -->
<g id="edge20" class="edge"><title>Node10&#45;&gt;Node9</title>
<path fill="none" stroke="#9a32cd" stroke-dasharray="5,2" d="M555.635,-762.416C602.362,-757.34 662.691,-743.804 704,-708.931 744.14,-675.044 758.977,-609.383 763.4,-583.647"/>
<polygon fill="#9a32cd" stroke="#9a32cd" points="555.193,-758.942 545.582,-763.402 555.876,-765.909 555.193,-758.942"/>
<text text-anchor="middle" x="655" y="-755.931" font-family="FreeSans" font-size="10.00"> dependencyNodes_</text>
</g>
<!-- Node11&#45;&gt;Node9 -->
<g id="edge22" class="edge"><title>Node11&#45;&gt;Node9</title>
<path fill="none" stroke="#9a32cd" stroke-dasharray="5,2" d="M927.153,-521.372C896.662,-519.11 858.44,-519.531 826,-529.931 806.012,-536.338 786.893,-551.856 775.549,-562.387"/>
<polygon fill="#9a32cd" stroke="#9a32cd" points="926.915,-524.864 937.178,-522.231 927.513,-517.889 926.915,-524.864"/>
<text text-anchor="middle" x="866" y="-533.931" font-family="FreeSans" font-size="10.00"> scene_</text>
</g>
<!-- Node12 -->
<g id="node24" class="node"><title>Node12</title>
<a xlink:href="a00343.html" target="_top" xlink:title="String class.">
<polygon fill="none" stroke="black" points="442,-391.431 442,-412.431 530,-412.431 530,-391.431 442,-391.431"/>
<text text-anchor="middle" x="486" y="-399.431" font-family="FreeSans" font-size="10.00">Urho3D::String</text>
</a>
</g>
<!-- Node12&#45;&gt;Node9 -->
<g id="edge44" class="edge"><title>Node12&#45;&gt;Node9</title>
<path fill="none" stroke="#9a32cd" stroke-dasharray="5,2" d="M519.084,-416.612C543.064,-427.1 576.35,-441.347 606,-452.931 649.079,-469.761 667.06,-460.1 704,-487.931 731.129,-508.369 751.173,-544.303 760.007,-562.189"/>
<polygon fill="#9a32cd" stroke="#9a32cd" points="520.3,-413.323 509.737,-412.507 517.486,-419.732 520.3,-413.323"/>
<text text-anchor="middle" x="655" y="-491.931" font-family="FreeSans" font-size="10.00"> name_</text>
</g>
<!-- Node12&#45;&gt;Node11 -->
<g id="edge26" class="edge"><title>Node12&#45;&gt;Node11</title>
<path fill="none" stroke="#9a32cd" stroke-dasharray="5,2" d="M540.273,-414.781C584.428,-425.318 648.322,-440.754 704,-454.931 789.668,-476.744 889.769,-503.769 943.392,-518.371"/>
<polygon fill="#9a32cd" stroke="#9a32cd" points="540.866,-411.324 530.327,-412.41 539.244,-418.133 540.866,-411.324"/>
<text text-anchor="middle" x="765" y="-485.931" font-family="FreeSans" font-size="10.00"> fileName_</text>
</g>
<!-- Node12&#45;&gt;Node12 -->
<g id="edge28" class="edge"><title>Node12&#45;&gt;Node12</title>
<path fill="none" stroke="#9a32cd" stroke-dasharray="5,2" d="M454.741,-421.61C456.416,-426.905 466.835,-430.931 486,-430.931 515.203,-430.931 524.101,-421.584 512.693,-412.639"/>
<polygon fill="#9a32cd" stroke="#9a32cd" points="457.89,-423.138 459.307,-412.639 451.651,-419.963 457.89,-423.138"/>
<text text-anchor="middle" x="486" y="-434.931" font-family="FreeSans" font-size="10.00"> EMPTY</text>
</g>
<!-- Node13 -->
<g id="node27" class="node"><title>Node13</title>
<a xlink:href="a00273.html" target="_top" xlink:title="Rotation represented as a four&#45;dimensional normalized vector.">
<polygon fill="none" stroke="black" points="429.5,-677.431 429.5,-698.431 542.5,-698.431 542.5,-677.431 429.5,-677.431"/>
<text text-anchor="middle" x="486" y="-685.431" font-family="FreeSans" font-size="10.00">Urho3D::Quaternion</text>
</a>
</g>
<!-- Node13&#45;&gt;Node9 -->
<g id="edge30" class="edge"><title>Node13&#45;&gt;Node9</title>
<path fill="none" stroke="#9a32cd" stroke-dasharray="5,2" d="M552.936,-685.751C598.283,-681.664 658.076,-670.994 704,-643.931 729.481,-628.915 749.563,-599.364 759.043,-583.535"/>
<polygon fill="#9a32cd" stroke="#9a32cd" points="552.589,-682.268 542.907,-686.57 553.159,-689.245 552.589,-682.268"/>
<text text-anchor="middle" x="655" y="-695.931" font-family="FreeSans" font-size="10.00"> worldRotation_</text>
<text text-anchor="middle" x="655" y="-682.931" font-family="FreeSans" font-size="10.00">rotation_</text>
</g>
<!-- Node13&#45;&gt;Node13 -->
<g id="edge32" class="edge"><title>Node13&#45;&gt;Node13</title>
<path fill="none" stroke="#9a32cd" stroke-dasharray="5,2" d="M454.741,-707.61C456.416,-712.905 466.835,-716.931 486,-716.931 515.203,-716.931 524.101,-707.584 512.693,-698.639"/>
<polygon fill="#9a32cd" stroke="#9a32cd" points="457.89,-709.138 459.307,-698.639 451.651,-705.963 457.89,-709.138"/>
<text text-anchor="middle" x="486" y="-720.931" font-family="FreeSans" font-size="10.00"> IDENTITY</text>
</g>
<!-- Node14 -->
<g id="node30" class="node"><title>Node14</title>
<a xlink:href="a00374.html" target="_top" xlink:title="Urho3D::Vector\&lt; Urho3D\l::WeakPtr\&lt; Urho3D::Component \&gt; \&gt;">
<polygon fill="none" stroke="red" points="389,-624.931 389,-658.931 583,-658.931 583,-624.931 389,-624.931"/>
<text text-anchor="start" x="397" y="-645.931" font-family="FreeSans" font-size="10.00">Urho3D::Vector&lt; Urho3D</text>
<text text-anchor="middle" x="486" y="-632.931" font-family="FreeSans" font-size="10.00">::WeakPtr&lt; Urho3D::Component &gt; &gt;</text>
</a>
</g>
<!-- Node14&#45;&gt;Node9 -->
<g id="edge34" class="edge"><title>Node14&#45;&gt;Node9</title>
<path fill="none" stroke="#9a32cd" stroke-dasharray="5,2" d="M593.189,-628.878C628.962,-622.914 668.688,-614.517 704,-602.931 719.026,-598 735.035,-590.012 746.881,-583.518"/>
<polygon fill="#9a32cd" stroke="#9a32cd" points="592.522,-625.441 583.212,-630.497 593.643,-632.351 592.522,-625.441"/>
<text text-anchor="middle" x="655" y="-630.931" font-family="FreeSans" font-size="10.00"> listeners_</text>
</g>
<!-- Node15 -->
<g id="node32" class="node"><title>Node15</title>
<a xlink:href="a00379.html" target="_top" xlink:title="Dynamically sized buffer that can be read and written to as a stream.">
<polygon fill="none" stroke="red" points="426.5,-585.431 426.5,-606.431 545.5,-606.431 545.5,-585.431 426.5,-585.431"/>
<text text-anchor="middle" x="486" y="-593.431" font-family="FreeSans" font-size="10.00">Urho3D::VectorBuffer</text>
</a>
</g>
<!-- Node15&#45;&gt;Node9 -->
<g id="edge36" class="edge"><title>Node15&#45;&gt;Node9</title>
<path fill="none" stroke="#9a32cd" stroke-dasharray="5,2" d="M555.734,-590.182C608.093,-585.866 678.11,-580.094 722.391,-576.443"/>
<polygon fill="#9a32cd" stroke="#9a32cd" points="555.189,-586.715 545.51,-591.025 555.764,-593.691 555.189,-586.715"/>
<text text-anchor="middle" x="655" y="-589.931" font-family="FreeSans" font-size="10.00"> attrBuffer_</text>
</g>
<!-- Node16 -->
<g id="node34" class="node"><title>Node16</title>
<a xlink:href="a00374.html" target="_top" xlink:title="Urho3D::Vector\&lt; Urho3D\l::SharedPtr\&lt; Urho3D::Component \&gt; \&gt;">
<polygon fill="none" stroke="red" points="384.5,-532.931 384.5,-566.931 587.5,-566.931 587.5,-532.931 384.5,-532.931"/>
<text text-anchor="start" x="392.5" y="-553.931" font-family="FreeSans" font-size="10.00">Urho3D::Vector&lt; Urho3D</text>
<text text-anchor="middle" x="486" y="-540.931" font-family="FreeSans" font-size="10.00">::SharedPtr&lt; Urho3D::Component &gt; &gt;</text>
</a>
</g>
<!-- Node16&#45;&gt;Node9 -->
<g id="edge38" class="edge"><title>Node16&#45;&gt;Node9</title>
<path fill="none" stroke="#9a32cd" stroke-dasharray="5,2" d="M597.722,-553.427C631.905,-555.21 669.564,-557.894 704,-561.931 709.985,-562.632 716.271,-563.553 722.439,-564.564"/>
<polygon fill="#9a32cd" stroke="#9a32cd" points="597.87,-549.93 587.708,-552.925 597.52,-556.921 597.87,-549.93"/>
<text text-anchor="middle" x="655" y="-565.931" font-family="FreeSans" font-size="10.00"> components_</text>
</g>
<!-- Node17 -->
<g id="node36" class="node"><title>Node17</title>
<a xlink:href="a00376.html" target="_top" xlink:title="Three&#45;dimensional vector.">
<polygon fill="none" stroke="black" points="438,-145.431 438,-166.431 534,-166.431 534,-145.431 438,-145.431"/>
<text text-anchor="middle" x="486" y="-153.431" font-family="FreeSans" font-size="10.00">Urho3D::Vector3</text>
</a>
</g>
<!-- Node17&#45;&gt;Node9 -->
<g id="edge40" class="edge"><title>Node17&#45;&gt;Node9</title>
<path fill="none" stroke="#9a32cd" stroke-dasharray="5,2" d="M504.168,-173.747C527.439,-196.437 569.171,-236.692 606,-269.931 648.587,-308.365 675.657,-304.056 704,-353.931 727.177,-394.715 709.732,-412.654 722,-457.931 732.703,-497.432 751.539,-542.369 760.288,-562.368"/>
<polygon fill="#9a32cd" stroke="#9a32cd" points="506.344,-170.979 496.745,-166.494 501.452,-175.986 506.344,-170.979"/>
<text text-anchor="middle" x="655" y="-370.931" font-family="FreeSans" font-size="10.00"> scale_</text>
<text text-anchor="middle" x="655" y="-357.931" font-family="FreeSans" font-size="10.00">position_</text>
</g>
<!-- Node17&#45;&gt;Node17 -->
<g id="edge42" class="edge"><title>Node17&#45;&gt;Node17</title>
<path fill="none" stroke="#9a32cd" stroke-dasharray="5,2" d="M454.741,-175.61C456.416,-180.905 466.835,-184.931 486,-184.931 515.203,-184.931 524.101,-175.584 512.693,-166.639"/>
<polygon fill="#9a32cd" stroke="#9a32cd" points="457.89,-177.138 459.307,-166.639 451.651,-173.963 457.89,-177.138"/>
<text text-anchor="middle" x="486" y="-279.931" font-family="FreeSans" font-size="10.00"> ONE</text>
<text text-anchor="middle" x="486" y="-266.931" font-family="FreeSans" font-size="10.00">DOWN</text>
<text text-anchor="middle" x="486" y="-253.931" font-family="FreeSans" font-size="10.00">BACK</text>
<text text-anchor="middle" x="486" y="-240.931" font-family="FreeSans" font-size="10.00">RIGHT</text>
<text text-anchor="middle" x="486" y="-227.931" font-family="FreeSans" font-size="10.00">LEFT</text>
<text text-anchor="middle" x="486" y="-214.931" font-family="FreeSans" font-size="10.00">ZERO</text>
<text text-anchor="middle" x="486" y="-201.931" font-family="FreeSans" font-size="10.00">FORWARD</text>
<text text-anchor="middle" x="486" y="-188.931" font-family="FreeSans" font-size="10.00">UP</text>
</g>
<!-- Node21 -->
<g id="node49" class="node"><title>Node21</title>
<a xlink:href="a00267.html" target="_top" xlink:title="Surface in three&#45;dimensional space.">
<polygon fill="none" stroke="black" points="722,-145.431 722,-166.431 808,-166.431 808,-145.431 722,-145.431"/>
<text text-anchor="middle" x="765" y="-153.431" font-family="FreeSans" font-size="10.00">Urho3D::Plane</text>
</a>
</g>
<!-- Node17&#45;&gt;Node21 -->
<g id="edge62" class="edge"><title>Node17&#45;&gt;Node21</title>
<path fill="none" stroke="#9a32cd" stroke-dasharray="5,2" d="M544.542,-155.931C597.522,-155.931 674.325,-155.931 721.886,-155.931"/>
<polygon fill="#9a32cd" stroke="#9a32cd" points="544.28,-152.431 534.28,-155.931 544.28,-159.431 544.28,-152.431"/>
<text text-anchor="middle" x="655" y="-172.931" font-family="FreeSans" font-size="10.00"> normal_</text>
<text text-anchor="middle" x="655" y="-159.931" font-family="FreeSans" font-size="10.00">absNormal_</text>
</g>
<!-- Node22 -->
<g id="node53" class="node"><title>Node22</title>
<a xlink:href="a00165.html" target="_top" xlink:title="Convex constructed of 6 planes.">
<polygon fill="none" stroke="black" points="933,-268.431 933,-289.431 1031,-289.431 1031,-268.431 933,-268.431"/>
<text text-anchor="middle" x="982" y="-276.431" font-family="FreeSans" font-size="10.00">Urho3D::Frustum</text>
</a>
</g>
<!-- Node17&#45;&gt;Node22 -->
<g id="edge68" class="edge"><title>Node17&#45;&gt;Node22</title>
<path fill="none" stroke="#9a32cd" stroke-dasharray="5,2" d="M536.559,-168.969C602.92,-186.025 723.063,-216.706 826,-241.931 863.308,-251.073 905.725,-261.11 936.902,-268.421"/>
<polygon fill="#9a32cd" stroke="#9a32cd" points="537.33,-165.553 526.773,-166.452 535.587,-172.333 537.33,-165.553"/>
<text text-anchor="middle" x="765" y="-240.931" font-family="FreeSans" font-size="10.00"> vertices_</text>
</g>
<!-- Node18 -->
<g id="node41" class="node"><title>Node18</title>
<a xlink:href="a00344.html" target="_top" xlink:title="32&#45;bit hash value for a string.">
<polygon fill="none" stroke="black" points="429.5,-462.431 429.5,-483.431 542.5,-483.431 542.5,-462.431 429.5,-462.431"/>
<text text-anchor="middle" x="486" y="-470.431" font-family="FreeSans" font-size="10.00">Urho3D::StringHash</text>
</a>
</g>
<!-- Node18&#45;&gt;Node9 -->
<g id="edge48" class="edge"><title>Node18&#45;&gt;Node9</title>
<path fill="none" stroke="#9a32cd" stroke-dasharray="5,2" d="M542.418,-485.928C587.187,-497.144 650.857,-515.127 704,-537.931 719.933,-544.768 736.959,-554.789 748.963,-562.358"/>
<polygon fill="#9a32cd" stroke="#9a32cd" points="543.146,-482.503 532.598,-483.5 541.466,-489.298 543.146,-482.503"/>
<text text-anchor="middle" x="655" y="-541.931" font-family="FreeSans" font-size="10.00"> nameHash_</text>
</g>
<!-- Node18&#45;&gt;Node18 -->
<g id="edge50" class="edge"><title>Node18&#45;&gt;Node18</title>
<path fill="none" stroke="#9a32cd" stroke-dasharray="5,2" d="M454.741,-492.61C456.416,-497.905 466.835,-501.931 486,-501.931 515.203,-501.931 524.101,-492.584 512.693,-483.639"/>
<polygon fill="#9a32cd" stroke="#9a32cd" points="457.89,-494.138 459.307,-483.639 451.651,-490.963 457.89,-494.138"/>
<text text-anchor="middle" x="486" y="-505.931" font-family="FreeSans" font-size="10.00"> ZERO</text>
</g>
<!-- Node19 -->
<g id="node44" class="node"><title>Node19</title>
<a xlink:href="a00374.html" target="_top" xlink:title="Urho3D::Vector\&lt; Urho3D\l::SharedPtr\&lt; Urho3D::Node \&gt; \&gt;">
<polygon fill="none" stroke="red" points="399.5,-799.931 399.5,-833.931 572.5,-833.931 572.5,-799.931 399.5,-799.931"/>
<text text-anchor="start" x="407.5" y="-820.931" font-family="FreeSans" font-size="10.00">Urho3D::Vector&lt; Urho3D</text>
<text text-anchor="middle" x="486" y="-807.931" font-family="FreeSans" font-size="10.00">::SharedPtr&lt; Urho3D::Node &gt; &gt;</text>
</a>
</g>
<!-- Node19&#45;&gt;Node9 -->
<g id="edge52" class="edge"><title>Node19&#45;&gt;Node9</title>
<path fill="none" stroke="#9a32cd" stroke-dasharray="5,2" d="M582.744,-805.287C632.28,-797.476 685.909,-785.546 704,-768.931 732.413,-742.836 756.396,-620.696 763.121,-583.626"/>
<polygon fill="#9a32cd" stroke="#9a32cd" points="581.933,-801.87 572.577,-806.843 582.992,-808.789 581.933,-801.87"/>
<text text-anchor="middle" x="655" y="-803.931" font-family="FreeSans" font-size="10.00"> children_</text>
</g>
<!-- Node20 -->
<g id="node46" class="node"><title>Node20</title>
<a xlink:href="a00217.html" target="_top" xlink:title="3x4 matrix for scene node transform calculations.">
<polygon fill="none" stroke="black" points="433,-307.431 433,-328.431 539,-328.431 539,-307.431 433,-307.431"/>
<text text-anchor="middle" x="486" y="-315.431" font-family="FreeSans" font-size="10.00">Urho3D::Matrix3x4</text>
</a>
</g>
<!-- Node20&#45;&gt;Node2 -->
<g id="edge78" class="edge"><title>Node20&#45;&gt;Node2</title>
<path fill="none" stroke="#9a32cd" stroke-dasharray="5,2" d="M549.391,-320.795C652.828,-324.345 864.032,-326.888 1040,-298.931 1087.51,-291.382 1103.38,-294.71 1144,-268.931 1173.91,-249.946 1198.54,-214.943 1209.65,-197.453"/>
<polygon fill="#9a32cd" stroke="#9a32cd" points="549.24,-317.288 539.121,-320.427 548.989,-324.283 549.24,-317.288"/>
<text text-anchor="middle" x="866" y="-336.931" font-family="FreeSans" font-size="10.00"> view_</text>
<text text-anchor="middle" x="866" y="-323.931" font-family="FreeSans" font-size="10.00">reflectionMatrix_</text>
</g>
<!-- Node20&#45;&gt;Node9 -->
<g id="edge54" class="edge"><title>Node20&#45;&gt;Node9</title>
<path fill="none" stroke="#9a32cd" stroke-dasharray="5,2" d="M515.086,-333.52C574.035,-365.136 702.2,-433.986 704,-435.931 739.725,-474.527 757.051,-537.512 762.771,-562.367"/>
<polygon fill="#9a32cd" stroke="#9a32cd" points="516.385,-330.245 505.918,-328.604 513.077,-336.414 516.385,-330.245"/>
<text text-anchor="middle" x="655" y="-439.931" font-family="FreeSans" font-size="10.00"> worldTransform_</text>
</g>
<!-- Node20&#45;&gt;Node20 -->
<g id="edge56" class="edge"><title>Node20&#45;&gt;Node20</title>
<path fill="none" stroke="#9a32cd" stroke-dasharray="5,2" d="M454.741,-337.61C456.416,-342.905 466.835,-346.931 486,-346.931 515.203,-346.931 524.101,-337.584 512.693,-328.639"/>
<polygon fill="#9a32cd" stroke="#9a32cd" points="457.89,-339.138 459.307,-328.639 451.651,-335.963 457.89,-339.138"/>
<text text-anchor="middle" x="486" y="-363.931" font-family="FreeSans" font-size="10.00"> IDENTITY</text>
<text text-anchor="middle" x="486" y="-350.931" font-family="FreeSans" font-size="10.00">ZERO</text>
</g>
<!-- Node21&#45;&gt;Node2 -->
<g id="edge58" class="edge"><title>Node21&#45;&gt;Node2</title>
<path fill="none" stroke="#9a32cd" stroke-dasharray="5,2" d="M778.428,-136.946C802.919,-104.174 858.412,-38.0861 924,-12.9307 972.137,5.5314 990.84,2.60061 1040,-12.9307 1093.85,-29.9433 1112.64,-38.9655 1144,-85.9307 1164.48,-116.6 1137.76,-139.142 1162,-166.931 1165.35,-170.773 1169.51,-173.878 1174.02,-176.387"/>
<polygon fill="#9a32cd" stroke="#9a32cd" points="775.437,-135.106 772.359,-145.244 781.087,-139.238 775.437,-135.106"/>
<text text-anchor="middle" x="982" y="-29.9307" font-family="FreeSans" font-size="10.00"> clipPlane_</text>
<text text-anchor="middle" x="982" y="-16.9307" font-family="FreeSans" font-size="10.00">reflectionPlane_</text>
</g>
<!-- Node21&#45;&gt;Node21 -->
<g id="edge60" class="edge"><title>Node21&#45;&gt;Node21</title>
<path fill="none" stroke="#9a32cd" stroke-dasharray="5,2" d="M746.571,-176.357C747.993,-181.28 754.136,-184.931 765,-184.931 782.383,-184.931 787.679,-175.584 780.889,-166.639"/>
<polygon fill="#9a32cd" stroke="#9a32cd" points="749.969,-177.199 749.111,-166.639 743.196,-175.429 749.969,-177.199"/>
<text text-anchor="middle" x="765" y="-188.931" font-family="FreeSans" font-size="10.00"> UP</text>
</g>
<!-- Node21&#45;&gt;Node22 -->
<g id="edge66" class="edge"><title>Node21&#45;&gt;Node22</title>
<path fill="none" stroke="#9a32cd" stroke-dasharray="5,2" d="M806.069,-170.151C836.37,-182.2 877.172,-201.856 906,-228.931 917.334,-239.576 911.921,-249.139 924,-258.931 928.716,-262.754 934.208,-265.866 939.895,-268.395"/>
<polygon fill="#9a32cd" stroke="#9a32cd" points="807.219,-166.843 796.629,-166.507 804.698,-173.373 807.219,-166.843"/>
<text text-anchor="middle" x="866" y="-232.931" font-family="FreeSans" font-size="10.00"> planes_</text>
</g>
<!-- Node22&#45;&gt;Node2 -->
<g id="edge64" class="edge"><title>Node22&#45;&gt;Node2</title>
<path fill="none" stroke="#9a32cd" stroke-dasharray="5,2" d="M1023.57,-264.915C1029.11,-262.953 1034.7,-260.925 1040,-258.931 1094.53,-238.394 1157.53,-211.95 1191.4,-197.507"/>
<polygon fill="#9a32cd" stroke="#9a32cd" points="1022.01,-261.751 1013.72,-268.352 1024.32,-268.36 1022.01,-261.751"/>
<text text-anchor="middle" x="1101" y="-255.931" font-family="FreeSans" font-size="10.00"> frustum_</text>
</g>
<!-- Node23 -->
<g id="node57" class="node"><title>Node23</title>
<a xlink:href="a00375.html" target="_top" xlink:title="Two&#45;dimensional vector.">
<polygon fill="none" stroke="black" points="934,-132.431 934,-153.431 1030,-153.431 1030,-132.431 934,-132.431"/>
<text text-anchor="middle" x="982" y="-140.431" font-family="FreeSans" font-size="10.00">Urho3D::Vector2</text>
</a>
</g>
<!-- Node23&#45;&gt;Node2 -->
<g id="edge70" class="edge"><title>Node23&#45;&gt;Node2</title>
<path fill="none" stroke="#9a32cd" stroke-dasharray="5,2" d="M1040.33,-153.898C1079.21,-161.21 1129.77,-170.716 1166.65,-177.652"/>
<polygon fill="#9a32cd" stroke="#9a32cd" points="1040.68,-150.403 1030.2,-151.994 1039.38,-157.282 1040.68,-150.403"/>
<text text-anchor="middle" x="1101" y="-176.931" font-family="FreeSans" font-size="10.00"> projectionOffset_</text>
</g>
<!-- Node23&#45;&gt;Node23 -->
<g id="edge72" class="edge"><title>Node23&#45;&gt;Node23</title>
<path fill="none" stroke="#9a32cd" stroke-dasharray="5,2" d="M960.622,-163.357C962.272,-168.28 969.397,-171.931 982,-171.931 1002.16,-171.931 1008.31,-162.584 1000.43,-153.639"/>
<polygon fill="#9a32cd" stroke="#9a32cd" points="964.017,-164.224 963.569,-153.639 957.318,-162.193 964.017,-164.224"/>
<text text-anchor="middle" x="982" y="-240.931" font-family="FreeSans" font-size="10.00"> ONE</text>
<text text-anchor="middle" x="982" y="-227.931" font-family="FreeSans" font-size="10.00">DOWN</text>
<text text-anchor="middle" x="982" y="-214.931" font-family="FreeSans" font-size="10.00">RIGHT</text>
<text text-anchor="middle" x="982" y="-201.931" font-family="FreeSans" font-size="10.00">LEFT</text>
<text text-anchor="middle" x="982" y="-188.931" font-family="FreeSans" font-size="10.00">ZERO</text>
<text text-anchor="middle" x="982" y="-175.931" font-family="FreeSans" font-size="10.00">UP</text>
</g>
<!-- Node24 -->
<g id="node60" class="node"><title>Node24</title>
<a xlink:href="a00218.html" target="_top" xlink:title="4x4 matrix for arbitrary linear transforms including projection.">
<polygon fill="none" stroke="black" points="934.5,-48.4307 934.5,-69.4307 1029.5,-69.4307 1029.5,-48.4307 934.5,-48.4307"/>
<text text-anchor="middle" x="982" y="-56.4307" font-family="FreeSans" font-size="10.00">Urho3D::Matrix4</text>
</a>
</g>
<!-- Node24&#45;&gt;Node2 -->
<g id="edge74" class="edge"><title>Node24&#45;&gt;Node2</title>
<path fill="none" stroke="#9a32cd" stroke-dasharray="5,2" d="M1021.69,-73.0907C1056.56,-86.8868 1107.31,-110.388 1144,-141.931 1154.38,-150.857 1151.11,-158.637 1162,-166.931 1166.93,-170.686 1172.64,-173.795 1178.46,-176.351"/>
<polygon fill="#9a32cd" stroke="#9a32cd" points="1022.89,-69.8024 1012.31,-69.4583 1020.37,-76.3309 1022.89,-69.8024"/>
<text text-anchor="middle" x="1101" y="-145.931" font-family="FreeSans" font-size="10.00"> projection_</text>
</g>
<!-- Node24&#45;&gt;Node24 -->
<g id="edge76" class="edge"><title>Node24&#45;&gt;Node24</title>
<path fill="none" stroke="#9a32cd" stroke-dasharray="5,2" d="M960.622,-79.3573C962.272,-84.2796 969.397,-87.9307 982,-87.9307 1002.16,-87.9307 1008.31,-78.5838 1000.43,-69.6386"/>
<polygon fill="#9a32cd" stroke="#9a32cd" points="964.017,-80.2239 963.569,-69.6386 957.318,-78.193 964.017,-80.2239"/>
<text text-anchor="middle" x="982" y="-104.931" font-family="FreeSans" font-size="10.00"> IDENTITY</text>
<text text-anchor="middle" x="982" y="-91.9307" font-family="FreeSans" font-size="10.00">ZERO</text>
</g>
<!-- Node25 -->
<g id="node64" class="node"><title>Node25</title>
<a xlink:href="a00188.html" target="_top" xlink:title="Two&#45;dimensional vector with integer values.">
<polygon fill="none" stroke="black" points="1162,-105.431 1162,-126.431 1270,-126.431 1270,-105.431 1162,-105.431"/>
<text text-anchor="middle" x="1216" y="-113.431" font-family="FreeSans" font-size="10.00">Urho3D::IntVector2</text>
</a>
</g>
<!-- Node25&#45;&gt;Node1 -->
<g id="edge80" class="edge"><title>Node25&#45;&gt;Node1</title>
<path fill="none" stroke="#9a32cd" stroke-dasharray="5,2" d="M1278.23,-128.44C1303.84,-133.589 1333.18,-139.487 1357.66,-144.409"/>
<polygon fill="#9a32cd" stroke="#9a32cd" points="1278.74,-124.973 1268.24,-126.433 1277.36,-131.836 1278.74,-124.973"/>
<text text-anchor="middle" x="1313" y="-144.931" font-family="FreeSans" font-size="10.00"> viewSize_</text>
</g>
<!-- Node25&#45;&gt;Node25 -->
<g id="edge82" class="edge"><title>Node25&#45;&gt;Node25</title>
<path fill="none" stroke="#9a32cd" stroke-dasharray="5,2" d="M1198.31,-136.357C1199.67,-141.28 1205.57,-144.931 1216,-144.931 1232.69,-144.931 1237.77,-135.584 1231.25,-126.639"/>
<polygon fill="#9a32cd" stroke="#9a32cd" points="1201.71,-137.19 1200.75,-126.639 1194.92,-135.486 1201.71,-137.19"/>
<text text-anchor="middle" x="1216" y="-148.931" font-family="FreeSans" font-size="10.00"> ZERO</text>
</g>
</g>
</svg>
        <g id="navigator" transform="translate(0 0)" fill="#404254">
                <rect fill="#f2f5e9" fill-opacity="0.5" stroke="#606060" stroke-width=".5" x="0" y="0" width="60" height="60"/>
                <use id="zoomplus" xlink:href="#zoomPlus" x="17" y="9" onmousedown="handleZoom(evt,'in')"/>
                <use id="zoomminus" xlink:href="#zoomMin" x="42" y="9" onmousedown="handleZoom(evt,'out')"/>
                <use id="reset" xlink:href="#resetDef" x="30" y="36" onmousedown="handleReset()"/>
                <g id="arrowUp" xlink:href="#dirArrow" transform="translate(30 24)" onmousedown="handlePan(0,-1)">
                  <use xlink:href="#rim" fill="#404040">
                        <set attributeName="fill" to="#808080" begin="arrowUp.mouseover" end="arrowUp.mouseout"/>
                  </use>
                  <path fill="none" stroke="white" stroke-width="1.5" d="M0,-3.0v7 M-2.5,-0.5L0,-3.0L2.5,-0.5"/>
                </g>
                <g id="arrowRight" xlink:href="#dirArrow" transform="rotate(90) translate(36 -43)" onmousedown="handlePan(1,0)">
                  <use xlink:href="#rim" fill="#404040">
                        <set attributeName="fill" to="#808080" begin="arrowRight.mouseover" end="arrowRight.mouseout"/>
                  </use>
                  <path fill="none" stroke="white" stroke-width="1.5" d="M0,-3.0v7 M-2.5,-0.5L0,-3.0L2.5,-0.5"/>
                </g>
                <g id="arrowDown" xlink:href="#dirArrow" transform="rotate(180) translate(-30 -48)" onmousedown="handlePan(0,1)">
                  <use xlink:href="#rim" fill="#404040">
                        <set attributeName="fill" to="#808080" begin="arrowDown.mouseover" end="arrowDown.mouseout"/>
                  </use>
                  <path fill="none" stroke="white" stroke-width="1.5" d="M0,-3.0v7 M-2.5,-0.5L0,-3.0L2.5,-0.5"/>
                </g>
                <g id="arrowLeft" xlink:href="#dirArrow" transform="rotate(270) translate(-36 17)" onmousedown="handlePan(-1,0)">
                  <use xlink:href="#rim" fill="#404040">
                        <set attributeName="fill" to="#808080" begin="arrowLeft.mouseover" end="arrowLeft.mouseout"/>
                  </use>
                  <path fill="none" stroke="white" stroke-width="1.5" d="M0,-3.0v7 M-2.5,-0.5L0,-3.0L2.5,-0.5"/>
                </g>
        </g>
        <svg viewBox="0 0 15 15" width="100%" height="30px" preserveAspectRatio="xMaxYMin meet">
         <g id="arrow_out" transform="scale(0.3 0.3)">
          <a xlink:href="a01129_org.svg" target="_base">
           <rect id="button" ry="5" rx="5" y="6" x="6" height="38" width="38"
                fill="#f2f5e9" fill-opacity="0.5" stroke="#606060" stroke-width="1.0"/>
           <path id="arrow"
             d="M 11.500037,31.436501 C 11.940474,20.09759 22.043105,11.32322 32.158766,21.979434 L 37.068811,17.246167 C 37.068811,17.246167 37.088388,32 37.088388,32 L 22.160133,31.978069 C 22.160133,31.978069 26.997745,27.140456 26.997745,27.140456 C 18.528582,18.264221 13.291696,25.230495 11.500037,31.436501 z"
             style="fill:#404040;"/>
          </a>
         </g>
        </svg>
</svg>
