<?xml version="1.0" encoding="UTF-8" standalone="no"?>
<!DOCTYPE svg PUBLIC "-//W3C//DTD SVG 1.1//EN"
 "http://www.w3.org/Graphics/SVG/1.1/DTD/svg11.dtd">
<!-- Generated by graphviz version 2.26.3 (20100126.1600)
 -->
<!-- Title: Urho3D::Zone Pages: 1 -->
<svg width="1864pt" height="781pt"
 viewBox="0.00 0.00 1864.00 781.15" xmlns="http://www.w3.org/2000/svg" xmlns:xlink="http://www.w3.org/1999/xlink">
<g id="graph1" class="graph" transform="scale(1 1) rotate(0) translate(4 777.149)">
<title>Urho3D::Zone</title>
<!-- Node1 -->
<g id="node1" class="node"><title>Node1</title>
<polygon fill="#bfbfbf" stroke="black" points="992.5,-252.649 992.5,-273.649 1077.5,-273.649 1077.5,-252.649 992.5,-252.649"/>
<text text-anchor="middle" x="1035" y="-260.649" font-family="FreeSans" font-size="10.00">Urho3D::Zone</text>
</g>
<!-- Node2 -->
<g id="node2" class="node"><title>Node2</title>
<a xlink:href="a00115.html" target="_top" xlink:title="Base class for visible components.">
<polygon fill="none" stroke="black" points="1280,-361.649 1280,-382.649 1384,-382.649 1384,-361.649 1280,-361.649"/>
<text text-anchor="middle" x="1332" y="-369.649" font-family="FreeSans" font-size="10.00">Urho3D::Drawable</text>
</a>
</g>
<!-- Node1&#45;&gt;Node2 -->
<g id="edge22" class="edge"><title>Node1&#45;&gt;Node2</title>
<path fill="none" stroke="#9a32cd" stroke-dasharray="5,2" d="M1087.86,-270.718C1142.79,-278.804 1222.62,-291.25 1236,-297.149 1271.61,-312.853 1305.62,-344.728 1321.94,-361.415"/>
<polygon fill="#9a32cd" stroke="#9a32cd" points="1088.31,-267.247 1077.91,-269.262 1087.3,-274.173 1088.31,-267.247"/>
<text text-anchor="middle" x="1179" y="-314.149" font-family="FreeSans" font-size="10.00"> lastZone_</text>
<text text-anchor="middle" x="1179" y="-301.149" font-family="FreeSans" font-size="10.00">zone_</text>
</g>
<!-- Node24 -->
<g id="node70" class="node"><title>Node24</title>
<a xlink:href="a00326.html" target="_top" xlink:title="Urho3D::WeakPtr\&lt; Urho3D\l::Zone \&gt;">
<polygon fill="none" stroke="black" points="1259,-160.149 1259,-194.149 1405,-194.149 1405,-160.149 1259,-160.149"/>
<text text-anchor="start" x="1267" y="-181.149" font-family="FreeSans" font-size="10.00">Urho3D::WeakPtr&lt; Urho3D</text>
<text text-anchor="middle" x="1332" y="-168.149" font-family="FreeSans" font-size="10.00">::Zone &gt;</text>
</a>
</g>
<!-- Node1&#45;&gt;Node24 -->
<g id="edge96" class="edge"><title>Node1&#45;&gt;Node24</title>
<path fill="none" stroke="#9a32cd" stroke-dasharray="5,2" d="M1046.3,-243.883C1060.65,-221.545 1087.73,-185.909 1122,-171.149 1164.71,-152.755 1216.97,-154.171 1258.67,-160.228"/>
<polygon fill="#9a32cd" stroke="#9a32cd" points="1043.23,-242.196 1040.94,-252.542 1049.18,-245.879 1043.23,-242.196"/>
<text text-anchor="middle" x="1179" y="-175.149" font-family="FreeSans" font-size="10.00"> ptr_</text>
</g>
<!-- Node2&#45;&gt;Node1 -->
<g id="edge2" class="edge"><title>Node2&#45;&gt;Node1</title>
<path fill="none" stroke="midnightblue" d="M1319.22,-352.954C1302.92,-330.299 1272.43,-293.628 1236,-277.149 1185.33,-254.224 1120.06,-254.375 1077.88,-257.781"/>
<polygon fill="midnightblue" stroke="midnightblue" points="1316.54,-355.228 1325.13,-361.431 1322.28,-351.225 1316.54,-355.228"/>
</g>
<!-- Node16 -->
<g id="node44" class="node"><title>Node16</title>
<a xlink:href="a00159.html" target="_top" xlink:title="Light component.">
<polygon fill="none" stroke="red" points="1532.5,-121.649 1532.5,-142.649 1615.5,-142.649 1615.5,-121.649 1532.5,-121.649"/>
<text text-anchor="middle" x="1574" y="-129.649" font-family="FreeSans" font-size="10.00">Urho3D::Light</text>
</a>
</g>
<!-- Node2&#45;&gt;Node16 -->
<g id="edge60" class="edge"><title>Node2&#45;&gt;Node16</title>
<path fill="none" stroke="midnightblue" d="M1340.89,-351.85C1355.44,-320.394 1386.9,-259.32 1428,-219.149 1464.19,-183.78 1517.42,-156.755 1548.61,-142.767"/>
<polygon fill="midnightblue" stroke="midnightblue" points="1337.54,-350.756 1336.61,-361.31 1343.92,-353.64 1337.54,-350.756"/>
</g>
<!-- Node3 -->
<g id="node4" class="node"><title>Node3</title>
<a xlink:href="a00085.html" target="_top" xlink:title="Base class for components. Components can be created to scene nodes.">
<polygon fill="none" stroke="black" points="434,-323.649 434,-344.649 550,-344.649 550,-323.649 434,-323.649"/>
<text text-anchor="middle" x="492" y="-331.649" font-family="FreeSans" font-size="10.00">Urho3D::Component</text>
</a>
</g>
<!-- Node3&#45;&gt;Node2 -->
<g id="edge4" class="edge"><title>Node3&#45;&gt;Node2</title>
<path fill="none" stroke="midnightblue" d="M560.525,-334.808C673.747,-336.202 906.958,-340.358 1104,-352.149 1164.49,-355.768 1233.82,-362.173 1279.99,-366.76"/>
<polygon fill="midnightblue" stroke="midnightblue" points="560.318,-331.305 550.277,-334.685 560.234,-338.305 560.318,-331.305"/>
</g>
<!-- Node10 -->
<g id="node23" class="node"><title>Node10</title>
<a xlink:href="a00078.html" target="_top" xlink:title="Camera component.">
<polygon fill="none" stroke="black" points="694,-612.649 694,-633.649 792,-633.649 792,-612.649 694,-612.649"/>
<text text-anchor="middle" x="743" y="-620.649" font-family="FreeSans" font-size="10.00">Urho3D::Camera</text>
</a>
</g>
<!-- Node3&#45;&gt;Node10 -->
<g id="edge30" class="edge"><title>Node3&#45;&gt;Node10</title>
<path fill="none" stroke="midnightblue" d="M531.828,-349.214C538.265,-352.6 544.585,-356.573 550,-361.149 612.238,-413.75 618.407,-438.845 654,-512.149 665.789,-536.429 656.422,-548.107 672,-570.149 685.05,-588.614 706.524,-603.349 722.444,-612.549"/>
<polygon fill="midnightblue" stroke="midnightblue" points="532.932,-345.861 522.404,-344.672 529.892,-352.167 532.932,-345.861"/>
</g>
<!-- Node4 -->
<g id="node6" class="node"><title>Node4</title>
<a xlink:href="a00260.html" target="_top" xlink:title="Base class for objects with automatic serialization through attributes.">
<polygon fill="none" stroke="red" points="0,-315.649 0,-336.649 114,-336.649 114,-315.649 0,-315.649"/>
<text text-anchor="middle" x="57" y="-323.649" font-family="FreeSans" font-size="10.00">Urho3D::Serializable</text>
</a>
</g>
<!-- Node4&#45;&gt;Node3 -->
<g id="edge6" class="edge"><title>Node4&#45;&gt;Node3</title>
<path fill="none" stroke="midnightblue" d="M124.336,-333.751C156.823,-337.049 196.387,-340.524 232,-342.149 301.362,-345.313 381.191,-341.791 433.895,-338.472"/>
<polygon fill="midnightblue" stroke="midnightblue" points="124.358,-330.235 114.051,-332.689 123.639,-337.198 124.358,-330.235"/>
</g>
<!-- Node5 -->
<g id="node8" class="node"><title>Node5</title>
<a xlink:href="a00194.html" target="_top" xlink:title="Scene node that may contain components and child nodes.">
<polygon fill="none" stroke="red" points="232.5,-280.649 232.5,-301.649 317.5,-301.649 317.5,-280.649 232.5,-280.649"/>
<text text-anchor="middle" x="275" y="-288.649" font-family="FreeSans" font-size="10.00">Urho3D::Node</text>
</a>
</g>
<!-- Node4&#45;&gt;Node5 -->
<g id="edge10" class="edge"><title>Node4&#45;&gt;Node5</title>
<path fill="none" stroke="midnightblue" d="M124.472,-315.316C159.628,-309.672 201.559,-302.94 232.227,-298.016"/>
<polygon fill="midnightblue" stroke="midnightblue" points="123.596,-311.912 114.277,-316.953 124.705,-318.823 123.596,-311.912"/>
</g>
<!-- Node5&#45;&gt;Node3 -->
<g id="edge8" class="edge"><title>Node5&#45;&gt;Node3</title>
<path fill="none" stroke="#9a32cd" stroke-dasharray="5,2" d="M327.728,-301.597C361.407,-308.271 404.933,-316.896 438.719,-323.591"/>
<polygon fill="#9a32cd" stroke="#9a32cd" points="328.103,-298.104 317.613,-299.593 326.742,-304.97 328.103,-298.104"/>
<text text-anchor="middle" x="376" y="-322.149" font-family="FreeSans" font-size="10.00"> node_</text>
</g>
<!-- Node5&#45;&gt;Node5 -->
<g id="edge16" class="edge"><title>Node5&#45;&gt;Node5</title>
<path fill="none" stroke="#9a32cd" stroke-dasharray="5,2" d="M256.571,-311.575C257.993,-316.498 264.136,-320.149 275,-320.149 292.383,-320.149 297.679,-310.802 290.889,-301.857"/>
<polygon fill="#9a32cd" stroke="#9a32cd" points="259.969,-312.417 259.111,-301.857 253.196,-310.647 259.969,-312.417"/>
<text text-anchor="middle" x="275" y="-324.149" font-family="FreeSans" font-size="10.00"> parent_</text>
</g>
<!-- Node6 -->
<g id="node11" class="node"><title>Node6</title>
<a xlink:href="a00316.html" target="_top" xlink:title="Three&#45;dimensional vector.">
<polygon fill="none" stroke="black" points="9,-426.649 9,-447.649 105,-447.649 105,-426.649 9,-426.649"/>
<text text-anchor="middle" x="57" y="-434.649" font-family="FreeSans" font-size="10.00">Urho3D::Vector3</text>
</a>
</g>
<!-- Node6&#45;&gt;Node5 -->
<g id="edge12" class="edge"><title>Node6&#45;&gt;Node5</title>
<path fill="none" stroke="#9a32cd" stroke-dasharray="5,2" d="M75.5237,-419.248C90.2025,-405.53 111.572,-386.571 132,-372.149 172.791,-343.351 224.637,-316.074 253.362,-301.696"/>
<polygon fill="#9a32cd" stroke="#9a32cd" points="72.9635,-416.852 68.1056,-426.267 77.7748,-421.936 72.9635,-416.852"/>
<text text-anchor="middle" x="173" y="-389.149" font-family="FreeSans" font-size="10.00"> scale_</text>
<text text-anchor="middle" x="173" y="-376.149" font-family="FreeSans" font-size="10.00">position_</text>
</g>
<!-- Node6&#45;&gt;Node6 -->
<g id="edge14" class="edge"><title>Node6&#45;&gt;Node6</title>
<path fill="none" stroke="#9a32cd" stroke-dasharray="5,2" d="M35.6225,-457.575C37.2716,-462.498 44.3975,-466.149 57,-466.149 77.1641,-466.149 83.3078,-456.802 75.4312,-447.857"/>
<polygon fill="#9a32cd" stroke="#9a32cd" points="39.017,-458.442 38.5688,-447.857 32.318,-456.411 39.017,-458.442"/>
<text text-anchor="middle" x="57" y="-561.149" font-family="FreeSans" font-size="10.00"> ONE</text>
<text text-anchor="middle" x="57" y="-548.149" font-family="FreeSans" font-size="10.00">DOWN</text>
<text text-anchor="middle" x="57" y="-535.149" font-family="FreeSans" font-size="10.00">BACK</text>
<text text-anchor="middle" x="57" y="-522.149" font-family="FreeSans" font-size="10.00">RIGHT</text>
<text text-anchor="middle" x="57" y="-509.149" font-family="FreeSans" font-size="10.00">LEFT</text>
<text text-anchor="middle" x="57" y="-496.149" font-family="FreeSans" font-size="10.00">ZERO</text>
<text text-anchor="middle" x="57" y="-483.149" font-family="FreeSans" font-size="10.00">FORWARD</text>
<text text-anchor="middle" x="57" y="-470.149" font-family="FreeSans" font-size="10.00">UP</text>
</g>
<!-- Node11 -->
<g id="node26" class="node"><title>Node11</title>
<a xlink:href="a00219.html" target="_top" xlink:title="Surface in three&#45;dimensional space.">
<polygon fill="none" stroke="black" points="232,-675.649 232,-696.649 318,-696.649 318,-675.649 232,-675.649"/>
<text text-anchor="middle" x="275" y="-683.649" font-family="FreeSans" font-size="10.00">Urho3D::Plane</text>
</a>
</g>
<!-- Node6&#45;&gt;Node11 -->
<g id="edge36" class="edge"><title>Node6&#45;&gt;Node11</title>
<path fill="none" stroke="#9a32cd" stroke-dasharray="5,2" d="M73.0325,-455.461C115.848,-504.365 231.904,-636.924 265.668,-675.489"/>
<polygon fill="#9a32cd" stroke="#9a32cd" points="75.5878,-453.066 66.3672,-447.848 70.321,-457.678 75.5878,-453.066"/>
<text text-anchor="middle" x="173" y="-629.149" font-family="FreeSans" font-size="10.00"> normal_</text>
<text text-anchor="middle" x="173" y="-616.149" font-family="FreeSans" font-size="10.00">absNormal_</text>
</g>
<!-- Node12 -->
<g id="node30" class="node"><title>Node12</title>
<a xlink:href="a00132.html" target="_top" xlink:title="Convex constructed of 6 planes.">
<polygon fill="none" stroke="black" points="443,-747.649 443,-768.649 541,-768.649 541,-747.649 443,-747.649"/>
<text text-anchor="middle" x="492" y="-755.649" font-family="FreeSans" font-size="10.00">Urho3D::Frustum</text>
</a>
</g>
<!-- Node6&#45;&gt;Node12 -->
<g id="edge42" class="edge"><title>Node6&#45;&gt;Node12</title>
<path fill="none" stroke="#9a32cd" stroke-dasharray="5,2" d="M60.9228,-457.9C73.322,-516.606 117.822,-683.108 232,-737.149 299.744,-769.212 388.562,-768.595 442.893,-764.152"/>
<polygon fill="#9a32cd" stroke="#9a32cd" points="64.3243,-457.061 58.9155,-447.951 57.4626,-458.446 64.3243,-457.061"/>
<text text-anchor="middle" x="275" y="-764.149" font-family="FreeSans" font-size="10.00"> vertices_</text>
</g>
<!-- Node21 -->
<g id="node59" class="node"><title>Node21</title>
<a xlink:href="a00075.html" target="_top" xlink:title="Three&#45;dimensional axis&#45;aligned bounding box.">
<polygon fill="none" stroke="black" points="682,-424.649 682,-445.649 804,-445.649 804,-424.649 682,-424.649"/>
<text text-anchor="middle" x="743" y="-432.649" font-family="FreeSans" font-size="10.00">Urho3D::BoundingBox</text>
</a>
</g>
<!-- Node6&#45;&gt;Node21 -->
<g id="edge80" class="edge"><title>Node6&#45;&gt;Node21</title>
<path fill="none" stroke="#9a32cd" stroke-dasharray="5,2" d="M115.282,-436.979C243.822,-436.604 550.619,-435.71 681.805,-435.327"/>
<polygon fill="#9a32cd" stroke="#9a32cd" points="115.228,-433.479 105.238,-437.008 115.248,-440.479 115.228,-433.479"/>
<text text-anchor="middle" x="376" y="-453.149" font-family="FreeSans" font-size="10.00"> max_</text>
<text text-anchor="middle" x="376" y="-440.149" font-family="FreeSans" font-size="10.00">min_</text>
</g>
<!-- Node23 -->
<g id="node65" class="node"><title>Node23</title>
<a xlink:href="a00204.html" target="_top" xlink:title="Octree octant">
<polygon fill="none" stroke="red" points="989,-361.649 989,-382.649 1081,-382.649 1081,-361.649 989,-361.649"/>
<text text-anchor="middle" x="1035" y="-369.649" font-family="FreeSans" font-size="10.00">Urho3D::Octant</text>
</a>
</g>
<!-- Node6&#45;&gt;Node23 -->
<g id="edge88" class="edge"><title>Node6&#45;&gt;Node23</title>
<path fill="none" stroke="#9a32cd" stroke-dasharray="5,2" d="M115.509,-431.067C244.638,-417.953 563.848,-387.225 832,-375.149 885.697,-372.731 947.456,-372.129 988.617,-372.038"/>
<polygon fill="#9a32cd" stroke="#9a32cd" points="115.035,-427.597 105.441,-432.093 115.745,-434.561 115.035,-427.597"/>
<text text-anchor="middle" x="492" y="-418.149" font-family="FreeSans" font-size="10.00"> center_</text>
<text text-anchor="middle" x="492" y="-405.149" font-family="FreeSans" font-size="10.00">halfSize_</text>
</g>
<!-- Node7 -->
<g id="node15" class="node"><title>Node7</title>
<a xlink:href="a00178.html" target="_top" xlink:title="3x4 matrix for scene node transform calculations.">
<polygon fill="none" stroke="black" points="4,-217.649 4,-238.649 110,-238.649 110,-217.649 4,-217.649"/>
<text text-anchor="middle" x="57" y="-225.649" font-family="FreeSans" font-size="10.00">Urho3D::Matrix3x4</text>
</a>
</g>
<!-- Node7&#45;&gt;Node1 -->
<g id="edge104" class="edge"><title>Node7&#45;&gt;Node1</title>
<path fill="none" stroke="#9a32cd" stroke-dasharray="5,2" d="M120.333,-227.319C148.949,-227.157 183.183,-227.261 214,-228.149 260.28,-229.483 271.842,-230.531 318,-234.149 421.3,-242.246 447.063,-245.299 550,-257.149 604.328,-263.403 617.43,-269.586 672,-273.149 734.977,-277.261 750.896,-274.09 814,-273.149 873.575,-272.26 888.49,-272.088 948,-269.149 962.366,-268.439 978.05,-267.43 992.096,-266.441"/>
<polygon fill="#9a32cd" stroke="#9a32cd" points="120.037,-223.821 110.061,-227.389 120.085,-230.82 120.037,-223.821"/>
<text text-anchor="middle" x="492" y="-261.149" font-family="FreeSans" font-size="10.00"> inverseWorld_</text>
</g>
<!-- Node7&#45;&gt;Node5 -->
<g id="edge18" class="edge"><title>Node7&#45;&gt;Node5</title>
<path fill="none" stroke="#9a32cd" stroke-dasharray="5,2" d="M85.1847,-243.293C98.9761,-250.182 116.016,-257.94 132,-263.149 164.953,-273.886 203.59,-281.15 232.39,-285.583"/>
<polygon fill="#9a32cd" stroke="#9a32cd" points="86.7058,-240.139 76.2087,-238.704 83.5194,-246.372 86.7058,-240.139"/>
<text text-anchor="middle" x="173" y="-286.149" font-family="FreeSans" font-size="10.00"> worldTransform_</text>
</g>
<!-- Node7&#45;&gt;Node7 -->
<g id="edge20" class="edge"><title>Node7&#45;&gt;Node7</title>
<path fill="none" stroke="#9a32cd" stroke-dasharray="5,2" d="M35.6225,-248.575C37.2716,-253.498 44.3975,-257.149 57,-257.149 77.1641,-257.149 83.3078,-247.802 75.4312,-238.857"/>
<polygon fill="#9a32cd" stroke="#9a32cd" points="39.017,-249.442 38.5688,-238.857 32.318,-247.411 39.017,-249.442"/>
<text text-anchor="middle" x="57" y="-274.149" font-family="FreeSans" font-size="10.00"> IDENTITY</text>
<text text-anchor="middle" x="57" y="-261.149" font-family="FreeSans" font-size="10.00">ZERO</text>
</g>
<!-- Node7&#45;&gt;Node10 -->
<g id="edge52" class="edge"><title>Node7&#45;&gt;Node10</title>
<path fill="none" stroke="#9a32cd" stroke-dasharray="5,2" d="M120.233,-229.74C216.749,-234.212 404.894,-251.064 550,-314.149 598.938,-335.425 625.224,-329.21 654,-374.149 701.173,-447.818 629.252,-493.827 672,-570.149 682.749,-589.34 703.643,-603.628 719.995,-612.503"/>
<polygon fill="#9a32cd" stroke="#9a32cd" points="120.196,-226.235 110.054,-229.299 119.893,-233.229 120.196,-226.235"/>
<text text-anchor="middle" x="376" y="-286.149" font-family="FreeSans" font-size="10.00"> view_</text>
<text text-anchor="middle" x="376" y="-273.149" font-family="FreeSans" font-size="10.00">reflectionMatrix_</text>
</g>
<!-- Node7&#45;&gt;Node16 -->
<g id="edge76" class="edge"><title>Node7&#45;&gt;Node16</title>
<path fill="none" stroke="#9a32cd" stroke-dasharray="5,2" d="M68.1896,-208.777C96.4447,-162.653 175.556,-50.1488 275,-50.1488 275,-50.1488 275,-50.1488 1332,-50.1488 1414.73,-50.1488 1438.35,-55.6845 1514,-89.1488 1532.28,-97.2362 1550.56,-111.435 1562.06,-121.293"/>
<polygon fill="#9a32cd" stroke="#9a32cd" points="65.0732,-207.169 62.9432,-217.547 71.0804,-210.762 65.0732,-207.169"/>
<text text-anchor="middle" x="743" y="-54.1488" font-family="FreeSans" font-size="10.00"> volumeTransform_</text>
</g>
<!-- Node8 -->
<g id="node19" class="node"><title>Node8</title>
<a xlink:href="a00220.html" target="_top" xlink:title="Urho3D::PODVector\&lt;\l Urho3D::Light * \&gt;">
<polygon fill="none" stroke="black" points="975.5,-507.149 975.5,-541.149 1094.5,-541.149 1094.5,-507.149 975.5,-507.149"/>
<text text-anchor="start" x="983.5" y="-528.149" font-family="FreeSans" font-size="10.00">Urho3D::PODVector&lt;</text>
<text text-anchor="middle" x="1035" y="-515.149" font-family="FreeSans" font-size="10.00"> Urho3D::Light * &gt;</text>
</a>
</g>
<!-- Node8&#45;&gt;Node2 -->
<g id="edge24" class="edge"><title>Node8&#45;&gt;Node2</title>
<path fill="none" stroke="#9a32cd" stroke-dasharray="5,2" d="M1096.33,-504.261C1104.91,-501.729 1113.65,-499.281 1122,-497.149 1172.08,-484.361 1190.82,-499.264 1236,-474.149 1277.45,-451.108 1311.45,-403.986 1325.31,-382.838"/>
<polygon fill="#9a32cd" stroke="#9a32cd" points="1095.31,-500.914 1086.74,-507.144 1097.32,-507.618 1095.31,-500.914"/>
<text text-anchor="middle" x="1179" y="-514.149" font-family="FreeSans" font-size="10.00"> vertexLights_</text>
<text text-anchor="middle" x="1179" y="-501.149" font-family="FreeSans" font-size="10.00">lights_</text>
</g>
<!-- Node18 -->
<g id="node49" class="node"><title>Node18</title>
<a xlink:href="a00160.html" target="_top" xlink:title="Queue for light related draw calls.">
<polygon fill="none" stroke="red" points="1714,-157.649 1714,-178.649 1856,-178.649 1856,-157.649 1714,-157.649"/>
<text text-anchor="middle" x="1785" y="-165.649" font-family="FreeSans" font-size="10.00">Urho3D::LightBatchQueue</text>
</a>
</g>
<!-- Node8&#45;&gt;Node18 -->
<g id="edge66" class="edge"><title>Node8&#45;&gt;Node18</title>
<path fill="none" stroke="#9a32cd" stroke-dasharray="5,2" d="M1104.8,-533.315C1144.13,-536.142 1193.7,-535.749 1236,-523.149 1481.3,-450.085 1720.43,-230.29 1773.92,-178.954"/>
<polygon fill="#9a32cd" stroke="#9a32cd" points="1105.02,-529.821 1094.77,-532.509 1104.46,-536.799 1105.02,-529.821"/>
<text text-anchor="middle" x="1471" y="-441.149" font-family="FreeSans" font-size="10.00"> vertexLights_</text>
</g>
<!-- Node9 -->
<g id="node21" class="node"><title>Node9</title>
<a xlink:href="a00318.html" target="_top" xlink:title="Vector base class.">
<polygon fill="none" stroke="black" points="686,-539.649 686,-560.649 800,-560.649 800,-539.649 686,-539.649"/>
<text text-anchor="middle" x="743" y="-547.649" font-family="FreeSans" font-size="10.00">Urho3D::VectorBase</text>
</a>
</g>
<!-- Node9&#45;&gt;Node8 -->
<g id="edge26" class="edge"><title>Node9&#45;&gt;Node8</title>
<path fill="none" stroke="midnightblue" d="M810.376,-544.15C860.185,-539.715 927.391,-533.73 975.282,-529.466"/>
<polygon fill="midnightblue" stroke="midnightblue" points="809.992,-540.67 800.341,-545.043 810.612,-547.642 809.992,-540.67"/>
</g>
<!-- Node15 -->
<g id="node41" class="node"><title>Node15</title>
<a xlink:href="a00314.html" target="_top" xlink:title="Urho3D::Vector\&lt; Urho3D\l::SourceBatch \&gt;">
<polygon fill="none" stroke="black" points="966,-559.149 966,-593.149 1104,-593.149 1104,-559.149 966,-559.149"/>
<text text-anchor="start" x="974" y="-580.149" font-family="FreeSans" font-size="10.00">Urho3D::Vector&lt; Urho3D</text>
<text text-anchor="middle" x="1035" y="-567.149" font-family="FreeSans" font-size="10.00">::SourceBatch &gt;</text>
</a>
</g>
<!-- Node9&#45;&gt;Node15 -->
<g id="edge56" class="edge"><title>Node9&#45;&gt;Node15</title>
<path fill="none" stroke="midnightblue" d="M810.354,-556.146C857.012,-560.301 918.946,-565.815 965.966,-570.002"/>
<polygon fill="midnightblue" stroke="midnightblue" points="810.612,-552.655 800.341,-555.255 809.992,-559.628 810.612,-552.655"/>
</g>
<!-- Node10&#45;&gt;Node2 -->
<g id="edge28" class="edge"><title>Node10&#45;&gt;Node2</title>
<path fill="none" stroke="#9a32cd" stroke-dasharray="5,2" d="M802.392,-626.312C918.181,-631.275 1168.67,-635.747 1236,-586.149 1306.49,-534.227 1326.29,-418.575 1330.83,-382.863"/>
<polygon fill="#9a32cd" stroke="#9a32cd" points="802.43,-622.81 792.285,-625.862 802.119,-629.803 802.43,-622.81"/>
<text text-anchor="middle" x="1035" y="-632.149" font-family="FreeSans" font-size="10.00"> viewCamera_</text>
</g>
<!-- Node22 -->
<g id="node62" class="node"><title>Node22</title>
<a xlink:href="a00131.html" target="_top" xlink:title="Rendering frame update parameters.">
<polygon fill="none" stroke="red" points="981.5,-660.649 981.5,-681.649 1088.5,-681.649 1088.5,-660.649 981.5,-660.649"/>
<text text-anchor="middle" x="1035" y="-668.649" font-family="FreeSans" font-size="10.00">Urho3D::FrameInfo</text>
</a>
</g>
<!-- Node10&#45;&gt;Node22 -->
<g id="edge84" class="edge"><title>Node10&#45;&gt;Node22</title>
<path fill="none" stroke="#9a32cd" stroke-dasharray="5,2" d="M796.751,-635.991C808.341,-638.546 820.55,-641.076 832,-643.149 882.411,-652.273 940.34,-659.992 981.379,-664.999"/>
<polygon fill="#9a32cd" stroke="#9a32cd" points="797.285,-632.524 786.761,-633.751 795.753,-639.354 797.285,-632.524"/>
<text text-anchor="middle" x="890" y="-664.149" font-family="FreeSans" font-size="10.00"> camera_</text>
</g>
<!-- Node11&#45;&gt;Node10 -->
<g id="edge32" class="edge"><title>Node11&#45;&gt;Node10</title>
<path fill="none" stroke="#9a32cd" stroke-dasharray="5,2" d="M328.488,-687.847C384.155,-688.765 473.695,-687.851 550,-676.149 608.903,-667.115 675.503,-646.399 713.051,-633.707"/>
<polygon fill="#9a32cd" stroke="#9a32cd" points="328.225,-684.341 318.159,-687.649 328.09,-691.34 328.225,-684.341"/>
<text text-anchor="middle" x="492" y="-703.149" font-family="FreeSans" font-size="10.00"> clipPlane_</text>
<text text-anchor="middle" x="492" y="-690.149" font-family="FreeSans" font-size="10.00">reflectionPlane_</text>
</g>
<!-- Node11&#45;&gt;Node11 -->
<g id="edge34" class="edge"><title>Node11&#45;&gt;Node11</title>
<path fill="none" stroke="#9a32cd" stroke-dasharray="5,2" d="M256.571,-706.575C257.993,-711.498 264.136,-715.149 275,-715.149 292.383,-715.149 297.679,-705.802 290.889,-696.857"/>
<polygon fill="#9a32cd" stroke="#9a32cd" points="259.969,-707.417 259.111,-696.857 253.196,-705.647 259.969,-707.417"/>
<text text-anchor="middle" x="275" y="-719.149" font-family="FreeSans" font-size="10.00"> UP</text>
</g>
<!-- Node11&#45;&gt;Node12 -->
<g id="edge40" class="edge"><title>Node11&#45;&gt;Node12</title>
<path fill="none" stroke="#9a32cd" stroke-dasharray="5,2" d="M305.095,-701.087C314.824,-705.611 325.748,-710.376 336,-714.149 341.661,-716.232 409.749,-735.271 454.081,-747.613"/>
<polygon fill="#9a32cd" stroke="#9a32cd" points="306.368,-697.818 295.834,-696.689 303.365,-704.141 306.368,-697.818"/>
<text text-anchor="middle" x="376" y="-739.149" font-family="FreeSans" font-size="10.00"> planes_</text>
</g>
<!-- Node12&#45;&gt;Node10 -->
<g id="edge38" class="edge"><title>Node12&#45;&gt;Node10</title>
<path fill="none" stroke="#9a32cd" stroke-dasharray="5,2" d="M551.291,-751.334C583.375,-745.692 622.722,-735.487 654,-717.149 691.223,-695.324 722.674,-653.362 736.073,-633.744"/>
<polygon fill="#9a32cd" stroke="#9a32cd" points="550.444,-747.926 541.149,-753.01 551.586,-754.833 550.444,-747.926"/>
<text text-anchor="middle" x="611" y="-751.149" font-family="FreeSans" font-size="10.00"> frustum_</text>
</g>
<!-- Node13 -->
<g id="node34" class="node"><title>Node13</title>
<a xlink:href="a00315.html" target="_top" xlink:title="Two&#45;dimensional vector.">
<polygon fill="none" stroke="black" points="444,-549.649 444,-570.649 540,-570.649 540,-549.649 444,-549.649"/>
<text text-anchor="middle" x="492" y="-557.649" font-family="FreeSans" font-size="10.00">Urho3D::Vector2</text>
</a>
</g>
<!-- Node13&#45;&gt;Node10 -->
<g id="edge44" class="edge"><title>Node13&#45;&gt;Node10</title>
<path fill="none" stroke="#9a32cd" stroke-dasharray="5,2" d="M543.885,-573.172C590.349,-584.834 657.634,-601.722 700.851,-612.57"/>
<polygon fill="#9a32cd" stroke="#9a32cd" points="544.563,-569.733 534.012,-570.694 542.859,-576.523 544.563,-569.733"/>
<text text-anchor="middle" x="611" y="-602.149" font-family="FreeSans" font-size="10.00"> projectionOffset_</text>
</g>
<!-- Node13&#45;&gt;Node13 -->
<g id="edge46" class="edge"><title>Node13&#45;&gt;Node13</title>
<path fill="none" stroke="#9a32cd" stroke-dasharray="5,2" d="M470.622,-580.575C472.272,-585.498 479.397,-589.149 492,-589.149 512.164,-589.149 518.308,-579.802 510.431,-570.857"/>
<polygon fill="#9a32cd" stroke="#9a32cd" points="474.017,-581.442 473.569,-570.857 467.318,-579.411 474.017,-581.442"/>
<text text-anchor="middle" x="492" y="-658.149" font-family="FreeSans" font-size="10.00"> ONE</text>
<text text-anchor="middle" x="492" y="-645.149" font-family="FreeSans" font-size="10.00">DOWN</text>
<text text-anchor="middle" x="492" y="-632.149" font-family="FreeSans" font-size="10.00">RIGHT</text>
<text text-anchor="middle" x="492" y="-619.149" font-family="FreeSans" font-size="10.00">LEFT</text>
<text text-anchor="middle" x="492" y="-606.149" font-family="FreeSans" font-size="10.00">ZERO</text>
<text text-anchor="middle" x="492" y="-593.149" font-family="FreeSans" font-size="10.00">UP</text>
</g>
<!-- Node14 -->
<g id="node37" class="node"><title>Node14</title>
<a xlink:href="a00179.html" target="_top" xlink:title="4x4 matrix for arbitrary linear transforms including projection.">
<polygon fill="none" stroke="black" points="444.5,-465.649 444.5,-486.649 539.5,-486.649 539.5,-465.649 444.5,-465.649"/>
<text text-anchor="middle" x="492" y="-473.649" font-family="FreeSans" font-size="10.00">Urho3D::Matrix4</text>
</a>
</g>
<!-- Node14&#45;&gt;Node10 -->
<g id="edge48" class="edge"><title>Node14&#45;&gt;Node10</title>
<path fill="none" stroke="#9a32cd" stroke-dasharray="5,2" d="M522.465,-491.352C555.41,-508.059 609.222,-536.125 654,-563.149 680.803,-579.325 710.756,-600.11 728.182,-612.488"/>
<polygon fill="#9a32cd" stroke="#9a32cd" points="523.852,-488.132 513.348,-486.749 520.697,-494.38 523.852,-488.132"/>
<text text-anchor="middle" x="611" y="-567.149" font-family="FreeSans" font-size="10.00"> projection_</text>
</g>
<!-- Node14&#45;&gt;Node14 -->
<g id="edge50" class="edge"><title>Node14&#45;&gt;Node14</title>
<path fill="none" stroke="#9a32cd" stroke-dasharray="5,2" d="M470.622,-496.575C472.272,-501.498 479.397,-505.149 492,-505.149 512.164,-505.149 518.308,-495.802 510.431,-486.857"/>
<polygon fill="#9a32cd" stroke="#9a32cd" points="474.017,-497.442 473.569,-486.857 467.318,-495.411 474.017,-497.442"/>
<text text-anchor="middle" x="492" y="-522.149" font-family="FreeSans" font-size="10.00"> IDENTITY</text>
<text text-anchor="middle" x="492" y="-509.149" font-family="FreeSans" font-size="10.00">ZERO</text>
</g>
<!-- Node15&#45;&gt;Node2 -->
<g id="edge54" class="edge"><title>Node15&#45;&gt;Node2</title>
<path fill="none" stroke="#9a32cd" stroke-dasharray="5,2" d="M1114.17,-570.968C1153.82,-565.061 1200.76,-552.72 1236,-527.149 1289.03,-488.669 1319.07,-411.076 1328.62,-382.782"/>
<polygon fill="#9a32cd" stroke="#9a32cd" points="1113.68,-567.501 1104.25,-572.335 1114.64,-574.436 1113.68,-567.501"/>
<text text-anchor="middle" x="1179" y="-573.149" font-family="FreeSans" font-size="10.00"> batches_</text>
</g>
<!-- Node16&#45;&gt;Node2 -->
<g id="edge58" class="edge"><title>Node16&#45;&gt;Node2</title>
<path fill="none" stroke="#9a32cd" stroke-dasharray="5,2" d="M1562.83,-151.366C1551.68,-169.749 1533.44,-197.76 1514,-219.149 1459.02,-279.629 1380.22,-338.08 1347.33,-361.46"/>
<polygon fill="#9a32cd" stroke="#9a32cd" points="1565.87,-153.099 1567.98,-142.717 1559.86,-149.515 1565.87,-153.099"/>
<text text-anchor="middle" x="1471" y="-302.149" font-family="FreeSans" font-size="10.00"> firstLight_</text>
</g>
<!-- Node16&#45;&gt;Node18 -->
<g id="edge68" class="edge"><title>Node16&#45;&gt;Node18</title>
<path fill="none" stroke="#9a32cd" stroke-dasharray="5,2" d="M1625.42,-144.445C1628.32,-145.045 1631.19,-145.618 1634,-146.149 1659.9,-151.048 1688.48,-155.463 1713.74,-159.029"/>
<polygon fill="#9a32cd" stroke="#9a32cd" points="1626.05,-141.002 1615.54,-142.321 1624.58,-147.845 1626.05,-141.002"/>
<text text-anchor="middle" x="1665" y="-159.149" font-family="FreeSans" font-size="10.00"> light_</text>
</g>
<!-- Node17 -->
<g id="node47" class="node"><title>Node17</title>
<a xlink:href="a00079.html" target="_top" xlink:title="Cascaded shadow map parameters.">
<polygon fill="none" stroke="black" points="1254,-82.6488 1254,-103.649 1410,-103.649 1410,-82.6488 1254,-82.6488"/>
<text text-anchor="middle" x="1332" y="-90.6488" font-family="FreeSans" font-size="10.00">Urho3D::CascadeParameters</text>
</a>
</g>
<!-- Node17&#45;&gt;Node16 -->
<g id="edge62" class="edge"><title>Node17&#45;&gt;Node16</title>
<path fill="none" stroke="#9a32cd" stroke-dasharray="5,2" d="M1420.48,-92.6641C1450.52,-94.1607 1484.05,-97.6812 1514,-105.149 1528.41,-108.741 1543.66,-115.648 1555.17,-121.576"/>
<polygon fill="#9a32cd" stroke="#9a32cd" points="1420.57,-89.1652 1410.43,-92.2314 1420.27,-96.1587 1420.57,-89.1652"/>
<text text-anchor="middle" x="1471" y="-109.149" font-family="FreeSans" font-size="10.00"> shadowCascade_</text>
</g>
<!-- Node18&#45;&gt;Node16 -->
<g id="edge64" class="edge"><title>Node18&#45;&gt;Node16</title>
<path fill="none" stroke="#9a32cd" stroke-dasharray="5,2" d="M1755.1,-153.207C1738.21,-145.588 1716.44,-137.11 1696,-133.149 1669.59,-128.03 1639.36,-127.744 1615.6,-128.756"/>
<polygon fill="#9a32cd" stroke="#9a32cd" points="1753.89,-156.506 1764.44,-157.553 1756.85,-150.16 1753.89,-156.506"/>
<text text-anchor="middle" x="1665" y="-137.149" font-family="FreeSans" font-size="10.00"> lightQueue_</text>
</g>
<!-- Node19 -->
<g id="node53" class="node"><title>Node19</title>
<a xlink:href="a00126.html" target="_top" xlink:title="Shadow map focusing parameters.">
<polygon fill="none" stroke="black" points="1260.5,-0.64884 1260.5,-21.6488 1403.5,-21.6488 1403.5,-0.64884 1260.5,-0.64884"/>
<text text-anchor="middle" x="1332" y="-8.64884" font-family="FreeSans" font-size="10.00">Urho3D::FocusParameters</text>
</a>
</g>
<!-- Node19&#45;&gt;Node16 -->
<g id="edge70" class="edge"><title>Node19&#45;&gt;Node16</title>
<path fill="none" stroke="#9a32cd" stroke-dasharray="5,2" d="M1410.82,-0.212288C1444.93,0.636863 1483.86,-3.96765 1514,-23.1488 1550.08,-46.1108 1566.24,-98.7579 1571.71,-121.435"/>
<polygon fill="#9a32cd" stroke="#9a32cd" points="1410.25,3.26735 1400.4,-0.640805 1410.54,-3.72673 1410.25,3.26735"/>
<text text-anchor="middle" x="1471" y="-27.1488" font-family="FreeSans" font-size="10.00"> shadowFocus_</text>
</g>
<!-- Node20 -->
<g id="node55" class="node"><title>Node20</title>
<a xlink:href="a00083.html" target="_top" xlink:title="RGBA color.">
<polygon fill="none" stroke="black" points="701,-81.6488 701,-102.649 785,-102.649 785,-81.6488 701,-81.6488"/>
<text text-anchor="middle" x="743" y="-89.6488" font-family="FreeSans" font-size="10.00">Urho3D::Color</text>
</a>
</g>
<!-- Node20&#45;&gt;Node1 -->
<g id="edge102" class="edge"><title>Node20&#45;&gt;Node1</title>
<path fill="none" stroke="#9a32cd" stroke-dasharray="5,2" d="M768.96,-108.111C786.662,-118.944 810.673,-133.535 832,-146.149 899.574,-186.115 980.639,-232.32 1016.45,-252.64"/>
<polygon fill="#9a32cd" stroke="#9a32cd" points="770.68,-105.06 760.325,-102.819 767.023,-111.029 770.68,-105.06"/>
<text text-anchor="middle" x="890" y="-256.149" font-family="FreeSans" font-size="10.00"> ambientEndColor_</text>
<text text-anchor="middle" x="890" y="-243.149" font-family="FreeSans" font-size="10.00">fogColor_</text>
<text text-anchor="middle" x="890" y="-230.149" font-family="FreeSans" font-size="10.00">ambientColor_</text>
<text text-anchor="middle" x="890" y="-217.149" font-family="FreeSans" font-size="10.00">ambientStartColor_</text>
</g>
<!-- Node20&#45;&gt;Node16 -->
<g id="edge72" class="edge"><title>Node20&#45;&gt;Node16</title>
<path fill="none" stroke="#9a32cd" stroke-dasharray="5,2" d="M795.413,-98.0197C840.557,-102.852 907.491,-109.483 966,-113.149 1178.65,-126.471 1433.74,-130.596 1532.31,-131.746"/>
<polygon fill="#9a32cd" stroke="#9a32cd" points="795.592,-94.5188 785.274,-96.9254 794.84,-101.478 795.592,-94.5188"/>
<text text-anchor="middle" x="1179" y="-129.149" font-family="FreeSans" font-size="10.00"> color_</text>
</g>
<!-- Node20&#45;&gt;Node20 -->
<g id="edge74" class="edge"><title>Node20&#45;&gt;Node20</title>
<path fill="none" stroke="#9a32cd" stroke-dasharray="5,2" d="M718.674,-112.575C720.55,-117.498 728.659,-121.149 743,-121.149 765.945,-121.149 772.936,-111.802 763.973,-102.857"/>
<polygon fill="#9a32cd" stroke="#9a32cd" points="722.074,-113.451 722.027,-102.857 715.457,-111.169 722.074,-113.451"/>
<text text-anchor="middle" x="743" y="-255.149" font-family="FreeSans" font-size="10.00"> CYAN</text>
<text text-anchor="middle" x="743" y="-242.149" font-family="FreeSans" font-size="10.00">GRAY</text>
<text text-anchor="middle" x="743" y="-229.149" font-family="FreeSans" font-size="10.00">YELLOW</text>
<text text-anchor="middle" x="743" y="-216.149" font-family="FreeSans" font-size="10.00">MAGENTA</text>
<text text-anchor="middle" x="743" y="-203.149" font-family="FreeSans" font-size="10.00">WHITE</text>
<text text-anchor="middle" x="743" y="-190.149" font-family="FreeSans" font-size="10.00">TRANSPARENT</text>
<text text-anchor="middle" x="743" y="-177.149" font-family="FreeSans" font-size="10.00">BLUE</text>
<text text-anchor="middle" x="743" y="-164.149" font-family="FreeSans" font-size="10.00">BLACK</text>
<text text-anchor="middle" x="743" y="-151.149" font-family="FreeSans" font-size="10.00">RED</text>
<text text-anchor="middle" x="743" y="-138.149" font-family="FreeSans" font-size="10.00">GREEN</text>
<text text-anchor="middle" x="743" y="-125.149" font-family="FreeSans" font-size="10.00">...</text>
</g>
<!-- Node21&#45;&gt;Node1 -->
<g id="edge100" class="edge"><title>Node21&#45;&gt;Node1</title>
<path fill="none" stroke="#9a32cd" stroke-dasharray="5,2" d="M769.513,-419.532C828.114,-385.013 967.387,-302.975 1017.04,-273.73"/>
<polygon fill="#9a32cd" stroke="#9a32cd" points="767.666,-416.557 760.826,-424.648 771.219,-422.589 767.666,-416.557"/>
<text text-anchor="middle" x="890" y="-383.149" font-family="FreeSans" font-size="10.00"> lastWorldBoundingBox_</text>
</g>
<!-- Node21&#45;&gt;Node2 -->
<g id="edge78" class="edge"><title>Node21&#45;&gt;Node2</title>
<path fill="none" stroke="#9a32cd" stroke-dasharray="5,2" d="M787.27,-448.332C801.426,-451.942 817.252,-455.353 832,-457.149 883.178,-463.38 896.56,-460.596 948,-457.149 1017.8,-452.472 1035.49,-450.303 1104,-436.149 1174.86,-421.508 1256.05,-396.749 1299.88,-382.703"/>
<polygon fill="#9a32cd" stroke="#9a32cd" points="787.858,-444.868 777.296,-445.689 786.065,-451.634 787.858,-444.868"/>
<text text-anchor="middle" x="1035" y="-472.149" font-family="FreeSans" font-size="10.00"> worldBoundingBox_</text>
<text text-anchor="middle" x="1035" y="-459.149" font-family="FreeSans" font-size="10.00">boundingBox_</text>
</g>
<!-- Node21&#45;&gt;Node23 -->
<g id="edge90" class="edge"><title>Node21&#45;&gt;Node23</title>
<path fill="none" stroke="#9a32cd" stroke-dasharray="5,2" d="M814.511,-430.345C854.309,-426.526 904.458,-419.809 948,-408.149 971.211,-401.933 996.452,-390.986 1013.74,-382.79"/>
<polygon fill="#9a32cd" stroke="#9a32cd" points="814.002,-426.877 804.364,-431.277 814.642,-433.847 814.002,-426.877"/>
<text text-anchor="middle" x="890" y="-445.149" font-family="FreeSans" font-size="10.00"> cullingBox_</text>
<text text-anchor="middle" x="890" y="-432.149" font-family="FreeSans" font-size="10.00">worldBoundingBox_</text>
</g>
<!-- Node22&#45;&gt;Node2 -->
<g id="edge82" class="edge"><title>Node22&#45;&gt;Node2</title>
<path fill="none" stroke="#9a32cd" stroke-dasharray="5,2" d="M1098.92,-678.354C1142.16,-679.693 1198.09,-674.08 1236,-643.149 1279.12,-607.965 1319.96,-428.442 1329.78,-382.743"/>
<polygon fill="#9a32cd" stroke="#9a32cd" points="1098.93,-674.851 1088.78,-677.907 1098.62,-681.844 1098.93,-674.851"/>
<text text-anchor="middle" x="1179" y="-682.149" font-family="FreeSans" font-size="10.00"> viewFrame_</text>
</g>
<!-- Node23&#45;&gt;Node2 -->
<g id="edge86" class="edge"><title>Node23&#45;&gt;Node2</title>
<path fill="none" stroke="#9a32cd" stroke-dasharray="5,2" d="M1091.22,-372.149C1145.47,-372.149 1226.95,-372.149 1279.81,-372.149"/>
<polygon fill="#9a32cd" stroke="#9a32cd" points="1091.08,-368.649 1081.08,-372.149 1091.08,-375.649 1091.08,-368.649"/>
<text text-anchor="middle" x="1179" y="-376.149" font-family="FreeSans" font-size="10.00"> octant_</text>
</g>
<!-- Node23&#45;&gt;Node23 -->
<g id="edge92" class="edge"><title>Node23&#45;&gt;Node23</title>
<path fill="none" stroke="#9a32cd" stroke-dasharray="5,2" d="M1008.32,-392.204C1010.07,-397.313 1018.96,-401.149 1035,-401.149 1060.03,-401.149 1067.66,-391.802 1057.88,-382.857"/>
<polygon fill="#9a32cd" stroke="#9a32cd" points="1011.6,-393.439 1012.12,-382.857 1005.11,-390.803 1011.6,-393.439"/>
<text text-anchor="middle" x="1035" y="-418.149" font-family="FreeSans" font-size="10.00"> parent_</text>
<text text-anchor="middle" x="1035" y="-405.149" font-family="FreeSans" font-size="10.00">children_</text>
</g>
<!-- Node24&#45;&gt;Node1 -->
<g id="edge94" class="edge"><title>Node24&#45;&gt;Node1</title>
<path fill="none" stroke="#9a32cd" stroke-dasharray="5,2" d="M1248.64,-186.891C1200.46,-193.177 1144.97,-201.726 1122,-210.149 1093.94,-220.44 1065.01,-240.242 1048.59,-252.512"/>
<polygon fill="#9a32cd" stroke="#9a32cd" points="1249.32,-190.332 1258.79,-185.585 1248.43,-183.39 1249.32,-190.332"/>
<text text-anchor="start" x="1122.5" y="-240.149" font-family="FreeSans" font-size="10.00"> lastAmbientEndZone</text>
<text text-anchor="middle" x="1179" y="-227.149" font-family="FreeSans" font-size="10.00">_</text>
<text text-anchor="middle" x="1179" y="-214.149" font-family="FreeSans" font-size="10.00">lastAmbientStartZone_</text>
</g>
<!-- Node25 -->
<g id="node73" class="node"><title>Node25</title>
<a xlink:href="a00233.html" target="_top" xlink:title="Reference count structure.">
<polygon fill="none" stroke="black" points="984,-82.6488 984,-103.649 1086,-103.649 1086,-82.6488 984,-82.6488"/>
<text text-anchor="middle" x="1035" y="-90.6488" font-family="FreeSans" font-size="10.00">Urho3D::RefCount</text>
</a>
</g>
<!-- Node25&#45;&gt;Node24 -->
<g id="edge98" class="edge"><title>Node25&#45;&gt;Node24</title>
<path fill="none" stroke="#9a32cd" stroke-dasharray="5,2" d="M1096.15,-83.6264C1137.12,-79.7922 1191.51,-79.7248 1236,-97.1488 1245.97,-101.052 1245.86,-106.197 1254,-113.149 1272.91,-129.303 1294.84,-147.228 1310.62,-159.988"/>
<polygon fill="#9a32cd" stroke="#9a32cd" points="1095.62,-80.1623 1086.03,-84.674 1096.34,-87.125 1095.62,-80.1623"/>
<text text-anchor="middle" x="1179" y="-101.149" font-family="FreeSans" font-size="10.00"> refCount_</text>
</g>
</g>
</svg>
