<?xml version="1.0" encoding="UTF-8" standalone="no"?>
<!DOCTYPE svg PUBLIC "-//W3C//DTD SVG 1.1//EN"
 "http://www.w3.org/Graphics/SVG/1.1/DTD/svg11.dtd">
<!-- Generated by graphviz version 2.26.3 (20100126.1600)
 -->
<!-- Title: Urho3D::Viewport Pages: 1 -->
<!--zoomable 870 -->
<svg id="main" version="1.1" xmlns="http://www.w3.org/2000/svg" xmlns:xlink="http://www.w3.org/1999/xlink" xml:space="preserve" onload="init(evt)">
        <defs>
                <circle id="rim" cx="0" cy="0" r="7"/>
                <circle id="rim2" cx="0" cy="0" r="3.5"/>
                <g id="zoomPlus">
                        <use xlink:href="#rim" fill="#404040">
                                <set attributeName="fill" to="#808080" begin="zoomplus.mouseover" end="zoomplus.mouseout"/>
                        </use>
                        <path d="M-4,0h8M0,-4v8" fill="none" stroke="white" stroke-width="1.5" pointer-events="none"/>
                </g>
                <g id="zoomMin">
                        <use xlink:href="#rim" fill="#404040">
                                <set attributeName="fill" to="#808080" begin="zoomminus.mouseover" end="zoomminus.mouseout"/>
                        </use>
                        <path d="M-4,0h8" fill="none" stroke="white" stroke-width="1.5" pointer-events="none"/>
                </g>
                <g id="dirArrow">
                        <path fill="none" stroke="white" stroke-width="1.5" d="M0,-3.0v7 M-2.5,-0.5L0,-3.0L2.5,-0.5"/>
                </g>
               <g id="resetDef">
                       <use xlink:href="#rim2" fill="#404040">
                               <set attributeName="fill" to="#808080" begin="reset.mouseover" end="reset.mouseout"/>
                       </use>
               </g>
        </defs>

<script type="text/javascript">
var viewWidth = 1398;
var viewHeight = 870;
var sectionId = 'dynsection-1';
</script>
<script xlink:href="svgpan.js"/>
<svg id="graph" class="graph">
<g id="viewport">
<title>Urho3D::Viewport</title>
<!-- Node1 -->
<g id="node1" class="node"><title>Node1</title>
<polygon fill="#bfbfbf" stroke="black" points="1266.5,-726.5 1266.5,-747.5 1367.5,-747.5 1367.5,-726.5 1266.5,-726.5"/>
<text text-anchor="middle" x="1317" y="-734.5" font-family="FreeSans" font-size="10.00">Urho3D::Viewport</text>
</g>
<!-- Node2 -->
<g id="node2" class="node"><title>Node2</title>
<a xlink:href="a00200.html" target="_top" xlink:title="Base class for objects with type identification, subsystem access and event sending/receiving capabil...">
<polygon fill="none" stroke="black" points="696,-594.5 696,-615.5 786,-615.5 786,-594.5 696,-594.5"/>
<text text-anchor="middle" x="741" y="-602.5" font-family="FreeSans" font-size="10.00">Urho3D::Object</text>
</a>
</g>
<!-- Node2&#45;&gt;Node1 -->
<g id="edge2" class="edge"><title>Node2&#45;&gt;Node1</title>
<path fill="none" stroke="midnightblue" d="M796.115,-613.825C880.185,-627.389 1036.54,-653.041 1092,-665 1152.17,-677.976 1167.59,-680.589 1226,-700 1249.31,-707.745 1275.19,-718.484 1293.37,-726.398"/>
<polygon fill="midnightblue" stroke="midnightblue" points="796.662,-610.368 786.232,-612.233 795.548,-617.279 796.662,-610.368"/>
</g>
<!-- Node10 -->
<g id="node19" class="node"><title>Node10</title>
<a xlink:href="a00118.html" target="_top" xlink:title="Internal helper class for invoking event handler functions.">
<polygon fill="none" stroke="red" points="924,-547.5 924,-568.5 1048,-568.5 1048,-547.5 924,-547.5"/>
<text text-anchor="middle" x="986" y="-555.5" font-family="FreeSans" font-size="10.00">Urho3D::EventHandler</text>
</a>
</g>
<!-- Node2&#45;&gt;Node10 -->
<g id="edge22" class="edge"><title>Node2&#45;&gt;Node10</title>
<path fill="none" stroke="#9a32cd" stroke-dasharray="5,2" d="M764.568,-588.88C778.792,-580.081 797.661,-569.988 816,-565 850.774,-555.542 891.013,-553.509 923.611,-553.972"/>
<polygon fill="#9a32cd" stroke="#9a32cd" points="762.473,-586.065 755.944,-594.409 766.251,-591.958 762.473,-586.065"/>
<text text-anchor="middle" x="839" y="-582" font-family="FreeSans" font-size="10.00"> sender_</text>
<text text-anchor="middle" x="839" y="-569" font-family="FreeSans" font-size="10.00">receiver_</text>
</g>
<!-- Node3 -->
<g id="node4" class="node"><title>Node3</title>
<a xlink:href="a00234.html" target="_top" xlink:title="Base class for intrusively reference&#45;counted objects. These are noncopyable and non&#45;assignable.">
<polygon fill="none" stroke="black" points="516,-680.5 516,-701.5 630,-701.5 630,-680.5 516,-680.5"/>
<text text-anchor="middle" x="573" y="-688.5" font-family="FreeSans" font-size="10.00">Urho3D::RefCounted</text>
</a>
</g>
<!-- Node3&#45;&gt;Node2 -->
<g id="edge4" class="edge"><title>Node3&#45;&gt;Node2</title>
<path fill="none" stroke="midnightblue" d="M630.317,-677.321C635.708,-675.433 641.015,-673.33 646,-671 678.201,-655.946 711.288,-630.158 728.643,-615.676"/>
<polygon fill="midnightblue" stroke="midnightblue" points="629.002,-674.068 620.575,-680.49 631.167,-680.725 629.002,-674.068"/>
</g>
<!-- Node5 -->
<g id="node8" class="node"><title>Node5</title>
<a xlink:href="a00095.html" target="_top" xlink:title="Urho3D execution context. Provides access to subsystems, object factories and attributes, and event receivers.">
<polygon fill="none" stroke="black" points="1268.5,-287.5 1268.5,-308.5 1365.5,-308.5 1365.5,-287.5 1268.5,-287.5"/>
<text text-anchor="middle" x="1317" y="-295.5" font-family="FreeSans" font-size="10.00">Urho3D::Context</text>
</a>
</g>
<!-- Node3&#45;&gt;Node5 -->
<g id="edge10" class="edge"><title>Node3&#45;&gt;Node5</title>
<path fill="none" stroke="midnightblue" d="M639.468,-675.841C641.763,-674.373 643.953,-672.763 646,-671 677.661,-643.728 663.892,-621.631 684,-585 759.57,-447.336 741.54,-365.101 880,-291 945.812,-255.778 1168.59,-278.831 1268.19,-291.389"/>
<polygon fill="midnightblue" stroke="midnightblue" points="637.321,-673.021 630.165,-680.835 640.631,-679.189 637.321,-673.021"/>
</g>
<!-- Node23 -->
<g id="node51" class="node"><title>Node23</title>
<a xlink:href="a00237.html" target="_top" xlink:title="Rendering path definition.">
<polygon fill="none" stroke="red" points="684.5,-680.5 684.5,-701.5 797.5,-701.5 797.5,-680.5 684.5,-680.5"/>
<text text-anchor="middle" x="741" y="-688.5" font-family="FreeSans" font-size="10.00">Urho3D::RenderPath</text>
</a>
</g>
<!-- Node3&#45;&gt;Node23 -->
<g id="edge60" class="edge"><title>Node3&#45;&gt;Node23</title>
<path fill="none" stroke="midnightblue" d="M640.765,-691C655.273,-691 670.452,-691 684.481,-691"/>
<polygon fill="midnightblue" stroke="midnightblue" points="640.346,-687.5 630.346,-691 640.346,-694.5 640.346,-687.5"/>
</g>
<!-- Node4 -->
<g id="node6" class="node"><title>Node4</title>
<a xlink:href="a00233.html" target="_top" xlink:title="Reference count structure.">
<polygon fill="none" stroke="black" points="312,-746.5 312,-767.5 414,-767.5 414,-746.5 312,-746.5"/>
<text text-anchor="middle" x="363" y="-754.5" font-family="FreeSans" font-size="10.00">Urho3D::RefCount</text>
</a>
</g>
<!-- Node4&#45;&gt;Node3 -->
<g id="edge6" class="edge"><title>Node4&#45;&gt;Node3</title>
<path fill="none" stroke="#9a32cd" stroke-dasharray="5,2" d="M406.36,-743.373C445.816,-730.972 503.25,-712.921 539.344,-701.578"/>
<polygon fill="#9a32cd" stroke="#9a32cd" points="405.231,-740.059 396.74,-746.396 407.329,-746.737 405.231,-740.059"/>
<text text-anchor="middle" x="457" y="-737" font-family="FreeSans" font-size="10.00"> refCount_</text>
</g>
<!-- Node16 -->
<g id="node34" class="node"><title>Node16</title>
<a xlink:href="a00323.html" target="_top" xlink:title="Urho3D::WeakPtr\&lt; Urho3D\l::Scene \&gt;">
<polygon fill="none" stroke="black" points="500,-740 500,-774 646,-774 646,-740 500,-740"/>
<text text-anchor="start" x="508" y="-761" font-family="FreeSans" font-size="10.00">Urho3D::WeakPtr&lt; Urho3D</text>
<text text-anchor="middle" x="573" y="-748" font-family="FreeSans" font-size="10.00">::Scene &gt;</text>
</a>
</g>
<!-- Node4&#45;&gt;Node16 -->
<g id="edge54" class="edge"><title>Node4&#45;&gt;Node16</title>
<path fill="none" stroke="#9a32cd" stroke-dasharray="5,2" d="M424.332,-757C447.949,-757 475.152,-757 499.78,-757"/>
<polygon fill="#9a32cd" stroke="#9a32cd" points="424.103,-753.5 414.103,-757 424.103,-760.5 424.103,-753.5"/>
<text text-anchor="middle" x="457" y="-761" font-family="FreeSans" font-size="10.00"> refCount_</text>
</g>
<!-- Node24 -->
<g id="node54" class="node"><title>Node24</title>
<a xlink:href="a00323.html" target="_top" xlink:title="Urho3D::WeakPtr\&lt; Urho3D\l::Camera \&gt;">
<polygon fill="none" stroke="black" points="500,-827 500,-861 646,-861 646,-827 500,-827"/>
<text text-anchor="start" x="508" y="-848" font-family="FreeSans" font-size="10.00">Urho3D::WeakPtr&lt; Urho3D</text>
<text text-anchor="middle" x="573" y="-835" font-family="FreeSans" font-size="10.00">::Camera &gt;</text>
</a>
</g>
<!-- Node4&#45;&gt;Node24 -->
<g id="edge66" class="edge"><title>Node4&#45;&gt;Node24</title>
<path fill="none" stroke="#9a32cd" stroke-dasharray="5,2" d="M398.098,-771.541C434.957,-786.811 492.872,-810.804 531.855,-826.954"/>
<polygon fill="#9a32cd" stroke="#9a32cd" points="399.328,-768.262 388.75,-767.668 396.649,-774.729 399.328,-768.262"/>
<text text-anchor="middle" x="457" y="-809" font-family="FreeSans" font-size="10.00"> refCount_</text>
</g>
<!-- Node5&#45;&gt;Node2 -->
<g id="edge8" class="edge"><title>Node5&#45;&gt;Node2</title>
<path fill="none" stroke="#9a32cd" stroke-dasharray="5,2" d="M1282.84,-312.366C1265.96,-319.05 1245.15,-326.678 1226,-332 1167.63,-348.218 1151.64,-346.373 1092,-357 997.911,-373.765 959.977,-340.678 880,-393 800.815,-444.803 756.594,-559.125 744.461,-594.415"/>
<polygon fill="#9a32cd" stroke="#9a32cd" points="1284.31,-315.547 1292.28,-308.565 1281.7,-309.053 1284.31,-315.547"/>
<text text-anchor="middle" x="986" y="-397" font-family="FreeSans" font-size="10.00"> context_</text>
</g>
<!-- Node6 -->
<g id="node11" class="node"><title>Node6</title>
<a xlink:href="a00141.html" target="_top" xlink:title="Urho3D::HashMap\&lt; Urho3D\l::ShortStringHash, Urho3D\l::Vector\&lt; Urho3D::AttributeInfo \&gt; \&gt;">
<polygon fill="none" stroke="red" points="891.5,-52.5 891.5,-99.5 1080.5,-99.5 1080.5,-52.5 891.5,-52.5"/>
<text text-anchor="start" x="899.5" y="-86.5" font-family="FreeSans" font-size="10.00">Urho3D::HashMap&lt; Urho3D</text>
<text text-anchor="start" x="899.5" y="-73.5" font-family="FreeSans" font-size="10.00">::ShortStringHash, Urho3D</text>
<text text-anchor="middle" x="986" y="-60.5" font-family="FreeSans" font-size="10.00">::Vector&lt; Urho3D::AttributeInfo &gt; &gt;</text>
</a>
</g>
<!-- Node6&#45;&gt;Node5 -->
<g id="edge12" class="edge"><title>Node6&#45;&gt;Node5</title>
<path fill="none" stroke="#9a32cd" stroke-dasharray="5,2" d="M1090.94,-83.6926C1136.18,-91.4224 1187.44,-106.563 1226,-136 1279.33,-176.713 1306.07,-258.213 1314.23,-287.344"/>
<polygon fill="#9a32cd" stroke="#9a32cd" points="1091.21,-80.1919 1080.78,-82.0629 1090.1,-87.1035 1091.21,-80.1919"/>
<text text-anchor="middle" x="1168" y="-153" font-family="FreeSans" font-size="10.00"> attributes_</text>
<text text-anchor="middle" x="1168" y="-140" font-family="FreeSans" font-size="10.00">networkAttributes_</text>
</g>
<!-- Node7 -->
<g id="node13" class="node"><title>Node7</title>
<a xlink:href="a00220.html" target="_top" xlink:title="Urho3D::PODVector\&lt;\l Urho3D::Object * \&gt;">
<polygon fill="none" stroke="red" points="926.5,-0 926.5,-34 1045.5,-34 1045.5,-0 926.5,-0"/>
<text text-anchor="start" x="934.5" y="-21" font-family="FreeSans" font-size="10.00">Urho3D::PODVector&lt;</text>
<text text-anchor="middle" x="986" y="-8" font-family="FreeSans" font-size="10.00"> Urho3D::Object * &gt;</text>
</a>
</g>
<!-- Node7&#45;&gt;Node5 -->
<g id="edge14" class="edge"><title>Node7&#45;&gt;Node5</title>
<path fill="none" stroke="#9a32cd" stroke-dasharray="5,2" d="M1055.81,-16.0165C1108.27,-18.8836 1178.9,-30.8925 1226,-71 1295.82,-130.461 1312.6,-251.186 1316.14,-287.461"/>
<polygon fill="#9a32cd" stroke="#9a32cd" points="1055.72,-12.5091 1045.58,-15.5594 1055.41,-19.5021 1055.72,-12.5091"/>
<text text-anchor="middle" x="1168" y="-75" font-family="FreeSans" font-size="10.00"> eventSenders_</text>
</g>
<!-- Node8 -->
<g id="node15" class="node"><title>Node8</title>
<a xlink:href="a00141.html" target="_top" xlink:title="Urho3D::HashMap\&lt; Urho3D\l::ShortStringHash, Urho3D\l::SharedPtr\&lt; Urho3D::Object \&gt; \&gt;">
<polygon fill="none" stroke="red" points="897,-481.5 897,-528.5 1075,-528.5 1075,-481.5 897,-481.5"/>
<text text-anchor="start" x="905" y="-515.5" font-family="FreeSans" font-size="10.00">Urho3D::HashMap&lt; Urho3D</text>
<text text-anchor="start" x="905" y="-502.5" font-family="FreeSans" font-size="10.00">::ShortStringHash, Urho3D</text>
<text text-anchor="middle" x="986" y="-489.5" font-family="FreeSans" font-size="10.00">::SharedPtr&lt; Urho3D::Object &gt; &gt;</text>
</a>
</g>
<!-- Node8&#45;&gt;Node5 -->
<g id="edge16" class="edge"><title>Node8&#45;&gt;Node5</title>
<path fill="none" stroke="#9a32cd" stroke-dasharray="5,2" d="M1085.2,-500.548C1131.6,-494.241 1185.42,-480.446 1226,-451 1277.78,-413.425 1305.32,-336.581 1313.97,-308.54"/>
<polygon fill="#9a32cd" stroke="#9a32cd" points="1084.6,-497.096 1075.12,-501.819 1085.48,-504.041 1084.6,-497.096"/>
<text text-anchor="middle" x="1168" y="-500" font-family="FreeSans" font-size="10.00"> subsystems_</text>
</g>
<!-- Node9 -->
<g id="node17" class="node"><title>Node9</title>
<a xlink:href="a00141.html" target="_top" xlink:title="Urho3D::HashMap\&lt; Urho3D\l::String, Urho3D::Vector\l\&lt; Urho3D::ShortStringHash \&gt; \&gt;">
<polygon fill="none" stroke="red" points="899.5,-415.5 899.5,-462.5 1072.5,-462.5 1072.5,-415.5 899.5,-415.5"/>
<text text-anchor="start" x="907.5" y="-449.5" font-family="FreeSans" font-size="10.00">Urho3D::HashMap&lt; Urho3D</text>
<text text-anchor="start" x="907.5" y="-436.5" font-family="FreeSans" font-size="10.00">::String, Urho3D::Vector</text>
<text text-anchor="middle" x="986" y="-423.5" font-family="FreeSans" font-size="10.00">&lt; Urho3D::ShortStringHash &gt; &gt;</text>
</a>
</g>
<!-- Node9&#45;&gt;Node5 -->
<g id="edge18" class="edge"><title>Node9&#45;&gt;Node5</title>
<path fill="none" stroke="#9a32cd" stroke-dasharray="5,2" d="M1082.9,-436.883C1128.63,-432.377 1182.57,-421.776 1226,-398 1266.15,-376.021 1297.93,-329.504 1310.8,-308.584"/>
<polygon fill="#9a32cd" stroke="#9a32cd" points="1082.32,-433.421 1072.67,-437.804 1082.94,-440.393 1082.32,-433.421"/>
<text text-anchor="middle" x="1168" y="-438" font-family="FreeSans" font-size="10.00"> objectCategories_</text>
</g>
<!-- Node10&#45;&gt;Node5 -->
<g id="edge20" class="edge"><title>Node10&#45;&gt;Node5</title>
<path fill="none" stroke="#9a32cd" stroke-dasharray="5,2" d="M1058.2,-551.973C1119.21,-545.549 1200.63,-533.431 1226,-513 1293.88,-458.348 1311.93,-343.847 1315.97,-308.572"/>
<polygon fill="#9a32cd" stroke="#9a32cd" points="1057.8,-548.495 1048.21,-552.993 1058.51,-555.458 1057.8,-548.495"/>
<text text-anchor="middle" x="1168" y="-549" font-family="FreeSans" font-size="10.00"> eventHandler_</text>
</g>
<!-- Node14 -->
<g id="node28" class="node"><title>Node14</title>
<a xlink:href="a00163.html" target="_top" xlink:title="Urho3D::LinkedList\l\&lt; Urho3D::EventHandler \&gt;">
<polygon fill="none" stroke="black" points="1244,-574 1244,-608 1390,-608 1390,-574 1244,-574"/>
<text text-anchor="start" x="1252" y="-595" font-family="FreeSans" font-size="10.00">Urho3D::LinkedList</text>
<text text-anchor="middle" x="1317" y="-582" font-family="FreeSans" font-size="10.00">&lt; Urho3D::EventHandler &gt;</text>
</a>
</g>
<!-- Node10&#45;&gt;Node14 -->
<g id="edge32" class="edge"><title>Node10&#45;&gt;Node14</title>
<path fill="none" stroke="#9a32cd" stroke-dasharray="5,2" d="M1058.24,-562.908C1105.93,-566.422 1169.78,-571.647 1226,-578 1231.71,-578.645 1237.61,-579.366 1243.54,-580.128"/>
<polygon fill="#9a32cd" stroke="#9a32cd" points="1058.23,-559.399 1048.01,-562.162 1057.73,-566.38 1058.23,-559.399"/>
<text text-anchor="middle" x="1168" y="-582" font-family="FreeSans" font-size="10.00"> head_</text>
</g>
<!-- Node11 -->
<g id="node22" class="node"><title>Node11</title>
<a xlink:href="a00141.html" target="_top" xlink:title="Urho3D::HashMap\&lt; Urho3D\l::StringHash, Urho3D::\lHashSet\&lt; Urho3D::Object * \&gt; \&gt;">
<polygon fill="none" stroke="red" points="899.5,-196.5 899.5,-243.5 1072.5,-243.5 1072.5,-196.5 899.5,-196.5"/>
<text text-anchor="start" x="907.5" y="-230.5" font-family="FreeSans" font-size="10.00">Urho3D::HashMap&lt; Urho3D</text>
<text text-anchor="start" x="907.5" y="-217.5" font-family="FreeSans" font-size="10.00">::StringHash, Urho3D::</text>
<text text-anchor="middle" x="986" y="-204.5" font-family="FreeSans" font-size="10.00">HashSet&lt; Urho3D::Object * &gt; &gt;</text>
</a>
</g>
<!-- Node11&#45;&gt;Node5 -->
<g id="edge24" class="edge"><title>Node11&#45;&gt;Node5</title>
<path fill="none" stroke="#9a32cd" stroke-dasharray="5,2" d="M1082.76,-220.803C1127.3,-223.506 1180.28,-230.072 1226,-245 1255.55,-254.647 1285.98,-274.853 1303.09,-287.341"/>
<polygon fill="#9a32cd" stroke="#9a32cd" points="1082.7,-217.294 1072.52,-220.24 1082.31,-224.284 1082.7,-217.294"/>
<text text-anchor="middle" x="1168" y="-249" font-family="FreeSans" font-size="10.00"> eventReceivers_</text>
</g>
<!-- Node12 -->
<g id="node24" class="node"><title>Node12</title>
<a xlink:href="a00141.html" target="_top" xlink:title="Urho3D::HashMap\&lt; Urho3D\l::Object *, Urho3D::HashMap\l\&lt; Urho3D::StringHash, Urho3D\l::HashSet\&lt; Urho3D::Object * \&gt; \&gt; \&gt;">
<polygon fill="none" stroke="red" points="890.5,-118 890.5,-178 1081.5,-178 1081.5,-118 890.5,-118"/>
<text text-anchor="start" x="898.5" y="-165" font-family="FreeSans" font-size="10.00">Urho3D::HashMap&lt; Urho3D</text>
<text text-anchor="start" x="898.5" y="-152" font-family="FreeSans" font-size="10.00">::Object *, Urho3D::HashMap</text>
<text text-anchor="start" x="898.5" y="-139" font-family="FreeSans" font-size="10.00">&lt; Urho3D::StringHash, Urho3D</text>
<text text-anchor="middle" x="986" y="-126" font-family="FreeSans" font-size="10.00">::HashSet&lt; Urho3D::Object * &gt; &gt; &gt;</text>
</a>
</g>
<!-- Node12&#45;&gt;Node5 -->
<g id="edge26" class="edge"><title>Node12&#45;&gt;Node5</title>
<path fill="none" stroke="#9a32cd" stroke-dasharray="5,2" d="M1091.65,-161.194C1135.27,-169.81 1185.08,-183.937 1226,-207 1263.18,-227.953 1295.53,-268.296 1309.57,-287.432"/>
<polygon fill="#9a32cd" stroke="#9a32cd" points="1092.06,-157.708 1081.58,-159.279 1090.75,-164.585 1092.06,-157.708"/>
<text text-anchor="middle" x="1168" y="-211" font-family="FreeSans" font-size="10.00"> specificEventReceivers_</text>
</g>
<!-- Node13 -->
<g id="node26" class="node"><title>Node13</title>
<a xlink:href="a00141.html" target="_top" xlink:title="Urho3D::HashMap\&lt; Urho3D\l::ShortStringHash, Urho3D\l::SharedPtr\&lt; Urho3D::ObjectFactory \&gt; \&gt;">
<polygon fill="none" stroke="red" points="880,-300.5 880,-347.5 1092,-347.5 1092,-300.5 880,-300.5"/>
<text text-anchor="start" x="888" y="-334.5" font-family="FreeSans" font-size="10.00">Urho3D::HashMap&lt; Urho3D</text>
<text text-anchor="start" x="888" y="-321.5" font-family="FreeSans" font-size="10.00">::ShortStringHash, Urho3D</text>
<text text-anchor="middle" x="986" y="-308.5" font-family="FreeSans" font-size="10.00">::SharedPtr&lt; Urho3D::ObjectFactory &gt; &gt;</text>
</a>
</g>
<!-- Node13&#45;&gt;Node5 -->
<g id="edge28" class="edge"><title>Node13&#45;&gt;Node5</title>
<path fill="none" stroke="#9a32cd" stroke-dasharray="5,2" d="M1102.26,-314.868C1159.23,-310.393 1224.77,-305.245 1268.31,-301.825"/>
<polygon fill="#9a32cd" stroke="#9a32cd" points="1101.79,-311.394 1092.1,-315.666 1102.34,-318.372 1101.79,-311.394"/>
<text text-anchor="middle" x="1168" y="-319" font-family="FreeSans" font-size="10.00"> factories_</text>
</g>
<!-- Node14&#45;&gt;Node2 -->
<g id="edge30" class="edge"><title>Node14&#45;&gt;Node2</title>
<path fill="none" stroke="#9a32cd" stroke-dasharray="5,2" d="M1233.55,-593.028C1110.01,-596.031 882.673,-601.557 786.198,-603.901"/>
<polygon fill="#9a32cd" stroke="#9a32cd" points="1233.81,-596.523 1243.72,-592.781 1233.64,-589.525 1233.81,-596.523"/>
<text text-anchor="middle" x="986" y="-605" font-family="FreeSans" font-size="10.00"> eventHandlers_</text>
</g>
<!-- Node15 -->
<g id="node31" class="node"><title>Node15</title>
<a xlink:href="a00152.html" target="_top" xlink:title="Two&#45;dimensional bounding rectangle with integer values.">
<polygon fill="none" stroke="black" points="940,-726.5 940,-747.5 1032,-747.5 1032,-726.5 940,-726.5"/>
<text text-anchor="middle" x="986" y="-734.5" font-family="FreeSans" font-size="10.00">Urho3D::IntRect</text>
</a>
</g>
<!-- Node15&#45;&gt;Node1 -->
<g id="edge34" class="edge"><title>Node15&#45;&gt;Node1</title>
<path fill="none" stroke="#9a32cd" stroke-dasharray="5,2" d="M1042.16,-737C1105.03,-737 1206.02,-737 1266.49,-737"/>
<polygon fill="#9a32cd" stroke="#9a32cd" points="1042.02,-733.5 1032.02,-737 1042.02,-740.5 1042.02,-733.5"/>
<text text-anchor="middle" x="1168" y="-741" font-family="FreeSans" font-size="10.00"> rect_</text>
</g>
<!-- Node15&#45;&gt;Node15 -->
<g id="edge36" class="edge"><title>Node15&#45;&gt;Node15</title>
<path fill="none" stroke="#9a32cd" stroke-dasharray="5,2" d="M958.951,-757.055C960.725,-762.164 969.742,-766 986,-766 1011.38,-766 1019.11,-756.653 1009.2,-747.708"/>
<polygon fill="#9a32cd" stroke="#9a32cd" points="962.229,-758.287 962.802,-747.708 955.757,-755.621 962.229,-758.287"/>
<text text-anchor="middle" x="986" y="-770" font-family="FreeSans" font-size="10.00"> ZERO</text>
</g>
<!-- Node16&#45;&gt;Node1 -->
<g id="edge38" class="edge"><title>Node16&#45;&gt;Node1</title>
<path fill="none" stroke="#9a32cd" stroke-dasharray="5,2" d="M656.261,-770.71C758.963,-785.611 938.774,-805.148 1092,-788 1160.27,-780.36 1238.04,-760.068 1281.95,-747.504"/>
<polygon fill="#9a32cd" stroke="#9a32cd" points="656.665,-767.232 646.262,-769.239 655.645,-774.157 656.665,-767.232"/>
<text text-anchor="middle" x="839" y="-795" font-family="FreeSans" font-size="10.00"> scene_</text>
</g>
<!-- Node17 -->
<g id="node36" class="node"><title>Node17</title>
<a xlink:href="a00248.html" target="_top" xlink:title="Root scene node, represents the whole scene.">
<polygon fill="none" stroke="red" points="318.5,-637.5 318.5,-658.5 407.5,-658.5 407.5,-637.5 318.5,-637.5"/>
<text text-anchor="middle" x="363" y="-645.5" font-family="FreeSans" font-size="10.00">Urho3D::Scene</text>
</a>
</g>
<!-- Node17&#45;&gt;Node16 -->
<g id="edge40" class="edge"><title>Node17&#45;&gt;Node16</title>
<path fill="none" stroke="#9a32cd" stroke-dasharray="5,2" d="M397.373,-662.765C421.387,-673.352 454.028,-688.286 482,-703 503.949,-714.546 528.055,-728.931 545.939,-739.951"/>
<polygon fill="#9a32cd" stroke="#9a32cd" points="398.538,-659.454 387.973,-658.649 395.73,-665.866 398.538,-659.454"/>
<text text-anchor="middle" x="457" y="-707" font-family="FreeSans" font-size="10.00"> ptr_</text>
</g>
<!-- Node18 -->
<g id="node38" class="node"><title>Node18</title>
<a xlink:href="a00194.html" target="_top" xlink:title="Scene node that may contain components and child nodes.">
<polygon fill="none" stroke="red" points="530.5,-609.5 530.5,-630.5 615.5,-630.5 615.5,-609.5 530.5,-609.5"/>
<text text-anchor="middle" x="573" y="-617.5" font-family="FreeSans" font-size="10.00">Urho3D::Node</text>
</a>
</g>
<!-- Node17&#45;&gt;Node18 -->
<g id="edge44" class="edge"><title>Node17&#45;&gt;Node18</title>
<path fill="none" stroke="#9a32cd" stroke-dasharray="5,2" d="M389.902,-632.725C402.303,-626.532 417.47,-620.114 432,-617 464.44,-610.047 502.041,-611.295 530.252,-614.01"/>
<polygon fill="#9a32cd" stroke="#9a32cd" points="388.264,-629.631 381.015,-637.358 391.5,-635.839 388.264,-629.631"/>
<text text-anchor="middle" x="457" y="-621" font-family="FreeSans" font-size="10.00"> scene_</text>
</g>
<!-- Node18&#45;&gt;Node17 -->
<g id="edge42" class="edge"><title>Node18&#45;&gt;Node17</title>
<path fill="none" stroke="midnightblue" d="M520.55,-628.395C507.937,-630.323 494.498,-632.304 482,-634 457.47,-637.329 430.032,-640.588 407.69,-643.123"/>
<polygon fill="midnightblue" stroke="midnightblue" points="521.105,-631.851 530.454,-626.866 520.037,-624.933 521.105,-631.851"/>
</g>
<!-- Node18&#45;&gt;Node18 -->
<g id="edge46" class="edge"><title>Node18&#45;&gt;Node18</title>
<path fill="none" stroke="#9a32cd" stroke-dasharray="5,2" d="M556.152,-640.793C557.639,-645.529 563.255,-649 573,-649 588.992,-649 593.865,-639.653 587.618,-630.708"/>
<polygon fill="#9a32cd" stroke="#9a32cd" points="559.64,-641.228 558.382,-630.708 552.805,-639.716 559.64,-641.228"/>
<text text-anchor="middle" x="573" y="-653" font-family="FreeSans" font-size="10.00"> parent_</text>
</g>
<!-- Node19 -->
<g id="node42" class="node"><title>Node19</title>
<a xlink:href="a00251.html" target="_top" xlink:title="Utility class that resolves node &amp; component IDs after a scene or partial scene load.">
<polygon fill="none" stroke="red" points="17.5,-690.5 17.5,-711.5 146.5,-711.5 146.5,-690.5 17.5,-690.5"/>
<text text-anchor="middle" x="82" y="-698.5" font-family="FreeSans" font-size="10.00">Urho3D::SceneResolver</text>
</a>
</g>
<!-- Node19&#45;&gt;Node17 -->
<g id="edge48" class="edge"><title>Node19&#45;&gt;Node17</title>
<path fill="none" stroke="#9a32cd" stroke-dasharray="5,2" d="M156.824,-689.667C197.527,-683.158 248.679,-674.418 294,-665 303.18,-663.092 312.991,-660.819 322.249,-658.565"/>
<polygon fill="#9a32cd" stroke="#9a32cd" points="156.038,-686.248 146.711,-691.273 157.136,-693.162 156.038,-686.248"/>
<text text-anchor="middle" x="238" y="-689" font-family="FreeSans" font-size="10.00"> resolver_</text>
</g>
<!-- Node20 -->
<g id="node44" class="node"><title>Node20</title>
<a xlink:href="a00311.html" target="_top" xlink:title="Urho3D::Vector\&lt; Urho3D\l::SharedPtr\&lt; Urho3D::Package\lFile \&gt; \&gt;">
<polygon fill="none" stroke="red" points="0,-624.5 0,-671.5 164,-671.5 164,-624.5 0,-624.5"/>
<text text-anchor="start" x="8" y="-658.5" font-family="FreeSans" font-size="10.00">Urho3D::Vector&lt; Urho3D</text>
<text text-anchor="start" x="8" y="-645.5" font-family="FreeSans" font-size="10.00">::SharedPtr&lt; Urho3D::Package</text>
<text text-anchor="middle" x="82" y="-632.5" font-family="FreeSans" font-size="10.00">File &gt; &gt;</text>
</a>
</g>
<!-- Node20&#45;&gt;Node17 -->
<g id="edge50" class="edge"><title>Node20&#45;&gt;Node17</title>
<path fill="none" stroke="#9a32cd" stroke-dasharray="5,2" d="M174.221,-648C222.631,-648 279.748,-648 318.376,-648"/>
<polygon fill="#9a32cd" stroke="#9a32cd" points="174.032,-644.5 164.032,-648 174.032,-651.5 174.032,-644.5"/>
<text text-anchor="middle" x="238" y="-652" font-family="FreeSans" font-size="10.00"> requiredPackageFiles_</text>
</g>
<!-- Node21 -->
<g id="node46" class="node"><title>Node21</title>
<a xlink:href="a00141.html" target="_top" xlink:title="Urho3D::HashMap\&lt; unsigned,\l Urho3D::Component * \&gt;">
<polygon fill="none" stroke="red" points="1,-569 1,-603 163,-603 163,-569 1,-569"/>
<text text-anchor="start" x="9" y="-590" font-family="FreeSans" font-size="10.00">Urho3D::HashMap&lt; unsigned,</text>
<text text-anchor="middle" x="82" y="-577" font-family="FreeSans" font-size="10.00"> Urho3D::Component * &gt;</text>
</a>
</g>
<!-- Node21&#45;&gt;Node17 -->
<g id="edge52" class="edge"><title>Node21&#45;&gt;Node17</title>
<path fill="none" stroke="#9a32cd" stroke-dasharray="5,2" d="M173.16,-584.916C211.327,-586.812 255.645,-592.147 294,-605 315.414,-612.176 337.013,-627.179 350.202,-637.422"/>
<polygon fill="#9a32cd" stroke="#9a32cd" points="173.224,-581.415 163.084,-584.487 172.926,-588.409 173.224,-581.415"/>
<text text-anchor="start" x="182" y="-635" font-family="FreeSans" font-size="10.00"> replicatedComponents</text>
<text text-anchor="middle" x="238" y="-622" font-family="FreeSans" font-size="10.00">_</text>
<text text-anchor="middle" x="238" y="-609" font-family="FreeSans" font-size="10.00">localComponents_</text>
</g>
<!-- Node22 -->
<g id="node49" class="node"><title>Node22</title>
<a xlink:href="a00270.html" target="_top" xlink:title="Urho3D::SharedPtr\&lt;\l Urho3D::RenderPath \&gt;">
<polygon fill="none" stroke="black" points="922,-674 922,-708 1050,-708 1050,-674 922,-674"/>
<text text-anchor="start" x="930" y="-695" font-family="FreeSans" font-size="10.00">Urho3D::SharedPtr&lt;</text>
<text text-anchor="middle" x="986" y="-682" font-family="FreeSans" font-size="10.00"> Urho3D::RenderPath &gt;</text>
</a>
</g>
<!-- Node22&#45;&gt;Node1 -->
<g id="edge56" class="edge"><title>Node22&#45;&gt;Node1</title>
<path fill="none" stroke="#9a32cd" stroke-dasharray="5,2" d="M1060.27,-698.725C1107.77,-703.974 1170.64,-711.493 1226,-720 1239.03,-722.002 1253.04,-724.465 1266.08,-726.889"/>
<polygon fill="#9a32cd" stroke="#9a32cd" points="1060.4,-695.218 1050.08,-697.607 1059.63,-702.176 1060.4,-695.218"/>
<text text-anchor="middle" x="1168" y="-724" font-family="FreeSans" font-size="10.00"> renderPath_</text>
</g>
<!-- Node23&#45;&gt;Node22 -->
<g id="edge58" class="edge"><title>Node23&#45;&gt;Node22</title>
<path fill="none" stroke="#9a32cd" stroke-dasharray="5,2" d="M807.797,-691C843.354,-691 886.866,-691 921.993,-691"/>
<polygon fill="#9a32cd" stroke="#9a32cd" points="807.516,-687.5 797.516,-691 807.516,-694.5 807.516,-687.5"/>
<text text-anchor="middle" x="839" y="-695" font-family="FreeSans" font-size="10.00"> ptr_</text>
</g>
<!-- Node24&#45;&gt;Node1 -->
<g id="edge62" class="edge"><title>Node24&#45;&gt;Node1</title>
<path fill="none" stroke="#9a32cd" stroke-dasharray="5,2" d="M656.207,-848.937C782.725,-853.793 1029.52,-852.787 1226,-788 1254.9,-778.472 1285.06,-759.486 1302.38,-747.558"/>
<polygon fill="#9a32cd" stroke="#9a32cd" points="656.33,-845.44 646.197,-848.531 656.047,-852.434 656.33,-845.44"/>
<text text-anchor="middle" x="839" y="-853" font-family="FreeSans" font-size="10.00"> camera_</text>
</g>
<!-- Node25 -->
<g id="node56" class="node"><title>Node25</title>
<a xlink:href="a00078.html" target="_top" xlink:title="Camera component.">
<polygon fill="none" stroke="red" points="314,-833.5 314,-854.5 412,-854.5 412,-833.5 314,-833.5"/>
<text text-anchor="middle" x="363" y="-841.5" font-family="FreeSans" font-size="10.00">Urho3D::Camera</text>
</a>
</g>
<!-- Node25&#45;&gt;Node24 -->
<g id="edge64" class="edge"><title>Node25&#45;&gt;Node24</title>
<path fill="none" stroke="#9a32cd" stroke-dasharray="5,2" d="M422.293,-844C446.375,-844 474.443,-844 499.784,-844"/>
<polygon fill="#9a32cd" stroke="#9a32cd" points="422.236,-840.5 412.236,-844 422.236,-847.5 422.236,-840.5"/>
<text text-anchor="middle" x="457" y="-848" font-family="FreeSans" font-size="10.00"> ptr_</text>
</g>
</g>
</svg>
        <g id="navigator" transform="translate(0 0)" fill="#404254">
                <rect fill="#f2f5e9" fill-opacity="0.5" stroke="#606060" stroke-width=".5" x="0" y="0" width="60" height="60"/>
                <use id="zoomplus" xlink:href="#zoomPlus" x="17" y="9" onmousedown="handleZoom(evt,'in')"/>
                <use id="zoomminus" xlink:href="#zoomMin" x="42" y="9" onmousedown="handleZoom(evt,'out')"/>
                <use id="reset" xlink:href="#resetDef" x="30" y="36" onmousedown="handleReset()"/>
                <g id="arrowUp" xlink:href="#dirArrow" transform="translate(30 24)" onmousedown="handlePan(0,-1)">
                  <use xlink:href="#rim" fill="#404040">
                        <set attributeName="fill" to="#808080" begin="arrowUp.mouseover" end="arrowUp.mouseout"/>
                  </use>
                  <path fill="none" stroke="white" stroke-width="1.5" d="M0,-3.0v7 M-2.5,-0.5L0,-3.0L2.5,-0.5"/>
                </g>
                <g id="arrowRight" xlink:href="#dirArrow" transform="rotate(90) translate(36 -43)" onmousedown="handlePan(1,0)">
                  <use xlink:href="#rim" fill="#404040">
                        <set attributeName="fill" to="#808080" begin="arrowRight.mouseover" end="arrowRight.mouseout"/>
                  </use>
                  <path fill="none" stroke="white" stroke-width="1.5" d="M0,-3.0v7 M-2.5,-0.5L0,-3.0L2.5,-0.5"/>
                </g>
                <g id="arrowDown" xlink:href="#dirArrow" transform="rotate(180) translate(-30 -48)" onmousedown="handlePan(0,1)">
                  <use xlink:href="#rim" fill="#404040">
                        <set attributeName="fill" to="#808080" begin="arrowDown.mouseover" end="arrowDown.mouseout"/>
                  </use>
                  <path fill="none" stroke="white" stroke-width="1.5" d="M0,-3.0v7 M-2.5,-0.5L0,-3.0L2.5,-0.5"/>
                </g>
                <g id="arrowLeft" xlink:href="#dirArrow" transform="rotate(270) translate(-36 17)" onmousedown="handlePan(-1,0)">
                  <use xlink:href="#rim" fill="#404040">
                        <set attributeName="fill" to="#808080" begin="arrowLeft.mouseover" end="arrowLeft.mouseout"/>
                  </use>
                  <path fill="none" stroke="white" stroke-width="1.5" d="M0,-3.0v7 M-2.5,-0.5L0,-3.0L2.5,-0.5"/>
                </g>
        </g>
        <svg viewBox="0 0 15 15" width="100%" height="30px" preserveAspectRatio="xMaxYMin meet">
         <g id="arrow_out" transform="scale(0.3 0.3)">
          <a xlink:href="a01117_org.svg" target="_base">
           <rect id="button" ry="5" rx="5" y="6" x="6" height="38" width="38"
                fill="#f2f5e9" fill-opacity="0.5" stroke="#606060" stroke-width="1.0"/>
           <path id="arrow"
             d="M 11.500037,31.436501 C 11.940474,20.09759 22.043105,11.32322 32.158766,21.979434 L 37.068811,17.246167 C 37.068811,17.246167 37.088388,32 37.088388,32 L 22.160133,31.978069 C 22.160133,31.978069 26.997745,27.140456 26.997745,27.140456 C 18.528582,18.264221 13.291696,25.230495 11.500037,31.436501 z"
             style="fill:#404040;"/>
          </a>
         </g>
        </svg>
</svg>
