<?xml version="1.0" encoding="UTF-8" standalone="no"?>
<!DOCTYPE svg PUBLIC "-//W3C//DTD SVG 1.1//EN"
 "http://www.w3.org/Graphics/SVG/1.1/DTD/svg11.dtd">
<!-- Generated by graphviz version 2.26.3 (20100126.1600)
 -->
<!-- Title: Urho3D::ParticleEffect Pages: 1 -->
<!--zoomable 586 -->
<svg id="main" version="1.1" xmlns="http://www.w3.org/2000/svg" xmlns:xlink="http://www.w3.org/1999/xlink" xml:space="preserve" onload="init(evt)">
        <defs>
                <circle id="rim" cx="0" cy="0" r="7"/>
                <circle id="rim2" cx="0" cy="0" r="3.5"/>
                <g id="zoomPlus">
                        <use xlink:href="#rim" fill="#404040">
                                <set attributeName="fill" to="#808080" begin="zoomplus.mouseover" end="zoomplus.mouseout"/>
                        </use>
                        <path d="M-4,0h8M0,-4v8" fill="none" stroke="white" stroke-width="1.5" pointer-events="none"/>
                </g>
                <g id="zoomMin">
                        <use xlink:href="#rim" fill="#404040">
                                <set attributeName="fill" to="#808080" begin="zoomminus.mouseover" end="zoomminus.mouseout"/>
                        </use>
                        <path d="M-4,0h8" fill="none" stroke="white" stroke-width="1.5" pointer-events="none"/>
                </g>
                <g id="dirArrow">
                        <path fill="none" stroke="white" stroke-width="1.5" d="M0,-3.0v7 M-2.5,-0.5L0,-3.0L2.5,-0.5"/>
                </g>
               <g id="resetDef">
                       <use xlink:href="#rim2" fill="#404040">
                               <set attributeName="fill" to="#808080" begin="reset.mouseover" end="reset.mouseout"/>
                       </use>
               </g>
        </defs>

<script type="text/javascript">
var viewWidth = 2048;
var viewHeight = 586;
var sectionId = 'dynsection-1';
</script>
<script xlink:href="svgpan.js"/>
<svg id="graph" class="graph">
<g id="viewport">
<title>Urho3D::ParticleEffect</title>
<!-- Node1 -->
<g id="node1" class="node"><title>Node1</title>
<polygon fill="#bfbfbf" stroke="black" points="1918.5,-176.5 1918.5,-197.5 2039.5,-197.5 2039.5,-176.5 1918.5,-176.5"/>
<text text-anchor="middle" x="1979" y="-184.5" font-family="FreeSans" font-size="10.00">Urho3D::ParticleEffect</text>
</g>
<!-- Node2 -->
<g id="node2" class="node"><title>Node2</title>
<a xlink:href="a00295.html" target="_top" xlink:title="Base class for resources.">
<polygon fill="none" stroke="black" points="1158.5,-369.5 1158.5,-390.5 1261.5,-390.5 1261.5,-369.5 1158.5,-369.5"/>
<text text-anchor="middle" x="1210" y="-377.5" font-family="FreeSans" font-size="10.00">Urho3D::Resource</text>
</a>
</g>
<!-- Node2&#45;&gt;Node1 -->
<g id="edge2" class="edge"><title>Node2&#45;&gt;Node1</title>
<path fill="none" stroke="midnightblue" d="M1255.31,-393.281C1355.82,-420.632 1604.31,-476.608 1804,-426 1851.04,-414.079 1867.39,-409.93 1900,-374 1949.74,-319.198 1971.04,-228.471 1977.08,-197.635"/>
<polygon fill="midnightblue" stroke="midnightblue" points="1256.06,-389.856 1245.49,-390.569 1254.2,-396.604 1256.06,-389.856"/>
</g>
<!-- Node20 -->
<g id="node48" class="node"><title>Node20</title>
<a xlink:href="a00217.html" target="_top" xlink:title="Describes how to render 3D geometries.">
<polygon fill="none" stroke="black" points="1508,-244.5 1508,-265.5 1606,-265.5 1606,-244.5 1508,-244.5"/>
<text text-anchor="middle" x="1557" y="-252.5" font-family="FreeSans" font-size="10.00">Urho3D::Material</text>
</a>
</g>
<!-- Node2&#45;&gt;Node20 -->
<g id="edge60" class="edge"><title>Node2&#45;&gt;Node20</title>
<path fill="none" stroke="midnightblue" d="M1271.82,-375.389C1325.33,-369.523 1403.7,-356.345 1466,-327 1499.17,-311.375 1531.17,-281.576 1546.9,-265.654"/>
<polygon fill="midnightblue" stroke="midnightblue" points="1271.37,-371.917 1261.79,-376.435 1272.1,-378.879 1271.37,-371.917"/>
</g>
<!-- Node3 -->
<g id="node4" class="node"><title>Node3</title>
<a xlink:href="a00243.html" target="_top" xlink:title="Base class for objects with type identification, subsystem access and event sending/receiving capabil...">
<polygon fill="none" stroke="black" points="832,-485.5 832,-506.5 922,-506.5 922,-485.5 832,-485.5"/>
<text text-anchor="middle" x="877" y="-493.5" font-family="FreeSans" font-size="10.00">Urho3D::Object</text>
</a>
</g>
<!-- Node3&#45;&gt;Node2 -->
<g id="edge4" class="edge"><title>Node3&#45;&gt;Node2</title>
<path fill="none" stroke="midnightblue" d="M909.478,-481.382C922.534,-475.821 937.826,-469.7 952,-465 1012.06,-445.086 1029.97,-450 1090,-430 1124.69,-418.444 1163.53,-401.491 1187.37,-390.599"/>
<polygon fill="midnightblue" stroke="midnightblue" points="907.772,-478.307 899.986,-485.492 910.553,-484.73 907.772,-478.307"/>
</g>
<!-- Node9 -->
<g id="node17" class="node"><title>Node9</title>
<a xlink:href="a00152.html" target="_top" xlink:title="Internal helper class for invoking event handler functions.">
<polygon fill="none" stroke="red" points="1148,-460.5 1148,-481.5 1272,-481.5 1272,-460.5 1148,-460.5"/>
<text text-anchor="middle" x="1210" y="-468.5" font-family="FreeSans" font-size="10.00">Urho3D::EventHandler</text>
</a>
</g>
<!-- Node3&#45;&gt;Node9 -->
<g id="edge20" class="edge"><title>Node3&#45;&gt;Node9</title>
<path fill="none" stroke="#9a32cd" stroke-dasharray="5,2" d="M923.916,-483.158C933.161,-481.077 942.836,-479.211 952,-478 1018.52,-469.213 1095.5,-468.311 1147.94,-469.075"/>
<polygon fill="#9a32cd" stroke="#9a32cd" points="923.025,-479.772 914.099,-485.479 924.636,-486.584 923.025,-479.772"/>
<text text-anchor="middle" x="1021" y="-495" font-family="FreeSans" font-size="10.00"> sender_</text>
<text text-anchor="middle" x="1021" y="-482" font-family="FreeSans" font-size="10.00">receiver_</text>
</g>
<!-- Node4 -->
<g id="node6" class="node"><title>Node4</title>
<a xlink:href="a00286.html" target="_top" xlink:title="Base class for intrusively reference&#45;counted objects. These are noncopyable and non&#45;assignable.">
<polygon fill="none" stroke="black" points="230,-554.5 230,-575.5 344,-575.5 344,-554.5 230,-554.5"/>
<text text-anchor="middle" x="287" y="-562.5" font-family="FreeSans" font-size="10.00">Urho3D::RefCounted</text>
</a>
</g>
<!-- Node4&#45;&gt;Node3 -->
<g id="edge6" class="edge"><title>Node4&#45;&gt;Node3</title>
<path fill="none" stroke="midnightblue" d="M354.401,-565.656C453.688,-565.245 644.521,-559.19 802,-523 819.264,-519.033 838.014,-512.283 852.448,-506.524"/>
<polygon fill="midnightblue" stroke="midnightblue" points="354.202,-562.156 344.21,-565.679 354.218,-569.156 354.202,-562.156"/>
</g>
<!-- Node6 -->
<g id="node10" class="node"><title>Node6</title>
<a xlink:href="a00126.html" target="_top" xlink:title="Urho3D execution context. Provides access to subsystems, object factories and attributes, and event receivers.">
<polygon fill="none" stroke="red" points="548.5,-499.5 548.5,-520.5 645.5,-520.5 645.5,-499.5 548.5,-499.5"/>
<text text-anchor="middle" x="597" y="-507.5" font-family="FreeSans" font-size="10.00">Urho3D::Context</text>
</a>
</g>
<!-- Node4&#45;&gt;Node6 -->
<g id="edge12" class="edge"><title>Node4&#45;&gt;Node6</title>
<path fill="none" stroke="midnightblue" d="M354.373,-556.186C403.315,-549.366 471.026,-539.065 530,-527 539.17,-525.124 548.973,-522.813 558.17,-520.506"/>
<polygon fill="midnightblue" stroke="midnightblue" points="353.651,-552.753 344.224,-557.588 354.609,-559.687 353.651,-552.753"/>
</g>
<!-- Node5 -->
<g id="node8" class="node"><title>Node5</title>
<a xlink:href="a00285.html" target="_top" xlink:title="Reference count structure.">
<polygon fill="none" stroke="black" points="6,-554.5 6,-575.5 108,-575.5 108,-554.5 6,-554.5"/>
<text text-anchor="middle" x="57" y="-562.5" font-family="FreeSans" font-size="10.00">Urho3D::RefCount</text>
</a>
</g>
<!-- Node5&#45;&gt;Node4 -->
<g id="edge8" class="edge"><title>Node5&#45;&gt;Node4</title>
<path fill="none" stroke="#9a32cd" stroke-dasharray="5,2" d="M118.473,-565C152.994,-565 195.798,-565 229.629,-565"/>
<polygon fill="#9a32cd" stroke="#9a32cd" points="118.044,-561.5 108.044,-565 118.044,-568.5 118.044,-561.5"/>
<text text-anchor="middle" x="157" y="-569" font-family="FreeSans" font-size="10.00"> refCount_</text>
</g>
<!-- Node6&#45;&gt;Node3 -->
<g id="edge10" class="edge"><title>Node6&#45;&gt;Node3</title>
<path fill="none" stroke="#9a32cd" stroke-dasharray="5,2" d="M655.923,-507.054C708.288,-504.436 783.747,-500.663 831.566,-498.272"/>
<polygon fill="#9a32cd" stroke="#9a32cd" points="655.585,-503.566 645.772,-507.561 655.935,-510.558 655.585,-503.566"/>
<text text-anchor="middle" x="733" y="-510" font-family="FreeSans" font-size="10.00"> context_</text>
</g>
<!-- Node7 -->
<g id="node13" class="node"><title>Node7</title>
<a xlink:href="a00272.html" target="_top" xlink:title="Urho3D::PODVector\&lt;\l Urho3D::Object * \&gt;">
<polygon fill="none" stroke="black" points="227.5,-321 227.5,-355 346.5,-355 346.5,-321 227.5,-321"/>
<text text-anchor="start" x="235.5" y="-342" font-family="FreeSans" font-size="10.00">Urho3D::PODVector&lt;</text>
<text text-anchor="middle" x="287" y="-329" font-family="FreeSans" font-size="10.00"> Urho3D::Object * &gt;</text>
</a>
</g>
<!-- Node7&#45;&gt;Node6 -->
<g id="edge14" class="edge"><title>Node7&#45;&gt;Node6</title>
<path fill="none" stroke="#9a32cd" stroke-dasharray="5,2" d="M326.916,-360.147C394.358,-397.567 528.359,-471.915 577.959,-499.435"/>
<polygon fill="#9a32cd" stroke="#9a32cd" points="328.3,-356.912 317.857,-355.121 324.903,-363.033 328.3,-356.912"/>
<text text-anchor="middle" x="461" y="-472" font-family="FreeSans" font-size="10.00"> eventSenders_</text>
</g>
<!-- Node8 -->
<g id="node15" class="node"><title>Node8</title>
<a xlink:href="a00386.html" target="_top" xlink:title="Vector base class.">
<polygon fill="none" stroke="black" points="0,-145.5 0,-166.5 114,-166.5 114,-145.5 0,-145.5"/>
<text text-anchor="middle" x="57" y="-153.5" font-family="FreeSans" font-size="10.00">Urho3D::VectorBase</text>
</a>
</g>
<!-- Node8&#45;&gt;Node7 -->
<g id="edge16" class="edge"><title>Node8&#45;&gt;Node7</title>
<path fill="none" stroke="midnightblue" d="M78.3206,-172.871C121.99,-207.427 221.196,-285.929 265.238,-320.779"/>
<polygon fill="midnightblue" stroke="midnightblue" points="80.3736,-170.032 70.3599,-166.572 76.0299,-175.522 80.3736,-170.032"/>
</g>
<!-- Node15 -->
<g id="node34" class="node"><title>Node15</title>
<a xlink:href="a00382.html" target="_top" xlink:title="Urho3D::Vector\&lt; Urho3D\l::ColorFrame \&gt;">
<polygon fill="none" stroke="black" points="664,-66 664,-100 802,-100 802,-66 664,-66"/>
<text text-anchor="start" x="672" y="-87" font-family="FreeSans" font-size="10.00">Urho3D::Vector&lt; Urho3D</text>
<text text-anchor="middle" x="733" y="-74" font-family="FreeSans" font-size="10.00">::ColorFrame &gt;</text>
</a>
</g>
<!-- Node8&#45;&gt;Node15 -->
<g id="edge42" class="edge"><title>Node8&#45;&gt;Node15</title>
<path fill="none" stroke="midnightblue" d="M124.181,-148.745C253.023,-134.832 533.605,-104.532 663.922,-90.4596"/>
<polygon fill="midnightblue" stroke="midnightblue" points="123.619,-145.285 114.053,-149.839 124.371,-152.245 123.619,-145.285"/>
</g>
<!-- Node18 -->
<g id="node43" class="node"><title>Node18</title>
<a xlink:href="a00382.html" target="_top" xlink:title="Urho3D::Vector\&lt; Urho3D\l::TextureFrame \&gt;">
<polygon fill="none" stroke="black" points="952,-0 952,-34 1090,-34 1090,-0 952,-0"/>
<text text-anchor="start" x="960" y="-21" font-family="FreeSans" font-size="10.00">Urho3D::Vector&lt; Urho3D</text>
<text text-anchor="middle" x="1021" y="-8" font-family="FreeSans" font-size="10.00">::TextureFrame &gt;</text>
</a>
</g>
<!-- Node8&#45;&gt;Node18 -->
<g id="edge54" class="edge"><title>Node8&#45;&gt;Node18</title>
<path fill="none" stroke="midnightblue" d="M73.3508,-137.442C108.432,-99.7984 195.22,-18 287,-18 287,-18 287,-18 733,-18 807.75,-18 893.414,-17.659 951.751,-17.3752"/>
<polygon fill="midnightblue" stroke="midnightblue" points="70.4535,-135.425 66.2987,-145.171 75.6245,-140.143 70.4535,-135.425"/>
</g>
<!-- Node23 -->
<g id="node55" class="node"><title>Node23</title>
<a xlink:href="a00382.html" target="_top" xlink:title="Urho3D::Vector\&lt; Urho3D\l::TechniqueEntry \&gt;">
<polygon fill="none" stroke="black" points="392,-174 392,-208 530,-208 530,-174 392,-174"/>
<text text-anchor="start" x="400" y="-195" font-family="FreeSans" font-size="10.00">Urho3D::Vector&lt; Urho3D</text>
<text text-anchor="middle" x="461" y="-182" font-family="FreeSans" font-size="10.00">::TechniqueEntry &gt;</text>
</a>
</g>
<!-- Node8&#45;&gt;Node23 -->
<g id="edge68" class="edge"><title>Node8&#45;&gt;Node23</title>
<path fill="none" stroke="midnightblue" d="M124.175,-161.82C198.252,-168.237 316.846,-178.511 391.745,-185"/>
<polygon fill="midnightblue" stroke="midnightblue" points="124.291,-158.317 114.026,-160.94 123.687,-165.291 124.291,-158.317"/>
</g>
<!-- Node9&#45;&gt;Node6 -->
<g id="edge18" class="edge"><title>Node9&#45;&gt;Node6</title>
<path fill="none" stroke="#9a32cd" stroke-dasharray="5,2" d="M1169.28,-484.735C1140.83,-494.102 1105.31,-505.284 1090,-508 903.461,-541.089 852.582,-541.126 664,-523 657.985,-522.422 651.707,-521.558 645.51,-520.545"/>
<polygon fill="#9a32cd" stroke="#9a32cd" points="1170.61,-487.982 1179,-481.514 1168.41,-481.337 1170.61,-487.982"/>
<text text-anchor="middle" x="877" y="-539" font-family="FreeSans" font-size="10.00"> eventHandler_</text>
</g>
<!-- Node12 -->
<g id="node25" class="node"><title>Node12</title>
<a xlink:href="a00203.html" target="_top" xlink:title="Urho3D::LinkedList\l\&lt; Urho3D::EventHandler \&gt;">
<polygon fill="none" stroke="black" points="1484,-482 1484,-516 1630,-516 1630,-482 1484,-482"/>
<text text-anchor="start" x="1492" y="-503" font-family="FreeSans" font-size="10.00">Urho3D::LinkedList</text>
<text text-anchor="middle" x="1557" y="-490" font-family="FreeSans" font-size="10.00">&lt; Urho3D::EventHandler &gt;</text>
</a>
</g>
<!-- Node9&#45;&gt;Node12 -->
<g id="edge30" class="edge"><title>Node9&#45;&gt;Node12</title>
<path fill="none" stroke="#9a32cd" stroke-dasharray="5,2" d="M1282.08,-476.444C1333.39,-480.364 1403.94,-485.848 1466,-491 1471.85,-491.485 1477.91,-491.998 1483.99,-492.519"/>
<polygon fill="#9a32cd" stroke="#9a32cd" points="1282.33,-472.952 1272.09,-475.681 1281.79,-479.932 1282.33,-472.952"/>
<text text-anchor="middle" x="1398" y="-495" font-family="FreeSans" font-size="10.00"> head_</text>
</g>
<!-- Node10 -->
<g id="node20" class="node"><title>Node10</title>
<a xlink:href="a00348.html" target="_top" xlink:title="32&#45;bit hash value for a string.">
<polygon fill="none" stroke="black" points="820.5,-389.5 820.5,-410.5 933.5,-410.5 933.5,-389.5 820.5,-389.5"/>
<text text-anchor="middle" x="877" y="-397.5" font-family="FreeSans" font-size="10.00">Urho3D::StringHash</text>
</a>
</g>
<!-- Node10&#45;&gt;Node2 -->
<g id="edge38" class="edge"><title>Node10&#45;&gt;Node2</title>
<path fill="none" stroke="#9a32cd" stroke-dasharray="5,2" d="M921.173,-386.908C931.219,-384.464 941.906,-382.279 952,-381 1023.1,-371.994 1106.11,-373.855 1158.36,-376.517"/>
<polygon fill="#9a32cd" stroke="#9a32cd" points="920.207,-383.542 911.387,-389.414 921.943,-390.324 920.207,-383.542"/>
<text text-anchor="middle" x="1021" y="-385" font-family="FreeSans" font-size="10.00"> nameHash_</text>
</g>
<!-- Node10&#45;&gt;Node9 -->
<g id="edge22" class="edge"><title>Node10&#45;&gt;Node9</title>
<path fill="none" stroke="#9a32cd" stroke-dasharray="5,2" d="M936.423,-412.67C1000.32,-426.292 1100.74,-447.705 1160.51,-460.447"/>
<polygon fill="#9a32cd" stroke="#9a32cd" points="937.004,-409.215 926.494,-410.553 935.544,-416.061 937.004,-409.215"/>
<text text-anchor="middle" x="1021" y="-447" font-family="FreeSans" font-size="10.00"> eventType_</text>
</g>
<!-- Node10&#45;&gt;Node10 -->
<g id="edge24" class="edge"><title>Node10&#45;&gt;Node10</title>
<path fill="none" stroke="#9a32cd" stroke-dasharray="5,2" d="M850.322,-420.055C852.072,-425.164 860.964,-429 877,-429 902.031,-429 909.658,-419.653 899.88,-410.708"/>
<polygon fill="#9a32cd" stroke="#9a32cd" points="853.598,-421.29 854.12,-410.708 847.113,-418.655 853.598,-421.29"/>
<text text-anchor="middle" x="877" y="-433" font-family="FreeSans" font-size="10.00"> ZERO</text>
</g>
<!-- Node11 -->
<g id="node23" class="node"><title>Node11</title>
<a xlink:href="a00179.html" target="_top" xlink:title="Urho3D::HashMap\&lt; Urho3D\l::StringHash, Urho3D::\lHashSet\&lt; Urho3D::Object * \&gt; \&gt;">
<polygon fill="none" stroke="red" points="200.5,-486.5 200.5,-533.5 373.5,-533.5 373.5,-486.5 200.5,-486.5"/>
<text text-anchor="start" x="208.5" y="-520.5" font-family="FreeSans" font-size="10.00">Urho3D::HashMap&lt; Urho3D</text>
<text text-anchor="start" x="208.5" y="-507.5" font-family="FreeSans" font-size="10.00">::StringHash, Urho3D::</text>
<text text-anchor="middle" x="287" y="-494.5" font-family="FreeSans" font-size="10.00">HashSet&lt; Urho3D::Object * &gt; &gt;</text>
</a>
</g>
<!-- Node11&#45;&gt;Node6 -->
<g id="edge26" class="edge"><title>Node11&#45;&gt;Node6</title>
<path fill="none" stroke="#9a32cd" stroke-dasharray="5,2" d="M383.83,-510C438.48,-510 504.415,-510 548.345,-510"/>
<polygon fill="#9a32cd" stroke="#9a32cd" points="383.765,-506.5 373.764,-510 383.764,-513.5 383.765,-506.5"/>
<text text-anchor="middle" x="461" y="-514" font-family="FreeSans" font-size="10.00"> eventReceivers_</text>
</g>
<!-- Node12&#45;&gt;Node3 -->
<g id="edge28" class="edge"><title>Node12&#45;&gt;Node3</title>
<path fill="none" stroke="#9a32cd" stroke-dasharray="5,2" d="M1473.3,-503.774C1470.84,-503.858 1468.4,-503.934 1466,-504 1237.64,-510.269 1180.12,-516.132 952,-504 942.324,-503.485 931.975,-502.6 922.15,-501.601"/>
<polygon fill="#9a32cd" stroke="#9a32cd" points="1473.65,-507.264 1483.51,-503.385 1473.38,-500.269 1473.65,-507.264"/>
<text text-anchor="middle" x="1210" y="-515" font-family="FreeSans" font-size="10.00"> eventHandlers_</text>
</g>
<!-- Node13 -->
<g id="node28" class="node"><title>Node13</title>
<a xlink:href="a00364.html" target="_top" xlink:title="Low&#45;resolution operating system timer.">
<polygon fill="none" stroke="black" points="834,-333.5 834,-354.5 920,-354.5 920,-333.5 834,-333.5"/>
<text text-anchor="middle" x="877" y="-341.5" font-family="FreeSans" font-size="10.00">Urho3D::Timer</text>
</a>
</g>
<!-- Node13&#45;&gt;Node2 -->
<g id="edge32" class="edge"><title>Node13&#45;&gt;Node2</title>
<path fill="none" stroke="#9a32cd" stroke-dasharray="5,2" d="M930.398,-345.359C973.586,-346.915 1035.89,-350.192 1090,-357 1097,-357.88 1129.11,-364.054 1158.36,-369.783"/>
<polygon fill="#9a32cd" stroke="#9a32cd" points="930.508,-341.861 920.394,-345.018 930.269,-348.857 930.508,-341.861"/>
<text text-anchor="middle" x="1021" y="-361" font-family="FreeSans" font-size="10.00"> useTimer_</text>
</g>
<!-- Node14 -->
<g id="node30" class="node"><title>Node14</title>
<a xlink:href="a00347.html" target="_top" xlink:title="String class.">
<polygon fill="none" stroke="black" points="833,-262.5 833,-283.5 921,-283.5 921,-262.5 833,-262.5"/>
<text text-anchor="middle" x="877" y="-270.5" font-family="FreeSans" font-size="10.00">Urho3D::String</text>
</a>
</g>
<!-- Node14&#45;&gt;Node2 -->
<g id="edge34" class="edge"><title>Node14&#45;&gt;Node2</title>
<path fill="none" stroke="#9a32cd" stroke-dasharray="5,2" d="M931.428,-275.826C977.746,-280.726 1043.91,-293.892 1090,-329 1102.67,-338.653 1095.03,-350.754 1108,-360 1122.55,-370.368 1141.1,-375.708 1158.38,-378.359"/>
<polygon fill="#9a32cd" stroke="#9a32cd" points="931.566,-272.324 921.277,-274.851 930.896,-279.291 931.566,-272.324"/>
<text text-anchor="middle" x="1021" y="-333" font-family="FreeSans" font-size="10.00"> name_</text>
</g>
<!-- Node14&#45;&gt;Node14 -->
<g id="edge36" class="edge"><title>Node14&#45;&gt;Node14</title>
<path fill="none" stroke="#9a32cd" stroke-dasharray="5,2" d="M850.322,-293.055C852.072,-298.164 860.964,-302 877,-302 902.031,-302 909.658,-292.653 899.88,-283.708"/>
<polygon fill="#9a32cd" stroke="#9a32cd" points="853.598,-294.29 854.12,-283.708 847.113,-291.655 853.598,-294.29"/>
<text text-anchor="middle" x="877" y="-306" font-family="FreeSans" font-size="10.00"> EMPTY</text>
</g>
<!-- Node15&#45;&gt;Node1 -->
<g id="edge40" class="edge"><title>Node15&#45;&gt;Node1</title>
<path fill="none" stroke="#9a32cd" stroke-dasharray="5,2" d="M812.245,-71.9785C869.998,-64.891 950.197,-57 1021,-57 1021,-57 1021,-57 1746,-57 1843.74,-57 1938.65,-145.314 1968.99,-176.362"/>
<polygon fill="#9a32cd" stroke="#9a32cd" points="811.581,-68.534 802.091,-73.2446 812.448,-75.4802 811.581,-68.534"/>
<text text-anchor="middle" x="1398" y="-61" font-family="FreeSans" font-size="10.00"> colorFrames_</text>
</g>
<!-- Node16 -->
<g id="node37" class="node"><title>Node16</title>
<a xlink:href="a00383.html" target="_top" xlink:title="Two&#45;dimensional vector.">
<polygon fill="none" stroke="black" points="1698,-247.5 1698,-268.5 1794,-268.5 1794,-247.5 1698,-247.5"/>
<text text-anchor="middle" x="1746" y="-255.5" font-family="FreeSans" font-size="10.00">Urho3D::Vector2</text>
</a>
</g>
<!-- Node16&#45;&gt;Node1 -->
<g id="edge44" class="edge"><title>Node16&#45;&gt;Node1</title>
<path fill="none" stroke="#9a32cd" stroke-dasharray="5,2" d="M1790.36,-244.484C1835.08,-230.856 1903.2,-210.098 1944.18,-197.611"/>
<polygon fill="#9a32cd" stroke="#9a32cd" points="1789.18,-241.184 1780.63,-247.447 1791.22,-247.88 1789.18,-241.184"/>
<text text-anchor="middle" x="1861" y="-250" font-family="FreeSans" font-size="10.00"> sizeMin_</text>
<text text-anchor="middle" x="1861" y="-237" font-family="FreeSans" font-size="10.00">sizeMax_</text>
</g>
<!-- Node16&#45;&gt;Node16 -->
<g id="edge46" class="edge"><title>Node16&#45;&gt;Node16</title>
<path fill="none" stroke="#9a32cd" stroke-dasharray="5,2" d="M1730.25,-278.793C1731.64,-283.529 1736.89,-287 1746,-287 1760.95,-287 1765.5,-277.653 1759.66,-268.708"/>
<polygon fill="#9a32cd" stroke="#9a32cd" points="1733.74,-279.209 1732.34,-268.708 1726.88,-277.792 1733.74,-279.209"/>
<text text-anchor="middle" x="1746" y="-356" font-family="FreeSans" font-size="10.00"> ONE</text>
<text text-anchor="middle" x="1746" y="-343" font-family="FreeSans" font-size="10.00">DOWN</text>
<text text-anchor="middle" x="1746" y="-330" font-family="FreeSans" font-size="10.00">RIGHT</text>
<text text-anchor="middle" x="1746" y="-317" font-family="FreeSans" font-size="10.00">LEFT</text>
<text text-anchor="middle" x="1746" y="-304" font-family="FreeSans" font-size="10.00">ZERO</text>
<text text-anchor="middle" x="1746" y="-291" font-family="FreeSans" font-size="10.00">UP</text>
</g>
<!-- Node17 -->
<g id="node40" class="node"><title>Node17</title>
<a xlink:href="a00384.html" target="_top" xlink:title="Three&#45;dimensional vector.">
<polygon fill="none" stroke="black" points="1698,-85.5 1698,-106.5 1794,-106.5 1794,-85.5 1698,-85.5"/>
<text text-anchor="middle" x="1746" y="-93.5" font-family="FreeSans" font-size="10.00">Urho3D::Vector3</text>
</a>
</g>
<!-- Node17&#45;&gt;Node1 -->
<g id="edge48" class="edge"><title>Node17&#45;&gt;Node1</title>
<path fill="none" stroke="#9a32cd" stroke-dasharray="5,2" d="M1783.78,-110.243C1815,-122.071 1860.46,-139.419 1900,-155 1917.76,-161.998 1937.68,-170.069 1953.08,-176.355"/>
<polygon fill="#9a32cd" stroke="#9a32cd" points="1784.76,-106.872 1774.16,-106.606 1782.28,-113.419 1784.76,-106.872"/>
<text text-anchor="middle" x="1861" y="-198" font-family="FreeSans" font-size="10.00"> constantForce_</text>
<text text-anchor="middle" x="1861" y="-185" font-family="FreeSans" font-size="10.00">directionMax_</text>
<text text-anchor="middle" x="1861" y="-172" font-family="FreeSans" font-size="10.00">emitterSize_</text>
<text text-anchor="middle" x="1861" y="-159" font-family="FreeSans" font-size="10.00">directionMin_</text>
</g>
<!-- Node17&#45;&gt;Node17 -->
<g id="edge50" class="edge"><title>Node17&#45;&gt;Node17</title>
<path fill="none" stroke="#9a32cd" stroke-dasharray="5,2" d="M1730.25,-116.793C1731.64,-121.529 1736.89,-125 1746,-125 1760.95,-125 1765.5,-115.653 1759.66,-106.708"/>
<polygon fill="#9a32cd" stroke="#9a32cd" points="1733.74,-117.209 1732.34,-106.708 1726.88,-115.792 1733.74,-117.209"/>
<text text-anchor="middle" x="1746" y="-220" font-family="FreeSans" font-size="10.00"> ONE</text>
<text text-anchor="middle" x="1746" y="-207" font-family="FreeSans" font-size="10.00">DOWN</text>
<text text-anchor="middle" x="1746" y="-194" font-family="FreeSans" font-size="10.00">BACK</text>
<text text-anchor="middle" x="1746" y="-181" font-family="FreeSans" font-size="10.00">RIGHT</text>
<text text-anchor="middle" x="1746" y="-168" font-family="FreeSans" font-size="10.00">LEFT</text>
<text text-anchor="middle" x="1746" y="-155" font-family="FreeSans" font-size="10.00">ZERO</text>
<text text-anchor="middle" x="1746" y="-142" font-family="FreeSans" font-size="10.00">FORWARD</text>
<text text-anchor="middle" x="1746" y="-129" font-family="FreeSans" font-size="10.00">UP</text>
</g>
<!-- Node18&#45;&gt;Node1 -->
<g id="edge52" class="edge"><title>Node18&#45;&gt;Node1</title>
<path fill="none" stroke="#9a32cd" stroke-dasharray="5,2" d="M1100.15,-16.6681C1176.44,-16.377 1295.12,-16 1398,-16 1398,-16 1398,-16 1746,-16 1815.49,-16 1843.5,-2.55184 1900,-43 1947.53,-77.0263 1969.6,-148.897 1976.5,-176.183"/>
<polygon fill="#9a32cd" stroke="#9a32cd" points="1100.12,-13.1681 1090.14,-16.7067 1100.15,-20.168 1100.12,-13.1681"/>
<text text-anchor="middle" x="1557" y="-20" font-family="FreeSans" font-size="10.00"> textureFrames_</text>
</g>
<!-- Node19 -->
<g id="node46" class="node"><title>Node19</title>
<a xlink:href="a00325.html" target="_top" xlink:title="Urho3D::SharedPtr\&lt;\l Urho3D::Material \&gt;">
<polygon fill="none" stroke="black" points="1688,-383 1688,-417 1804,-417 1804,-383 1688,-383"/>
<text text-anchor="start" x="1696" y="-404" font-family="FreeSans" font-size="10.00">Urho3D::SharedPtr&lt;</text>
<text text-anchor="middle" x="1746" y="-391" font-family="FreeSans" font-size="10.00"> Urho3D::Material &gt;</text>
</a>
</g>
<!-- Node19&#45;&gt;Node1 -->
<g id="edge56" class="edge"><title>Node19&#45;&gt;Node1</title>
<path fill="none" stroke="#9a32cd" stroke-dasharray="5,2" d="M1798.21,-377.85C1800.2,-376.612 1802.14,-375.328 1804,-374 1880,-319.748 1949.07,-228.668 1971.44,-197.688"/>
<polygon fill="#9a32cd" stroke="#9a32cd" points="1796.16,-374.987 1789.2,-382.975 1799.62,-381.071 1796.16,-374.987"/>
<text text-anchor="middle" x="1861" y="-361" font-family="FreeSans" font-size="10.00"> material_</text>
</g>
<!-- Node20&#45;&gt;Node19 -->
<g id="edge58" class="edge"><title>Node20&#45;&gt;Node19</title>
<path fill="none" stroke="#9a32cd" stroke-dasharray="5,2" d="M1573.42,-273.171C1596.9,-298.343 1642.3,-344.094 1688,-374 1692.89,-377.202 1698.25,-380.193 1703.66,-382.923"/>
<polygon fill="#9a32cd" stroke="#9a32cd" points="1575.95,-270.747 1566.6,-265.768 1570.8,-275.492 1575.95,-270.747"/>
<text text-anchor="middle" x="1659" y="-364" font-family="FreeSans" font-size="10.00"> ptr_</text>
</g>
<!-- Node21 -->
<g id="node51" class="node"><title>Node21</title>
<a xlink:href="a00179.html" target="_top" xlink:title="Urho3D::HashMap\&lt; Urho3D\l::StringHash, Urho3D::\lMaterialShaderParameter \&gt;">
<polygon fill="none" stroke="red" points="1134,-303.5 1134,-350.5 1286,-350.5 1286,-303.5 1134,-303.5"/>
<text text-anchor="start" x="1142" y="-337.5" font-family="FreeSans" font-size="10.00">Urho3D::HashMap&lt; Urho3D</text>
<text text-anchor="start" x="1142" y="-324.5" font-family="FreeSans" font-size="10.00">::StringHash, Urho3D::</text>
<text text-anchor="middle" x="1210" y="-311.5" font-family="FreeSans" font-size="10.00">MaterialShaderParameter &gt;</text>
</a>
</g>
<!-- Node21&#45;&gt;Node20 -->
<g id="edge62" class="edge"><title>Node21&#45;&gt;Node20</title>
<path fill="none" stroke="#9a32cd" stroke-dasharray="5,2" d="M1296.36,-316.251C1346.31,-309.184 1410.14,-298.701 1466,-285 1487.33,-279.769 1510.85,-271.957 1528.64,-265.615"/>
<polygon fill="#9a32cd" stroke="#9a32cd" points="1295.66,-312.814 1286.24,-317.662 1296.63,-319.747 1295.66,-312.814"/>
<text text-anchor="middle" x="1398" y="-314" font-family="FreeSans" font-size="10.00"> shaderParameters_</text>
</g>
<!-- Node22 -->
<g id="node53" class="node"><title>Node22</title>
<a xlink:href="a00179.html" target="_top" xlink:title="Urho3D::HashMap\&lt; Urho3D\l::StringHash, Urho3D::\lSharedPtr\&lt; Urho3D::ShaderParameter\lAnimationInfo \&gt; \&gt;">
<polygon fill="none" stroke="red" points="1108.5,-225 1108.5,-285 1311.5,-285 1311.5,-225 1108.5,-225"/>
<text text-anchor="start" x="1116.5" y="-272" font-family="FreeSans" font-size="10.00">Urho3D::HashMap&lt; Urho3D</text>
<text text-anchor="start" x="1116.5" y="-259" font-family="FreeSans" font-size="10.00">::StringHash, Urho3D::</text>
<text text-anchor="start" x="1116.5" y="-246" font-family="FreeSans" font-size="10.00">SharedPtr&lt; Urho3D::ShaderParameter</text>
<text text-anchor="middle" x="1210" y="-233" font-family="FreeSans" font-size="10.00">AnimationInfo &gt; &gt;</text>
</a>
</g>
<!-- Node22&#45;&gt;Node20 -->
<g id="edge64" class="edge"><title>Node22&#45;&gt;Node20</title>
<path fill="none" stroke="#9a32cd" stroke-dasharray="5,2" d="M1322.11,-255C1384.79,-255 1459.73,-255 1507.83,-255"/>
<polygon fill="#9a32cd" stroke="#9a32cd" points="1321.77,-251.5 1311.77,-255 1321.77,-258.5 1321.77,-251.5"/>
<text text-anchor="start" x="1330" y="-272" font-family="FreeSans" font-size="10.00"> shaderParameterAnimation</text>
<text text-anchor="middle" x="1398" y="-259" font-family="FreeSans" font-size="10.00">Infos_</text>
</g>
<!-- Node23&#45;&gt;Node20 -->
<g id="edge66" class="edge"><title>Node23&#45;&gt;Node20</title>
<path fill="none" stroke="#9a32cd" stroke-dasharray="5,2" d="M540.264,-193.67C594.518,-195.272 668.103,-197 733,-197 733,-197 733,-197 1210,-197 1323.91,-197 1456.02,-227.783 1519.35,-244.497"/>
<polygon fill="#9a32cd" stroke="#9a32cd" points="540.123,-190.165 530.022,-193.363 539.913,-197.161 540.123,-190.165"/>
<text text-anchor="middle" x="877" y="-201" font-family="FreeSans" font-size="10.00"> techniques_</text>
</g>
<!-- Node24 -->
<g id="node58" class="node"><title>Node24</title>
<a xlink:href="a00080.html" target="_top" xlink:title="Shadow depth bias parameters.">
<polygon fill="none" stroke="black" points="1142.5,-95.5 1142.5,-116.5 1277.5,-116.5 1277.5,-95.5 1142.5,-95.5"/>
<text text-anchor="middle" x="1210" y="-103.5" font-family="FreeSans" font-size="10.00">Urho3D::BiasParameters</text>
</a>
</g>
<!-- Node24&#45;&gt;Node20 -->
<g id="edge70" class="edge"><title>Node24&#45;&gt;Node20</title>
<path fill="none" stroke="#9a32cd" stroke-dasharray="5,2" d="M1287.74,-95.5175C1341.25,-92.0958 1412.12,-95.3523 1466,-126 1514.36,-153.51 1543.24,-218.506 1553.13,-244.239"/>
<polygon fill="#9a32cd" stroke="#9a32cd" points="1287.34,-92.0375 1277.62,-96.2568 1287.85,-99.0189 1287.34,-92.0375"/>
<text text-anchor="middle" x="1398" y="-130" font-family="FreeSans" font-size="10.00"> depthBias_</text>
</g>
<!-- Node25 -->
<g id="node60" class="node"><title>Node25</title>
<a xlink:href="a00325.html" target="_top" xlink:title="Urho3D::SharedPtr\&lt;\l Urho3D::Texture \&gt;">
<polygon fill="none" stroke="red" points="1152,-135 1152,-169 1268,-169 1268,-135 1152,-135"/>
<text text-anchor="start" x="1160" y="-156" font-family="FreeSans" font-size="10.00">Urho3D::SharedPtr&lt;</text>
<text text-anchor="middle" x="1210" y="-143" font-family="FreeSans" font-size="10.00"> Urho3D::Texture &gt;</text>
</a>
</g>
<!-- Node25&#45;&gt;Node20 -->
<g id="edge72" class="edge"><title>Node25&#45;&gt;Node20</title>
<path fill="none" stroke="#9a32cd" stroke-dasharray="5,2" d="M1278.05,-144.732C1331.4,-141.821 1406.33,-144.01 1466,-170 1503.66,-186.402 1535.54,-225.279 1549.48,-244.234"/>
<polygon fill="#9a32cd" stroke="#9a32cd" points="1277.78,-141.242 1268.02,-145.353 1278.21,-148.229 1277.78,-141.242"/>
<text text-anchor="middle" x="1398" y="-174" font-family="FreeSans" font-size="10.00"> textures_</text>
</g>
</g>
</svg>
        <g id="navigator" transform="translate(0 0)" fill="#404254">
                <rect fill="#f2f5e9" fill-opacity="0.5" stroke="#606060" stroke-width=".5" x="0" y="0" width="60" height="60"/>
                <use id="zoomplus" xlink:href="#zoomPlus" x="17" y="9" onmousedown="handleZoom(evt,'in')"/>
                <use id="zoomminus" xlink:href="#zoomMin" x="42" y="9" onmousedown="handleZoom(evt,'out')"/>
                <use id="reset" xlink:href="#resetDef" x="30" y="36" onmousedown="handleReset()"/>
                <g id="arrowUp" xlink:href="#dirArrow" transform="translate(30 24)" onmousedown="handlePan(0,-1)">
                  <use xlink:href="#rim" fill="#404040">
                        <set attributeName="fill" to="#808080" begin="arrowUp.mouseover" end="arrowUp.mouseout"/>
                  </use>
                  <path fill="none" stroke="white" stroke-width="1.5" d="M0,-3.0v7 M-2.5,-0.5L0,-3.0L2.5,-0.5"/>
                </g>
                <g id="arrowRight" xlink:href="#dirArrow" transform="rotate(90) translate(36 -43)" onmousedown="handlePan(1,0)">
                  <use xlink:href="#rim" fill="#404040">
                        <set attributeName="fill" to="#808080" begin="arrowRight.mouseover" end="arrowRight.mouseout"/>
                  </use>
                  <path fill="none" stroke="white" stroke-width="1.5" d="M0,-3.0v7 M-2.5,-0.5L0,-3.0L2.5,-0.5"/>
                </g>
                <g id="arrowDown" xlink:href="#dirArrow" transform="rotate(180) translate(-30 -48)" onmousedown="handlePan(0,1)">
                  <use xlink:href="#rim" fill="#404040">
                        <set attributeName="fill" to="#808080" begin="arrowDown.mouseover" end="arrowDown.mouseout"/>
                  </use>
                  <path fill="none" stroke="white" stroke-width="1.5" d="M0,-3.0v7 M-2.5,-0.5L0,-3.0L2.5,-0.5"/>
                </g>
                <g id="arrowLeft" xlink:href="#dirArrow" transform="rotate(270) translate(-36 17)" onmousedown="handlePan(-1,0)">
                  <use xlink:href="#rim" fill="#404040">
                        <set attributeName="fill" to="#808080" begin="arrowLeft.mouseover" end="arrowLeft.mouseout"/>
                  </use>
                  <path fill="none" stroke="white" stroke-width="1.5" d="M0,-3.0v7 M-2.5,-0.5L0,-3.0L2.5,-0.5"/>
                </g>
        </g>
        <svg viewBox="0 0 15 15" width="100%" height="30px" preserveAspectRatio="xMaxYMin meet">
         <g id="arrow_out" transform="scale(0.3 0.3)">
          <a xlink:href="a01259_org.svg" target="_base">
           <rect id="button" ry="5" rx="5" y="6" x="6" height="38" width="38"
                fill="#f2f5e9" fill-opacity="0.5" stroke="#606060" stroke-width="1.0"/>
           <path id="arrow"
             d="M 11.500037,31.436501 C 11.940474,20.09759 22.043105,11.32322 32.158766,21.979434 L 37.068811,17.246167 C 37.068811,17.246167 37.088388,32 37.088388,32 L 22.160133,31.978069 C 22.160133,31.978069 26.997745,27.140456 26.997745,27.140456 C 18.528582,18.264221 13.291696,25.230495 11.500037,31.436501 z"
             style="fill:#404040;"/>
          </a>
         </g>
        </svg>
</svg>
