<?xml version="1.0" encoding="UTF-8" standalone="no"?>
<!DOCTYPE svg PUBLIC "-//W3C//DTD SVG 1.1//EN"
 "http://www.w3.org/Graphics/SVG/1.1/DTD/svg11.dtd">
<!-- Generated by graphviz version 2.26.3 (20100126.1600)
 -->
<!-- Title: Urho3D::Input Pages: 1 -->
<!--zoomable 1118 -->
<svg id="main" version="1.1" xmlns="http://www.w3.org/2000/svg" xmlns:xlink="http://www.w3.org/1999/xlink" xml:space="preserve" onload="init(evt)">
        <defs>
                <circle id="rim" cx="0" cy="0" r="7"/>
                <circle id="rim2" cx="0" cy="0" r="3.5"/>
                <g id="zoomPlus">
                        <use xlink:href="#rim" fill="#404040">
                                <set attributeName="fill" to="#808080" begin="zoomplus.mouseover" end="zoomplus.mouseout"/>
                        </use>
                        <path d="M-4,0h8M0,-4v8" fill="none" stroke="white" stroke-width="1.5" pointer-events="none"/>
                </g>
                <g id="zoomMin">
                        <use xlink:href="#rim" fill="#404040">
                                <set attributeName="fill" to="#808080" begin="zoomminus.mouseover" end="zoomminus.mouseout"/>
                        </use>
                        <path d="M-4,0h8" fill="none" stroke="white" stroke-width="1.5" pointer-events="none"/>
                </g>
                <g id="dirArrow">
                        <path fill="none" stroke="white" stroke-width="1.5" d="M0,-3.0v7 M-2.5,-0.5L0,-3.0L2.5,-0.5"/>
                </g>
               <g id="resetDef">
                       <use xlink:href="#rim2" fill="#404040">
                               <set attributeName="fill" to="#808080" begin="reset.mouseover" end="reset.mouseout"/>
                       </use>
               </g>
        </defs>

<script type="text/javascript">
var viewWidth = 1238;
var viewHeight = 1118;
var sectionId = 'dynsection-1';
</script>
<script xlink:href="svgpan.js"/>
<svg id="graph" class="graph">
<g id="viewport">
<title>Urho3D::Input</title>
<!-- Node1 -->
<g id="node1" class="node"><title>Node1</title>
<polygon fill="#bfbfbf" stroke="black" points="1139.5,-826.452 1139.5,-847.452 1222.5,-847.452 1222.5,-826.452 1139.5,-826.452"/>
<text text-anchor="middle" x="1181" y="-834.452" font-family="FreeSans" font-size="10.00">Urho3D::Input</text>
</g>
<!-- Node2 -->
<g id="node2" class="node"><title>Node2</title>
<a xlink:href="a00230.html" target="_top" xlink:title="Base class for objects with type identification, subsystem access and event sending/receiving capabil...">
<polygon fill="none" stroke="black" points="340,-872.452 340,-893.452 430,-893.452 430,-872.452 340,-872.452"/>
<text text-anchor="middle" x="385" y="-880.452" font-family="FreeSans" font-size="10.00">Urho3D::Object</text>
</a>
</g>
<!-- Node2&#45;&gt;Node1 -->
<g id="edge2" class="edge"><title>Node2&#45;&gt;Node1</title>
<path fill="none" stroke="midnightblue" d="M397.418,-902.174C407.006,-917.467 420.239,-939.605 430,-959.952 439.675,-980.119 429.57,-994.275 448,-1006.95 467.438,-1020.32 613.008,-1064.06 980,-1001.95 1041.94,-991.469 1065.66,-997.076 1114,-956.952 1150.54,-926.626 1170.76,-870.936 1177.95,-847.64"/>
<polygon fill="midnightblue" stroke="midnightblue" points="400.298,-900.179 391.984,-893.612 394.388,-903.931 400.298,-900.179"/>
</g>
<!-- Node12 -->
<g id="node25" class="node"><title>Node12</title>
<a xlink:href="a00146.html" target="_top" xlink:title="Internal helper class for invoking event handler functions.">
<polygon fill="none" stroke="red" points="556,-825.452 556,-846.452 680,-846.452 680,-825.452 556,-825.452"/>
<text text-anchor="middle" x="618" y="-833.452" font-family="FreeSans" font-size="10.00">Urho3D::EventHandler</text>
</a>
</g>
<!-- Node2&#45;&gt;Node12 -->
<g id="edge30" class="edge"><title>Node2&#45;&gt;Node12</title>
<path fill="none" stroke="#9a32cd" stroke-dasharray="5,2" d="M405.66,-865.908C417.332,-857.335 432.63,-847.764 448,-842.952 482.532,-832.14 522.942,-830.073 555.697,-830.857"/>
<polygon fill="#9a32cd" stroke="#9a32cd" points="403.299,-863.308 397.5,-872.174 407.563,-868.859 403.299,-863.308"/>
<text text-anchor="middle" x="493" y="-859.952" font-family="FreeSans" font-size="10.00"> sender_</text>
<text text-anchor="middle" x="493" y="-846.952" font-family="FreeSans" font-size="10.00">receiver_</text>
</g>
<!-- Node21 -->
<g id="node51" class="node"><title>Node21</title>
<a xlink:href="a00165.html" target="_top" xlink:title="Graphics subsystem. Manages the application window, rendering state and GPU resources.">
<polygon fill="none" stroke="red" points="567.5,-930.452 567.5,-951.452 668.5,-951.452 668.5,-930.452 567.5,-930.452"/>
<text text-anchor="middle" x="618" y="-938.452" font-family="FreeSans" font-size="10.00">Urho3D::Graphics</text>
</a>
</g>
<!-- Node2&#45;&gt;Node21 -->
<g id="edge64" class="edge"><title>Node2&#45;&gt;Node21</title>
<path fill="none" stroke="midnightblue" d="M436.916,-895.875C478.715,-906.28 536.729,-920.721 575.726,-930.429"/>
<polygon fill="midnightblue" stroke="midnightblue" points="437.744,-892.474 427.195,-893.455 436.053,-899.267 437.744,-892.474"/>
</g>
<!-- Node3 -->
<g id="node4" class="node"><title>Node3</title>
<a xlink:href="a00271.html" target="_top" xlink:title="Base class for intrusively reference&#45;counted objects. These are noncopyable and non&#45;assignable.">
<polygon fill="none" stroke="black" points="188,-872.452 188,-893.452 302,-893.452 302,-872.452 188,-872.452"/>
<text text-anchor="middle" x="245" y="-880.452" font-family="FreeSans" font-size="10.00">Urho3D::RefCounted</text>
</a>
</g>
<!-- Node3&#45;&gt;Node2 -->
<g id="edge4" class="edge"><title>Node3&#45;&gt;Node2</title>
<path fill="none" stroke="midnightblue" d="M312.423,-882.952C321.76,-882.952 331.158,-882.952 339.952,-882.952"/>
<polygon fill="midnightblue" stroke="midnightblue" points="312.347,-879.452 302.347,-882.952 312.347,-886.452 312.347,-879.452"/>
</g>
<!-- Node5 -->
<g id="node8" class="node"><title>Node5</title>
<a xlink:href="a00120.html" target="_top" xlink:title="Urho3D execution context. Provides access to subsystems, object factories and attributes, and event receivers.">
<polygon fill="none" stroke="black" points="1132.5,-262.452 1132.5,-283.452 1229.5,-283.452 1229.5,-262.452 1132.5,-262.452"/>
<text text-anchor="middle" x="1181" y="-270.452" font-family="FreeSans" font-size="10.00">Urho3D::Context</text>
</a>
</g>
<!-- Node3&#45;&gt;Node5 -->
<g id="edge10" class="edge"><title>Node3&#45;&gt;Node5</title>
<path fill="none" stroke="midnightblue" d="M246.077,-862.261C253.207,-730.398 296.087,-12.9518 385,-12.9518 385,-12.9518 385,-12.9518 874,-12.9518 981.34,-12.9518 1032,29.3142 1114,-39.9518 1149.37,-69.8289 1173.43,-220.431 1179.5,-262.197"/>
<polygon fill="midnightblue" stroke="midnightblue" points="242.581,-862.094 245.544,-872.266 249.571,-862.466 242.581,-862.094"/>
</g>
<!-- Node4 -->
<g id="node6" class="node"><title>Node4</title>
<a xlink:href="a00270.html" target="_top" xlink:title="Reference count structure.">
<polygon fill="none" stroke="black" points="0,-1025.45 0,-1046.45 102,-1046.45 102,-1025.45 0,-1025.45"/>
<text text-anchor="middle" x="51" y="-1033.45" font-family="FreeSans" font-size="10.00">Urho3D::RefCount</text>
</a>
</g>
<!-- Node4&#45;&gt;Node3 -->
<g id="edge6" class="edge"><title>Node4&#45;&gt;Node3</title>
<path fill="none" stroke="#9a32cd" stroke-dasharray="5,2" d="M72.4162,-1019.06C112.651,-987.33 198.455,-919.66 231.572,-893.542"/>
<polygon fill="#9a32cd" stroke="#9a32cd" points="70.019,-1016.49 64.3344,-1025.44 74.3538,-1021.99 70.019,-1016.49"/>
<text text-anchor="middle" x="145" y="-980.952" font-family="FreeSans" font-size="10.00"> refCount_</text>
</g>
<!-- Node20 -->
<g id="node49" class="node"><title>Node20</title>
<a xlink:href="a00369.html" target="_top" xlink:title="Urho3D::WeakPtr\&lt; Urho3D\l::Graphics \&gt;">
<polygon fill="none" stroke="black" points="801,-958.952 801,-992.952 947,-992.952 947,-958.952 801,-958.952"/>
<text text-anchor="start" x="809" y="-979.952" font-family="FreeSans" font-size="10.00">Urho3D::WeakPtr&lt; Urho3D</text>
<text text-anchor="middle" x="874" y="-966.952" font-family="FreeSans" font-size="10.00">::Graphics &gt;</text>
</a>
</g>
<!-- Node4&#45;&gt;Node20 -->
<g id="edge70" class="edge"><title>Node4&#45;&gt;Node20</title>
<path fill="none" stroke="#9a32cd" stroke-dasharray="5,2" d="M79.9653,-1051.16C117.125,-1069.23 184.069,-1096.95 245,-1096.95 245,-1096.95 245,-1096.95 618,-1096.95 677.881,-1096.95 695.451,-1094.65 750,-1069.95 792.573,-1050.67 834.234,-1014.52 856.774,-993.108"/>
<polygon fill="#9a32cd" stroke="#9a32cd" points="81.255,-1047.9 70.7425,-1046.58 78.1385,-1054.16 81.255,-1047.9"/>
<text text-anchor="middle" x="385" y="-1100.95" font-family="FreeSans" font-size="10.00"> refCount_</text>
</g>
<!-- Node5&#45;&gt;Node2 -->
<g id="edge8" class="edge"><title>Node5&#45;&gt;Node2</title>
<path fill="none" stroke="#9a32cd" stroke-dasharray="5,2" d="M1158.08,-256.324C1145.44,-247.562 1129.25,-236.996 1114,-228.952 976.269,-156.32 913.593,-118.745 768,-173.952 459.934,-290.765 394.545,-792.656 386.048,-872.288"/>
<polygon fill="#9a32cd" stroke="#9a32cd" points="1156.4,-259.425 1166.59,-262.324 1160.44,-253.703 1156.4,-259.425"/>
<text text-anchor="middle" x="724" y="-210.952" font-family="FreeSans" font-size="10.00"> context_</text>
</g>
<!-- Node6 -->
<g id="node11" class="node"><title>Node6</title>
<a xlink:href="a00169.html" target="_top" xlink:title="Urho3D::HashMap\&lt; Urho3D\l::ShortStringHash, Urho3D\l::Vector\&lt; Urho3D::AttributeInfo \&gt; \&gt;">
<polygon fill="none" stroke="black" points="779.5,-315.452 779.5,-362.452 968.5,-362.452 968.5,-315.452 779.5,-315.452"/>
<text text-anchor="start" x="787.5" y="-349.452" font-family="FreeSans" font-size="10.00">Urho3D::HashMap&lt; Urho3D</text>
<text text-anchor="start" x="787.5" y="-336.452" font-family="FreeSans" font-size="10.00">::ShortStringHash, Urho3D</text>
<text text-anchor="middle" x="874" y="-323.452" font-family="FreeSans" font-size="10.00">::Vector&lt; Urho3D::AttributeInfo &gt; &gt;</text>
</a>
</g>
<!-- Node6&#45;&gt;Node5 -->
<g id="edge12" class="edge"><title>Node6&#45;&gt;Node5</title>
<path fill="none" stroke="#9a32cd" stroke-dasharray="5,2" d="M978.547,-318.719C1020.72,-310.269 1069.77,-300.072 1114,-289.952 1122.66,-287.971 1131.91,-285.715 1140.68,-283.508"/>
<polygon fill="#9a32cd" stroke="#9a32cd" points="977.665,-315.326 968.544,-320.717 979.036,-322.191 977.665,-315.326"/>
<text text-anchor="middle" x="1056" y="-329.952" font-family="FreeSans" font-size="10.00"> attributes_</text>
<text text-anchor="middle" x="1056" y="-316.952" font-family="FreeSans" font-size="10.00">networkAttributes_</text>
</g>
<!-- Node7 -->
<g id="node13" class="node"><title>Node7</title>
<a xlink:href="a00167.html" target="_top" xlink:title="Hash set/map base class.">
<polygon fill="none" stroke="red" points="564,-460.452 564,-481.452 672,-481.452 672,-460.452 564,-460.452"/>
<text text-anchor="middle" x="618" y="-468.452" font-family="FreeSans" font-size="10.00">Urho3D::HashBase</text>
</a>
</g>
<!-- Node7&#45;&gt;Node6 -->
<g id="edge14" class="edge"><title>Node7&#45;&gt;Node6</title>
<path fill="none" stroke="midnightblue" d="M639.21,-454.144C667.274,-432.583 718.939,-395.204 768,-371.952 775.141,-368.567 782.713,-365.421 790.396,-362.522"/>
<polygon fill="midnightblue" stroke="midnightblue" points="637.04,-451.397 631.287,-460.294 641.333,-456.927 637.04,-451.397"/>
</g>
<!-- Node10 -->
<g id="node19" class="node"><title>Node10</title>
<a xlink:href="a00169.html" target="_top" xlink:title="Urho3D::HashMap\&lt; Urho3D\l::ShortStringHash, Urho3D\l::SharedPtr\&lt; Urho3D::Object \&gt; \&gt;">
<polygon fill="none" stroke="black" points="785,-249.452 785,-296.452 963,-296.452 963,-249.452 785,-249.452"/>
<text text-anchor="start" x="793" y="-283.452" font-family="FreeSans" font-size="10.00">Urho3D::HashMap&lt; Urho3D</text>
<text text-anchor="start" x="793" y="-270.452" font-family="FreeSans" font-size="10.00">::ShortStringHash, Urho3D</text>
<text text-anchor="middle" x="874" y="-257.452" font-family="FreeSans" font-size="10.00">::SharedPtr&lt; Urho3D::Object &gt; &gt;</text>
</a>
</g>
<!-- Node7&#45;&gt;Node10 -->
<g id="edge22" class="edge"><title>Node7&#45;&gt;Node10</title>
<path fill="none" stroke="midnightblue" d="M630.252,-451.491C653.052,-416.892 705.408,-344.68 768,-305.952 773.655,-302.453 779.71,-299.298 785.956,-296.457"/>
<polygon fill="midnightblue" stroke="midnightblue" points="627.115,-449.896 624.621,-460.193 632.992,-453.699 627.115,-449.896"/>
</g>
<!-- Node11 -->
<g id="node22" class="node"><title>Node11</title>
<a xlink:href="a00169.html" target="_top" xlink:title="Urho3D::HashMap\&lt; Urho3D\l::String, Urho3D::Vector\l\&lt; Urho3D::ShortStringHash \&gt; \&gt;">
<polygon fill="none" stroke="black" points="787.5,-183.452 787.5,-230.452 960.5,-230.452 960.5,-183.452 787.5,-183.452"/>
<text text-anchor="start" x="795.5" y="-217.452" font-family="FreeSans" font-size="10.00">Urho3D::HashMap&lt; Urho3D</text>
<text text-anchor="start" x="795.5" y="-204.452" font-family="FreeSans" font-size="10.00">::String, Urho3D::Vector</text>
<text text-anchor="middle" x="874" y="-191.452" font-family="FreeSans" font-size="10.00">&lt; Urho3D::ShortStringHash &gt; &gt;</text>
</a>
</g>
<!-- Node7&#45;&gt;Node11 -->
<g id="edge26" class="edge"><title>Node7&#45;&gt;Node11</title>
<path fill="none" stroke="midnightblue" d="M624.45,-450.845C640.412,-404.682 686.482,-291.155 768,-239.952 774.039,-236.159 780.546,-232.773 787.261,-229.755"/>
<polygon fill="midnightblue" stroke="midnightblue" points="621.125,-449.751 621.265,-460.344 627.762,-451.975 621.125,-449.751"/>
</g>
<!-- Node13 -->
<g id="node28" class="node"><title>Node13</title>
<a xlink:href="a00169.html" target="_top" xlink:title="Urho3D::HashMap\&lt; Urho3D\l::StringHash, Urho3D::\lHashSet\&lt; Urho3D::Object * \&gt; \&gt;">
<polygon fill="none" stroke="black" points="787.5,-447.452 787.5,-494.452 960.5,-494.452 960.5,-447.452 787.5,-447.452"/>
<text text-anchor="start" x="795.5" y="-481.452" font-family="FreeSans" font-size="10.00">Urho3D::HashMap&lt; Urho3D</text>
<text text-anchor="start" x="795.5" y="-468.452" font-family="FreeSans" font-size="10.00">::StringHash, Urho3D::</text>
<text text-anchor="middle" x="874" y="-455.452" font-family="FreeSans" font-size="10.00">HashSet&lt; Urho3D::Object * &gt; &gt;</text>
</a>
</g>
<!-- Node7&#45;&gt;Node13 -->
<g id="edge34" class="edge"><title>Node7&#45;&gt;Node13</title>
<path fill="none" stroke="midnightblue" d="M682.349,-470.952C714.133,-470.952 752.942,-470.952 787.302,-470.952"/>
<polygon fill="midnightblue" stroke="midnightblue" points="682.291,-467.452 672.291,-470.952 682.291,-474.452 682.291,-467.452"/>
</g>
<!-- Node14 -->
<g id="node31" class="node"><title>Node14</title>
<a xlink:href="a00169.html" target="_top" xlink:title="Urho3D::HashMap\&lt; Urho3D\l::Object *, Urho3D::HashMap\l\&lt; Urho3D::StringHash, Urho3D\l::HashSet\&lt; Urho3D::Object * \&gt; \&gt; \&gt;">
<polygon fill="none" stroke="black" points="778.5,-512.952 778.5,-572.952 969.5,-572.952 969.5,-512.952 778.5,-512.952"/>
<text text-anchor="start" x="786.5" y="-559.952" font-family="FreeSans" font-size="10.00">Urho3D::HashMap&lt; Urho3D</text>
<text text-anchor="start" x="786.5" y="-546.952" font-family="FreeSans" font-size="10.00">::Object *, Urho3D::HashMap</text>
<text text-anchor="start" x="786.5" y="-533.952" font-family="FreeSans" font-size="10.00">&lt; Urho3D::StringHash, Urho3D</text>
<text text-anchor="middle" x="874" y="-520.952" font-family="FreeSans" font-size="10.00">::HashSet&lt; Urho3D::Object * &gt; &gt; &gt;</text>
</a>
</g>
<!-- Node7&#45;&gt;Node14 -->
<g id="edge38" class="edge"><title>Node7&#45;&gt;Node14</title>
<path fill="none" stroke="midnightblue" d="M665.367,-484.274C697.022,-493.177 739.776,-505.201 778.339,-516.047"/>
<polygon fill="midnightblue" stroke="midnightblue" points="666.073,-480.837 655.499,-481.498 664.178,-487.575 666.073,-480.837"/>
</g>
<!-- Node15 -->
<g id="node34" class="node"><title>Node15</title>
<a xlink:href="a00169.html" target="_top" xlink:title="Urho3D::HashMap\&lt; Urho3D\l::ShortStringHash, Urho3D\l::SharedPtr\&lt; Urho3D::ObjectFactory \&gt; \&gt;">
<polygon fill="none" stroke="black" points="768,-381.452 768,-428.452 980,-428.452 980,-381.452 768,-381.452"/>
<text text-anchor="start" x="776" y="-415.452" font-family="FreeSans" font-size="10.00">Urho3D::HashMap&lt; Urho3D</text>
<text text-anchor="start" x="776" y="-402.452" font-family="FreeSans" font-size="10.00">::ShortStringHash, Urho3D</text>
<text text-anchor="middle" x="874" y="-389.452" font-family="FreeSans" font-size="10.00">::SharedPtr&lt; Urho3D::ObjectFactory &gt; &gt;</text>
</a>
</g>
<!-- Node7&#45;&gt;Node15 -->
<g id="edge42" class="edge"><title>Node7&#45;&gt;Node15</title>
<path fill="none" stroke="midnightblue" d="M668.574,-457.913C701.074,-449.534 744.242,-438.405 782.615,-428.512"/>
<polygon fill="midnightblue" stroke="midnightblue" points="667.657,-454.535 658.847,-460.421 669.404,-461.314 667.657,-454.535"/>
</g>
<!-- Node18 -->
<g id="node43" class="node"><title>Node18</title>
<a xlink:href="a00169.html" target="_top" xlink:title="Urho3D::HashMap\&lt; int,\l unsigned \&gt;">
<polygon fill="none" stroke="black" points="808.5,-854.952 808.5,-888.952 939.5,-888.952 939.5,-854.952 808.5,-854.952"/>
<text text-anchor="start" x="816.5" y="-875.952" font-family="FreeSans" font-size="10.00">Urho3D::HashMap&lt; int,</text>
<text text-anchor="middle" x="874" y="-862.952" font-family="FreeSans" font-size="10.00"> unsigned &gt;</text>
</a>
</g>
<!-- Node7&#45;&gt;Node18 -->
<g id="edge54" class="edge"><title>Node7&#45;&gt;Node18</title>
<path fill="none" stroke="midnightblue" d="M619.844,-491.901C626.611,-555.597 655.89,-748.531 768,-845.952 779.299,-855.77 793.719,-862.005 808.257,-865.933"/>
<polygon fill="midnightblue" stroke="midnightblue" points="623.289,-491.174 618.827,-481.564 616.323,-491.859 623.289,-491.174"/>
</g>
<!-- Node19 -->
<g id="node46" class="node"><title>Node19</title>
<a xlink:href="a00171.html" target="_top" xlink:title="Urho3D::HashSet\&lt; int \&gt;">
<polygon fill="none" stroke="black" points="806.5,-695.452 806.5,-716.452 941.5,-716.452 941.5,-695.452 806.5,-695.452"/>
<text text-anchor="middle" x="874" y="-703.452" font-family="FreeSans" font-size="10.00">Urho3D::HashSet&lt; int &gt;</text>
</a>
</g>
<!-- Node7&#45;&gt;Node19 -->
<g id="edge58" class="edge"><title>Node7&#45;&gt;Node19</title>
<path fill="none" stroke="midnightblue" d="M624.623,-491.134C640.698,-536.315 686.563,-644.847 768,-685.952 779.787,-691.901 793.12,-696.09 806.255,-699.038"/>
<polygon fill="midnightblue" stroke="midnightblue" points="627.891,-489.875 621.329,-481.557 621.272,-492.152 627.891,-489.875"/>
</g>
<!-- Node23 -->
<g id="node58" class="node"><title>Node23</title>
<a xlink:href="a00169.html" target="_top" xlink:title="Urho3D::HashMap\&lt; int,\l Urho3D::TouchState \&gt;">
<polygon fill="none" stroke="black" points="808.5,-642.952 808.5,-676.952 939.5,-676.952 939.5,-642.952 808.5,-642.952"/>
<text text-anchor="start" x="816.5" y="-663.952" font-family="FreeSans" font-size="10.00">Urho3D::HashMap&lt; int,</text>
<text text-anchor="middle" x="874" y="-650.952" font-family="FreeSans" font-size="10.00"> Urho3D::TouchState &gt;</text>
</a>
</g>
<!-- Node7&#45;&gt;Node23 -->
<g id="edge74" class="edge"><title>Node7&#45;&gt;Node23</title>
<path fill="none" stroke="midnightblue" d="M627.814,-490.514C641.147,-515.702 666.92,-559.811 698,-589.952 724.38,-615.534 734.166,-619.613 768,-633.952 780.736,-639.349 794.827,-643.782 808.466,-647.363"/>
<polygon fill="midnightblue" stroke="midnightblue" points="630.885,-488.832 623.179,-481.56 624.668,-492.05 630.885,-488.832"/>
</g>
<!-- Node8 -->
<g id="node15" class="node"><title>Node8</title>
<a xlink:href="a00257.html" target="_top" xlink:title="Urho3D::PODVector\&lt;\l Urho3D::Object * \&gt;">
<polygon fill="none" stroke="black" points="814.5,-40.9518 814.5,-74.9518 933.5,-74.9518 933.5,-40.9518 814.5,-40.9518"/>
<text text-anchor="start" x="822.5" y="-61.9518" font-family="FreeSans" font-size="10.00">Urho3D::PODVector&lt;</text>
<text text-anchor="middle" x="874" y="-48.9518" font-family="FreeSans" font-size="10.00"> Urho3D::Object * &gt;</text>
</a>
</g>
<!-- Node8&#45;&gt;Node5 -->
<g id="edge16" class="edge"><title>Node8&#45;&gt;Node5</title>
<path fill="none" stroke="#9a32cd" stroke-dasharray="5,2" d="M943.693,-45.2813C995.926,-39.8641 1066.32,-41.7358 1114,-78.9518 1144.41,-102.685 1171.3,-225.027 1178.88,-262.216"/>
<polygon fill="#9a32cd" stroke="#9a32cd" points="943.035,-41.8338 933.501,-46.4536 943.835,-48.788 943.035,-41.8338"/>
<text text-anchor="middle" x="1056" y="-82.9518" font-family="FreeSans" font-size="10.00"> eventSenders_</text>
</g>
<!-- Node9 -->
<g id="node17" class="node"><title>Node9</title>
<a xlink:href="a00360.html" target="_top" xlink:title="Vector base class.">
<polygon fill="none" stroke="black" points="561,-99.4518 561,-120.452 675,-120.452 675,-99.4518 561,-99.4518"/>
<text text-anchor="middle" x="618" y="-107.452" font-family="FreeSans" font-size="10.00">Urho3D::VectorBase</text>
</a>
</g>
<!-- Node9&#45;&gt;Node8 -->
<g id="edge18" class="edge"><title>Node9&#45;&gt;Node8</title>
<path fill="none" stroke="midnightblue" d="M679.636,-97.4319C720.464,-89.1389 773.743,-78.3165 814.191,-70.1004"/>
<polygon fill="midnightblue" stroke="midnightblue" points="678.909,-94.0082 669.805,-99.4288 680.302,-100.868 678.909,-94.0082"/>
</g>
<!-- Node16 -->
<g id="node37" class="node"><title>Node16</title>
<a xlink:href="a00257.html" target="_top" xlink:title="Urho3D::PODVector\&lt;\l Urho3D::HashMap * \&gt;">
<polygon fill="none" stroke="black" points="810.5,-92.9518 810.5,-126.952 937.5,-126.952 937.5,-92.9518 810.5,-92.9518"/>
<text text-anchor="start" x="818.5" y="-113.952" font-family="FreeSans" font-size="10.00">Urho3D::PODVector&lt;</text>
<text text-anchor="middle" x="874" y="-100.952" font-family="FreeSans" font-size="10.00"> Urho3D::HashMap * &gt;</text>
</a>
</g>
<!-- Node9&#45;&gt;Node16 -->
<g id="edge46" class="edge"><title>Node9&#45;&gt;Node16</title>
<path fill="none" stroke="midnightblue" d="M685.256,-109.952C723.93,-109.952 772.237,-109.952 810.298,-109.952"/>
<polygon fill="midnightblue" stroke="midnightblue" points="685.133,-106.452 675.133,-109.952 685.133,-113.452 685.133,-106.452"/>
</g>
<!-- Node25 -->
<g id="node65" class="node"><title>Node25</title>
<a xlink:href="a00356.html" target="_top" xlink:title="Urho3D::Vector\&lt; Urho3D\l::JoystickState \&gt;">
<polygon fill="none" stroke="black" points="805,-590.952 805,-624.952 943,-624.952 943,-590.952 805,-590.952"/>
<text text-anchor="start" x="813" y="-611.952" font-family="FreeSans" font-size="10.00">Urho3D::Vector&lt; Urho3D</text>
<text text-anchor="middle" x="874" y="-598.952" font-family="FreeSans" font-size="10.00">::JoystickState &gt;</text>
</a>
</g>
<!-- Node9&#45;&gt;Node25 -->
<g id="edge84" class="edge"><title>Node9&#45;&gt;Node25</title>
<path fill="none" stroke="midnightblue" d="M621.785,-130.537C637.319,-212.866 698.647,-517.107 768,-581.952 778.242,-591.528 791.42,-597.741 804.981,-601.734"/>
<polygon fill="midnightblue" stroke="midnightblue" points="625.212,-129.824 619.937,-120.636 618.331,-131.109 625.212,-129.824"/>
</g>
<!-- Node10&#45;&gt;Node5 -->
<g id="edge20" class="edge"><title>Node10&#45;&gt;Node5</title>
<path fill="none" stroke="#9a32cd" stroke-dasharray="5,2" d="M973.35,-272.952C1026.48,-272.952 1089.54,-272.952 1132.11,-272.952"/>
<polygon fill="#9a32cd" stroke="#9a32cd" points="973.21,-269.452 963.21,-272.952 973.209,-276.452 973.21,-269.452"/>
<text text-anchor="middle" x="1056" y="-276.952" font-family="FreeSans" font-size="10.00"> subsystems_</text>
</g>
<!-- Node11&#45;&gt;Node5 -->
<g id="edge24" class="edge"><title>Node11&#45;&gt;Node5</title>
<path fill="none" stroke="#9a32cd" stroke-dasharray="5,2" d="M970.665,-225.609C1014.52,-234.35 1066.98,-245.194 1114,-255.952 1122.66,-257.933 1131.91,-260.189 1140.68,-262.395"/>
<polygon fill="#9a32cd" stroke="#9a32cd" points="971.07,-222.121 960.58,-223.606 969.706,-228.987 971.07,-222.121"/>
<text text-anchor="middle" x="1056" y="-259.952" font-family="FreeSans" font-size="10.00"> objectCategories_</text>
</g>
<!-- Node12&#45;&gt;Node5 -->
<g id="edge28" class="edge"><title>Node12&#45;&gt;Node5</title>
<path fill="none" stroke="#9a32cd" stroke-dasharray="5,2" d="M642.836,-819.878C671.642,-802.165 721.184,-774.523 768,-761.952 805.211,-751.96 1085.73,-765.135 1114,-738.952 1148.78,-706.736 1175.55,-350.191 1180.26,-283.622"/>
<polygon fill="#9a32cd" stroke="#9a32cd" points="640.867,-816.981 634.241,-825.248 644.577,-822.917 640.867,-816.981"/>
<text text-anchor="middle" x="874" y="-765.952" font-family="FreeSans" font-size="10.00"> eventHandler_</text>
</g>
<!-- Node17 -->
<g id="node40" class="node"><title>Node17</title>
<a xlink:href="a00191.html" target="_top" xlink:title="Urho3D::LinkedList\l\&lt; Urho3D::EventHandler \&gt;">
<polygon fill="none" stroke="black" points="801,-906.952 801,-940.952 947,-940.952 947,-906.952 801,-906.952"/>
<text text-anchor="start" x="809" y="-927.952" font-family="FreeSans" font-size="10.00">Urho3D::LinkedList</text>
<text text-anchor="middle" x="874" y="-914.952" font-family="FreeSans" font-size="10.00">&lt; Urho3D::EventHandler &gt;</text>
</a>
</g>
<!-- Node12&#45;&gt;Node17 -->
<g id="edge50" class="edge"><title>Node12&#45;&gt;Node17</title>
<path fill="none" stroke="#9a32cd" stroke-dasharray="5,2" d="M690.371,-834.005C711.36,-836.664 733.139,-842.916 750,-855.952 766.067,-868.374 752.509,-884.819 768,-897.952 777.467,-905.978 789.028,-911.599 800.993,-915.52"/>
<polygon fill="#9a32cd" stroke="#9a32cd" points="690.457,-830.496 680.156,-832.974 689.754,-837.461 690.457,-830.496"/>
<text text-anchor="middle" x="724" y="-859.952" font-family="FreeSans" font-size="10.00"> head_</text>
</g>
<!-- Node13&#45;&gt;Node5 -->
<g id="edge32" class="edge"><title>Node13&#45;&gt;Node5</title>
<path fill="none" stroke="#9a32cd" stroke-dasharray="5,2" d="M970.634,-461.217C1018.09,-452.246 1073.59,-435.02 1114,-401.952 1153.25,-369.826 1172.17,-308.623 1178.49,-283.808"/>
<polygon fill="#9a32cd" stroke="#9a32cd" points="969.864,-457.799 960.638,-463.008 971.099,-464.689 969.864,-457.799"/>
<text text-anchor="middle" x="1056" y="-458.952" font-family="FreeSans" font-size="10.00"> eventReceivers_</text>
</g>
<!-- Node14&#45;&gt;Node5 -->
<g id="edge36" class="edge"><title>Node14&#45;&gt;Node5</title>
<path fill="none" stroke="#9a32cd" stroke-dasharray="5,2" d="M979.683,-533.574C1026.09,-524.418 1078.07,-506.571 1114,-471.952 1142.48,-444.508 1170.82,-320.604 1178.79,-283.489"/>
<polygon fill="#9a32cd" stroke="#9a32cd" points="978.759,-530.186 969.566,-535.453 980.037,-537.068 978.759,-530.186"/>
<text text-anchor="middle" x="1056" y="-531.952" font-family="FreeSans" font-size="10.00"> specificEventReceivers_</text>
</g>
<!-- Node15&#45;&gt;Node5 -->
<g id="edge40" class="edge"><title>Node15&#45;&gt;Node5</title>
<path fill="none" stroke="#9a32cd" stroke-dasharray="5,2" d="M989.99,-388.495C1031.1,-379.253 1076.45,-364.957 1114,-342.952 1140.27,-327.558 1162.89,-298.939 1173.88,-283.492"/>
<polygon fill="#9a32cd" stroke="#9a32cd" points="989.22,-385.081 980.19,-390.622 990.705,-391.921 989.22,-385.081"/>
<text text-anchor="middle" x="1056" y="-388.952" font-family="FreeSans" font-size="10.00"> factories_</text>
</g>
<!-- Node16&#45;&gt;Node5 -->
<g id="edge44" class="edge"><title>Node16&#45;&gt;Node5</title>
<path fill="none" stroke="#9a32cd" stroke-dasharray="5,2" d="M947.652,-97.1464C998.737,-92.358 1065.96,-94.6318 1114,-127.952 1160.94,-160.509 1175.72,-234.56 1179.7,-262.244"/>
<polygon fill="#9a32cd" stroke="#9a32cd" points="947.243,-93.6701 937.661,-98.1912 947.971,-100.632 947.243,-93.6701"/>
<text text-anchor="middle" x="1056" y="-131.952" font-family="FreeSans" font-size="10.00"> eventDataMaps_</text>
</g>
<!-- Node17&#45;&gt;Node2 -->
<g id="edge48" class="edge"><title>Node17&#45;&gt;Node2</title>
<path fill="none" stroke="#9a32cd" stroke-dasharray="5,2" d="M790.495,-916.95C686.348,-908.218 512.044,-893.604 430.127,-886.735"/>
<polygon fill="#9a32cd" stroke="#9a32cd" points="790.402,-920.455 800.66,-917.803 790.987,-913.479 790.402,-920.455"/>
<text text-anchor="middle" x="618" y="-910.952" font-family="FreeSans" font-size="10.00"> eventHandlers_</text>
</g>
<!-- Node18&#45;&gt;Node1 -->
<g id="edge52" class="edge"><title>Node18&#45;&gt;Node1</title>
<path fill="none" stroke="#9a32cd" stroke-dasharray="5,2" d="M950.008,-863.286C1009.77,-856.473 1090.78,-847.237 1139.28,-841.708"/>
<polygon fill="#9a32cd" stroke="#9a32cd" points="949.398,-859.833 939.859,-864.443 950.191,-866.788 949.398,-859.833"/>
<text text-anchor="middle" x="1056" y="-860.952" font-family="FreeSans" font-size="10.00"> joystickIDMap_</text>
</g>
<!-- Node19&#45;&gt;Node1 -->
<g id="edge56" class="edge"><title>Node19&#45;&gt;Node1</title>
<path fill="none" stroke="#9a32cd" stroke-dasharray="5,2" d="M951.714,-703.389C1001.46,-705.17 1065.52,-714.109 1114,-743.952 1146.54,-763.979 1167.96,-806.278 1176.63,-826.176"/>
<polygon fill="#9a32cd" stroke="#9a32cd" points="951.737,-699.888 941.646,-703.118 951.549,-706.886 951.737,-699.888"/>
<text text-anchor="middle" x="1056" y="-786.952" font-family="FreeSans" font-size="10.00"> scancodePress_</text>
<text text-anchor="middle" x="1056" y="-773.952" font-family="FreeSans" font-size="10.00">scancodeDown_</text>
<text text-anchor="middle" x="1056" y="-760.952" font-family="FreeSans" font-size="10.00">keyPress_</text>
<text text-anchor="middle" x="1056" y="-747.952" font-family="FreeSans" font-size="10.00">keyDown_</text>
</g>
<!-- Node20&#45;&gt;Node1 -->
<g id="edge60" class="edge"><title>Node20&#45;&gt;Node1</title>
<path fill="none" stroke="#9a32cd" stroke-dasharray="5,2" d="M956.892,-957.944C964.793,-955.535 972.608,-952.873 980,-949.952 1053.34,-920.968 1132.84,-869.676 1165.58,-847.573"/>
<polygon fill="#9a32cd" stroke="#9a32cd" points="955.855,-954.6 947.234,-960.758 957.813,-961.321 955.855,-954.6"/>
<text text-anchor="middle" x="1056" y="-943.952" font-family="FreeSans" font-size="10.00"> graphics_</text>
</g>
<!-- Node21&#45;&gt;Node20 -->
<g id="edge62" class="edge"><title>Node21&#45;&gt;Node20</title>
<path fill="none" stroke="#9a32cd" stroke-dasharray="5,2" d="M678.611,-949.238C715.204,-954.241 762.077,-960.65 800.74,-965.936"/>
<polygon fill="#9a32cd" stroke="#9a32cd" points="678.959,-945.754 668.577,-947.867 678.011,-952.689 678.959,-945.754"/>
<text text-anchor="middle" x="724" y="-961.952" font-family="FreeSans" font-size="10.00"> ptr_</text>
</g>
<!-- Node22 -->
<g id="node54" class="node"><title>Node22</title>
<a xlink:href="a00330.html" target="_top" xlink:title="String class.">
<polygon fill="none" stroke="black" points="341,-969.452 341,-990.452 429,-990.452 429,-969.452 341,-969.452"/>
<text text-anchor="middle" x="385" y="-977.452" font-family="FreeSans" font-size="10.00">Urho3D::String</text>
</a>
</g>
<!-- Node22&#45;&gt;Node1 -->
<g id="edge76" class="edge"><title>Node22&#45;&gt;Node1</title>
<path fill="none" stroke="#9a32cd" stroke-dasharray="5,2" d="M401.825,-997.971C413.605,-1009.39 430.343,-1023.39 448,-1030.95 492.491,-1050.01 507.699,-1041.83 556,-1044.95 744.187,-1057.1 793.871,-1059.25 980,-1028.95 1040.98,-1019.03 1067.39,-1032.51 1114,-991.952 1159.56,-952.308 1175.18,-876.1 1179.54,-847.844"/>
<polygon fill="#9a32cd" stroke="#9a32cd" points="404.035,-995.23 394.511,-990.588 399.062,-1000.16 404.035,-995.23"/>
<text text-anchor="middle" x="724" y="-1056.95" font-family="FreeSans" font-size="10.00"> textInput_</text>
</g>
<!-- Node22&#45;&gt;Node21 -->
<g id="edge66" class="edge"><title>Node22&#45;&gt;Node21</title>
<path fill="none" stroke="#9a32cd" stroke-dasharray="5,2" d="M439.124,-970.892C477.746,-964.428 529.339,-955.792 567.19,-949.456"/>
<polygon fill="#9a32cd" stroke="#9a32cd" points="438.384,-967.467 429.099,-972.57 439.54,-974.371 438.384,-967.467"/>
<text text-anchor="middle" x="493" y="-1023.95" font-family="FreeSans" font-size="10.00"> lastShaderName_</text>
<text text-anchor="middle" x="493" y="-1010.95" font-family="FreeSans" font-size="10.00">windowTitle_</text>
<text text-anchor="middle" x="493" y="-997.952" font-family="FreeSans" font-size="10.00">shaderPath_</text>
<text text-anchor="middle" x="493" y="-984.952" font-family="FreeSans" font-size="10.00">orientations_</text>
<text text-anchor="middle" x="493" y="-971.952" font-family="FreeSans" font-size="10.00">shaderExtension_</text>
</g>
<!-- Node22&#45;&gt;Node22 -->
<g id="edge68" class="edge"><title>Node22&#45;&gt;Node22</title>
<path fill="none" stroke="#9a32cd" stroke-dasharray="5,2" d="M373.279,-1000.75C374.314,-1005.48 378.221,-1008.95 385,-1008.95 396.125,-1008.95 399.515,-999.605 395.169,-990.66"/>
<polygon fill="#9a32cd" stroke="#9a32cd" points="376.77,-1001.08 374.831,-990.66 369.851,-1000.01 376.77,-1001.08"/>
<text text-anchor="middle" x="385" y="-1012.95" font-family="FreeSans" font-size="10.00"> EMPTY</text>
</g>
<!-- Node23&#45;&gt;Node1 -->
<g id="edge72" class="edge"><title>Node23&#45;&gt;Node1</title>
<path fill="none" stroke="#9a32cd" stroke-dasharray="5,2" d="M949.632,-651.345C1000.72,-649.555 1067.13,-655.509 1114,-689.952 1160.56,-724.165 1175.57,-798.502 1179.66,-826.235"/>
<polygon fill="#9a32cd" stroke="#9a32cd" points="949.46,-647.849 939.63,-651.8 949.778,-654.842 949.46,-647.849"/>
<text text-anchor="middle" x="1056" y="-693.952" font-family="FreeSans" font-size="10.00"> touches_</text>
</g>
<!-- Node24 -->
<g id="node62" class="node"><title>Node24</title>
<a xlink:href="a00181.html" target="_top" xlink:title="Two&#45;dimensional vector with integer values.">
<polygon fill="none" stroke="black" points="820,-784.452 820,-805.452 928,-805.452 928,-784.452 820,-784.452"/>
<text text-anchor="middle" x="874" y="-792.452" font-family="FreeSans" font-size="10.00">Urho3D::IntVector2</text>
</a>
</g>
<!-- Node24&#45;&gt;Node1 -->
<g id="edge78" class="edge"><title>Node24&#45;&gt;Node1</title>
<path fill="none" stroke="#9a32cd" stroke-dasharray="5,2" d="M938.44,-796.239C987.093,-798.194 1055.28,-803.036 1114,-814.952 1127.32,-817.654 1141.68,-822.149 1153.68,-826.374"/>
<polygon fill="#9a32cd" stroke="#9a32cd" points="938.488,-792.739 928.365,-795.865 938.228,-799.734 938.488,-792.739"/>
<text text-anchor="middle" x="1056" y="-831.952" font-family="FreeSans" font-size="10.00"> mouseMove_</text>
<text text-anchor="middle" x="1056" y="-818.952" font-family="FreeSans" font-size="10.00">lastMousePosition_</text>
</g>
<!-- Node24&#45;&gt;Node24 -->
<g id="edge80" class="edge"><title>Node24&#45;&gt;Node24</title>
<path fill="none" stroke="#9a32cd" stroke-dasharray="5,2" d="M846.21,-815.007C848.033,-820.116 857.296,-823.952 874,-823.952 900.074,-823.952 908.019,-814.605 897.833,-805.66"/>
<polygon fill="#9a32cd" stroke="#9a32cd" points="849.492,-816.233 850.167,-805.66 843.045,-813.504 849.492,-816.233"/>
<text text-anchor="middle" x="874" y="-827.952" font-family="FreeSans" font-size="10.00"> ZERO</text>
</g>
<!-- Node25&#45;&gt;Node1 -->
<g id="edge82" class="edge"><title>Node25&#45;&gt;Node1</title>
<path fill="none" stroke="#9a32cd" stroke-dasharray="5,2" d="M953.108,-596.54C1004.35,-593.631 1069.57,-598.931 1114,-634.952 1145.21,-660.257 1171.75,-788.374 1179.03,-826.337"/>
<polygon fill="#9a32cd" stroke="#9a32cd" points="952.796,-593.054 943.057,-597.225 953.271,-600.037 952.796,-593.054"/>
<text text-anchor="middle" x="1056" y="-638.952" font-family="FreeSans" font-size="10.00"> joysticks_</text>
</g>
</g>
</svg>
        <g id="navigator" transform="translate(0 0)" fill="#404254">
                <rect fill="#f2f5e9" fill-opacity="0.5" stroke="#606060" stroke-width=".5" x="0" y="0" width="60" height="60"/>
                <use id="zoomplus" xlink:href="#zoomPlus" x="17" y="9" onmousedown="handleZoom(evt,'in')"/>
                <use id="zoomminus" xlink:href="#zoomMin" x="42" y="9" onmousedown="handleZoom(evt,'out')"/>
                <use id="reset" xlink:href="#resetDef" x="30" y="36" onmousedown="handleReset()"/>
                <g id="arrowUp" xlink:href="#dirArrow" transform="translate(30 24)" onmousedown="handlePan(0,-1)">
                  <use xlink:href="#rim" fill="#404040">
                        <set attributeName="fill" to="#808080" begin="arrowUp.mouseover" end="arrowUp.mouseout"/>
                  </use>
                  <path fill="none" stroke="white" stroke-width="1.5" d="M0,-3.0v7 M-2.5,-0.5L0,-3.0L2.5,-0.5"/>
                </g>
                <g id="arrowRight" xlink:href="#dirArrow" transform="rotate(90) translate(36 -43)" onmousedown="handlePan(1,0)">
                  <use xlink:href="#rim" fill="#404040">
                        <set attributeName="fill" to="#808080" begin="arrowRight.mouseover" end="arrowRight.mouseout"/>
                  </use>
                  <path fill="none" stroke="white" stroke-width="1.5" d="M0,-3.0v7 M-2.5,-0.5L0,-3.0L2.5,-0.5"/>
                </g>
                <g id="arrowDown" xlink:href="#dirArrow" transform="rotate(180) translate(-30 -48)" onmousedown="handlePan(0,1)">
                  <use xlink:href="#rim" fill="#404040">
                        <set attributeName="fill" to="#808080" begin="arrowDown.mouseover" end="arrowDown.mouseout"/>
                  </use>
                  <path fill="none" stroke="white" stroke-width="1.5" d="M0,-3.0v7 M-2.5,-0.5L0,-3.0L2.5,-0.5"/>
                </g>
                <g id="arrowLeft" xlink:href="#dirArrow" transform="rotate(270) translate(-36 17)" onmousedown="handlePan(-1,0)">
                  <use xlink:href="#rim" fill="#404040">
                        <set attributeName="fill" to="#808080" begin="arrowLeft.mouseover" end="arrowLeft.mouseout"/>
                  </use>
                  <path fill="none" stroke="white" stroke-width="1.5" d="M0,-3.0v7 M-2.5,-0.5L0,-3.0L2.5,-0.5"/>
                </g>
        </g>
        <svg viewBox="0 0 15 15" width="100%" height="30px" preserveAspectRatio="xMaxYMin meet">
         <g id="arrow_out" transform="scale(0.3 0.3)">
          <a xlink:href="a01272_org.svg" target="_base">
           <rect id="button" ry="5" rx="5" y="6" x="6" height="38" width="38"
                fill="#f2f5e9" fill-opacity="0.5" stroke="#606060" stroke-width="1.0"/>
           <path id="arrow"
             d="M 11.500037,31.436501 C 11.940474,20.09759 22.043105,11.32322 32.158766,21.979434 L 37.068811,17.246167 C 37.068811,17.246167 37.088388,32 37.088388,32 L 22.160133,31.978069 C 22.160133,31.978069 26.997745,27.140456 26.997745,27.140456 C 18.528582,18.264221 13.291696,25.230495 11.500037,31.436501 z"
             style="fill:#404040;"/>
          </a>
         </g>
        </svg>
</svg>
