<?xml version="1.0" encoding="UTF-8" standalone="no"?>
<!DOCTYPE svg PUBLIC "-//W3C//DTD SVG 1.1//EN"
 "http://www.w3.org/Graphics/SVG/1.1/DTD/svg11.dtd">
<!-- Generated by graphviz version 2.26.3 (20100126.1600)
 -->
<!-- Title: Urho3D::Bone Pages: 1 -->
<!--zoomable 944 -->
<svg id="main" version="1.1" xmlns="http://www.w3.org/2000/svg" xmlns:xlink="http://www.w3.org/1999/xlink" xml:space="preserve" onload="init(evt)">
        <defs>
                <circle id="rim" cx="0" cy="0" r="7"/>
                <circle id="rim2" cx="0" cy="0" r="3.5"/>
                <g id="zoomPlus">
                        <use xlink:href="#rim" fill="#404040">
                                <set attributeName="fill" to="#808080" begin="zoomplus.mouseover" end="zoomplus.mouseout"/>
                        </use>
                        <path d="M-4,0h8M0,-4v8" fill="none" stroke="white" stroke-width="1.5" pointer-events="none"/>
                </g>
                <g id="zoomMin">
                        <use xlink:href="#rim" fill="#404040">
                                <set attributeName="fill" to="#808080" begin="zoomminus.mouseover" end="zoomminus.mouseout"/>
                        </use>
                        <path d="M-4,0h8" fill="none" stroke="white" stroke-width="1.5" pointer-events="none"/>
                </g>
                <g id="dirArrow">
                        <path fill="none" stroke="white" stroke-width="1.5" d="M0,-3.0v7 M-2.5,-0.5L0,-3.0L2.5,-0.5"/>
                </g>
               <g id="resetDef">
                       <use xlink:href="#rim2" fill="#404040">
                               <set attributeName="fill" to="#808080" begin="reset.mouseover" end="reset.mouseout"/>
                       </use>
               </g>
        </defs>

<script type="text/javascript">
var viewWidth = 1316;
var viewHeight = 944;
var sectionId = 'dynsection-0';
</script>
<script xlink:href="svgpan.js"/>
<svg id="graph" class="graph">
<g id="viewport">
<title>Urho3D::Bone</title>
<!-- Node1 -->
<g id="node1" class="node"><title>Node1</title>
<polygon fill="#bfbfbf" stroke="black" points="1224,-752.5 1224,-773.5 1308,-773.5 1308,-752.5 1224,-752.5"/>
<text text-anchor="middle" x="1266" y="-760.5" font-family="FreeSans" font-size="10.00">Urho3D::Bone</text>
</g>
<!-- Node2 -->
<g id="node2" class="node"><title>Node2</title>
<a xlink:href="a00267.html" target="_top" xlink:title="Rotation represented as a four&#45;dimensional normalized vector.">
<polygon fill="none" stroke="black" points="451.5,-619.5 451.5,-640.5 564.5,-640.5 564.5,-619.5 451.5,-619.5"/>
<text text-anchor="middle" x="508" y="-627.5" font-family="FreeSans" font-size="10.00">Urho3D::Quaternion</text>
</a>
</g>
<!-- Node2&#45;&gt;Node1 -->
<g id="edge2" class="edge"><title>Node2&#45;&gt;Node1</title>
<path fill="none" stroke="#9a32cd" stroke-dasharray="5,2" d="M574.788,-633.66C623.652,-637.121 691.367,-643.55 750,-655 817.228,-668.128 846.891,-652.395 898,-698 913.458,-711.794 899.121,-728.986 916,-741 964.301,-775.378 1141.67,-770.182 1223.78,-765.728"/>
<polygon fill="#9a32cd" stroke="#9a32cd" points="574.873,-630.158 564.657,-632.966 574.395,-637.141 574.873,-630.158"/>
<text text-anchor="middle" x="953" y="-766" font-family="FreeSans" font-size="10.00"> initialRotation_</text>
</g>
<!-- Node2&#45;&gt;Node2 -->
<g id="edge4" class="edge"><title>Node2&#45;&gt;Node2</title>
<path fill="none" stroke="#9a32cd" stroke-dasharray="5,2" d="M474.508,-649.679C476.302,-654.975 487.467,-659 508,-659 539.289,-659 548.822,-649.653 536.6,-640.708"/>
<polygon fill="#9a32cd" stroke="#9a32cd" points="477.685,-651.163 479.4,-640.708 471.539,-647.812 477.685,-651.163"/>
<text text-anchor="middle" x="508" y="-663" font-family="FreeSans" font-size="10.00"> IDENTITY</text>
</g>
<!-- Node5 -->
<g id="node10" class="node"><title>Node5</title>
<a xlink:href="a00229.html" target="_top" xlink:title="Scene node that may contain components and child nodes.">
<polygon fill="none" stroke="black" points="790.5,-393.5 790.5,-414.5 875.5,-414.5 875.5,-393.5 790.5,-393.5"/>
<text text-anchor="middle" x="833" y="-401.5" font-family="FreeSans" font-size="10.00">Urho3D::Node</text>
</a>
</g>
<!-- Node2&#45;&gt;Node5 -->
<g id="edge40" class="edge"><title>Node2&#45;&gt;Node5</title>
<path fill="none" stroke="#9a32cd" stroke-dasharray="5,2" d="M560.361,-617.07C586.383,-610.699 614.994,-603.796 628,-601 681.945,-589.404 711.792,-617.808 750,-578 788.257,-538.14 740.289,-502.797 768,-455 778.288,-437.255 797.364,-423.421 812.2,-414.666"/>
<polygon fill="#9a32cd" stroke="#9a32cd" points="559.431,-613.694 550.552,-619.475 561.098,-620.492 559.431,-613.694"/>
<text text-anchor="middle" x="689" y="-618" font-family="FreeSans" font-size="10.00"> worldRotation_</text>
<text text-anchor="middle" x="689" y="-605" font-family="FreeSans" font-size="10.00">rotation_</text>
</g>
<!-- Node3 -->
<g id="node5" class="node"><title>Node3</title>
<a xlink:href="a00363.html" target="_top" xlink:title="Three&#45;dimensional vector.">
<polygon fill="none" stroke="black" points="64,-785.5 64,-806.5 160,-806.5 160,-785.5 64,-785.5"/>
<text text-anchor="middle" x="112" y="-793.5" font-family="FreeSans" font-size="10.00">Urho3D::Vector3</text>
</a>
</g>
<!-- Node3&#45;&gt;Node1 -->
<g id="edge6" class="edge"><title>Node3&#45;&gt;Node1</title>
<path fill="none" stroke="#9a32cd" stroke-dasharray="5,2" d="M170.18,-808.237C247.118,-823.326 387.097,-847 508,-847 508,-847 508,-847 1081,-847 1151.19,-847 1224.05,-796.242 1253.01,-773.639"/>
<polygon fill="#9a32cd" stroke="#9a32cd" points="170.696,-804.771 160.206,-806.259 169.334,-811.637 170.696,-804.771"/>
<text text-anchor="middle" x="833" y="-864" font-family="FreeSans" font-size="10.00"> initialScale_</text>
<text text-anchor="middle" x="833" y="-851" font-family="FreeSans" font-size="10.00">initialPosition_</text>
</g>
<!-- Node3&#45;&gt;Node3 -->
<g id="edge8" class="edge"><title>Node3&#45;&gt;Node3</title>
<path fill="none" stroke="#9a32cd" stroke-dasharray="5,2" d="M74.2884,-815.299C75.8377,-820.781 88.4083,-825 112,-825 147.113,-825 157.812,-815.653 144.096,-806.708"/>
<polygon fill="#9a32cd" stroke="#9a32cd" points="77.3621,-816.993 79.9043,-806.708 71.5029,-813.163 77.3621,-816.993"/>
<text text-anchor="middle" x="112" y="-920" font-family="FreeSans" font-size="10.00"> ONE</text>
<text text-anchor="middle" x="112" y="-907" font-family="FreeSans" font-size="10.00">DOWN</text>
<text text-anchor="middle" x="112" y="-894" font-family="FreeSans" font-size="10.00">BACK</text>
<text text-anchor="middle" x="112" y="-881" font-family="FreeSans" font-size="10.00">RIGHT</text>
<text text-anchor="middle" x="112" y="-868" font-family="FreeSans" font-size="10.00">LEFT</text>
<text text-anchor="middle" x="112" y="-855" font-family="FreeSans" font-size="10.00">ZERO</text>
<text text-anchor="middle" x="112" y="-842" font-family="FreeSans" font-size="10.00">FORWARD</text>
<text text-anchor="middle" x="112" y="-829" font-family="FreeSans" font-size="10.00">UP</text>
</g>
<!-- Node3&#45;&gt;Node5 -->
<g id="edge52" class="edge"><title>Node3&#45;&gt;Node5</title>
<path fill="none" stroke="#9a32cd" stroke-dasharray="5,2" d="M129.76,-778.346C172.847,-736.688 288.089,-632.161 406,-584 490.899,-549.323 522.429,-580.231 610,-553 676.054,-532.46 698.977,-531.708 750,-485 761.469,-474.501 757.712,-466.66 768,-455 782.33,-438.759 802.369,-423.934 816.398,-414.504"/>
<polygon fill="#9a32cd" stroke="#9a32cd" points="127.281,-775.875 122.57,-785.365 132.17,-780.884 127.281,-775.875"/>
<text text-anchor="middle" x="508" y="-601" font-family="FreeSans" font-size="10.00"> scale_</text>
<text text-anchor="middle" x="508" y="-588" font-family="FreeSans" font-size="10.00">position_</text>
</g>
<!-- Node22 -->
<g id="node55" class="node"><title>Node22</title>
<a xlink:href="a00106.html" target="_top" xlink:title="Connection to a remote network host.">
<polygon fill="none" stroke="red" points="451.5,-419.5 451.5,-440.5 564.5,-440.5 564.5,-419.5 451.5,-419.5"/>
<text text-anchor="middle" x="508" y="-427.5" font-family="FreeSans" font-size="10.00">Urho3D::Connection</text>
</a>
</g>
<!-- Node3&#45;&gt;Node22 -->
<g id="edge72" class="edge"><title>Node3&#45;&gt;Node22</title>
<path fill="none" stroke="#9a32cd" stroke-dasharray="5,2" d="M133.866,-779.176C159.828,-757.906 202.332,-718.745 224,-675 244.627,-633.357 211.6,-607.149 242,-572 286.684,-520.337 341.232,-573.784 388,-524 409.7,-500.901 383.424,-477.244 406,-455 418.078,-443.099 434.842,-436.546 451.293,-433.025"/>
<polygon fill="#9a32cd" stroke="#9a32cd" points="131.673,-776.447 126.065,-785.436 136.055,-781.907 131.673,-776.447"/>
<text text-anchor="middle" x="315" y="-576" font-family="FreeSans" font-size="10.00"> position_</text>
</g>
<!-- Node25 -->
<g id="node66" class="node"><title>Node25</title>
<a xlink:href="a00084.html" target="_top" xlink:title="Three&#45;dimensional axis&#45;aligned bounding box.">
<polygon fill="none" stroke="black" points="628,-882.5 628,-903.5 750,-903.5 750,-882.5 628,-882.5"/>
<text text-anchor="middle" x="689" y="-890.5" font-family="FreeSans" font-size="10.00">Urho3D::BoundingBox</text>
</a>
</g>
<!-- Node3&#45;&gt;Node25 -->
<g id="edge86" class="edge"><title>Node3&#45;&gt;Node25</title>
<path fill="none" stroke="#9a32cd" stroke-dasharray="5,2" d="M136.558,-811.972C161.856,-827.515 202.987,-850.305 242,-861 375.937,-897.716 540.417,-898.788 627.729,-896.072"/>
<polygon fill="#9a32cd" stroke="#9a32cd" points="138.322,-808.947 127.988,-806.61 134.608,-814.881 138.322,-808.947"/>
<text text-anchor="middle" x="315" y="-903" font-family="FreeSans" font-size="10.00"> max_</text>
<text text-anchor="middle" x="315" y="-890" font-family="FreeSans" font-size="10.00">min_</text>
</g>
<!-- Node4 -->
<g id="node8" class="node"><title>Node4</title>
<a xlink:href="a00374.html" target="_top" xlink:title="Urho3D::WeakPtr\&lt; Urho3D\l::Node \&gt;">
<polygon fill="none" stroke="black" points="1008,-701 1008,-735 1154,-735 1154,-701 1008,-701"/>
<text text-anchor="start" x="1016" y="-722" font-family="FreeSans" font-size="10.00">Urho3D::WeakPtr&lt; Urho3D</text>
<text text-anchor="middle" x="1081" y="-709" font-family="FreeSans" font-size="10.00">::Node &gt;</text>
</a>
</g>
<!-- Node4&#45;&gt;Node1 -->
<g id="edge10" class="edge"><title>Node4&#45;&gt;Node1</title>
<path fill="none" stroke="#9a32cd" stroke-dasharray="5,2" d="M1164.29,-726.672C1178.35,-729.079 1192.7,-732.133 1206,-736 1219.93,-740.05 1234.81,-746.727 1246.26,-752.427"/>
<polygon fill="#9a32cd" stroke="#9a32cd" points="1164.54,-723.168 1154.11,-725.031 1163.43,-730.078 1164.54,-723.168"/>
<text text-anchor="middle" x="1189" y="-740" font-family="FreeSans" font-size="10.00"> node_</text>
</g>
<!-- Node5&#45;&gt;Node4 -->
<g id="edge12" class="edge"><title>Node5&#45;&gt;Node4</title>
<path fill="none" stroke="#9a32cd" stroke-dasharray="5,2" d="M857.439,-420.493C870.283,-429.798 885.838,-442.12 898,-455 908.263,-465.87 1030.36,-643.985 1069.21,-700.759"/>
<polygon fill="#9a32cd" stroke="#9a32cd" points="859.241,-417.48 849.056,-414.563 855.199,-423.195 859.241,-417.48"/>
<text text-anchor="middle" x="953" y="-587" font-family="FreeSans" font-size="10.00"> ptr_</text>
</g>
<!-- Node5&#45;&gt;Node5 -->
<g id="edge56" class="edge"><title>Node5&#45;&gt;Node5</title>
<path fill="none" stroke="#9a32cd" stroke-dasharray="5,2" d="M810.885,-424.427C812.591,-429.349 819.963,-433 833,-433 853.859,-433 860.215,-423.653 852.067,-414.708"/>
<polygon fill="#9a32cd" stroke="#9a32cd" points="814.28,-425.297 813.933,-414.708 807.601,-423.202 814.28,-425.297"/>
<text text-anchor="middle" x="833" y="-437" font-family="FreeSans" font-size="10.00"> parent_</text>
</g>
<!-- Node13 -->
<g id="node26" class="node"><title>Node13</title>
<a xlink:href="a00291.html" target="_top" xlink:title="Root scene node, represents the whole scene.">
<polygon fill="none" stroke="red" points="1036.5,-426.5 1036.5,-447.5 1125.5,-447.5 1125.5,-426.5 1036.5,-426.5"/>
<text text-anchor="middle" x="1081" y="-434.5" font-family="FreeSans" font-size="10.00">Urho3D::Scene</text>
</a>
</g>
<!-- Node5&#45;&gt;Node13 -->
<g id="edge30" class="edge"><title>Node5&#45;&gt;Node13</title>
<path fill="none" stroke="midnightblue" d="M885.817,-407.164C916.361,-409.379 955.467,-412.873 990,-418 1005.17,-420.252 1021.61,-423.449 1036.29,-426.579"/>
<polygon fill="midnightblue" stroke="midnightblue" points="886.026,-403.67 875.806,-406.461 885.536,-410.653 886.026,-403.67"/>
</g>
<!-- Node6 -->
<g id="node12" class="node"><title>Node6</title>
<a xlink:href="a00051.html" target="_top" xlink:title="Base class for animatable object.">
<polygon fill="none" stroke="black" points="451,-292.5 451,-313.5 565,-313.5 565,-292.5 451,-292.5"/>
<text text-anchor="middle" x="508" y="-300.5" font-family="FreeSans" font-size="10.00">Urho3D::Animatable</text>
</a>
</g>
<!-- Node6&#45;&gt;Node5 -->
<g id="edge14" class="edge"><title>Node6&#45;&gt;Node5</title>
<path fill="none" stroke="midnightblue" d="M575.153,-296.219C625.518,-293.924 694.96,-296.834 750,-322 784.817,-337.919 813.465,-375.028 826.075,-393.361"/>
<polygon fill="midnightblue" stroke="midnightblue" points="574.824,-292.731 565.026,-296.762 575.199,-299.721 574.824,-292.731"/>
</g>
<!-- Node7 -->
<g id="node14" class="node"><title>Node7</title>
<a xlink:href="a00303.html" target="_top" xlink:title="Base class for objects with automatic serialization through attributes.">
<polygon fill="none" stroke="red" points="55,-227.5 55,-248.5 169,-248.5 169,-227.5 55,-227.5"/>
<text text-anchor="middle" x="112" y="-235.5" font-family="FreeSans" font-size="10.00">Urho3D::Serializable</text>
</a>
</g>
<!-- Node7&#45;&gt;Node6 -->
<g id="edge16" class="edge"><title>Node7&#45;&gt;Node6</title>
<path fill="none" stroke="midnightblue" d="M179.275,-242.834C235.694,-247.938 318.031,-257.846 388,-276 396.309,-278.156 397.756,-280.609 406,-283 420.385,-287.172 436.164,-290.741 450.922,-293.659"/>
<polygon fill="midnightblue" stroke="midnightblue" points="179.319,-239.325 169.051,-241.936 178.706,-246.298 179.319,-239.325"/>
</g>
<!-- Node8 -->
<g id="node16" class="node"><title>Node8</title>
<a xlink:href="a00312.html" target="_top" xlink:title="Urho3D::SharedPtr\&lt;\l Urho3D::ObjectAnimation \&gt;">
<polygon fill="none" stroke="red" points="35.5,-175 35.5,-209 188.5,-209 188.5,-175 35.5,-175"/>
<text text-anchor="start" x="43.5" y="-196" font-family="FreeSans" font-size="10.00">Urho3D::SharedPtr&lt;</text>
<text text-anchor="middle" x="112" y="-183" font-family="FreeSans" font-size="10.00"> Urho3D::ObjectAnimation &gt;</text>
</a>
</g>
<!-- Node8&#45;&gt;Node6 -->
<g id="edge18" class="edge"><title>Node8&#45;&gt;Node6</title>
<path fill="none" stroke="#9a32cd" stroke-dasharray="5,2" d="M198.829,-195.33C268.682,-199.713 359.695,-209.811 388,-233 406.27,-247.967 388.08,-267.615 406,-283 418.391,-293.638 434.768,-299.254 450.765,-302.07"/>
<polygon fill="#9a32cd" stroke="#9a32cd" points="198.877,-191.827 188.686,-194.724 198.46,-198.815 198.877,-191.827"/>
<text text-anchor="middle" x="315" y="-237" font-family="FreeSans" font-size="10.00"> objectAnimation_</text>
</g>
<!-- Node9 -->
<g id="node18" class="node"><title>Node9</title>
<a xlink:href="a00173.html" target="_top" xlink:title="Urho3D::HashMap\&lt; Urho3D\l::String, Urho3D::SharedPtr\l\&lt; Urho3D::AttributeAnimationInstance \&gt; \&gt;">
<polygon fill="none" stroke="red" points="0,-319.5 0,-366.5 224,-366.5 224,-319.5 0,-319.5"/>
<text text-anchor="start" x="8" y="-353.5" font-family="FreeSans" font-size="10.00">Urho3D::HashMap&lt; Urho3D</text>
<text text-anchor="start" x="8" y="-340.5" font-family="FreeSans" font-size="10.00">::String, Urho3D::SharedPtr</text>
<text text-anchor="middle" x="112" y="-327.5" font-family="FreeSans" font-size="10.00">&lt; Urho3D::AttributeAnimationInstance &gt; &gt;</text>
</a>
</g>
<!-- Node9&#45;&gt;Node6 -->
<g id="edge20" class="edge"><title>Node9&#45;&gt;Node6</title>
<path fill="none" stroke="#9a32cd" stroke-dasharray="5,2" d="M234.321,-321.944C236.902,-321.615 239.464,-321.3 242,-321 313.708,-312.528 396.797,-307.697 450.77,-305.216"/>
<polygon fill="#9a32cd" stroke="#9a32cd" points="233.741,-318.49 224.289,-323.277 234.663,-325.429 233.741,-318.49"/>
<text text-anchor="middle" x="315" y="-325" font-family="FreeSans" font-size="10.00"> attributeAnimationInstances_</text>
</g>
<!-- Node10 -->
<g id="node20" class="node"><title>Node10</title>
<a xlink:href="a00175.html" target="_top" xlink:title="Urho3D::HashSet\&lt; const\l Urho3D::AttributeInfo * \&gt;">
<polygon fill="none" stroke="red" points="41.5,-267 41.5,-301 182.5,-301 182.5,-267 41.5,-267"/>
<text text-anchor="start" x="49.5" y="-288" font-family="FreeSans" font-size="10.00">Urho3D::HashSet&lt; const</text>
<text text-anchor="middle" x="112" y="-275" font-family="FreeSans" font-size="10.00"> Urho3D::AttributeInfo * &gt;</text>
</a>
</g>
<!-- Node10&#45;&gt;Node6 -->
<g id="edge22" class="edge"><title>Node10&#45;&gt;Node6</title>
<path fill="none" stroke="#9a32cd" stroke-dasharray="5,2" d="M192.785,-281.211C247.874,-280.064 322.444,-279.991 388,-285 408.585,-286.573 430.995,-289.579 450.816,-292.691"/>
<polygon fill="#9a32cd" stroke="#9a32cd" points="192.651,-277.713 182.732,-281.436 192.808,-284.711 192.651,-277.713"/>
<text text-anchor="middle" x="315" y="-289" font-family="FreeSans" font-size="10.00"> animatedNetworkAttributes_</text>
</g>
<!-- Node11 -->
<g id="node22" class="node"><title>Node11</title>
<a xlink:href="a00262.html" target="_top" xlink:title="Urho3D::PODVector\&lt;\l Urho3D::Node * \&gt;">
<polygon fill="none" stroke="black" points="448.5,-84 448.5,-118 567.5,-118 567.5,-84 448.5,-84"/>
<text text-anchor="start" x="456.5" y="-105" font-family="FreeSans" font-size="10.00">Urho3D::PODVector&lt;</text>
<text text-anchor="middle" x="508" y="-92" font-family="FreeSans" font-size="10.00"> Urho3D::Node * &gt;</text>
</a>
</g>
<!-- Node11&#45;&gt;Node5 -->
<g id="edge24" class="edge"><title>Node11&#45;&gt;Node5</title>
<path fill="none" stroke="#9a32cd" stroke-dasharray="5,2" d="M577.877,-108.586C640.077,-116.683 724.981,-131.478 750,-154 787.643,-187.886 822.282,-350.291 830.935,-393.449"/>
<polygon fill="#9a32cd" stroke="#9a32cd" points="578.076,-105.083 567.715,-107.295 577.194,-112.027 578.076,-105.083"/>
<text text-anchor="middle" x="689" y="-158" font-family="FreeSans" font-size="10.00"> dependencyNodes_</text>
</g>
<!-- Node12 -->
<g id="node24" class="node"><title>Node12</title>
<a xlink:href="a00365.html" target="_top" xlink:title="Vector base class.">
<polygon fill="none" stroke="black" points="55,-130.5 55,-151.5 169,-151.5 169,-130.5 55,-130.5"/>
<text text-anchor="middle" x="112" y="-138.5" font-family="FreeSans" font-size="10.00">Urho3D::VectorBase</text>
</a>
</g>
<!-- Node12&#45;&gt;Node11 -->
<g id="edge26" class="edge"><title>Node12&#45;&gt;Node11</title>
<path fill="none" stroke="midnightblue" d="M179.498,-134.182C254.984,-126.557 376.095,-114.324 448.267,-107.034"/>
<polygon fill="midnightblue" stroke="midnightblue" points="178.756,-130.739 169.159,-135.226 179.46,-137.704 178.756,-130.739"/>
</g>
<!-- Node17 -->
<g id="node37" class="node"><title>Node17</title>
<a xlink:href="a00361.html" target="_top" xlink:title="Urho3D::Vector\&lt; Urho3D\l::WeakPtr\&lt; Urho3D::Component \&gt; \&gt;">
<polygon fill="none" stroke="black" points="411,-240 411,-274 605,-274 605,-240 411,-240"/>
<text text-anchor="start" x="419" y="-261" font-family="FreeSans" font-size="10.00">Urho3D::Vector&lt; Urho3D</text>
<text text-anchor="middle" x="508" y="-248" font-family="FreeSans" font-size="10.00">::WeakPtr&lt; Urho3D::Component &gt; &gt;</text>
</a>
</g>
<!-- Node12&#45;&gt;Node17 -->
<g id="edge44" class="edge"><title>Node12&#45;&gt;Node17</title>
<path fill="none" stroke="midnightblue" d="M174.352,-153.733C190.596,-157.373 208.023,-161.566 224,-166 232.126,-168.255 233.841,-169.868 242,-172 305.925,-188.706 334.115,-161.766 388,-200 400.993,-209.219 393.289,-221.394 406,-231 410.52,-234.416 415.44,-237.385 420.599,-239.967"/>
<polygon fill="midnightblue" stroke="midnightblue" points="174.933,-150.277 164.414,-151.54 173.425,-157.112 174.933,-150.277"/>
</g>
<!-- Node19 -->
<g id="node42" class="node"><title>Node19</title>
<a xlink:href="a00361.html" target="_top" xlink:title="Urho3D::Vector\&lt; Urho3D\l::SharedPtr\&lt; Urho3D::Component \&gt; \&gt;">
<polygon fill="none" stroke="black" points="406.5,-188 406.5,-222 609.5,-222 609.5,-188 406.5,-188"/>
<text text-anchor="start" x="414.5" y="-209" font-family="FreeSans" font-size="10.00">Urho3D::Vector&lt; Urho3D</text>
<text text-anchor="middle" x="508" y="-196" font-family="FreeSans" font-size="10.00">::SharedPtr&lt; Urho3D::Component &gt; &gt;</text>
</a>
</g>
<!-- Node12&#45;&gt;Node19 -->
<g id="edge50" class="edge"><title>Node12&#45;&gt;Node19</title>
<path fill="none" stroke="midnightblue" d="M179.303,-146.967C235.406,-152.496 317.286,-161.856 388,-175 393.832,-176.084 416.987,-181.822 441.424,-187.994"/>
<polygon fill="midnightblue" stroke="midnightblue" points="179.428,-143.463 169.136,-145.979 178.751,-150.43 179.428,-143.463"/>
</g>
<!-- Node21 -->
<g id="node51" class="node"><title>Node21</title>
<a xlink:href="a00361.html" target="_top" xlink:title="Urho3D::Vector\&lt; Urho3D\l::SharedPtr\&lt; Urho3D::Node \&gt; \&gt;">
<polygon fill="none" stroke="black" points="421.5,-136 421.5,-170 594.5,-170 594.5,-136 421.5,-136"/>
<text text-anchor="start" x="429.5" y="-157" font-family="FreeSans" font-size="10.00">Urho3D::Vector&lt; Urho3D</text>
<text text-anchor="middle" x="508" y="-144" font-family="FreeSans" font-size="10.00">::SharedPtr&lt; Urho3D::Node &gt; &gt;</text>
</a>
</g>
<!-- Node12&#45;&gt;Node21 -->
<g id="edge64" class="edge"><title>Node12&#45;&gt;Node21</title>
<path fill="none" stroke="midnightblue" d="M179.551,-143.047C246.269,-145.069 348.591,-148.169 421.281,-150.372"/>
<polygon fill="midnightblue" stroke="midnightblue" points="179.26,-139.537 169.159,-142.732 179.048,-146.533 179.26,-139.537"/>
</g>
<!-- Node13&#45;&gt;Node5 -->
<g id="edge28" class="edge"><title>Node13&#45;&gt;Node5</title>
<path fill="none" stroke="#9a32cd" stroke-dasharray="5,2" d="M1026.45,-429.741C981.061,-423.702 917.348,-415.224 875.633,-409.673"/>
<polygon fill="#9a32cd" stroke="#9a32cd" points="1026.04,-433.218 1036.42,-431.068 1026.97,-426.279 1026.04,-433.218"/>
<text text-anchor="middle" x="953" y="-428" font-family="FreeSans" font-size="10.00"> scene_</text>
</g>
<!-- Node14 -->
<g id="node29" class="node"><title>Node14</title>
<a xlink:href="a00294.html" target="_top" xlink:title="Utility class that resolves node &amp; component IDs after a scene or partial scene load.">
<polygon fill="none" stroke="red" points="768.5,-464.5 768.5,-485.5 897.5,-485.5 897.5,-464.5 768.5,-464.5"/>
<text text-anchor="middle" x="833" y="-472.5" font-family="FreeSans" font-size="10.00">Urho3D::SceneResolver</text>
</a>
</g>
<!-- Node14&#45;&gt;Node13 -->
<g id="edge32" class="edge"><title>Node14&#45;&gt;Node13</title>
<path fill="none" stroke="#9a32cd" stroke-dasharray="5,2" d="M907.426,-463.596C949.431,-457.16 1000.52,-449.332 1036.36,-443.84"/>
<polygon fill="#9a32cd" stroke="#9a32cd" points="906.866,-460.141 897.512,-465.115 907.926,-467.06 906.866,-460.141"/>
<text text-anchor="middle" x="953" y="-465" font-family="FreeSans" font-size="10.00"> resolver_</text>
</g>
<!-- Node15 -->
<g id="node31" class="node"><title>Node15</title>
<a xlink:href="a00335.html" target="_top" xlink:title="String class.">
<polygon fill="none" stroke="black" points="68,-613.5 68,-634.5 156,-634.5 156,-613.5 68,-613.5"/>
<text text-anchor="middle" x="112" y="-621.5" font-family="FreeSans" font-size="10.00">Urho3D::String</text>
</a>
</g>
<!-- Node15&#45;&gt;Node1 -->
<g id="edge88" class="edge"><title>Node15&#45;&gt;Node1</title>
<path fill="none" stroke="#9a32cd" stroke-dasharray="5,2" d="M135.638,-640.094C160.791,-656.299 202.348,-680.498 242,-692 459.269,-755.024 524.205,-737.949 750,-724 865.325,-716.875 892.675,-699.125 1008,-692 1072.77,-687.999 1091.56,-674.328 1154,-692 1194.98,-703.599 1235.22,-735.513 1254.39,-752.322"/>
<polygon fill="#9a32cd" stroke="#9a32cd" points="137.428,-637.083 127.147,-634.524 133.589,-642.935 137.428,-637.083"/>
<text text-anchor="middle" x="833" y="-726" font-family="FreeSans" font-size="10.00"> name_</text>
</g>
<!-- Node15&#45;&gt;Node5 -->
<g id="edge54" class="edge"><title>Node15&#45;&gt;Node5</title>
<path fill="none" stroke="#9a32cd" stroke-dasharray="5,2" d="M157.01,-610.572C181.933,-603.381 213.541,-594.658 242,-588 306.334,-572.949 330.457,-592.469 388,-560 398.415,-554.123 395.735,-546.136 406,-540 541.089,-459.255 605.017,-517.228 750,-456 776.003,-445.019 803.183,-426.414 819.079,-414.69"/>
<polygon fill="#9a32cd" stroke="#9a32cd" points="155.741,-607.296 147.115,-613.448 157.695,-614.018 155.741,-607.296"/>
<text text-anchor="middle" x="508" y="-544" font-family="FreeSans" font-size="10.00"> name_</text>
</g>
<!-- Node15&#45;&gt;Node13 -->
<g id="edge34" class="edge"><title>Node15&#45;&gt;Node13</title>
<path fill="none" stroke="#9a32cd" stroke-dasharray="5,2" d="M150.555,-637.819C235.107,-666.093 442.636,-724.368 610,-681 618.859,-678.704 619.404,-674.141 628,-671 781.992,-614.721 857.293,-696.281 990,-600 1044.56,-560.412 1070.54,-477.549 1078.36,-447.867"/>
<polygon fill="#9a32cd" stroke="#9a32cd" points="151.459,-634.429 140.864,-634.528 149.208,-641.058 151.459,-634.429"/>
<text text-anchor="middle" x="689" y="-675" font-family="FreeSans" font-size="10.00"> fileName_</text>
</g>
<!-- Node15&#45;&gt;Node15 -->
<g id="edge36" class="edge"><title>Node15&#45;&gt;Node15</title>
<path fill="none" stroke="#9a32cd" stroke-dasharray="5,2" d="M74.2884,-643.299C75.8377,-648.781 88.4083,-653 112,-653 147.113,-653 157.812,-643.653 144.096,-634.708"/>
<polygon fill="#9a32cd" stroke="#9a32cd" points="77.3621,-644.993 79.9043,-634.708 71.5029,-641.163 77.3621,-644.993"/>
<text text-anchor="middle" x="112" y="-657" font-family="FreeSans" font-size="10.00"> EMPTY</text>
</g>
<!-- Node15&#45;&gt;Node22 -->
<g id="edge74" class="edge"><title>Node15&#45;&gt;Node22</title>
<path fill="none" stroke="#9a32cd" stroke-dasharray="5,2" d="M128.262,-605.66C151.255,-580.795 195.657,-536.567 242,-511 301.34,-478.263 326.694,-495.889 388,-467 396.698,-462.902 397.198,-458.869 406,-455 420.187,-448.763 436.198,-443.912 451.258,-440.214"/>
<polygon fill="#9a32cd" stroke="#9a32cd" points="125.455,-603.543 121.313,-613.295 130.632,-608.255 125.455,-603.543"/>
<text text-anchor="middle" x="315" y="-515" font-family="FreeSans" font-size="10.00"> sceneFileName_</text>
</g>
<!-- Node16 -->
<g id="node34" class="node"><title>Node16</title>
<a xlink:href="a00173.html" target="_top" xlink:title="Urho3D::HashMap\&lt; ShortString\lHash, Variant \&gt;">
<polygon fill="none" stroke="red" points="27,-385 27,-419 197,-419 197,-385 27,-385"/>
<text text-anchor="start" x="35" y="-406" font-family="FreeSans" font-size="10.00">Urho3D::HashMap&lt; ShortString</text>
<text text-anchor="middle" x="112" y="-393" font-family="FreeSans" font-size="10.00">Hash, Variant &gt;</text>
</a>
</g>
<!-- Node16&#45;&gt;Node5 -->
<g id="edge66" class="edge"><title>Node16&#45;&gt;Node5</title>
<path fill="none" stroke="#9a32cd" stroke-dasharray="5,2" d="M207.14,-399.591C307.363,-397.394 469.792,-394.8 610,-397 672.742,-397.984 745.377,-400.526 790.259,-402.26"/>
<polygon fill="#9a32cd" stroke="#9a32cd" points="206.957,-396.094 197.037,-399.816 207.113,-403.092 206.957,-396.094"/>
<text text-anchor="middle" x="508" y="-401" font-family="FreeSans" font-size="10.00"> vars_</text>
</g>
<!-- Node16&#45;&gt;Node13 -->
<g id="edge38" class="edge"><title>Node16&#45;&gt;Node13</title>
<path fill="none" stroke="#9a32cd" stroke-dasharray="5,2" d="M207.026,-390.784C355.274,-375.317 650.293,-352.694 898,-384 955.099,-391.216 1019.12,-413.108 1054.28,-426.391"/>
<polygon fill="#9a32cd" stroke="#9a32cd" points="206.619,-387.307 197.042,-391.838 207.354,-394.268 206.619,-387.307"/>
<text text-anchor="middle" x="689" y="-375" font-family="FreeSans" font-size="10.00"> smoothingData_</text>
</g>
<!-- Node16&#45;&gt;Node22 -->
<g id="edge76" class="edge"><title>Node16&#45;&gt;Node22</title>
<path fill="none" stroke="#9a32cd" stroke-dasharray="5,2" d="M207.405,-404.055C260.628,-405.727 328.08,-408.713 388,-414 408.727,-415.829 431.369,-418.636 451.345,-421.391"/>
<polygon fill="#9a32cd" stroke="#9a32cd" points="207.399,-400.553 197.297,-403.748 207.187,-407.55 207.399,-400.553"/>
<text text-anchor="middle" x="315" y="-418" font-family="FreeSans" font-size="10.00"> identity_</text>
</g>
<!-- Node17&#45;&gt;Node5 -->
<g id="edge42" class="edge"><title>Node17&#45;&gt;Node5</title>
<path fill="none" stroke="#9a32cd" stroke-dasharray="5,2" d="M615.53,-257.782C669.174,-259.94 727.363,-265.503 750,-279 795.197,-305.948 820.745,-368.196 829.512,-393.258"/>
<polygon fill="#9a32cd" stroke="#9a32cd" points="615.347,-254.273 605.226,-257.406 615.091,-261.268 615.347,-254.273"/>
<text text-anchor="middle" x="689" y="-283" font-family="FreeSans" font-size="10.00"> listeners_</text>
</g>
<!-- Node18 -->
<g id="node40" class="node"><title>Node18</title>
<a xlink:href="a00366.html" target="_top" xlink:title="Dynamically sized buffer that can be read and written to as a stream.">
<polygon fill="none" stroke="red" points="52.5,-452.5 52.5,-473.5 171.5,-473.5 171.5,-452.5 52.5,-452.5"/>
<text text-anchor="middle" x="112" y="-460.5" font-family="FreeSans" font-size="10.00">Urho3D::VectorBuffer</text>
</a>
</g>
<!-- Node18&#45;&gt;Node5 -->
<g id="edge46" class="edge"><title>Node18&#45;&gt;Node5</title>
<path fill="none" stroke="#9a32cd" stroke-dasharray="5,2" d="M181.636,-464.125C237.451,-464.756 317.773,-465.054 388,-463 486.793,-460.11 511.446,-457.459 610,-450 672.312,-445.284 689.235,-451.581 750,-437 771.563,-431.826 794.934,-422.135 811.365,-414.588"/>
<polygon fill="#9a32cd" stroke="#9a32cd" points="181.548,-460.624 171.507,-464.004 181.464,-467.623 181.548,-460.624"/>
<text text-anchor="middle" x="508" y="-466" font-family="FreeSans" font-size="10.00"> attrBuffer_</text>
</g>
<!-- Node18&#45;&gt;Node22 -->
<g id="edge70" class="edge"><title>Node18&#45;&gt;Node22</title>
<path fill="none" stroke="#9a32cd" stroke-dasharray="5,2" d="M181.556,-455.725C201.1,-453.768 222.374,-451.719 242,-450 314.2,-443.677 397.534,-437.61 451.407,-433.85"/>
<polygon fill="#9a32cd" stroke="#9a32cd" points="181.11,-452.252 171.511,-456.738 181.812,-459.217 181.11,-452.252"/>
<text text-anchor="middle" x="315" y="-454" font-family="FreeSans" font-size="10.00"> msg_</text>
</g>
<!-- Node19&#45;&gt;Node5 -->
<g id="edge48" class="edge"><title>Node19&#45;&gt;Node5</title>
<path fill="none" stroke="#9a32cd" stroke-dasharray="5,2" d="M619.645,-216.915C677.71,-223.949 738.898,-233.011 750,-241 803.873,-279.766 825.102,-363.877 831.082,-393.455"/>
<polygon fill="#9a32cd" stroke="#9a32cd" points="619.954,-213.427 609.609,-215.715 619.123,-220.377 619.954,-213.427"/>
<text text-anchor="middle" x="689" y="-245" font-family="FreeSans" font-size="10.00"> components_</text>
</g>
<!-- Node20 -->
<g id="node48" class="node"><title>Node20</title>
<a xlink:href="a00336.html" target="_top" xlink:title="32&#45;bit hash value for a string.">
<polygon fill="none" stroke="black" points="451.5,-766.5 451.5,-787.5 564.5,-787.5 564.5,-766.5 451.5,-766.5"/>
<text text-anchor="middle" x="508" y="-774.5" font-family="FreeSans" font-size="10.00">Urho3D::StringHash</text>
</a>
</g>
<!-- Node20&#45;&gt;Node1 -->
<g id="edge90" class="edge"><title>Node20&#45;&gt;Node1</title>
<path fill="none" stroke="#9a32cd" stroke-dasharray="5,2" d="M574.741,-778.636C627.258,-779.839 702.293,-781.368 768,-782 962.67,-783.872 1012.79,-800.833 1206,-777 1212.58,-776.188 1219.5,-774.948 1226.19,-773.535"/>
<polygon fill="#9a32cd" stroke="#9a32cd" points="574.625,-775.133 564.547,-778.401 574.463,-782.131 574.625,-775.133"/>
<text text-anchor="middle" x="953" y="-793" font-family="FreeSans" font-size="10.00"> nameHash_</text>
</g>
<!-- Node20&#45;&gt;Node5 -->
<g id="edge58" class="edge"><title>Node20&#45;&gt;Node5</title>
<path fill="none" stroke="#9a32cd" stroke-dasharray="5,2" d="M574.999,-771.74C631.29,-763.473 708.934,-742.274 750,-688 781.335,-646.587 743.5,-500.789 768,-455 777.609,-437.041 796.557,-423.314 811.527,-414.649"/>
<polygon fill="#9a32cd" stroke="#9a32cd" points="574.185,-768.319 564.75,-773.139 575.132,-775.255 574.185,-768.319"/>
<text text-anchor="middle" x="689" y="-764" font-family="FreeSans" font-size="10.00"> nameHash_</text>
</g>
<!-- Node20&#45;&gt;Node20 -->
<g id="edge60" class="edge"><title>Node20&#45;&gt;Node20</title>
<path fill="none" stroke="#9a32cd" stroke-dasharray="5,2" d="M474.508,-796.679C476.302,-801.975 487.467,-806 508,-806 539.289,-806 548.822,-796.653 536.6,-787.708"/>
<polygon fill="#9a32cd" stroke="#9a32cd" points="477.685,-798.163 479.4,-787.708 471.539,-794.812 477.685,-798.163"/>
<text text-anchor="middle" x="508" y="-810" font-family="FreeSans" font-size="10.00"> ZERO</text>
</g>
<!-- Node21&#45;&gt;Node5 -->
<g id="edge62" class="edge"><title>Node21&#45;&gt;Node5</title>
<path fill="none" stroke="#9a32cd" stroke-dasharray="5,2" d="M604.579,-167.708C666.888,-177.957 738.41,-191.449 750,-201 812.587,-252.575 828.484,-358.858 832.059,-393.107"/>
<polygon fill="#9a32cd" stroke="#9a32cd" points="605.101,-164.247 594.668,-166.092 603.974,-171.156 605.101,-164.247"/>
<text text-anchor="middle" x="689" y="-205" font-family="FreeSans" font-size="10.00"> children_</text>
</g>
<!-- Node22&#45;&gt;Node5 -->
<g id="edge68" class="edge"><title>Node22&#45;&gt;Node5</title>
<path fill="none" stroke="#9a32cd" stroke-dasharray="5,2" d="M574.711,-424.663C639.4,-419.488 735.584,-411.793 790.491,-407.401"/>
<polygon fill="#9a32cd" stroke="#9a32cd" points="574.3,-421.185 564.611,-425.471 574.858,-428.162 574.3,-421.185"/>
<text text-anchor="middle" x="689" y="-424" font-family="FreeSans" font-size="10.00"> owner_</text>
</g>
<!-- Node23 -->
<g id="node61" class="node"><title>Node23</title>
<a xlink:href="a00212.html" target="_top" xlink:title="3x4 matrix for scene node transform calculations.">
<polygon fill="none" stroke="black" points="455,-0.5 455,-21.5 561,-21.5 561,-0.5 455,-0.5"/>
<text text-anchor="middle" x="508" y="-8.5" font-family="FreeSans" font-size="10.00">Urho3D::Matrix3x4</text>
</a>
</g>
<!-- Node23&#45;&gt;Node1 -->
<g id="edge92" class="edge"><title>Node23&#45;&gt;Node1</title>
<path fill="none" stroke="#9a32cd" stroke-dasharray="5,2" d="M571.61,-3.93588C622.145,-0.980998 693.472,-2.87051 750,-28 977.769,-129.253 1021.87,-205.639 1154,-417 1228.13,-535.587 1257.83,-707.989 1264.48,-752.303"/>
<polygon fill="#9a32cd" stroke="#9a32cd" points="571.219,-0.454055 561.473,-4.60957 571.684,-7.43865 571.219,-0.454055"/>
<text text-anchor="middle" x="953" y="-185" font-family="FreeSans" font-size="10.00"> offsetMatrix_</text>
</g>
<!-- Node23&#45;&gt;Node5 -->
<g id="edge78" class="edge"><title>Node23&#45;&gt;Node5</title>
<path fill="none" stroke="#9a32cd" stroke-dasharray="5,2" d="M571.031,-18.0378C625.842,-27.4731 703.558,-49.3873 750,-100 791.52,-145.249 824.049,-344.926 831.425,-393.38"/>
<polygon fill="#9a32cd" stroke="#9a32cd" points="571.509,-14.5695 561.076,-16.4171 570.384,-21.4785 571.509,-14.5695"/>
<text text-anchor="middle" x="689" y="-104" font-family="FreeSans" font-size="10.00"> worldTransform_</text>
</g>
<!-- Node23&#45;&gt;Node23 -->
<g id="edge80" class="edge"><title>Node23&#45;&gt;Node23</title>
<path fill="none" stroke="#9a32cd" stroke-dasharray="5,2" d="M474.508,-30.6791C476.302,-35.9746 487.467,-40 508,-40 539.289,-40 548.822,-30.6531 536.6,-21.7079"/>
<polygon fill="#9a32cd" stroke="#9a32cd" points="477.685,-32.163 479.4,-21.7079 471.539,-28.8117 477.685,-32.163"/>
<text text-anchor="middle" x="508" y="-57" font-family="FreeSans" font-size="10.00"> IDENTITY</text>
<text text-anchor="middle" x="508" y="-44" font-family="FreeSans" font-size="10.00">ZERO</text>
</g>
<!-- Node24 -->
<g id="node64" class="node"><title>Node24</title>
<a xlink:href="a00275.html" target="_top" xlink:title="Reference count structure.">
<polygon fill="none" stroke="black" points="782,-751.5 782,-772.5 884,-772.5 884,-751.5 782,-751.5"/>
<text text-anchor="middle" x="833" y="-759.5" font-family="FreeSans" font-size="10.00">Urho3D::RefCount</text>
</a>
</g>
<!-- Node24&#45;&gt;Node4 -->
<g id="edge82" class="edge"><title>Node24&#45;&gt;Node4</title>
<path fill="none" stroke="#9a32cd" stroke-dasharray="5,2" d="M871.896,-747.743C880.554,-744.375 889.641,-740.687 898,-737 906.184,-733.39 907.361,-730.317 916,-728 945.381,-720.118 978.72,-717.049 1007.7,-716.158"/>
<polygon fill="#9a32cd" stroke="#9a32cd" points="870.453,-744.548 862.366,-751.392 872.956,-751.085 870.453,-744.548"/>
<text text-anchor="middle" x="953" y="-732" font-family="FreeSans" font-size="10.00"> refCount_</text>
</g>
<!-- Node25&#45;&gt;Node1 -->
<g id="edge84" class="edge"><title>Node25&#45;&gt;Node1</title>
<path fill="none" stroke="#9a32cd" stroke-dasharray="5,2" d="M745.986,-905.431C846.865,-924.179 1059.98,-948.849 1206,-861 1239.33,-840.945 1256.7,-794.582 1263.08,-773.625"/>
<polygon fill="#9a32cd" stroke="#9a32cd" points="746.476,-901.961 735.997,-903.525 745.164,-908.837 746.476,-901.961"/>
<text text-anchor="middle" x="953" y="-927" font-family="FreeSans" font-size="10.00"> boundingBox_</text>
</g>
</g>
</svg>
        <g id="navigator" transform="translate(0 0)" fill="#404254">
                <rect fill="#f2f5e9" fill-opacity="0.5" stroke="#606060" stroke-width=".5" x="0" y="0" width="60" height="60"/>
                <use id="zoomplus" xlink:href="#zoomPlus" x="17" y="9" onmousedown="handleZoom(evt,'in')"/>
                <use id="zoomminus" xlink:href="#zoomMin" x="42" y="9" onmousedown="handleZoom(evt,'out')"/>
                <use id="reset" xlink:href="#resetDef" x="30" y="36" onmousedown="handleReset()"/>
                <g id="arrowUp" xlink:href="#dirArrow" transform="translate(30 24)" onmousedown="handlePan(0,-1)">
                  <use xlink:href="#rim" fill="#404040">
                        <set attributeName="fill" to="#808080" begin="arrowUp.mouseover" end="arrowUp.mouseout"/>
                  </use>
                  <path fill="none" stroke="white" stroke-width="1.5" d="M0,-3.0v7 M-2.5,-0.5L0,-3.0L2.5,-0.5"/>
                </g>
                <g id="arrowRight" xlink:href="#dirArrow" transform="rotate(90) translate(36 -43)" onmousedown="handlePan(1,0)">
                  <use xlink:href="#rim" fill="#404040">
                        <set attributeName="fill" to="#808080" begin="arrowRight.mouseover" end="arrowRight.mouseout"/>
                  </use>
                  <path fill="none" stroke="white" stroke-width="1.5" d="M0,-3.0v7 M-2.5,-0.5L0,-3.0L2.5,-0.5"/>
                </g>
                <g id="arrowDown" xlink:href="#dirArrow" transform="rotate(180) translate(-30 -48)" onmousedown="handlePan(0,1)">
                  <use xlink:href="#rim" fill="#404040">
                        <set attributeName="fill" to="#808080" begin="arrowDown.mouseover" end="arrowDown.mouseout"/>
                  </use>
                  <path fill="none" stroke="white" stroke-width="1.5" d="M0,-3.0v7 M-2.5,-0.5L0,-3.0L2.5,-0.5"/>
                </g>
                <g id="arrowLeft" xlink:href="#dirArrow" transform="rotate(270) translate(-36 17)" onmousedown="handlePan(-1,0)">
                  <use xlink:href="#rim" fill="#404040">
                        <set attributeName="fill" to="#808080" begin="arrowLeft.mouseover" end="arrowLeft.mouseout"/>
                  </use>
                  <path fill="none" stroke="white" stroke-width="1.5" d="M0,-3.0v7 M-2.5,-0.5L0,-3.0L2.5,-0.5"/>
                </g>
        </g>
        <svg viewBox="0 0 15 15" width="100%" height="30px" preserveAspectRatio="xMaxYMin meet">
         <g id="arrow_out" transform="scale(0.3 0.3)">
          <a xlink:href="a01238_org.svg" target="_base">
           <rect id="button" ry="5" rx="5" y="6" x="6" height="38" width="38"
                fill="#f2f5e9" fill-opacity="0.5" stroke="#606060" stroke-width="1.0"/>
           <path id="arrow"
             d="M 11.500037,31.436501 C 11.940474,20.09759 22.043105,11.32322 32.158766,21.979434 L 37.068811,17.246167 C 37.068811,17.246167 37.088388,32 37.088388,32 L 22.160133,31.978069 C 22.160133,31.978069 26.997745,27.140456 26.997745,27.140456 C 18.528582,18.264221 13.291696,25.230495 11.500037,31.436501 z"
             style="fill:#404040;"/>
          </a>
         </g>
        </svg>
</svg>
