<?xml version="1.0" encoding="UTF-8" standalone="no"?>
<!DOCTYPE svg PUBLIC "-//W3C//DTD SVG 1.1//EN"
 "http://www.w3.org/Graphics/SVG/1.1/DTD/svg11.dtd">
<!-- Generated by graphviz version 2.26.3 (20100126.1600)
 -->
<!-- Title: Urho3D::Terrain Pages: 1 -->
<!--zoomable 734 -->
<svg id="main" version="1.1" xmlns="http://www.w3.org/2000/svg" xmlns:xlink="http://www.w3.org/1999/xlink" xml:space="preserve" onload="init(evt)">
        <defs>
                <circle id="rim" cx="0" cy="0" r="7"/>
                <circle id="rim2" cx="0" cy="0" r="3.5"/>
                <g id="zoomPlus">
                        <use xlink:href="#rim" fill="#404040">
                                <set attributeName="fill" to="#808080" begin="zoomplus.mouseover" end="zoomplus.mouseout"/>
                        </use>
                        <path d="M-4,0h8M0,-4v8" fill="none" stroke="white" stroke-width="1.5" pointer-events="none"/>
                </g>
                <g id="zoomMin">
                        <use xlink:href="#rim" fill="#404040">
                                <set attributeName="fill" to="#808080" begin="zoomminus.mouseover" end="zoomminus.mouseout"/>
                        </use>
                        <path d="M-4,0h8" fill="none" stroke="white" stroke-width="1.5" pointer-events="none"/>
                </g>
                <g id="dirArrow">
                        <path fill="none" stroke="white" stroke-width="1.5" d="M0,-3.0v7 M-2.5,-0.5L0,-3.0L2.5,-0.5"/>
                </g>
               <g id="resetDef">
                       <use xlink:href="#rim2" fill="#404040">
                               <set attributeName="fill" to="#808080" begin="reset.mouseover" end="reset.mouseout"/>
                       </use>
               </g>
        </defs>

<script type="text/javascript">
var viewWidth = 1380;
var viewHeight = 734;
var sectionId = 'dynsection-1';
</script>
<script xlink:href="svgpan.js"/>
<svg id="graph" class="graph">
<g id="viewport">
<title>Urho3D::Terrain</title>
<!-- Node1 -->
<g id="node1" class="node"><title>Node1</title>
<polygon fill="#bfbfbf" stroke="black" points="1280.5,-255.5 1280.5,-276.5 1371.5,-276.5 1371.5,-255.5 1280.5,-255.5"/>
<text text-anchor="middle" x="1326" y="-263.5" font-family="FreeSans" font-size="10.00">Urho3D::Terrain</text>
</g>
<!-- Node2 -->
<g id="node2" class="node"><title>Node2</title>
<a xlink:href="a00102.html" target="_top" xlink:title="Base class for components. Components can be created to scene nodes.">
<polygon fill="none" stroke="black" points="1033,-415.5 1033,-436.5 1149,-436.5 1149,-415.5 1033,-415.5"/>
<text text-anchor="middle" x="1091" y="-423.5" font-family="FreeSans" font-size="10.00">Urho3D::Component</text>
</a>
</g>
<!-- Node2&#45;&gt;Node1 -->
<g id="edge2" class="edge"><title>Node2&#45;&gt;Node1</title>
<path fill="none" stroke="midnightblue" d="M1145.31,-411.876C1149.7,-410.111 1153.98,-408.157 1158,-406 1225.92,-369.564 1291.76,-302.881 1316.11,-276.832"/>
<polygon fill="midnightblue" stroke="midnightblue" points="1143.8,-408.704 1135.62,-415.443 1146.22,-415.273 1143.8,-408.704"/>
</g>
<!-- Node3 -->
<g id="node4" class="node"><title>Node3</title>
<a xlink:href="a00054.html" target="_top" xlink:title="Base class for animatable object, an animatable object can be set animation on it&#39;s attributes...">
<polygon fill="none" stroke="black" points="387,-311.5 387,-332.5 501,-332.5 501,-311.5 387,-311.5"/>
<text text-anchor="middle" x="444" y="-319.5" font-family="FreeSans" font-size="10.00">Urho3D::Animatable</text>
</a>
</g>
<!-- Node3&#45;&gt;Node2 -->
<g id="edge4" class="edge"><title>Node3&#45;&gt;Node2</title>
<path fill="none" stroke="midnightblue" d="M511.325,-321.896C618.958,-323.688 835.054,-335.376 1006,-396 1014.63,-399.059 1015.57,-402.448 1024,-406 1032.39,-409.534 1041.62,-412.713 1050.47,-415.443"/>
<polygon fill="midnightblue" stroke="midnightblue" points="511.302,-318.396 501.253,-321.753 511.202,-325.395 511.302,-318.396"/>
</g>
<!-- Node8 -->
<g id="node14" class="node"><title>Node8</title>
<a xlink:href="a00235.html" target="_top" xlink:title="Scene node that may contain components and child nodes.">
<polygon fill="none" stroke="red" points="692.5,-404.5 692.5,-425.5 777.5,-425.5 777.5,-404.5 692.5,-404.5"/>
<text text-anchor="middle" x="735" y="-412.5" font-family="FreeSans" font-size="10.00">Urho3D::Node</text>
</a>
</g>
<!-- Node3&#45;&gt;Node8 -->
<g id="edge16" class="edge"><title>Node3&#45;&gt;Node8</title>
<path fill="none" stroke="midnightblue" d="M511.124,-332.853C554.515,-341.075 611.697,-354.2 660,-373 681.556,-381.39 704.504,-395.017 719.255,-404.464"/>
<polygon fill="midnightblue" stroke="midnightblue" points="511.716,-329.403 501.245,-331.02 510.439,-336.286 511.716,-329.403"/>
</g>
<!-- Node4 -->
<g id="node6" class="node"><title>Node4</title>
<a xlink:href="a00310.html" target="_top" xlink:title="Base class for objects with automatic serialization through attributes.">
<polygon fill="none" stroke="red" points="44,-338.5 44,-359.5 158,-359.5 158,-338.5 44,-338.5"/>
<text text-anchor="middle" x="101" y="-346.5" font-family="FreeSans" font-size="10.00">Urho3D::Serializable</text>
</a>
</g>
<!-- Node4&#45;&gt;Node3 -->
<g id="edge6" class="edge"><title>Node4&#45;&gt;Node3</title>
<path fill="none" stroke="midnightblue" d="M168.272,-345.865C221.893,-343.082 298.854,-338.451 366,-332 372.795,-331.347 379.911,-330.568 386.964,-329.736"/>
<polygon fill="midnightblue" stroke="midnightblue" points="168.013,-342.374 158.205,-346.38 168.371,-349.365 168.013,-342.374"/>
</g>
<!-- Node5 -->
<g id="node8" class="node"><title>Node5</title>
<a xlink:href="a00176.html" target="_top" xlink:title="Urho3D::HashMap\&lt; Urho3D\l::String, Urho3D::SharedPtr\l\&lt; Urho3D::AttributeAnimationInfo \&gt; \&gt;">
<polygon fill="none" stroke="red" points="0.5,-272.5 0.5,-319.5 201.5,-319.5 201.5,-272.5 0.5,-272.5"/>
<text text-anchor="start" x="8.5" y="-306.5" font-family="FreeSans" font-size="10.00">Urho3D::HashMap&lt; Urho3D</text>
<text text-anchor="start" x="8.5" y="-293.5" font-family="FreeSans" font-size="10.00">::String, Urho3D::SharedPtr</text>
<text text-anchor="middle" x="101" y="-280.5" font-family="FreeSans" font-size="10.00">&lt; Urho3D::AttributeAnimationInfo &gt; &gt;</text>
</a>
</g>
<!-- Node5&#45;&gt;Node3 -->
<g id="edge8" class="edge"><title>Node5&#45;&gt;Node3</title>
<path fill="none" stroke="#9a32cd" stroke-dasharray="5,2" d="M211.606,-304.384C269.959,-308.807 339.12,-314.05 386.735,-317.659"/>
<polygon fill="#9a32cd" stroke="#9a32cd" points="211.83,-300.891 201.594,-303.625 211.301,-307.871 211.83,-300.891"/>
<text text-anchor="middle" x="293" y="-319" font-family="FreeSans" font-size="10.00"> attributeAnimationInstances_</text>
</g>
<!-- Node6 -->
<g id="node10" class="node"><title>Node6</title>
<a xlink:href="a00320.html" target="_top" xlink:title="Urho3D::SharedPtr\&lt;\l Urho3D::ObjectAnimation \&gt;">
<polygon fill="none" stroke="red" points="24.5,-220 24.5,-254 177.5,-254 177.5,-220 24.5,-220"/>
<text text-anchor="start" x="32.5" y="-241" font-family="FreeSans" font-size="10.00">Urho3D::SharedPtr&lt;</text>
<text text-anchor="middle" x="101" y="-228" font-family="FreeSans" font-size="10.00"> Urho3D::ObjectAnimation &gt;</text>
</a>
</g>
<!-- Node6&#45;&gt;Node3 -->
<g id="edge10" class="edge"><title>Node6&#45;&gt;Node3</title>
<path fill="none" stroke="#9a32cd" stroke-dasharray="5,2" d="M187.695,-248.73C240.035,-257.027 307.668,-269.918 366,-288 386.036,-294.211 407.843,-303.993 423.293,-311.473"/>
<polygon fill="#9a32cd" stroke="#9a32cd" points="188.192,-245.265 177.773,-247.182 187.114,-252.181 188.192,-245.265"/>
<text text-anchor="middle" x="293" y="-292" font-family="FreeSans" font-size="10.00"> objectAnimation_</text>
</g>
<!-- Node7 -->
<g id="node12" class="node"><title>Node7</title>
<a xlink:href="a00178.html" target="_top" xlink:title="Urho3D::HashSet\&lt; const\l Urho3D::AttributeInfo * \&gt;">
<polygon fill="none" stroke="red" points="30.5,-378 30.5,-412 171.5,-412 171.5,-378 30.5,-378"/>
<text text-anchor="start" x="38.5" y="-399" font-family="FreeSans" font-size="10.00">Urho3D::HashSet&lt; const</text>
<text text-anchor="middle" x="101" y="-386" font-family="FreeSans" font-size="10.00"> Urho3D::AttributeInfo * &gt;</text>
</a>
</g>
<!-- Node7&#45;&gt;Node3 -->
<g id="edge12" class="edge"><title>Node7&#45;&gt;Node3</title>
<path fill="none" stroke="#9a32cd" stroke-dasharray="5,2" d="M181.624,-387.943C234.917,-381.748 305.787,-370.56 366,-351 374.507,-348.237 375.737,-345.423 384,-342 392.115,-338.638 401.018,-335.425 409.423,-332.595"/>
<polygon fill="#9a32cd" stroke="#9a32cd" points="181.091,-384.481 171.546,-389.079 181.875,-391.437 181.091,-384.481"/>
<text text-anchor="middle" x="293" y="-386" font-family="FreeSans" font-size="10.00"> animatedNetworkAttributes_</text>
</g>
<!-- Node8&#45;&gt;Node2 -->
<g id="edge14" class="edge"><title>Node8&#45;&gt;Node2</title>
<path fill="none" stroke="#9a32cd" stroke-dasharray="5,2" d="M787.786,-407.864C795.232,-407.091 802.8,-406.43 810,-406 896.956,-400.801 919.47,-395.957 1006,-406 1022.11,-407.87 1039.61,-411.671 1054.51,-415.462"/>
<polygon fill="#9a32cd" stroke="#9a32cd" points="787.309,-404.395 777.755,-408.975 788.08,-411.353 787.309,-404.395"/>
<text text-anchor="middle" x="908" y="-410" font-family="FreeSans" font-size="10.00"> node_</text>
</g>
<!-- Node8&#45;&gt;Node8 -->
<g id="edge34" class="edge"><title>Node8&#45;&gt;Node8</title>
<path fill="none" stroke="#9a32cd" stroke-dasharray="5,2" d="M708.322,-435.055C710.072,-440.164 718.964,-444 735,-444 760.031,-444 767.658,-434.653 757.88,-425.708"/>
<polygon fill="#9a32cd" stroke="#9a32cd" points="711.598,-436.29 712.12,-425.708 705.113,-433.655 711.598,-436.29"/>
<text text-anchor="middle" x="735" y="-448" font-family="FreeSans" font-size="10.00"> parent_</text>
</g>
<!-- Node11 -->
<g id="node21" class="node"><title>Node11</title>
<a xlink:href="a00298.html" target="_top" xlink:title="Root scene node, represents the whole scene.">
<polygon fill="none" stroke="red" points="1046.5,-455.5 1046.5,-476.5 1135.5,-476.5 1135.5,-455.5 1046.5,-455.5"/>
<text text-anchor="middle" x="1091" y="-463.5" font-family="FreeSans" font-size="10.00">Urho3D::Scene</text>
</a>
</g>
<!-- Node8&#45;&gt;Node11 -->
<g id="edge24" class="edge"><title>Node8&#45;&gt;Node11</title>
<path fill="none" stroke="midnightblue" d="M758.564,-431.134C772.787,-439.938 791.656,-450.031 810,-455 891.053,-476.956 990.039,-474.374 1046.27,-470.316"/>
<polygon fill="midnightblue" stroke="midnightblue" points="760.248,-428.056 749.941,-425.602 756.468,-433.947 760.248,-428.056"/>
</g>
<!-- Node9 -->
<g id="node17" class="node"><title>Node9</title>
<a xlink:href="a00268.html" target="_top" xlink:title="Urho3D::PODVector\&lt;\l Urho3D::Node * \&gt;">
<polygon fill="none" stroke="black" points="384.5,-351 384.5,-385 503.5,-385 503.5,-351 384.5,-351"/>
<text text-anchor="start" x="392.5" y="-372" font-family="FreeSans" font-size="10.00">Urho3D::PODVector&lt;</text>
<text text-anchor="middle" x="444" y="-359" font-family="FreeSans" font-size="10.00"> Urho3D::Node * &gt;</text>
</a>
</g>
<!-- Node9&#45;&gt;Node8 -->
<g id="edge18" class="edge"><title>Node9&#45;&gt;Node8</title>
<path fill="none" stroke="#9a32cd" stroke-dasharray="5,2" d="M513.806,-375.54C556.25,-380.578 611.448,-387.939 660,-397 671.189,-399.088 683.216,-401.774 694.291,-404.43"/>
<polygon fill="#9a32cd" stroke="#9a32cd" points="514.194,-372.062 503.854,-374.373 513.379,-379.014 514.194,-372.062"/>
<text text-anchor="middle" x="591" y="-401" font-family="FreeSans" font-size="10.00"> dependencyNodes_</text>
</g>
<!-- Node10 -->
<g id="node19" class="node"><title>Node10</title>
<a xlink:href="a00378.html" target="_top" xlink:title="Vector base class.">
<polygon fill="none" stroke="black" points="44,-635.5 44,-656.5 158,-656.5 158,-635.5 44,-635.5"/>
<text text-anchor="middle" x="101" y="-643.5" font-family="FreeSans" font-size="10.00">Urho3D::VectorBase</text>
</a>
</g>
<!-- Node10&#45;&gt;Node9 -->
<g id="edge20" class="edge"><title>Node10&#45;&gt;Node9</title>
<path fill="none" stroke="midnightblue" d="M117.396,-627.849C158.543,-583.149 270.985,-466.155 384,-394 389.071,-390.762 394.615,-387.751 400.217,-385.01"/>
<polygon fill="midnightblue" stroke="midnightblue" points="114.724,-625.585 110.559,-635.327 119.89,-630.309 114.724,-625.585"/>
</g>
<!-- Node21 -->
<g id="node47" class="node"><title>Node21</title>
<a xlink:href="a00268.html" target="_top" xlink:title="Urho3D::PODVector\&lt;\l Urho3D::Pair\&lt; unsigned,\l unsigned \&gt; \&gt;">
<polygon fill="none" stroke="black" points="522.5,-661.5 522.5,-708.5 659.5,-708.5 659.5,-661.5 522.5,-661.5"/>
<text text-anchor="start" x="530.5" y="-695.5" font-family="FreeSans" font-size="10.00">Urho3D::PODVector&lt;</text>
<text text-anchor="start" x="530.5" y="-682.5" font-family="FreeSans" font-size="10.00"> Urho3D::Pair&lt; unsigned,</text>
<text text-anchor="middle" x="591" y="-669.5" font-family="FreeSans" font-size="10.00"> unsigned &gt; &gt;</text>
</a>
</g>
<!-- Node10&#45;&gt;Node21 -->
<g id="edge56" class="edge"><title>Node10&#45;&gt;Node21</title>
<path fill="none" stroke="midnightblue" d="M168.438,-654.526C185.263,-656.49 203.275,-658.454 220,-660 325.261,-669.732 447.657,-677.243 522.199,-681.392"/>
<polygon fill="midnightblue" stroke="midnightblue" points="168.481,-651.007 158.139,-653.307 167.658,-657.958 168.481,-651.007"/>
</g>
<!-- Node25 -->
<g id="node57" class="node"><title>Node25</title>
<a xlink:href="a00374.html" target="_top" xlink:title="Urho3D::Vector\&lt; Urho3D\l::WeakPtr\&lt; Urho3D::TerrainPatch \&gt; \&gt;">
<polygon fill="none" stroke="black" points="810.5,-580 810.5,-614 1005.5,-614 1005.5,-580 810.5,-580"/>
<text text-anchor="start" x="818.5" y="-601" font-family="FreeSans" font-size="10.00">Urho3D::Vector&lt; Urho3D</text>
<text text-anchor="middle" x="908" y="-588" font-family="FreeSans" font-size="10.00">::WeakPtr&lt; Urho3D::TerrainPatch &gt; &gt;</text>
</a>
</g>
<!-- Node10&#45;&gt;Node25 -->
<g id="edge68" class="edge"><title>Node10&#45;&gt;Node25</title>
<path fill="none" stroke="midnightblue" d="M168.518,-643.374C248.588,-640.131 386.071,-634.157 504,-627 608.778,-620.641 728.702,-611.5 810.498,-604.982"/>
<polygon fill="midnightblue" stroke="midnightblue" points="167.938,-639.895 158.087,-643.794 168.22,-646.889 167.938,-639.895"/>
</g>
<!-- Node11&#45;&gt;Node8 -->
<g id="edge22" class="edge"><title>Node11&#45;&gt;Node8</title>
<path fill="none" stroke="#9a32cd" stroke-dasharray="5,2" d="M1046.25,-452.603C1030.18,-447.956 1014.05,-443.525 1006,-442 963.377,-433.924 842.619,-423.553 777.639,-418.327"/>
<polygon fill="#9a32cd" stroke="#9a32cd" points="1045.59,-456.057 1056.17,-455.5 1047.55,-449.338 1045.59,-456.057"/>
<text text-anchor="middle" x="908" y="-446" font-family="FreeSans" font-size="10.00"> scene_</text>
</g>
<!-- Node12 -->
<g id="node24" class="node"><title>Node12</title>
<a xlink:href="a00273.html" target="_top" xlink:title="Rotation represented as a four&#45;dimensional normalized vector.">
<polygon fill="none" stroke="black" points="387.5,-403.5 387.5,-424.5 500.5,-424.5 500.5,-403.5 387.5,-403.5"/>
<text text-anchor="middle" x="444" y="-411.5" font-family="FreeSans" font-size="10.00">Urho3D::Quaternion</text>
</a>
</g>
<!-- Node12&#45;&gt;Node8 -->
<g id="edge26" class="edge"><title>Node12&#45;&gt;Node8</title>
<path fill="none" stroke="#9a32cd" stroke-dasharray="5,2" d="M510.935,-414.23C566.655,-414.421 644.332,-414.688 692.058,-414.852"/>
<polygon fill="#9a32cd" stroke="#9a32cd" points="510.811,-410.73 500.799,-414.195 510.786,-417.73 510.811,-410.73"/>
<text text-anchor="middle" x="591" y="-431" font-family="FreeSans" font-size="10.00"> worldRotation_</text>
<text text-anchor="middle" x="591" y="-418" font-family="FreeSans" font-size="10.00">rotation_</text>
</g>
<!-- Node12&#45;&gt;Node12 -->
<g id="edge28" class="edge"><title>Node12&#45;&gt;Node12</title>
<path fill="none" stroke="#9a32cd" stroke-dasharray="5,2" d="M416.951,-434.055C418.725,-439.164 427.742,-443 444,-443 469.379,-443 477.112,-433.653 467.198,-424.708"/>
<polygon fill="#9a32cd" stroke="#9a32cd" points="420.229,-435.287 420.802,-424.708 413.757,-432.621 420.229,-435.287"/>
<text text-anchor="middle" x="444" y="-447" font-family="FreeSans" font-size="10.00"> IDENTITY</text>
</g>
<!-- Node13 -->
<g id="node27" class="node"><title>Node13</title>
<a xlink:href="a00376.html" target="_top" xlink:title="Three&#45;dimensional vector.">
<polygon fill="none" stroke="black" points="396,-474.5 396,-495.5 492,-495.5 492,-474.5 396,-474.5"/>
<text text-anchor="middle" x="444" y="-482.5" font-family="FreeSans" font-size="10.00">Urho3D::Vector3</text>
</a>
</g>
<!-- Node13&#45;&gt;Node1 -->
<g id="edge40" class="edge"><title>Node13&#45;&gt;Node1</title>
<path fill="none" stroke="#9a32cd" stroke-dasharray="5,2" d="M493.313,-497.958C613.207,-526.804 927.073,-586.218 1158,-486 1253.88,-444.388 1308.11,-314.68 1322.25,-276.607"/>
<polygon fill="#9a32cd" stroke="#9a32cd" points="493.876,-494.492 483.331,-495.518 492.214,-501.292 493.876,-494.492"/>
<text text-anchor="middle" x="908" y="-545" font-family="FreeSans" font-size="10.00"> spacing_</text>
</g>
<!-- Node13&#45;&gt;Node8 -->
<g id="edge30" class="edge"><title>Node13&#45;&gt;Node8</title>
<path fill="none" stroke="#9a32cd" stroke-dasharray="5,2" d="M492.319,-471.923C502.107,-469.468 512.356,-467.036 522,-465 582.838,-452.155 599.837,-457.706 660,-442 676.738,-437.631 695.011,-431.091 709.33,-425.542"/>
<polygon fill="#9a32cd" stroke="#9a32cd" points="491.152,-468.608 482.329,-474.474 492.884,-475.391 491.152,-468.608"/>
<text text-anchor="middle" x="591" y="-482" font-family="FreeSans" font-size="10.00"> scale_</text>
<text text-anchor="middle" x="591" y="-469" font-family="FreeSans" font-size="10.00">position_</text>
</g>
<!-- Node13&#45;&gt;Node13 -->
<g id="edge32" class="edge"><title>Node13&#45;&gt;Node13</title>
<path fill="none" stroke="#9a32cd" stroke-dasharray="5,2" d="M416.951,-505.055C418.725,-510.164 427.742,-514 444,-514 469.379,-514 477.112,-504.653 467.198,-495.708"/>
<polygon fill="#9a32cd" stroke="#9a32cd" points="420.229,-506.287 420.802,-495.708 413.757,-503.621 420.229,-506.287"/>
<text text-anchor="middle" x="444" y="-609" font-family="FreeSans" font-size="10.00"> ONE</text>
<text text-anchor="middle" x="444" y="-596" font-family="FreeSans" font-size="10.00">DOWN</text>
<text text-anchor="middle" x="444" y="-583" font-family="FreeSans" font-size="10.00">BACK</text>
<text text-anchor="middle" x="444" y="-570" font-family="FreeSans" font-size="10.00">RIGHT</text>
<text text-anchor="middle" x="444" y="-557" font-family="FreeSans" font-size="10.00">LEFT</text>
<text text-anchor="middle" x="444" y="-544" font-family="FreeSans" font-size="10.00">ZERO</text>
<text text-anchor="middle" x="444" y="-531" font-family="FreeSans" font-size="10.00">FORWARD</text>
<text text-anchor="middle" x="444" y="-518" font-family="FreeSans" font-size="10.00">UP</text>
</g>
<!-- Node14 -->
<g id="node31" class="node"><title>Node14</title>
<a xlink:href="a00375.html" target="_top" xlink:title="Two&#45;dimensional vector.">
<polygon fill="none" stroke="black" points="1043,-279.5 1043,-300.5 1139,-300.5 1139,-279.5 1043,-279.5"/>
<text text-anchor="middle" x="1091" y="-287.5" font-family="FreeSans" font-size="10.00">Urho3D::Vector2</text>
</a>
</g>
<!-- Node14&#45;&gt;Node1 -->
<g id="edge36" class="edge"><title>Node14&#45;&gt;Node1</title>
<path fill="none" stroke="#9a32cd" stroke-dasharray="5,2" d="M1149.13,-284.064C1189.62,-279.928 1242.88,-274.489 1280.34,-270.663"/>
<polygon fill="#9a32cd" stroke="#9a32cd" points="1148.72,-280.587 1139.12,-285.085 1149.43,-287.551 1148.72,-280.587"/>
<text text-anchor="middle" x="1219" y="-297" font-family="FreeSans" font-size="10.00"> patchWorldSize_</text>
<text text-anchor="middle" x="1219" y="-284" font-family="FreeSans" font-size="10.00">patchWorldOrigin_</text>
</g>
<!-- Node14&#45;&gt;Node14 -->
<g id="edge38" class="edge"><title>Node14&#45;&gt;Node14</title>
<path fill="none" stroke="#9a32cd" stroke-dasharray="5,2" d="M1067.41,-310.427C1069.23,-315.349 1077.09,-319 1091,-319 1113.25,-319 1120.03,-309.653 1111.34,-300.708"/>
<polygon fill="#9a32cd" stroke="#9a32cd" points="1070.81,-311.302 1070.66,-300.708 1064.17,-309.081 1070.81,-311.302"/>
<text text-anchor="middle" x="1091" y="-388" font-family="FreeSans" font-size="10.00"> ONE</text>
<text text-anchor="middle" x="1091" y="-375" font-family="FreeSans" font-size="10.00">DOWN</text>
<text text-anchor="middle" x="1091" y="-362" font-family="FreeSans" font-size="10.00">RIGHT</text>
<text text-anchor="middle" x="1091" y="-349" font-family="FreeSans" font-size="10.00">LEFT</text>
<text text-anchor="middle" x="1091" y="-336" font-family="FreeSans" font-size="10.00">ZERO</text>
<text text-anchor="middle" x="1091" y="-323" font-family="FreeSans" font-size="10.00">UP</text>
</g>
<!-- Node15 -->
<g id="node35" class="node"><title>Node15</title>
<a xlink:href="a00319.html" target="_top" xlink:title="Urho3D::SharedArrayPtr\l\&lt; float \&gt;">
<polygon fill="none" stroke="black" points="1024.5,-227 1024.5,-261 1157.5,-261 1157.5,-227 1024.5,-227"/>
<text text-anchor="start" x="1032.5" y="-248" font-family="FreeSans" font-size="10.00">Urho3D::SharedArrayPtr</text>
<text text-anchor="middle" x="1091" y="-235" font-family="FreeSans" font-size="10.00">&lt; float &gt;</text>
</a>
</g>
<!-- Node15&#45;&gt;Node1 -->
<g id="edge42" class="edge"><title>Node15&#45;&gt;Node1</title>
<path fill="none" stroke="#9a32cd" stroke-dasharray="5,2" d="M1168.06,-244.847C1197.54,-245.893 1231.43,-247.97 1262,-252 1268.65,-252.877 1275.64,-254.093 1282.45,-255.446"/>
<polygon fill="#9a32cd" stroke="#9a32cd" points="1167.93,-241.341 1157.82,-244.519 1167.7,-248.338 1167.93,-241.341"/>
<text text-anchor="middle" x="1219" y="-256" font-family="FreeSans" font-size="10.00"> heightData_</text>
</g>
<!-- Node16 -->
<g id="node37" class="node"><title>Node16</title>
<a xlink:href="a00281.html" target="_top" xlink:title="Reference count structure.">
<polygon fill="none" stroke="black" points="684,-233.5 684,-254.5 786,-254.5 786,-233.5 684,-233.5"/>
<text text-anchor="middle" x="735" y="-241.5" font-family="FreeSans" font-size="10.00">Urho3D::RefCount</text>
</a>
</g>
<!-- Node16&#45;&gt;Node15 -->
<g id="edge44" class="edge"><title>Node16&#45;&gt;Node15</title>
<path fill="none" stroke="#9a32cd" stroke-dasharray="5,2" d="M796.276,-244C859.812,-244 958.837,-244 1024.31,-244"/>
<polygon fill="#9a32cd" stroke="#9a32cd" points="796.006,-240.5 786.006,-244 796.006,-247.5 796.006,-240.5"/>
<text text-anchor="middle" x="908" y="-248" font-family="FreeSans" font-size="10.00"> refCount_</text>
</g>
<!-- Node17 -->
<g id="node39" class="node"><title>Node17</title>
<a xlink:href="a00320.html" target="_top" xlink:title="Urho3D::SharedPtr\&lt;\l Urho3D::IndexBuffer \&gt;">
<polygon fill="none" stroke="black" points="1027,-175 1027,-209 1155,-209 1155,-175 1027,-175"/>
<text text-anchor="start" x="1035" y="-196" font-family="FreeSans" font-size="10.00">Urho3D::SharedPtr&lt;</text>
<text text-anchor="middle" x="1091" y="-183" font-family="FreeSans" font-size="10.00"> Urho3D::IndexBuffer &gt;</text>
</a>
</g>
<!-- Node17&#45;&gt;Node1 -->
<g id="edge46" class="edge"><title>Node17&#45;&gt;Node1</title>
<path fill="none" stroke="#9a32cd" stroke-dasharray="5,2" d="M1165.54,-202.213C1196.1,-207.795 1231.4,-216.072 1262,-228 1280.06,-235.039 1298.93,-246.876 1311.46,-255.471"/>
<polygon fill="#9a32cd" stroke="#9a32cd" points="1165.83,-198.71 1155.38,-200.422 1164.62,-205.604 1165.83,-198.71"/>
<text text-anchor="middle" x="1219" y="-232" font-family="FreeSans" font-size="10.00"> indexBuffer_</text>
</g>
<!-- Node18 -->
<g id="node41" class="node"><title>Node18</title>
<a xlink:href="a00184.html" target="_top" xlink:title="Hardware index buffer.">
<polygon fill="none" stroke="red" points="678.5,-181.5 678.5,-202.5 791.5,-202.5 791.5,-181.5 678.5,-181.5"/>
<text text-anchor="middle" x="735" y="-189.5" font-family="FreeSans" font-size="10.00">Urho3D::IndexBuffer</text>
</a>
</g>
<!-- Node18&#45;&gt;Node17 -->
<g id="edge48" class="edge"><title>Node18&#45;&gt;Node17</title>
<path fill="none" stroke="#9a32cd" stroke-dasharray="5,2" d="M801.866,-192C866.366,-192 963.316,-192 1026.88,-192"/>
<polygon fill="#9a32cd" stroke="#9a32cd" points="801.803,-188.5 791.803,-192 801.803,-195.5 801.803,-188.5"/>
<text text-anchor="middle" x="908" y="-196" font-family="FreeSans" font-size="10.00"> ptr_</text>
</g>
<!-- Node19 -->
<g id="node43" class="node"><title>Node19</title>
<a xlink:href="a00320.html" target="_top" xlink:title="Urho3D::SharedPtr\&lt;\l Urho3D::Image \&gt;">
<polygon fill="none" stroke="black" points="1033,-123 1033,-157 1149,-157 1149,-123 1033,-123"/>
<text text-anchor="start" x="1041" y="-144" font-family="FreeSans" font-size="10.00">Urho3D::SharedPtr&lt;</text>
<text text-anchor="middle" x="1091" y="-131" font-family="FreeSans" font-size="10.00"> Urho3D::Image &gt;</text>
</a>
</g>
<!-- Node19&#45;&gt;Node1 -->
<g id="edge50" class="edge"><title>Node19&#45;&gt;Node1</title>
<path fill="none" stroke="#9a32cd" stroke-dasharray="5,2" d="M1159.39,-148.795C1192.41,-155.439 1231.41,-166.997 1262,-187 1289.33,-204.87 1310.58,-238.169 1320.27,-255.264"/>
<polygon fill="#9a32cd" stroke="#9a32cd" points="1159.83,-145.315 1149.35,-146.887 1158.52,-152.192 1159.83,-145.315"/>
<text text-anchor="middle" x="1219" y="-191" font-family="FreeSans" font-size="10.00"> heightMap_</text>
</g>
<!-- Node20 -->
<g id="node45" class="node"><title>Node20</title>
<a xlink:href="a00183.html" target="_top" xlink:title="Image resource.">
<polygon fill="none" stroke="red" points="690.5,-129.5 690.5,-150.5 779.5,-150.5 779.5,-129.5 690.5,-129.5"/>
<text text-anchor="middle" x="735" y="-137.5" font-family="FreeSans" font-size="10.00">Urho3D::Image</text>
</a>
</g>
<!-- Node20&#45;&gt;Node19 -->
<g id="edge52" class="edge"><title>Node20&#45;&gt;Node19</title>
<path fill="none" stroke="#9a32cd" stroke-dasharray="5,2" d="M789.904,-140C855.755,-140 965.652,-140 1032.89,-140"/>
<polygon fill="#9a32cd" stroke="#9a32cd" points="789.727,-136.5 779.727,-140 789.727,-143.5 789.727,-136.5"/>
<text text-anchor="middle" x="908" y="-144" font-family="FreeSans" font-size="10.00"> ptr_</text>
</g>
<!-- Node21&#45;&gt;Node1 -->
<g id="edge54" class="edge"><title>Node21&#45;&gt;Node1</title>
<path fill="none" stroke="#9a32cd" stroke-dasharray="5,2" d="M669.921,-699.424C816.182,-720.997 1126.74,-741.478 1262,-558 1296.41,-511.318 1319.52,-323.582 1324.83,-276.667"/>
<polygon fill="#9a32cd" stroke="#9a32cd" points="670.09,-695.91 659.678,-697.872 669.041,-702.831 670.09,-695.91"/>
<text text-anchor="middle" x="908" y="-717" font-family="FreeSans" font-size="10.00"> drawRanges_</text>
</g>
<!-- Node22 -->
<g id="node50" class="node"><title>Node22</title>
<a xlink:href="a00188.html" target="_top" xlink:title="Two&#45;dimensional vector with integer values.">
<polygon fill="none" stroke="black" points="1037,-52.5 1037,-73.5 1145,-73.5 1145,-52.5 1037,-52.5"/>
<text text-anchor="middle" x="1091" y="-60.5" font-family="FreeSans" font-size="10.00">Urho3D::IntVector2</text>
</a>
</g>
<!-- Node22&#45;&gt;Node1 -->
<g id="edge58" class="edge"><title>Node22&#45;&gt;Node1</title>
<path fill="none" stroke="#9a32cd" stroke-dasharray="5,2" d="M1155.52,-72.3979C1190.62,-80.4181 1232.72,-95.1394 1262,-122 1303.12,-159.731 1319.35,-228.77 1324.24,-255.26"/>
<polygon fill="#9a32cd" stroke="#9a32cd" points="1155.86,-68.8913 1145.35,-70.2134 1154.39,-75.7353 1155.86,-68.8913"/>
<text text-anchor="middle" x="1219" y="-139" font-family="FreeSans" font-size="10.00"> numVertices_</text>
<text text-anchor="middle" x="1219" y="-126" font-family="FreeSans" font-size="10.00">numPatches_</text>
</g>
<!-- Node22&#45;&gt;Node22 -->
<g id="edge60" class="edge"><title>Node22&#45;&gt;Node22</title>
<path fill="none" stroke="#9a32cd" stroke-dasharray="5,2" d="M1067.41,-83.4266C1069.23,-88.3489 1077.09,-92 1091,-92 1113.25,-92 1120.03,-82.6531 1111.34,-73.7079"/>
<polygon fill="#9a32cd" stroke="#9a32cd" points="1070.81,-84.3017 1070.66,-73.7079 1064.17,-82.0809 1070.81,-84.3017"/>
<text text-anchor="middle" x="1091" y="-96" font-family="FreeSans" font-size="10.00"> ZERO</text>
</g>
<!-- Node23 -->
<g id="node53" class="node"><title>Node23</title>
<a xlink:href="a00320.html" target="_top" xlink:title="Urho3D::SharedPtr\&lt;\l Urho3D::Material \&gt;">
<polygon fill="none" stroke="black" points="1033,-0 1033,-34 1149,-34 1149,-0 1033,-0"/>
<text text-anchor="start" x="1041" y="-21" font-family="FreeSans" font-size="10.00">Urho3D::SharedPtr&lt;</text>
<text text-anchor="middle" x="1091" y="-8" font-family="FreeSans" font-size="10.00"> Urho3D::Material &gt;</text>
</a>
</g>
<!-- Node23&#45;&gt;Node1 -->
<g id="edge62" class="edge"><title>Node23&#45;&gt;Node1</title>
<path fill="none" stroke="#9a32cd" stroke-dasharray="5,2" d="M1159.47,-18.8137C1194.2,-23.2014 1234.68,-34.1432 1262,-60 1291.58,-87.9975 1317.09,-217.119 1324.1,-255.324"/>
<polygon fill="#9a32cd" stroke="#9a32cd" points="1159.7,-15.3177 1149.38,-17.6979 1158.93,-22.2754 1159.7,-15.3177"/>
<text text-anchor="middle" x="1219" y="-64" font-family="FreeSans" font-size="10.00"> material_</text>
</g>
<!-- Node24 -->
<g id="node55" class="node"><title>Node24</title>
<a xlink:href="a00213.html" target="_top" xlink:title="Describes how to render 3D geometries.">
<polygon fill="none" stroke="red" points="686,-6.5 686,-27.5 784,-27.5 784,-6.5 686,-6.5"/>
<text text-anchor="middle" x="735" y="-14.5" font-family="FreeSans" font-size="10.00">Urho3D::Material</text>
</a>
</g>
<!-- Node24&#45;&gt;Node23 -->
<g id="edge64" class="edge"><title>Node24&#45;&gt;Node23</title>
<path fill="none" stroke="#9a32cd" stroke-dasharray="5,2" d="M794.406,-17C860.684,-17 967.212,-17 1032.94,-17"/>
<polygon fill="#9a32cd" stroke="#9a32cd" points="794.127,-13.5001 784.127,-17 794.126,-20.5001 794.127,-13.5001"/>
<text text-anchor="middle" x="908" y="-21" font-family="FreeSans" font-size="10.00"> ptr_</text>
</g>
<!-- Node25&#45;&gt;Node1 -->
<g id="edge66" class="edge"><title>Node25&#45;&gt;Node1</title>
<path fill="none" stroke="#9a32cd" stroke-dasharray="5,2" d="M1016.14,-601.445C1094.39,-598.66 1197.36,-581.678 1262,-519 1298.02,-484.071 1319.62,-320.182 1324.79,-276.643"/>
<polygon fill="#9a32cd" stroke="#9a32cd" points="1015.65,-597.958 1005.75,-601.738 1015.85,-604.955 1015.65,-597.958"/>
<text text-anchor="middle" x="1091" y="-604" font-family="FreeSans" font-size="10.00"> patches_</text>
</g>
</g>
</svg>
        <g id="navigator" transform="translate(0 0)" fill="#404254">
                <rect fill="#f2f5e9" fill-opacity="0.5" stroke="#606060" stroke-width=".5" x="0" y="0" width="60" height="60"/>
                <use id="zoomplus" xlink:href="#zoomPlus" x="17" y="9" onmousedown="handleZoom(evt,'in')"/>
                <use id="zoomminus" xlink:href="#zoomMin" x="42" y="9" onmousedown="handleZoom(evt,'out')"/>
                <use id="reset" xlink:href="#resetDef" x="30" y="36" onmousedown="handleReset()"/>
                <g id="arrowUp" xlink:href="#dirArrow" transform="translate(30 24)" onmousedown="handlePan(0,-1)">
                  <use xlink:href="#rim" fill="#404040">
                        <set attributeName="fill" to="#808080" begin="arrowUp.mouseover" end="arrowUp.mouseout"/>
                  </use>
                  <path fill="none" stroke="white" stroke-width="1.5" d="M0,-3.0v7 M-2.5,-0.5L0,-3.0L2.5,-0.5"/>
                </g>
                <g id="arrowRight" xlink:href="#dirArrow" transform="rotate(90) translate(36 -43)" onmousedown="handlePan(1,0)">
                  <use xlink:href="#rim" fill="#404040">
                        <set attributeName="fill" to="#808080" begin="arrowRight.mouseover" end="arrowRight.mouseout"/>
                  </use>
                  <path fill="none" stroke="white" stroke-width="1.5" d="M0,-3.0v7 M-2.5,-0.5L0,-3.0L2.5,-0.5"/>
                </g>
                <g id="arrowDown" xlink:href="#dirArrow" transform="rotate(180) translate(-30 -48)" onmousedown="handlePan(0,1)">
                  <use xlink:href="#rim" fill="#404040">
                        <set attributeName="fill" to="#808080" begin="arrowDown.mouseover" end="arrowDown.mouseout"/>
                  </use>
                  <path fill="none" stroke="white" stroke-width="1.5" d="M0,-3.0v7 M-2.5,-0.5L0,-3.0L2.5,-0.5"/>
                </g>
                <g id="arrowLeft" xlink:href="#dirArrow" transform="rotate(270) translate(-36 17)" onmousedown="handlePan(-1,0)">
                  <use xlink:href="#rim" fill="#404040">
                        <set attributeName="fill" to="#808080" begin="arrowLeft.mouseover" end="arrowLeft.mouseout"/>
                  </use>
                  <path fill="none" stroke="white" stroke-width="1.5" d="M0,-3.0v7 M-2.5,-0.5L0,-3.0L2.5,-0.5"/>
                </g>
        </g>
        <svg viewBox="0 0 15 15" width="100%" height="30px" preserveAspectRatio="xMaxYMin meet">
         <g id="arrow_out" transform="scale(0.3 0.3)">
          <a xlink:href="a01283_org.svg" target="_base">
           <rect id="button" ry="5" rx="5" y="6" x="6" height="38" width="38"
                fill="#f2f5e9" fill-opacity="0.5" stroke="#606060" stroke-width="1.0"/>
           <path id="arrow"
             d="M 11.500037,31.436501 C 11.940474,20.09759 22.043105,11.32322 32.158766,21.979434 L 37.068811,17.246167 C 37.068811,17.246167 37.088388,32 37.088388,32 L 22.160133,31.978069 C 22.160133,31.978069 26.997745,27.140456 26.997745,27.140456 C 18.528582,18.264221 13.291696,25.230495 11.500037,31.436501 z"
             style="fill:#404040;"/>
          </a>
         </g>
        </svg>
</svg>
