<?xml version="1.0" encoding="UTF-8" standalone="no"?>
<!DOCTYPE svg PUBLIC "-//W3C//DTD SVG 1.1//EN"
 "http://www.w3.org/Graphics/SVG/1.1/DTD/svg11.dtd">
<!-- Generated by graphviz version 2.26.3 (20100126.1600)
 -->
<!-- Title: Urho3D::GPUObject Pages: 1 -->
<svg width="1076pt" height="1218pt"
 viewBox="0.00 0.00 1076.00 1218.00" xmlns="http://www.w3.org/2000/svg" xmlns:xlink="http://www.w3.org/1999/xlink">
<g id="graph1" class="graph" transform="scale(1 1) rotate(0) translate(4 1214)">
<title>Urho3D::GPUObject</title>
<!-- Node1 -->
<g id="node1" class="node"><title>Node1</title>
<polygon fill="#bfbfbf" stroke="black" points="0.5,-929.5 0.5,-950.5 111.5,-950.5 111.5,-929.5 0.5,-929.5"/>
<text text-anchor="middle" x="56" y="-937.5" font-family="FreeSans" font-size="10.00">Urho3D::GPUObject</text>
</g>
<!-- Node9 -->
<g id="node17" class="node"><title>Node9</title>
<a xlink:href="a00362.html" target="_top" xlink:title="Base class for texture resources.">
<polygon fill="none" stroke="red" points="224,-1010.5 224,-1031.5 318,-1031.5 318,-1010.5 224,-1010.5"/>
<text text-anchor="middle" x="271" y="-1018.5" font-family="FreeSans" font-size="10.00">Urho3D::Texture</text>
</a>
</g>
<!-- Node1&#45;&gt;Node9 -->
<g id="edge20" class="edge"><title>Node1&#45;&gt;Node9</title>
<path fill="none" stroke="midnightblue" d="M81.0729,-955.784C95.0772,-964.11 113.07,-974.017 130,-981 160.345,-993.515 195.91,-1003.57 223.73,-1010.47"/>
<polygon fill="midnightblue" stroke="midnightblue" points="82.8635,-952.777 72.4973,-950.587 79.2357,-958.763 82.8635,-952.777"/>
</g>
<!-- Node13 -->
<g id="node26" class="node"><title>Node13</title>
<a xlink:href="a00327.html" target="_top" xlink:title="Linked shader program on the GPU.">
<polygon fill="none" stroke="red" points="481.5,-727.5 481.5,-748.5 616.5,-748.5 616.5,-727.5 481.5,-727.5"/>
<text text-anchor="middle" x="549" y="-735.5" font-family="FreeSans" font-size="10.00">Urho3D::ShaderProgram</text>
</a>
</g>
<!-- Node1&#45;&gt;Node13 -->
<g id="edge30" class="edge"><title>Node1&#45;&gt;Node13</title>
<path fill="none" stroke="midnightblue" d="M64.6627,-919.865C82.8043,-880.536 128.914,-794.194 198,-758 291.534,-708.998 418.946,-717.092 491.732,-727.491"/>
<polygon fill="midnightblue" stroke="midnightblue" points="61.369,-918.656 60.4727,-929.213 67.7567,-921.519 61.369,-918.656"/>
</g>
<!-- Node16 -->
<g id="node34" class="node"><title>Node16</title>
<a xlink:href="a00395.html" target="_top" xlink:title="Hardware vertex buffer.">
<polygon fill="none" stroke="red" points="489.5,-970.5 489.5,-991.5 608.5,-991.5 608.5,-970.5 489.5,-970.5"/>
<text text-anchor="middle" x="549" y="-978.5" font-family="FreeSans" font-size="10.00">Urho3D::VertexBuffer</text>
</a>
</g>
<!-- Node1&#45;&gt;Node16 -->
<g id="edge42" class="edge"><title>Node1&#45;&gt;Node16</title>
<path fill="none" stroke="midnightblue" d="M121.804,-945.473C218.257,-953.494 396.603,-968.326 489.398,-976.043"/>
<polygon fill="midnightblue" stroke="midnightblue" points="121.851,-941.964 111.595,-944.624 121.271,-948.94 121.851,-941.964"/>
</g>
<!-- Node23 -->
<g id="node54" class="node"><title>Node23</title>
<a xlink:href="a00328.html" target="_top" xlink:title="Vertex or pixel shader on the GPU.">
<polygon fill="none" stroke="red" points="481,-300.5 481,-321.5 617,-321.5 617,-300.5 481,-300.5"/>
<text text-anchor="middle" x="549" y="-308.5" font-family="FreeSans" font-size="10.00">Urho3D::ShaderVariation</text>
</a>
</g>
<!-- Node1&#45;&gt;Node23 -->
<g id="edge66" class="edge"><title>Node1&#45;&gt;Node23</title>
<path fill="none" stroke="midnightblue" d="M58.6244,-919.421C70.5231,-829.151 122.129,-469.149 198,-389 236.086,-348.766 390.1,-326.827 480.972,-317.155"/>
<polygon fill="midnightblue" stroke="midnightblue" points="55.1352,-919.112 57.3168,-929.48 62.0768,-920.015 55.1352,-919.112"/>
</g>
<!-- Node25 -->
<g id="node61" class="node"><title>Node25</title>
<a xlink:href="a00192.html" target="_top" xlink:title="Hardware index buffer.">
<polygon fill="none" stroke="red" points="492.5,-767.5 492.5,-788.5 605.5,-788.5 605.5,-767.5 492.5,-767.5"/>
<text text-anchor="middle" x="549" y="-775.5" font-family="FreeSans" font-size="10.00">Urho3D::IndexBuffer</text>
</a>
</g>
<!-- Node1&#45;&gt;Node25 -->
<g id="edge78" class="edge"><title>Node1&#45;&gt;Node25</title>
<path fill="none" stroke="midnightblue" d="M92.2927,-925.629C162.483,-898.199 322.077,-837.589 460,-798 472.025,-794.548 485.104,-791.322 497.441,-788.511"/>
<polygon fill="midnightblue" stroke="midnightblue" points="90.6316,-922.521 82.5987,-929.429 93.1864,-929.038 90.6316,-922.521"/>
</g>
<!-- Node2 -->
<g id="node2" class="node"><title>Node2</title>
<a xlink:href="a00402.html" target="_top" xlink:title="Urho3D::WeakPtr\&lt; Urho3D\l::Graphics \&gt;">
<polygon fill="none" stroke="black" points="922,-668 922,-702 1068,-702 1068,-668 922,-668"/>
<text text-anchor="start" x="930" y="-689" font-family="FreeSans" font-size="10.00">Urho3D::WeakPtr&lt; Urho3D</text>
<text text-anchor="middle" x="995" y="-676" font-family="FreeSans" font-size="10.00">::Graphics &gt;</text>
</a>
</g>
<!-- Node2&#45;&gt;Node1 -->
<g id="edge2" class="edge"><title>Node2&#45;&gt;Node1</title>
<path fill="none" stroke="#9a32cd" stroke-dasharray="5,2" d="M991.413,-712.228C976.71,-818.163 916.869,-1197 813,-1197 271,-1197 271,-1197 271,-1197 140.403,-1197 73.5158,-999.355 59.0326,-950.716"/>
<polygon fill="#9a32cd" stroke="#9a32cd" points="994.919,-712.417 992.804,-702.035 987.984,-711.47 994.919,-712.417"/>
<text text-anchor="middle" x="549" y="-1201" font-family="FreeSans" font-size="10.00"> graphics_</text>
</g>
<!-- Node3 -->
<g id="node4" class="node"><title>Node3</title>
<a xlink:href="a00180.html" target="_top" xlink:title="Graphics subsystem. Manages the application window, rendering state and GPU resources.">
<polygon fill="none" stroke="black" points="762.5,-674.5 762.5,-695.5 863.5,-695.5 863.5,-674.5 762.5,-674.5"/>
<text text-anchor="middle" x="813" y="-682.5" font-family="FreeSans" font-size="10.00">Urho3D::Graphics</text>
</a>
</g>
<!-- Node3&#45;&gt;Node2 -->
<g id="edge4" class="edge"><title>Node3&#45;&gt;Node2</title>
<path fill="none" stroke="#9a32cd" stroke-dasharray="5,2" d="M874.067,-685C889.375,-685 905.955,-685 921.787,-685"/>
<polygon fill="#9a32cd" stroke="#9a32cd" points="873.697,-681.5 863.697,-685 873.697,-688.5 873.697,-681.5"/>
<text text-anchor="middle" x="893" y="-689" font-family="FreeSans" font-size="10.00"> ptr_</text>
</g>
<!-- Node4 -->
<g id="node6" class="node"><title>Node4</title>
<a xlink:href="a00249.html" target="_top" xlink:title="Base class for objects with type identification, subsystem access and event sending/receiving capabil...">
<polygon fill="none" stroke="red" points="226,-767.5 226,-788.5 316,-788.5 316,-767.5 226,-767.5"/>
<text text-anchor="middle" x="271" y="-775.5" font-family="FreeSans" font-size="10.00">Urho3D::Object</text>
</a>
</g>
<!-- Node4&#45;&gt;Node3 -->
<g id="edge6" class="edge"><title>Node4&#45;&gt;Node3</title>
<path fill="none" stroke="midnightblue" d="M278.362,-757.935C298.29,-707.001 358.704,-573.126 460,-522 575.868,-463.519 649.612,-500.914 744,-590 772.018,-616.444 796.275,-655.622 807.052,-674.319"/>
<polygon fill="midnightblue" stroke="midnightblue" points="275.014,-756.894 274.724,-767.485 281.555,-759.386 275.014,-756.894"/>
</g>
<!-- Node4&#45;&gt;Node16 -->
<g id="edge40" class="edge"><title>Node4&#45;&gt;Node16</title>
<path fill="none" stroke="midnightblue" d="M284.583,-796.815C312.754,-834.359 381.498,-918.606 460,-961 469.058,-965.891 479.253,-969.588 489.425,-972.382"/>
<polygon fill="midnightblue" stroke="midnightblue" points="287.366,-794.691 278.606,-788.731 281.737,-798.852 287.366,-794.691"/>
</g>
<!-- Node4&#45;&gt;Node25 -->
<g id="edge76" class="edge"><title>Node4&#45;&gt;Node25</title>
<path fill="none" stroke="midnightblue" d="M326.503,-778C374.555,-778 443.757,-778 492.187,-778"/>
<polygon fill="midnightblue" stroke="midnightblue" points="326.284,-774.5 316.284,-778 326.284,-781.5 326.284,-774.5"/>
</g>
<!-- Node5 -->
<g id="node8" class="node"><title>Node5</title>
<a xlink:href="a00196.html" target="_top" xlink:title="Two&#45;dimensional bounding rectangle with integer values.">
<polygon fill="none" stroke="black" points="503,-899.5 503,-920.5 595,-920.5 595,-899.5 503,-899.5"/>
<text text-anchor="middle" x="549" y="-907.5" font-family="FreeSans" font-size="10.00">Urho3D::IntRect</text>
</a>
</g>
<!-- Node5&#45;&gt;Node3 -->
<g id="edge8" class="edge"><title>Node5&#45;&gt;Node3</title>
<path fill="none" stroke="#9a32cd" stroke-dasharray="5,2" d="M605.389,-906.713C655.336,-902.706 723.429,-894.212 744,-877 773.339,-852.452 802.291,-732.641 810.622,-695.8"/>
<polygon fill="#9a32cd" stroke="#9a32cd" points="605.05,-903.229 595.345,-907.479 605.583,-910.208 605.05,-903.229"/>
<text text-anchor="middle" x="700" y="-917" font-family="FreeSans" font-size="10.00"> viewport_</text>
<text text-anchor="middle" x="700" y="-904" font-family="FreeSans" font-size="10.00">scissorRect_</text>
</g>
<!-- Node5&#45;&gt;Node5 -->
<g id="edge10" class="edge"><title>Node5&#45;&gt;Node5</title>
<path fill="none" stroke="#9a32cd" stroke-dasharray="5,2" d="M521.951,-930.055C523.725,-935.164 532.742,-939 549,-939 574.379,-939 582.112,-929.653 572.198,-920.708"/>
<polygon fill="#9a32cd" stroke="#9a32cd" points="525.229,-931.287 525.802,-920.708 518.757,-928.621 525.229,-931.287"/>
<text text-anchor="middle" x="549" y="-943" font-family="FreeSans" font-size="10.00"> ZERO</text>
</g>
<!-- Node6 -->
<g id="node11" class="node"><title>Node6</title>
<a xlink:href="a00388.html" target="_top" xlink:title="Urho3D::Vector\&lt; Urho3D\l::ScratchBuffer \&gt;">
<polygon fill="none" stroke="red" points="480,-847 480,-881 618,-881 618,-847 480,-847"/>
<text text-anchor="start" x="488" y="-868" font-family="FreeSans" font-size="10.00">Urho3D::Vector&lt; Urho3D</text>
<text text-anchor="middle" x="549" y="-855" font-family="FreeSans" font-size="10.00">::ScratchBuffer &gt;</text>
</a>
</g>
<!-- Node6&#45;&gt;Node3 -->
<g id="edge12" class="edge"><title>Node6&#45;&gt;Node3</title>
<path fill="none" stroke="#9a32cd" stroke-dasharray="5,2" d="M628.457,-864.485C666.75,-860.996 711.335,-851.043 744,-826 788.338,-792.008 805.912,-722.04 811.155,-695.511"/>
<polygon fill="#9a32cd" stroke="#9a32cd" points="628.052,-861.006 618.354,-865.272 628.596,-867.984 628.052,-861.006"/>
<text text-anchor="middle" x="700" y="-864" font-family="FreeSans" font-size="10.00"> scratchBuffers_</text>
</g>
<!-- Node7 -->
<g id="node13" class="node"><title>Node7</title>
<a xlink:href="a00191.html" target="_top" xlink:title="Image resource.">
<polygon fill="none" stroke="red" points="504.5,-807.5 504.5,-828.5 593.5,-828.5 593.5,-807.5 504.5,-807.5"/>
<text text-anchor="middle" x="549" y="-815.5" font-family="FreeSans" font-size="10.00">Urho3D::Image</text>
</a>
</g>
<!-- Node7&#45;&gt;Node3 -->
<g id="edge14" class="edge"><title>Node7&#45;&gt;Node3</title>
<path fill="none" stroke="#9a32cd" stroke-dasharray="5,2" d="M603.98,-817.106C645.365,-814.094 701.953,-804.797 744,-778 776.552,-757.255 799.088,-715.315 808.322,-695.641"/>
<polygon fill="#9a32cd" stroke="#9a32cd" points="603.566,-813.625 593.804,-817.743 604.004,-820.611 603.566,-813.625"/>
<text text-anchor="middle" x="700" y="-813" font-family="FreeSans" font-size="10.00"> windowIcon_</text>
</g>
<!-- Node8 -->
<g id="node15" class="node"><title>Node8</title>
<a xlink:href="a00298.html" target="_top" xlink:title="Color or depth&#45;stencil surface that can be rendered into.">
<polygon fill="none" stroke="red" points="484.5,-1010.5 484.5,-1031.5 613.5,-1031.5 613.5,-1010.5 484.5,-1010.5"/>
<text text-anchor="middle" x="549" y="-1018.5" font-family="FreeSans" font-size="10.00">Urho3D::RenderSurface</text>
</a>
</g>
<!-- Node8&#45;&gt;Node3 -->
<g id="edge16" class="edge"><title>Node8&#45;&gt;Node3</title>
<path fill="none" stroke="#9a32cd" stroke-dasharray="5,2" d="M623.572,-1013.22C671.103,-1006.74 726.87,-995.818 744,-979 785.901,-937.862 807.303,-743.622 811.999,-695.704"/>
<polygon fill="#9a32cd" stroke="#9a32cd" points="623.029,-1009.76 613.571,-1014.53 623.942,-1016.7 623.029,-1009.76"/>
<text text-anchor="middle" x="700" y="-1025" font-family="FreeSans" font-size="10.00"> depthStencil_</text>
<text text-anchor="middle" x="700" y="-1012" font-family="FreeSans" font-size="10.00">renderTargets_</text>
</g>
<!-- Node9&#45;&gt;Node3 -->
<g id="edge48" class="edge"><title>Node9&#45;&gt;Node3</title>
<path fill="none" stroke="#9a32cd" stroke-dasharray="5,2" d="M305.857,-1035.23C343.251,-1049.73 404.729,-1071.42 460,-1081 522.204,-1091.78 695.74,-1128.7 744,-1088 775.201,-1061.69 806.034,-757.358 811.975,-695.812"/>
<polygon fill="#9a32cd" stroke="#9a32cd" points="307.018,-1031.92 296.431,-1031.52 304.459,-1038.44 307.018,-1031.92"/>
<text text-anchor="middle" x="549" y="-1110" font-family="FreeSans" font-size="10.00"> textures_</text>
</g>
<!-- Node9&#45;&gt;Node8 -->
<g id="edge18" class="edge"><title>Node9&#45;&gt;Node8</title>
<path fill="none" stroke="#9a32cd" stroke-dasharray="5,2" d="M328.426,-1021C373.829,-1021 437.204,-1021 484.378,-1021"/>
<polygon fill="#9a32cd" stroke="#9a32cd" points="328.159,-1017.5 318.159,-1021 328.159,-1024.5 328.159,-1017.5"/>
<text text-anchor="middle" x="402" y="-1025" font-family="FreeSans" font-size="10.00"> parentTexture_</text>
</g>
<!-- Node10 -->
<g id="node20" class="node"><title>Node10</title>
<a xlink:href="a00184.html" target="_top" xlink:title="Urho3D::HashMap\&lt; int,\l Urho3D::SharedPtr\&lt; Urho3D\l::Texture2D \&gt; \&gt;">
<polygon fill="none" stroke="red" points="470,-661.5 470,-708.5 628,-708.5 628,-661.5 470,-661.5"/>
<text text-anchor="start" x="478" y="-695.5" font-family="FreeSans" font-size="10.00">Urho3D::HashMap&lt; int,</text>
<text text-anchor="start" x="478" y="-682.5" font-family="FreeSans" font-size="10.00"> Urho3D::SharedPtr&lt; Urho3D</text>
<text text-anchor="middle" x="549" y="-669.5" font-family="FreeSans" font-size="10.00">::Texture2D &gt; &gt;</text>
</a>
</g>
<!-- Node10&#45;&gt;Node3 -->
<g id="edge22" class="edge"><title>Node10&#45;&gt;Node3</title>
<path fill="none" stroke="#9a32cd" stroke-dasharray="5,2" d="M638.283,-685C679.57,-685 727.106,-685 762.162,-685"/>
<polygon fill="#9a32cd" stroke="#9a32cd" points="638.209,-681.5 628.209,-685 638.209,-688.5 638.209,-681.5"/>
<text text-anchor="middle" x="700" y="-689" font-family="FreeSans" font-size="10.00"> depthTextures_</text>
</g>
<!-- Node11 -->
<g id="node22" class="node"><title>Node11</title>
<a xlink:href="a00184.html" target="_top" xlink:title="Urho3D::HashMap\&lt; Urho3D\l::String, TextureUnit \&gt;">
<polygon fill="none" stroke="red" points="473,-609 473,-643 625,-643 625,-609 473,-609"/>
<text text-anchor="start" x="481" y="-630" font-family="FreeSans" font-size="10.00">Urho3D::HashMap&lt; Urho3D</text>
<text text-anchor="middle" x="549" y="-617" font-family="FreeSans" font-size="10.00">::String, TextureUnit &gt;</text>
</a>
</g>
<!-- Node11&#45;&gt;Node3 -->
<g id="edge24" class="edge"><title>Node11&#45;&gt;Node3</title>
<path fill="none" stroke="#9a32cd" stroke-dasharray="5,2" d="M634.957,-643.944C668.967,-651.193 708.375,-659.777 744,-668 752.776,-670.026 762.157,-672.278 771.085,-674.464"/>
<polygon fill="#9a32cd" stroke="#9a32cd" points="635.561,-640.494 625.052,-641.838 634.105,-647.341 635.561,-640.494"/>
<text text-anchor="middle" x="700" y="-672" font-family="FreeSans" font-size="10.00"> textureUnits_</text>
</g>
<!-- Node12 -->
<g id="node24" class="node"><title>Node12</title>
<a xlink:href="a00184.html" target="_top" xlink:title="Urho3D::HashMap\&lt; Pair\l\&lt; ShaderVariation *,\l ShaderVariation * \&gt;,\l SharedPtr\&lt; ShaderProgram \&gt; \&gt;">
<polygon fill="none" stroke="red" points="460.5,-531 460.5,-591 637.5,-591 637.5,-531 460.5,-531"/>
<text text-anchor="start" x="468.5" y="-578" font-family="FreeSans" font-size="10.00">Urho3D::HashMap&lt; Pair</text>
<text text-anchor="start" x="468.5" y="-565" font-family="FreeSans" font-size="10.00">&lt; ShaderVariation *,</text>
<text text-anchor="start" x="468.5" y="-552" font-family="FreeSans" font-size="10.00"> ShaderVariation * &gt;,</text>
<text text-anchor="middle" x="549" y="-539" font-family="FreeSans" font-size="10.00"> SharedPtr&lt; ShaderProgram &gt; &gt;</text>
</a>
</g>
<!-- Node12&#45;&gt;Node3 -->
<g id="edge26" class="edge"><title>Node12&#45;&gt;Node3</title>
<path fill="none" stroke="#9a32cd" stroke-dasharray="5,2" d="M647.716,-589.588C679.404,-600.545 714.035,-614.46 744,-631 766.107,-643.202 788.557,-662.285 801.609,-674.195"/>
<polygon fill="#9a32cd" stroke="#9a32cd" points="648.579,-586.185 637.985,-586.283 646.328,-592.813 648.579,-586.185"/>
<text text-anchor="middle" x="700" y="-635" font-family="FreeSans" font-size="10.00"> shaderPrograms_</text>
</g>
<!-- Node13&#45;&gt;Node3 -->
<g id="edge28" class="edge"><title>Node13&#45;&gt;Node3</title>
<path fill="none" stroke="#9a32cd" stroke-dasharray="5,2" d="M621.251,-725.709C658.092,-719.177 703.547,-710.71 744,-702 753.046,-700.052 762.714,-697.787 771.863,-695.557"/>
<polygon fill="#9a32cd" stroke="#9a32cd" points="620.34,-722.316 611.1,-727.499 621.556,-729.209 620.34,-722.316"/>
<text text-anchor="middle" x="700" y="-722" font-family="FreeSans" font-size="10.00"> shaderProgram_</text>
</g>
<!-- Node14 -->
<g id="node29" class="node"><title>Node14</title>
<a xlink:href="a00354.html" target="_top" xlink:title="String class.">
<polygon fill="none" stroke="black" points="227,-398.5 227,-419.5 315,-419.5 315,-398.5 227,-398.5"/>
<text text-anchor="middle" x="271" y="-406.5" font-family="FreeSans" font-size="10.00">Urho3D::String</text>
</a>
</g>
<!-- Node14&#45;&gt;Node3 -->
<g id="edge54" class="edge"><title>Node14&#45;&gt;Node3</title>
<path fill="none" stroke="#9a32cd" stroke-dasharray="5,2" d="M325.096,-406.838C413.04,-404.05 582.756,-401.902 638,-424 696.19,-447.276 707.576,-465.998 744,-517 781.749,-569.858 803.425,-646.431 810.452,-674.326"/>
<polygon fill="#9a32cd" stroke="#9a32cd" points="324.925,-403.342 315.046,-407.171 325.157,-410.338 324.925,-403.342"/>
<text text-anchor="middle" x="549" y="-480" font-family="FreeSans" font-size="10.00"> lastShaderName_</text>
<text text-anchor="middle" x="549" y="-467" font-family="FreeSans" font-size="10.00">windowTitle_</text>
<text text-anchor="middle" x="549" y="-454" font-family="FreeSans" font-size="10.00">shaderPath_</text>
<text text-anchor="middle" x="549" y="-441" font-family="FreeSans" font-size="10.00">orientations_</text>
<text text-anchor="middle" x="549" y="-428" font-family="FreeSans" font-size="10.00">shaderExtension_</text>
</g>
<!-- Node14&#45;&gt;Node13 -->
<g id="edge32" class="edge"><title>Node14&#45;&gt;Node13</title>
<path fill="none" stroke="#9a32cd" stroke-dasharray="5,2" d="M325.047,-419.295C372.222,-428.807 434.327,-442.816 442,-452 479.986,-497.466 421.442,-673.018 460,-718 465.772,-724.733 473.277,-729.478 481.482,-732.781"/>
<polygon fill="#9a32cd" stroke="#9a32cd" points="325.724,-415.861 315.232,-417.337 324.354,-422.726 325.724,-415.861"/>
<text text-anchor="middle" x="402" y="-456" font-family="FreeSans" font-size="10.00"> linkerOutput_</text>
</g>
<!-- Node14&#45;&gt;Node14 -->
<g id="edge34" class="edge"><title>Node14&#45;&gt;Node14</title>
<path fill="none" stroke="#9a32cd" stroke-dasharray="5,2" d="M249.622,-429.427C251.272,-434.349 258.397,-438 271,-438 291.164,-438 297.308,-428.653 289.431,-419.708"/>
<polygon fill="#9a32cd" stroke="#9a32cd" points="253.017,-430.293 252.569,-419.708 246.318,-428.262 253.017,-430.293"/>
<text text-anchor="middle" x="271" y="-442" font-family="FreeSans" font-size="10.00"> EMPTY</text>
</g>
<!-- Node14&#45;&gt;Node23 -->
<g id="edge70" class="edge"><title>Node14&#45;&gt;Node23</title>
<path fill="none" stroke="#9a32cd" stroke-dasharray="5,2" d="M295.085,-392.928C312.939,-381.598 338.202,-366.761 362,-357 386.514,-346.945 452.356,-331.708 498.954,-321.559"/>
<polygon fill="#9a32cd" stroke="#9a32cd" points="292.975,-390.124 286.471,-398.488 296.771,-396.006 292.975,-390.124"/>
<text text-anchor="middle" x="402" y="-387" font-family="FreeSans" font-size="10.00"> defines_</text>
<text text-anchor="middle" x="402" y="-374" font-family="FreeSans" font-size="10.00">name_</text>
<text text-anchor="middle" x="402" y="-361" font-family="FreeSans" font-size="10.00">compilerOutput_</text>
</g>
<!-- Node15 -->
<g id="node32" class="node"><title>Node15</title>
<a xlink:href="a00388.html" target="_top" xlink:title="Urho3D::Vector\&lt; Urho3D\l::GPUObject * \&gt;">
<polygon fill="none" stroke="red" points="480,-340 480,-374 618,-374 618,-340 480,-340"/>
<text text-anchor="start" x="488" y="-361" font-family="FreeSans" font-size="10.00">Urho3D::Vector&lt; Urho3D</text>
<text text-anchor="middle" x="549" y="-348" font-family="FreeSans" font-size="10.00">::GPUObject * &gt;</text>
</a>
</g>
<!-- Node15&#45;&gt;Node3 -->
<g id="edge36" class="edge"><title>Node15&#45;&gt;Node3</title>
<path fill="none" stroke="#9a32cd" stroke-dasharray="5,2" d="M628.151,-347.835C667.565,-347.716 713.24,-354.949 744,-383 788.607,-423.678 808.042,-625.263 812.149,-674.256"/>
<polygon fill="#9a32cd" stroke="#9a32cd" points="627.947,-344.338 618.014,-348.025 628.078,-351.337 627.947,-344.338"/>
<text text-anchor="middle" x="700" y="-387" font-family="FreeSans" font-size="10.00"> gpuObjects_</text>
</g>
<!-- Node16&#45;&gt;Node3 -->
<g id="edge38" class="edge"><title>Node16&#45;&gt;Node3</title>
<path fill="none" stroke="#9a32cd" stroke-dasharray="5,2" d="M618.534,-970.466C667.115,-961.727 726.322,-947.855 744,-930 778.355,-895.3 804.816,-737.924 811.41,-695.541"/>
<polygon fill="#9a32cd" stroke="#9a32cd" points="617.906,-967.022 608.662,-972.198 619.117,-973.917 617.906,-967.022"/>
<text text-anchor="middle" x="700" y="-966" font-family="FreeSans" font-size="10.00"> vertexBuffers_</text>
</g>
<!-- Node17 -->
<g id="node38" class="node"><title>Node17</title>
<a xlink:href="a00402.html" target="_top" xlink:title="Urho3D::WeakPtr\&lt; Urho3D\l::Shader \&gt;">
<polygon fill="none" stroke="red" points="198,-245 198,-279 344,-279 344,-245 198,-245"/>
<text text-anchor="start" x="206" y="-266" font-family="FreeSans" font-size="10.00">Urho3D::WeakPtr&lt; Urho3D</text>
<text text-anchor="middle" x="271" y="-253" font-family="FreeSans" font-size="10.00">::Shader &gt;</text>
</a>
</g>
<!-- Node17&#45;&gt;Node3 -->
<g id="edge44" class="edge"><title>Node17&#45;&gt;Node3</title>
<path fill="none" stroke="#9a32cd" stroke-dasharray="5,2" d="M354.556,-254.549C475.146,-245.764 689.512,-238.153 744,-289 802.292,-343.397 811.496,-616.178 812.8,-674.156"/>
<polygon fill="#9a32cd" stroke="#9a32cd" points="353.969,-251.083 344.258,-255.319 354.491,-258.064 353.969,-251.083"/>
<text text-anchor="middle" x="549" y="-259" font-family="FreeSans" font-size="10.00"> lastShader_</text>
</g>
<!-- Node17&#45;&gt;Node23 -->
<g id="edge68" class="edge"><title>Node17&#45;&gt;Node23</title>
<path fill="none" stroke="#9a32cd" stroke-dasharray="5,2" d="M354.021,-276.633C397.454,-284.289 449.641,-293.487 489.09,-300.44"/>
<polygon fill="#9a32cd" stroke="#9a32cd" points="354.497,-273.163 344.041,-274.874 353.282,-280.057 354.497,-273.163"/>
<text text-anchor="middle" x="402" y="-295" font-family="FreeSans" font-size="10.00"> owner_</text>
</g>
<!-- Node18 -->
<g id="node40" class="node"><title>Node18</title>
<a xlink:href="a00291.html" target="_top" xlink:title="Reference count structure.">
<polygon fill="none" stroke="black" points="5,-63.5 5,-84.5 107,-84.5 107,-63.5 5,-63.5"/>
<text text-anchor="middle" x="56" y="-71.5" font-family="FreeSans" font-size="10.00">Urho3D::RefCount</text>
</a>
</g>
<!-- Node18&#45;&gt;Node2 -->
<g id="edge80" class="edge"><title>Node18&#45;&gt;Node2</title>
<path fill="none" stroke="#9a32cd" stroke-dasharray="5,2" d="M82.4605,-58.497C122.064,-36.7991 199.736,-0 271,-0 271,-0 271,-0 813,-0 955.584,-0 989.166,-561.371 994.248,-667.725"/>
<polygon fill="#9a32cd" stroke="#9a32cd" points="80.714,-55.4636 73.6924,-63.3976 84.1292,-61.5739 80.714,-55.4636"/>
<text text-anchor="middle" x="549" y="-4" font-family="FreeSans" font-size="10.00"> refCount_</text>
</g>
<!-- Node18&#45;&gt;Node17 -->
<g id="edge46" class="edge"><title>Node18&#45;&gt;Node17</title>
<path fill="none" stroke="#9a32cd" stroke-dasharray="5,2" d="M75.8836,-91.3866C116.982,-127.323 210.84,-209.395 251.557,-244.999"/>
<polygon fill="#9a32cd" stroke="#9a32cd" points="78.0072,-88.5942 68.1754,-84.6464 73.3994,-93.8637 78.0072,-88.5942"/>
<text text-anchor="middle" x="155" y="-184" font-family="FreeSans" font-size="10.00"> refCount_</text>
</g>
<!-- Node19 -->
<g id="node43" class="node"><title>Node19</title>
<a xlink:href="a00226.html" target="_top" xlink:title="3x3 matrix for rotation and scaling.">
<polygon fill="none" stroke="black" points="501.5,-167.5 501.5,-188.5 596.5,-188.5 596.5,-167.5 501.5,-167.5"/>
<text text-anchor="middle" x="549" y="-175.5" font-family="FreeSans" font-size="10.00">Urho3D::Matrix3</text>
</a>
</g>
<!-- Node19&#45;&gt;Node3 -->
<g id="edge50" class="edge"><title>Node19&#45;&gt;Node3</title>
<path fill="none" stroke="#9a32cd" stroke-dasharray="5,2" d="M606.888,-181.264C651.167,-186.988 710.19,-202.191 744,-242 801.945,-310.227 811.466,-613.444 812.802,-674.331"/>
<polygon fill="#9a32cd" stroke="#9a32cd" points="607.166,-177.772 596.829,-180.091 606.356,-184.725 607.166,-177.772"/>
<text text-anchor="middle" x="700" y="-246" font-family="FreeSans" font-size="10.00"> tempMatrices3_</text>
</g>
<!-- Node19&#45;&gt;Node19 -->
<g id="edge52" class="edge"><title>Node19&#45;&gt;Node19</title>
<path fill="none" stroke="#9a32cd" stroke-dasharray="5,2" d="M521.951,-198.055C523.725,-203.164 532.742,-207 549,-207 574.379,-207 582.112,-197.653 572.198,-188.708"/>
<polygon fill="#9a32cd" stroke="#9a32cd" points="525.229,-199.287 525.802,-188.708 518.757,-196.621 525.229,-199.287"/>
<text text-anchor="middle" x="549" y="-224" font-family="FreeSans" font-size="10.00"> IDENTITY</text>
<text text-anchor="middle" x="549" y="-211" font-family="FreeSans" font-size="10.00">ZERO</text>
</g>
<!-- Node20 -->
<g id="node47" class="node"><title>Node20</title>
<a xlink:href="a00331.html" target="_top" xlink:title="Urho3D::SharedPtr\&lt;\l Urho3D::ShaderPrecache \&gt;">
<polygon fill="none" stroke="red" points="473,-115 473,-149 625,-149 625,-115 473,-115"/>
<text text-anchor="start" x="481" y="-136" font-family="FreeSans" font-size="10.00">Urho3D::SharedPtr&lt;</text>
<text text-anchor="middle" x="549" y="-123" font-family="FreeSans" font-size="10.00"> Urho3D::ShaderPrecache &gt;</text>
</a>
</g>
<!-- Node20&#45;&gt;Node3 -->
<g id="edge56" class="edge"><title>Node20&#45;&gt;Node3</title>
<path fill="none" stroke="#9a32cd" stroke-dasharray="5,2" d="M635.645,-130.442C674.123,-134.478 716.772,-146.288 744,-176 779.095,-214.297 807.465,-604.529 812.279,-674.34"/>
<polygon fill="#9a32cd" stroke="#9a32cd" points="635.713,-126.935 625.443,-129.539 635.096,-133.907 635.713,-126.935"/>
<text text-anchor="middle" x="700" y="-180" font-family="FreeSans" font-size="10.00"> shaderPrecache_</text>
</g>
<!-- Node21 -->
<g id="node49" class="node"><title>Node21</title>
<a xlink:href="a00228.html" target="_top" xlink:title="4x4 matrix for arbitrary linear transforms including projection.">
<polygon fill="none" stroke="black" points="501.5,-31.5 501.5,-52.5 596.5,-52.5 596.5,-31.5 501.5,-31.5"/>
<text text-anchor="middle" x="549" y="-39.5" font-family="FreeSans" font-size="10.00">Urho3D::Matrix4</text>
</a>
</g>
<!-- Node21&#45;&gt;Node3 -->
<g id="edge58" class="edge"><title>Node21&#45;&gt;Node3</title>
<path fill="none" stroke="#9a32cd" stroke-dasharray="5,2" d="M606.391,-48.5161C651.148,-56.8037 711.064,-75.574 744,-118 779.573,-163.823 807.764,-599.61 812.347,-674.173"/>
<polygon fill="#9a32cd" stroke="#9a32cd" points="606.964,-45.0634 596.514,-46.8099 605.772,-51.9612 606.964,-45.0634"/>
<text text-anchor="middle" x="700" y="-122" font-family="FreeSans" font-size="10.00"> tempMatrices4_</text>
</g>
<!-- Node21&#45;&gt;Node21 -->
<g id="edge60" class="edge"><title>Node21&#45;&gt;Node21</title>
<path fill="none" stroke="#9a32cd" stroke-dasharray="5,2" d="M521.951,-62.0551C523.725,-67.164 532.742,-71 549,-71 574.379,-71 582.112,-61.6531 572.198,-52.7079"/>
<polygon fill="#9a32cd" stroke="#9a32cd" points="525.229,-63.2872 525.802,-52.7079 518.757,-60.6206 525.229,-63.2872"/>
<text text-anchor="middle" x="549" y="-88" font-family="FreeSans" font-size="10.00"> IDENTITY</text>
<text text-anchor="middle" x="549" y="-75" font-family="FreeSans" font-size="10.00">ZERO</text>
</g>
<!-- Node22 -->
<g id="node52" class="node"><title>Node22</title>
<a xlink:href="a00181.html" target="_top" xlink:title="Graphics subsystem implementation. Holds API&#45;specific objects.">
<polygon fill="none" stroke="red" points="488,-1139.5 488,-1160.5 610,-1160.5 610,-1139.5 488,-1139.5"/>
<text text-anchor="middle" x="549" y="-1147.5" font-family="FreeSans" font-size="10.00">Urho3D::GraphicsImpl</text>
</a>
</g>
<!-- Node22&#45;&gt;Node3 -->
<g id="edge62" class="edge"><title>Node22&#45;&gt;Node3</title>
<path fill="none" stroke="#9a32cd" stroke-dasharray="5,2" d="M620.52,-1159C661.998,-1160.03 712.166,-1153.39 744,-1122 775.583,-1090.86 806.35,-760.101 812.058,-695.798"/>
<polygon fill="#9a32cd" stroke="#9a32cd" points="620.583,-1155.5 610.452,-1158.6 620.305,-1162.49 620.583,-1155.5"/>
<text text-anchor="middle" x="700" y="-1161" font-family="FreeSans" font-size="10.00"> impl_</text>
</g>
<!-- Node23&#45;&gt;Node3 -->
<g id="edge64" class="edge"><title>Node23&#45;&gt;Node3</title>
<path fill="none" stroke="#9a32cd" stroke-dasharray="5,2" d="M595.698,-298.387C639.379,-289.648 703.76,-285.059 744,-320 799.39,-368.097 810.825,-618.963 812.684,-674.224"/>
<polygon fill="#9a32cd" stroke="#9a32cd" points="594.934,-294.971 585.888,-300.488 596.4,-301.816 594.934,-294.971"/>
<text text-anchor="middle" x="700" y="-337" font-family="FreeSans" font-size="10.00"> pixelShader_</text>
<text text-anchor="middle" x="700" y="-324" font-family="FreeSans" font-size="10.00">vertexShader_</text>
</g>
<!-- Node24 -->
<g id="node59" class="node"><title>Node24</title>
<a xlink:href="a00235.html" target="_top" xlink:title="Operating system mutual exclusion primitive.">
<polygon fill="none" stroke="black" points="504.5,-1050.5 504.5,-1071.5 593.5,-1071.5 593.5,-1050.5 504.5,-1050.5"/>
<text text-anchor="middle" x="549" y="-1058.5" font-family="FreeSans" font-size="10.00">Urho3D::Mutex</text>
</a>
</g>
<!-- Node24&#45;&gt;Node3 -->
<g id="edge72" class="edge"><title>Node24&#45;&gt;Node3</title>
<path fill="none" stroke="#9a32cd" stroke-dasharray="5,2" d="M603.97,-1070.48C647.508,-1074.63 706.971,-1072.33 744,-1038 795.975,-989.815 810.028,-749.53 812.545,-695.708"/>
<polygon fill="#9a32cd" stroke="#9a32cd" points="604.147,-1066.98 593.825,-1069.37 603.385,-1073.93 604.147,-1066.98"/>
<text text-anchor="middle" x="700" y="-1075" font-family="FreeSans" font-size="10.00"> gpuObjectMutex_</text>
</g>
<!-- Node25&#45;&gt;Node3 -->
<g id="edge74" class="edge"><title>Node25&#45;&gt;Node3</title>
<path fill="none" stroke="#9a32cd" stroke-dasharray="5,2" d="M615.673,-770.208C654.377,-764.014 703.356,-753.251 744,-735 766.133,-725.062 788.225,-707.337 801.246,-695.881"/>
<polygon fill="#9a32cd" stroke="#9a32cd" points="614.91,-766.784 605.557,-771.761 615.972,-773.703 614.91,-766.784"/>
<text text-anchor="middle" x="700" y="-765" font-family="FreeSans" font-size="10.00"> indexBuffer_</text>
</g>
</g>
</svg>
