<?xml version="1.0" encoding="UTF-8" standalone="no"?>
<!DOCTYPE svg PUBLIC "-//W3C//DTD SVG 1.1//EN"
 "http://www.w3.org/Graphics/SVG/1.1/DTD/svg11.dtd">
<!-- Generated by graphviz version 2.26.3 (20100126.1600)
 -->
<!-- Title: Urho3D::ParticleEffect Pages: 1 -->
<svg width="1994pt" height="868pt"
 viewBox="0.00 0.00 1994.00 868.00" xmlns="http://www.w3.org/2000/svg" xmlns:xlink="http://www.w3.org/1999/xlink">
<g id="graph1" class="graph" transform="scale(1 1) rotate(0) translate(4 864)">
<title>Urho3D::ParticleEffect</title>
<!-- Node1 -->
<g id="node1" class="node"><title>Node1</title>
<polygon fill="#bfbfbf" stroke="black" points="1864.5,-338.5 1864.5,-359.5 1985.5,-359.5 1985.5,-338.5 1864.5,-338.5"/>
<text text-anchor="middle" x="1925" y="-346.5" font-family="FreeSans" font-size="10.00">Urho3D::ParticleEffect</text>
</g>
<!-- Node2 -->
<g id="node2" class="node"><title>Node2</title>
<a xlink:href="a00299.html" target="_top" xlink:title="Base class for resources.">
<polygon fill="none" stroke="black" points="1104.5,-337.5 1104.5,-358.5 1207.5,-358.5 1207.5,-337.5 1104.5,-337.5"/>
<text text-anchor="middle" x="1156" y="-345.5" font-family="FreeSans" font-size="10.00">Urho3D::Resource</text>
</a>
</g>
<!-- Node2&#45;&gt;Node1 -->
<g id="edge2" class="edge"><title>Node2&#45;&gt;Node1</title>
<path fill="none" stroke="midnightblue" d="M1217.68,-348.08C1362.15,-348.268 1721.06,-348.735 1864.43,-348.921"/>
<polygon fill="midnightblue" stroke="midnightblue" points="1217.65,-344.58 1207.65,-348.067 1217.65,-351.58 1217.65,-344.58"/>
</g>
<!-- Node19 -->
<g id="node47" class="node"><title>Node19</title>
<a xlink:href="a00221.html" target="_top" xlink:title="Describes how to render 3D geometries.">
<polygon fill="none" stroke="black" points="1454,-475.5 1454,-496.5 1552,-496.5 1552,-475.5 1454,-475.5"/>
<text text-anchor="middle" x="1503" y="-483.5" font-family="FreeSans" font-size="10.00">Urho3D::Material</text>
</a>
</g>
<!-- Node2&#45;&gt;Node19 -->
<g id="edge60" class="edge"><title>Node2&#45;&gt;Node19</title>
<path fill="none" stroke="midnightblue" d="M1217.82,-357.1C1282.4,-367.298 1378.85,-384.683 1412,-402 1447.83,-420.714 1480.11,-457.244 1494.73,-475.33"/>
<polygon fill="midnightblue" stroke="midnightblue" points="1218.16,-353.611 1207.74,-355.526 1217.08,-360.527 1218.16,-353.611"/>
</g>
<!-- Node3 -->
<g id="node4" class="node"><title>Node3</title>
<a xlink:href="a00247.html" target="_top" xlink:title="Base class for objects with type identification, subsystem access and event sending/receiving capabil...">
<polygon fill="none" stroke="black" points="778,-586.5 778,-607.5 868,-607.5 868,-586.5 778,-586.5"/>
<text text-anchor="middle" x="823" y="-594.5" font-family="FreeSans" font-size="10.00">Urho3D::Object</text>
</a>
</g>
<!-- Node3&#45;&gt;Node2 -->
<g id="edge4" class="edge"><title>Node3&#45;&gt;Node2</title>
<path fill="none" stroke="midnightblue" d="M842.254,-579.286C880.299,-544.048 967.369,-462.236 1036,-389 1044.41,-380.03 1043.38,-374.192 1054,-368 1069.12,-359.183 1087.43,-354.176 1104.33,-351.358"/>
<polygon fill="midnightblue" stroke="midnightblue" points="839.872,-576.721 834.903,-586.078 844.623,-581.862 839.872,-576.721"/>
</g>
<!-- Node9 -->
<g id="node17" class="node"><title>Node9</title>
<a xlink:href="a00154.html" target="_top" xlink:title="Internal helper class for invoking event handler functions.">
<polygon fill="none" stroke="red" points="1094,-714.5 1094,-735.5 1218,-735.5 1218,-714.5 1094,-714.5"/>
<text text-anchor="middle" x="1156" y="-722.5" font-family="FreeSans" font-size="10.00">Urho3D::EventHandler</text>
</a>
</g>
<!-- Node3&#45;&gt;Node9 -->
<g id="edge20" class="edge"><title>Node3&#45;&gt;Node9</title>
<path fill="none" stroke="#9a32cd" stroke-dasharray="5,2" d="M869.213,-611.446C872.946,-613.142 876.59,-614.992 880,-617 889.224,-622.43 888.278,-628.521 898,-633 954.231,-658.907 987.643,-613.339 1036,-652 1053.8,-666.227 1036.96,-684.871 1054,-700 1065.11,-709.867 1079.48,-715.985 1093.92,-719.742"/>
<polygon fill="#9a32cd" stroke="#9a32cd" points="870.405,-608.152 859.827,-607.548 867.72,-614.616 870.405,-608.152"/>
<text text-anchor="middle" x="967" y="-669" font-family="FreeSans" font-size="10.00"> sender_</text>
<text text-anchor="middle" x="967" y="-656" font-family="FreeSans" font-size="10.00">receiver_</text>
</g>
<!-- Node4 -->
<g id="node6" class="node"><title>Node4</title>
<a xlink:href="a00290.html" target="_top" xlink:title="Base class for intrusively reference&#45;counted objects. These are noncopyable and non&#45;assignable.">
<polygon fill="none" stroke="black" points="203,-622.5 203,-643.5 317,-643.5 317,-622.5 203,-622.5"/>
<text text-anchor="middle" x="260" y="-630.5" font-family="FreeSans" font-size="10.00">Urho3D::RefCounted</text>
</a>
</g>
<!-- Node4&#45;&gt;Node3 -->
<g id="edge6" class="edge"><title>Node4&#45;&gt;Node3</title>
<path fill="none" stroke="midnightblue" d="M327.274,-628.698C443.521,-621.265 679.003,-606.208 777.781,-599.891"/>
<polygon fill="midnightblue" stroke="midnightblue" points="326.838,-625.219 317.082,-629.35 327.285,-632.205 326.838,-625.219"/>
</g>
<!-- Node6 -->
<g id="node10" class="node"><title>Node6</title>
<a xlink:href="a00128.html" target="_top" xlink:title="Urho3D execution context. Provides access to subsystems, object factories and attributes, and event receivers.">
<polygon fill="none" stroke="red" points="494.5,-691.5 494.5,-712.5 591.5,-712.5 591.5,-691.5 494.5,-691.5"/>
<text text-anchor="middle" x="543" y="-699.5" font-family="FreeSans" font-size="10.00">Urho3D::Context</text>
</a>
</g>
<!-- Node4&#45;&gt;Node6 -->
<g id="edge12" class="edge"><title>Node4&#45;&gt;Node6</title>
<path fill="none" stroke="midnightblue" d="M313.015,-645.926C366.963,-659.079 449.574,-679.221 499.715,-691.446"/>
<polygon fill="midnightblue" stroke="midnightblue" points="313.834,-642.523 303.29,-643.555 312.176,-649.324 313.834,-642.523"/>
</g>
<!-- Node5 -->
<g id="node8" class="node"><title>Node5</title>
<a xlink:href="a00289.html" target="_top" xlink:title="Reference count structure.">
<polygon fill="none" stroke="black" points="6,-622.5 6,-643.5 108,-643.5 108,-622.5 6,-622.5"/>
<text text-anchor="middle" x="57" y="-630.5" font-family="FreeSans" font-size="10.00">Urho3D::RefCount</text>
</a>
</g>
<!-- Node5&#45;&gt;Node4 -->
<g id="edge8" class="edge"><title>Node5&#45;&gt;Node4</title>
<path fill="none" stroke="#9a32cd" stroke-dasharray="5,2" d="M118.263,-633C145.075,-633 176.357,-633 202.702,-633"/>
<polygon fill="#9a32cd" stroke="#9a32cd" points="118.226,-629.5 108.225,-633 118.225,-636.5 118.226,-629.5"/>
<text text-anchor="middle" x="157" y="-637" font-family="FreeSans" font-size="10.00"> refCount_</text>
</g>
<!-- Node6&#45;&gt;Node3 -->
<g id="edge10" class="edge"><title>Node6&#45;&gt;Node3</title>
<path fill="none" stroke="#9a32cd" stroke-dasharray="5,2" d="M582.204,-688.053C623.661,-673.123 690.84,-648.414 748,-625 756.101,-621.682 757.863,-620.23 766,-617 774.188,-613.75 783.14,-610.48 791.472,-607.552"/>
<polygon fill="#9a32cd" stroke="#9a32cd" points="580.976,-684.775 572.748,-691.449 583.342,-691.363 580.976,-684.775"/>
<text text-anchor="middle" x="679" y="-681" font-family="FreeSans" font-size="10.00"> context_</text>
</g>
<!-- Node7 -->
<g id="node13" class="node"><title>Node7</title>
<a xlink:href="a00276.html" target="_top" xlink:title="Urho3D::PODVector\&lt;\l Urho3D::Object * \&gt;">
<polygon fill="none" stroke="black" points="200.5,-694 200.5,-728 319.5,-728 319.5,-694 200.5,-694"/>
<text text-anchor="start" x="208.5" y="-715" font-family="FreeSans" font-size="10.00">Urho3D::PODVector&lt;</text>
<text text-anchor="middle" x="260" y="-702" font-family="FreeSans" font-size="10.00"> Urho3D::Object * &gt;</text>
</a>
</g>
<!-- Node7&#45;&gt;Node6 -->
<g id="edge14" class="edge"><title>Node7&#45;&gt;Node6</title>
<path fill="none" stroke="#9a32cd" stroke-dasharray="5,2" d="M329.971,-708.775C381.03,-707.151 448.948,-704.991 494.23,-703.551"/>
<polygon fill="#9a32cd" stroke="#9a32cd" points="329.555,-705.286 319.671,-709.102 329.777,-712.283 329.555,-705.286"/>
<text text-anchor="middle" x="407" y="-712" font-family="FreeSans" font-size="10.00"> eventSenders_</text>
</g>
<!-- Node8 -->
<g id="node15" class="node"><title>Node8</title>
<a xlink:href="a00391.html" target="_top" xlink:title="Vector base class.">
<polygon fill="none" stroke="black" points="0,-774.5 0,-795.5 114,-795.5 114,-774.5 0,-774.5"/>
<text text-anchor="middle" x="57" y="-782.5" font-family="FreeSans" font-size="10.00">Urho3D::VectorBase</text>
</a>
</g>
<!-- Node8&#45;&gt;Node7 -->
<g id="edge16" class="edge"><title>Node8&#45;&gt;Node7</title>
<path fill="none" stroke="midnightblue" d="M88.5802,-770.228C101.858,-764.247 117.549,-757.476 132,-752 154.802,-743.359 180.317,-734.94 202.53,-728.003"/>
<polygon fill="midnightblue" stroke="midnightblue" points="87.0408,-767.083 79.3911,-774.413 89.9424,-773.453 87.0408,-767.083"/>
</g>
<!-- Node14 -->
<g id="node32" class="node"><title>Node14</title>
<a xlink:href="a00387.html" target="_top" xlink:title="Urho3D::Vector\&lt; Urho3D\l::ColorFrame \&gt;">
<polygon fill="none" stroke="black" points="610,-826 610,-860 748,-860 748,-826 610,-826"/>
<text text-anchor="start" x="618" y="-847" font-family="FreeSans" font-size="10.00">Urho3D::Vector&lt; Urho3D</text>
<text text-anchor="middle" x="679" y="-834" font-family="FreeSans" font-size="10.00">::ColorFrame &gt;</text>
</a>
</g>
<!-- Node8&#45;&gt;Node14 -->
<g id="edge40" class="edge"><title>Node8&#45;&gt;Node14</title>
<path fill="none" stroke="midnightblue" d="M84.0799,-800.313C97.9568,-807.362 115.393,-815.029 132,-819 299.796,-859.127 504.617,-854.419 609.619,-848.281"/>
<polygon fill="midnightblue" stroke="midnightblue" points="85.5748,-797.144 75.0954,-795.584 82.3145,-803.339 85.5748,-797.144"/>
</g>
<!-- Node17 -->
<g id="node41" class="node"><title>Node17</title>
<a xlink:href="a00387.html" target="_top" xlink:title="Urho3D::Vector\&lt; Urho3D\l::TextureFrame \&gt;">
<polygon fill="none" stroke="black" points="898,-786 898,-820 1036,-820 1036,-786 898,-786"/>
<text text-anchor="start" x="906" y="-807" font-family="FreeSans" font-size="10.00">Urho3D::Vector&lt; Urho3D</text>
<text text-anchor="middle" x="967" y="-794" font-family="FreeSans" font-size="10.00">::TextureFrame &gt;</text>
</a>
</g>
<!-- Node8&#45;&gt;Node17 -->
<g id="edge52" class="edge"><title>Node8&#45;&gt;Node17</title>
<path fill="none" stroke="midnightblue" d="M124.199,-794.961C163.659,-799.974 214.554,-805 260,-805 260,-805 260,-805 679,-805 753.752,-805 839.415,-804.318 897.752,-803.75"/>
<polygon fill="midnightblue" stroke="midnightblue" points="124.533,-791.475 114.165,-793.656 123.63,-798.417 124.533,-791.475"/>
</g>
<!-- Node22 -->
<g id="node54" class="node"><title>Node22</title>
<a xlink:href="a00387.html" target="_top" xlink:title="Urho3D::Vector\&lt; Urho3D\l::TechniqueEntry \&gt;">
<polygon fill="none" stroke="black" points="338,-748 338,-782 476,-782 476,-748 338,-748"/>
<text text-anchor="start" x="346" y="-769" font-family="FreeSans" font-size="10.00">Urho3D::Vector&lt; Urho3D</text>
<text text-anchor="middle" x="407" y="-756" font-family="FreeSans" font-size="10.00">::TechniqueEntry &gt;</text>
</a>
</g>
<!-- Node8&#45;&gt;Node22 -->
<g id="edge68" class="edge"><title>Node8&#45;&gt;Node22</title>
<path fill="none" stroke="midnightblue" d="M124.367,-781.15C185.766,-777.642 276.063,-772.482 337.975,-768.944"/>
<polygon fill="midnightblue" stroke="midnightblue" points="123.797,-777.677 114.013,-781.742 124.196,-784.666 123.797,-777.677"/>
</g>
<!-- Node9&#45;&gt;Node6 -->
<g id="edge18" class="edge"><title>Node9&#45;&gt;Node6</title>
<path fill="none" stroke="#9a32cd" stroke-dasharray="5,2" d="M1083.88,-723.389C1032.13,-722.149 960.761,-720.266 898,-718 788.409,-714.044 659.858,-707.868 591.51,-704.462"/>
<polygon fill="#9a32cd" stroke="#9a32cd" points="1083.87,-726.89 1093.95,-723.628 1084.04,-719.892 1083.87,-726.89"/>
<text text-anchor="middle" x="823" y="-721" font-family="FreeSans" font-size="10.00"> eventHandler_</text>
</g>
<!-- Node11 -->
<g id="node23" class="node"><title>Node11</title>
<a xlink:href="a00207.html" target="_top" xlink:title="Urho3D::LinkedList\l\&lt; Urho3D::EventHandler \&gt;">
<polygon fill="none" stroke="black" points="1430,-699 1430,-733 1576,-733 1576,-699 1430,-699"/>
<text text-anchor="start" x="1438" y="-720" font-family="FreeSans" font-size="10.00">Urho3D::LinkedList</text>
<text text-anchor="middle" x="1503" y="-707" font-family="FreeSans" font-size="10.00">&lt; Urho3D::EventHandler &gt;</text>
</a>
</g>
<!-- Node9&#45;&gt;Node11 -->
<g id="edge28" class="edge"><title>Node9&#45;&gt;Node11</title>
<path fill="none" stroke="#9a32cd" stroke-dasharray="5,2" d="M1228.04,-723.132C1287.11,-721.599 1370.38,-719.44 1429.77,-717.899"/>
<polygon fill="#9a32cd" stroke="#9a32cd" points="1227.94,-719.633 1218.04,-723.391 1228.12,-726.63 1227.94,-719.633"/>
<text text-anchor="middle" x="1344" y="-725" font-family="FreeSans" font-size="10.00"> head_</text>
</g>
<!-- Node10 -->
<g id="node20" class="node"><title>Node10</title>
<a xlink:href="a00353.html" target="_top" xlink:title="32&#45;bit hash value for a string.">
<polygon fill="none" stroke="black" points="766.5,-626.5 766.5,-647.5 879.5,-647.5 879.5,-626.5 766.5,-626.5"/>
<text text-anchor="middle" x="823" y="-634.5" font-family="FreeSans" font-size="10.00">Urho3D::StringHash</text>
</a>
</g>
<!-- Node10&#45;&gt;Node2 -->
<g id="edge36" class="edge"><title>Node10&#45;&gt;Node2</title>
<path fill="none" stroke="#9a32cd" stroke-dasharray="5,2" d="M869.439,-622.586C873.102,-620.887 876.668,-619.027 880,-617 961.386,-567.484 990.756,-553.836 1036,-470 1057.86,-429.489 1021.76,-400.858 1054,-368 1067.08,-354.669 1086.26,-348.848 1104.46,-346.644"/>
<polygon fill="#9a32cd" stroke="#9a32cd" points="868.066,-619.367 860.214,-626.481 870.788,-625.816 868.066,-619.367"/>
<text text-anchor="middle" x="967" y="-609" font-family="FreeSans" font-size="10.00"> nameHash_</text>
</g>
<!-- Node10&#45;&gt;Node9 -->
<g id="edge22" class="edge"><title>Node10&#45;&gt;Node9</title>
<path fill="none" stroke="#9a32cd" stroke-dasharray="5,2" d="M845.072,-653.277C859.449,-663.09 879.001,-675.005 898,-682 898,-682 1017.53,-701.922 1093.87,-714.646"/>
<polygon fill="#9a32cd" stroke="#9a32cd" points="847.038,-650.381 836.841,-647.502 843.017,-656.111 847.038,-650.381"/>
<text text-anchor="middle" x="967" y="-708" font-family="FreeSans" font-size="10.00"> eventType_</text>
</g>
<!-- Node10&#45;&gt;Node10 -->
<g id="edge24" class="edge"><title>Node10&#45;&gt;Node10</title>
<path fill="none" stroke="#9a32cd" stroke-dasharray="5,2" d="M796.322,-657.055C798.072,-662.164 806.964,-666 823,-666 848.031,-666 855.658,-656.653 845.88,-647.708"/>
<polygon fill="#9a32cd" stroke="#9a32cd" points="799.598,-658.29 800.12,-647.708 793.113,-655.655 799.598,-658.29"/>
<text text-anchor="middle" x="823" y="-670" font-family="FreeSans" font-size="10.00"> ZERO</text>
</g>
<!-- Node11&#45;&gt;Node3 -->
<g id="edge26" class="edge"><title>Node11&#45;&gt;Node3</title>
<path fill="none" stroke="#9a32cd" stroke-dasharray="5,2" d="M1419.76,-707.188C1293.8,-693.527 1067.88,-667.603 1054,-656 1033.94,-639.232 1057.02,-615.548 1036,-600 983.524,-561.179 902.159,-574.462 856.684,-586.457"/>
<polygon fill="#9a32cd" stroke="#9a32cd" points="1419.44,-710.675 1429.76,-708.271 1420.2,-703.715 1419.44,-710.675"/>
<text text-anchor="middle" x="1156" y="-692" font-family="FreeSans" font-size="10.00"> eventHandlers_</text>
</g>
<!-- Node12 -->
<g id="node26" class="node"><title>Node12</title>
<a xlink:href="a00369.html" target="_top" xlink:title="Low&#45;resolution operating system timer.">
<polygon fill="none" stroke="black" points="780,-368.5 780,-389.5 866,-389.5 866,-368.5 780,-368.5"/>
<text text-anchor="middle" x="823" y="-376.5" font-family="FreeSans" font-size="10.00">Urho3D::Timer</text>
</a>
</g>
<!-- Node12&#45;&gt;Node2 -->
<g id="edge30" class="edge"><title>Node12&#45;&gt;Node2</title>
<path fill="none" stroke="#9a32cd" stroke-dasharray="5,2" d="M876.274,-374.041C938.992,-368.202 1042.44,-358.572 1104.41,-352.802"/>
<polygon fill="#9a32cd" stroke="#9a32cd" points="875.825,-370.567 866.193,-374.979 876.474,-377.537 875.825,-370.567"/>
<text text-anchor="middle" x="967" y="-376" font-family="FreeSans" font-size="10.00"> useTimer_</text>
</g>
<!-- Node13 -->
<g id="node28" class="node"><title>Node13</title>
<a xlink:href="a00352.html" target="_top" xlink:title="String class.">
<polygon fill="none" stroke="black" points="779,-297.5 779,-318.5 867,-318.5 867,-297.5 779,-297.5"/>
<text text-anchor="middle" x="823" y="-305.5" font-family="FreeSans" font-size="10.00">Urho3D::String</text>
</a>
</g>
<!-- Node13&#45;&gt;Node1 -->
<g id="edge54" class="edge"><title>Node13&#45;&gt;Node1</title>
<path fill="none" stroke="#9a32cd" stroke-dasharray="5,2" d="M877.322,-308C943.242,-308 1057.77,-308 1156,-308 1156,-308 1156,-308 1692,-308 1762.23,-308 1842.6,-326.293 1888.23,-338.441"/>
<polygon fill="#9a32cd" stroke="#9a32cd" points="877.17,-304.5 867.17,-308 877.17,-311.5 877.17,-304.5"/>
<text text-anchor="middle" x="1503" y="-312" font-family="FreeSans" font-size="10.00"> loadMaterialName_</text>
</g>
<!-- Node13&#45;&gt;Node2 -->
<g id="edge32" class="edge"><title>Node13&#45;&gt;Node2</title>
<path fill="none" stroke="#9a32cd" stroke-dasharray="5,2" d="M877.408,-317.037C884.331,-318.089 891.326,-319.105 898,-320 969.224,-329.557 1051.85,-338.074 1104.02,-343.137"/>
<polygon fill="#9a32cd" stroke="#9a32cd" points="877.781,-313.553 867.363,-315.478 876.708,-320.47 877.781,-313.553"/>
<text text-anchor="middle" x="967" y="-340" font-family="FreeSans" font-size="10.00"> name_</text>
</g>
<!-- Node13&#45;&gt;Node13 -->
<g id="edge34" class="edge"><title>Node13&#45;&gt;Node13</title>
<path fill="none" stroke="#9a32cd" stroke-dasharray="5,2" d="M796.322,-328.055C798.072,-333.164 806.964,-337 823,-337 848.031,-337 855.658,-327.653 845.88,-318.708"/>
<polygon fill="#9a32cd" stroke="#9a32cd" points="799.598,-329.29 800.12,-318.708 793.113,-326.655 799.598,-329.29"/>
<text text-anchor="middle" x="823" y="-341" font-family="FreeSans" font-size="10.00"> EMPTY</text>
</g>
<!-- Node14&#45;&gt;Node1 -->
<g id="edge38" class="edge"><title>Node14&#45;&gt;Node1</title>
<path fill="none" stroke="#9a32cd" stroke-dasharray="5,2" d="M758.418,-843C816.256,-843 896.484,-843 967,-843 967,-843 967,-843 1692,-843 1727.62,-843 1842.35,-760.349 1846,-755 1892.22,-687.218 1918.87,-416.979 1924.06,-359.702"/>
<polygon fill="#9a32cd" stroke="#9a32cd" points="758.249,-839.5 748.249,-843 758.249,-846.5 758.249,-839.5"/>
<text text-anchor="middle" x="1344" y="-847" font-family="FreeSans" font-size="10.00"> colorFrames_</text>
</g>
<!-- Node15 -->
<g id="node35" class="node"><title>Node15</title>
<a xlink:href="a00388.html" target="_top" xlink:title="Two&#45;dimensional vector.">
<polygon fill="none" stroke="black" points="1644,-162.5 1644,-183.5 1740,-183.5 1740,-162.5 1644,-162.5"/>
<text text-anchor="middle" x="1692" y="-170.5" font-family="FreeSans" font-size="10.00">Urho3D::Vector2</text>
</a>
</g>
<!-- Node15&#45;&gt;Node1 -->
<g id="edge42" class="edge"><title>Node15&#45;&gt;Node1</title>
<path fill="none" stroke="#9a32cd" stroke-dasharray="5,2" d="M1721.36,-188.277C1753.43,-205.594 1805.61,-235.648 1846,-268 1874.06,-290.472 1902.37,-322.207 1916.24,-338.479"/>
<polygon fill="#9a32cd" stroke="#9a32cd" points="1722.95,-185.159 1712.48,-183.531 1719.65,-191.332 1722.95,-185.159"/>
<text text-anchor="middle" x="1807" y="-285" font-family="FreeSans" font-size="10.00"> sizeMin_</text>
<text text-anchor="middle" x="1807" y="-272" font-family="FreeSans" font-size="10.00">sizeMax_</text>
</g>
<!-- Node15&#45;&gt;Node15 -->
<g id="edge44" class="edge"><title>Node15&#45;&gt;Node15</title>
<path fill="none" stroke="#9a32cd" stroke-dasharray="5,2" d="M1676.25,-193.793C1677.64,-198.529 1682.89,-202 1692,-202 1706.95,-202 1711.5,-192.653 1705.66,-183.708"/>
<polygon fill="#9a32cd" stroke="#9a32cd" points="1679.74,-194.209 1678.34,-183.708 1672.88,-192.792 1679.74,-194.209"/>
<text text-anchor="middle" x="1692" y="-271" font-family="FreeSans" font-size="10.00"> ONE</text>
<text text-anchor="middle" x="1692" y="-258" font-family="FreeSans" font-size="10.00">DOWN</text>
<text text-anchor="middle" x="1692" y="-245" font-family="FreeSans" font-size="10.00">RIGHT</text>
<text text-anchor="middle" x="1692" y="-232" font-family="FreeSans" font-size="10.00">LEFT</text>
<text text-anchor="middle" x="1692" y="-219" font-family="FreeSans" font-size="10.00">ZERO</text>
<text text-anchor="middle" x="1692" y="-206" font-family="FreeSans" font-size="10.00">UP</text>
</g>
<!-- Node16 -->
<g id="node38" class="node"><title>Node16</title>
<a xlink:href="a00389.html" target="_top" xlink:title="Three&#45;dimensional vector.">
<polygon fill="none" stroke="black" points="1644,-0.5 1644,-21.5 1740,-21.5 1740,-0.5 1644,-0.5"/>
<text text-anchor="middle" x="1692" y="-8.5" font-family="FreeSans" font-size="10.00">Urho3D::Vector3</text>
</a>
</g>
<!-- Node16&#45;&gt;Node1 -->
<g id="edge46" class="edge"><title>Node16&#45;&gt;Node1</title>
<path fill="none" stroke="#9a32cd" stroke-dasharray="5,2" d="M1714.72,-28.0085C1747.5,-53.5417 1808.27,-104.716 1846,-160 1887.9,-221.391 1914.04,-308.514 1922.23,-338.435"/>
<polygon fill="#9a32cd" stroke="#9a32cd" points="1716.7,-25.115 1706.64,-21.7931 1712.43,-30.6638 1716.7,-25.115"/>
<text text-anchor="middle" x="1807" y="-203" font-family="FreeSans" font-size="10.00"> constantForce_</text>
<text text-anchor="middle" x="1807" y="-190" font-family="FreeSans" font-size="10.00">directionMax_</text>
<text text-anchor="middle" x="1807" y="-177" font-family="FreeSans" font-size="10.00">emitterSize_</text>
<text text-anchor="middle" x="1807" y="-164" font-family="FreeSans" font-size="10.00">directionMin_</text>
</g>
<!-- Node16&#45;&gt;Node16 -->
<g id="edge48" class="edge"><title>Node16&#45;&gt;Node16</title>
<path fill="none" stroke="#9a32cd" stroke-dasharray="5,2" d="M1676.25,-31.7934C1677.64,-36.5291 1682.89,-40 1692,-40 1706.95,-40 1711.5,-30.6531 1705.66,-21.7079"/>
<polygon fill="#9a32cd" stroke="#9a32cd" points="1679.74,-32.2094 1678.34,-21.7079 1672.88,-30.7922 1679.74,-32.2094"/>
<text text-anchor="middle" x="1692" y="-135" font-family="FreeSans" font-size="10.00"> ONE</text>
<text text-anchor="middle" x="1692" y="-122" font-family="FreeSans" font-size="10.00">DOWN</text>
<text text-anchor="middle" x="1692" y="-109" font-family="FreeSans" font-size="10.00">BACK</text>
<text text-anchor="middle" x="1692" y="-96" font-family="FreeSans" font-size="10.00">RIGHT</text>
<text text-anchor="middle" x="1692" y="-83" font-family="FreeSans" font-size="10.00">LEFT</text>
<text text-anchor="middle" x="1692" y="-70" font-family="FreeSans" font-size="10.00">ZERO</text>
<text text-anchor="middle" x="1692" y="-57" font-family="FreeSans" font-size="10.00">FORWARD</text>
<text text-anchor="middle" x="1692" y="-44" font-family="FreeSans" font-size="10.00">UP</text>
</g>
<!-- Node17&#45;&gt;Node1 -->
<g id="edge50" class="edge"><title>Node17&#45;&gt;Node1</title>
<path fill="none" stroke="#9a32cd" stroke-dasharray="5,2" d="M1046.15,-802.668C1122.44,-802.377 1241.12,-802 1344,-802 1344,-802 1344,-802 1692,-802 1897.62,-802 1921.94,-428.351 1924.67,-359.751"/>
<polygon fill="#9a32cd" stroke="#9a32cd" points="1046.12,-799.168 1036.14,-802.707 1046.15,-806.168 1046.12,-799.168"/>
<text text-anchor="middle" x="1503" y="-806" font-family="FreeSans" font-size="10.00"> textureFrames_</text>
</g>
<!-- Node18 -->
<g id="node45" class="node"><title>Node18</title>
<a xlink:href="a00329.html" target="_top" xlink:title="Urho3D::SharedPtr\&lt;\l Urho3D::Material \&gt;">
<polygon fill="none" stroke="black" points="1634,-391 1634,-425 1750,-425 1750,-391 1634,-391"/>
<text text-anchor="start" x="1642" y="-412" font-family="FreeSans" font-size="10.00">Urho3D::SharedPtr&lt;</text>
<text text-anchor="middle" x="1692" y="-399" font-family="FreeSans" font-size="10.00"> Urho3D::Material &gt;</text>
</a>
</g>
<!-- Node18&#45;&gt;Node1 -->
<g id="edge56" class="edge"><title>Node18&#45;&gt;Node1</title>
<path fill="none" stroke="#9a32cd" stroke-dasharray="5,2" d="M1760.12,-390.751C1800,-380.652 1849.08,-368.225 1883.27,-359.566"/>
<polygon fill="#9a32cd" stroke="#9a32cd" points="1759.03,-387.416 1750.19,-393.264 1760.75,-394.202 1759.03,-387.416"/>
<text text-anchor="middle" x="1807" y="-391" font-family="FreeSans" font-size="10.00"> material_</text>
</g>
<!-- Node19&#45;&gt;Node18 -->
<g id="edge58" class="edge"><title>Node19&#45;&gt;Node18</title>
<path fill="none" stroke="#9a32cd" stroke-dasharray="5,2" d="M1537.86,-471.614C1569.73,-458.46 1616.91,-438.988 1650.67,-425.055"/>
<polygon fill="#9a32cd" stroke="#9a32cd" points="1536.4,-468.43 1528.49,-475.481 1539.07,-474.901 1536.4,-468.43"/>
<text text-anchor="middle" x="1605" y="-451" font-family="FreeSans" font-size="10.00"> ptr_</text>
</g>
<!-- Node20 -->
<g id="node50" class="node"><title>Node20</title>
<a xlink:href="a00182.html" target="_top" xlink:title="Urho3D::HashMap\&lt; Urho3D\l::StringHash, Urho3D::\lMaterialShaderParameter \&gt;">
<polygon fill="none" stroke="red" points="1080,-547.5 1080,-594.5 1232,-594.5 1232,-547.5 1080,-547.5"/>
<text text-anchor="start" x="1088" y="-581.5" font-family="FreeSans" font-size="10.00">Urho3D::HashMap&lt; Urho3D</text>
<text text-anchor="start" x="1088" y="-568.5" font-family="FreeSans" font-size="10.00">::StringHash, Urho3D::</text>
<text text-anchor="middle" x="1156" y="-555.5" font-family="FreeSans" font-size="10.00">MaterialShaderParameter &gt;</text>
</a>
</g>
<!-- Node20&#45;&gt;Node19 -->
<g id="edge62" class="edge"><title>Node20&#45;&gt;Node19</title>
<path fill="none" stroke="#9a32cd" stroke-dasharray="5,2" d="M1242.21,-559.876C1292.38,-552.241 1356.48,-540.482 1412,-524 1436.46,-516.74 1463.27,-505.058 1481.41,-496.561"/>
<polygon fill="#9a32cd" stroke="#9a32cd" points="1241.42,-556.455 1232.05,-561.395 1242.46,-563.378 1241.42,-556.455"/>
<text text-anchor="middle" x="1344" y="-557" font-family="FreeSans" font-size="10.00"> shaderParameters_</text>
</g>
<!-- Node21 -->
<g id="node52" class="node"><title>Node21</title>
<a xlink:href="a00182.html" target="_top" xlink:title="Urho3D::HashMap\&lt; Urho3D\l::StringHash, Urho3D::\lSharedPtr\&lt; Urho3D::ShaderParameter\lAnimationInfo \&gt; \&gt;">
<polygon fill="none" stroke="red" points="1054.5,-469 1054.5,-529 1257.5,-529 1257.5,-469 1054.5,-469"/>
<text text-anchor="start" x="1062.5" y="-516" font-family="FreeSans" font-size="10.00">Urho3D::HashMap&lt; Urho3D</text>
<text text-anchor="start" x="1062.5" y="-503" font-family="FreeSans" font-size="10.00">::StringHash, Urho3D::</text>
<text text-anchor="start" x="1062.5" y="-490" font-family="FreeSans" font-size="10.00">SharedPtr&lt; Urho3D::ShaderParameter</text>
<text text-anchor="middle" x="1156" y="-477" font-family="FreeSans" font-size="10.00">AnimationInfo &gt; &gt;</text>
</a>
</g>
<!-- Node21&#45;&gt;Node19 -->
<g id="edge64" class="edge"><title>Node21&#45;&gt;Node19</title>
<path fill="none" stroke="#9a32cd" stroke-dasharray="5,2" d="M1268.11,-494.8C1330.79,-492.452 1405.73,-489.644 1453.83,-487.842"/>
<polygon fill="#9a32cd" stroke="#9a32cd" points="1267.63,-491.315 1257.77,-495.187 1267.89,-498.31 1267.63,-491.315"/>
<text text-anchor="start" x="1276" y="-511" font-family="FreeSans" font-size="10.00"> shaderParameterAnimation</text>
<text text-anchor="middle" x="1344" y="-498" font-family="FreeSans" font-size="10.00">Infos_</text>
</g>
<!-- Node22&#45;&gt;Node19 -->
<g id="edge66" class="edge"><title>Node22&#45;&gt;Node19</title>
<path fill="none" stroke="#9a32cd" stroke-dasharray="5,2" d="M486.164,-765.859C683.458,-767.613 1186.34,-769.576 1258,-745 1338.55,-717.376 1354.14,-693.482 1412,-631 1452.79,-586.951 1485.87,-522.137 1498.01,-496.753"/>
<polygon fill="#9a32cd" stroke="#9a32cd" points="486.186,-762.359 476.154,-765.768 486.122,-769.359 486.186,-762.359"/>
<text text-anchor="middle" x="823" y="-770" font-family="FreeSans" font-size="10.00"> techniques_</text>
</g>
<!-- Node23 -->
<g id="node57" class="node"><title>Node23</title>
<a xlink:href="a00082.html" target="_top" xlink:title="Shadow depth bias parameters.">
<polygon fill="none" stroke="black" points="1088.5,-429.5 1088.5,-450.5 1223.5,-450.5 1223.5,-429.5 1088.5,-429.5"/>
<text text-anchor="middle" x="1156" y="-437.5" font-family="FreeSans" font-size="10.00">Urho3D::BiasParameters</text>
</a>
</g>
<!-- Node23&#45;&gt;Node19 -->
<g id="edge70" class="edge"><title>Node23&#45;&gt;Node19</title>
<path fill="none" stroke="#9a32cd" stroke-dasharray="5,2" d="M1233.96,-449.164C1284.71,-455.274 1352.34,-463.684 1412,-472 1425.62,-473.898 1440.35,-476.101 1453.92,-478.189"/>
<polygon fill="#9a32cd" stroke="#9a32cd" points="1234.06,-445.651 1223.71,-447.935 1233.22,-452.601 1234.06,-445.651"/>
<text text-anchor="middle" x="1344" y="-476" font-family="FreeSans" font-size="10.00"> depthBias_</text>
</g>
<!-- Node24 -->
<g id="node59" class="node"><title>Node24</title>
<a xlink:href="a00329.html" target="_top" xlink:title="Urho3D::SharedPtr\&lt;\l Urho3D::Texture \&gt;">
<polygon fill="none" stroke="red" points="1098,-377 1098,-411 1214,-411 1214,-377 1098,-377"/>
<text text-anchor="start" x="1106" y="-398" font-family="FreeSans" font-size="10.00">Urho3D::SharedPtr&lt;</text>
<text text-anchor="middle" x="1156" y="-385" font-family="FreeSans" font-size="10.00"> Urho3D::Texture &gt;</text>
</a>
</g>
<!-- Node24&#45;&gt;Node19 -->
<g id="edge72" class="edge"><title>Node24&#45;&gt;Node19</title>
<path fill="none" stroke="#9a32cd" stroke-dasharray="5,2" d="M1224.21,-399.338C1276.66,-404.892 1350.35,-415.871 1412,-437 1440.01,-446.599 1469.71,-464.18 1487.3,-475.466"/>
<polygon fill="#9a32cd" stroke="#9a32cd" points="1224.31,-395.83 1214.01,-398.298 1223.6,-402.794 1224.31,-395.83"/>
<text text-anchor="middle" x="1344" y="-441" font-family="FreeSans" font-size="10.00"> textures_</text>
</g>
<!-- Node25 -->
<g id="node61" class="node"><title>Node25</title>
<a xlink:href="a00329.html" target="_top" xlink:title="Urho3D::SharedPtr\&lt;\l Urho3D::XMLFile \&gt;">
<polygon fill="none" stroke="red" points="1098,-613 1098,-647 1214,-647 1214,-613 1098,-613"/>
<text text-anchor="start" x="1106" y="-634" font-family="FreeSans" font-size="10.00">Urho3D::SharedPtr&lt;</text>
<text text-anchor="middle" x="1156" y="-621" font-family="FreeSans" font-size="10.00"> Urho3D::XMLFile &gt;</text>
</a>
</g>
<!-- Node25&#45;&gt;Node19 -->
<g id="edge74" class="edge"><title>Node25&#45;&gt;Node19</title>
<path fill="none" stroke="#9a32cd" stroke-dasharray="5,2" d="M1224.22,-623.636C1277.81,-616.426 1353,-601.306 1412,-570 1447.71,-551.055 1480.05,-514.634 1494.71,-496.622"/>
<polygon fill="#9a32cd" stroke="#9a32cd" points="1223.6,-620.186 1214.13,-624.934 1224.5,-627.129 1223.6,-620.186"/>
<text text-anchor="middle" x="1344" y="-618" font-family="FreeSans" font-size="10.00"> loadXMLFile_</text>
</g>
</g>
</svg>
