<?xml version="1.0" encoding="UTF-8" standalone="no"?>
<!DOCTYPE svg PUBLIC "-//W3C//DTD SVG 1.1//EN"
 "http://www.w3.org/Graphics/SVG/1.1/DTD/svg11.dtd">
<!-- Generated by graphviz version 2.26.3 (20100126.1600)
 -->
<!-- Title: Urho3D::PhysicsWorld Pages: 1 -->
<svg width="1626pt" height="657pt"
 viewBox="0.00 0.00 1626.00 657.00" xmlns="http://www.w3.org/2000/svg" xmlns:xlink="http://www.w3.org/1999/xlink">
<g id="graph1" class="graph" transform="scale(1 1) rotate(0) translate(4 653)">
<title>Urho3D::PhysicsWorld</title>
<!-- Node1 -->
<g id="node1" class="node"><title>Node1</title>
<polygon fill="#bfbfbf" stroke="black" points="1498,-299.5 1498,-320.5 1618,-320.5 1618,-299.5 1498,-299.5"/>
<text text-anchor="middle" x="1558" y="-307.5" font-family="FreeSans" font-size="10.00">Urho3D::PhysicsWorld</text>
</g>
<!-- Node2 -->
<g id="node2" class="node"><title>Node2</title>
<a xlink:href="a00087.html" target="_top" xlink:title="Base class for components. Components can be created to scene nodes.">
<polygon fill="none" stroke="black" points="915,-437.5 915,-458.5 1031,-458.5 1031,-437.5 915,-437.5"/>
<text text-anchor="middle" x="973" y="-445.5" font-family="FreeSans" font-size="10.00">Urho3D::Component</text>
</a>
</g>
<!-- Node2&#45;&gt;Node1 -->
<g id="edge2" class="edge"><title>Node2&#45;&gt;Node1</title>
<path fill="none" stroke="midnightblue" d="M1041.72,-451.264C1163.01,-455.755 1408.93,-458.79 1480,-414 1517.42,-390.415 1543.26,-341.981 1553.32,-320.574"/>
<polygon fill="midnightblue" stroke="midnightblue" points="1041.57,-447.756 1031.44,-450.869 1041.3,-454.75 1041.57,-447.756"/>
</g>
<!-- Node17 -->
<g id="node40" class="node"><title>Node17</title>
<a xlink:href="a00108.html" target="_top" xlink:title="Debug geometry rendering component. Should be added only to the root scene node.">
<polygon fill="none" stroke="red" points="1237,-233.5 1237,-254.5 1371,-254.5 1371,-233.5 1237,-233.5"/>
<text text-anchor="middle" x="1304" y="-241.5" font-family="FreeSans" font-size="10.00">Urho3D::DebugRenderer</text>
</a>
</g>
<!-- Node2&#45;&gt;Node17 -->
<g id="edge50" class="edge"><title>Node2&#45;&gt;Node17</title>
<path fill="none" stroke="midnightblue" d="M1010.75,-433.759C1020.39,-429.858 1030.67,-425.466 1040,-421 1118.07,-383.639 1139.23,-375.828 1210,-326 1242.4,-303.185 1276.51,-271.086 1293.33,-254.635"/>
<polygon fill="midnightblue" stroke="midnightblue" points="1009.38,-430.537 1001.38,-437.482 1011.96,-437.043 1009.38,-430.537"/>
</g>
<!-- Node3 -->
<g id="node4" class="node"><title>Node3</title>
<a xlink:href="a00263.html" target="_top" xlink:title="Base class for objects with automatic serialization through attributes.">
<polygon fill="none" stroke="red" points="222,-497.5 222,-518.5 336,-518.5 336,-497.5 222,-497.5"/>
<text text-anchor="middle" x="279" y="-505.5" font-family="FreeSans" font-size="10.00">Urho3D::Serializable</text>
</a>
</g>
<!-- Node3&#45;&gt;Node2 -->
<g id="edge4" class="edge"><title>Node3&#45;&gt;Node2</title>
<path fill="none" stroke="midnightblue" d="M346.03,-496.858C357.988,-495.079 370.346,-493.374 382,-492 576.653,-469.045 808.871,-455.889 914.959,-450.659"/>
<polygon fill="midnightblue" stroke="midnightblue" points="345.464,-493.404 336.103,-498.365 346.515,-500.325 345.464,-493.404"/>
</g>
<!-- Node4 -->
<g id="node6" class="node"><title>Node4</title>
<a xlink:href="a00197.html" target="_top" xlink:title="Scene node that may contain components and child nodes.">
<polygon fill="none" stroke="red" points="612.5,-519.5 612.5,-540.5 697.5,-540.5 697.5,-519.5 612.5,-519.5"/>
<text text-anchor="middle" x="655" y="-527.5" font-family="FreeSans" font-size="10.00">Urho3D::Node</text>
</a>
</g>
<!-- Node3&#45;&gt;Node4 -->
<g id="edge8" class="edge"><title>Node3&#45;&gt;Node4</title>
<path fill="none" stroke="midnightblue" d="M343.627,-520.139C356.307,-522.104 369.538,-523.864 382,-525 463.198,-532.405 558.522,-532.116 612.337,-531.13"/>
<polygon fill="midnightblue" stroke="midnightblue" points="344.03,-516.659 333.601,-518.528 342.919,-523.57 344.03,-516.659"/>
</g>
<!-- Node4&#45;&gt;Node2 -->
<g id="edge6" class="edge"><title>Node4&#45;&gt;Node2</title>
<path fill="none" stroke="#9a32cd" stroke-dasharray="5,2" d="M702.382,-516.675C706.98,-515.418 711.577,-514.175 716,-513 790.947,-493.082 878.574,-471.224 929.719,-458.609"/>
<polygon fill="#9a32cd" stroke="#9a32cd" points="701.094,-513.399 692.383,-519.429 702.953,-520.148 701.094,-513.399"/>
<text text-anchor="middle" x="802" y="-517" font-family="FreeSans" font-size="10.00"> node_</text>
</g>
<!-- Node4&#45;&gt;Node4 -->
<g id="edge26" class="edge"><title>Node4&#45;&gt;Node4</title>
<path fill="none" stroke="#9a32cd" stroke-dasharray="5,2" d="M627.951,-550.055C629.725,-555.164 638.742,-559 655,-559 680.379,-559 688.112,-549.653 678.198,-540.708"/>
<polygon fill="#9a32cd" stroke="#9a32cd" points="631.229,-551.287 631.802,-540.708 624.757,-548.621 631.229,-551.287"/>
<text text-anchor="middle" x="655" y="-563" font-family="FreeSans" font-size="10.00"> parent_</text>
</g>
<!-- Node5 -->
<g id="node9" class="node"><title>Node5</title>
<a xlink:href="a00251.html" target="_top" xlink:title="Root scene node, represents the whole scene.">
<polygon fill="none" stroke="red" points="928.5,-519.5 928.5,-540.5 1017.5,-540.5 1017.5,-519.5 928.5,-519.5"/>
<text text-anchor="middle" x="973" y="-527.5" font-family="FreeSans" font-size="10.00">Urho3D::Scene</text>
</a>
</g>
<!-- Node4&#45;&gt;Node5 -->
<g id="edge12" class="edge"><title>Node4&#45;&gt;Node5</title>
<path fill="none" stroke="midnightblue" d="M707.854,-530C769.545,-530 870.48,-530 928.392,-530"/>
<polygon fill="midnightblue" stroke="midnightblue" points="707.557,-526.5 697.557,-530 707.557,-533.5 707.557,-526.5"/>
</g>
<!-- Node5&#45;&gt;Node4 -->
<g id="edge10" class="edge"><title>Node5&#45;&gt;Node4</title>
<path fill="none" stroke="#9a32cd" stroke-dasharray="5,2" d="M917.918,-538.177C907.981,-539.353 897.698,-540.375 888,-541 811.714,-545.916 792.14,-547.81 716,-541 709.998,-540.463 703.703,-539.635 697.53,-538.668"/>
<polygon fill="#9a32cd" stroke="#9a32cd" points="918.619,-541.617 928.109,-536.906 917.753,-534.671 918.619,-541.617"/>
<text text-anchor="middle" x="802" y="-549" font-family="FreeSans" font-size="10.00"> scene_</text>
</g>
<!-- Node13 -->
<g id="node28" class="node"><title>Node13</title>
<a xlink:href="a00328.html" target="_top" xlink:title="Urho3D::WeakPtr\&lt; Urho3D\l::Scene \&gt;">
<polygon fill="none" stroke="black" points="1231,-481 1231,-515 1377,-515 1377,-481 1231,-481"/>
<text text-anchor="start" x="1239" y="-502" font-family="FreeSans" font-size="10.00">Urho3D::WeakPtr&lt; Urho3D</text>
<text text-anchor="middle" x="1304" y="-489" font-family="FreeSans" font-size="10.00">::Scene &gt;</text>
</a>
</g>
<!-- Node5&#45;&gt;Node13 -->
<g id="edge34" class="edge"><title>Node5&#45;&gt;Node13</title>
<path fill="none" stroke="#9a32cd" stroke-dasharray="5,2" d="M1027.64,-524.717C1083.2,-519.347 1169.6,-510.993 1231,-505.058"/>
<polygon fill="#9a32cd" stroke="#9a32cd" points="1027.26,-521.238 1017.64,-525.684 1027.93,-528.206 1027.26,-521.238"/>
<text text-anchor="middle" x="1134" y="-525" font-family="FreeSans" font-size="10.00"> ptr_</text>
</g>
<!-- Node6 -->
<g id="node12" class="node"><title>Node6</title>
<a xlink:href="a00143.html" target="_top" xlink:title="Urho3D::HashMap\&lt; ShortString\lHash, Variant \&gt;">
<polygon fill="none" stroke="black" points="194,-397 194,-431 364,-431 364,-397 194,-397"/>
<text text-anchor="start" x="202" y="-418" font-family="FreeSans" font-size="10.00">Urho3D::HashMap&lt; ShortString</text>
<text text-anchor="middle" x="279" y="-405" font-family="FreeSans" font-size="10.00">Hash, Variant &gt;</text>
</a>
</g>
<!-- Node6&#45;&gt;Node1 -->
<g id="edge68" class="edge"><title>Node6&#45;&gt;Node1</title>
<path fill="none" stroke="#9a32cd" stroke-dasharray="5,2" d="M374.078,-412.694C577.943,-408.707 1071.77,-392.702 1480,-329 1493.22,-326.937 1507.49,-323.749 1520.17,-320.571"/>
<polygon fill="#9a32cd" stroke="#9a32cd" points="373.935,-409.196 364.003,-412.886 374.068,-416.195 373.935,-409.196"/>
<text text-anchor="middle" x="973" y="-406" font-family="FreeSans" font-size="10.00"> nodeCollisionData_</text>
<text text-anchor="middle" x="973" y="-393" font-family="FreeSans" font-size="10.00">physicsCollisionData_</text>
</g>
<!-- Node6&#45;&gt;Node4 -->
<g id="edge28" class="edge"><title>Node6&#45;&gt;Node4</title>
<path fill="none" stroke="#9a32cd" stroke-dasharray="5,2" d="M333.358,-434.47C348.973,-440.093 366.085,-446.011 382,-451 475.102,-480.184 500.917,-478.757 594,-508 604.955,-511.442 616.864,-515.633 627.228,-519.431"/>
<polygon fill="#9a32cd" stroke="#9a32cd" points="334.446,-431.142 323.852,-431.018 332.057,-437.721 334.446,-431.142"/>
<text text-anchor="middle" x="488" y="-512" font-family="FreeSans" font-size="10.00"> vars_</text>
</g>
<!-- Node6&#45;&gt;Node5 -->
<g id="edge14" class="edge"><title>Node6&#45;&gt;Node5</title>
<path fill="none" stroke="#9a32cd" stroke-dasharray="5,2" d="M374.629,-420.237C437.502,-425.559 521.286,-434.978 594,-451 649.726,-463.279 660.489,-477.785 716,-491 789.536,-508.506 876.866,-519.8 928.458,-525.516"/>
<polygon fill="#9a32cd" stroke="#9a32cd" points="374.583,-416.722 364.329,-419.386 374.007,-423.698 374.583,-416.722"/>
<text text-anchor="middle" x="655" y="-490" font-family="FreeSans" font-size="10.00"> smoothingData_</text>
</g>
<!-- Node7 -->
<g id="node14" class="node"><title>Node7</title>
<a xlink:href="a00141.html" target="_top" xlink:title="Hash set/map base class.">
<polygon fill="none" stroke="red" points="6,-288.5 6,-309.5 114,-309.5 114,-288.5 6,-288.5"/>
<text text-anchor="middle" x="60" y="-296.5" font-family="FreeSans" font-size="10.00">Urho3D::HashBase</text>
</a>
</g>
<!-- Node7&#45;&gt;Node6 -->
<g id="edge16" class="edge"><title>Node7&#45;&gt;Node6</title>
<path fill="none" stroke="midnightblue" d="M89.1173,-314.29C129.949,-335.731 203.978,-374.605 246.538,-396.954"/>
<polygon fill="midnightblue" stroke="midnightblue" points="90.6912,-311.163 80.2104,-309.613 87.4368,-317.361 90.6912,-311.163"/>
</g>
<!-- Node15 -->
<g id="node33" class="node"><title>Node15</title>
<a xlink:href="a00143.html" target="_top" xlink:title="Urho3D::HashMap\&lt; Urho3D\l::Pair\&lt; Urho3D::Model\l *, unsigned \&gt;, Urho3D\l::SharedPtr\&lt; Urho3D::CollisionGeometry\lData \&gt; \&gt;">
<polygon fill="none" stroke="black" points="382,-292.5 382,-365.5 594,-365.5 594,-292.5 382,-292.5"/>
<text text-anchor="start" x="390" y="-352.5" font-family="FreeSans" font-size="10.00">Urho3D::HashMap&lt; Urho3D</text>
<text text-anchor="start" x="390" y="-339.5" font-family="FreeSans" font-size="10.00">::Pair&lt; Urho3D::Model</text>
<text text-anchor="start" x="390" y="-326.5" font-family="FreeSans" font-size="10.00"> *, unsigned &gt;, Urho3D</text>
<text text-anchor="start" x="390" y="-313.5" font-family="FreeSans" font-size="10.00">::SharedPtr&lt; Urho3D::CollisionGeometry</text>
<text text-anchor="middle" x="488" y="-300.5" font-family="FreeSans" font-size="10.00">Data &gt; &gt;</text>
</a>
</g>
<!-- Node7&#45;&gt;Node15 -->
<g id="edge40" class="edge"><title>Node7&#45;&gt;Node15</title>
<path fill="none" stroke="midnightblue" d="M124.364,-303.511C192.457,-308.284 301.015,-315.894 381.816,-321.557"/>
<polygon fill="midnightblue" stroke="midnightblue" points="124.427,-300.007 114.206,-302.8 123.937,-306.99 124.427,-300.007"/>
</g>
<!-- Node16 -->
<g id="node37" class="node"><title>Node16</title>
<a xlink:href="a00143.html" target="_top" xlink:title="Urho3D::HashMap\&lt; Urho3D\l::Pair\&lt; Urho3D::WeakPtr\l\&lt; Urho3D::RigidBody \&gt;, Urho3D\l::WeakPtr\&lt; Urho3D::RigidBody\l \&gt; \&gt;, btPersistentManifold * \&gt;">
<polygon fill="none" stroke="black" points="716.5,-240.5 716.5,-313.5 887.5,-313.5 887.5,-240.5 716.5,-240.5"/>
<text text-anchor="start" x="724.5" y="-300.5" font-family="FreeSans" font-size="10.00">Urho3D::HashMap&lt; Urho3D</text>
<text text-anchor="start" x="724.5" y="-287.5" font-family="FreeSans" font-size="10.00">::Pair&lt; Urho3D::WeakPtr</text>
<text text-anchor="start" x="724.5" y="-274.5" font-family="FreeSans" font-size="10.00">&lt; Urho3D::RigidBody &gt;, Urho3D</text>
<text text-anchor="start" x="724.5" y="-261.5" font-family="FreeSans" font-size="10.00">::WeakPtr&lt; Urho3D::RigidBody</text>
<text text-anchor="middle" x="802" y="-248.5" font-family="FreeSans" font-size="10.00"> &gt; &gt;, btPersistentManifold * &gt;</text>
</a>
</g>
<!-- Node7&#45;&gt;Node16 -->
<g id="edge46" class="edge"><title>Node7&#45;&gt;Node16</title>
<path fill="none" stroke="midnightblue" d="M124.355,-297.092C258.126,-293.126 566.235,-283.99 716.488,-279.535"/>
<polygon fill="midnightblue" stroke="midnightblue" points="124.152,-293.596 114.26,-297.391 124.36,-300.593 124.152,-293.596"/>
</g>
<!-- Node25 -->
<g id="node59" class="node"><title>Node25</title>
<a xlink:href="a00143.html" target="_top" xlink:title="Urho3D::HashMap\&lt; Urho3D\l::RigidBody *, Urho3D\l::DelayedWorldTransform \&gt;">
<polygon fill="none" stroke="black" points="1058,-0.5 1058,-47.5 1210,-47.5 1210,-0.5 1058,-0.5"/>
<text text-anchor="start" x="1066" y="-34.5" font-family="FreeSans" font-size="10.00">Urho3D::HashMap&lt; Urho3D</text>
<text text-anchor="start" x="1066" y="-21.5" font-family="FreeSans" font-size="10.00">::RigidBody *, Urho3D</text>
<text text-anchor="middle" x="1134" y="-8.5" font-family="FreeSans" font-size="10.00">::DelayedWorldTransform &gt;</text>
</a>
</g>
<!-- Node7&#45;&gt;Node25 -->
<g id="edge72" class="edge"><title>Node7&#45;&gt;Node25</title>
<path fill="none" stroke="midnightblue" d="M65.1262,-278.392C82.6524,-213.398 146.569,-17 279,-17 279,-17 279,-17 802,-17 889.775,-17 990.574,-19.4759 1057.86,-21.4827"/>
<polygon fill="midnightblue" stroke="midnightblue" points="61.682,-277.73 62.546,-288.29 68.4556,-279.496 61.682,-277.73"/>
</g>
<!-- Node8 -->
<g id="node16" class="node"><title>Node8</title>
<a xlink:href="a00321.html" target="_top" xlink:title="Dynamically sized buffer that can be read and written to as a stream.">
<polygon fill="none" stroke="black" points="219.5,-575.5 219.5,-596.5 338.5,-596.5 338.5,-575.5 219.5,-575.5"/>
<text text-anchor="middle" x="279" y="-583.5" font-family="FreeSans" font-size="10.00">Urho3D::VectorBuffer</text>
</a>
</g>
<!-- Node8&#45;&gt;Node1 -->
<g id="edge42" class="edge"><title>Node8&#45;&gt;Node1</title>
<path fill="none" stroke="#9a32cd" stroke-dasharray="5,2" d="M348.883,-590.158C424.361,-594.285 548.16,-600 655,-600 655,-600 655,-600 1304,-600 1391.06,-600 1421.25,-578.248 1480,-514 1534.25,-454.679 1552.14,-353.707 1556.69,-320.75"/>
<polygon fill="#9a32cd" stroke="#9a32cd" points="348.739,-586.645 338.561,-589.587 348.352,-593.634 348.739,-586.645"/>
<text text-anchor="middle" x="973" y="-604" font-family="FreeSans" font-size="10.00"> contacts_</text>
</g>
<!-- Node8&#45;&gt;Node4 -->
<g id="edge18" class="edge"><title>Node8&#45;&gt;Node4</title>
<path fill="none" stroke="#9a32cd" stroke-dasharray="5,2" d="M348.917,-576.694C426.952,-566.227 548.269,-549.686 594,-542 599.961,-540.998 606.232,-539.86 612.394,-538.694"/>
<polygon fill="#9a32cd" stroke="#9a32cd" points="348.125,-573.269 338.679,-578.066 349.055,-580.207 348.125,-573.269"/>
<text text-anchor="middle" x="488" y="-575" font-family="FreeSans" font-size="10.00"> attrBuffer_</text>
</g>
<!-- Node9 -->
<g id="node18" class="node"><title>Node9</title>
<a xlink:href="a00115.html" target="_top" xlink:title="Abstract stream for reading.">
<polygon fill="none" stroke="black" points="2,-575.5 2,-596.5 118,-596.5 118,-575.5 2,-575.5"/>
<text text-anchor="middle" x="60" y="-583.5" font-family="FreeSans" font-size="10.00">Urho3D::Deserializer</text>
</a>
</g>
<!-- Node9&#45;&gt;Node8 -->
<g id="edge20" class="edge"><title>Node9&#45;&gt;Node8</title>
<path fill="none" stroke="midnightblue" d="M128.241,-586C157.465,-586 191.28,-586 219.47,-586"/>
<polygon fill="midnightblue" stroke="midnightblue" points="128.113,-582.5 118.113,-586 128.113,-589.5 128.113,-582.5"/>
</g>
<!-- Node10 -->
<g id="node20" class="node"><title>Node10</title>
<a xlink:href="a00264.html" target="_top" xlink:title="Abstract stream for writing.">
<polygon fill="none" stroke="black" points="8,-535.5 8,-556.5 112,-556.5 112,-535.5 8,-535.5"/>
<text text-anchor="middle" x="60" y="-543.5" font-family="FreeSans" font-size="10.00">Urho3D::Serializer</text>
</a>
</g>
<!-- Node10&#45;&gt;Node8 -->
<g id="edge22" class="edge"><title>Node10&#45;&gt;Node8</title>
<path fill="none" stroke="midnightblue" d="M122.073,-557.337C153.291,-563.039 190.885,-569.906 221.449,-575.488"/>
<polygon fill="midnightblue" stroke="midnightblue" points="122.644,-553.884 112.178,-555.53 121.386,-560.77 122.644,-553.884"/>
</g>
<!-- Node11 -->
<g id="node22" class="node"><title>Node11</title>
<a xlink:href="a00223.html" target="_top" xlink:title="Urho3D::PODVector\&lt;\l unsigned char \&gt;">
<polygon fill="none" stroke="red" points="0.5,-615 0.5,-649 119.5,-649 119.5,-615 0.5,-615"/>
<text text-anchor="start" x="8.5" y="-636" font-family="FreeSans" font-size="10.00">Urho3D::PODVector&lt;</text>
<text text-anchor="middle" x="60" y="-623" font-family="FreeSans" font-size="10.00"> unsigned char &gt;</text>
</a>
</g>
<!-- Node11&#45;&gt;Node8 -->
<g id="edge24" class="edge"><title>Node11&#45;&gt;Node8</title>
<path fill="none" stroke="#9a32cd" stroke-dasharray="5,2" d="M129.375,-617.428C161.627,-610.654 199.27,-602.747 228.73,-596.559"/>
<polygon fill="#9a32cd" stroke="#9a32cd" points="128.62,-614.01 119.553,-619.491 130.059,-620.861 128.62,-614.01"/>
<text text-anchor="middle" x="157" y="-618" font-family="FreeSans" font-size="10.00"> buffer_</text>
</g>
<!-- Node12 -->
<g id="node26" class="node"><title>Node12</title>
<polygon fill="none" stroke="#bfbfbf" points="1262,-403.5 1262,-424.5 1346,-424.5 1346,-403.5 1262,-403.5"/>
<text text-anchor="middle" x="1304" y="-411.5" font-family="FreeSans" font-size="10.00">btIDebugDraw</text>
</g>
<!-- Node12&#45;&gt;Node1 -->
<g id="edge30" class="edge"><title>Node12&#45;&gt;Node1</title>
<path fill="none" stroke="midnightblue" d="M1356.47,-415.203C1392.91,-414.025 1441.61,-408.327 1480,-389 1512.19,-372.792 1538.97,-338.109 1551.07,-320.591"/>
<polygon fill="midnightblue" stroke="midnightblue" points="1355.99,-411.712 1346.06,-415.428 1356.14,-418.711 1355.99,-411.712"/>
</g>
<!-- Node13&#45;&gt;Node1 -->
<g id="edge32" class="edge"><title>Node13&#45;&gt;Node1</title>
<path fill="none" stroke="#9a32cd" stroke-dasharray="5,2" d="M1387.31,-498.829C1418.94,-495.397 1453.65,-486.698 1480,-467 1530.46,-429.274 1550.31,-349.908 1556.07,-320.907"/>
<polygon fill="#9a32cd" stroke="#9a32cd" points="1386.8,-495.362 1377.17,-499.766 1387.45,-502.332 1386.8,-495.362"/>
<text text-anchor="middle" x="1439" y="-501" font-family="FreeSans" font-size="10.00"> scene_</text>
</g>
<!-- Node14 -->
<g id="node31" class="node"><title>Node14</title>
<a xlink:href="a00236.html" target="_top" xlink:title="Reference count structure.">
<polygon fill="none" stroke="black" points="922,-479.5 922,-500.5 1024,-500.5 1024,-479.5 922,-479.5"/>
<text text-anchor="middle" x="973" y="-487.5" font-family="FreeSans" font-size="10.00">Urho3D::RefCount</text>
</a>
</g>
<!-- Node14&#45;&gt;Node13 -->
<g id="edge36" class="edge"><title>Node14&#45;&gt;Node13</title>
<path fill="none" stroke="#9a32cd" stroke-dasharray="5,2" d="M1034.53,-490.097C1082.37,-490.337 1150.42,-491.039 1210,-493 1216.78,-493.223 1223.83,-493.505 1230.89,-493.821"/>
<polygon fill="#9a32cd" stroke="#9a32cd" points="1034.35,-486.596 1024.33,-490.051 1034.31,-493.596 1034.35,-486.596"/>
<text text-anchor="middle" x="1134" y="-497" font-family="FreeSans" font-size="10.00"> refCount_</text>
</g>
<!-- Node15&#45;&gt;Node1 -->
<g id="edge38" class="edge"><title>Node15&#45;&gt;Node1</title>
<path fill="none" stroke="#9a32cd" stroke-dasharray="5,2" d="M604.23,-329.06C746.919,-328.897 996.29,-327.845 1210,-323 1311.09,-320.708 1428.63,-315.862 1497.97,-312.778"/>
<polygon fill="#9a32cd" stroke="#9a32cd" points="604.139,-325.56 594.142,-329.07 604.146,-332.56 604.139,-325.56"/>
<text text-anchor="middle" x="973" y="-344" font-family="FreeSans" font-size="10.00"> triMeshCache_</text>
<text text-anchor="middle" x="973" y="-331" font-family="FreeSans" font-size="10.00">convexCache_</text>
</g>
<!-- Node16&#45;&gt;Node1 -->
<g id="edge44" class="edge"><title>Node16&#45;&gt;Node1</title>
<path fill="none" stroke="#9a32cd" stroke-dasharray="5,2" d="M897.752,-277.092C980.466,-277.542 1103.17,-279.097 1210,-284 1311.07,-288.639 1428.37,-298.29 1497.71,-304.44"/>
<polygon fill="#9a32cd" stroke="#9a32cd" points="897.632,-273.591 887.615,-277.041 897.597,-280.591 897.632,-273.591"/>
<text text-anchor="start" x="1090" y="-314" font-family="FreeSans" font-size="10.00"> previousCollisions</text>
<text text-anchor="middle" x="1134" y="-301" font-family="FreeSans" font-size="10.00">_</text>
<text text-anchor="middle" x="1134" y="-288" font-family="FreeSans" font-size="10.00">currentCollisions_</text>
</g>
<!-- Node17&#45;&gt;Node1 -->
<g id="edge48" class="edge"><title>Node17&#45;&gt;Node1</title>
<path fill="none" stroke="#9a32cd" stroke-dasharray="5,2" d="M1381.3,-240.438C1412.69,-241.237 1448.83,-245.086 1480,-256 1506.74,-265.362 1532.76,-286.52 1546.95,-299.397"/>
<polygon fill="#9a32cd" stroke="#9a32cd" points="1381.34,-236.938 1371.29,-240.281 1381.23,-243.938 1381.34,-236.938"/>
<text text-anchor="middle" x="1439" y="-260" font-family="FreeSans" font-size="10.00"> debugRenderer_</text>
</g>
<!-- Node18 -->
<g id="node43" class="node"><title>Node18</title>
<a xlink:href="a00223.html" target="_top" xlink:title="Urho3D::PODVector\&lt;\l Urho3D::DebugLine \&gt;">
<polygon fill="none" stroke="red" points="910.5,-221 910.5,-255 1035.5,-255 1035.5,-221 910.5,-221"/>
<text text-anchor="start" x="918.5" y="-242" font-family="FreeSans" font-size="10.00">Urho3D::PODVector&lt;</text>
<text text-anchor="middle" x="973" y="-229" font-family="FreeSans" font-size="10.00"> Urho3D::DebugLine &gt;</text>
</a>
</g>
<!-- Node18&#45;&gt;Node17 -->
<g id="edge52" class="edge"><title>Node18&#45;&gt;Node17</title>
<path fill="none" stroke="#9a32cd" stroke-dasharray="5,2" d="M1045.89,-235.26C1049.98,-235.158 1054.04,-235.07 1058,-235 1125.55,-233.808 1142.52,-231.777 1210,-235 1218.68,-235.415 1227.79,-236.043 1236.79,-236.78"/>
<polygon fill="#9a32cd" stroke="#9a32cd" points="1045.56,-231.767 1035.66,-235.538 1045.75,-238.764 1045.56,-231.767"/>
<text text-anchor="middle" x="1134" y="-252" font-family="FreeSans" font-size="10.00"> lines_</text>
<text text-anchor="middle" x="1134" y="-239" font-family="FreeSans" font-size="10.00">noDepthLines_</text>
</g>
<!-- Node19 -->
<g id="node45" class="node"><title>Node19</title>
<a xlink:href="a00134.html" target="_top" xlink:title="Convex constructed of 6 planes.">
<polygon fill="none" stroke="red" points="924,-181.5 924,-202.5 1022,-202.5 1022,-181.5 924,-181.5"/>
<text text-anchor="middle" x="973" y="-189.5" font-family="FreeSans" font-size="10.00">Urho3D::Frustum</text>
</a>
</g>
<!-- Node19&#45;&gt;Node17 -->
<g id="edge54" class="edge"><title>Node19&#45;&gt;Node17</title>
<path fill="none" stroke="#9a32cd" stroke-dasharray="5,2" d="M1032.39,-192.823C1080.9,-194.725 1150.85,-200.293 1210,-216 1218.46,-218.247 1219.74,-221.099 1228,-224 1237.91,-227.481 1248.74,-230.678 1259.03,-233.446"/>
<polygon fill="#9a32cd" stroke="#9a32cd" points="1032.49,-189.325 1022.38,-192.471 1032.25,-196.321 1032.49,-189.325"/>
<text text-anchor="middle" x="1134" y="-220" font-family="FreeSans" font-size="10.00"> frustum_</text>
</g>
<!-- Node20 -->
<g id="node47" class="node"><title>Node20</title>
<a xlink:href="a00272.html" target="_top" xlink:title="Urho3D::SharedPtr\&lt;\l Urho3D::VertexBuffer \&gt;">
<polygon fill="none" stroke="red" points="906.5,-129 906.5,-163 1039.5,-163 1039.5,-129 906.5,-129"/>
<text text-anchor="start" x="914.5" y="-150" font-family="FreeSans" font-size="10.00">Urho3D::SharedPtr&lt;</text>
<text text-anchor="middle" x="973" y="-137" font-family="FreeSans" font-size="10.00"> Urho3D::VertexBuffer &gt;</text>
</a>
</g>
<!-- Node20&#45;&gt;Node17 -->
<g id="edge56" class="edge"><title>Node20&#45;&gt;Node17</title>
<path fill="none" stroke="#9a32cd" stroke-dasharray="5,2" d="M1049.76,-137.064C1100.34,-135.375 1165.26,-141.731 1210,-177 1227.57,-190.848 1211.35,-209.063 1228,-224 1232.27,-227.826 1237.18,-230.936 1242.41,-233.46"/>
<polygon fill="#9a32cd" stroke="#9a32cd" points="1049.35,-133.579 1039.52,-137.521 1049.67,-140.572 1049.35,-133.579"/>
<text text-anchor="middle" x="1134" y="-181" font-family="FreeSans" font-size="10.00"> vertexBuffer_</text>
</g>
<!-- Node21 -->
<g id="node49" class="node"><title>Node21</title>
<a xlink:href="a00181.html" target="_top" xlink:title="4x4 matrix for arbitrary linear transforms including projection.">
<polygon fill="none" stroke="black" points="925.5,-45.5 925.5,-66.5 1020.5,-66.5 1020.5,-45.5 925.5,-45.5"/>
<text text-anchor="middle" x="973" y="-53.5" font-family="FreeSans" font-size="10.00">Urho3D::Matrix4</text>
</a>
</g>
<!-- Node21&#45;&gt;Node17 -->
<g id="edge58" class="edge"><title>Node21&#45;&gt;Node17</title>
<path fill="none" stroke="#9a32cd" stroke-dasharray="5,2" d="M1030.64,-64.0834C1092.78,-74.0062 1186.06,-92.8008 1210,-119 1241.94,-153.952 1196.02,-189.087 1228,-224 1231.41,-227.722 1235.42,-230.787 1239.79,-233.305"/>
<polygon fill="#9a32cd" stroke="#9a32cd" points="1030.98,-60.5954 1020.56,-62.509 1029.9,-67.5114 1030.98,-60.5954"/>
<text text-anchor="middle" x="1134" y="-123" font-family="FreeSans" font-size="10.00"> projection_</text>
</g>
<!-- Node21&#45;&gt;Node21 -->
<g id="edge60" class="edge"><title>Node21&#45;&gt;Node21</title>
<path fill="none" stroke="#9a32cd" stroke-dasharray="5,2" d="M943.357,-76.0551C945.302,-81.164 955.183,-85 973,-85 1000.81,-85 1009.29,-75.6531 998.422,-66.7079"/>
<polygon fill="#9a32cd" stroke="#9a32cd" points="946.652,-77.2622 947.578,-66.7079 940.273,-74.3816 946.652,-77.2622"/>
<text text-anchor="middle" x="973" y="-102" font-family="FreeSans" font-size="10.00"> IDENTITY</text>
<text text-anchor="middle" x="973" y="-89" font-family="FreeSans" font-size="10.00">ZERO</text>
</g>
<!-- Node22 -->
<g id="node52" class="node"><title>Node22</title>
<a xlink:href="a00223.html" target="_top" xlink:title="Urho3D::PODVector\&lt;\l Urho3D::Constraint * \&gt;">
<polygon fill="none" stroke="red" points="1238.5,-181 1238.5,-215 1369.5,-215 1369.5,-181 1238.5,-181"/>
<text text-anchor="start" x="1246.5" y="-202" font-family="FreeSans" font-size="10.00">Urho3D::PODVector&lt;</text>
<text text-anchor="middle" x="1304" y="-189" font-family="FreeSans" font-size="10.00"> Urho3D::Constraint * &gt;</text>
</a>
</g>
<!-- Node22&#45;&gt;Node1 -->
<g id="edge62" class="edge"><title>Node22&#45;&gt;Node1</title>
<path fill="none" stroke="#9a32cd" stroke-dasharray="5,2" d="M1379.94,-198.001C1412.36,-200.764 1449.64,-207.789 1480,-224 1513.78,-242.038 1540.39,-280.673 1551.86,-299.396"/>
<polygon fill="#9a32cd" stroke="#9a32cd" points="1379.82,-194.483 1369.6,-197.247 1379.31,-201.465 1379.82,-194.483"/>
<text text-anchor="middle" x="1439" y="-228" font-family="FreeSans" font-size="10.00"> constraints_</text>
</g>
<!-- Node23 -->
<g id="node54" class="node"><title>Node23</title>
<a xlink:href="a00223.html" target="_top" xlink:title="Urho3D::PODVector\&lt;\l Urho3D::RigidBody * \&gt;">
<polygon fill="none" stroke="red" points="1240,-129 1240,-163 1368,-163 1368,-129 1240,-129"/>
<text text-anchor="start" x="1248" y="-150" font-family="FreeSans" font-size="10.00">Urho3D::PODVector&lt;</text>
<text text-anchor="middle" x="1304" y="-137" font-family="FreeSans" font-size="10.00"> Urho3D::RigidBody * &gt;</text>
</a>
</g>
<!-- Node23&#45;&gt;Node1 -->
<g id="edge64" class="edge"><title>Node23&#45;&gt;Node1</title>
<path fill="none" stroke="#9a32cd" stroke-dasharray="5,2" d="M1378.56,-148.481C1412.08,-152.742 1450.62,-162.307 1480,-183 1522.73,-213.097 1546.59,-274.77 1554.76,-299.449"/>
<polygon fill="#9a32cd" stroke="#9a32cd" points="1378.67,-144.971 1368.33,-147.323 1377.88,-151.926 1378.67,-144.971"/>
<text text-anchor="middle" x="1439" y="-187" font-family="FreeSans" font-size="10.00"> rigidBodies_</text>
</g>
<!-- Node24 -->
<g id="node56" class="node"><title>Node24</title>
<a xlink:href="a00223.html" target="_top" xlink:title="Urho3D::PODVector\&lt;\l Urho3D::CollisionShape * \&gt;">
<polygon fill="none" stroke="red" points="1228,-77 1228,-111 1380,-111 1380,-77 1228,-77"/>
<text text-anchor="start" x="1236" y="-98" font-family="FreeSans" font-size="10.00">Urho3D::PODVector&lt;</text>
<text text-anchor="middle" x="1304" y="-85" font-family="FreeSans" font-size="10.00"> Urho3D::CollisionShape * &gt;</text>
</a>
</g>
<!-- Node24&#45;&gt;Node1 -->
<g id="edge66" class="edge"><title>Node24&#45;&gt;Node1</title>
<path fill="none" stroke="#9a32cd" stroke-dasharray="5,2" d="M1390.05,-97.6932C1421.22,-102.855 1454.89,-113.339 1480,-134 1534.2,-178.597 1551.96,-268.46 1556.6,-299.314"/>
<polygon fill="#9a32cd" stroke="#9a32cd" points="1390.44,-94.2127 1380.04,-96.198 1389.41,-101.136 1390.44,-94.2127"/>
<text text-anchor="middle" x="1439" y="-138" font-family="FreeSans" font-size="10.00"> collisionShapes_</text>
</g>
<!-- Node25&#45;&gt;Node1 -->
<g id="edge70" class="edge"><title>Node25&#45;&gt;Node1</title>
<path fill="none" stroke="#9a32cd" stroke-dasharray="5,2" d="M1220.69,-16.5742C1299.54,-14.9386 1413.47,-26.2696 1480,-95 1539.1,-156.053 1553.9,-265.273 1557.16,-299.468"/>
<polygon fill="#9a32cd" stroke="#9a32cd" points="1220.18,-13.087 1210.29,-16.8689 1220.38,-20.0842 1220.18,-13.087"/>
<text text-anchor="middle" x="1304" y="-40" font-family="FreeSans" font-size="10.00"> delayedWorldTransforms_</text>
</g>
</g>
</svg>
