<?xml version="1.0" encoding="UTF-8" standalone="no"?>
<!DOCTYPE svg PUBLIC "-//W3C//DTD SVG 1.1//EN"
 "http://www.w3.org/Graphics/SVG/1.1/DTD/svg11.dtd">
<!-- Generated by graphviz version 2.26.3 (20100126.1600)
 -->
<!-- Title: Urho3D::DelayedWorldTransform Pages: 1 -->
<!--zoomable 670 -->
<svg id="main" version="1.1" xmlns="http://www.w3.org/2000/svg" xmlns:xlink="http://www.w3.org/1999/xlink" xml:space="preserve" onload="init(evt)">
        <defs>
                <circle id="rim" cx="0" cy="0" r="7"/>
                <circle id="rim2" cx="0" cy="0" r="3.5"/>
                <g id="zoomPlus">
                        <use xlink:href="#rim" fill="#404040">
                                <set attributeName="fill" to="#808080" begin="zoomplus.mouseover" end="zoomplus.mouseout"/>
                        </use>
                        <path d="M-4,0h8M0,-4v8" fill="none" stroke="white" stroke-width="1.5" pointer-events="none"/>
                </g>
                <g id="zoomMin">
                        <use xlink:href="#rim" fill="#404040">
                                <set attributeName="fill" to="#808080" begin="zoomminus.mouseover" end="zoomminus.mouseout"/>
                        </use>
                        <path d="M-4,0h8" fill="none" stroke="white" stroke-width="1.5" pointer-events="none"/>
                </g>
                <g id="dirArrow">
                        <path fill="none" stroke="white" stroke-width="1.5" d="M0,-3.0v7 M-2.5,-0.5L0,-3.0L2.5,-0.5"/>
                </g>
               <g id="resetDef">
                       <use xlink:href="#rim2" fill="#404040">
                               <set attributeName="fill" to="#808080" begin="reset.mouseover" end="reset.mouseout"/>
                       </use>
               </g>
        </defs>

<script type="text/javascript">
var viewWidth = 2068;
var viewHeight = 670;
var sectionId = 'dynsection-0';
</script>
<script xlink:href="svgpan.js"/>
<svg id="graph" class="graph">
<g id="viewport">
<title>Urho3D::DelayedWorldTransform</title>
<!-- Node1 -->
<g id="node1" class="node"><title>Node1</title>
<polygon fill="#bfbfbf" stroke="black" points="1888.5,-521.427 1888.5,-542.427 2059.5,-542.427 2059.5,-521.427 1888.5,-521.427"/>
<text text-anchor="middle" x="1974" y="-529.427" font-family="FreeSans" font-size="10.00">Urho3D::DelayedWorldTransform</text>
</g>
<!-- Node2 -->
<g id="node2" class="node"><title>Node2</title>
<a xlink:href="a00228.html" target="_top" xlink:title="Rotation represented as a four&#45;dimensional normalized vector.">
<polygon fill="none" stroke="black" points="541.5,-609.427 541.5,-630.427 654.5,-630.427 654.5,-609.427 541.5,-609.427"/>
<text text-anchor="middle" x="598" y="-617.427" font-family="FreeSans" font-size="10.00">Urho3D::Quaternion</text>
</a>
</g>
<!-- Node2&#45;&gt;Node1 -->
<g id="edge2" class="edge"><title>Node2&#45;&gt;Node1</title>
<path fill="none" stroke="#9a32cd" stroke-dasharray="5,2" d="M664.61,-619.454C706.607,-619.195 761.976,-618.927 811,-618.927 811,-618.927 811,-618.927 1711,-618.927 1807.19,-618.927 1913.6,-565.826 1955.56,-542.595"/>
<polygon fill="#9a32cd" stroke="#9a32cd" points="664.484,-615.954 654.506,-619.517 664.528,-622.954 664.484,-615.954"/>
<text text-anchor="middle" x="1248" y="-622.927" font-family="FreeSans" font-size="10.00"> worldRotation_</text>
</g>
<!-- Node2&#45;&gt;Node2 -->
<g id="edge4" class="edge"><title>Node2&#45;&gt;Node2</title>
<path fill="none" stroke="#9a32cd" stroke-dasharray="5,2" d="M576.991,-640.354C578.612,-645.276 585.615,-648.927 598,-648.927 617.816,-648.927 623.854,-639.58 616.113,-630.635"/>
<polygon fill="#9a32cd" stroke="#9a32cd" points="580.385,-641.218 579.887,-630.635 573.677,-639.219 580.385,-641.218"/>
<text text-anchor="middle" x="598" y="-652.927" font-family="FreeSans" font-size="10.00"> IDENTITY</text>
</g>
<!-- Node4 -->
<g id="node8" class="node"><title>Node4</title>
<a xlink:href="a00250.html" target="_top" xlink:title="Physics rigid body component.">
<polygon fill="none" stroke="black" points="1658,-184.427 1658,-205.427 1764,-205.427 1764,-184.427 1658,-184.427"/>
<text text-anchor="middle" x="1711" y="-192.427" font-family="FreeSans" font-size="10.00">Urho3D::RigidBody</text>
</a>
</g>
<!-- Node2&#45;&gt;Node4 -->
<g id="edge66" class="edge"><title>Node2&#45;&gt;Node4</title>
<path fill="none" stroke="#9a32cd" stroke-dasharray="5,2" d="M646.1,-606.773C698.611,-592.869 779.426,-572.927 811,-572.927 811,-572.927 811,-572.927 1479,-572.927 1656.48,-572.927 1702.44,-266.481 1709.84,-205.431"/>
<polygon fill="#9a32cd" stroke="#9a32cd" points="645.082,-603.422 636.321,-609.379 646.885,-610.186 645.082,-603.422"/>
<text text-anchor="middle" x="1130" y="-576.927" font-family="FreeSans" font-size="10.00"> lastRotation_</text>
</g>
<!-- Node10 -->
<g id="node20" class="node"><title>Node10</title>
<a xlink:href="a00198.html" target="_top" xlink:title="Scene node that may contain components and child nodes.">
<polygon fill="none" stroke="red" points="768.5,-297.427 768.5,-318.427 853.5,-318.427 853.5,-297.427 768.5,-297.427"/>
<text text-anchor="middle" x="811" y="-305.427" font-family="FreeSans" font-size="10.00">Urho3D::Node</text>
</a>
</g>
<!-- Node2&#45;&gt;Node10 -->
<g id="edge38" class="edge"><title>Node2&#45;&gt;Node10</title>
<path fill="none" stroke="#9a32cd" stroke-dasharray="5,2" d="M654.022,-603.627C655.426,-602.477 656.757,-601.245 658,-599.927 679.147,-577.488 661.505,-560.141 676,-532.927 699.546,-488.718 725.031,-491.348 750,-447.927 762.401,-426.361 758.468,-417.905 768,-394.927 779.749,-366.603 796.526,-334.58 805.244,-318.433"/>
<polygon fill="#9a32cd" stroke="#9a32cd" points="651.73,-600.946 645.304,-609.369 655.581,-606.792 651.73,-600.946"/>
<text text-anchor="middle" x="713" y="-549.927" font-family="FreeSans" font-size="10.00"> worldRotation_</text>
<text text-anchor="middle" x="713" y="-536.927" font-family="FreeSans" font-size="10.00">rotation_</text>
</g>
<!-- Node3 -->
<g id="node5" class="node"><title>Node3</title>
<a xlink:href="a00317.html" target="_top" xlink:title="Three&#45;dimensional vector.">
<polygon fill="none" stroke="black" points="550,-447.427 550,-468.427 646,-468.427 646,-447.427 550,-447.427"/>
<text text-anchor="middle" x="598" y="-455.427" font-family="FreeSans" font-size="10.00">Urho3D::Vector3</text>
</a>
</g>
<!-- Node3&#45;&gt;Node1 -->
<g id="edge6" class="edge"><title>Node3&#45;&gt;Node1</title>
<path fill="none" stroke="#9a32cd" stroke-dasharray="5,2" d="M615.245,-475.809C629.962,-489.844 652.435,-508.528 676,-517.927 732.03,-540.274 750.678,-531.927 811,-531.927 811,-531.927 811,-531.927 1711,-531.927 1770.24,-531.927 1836.99,-531.927 1888.42,-531.927"/>
<polygon fill="#9a32cd" stroke="#9a32cd" points="617.488,-473.106 607.908,-468.579 612.574,-478.092 617.488,-473.106"/>
<text text-anchor="middle" x="1248" y="-535.927" font-family="FreeSans" font-size="10.00"> worldPosition_</text>
</g>
<!-- Node3&#45;&gt;Node3 -->
<g id="edge8" class="edge"><title>Node3&#45;&gt;Node3</title>
<path fill="none" stroke="#9a32cd" stroke-dasharray="5,2" d="M576.991,-478.354C578.612,-483.276 585.615,-486.927 598,-486.927 617.816,-486.927 623.854,-477.58 616.113,-468.635"/>
<polygon fill="#9a32cd" stroke="#9a32cd" points="580.385,-479.218 579.887,-468.635 573.677,-477.219 580.385,-479.218"/>
<text text-anchor="middle" x="598" y="-581.927" font-family="FreeSans" font-size="10.00"> ONE</text>
<text text-anchor="middle" x="598" y="-568.927" font-family="FreeSans" font-size="10.00">DOWN</text>
<text text-anchor="middle" x="598" y="-555.927" font-family="FreeSans" font-size="10.00">BACK</text>
<text text-anchor="middle" x="598" y="-542.927" font-family="FreeSans" font-size="10.00">RIGHT</text>
<text text-anchor="middle" x="598" y="-529.927" font-family="FreeSans" font-size="10.00">LEFT</text>
<text text-anchor="middle" x="598" y="-516.927" font-family="FreeSans" font-size="10.00">ZERO</text>
<text text-anchor="middle" x="598" y="-503.927" font-family="FreeSans" font-size="10.00">FORWARD</text>
<text text-anchor="middle" x="598" y="-490.927" font-family="FreeSans" font-size="10.00">UP</text>
</g>
<!-- Node3&#45;&gt;Node4 -->
<g id="edge84" class="edge"><title>Node3&#45;&gt;Node4</title>
<path fill="none" stroke="#9a32cd" stroke-dasharray="5,2" d="M656.451,-457.927C699.248,-457.927 758.732,-457.927 811,-457.927 811,-457.927 811,-457.927 1479,-457.927 1615.99,-457.927 1691.39,-254.766 1707.64,-205.563"/>
<polygon fill="#9a32cd" stroke="#9a32cd" points="656.219,-454.427 646.219,-457.927 656.219,-461.427 656.219,-454.427"/>
<text text-anchor="middle" x="1130" y="-487.927" font-family="FreeSans" font-size="10.00"> centerOfMass_</text>
<text text-anchor="middle" x="1130" y="-474.927" font-family="FreeSans" font-size="10.00">gravityOverride_</text>
<text text-anchor="middle" x="1130" y="-461.927" font-family="FreeSans" font-size="10.00">lastPosition_</text>
</g>
<!-- Node3&#45;&gt;Node10 -->
<g id="edge58" class="edge"><title>Node3&#45;&gt;Node10</title>
<path fill="none" stroke="#9a32cd" stroke-dasharray="5,2" d="M648.68,-443.203C651.925,-441.605 655.064,-439.85 658,-437.927 668.004,-431.375 666.979,-425.777 676,-417.927 705.943,-391.871 719.278,-393.06 750,-367.927 769.316,-352.125 789.55,-331.223 801.179,-318.721"/>
<polygon fill="#9a32cd" stroke="#9a32cd" points="647.086,-440.081 639.335,-447.304 649.899,-446.491 647.086,-440.081"/>
<text text-anchor="middle" x="713" y="-434.927" font-family="FreeSans" font-size="10.00"> scale_</text>
<text text-anchor="middle" x="713" y="-421.927" font-family="FreeSans" font-size="10.00">position_</text>
</g>
<!-- Node4&#45;&gt;Node1 -->
<g id="edge10" class="edge"><title>Node4&#45;&gt;Node1</title>
<path fill="none" stroke="#9a32cd" stroke-dasharray="5,2" d="M1725.84,-213.947C1774.51,-276.305 1928.25,-473.305 1965.71,-521.304"/>
<polygon fill="#9a32cd" stroke="#9a32cd" points="1728.36,-211.488 1719.45,-205.758 1722.85,-215.795 1728.36,-211.488"/>
<text text-anchor="middle" x="1826" y="-409.927" font-family="FreeSans" font-size="10.00"> parentRigidBody_</text>
<text text-anchor="middle" x="1826" y="-396.927" font-family="FreeSans" font-size="10.00">rigidBody_</text>
</g>
<!-- Node5 -->
<g id="node10" class="node"><title>Node5</title>
<a xlink:href="a00087.html" target="_top" xlink:title="Base class for components. Components can be created to scene nodes.">
<polygon fill="none" stroke="black" points="948,-157.427 948,-178.427 1064,-178.427 1064,-157.427 948,-157.427"/>
<text text-anchor="middle" x="1006" y="-165.427" font-family="FreeSans" font-size="10.00">Urho3D::Component</text>
</a>
</g>
<!-- Node5&#45;&gt;Node4 -->
<g id="edge12" class="edge"><title>Node5&#45;&gt;Node4</title>
<path fill="none" stroke="midnightblue" d="M1074.48,-170.55C1214.73,-175.921 1531.98,-188.071 1657.98,-192.896"/>
<polygon fill="midnightblue" stroke="midnightblue" points="1074.42,-167.045 1064.29,-170.159 1074.15,-174.04 1074.42,-167.045"/>
</g>
<!-- Node23 -->
<g id="node58" class="node"><title>Node23</title>
<a xlink:href="a00221.html" target="_top" xlink:title="Physics simulation world component. Should be added only to the root scene node.">
<polygon fill="none" stroke="red" points="1188,-120.427 1188,-141.427 1308,-141.427 1308,-120.427 1188,-120.427"/>
<text text-anchor="middle" x="1248" y="-128.427" font-family="FreeSans" font-size="10.00">Urho3D::PhysicsWorld</text>
</a>
</g>
<!-- Node5&#45;&gt;Node23 -->
<g id="edge74" class="edge"><title>Node5&#45;&gt;Node23</title>
<path fill="none" stroke="midnightblue" d="M1074.59,-157.44C1110.22,-151.993 1153.36,-145.396 1187.71,-140.146"/>
<polygon fill="midnightblue" stroke="midnightblue" points="1073.63,-154.046 1064.27,-159.017 1074.69,-160.966 1073.63,-154.046"/>
</g>
<!-- Node6 -->
<g id="node12" class="node"><title>Node6</title>
<a xlink:href="a00263.html" target="_top" xlink:title="Base class for objects with automatic serialization through attributes.">
<polygon fill="none" stroke="black" points="541,-77.4269 541,-98.4269 655,-98.4269 655,-77.4269 541,-77.4269"/>
<text text-anchor="middle" x="598" y="-85.4269" font-family="FreeSans" font-size="10.00">Urho3D::Serializable</text>
</a>
</g>
<!-- Node6&#45;&gt;Node5 -->
<g id="edge14" class="edge"><title>Node6&#45;&gt;Node5</title>
<path fill="none" stroke="midnightblue" d="M665.064,-79.9259C732.225,-74.4861 837.467,-73.05 922,-103.927 952.998,-115.249 981.933,-142.29 996.382,-157.348"/>
<polygon fill="midnightblue" stroke="midnightblue" points="664.692,-76.4449 655.03,-80.7915 665.294,-83.419 664.692,-76.4449"/>
</g>
<!-- Node6&#45;&gt;Node10 -->
<g id="edge24" class="edge"><title>Node6&#45;&gt;Node10</title>
<path fill="none" stroke="midnightblue" d="M622.907,-104.227C654.872,-125.958 710.864,-166.835 750,-210.927 774.959,-239.047 796.313,-278.517 805.781,-297.251"/>
<polygon fill="midnightblue" stroke="midnightblue" points="624.814,-101.292 614.562,-98.6192 620.91,-107.102 624.814,-101.292"/>
</g>
<!-- Node7 -->
<g id="node14" class="node"><title>Node7</title>
<a xlink:href="a00202.html" target="_top" xlink:title="Base class for objects with type identification, subsystem access and event sending/receiving capabil...">
<polygon fill="none" stroke="red" points="180,-109.427 180,-130.427 270,-130.427 270,-109.427 180,-109.427"/>
<text text-anchor="middle" x="225" y="-117.427" font-family="FreeSans" font-size="10.00">Urho3D::Object</text>
</a>
</g>
<!-- Node7&#45;&gt;Node6 -->
<g id="edge16" class="edge"><title>Node7&#45;&gt;Node6</title>
<path fill="none" stroke="midnightblue" d="M280.436,-118.92C339.875,-117.33 436.918,-113.263 520,-102.927 529.305,-101.769 539.171,-100.168 548.642,-98.4411"/>
<polygon fill="midnightblue" stroke="midnightblue" points="280.056,-115.428 270.148,-119.18 280.233,-122.426 280.056,-115.428"/>
</g>
<!-- Node8 -->
<g id="node16" class="node"><title>Node8</title>
<a xlink:href="a00143.html" target="_top" xlink:title="Hash map template class.">
<polygon fill="none" stroke="red" points="152,-69.4269 152,-90.4269 298,-90.4269 298,-69.4269 152,-69.4269"/>
<text text-anchor="middle" x="225" y="-77.4269" font-family="FreeSans" font-size="10.00">Urho3D::HashMap&lt; T, U &gt;</text>
</a>
</g>
<!-- Node8&#45;&gt;Node6 -->
<g id="edge18" class="edge"><title>Node8&#45;&gt;Node6</title>
<path fill="none" stroke="#9a32cd" stroke-dasharray="5,2" d="M308.468,-81.7171C379.206,-83.2343 478.764,-85.3696 540.78,-86.6997"/>
<polygon fill="#9a32cd" stroke="#9a32cd" points="308.321,-78.2133 298.248,-81.4979 308.17,-85.2116 308.321,-78.2133"/>
<text text-anchor="middle" x="418" y="-89.9269" font-family="FreeSans" font-size="10.00"> instanceDefaultValues_</text>
</g>
<!-- Node9 -->
<g id="node18" class="node"><title>Node9</title>
<a xlink:href="a00195.html" target="_top" xlink:title="Per&#45;object attribute state for network replication, allocated on demand.">
<polygon fill="none" stroke="red" points="162.5,-29.4269 162.5,-50.4269 287.5,-50.4269 287.5,-29.4269 162.5,-29.4269"/>
<text text-anchor="middle" x="225" y="-37.4269" font-family="FreeSans" font-size="10.00">Urho3D::NetworkState</text>
</a>
</g>
<!-- Node9&#45;&gt;Node6 -->
<g id="edge20" class="edge"><title>Node9&#45;&gt;Node6</title>
<path fill="none" stroke="#9a32cd" stroke-dasharray="5,2" d="M297.789,-42.0015C357.835,-44.6897 445.028,-50.8466 520,-64.9269 535.957,-67.9237 553.318,-72.8694 567.601,-77.4083"/>
<polygon fill="#9a32cd" stroke="#9a32cd" points="297.788,-38.4984 287.648,-41.5689 297.49,-45.492 297.788,-38.4984"/>
<text text-anchor="middle" x="418" y="-68.9269" font-family="FreeSans" font-size="10.00"> networkState_</text>
</g>
<!-- Node10&#45;&gt;Node5 -->
<g id="edge22" class="edge"><title>Node10&#45;&gt;Node5</title>
<path fill="none" stroke="#9a32cd" stroke-dasharray="5,2" d="M833.83,-291.537C874.253,-262.515 957.34,-202.862 991.173,-178.572"/>
<polygon fill="#9a32cd" stroke="#9a32cd" points="831.739,-288.729 825.657,-297.404 835.821,-294.415 831.739,-288.729"/>
<text text-anchor="middle" x="897" y="-265.927" font-family="FreeSans" font-size="10.00"> node_</text>
</g>
<!-- Node10&#45;&gt;Node10 -->
<g id="edge62" class="edge"><title>Node10&#45;&gt;Node10</title>
<path fill="none" stroke="#9a32cd" stroke-dasharray="5,2" d="M795.25,-328.72C796.64,-333.456 801.89,-336.927 811,-336.927 825.949,-336.927 830.504,-327.58 824.665,-318.635"/>
<polygon fill="#9a32cd" stroke="#9a32cd" points="798.738,-329.136 797.335,-318.635 791.883,-327.719 798.738,-329.136"/>
<text text-anchor="middle" x="811" y="-340.927" font-family="FreeSans" font-size="10.00"> parent_</text>
</g>
<!-- Node13 -->
<g id="node27" class="node"><title>Node13</title>
<a xlink:href="a00251.html" target="_top" xlink:title="Root scene node, represents the whole scene.">
<polygon fill="none" stroke="red" points="961.5,-330.427 961.5,-351.427 1050.5,-351.427 1050.5,-330.427 961.5,-330.427"/>
<text text-anchor="middle" x="1006" y="-338.427" font-family="FreeSans" font-size="10.00">Urho3D::Scene</text>
</a>
</g>
<!-- Node10&#45;&gt;Node13 -->
<g id="edge32" class="edge"><title>Node10&#45;&gt;Node13</title>
<path fill="none" stroke="midnightblue" d="M863.59,-313.5C882.11,-315.743 903.034,-318.594 922,-321.927 935.401,-324.282 949.888,-327.363 962.997,-330.357"/>
<polygon fill="midnightblue" stroke="midnightblue" points="863.917,-310.015 853.576,-312.318 863.096,-316.966 863.917,-310.015"/>
</g>
<!-- Node11 -->
<g id="node23" class="node"><title>Node11</title>
<a xlink:href="a00223.html" target="_top" xlink:title="Urho3D::PODVector\&lt;\l Urho3D::Node * \&gt;">
<polygon fill="none" stroke="black" points="358.5,-306.927 358.5,-340.927 477.5,-340.927 477.5,-306.927 358.5,-306.927"/>
<text text-anchor="start" x="366.5" y="-327.927" font-family="FreeSans" font-size="10.00">Urho3D::PODVector&lt;</text>
<text text-anchor="middle" x="418" y="-314.927" font-family="FreeSans" font-size="10.00"> Urho3D::Node * &gt;</text>
</a>
</g>
<!-- Node11&#45;&gt;Node10 -->
<g id="edge26" class="edge"><title>Node11&#45;&gt;Node10</title>
<path fill="none" stroke="#9a32cd" stroke-dasharray="5,2" d="M487.784,-314.487C504.222,-312.623 521.704,-310.934 538,-309.927 619.368,-304.897 714.634,-305.723 768.392,-306.807"/>
<polygon fill="#9a32cd" stroke="#9a32cd" points="487.229,-311.028 477.703,-315.665 488.042,-317.98 487.229,-311.028"/>
<text text-anchor="middle" x="598" y="-313.927" font-family="FreeSans" font-size="10.00"> dependencyNodes_</text>
</g>
<!-- Node12 -->
<g id="node25" class="node"><title>Node12</title>
<a xlink:href="a00319.html" target="_top" xlink:title="Vector base class.">
<polygon fill="none" stroke="black" points="0,-280.427 0,-301.427 114,-301.427 114,-280.427 0,-280.427"/>
<text text-anchor="middle" x="57" y="-288.427" font-family="FreeSans" font-size="10.00">Urho3D::VectorBase</text>
</a>
</g>
<!-- Node12&#45;&gt;Node11 -->
<g id="edge28" class="edge"><title>Node12&#45;&gt;Node11</title>
<path fill="none" stroke="midnightblue" d="M124.332,-301.028C126.919,-301.345 129.482,-301.646 132,-301.927 210.073,-310.645 300.526,-316.972 358.456,-320.545"/>
<polygon fill="midnightblue" stroke="midnightblue" points="124.639,-297.539 114.275,-299.742 123.75,-304.483 124.639,-297.539"/>
</g>
<!-- Node15 -->
<g id="node34" class="node"><title>Node15</title>
<a xlink:href="a00315.html" target="_top" xlink:title="Urho3D::Vector\&lt; Urho3D\l::WeakPtr\&lt; Urho3D::Component \&gt; \&gt;">
<polygon fill="none" stroke="black" points="321,-263.927 321,-297.927 515,-297.927 515,-263.927 321,-263.927"/>
<text text-anchor="start" x="329" y="-284.927" font-family="FreeSans" font-size="10.00">Urho3D::Vector&lt; Urho3D</text>
<text text-anchor="middle" x="418" y="-271.927" font-family="FreeSans" font-size="10.00">::WeakPtr&lt; Urho3D::Component &gt; &gt;</text>
</a>
</g>
<!-- Node12&#45;&gt;Node15 -->
<g id="edge42" class="edge"><title>Node12&#45;&gt;Node15</title>
<path fill="none" stroke="midnightblue" d="M124.249,-289.064C179.592,-287.531 258.769,-285.338 320.979,-283.615"/>
<polygon fill="midnightblue" stroke="midnightblue" points="124.101,-285.567 114.202,-289.342 124.295,-292.564 124.101,-285.567"/>
</g>
<!-- Node19 -->
<g id="node43" class="node"><title>Node19</title>
<a xlink:href="a00223.html" target="_top" xlink:title="Urho3D::PODVector\&lt;\l unsigned char \&gt;">
<polygon fill="none" stroke="black" points="165.5,-228.927 165.5,-262.927 284.5,-262.927 284.5,-228.927 165.5,-228.927"/>
<text text-anchor="start" x="173.5" y="-249.927" font-family="FreeSans" font-size="10.00">Urho3D::PODVector&lt;</text>
<text text-anchor="middle" x="225" y="-236.927" font-family="FreeSans" font-size="10.00"> unsigned char &gt;</text>
</a>
</g>
<!-- Node12&#45;&gt;Node19 -->
<g id="edge52" class="edge"><title>Node12&#45;&gt;Node19</title>
<path fill="none" stroke="midnightblue" d="M106.108,-277.773C124.682,-272.798 146.025,-267.081 165.455,-261.876"/>
<polygon fill="midnightblue" stroke="midnightblue" points="105.142,-274.408 96.3885,-280.376 106.954,-281.17 105.142,-274.408"/>
</g>
<!-- Node20 -->
<g id="node46" class="node"><title>Node20</title>
<a xlink:href="a00315.html" target="_top" xlink:title="Urho3D::Vector\&lt; Urho3D\l::SharedPtr\&lt; Urho3D::Component \&gt; \&gt;">
<polygon fill="none" stroke="black" points="316.5,-347.927 316.5,-381.927 519.5,-381.927 519.5,-347.927 316.5,-347.927"/>
<text text-anchor="start" x="324.5" y="-368.927" font-family="FreeSans" font-size="10.00">Urho3D::Vector&lt; Urho3D</text>
<text text-anchor="middle" x="418" y="-355.927" font-family="FreeSans" font-size="10.00">::SharedPtr&lt; Urho3D::Component &gt; &gt;</text>
</a>
</g>
<!-- Node12&#45;&gt;Node20 -->
<g id="edge56" class="edge"><title>Node12&#45;&gt;Node20</title>
<path fill="none" stroke="midnightblue" d="M93.0601,-305.185C110.617,-311.679 132.17,-318.998 152,-323.927 205.622,-337.256 266.461,-347.019 316.409,-353.667"/>
<polygon fill="midnightblue" stroke="midnightblue" points="93.8199,-301.731 83.228,-301.481 91.3522,-308.282 93.8199,-301.731"/>
</g>
<!-- Node24 -->
<g id="node62" class="node"><title>Node24</title>
<a xlink:href="a00223.html" target="_top" xlink:title="Urho3D::PODVector\&lt;\l Urho3D::Constraint * \&gt;">
<polygon fill="none" stroke="black" points="940.5,-28.9269 940.5,-62.9269 1071.5,-62.9269 1071.5,-28.9269 940.5,-28.9269"/>
<text text-anchor="start" x="948.5" y="-49.9269" font-family="FreeSans" font-size="10.00">Urho3D::PODVector&lt;</text>
<text text-anchor="middle" x="1006" y="-36.9269" font-family="FreeSans" font-size="10.00"> Urho3D::Constraint * &gt;</text>
</a>
</g>
<!-- Node12&#45;&gt;Node24 -->
<g id="edge80" class="edge"><title>Node12&#45;&gt;Node24</title>
<path fill="none" stroke="midnightblue" d="M57.9251,-270.156C61.3396,-219.488 77.3233,-88.6806 152,-19.9269 176.664,2.78079 191.475,-0.926931 225,-0.926931 225,-0.926931 225,-0.926931 811,-0.926931 862.768,-0.926931 920.333,-16.1711 959.41,-28.9144"/>
<polygon fill="midnightblue" stroke="midnightblue" points="54.4266,-270.03 57.346,-280.215 61.415,-270.433 54.4266,-270.03"/>
</g>
<!-- Node13&#45;&gt;Node10 -->
<g id="edge30" class="edge"><title>Node13&#45;&gt;Node10</title>
<path fill="none" stroke="#9a32cd" stroke-dasharray="5,2" d="M951.203,-332.13C926.922,-328.18 898.021,-323.409 872,-318.927 866.061,-317.904 859.802,-316.802 853.646,-315.705"/>
<polygon fill="#9a32cd" stroke="#9a32cd" points="950.872,-335.622 961.304,-333.769 951.994,-328.712 950.872,-335.622"/>
<text text-anchor="middle" x="897" y="-330.927" font-family="FreeSans" font-size="10.00"> scene_</text>
</g>
<!-- Node14 -->
<g id="node30" class="node"><title>Node14</title>
<a xlink:href="a00289.html" target="_top" xlink:title="String class.">
<polygon fill="none" stroke="black" points="554,-376.427 554,-397.427 642,-397.427 642,-376.427 554,-376.427"/>
<text text-anchor="middle" x="598" y="-384.427" font-family="FreeSans" font-size="10.00">Urho3D::String</text>
</a>
</g>
<!-- Node14&#45;&gt;Node10 -->
<g id="edge60" class="edge"><title>Node14&#45;&gt;Node10</title>
<path fill="none" stroke="#9a32cd" stroke-dasharray="5,2" d="M632.815,-372.295C649.476,-365.364 667.595,-357.95 676,-354.927 708.408,-343.268 717.509,-343.351 750,-331.927 761.702,-327.812 774.498,-322.851 785.335,-318.509"/>
<polygon fill="#9a32cd" stroke="#9a32cd" points="631.139,-369.202 623.259,-376.283 633.835,-375.662 631.139,-369.202"/>
<text text-anchor="middle" x="713" y="-358.927" font-family="FreeSans" font-size="10.00"> name_</text>
</g>
<!-- Node14&#45;&gt;Node13 -->
<g id="edge34" class="edge"><title>Node14&#45;&gt;Node13</title>
<path fill="none" stroke="#9a32cd" stroke-dasharray="5,2" d="M628.456,-401.631C642.567,-407.656 659.774,-413.914 676,-416.927 708.336,-422.931 717.453,-421.656 750,-416.927 836.254,-404.394 933.885,-369.281 979.666,-351.512"/>
<polygon fill="#9a32cd" stroke="#9a32cd" points="629.791,-398.394 619.23,-397.54 626.953,-404.793 629.791,-398.394"/>
<text text-anchor="middle" x="811" y="-416.927" font-family="FreeSans" font-size="10.00"> fileName_</text>
</g>
<!-- Node14&#45;&gt;Node14 -->
<g id="edge36" class="edge"><title>Node14&#45;&gt;Node14</title>
<path fill="none" stroke="#9a32cd" stroke-dasharray="5,2" d="M576.991,-407.354C578.612,-412.276 585.615,-415.927 598,-415.927 617.816,-415.927 623.854,-406.58 616.113,-397.635"/>
<polygon fill="#9a32cd" stroke="#9a32cd" points="580.385,-408.218 579.887,-397.635 573.677,-406.219 580.385,-408.218"/>
<text text-anchor="middle" x="598" y="-419.927" font-family="FreeSans" font-size="10.00"> EMPTY</text>
</g>
<!-- Node15&#45;&gt;Node10 -->
<g id="edge40" class="edge"><title>Node15&#45;&gt;Node10</title>
<path fill="none" stroke="#9a32cd" stroke-dasharray="5,2" d="M525.171,-282.433C566.702,-283.558 614.613,-285.517 658,-288.927 695.358,-291.863 737.614,-297.27 768.238,-301.568"/>
<polygon fill="#9a32cd" stroke="#9a32cd" points="525.121,-278.931 515.034,-282.172 524.941,-285.928 525.121,-278.931"/>
<text text-anchor="middle" x="598" y="-292.927" font-family="FreeSans" font-size="10.00"> listeners_</text>
</g>
<!-- Node16 -->
<g id="node37" class="node"><title>Node16</title>
<a xlink:href="a00320.html" target="_top" xlink:title="Dynamically sized buffer that can be read and written to as a stream.">
<polygon fill="none" stroke="black" points="538.5,-189.427 538.5,-210.427 657.5,-210.427 657.5,-189.427 538.5,-189.427"/>
<text text-anchor="middle" x="598" y="-197.427" font-family="FreeSans" font-size="10.00">Urho3D::VectorBuffer</text>
</a>
</g>
<!-- Node16&#45;&gt;Node4 -->
<g id="edge68" class="edge"><title>Node16&#45;&gt;Node4</title>
<path fill="none" stroke="#9a32cd" stroke-dasharray="5,2" d="M667.816,-201.62C835.483,-205.317 1274.1,-212.795 1640,-199.927 1645.8,-199.723 1651.87,-199.425 1657.91,-199.075"/>
<polygon fill="#9a32cd" stroke="#9a32cd" points="667.72,-198.117 657.644,-201.393 667.564,-205.115 667.72,-198.117"/>
<text text-anchor="middle" x="1130" y="-210.927" font-family="FreeSans" font-size="10.00"> attrBuffer_</text>
</g>
<!-- Node16&#45;&gt;Node10 -->
<g id="edge44" class="edge"><title>Node16&#45;&gt;Node10</title>
<path fill="none" stroke="#9a32cd" stroke-dasharray="5,2" d="M664.797,-212.517C698.57,-219.691 735.432,-229.006 750,-237.927 774.882,-253.164 795.073,-281.848 804.768,-297.346"/>
<polygon fill="#9a32cd" stroke="#9a32cd" points="665.414,-209.07 654.91,-210.457 663.986,-215.923 665.414,-209.07"/>
<text text-anchor="middle" x="713" y="-241.927" font-family="FreeSans" font-size="10.00"> attrBuffer_</text>
</g>
<!-- Node16&#45;&gt;Node23 -->
<g id="edge76" class="edge"><title>Node16&#45;&gt;Node23</title>
<path fill="none" stroke="#9a32cd" stroke-dasharray="5,2" d="M665.726,-187.671C734.548,-175.678 844.343,-157.816 940,-147.927 1025.9,-139.047 1125.78,-134.609 1187.96,-132.54"/>
<polygon fill="#9a32cd" stroke="#9a32cd" points="665.122,-184.223 655.876,-189.396 666.33,-191.118 665.122,-184.223"/>
<text text-anchor="middle" x="897" y="-158.927" font-family="FreeSans" font-size="10.00"> contacts_</text>
</g>
<!-- Node17 -->
<g id="node39" class="node"><title>Node17</title>
<a xlink:href="a00115.html" target="_top" xlink:title="Abstract stream for reading.">
<polygon fill="none" stroke="black" points="167,-189.427 167,-210.427 283,-210.427 283,-189.427 167,-189.427"/>
<text text-anchor="middle" x="225" y="-197.427" font-family="FreeSans" font-size="10.00">Urho3D::Deserializer</text>
</a>
</g>
<!-- Node17&#45;&gt;Node16 -->
<g id="edge46" class="edge"><title>Node17&#45;&gt;Node16</title>
<path fill="none" stroke="midnightblue" d="M293.343,-199.927C363.464,-199.927 471.475,-199.927 538.278,-199.927"/>
<polygon fill="midnightblue" stroke="midnightblue" points="293.281,-196.427 283.281,-199.927 293.281,-203.427 293.281,-196.427"/>
</g>
<!-- Node18 -->
<g id="node41" class="node"><title>Node18</title>
<a xlink:href="a00264.html" target="_top" xlink:title="Abstract stream for writing.">
<polygon fill="none" stroke="black" points="173,-149.427 173,-170.427 277,-170.427 277,-149.427 173,-149.427"/>
<text text-anchor="middle" x="225" y="-157.427" font-family="FreeSans" font-size="10.00">Urho3D::Serializer</text>
</a>
</g>
<!-- Node18&#45;&gt;Node16 -->
<g id="edge48" class="edge"><title>Node18&#45;&gt;Node16</title>
<path fill="none" stroke="midnightblue" d="M287.244,-166.602C357.102,-174.093 469.635,-186.161 538.395,-193.535"/>
<polygon fill="midnightblue" stroke="midnightblue" points="287.573,-163.117 277.257,-165.531 286.827,-170.077 287.573,-163.117"/>
</g>
<!-- Node19&#45;&gt;Node16 -->
<g id="edge50" class="edge"><title>Node19&#45;&gt;Node16</title>
<path fill="none" stroke="#9a32cd" stroke-dasharray="5,2" d="M294.86,-239.73C354.743,-234.087 443.237,-224.966 520,-213.927 527.081,-212.909 534.504,-211.726 541.838,-210.489"/>
<polygon fill="#9a32cd" stroke="#9a32cd" points="294.393,-236.258 284.762,-240.674 295.044,-243.227 294.393,-236.258"/>
<text text-anchor="middle" x="418" y="-240.927" font-family="FreeSans" font-size="10.00"> buffer_</text>
</g>
<!-- Node20&#45;&gt;Node10 -->
<g id="edge54" class="edge"><title>Node20&#45;&gt;Node10</title>
<path fill="none" stroke="#9a32cd" stroke-dasharray="5,2" d="M529.789,-348.713C609.298,-337.181 711.692,-322.33 768.406,-314.105"/>
<polygon fill="#9a32cd" stroke="#9a32cd" points="529.112,-345.275 519.718,-350.174 530.117,-352.202 529.112,-345.275"/>
<text text-anchor="middle" x="598" y="-350.927" font-family="FreeSans" font-size="10.00"> components_</text>
</g>
<!-- Node21 -->
<g id="node52" class="node"><title>Node21</title>
<polygon fill="none" stroke="#bfbfbf" points="1436.5,-74.4269 1436.5,-95.4269 1521.5,-95.4269 1521.5,-74.4269 1436.5,-74.4269"/>
<text text-anchor="middle" x="1479" y="-82.4269" font-family="FreeSans" font-size="10.00">btMotionState</text>
</g>
<!-- Node21&#45;&gt;Node4 -->
<g id="edge64" class="edge"><title>Node21&#45;&gt;Node4</title>
<path fill="none" stroke="midnightblue" d="M1532.06,-92.7759C1564.7,-99.1771 1606.53,-110.299 1640,-128.927 1666.18,-143.495 1690.28,-169.713 1702.53,-184.337"/>
<polygon fill="midnightblue" stroke="midnightblue" points="1532.28,-89.257 1521.81,-90.86 1531,-96.1378 1532.28,-89.257"/>
</g>
<!-- Node22 -->
<g id="node56" class="node"><title>Node22</title>
<a xlink:href="a00327.html" target="_top" xlink:title="Urho3D::WeakPtr\&lt; Urho3D\l::PhysicsWorld \&gt;">
<polygon fill="none" stroke="black" points="1406,-113.927 1406,-147.927 1552,-147.927 1552,-113.927 1406,-113.927"/>
<text text-anchor="start" x="1414" y="-134.927" font-family="FreeSans" font-size="10.00">Urho3D::WeakPtr&lt; Urho3D</text>
<text text-anchor="middle" x="1479" y="-121.927" font-family="FreeSans" font-size="10.00">::PhysicsWorld &gt;</text>
</a>
</g>
<!-- Node22&#45;&gt;Node4 -->
<g id="edge70" class="edge"><title>Node22&#45;&gt;Node4</title>
<path fill="none" stroke="#9a32cd" stroke-dasharray="5,2" d="M1562.35,-132.885C1587.83,-135.423 1615.57,-140.198 1640,-148.927 1662.41,-156.932 1684.89,-173.226 1698.37,-184.113"/>
<polygon fill="#9a32cd" stroke="#9a32cd" points="1562.61,-129.394 1552.34,-131.989 1561.99,-136.366 1562.61,-129.394"/>
<text text-anchor="middle" x="1605" y="-152.927" font-family="FreeSans" font-size="10.00"> physicsWorld_</text>
</g>
<!-- Node23&#45;&gt;Node22 -->
<g id="edge72" class="edge"><title>Node23&#45;&gt;Node22</title>
<path fill="none" stroke="#9a32cd" stroke-dasharray="5,2" d="M1318.45,-130.927C1346.05,-130.927 1377.73,-130.927 1405.61,-130.927"/>
<polygon fill="#9a32cd" stroke="#9a32cd" points="1318.09,-127.427 1308.09,-130.927 1318.09,-134.427 1318.09,-127.427"/>
<text text-anchor="middle" x="1357" y="-134.927" font-family="FreeSans" font-size="10.00"> ptr_</text>
</g>
<!-- Node24&#45;&gt;Node4 -->
<g id="edge86" class="edge"><title>Node24&#45;&gt;Node4</title>
<path fill="none" stroke="#9a32cd" stroke-dasharray="5,2" d="M1081.8,-40.9137C1188.06,-35.6098 1386.81,-31.9954 1552,-64.9269 1592.96,-73.0935 1606.72,-72.6859 1640,-97.9269 1671.93,-122.14 1695.9,-164.596 1705.89,-184.311"/>
<polygon fill="#9a32cd" stroke="#9a32cd" points="1081.31,-37.4347 1071.5,-41.4478 1081.67,-44.4253 1081.31,-37.4347"/>
<text text-anchor="middle" x="1357" y="-47.9269" font-family="FreeSans" font-size="10.00"> constraints_</text>
</g>
<!-- Node24&#45;&gt;Node23 -->
<g id="edge78" class="edge"><title>Node24&#45;&gt;Node23</title>
<path fill="none" stroke="#9a32cd" stroke-dasharray="5,2" d="M1081.72,-65.6385C1110.09,-74.2446 1142.17,-85.4719 1170,-98.9269 1178.66,-103.112 1179.36,-106.703 1188,-110.927 1195.3,-114.497 1203.39,-117.674 1211.21,-120.387"/>
<polygon fill="#9a32cd" stroke="#9a32cd" points="1082.44,-62.2006 1071.86,-62.7044 1080.44,-68.9101 1082.44,-62.2006"/>
<text text-anchor="middle" x="1130" y="-102.927" font-family="FreeSans" font-size="10.00"> constraints_</text>
</g>
<!-- Node25 -->
<g id="node65" class="node"><title>Node25</title>
<a xlink:href="a00236.html" target="_top" xlink:title="Reference count structure.">
<polygon fill="none" stroke="black" points="1197,-80.4269 1197,-101.427 1299,-101.427 1299,-80.4269 1197,-80.4269"/>
<text text-anchor="middle" x="1248" y="-88.4269" font-family="FreeSans" font-size="10.00">Urho3D::RefCount</text>
</a>
</g>
<!-- Node25&#45;&gt;Node22 -->
<g id="edge82" class="edge"><title>Node25&#45;&gt;Node22</title>
<path fill="none" stroke="#9a32cd" stroke-dasharray="5,2" d="M1309.14,-100.674C1333.67,-104.663 1362.2,-109.398 1388,-113.927 1393.7,-114.927 1399.59,-115.982 1405.52,-117.057"/>
<polygon fill="#9a32cd" stroke="#9a32cd" points="1309.68,-97.2155 1299.25,-99.0706 1308.56,-104.125 1309.68,-97.2155"/>
<text text-anchor="middle" x="1357" y="-117.927" font-family="FreeSans" font-size="10.00"> refCount_</text>
</g>
</g>
</svg>
        <g id="navigator" transform="translate(0 0)" fill="#404254">
                <rect fill="#f2f5e9" fill-opacity="0.5" stroke="#606060" stroke-width=".5" x="0" y="0" width="60" height="60"/>
                <use id="zoomplus" xlink:href="#zoomPlus" x="17" y="9" onmousedown="handleZoom(evt,'in')"/>
                <use id="zoomminus" xlink:href="#zoomMin" x="42" y="9" onmousedown="handleZoom(evt,'out')"/>
                <use id="reset" xlink:href="#resetDef" x="30" y="36" onmousedown="handleReset()"/>
                <g id="arrowUp" xlink:href="#dirArrow" transform="translate(30 24)" onmousedown="handlePan(0,-1)">
                  <use xlink:href="#rim" fill="#404040">
                        <set attributeName="fill" to="#808080" begin="arrowUp.mouseover" end="arrowUp.mouseout"/>
                  </use>
                  <path fill="none" stroke="white" stroke-width="1.5" d="M0,-3.0v7 M-2.5,-0.5L0,-3.0L2.5,-0.5"/>
                </g>
                <g id="arrowRight" xlink:href="#dirArrow" transform="rotate(90) translate(36 -43)" onmousedown="handlePan(1,0)">
                  <use xlink:href="#rim" fill="#404040">
                        <set attributeName="fill" to="#808080" begin="arrowRight.mouseover" end="arrowRight.mouseout"/>
                  </use>
                  <path fill="none" stroke="white" stroke-width="1.5" d="M0,-3.0v7 M-2.5,-0.5L0,-3.0L2.5,-0.5"/>
                </g>
                <g id="arrowDown" xlink:href="#dirArrow" transform="rotate(180) translate(-30 -48)" onmousedown="handlePan(0,1)">
                  <use xlink:href="#rim" fill="#404040">
                        <set attributeName="fill" to="#808080" begin="arrowDown.mouseover" end="arrowDown.mouseout"/>
                  </use>
                  <path fill="none" stroke="white" stroke-width="1.5" d="M0,-3.0v7 M-2.5,-0.5L0,-3.0L2.5,-0.5"/>
                </g>
                <g id="arrowLeft" xlink:href="#dirArrow" transform="rotate(270) translate(-36 17)" onmousedown="handlePan(-1,0)">
                  <use xlink:href="#rim" fill="#404040">
                        <set attributeName="fill" to="#808080" begin="arrowLeft.mouseover" end="arrowLeft.mouseout"/>
                  </use>
                  <path fill="none" stroke="white" stroke-width="1.5" d="M0,-3.0v7 M-2.5,-0.5L0,-3.0L2.5,-0.5"/>
                </g>
        </g>
        <svg viewBox="0 0 15 15" width="100%" height="30px" preserveAspectRatio="xMaxYMin meet">
         <g id="arrow_out" transform="scale(0.3 0.3)">
          <a xlink:href="a01267_org.svg" target="_base">
           <rect id="button" ry="5" rx="5" y="6" x="6" height="38" width="38"
                fill="#f2f5e9" fill-opacity="0.5" stroke="#606060" stroke-width="1.0"/>
           <path id="arrow"
             d="M 11.500037,31.436501 C 11.940474,20.09759 22.043105,11.32322 32.158766,21.979434 L 37.068811,17.246167 C 37.068811,17.246167 37.088388,32 37.088388,32 L 22.160133,31.978069 C 22.160133,31.978069 26.997745,27.140456 26.997745,27.140456 C 18.528582,18.264221 13.291696,25.230495 11.500037,31.436501 z"
             style="fill:#404040;"/>
          </a>
         </g>
        </svg>
</svg>
