<?xml version="1.0" encoding="UTF-8" standalone="no"?>
<!DOCTYPE svg PUBLIC "-//W3C//DTD SVG 1.1//EN"
 "http://www.w3.org/Graphics/SVG/1.1/DTD/svg11.dtd">
<!-- Generated by graphviz version 2.26.3 (20100126.1600)
 -->
<!-- Title: Urho3D::SceneReplicationState Pages: 1 -->
<!--zoomable 922 -->
<svg id="main" version="1.1" xmlns="http://www.w3.org/2000/svg" xmlns:xlink="http://www.w3.org/1999/xlink" xml:space="preserve" onload="init(evt)">
        <defs>
                <circle id="rim" cx="0" cy="0" r="7"/>
                <circle id="rim2" cx="0" cy="0" r="3.5"/>
                <g id="zoomPlus">
                        <use xlink:href="#rim" fill="#404040">
                                <set attributeName="fill" to="#808080" begin="zoomplus.mouseover" end="zoomplus.mouseout"/>
                        </use>
                        <path d="M-4,0h8M0,-4v8" fill="none" stroke="white" stroke-width="1.5" pointer-events="none"/>
                </g>
                <g id="zoomMin">
                        <use xlink:href="#rim" fill="#404040">
                                <set attributeName="fill" to="#808080" begin="zoomminus.mouseover" end="zoomminus.mouseout"/>
                        </use>
                        <path d="M-4,0h8" fill="none" stroke="white" stroke-width="1.5" pointer-events="none"/>
                </g>
                <g id="dirArrow">
                        <path fill="none" stroke="white" stroke-width="1.5" d="M0,-3.0v7 M-2.5,-0.5L0,-3.0L2.5,-0.5"/>
                </g>
               <g id="resetDef">
                       <use xlink:href="#rim2" fill="#404040">
                               <set attributeName="fill" to="#808080" begin="reset.mouseover" end="reset.mouseout"/>
                       </use>
               </g>
        </defs>

<script type="text/javascript">
var viewWidth = 1786;
var viewHeight = 922;
var sectionId = 'dynsection-1';
</script>
<script xlink:href="svgpan.js"/>
<svg id="graph" class="graph">
<g id="viewport">
<title>Urho3D::SceneReplicationState</title>
<!-- Node1 -->
<g id="node1" class="node"><title>Node1</title>
<polygon fill="#bfbfbf" stroke="black" points="997,-647.886 997,-681.886 1137,-681.886 1137,-647.886 997,-647.886"/>
<text text-anchor="start" x="1005" y="-668.886" font-family="FreeSans" font-size="10.00">Urho3D::SceneReplication</text>
<text text-anchor="middle" x="1067" y="-655.886" font-family="FreeSans" font-size="10.00">State</text>
</g>
<!-- Node3 -->
<g id="node4" class="node"><title>Node3</title>
<a xlink:href="a00089.html" target="_top" xlink:title="Connection to a remote network host.">
<polygon fill="none" stroke="black" points="1428.5,-444.386 1428.5,-465.386 1541.5,-465.386 1541.5,-444.386 1428.5,-444.386"/>
<text text-anchor="middle" x="1485" y="-452.386" font-family="FreeSans" font-size="10.00">Urho3D::Connection</text>
</a>
</g>
<!-- Node1&#45;&gt;Node3 -->
<g id="edge18" class="edge"><title>Node1&#45;&gt;Node3</title>
<path fill="none" stroke="#9a32cd" stroke-dasharray="5,2" d="M1145.94,-644.924C1148.07,-643.368 1150.1,-641.692 1152,-639.886 1169.44,-623.348 1151.62,-604.378 1170,-588.886 1252.74,-519.145 1316.67,-602.653 1410,-547.886 1444.35,-527.731 1469.36,-485.496 1479.72,-465.638"/>
<polygon fill="#9a32cd" stroke="#9a32cd" points="1143.91,-642.067 1137.3,-650.347 1147.63,-647.996 1143.91,-642.067"/>
<text text-anchor="middle" x="1243" y="-592.886" font-family="FreeSans" font-size="10.00"> sceneState_</text>
</g>
<!-- Node2 -->
<g id="node2" class="node"><title>Node2</title>
<a xlink:href="a00241.html" target="_top" xlink:title="Base class for per&#45;user network replication states.">
<polygon fill="none" stroke="black" points="1640.5,-600.386 1640.5,-621.386 1777.5,-621.386 1777.5,-600.386 1640.5,-600.386"/>
<text text-anchor="middle" x="1709" y="-608.386" font-family="FreeSans" font-size="10.00">Urho3D::ReplicationState</text>
</a>
</g>
<!-- Node2&#45;&gt;Node1 -->
<g id="edge2" class="edge"><title>Node2&#45;&gt;Node1</title>
<path fill="none" stroke="midnightblue" d="M1629.87,-621.069C1550.61,-630.91 1425.05,-645.521 1316,-653.886 1255.71,-658.512 1187.04,-661.365 1137.11,-663.003"/>
<polygon fill="midnightblue" stroke="midnightblue" points="1630.77,-624.484 1640.26,-619.773 1629.91,-617.538 1630.77,-624.484"/>
</g>
<!-- Node3&#45;&gt;Node2 -->
<g id="edge4" class="edge"><title>Node3&#45;&gt;Node2</title>
<path fill="none" stroke="#9a32cd" stroke-dasharray="5,2" d="M1508.88,-471.517C1555.09,-503.697 1655.54,-573.655 1693.79,-600.295"/>
<polygon fill="#9a32cd" stroke="#9a32cd" points="1510.6,-468.452 1500.4,-465.609 1506.6,-474.196 1510.6,-468.452"/>
<text text-anchor="middle" x="1591" y="-549.886" font-family="FreeSans" font-size="10.00"> connection_</text>
</g>
<!-- Node4 -->
<g id="node6" class="node"><title>Node4</title>
<a xlink:href="a00200.html" target="_top" xlink:title="Base class for objects with type identification, subsystem access and event sending/receiving capabil...">
<polygon fill="none" stroke="black" points="1198,-819.386 1198,-840.386 1288,-840.386 1288,-819.386 1198,-819.386"/>
<text text-anchor="middle" x="1243" y="-827.386" font-family="FreeSans" font-size="10.00">Urho3D::Object</text>
</a>
</g>
<!-- Node4&#45;&gt;Node3 -->
<g id="edge6" class="edge"><title>Node4&#45;&gt;Node3</title>
<path fill="none" stroke="midnightblue" d="M1297.96,-816.706C1334.83,-805.086 1381.66,-784.467 1410,-749.886 1447.51,-704.108 1476.8,-512.582 1483.54,-465.416"/>
<polygon fill="midnightblue" stroke="midnightblue" points="1296.89,-813.371 1288.33,-819.61 1298.92,-820.073 1296.89,-813.371"/>
</g>
<!-- Node5 -->
<g id="node8" class="node"><title>Node5</title>
<a xlink:href="a00234.html" target="_top" xlink:title="Base class for intrusively reference&#45;counted objects. These are noncopyable and non&#45;assignable.">
<polygon fill="none" stroke="black" points="441,-802.386 441,-823.386 555,-823.386 555,-802.386 441,-802.386"/>
<text text-anchor="middle" x="498" y="-810.386" font-family="FreeSans" font-size="10.00">Urho3D::RefCounted</text>
</a>
</g>
<!-- Node5&#45;&gt;Node4 -->
<g id="edge8" class="edge"><title>Node5&#45;&gt;Node4</title>
<path fill="none" stroke="midnightblue" d="M565.641,-814.43C715.387,-817.847 1071.61,-825.975 1197.76,-828.854"/>
<polygon fill="midnightblue" stroke="midnightblue" points="565.299,-810.921 555.222,-814.192 565.139,-817.919 565.299,-810.921"/>
</g>
<!-- Node7 -->
<g id="node12" class="node"><title>Node7</title>
<a xlink:href="a00095.html" target="_top" xlink:title="Urho3D execution context. Provides access to subsystems, object factories and attributes, and event receivers.">
<polygon fill="none" stroke="red" points="830.5,-840.386 830.5,-861.386 927.5,-861.386 927.5,-840.386 830.5,-840.386"/>
<text text-anchor="middle" x="879" y="-848.386" font-family="FreeSans" font-size="10.00">Urho3D::Context</text>
</a>
</g>
<!-- Node5&#45;&gt;Node7 -->
<g id="edge14" class="edge"><title>Node5&#45;&gt;Node7</title>
<path fill="none" stroke="midnightblue" d="M565.212,-821.815C576.805,-823.251 588.744,-824.665 600,-825.886 680.62,-834.633 774.588,-842.592 830.309,-847.079"/>
<polygon fill="midnightblue" stroke="midnightblue" points="565.497,-818.323 555.139,-820.551 564.626,-825.269 565.497,-818.323"/>
</g>
<!-- Node6 -->
<g id="node10" class="node"><title>Node6</title>
<a xlink:href="a00233.html" target="_top" xlink:title="Reference count structure.">
<polygon fill="none" stroke="black" points="223,-781.386 223,-802.386 325,-802.386 325,-781.386 223,-781.386"/>
<text text-anchor="middle" x="274" y="-789.386" font-family="FreeSans" font-size="10.00">Urho3D::RefCount</text>
</a>
</g>
<!-- Node6&#45;&gt;Node5 -->
<g id="edge10" class="edge"><title>Node6&#45;&gt;Node5</title>
<path fill="none" stroke="#9a32cd" stroke-dasharray="5,2" d="M335.08,-797.613C368.037,-800.702 408.466,-804.493 440.806,-807.524"/>
<polygon fill="#9a32cd" stroke="#9a32cd" points="335.392,-794.127 325.109,-796.678 334.739,-801.096 335.392,-794.127"/>
<text text-anchor="middle" x="371" y="-806.886" font-family="FreeSans" font-size="10.00"> refCount_</text>
</g>
<!-- Node9 -->
<g id="node18" class="node"><title>Node9</title>
<a xlink:href="a00324.html" target="_top" xlink:title="Urho3D::WeakPtr\&lt; Urho3D\l::Scene \&gt;">
<polygon fill="none" stroke="black" points="1170,-610.886 1170,-644.886 1316,-644.886 1316,-610.886 1170,-610.886"/>
<text text-anchor="start" x="1178" y="-631.886" font-family="FreeSans" font-size="10.00">Urho3D::WeakPtr&lt; Urho3D</text>
<text text-anchor="middle" x="1243" y="-618.886" font-family="FreeSans" font-size="10.00">::Scene &gt;</text>
</a>
</g>
<!-- Node6&#45;&gt;Node9 -->
<g id="edge40" class="edge"><title>Node6&#45;&gt;Node9</title>
<path fill="none" stroke="#9a32cd" stroke-dasharray="5,2" d="M335.238,-785.501C528.271,-765.267 1113.57,-703.075 1152,-688.886 1179.12,-678.874 1206.12,-659.246 1223.57,-644.951"/>
<polygon fill="#9a32cd" stroke="#9a32cd" points="334.839,-782.023 325.259,-786.546 335.569,-788.985 334.839,-782.023"/>
<text text-anchor="middle" x="688" y="-759.886" font-family="FreeSans" font-size="10.00"> refCount_</text>
</g>
<!-- Node7&#45;&gt;Node4 -->
<g id="edge12" class="edge"><title>Node7&#45;&gt;Node4</title>
<path fill="none" stroke="#9a32cd" stroke-dasharray="5,2" d="M938.05,-847.48C1010.61,-843.294 1132.13,-836.283 1197.72,-832.498"/>
<polygon fill="#9a32cd" stroke="#9a32cd" points="937.495,-844.006 927.713,-848.076 937.898,-850.994 937.495,-844.006"/>
<text text-anchor="middle" x="1067" y="-847.886" font-family="FreeSans" font-size="10.00"> context_</text>
</g>
<!-- Node8 -->
<g id="node15" class="node"><title>Node8</title>
<a xlink:href="a00163.html" target="_top" xlink:title="Urho3D::LinkedList\l\&lt; Urho3D::EventHandler \&gt;">
<polygon fill="none" stroke="red" points="806,-879.886 806,-913.886 952,-913.886 952,-879.886 806,-879.886"/>
<text text-anchor="start" x="814" y="-900.886" font-family="FreeSans" font-size="10.00">Urho3D::LinkedList</text>
<text text-anchor="middle" x="879" y="-887.886" font-family="FreeSans" font-size="10.00">&lt; Urho3D::EventHandler &gt;</text>
</a>
</g>
<!-- Node8&#45;&gt;Node4 -->
<g id="edge16" class="edge"><title>Node8&#45;&gt;Node4</title>
<path fill="none" stroke="#9a32cd" stroke-dasharray="5,2" d="M962.085,-890.222C1016.58,-884.802 1089.11,-875.592 1152,-860.886 1174.1,-855.718 1198.4,-847.292 1216.33,-840.528"/>
<polygon fill="#9a32cd" stroke="#9a32cd" points="961.741,-886.739 952.126,-891.19 962.418,-893.706 961.741,-886.739"/>
<text text-anchor="middle" x="1067" y="-891.886" font-family="FreeSans" font-size="10.00"> eventHandlers_</text>
</g>
<!-- Node9&#45;&gt;Node3 -->
<g id="edge20" class="edge"><title>Node9&#45;&gt;Node3</title>
<path fill="none" stroke="#9a32cd" stroke-dasharray="5,2" d="M1326.45,-625.125C1355.17,-620.678 1386.09,-611.631 1410,-593.886 1454.92,-560.551 1475.87,-492.078 1482.53,-465.636"/>
<polygon fill="#9a32cd" stroke="#9a32cd" points="1325.82,-621.678 1316.4,-626.512 1326.78,-628.612 1325.82,-621.678"/>
<text text-anchor="middle" x="1372" y="-626.886" font-family="FreeSans" font-size="10.00"> scene_</text>
</g>
<!-- Node10 -->
<g id="node20" class="node"><title>Node10</title>
<a xlink:href="a00248.html" target="_top" xlink:title="Root scene node, represents the whole scene.">
<polygon fill="none" stroke="red" points="834.5,-599.386 834.5,-620.386 923.5,-620.386 923.5,-599.386 834.5,-599.386"/>
<text text-anchor="middle" x="879" y="-607.386" font-family="FreeSans" font-size="10.00">Urho3D::Scene</text>
</a>
</g>
<!-- Node10&#45;&gt;Node9 -->
<g id="edge22" class="edge"><title>Node10&#45;&gt;Node9</title>
<path fill="none" stroke="#9a32cd" stroke-dasharray="5,2" d="M933.753,-612.594C996.681,-615.706 1100.23,-620.827 1169.98,-624.276"/>
<polygon fill="#9a32cd" stroke="#9a32cd" points="933.794,-609.092 923.634,-612.094 933.448,-616.083 933.794,-609.092"/>
<text text-anchor="middle" x="1067" y="-626.886" font-family="FreeSans" font-size="10.00"> ptr_</text>
</g>
<!-- Node11 -->
<g id="node22" class="node"><title>Node11</title>
<a xlink:href="a00288.html" target="_top" xlink:title="String class.">
<polygon fill="none" stroke="black" points="454,-522.386 454,-543.386 542,-543.386 542,-522.386 454,-522.386"/>
<text text-anchor="middle" x="498" y="-530.386" font-family="FreeSans" font-size="10.00">Urho3D::String</text>
</a>
</g>
<!-- Node11&#45;&gt;Node3 -->
<g id="edge66" class="edge"><title>Node11&#45;&gt;Node3</title>
<path fill="none" stroke="#9a32cd" stroke-dasharray="5,2" d="M552.087,-531.678C664.099,-528.986 929.575,-521.624 1152,-507.886 1225.01,-503.377 1243.14,-500.484 1316,-493.886 1357.8,-490.101 1369.21,-494.78 1410,-484.886 1428.53,-480.39 1448.54,-472.204 1463.23,-465.518"/>
<polygon fill="#9a32cd" stroke="#9a32cd" points="551.965,-528.18 542.051,-531.916 552.132,-535.178 551.965,-528.18"/>
<text text-anchor="middle" x="1067" y="-519.886" font-family="FreeSans" font-size="10.00"> sceneFileName_</text>
</g>
<!-- Node11&#45;&gt;Node10 -->
<g id="edge24" class="edge"><title>Node11&#45;&gt;Node10</title>
<path fill="none" stroke="#9a32cd" stroke-dasharray="5,2" d="M552.069,-538.721C632.938,-547.448 776,-562.886 776,-562.886 807.086,-571.416 840.615,-588.306 860.698,-599.344"/>
<polygon fill="#9a32cd" stroke="#9a32cd" points="552.368,-535.233 542.05,-537.64 551.617,-542.193 552.368,-535.233"/>
<text text-anchor="middle" x="688" y="-566.886" font-family="FreeSans" font-size="10.00"> fileName_</text>
</g>
<!-- Node11&#45;&gt;Node11 -->
<g id="edge26" class="edge"><title>Node11&#45;&gt;Node11</title>
<path fill="none" stroke="#9a32cd" stroke-dasharray="5,2" d="M474.78,-553.313C476.571,-558.235 484.311,-561.886 498,-561.886 519.902,-561.886 526.576,-552.54 518.02,-543.594"/>
<polygon fill="#9a32cd" stroke="#9a32cd" points="478.176,-554.187 477.98,-543.594 471.528,-551.998 478.176,-554.187"/>
<text text-anchor="middle" x="498" y="-565.886" font-family="FreeSans" font-size="10.00"> EMPTY</text>
</g>
<!-- Node12 -->
<g id="node25" class="node"><title>Node12</title>
<a xlink:href="a00143.html" target="_top" xlink:title="Urho3D::HashSet\&lt; unsigned \&gt;">
<polygon fill="none" stroke="black" points="414.5,-662.386 414.5,-683.386 581.5,-683.386 581.5,-662.386 414.5,-662.386"/>
<text text-anchor="middle" x="498" y="-670.386" font-family="FreeSans" font-size="10.00">Urho3D::HashSet&lt; unsigned &gt;</text>
</a>
</g>
<!-- Node12&#45;&gt;Node1 -->
<g id="edge80" class="edge"><title>Node12&#45;&gt;Node1</title>
<path fill="none" stroke="#9a32cd" stroke-dasharray="5,2" d="M591.814,-680.525C594.572,-680.66 597.306,-680.781 600,-680.886 761.676,-687.217 802.535,-685.29 964,-674.886 974.668,-674.199 985.941,-673.291 996.961,-672.302"/>
<polygon fill="#9a32cd" stroke="#9a32cd" points="591.916,-677.026 581.742,-679.984 591.54,-684.016 591.916,-677.026"/>
<text text-anchor="middle" x="688" y="-687.886" font-family="FreeSans" font-size="10.00"> dirtyNodes_</text>
</g>
<!-- Node12&#45;&gt;Node3 -->
<g id="edge72" class="edge"><title>Node12&#45;&gt;Node3</title>
<path fill="none" stroke="#9a32cd" stroke-dasharray="5,2" d="M538.335,-686.626C677.881,-731.379 1146.04,-857.923 1410,-639.886 1466.38,-593.316 1480.77,-497.837 1484.09,-465.709"/>
<polygon fill="#9a32cd" stroke="#9a32cd" points="539.076,-683.187 528.484,-683.427 536.914,-689.845 539.076,-683.187"/>
<text text-anchor="middle" x="1067" y="-767.886" font-family="FreeSans" font-size="10.00"> nodesToProcess_</text>
</g>
<!-- Node12&#45;&gt;Node10 -->
<g id="edge28" class="edge"><title>Node12&#45;&gt;Node10</title>
<path fill="none" stroke="#9a32cd" stroke-dasharray="5,2" d="M537.227,-659.148C556.014,-653.038 578.955,-646.254 600,-641.886 643.621,-632.834 767.143,-620.399 834.259,-614.023"/>
<polygon fill="#9a32cd" stroke="#9a32cd" points="535.928,-655.891 527.536,-662.358 538.129,-662.536 535.928,-655.891"/>
<text text-anchor="start" x="618" y="-671.886" font-family="FreeSans" font-size="10.00"> networkUpdateNodes</text>
<text text-anchor="middle" x="688" y="-658.886" font-family="FreeSans" font-size="10.00">_</text>
<text text-anchor="middle" x="688" y="-645.886" font-family="FreeSans" font-size="10.00">networkUpdateComponents_</text>
</g>
<!-- Node13 -->
<g id="node27" class="node"><title>Node13</title>
<a xlink:href="a00139.html" target="_top" xlink:title="Hash set/map base class.">
<polygon fill="none" stroke="black" points="220,-461.386 220,-482.386 328,-482.386 328,-461.386 220,-461.386"/>
<text text-anchor="middle" x="274" y="-469.386" font-family="FreeSans" font-size="10.00">Urho3D::HashBase</text>
</a>
</g>
<!-- Node13&#45;&gt;Node12 -->
<g id="edge30" class="edge"><title>Node13&#45;&gt;Node12</title>
<path fill="none" stroke="midnightblue" d="M278.959,-492.416C287.492,-523.532 307.83,-582.628 346,-616.886 372.162,-640.367 409.014,-654.269 439.88,-662.348"/>
<polygon fill="midnightblue" stroke="midnightblue" points="282.327,-491.461 276.424,-482.663 275.553,-493.222 282.327,-491.461"/>
</g>
<!-- Node16 -->
<g id="node36" class="node"><title>Node16</title>
<a xlink:href="a00141.html" target="_top" xlink:title="Urho3D::HashMap\&lt; Urho3D\l::StringHash, Urho3D::\lPackageUpload \&gt;">
<polygon fill="none" stroke="black" points="612,-141.386 612,-188.386 764,-188.386 764,-141.386 612,-141.386"/>
<text text-anchor="start" x="620" y="-175.386" font-family="FreeSans" font-size="10.00">Urho3D::HashMap&lt; Urho3D</text>
<text text-anchor="start" x="620" y="-162.386" font-family="FreeSans" font-size="10.00">::StringHash, Urho3D::</text>
<text text-anchor="middle" x="688" y="-149.386" font-family="FreeSans" font-size="10.00">PackageUpload &gt;</text>
</a>
</g>
<!-- Node13&#45;&gt;Node16 -->
<g id="edge44" class="edge"><title>Node13&#45;&gt;Node16</title>
<path fill="none" stroke="midnightblue" d="M277.421,-450.896C284.256,-415.387 302.824,-343.206 346,-300.886 419.354,-228.987 535.435,-193.759 611.661,-177.498"/>
<polygon fill="midnightblue" stroke="midnightblue" points="273.92,-450.591 275.598,-461.052 280.81,-451.828 273.92,-450.591"/>
</g>
<!-- Node18 -->
<g id="node41" class="node"><title>Node18</title>
<a xlink:href="a00141.html" target="_top" xlink:title="Urho3D::HashMap\&lt; Urho3D\l::StringHash, Urho3D::\lPackageDownload \&gt;">
<polygon fill="none" stroke="black" points="612,-469.386 612,-516.386 764,-516.386 764,-469.386 612,-469.386"/>
<text text-anchor="start" x="620" y="-503.386" font-family="FreeSans" font-size="10.00">Urho3D::HashMap&lt; Urho3D</text>
<text text-anchor="start" x="620" y="-490.386" font-family="FreeSans" font-size="10.00">::StringHash, Urho3D::</text>
<text text-anchor="middle" x="688" y="-477.386" font-family="FreeSans" font-size="10.00">PackageDownload &gt;</text>
</a>
</g>
<!-- Node13&#45;&gt;Node18 -->
<g id="edge50" class="edge"><title>Node13&#45;&gt;Node18</title>
<path fill="none" stroke="midnightblue" d="M338.218,-475.144C412.046,-478.889 533.13,-485.031 611.7,-489.016"/>
<polygon fill="midnightblue" stroke="midnightblue" points="338.288,-471.643 328.123,-474.632 337.933,-478.634 338.288,-471.643"/>
</g>
<!-- Node22 -->
<g id="node51" class="node"><title>Node22</title>
<a xlink:href="a00141.html" target="_top" xlink:title="Urho3D::HashMap\&lt; ShortString\lHash, Variant \&gt;">
<polygon fill="none" stroke="black" points="794,-433.886 794,-467.886 964,-467.886 964,-433.886 794,-433.886"/>
<text text-anchor="start" x="802" y="-454.886" font-family="FreeSans" font-size="10.00">Urho3D::HashMap&lt; ShortString</text>
<text text-anchor="middle" x="879" y="-441.886" font-family="FreeSans" font-size="10.00">Hash, Variant &gt;</text>
</a>
</g>
<!-- Node13&#45;&gt;Node22 -->
<g id="edge62" class="edge"><title>Node13&#45;&gt;Node22</title>
<path fill="none" stroke="midnightblue" d="M338.481,-469.648C448.217,-465.839 671.267,-458.097 793.745,-453.846"/>
<polygon fill="midnightblue" stroke="midnightblue" points="338.095,-466.159 328.222,-470.004 338.338,-473.155 338.095,-466.159"/>
</g>
<!-- Node24 -->
<g id="node57" class="node"><title>Node24</title>
<a xlink:href="a00141.html" target="_top" xlink:title="Urho3D::HashMap\&lt; unsigned,\l Urho3D::PODVector\&lt; unsigned\l char \&gt; \&gt;">
<polygon fill="none" stroke="black" points="982.5,-200.386 982.5,-247.386 1151.5,-247.386 1151.5,-200.386 982.5,-200.386"/>
<text text-anchor="start" x="990.5" y="-234.386" font-family="FreeSans" font-size="10.00">Urho3D::HashMap&lt; unsigned,</text>
<text text-anchor="start" x="990.5" y="-221.386" font-family="FreeSans" font-size="10.00"> Urho3D::PODVector&lt; unsigned</text>
<text text-anchor="middle" x="1067" y="-208.386" font-family="FreeSans" font-size="10.00"> char &gt; &gt;</text>
</a>
</g>
<!-- Node13&#45;&gt;Node24 -->
<g id="edge70" class="edge"><title>Node13&#45;&gt;Node24</title>
<path fill="none" stroke="midnightblue" d="M317.377,-458.321C446.361,-417.983 828.662,-298.423 991.828,-247.396"/>
<polygon fill="midnightblue" stroke="midnightblue" points="316.32,-454.984 307.821,-461.309 318.409,-461.665 316.32,-454.984"/>
</g>
<!-- Node25 -->
<g id="node62" class="node"><title>Node25</title>
<a xlink:href="a00141.html" target="_top" xlink:title="Urho3D::HashMap\&lt; unsigned,\l Urho3D::NodeReplicationState \&gt;">
<polygon fill="none" stroke="black" points="600,-583.886 600,-617.886 776,-617.886 776,-583.886 600,-583.886"/>
<text text-anchor="start" x="608" y="-604.886" font-family="FreeSans" font-size="10.00">Urho3D::HashMap&lt; unsigned,</text>
<text text-anchor="middle" x="688" y="-591.886" font-family="FreeSans" font-size="10.00"> Urho3D::NodeReplicationState &gt;</text>
</a>
</g>
<!-- Node13&#45;&gt;Node25 -->
<g id="edge78" class="edge"><title>Node13&#45;&gt;Node25</title>
<path fill="none" stroke="midnightblue" d="M289.684,-490.1C313.501,-516.291 361.595,-563.66 414,-583.886 473.137,-606.711 544.783,-610.408 599.979,-608.692"/>
<polygon fill="midnightblue" stroke="midnightblue" points="292.094,-487.543 282.83,-482.402 286.866,-492.198 292.094,-487.543"/>
</g>
<!-- Node14 -->
<g id="node29" class="node"><title>Node14</title>
<a xlink:href="a00142.html" target="_top" xlink:title="Hash set/map node base class.">
<polygon fill="none" stroke="black" points="0,-505.386 0,-526.386 134,-526.386 134,-505.386 0,-505.386"/>
<text text-anchor="middle" x="67" y="-513.386" font-family="FreeSans" font-size="10.00">Urho3D::HashNodeBase</text>
</a>
</g>
<!-- Node14&#45;&gt;Node13 -->
<g id="edge32" class="edge"><title>Node14&#45;&gt;Node13</title>
<path fill="none" stroke="#9a32cd" stroke-dasharray="5,2" d="M126.414,-503.257C157.457,-496.659 195.009,-488.677 224.465,-482.416"/>
<polygon fill="#9a32cd" stroke="#9a32cd" points="125.635,-499.845 116.582,-505.347 127.091,-506.692 125.635,-499.845"/>
<text text-anchor="middle" x="177" y="-525.886" font-family="FreeSans" font-size="10.00"> ptrs_</text>
<text text-anchor="middle" x="177" y="-512.886" font-family="FreeSans" font-size="10.00">tail_</text>
<text text-anchor="middle" x="177" y="-499.886" font-family="FreeSans" font-size="10.00">head_</text>
</g>
<!-- Node14&#45;&gt;Node14 -->
<g id="edge34" class="edge"><title>Node14&#45;&gt;Node14</title>
<path fill="none" stroke="#9a32cd" stroke-dasharray="5,2" d="M46.7282,-536.313C48.292,-541.235 55.0493,-544.886 67,-544.886 86.1211,-544.886 91.9471,-535.54 84.4779,-526.594"/>
<polygon fill="#9a32cd" stroke="#9a32cd" points="50.1229,-537.172 49.5221,-526.594 43.3954,-535.238 50.1229,-537.172"/>
<text text-anchor="middle" x="67" y="-574.886" font-family="FreeSans" font-size="10.00"> next_</text>
<text text-anchor="middle" x="67" y="-561.886" font-family="FreeSans" font-size="10.00">prev_</text>
<text text-anchor="middle" x="67" y="-548.886" font-family="FreeSans" font-size="10.00">down_</text>
</g>
<!-- Node15 -->
<g id="node32" class="node"><title>Node15</title>
<a xlink:href="a00047.html" target="_top" xlink:title="Allocator memory block.">
<polygon fill="none" stroke="red" points="3.5,-434.386 3.5,-455.386 130.5,-455.386 130.5,-434.386 3.5,-434.386"/>
<text text-anchor="middle" x="67" y="-442.386" font-family="FreeSans" font-size="10.00">Urho3D::AllocatorBlock</text>
</a>
</g>
<!-- Node15&#45;&gt;Node13 -->
<g id="edge36" class="edge"><title>Node15&#45;&gt;Node13</title>
<path fill="none" stroke="#9a32cd" stroke-dasharray="5,2" d="M140.721,-454.502C166.762,-457.899 195.551,-461.654 219.689,-464.802"/>
<polygon fill="#9a32cd" stroke="#9a32cd" points="140.882,-450.994 130.514,-453.171 139.977,-457.935 140.882,-450.994"/>
<text text-anchor="middle" x="177" y="-465.886" font-family="FreeSans" font-size="10.00"> allocator_</text>
</g>
<!-- Node15&#45;&gt;Node15 -->
<g id="edge38" class="edge"><title>Node15&#45;&gt;Node15</title>
<path fill="none" stroke="#9a32cd" stroke-dasharray="5,2" d="M46.7282,-465.313C48.292,-470.235 55.0493,-473.886 67,-473.886 86.1211,-473.886 91.9471,-464.54 84.4779,-455.594"/>
<polygon fill="#9a32cd" stroke="#9a32cd" points="50.1229,-466.172 49.5221,-455.594 43.3954,-464.238 50.1229,-466.172"/>
<text text-anchor="middle" x="67" y="-477.886" font-family="FreeSans" font-size="10.00"> next_</text>
</g>
<!-- Node16&#45;&gt;Node3 -->
<g id="edge42" class="edge"><title>Node16&#45;&gt;Node3</title>
<path fill="none" stroke="#9a32cd" stroke-dasharray="5,2" d="M774.072,-142.908C946.745,-101.225 1326.1,-22.566 1410,-112.886 1456.85,-163.322 1479.51,-392.231 1484.11,-444.318"/>
<polygon fill="#9a32cd" stroke="#9a32cd" points="773.144,-139.532 764.253,-145.293 774.796,-146.334 773.144,-139.532"/>
<text text-anchor="middle" x="1067" y="-100.886" font-family="FreeSans" font-size="10.00"> uploads_</text>
</g>
<!-- Node17 -->
<g id="node39" class="node"><title>Node17</title>
<a xlink:href="a00317.html" target="_top" xlink:title="Dynamically sized buffer that can be read and written to as a stream.">
<polygon fill="none" stroke="red" points="1183.5,-397.386 1183.5,-418.386 1302.5,-418.386 1302.5,-397.386 1183.5,-397.386"/>
<text text-anchor="middle" x="1243" y="-405.386" font-family="FreeSans" font-size="10.00">Urho3D::VectorBuffer</text>
</a>
</g>
<!-- Node17&#45;&gt;Node3 -->
<g id="edge46" class="edge"><title>Node17&#45;&gt;Node3</title>
<path fill="none" stroke="#9a32cd" stroke-dasharray="5,2" d="M1312.72,-412.686C1342.9,-415.674 1378.47,-420.425 1410,-427.886 1427.1,-431.934 1445.69,-438.61 1460.09,-444.311"/>
<polygon fill="#9a32cd" stroke="#9a32cd" points="1312.98,-409.196 1302.7,-411.739 1312.32,-416.165 1312.98,-409.196"/>
<text text-anchor="middle" x="1372" y="-431.886" font-family="FreeSans" font-size="10.00"> msg_</text>
</g>
<!-- Node18&#45;&gt;Node3 -->
<g id="edge48" class="edge"><title>Node18&#45;&gt;Node3</title>
<path fill="none" stroke="#9a32cd" stroke-dasharray="5,2" d="M774.447,-493.709C910.182,-494.142 1181.41,-491.542 1410,-467.886 1416.31,-467.233 1422.89,-466.368 1429.42,-465.394"/>
<polygon fill="#9a32cd" stroke="#9a32cd" points="774.131,-490.208 764.117,-493.669 774.104,-497.208 774.131,-490.208"/>
<text text-anchor="middle" x="1067" y="-494.886" font-family="FreeSans" font-size="10.00"> downloads_</text>
</g>
<!-- Node19 -->
<g id="node44" class="node"><title>Node19</title>
<a xlink:href="a00314.html" target="_top" xlink:title="Three&#45;dimensional vector.">
<polygon fill="none" stroke="black" points="1195,-195.386 1195,-216.386 1291,-216.386 1291,-195.386 1195,-195.386"/>
<text text-anchor="middle" x="1243" y="-203.386" font-family="FreeSans" font-size="10.00">Urho3D::Vector3</text>
</a>
</g>
<!-- Node19&#45;&gt;Node3 -->
<g id="edge52" class="edge"><title>Node19&#45;&gt;Node3</title>
<path fill="none" stroke="#9a32cd" stroke-dasharray="5,2" d="M1264.25,-223.37C1297.03,-250.765 1361.24,-306.141 1410,-358.886 1436.99,-388.084 1464.79,-426.171 1477.65,-444.345"/>
<polygon fill="#9a32cd" stroke="#9a32cd" points="1266.18,-220.42 1256.25,-216.718 1261.7,-225.802 1266.18,-220.42"/>
<text text-anchor="middle" x="1372" y="-362.886" font-family="FreeSans" font-size="10.00"> position_</text>
</g>
<!-- Node19&#45;&gt;Node19 -->
<g id="edge54" class="edge"><title>Node19&#45;&gt;Node19</title>
<path fill="none" stroke="#9a32cd" stroke-dasharray="5,2" d="M1219.41,-226.313C1221.23,-231.235 1229.09,-234.886 1243,-234.886 1265.25,-234.886 1272.03,-225.54 1263.34,-216.594"/>
<polygon fill="#9a32cd" stroke="#9a32cd" points="1222.81,-227.188 1222.66,-216.594 1216.17,-224.967 1222.81,-227.188"/>
<text text-anchor="middle" x="1243" y="-329.886" font-family="FreeSans" font-size="10.00"> ONE</text>
<text text-anchor="middle" x="1243" y="-316.886" font-family="FreeSans" font-size="10.00">DOWN</text>
<text text-anchor="middle" x="1243" y="-303.886" font-family="FreeSans" font-size="10.00">BACK</text>
<text text-anchor="middle" x="1243" y="-290.886" font-family="FreeSans" font-size="10.00">RIGHT</text>
<text text-anchor="middle" x="1243" y="-277.886" font-family="FreeSans" font-size="10.00">LEFT</text>
<text text-anchor="middle" x="1243" y="-264.886" font-family="FreeSans" font-size="10.00">ZERO</text>
<text text-anchor="middle" x="1243" y="-251.886" font-family="FreeSans" font-size="10.00">FORWARD</text>
<text text-anchor="middle" x="1243" y="-238.886" font-family="FreeSans" font-size="10.00">UP</text>
</g>
<!-- Node20 -->
<g id="node47" class="node"><title>Node20</title>
<a xlink:href="a00312.html" target="_top" xlink:title="Urho3D::Vector\&lt; Urho3D\l::RemoteEvent \&gt;">
<polygon fill="none" stroke="red" points="1174,-142.886 1174,-176.886 1312,-176.886 1312,-142.886 1174,-142.886"/>
<text text-anchor="start" x="1182" y="-163.886" font-family="FreeSans" font-size="10.00">Urho3D::Vector&lt; Urho3D</text>
<text text-anchor="middle" x="1243" y="-150.886" font-family="FreeSans" font-size="10.00">::RemoteEvent &gt;</text>
</a>
</g>
<!-- Node20&#45;&gt;Node3 -->
<g id="edge56" class="edge"><title>Node20&#45;&gt;Node3</title>
<path fill="none" stroke="#9a32cd" stroke-dasharray="5,2" d="M1307.33,-181.224C1310.31,-182.701 1313.21,-184.255 1316,-185.886 1363.84,-213.901 1377.9,-222.683 1410,-267.886 1452.33,-327.494 1475.53,-414.413 1482.62,-444.319"/>
<polygon fill="#9a32cd" stroke="#9a32cd" points="1308.77,-178.035 1298.23,-177.024 1305.84,-184.391 1308.77,-178.035"/>
<text text-anchor="middle" x="1372" y="-271.886" font-family="FreeSans" font-size="10.00"> remoteEvents_</text>
</g>
<!-- Node21 -->
<g id="node49" class="node"><title>Node21</title>
<a xlink:href="a00096.html" target="_top" xlink:title="Controls sent over the network.">
<polygon fill="none" stroke="black" points="1193.5,-357.386 1193.5,-378.386 1292.5,-378.386 1292.5,-357.386 1193.5,-357.386"/>
<text text-anchor="middle" x="1243" y="-365.386" font-family="FreeSans" font-size="10.00">Urho3D::Controls</text>
</a>
</g>
<!-- Node21&#45;&gt;Node3 -->
<g id="edge58" class="edge"><title>Node21&#45;&gt;Node3</title>
<path fill="none" stroke="#9a32cd" stroke-dasharray="5,2" d="M1302.97,-371.785C1335.7,-375.584 1376.29,-383.084 1410,-397.886 1435.76,-409.197 1460.76,-431.04 1474.39,-444.156"/>
<polygon fill="#9a32cd" stroke="#9a32cd" points="1302.96,-368.263 1292.64,-370.677 1302.21,-375.224 1302.96,-368.263"/>
<text text-anchor="middle" x="1372" y="-401.886" font-family="FreeSans" font-size="10.00"> controls_</text>
</g>
<!-- Node22&#45;&gt;Node3 -->
<g id="edge74" class="edge"><title>Node22&#45;&gt;Node3</title>
<path fill="none" stroke="#9a32cd" stroke-dasharray="5,2" d="M974.377,-451.516C1102.02,-452.358 1324.37,-453.826 1428.35,-454.512"/>
<polygon fill="#9a32cd" stroke="#9a32cd" points="974.242,-448.015 964.22,-451.449 974.196,-455.015 974.242,-448.015"/>
<text text-anchor="middle" x="1243" y="-456.886" font-family="FreeSans" font-size="10.00"> identity_</text>
</g>
<!-- Node22&#45;&gt;Node21 -->
<g id="edge60" class="edge"><title>Node22&#45;&gt;Node21</title>
<path fill="none" stroke="#9a32cd" stroke-dasharray="5,2" d="M964.033,-431.497C1036.7,-414.927 1138.5,-391.715 1196.91,-378.397"/>
<polygon fill="#9a32cd" stroke="#9a32cd" points="962.951,-428.154 953.98,-433.789 964.508,-434.979 962.951,-428.154"/>
<text text-anchor="middle" x="1067" y="-429.886" font-family="FreeSans" font-size="10.00"> extraData_</text>
</g>
<!-- Node23 -->
<g id="node54" class="node"><title>Node23</title>
<a xlink:href="a00302.html" target="_top" xlink:title="Low&#45;resolution operating system timer.">
<polygon fill="none" stroke="black" points="1200,-3.38639 1200,-24.3864 1286,-24.3864 1286,-3.38639 1200,-3.38639"/>
<text text-anchor="middle" x="1243" y="-11.3864" font-family="FreeSans" font-size="10.00">Urho3D::Timer</text>
</a>
</g>
<!-- Node23&#45;&gt;Node3 -->
<g id="edge64" class="edge"><title>Node23&#45;&gt;Node3</title>
<path fill="none" stroke="#9a32cd" stroke-dasharray="5,2" d="M1296.31,-2.22594C1332.79,2.42389 1379.84,1.36593 1410,-25.8864 1474.52,-84.1764 1483.64,-384.011 1484.83,-444.314"/>
<polygon fill="#9a32cd" stroke="#9a32cd" points="1295.72,1.22504 1286.32,-3.67177 1296.72,-5.70274 1295.72,1.22504"/>
<text text-anchor="middle" x="1372" y="-29.8864" font-family="FreeSans" font-size="10.00"> statsTimer_</text>
</g>
<!-- Node24&#45;&gt;Node3 -->
<g id="edge68" class="edge"><title>Node24&#45;&gt;Node3</title>
<path fill="none" stroke="#9a32cd" stroke-dasharray="5,2" d="M1084.9,-191.576C1102.46,-163.562 1132.1,-124.92 1170,-107.886 1229.19,-81.2884 1255.38,-84.7462 1316,-107.886 1457.79,-162.011 1480.97,-391.995 1484.43,-444.281"/>
<polygon fill="#9a32cd" stroke="#9a32cd" points="1081.83,-189.893 1079.63,-200.257 1087.81,-193.527 1081.83,-189.893"/>
<text text-anchor="middle" x="1243" y="-124.886" font-family="FreeSans" font-size="10.00"> nodeLatestData_</text>
<text text-anchor="middle" x="1243" y="-111.886" font-family="FreeSans" font-size="10.00">componentLatestData_</text>
</g>
<!-- Node25&#45;&gt;Node1 -->
<g id="edge76" class="edge"><title>Node25&#45;&gt;Node1</title>
<path fill="none" stroke="#9a32cd" stroke-dasharray="5,2" d="M773.346,-621.002C774.236,-621.294 775.121,-621.589 776,-621.886 784.293,-624.692 785.569,-627.527 794,-629.886 861.413,-648.752 941.074,-657.487 996.888,-661.509"/>
<polygon fill="#9a32cd" stroke="#9a32cd" points="774.215,-617.607 763.626,-617.972 772.132,-624.29 774.215,-617.607"/>
<text text-anchor="middle" x="879" y="-661.886" font-family="FreeSans" font-size="10.00"> nodeStates_</text>
</g>
</g>
</svg>
        <g id="navigator" transform="translate(0 0)" fill="#404254">
                <rect fill="#f2f5e9" fill-opacity="0.5" stroke="#606060" stroke-width=".5" x="0" y="0" width="60" height="60"/>
                <use id="zoomplus" xlink:href="#zoomPlus" x="17" y="9" onmousedown="handleZoom(evt,'in')"/>
                <use id="zoomminus" xlink:href="#zoomMin" x="42" y="9" onmousedown="handleZoom(evt,'out')"/>
                <use id="reset" xlink:href="#resetDef" x="30" y="36" onmousedown="handleReset()"/>
                <g id="arrowUp" xlink:href="#dirArrow" transform="translate(30 24)" onmousedown="handlePan(0,-1)">
                  <use xlink:href="#rim" fill="#404040">
                        <set attributeName="fill" to="#808080" begin="arrowUp.mouseover" end="arrowUp.mouseout"/>
                  </use>
                  <path fill="none" stroke="white" stroke-width="1.5" d="M0,-3.0v7 M-2.5,-0.5L0,-3.0L2.5,-0.5"/>
                </g>
                <g id="arrowRight" xlink:href="#dirArrow" transform="rotate(90) translate(36 -43)" onmousedown="handlePan(1,0)">
                  <use xlink:href="#rim" fill="#404040">
                        <set attributeName="fill" to="#808080" begin="arrowRight.mouseover" end="arrowRight.mouseout"/>
                  </use>
                  <path fill="none" stroke="white" stroke-width="1.5" d="M0,-3.0v7 M-2.5,-0.5L0,-3.0L2.5,-0.5"/>
                </g>
                <g id="arrowDown" xlink:href="#dirArrow" transform="rotate(180) translate(-30 -48)" onmousedown="handlePan(0,1)">
                  <use xlink:href="#rim" fill="#404040">
                        <set attributeName="fill" to="#808080" begin="arrowDown.mouseover" end="arrowDown.mouseout"/>
                  </use>
                  <path fill="none" stroke="white" stroke-width="1.5" d="M0,-3.0v7 M-2.5,-0.5L0,-3.0L2.5,-0.5"/>
                </g>
                <g id="arrowLeft" xlink:href="#dirArrow" transform="rotate(270) translate(-36 17)" onmousedown="handlePan(-1,0)">
                  <use xlink:href="#rim" fill="#404040">
                        <set attributeName="fill" to="#808080" begin="arrowLeft.mouseover" end="arrowLeft.mouseout"/>
                  </use>
                  <path fill="none" stroke="white" stroke-width="1.5" d="M0,-3.0v7 M-2.5,-0.5L0,-3.0L2.5,-0.5"/>
                </g>
        </g>
        <svg viewBox="0 0 15 15" width="100%" height="30px" preserveAspectRatio="xMaxYMin meet">
         <g id="arrow_out" transform="scale(0.3 0.3)">
          <a xlink:href="a01308_org.svg" target="_base">
           <rect id="button" ry="5" rx="5" y="6" x="6" height="38" width="38"
                fill="#f2f5e9" fill-opacity="0.5" stroke="#606060" stroke-width="1.0"/>
           <path id="arrow"
             d="M 11.500037,31.436501 C 11.940474,20.09759 22.043105,11.32322 32.158766,21.979434 L 37.068811,17.246167 C 37.068811,17.246167 37.088388,32 37.088388,32 L 22.160133,31.978069 C 22.160133,31.978069 26.997745,27.140456 26.997745,27.140456 C 18.528582,18.264221 13.291696,25.230495 11.500037,31.436501 z"
             style="fill:#404040;"/>
          </a>
         </g>
        </svg>
</svg>
