<?xml version="1.0" encoding="UTF-8" standalone="no"?>
<!DOCTYPE svg PUBLIC "-//W3C//DTD SVG 1.1//EN"
 "http://www.w3.org/Graphics/SVG/1.1/DTD/svg11.dtd">
<!-- Generated by graphviz version 2.26.3 (20100126.1600)
 -->
<!-- Title: Urho3D::LineEdit Pages: 1 -->
<svg width="1658pt" height="956pt"
 viewBox="0.00 0.00 1658.00 956.00" xmlns="http://www.w3.org/2000/svg" xmlns:xlink="http://www.w3.org/1999/xlink">
<g id="graph1" class="graph" transform="scale(1 1) rotate(0) translate(4 952)">
<title>Urho3D::LineEdit</title>
<!-- Node1 -->
<g id="node1" class="node"><title>Node1</title>
<polygon fill="#bfbfbf" stroke="black" points="1552.5,-330.5 1552.5,-351.5 1649.5,-351.5 1649.5,-330.5 1552.5,-330.5"/>
<text text-anchor="middle" x="1601" y="-338.5" font-family="FreeSans" font-size="10.00">Urho3D::LineEdit</text>
</g>
<!-- Node2 -->
<g id="node2" class="node"><title>Node2</title>
<a xlink:href="a00075.html" target="_top" xlink:title="Image UI element with optional border.">
<polygon fill="none" stroke="black" points="1066,-563.5 1066,-584.5 1188,-584.5 1188,-563.5 1066,-563.5"/>
<text text-anchor="middle" x="1127" y="-571.5" font-family="FreeSans" font-size="10.00">Urho3D::BorderImage</text>
</a>
</g>
<!-- Node2&#45;&gt;Node1 -->
<g id="edge2" class="edge"><title>Node2&#45;&gt;Node1</title>
<path fill="none" stroke="midnightblue" d="M1144.63,-556.275C1159.88,-541.656 1183.03,-521.102 1206,-507 1330.25,-430.717 1495.78,-373.936 1566.55,-351.511"/>
<polygon fill="midnightblue" stroke="midnightblue" points="1142.13,-553.823 1137.42,-563.312 1147.02,-558.832 1142.13,-553.823"/>
</g>
<!-- Node21 -->
<g id="node54" class="node"><title>Node21</title>
<a xlink:href="a00270.html" target="_top" xlink:title="Urho3D::SharedPtr\&lt;\l Urho3D::BorderImage \&gt;">
<polygon fill="none" stroke="black" points="1340,-465 1340,-499 1476,-499 1476,-465 1340,-465"/>
<text text-anchor="start" x="1348" y="-486" font-family="FreeSans" font-size="10.00">Urho3D::SharedPtr&lt;</text>
<text text-anchor="middle" x="1408" y="-473" font-family="FreeSans" font-size="10.00"> Urho3D::BorderImage &gt;</text>
</a>
</g>
<!-- Node2&#45;&gt;Node21 -->
<g id="edge70" class="edge"><title>Node2&#45;&gt;Node21</title>
<path fill="none" stroke="#9a32cd" stroke-dasharray="5,2" d="M1169.04,-560.234C1218.9,-543.911 1302.02,-516.7 1355.9,-499.056"/>
<polygon fill="#9a32cd" stroke="#9a32cd" points="1167.65,-557.009 1159.23,-563.446 1169.83,-563.661 1167.65,-557.009"/>
<text text-anchor="middle" x="1264" y="-550" font-family="FreeSans" font-size="10.00"> ptr_</text>
</g>
<!-- Node3 -->
<g id="node4" class="node"><title>Node3</title>
<a xlink:href="a00309.html" target="_top" xlink:title="Base class for UI elements.">
<polygon fill="none" stroke="black" points="564.5,-585.5 564.5,-606.5 673.5,-606.5 673.5,-585.5 564.5,-585.5"/>
<text text-anchor="middle" x="619" y="-593.5" font-family="FreeSans" font-size="10.00">Urho3D::UIElement</text>
</a>
</g>
<!-- Node3&#45;&gt;Node2 -->
<g id="edge4" class="edge"><title>Node3&#45;&gt;Node2</title>
<path fill="none" stroke="midnightblue" d="M683.992,-593.185C782.726,-588.909 969.199,-580.834 1065.7,-576.655"/>
<polygon fill="midnightblue" stroke="midnightblue" points="683.687,-589.695 673.848,-593.625 683.99,-596.689 683.687,-589.695"/>
</g>
<!-- Node3&#45;&gt;Node3 -->
<g id="edge14" class="edge"><title>Node3&#45;&gt;Node3</title>
<path fill="none" stroke="#9a32cd" stroke-dasharray="5,2" d="M587.368,-615.679C589.063,-620.975 599.607,-625 619,-625 648.551,-625 657.555,-615.653 646.011,-606.708"/>
<polygon fill="#9a32cd" stroke="#9a32cd" points="590.522,-617.201 591.989,-606.708 584.299,-613.996 590.522,-617.201"/>
<text text-anchor="middle" x="619" y="-629" font-family="FreeSans" font-size="10.00"> parent_</text>
</g>
<!-- Node17 -->
<g id="node43" class="node"><title>Node17</title>
<a xlink:href="a00294.html" target="_top" xlink:title="Text UI element.">
<polygon fill="none" stroke="red" points="889,-330.5 889,-351.5 967,-351.5 967,-330.5 889,-330.5"/>
<text text-anchor="middle" x="928" y="-338.5" font-family="FreeSans" font-size="10.00">Urho3D::Text</text>
</a>
</g>
<!-- Node3&#45;&gt;Node17 -->
<g id="edge56" class="edge"><title>Node3&#45;&gt;Node17</title>
<path fill="none" stroke="midnightblue" d="M683.781,-584.584C743.731,-572.864 827.213,-553.234 852,-531 866.38,-518.101 911.185,-389.971 924.336,-351.724"/>
<polygon fill="midnightblue" stroke="midnightblue" points="682.787,-581.211 673.629,-586.538 684.11,-588.085 682.787,-581.211"/>
</g>
<!-- Node4 -->
<g id="node6" class="node"><title>Node4</title>
<a xlink:href="a00262.html" target="_top" xlink:title="Base class for objects with automatic serialization through attributes.">
<polygon fill="none" stroke="red" points="230,-539.5 230,-560.5 344,-560.5 344,-539.5 230,-539.5"/>
<text text-anchor="middle" x="287" y="-547.5" font-family="FreeSans" font-size="10.00">Urho3D::Serializable</text>
</a>
</g>
<!-- Node4&#45;&gt;Node3 -->
<g id="edge6" class="edge"><title>Node4&#45;&gt;Node3</title>
<path fill="none" stroke="midnightblue" d="M354.129,-559.301C416.015,-567.876 506.743,-580.446 564.324,-588.424"/>
<polygon fill="midnightblue" stroke="midnightblue" points="354.459,-555.813 344.073,-557.908 353.498,-562.747 354.459,-555.813"/>
</g>
<!-- Node5 -->
<g id="node8" class="node"><title>Node5</title>
<a xlink:href="a00153.html" target="_top" xlink:title="Two&#45;dimensional bounding rectangle with integer values.">
<polygon fill="none" stroke="black" points="241,-895.5 241,-916.5 333,-916.5 333,-895.5 241,-895.5"/>
<text text-anchor="middle" x="287" y="-903.5" font-family="FreeSans" font-size="10.00">Urho3D::IntRect</text>
</a>
</g>
<!-- Node5&#45;&gt;Node2 -->
<g id="edge36" class="edge"><title>Node5&#45;&gt;Node2</title>
<path fill="none" stroke="#9a32cd" stroke-dasharray="5,2" d="M343.573,-911.668C384.998,-914.515 442.401,-915.744 492,-907 727.812,-865.429 790.339,-830.03 986,-692 1036.86,-656.119 1092.05,-606.435 1115.46,-584.795"/>
<polygon fill="#9a32cd" stroke="#9a32cd" points="343.631,-908.163 333.4,-910.914 343.114,-915.144 343.631,-908.163"/>
<text text-anchor="middle" x="799" y="-855" font-family="FreeSans" font-size="10.00"> imageRect_</text>
<text text-anchor="middle" x="799" y="-842" font-family="FreeSans" font-size="10.00">border_</text>
</g>
<!-- Node5&#45;&gt;Node3 -->
<g id="edge8" class="edge"><title>Node5&#45;&gt;Node3</title>
<path fill="none" stroke="#9a32cd" stroke-dasharray="5,2" d="M342.979,-893.663C395.497,-881.192 469.265,-861.088 492,-842 571.878,-774.935 607.59,-644.81 616.617,-606.719"/>
<polygon fill="#9a32cd" stroke="#9a32cd" points="342.046,-890.286 333.109,-895.976 343.644,-897.102 342.046,-890.286"/>
<text text-anchor="middle" x="448" y="-894" font-family="FreeSans" font-size="10.00"> clipBorder_</text>
<text text-anchor="middle" x="448" y="-881" font-family="FreeSans" font-size="10.00">layoutBorder_</text>
</g>
<!-- Node5&#45;&gt;Node5 -->
<g id="edge10" class="edge"><title>Node5&#45;&gt;Node5</title>
<path fill="none" stroke="#9a32cd" stroke-dasharray="5,2" d="M259.58,-926.055C261.379,-931.164 270.519,-935 287,-935 312.727,-935 320.565,-925.653 310.516,-916.708"/>
<polygon fill="#9a32cd" stroke="#9a32cd" points="262.86,-927.284 263.484,-916.708 256.401,-924.587 262.86,-927.284"/>
<text text-anchor="middle" x="287" y="-939" font-family="FreeSans" font-size="10.00"> ZERO</text>
</g>
<!-- Node6 -->
<g id="node11" class="node"><title>Node6</title>
<a xlink:href="a00314.html" target="_top" xlink:title="Urho3D::Vector\&lt; Urho3D\l::SharedPtr\&lt; Urho3D::UIElement \&gt; \&gt;">
<polygon fill="none" stroke="red" points="188.5,-733 188.5,-767 385.5,-767 385.5,-733 188.5,-733"/>
<text text-anchor="start" x="196.5" y="-754" font-family="FreeSans" font-size="10.00">Urho3D::Vector&lt; Urho3D</text>
<text text-anchor="middle" x="287" y="-741" font-family="FreeSans" font-size="10.00">::SharedPtr&lt; Urho3D::UIElement &gt; &gt;</text>
</a>
</g>
<!-- Node6&#45;&gt;Node3 -->
<g id="edge12" class="edge"><title>Node6&#45;&gt;Node3</title>
<path fill="none" stroke="#9a32cd" stroke-dasharray="5,2" d="M354.808,-729.904C365.32,-726.462 376.002,-722.773 386,-719 394.191,-715.909 395.738,-713.894 404,-711 442.152,-697.636 455.448,-705.265 492,-688 538.774,-665.906 586.075,-625.931 607.355,-606.786"/>
<polygon fill="#9a32cd" stroke="#9a32cd" points="353.672,-726.593 345.227,-732.991 355.818,-733.256 353.672,-726.593"/>
<text text-anchor="middle" x="448" y="-715" font-family="FreeSans" font-size="10.00"> children_</text>
</g>
<!-- Node7 -->
<g id="node14" class="node"><title>Node7</title>
<a xlink:href="a00288.html" target="_top" xlink:title="String class.">
<polygon fill="none" stroke="black" points="0,-246.5 0,-267.5 88,-267.5 88,-246.5 0,-246.5"/>
<text text-anchor="middle" x="44" y="-254.5" font-family="FreeSans" font-size="10.00">Urho3D::String</text>
</a>
</g>
<!-- Node7&#45;&gt;Node1 -->
<g id="edge72" class="edge"><title>Node7&#45;&gt;Node1</title>
<path fill="none" stroke="#9a32cd" stroke-dasharray="5,2" d="M72.204,-241.812C116.573,-219.376 205.984,-180 287,-180 287,-180 287,-180 1408,-180 1502.25,-180 1574.85,-294.618 1595.24,-330.436"/>
<polygon fill="#9a32cd" stroke="#9a32cd" points="70.4746,-238.766 63.1858,-246.455 73.6788,-244.989 70.4746,-238.766"/>
<text text-anchor="middle" x="928" y="-184" font-family="FreeSans" font-size="10.00"> line_</text>
</g>
<!-- Node7&#45;&gt;Node3 -->
<g id="edge16" class="edge"><title>Node7&#45;&gt;Node3</title>
<path fill="none" stroke="#9a32cd" stroke-dasharray="5,2" d="M45.2399,-277.867C49.6504,-346.134 66.4788,-561.608 106,-617 219.897,-776.635 516.897,-646.388 598.176,-606.6"/>
<polygon fill="#9a32cd" stroke="#9a32cd" points="48.7126,-277.32 44.5971,-267.557 41.7262,-277.755 48.7126,-277.32"/>
<text text-anchor="middle" x="287" y="-711" font-family="FreeSans" font-size="10.00"> appliedStyle_</text>
<text text-anchor="middle" x="287" y="-698" font-family="FreeSans" font-size="10.00">name_</text>
</g>
<!-- Node7&#45;&gt;Node7 -->
<g id="edge18" class="edge"><title>Node7&#45;&gt;Node7</title>
<path fill="none" stroke="#9a32cd" stroke-dasharray="5,2" d="M26.6768,-277.427C28.0132,-282.349 33.7876,-286 44,-286 60.3398,-286 65.3184,-276.653 58.9356,-267.708"/>
<polygon fill="#9a32cd" stroke="#9a32cd" points="30.0775,-278.254 29.0644,-267.708 23.2796,-276.584 30.0775,-278.254"/>
<text text-anchor="middle" x="44" y="-290" font-family="FreeSans" font-size="10.00"> EMPTY</text>
</g>
<!-- Node8 -->
<g id="node17" class="node"><title>Node8</title>
<a xlink:href="a00333.html" target="_top" xlink:title="XPath query.">
<polygon fill="none" stroke="black" points="229.5,-631.5 229.5,-652.5 344.5,-652.5 344.5,-631.5 229.5,-631.5"/>
<text text-anchor="middle" x="287" y="-639.5" font-family="FreeSans" font-size="10.00">Urho3D::XPathQuery</text>
</a>
</g>
<!-- Node7&#45;&gt;Node8 -->
<g id="edge22" class="edge"><title>Node7&#45;&gt;Node8</title>
<path fill="none" stroke="#9a32cd" stroke-dasharray="5,2" d="M45.5406,-278.005C51.3486,-340.981 77.6235,-529.562 188,-622 199.561,-631.682 214.527,-637.116 229.306,-640.064"/>
<polygon fill="#9a32cd" stroke="#9a32cd" points="49.0047,-277.43 44.6786,-267.759 42.0294,-278.017 49.0047,-277.43"/>
<text text-anchor="middle" x="138" y="-604" font-family="FreeSans" font-size="10.00"> queryString_</text>
</g>
<!-- Node15 -->
<g id="node35" class="node"><title>Node15</title>
<a xlink:href="a00244.html" target="_top" xlink:title="Base class for resources.">
<polygon fill="none" stroke="red" points="235.5,-246.5 235.5,-267.5 338.5,-267.5 338.5,-246.5 235.5,-246.5"/>
<text text-anchor="middle" x="287" y="-254.5" font-family="FreeSans" font-size="10.00">Urho3D::Resource</text>
</a>
</g>
<!-- Node7&#45;&gt;Node15 -->
<g id="edge44" class="edge"><title>Node7&#45;&gt;Node15</title>
<path fill="none" stroke="#9a32cd" stroke-dasharray="5,2" d="M98.0776,-257C139.036,-257 194.951,-257 235.311,-257"/>
<polygon fill="#9a32cd" stroke="#9a32cd" points="98.0055,-253.5 88.0055,-257 98.0054,-260.5 98.0055,-253.5"/>
<text text-anchor="middle" x="138" y="-261" font-family="FreeSans" font-size="10.00"> name_</text>
</g>
<!-- Node7&#45;&gt;Node17 -->
<g id="edge64" class="edge"><title>Node7&#45;&gt;Node17</title>
<path fill="none" stroke="#9a32cd" stroke-dasharray="5,2" d="M98.261,-247.661C125.161,-243.491 158.193,-239.06 188,-237 427.429,-220.452 490.915,-199.707 728,-237 785.204,-245.998 801.348,-248.935 852,-277 878.556,-291.714 904.519,-316.446 918.153,-330.467"/>
<polygon fill="#9a32cd" stroke="#9a32cd" points="97.6016,-244.221 88.2709,-249.24 98.6948,-251.135 97.6016,-244.221"/>
<text text-anchor="middle" x="448" y="-224" font-family="FreeSans" font-size="10.00"> text_</text>
</g>
<!-- Node8&#45;&gt;Node3 -->
<g id="edge20" class="edge"><title>Node8&#45;&gt;Node3</title>
<path fill="none" stroke="#9a32cd" stroke-dasharray="5,2" d="M354.887,-632.594C416.749,-624.023 506.964,-611.523 564.311,-603.577"/>
<polygon fill="#9a32cd" stroke="#9a32cd" points="354.255,-629.148 344.83,-633.987 355.216,-636.082 354.255,-629.148"/>
<text text-anchor="middle" x="448" y="-628" font-family="FreeSans" font-size="10.00"> styleXPathQuery_</text>
</g>
<!-- Node9 -->
<g id="node20" class="node"><title>Node9</title>
<a xlink:href="a00270.html" target="_top" xlink:title="Urho3D::SharedPtr\&lt;\l Urho3D::XMLFile \&gt;">
<polygon fill="none" stroke="red" points="229,-579 229,-613 345,-613 345,-579 229,-579"/>
<text text-anchor="start" x="237" y="-600" font-family="FreeSans" font-size="10.00">Urho3D::SharedPtr&lt;</text>
<text text-anchor="middle" x="287" y="-587" font-family="FreeSans" font-size="10.00"> Urho3D::XMLFile &gt;</text>
</a>
</g>
<!-- Node9&#45;&gt;Node3 -->
<g id="edge24" class="edge"><title>Node9&#45;&gt;Node3</title>
<path fill="none" stroke="#9a32cd" stroke-dasharray="5,2" d="M355.275,-596C417.172,-596 507.22,-596 564.441,-596"/>
<polygon fill="#9a32cd" stroke="#9a32cd" points="355.21,-592.5 345.21,-596 355.21,-599.5 355.21,-592.5"/>
<text text-anchor="middle" x="448" y="-600" font-family="FreeSans" font-size="10.00"> defaultStyle_</text>
</g>
<!-- Node10 -->
<g id="node22" class="node"><title>Node10</title>
<a xlink:href="a00154.html" target="_top" xlink:title="Two&#45;dimensional vector with integer values.">
<polygon fill="none" stroke="black" points="233,-804.5 233,-825.5 341,-825.5 341,-804.5 233,-804.5"/>
<text text-anchor="middle" x="287" y="-812.5" font-family="FreeSans" font-size="10.00">Urho3D::IntVector2</text>
</a>
</g>
<!-- Node10&#45;&gt;Node2 -->
<g id="edge50" class="edge"><title>Node10&#45;&gt;Node2</title>
<path fill="none" stroke="#9a32cd" stroke-dasharray="5,2" d="M332.338,-828.04C374.107,-838.178 437.654,-848.847 492,-838 750.751,-786.355 1035.99,-627.131 1109.15,-584.559"/>
<polygon fill="#9a32cd" stroke="#9a32cd" points="333.02,-824.602 322.468,-825.555 331.311,-831.391 333.02,-824.602"/>
<text text-anchor="middle" x="799" y="-763" font-family="FreeSans" font-size="10.00"> hoverOffset_</text>
</g>
<!-- Node10&#45;&gt;Node3 -->
<g id="edge26" class="edge"><title>Node10&#45;&gt;Node3</title>
<path fill="none" stroke="#9a32cd" stroke-dasharray="5,2" d="M340.38,-801.039C356.225,-795.118 372.843,-786.976 386,-776 397.648,-766.282 391.791,-756.004 404,-747 436.534,-723.005 456.968,-744.173 492,-724 546.527,-692.6 593.721,-631.6 611.483,-606.838"/>
<polygon fill="#9a32cd" stroke="#9a32cd" points="338.935,-797.836 330.653,-804.444 341.247,-804.443 338.935,-797.836"/>
<text text-anchor="middle" x="448" y="-829" font-family="FreeSans" font-size="10.00"> maxSize_</text>
<text text-anchor="middle" x="448" y="-816" font-family="FreeSans" font-size="10.00">childOffset_</text>
<text text-anchor="middle" x="448" y="-803" font-family="FreeSans" font-size="10.00">size_</text>
<text text-anchor="middle" x="448" y="-790" font-family="FreeSans" font-size="10.00">position_</text>
<text text-anchor="start" x="413" y="-777" font-family="FreeSans" font-size="10.00">screenPosition</text>
<text text-anchor="middle" x="448" y="-764" font-family="FreeSans" font-size="10.00">_</text>
<text text-anchor="middle" x="448" y="-751" font-family="FreeSans" font-size="10.00">minSize_</text>
</g>
<!-- Node10&#45;&gt;Node10 -->
<g id="edge28" class="edge"><title>Node10&#45;&gt;Node10</title>
<path fill="none" stroke="#9a32cd" stroke-dasharray="5,2" d="M259.58,-835.055C261.379,-840.164 270.519,-844 287,-844 312.727,-844 320.565,-834.653 310.516,-825.708"/>
<polygon fill="#9a32cd" stroke="#9a32cd" points="262.86,-836.284 263.484,-825.708 256.401,-833.587 262.86,-836.284"/>
<text text-anchor="middle" x="287" y="-848" font-family="FreeSans" font-size="10.00"> ZERO</text>
</g>
<!-- Node11 -->
<g id="node25" class="node"><title>Node11</title>
<a xlink:href="a00142.html" target="_top" xlink:title="Urho3D::HashMap\&lt; ShortString\lHash, Variant \&gt;">
<polygon fill="none" stroke="red" points="202,-487 202,-521 372,-521 372,-487 202,-487"/>
<text text-anchor="start" x="210" y="-508" font-family="FreeSans" font-size="10.00">Urho3D::HashMap&lt; ShortString</text>
<text text-anchor="middle" x="287" y="-495" font-family="FreeSans" font-size="10.00">Hash, Variant &gt;</text>
</a>
</g>
<!-- Node11&#45;&gt;Node3 -->
<g id="edge30" class="edge"><title>Node11&#45;&gt;Node3</title>
<path fill="none" stroke="#9a32cd" stroke-dasharray="5,2" d="M382.296,-522.755C417.07,-530.288 456.548,-539.647 492,-550 527.341,-560.32 567.101,-575.283 592.567,-585.313"/>
<polygon fill="#9a32cd" stroke="#9a32cd" points="382.656,-519.253 372.145,-520.579 381.189,-526.098 382.656,-519.253"/>
<text text-anchor="middle" x="448" y="-554" font-family="FreeSans" font-size="10.00"> vars_</text>
</g>
<!-- Node12 -->
<g id="node27" class="node"><title>Node12</title>
<a xlink:href="a00084.html" target="_top" xlink:title="RGBA color.">
<polygon fill="none" stroke="black" points="245,-286.5 245,-307.5 329,-307.5 329,-286.5 245,-286.5"/>
<text text-anchor="middle" x="287" y="-294.5" font-family="FreeSans" font-size="10.00">Urho3D::Color</text>
</a>
</g>
<!-- Node12&#45;&gt;Node3 -->
<g id="edge32" class="edge"><title>Node12&#45;&gt;Node3</title>
<path fill="none" stroke="#9a32cd" stroke-dasharray="5,2" d="M295.939,-316.683C312.524,-351.151 351.229,-422.689 404,-464 437.016,-489.846 455.468,-477.423 492,-498 538.347,-524.105 586.231,-565.809 607.559,-585.303"/>
<polygon fill="#9a32cd" stroke="#9a32cd" points="299.103,-315.187 291.682,-307.625 292.768,-318.164 299.103,-315.187"/>
<text text-anchor="middle" x="448" y="-515" font-family="FreeSans" font-size="10.00"> derivedColor_</text>
<text text-anchor="middle" x="448" y="-502" font-family="FreeSans" font-size="10.00">color_</text>
</g>
<!-- Node12&#45;&gt;Node12 -->
<g id="edge34" class="edge"><title>Node12&#45;&gt;Node12</title>
<path fill="none" stroke="#9a32cd" stroke-dasharray="5,2" d="M259.58,-317.055C261.379,-322.164 270.519,-326 287,-326 312.727,-326 320.565,-316.653 310.516,-307.708"/>
<polygon fill="#9a32cd" stroke="#9a32cd" points="262.86,-318.284 263.484,-307.708 256.401,-315.587 262.86,-318.284"/>
<text text-anchor="middle" x="287" y="-460" font-family="FreeSans" font-size="10.00"> CYAN</text>
<text text-anchor="middle" x="287" y="-447" font-family="FreeSans" font-size="10.00">GRAY</text>
<text text-anchor="middle" x="287" y="-434" font-family="FreeSans" font-size="10.00">YELLOW</text>
<text text-anchor="middle" x="287" y="-421" font-family="FreeSans" font-size="10.00">MAGENTA</text>
<text text-anchor="middle" x="287" y="-408" font-family="FreeSans" font-size="10.00">WHITE</text>
<text text-anchor="middle" x="287" y="-395" font-family="FreeSans" font-size="10.00">TRANSPARENT</text>
<text text-anchor="middle" x="287" y="-382" font-family="FreeSans" font-size="10.00">BLUE</text>
<text text-anchor="middle" x="287" y="-369" font-family="FreeSans" font-size="10.00">BLACK</text>
<text text-anchor="middle" x="287" y="-356" font-family="FreeSans" font-size="10.00">RED</text>
<text text-anchor="middle" x="287" y="-343" font-family="FreeSans" font-size="10.00">GREEN</text>
<text text-anchor="middle" x="287" y="-330" font-family="FreeSans" font-size="10.00">...</text>
</g>
<!-- Node14 -->
<g id="node33" class="node"><title>Node14</title>
<a xlink:href="a00296.html" target="_top" xlink:title="Base class for texture resources.">
<polygon fill="none" stroke="red" points="572,-477.5 572,-498.5 666,-498.5 666,-477.5 572,-477.5"/>
<text text-anchor="middle" x="619" y="-485.5" font-family="FreeSans" font-size="10.00">Urho3D::Texture</text>
</a>
</g>
<!-- Node12&#45;&gt;Node14 -->
<g id="edge48" class="edge"><title>Node12&#45;&gt;Node14</title>
<path fill="none" stroke="#9a32cd" stroke-dasharray="5,2" d="M298.967,-316.499C317.712,-345.359 356.784,-399.135 404,-428 438.49,-449.085 455.119,-434.449 492,-451 500.772,-454.937 501.17,-459.196 510,-463 529.525,-471.41 552.289,-477.2 571.949,-481.072"/>
<polygon fill="#9a32cd" stroke="#9a32cd" points="301.72,-314.306 293.406,-307.739 295.81,-318.057 301.72,-314.306"/>
<text text-anchor="middle" x="448" y="-455" font-family="FreeSans" font-size="10.00"> borderColor_</text>
</g>
<!-- Node12&#45;&gt;Node17 -->
<g id="edge66" class="edge"><title>Node12&#45;&gt;Node17</title>
<path fill="none" stroke="#9a32cd" stroke-dasharray="5,2" d="M313.403,-312.607C353.998,-335.602 434.933,-377.529 510,-393 659.151,-423.741 705.541,-413.723 852,-372 870.638,-366.69 890.923,-358.273 905.844,-351.549"/>
<polygon fill="#9a32cd" stroke="#9a32cd" points="315.089,-309.54 304.673,-307.6 311.606,-315.612 315.089,-309.54"/>
<text text-anchor="middle" x="619" y="-440" font-family="FreeSans" font-size="10.00"> selectionColor_</text>
<text text-anchor="middle" x="619" y="-427" font-family="FreeSans" font-size="10.00">effectColor_</text>
<text text-anchor="middle" x="619" y="-414" font-family="FreeSans" font-size="10.00">hoverColor_</text>
</g>
<!-- Node13 -->
<g id="node31" class="node"><title>Node13</title>
<a xlink:href="a00270.html" target="_top" xlink:title="Urho3D::SharedPtr\&lt;\l Urho3D::Texture \&gt;">
<polygon fill="none" stroke="black" points="870,-507 870,-541 986,-541 986,-507 870,-507"/>
<text text-anchor="start" x="878" y="-528" font-family="FreeSans" font-size="10.00">Urho3D::SharedPtr&lt;</text>
<text text-anchor="middle" x="928" y="-515" font-family="FreeSans" font-size="10.00"> Urho3D::Texture &gt;</text>
</a>
</g>
<!-- Node13&#45;&gt;Node2 -->
<g id="edge38" class="edge"><title>Node13&#45;&gt;Node2</title>
<path fill="none" stroke="#9a32cd" stroke-dasharray="5,2" d="M995.935,-541.069C1025.47,-548.49 1059.15,-556.952 1084.97,-563.439"/>
<polygon fill="#9a32cd" stroke="#9a32cd" points="996.645,-537.639 986.094,-538.596 994.94,-544.428 996.645,-537.639"/>
<text text-anchor="middle" x="1026" y="-557" font-family="FreeSans" font-size="10.00"> texture_</text>
</g>
<!-- Node13&#45;&gt;Node14 -->
<g id="edge46" class="edge"><title>Node13&#45;&gt;Node14</title>
<path fill="none" stroke="#9a32cd" stroke-dasharray="5,2" d="M892.361,-501.921C880.04,-495.465 865.843,-489.268 852,-486 789.007,-471.129 713.74,-475.628 666.147,-481.094"/>
<polygon fill="#9a32cd" stroke="#9a32cd" points="890.928,-505.127 901.379,-506.864 894.292,-498.989 890.928,-505.127"/>
<text text-anchor="middle" x="799" y="-490" font-family="FreeSans" font-size="10.00"> backupTexture_</text>
</g>
<!-- Node14&#45;&gt;Node13 -->
<g id="edge40" class="edge"><title>Node14&#45;&gt;Node13</title>
<path fill="none" stroke="#9a32cd" stroke-dasharray="5,2" d="M676.232,-494.668C731.406,-501.096 814.478,-510.774 869.932,-517.235"/>
<polygon fill="#9a32cd" stroke="#9a32cd" points="676.605,-491.188 666.267,-493.507 675.795,-498.141 676.605,-491.188"/>
<text text-anchor="middle" x="799" y="-518" font-family="FreeSans" font-size="10.00"> ptr_</text>
</g>
<!-- Node15&#45;&gt;Node14 -->
<g id="edge42" class="edge"><title>Node15&#45;&gt;Node14</title>
<path fill="none" stroke="midnightblue" d="M348.547,-262.083C361.628,-265.119 374.844,-269.807 386,-277 453.696,-320.649 451.38,-354.445 492,-424 501.627,-440.485 495.179,-450.968 510,-463 527.259,-477.011 550.884,-483.49 571.728,-486.372"/>
<polygon fill="midnightblue" stroke="midnightblue" points="349.102,-258.625 338.606,-260.07 347.713,-265.486 349.102,-258.625"/>
</g>
<!-- Node22 -->
<g id="node58" class="node"><title>Node22</title>
<a xlink:href="a00128.html" target="_top" xlink:title="Font resource.">
<polygon fill="none" stroke="black" points="579,-123.5 579,-144.5 659,-144.5 659,-123.5 579,-123.5"/>
<text text-anchor="middle" x="619" y="-131.5" font-family="FreeSans" font-size="10.00">Urho3D::Font</text>
</a>
</g>
<!-- Node15&#45;&gt;Node22 -->
<g id="edge76" class="edge"><title>Node15&#45;&gt;Node22</title>
<path fill="none" stroke="midnightblue" d="M348.703,-259.234C390.584,-258.655 446.417,-253.704 492,-235 543.082,-214.039 590.39,-165.97 609.759,-144.589"/>
<polygon fill="midnightblue" stroke="midnightblue" points="348.621,-255.735 338.642,-259.294 348.663,-262.734 348.621,-255.735"/>
</g>
<!-- Node16 -->
<g id="node41" class="node"><title>Node16</title>
<a xlink:href="a00270.html" target="_top" xlink:title="Urho3D::SharedPtr\&lt;\l Urho3D::Text \&gt;">
<polygon fill="none" stroke="black" points="1206,-324 1206,-358 1322,-358 1322,-324 1206,-324"/>
<text text-anchor="start" x="1214" y="-345" font-family="FreeSans" font-size="10.00">Urho3D::SharedPtr&lt;</text>
<text text-anchor="middle" x="1264" y="-332" font-family="FreeSans" font-size="10.00"> Urho3D::Text &gt;</text>
</a>
</g>
<!-- Node16&#45;&gt;Node1 -->
<g id="edge52" class="edge"><title>Node16&#45;&gt;Node1</title>
<path fill="none" stroke="#9a32cd" stroke-dasharray="5,2" d="M1332.52,-341C1397.87,-341 1494.64,-341 1552.4,-341"/>
<polygon fill="#9a32cd" stroke="#9a32cd" points="1332.32,-337.5 1322.32,-341 1332.32,-344.5 1332.32,-337.5"/>
<text text-anchor="middle" x="1408" y="-345" font-family="FreeSans" font-size="10.00"> text_</text>
</g>
<!-- Node17&#45;&gt;Node16 -->
<g id="edge54" class="edge"><title>Node17&#45;&gt;Node16</title>
<path fill="none" stroke="#9a32cd" stroke-dasharray="5,2" d="M977.315,-341C1038.13,-341 1141.36,-341 1205.95,-341"/>
<polygon fill="#9a32cd" stroke="#9a32cd" points="977.201,-337.5 967.201,-341 977.201,-344.5 977.201,-337.5"/>
<text text-anchor="middle" x="1026" y="-345" font-family="FreeSans" font-size="10.00"> ptr_</text>
</g>
<!-- Node18 -->
<g id="node46" class="node"><title>Node18</title>
<a xlink:href="a00222.html" target="_top" xlink:title="Urho3D::PODVector\&lt;\l int \&gt;">
<polygon fill="none" stroke="red" points="559.5,-350 559.5,-384 678.5,-384 678.5,-350 559.5,-350"/>
<text text-anchor="start" x="567.5" y="-371" font-family="FreeSans" font-size="10.00">Urho3D::PODVector&lt;</text>
<text text-anchor="middle" x="619" y="-358" font-family="FreeSans" font-size="10.00"> int &gt;</text>
</a>
</g>
<!-- Node18&#45;&gt;Node17 -->
<g id="edge58" class="edge"><title>Node18&#45;&gt;Node17</title>
<path fill="none" stroke="#9a32cd" stroke-dasharray="5,2" d="M688.638,-361.14C750.399,-355.944 838.39,-348.54 888.689,-344.308"/>
<polygon fill="#9a32cd" stroke="#9a32cd" points="688.25,-357.661 678.578,-361.987 688.837,-364.636 688.25,-357.661"/>
<text text-anchor="middle" x="799" y="-359" font-family="FreeSans" font-size="10.00"> rowWidths_</text>
</g>
<!-- Node19 -->
<g id="node48" class="node"><title>Node19</title>
<a xlink:href="a00326.html" target="_top" xlink:title="Urho3D::WeakPtr\&lt; Urho3D\l::FontFace \&gt;">
<polygon fill="none" stroke="red" points="546,-298 546,-332 692,-332 692,-298 546,-298"/>
<text text-anchor="start" x="554" y="-319" font-family="FreeSans" font-size="10.00">Urho3D::WeakPtr&lt; Urho3D</text>
<text text-anchor="middle" x="619" y="-306" font-family="FreeSans" font-size="10.00">::FontFace &gt;</text>
</a>
</g>
<!-- Node19&#45;&gt;Node17 -->
<g id="edge60" class="edge"><title>Node19&#45;&gt;Node17</title>
<path fill="none" stroke="#9a32cd" stroke-dasharray="5,2" d="M702.25,-318.752C746.754,-321.163 802.442,-324.827 852,-330 863.934,-331.246 876.87,-332.975 888.629,-334.694"/>
<polygon fill="#9a32cd" stroke="#9a32cd" points="702.234,-315.246 692.062,-318.211 701.863,-322.236 702.234,-315.246"/>
<text text-anchor="middle" x="799" y="-334" font-family="FreeSans" font-size="10.00"> fontFace_</text>
</g>
<!-- Node20 -->
<g id="node50" class="node"><title>Node20</title>
<a xlink:href="a00314.html" target="_top" xlink:title="Urho3D::Vector\&lt; Urho3D\l::PODVector\&lt; Urho3D::GlyphLocation \&gt; \&gt;">
<polygon fill="none" stroke="red" points="510,-246 510,-280 728,-280 728,-246 510,-246"/>
<text text-anchor="start" x="518" y="-267" font-family="FreeSans" font-size="10.00">Urho3D::Vector&lt; Urho3D</text>
<text text-anchor="middle" x="619" y="-254" font-family="FreeSans" font-size="10.00">::PODVector&lt; Urho3D::GlyphLocation &gt; &gt;</text>
</a>
</g>
<!-- Node20&#45;&gt;Node17 -->
<g id="edge62" class="edge"><title>Node20&#45;&gt;Node17</title>
<path fill="none" stroke="#9a32cd" stroke-dasharray="5,2" d="M738.362,-278.293C775.292,-284.676 815.777,-293.382 852,-305 872.297,-311.51 894.163,-322.304 909.205,-330.378"/>
<polygon fill="#9a32cd" stroke="#9a32cd" points="738.489,-274.765 728.046,-276.554 737.325,-281.668 738.489,-274.765"/>
<text text-anchor="middle" x="799" y="-309" font-family="FreeSans" font-size="10.00"> pageGlyphLocations_</text>
</g>
<!-- Node21&#45;&gt;Node1 -->
<g id="edge68" class="edge"><title>Node21&#45;&gt;Node1</title>
<path fill="none" stroke="#9a32cd" stroke-dasharray="5,2" d="M1481.69,-461.401C1499.88,-454.219 1518.56,-444.888 1534,-433 1563.75,-410.098 1586.24,-370.513 1595.87,-351.625"/>
<polygon fill="#9a32cd" stroke="#9a32cd" points="1480.36,-458.161 1472.24,-464.963 1482.83,-464.711 1480.36,-458.161"/>
<text text-anchor="middle" x="1514" y="-459" font-family="FreeSans" font-size="10.00"> cursor_</text>
</g>
<!-- Node22&#45;&gt;Node1 -->
<g id="edge74" class="edge"><title>Node22&#45;&gt;Node1</title>
<path fill="none" stroke="#9a32cd" stroke-dasharray="5,2" d="M669.652,-134C730.86,-134 836.972,-134 928,-134 928,-134 928,-134 1408,-134 1465.78,-134 1490.83,-127.602 1534,-166 1585.05,-211.403 1597.43,-300.076 1600.23,-330.477"/>
<polygon fill="#9a32cd" stroke="#9a32cd" points="669.492,-130.5 659.492,-134 669.491,-137.5 669.492,-130.5"/>
<text text-anchor="middle" x="1127" y="-138" font-family="FreeSans" font-size="10.00"> lastFont_</text>
</g>
<!-- Node23 -->
<g id="node61" class="node"><title>Node23</title>
<a xlink:href="a00270.html" target="_top" xlink:title="Urho3D::SharedPtr\&lt;\l FreeTypeLibrary \&gt;">
<polygon fill="none" stroke="red" points="229,-66 229,-100 345,-100 345,-66 229,-66"/>
<text text-anchor="start" x="237" y="-87" font-family="FreeSans" font-size="10.00">Urho3D::SharedPtr&lt;</text>
<text text-anchor="middle" x="287" y="-74" font-family="FreeSans" font-size="10.00"> FreeTypeLibrary &gt;</text>
</a>
</g>
<!-- Node23&#45;&gt;Node22 -->
<g id="edge78" class="edge"><title>Node23&#45;&gt;Node22</title>
<path fill="none" stroke="#9a32cd" stroke-dasharray="5,2" d="M355.301,-93.492C422.602,-103.83 523.166,-119.279 578.638,-127.8"/>
<polygon fill="#9a32cd" stroke="#9a32cd" points="355.625,-90.0009 345.21,-91.9419 354.563,-96.9197 355.625,-90.0009"/>
<text text-anchor="middle" x="448" y="-118" font-family="FreeSans" font-size="10.00"> freeType_</text>
</g>
<!-- Node24 -->
<g id="node63" class="node"><title>Node24</title>
<a xlink:href="a00142.html" target="_top" xlink:title="Urho3D::HashMap\&lt; int,\l Urho3D::SharedPtr\&lt; Urho3D\l::FontFace \&gt; \&gt;">
<polygon fill="none" stroke="red" points="208,-0.5 208,-47.5 366,-47.5 366,-0.5 208,-0.5"/>
<text text-anchor="start" x="216" y="-34.5" font-family="FreeSans" font-size="10.00">Urho3D::HashMap&lt; int,</text>
<text text-anchor="start" x="216" y="-21.5" font-family="FreeSans" font-size="10.00"> Urho3D::SharedPtr&lt; Urho3D</text>
<text text-anchor="middle" x="287" y="-8.5" font-family="FreeSans" font-size="10.00">::FontFace &gt; &gt;</text>
</a>
</g>
<!-- Node24&#45;&gt;Node22 -->
<g id="edge80" class="edge"><title>Node24&#45;&gt;Node22</title>
<path fill="none" stroke="#9a32cd" stroke-dasharray="5,2" d="M376.27,-49.5696C412.379,-60.2832 454.349,-73.2076 492,-86 527.039,-97.9049 566.867,-113.261 592.431,-123.358"/>
<polygon fill="#9a32cd" stroke="#9a32cd" points="376.831,-46.0859 366.249,-46.6084 374.847,-52.7989 376.831,-46.0859"/>
<text text-anchor="middle" x="448" y="-90" font-family="FreeSans" font-size="10.00"> faces_</text>
</g>
<!-- Node25 -->
<g id="node65" class="node"><title>Node25</title>
<a xlink:href="a00269.html" target="_top" xlink:title="Urho3D::SharedArrayPtr\l\&lt; unsigned char \&gt;">
<polygon fill="none" stroke="red" points="220.5,-118 220.5,-152 353.5,-152 353.5,-118 220.5,-118"/>
<text text-anchor="start" x="228.5" y="-139" font-family="FreeSans" font-size="10.00">Urho3D::SharedArrayPtr</text>
<text text-anchor="middle" x="287" y="-126" font-family="FreeSans" font-size="10.00">&lt; unsigned char &gt;</text>
</a>
</g>
<!-- Node25&#45;&gt;Node22 -->
<g id="edge82" class="edge"><title>Node25&#45;&gt;Node22</title>
<path fill="none" stroke="#9a32cd" stroke-dasharray="5,2" d="M363.898,-134.768C431.036,-134.566 525.81,-134.281 578.914,-134.121"/>
<polygon fill="#9a32cd" stroke="#9a32cd" points="363.775,-131.269 353.786,-134.799 363.796,-138.269 363.775,-131.269"/>
<text text-anchor="middle" x="448" y="-139" font-family="FreeSans" font-size="10.00"> fontData_</text>
</g>
</g>
</svg>
