<?xml version="1.0" encoding="UTF-8" standalone="no"?>
<!DOCTYPE svg PUBLIC "-//W3C//DTD SVG 1.1//EN"
 "http://www.w3.org/Graphics/SVG/1.1/DTD/svg11.dtd">
<!-- Generated by graphviz version 2.26.3 (20100126.1600)
 -->
<!-- Title: Urho3D::PackageDownload Pages: 1 -->
<svg width="1496pt" height="863pt"
 viewBox="0.00 0.00 1496.00 863.11" xmlns="http://www.w3.org/2000/svg" xmlns:xlink="http://www.w3.org/1999/xlink">
<g id="graph1" class="graph" transform="scale(1 1) rotate(0) translate(4 859.11)">
<title>Urho3D::PackageDownload</title>
<!-- Node1 -->
<g id="node1" class="node"><title>Node1</title>
<polygon fill="#bfbfbf" stroke="black" points="1342,-719.61 1342,-740.61 1488,-740.61 1488,-719.61 1342,-719.61"/>
<text text-anchor="middle" x="1415" y="-727.61" font-family="FreeSans" font-size="10.00">Urho3D::PackageDownload</text>
</g>
<!-- Node2 -->
<g id="node2" class="node"><title>Node2</title>
<a xlink:href="a00318.html" target="_top" xlink:title="Urho3D::SharedPtr\&lt;\l Urho3D::File \&gt;">
<polygon fill="none" stroke="black" points="1153,-713.11 1153,-747.11 1269,-747.11 1269,-713.11 1153,-713.11"/>
<text text-anchor="start" x="1161" y="-734.11" font-family="FreeSans" font-size="10.00">Urho3D::SharedPtr&lt;</text>
<text text-anchor="middle" x="1211" y="-721.11" font-family="FreeSans" font-size="10.00"> Urho3D::File &gt;</text>
</a>
</g>
<!-- Node2&#45;&gt;Node1 -->
<g id="edge2" class="edge"><title>Node2&#45;&gt;Node1</title>
<path fill="none" stroke="#9a32cd" stroke-dasharray="5,2" d="M1279.19,-730.11C1299.31,-730.11 1321.4,-730.11 1341.82,-730.11"/>
<polygon fill="#9a32cd" stroke="#9a32cd" points="1279.19,-726.611 1269.19,-730.11 1279.19,-733.611 1279.19,-726.611"/>
<text text-anchor="middle" x="1313" y="-734.11" font-family="FreeSans" font-size="10.00"> file_</text>
</g>
<!-- Node3 -->
<g id="node4" class="node"><title>Node3</title>
<a xlink:href="a00158.html" target="_top" xlink:title="File opened either through the filesystem or from within a package file.">
<polygon fill="none" stroke="black" points="791,-719.61 791,-740.61 865,-740.61 865,-719.61 791,-719.61"/>
<text text-anchor="middle" x="828" y="-727.61" font-family="FreeSans" font-size="10.00">Urho3D::File</text>
</a>
</g>
<!-- Node3&#45;&gt;Node2 -->
<g id="edge4" class="edge"><title>Node3&#45;&gt;Node2</title>
<path fill="none" stroke="#9a32cd" stroke-dasharray="5,2" d="M875.377,-730.11C945.54,-730.11 1076.94,-730.11 1152.84,-730.11"/>
<polygon fill="#9a32cd" stroke="#9a32cd" points="875.072,-726.611 865.072,-730.11 875.072,-733.611 875.072,-726.611"/>
<text text-anchor="middle" x="1036" y="-734.11" font-family="FreeSans" font-size="10.00"> ptr_</text>
</g>
<!-- Node4 -->
<g id="node6" class="node"><title>Node4</title>
<a xlink:href="a00239.html" target="_top" xlink:title="Base class for objects with type identification, subsystem access and event sending/receiving capabil...">
<polygon fill="none" stroke="black" points="531,-595.61 531,-616.61 621,-616.61 621,-595.61 531,-595.61"/>
<text text-anchor="middle" x="576" y="-603.61" font-family="FreeSans" font-size="10.00">Urho3D::Object</text>
</a>
</g>
<!-- Node4&#45;&gt;Node3 -->
<g id="edge6" class="edge"><title>Node4&#45;&gt;Node3</title>
<path fill="none" stroke="midnightblue" d="M601.507,-622.189C616.071,-631.121 634.802,-642.195 652,-651.11 704.036,-678.085 767.174,-705.097 801.919,-719.49"/>
<polygon fill="midnightblue" stroke="midnightblue" points="602.941,-618.961 592.597,-616.673 599.257,-624.913 602.941,-618.961"/>
</g>
<!-- Node16 -->
<g id="node36" class="node"><title>Node16</title>
<a xlink:href="a00155.html" target="_top" xlink:title="Internal helper class for invoking event handler functions.">
<polygon fill="none" stroke="red" points="766,-584.61 766,-605.61 890,-605.61 890,-584.61 766,-584.61"/>
<text text-anchor="middle" x="828" y="-592.61" font-family="FreeSans" font-size="10.00">Urho3D::EventHandler</text>
</a>
</g>
<!-- Node4&#45;&gt;Node16 -->
<g id="edge44" class="edge"><title>Node4&#45;&gt;Node16</title>
<path fill="none" stroke="#9a32cd" stroke-dasharray="5,2" d="M631.437,-601.408C638.357,-600.917 645.34,-600.468 652,-600.11 689.697,-598.088 731.983,-596.853 765.657,-596.117"/>
<polygon fill="#9a32cd" stroke="#9a32cd" points="631.102,-597.923 621.387,-602.151 631.618,-604.904 631.102,-597.923"/>
<text text-anchor="middle" x="678" y="-617.11" font-family="FreeSans" font-size="10.00"> sender_</text>
<text text-anchor="middle" x="678" y="-604.11" font-family="FreeSans" font-size="10.00">receiver_</text>
</g>
<!-- Node5 -->
<g id="node8" class="node"><title>Node5</title>
<a xlink:href="a00281.html" target="_top" xlink:title="Base class for intrusively reference&#45;counted objects. These are noncopyable and non&#45;assignable.">
<polygon fill="none" stroke="black" points="224,-595.61 224,-616.61 338,-616.61 338,-595.61 224,-595.61"/>
<text text-anchor="middle" x="281" y="-603.61" font-family="FreeSans" font-size="10.00">Urho3D::RefCounted</text>
</a>
</g>
<!-- Node5&#45;&gt;Node4 -->
<g id="edge8" class="edge"><title>Node5&#45;&gt;Node4</title>
<path fill="none" stroke="midnightblue" d="M348.406,-606.11C404.351,-606.11 482.36,-606.11 530.985,-606.11"/>
<polygon fill="midnightblue" stroke="midnightblue" points="348.229,-602.611 338.229,-606.11 348.229,-609.611 348.229,-602.611"/>
</g>
<!-- Node7 -->
<g id="node12" class="node"><title>Node7</title>
<a xlink:href="a00129.html" target="_top" xlink:title="Urho3D execution context. Provides access to subsystems, object factories and attributes, and event receivers.">
<polygon fill="none" stroke="red" points="1162.5,-342.61 1162.5,-363.61 1259.5,-363.61 1259.5,-342.61 1162.5,-342.61"/>
<text text-anchor="middle" x="1211" y="-350.61" font-family="FreeSans" font-size="10.00">Urho3D::Context</text>
</a>
</g>
<!-- Node5&#45;&gt;Node7 -->
<g id="edge14" class="edge"><title>Node5&#45;&gt;Node7</title>
<path fill="none" stroke="midnightblue" d="M348.217,-596.406C535.238,-569.05 1052.4,-490.853 1120,-453.11 1159.97,-430.795 1191.85,-384.454 1204.77,-363.637"/>
<polygon fill="midnightblue" stroke="midnightblue" points="347.624,-592.956 338.235,-597.864 348.636,-599.882 347.624,-592.956"/>
</g>
<!-- Node6 -->
<g id="node10" class="node"><title>Node6</title>
<a xlink:href="a00280.html" target="_top" xlink:title="Reference count structure.">
<polygon fill="none" stroke="black" points="13,-618.61 13,-639.61 115,-639.61 115,-618.61 13,-618.61"/>
<text text-anchor="middle" x="64" y="-626.61" font-family="FreeSans" font-size="10.00">Urho3D::RefCount</text>
</a>
</g>
<!-- Node6&#45;&gt;Node5 -->
<g id="edge10" class="edge"><title>Node6&#45;&gt;Node5</title>
<path fill="none" stroke="#9a32cd" stroke-dasharray="5,2" d="M125.231,-617.951C132.22,-616.887 139.255,-615.909 146,-615.11 171.426,-612.1 199.674,-610.022 223.732,-608.628"/>
<polygon fill="#9a32cd" stroke="#9a32cd" points="124.391,-614.54 115.061,-619.56 125.485,-621.454 124.391,-614.54"/>
<text text-anchor="middle" x="171" y="-619.11" font-family="FreeSans" font-size="10.00"> refCount_</text>
</g>
<!-- Node23 -->
<g id="node55" class="node"><title>Node23</title>
<a xlink:href="a00317.html" target="_top" xlink:title="Urho3D::SharedArrayPtr\l\&lt; unsigned char \&gt;">
<polygon fill="none" stroke="black" points="366.5,-638.11 366.5,-672.11 499.5,-672.11 499.5,-638.11 366.5,-638.11"/>
<text text-anchor="start" x="374.5" y="-659.11" font-family="FreeSans" font-size="10.00">Urho3D::SharedArrayPtr</text>
<text text-anchor="middle" x="433" y="-646.11" font-family="FreeSans" font-size="10.00">&lt; unsigned char &gt;</text>
</a>
</g>
<!-- Node6&#45;&gt;Node23 -->
<g id="edge68" class="edge"><title>Node6&#45;&gt;Node23</title>
<path fill="none" stroke="#9a32cd" stroke-dasharray="5,2" d="M125.637,-633.453C192.16,-638.141 297.749,-645.581 366.21,-650.404"/>
<polygon fill="#9a32cd" stroke="#9a32cd" points="125.529,-629.937 115.308,-632.726 125.037,-636.92 125.529,-629.937"/>
<text text-anchor="middle" x="171" y="-643.11" font-family="FreeSans" font-size="10.00"> refCount_</text>
</g>
<!-- Node7&#45;&gt;Node4 -->
<g id="edge12" class="edge"><title>Node7&#45;&gt;Node4</title>
<path fill="none" stroke="#9a32cd" stroke-dasharray="5,2" d="M1206.47,-373.695C1197.24,-410.28 1172.51,-486.067 1120,-521.11 1046.05,-570.468 809.181,-544.648 722,-562.11 680.597,-570.403 634.111,-585.443 604.948,-595.603"/>
<polygon fill="#9a32cd" stroke="#9a32cd" points="1209.94,-374.227 1208.85,-363.688 1203.13,-372.606 1209.94,-374.227"/>
<text text-anchor="middle" x="828" y="-566.11" font-family="FreeSans" font-size="10.00"> context_</text>
</g>
<!-- Node8 -->
<g id="node15" class="node"><title>Node8</title>
<a xlink:href="a00178.html" target="_top" xlink:title="Urho3D::HashMap\&lt; Urho3D\l::ShortStringHash, Urho3D\l::Vector\&lt; Urho3D::AttributeInfo \&gt; \&gt;">
<polygon fill="none" stroke="black" points="733.5,-353.61 733.5,-400.61 922.5,-400.61 922.5,-353.61 733.5,-353.61"/>
<text text-anchor="start" x="741.5" y="-387.61" font-family="FreeSans" font-size="10.00">Urho3D::HashMap&lt; Urho3D</text>
<text text-anchor="start" x="741.5" y="-374.61" font-family="FreeSans" font-size="10.00">::ShortStringHash, Urho3D</text>
<text text-anchor="middle" x="828" y="-361.61" font-family="FreeSans" font-size="10.00">::Vector&lt; Urho3D::AttributeInfo &gt; &gt;</text>
</a>
</g>
<!-- Node8&#45;&gt;Node7 -->
<g id="edge16" class="edge"><title>Node8&#45;&gt;Node7</title>
<path fill="none" stroke="#9a32cd" stroke-dasharray="5,2" d="M933.074,-370.526C1007.87,-365.839 1104.93,-359.757 1162.33,-356.16"/>
<polygon fill="#9a32cd" stroke="#9a32cd" points="932.436,-367.059 922.674,-371.178 932.874,-374.046 932.436,-367.059"/>
<text text-anchor="middle" x="1036" y="-386.11" font-family="FreeSans" font-size="10.00"> attributes_</text>
<text text-anchor="middle" x="1036" y="-373.11" font-family="FreeSans" font-size="10.00">networkAttributes_</text>
</g>
<!-- Node9 -->
<g id="node17" class="node"><title>Node9</title>
<a xlink:href="a00176.html" target="_top" xlink:title="Hash set/map base class.">
<polygon fill="none" stroke="black" points="522,-234.61 522,-255.61 630,-255.61 630,-234.61 522,-234.61"/>
<text text-anchor="middle" x="576" y="-242.61" font-family="FreeSans" font-size="10.00">Urho3D::HashBase</text>
</a>
</g>
<!-- Node9&#45;&gt;Node8 -->
<g id="edge18" class="edge"><title>Node9&#45;&gt;Node8</title>
<path fill="none" stroke="midnightblue" d="M596.919,-262.239C624.228,-283.884 674.197,-321.088 722,-344.11 729.033,-347.498 736.493,-350.639 744.07,-353.528"/>
<polygon fill="midnightblue" stroke="midnightblue" points="598.871,-259.318 588.879,-255.795 594.493,-264.78 598.871,-259.318"/>
</g>
<!-- Node14 -->
<g id="node30" class="node"><title>Node14</title>
<a xlink:href="a00178.html" target="_top" xlink:title="Urho3D::HashMap\&lt; Urho3D\l::ShortStringHash, Urho3D\l::SharedPtr\&lt; Urho3D::Object \&gt; \&gt;">
<polygon fill="none" stroke="black" points="739,-287.61 739,-334.61 917,-334.61 917,-287.61 739,-287.61"/>
<text text-anchor="start" x="747" y="-321.61" font-family="FreeSans" font-size="10.00">Urho3D::HashMap&lt; Urho3D</text>
<text text-anchor="start" x="747" y="-308.61" font-family="FreeSans" font-size="10.00">::ShortStringHash, Urho3D</text>
<text text-anchor="middle" x="828" y="-295.61" font-family="FreeSans" font-size="10.00">::SharedPtr&lt; Urho3D::Object &gt; &gt;</text>
</a>
</g>
<!-- Node9&#45;&gt;Node14 -->
<g id="edge36" class="edge"><title>Node9&#45;&gt;Node14</title>
<path fill="none" stroke="midnightblue" d="M626.264,-258.275C658.426,-266.698 701.055,-277.863 738.839,-287.759"/>
<polygon fill="midnightblue" stroke="midnightblue" points="626.769,-254.789 616.209,-255.641 624.996,-261.561 626.769,-254.789"/>
</g>
<!-- Node15 -->
<g id="node33" class="node"><title>Node15</title>
<a xlink:href="a00178.html" target="_top" xlink:title="Urho3D::HashMap\&lt; Urho3D\l::String, Urho3D::Vector\l\&lt; Urho3D::ShortStringHash \&gt; \&gt;">
<polygon fill="none" stroke="black" points="741.5,-221.61 741.5,-268.61 914.5,-268.61 914.5,-221.61 741.5,-221.61"/>
<text text-anchor="start" x="749.5" y="-255.61" font-family="FreeSans" font-size="10.00">Urho3D::HashMap&lt; Urho3D</text>
<text text-anchor="start" x="749.5" y="-242.61" font-family="FreeSans" font-size="10.00">::String, Urho3D::Vector</text>
<text text-anchor="middle" x="828" y="-229.61" font-family="FreeSans" font-size="10.00">&lt; Urho3D::ShortStringHash &gt; &gt;</text>
</a>
</g>
<!-- Node9&#45;&gt;Node15 -->
<g id="edge40" class="edge"><title>Node9&#45;&gt;Node15</title>
<path fill="none" stroke="midnightblue" d="M640.211,-245.11C670.922,-245.11 708.142,-245.11 741.32,-245.11"/>
<polygon fill="midnightblue" stroke="midnightblue" points="640.06,-241.611 630.06,-245.11 640.06,-248.611 640.06,-241.611"/>
</g>
<!-- Node17 -->
<g id="node39" class="node"><title>Node17</title>
<a xlink:href="a00178.html" target="_top" xlink:title="Urho3D::HashMap\&lt; Urho3D\l::StringHash, Urho3D::\lHashSet\&lt; Urho3D::Object * \&gt; \&gt;">
<polygon fill="none" stroke="black" points="741.5,-37.6104 741.5,-84.6104 914.5,-84.6104 914.5,-37.6104 741.5,-37.6104"/>
<text text-anchor="start" x="749.5" y="-71.6104" font-family="FreeSans" font-size="10.00">Urho3D::HashMap&lt; Urho3D</text>
<text text-anchor="start" x="749.5" y="-58.6104" font-family="FreeSans" font-size="10.00">::StringHash, Urho3D::</text>
<text text-anchor="middle" x="828" y="-45.6104" font-family="FreeSans" font-size="10.00">HashSet&lt; Urho3D::Object * &gt; &gt;</text>
</a>
</g>
<!-- Node9&#45;&gt;Node17 -->
<g id="edge48" class="edge"><title>Node9&#45;&gt;Node17</title>
<path fill="none" stroke="midnightblue" d="M589.264,-226.16C612.529,-194.296 663.785,-129.964 722,-94.1104 728.072,-90.3707 734.603,-87.0226 741.334,-84.0311"/>
<polygon fill="midnightblue" stroke="midnightblue" points="586.202,-224.424 583.213,-234.588 591.888,-228.506 586.202,-224.424"/>
</g>
<!-- Node18 -->
<g id="node42" class="node"><title>Node18</title>
<a xlink:href="a00178.html" target="_top" xlink:title="Urho3D::HashMap\&lt; Urho3D\l::Object *, Urho3D::HashMap\l\&lt; Urho3D::StringHash, Urho3D\l::HashSet\&lt; Urho3D::Object * \&gt; \&gt; \&gt;">
<polygon fill="none" stroke="black" points="732.5,-419.11 732.5,-479.11 923.5,-479.11 923.5,-419.11 732.5,-419.11"/>
<text text-anchor="start" x="740.5" y="-466.11" font-family="FreeSans" font-size="10.00">Urho3D::HashMap&lt; Urho3D</text>
<text text-anchor="start" x="740.5" y="-453.11" font-family="FreeSans" font-size="10.00">::Object *, Urho3D::HashMap</text>
<text text-anchor="start" x="740.5" y="-440.11" font-family="FreeSans" font-size="10.00">&lt; Urho3D::StringHash, Urho3D</text>
<text text-anchor="middle" x="828" y="-427.11" font-family="FreeSans" font-size="10.00">::HashSet&lt; Urho3D::Object * &gt; &gt; &gt;</text>
</a>
</g>
<!-- Node9&#45;&gt;Node18 -->
<g id="edge52" class="edge"><title>Node9&#45;&gt;Node18</title>
<path fill="none" stroke="midnightblue" d="M588.045,-264.194C610.43,-298.193 661.684,-369.483 722,-410.11 726.716,-413.287 731.725,-416.245 736.898,-418.992"/>
<polygon fill="midnightblue" stroke="midnightblue" points="590.887,-262.142 582.514,-255.65 585.011,-265.946 590.887,-262.142"/>
</g>
<!-- Node19 -->
<g id="node45" class="node"><title>Node19</title>
<a xlink:href="a00178.html" target="_top" xlink:title="Urho3D::HashMap\&lt; Urho3D\l::ShortStringHash, Urho3D\l::SharedPtr\&lt; Urho3D::ObjectFactory \&gt; \&gt;">
<polygon fill="none" stroke="black" points="722,-155.61 722,-202.61 934,-202.61 934,-155.61 722,-155.61"/>
<text text-anchor="start" x="730" y="-189.61" font-family="FreeSans" font-size="10.00">Urho3D::HashMap&lt; Urho3D</text>
<text text-anchor="start" x="730" y="-176.61" font-family="FreeSans" font-size="10.00">::ShortStringHash, Urho3D</text>
<text text-anchor="middle" x="828" y="-163.61" font-family="FreeSans" font-size="10.00">::SharedPtr&lt; Urho3D::ObjectFactory &gt; &gt;</text>
</a>
</g>
<!-- Node9&#45;&gt;Node19 -->
<g id="edge56" class="edge"><title>Node9&#45;&gt;Node19</title>
<path fill="none" stroke="midnightblue" d="M626.198,-231.963C658.142,-223.597 700.432,-212.521 738.043,-202.671"/>
<polygon fill="midnightblue" stroke="midnightblue" points="624.996,-228.66 616.209,-234.58 626.769,-235.432 624.996,-228.66"/>
</g>
<!-- Node25 -->
<g id="node62" class="node"><title>Node25</title>
<a xlink:href="a00180.html" target="_top" xlink:title="Urho3D::HashSet\&lt; unsigned \&gt;">
<polygon fill="none" stroke="black" points="952.5,-9.61044 952.5,-30.6104 1119.5,-30.6104 1119.5,-9.61044 952.5,-9.61044"/>
<text text-anchor="middle" x="1036" y="-17.6104" font-family="FreeSans" font-size="10.00">Urho3D::HashSet&lt; unsigned &gt;</text>
</a>
</g>
<!-- Node9&#45;&gt;Node25 -->
<g id="edge78" class="edge"><title>Node9&#45;&gt;Node25</title>
<path fill="none" stroke="midnightblue" d="M581.818,-224.476C596.275,-177.853 638.808,-65.5285 722,-28.1104 807.167,10.1959 918.901,0.832458 983.547,-9.56544"/>
<polygon fill="midnightblue" stroke="midnightblue" points="578.378,-223.767 578.876,-234.35 585.086,-225.766 578.378,-223.767"/>
</g>
<!-- Node10 -->
<g id="node19" class="node"><title>Node10</title>
<a xlink:href="a00179.html" target="_top" xlink:title="Hash set/map node base class.">
<polygon fill="none" stroke="black" points="214,-169.61 214,-190.61 348,-190.61 348,-169.61 214,-169.61"/>
<text text-anchor="middle" x="281" y="-177.61" font-family="FreeSans" font-size="10.00">Urho3D::HashNodeBase</text>
</a>
</g>
<!-- Node10&#45;&gt;Node9 -->
<g id="edge20" class="edge"><title>Node10&#45;&gt;Node9</title>
<path fill="none" stroke="#9a32cd" stroke-dasharray="5,2" d="M358.137,-185.714C400.6,-190.116 453.885,-197.818 500,-211.11 520,-216.876 541.547,-226.913 556.572,-234.592"/>
<polygon fill="#9a32cd" stroke="#9a32cd" points="358.44,-182.226 348.142,-184.717 357.746,-189.192 358.44,-182.226"/>
<text text-anchor="middle" x="433" y="-241.11" font-family="FreeSans" font-size="10.00"> ptrs_</text>
<text text-anchor="middle" x="433" y="-228.11" font-family="FreeSans" font-size="10.00">tail_</text>
<text text-anchor="middle" x="433" y="-215.11" font-family="FreeSans" font-size="10.00">head_</text>
</g>
<!-- Node10&#45;&gt;Node10 -->
<g id="edge22" class="edge"><title>Node10&#45;&gt;Node10</title>
<path fill="none" stroke="#9a32cd" stroke-dasharray="5,2" d="M260.728,-200.537C262.292,-205.459 269.049,-209.11 281,-209.11 300.121,-209.11 305.947,-199.764 298.478,-190.818"/>
<polygon fill="#9a32cd" stroke="#9a32cd" points="264.123,-201.396 263.522,-190.818 257.395,-199.462 264.123,-201.396"/>
<text text-anchor="middle" x="281" y="-239.11" font-family="FreeSans" font-size="10.00"> next_</text>
<text text-anchor="middle" x="281" y="-226.11" font-family="FreeSans" font-size="10.00">prev_</text>
<text text-anchor="middle" x="281" y="-213.11" font-family="FreeSans" font-size="10.00">down_</text>
</g>
<!-- Node11 -->
<g id="node22" class="node"><title>Node11</title>
<a xlink:href="a00052.html" target="_top" xlink:title="Allocator memory block.">
<polygon fill="none" stroke="black" points="217.5,-266.61 217.5,-287.61 344.5,-287.61 344.5,-266.61 217.5,-266.61"/>
<text text-anchor="middle" x="281" y="-274.61" font-family="FreeSans" font-size="10.00">Urho3D::AllocatorBlock</text>
</a>
</g>
<!-- Node11&#45;&gt;Node9 -->
<g id="edge24" class="edge"><title>Node11&#45;&gt;Node9</title>
<path fill="none" stroke="#9a32cd" stroke-dasharray="5,2" d="M354.797,-269.105C406.692,-263.476 474.97,-256.07 521.866,-250.983"/>
<polygon fill="#9a32cd" stroke="#9a32cd" points="354.212,-265.648 344.647,-270.206 354.967,-272.607 354.212,-265.648"/>
<text text-anchor="middle" x="433" y="-272.11" font-family="FreeSans" font-size="10.00"> allocator_</text>
</g>
<!-- Node11&#45;&gt;Node11 -->
<g id="edge26" class="edge"><title>Node11&#45;&gt;Node11</title>
<path fill="none" stroke="#9a32cd" stroke-dasharray="5,2" d="M260.728,-297.537C262.292,-302.459 269.049,-306.11 281,-306.11 300.121,-306.11 305.947,-296.764 298.478,-287.818"/>
<polygon fill="#9a32cd" stroke="#9a32cd" points="264.123,-298.396 263.522,-287.818 257.395,-296.462 264.123,-298.396"/>
<text text-anchor="middle" x="281" y="-310.11" font-family="FreeSans" font-size="10.00"> next_</text>
</g>
<!-- Node12 -->
<g id="node25" class="node"><title>Node12</title>
<a xlink:href="a00053.html" target="_top" xlink:title="Allocator node.">
<polygon fill="none" stroke="black" points="0.5,-266.61 0.5,-287.61 127.5,-287.61 127.5,-266.61 0.5,-266.61"/>
<text text-anchor="middle" x="64" y="-274.61" font-family="FreeSans" font-size="10.00">Urho3D::AllocatorNode</text>
</a>
</g>
<!-- Node12&#45;&gt;Node11 -->
<g id="edge28" class="edge"><title>Node12&#45;&gt;Node11</title>
<path fill="none" stroke="#9a32cd" stroke-dasharray="5,2" d="M137.765,-277.11C163.616,-277.11 192.409,-277.11 217.36,-277.11"/>
<polygon fill="#9a32cd" stroke="#9a32cd" points="137.641,-273.611 127.641,-277.11 137.641,-280.611 137.641,-273.611"/>
<text text-anchor="middle" x="171" y="-281.11" font-family="FreeSans" font-size="10.00"> free_</text>
</g>
<!-- Node12&#45;&gt;Node12 -->
<g id="edge30" class="edge"><title>Node12&#45;&gt;Node12</title>
<path fill="none" stroke="#9a32cd" stroke-dasharray="5,2" d="M44.4653,-297.537C45.9723,-302.459 52.4839,-306.11 64,-306.11 82.4258,-306.11 88.0399,-296.764 80.8423,-287.818"/>
<polygon fill="#9a32cd" stroke="#9a32cd" points="47.8609,-298.39 47.1577,-287.818 41.1149,-296.521 47.8609,-298.39"/>
<text text-anchor="middle" x="64" y="-310.11" font-family="FreeSans" font-size="10.00"> next_</text>
</g>
<!-- Node13 -->
<g id="node28" class="node"><title>Node13</title>
<a xlink:href="a00267.html" target="_top" xlink:title="Urho3D::PODVector\&lt;\l Urho3D::Object * \&gt;">
<polygon fill="none" stroke="red" points="768.5,-103.11 768.5,-137.11 887.5,-137.11 887.5,-103.11 768.5,-103.11"/>
<text text-anchor="start" x="776.5" y="-124.11" font-family="FreeSans" font-size="10.00">Urho3D::PODVector&lt;</text>
<text text-anchor="middle" x="828" y="-111.11" font-family="FreeSans" font-size="10.00"> Urho3D::Object * &gt;</text>
</a>
</g>
<!-- Node13&#45;&gt;Node7 -->
<g id="edge32" class="edge"><title>Node13&#45;&gt;Node7</title>
<path fill="none" stroke="#9a32cd" stroke-dasharray="5,2" d="M898.156,-116.672C962.007,-117.114 1055.83,-127.111 1120,-175.11 1178.64,-218.973 1202.44,-311.453 1208.99,-342.61"/>
<polygon fill="#9a32cd" stroke="#9a32cd" points="897.778,-113.172 887.782,-116.682 897.785,-120.172 897.778,-113.172"/>
<text text-anchor="middle" x="1036" y="-179.11" font-family="FreeSans" font-size="10.00"> eventSenders_</text>
</g>
<!-- Node14&#45;&gt;Node7 -->
<g id="edge34" class="edge"><title>Node14&#45;&gt;Node7</title>
<path fill="none" stroke="#9a32cd" stroke-dasharray="5,2" d="M927.18,-321.279C983.706,-327.164 1055.85,-334.828 1120,-342.11 1133.76,-343.672 1148.67,-345.443 1162.37,-347.1"/>
<polygon fill="#9a32cd" stroke="#9a32cd" points="927.48,-317.791 917.172,-320.238 926.756,-324.754 927.48,-317.791"/>
<text text-anchor="middle" x="1036" y="-346.11" font-family="FreeSans" font-size="10.00"> subsystems_</text>
</g>
<!-- Node15&#45;&gt;Node7 -->
<g id="edge38" class="edge"><title>Node15&#45;&gt;Node7</title>
<path fill="none" stroke="#9a32cd" stroke-dasharray="5,2" d="M924.781,-259.185C982.477,-269.161 1056.59,-284.78 1120,-307.11 1146.72,-316.519 1175.58,-332.136 1193.48,-342.525"/>
<polygon fill="#9a32cd" stroke="#9a32cd" points="925.017,-255.675 914.572,-257.449 923.843,-262.576 925.017,-255.675"/>
<text text-anchor="middle" x="1036" y="-311.11" font-family="FreeSans" font-size="10.00"> objectCategories_</text>
</g>
<!-- Node16&#45;&gt;Node7 -->
<g id="edge42" class="edge"><title>Node16&#45;&gt;Node7</title>
<path fill="none" stroke="#9a32cd" stroke-dasharray="5,2" d="M900.22,-589.14C980.943,-581.894 1102.68,-569.035 1120,-556.11 1186.24,-506.68 1205.33,-398.036 1209.8,-363.718"/>
<polygon fill="#9a32cd" stroke="#9a32cd" points="899.75,-585.667 890.099,-590.038 900.369,-592.64 899.75,-585.667"/>
<text text-anchor="middle" x="1036" y="-588.11" font-family="FreeSans" font-size="10.00"> eventHandler_</text>
</g>
<!-- Node20 -->
<g id="node48" class="node"><title>Node20</title>
<a xlink:href="a00200.html" target="_top" xlink:title="Urho3D::LinkedList\l\&lt; Urho3D::EventHandler \&gt;">
<polygon fill="none" stroke="black" points="1138,-611.11 1138,-645.11 1284,-645.11 1284,-611.11 1138,-611.11"/>
<text text-anchor="start" x="1146" y="-632.11" font-family="FreeSans" font-size="10.00">Urho3D::LinkedList</text>
<text text-anchor="middle" x="1211" y="-619.11" font-family="FreeSans" font-size="10.00">&lt; Urho3D::EventHandler &gt;</text>
</a>
</g>
<!-- Node16&#45;&gt;Node20 -->
<g id="edge60" class="edge"><title>Node16&#45;&gt;Node20</title>
<path fill="none" stroke="#9a32cd" stroke-dasharray="5,2" d="M900.198,-598.575C959.371,-601.771 1045.24,-607.221 1120,-615.11 1125.71,-615.713 1131.62,-616.404 1137.55,-617.145"/>
<polygon fill="#9a32cd" stroke="#9a32cd" points="900.376,-595.08 890.204,-598.044 900.003,-602.07 900.376,-595.08"/>
<text text-anchor="middle" x="1036" y="-619.11" font-family="FreeSans" font-size="10.00"> head_</text>
</g>
<!-- Node17&#45;&gt;Node7 -->
<g id="edge46" class="edge"><title>Node17&#45;&gt;Node7</title>
<path fill="none" stroke="#9a32cd" stroke-dasharray="5,2" d="M924.795,-48.914C988.179,-46.5645 1068.51,-55.1407 1120,-103.11 1147.62,-128.841 1126.38,-150.196 1138,-186.11 1157.77,-247.226 1192.09,-316.426 1205.45,-342.459"/>
<polygon fill="#9a32cd" stroke="#9a32cd" points="924.601,-45.4191 914.775,-49.3805 924.926,-52.4115 924.601,-45.4191"/>
<text text-anchor="middle" x="1036" y="-107.11" font-family="FreeSans" font-size="10.00"> eventReceivers_</text>
</g>
<!-- Node18&#45;&gt;Node7 -->
<g id="edge50" class="edge"><title>Node18&#45;&gt;Node7</title>
<path fill="none" stroke="#9a32cd" stroke-dasharray="5,2" d="M933.758,-438.722C990.048,-431.278 1059.87,-418.957 1120,-399.11 1147.06,-390.177 1176.08,-374.286 1193.89,-363.722"/>
<polygon fill="#9a32cd" stroke="#9a32cd" points="933.239,-435.26 923.77,-440.011 934.135,-442.202 933.239,-435.26"/>
<text text-anchor="middle" x="1036" y="-440.11" font-family="FreeSans" font-size="10.00"> specificEventReceivers_</text>
</g>
<!-- Node19&#45;&gt;Node7 -->
<g id="edge54" class="edge"><title>Node19&#45;&gt;Node7</title>
<path fill="none" stroke="#9a32cd" stroke-dasharray="5,2" d="M944.342,-189.748C1000.57,-198.949 1067.14,-216.108 1120,-248.11 1160.45,-272.596 1192.3,-321.137 1205.01,-342.546"/>
<polygon fill="#9a32cd" stroke="#9a32cd" points="944.754,-186.27 934.332,-188.175 943.668,-193.185 944.754,-186.27"/>
<text text-anchor="middle" x="1036" y="-252.11" font-family="FreeSans" font-size="10.00"> factories_</text>
</g>
<!-- Node20&#45;&gt;Node4 -->
<g id="edge58" class="edge"><title>Node20&#45;&gt;Node4</title>
<path fill="none" stroke="#9a32cd" stroke-dasharray="5,2" d="M1127.79,-634.431C1018.18,-641.247 819.693,-648.375 652,-626.11 637.664,-624.207 622.169,-620.451 608.934,-616.703"/>
<polygon fill="#9a32cd" stroke="#9a32cd" points="1128.03,-637.923 1137.79,-633.794 1127.59,-630.937 1128.03,-637.923"/>
<text text-anchor="middle" x="828" y="-646.11" font-family="FreeSans" font-size="10.00"> eventHandlers_</text>
</g>
<!-- Node21 -->
<g id="node51" class="node"><title>Node21</title>
<a xlink:href="a00148.html" target="_top" xlink:title="Abstract stream for reading.">
<polygon fill="none" stroke="black" points="518,-759.61 518,-780.61 634,-780.61 634,-759.61 518,-759.61"/>
<text text-anchor="middle" x="576" y="-767.61" font-family="FreeSans" font-size="10.00">Urho3D::Deserializer</text>
</a>
</g>
<!-- Node21&#45;&gt;Node3 -->
<g id="edge62" class="edge"><title>Node21&#45;&gt;Node3</title>
<path fill="none" stroke="midnightblue" d="M644.278,-759.273C691.453,-751.785 752.4,-742.11 790.857,-736.006"/>
<polygon fill="midnightblue" stroke="midnightblue" points="643.458,-755.859 634.13,-760.883 644.555,-762.772 643.458,-755.859"/>
</g>
<!-- Node22 -->
<g id="node53" class="node"><title>Node22</title>
<a xlink:href="a00310.html" target="_top" xlink:title="Abstract stream for writing.">
<polygon fill="none" stroke="black" points="524,-719.61 524,-740.61 628,-740.61 628,-719.61 524,-719.61"/>
<text text-anchor="middle" x="576" y="-727.61" font-family="FreeSans" font-size="10.00">Urho3D::Serializer</text>
</a>
</g>
<!-- Node22&#45;&gt;Node3 -->
<g id="edge64" class="edge"><title>Node22&#45;&gt;Node3</title>
<path fill="none" stroke="midnightblue" d="M638.479,-730.11C686.398,-730.11 750.918,-730.11 790.963,-730.11"/>
<polygon fill="midnightblue" stroke="midnightblue" points="638.215,-726.611 628.215,-730.11 638.215,-733.611 638.215,-726.611"/>
</g>
<!-- Node23&#45;&gt;Node3 -->
<g id="edge66" class="edge"><title>Node23&#45;&gt;Node3</title>
<path fill="none" stroke="#9a32cd" stroke-dasharray="5,2" d="M510.144,-664.596C547.654,-669.626 593.318,-676.369 634,-684.11 688.917,-694.561 751.753,-710.133 790.66,-720.206"/>
<polygon fill="#9a32cd" stroke="#9a32cd" points="510.165,-661.068 499.791,-663.223 509.244,-668.007 510.165,-661.068"/>
<text text-anchor="middle" x="576" y="-701.11" font-family="FreeSans" font-size="10.00"> inputBuffer_</text>
<text text-anchor="middle" x="576" y="-688.11" font-family="FreeSans" font-size="10.00">readBuffer_</text>
</g>
<!-- Node24 -->
<g id="node58" class="node"><title>Node24</title>
<a xlink:href="a00341.html" target="_top" xlink:title="String class.">
<polygon fill="none" stroke="black" points="532,-802.61 532,-823.61 620,-823.61 620,-802.61 532,-802.61"/>
<text text-anchor="middle" x="576" y="-810.61" font-family="FreeSans" font-size="10.00">Urho3D::String</text>
</a>
</g>
<!-- Node24&#45;&gt;Node1 -->
<g id="edge74" class="edge"><title>Node24&#45;&gt;Node1</title>
<path fill="none" stroke="#9a32cd" stroke-dasharray="5,2" d="M630.399,-810.877C749.391,-805.523 1041.54,-789.816 1284,-756.11 1312.36,-752.168 1343.85,-745.978 1368.84,-740.627"/>
<polygon fill="#9a32cd" stroke="#9a32cd" points="629.94,-807.394 620.105,-811.334 630.25,-814.387 629.94,-807.394"/>
<text text-anchor="middle" x="1036" y="-795.11" font-family="FreeSans" font-size="10.00"> name_</text>
</g>
<!-- Node24&#45;&gt;Node3 -->
<g id="edge70" class="edge"><title>Node24&#45;&gt;Node3</title>
<path fill="none" stroke="#9a32cd" stroke-dasharray="5,2" d="M617.462,-799.454C667.498,-782.974 750.55,-755.62 795.946,-740.668"/>
<polygon fill="#9a32cd" stroke="#9a32cd" points="616.319,-796.146 607.916,-802.598 618.509,-802.794 616.319,-796.146"/>
<text text-anchor="middle" x="678" y="-791.11" font-family="FreeSans" font-size="10.00"> fileName_</text>
</g>
<!-- Node24&#45;&gt;Node24 -->
<g id="edge72" class="edge"><title>Node24&#45;&gt;Node24</title>
<path fill="none" stroke="#9a32cd" stroke-dasharray="5,2" d="M557.202,-833.537C558.653,-838.459 564.918,-842.11 576,-842.11 593.73,-842.11 599.133,-832.764 592.207,-823.818"/>
<polygon fill="#9a32cd" stroke="#9a32cd" points="560.599,-834.382 559.793,-823.818 553.836,-832.579 560.599,-834.382"/>
<text text-anchor="middle" x="576" y="-846.11" font-family="FreeSans" font-size="10.00"> EMPTY</text>
</g>
<!-- Node25&#45;&gt;Node1 -->
<g id="edge76" class="edge"><title>Node25&#45;&gt;Node1</title>
<path fill="none" stroke="#9a32cd" stroke-dasharray="5,2" d="M1102.11,-34.4932C1108.49,-37.405 1114.59,-40.9047 1120,-45.1104 1232.32,-132.491 1225.52,-190.376 1284,-320.11 1352.63,-472.368 1401.28,-671.276 1412.52,-719.326"/>
<polygon fill="#9a32cd" stroke="#9a32cd" points="1103.18,-31.1504 1092.59,-30.6338 1100.54,-37.6368 1103.18,-31.1504"/>
<text text-anchor="middle" x="1211" y="-324.11" font-family="FreeSans" font-size="10.00"> receivedFragments_</text>
</g>
</g>
</svg>
