<?xml version="1.0" encoding="UTF-8" standalone="no"?>
<!DOCTYPE svg PUBLIC "-//W3C//DTD SVG 1.1//EN"
 "http://www.w3.org/Graphics/SVG/1.1/DTD/svg11.dtd">
<!-- Generated by graphviz version 2.26.3 (20100126.1600)
 -->
<!-- Title: Urho3D::UnknownComponent Pages: 1 -->
<!--zoomable 942 -->
<svg id="main" version="1.1" xmlns="http://www.w3.org/2000/svg" xmlns:xlink="http://www.w3.org/1999/xlink" xml:space="preserve" onload="init(evt)">
        <defs>
                <circle id="rim" cx="0" cy="0" r="7"/>
                <circle id="rim2" cx="0" cy="0" r="3.5"/>
                <g id="zoomPlus">
                        <use xlink:href="#rim" fill="#404040">
                                <set attributeName="fill" to="#808080" begin="zoomplus.mouseover" end="zoomplus.mouseout"/>
                        </use>
                        <path d="M-4,0h8M0,-4v8" fill="none" stroke="white" stroke-width="1.5" pointer-events="none"/>
                </g>
                <g id="zoomMin">
                        <use xlink:href="#rim" fill="#404040">
                                <set attributeName="fill" to="#808080" begin="zoomminus.mouseover" end="zoomminus.mouseout"/>
                        </use>
                        <path d="M-4,0h8" fill="none" stroke="white" stroke-width="1.5" pointer-events="none"/>
                </g>
                <g id="dirArrow">
                        <path fill="none" stroke="white" stroke-width="1.5" d="M0,-3.0v7 M-2.5,-0.5L0,-3.0L2.5,-0.5"/>
                </g>
               <g id="resetDef">
                       <use xlink:href="#rim2" fill="#404040">
                               <set attributeName="fill" to="#808080" begin="reset.mouseover" end="reset.mouseout"/>
                       </use>
               </g>
        </defs>

<script type="text/javascript">
var viewWidth = 1822;
var viewHeight = 942;
var sectionId = 'dynsection-1';
</script>
<script xlink:href="svgpan.js"/>
<svg id="graph" class="graph">
<g id="viewport">
<title>Urho3D::UnknownComponent</title>
<!-- Node1 -->
<g id="node1" class="node"><title>Node1</title>
<polygon fill="#bfbfbf" stroke="black" points="1654.5,-136.374 1654.5,-157.374 1813.5,-157.374 1813.5,-136.374 1654.5,-136.374"/>
<text text-anchor="middle" x="1734" y="-144.374" font-family="FreeSans" font-size="10.00">Urho3D::UnknownComponent</text>
</g>
<!-- Node2 -->
<g id="node2" class="node"><title>Node2</title>
<a xlink:href="a00087.html" target="_top" xlink:title="Base class for components. Components can be created to scene nodes.">
<polygon fill="none" stroke="black" points="1434,-503.374 1434,-524.374 1550,-524.374 1550,-503.374 1434,-503.374"/>
<text text-anchor="middle" x="1492" y="-511.374" font-family="FreeSans" font-size="10.00">Urho3D::Component</text>
</a>
</g>
<!-- Node2&#45;&gt;Node1 -->
<g id="edge2" class="edge"><title>Node2&#45;&gt;Node1</title>
<path fill="none" stroke="midnightblue" d="M1504.71,-494.598C1548.67,-427.934 1693.39,-208.456 1726.99,-157.505"/>
<polygon fill="midnightblue" stroke="midnightblue" points="1501.56,-493.011 1498.98,-503.287 1507.41,-496.865 1501.56,-493.011"/>
</g>
<!-- Node3 -->
<g id="node4" class="node"><title>Node3</title>
<a xlink:href="a00263.html" target="_top" xlink:title="Base class for objects with automatic serialization through attributes.">
<polygon fill="none" stroke="black" points="938,-822.374 938,-843.374 1052,-843.374 1052,-822.374 938,-822.374"/>
<text text-anchor="middle" x="995" y="-830.374" font-family="FreeSans" font-size="10.00">Urho3D::Serializable</text>
</a>
</g>
<!-- Node3&#45;&gt;Node2 -->
<g id="edge4" class="edge"><title>Node3&#45;&gt;Node2</title>
<path fill="none" stroke="midnightblue" d="M1062.44,-834.727C1106.07,-833.338 1162.93,-826.521 1208,-803.874 1347.47,-733.799 1458.2,-567.884 1485.52,-524.437"/>
<polygon fill="midnightblue" stroke="midnightblue" points="1062.13,-831.233 1052.22,-834.962 1062.29,-838.231 1062.13,-831.233"/>
</g>
<!-- Node10 -->
<g id="node18" class="node"><title>Node10</title>
<a xlink:href="a00197.html" target="_top" xlink:title="Scene node that may contain components and child nodes.">
<polygon fill="none" stroke="black" points="1226.5,-503.374 1226.5,-524.374 1311.5,-524.374 1311.5,-503.374 1226.5,-503.374"/>
<text text-anchor="middle" x="1269" y="-511.374" font-family="FreeSans" font-size="10.00">Urho3D::Node</text>
</a>
</g>
<!-- Node3&#45;&gt;Node10 -->
<g id="edge20" class="edge"><title>Node3&#45;&gt;Node10</title>
<path fill="none" stroke="midnightblue" d="M1034.78,-819.067C1046.11,-815.283 1058.5,-811.287 1070,-807.874 1130.77,-789.842 1163.7,-817.208 1208,-771.874 1243.71,-735.335 1263.36,-568.149 1267.95,-524.385"/>
<polygon fill="midnightblue" stroke="midnightblue" points="1033.5,-815.805 1025.14,-822.317 1035.74,-822.438 1033.5,-815.805"/>
</g>
<!-- Node4 -->
<g id="node6" class="node"><title>Node4</title>
<a xlink:href="a00202.html" target="_top" xlink:title="Base class for objects with type identification, subsystem access and event sending/receiving capabil...">
<polygon fill="none" stroke="red" points="590,-589.374 590,-610.374 680,-610.374 680,-589.374 590,-589.374"/>
<text text-anchor="middle" x="635" y="-597.374" font-family="FreeSans" font-size="10.00">Urho3D::Object</text>
</a>
</g>
<!-- Node4&#45;&gt;Node3 -->
<g id="edge6" class="edge"><title>Node4&#45;&gt;Node3</title>
<path fill="none" stroke="midnightblue" d="M672.591,-613.91C688.831,-619.543 708.164,-625.681 726,-629.874 768.402,-639.843 889.63,-626.65 920,-657.874 968.355,-707.589 894.691,-758.708 938,-812.874 941.078,-816.724 944.947,-819.834 949.213,-822.347"/>
<polygon fill="midnightblue" stroke="midnightblue" points="673.514,-610.524 662.92,-610.489 671.18,-617.124 673.514,-610.524"/>
</g>
<!-- Node22 -->
<g id="node57" class="node"><title>Node22</title>
<a xlink:href="a00091.html" target="_top" xlink:title="Connection to a remote network host.">
<polygon fill="none" stroke="red" points="938.5,-331.374 938.5,-352.374 1051.5,-352.374 1051.5,-331.374 938.5,-331.374"/>
<text text-anchor="middle" x="995" y="-339.374" font-family="FreeSans" font-size="10.00">Urho3D::Connection</text>
</a>
</g>
<!-- Node4&#45;&gt;Node22 -->
<g id="edge74" class="edge"><title>Node4&#45;&gt;Node22</title>
<path fill="none" stroke="midnightblue" d="M690.103,-595.087C770.698,-587.832 912.089,-574.033 920,-565.874 951.682,-533.204 910.073,-397.808 938,-361.874 940.96,-358.065 944.697,-354.979 948.836,-352.48"/>
<polygon fill="midnightblue" stroke="midnightblue" points="689.758,-591.604 680.11,-595.982 690.382,-598.576 689.758,-591.604"/>
</g>
<!-- Node5 -->
<g id="node8" class="node"><title>Node5</title>
<a xlink:href="a00143.html" target="_top" xlink:title="Hash map template class.">
<polygon fill="none" stroke="red" points="562,-810.374 562,-831.374 708,-831.374 708,-810.374 562,-810.374"/>
<text text-anchor="middle" x="635" y="-818.374" font-family="FreeSans" font-size="10.00">Urho3D::HashMap&lt; T, U &gt;</text>
</a>
</g>
<!-- Node5&#45;&gt;Node3 -->
<g id="edge8" class="edge"><title>Node5&#45;&gt;Node3</title>
<path fill="none" stroke="#9a32cd" stroke-dasharray="5,2" d="M718.442,-823.656C785.755,-825.9 878.66,-828.996 937.788,-830.967"/>
<polygon fill="#9a32cd" stroke="#9a32cd" points="718.396,-820.152 708.285,-823.317 718.163,-827.149 718.396,-820.152"/>
<text text-anchor="middle" x="823" y="-833.874" font-family="FreeSans" font-size="10.00"> instanceDefaultValues_</text>
</g>
<!-- Node6 -->
<g id="node10" class="node"><title>Node6</title>
<a xlink:href="a00195.html" target="_top" xlink:title="Per&#45;object attribute state for network replication, allocated on demand.">
<polygon fill="none" stroke="red" points="572.5,-770.374 572.5,-791.374 697.5,-791.374 697.5,-770.374 572.5,-770.374"/>
<text text-anchor="middle" x="635" y="-778.374" font-family="FreeSans" font-size="10.00">Urho3D::NetworkState</text>
</a>
</g>
<!-- Node6&#45;&gt;Node3 -->
<g id="edge10" class="edge"><title>Node6&#45;&gt;Node3</title>
<path fill="none" stroke="#9a32cd" stroke-dasharray="5,2" d="M707.819,-782.658C765.846,-785.241 848.868,-791.539 920,-806.874 922.391,-807.39 945.206,-815.333 965.05,-822.305"/>
<polygon fill="#9a32cd" stroke="#9a32cd" points="707.783,-779.154 697.646,-782.232 707.49,-786.148 707.783,-779.154"/>
<text text-anchor="middle" x="823" y="-810.874" font-family="FreeSans" font-size="10.00"> networkState_</text>
</g>
<!-- Node7 -->
<g id="node12" class="node"><title>Node7</title>
<a xlink:href="a00316.html" target="_top" xlink:title="Urho3D::Vector\&lt; Urho3D\l::AttributeInfo \&gt;">
<polygon fill="none" stroke="black" points="168,-887.874 168,-921.874 306,-921.874 306,-887.874 168,-887.874"/>
<text text-anchor="start" x="176" y="-908.874" font-family="FreeSans" font-size="10.00">Urho3D::Vector&lt; Urho3D</text>
<text text-anchor="middle" x="237" y="-895.874" font-family="FreeSans" font-size="10.00">::AttributeInfo &gt;</text>
</a>
</g>
<!-- Node7&#45;&gt;Node1 -->
<g id="edge98" class="edge"><title>Node7&#45;&gt;Node1</title>
<path fill="none" stroke="#9a32cd" stroke-dasharray="5,2" d="M316.386,-909.945C396.69,-914.631 524.417,-920.874 635,-920.874 635,-920.874 635,-920.874 1492,-920.874 1659.72,-920.874 1724.86,-250.485 1733.09,-157.521"/>
<polygon fill="#9a32cd" stroke="#9a32cd" points="316.536,-906.448 306.347,-909.353 316.124,-913.435 316.536,-906.448"/>
<text text-anchor="middle" x="1139" y="-924.874" font-family="FreeSans" font-size="10.00"> xmlAttributeInfos_</text>
</g>
<!-- Node7&#45;&gt;Node6 -->
<g id="edge12" class="edge"><title>Node7&#45;&gt;Node6</title>
<path fill="none" stroke="#9a32cd" stroke-dasharray="5,2" d="M297.709,-884.601C362.817,-863.056 469.356,-828.375 562,-800.874 572.708,-797.696 584.353,-794.423 595.132,-791.469"/>
<polygon fill="#9a32cd" stroke="#9a32cd" points="296.408,-881.344 288.017,-887.812 298.61,-887.989 296.408,-881.344"/>
<text text-anchor="middle" x="442" y="-872.874" font-family="FreeSans" font-size="10.00"> attributes_</text>
</g>
<!-- Node8 -->
<g id="node14" class="node"><title>Node8</title>
<a xlink:href="a00320.html" target="_top" xlink:title="Vector base class.">
<polygon fill="none" stroke="black" points="0,-628.374 0,-649.374 114,-649.374 114,-628.374 0,-628.374"/>
<text text-anchor="middle" x="57" y="-636.374" font-family="FreeSans" font-size="10.00">Urho3D::VectorBase</text>
</a>
</g>
<!-- Node8&#45;&gt;Node7 -->
<g id="edge14" class="edge"><title>Node8&#45;&gt;Node7</title>
<path fill="none" stroke="midnightblue" d="M61.0139,-659.513C71.4156,-710.999 100.629,-843.182 132,-873.874 141.918,-883.578 154.717,-890.268 167.949,-894.874"/>
<polygon fill="midnightblue" stroke="midnightblue" points="64.417,-658.68 59.0347,-649.555 57.5513,-660.045 64.417,-658.68"/>
</g>
<!-- Node11 -->
<g id="node21" class="node"><title>Node11</title>
<a xlink:href="a00223.html" target="_top" xlink:title="Urho3D::PODVector\&lt;\l Urho3D::Node * \&gt;">
<polygon fill="none" stroke="black" points="382.5,-577.874 382.5,-611.874 501.5,-611.874 501.5,-577.874 382.5,-577.874"/>
<text text-anchor="start" x="390.5" y="-598.874" font-family="FreeSans" font-size="10.00">Urho3D::PODVector&lt;</text>
<text text-anchor="middle" x="442" y="-585.874" font-family="FreeSans" font-size="10.00"> Urho3D::Node * &gt;</text>
</a>
</g>
<!-- Node8&#45;&gt;Node11 -->
<g id="edge24" class="edge"><title>Node8&#45;&gt;Node11</title>
<path fill="none" stroke="midnightblue" d="M120.143,-626.676C124.149,-626.03 128.127,-625.422 132,-624.874 218.732,-612.607 319.834,-603.852 382.387,-599.077"/>
<polygon fill="midnightblue" stroke="midnightblue" points="119.45,-623.244 110.168,-628.351 120.61,-630.147 119.45,-623.244"/>
</g>
<!-- Node15 -->
<g id="node34" class="node"><title>Node15</title>
<a xlink:href="a00316.html" target="_top" xlink:title="Urho3D::Vector\&lt; Urho3D\l::WeakPtr\&lt; Urho3D::Component \&gt; \&gt;">
<polygon fill="none" stroke="black" points="726,-852.874 726,-886.874 920,-886.874 920,-852.874 726,-852.874"/>
<text text-anchor="start" x="734" y="-873.874" font-family="FreeSans" font-size="10.00">Urho3D::Vector&lt; Urho3D</text>
<text text-anchor="middle" x="823" y="-860.874" font-family="FreeSans" font-size="10.00">::WeakPtr&lt; Urho3D::Component &gt; &gt;</text>
</a>
</g>
<!-- Node8&#45;&gt;Node15 -->
<g id="edge42" class="edge"><title>Node8&#45;&gt;Node15</title>
<path fill="none" stroke="midnightblue" d="M86.5363,-654.003C162.896,-692.37 374.028,-793.761 562,-840.874 615.289,-854.231 676.239,-861.439 725.831,-865.327"/>
<polygon fill="midnightblue" stroke="midnightblue" points="87.9947,-650.818 77.4905,-649.435 84.8393,-657.067 87.9947,-650.818"/>
</g>
<!-- Node17 -->
<g id="node39" class="node"><title>Node17</title>
<a xlink:href="a00223.html" target="_top" xlink:title="Urho3D::PODVector\&lt;\l unsigned char \&gt;">
<polygon fill="none" stroke="black" points="177.5,-79.8744 177.5,-113.874 296.5,-113.874 296.5,-79.8744 177.5,-79.8744"/>
<text text-anchor="start" x="185.5" y="-100.874" font-family="FreeSans" font-size="10.00">Urho3D::PODVector&lt;</text>
<text text-anchor="middle" x="237" y="-87.8744" font-family="FreeSans" font-size="10.00"> unsigned char &gt;</text>
</a>
</g>
<!-- Node8&#45;&gt;Node17 -->
<g id="edge48" class="edge"><title>Node8&#45;&gt;Node17</title>
<path fill="none" stroke="midnightblue" d="M63.7485,-618.554C92.5233,-531.91 204.703,-194.124 231.315,-113.992"/>
<polygon fill="midnightblue" stroke="midnightblue" points="60.4258,-617.454 60.5956,-628.048 67.069,-619.661 60.4258,-617.454"/>
</g>
<!-- Node18 -->
<g id="node42" class="node"><title>Node18</title>
<a xlink:href="a00316.html" target="_top" xlink:title="Urho3D::Vector\&lt; Urho3D\l::SharedPtr\&lt; Urho3D::Component \&gt; \&gt;">
<polygon fill="none" stroke="black" points="340.5,-659.874 340.5,-693.874 543.5,-693.874 543.5,-659.874 340.5,-659.874"/>
<text text-anchor="start" x="348.5" y="-680.874" font-family="FreeSans" font-size="10.00">Urho3D::Vector&lt; Urho3D</text>
<text text-anchor="middle" x="442" y="-667.874" font-family="FreeSans" font-size="10.00">::SharedPtr&lt; Urho3D::Component &gt; &gt;</text>
</a>
</g>
<!-- Node8&#45;&gt;Node18 -->
<g id="edge52" class="edge"><title>Node8&#45;&gt;Node18</title>
<path fill="none" stroke="midnightblue" d="M119.329,-651.034C123.609,-651.707 127.863,-652.33 132,-652.874 201.307,-661.999 279.822,-668.034 340.493,-671.769"/>
<polygon fill="midnightblue" stroke="midnightblue" points="119.774,-647.56 109.338,-649.385 118.634,-654.467 119.774,-647.56"/>
</g>
<!-- Node21 -->
<g id="node53" class="node"><title>Node21</title>
<a xlink:href="a00316.html" target="_top" xlink:title="Urho3D::Vector\&lt; Urho3D\l::SharedPtr\&lt; Urho3D::Node \&gt; \&gt;">
<polygon fill="none" stroke="black" points="736.5,-594.874 736.5,-628.874 909.5,-628.874 909.5,-594.874 736.5,-594.874"/>
<text text-anchor="start" x="744.5" y="-615.874" font-family="FreeSans" font-size="10.00">Urho3D::Vector&lt; Urho3D</text>
<text text-anchor="middle" x="823" y="-602.874" font-family="FreeSans" font-size="10.00">::SharedPtr&lt; Urho3D::Node &gt; &gt;</text>
</a>
</g>
<!-- Node8&#45;&gt;Node21 -->
<g id="edge68" class="edge"><title>Node8&#45;&gt;Node21</title>
<path fill="none" stroke="midnightblue" d="M124.401,-637.802C242.624,-635.72 495.057,-630.384 708,-619.874 717.195,-619.421 726.799,-618.872 736.367,-618.276"/>
<polygon fill="midnightblue" stroke="midnightblue" points="124.005,-634.308 114.068,-637.981 124.127,-641.307 124.005,-634.308"/>
</g>
<!-- Node25 -->
<g id="node71" class="node"><title>Node25</title>
<a xlink:href="a00316.html" target="_top" xlink:title="Urho3D::Vector\&lt; Urho3D\l::String \&gt;">
<polygon fill="none" stroke="black" points="1070,-5.87441 1070,-39.8744 1208,-39.8744 1208,-5.87441 1070,-5.87441"/>
<text text-anchor="start" x="1078" y="-26.8744" font-family="FreeSans" font-size="10.00">Urho3D::Vector&lt; Urho3D</text>
<text text-anchor="middle" x="1139" y="-13.8744" font-family="FreeSans" font-size="10.00">::String &gt;</text>
</a>
</g>
<!-- Node8&#45;&gt;Node25 -->
<g id="edge96" class="edge"><title>Node8&#45;&gt;Node25</title>
<path fill="none" stroke="midnightblue" d="M58.0885,-618.076C63.2184,-526.784 87.4889,-162.063 152,-70.8744 176.931,-35.6333 193.832,-23.8744 237,-23.8744 237,-23.8744 237,-23.8744 823,-23.8744 908.035,-23.8744 1005.94,-23.5078 1069.96,-23.2186"/>
<polygon fill="midnightblue" stroke="midnightblue" points="54.5837,-618.071 57.5337,-628.246 61.5733,-618.452 54.5837,-618.071"/>
</g>
<!-- Node9 -->
<g id="node16" class="node"><title>Node9</title>
<a xlink:href="a00143.html" target="_top" xlink:title="Urho3D::HashMap\&lt; ShortString\lHash, Variant \&gt;">
<polygon fill="none" stroke="red" points="152,-403.874 152,-437.874 322,-437.874 322,-403.874 152,-403.874"/>
<text text-anchor="start" x="160" y="-424.874" font-family="FreeSans" font-size="10.00">Urho3D::HashMap&lt; ShortString</text>
<text text-anchor="middle" x="237" y="-411.874" font-family="FreeSans" font-size="10.00">Hash, Variant &gt;</text>
</a>
</g>
<!-- Node9&#45;&gt;Node6 -->
<g id="edge16" class="edge"><title>Node9&#45;&gt;Node6</title>
<path fill="none" stroke="#9a32cd" stroke-dasharray="5,2" d="M252.023,-446.851C269.39,-474.186 300.692,-515.954 340,-535.874 380.631,-556.465 509.078,-526.628 544,-555.874 566.653,-574.846 551.87,-592.117 562,-619.874 583.254,-678.112 616.418,-744.685 629.463,-770.179"/>
<polygon fill="#9a32cd" stroke="#9a32cd" points="254.907,-444.858 246.677,-438.186 248.95,-448.534 254.907,-444.858"/>
<text text-anchor="middle" x="442" y="-559.874" font-family="FreeSans" font-size="10.00"> previousVars_</text>
</g>
<!-- Node9&#45;&gt;Node10 -->
<g id="edge70" class="edge"><title>Node9&#45;&gt;Node10</title>
<path fill="none" stroke="#9a32cd" stroke-dasharray="5,2" d="M297.673,-440.958C362.33,-461.271 468.106,-491.399 562,-503.874 811.76,-537.059 1115.5,-523.46 1226.11,-516.764"/>
<polygon fill="#9a32cd" stroke="#9a32cd" points="298.638,-437.593 288.048,-437.911 296.525,-444.266 298.638,-437.593"/>
<text text-anchor="middle" x="823" y="-528.874" font-family="FreeSans" font-size="10.00"> vars_</text>
</g>
<!-- Node12 -->
<g id="node24" class="node"><title>Node12</title>
<a xlink:href="a00251.html" target="_top" xlink:title="Root scene node, represents the whole scene.">
<polygon fill="none" stroke="red" points="1447.5,-276.374 1447.5,-297.374 1536.5,-297.374 1536.5,-276.374 1447.5,-276.374"/>
<text text-anchor="middle" x="1492" y="-284.374" font-family="FreeSans" font-size="10.00">Urho3D::Scene</text>
</a>
</g>
<!-- Node9&#45;&gt;Node12 -->
<g id="edge34" class="edge"><title>Node9&#45;&gt;Node12</title>
<path fill="none" stroke="#9a32cd" stroke-dasharray="5,2" d="M253.74,-395.163C302.862,-323.181 454.563,-124.874 635,-124.874 635,-124.874 635,-124.874 1139,-124.874 1217.82,-124.874 1239.73,-132.414 1312,-163.874 1381.41,-194.089 1452.23,-252.167 1479.89,-276.13"/>
<polygon fill="#9a32cd" stroke="#9a32cd" points="250.688,-393.431 248.006,-403.681 256.494,-397.34 250.688,-393.431"/>
<text text-anchor="middle" x="995" y="-128.874" font-family="FreeSans" font-size="10.00"> smoothingData_</text>
</g>
<!-- Node9&#45;&gt;Node22 -->
<g id="edge82" class="edge"><title>Node9&#45;&gt;Node22</title>
<path fill="none" stroke="#9a32cd" stroke-dasharray="5,2" d="M291.622,-400.392C355.411,-377.658 464.626,-342.391 562,-328.874 626.273,-319.953 644.847,-313.966 708,-328.874 716.705,-330.929 717.311,-335.755 726,-337.874 797.694,-355.363 883.358,-352.788 938.439,-348.253"/>
<polygon fill="#9a32cd" stroke="#9a32cd" points="290.393,-397.115 282.165,-403.789 292.759,-403.702 290.393,-397.115"/>
<text text-anchor="middle" x="635" y="-332.874" font-family="FreeSans" font-size="10.00"> identity_</text>
</g>
<!-- Node10&#45;&gt;Node2 -->
<g id="edge18" class="edge"><title>Node10&#45;&gt;Node2</title>
<path fill="none" stroke="#9a32cd" stroke-dasharray="5,2" d="M1321.84,-513.874C1355.51,-513.874 1399.16,-513.874 1433.82,-513.874"/>
<polygon fill="#9a32cd" stroke="#9a32cd" points="1321.73,-510.375 1311.73,-513.874 1321.73,-517.375 1321.73,-510.375"/>
<text text-anchor="middle" x="1367" y="-517.874" font-family="FreeSans" font-size="10.00"> node_</text>
</g>
<!-- Node10&#45;&gt;Node10 -->
<g id="edge60" class="edge"><title>Node10&#45;&gt;Node10</title>
<path fill="none" stroke="#9a32cd" stroke-dasharray="5,2" d="M1250.94,-534.301C1252.33,-539.223 1258.35,-542.874 1269,-542.874 1286.04,-542.874 1291.23,-533.528 1284.57,-524.582"/>
<polygon fill="#9a32cd" stroke="#9a32cd" points="1254.34,-535.138 1253.43,-524.582 1247.56,-533.401 1254.34,-535.138"/>
<text text-anchor="middle" x="1269" y="-546.874" font-family="FreeSans" font-size="10.00"> parent_</text>
</g>
<!-- Node10&#45;&gt;Node12 -->
<g id="edge28" class="edge"><title>Node10&#45;&gt;Node12</title>
<path fill="none" stroke="midnightblue" d="M1296.31,-497.985C1325.19,-480.331 1371.05,-449.807 1404,-415.874 1441.59,-377.172 1473.91,-320.69 1486.44,-297.456"/>
<polygon fill="midnightblue" stroke="midnightblue" points="1294.33,-495.093 1287.57,-503.252 1297.94,-501.089 1294.33,-495.093"/>
</g>
<!-- Node11&#45;&gt;Node10 -->
<g id="edge22" class="edge"><title>Node11&#45;&gt;Node10</title>
<path fill="none" stroke="#9a32cd" stroke-dasharray="5,2" d="M511.839,-585.618C528.276,-583.585 545.742,-581.544 562,-579.874 848.533,-550.448 923.323,-571.762 1208,-527.874 1214.12,-526.931 1220.54,-525.713 1226.82,-524.391"/>
<polygon fill="#9a32cd" stroke="#9a32cd" points="511.247,-582.164 501.758,-586.879 512.116,-589.11 511.247,-582.164"/>
<text text-anchor="middle" x="823" y="-569.874" font-family="FreeSans" font-size="10.00"> dependencyNodes_</text>
</g>
<!-- Node12&#45;&gt;Node10 -->
<g id="edge26" class="edge"><title>Node12&#45;&gt;Node10</title>
<path fill="none" stroke="#9a32cd" stroke-dasharray="5,2" d="M1462.83,-302.364C1427.86,-322.05 1369.1,-358.822 1330,-402.874 1301.68,-434.778 1281.25,-482.073 1273.02,-503.11"/>
<polygon fill="#9a32cd" stroke="#9a32cd" points="1464.55,-305.411 1471.6,-297.503 1461.16,-299.288 1464.55,-305.411"/>
<text text-anchor="middle" x="1367" y="-406.874" font-family="FreeSans" font-size="10.00"> scene_</text>
</g>
<!-- Node13 -->
<g id="node27" class="node"><title>Node13</title>
<a xlink:href="a00290.html" target="_top" xlink:title="String class.">
<polygon fill="none" stroke="black" points="591,-191.374 591,-212.374 679,-212.374 679,-191.374 591,-191.374"/>
<text text-anchor="middle" x="635" y="-199.374" font-family="FreeSans" font-size="10.00">Urho3D::String</text>
</a>
</g>
<!-- Node13&#45;&gt;Node1 -->
<g id="edge100" class="edge"><title>Node13&#45;&gt;Node1</title>
<path fill="none" stroke="#9a32cd" stroke-dasharray="5,2" d="M689.342,-199.155C868.66,-190.181 1442.19,-161.478 1654.22,-150.867"/>
<polygon fill="#9a32cd" stroke="#9a32cd" points="688.914,-195.672 679.101,-199.667 689.264,-202.663 688.914,-195.672"/>
<text text-anchor="middle" x="1269" y="-175.874" font-family="FreeSans" font-size="10.00"> typeName_</text>
</g>
<!-- Node13&#45;&gt;Node10 -->
<g id="edge58" class="edge"><title>Node13&#45;&gt;Node10</title>
<path fill="none" stroke="#9a32cd" stroke-dasharray="5,2" d="M689.363,-210.323C701.422,-212.173 714.143,-214.107 726,-215.874 833.613,-231.918 1128,-228.135 1208,-301.874 1238.7,-330.167 1261.35,-464.007 1267.4,-503.118"/>
<polygon fill="#9a32cd" stroke="#9a32cd" points="689.837,-206.854 679.421,-208.793 688.773,-213.773 689.837,-206.854"/>
<text text-anchor="middle" x="995" y="-249.874" font-family="FreeSans" font-size="10.00"> name_</text>
</g>
<!-- Node13&#45;&gt;Node12 -->
<g id="edge30" class="edge"><title>Node13&#45;&gt;Node12</title>
<path fill="none" stroke="#9a32cd" stroke-dasharray="5,2" d="M689.073,-202.392C790.962,-203.901 1018.21,-209.802 1208,-232.874 1293.2,-243.231 1391.29,-263.846 1447.04,-276.393"/>
<polygon fill="#9a32cd" stroke="#9a32cd" points="689.074,-198.892 679.026,-202.252 688.976,-205.891 689.074,-198.892"/>
<text text-anchor="middle" x="1139" y="-236.874" font-family="FreeSans" font-size="10.00"> fileName_</text>
</g>
<!-- Node13&#45;&gt;Node13 -->
<g id="edge32" class="edge"><title>Node13&#45;&gt;Node13</title>
<path fill="none" stroke="#9a32cd" stroke-dasharray="5,2" d="M599.902,-221.173C601.344,-226.655 613.043,-230.874 635,-230.874 667.68,-230.874 677.637,-221.528 664.871,-212.582"/>
<polygon fill="#9a32cd" stroke="#9a32cd" points="602.921,-222.945 605.129,-212.582 596.941,-219.306 602.921,-222.945"/>
<text text-anchor="middle" x="635" y="-234.874" font-family="FreeSans" font-size="10.00"> EMPTY</text>
</g>
<!-- Node13&#45;&gt;Node22 -->
<g id="edge80" class="edge"><title>Node13&#45;&gt;Node22</title>
<path fill="none" stroke="#9a32cd" stroke-dasharray="5,2" d="M665.747,-216.711C683.135,-224.676 705.447,-234.201 726,-240.874 810.09,-268.179 849.123,-232.024 920,-284.874 933.081,-294.629 925.904,-305.921 938,-316.874 944.648,-322.895 952.977,-327.639 961.198,-331.302"/>
<polygon fill="#9a32cd" stroke="#9a32cd" points="667.18,-213.517 656.637,-212.473 664.228,-219.864 667.18,-213.517"/>
<text text-anchor="middle" x="823" y="-288.874" font-family="FreeSans" font-size="10.00"> sceneFileName_</text>
</g>
<!-- Node14 -->
<g id="node31" class="node"><title>Node14</title>
<a xlink:href="a00228.html" target="_top" xlink:title="Rotation represented as a four&#45;dimensional normalized vector.">
<polygon fill="none" stroke="black" points="938.5,-371.374 938.5,-392.374 1051.5,-392.374 1051.5,-371.374 938.5,-371.374"/>
<text text-anchor="middle" x="995" y="-379.374" font-family="FreeSans" font-size="10.00">Urho3D::Quaternion</text>
</a>
</g>
<!-- Node14&#45;&gt;Node10 -->
<g id="edge36" class="edge"><title>Node14&#45;&gt;Node10</title>
<path fill="none" stroke="#9a32cd" stroke-dasharray="5,2" d="M1061.74,-380.394C1106.48,-382.439 1164.88,-391.261 1208,-419.874 1239.29,-440.635 1258.07,-483.52 1265.42,-503.37"/>
<polygon fill="#9a32cd" stroke="#9a32cd" points="1061.66,-376.889 1051.55,-380.033 1061.42,-383.885 1061.66,-376.889"/>
<text text-anchor="middle" x="1139" y="-436.874" font-family="FreeSans" font-size="10.00"> worldRotation_</text>
<text text-anchor="middle" x="1139" y="-423.874" font-family="FreeSans" font-size="10.00">rotation_</text>
</g>
<!-- Node14&#45;&gt;Node14 -->
<g id="edge38" class="edge"><title>Node14&#45;&gt;Node14</title>
<path fill="none" stroke="#9a32cd" stroke-dasharray="5,2" d="M968.322,-401.93C970.072,-407.038 978.964,-410.874 995,-410.874 1020.03,-410.874 1027.66,-401.528 1017.88,-392.582"/>
<polygon fill="#9a32cd" stroke="#9a32cd" points="971.598,-403.164 972.12,-392.582 965.113,-400.529 971.598,-403.164"/>
<text text-anchor="middle" x="995" y="-414.874" font-family="FreeSans" font-size="10.00"> IDENTITY</text>
</g>
<!-- Node15&#45;&gt;Node10 -->
<g id="edge40" class="edge"><title>Node15&#45;&gt;Node10</title>
<path fill="none" stroke="#9a32cd" stroke-dasharray="5,2" d="M930.407,-884.001C1018.49,-888.976 1139.44,-879.434 1208,-803.874 1246.64,-761.296 1264.3,-572.022 1268.17,-524.651"/>
<polygon fill="#9a32cd" stroke="#9a32cd" points="930.576,-880.505 920.375,-883.364 930.133,-887.49 930.576,-880.505"/>
<text text-anchor="middle" x="995" y="-888.874" font-family="FreeSans" font-size="10.00"> listeners_</text>
</g>
<!-- Node16 -->
<g id="node37" class="node"><title>Node16</title>
<a xlink:href="a00321.html" target="_top" xlink:title="Dynamically sized buffer that can be read and written to as a stream.">
<polygon fill="none" stroke="red" points="575.5,-262.374 575.5,-283.374 694.5,-283.374 694.5,-262.374 575.5,-262.374"/>
<text text-anchor="middle" x="635" y="-270.374" font-family="FreeSans" font-size="10.00">Urho3D::VectorBuffer</text>
</a>
</g>
<!-- Node16&#45;&gt;Node10 -->
<g id="edge44" class="edge"><title>Node16&#45;&gt;Node10</title>
<path fill="none" stroke="#9a32cd" stroke-dasharray="5,2" d="M705.039,-277.396C853.684,-287.276 1188.77,-311.158 1208,-326.874 1236.56,-350.213 1260.35,-467.296 1267.09,-503.314"/>
<polygon fill="#9a32cd" stroke="#9a32cd" points="704.875,-273.878 694.666,-276.709 704.412,-280.863 704.875,-273.878"/>
<text text-anchor="middle" x="995" y="-307.874" font-family="FreeSans" font-size="10.00"> attrBuffer_</text>
</g>
<!-- Node16&#45;&gt;Node22 -->
<g id="edge76" class="edge"><title>Node16&#45;&gt;Node22</title>
<path fill="none" stroke="#9a32cd" stroke-dasharray="5,2" d="M672.945,-286.749C689.107,-292.191 708.285,-298.038 726,-301.874 810.859,-320.251 834.432,-310.146 920,-324.874 930.395,-326.664 941.516,-328.967 951.926,-331.298"/>
<polygon fill="#9a32cd" stroke="#9a32cd" points="673.906,-283.378 663.311,-283.434 671.629,-289.997 673.906,-283.378"/>
<text text-anchor="middle" x="823" y="-328.874" font-family="FreeSans" font-size="10.00"> msg_</text>
</g>
<!-- Node17&#45;&gt;Node1 -->
<g id="edge92" class="edge"><title>Node17&#45;&gt;Node1</title>
<path fill="none" stroke="#9a32cd" stroke-dasharray="5,2" d="M306.894,-87.2739C386.253,-77.2194 519.684,-62.8744 635,-62.8744 635,-62.8744 635,-62.8744 1492,-62.8744 1580.5,-62.8744 1677.64,-113.633 1716.51,-136.236"/>
<polygon fill="#9a32cd" stroke="#9a32cd" points="306.012,-83.8581 296.538,-88.6006 306.902,-90.8014 306.012,-83.8581"/>
<text text-anchor="middle" x="1139" y="-66.8744" font-family="FreeSans" font-size="10.00"> binaryAttributes_</text>
</g>
<!-- Node17&#45;&gt;Node16 -->
<g id="edge46" class="edge"><title>Node17&#45;&gt;Node16</title>
<path fill="none" stroke="#9a32cd" stroke-dasharray="5,2" d="M276.817,-118.884C337.095,-151.531 455.762,-213.193 562,-252.874 571.356,-256.369 581.59,-259.551 591.357,-262.299"/>
<polygon fill="#9a32cd" stroke="#9a32cd" points="278.462,-115.795 268.005,-114.093 275.118,-121.945 278.462,-115.795"/>
<text text-anchor="middle" x="442" y="-249.874" font-family="FreeSans" font-size="10.00"> buffer_</text>
</g>
<!-- Node18&#45;&gt;Node10 -->
<g id="edge50" class="edge"><title>Node18&#45;&gt;Node10</title>
<path fill="none" stroke="#9a32cd" stroke-dasharray="5,2" d="M553.814,-670.983C676.533,-663.543 879.105,-648.396 1052,-621.874 1121.71,-611.182 1147.82,-629.647 1208,-592.874 1235.5,-576.068 1255.24,-541.98 1263.98,-524.595"/>
<polygon fill="#9a32cd" stroke="#9a32cd" points="553.428,-667.5 543.656,-671.592 553.848,-674.487 553.428,-667.5"/>
<text text-anchor="middle" x="823" y="-661.874" font-family="FreeSans" font-size="10.00"> components_</text>
</g>
<!-- Node19 -->
<g id="node45" class="node"><title>Node19</title>
<a xlink:href="a00318.html" target="_top" xlink:title="Three&#45;dimensional vector.">
<polygon fill="none" stroke="black" points="587,-351.374 587,-372.374 683,-372.374 683,-351.374 587,-351.374"/>
<text text-anchor="middle" x="635" y="-359.374" font-family="FreeSans" font-size="10.00">Urho3D::Vector3</text>
</a>
</g>
<!-- Node19&#45;&gt;Node10 -->
<g id="edge54" class="edge"><title>Node19&#45;&gt;Node10</title>
<path fill="none" stroke="#9a32cd" stroke-dasharray="5,2" d="M682.081,-375.179C696.176,-379.062 711.689,-383.237 726,-386.874 775.085,-399.352 1106.71,-476.282 1226.2,-503.964"/>
<polygon fill="#9a32cd" stroke="#9a32cd" points="682.677,-371.712 672.106,-372.415 680.808,-378.458 682.677,-371.712"/>
<text text-anchor="middle" x="995" y="-478.874" font-family="FreeSans" font-size="10.00"> scale_</text>
<text text-anchor="middle" x="995" y="-465.874" font-family="FreeSans" font-size="10.00">position_</text>
</g>
<!-- Node19&#45;&gt;Node19 -->
<g id="edge56" class="edge"><title>Node19&#45;&gt;Node19</title>
<path fill="none" stroke="#9a32cd" stroke-dasharray="5,2" d="M599.902,-381.173C601.344,-386.655 613.043,-390.874 635,-390.874 667.68,-390.874 677.637,-381.528 664.871,-372.582"/>
<polygon fill="#9a32cd" stroke="#9a32cd" points="602.921,-382.945 605.129,-372.582 596.941,-379.306 602.921,-382.945"/>
<text text-anchor="middle" x="635" y="-485.874" font-family="FreeSans" font-size="10.00"> ONE</text>
<text text-anchor="middle" x="635" y="-472.874" font-family="FreeSans" font-size="10.00">DOWN</text>
<text text-anchor="middle" x="635" y="-459.874" font-family="FreeSans" font-size="10.00">BACK</text>
<text text-anchor="middle" x="635" y="-446.874" font-family="FreeSans" font-size="10.00">RIGHT</text>
<text text-anchor="middle" x="635" y="-433.874" font-family="FreeSans" font-size="10.00">LEFT</text>
<text text-anchor="middle" x="635" y="-420.874" font-family="FreeSans" font-size="10.00">ZERO</text>
<text text-anchor="middle" x="635" y="-407.874" font-family="FreeSans" font-size="10.00">FORWARD</text>
<text text-anchor="middle" x="635" y="-394.874" font-family="FreeSans" font-size="10.00">UP</text>
</g>
<!-- Node19&#45;&gt;Node22 -->
<g id="edge78" class="edge"><title>Node19&#45;&gt;Node22</title>
<path fill="none" stroke="#9a32cd" stroke-dasharray="5,2" d="M693.223,-366.811C751.045,-370.603 842.081,-373.577 920,-362.874 935.003,-360.814 951.234,-356.536 964.747,-352.377"/>
<polygon fill="#9a32cd" stroke="#9a32cd" points="693.393,-363.314 683.177,-366.121 692.914,-370.298 693.393,-363.314"/>
<text text-anchor="middle" x="823" y="-373.874" font-family="FreeSans" font-size="10.00"> position_</text>
</g>
<!-- Node20 -->
<g id="node50" class="node"><title>Node20</title>
<a xlink:href="a00291.html" target="_top" xlink:title="32&#45;bit hash value for a string.">
<polygon fill="none" stroke="black" points="938.5,-751.374 938.5,-772.374 1051.5,-772.374 1051.5,-751.374 938.5,-751.374"/>
<text text-anchor="middle" x="995" y="-759.374" font-family="FreeSans" font-size="10.00">Urho3D::StringHash</text>
</a>
</g>
<!-- Node20&#45;&gt;Node10 -->
<g id="edge62" class="edge"><title>Node20&#45;&gt;Node10</title>
<path fill="none" stroke="#9a32cd" stroke-dasharray="5,2" d="M1061.55,-759.538C1108.18,-754.444 1168.91,-740.358 1208,-702.874 1234.88,-677.102 1259.83,-560.269 1266.97,-524.388"/>
<polygon fill="#9a32cd" stroke="#9a32cd" points="1061.14,-756.062 1051.53,-760.52 1061.82,-763.028 1061.14,-756.062"/>
<text text-anchor="middle" x="1139" y="-760.874" font-family="FreeSans" font-size="10.00"> nameHash_</text>
</g>
<!-- Node20&#45;&gt;Node20 -->
<g id="edge64" class="edge"><title>Node20&#45;&gt;Node20</title>
<path fill="none" stroke="#9a32cd" stroke-dasharray="5,2" d="M968.322,-781.93C970.072,-787.038 978.964,-790.874 995,-790.874 1020.03,-790.874 1027.66,-781.528 1017.88,-772.582"/>
<polygon fill="#9a32cd" stroke="#9a32cd" points="971.598,-783.164 972.12,-772.582 965.113,-780.529 971.598,-783.164"/>
<text text-anchor="middle" x="995" y="-794.874" font-family="FreeSans" font-size="10.00"> ZERO</text>
</g>
<!-- Node21&#45;&gt;Node10 -->
<g id="edge66" class="edge"><title>Node21&#45;&gt;Node10</title>
<path fill="none" stroke="#9a32cd" stroke-dasharray="5,2" d="M919.938,-606.693C1016.69,-600.385 1157.97,-587.765 1208,-565.874 1229.42,-556.504 1249,-537.037 1259.92,-524.762"/>
<polygon fill="#9a32cd" stroke="#9a32cd" points="919.595,-603.208 909.839,-607.339 920.042,-610.194 919.595,-603.208"/>
<text text-anchor="middle" x="995" y="-608.874" font-family="FreeSans" font-size="10.00"> children_</text>
</g>
<!-- Node22&#45;&gt;Node10 -->
<g id="edge72" class="edge"><title>Node22&#45;&gt;Node10</title>
<path fill="none" stroke="#9a32cd" stroke-dasharray="5,2" d="M1061.92,-332.024C1107.43,-329.04 1166.67,-332.863 1208,-363.874 1254.55,-398.801 1265.7,-475.318 1268.27,-503.331"/>
<polygon fill="#9a32cd" stroke="#9a32cd" points="1061.54,-328.543 1051.84,-332.81 1062.08,-335.522 1061.54,-328.543"/>
<text text-anchor="middle" x="1139" y="-367.874" font-family="FreeSans" font-size="10.00"> owner_</text>
</g>
<!-- Node23 -->
<g id="node64" class="node"><title>Node23</title>
<a xlink:href="a00180.html" target="_top" xlink:title="3x4 matrix for scene node transform calculations.">
<polygon fill="none" stroke="black" points="942,-667.374 942,-688.374 1048,-688.374 1048,-667.374 942,-667.374"/>
<text text-anchor="middle" x="995" y="-675.374" font-family="FreeSans" font-size="10.00">Urho3D::Matrix3x4</text>
</a>
</g>
<!-- Node23&#45;&gt;Node10 -->
<g id="edge84" class="edge"><title>Node23&#45;&gt;Node10</title>
<path fill="none" stroke="#9a32cd" stroke-dasharray="5,2" d="M1058.13,-686.089C1104.01,-688.617 1165.29,-684.48 1208,-652.874 1251.43,-620.739 1264.42,-550.937 1267.87,-524.4"/>
<polygon fill="#9a32cd" stroke="#9a32cd" points="1058.21,-682.587 1048,-685.41 1057.74,-689.571 1058.21,-682.587"/>
<text text-anchor="middle" x="1139" y="-689.874" font-family="FreeSans" font-size="10.00"> worldTransform_</text>
</g>
<!-- Node23&#45;&gt;Node23 -->
<g id="edge86" class="edge"><title>Node23&#45;&gt;Node23</title>
<path fill="none" stroke="#9a32cd" stroke-dasharray="5,2" d="M968.322,-697.93C970.072,-703.038 978.964,-706.874 995,-706.874 1020.03,-706.874 1027.66,-697.528 1017.88,-688.582"/>
<polygon fill="#9a32cd" stroke="#9a32cd" points="971.598,-699.164 972.12,-688.582 965.113,-696.529 971.598,-699.164"/>
<text text-anchor="middle" x="995" y="-723.874" font-family="FreeSans" font-size="10.00"> IDENTITY</text>
<text text-anchor="middle" x="995" y="-710.874" font-family="FreeSans" font-size="10.00">ZERO</text>
</g>
<!-- Node24 -->
<g id="node67" class="node"><title>Node24</title>
<a xlink:href="a00273.html" target="_top" xlink:title="16&#45;bit hash value for a string.">
<polygon fill="none" stroke="black" points="1422.5,-91.3744 1422.5,-112.374 1561.5,-112.374 1561.5,-91.3744 1422.5,-91.3744"/>
<text text-anchor="middle" x="1492" y="-99.3744" font-family="FreeSans" font-size="10.00">Urho3D::ShortStringHash</text>
</a>
</g>
<!-- Node24&#45;&gt;Node1 -->
<g id="edge88" class="edge"><title>Node24&#45;&gt;Node1</title>
<path fill="none" stroke="#9a32cd" stroke-dasharray="5,2" d="M1558.97,-114.328C1596.12,-121.235 1641.81,-129.732 1677.2,-136.312"/>
<polygon fill="#9a32cd" stroke="#9a32cd" points="1559.21,-110.812 1548.74,-112.425 1557.93,-117.694 1559.21,-110.812"/>
<text text-anchor="middle" x="1608" y="-131.874" font-family="FreeSans" font-size="10.00"> typeHash_</text>
</g>
<!-- Node24&#45;&gt;Node24 -->
<g id="edge90" class="edge"><title>Node24&#45;&gt;Node24</title>
<path fill="none" stroke="#9a32cd" stroke-dasharray="5,2" d="M1470.62,-122.301C1472.27,-127.223 1479.4,-130.874 1492,-130.874 1512.16,-130.874 1518.31,-121.528 1510.43,-112.582"/>
<polygon fill="#9a32cd" stroke="#9a32cd" points="1474.02,-123.168 1473.57,-112.582 1467.32,-121.137 1474.02,-123.168"/>
<text text-anchor="middle" x="1492" y="-134.874" font-family="FreeSans" font-size="10.00"> ZERO</text>
</g>
<!-- Node25&#45;&gt;Node1 -->
<g id="edge94" class="edge"><title>Node25&#45;&gt;Node1</title>
<path fill="none" stroke="#9a32cd" stroke-dasharray="5,2" d="M1218.3,-10.1162C1319.94,2.5495 1499.32,12.2753 1636,-48.8744 1678.83,-68.0358 1713.27,-114.867 1727.25,-136.097"/>
<polygon fill="#9a32cd" stroke="#9a32cd" points="1217.58,-6.68002 1208.11,-11.4288 1218.47,-13.6227 1217.58,-6.68002"/>
<text text-anchor="middle" x="1367" y="-5.87441" font-family="FreeSans" font-size="10.00"> xmlAttributes_</text>
</g>
</g>
</svg>
        <g id="navigator" transform="translate(0 0)" fill="#404254">
                <rect fill="#f2f5e9" fill-opacity="0.5" stroke="#606060" stroke-width=".5" x="0" y="0" width="60" height="60"/>
                <use id="zoomplus" xlink:href="#zoomPlus" x="17" y="9" onmousedown="handleZoom(evt,'in')"/>
                <use id="zoomminus" xlink:href="#zoomMin" x="42" y="9" onmousedown="handleZoom(evt,'out')"/>
                <use id="reset" xlink:href="#resetDef" x="30" y="36" onmousedown="handleReset()"/>
                <g id="arrowUp" xlink:href="#dirArrow" transform="translate(30 24)" onmousedown="handlePan(0,-1)">
                  <use xlink:href="#rim" fill="#404040">
                        <set attributeName="fill" to="#808080" begin="arrowUp.mouseover" end="arrowUp.mouseout"/>
                  </use>
                  <path fill="none" stroke="white" stroke-width="1.5" d="M0,-3.0v7 M-2.5,-0.5L0,-3.0L2.5,-0.5"/>
                </g>
                <g id="arrowRight" xlink:href="#dirArrow" transform="rotate(90) translate(36 -43)" onmousedown="handlePan(1,0)">
                  <use xlink:href="#rim" fill="#404040">
                        <set attributeName="fill" to="#808080" begin="arrowRight.mouseover" end="arrowRight.mouseout"/>
                  </use>
                  <path fill="none" stroke="white" stroke-width="1.5" d="M0,-3.0v7 M-2.5,-0.5L0,-3.0L2.5,-0.5"/>
                </g>
                <g id="arrowDown" xlink:href="#dirArrow" transform="rotate(180) translate(-30 -48)" onmousedown="handlePan(0,1)">
                  <use xlink:href="#rim" fill="#404040">
                        <set attributeName="fill" to="#808080" begin="arrowDown.mouseover" end="arrowDown.mouseout"/>
                  </use>
                  <path fill="none" stroke="white" stroke-width="1.5" d="M0,-3.0v7 M-2.5,-0.5L0,-3.0L2.5,-0.5"/>
                </g>
                <g id="arrowLeft" xlink:href="#dirArrow" transform="rotate(270) translate(-36 17)" onmousedown="handlePan(-1,0)">
                  <use xlink:href="#rim" fill="#404040">
                        <set attributeName="fill" to="#808080" begin="arrowLeft.mouseover" end="arrowLeft.mouseout"/>
                  </use>
                  <path fill="none" stroke="white" stroke-width="1.5" d="M0,-3.0v7 M-2.5,-0.5L0,-3.0L2.5,-0.5"/>
                </g>
        </g>
        <svg viewBox="0 0 15 15" width="100%" height="30px" preserveAspectRatio="xMaxYMin meet">
         <g id="arrow_out" transform="scale(0.3 0.3)">
          <a xlink:href="a01348_org.svg" target="_base">
           <rect id="button" ry="5" rx="5" y="6" x="6" height="38" width="38"
                fill="#f2f5e9" fill-opacity="0.5" stroke="#606060" stroke-width="1.0"/>
           <path id="arrow"
             d="M 11.500037,31.436501 C 11.940474,20.09759 22.043105,11.32322 32.158766,21.979434 L 37.068811,17.246167 C 37.068811,17.246167 37.088388,32 37.088388,32 L 22.160133,31.978069 C 22.160133,31.978069 26.997745,27.140456 26.997745,27.140456 C 18.528582,18.264221 13.291696,25.230495 11.500037,31.436501 z"
             style="fill:#404040;"/>
          </a>
         </g>
        </svg>
</svg>
