<?xml version="1.0" encoding="UTF-8" standalone="no"?>
<!DOCTYPE svg PUBLIC "-//W3C//DTD SVG 1.1//EN"
 "http://www.w3.org/Graphics/SVG/1.1/DTD/svg11.dtd">
<!-- Generated by graphviz version 2.26.3 (20100126.1600)
 -->
<!-- Title: Urho3D::ReplicationState Pages: 1 -->
<svg width="1290pt" height="943pt"
 viewBox="0.00 0.00 1290.00 943.34" xmlns="http://www.w3.org/2000/svg" xmlns:xlink="http://www.w3.org/1999/xlink">
<g id="graph1" class="graph" transform="scale(1 1) rotate(0) translate(4 939.34)">
<title>Urho3D::ReplicationState</title>
<!-- Node1 -->
<g id="node1" class="node"><title>Node1</title>
<polygon fill="#bfbfbf" stroke="black" points="213.5,-702.993 213.5,-723.993 350.5,-723.993 350.5,-702.993 213.5,-702.993"/>
<text text-anchor="middle" x="282" y="-710.993" font-family="FreeSans" font-size="10.00">Urho3D::ReplicationState</text>
</g>
<!-- Node8 -->
<g id="node15" class="node"><title>Node8</title>
<a xlink:href="a00253.html" target="_top" xlink:title="Per&#45;user scene network replication state.">
<polygon fill="none" stroke="black" points="561,-650.493 561,-684.493 701,-684.493 701,-650.493 561,-650.493"/>
<text text-anchor="start" x="569" y="-671.493" font-family="FreeSans" font-size="10.00">Urho3D::SceneReplication</text>
<text text-anchor="middle" x="631" y="-658.493" font-family="FreeSans" font-size="10.00">State</text>
</a>
</g>
<!-- Node1&#45;&gt;Node8 -->
<g id="edge18" class="edge"><title>Node1&#45;&gt;Node8</title>
<path fill="none" stroke="midnightblue" d="M360.514,-704.36C411.676,-698.259 479.857,-689.848 540,-681.493 546.808,-680.548 553.896,-679.525 560.979,-678.477"/>
<polygon fill="midnightblue" stroke="midnightblue" points="360.032,-700.892 350.516,-705.548 360.859,-707.843 360.032,-700.892"/>
</g>
<!-- Node2 -->
<g id="node2" class="node"><title>Node2</title>
<a xlink:href="a00091.html" target="_top" xlink:title="Connection to a remote network host.">
<polygon fill="none" stroke="black" points="1168.5,-483.993 1168.5,-504.993 1281.5,-504.993 1281.5,-483.993 1168.5,-483.993"/>
<text text-anchor="middle" x="1225" y="-491.993" font-family="FreeSans" font-size="10.00">Urho3D::Connection</text>
</a>
</g>
<!-- Node2&#45;&gt;Node1 -->
<g id="edge2" class="edge"><title>Node2&#45;&gt;Node1</title>
<path fill="none" stroke="#9a32cd" stroke-dasharray="5,2" d="M1220.36,-515.026C1209.26,-562.246 1179.88,-676.358 1150,-700.493 1028.37,-798.756 533.65,-746.267 350.563,-722.851"/>
<polygon fill="#9a32cd" stroke="#9a32cd" points="1223.82,-515.571 1222.67,-505.04 1217,-513.995 1223.82,-515.571"/>
<text text-anchor="middle" x="807" y="-761.493" font-family="FreeSans" font-size="10.00"> connection_</text>
</g>
<!-- Node3 -->
<g id="node4" class="node"><title>Node3</title>
<a xlink:href="a00202.html" target="_top" xlink:title="Base class for objects with type identification, subsystem access and event sending/receiving capabil...">
<polygon fill="none" stroke="black" points="938,-872.993 938,-893.993 1028,-893.993 1028,-872.993 938,-872.993"/>
<text text-anchor="middle" x="983" y="-880.993" font-family="FreeSans" font-size="10.00">Urho3D::Object</text>
</a>
</g>
<!-- Node3&#45;&gt;Node2 -->
<g id="edge4" class="edge"><title>Node3&#45;&gt;Node2</title>
<path fill="none" stroke="midnightblue" d="M1038.33,-878.796C1075.08,-872.738 1121.62,-858.925 1150,-827.493 1194.88,-777.79 1218.97,-556.318 1224,-505.093"/>
<polygon fill="midnightblue" stroke="midnightblue" points="1037.61,-875.364 1028.24,-880.307 1038.65,-882.286 1037.61,-875.364"/>
</g>
<!-- Node4 -->
<g id="node6" class="node"><title>Node4</title>
<a xlink:href="a00237.html" target="_top" xlink:title="Base class for intrusively reference&#45;counted objects. These are noncopyable and non&#45;assignable.">
<polygon fill="none" stroke="black" points="225,-846.993 225,-867.993 339,-867.993 339,-846.993 225,-846.993"/>
<text text-anchor="middle" x="282" y="-854.993" font-family="FreeSans" font-size="10.00">Urho3D::RefCounted</text>
</a>
</g>
<!-- Node4&#45;&gt;Node3 -->
<g id="edge6" class="edge"><title>Node4&#45;&gt;Node3</title>
<path fill="none" stroke="midnightblue" d="M324.522,-871.169C378.236,-887.662 473.829,-914.423 558,-924.493 705.523,-942.143 745.862,-937.295 892,-910.493 912.91,-906.659 935.853,-899.833 953.471,-894.004"/>
<polygon fill="midnightblue" stroke="midnightblue" points="325.261,-867.734 314.673,-868.116 323.188,-874.42 325.261,-867.734"/>
</g>
<!-- Node6 -->
<g id="node10" class="node"><title>Node6</title>
<a xlink:href="a00097.html" target="_top" xlink:title="Urho3D execution context. Provides access to subsystems, object factories and attributes, and event receivers.">
<polygon fill="none" stroke="red" points="582.5,-841.993 582.5,-862.993 679.5,-862.993 679.5,-841.993 582.5,-841.993"/>
<text text-anchor="middle" x="631" y="-849.993" font-family="FreeSans" font-size="10.00">Urho3D::Context</text>
</a>
</g>
<!-- Node4&#45;&gt;Node6 -->
<g id="edge12" class="edge"><title>Node4&#45;&gt;Node6</title>
<path fill="none" stroke="midnightblue" d="M349.472,-856.527C417.814,-855.548 521.84,-854.057 582.458,-853.189"/>
<polygon fill="midnightblue" stroke="midnightblue" points="349.188,-853.03 339.239,-856.673 349.289,-860.03 349.188,-853.03"/>
</g>
<!-- Node5 -->
<g id="node8" class="node"><title>Node5</title>
<a xlink:href="a00236.html" target="_top" xlink:title="Reference count structure.">
<polygon fill="none" stroke="black" points="3,-825.993 3,-846.993 105,-846.993 105,-825.993 3,-825.993"/>
<text text-anchor="middle" x="54" y="-833.993" font-family="FreeSans" font-size="10.00">Urho3D::RefCount</text>
</a>
</g>
<!-- Node5&#45;&gt;Node4 -->
<g id="edge8" class="edge"><title>Node5&#45;&gt;Node4</title>
<path fill="none" stroke="#9a32cd" stroke-dasharray="5,2" d="M115.469,-842.155C149.552,-845.294 191.653,-849.172 224.996,-852.243"/>
<polygon fill="#9a32cd" stroke="#9a32cd" points="115.447,-838.638 105.168,-841.206 114.804,-845.609 115.447,-838.638"/>
<text text-anchor="middle" x="151" y="-851.493" font-family="FreeSans" font-size="10.00"> refCount_</text>
</g>
<!-- Node12 -->
<g id="node25" class="node"><title>Node12</title>
<a xlink:href="a00327.html" target="_top" xlink:title="Urho3D::WeakPtr\&lt; Urho3D\l::Scene \&gt;">
<polygon fill="none" stroke="black" points="910,-670.493 910,-704.493 1056,-704.493 1056,-670.493 910,-670.493"/>
<text text-anchor="start" x="918" y="-691.493" font-family="FreeSans" font-size="10.00">Urho3D::WeakPtr&lt; Urho3D</text>
<text text-anchor="middle" x="983" y="-678.493" font-family="FreeSans" font-size="10.00">::Scene &gt;</text>
</a>
</g>
<!-- Node5&#45;&gt;Node12 -->
<g id="edge42" class="edge"><title>Node5&#45;&gt;Node12</title>
<path fill="none" stroke="#9a32cd" stroke-dasharray="5,2" d="M115.409,-834.236C283.782,-827.398 749.66,-803.951 892,-749.493 919.139,-739.11 946.132,-719.2 963.584,-704.736"/>
<polygon fill="#9a32cd" stroke="#9a32cd" points="115.082,-830.746 105.231,-834.644 115.363,-837.74 115.082,-830.746"/>
<text text-anchor="middle" x="464" y="-822.493" font-family="FreeSans" font-size="10.00"> refCount_</text>
</g>
<!-- Node6&#45;&gt;Node3 -->
<g id="edge10" class="edge"><title>Node6&#45;&gt;Node3</title>
<path fill="none" stroke="#9a32cd" stroke-dasharray="5,2" d="M689.901,-855.325C742.87,-858.164 822.766,-863.171 892,-870.493 906.918,-872.071 923.15,-874.243 937.72,-876.36"/>
<polygon fill="#9a32cd" stroke="#9a32cd" points="689.847,-851.817 679.677,-854.786 689.479,-858.808 689.847,-851.817"/>
<text text-anchor="middle" x="807" y="-874.493" font-family="FreeSans" font-size="10.00"> context_</text>
</g>
<!-- Node7 -->
<g id="node13" class="node"><title>Node7</title>
<a xlink:href="a00165.html" target="_top" xlink:title="Urho3D::LinkedList\l\&lt; Urho3D::EventHandler \&gt;">
<polygon fill="none" stroke="red" points="558,-881.493 558,-915.493 704,-915.493 704,-881.493 558,-881.493"/>
<text text-anchor="start" x="566" y="-902.493" font-family="FreeSans" font-size="10.00">Urho3D::LinkedList</text>
<text text-anchor="middle" x="631" y="-889.493" font-family="FreeSans" font-size="10.00">&lt; Urho3D::EventHandler &gt;</text>
</a>
</g>
<!-- Node7&#45;&gt;Node3 -->
<g id="edge14" class="edge"><title>Node7&#45;&gt;Node3</title>
<path fill="none" stroke="#9a32cd" stroke-dasharray="5,2" d="M714.479,-894.936C784.444,-891.955 881.663,-887.812 937.894,-885.416"/>
<polygon fill="#9a32cd" stroke="#9a32cd" points="714.204,-891.445 704.362,-895.367 714.502,-898.438 714.204,-891.445"/>
<text text-anchor="middle" x="807" y="-897.493" font-family="FreeSans" font-size="10.00"> eventHandlers_</text>
</g>
<!-- Node8&#45;&gt;Node2 -->
<g id="edge16" class="edge"><title>Node8&#45;&gt;Node2</title>
<path fill="none" stroke="#9a32cd" stroke-dasharray="5,2" d="M711.226,-661.941C847.591,-651.955 1113.43,-629.91 1150,-607.493 1189.95,-583.004 1213.11,-528.306 1221.44,-505.163"/>
<polygon fill="#9a32cd" stroke="#9a32cd" points="710.957,-658.451 701.238,-662.668 711.465,-665.433 710.957,-658.451"/>
<text text-anchor="middle" x="983" y="-648.493" font-family="FreeSans" font-size="10.00"> sceneState_</text>
</g>
<!-- Node9 -->
<g id="node18" class="node"><title>Node9</title>
<a xlink:href="a00143.html" target="_top" xlink:title="Urho3D::HashMap\&lt; unsigned,\l Urho3D::NodeReplicationState \&gt;">
<polygon fill="none" stroke="black" points="194,-641.493 194,-675.493 370,-675.493 370,-641.493 194,-641.493"/>
<text text-anchor="start" x="202" y="-662.493" font-family="FreeSans" font-size="10.00">Urho3D::HashMap&lt; unsigned,</text>
<text text-anchor="middle" x="282" y="-649.493" font-family="FreeSans" font-size="10.00"> Urho3D::NodeReplicationState &gt;</text>
</a>
</g>
<!-- Node9&#45;&gt;Node8 -->
<g id="edge20" class="edge"><title>Node9&#45;&gt;Node8</title>
<path fill="none" stroke="#9a32cd" stroke-dasharray="5,2" d="M380.267,-661.028C437.755,-662.51 508.984,-664.347 560.814,-665.684"/>
<polygon fill="#9a32cd" stroke="#9a32cd" points="380.154,-657.524 370.067,-660.765 379.974,-664.521 380.154,-657.524"/>
<text text-anchor="middle" x="464" y="-668.493" font-family="FreeSans" font-size="10.00"> nodeStates_</text>
</g>
<!-- Node10 -->
<g id="node20" class="node"><title>Node10</title>
<a xlink:href="a00141.html" target="_top" xlink:title="Hash set/map base class.">
<polygon fill="none" stroke="red" points="0,-490.993 0,-511.993 108,-511.993 108,-490.993 0,-490.993"/>
<text text-anchor="middle" x="54" y="-498.993" font-family="FreeSans" font-size="10.00">Urho3D::HashBase</text>
</a>
</g>
<!-- Node10&#45;&gt;Node9 -->
<g id="edge22" class="edge"><title>Node10&#45;&gt;Node9</title>
<path fill="none" stroke="midnightblue" d="M72.4086,-519.11C98.158,-543.147 147.06,-586.639 194,-616.493 208.713,-625.851 225.832,-634.478 241.039,-641.447"/>
<polygon fill="midnightblue" stroke="midnightblue" points="74.5728,-516.34 64.8937,-512.031 69.7731,-521.436 74.5728,-516.34"/>
</g>
<!-- Node11 -->
<g id="node22" class="node"><title>Node11</title>
<a xlink:href="a00145.html" target="_top" xlink:title="Urho3D::HashSet\&lt; unsigned \&gt;">
<polygon fill="none" stroke="black" points="198.5,-585.993 198.5,-606.993 365.5,-606.993 365.5,-585.993 198.5,-585.993"/>
<text text-anchor="middle" x="282" y="-593.993" font-family="FreeSans" font-size="10.00">Urho3D::HashSet&lt; unsigned &gt;</text>
</a>
</g>
<!-- Node10&#45;&gt;Node11 -->
<g id="edge26" class="edge"><title>Node10&#45;&gt;Node11</title>
<path fill="none" stroke="midnightblue" d="M87.0516,-516.364C115.315,-528.967 157.146,-547.353 194,-562.493 213.846,-570.647 236.424,-579.359 253.742,-585.923"/>
<polygon fill="midnightblue" stroke="midnightblue" points="88.2084,-513.047 77.6506,-512.162 85.3519,-519.438 88.2084,-513.047"/>
</g>
<!-- Node15 -->
<g id="node32" class="node"><title>Node15</title>
<a xlink:href="a00143.html" target="_top" xlink:title="Urho3D::HashMap\&lt; ShortString\lHash, Variant \&gt;">
<polygon fill="none" stroke="black" points="197,-372.493 197,-406.493 367,-406.493 367,-372.493 197,-372.493"/>
<text text-anchor="start" x="205" y="-393.493" font-family="FreeSans" font-size="10.00">Urho3D::HashMap&lt; ShortString</text>
<text text-anchor="middle" x="282" y="-380.493" font-family="FreeSans" font-size="10.00">Hash, Variant &gt;</text>
</a>
</g>
<!-- Node10&#45;&gt;Node15 -->
<g id="edge38" class="edge"><title>Node10&#45;&gt;Node15</title>
<path fill="none" stroke="midnightblue" d="M74.2093,-484.28C88.1136,-473.041 107.368,-458.625 126,-448.493 157.67,-431.272 195.432,-416.846 225.871,-406.571"/>
<polygon fill="midnightblue" stroke="midnightblue" points="71.7876,-481.741 66.2966,-490.802 76.2396,-487.143 71.7876,-481.741"/>
</g>
<!-- Node16 -->
<g id="node37" class="node"><title>Node16</title>
<a xlink:href="a00143.html" target="_top" xlink:title="Urho3D::HashMap\&lt; Urho3D\l::StringHash, Urho3D::\lPackageUpload \&gt;">
<polygon fill="none" stroke="black" points="388,-63.9935 388,-110.993 540,-110.993 540,-63.9935 388,-63.9935"/>
<text text-anchor="start" x="396" y="-97.9935" font-family="FreeSans" font-size="10.00">Urho3D::HashMap&lt; Urho3D</text>
<text text-anchor="start" x="396" y="-84.9935" font-family="FreeSans" font-size="10.00">::StringHash, Urho3D::</text>
<text text-anchor="middle" x="464" y="-71.9935" font-family="FreeSans" font-size="10.00">PackageUpload &gt;</text>
</a>
</g>
<!-- Node10&#45;&gt;Node16 -->
<g id="edge46" class="edge"><title>Node10&#45;&gt;Node16</title>
<path fill="none" stroke="midnightblue" d="M70.1681,-483.202C84.7271,-466.755 106.735,-441.955 126,-420.493 241.814,-291.48 253.146,-240.451 388,-131.493 397.131,-124.116 407.645,-117.195 417.884,-111.125"/>
<polygon fill="midnightblue" stroke="midnightblue" points="67.2923,-481.17 63.2876,-490.979 72.5351,-485.808 67.2923,-481.17"/>
</g>
<!-- Node20 -->
<g id="node46" class="node"><title>Node20</title>
<a xlink:href="a00143.html" target="_top" xlink:title="Urho3D::HashMap\&lt; Urho3D\l::StringHash, Urho3D::\lPackageDownload \&gt;">
<polygon fill="none" stroke="black" points="388,-747.993 388,-794.993 540,-794.993 540,-747.993 388,-747.993"/>
<text text-anchor="start" x="396" y="-781.993" font-family="FreeSans" font-size="10.00">Urho3D::HashMap&lt; Urho3D</text>
<text text-anchor="start" x="396" y="-768.993" font-family="FreeSans" font-size="10.00">::StringHash, Urho3D::</text>
<text text-anchor="middle" x="464" y="-755.993" font-family="FreeSans" font-size="10.00">PackageDownload &gt;</text>
</a>
</g>
<!-- Node10&#45;&gt;Node20 -->
<g id="edge56" class="edge"><title>Node10&#45;&gt;Node20</title>
<path fill="none" stroke="midnightblue" d="M59.7071,-521.873C73.8378,-568.195 115.147,-681.399 194,-733.493 251.17,-771.264 330.011,-778.47 387.738,-777.601"/>
<polygon fill="midnightblue" stroke="midnightblue" points="63.0083,-520.693 56.8273,-512.088 56.2931,-522.67 63.0083,-520.693"/>
</g>
<!-- Node25 -->
<g id="node60" class="node"><title>Node25</title>
<a xlink:href="a00143.html" target="_top" xlink:title="Urho3D::HashMap\&lt; unsigned,\l Urho3D::PODVector\&lt; unsigned\l char \&gt; \&gt;">
<polygon fill="none" stroke="black" points="722.5,-456.993 722.5,-503.993 891.5,-503.993 891.5,-456.993 722.5,-456.993"/>
<text text-anchor="start" x="730.5" y="-490.993" font-family="FreeSans" font-size="10.00">Urho3D::HashMap&lt; unsigned,</text>
<text text-anchor="start" x="730.5" y="-477.993" font-family="FreeSans" font-size="10.00"> Urho3D::PODVector&lt; unsigned</text>
<text text-anchor="middle" x="807" y="-464.993" font-family="FreeSans" font-size="10.00"> char &gt; &gt;</text>
</a>
</g>
<!-- Node10&#45;&gt;Node25 -->
<g id="edge74" class="edge"><title>Node10&#45;&gt;Node25</title>
<path fill="none" stroke="midnightblue" d="M118.029,-495.273C185.204,-489.081 293.902,-480.01 388,-476.493 455.508,-473.971 472.446,-475.988 540,-476.493 600.961,-476.95 669.744,-477.993 722.229,-478.899"/>
<polygon fill="midnightblue" stroke="midnightblue" points="117.653,-491.792 108.019,-496.202 118.3,-498.762 117.653,-491.792"/>
</g>
<!-- Node11&#45;&gt;Node2 -->
<g id="edge76" class="edge"><title>Node11&#45;&gt;Node2</title>
<path fill="none" stroke="#9a32cd" stroke-dasharray="5,2" d="M375.915,-597.07C424.837,-597.224 485.642,-597.188 540,-596.493 696.483,-594.493 736.839,-607.889 892,-587.493 1008.93,-572.124 1037.83,-561.906 1150,-525.493 1167.82,-519.708 1187.37,-511.566 1202.04,-505.079"/>
<polygon fill="#9a32cd" stroke="#9a32cd" points="375.675,-593.569 365.662,-597.034 375.65,-600.569 375.675,-593.569"/>
<text text-anchor="middle" x="807" y="-602.493" font-family="FreeSans" font-size="10.00"> nodesToProcess_</text>
</g>
<!-- Node11&#45;&gt;Node8 -->
<g id="edge24" class="edge"><title>Node11&#45;&gt;Node8</title>
<path fill="none" stroke="#9a32cd" stroke-dasharray="5,2" d="M332.818,-609.436C350.243,-613.618 369.91,-618.058 388,-621.493 455.061,-634.229 473.112,-629.879 540,-643.493 549.766,-645.481 560.045,-647.885 570.038,-650.392"/>
<polygon fill="#9a32cd" stroke="#9a32cd" points="333.389,-605.973 322.845,-607.012 331.736,-612.775 333.389,-605.973"/>
<text text-anchor="middle" x="464" y="-647.493" font-family="FreeSans" font-size="10.00"> dirtyNodes_</text>
</g>
<!-- Node13 -->
<g id="node27" class="node"><title>Node13</title>
<a xlink:href="a00251.html" target="_top" xlink:title="Root scene node, represents the whole scene.">
<polygon fill="none" stroke="red" points="586.5,-545.993 586.5,-566.993 675.5,-566.993 675.5,-545.993 586.5,-545.993"/>
<text text-anchor="middle" x="631" y="-553.993" font-family="FreeSans" font-size="10.00">Urho3D::Scene</text>
</a>
</g>
<!-- Node11&#45;&gt;Node13 -->
<g id="edge40" class="edge"><title>Node11&#45;&gt;Node13</title>
<path fill="none" stroke="#9a32cd" stroke-dasharray="5,2" d="M318.591,-582.319C346.319,-571.7 380.836,-558.785 388,-557.493 456.298,-545.183 537.159,-548.28 586.237,-552.067"/>
<polygon fill="#9a32cd" stroke="#9a32cd" points="317.202,-579.104 309.122,-585.957 319.712,-585.638 317.202,-579.104"/>
<text text-anchor="start" x="394" y="-587.493" font-family="FreeSans" font-size="10.00"> networkUpdateNodes</text>
<text text-anchor="middle" x="464" y="-574.493" font-family="FreeSans" font-size="10.00">_</text>
<text text-anchor="middle" x="464" y="-561.493" font-family="FreeSans" font-size="10.00">networkUpdateComponents_</text>
</g>
<!-- Node12&#45;&gt;Node2 -->
<g id="edge28" class="edge"><title>Node12&#45;&gt;Node2</title>
<path fill="none" stroke="#9a32cd" stroke-dasharray="5,2" d="M1066.22,-685.554C1095.21,-681.224 1126.37,-672.041 1150,-653.493 1199.94,-614.298 1218.24,-533.83 1223.35,-505.033"/>
<polygon fill="#9a32cd" stroke="#9a32cd" points="1065.53,-682.115 1056.07,-686.89 1066.44,-689.055 1065.53,-682.115"/>
<text text-anchor="middle" x="1112" y="-687.493" font-family="FreeSans" font-size="10.00"> scene_</text>
</g>
<!-- Node13&#45;&gt;Node12 -->
<g id="edge30" class="edge"><title>Node13&#45;&gt;Node12</title>
<path fill="none" stroke="#9a32cd" stroke-dasharray="5,2" d="M685.726,-552.87C753.074,-549.636 862.191,-548.779 892,-574.493 920.253,-598.865 886.173,-627.78 910,-656.493 914.572,-662.003 920.299,-666.554 926.522,-670.308"/>
<polygon fill="#9a32cd" stroke="#9a32cd" points="685.508,-549.376 675.7,-553.383 685.866,-556.367 685.508,-549.376"/>
<text text-anchor="middle" x="807" y="-578.493" font-family="FreeSans" font-size="10.00"> ptr_</text>
</g>
<!-- Node14 -->
<g id="node29" class="node"><title>Node14</title>
<a xlink:href="a00289.html" target="_top" xlink:title="String class.">
<polygon fill="none" stroke="black" points="238,-500.993 238,-521.993 326,-521.993 326,-500.993 238,-500.993"/>
<text text-anchor="middle" x="282" y="-508.993" font-family="FreeSans" font-size="10.00">Urho3D::String</text>
</a>
</g>
<!-- Node14&#45;&gt;Node2 -->
<g id="edge70" class="edge"><title>Node14&#45;&gt;Node2</title>
<path fill="none" stroke="#9a32cd" stroke-dasharray="5,2" d="M336.33,-511.195C388.542,-510.979 469.666,-510.828 540,-511.493 769.344,-513.663 827.216,-534.657 1056,-518.493 1093.69,-515.831 1135.76,-509.867 1168.49,-504.551"/>
<polygon fill="#9a32cd" stroke="#9a32cd" points="336.269,-507.695 326.285,-511.239 336.3,-514.695 336.269,-507.695"/>
<text text-anchor="middle" x="807" y="-528.493" font-family="FreeSans" font-size="10.00"> sceneFileName_</text>
</g>
<!-- Node14&#45;&gt;Node13 -->
<g id="edge32" class="edge"><title>Node14&#45;&gt;Node13</title>
<path fill="none" stroke="#9a32cd" stroke-dasharray="5,2" d="M336.235,-512.696C388.703,-514.564 470.295,-519.332 540,-531.493 559.691,-534.929 581.281,-540.768 598.488,-545.939"/>
<polygon fill="#9a32cd" stroke="#9a32cd" points="336.253,-509.195 326.142,-512.36 336.02,-516.191 336.253,-509.195"/>
<text text-anchor="middle" x="464" y="-535.493" font-family="FreeSans" font-size="10.00"> fileName_</text>
</g>
<!-- Node14&#45;&gt;Node14 -->
<g id="edge34" class="edge"><title>Node14&#45;&gt;Node14</title>
<path fill="none" stroke="#9a32cd" stroke-dasharray="5,2" d="M258.042,-531.92C259.891,-536.842 267.876,-540.493 282,-540.493 304.598,-540.493 311.483,-531.147 302.656,-522.201"/>
<polygon fill="#9a32cd" stroke="#9a32cd" points="261.441,-532.796 261.344,-522.201 254.813,-530.544 261.441,-532.796"/>
<text text-anchor="middle" x="282" y="-544.493" font-family="FreeSans" font-size="10.00"> EMPTY</text>
</g>
<!-- Node15&#45;&gt;Node2 -->
<g id="edge78" class="edge"><title>Node15&#45;&gt;Node2</title>
<path fill="none" stroke="#9a32cd" stroke-dasharray="5,2" d="M314.449,-366.608C420.757,-294.511 768.238,-81.667 1056,-164.493 1103.4,-178.137 1120.54,-183.934 1150,-223.493 1213.42,-308.649 1223.21,-444.724 1224.72,-483.727"/>
<polygon fill="#9a32cd" stroke="#9a32cd" points="312.34,-363.81 306.062,-372.345 316.292,-369.588 312.34,-363.81"/>
<text text-anchor="middle" x="807" y="-174.493" font-family="FreeSans" font-size="10.00"> identity_</text>
</g>
<!-- Node15&#45;&gt;Node13 -->
<g id="edge36" class="edge"><title>Node15&#45;&gt;Node13</title>
<path fill="none" stroke="#9a32cd" stroke-dasharray="5,2" d="M338.326,-410.145C391.444,-430.349 472.725,-463.162 540,-498.493 567.865,-513.128 598.348,-533.533 616.012,-545.832"/>
<polygon fill="#9a32cd" stroke="#9a32cd" points="339.337,-406.785 328.745,-406.521 336.86,-413.332 339.337,-406.785"/>
<text text-anchor="middle" x="464" y="-502.493" font-family="FreeSans" font-size="10.00"> smoothingData_</text>
</g>
<!-- Node23 -->
<g id="node54" class="node"><title>Node23</title>
<a xlink:href="a00098.html" target="_top" xlink:title="Controls sent over the network.">
<polygon fill="none" stroke="black" points="757.5,-356.993 757.5,-377.993 856.5,-377.993 856.5,-356.993 757.5,-356.993"/>
<text text-anchor="middle" x="807" y="-364.993" font-family="FreeSans" font-size="10.00">Urho3D::Controls</text>
</a>
</g>
<!-- Node15&#45;&gt;Node23 -->
<g id="edge66" class="edge"><title>Node15&#45;&gt;Node23</title>
<path fill="none" stroke="#9a32cd" stroke-dasharray="5,2" d="M377.5,-385.492C489.41,-380.802 670.573,-373.21 757.445,-369.57"/>
<polygon fill="#9a32cd" stroke="#9a32cd" points="377.071,-382.006 367.226,-385.922 377.364,-389 377.071,-382.006"/>
<text text-anchor="middle" x="464" y="-388.493" font-family="FreeSans" font-size="10.00"> extraData_</text>
</g>
<!-- Node16&#45;&gt;Node2 -->
<g id="edge44" class="edge"><title>Node16&#45;&gt;Node2</title>
<path fill="none" stroke="#9a32cd" stroke-dasharray="5,2" d="M536.128,-60.674C673.55,-14.7265 974.788,60.4986 1150,-88.4935 1212.52,-141.66 1223.2,-424.584 1224.76,-483.672"/>
<polygon fill="#9a32cd" stroke="#9a32cd" points="534.869,-57.4049 526.521,-63.9281 537.115,-64.0349 534.869,-57.4049"/>
<text text-anchor="middle" x="807" y="-17.4935" font-family="FreeSans" font-size="10.00"> uploads_</text>
</g>
<!-- Node17 -->
<g id="node40" class="node"><title>Node17</title>
<a xlink:href="a00320.html" target="_top" xlink:title="Dynamically sized buffer that can be read and written to as a stream.">
<polygon fill="none" stroke="red" points="923.5,-436.993 923.5,-457.993 1042.5,-457.993 1042.5,-436.993 923.5,-436.993"/>
<text text-anchor="middle" x="983" y="-444.993" font-family="FreeSans" font-size="10.00">Urho3D::VectorBuffer</text>
</a>
</g>
<!-- Node17&#45;&gt;Node2 -->
<g id="edge48" class="edge"><title>Node17&#45;&gt;Node2</title>
<path fill="none" stroke="#9a32cd" stroke-dasharray="5,2" d="M1052.72,-452.294C1082.9,-455.282 1118.47,-460.032 1150,-467.493 1167.1,-471.541 1185.69,-478.217 1200.09,-483.918"/>
<polygon fill="#9a32cd" stroke="#9a32cd" points="1052.98,-448.803 1042.7,-451.346 1052.32,-455.772 1052.98,-448.803"/>
<text text-anchor="middle" x="1112" y="-471.493" font-family="FreeSans" font-size="10.00"> msg_</text>
</g>
<!-- Node18 -->
<g id="node42" class="node"><title>Node18</title>
<a xlink:href="a00115.html" target="_top" xlink:title="Abstract stream for reading.">
<polygon fill="none" stroke="black" points="573,-429.993 573,-450.993 689,-450.993 689,-429.993 573,-429.993"/>
<text text-anchor="middle" x="631" y="-437.993" font-family="FreeSans" font-size="10.00">Urho3D::Deserializer</text>
</a>
</g>
<!-- Node18&#45;&gt;Node17 -->
<g id="edge50" class="edge"><title>Node18&#45;&gt;Node17</title>
<path fill="none" stroke="midnightblue" d="M699.281,-441.851C764.33,-443.145 861.279,-445.073 923.316,-446.307"/>
<polygon fill="midnightblue" stroke="midnightblue" points="699.193,-438.349 689.126,-441.649 699.054,-445.348 699.193,-438.349"/>
</g>
<!-- Node19 -->
<g id="node44" class="node"><title>Node19</title>
<a xlink:href="a00264.html" target="_top" xlink:title="Abstract stream for writing.">
<polygon fill="none" stroke="black" points="579,-389.993 579,-410.993 683,-410.993 683,-389.993 579,-389.993"/>
<text text-anchor="middle" x="631" y="-397.993" font-family="FreeSans" font-size="10.00">Urho3D::Serializer</text>
</a>
</g>
<!-- Node19&#45;&gt;Node17 -->
<g id="edge52" class="edge"><title>Node19&#45;&gt;Node17</title>
<path fill="none" stroke="midnightblue" d="M693.424,-408.828C758.389,-417.503 859.392,-430.989 923.32,-439.525"/>
<polygon fill="midnightblue" stroke="midnightblue" points="693.693,-405.333 683.318,-407.479 692.767,-412.272 693.693,-405.333"/>
</g>
<!-- Node20&#45;&gt;Node2 -->
<g id="edge54" class="edge"><title>Node20&#45;&gt;Node2</title>
<path fill="none" stroke="#9a32cd" stroke-dasharray="5,2" d="M550.154,-797.26C691.545,-833.836 974.597,-882.337 1150,-746.493 1190.06,-715.469 1217.04,-548.745 1223.5,-505.006"/>
<polygon fill="#9a32cd" stroke="#9a32cd" points="550.783,-793.807 540.222,-794.65 549.004,-800.577 550.783,-793.807"/>
<text text-anchor="middle" x="807" y="-840.493" font-family="FreeSans" font-size="10.00"> downloads_</text>
</g>
<!-- Node21 -->
<g id="node49" class="node"><title>Node21</title>
<a xlink:href="a00317.html" target="_top" xlink:title="Three&#45;dimensional vector.">
<polygon fill="none" stroke="black" points="935,-225.993 935,-246.993 1031,-246.993 1031,-225.993 935,-225.993"/>
<text text-anchor="middle" x="983" y="-233.993" font-family="FreeSans" font-size="10.00">Urho3D::Vector3</text>
</a>
</g>
<!-- Node21&#45;&gt;Node2 -->
<g id="edge58" class="edge"><title>Node21&#45;&gt;Node2</title>
<path fill="none" stroke="#9a32cd" stroke-dasharray="5,2" d="M1006.52,-253.024C1040.67,-277.756 1104.85,-327.017 1150,-378.493 1180.84,-413.65 1208.21,-462.553 1219.51,-483.862"/>
<polygon fill="#9a32cd" stroke="#9a32cd" points="1008.28,-249.981 998.115,-246.997 1004.2,-255.669 1008.28,-249.981"/>
<text text-anchor="middle" x="1112" y="-382.493" font-family="FreeSans" font-size="10.00"> position_</text>
</g>
<!-- Node21&#45;&gt;Node21 -->
<g id="edge60" class="edge"><title>Node21&#45;&gt;Node21</title>
<path fill="none" stroke="#9a32cd" stroke-dasharray="5,2" d="M959.411,-256.92C961.231,-261.842 969.094,-265.493 983,-265.493 1005.25,-265.493 1012.03,-256.147 1003.34,-247.201"/>
<polygon fill="#9a32cd" stroke="#9a32cd" points="962.809,-257.795 962.662,-247.201 956.17,-255.574 962.809,-257.795"/>
<text text-anchor="middle" x="983" y="-360.493" font-family="FreeSans" font-size="10.00"> ONE</text>
<text text-anchor="middle" x="983" y="-347.493" font-family="FreeSans" font-size="10.00">DOWN</text>
<text text-anchor="middle" x="983" y="-334.493" font-family="FreeSans" font-size="10.00">BACK</text>
<text text-anchor="middle" x="983" y="-321.493" font-family="FreeSans" font-size="10.00">RIGHT</text>
<text text-anchor="middle" x="983" y="-308.493" font-family="FreeSans" font-size="10.00">LEFT</text>
<text text-anchor="middle" x="983" y="-295.493" font-family="FreeSans" font-size="10.00">ZERO</text>
<text text-anchor="middle" x="983" y="-282.493" font-family="FreeSans" font-size="10.00">FORWARD</text>
<text text-anchor="middle" x="983" y="-269.493" font-family="FreeSans" font-size="10.00">UP</text>
</g>
<!-- Node22 -->
<g id="node52" class="node"><title>Node22</title>
<a xlink:href="a00315.html" target="_top" xlink:title="Urho3D::Vector\&lt; Urho3D\l::RemoteEvent \&gt;">
<polygon fill="none" stroke="red" points="914,-173.493 914,-207.493 1052,-207.493 1052,-173.493 914,-173.493"/>
<text text-anchor="start" x="922" y="-194.493" font-family="FreeSans" font-size="10.00">Urho3D::Vector&lt; Urho3D</text>
<text text-anchor="middle" x="983" y="-181.493" font-family="FreeSans" font-size="10.00">::RemoteEvent &gt;</text>
</a>
</g>
<!-- Node22&#45;&gt;Node2 -->
<g id="edge62" class="edge"><title>Node22&#45;&gt;Node2</title>
<path fill="none" stroke="#9a32cd" stroke-dasharray="5,2" d="M1046.56,-211.688C1049.8,-213.214 1052.96,-214.817 1056,-216.493 1102.55,-242.196 1118.76,-247.471 1150,-290.493 1196.78,-354.917 1217.4,-451.727 1223.2,-483.771"/>
<polygon fill="#9a32cd" stroke="#9a32cd" points="1047.86,-208.433 1037.29,-207.589 1045.02,-214.835 1047.86,-208.433"/>
<text text-anchor="middle" x="1112" y="-294.493" font-family="FreeSans" font-size="10.00"> remoteEvents_</text>
</g>
<!-- Node23&#45;&gt;Node2 -->
<g id="edge64" class="edge"><title>Node23&#45;&gt;Node2</title>
<path fill="none" stroke="#9a32cd" stroke-dasharray="5,2" d="M866.906,-375.716C917.782,-383.43 992.446,-396.483 1056,-414.493 1099.04,-426.691 1109.68,-431.109 1150,-450.493 1170.95,-460.567 1193.84,-474.443 1208.75,-483.902"/>
<polygon fill="#9a32cd" stroke="#9a32cd" points="867.148,-372.214 856.741,-374.198 866.114,-379.137 867.148,-372.214"/>
<text text-anchor="middle" x="983" y="-418.493" font-family="FreeSans" font-size="10.00"> controls_</text>
</g>
<!-- Node24 -->
<g id="node57" class="node"><title>Node24</title>
<a xlink:href="a00304.html" target="_top" xlink:title="Low&#45;resolution operating system timer.">
<polygon fill="none" stroke="black" points="940,-95.9935 940,-116.993 1026,-116.993 1026,-95.9935 940,-95.9935"/>
<text text-anchor="middle" x="983" y="-103.993" font-family="FreeSans" font-size="10.00">Urho3D::Timer</text>
</a>
</g>
<!-- Node24&#45;&gt;Node2 -->
<g id="edge68" class="edge"><title>Node24&#45;&gt;Node2</title>
<path fill="none" stroke="#9a32cd" stroke-dasharray="5,2" d="M1036.11,-95.056C1072.5,-90.5108 1119.51,-91.6022 1150,-118.493 1206.91,-168.69 1221.94,-427.722 1224.55,-483.785"/>
<polygon fill="#9a32cd" stroke="#9a32cd" points="1035.56,-91.5989 1026.15,-96.4707 1036.54,-98.5294 1035.56,-91.5989"/>
<text text-anchor="middle" x="1112" y="-122.493" font-family="FreeSans" font-size="10.00"> statsTimer_</text>
</g>
<!-- Node25&#45;&gt;Node2 -->
<g id="edge72" class="edge"><title>Node25&#45;&gt;Node2</title>
<path fill="none" stroke="#9a32cd" stroke-dasharray="5,2" d="M901.678,-483.665C983.777,-486.414 1099.87,-490.303 1168.3,-492.595"/>
<polygon fill="#9a32cd" stroke="#9a32cd" points="901.7,-480.163 891.589,-483.327 901.466,-487.159 901.7,-480.163"/>
<text text-anchor="middle" x="983" y="-505.493" font-family="FreeSans" font-size="10.00"> nodeLatestData_</text>
<text text-anchor="middle" x="983" y="-492.493" font-family="FreeSans" font-size="10.00">componentLatestData_</text>
</g>
</g>
</svg>
