<?xml version="1.0" encoding="UTF-8" standalone="no"?>
<!DOCTYPE svg PUBLIC "-//W3C//DTD SVG 1.1//EN"
 "http://www.w3.org/Graphics/SVG/1.1/DTD/svg11.dtd">
<!-- Generated by graphviz version 2.26.3 (20100126.1600)
 -->
<!-- Title: Urho3D::Serializable Pages: 1 -->
<!--zoomable 710 -->
<svg id="main" version="1.1" xmlns="http://www.w3.org/2000/svg" xmlns:xlink="http://www.w3.org/1999/xlink" xml:space="preserve" onload="init(evt)">
        <defs>
                <circle id="rim" cx="0" cy="0" r="7"/>
                <circle id="rim2" cx="0" cy="0" r="3.5"/>
                <g id="zoomPlus">
                        <use xlink:href="#rim" fill="#404040">
                                <set attributeName="fill" to="#808080" begin="zoomplus.mouseover" end="zoomplus.mouseout"/>
                        </use>
                        <path d="M-4,0h8M0,-4v8" fill="none" stroke="white" stroke-width="1.5" pointer-events="none"/>
                </g>
                <g id="zoomMin">
                        <use xlink:href="#rim" fill="#404040">
                                <set attributeName="fill" to="#808080" begin="zoomminus.mouseover" end="zoomminus.mouseout"/>
                        </use>
                        <path d="M-4,0h8" fill="none" stroke="white" stroke-width="1.5" pointer-events="none"/>
                </g>
                <g id="dirArrow">
                        <path fill="none" stroke="white" stroke-width="1.5" d="M0,-3.0v7 M-2.5,-0.5L0,-3.0L2.5,-0.5"/>
                </g>
               <g id="resetDef">
                       <use xlink:href="#rim2" fill="#404040">
                               <set attributeName="fill" to="#808080" begin="reset.mouseover" end="reset.mouseout"/>
                       </use>
               </g>
        </defs>

<script type="text/javascript">
var viewWidth = 744;
var viewHeight = 710;
var sectionId = 'dynsection-0';
</script>
<script xlink:href="svgpan.js"/>
<svg id="graph" class="graph">
<g id="viewport">
<title>Urho3D::Serializable</title>
<!-- Node1 -->
<g id="node1" class="node"><title>Node1</title>
<polygon fill="#bfbfbf" stroke="black" points="276,-300.5 276,-321.5 390,-321.5 390,-300.5 276,-300.5"/>
<text text-anchor="middle" x="333" y="-308.5" font-family="FreeSans" font-size="10.00">Urho3D::Serializable</text>
</g>
<!-- Node4 -->
<g id="node7" class="node"><title>Node4</title>
<a xlink:href="a00087.html" target="_top" xlink:title="Base class for components. Components can be created to scene nodes.">
<polygon fill="none" stroke="red" points="426,-340.5 426,-361.5 542,-361.5 542,-340.5 426,-340.5"/>
<text text-anchor="middle" x="484" y="-348.5" font-family="FreeSans" font-size="10.00">Urho3D::Component</text>
</a>
</g>
<!-- Node1&#45;&gt;Node4 -->
<g id="edge6" class="edge"><title>Node1&#45;&gt;Node4</title>
<path fill="none" stroke="midnightblue" d="M382.561,-324.129C402.602,-329.438 425.418,-335.482 444.33,-340.491"/>
<polygon fill="midnightblue" stroke="midnightblue" points="383.236,-320.687 372.673,-321.51 381.444,-327.454 383.236,-320.687"/>
</g>
<!-- Node23 -->
<g id="node45" class="node"><title>Node23</title>
<a xlink:href="a00197.html" target="_top" xlink:title="Scene node that may contain components and child nodes.">
<polygon fill="none" stroke="red" points="441.5,-300.5 441.5,-321.5 526.5,-321.5 526.5,-300.5 441.5,-300.5"/>
<text text-anchor="middle" x="484" y="-308.5" font-family="FreeSans" font-size="10.00">Urho3D::Node</text>
</a>
</g>
<!-- Node1&#45;&gt;Node23 -->
<g id="edge44" class="edge"><title>Node1&#45;&gt;Node23</title>
<path fill="none" stroke="midnightblue" d="M400.194,-311C414.207,-311 428.606,-311 441.429,-311"/>
<polygon fill="midnightblue" stroke="midnightblue" points="400.087,-307.5 390.087,-311 400.087,-314.5 400.087,-307.5"/>
</g>
<!-- Node24 -->
<g id="node47" class="node"><title>Node24</title>
<a xlink:href="a00311.html" target="_top" xlink:title="Base class for UI elements.">
<polygon fill="none" stroke="red" points="429.5,-260.5 429.5,-281.5 538.5,-281.5 538.5,-260.5 429.5,-260.5"/>
<text text-anchor="middle" x="484" y="-268.5" font-family="FreeSans" font-size="10.00">Urho3D::UIElement</text>
</a>
</g>
<!-- Node1&#45;&gt;Node24 -->
<g id="edge46" class="edge"><title>Node1&#45;&gt;Node24</title>
<path fill="none" stroke="midnightblue" d="M382.561,-297.871C402.602,-292.562 425.418,-286.518 444.33,-281.509"/>
<polygon fill="midnightblue" stroke="midnightblue" points="381.444,-294.546 372.673,-300.49 383.236,-301.313 381.444,-294.546"/>
</g>
<!-- Node2 -->
<g id="node2" class="node"><title>Node2</title>
<a xlink:href="a00202.html" target="_top" xlink:title="Base class for objects with type identification, subsystem access and event sending/receiving capabil...">
<polygon fill="none" stroke="black" points="150,-300.5 150,-321.5 240,-321.5 240,-300.5 150,-300.5"/>
<text text-anchor="middle" x="195" y="-308.5" font-family="FreeSans" font-size="10.00">Urho3D::Object</text>
</a>
</g>
<!-- Node2&#45;&gt;Node1 -->
<g id="edge2" class="edge"><title>Node2&#45;&gt;Node1</title>
<path fill="none" stroke="midnightblue" d="M250.212,-311C258.574,-311 267.218,-311 275.625,-311"/>
<polygon fill="midnightblue" stroke="midnightblue" points="250.186,-307.5 240.186,-311 250.186,-314.5 250.186,-307.5"/>
</g>
<!-- Node3 -->
<g id="node4" class="node"><title>Node3</title>
<a xlink:href="a00237.html" target="_top" xlink:title="Base class for intrusively reference&#45;counted objects. These are noncopyable and non&#45;assignable.">
<polygon fill="none" stroke="black" points="0,-300.5 0,-321.5 114,-321.5 114,-300.5 0,-300.5"/>
<text text-anchor="middle" x="57" y="-308.5" font-family="FreeSans" font-size="10.00">Urho3D::RefCounted</text>
</a>
</g>
<!-- Node3&#45;&gt;Node2 -->
<g id="edge4" class="edge"><title>Node3&#45;&gt;Node2</title>
<path fill="none" stroke="midnightblue" d="M124.403,-311C133.027,-311 141.686,-311 149.838,-311"/>
<polygon fill="midnightblue" stroke="midnightblue" points="124.326,-307.5 114.326,-311 124.326,-314.5 124.326,-307.5"/>
</g>
<!-- Node5 -->
<g id="node9" class="node"><title>Node5</title>
<a xlink:href="a00053.html" target="_top" xlink:title="Component that drives an AnimatedModel&#39;s animations.">
<polygon fill="none" stroke="black" points="579.5,-680.5 579.5,-701.5 734.5,-701.5 734.5,-680.5 579.5,-680.5"/>
<text text-anchor="middle" x="657" y="-688.5" font-family="FreeSans" font-size="10.00">Urho3D::AnimationController</text>
</a>
</g>
<!-- Node4&#45;&gt;Node5 -->
<g id="edge8" class="edge"><title>Node4&#45;&gt;Node5</title>
<path fill="none" stroke="midnightblue" d="M487.347,-371.677C498.095,-435.596 533.637,-628.281 578,-671 581.873,-674.729 586.336,-677.792 591.13,-680.304"/>
<polygon fill="midnightblue" stroke="midnightblue" points="490.768,-370.911 485.682,-361.616 483.862,-372.053 490.768,-370.911"/>
</g>
<!-- Node6 -->
<g id="node11" class="node"><title>Node6</title>
<a xlink:href="a00079.html" target="_top" xlink:title="Camera component.">
<polygon fill="none" stroke="black" points="608,-640.5 608,-661.5 706,-661.5 706,-640.5 608,-640.5"/>
<text text-anchor="middle" x="657" y="-648.5" font-family="FreeSans" font-size="10.00">Urho3D::Camera</text>
</a>
</g>
<!-- Node4&#45;&gt;Node6 -->
<g id="edge10" class="edge"><title>Node4&#45;&gt;Node6</title>
<path fill="none" stroke="midnightblue" d="M488.195,-371.354C500.566,-429.482 538.517,-594.407 578,-631 586.198,-638.598 596.859,-643.411 607.683,-646.434"/>
<polygon fill="midnightblue" stroke="midnightblue" points="491.608,-370.577 486.128,-361.509 484.758,-372.015 491.608,-370.577"/>
</g>
<!-- Node7 -->
<g id="node13" class="node"><title>Node7</title>
<a xlink:href="a00084.html" target="_top" xlink:title="Physics collision shape component.">
<polygon fill="none" stroke="black" points="592.5,-600.5 592.5,-621.5 721.5,-621.5 721.5,-600.5 592.5,-600.5"/>
<text text-anchor="middle" x="657" y="-608.5" font-family="FreeSans" font-size="10.00">Urho3D::CollisionShape</text>
</a>
</g>
<!-- Node4&#45;&gt;Node7 -->
<g id="edge12" class="edge"><title>Node4&#45;&gt;Node7</title>
<path fill="none" stroke="midnightblue" d="M485.853,-371.602C491.168,-418.084 510.719,-531.665 578,-591 582.351,-594.837 587.334,-597.958 592.636,-600.493"/>
<polygon fill="midnightblue" stroke="midnightblue" points="489.322,-371.127 484.809,-361.541 482.36,-371.849 489.322,-371.127"/>
</g>
<!-- Node8 -->
<g id="node15" class="node"><title>Node8</title>
<a xlink:href="a00096.html" target="_top" xlink:title="Physics constraint component. Connects two rigid bodies together, or one rigid body to a static point...">
<polygon fill="none" stroke="black" points="602.5,-560.5 602.5,-581.5 711.5,-581.5 711.5,-560.5 602.5,-560.5"/>
<text text-anchor="middle" x="657" y="-568.5" font-family="FreeSans" font-size="10.00">Urho3D::Constraint</text>
</a>
</g>
<!-- Node4&#45;&gt;Node8 -->
<g id="edge14" class="edge"><title>Node4&#45;&gt;Node8</title>
<path fill="none" stroke="midnightblue" d="M487.623,-371.477C495.927,-412.166 520.253,-503.369 578,-551 584.985,-556.762 593.415,-560.892 602.131,-563.848"/>
<polygon fill="midnightblue" stroke="midnightblue" points="491.055,-370.79 485.729,-361.631 484.181,-372.112 491.055,-370.79"/>
</g>
<!-- Node9 -->
<g id="node17" class="node"><title>Node9</title>
<a xlink:href="a00108.html" target="_top" xlink:title="Debug geometry rendering component. Should be added only to the root scene node.">
<polygon fill="none" stroke="black" points="590,-520.5 590,-541.5 724,-541.5 724,-520.5 590,-520.5"/>
<text text-anchor="middle" x="657" y="-528.5" font-family="FreeSans" font-size="10.00">Urho3D::DebugRenderer</text>
</a>
</g>
<!-- Node4&#45;&gt;Node9 -->
<g id="edge16" class="edge"><title>Node4&#45;&gt;Node9</title>
<path fill="none" stroke="midnightblue" d="M490.177,-371.346C501.662,-405.628 529.637,-474.706 578,-511 583.092,-514.821 588.835,-517.917 594.843,-520.425"/>
<polygon fill="midnightblue" stroke="midnightblue" points="493.412,-369.974 487.022,-361.523 486.748,-372.115 493.412,-369.974"/>
</g>
<!-- Node10 -->
<g id="node19" class="node"><title>Node10</title>
<a xlink:href="a00117.html" target="_top" xlink:title="Base class for visible components.">
<polygon fill="none" stroke="red" points="605,-480.5 605,-501.5 709,-501.5 709,-480.5 605,-480.5"/>
<text text-anchor="middle" x="657" y="-488.5" font-family="FreeSans" font-size="10.00">Urho3D::Drawable</text>
</a>
</g>
<!-- Node4&#45;&gt;Node10 -->
<g id="edge18" class="edge"><title>Node4&#45;&gt;Node10</title>
<path fill="none" stroke="midnightblue" d="M493.836,-370.417C508.457,-397.255 538.496,-445.28 578,-471 586.062,-476.249 595.416,-480.121 604.805,-482.977"/>
<polygon fill="midnightblue" stroke="midnightblue" points="496.927,-368.774 489.159,-361.569 490.738,-372.045 496.927,-368.774"/>
</g>
<!-- Node11 -->
<g id="node21" class="node"><title>Node11</title>
<a xlink:href="a00176.html" target="_top" xlink:title="Lua script object component.">
<polygon fill="none" stroke="black" points="584.5,-440.5 584.5,-461.5 729.5,-461.5 729.5,-440.5 584.5,-440.5"/>
<text text-anchor="middle" x="657" y="-448.5" font-family="FreeSans" font-size="10.00">Urho3D::LuaScriptInstance</text>
</a>
</g>
<!-- Node4&#45;&gt;Node11 -->
<g id="edge20" class="edge"><title>Node4&#45;&gt;Node11</title>
<path fill="none" stroke="midnightblue" d="M500.465,-369.235C517.959,-387.511 547.286,-415.145 578,-431 585.417,-434.829 593.612,-437.955 601.831,-440.499"/>
<polygon fill="midnightblue" stroke="midnightblue" points="502.684,-366.484 493.297,-361.572 497.572,-371.266 502.684,-366.484"/>
</g>
<!-- Node12 -->
<g id="node23" class="node"><title>Node12</title>
<a xlink:href="a00190.html" target="_top" xlink:title="Component which tags geometry for inclusion in the navigation mesh. Optionally auto&#45;includes geometry...">
<polygon fill="none" stroke="black" points="603.5,-400.5 603.5,-421.5 710.5,-421.5 710.5,-400.5 603.5,-400.5"/>
<text text-anchor="middle" x="657" y="-408.5" font-family="FreeSans" font-size="10.00">Urho3D::Navigable</text>
</a>
</g>
<!-- Node4&#45;&gt;Node12 -->
<g id="edge22" class="edge"><title>Node4&#45;&gt;Node12</title>
<path fill="none" stroke="midnightblue" d="M515.479,-365.838C533.515,-373.973 556.729,-383.83 578,-391 588.323,-394.48 599.583,-397.676 610.283,-400.444"/>
<polygon fill="midnightblue" stroke="midnightblue" points="516.586,-362.496 506.036,-361.524 513.677,-368.863 516.586,-362.496"/>
</g>
<!-- Node13 -->
<g id="node25" class="node"><title>Node13</title>
<a xlink:href="a00192.html" target="_top" xlink:title="Navigation mesh component. Collects the navigation geometry from child nodes with the Navigable compo...">
<polygon fill="none" stroke="black" points="589,-360.5 589,-381.5 725,-381.5 725,-360.5 589,-360.5"/>
<text text-anchor="middle" x="657" y="-368.5" font-family="FreeSans" font-size="10.00">Urho3D::NavigationMesh</text>
</a>
</g>
<!-- Node4&#45;&gt;Node13 -->
<g id="edge24" class="edge"><title>Node4&#45;&gt;Node13</title>
<path fill="none" stroke="midnightblue" d="M552.106,-358.874C564.2,-360.272 576.797,-361.728 588.891,-363.126"/>
<polygon fill="midnightblue" stroke="midnightblue" points="552.424,-355.387 542.088,-357.715 551.62,-362.341 552.424,-355.387"/>
</g>
<!-- Node14 -->
<g id="node27" class="node"><title>Node14</title>
<a xlink:href="a00194.html" target="_top" xlink:title="Network interest management settings component.">
<polygon fill="none" stroke="black" points="591.5,-320.5 591.5,-341.5 722.5,-341.5 722.5,-320.5 591.5,-320.5"/>
<text text-anchor="middle" x="657" y="-328.5" font-family="FreeSans" font-size="10.00">Urho3D::NetworkPriority</text>
</a>
</g>
<!-- Node4&#45;&gt;Node14 -->
<g id="edge26" class="edge"><title>Node4&#45;&gt;Node14</title>
<path fill="none" stroke="midnightblue" d="M552.256,-343.109C565.113,-341.623 578.535,-340.071 591.312,-338.594"/>
<polygon fill="midnightblue" stroke="midnightblue" points="551.62,-339.659 542.088,-344.285 552.424,-346.613 551.62,-339.659"/>
</g>
<!-- Node15 -->
<g id="node29" class="node"><title>Node15</title>
<a xlink:href="a00207.html" target="_top" xlink:title="Octree component. Should be added only to the root scene node">
<polygon fill="none" stroke="black" points="611,-280.5 611,-301.5 703,-301.5 703,-280.5 611,-280.5"/>
<text text-anchor="middle" x="657" y="-288.5" font-family="FreeSans" font-size="10.00">Urho3D::Octree</text>
</a>
</g>
<!-- Node4&#45;&gt;Node15 -->
<g id="edge28" class="edge"><title>Node4&#45;&gt;Node15</title>
<path fill="none" stroke="midnightblue" d="M527.357,-336.987C532.345,-335.099 537.317,-333.089 542,-331 558.716,-323.544 560.986,-317.747 578,-311 588.39,-306.88 599.89,-303.398 610.827,-300.553"/>
<polygon fill="midnightblue" stroke="midnightblue" points="526.021,-333.749 517.818,-340.454 528.412,-340.327 526.021,-333.749"/>
</g>
<!-- Node16 -->
<g id="node31" class="node"><title>Node16</title>
<a xlink:href="a00210.html" target="_top" xlink:title="A link between otherwise unconnected regions of the navigation mesh.">
<polygon fill="none" stroke="black" points="581,-240.5 581,-261.5 733,-261.5 733,-240.5 581,-240.5"/>
<text text-anchor="middle" x="657" y="-248.5" font-family="FreeSans" font-size="10.00">Urho3D::OffMeshConnection</text>
</a>
</g>
<!-- Node4&#45;&gt;Node16 -->
<g id="edge30" class="edge"><title>Node4&#45;&gt;Node16</title>
<path fill="none" stroke="midnightblue" d="M535.413,-335.62C537.725,-334.209 539.937,-332.673 542,-331 566.157,-311.416 553.041,-289.551 578,-271 583.11,-267.202 588.864,-264.122 594.879,-261.623"/>
<polygon fill="midnightblue" stroke="midnightblue" points="533.36,-332.743 526.105,-340.464 536.591,-338.953 533.36,-332.743"/>
</g>
<!-- Node17 -->
<g id="node33" class="node"><title>Node17</title>
<a xlink:href="a00221.html" target="_top" xlink:title="Physics simulation world component. Should be added only to the root scene node.">
<polygon fill="none" stroke="black" points="597,-200.5 597,-221.5 717,-221.5 717,-200.5 597,-200.5"/>
<text text-anchor="middle" x="657" y="-208.5" font-family="FreeSans" font-size="10.00">Urho3D::PhysicsWorld</text>
</a>
</g>
<!-- Node4&#45;&gt;Node17 -->
<g id="edge32" class="edge"><title>Node4&#45;&gt;Node17</title>
<path fill="none" stroke="midnightblue" d="M537.353,-334.993C538.993,-333.759 540.55,-332.431 542,-331 575.626,-297.825 543.009,-262.732 578,-231 583.45,-226.058 589.945,-222.298 596.836,-219.445"/>
<polygon fill="midnightblue" stroke="midnightblue" points="535.249,-332.178 528.572,-340.404 538.922,-338.137 535.249,-332.178"/>
</g>
<!-- Node18 -->
<g id="node35" class="node"><title>Node18</title>
<a xlink:href="a00250.html" target="_top" xlink:title="Physics rigid body component.">
<polygon fill="none" stroke="black" points="604,-160.5 604,-181.5 710,-181.5 710,-160.5 604,-160.5"/>
<text text-anchor="middle" x="657" y="-168.5" font-family="FreeSans" font-size="10.00">Urho3D::RigidBody</text>
</a>
</g>
<!-- Node4&#45;&gt;Node18 -->
<g id="edge34" class="edge"><title>Node4&#45;&gt;Node18</title>
<path fill="none" stroke="midnightblue" d="M538.094,-334.701C539.476,-333.55 540.783,-332.319 542,-331 585.567,-283.783 532.486,-236.344 578,-191 585.016,-184.01 594.102,-179.348 603.601,-176.262"/>
<polygon fill="midnightblue" stroke="midnightblue" points="535.87,-331.978 529.497,-340.441 539.757,-337.799 535.87,-331.978"/>
</g>
<!-- Node19 -->
<g id="node37" class="node"><title>Node19</title>
<a xlink:href="a00260.html" target="_top" xlink:title="Script object component.">
<polygon fill="none" stroke="black" points="593,-120.5 593,-141.5 721,-141.5 721,-120.5 593,-120.5"/>
<text text-anchor="middle" x="657" y="-128.5" font-family="FreeSans" font-size="10.00">Urho3D::ScriptInstance</text>
</a>
</g>
<!-- Node4&#45;&gt;Node19 -->
<g id="edge36" class="edge"><title>Node4&#45;&gt;Node19</title>
<path fill="none" stroke="midnightblue" d="M538.272,-334.714C539.596,-333.559 540.844,-332.324 542,-331 595.677,-269.561 521.788,-210.129 578,-151 582.192,-146.591 587.204,-143.099 592.643,-140.34"/>
<polygon fill="midnightblue" stroke="midnightblue" points="536.201,-331.891 529.986,-340.471 540.195,-337.639 536.201,-331.891"/>
</g>
<!-- Node20 -->
<g id="node39" class="node"><title>Node20</title>
<a xlink:href="a00277.html" target="_top" xlink:title="Transform smoothing component for network updates.">
<polygon fill="none" stroke="black" points="578.5,-80.5 578.5,-101.5 735.5,-101.5 735.5,-80.5 578.5,-80.5"/>
<text text-anchor="middle" x="657" y="-88.5" font-family="FreeSans" font-size="10.00">Urho3D::SmoothedTransform</text>
</a>
</g>
<!-- Node4&#45;&gt;Node20 -->
<g id="edge38" class="edge"><title>Node4&#45;&gt;Node20</title>
<path fill="none" stroke="midnightblue" d="M538.761,-334.378C539.908,-333.321 540.992,-332.196 542,-331 605.863,-255.251 511.009,-183.998 578,-111 581.444,-107.247 585.481,-104.155 589.877,-101.611"/>
<polygon fill="midnightblue" stroke="midnightblue" points="536.45,-331.73 530.401,-340.428 540.554,-337.401 536.45,-331.73"/>
</g>
<!-- Node21 -->
<g id="node41" class="node"><title>Node21</title>
<a xlink:href="a00279.html" target="_top" xlink:title="Sound listener component">
<polygon fill="none" stroke="black" points="593,-40.5 593,-61.5 721,-61.5 721,-40.5 593,-40.5"/>
<text text-anchor="middle" x="657" y="-48.5" font-family="FreeSans" font-size="10.00">Urho3D::SoundListener</text>
</a>
</g>
<!-- Node4&#45;&gt;Node21 -->
<g id="edge40" class="edge"><title>Node4&#45;&gt;Node21</title>
<path fill="none" stroke="midnightblue" d="M538.873,-334.343C539.981,-333.296 541.028,-332.183 542,-331 616.092,-240.892 500.186,-157.914 578,-71 582.152,-66.3621 587.211,-62.7277 592.742,-59.8887"/>
<polygon fill="midnightblue" stroke="midnightblue" points="536.724,-331.579 530.773,-340.345 540.891,-337.203 536.724,-331.579"/>
</g>
<!-- Node22 -->
<g id="node43" class="node"><title>Node22</title>
<a xlink:href="a00280.html" target="_top" xlink:title="Sound source component with stereo position.">
<polygon fill="none" stroke="red" points="595,-0.5 595,-21.5 719,-21.5 719,-0.5 595,-0.5"/>
<text text-anchor="middle" x="657" y="-8.5" font-family="FreeSans" font-size="10.00">Urho3D::SoundSource</text>
</a>
</g>
<!-- Node4&#45;&gt;Node22 -->
<g id="edge42" class="edge"><title>Node4&#45;&gt;Node22</title>
<path fill="none" stroke="midnightblue" d="M538.902,-334.366C540.002,-333.312 541.038,-332.191 542,-331 626.345,-226.502 489.337,-131.859 578,-31 582.671,-25.687 588.53,-21.6865 594.936,-18.6884"/>
<polygon fill="midnightblue" stroke="midnightblue" points="536.749,-331.606 530.843,-340.402 540.945,-337.209 536.749,-331.606"/>
</g>
</g>
</svg>
        <g id="navigator" transform="translate(0 0)" fill="#404254">
                <rect fill="#f2f5e9" fill-opacity="0.5" stroke="#606060" stroke-width=".5" x="0" y="0" width="60" height="60"/>
                <use id="zoomplus" xlink:href="#zoomPlus" x="17" y="9" onmousedown="handleZoom(evt,'in')"/>
                <use id="zoomminus" xlink:href="#zoomMin" x="42" y="9" onmousedown="handleZoom(evt,'out')"/>
                <use id="reset" xlink:href="#resetDef" x="30" y="36" onmousedown="handleReset()"/>
                <g id="arrowUp" xlink:href="#dirArrow" transform="translate(30 24)" onmousedown="handlePan(0,-1)">
                  <use xlink:href="#rim" fill="#404040">
                        <set attributeName="fill" to="#808080" begin="arrowUp.mouseover" end="arrowUp.mouseout"/>
                  </use>
                  <path fill="none" stroke="white" stroke-width="1.5" d="M0,-3.0v7 M-2.5,-0.5L0,-3.0L2.5,-0.5"/>
                </g>
                <g id="arrowRight" xlink:href="#dirArrow" transform="rotate(90) translate(36 -43)" onmousedown="handlePan(1,0)">
                  <use xlink:href="#rim" fill="#404040">
                        <set attributeName="fill" to="#808080" begin="arrowRight.mouseover" end="arrowRight.mouseout"/>
                  </use>
                  <path fill="none" stroke="white" stroke-width="1.5" d="M0,-3.0v7 M-2.5,-0.5L0,-3.0L2.5,-0.5"/>
                </g>
                <g id="arrowDown" xlink:href="#dirArrow" transform="rotate(180) translate(-30 -48)" onmousedown="handlePan(0,1)">
                  <use xlink:href="#rim" fill="#404040">
                        <set attributeName="fill" to="#808080" begin="arrowDown.mouseover" end="arrowDown.mouseout"/>
                  </use>
                  <path fill="none" stroke="white" stroke-width="1.5" d="M0,-3.0v7 M-2.5,-0.5L0,-3.0L2.5,-0.5"/>
                </g>
                <g id="arrowLeft" xlink:href="#dirArrow" transform="rotate(270) translate(-36 17)" onmousedown="handlePan(-1,0)">
                  <use xlink:href="#rim" fill="#404040">
                        <set attributeName="fill" to="#808080" begin="arrowLeft.mouseover" end="arrowLeft.mouseout"/>
                  </use>
                  <path fill="none" stroke="white" stroke-width="1.5" d="M0,-3.0v7 M-2.5,-0.5L0,-3.0L2.5,-0.5"/>
                </g>
        </g>
        <svg viewBox="0 0 15 15" width="100%" height="30px" preserveAspectRatio="xMaxYMin meet">
         <g id="arrow_out" transform="scale(0.3 0.3)">
          <a xlink:href="a01332_org.svg" target="_base">
           <rect id="button" ry="5" rx="5" y="6" x="6" height="38" width="38"
                fill="#f2f5e9" fill-opacity="0.5" stroke="#606060" stroke-width="1.0"/>
           <path id="arrow"
             d="M 11.500037,31.436501 C 11.940474,20.09759 22.043105,11.32322 32.158766,21.979434 L 37.068811,17.246167 C 37.068811,17.246167 37.088388,32 37.088388,32 L 22.160133,31.978069 C 22.160133,31.978069 26.997745,27.140456 26.997745,27.140456 C 18.528582,18.264221 13.291696,25.230495 11.500037,31.436501 z"
             style="fill:#404040;"/>
          </a>
         </g>
        </svg>
</svg>
