<?xml version="1.0" encoding="UTF-8" standalone="no"?>
<!DOCTYPE svg PUBLIC "-//W3C//DTD SVG 1.1//EN"
 "http://www.w3.org/Graphics/SVG/1.1/DTD/svg11.dtd">
<!-- Generated by graphviz version 2.26.3 (20100126.1600)
 -->
<!-- Title: Urho3D::Resource Pages: 1 -->
<!--zoomable 630 -->
<svg id="main" version="1.1" xmlns="http://www.w3.org/2000/svg" xmlns:xlink="http://www.w3.org/1999/xlink" xml:space="preserve" onload="init(evt)">
        <defs>
                <circle id="rim" cx="0" cy="0" r="7"/>
                <circle id="rim2" cx="0" cy="0" r="3.5"/>
                <g id="zoomPlus">
                        <use xlink:href="#rim" fill="#404040">
                                <set attributeName="fill" to="#808080" begin="zoomplus.mouseover" end="zoomplus.mouseout"/>
                        </use>
                        <path d="M-4,0h8M0,-4v8" fill="none" stroke="white" stroke-width="1.5" pointer-events="none"/>
                </g>
                <g id="zoomMin">
                        <use xlink:href="#rim" fill="#404040">
                                <set attributeName="fill" to="#808080" begin="zoomminus.mouseover" end="zoomminus.mouseout"/>
                        </use>
                        <path d="M-4,0h8" fill="none" stroke="white" stroke-width="1.5" pointer-events="none"/>
                </g>
                <g id="dirArrow">
                        <path fill="none" stroke="white" stroke-width="1.5" d="M0,-3.0v7 M-2.5,-0.5L0,-3.0L2.5,-0.5"/>
                </g>
               <g id="resetDef">
                       <use xlink:href="#rim2" fill="#404040">
                               <set attributeName="fill" to="#808080" begin="reset.mouseover" end="reset.mouseout"/>
                       </use>
               </g>
        </defs>

<script type="text/javascript">
var viewWidth = 716;
var viewHeight = 630;
var sectionId = 'dynsection-0';
</script>
<script xlink:href="svgpan.js"/>
<svg id="graph" class="graph">
<g id="viewport">
<title>Urho3D::Resource</title>
<!-- Node1 -->
<g id="node1" class="node"><title>Node1</title>
<polygon fill="#bfbfbf" stroke="black" points="276.5,-300.5 276.5,-321.5 379.5,-321.5 379.5,-300.5 276.5,-300.5"/>
<text text-anchor="middle" x="328" y="-308.5" font-family="FreeSans" font-size="10.00">Urho3D::Resource</text>
</g>
<!-- Node4 -->
<g id="node7" class="node"><title>Node4</title>
<a xlink:href="a00053.html" target="_top" xlink:title="Skeletal animation resource.">
<polygon fill="none" stroke="black" points="430,-600.5 430,-621.5 538,-621.5 538,-600.5 430,-600.5"/>
<text text-anchor="middle" x="484" y="-608.5" font-family="FreeSans" font-size="10.00">Urho3D::Animation</text>
</a>
</g>
<!-- Node1&#45;&gt;Node4 -->
<g id="edge6" class="edge"><title>Node1&#45;&gt;Node4</title>
<path fill="none" stroke="midnightblue" d="M331.886,-331.659C343.229,-389.9 377.911,-553.608 416,-591 420.039,-594.966 424.823,-598.152 429.952,-600.711"/>
<polygon fill="midnightblue" stroke="midnightblue" points="335.311,-330.936 329.989,-321.774 328.436,-332.255 335.311,-330.936"/>
</g>
<!-- Node5 -->
<g id="node9" class="node"><title>Node5</title>
<a xlink:href="a00054.html" target="_top" xlink:title="2D animation.">
<polygon fill="none" stroke="black" points="423,-560.5 423,-581.5 545,-581.5 545,-560.5 423,-560.5"/>
<text text-anchor="middle" x="484" y="-568.5" font-family="FreeSans" font-size="10.00">Urho3D::Animation2D</text>
</a>
</g>
<!-- Node1&#45;&gt;Node5 -->
<g id="edge8" class="edge"><title>Node1&#45;&gt;Node5</title>
<path fill="none" stroke="midnightblue" d="M329.49,-331.712C333.946,-377.96 351.217,-490.321 416,-551 420.042,-554.786 424.763,-557.858 429.801,-560.352"/>
<polygon fill="midnightblue" stroke="midnightblue" points="332.972,-331.351 328.63,-321.687 325.998,-331.95 332.972,-331.351"/>
</g>
<!-- Node6 -->
<g id="node11" class="node"><title>Node6</title>
<a xlink:href="a00133.html" target="_top" xlink:title="Font resource.">
<polygon fill="none" stroke="black" points="444,-520.5 444,-541.5 524,-541.5 524,-520.5 444,-520.5"/>
<text text-anchor="middle" x="484" y="-528.5" font-family="FreeSans" font-size="10.00">Urho3D::Font</text>
</a>
</g>
<!-- Node1&#45;&gt;Node6 -->
<g id="edge10" class="edge"><title>Node1&#45;&gt;Node6</title>
<path fill="none" stroke="midnightblue" d="M331.18,-331.525C338.534,-371.964 360.531,-462.235 416,-511 423.763,-517.825 433.753,-522.324 443.673,-525.29"/>
<polygon fill="midnightblue" stroke="midnightblue" points="334.605,-330.789 329.478,-321.517 327.704,-331.962 334.605,-330.789"/>
</g>
<!-- Node7 -->
<g id="node13" class="node"><title>Node7</title>
<a xlink:href="a00154.html" target="_top" xlink:title="Image resource.">
<polygon fill="none" stroke="black" points="439.5,-480.5 439.5,-501.5 528.5,-501.5 528.5,-480.5 439.5,-480.5"/>
<text text-anchor="middle" x="484" y="-488.5" font-family="FreeSans" font-size="10.00">Urho3D::Image</text>
</a>
</g>
<!-- Node1&#45;&gt;Node7 -->
<g id="edge12" class="edge"><title>Node1&#45;&gt;Node7</title>
<path fill="none" stroke="midnightblue" d="M333.698,-331.629C344.194,-365.763 369.845,-433.904 416,-471 422.81,-476.473 431.073,-480.449 439.46,-483.337"/>
<polygon fill="midnightblue" stroke="midnightblue" points="336.994,-330.43 330.816,-321.823 330.278,-332.404 336.994,-330.43"/>
</g>
<!-- Node8 -->
<g id="node15" class="node"><title>Node8</title>
<a xlink:href="a00178.html" target="_top" xlink:title="Lua file.">
<polygon fill="none" stroke="black" points="438,-440.5 438,-461.5 530,-461.5 530,-440.5 438,-440.5"/>
<text text-anchor="middle" x="484" y="-448.5" font-family="FreeSans" font-size="10.00">Urho3D::LuaFile</text>
</a>
</g>
<!-- Node1&#45;&gt;Node8 -->
<g id="edge14" class="edge"><title>Node1&#45;&gt;Node8</title>
<path fill="none" stroke="midnightblue" d="M337.401,-330.97C351.003,-357.71 378.688,-404.808 416,-431 422.547,-435.596 430.153,-439.147 437.858,-441.888"/>
<polygon fill="midnightblue" stroke="midnightblue" points="340.445,-329.229 332.887,-321.805 334.166,-332.322 340.445,-329.229"/>
</g>
<!-- Node9 -->
<g id="node17" class="node"><title>Node9</title>
<a xlink:href="a00182.html" target="_top" xlink:title="Describes how to render 3D geometries.">
<polygon fill="none" stroke="black" points="435,-400.5 435,-421.5 533,-421.5 533,-400.5 435,-400.5"/>
<text text-anchor="middle" x="484" y="-408.5" font-family="FreeSans" font-size="10.00">Urho3D::Material</text>
</a>
</g>
<!-- Node1&#45;&gt;Node9 -->
<g id="edge16" class="edge"><title>Node1&#45;&gt;Node9</title>
<path fill="none" stroke="midnightblue" d="M343.562,-329.339C359.879,-347.467 387.122,-374.774 416,-391 422.651,-394.737 430.069,-397.838 437.493,-400.39"/>
<polygon fill="midnightblue" stroke="midnightblue" points="346.101,-326.926 336.868,-321.73 340.845,-331.55 346.101,-326.926"/>
</g>
<!-- Node10 -->
<g id="node19" class="node"><title>Node10</title>
<a xlink:href="a00190.html" target="_top" xlink:title="3D model resource.">
<polygon fill="none" stroke="black" points="440,-360.5 440,-381.5 528,-381.5 528,-360.5 440,-360.5"/>
<text text-anchor="middle" x="484" y="-368.5" font-family="FreeSans" font-size="10.00">Urho3D::Model</text>
</a>
</g>
<!-- Node1&#45;&gt;Node10 -->
<g id="edge18" class="edge"><title>Node1&#45;&gt;Node10</title>
<path fill="none" stroke="midnightblue" d="M358.282,-326.04C375.051,-334.043 396.41,-343.708 416,-351 425.111,-354.391 435.074,-357.594 444.496,-360.402"/>
<polygon fill="midnightblue" stroke="midnightblue" points="359.514,-322.748 348.987,-321.551 356.47,-329.052 359.514,-322.748"/>
</g>
<!-- Node11 -->
<g id="node21" class="node"><title>Node11</title>
<a xlink:href="a00225.html" target="_top" xlink:title="2D particle emitter component.">
<polygon fill="none" stroke="black" points="416,-320.5 416,-341.5 552,-341.5 552,-320.5 416,-320.5"/>
<text text-anchor="middle" x="484" y="-328.5" font-family="FreeSans" font-size="10.00">Urho3D::ParticleModel2D</text>
</a>
</g>
<!-- Node1&#45;&gt;Node11 -->
<g id="edge20" class="edge"><title>Node1&#45;&gt;Node11</title>
<path fill="none" stroke="midnightblue" d="M389.506,-318.885C398.154,-319.994 407.084,-321.139 415.846,-322.262"/>
<polygon fill="midnightblue" stroke="midnightblue" points="389.876,-315.404 379.513,-317.604 388.986,-322.347 389.876,-315.404"/>
</g>
<!-- Node12 -->
<g id="node23" class="node"><title>Node12</title>
<a xlink:href="a00267.html" target="_top" xlink:title="Script file resource.">
<polygon fill="none" stroke="black" points="433,-280.5 433,-301.5 535,-301.5 535,-280.5 433,-280.5"/>
<text text-anchor="middle" x="484" y="-288.5" font-family="FreeSans" font-size="10.00">Urho3D::ScriptFile</text>
</a>
</g>
<!-- Node1&#45;&gt;Node12 -->
<g id="edge22" class="edge"><title>Node1&#45;&gt;Node12</title>
<path fill="none" stroke="midnightblue" d="M389.741,-303.084C404.013,-301.255 419.044,-299.328 432.808,-297.563"/>
<polygon fill="midnightblue" stroke="midnightblue" points="388.986,-299.653 379.513,-304.396 389.876,-306.596 388.986,-299.653"/>
</g>
<!-- Node13 -->
<g id="node25" class="node"><title>Node13</title>
<a xlink:href="a00273.html" target="_top" xlink:title="Shader resource consisting of several shader variations.">
<polygon fill="none" stroke="black" points="437,-240.5 437,-261.5 531,-261.5 531,-240.5 437,-240.5"/>
<text text-anchor="middle" x="484" y="-248.5" font-family="FreeSans" font-size="10.00">Urho3D::Shader</text>
</a>
</g>
<!-- Node1&#45;&gt;Node13 -->
<g id="edge24" class="edge"><title>Node1&#45;&gt;Node13</title>
<path fill="none" stroke="midnightblue" d="M358.282,-295.96C375.051,-287.957 396.41,-278.292 416,-271 425.111,-267.609 435.074,-264.406 444.496,-261.598"/>
<polygon fill="midnightblue" stroke="midnightblue" points="356.47,-292.948 348.987,-300.449 359.514,-299.252 356.47,-292.948"/>
</g>
<!-- Node14 -->
<g id="node27" class="node"><title>Node14</title>
<a xlink:href="a00286.html" target="_top" xlink:title="Sound resource.">
<polygon fill="none" stroke="black" points="439,-200.5 439,-221.5 529,-221.5 529,-200.5 439,-200.5"/>
<text text-anchor="middle" x="484" y="-208.5" font-family="FreeSans" font-size="10.00">Urho3D::Sound</text>
</a>
</g>
<!-- Node1&#45;&gt;Node14 -->
<g id="edge26" class="edge"><title>Node1&#45;&gt;Node14</title>
<path fill="none" stroke="midnightblue" d="M343.562,-292.661C359.879,-274.533 387.122,-247.226 416,-231 423.08,-227.021 431.03,-223.765 438.929,-221.123"/>
<polygon fill="midnightblue" stroke="midnightblue" points="340.845,-290.45 336.868,-300.27 346.101,-295.074 340.845,-290.45"/>
</g>
<!-- Node15 -->
<g id="node29" class="node"><title>Node15</title>
<a xlink:href="a00295.html" target="_top" xlink:title="Sprite.">
<polygon fill="none" stroke="black" points="433.5,-160.5 433.5,-181.5 534.5,-181.5 534.5,-160.5 433.5,-160.5"/>
<text text-anchor="middle" x="484" y="-168.5" font-family="FreeSans" font-size="10.00">Urho3D::Sprite2D</text>
</a>
</g>
<!-- Node1&#45;&gt;Node15 -->
<g id="edge28" class="edge"><title>Node1&#45;&gt;Node15</title>
<path fill="none" stroke="midnightblue" d="M337.401,-291.03C351.003,-264.29 378.688,-217.192 416,-191 421.439,-187.182 427.609,-184.085 433.959,-181.575"/>
<polygon fill="midnightblue" stroke="midnightblue" points="334.166,-289.678 332.887,-300.195 340.445,-292.771 334.166,-289.678"/>
</g>
<!-- Node16 -->
<g id="node31" class="node"><title>Node16</title>
<a xlink:href="a00296.html" target="_top" xlink:title="Sprite sheet.">
<polygon fill="none" stroke="black" points="419,-120.5 419,-141.5 549,-141.5 549,-120.5 419,-120.5"/>
<text text-anchor="middle" x="484" y="-128.5" font-family="FreeSans" font-size="10.00">Urho3D::SpriteSheet2D</text>
</a>
</g>
<!-- Node1&#45;&gt;Node16 -->
<g id="edge30" class="edge"><title>Node1&#45;&gt;Node16</title>
<path fill="none" stroke="midnightblue" d="M333.698,-290.371C344.194,-256.237 369.845,-188.096 416,-151 420.796,-147.146 426.312,-144.034 432.085,-141.522"/>
<polygon fill="midnightblue" stroke="midnightblue" points="330.278,-289.596 330.816,-300.177 336.994,-291.57 330.278,-289.596"/>
</g>
<!-- Node17 -->
<g id="node33" class="node"><title>Node17</title>
<a xlink:href="a00303.html" target="_top" xlink:title="Material technique. Consists of several passes.">
<polygon fill="none" stroke="black" points="430.5,-80.5 430.5,-101.5 537.5,-101.5 537.5,-80.5 430.5,-80.5"/>
<text text-anchor="middle" x="484" y="-88.5" font-family="FreeSans" font-size="10.00">Urho3D::Technique</text>
</a>
</g>
<!-- Node1&#45;&gt;Node17 -->
<g id="edge32" class="edge"><title>Node1&#45;&gt;Node17</title>
<path fill="none" stroke="midnightblue" d="M331.18,-290.475C338.534,-250.036 360.531,-159.765 416,-111 420.344,-107.181 425.384,-104.091 430.72,-101.589"/>
<polygon fill="midnightblue" stroke="midnightblue" points="327.704,-290.038 329.478,-300.483 334.605,-291.211 327.704,-290.038"/>
</g>
<!-- Node18 -->
<g id="node35" class="node"><title>Node18</title>
<a xlink:href="a00309.html" target="_top" xlink:title="Base class for texture resources.">
<polygon fill="none" stroke="black" points="437,-40.5 437,-61.5 531,-61.5 531,-40.5 437,-40.5"/>
<text text-anchor="middle" x="484" y="-48.5" font-family="FreeSans" font-size="10.00">Urho3D::Texture</text>
</a>
</g>
<!-- Node1&#45;&gt;Node18 -->
<g id="edge34" class="edge"><title>Node1&#45;&gt;Node18</title>
<path fill="none" stroke="midnightblue" d="M329.49,-290.288C333.946,-244.04 351.217,-131.679 416,-71 421.838,-65.532 429.095,-61.5514 436.674,-58.6553"/>
<polygon fill="midnightblue" stroke="midnightblue" points="325.998,-290.05 328.63,-300.313 332.972,-290.649 325.998,-290.05"/>
</g>
<!-- Node22 -->
<g id="node43" class="node"><title>Node22</title>
<a xlink:href="a00346.html" target="_top" xlink:title="XML document resource.">
<polygon fill="none" stroke="black" points="437,-0.5 437,-21.5 531,-21.5 531,-0.5 437,-0.5"/>
<text text-anchor="middle" x="484" y="-8.5" font-family="FreeSans" font-size="10.00">Urho3D::XMLFile</text>
</a>
</g>
<!-- Node1&#45;&gt;Node22 -->
<g id="edge42" class="edge"><title>Node1&#45;&gt;Node22</title>
<path fill="none" stroke="midnightblue" d="M331.886,-290.341C343.229,-232.1 377.911,-68.3921 416,-31 421.796,-25.3103 429.123,-21.2251 436.806,-18.2951"/>
<polygon fill="midnightblue" stroke="midnightblue" points="328.436,-289.745 329.989,-300.226 335.311,-291.064 328.436,-289.745"/>
</g>
<!-- Node2 -->
<g id="node2" class="node"><title>Node2</title>
<a xlink:href="a00207.html" target="_top" xlink:title="Base class for objects with type identification, subsystem access and event sending/receiving capabil...">
<polygon fill="none" stroke="black" points="150,-300.5 150,-321.5 240,-321.5 240,-300.5 150,-300.5"/>
<text text-anchor="middle" x="195" y="-308.5" font-family="FreeSans" font-size="10.00">Urho3D::Object</text>
</a>
</g>
<!-- Node2&#45;&gt;Node1 -->
<g id="edge2" class="edge"><title>Node2&#45;&gt;Node1</title>
<path fill="none" stroke="midnightblue" d="M250.297,-311C258.852,-311 267.662,-311 276.138,-311"/>
<polygon fill="midnightblue" stroke="midnightblue" points="250.028,-307.5 240.028,-311 250.028,-314.5 250.028,-307.5"/>
</g>
<!-- Node3 -->
<g id="node4" class="node"><title>Node3</title>
<a xlink:href="a00245.html" target="_top" xlink:title="Base class for intrusively reference&#45;counted objects. These are noncopyable and non&#45;assignable.">
<polygon fill="none" stroke="black" points="0,-300.5 0,-321.5 114,-321.5 114,-300.5 0,-300.5"/>
<text text-anchor="middle" x="57" y="-308.5" font-family="FreeSans" font-size="10.00">Urho3D::RefCounted</text>
</a>
</g>
<!-- Node3&#45;&gt;Node2 -->
<g id="edge4" class="edge"><title>Node3&#45;&gt;Node2</title>
<path fill="none" stroke="midnightblue" d="M124.403,-311C133.027,-311 141.686,-311 149.838,-311"/>
<polygon fill="midnightblue" stroke="midnightblue" points="124.326,-307.5 114.326,-311 124.326,-314.5 124.326,-307.5"/>
</g>
<!-- Node19 -->
<g id="node37" class="node"><title>Node19</title>
<a xlink:href="a00310.html" target="_top" xlink:title="2D texture resource.">
<polygon fill="none" stroke="black" points="594.5,-80.5 594.5,-101.5 701.5,-101.5 701.5,-80.5 594.5,-80.5"/>
<text text-anchor="middle" x="648" y="-88.5" font-family="FreeSans" font-size="10.00">Urho3D::Texture2D</text>
</a>
</g>
<!-- Node18&#45;&gt;Node19 -->
<g id="edge36" class="edge"><title>Node18&#45;&gt;Node19</title>
<path fill="none" stroke="midnightblue" d="M536.935,-63.911C558.914,-69.2718 584.093,-75.413 604.914,-80.4913"/>
<polygon fill="midnightblue" stroke="midnightblue" points="537.634,-60.4788 527.089,-61.5095 535.975,-67.2795 537.634,-60.4788"/>
</g>
<!-- Node20 -->
<g id="node39" class="node"><title>Node20</title>
<a xlink:href="a00311.html" target="_top" xlink:title="3D texture resource.">
<polygon fill="none" stroke="black" points="594.5,-40.5 594.5,-61.5 701.5,-61.5 701.5,-40.5 594.5,-40.5"/>
<text text-anchor="middle" x="648" y="-48.5" font-family="FreeSans" font-size="10.00">Urho3D::Texture3D</text>
</a>
</g>
<!-- Node18&#45;&gt;Node20 -->
<g id="edge38" class="edge"><title>Node18&#45;&gt;Node20</title>
<path fill="none" stroke="midnightblue" d="M541.84,-51C558.916,-51 577.527,-51 594.329,-51"/>
<polygon fill="midnightblue" stroke="midnightblue" points="541.436,-47.5001 531.436,-51 541.436,-54.5001 541.436,-47.5001"/>
</g>
<!-- Node21 -->
<g id="node41" class="node"><title>Node21</title>
<a xlink:href="a00312.html" target="_top" xlink:title="Cube texture resource.">
<polygon fill="none" stroke="black" points="588.5,-0.5 588.5,-21.5 707.5,-21.5 707.5,-0.5 588.5,-0.5"/>
<text text-anchor="middle" x="648" y="-8.5" font-family="FreeSans" font-size="10.00">Urho3D::TextureCube</text>
</a>
</g>
<!-- Node18&#45;&gt;Node21 -->
<g id="edge40" class="edge"><title>Node18&#45;&gt;Node21</title>
<path fill="none" stroke="midnightblue" d="M536.935,-38.089C558.914,-32.7282 584.093,-26.587 604.914,-21.5087"/>
<polygon fill="midnightblue" stroke="midnightblue" points="535.975,-34.7205 527.089,-40.4905 537.634,-41.5212 535.975,-34.7205"/>
</g>
</g>
</svg>
        <g id="navigator" transform="translate(0 0)" fill="#404254">
                <rect fill="#f2f5e9" fill-opacity="0.5" stroke="#606060" stroke-width=".5" x="0" y="0" width="60" height="60"/>
                <use id="zoomplus" xlink:href="#zoomPlus" x="17" y="9" onmousedown="handleZoom(evt,'in')"/>
                <use id="zoomminus" xlink:href="#zoomMin" x="42" y="9" onmousedown="handleZoom(evt,'out')"/>
                <use id="reset" xlink:href="#resetDef" x="30" y="36" onmousedown="handleReset()"/>
                <g id="arrowUp" xlink:href="#dirArrow" transform="translate(30 24)" onmousedown="handlePan(0,-1)">
                  <use xlink:href="#rim" fill="#404040">
                        <set attributeName="fill" to="#808080" begin="arrowUp.mouseover" end="arrowUp.mouseout"/>
                  </use>
                  <path fill="none" stroke="white" stroke-width="1.5" d="M0,-3.0v7 M-2.5,-0.5L0,-3.0L2.5,-0.5"/>
                </g>
                <g id="arrowRight" xlink:href="#dirArrow" transform="rotate(90) translate(36 -43)" onmousedown="handlePan(1,0)">
                  <use xlink:href="#rim" fill="#404040">
                        <set attributeName="fill" to="#808080" begin="arrowRight.mouseover" end="arrowRight.mouseout"/>
                  </use>
                  <path fill="none" stroke="white" stroke-width="1.5" d="M0,-3.0v7 M-2.5,-0.5L0,-3.0L2.5,-0.5"/>
                </g>
                <g id="arrowDown" xlink:href="#dirArrow" transform="rotate(180) translate(-30 -48)" onmousedown="handlePan(0,1)">
                  <use xlink:href="#rim" fill="#404040">
                        <set attributeName="fill" to="#808080" begin="arrowDown.mouseover" end="arrowDown.mouseout"/>
                  </use>
                  <path fill="none" stroke="white" stroke-width="1.5" d="M0,-3.0v7 M-2.5,-0.5L0,-3.0L2.5,-0.5"/>
                </g>
                <g id="arrowLeft" xlink:href="#dirArrow" transform="rotate(270) translate(-36 17)" onmousedown="handlePan(-1,0)">
                  <use xlink:href="#rim" fill="#404040">
                        <set attributeName="fill" to="#808080" begin="arrowLeft.mouseover" end="arrowLeft.mouseout"/>
                  </use>
                  <path fill="none" stroke="white" stroke-width="1.5" d="M0,-3.0v7 M-2.5,-0.5L0,-3.0L2.5,-0.5"/>
                </g>
        </g>
        <svg viewBox="0 0 15 15" width="100%" height="30px" preserveAspectRatio="xMaxYMin meet">
         <g id="arrow_out" transform="scale(0.3 0.3)">
          <a xlink:href="a01319_org.svg" target="_base">
           <rect id="button" ry="5" rx="5" y="6" x="6" height="38" width="38"
                fill="#f2f5e9" fill-opacity="0.5" stroke="#606060" stroke-width="1.0"/>
           <path id="arrow"
             d="M 11.500037,31.436501 C 11.940474,20.09759 22.043105,11.32322 32.158766,21.979434 L 37.068811,17.246167 C 37.068811,17.246167 37.088388,32 37.088388,32 L 22.160133,31.978069 C 22.160133,31.978069 26.997745,27.140456 26.997745,27.140456 C 18.528582,18.264221 13.291696,25.230495 11.500037,31.436501 z"
             style="fill:#404040;"/>
          </a>
         </g>
        </svg>
</svg>
