<?xml version="1.0" encoding="UTF-8" standalone="no"?>
<!DOCTYPE svg PUBLIC "-//W3C//DTD SVG 1.1//EN"
 "http://www.w3.org/Graphics/SVG/1.1/DTD/svg11.dtd">
<!-- Generated by graphviz version 2.26.3 (20100126.1600)
 -->
<!-- Title: Urho3D::Skybox Pages: 1 -->
<!--zoomable 610 -->
<svg id="main" version="1.1" xmlns="http://www.w3.org/2000/svg" xmlns:xlink="http://www.w3.org/1999/xlink" xml:space="preserve" onload="init(evt)">
        <defs>
                <circle id="rim" cx="0" cy="0" r="7"/>
                <circle id="rim2" cx="0" cy="0" r="3.5"/>
                <g id="zoomPlus">
                        <use xlink:href="#rim" fill="#404040">
                                <set attributeName="fill" to="#808080" begin="zoomplus.mouseover" end="zoomplus.mouseout"/>
                        </use>
                        <path d="M-4,0h8M0,-4v8" fill="none" stroke="white" stroke-width="1.5" pointer-events="none"/>
                </g>
                <g id="zoomMin">
                        <use xlink:href="#rim" fill="#404040">
                                <set attributeName="fill" to="#808080" begin="zoomminus.mouseover" end="zoomminus.mouseout"/>
                        </use>
                        <path d="M-4,0h8" fill="none" stroke="white" stroke-width="1.5" pointer-events="none"/>
                </g>
                <g id="dirArrow">
                        <path fill="none" stroke="white" stroke-width="1.5" d="M0,-3.0v7 M-2.5,-0.5L0,-3.0L2.5,-0.5"/>
                </g>
               <g id="resetDef">
                       <use xlink:href="#rim2" fill="#404040">
                               <set attributeName="fill" to="#808080" begin="reset.mouseover" end="reset.mouseout"/>
                       </use>
               </g>
        </defs>

<script type="text/javascript">
var viewWidth = 1652;
var viewHeight = 610;
var sectionId = 'dynsection-1';
</script>
<script xlink:href="svgpan.js"/>
<svg id="graph" class="graph">
<g id="viewport">
<title>Urho3D::Skybox</title>
<!-- Node1 -->
<g id="node1" class="node"><title>Node1</title>
<polygon fill="#bfbfbf" stroke="black" points="1524,-129.26 1524,-150.26 1618,-150.26 1618,-129.26 1524,-129.26"/>
<text text-anchor="middle" x="1571" y="-137.26" font-family="FreeSans" font-size="10.00">Urho3D::Skybox</text>
</g>
<!-- Node2 -->
<g id="node2" class="node"><title>Node2</title>
<a xlink:href="a00347.html" target="_top" xlink:title="Static model component.">
<polygon fill="none" stroke="black" points="1228,-154.26 1228,-175.26 1344,-175.26 1344,-154.26 1228,-154.26"/>
<text text-anchor="middle" x="1286" y="-162.26" font-family="FreeSans" font-size="10.00">Urho3D::StaticModel</text>
</a>
</g>
<!-- Node2&#45;&gt;Node1 -->
<g id="edge2" class="edge"><title>Node2&#45;&gt;Node1</title>
<path fill="none" stroke="midnightblue" d="M1354.24,-158.774C1406.65,-154.176 1477.67,-147.947 1523.9,-143.891"/>
<polygon fill="midnightblue" stroke="midnightblue" points="1353.67,-155.31 1344.02,-159.671 1354.29,-162.283 1353.67,-155.31"/>
</g>
<!-- Node3 -->
<g id="node4" class="node"><title>Node3</title>
<a xlink:href="a00149.html" target="_top" xlink:title="Base class for visible components.">
<polygon fill="none" stroke="black" points="902,-385.26 902,-406.26 1006,-406.26 1006,-385.26 902,-385.26"/>
<text text-anchor="middle" x="954" y="-393.26" font-family="FreeSans" font-size="10.00">Urho3D::Drawable</text>
</a>
</g>
<!-- Node3&#45;&gt;Node2 -->
<g id="edge4" class="edge"><title>Node3&#45;&gt;Node2</title>
<path fill="none" stroke="midnightblue" d="M982.689,-380.25C1030.69,-353.788 1129.55,-297.097 1206,-238.76 1232.77,-218.331 1260.99,-190.535 1275.7,-175.493"/>
<polygon fill="midnightblue" stroke="midnightblue" points="980.873,-377.254 973.788,-385.131 984.239,-383.391 980.873,-377.254"/>
</g>
<!-- Node10 -->
<g id="node21" class="node"><title>Node10</title>
<a xlink:href="a00410.html" target="_top" xlink:title="Component that describes global rendering properties">
<polygon fill="none" stroke="red" points="1243.5,-485.26 1243.5,-506.26 1328.5,-506.26 1328.5,-485.26 1243.5,-485.26"/>
<text text-anchor="middle" x="1286" y="-493.26" font-family="FreeSans" font-size="10.00">Urho3D::Zone</text>
</a>
</g>
<!-- Node3&#45;&gt;Node10 -->
<g id="edge26" class="edge"><title>Node3&#45;&gt;Node10</title>
<path fill="none" stroke="midnightblue" d="M1016.29,-405.016C1089.48,-415.948 1201.62,-432.897 1206,-434.76 1234.28,-446.801 1261.49,-471.118 1275.73,-485.14"/>
<polygon fill="midnightblue" stroke="midnightblue" points="1016.64,-401.53 1006.23,-403.515 1015.6,-408.453 1016.64,-401.53"/>
</g>
<!-- Node17 -->
<g id="node38" class="node"><title>Node17</title>
<a xlink:href="a00203.html" target="_top" xlink:title="Light component.">
<polygon fill="none" stroke="red" points="1244.5,-385.26 1244.5,-406.26 1327.5,-406.26 1327.5,-385.26 1244.5,-385.26"/>
<text text-anchor="middle" x="1286" y="-393.26" font-family="FreeSans" font-size="10.00">Urho3D::Light</text>
</a>
</g>
<!-- Node3&#45;&gt;Node17 -->
<g id="edge46" class="edge"><title>Node3&#45;&gt;Node17</title>
<path fill="none" stroke="midnightblue" d="M1016.61,-395.76C1083.3,-395.76 1186.96,-395.76 1244.3,-395.76"/>
<polygon fill="midnightblue" stroke="midnightblue" points="1016.24,-392.26 1006.24,-395.76 1016.24,-399.26 1016.24,-392.26"/>
</g>
<!-- Node4 -->
<g id="node6" class="node"><title>Node4</title>
<a xlink:href="a00105.html" target="_top" xlink:title="Base class for components. Components can be created to scene nodes.">
<polygon fill="none" stroke="black" points="559,-406.26 559,-427.26 675,-427.26 675,-406.26 559,-406.26"/>
<text text-anchor="middle" x="617" y="-414.26" font-family="FreeSans" font-size="10.00">Urho3D::Component</text>
</a>
</g>
<!-- Node4&#45;&gt;Node3 -->
<g id="edge6" class="edge"><title>Node4&#45;&gt;Node3</title>
<path fill="none" stroke="midnightblue" d="M685.326,-412.502C749.381,-408.511 843.757,-402.63 901.923,-399.005"/>
<polygon fill="midnightblue" stroke="midnightblue" points="685.079,-409.011 675.316,-413.126 685.515,-415.997 685.079,-409.011"/>
</g>
<!-- Node5 -->
<g id="node8" class="node"><title>Node5</title>
<a xlink:href="a00054.html" target="_top" xlink:title="Base class for animatable object, an animatable object can be set animation on it&#39;s attributes...">
<polygon fill="none" stroke="red" points="0,-385.26 0,-406.26 114,-406.26 114,-385.26 0,-385.26"/>
<text text-anchor="middle" x="57" y="-393.26" font-family="FreeSans" font-size="10.00">Urho3D::Animatable</text>
</a>
</g>
<!-- Node5&#45;&gt;Node4 -->
<g id="edge8" class="edge"><title>Node5&#45;&gt;Node4</title>
<path fill="none" stroke="midnightblue" d="M124.292,-390.482C215.375,-384.57 382.757,-378.074 524,-396.76 540.863,-398.991 559.212,-402.664 575.121,-406.258"/>
<polygon fill="midnightblue" stroke="midnightblue" points="123.852,-387.003 114.107,-391.161 124.318,-393.988 123.852,-387.003"/>
</g>
<!-- Node6 -->
<g id="node10" class="node"><title>Node6</title>
<a xlink:href="a00242.html" target="_top" xlink:title="Scene node that may contain components and child nodes.">
<polygon fill="none" stroke="red" points="247.5,-398.26 247.5,-419.26 332.5,-419.26 332.5,-398.26 247.5,-398.26"/>
<text text-anchor="middle" x="290" y="-406.26" font-family="FreeSans" font-size="10.00">Urho3D::Node</text>
</a>
</g>
<!-- Node5&#45;&gt;Node6 -->
<g id="edge12" class="edge"><title>Node5&#45;&gt;Node6</title>
<path fill="none" stroke="midnightblue" d="M124.411,-399.521C164.01,-401.73 212.868,-404.456 247.216,-406.373"/>
<polygon fill="midnightblue" stroke="midnightblue" points="124.476,-396.019 114.297,-398.957 124.086,-403.009 124.476,-396.019"/>
</g>
<!-- Node6&#45;&gt;Node4 -->
<g id="edge10" class="edge"><title>Node6&#45;&gt;Node4</title>
<path fill="none" stroke="#9a32cd" stroke-dasharray="5,2" d="M342.802,-404.902C390.271,-402.083 461.876,-399.439 524,-403.76 535.222,-404.541 547.151,-405.845 558.59,-407.334"/>
<polygon fill="#9a32cd" stroke="#9a32cd" points="342.521,-401.413 332.755,-405.523 342.952,-408.399 342.521,-401.413"/>
<text text-anchor="middle" x="455" y="-407.76" font-family="FreeSans" font-size="10.00"> node_</text>
</g>
<!-- Node6&#45;&gt;Node6 -->
<g id="edge14" class="edge"><title>Node6&#45;&gt;Node6</title>
<path fill="none" stroke="#9a32cd" stroke-dasharray="5,2" d="M266.78,-429.187C268.571,-434.109 276.311,-437.76 290,-437.76 311.902,-437.76 318.576,-428.413 310.02,-419.468"/>
<polygon fill="#9a32cd" stroke="#9a32cd" points="270.176,-430.061 269.98,-419.468 263.528,-427.871 270.176,-430.061"/>
<text text-anchor="middle" x="290" y="-441.76" font-family="FreeSans" font-size="10.00"> parent_</text>
</g>
<!-- Node7 -->
<g id="node14" class="node"><title>Node7</title>
<a xlink:href="a00353.html" target="_top" xlink:title="32&#45;bit hash value for a string.">
<polygon fill="none" stroke="black" points="0.5,-303.26 0.5,-324.26 113.5,-324.26 113.5,-303.26 0.5,-303.26"/>
<text text-anchor="middle" x="57" y="-311.26" font-family="FreeSans" font-size="10.00">Urho3D::StringHash</text>
</a>
</g>
<!-- Node7&#45;&gt;Node6 -->
<g id="edge16" class="edge"><title>Node7&#45;&gt;Node6</title>
<path fill="none" stroke="#9a32cd" stroke-dasharray="5,2" d="M92.3394,-328.169C139.569,-347.426 222.171,-381.104 264.059,-398.183"/>
<polygon fill="#9a32cd" stroke="#9a32cd" points="93.4067,-324.824 82.8253,-324.29 90.7638,-331.306 93.4067,-324.824"/>
<text text-anchor="middle" x="163" y="-370.76" font-family="FreeSans" font-size="10.00"> nameHash_</text>
</g>
<!-- Node7&#45;&gt;Node7 -->
<g id="edge18" class="edge"><title>Node7&#45;&gt;Node7</title>
<path fill="none" stroke="#9a32cd" stroke-dasharray="5,2" d="M37.4653,-334.187C38.9723,-339.109 45.4839,-342.76 57,-342.76 75.4258,-342.76 81.0399,-333.413 73.8423,-324.468"/>
<polygon fill="#9a32cd" stroke="#9a32cd" points="40.8609,-335.039 40.1577,-324.468 34.1149,-333.17 40.8609,-335.039"/>
<text text-anchor="middle" x="57" y="-346.76" font-family="FreeSans" font-size="10.00"> ZERO</text>
</g>
<!-- Node19 -->
<g id="node47" class="node"><title>Node19</title>
<a xlink:href="a00303.html" target="_top" xlink:title="List of typed resource references.">
<polygon fill="none" stroke="black" points="550,-163.26 550,-184.26 684,-184.26 684,-163.26 550,-163.26"/>
<text text-anchor="middle" x="617" y="-171.26" font-family="FreeSans" font-size="10.00">Urho3D::ResourceRefList</text>
</a>
</g>
<!-- Node7&#45;&gt;Node19 -->
<g id="edge64" class="edge"><title>Node7&#45;&gt;Node19</title>
<path fill="none" stroke="#9a32cd" stroke-dasharray="5,2" d="M123.772,-305.94C236.365,-291.792 458.158,-259.501 524,-217.76 535.261,-210.621 530.95,-201.222 542,-193.76 547.696,-189.914 554.099,-186.806 560.701,-184.296"/>
<polygon fill="#9a32cd" stroke="#9a32cd" points="123.046,-302.503 113.555,-307.211 123.91,-309.449 123.046,-302.503"/>
<text text-anchor="middle" x="290" y="-296.76" font-family="FreeSans" font-size="10.00"> type_</text>
</g>
<!-- Node8 -->
<g id="node17" class="node"><title>Node8</title>
<a xlink:href="a00184.html" target="_top" xlink:title="Urho3D::HashSet\&lt; Urho3D\l::Camera * \&gt;">
<polygon fill="none" stroke="black" points="542.5,-242.76 542.5,-276.76 691.5,-276.76 691.5,-242.76 542.5,-242.76"/>
<text text-anchor="start" x="550.5" y="-263.76" font-family="FreeSans" font-size="10.00">Urho3D::HashSet&lt; Urho3D</text>
<text text-anchor="middle" x="617" y="-250.76" font-family="FreeSans" font-size="10.00">::Camera * &gt;</text>
</a>
</g>
<!-- Node8&#45;&gt;Node3 -->
<g id="edge20" class="edge"><title>Node8&#45;&gt;Node3</title>
<path fill="none" stroke="#9a32cd" stroke-dasharray="5,2" d="M701.823,-250.752C755.796,-249.049 825.211,-254.635 878,-285.76 917.591,-309.103 941.403,-362.14 950.161,-384.974"/>
<polygon fill="#9a32cd" stroke="#9a32cd" points="701.439,-247.265 691.589,-251.168 701.723,-254.259 701.439,-247.265"/>
<text text-anchor="middle" x="794" y="-289.76" font-family="FreeSans" font-size="10.00"> viewCameras_</text>
</g>
<!-- Node9 -->
<g id="node19" class="node"><title>Node9</title>
<a xlink:href="a00180.html" target="_top" xlink:title="Hash set/map base class.">
<polygon fill="none" stroke="red" points="236,-57.26 236,-78.26 344,-78.26 344,-57.26 236,-57.26"/>
<text text-anchor="middle" x="290" y="-65.26" font-family="FreeSans" font-size="10.00">Urho3D::HashBase</text>
</a>
</g>
<!-- Node9&#45;&gt;Node8 -->
<g id="edge22" class="edge"><title>Node9&#45;&gt;Node8</title>
<path fill="none" stroke="midnightblue" d="M353.615,-76.8337C359.011,-79.6404 363.945,-83.2166 368,-87.76 406.841,-131.276 345.636,-175.653 386,-217.76 425.561,-259.029 491.107,-267.686 542.293,-267.076"/>
<polygon fill="midnightblue" stroke="midnightblue" points="354.743,-73.5096 344.172,-72.8018 351.994,-79.9474 354.743,-73.5096"/>
</g>
<!-- Node25 -->
<g id="node65" class="node"><title>Node25</title>
<a xlink:href="a00182.html" target="_top" xlink:title="Urho3D::HashMap\&lt; Urho3D\l::Camera *, Urho3D::Matrix3x4 \&gt;">
<polygon fill="none" stroke="black" points="1030,-71.76 1030,-105.76 1206,-105.76 1206,-71.76 1030,-71.76"/>
<text text-anchor="start" x="1038" y="-92.76" font-family="FreeSans" font-size="10.00">Urho3D::HashMap&lt; Urho3D</text>
<text text-anchor="middle" x="1118" y="-79.76" font-family="FreeSans" font-size="10.00">::Camera *, Urho3D::Matrix3x4 &gt;</text>
</a>
</g>
<!-- Node9&#45;&gt;Node25 -->
<g id="edge84" class="edge"><title>Node9&#45;&gt;Node25</title>
<path fill="none" stroke="midnightblue" d="M354.217,-69.3887C501.225,-73.1171 862.404,-82.2775 1029.97,-86.5273"/>
<polygon fill="midnightblue" stroke="midnightblue" points="354.094,-65.8845 344.008,-69.1298 353.916,-72.8823 354.094,-65.8845"/>
</g>
<!-- Node10&#45;&gt;Node3 -->
<g id="edge24" class="edge"><title>Node10&#45;&gt;Node3</title>
<path fill="none" stroke="#9a32cd" stroke-dasharray="5,2" d="M1260.73,-479.957C1245.44,-471.138 1225.25,-460.752 1206,-454.76 1130.68,-431.314 1105.68,-454.028 1030,-431.76 1009.27,-425.661 987.108,-414.582 972.098,-406.319"/>
<polygon fill="#9a32cd" stroke="#9a32cd" points="1259.17,-483.102 1269.56,-485.192 1262.74,-477.081 1259.17,-483.102"/>
<text text-anchor="middle" x="1118" y="-458.76" font-family="FreeSans" font-size="10.00"> zone_</text>
</g>
<!-- Node11 -->
<g id="node24" class="node"><title>Node11</title>
<a xlink:href="a00401.html" target="_top" xlink:title="Urho3D::WeakPtr\&lt; Urho3D\l::Zone \&gt;">
<polygon fill="none" stroke="red" points="1498,-478.76 1498,-512.76 1644,-512.76 1644,-478.76 1498,-478.76"/>
<text text-anchor="start" x="1506" y="-499.76" font-family="FreeSans" font-size="10.00">Urho3D::WeakPtr&lt; Urho3D</text>
<text text-anchor="middle" x="1571" y="-486.76" font-family="FreeSans" font-size="10.00">::Zone &gt;</text>
</a>
</g>
<!-- Node10&#45;&gt;Node11 -->
<g id="edge30" class="edge"><title>Node10&#45;&gt;Node11</title>
<path fill="none" stroke="#9a32cd" stroke-dasharray="5,2" d="M1338.77,-502.543C1347.84,-503.466 1357.18,-504.265 1366,-504.76 1416.59,-507.597 1429.39,-507.256 1480,-504.76 1485.71,-504.478 1491.61,-504.098 1497.54,-503.652"/>
<polygon fill="#9a32cd" stroke="#9a32cd" points="1339.01,-499.049 1328.69,-501.458 1338.26,-506.009 1339.01,-499.049"/>
<text text-anchor="middle" x="1423" y="-510.76" font-family="FreeSans" font-size="10.00"> ptr_</text>
</g>
<!-- Node11&#45;&gt;Node10 -->
<g id="edge28" class="edge"><title>Node11&#45;&gt;Node10</title>
<path fill="none" stroke="#9a32cd" stroke-dasharray="5,2" d="M1518.83,-475.42C1506.3,-471.417 1492.83,-467.82 1480,-465.76 1429.97,-457.727 1415.85,-456.72 1366,-465.76 1345.57,-469.465 1323.56,-478.09 1307.81,-485.146"/>
<polygon fill="#9a32cd" stroke="#9a32cd" points="1518.06,-478.85 1528.65,-478.696 1520.27,-472.21 1518.06,-478.85"/>
<text text-anchor="start" x="1366.5" y="-495.76" font-family="FreeSans" font-size="10.00"> lastAmbientEndZone</text>
<text text-anchor="middle" x="1423" y="-482.76" font-family="FreeSans" font-size="10.00">_</text>
<text text-anchor="middle" x="1423" y="-469.76" font-family="FreeSans" font-size="10.00">lastAmbientStartZone_</text>
</g>
<!-- Node12 -->
<g id="node27" class="node"><title>Node12</title>
<a xlink:href="a00329.html" target="_top" xlink:title="Urho3D::SharedPtr\&lt;\l Urho3D::Texture \&gt;">
<polygon fill="none" stroke="red" points="896,-497.76 896,-531.76 1012,-531.76 1012,-497.76 896,-497.76"/>
<text text-anchor="start" x="904" y="-518.76" font-family="FreeSans" font-size="10.00">Urho3D::SharedPtr&lt;</text>
<text text-anchor="middle" x="954" y="-505.76" font-family="FreeSans" font-size="10.00"> Urho3D::Texture &gt;</text>
</a>
</g>
<!-- Node12&#45;&gt;Node10 -->
<g id="edge32" class="edge"><title>Node12&#45;&gt;Node10</title>
<path fill="none" stroke="#9a32cd" stroke-dasharray="5,2" d="M1022.29,-520.301C1073.15,-523.218 1144.19,-524.737 1206,-516.76 1221.95,-514.701 1239.26,-510.425 1253.68,-506.264"/>
<polygon fill="#9a32cd" stroke="#9a32cd" points="1022.26,-516.793 1012.07,-519.681 1021.84,-523.78 1022.26,-516.793"/>
<text text-anchor="middle" x="1118" y="-525.76" font-family="FreeSans" font-size="10.00"> zoneTexture_</text>
</g>
<!-- Node12&#45;&gt;Node17 -->
<g id="edge48" class="edge"><title>Node12&#45;&gt;Node17</title>
<path fill="none" stroke="#9a32cd" stroke-dasharray="5,2" d="M1004.54,-494.192C1012.94,-491.34 1021.64,-488.721 1030,-486.76 1106.6,-468.803 1134.17,-499.854 1206,-467.76 1237.39,-453.735 1264.99,-422.676 1278.02,-406.314"/>
<polygon fill="#9a32cd" stroke="#9a32cd" points="1003.11,-490.985 994.852,-497.622 1005.45,-497.583 1003.11,-490.985"/>
<text text-anchor="middle" x="1118" y="-503.76" font-family="FreeSans" font-size="10.00"> shapeTexture_</text>
<text text-anchor="middle" x="1118" y="-490.76" font-family="FreeSans" font-size="10.00">rampTexture_</text>
</g>
<!-- Node13 -->
<g id="node29" class="node"><title>Node13</title>
<a xlink:href="a00087.html" target="_top" xlink:title="Three&#45;dimensional axis&#45;aligned bounding box.">
<polygon fill="none" stroke="red" points="229,-484.26 229,-505.26 351,-505.26 351,-484.26 229,-484.26"/>
<text text-anchor="middle" x="290" y="-492.26" font-family="FreeSans" font-size="10.00">Urho3D::BoundingBox</text>
</a>
</g>
<!-- Node13&#45;&gt;Node3 -->
<g id="edge50" class="edge"><title>Node13&#45;&gt;Node3</title>
<path fill="none" stroke="#9a32cd" stroke-dasharray="5,2" d="M361.175,-489.383C472.404,-480.126 693.783,-458.256 878,-418.76 893.097,-415.523 909.531,-410.716 923.242,-406.333"/>
<polygon fill="#9a32cd" stroke="#9a32cd" points="360.764,-485.905 351.084,-490.214 361.338,-492.882 360.764,-485.905"/>
<text text-anchor="middle" x="617" y="-487.76" font-family="FreeSans" font-size="10.00"> worldBoundingBox_</text>
<text text-anchor="middle" x="617" y="-474.76" font-family="FreeSans" font-size="10.00">boundingBox_</text>
</g>
<!-- Node13&#45;&gt;Node10 -->
<g id="edge34" class="edge"><title>Node13&#45;&gt;Node10</title>
<path fill="none" stroke="#9a32cd" stroke-dasharray="5,2" d="M318.319,-510.029C337.126,-519.742 362.577,-532.079 386,-540.76 453.327,-565.712 470.818,-573.345 542,-582.76 731.399,-607.81 1132.76,-560.559 1206,-538.76 1230.18,-531.563 1255.39,-516.565 1270.89,-506.329"/>
<polygon fill="#9a32cd" stroke="#9a32cd" points="319.88,-506.896 309.397,-505.361 316.635,-513.098 319.88,-506.896"/>
<text text-anchor="middle" x="794" y="-592.76" font-family="FreeSans" font-size="10.00"> lastWorldBoundingBox_</text>
</g>
<!-- Node18 -->
<g id="node43" class="node"><title>Node18</title>
<a xlink:href="a00252.html" target="_top" xlink:title="Octree octant">
<polygon fill="none" stroke="red" points="571,-508.26 571,-529.26 663,-529.26 663,-508.26 571,-508.26"/>
<text text-anchor="middle" x="617" y="-516.26" font-family="FreeSans" font-size="10.00">Urho3D::Octant</text>
</a>
</g>
<!-- Node13&#45;&gt;Node18 -->
<g id="edge54" class="edge"><title>Node13&#45;&gt;Node18</title>
<path fill="none" stroke="#9a32cd" stroke-dasharray="5,2" d="M361.097,-499.978C424.8,-504.654 516.366,-511.374 570.948,-515.38"/>
<polygon fill="#9a32cd" stroke="#9a32cd" points="361.352,-496.488 351.123,-499.246 360.84,-503.469 361.352,-496.488"/>
<text text-anchor="middle" x="455" y="-527.76" font-family="FreeSans" font-size="10.00"> cullingBox_</text>
<text text-anchor="middle" x="455" y="-514.76" font-family="FreeSans" font-size="10.00">worldBoundingBox_</text>
</g>
<!-- Node22 -->
<g id="node55" class="node"><title>Node22</title>
<a xlink:href="a00231.html" target="_top" xlink:title="3D model resource.">
<polygon fill="none" stroke="red" points="573,-203.26 573,-224.26 661,-224.26 661,-203.26 573,-203.26"/>
<text text-anchor="middle" x="617" y="-211.26" font-family="FreeSans" font-size="10.00">Urho3D::Model</text>
</a>
</g>
<!-- Node13&#45;&gt;Node22 -->
<g id="edge74" class="edge"><title>Node13&#45;&gt;Node22</title>
<path fill="none" stroke="#9a32cd" stroke-dasharray="5,2" d="M330.616,-480.33C343.205,-474.885 356.722,-467.981 368,-459.76 377.664,-452.716 375.514,-445.51 386,-439.76 440.521,-409.864 481.532,-462.178 524,-416.76 551.909,-386.913 515.547,-264.905 542,-233.76 549.764,-224.619 561.195,-219.416 572.804,-216.519"/>
<polygon fill="#9a32cd" stroke="#9a32cd" points="329.131,-477.157 321.223,-484.207 331.802,-483.627 329.131,-477.157"/>
<text text-anchor="middle" x="455" y="-443.76" font-family="FreeSans" font-size="10.00"> boundingBox_</text>
</g>
<!-- Node14 -->
<g id="node31" class="node"><title>Node14</title>
<a xlink:href="a00276.html" target="_top" xlink:title="Urho3D::PODVector\&lt;\l Urho3D::Light * \&gt;">
<polygon fill="none" stroke="black" points="395.5,-281.76 395.5,-315.76 514.5,-315.76 514.5,-281.76 395.5,-281.76"/>
<text text-anchor="start" x="403.5" y="-302.76" font-family="FreeSans" font-size="10.00">Urho3D::PODVector&lt;</text>
<text text-anchor="middle" x="455" y="-289.76" font-family="FreeSans" font-size="10.00"> Urho3D::Light * &gt;</text>
</a>
</g>
<!-- Node14&#45;&gt;Node3 -->
<g id="edge36" class="edge"><title>Node14&#45;&gt;Node3</title>
<path fill="none" stroke="#9a32cd" stroke-dasharray="5,2" d="M524.89,-301.378C572.278,-303.882 636.203,-308.685 692,-317.76 776.053,-331.43 797.179,-336.933 878,-363.76 896.343,-369.849 916.475,-378.414 931.408,-385.152"/>
<polygon fill="#9a32cd" stroke="#9a32cd" points="524.9,-297.874 514.736,-300.863 524.546,-304.865 524.9,-297.874"/>
<text text-anchor="middle" x="617" y="-334.76" font-family="FreeSans" font-size="10.00"> vertexLights_</text>
<text text-anchor="middle" x="617" y="-321.76" font-family="FreeSans" font-size="10.00">lights_</text>
</g>
<!-- Node15 -->
<g id="node33" class="node"><title>Node15</title>
<a xlink:href="a00391.html" target="_top" xlink:title="Vector base class.">
<polygon fill="none" stroke="black" points="0,-162.26 0,-183.26 114,-183.26 114,-162.26 0,-162.26"/>
<text text-anchor="middle" x="57" y="-170.26" font-family="FreeSans" font-size="10.00">Urho3D::VectorBase</text>
</a>
</g>
<!-- Node15&#45;&gt;Node14 -->
<g id="edge38" class="edge"><title>Node15&#45;&gt;Node14</title>
<path fill="none" stroke="midnightblue" d="M117.593,-185.441C194.599,-201.924 322.935,-230.727 368,-248.76 389.835,-257.498 412.835,-270.924 429.699,-281.665"/>
<polygon fill="midnightblue" stroke="midnightblue" points="118.053,-181.96 107.543,-183.297 116.593,-188.806 118.053,-181.96"/>
</g>
<!-- Node16 -->
<g id="node35" class="node"><title>Node16</title>
<a xlink:href="a00387.html" target="_top" xlink:title="Urho3D::Vector\&lt; Urho3D\l::SourceBatch \&gt;">
<polygon fill="none" stroke="black" points="386,-320.76 386,-354.76 524,-354.76 524,-320.76 386,-320.76"/>
<text text-anchor="start" x="394" y="-341.76" font-family="FreeSans" font-size="10.00">Urho3D::Vector&lt; Urho3D</text>
<text text-anchor="middle" x="455" y="-328.76" font-family="FreeSans" font-size="10.00">::SourceBatch &gt;</text>
</a>
</g>
<!-- Node15&#45;&gt;Node16 -->
<g id="edge42" class="edge"><title>Node15&#45;&gt;Node16</title>
<path fill="none" stroke="midnightblue" d="M86.4717,-187.96C100.193,-194.866 116.808,-202.987 132,-209.76 166.976,-225.354 175.78,-229.327 212,-241.76 280.251,-265.189 310.8,-242.768 368,-286.76 380.326,-296.239 373.744,-307.191 386,-316.76 387.777,-318.147 389.644,-319.443 391.582,-320.653"/>
<polygon fill="midnightblue" stroke="midnightblue" points="87.9892,-184.805 77.4873,-183.404 84.8236,-191.048 87.9892,-184.805"/>
</g>
<!-- Node20 -->
<g id="node49" class="node"><title>Node20</title>
<a xlink:href="a00387.html" target="_top" xlink:title="Urho3D::Vector\&lt; Urho3D\l::String \&gt;">
<polygon fill="none" stroke="black" points="221,-96.76 221,-130.76 359,-130.76 359,-96.76 221,-96.76"/>
<text text-anchor="start" x="229" y="-117.76" font-family="FreeSans" font-size="10.00">Urho3D::Vector&lt; Urho3D</text>
<text text-anchor="middle" x="290" y="-104.76" font-family="FreeSans" font-size="10.00">::String &gt;</text>
</a>
</g>
<!-- Node15&#45;&gt;Node20 -->
<g id="edge62" class="edge"><title>Node15&#45;&gt;Node20</title>
<path fill="none" stroke="midnightblue" d="M108.716,-159.664C142.288,-151.163 186.383,-139.998 222.678,-130.807"/>
<polygon fill="midnightblue" stroke="midnightblue" points="107.491,-156.364 98.6557,-162.212 109.209,-163.15 107.491,-156.364"/>
</g>
<!-- Node23 -->
<g id="node57" class="node"><title>Node23</title>
<a xlink:href="a00387.html" target="_top" xlink:title="Urho3D::Vector\&lt; Urho3D\l::Vector\&lt; Urho3D::SharedPtr\l\&lt; Urho3D::Geometry \&gt; \&gt; \&gt;">
<polygon fill="none" stroke="black" points="212.5,-149.26 212.5,-196.26 367.5,-196.26 367.5,-149.26 212.5,-149.26"/>
<text text-anchor="start" x="220.5" y="-183.26" font-family="FreeSans" font-size="10.00">Urho3D::Vector&lt; Urho3D</text>
<text text-anchor="start" x="220.5" y="-170.26" font-family="FreeSans" font-size="10.00">::Vector&lt; Urho3D::SharedPtr</text>
<text text-anchor="middle" x="290" y="-157.26" font-family="FreeSans" font-size="10.00">&lt; Urho3D::Geometry &gt; &gt; &gt;</text>
</a>
</g>
<!-- Node15&#45;&gt;Node23 -->
<g id="edge72" class="edge"><title>Node15&#45;&gt;Node23</title>
<path fill="none" stroke="midnightblue" d="M124.574,-172.76C151.999,-172.76 183.843,-172.76 212.227,-172.76"/>
<polygon fill="midnightblue" stroke="midnightblue" points="124.297,-169.26 114.297,-172.76 124.297,-176.26 124.297,-169.26"/>
</g>
<!-- Node24 -->
<g id="node62" class="node"><title>Node24</title>
<a xlink:href="a00276.html" target="_top" xlink:title="Urho3D::PODVector\&lt;\l Urho3D::StaticModelGeometry\lData \&gt;">
<polygon fill="none" stroke="black" points="710.5,-6.26 710.5,-53.26 877.5,-53.26 877.5,-6.26 710.5,-6.26"/>
<text text-anchor="start" x="718.5" y="-40.26" font-family="FreeSans" font-size="10.00">Urho3D::PODVector&lt;</text>
<text text-anchor="start" x="718.5" y="-27.26" font-family="FreeSans" font-size="10.00"> Urho3D::StaticModelGeometry</text>
<text text-anchor="middle" x="794" y="-14.26" font-family="FreeSans" font-size="10.00">Data &gt;</text>
</a>
</g>
<!-- Node15&#45;&gt;Node24 -->
<g id="edge80" class="edge"><title>Node15&#45;&gt;Node24</title>
<path fill="none" stroke="midnightblue" d="M72.414,-154.263C97.9284,-125.22 152.106,-69.9488 212,-47.76 380.022,14.4867 594.38,-0.834605 710.361,-16.1511"/>
<polygon fill="midnightblue" stroke="midnightblue" points="69.5905,-152.178 65.7182,-162.04 74.8952,-156.745 69.5905,-152.178"/>
</g>
<!-- Node16&#45;&gt;Node3 -->
<g id="edge40" class="edge"><title>Node16&#45;&gt;Node3</title>
<path fill="none" stroke="#9a32cd" stroke-dasharray="5,2" d="M534.159,-346.961C637.162,-358.933 814.29,-379.521 901.861,-389.7"/>
<polygon fill="#9a32cd" stroke="#9a32cd" points="534.459,-343.472 524.122,-345.794 533.651,-350.425 534.459,-343.472"/>
<text text-anchor="middle" x="617" y="-367.76" font-family="FreeSans" font-size="10.00"> batches_</text>
</g>
<!-- Node17&#45;&gt;Node3 -->
<g id="edge44" class="edge"><title>Node17&#45;&gt;Node3</title>
<path fill="none" stroke="#9a32cd" stroke-dasharray="5,2" d="M1251.98,-381.554C1238,-376.437 1221.48,-371.302 1206,-368.76 1128.81,-356.086 1107.09,-355.474 1030,-368.76 1011.65,-371.923 991.851,-379.087 977.065,-385.241"/>
<polygon fill="#9a32cd" stroke="#9a32cd" points="1251.08,-384.953 1261.67,-385.238 1253.56,-378.411 1251.08,-384.953"/>
<text text-anchor="middle" x="1118" y="-372.76" font-family="FreeSans" font-size="10.00"> firstLight_</text>
</g>
<!-- Node18&#45;&gt;Node3 -->
<g id="edge52" class="edge"><title>Node18&#45;&gt;Node3</title>
<path fill="none" stroke="#9a32cd" stroke-dasharray="5,2" d="M673.539,-520.33C728.791,-519.544 813.731,-512.006 878,-477.76 910.205,-460.6 936.096,-424.42 947.579,-406.411"/>
<polygon fill="#9a32cd" stroke="#9a32cd" points="673.215,-516.832 663.24,-520.403 673.265,-523.832 673.215,-516.832"/>
<text text-anchor="middle" x="794" y="-521.76" font-family="FreeSans" font-size="10.00"> octant_</text>
</g>
<!-- Node18&#45;&gt;Node18 -->
<g id="edge56" class="edge"><title>Node18&#45;&gt;Node18</title>
<path fill="none" stroke="#9a32cd" stroke-dasharray="5,2" d="M586.987,-538.815C588.955,-543.924 598.96,-547.76 617,-547.76 645.16,-547.76 653.74,-538.413 642.74,-529.468"/>
<polygon fill="#9a32cd" stroke="#9a32cd" points="590.285,-540.018 591.26,-529.468 583.919,-537.107 590.285,-540.018"/>
<text text-anchor="middle" x="617" y="-564.76" font-family="FreeSans" font-size="10.00"> parent_</text>
<text text-anchor="middle" x="617" y="-551.76" font-family="FreeSans" font-size="10.00">children_</text>
</g>
<!-- Node19&#45;&gt;Node2 -->
<g id="edge58" class="edge"><title>Node19&#45;&gt;Node2</title>
<path fill="none" stroke="#9a32cd" stroke-dasharray="5,2" d="M694.503,-172.717C829.954,-170.895 1106.8,-167.171 1227.53,-165.547"/>
<polygon fill="#9a32cd" stroke="#9a32cd" points="694.161,-169.222 684.209,-172.856 694.256,-176.221 694.161,-169.222"/>
<text text-anchor="middle" x="954" y="-173.76" font-family="FreeSans" font-size="10.00"> materialsAttr_</text>
</g>
<!-- Node20&#45;&gt;Node19 -->
<g id="edge60" class="edge"><title>Node20&#45;&gt;Node19</title>
<path fill="none" stroke="#9a32cd" stroke-dasharray="5,2" d="M369.348,-128.319C428.17,-139.112 506.971,-153.571 559.737,-163.253"/>
<polygon fill="#9a32cd" stroke="#9a32cd" points="369.816,-124.847 359.348,-126.484 368.552,-131.732 369.816,-124.847"/>
<text text-anchor="middle" x="455" y="-159.76" font-family="FreeSans" font-size="10.00"> names_</text>
</g>
<!-- Node21 -->
<g id="node53" class="node"><title>Node21</title>
<a xlink:href="a00329.html" target="_top" xlink:title="Urho3D::SharedPtr\&lt;\l Urho3D::Model \&gt;">
<polygon fill="none" stroke="black" points="896,-211.76 896,-245.76 1012,-245.76 1012,-211.76 896,-211.76"/>
<text text-anchor="start" x="904" y="-232.76" font-family="FreeSans" font-size="10.00">Urho3D::SharedPtr&lt;</text>
<text text-anchor="middle" x="954" y="-219.76" font-family="FreeSans" font-size="10.00"> Urho3D::Model &gt;</text>
</a>
</g>
<!-- Node21&#45;&gt;Node2 -->
<g id="edge66" class="edge"><title>Node21&#45;&gt;Node2</title>
<path fill="none" stroke="#9a32cd" stroke-dasharray="5,2" d="M1022.52,-223.704C1073.65,-218.924 1144.92,-210.125 1206,-194.76 1225.28,-189.911 1246.29,-181.919 1261.94,-175.402"/>
<polygon fill="#9a32cd" stroke="#9a32cd" points="1021.89,-220.246 1012.25,-224.635 1022.53,-227.217 1021.89,-220.246"/>
<text text-anchor="middle" x="1118" y="-225.76" font-family="FreeSans" font-size="10.00"> model_</text>
</g>
<!-- Node22&#45;&gt;Node21 -->
<g id="edge68" class="edge"><title>Node22&#45;&gt;Node21</title>
<path fill="none" stroke="#9a32cd" stroke-dasharray="5,2" d="M671.335,-216.178C732.859,-218.917 832.72,-223.362 895.798,-226.169"/>
<polygon fill="#9a32cd" stroke="#9a32cd" points="671.203,-212.669 661.057,-215.721 670.891,-219.662 671.203,-212.669"/>
<text text-anchor="middle" x="794" y="-228.76" font-family="FreeSans" font-size="10.00"> ptr_</text>
</g>
<!-- Node23&#45;&gt;Node2 -->
<g id="edge76" class="edge"><title>Node23&#45;&gt;Node2</title>
<path fill="none" stroke="#9a32cd" stroke-dasharray="5,2" d="M377.807,-164.639C426.195,-160.542 487.363,-155.98 542,-153.76 797.244,-143.391 1102.1,-155.605 1227.62,-161.7"/>
<polygon fill="#9a32cd" stroke="#9a32cd" points="377.347,-161.165 367.682,-165.505 377.944,-168.14 377.347,-161.165"/>
<text text-anchor="middle" x="794" y="-153.76" font-family="FreeSans" font-size="10.00"> geometries_</text>
</g>
<!-- Node23&#45;&gt;Node22 -->
<g id="edge70" class="edge"><title>Node23&#45;&gt;Node22</title>
<path fill="none" stroke="#9a32cd" stroke-dasharray="5,2" d="M377.846,-183.774C440.837,-191.672 523.048,-201.98 572.836,-208.223"/>
<polygon fill="#9a32cd" stroke="#9a32cd" points="378.267,-180.3 367.909,-182.528 377.396,-187.245 378.267,-180.3"/>
<text text-anchor="middle" x="455" y="-204.76" font-family="FreeSans" font-size="10.00"> geometries_</text>
</g>
<!-- Node24&#45;&gt;Node2 -->
<g id="edge78" class="edge"><title>Node24&#45;&gt;Node2</title>
<path fill="none" stroke="#9a32cd" stroke-dasharray="5,2" d="M887.637,-9.03861C979.461,5.43196 1118.11,10.8432 1206,-62.76 1229.97,-82.8322 1204.73,-106.139 1224,-130.76 1232.09,-141.105 1244.25,-148.742 1255.67,-154.127"/>
<polygon fill="#9a32cd" stroke="#9a32cd" points="886.814,-5.62681 877.513,-10.7005 887.948,-12.5344 886.814,-5.62681"/>
<text text-anchor="middle" x="954" y="-11.76" font-family="FreeSans" font-size="10.00"> geometryData_</text>
</g>
<!-- Node25&#45;&gt;Node1 -->
<g id="edge82" class="edge"><title>Node25&#45;&gt;Node1</title>
<path fill="none" stroke="#9a32cd" stroke-dasharray="5,2" d="M1216.36,-99.8332C1311.41,-110.535 1451.35,-126.289 1523.74,-134.44"/>
<polygon fill="#9a32cd" stroke="#9a32cd" points="1216.48,-96.3249 1206.15,-98.6841 1215.69,-103.281 1216.48,-96.3249"/>
<text text-anchor="middle" x="1286" y="-117.76" font-family="FreeSans" font-size="10.00"> customWorldTransforms_</text>
</g>
</g>
</svg>
        <g id="navigator" transform="translate(0 0)" fill="#404254">
                <rect fill="#f2f5e9" fill-opacity="0.5" stroke="#606060" stroke-width=".5" x="0" y="0" width="60" height="60"/>
                <use id="zoomplus" xlink:href="#zoomPlus" x="17" y="9" onmousedown="handleZoom(evt,'in')"/>
                <use id="zoomminus" xlink:href="#zoomMin" x="42" y="9" onmousedown="handleZoom(evt,'out')"/>
                <use id="reset" xlink:href="#resetDef" x="30" y="36" onmousedown="handleReset()"/>
                <g id="arrowUp" xlink:href="#dirArrow" transform="translate(30 24)" onmousedown="handlePan(0,-1)">
                  <use xlink:href="#rim" fill="#404040">
                        <set attributeName="fill" to="#808080" begin="arrowUp.mouseover" end="arrowUp.mouseout"/>
                  </use>
                  <path fill="none" stroke="white" stroke-width="1.5" d="M0,-3.0v7 M-2.5,-0.5L0,-3.0L2.5,-0.5"/>
                </g>
                <g id="arrowRight" xlink:href="#dirArrow" transform="rotate(90) translate(36 -43)" onmousedown="handlePan(1,0)">
                  <use xlink:href="#rim" fill="#404040">
                        <set attributeName="fill" to="#808080" begin="arrowRight.mouseover" end="arrowRight.mouseout"/>
                  </use>
                  <path fill="none" stroke="white" stroke-width="1.5" d="M0,-3.0v7 M-2.5,-0.5L0,-3.0L2.5,-0.5"/>
                </g>
                <g id="arrowDown" xlink:href="#dirArrow" transform="rotate(180) translate(-30 -48)" onmousedown="handlePan(0,1)">
                  <use xlink:href="#rim" fill="#404040">
                        <set attributeName="fill" to="#808080" begin="arrowDown.mouseover" end="arrowDown.mouseout"/>
                  </use>
                  <path fill="none" stroke="white" stroke-width="1.5" d="M0,-3.0v7 M-2.5,-0.5L0,-3.0L2.5,-0.5"/>
                </g>
                <g id="arrowLeft" xlink:href="#dirArrow" transform="rotate(270) translate(-36 17)" onmousedown="handlePan(-1,0)">
                  <use xlink:href="#rim" fill="#404040">
                        <set attributeName="fill" to="#808080" begin="arrowLeft.mouseover" end="arrowLeft.mouseout"/>
                  </use>
                  <path fill="none" stroke="white" stroke-width="1.5" d="M0,-3.0v7 M-2.5,-0.5L0,-3.0L2.5,-0.5"/>
                </g>
        </g>
        <svg viewBox="0 0 15 15" width="100%" height="30px" preserveAspectRatio="xMaxYMin meet">
         <g id="arrow_out" transform="scale(0.3 0.3)">
          <a xlink:href="a01300_org.svg" target="_base">
           <rect id="button" ry="5" rx="5" y="6" x="6" height="38" width="38"
                fill="#f2f5e9" fill-opacity="0.5" stroke="#606060" stroke-width="1.0"/>
           <path id="arrow"
             d="M 11.500037,31.436501 C 11.940474,20.09759 22.043105,11.32322 32.158766,21.979434 L 37.068811,17.246167 C 37.068811,17.246167 37.088388,32 37.088388,32 L 22.160133,31.978069 C 22.160133,31.978069 26.997745,27.140456 26.997745,27.140456 C 18.528582,18.264221 13.291696,25.230495 11.500037,31.436501 z"
             style="fill:#404040;"/>
          </a>
         </g>
        </svg>
</svg>
