<?xml version="1.0" encoding="UTF-8" standalone="no"?>
<!DOCTYPE svg PUBLIC "-//W3C//DTD SVG 1.1//EN"
 "http://www.w3.org/Graphics/SVG/1.1/DTD/svg11.dtd">
<!-- Generated by graphviz version 2.26.3 (20100126.1600)
 -->
<!-- Title: Urho3D::PhysicsRaycastResult Pages: 1 -->
<!--zoomable 694 -->
<svg id="main" version="1.1" xmlns="http://www.w3.org/2000/svg" xmlns:xlink="http://www.w3.org/1999/xlink" xml:space="preserve" onload="init(evt)">
        <defs>
                <circle id="rim" cx="0" cy="0" r="7"/>
                <circle id="rim2" cx="0" cy="0" r="3.5"/>
                <g id="zoomPlus">
                        <use xlink:href="#rim" fill="#404040">
                                <set attributeName="fill" to="#808080" begin="zoomplus.mouseover" end="zoomplus.mouseout"/>
                        </use>
                        <path d="M-4,0h8M0,-4v8" fill="none" stroke="white" stroke-width="1.5" pointer-events="none"/>
                </g>
                <g id="zoomMin">
                        <use xlink:href="#rim" fill="#404040">
                                <set attributeName="fill" to="#808080" begin="zoomminus.mouseover" end="zoomminus.mouseout"/>
                        </use>
                        <path d="M-4,0h8" fill="none" stroke="white" stroke-width="1.5" pointer-events="none"/>
                </g>
                <g id="dirArrow">
                        <path fill="none" stroke="white" stroke-width="1.5" d="M0,-3.0v7 M-2.5,-0.5L0,-3.0L2.5,-0.5"/>
                </g>
               <g id="resetDef">
                       <use xlink:href="#rim2" fill="#404040">
                               <set attributeName="fill" to="#808080" begin="reset.mouseover" end="reset.mouseout"/>
                       </use>
               </g>
        </defs>

<script type="text/javascript">
var viewWidth = 2002;
var viewHeight = 694;
var sectionId = 'dynsection-0';
</script>
<script xlink:href="svgpan.js"/>
<svg id="graph" class="graph">
<g id="viewport">
<title>Urho3D::PhysicsRaycastResult</title>
<!-- Node1 -->
<g id="node1" class="node"><title>Node1</title>
<polygon fill="#bfbfbf" stroke="black" points="1832.5,-483.723 1832.5,-504.723 1993.5,-504.723 1993.5,-483.723 1832.5,-483.723"/>
<text text-anchor="middle" x="1913" y="-491.723" font-family="FreeSans" font-size="10.00">Urho3D::PhysicsRaycastResult</text>
</g>
<!-- Node2 -->
<g id="node2" class="node"><title>Node2</title>
<a xlink:href="a00345.html" target="_top" xlink:title="Three&#45;dimensional vector.">
<polygon fill="none" stroke="black" points="550,-542.723 550,-563.723 646,-563.723 646,-542.723 550,-542.723"/>
<text text-anchor="middle" x="598" y="-550.723" font-family="FreeSans" font-size="10.00">Urho3D::Vector3</text>
</a>
</g>
<!-- Node2&#45;&gt;Node1 -->
<g id="edge2" class="edge"><title>Node2&#45;&gt;Node1</title>
<path fill="none" stroke="#9a32cd" stroke-dasharray="5,2" d="M632.094,-567.445C673.6,-583.444 746.192,-607.223 811,-607.223 811,-607.223 811,-607.223 1711,-607.223 1794.18,-607.223 1874.91,-533.341 1902.77,-505.058"/>
<polygon fill="#9a32cd" stroke="#9a32cd" points="633.318,-564.165 622.731,-563.763 630.756,-570.68 633.318,-564.165"/>
<text text-anchor="middle" x="1248" y="-624.223" font-family="FreeSans" font-size="10.00"> normal_</text>
<text text-anchor="middle" x="1248" y="-611.223" font-family="FreeSans" font-size="10.00">position_</text>
</g>
<!-- Node2&#45;&gt;Node2 -->
<g id="edge4" class="edge"><title>Node2&#45;&gt;Node2</title>
<path fill="none" stroke="#9a32cd" stroke-dasharray="5,2" d="M576.991,-573.65C578.612,-578.572 585.615,-582.223 598,-582.223 617.816,-582.223 623.854,-572.876 616.113,-563.931"/>
<polygon fill="#9a32cd" stroke="#9a32cd" points="580.385,-574.514 579.887,-563.931 573.677,-572.515 580.385,-574.514"/>
<text text-anchor="middle" x="598" y="-677.223" font-family="FreeSans" font-size="10.00"> ONE</text>
<text text-anchor="middle" x="598" y="-664.223" font-family="FreeSans" font-size="10.00">DOWN</text>
<text text-anchor="middle" x="598" y="-651.223" font-family="FreeSans" font-size="10.00">BACK</text>
<text text-anchor="middle" x="598" y="-638.223" font-family="FreeSans" font-size="10.00">RIGHT</text>
<text text-anchor="middle" x="598" y="-625.223" font-family="FreeSans" font-size="10.00">LEFT</text>
<text text-anchor="middle" x="598" y="-612.223" font-family="FreeSans" font-size="10.00">ZERO</text>
<text text-anchor="middle" x="598" y="-599.223" font-family="FreeSans" font-size="10.00">FORWARD</text>
<text text-anchor="middle" x="598" y="-586.223" font-family="FreeSans" font-size="10.00">UP</text>
</g>
<!-- Node3 -->
<g id="node5" class="node"><title>Node3</title>
<a xlink:href="a00272.html" target="_top" xlink:title="Physics rigid body component.">
<polygon fill="none" stroke="black" points="1658,-192.723 1658,-213.723 1764,-213.723 1764,-192.723 1658,-192.723"/>
<text text-anchor="middle" x="1711" y="-200.723" font-family="FreeSans" font-size="10.00">Urho3D::RigidBody</text>
</a>
</g>
<!-- Node2&#45;&gt;Node3 -->
<g id="edge82" class="edge"><title>Node2&#45;&gt;Node3</title>
<path fill="none" stroke="#9a32cd" stroke-dasharray="5,2" d="M656.451,-553.223C699.248,-553.223 758.732,-553.223 811,-553.223 811,-553.223 811,-553.223 1479,-553.223 1645.94,-553.223 1699.86,-273.158 1709.37,-214.082"/>
<polygon fill="#9a32cd" stroke="#9a32cd" points="656.219,-549.723 646.219,-553.223 656.219,-556.723 656.219,-549.723"/>
<text text-anchor="middle" x="1130" y="-583.223" font-family="FreeSans" font-size="10.00"> centerOfMass_</text>
<text text-anchor="middle" x="1130" y="-570.223" font-family="FreeSans" font-size="10.00">gravityOverride_</text>
<text text-anchor="middle" x="1130" y="-557.223" font-family="FreeSans" font-size="10.00">lastPosition_</text>
</g>
<!-- Node9 -->
<g id="node17" class="node"><title>Node9</title>
<a xlink:href="a00214.html" target="_top" xlink:title="Scene node that may contain components and child nodes.">
<polygon fill="none" stroke="red" points="768.5,-311.723 768.5,-332.723 853.5,-332.723 853.5,-311.723 768.5,-311.723"/>
<text text-anchor="middle" x="811" y="-319.723" font-family="FreeSans" font-size="10.00">Urho3D::Node</text>
</a>
</g>
<!-- Node2&#45;&gt;Node9 -->
<g id="edge56" class="edge"><title>Node2&#45;&gt;Node9</title>
<path fill="none" stroke="#9a32cd" stroke-dasharray="5,2" d="M644.104,-538.69C648.943,-536.474 653.67,-533.989 658,-531.223 667.535,-525.133 667.069,-520.168 676,-513.223 706.206,-489.736 727.757,-500.358 750,-469.223 772.701,-437.449 752.428,-419.035 768,-383.223 776.37,-363.974 791.366,-344.66 801.251,-333.071"/>
<polygon fill="#9a32cd" stroke="#9a32cd" points="642.603,-535.524 634.736,-542.621 645.311,-541.979 642.603,-535.524"/>
<text text-anchor="middle" x="713" y="-530.223" font-family="FreeSans" font-size="10.00"> scale_</text>
<text text-anchor="middle" x="713" y="-517.223" font-family="FreeSans" font-size="10.00">position_</text>
</g>
<!-- Node3&#45;&gt;Node1 -->
<g id="edge6" class="edge"><title>Node3&#45;&gt;Node1</title>
<path fill="none" stroke="#9a32cd" stroke-dasharray="5,2" d="M1724.18,-222.21C1762.88,-277.966 1875.38,-440.022 1905.5,-483.424"/>
<polygon fill="#9a32cd" stroke="#9a32cd" points="1727.01,-220.144 1718.43,-213.925 1721.26,-224.136 1727.01,-220.144"/>
<text text-anchor="middle" x="1798" y="-352.223" font-family="FreeSans" font-size="10.00"> body_</text>
</g>
<!-- Node4 -->
<g id="node7" class="node"><title>Node4</title>
<a xlink:href="a00097.html" target="_top" xlink:title="Base class for components. Components can be created to scene nodes.">
<polygon fill="none" stroke="black" points="948,-211.723 948,-232.723 1064,-232.723 1064,-211.723 948,-211.723"/>
<text text-anchor="middle" x="1006" y="-219.723" font-family="FreeSans" font-size="10.00">Urho3D::Component</text>
</a>
</g>
<!-- Node4&#45;&gt;Node3 -->
<g id="edge8" class="edge"><title>Node4&#45;&gt;Node3</title>
<path fill="none" stroke="midnightblue" d="M1074.48,-220.378C1214.73,-216.598 1531.98,-208.048 1657.98,-204.652"/>
<polygon fill="midnightblue" stroke="midnightblue" points="1074.19,-216.884 1064.29,-220.652 1074.38,-223.881 1074.19,-216.884"/>
</g>
<!-- Node23 -->
<g id="node57" class="node"><title>Node23</title>
<a xlink:href="a00242.html" target="_top" xlink:title="Physics simulation world component. Should be added only to the root scene node.">
<polygon fill="none" stroke="red" points="1188,-157.723 1188,-178.723 1308,-178.723 1308,-157.723 1188,-157.723"/>
<text text-anchor="middle" x="1248" y="-165.723" font-family="FreeSans" font-size="10.00">Urho3D::PhysicsWorld</text>
</a>
</g>
<!-- Node4&#45;&gt;Node23 -->
<g id="edge72" class="edge"><title>Node4&#45;&gt;Node23</title>
<path fill="none" stroke="midnightblue" d="M1063.04,-209.496C1105.03,-200.126 1161.44,-187.538 1200.88,-178.737"/>
<polygon fill="midnightblue" stroke="midnightblue" points="1062.23,-206.089 1053.23,-211.683 1063.76,-212.921 1062.23,-206.089"/>
</g>
<!-- Node5 -->
<g id="node9" class="node"><title>Node5</title>
<a xlink:href="a00286.html" target="_top" xlink:title="Base class for objects with automatic serialization through attributes.">
<polygon fill="none" stroke="black" points="541,-211.723 541,-232.723 655,-232.723 655,-211.723 541,-211.723"/>
<text text-anchor="middle" x="598" y="-219.723" font-family="FreeSans" font-size="10.00">Urho3D::Serializable</text>
</a>
</g>
<!-- Node5&#45;&gt;Node4 -->
<g id="edge10" class="edge"><title>Node5&#45;&gt;Node4</title>
<path fill="none" stroke="midnightblue" d="M665.463,-222.223C744.278,-222.223 873.361,-222.223 947.908,-222.223"/>
<polygon fill="midnightblue" stroke="midnightblue" points="665.16,-218.723 655.16,-222.223 665.16,-225.723 665.16,-218.723"/>
</g>
<!-- Node5&#45;&gt;Node9 -->
<g id="edge20" class="edge"><title>Node5&#45;&gt;Node9</title>
<path fill="none" stroke="midnightblue" d="M665.204,-231.465C692.761,-237.241 724.18,-246.499 750,-261.223 772.637,-274.133 792.683,-297.674 803.201,-311.43"/>
<polygon fill="midnightblue" stroke="midnightblue" points="665.733,-228.002 655.244,-229.491 664.372,-234.869 665.733,-228.002"/>
</g>
<!-- Node6 -->
<g id="node11" class="node"><title>Node6</title>
<a xlink:href="a00219.html" target="_top" xlink:title="Base class for objects with type identification, subsystem access and event sending/receiving capabil...">
<polygon fill="none" stroke="red" points="180,-202.723 180,-223.723 270,-223.723 270,-202.723 180,-202.723"/>
<text text-anchor="middle" x="225" y="-210.723" font-family="FreeSans" font-size="10.00">Urho3D::Object</text>
</a>
</g>
<!-- Node6&#45;&gt;Node5 -->
<g id="edge12" class="edge"><title>Node6&#45;&gt;Node5</title>
<path fill="none" stroke="midnightblue" d="M280.736,-214.568C350.703,-216.256 470.098,-219.137 540.764,-220.842"/>
<polygon fill="midnightblue" stroke="midnightblue" points="280.446,-211.06 270.364,-214.318 280.277,-218.058 280.446,-211.06"/>
</g>
<!-- Node7 -->
<g id="node13" class="node"><title>Node7</title>
<a xlink:href="a00158.html" target="_top" xlink:title="Hash map template class.">
<polygon fill="none" stroke="red" points="152,-162.723 152,-183.723 298,-183.723 298,-162.723 152,-162.723"/>
<text text-anchor="middle" x="225" y="-170.723" font-family="FreeSans" font-size="10.00">Urho3D::HashMap&lt; T, U &gt;</text>
</a>
</g>
<!-- Node7&#45;&gt;Node5 -->
<g id="edge14" class="edge"><title>Node7&#45;&gt;Node5</title>
<path fill="none" stroke="#9a32cd" stroke-dasharray="5,2" d="M308.123,-175.525C367.588,-178.321 449.285,-184.512 520,-198.223 536.552,-201.433 554.57,-206.844 569.114,-211.717"/>
<polygon fill="#9a32cd" stroke="#9a32cd" points="308.18,-172.024 298.033,-175.073 307.866,-179.017 308.18,-172.024"/>
<text text-anchor="middle" x="418" y="-202.223" font-family="FreeSans" font-size="10.00"> instanceDefaultValues_</text>
</g>
<!-- Node8 -->
<g id="node15" class="node"><title>Node8</title>
<a xlink:href="a00212.html" target="_top" xlink:title="Per&#45;object attribute state for network replication, allocated on demand.">
<polygon fill="none" stroke="red" points="162.5,-242.723 162.5,-263.723 287.5,-263.723 287.5,-242.723 162.5,-242.723"/>
<text text-anchor="middle" x="225" y="-250.723" font-family="FreeSans" font-size="10.00">Urho3D::NetworkState</text>
</a>
</g>
<!-- Node8&#45;&gt;Node5 -->
<g id="edge16" class="edge"><title>Node8&#45;&gt;Node5</title>
<path fill="none" stroke="#9a32cd" stroke-dasharray="5,2" d="M297.594,-248.631C357.349,-244.653 444.24,-238.416 520,-231.223 526.785,-230.579 533.895,-229.843 540.945,-229.076"/>
<polygon fill="#9a32cd" stroke="#9a32cd" points="297.25,-245.146 287.503,-249.298 297.712,-252.13 297.25,-245.146"/>
<text text-anchor="middle" x="418" y="-251.223" font-family="FreeSans" font-size="10.00"> networkState_</text>
</g>
<!-- Node9&#45;&gt;Node4 -->
<g id="edge18" class="edge"><title>Node9&#45;&gt;Node4</title>
<path fill="none" stroke="#9a32cd" stroke-dasharray="5,2" d="M840.492,-307.099C880.458,-286.604 950.798,-250.532 985.482,-232.745"/>
<polygon fill="#9a32cd" stroke="#9a32cd" points="838.801,-304.033 831.5,-311.711 841.995,-310.262 838.801,-304.033"/>
<text text-anchor="middle" x="897" y="-293.223" font-family="FreeSans" font-size="10.00"> node_</text>
</g>
<!-- Node9&#45;&gt;Node9 -->
<g id="edge60" class="edge"><title>Node9&#45;&gt;Node9</title>
<path fill="none" stroke="#9a32cd" stroke-dasharray="5,2" d="M795.25,-343.017C796.64,-347.752 801.89,-351.223 811,-351.223 825.949,-351.223 830.504,-341.876 824.665,-332.931"/>
<polygon fill="#9a32cd" stroke="#9a32cd" points="798.738,-343.433 797.335,-332.931 791.883,-342.015 798.738,-343.433"/>
<text text-anchor="middle" x="811" y="-355.223" font-family="FreeSans" font-size="10.00"> parent_</text>
</g>
<!-- Node12 -->
<g id="node24" class="node"><title>Node12</title>
<a xlink:href="a00274.html" target="_top" xlink:title="Root scene node, represents the whole scene.">
<polygon fill="none" stroke="red" points="961.5,-344.723 961.5,-365.723 1050.5,-365.723 1050.5,-344.723 961.5,-344.723"/>
<text text-anchor="middle" x="1006" y="-352.723" font-family="FreeSans" font-size="10.00">Urho3D::Scene</text>
</a>
</g>
<!-- Node9&#45;&gt;Node12 -->
<g id="edge28" class="edge"><title>Node9&#45;&gt;Node12</title>
<path fill="none" stroke="midnightblue" d="M863.59,-327.797C882.11,-330.039 903.034,-332.89 922,-336.223 935.401,-338.578 949.888,-341.66 962.997,-344.654"/>
<polygon fill="midnightblue" stroke="midnightblue" points="863.917,-324.311 853.576,-326.614 863.096,-331.263 863.917,-324.311"/>
</g>
<!-- Node10 -->
<g id="node20" class="node"><title>Node10</title>
<a xlink:href="a00245.html" target="_top" xlink:title="Urho3D::PODVector\&lt;\l Urho3D::Node * \&gt;">
<polygon fill="none" stroke="black" points="358.5,-350.223 358.5,-384.223 477.5,-384.223 477.5,-350.223 358.5,-350.223"/>
<text text-anchor="start" x="366.5" y="-371.223" font-family="FreeSans" font-size="10.00">Urho3D::PODVector&lt;</text>
<text text-anchor="middle" x="418" y="-358.223" font-family="FreeSans" font-size="10.00"> Urho3D::Node * &gt;</text>
</a>
</g>
<!-- Node10&#45;&gt;Node9 -->
<g id="edge22" class="edge"><title>Node10&#45;&gt;Node9</title>
<path fill="none" stroke="#9a32cd" stroke-dasharray="5,2" d="M487.697,-360.935C535.636,-356.443 600.738,-350.014 658,-343.223 695.275,-338.803 737.538,-332.937 768.186,-328.528"/>
<polygon fill="#9a32cd" stroke="#9a32cd" points="487.369,-357.451 477.737,-361.864 488.019,-364.42 487.369,-357.451"/>
<text text-anchor="middle" x="598" y="-359.223" font-family="FreeSans" font-size="10.00"> dependencyNodes_</text>
</g>
<!-- Node11 -->
<g id="node22" class="node"><title>Node11</title>
<a xlink:href="a00347.html" target="_top" xlink:title="Vector base class.">
<polygon fill="none" stroke="black" points="0,-281.723 0,-302.723 114,-302.723 114,-281.723 0,-281.723"/>
<text text-anchor="middle" x="57" y="-289.723" font-family="FreeSans" font-size="10.00">Urho3D::VectorBase</text>
</a>
</g>
<!-- Node11&#45;&gt;Node10 -->
<g id="edge24" class="edge"><title>Node11&#45;&gt;Node10</title>
<path fill="none" stroke="midnightblue" d="M90.1962,-306.831C108.181,-314.225 130.969,-322.766 152,-328.223 221.687,-346.307 303.968,-356.758 358.366,-362.208"/>
<polygon fill="midnightblue" stroke="midnightblue" points="91.3162,-303.506 80.7406,-302.869 88.6107,-309.962 91.3162,-303.506"/>
</g>
<!-- Node15 -->
<g id="node33" class="node"><title>Node15</title>
<a xlink:href="a00343.html" target="_top" xlink:title="Urho3D::Vector\&lt; Urho3D\l::WeakPtr\&lt; Urho3D::Component \&gt; \&gt;">
<polygon fill="none" stroke="black" points="321,-272.223 321,-306.223 515,-306.223 515,-272.223 321,-272.223"/>
<text text-anchor="start" x="329" y="-293.223" font-family="FreeSans" font-size="10.00">Urho3D::Vector&lt; Urho3D</text>
<text text-anchor="middle" x="418" y="-280.223" font-family="FreeSans" font-size="10.00">::WeakPtr&lt; Urho3D::Component &gt; &gt;</text>
</a>
</g>
<!-- Node11&#45;&gt;Node15 -->
<g id="edge40" class="edge"><title>Node11&#45;&gt;Node15</title>
<path fill="none" stroke="midnightblue" d="M124.249,-291.664C179.592,-291.205 258.769,-290.547 320.979,-290.03"/>
<polygon fill="midnightblue" stroke="midnightblue" points="124.172,-288.165 114.202,-291.748 124.23,-295.165 124.172,-288.165"/>
</g>
<!-- Node19 -->
<g id="node42" class="node"><title>Node19</title>
<a xlink:href="a00245.html" target="_top" xlink:title="Urho3D::PODVector\&lt;\l unsigned char \&gt;">
<polygon fill="none" stroke="black" points="165.5,-70.2233 165.5,-104.223 284.5,-104.223 284.5,-70.2233 165.5,-70.2233"/>
<text text-anchor="start" x="173.5" y="-91.2233" font-family="FreeSans" font-size="10.00">Urho3D::PODVector&lt;</text>
<text text-anchor="middle" x="225" y="-78.2233" font-family="FreeSans" font-size="10.00"> unsigned char &gt;</text>
</a>
</g>
<!-- Node11&#45;&gt;Node19 -->
<g id="edge50" class="edge"><title>Node11&#45;&gt;Node19</title>
<path fill="none" stroke="midnightblue" d="M62.5468,-271.561C73.4964,-234.611 101.333,-156.995 152,-113.223 156.072,-109.705 160.654,-106.652 165.487,-104.004"/>
<polygon fill="midnightblue" stroke="midnightblue" points="59.0495,-271.064 59.6842,-281.64 65.7832,-272.977 59.0495,-271.064"/>
</g>
<!-- Node20 -->
<g id="node45" class="node"><title>Node20</title>
<a xlink:href="a00343.html" target="_top" xlink:title="Urho3D::Vector\&lt; Urho3D\l::SharedPtr\&lt; Urho3D::Component \&gt; \&gt;">
<polygon fill="none" stroke="black" points="316.5,-311.223 316.5,-345.223 519.5,-345.223 519.5,-311.223 316.5,-311.223"/>
<text text-anchor="start" x="324.5" y="-332.223" font-family="FreeSans" font-size="10.00">Urho3D::Vector&lt; Urho3D</text>
<text text-anchor="middle" x="418" y="-319.223" font-family="FreeSans" font-size="10.00">::SharedPtr&lt; Urho3D::Component &gt; &gt;</text>
</a>
</g>
<!-- Node11&#45;&gt;Node20 -->
<g id="edge54" class="edge"><title>Node11&#45;&gt;Node20</title>
<path fill="none" stroke="midnightblue" d="M124.316,-304.194C126.908,-304.559 129.476,-304.904 132,-305.223 192.908,-312.935 261.46,-318.552 316.178,-322.304"/>
<polygon fill="midnightblue" stroke="midnightblue" points="124.652,-300.706 114.247,-302.701 123.625,-307.63 124.652,-300.706"/>
</g>
<!-- Node24 -->
<g id="node61" class="node"><title>Node24</title>
<a xlink:href="a00245.html" target="_top" xlink:title="Urho3D::PODVector\&lt;\l Urho3D::Constraint * \&gt;">
<polygon fill="none" stroke="black" points="940.5,-37.2233 940.5,-71.2233 1071.5,-71.2233 1071.5,-37.2233 940.5,-37.2233"/>
<text text-anchor="start" x="948.5" y="-58.2233" font-family="FreeSans" font-size="10.00">Urho3D::PODVector&lt;</text>
<text text-anchor="middle" x="1006" y="-45.2233" font-family="FreeSans" font-size="10.00"> Urho3D::Constraint * &gt;</text>
</a>
</g>
<!-- Node11&#45;&gt;Node24 -->
<g id="edge78" class="edge"><title>Node11&#45;&gt;Node24</title>
<path fill="none" stroke="midnightblue" d="M57.9251,-271.452C61.3396,-220.785 77.3233,-89.977 152,-21.2233 176.664,1.48445 191.475,-2.22327 225,-2.22327 225,-2.22327 225,-2.22327 811,-2.22327 866.359,-2.22327 927.664,-22.0311 966.487,-37.1965"/>
<polygon fill="midnightblue" stroke="midnightblue" points="54.4266,-271.327 57.346,-281.511 61.415,-271.729 54.4266,-271.327"/>
</g>
<!-- Node12&#45;&gt;Node9 -->
<g id="edge26" class="edge"><title>Node12&#45;&gt;Node9</title>
<path fill="none" stroke="#9a32cd" stroke-dasharray="5,2" d="M951.203,-346.426C926.922,-342.476 898.021,-337.705 872,-333.223 866.061,-332.2 859.802,-331.099 853.646,-330.001"/>
<polygon fill="#9a32cd" stroke="#9a32cd" points="950.872,-349.918 961.304,-348.065 951.994,-343.008 950.872,-349.918"/>
<text text-anchor="middle" x="897" y="-345.223" font-family="FreeSans" font-size="10.00"> scene_</text>
</g>
<!-- Node13 -->
<g id="node27" class="node"><title>Node13</title>
<a xlink:href="a00317.html" target="_top" xlink:title="String class.">
<polygon fill="none" stroke="black" points="554,-398.723 554,-419.723 642,-419.723 642,-398.723 554,-398.723"/>
<text text-anchor="middle" x="598" y="-406.723" font-family="FreeSans" font-size="10.00">Urho3D::String</text>
</a>
</g>
<!-- Node13&#45;&gt;Node9 -->
<g id="edge58" class="edge"><title>Node13&#45;&gt;Node9</title>
<path fill="none" stroke="#9a32cd" stroke-dasharray="5,2" d="M632.493,-394.853C645.977,-389.409 661.628,-383.304 676,-378.223 708.471,-366.744 718.259,-368.591 750,-355.223 765.202,-348.821 781.603,-339.82 793.566,-332.835"/>
<polygon fill="#9a32cd" stroke="#9a32cd" points="631.047,-391.662 623.106,-398.675 633.688,-398.145 631.047,-391.662"/>
<text text-anchor="middle" x="713" y="-382.223" font-family="FreeSans" font-size="10.00"> name_</text>
</g>
<!-- Node13&#45;&gt;Node12 -->
<g id="edge30" class="edge"><title>Node13&#45;&gt;Node12</title>
<path fill="none" stroke="#9a32cd" stroke-dasharray="5,2" d="M652.205,-403.095C681.231,-399.74 717.586,-395.421 750,-391.223 824.109,-381.626 910.109,-369.284 961.183,-361.828"/>
<polygon fill="#9a32cd" stroke="#9a32cd" points="651.796,-399.619 642.262,-404.24 652.597,-406.573 651.796,-399.619"/>
<text text-anchor="middle" x="811" y="-392.223" font-family="FreeSans" font-size="10.00"> fileName_</text>
</g>
<!-- Node13&#45;&gt;Node13 -->
<g id="edge32" class="edge"><title>Node13&#45;&gt;Node13</title>
<path fill="none" stroke="#9a32cd" stroke-dasharray="5,2" d="M576.991,-429.65C578.612,-434.572 585.615,-438.223 598,-438.223 617.816,-438.223 623.854,-428.876 616.113,-419.931"/>
<polygon fill="#9a32cd" stroke="#9a32cd" points="580.385,-430.514 579.887,-419.931 573.677,-428.515 580.385,-430.514"/>
<text text-anchor="middle" x="598" y="-442.223" font-family="FreeSans" font-size="10.00"> EMPTY</text>
</g>
<!-- Node14 -->
<g id="node30" class="node"><title>Node14</title>
<a xlink:href="a00250.html" target="_top" xlink:title="Rotation represented as a four&#45;dimensional normalized vector.">
<polygon fill="none" stroke="black" points="541.5,-469.723 541.5,-490.723 654.5,-490.723 654.5,-469.723 541.5,-469.723"/>
<text text-anchor="middle" x="598" y="-477.723" font-family="FreeSans" font-size="10.00">Urho3D::Quaternion</text>
</a>
</g>
<!-- Node14&#45;&gt;Node3 -->
<g id="edge64" class="edge"><title>Node14&#45;&gt;Node3</title>
<path fill="none" stroke="#9a32cd" stroke-dasharray="5,2" d="M664.61,-479.75C706.607,-479.491 761.976,-479.223 811,-479.223 811,-479.223 811,-479.223 1479,-479.223 1620.15,-479.223 1692.65,-265.071 1707.92,-214.043"/>
<polygon fill="#9a32cd" stroke="#9a32cd" points="664.484,-476.251 654.506,-479.814 664.528,-483.251 664.484,-476.251"/>
<text text-anchor="middle" x="1130" y="-483.223" font-family="FreeSans" font-size="10.00"> lastRotation_</text>
</g>
<!-- Node14&#45;&gt;Node9 -->
<g id="edge34" class="edge"><title>Node14&#45;&gt;Node9</title>
<path fill="none" stroke="#9a32cd" stroke-dasharray="5,2" d="M648.734,-465.581C651.966,-463.963 655.087,-462.182 658,-460.223 668.201,-453.364 666.592,-447.136 676,-439.223 705.283,-414.594 720.872,-420.036 750,-395.223 772.505,-376.052 793.361,-348.001 803.872,-332.86"/>
<polygon fill="#9a32cd" stroke="#9a32cd" points="647.134,-462.462 639.414,-469.719 649.974,-468.86 647.134,-462.462"/>
<text text-anchor="middle" x="713" y="-456.223" font-family="FreeSans" font-size="10.00"> worldRotation_</text>
<text text-anchor="middle" x="713" y="-443.223" font-family="FreeSans" font-size="10.00">rotation_</text>
</g>
<!-- Node14&#45;&gt;Node14 -->
<g id="edge36" class="edge"><title>Node14&#45;&gt;Node14</title>
<path fill="none" stroke="#9a32cd" stroke-dasharray="5,2" d="M576.991,-500.65C578.612,-505.572 585.615,-509.223 598,-509.223 617.816,-509.223 623.854,-499.876 616.113,-490.931"/>
<polygon fill="#9a32cd" stroke="#9a32cd" points="580.385,-501.514 579.887,-490.931 573.677,-499.515 580.385,-501.514"/>
<text text-anchor="middle" x="598" y="-513.223" font-family="FreeSans" font-size="10.00"> IDENTITY</text>
</g>
<!-- Node15&#45;&gt;Node9 -->
<g id="edge38" class="edge"><title>Node15&#45;&gt;Node9</title>
<path fill="none" stroke="#9a32cd" stroke-dasharray="5,2" d="M525.374,-296.75C566.831,-299.794 614.639,-303.472 658,-307.223 695.36,-310.455 737.797,-314.658 768.485,-317.792"/>
<polygon fill="#9a32cd" stroke="#9a32cd" points="525.483,-293.248 515.254,-296.01 524.973,-300.23 525.483,-293.248"/>
<text text-anchor="middle" x="598" y="-311.223" font-family="FreeSans" font-size="10.00"> listeners_</text>
</g>
<!-- Node16 -->
<g id="node36" class="node"><title>Node16</title>
<a xlink:href="a00348.html" target="_top" xlink:title="Dynamically sized buffer that can be read and written to as a stream.">
<polygon fill="none" stroke="black" points="538.5,-119.723 538.5,-140.723 657.5,-140.723 657.5,-119.723 538.5,-119.723"/>
<text text-anchor="middle" x="598" y="-127.723" font-family="FreeSans" font-size="10.00">Urho3D::VectorBuffer</text>
</a>
</g>
<!-- Node16&#45;&gt;Node3 -->
<g id="edge66" class="edge"><title>Node16&#45;&gt;Node3</title>
<path fill="none" stroke="#9a32cd" stroke-dasharray="5,2" d="M667.707,-129.731C709.304,-129.479 763.172,-129.223 811,-129.223 811,-129.223 811,-129.223 1130,-129.223 1244.92,-129.223 1283.99,-97.3691 1388,-146.223 1398.53,-151.169 1395.62,-159.974 1406,-165.223 1448.92,-186.925 1582.6,-196.905 1657.96,-200.911"/>
<polygon fill="#9a32cd" stroke="#9a32cd" points="667.656,-126.231 657.678,-129.793 667.699,-133.231 667.656,-126.231"/>
<text text-anchor="middle" x="1130" y="-133.223" font-family="FreeSans" font-size="10.00"> attrBuffer_</text>
</g>
<!-- Node16&#45;&gt;Node9 -->
<g id="edge42" class="edge"><title>Node16&#45;&gt;Node9</title>
<path fill="none" stroke="#9a32cd" stroke-dasharray="5,2" d="M626.727,-145.615C668.001,-167.888 740.22,-207.506 750,-217.223 778.864,-245.902 798.877,-291.018 806.98,-311.486"/>
<polygon fill="#9a32cd" stroke="#9a32cd" points="628.153,-142.408 617.689,-140.749 624.834,-148.572 628.153,-142.408"/>
<text text-anchor="middle" x="713" y="-221.223" font-family="FreeSans" font-size="10.00"> attrBuffer_</text>
</g>
<!-- Node16&#45;&gt;Node23 -->
<g id="edge74" class="edge"><title>Node16&#45;&gt;Node23</title>
<path fill="none" stroke="#9a32cd" stroke-dasharray="5,2" d="M666.209,-142.083C669.515,-142.503 672.791,-142.887 676,-143.223 861.855,-162.7 1083.22,-167.053 1187.71,-167.991"/>
<polygon fill="#9a32cd" stroke="#9a32cd" points="666.627,-138.607 656.246,-140.725 665.682,-145.543 666.627,-138.607"/>
<text text-anchor="middle" x="897" y="-164.223" font-family="FreeSans" font-size="10.00"> contacts_</text>
</g>
<!-- Node17 -->
<g id="node38" class="node"><title>Node17</title>
<a xlink:href="a00129.html" target="_top" xlink:title="Abstract stream for reading.">
<polygon fill="none" stroke="black" points="167,-30.7233 167,-51.7233 283,-51.7233 283,-30.7233 167,-30.7233"/>
<text text-anchor="middle" x="225" y="-38.7233" font-family="FreeSans" font-size="10.00">Urho3D::Deserializer</text>
</a>
</g>
<!-- Node17&#45;&gt;Node16 -->
<g id="edge44" class="edge"><title>Node17&#45;&gt;Node16</title>
<path fill="none" stroke="midnightblue" d="M293.445,-45.5965C354.254,-51.0036 444.878,-62.83 520,-88.2233 542.875,-95.9556 567.029,-110.001 582.29,-119.707"/>
<polygon fill="midnightblue" stroke="midnightblue" points="293.462,-42.0852 283.2,-44.7211 292.866,-49.0598 293.462,-42.0852"/>
</g>
<!-- Node18 -->
<g id="node40" class="node"><title>Node18</title>
<a xlink:href="a00287.html" target="_top" xlink:title="Abstract stream for writing.">
<polygon fill="none" stroke="black" points="173,-122.723 173,-143.723 277,-143.723 277,-122.723 173,-122.723"/>
<text text-anchor="middle" x="225" y="-130.723" font-family="FreeSans" font-size="10.00">Urho3D::Serializer</text>
</a>
</g>
<!-- Node18&#45;&gt;Node16 -->
<g id="edge46" class="edge"><title>Node18&#45;&gt;Node16</title>
<path fill="none" stroke="midnightblue" d="M287.674,-132.719C357.563,-132.157 469.775,-131.255 538.395,-130.703"/>
<polygon fill="midnightblue" stroke="midnightblue" points="287.228,-129.223 277.257,-132.803 287.285,-136.222 287.228,-129.223"/>
</g>
<!-- Node19&#45;&gt;Node16 -->
<g id="edge48" class="edge"><title>Node19&#45;&gt;Node16</title>
<path fill="none" stroke="#9a32cd" stroke-dasharray="5,2" d="M294.704,-90.87C354.669,-94.6023 443.365,-101.543 520,-113.223 531.235,-114.936 543.276,-117.295 554.453,-119.712"/>
<polygon fill="#9a32cd" stroke="#9a32cd" points="294.787,-87.3687 284.593,-90.2542 294.362,-94.3557 294.787,-87.3687"/>
<text text-anchor="middle" x="418" y="-117.223" font-family="FreeSans" font-size="10.00"> buffer_</text>
</g>
<!-- Node20&#45;&gt;Node9 -->
<g id="edge52" class="edge"><title>Node20&#45;&gt;Node9</title>
<path fill="none" stroke="#9a32cd" stroke-dasharray="5,2" d="M529.789,-326.517C609.298,-325.303 711.692,-323.739 768.406,-322.874"/>
<polygon fill="#9a32cd" stroke="#9a32cd" points="529.664,-323.018 519.718,-326.67 529.771,-330.017 529.664,-323.018"/>
<text text-anchor="middle" x="598" y="-330.223" font-family="FreeSans" font-size="10.00"> components_</text>
</g>
<!-- Node21 -->
<g id="node51" class="node"><title>Node21</title>
<polygon fill="none" stroke="#bfbfbf" points="1436.5,-82.7233 1436.5,-103.723 1521.5,-103.723 1521.5,-82.7233 1436.5,-82.7233"/>
<text text-anchor="middle" x="1479" y="-90.7233" font-family="FreeSans" font-size="10.00">btMotionState</text>
</g>
<!-- Node21&#45;&gt;Node3 -->
<g id="edge62" class="edge"><title>Node21&#45;&gt;Node3</title>
<path fill="none" stroke="midnightblue" d="M1532.06,-101.072C1564.7,-107.473 1606.53,-118.596 1640,-137.223 1666.18,-151.791 1690.28,-178.009 1702.53,-192.633"/>
<polygon fill="midnightblue" stroke="midnightblue" points="1532.28,-97.5533 1521.81,-99.1563 1531,-104.434 1532.28,-97.5533"/>
</g>
<!-- Node22 -->
<g id="node55" class="node"><title>Node22</title>
<a xlink:href="a00356.html" target="_top" xlink:title="Urho3D::WeakPtr\&lt; Urho3D\l::PhysicsWorld \&gt;">
<polygon fill="none" stroke="black" points="1406,-122.223 1406,-156.223 1552,-156.223 1552,-122.223 1406,-122.223"/>
<text text-anchor="start" x="1414" y="-143.223" font-family="FreeSans" font-size="10.00">Urho3D::WeakPtr&lt; Urho3D</text>
<text text-anchor="middle" x="1479" y="-130.223" font-family="FreeSans" font-size="10.00">::PhysicsWorld &gt;</text>
</a>
</g>
<!-- Node22&#45;&gt;Node3 -->
<g id="edge68" class="edge"><title>Node22&#45;&gt;Node3</title>
<path fill="none" stroke="#9a32cd" stroke-dasharray="5,2" d="M1562.35,-141.181C1587.83,-143.719 1615.57,-148.494 1640,-157.223 1662.41,-165.228 1684.89,-181.522 1698.37,-192.41"/>
<polygon fill="#9a32cd" stroke="#9a32cd" points="1562.61,-137.69 1552.34,-140.285 1561.99,-144.663 1562.61,-137.69"/>
<text text-anchor="middle" x="1605" y="-161.223" font-family="FreeSans" font-size="10.00"> physicsWorld_</text>
</g>
<!-- Node23&#45;&gt;Node22 -->
<g id="edge70" class="edge"><title>Node23&#45;&gt;Node22</title>
<path fill="none" stroke="#9a32cd" stroke-dasharray="5,2" d="M1318.09,-159.424C1345.78,-155.948 1377.6,-151.953 1405.61,-148.437"/>
<polygon fill="#9a32cd" stroke="#9a32cd" points="1317.58,-155.961 1308.09,-160.68 1318.45,-162.907 1317.58,-155.961"/>
<text text-anchor="middle" x="1357" y="-161.223" font-family="FreeSans" font-size="10.00"> ptr_</text>
</g>
<!-- Node24&#45;&gt;Node3 -->
<g id="edge84" class="edge"><title>Node24&#45;&gt;Node3</title>
<path fill="none" stroke="#9a32cd" stroke-dasharray="5,2" d="M1081.8,-49.21C1188.06,-43.9061 1386.81,-40.2917 1552,-73.2233 1592.96,-81.3899 1606.72,-80.9823 1640,-106.223 1671.93,-130.436 1695.9,-172.892 1705.89,-192.607"/>
<polygon fill="#9a32cd" stroke="#9a32cd" points="1081.31,-45.731 1071.5,-49.7442 1081.67,-52.7216 1081.31,-45.731"/>
<text text-anchor="middle" x="1357" y="-55.2233" font-family="FreeSans" font-size="10.00"> constraints_</text>
</g>
<!-- Node24&#45;&gt;Node23 -->
<g id="edge76" class="edge"><title>Node24&#45;&gt;Node23</title>
<path fill="none" stroke="#9a32cd" stroke-dasharray="5,2" d="M1081.63,-68.7602C1116.87,-76.3179 1154.42,-85.7279 1170,-94.2233 1199.99,-110.575 1226.96,-141.363 1239.91,-157.592"/>
<polygon fill="#9a32cd" stroke="#9a32cd" points="1082.28,-65.3202 1071.78,-66.6799 1080.84,-72.1693 1082.28,-65.3202"/>
<text text-anchor="middle" x="1130" y="-98.2233" font-family="FreeSans" font-size="10.00"> constraints_</text>
</g>
<!-- Node25 -->
<g id="node64" class="node"><title>Node25</title>
<a xlink:href="a00258.html" target="_top" xlink:title="Reference count structure.">
<polygon fill="none" stroke="black" points="1197,-4.72327 1197,-25.7233 1299,-25.7233 1299,-4.72327 1197,-4.72327"/>
<text text-anchor="middle" x="1248" y="-12.7233" font-family="FreeSans" font-size="10.00">Urho3D::RefCount</text>
</a>
</g>
<!-- Node25&#45;&gt;Node22 -->
<g id="edge80" class="edge"><title>Node25&#45;&gt;Node22</title>
<path fill="none" stroke="#9a32cd" stroke-dasharray="5,2" d="M1295.07,-2.87228C1325.07,1.99894 1362.88,2.15568 1388,-19.2233 1420.39,-46.7912 1378.31,-80.935 1406,-113.223 1408.89,-116.593 1412.25,-119.526 1415.91,-122.079"/>
<polygon fill="#9a32cd" stroke="#9a32cd" points="1294.43,0.568638 1285.22,-4.68069 1295.69,-6.31615 1294.43,0.568638"/>
<text text-anchor="middle" x="1357" y="-23.2233" font-family="FreeSans" font-size="10.00"> refCount_</text>
</g>
</g>
</svg>
        <g id="navigator" transform="translate(0 0)" fill="#404254">
                <rect fill="#f2f5e9" fill-opacity="0.5" stroke="#606060" stroke-width=".5" x="0" y="0" width="60" height="60"/>
                <use id="zoomplus" xlink:href="#zoomPlus" x="17" y="9" onmousedown="handleZoom(evt,'in')"/>
                <use id="zoomminus" xlink:href="#zoomMin" x="42" y="9" onmousedown="handleZoom(evt,'out')"/>
                <use id="reset" xlink:href="#resetDef" x="30" y="36" onmousedown="handleReset()"/>
                <g id="arrowUp" xlink:href="#dirArrow" transform="translate(30 24)" onmousedown="handlePan(0,-1)">
                  <use xlink:href="#rim" fill="#404040">
                        <set attributeName="fill" to="#808080" begin="arrowUp.mouseover" end="arrowUp.mouseout"/>
                  </use>
                  <path fill="none" stroke="white" stroke-width="1.5" d="M0,-3.0v7 M-2.5,-0.5L0,-3.0L2.5,-0.5"/>
                </g>
                <g id="arrowRight" xlink:href="#dirArrow" transform="rotate(90) translate(36 -43)" onmousedown="handlePan(1,0)">
                  <use xlink:href="#rim" fill="#404040">
                        <set attributeName="fill" to="#808080" begin="arrowRight.mouseover" end="arrowRight.mouseout"/>
                  </use>
                  <path fill="none" stroke="white" stroke-width="1.5" d="M0,-3.0v7 M-2.5,-0.5L0,-3.0L2.5,-0.5"/>
                </g>
                <g id="arrowDown" xlink:href="#dirArrow" transform="rotate(180) translate(-30 -48)" onmousedown="handlePan(0,1)">
                  <use xlink:href="#rim" fill="#404040">
                        <set attributeName="fill" to="#808080" begin="arrowDown.mouseover" end="arrowDown.mouseout"/>
                  </use>
                  <path fill="none" stroke="white" stroke-width="1.5" d="M0,-3.0v7 M-2.5,-0.5L0,-3.0L2.5,-0.5"/>
                </g>
                <g id="arrowLeft" xlink:href="#dirArrow" transform="rotate(270) translate(-36 17)" onmousedown="handlePan(-1,0)">
                  <use xlink:href="#rim" fill="#404040">
                        <set attributeName="fill" to="#808080" begin="arrowLeft.mouseover" end="arrowLeft.mouseout"/>
                  </use>
                  <path fill="none" stroke="white" stroke-width="1.5" d="M0,-3.0v7 M-2.5,-0.5L0,-3.0L2.5,-0.5"/>
                </g>
        </g>
        <svg viewBox="0 0 15 15" width="100%" height="30px" preserveAspectRatio="xMaxYMin meet">
         <g id="arrow_out" transform="scale(0.3 0.3)">
          <a xlink:href="a01351_org.svg" target="_base">
           <rect id="button" ry="5" rx="5" y="6" x="6" height="38" width="38"
                fill="#f2f5e9" fill-opacity="0.5" stroke="#606060" stroke-width="1.0"/>
           <path id="arrow"
             d="M 11.500037,31.436501 C 11.940474,20.09759 22.043105,11.32322 32.158766,21.979434 L 37.068811,17.246167 C 37.068811,17.246167 37.088388,32 37.088388,32 L 22.160133,31.978069 C 22.160133,31.978069 26.997745,27.140456 26.997745,27.140456 C 18.528582,18.264221 13.291696,25.230495 11.500037,31.436501 z"
             style="fill:#404040;"/>
          </a>
         </g>
        </svg>
</svg>
