<?xml version="1.0" encoding="UTF-8" standalone="no"?>
<!DOCTYPE svg PUBLIC "-//W3C//DTD SVG 1.1//EN"
 "http://www.w3.org/Graphics/SVG/1.1/DTD/svg11.dtd">
<!-- Generated by graphviz version 2.26.3 (20100126.1600)
 -->
<!-- Title: Urho3D::JoystickState Pages: 1 -->
<!--zoomable 776 -->
<svg id="main" version="1.1" xmlns="http://www.w3.org/2000/svg" xmlns:xlink="http://www.w3.org/1999/xlink" xml:space="preserve" onload="init(evt)">
        <defs>
                <circle id="rim" cx="0" cy="0" r="7"/>
                <circle id="rim2" cx="0" cy="0" r="3.5"/>
                <g id="zoomPlus">
                        <use xlink:href="#rim" fill="#404040">
                                <set attributeName="fill" to="#808080" begin="zoomplus.mouseover" end="zoomplus.mouseout"/>
                        </use>
                        <path d="M-4,0h8M0,-4v8" fill="none" stroke="white" stroke-width="1.5" pointer-events="none"/>
                </g>
                <g id="zoomMin">
                        <use xlink:href="#rim" fill="#404040">
                                <set attributeName="fill" to="#808080" begin="zoomminus.mouseover" end="zoomminus.mouseout"/>
                        </use>
                        <path d="M-4,0h8" fill="none" stroke="white" stroke-width="1.5" pointer-events="none"/>
                </g>
                <g id="dirArrow">
                        <path fill="none" stroke="white" stroke-width="1.5" d="M0,-3.0v7 M-2.5,-0.5L0,-3.0L2.5,-0.5"/>
                </g>
               <g id="resetDef">
                       <use xlink:href="#rim2" fill="#404040">
                               <set attributeName="fill" to="#808080" begin="reset.mouseover" end="reset.mouseout"/>
                       </use>
               </g>
        </defs>

<script type="text/javascript">
var viewWidth = 2148;
var viewHeight = 776;
var sectionId = 'dynsection-0';
</script>
<script xlink:href="svgpan.js"/>
<svg id="graph" class="graph">
<g id="viewport">
<title>Urho3D::JoystickState</title>
<!-- Node1 -->
<g id="node1" class="node"><title>Node1</title>
<polygon fill="#bfbfbf" stroke="black" points="2018.5,-648.5 2018.5,-669.5 2139.5,-669.5 2139.5,-648.5 2018.5,-648.5"/>
<text text-anchor="middle" x="2079" y="-656.5" font-family="FreeSans" font-size="10.00">Urho3D::JoystickState</text>
</g>
<!-- Node2 -->
<g id="node2" class="node"><title>Node2</title>
<a xlink:href="a00268.html" target="_top" xlink:title="Urho3D::PODVector\&lt;\l int \&gt;">
<polygon fill="none" stroke="black" points="1378.5,-695 1378.5,-729 1497.5,-729 1497.5,-695 1378.5,-695"/>
<text text-anchor="start" x="1386.5" y="-716" font-family="FreeSans" font-size="10.00">Urho3D::PODVector&lt;</text>
<text text-anchor="middle" x="1438" y="-703" font-family="FreeSans" font-size="10.00"> int &gt;</text>
</a>
</g>
<!-- Node2&#45;&gt;Node1 -->
<g id="edge2" class="edge"><title>Node2&#45;&gt;Node1</title>
<path fill="none" stroke="#9a32cd" stroke-dasharray="5,2" d="M1507.98,-713.005C1599.72,-713.513 1765.48,-711.641 1906,-695 1951.85,-689.57 2003.58,-678.083 2038.43,-669.536"/>
<polygon fill="#9a32cd" stroke="#9a32cd" points="1507.73,-709.504 1497.71,-712.937 1507.69,-716.503 1507.73,-709.504"/>
<text text-anchor="middle" x="1704" y="-716" font-family="FreeSans" font-size="10.00"> hats_</text>
</g>
<!-- Node3 -->
<g id="node4" class="node"><title>Node3</title>
<a xlink:href="a00377.html" target="_top" xlink:title="Vector base class.">
<polygon fill="none" stroke="black" points="904,-686.5 904,-707.5 1018,-707.5 1018,-686.5 904,-686.5"/>
<text text-anchor="middle" x="961" y="-694.5" font-family="FreeSans" font-size="10.00">Urho3D::VectorBase</text>
</a>
</g>
<!-- Node3&#45;&gt;Node2 -->
<g id="edge4" class="edge"><title>Node3&#45;&gt;Node2</title>
<path fill="none" stroke="midnightblue" d="M1028.24,-699.115C1121.61,-702.051 1289.05,-707.316 1378.25,-710.121"/>
<polygon fill="midnightblue" stroke="midnightblue" points="1028.17,-695.611 1018.06,-698.794 1027.95,-702.607 1028.17,-695.611"/>
</g>
<!-- Node4 -->
<g id="node6" class="node"><title>Node4</title>
<a xlink:href="a00268.html" target="_top" xlink:title="Urho3D::PODVector\&lt;\l bool \&gt;">
<polygon fill="none" stroke="black" points="1644.5,-649 1644.5,-683 1763.5,-683 1763.5,-649 1644.5,-649"/>
<text text-anchor="start" x="1652.5" y="-670" font-family="FreeSans" font-size="10.00">Urho3D::PODVector&lt;</text>
<text text-anchor="middle" x="1704" y="-657" font-family="FreeSans" font-size="10.00"> bool &gt;</text>
</a>
</g>
<!-- Node3&#45;&gt;Node4 -->
<g id="edge8" class="edge"><title>Node3&#45;&gt;Node4</title>
<path fill="none" stroke="midnightblue" d="M1028.08,-694.201C1171.84,-688.203 1507.63,-674.193 1644.42,-668.486"/>
<polygon fill="midnightblue" stroke="midnightblue" points="1027.91,-690.705 1018.07,-694.619 1028.21,-697.699 1027.91,-690.705"/>
</g>
<!-- Node18 -->
<g id="node39" class="node"><title>Node18</title>
<a xlink:href="a00373.html" target="_top" xlink:title="Urho3D::Vector\&lt; Urho3D\l::SharedPtr\&lt; Urho3D::UIElement \&gt; \&gt;">
<polygon fill="none" stroke="black" points="1162.5,-542 1162.5,-576 1359.5,-576 1359.5,-542 1162.5,-542"/>
<text text-anchor="start" x="1170.5" y="-563" font-family="FreeSans" font-size="10.00">Urho3D::Vector&lt; Urho3D</text>
<text text-anchor="middle" x="1261" y="-550" font-family="FreeSans" font-size="10.00">::SharedPtr&lt; Urho3D::UIElement &gt; &gt;</text>
</a>
</g>
<!-- Node3&#45;&gt;Node18 -->
<g id="edge46" class="edge"><title>Node3&#45;&gt;Node18</title>
<path fill="none" stroke="midnightblue" d="M1000.51,-683.015C1017.55,-677.052 1037.72,-670.082 1056,-664 1094.94,-651.043 1114.53,-664.565 1144,-636 1161.26,-619.271 1144.32,-601.282 1162,-585 1165.66,-581.63 1169.7,-578.686 1174,-576.115"/>
<polygon fill="midnightblue" stroke="midnightblue" points="999.159,-679.78 990.882,-686.394 1001.48,-686.385 999.159,-679.78"/>
</g>
<!-- Node25 -->
<g id="node61" class="node"><title>Node25</title>
<a xlink:href="a00268.html" target="_top" xlink:title="Urho3D::PODVector\&lt;\l float \&gt;">
<polygon fill="none" stroke="black" points="1378.5,-734 1378.5,-768 1497.5,-768 1497.5,-734 1378.5,-734"/>
<text text-anchor="start" x="1386.5" y="-755" font-family="FreeSans" font-size="10.00">Urho3D::PODVector&lt;</text>
<text text-anchor="middle" x="1438" y="-742" font-family="FreeSans" font-size="10.00"> float &gt;</text>
</a>
</g>
<!-- Node3&#45;&gt;Node25 -->
<g id="edge76" class="edge"><title>Node3&#45;&gt;Node25</title>
<path fill="none" stroke="midnightblue" d="M1018.78,-709.572C1031.03,-711.951 1043.91,-714.242 1056,-716 1169.36,-732.481 1302.83,-742.615 1378.22,-747.491"/>
<polygon fill="midnightblue" stroke="midnightblue" points="1019.16,-706.079 1008.67,-707.562 1017.8,-712.945 1019.16,-706.079"/>
</g>
<!-- Node4&#45;&gt;Node1 -->
<g id="edge6" class="edge"><title>Node4&#45;&gt;Node1</title>
<path fill="none" stroke="#9a32cd" stroke-dasharray="5,2" d="M1773.94,-664.695C1844.28,-663.381 1951.64,-661.377 2018.45,-660.13"/>
<polygon fill="#9a32cd" stroke="#9a32cd" points="1773.77,-661.197 1763.83,-664.883 1773.9,-668.196 1773.77,-661.197"/>
<text text-anchor="middle" x="1844" y="-682" font-family="FreeSans" font-size="10.00"> buttons_</text>
<text text-anchor="middle" x="1844" y="-669" font-family="FreeSans" font-size="10.00">buttonPress_</text>
</g>
<!-- Node5 -->
<g id="node9" class="node"><title>Node5</title>
<a xlink:href="a00319.html" target="_top" xlink:title="Urho3D::SharedPtr\&lt;\l Urho3D::UIElement \&gt;">
<polygon fill="none" stroke="black" points="1782.5,-502 1782.5,-536 1905.5,-536 1905.5,-502 1782.5,-502"/>
<text text-anchor="start" x="1790.5" y="-523" font-family="FreeSans" font-size="10.00">Urho3D::SharedPtr&lt;</text>
<text text-anchor="middle" x="1844" y="-510" font-family="FreeSans" font-size="10.00"> Urho3D::UIElement &gt;</text>
</a>
</g>
<!-- Node5&#45;&gt;Node1 -->
<g id="edge10" class="edge"><title>Node5&#45;&gt;Node1</title>
<path fill="none" stroke="#9a32cd" stroke-dasharray="5,2" d="M1881.65,-541.428C1933.11,-572.088 2023.37,-625.861 2061.36,-648.492"/>
<polygon fill="#9a32cd" stroke="#9a32cd" points="1883.2,-538.278 1872.82,-536.167 1879.62,-544.292 1883.2,-538.278"/>
<text text-anchor="middle" x="1962" y="-614" font-family="FreeSans" font-size="10.00"> screenJoystick_</text>
</g>
<!-- Node6 -->
<g id="node11" class="node"><title>Node6</title>
<a xlink:href="a00363.html" target="_top" xlink:title="Base class for UI elements.">
<polygon fill="none" stroke="black" points="1516.5,-449.5 1516.5,-470.5 1625.5,-470.5 1625.5,-449.5 1516.5,-449.5"/>
<text text-anchor="middle" x="1571" y="-457.5" font-family="FreeSans" font-size="10.00">Urho3D::UIElement</text>
</a>
</g>
<!-- Node6&#45;&gt;Node5 -->
<g id="edge12" class="edge"><title>Node6&#45;&gt;Node5</title>
<path fill="none" stroke="#9a32cd" stroke-dasharray="5,2" d="M1629.7,-472.686C1674.65,-482.401 1736.5,-495.767 1782.2,-505.644"/>
<polygon fill="#9a32cd" stroke="#9a32cd" points="1630.32,-469.239 1619.81,-470.548 1628.84,-476.082 1630.32,-469.239"/>
<text text-anchor="middle" x="1704" y="-506" font-family="FreeSans" font-size="10.00"> ptr_</text>
</g>
<!-- Node6&#45;&gt;Node6 -->
<g id="edge48" class="edge"><title>Node6&#45;&gt;Node6</title>
<path fill="none" stroke="#9a32cd" stroke-dasharray="5,2" d="M1546.67,-480.427C1548.55,-485.349 1556.66,-489 1571,-489 1593.95,-489 1600.94,-479.653 1591.97,-470.708"/>
<polygon fill="#9a32cd" stroke="#9a32cd" points="1550.07,-481.303 1550.03,-470.708 1543.46,-479.02 1550.07,-481.303"/>
<text text-anchor="middle" x="1571" y="-493" font-family="FreeSans" font-size="10.00"> parent_</text>
</g>
<!-- Node7 -->
<g id="node13" class="node"><title>Node7</title>
<a xlink:href="a00054.html" target="_top" xlink:title="Base class for animatable object, an animatable object can be set animation on it&#39;s attributes...">
<polygon fill="none" stroke="black" points="1204,-502.5 1204,-523.5 1318,-523.5 1318,-502.5 1204,-502.5"/>
<text text-anchor="middle" x="1261" y="-510.5" font-family="FreeSans" font-size="10.00">Urho3D::Animatable</text>
</a>
</g>
<!-- Node7&#45;&gt;Node6 -->
<g id="edge14" class="edge"><title>Node7&#45;&gt;Node6</title>
<path fill="none" stroke="midnightblue" d="M1328.45,-510.568C1376.32,-507.711 1441.78,-501.501 1498,-488 1515.29,-483.848 1534,-476.613 1548.15,-470.538"/>
<polygon fill="midnightblue" stroke="midnightblue" points="1328,-507.088 1318.21,-511.144 1328.39,-514.077 1328,-507.088"/>
</g>
<!-- Node8 -->
<g id="node15" class="node"><title>Node8</title>
<a xlink:href="a00310.html" target="_top" xlink:title="Base class for objects with automatic serialization through attributes.">
<polygon fill="none" stroke="black" points="904,-503.5 904,-524.5 1018,-524.5 1018,-503.5 904,-503.5"/>
<text text-anchor="middle" x="961" y="-511.5" font-family="FreeSans" font-size="10.00">Urho3D::Serializable</text>
</a>
</g>
<!-- Node8&#45;&gt;Node7 -->
<g id="edge16" class="edge"><title>Node8&#45;&gt;Node7</title>
<path fill="none" stroke="midnightblue" d="M1028.42,-513.775C1081.22,-513.599 1153.85,-513.357 1203.82,-513.191"/>
<polygon fill="midnightblue" stroke="midnightblue" points="1028.12,-510.276 1018.13,-513.81 1028.15,-517.276 1028.12,-510.276"/>
</g>
<!-- Node9 -->
<g id="node17" class="node"><title>Node9</title>
<a xlink:href="a00240.html" target="_top" xlink:title="Base class for objects with type identification, subsystem access and event sending/receiving capabil...">
<polygon fill="none" stroke="red" points="516,-506.5 516,-527.5 606,-527.5 606,-506.5 516,-506.5"/>
<text text-anchor="middle" x="561" y="-514.5" font-family="FreeSans" font-size="10.00">Urho3D::Object</text>
</a>
</g>
<!-- Node9&#45;&gt;Node8 -->
<g id="edge18" class="edge"><title>Node9&#45;&gt;Node8</title>
<path fill="none" stroke="midnightblue" d="M616.384,-516.585C692.094,-516.017 827.222,-515.003 903.846,-514.429"/>
<polygon fill="midnightblue" stroke="midnightblue" points="616.081,-513.087 606.108,-516.662 616.134,-520.087 616.081,-513.087"/>
</g>
<!-- Node10 -->
<g id="node19" class="node"><title>Node10</title>
<a xlink:href="a00176.html" target="_top" xlink:title="Hash map template class.">
<polygon fill="none" stroke="black" points="334,-548.5 334,-569.5 480,-569.5 480,-548.5 334,-548.5"/>
<text text-anchor="middle" x="407" y="-556.5" font-family="FreeSans" font-size="10.00">Urho3D::HashMap&lt; T, U &gt;</text>
</a>
</g>
<!-- Node10&#45;&gt;Node8 -->
<g id="edge20" class="edge"><title>Node10&#45;&gt;Node8</title>
<path fill="none" stroke="#9a32cd" stroke-dasharray="5,2" d="M490.449,-556.33C582.608,-552.776 735.265,-545.098 866,-530 878.461,-528.561 891.775,-526.592 904.372,-524.527"/>
<polygon fill="#9a32cd" stroke="#9a32cd" points="490.205,-552.837 480.344,-556.712 490.47,-559.832 490.205,-552.837"/>
<text text-anchor="middle" x="561" y="-560" font-family="FreeSans" font-size="10.00"> instanceDefaultValues_</text>
</g>
<!-- Node11 -->
<g id="node21" class="node"><title>Node11</title>
<a xlink:href="a00174.html" target="_top" xlink:title="Hash set/map base class.">
<polygon fill="none" stroke="red" points="0,-501.5 0,-522.5 108,-522.5 108,-501.5 0,-501.5"/>
<text text-anchor="middle" x="54" y="-509.5" font-family="FreeSans" font-size="10.00">Urho3D::HashBase</text>
</a>
</g>
<!-- Node11&#45;&gt;Node10 -->
<g id="edge22" class="edge"><title>Node11&#45;&gt;Node10</title>
<path fill="none" stroke="midnightblue" d="M118.623,-520.604C179.436,-528.701 270.395,-540.812 333.846,-549.26"/>
<polygon fill="midnightblue" stroke="midnightblue" points="118.757,-517.091 108.383,-519.241 117.833,-524.03 118.757,-517.091"/>
</g>
<!-- Node13 -->
<g id="node25" class="node"><title>Node13</title>
<a xlink:href="a00176.html" target="_top" xlink:title="Urho3D::HashMap\&lt; ShortString\lHash, Variant \&gt;">
<polygon fill="none" stroke="black" points="146,-460 146,-494 316,-494 316,-460 146,-460"/>
<text text-anchor="start" x="154" y="-481" font-family="FreeSans" font-size="10.00">Urho3D::HashMap&lt; ShortString</text>
<text text-anchor="middle" x="231" y="-468" font-family="FreeSans" font-size="10.00">Hash, Variant &gt;</text>
</a>
</g>
<!-- Node11&#45;&gt;Node13 -->
<g id="edge28" class="edge"><title>Node11&#45;&gt;Node13</title>
<path fill="none" stroke="midnightblue" d="M117.049,-499.533C126.383,-497.687 136.129,-495.76 145.821,-493.843"/>
<polygon fill="midnightblue" stroke="midnightblue" points="116.237,-496.125 107.106,-501.499 117.595,-502.992 116.237,-496.125"/>
</g>
<!-- Node15 -->
<g id="node30" class="node"><title>Node15</title>
<a xlink:href="a00176.html" target="_top" xlink:title="Urho3D::HashMap\&lt; Urho3D\l::String, Urho3D::SharedPtr\l\&lt; Urho3D::AttributeAnimationInstance \&gt; \&gt;">
<polygon fill="none" stroke="black" points="642,-377.5 642,-424.5 866,-424.5 866,-377.5 642,-377.5"/>
<text text-anchor="start" x="650" y="-411.5" font-family="FreeSans" font-size="10.00">Urho3D::HashMap&lt; Urho3D</text>
<text text-anchor="start" x="650" y="-398.5" font-family="FreeSans" font-size="10.00">::String, Urho3D::SharedPtr</text>
<text text-anchor="middle" x="754" y="-385.5" font-family="FreeSans" font-size="10.00">&lt; Urho3D::AttributeAnimationInstance &gt; &gt;</text>
</a>
</g>
<!-- Node11&#45;&gt;Node15 -->
<g id="edge34" class="edge"><title>Node11&#45;&gt;Node15</title>
<path fill="none" stroke="midnightblue" d="M73.9998,-494.903C91.7196,-480.74 118.914,-461.321 146,-451 310.043,-388.491 516.54,-385.966 641.749,-391.955"/>
<polygon fill="midnightblue" stroke="midnightblue" points="71.622,-492.326 66.104,-501.371 76.0579,-497.741 71.622,-492.326"/>
</g>
<!-- Node16 -->
<g id="node33" class="node"><title>Node16</title>
<a xlink:href="a00178.html" target="_top" xlink:title="Urho3D::HashSet\&lt; const\l Urho3D::AttributeInfo * \&gt;">
<polygon fill="none" stroke="black" points="336.5,-577 336.5,-611 477.5,-611 477.5,-577 336.5,-577"/>
<text text-anchor="start" x="344.5" y="-598" font-family="FreeSans" font-size="10.00">Urho3D::HashSet&lt; const</text>
<text text-anchor="middle" x="407" y="-585" font-family="FreeSans" font-size="10.00"> Urho3D::AttributeInfo * &gt;</text>
</a>
</g>
<!-- Node11&#45;&gt;Node16 -->
<g id="edge38" class="edge"><title>Node11&#45;&gt;Node16</title>
<path fill="none" stroke="midnightblue" d="M85.0039,-526.853C102.557,-534.738 125.117,-544.009 146,-550 209.164,-568.119 283.201,-579.725 336.255,-586.44"/>
<polygon fill="midnightblue" stroke="midnightblue" points="86.3591,-523.625 75.8096,-522.645 83.4458,-529.99 86.3591,-523.625"/>
</g>
<!-- Node12 -->
<g id="node23" class="node"><title>Node12</title>
<a xlink:href="a00233.html" target="_top" xlink:title="Per&#45;object attribute state for network replication, allocated on demand.">
<polygon fill="none" stroke="red" points="498.5,-466.5 498.5,-487.5 623.5,-487.5 623.5,-466.5 498.5,-466.5"/>
<text text-anchor="middle" x="561" y="-474.5" font-family="FreeSans" font-size="10.00">Urho3D::NetworkState</text>
</a>
</g>
<!-- Node12&#45;&gt;Node8 -->
<g id="edge24" class="edge"><title>Node12&#45;&gt;Node8</title>
<path fill="none" stroke="#9a32cd" stroke-dasharray="5,2" d="M633.73,-479.998C695.64,-483.031 786.862,-488.634 866,-498 878.374,-499.464 891.592,-501.432 904.114,-503.485"/>
<polygon fill="#9a32cd" stroke="#9a32cd" points="633.826,-476.499 623.67,-479.516 633.49,-483.491 633.826,-476.499"/>
<text text-anchor="middle" x="754" y="-502" font-family="FreeSans" font-size="10.00"> networkState_</text>
</g>
<!-- Node13&#45;&gt;Node6 -->
<g id="edge66" class="edge"><title>Node13&#45;&gt;Node6</title>
<path fill="none" stroke="#9a32cd" stroke-dasharray="5,2" d="M326.287,-468.125C377.19,-463.823 440.952,-459.134 498,-457 888.84,-442.382 986.887,-459.222 1378,-460 1424.57,-460.093 1477.47,-460.085 1516.09,-460.058"/>
<polygon fill="#9a32cd" stroke="#9a32cd" points="325.949,-464.641 316.283,-468.979 326.545,-471.616 325.949,-464.641"/>
<text text-anchor="middle" x="961" y="-459" font-family="FreeSans" font-size="10.00"> vars_</text>
</g>
<!-- Node13&#45;&gt;Node12 -->
<g id="edge26" class="edge"><title>Node13&#45;&gt;Node12</title>
<path fill="none" stroke="#9a32cd" stroke-dasharray="5,2" d="M326.579,-477C381.862,-477 449.86,-477 498.358,-477"/>
<polygon fill="#9a32cd" stroke="#9a32cd" points="326.412,-473.5 316.412,-477 326.412,-480.5 326.412,-473.5"/>
<text text-anchor="middle" x="407" y="-481" font-family="FreeSans" font-size="10.00"> previousVars_</text>
</g>
<!-- Node14 -->
<g id="node28" class="node"><title>Node14</title>
<a xlink:href="a00319.html" target="_top" xlink:title="Urho3D::SharedPtr\&lt;\l Urho3D::ObjectAnimation \&gt;">
<polygon fill="none" stroke="red" points="884.5,-617 884.5,-651 1037.5,-651 1037.5,-617 884.5,-617"/>
<text text-anchor="start" x="892.5" y="-638" font-family="FreeSans" font-size="10.00">Urho3D::SharedPtr&lt;</text>
<text text-anchor="middle" x="961" y="-625" font-family="FreeSans" font-size="10.00"> Urho3D::ObjectAnimation &gt;</text>
</a>
</g>
<!-- Node14&#45;&gt;Node7 -->
<g id="edge30" class="edge"><title>Node14&#45;&gt;Node7</title>
<path fill="none" stroke="#9a32cd" stroke-dasharray="5,2" d="M1047.73,-622.121C1091.3,-615.399 1136.46,-606.969 1144,-600 1166.64,-579.073 1139.52,-554.104 1162,-533 1173.31,-522.379 1188.64,-516.711 1203.84,-513.841"/>
<polygon fill="#9a32cd" stroke="#9a32cd" points="1046.96,-618.698 1037.6,-623.66 1048.01,-625.619 1046.96,-618.698"/>
<text text-anchor="middle" x="1100" y="-625" font-family="FreeSans" font-size="10.00"> objectAnimation_</text>
</g>
<!-- Node15&#45;&gt;Node7 -->
<g id="edge32" class="edge"><title>Node15&#45;&gt;Node7</title>
<path fill="none" stroke="#9a32cd" stroke-dasharray="5,2" d="M876.326,-407.276C926.849,-411.58 985.713,-418.823 1038,-431 1113.53,-448.589 1198.39,-484.567 1238.14,-502.44"/>
<polygon fill="#9a32cd" stroke="#9a32cd" points="876.59,-403.786 866.337,-406.453 876.016,-410.762 876.59,-403.786"/>
<text text-anchor="middle" x="961" y="-435" font-family="FreeSans" font-size="10.00"> attributeAnimationInstances_</text>
</g>
<!-- Node16&#45;&gt;Node7 -->
<g id="edge36" class="edge"><title>Node16&#45;&gt;Node7</title>
<path fill="none" stroke="#9a32cd" stroke-dasharray="5,2" d="M488.044,-587.866C623.874,-577.332 906.009,-554.377 1144,-528 1163.54,-525.834 1184.88,-523.184 1203.92,-520.716"/>
<polygon fill="#9a32cd" stroke="#9a32cd" points="487.43,-584.403 477.73,-588.663 487.97,-591.382 487.43,-584.403"/>
<text text-anchor="middle" x="754" y="-580" font-family="FreeSans" font-size="10.00"> animatedNetworkAttributes_</text>
</g>
<!-- Node17 -->
<g id="node36" class="node"><title>Node17</title>
<a xlink:href="a00187.html" target="_top" xlink:title="Two&#45;dimensional bounding rectangle with integer values.">
<polygon fill="none" stroke="black" points="1215,-594.5 1215,-615.5 1307,-615.5 1307,-594.5 1215,-594.5"/>
<text text-anchor="middle" x="1261" y="-602.5" font-family="FreeSans" font-size="10.00">Urho3D::IntRect</text>
</a>
</g>
<!-- Node17&#45;&gt;Node6 -->
<g id="edge40" class="edge"><title>Node17&#45;&gt;Node6</title>
<path fill="none" stroke="#9a32cd" stroke-dasharray="5,2" d="M1317.18,-606.732C1368.11,-605.735 1443.35,-597.631 1498,-563 1534.29,-540.006 1557.8,-491.845 1566.83,-470.532"/>
<polygon fill="#9a32cd" stroke="#9a32cd" points="1316.97,-603.234 1307.01,-606.843 1317.05,-610.233 1316.97,-603.234"/>
<text text-anchor="middle" x="1438" y="-619" font-family="FreeSans" font-size="10.00"> clipBorder_</text>
<text text-anchor="middle" x="1438" y="-606" font-family="FreeSans" font-size="10.00">layoutBorder_</text>
</g>
<!-- Node17&#45;&gt;Node17 -->
<g id="edge42" class="edge"><title>Node17&#45;&gt;Node17</title>
<path fill="none" stroke="#9a32cd" stroke-dasharray="5,2" d="M1231.36,-625.055C1233.3,-630.164 1243.18,-634 1261,-634 1288.81,-634 1297.29,-624.653 1286.42,-615.708"/>
<polygon fill="#9a32cd" stroke="#9a32cd" points="1234.65,-626.262 1235.58,-615.708 1228.27,-623.382 1234.65,-626.262"/>
<text text-anchor="middle" x="1261" y="-638" font-family="FreeSans" font-size="10.00"> ZERO</text>
</g>
<!-- Node18&#45;&gt;Node6 -->
<g id="edge44" class="edge"><title>Node18&#45;&gt;Node6</title>
<path fill="none" stroke="#9a32cd" stroke-dasharray="5,2" d="M1369.88,-547.28C1411.18,-540.315 1457.88,-529.311 1498,-512 1522,-501.643 1545.94,-482.485 1559.56,-470.538"/>
<polygon fill="#9a32cd" stroke="#9a32cd" points="1369.09,-543.862 1359.79,-548.922 1370.22,-550.772 1369.09,-543.862"/>
<text text-anchor="middle" x="1438" y="-550" font-family="FreeSans" font-size="10.00"> children_</text>
</g>
<!-- Node19 -->
<g id="node43" class="node"><title>Node19</title>
<a xlink:href="a00342.html" target="_top" xlink:title="String class.">
<polygon fill="none" stroke="black" points="917,-97.5 917,-118.5 1005,-118.5 1005,-97.5 917,-97.5"/>
<text text-anchor="middle" x="961" y="-105.5" font-family="FreeSans" font-size="10.00">Urho3D::String</text>
</a>
</g>
<!-- Node19&#45;&gt;Node1 -->
<g id="edge72" class="edge"><title>Node19&#45;&gt;Node1</title>
<path fill="none" stroke="#9a32cd" stroke-dasharray="5,2" d="M1012.82,-95.1492C1072.33,-81.5397 1173.08,-62 1261,-62 1261,-62 1261,-62 1844,-62 1975.3,-62 2064.06,-568.288 2077.29,-648.385"/>
<polygon fill="#9a32cd" stroke="#9a32cd" points="1011.87,-91.7773 1002.92,-97.4467 1013.45,-98.5963 1011.87,-91.7773"/>
<text text-anchor="middle" x="1571" y="-66" font-family="FreeSans" font-size="10.00"> name_</text>
</g>
<!-- Node19&#45;&gt;Node6 -->
<g id="edge50" class="edge"><title>Node19&#45;&gt;Node6</title>
<path fill="none" stroke="#9a32cd" stroke-dasharray="5,2" d="M1015.31,-99.5526C1093.65,-89.4969 1241.95,-78.5099 1360,-117 1431.03,-140.16 1454.27,-152.417 1498,-213 1554.4,-291.136 1567.57,-412.752 1570.33,-449.277"/>
<polygon fill="#9a32cd" stroke="#9a32cd" points="1014.64,-96.1106 1005.18,-100.897 1015.56,-103.05 1014.64,-96.1106"/>
<text text-anchor="middle" x="1261" y="-134" font-family="FreeSans" font-size="10.00"> appliedStyle_</text>
<text text-anchor="middle" x="1261" y="-121" font-family="FreeSans" font-size="10.00">name_</text>
</g>
<!-- Node19&#45;&gt;Node19 -->
<g id="edge52" class="edge"><title>Node19&#45;&gt;Node19</title>
<path fill="none" stroke="#9a32cd" stroke-dasharray="5,2" d="M935.433,-128.055C937.11,-133.164 945.633,-137 961,-137 984.988,-137 992.297,-127.653 982.927,-118.708"/>
<polygon fill="#9a32cd" stroke="#9a32cd" points="938.706,-129.296 939.073,-118.708 932.183,-126.756 938.706,-129.296"/>
<text text-anchor="middle" x="961" y="-141" font-family="FreeSans" font-size="10.00"> EMPTY</text>
</g>
<!-- Node20 -->
<g id="node46" class="node"><title>Node20</title>
<a xlink:href="a00393.html" target="_top" xlink:title="XPath query.">
<polygon fill="none" stroke="black" points="1203.5,-424.5 1203.5,-445.5 1318.5,-445.5 1318.5,-424.5 1203.5,-424.5"/>
<text text-anchor="middle" x="1261" y="-432.5" font-family="FreeSans" font-size="10.00">Urho3D::XPathQuery</text>
</a>
</g>
<!-- Node19&#45;&gt;Node20 -->
<g id="edge56" class="edge"><title>Node19&#45;&gt;Node20</title>
<path fill="none" stroke="#9a32cd" stroke-dasharray="5,2" d="M975.486,-127.047C1007.92,-170.152 1087.94,-279.061 1144,-377 1153.28,-393.219 1147.28,-403.485 1162,-415 1173.81,-424.238 1188.77,-429.536 1203.47,-432.496"/>
<polygon fill="#9a32cd" stroke="#9a32cd" points="978.133,-124.744 969.312,-118.875 972.547,-128.964 978.133,-124.744"/>
<text text-anchor="middle" x="1100" y="-381" font-family="FreeSans" font-size="10.00"> queryString_</text>
</g>
<!-- Node20&#45;&gt;Node6 -->
<g id="edge54" class="edge"><title>Node20&#45;&gt;Node6</title>
<path fill="none" stroke="#9a32cd" stroke-dasharray="5,2" d="M1328.8,-436.173C1376.29,-437.546 1441.18,-440.528 1498,-447 1504.01,-447.685 1510.28,-448.556 1516.5,-449.523"/>
<polygon fill="#9a32cd" stroke="#9a32cd" points="1328.73,-432.67 1318.63,-435.896 1328.54,-439.667 1328.73,-432.67"/>
<text text-anchor="middle" x="1438" y="-451" font-family="FreeSans" font-size="10.00"> styleXPathQuery_</text>
</g>
<!-- Node21 -->
<g id="node49" class="node"><title>Node21</title>
<a xlink:href="a00319.html" target="_top" xlink:title="Urho3D::SharedPtr\&lt;\l Urho3D::XMLFile \&gt;">
<polygon fill="none" stroke="black" points="1203,-0 1203,-34 1319,-34 1319,-0 1203,-0"/>
<text text-anchor="start" x="1211" y="-21" font-family="FreeSans" font-size="10.00">Urho3D::SharedPtr&lt;</text>
<text text-anchor="middle" x="1261" y="-8" font-family="FreeSans" font-size="10.00"> Urho3D::XMLFile &gt;</text>
</a>
</g>
<!-- Node21&#45;&gt;Node6 -->
<g id="edge58" class="edge"><title>Node21&#45;&gt;Node6</title>
<path fill="none" stroke="#9a32cd" stroke-dasharray="5,2" d="M1329.32,-16.9083C1382.83,-20.6715 1455.14,-34.8744 1498,-81 1550,-136.963 1567.28,-393.87 1570.44,-449.398"/>
<polygon fill="#9a32cd" stroke="#9a32cd" points="1329.42,-13.4078 1319.23,-16.3051 1329,-20.3953 1329.42,-13.4078"/>
<text text-anchor="middle" x="1438" y="-85" font-family="FreeSans" font-size="10.00"> defaultStyle_</text>
</g>
<!-- Node22 -->
<g id="node51" class="node"><title>Node22</title>
<a xlink:href="a00392.html" target="_top" xlink:title="XML document resource.">
<polygon fill="none" stroke="red" points="914,-6.5 914,-27.5 1008,-27.5 1008,-6.5 914,-6.5"/>
<text text-anchor="middle" x="961" y="-14.5" font-family="FreeSans" font-size="10.00">Urho3D::XMLFile</text>
</a>
</g>
<!-- Node22&#45;&gt;Node21 -->
<g id="edge60" class="edge"><title>Node22&#45;&gt;Node21</title>
<path fill="none" stroke="#9a32cd" stroke-dasharray="5,2" d="M1018.44,-17C1071.38,-17 1149.57,-17 1202.76,-17"/>
<polygon fill="#9a32cd" stroke="#9a32cd" points="1018.21,-13.5001 1008.21,-17 1018.2,-20.5001 1018.21,-13.5001"/>
<text text-anchor="middle" x="1100" y="-21" font-family="FreeSans" font-size="10.00"> ptr_</text>
</g>
<!-- Node23 -->
<g id="node53" class="node"><title>Node23</title>
<a xlink:href="a00188.html" target="_top" xlink:title="Two&#45;dimensional vector with integer values.">
<polygon fill="none" stroke="black" points="1207,-353.5 1207,-374.5 1315,-374.5 1315,-353.5 1207,-353.5"/>
<text text-anchor="middle" x="1261" y="-361.5" font-family="FreeSans" font-size="10.00">Urho3D::IntVector2</text>
</a>
</g>
<!-- Node23&#45;&gt;Node6 -->
<g id="edge62" class="edge"><title>Node23&#45;&gt;Node6</title>
<path fill="none" stroke="#9a32cd" stroke-dasharray="5,2" d="M1320.63,-351.523C1380.7,-340.262 1468.57,-327.749 1498,-344 1539.87,-367.121 1560.99,-425.445 1568.14,-449.439"/>
<polygon fill="#9a32cd" stroke="#9a32cd" points="1319.67,-348.144 1310.5,-353.459 1320.98,-355.019 1319.67,-348.144"/>
<text text-anchor="middle" x="1438" y="-426" font-family="FreeSans" font-size="10.00"> maxSize_</text>
<text text-anchor="middle" x="1438" y="-413" font-family="FreeSans" font-size="10.00">childOffset_</text>
<text text-anchor="middle" x="1438" y="-400" font-family="FreeSans" font-size="10.00">size_</text>
<text text-anchor="middle" x="1438" y="-387" font-family="FreeSans" font-size="10.00">position_</text>
<text text-anchor="start" x="1403" y="-374" font-family="FreeSans" font-size="10.00">screenPosition</text>
<text text-anchor="middle" x="1438" y="-361" font-family="FreeSans" font-size="10.00">_</text>
<text text-anchor="middle" x="1438" y="-348" font-family="FreeSans" font-size="10.00">minSize_</text>
</g>
<!-- Node23&#45;&gt;Node23 -->
<g id="edge64" class="edge"><title>Node23&#45;&gt;Node23</title>
<path fill="none" stroke="#9a32cd" stroke-dasharray="5,2" d="M1231.36,-384.055C1233.3,-389.164 1243.18,-393 1261,-393 1288.81,-393 1297.29,-383.653 1286.42,-374.708"/>
<polygon fill="#9a32cd" stroke="#9a32cd" points="1234.65,-385.262 1235.58,-374.708 1228.27,-382.382 1234.65,-385.262"/>
<text text-anchor="middle" x="1261" y="-397" font-family="FreeSans" font-size="10.00"> ZERO</text>
</g>
<!-- Node24 -->
<g id="node57" class="node"><title>Node24</title>
<a xlink:href="a00100.html" target="_top" xlink:title="RGBA color.">
<polygon fill="none" stroke="black" points="1219,-152.5 1219,-173.5 1303,-173.5 1303,-152.5 1219,-152.5"/>
<text text-anchor="middle" x="1261" y="-160.5" font-family="FreeSans" font-size="10.00">Urho3D::Color</text>
</a>
</g>
<!-- Node24&#45;&gt;Node6 -->
<g id="edge68" class="edge"><title>Node24&#45;&gt;Node6</title>
<path fill="none" stroke="#9a32cd" stroke-dasharray="5,2" d="M1297.97,-177.413C1348.86,-198.864 1440.67,-243.584 1498,-307 1538.26,-351.539 1560.71,-422.251 1568.17,-449.139"/>
<polygon fill="#9a32cd" stroke="#9a32cd" points="1299.24,-174.15 1288.66,-173.556 1296.56,-180.617 1299.24,-174.15"/>
<text text-anchor="middle" x="1438" y="-324" font-family="FreeSans" font-size="10.00"> derivedColor_</text>
<text text-anchor="middle" x="1438" y="-311" font-family="FreeSans" font-size="10.00">color_</text>
</g>
<!-- Node24&#45;&gt;Node24 -->
<g id="edge70" class="edge"><title>Node24&#45;&gt;Node24</title>
<path fill="none" stroke="#9a32cd" stroke-dasharray="5,2" d="M1231.36,-183.055C1233.3,-188.164 1243.18,-192 1261,-192 1288.81,-192 1297.29,-182.653 1286.42,-173.708"/>
<polygon fill="#9a32cd" stroke="#9a32cd" points="1234.65,-184.262 1235.58,-173.708 1228.27,-181.382 1234.65,-184.262"/>
<text text-anchor="middle" x="1261" y="-326" font-family="FreeSans" font-size="10.00"> CYAN</text>
<text text-anchor="middle" x="1261" y="-313" font-family="FreeSans" font-size="10.00">GRAY</text>
<text text-anchor="middle" x="1261" y="-300" font-family="FreeSans" font-size="10.00">YELLOW</text>
<text text-anchor="middle" x="1261" y="-287" font-family="FreeSans" font-size="10.00">MAGENTA</text>
<text text-anchor="middle" x="1261" y="-274" font-family="FreeSans" font-size="10.00">WHITE</text>
<text text-anchor="middle" x="1261" y="-261" font-family="FreeSans" font-size="10.00">TRANSPARENT</text>
<text text-anchor="middle" x="1261" y="-248" font-family="FreeSans" font-size="10.00">BLUE</text>
<text text-anchor="middle" x="1261" y="-235" font-family="FreeSans" font-size="10.00">BLACK</text>
<text text-anchor="middle" x="1261" y="-222" font-family="FreeSans" font-size="10.00">RED</text>
<text text-anchor="middle" x="1261" y="-209" font-family="FreeSans" font-size="10.00">GREEN</text>
<text text-anchor="middle" x="1261" y="-196" font-family="FreeSans" font-size="10.00">...</text>
</g>
<!-- Node25&#45;&gt;Node1 -->
<g id="edge74" class="edge"><title>Node25&#45;&gt;Node1</title>
<path fill="none" stroke="#9a32cd" stroke-dasharray="5,2" d="M1507.94,-747.871C1599.62,-743.254 1765.34,-733.141 1906,-715 1947.96,-709.589 1959.82,-713.247 2000,-700 2022.75,-692.5 2046.91,-679.052 2062.43,-669.608"/>
<polygon fill="#9a32cd" stroke="#9a32cd" points="1507.49,-744.389 1497.67,-748.38 1507.83,-751.38 1507.49,-744.389"/>
<text text-anchor="middle" x="1704" y="-743" font-family="FreeSans" font-size="10.00"> axes_</text>
</g>
</g>
</svg>
        <g id="navigator" transform="translate(0 0)" fill="#404254">
                <rect fill="#f2f5e9" fill-opacity="0.5" stroke="#606060" stroke-width=".5" x="0" y="0" width="60" height="60"/>
                <use id="zoomplus" xlink:href="#zoomPlus" x="17" y="9" onmousedown="handleZoom(evt,'in')"/>
                <use id="zoomminus" xlink:href="#zoomMin" x="42" y="9" onmousedown="handleZoom(evt,'out')"/>
                <use id="reset" xlink:href="#resetDef" x="30" y="36" onmousedown="handleReset()"/>
                <g id="arrowUp" xlink:href="#dirArrow" transform="translate(30 24)" onmousedown="handlePan(0,-1)">
                  <use xlink:href="#rim" fill="#404040">
                        <set attributeName="fill" to="#808080" begin="arrowUp.mouseover" end="arrowUp.mouseout"/>
                  </use>
                  <path fill="none" stroke="white" stroke-width="1.5" d="M0,-3.0v7 M-2.5,-0.5L0,-3.0L2.5,-0.5"/>
                </g>
                <g id="arrowRight" xlink:href="#dirArrow" transform="rotate(90) translate(36 -43)" onmousedown="handlePan(1,0)">
                  <use xlink:href="#rim" fill="#404040">
                        <set attributeName="fill" to="#808080" begin="arrowRight.mouseover" end="arrowRight.mouseout"/>
                  </use>
                  <path fill="none" stroke="white" stroke-width="1.5" d="M0,-3.0v7 M-2.5,-0.5L0,-3.0L2.5,-0.5"/>
                </g>
                <g id="arrowDown" xlink:href="#dirArrow" transform="rotate(180) translate(-30 -48)" onmousedown="handlePan(0,1)">
                  <use xlink:href="#rim" fill="#404040">
                        <set attributeName="fill" to="#808080" begin="arrowDown.mouseover" end="arrowDown.mouseout"/>
                  </use>
                  <path fill="none" stroke="white" stroke-width="1.5" d="M0,-3.0v7 M-2.5,-0.5L0,-3.0L2.5,-0.5"/>
                </g>
                <g id="arrowLeft" xlink:href="#dirArrow" transform="rotate(270) translate(-36 17)" onmousedown="handlePan(-1,0)">
                  <use xlink:href="#rim" fill="#404040">
                        <set attributeName="fill" to="#808080" begin="arrowLeft.mouseover" end="arrowLeft.mouseout"/>
                  </use>
                  <path fill="none" stroke="white" stroke-width="1.5" d="M0,-3.0v7 M-2.5,-0.5L0,-3.0L2.5,-0.5"/>
                </g>
        </g>
        <svg viewBox="0 0 15 15" width="100%" height="30px" preserveAspectRatio="xMaxYMin meet">
         <g id="arrow_out" transform="scale(0.3 0.3)">
          <a xlink:href="a01303_org.svg" target="_base">
           <rect id="button" ry="5" rx="5" y="6" x="6" height="38" width="38"
                fill="#f2f5e9" fill-opacity="0.5" stroke="#606060" stroke-width="1.0"/>
           <path id="arrow"
             d="M 11.500037,31.436501 C 11.940474,20.09759 22.043105,11.32322 32.158766,21.979434 L 37.068811,17.246167 C 37.068811,17.246167 37.088388,32 37.088388,32 L 22.160133,31.978069 C 22.160133,31.978069 26.997745,27.140456 26.997745,27.140456 C 18.528582,18.264221 13.291696,25.230495 11.500037,31.436501 z"
             style="fill:#404040;"/>
          </a>
         </g>
        </svg>
</svg>
