<?xml version="1.0" encoding="UTF-8" standalone="no"?>
<!DOCTYPE svg PUBLIC "-//W3C//DTD SVG 1.1//EN"
 "http://www.w3.org/Graphics/SVG/1.1/DTD/svg11.dtd">
<!-- Generated by graphviz version 2.26.3 (20100126.1600)
 -->
<!-- Title: Urho3D::PhysicsRaycastResult Pages: 1 -->
<!--zoomable 733 -->
<svg id="main" version="1.1" xmlns="http://www.w3.org/2000/svg" xmlns:xlink="http://www.w3.org/1999/xlink" xml:space="preserve" onload="init(evt)">
        <defs>
                <circle id="rim" cx="0" cy="0" r="7"/>
                <circle id="rim2" cx="0" cy="0" r="3.5"/>
                <g id="zoomPlus">
                        <use xlink:href="#rim" fill="#404040">
                                <set attributeName="fill" to="#808080" begin="zoomplus.mouseover" end="zoomplus.mouseout"/>
                        </use>
                        <path d="M-4,0h8M0,-4v8" fill="none" stroke="white" stroke-width="1.5" pointer-events="none"/>
                </g>
                <g id="zoomMin">
                        <use xlink:href="#rim" fill="#404040">
                                <set attributeName="fill" to="#808080" begin="zoomminus.mouseover" end="zoomminus.mouseout"/>
                        </use>
                        <path d="M-4,0h8" fill="none" stroke="white" stroke-width="1.5" pointer-events="none"/>
                </g>
                <g id="dirArrow">
                        <path fill="none" stroke="white" stroke-width="1.5" d="M0,-3.0v7 M-2.5,-0.5L0,-3.0L2.5,-0.5"/>
                </g>
               <g id="resetDef">
                       <use xlink:href="#rim2" fill="#404040">
                               <set attributeName="fill" to="#808080" begin="reset.mouseover" end="reset.mouseout"/>
                       </use>
               </g>
        </defs>

<script type="text/javascript">
var viewWidth = 2032;
var viewHeight = 733;
var sectionId = 'dynsection-0';
</script>
<script xlink:href="svgpan.js"/>
<svg id="graph" class="graph">
<g id="viewport">
<title>Urho3D::PhysicsRaycastResult</title>
<!-- Node1 -->
<g id="node1" class="node"><title>Node1</title>
<polygon fill="#bfbfbf" stroke="black" points="1862.5,-542.5 1862.5,-563.5 2023.5,-563.5 2023.5,-542.5 1862.5,-542.5"/>
<text text-anchor="middle" x="1943" y="-550.5" font-family="FreeSans" font-size="10.00">Urho3D::PhysicsRaycastResult</text>
</g>
<!-- Node2 -->
<g id="node2" class="node"><title>Node2</title>
<a xlink:href="a00354.html" target="_top" xlink:title="Three&#45;dimensional vector.">
<polygon fill="none" stroke="black" points="580,-581.5 580,-602.5 676,-602.5 676,-581.5 580,-581.5"/>
<text text-anchor="middle" x="628" y="-589.5" font-family="FreeSans" font-size="10.00">Urho3D::Vector3</text>
</a>
</g>
<!-- Node2&#45;&gt;Node1 -->
<g id="edge2" class="edge"><title>Node2&#45;&gt;Node1</title>
<path fill="none" stroke="#9a32cd" stroke-dasharray="5,2" d="M662.094,-606.222C703.6,-622.22 776.192,-646 841,-646 841,-646 841,-646 1741,-646 1818.99,-646 1899.67,-588.096 1930.24,-563.668"/>
<polygon fill="#9a32cd" stroke="#9a32cd" points="663.318,-602.942 652.731,-602.54 660.756,-609.457 663.318,-602.942"/>
<text text-anchor="middle" x="1278" y="-663" font-family="FreeSans" font-size="10.00"> normal_</text>
<text text-anchor="middle" x="1278" y="-650" font-family="FreeSans" font-size="10.00">position_</text>
</g>
<!-- Node2&#45;&gt;Node2 -->
<g id="edge4" class="edge"><title>Node2&#45;&gt;Node2</title>
<path fill="none" stroke="#9a32cd" stroke-dasharray="5,2" d="M606.991,-612.427C608.612,-617.349 615.615,-621 628,-621 647.816,-621 653.854,-611.653 646.113,-602.708"/>
<polygon fill="#9a32cd" stroke="#9a32cd" points="610.385,-613.291 609.887,-602.708 603.677,-611.292 610.385,-613.291"/>
<text text-anchor="middle" x="628" y="-716" font-family="FreeSans" font-size="10.00"> ONE</text>
<text text-anchor="middle" x="628" y="-703" font-family="FreeSans" font-size="10.00">DOWN</text>
<text text-anchor="middle" x="628" y="-690" font-family="FreeSans" font-size="10.00">BACK</text>
<text text-anchor="middle" x="628" y="-677" font-family="FreeSans" font-size="10.00">RIGHT</text>
<text text-anchor="middle" x="628" y="-664" font-family="FreeSans" font-size="10.00">LEFT</text>
<text text-anchor="middle" x="628" y="-651" font-family="FreeSans" font-size="10.00">ZERO</text>
<text text-anchor="middle" x="628" y="-638" font-family="FreeSans" font-size="10.00">FORWARD</text>
<text text-anchor="middle" x="628" y="-625" font-family="FreeSans" font-size="10.00">UP</text>
</g>
<!-- Node3 -->
<g id="node5" class="node"><title>Node3</title>
<a xlink:href="a00279.html" target="_top" xlink:title="Physics rigid body component.">
<polygon fill="none" stroke="black" points="1688,-309.5 1688,-330.5 1794,-330.5 1794,-309.5 1688,-309.5"/>
<text text-anchor="middle" x="1741" y="-317.5" font-family="FreeSans" font-size="10.00">Urho3D::RigidBody</text>
</a>
</g>
<!-- Node2&#45;&gt;Node3 -->
<g id="edge84" class="edge"><title>Node2&#45;&gt;Node3</title>
<path fill="none" stroke="#9a32cd" stroke-dasharray="5,2" d="M686.451,-592C729.248,-592 788.732,-592 841,-592 841,-592 841,-592 1509,-592 1648.96,-592 1722.36,-380.952 1737.87,-330.663"/>
<polygon fill="#9a32cd" stroke="#9a32cd" points="686.219,-588.5 676.219,-592 686.219,-595.5 686.219,-588.5"/>
<text text-anchor="middle" x="1160" y="-622" font-family="FreeSans" font-size="10.00"> centerOfMass_</text>
<text text-anchor="middle" x="1160" y="-609" font-family="FreeSans" font-size="10.00">gravityOverride_</text>
<text text-anchor="middle" x="1160" y="-596" font-family="FreeSans" font-size="10.00">lastPosition_</text>
</g>
<!-- Node8 -->
<g id="node15" class="node"><title>Node8</title>
<a xlink:href="a00220.html" target="_top" xlink:title="Scene node that may contain components and child nodes.">
<polygon fill="none" stroke="red" points="798.5,-342.5 798.5,-363.5 883.5,-363.5 883.5,-342.5 798.5,-342.5"/>
<text text-anchor="middle" x="841" y="-350.5" font-family="FreeSans" font-size="10.00">Urho3D::Node</text>
</a>
</g>
<!-- Node2&#45;&gt;Node8 -->
<g id="edge54" class="edge"><title>Node2&#45;&gt;Node8</title>
<path fill="none" stroke="#9a32cd" stroke-dasharray="5,2" d="M663.842,-577.302C671.944,-573.589 680.395,-569.397 688,-565 696.543,-560.061 697.751,-557.416 706,-552 737.986,-531 755.214,-537.151 780,-508 818.402,-462.836 834.417,-390.611 839.274,-363.626"/>
<polygon fill="#9a32cd" stroke="#9a32cd" points="662.28,-574.166 654.563,-581.424 665.123,-580.563 662.28,-574.166"/>
<text text-anchor="middle" x="743" y="-569" font-family="FreeSans" font-size="10.00"> scale_</text>
<text text-anchor="middle" x="743" y="-556" font-family="FreeSans" font-size="10.00">position_</text>
</g>
<!-- Node3&#45;&gt;Node1 -->
<g id="edge6" class="edge"><title>Node3&#45;&gt;Node1</title>
<path fill="none" stroke="#9a32cd" stroke-dasharray="5,2" d="M1756.94,-338.382C1797.18,-384.806 1901.98,-505.684 1933.74,-542.321"/>
<polygon fill="#9a32cd" stroke="#9a32cd" points="1759.4,-335.88 1750.2,-330.617 1754.11,-340.466 1759.4,-335.88"/>
<text text-anchor="middle" x="1828" y="-440" font-family="FreeSans" font-size="10.00"> body_</text>
</g>
<!-- Node4 -->
<g id="node7" class="node"><title>Node4</title>
<a xlink:href="a00099.html" target="_top" xlink:title="Base class for components. Components can be created to scene nodes.">
<polygon fill="none" stroke="black" points="978,-278.5 978,-299.5 1094,-299.5 1094,-278.5 978,-278.5"/>
<text text-anchor="middle" x="1036" y="-286.5" font-family="FreeSans" font-size="10.00">Urho3D::Component</text>
</a>
</g>
<!-- Node4&#45;&gt;Node3 -->
<g id="edge8" class="edge"><title>Node4&#45;&gt;Node3</title>
<path fill="none" stroke="midnightblue" d="M1104.48,-292.011C1244.73,-298.178 1561.98,-312.128 1687.98,-317.668"/>
<polygon fill="midnightblue" stroke="midnightblue" points="1104.44,-288.506 1094.29,-291.563 1104.13,-295.499 1104.44,-288.506"/>
</g>
<!-- Node23 -->
<g id="node58" class="node"><title>Node23</title>
<a xlink:href="a00249.html" target="_top" xlink:title="Physics simulation world component. Should be added only to the root scene node.">
<polygon fill="none" stroke="red" points="1218,-158.5 1218,-179.5 1338,-179.5 1338,-158.5 1218,-158.5"/>
<text text-anchor="middle" x="1278" y="-166.5" font-family="FreeSans" font-size="10.00">Urho3D::PhysicsWorld</text>
</a>
</g>
<!-- Node4&#45;&gt;Node23 -->
<g id="edge74" class="edge"><title>Node4&#45;&gt;Node23</title>
<path fill="none" stroke="midnightblue" d="M1061.57,-273.011C1096.13,-251.863 1160.08,-214.318 1218,-189 1225.85,-185.57 1234.48,-182.373 1242.7,-179.586"/>
<polygon fill="midnightblue" stroke="midnightblue" points="1059.72,-270.043 1053.04,-278.267 1063.39,-276.003 1059.72,-270.043"/>
</g>
<!-- Node5 -->
<g id="node9" class="node"><title>Node5</title>
<a xlink:href="a00282.html" target="_top" xlink:title="Base class for scene objects.">
<polygon fill="none" stroke="black" points="568,-170.5 568,-191.5 688,-191.5 688,-170.5 568,-170.5"/>
<text text-anchor="middle" x="628" y="-178.5" font-family="FreeSans" font-size="10.00">Urho3D::SceneObject</text>
</a>
</g>
<!-- Node5&#45;&gt;Node4 -->
<g id="edge10" class="edge"><title>Node5&#45;&gt;Node4</title>
<path fill="none" stroke="midnightblue" d="M698.155,-184.03C724.073,-186.047 753.564,-189.406 780,-195 858.926,-211.702 876.643,-224.199 952,-253 972.749,-260.93 995.926,-270.953 1012.67,-278.409"/>
<polygon fill="midnightblue" stroke="midnightblue" points="698.265,-180.529 688.038,-183.296 697.758,-187.511 698.265,-180.529"/>
</g>
<!-- Node5&#45;&gt;Node8 -->
<g id="edge18" class="edge"><title>Node5&#45;&gt;Node8</title>
<path fill="none" stroke="midnightblue" d="M680.565,-196.107C683.17,-197.592 685.669,-199.219 688,-201 699.461,-209.754 695.738,-217.866 706,-228 733.894,-255.545 751.001,-249.621 780,-276 802.835,-296.772 823.873,-326.663 834.24,-342.394"/>
<polygon fill="midnightblue" stroke="midnightblue" points="681.901,-192.863 671.384,-191.58 678.806,-199.142 681.901,-192.863"/>
</g>
<!-- Node6 -->
<g id="node11" class="node"><title>Node6</title>
<a xlink:href="a00294.html" target="_top" xlink:title="Base class for objects with automatic serialization through attributes.">
<polygon fill="none" stroke="red" points="183,-248.5 183,-269.5 297,-269.5 297,-248.5 183,-248.5"/>
<text text-anchor="middle" x="240" y="-256.5" font-family="FreeSans" font-size="10.00">Urho3D::Serializable</text>
</a>
</g>
<!-- Node6&#45;&gt;Node5 -->
<g id="edge12" class="edge"><title>Node6&#45;&gt;Node5</title>
<path fill="none" stroke="midnightblue" d="M307.084,-256.487C371.181,-252.326 469.656,-241.283 550,-212 558.809,-208.789 559.498,-204.952 568,-201 575.567,-197.482 583.929,-194.29 591.948,-191.541"/>
<polygon fill="midnightblue" stroke="midnightblue" points="306.867,-252.994 297.099,-257.098 307.294,-259.981 306.867,-252.994"/>
</g>
<!-- Node7 -->
<g id="node13" class="node"><title>Node7</title>
<a xlink:href="a00163.html" target="_top" xlink:title="Urho3D::HashMap\&lt; const\l Urho3D::AttributeInfo\l *, Urho3D::SharedPtr\&lt;\l Urho3D::AttributeAnimation \&gt; \&gt;">
<polygon fill="none" stroke="red" points="152,-170 152,-230 328,-230 328,-170 152,-170"/>
<text text-anchor="start" x="160" y="-217" font-family="FreeSans" font-size="10.00">Urho3D::HashMap&lt; const</text>
<text text-anchor="start" x="160" y="-204" font-family="FreeSans" font-size="10.00"> Urho3D::AttributeInfo</text>
<text text-anchor="start" x="160" y="-191" font-family="FreeSans" font-size="10.00"> *, Urho3D::SharedPtr&lt;</text>
<text text-anchor="middle" x="240" y="-178" font-family="FreeSans" font-size="10.00"> Urho3D::AttributeAnimation &gt; &gt;</text>
</a>
</g>
<!-- Node7&#45;&gt;Node5 -->
<g id="edge14" class="edge"><title>Node7&#45;&gt;Node5</title>
<path fill="none" stroke="#9a32cd" stroke-dasharray="5,2" d="M338.081,-195.197C410.38,-191.657 506.428,-186.953 567.746,-183.951"/>
<polygon fill="#9a32cd" stroke="#9a32cd" points="337.86,-191.704 328.043,-195.689 338.202,-198.695 337.86,-191.704"/>
<text text-anchor="middle" x="448" y="-199" font-family="FreeSans" font-size="10.00"> attributeAnimations_</text>
</g>
<!-- Node8&#45;&gt;Node4 -->
<g id="edge16" class="edge"><title>Node8&#45;&gt;Node4</title>
<path fill="none" stroke="#9a32cd" stroke-dasharray="5,2" d="M863.875,-336.521C874.925,-329.257 888.658,-321.206 902,-316 925.987,-306.64 953.712,-300.364 977.697,-296.239"/>
<polygon fill="#9a32cd" stroke="#9a32cd" points="861.592,-333.841 855.291,-342.359 865.529,-339.629 861.592,-333.841"/>
<text text-anchor="middle" x="927" y="-320" font-family="FreeSans" font-size="10.00"> node_</text>
</g>
<!-- Node8&#45;&gt;Node8 -->
<g id="edge58" class="edge"><title>Node8&#45;&gt;Node8</title>
<path fill="none" stroke="#9a32cd" stroke-dasharray="5,2" d="M825.25,-373.793C826.64,-378.529 831.89,-382 841,-382 855.949,-382 860.504,-372.653 854.665,-363.708"/>
<polygon fill="#9a32cd" stroke="#9a32cd" points="828.738,-374.209 827.335,-363.708 821.883,-372.792 828.738,-374.209"/>
<text text-anchor="middle" x="841" y="-386" font-family="FreeSans" font-size="10.00"> parent_</text>
</g>
<!-- Node11 -->
<g id="node22" class="node"><title>Node11</title>
<a xlink:href="a00281.html" target="_top" xlink:title="Root scene node, represents the whole scene.">
<polygon fill="none" stroke="red" points="991.5,-325.5 991.5,-346.5 1080.5,-346.5 1080.5,-325.5 991.5,-325.5"/>
<text text-anchor="middle" x="1036" y="-333.5" font-family="FreeSans" font-size="10.00">Urho3D::Scene</text>
</a>
</g>
<!-- Node8&#45;&gt;Node11 -->
<g id="edge26" class="edge"><title>Node8&#45;&gt;Node11</title>
<path fill="none" stroke="midnightblue" d="M893.525,-353.066C912.039,-352.697 932.976,-351.834 952,-350 964.803,-348.766 978.606,-346.754 991.25,-344.635"/>
<polygon fill="midnightblue" stroke="midnightblue" points="893.459,-349.567 883.515,-353.224 893.569,-356.566 893.459,-349.567"/>
</g>
<!-- Node9 -->
<g id="node18" class="node"><title>Node9</title>
<a xlink:href="a00252.html" target="_top" xlink:title="Urho3D::PODVector\&lt;\l Urho3D::Node * \&gt;">
<polygon fill="none" stroke="black" points="388.5,-443 388.5,-477 507.5,-477 507.5,-443 388.5,-443"/>
<text text-anchor="start" x="396.5" y="-464" font-family="FreeSans" font-size="10.00">Urho3D::PODVector&lt;</text>
<text text-anchor="middle" x="448" y="-451" font-family="FreeSans" font-size="10.00"> Urho3D::Node * &gt;</text>
</a>
</g>
<!-- Node9&#45;&gt;Node8 -->
<g id="edge20" class="edge"><title>Node9&#45;&gt;Node8</title>
<path fill="none" stroke="#9a32cd" stroke-dasharray="5,2" d="M518.057,-454.47C587.229,-446.966 694.728,-429.725 780,-391 796.814,-383.364 814.574,-371.857 826.568,-363.506"/>
<polygon fill="#9a32cd" stroke="#9a32cd" points="517.298,-451.03 507.716,-455.551 518.025,-457.993 517.298,-451.03"/>
<text text-anchor="middle" x="628" y="-452" font-family="FreeSans" font-size="10.00"> dependencyNodes_</text>
</g>
<!-- Node10 -->
<g id="node20" class="node"><title>Node10</title>
<a xlink:href="a00356.html" target="_top" xlink:title="Vector base class.">
<polygon fill="none" stroke="black" points="0,-359.5 0,-380.5 114,-380.5 114,-359.5 0,-359.5"/>
<text text-anchor="middle" x="57" y="-367.5" font-family="FreeSans" font-size="10.00">Urho3D::VectorBase</text>
</a>
</g>
<!-- Node10&#45;&gt;Node9 -->
<g id="edge22" class="edge"><title>Node10&#45;&gt;Node9</title>
<path fill="none" stroke="midnightblue" d="M87.2828,-384.872C105.627,-393.34 129.714,-403.521 152,-410 232.197,-433.316 327.978,-447.034 388.407,-454.033"/>
<polygon fill="midnightblue" stroke="midnightblue" points="88.5315,-381.591 77.9927,-380.503 85.5526,-387.926 88.5315,-381.591"/>
</g>
<!-- Node14 -->
<g id="node31" class="node"><title>Node14</title>
<a xlink:href="a00352.html" target="_top" xlink:title="Urho3D::Vector\&lt; Urho3D\l::WeakPtr\&lt; Urho3D::Component \&gt; \&gt;">
<polygon fill="none" stroke="black" points="351,-397 351,-431 545,-431 545,-397 351,-397"/>
<text text-anchor="start" x="359" y="-418" font-family="FreeSans" font-size="10.00">Urho3D::Vector&lt; Urho3D</text>
<text text-anchor="middle" x="448" y="-405" font-family="FreeSans" font-size="10.00">::WeakPtr&lt; Urho3D::Component &gt; &gt;</text>
</a>
</g>
<!-- Node10&#45;&gt;Node14 -->
<g id="edge38" class="edge"><title>Node10&#45;&gt;Node14</title>
<path fill="none" stroke="midnightblue" d="M120.142,-382.206C124.148,-382.851 128.126,-383.456 132,-384 205.126,-394.275 288.278,-402.013 350.925,-407.055"/>
<polygon fill="midnightblue" stroke="midnightblue" points="120.607,-378.735 110.166,-380.535 119.451,-385.639 120.607,-378.735"/>
</g>
<!-- Node18 -->
<g id="node40" class="node"><title>Node18</title>
<a xlink:href="a00252.html" target="_top" xlink:title="Urho3D::PODVector\&lt;\l unsigned char \&gt;">
<polygon fill="none" stroke="black" points="180.5,-40 180.5,-74 299.5,-74 299.5,-40 180.5,-40"/>
<text text-anchor="start" x="188.5" y="-61" font-family="FreeSans" font-size="10.00">Urho3D::PODVector&lt;</text>
<text text-anchor="middle" x="240" y="-48" font-family="FreeSans" font-size="10.00"> unsigned char &gt;</text>
</a>
</g>
<!-- Node10&#45;&gt;Node18 -->
<g id="edge48" class="edge"><title>Node10&#45;&gt;Node18</title>
<path fill="none" stroke="midnightblue" d="M61.0109,-349.423C73.0271,-289.892 110.479,-119.411 152,-83 160.025,-75.9626 169.877,-70.828 180.05,-67.0821"/>
<polygon fill="midnightblue" stroke="midnightblue" points="57.5277,-348.994 59.0103,-359.485 64.3933,-350.359 57.5277,-348.994"/>
</g>
<!-- Node19 -->
<g id="node43" class="node"><title>Node19</title>
<a xlink:href="a00352.html" target="_top" xlink:title="Urho3D::Vector\&lt; Urho3D\l::SharedPtr\&lt; Urho3D::Component \&gt; \&gt;">
<polygon fill="none" stroke="black" points="346.5,-353 346.5,-387 549.5,-387 549.5,-353 346.5,-353"/>
<text text-anchor="start" x="354.5" y="-374" font-family="FreeSans" font-size="10.00">Urho3D::Vector&lt; Urho3D</text>
<text text-anchor="middle" x="448" y="-361" font-family="FreeSans" font-size="10.00">::SharedPtr&lt; Urho3D::Component &gt; &gt;</text>
</a>
</g>
<!-- Node10&#45;&gt;Node19 -->
<g id="edge52" class="edge"><title>Node10&#45;&gt;Node19</title>
<path fill="none" stroke="midnightblue" d="M124.561,-370C185.613,-370 276.341,-370 346.181,-370"/>
<polygon fill="midnightblue" stroke="midnightblue" points="124.274,-366.5 114.273,-370 124.273,-373.5 124.274,-366.5"/>
</g>
<!-- Node24 -->
<g id="node62" class="node"><title>Node24</title>
<a xlink:href="a00252.html" target="_top" xlink:title="Urho3D::PODVector\&lt;\l Urho3D::Constraint * \&gt;">
<polygon fill="none" stroke="black" points="970.5,-152 970.5,-186 1101.5,-186 1101.5,-152 970.5,-152"/>
<text text-anchor="start" x="978.5" y="-173" font-family="FreeSans" font-size="10.00">Urho3D::PODVector&lt;</text>
<text text-anchor="middle" x="1036" y="-160" font-family="FreeSans" font-size="10.00"> Urho3D::Constraint * &gt;</text>
</a>
</g>
<!-- Node10&#45;&gt;Node24 -->
<g id="edge80" class="edge"><title>Node10&#45;&gt;Node24</title>
<path fill="none" stroke="midnightblue" d="M60.1345,-349.307C67.6962,-306.931 91.0395,-210.136 152,-161 183.153,-135.89 199.988,-142 240,-142 240,-142 240,-142 841,-142 884.405,-142 932.735,-148.645 970.422,-155.342"/>
<polygon fill="midnightblue" stroke="midnightblue" points="56.6622,-348.852 58.4697,-359.292 63.5668,-350.003 56.6622,-348.852"/>
</g>
<!-- Node11&#45;&gt;Node8 -->
<g id="edge24" class="edge"><title>Node11&#45;&gt;Node8</title>
<path fill="none" stroke="#9a32cd" stroke-dasharray="5,2" d="M981.306,-333.343C956.932,-332.946 927.931,-333.557 902,-337 893.209,-338.167 883.874,-340.197 875.22,-342.428"/>
<polygon fill="#9a32cd" stroke="#9a32cd" points="981.37,-336.845 991.445,-333.569 981.526,-329.847 981.37,-336.845"/>
<text text-anchor="middle" x="927" y="-341" font-family="FreeSans" font-size="10.00"> scene_</text>
</g>
<!-- Node12 -->
<g id="node25" class="node"><title>Node12</title>
<a xlink:href="a00326.html" target="_top" xlink:title="String class.">
<polygon fill="none" stroke="black" points="584,-210.5 584,-231.5 672,-231.5 672,-210.5 584,-210.5"/>
<text text-anchor="middle" x="628" y="-218.5" font-family="FreeSans" font-size="10.00">Urho3D::String</text>
</a>
</g>
<!-- Node12&#45;&gt;Node8 -->
<g id="edge56" class="edge"><title>Node12&#45;&gt;Node8</title>
<path fill="none" stroke="#9a32cd" stroke-dasharray="5,2" d="M646.846,-238.356C661.887,-251.405 684.012,-268.878 706,-280 736.618,-295.487 749.769,-285.772 780,-302 799.946,-312.707 819.371,-330.626 830.756,-342.123"/>
<polygon fill="#9a32cd" stroke="#9a32cd" points="649.068,-235.649 639.265,-231.631 644.423,-240.885 649.068,-235.649"/>
<text text-anchor="middle" x="743" y="-306" font-family="FreeSans" font-size="10.00"> name_</text>
</g>
<!-- Node12&#45;&gt;Node11 -->
<g id="edge28" class="edge"><title>Node12&#45;&gt;Node11</title>
<path fill="none" stroke="#9a32cd" stroke-dasharray="5,2" d="M682.19,-228.524C747.872,-238.843 861.048,-260.514 952,-298 960.668,-301.573 961.634,-304.767 970,-309 981.93,-315.037 995.541,-320.785 1007.29,-325.415"/>
<polygon fill="#9a32cd" stroke="#9a32cd" points="682.484,-225.028 672.067,-226.964 681.418,-231.946 682.484,-225.028"/>
<text text-anchor="middle" x="841" y="-277" font-family="FreeSans" font-size="10.00"> fileName_</text>
</g>
<!-- Node12&#45;&gt;Node12 -->
<g id="edge30" class="edge"><title>Node12&#45;&gt;Node12</title>
<path fill="none" stroke="#9a32cd" stroke-dasharray="5,2" d="M606.991,-241.427C608.612,-246.349 615.615,-250 628,-250 647.816,-250 653.854,-240.653 646.113,-231.708"/>
<polygon fill="#9a32cd" stroke="#9a32cd" points="610.385,-242.291 609.887,-231.708 603.677,-240.292 610.385,-242.291"/>
<text text-anchor="middle" x="628" y="-254" font-family="FreeSans" font-size="10.00"> EMPTY</text>
</g>
<!-- Node13 -->
<g id="node28" class="node"><title>Node13</title>
<a xlink:href="a00257.html" target="_top" xlink:title="Rotation represented as a four&#45;dimensional normalized vector.">
<polygon fill="none" stroke="black" points="571.5,-503.5 571.5,-524.5 684.5,-524.5 684.5,-503.5 571.5,-503.5"/>
<text text-anchor="middle" x="628" y="-511.5" font-family="FreeSans" font-size="10.00">Urho3D::Quaternion</text>
</a>
</g>
<!-- Node13&#45;&gt;Node3 -->
<g id="edge66" class="edge"><title>Node13&#45;&gt;Node3</title>
<path fill="none" stroke="#9a32cd" stroke-dasharray="5,2" d="M694.605,-515.893C736.599,-516.927 791.968,-518 841,-518 841,-518 841,-518 1509,-518 1625.49,-518 1713.1,-371.772 1735.44,-330.645"/>
<polygon fill="#9a32cd" stroke="#9a32cd" points="694.586,-512.391 684.501,-515.638 694.409,-519.389 694.586,-512.391"/>
<text text-anchor="middle" x="1160" y="-522" font-family="FreeSans" font-size="10.00"> lastRotation_</text>
</g>
<!-- Node13&#45;&gt;Node8 -->
<g id="edge32" class="edge"><title>Node13&#45;&gt;Node8</title>
<path fill="none" stroke="#9a32cd" stroke-dasharray="5,2" d="M658.211,-498.933C672.51,-492.093 689.938,-484.172 706,-478 738.149,-465.646 752.932,-476.295 780,-455 811.46,-430.25 830.27,-384.435 837.535,-363.695"/>
<polygon fill="#9a32cd" stroke="#9a32cd" points="656.339,-495.951 648.866,-503.461 659.392,-502.25 656.339,-495.951"/>
<text text-anchor="middle" x="743" y="-495" font-family="FreeSans" font-size="10.00"> worldRotation_</text>
<text text-anchor="middle" x="743" y="-482" font-family="FreeSans" font-size="10.00">rotation_</text>
</g>
<!-- Node13&#45;&gt;Node13 -->
<g id="edge34" class="edge"><title>Node13&#45;&gt;Node13</title>
<path fill="none" stroke="#9a32cd" stroke-dasharray="5,2" d="M606.991,-534.427C608.612,-539.349 615.615,-543 628,-543 647.816,-543 653.854,-533.653 646.113,-524.708"/>
<polygon fill="#9a32cd" stroke="#9a32cd" points="610.385,-535.291 609.887,-524.708 603.677,-533.292 610.385,-535.291"/>
<text text-anchor="middle" x="628" y="-547" font-family="FreeSans" font-size="10.00"> IDENTITY</text>
</g>
<!-- Node14&#45;&gt;Node8 -->
<g id="edge36" class="edge"><title>Node14&#45;&gt;Node8</title>
<path fill="none" stroke="#9a32cd" stroke-dasharray="5,2" d="M555.603,-404.418C620.939,-397.524 705.776,-386.655 780,-371 789.4,-369.017 799.455,-366.304 808.636,-363.584"/>
<polygon fill="#9a32cd" stroke="#9a32cd" points="554.874,-400.975 545.289,-405.491 555.598,-407.938 554.874,-400.975"/>
<text text-anchor="middle" x="628" y="-406" font-family="FreeSans" font-size="10.00"> listeners_</text>
</g>
<!-- Node15 -->
<g id="node34" class="node"><title>Node15</title>
<a xlink:href="a00357.html" target="_top" xlink:title="Dynamically sized buffer that can be read and written to as a stream.">
<polygon fill="none" stroke="black" points="568.5,-73.5 568.5,-94.5 687.5,-94.5 687.5,-73.5 568.5,-73.5"/>
<text text-anchor="middle" x="628" y="-81.5" font-family="FreeSans" font-size="10.00">Urho3D::VectorBuffer</text>
</a>
</g>
<!-- Node15&#45;&gt;Node3 -->
<g id="edge68" class="edge"><title>Node15&#45;&gt;Node3</title>
<path fill="none" stroke="#9a32cd" stroke-dasharray="5,2" d="M697.582,-75.1409C739.136,-70.5944 793.002,-66 841,-66 841,-66 841,-66 1509,-66 1643.08,-66 1720.41,-261.338 1737.42,-309.409"/>
<polygon fill="#9a32cd" stroke="#9a32cd" points="697.113,-71.6714 687.565,-76.2619 697.892,-78.628 697.113,-71.6714"/>
<text text-anchor="middle" x="1160" y="-70" font-family="FreeSans" font-size="10.00"> attrBuffer_</text>
</g>
<!-- Node15&#45;&gt;Node8 -->
<g id="edge40" class="edge"><title>Node15&#45;&gt;Node8</title>
<path fill="none" stroke="#9a32cd" stroke-dasharray="5,2" d="M655.888,-99.6334C690.435,-120.479 748.564,-160.664 780,-211 797.701,-239.343 785.002,-253.215 798,-284 807.334,-306.106 823.233,-329.28 832.862,-342.355"/>
<polygon fill="#9a32cd" stroke="#9a32cd" points="657.617,-96.5898 647.228,-94.515 654.056,-102.616 657.617,-96.5898"/>
<text text-anchor="middle" x="743" y="-215" font-family="FreeSans" font-size="10.00"> attrBuffer_</text>
</g>
<!-- Node15&#45;&gt;Node23 -->
<g id="edge76" class="edge"><title>Node15&#45;&gt;Node23</title>
<path fill="none" stroke="#9a32cd" stroke-dasharray="5,2" d="M697.794,-89.2826C763.516,-94.587 864.641,-103.599 952,-115 1047,-127.398 1156.78,-146.6 1221.64,-158.453"/>
<polygon fill="#9a32cd" stroke="#9a32cd" points="697.804,-85.7724 687.557,-88.4633 697.246,-92.75 697.804,-85.7724"/>
<text text-anchor="middle" x="927" y="-119" font-family="FreeSans" font-size="10.00"> contacts_</text>
</g>
<!-- Node16 -->
<g id="node36" class="node"><title>Node16</title>
<a xlink:href="a00134.html" target="_top" xlink:title="Abstract stream for reading.">
<polygon fill="none" stroke="black" points="182,-0.5 182,-21.5 298,-21.5 298,-0.5 182,-0.5"/>
<text text-anchor="middle" x="240" y="-8.5" font-family="FreeSans" font-size="10.00">Urho3D::Deserializer</text>
</a>
</g>
<!-- Node16&#45;&gt;Node15 -->
<g id="edge42" class="edge"><title>Node16&#45;&gt;Node15</title>
<path fill="none" stroke="midnightblue" d="M308.351,-16.9474C371.677,-23.3907 468.15,-35.5877 550,-56 568.009,-60.4911 587.674,-67.5658 602.753,-73.48"/>
<polygon fill="midnightblue" stroke="midnightblue" points="308.389,-13.4339 298.091,-15.9244 307.695,-20.3994 308.389,-13.4339"/>
</g>
<!-- Node17 -->
<g id="node38" class="node"><title>Node17</title>
<a xlink:href="a00295.html" target="_top" xlink:title="Abstract stream for writing.">
<polygon fill="none" stroke="black" points="188,-92.5 188,-113.5 292,-113.5 292,-92.5 188,-92.5"/>
<text text-anchor="middle" x="240" y="-100.5" font-family="FreeSans" font-size="10.00">Urho3D::Serializer</text>
</a>
</g>
<!-- Node17&#45;&gt;Node15 -->
<g id="edge44" class="edge"><title>Node17&#45;&gt;Node15</title>
<path fill="none" stroke="midnightblue" d="M302.335,-99.9475C375.557,-96.3619 496.163,-90.4559 568.249,-86.926"/>
<polygon fill="midnightblue" stroke="midnightblue" points="302.144,-96.4526 292.327,-100.438 302.487,-103.444 302.144,-96.4526"/>
</g>
<!-- Node18&#45;&gt;Node15 -->
<g id="edge46" class="edge"><title>Node18&#45;&gt;Node15</title>
<path fill="none" stroke="#9a32cd" stroke-dasharray="5,2" d="M309.77,-58.2989C372.7,-59.964 467.731,-63.7041 550,-72 555.998,-72.6048 562.238,-73.3562 568.461,-74.186"/>
<polygon fill="#9a32cd" stroke="#9a32cd" points="309.652,-54.7948 299.566,-58.0397 309.474,-61.7926 309.652,-54.7948"/>
<text text-anchor="middle" x="448" y="-76" font-family="FreeSans" font-size="10.00"> buffer_</text>
</g>
<!-- Node19&#45;&gt;Node8 -->
<g id="edge50" class="edge"><title>Node19&#45;&gt;Node8</title>
<path fill="none" stroke="#9a32cd" stroke-dasharray="5,2" d="M559.789,-365.164C639.298,-361.725 741.692,-357.296 798.406,-354.843"/>
<polygon fill="#9a32cd" stroke="#9a32cd" points="559.558,-361.671 549.718,-365.6 559.86,-368.664 559.558,-361.671"/>
<text text-anchor="middle" x="628" y="-368" font-family="FreeSans" font-size="10.00"> components_</text>
</g>
<!-- Node20 -->
<g id="node49" class="node"><title>Node20</title>
<a xlink:href="a00327.html" target="_top" xlink:title="32&#45;bit hash value for a string.">
<polygon fill="none" stroke="black" points="571.5,-281.5 571.5,-302.5 684.5,-302.5 684.5,-281.5 571.5,-281.5"/>
<text text-anchor="middle" x="628" y="-289.5" font-family="FreeSans" font-size="10.00">Urho3D::StringHash</text>
</a>
</g>
<!-- Node20&#45;&gt;Node8 -->
<g id="edge60" class="edge"><title>Node20&#45;&gt;Node8</title>
<path fill="none" stroke="#9a32cd" stroke-dasharray="5,2" d="M666.393,-306.03C678.943,-310.417 692.998,-315.12 706,-319 736.687,-328.157 771.773,-336.943 798.484,-343.289"/>
<polygon fill="#9a32cd" stroke="#9a32cd" points="667.295,-302.636 656.7,-302.601 664.96,-309.235 667.295,-302.636"/>
<text text-anchor="middle" x="743" y="-342" font-family="FreeSans" font-size="10.00"> nameHash_</text>
</g>
<!-- Node20&#45;&gt;Node20 -->
<g id="edge62" class="edge"><title>Node20&#45;&gt;Node20</title>
<path fill="none" stroke="#9a32cd" stroke-dasharray="5,2" d="M606.991,-312.427C608.612,-317.349 615.615,-321 628,-321 647.816,-321 653.854,-311.653 646.113,-302.708"/>
<polygon fill="#9a32cd" stroke="#9a32cd" points="610.385,-313.291 609.887,-302.708 603.677,-311.292 610.385,-313.291"/>
<text text-anchor="middle" x="628" y="-325" font-family="FreeSans" font-size="10.00"> ZERO</text>
</g>
<!-- Node21 -->
<g id="node52" class="node"><title>Node21</title>
<polygon fill="none" stroke="#bfbfbf" points="1466.5,-329.5 1466.5,-350.5 1551.5,-350.5 1551.5,-329.5 1466.5,-329.5"/>
<text text-anchor="middle" x="1509" y="-337.5" font-family="FreeSans" font-size="10.00">btMotionState</text>
</g>
<!-- Node21&#45;&gt;Node3 -->
<g id="edge64" class="edge"><title>Node21&#45;&gt;Node3</title>
<path fill="none" stroke="midnightblue" d="M1561.82,-335.447C1599.48,-332.2 1649.93,-327.851 1687.71,-324.594"/>
<polygon fill="midnightblue" stroke="midnightblue" points="1561.21,-331.986 1551.55,-336.332 1561.82,-338.96 1561.21,-331.986"/>
</g>
<!-- Node22 -->
<g id="node56" class="node"><title>Node22</title>
<a xlink:href="a00365.html" target="_top" xlink:title="Urho3D::WeakPtr\&lt; Urho3D\l::PhysicsWorld \&gt;">
<polygon fill="none" stroke="black" points="1436,-189 1436,-223 1582,-223 1582,-189 1436,-189"/>
<text text-anchor="start" x="1444" y="-210" font-family="FreeSans" font-size="10.00">Urho3D::WeakPtr&lt; Urho3D</text>
<text text-anchor="middle" x="1509" y="-197" font-family="FreeSans" font-size="10.00">::PhysicsWorld &gt;</text>
</a>
</g>
<!-- Node22&#45;&gt;Node3 -->
<g id="edge70" class="edge"><title>Node22&#45;&gt;Node3</title>
<path fill="none" stroke="#9a32cd" stroke-dasharray="5,2" d="M1592.55,-202.584C1618.77,-204.757 1646.87,-210.676 1670,-224 1704.85,-244.075 1727.65,-288.855 1736.66,-309.367"/>
<polygon fill="#9a32cd" stroke="#9a32cd" points="1592.43,-199.069 1582.23,-201.908 1591.98,-206.054 1592.43,-199.069"/>
<text text-anchor="middle" x="1635" y="-228" font-family="FreeSans" font-size="10.00"> physicsWorld_</text>
</g>
<!-- Node23&#45;&gt;Node22 -->
<g id="edge72" class="edge"><title>Node23&#45;&gt;Node22</title>
<path fill="none" stroke="#9a32cd" stroke-dasharray="5,2" d="M1348.36,-179.951C1370.64,-183.447 1395.36,-187.354 1418,-191 1423.85,-191.942 1429.91,-192.924 1435.99,-193.917"/>
<polygon fill="#9a32cd" stroke="#9a32cd" points="1348.73,-176.467 1338.31,-178.376 1347.65,-183.383 1348.73,-176.467"/>
<text text-anchor="middle" x="1387" y="-195" font-family="FreeSans" font-size="10.00"> ptr_</text>
</g>
<!-- Node24&#45;&gt;Node3 -->
<g id="edge86" class="edge"><title>Node24&#45;&gt;Node3</title>
<path fill="none" stroke="#9a32cd" stroke-dasharray="5,2" d="M1091.21,-189.539C1126.98,-202.261 1174.78,-218.178 1218,-229 1306.96,-251.275 1573.64,-293.907 1687.99,-311.788"/>
<polygon fill="#9a32cd" stroke="#9a32cd" points="1092.05,-186.122 1081.46,-186.043 1089.69,-192.712 1092.05,-186.122"/>
<text text-anchor="middle" x="1387" y="-271" font-family="FreeSans" font-size="10.00"> constraints_</text>
</g>
<!-- Node24&#45;&gt;Node23 -->
<g id="edge78" class="edge"><title>Node24&#45;&gt;Node23</title>
<path fill="none" stroke="#9a32cd" stroke-dasharray="5,2" d="M1112.17,-169C1146.17,-169 1185.68,-169 1217.6,-169"/>
<polygon fill="#9a32cd" stroke="#9a32cd" points="1111.81,-165.5 1101.81,-169 1111.81,-172.5 1111.81,-165.5"/>
<text text-anchor="middle" x="1160" y="-173" font-family="FreeSans" font-size="10.00"> constraints_</text>
</g>
<!-- Node25 -->
<g id="node65" class="node"><title>Node25</title>
<a xlink:href="a00265.html" target="_top" xlink:title="Reference count structure.">
<polygon fill="none" stroke="black" points="1227,-198.5 1227,-219.5 1329,-219.5 1329,-198.5 1227,-198.5"/>
<text text-anchor="middle" x="1278" y="-206.5" font-family="FreeSans" font-size="10.00">Urho3D::RefCount</text>
</a>
</g>
<!-- Node25&#45;&gt;Node22 -->
<g id="edge82" class="edge"><title>Node25&#45;&gt;Node22</title>
<path fill="none" stroke="#9a32cd" stroke-dasharray="5,2" d="M1339.48,-208.202C1369.14,-207.816 1404.93,-207.352 1435.97,-206.948"/>
<polygon fill="#9a32cd" stroke="#9a32cd" points="1339.22,-204.705 1329.27,-208.334 1339.31,-211.704 1339.22,-204.705"/>
<text text-anchor="middle" x="1387" y="-212" font-family="FreeSans" font-size="10.00"> refCount_</text>
</g>
</g>
</svg>
        <g id="navigator" transform="translate(0 0)" fill="#404254">
                <rect fill="#f2f5e9" fill-opacity="0.5" stroke="#606060" stroke-width=".5" x="0" y="0" width="60" height="60"/>
                <use id="zoomplus" xlink:href="#zoomPlus" x="17" y="9" onmousedown="handleZoom(evt,'in')"/>
                <use id="zoomminus" xlink:href="#zoomMin" x="42" y="9" onmousedown="handleZoom(evt,'out')"/>
                <use id="reset" xlink:href="#resetDef" x="30" y="36" onmousedown="handleReset()"/>
                <g id="arrowUp" xlink:href="#dirArrow" transform="translate(30 24)" onmousedown="handlePan(0,-1)">
                  <use xlink:href="#rim" fill="#404040">
                        <set attributeName="fill" to="#808080" begin="arrowUp.mouseover" end="arrowUp.mouseout"/>
                  </use>
                  <path fill="none" stroke="white" stroke-width="1.5" d="M0,-3.0v7 M-2.5,-0.5L0,-3.0L2.5,-0.5"/>
                </g>
                <g id="arrowRight" xlink:href="#dirArrow" transform="rotate(90) translate(36 -43)" onmousedown="handlePan(1,0)">
                  <use xlink:href="#rim" fill="#404040">
                        <set attributeName="fill" to="#808080" begin="arrowRight.mouseover" end="arrowRight.mouseout"/>
                  </use>
                  <path fill="none" stroke="white" stroke-width="1.5" d="M0,-3.0v7 M-2.5,-0.5L0,-3.0L2.5,-0.5"/>
                </g>
                <g id="arrowDown" xlink:href="#dirArrow" transform="rotate(180) translate(-30 -48)" onmousedown="handlePan(0,1)">
                  <use xlink:href="#rim" fill="#404040">
                        <set attributeName="fill" to="#808080" begin="arrowDown.mouseover" end="arrowDown.mouseout"/>
                  </use>
                  <path fill="none" stroke="white" stroke-width="1.5" d="M0,-3.0v7 M-2.5,-0.5L0,-3.0L2.5,-0.5"/>
                </g>
                <g id="arrowLeft" xlink:href="#dirArrow" transform="rotate(270) translate(-36 17)" onmousedown="handlePan(-1,0)">
                  <use xlink:href="#rim" fill="#404040">
                        <set attributeName="fill" to="#808080" begin="arrowLeft.mouseover" end="arrowLeft.mouseout"/>
                  </use>
                  <path fill="none" stroke="white" stroke-width="1.5" d="M0,-3.0v7 M-2.5,-0.5L0,-3.0L2.5,-0.5"/>
                </g>
        </g>
        <svg viewBox="0 0 15 15" width="100%" height="30px" preserveAspectRatio="xMaxYMin meet">
         <g id="arrow_out" transform="scale(0.3 0.3)">
          <a xlink:href="a01385_org.svg" target="_base">
           <rect id="button" ry="5" rx="5" y="6" x="6" height="38" width="38"
                fill="#f2f5e9" fill-opacity="0.5" stroke="#606060" stroke-width="1.0"/>
           <path id="arrow"
             d="M 11.500037,31.436501 C 11.940474,20.09759 22.043105,11.32322 32.158766,21.979434 L 37.068811,17.246167 C 37.068811,17.246167 37.088388,32 37.088388,32 L 22.160133,31.978069 C 22.160133,31.978069 26.997745,27.140456 26.997745,27.140456 C 18.528582,18.264221 13.291696,25.230495 11.500037,31.436501 z"
             style="fill:#404040;"/>
          </a>
         </g>
        </svg>
</svg>
