<?xml version="1.0" encoding="UTF-8" standalone="no"?>
<!DOCTYPE svg PUBLIC "-//W3C//DTD SVG 1.1//EN"
 "http://www.w3.org/Graphics/SVG/1.1/DTD/svg11.dtd">
<!-- Generated by graphviz version 2.26.3 (20100126.1600)
 -->
<!-- Title: Urho3D::CollisionShape Pages: 1 -->
<svg width="2304pt" height="671pt"
 viewBox="0.00 0.00 2304.00 671.00" xmlns="http://www.w3.org/2000/svg" xmlns:xlink="http://www.w3.org/1999/xlink">
<g id="graph1" class="graph" transform="scale(1 1) rotate(0) translate(4 667)">
<title>Urho3D::CollisionShape</title>
<!-- Node1 -->
<g id="node1" class="node"><title>Node1</title>
<polygon fill="#bfbfbf" stroke="black" points="2166.5,-171.5 2166.5,-192.5 2295.5,-192.5 2295.5,-171.5 2166.5,-171.5"/>
<text text-anchor="middle" x="2231" y="-179.5" font-family="FreeSans" font-size="10.00">Urho3D::CollisionShape</text>
</g>
<!-- Node2 -->
<g id="node2" class="node"><title>Node2</title>
<a xlink:href="a00104.html" target="_top" xlink:title="Base class for components. Components can be created to scene nodes.">
<polygon fill="none" stroke="black" points="916,-361.5 916,-382.5 1032,-382.5 1032,-361.5 916,-361.5"/>
<text text-anchor="middle" x="974" y="-369.5" font-family="FreeSans" font-size="10.00">Urho3D::Component</text>
</a>
</g>
<!-- Node2&#45;&gt;Node1 -->
<g id="edge2" class="edge"><title>Node2&#45;&gt;Node1</title>
<path fill="none" stroke="midnightblue" d="M977.821,-351.252C985.275,-316.99 1005.12,-248.91 1050,-214 1106.55,-170.007 1136.35,-182 1208,-182 1208,-182 1208,-182 1999,-182 2055.59,-182 2119.95,-182 2166.5,-182"/>
<polygon fill="midnightblue" stroke="midnightblue" points="974.381,-350.606 975.821,-361.103 981.241,-351.999 974.381,-350.606"/>
</g>
<!-- Node20 -->
<g id="node46" class="node"><title>Node20</title>
<a xlink:href="a00261.html" target="_top" xlink:title="Physics simulation world component. Should be added only to the root scene node.">
<polygon fill="none" stroke="red" points="1148,-361.5 1148,-382.5 1268,-382.5 1268,-361.5 1148,-361.5"/>
<text text-anchor="middle" x="1208" y="-369.5" font-family="FreeSans" font-size="10.00">Urho3D::PhysicsWorld</text>
</a>
</g>
<!-- Node2&#45;&gt;Node20 -->
<g id="edge56" class="edge"><title>Node2&#45;&gt;Node20</title>
<path fill="none" stroke="midnightblue" d="M1042.28,-372C1075.65,-372 1115.47,-372 1147.71,-372"/>
<polygon fill="midnightblue" stroke="midnightblue" points="1042.14,-368.5 1032.14,-372 1042.14,-375.5 1042.14,-368.5"/>
</g>
<!-- Node25 -->
<g id="node59" class="node"><title>Node25</title>
<a xlink:href="a00291.html" target="_top" xlink:title="Physics rigid body component.">
<polygon fill="none" stroke="red" points="1680,-320.5 1680,-341.5 1786,-341.5 1786,-320.5 1680,-320.5"/>
<text text-anchor="middle" x="1733" y="-328.5" font-family="FreeSans" font-size="10.00">Urho3D::RigidBody</text>
</a>
</g>
<!-- Node2&#45;&gt;Node25 -->
<g id="edge72" class="edge"><title>Node2&#45;&gt;Node25</title>
<path fill="none" stroke="midnightblue" d="M1042.43,-362.876C1074.44,-358.932 1113.12,-354.627 1148,-352 1343.59,-337.272 1576.77,-332.815 1679.69,-331.514"/>
<polygon fill="midnightblue" stroke="midnightblue" points="1041.78,-359.431 1032.29,-364.142 1042.64,-366.377 1041.78,-359.431"/>
</g>
<!-- Node3 -->
<g id="node4" class="node"><title>Node3</title>
<a xlink:href="a00052.html" target="_top" xlink:title="Base class for animatable object, an animatable object can be set animation on it&#39;s attributes...">
<polygon fill="none" stroke="black" points="451,-374.5 451,-395.5 565,-395.5 565,-374.5 451,-374.5"/>
<text text-anchor="middle" x="508" y="-382.5" font-family="FreeSans" font-size="10.00">Urho3D::Animatable</text>
</a>
</g>
<!-- Node3&#45;&gt;Node2 -->
<g id="edge4" class="edge"><title>Node3&#45;&gt;Node2</title>
<path fill="none" stroke="midnightblue" d="M575.402,-383.12C666.944,-380.566 829.069,-376.043 915.659,-373.628"/>
<polygon fill="midnightblue" stroke="midnightblue" points="575.039,-379.628 565.141,-383.406 575.234,-386.626 575.039,-379.628"/>
</g>
<!-- Node8 -->
<g id="node14" class="node"><title>Node8</title>
<a xlink:href="a00232.html" target="_top" xlink:title="Scene node that may contain components and child nodes.">
<polygon fill="none" stroke="red" points="744.5,-467.5 744.5,-488.5 829.5,-488.5 829.5,-467.5 744.5,-467.5"/>
<text text-anchor="middle" x="787" y="-475.5" font-family="FreeSans" font-size="10.00">Urho3D::Node</text>
</a>
</g>
<!-- Node3&#45;&gt;Node8 -->
<g id="edge16" class="edge"><title>Node3&#45;&gt;Node8</title>
<path fill="none" stroke="midnightblue" d="M575.39,-396.102C619.519,-404.857 677.738,-419.27 726,-441 742.489,-448.425 760.011,-459.415 772.025,-467.489"/>
<polygon fill="midnightblue" stroke="midnightblue" points="575.828,-392.622 565.345,-394.159 574.498,-399.495 575.828,-392.622"/>
</g>
<!-- Node4 -->
<g id="node6" class="node"><title>Node4</title>
<a xlink:href="a00305.html" target="_top" xlink:title="Base class for objects with automatic serialization through attributes.">
<polygon fill="none" stroke="red" points="55,-449.5 55,-470.5 169,-470.5 169,-449.5 55,-449.5"/>
<text text-anchor="middle" x="112" y="-457.5" font-family="FreeSans" font-size="10.00">Urho3D::Serializable</text>
</a>
</g>
<!-- Node4&#45;&gt;Node3 -->
<g id="edge6" class="edge"><title>Node4&#45;&gt;Node3</title>
<path fill="none" stroke="midnightblue" d="M179.306,-460.362C237.005,-458.354 321.147,-449.801 388,-420 397.511,-415.76 396.597,-409.475 406,-405 419.85,-398.409 435.748,-393.99 450.807,-391.027"/>
<polygon fill="midnightblue" stroke="midnightblue" points="179.102,-456.867 169.208,-460.656 179.306,-463.864 179.102,-456.867"/>
</g>
<!-- Node5 -->
<g id="node8" class="node"><title>Node5</title>
<a xlink:href="a00314.html" target="_top" xlink:title="Urho3D::SharedPtr\&lt;\l Urho3D::ObjectAnimation \&gt;">
<polygon fill="none" stroke="red" points="35.5,-397 35.5,-431 188.5,-431 188.5,-397 35.5,-397"/>
<text text-anchor="start" x="43.5" y="-418" font-family="FreeSans" font-size="10.00">Urho3D::SharedPtr&lt;</text>
<text text-anchor="middle" x="112" y="-405" font-family="FreeSans" font-size="10.00"> Urho3D::ObjectAnimation &gt;</text>
</a>
</g>
<!-- Node5&#45;&gt;Node3 -->
<g id="edge8" class="edge"><title>Node5&#45;&gt;Node3</title>
<path fill="none" stroke="#9a32cd" stroke-dasharray="5,2" d="M198.936,-407.633C275.543,-402.023 384.938,-394.012 450.942,-389.178"/>
<polygon fill="#9a32cd" stroke="#9a32cd" points="198.54,-404.153 188.822,-408.374 199.051,-411.134 198.54,-404.153"/>
<text text-anchor="middle" x="315" y="-407" font-family="FreeSans" font-size="10.00"> objectAnimation_</text>
</g>
<!-- Node6 -->
<g id="node10" class="node"><title>Node6</title>
<a xlink:href="a00175.html" target="_top" xlink:title="Urho3D::HashMap\&lt; Urho3D\l::String, Urho3D::SharedPtr\l\&lt; Urho3D::AttributeAnimationInstance \&gt; \&gt;">
<polygon fill="none" stroke="red" points="0,-331.5 0,-378.5 224,-378.5 224,-331.5 0,-331.5"/>
<text text-anchor="start" x="8" y="-365.5" font-family="FreeSans" font-size="10.00">Urho3D::HashMap&lt; Urho3D</text>
<text text-anchor="start" x="8" y="-352.5" font-family="FreeSans" font-size="10.00">::String, Urho3D::SharedPtr</text>
<text text-anchor="middle" x="112" y="-339.5" font-family="FreeSans" font-size="10.00">&lt; Urho3D::AttributeAnimationInstance &gt; &gt;</text>
</a>
</g>
<!-- Node6&#45;&gt;Node3 -->
<g id="edge10" class="edge"><title>Node6&#45;&gt;Node3</title>
<path fill="none" stroke="#9a32cd" stroke-dasharray="5,2" d="M234.239,-364.261C306.493,-369.734 394.597,-376.409 450.991,-380.681"/>
<polygon fill="#9a32cd" stroke="#9a32cd" points="234.39,-360.762 224.154,-363.497 233.861,-367.742 234.39,-360.762"/>
<text text-anchor="middle" x="315" y="-379" font-family="FreeSans" font-size="10.00"> attributeAnimationInstances_</text>
</g>
<!-- Node7 -->
<g id="node12" class="node"><title>Node7</title>
<a xlink:href="a00177.html" target="_top" xlink:title="Urho3D::HashSet\&lt; const\l Urho3D::AttributeInfo * \&gt;">
<polygon fill="none" stroke="red" points="41.5,-279 41.5,-313 182.5,-313 182.5,-279 41.5,-279"/>
<text text-anchor="start" x="49.5" y="-300" font-family="FreeSans" font-size="10.00">Urho3D::HashSet&lt; const</text>
<text text-anchor="middle" x="112" y="-287" font-family="FreeSans" font-size="10.00"> Urho3D::AttributeInfo * &gt;</text>
</a>
</g>
<!-- Node7&#45;&gt;Node3 -->
<g id="edge12" class="edge"><title>Node7&#45;&gt;Node3</title>
<path fill="none" stroke="#9a32cd" stroke-dasharray="5,2" d="M192.794,-299.219C249.987,-304.288 327.045,-316.919 388,-348 397.803,-352.999 396.215,-359.965 406,-365 419.719,-372.059 435.652,-376.634 450.79,-379.597"/>
<polygon fill="#9a32cd" stroke="#9a32cd" points="192.969,-295.721 182.714,-298.385 192.392,-302.698 192.969,-295.721"/>
<text text-anchor="middle" x="315" y="-352" font-family="FreeSans" font-size="10.00"> animatedNetworkAttributes_</text>
</g>
<!-- Node8&#45;&gt;Node2 -->
<g id="edge14" class="edge"><title>Node8&#45;&gt;Node2</title>
<path fill="none" stroke="#9a32cd" stroke-dasharray="5,2" d="M814.75,-462.27C853.421,-440.35 922.472,-401.208 955.461,-382.509"/>
<polygon fill="#9a32cd" stroke="#9a32cd" points="812.588,-459.473 805.614,-467.449 816.039,-465.562 812.588,-459.473"/>
<text text-anchor="middle" x="873" y="-444" font-family="FreeSans" font-size="10.00"> node_</text>
</g>
<!-- Node8&#45;&gt;Node8 -->
<g id="edge44" class="edge"><title>Node8&#45;&gt;Node8</title>
<path fill="none" stroke="#9a32cd" stroke-dasharray="5,2" d="M771.25,-498.793C772.64,-503.529 777.89,-507 787,-507 801.949,-507 806.504,-497.653 800.665,-488.708"/>
<polygon fill="#9a32cd" stroke="#9a32cd" points="774.738,-499.209 773.335,-488.708 767.883,-497.792 774.738,-499.209"/>
<text text-anchor="middle" x="787" y="-511" font-family="FreeSans" font-size="10.00"> parent_</text>
</g>
<!-- Node10 -->
<g id="node19" class="node"><title>Node10</title>
<a xlink:href="a00293.html" target="_top" xlink:title="Root scene node, represents the whole scene.">
<polygon fill="none" stroke="red" points="929.5,-500.5 929.5,-521.5 1018.5,-521.5 1018.5,-500.5 929.5,-500.5"/>
<text text-anchor="middle" x="974" y="-508.5" font-family="FreeSans" font-size="10.00">Urho3D::Scene</text>
</a>
</g>
<!-- Node8&#45;&gt;Node10 -->
<g id="edge22" class="edge"><title>Node8&#45;&gt;Node10</title>
<path fill="none" stroke="midnightblue" d="M839.634,-483.333C858.158,-485.554 879.073,-488.454 898,-492 910.298,-494.304 923.573,-497.406 935.533,-500.435"/>
<polygon fill="midnightblue" stroke="midnightblue" points="839.953,-479.847 829.616,-482.169 839.145,-486.8 839.953,-479.847"/>
</g>
<!-- Node9 -->
<g id="node17" class="node"><title>Node9</title>
<a xlink:href="a00264.html" target="_top" xlink:title="Urho3D::PODVector\&lt;\l Urho3D::Node * \&gt;">
<polygon fill="none" stroke="red" points="448.5,-414 448.5,-448 567.5,-448 567.5,-414 448.5,-414"/>
<text text-anchor="start" x="456.5" y="-435" font-family="FreeSans" font-size="10.00">Urho3D::PODVector&lt;</text>
<text text-anchor="middle" x="508" y="-422" font-family="FreeSans" font-size="10.00"> Urho3D::Node * &gt;</text>
</a>
</g>
<!-- Node9&#45;&gt;Node8 -->
<g id="edge18" class="edge"><title>Node9&#45;&gt;Node8</title>
<path fill="none" stroke="#9a32cd" stroke-dasharray="5,2" d="M577.603,-438.822C620.581,-444.165 676.736,-452.071 726,-462 733.728,-463.557 741.934,-465.505 749.738,-467.499"/>
<polygon fill="#9a32cd" stroke="#9a32cd" points="577.883,-435.33 567.531,-437.587 577.031,-442.278 577.883,-435.33"/>
<text text-anchor="middle" x="677" y="-466" font-family="FreeSans" font-size="10.00"> dependencyNodes_</text>
</g>
<!-- Node10&#45;&gt;Node8 -->
<g id="edge20" class="edge"><title>Node10&#45;&gt;Node8</title>
<path fill="none" stroke="#9a32cd" stroke-dasharray="5,2" d="M919.472,-501.547C897.292,-497.684 871.416,-493.156 848,-489 842.066,-487.947 835.81,-486.828 829.656,-485.723"/>
<polygon fill="#9a32cd" stroke="#9a32cd" points="918.928,-505.005 929.38,-503.271 920.128,-498.109 918.928,-505.005"/>
<text text-anchor="middle" x="873" y="-501" font-family="FreeSans" font-size="10.00"> scene_</text>
</g>
<!-- Node11 -->
<g id="node22" class="node"><title>Node11</title>
<a xlink:href="a00337.html" target="_top" xlink:title="String class.">
<polygon fill="none" stroke="black" points="464,-570.5 464,-591.5 552,-591.5 552,-570.5 464,-570.5"/>
<text text-anchor="middle" x="508" y="-578.5" font-family="FreeSans" font-size="10.00">Urho3D::String</text>
</a>
</g>
<!-- Node11&#45;&gt;Node8 -->
<g id="edge42" class="edge"><title>Node11&#45;&gt;Node8</title>
<path fill="none" stroke="#9a32cd" stroke-dasharray="5,2" d="M562.192,-571.713C577.723,-568.69 594.612,-565.055 610,-561 618.154,-558.851 619.887,-557.299 628,-555 671.044,-542.802 686.266,-552.563 726,-532 747.103,-521.079 766.779,-501.236 777.812,-488.884"/>
<polygon fill="#9a32cd" stroke="#9a32cd" points="561.382,-568.304 552.211,-573.609 562.689,-575.181 561.382,-568.304"/>
<text text-anchor="middle" x="677" y="-559" font-family="FreeSans" font-size="10.00"> name_</text>
</g>
<!-- Node11&#45;&gt;Node10 -->
<g id="edge24" class="edge"><title>Node11&#45;&gt;Node10</title>
<path fill="none" stroke="#9a32cd" stroke-dasharray="5,2" d="M561.972,-593.597C582.518,-597.798 606.223,-601.932 628,-604 671.36,-608.118 683.143,-611.771 726,-604 814.229,-588.001 911.94,-542.415 953.496,-521.599"/>
<polygon fill="#9a32cd" stroke="#9a32cd" points="562.668,-590.167 552.162,-591.539 561.23,-597.018 562.668,-590.167"/>
<text text-anchor="middle" x="787" y="-604" font-family="FreeSans" font-size="10.00"> fileName_</text>
</g>
<!-- Node11&#45;&gt;Node11 -->
<g id="edge26" class="edge"><title>Node11&#45;&gt;Node11</title>
<path fill="none" stroke="#9a32cd" stroke-dasharray="5,2" d="M476.741,-600.679C478.416,-605.975 488.835,-610 508,-610 537.203,-610 546.101,-600.653 534.693,-591.708"/>
<polygon fill="#9a32cd" stroke="#9a32cd" points="479.89,-602.208 481.307,-591.708 473.651,-599.032 479.89,-602.208"/>
<text text-anchor="middle" x="508" y="-614" font-family="FreeSans" font-size="10.00"> EMPTY</text>
</g>
<!-- Node12 -->
<g id="node25" class="node"><title>Node12</title>
<a xlink:href="a00269.html" target="_top" xlink:title="Rotation represented as a four&#45;dimensional normalized vector.">
<polygon fill="none" stroke="black" points="451.5,-303.5 451.5,-324.5 564.5,-324.5 564.5,-303.5 451.5,-303.5"/>
<text text-anchor="middle" x="508" y="-311.5" font-family="FreeSans" font-size="10.00">Urho3D::Quaternion</text>
</a>
</g>
<!-- Node12&#45;&gt;Node1 -->
<g id="edge46" class="edge"><title>Node12&#45;&gt;Node1</title>
<path fill="none" stroke="#9a32cd" stroke-dasharray="5,2" d="M575.076,-308.047C619.564,-306.672 678.31,-309.897 726,-330 792.729,-358.129 783.499,-405.081 848,-438 920.207,-474.851 1126.93,-497 1208,-497 1208,-497 1208,-497 1999,-497 2153.52,-497 2216.62,-248.233 2228.76,-192.843"/>
<polygon fill="#9a32cd" stroke="#9a32cd" points="574.806,-304.555 564.951,-308.447 575.082,-311.55 574.806,-304.555"/>
<text text-anchor="middle" x="1332" y="-501" font-family="FreeSans" font-size="10.00"> rotation_</text>
</g>
<!-- Node12&#45;&gt;Node8 -->
<g id="edge28" class="edge"><title>Node12&#45;&gt;Node8</title>
<path fill="none" stroke="#9a32cd" stroke-dasharray="5,2" d="M574.48,-321.183C620.854,-329.02 682.057,-345.304 726,-379 756.919,-402.709 775.889,-446.939 783.353,-467.272"/>
<polygon fill="#9a32cd" stroke="#9a32cd" points="574.951,-317.714 564.524,-319.591 573.846,-324.626 574.951,-317.714"/>
<text text-anchor="middle" x="677" y="-396" font-family="FreeSans" font-size="10.00"> worldRotation_</text>
<text text-anchor="middle" x="677" y="-383" font-family="FreeSans" font-size="10.00">rotation_</text>
</g>
<!-- Node12&#45;&gt;Node12 -->
<g id="edge30" class="edge"><title>Node12&#45;&gt;Node12</title>
<path fill="none" stroke="#9a32cd" stroke-dasharray="5,2" d="M476.741,-333.679C478.416,-338.975 488.835,-343 508,-343 537.203,-343 546.101,-333.653 534.693,-324.708"/>
<polygon fill="#9a32cd" stroke="#9a32cd" points="479.89,-335.208 481.307,-324.708 473.651,-332.032 479.89,-335.208"/>
<text text-anchor="middle" x="508" y="-347" font-family="FreeSans" font-size="10.00"> IDENTITY</text>
</g>
<!-- Node12&#45;&gt;Node25 -->
<g id="edge74" class="edge"><title>Node12&#45;&gt;Node25</title>
<path fill="none" stroke="#9a32cd" stroke-dasharray="5,2" d="M574.873,-310.294C587.506,-307.108 599.906,-302.01 610,-294 625.271,-281.882 611.629,-264.585 628,-254 664.576,-230.351 682.476,-252.338 726,-254 1091.53,-267.955 1530.07,-310.303 1679.86,-325.499"/>
<polygon fill="#9a32cd" stroke="#9a32cd" points="573.78,-306.949 564.731,-312.459 575.241,-313.794 573.78,-306.949"/>
<text text-anchor="middle" x="1090" y="-281" font-family="FreeSans" font-size="10.00"> lastRotation_</text>
</g>
<!-- Node13 -->
<g id="node28" class="node"><title>Node13</title>
<a xlink:href="a00363.html" target="_top" xlink:title="Urho3D::Vector\&lt; Urho3D\l::WeakPtr\&lt; Urho3D::Component \&gt; \&gt;">
<polygon fill="none" stroke="red" points="411,-518 411,-552 605,-552 605,-518 411,-518"/>
<text text-anchor="start" x="419" y="-539" font-family="FreeSans" font-size="10.00">Urho3D::Vector&lt; Urho3D</text>
<text text-anchor="middle" x="508" y="-526" font-family="FreeSans" font-size="10.00">::WeakPtr&lt; Urho3D::Component &gt; &gt;</text>
</a>
</g>
<!-- Node13&#45;&gt;Node8 -->
<g id="edge32" class="edge"><title>Node13&#45;&gt;Node8</title>
<path fill="none" stroke="#9a32cd" stroke-dasharray="5,2" d="M614.954,-518.28C650.461,-512.088 690.087,-504.484 726,-496 735.027,-493.868 744.697,-491.197 753.617,-488.57"/>
<polygon fill="#9a32cd" stroke="#9a32cd" points="614.314,-514.838 605.055,-519.988 615.504,-521.736 614.314,-514.838"/>
<text text-anchor="middle" x="677" y="-519" font-family="FreeSans" font-size="10.00"> listeners_</text>
</g>
<!-- Node14 -->
<g id="node30" class="node"><title>Node14</title>
<a xlink:href="a00368.html" target="_top" xlink:title="Dynamically sized buffer that can be read and written to as a stream.">
<polygon fill="none" stroke="red" points="448.5,-641.5 448.5,-662.5 567.5,-662.5 567.5,-641.5 448.5,-641.5"/>
<text text-anchor="middle" x="508" y="-649.5" font-family="FreeSans" font-size="10.00">Urho3D::VectorBuffer</text>
</a>
</g>
<!-- Node14&#45;&gt;Node8 -->
<g id="edge34" class="edge"><title>Node14&#45;&gt;Node8</title>
<path fill="none" stroke="#9a32cd" stroke-dasharray="5,2" d="M577.538,-643.546C588.73,-640.735 599.933,-636.989 610,-632 619.59,-627.247 619.112,-621.964 628,-616 668.272,-588.975 689.388,-599.808 726,-568 752.789,-544.727 773.129,-507.098 782.045,-488.751"/>
<polygon fill="#9a32cd" stroke="#9a32cd" points="576.704,-640.146 567.734,-645.784 578.262,-646.971 576.704,-640.146"/>
<text text-anchor="middle" x="677" y="-620" font-family="FreeSans" font-size="10.00"> attrBuffer_</text>
</g>
<!-- Node14&#45;&gt;Node20 -->
<g id="edge58" class="edge"><title>Node14&#45;&gt;Node20</title>
<path fill="none" stroke="#9a32cd" stroke-dasharray="5,2" d="M577.956,-649.947C643.897,-646.665 745.002,-638.14 830,-616 924.257,-591.448 969.581,-605.774 1032,-531 1055.63,-502.689 1027.23,-479.01 1050,-450 1078.24,-414.024 1127.38,-393.466 1163.38,-382.587"/>
<polygon fill="#9a32cd" stroke="#9a32cd" points="577.508,-646.464 567.683,-650.43 577.836,-653.456 577.508,-646.464"/>
<text text-anchor="middle" x="873" y="-615" font-family="FreeSans" font-size="10.00"> contacts_</text>
</g>
<!-- Node14&#45;&gt;Node25 -->
<g id="edge76" class="edge"><title>Node14&#45;&gt;Node25</title>
<path fill="none" stroke="#9a32cd" stroke-dasharray="5,2" d="M577.634,-653.357C594.144,-653.624 611.695,-653.864 628,-654 748.551,-655.005 781.3,-658.244 898,-628 959.534,-612.053 980.255,-614.921 1032,-578 1098.06,-530.866 1078.34,-478.632 1148,-437 1244.44,-379.359 1285.49,-408.259 1396,-388 1496.1,-369.65 1613.32,-350.305 1679.81,-339.533"/>
<polygon fill="#9a32cd" stroke="#9a32cd" points="577.566,-649.856 567.509,-653.188 577.449,-656.855 577.566,-649.856"/>
<text text-anchor="middle" x="1090" y="-567" font-family="FreeSans" font-size="10.00"> attrBuffer_</text>
</g>
<!-- Node15 -->
<g id="node32" class="node"><title>Node15</title>
<a xlink:href="a00363.html" target="_top" xlink:title="Urho3D::Vector\&lt; Urho3D\l::SharedPtr\&lt; Urho3D::Component \&gt; \&gt;">
<polygon fill="none" stroke="red" points="406.5,-466 406.5,-500 609.5,-500 609.5,-466 406.5,-466"/>
<text text-anchor="start" x="414.5" y="-487" font-family="FreeSans" font-size="10.00">Urho3D::Vector&lt; Urho3D</text>
<text text-anchor="middle" x="508" y="-474" font-family="FreeSans" font-size="10.00">::SharedPtr&lt; Urho3D::Component &gt; &gt;</text>
</a>
</g>
<!-- Node15&#45;&gt;Node8 -->
<g id="edge36" class="edge"><title>Node15&#45;&gt;Node8</title>
<path fill="none" stroke="#9a32cd" stroke-dasharray="5,2" d="M619.667,-480.999C663.447,-480.214 711.038,-479.361 744.234,-478.766"/>
<polygon fill="#9a32cd" stroke="#9a32cd" points="619.45,-477.502 609.515,-481.181 619.576,-484.501 619.45,-477.502"/>
<text text-anchor="middle" x="677" y="-484" font-family="FreeSans" font-size="10.00"> components_</text>
</g>
<!-- Node16 -->
<g id="node34" class="node"><title>Node16</title>
<a xlink:href="a00365.html" target="_top" xlink:title="Three&#45;dimensional vector.">
<polygon fill="none" stroke="black" points="460,-141.5 460,-162.5 556,-162.5 556,-141.5 460,-141.5"/>
<text text-anchor="middle" x="508" y="-149.5" font-family="FreeSans" font-size="10.00">Urho3D::Vector3</text>
</a>
</g>
<!-- Node16&#45;&gt;Node1 -->
<g id="edge62" class="edge"><title>Node16&#45;&gt;Node1</title>
<path fill="none" stroke="#9a32cd" stroke-dasharray="5,2" d="M566.427,-144.037C622.79,-137.051 710.568,-128 787,-128 787,-128 787,-128 1999,-128 2074.89,-128 2161.18,-155.745 2203.98,-171.46"/>
<polygon fill="#9a32cd" stroke="#9a32cd" points="565.763,-140.593 556.278,-145.315 566.637,-147.538 565.763,-140.593"/>
<text text-anchor="middle" x="1332" y="-158" font-family="FreeSans" font-size="10.00"> size_</text>
<text text-anchor="middle" x="1332" y="-145" font-family="FreeSans" font-size="10.00">position_</text>
<text text-anchor="middle" x="1332" y="-132" font-family="FreeSans" font-size="10.00">cachedWorldScale_</text>
</g>
<!-- Node16&#45;&gt;Node8 -->
<g id="edge38" class="edge"><title>Node16&#45;&gt;Node8</title>
<path fill="none" stroke="#9a32cd" stroke-dasharray="5,2" d="M533.167,-168.286C587.513,-203.633 712.085,-285.678 726,-304 766.078,-356.768 781.225,-437.966 785.556,-467.116"/>
<polygon fill="#9a32cd" stroke="#9a32cd" points="534.768,-165.153 524.475,-162.642 530.956,-171.024 534.768,-165.153"/>
<text text-anchor="middle" x="677" y="-321" font-family="FreeSans" font-size="10.00"> scale_</text>
<text text-anchor="middle" x="677" y="-308" font-family="FreeSans" font-size="10.00">position_</text>
</g>
<!-- Node16&#45;&gt;Node16 -->
<g id="edge40" class="edge"><title>Node16&#45;&gt;Node16</title>
<path fill="none" stroke="#9a32cd" stroke-dasharray="5,2" d="M476.741,-171.679C478.416,-176.975 488.835,-181 508,-181 537.203,-181 546.101,-171.653 534.693,-162.708"/>
<polygon fill="#9a32cd" stroke="#9a32cd" points="479.89,-173.208 481.307,-162.708 473.651,-170.032 479.89,-173.208"/>
<text text-anchor="middle" x="508" y="-276" font-family="FreeSans" font-size="10.00"> ONE</text>
<text text-anchor="middle" x="508" y="-263" font-family="FreeSans" font-size="10.00">DOWN</text>
<text text-anchor="middle" x="508" y="-250" font-family="FreeSans" font-size="10.00">BACK</text>
<text text-anchor="middle" x="508" y="-237" font-family="FreeSans" font-size="10.00">RIGHT</text>
<text text-anchor="middle" x="508" y="-224" font-family="FreeSans" font-size="10.00">LEFT</text>
<text text-anchor="middle" x="508" y="-211" font-family="FreeSans" font-size="10.00">ZERO</text>
<text text-anchor="middle" x="508" y="-198" font-family="FreeSans" font-size="10.00">FORWARD</text>
<text text-anchor="middle" x="508" y="-185" font-family="FreeSans" font-size="10.00">UP</text>
</g>
<!-- Node16&#45;&gt;Node25 -->
<g id="edge80" class="edge"><title>Node16&#45;&gt;Node25</title>
<path fill="none" stroke="#9a32cd" stroke-dasharray="5,2" d="M566.304,-158.561C676.546,-171.113 923.064,-199.876 1130,-229 1313.57,-254.835 1359.24,-262.973 1542,-294 1581.19,-300.653 1590.97,-302.473 1630,-310 1647.11,-313.3 1665.79,-317.06 1682.49,-320.478"/>
<polygon fill="#9a32cd" stroke="#9a32cd" points="566.398,-155.05 556.067,-157.398 565.607,-162.005 566.398,-155.05"/>
<text text-anchor="middle" x="1090" y="-259" font-family="FreeSans" font-size="10.00"> centerOfMass_</text>
<text text-anchor="middle" x="1090" y="-246" font-family="FreeSans" font-size="10.00">gravityOverride_</text>
<text text-anchor="middle" x="1090" y="-233" font-family="FreeSans" font-size="10.00">lastPosition_</text>
</g>
<!-- Node17 -->
<g id="node40" class="node"><title>Node17</title>
<a xlink:href="a00314.html" target="_top" xlink:title="Urho3D::SharedPtr\&lt;\l Urho3D::CollisionGeometry\lData \&gt;">
<polygon fill="none" stroke="black" points="1924.5,-52.5 1924.5,-99.5 2073.5,-99.5 2073.5,-52.5 1924.5,-52.5"/>
<text text-anchor="start" x="1932.5" y="-86.5" font-family="FreeSans" font-size="10.00">Urho3D::SharedPtr&lt;</text>
<text text-anchor="start" x="1932.5" y="-73.5" font-family="FreeSans" font-size="10.00"> Urho3D::CollisionGeometry</text>
<text text-anchor="middle" x="1999" y="-60.5" font-family="FreeSans" font-size="10.00">Data &gt;</text>
</a>
</g>
<!-- Node17&#45;&gt;Node1 -->
<g id="edge48" class="edge"><title>Node17&#45;&gt;Node1</title>
<path fill="none" stroke="#9a32cd" stroke-dasharray="5,2" d="M2083.7,-81.1701C2105.49,-84.8902 2128.33,-91.0132 2148,-101 2181.57,-118.042 2210.39,-153.407 2223.48,-171.233"/>
<polygon fill="#9a32cd" stroke="#9a32cd" points="2084.2,-77.7052 2073.78,-79.6247 2083.12,-84.6219 2084.2,-77.7052"/>
<text text-anchor="middle" x="2120" y="-105" font-family="FreeSans" font-size="10.00"> geometry_</text>
</g>
<!-- Node18 -->
<g id="node42" class="node"><title>Node18</title>
<a xlink:href="a00098.html" target="_top" xlink:title="Base class for collision shape geometry data.">
<polygon fill="none" stroke="red" points="1648,-65.5 1648,-86.5 1818,-86.5 1818,-65.5 1648,-65.5"/>
<text text-anchor="middle" x="1733" y="-73.5" font-family="FreeSans" font-size="10.00">Urho3D::CollisionGeometryData</text>
</a>
</g>
<!-- Node18&#45;&gt;Node17 -->
<g id="edge50" class="edge"><title>Node18&#45;&gt;Node17</title>
<path fill="none" stroke="#9a32cd" stroke-dasharray="5,2" d="M1828.36,-76C1859.83,-76 1894.37,-76 1924.09,-76"/>
<polygon fill="#9a32cd" stroke="#9a32cd" points="1828.26,-72.5001 1818.26,-76 1828.26,-79.5001 1828.26,-72.5001"/>
<text text-anchor="middle" x="1871" y="-80" font-family="FreeSans" font-size="10.00"> ptr_</text>
</g>
<!-- Node19 -->
<g id="node44" class="node"><title>Node19</title>
<a xlink:href="a00376.html" target="_top" xlink:title="Urho3D::WeakPtr\&lt; Urho3D\l::PhysicsWorld \&gt;">
<polygon fill="none" stroke="black" points="1396,-397 1396,-431 1542,-431 1542,-397 1396,-397"/>
<text text-anchor="start" x="1404" y="-418" font-family="FreeSans" font-size="10.00">Urho3D::WeakPtr&lt; Urho3D</text>
<text text-anchor="middle" x="1469" y="-405" font-family="FreeSans" font-size="10.00">::PhysicsWorld &gt;</text>
</a>
</g>
<!-- Node19&#45;&gt;Node1 -->
<g id="edge52" class="edge"><title>Node19&#45;&gt;Node1</title>
<path fill="none" stroke="#9a32cd" stroke-dasharray="5,2" d="M1552.33,-423.266C1673.42,-433.057 1902.29,-437.508 2074,-357 2151.98,-320.439 2208.07,-225.263 2225.38,-192.932"/>
<polygon fill="#9a32cd" stroke="#9a32cd" points="1552.28,-419.749 1542.02,-422.398 1551.69,-426.725 1552.28,-419.749"/>
<text text-anchor="middle" x="1871" y="-423" font-family="FreeSans" font-size="10.00"> physicsWorld_</text>
</g>
<!-- Node19&#45;&gt;Node25 -->
<g id="edge78" class="edge"><title>Node19&#45;&gt;Node25</title>
<path fill="none" stroke="#9a32cd" stroke-dasharray="5,2" d="M1549.4,-394.373C1575.31,-387.559 1604.03,-379.483 1630,-371 1656.99,-362.185 1687.2,-350.193 1707.88,-341.644"/>
<polygon fill="#9a32cd" stroke="#9a32cd" points="1548.42,-391.013 1539.63,-396.922 1550.19,-397.787 1548.42,-391.013"/>
<text text-anchor="middle" x="1595" y="-394" font-family="FreeSans" font-size="10.00"> physicsWorld_</text>
</g>
<!-- Node20&#45;&gt;Node19 -->
<g id="edge54" class="edge"><title>Node20&#45;&gt;Node19</title>
<path fill="none" stroke="#9a32cd" stroke-dasharray="5,2" d="M1278.47,-381.064C1309.11,-385.234 1345.39,-390.478 1378,-396 1383.72,-396.968 1389.62,-398.02 1395.56,-399.113"/>
<polygon fill="#9a32cd" stroke="#9a32cd" points="1278.69,-377.562 1268.31,-379.693 1277.75,-384.499 1278.69,-377.562"/>
<text text-anchor="middle" x="1332" y="-400" font-family="FreeSans" font-size="10.00"> ptr_</text>
</g>
<!-- Node21 -->
<g id="node50" class="node"><title>Node21</title>
<a xlink:href="a00277.html" target="_top" xlink:title="Reference count structure.">
<polygon fill="none" stroke="black" points="1157,-446.5 1157,-467.5 1259,-467.5 1259,-446.5 1157,-446.5"/>
<text text-anchor="middle" x="1208" y="-454.5" font-family="FreeSans" font-size="10.00">Urho3D::RefCount</text>
</a>
</g>
<!-- Node21&#45;&gt;Node19 -->
<g id="edge60" class="edge"><title>Node21&#45;&gt;Node19</title>
<path fill="none" stroke="#9a32cd" stroke-dasharray="5,2" d="M1245.86,-443.084C1258.48,-438.929 1272.7,-434.752 1286,-432 1321.79,-424.591 1362.18,-420.209 1395.89,-417.628"/>
<polygon fill="#9a32cd" stroke="#9a32cd" points="1244.48,-439.856 1236.14,-446.385 1246.73,-446.485 1244.48,-439.856"/>
<text text-anchor="middle" x="1332" y="-436" font-family="FreeSans" font-size="10.00"> refCount_</text>
</g>
<!-- Node24 -->
<g id="node57" class="node"><title>Node24</title>
<a xlink:href="a00376.html" target="_top" xlink:title="Urho3D::WeakPtr\&lt; Urho3D\l::RigidBody \&gt;">
<polygon fill="none" stroke="black" points="1926,-314 1926,-348 2072,-348 2072,-314 1926,-314"/>
<text text-anchor="start" x="1934" y="-335" font-family="FreeSans" font-size="10.00">Urho3D::WeakPtr&lt; Urho3D</text>
<text text-anchor="middle" x="1999" y="-322" font-family="FreeSans" font-size="10.00">::RigidBody &gt;</text>
</a>
</g>
<!-- Node21&#45;&gt;Node24 -->
<g id="edge82" class="edge"><title>Node21&#45;&gt;Node24</title>
<path fill="none" stroke="#9a32cd" stroke-dasharray="5,2" d="M1269.62,-457.233C1336.89,-456.705 1447.62,-453.54 1542,-440 1688.34,-419.005 1856.54,-373.1 1942.29,-348.083"/>
<polygon fill="#9a32cd" stroke="#9a32cd" points="1269.19,-453.735 1259.21,-457.296 1269.23,-460.735 1269.19,-453.735"/>
<text text-anchor="middle" x="1595" y="-441" font-family="FreeSans" font-size="10.00"> refCount_</text>
</g>
<!-- Node22 -->
<g id="node53" class="node"><title>Node22</title>
<a xlink:href="a00314.html" target="_top" xlink:title="Urho3D::SharedPtr\&lt;\l Urho3D::Model \&gt;">
<polygon fill="none" stroke="black" points="1941,-0 1941,-34 2057,-34 2057,-0 1941,-0"/>
<text text-anchor="start" x="1949" y="-21" font-family="FreeSans" font-size="10.00">Urho3D::SharedPtr&lt;</text>
<text text-anchor="middle" x="1999" y="-8" font-family="FreeSans" font-size="10.00"> Urho3D::Model &gt;</text>
</a>
</g>
<!-- Node22&#45;&gt;Node1 -->
<g id="edge64" class="edge"><title>Node22&#45;&gt;Node1</title>
<path fill="none" stroke="#9a32cd" stroke-dasharray="5,2" d="M2066.9,-29.6905C2093.96,-37.0985 2124.25,-48.5512 2148,-66 2187.51,-95.0338 2215.55,-148.548 2226.23,-171.306"/>
<polygon fill="#9a32cd" stroke="#9a32cd" points="2067.65,-26.2699 2057.09,-27.1406 2065.89,-33.0446 2067.65,-26.2699"/>
<text text-anchor="middle" x="2120" y="-70" font-family="FreeSans" font-size="10.00"> model_</text>
</g>
<!-- Node23 -->
<g id="node55" class="node"><title>Node23</title>
<a xlink:href="a00219.html" target="_top" xlink:title="3D model resource.">
<polygon fill="none" stroke="red" points="1689,-6.5 1689,-27.5 1777,-27.5 1777,-6.5 1689,-6.5"/>
<text text-anchor="middle" x="1733" y="-14.5" font-family="FreeSans" font-size="10.00">Urho3D::Model</text>
</a>
</g>
<!-- Node23&#45;&gt;Node22 -->
<g id="edge66" class="edge"><title>Node23&#45;&gt;Node22</title>
<path fill="none" stroke="#9a32cd" stroke-dasharray="5,2" d="M1787.3,-17C1831.92,-17 1895,-17 1940.68,-17"/>
<polygon fill="#9a32cd" stroke="#9a32cd" points="1787.22,-13.5001 1777.22,-17 1787.22,-20.5001 1787.22,-13.5001"/>
<text text-anchor="middle" x="1871" y="-21" font-family="FreeSans" font-size="10.00"> ptr_</text>
</g>
<!-- Node24&#45;&gt;Node1 -->
<g id="edge68" class="edge"><title>Node24&#45;&gt;Node1</title>
<path fill="none" stroke="#9a32cd" stroke-dasharray="5,2" d="M2034.31,-308.323C2085.16,-275.663 2177.02,-216.67 2214.45,-192.63"/>
<polygon fill="#9a32cd" stroke="#9a32cd" points="2032.14,-305.559 2025.61,-313.908 2035.92,-311.449 2032.14,-305.559"/>
<text text-anchor="middle" x="2120" y="-273" font-family="FreeSans" font-size="10.00"> rigidBody_</text>
</g>
<!-- Node25&#45;&gt;Node24 -->
<g id="edge70" class="edge"><title>Node25&#45;&gt;Node24</title>
<path fill="none" stroke="#9a32cd" stroke-dasharray="5,2" d="M1796.33,-331C1835.22,-331 1885.17,-331 1925.75,-331"/>
<polygon fill="#9a32cd" stroke="#9a32cd" points="1796.19,-327.5 1786.19,-331 1796.19,-334.5 1796.19,-327.5"/>
<text text-anchor="middle" x="1871" y="-335" font-family="FreeSans" font-size="10.00"> ptr_</text>
</g>
</g>
</svg>
