<?xml version="1.0" encoding="UTF-8" standalone="no"?>
<!DOCTYPE svg PUBLIC "-//W3C//DTD SVG 1.1//EN"
 "http://www.w3.org/Graphics/SVG/1.1/DTD/svg11.dtd">
<!-- Generated by graphviz version 2.26.3 (20100126.1600)
 -->
<!-- Title: Urho3D::Text3D Pages: 1 -->
<!--zoomable 937 -->
<svg id="main" version="1.1" xmlns="http://www.w3.org/2000/svg" xmlns:xlink="http://www.w3.org/1999/xlink" xml:space="preserve" onload="init(evt)">
        <defs>
                <circle id="rim" cx="0" cy="0" r="7"/>
                <circle id="rim2" cx="0" cy="0" r="3.5"/>
                <g id="zoomPlus">
                        <use xlink:href="#rim" fill="#404040">
                                <set attributeName="fill" to="#808080" begin="zoomplus.mouseover" end="zoomplus.mouseout"/>
                        </use>
                        <path d="M-4,0h8M0,-4v8" fill="none" stroke="white" stroke-width="1.5" pointer-events="none"/>
                </g>
                <g id="zoomMin">
                        <use xlink:href="#rim" fill="#404040">
                                <set attributeName="fill" to="#808080" begin="zoomminus.mouseover" end="zoomminus.mouseout"/>
                        </use>
                        <path d="M-4,0h8" fill="none" stroke="white" stroke-width="1.5" pointer-events="none"/>
                </g>
                <g id="dirArrow">
                        <path fill="none" stroke="white" stroke-width="1.5" d="M0,-3.0v7 M-2.5,-0.5L0,-3.0L2.5,-0.5"/>
                </g>
               <g id="resetDef">
                       <use xlink:href="#rim2" fill="#404040">
                               <set attributeName="fill" to="#808080" begin="reset.mouseover" end="reset.mouseout"/>
                       </use>
               </g>
        </defs>

<script type="text/javascript">
var viewWidth = 1272;
var viewHeight = 937;
var sectionId = 'dynsection-1';
</script>
<script xlink:href="svgpan.js"/>
<svg id="graph" class="graph">
<g id="viewport">
<title>Urho3D::Text3D</title>
<!-- Node1 -->
<g id="node1" class="node"><title>Node1</title>
<polygon fill="#bfbfbf" stroke="black" points="1172,-301.5 1172,-322.5 1264,-322.5 1264,-301.5 1172,-301.5"/>
<text text-anchor="middle" x="1218" y="-309.5" font-family="FreeSans" font-size="10.00">Urho3D::Text3D</text>
</g>
<!-- Node2 -->
<g id="node2" class="node"><title>Node2</title>
<a xlink:href="a00116.html" target="_top" xlink:title="Base class for visible components.">
<polygon fill="none" stroke="black" points="949,-657.5 949,-678.5 1053,-678.5 1053,-657.5 949,-657.5"/>
<text text-anchor="middle" x="1001" y="-665.5" font-family="FreeSans" font-size="10.00">Urho3D::Drawable</text>
</a>
</g>
<!-- Node2&#45;&gt;Node1 -->
<g id="edge2" class="edge"><title>Node2&#45;&gt;Node1</title>
<path fill="none" stroke="midnightblue" d="M1016.93,-649.13C1046.54,-613.465 1110.92,-533.003 1154,-458 1181.71,-409.763 1205.36,-347.269 1214.24,-322.642"/>
<polygon fill="midnightblue" stroke="midnightblue" points="1013.92,-647.283 1010.19,-657.201 1019.29,-651.77 1013.92,-647.283"/>
</g>
<!-- Node4 -->
<g id="node6" class="node"><title>Node4</title>
<a xlink:href="a00337.html" target="_top" xlink:title="Component that describes global rendering properties">
<polygon fill="none" stroke="red" points="1175.5,-811.5 1175.5,-832.5 1260.5,-832.5 1260.5,-811.5 1175.5,-811.5"/>
<text text-anchor="middle" x="1218" y="-819.5" font-family="FreeSans" font-size="10.00">Urho3D::Zone</text>
</a>
</g>
<!-- Node2&#45;&gt;Node4 -->
<g id="edge8" class="edge"><title>Node2&#45;&gt;Node4</title>
<path fill="none" stroke="midnightblue" d="M1036.55,-682.716C1069,-697.116 1117.34,-721.069 1154,-750 1177.5,-768.545 1199.43,-796.357 1210.49,-811.41"/>
<polygon fill="midnightblue" stroke="midnightblue" points="1037.59,-679.35 1027.02,-678.559 1034.79,-685.766 1037.59,-679.35"/>
</g>
<!-- Node11 -->
<g id="node25" class="node"><title>Node11</title>
<a xlink:href="a00160.html" target="_top" xlink:title="Light component.">
<polygon fill="none" stroke="red" points="1176.5,-629.5 1176.5,-650.5 1259.5,-650.5 1259.5,-629.5 1176.5,-629.5"/>
<text text-anchor="middle" x="1218" y="-637.5" font-family="FreeSans" font-size="10.00">Urho3D::Light</text>
</a>
</g>
<!-- Node2&#45;&gt;Node11 -->
<g id="edge32" class="edge"><title>Node2&#45;&gt;Node11</title>
<path fill="none" stroke="midnightblue" d="M1063.25,-664.064C1091.11,-661.85 1124.3,-658.589 1154,-654 1161.31,-652.871 1169.03,-651.413 1176.48,-649.865"/>
<polygon fill="midnightblue" stroke="midnightblue" points="1062.95,-660.577 1053.25,-664.832 1063.48,-667.556 1062.95,-660.577"/>
</g>
<!-- Node3 -->
<g id="node4" class="node"><title>Node3</title>
<a xlink:href="a00086.html" target="_top" xlink:title="Base class for components. Components can be created to scene nodes.">
<polygon fill="none" stroke="red" points="0,-777.5 0,-798.5 116,-798.5 116,-777.5 0,-777.5"/>
<text text-anchor="middle" x="58" y="-785.5" font-family="FreeSans" font-size="10.00">Urho3D::Component</text>
</a>
</g>
<!-- Node3&#45;&gt;Node2 -->
<g id="edge4" class="edge"><title>Node3&#45;&gt;Node2</title>
<path fill="none" stroke="midnightblue" d="M68.166,-807.618C80.4818,-828.995 103.438,-862.012 134,-876 219.654,-915.202 -78.9269,-991.383 702,-824 799.848,-803.027 830.881,-806.62 916,-754 949.569,-733.248 979.675,-696.595 993.3,-678.587"/>
<polygon fill="midnightblue" stroke="midnightblue" points="71.1579,-805.796 63.267,-798.726 65.0268,-809.173 71.1579,-805.796"/>
</g>
<!-- Node9 -->
<g id="node18" class="node"><title>Node9</title>
<a xlink:href="a00079.html" target="_top" xlink:title="Camera component.">
<polygon fill="none" stroke="red" points="244,-634.5 244,-655.5 342,-655.5 342,-634.5 244,-634.5"/>
<text text-anchor="middle" x="293" y="-642.5" font-family="FreeSans" font-size="10.00">Urho3D::Camera</text>
</a>
</g>
<!-- Node3&#45;&gt;Node9 -->
<g id="edge22" class="edge"><title>Node3&#45;&gt;Node9</title>
<path fill="none" stroke="midnightblue" d="M83.9129,-772.232C132.223,-742.835 234.842,-680.39 275.695,-655.531"/>
<polygon fill="midnightblue" stroke="midnightblue" points="82.0034,-769.297 75.2801,-777.485 85.6422,-775.276 82.0034,-769.297"/>
</g>
<!-- Node4&#45;&gt;Node2 -->
<g id="edge6" class="edge"><title>Node4&#45;&gt;Node2</title>
<path fill="none" stroke="#9a32cd" stroke-dasharray="5,2" d="M1184.74,-806.948C1157.13,-793.742 1117.43,-773.081 1086,-750 1055.59,-727.669 1024.98,-695.078 1010.17,-678.511"/>
<polygon fill="#9a32cd" stroke="#9a32cd" points="1183.43,-810.201 1193.97,-811.3 1186.42,-803.869 1183.43,-810.201"/>
<text text-anchor="middle" x="1120" y="-807" font-family="FreeSans" font-size="10.00"> lastZone_</text>
<text text-anchor="middle" x="1120" y="-794" font-family="FreeSans" font-size="10.00">zone_</text>
</g>
<!-- Node5 -->
<g id="node9" class="node"><title>Node5</title>
<a xlink:href="a00076.html" target="_top" xlink:title="Three&#45;dimensional axis&#45;aligned bounding box.">
<polygon fill="none" stroke="red" points="232,-785.5 232,-806.5 354,-806.5 354,-785.5 232,-785.5"/>
<text text-anchor="middle" x="293" y="-793.5" font-family="FreeSans" font-size="10.00">Urho3D::BoundingBox</text>
</a>
</g>
<!-- Node5&#45;&gt;Node2 -->
<g id="edge36" class="edge"><title>Node5&#45;&gt;Node2</title>
<path fill="none" stroke="#9a32cd" stroke-dasharray="5,2" d="M364.285,-797.579C482.982,-797.841 726.775,-788.223 916,-714 940.837,-704.258 967.611,-688.872 984.335,-678.612"/>
<polygon fill="#9a32cd" stroke="#9a32cd" points="364.246,-794.078 354.23,-797.532 364.213,-801.078 364.246,-794.078"/>
<text text-anchor="middle" x="593" y="-811" font-family="FreeSans" font-size="10.00"> worldBoundingBox_</text>
<text text-anchor="middle" x="593" y="-798" font-family="FreeSans" font-size="10.00">boundingBox_</text>
</g>
<!-- Node5&#45;&gt;Node4 -->
<g id="edge10" class="edge"><title>Node5&#45;&gt;Node4</title>
<path fill="none" stroke="#9a32cd" stroke-dasharray="5,2" d="M358.01,-808.277C394.821,-814.537 441.807,-821.373 484,-824 746.319,-840.331 1062.39,-829.049 1175.33,-824.048"/>
<polygon fill="#9a32cd" stroke="#9a32cd" points="358.359,-804.786 347.909,-806.531 357.167,-811.684 358.359,-804.786"/>
<text text-anchor="middle" x="818" y="-836" font-family="FreeSans" font-size="10.00"> lastWorldBoundingBox_</text>
</g>
<!-- Node13 -->
<g id="node33" class="node"><title>Node13</title>
<a xlink:href="a00205.html" target="_top" xlink:title="Octree octant">
<polygon fill="none" stroke="red" points="547,-694.5 547,-715.5 639,-715.5 639,-694.5 547,-694.5"/>
<text text-anchor="middle" x="593" y="-702.5" font-family="FreeSans" font-size="10.00">Urho3D::Octant</text>
</a>
</g>
<!-- Node5&#45;&gt;Node13 -->
<g id="edge44" class="edge"><title>Node5&#45;&gt;Node13</title>
<path fill="none" stroke="#9a32cd" stroke-dasharray="5,2" d="M320.104,-780.218C335.024,-772.063 354.098,-762.489 372,-756 430.676,-734.731 501.412,-720.249 546.781,-712.303"/>
<polygon fill="#9a32cd" stroke="#9a32cd" points="317.98,-777.395 310.954,-785.325 321.392,-783.508 317.98,-777.395"/>
<text text-anchor="middle" x="419" y="-773" font-family="FreeSans" font-size="10.00"> cullingBox_</text>
<text text-anchor="middle" x="419" y="-760" font-family="FreeSans" font-size="10.00">worldBoundingBox_</text>
</g>
<!-- Node6 -->
<g id="node11" class="node"><title>Node6</title>
<a xlink:href="a00179.html" target="_top" xlink:title="3x4 matrix for scene node transform calculations.">
<polygon fill="none" stroke="black" points="5,-556.5 5,-577.5 111,-577.5 111,-556.5 5,-556.5"/>
<text text-anchor="middle" x="58" y="-564.5" font-family="FreeSans" font-size="10.00">Urho3D::Matrix3x4</text>
</a>
</g>
<!-- Node6&#45;&gt;Node1 -->
<g id="edge82" class="edge"><title>Node6&#45;&gt;Node1</title>
<path fill="none" stroke="#9a32cd" stroke-dasharray="5,2" d="M61.8329,-546.16C81.2204,-443.888 172.319,-0 293,-0 293,-0 293,-0 1001,-0 1151.1,-0 1205.79,-246.398 1216.11,-301.26"/>
<polygon fill="#9a32cd" stroke="#9a32cd" points="58.357,-545.706 59.957,-556.18 65.2374,-546.995 58.357,-545.706"/>
<text text-anchor="middle" x="593" y="-4" font-family="FreeSans" font-size="10.00"> customWorldTransform_</text>
</g>
<!-- Node6&#45;&gt;Node4 -->
<g id="edge12" class="edge"><title>Node6&#45;&gt;Node4</title>
<path fill="none" stroke="#9a32cd" stroke-dasharray="5,2" d="M65.2534,-587.227C84.0411,-636.315 139.388,-761.703 232,-816 557.992,-1007.12 1054.93,-873.095 1185.61,-832.561"/>
<polygon fill="#9a32cd" stroke="#9a32cd" points="68.4793,-585.86 61.7079,-577.712 61.9199,-588.305 68.4793,-585.86"/>
<text text-anchor="middle" x="593" y="-920" font-family="FreeSans" font-size="10.00"> inverseWorld_</text>
</g>
<!-- Node6&#45;&gt;Node6 -->
<g id="edge14" class="edge"><title>Node6&#45;&gt;Node6</title>
<path fill="none" stroke="#9a32cd" stroke-dasharray="5,2" d="M36.6225,-587.427C38.2716,-592.349 45.3975,-596 58,-596 78.1641,-596 84.3078,-586.653 76.4312,-577.708"/>
<polygon fill="#9a32cd" stroke="#9a32cd" points="40.017,-588.293 39.5688,-577.708 33.318,-586.262 40.017,-588.293"/>
<text text-anchor="middle" x="58" y="-613" font-family="FreeSans" font-size="10.00"> IDENTITY</text>
<text text-anchor="middle" x="58" y="-600" font-family="FreeSans" font-size="10.00">ZERO</text>
</g>
<!-- Node6&#45;&gt;Node9 -->
<g id="edge24" class="edge"><title>Node6&#45;&gt;Node9</title>
<path fill="none" stroke="#9a32cd" stroke-dasharray="5,2" d="M99.382,-580.735C145.52,-596.049 219.147,-620.487 261.058,-634.398"/>
<polygon fill="#9a32cd" stroke="#9a32cd" points="100.287,-577.348 89.6931,-577.519 98.0814,-583.991 100.287,-577.348"/>
<text text-anchor="middle" x="174" y="-634" font-family="FreeSans" font-size="10.00"> view_</text>
<text text-anchor="middle" x="174" y="-621" font-family="FreeSans" font-size="10.00">reflectionMatrix_</text>
</g>
<!-- Node6&#45;&gt;Node11 -->
<g id="edge34" class="edge"><title>Node6&#45;&gt;Node11</title>
<path fill="none" stroke="#9a32cd" stroke-dasharray="5,2" d="M101.267,-553.621C148.059,-540.356 225.081,-522 293,-522 293,-522 293,-522 1001,-522 1090.2,-522 1177.7,-599.898 1207.38,-629.11"/>
<polygon fill="#9a32cd" stroke="#9a32cd" points="100.108,-550.313 91.4711,-556.449 102.05,-557.038 100.108,-550.313"/>
<text text-anchor="middle" x="593" y="-526" font-family="FreeSans" font-size="10.00"> volumeTransform_</text>
</g>
<!-- Node7 -->
<g id="node14" class="node"><title>Node7</title>
<a xlink:href="a00222.html" target="_top" xlink:title="Urho3D::PODVector\&lt;\l Urho3D::Light * \&gt;">
<polygon fill="none" stroke="black" points="533.5,-553 533.5,-587 652.5,-587 652.5,-553 533.5,-553"/>
<text text-anchor="start" x="541.5" y="-574" font-family="FreeSans" font-size="10.00">Urho3D::PODVector&lt;</text>
<text text-anchor="middle" x="593" y="-561" font-family="FreeSans" font-size="10.00"> Urho3D::Light * &gt;</text>
</a>
</g>
<!-- Node7&#45;&gt;Node2 -->
<g id="edge16" class="edge"><title>Node7&#45;&gt;Node2</title>
<path fill="none" stroke="#9a32cd" stroke-dasharray="5,2" d="M663.019,-571.61C751.041,-574.021 893.423,-579.353 916,-589 950.829,-603.881 980.344,-639.511 993.566,-657.389"/>
<polygon fill="#9a32cd" stroke="#9a32cd" points="662.92,-568.106 652.83,-571.337 662.733,-575.103 662.92,-568.106"/>
<text text-anchor="middle" x="818" y="-606" font-family="FreeSans" font-size="10.00"> vertexLights_</text>
<text text-anchor="middle" x="818" y="-593" font-family="FreeSans" font-size="10.00">lights_</text>
</g>
<!-- Node8 -->
<g id="node16" class="node"><title>Node8</title>
<a xlink:href="a00320.html" target="_top" xlink:title="Vector base class.">
<polygon fill="none" stroke="black" points="236,-276.5 236,-297.5 350,-297.5 350,-276.5 236,-276.5"/>
<text text-anchor="middle" x="293" y="-284.5" font-family="FreeSans" font-size="10.00">Urho3D::VectorBase</text>
</a>
</g>
<!-- Node8&#45;&gt;Node7 -->
<g id="edge18" class="edge"><title>Node8&#45;&gt;Node7</title>
<path fill="none" stroke="midnightblue" d="M297.676,-307.363C306.766,-343.268 329.735,-418.695 372,-468 413.666,-516.606 483.416,-543.405 533.417,-557.185"/>
<polygon fill="midnightblue" stroke="midnightblue" points="301.057,-306.452 295.295,-297.561 294.255,-308.105 301.057,-306.452"/>
</g>
<!-- Node10 -->
<g id="node22" class="node"><title>Node10</title>
<a xlink:href="a00316.html" target="_top" xlink:title="Urho3D::Vector\&lt; Urho3D\l::SourceBatch \&gt;">
<polygon fill="none" stroke="black" points="524,-452 524,-486 662,-486 662,-452 524,-452"/>
<text text-anchor="start" x="532" y="-473" font-family="FreeSans" font-size="10.00">Urho3D::Vector&lt; Urho3D</text>
<text text-anchor="middle" x="593" y="-460" font-family="FreeSans" font-size="10.00">::SourceBatch &gt;</text>
</a>
</g>
<!-- Node8&#45;&gt;Node10 -->
<g id="edge28" class="edge"><title>Node8&#45;&gt;Node10</title>
<path fill="none" stroke="midnightblue" d="M297.404,-307.596C305.705,-340.964 327.029,-406.295 372,-438 415.857,-468.919 476.945,-475.456 523.784,-474.944"/>
<polygon fill="midnightblue" stroke="midnightblue" points="300.753,-306.544 295.073,-297.6 293.936,-308.134 300.753,-306.544"/>
</g>
<!-- Node16 -->
<g id="node41" class="node"><title>Node16</title>
<a xlink:href="a00316.html" target="_top" xlink:title="Urho3D::Vector\&lt; Urho3D\l::SharedPtr\&lt; Urho3D::Geometry \&gt; \&gt;">
<polygon fill="none" stroke="black" points="720.5,-242 720.5,-276 915.5,-276 915.5,-242 720.5,-242"/>
<text text-anchor="start" x="728.5" y="-263" font-family="FreeSans" font-size="10.00">Urho3D::Vector&lt; Urho3D</text>
<text text-anchor="middle" x="818" y="-250" font-family="FreeSans" font-size="10.00">::SharedPtr&lt; Urho3D::Geometry &gt; &gt;</text>
</a>
</g>
<!-- Node8&#45;&gt;Node16 -->
<g id="edge54" class="edge"><title>Node8&#45;&gt;Node16</title>
<path fill="none" stroke="midnightblue" d="M360.418,-283.404C451.789,-278.531 615.537,-269.798 720.361,-264.207"/>
<polygon fill="midnightblue" stroke="midnightblue" points="359.983,-279.923 350.184,-283.95 360.356,-286.913 359.983,-279.923"/>
</g>
<!-- Node21 -->
<g id="node53" class="node"><title>Node21</title>
<a xlink:href="a00222.html" target="_top" xlink:title="Urho3D::PODVector\&lt;\l int \&gt;">
<polygon fill="none" stroke="black" points="533.5,-102 533.5,-136 652.5,-136 652.5,-102 533.5,-102"/>
<text text-anchor="start" x="541.5" y="-123" font-family="FreeSans" font-size="10.00">Urho3D::PODVector&lt;</text>
<text text-anchor="middle" x="593" y="-110" font-family="FreeSans" font-size="10.00"> int &gt;</text>
</a>
</g>
<!-- Node8&#45;&gt;Node21 -->
<g id="edge68" class="edge"><title>Node8&#45;&gt;Node21</title>
<path fill="none" stroke="midnightblue" d="M304.72,-268.03C318.546,-246.994 343.314,-213.234 372,-192 419.904,-156.54 485.973,-137.708 533.371,-128.115"/>
<polygon fill="midnightblue" stroke="midnightblue" points="301.773,-266.143 299.324,-276.451 307.666,-269.92 301.773,-266.143"/>
</g>
<!-- Node22 -->
<g id="node56" class="node"><title>Node22</title>
<a xlink:href="a00316.html" target="_top" xlink:title="Urho3D::Vector\&lt; Urho3D\l::PODVector\&lt; Urho3D::GlyphLocation \&gt; \&gt;">
<polygon fill="none" stroke="black" points="484,-206 484,-240 702,-240 702,-206 484,-206"/>
<text text-anchor="start" x="492" y="-227" font-family="FreeSans" font-size="10.00">Urho3D::Vector&lt; Urho3D</text>
<text text-anchor="middle" x="593" y="-214" font-family="FreeSans" font-size="10.00">::PODVector&lt; Urho3D::GlyphLocation &gt; &gt;</text>
</a>
</g>
<!-- Node8&#45;&gt;Node22 -->
<g id="edge72" class="edge"><title>Node8&#45;&gt;Node22</title>
<path fill="none" stroke="midnightblue" d="M323.658,-272.033C338.032,-265.583 355.577,-258.501 372,-254 407.871,-244.168 447.917,-237.351 483.962,-232.669"/>
<polygon fill="midnightblue" stroke="midnightblue" points="321.885,-268.997 314.267,-276.359 324.814,-275.355 321.885,-268.997"/>
</g>
<!-- Node23 -->
<g id="node59" class="node"><title>Node23</title>
<a xlink:href="a00222.html" target="_top" xlink:title="Urho3D::PODVector\&lt;\l Urho3D::IntVector2 \&gt;">
<polygon fill="none" stroke="black" points="532,-154 532,-188 654,-188 654,-154 532,-154"/>
<text text-anchor="start" x="540" y="-175" font-family="FreeSans" font-size="10.00">Urho3D::PODVector&lt;</text>
<text text-anchor="middle" x="593" y="-162" font-family="FreeSans" font-size="10.00"> Urho3D::IntVector2 &gt;</text>
</a>
</g>
<!-- Node8&#45;&gt;Node23 -->
<g id="edge76" class="edge"><title>Node8&#45;&gt;Node23</title>
<path fill="none" stroke="midnightblue" d="M313.101,-269.979C328.418,-257.721 350.474,-241.55 372,-231 423.051,-205.98 486.027,-190.191 531.675,-181.126"/>
<polygon fill="midnightblue" stroke="midnightblue" points="310.862,-267.289 305.331,-276.325 315.29,-272.71 310.862,-267.289"/>
</g>
<!-- Node24 -->
<g id="node62" class="node"><title>Node24</title>
<a xlink:href="a00222.html" target="_top" xlink:title="Urho3D::PODVector\&lt;\l float \&gt;">
<polygon fill="none" stroke="black" points="758.5,-414 758.5,-448 877.5,-448 877.5,-414 758.5,-414"/>
<text text-anchor="start" x="766.5" y="-435" font-family="FreeSans" font-size="10.00">Urho3D::PODVector&lt;</text>
<text text-anchor="middle" x="818" y="-422" font-family="FreeSans" font-size="10.00"> float &gt;</text>
</a>
</g>
<!-- Node8&#45;&gt;Node24 -->
<g id="edge80" class="edge"><title>Node8&#45;&gt;Node24</title>
<path fill="none" stroke="midnightblue" d="M313.371,-304.245C346.596,-331.236 415.633,-382.681 484,-405 576.334,-435.143 690.336,-437.023 758.442,-434.687"/>
<polygon fill="midnightblue" stroke="midnightblue" points="315.29,-301.291 305.347,-297.633 310.839,-306.694 315.29,-301.291"/>
</g>
<!-- Node25 -->
<g id="node66" class="node"><title>Node25</title>
<a xlink:href="a00222.html" target="_top" xlink:title="Urho3D::PODVector\&lt;\l Urho3D::UIBatch \&gt;">
<polygon fill="none" stroke="black" points="758.5,-283 758.5,-317 877.5,-317 877.5,-283 758.5,-283"/>
<text text-anchor="start" x="766.5" y="-304" font-family="FreeSans" font-size="10.00">Urho3D::PODVector&lt;</text>
<text text-anchor="middle" x="818" y="-291" font-family="FreeSans" font-size="10.00"> Urho3D::UIBatch &gt;</text>
</a>
</g>
<!-- Node8&#45;&gt;Node25 -->
<g id="edge86" class="edge"><title>Node8&#45;&gt;Node25</title>
<path fill="none" stroke="midnightblue" d="M360.194,-288.664C463.562,-291.223 659.94,-296.086 758.476,-298.526"/>
<polygon fill="midnightblue" stroke="midnightblue" points="360.267,-285.165 350.184,-288.416 360.094,-292.163 360.267,-285.165"/>
</g>
<!-- Node9&#45;&gt;Node2 -->
<g id="edge20" class="edge"><title>Node9&#45;&gt;Node2</title>
<path fill="none" stroke="#9a32cd" stroke-dasharray="5,2" d="M352.549,-648.145C359.112,-648.453 365.697,-648.745 372,-649 585.958,-657.647 841.001,-664.191 948.799,-666.783"/>
<polygon fill="#9a32cd" stroke="#9a32cd" points="352.456,-644.637 342.299,-647.652 352.119,-651.629 352.456,-644.637"/>
<text text-anchor="middle" x="593" y="-664" font-family="FreeSans" font-size="10.00"> viewCamera_</text>
</g>
<!-- Node12 -->
<g id="node30" class="node"><title>Node12</title>
<a xlink:href="a00132.html" target="_top" xlink:title="Rendering frame update parameters.">
<polygon fill="none" stroke="red" points="539.5,-605.5 539.5,-626.5 646.5,-626.5 646.5,-605.5 539.5,-605.5"/>
<text text-anchor="middle" x="593" y="-613.5" font-family="FreeSans" font-size="10.00">Urho3D::FrameInfo</text>
</a>
</g>
<!-- Node9&#45;&gt;Node12 -->
<g id="edge40" class="edge"><title>Node9&#45;&gt;Node12</title>
<path fill="none" stroke="#9a32cd" stroke-dasharray="5,2" d="M352.539,-638.068C359.103,-637.348 365.692,-636.645 372,-636 429.105,-630.164 494.602,-624.346 539.378,-620.503"/>
<polygon fill="#9a32cd" stroke="#9a32cd" points="351.839,-634.624 342.287,-639.207 352.612,-641.581 351.839,-634.624"/>
<text text-anchor="middle" x="419" y="-640" font-family="FreeSans" font-size="10.00"> camera_</text>
</g>
<!-- Node10&#45;&gt;Node2 -->
<g id="edge26" class="edge"><title>Node10&#45;&gt;Node2</title>
<path fill="none" stroke="#9a32cd" stroke-dasharray="5,2" d="M672.019,-475.83C741.339,-485.011 842.295,-506.399 916,-556 955.895,-582.848 984.724,-634.699 995.894,-657.173"/>
<polygon fill="#9a32cd" stroke="#9a32cd" points="672.39,-472.349 662.028,-474.562 671.508,-479.293 672.39,-472.349"/>
<text text-anchor="middle" x="818" y="-560" font-family="FreeSans" font-size="10.00"> batches_</text>
</g>
<!-- Node11&#45;&gt;Node2 -->
<g id="edge30" class="edge"><title>Node11&#45;&gt;Node2</title>
<path fill="none" stroke="#9a32cd" stroke-dasharray="5,2" d="M1166.26,-636.826C1141.79,-636.233 1112.24,-636.831 1086,-641 1065.81,-644.207 1043.85,-651.285 1027.3,-657.39"/>
<polygon fill="#9a32cd" stroke="#9a32cd" points="1166.31,-640.33 1176.42,-637.147 1166.53,-633.333 1166.31,-640.33"/>
<text text-anchor="middle" x="1120" y="-645" font-family="FreeSans" font-size="10.00"> firstLight_</text>
</g>
<!-- Node12&#45;&gt;Node2 -->
<g id="edge38" class="edge"><title>Node12&#45;&gt;Node2</title>
<path fill="none" stroke="#9a32cd" stroke-dasharray="5,2" d="M656.84,-616.623C722.419,-618.268 827.177,-623.696 916,-641 935.605,-644.819 957.035,-651.645 973.473,-657.478"/>
<polygon fill="#9a32cd" stroke="#9a32cd" points="656.737,-613.12 646.66,-616.39 656.577,-620.118 656.737,-613.12"/>
<text text-anchor="middle" x="818" y="-645" font-family="FreeSans" font-size="10.00"> viewFrame_</text>
</g>
<!-- Node13&#45;&gt;Node2 -->
<g id="edge42" class="edge"><title>Node13&#45;&gt;Node2</title>
<path fill="none" stroke="#9a32cd" stroke-dasharray="5,2" d="M649.467,-702.135C714.036,-698.55 822.85,-691.568 916,-681 926.68,-679.788 938.076,-678.23 948.941,-676.616"/>
<polygon fill="#9a32cd" stroke="#9a32cd" points="648.899,-698.661 639.105,-702.702 649.282,-705.65 648.899,-698.661"/>
<text text-anchor="middle" x="818" y="-701" font-family="FreeSans" font-size="10.00"> octant_</text>
</g>
<!-- Node13&#45;&gt;Node13 -->
<g id="edge46" class="edge"><title>Node13&#45;&gt;Node13</title>
<path fill="none" stroke="#9a32cd" stroke-dasharray="5,2" d="M560.624,-724.679C562.359,-729.975 573.151,-734 593,-734 623.246,-734 632.462,-724.653 620.647,-715.708"/>
<polygon fill="#9a32cd" stroke="#9a32cd" points="563.786,-726.186 565.353,-715.708 557.594,-722.922 563.786,-726.186"/>
<text text-anchor="middle" x="593" y="-751" font-family="FreeSans" font-size="10.00"> parent_</text>
<text text-anchor="middle" x="593" y="-738" font-family="FreeSans" font-size="10.00">children_</text>
</g>
<!-- Node14 -->
<g id="node37" class="node"><title>Node14</title>
<a xlink:href="a00273.html" target="_top" xlink:title="Urho3D::SharedPtr\&lt;\l Urho3D::VertexBuffer \&gt;">
<polygon fill="none" stroke="black" points="934.5,-374 934.5,-408 1067.5,-408 1067.5,-374 934.5,-374"/>
<text text-anchor="start" x="942.5" y="-395" font-family="FreeSans" font-size="10.00">Urho3D::SharedPtr&lt;</text>
<text text-anchor="middle" x="1001" y="-382" font-family="FreeSans" font-size="10.00"> Urho3D::VertexBuffer &gt;</text>
</a>
</g>
<!-- Node14&#45;&gt;Node1 -->
<g id="edge48" class="edge"><title>Node14&#45;&gt;Node1</title>
<path fill="none" stroke="#9a32cd" stroke-dasharray="5,2" d="M1074.34,-371.158C1099.87,-363.546 1128.5,-354.212 1154,-344 1169.57,-337.766 1186.52,-329.208 1199.06,-322.511"/>
<polygon fill="#9a32cd" stroke="#9a32cd" points="1073.32,-367.808 1064.72,-373.989 1075.3,-374.524 1073.32,-367.808"/>
<text text-anchor="middle" x="1120" y="-371" font-family="FreeSans" font-size="10.00"> vertexBuffer_</text>
</g>
<!-- Node15 -->
<g id="node39" class="node"><title>Node15</title>
<a xlink:href="a00322.html" target="_top" xlink:title="Hardware vertex buffer.">
<polygon fill="none" stroke="red" points="533.5,-374.5 533.5,-395.5 652.5,-395.5 652.5,-374.5 533.5,-374.5"/>
<text text-anchor="middle" x="593" y="-382.5" font-family="FreeSans" font-size="10.00">Urho3D::VertexBuffer</text>
</a>
</g>
<!-- Node15&#45;&gt;Node14 -->
<g id="edge50" class="edge"><title>Node15&#45;&gt;Node14</title>
<path fill="none" stroke="#9a32cd" stroke-dasharray="5,2" d="M663.189,-386.032C739.227,-387.15 859.644,-388.921 934.293,-390.019"/>
<polygon fill="#9a32cd" stroke="#9a32cd" points="662.814,-382.526 652.764,-385.879 662.711,-389.526 662.814,-382.526"/>
<text text-anchor="middle" x="818" y="-393" font-family="FreeSans" font-size="10.00"> ptr_</text>
</g>
<!-- Node16&#45;&gt;Node1 -->
<g id="edge52" class="edge"><title>Node16&#45;&gt;Node1</title>
<path fill="none" stroke="#9a32cd" stroke-dasharray="5,2" d="M925.905,-265.418C992.226,-270.71 1078.64,-280.03 1154,-296 1161.73,-297.638 1169.94,-299.556 1177.82,-301.483"/>
<polygon fill="#9a32cd" stroke="#9a32cd" points="926.096,-261.923 915.854,-264.635 925.552,-268.901 926.096,-261.923"/>
<text text-anchor="middle" x="1001" y="-284" font-family="FreeSans" font-size="10.00"> geometries_</text>
</g>
<!-- Node17 -->
<g id="node44" class="node"><title>Node17</title>
<a xlink:href="a00273.html" target="_top" xlink:title="Urho3D::SharedPtr\&lt;\l Urho3D::Material \&gt;">
<polygon fill="none" stroke="black" points="943,-322 943,-356 1059,-356 1059,-322 943,-322"/>
<text text-anchor="start" x="951" y="-343" font-family="FreeSans" font-size="10.00">Urho3D::SharedPtr&lt;</text>
<text text-anchor="middle" x="1001" y="-330" font-family="FreeSans" font-size="10.00"> Urho3D::Material &gt;</text>
</a>
</g>
<!-- Node17&#45;&gt;Node1 -->
<g id="edge56" class="edge"><title>Node17&#45;&gt;Node1</title>
<path fill="none" stroke="#9a32cd" stroke-dasharray="5,2" d="M1069.3,-330.502C1102.65,-326.352 1141.91,-321.467 1171.72,-317.759"/>
<polygon fill="#9a32cd" stroke="#9a32cd" points="1068.64,-327.056 1059.15,-331.764 1069.51,-334.003 1068.64,-327.056"/>
<text text-anchor="middle" x="1120" y="-331" font-family="FreeSans" font-size="10.00"> material_</text>
</g>
<!-- Node18 -->
<g id="node46" class="node"><title>Node18</title>
<a xlink:href="a00176.html" target="_top" xlink:title="Describes how to render 3D geometries.">
<polygon fill="none" stroke="red" points="544,-334.5 544,-355.5 642,-355.5 642,-334.5 544,-334.5"/>
<text text-anchor="middle" x="593" y="-342.5" font-family="FreeSans" font-size="10.00">Urho3D::Material</text>
</a>
</g>
<!-- Node18&#45;&gt;Node17 -->
<g id="edge58" class="edge"><title>Node18&#45;&gt;Node17</title>
<path fill="none" stroke="#9a32cd" stroke-dasharray="5,2" d="M652.324,-344.128C730.054,-342.984 865.522,-340.992 942.727,-339.857"/>
<polygon fill="#9a32cd" stroke="#9a32cd" points="652.162,-340.629 642.214,-344.276 652.265,-347.629 652.162,-340.629"/>
<text text-anchor="middle" x="818" y="-347" font-family="FreeSans" font-size="10.00"> ptr_</text>
</g>
<!-- Node19 -->
<g id="node48" class="node"><title>Node19</title>
<a xlink:href="a00297.html" target="_top" xlink:title="Text UI element.">
<polygon fill="none" stroke="red" points="962,-160.5 962,-181.5 1040,-181.5 1040,-160.5 962,-160.5"/>
<text text-anchor="middle" x="1001" y="-168.5" font-family="FreeSans" font-size="10.00">Urho3D::Text</text>
</a>
</g>
<!-- Node19&#45;&gt;Node1 -->
<g id="edge60" class="edge"><title>Node19&#45;&gt;Node1</title>
<path fill="none" stroke="#9a32cd" stroke-dasharray="5,2" d="M1050.19,-176.236C1082.27,-181.672 1123.65,-192.698 1154,-215 1185.38,-238.06 1205.82,-281.482 1213.98,-301.457"/>
<polygon fill="#9a32cd" stroke="#9a32cd" points="1050.55,-172.75 1040.13,-174.66 1049.47,-179.665 1050.55,-172.75"/>
<text text-anchor="middle" x="1120" y="-219" font-family="FreeSans" font-size="10.00"> text_</text>
</g>
<!-- Node20 -->
<g id="node50" class="node"><title>Node20</title>
<a xlink:href="a00311.html" target="_top" xlink:title="Base class for UI elements.">
<polygon fill="none" stroke="red" points="538.5,-31.5 538.5,-52.5 647.5,-52.5 647.5,-31.5 538.5,-31.5"/>
<text text-anchor="middle" x="593" y="-39.5" font-family="FreeSans" font-size="10.00">Urho3D::UIElement</text>
</a>
</g>
<!-- Node20&#45;&gt;Node19 -->
<g id="edge62" class="edge"><title>Node20&#45;&gt;Node19</title>
<path fill="none" stroke="midnightblue" d="M657.524,-54.161C723.731,-67.7009 829.057,-92.2117 916,-126 940.59,-135.556 967.205,-150.458 983.979,-160.467"/>
<polygon fill="midnightblue" stroke="midnightblue" points="658.14,-50.7148 647.645,-52.1627 656.753,-57.5759 658.14,-50.7148"/>
</g>
<!-- Node20&#45;&gt;Node20 -->
<g id="edge64" class="edge"><title>Node20&#45;&gt;Node20</title>
<path fill="none" stroke="#9a32cd" stroke-dasharray="5,2" d="M560.624,-61.6791C562.359,-66.9746 573.151,-71 593,-71 623.246,-71 632.462,-61.6531 620.647,-52.7079"/>
<polygon fill="#9a32cd" stroke="#9a32cd" points="563.786,-63.1862 565.353,-52.7079 557.594,-59.922 563.786,-63.1862"/>
<text text-anchor="middle" x="593" y="-75" font-family="FreeSans" font-size="10.00"> parent_</text>
</g>
<!-- Node21&#45;&gt;Node19 -->
<g id="edge66" class="edge"><title>Node21&#45;&gt;Node19</title>
<path fill="none" stroke="#9a32cd" stroke-dasharray="5,2" d="M662.957,-124.761C728.539,-130.591 829.215,-140.647 916,-154 931.023,-156.311 947.422,-159.445 961.774,-162.393"/>
<polygon fill="#9a32cd" stroke="#9a32cd" points="663.008,-121.252 652.74,-123.861 662.394,-128.225 663.008,-121.252"/>
<text text-anchor="middle" x="818" y="-158" font-family="FreeSans" font-size="10.00"> rowWidths_</text>
</g>
<!-- Node22&#45;&gt;Node19 -->
<g id="edge70" class="edge"><title>Node22&#45;&gt;Node19</title>
<path fill="none" stroke="#9a32cd" stroke-dasharray="5,2" d="M712.454,-217.162C787.934,-212.885 878.129,-206.527 916,-199 936.115,-195.002 958.086,-187.683 974.65,-181.53"/>
<polygon fill="#9a32cd" stroke="#9a32cd" points="712.171,-213.672 702.382,-217.726 712.562,-220.661 712.171,-213.672"/>
<text text-anchor="middle" x="818" y="-220" font-family="FreeSans" font-size="10.00"> pageGlyphLocations_</text>
</g>
<!-- Node23&#45;&gt;Node19 -->
<g id="edge74" class="edge"><title>Node23&#45;&gt;Node19</title>
<path fill="none" stroke="#9a32cd" stroke-dasharray="5,2" d="M664.342,-171C750.833,-171 893.498,-171 961.965,-171"/>
<polygon fill="#9a32cd" stroke="#9a32cd" points="664.082,-167.5 654.082,-171 664.082,-174.5 664.082,-167.5"/>
<text text-anchor="middle" x="818" y="-188" font-family="FreeSans" font-size="10.00"> charSizes_</text>
<text text-anchor="middle" x="818" y="-175" font-family="FreeSans" font-size="10.00">charPositions_</text>
</g>
<!-- Node24&#45;&gt;Node1 -->
<g id="edge78" class="edge"><title>Node24&#45;&gt;Node1</title>
<path fill="none" stroke="#9a32cd" stroke-dasharray="5,2" d="M887.766,-438.539C960.642,-442.737 1075.12,-438.575 1154,-384 1178.76,-366.871 1200.34,-338.234 1210.97,-322.74"/>
<polygon fill="#9a32cd" stroke="#9a32cd" points="887.971,-435.045 877.767,-437.896 887.521,-442.031 887.971,-435.045"/>
<text text-anchor="middle" x="1001" y="-443" font-family="FreeSans" font-size="10.00"> uiVertexData_</text>
</g>
<!-- Node25&#45;&gt;Node1 -->
<g id="edge84" class="edge"><title>Node25&#45;&gt;Node1</title>
<path fill="none" stroke="#9a32cd" stroke-dasharray="5,2" d="M887.718,-298.511C937.881,-297.804 1007.14,-297.57 1068,-300 1102.85,-301.392 1142.14,-304.595 1171.77,-307.343"/>
<polygon fill="#9a32cd" stroke="#9a32cd" points="887.578,-295.013 877.632,-298.664 887.683,-302.012 887.578,-295.013"/>
<text text-anchor="middle" x="1001" y="-304" font-family="FreeSans" font-size="10.00"> uiBatches_</text>
</g>
</g>
</svg>
        <g id="navigator" transform="translate(0 0)" fill="#404254">
                <rect fill="#f2f5e9" fill-opacity="0.5" stroke="#606060" stroke-width=".5" x="0" y="0" width="60" height="60"/>
                <use id="zoomplus" xlink:href="#zoomPlus" x="17" y="9" onmousedown="handleZoom(evt,'in')"/>
                <use id="zoomminus" xlink:href="#zoomMin" x="42" y="9" onmousedown="handleZoom(evt,'out')"/>
                <use id="reset" xlink:href="#resetDef" x="30" y="36" onmousedown="handleReset()"/>
                <g id="arrowUp" xlink:href="#dirArrow" transform="translate(30 24)" onmousedown="handlePan(0,-1)">
                  <use xlink:href="#rim" fill="#404040">
                        <set attributeName="fill" to="#808080" begin="arrowUp.mouseover" end="arrowUp.mouseout"/>
                  </use>
                  <path fill="none" stroke="white" stroke-width="1.5" d="M0,-3.0v7 M-2.5,-0.5L0,-3.0L2.5,-0.5"/>
                </g>
                <g id="arrowRight" xlink:href="#dirArrow" transform="rotate(90) translate(36 -43)" onmousedown="handlePan(1,0)">
                  <use xlink:href="#rim" fill="#404040">
                        <set attributeName="fill" to="#808080" begin="arrowRight.mouseover" end="arrowRight.mouseout"/>
                  </use>
                  <path fill="none" stroke="white" stroke-width="1.5" d="M0,-3.0v7 M-2.5,-0.5L0,-3.0L2.5,-0.5"/>
                </g>
                <g id="arrowDown" xlink:href="#dirArrow" transform="rotate(180) translate(-30 -48)" onmousedown="handlePan(0,1)">
                  <use xlink:href="#rim" fill="#404040">
                        <set attributeName="fill" to="#808080" begin="arrowDown.mouseover" end="arrowDown.mouseout"/>
                  </use>
                  <path fill="none" stroke="white" stroke-width="1.5" d="M0,-3.0v7 M-2.5,-0.5L0,-3.0L2.5,-0.5"/>
                </g>
                <g id="arrowLeft" xlink:href="#dirArrow" transform="rotate(270) translate(-36 17)" onmousedown="handlePan(-1,0)">
                  <use xlink:href="#rim" fill="#404040">
                        <set attributeName="fill" to="#808080" begin="arrowLeft.mouseover" end="arrowLeft.mouseout"/>
                  </use>
                  <path fill="none" stroke="white" stroke-width="1.5" d="M0,-3.0v7 M-2.5,-0.5L0,-3.0L2.5,-0.5"/>
                </g>
        </g>
        <svg viewBox="0 0 15 15" width="100%" height="30px" preserveAspectRatio="xMaxYMin meet">
         <g id="arrow_out" transform="scale(0.3 0.3)">
          <a xlink:href="a01430_org.svg" target="_base">
           <rect id="button" ry="5" rx="5" y="6" x="6" height="38" width="38"
                fill="#f2f5e9" fill-opacity="0.5" stroke="#606060" stroke-width="1.0"/>
           <path id="arrow"
             d="M 11.500037,31.436501 C 11.940474,20.09759 22.043105,11.32322 32.158766,21.979434 L 37.068811,17.246167 C 37.068811,17.246167 37.088388,32 37.088388,32 L 22.160133,31.978069 C 22.160133,31.978069 26.997745,27.140456 26.997745,27.140456 C 18.528582,18.264221 13.291696,25.230495 11.500037,31.436501 z"
             style="fill:#404040;"/>
          </a>
         </g>
        </svg>
</svg>
