<?xml version="1.0" encoding="UTF-8" standalone="no"?>
<!DOCTYPE svg PUBLIC "-//W3C//DTD SVG 1.1//EN"
 "http://www.w3.org/Graphics/SVG/1.1/DTD/svg11.dtd">
<!-- Generated by graphviz version 2.26.3 (20100126.1600)
 -->
<!-- Title: Urho3D::AttributeAnimation Pages: 1 -->
<svg width="1686pt" height="972pt"
 viewBox="0.00 0.00 1686.00 972.00" xmlns="http://www.w3.org/2000/svg" xmlns:xlink="http://www.w3.org/1999/xlink">
<g id="graph1" class="graph" transform="scale(1 1) rotate(0) translate(4 968)">
<title>Urho3D::AttributeAnimation</title>
<!-- Node1 -->
<g id="node1" class="node"><title>Node1</title>
<polygon fill="#bfbfbf" stroke="black" points="1528,-85.5 1528,-106.5 1678,-106.5 1678,-85.5 1528,-85.5"/>
<text text-anchor="middle" x="1603" y="-93.5" font-family="FreeSans" font-size="10.00">Urho3D::AttributeAnimation</text>
</g>
<!-- Node2 -->
<g id="node2" class="node"><title>Node2</title>
<a xlink:href="a00286.html" target="_top" xlink:title="Base class for resources.">
<polygon fill="none" stroke="black" points="606.5,-812.5 606.5,-833.5 709.5,-833.5 709.5,-812.5 606.5,-812.5"/>
<text text-anchor="middle" x="658" y="-820.5" font-family="FreeSans" font-size="10.00">Urho3D::Resource</text>
</a>
</g>
<!-- Node2&#45;&gt;Node1 -->
<g id="edge2" class="edge"><title>Node2&#45;&gt;Node1</title>
<path fill="none" stroke="midnightblue" d="M719.554,-825C806.814,-825.072 968.677,-814.8 1084,-746 1372.95,-573.614 1565.85,-176.575 1598.18,-106.623"/>
<polygon fill="midnightblue" stroke="midnightblue" points="719.566,-821.5 709.547,-824.945 719.528,-828.5 719.566,-821.5"/>
</g>
<!-- Node24 -->
<g id="node55" class="node"><title>Node24</title>
<a xlink:href="a00237.html" target="_top" xlink:title="Object animation class, an object animation include one or more attribute animations and theirs wrap ...">
<polygon fill="none" stroke="black" points="941.5,-851.5 941.5,-872.5 1080.5,-872.5 1080.5,-851.5 941.5,-851.5"/>
<text text-anchor="middle" x="1011" y="-859.5" font-family="FreeSans" font-size="10.00">Urho3D::ObjectAnimation</text>
</a>
</g>
<!-- Node2&#45;&gt;Node24 -->
<g id="edge66" class="edge"><title>Node2&#45;&gt;Node24</title>
<path fill="none" stroke="midnightblue" d="M719.718,-829.819C781.571,-836.652 876.635,-847.155 941.202,-854.289"/>
<polygon fill="midnightblue" stroke="midnightblue" points="720.031,-826.332 709.707,-828.713 719.262,-833.29 720.031,-826.332"/>
</g>
<!-- Node3 -->
<g id="node4" class="node"><title>Node3</title>
<a xlink:href="a00236.html" target="_top" xlink:title="Base class for objects with type identification, subsystem access and event sending/receiving capabil...">
<polygon fill="none" stroke="black" points="352,-686.5 352,-707.5 442,-707.5 442,-686.5 352,-686.5"/>
<text text-anchor="middle" x="397" y="-694.5" font-family="FreeSans" font-size="10.00">Urho3D::Object</text>
</a>
</g>
<!-- Node3&#45;&gt;Node2 -->
<g id="edge4" class="edge"><title>Node3&#45;&gt;Node2</title>
<path fill="none" stroke="midnightblue" d="M423.069,-712.81C437.332,-721.239 455.426,-731.578 472,-740 479.763,-743.945 585.723,-790.969 634.152,-812.435"/>
<polygon fill="midnightblue" stroke="midnightblue" points="424.686,-709.699 414.304,-707.586 421.102,-715.712 424.686,-709.699"/>
</g>
<!-- Node12 -->
<g id="node23" class="node"><title>Node12</title>
<a xlink:href="a00152.html" target="_top" xlink:title="Internal helper class for invoking event handler functions.">
<polygon fill="none" stroke="red" points="596,-727.5 596,-748.5 720,-748.5 720,-727.5 596,-727.5"/>
<text text-anchor="middle" x="658" y="-735.5" font-family="FreeSans" font-size="10.00">Urho3D::EventHandler</text>
</a>
</g>
<!-- Node3&#45;&gt;Node12 -->
<g id="edge26" class="edge"><title>Node3&#45;&gt;Node12</title>
<path fill="none" stroke="#9a32cd" stroke-dasharray="5,2" d="M452.196,-702.986C477.224,-705.922 507.162,-709.743 534,-714 558.364,-717.865 585.261,-722.968 607.759,-727.474"/>
<polygon fill="#9a32cd" stroke="#9a32cd" points="452.488,-699.496 442.152,-701.824 451.683,-706.45 452.488,-699.496"/>
<text text-anchor="middle" x="503" y="-731" font-family="FreeSans" font-size="10.00"> sender_</text>
<text text-anchor="middle" x="503" y="-718" font-family="FreeSans" font-size="10.00">receiver_</text>
</g>
<!-- Node4 -->
<g id="node6" class="node"><title>Node4</title>
<a xlink:href="a00278.html" target="_top" xlink:title="Base class for intrusively reference&#45;counted objects. These are noncopyable and non&#45;assignable.">
<polygon fill="none" stroke="black" points="188,-686.5 188,-707.5 302,-707.5 302,-686.5 188,-686.5"/>
<text text-anchor="middle" x="245" y="-694.5" font-family="FreeSans" font-size="10.00">Urho3D::RefCounted</text>
</a>
</g>
<!-- Node4&#45;&gt;Node3 -->
<g id="edge6" class="edge"><title>Node4&#45;&gt;Node3</title>
<path fill="none" stroke="midnightblue" d="M312.222,-697C325.681,-697 339.512,-697 351.996,-697"/>
<polygon fill="midnightblue" stroke="midnightblue" points="312.032,-693.5 302.032,-697 312.032,-700.5 312.032,-693.5"/>
</g>
<!-- Node6 -->
<g id="node10" class="node"><title>Node6</title>
<a xlink:href="a00126.html" target="_top" xlink:title="Urho3D execution context. Provides access to subsystems, object factories and attributes, and event receivers.">
<polygon fill="none" stroke="red" points="962.5,-372.5 962.5,-393.5 1059.5,-393.5 1059.5,-372.5 962.5,-372.5"/>
<text text-anchor="middle" x="1011" y="-380.5" font-family="FreeSans" font-size="10.00">Urho3D::Context</text>
</a>
</g>
<!-- Node4&#45;&gt;Node6 -->
<g id="edge12" class="edge"><title>Node4&#45;&gt;Node6</title>
<path fill="none" stroke="midnightblue" d="M248.533,-676.013C264.357,-590.051 337.582,-266.494 552,-205 709.887,-159.719 785.456,-144.783 920,-239 969.66,-273.776 998.14,-345.196 1007.52,-372.272"/>
<polygon fill="midnightblue" stroke="midnightblue" points="245.042,-675.652 246.741,-686.109 251.935,-676.875 245.042,-675.652"/>
</g>
<!-- Node5 -->
<g id="node8" class="node"><title>Node5</title>
<a xlink:href="a00277.html" target="_top" xlink:title="Reference count structure.">
<polygon fill="none" stroke="black" points="0,-869.5 0,-890.5 102,-890.5 102,-869.5 0,-869.5"/>
<text text-anchor="middle" x="51" y="-877.5" font-family="FreeSans" font-size="10.00">Urho3D::RefCount</text>
</a>
</g>
<!-- Node5&#45;&gt;Node4 -->
<g id="edge8" class="edge"><title>Node5&#45;&gt;Node4</title>
<path fill="none" stroke="#9a32cd" stroke-dasharray="5,2" d="M69.716,-862.345C109.526,-824.793 201.583,-737.955 233.7,-707.659"/>
<polygon fill="#9a32cd" stroke="#9a32cd" points="67.1415,-859.962 62.2688,-869.37 71.9448,-865.054 67.1415,-859.962"/>
<text text-anchor="middle" x="145" y="-814" font-family="FreeSans" font-size="10.00"> refCount_</text>
</g>
<!-- Node23 -->
<g id="node53" class="node"><title>Node23</title>
<a xlink:href="a00376.html" target="_top" xlink:title="Urho3D::WeakPtr\&lt; Urho3D\l::ObjectAnimation \&gt;">
<polygon fill="none" stroke="black" points="1258,-845 1258,-879 1404,-879 1404,-845 1258,-845"/>
<text text-anchor="start" x="1266" y="-866" font-family="FreeSans" font-size="10.00">Urho3D::WeakPtr&lt; Urho3D</text>
<text text-anchor="middle" x="1331" y="-853" font-family="FreeSans" font-size="10.00">::ObjectAnimation &gt;</text>
</a>
</g>
<!-- Node5&#45;&gt;Node23 -->
<g id="edge70" class="edge"><title>Node5&#45;&gt;Node23</title>
<path fill="none" stroke="#9a32cd" stroke-dasharray="5,2" d="M76.5021,-895.889C112.595,-916.818 181.294,-951 245,-951 245,-951 245,-951 1011,-951 1117.1,-951 1235.99,-905.022 1294.48,-879.16"/>
<polygon fill="#9a32cd" stroke="#9a32cd" points="78.0207,-892.72 67.6342,-890.629 74.4498,-898.741 78.0207,-892.72"/>
<text text-anchor="middle" x="503" y="-955" font-family="FreeSans" font-size="10.00"> refCount_</text>
</g>
<!-- Node6&#45;&gt;Node3 -->
<g id="edge10" class="edge"><title>Node6&#45;&gt;Node3</title>
<path fill="none" stroke="#9a32cd" stroke-dasharray="5,2" d="M993.351,-365.328C975.858,-348.503 947.732,-323.258 920,-306 855.785,-266.038 838.042,-253.436 764,-238 671.761,-218.77 628.545,-183.057 552,-238 473.081,-294.647 410.381,-622.793 398.888,-686.344"/>
<polygon fill="#9a32cd" stroke="#9a32cd" points="991.001,-367.925 1000.6,-372.406 995.891,-362.916 991.001,-367.925"/>
<text text-anchor="middle" x="658" y="-242" font-family="FreeSans" font-size="10.00"> context_</text>
</g>
<!-- Node7 -->
<g id="node13" class="node"><title>Node7</title>
<a xlink:href="a00175.html" target="_top" xlink:title="Urho3D::HashMap\&lt; Urho3D\l::ShortStringHash, Urho3D\l::Vector\&lt; Urho3D::AttributeInfo \&gt; \&gt;">
<polygon fill="none" stroke="red" points="563.5,-524.5 563.5,-571.5 752.5,-571.5 752.5,-524.5 563.5,-524.5"/>
<text text-anchor="start" x="571.5" y="-558.5" font-family="FreeSans" font-size="10.00">Urho3D::HashMap&lt; Urho3D</text>
<text text-anchor="start" x="571.5" y="-545.5" font-family="FreeSans" font-size="10.00">::ShortStringHash, Urho3D</text>
<text text-anchor="middle" x="658" y="-532.5" font-family="FreeSans" font-size="10.00">::Vector&lt; Urho3D::AttributeInfo &gt; &gt;</text>
</a>
</g>
<!-- Node7&#45;&gt;Node6 -->
<g id="edge14" class="edge"><title>Node7&#45;&gt;Node6</title>
<path fill="none" stroke="#9a32cd" stroke-dasharray="5,2" d="M762.582,-531.811C812.654,-520.912 872.007,-503.204 920,-475 956.994,-453.26 989.442,-412.748 1003.53,-393.577"/>
<polygon fill="#9a32cd" stroke="#9a32cd" points="761.757,-528.408 752.698,-533.901 763.206,-535.256 761.757,-528.408"/>
<text text-anchor="middle" x="851" y="-545" font-family="FreeSans" font-size="10.00"> attributes_</text>
<text text-anchor="middle" x="851" y="-532" font-family="FreeSans" font-size="10.00">networkAttributes_</text>
</g>
<!-- Node8 -->
<g id="node15" class="node"><title>Node8</title>
<a xlink:href="a00264.html" target="_top" xlink:title="Urho3D::PODVector\&lt;\l Urho3D::Object * \&gt;">
<polygon fill="none" stroke="black" points="598.5,-121 598.5,-155 717.5,-155 717.5,-121 598.5,-121"/>
<text text-anchor="start" x="606.5" y="-142" font-family="FreeSans" font-size="10.00">Urho3D::PODVector&lt;</text>
<text text-anchor="middle" x="658" y="-129" font-family="FreeSans" font-size="10.00"> Urho3D::Object * &gt;</text>
</a>
</g>
<!-- Node8&#45;&gt;Node6 -->
<g id="edge16" class="edge"><title>Node8&#45;&gt;Node6</title>
<path fill="none" stroke="#9a32cd" stroke-dasharray="5,2" d="M727.815,-134.658C794.93,-132.862 890.413,-134.47 920,-156 994.327,-210.086 1008.02,-335.044 1010.48,-372.318"/>
<polygon fill="#9a32cd" stroke="#9a32cd" points="727.607,-131.163 717.716,-134.96 727.816,-138.16 727.607,-131.163"/>
<text text-anchor="middle" x="851" y="-160" font-family="FreeSans" font-size="10.00"> eventSenders_</text>
</g>
<!-- Node9 -->
<g id="node17" class="node"><title>Node9</title>
<a xlink:href="a00367.html" target="_top" xlink:title="Vector base class.">
<polygon fill="none" stroke="black" points="340,-63.5 340,-84.5 454,-84.5 454,-63.5 340,-63.5"/>
<text text-anchor="middle" x="397" y="-71.5" font-family="FreeSans" font-size="10.00">Urho3D::VectorBase</text>
</a>
</g>
<!-- Node9&#45;&gt;Node8 -->
<g id="edge18" class="edge"><title>Node9&#45;&gt;Node8</title>
<path fill="none" stroke="midnightblue" d="M426.476,-89.0091C440.043,-95.3811 456.533,-102.387 472,-107 513.254,-119.303 561.204,-127.146 598.085,-131.865"/>
<polygon fill="midnightblue" stroke="midnightblue" points="427.698,-85.7128 417.17,-84.5247 424.659,-92.0188 427.698,-85.7128"/>
</g>
<!-- Node20 -->
<g id="node44" class="node"><title>Node20</title>
<a xlink:href="a00363.html" target="_top" xlink:title="Urho3D::Vector\&lt; Urho3D\l::Variant \&gt;">
<polygon fill="none" stroke="black" points="782,-39 782,-73 920,-73 920,-39 782,-39"/>
<text text-anchor="start" x="790" y="-60" font-family="FreeSans" font-size="10.00">Urho3D::Vector&lt; Urho3D</text>
<text text-anchor="middle" x="851" y="-47" font-family="FreeSans" font-size="10.00">::Variant &gt;</text>
</a>
</g>
<!-- Node9&#45;&gt;Node20 -->
<g id="edge52" class="edge"><title>Node9&#45;&gt;Node20</title>
<path fill="none" stroke="midnightblue" d="M464.127,-71.3386C549.395,-67.9579 695.79,-62.1537 781.96,-58.7373"/>
<polygon fill="midnightblue" stroke="midnightblue" points="463.893,-67.845 454.04,-71.7385 464.171,-74.8395 463.893,-67.845"/>
</g>
<!-- Node21 -->
<g id="node47" class="node"><title>Node21</title>
<a xlink:href="a00363.html" target="_top" xlink:title="Urho3D::Vector\&lt; Urho3D\l::AttributeEventFrame \&gt;">
<polygon fill="none" stroke="black" points="1102,-0 1102,-34 1240,-34 1240,-0 1102,-0"/>
<text text-anchor="start" x="1110" y="-21" font-family="FreeSans" font-size="10.00">Urho3D::Vector&lt; Urho3D</text>
<text text-anchor="middle" x="1171" y="-8" font-family="FreeSans" font-size="10.00">::AttributeEventFrame &gt;</text>
</a>
</g>
<!-- Node9&#45;&gt;Node21 -->
<g id="edge56" class="edge"><title>Node9&#45;&gt;Node21</title>
<path fill="none" stroke="midnightblue" d="M464.358,-65.893C466.938,-65.5901 469.492,-65.2915 472,-65 507.541,-60.8685 516.437,-59.9332 552,-56 654.201,-44.6968 679.443,-38.4095 782,-31 893.72,-22.9285 1023.84,-19.4401 1101.7,-17.9836"/>
<polygon fill="midnightblue" stroke="midnightblue" points="463.844,-62.4292 454.323,-67.077 464.664,-69.381 463.844,-62.4292"/>
</g>
<!-- Node22 -->
<g id="node50" class="node"><title>Node22</title>
<a xlink:href="a00363.html" target="_top" xlink:title="Urho3D::Vector\&lt; Urho3D\l::AttributeKeyFrame \&gt;">
<polygon fill="none" stroke="black" points="782,-79 782,-113 920,-113 920,-79 782,-79"/>
<text text-anchor="start" x="790" y="-100" font-family="FreeSans" font-size="10.00">Urho3D::Vector&lt; Urho3D</text>
<text text-anchor="middle" x="851" y="-87" font-family="FreeSans" font-size="10.00">::AttributeKeyFrame &gt;</text>
</a>
</g>
<!-- Node9&#45;&gt;Node22 -->
<g id="edge60" class="edge"><title>Node9&#45;&gt;Node22</title>
<path fill="none" stroke="midnightblue" d="M464.356,-78.5606C466.937,-78.7131 469.492,-78.8602 472,-79 580.18,-85.0315 705.823,-90.331 781.819,-93.3488"/>
<polygon fill="midnightblue" stroke="midnightblue" points="464.514,-75.0639 454.32,-77.95 464.089,-82.0509 464.514,-75.0639"/>
</g>
<!-- Node10 -->
<g id="node19" class="node"><title>Node10</title>
<a xlink:href="a00175.html" target="_top" xlink:title="Urho3D::HashMap\&lt; Urho3D\l::ShortStringHash, Urho3D\l::SharedPtr\&lt; Urho3D::Object \&gt; \&gt;">
<polygon fill="none" stroke="red" points="569,-392.5 569,-439.5 747,-439.5 747,-392.5 569,-392.5"/>
<text text-anchor="start" x="577" y="-426.5" font-family="FreeSans" font-size="10.00">Urho3D::HashMap&lt; Urho3D</text>
<text text-anchor="start" x="577" y="-413.5" font-family="FreeSans" font-size="10.00">::ShortStringHash, Urho3D</text>
<text text-anchor="middle" x="658" y="-400.5" font-family="FreeSans" font-size="10.00">::SharedPtr&lt; Urho3D::Object &gt; &gt;</text>
</a>
</g>
<!-- Node10&#45;&gt;Node6 -->
<g id="edge20" class="edge"><title>Node10&#45;&gt;Node6</title>
<path fill="none" stroke="#9a32cd" stroke-dasharray="5,2" d="M757.229,-406.724C824.147,-400.468 909.527,-392.486 962.218,-387.56"/>
<polygon fill="#9a32cd" stroke="#9a32cd" points="756.708,-403.257 747.077,-407.673 757.359,-410.227 756.708,-403.257"/>
<text text-anchor="middle" x="851" y="-409" font-family="FreeSans" font-size="10.00"> subsystems_</text>
</g>
<!-- Node11 -->
<g id="node21" class="node"><title>Node11</title>
<a xlink:href="a00175.html" target="_top" xlink:title="Urho3D::HashMap\&lt; Urho3D\l::String, Urho3D::Vector\l\&lt; Urho3D::ShortStringHash \&gt; \&gt;">
<polygon fill="none" stroke="red" points="571.5,-326.5 571.5,-373.5 744.5,-373.5 744.5,-326.5 571.5,-326.5"/>
<text text-anchor="start" x="579.5" y="-360.5" font-family="FreeSans" font-size="10.00">Urho3D::HashMap&lt; Urho3D</text>
<text text-anchor="start" x="579.5" y="-347.5" font-family="FreeSans" font-size="10.00">::String, Urho3D::Vector</text>
<text text-anchor="middle" x="658" y="-334.5" font-family="FreeSans" font-size="10.00">&lt; Urho3D::ShortStringHash &gt; &gt;</text>
</a>
</g>
<!-- Node11&#45;&gt;Node6 -->
<g id="edge22" class="edge"><title>Node11&#45;&gt;Node6</title>
<path fill="none" stroke="#9a32cd" stroke-dasharray="5,2" d="M755.007,-359.069C822.291,-365.359 909.06,-373.47 962.326,-378.45"/>
<polygon fill="#9a32cd" stroke="#9a32cd" points="755.088,-355.561 744.806,-358.115 754.436,-362.531 755.088,-355.561"/>
<text text-anchor="middle" x="851" y="-379" font-family="FreeSans" font-size="10.00"> objectCategories_</text>
</g>
<!-- Node12&#45;&gt;Node6 -->
<g id="edge24" class="edge"><title>Node12&#45;&gt;Node6</title>
<path fill="none" stroke="#9a32cd" stroke-dasharray="5,2" d="M730.097,-725.406C788.918,-711.506 870.168,-683.456 920,-629 986.555,-556.269 1005.62,-430.613 1009.92,-393.568"/>
<polygon fill="#9a32cd" stroke="#9a32cd" points="729.097,-722.044 720.124,-727.679 730.652,-728.87 729.097,-722.044"/>
<text text-anchor="middle" x="851" y="-713" font-family="FreeSans" font-size="10.00"> eventHandler_</text>
</g>
<!-- Node17 -->
<g id="node35" class="node"><title>Node17</title>
<a xlink:href="a00197.html" target="_top" xlink:title="Urho3D::LinkedList\l\&lt; Urho3D::EventHandler \&gt;">
<polygon fill="none" stroke="black" points="938,-703 938,-737 1084,-737 1084,-703 938,-703"/>
<text text-anchor="start" x="946" y="-724" font-family="FreeSans" font-size="10.00">Urho3D::LinkedList</text>
<text text-anchor="middle" x="1011" y="-711" font-family="FreeSans" font-size="10.00">&lt; Urho3D::EventHandler &gt;</text>
</a>
</g>
<!-- Node12&#45;&gt;Node17 -->
<g id="edge40" class="edge"><title>Node12&#45;&gt;Node17</title>
<path fill="none" stroke="#9a32cd" stroke-dasharray="5,2" d="M730.298,-739.002C782.977,-739.152 856.018,-738.161 920,-733 925.727,-732.538 931.642,-731.949 937.58,-731.278"/>
<polygon fill="#9a32cd" stroke="#9a32cd" points="730.058,-735.501 720.043,-738.957 730.027,-742.501 730.058,-735.501"/>
<text text-anchor="middle" x="851" y="-742" font-family="FreeSans" font-size="10.00"> head_</text>
</g>
<!-- Node13 -->
<g id="node26" class="node"><title>Node13</title>
<a xlink:href="a00338.html" target="_top" xlink:title="32&#45;bit hash value for a string.">
<polygon fill="none" stroke="black" points="340.5,-759.5 340.5,-780.5 453.5,-780.5 453.5,-759.5 340.5,-759.5"/>
<text text-anchor="middle" x="397" y="-767.5" font-family="FreeSans" font-size="10.00">Urho3D::StringHash</text>
</a>
</g>
<!-- Node13&#45;&gt;Node2 -->
<g id="edge48" class="edge"><title>Node13&#45;&gt;Node2</title>
<path fill="none" stroke="#9a32cd" stroke-dasharray="5,2" d="M458.793,-782.548C503.71,-791.669 563.818,-803.875 606.221,-812.485"/>
<polygon fill="#9a32cd" stroke="#9a32cd" points="459.374,-779.095 448.877,-780.534 457.981,-785.955 459.374,-779.095"/>
<text text-anchor="middle" x="503" y="-800" font-family="FreeSans" font-size="10.00"> nameHash_</text>
</g>
<!-- Node13&#45;&gt;Node12 -->
<g id="edge28" class="edge"><title>Node13&#45;&gt;Node12</title>
<path fill="none" stroke="#9a32cd" stroke-dasharray="5,2" d="M463.7,-761.822C504.273,-756.848 555.76,-750.535 595.538,-745.658"/>
<polygon fill="#9a32cd" stroke="#9a32cd" points="463.133,-758.365 453.633,-763.056 463.985,-765.313 463.133,-758.365"/>
<text text-anchor="middle" x="503" y="-764" font-family="FreeSans" font-size="10.00"> eventType_</text>
</g>
<!-- Node13&#45;&gt;Node13 -->
<g id="edge30" class="edge"><title>Node13&#45;&gt;Node13</title>
<path fill="none" stroke="#9a32cd" stroke-dasharray="5,2" d="M383.082,-790.793C384.31,-795.529 388.95,-799 397,-799 410.211,-799 414.236,-789.653 409.076,-780.708"/>
<polygon fill="#9a32cd" stroke="#9a32cd" points="386.57,-791.174 384.924,-780.708 379.684,-789.916 386.57,-791.174"/>
<text text-anchor="middle" x="397" y="-803" font-family="FreeSans" font-size="10.00"> ZERO</text>
</g>
<!-- Node14 -->
<g id="node29" class="node"><title>Node14</title>
<a xlink:href="a00175.html" target="_top" xlink:title="Urho3D::HashMap\&lt; Urho3D\l::StringHash, Urho3D::\lHashSet\&lt; Urho3D::Object * \&gt; \&gt;">
<polygon fill="none" stroke="red" points="571.5,-260.5 571.5,-307.5 744.5,-307.5 744.5,-260.5 571.5,-260.5"/>
<text text-anchor="start" x="579.5" y="-294.5" font-family="FreeSans" font-size="10.00">Urho3D::HashMap&lt; Urho3D</text>
<text text-anchor="start" x="579.5" y="-281.5" font-family="FreeSans" font-size="10.00">::StringHash, Urho3D::</text>
<text text-anchor="middle" x="658" y="-268.5" font-family="FreeSans" font-size="10.00">HashSet&lt; Urho3D::Object * &gt; &gt;</text>
</a>
</g>
<!-- Node14&#45;&gt;Node6 -->
<g id="edge32" class="edge"><title>Node14&#45;&gt;Node6</title>
<path fill="none" stroke="#9a32cd" stroke-dasharray="5,2" d="M754.367,-302.414C804.335,-312.97 866.04,-327.587 920,-345 943.951,-352.729 970.401,-364.112 988.583,-372.403"/>
<polygon fill="#9a32cd" stroke="#9a32cd" points="755.04,-298.98 744.535,-300.358 753.607,-305.831 755.04,-298.98"/>
<text text-anchor="middle" x="851" y="-349" font-family="FreeSans" font-size="10.00"> eventReceivers_</text>
</g>
<!-- Node15 -->
<g id="node31" class="node"><title>Node15</title>
<a xlink:href="a00175.html" target="_top" xlink:title="Urho3D::HashMap\&lt; Urho3D\l::Object *, Urho3D::HashMap\l\&lt; Urho3D::StringHash, Urho3D\l::HashSet\&lt; Urho3D::Object * \&gt; \&gt; \&gt;">
<polygon fill="none" stroke="red" points="562.5,-590 562.5,-650 753.5,-650 753.5,-590 562.5,-590"/>
<text text-anchor="start" x="570.5" y="-637" font-family="FreeSans" font-size="10.00">Urho3D::HashMap&lt; Urho3D</text>
<text text-anchor="start" x="570.5" y="-624" font-family="FreeSans" font-size="10.00">::Object *, Urho3D::HashMap</text>
<text text-anchor="start" x="570.5" y="-611" font-family="FreeSans" font-size="10.00">&lt; Urho3D::StringHash, Urho3D</text>
<text text-anchor="middle" x="658" y="-598" font-family="FreeSans" font-size="10.00">::HashSet&lt; Urho3D::Object * &gt; &gt; &gt;</text>
</a>
</g>
<!-- Node15&#45;&gt;Node6 -->
<g id="edge34" class="edge"><title>Node15&#45;&gt;Node6</title>
<path fill="none" stroke="#9a32cd" stroke-dasharray="5,2" d="M763.801,-615.283C815.418,-608.248 875.751,-592.471 920,-558 976.73,-513.806 1001.62,-424.358 1008.74,-393.64"/>
<polygon fill="#9a32cd" stroke="#9a32cd" points="763.081,-611.846 753.601,-616.577 763.962,-618.791 763.081,-611.846"/>
<text text-anchor="middle" x="851" y="-616" font-family="FreeSans" font-size="10.00"> specificEventReceivers_</text>
</g>
<!-- Node16 -->
<g id="node33" class="node"><title>Node16</title>
<a xlink:href="a00175.html" target="_top" xlink:title="Urho3D::HashMap\&lt; Urho3D\l::ShortStringHash, Urho3D\l::SharedPtr\&lt; Urho3D::ObjectFactory \&gt; \&gt;">
<polygon fill="none" stroke="red" points="552,-458.5 552,-505.5 764,-505.5 764,-458.5 552,-458.5"/>
<text text-anchor="start" x="560" y="-492.5" font-family="FreeSans" font-size="10.00">Urho3D::HashMap&lt; Urho3D</text>
<text text-anchor="start" x="560" y="-479.5" font-family="FreeSans" font-size="10.00">::ShortStringHash, Urho3D</text>
<text text-anchor="middle" x="658" y="-466.5" font-family="FreeSans" font-size="10.00">::SharedPtr&lt; Urho3D::ObjectFactory &gt; &gt;</text>
</a>
</g>
<!-- Node16&#45;&gt;Node6 -->
<g id="edge36" class="edge"><title>Node16&#45;&gt;Node6</title>
<path fill="none" stroke="#9a32cd" stroke-dasharray="5,2" d="M774.036,-460.119C819.994,-450.24 872.982,-437.321 920,-422 944.35,-414.065 971.183,-402.155 989.359,-393.586"/>
<polygon fill="#9a32cd" stroke="#9a32cd" points="773.091,-456.741 764.038,-462.244 774.547,-463.588 773.091,-456.741"/>
<text text-anchor="middle" x="851" y="-462" font-family="FreeSans" font-size="10.00"> factories_</text>
</g>
<!-- Node17&#45;&gt;Node3 -->
<g id="edge38" class="edge"><title>Node17&#45;&gt;Node3</title>
<path fill="none" stroke="#9a32cd" stroke-dasharray="5,2" d="M930.024,-701.297C926.647,-700.804 923.296,-700.367 920,-700 744.256,-680.405 533.229,-688.887 442.309,-694.068"/>
<polygon fill="#9a32cd" stroke="#9a32cd" points="929.774,-704.802 940.202,-702.93 930.882,-697.89 929.774,-704.802"/>
<text text-anchor="middle" x="658" y="-694" font-family="FreeSans" font-size="10.00"> eventHandlers_</text>
</g>
<!-- Node18 -->
<g id="node38" class="node"><title>Node18</title>
<a xlink:href="a00352.html" target="_top" xlink:title="Low&#45;resolution operating system timer.">
<polygon fill="none" stroke="black" points="354,-901.5 354,-922.5 440,-922.5 440,-901.5 354,-901.5"/>
<text text-anchor="middle" x="397" y="-909.5" font-family="FreeSans" font-size="10.00">Urho3D::Timer</text>
</a>
</g>
<!-- Node18&#45;&gt;Node2 -->
<g id="edge42" class="edge"><title>Node18&#45;&gt;Node2</title>
<path fill="none" stroke="#9a32cd" stroke-dasharray="5,2" d="M438.099,-898.051C443.474,-896.089 448.887,-894.043 454,-892 490.206,-877.532 500.245,-875.514 534,-856 542.543,-851.061 542.934,-846.897 552,-843 568.947,-835.715 588.546,-831.075 606.246,-828.123"/>
<polygon fill="#9a32cd" stroke="#9a32cd" points="436.774,-894.808 428.538,-901.474 439.133,-901.399 436.774,-894.808"/>
<text text-anchor="middle" x="503" y="-888" font-family="FreeSans" font-size="10.00"> useTimer_</text>
</g>
<!-- Node19 -->
<g id="node40" class="node"><title>Node19</title>
<a xlink:href="a00337.html" target="_top" xlink:title="String class.">
<polygon fill="none" stroke="black" points="353,-830.5 353,-851.5 441,-851.5 441,-830.5 353,-830.5"/>
<text text-anchor="middle" x="397" y="-838.5" font-family="FreeSans" font-size="10.00">Urho3D::String</text>
</a>
</g>
<!-- Node19&#45;&gt;Node2 -->
<g id="edge44" class="edge"><title>Node19&#45;&gt;Node2</title>
<path fill="none" stroke="#9a32cd" stroke-dasharray="5,2" d="M451.258,-840.454C476.446,-839.934 506.776,-838.931 534,-837 557.771,-835.314 584.008,-832.492 606.203,-829.822"/>
<polygon fill="#9a32cd" stroke="#9a32cd" points="451.094,-836.956 441.161,-840.643 451.225,-843.955 451.094,-836.956"/>
<text text-anchor="middle" x="503" y="-843" font-family="FreeSans" font-size="10.00"> name_</text>
</g>
<!-- Node19&#45;&gt;Node19 -->
<g id="edge46" class="edge"><title>Node19&#45;&gt;Node19</title>
<path fill="none" stroke="#9a32cd" stroke-dasharray="5,2" d="M383.082,-861.793C384.31,-866.529 388.95,-870 397,-870 410.211,-870 414.236,-860.653 409.076,-851.708"/>
<polygon fill="#9a32cd" stroke="#9a32cd" points="386.57,-862.174 384.924,-851.708 379.684,-860.916 386.57,-862.174"/>
<text text-anchor="middle" x="397" y="-874" font-family="FreeSans" font-size="10.00"> EMPTY</text>
</g>
<!-- Node20&#45;&gt;Node1 -->
<g id="edge50" class="edge"><title>Node20&#45;&gt;Node1</title>
<path fill="none" stroke="#9a32cd" stroke-dasharray="5,2" d="M930.279,-60.217C1076.14,-67.9757 1385.16,-84.4127 1527.87,-92.0036"/>
<polygon fill="#9a32cd" stroke="#9a32cd" points="930.235,-56.7098 920.063,-59.6736 929.863,-63.6999 930.235,-56.7098"/>
<text text-anchor="middle" x="1171" y="-81" font-family="FreeSans" font-size="10.00"> splineTangents_</text>
</g>
<!-- Node21&#45;&gt;Node1 -->
<g id="edge54" class="edge"><title>Node21&#45;&gt;Node1</title>
<path fill="none" stroke="#9a32cd" stroke-dasharray="5,2" d="M1250.14,-12.9589C1320.18,-11.7854 1424.29,-15.9816 1510,-44 1539.71,-53.7133 1570.73,-73.2639 1588.37,-85.4304"/>
<polygon fill="#9a32cd" stroke="#9a32cd" points="1249.98,-9.46129 1240.05,-13.1688 1250.13,-16.4598 1249.98,-9.46129"/>
<text text-anchor="middle" x="1331" y="-25" font-family="FreeSans" font-size="10.00"> eventFrames_</text>
</g>
<!-- Node22&#45;&gt;Node1 -->
<g id="edge58" class="edge"><title>Node22&#45;&gt;Node1</title>
<path fill="none" stroke="#9a32cd" stroke-dasharray="5,2" d="M930.279,-96C1076.14,-96 1385.16,-96 1527.87,-96"/>
<polygon fill="#9a32cd" stroke="#9a32cd" points="930.063,-92.5001 920.063,-96 930.063,-99.5001 930.063,-92.5001"/>
<text text-anchor="middle" x="1171" y="-100" font-family="FreeSans" font-size="10.00"> keyFrames_</text>
</g>
<!-- Node23&#45;&gt;Node1 -->
<g id="edge62" class="edge"><title>Node23&#45;&gt;Node1</title>
<path fill="none" stroke="#9a32cd" stroke-dasharray="5,2" d="M1414.2,-860.824C1448.65,-855.883 1486.08,-843.926 1510,-817 1559.61,-761.155 1597,-191.956 1602.34,-106.67"/>
<polygon fill="#9a32cd" stroke="#9a32cd" points="1413.58,-857.373 1404.09,-862.09 1414.45,-864.319 1413.58,-857.373"/>
<text text-anchor="middle" x="1466" y="-863" font-family="FreeSans" font-size="10.00"> objectAnimation_</text>
</g>
<!-- Node24&#45;&gt;Node23 -->
<g id="edge64" class="edge"><title>Node24&#45;&gt;Node23</title>
<path fill="none" stroke="#9a32cd" stroke-dasharray="5,2" d="M1090.87,-862C1142.12,-862 1208.14,-862 1257.99,-862"/>
<polygon fill="#9a32cd" stroke="#9a32cd" points="1090.83,-858.5 1080.83,-862 1090.83,-865.5 1090.83,-858.5"/>
<text text-anchor="middle" x="1171" y="-866" font-family="FreeSans" font-size="10.00"> ptr_</text>
</g>
<!-- Node25 -->
<g id="node58" class="node"><title>Node25</title>
<a xlink:href="a00175.html" target="_top" xlink:title="Urho3D::HashMap\&lt; Urho3D\l::String, Urho3D::SharedPtr\l\&lt; Urho3D::AttributeAnimationInfo \&gt; \&gt;">
<polygon fill="none" stroke="red" points="557.5,-852.5 557.5,-899.5 758.5,-899.5 758.5,-852.5 557.5,-852.5"/>
<text text-anchor="start" x="565.5" y="-886.5" font-family="FreeSans" font-size="10.00">Urho3D::HashMap&lt; Urho3D</text>
<text text-anchor="start" x="565.5" y="-873.5" font-family="FreeSans" font-size="10.00">::String, Urho3D::SharedPtr</text>
<text text-anchor="middle" x="658" y="-860.5" font-family="FreeSans" font-size="10.00">&lt; Urho3D::AttributeAnimationInfo &gt; &gt;</text>
</a>
</g>
<!-- Node25&#45;&gt;Node24 -->
<g id="edge68" class="edge"><title>Node25&#45;&gt;Node24</title>
<path fill="none" stroke="#9a32cd" stroke-dasharray="5,2" d="M768.729,-871.608C825.165,-869.37 892.07,-866.717 941.257,-864.766"/>
<polygon fill="#9a32cd" stroke="#9a32cd" points="768.537,-868.113 758.683,-872.007 768.814,-875.108 768.537,-868.113"/>
<text text-anchor="middle" x="851" y="-875" font-family="FreeSans" font-size="10.00"> attributeAnimationInfos_</text>
</g>
</g>
</svg>
