<?xml version="1.0" encoding="UTF-8" standalone="no"?>
<!DOCTYPE svg PUBLIC "-//W3C//DTD SVG 1.1//EN"
 "http://www.w3.org/Graphics/SVG/1.1/DTD/svg11.dtd">
<!-- Generated by graphviz version 2.26.3 (20100126.1600)
 -->
<!-- Title: Urho3D::AttributeAnimation Pages: 1 -->
<!--zoomable 934 -->
<svg id="main" version="1.1" xmlns="http://www.w3.org/2000/svg" xmlns:xlink="http://www.w3.org/1999/xlink" xml:space="preserve" onload="init(evt)">
        <defs>
                <circle id="rim" cx="0" cy="0" r="7"/>
                <circle id="rim2" cx="0" cy="0" r="3.5"/>
                <g id="zoomPlus">
                        <use xlink:href="#rim" fill="#404040">
                                <set attributeName="fill" to="#808080" begin="zoomplus.mouseover" end="zoomplus.mouseout"/>
                        </use>
                        <path d="M-4,0h8M0,-4v8" fill="none" stroke="white" stroke-width="1.5" pointer-events="none"/>
                </g>
                <g id="zoomMin">
                        <use xlink:href="#rim" fill="#404040">
                                <set attributeName="fill" to="#808080" begin="zoomminus.mouseover" end="zoomminus.mouseout"/>
                        </use>
                        <path d="M-4,0h8" fill="none" stroke="white" stroke-width="1.5" pointer-events="none"/>
                </g>
                <g id="dirArrow">
                        <path fill="none" stroke="white" stroke-width="1.5" d="M0,-3.0v7 M-2.5,-0.5L0,-3.0L2.5,-0.5"/>
                </g>
               <g id="resetDef">
                       <use xlink:href="#rim2" fill="#404040">
                               <set attributeName="fill" to="#808080" begin="reset.mouseover" end="reset.mouseout"/>
                       </use>
               </g>
        </defs>

<script type="text/javascript">
var viewWidth = 1694;
var viewHeight = 934;
var sectionId = 'dynsection-1';
</script>
<script xlink:href="svgpan.js"/>
<svg id="graph" class="graph">
<g id="viewport">
<title>Urho3D::AttributeAnimation</title>
<!-- Node1 -->
<g id="node1" class="node"><title>Node1</title>
<polygon fill="#bfbfbf" stroke="black" points="1536,-87.5 1536,-108.5 1686,-108.5 1686,-87.5 1536,-87.5"/>
<text text-anchor="middle" x="1611" y="-95.5" font-family="FreeSans" font-size="10.00">Urho3D::AttributeAnimation</text>
</g>
<!-- Node2 -->
<g id="node2" class="node"><title>Node2</title>
<a xlink:href="a00286.html" target="_top" xlink:title="Base class for resources.">
<polygon fill="none" stroke="black" points="606.5,-774.5 606.5,-795.5 709.5,-795.5 709.5,-774.5 606.5,-774.5"/>
<text text-anchor="middle" x="658" y="-782.5" font-family="FreeSans" font-size="10.00">Urho3D::Resource</text>
</a>
</g>
<!-- Node2&#45;&gt;Node1 -->
<g id="edge2" class="edge"><title>Node2&#45;&gt;Node1</title>
<path fill="none" stroke="midnightblue" d="M719.646,-790.705C807.947,-795.988 972.908,-794.898 1092,-729 1380.56,-569.33 1573.07,-179.216 1605.98,-108.939"/>
<polygon fill="midnightblue" stroke="midnightblue" points="719.73,-787.203 709.525,-790.051 719.279,-794.188 719.73,-787.203"/>
</g>
<!-- Node23 -->
<g id="node52" class="node"><title>Node23</title>
<a xlink:href="a00237.html" target="_top" xlink:title="Object animation class, an object animation include one or more attribute animations and theirs wrap ...">
<polygon fill="none" stroke="black" points="949.5,-812.5 949.5,-833.5 1088.5,-833.5 1088.5,-812.5 949.5,-812.5"/>
<text text-anchor="middle" x="1019" y="-820.5" font-family="FreeSans" font-size="10.00">Urho3D::ObjectAnimation</text>
</a>
</g>
<!-- Node2&#45;&gt;Node23 -->
<g id="edge62" class="edge"><title>Node2&#45;&gt;Node23</title>
<path fill="none" stroke="midnightblue" d="M720.037,-791.53C783.837,-798.246 882.999,-808.684 949.426,-815.676"/>
<polygon fill="midnightblue" stroke="midnightblue" points="720.034,-788.011 709.722,-790.444 719.301,-794.972 720.034,-788.011"/>
</g>
<!-- Node3 -->
<g id="node4" class="node"><title>Node3</title>
<a xlink:href="a00236.html" target="_top" xlink:title="Base class for objects with type identification, subsystem access and event sending/receiving capabil...">
<polygon fill="none" stroke="black" points="352,-651.5 352,-672.5 442,-672.5 442,-651.5 352,-651.5"/>
<text text-anchor="middle" x="397" y="-659.5" font-family="FreeSans" font-size="10.00">Urho3D::Object</text>
</a>
</g>
<!-- Node3&#45;&gt;Node2 -->
<g id="edge4" class="edge"><title>Node3&#45;&gt;Node2</title>
<path fill="none" stroke="midnightblue" d="M425.027,-677.55C439.019,-685.157 456.274,-694.31 472,-702 479.822,-705.825 585.751,-752.914 634.162,-774.416"/>
<polygon fill="midnightblue" stroke="midnightblue" points="426.374,-674.297 415.922,-672.566 423.014,-680.437 426.374,-674.297"/>
</g>
<!-- Node12 -->
<g id="node23" class="node"><title>Node12</title>
<a xlink:href="a00152.html" target="_top" xlink:title="Internal helper class for invoking event handler functions.">
<polygon fill="none" stroke="red" points="596,-662.5 596,-683.5 720,-683.5 720,-662.5 596,-662.5"/>
<text text-anchor="middle" x="658" y="-670.5" font-family="FreeSans" font-size="10.00">Urho3D::EventHandler</text>
</a>
</g>
<!-- Node3&#45;&gt;Node12 -->
<g id="edge26" class="edge"><title>Node3&#45;&gt;Node12</title>
<path fill="none" stroke="#9a32cd" stroke-dasharray="5,2" d="M452.372,-652.953C458.971,-652.149 465.626,-651.465 472,-651 499.483,-648.995 506.551,-648.584 534,-651 547.558,-652.193 577.256,-657.429 604.19,-662.494"/>
<polygon fill="#9a32cd" stroke="#9a32cd" points="451.556,-649.53 442.095,-654.3 452.465,-656.471 451.556,-649.53"/>
<text text-anchor="middle" x="503" y="-668" font-family="FreeSans" font-size="10.00"> sender_</text>
<text text-anchor="middle" x="503" y="-655" font-family="FreeSans" font-size="10.00">receiver_</text>
</g>
<!-- Node4 -->
<g id="node6" class="node"><title>Node4</title>
<a xlink:href="a00278.html" target="_top" xlink:title="Base class for intrusively reference&#45;counted objects. These are noncopyable and non&#45;assignable.">
<polygon fill="none" stroke="black" points="188,-651.5 188,-672.5 302,-672.5 302,-651.5 188,-651.5"/>
<text text-anchor="middle" x="245" y="-659.5" font-family="FreeSans" font-size="10.00">Urho3D::RefCounted</text>
</a>
</g>
<!-- Node4&#45;&gt;Node3 -->
<g id="edge6" class="edge"><title>Node4&#45;&gt;Node3</title>
<path fill="none" stroke="midnightblue" d="M312.222,-662C325.681,-662 339.512,-662 351.996,-662"/>
<polygon fill="midnightblue" stroke="midnightblue" points="312.032,-658.5 302.032,-662 312.032,-665.5 312.032,-658.5"/>
</g>
<!-- Node6 -->
<g id="node10" class="node"><title>Node6</title>
<a xlink:href="a00126.html" target="_top" xlink:title="Urho3D execution context. Provides access to subsystems, object factories and attributes, and event receivers.">
<polygon fill="none" stroke="red" points="970.5,-380.5 970.5,-401.5 1067.5,-401.5 1067.5,-380.5 970.5,-380.5"/>
<text text-anchor="middle" x="1019" y="-388.5" font-family="FreeSans" font-size="10.00">Urho3D::Context</text>
</a>
</g>
<!-- Node4&#45;&gt;Node6 -->
<g id="edge12" class="edge"><title>Node4&#45;&gt;Node6</title>
<path fill="none" stroke="midnightblue" d="M252.754,-641.799C280.524,-572.721 382.475,-345.589 552,-262 703.363,-187.366 780.237,-233.47 928,-315 960.981,-333.198 993.311,-364.214 1009.07,-380.424"/>
<polygon fill="midnightblue" stroke="midnightblue" points="249.48,-640.56 249.065,-651.147 255.992,-643.13 249.48,-640.56"/>
</g>
<!-- Node5 -->
<g id="node8" class="node"><title>Node5</title>
<a xlink:href="a00277.html" target="_top" xlink:title="Reference count structure.">
<polygon fill="none" stroke="black" points="0,-832.5 0,-853.5 102,-853.5 102,-832.5 0,-832.5"/>
<text text-anchor="middle" x="51" y="-840.5" font-family="FreeSans" font-size="10.00">Urho3D::RefCount</text>
</a>
</g>
<!-- Node5&#45;&gt;Node4 -->
<g id="edge8" class="edge"><title>Node5&#45;&gt;Node4</title>
<path fill="none" stroke="#9a32cd" stroke-dasharray="5,2" d="M69.716,-825.538C109.526,-788.396 201.583,-702.507 233.7,-672.543"/>
<polygon fill="#9a32cd" stroke="#9a32cd" points="67.193,-823.105 62.2688,-832.486 71.9683,-828.224 67.193,-823.105"/>
<text text-anchor="middle" x="145" y="-778" font-family="FreeSans" font-size="10.00"> refCount_</text>
</g>
<!-- Node22 -->
<g id="node50" class="node"><title>Node22</title>
<a xlink:href="a00376.html" target="_top" xlink:title="Urho3D::WeakPtr\&lt; Urho3D\l::ObjectAnimation \&gt;">
<polygon fill="none" stroke="black" points="1266,-806 1266,-840 1412,-840 1412,-806 1266,-806"/>
<text text-anchor="start" x="1274" y="-827" font-family="FreeSans" font-size="10.00">Urho3D::WeakPtr&lt; Urho3D</text>
<text text-anchor="middle" x="1339" y="-814" font-family="FreeSans" font-size="10.00">::ObjectAnimation &gt;</text>
</a>
</g>
<!-- Node5&#45;&gt;Node22 -->
<g id="edge66" class="edge"><title>Node5&#45;&gt;Node22</title>
<path fill="none" stroke="#9a32cd" stroke-dasharray="5,2" d="M76.8125,-858.825C113.015,-879.473 181.563,-913 245,-913 245,-913 245,-913 1019,-913 1125.48,-913 1244.69,-866.253 1302.97,-840.14"/>
<polygon fill="#9a32cd" stroke="#9a32cd" points="78.3102,-855.647 67.9089,-853.631 74.7831,-861.694 78.3102,-855.647"/>
<text text-anchor="middle" x="503" y="-917" font-family="FreeSans" font-size="10.00"> refCount_</text>
</g>
<!-- Node6&#45;&gt;Node3 -->
<g id="edge10" class="edge"><title>Node6&#45;&gt;Node3</title>
<path fill="none" stroke="#9a32cd" stroke-dasharray="5,2" d="M960.239,-396.976C949.516,-398.02 938.425,-399.069 928,-400 844.511,-407.459 624.291,-387.574 552,-430 461.135,-483.326 412.785,-613.505 400.297,-651.455"/>
<polygon fill="#9a32cd" stroke="#9a32cd" points="960.763,-400.442 970.373,-395.981 960.078,-393.475 960.763,-400.442"/>
<text text-anchor="middle" x="658" y="-434" font-family="FreeSans" font-size="10.00"> context_</text>
</g>
<!-- Node7 -->
<g id="node13" class="node"><title>Node7</title>
<a xlink:href="a00175.html" target="_top" xlink:title="Urho3D::HashMap\&lt; Urho3D\l::ShortStringHash, Urho3D\l::Vector\&lt; Urho3D::AttributeInfo \&gt; \&gt;">
<polygon fill="none" stroke="red" points="563.5,-115.5 563.5,-162.5 752.5,-162.5 752.5,-115.5 563.5,-115.5"/>
<text text-anchor="start" x="571.5" y="-149.5" font-family="FreeSans" font-size="10.00">Urho3D::HashMap&lt; Urho3D</text>
<text text-anchor="start" x="571.5" y="-136.5" font-family="FreeSans" font-size="10.00">::ShortStringHash, Urho3D</text>
<text text-anchor="middle" x="658" y="-123.5" font-family="FreeSans" font-size="10.00">::Vector&lt; Urho3D::AttributeInfo &gt; &gt;</text>
</a>
</g>
<!-- Node7&#45;&gt;Node6 -->
<g id="edge14" class="edge"><title>Node7&#45;&gt;Node6</title>
<path fill="none" stroke="#9a32cd" stroke-dasharray="5,2" d="M763.031,-132.548C827.348,-130.757 902.128,-133.233 928,-152 967.713,-180.807 1006.68,-337.993 1016.59,-380.435"/>
<polygon fill="#9a32cd" stroke="#9a32cd" points="762.692,-129.057 752.807,-132.871 762.913,-136.054 762.692,-129.057"/>
<text text-anchor="middle" x="855" y="-169" font-family="FreeSans" font-size="10.00"> attributes_</text>
<text text-anchor="middle" x="855" y="-156" font-family="FreeSans" font-size="10.00">networkAttributes_</text>
</g>
<!-- Node8 -->
<g id="node15" class="node"><title>Node8</title>
<a xlink:href="a00264.html" target="_top" xlink:title="Urho3D::PODVector\&lt;\l Urho3D::Object * \&gt;">
<polygon fill="none" stroke="black" points="598.5,-181 598.5,-215 717.5,-215 717.5,-181 598.5,-181"/>
<text text-anchor="start" x="606.5" y="-202" font-family="FreeSans" font-size="10.00">Urho3D::PODVector&lt;</text>
<text text-anchor="middle" x="658" y="-189" font-family="FreeSans" font-size="10.00"> Urho3D::Object * &gt;</text>
</a>
</g>
<!-- Node8&#45;&gt;Node6 -->
<g id="edge16" class="edge"><title>Node8&#45;&gt;Node6</title>
<path fill="none" stroke="#9a32cd" stroke-dasharray="5,2" d="M727.931,-184.904C786.202,-177.893 868.924,-177.386 928,-216 988.481,-255.532 1011.08,-348.782 1017.16,-380.344"/>
<polygon fill="#9a32cd" stroke="#9a32cd" points="727.177,-181.473 717.71,-186.23 728.077,-188.415 727.177,-181.473"/>
<text text-anchor="middle" x="855" y="-220" font-family="FreeSans" font-size="10.00"> eventSenders_</text>
</g>
<!-- Node9 -->
<g id="node17" class="node"><title>Node9</title>
<a xlink:href="a00367.html" target="_top" xlink:title="Vector base class.">
<polygon fill="none" stroke="black" points="340,-57.5 340,-78.5 454,-78.5 454,-57.5 340,-57.5"/>
<text text-anchor="middle" x="397" y="-65.5" font-family="FreeSans" font-size="10.00">Urho3D::VectorBase</text>
</a>
</g>
<!-- Node9&#45;&gt;Node8 -->
<g id="edge18" class="edge"><title>Node9&#45;&gt;Node8</title>
<path fill="none" stroke="midnightblue" d="M417.316,-85.0907C445.69,-108.116 499.611,-148.871 552,-172 566.561,-178.428 582.978,-183.437 598.467,-187.267"/>
<polygon fill="midnightblue" stroke="midnightblue" points="419.309,-82.1982 409.361,-78.5535 414.865,-87.6065 419.309,-82.1982"/>
</g>
<!-- Node20 -->
<g id="node44" class="node"><title>Node20</title>
<a xlink:href="a00363.html" target="_top" xlink:title="Urho3D::Vector\&lt; Urho3D\l::AttributeEventFrame \&gt;">
<polygon fill="none" stroke="black" points="786,-76 786,-110 924,-110 924,-76 786,-76"/>
<text text-anchor="start" x="794" y="-97" font-family="FreeSans" font-size="10.00">Urho3D::Vector&lt; Urho3D</text>
<text text-anchor="middle" x="855" y="-84" font-family="FreeSans" font-size="10.00">::AttributeEventFrame &gt;</text>
</a>
</g>
<!-- Node9&#45;&gt;Node20 -->
<g id="edge52" class="edge"><title>Node9&#45;&gt;Node20</title>
<path fill="none" stroke="midnightblue" d="M464.269,-71.6719C550.427,-76.3748 698.972,-84.4832 785.97,-89.232"/>
<polygon fill="midnightblue" stroke="midnightblue" points="464.256,-68.1661 454.08,-71.1157 463.874,-75.1556 464.256,-68.1661"/>
</g>
<!-- Node21 -->
<g id="node47" class="node"><title>Node21</title>
<a xlink:href="a00363.html" target="_top" xlink:title="Urho3D::Vector\&lt; Urho3D\l::AttributeKeyFrame \&gt;">
<polygon fill="none" stroke="black" points="1110,-36 1110,-70 1248,-70 1248,-36 1110,-36"/>
<text text-anchor="start" x="1118" y="-57" font-family="FreeSans" font-size="10.00">Urho3D::Vector&lt; Urho3D</text>
<text text-anchor="middle" x="1179" y="-44" font-family="FreeSans" font-size="10.00">::AttributeKeyFrame &gt;</text>
</a>
</g>
<!-- Node9&#45;&gt;Node21 -->
<g id="edge56" class="edge"><title>Node9&#45;&gt;Node21</title>
<path fill="none" stroke="midnightblue" d="M464.436,-66.7065C611.722,-63.8813 960.86,-57.1843 1109.77,-54.3279"/>
<polygon fill="midnightblue" stroke="midnightblue" points="464.117,-63.2119 454.185,-66.9031 464.251,-70.2106 464.117,-63.2119"/>
</g>
<!-- Node25 -->
<g id="node58" class="node"><title>Node25</title>
<a xlink:href="a00363.html" target="_top" xlink:title="Urho3D::Vector\&lt; Variant \&gt;">
<polygon fill="none" stroke="black" points="782,-0.5 782,-21.5 928,-21.5 928,-0.5 782,-0.5"/>
<text text-anchor="middle" x="855" y="-8.5" font-family="FreeSans" font-size="10.00">Urho3D::Vector&lt; Variant &gt;</text>
</a>
</g>
<!-- Node9&#45;&gt;Node25 -->
<g id="edge70" class="edge"><title>Node9&#45;&gt;Node25</title>
<path fill="none" stroke="midnightblue" d="M425.018,-52.8566C438.772,-46.1637 455.827,-38.9327 472,-35 577.521,-9.33998 703.94,-6.62653 781.865,-8.04148"/>
<polygon fill="midnightblue" stroke="midnightblue" points="423.435,-49.7352 416.076,-57.357 426.582,-55.988 423.435,-49.7352"/>
</g>
<!-- Node10 -->
<g id="node19" class="node"><title>Node10</title>
<a xlink:href="a00175.html" target="_top" xlink:title="Urho3D::HashMap\&lt; Urho3D\l::ShortStringHash, Urho3D\l::SharedPtr\&lt; Urho3D::Object \&gt; \&gt;">
<polygon fill="none" stroke="red" points="569,-452.5 569,-499.5 747,-499.5 747,-452.5 569,-452.5"/>
<text text-anchor="start" x="577" y="-486.5" font-family="FreeSans" font-size="10.00">Urho3D::HashMap&lt; Urho3D</text>
<text text-anchor="start" x="577" y="-473.5" font-family="FreeSans" font-size="10.00">::ShortStringHash, Urho3D</text>
<text text-anchor="middle" x="658" y="-460.5" font-family="FreeSans" font-size="10.00">::SharedPtr&lt; Urho3D::Object &gt; &gt;</text>
</a>
</g>
<!-- Node10&#45;&gt;Node6 -->
<g id="edge20" class="edge"><title>Node10&#45;&gt;Node6</title>
<path fill="none" stroke="#9a32cd" stroke-dasharray="5,2" d="M757.231,-468.116C808.97,-462.217 872.806,-452.106 928,-435 954.651,-426.74 983.301,-411.767 1001.19,-401.606"/>
<polygon fill="#9a32cd" stroke="#9a32cd" points="756.605,-464.664 747.05,-469.241 757.374,-471.622 756.605,-464.664"/>
<text text-anchor="middle" x="855" y="-469" font-family="FreeSans" font-size="10.00"> subsystems_</text>
</g>
<!-- Node11 -->
<g id="node21" class="node"><title>Node11</title>
<a xlink:href="a00175.html" target="_top" xlink:title="Urho3D::HashMap\&lt; Urho3D\l::String, Urho3D::Vector\l\&lt; Urho3D::ShortStringHash \&gt; \&gt;">
<polygon fill="none" stroke="red" points="571.5,-337.5 571.5,-384.5 744.5,-384.5 744.5,-337.5 571.5,-337.5"/>
<text text-anchor="start" x="579.5" y="-371.5" font-family="FreeSans" font-size="10.00">Urho3D::HashMap&lt; Urho3D</text>
<text text-anchor="start" x="579.5" y="-358.5" font-family="FreeSans" font-size="10.00">::String, Urho3D::Vector</text>
<text text-anchor="middle" x="658" y="-345.5" font-family="FreeSans" font-size="10.00">&lt; Urho3D::ShortStringHash &gt; &gt;</text>
</a>
</g>
<!-- Node11&#45;&gt;Node6 -->
<g id="edge22" class="edge"><title>Node11&#45;&gt;Node6</title>
<path fill="none" stroke="#9a32cd" stroke-dasharray="5,2" d="M755.042,-369.064C824.681,-374.852 915.575,-382.405 970.498,-386.969"/>
<polygon fill="#9a32cd" stroke="#9a32cd" points="755.183,-365.564 744.928,-368.224 754.604,-372.54 755.183,-365.564"/>
<text text-anchor="middle" x="855" y="-387" font-family="FreeSans" font-size="10.00"> objectCategories_</text>
</g>
<!-- Node12&#45;&gt;Node6 -->
<g id="edge24" class="edge"><title>Node12&#45;&gt;Node6</title>
<path fill="none" stroke="#9a32cd" stroke-dasharray="5,2" d="M730.256,-666.925C799.764,-659.725 898.518,-645.5 928,-621 999.338,-561.717 1015.08,-438.734 1018.25,-401.749"/>
<polygon fill="#9a32cd" stroke="#9a32cd" points="729.823,-663.451 720.225,-667.937 730.526,-670.416 729.823,-663.451"/>
<text text-anchor="middle" x="855" y="-664" font-family="FreeSans" font-size="10.00"> eventHandler_</text>
</g>
<!-- Node17 -->
<g id="node35" class="node"><title>Node17</title>
<a xlink:href="a00197.html" target="_top" xlink:title="Urho3D::LinkedList\l\&lt; Urho3D::EventHandler \&gt;">
<polygon fill="none" stroke="black" points="946,-686 946,-720 1092,-720 1092,-686 946,-686"/>
<text text-anchor="start" x="954" y="-707" font-family="FreeSans" font-size="10.00">Urho3D::LinkedList</text>
<text text-anchor="middle" x="1019" y="-694" font-family="FreeSans" font-size="10.00">&lt; Urho3D::EventHandler &gt;</text>
</a>
</g>
<!-- Node12&#45;&gt;Node17 -->
<g id="edge40" class="edge"><title>Node12&#45;&gt;Node17</title>
<path fill="none" stroke="#9a32cd" stroke-dasharray="5,2" d="M730.487,-677.668C784.881,-681.342 861.163,-686.854 928,-693 933.698,-693.524 939.592,-694.098 945.516,-694.698"/>
<polygon fill="#9a32cd" stroke="#9a32cd" points="730.463,-674.159 720.251,-676.981 729.994,-681.143 730.463,-674.159"/>
<text text-anchor="middle" x="855" y="-697" font-family="FreeSans" font-size="10.00"> head_</text>
</g>
<!-- Node13 -->
<g id="node26" class="node"><title>Node13</title>
<a xlink:href="a00338.html" target="_top" xlink:title="32&#45;bit hash value for a string.">
<polygon fill="none" stroke="black" points="340.5,-721.5 340.5,-742.5 453.5,-742.5 453.5,-721.5 340.5,-721.5"/>
<text text-anchor="middle" x="397" y="-729.5" font-family="FreeSans" font-size="10.00">Urho3D::StringHash</text>
</a>
</g>
<!-- Node13&#45;&gt;Node2 -->
<g id="edge48" class="edge"><title>Node13&#45;&gt;Node2</title>
<path fill="none" stroke="#9a32cd" stroke-dasharray="5,2" d="M427.344,-746.768C440.742,-752.7 456.86,-759.056 472,-763 516.525,-774.599 568.655,-780.097 606.38,-782.695"/>
<polygon fill="#9a32cd" stroke="#9a32cd" points="428.673,-743.527 418.122,-742.563 425.769,-749.896 428.673,-743.527"/>
<text text-anchor="middle" x="503" y="-778" font-family="FreeSans" font-size="10.00"> nameHash_</text>
</g>
<!-- Node13&#45;&gt;Node12 -->
<g id="edge28" class="edge"><title>Node13&#45;&gt;Node12</title>
<path fill="none" stroke="#9a32cd" stroke-dasharray="5,2" d="M453.42,-719.246C500.592,-708.583 567.076,-693.554 611.303,-683.556"/>
<polygon fill="#9a32cd" stroke="#9a32cd" points="452.644,-715.833 443.662,-721.452 454.187,-722.661 452.644,-715.833"/>
<text text-anchor="middle" x="503" y="-718" font-family="FreeSans" font-size="10.00"> eventType_</text>
</g>
<!-- Node13&#45;&gt;Node13 -->
<g id="edge30" class="edge"><title>Node13&#45;&gt;Node13</title>
<path fill="none" stroke="#9a32cd" stroke-dasharray="5,2" d="M383.082,-752.793C384.31,-757.529 388.95,-761 397,-761 410.211,-761 414.236,-751.653 409.076,-742.708"/>
<polygon fill="#9a32cd" stroke="#9a32cd" points="386.57,-753.174 384.924,-742.708 379.684,-751.916 386.57,-753.174"/>
<text text-anchor="middle" x="397" y="-765" font-family="FreeSans" font-size="10.00"> ZERO</text>
</g>
<!-- Node14 -->
<g id="node29" class="node"><title>Node14</title>
<a xlink:href="a00175.html" target="_top" xlink:title="Urho3D::HashMap\&lt; Urho3D\l::StringHash, Urho3D::\lHashSet\&lt; Urho3D::Object * \&gt; \&gt;">
<polygon fill="none" stroke="red" points="571.5,-271.5 571.5,-318.5 744.5,-318.5 744.5,-271.5 571.5,-271.5"/>
<text text-anchor="start" x="579.5" y="-305.5" font-family="FreeSans" font-size="10.00">Urho3D::HashMap&lt; Urho3D</text>
<text text-anchor="start" x="579.5" y="-292.5" font-family="FreeSans" font-size="10.00">::StringHash, Urho3D::</text>
<text text-anchor="middle" x="658" y="-279.5" font-family="FreeSans" font-size="10.00">HashSet&lt; Urho3D::Object * &gt; &gt;</text>
</a>
</g>
<!-- Node14&#45;&gt;Node6 -->
<g id="edge32" class="edge"><title>Node14&#45;&gt;Node6</title>
<path fill="none" stroke="#9a32cd" stroke-dasharray="5,2" d="M754.505,-312.593C806.435,-323.021 871.288,-337.6 928,-355 951.389,-362.176 977.259,-372.67 995.417,-380.478"/>
<polygon fill="#9a32cd" stroke="#9a32cd" points="755.122,-309.147 744.631,-310.628 753.756,-316.012 755.122,-309.147"/>
<text text-anchor="middle" x="855" y="-359" font-family="FreeSans" font-size="10.00"> eventReceivers_</text>
</g>
<!-- Node15 -->
<g id="node31" class="node"><title>Node15</title>
<a xlink:href="a00175.html" target="_top" xlink:title="Urho3D::HashMap\&lt; Urho3D\l::Object *, Urho3D::HashMap\l\&lt; Urho3D::StringHash, Urho3D\l::HashSet\&lt; Urho3D::Object * \&gt; \&gt; \&gt;">
<polygon fill="none" stroke="red" points="562.5,-584 562.5,-644 753.5,-644 753.5,-584 562.5,-584"/>
<text text-anchor="start" x="570.5" y="-631" font-family="FreeSans" font-size="10.00">Urho3D::HashMap&lt; Urho3D</text>
<text text-anchor="start" x="570.5" y="-618" font-family="FreeSans" font-size="10.00">::Object *, Urho3D::HashMap</text>
<text text-anchor="start" x="570.5" y="-605" font-family="FreeSans" font-size="10.00">&lt; Urho3D::StringHash, Urho3D</text>
<text text-anchor="middle" x="658" y="-592" font-family="FreeSans" font-size="10.00">::HashSet&lt; Urho3D::Object * &gt; &gt; &gt;</text>
</a>
</g>
<!-- Node15&#45;&gt;Node6 -->
<g id="edge34" class="edge"><title>Node15&#45;&gt;Node6</title>
<path fill="none" stroke="#9a32cd" stroke-dasharray="5,2" d="M763.841,-606.667C817.393,-598.448 880.856,-581.345 928,-546 979.682,-507.253 1007.28,-429.825 1015.95,-401.603"/>
<polygon fill="#9a32cd" stroke="#9a32cd" points="763.012,-603.25 753.617,-608.148 764.015,-610.178 763.012,-603.25"/>
<text text-anchor="middle" x="855" y="-608" font-family="FreeSans" font-size="10.00"> specificEventReceivers_</text>
</g>
<!-- Node16 -->
<g id="node33" class="node"><title>Node16</title>
<a xlink:href="a00175.html" target="_top" xlink:title="Urho3D::HashMap\&lt; Urho3D\l::ShortStringHash, Urho3D\l::SharedPtr\&lt; Urho3D::ObjectFactory \&gt; \&gt;">
<polygon fill="none" stroke="red" points="552,-518.5 552,-565.5 764,-565.5 764,-518.5 552,-518.5"/>
<text text-anchor="start" x="560" y="-552.5" font-family="FreeSans" font-size="10.00">Urho3D::HashMap&lt; Urho3D</text>
<text text-anchor="start" x="560" y="-539.5" font-family="FreeSans" font-size="10.00">::ShortStringHash, Urho3D</text>
<text text-anchor="middle" x="658" y="-526.5" font-family="FreeSans" font-size="10.00">::SharedPtr&lt; Urho3D::ObjectFactory &gt; &gt;</text>
</a>
</g>
<!-- Node16&#45;&gt;Node6 -->
<g id="edge36" class="edge"><title>Node16&#45;&gt;Node6</title>
<path fill="none" stroke="#9a32cd" stroke-dasharray="5,2" d="M774.326,-530.819C823.971,-522.423 881.138,-507.725 928,-482 965.409,-461.465 997.652,-420.916 1011.61,-401.649"/>
<polygon fill="#9a32cd" stroke="#9a32cd" points="773.488,-527.409 764.178,-532.466 774.609,-534.319 773.488,-527.409"/>
<text text-anchor="middle" x="855" y="-533" font-family="FreeSans" font-size="10.00"> factories_</text>
</g>
<!-- Node17&#45;&gt;Node3 -->
<g id="edge38" class="edge"><title>Node17&#45;&gt;Node3</title>
<path fill="none" stroke="#9a32cd" stroke-dasharray="5,2" d="M935.575,-706.49C841.846,-709.189 685.362,-710.019 552,-693 514.298,-688.189 472.022,-679.51 441.157,-672.556"/>
<polygon fill="#9a32cd" stroke="#9a32cd" points="935.957,-709.98 945.847,-706.18 935.745,-702.984 935.957,-709.98"/>
<text text-anchor="middle" x="658" y="-711" font-family="FreeSans" font-size="10.00"> eventHandlers_</text>
</g>
<!-- Node18 -->
<g id="node38" class="node"><title>Node18</title>
<a xlink:href="a00352.html" target="_top" xlink:title="Low&#45;resolution operating system timer.">
<polygon fill="none" stroke="black" points="354,-863.5 354,-884.5 440,-884.5 440,-863.5 354,-863.5"/>
<text text-anchor="middle" x="397" y="-871.5" font-family="FreeSans" font-size="10.00">Urho3D::Timer</text>
</a>
</g>
<!-- Node18&#45;&gt;Node2 -->
<g id="edge42" class="edge"><title>Node18&#45;&gt;Node2</title>
<path fill="none" stroke="#9a32cd" stroke-dasharray="5,2" d="M438.099,-860.051C443.474,-858.089 448.887,-856.043 454,-854 490.206,-839.532 500.245,-837.514 534,-818 542.543,-813.061 542.934,-808.897 552,-805 568.947,-797.715 588.546,-793.075 606.246,-790.123"/>
<polygon fill="#9a32cd" stroke="#9a32cd" points="436.774,-856.808 428.538,-863.474 439.133,-863.399 436.774,-856.808"/>
<text text-anchor="middle" x="503" y="-850" font-family="FreeSans" font-size="10.00"> useTimer_</text>
</g>
<!-- Node19 -->
<g id="node40" class="node"><title>Node19</title>
<a xlink:href="a00337.html" target="_top" xlink:title="String class.">
<polygon fill="none" stroke="black" points="353,-792.5 353,-813.5 441,-813.5 441,-792.5 353,-792.5"/>
<text text-anchor="middle" x="397" y="-800.5" font-family="FreeSans" font-size="10.00">Urho3D::String</text>
</a>
</g>
<!-- Node19&#45;&gt;Node2 -->
<g id="edge44" class="edge"><title>Node19&#45;&gt;Node2</title>
<path fill="none" stroke="#9a32cd" stroke-dasharray="5,2" d="M451.258,-802.454C476.446,-801.934 506.776,-800.931 534,-799 557.771,-797.314 584.008,-794.492 606.203,-791.822"/>
<polygon fill="#9a32cd" stroke="#9a32cd" points="451.094,-798.956 441.161,-802.643 451.225,-805.955 451.094,-798.956"/>
<text text-anchor="middle" x="503" y="-805" font-family="FreeSans" font-size="10.00"> name_</text>
</g>
<!-- Node19&#45;&gt;Node19 -->
<g id="edge46" class="edge"><title>Node19&#45;&gt;Node19</title>
<path fill="none" stroke="#9a32cd" stroke-dasharray="5,2" d="M383.082,-823.793C384.31,-828.529 388.95,-832 397,-832 410.211,-832 414.236,-822.653 409.076,-813.708"/>
<polygon fill="#9a32cd" stroke="#9a32cd" points="386.57,-824.174 384.924,-813.708 379.684,-822.916 386.57,-824.174"/>
<text text-anchor="middle" x="397" y="-836" font-family="FreeSans" font-size="10.00"> EMPTY</text>
</g>
<!-- Node20&#45;&gt;Node1 -->
<g id="edge50" class="edge"><title>Node20&#45;&gt;Node1</title>
<path fill="none" stroke="#9a32cd" stroke-dasharray="5,2" d="M934.364,-93.5249C1081.03,-94.4949 1392.59,-96.5555 1535.95,-97.5036"/>
<polygon fill="#9a32cd" stroke="#9a32cd" points="934.117,-90.0233 924.094,-93.457 934.071,-97.0231 934.117,-90.0233"/>
<text text-anchor="middle" x="1179" y="-100" font-family="FreeSans" font-size="10.00"> eventFrames_</text>
</g>
<!-- Node21&#45;&gt;Node1 -->
<g id="edge54" class="edge"><title>Node21&#45;&gt;Node1</title>
<path fill="none" stroke="#9a32cd" stroke-dasharray="5,2" d="M1258.16,-58.2289C1303.29,-61.4315 1360.86,-65.8915 1412,-71 1459.23,-75.718 1470.97,-77.5777 1518,-84 1525.93,-85.0825 1534.23,-86.2636 1542.47,-87.4658"/>
<polygon fill="#9a32cd" stroke="#9a32cd" points="1258.37,-54.7347 1248.14,-57.5241 1257.87,-61.7174 1258.37,-54.7347"/>
<text text-anchor="middle" x="1339" y="-75" font-family="FreeSans" font-size="10.00"> keyFrames_</text>
</g>
<!-- Node22&#45;&gt;Node1 -->
<g id="edge58" class="edge"><title>Node22&#45;&gt;Node1</title>
<path fill="none" stroke="#9a32cd" stroke-dasharray="5,2" d="M1422.17,-820.738C1456.62,-815.382 1494.05,-803.028 1518,-776 1564.54,-723.484 1604.39,-190.475 1610.26,-108.546"/>
<polygon fill="#9a32cd" stroke="#9a32cd" points="1421.5,-817.297 1412.07,-822.127 1422.45,-824.232 1421.5,-817.297"/>
<text text-anchor="middle" x="1474" y="-823" font-family="FreeSans" font-size="10.00"> objectAnimation_</text>
</g>
<!-- Node23&#45;&gt;Node22 -->
<g id="edge60" class="edge"><title>Node23&#45;&gt;Node22</title>
<path fill="none" stroke="#9a32cd" stroke-dasharray="5,2" d="M1098.87,-823C1150.12,-823 1216.14,-823 1265.99,-823"/>
<polygon fill="#9a32cd" stroke="#9a32cd" points="1098.83,-819.5 1088.83,-823 1098.83,-826.5 1098.83,-819.5"/>
<text text-anchor="middle" x="1179" y="-827" font-family="FreeSans" font-size="10.00"> ptr_</text>
</g>
<!-- Node24 -->
<g id="node55" class="node"><title>Node24</title>
<a xlink:href="a00175.html" target="_top" xlink:title="Urho3D::HashMap\&lt; Urho3D\l::String, Urho3D::SharedPtr\l\&lt; Urho3D::AttributeAnimationInfo \&gt; \&gt;">
<polygon fill="none" stroke="red" points="557.5,-814.5 557.5,-861.5 758.5,-861.5 758.5,-814.5 557.5,-814.5"/>
<text text-anchor="start" x="565.5" y="-848.5" font-family="FreeSans" font-size="10.00">Urho3D::HashMap&lt; Urho3D</text>
<text text-anchor="start" x="565.5" y="-835.5" font-family="FreeSans" font-size="10.00">::String, Urho3D::SharedPtr</text>
<text text-anchor="middle" x="658" y="-822.5" font-family="FreeSans" font-size="10.00">&lt; Urho3D::AttributeAnimationInfo &gt; &gt;</text>
</a>
</g>
<!-- Node24&#45;&gt;Node23 -->
<g id="edge64" class="edge"><title>Node24&#45;&gt;Node23</title>
<path fill="none" stroke="#9a32cd" stroke-dasharray="5,2" d="M768.649,-833.402C827.498,-830.957 898.061,-828.025 949.252,-825.898"/>
<polygon fill="#9a32cd" stroke="#9a32cd" points="768.405,-829.909 758.559,-833.822 768.695,-836.903 768.405,-829.909"/>
<text text-anchor="middle" x="855" y="-836" font-family="FreeSans" font-size="10.00"> attributeAnimationInfos_</text>
</g>
<!-- Node25&#45;&gt;Node1 -->
<g id="edge68" class="edge"><title>Node25&#45;&gt;Node1</title>
<path fill="none" stroke="#9a32cd" stroke-dasharray="5,2" d="M938.5,-6.98054C1018.24,-4.24121 1141.65,-2.86831 1248,-14 1369.8,-26.7491 1399.39,-38.5104 1518,-69 1538.8,-74.3476 1561.85,-81.5265 1579.8,-87.4037"/>
<polygon fill="#9a32cd" stroke="#9a32cd" points="937.897,-3.49983 928.029,-7.35676 938.149,-10.4953 937.897,-3.49983"/>
<text text-anchor="middle" x="1179" y="-18" font-family="FreeSans" font-size="10.00"> splineTangents_</text>
</g>
</g>
</svg>
        <g id="navigator" transform="translate(0 0)" fill="#404254">
                <rect fill="#f2f5e9" fill-opacity="0.5" stroke="#606060" stroke-width=".5" x="0" y="0" width="60" height="60"/>
                <use id="zoomplus" xlink:href="#zoomPlus" x="17" y="9" onmousedown="handleZoom(evt,'in')"/>
                <use id="zoomminus" xlink:href="#zoomMin" x="42" y="9" onmousedown="handleZoom(evt,'out')"/>
                <use id="reset" xlink:href="#resetDef" x="30" y="36" onmousedown="handleReset()"/>
                <g id="arrowUp" xlink:href="#dirArrow" transform="translate(30 24)" onmousedown="handlePan(0,-1)">
                  <use xlink:href="#rim" fill="#404040">
                        <set attributeName="fill" to="#808080" begin="arrowUp.mouseover" end="arrowUp.mouseout"/>
                  </use>
                  <path fill="none" stroke="white" stroke-width="1.5" d="M0,-3.0v7 M-2.5,-0.5L0,-3.0L2.5,-0.5"/>
                </g>
                <g id="arrowRight" xlink:href="#dirArrow" transform="rotate(90) translate(36 -43)" onmousedown="handlePan(1,0)">
                  <use xlink:href="#rim" fill="#404040">
                        <set attributeName="fill" to="#808080" begin="arrowRight.mouseover" end="arrowRight.mouseout"/>
                  </use>
                  <path fill="none" stroke="white" stroke-width="1.5" d="M0,-3.0v7 M-2.5,-0.5L0,-3.0L2.5,-0.5"/>
                </g>
                <g id="arrowDown" xlink:href="#dirArrow" transform="rotate(180) translate(-30 -48)" onmousedown="handlePan(0,1)">
                  <use xlink:href="#rim" fill="#404040">
                        <set attributeName="fill" to="#808080" begin="arrowDown.mouseover" end="arrowDown.mouseout"/>
                  </use>
                  <path fill="none" stroke="white" stroke-width="1.5" d="M0,-3.0v7 M-2.5,-0.5L0,-3.0L2.5,-0.5"/>
                </g>
                <g id="arrowLeft" xlink:href="#dirArrow" transform="rotate(270) translate(-36 17)" onmousedown="handlePan(-1,0)">
                  <use xlink:href="#rim" fill="#404040">
                        <set attributeName="fill" to="#808080" begin="arrowLeft.mouseover" end="arrowLeft.mouseout"/>
                  </use>
                  <path fill="none" stroke="white" stroke-width="1.5" d="M0,-3.0v7 M-2.5,-0.5L0,-3.0L2.5,-0.5"/>
                </g>
        </g>
        <svg viewBox="0 0 15 15" width="100%" height="30px" preserveAspectRatio="xMaxYMin meet">
         <g id="arrow_out" transform="scale(0.3 0.3)">
          <a xlink:href="a01459_org.svg" target="_base">
           <rect id="button" ry="5" rx="5" y="6" x="6" height="38" width="38"
                fill="#f2f5e9" fill-opacity="0.5" stroke="#606060" stroke-width="1.0"/>
           <path id="arrow"
             d="M 11.500037,31.436501 C 11.940474,20.09759 22.043105,11.32322 32.158766,21.979434 L 37.068811,17.246167 C 37.068811,17.246167 37.088388,32 37.088388,32 L 22.160133,31.978069 C 22.160133,31.978069 26.997745,27.140456 26.997745,27.140456 C 18.528582,18.264221 13.291696,25.230495 11.500037,31.436501 z"
             style="fill:#404040;"/>
          </a>
         </g>
        </svg>
</svg>
