<?xml version="1.0" encoding="UTF-8" standalone="no"?>
<!DOCTYPE svg PUBLIC "-//W3C//DTD SVG 1.1//EN"
 "http://www.w3.org/Graphics/SVG/1.1/DTD/svg11.dtd">
<!-- Generated by graphviz version 2.26.3 (20100126.1600)
 -->
<!-- Title: Urho3D::AttributeAnimationInfo Pages: 1 -->
<!--zoomable 742 -->
<svg id="main" version="1.1" xmlns="http://www.w3.org/2000/svg" xmlns:xlink="http://www.w3.org/1999/xlink" xml:space="preserve" onload="init(evt)">
        <defs>
                <circle id="rim" cx="0" cy="0" r="7"/>
                <circle id="rim2" cx="0" cy="0" r="3.5"/>
                <g id="zoomPlus">
                        <use xlink:href="#rim" fill="#404040">
                                <set attributeName="fill" to="#808080" begin="zoomplus.mouseover" end="zoomplus.mouseout"/>
                        </use>
                        <path d="M-4,0h8M0,-4v8" fill="none" stroke="white" stroke-width="1.5" pointer-events="none"/>
                </g>
                <g id="zoomMin">
                        <use xlink:href="#rim" fill="#404040">
                                <set attributeName="fill" to="#808080" begin="zoomminus.mouseover" end="zoomminus.mouseout"/>
                        </use>
                        <path d="M-4,0h8" fill="none" stroke="white" stroke-width="1.5" pointer-events="none"/>
                </g>
                <g id="dirArrow">
                        <path fill="none" stroke="white" stroke-width="1.5" d="M0,-3.0v7 M-2.5,-0.5L0,-3.0L2.5,-0.5"/>
                </g>
               <g id="resetDef">
                       <use xlink:href="#rim2" fill="#404040">
                               <set attributeName="fill" to="#808080" begin="reset.mouseover" end="reset.mouseout"/>
                       </use>
               </g>
        </defs>

<script type="text/javascript">
var viewWidth = 2014;
var viewHeight = 742;
var sectionId = 'dynsection-1';
</script>
<script xlink:href="svgpan.js"/>
<svg id="graph" class="graph">
<g id="viewport">
<title>Urho3D::AttributeAnimationInfo</title>
<!-- Node1 -->
<g id="node1" class="node"><title>Node1</title>
<polygon fill="#bfbfbf" stroke="black" points="1838.5,-473.155 1838.5,-494.155 2005.5,-494.155 2005.5,-473.155 1838.5,-473.155"/>
<text text-anchor="middle" x="1922" y="-481.155" font-family="FreeSans" font-size="10.00">Urho3D::AttributeAnimationInfo</text>
</g>
<!-- Node2 -->
<g id="node2" class="node"><title>Node2</title>
<a xlink:href="a00369.html" target="_top" xlink:title="Base class for a value animation instance, which includes animation runtime information and updates t...">
<polygon fill="none" stroke="black" points="1648,-514.155 1648,-535.155 1800,-535.155 1800,-514.155 1648,-514.155"/>
<text text-anchor="middle" x="1724" y="-522.155" font-family="FreeSans" font-size="10.00">Urho3D::ValueAnimationInfo</text>
</a>
</g>
<!-- Node2&#45;&gt;Node1 -->
<g id="edge2" class="edge"><title>Node2&#45;&gt;Node1</title>
<path fill="none" stroke="midnightblue" d="M1784.69,-512.088C1812.33,-506.363 1844.69,-499.662 1871.06,-494.204"/>
<polygon fill="midnightblue" stroke="midnightblue" points="1783.82,-508.694 1774.73,-514.149 1785.23,-515.549 1783.82,-508.694"/>
</g>
<!-- Node3 -->
<g id="node4" class="node"><title>Node3</title>
<a xlink:href="a00283.html" target="_top" xlink:title="Base class for intrusively reference&#45;counted objects. These are noncopyable and non&#45;assignable.">
<polygon fill="none" stroke="black" points="188,-573.155 188,-594.155 302,-594.155 302,-573.155 188,-573.155"/>
<text text-anchor="middle" x="245" y="-581.155" font-family="FreeSans" font-size="10.00">Urho3D::RefCounted</text>
</a>
</g>
<!-- Node3&#45;&gt;Node2 -->
<g id="edge4" class="edge"><title>Node3&#45;&gt;Node2</title>
<path fill="none" stroke="midnightblue" d="M282.652,-569.73C316.326,-558.531 367.277,-544.655 413,-544.655 413,-544.655 413,-544.655 1479,-544.655 1535.76,-544.655 1599.67,-539.256 1647.98,-534.069"/>
<polygon fill="midnightblue" stroke="midnightblue" points="281.113,-566.556 272.781,-573.101 283.375,-573.181 281.113,-566.556"/>
</g>
<!-- Node6 -->
<g id="node10" class="node"><title>Node6</title>
<a xlink:href="a00241.html" target="_top" xlink:title="Base class for objects with type identification, subsystem access and event sending/receiving capabil...">
<polygon fill="none" stroke="black" points="668,-612.155 668,-633.155 758,-633.155 758,-612.155 668,-612.155"/>
<text text-anchor="middle" x="713" y="-620.155" font-family="FreeSans" font-size="10.00">Urho3D::Object</text>
</a>
</g>
<!-- Node3&#45;&gt;Node6 -->
<g id="edge12" class="edge"><title>Node3&#45;&gt;Node6</title>
<path fill="none" stroke="midnightblue" d="M261.677,-601.843C279.194,-619.48 308.53,-645.076 340,-655.655 470.695,-699.585 514.797,-670.695 650,-643.655 662.097,-641.235 675.087,-637.17 686.111,-633.257"/>
<polygon fill="midnightblue" stroke="midnightblue" points="263.951,-599.159 254.495,-594.382 258.908,-604.014 263.951,-599.159"/>
</g>
<!-- Node7 -->
<g id="node13" class="node"><title>Node7</title>
<a xlink:href="a00125.html" target="_top" xlink:title="Urho3D execution context. Provides access to subsystems, object factories and attributes, and event receivers.">
<polygon fill="none" stroke="red" points="364.5,-573.155 364.5,-594.155 461.5,-594.155 461.5,-573.155 364.5,-573.155"/>
<text text-anchor="middle" x="413" y="-581.155" font-family="FreeSans" font-size="10.00">Urho3D::Context</text>
</a>
</g>
<!-- Node3&#45;&gt;Node7 -->
<g id="edge16" class="edge"><title>Node3&#45;&gt;Node7</title>
<path fill="none" stroke="midnightblue" d="M312.425,-583.655C329.777,-583.655 348.111,-583.655 364.305,-583.655"/>
<polygon fill="midnightblue" stroke="midnightblue" points="312.346,-580.155 302.346,-583.655 312.346,-587.155 312.346,-580.155"/>
</g>
<!-- Node25 -->
<g id="node55" class="node"><title>Node25</title>
<a xlink:href="a00069.html" target="_top" xlink:title="Internal helper class for invoking attribute accessors.">
<polygon fill="none" stroke="black" points="504.5,-258.155 504.5,-279.155 649.5,-279.155 649.5,-258.155 504.5,-258.155"/>
<text text-anchor="middle" x="577" y="-266.155" font-family="FreeSans" font-size="10.00">Urho3D::AttributeAccessor</text>
</a>
</g>
<!-- Node3&#45;&gt;Node25 -->
<g id="edge64" class="edge"><title>Node3&#45;&gt;Node25</title>
<path fill="none" stroke="midnightblue" d="M263.852,-565.767C325.021,-507.731 516.827,-325.746 565.62,-279.452"/>
<polygon fill="midnightblue" stroke="midnightblue" points="261.274,-563.39 256.428,-572.812 266.092,-568.468 261.274,-563.39"/>
</g>
<!-- Node4 -->
<g id="node6" class="node"><title>Node4</title>
<a xlink:href="a00282.html" target="_top" xlink:title="Reference count structure.">
<polygon fill="none" stroke="black" points="0,-669.155 0,-690.155 102,-690.155 102,-669.155 0,-669.155"/>
<text text-anchor="middle" x="51" y="-677.155" font-family="FreeSans" font-size="10.00">Urho3D::RefCount</text>
</a>
</g>
<!-- Node4&#45;&gt;Node3 -->
<g id="edge6" class="edge"><title>Node4&#45;&gt;Node3</title>
<path fill="none" stroke="#9a32cd" stroke-dasharray="5,2" d="M81.9455,-664.341C121.614,-644.712 189.357,-611.189 223.697,-594.196"/>
<polygon fill="#9a32cd" stroke="#9a32cd" points="79.913,-661.442 72.5026,-669.014 83.0176,-667.716 79.913,-661.442"/>
<text text-anchor="middle" x="145" y="-646.655" font-family="FreeSans" font-size="10.00"> refCount_</text>
</g>
<!-- Node5 -->
<g id="node8" class="node"><title>Node5</title>
<a xlink:href="a00388.html" target="_top" xlink:title="Urho3D::WeakPtr\&lt; Urho3D\l::Object \&gt;">
<polygon fill="none" stroke="black" points="840,-605.655 840,-639.655 986,-639.655 986,-605.655 840,-605.655"/>
<text text-anchor="start" x="848" y="-626.655" font-family="FreeSans" font-size="10.00">Urho3D::WeakPtr&lt; Urho3D</text>
<text text-anchor="middle" x="913" y="-613.655" font-family="FreeSans" font-size="10.00">::Object &gt;</text>
</a>
</g>
<!-- Node4&#45;&gt;Node5 -->
<g id="edge20" class="edge"><title>Node4&#45;&gt;Node5</title>
<path fill="none" stroke="#9a32cd" stroke-dasharray="5,2" d="M91.3713,-693.313C130.253,-705.239 190.963,-720.655 245,-720.655 245,-720.655 245,-720.655 713,-720.655 785.693,-720.655 859.48,-667.802 893.55,-639.725"/>
<polygon fill="#9a32cd" stroke="#9a32cd" points="92.08,-689.867 81.4908,-690.213 89.9844,-696.546 92.08,-689.867"/>
<text text-anchor="middle" x="413" y="-724.655" font-family="FreeSans" font-size="10.00"> refCount_</text>
</g>
<!-- Node5&#45;&gt;Node2 -->
<g id="edge8" class="edge"><title>Node5&#45;&gt;Node2</title>
<path fill="none" stroke="#9a32cd" stroke-dasharray="5,2" d="M996.455,-622.146C1131.27,-619.782 1404.65,-608.584 1630,-558.655 1654.57,-553.211 1681.46,-543.026 1700.16,-535.218"/>
<polygon fill="#9a32cd" stroke="#9a32cd" points="996.145,-618.65 986.203,-622.313 996.259,-625.649 996.145,-618.65"/>
<text text-anchor="middle" x="1352" y="-607.655" font-family="FreeSans" font-size="10.00"> target_</text>
</g>
<!-- Node6&#45;&gt;Node5 -->
<g id="edge10" class="edge"><title>Node6&#45;&gt;Node5</title>
<path fill="none" stroke="#9a32cd" stroke-dasharray="5,2" d="M768.582,-622.655C790.67,-622.655 816.388,-622.655 839.949,-622.655"/>
<polygon fill="#9a32cd" stroke="#9a32cd" points="768.383,-619.155 758.383,-622.655 768.383,-626.155 768.383,-619.155"/>
<text text-anchor="middle" x="795" y="-626.655" font-family="FreeSans" font-size="10.00"> ptr_</text>
</g>
<!-- Node11 -->
<g id="node23" class="node"><title>Node11</title>
<a xlink:href="a00291.html" target="_top" xlink:title="Base class for resources.">
<polygon fill="none" stroke="red" points="861.5,-495.155 861.5,-516.155 964.5,-516.155 964.5,-495.155 861.5,-495.155"/>
<text text-anchor="middle" x="913" y="-503.155" font-family="FreeSans" font-size="10.00">Urho3D::Resource</text>
</a>
</g>
<!-- Node6&#45;&gt;Node11 -->
<g id="edge28" class="edge"><title>Node6&#45;&gt;Node11</title>
<path fill="none" stroke="midnightblue" d="M739.815,-606.968C781.162,-582.78 859.401,-537.01 894.795,-516.304"/>
<polygon fill="midnightblue" stroke="midnightblue" points="737.966,-603.995 731.101,-612.065 741.5,-610.037 737.966,-603.995"/>
</g>
<!-- Node7&#45;&gt;Node6 -->
<g id="edge14" class="edge"><title>Node7&#45;&gt;Node6</title>
<path fill="none" stroke="#9a32cd" stroke-dasharray="5,2" d="M472.099,-586.889C520.25,-590.122 589.865,-596.163 650,-606.655 658.338,-608.109 667.197,-610.085 675.557,-612.151"/>
<polygon fill="#9a32cd" stroke="#9a32cd" points="472.065,-583.379 461.858,-586.221 471.61,-590.364 472.065,-583.379"/>
<text text-anchor="middle" x="577" y="-610.655" font-family="FreeSans" font-size="10.00"> context_</text>
</g>
<!-- Node8 -->
<g id="node16" class="node"><title>Node8</title>
<a xlink:href="a00202.html" target="_top" xlink:title="Urho3D::LinkedList\l\&lt; Urho3D::EventHandler \&gt;">
<polygon fill="none" stroke="red" points="340,-612.655 340,-646.655 486,-646.655 486,-612.655 340,-612.655"/>
<text text-anchor="start" x="348" y="-633.655" font-family="FreeSans" font-size="10.00">Urho3D::LinkedList</text>
<text text-anchor="middle" x="413" y="-620.655" font-family="FreeSans" font-size="10.00">&lt; Urho3D::EventHandler &gt;</text>
</a>
</g>
<!-- Node8&#45;&gt;Node6 -->
<g id="edge18" class="edge"><title>Node8&#45;&gt;Node6</title>
<path fill="none" stroke="#9a32cd" stroke-dasharray="5,2" d="M496.172,-627.714C551.628,-626.42 622.402,-624.768 667.722,-623.711"/>
<polygon fill="#9a32cd" stroke="#9a32cd" points="495.92,-624.219 486.005,-627.951 496.084,-631.217 495.92,-624.219"/>
<text text-anchor="middle" x="577" y="-630.655" font-family="FreeSans" font-size="10.00"> eventHandlers_</text>
</g>
<!-- Node9 -->
<g id="node19" class="node"><title>Node9</title>
<a xlink:href="a00321.html" target="_top" xlink:title="Urho3D::SharedPtr\&lt;\l Urho3D::ValueAnimation \&gt;">
<polygon fill="none" stroke="black" points="1404.5,-465.655 1404.5,-499.655 1553.5,-499.655 1553.5,-465.655 1404.5,-465.655"/>
<text text-anchor="start" x="1412.5" y="-486.655" font-family="FreeSans" font-size="10.00">Urho3D::SharedPtr&lt;</text>
<text text-anchor="middle" x="1479" y="-473.655" font-family="FreeSans" font-size="10.00"> Urho3D::ValueAnimation &gt;</text>
</a>
</g>
<!-- Node9&#45;&gt;Node2 -->
<g id="edge22" class="edge"><title>Node9&#45;&gt;Node2</title>
<path fill="none" stroke="#9a32cd" stroke-dasharray="5,2" d="M1563.48,-497.136C1596.05,-502.721 1632.61,-508.988 1662.61,-514.13"/>
<polygon fill="#9a32cd" stroke="#9a32cd" points="1563.95,-493.667 1553.51,-495.427 1562.77,-500.566 1563.95,-493.667"/>
<text text-anchor="middle" x="1601" y="-511.655" font-family="FreeSans" font-size="10.00"> animation_</text>
</g>
<!-- Node10 -->
<g id="node21" class="node"><title>Node10</title>
<a xlink:href="a00368.html" target="_top" xlink:title="Value animation class.">
<polygon fill="none" stroke="black" points="1153,-455.155 1153,-476.155 1287,-476.155 1287,-455.155 1153,-455.155"/>
<text text-anchor="middle" x="1220" y="-463.155" font-family="FreeSans" font-size="10.00">Urho3D::ValueAnimation</text>
</a>
</g>
<!-- Node10&#45;&gt;Node9 -->
<g id="edge24" class="edge"><title>Node10&#45;&gt;Node9</title>
<path fill="none" stroke="#9a32cd" stroke-dasharray="5,2" d="M1297.36,-470.732C1331.27,-472.958 1370.91,-475.56 1404.49,-477.764"/>
<polygon fill="#9a32cd" stroke="#9a32cd" points="1297.24,-467.217 1287.04,-470.055 1296.79,-474.202 1297.24,-467.217"/>
<text text-anchor="middle" x="1352" y="-480.655" font-family="FreeSans" font-size="10.00"> ptr_</text>
</g>
<!-- Node11&#45;&gt;Node10 -->
<g id="edge26" class="edge"><title>Node11&#45;&gt;Node10</title>
<path fill="none" stroke="midnightblue" d="M974.648,-499.886C1016.33,-495.737 1072.58,-489.653 1122,-482.655 1135.25,-480.778 1149.46,-478.48 1162.83,-476.187"/>
<polygon fill="midnightblue" stroke="midnightblue" points="974.254,-496.408 964.646,-500.873 974.941,-503.374 974.254,-496.408"/>
</g>
<!-- Node12 -->
<g id="node26" class="node"><title>Node12</title>
<a xlink:href="a00344.html" target="_top" xlink:title="String class.">
<polygon fill="none" stroke="black" points="669,-191.155 669,-212.155 757,-212.155 757,-191.155 669,-191.155"/>
<text text-anchor="middle" x="713" y="-199.155" font-family="FreeSans" font-size="10.00">Urho3D::String</text>
</a>
</g>
<!-- Node12&#45;&gt;Node11 -->
<g id="edge30" class="edge"><title>Node12&#45;&gt;Node11</title>
<path fill="none" stroke="#9a32cd" stroke-dasharray="5,2" d="M715.379,-222.522C722.531,-275.195 748.766,-414.396 832,-485.655 840.252,-492.72 850.622,-497.362 861.159,-500.394"/>
<polygon fill="#9a32cd" stroke="#9a32cd" points="718.824,-221.868 714.098,-212.386 711.879,-222.746 718.824,-221.868"/>
<text text-anchor="middle" x="795" y="-466.655" font-family="FreeSans" font-size="10.00"> name_</text>
</g>
<!-- Node12&#45;&gt;Node12 -->
<g id="edge32" class="edge"><title>Node12&#45;&gt;Node12</title>
<path fill="none" stroke="#9a32cd" stroke-dasharray="5,2" d="M697.983,-222.448C699.308,-227.184 704.314,-230.655 713,-230.655 727.254,-230.655 731.597,-221.308 726.029,-212.362"/>
<polygon fill="#9a32cd" stroke="#9a32cd" points="701.471,-222.851 699.971,-212.362 694.603,-221.497 701.471,-222.851"/>
<text text-anchor="middle" x="713" y="-234.655" font-family="FreeSans" font-size="10.00"> EMPTY</text>
</g>
<!-- Node16 -->
<g id="node35" class="node"><title>Node16</title>
<a xlink:href="a00072.html" target="_top" xlink:title="Description of an automatically serializable variable.">
<polygon fill="none" stroke="black" points="1419.5,-101.155 1419.5,-122.155 1538.5,-122.155 1538.5,-101.155 1419.5,-101.155"/>
<text text-anchor="middle" x="1479" y="-109.155" font-family="FreeSans" font-size="10.00">Urho3D::AttributeInfo</text>
</a>
</g>
<!-- Node12&#45;&gt;Node16 -->
<g id="edge66" class="edge"><title>Node12&#45;&gt;Node16</title>
<path fill="none" stroke="#9a32cd" stroke-dasharray="5,2" d="M725.786,-182.741C745.12,-156.038 784.611,-108.448 832,-89.6545 937.651,-47.7558 1280.2,-85.7919 1419.38,-103.611"/>
<polygon fill="#9a32cd" stroke="#9a32cd" points="722.919,-180.733 720.02,-190.924 728.641,-184.765 722.919,-180.733"/>
<text text-anchor="middle" x="1067" y="-78.6545" font-family="FreeSans" font-size="10.00"> name_</text>
</g>
<!-- Node20 -->
<g id="node44" class="node"><title>Node20</title>
<a xlink:href="a00294.html" target="_top" xlink:title="Typed resource reference.">
<polygon fill="none" stroke="red" points="854.5,-191.155 854.5,-212.155 971.5,-212.155 971.5,-191.155 854.5,-191.155"/>
<text text-anchor="middle" x="913" y="-199.155" font-family="FreeSans" font-size="10.00">Urho3D::ResourceRef</text>
</a>
</g>
<!-- Node12&#45;&gt;Node20 -->
<g id="edge52" class="edge"><title>Node12&#45;&gt;Node20</title>
<path fill="none" stroke="#9a32cd" stroke-dasharray="5,2" d="M767.405,-201.655C794.318,-201.655 826.838,-201.655 854.311,-201.655"/>
<polygon fill="#9a32cd" stroke="#9a32cd" points="767.387,-198.155 757.386,-201.655 767.386,-205.155 767.387,-198.155"/>
<text text-anchor="middle" x="795" y="-205.655" font-family="FreeSans" font-size="10.00"> name_</text>
</g>
<!-- Node13 -->
<g id="node29" class="node"><title>Node13</title>
<a xlink:href="a00375.html" target="_top" xlink:title="Urho3D::Vector\&lt; Variant \&gt;">
<polygon fill="none" stroke="red" points="840,-455.155 840,-476.155 986,-476.155 986,-455.155 840,-455.155"/>
<text text-anchor="middle" x="913" y="-463.155" font-family="FreeSans" font-size="10.00">Urho3D::Vector&lt; Variant &gt;</text>
</a>
</g>
<!-- Node13&#45;&gt;Node10 -->
<g id="edge34" class="edge"><title>Node13&#45;&gt;Node10</title>
<path fill="none" stroke="#9a32cd" stroke-dasharray="5,2" d="M996.436,-465.655C1045.58,-465.655 1106.93,-465.655 1152.92,-465.655"/>
<polygon fill="#9a32cd" stroke="#9a32cd" points="996.144,-462.155 986.144,-465.655 996.144,-469.155 996.144,-462.155"/>
<text text-anchor="middle" x="1067" y="-469.655" font-family="FreeSans" font-size="10.00"> splineTangents_</text>
</g>
<!-- Node14 -->
<g id="node31" class="node"><title>Node14</title>
<a xlink:href="a00269.html" target="_top" xlink:title="Urho3D::PODVector\&lt;\l Urho3D::VAnimKeyFrame \&gt;">
<polygon fill="none" stroke="red" points="837.5,-402.655 837.5,-436.655 988.5,-436.655 988.5,-402.655 837.5,-402.655"/>
<text text-anchor="start" x="845.5" y="-423.655" font-family="FreeSans" font-size="10.00">Urho3D::PODVector&lt;</text>
<text text-anchor="middle" x="913" y="-410.655" font-family="FreeSans" font-size="10.00"> Urho3D::VAnimKeyFrame &gt;</text>
</a>
</g>
<!-- Node14&#45;&gt;Node10 -->
<g id="edge36" class="edge"><title>Node14&#45;&gt;Node10</title>
<path fill="none" stroke="#9a32cd" stroke-dasharray="5,2" d="M998.521,-430.855C1036.4,-435.987 1081.47,-442.328 1122,-448.655 1134.71,-450.638 1148.32,-452.907 1161.24,-455.127"/>
<polygon fill="#9a32cd" stroke="#9a32cd" points="998.925,-427.378 988.547,-429.509 997.989,-434.315 998.925,-427.378"/>
<text text-anchor="middle" x="1067" y="-452.655" font-family="FreeSans" font-size="10.00"> keyFrames_</text>
</g>
<!-- Node15 -->
<g id="node33" class="node"><title>Node15</title>
<a xlink:href="a00269.html" target="_top" xlink:title="Urho3D::PODVector\&lt;\l Urho3D::VAnimEventFrame \&gt;">
<polygon fill="none" stroke="red" points="832.5,-350.655 832.5,-384.655 993.5,-384.655 993.5,-350.655 832.5,-350.655"/>
<text text-anchor="start" x="840.5" y="-371.655" font-family="FreeSans" font-size="10.00">Urho3D::PODVector&lt;</text>
<text text-anchor="middle" x="913" y="-358.655" font-family="FreeSans" font-size="10.00"> Urho3D::VAnimEventFrame &gt;</text>
</a>
</g>
<!-- Node15&#45;&gt;Node10 -->
<g id="edge38" class="edge"><title>Node15&#45;&gt;Node10</title>
<path fill="none" stroke="#9a32cd" stroke-dasharray="5,2" d="M1003.51,-384.055C1040.78,-392.044 1084.04,-402.927 1122,-416.655 1151.16,-427.198 1182.92,-444.18 1202.14,-455.127"/>
<polygon fill="#9a32cd" stroke="#9a32cd" points="1004.17,-380.619 993.668,-381.983 1002.73,-387.469 1004.17,-380.619"/>
<text text-anchor="middle" x="1067" y="-420.655" font-family="FreeSans" font-size="10.00"> eventFrames_</text>
</g>
<!-- Node16&#45;&gt;Node1 -->
<g id="edge40" class="edge"><title>Node16&#45;&gt;Node1</title>
<path fill="none" stroke="#9a32cd" stroke-dasharray="5,2" d="M1499.85,-129.166C1577.29,-194.189 1847.04,-420.705 1909.17,-472.879"/>
<polygon fill="#9a32cd" stroke="#9a32cd" points="1501.69,-126.137 1491.78,-122.387 1497.19,-131.498 1501.69,-126.137"/>
<text text-anchor="middle" x="1724" y="-384.655" font-family="FreeSans" font-size="10.00"> attributeInfo_</text>
</g>
<!-- Node17 -->
<g id="node37" class="node"><title>Node17</title>
<a xlink:href="a00373.html" target="_top" xlink:title="Variable that supports a fixed set of types.">
<polygon fill="none" stroke="black" points="1173.5,-191.155 1173.5,-212.155 1266.5,-212.155 1266.5,-191.155 1173.5,-191.155"/>
<text text-anchor="middle" x="1220" y="-199.155" font-family="FreeSans" font-size="10.00">Urho3D::Variant</text>
</a>
</g>
<!-- Node17&#45;&gt;Node16 -->
<g id="edge42" class="edge"><title>Node17&#45;&gt;Node16</title>
<path fill="none" stroke="#9a32cd" stroke-dasharray="5,2" d="M1259.77,-187.833C1311.76,-169.769 1401.69,-138.52 1448.57,-122.227"/>
<polygon fill="#9a32cd" stroke="#9a32cd" points="1258.51,-184.566 1250.22,-191.154 1260.81,-191.178 1258.51,-184.566"/>
<text text-anchor="middle" x="1352" y="-171.655" font-family="FreeSans" font-size="10.00"> defaultValue_</text>
</g>
<!-- Node17&#45;&gt;Node17 -->
<g id="edge48" class="edge"><title>Node17&#45;&gt;Node17</title>
<path fill="none" stroke="#9a32cd" stroke-dasharray="5,2" d="M1195.67,-222.081C1197.55,-227.003 1205.66,-230.655 1220,-230.655 1242.95,-230.655 1249.94,-221.308 1240.97,-212.362"/>
<polygon fill="#9a32cd" stroke="#9a32cd" points="1199.07,-222.957 1199.03,-212.362 1192.46,-220.674 1199.07,-222.957"/>
<text text-anchor="middle" x="1220" y="-234.655" font-family="FreeSans" font-size="10.00"> EMPTY</text>
</g>
<!-- Node18 -->
<g id="node39" class="node"><title>Node18</title>
<a xlink:href="a00375.html" target="_top" xlink:title="Vector template class.">
<polygon fill="none" stroke="red" points="854,-231.155 854,-252.155 972,-252.155 972,-231.155 854,-231.155"/>
<text text-anchor="middle" x="913" y="-239.155" font-family="FreeSans" font-size="10.00">Urho3D::Vector&lt; T &gt;</text>
</a>
</g>
<!-- Node18&#45;&gt;Node17 -->
<g id="edge44" class="edge"><title>Node18&#45;&gt;Node17</title>
<path fill="none" stroke="#9a32cd" stroke-dasharray="5,2" d="M982.23,-235.126C1023,-231.01 1075.52,-225.237 1122,-218.655 1138.76,-216.282 1157.04,-213.234 1173.24,-210.376"/>
<polygon fill="#9a32cd" stroke="#9a32cd" points="981.732,-231.658 972.13,-236.136 982.428,-238.624 981.732,-231.658"/>
<text text-anchor="middle" x="1067" y="-236.655" font-family="FreeSans" font-size="10.00"> emptyVariantVector</text>
</g>
<!-- Node19 -->
<g id="node41" class="node"><title>Node19</title>
<a xlink:href="a00269.html" target="_top" xlink:title="Urho3D::PODVector\&lt;\l unsigned char \&gt;">
<polygon fill="none" stroke="red" points="853.5,-138.655 853.5,-172.655 972.5,-172.655 972.5,-138.655 853.5,-138.655"/>
<text text-anchor="start" x="861.5" y="-159.655" font-family="FreeSans" font-size="10.00">Urho3D::PODVector&lt;</text>
<text text-anchor="middle" x="913" y="-146.655" font-family="FreeSans" font-size="10.00"> unsigned char &gt;</text>
</a>
</g>
<!-- Node19&#45;&gt;Node17 -->
<g id="edge46" class="edge"><title>Node19&#45;&gt;Node17</title>
<path fill="none" stroke="#9a32cd" stroke-dasharray="5,2" d="M982.62,-164.714C1023.31,-170.158 1075.62,-177.416 1122,-184.655 1138.72,-187.264 1157,-190.367 1173.2,-193.203"/>
<polygon fill="#9a32cd" stroke="#9a32cd" points="982.911,-161.222 972.537,-163.37 981.986,-168.161 982.911,-161.222"/>
<text text-anchor="middle" x="1067" y="-188.655" font-family="FreeSans" font-size="10.00"> emptyBuffer</text>
</g>
<!-- Node20&#45;&gt;Node17 -->
<g id="edge50" class="edge"><title>Node20&#45;&gt;Node17</title>
<path fill="none" stroke="#9a32cd" stroke-dasharray="5,2" d="M982.079,-201.655C1040.47,-201.655 1122.51,-201.655 1173.41,-201.655"/>
<polygon fill="#9a32cd" stroke="#9a32cd" points="981.829,-198.155 971.829,-201.655 981.829,-205.155 981.829,-198.155"/>
<text text-anchor="middle" x="1067" y="-205.655" font-family="FreeSans" font-size="10.00"> emptyResourceRef</text>
</g>
<!-- Node21 -->
<g id="node47" class="node"><title>Node21</title>
<a xlink:href="a00295.html" target="_top" xlink:title="List of typed resource references.">
<polygon fill="none" stroke="red" points="846,-99.1545 846,-120.155 980,-120.155 980,-99.1545 846,-99.1545"/>
<text text-anchor="middle" x="913" y="-107.155" font-family="FreeSans" font-size="10.00">Urho3D::ResourceRefList</text>
</a>
</g>
<!-- Node21&#45;&gt;Node17 -->
<g id="edge54" class="edge"><title>Node21&#45;&gt;Node17</title>
<path fill="none" stroke="#9a32cd" stroke-dasharray="5,2" d="M990.046,-120.565C1030.08,-127.464 1079.4,-137.907 1122,-152.655 1151.3,-162.798 1183.02,-179.889 1202.2,-190.969"/>
<polygon fill="#9a32cd" stroke="#9a32cd" points="990.521,-117.096 980.079,-118.887 989.359,-123.999 990.521,-117.096"/>
<text text-anchor="middle" x="1067" y="-156.655" font-family="FreeSans" font-size="10.00"> emptyResourceRefList</text>
</g>
<!-- Node22 -->
<g id="node49" class="node"><title>Node22</title>
<a xlink:href="a00178.html" target="_top" xlink:title="Hash map template class.">
<polygon fill="none" stroke="red" points="840,-311.155 840,-332.155 986,-332.155 986,-311.155 840,-311.155"/>
<text text-anchor="middle" x="913" y="-319.155" font-family="FreeSans" font-size="10.00">Urho3D::HashMap&lt; T, U &gt;</text>
</a>
</g>
<!-- Node22&#45;&gt;Node17 -->
<g id="edge56" class="edge"><title>Node22&#45;&gt;Node17</title>
<path fill="none" stroke="#9a32cd" stroke-dasharray="5,2" d="M996.306,-319.865C1035.95,-316.321 1083.08,-308.063 1122,-289.655 1161.48,-270.98 1196.6,-231.186 1211.89,-212.182"/>
<polygon fill="#9a32cd" stroke="#9a32cd" points="995.818,-316.393 986.133,-320.687 996.382,-323.37 995.818,-316.393"/>
<text text-anchor="middle" x="1067" y="-321.655" font-family="FreeSans" font-size="10.00"> emptyVariantMap</text>
</g>
<!-- Node23 -->
<g id="node51" class="node"><title>Node23</title>
<a xlink:href="a00374.html" target="_top" xlink:title="Union for the possible variant values. Also stores non&#45;POD objects such as String which must not exce...">
<polygon fill="none" stroke="black" points="853.5,-271.155 853.5,-292.155 972.5,-292.155 972.5,-271.155 853.5,-271.155"/>
<text text-anchor="middle" x="913" y="-279.155" font-family="FreeSans" font-size="10.00">Urho3D::VariantValue</text>
</a>
</g>
<!-- Node23&#45;&gt;Node17 -->
<g id="edge58" class="edge"><title>Node23&#45;&gt;Node17</title>
<path fill="none" stroke="#9a32cd" stroke-dasharray="5,2" d="M982.592,-276.332C1023.82,-271.872 1076.7,-263.852 1122,-249.655 1151.65,-240.363 1183.53,-223.277 1202.61,-212.197"/>
<polygon fill="#9a32cd" stroke="#9a32cd" points="982.227,-272.851 972.641,-277.364 982.949,-279.814 982.227,-272.851"/>
<text text-anchor="middle" x="1067" y="-276.655" font-family="FreeSans" font-size="10.00"> value_</text>
</g>
<!-- Node24 -->
<g id="node53" class="node"><title>Node24</title>
<a xlink:href="a00321.html" target="_top" xlink:title="Urho3D::SharedPtr\&lt;\l Urho3D::AttributeAccessor \&gt;">
<polygon fill="none" stroke="black" points="1140.5,-8.65454 1140.5,-42.6545 1299.5,-42.6545 1299.5,-8.65454 1140.5,-8.65454"/>
<text text-anchor="start" x="1148.5" y="-29.6545" font-family="FreeSans" font-size="10.00">Urho3D::SharedPtr&lt;</text>
<text text-anchor="middle" x="1220" y="-16.6545" font-family="FreeSans" font-size="10.00"> Urho3D::AttributeAccessor &gt;</text>
</a>
</g>
<!-- Node24&#45;&gt;Node16 -->
<g id="edge60" class="edge"><title>Node24&#45;&gt;Node16</title>
<path fill="none" stroke="#9a32cd" stroke-dasharray="5,2" d="M1309.67,-26.8026C1334.99,-29.3981 1362.14,-34.408 1386,-43.6545 1419.76,-56.7352 1452.27,-85.3117 1468.42,-100.933"/>
<polygon fill="#9a32cd" stroke="#9a32cd" points="1309.96,-23.3155 1299.69,-25.8924 1309.33,-30.2865 1309.96,-23.3155"/>
<text text-anchor="middle" x="1352" y="-47.6545" font-family="FreeSans" font-size="10.00"> accessor_</text>
</g>
<!-- Node25&#45;&gt;Node24 -->
<g id="edge62" class="edge"><title>Node25&#45;&gt;Node24</title>
<path fill="none" stroke="#9a32cd" stroke-dasharray="5,2" d="M587.066,-248.992C611.846,-203.004 680.776,-88.9012 776,-43.6545 893.063,11.9694 1047.7,2.33887 1140.17,-10.8549"/>
<polygon fill="#9a32cd" stroke="#9a32cd" points="583.905,-247.484 582.332,-257.961 590.095,-250.752 583.905,-247.484"/>
<text text-anchor="middle" x="795" y="-47.6545" font-family="FreeSans" font-size="10.00"> ptr_</text>
</g>
</g>
</svg>
        <g id="navigator" transform="translate(0 0)" fill="#404254">
                <rect fill="#f2f5e9" fill-opacity="0.5" stroke="#606060" stroke-width=".5" x="0" y="0" width="60" height="60"/>
                <use id="zoomplus" xlink:href="#zoomPlus" x="17" y="9" onmousedown="handleZoom(evt,'in')"/>
                <use id="zoomminus" xlink:href="#zoomMin" x="42" y="9" onmousedown="handleZoom(evt,'out')"/>
                <use id="reset" xlink:href="#resetDef" x="30" y="36" onmousedown="handleReset()"/>
                <g id="arrowUp" xlink:href="#dirArrow" transform="translate(30 24)" onmousedown="handlePan(0,-1)">
                  <use xlink:href="#rim" fill="#404040">
                        <set attributeName="fill" to="#808080" begin="arrowUp.mouseover" end="arrowUp.mouseout"/>
                  </use>
                  <path fill="none" stroke="white" stroke-width="1.5" d="M0,-3.0v7 M-2.5,-0.5L0,-3.0L2.5,-0.5"/>
                </g>
                <g id="arrowRight" xlink:href="#dirArrow" transform="rotate(90) translate(36 -43)" onmousedown="handlePan(1,0)">
                  <use xlink:href="#rim" fill="#404040">
                        <set attributeName="fill" to="#808080" begin="arrowRight.mouseover" end="arrowRight.mouseout"/>
                  </use>
                  <path fill="none" stroke="white" stroke-width="1.5" d="M0,-3.0v7 M-2.5,-0.5L0,-3.0L2.5,-0.5"/>
                </g>
                <g id="arrowDown" xlink:href="#dirArrow" transform="rotate(180) translate(-30 -48)" onmousedown="handlePan(0,1)">
                  <use xlink:href="#rim" fill="#404040">
                        <set attributeName="fill" to="#808080" begin="arrowDown.mouseover" end="arrowDown.mouseout"/>
                  </use>
                  <path fill="none" stroke="white" stroke-width="1.5" d="M0,-3.0v7 M-2.5,-0.5L0,-3.0L2.5,-0.5"/>
                </g>
                <g id="arrowLeft" xlink:href="#dirArrow" transform="rotate(270) translate(-36 17)" onmousedown="handlePan(-1,0)">
                  <use xlink:href="#rim" fill="#404040">
                        <set attributeName="fill" to="#808080" begin="arrowLeft.mouseover" end="arrowLeft.mouseout"/>
                  </use>
                  <path fill="none" stroke="white" stroke-width="1.5" d="M0,-3.0v7 M-2.5,-0.5L0,-3.0L2.5,-0.5"/>
                </g>
        </g>
        <svg viewBox="0 0 15 15" width="100%" height="30px" preserveAspectRatio="xMaxYMin meet">
         <g id="arrow_out" transform="scale(0.3 0.3)">
          <a xlink:href="a01483_org.svg" target="_base">
           <rect id="button" ry="5" rx="5" y="6" x="6" height="38" width="38"
                fill="#f2f5e9" fill-opacity="0.5" stroke="#606060" stroke-width="1.0"/>
           <path id="arrow"
             d="M 11.500037,31.436501 C 11.940474,20.09759 22.043105,11.32322 32.158766,21.979434 L 37.068811,17.246167 C 37.068811,17.246167 37.088388,32 37.088388,32 L 22.160133,31.978069 C 22.160133,31.978069 26.997745,27.140456 26.997745,27.140456 C 18.528582,18.264221 13.291696,25.230495 11.500037,31.436501 z"
             style="fill:#404040;"/>
          </a>
         </g>
        </svg>
</svg>
