<?xml version="1.0" encoding="UTF-8" standalone="no"?>
<!DOCTYPE svg PUBLIC "-//W3C//DTD SVG 1.1//EN"
 "http://www.w3.org/Graphics/SVG/1.1/DTD/svg11.dtd">
<!-- Generated by graphviz version 2.26.3 (20100126.1600)
 -->
<!-- Title: Urho3D::JSONValue Pages: 1 -->
<!--zoomable 925 -->
<svg id="main" version="1.1" xmlns="http://www.w3.org/2000/svg" xmlns:xlink="http://www.w3.org/1999/xlink" xml:space="preserve" onload="init(evt)">
        <defs>
                <circle id="rim" cx="0" cy="0" r="7"/>
                <circle id="rim2" cx="0" cy="0" r="3.5"/>
                <g id="zoomPlus">
                        <use xlink:href="#rim" fill="#404040">
                                <set attributeName="fill" to="#808080" begin="zoomplus.mouseover" end="zoomplus.mouseout"/>
                        </use>
                        <path d="M-4,0h8M0,-4v8" fill="none" stroke="white" stroke-width="1.5" pointer-events="none"/>
                </g>
                <g id="zoomMin">
                        <use xlink:href="#rim" fill="#404040">
                                <set attributeName="fill" to="#808080" begin="zoomminus.mouseover" end="zoomminus.mouseout"/>
                        </use>
                        <path d="M-4,0h8" fill="none" stroke="white" stroke-width="1.5" pointer-events="none"/>
                </g>
                <g id="dirArrow">
                        <path fill="none" stroke="white" stroke-width="1.5" d="M0,-3.0v7 M-2.5,-0.5L0,-3.0L2.5,-0.5"/>
                </g>
               <g id="resetDef">
                       <use xlink:href="#rim2" fill="#404040">
                               <set attributeName="fill" to="#808080" begin="reset.mouseover" end="reset.mouseout"/>
                       </use>
               </g>
        </defs>

<script type="text/javascript">
var viewWidth = 1454;
var viewHeight = 925;
var sectionId = 'dynsection-0';
</script>
<script xlink:href="svgpan.js"/>
<svg id="graph" class="graph">
<g id="viewport">
<title>Urho3D::JSONValue</title>
<!-- Node1 -->
<g id="node1" class="node"><title>Node1</title>
<polygon fill="#bfbfbf" stroke="black" points="1336,-775.5 1336,-796.5 1446,-796.5 1446,-775.5 1336,-775.5"/>
<text text-anchor="middle" x="1391" y="-783.5" font-family="FreeSans" font-size="10.00">Urho3D::JSONValue</text>
</g>
<!-- Node1&#45;&gt;Node1 -->
<g id="edge74" class="edge"><title>Node1&#45;&gt;Node1</title>
<path fill="none" stroke="#9a32cd" stroke-dasharray="5,2" d="M1374.52,-806.793C1375.97,-811.529 1381.47,-815 1391,-815 1406.64,-815 1411.41,-805.653 1405.3,-796.708"/>
<polygon fill="#9a32cd" stroke="#9a32cd" points="1378.01,-807.222 1376.7,-796.708 1371.16,-805.742 1378.01,-807.222"/>
<text text-anchor="middle" x="1391" y="-819" font-family="FreeSans" font-size="10.00"> EMPTY</text>
</g>
<!-- Node2 -->
<g id="node2" class="node"><title>Node2</title>
<a xlink:href="a00389.html" target="_top" xlink:title="Urho3D::WeakPtr\&lt; Urho3D\l::JSONFile \&gt;">
<polygon fill="none" stroke="black" points="1120,-799 1120,-833 1266,-833 1266,-799 1120,-799"/>
<text text-anchor="start" x="1128" y="-820" font-family="FreeSans" font-size="10.00">Urho3D::WeakPtr&lt; Urho3D</text>
<text text-anchor="middle" x="1193" y="-807" font-family="FreeSans" font-size="10.00">::JSONFile &gt;</text>
</a>
</g>
<!-- Node2&#45;&gt;Node1 -->
<g id="edge2" class="edge"><title>Node2&#45;&gt;Node1</title>
<path fill="none" stroke="#9a32cd" stroke-dasharray="5,2" d="M1276.26,-803.385C1296.35,-800.341 1317.33,-797.162 1335.78,-794.367"/>
<polygon fill="#9a32cd" stroke="#9a32cd" points="1275.53,-799.956 1266.17,-804.914 1276.58,-806.877 1275.53,-799.956"/>
<text text-anchor="middle" x="1301" y="-805" font-family="FreeSans" font-size="10.00"> file_</text>
</g>
<!-- Node3 -->
<g id="node4" class="node"><title>Node3</title>
<a xlink:href="a00195.html" target="_top" xlink:title="JSON document resource.">
<polygon fill="none" stroke="black" points="940,-824.5 940,-845.5 1038,-845.5 1038,-824.5 940,-824.5"/>
<text text-anchor="middle" x="989" y="-832.5" font-family="FreeSans" font-size="10.00">Urho3D::JSONFile</text>
</a>
</g>
<!-- Node3&#45;&gt;Node2 -->
<g id="edge4" class="edge"><title>Node3&#45;&gt;Node2</title>
<path fill="none" stroke="#9a32cd" stroke-dasharray="5,2" d="M1048.17,-829.489C1070.6,-827.4 1096.41,-824.996 1119.97,-822.802"/>
<polygon fill="#9a32cd" stroke="#9a32cd" points="1047.75,-826.012 1038.12,-830.425 1048.4,-832.982 1047.75,-826.012"/>
<text text-anchor="middle" x="1091" y="-830" font-family="FreeSans" font-size="10.00"> ptr_</text>
</g>
<!-- Node4 -->
<g id="node6" class="node"><title>Node4</title>
<a xlink:href="a00292.html" target="_top" xlink:title="Base class for resources.">
<polygon fill="none" stroke="black" points="606.5,-824.5 606.5,-845.5 709.5,-845.5 709.5,-824.5 606.5,-824.5"/>
<text text-anchor="middle" x="658" y="-832.5" font-family="FreeSans" font-size="10.00">Urho3D::Resource</text>
</a>
</g>
<!-- Node4&#45;&gt;Node3 -->
<g id="edge6" class="edge"><title>Node4&#45;&gt;Node3</title>
<path fill="none" stroke="midnightblue" d="M720.014,-835C783.627,-835 881.311,-835 939.803,-835"/>
<polygon fill="midnightblue" stroke="midnightblue" points="719.719,-831.5 709.719,-835 719.719,-838.5 719.719,-831.5"/>
</g>
<!-- Node5 -->
<g id="node8" class="node"><title>Node5</title>
<a xlink:href="a00242.html" target="_top" xlink:title="Base class for objects with type identification, subsystem access and event sending/receiving capabil...">
<polygon fill="none" stroke="black" points="352,-623.5 352,-644.5 442,-644.5 442,-623.5 352,-623.5"/>
<text text-anchor="middle" x="397" y="-631.5" font-family="FreeSans" font-size="10.00">Urho3D::Object</text>
</a>
</g>
<!-- Node5&#45;&gt;Node4 -->
<g id="edge8" class="edge"><title>Node5&#45;&gt;Node4</title>
<path fill="none" stroke="midnightblue" d="M415.391,-652.075C426.721,-663.365 441.433,-678.31 454,-692 462.313,-701.056 462.163,-705.628 472,-713 496.194,-731.133 508.011,-725.548 534,-741 577.886,-767.093 624.559,-805.894 645.983,-824.416"/>
<polygon fill="midnightblue" stroke="midnightblue" points="417.722,-649.457 408.156,-644.902 412.793,-654.428 417.722,-649.457"/>
</g>
<!-- Node15 -->
<g id="node31" class="node"><title>Node15</title>
<a xlink:href="a00151.html" target="_top" xlink:title="Internal helper class for invoking event handler functions.">
<polygon fill="none" stroke="red" points="596,-662.5 596,-683.5 720,-683.5 720,-662.5 596,-662.5"/>
<text text-anchor="middle" x="658" y="-670.5" font-family="FreeSans" font-size="10.00">Urho3D::EventHandler</text>
</a>
</g>
<!-- Node5&#45;&gt;Node15 -->
<g id="edge36" class="edge"><title>Node5&#45;&gt;Node15</title>
<path fill="none" stroke="#9a32cd" stroke-dasharray="5,2" d="M452.166,-640.181C477.188,-643.155 507.13,-646.952 534,-651 556.377,-654.371 580.928,-658.612 602.239,-662.469"/>
<polygon fill="#9a32cd" stroke="#9a32cd" points="452.465,-636.692 442.125,-639 451.647,-643.644 452.465,-636.692"/>
<text text-anchor="middle" x="503" y="-668" font-family="FreeSans" font-size="10.00"> sender_</text>
<text text-anchor="middle" x="503" y="-655" font-family="FreeSans" font-size="10.00">receiver_</text>
</g>
<!-- Node6 -->
<g id="node10" class="node"><title>Node6</title>
<a xlink:href="a00284.html" target="_top" xlink:title="Base class for intrusively reference&#45;counted objects. These are noncopyable and non&#45;assignable.">
<polygon fill="none" stroke="black" points="188,-623.5 188,-644.5 302,-644.5 302,-623.5 188,-623.5"/>
<text text-anchor="middle" x="245" y="-631.5" font-family="FreeSans" font-size="10.00">Urho3D::RefCounted</text>
</a>
</g>
<!-- Node6&#45;&gt;Node5 -->
<g id="edge10" class="edge"><title>Node6&#45;&gt;Node5</title>
<path fill="none" stroke="midnightblue" d="M312.222,-634C325.681,-634 339.512,-634 351.996,-634"/>
<polygon fill="midnightblue" stroke="midnightblue" points="312.032,-630.5 302.032,-634 312.032,-637.5 312.032,-630.5"/>
</g>
<!-- Node8 -->
<g id="node14" class="node"><title>Node8</title>
<a xlink:href="a00125.html" target="_top" xlink:title="Urho3D execution context. Provides access to subsystems, object factories and attributes, and event receivers.">
<polygon fill="none" stroke="black" points="940.5,-299.5 940.5,-320.5 1037.5,-320.5 1037.5,-299.5 940.5,-299.5"/>
<text text-anchor="middle" x="989" y="-307.5" font-family="FreeSans" font-size="10.00">Urho3D::Context</text>
</a>
</g>
<!-- Node6&#45;&gt;Node8 -->
<g id="edge16" class="edge"><title>Node6&#45;&gt;Node8</title>
<path fill="none" stroke="midnightblue" d="M247.397,-613.473C254.273,-561.241 277.727,-420.527 340,-323 408.092,-216.36 433.826,-178.206 552,-133 698.62,-76.9121 775.376,-105.986 898,-204 934.565,-233.227 967.719,-278.633 981.822,-299.211"/>
<polygon fill="midnightblue" stroke="midnightblue" points="243.912,-613.132 246.142,-623.49 250.858,-614.002 243.912,-613.132"/>
</g>
<!-- Node7 -->
<g id="node12" class="node"><title>Node7</title>
<a xlink:href="a00283.html" target="_top" xlink:title="Reference count structure.">
<polygon fill="none" stroke="black" points="0,-737.5 0,-758.5 102,-758.5 102,-737.5 0,-737.5"/>
<text text-anchor="middle" x="51" y="-745.5" font-family="FreeSans" font-size="10.00">Urho3D::RefCount</text>
</a>
</g>
<!-- Node7&#45;&gt;Node2 -->
<g id="edge72" class="edge"><title>Node7&#45;&gt;Node2</title>
<path fill="none" stroke="#9a32cd" stroke-dasharray="5,2" d="M86.2106,-762.179C124.595,-776.335 188.148,-796 245,-796 245,-796 245,-796 989,-796 1032.59,-796 1081.18,-800.58 1119.99,-805.356"/>
<polygon fill="#9a32cd" stroke="#9a32cd" points="87.1379,-758.788 76.5461,-758.534 84.6676,-765.338 87.1379,-758.788"/>
<text text-anchor="middle" x="503" y="-800" font-family="FreeSans" font-size="10.00"> refCount_</text>
</g>
<!-- Node7&#45;&gt;Node6 -->
<g id="edge12" class="edge"><title>Node7&#45;&gt;Node6</title>
<path fill="none" stroke="#9a32cd" stroke-dasharray="5,2" d="M77.5987,-732.37C117.666,-708.825 192.47,-664.868 226.858,-644.661"/>
<polygon fill="#9a32cd" stroke="#9a32cd" points="75.7517,-729.396 68.9033,-737.479 79.2982,-735.431 75.7517,-729.396"/>
<text text-anchor="middle" x="145" y="-709" font-family="FreeSans" font-size="10.00"> refCount_</text>
</g>
<!-- Node8&#45;&gt;Node5 -->
<g id="edge14" class="edge"><title>Node8&#45;&gt;Node5</title>
<path fill="none" stroke="#9a32cd" stroke-dasharray="5,2" d="M985.313,-330.709C977.095,-370.643 953.449,-458.455 898,-505 862.529,-534.775 559.017,-600.306 442.39,-624.651"/>
<polygon fill="#9a32cd" stroke="#9a32cd" points="988.769,-331.272 987.235,-320.789 981.897,-329.94 988.769,-331.272"/>
<text text-anchor="middle" x="658" y="-605" font-family="FreeSans" font-size="10.00"> context_</text>
</g>
<!-- Node9 -->
<g id="node17" class="node"><title>Node9</title>
<a xlink:href="a00178.html" target="_top" xlink:title="Urho3D::HashMap\&lt; Urho3D\l::ShortStringHash, Urho3D\l::Vector\&lt; Urho3D::AttributeInfo \&gt; \&gt;">
<polygon fill="none" stroke="black" points="563.5,-352.5 563.5,-399.5 752.5,-399.5 752.5,-352.5 563.5,-352.5"/>
<text text-anchor="start" x="571.5" y="-386.5" font-family="FreeSans" font-size="10.00">Urho3D::HashMap&lt; Urho3D</text>
<text text-anchor="start" x="571.5" y="-373.5" font-family="FreeSans" font-size="10.00">::ShortStringHash, Urho3D</text>
<text text-anchor="middle" x="658" y="-360.5" font-family="FreeSans" font-size="10.00">::Vector&lt; Urho3D::AttributeInfo &gt; &gt;</text>
</a>
</g>
<!-- Node9&#45;&gt;Node8 -->
<g id="edge18" class="edge"><title>Node9&#45;&gt;Node8</title>
<path fill="none" stroke="#9a32cd" stroke-dasharray="5,2" d="M763.016,-355.06C822.317,-343.236 893.632,-329.016 940.071,-319.756"/>
<polygon fill="#9a32cd" stroke="#9a32cd" points="761.974,-351.699 752.851,-357.087 763.343,-358.564 761.974,-351.699"/>
<text text-anchor="middle" x="840" y="-368" font-family="FreeSans" font-size="10.00"> attributes_</text>
<text text-anchor="middle" x="840" y="-355" font-family="FreeSans" font-size="10.00">networkAttributes_</text>
</g>
<!-- Node10 -->
<g id="node19" class="node"><title>Node10</title>
<a xlink:href="a00176.html" target="_top" xlink:title="Hash set/map base class.">
<polygon fill="none" stroke="red" points="343,-332.5 343,-353.5 451,-353.5 451,-332.5 343,-332.5"/>
<text text-anchor="middle" x="397" y="-340.5" font-family="FreeSans" font-size="10.00">Urho3D::HashBase</text>
</a>
</g>
<!-- Node10&#45;&gt;Node9 -->
<g id="edge20" class="edge"><title>Node10&#45;&gt;Node9</title>
<path fill="none" stroke="midnightblue" d="M461.237,-351.122C491.988,-355.01 529.421,-359.743 563.349,-364.033"/>
<polygon fill="midnightblue" stroke="midnightblue" points="461.439,-347.62 451.079,-349.838 460.561,-354.564 461.439,-347.62"/>
</g>
<!-- Node13 -->
<g id="node25" class="node"><title>Node13</title>
<a xlink:href="a00178.html" target="_top" xlink:title="Urho3D::HashMap\&lt; Urho3D\l::ShortStringHash, Urho3D\l::SharedPtr\&lt; Urho3D::Object \&gt; \&gt;">
<polygon fill="none" stroke="black" points="569,-286.5 569,-333.5 747,-333.5 747,-286.5 569,-286.5"/>
<text text-anchor="start" x="577" y="-320.5" font-family="FreeSans" font-size="10.00">Urho3D::HashMap&lt; Urho3D</text>
<text text-anchor="start" x="577" y="-307.5" font-family="FreeSans" font-size="10.00">::ShortStringHash, Urho3D</text>
<text text-anchor="middle" x="658" y="-294.5" font-family="FreeSans" font-size="10.00">::SharedPtr&lt; Urho3D::Object &gt; &gt;</text>
</a>
</g>
<!-- Node10&#45;&gt;Node13 -->
<g id="edge28" class="edge"><title>Node10&#45;&gt;Node13</title>
<path fill="none" stroke="midnightblue" d="M461.321,-334.867C493.713,-330.772 533.503,-325.741 568.799,-321.278"/>
<polygon fill="midnightblue" stroke="midnightblue" points="460.561,-331.436 451.079,-336.162 461.439,-338.38 460.561,-331.436"/>
</g>
<!-- Node14 -->
<g id="node28" class="node"><title>Node14</title>
<a xlink:href="a00178.html" target="_top" xlink:title="Urho3D::HashMap\&lt; Urho3D\l::String, Urho3D::Vector\l\&lt; Urho3D::ShortStringHash \&gt; \&gt;">
<polygon fill="none" stroke="black" points="571.5,-220.5 571.5,-267.5 744.5,-267.5 744.5,-220.5 571.5,-220.5"/>
<text text-anchor="start" x="579.5" y="-254.5" font-family="FreeSans" font-size="10.00">Urho3D::HashMap&lt; Urho3D</text>
<text text-anchor="start" x="579.5" y="-241.5" font-family="FreeSans" font-size="10.00">::String, Urho3D::Vector</text>
<text text-anchor="middle" x="658" y="-228.5" font-family="FreeSans" font-size="10.00">&lt; Urho3D::ShortStringHash &gt; &gt;</text>
</a>
</g>
<!-- Node10&#45;&gt;Node14 -->
<g id="edge32" class="edge"><title>Node10&#45;&gt;Node14</title>
<path fill="none" stroke="midnightblue" d="M429.271,-328.132C460.362,-314.077 508.897,-292.84 552,-277 560.774,-273.775 570.028,-270.588 579.266,-267.54"/>
<polygon fill="midnightblue" stroke="midnightblue" points="427.475,-325.103 419.818,-332.427 430.37,-331.476 427.475,-325.103"/>
</g>
<!-- Node17 -->
<g id="node37" class="node"><title>Node17</title>
<a xlink:href="a00178.html" target="_top" xlink:title="Urho3D::HashMap\&lt; Urho3D\l::StringHash, Urho3D::\lHashSet\&lt; Urho3D::Object * \&gt; \&gt;">
<polygon fill="none" stroke="black" points="571.5,-418.5 571.5,-465.5 744.5,-465.5 744.5,-418.5 571.5,-418.5"/>
<text text-anchor="start" x="579.5" y="-452.5" font-family="FreeSans" font-size="10.00">Urho3D::HashMap&lt; Urho3D</text>
<text text-anchor="start" x="579.5" y="-439.5" font-family="FreeSans" font-size="10.00">::StringHash, Urho3D::</text>
<text text-anchor="middle" x="658" y="-426.5" font-family="FreeSans" font-size="10.00">HashSet&lt; Urho3D::Object * &gt; &gt;</text>
</a>
</g>
<!-- Node10&#45;&gt;Node17 -->
<g id="edge44" class="edge"><title>Node10&#45;&gt;Node17</title>
<path fill="none" stroke="midnightblue" d="M429.271,-357.868C460.362,-371.923 508.897,-393.16 552,-409 560.774,-412.225 570.028,-415.412 579.266,-418.46"/>
<polygon fill="midnightblue" stroke="midnightblue" points="430.37,-354.524 419.818,-353.573 427.475,-360.897 430.37,-354.524"/>
</g>
<!-- Node18 -->
<g id="node40" class="node"><title>Node18</title>
<a xlink:href="a00178.html" target="_top" xlink:title="Urho3D::HashMap\&lt; Urho3D\l::Object *, Urho3D::HashMap\l\&lt; Urho3D::StringHash, Urho3D\l::HashSet\&lt; Urho3D::Object * \&gt; \&gt; \&gt;">
<polygon fill="none" stroke="black" points="562.5,-142 562.5,-202 753.5,-202 753.5,-142 562.5,-142"/>
<text text-anchor="start" x="570.5" y="-189" font-family="FreeSans" font-size="10.00">Urho3D::HashMap&lt; Urho3D</text>
<text text-anchor="start" x="570.5" y="-176" font-family="FreeSans" font-size="10.00">::Object *, Urho3D::HashMap</text>
<text text-anchor="start" x="570.5" y="-163" font-family="FreeSans" font-size="10.00">&lt; Urho3D::StringHash, Urho3D</text>
<text text-anchor="middle" x="658" y="-150" font-family="FreeSans" font-size="10.00">::HashSet&lt; Urho3D::Object * &gt; &gt; &gt;</text>
</a>
</g>
<!-- Node10&#45;&gt;Node18 -->
<g id="edge48" class="edge"><title>Node10&#45;&gt;Node18</title>
<path fill="none" stroke="midnightblue" d="M414.027,-324.857C440.983,-297.035 496.177,-243.632 552,-211 557.417,-207.833 563.136,-204.849 568.997,-202.051"/>
<polygon fill="midnightblue" stroke="midnightblue" points="411.284,-322.661 406.896,-332.304 416.34,-327.502 411.284,-322.661"/>
</g>
<!-- Node19 -->
<g id="node43" class="node"><title>Node19</title>
<a xlink:href="a00178.html" target="_top" xlink:title="Urho3D::HashMap\&lt; Urho3D\l::ShortStringHash, Urho3D\l::SharedPtr\&lt; Urho3D::ObjectFactory \&gt; \&gt;">
<polygon fill="none" stroke="black" points="552,-484.5 552,-531.5 764,-531.5 764,-484.5 552,-484.5"/>
<text text-anchor="start" x="560" y="-518.5" font-family="FreeSans" font-size="10.00">Urho3D::HashMap&lt; Urho3D</text>
<text text-anchor="start" x="560" y="-505.5" font-family="FreeSans" font-size="10.00">::ShortStringHash, Urho3D</text>
<text text-anchor="middle" x="658" y="-492.5" font-family="FreeSans" font-size="10.00">::SharedPtr&lt; Urho3D::ObjectFactory &gt; &gt;</text>
</a>
</g>
<!-- Node10&#45;&gt;Node19 -->
<g id="edge52" class="edge"><title>Node10&#45;&gt;Node19</title>
<path fill="none" stroke="midnightblue" d="M413.433,-361.071C439.975,-389.242 495.085,-443.639 552,-475 558.246,-478.442 564.901,-481.578 571.716,-484.425"/>
<polygon fill="midnightblue" stroke="midnightblue" points="415.806,-358.483 406.433,-353.543 410.679,-363.25 415.806,-358.483"/>
</g>
<!-- Node11 -->
<g id="node21" class="node"><title>Node11</title>
<a xlink:href="a00270.html" target="_top" xlink:title="Urho3D::PODVector\&lt;\l Urho3D::Object * \&gt;">
<polygon fill="none" stroke="black" points="598.5,-52 598.5,-86 717.5,-86 717.5,-52 598.5,-52"/>
<text text-anchor="start" x="606.5" y="-73" font-family="FreeSans" font-size="10.00">Urho3D::PODVector&lt;</text>
<text text-anchor="middle" x="658" y="-60" font-family="FreeSans" font-size="10.00"> Urho3D::Object * &gt;</text>
</a>
</g>
<!-- Node11&#45;&gt;Node8 -->
<g id="edge22" class="edge"><title>Node11&#45;&gt;Node8</title>
<path fill="none" stroke="#9a32cd" stroke-dasharray="5,2" d="M727.783,-55.9803C779.585,-50.3275 849.382,-51.6186 898,-87 971.028,-140.146 985.606,-262.365 988.378,-299.261"/>
<polygon fill="#9a32cd" stroke="#9a32cd" points="727.185,-52.5269 717.674,-57.1954 728.02,-59.4769 727.185,-52.5269"/>
<text text-anchor="middle" x="840" y="-91" font-family="FreeSans" font-size="10.00"> eventSenders_</text>
</g>
<!-- Node12 -->
<g id="node23" class="node"><title>Node12</title>
<a xlink:href="a00380.html" target="_top" xlink:title="Vector base class.">
<polygon fill="none" stroke="black" points="340,-29.5 340,-50.5 454,-50.5 454,-29.5 340,-29.5"/>
<text text-anchor="middle" x="397" y="-37.5" font-family="FreeSans" font-size="10.00">Urho3D::VectorBase</text>
</a>
</g>
<!-- Node12&#45;&gt;Node11 -->
<g id="edge24" class="edge"><title>Node12&#45;&gt;Node11</title>
<path fill="none" stroke="midnightblue" d="M464.271,-47.4745C505.647,-52.0719 558.206,-57.9118 598.137,-62.3485"/>
<polygon fill="midnightblue" stroke="midnightblue" points="464.603,-43.99 454.278,-46.3642 463.83,-50.9472 464.603,-43.99"/>
</g>
<!-- Node20 -->
<g id="node46" class="node"><title>Node20</title>
<a xlink:href="a00270.html" target="_top" xlink:title="Urho3D::PODVector\&lt;\l Urho3D::HashMap * \&gt;">
<polygon fill="none" stroke="black" points="594.5,-0 594.5,-34 721.5,-34 721.5,-0 594.5,-0"/>
<text text-anchor="start" x="602.5" y="-21" font-family="FreeSans" font-size="10.00">Urho3D::PODVector&lt;</text>
<text text-anchor="middle" x="658" y="-8" font-family="FreeSans" font-size="10.00"> Urho3D::HashMap * &gt;</text>
</a>
</g>
<!-- Node12&#45;&gt;Node20 -->
<g id="edge56" class="edge"><title>Node12&#45;&gt;Node20</title>
<path fill="none" stroke="midnightblue" d="M464.493,-34.0524C504.572,-30.5205 555.084,-26.0692 594.449,-22.6002"/>
<polygon fill="midnightblue" stroke="midnightblue" points="463.932,-30.5882 454.278,-34.9526 464.546,-37.5611 463.932,-30.5882"/>
</g>
<!-- Node13&#45;&gt;Node8 -->
<g id="edge26" class="edge"><title>Node13&#45;&gt;Node8</title>
<path fill="none" stroke="#9a32cd" stroke-dasharray="5,2" d="M757.472,-310C817.879,-310 892.322,-310 940.213,-310"/>
<polygon fill="#9a32cd" stroke="#9a32cd" points="757.137,-306.5 747.137,-310 757.137,-313.5 757.137,-306.5"/>
<text text-anchor="middle" x="840" y="-314" font-family="FreeSans" font-size="10.00"> subsystems_</text>
</g>
<!-- Node14&#45;&gt;Node8 -->
<g id="edge30" class="edge"><title>Node14&#45;&gt;Node8</title>
<path fill="none" stroke="#9a32cd" stroke-dasharray="5,2" d="M754.569,-263.255C815.545,-275.414 891.722,-290.603 940.375,-300.304"/>
<polygon fill="#9a32cd" stroke="#9a32cd" points="755.025,-259.778 744.534,-261.255 753.657,-266.642 755.025,-259.778"/>
<text text-anchor="middle" x="840" y="-295" font-family="FreeSans" font-size="10.00"> objectCategories_</text>
</g>
<!-- Node15&#45;&gt;Node8 -->
<g id="edge34" class="edge"><title>Node15&#45;&gt;Node8</title>
<path fill="none" stroke="#9a32cd" stroke-dasharray="5,2" d="M707.544,-659.696C769.639,-642.121 871.197,-610.102 898,-582 973.093,-503.267 986.292,-360.785 988.548,-320.731"/>
<polygon fill="#9a32cd" stroke="#9a32cd" points="706.244,-656.426 697.56,-662.494 708.133,-663.166 706.244,-656.426"/>
<text text-anchor="middle" x="840" y="-641" font-family="FreeSans" font-size="10.00"> eventHandler_</text>
</g>
<!-- Node21 -->
<g id="node49" class="node"><title>Node21</title>
<a xlink:href="a00202.html" target="_top" xlink:title="Urho3D::LinkedList\l\&lt; Urho3D::EventHandler \&gt;">
<polygon fill="none" stroke="black" points="916,-635 916,-669 1062,-669 1062,-635 916,-635"/>
<text text-anchor="start" x="924" y="-656" font-family="FreeSans" font-size="10.00">Urho3D::LinkedList</text>
<text text-anchor="middle" x="989" y="-643" font-family="FreeSans" font-size="10.00">&lt; Urho3D::EventHandler &gt;</text>
</a>
</g>
<!-- Node15&#45;&gt;Node21 -->
<g id="edge60" class="edge"><title>Node15&#45;&gt;Node21</title>
<path fill="none" stroke="#9a32cd" stroke-dasharray="5,2" d="M730.235,-672.053C777.933,-670.994 841.777,-668.751 898,-664 903.716,-663.517 909.625,-662.933 915.558,-662.285"/>
<polygon fill="#9a32cd" stroke="#9a32cd" points="729.929,-668.558 720.005,-672.267 730.076,-675.557 729.929,-668.558"/>
<text text-anchor="middle" x="840" y="-675" font-family="FreeSans" font-size="10.00"> head_</text>
</g>
<!-- Node16 -->
<g id="node34" class="node"><title>Node16</title>
<a xlink:href="a00346.html" target="_top" xlink:title="32&#45;bit hash value for a string.">
<polygon fill="none" stroke="black" points="340.5,-701.5 340.5,-722.5 453.5,-722.5 453.5,-701.5 340.5,-701.5"/>
<text text-anchor="middle" x="397" y="-709.5" font-family="FreeSans" font-size="10.00">Urho3D::StringHash</text>
</a>
</g>
<!-- Node16&#45;&gt;Node4 -->
<g id="edge68" class="edge"><title>Node16&#45;&gt;Node4</title>
<path fill="none" stroke="#9a32cd" stroke-dasharray="5,2" d="M437.003,-725.863C474.099,-738.791 524.903,-756.709 534,-761 574.813,-780.252 619.536,-809.015 642.494,-824.397"/>
<polygon fill="#9a32cd" stroke="#9a32cd" points="438.021,-722.512 427.427,-722.53 435.72,-729.123 438.021,-722.512"/>
<text text-anchor="middle" x="503" y="-765" font-family="FreeSans" font-size="10.00"> nameHash_</text>
</g>
<!-- Node16&#45;&gt;Node15 -->
<g id="edge38" class="edge"><title>Node16&#45;&gt;Node15</title>
<path fill="none" stroke="#9a32cd" stroke-dasharray="5,2" d="M463.7,-702.033C504.273,-695.971 555.76,-688.277 595.538,-682.333"/>
<polygon fill="#9a32cd" stroke="#9a32cd" points="463.006,-698.598 453.633,-703.538 464.041,-705.521 463.006,-698.598"/>
<text text-anchor="middle" x="503" y="-705" font-family="FreeSans" font-size="10.00"> eventType_</text>
</g>
<!-- Node16&#45;&gt;Node16 -->
<g id="edge40" class="edge"><title>Node16&#45;&gt;Node16</title>
<path fill="none" stroke="#9a32cd" stroke-dasharray="5,2" d="M383.082,-732.793C384.31,-737.529 388.95,-741 397,-741 410.211,-741 414.236,-731.653 409.076,-722.708"/>
<polygon fill="#9a32cd" stroke="#9a32cd" points="386.57,-733.174 384.924,-722.708 379.684,-731.916 386.57,-733.174"/>
<text text-anchor="middle" x="397" y="-745" font-family="FreeSans" font-size="10.00"> ZERO</text>
</g>
<!-- Node17&#45;&gt;Node8 -->
<g id="edge42" class="edge"><title>Node17&#45;&gt;Node8</title>
<path fill="none" stroke="#9a32cd" stroke-dasharray="5,2" d="M754.673,-426.911C799.764,-417.526 853.228,-402.945 898,-381 930.568,-365.037 962.573,-336.154 978.531,-320.601"/>
<polygon fill="#9a32cd" stroke="#9a32cd" points="753.7,-423.537 744.593,-428.952 755.089,-430.398 753.7,-423.537"/>
<text text-anchor="middle" x="840" y="-425" font-family="FreeSans" font-size="10.00"> eventReceivers_</text>
</g>
<!-- Node18&#45;&gt;Node8 -->
<g id="edge46" class="edge"><title>Node18&#45;&gt;Node8</title>
<path fill="none" stroke="#9a32cd" stroke-dasharray="5,2" d="M763.325,-201.668C806.016,-215.194 855.236,-232.735 898,-253 926.47,-266.492 957.009,-287.011 974.478,-299.4"/>
<polygon fill="#9a32cd" stroke="#9a32cd" points="764.345,-198.32 753.756,-198.669 762.251,-205 764.345,-198.32"/>
<text text-anchor="middle" x="840" y="-257" font-family="FreeSans" font-size="10.00"> specificEventReceivers_</text>
</g>
<!-- Node19&#45;&gt;Node8 -->
<g id="edge50" class="edge"><title>Node19&#45;&gt;Node8</title>
<path fill="none" stroke="#9a32cd" stroke-dasharray="5,2" d="M774.247,-490.502C816.024,-480.155 861.737,-463.794 898,-438 942.659,-406.234 973.288,-345.442 984.388,-320.787"/>
<polygon fill="#9a32cd" stroke="#9a32cd" points="773.198,-487.154 764.282,-492.876 774.821,-493.963 773.198,-487.154"/>
<text text-anchor="middle" x="840" y="-492" font-family="FreeSans" font-size="10.00"> factories_</text>
</g>
<!-- Node20&#45;&gt;Node8 -->
<g id="edge54" class="edge"><title>Node20&#45;&gt;Node8</title>
<path fill="none" stroke="#9a32cd" stroke-dasharray="5,2" d="M731.876,-3.4126C783.685,1.79125 851.694,-0.607742 898,-37 941.798,-71.4212 978.343,-253.028 987.037,-299.276"/>
<polygon fill="#9a32cd" stroke="#9a32cd" points="731.29,0.0437505 721.741,-4.54692 732.068,-6.91281 731.29,0.0437505"/>
<text text-anchor="middle" x="840" y="-41" font-family="FreeSans" font-size="10.00"> eventDataMaps_</text>
</g>
<!-- Node21&#45;&gt;Node5 -->
<g id="edge58" class="edge"><title>Node21&#45;&gt;Node5</title>
<path fill="none" stroke="#9a32cd" stroke-dasharray="5,2" d="M913.292,-633.174C908.139,-632.311 903.007,-631.57 898,-631 730.773,-611.955 530.113,-623.415 442.102,-630.145"/>
<polygon fill="#9a32cd" stroke="#9a32cd" points="912.738,-636.63 923.201,-634.968 913.985,-629.742 912.738,-636.63"/>
<text text-anchor="middle" x="658" y="-628" font-family="FreeSans" font-size="10.00"> eventHandlers_</text>
</g>
<!-- Node22 -->
<g id="node52" class="node"><title>Node22</title>
<a xlink:href="a00360.html" target="_top" xlink:title="Low&#45;resolution operating system timer.">
<polygon fill="none" stroke="black" points="354,-824.5 354,-845.5 440,-845.5 440,-824.5 354,-824.5"/>
<text text-anchor="middle" x="397" y="-832.5" font-family="FreeSans" font-size="10.00">Urho3D::Timer</text>
</a>
</g>
<!-- Node22&#45;&gt;Node4 -->
<g id="edge62" class="edge"><title>Node22&#45;&gt;Node4</title>
<path fill="none" stroke="#9a32cd" stroke-dasharray="5,2" d="M450.381,-835C495.987,-835 561.188,-835 606.303,-835"/>
<polygon fill="#9a32cd" stroke="#9a32cd" points="450.099,-831.5 440.099,-835 450.099,-838.5 450.099,-831.5"/>
<text text-anchor="middle" x="503" y="-839" font-family="FreeSans" font-size="10.00"> useTimer_</text>
</g>
<!-- Node23 -->
<g id="node54" class="node"><title>Node23</title>
<a xlink:href="a00345.html" target="_top" xlink:title="String class.">
<polygon fill="none" stroke="black" points="353,-864.5 353,-885.5 441,-885.5 441,-864.5 353,-864.5"/>
<text text-anchor="middle" x="397" y="-872.5" font-family="FreeSans" font-size="10.00">Urho3D::String</text>
</a>
</g>
<!-- Node23&#45;&gt;Node4 -->
<g id="edge64" class="edge"><title>Node23&#45;&gt;Node4</title>
<path fill="none" stroke="#9a32cd" stroke-dasharray="5,2" d="M451.269,-866.683C496.837,-859.699 561.499,-849.789 606.323,-842.92"/>
<polygon fill="#9a32cd" stroke="#9a32cd" points="450.629,-863.24 441.275,-868.215 451.69,-870.159 450.629,-863.24"/>
<text text-anchor="middle" x="503" y="-867" font-family="FreeSans" font-size="10.00"> name_</text>
</g>
<!-- Node23&#45;&gt;Node23 -->
<g id="edge66" class="edge"><title>Node23&#45;&gt;Node23</title>
<path fill="none" stroke="#9a32cd" stroke-dasharray="5,2" d="M383.082,-895.793C384.31,-900.529 388.95,-904 397,-904 410.211,-904 414.236,-894.653 409.076,-885.708"/>
<polygon fill="#9a32cd" stroke="#9a32cd" points="386.57,-896.174 384.924,-885.708 379.684,-894.916 386.57,-896.174"/>
<text text-anchor="middle" x="397" y="-908" font-family="FreeSans" font-size="10.00"> EMPTY</text>
</g>
<!-- Node24 -->
<g id="node58" class="node"><title>Node24</title>
<a xlink:href="a00169.html" target="_top" xlink:title="rapidjson::GenericDocument\l\&lt; Encoding, Allocator \&gt;">
<polygon fill="none" stroke="black" points="581.5,-864 581.5,-898 734.5,-898 734.5,-864 581.5,-864"/>
<text text-anchor="start" x="589.5" y="-885" font-family="FreeSans" font-size="10.00">rapidjson::GenericDocument</text>
<text text-anchor="middle" x="658" y="-872" font-family="FreeSans" font-size="10.00">&lt; Encoding, Allocator &gt;</text>
</a>
</g>
<!-- Node24&#45;&gt;Node3 -->
<g id="edge70" class="edge"><title>Node24&#45;&gt;Node3</title>
<path fill="none" stroke="#9a32cd" stroke-dasharray="5,2" d="M744.682,-869.87C790.331,-863.9 847.228,-856.29 898,-849 911.607,-847.046 926.342,-844.825 939.911,-842.737"/>
<polygon fill="#9a32cd" stroke="#9a32cd" points="743.989,-866.43 734.526,-871.195 744.894,-873.372 743.989,-866.43"/>
<text text-anchor="middle" x="840" y="-868" font-family="FreeSans" font-size="10.00"> document_</text>
</g>
<!-- Node25 -->
<g id="node62" class="node"><title>Node25</title>
<a xlink:href="a00170.html" target="_top" xlink:title="rapidjson::GenericValue\l\&lt; Encoding, Allocator \&gt;">
<polygon fill="none" stroke="black" points="1127.5,-747 1127.5,-781 1258.5,-781 1258.5,-747 1127.5,-747"/>
<text text-anchor="start" x="1135.5" y="-768" font-family="FreeSans" font-size="10.00">rapidjson::GenericValue</text>
<text text-anchor="middle" x="1193" y="-755" font-family="FreeSans" font-size="10.00">&lt; Encoding, Allocator &gt;</text>
</a>
</g>
<!-- Node25&#45;&gt;Node1 -->
<g id="edge76" class="edge"><title>Node25&#45;&gt;Node1</title>
<path fill="none" stroke="#9a32cd" stroke-dasharray="5,2" d="M1268.68,-768.173C1284.98,-769.428 1302.09,-771.016 1318,-773 1323.75,-773.717 1329.73,-774.583 1335.69,-775.525"/>
<polygon fill="#9a32cd" stroke="#9a32cd" points="1268.88,-764.679 1258.65,-767.434 1268.36,-771.66 1268.88,-764.679"/>
<text text-anchor="middle" x="1301" y="-777" font-family="FreeSans" font-size="10.00"> value_</text>
</g>
</g>
</svg>
        <g id="navigator" transform="translate(0 0)" fill="#404254">
                <rect fill="#f2f5e9" fill-opacity="0.5" stroke="#606060" stroke-width=".5" x="0" y="0" width="60" height="60"/>
                <use id="zoomplus" xlink:href="#zoomPlus" x="17" y="9" onmousedown="handleZoom(evt,'in')"/>
                <use id="zoomminus" xlink:href="#zoomMin" x="42" y="9" onmousedown="handleZoom(evt,'out')"/>
                <use id="reset" xlink:href="#resetDef" x="30" y="36" onmousedown="handleReset()"/>
                <g id="arrowUp" xlink:href="#dirArrow" transform="translate(30 24)" onmousedown="handlePan(0,-1)">
                  <use xlink:href="#rim" fill="#404040">
                        <set attributeName="fill" to="#808080" begin="arrowUp.mouseover" end="arrowUp.mouseout"/>
                  </use>
                  <path fill="none" stroke="white" stroke-width="1.5" d="M0,-3.0v7 M-2.5,-0.5L0,-3.0L2.5,-0.5"/>
                </g>
                <g id="arrowRight" xlink:href="#dirArrow" transform="rotate(90) translate(36 -43)" onmousedown="handlePan(1,0)">
                  <use xlink:href="#rim" fill="#404040">
                        <set attributeName="fill" to="#808080" begin="arrowRight.mouseover" end="arrowRight.mouseout"/>
                  </use>
                  <path fill="none" stroke="white" stroke-width="1.5" d="M0,-3.0v7 M-2.5,-0.5L0,-3.0L2.5,-0.5"/>
                </g>
                <g id="arrowDown" xlink:href="#dirArrow" transform="rotate(180) translate(-30 -48)" onmousedown="handlePan(0,1)">
                  <use xlink:href="#rim" fill="#404040">
                        <set attributeName="fill" to="#808080" begin="arrowDown.mouseover" end="arrowDown.mouseout"/>
                  </use>
                  <path fill="none" stroke="white" stroke-width="1.5" d="M0,-3.0v7 M-2.5,-0.5L0,-3.0L2.5,-0.5"/>
                </g>
                <g id="arrowLeft" xlink:href="#dirArrow" transform="rotate(270) translate(-36 17)" onmousedown="handlePan(-1,0)">
                  <use xlink:href="#rim" fill="#404040">
                        <set attributeName="fill" to="#808080" begin="arrowLeft.mouseover" end="arrowLeft.mouseout"/>
                  </use>
                  <path fill="none" stroke="white" stroke-width="1.5" d="M0,-3.0v7 M-2.5,-0.5L0,-3.0L2.5,-0.5"/>
                </g>
        </g>
        <svg viewBox="0 0 15 15" width="100%" height="30px" preserveAspectRatio="xMaxYMin meet">
         <g id="arrow_out" transform="scale(0.3 0.3)">
          <a xlink:href="a01464_org.svg" target="_base">
           <rect id="button" ry="5" rx="5" y="6" x="6" height="38" width="38"
                fill="#f2f5e9" fill-opacity="0.5" stroke="#606060" stroke-width="1.0"/>
           <path id="arrow"
             d="M 11.500037,31.436501 C 11.940474,20.09759 22.043105,11.32322 32.158766,21.979434 L 37.068811,17.246167 C 37.068811,17.246167 37.088388,32 37.088388,32 L 22.160133,31.978069 C 22.160133,31.978069 26.997745,27.140456 26.997745,27.140456 C 18.528582,18.264221 13.291696,25.230495 11.500037,31.436501 z"
             style="fill:#404040;"/>
          </a>
         </g>
        </svg>
</svg>
