<?xml version="1.0" encoding="UTF-8" standalone="no"?>
<!DOCTYPE svg PUBLIC "-//W3C//DTD SVG 1.1//EN"
 "http://www.w3.org/Graphics/SVG/1.1/DTD/svg11.dtd">
<!-- Generated by graphviz version 2.26.3 (20100126.1600)
 -->
<!-- Title: Urho3D::StaticSprite2D Pages: 1 -->
<svg width="1146pt" height="695pt"
 viewBox="0.00 0.00 1146.00 695.00" xmlns="http://www.w3.org/2000/svg" xmlns:xlink="http://www.w3.org/1999/xlink">
<g id="graph1" class="graph" transform="scale(1 1) rotate(0) translate(4 691)">
<title>Urho3D::StaticSprite2D</title>
<!-- Node1 -->
<g id="node1" class="node"><title>Node1</title>
<polygon fill="#bfbfbf" stroke="black" points="1008.5,-460.5 1008.5,-481.5 1137.5,-481.5 1137.5,-460.5 1008.5,-460.5"/>
<text text-anchor="middle" x="1073" y="-468.5" font-family="FreeSans" font-size="10.00">Urho3D::StaticSprite2D</text>
</g>
<!-- Node2 -->
<g id="node2" class="node"><title>Node2</title>
<a xlink:href="a00129.html" target="_top" xlink:title="Base class for 2D visible components.">
<polygon fill="none" stroke="black" points="852.5,-188.5 852.5,-209.5 969.5,-209.5 969.5,-188.5 852.5,-188.5"/>
<text text-anchor="middle" x="911" y="-196.5" font-family="FreeSans" font-size="10.00">Urho3D::Drawable2D</text>
</a>
</g>
<!-- Node2&#45;&gt;Node1 -->
<g id="edge2" class="edge"><title>Node2&#45;&gt;Node1</title>
<path fill="none" stroke="midnightblue" d="M922.615,-218.502C954.456,-271.963 1042.37,-419.577 1066.69,-460.411"/>
<polygon fill="midnightblue" stroke="midnightblue" points="925.475,-216.463 917.351,-209.663 919.461,-220.045 925.475,-216.463"/>
</g>
<!-- Node3 -->
<g id="node4" class="node"><title>Node3</title>
<a xlink:href="a00128.html" target="_top" xlink:title="Base class for visible components.">
<polygon fill="none" stroke="black" points="597,-378.5 597,-399.5 701,-399.5 701,-378.5 597,-378.5"/>
<text text-anchor="middle" x="649" y="-386.5" font-family="FreeSans" font-size="10.00">Urho3D::Drawable</text>
</a>
</g>
<!-- Node3&#45;&gt;Node2 -->
<g id="edge4" class="edge"><title>Node3&#45;&gt;Node2</title>
<path fill="none" stroke="midnightblue" d="M680.66,-374.066C726.434,-352.169 808.418,-311.71 834,-291 864.596,-266.231 891.985,-227.889 904.225,-209.517"/>
<polygon fill="midnightblue" stroke="midnightblue" points="678.997,-370.981 671.476,-378.443 682.009,-377.301 678.997,-370.981"/>
</g>
<!-- Node6 -->
<g id="node10" class="node"><title>Node6</title>
<a xlink:href="a00362.html" target="_top" xlink:title="Component that describes global rendering properties">
<polygon fill="none" stroke="red" points="868.5,-450.5 868.5,-471.5 953.5,-471.5 953.5,-450.5 868.5,-450.5"/>
<text text-anchor="middle" x="911" y="-458.5" font-family="FreeSans" font-size="10.00">Urho3D::Zone</text>
</a>
</g>
<!-- Node3&#45;&gt;Node6 -->
<g id="edge12" class="edge"><title>Node3&#45;&gt;Node6</title>
<path fill="none" stroke="midnightblue" d="M697.086,-402.214C747.576,-416.09 825.968,-437.632 872.52,-450.425"/>
<polygon fill="midnightblue" stroke="midnightblue" points="697.948,-398.822 687.378,-399.547 696.093,-405.571 697.948,-398.822"/>
</g>
<!-- Node12 -->
<g id="node25" class="node"><title>Node12</title>
<a xlink:href="a00174.html" target="_top" xlink:title="Light component.">
<polygon fill="none" stroke="red" points="869.5,-352.5 869.5,-373.5 952.5,-373.5 952.5,-352.5 869.5,-352.5"/>
<text text-anchor="middle" x="911" y="-360.5" font-family="FreeSans" font-size="10.00">Urho3D::Light</text>
</a>
</g>
<!-- Node3&#45;&gt;Node12 -->
<g id="edge30" class="edge"><title>Node3&#45;&gt;Node12</title>
<path fill="none" stroke="midnightblue" d="M679.987,-374.268C697.23,-366.885 719.328,-358.736 740,-355 783.577,-347.125 834.356,-351.127 869.191,-355.848"/>
<polygon fill="midnightblue" stroke="midnightblue" points="678.174,-371.243 670.443,-378.488 681.004,-377.645 678.174,-371.243"/>
</g>
<!-- Node4 -->
<g id="node6" class="node"><title>Node4</title>
<a xlink:href="a00097.html" target="_top" xlink:title="Base class for components. Components can be created to scene nodes.">
<polygon fill="none" stroke="red" points="3,-187.5 3,-208.5 119,-208.5 119,-187.5 3,-187.5"/>
<text text-anchor="middle" x="61" y="-195.5" font-family="FreeSans" font-size="10.00">Urho3D::Component</text>
</a>
</g>
<!-- Node4&#45;&gt;Node3 -->
<g id="edge6" class="edge"><title>Node4&#45;&gt;Node3</title>
<path fill="none" stroke="midnightblue" d="M119.276,-210.606C156.993,-218.439 207.236,-228.263 252,-235 319.633,-245.179 500.378,-231.155 558,-268 571.1,-276.376 567.115,-285.24 576,-298 597.18,-328.417 625.382,-361.848 639.744,-378.441"/>
<polygon fill="midnightblue" stroke="midnightblue" points="119.983,-207.179 109.478,-208.558 118.55,-214.03 119.983,-207.179"/>
</g>
<!-- Node15 -->
<g id="node36" class="node"><title>Node15</title>
<a xlink:href="a00130.html" target="_top" xlink:title="2D drawable proxy components.">
<polygon fill="none" stroke="red" points="255.5,-44.5 255.5,-65.5 398.5,-65.5 398.5,-44.5 255.5,-44.5"/>
<text text-anchor="middle" x="327" y="-52.5" font-family="FreeSans" font-size="10.00">Urho3D::DrawableProxy2D</text>
</a>
</g>
<!-- Node4&#45;&gt;Node15 -->
<g id="edge46" class="edge"><title>Node4&#45;&gt;Node15</title>
<path fill="none" stroke="midnightblue" d="M82.3018,-181.076C116.303,-154.828 185.776,-104.286 252,-75 260.381,-71.2939 269.601,-68.1455 278.623,-65.5201"/>
<polygon fill="midnightblue" stroke="midnightblue" points="79.7987,-178.589 74.064,-187.498 84.1026,-184.11 79.7987,-178.589"/>
</g>
<!-- Node5 -->
<g id="node8" class="node"><title>Node5</title>
<a xlink:href="a00158.html" target="_top" xlink:title="Urho3D::HashSet\&lt; Urho3D\l::Camera * \&gt;">
<polygon fill="none" stroke="red" points="252.5,-320 252.5,-354 401.5,-354 401.5,-320 252.5,-320"/>
<text text-anchor="start" x="260.5" y="-341" font-family="FreeSans" font-size="10.00">Urho3D::HashSet&lt; Urho3D</text>
<text text-anchor="middle" x="327" y="-328" font-family="FreeSans" font-size="10.00">::Camera * &gt;</text>
</a>
</g>
<!-- Node5&#45;&gt;Node3 -->
<g id="edge8" class="edge"><title>Node5&#45;&gt;Node3</title>
<path fill="none" stroke="#9a32cd" stroke-dasharray="5,2" d="M411.769,-349.133C455.5,-355.572 509.672,-363.827 558,-372 570.519,-374.117 583.977,-376.547 596.603,-378.894"/>
<polygon fill="#9a32cd" stroke="#9a32cd" points="412.149,-345.651 401.747,-347.662 411.133,-352.577 412.149,-345.651"/>
<text text-anchor="middle" x="489" y="-376" font-family="FreeSans" font-size="10.00"> viewCameras_</text>
</g>
<!-- Node6&#45;&gt;Node3 -->
<g id="edge10" class="edge"><title>Node6&#45;&gt;Node3</title>
<path fill="none" stroke="#9a32cd" stroke-dasharray="5,2" d="M894.675,-443.033C880.283,-428.547 857.929,-409.135 834,-400 791.467,-383.763 739.432,-382.115 701.395,-383.888"/>
<polygon fill="#9a32cd" stroke="#9a32cd" points="892.363,-445.68 901.81,-450.477 897.417,-440.836 892.363,-445.68"/>
<text text-anchor="middle" x="787" y="-404" font-family="FreeSans" font-size="10.00"> zone_</text>
</g>
<!-- Node7 -->
<g id="node13" class="node"><title>Node7</title>
<a xlink:href="a00080.html" target="_top" xlink:title="Three&#45;dimensional axis&#45;aligned bounding box.">
<polygon fill="none" stroke="red" points="0,-538.5 0,-559.5 122,-559.5 122,-538.5 0,-538.5"/>
<text text-anchor="middle" x="61" y="-546.5" font-family="FreeSans" font-size="10.00">Urho3D::BoundingBox</text>
</a>
</g>
<!-- Node7&#45;&gt;Node3 -->
<g id="edge34" class="edge"><title>Node7&#45;&gt;Node3</title>
<path fill="none" stroke="#9a32cd" stroke-dasharray="5,2" d="M110.178,-535.907C148.601,-525.981 203.447,-512.477 252,-503 386.981,-476.652 434.345,-517.194 558,-457 567.894,-452.184 567.467,-446.948 576,-440 594.463,-424.968 617.13,-409.566 632.261,-399.678"/>
<polygon fill="#9a32cd" stroke="#9a32cd" points="109.086,-532.575 100.287,-538.477 110.846,-539.35 109.086,-532.575"/>
<text text-anchor="middle" x="327" y="-520" font-family="FreeSans" font-size="10.00"> worldBoundingBox_</text>
<text text-anchor="middle" x="327" y="-507" font-family="FreeSans" font-size="10.00">boundingBox_</text>
</g>
<!-- Node7&#45;&gt;Node6 -->
<g id="edge14" class="edge"><title>Node7&#45;&gt;Node6</title>
<path fill="none" stroke="#9a32cd" stroke-dasharray="5,2" d="M91.4158,-563.817C187.778,-608.591 493.429,-733.865 722,-641 759.56,-625.74 822.822,-541.147 852,-513 867.329,-498.212 885.885,-482.137 898.043,-471.835"/>
<polygon fill="#9a32cd" stroke="#9a32cd" points="92.7784,-560.59 82.2397,-559.501 89.799,-566.925 92.7784,-560.59"/>
<text text-anchor="middle" x="489" y="-678" font-family="FreeSans" font-size="10.00"> lastWorldBoundingBox_</text>
</g>
<!-- Node13 -->
<g id="node30" class="node"><title>Node13</title>
<a xlink:href="a00220.html" target="_top" xlink:title="Octree octant">
<polygon fill="none" stroke="red" points="281,-538.5 281,-559.5 373,-559.5 373,-538.5 281,-538.5"/>
<text text-anchor="middle" x="327" y="-546.5" font-family="FreeSans" font-size="10.00">Urho3D::Octant</text>
</a>
</g>
<!-- Node7&#45;&gt;Node13 -->
<g id="edge38" class="edge"><title>Node7&#45;&gt;Node13</title>
<path fill="none" stroke="#9a32cd" stroke-dasharray="5,2" d="M132.176,-549C179.322,-549 239.798,-549 280.774,-549"/>
<polygon fill="#9a32cd" stroke="#9a32cd" points="132.026,-545.5 122.026,-549 132.026,-552.5 132.026,-545.5"/>
<text text-anchor="middle" x="187" y="-566" font-family="FreeSans" font-size="10.00"> cullingBox_</text>
<text text-anchor="middle" x="187" y="-553" font-family="FreeSans" font-size="10.00">worldBoundingBox_</text>
</g>
<!-- Node8 -->
<g id="node15" class="node"><title>Node8</title>
<a xlink:href="a00095.html" target="_top" xlink:title="RGBA color.">
<polygon fill="none" stroke="black" points="607,-449.5 607,-470.5 691,-470.5 691,-449.5 607,-449.5"/>
<text text-anchor="middle" x="649" y="-457.5" font-family="FreeSans" font-size="10.00">Urho3D::Color</text>
</a>
</g>
<!-- Node8&#45;&gt;Node1 -->
<g id="edge70" class="edge"><title>Node8&#45;&gt;Node1</title>
<path fill="none" stroke="#9a32cd" stroke-dasharray="5,2" d="M664.815,-478.173C681.47,-495.797 709.474,-521.384 740,-532 854.358,-571.769 1000.3,-508.036 1052.94,-481.623"/>
<polygon fill="#9a32cd" stroke="#9a32cd" points="667.326,-475.733 657.993,-470.718 662.162,-480.458 667.326,-475.733"/>
<text text-anchor="middle" x="911" y="-547" font-family="FreeSans" font-size="10.00"> color_</text>
</g>
<!-- Node8&#45;&gt;Node6 -->
<g id="edge16" class="edge"><title>Node8&#45;&gt;Node6</title>
<path fill="none" stroke="#9a32cd" stroke-dasharray="5,2" d="M701.339,-469.449C713.955,-471.339 727.424,-473.038 740,-474 781.656,-477.186 792.368,-477.49 834,-474 845.213,-473.06 857.249,-471.363 868.396,-469.499"/>
<polygon fill="#9a32cd" stroke="#9a32cd" points="701.857,-465.988 691.436,-467.902 700.777,-472.904 701.857,-465.988"/>
<text text-anchor="middle" x="787" y="-519" font-family="FreeSans" font-size="10.00"> ambientEndColor_</text>
<text text-anchor="middle" x="787" y="-506" font-family="FreeSans" font-size="10.00">fogColor_</text>
<text text-anchor="middle" x="787" y="-493" font-family="FreeSans" font-size="10.00">ambientColor_</text>
<text text-anchor="middle" x="787" y="-480" font-family="FreeSans" font-size="10.00">ambientStartColor_</text>
</g>
<!-- Node8&#45;&gt;Node8 -->
<g id="edge18" class="edge"><title>Node8&#45;&gt;Node8</title>
<path fill="none" stroke="#9a32cd" stroke-dasharray="5,2" d="M623.433,-480.055C625.11,-485.164 633.633,-489 649,-489 672.988,-489 680.297,-479.653 670.927,-470.708"/>
<polygon fill="#9a32cd" stroke="#9a32cd" points="626.706,-481.296 627.073,-470.708 620.183,-478.756 626.706,-481.296"/>
<text text-anchor="middle" x="649" y="-623" font-family="FreeSans" font-size="10.00"> CYAN</text>
<text text-anchor="middle" x="649" y="-610" font-family="FreeSans" font-size="10.00">GRAY</text>
<text text-anchor="middle" x="649" y="-597" font-family="FreeSans" font-size="10.00">YELLOW</text>
<text text-anchor="middle" x="649" y="-584" font-family="FreeSans" font-size="10.00">MAGENTA</text>
<text text-anchor="middle" x="649" y="-571" font-family="FreeSans" font-size="10.00">WHITE</text>
<text text-anchor="middle" x="649" y="-558" font-family="FreeSans" font-size="10.00">TRANSPARENT</text>
<text text-anchor="middle" x="649" y="-545" font-family="FreeSans" font-size="10.00">BLUE</text>
<text text-anchor="middle" x="649" y="-532" font-family="FreeSans" font-size="10.00">BLACK</text>
<text text-anchor="middle" x="649" y="-519" font-family="FreeSans" font-size="10.00">RED</text>
<text text-anchor="middle" x="649" y="-506" font-family="FreeSans" font-size="10.00">GREEN</text>
<text text-anchor="middle" x="649" y="-493" font-family="FreeSans" font-size="10.00">...</text>
</g>
<!-- Node8&#45;&gt;Node12 -->
<g id="edge32" class="edge"><title>Node8&#45;&gt;Node12</title>
<path fill="none" stroke="#9a32cd" stroke-dasharray="5,2" d="M701.576,-453.27C739.573,-447.112 791.48,-435.988 834,-417 859.196,-405.749 884.682,-385.819 899.095,-373.573"/>
<polygon fill="#9a32cd" stroke="#9a32cd" points="700.59,-449.881 691.247,-454.878 701.666,-456.798 700.59,-449.881"/>
<text text-anchor="middle" x="787" y="-449" font-family="FreeSans" font-size="10.00"> color_</text>
</g>
<!-- Node9 -->
<g id="node18" class="node"><title>Node9</title>
<a xlink:href="a00242.html" target="_top" xlink:title="Urho3D::PODVector\&lt;\l Urho3D::Light * \&gt;">
<polygon fill="none" stroke="black" points="267.5,-424 267.5,-458 386.5,-458 386.5,-424 267.5,-424"/>
<text text-anchor="start" x="275.5" y="-445" font-family="FreeSans" font-size="10.00">Urho3D::PODVector&lt;</text>
<text text-anchor="middle" x="327" y="-432" font-family="FreeSans" font-size="10.00"> Urho3D::Light * &gt;</text>
</a>
</g>
<!-- Node9&#45;&gt;Node3 -->
<g id="edge20" class="edge"><title>Node9&#45;&gt;Node3</title>
<path fill="none" stroke="#9a32cd" stroke-dasharray="5,2" d="M397.048,-431.025C442.899,-424.338 504.086,-415.118 558,-406 570.519,-403.883 583.977,-401.453 596.603,-399.106"/>
<polygon fill="#9a32cd" stroke="#9a32cd" points="396.31,-427.595 386.918,-432.497 397.317,-434.522 396.31,-427.595"/>
<text text-anchor="middle" x="489" y="-444" font-family="FreeSans" font-size="10.00"> vertexLights_</text>
<text text-anchor="middle" x="489" y="-431" font-family="FreeSans" font-size="10.00">lights_</text>
</g>
<!-- Node10 -->
<g id="node20" class="node"><title>Node10</title>
<a xlink:href="a00344.html" target="_top" xlink:title="Vector base class.">
<polygon fill="none" stroke="black" points="4,-378.5 4,-399.5 118,-399.5 118,-378.5 4,-378.5"/>
<text text-anchor="middle" x="61" y="-386.5" font-family="FreeSans" font-size="10.00">Urho3D::VectorBase</text>
</a>
</g>
<!-- Node10&#45;&gt;Node9 -->
<g id="edge22" class="edge"><title>Node10&#45;&gt;Node9</title>
<path fill="none" stroke="midnightblue" d="M124.68,-401.449C167.951,-409.908 224.808,-421.023 267.227,-429.315"/>
<polygon fill="midnightblue" stroke="midnightblue" points="125.315,-398.007 114.829,-399.523 123.972,-404.877 125.315,-398.007"/>
</g>
<!-- Node11 -->
<g id="node22" class="node"><title>Node11</title>
<a xlink:href="a00340.html" target="_top" xlink:title="Urho3D::Vector\&lt; Urho3D\l::SourceBatch \&gt;">
<polygon fill="none" stroke="black" points="258,-372 258,-406 396,-406 396,-372 258,-372"/>
<text text-anchor="start" x="266" y="-393" font-family="FreeSans" font-size="10.00">Urho3D::Vector&lt; Urho3D</text>
<text text-anchor="middle" x="327" y="-380" font-family="FreeSans" font-size="10.00">::SourceBatch &gt;</text>
</a>
</g>
<!-- Node10&#45;&gt;Node11 -->
<g id="edge26" class="edge"><title>Node10&#45;&gt;Node11</title>
<path fill="none" stroke="midnightblue" d="M128.156,-389C167.76,-389 217.782,-389 257.746,-389"/>
<polygon fill="midnightblue" stroke="midnightblue" points="128.064,-385.5 118.064,-389 128.064,-392.5 128.064,-385.5"/>
</g>
<!-- Node19 -->
<g id="node45" class="node"><title>Node19</title>
<a xlink:href="a00340.html" target="_top" xlink:title="Urho3D::Vector\&lt; Urho3D\l::Vertex2D \&gt;">
<polygon fill="none" stroke="black" points="420,-272 420,-306 558,-306 558,-272 420,-272"/>
<text text-anchor="start" x="428" y="-293" font-family="FreeSans" font-size="10.00">Urho3D::Vector&lt; Urho3D</text>
<text text-anchor="middle" x="489" y="-280" font-family="FreeSans" font-size="10.00">::Vertex2D &gt;</text>
</a>
</g>
<!-- Node10&#45;&gt;Node19 -->
<g id="edge56" class="edge"><title>Node10&#45;&gt;Node19</title>
<path fill="none" stroke="midnightblue" d="M90.3817,-373.795C127.12,-355.546 192.438,-325.584 252,-311 307.489,-297.413 372.165,-292.085 419.922,-290.058"/>
<polygon fill="midnightblue" stroke="midnightblue" points="88.606,-370.77 81.242,-378.388 91.7489,-377.025 88.606,-370.77"/>
</g>
<!-- Node11&#45;&gt;Node3 -->
<g id="edge24" class="edge"><title>Node11&#45;&gt;Node3</title>
<path fill="none" stroke="#9a32cd" stroke-dasharray="5,2" d="M406.183,-389C465.639,-389 545.37,-389 596.966,-389"/>
<polygon fill="#9a32cd" stroke="#9a32cd" points="406.077,-385.5 396.077,-389 406.077,-392.5 406.077,-385.5"/>
<text text-anchor="middle" x="489" y="-393" font-family="FreeSans" font-size="10.00"> batches_</text>
</g>
<!-- Node12&#45;&gt;Node3 -->
<g id="edge28" class="edge"><title>Node12&#45;&gt;Node3</title>
<path fill="none" stroke="#9a32cd" stroke-dasharray="5,2" d="M859.14,-359.792C825.107,-358.548 779.713,-358.526 740,-364 719.55,-366.819 697.185,-372.919 679.745,-378.388"/>
<polygon fill="#9a32cd" stroke="#9a32cd" points="859.182,-363.297 869.318,-360.212 859.471,-356.303 859.182,-363.297"/>
<text text-anchor="middle" x="787" y="-368" font-family="FreeSans" font-size="10.00"> firstLight_</text>
</g>
<!-- Node13&#45;&gt;Node3 -->
<g id="edge36" class="edge"><title>Node13&#45;&gt;Node3</title>
<path fill="none" stroke="#9a32cd" stroke-dasharray="5,2" d="M383.242,-554.792C435.146,-556.879 511.074,-551.18 558,-508 581.006,-486.831 558.093,-465.627 576,-440 588.574,-422.004 609.659,-408.281 625.945,-399.627"/>
<polygon fill="#9a32cd" stroke="#9a32cd" points="383.362,-551.294 373.197,-554.28 383.006,-558.285 383.362,-551.294"/>
<text text-anchor="middle" x="489" y="-558" font-family="FreeSans" font-size="10.00"> octant_</text>
</g>
<!-- Node13&#45;&gt;Node13 -->
<g id="edge40" class="edge"><title>Node13&#45;&gt;Node13</title>
<path fill="none" stroke="#9a32cd" stroke-dasharray="5,2" d="M301.063,-569.055C302.764,-574.164 311.41,-578 327,-578 351.336,-578 358.751,-568.653 349.245,-559.708"/>
<polygon fill="#9a32cd" stroke="#9a32cd" points="304.336,-570.294 304.755,-559.708 297.826,-567.722 304.336,-570.294"/>
<text text-anchor="middle" x="327" y="-595" font-family="FreeSans" font-size="10.00"> parent_</text>
<text text-anchor="middle" x="327" y="-582" font-family="FreeSans" font-size="10.00">children_</text>
</g>
<!-- Node14 -->
<g id="node34" class="node"><title>Node14</title>
<a xlink:href="a00353.html" target="_top" xlink:title="Urho3D::WeakPtr\&lt; Urho3D\l::DrawableProxy2D \&gt;">
<polygon fill="none" stroke="black" points="576,-54 576,-88 722,-88 722,-54 576,-54"/>
<text text-anchor="start" x="584" y="-75" font-family="FreeSans" font-size="10.00">Urho3D::WeakPtr&lt; Urho3D</text>
<text text-anchor="middle" x="649" y="-62" font-family="FreeSans" font-size="10.00">::DrawableProxy2D &gt;</text>
</a>
</g>
<!-- Node14&#45;&gt;Node2 -->
<g id="edge42" class="edge"><title>Node14&#45;&gt;Node2</title>
<path fill="none" stroke="#9a32cd" stroke-dasharray="5,2" d="M732.55,-82.5602C765.732,-89.6678 803.24,-101.011 834,-119 864.951,-137.101 891.574,-171.13 903.819,-188.387"/>
<polygon fill="#9a32cd" stroke="#9a32cd" points="732.902,-79.0598 722.404,-80.4877 731.501,-85.9182 732.902,-79.0598"/>
<text text-anchor="middle" x="787" y="-123" font-family="FreeSans" font-size="10.00"> drawableProxy_</text>
</g>
<!-- Node15&#45;&gt;Node14 -->
<g id="edge44" class="edge"><title>Node15&#45;&gt;Node14</title>
<path fill="none" stroke="#9a32cd" stroke-dasharray="5,2" d="M408.745,-54.8075C452.978,-55.1975 508.536,-56.4837 558,-60 563.714,-60.4062 569.621,-60.9157 575.553,-61.4914"/>
<polygon fill="#9a32cd" stroke="#9a32cd" points="408.649,-51.3068 398.623,-54.732 408.597,-58.3066 408.649,-51.3068"/>
<text text-anchor="middle" x="489" y="-64" font-family="FreeSans" font-size="10.00"> ptr_</text>
</g>
<!-- Node16 -->
<g id="node39" class="node"><title>Node16</title>
<a xlink:href="a00255.html" target="_top" xlink:title="Reference count structure.">
<polygon fill="none" stroke="black" points="276,-84.5 276,-105.5 378,-105.5 378,-84.5 276,-84.5"/>
<text text-anchor="middle" x="327" y="-92.5" font-family="FreeSans" font-size="10.00">Urho3D::RefCount</text>
</a>
</g>
<!-- Node16&#45;&gt;Node14 -->
<g id="edge48" class="edge"><title>Node16&#45;&gt;Node14</title>
<path fill="none" stroke="#9a32cd" stroke-dasharray="5,2" d="M388.028,-90.4513C441.406,-86.4729 519.046,-80.686 575.763,-76.4587"/>
<polygon fill="#9a32cd" stroke="#9a32cd" points="387.734,-86.9634 378.022,-91.1971 388.254,-93.9441 387.734,-86.9634"/>
<text text-anchor="middle" x="489" y="-91" font-family="FreeSans" font-size="10.00"> refCount_</text>
</g>
<!-- Node17 -->
<g id="node41" class="node"><title>Node17</title>
<a xlink:href="a00292.html" target="_top" xlink:title="Urho3D::SharedPtr\&lt;\l Urho3D::Sprite2D \&gt;">
<polygon fill="none" stroke="black" points="591,-210 591,-244 707,-244 707,-210 591,-210"/>
<text text-anchor="start" x="599" y="-231" font-family="FreeSans" font-size="10.00">Urho3D::SharedPtr&lt;</text>
<text text-anchor="middle" x="649" y="-218" font-family="FreeSans" font-size="10.00"> Urho3D::Sprite2D &gt;</text>
</a>
</g>
<!-- Node17&#45;&gt;Node2 -->
<g id="edge50" class="edge"><title>Node17&#45;&gt;Node2</title>
<path fill="none" stroke="#9a32cd" stroke-dasharray="5,2" d="M717.254,-219.706C759.095,-215.234 812.115,-209.568 852.11,-205.294"/>
<polygon fill="#9a32cd" stroke="#9a32cd" points="716.718,-216.243 707.146,-220.786 717.462,-223.203 716.718,-216.243"/>
<text text-anchor="middle" x="787" y="-221" font-family="FreeSans" font-size="10.00"> sprite_</text>
</g>
<!-- Node18 -->
<g id="node43" class="node"><title>Node18</title>
<a xlink:href="a00308.html" target="_top" xlink:title="Sprite.">
<polygon fill="none" stroke="red" points="276.5,-204.5 276.5,-225.5 377.5,-225.5 377.5,-204.5 276.5,-204.5"/>
<text text-anchor="middle" x="327" y="-212.5" font-family="FreeSans" font-size="10.00">Urho3D::Sprite2D</text>
</a>
</g>
<!-- Node18&#45;&gt;Node17 -->
<g id="edge52" class="edge"><title>Node18&#45;&gt;Node17</title>
<path fill="none" stroke="#9a32cd" stroke-dasharray="5,2" d="M387.832,-217.267C446.08,-219.438 533.352,-222.69 590.73,-224.828"/>
<polygon fill="#9a32cd" stroke="#9a32cd" points="387.79,-213.763 377.667,-216.888 387.529,-220.758 387.79,-213.763"/>
<text text-anchor="middle" x="489" y="-227" font-family="FreeSans" font-size="10.00"> ptr_</text>
</g>
<!-- Node19&#45;&gt;Node2 -->
<g id="edge54" class="edge"><title>Node19&#45;&gt;Node2</title>
<path fill="none" stroke="#9a32cd" stroke-dasharray="5,2" d="M568.218,-282.687C639.074,-275.563 745.149,-261.225 834,-234 854.358,-227.762 876.357,-217.362 891.607,-209.516"/>
<polygon fill="#9a32cd" stroke="#9a32cd" points="567.637,-279.228 558.026,-283.687 568.32,-286.194 567.637,-279.228"/>
<text text-anchor="middle" x="649" y="-285" font-family="FreeSans" font-size="10.00"> vertices_</text>
</g>
<!-- Node20 -->
<g id="node48" class="node"><title>Node20</title>
<a xlink:href="a00292.html" target="_top" xlink:title="Urho3D::SharedPtr\&lt;\l Urho3D::Geometry \&gt;">
<polygon fill="none" stroke="black" points="588,-158 588,-192 710,-192 710,-158 588,-158"/>
<text text-anchor="start" x="596" y="-179" font-family="FreeSans" font-size="10.00">Urho3D::SharedPtr&lt;</text>
<text text-anchor="middle" x="649" y="-166" font-family="FreeSans" font-size="10.00"> Urho3D::Geometry &gt;</text>
</a>
</g>
<!-- Node20&#45;&gt;Node2 -->
<g id="edge58" class="edge"><title>Node20&#45;&gt;Node2</title>
<path fill="none" stroke="#9a32cd" stroke-dasharray="5,2" d="M720.443,-176.081C754.865,-177.212 796.68,-179.481 834,-184 843.329,-185.13 853.223,-186.74 862.7,-188.49"/>
<polygon fill="#9a32cd" stroke="#9a32cd" points="720.113,-172.57 710.011,-175.766 719.901,-179.567 720.113,-172.57"/>
<text text-anchor="middle" x="787" y="-188" font-family="FreeSans" font-size="10.00"> geometry_</text>
</g>
<!-- Node21 -->
<g id="node50" class="node"><title>Node21</title>
<a xlink:href="a00149.html" target="_top" xlink:title="Defines one or more vertex buffers, an index buffer and a draw range.">
<polygon fill="none" stroke="red" points="273.5,-164.5 273.5,-185.5 380.5,-185.5 380.5,-164.5 273.5,-164.5"/>
<text text-anchor="middle" x="327" y="-172.5" font-family="FreeSans" font-size="10.00">Urho3D::Geometry</text>
</a>
</g>
<!-- Node21&#45;&gt;Node20 -->
<g id="edge60" class="edge"><title>Node21&#45;&gt;Node20</title>
<path fill="none" stroke="#9a32cd" stroke-dasharray="5,2" d="M390.55,-175C447.809,-175 531.431,-175 587.917,-175"/>
<polygon fill="#9a32cd" stroke="#9a32cd" points="390.533,-171.5 380.533,-175 390.533,-178.5 390.533,-171.5"/>
<text text-anchor="middle" x="489" y="-179" font-family="FreeSans" font-size="10.00"> ptr_</text>
</g>
<!-- Node22 -->
<g id="node52" class="node"><title>Node22</title>
<a xlink:href="a00292.html" target="_top" xlink:title="Urho3D::SharedPtr\&lt;\l Urho3D::VertexBuffer \&gt;">
<polygon fill="none" stroke="black" points="582.5,-106 582.5,-140 715.5,-140 715.5,-106 582.5,-106"/>
<text text-anchor="start" x="590.5" y="-127" font-family="FreeSans" font-size="10.00">Urho3D::SharedPtr&lt;</text>
<text text-anchor="middle" x="649" y="-114" font-family="FreeSans" font-size="10.00"> Urho3D::VertexBuffer &gt;</text>
</a>
</g>
<!-- Node22&#45;&gt;Node2 -->
<g id="edge62" class="edge"><title>Node22&#45;&gt;Node2</title>
<path fill="none" stroke="#9a32cd" stroke-dasharray="5,2" d="M725.979,-132.911C759.718,-138.541 799.422,-146.937 834,-159 855.762,-166.592 879.016,-179.397 894.204,-188.472"/>
<polygon fill="#9a32cd" stroke="#9a32cd" points="726.143,-129.392 715.712,-131.252 725.026,-136.303 726.143,-129.392"/>
<text text-anchor="middle" x="787" y="-163" font-family="FreeSans" font-size="10.00"> vertexBuffer_</text>
</g>
<!-- Node23 -->
<g id="node54" class="node"><title>Node23</title>
<a xlink:href="a00347.html" target="_top" xlink:title="Hardware vertex buffer.">
<polygon fill="none" stroke="red" points="267.5,-124.5 267.5,-145.5 386.5,-145.5 386.5,-124.5 267.5,-124.5"/>
<text text-anchor="middle" x="327" y="-132.5" font-family="FreeSans" font-size="10.00">Urho3D::VertexBuffer</text>
</a>
</g>
<!-- Node23&#45;&gt;Node22 -->
<g id="edge64" class="edge"><title>Node23&#45;&gt;Node22</title>
<path fill="none" stroke="#9a32cd" stroke-dasharray="5,2" d="M396.829,-132.398C451.857,-130.347 528.08,-127.506 582.286,-125.486"/>
<polygon fill="#9a32cd" stroke="#9a32cd" points="396.674,-128.901 386.811,-132.771 396.935,-135.896 396.674,-128.901"/>
<text text-anchor="middle" x="489" y="-135" font-family="FreeSans" font-size="10.00"> ptr_</text>
</g>
<!-- Node24 -->
<g id="node56" class="node"><title>Node24</title>
<a xlink:href="a00292.html" target="_top" xlink:title="Urho3D::SharedPtr\&lt;\l Urho3D::Material \&gt;">
<polygon fill="none" stroke="black" points="591,-0 591,-34 707,-34 707,-0 591,-0"/>
<text text-anchor="start" x="599" y="-21" font-family="FreeSans" font-size="10.00">Urho3D::SharedPtr&lt;</text>
<text text-anchor="middle" x="649" y="-8" font-family="FreeSans" font-size="10.00"> Urho3D::Material &gt;</text>
</a>
</g>
<!-- Node24&#45;&gt;Node2 -->
<g id="edge66" class="edge"><title>Node24&#45;&gt;Node2</title>
<path fill="none" stroke="#9a32cd" stroke-dasharray="5,2" d="M717.383,-22.7862C754.946,-28.8898 800.555,-41.3979 834,-67 876.555,-99.5756 899.895,-162.929 907.848,-188.206"/>
<polygon fill="#9a32cd" stroke="#9a32cd" points="717.428,-19.2537 707.019,-21.2289 716.388,-26.176 717.428,-19.2537"/>
<text text-anchor="middle" x="787" y="-71" font-family="FreeSans" font-size="10.00"> material_</text>
</g>
<!-- Node25 -->
<g id="node58" class="node"><title>Node25</title>
<a xlink:href="a00191.html" target="_top" xlink:title="Describes how to render 3D geometries.">
<polygon fill="none" stroke="red" points="278,-4.5 278,-25.5 376,-25.5 376,-4.5 278,-4.5"/>
<text text-anchor="middle" x="327" y="-12.5" font-family="FreeSans" font-size="10.00">Urho3D::Material</text>
</a>
</g>
<!-- Node25&#45;&gt;Node24 -->
<g id="edge68" class="edge"><title>Node25&#45;&gt;Node24</title>
<path fill="none" stroke="#9a32cd" stroke-dasharray="5,2" d="M386.41,-15.369C444.659,-15.7308 532.905,-16.2789 590.751,-16.6382"/>
<polygon fill="#9a32cd" stroke="#9a32cd" points="386.277,-11.8682 376.255,-15.3059 386.233,-18.8681 386.277,-11.8682"/>
<text text-anchor="middle" x="489" y="-21" font-family="FreeSans" font-size="10.00"> ptr_</text>
</g>
</g>
</svg>
