<?xml version="1.0" encoding="UTF-8" standalone="no"?>
<!DOCTYPE svg PUBLIC "-//W3C//DTD SVG 1.1//EN"
 "http://www.w3.org/Graphics/SVG/1.1/DTD/svg11.dtd">
<!-- Generated by graphviz version 2.26.3 (20100126.1600)
 -->
<!-- Title: Urho3D::PhysicsRaycastResult2D Pages: 1 -->
<!--zoomable 781 -->
<svg id="main" version="1.1" xmlns="http://www.w3.org/2000/svg" xmlns:xlink="http://www.w3.org/1999/xlink" xml:space="preserve" onload="init(evt)">
        <defs>
                <circle id="rim" cx="0" cy="0" r="7"/>
                <circle id="rim2" cx="0" cy="0" r="3.5"/>
                <g id="zoomPlus">
                        <use xlink:href="#rim" fill="#404040">
                                <set attributeName="fill" to="#808080" begin="zoomplus.mouseover" end="zoomplus.mouseout"/>
                        </use>
                        <path d="M-4,0h8M0,-4v8" fill="none" stroke="white" stroke-width="1.5" pointer-events="none"/>
                </g>
                <g id="zoomMin">
                        <use xlink:href="#rim" fill="#404040">
                                <set attributeName="fill" to="#808080" begin="zoomminus.mouseover" end="zoomminus.mouseout"/>
                        </use>
                        <path d="M-4,0h8" fill="none" stroke="white" stroke-width="1.5" pointer-events="none"/>
                </g>
                <g id="dirArrow">
                        <path fill="none" stroke="white" stroke-width="1.5" d="M0,-3.0v7 M-2.5,-0.5L0,-3.0L2.5,-0.5"/>
                </g>
               <g id="resetDef">
                       <use xlink:href="#rim2" fill="#404040">
                               <set attributeName="fill" to="#808080" begin="reset.mouseover" end="reset.mouseout"/>
                       </use>
               </g>
        </defs>

<script type="text/javascript">
var viewWidth = 2204;
var viewHeight = 781;
var sectionId = 'dynsection-0';
</script>
<script xlink:href="svgpan.js"/>
<svg id="graph" class="graph">
<g id="viewport">
<title>Urho3D::PhysicsRaycastResult2D</title>
<!-- Node1 -->
<g id="node1" class="node"><title>Node1</title>
<polygon fill="#bfbfbf" stroke="black" points="2022,-236.5 2022,-257.5 2196,-257.5 2196,-236.5 2022,-236.5"/>
<text text-anchor="middle" x="2109" y="-244.5" font-family="FreeSans" font-size="10.00">Urho3D::PhysicsRaycastResult2D</text>
</g>
<!-- Node2 -->
<g id="node2" class="node"><title>Node2</title>
<a xlink:href="a00270.html" target="_top" xlink:title="2D rigid body component.">
<polygon fill="none" stroke="black" points="1834.5,-275.5 1834.5,-296.5 1953.5,-296.5 1953.5,-275.5 1834.5,-275.5"/>
<text text-anchor="middle" x="1894" y="-283.5" font-family="FreeSans" font-size="10.00">Urho3D::RigidBody2D</text>
</a>
</g>
<!-- Node2&#45;&gt;Node1 -->
<g id="edge2" class="edge"><title>Node2&#45;&gt;Node1</title>
<path fill="none" stroke="#9a32cd" stroke-dasharray="5,2" d="M1961.83,-273.695C1990.48,-268.498 2023.5,-262.509 2051,-257.521"/>
<polygon fill="#9a32cd" stroke="#9a32cd" points="1961.11,-270.269 1951.9,-275.497 1962.36,-277.156 1961.11,-270.269"/>
<text text-anchor="middle" x="1988" y="-276" font-family="FreeSans" font-size="10.00"> body_</text>
</g>
<!-- Node3 -->
<g id="node4" class="node"><title>Node3</title>
<a xlink:href="a00097.html" target="_top" xlink:title="Base class for components. Components can be created to scene nodes.">
<polygon fill="none" stroke="black" points="1128,-349.5 1128,-370.5 1244,-370.5 1244,-349.5 1128,-349.5"/>
<text text-anchor="middle" x="1186" y="-357.5" font-family="FreeSans" font-size="10.00">Urho3D::Component</text>
</a>
</g>
<!-- Node3&#45;&gt;Node2 -->
<g id="edge4" class="edge"><title>Node3&#45;&gt;Node2</title>
<path fill="none" stroke="midnightblue" d="M1254.48,-349.474C1287.01,-344.679 1326.46,-339.159 1362,-335 1533.12,-314.978 1736,-298.214 1834.46,-290.521"/>
<polygon fill="midnightblue" stroke="midnightblue" points="1253.55,-346.073 1244.17,-351.003 1254.58,-352.997 1253.55,-346.073"/>
</g>
<!-- Node22 -->
<g id="node55" class="node"><title>Node22</title>
<a xlink:href="a00240.html" target="_top" xlink:title="2D physics simulation world component. Should be added only to the root scene node.">
<polygon fill="none" stroke="red" points="1362,-260.5 1362,-281.5 1496,-281.5 1496,-260.5 1362,-260.5"/>
<text text-anchor="middle" x="1429" y="-268.5" font-family="FreeSans" font-size="10.00">Urho3D::PhysicsWorld2D</text>
</a>
</g>
<!-- Node3&#45;&gt;Node22 -->
<g id="edge70" class="edge"><title>Node3&#45;&gt;Node22</title>
<path fill="none" stroke="midnightblue" d="M1238.59,-344.312C1240.5,-342.988 1242.31,-341.554 1244,-340 1258.63,-326.514 1246.3,-311.227 1262,-299 1277.54,-286.899 1322.57,-279.794 1361.96,-275.771"/>
<polygon fill="midnightblue" stroke="midnightblue" points="1236.64,-341.396 1229.74,-349.433 1240.15,-347.456 1236.64,-341.396"/>
</g>
<!-- Node4 -->
<g id="node6" class="node"><title>Node4</title>
<a xlink:href="a00283.html" target="_top" xlink:title="Base class for objects with automatic serialization through attributes.">
<polygon fill="none" stroke="black" points="619,-730.5 619,-751.5 733,-751.5 733,-730.5 619,-730.5"/>
<text text-anchor="middle" x="676" y="-738.5" font-family="FreeSans" font-size="10.00">Urho3D::Serializable</text>
</a>
</g>
<!-- Node4&#45;&gt;Node3 -->
<g id="edge6" class="edge"><title>Node4&#45;&gt;Node3</title>
<path fill="none" stroke="midnightblue" d="M743.285,-752.562C801.948,-759.102 887.236,-759.771 950,-723 1096.25,-637.315 1167.97,-420.926 1182.98,-370.581"/>
<polygon fill="midnightblue" stroke="midnightblue" points="743.363,-749.046 733.017,-751.327 742.527,-755.996 743.363,-749.046"/>
</g>
<!-- Node9 -->
<g id="node16" class="node"><title>Node9</title>
<a xlink:href="a00210.html" target="_top" xlink:title="Scene node that may contain components and child nodes.">
<polygon fill="none" stroke="red" points="968.5,-308.5 968.5,-329.5 1053.5,-329.5 1053.5,-308.5 968.5,-308.5"/>
<text text-anchor="middle" x="1011" y="-316.5" font-family="FreeSans" font-size="10.00">Urho3D::Node</text>
</a>
</g>
<!-- Node4&#45;&gt;Node9 -->
<g id="edge18" class="edge"><title>Node4&#45;&gt;Node9</title>
<path fill="none" stroke="midnightblue" d="M743.399,-731.929C822.144,-721.035 942.699,-703.318 950,-696 1003.38,-642.49 1010.06,-385.253 1010.89,-329.623"/>
<polygon fill="midnightblue" stroke="midnightblue" points="742.488,-728.521 733.06,-733.353 743.444,-735.455 742.488,-728.521"/>
</g>
<!-- Node5 -->
<g id="node8" class="node"><title>Node5</title>
<a xlink:href="a00216.html" target="_top" xlink:title="Base class for objects with type identification, subsystem access and event sending/receiving capabil...">
<polygon fill="none" stroke="red" points="304,-711.5 304,-732.5 394,-732.5 394,-711.5 304,-711.5"/>
<text text-anchor="middle" x="349" y="-719.5" font-family="FreeSans" font-size="10.00">Urho3D::Object</text>
</a>
</g>
<!-- Node5&#45;&gt;Node4 -->
<g id="edge8" class="edge"><title>Node5&#45;&gt;Node4</title>
<path fill="none" stroke="midnightblue" d="M404.119,-725.203C463.809,-728.671 558.567,-734.177 618.987,-737.687"/>
<polygon fill="midnightblue" stroke="midnightblue" points="404.311,-721.708 394.125,-724.622 403.905,-728.696 404.311,-721.708"/>
</g>
<!-- Node6 -->
<g id="node10" class="node"><title>Node6</title>
<a xlink:href="a00156.html" target="_top" xlink:title="Hash map template class.">
<polygon fill="none" stroke="red" points="276,-671.5 276,-692.5 422,-692.5 422,-671.5 276,-671.5"/>
<text text-anchor="middle" x="349" y="-679.5" font-family="FreeSans" font-size="10.00">Urho3D::HashMap&lt; T, U &gt;</text>
</a>
</g>
<!-- Node6&#45;&gt;Node4 -->
<g id="edge10" class="edge"><title>Node6&#45;&gt;Node4</title>
<path fill="none" stroke="#9a32cd" stroke-dasharray="5,2" d="M432.245,-685.396C470.777,-688.939 516.634,-696.008 556,-710 564.834,-713.14 565.263,-717.6 574,-721 588.126,-726.497 603.964,-730.54 618.87,-733.491"/>
<polygon fill="#9a32cd" stroke="#9a32cd" points="432.362,-681.893 422.1,-684.528 431.765,-688.867 432.362,-681.893"/>
<text text-anchor="middle" x="498" y="-714" font-family="FreeSans" font-size="10.00"> instanceDefaultValues_</text>
</g>
<!-- Node7 -->
<g id="node12" class="node"><title>Node7</title>
<a xlink:href="a00209.html" target="_top" xlink:title="Per&#45;object attribute state for network replication, allocated on demand.">
<polygon fill="none" stroke="red" points="286.5,-751.5 286.5,-772.5 411.5,-772.5 411.5,-751.5 286.5,-751.5"/>
<text text-anchor="middle" x="349" y="-759.5" font-family="FreeSans" font-size="10.00">Urho3D::NetworkState</text>
</a>
</g>
<!-- Node7&#45;&gt;Node4 -->
<g id="edge12" class="edge"><title>Node7&#45;&gt;Node4</title>
<path fill="none" stroke="#9a32cd" stroke-dasharray="5,2" d="M421.729,-757.329C481.147,-753.513 563.979,-748.194 618.751,-744.677"/>
<polygon fill="#9a32cd" stroke="#9a32cd" points="421.417,-753.842 411.662,-757.976 421.866,-760.828 421.417,-753.842"/>
<text text-anchor="middle" x="498" y="-759" font-family="FreeSans" font-size="10.00"> networkState_</text>
</g>
<!-- Node8 -->
<g id="node14" class="node"><title>Node8</title>
<a xlink:href="a00156.html" target="_top" xlink:title="Urho3D::HashMap\&lt; ShortString\lHash, Variant \&gt;">
<polygon fill="none" stroke="red" points="0,-574 0,-608 170,-608 170,-574 0,-574"/>
<text text-anchor="start" x="8" y="-595" font-family="FreeSans" font-size="10.00">Urho3D::HashMap&lt; ShortString</text>
<text text-anchor="middle" x="85" y="-582" font-family="FreeSans" font-size="10.00">Hash, Variant &gt;</text>
</a>
</g>
<!-- Node8&#45;&gt;Node7 -->
<g id="edge14" class="edge"><title>Node8&#45;&gt;Node7</title>
<path fill="none" stroke="#9a32cd" stroke-dasharray="5,2" d="M108.936,-615.297C143.062,-648.595 209.017,-708.128 276,-742 283.388,-745.736 291.56,-748.844 299.684,-751.408"/>
<polygon fill="#9a32cd" stroke="#9a32cd" points="111.331,-612.743 101.753,-608.214 106.416,-617.727 111.331,-612.743"/>
<text text-anchor="middle" x="223" y="-733" font-family="FreeSans" font-size="10.00"> previousVars_</text>
</g>
<!-- Node8&#45;&gt;Node9 -->
<g id="edge64" class="edge"><title>Node8&#45;&gt;Node9</title>
<path fill="none" stroke="#9a32cd" stroke-dasharray="5,2" d="M180.357,-598.637C382.138,-612.564 842.625,-631.833 950,-528 979.618,-499.359 1003.03,-367.939 1009.32,-329.555"/>
<polygon fill="#9a32cd" stroke="#9a32cd" points="180.582,-595.144 170.362,-597.936 180.092,-602.127 180.582,-595.144"/>
<text text-anchor="middle" x="498" y="-613" font-family="FreeSans" font-size="10.00"> vars_</text>
</g>
<!-- Node12 -->
<g id="node23" class="node"><title>Node12</title>
<a xlink:href="a00271.html" target="_top" xlink:title="Root scene node, represents the whole scene.">
<polygon fill="none" stroke="red" points="1141.5,-173.5 1141.5,-194.5 1230.5,-194.5 1230.5,-173.5 1141.5,-173.5"/>
<text text-anchor="middle" x="1186" y="-181.5" font-family="FreeSans" font-size="10.00">Urho3D::Scene</text>
</a>
</g>
<!-- Node8&#45;&gt;Node12 -->
<g id="edge32" class="edge"><title>Node8&#45;&gt;Node12</title>
<path fill="none" stroke="#9a32cd" stroke-dasharray="5,2" d="M90.7706,-564.128C116.336,-448.603 223.68,-0 349,-0 349,-0 349,-0 1011,-0 1107.33,-0 1166.71,-134.042 1182.04,-173.312"/>
<polygon fill="#9a32cd" stroke="#9a32cd" points="87.34,-563.432 88.6172,-573.95 94.1776,-564.931 87.34,-563.432"/>
<text text-anchor="middle" x="676" y="-4" font-family="FreeSans" font-size="10.00"> smoothingData_</text>
</g>
<!-- Node9&#45;&gt;Node3 -->
<g id="edge16" class="edge"><title>Node9&#45;&gt;Node3</title>
<path fill="none" stroke="#9a32cd" stroke-dasharray="5,2" d="M1063.71,-331.348C1088.31,-337.113 1117.3,-343.905 1140.88,-349.43"/>
<polygon fill="#9a32cd" stroke="#9a32cd" points="1064.34,-327.903 1053.81,-329.03 1062.75,-334.719 1064.34,-327.903"/>
<text text-anchor="middle" x="1091" y="-346" font-family="FreeSans" font-size="10.00"> node_</text>
</g>
<!-- Node9&#45;&gt;Node9 -->
<g id="edge54" class="edge"><title>Node9&#45;&gt;Node9</title>
<path fill="none" stroke="#9a32cd" stroke-dasharray="5,2" d="M996.349,-339.793C997.642,-344.529 1002.53,-348 1011,-348 1024.91,-348 1029.14,-338.653 1023.71,-329.708"/>
<polygon fill="#9a32cd" stroke="#9a32cd" points="999.837,-340.189 998.289,-329.708 992.963,-338.867 999.837,-340.189"/>
<text text-anchor="middle" x="1011" y="-352" font-family="FreeSans" font-size="10.00"> parent_</text>
</g>
<!-- Node9&#45;&gt;Node12 -->
<g id="edge26" class="edge"><title>Node9&#45;&gt;Node12</title>
<path fill="none" stroke="midnightblue" d="M1054.66,-304.553C1074.1,-296.105 1095.76,-283.574 1110,-266 1128.06,-243.705 1108.22,-224.785 1128,-204 1131.82,-199.988 1136.48,-196.78 1141.48,-194.216"/>
<polygon fill="midnightblue" stroke="midnightblue" points="1053.26,-301.343 1045.34,-308.377 1055.92,-307.82 1053.26,-301.343"/>
</g>
<!-- Node10 -->
<g id="node19" class="node"><title>Node10</title>
<a xlink:href="a00242.html" target="_top" xlink:title="Urho3D::PODVector\&lt;\l Urho3D::Node * \&gt;">
<polygon fill="none" stroke="black" points="616.5,-69 616.5,-103 735.5,-103 735.5,-69 616.5,-69"/>
<text text-anchor="start" x="624.5" y="-90" font-family="FreeSans" font-size="10.00">Urho3D::PODVector&lt;</text>
<text text-anchor="middle" x="676" y="-77" font-family="FreeSans" font-size="10.00"> Urho3D::Node * &gt;</text>
</a>
</g>
<!-- Node10&#45;&gt;Node9 -->
<g id="edge20" class="edge"><title>Node10&#45;&gt;Node9</title>
<path fill="none" stroke="#9a32cd" stroke-dasharray="5,2" d="M745.848,-84.9229C817.024,-85.3517 920.963,-90.6895 950,-117 978.293,-142.637 957.439,-164.309 968,-201 979.64,-241.44 998.169,-287.972 1006.58,-308.426"/>
<polygon fill="#9a32cd" stroke="#9a32cd" points="745.607,-81.4223 735.597,-84.8934 745.587,-88.4223 745.607,-81.4223"/>
<text text-anchor="middle" x="873" y="-121" font-family="FreeSans" font-size="10.00"> dependencyNodes_</text>
</g>
<!-- Node11 -->
<g id="node21" class="node"><title>Node11</title>
<a xlink:href="a00344.html" target="_top" xlink:title="Vector base class.">
<polygon fill="none" stroke="black" points="292,-127.5 292,-148.5 406,-148.5 406,-127.5 292,-127.5"/>
<text text-anchor="middle" x="349" y="-135.5" font-family="FreeSans" font-size="10.00">Urho3D::VectorBase</text>
</a>
</g>
<!-- Node11&#45;&gt;Node10 -->
<g id="edge22" class="edge"><title>Node11&#45;&gt;Node10</title>
<path fill="none" stroke="midnightblue" d="M416.275,-127.302C475.109,-117.946 559.751,-104.486 616.242,-95.5028"/>
<polygon fill="midnightblue" stroke="midnightblue" points="415.659,-123.856 406.333,-128.883 416.759,-130.769 415.659,-123.856"/>
</g>
<!-- Node15 -->
<g id="node33" class="node"><title>Node15</title>
<a xlink:href="a00340.html" target="_top" xlink:title="Urho3D::Vector\&lt; Urho3D\l::WeakPtr\&lt; Urho3D::Component \&gt; \&gt;">
<polygon fill="none" stroke="black" points="579,-529 579,-563 773,-563 773,-529 579,-529"/>
<text text-anchor="start" x="587" y="-550" font-family="FreeSans" font-size="10.00">Urho3D::Vector&lt; Urho3D</text>
<text text-anchor="middle" x="676" y="-537" font-family="FreeSans" font-size="10.00">::WeakPtr&lt; Urho3D::Component &gt; &gt;</text>
</a>
</g>
<!-- Node11&#45;&gt;Node15 -->
<g id="edge40" class="edge"><title>Node11&#45;&gt;Node15</title>
<path fill="none" stroke="midnightblue" d="M354.769,-158.229C374.088,-222.168 442.796,-421.486 574,-520 578.53,-523.402 583.459,-526.361 588.623,-528.934"/>
<polygon fill="midnightblue" stroke="midnightblue" points="358.097,-157.138 351.91,-148.537 351.383,-159.119 358.097,-157.138"/>
</g>
<!-- Node17 -->
<g id="node38" class="node"><title>Node17</title>
<a xlink:href="a00340.html" target="_top" xlink:title="Urho3D::Vector\&lt; Urho3D\l::SharedPtr\&lt; Urho3D::Component \&gt; \&gt;">
<polygon fill="none" stroke="black" points="574.5,-244 574.5,-278 777.5,-278 777.5,-244 574.5,-244"/>
<text text-anchor="start" x="582.5" y="-265" font-family="FreeSans" font-size="10.00">Urho3D::Vector&lt; Urho3D</text>
<text text-anchor="middle" x="676" y="-252" font-family="FreeSans" font-size="10.00">::SharedPtr&lt; Urho3D::Component &gt; &gt;</text>
</a>
</g>
<!-- Node11&#45;&gt;Node17 -->
<g id="edge46" class="edge"><title>Node11&#45;&gt;Node17</title>
<path fill="none" stroke="midnightblue" d="M379.283,-152.877C421.936,-173.407 502.5,-210.644 574,-235 583.341,-238.182 593.28,-241.178 603.149,-243.926"/>
<polygon fill="midnightblue" stroke="midnightblue" points="380.802,-149.724 370.276,-148.518 377.753,-156.025 380.802,-149.724"/>
</g>
<!-- Node20 -->
<g id="node49" class="node"><title>Node20</title>
<a xlink:href="a00340.html" target="_top" xlink:title="Urho3D::Vector\&lt; Urho3D\l::SharedPtr\&lt; Urho3D::Node \&gt; \&gt;">
<polygon fill="none" stroke="black" points="589.5,-121 589.5,-155 762.5,-155 762.5,-121 589.5,-121"/>
<text text-anchor="start" x="597.5" y="-142" font-family="FreeSans" font-size="10.00">Urho3D::Vector&lt; Urho3D</text>
<text text-anchor="middle" x="676" y="-129" font-family="FreeSans" font-size="10.00">::SharedPtr&lt; Urho3D::Node &gt; &gt;</text>
</a>
</g>
<!-- Node11&#45;&gt;Node20 -->
<g id="edge62" class="edge"><title>Node11&#45;&gt;Node20</title>
<path fill="none" stroke="midnightblue" d="M416.414,-138C466.525,-138 535.302,-138 589.472,-138"/>
<polygon fill="midnightblue" stroke="midnightblue" points="416.333,-134.5 406.333,-138 416.333,-141.5 416.333,-134.5"/>
</g>
<!-- Node25 -->
<g id="node63" class="node"><title>Node25</title>
<a xlink:href="a00340.html" target="_top" xlink:title="Urho3D::Vector\&lt; Urho3D\l::WeakPtr\&lt; Urho3D::Collision\lShape2D \&gt; \&gt;">
<polygon fill="none" stroke="black" points="796,-23.5 796,-70.5 950,-70.5 950,-23.5 796,-23.5"/>
<text text-anchor="start" x="804" y="-57.5" font-family="FreeSans" font-size="10.00">Urho3D::Vector&lt; Urho3D</text>
<text text-anchor="start" x="804" y="-44.5" font-family="FreeSans" font-size="10.00">::WeakPtr&lt; Urho3D::Collision</text>
<text text-anchor="middle" x="873" y="-31.5" font-family="FreeSans" font-size="10.00">Shape2D &gt; &gt;</text>
</a>
</g>
<!-- Node11&#45;&gt;Node25 -->
<g id="edge80" class="edge"><title>Node11&#45;&gt;Node25</title>
<path fill="none" stroke="midnightblue" d="M383.764,-123.558C400.632,-116.727 421.256,-108.635 440,-102 498.835,-81.1732 512.526,-70.78 574,-60 648.592,-46.9198 735.167,-44.5198 795.902,-44.8786"/>
<polygon fill="midnightblue" stroke="midnightblue" points="382.247,-120.396 374.309,-127.413 384.89,-126.878 382.247,-120.396"/>
</g>
<!-- Node12&#45;&gt;Node9 -->
<g id="edge24" class="edge"><title>Node12&#45;&gt;Node9</title>
<path fill="none" stroke="#9a32cd" stroke-dasharray="5,2" d="M1138.06,-198.584C1134.57,-200.231 1131.18,-202.034 1128,-204 1080.3,-233.539 1036.73,-285.716 1019.18,-308.197"/>
<polygon fill="#9a32cd" stroke="#9a32cd" points="1139.63,-201.721 1147.45,-194.582 1136.88,-195.282 1139.63,-201.721"/>
<text text-anchor="middle" x="1091" y="-253" font-family="FreeSans" font-size="10.00"> scene_</text>
</g>
<!-- Node13 -->
<g id="node26" class="node"><title>Node13</title>
<a xlink:href="a00314.html" target="_top" xlink:title="String class.">
<polygon fill="none" stroke="black" points="632,-173.5 632,-194.5 720,-194.5 720,-173.5 632,-173.5"/>
<text text-anchor="middle" x="676" y="-181.5" font-family="FreeSans" font-size="10.00">Urho3D::String</text>
</a>
</g>
<!-- Node13&#45;&gt;Node9 -->
<g id="edge52" class="edge"><title>Node13&#45;&gt;Node9</title>
<path fill="none" stroke="#9a32cd" stroke-dasharray="5,2" d="M730.271,-188.458C788.199,-195.233 880.959,-212.016 950,-253 973.882,-267.177 994.044,-293.547 1004.11,-308.301"/>
<polygon fill="#9a32cd" stroke="#9a32cd" points="730.551,-184.968 720.226,-187.343 729.779,-191.925 730.551,-184.968"/>
<text text-anchor="middle" x="873" y="-257" font-family="FreeSans" font-size="10.00"> name_</text>
</g>
<!-- Node13&#45;&gt;Node12 -->
<g id="edge28" class="edge"><title>Node13&#45;&gt;Node12</title>
<path fill="none" stroke="#9a32cd" stroke-dasharray="5,2" d="M730.4,-184C831.807,-184 1047.89,-184 1141.37,-184"/>
<polygon fill="#9a32cd" stroke="#9a32cd" points="730.367,-180.5 720.367,-184 730.367,-187.5 730.367,-180.5"/>
<text text-anchor="middle" x="1011" y="-188" font-family="FreeSans" font-size="10.00"> fileName_</text>
</g>
<!-- Node13&#45;&gt;Node13 -->
<g id="edge30" class="edge"><title>Node13&#45;&gt;Node13</title>
<path fill="none" stroke="#9a32cd" stroke-dasharray="5,2" d="M642.88,-203.679C644.655,-208.975 655.695,-213 676,-213 706.941,-213 716.369,-203.653 704.282,-194.708"/>
<polygon fill="#9a32cd" stroke="#9a32cd" points="646.052,-205.171 647.718,-194.708 639.891,-201.848 646.052,-205.171"/>
<text text-anchor="middle" x="676" y="-217" font-family="FreeSans" font-size="10.00"> EMPTY</text>
</g>
<!-- Node14 -->
<g id="node30" class="node"><title>Node14</title>
<a xlink:href="a00247.html" target="_top" xlink:title="Rotation represented as a four&#45;dimensional normalized vector.">
<polygon fill="none" stroke="black" points="619.5,-659.5 619.5,-680.5 732.5,-680.5 732.5,-659.5 619.5,-659.5"/>
<text text-anchor="middle" x="676" y="-667.5" font-family="FreeSans" font-size="10.00">Urho3D::Quaternion</text>
</a>
</g>
<!-- Node14&#45;&gt;Node9 -->
<g id="edge34" class="edge"><title>Node14&#45;&gt;Node9</title>
<path fill="none" stroke="#9a32cd" stroke-dasharray="5,2" d="M742.751,-668.316C818.921,-665.754 934.961,-659.646 950,-646 998.328,-602.149 1008.87,-380.872 1010.67,-329.613"/>
<polygon fill="#9a32cd" stroke="#9a32cd" points="742.627,-664.819 732.745,-668.64 742.853,-671.815 742.627,-664.819"/>
<text text-anchor="middle" x="873" y="-683" font-family="FreeSans" font-size="10.00"> worldRotation_</text>
<text text-anchor="middle" x="873" y="-670" font-family="FreeSans" font-size="10.00">rotation_</text>
</g>
<!-- Node14&#45;&gt;Node14 -->
<g id="edge36" class="edge"><title>Node14&#45;&gt;Node14</title>
<path fill="none" stroke="#9a32cd" stroke-dasharray="5,2" d="M642.88,-689.679C644.655,-694.975 655.695,-699 676,-699 706.941,-699 716.369,-689.653 704.282,-680.708"/>
<polygon fill="#9a32cd" stroke="#9a32cd" points="646.052,-691.171 647.718,-680.708 639.891,-687.848 646.052,-691.171"/>
<text text-anchor="middle" x="676" y="-703" font-family="FreeSans" font-size="10.00"> IDENTITY</text>
</g>
<!-- Node15&#45;&gt;Node9 -->
<g id="edge38" class="edge"><title>Node15&#45;&gt;Node9</title>
<path fill="none" stroke="#9a32cd" stroke-dasharray="5,2" d="M765.432,-525.427C769.738,-523.745 773.95,-521.939 778,-520 864.186,-478.734 880.456,-456.532 950,-391 970.985,-371.225 991.948,-344.61 1003,-329.906"/>
<polygon fill="#9a32cd" stroke="#9a32cd" points="764.078,-522.195 755.883,-528.91 766.477,-528.771 764.078,-522.195"/>
<text text-anchor="middle" x="873" y="-515" font-family="FreeSans" font-size="10.00"> listeners_</text>
</g>
<!-- Node16 -->
<g id="node36" class="node"><title>Node16</title>
<a xlink:href="a00345.html" target="_top" xlink:title="Dynamically sized buffer that can be read and written to as a stream.">
<polygon fill="none" stroke="red" points="616.5,-619.5 616.5,-640.5 735.5,-640.5 735.5,-619.5 616.5,-619.5"/>
<text text-anchor="middle" x="676" y="-627.5" font-family="FreeSans" font-size="10.00">Urho3D::VectorBuffer</text>
</a>
</g>
<!-- Node16&#45;&gt;Node9 -->
<g id="edge42" class="edge"><title>Node16&#45;&gt;Node9</title>
<path fill="none" stroke="#9a32cd" stroke-dasharray="5,2" d="M745.768,-632.714C816.875,-633.936 920.757,-630.951 950,-605 992.53,-567.258 1007.34,-376.596 1010.37,-329.52"/>
<polygon fill="#9a32cd" stroke="#9a32cd" points="745.596,-629.21 735.527,-632.506 745.454,-636.209 745.596,-629.21"/>
<text text-anchor="middle" x="873" y="-636" font-family="FreeSans" font-size="10.00"> attrBuffer_</text>
</g>
<!-- Node17&#45;&gt;Node9 -->
<g id="edge44" class="edge"><title>Node17&#45;&gt;Node9</title>
<path fill="none" stroke="#9a32cd" stroke-dasharray="5,2" d="M787.877,-268.477C838.004,-273.459 897.522,-281.648 950,-295 963.014,-298.311 976.991,-303.669 988.278,-308.483"/>
<polygon fill="#9a32cd" stroke="#9a32cd" points="787.946,-264.967 777.656,-267.492 787.275,-271.935 787.946,-264.967"/>
<text text-anchor="middle" x="873" y="-299" font-family="FreeSans" font-size="10.00"> components_</text>
</g>
<!-- Node18 -->
<g id="node41" class="node"><title>Node18</title>
<a xlink:href="a00342.html" target="_top" xlink:title="Three&#45;dimensional vector.">
<polygon fill="none" stroke="black" points="628,-367.5 628,-388.5 724,-388.5 724,-367.5 628,-367.5"/>
<text text-anchor="middle" x="676" y="-375.5" font-family="FreeSans" font-size="10.00">Urho3D::Vector3</text>
</a>
</g>
<!-- Node18&#45;&gt;Node9 -->
<g id="edge48" class="edge"><title>Node18&#45;&gt;Node9</title>
<path fill="none" stroke="#9a32cd" stroke-dasharray="5,2" d="M734.251,-370.058C789.891,-362.139 875.99,-349.016 950,-334 956.52,-332.677 963.396,-331.133 970.088,-329.548"/>
<polygon fill="#9a32cd" stroke="#9a32cd" points="733.638,-366.61 724.226,-371.475 734.618,-373.541 733.638,-366.61"/>
<text text-anchor="middle" x="873" y="-378" font-family="FreeSans" font-size="10.00"> scale_</text>
<text text-anchor="middle" x="873" y="-365" font-family="FreeSans" font-size="10.00">position_</text>
</g>
<!-- Node18&#45;&gt;Node18 -->
<g id="edge50" class="edge"><title>Node18&#45;&gt;Node18</title>
<path fill="none" stroke="#9a32cd" stroke-dasharray="5,2" d="M642.88,-397.679C644.655,-402.975 655.695,-407 676,-407 706.941,-407 716.369,-397.653 704.282,-388.708"/>
<polygon fill="#9a32cd" stroke="#9a32cd" points="646.052,-399.171 647.718,-388.708 639.891,-395.848 646.052,-399.171"/>
<text text-anchor="middle" x="676" y="-502" font-family="FreeSans" font-size="10.00"> ONE</text>
<text text-anchor="middle" x="676" y="-489" font-family="FreeSans" font-size="10.00">DOWN</text>
<text text-anchor="middle" x="676" y="-476" font-family="FreeSans" font-size="10.00">BACK</text>
<text text-anchor="middle" x="676" y="-463" font-family="FreeSans" font-size="10.00">RIGHT</text>
<text text-anchor="middle" x="676" y="-450" font-family="FreeSans" font-size="10.00">LEFT</text>
<text text-anchor="middle" x="676" y="-437" font-family="FreeSans" font-size="10.00">ZERO</text>
<text text-anchor="middle" x="676" y="-424" font-family="FreeSans" font-size="10.00">FORWARD</text>
<text text-anchor="middle" x="676" y="-411" font-family="FreeSans" font-size="10.00">UP</text>
</g>
<!-- Node19 -->
<g id="node46" class="node"><title>Node19</title>
<a xlink:href="a00315.html" target="_top" xlink:title="32&#45;bit hash value for a string.">
<polygon fill="none" stroke="black" points="619.5,-296.5 619.5,-317.5 732.5,-317.5 732.5,-296.5 619.5,-296.5"/>
<text text-anchor="middle" x="676" y="-304.5" font-family="FreeSans" font-size="10.00">Urho3D::StringHash</text>
</a>
</g>
<!-- Node19&#45;&gt;Node9 -->
<g id="edge56" class="edge"><title>Node19&#45;&gt;Node9</title>
<path fill="none" stroke="#9a32cd" stroke-dasharray="5,2" d="M742.882,-309.396C809.993,-311.8 911.342,-315.43 968.277,-317.47"/>
<polygon fill="#9a32cd" stroke="#9a32cd" points="742.947,-305.896 732.828,-309.036 742.696,-312.891 742.947,-305.896"/>
<text text-anchor="middle" x="873" y="-321" font-family="FreeSans" font-size="10.00"> nameHash_</text>
</g>
<!-- Node19&#45;&gt;Node19 -->
<g id="edge58" class="edge"><title>Node19&#45;&gt;Node19</title>
<path fill="none" stroke="#9a32cd" stroke-dasharray="5,2" d="M642.88,-326.679C644.655,-331.975 655.695,-336 676,-336 706.941,-336 716.369,-326.653 704.282,-317.708"/>
<polygon fill="#9a32cd" stroke="#9a32cd" points="646.052,-328.171 647.718,-317.708 639.891,-324.848 646.052,-328.171"/>
<text text-anchor="middle" x="676" y="-340" font-family="FreeSans" font-size="10.00"> ZERO</text>
</g>
<!-- Node20&#45;&gt;Node9 -->
<g id="edge60" class="edge"><title>Node20&#45;&gt;Node9</title>
<path fill="none" stroke="#9a32cd" stroke-dasharray="5,2" d="M772.84,-132.171C829.751,-133.659 900.088,-144.584 950,-183 971.327,-199.415 998.267,-278.937 1007.62,-308.18"/>
<polygon fill="#9a32cd" stroke="#9a32cd" points="772.799,-128.67 762.742,-132.001 772.681,-135.669 772.799,-128.67"/>
<text text-anchor="middle" x="873" y="-187" font-family="FreeSans" font-size="10.00"> children_</text>
</g>
<!-- Node21 -->
<g id="node53" class="node"><title>Node21</title>
<a xlink:href="a00353.html" target="_top" xlink:title="Urho3D::WeakPtr\&lt; Urho3D\l::PhysicsWorld2D \&gt;">
<polygon fill="none" stroke="black" points="1582,-338 1582,-372 1728,-372 1728,-338 1582,-338"/>
<text text-anchor="start" x="1590" y="-359" font-family="FreeSans" font-size="10.00">Urho3D::WeakPtr&lt; Urho3D</text>
<text text-anchor="middle" x="1655" y="-346" font-family="FreeSans" font-size="10.00">::PhysicsWorld2D &gt;</text>
</a>
</g>
<!-- Node21&#45;&gt;Node2 -->
<g id="edge66" class="edge"><title>Node21&#45;&gt;Node2</title>
<path fill="none" stroke="#9a32cd" stroke-dasharray="5,2" d="M1738.13,-343.301C1763.49,-338.589 1791.21,-332.265 1816,-324 1837.29,-316.902 1860.22,-305.194 1875.67,-296.646"/>
<polygon fill="#9a32cd" stroke="#9a32cd" points="1737.4,-339.878 1728.17,-345.093 1738.63,-346.767 1737.4,-339.878"/>
<text text-anchor="middle" x="1781" y="-346" font-family="FreeSans" font-size="10.00"> physicsWorld_</text>
</g>
<!-- Node22&#45;&gt;Node21 -->
<g id="edge68" class="edge"><title>Node22&#45;&gt;Node21</title>
<path fill="none" stroke="#9a32cd" stroke-dasharray="5,2" d="M1467.08,-285.153C1506.22,-299.702 1567.2,-322.365 1609.01,-337.906"/>
<polygon fill="#9a32cd" stroke="#9a32cd" points="1468.22,-281.842 1457.62,-281.639 1465.78,-288.403 1468.22,-281.842"/>
<text text-anchor="middle" x="1539" y="-325" font-family="FreeSans" font-size="10.00"> ptr_</text>
</g>
<!-- Node23 -->
<g id="node58" class="node"><title>Node23</title>
<a xlink:href="a00341.html" target="_top" xlink:title="Two&#45;dimensional vector.">
<polygon fill="none" stroke="black" points="1138,-213.5 1138,-234.5 1234,-234.5 1234,-213.5 1138,-213.5"/>
<text text-anchor="middle" x="1186" y="-221.5" font-family="FreeSans" font-size="10.00">Urho3D::Vector2</text>
</a>
</g>
<!-- Node23&#45;&gt;Node1 -->
<g id="edge82" class="edge"><title>Node23&#45;&gt;Node1</title>
<path fill="none" stroke="#9a32cd" stroke-dasharray="5,2" d="M1244.55,-224C1293.77,-224 1365.98,-224 1429,-224 1429,-224 1429,-224 1894,-224 1944.68,-224 2001.7,-230.396 2044.27,-236.442"/>
<polygon fill="#9a32cd" stroke="#9a32cd" points="1244.41,-220.5 1234.41,-224 1244.41,-227.5 1244.41,-220.5"/>
<text text-anchor="middle" x="1655" y="-241" font-family="FreeSans" font-size="10.00"> normal_</text>
<text text-anchor="middle" x="1655" y="-228" font-family="FreeSans" font-size="10.00">position_</text>
</g>
<!-- Node23&#45;&gt;Node22 -->
<g id="edge72" class="edge"><title>Node23&#45;&gt;Node22</title>
<path fill="none" stroke="#9a32cd" stroke-dasharray="5,2" d="M1244.03,-235.224C1283.55,-242.867 1335.52,-252.919 1374.31,-260.421"/>
<polygon fill="#9a32cd" stroke="#9a32cd" points="1244.49,-231.748 1234.01,-233.286 1243.16,-238.621 1244.49,-231.748"/>
<text text-anchor="middle" x="1303" y="-259" font-family="FreeSans" font-size="10.00"> gravity_</text>
</g>
<!-- Node23&#45;&gt;Node23 -->
<g id="edge74" class="edge"><title>Node23&#45;&gt;Node23</title>
<path fill="none" stroke="#9a32cd" stroke-dasharray="5,2" d="M1168.68,-244.427C1170.01,-249.349 1175.79,-253 1186,-253 1202.34,-253 1207.32,-243.653 1200.94,-234.708"/>
<polygon fill="#9a32cd" stroke="#9a32cd" points="1172.08,-245.254 1171.06,-234.708 1165.28,-243.584 1172.08,-245.254"/>
<text text-anchor="middle" x="1186" y="-322" font-family="FreeSans" font-size="10.00"> ONE</text>
<text text-anchor="middle" x="1186" y="-309" font-family="FreeSans" font-size="10.00">DOWN</text>
<text text-anchor="middle" x="1186" y="-296" font-family="FreeSans" font-size="10.00">RIGHT</text>
<text text-anchor="middle" x="1186" y="-283" font-family="FreeSans" font-size="10.00">LEFT</text>
<text text-anchor="middle" x="1186" y="-270" font-family="FreeSans" font-size="10.00">ZERO</text>
<text text-anchor="middle" x="1186" y="-257" font-family="FreeSans" font-size="10.00">UP</text>
</g>
<!-- Node24 -->
<g id="node61" class="node"><title>Node24</title>
<a xlink:href="a00255.html" target="_top" xlink:title="Reference count structure.">
<polygon fill="none" stroke="black" points="1378,-344.5 1378,-365.5 1480,-365.5 1480,-344.5 1378,-344.5"/>
<text text-anchor="middle" x="1429" y="-352.5" font-family="FreeSans" font-size="10.00">Urho3D::RefCount</text>
</a>
</g>
<!-- Node24&#45;&gt;Node21 -->
<g id="edge76" class="edge"><title>Node24&#45;&gt;Node21</title>
<path fill="none" stroke="#9a32cd" stroke-dasharray="5,2" d="M1490.15,-355C1518.45,-355 1552.27,-355 1581.9,-355"/>
<polygon fill="#9a32cd" stroke="#9a32cd" points="1490,-351.5 1480,-355 1490,-358.5 1490,-351.5"/>
<text text-anchor="middle" x="1539" y="-359" font-family="FreeSans" font-size="10.00"> refCount_</text>
</g>
<!-- Node25&#45;&gt;Node2 -->
<g id="edge78" class="edge"><title>Node25&#45;&gt;Node2</title>
<path fill="none" stroke="#9a32cd" stroke-dasharray="5,2" d="M943.63,-73.6978C985.778,-87.2978 1040.72,-101 1091,-101 1091,-101 1091,-101 1655,-101 1769.65,-101 1862.7,-235.77 1887.5,-275.254"/>
<polygon fill="#9a32cd" stroke="#9a32cd" points="944.615,-70.3373 934.022,-70.5281 942.422,-76.9849 944.615,-70.3373"/>
<text text-anchor="middle" x="1303" y="-105" font-family="FreeSans" font-size="10.00"> collisionShapes_</text>
</g>
</g>
</svg>
        <g id="navigator" transform="translate(0 0)" fill="#404254">
                <rect fill="#f2f5e9" fill-opacity="0.5" stroke="#606060" stroke-width=".5" x="0" y="0" width="60" height="60"/>
                <use id="zoomplus" xlink:href="#zoomPlus" x="17" y="9" onmousedown="handleZoom(evt,'in')"/>
                <use id="zoomminus" xlink:href="#zoomMin" x="42" y="9" onmousedown="handleZoom(evt,'out')"/>
                <use id="reset" xlink:href="#resetDef" x="30" y="36" onmousedown="handleReset()"/>
                <g id="arrowUp" xlink:href="#dirArrow" transform="translate(30 24)" onmousedown="handlePan(0,-1)">
                  <use xlink:href="#rim" fill="#404040">
                        <set attributeName="fill" to="#808080" begin="arrowUp.mouseover" end="arrowUp.mouseout"/>
                  </use>
                  <path fill="none" stroke="white" stroke-width="1.5" d="M0,-3.0v7 M-2.5,-0.5L0,-3.0L2.5,-0.5"/>
                </g>
                <g id="arrowRight" xlink:href="#dirArrow" transform="rotate(90) translate(36 -43)" onmousedown="handlePan(1,0)">
                  <use xlink:href="#rim" fill="#404040">
                        <set attributeName="fill" to="#808080" begin="arrowRight.mouseover" end="arrowRight.mouseout"/>
                  </use>
                  <path fill="none" stroke="white" stroke-width="1.5" d="M0,-3.0v7 M-2.5,-0.5L0,-3.0L2.5,-0.5"/>
                </g>
                <g id="arrowDown" xlink:href="#dirArrow" transform="rotate(180) translate(-30 -48)" onmousedown="handlePan(0,1)">
                  <use xlink:href="#rim" fill="#404040">
                        <set attributeName="fill" to="#808080" begin="arrowDown.mouseover" end="arrowDown.mouseout"/>
                  </use>
                  <path fill="none" stroke="white" stroke-width="1.5" d="M0,-3.0v7 M-2.5,-0.5L0,-3.0L2.5,-0.5"/>
                </g>
                <g id="arrowLeft" xlink:href="#dirArrow" transform="rotate(270) translate(-36 17)" onmousedown="handlePan(-1,0)">
                  <use xlink:href="#rim" fill="#404040">
                        <set attributeName="fill" to="#808080" begin="arrowLeft.mouseover" end="arrowLeft.mouseout"/>
                  </use>
                  <path fill="none" stroke="white" stroke-width="1.5" d="M0,-3.0v7 M-2.5,-0.5L0,-3.0L2.5,-0.5"/>
                </g>
        </g>
        <svg viewBox="0 0 15 15" width="100%" height="30px" preserveAspectRatio="xMaxYMin meet">
         <g id="arrow_out" transform="scale(0.3 0.3)">
          <a xlink:href="a01564_org.svg" target="_base">
           <rect id="button" ry="5" rx="5" y="6" x="6" height="38" width="38"
                fill="#f2f5e9" fill-opacity="0.5" stroke="#606060" stroke-width="1.0"/>
           <path id="arrow"
             d="M 11.500037,31.436501 C 11.940474,20.09759 22.043105,11.32322 32.158766,21.979434 L 37.068811,17.246167 C 37.068811,17.246167 37.088388,32 37.088388,32 L 22.160133,31.978069 C 22.160133,31.978069 26.997745,27.140456 26.997745,27.140456 C 18.528582,18.264221 13.291696,25.230495 11.500037,31.436501 z"
             style="fill:#404040;"/>
          </a>
         </g>
        </svg>
</svg>
