<?xml version="1.0" encoding="UTF-8" standalone="no"?>
<!DOCTYPE svg PUBLIC "-//W3C//DTD SVG 1.1//EN"
 "http://www.w3.org/Graphics/SVG/1.1/DTD/svg11.dtd">
<!-- Generated by graphviz version 2.26.3 (20100126.1600)
 -->
<!-- Title: Urho3D::SpriteSheet2D Pages: 1 -->
<svg width="1766pt" height="832pt"
 viewBox="0.00 0.00 1766.00 831.80" xmlns="http://www.w3.org/2000/svg" xmlns:xlink="http://www.w3.org/1999/xlink">
<g id="graph1" class="graph" transform="scale(1 1) rotate(0) translate(4 827.797)">
<title>Urho3D::SpriteSheet2D</title>
<!-- Node1 -->
<g id="node1" class="node"><title>Node1</title>
<polygon fill="#bfbfbf" stroke="black" points="1628,-589.297 1628,-610.297 1758,-610.297 1758,-589.297 1628,-589.297"/>
<text text-anchor="middle" x="1693" y="-597.297" font-family="FreeSans" font-size="10.00">Urho3D::SpriteSheet2D</text>
</g>
<!-- Node2 -->
<g id="node2" class="node"><title>Node2</title>
<a xlink:href="a00264.html" target="_top" xlink:title="Base class for resources.">
<polygon fill="none" stroke="black" points="664.5,-696.297 664.5,-717.297 767.5,-717.297 767.5,-696.297 664.5,-696.297"/>
<text text-anchor="middle" x="716" y="-704.297" font-family="FreeSans" font-size="10.00">Urho3D::Resource</text>
</a>
</g>
<!-- Node2&#45;&gt;Node1 -->
<g id="edge2" class="edge"><title>Node2&#45;&gt;Node1</title>
<path fill="none" stroke="midnightblue" d="M777.869,-706.518C849.058,-706.223 969.473,-705.797 1073,-705.797 1073,-705.797 1073,-705.797 1487,-705.797 1569.85,-705.797 1652.75,-637.159 1681.98,-610.348"/>
<polygon fill="midnightblue" stroke="midnightblue" points="777.716,-703.019 767.731,-706.561 777.745,-710.019 777.716,-703.019"/>
</g>
<!-- Node24 -->
<g id="node59" class="node"><title>Node24</title>
<a xlink:href="a00322.html" target="_top" xlink:title="Base class for texture resources.">
<polygon fill="none" stroke="red" points="1026,-656.297 1026,-677.297 1120,-677.297 1120,-656.297 1026,-656.297"/>
<text text-anchor="middle" x="1073" y="-664.297" font-family="FreeSans" font-size="10.00">Urho3D::Texture</text>
</a>
</g>
<!-- Node2&#45;&gt;Node24 -->
<g id="edge74" class="edge"><title>Node2&#45;&gt;Node24</title>
<path fill="none" stroke="midnightblue" d="M777.908,-698.327C794.791,-696.105 813.089,-693.779 830,-691.797 898.027,-683.824 976.933,-675.961 1025.92,-671.242"/>
<polygon fill="midnightblue" stroke="midnightblue" points="777.057,-694.909 767.604,-699.692 777.977,-701.848 777.057,-694.909"/>
</g>
<!-- Node3 -->
<g id="node4" class="node"><title>Node3</title>
<a xlink:href="a00216.html" target="_top" xlink:title="Base class for objects with type identification, subsystem access and event sending/receiving capabil...">
<polygon fill="none" stroke="black" points="420,-561.297 420,-582.297 510,-582.297 510,-561.297 420,-561.297"/>
<text text-anchor="middle" x="465" y="-569.297" font-family="FreeSans" font-size="10.00">Urho3D::Object</text>
</a>
</g>
<!-- Node3&#45;&gt;Node2 -->
<g id="edge4" class="edge"><title>Node3&#45;&gt;Node2</title>
<path fill="none" stroke="midnightblue" d="M486.957,-588.606C501.552,-599.376 521.389,-613.259 540,-623.797 566.31,-638.694 574.604,-639.004 602,-651.797 634.455,-666.951 671.797,-685.105 694.646,-696.295"/>
<polygon fill="midnightblue" stroke="midnightblue" points="488.709,-585.546 478.605,-582.36 484.517,-591.152 488.709,-585.546"/>
</g>
<!-- Node14 -->
<g id="node31" class="node"><title>Node14</title>
<a xlink:href="a00133.html" target="_top" xlink:title="Internal helper class for invoking event handler functions.">
<polygon fill="none" stroke="red" points="654,-562.297 654,-583.297 778,-583.297 778,-562.297 654,-562.297"/>
<text text-anchor="middle" x="716" y="-570.297" font-family="FreeSans" font-size="10.00">Urho3D::EventHandler</text>
</a>
</g>
<!-- Node3&#45;&gt;Node14 -->
<g id="edge38" class="edge"><title>Node3&#45;&gt;Node14</title>
<path fill="none" stroke="#9a32cd" stroke-dasharray="5,2" d="M520.391,-572.017C559.822,-572.175 612.85,-572.386 653.746,-572.549"/>
<polygon fill="#9a32cd" stroke="#9a32cd" points="520.178,-568.517 510.164,-571.977 520.15,-575.517 520.178,-568.517"/>
<text text-anchor="middle" x="571" y="-589.797" font-family="FreeSans" font-size="10.00"> sender_</text>
<text text-anchor="middle" x="571" y="-576.797" font-family="FreeSans" font-size="10.00">receiver_</text>
</g>
<!-- Node4 -->
<g id="node6" class="node"><title>Node4</title>
<a xlink:href="a00256.html" target="_top" xlink:title="Base class for intrusively reference&#45;counted objects. These are noncopyable and non&#45;assignable.">
<polygon fill="none" stroke="black" points="198,-138.297 198,-159.297 312,-159.297 312,-138.297 198,-138.297"/>
<text text-anchor="middle" x="255" y="-146.297" font-family="FreeSans" font-size="10.00">Urho3D::RefCounted</text>
</a>
</g>
<!-- Node4&#45;&gt;Node3 -->
<g id="edge6" class="edge"><title>Node4&#45;&gt;Node3</title>
<path fill="none" stroke="midnightblue" d="M269.601,-167.311C283.865,-185.833 305.742,-215.428 322,-242.797 331.339,-258.519 327.447,-266.498 340,-279.797 357.483,-298.318 374.213,-287.81 390,-307.797 422.783,-349.299 455.109,-517.353 463.117,-561.26"/>
<polygon fill="midnightblue" stroke="midnightblue" points="272.35,-165.145 263.449,-159.398 266.823,-169.441 272.35,-165.145"/>
</g>
<!-- Node6 -->
<g id="node10" class="node"><title>Node6</title>
<a xlink:href="a00107.html" target="_top" xlink:title="Urho3D execution context. Provides access to subsystems, object factories and attributes, and event receivers.">
<polygon fill="none" stroke="red" points="1024.5,-316.297 1024.5,-337.297 1121.5,-337.297 1121.5,-316.297 1024.5,-316.297"/>
<text text-anchor="middle" x="1073" y="-324.297" font-family="FreeSans" font-size="10.00">Urho3D::Context</text>
</a>
</g>
<!-- Node4&#45;&gt;Node6 -->
<g id="edge12" class="edge"><title>Node4&#45;&gt;Node6</title>
<path fill="none" stroke="midnightblue" d="M283.102,-133.463C387.129,-78.9917 755.975,93.5638 982,-66.7968 1025.39,-97.5827 1062.1,-271.259 1070.96,-316.187"/>
<polygon fill="midnightblue" stroke="midnightblue" points="281.346,-130.433 274.146,-138.206 284.622,-136.619 281.346,-130.433"/>
</g>
<!-- Node5 -->
<g id="node8" class="node"><title>Node5</title>
<a xlink:href="a00255.html" target="_top" xlink:title="Reference count structure.">
<polygon fill="none" stroke="black" points="0,-138.297 0,-159.297 102,-159.297 102,-138.297 0,-138.297"/>
<text text-anchor="middle" x="51" y="-146.297" font-family="FreeSans" font-size="10.00">Urho3D::RefCount</text>
</a>
</g>
<!-- Node5&#45;&gt;Node4 -->
<g id="edge8" class="edge"><title>Node5&#45;&gt;Node4</title>
<path fill="none" stroke="#9a32cd" stroke-dasharray="5,2" d="M112.345,-148.797C139.414,-148.797 171.051,-148.797 197.643,-148.797"/>
<polygon fill="#9a32cd" stroke="#9a32cd" points="112.215,-145.297 102.214,-148.797 112.214,-152.297 112.215,-145.297"/>
<text text-anchor="middle" x="145" y="-152.797" font-family="FreeSans" font-size="10.00"> refCount_</text>
</g>
<!-- Node6&#45;&gt;Node3 -->
<g id="edge10" class="edge"><title>Node6&#45;&gt;Node3</title>
<path fill="none" stroke="#9a32cd" stroke-dasharray="5,2" d="M1065.5,-347.19C1053.09,-377.96 1025.28,-435.837 982,-465.797 846.981,-559.268 781.121,-508.063 620,-539.797 582.931,-547.098 540.967,-555.788 510.06,-562.268"/>
<polygon fill="#9a32cd" stroke="#9a32cd" points="1068.9,-348.116 1069.25,-337.527 1062.37,-345.585 1068.9,-348.116"/>
<text text-anchor="middle" x="716" y="-543.797" font-family="FreeSans" font-size="10.00"> context_</text>
</g>
<!-- Node7 -->
<g id="node13" class="node"><title>Node7</title>
<a xlink:href="a00156.html" target="_top" xlink:title="Urho3D::HashMap\&lt; Urho3D\l::ShortStringHash, Urho3D\l::Vector\&lt; Urho3D::AttributeInfo \&gt; \&gt;">
<polygon fill="none" stroke="black" points="621.5,-369.297 621.5,-416.297 810.5,-416.297 810.5,-369.297 621.5,-369.297"/>
<text text-anchor="start" x="629.5" y="-403.297" font-family="FreeSans" font-size="10.00">Urho3D::HashMap&lt; Urho3D</text>
<text text-anchor="start" x="629.5" y="-390.297" font-family="FreeSans" font-size="10.00">::ShortStringHash, Urho3D</text>
<text text-anchor="middle" x="716" y="-377.297" font-family="FreeSans" font-size="10.00">::Vector&lt; Urho3D::AttributeInfo &gt; &gt;</text>
</a>
</g>
<!-- Node7&#45;&gt;Node6 -->
<g id="edge14" class="edge"><title>Node7&#45;&gt;Node6</title>
<path fill="none" stroke="#9a32cd" stroke-dasharray="5,2" d="M820.779,-373.558C869.76,-364.549 928.871,-353.653 982,-343.797 995.748,-341.246 1010.66,-338.466 1024.36,-335.907"/>
<polygon fill="#9a32cd" stroke="#9a32cd" points="820.007,-370.141 810.805,-375.393 821.273,-377.026 820.007,-370.141"/>
<text text-anchor="middle" x="906" y="-388.797" font-family="FreeSans" font-size="10.00"> attributes_</text>
<text text-anchor="middle" x="906" y="-375.797" font-family="FreeSans" font-size="10.00">networkAttributes_</text>
</g>
<!-- Node8 -->
<g id="node15" class="node"><title>Node8</title>
<a xlink:href="a00154.html" target="_top" xlink:title="Hash set/map base class.">
<polygon fill="none" stroke="black" points="411,-283.297 411,-304.297 519,-304.297 519,-283.297 411,-283.297"/>
<text text-anchor="middle" x="465" y="-291.297" font-family="FreeSans" font-size="10.00">Urho3D::HashBase</text>
</a>
</g>
<!-- Node8&#45;&gt;Node7 -->
<g id="edge16" class="edge"><title>Node8&#45;&gt;Node7</title>
<path fill="none" stroke="midnightblue" d="M497.916,-308.622C529.103,-322.476 577.38,-343.422 620,-359.797 628.226,-362.957 636.9,-366.142 645.535,-369.221"/>
<polygon fill="midnightblue" stroke="midnightblue" points="498.978,-305.264 488.42,-304.389 496.128,-311.657 498.978,-305.264"/>
</g>
<!-- Node12 -->
<g id="node25" class="node"><title>Node12</title>
<a xlink:href="a00156.html" target="_top" xlink:title="Urho3D::HashMap\&lt; Urho3D\l::ShortStringHash, Urho3D\l::SharedPtr\&lt; Urho3D::Object \&gt; \&gt;">
<polygon fill="none" stroke="black" points="627,-303.297 627,-350.297 805,-350.297 805,-303.297 627,-303.297"/>
<text text-anchor="start" x="635" y="-337.297" font-family="FreeSans" font-size="10.00">Urho3D::HashMap&lt; Urho3D</text>
<text text-anchor="start" x="635" y="-324.297" font-family="FreeSans" font-size="10.00">::ShortStringHash, Urho3D</text>
<text text-anchor="middle" x="716" y="-311.297" font-family="FreeSans" font-size="10.00">::SharedPtr&lt; Urho3D::Object &gt; &gt;</text>
</a>
</g>
<!-- Node8&#45;&gt;Node12 -->
<g id="edge30" class="edge"><title>Node8&#45;&gt;Node12</title>
<path fill="none" stroke="midnightblue" d="M529.377,-302.261C559.034,-306.16 594.716,-310.851 626.901,-315.083"/>
<polygon fill="midnightblue" stroke="midnightblue" points="529.525,-298.75 519.154,-300.917 528.613,-305.69 529.525,-298.75"/>
</g>
<!-- Node13 -->
<g id="node28" class="node"><title>Node13</title>
<a xlink:href="a00156.html" target="_top" xlink:title="Urho3D::HashMap\&lt; Urho3D\l::String, Urho3D::Vector\l\&lt; Urho3D::ShortStringHash \&gt; \&gt;">
<polygon fill="none" stroke="black" points="629.5,-237.297 629.5,-284.297 802.5,-284.297 802.5,-237.297 629.5,-237.297"/>
<text text-anchor="start" x="637.5" y="-271.297" font-family="FreeSans" font-size="10.00">Urho3D::HashMap&lt; Urho3D</text>
<text text-anchor="start" x="637.5" y="-258.297" font-family="FreeSans" font-size="10.00">::String, Urho3D::Vector</text>
<text text-anchor="middle" x="716" y="-245.297" font-family="FreeSans" font-size="10.00">&lt; Urho3D::ShortStringHash &gt; &gt;</text>
</a>
</g>
<!-- Node8&#45;&gt;Node13 -->
<g id="edge34" class="edge"><title>Node8&#45;&gt;Node13</title>
<path fill="none" stroke="midnightblue" d="M529.221,-285.353C559.668,-281.35 596.493,-276.509 629.37,-272.186"/>
<polygon fill="midnightblue" stroke="midnightblue" points="528.613,-281.903 519.154,-286.677 529.525,-288.843 528.613,-281.903"/>
</g>
<!-- Node16 -->
<g id="node37" class="node"><title>Node16</title>
<a xlink:href="a00156.html" target="_top" xlink:title="Urho3D::HashMap\&lt; Urho3D\l::StringHash, Urho3D::\lHashSet\&lt; Urho3D::Object * \&gt; \&gt;">
<polygon fill="none" stroke="black" points="629.5,-171.297 629.5,-218.297 802.5,-218.297 802.5,-171.297 629.5,-171.297"/>
<text text-anchor="start" x="637.5" y="-205.297" font-family="FreeSans" font-size="10.00">Urho3D::HashMap&lt; Urho3D</text>
<text text-anchor="start" x="637.5" y="-192.297" font-family="FreeSans" font-size="10.00">::StringHash, Urho3D::</text>
<text text-anchor="middle" x="716" y="-179.297" font-family="FreeSans" font-size="10.00">HashSet&lt; Urho3D::Object * &gt; &gt;</text>
</a>
</g>
<!-- Node8&#45;&gt;Node16 -->
<g id="edge46" class="edge"><title>Node8&#45;&gt;Node16</title>
<path fill="none" stroke="midnightblue" d="M497.916,-278.971C529.103,-265.118 577.38,-244.172 620,-227.797 628.226,-224.636 636.9,-221.452 645.535,-218.373"/>
<polygon fill="midnightblue" stroke="midnightblue" points="496.128,-275.936 488.42,-283.205 498.978,-282.33 496.128,-275.936"/>
</g>
<!-- Node17 -->
<g id="node40" class="node"><title>Node17</title>
<a xlink:href="a00156.html" target="_top" xlink:title="Urho3D::HashMap\&lt; Urho3D\l::Object *, Urho3D::HashMap\l\&lt; Urho3D::StringHash, Urho3D\l::HashSet\&lt; Urho3D::Object * \&gt; \&gt; \&gt;">
<polygon fill="none" stroke="black" points="620.5,-434.797 620.5,-494.797 811.5,-494.797 811.5,-434.797 620.5,-434.797"/>
<text text-anchor="start" x="628.5" y="-481.797" font-family="FreeSans" font-size="10.00">Urho3D::HashMap&lt; Urho3D</text>
<text text-anchor="start" x="628.5" y="-468.797" font-family="FreeSans" font-size="10.00">::Object *, Urho3D::HashMap</text>
<text text-anchor="start" x="628.5" y="-455.797" font-family="FreeSans" font-size="10.00">&lt; Urho3D::StringHash, Urho3D</text>
<text text-anchor="middle" x="716" y="-442.797" font-family="FreeSans" font-size="10.00">::HashSet&lt; Urho3D::Object * &gt; &gt; &gt;</text>
</a>
</g>
<!-- Node8&#45;&gt;Node17 -->
<g id="edge50" class="edge"><title>Node8&#45;&gt;Node17</title>
<path fill="none" stroke="midnightblue" d="M482.162,-311.713C509.298,-339.234 564.728,-392.239 620,-425.797 625.074,-428.878 630.436,-431.812 635.926,-434.587"/>
<polygon fill="midnightblue" stroke="midnightblue" points="484.468,-309.066 474.98,-304.352 479.458,-313.954 484.468,-309.066"/>
</g>
<!-- Node21 -->
<g id="node52" class="node"><title>Node21</title>
<a xlink:href="a00156.html" target="_top" xlink:title="Urho3D::HashMap\&lt; Urho3D\l::String, Urho3D::SharedPtr\l\&lt; Urho3D::Sprite2D \&gt; \&gt;">
<polygon fill="none" stroke="black" points="830,-68.2968 830,-115.297 982,-115.297 982,-68.2968 830,-68.2968"/>
<text text-anchor="start" x="838" y="-102.297" font-family="FreeSans" font-size="10.00">Urho3D::HashMap&lt; Urho3D</text>
<text text-anchor="start" x="838" y="-89.2968" font-family="FreeSans" font-size="10.00">::String, Urho3D::SharedPtr</text>
<text text-anchor="middle" x="906" y="-76.2968" font-family="FreeSans" font-size="10.00">&lt; Urho3D::Sprite2D &gt; &gt;</text>
</a>
</g>
<!-- Node8&#45;&gt;Node21 -->
<g id="edge66" class="edge"><title>Node8&#45;&gt;Node21</title>
<path fill="none" stroke="midnightblue" d="M474.681,-273.944C495.172,-234.417 547.103,-146.533 620,-109.797 685.199,-76.9405 769.63,-75.8385 829.819,-80.8818"/>
<polygon fill="midnightblue" stroke="midnightblue" points="471.546,-272.387 470.155,-282.89 477.792,-275.547 471.546,-272.387"/>
</g>
<!-- Node9 -->
<g id="node17" class="node"><title>Node9</title>
<a xlink:href="a00157.html" target="_top" xlink:title="Hash set/map node base class.">
<polygon fill="none" stroke="black" points="188,-323.297 188,-344.297 322,-344.297 322,-323.297 188,-323.297"/>
<text text-anchor="middle" x="255" y="-331.297" font-family="FreeSans" font-size="10.00">Urho3D::HashNodeBase</text>
</a>
</g>
<!-- Node9&#45;&gt;Node8 -->
<g id="edge18" class="edge"><title>Node9&#45;&gt;Node8</title>
<path fill="none" stroke="#9a32cd" stroke-dasharray="5,2" d="M320.254,-321.367C349.363,-315.823 383.253,-309.368 410.92,-304.098"/>
<polygon fill="#9a32cd" stroke="#9a32cd" points="319.343,-317.978 310.175,-323.287 320.653,-324.854 319.343,-317.978"/>
<text text-anchor="middle" x="365" y="-347.797" font-family="FreeSans" font-size="10.00"> ptrs_</text>
<text text-anchor="middle" x="365" y="-334.797" font-family="FreeSans" font-size="10.00">tail_</text>
<text text-anchor="middle" x="365" y="-321.797" font-family="FreeSans" font-size="10.00">head_</text>
</g>
<!-- Node9&#45;&gt;Node9 -->
<g id="edge20" class="edge"><title>Node9&#45;&gt;Node9</title>
<path fill="none" stroke="#9a32cd" stroke-dasharray="5,2" d="M234.728,-354.223C236.292,-359.146 243.049,-362.797 255,-362.797 274.121,-362.797 279.947,-353.45 272.478,-344.505"/>
<polygon fill="#9a32cd" stroke="#9a32cd" points="238.123,-355.082 237.522,-344.505 231.395,-353.148 238.123,-355.082"/>
<text text-anchor="middle" x="255" y="-392.797" font-family="FreeSans" font-size="10.00"> next_</text>
<text text-anchor="middle" x="255" y="-379.797" font-family="FreeSans" font-size="10.00">prev_</text>
<text text-anchor="middle" x="255" y="-366.797" font-family="FreeSans" font-size="10.00">down_</text>
</g>
<!-- Node10 -->
<g id="node20" class="node"><title>Node10</title>
<a xlink:href="a00050.html" target="_top" xlink:title="Allocator memory block.">
<polygon fill="none" stroke="red" points="191.5,-252.297 191.5,-273.297 318.5,-273.297 318.5,-252.297 191.5,-252.297"/>
<text text-anchor="middle" x="255" y="-260.297" font-family="FreeSans" font-size="10.00">Urho3D::AllocatorBlock</text>
</a>
</g>
<!-- Node10&#45;&gt;Node8 -->
<g id="edge22" class="edge"><title>Node10&#45;&gt;Node8</title>
<path fill="none" stroke="#9a32cd" stroke-dasharray="5,2" d="M328.77,-273.687C355.797,-277.676 385.861,-282.114 410.856,-285.804"/>
<polygon fill="#9a32cd" stroke="#9a32cd" points="328.981,-270.18 318.577,-272.182 327.958,-277.105 328.981,-270.18"/>
<text text-anchor="middle" x="365" y="-286.797" font-family="FreeSans" font-size="10.00"> allocator_</text>
</g>
<!-- Node10&#45;&gt;Node10 -->
<g id="edge24" class="edge"><title>Node10&#45;&gt;Node10</title>
<path fill="none" stroke="#9a32cd" stroke-dasharray="5,2" d="M234.728,-283.223C236.292,-288.146 243.049,-291.797 255,-291.797 274.121,-291.797 279.947,-282.45 272.478,-273.505"/>
<polygon fill="#9a32cd" stroke="#9a32cd" points="238.123,-284.082 237.522,-273.505 231.395,-282.148 238.123,-284.082"/>
<text text-anchor="middle" x="255" y="-295.797" font-family="FreeSans" font-size="10.00"> next_</text>
</g>
<!-- Node11 -->
<g id="node23" class="node"><title>Node11</title>
<a xlink:href="a00242.html" target="_top" xlink:title="Urho3D::PODVector\&lt;\l Urho3D::Object * \&gt;">
<polygon fill="none" stroke="red" points="656.5,-118.797 656.5,-152.797 775.5,-152.797 775.5,-118.797 656.5,-118.797"/>
<text text-anchor="start" x="664.5" y="-139.797" font-family="FreeSans" font-size="10.00">Urho3D::PODVector&lt;</text>
<text text-anchor="middle" x="716" y="-126.797" font-family="FreeSans" font-size="10.00"> Urho3D::Object * &gt;</text>
</a>
</g>
<!-- Node11&#45;&gt;Node6 -->
<g id="edge26" class="edge"><title>Node11&#45;&gt;Node6</title>
<path fill="none" stroke="#9a32cd" stroke-dasharray="5,2" d="M785.709,-139.634C842.715,-145.701 923.22,-161.228 982,-200.797 1026.99,-231.084 1057.43,-291.486 1068.43,-316.042"/>
<polygon fill="#9a32cd" stroke="#9a32cd" points="786.002,-136.146 775.705,-138.64 785.31,-143.111 786.002,-136.146"/>
<text text-anchor="middle" x="906" y="-204.797" font-family="FreeSans" font-size="10.00"> eventSenders_</text>
</g>
<!-- Node12&#45;&gt;Node6 -->
<g id="edge28" class="edge"><title>Node12&#45;&gt;Node6</title>
<path fill="none" stroke="#9a32cd" stroke-dasharray="5,2" d="M815.497,-326.797C883.615,-326.797 970.963,-326.797 1024.41,-326.797"/>
<polygon fill="#9a32cd" stroke="#9a32cd" points="815.165,-323.297 805.165,-326.797 815.165,-330.297 815.165,-323.297"/>
<text text-anchor="middle" x="906" y="-330.797" font-family="FreeSans" font-size="10.00"> subsystems_</text>
</g>
<!-- Node13&#45;&gt;Node6 -->
<g id="edge32" class="edge"><title>Node13&#45;&gt;Node6</title>
<path fill="none" stroke="#9a32cd" stroke-dasharray="5,2" d="M812.493,-278.511C862.992,-287.798 925.839,-299.378 982,-309.797 995.748,-312.347 1010.66,-315.128 1024.36,-317.687"/>
<polygon fill="#9a32cd" stroke="#9a32cd" points="813.032,-275.052 802.564,-276.686 811.766,-281.937 813.032,-275.052"/>
<text text-anchor="middle" x="906" y="-313.797" font-family="FreeSans" font-size="10.00"> objectCategories_</text>
</g>
<!-- Node14&#45;&gt;Node6 -->
<g id="edge36" class="edge"><title>Node14&#45;&gt;Node6</title>
<path fill="none" stroke="#9a32cd" stroke-dasharray="5,2" d="M788.267,-563.951C864.363,-554.372 974.283,-539.676 982,-533.797 1048.82,-482.882 1067.52,-372.441 1071.85,-337.572"/>
<polygon fill="#9a32cd" stroke="#9a32cd" points="787.721,-560.492 778.234,-565.209 788.592,-567.437 787.721,-560.492"/>
<text text-anchor="middle" x="906" y="-561.797" font-family="FreeSans" font-size="10.00"> eventHandler_</text>
</g>
<!-- Node18 -->
<g id="node43" class="node"><title>Node18</title>
<a xlink:href="a00178.html" target="_top" xlink:title="Urho3D::LinkedList\l\&lt; Urho3D::EventHandler \&gt;">
<polygon fill="none" stroke="black" points="1000,-602.797 1000,-636.797 1146,-636.797 1146,-602.797 1000,-602.797"/>
<text text-anchor="start" x="1008" y="-623.797" font-family="FreeSans" font-size="10.00">Urho3D::LinkedList</text>
<text text-anchor="middle" x="1073" y="-610.797" font-family="FreeSans" font-size="10.00">&lt; Urho3D::EventHandler &gt;</text>
</a>
</g>
<!-- Node14&#45;&gt;Node18 -->
<g id="edge54" class="edge"><title>Node14&#45;&gt;Node18</title>
<path fill="none" stroke="#9a32cd" stroke-dasharray="5,2" d="M788.151,-574.069C841.961,-576.019 917.066,-580.864 982,-592.797 995.291,-595.239 1009.4,-598.887 1022.45,-602.718"/>
<polygon fill="#9a32cd" stroke="#9a32cd" points="788.134,-570.566 778.021,-573.726 787.897,-577.562 788.134,-570.566"/>
<text text-anchor="middle" x="906" y="-596.797" font-family="FreeSans" font-size="10.00"> head_</text>
</g>
<!-- Node15 -->
<g id="node34" class="node"><title>Node15</title>
<a xlink:href="a00315.html" target="_top" xlink:title="32&#45;bit hash value for a string.">
<polygon fill="none" stroke="black" points="408.5,-660.297 408.5,-681.297 521.5,-681.297 521.5,-660.297 408.5,-660.297"/>
<text text-anchor="middle" x="465" y="-668.297" font-family="FreeSans" font-size="10.00">Urho3D::StringHash</text>
</a>
</g>
<!-- Node15&#45;&gt;Node2 -->
<g id="edge62" class="edge"><title>Node15&#45;&gt;Node2</title>
<path fill="none" stroke="#9a32cd" stroke-dasharray="5,2" d="M529.475,-683.09C533.032,-683.687 536.558,-684.261 540,-684.797 581.685,-691.287 629.159,-697.131 664.288,-701.162"/>
<polygon fill="#9a32cd" stroke="#9a32cd" points="529.865,-679.605 519.415,-681.352 528.674,-686.503 529.865,-679.605"/>
<text text-anchor="middle" x="571" y="-696.797" font-family="FreeSans" font-size="10.00"> nameHash_</text>
</g>
<!-- Node15&#45;&gt;Node14 -->
<g id="edge40" class="edge"><title>Node15&#45;&gt;Node14</title>
<path fill="none" stroke="#9a32cd" stroke-dasharray="5,2" d="M493.783,-655.26C524.397,-639.209 574.575,-614.247 620,-597.797 635.384,-592.226 652.57,-587.347 668.103,-583.413"/>
<polygon fill="#9a32cd" stroke="#9a32cd" points="491.765,-652.367 484.561,-660.136 495.037,-658.555 491.765,-652.367"/>
<text text-anchor="middle" x="571" y="-634.797" font-family="FreeSans" font-size="10.00"> eventType_</text>
</g>
<!-- Node15&#45;&gt;Node15 -->
<g id="edge42" class="edge"><title>Node15&#45;&gt;Node15</title>
<path fill="none" stroke="#9a32cd" stroke-dasharray="5,2" d="M446.571,-691.223C447.993,-696.146 454.136,-699.797 465,-699.797 482.383,-699.797 487.679,-690.45 480.889,-681.505"/>
<polygon fill="#9a32cd" stroke="#9a32cd" points="449.969,-692.065 449.111,-681.505 443.196,-690.295 449.969,-692.065"/>
<text text-anchor="middle" x="465" y="-703.797" font-family="FreeSans" font-size="10.00"> ZERO</text>
</g>
<!-- Node16&#45;&gt;Node6 -->
<g id="edge44" class="edge"><title>Node16&#45;&gt;Node6</title>
<path fill="none" stroke="#9a32cd" stroke-dasharray="5,2" d="M812.462,-212.502C864.16,-223.963 928.12,-241.367 982,-265.797 1012.14,-279.463 1043.35,-302.732 1060.25,-316.237"/>
<polygon fill="#9a32cd" stroke="#9a32cd" points="813.141,-209.068 802.626,-210.36 811.652,-215.908 813.141,-209.068"/>
<text text-anchor="middle" x="906" y="-269.797" font-family="FreeSans" font-size="10.00"> eventReceivers_</text>
</g>
<!-- Node17&#45;&gt;Node6 -->
<g id="edge48" class="edge"><title>Node17&#45;&gt;Node6</title>
<path fill="none" stroke="#9a32cd" stroke-dasharray="5,2" d="M821.574,-451.19C872.002,-441.886 932.09,-426.583 982,-401.797 1015.56,-385.133 1047.64,-353.968 1063.21,-337.549"/>
<polygon fill="#9a32cd" stroke="#9a32cd" points="820.849,-447.764 811.623,-452.972 822.083,-454.654 820.849,-447.764"/>
<text text-anchor="middle" x="906" y="-452.797" font-family="FreeSans" font-size="10.00"> specificEventReceivers_</text>
</g>
<!-- Node18&#45;&gt;Node3 -->
<g id="edge52" class="edge"><title>Node18&#45;&gt;Node3</title>
<path fill="none" stroke="#9a32cd" stroke-dasharray="5,2" d="M989.486,-624.321C883.777,-628.268 696.582,-629.311 540,-598.797 522.206,-595.329 502.984,-588.34 488.454,-582.342"/>
<polygon fill="#9a32cd" stroke="#9a32cd" points="989.915,-627.807 999.771,-623.918 989.641,-620.812 989.915,-627.807"/>
<text text-anchor="middle" x="716" y="-628.797" font-family="FreeSans" font-size="10.00"> eventHandlers_</text>
</g>
<!-- Node19 -->
<g id="node46" class="node"><title>Node19</title>
<a xlink:href="a00329.html" target="_top" xlink:title="Low&#45;resolution operating system timer.">
<polygon fill="none" stroke="black" points="422,-802.297 422,-823.297 508,-823.297 508,-802.297 422,-802.297"/>
<text text-anchor="middle" x="465" y="-810.297" font-family="FreeSans" font-size="10.00">Urho3D::Timer</text>
</a>
</g>
<!-- Node19&#45;&gt;Node2 -->
<g id="edge56" class="edge"><title>Node19&#45;&gt;Node2</title>
<path fill="none" stroke="#9a32cd" stroke-dasharray="5,2" d="M506.088,-798.821C511.465,-796.863 516.882,-794.826 522,-792.797 585.19,-767.751 658.064,-734.137 693.841,-717.314"/>
<polygon fill="#9a32cd" stroke="#9a32cd" points="504.764,-795.578 496.526,-802.239 507.12,-802.169 504.764,-795.578"/>
<text text-anchor="middle" x="571" y="-787.797" font-family="FreeSans" font-size="10.00"> useTimer_</text>
</g>
<!-- Node20 -->
<g id="node48" class="node"><title>Node20</title>
<a xlink:href="a00314.html" target="_top" xlink:title="String class.">
<polygon fill="none" stroke="black" points="421,-731.297 421,-752.297 509,-752.297 509,-731.297 421,-731.297"/>
<text text-anchor="middle" x="465" y="-739.297" font-family="FreeSans" font-size="10.00">Urho3D::String</text>
</a>
</g>
<!-- Node20&#45;&gt;Node2 -->
<g id="edge58" class="edge"><title>Node20&#45;&gt;Node2</title>
<path fill="none" stroke="#9a32cd" stroke-dasharray="5,2" d="M519.009,-734.266C562.013,-728.269 621.821,-719.929 664.228,-714.016"/>
<polygon fill="#9a32cd" stroke="#9a32cd" points="518.429,-730.813 509.008,-735.66 519.396,-737.746 518.429,-730.813"/>
<text text-anchor="middle" x="571" y="-733.797" font-family="FreeSans" font-size="10.00"> name_</text>
</g>
<!-- Node20&#45;&gt;Node20 -->
<g id="edge60" class="edge"><title>Node20&#45;&gt;Node20</title>
<path fill="none" stroke="#9a32cd" stroke-dasharray="5,2" d="M446.571,-762.223C447.993,-767.146 454.136,-770.797 465,-770.797 482.383,-770.797 487.679,-761.45 480.889,-752.505"/>
<polygon fill="#9a32cd" stroke="#9a32cd" points="449.969,-763.065 449.111,-752.505 443.196,-761.295 449.969,-763.065"/>
<text text-anchor="middle" x="465" y="-774.797" font-family="FreeSans" font-size="10.00"> EMPTY</text>
</g>
<!-- Node21&#45;&gt;Node1 -->
<g id="edge64" class="edge"><title>Node21&#45;&gt;Node1</title>
<path fill="none" stroke="#9a32cd" stroke-dasharray="5,2" d="M957.771,-120.056C1015.73,-149.005 1113.32,-189.797 1203,-189.797 1203,-189.797 1203,-189.797 1487,-189.797 1671.41,-189.797 1690.75,-525.075 1692.77,-589.25"/>
<polygon fill="#9a32cd" stroke="#9a32cd" points="959.318,-116.916 948.815,-115.52 956.155,-123.161 959.318,-116.916"/>
<text text-anchor="middle" x="1314" y="-193.797" font-family="FreeSans" font-size="10.00"> spriteMapping_</text>
</g>
<!-- Node22 -->
<g id="node55" class="node"><title>Node22</title>
<a xlink:href="a00292.html" target="_top" xlink:title="Urho3D::SharedPtr\&lt;\l Urho3D::Texture2D \&gt;">
<polygon fill="none" stroke="black" points="1426,-582.797 1426,-616.797 1548,-616.797 1548,-582.797 1426,-582.797"/>
<text text-anchor="start" x="1434" y="-603.797" font-family="FreeSans" font-size="10.00">Urho3D::SharedPtr&lt;</text>
<text text-anchor="middle" x="1487" y="-590.797" font-family="FreeSans" font-size="10.00"> Urho3D::Texture2D &gt;</text>
</a>
</g>
<!-- Node22&#45;&gt;Node1 -->
<g id="edge68" class="edge"><title>Node22&#45;&gt;Node1</title>
<path fill="none" stroke="#9a32cd" stroke-dasharray="5,2" d="M1558.41,-599.797C1580.91,-599.797 1605.63,-599.797 1627.68,-599.797"/>
<polygon fill="#9a32cd" stroke="#9a32cd" points="1558.25,-596.297 1548.25,-599.797 1558.25,-603.297 1558.25,-596.297"/>
<text text-anchor="middle" x="1588" y="-603.797" font-family="FreeSans" font-size="10.00"> texture_</text>
</g>
<!-- Node23 -->
<g id="node57" class="node"><title>Node23</title>
<a xlink:href="a00323.html" target="_top" xlink:title="2D texture resource.">
<polygon fill="none" stroke="black" points="1260.5,-589.297 1260.5,-610.297 1367.5,-610.297 1367.5,-589.297 1260.5,-589.297"/>
<text text-anchor="middle" x="1314" y="-597.297" font-family="FreeSans" font-size="10.00">Urho3D::Texture2D</text>
</a>
</g>
<!-- Node23&#45;&gt;Node22 -->
<g id="edge70" class="edge"><title>Node23&#45;&gt;Node22</title>
<path fill="none" stroke="#9a32cd" stroke-dasharray="5,2" d="M1377.94,-599.797C1393.65,-599.797 1410.43,-599.797 1426,-599.797"/>
<polygon fill="#9a32cd" stroke="#9a32cd" points="1377.79,-596.297 1367.79,-599.797 1377.79,-603.297 1377.79,-596.297"/>
<text text-anchor="middle" x="1397" y="-603.797" font-family="FreeSans" font-size="10.00"> ptr_</text>
</g>
<!-- Node24&#45;&gt;Node23 -->
<g id="edge72" class="edge"><title>Node24&#45;&gt;Node23</title>
<path fill="none" stroke="midnightblue" d="M1120.56,-653.574C1166.07,-640.921 1233.84,-622.081 1275.9,-610.388"/>
<polygon fill="midnightblue" stroke="midnightblue" points="1119.62,-650.204 1110.92,-656.254 1121.49,-656.948 1119.62,-650.204"/>
</g>
<!-- Node25 -->
<g id="node62" class="node"><title>Node25</title>
<a xlink:href="a00292.html" target="_top" xlink:title="Urho3D::SharedPtr\&lt;\l Urho3D::RenderSurface \&gt;">
<polygon fill="none" stroke="red" points="1001.5,-550.797 1001.5,-584.797 1144.5,-584.797 1144.5,-550.797 1001.5,-550.797"/>
<text text-anchor="start" x="1009.5" y="-571.797" font-family="FreeSans" font-size="10.00">Urho3D::SharedPtr&lt;</text>
<text text-anchor="middle" x="1073" y="-558.797" font-family="FreeSans" font-size="10.00"> Urho3D::RenderSurface &gt;</text>
</a>
</g>
<!-- Node25&#45;&gt;Node23 -->
<g id="edge76" class="edge"><title>Node25&#45;&gt;Node23</title>
<path fill="none" stroke="#9a32cd" stroke-dasharray="5,2" d="M1154.81,-578.659C1189.61,-583.28 1229.22,-588.54 1260.23,-592.657"/>
<polygon fill="#9a32cd" stroke="#9a32cd" points="1155.03,-575.158 1144.66,-577.311 1154.11,-582.097 1155.03,-575.158"/>
<text text-anchor="middle" x="1203" y="-593.797" font-family="FreeSans" font-size="10.00"> renderSurface_</text>
</g>
</g>
</svg>
