<?xml version="1.0" encoding="UTF-8" standalone="no"?>
<!DOCTYPE svg PUBLIC "-//W3C//DTD SVG 1.1//EN"
 "http://www.w3.org/Graphics/SVG/1.1/DTD/svg11.dtd">
<!-- Generated by graphviz version 2.26.3 (20100126.1600)
 -->
<!-- Title: Urho3D::FontGlyph Pages: 1 -->
<svg width="573pt" height="362pt"
 viewBox="0.00 0.00 573.00 362.00" xmlns="http://www.w3.org/2000/svg" xmlns:xlink="http://www.w3.org/1999/xlink">
<g id="graph1" class="graph" transform="scale(1 1) rotate(0) translate(4 358)">
<title>Urho3D::FontGlyph</title>
<!-- Node1 -->
<g id="node1" class="node"><title>Node1</title>
<polygon fill="#bfbfbf" stroke="black" points="195.5,-0.5 195.5,-21.5 302.5,-21.5 302.5,-0.5 195.5,-0.5"/>
<text text-anchor="middle" x="249" y="-8.5" font-family="FreeSans" font-size="10.00">Urho3D::FontGlyph</text>
</g>
<!-- Node2 -->
<g id="node2" class="node"><title>Node2</title>
<a xlink:href="a00163.html" target="_top" xlink:title="Urho3D::HashMap\&lt; unsigned,\l unsigned \&gt;">
<polygon fill="none" stroke="black" points="76,-73 76,-107 238,-107 238,-73 76,-73"/>
<text text-anchor="start" x="84" y="-94" font-family="FreeSans" font-size="10.00">Urho3D::HashMap&lt; unsigned,</text>
<text text-anchor="middle" x="157" y="-81" font-family="FreeSans" font-size="10.00"> unsigned &gt;</text>
</a>
</g>
<!-- Node2&#45;&gt;Node1 -->
<g id="edge2" class="edge"><title>Node2&#45;&gt;Node1</title>
<path fill="none" stroke="#9a32cd" stroke-dasharray="5,2" d="M184.589,-66.3091C201.926,-51.422 223.441,-32.947 236.694,-21.5672"/>
<polygon fill="#9a32cd" stroke="#9a32cd" points="182.269,-63.6881 176.963,-72.8582 186.83,-68.9988 182.269,-63.6881"/>
<text text-anchor="middle" x="235" y="-44.5" font-family="FreeSans" font-size="10.00"> kerning_</text>
</g>
<!-- Node3 -->
<g id="node4" class="node"><title>Node3</title>
<a xlink:href="a00161.html" target="_top" xlink:title="Hash set/map base class.">
<polygon fill="none" stroke="black" points="103,-146.5 103,-167.5 211,-167.5 211,-146.5 103,-146.5"/>
<text text-anchor="middle" x="157" y="-154.5" font-family="FreeSans" font-size="10.00">Urho3D::HashBase</text>
</a>
</g>
<!-- Node3&#45;&gt;Node2 -->
<g id="edge4" class="edge"><title>Node3&#45;&gt;Node2</title>
<path fill="none" stroke="midnightblue" d="M157,-136.165C157,-126.797 157,-115.88 157,-107.014"/>
<polygon fill="midnightblue" stroke="midnightblue" points="153.5,-136.235 157,-146.235 160.5,-136.235 153.5,-136.235"/>
</g>
<!-- Node4 -->
<g id="node6" class="node"><title>Node4</title>
<a xlink:href="a00164.html" target="_top" xlink:title="Hash set/map node base class.">
<polygon fill="none" stroke="black" points="0,-252.5 0,-273.5 134,-273.5 134,-252.5 0,-252.5"/>
<text text-anchor="middle" x="67" y="-260.5" font-family="FreeSans" font-size="10.00">Urho3D::HashNodeBase</text>
</a>
</g>
<!-- Node4&#45;&gt;Node3 -->
<g id="edge6" class="edge"><title>Node4&#45;&gt;Node3</title>
<path fill="none" stroke="#9a32cd" stroke-dasharray="5,2" d="M82.5471,-244.689C101.477,-222.394 132.806,-185.495 148.078,-167.509"/>
<polygon fill="#9a32cd" stroke="#9a32cd" points="79.7629,-242.561 75.9586,-252.449 85.099,-247.091 79.7629,-242.561"/>
<text text-anchor="middle" x="145" y="-216.5" font-family="FreeSans" font-size="10.00"> ptrs_</text>
<text text-anchor="middle" x="145" y="-203.5" font-family="FreeSans" font-size="10.00">tail_</text>
<text text-anchor="middle" x="145" y="-190.5" font-family="FreeSans" font-size="10.00">head_</text>
</g>
<!-- Node4&#45;&gt;Node4 -->
<g id="edge8" class="edge"><title>Node4&#45;&gt;Node4</title>
<path fill="none" stroke="#9a32cd" stroke-dasharray="5,2" d="M144.188,-268.804C149.061,-267.439 152,-265.505 152,-263 152,-259.09 144.84,-256.57 134.337,-255.439"/>
<polygon fill="#9a32cd" stroke="#9a32cd" points="143.567,-265.359 134.337,-270.561 144.796,-272.25 143.567,-265.359"/>
<text text-anchor="middle" x="167.5" y="-273.5" font-family="FreeSans" font-size="10.00"> next_</text>
<text text-anchor="middle" x="167.5" y="-260.5" font-family="FreeSans" font-size="10.00">prev_</text>
<text text-anchor="middle" x="167.5" y="-247.5" font-family="FreeSans" font-size="10.00">down_</text>
</g>
<!-- Node5 -->
<g id="node9" class="node"><title>Node5</title>
<a xlink:href="a00050.html" target="_top" xlink:title="Allocator memory block.">
<polygon fill="none" stroke="black" points="200.5,-252.5 200.5,-273.5 327.5,-273.5 327.5,-252.5 200.5,-252.5"/>
<text text-anchor="middle" x="264" y="-260.5" font-family="FreeSans" font-size="10.00">Urho3D::AllocatorBlock</text>
</a>
</g>
<!-- Node5&#45;&gt;Node3 -->
<g id="edge10" class="edge"><title>Node5&#45;&gt;Node3</title>
<path fill="none" stroke="#9a32cd" stroke-dasharray="5,2" d="M246.108,-245.275C223.669,-223.046 185.924,-185.654 167.608,-167.509"/>
<polygon fill="#9a32cd" stroke="#9a32cd" points="243.782,-247.897 253.349,-252.449 248.708,-242.924 243.782,-247.897"/>
<text text-anchor="middle" x="251" y="-203.5" font-family="FreeSans" font-size="10.00"> allocator_</text>
</g>
<!-- Node5&#45;&gt;Node5 -->
<g id="edge12" class="edge"><title>Node5&#45;&gt;Node5</title>
<path fill="none" stroke="#9a32cd" stroke-dasharray="5,2" d="M337.597,-268.791C342.216,-267.428 345,-265.498 345,-263 345,-259.004 337.873,-256.46 327.504,-255.367"/>
<polygon fill="#9a32cd" stroke="#9a32cd" points="336.713,-265.395 327.504,-270.633 337.97,-272.281 336.713,-265.395"/>
<text text-anchor="middle" x="360" y="-260.5" font-family="FreeSans" font-size="10.00"> next_</text>
</g>
<!-- Node8 -->
<g id="node17" class="node"><title>Node8</title>
<a xlink:href="a00189.html" target="_top" xlink:title="Doubly&#45;linked list base class.">
<polygon fill="none" stroke="black" points="268,-146.5 268,-167.5 368,-167.5 368,-146.5 268,-146.5"/>
<text text-anchor="middle" x="318" y="-154.5" font-family="FreeSans" font-size="10.00">Urho3D::ListBase</text>
</a>
</g>
<!-- Node5&#45;&gt;Node8 -->
<g id="edge22" class="edge"><title>Node5&#45;&gt;Node8</title>
<path fill="none" stroke="#9a32cd" stroke-dasharray="5,2" d="M273.935,-243.497C285.345,-221.1 303.645,-185.178 312.647,-167.509"/>
<polygon fill="#9a32cd" stroke="#9a32cd" points="270.796,-241.95 269.375,-252.449 277.033,-245.127 270.796,-241.95"/>
<text text-anchor="middle" x="327" y="-203.5" font-family="FreeSans" font-size="10.00"> allocator_</text>
</g>
<!-- Node6 -->
<g id="node12" class="node"><title>Node6</title>
<a xlink:href="a00051.html" target="_top" xlink:title="Allocator node.">
<polygon fill="none" stroke="black" points="200.5,-332.5 200.5,-353.5 327.5,-353.5 327.5,-332.5 200.5,-332.5"/>
<text text-anchor="middle" x="264" y="-340.5" font-family="FreeSans" font-size="10.00">Urho3D::AllocatorNode</text>
</a>
</g>
<!-- Node6&#45;&gt;Node5 -->
<g id="edge14" class="edge"><title>Node6&#45;&gt;Node5</title>
<path fill="none" stroke="#9a32cd" stroke-dasharray="5,2" d="M264,-321.958C264,-306.413 264,-285.897 264,-273.618"/>
<polygon fill="#9a32cd" stroke="#9a32cd" points="260.5,-322.211 264,-332.211 267.5,-322.211 260.5,-322.211"/>
<text text-anchor="middle" x="278" y="-304.5" font-family="FreeSans" font-size="10.00"> free_</text>
</g>
<!-- Node6&#45;&gt;Node6 -->
<g id="edge16" class="edge"><title>Node6&#45;&gt;Node6</title>
<path fill="none" stroke="#9a32cd" stroke-dasharray="5,2" d="M337.597,-347.738C342.216,-346.623 345,-345.043 345,-343 345,-339.73 337.873,-337.649 327.504,-336.755"/>
<polygon fill="#9a32cd" stroke="#9a32cd" points="336.877,-344.307 327.504,-349.245 337.911,-351.23 336.877,-344.307"/>
<text text-anchor="middle" x="360" y="-340.5" font-family="FreeSans" font-size="10.00"> next_</text>
</g>
<!-- Node7 -->
<g id="node15" class="node"><title>Node7</title>
<a xlink:href="a00188.html" target="_top" xlink:title="Urho3D::List\&lt; Urho3D\l::MutableGlyph * \&gt;">
<polygon fill="none" stroke="black" points="256,-73 256,-107 380,-107 380,-73 256,-73"/>
<text text-anchor="start" x="264" y="-94" font-family="FreeSans" font-size="10.00">Urho3D::List&lt; Urho3D</text>
<text text-anchor="middle" x="318" y="-81" font-family="FreeSans" font-size="10.00">::MutableGlyph * &gt;</text>
</a>
</g>
<!-- Node7&#45;&gt;Node1 -->
<g id="edge18" class="edge"><title>Node7&#45;&gt;Node1</title>
<path fill="none" stroke="#9a32cd" stroke-dasharray="5,2" d="M296.247,-65.0943C283.438,-50.4286 267.9,-32.6395 258.23,-21.5672"/>
<polygon fill="#9a32cd" stroke="#9a32cd" points="293.814,-67.6289 303.028,-72.8582 299.086,-63.0241 293.814,-67.6289"/>
<text text-anchor="middle" x="307" y="-44.5" font-family="FreeSans" font-size="10.00"> iterator_</text>
</g>
<!-- Node8&#45;&gt;Node7 -->
<g id="edge20" class="edge"><title>Node8&#45;&gt;Node7</title>
<path fill="none" stroke="midnightblue" d="M318,-136.165C318,-126.797 318,-115.88 318,-107.014"/>
<polygon fill="midnightblue" stroke="midnightblue" points="314.5,-136.235 318,-146.235 321.5,-136.235 314.5,-136.235"/>
</g>
<!-- Node9 -->
<g id="node20" class="node"><title>Node9</title>
<a xlink:href="a00191.html" target="_top" xlink:title="Doubly&#45;linked list node base class.">
<polygon fill="none" stroke="black" points="392.5,-252.5 392.5,-273.5 517.5,-273.5 517.5,-252.5 392.5,-252.5"/>
<text text-anchor="middle" x="455" y="-260.5" font-family="FreeSans" font-size="10.00">Urho3D::ListNodeBase</text>
</a>
</g>
<!-- Node9&#45;&gt;Node8 -->
<g id="edge24" class="edge"><title>Node9&#45;&gt;Node8</title>
<path fill="none" stroke="#9a32cd" stroke-dasharray="5,2" d="M433.435,-246.136C413.41,-230.498 382.745,-206.605 356,-186 348.111,-179.922 339.268,-173.17 332.1,-167.712"/>
<polygon fill="#9a32cd" stroke="#9a32cd" points="431.545,-249.1 441.579,-252.499 435.854,-243.584 431.545,-249.1"/>
<text text-anchor="middle" x="422" y="-210" font-family="FreeSans" font-size="10.00"> tail_</text>
<text text-anchor="middle" x="422" y="-197" font-family="FreeSans" font-size="10.00">head_</text>
</g>
<!-- Node9&#45;&gt;Node9 -->
<g id="edge26" class="edge"><title>Node9&#45;&gt;Node9</title>
<path fill="none" stroke="#9a32cd" stroke-dasharray="5,2" d="M527.688,-268.791C532.251,-267.428 535,-265.498 535,-263 535,-259.004 527.961,-256.46 517.72,-255.367"/>
<polygon fill="#9a32cd" stroke="#9a32cd" points="526.917,-265.375 517.72,-270.633 528.189,-272.258 526.917,-265.375"/>
<text text-anchor="middle" x="550" y="-267" font-family="FreeSans" font-size="10.00"> next_</text>
<text text-anchor="middle" x="550" y="-254" font-family="FreeSans" font-size="10.00">prev_</text>
</g>
</g>
</svg>
