<?xml version="1.0" encoding="UTF-8" standalone="no"?>
<!DOCTYPE svg PUBLIC "-//W3C//DTD SVG 1.1//EN"
 "http://www.w3.org/Graphics/SVG/1.1/DTD/svg11.dtd">
<!-- Generated by graphviz version 2.26.3 (20100126.1600)
 -->
<!-- Title: Urho3D::ScriptInstance Pages: 1 -->
<svg width="1834pt" height="664pt"
 viewBox="0.00 0.00 1834.00 663.62" xmlns="http://www.w3.org/2000/svg" xmlns:xlink="http://www.w3.org/1999/xlink">
<g id="graph1" class="graph" transform="scale(1 1) rotate(0) translate(4 659.619)">
<title>Urho3D::ScriptInstance</title>
<!-- Node1 -->
<g id="node1" class="node"><title>Node1</title>
<polygon fill="#bfbfbf" stroke="black" points="1698,-203.119 1698,-224.119 1826,-224.119 1826,-203.119 1698,-203.119"/>
<text text-anchor="middle" x="1762" y="-211.119" font-family="FreeSans" font-size="10.00">Urho3D::ScriptInstance</text>
</g>
<!-- Node2 -->
<g id="node2" class="node"><title>Node2</title>
<a xlink:href="a00106.html" target="_top" xlink:title="Base class for components. Components can be created to scene nodes.">
<polygon fill="none" stroke="black" points="1510,-345.119 1510,-366.119 1626,-366.119 1626,-345.119 1510,-345.119"/>
<text text-anchor="middle" x="1568" y="-353.119" font-family="FreeSans" font-size="10.00">Urho3D::Component</text>
</a>
</g>
<!-- Node2&#45;&gt;Node1 -->
<g id="edge2" class="edge"><title>Node2&#45;&gt;Node1</title>
<path fill="none" stroke="midnightblue" d="M1599.54,-340.609C1622.73,-328.936 1654.51,-311.578 1680,-292.619 1708.87,-271.145 1738.13,-240.275 1752.64,-224.223"/>
<polygon fill="midnightblue" stroke="midnightblue" points="1597.89,-337.522 1590.48,-345.099 1601,-343.793 1597.89,-337.522"/>
</g>
<!-- Node3 -->
<g id="node4" class="node"><title>Node3</title>
<a xlink:href="a00054.html" target="_top" xlink:title="Base class for animatable object, an animatable object can be set animation on it&#39;s attributes...">
<polygon fill="none" stroke="black" points="930,-354.119 930,-375.119 1044,-375.119 1044,-354.119 930,-354.119"/>
<text text-anchor="middle" x="987" y="-362.119" font-family="FreeSans" font-size="10.00">Urho3D::Animatable</text>
</a>
</g>
<!-- Node3&#45;&gt;Node2 -->
<g id="edge4" class="edge"><title>Node3&#45;&gt;Node2</title>
<path fill="none" stroke="midnightblue" d="M1054.1,-363.579C1168.96,-361.8 1401.32,-358.201 1509.78,-356.521"/>
<polygon fill="midnightblue" stroke="midnightblue" points="1053.98,-360.081 1044.03,-363.735 1054.09,-367.08 1053.98,-360.081"/>
</g>
<!-- Node9 -->
<g id="node17" class="node"><title>Node9</title>
<a xlink:href="a00235.html" target="_top" xlink:title="Scene node that may contain components and child nodes.">
<polygon fill="none" stroke="red" points="1235.5,-464.119 1235.5,-485.119 1320.5,-485.119 1320.5,-464.119 1235.5,-464.119"/>
<text text-anchor="middle" x="1278" y="-472.119" font-family="FreeSans" font-size="10.00">Urho3D::Node</text>
</a>
</g>
<!-- Node3&#45;&gt;Node9 -->
<g id="edge20" class="edge"><title>Node3&#45;&gt;Node9</title>
<path fill="none" stroke="midnightblue" d="M1054.32,-368.151C1111.76,-372.169 1189.19,-380.269 1216,-395.619 1244.29,-411.818 1264.33,-446.504 1273.08,-464.025"/>
<polygon fill="midnightblue" stroke="midnightblue" points="1054.42,-364.649 1044.21,-367.47 1053.95,-371.634 1054.42,-364.649"/>
</g>
<!-- Node4 -->
<g id="node6" class="node"><title>Node4</title>
<a xlink:href="a00309.html" target="_top" xlink:title="Base class for objects with automatic serialization through attributes.">
<polygon fill="none" stroke="red" points="515,-417.119 515,-438.119 629,-438.119 629,-417.119 515,-417.119"/>
<text text-anchor="middle" x="572" y="-425.119" font-family="FreeSans" font-size="10.00">Urho3D::Serializable</text>
</a>
</g>
<!-- Node4&#45;&gt;Node3 -->
<g id="edge6" class="edge"><title>Node4&#45;&gt;Node3</title>
<path fill="none" stroke="midnightblue" d="M639.487,-426.398C705.814,-423.79 809.396,-415.928 896,-392.619 904.454,-390.343 905.755,-387.561 914,-384.619 923.653,-381.173 934.201,-377.971 944.202,-375.183"/>
<polygon fill="midnightblue" stroke="midnightblue" points="639.036,-422.912 629.17,-426.773 639.291,-429.907 639.036,-422.912"/>
</g>
<!-- Node5 -->
<g id="node8" class="node"><title>Node5</title>
<a xlink:href="a00318.html" target="_top" xlink:title="Urho3D::SharedPtr\&lt;\l Urho3D::ObjectAnimation \&gt;">
<polygon fill="none" stroke="red" points="495.5,-364.619 495.5,-398.619 648.5,-398.619 648.5,-364.619 495.5,-364.619"/>
<text text-anchor="start" x="503.5" y="-385.619" font-family="FreeSans" font-size="10.00">Urho3D::SharedPtr&lt;</text>
<text text-anchor="middle" x="572" y="-372.619" font-family="FreeSans" font-size="10.00"> Urho3D::ObjectAnimation &gt;</text>
</a>
</g>
<!-- Node5&#45;&gt;Node3 -->
<g id="edge8" class="edge"><title>Node5&#45;&gt;Node3</title>
<path fill="none" stroke="#9a32cd" stroke-dasharray="5,2" d="M658.838,-378.061C740.297,-374.725 859.778,-369.83 929.854,-366.96"/>
<polygon fill="#9a32cd" stroke="#9a32cd" points="658.449,-374.574 648.601,-378.481 658.736,-381.568 658.449,-374.574"/>
<text text-anchor="middle" x="799" y="-379.619" font-family="FreeSans" font-size="10.00"> objectAnimation_</text>
</g>
<!-- Node6 -->
<g id="node10" class="node"><title>Node6</title>
<a xlink:href="a00178.html" target="_top" xlink:title="Urho3D::HashMap\&lt; Urho3D\l::String, Urho3D::SharedPtr\l\&lt; Urho3D::AttributeAnimationInstance \&gt; \&gt;">
<polygon fill="none" stroke="black" points="460,-299.119 460,-346.119 684,-346.119 684,-299.119 460,-299.119"/>
<text text-anchor="start" x="468" y="-333.119" font-family="FreeSans" font-size="10.00">Urho3D::HashMap&lt; Urho3D</text>
<text text-anchor="start" x="468" y="-320.119" font-family="FreeSans" font-size="10.00">::String, Urho3D::SharedPtr</text>
<text text-anchor="middle" x="572" y="-307.119" font-family="FreeSans" font-size="10.00">&lt; Urho3D::AttributeAnimationInstance &gt; &gt;</text>
</a>
</g>
<!-- Node6&#45;&gt;Node3 -->
<g id="edge10" class="edge"><title>Node6&#45;&gt;Node3</title>
<path fill="none" stroke="#9a32cd" stroke-dasharray="5,2" d="M694.247,-332.032C754.985,-337.098 829.442,-343.891 896,-351.619 906.938,-352.889 918.591,-354.418 929.778,-355.976"/>
<polygon fill="#9a32cd" stroke="#9a32cd" points="694.489,-328.54 684.234,-331.202 693.911,-335.516 694.489,-328.54"/>
<text text-anchor="middle" x="799" y="-355.619" font-family="FreeSans" font-size="10.00"> attributeAnimationInstances_</text>
</g>
<!-- Node7 -->
<g id="node12" class="node"><title>Node7</title>
<a xlink:href="a00176.html" target="_top" xlink:title="Hash set/map base class.">
<polygon fill="none" stroke="red" points="174,-312.119 174,-333.119 282,-333.119 282,-312.119 174,-312.119"/>
<text text-anchor="middle" x="228" y="-320.119" font-family="FreeSans" font-size="10.00">Urho3D::HashBase</text>
</a>
</g>
<!-- Node7&#45;&gt;Node6 -->
<g id="edge12" class="edge"><title>Node7&#45;&gt;Node6</title>
<path fill="none" stroke="midnightblue" d="M292.181,-322.619C339.22,-322.619 404.289,-322.619 459.842,-322.619"/>
<polygon fill="midnightblue" stroke="midnightblue" points="292.128,-319.119 282.128,-322.619 292.128,-326.119 292.128,-319.119"/>
</g>
<!-- Node8 -->
<g id="node14" class="node"><title>Node8</title>
<a xlink:href="a00180.html" target="_top" xlink:title="Urho3D::HashSet\&lt; const\l Urho3D::AttributeInfo * \&gt;">
<polygon fill="none" stroke="black" points="501.5,-456.619 501.5,-490.619 642.5,-490.619 642.5,-456.619 501.5,-456.619"/>
<text text-anchor="start" x="509.5" y="-477.619" font-family="FreeSans" font-size="10.00">Urho3D::HashSet&lt; const</text>
<text text-anchor="middle" x="572" y="-464.619" font-family="FreeSans" font-size="10.00"> Urho3D::AttributeInfo * &gt;</text>
</a>
</g>
<!-- Node7&#45;&gt;Node8 -->
<g id="edge16" class="edge"><title>Node7&#45;&gt;Node8</title>
<path fill="none" stroke="midnightblue" d="M252.428,-338.63C293.619,-364.961 380.219,-417.484 460,-447.619 473.072,-452.556 487.369,-456.737 501.244,-460.207"/>
<polygon fill="midnightblue" stroke="midnightblue" points="254.187,-335.599 243.884,-333.126 250.396,-341.484 254.187,-335.599"/>
</g>
<!-- Node24 -->
<g id="node57" class="node"><title>Node24</title>
<a xlink:href="a00178.html" target="_top" xlink:title="Urho3D::HashMap\&lt; Urho3D\l::AttributeInfo *, unsigned \&gt;">
<polygon fill="none" stroke="black" points="1340,-257.619 1340,-291.619 1492,-291.619 1492,-257.619 1340,-257.619"/>
<text text-anchor="start" x="1348" y="-278.619" font-family="FreeSans" font-size="10.00">Urho3D::HashMap&lt; Urho3D</text>
<text text-anchor="middle" x="1416" y="-265.619" font-family="FreeSans" font-size="10.00">::AttributeInfo *, unsigned &gt;</text>
</a>
</g>
<!-- Node7&#45;&gt;Node24 -->
<g id="edge70" class="edge"><title>Node7&#45;&gt;Node24</title>
<path fill="none" stroke="midnightblue" d="M279.95,-309.795C346.987,-294.397 467.438,-270.619 572,-270.619 572,-270.619 572,-270.619 1147,-270.619 1212.04,-270.619 1285.91,-271.802 1339.77,-272.882"/>
<polygon fill="midnightblue" stroke="midnightblue" points="279.005,-306.421 270.057,-312.096 280.59,-313.239 279.005,-306.421"/>
</g>
<!-- Node8&#45;&gt;Node3 -->
<g id="edge14" class="edge"><title>Node8&#45;&gt;Node3</title>
<path fill="none" stroke="#9a32cd" stroke-dasharray="5,2" d="M653.007,-468.73C736.108,-462.272 858.383,-448.315 896,-420.619 910.405,-410.013 900.173,-395.968 914,-384.619 918.672,-380.784 924.023,-377.681 929.656,-375.172"/>
<polygon fill="#9a32cd" stroke="#9a32cd" points="652.531,-465.256 642.823,-469.499 653.058,-472.236 652.531,-465.256"/>
<text text-anchor="middle" x="799" y="-467.619" font-family="FreeSans" font-size="10.00"> animatedNetworkAttributes_</text>
</g>
<!-- Node9&#45;&gt;Node2 -->
<g id="edge18" class="edge"><title>Node9&#45;&gt;Node2</title>
<path fill="none" stroke="#9a32cd" stroke-dasharray="5,2" d="M1313.03,-460.243C1372.12,-435.995 1490.24,-387.527 1542.32,-366.155"/>
<polygon fill="#9a32cd" stroke="#9a32cd" points="1311.66,-457.024 1303.74,-464.058 1314.32,-463.5 1311.66,-457.024"/>
<text text-anchor="middle" x="1416" y="-452.619" font-family="FreeSans" font-size="10.00"> node_</text>
</g>
<!-- Node9&#45;&gt;Node9 -->
<g id="edge46" class="edge"><title>Node9&#45;&gt;Node9</title>
<path fill="none" stroke="#9a32cd" stroke-dasharray="5,2" d="M1254.04,-495.045C1255.89,-499.967 1263.88,-503.619 1278,-503.619 1300.6,-503.619 1307.48,-494.272 1298.66,-485.326"/>
<polygon fill="#9a32cd" stroke="#9a32cd" points="1257.44,-495.921 1257.34,-485.326 1250.81,-493.669 1257.44,-495.921"/>
<text text-anchor="middle" x="1278" y="-507.619" font-family="FreeSans" font-size="10.00"> parent_</text>
</g>
<!-- Node12 -->
<g id="node24" class="node"><title>Node12</title>
<a xlink:href="a00297.html" target="_top" xlink:title="Root scene node, represents the whole scene.">
<polygon fill="none" stroke="red" points="1523.5,-492.119 1523.5,-513.119 1612.5,-513.119 1612.5,-492.119 1523.5,-492.119"/>
<text text-anchor="middle" x="1568" y="-500.119" font-family="FreeSans" font-size="10.00">Urho3D::Scene</text>
</a>
</g>
<!-- Node9&#45;&gt;Node12 -->
<g id="edge28" class="edge"><title>Node9&#45;&gt;Node12</title>
<path fill="none" stroke="midnightblue" d="M1330.63,-487.109C1333.79,-487.67 1336.93,-488.181 1340,-488.619 1403.21,-497.636 1477.09,-500.849 1523.22,-501.991"/>
<polygon fill="midnightblue" stroke="midnightblue" points="1331,-483.617 1320.52,-485.166 1329.68,-490.492 1331,-483.617"/>
</g>
<!-- Node10 -->
<g id="node20" class="node"><title>Node10</title>
<a xlink:href="a00267.html" target="_top" xlink:title="Urho3D::PODVector\&lt;\l Urho3D::Node * \&gt;">
<polygon fill="none" stroke="black" points="322.5,-542.619 322.5,-576.619 441.5,-576.619 441.5,-542.619 322.5,-542.619"/>
<text text-anchor="start" x="330.5" y="-563.619" font-family="FreeSans" font-size="10.00">Urho3D::PODVector&lt;</text>
<text text-anchor="middle" x="382" y="-550.619" font-family="FreeSans" font-size="10.00"> Urho3D::Node * &gt;</text>
</a>
</g>
<!-- Node10&#45;&gt;Node9 -->
<g id="edge22" class="edge"><title>Node10&#45;&gt;Node9</title>
<path fill="none" stroke="#9a32cd" stroke-dasharray="5,2" d="M451.635,-561.635C574.725,-564.408 838.657,-566.795 1060,-544.619 1130.09,-537.596 1150.75,-543.172 1216,-516.619 1234.79,-508.973 1253.7,-495.05 1265.61,-485.338"/>
<polygon fill="#9a32cd" stroke="#9a32cd" points="451.671,-558.135 441.592,-561.401 451.508,-565.133 451.671,-558.135"/>
<text text-anchor="middle" x="799" y="-566.619" font-family="FreeSans" font-size="10.00"> dependencyNodes_</text>
</g>
<!-- Node11 -->
<g id="node22" class="node"><title>Node11</title>
<a xlink:href="a00371.html" target="_top" xlink:title="Vector base class.">
<polygon fill="none" stroke="black" points="0,-410.119 0,-431.119 114,-431.119 114,-410.119 0,-410.119"/>
<text text-anchor="middle" x="57" y="-418.119" font-family="FreeSans" font-size="10.00">Urho3D::VectorBase</text>
</a>
</g>
<!-- Node11&#45;&gt;Node10 -->
<g id="edge24" class="edge"><title>Node11&#45;&gt;Node10</title>
<path fill="none" stroke="midnightblue" d="M64.2685,-440.837C74.8051,-466.914 96.9821,-511.429 132,-532.619 189.705,-567.536 268.816,-570.141 322.478,-566.718"/>
<polygon fill="midnightblue" stroke="midnightblue" points="67.4265,-439.298 60.5731,-431.218 60.8921,-441.808 67.4265,-439.298"/>
</g>
<!-- Node15 -->
<g id="node33" class="node"><title>Node15</title>
<a xlink:href="a00367.html" target="_top" xlink:title="Urho3D::Vector\&lt; Urho3D\l::WeakPtr\&lt; Urho3D::Component \&gt; \&gt;">
<polygon fill="none" stroke="black" points="702,-499.619 702,-533.619 896,-533.619 896,-499.619 702,-499.619"/>
<text text-anchor="start" x="710" y="-520.619" font-family="FreeSans" font-size="10.00">Urho3D::Vector&lt; Urho3D</text>
<text text-anchor="middle" x="799" y="-507.619" font-family="FreeSans" font-size="10.00">::WeakPtr&lt; Urho3D::Component &gt; &gt;</text>
</a>
</g>
<!-- Node11&#45;&gt;Node15 -->
<g id="edge40" class="edge"><title>Node11&#45;&gt;Node15</title>
<path fill="none" stroke="midnightblue" d="M109.802,-433.489C186.433,-451.59 333.18,-484.09 460,-499.619 541.157,-509.556 633.924,-513.715 701.876,-515.441"/>
<polygon fill="midnightblue" stroke="midnightblue" points="110.451,-430.045 99.9126,-431.14 108.834,-436.856 110.451,-430.045"/>
</g>
<!-- Node22 -->
<g id="node52" class="node"><title>Node22</title>
<a xlink:href="a00367.html" target="_top" xlink:title="Urho3D::Vector\&lt; Urho3D\l::DelayedCall \&gt;">
<polygon fill="none" stroke="black" points="159,-134.619 159,-168.619 297,-168.619 297,-134.619 159,-134.619"/>
<text text-anchor="start" x="167" y="-155.619" font-family="FreeSans" font-size="10.00">Urho3D::Vector&lt; Urho3D</text>
<text text-anchor="middle" x="228" y="-142.619" font-family="FreeSans" font-size="10.00">::DelayedCall &gt;</text>
</a>
</g>
<!-- Node11&#45;&gt;Node22 -->
<g id="edge64" class="edge"><title>Node11&#45;&gt;Node22</title>
<path fill="none" stroke="midnightblue" d="M60.3696,-399.825C68.516,-355.66 93.1219,-251.417 152,-188.619 159.628,-180.482 169.426,-173.916 179.432,-168.705"/>
<polygon fill="midnightblue" stroke="midnightblue" points="56.8783,-399.472 58.6047,-409.925 63.7738,-400.677 56.8783,-399.472"/>
</g>
<!-- Node25 -->
<g id="node61" class="node"><title>Node25</title>
<a xlink:href="a00367.html" target="_top" xlink:title="Urho3D::Vector\&lt; Urho3D\l::AttributeInfo \&gt;">
<polygon fill="none" stroke="black" points="1078,-21.6186 1078,-55.6186 1216,-55.6186 1216,-21.6186 1078,-21.6186"/>
<text text-anchor="start" x="1086" y="-42.6186" font-family="FreeSans" font-size="10.00">Urho3D::Vector&lt; Urho3D</text>
<text text-anchor="middle" x="1147" y="-29.6186" font-family="FreeSans" font-size="10.00">::AttributeInfo &gt;</text>
</a>
</g>
<!-- Node11&#45;&gt;Node25 -->
<g id="edge76" class="edge"><title>Node11&#45;&gt;Node25</title>
<path fill="none" stroke="midnightblue" d="M61.5366,-399.804C79.4727,-320.218 148.358,-39.6186 228,-39.6186 228,-39.6186 228,-39.6186 799,-39.6186 895.667,-39.6186 1007.44,-39.228 1077.67,-38.935"/>
<polygon fill="midnightblue" stroke="midnightblue" points="58.0168,-399.51 59.2648,-410.031 64.8502,-401.028 58.0168,-399.51"/>
</g>
<!-- Node12&#45;&gt;Node9 -->
<g id="edge26" class="edge"><title>Node12&#45;&gt;Node9</title>
<path fill="none" stroke="#9a32cd" stroke-dasharray="5,2" d="M1535.05,-488.188C1521.93,-483.165 1506.51,-478.154 1492,-475.619 1433.26,-465.353 1364.06,-467.566 1320.6,-470.646"/>
<polygon fill="#9a32cd" stroke="#9a32cd" points="1534.01,-491.539 1544.6,-491.991 1536.6,-485.037 1534.01,-491.539"/>
<text text-anchor="middle" x="1416" y="-479.619" font-family="FreeSans" font-size="10.00"> scene_</text>
</g>
<!-- Node13 -->
<g id="node27" class="node"><title>Node13</title>
<a xlink:href="a00341.html" target="_top" xlink:title="String class.">
<polygon fill="none" stroke="black" points="943,-603.119 943,-624.119 1031,-624.119 1031,-603.119 943,-603.119"/>
<text text-anchor="middle" x="987" y="-611.119" font-family="FreeSans" font-size="10.00">Urho3D::String</text>
</a>
</g>
<!-- Node13&#45;&gt;Node1 -->
<g id="edge78" class="edge"><title>Node13&#45;&gt;Node1</title>
<path fill="none" stroke="#9a32cd" stroke-dasharray="5,2" d="M1041.52,-623.937C1163.15,-643.566 1459.05,-672.009 1626,-522.619 1722.75,-436.046 1753.89,-267.958 1760.53,-224.225"/>
<polygon fill="#9a32cd" stroke="#9a32cd" points="1041.77,-620.431 1031.34,-622.248 1040.63,-627.337 1041.77,-620.431"/>
<text text-anchor="middle" x="1416" y="-637.619" font-family="FreeSans" font-size="10.00"> className_</text>
</g>
<!-- Node13&#45;&gt;Node9 -->
<g id="edge44" class="edge"><title>Node13&#45;&gt;Node9</title>
<path fill="none" stroke="#9a32cd" stroke-dasharray="5,2" d="M1028.89,-600.012C1044.23,-595.343 1061.8,-590.357 1078,-586.619 1138.59,-572.638 1163.44,-596.844 1216,-563.619 1246.4,-544.399 1265.95,-504.316 1273.92,-485.201"/>
<polygon fill="#9a32cd" stroke="#9a32cd" points="1027.69,-596.72 1019.17,-603.018 1029.76,-603.408 1027.69,-596.72"/>
<text text-anchor="middle" x="1147" y="-590.619" font-family="FreeSans" font-size="10.00"> name_</text>
</g>
<!-- Node13&#45;&gt;Node12 -->
<g id="edge30" class="edge"><title>Node13&#45;&gt;Node12</title>
<path fill="none" stroke="#9a32cd" stroke-dasharray="5,2" d="M1041.39,-613.463C1088.02,-612.576 1156.83,-609.471 1216,-599.619 1337.62,-579.371 1477.62,-533.897 1537.87,-513.218"/>
<polygon fill="#9a32cd" stroke="#9a32cd" points="1041.15,-609.967 1031.21,-613.628 1041.26,-616.966 1041.15,-609.967"/>
<text text-anchor="middle" x="1278" y="-599.619" font-family="FreeSans" font-size="10.00"> fileName_</text>
</g>
<!-- Node13&#45;&gt;Node13 -->
<g id="edge32" class="edge"><title>Node13&#45;&gt;Node13</title>
<path fill="none" stroke="#9a32cd" stroke-dasharray="5,2" d="M957.357,-633.674C959.302,-638.783 969.183,-642.619 987,-642.619 1014.81,-642.619 1023.29,-633.272 1012.42,-624.326"/>
<polygon fill="#9a32cd" stroke="#9a32cd" points="960.652,-634.881 961.578,-624.326 954.273,-632 960.652,-634.881"/>
<text text-anchor="middle" x="987" y="-646.619" font-family="FreeSans" font-size="10.00"> EMPTY</text>
</g>
<!-- Node14 -->
<g id="node30" class="node"><title>Node14</title>
<a xlink:href="a00272.html" target="_top" xlink:title="Rotation represented as a four&#45;dimensional normalized vector.">
<polygon fill="none" stroke="black" points="930.5,-483.119 930.5,-504.119 1043.5,-504.119 1043.5,-483.119 930.5,-483.119"/>
<text text-anchor="middle" x="987" y="-491.119" font-family="FreeSans" font-size="10.00">Urho3D::Quaternion</text>
</a>
</g>
<!-- Node14&#45;&gt;Node9 -->
<g id="edge34" class="edge"><title>Node14&#45;&gt;Node9</title>
<path fill="none" stroke="#9a32cd" stroke-dasharray="5,2" d="M1053.94,-489.248C1109.66,-485.61 1187.33,-480.538 1235.06,-477.422"/>
<polygon fill="#9a32cd" stroke="#9a32cd" points="1053.55,-485.766 1043.8,-489.91 1054.01,-492.751 1053.55,-485.766"/>
<text text-anchor="middle" x="1147" y="-503.619" font-family="FreeSans" font-size="10.00"> worldRotation_</text>
<text text-anchor="middle" x="1147" y="-490.619" font-family="FreeSans" font-size="10.00">rotation_</text>
</g>
<!-- Node14&#45;&gt;Node14 -->
<g id="edge36" class="edge"><title>Node14&#45;&gt;Node14</title>
<path fill="none" stroke="#9a32cd" stroke-dasharray="5,2" d="M957.357,-513.674C959.302,-518.783 969.183,-522.619 987,-522.619 1014.81,-522.619 1023.29,-513.272 1012.42,-504.326"/>
<polygon fill="#9a32cd" stroke="#9a32cd" points="960.652,-514.881 961.578,-504.326 954.273,-512 960.652,-514.881"/>
<text text-anchor="middle" x="987" y="-526.619" font-family="FreeSans" font-size="10.00"> IDENTITY</text>
</g>
<!-- Node15&#45;&gt;Node9 -->
<g id="edge38" class="edge"><title>Node15&#45;&gt;Node9</title>
<path fill="none" stroke="#9a32cd" stroke-dasharray="5,2" d="M868.252,-495.655C877.952,-491.385 887.499,-486.393 896,-480.619 905.892,-473.899 903.076,-465.484 914,-460.619 970.327,-435.533 1152.04,-456.787 1235.44,-468.34"/>
<polygon fill="#9a32cd" stroke="#9a32cd" points="866.824,-492.459 858.934,-499.53 869.512,-498.922 866.824,-492.459"/>
<text text-anchor="middle" x="987" y="-464.619" font-family="FreeSans" font-size="10.00"> listeners_</text>
</g>
<!-- Node16 -->
<g id="node36" class="node"><title>Node16</title>
<a xlink:href="a00372.html" target="_top" xlink:title="Dynamically sized buffer that can be read and written to as a stream.">
<polygon fill="none" stroke="red" points="927.5,-394.119 927.5,-415.119 1046.5,-415.119 1046.5,-394.119 927.5,-394.119"/>
<text text-anchor="middle" x="987" y="-402.119" font-family="FreeSans" font-size="10.00">Urho3D::VectorBuffer</text>
</a>
</g>
<!-- Node16&#45;&gt;Node9 -->
<g id="edge42" class="edge"><title>Node16&#45;&gt;Node9</title>
<path fill="none" stroke="#9a32cd" stroke-dasharray="5,2" d="M1056.62,-400.324C1103.31,-399.904 1165.3,-404.199 1216,-424.619 1237.55,-433.298 1257.52,-452.119 1268.7,-464.033"/>
<polygon fill="#9a32cd" stroke="#9a32cd" points="1056.54,-396.825 1046.6,-400.488 1056.65,-403.824 1056.54,-396.825"/>
<text text-anchor="middle" x="1147" y="-428.619" font-family="FreeSans" font-size="10.00"> attrBuffer_</text>
</g>
<!-- Node17 -->
<g id="node40" class="node"><title>Node17</title>
<a xlink:href="a00304.html" target="_top" xlink:title="Interface class for allowing script objects or functions to subscribe to events.">
<polygon fill="none" stroke="black" points="152,-198.119 152,-219.119 304,-219.119 304,-198.119 152,-198.119"/>
<text text-anchor="middle" x="228" y="-206.119" font-family="FreeSans" font-size="10.00">Urho3D::ScriptEventListener</text>
</a>
</g>
<!-- Node17&#45;&gt;Node1 -->
<g id="edge48" class="edge"><title>Node17&#45;&gt;Node1</title>
<path fill="none" stroke="midnightblue" d="M314.093,-217.964C383.605,-224.703 483.983,-232.619 572,-232.619 572,-232.619 572,-232.619 1568,-232.619 1611.49,-232.619 1660.2,-227.831 1697.93,-223.063"/>
<polygon fill="midnightblue" stroke="midnightblue" points="314.361,-214.473 304.067,-216.979 313.677,-221.44 314.361,-214.473"/>
</g>
<!-- Node21 -->
<g id="node48" class="node"><title>Node21</title>
<a xlink:href="a00305.html" target="_top" xlink:title="Script file resource.">
<polygon fill="none" stroke="red" points="521,-141.119 521,-162.119 623,-162.119 623,-141.119 521,-141.119"/>
<text text-anchor="middle" x="572" y="-149.119" font-family="FreeSans" font-size="10.00">Urho3D::ScriptFile</text>
</a>
</g>
<!-- Node17&#45;&gt;Node21 -->
<g id="edge58" class="edge"><title>Node17&#45;&gt;Node21</title>
<path fill="none" stroke="midnightblue" d="M301.428,-196.452C367.485,-185.506 462.822,-169.709 520.917,-160.083"/>
<polygon fill="midnightblue" stroke="midnightblue" points="300.789,-193.01 291.496,-198.098 301.933,-199.916 300.789,-193.01"/>
</g>
<!-- Node18 -->
<g id="node42" class="node"><title>Node18</title>
<a xlink:href="a00318.html" target="_top" xlink:title="Urho3D::SharedPtr\&lt;\l Urho3D::Script \&gt;">
<polygon fill="none" stroke="black" points="1510,-132.619 1510,-166.619 1626,-166.619 1626,-132.619 1510,-132.619"/>
<text text-anchor="start" x="1518" y="-153.619" font-family="FreeSans" font-size="10.00">Urho3D::SharedPtr&lt;</text>
<text text-anchor="middle" x="1568" y="-140.619" font-family="FreeSans" font-size="10.00"> Urho3D::Script &gt;</text>
</a>
</g>
<!-- Node18&#45;&gt;Node1 -->
<g id="edge50" class="edge"><title>Node18&#45;&gt;Node1</title>
<path fill="none" stroke="#9a32cd" stroke-dasharray="5,2" d="M1636.26,-156.669C1650.93,-159.263 1666.17,-162.801 1680,-167.619 1704.97,-176.32 1731.18,-192.429 1747.05,-203.087"/>
<polygon fill="#9a32cd" stroke="#9a32cd" points="1636.66,-153.187 1626.23,-155.019 1635.53,-160.094 1636.66,-153.187"/>
<text text-anchor="middle" x="1662" y="-171.619" font-family="FreeSans" font-size="10.00"> script_</text>
</g>
<!-- Node18&#45;&gt;Node21 -->
<g id="edge60" class="edge"><title>Node18&#45;&gt;Node21</title>
<path fill="none" stroke="#9a32cd" stroke-dasharray="5,2" d="M1499.65,-144.684C1450.31,-141.377 1382.08,-137.327 1322,-135.619 1059.35,-128.151 744.872,-142.391 623.382,-148.762"/>
<polygon fill="#9a32cd" stroke="#9a32cd" points="1499.67,-148.193 1509.89,-145.378 1500.15,-141.209 1499.67,-148.193"/>
<text text-anchor="middle" x="1147" y="-138.619" font-family="FreeSans" font-size="10.00"> script_</text>
</g>
<!-- Node19 -->
<g id="node44" class="node"><title>Node19</title>
<a xlink:href="a00302.html" target="_top" xlink:title="Scripting subsystem. Allows execution of AngelScript.">
<polygon fill="none" stroke="red" points="1234.5,-145.119 1234.5,-166.119 1321.5,-166.119 1321.5,-145.119 1234.5,-145.119"/>
<text text-anchor="middle" x="1278" y="-153.119" font-family="FreeSans" font-size="10.00">Urho3D::Script</text>
</a>
</g>
<!-- Node19&#45;&gt;Node18 -->
<g id="edge52" class="edge"><title>Node19&#45;&gt;Node18</title>
<path fill="none" stroke="#9a32cd" stroke-dasharray="5,2" d="M1331.82,-154.505C1382.41,-153.459 1457.92,-151.896 1509.87,-150.821"/>
<polygon fill="#9a32cd" stroke="#9a32cd" points="1331.66,-151.008 1321.73,-154.714 1331.8,-158.006 1331.66,-151.008"/>
<text text-anchor="middle" x="1416" y="-158.619" font-family="FreeSans" font-size="10.00"> ptr_</text>
</g>
<!-- Node20 -->
<g id="node46" class="node"><title>Node20</title>
<a xlink:href="a00380.html" target="_top" xlink:title="Urho3D::WeakPtr\&lt; Urho3D\l::ScriptFile \&gt;">
<polygon fill="none" stroke="black" points="914,-162.619 914,-196.619 1060,-196.619 1060,-162.619 914,-162.619"/>
<text text-anchor="start" x="922" y="-183.619" font-family="FreeSans" font-size="10.00">Urho3D::WeakPtr&lt; Urho3D</text>
<text text-anchor="middle" x="987" y="-170.619" font-family="FreeSans" font-size="10.00">::ScriptFile &gt;</text>
</a>
</g>
<!-- Node20&#45;&gt;Node1 -->
<g id="edge80" class="edge"><title>Node20&#45;&gt;Node1</title>
<path fill="none" stroke="#9a32cd" stroke-dasharray="5,2" d="M1070.26,-183.271C1225.96,-190.102 1558.1,-204.673 1697.89,-210.806"/>
<polygon fill="#9a32cd" stroke="#9a32cd" points="1070.4,-179.774 1060.26,-182.833 1070.1,-186.768 1070.4,-179.774"/>
<text text-anchor="middle" x="1416" y="-206.619" font-family="FreeSans" font-size="10.00"> scriptFile_</text>
</g>
<!-- Node20&#45;&gt;Node19 -->
<g id="edge54" class="edge"><title>Node20&#45;&gt;Node19</title>
<path fill="none" stroke="#9a32cd" stroke-dasharray="5,2" d="M1070.41,-168.382C1072.97,-168.113 1075.5,-167.858 1078,-167.619 1131.67,-162.476 1193.67,-159.162 1234.23,-157.347"/>
<polygon fill="#9a32cd" stroke="#9a32cd" points="1070.01,-164.904 1060.46,-169.476 1070.78,-171.862 1070.01,-164.904"/>
<text text-anchor="middle" x="1147" y="-171.619" font-family="FreeSans" font-size="10.00"> defaultScriptFile_</text>
</g>
<!-- Node21&#45;&gt;Node20 -->
<g id="edge56" class="edge"><title>Node21&#45;&gt;Node20</title>
<path fill="none" stroke="#9a32cd" stroke-dasharray="5,2" d="M633.301,-152.271C698.56,-153.433 804.784,-156.658 896,-165.619 901.727,-166.181 907.643,-166.862 913.581,-167.618"/>
<polygon fill="#9a32cd" stroke="#9a32cd" points="633.245,-148.77 623.188,-152.102 633.128,-155.769 633.245,-148.77"/>
<text text-anchor="middle" x="799" y="-169.619" font-family="FreeSans" font-size="10.00"> ptr_</text>
</g>
<!-- Node22&#45;&gt;Node1 -->
<g id="edge72" class="edge"><title>Node22&#45;&gt;Node1</title>
<path fill="none" stroke="#9a32cd" stroke-dasharray="5,2" d="M286.232,-131.482C354.011,-109.875 469.731,-78.6186 572,-78.6186 572,-78.6186 572,-78.6186 1568,-78.6186 1654.99,-78.6186 1730.95,-171.2 1754.49,-203.025"/>
<polygon fill="#9a32cd" stroke="#9a32cd" points="285.028,-128.193 276.586,-134.595 287.178,-134.855 285.028,-128.193"/>
<text text-anchor="middle" x="1147" y="-82.6186" font-family="FreeSans" font-size="10.00"> delayedCalls_</text>
</g>
<!-- Node22&#45;&gt;Node21 -->
<g id="edge62" class="edge"><title>Node22&#45;&gt;Node21</title>
<path fill="none" stroke="#9a32cd" stroke-dasharray="5,2" d="M307.511,-151.619C373.185,-151.619 464.465,-151.619 520.808,-151.619"/>
<polygon fill="#9a32cd" stroke="#9a32cd" points="307.2,-148.119 297.2,-151.619 307.2,-155.119 307.2,-148.119"/>
<text text-anchor="middle" x="382" y="-155.619" font-family="FreeSans" font-size="10.00"> delayedCalls_</text>
</g>
<!-- Node23 -->
<g id="node55" class="node"><title>Node23</title>
<a xlink:href="a00280.html" target="_top" xlink:title="Reference count structure.">
<polygon fill="none" stroke="black" points="521,-181.119 521,-202.119 623,-202.119 623,-181.119 521,-181.119"/>
<text text-anchor="middle" x="572" y="-189.119" font-family="FreeSans" font-size="10.00">Urho3D::RefCount</text>
</a>
</g>
<!-- Node23&#45;&gt;Node20 -->
<g id="edge66" class="edge"><title>Node23&#45;&gt;Node20</title>
<path fill="none" stroke="#9a32cd" stroke-dasharray="5,2" d="M633.498,-189.84C708.228,-187.68 834.174,-184.038 913.821,-181.735"/>
<polygon fill="#9a32cd" stroke="#9a32cd" points="633.198,-186.347 623.303,-190.135 633.4,-193.345 633.198,-186.347"/>
<text text-anchor="middle" x="799" y="-192.619" font-family="FreeSans" font-size="10.00"> refCount_</text>
</g>
<!-- Node24&#45;&gt;Node1 -->
<g id="edge68" class="edge"><title>Node24&#45;&gt;Node1</title>
<path fill="none" stroke="#9a32cd" stroke-dasharray="5,2" d="M1502.28,-271.497C1554.37,-268.13 1621.72,-261.137 1680,-246.619 1701.29,-241.314 1724.38,-231.639 1740.62,-224.131"/>
<polygon fill="#9a32cd" stroke="#9a32cd" points="1501.84,-268.017 1492.07,-272.123 1502.27,-275.004 1501.84,-268.017"/>
<text text-anchor="middle" x="1568" y="-274.619" font-family="FreeSans" font-size="10.00"> idAttributes_</text>
</g>
<!-- Node25&#45;&gt;Node1 -->
<g id="edge74" class="edge"><title>Node25&#45;&gt;Node1</title>
<path fill="none" stroke="#9a32cd" stroke-dasharray="5,2" d="M1226.23,-19.7367C1337.2,1.99444 1540.87,24.2374 1680,-64.6186 1731.51,-97.517 1753.33,-174.632 1759.8,-202.948"/>
<polygon fill="#9a32cd" stroke="#9a32cd" points="1225.23,-16.3676 1216.12,-21.767 1226.61,-23.2308 1225.23,-16.3676"/>
<text text-anchor="middle" x="1416" y="-8.61862" font-family="FreeSans" font-size="10.00"> attributeInfos_</text>
</g>
</g>
</svg>
