<?xml version="1.0" encoding="UTF-8" standalone="no"?>
<!DOCTYPE svg PUBLIC "-//W3C//DTD SVG 1.1//EN"
 "http://www.w3.org/Graphics/SVG/1.1/DTD/svg11.dtd">
<!-- Generated by graphviz version 2.26.3 (20100126.1600)
 -->
<!-- Title: Urho3D::CollisionShape2D Pages: 1 -->
<svg width="294pt" height="320pt"
 viewBox="0.00 0.00 294.00 320.00" xmlns="http://www.w3.org/2000/svg" xmlns:xlink="http://www.w3.org/1999/xlink">
<g id="graph1" class="graph" transform="scale(1 1) rotate(0) translate(4 316)">
<title>Urho3D::CollisionShape2D</title>
<!-- Node1 -->
<g id="node1" class="node"><title>Node1</title>
<polygon fill="#bfbfbf" stroke="black" points="69.5,-58.5 69.5,-79.5 212.5,-79.5 212.5,-58.5 69.5,-58.5"/>
<text text-anchor="middle" x="141" y="-66.5" font-family="FreeSans" font-size="10.00">Urho3D::CollisionShape2D</text>
</g>
<!-- Node6 -->
<g id="node11" class="node"><title>Node6</title>
<a xlink:href="a00086.html" target="_top" xlink:title="2D box collision component.">
<polygon fill="none" stroke="black" points="0,-0.5 0,-21.5 130,-21.5 130,-0.5 0,-0.5"/>
<text text-anchor="middle" x="65" y="-8.5" font-family="FreeSans" font-size="10.00">Urho3D::CollisionBox2D</text>
</a>
</g>
<!-- Node1&#45;&gt;Node6 -->
<g id="edge10" class="edge"><title>Node1&#45;&gt;Node6</title>
<path fill="none" stroke="midnightblue" d="M119.063,-52.2587C106.098,-42.3641 90.0749,-30.1361 78.8512,-21.5707"/>
<polygon fill="midnightblue" stroke="midnightblue" points="116.988,-55.0775 127.06,-58.3619 121.234,-49.5128 116.988,-55.0775"/>
</g>
<!-- Node7 -->
<g id="node13" class="node"><title>Node7</title>
<a xlink:href="a00087.html" target="_top" xlink:title="2D circle collision component.">
<polygon fill="none" stroke="black" points="148,-0.5 148,-21.5 286,-21.5 286,-0.5 148,-0.5"/>
<text text-anchor="middle" x="217" y="-8.5" font-family="FreeSans" font-size="10.00">Urho3D::CollisionCircle2D</text>
</a>
</g>
<!-- Node1&#45;&gt;Node7 -->
<g id="edge12" class="edge"><title>Node1&#45;&gt;Node7</title>
<path fill="none" stroke="midnightblue" d="M162.937,-52.2587C175.902,-42.3641 191.925,-30.1361 203.149,-21.5707"/>
<polygon fill="midnightblue" stroke="midnightblue" points="160.766,-49.5128 154.94,-58.3619 165.012,-55.0775 160.766,-49.5128"/>
</g>
<!-- Node2 -->
<g id="node2" class="node"><title>Node2</title>
<a xlink:href="a00093.html" target="_top" xlink:title="Base class for components. Components can be created to scene nodes.">
<polygon fill="none" stroke="black" points="83,-116.5 83,-137.5 199,-137.5 199,-116.5 83,-116.5"/>
<text text-anchor="middle" x="141" y="-124.5" font-family="FreeSans" font-size="10.00">Urho3D::Component</text>
</a>
</g>
<!-- Node2&#45;&gt;Node1 -->
<g id="edge2" class="edge"><title>Node2&#45;&gt;Node1</title>
<path fill="none" stroke="midnightblue" d="M141,-106.191C141,-97.1684 141,-86.9941 141,-79.5707"/>
<polygon fill="midnightblue" stroke="midnightblue" points="137.5,-106.362 141,-116.362 144.5,-106.362 137.5,-106.362"/>
</g>
<!-- Node3 -->
<g id="node4" class="node"><title>Node3</title>
<a xlink:href="a00277.html" target="_top" xlink:title="Base class for objects with automatic serialization through attributes.">
<polygon fill="none" stroke="black" points="84,-174.5 84,-195.5 198,-195.5 198,-174.5 84,-174.5"/>
<text text-anchor="middle" x="141" y="-182.5" font-family="FreeSans" font-size="10.00">Urho3D::Serializable</text>
</a>
</g>
<!-- Node3&#45;&gt;Node2 -->
<g id="edge4" class="edge"><title>Node3&#45;&gt;Node2</title>
<path fill="none" stroke="midnightblue" d="M141,-164.191C141,-155.168 141,-144.994 141,-137.571"/>
<polygon fill="midnightblue" stroke="midnightblue" points="137.5,-164.362 141,-174.362 144.5,-164.362 137.5,-164.362"/>
</g>
<!-- Node4 -->
<g id="node6" class="node"><title>Node4</title>
<a xlink:href="a00211.html" target="_top" xlink:title="Base class for objects with type identification, subsystem access and event sending/receiving capabil...">
<polygon fill="none" stroke="black" points="96,-232.5 96,-253.5 186,-253.5 186,-232.5 96,-232.5"/>
<text text-anchor="middle" x="141" y="-240.5" font-family="FreeSans" font-size="10.00">Urho3D::Object</text>
</a>
</g>
<!-- Node4&#45;&gt;Node3 -->
<g id="edge6" class="edge"><title>Node4&#45;&gt;Node3</title>
<path fill="none" stroke="midnightblue" d="M141,-222.191C141,-213.168 141,-202.994 141,-195.571"/>
<polygon fill="midnightblue" stroke="midnightblue" points="137.5,-222.362 141,-232.362 144.5,-222.362 137.5,-222.362"/>
</g>
<!-- Node5 -->
<g id="node8" class="node"><title>Node5</title>
<a xlink:href="a00250.html" target="_top" xlink:title="Base class for intrusively reference&#45;counted objects. These are noncopyable and non&#45;assignable.">
<polygon fill="none" stroke="black" points="84,-290.5 84,-311.5 198,-311.5 198,-290.5 84,-290.5"/>
<text text-anchor="middle" x="141" y="-298.5" font-family="FreeSans" font-size="10.00">Urho3D::RefCounted</text>
</a>
</g>
<!-- Node5&#45;&gt;Node4 -->
<g id="edge8" class="edge"><title>Node5&#45;&gt;Node4</title>
<path fill="none" stroke="midnightblue" d="M141,-280.191C141,-271.168 141,-260.994 141,-253.571"/>
<polygon fill="midnightblue" stroke="midnightblue" points="137.5,-280.362 141,-290.362 144.5,-280.362 137.5,-280.362"/>
</g>
</g>
</svg>
