<?xml version="1.0" encoding="UTF-8" standalone="no"?>
<!DOCTYPE svg PUBLIC "-//W3C//DTD SVG 1.1//EN"
 "http://www.w3.org/Graphics/SVG/1.1/DTD/svg11.dtd">
<!-- Generated by graphviz version 2.26.3 (20100126.1600)
 -->
<!-- Title: Urho3D::ParticleEmitter2D Pages: 1 -->
<svg width="1274pt" height="701pt"
 viewBox="0.00 0.00 1274.00 701.00" xmlns="http://www.w3.org/2000/svg" xmlns:xlink="http://www.w3.org/1999/xlink">
<g id="graph1" class="graph" transform="scale(1 1) rotate(0) translate(4 697)">
<title>Urho3D::ParticleEmitter2D</title>
<!-- Node1 -->
<g id="node1" class="node"><title>Node1</title>
<polygon fill="#bfbfbf" stroke="black" points="1122.5,-199.5 1122.5,-220.5 1265.5,-220.5 1265.5,-199.5 1122.5,-199.5"/>
<text text-anchor="middle" x="1194" y="-207.5" font-family="FreeSans" font-size="10.00">Urho3D::ParticleEmitter2D</text>
</g>
<!-- Node2 -->
<g id="node2" class="node"><title>Node2</title>
<a xlink:href="a00128.html" target="_top" xlink:title="Base class for 2D visible components.">
<polygon fill="none" stroke="black" points="912.5,-199.5 912.5,-220.5 1029.5,-220.5 1029.5,-199.5 912.5,-199.5"/>
<text text-anchor="middle" x="971" y="-207.5" font-family="FreeSans" font-size="10.00">Urho3D::Drawable2D</text>
</a>
</g>
<!-- Node2&#45;&gt;Node1 -->
<g id="edge2" class="edge"><title>Node2&#45;&gt;Node1</title>
<path fill="none" stroke="midnightblue" d="M1039.8,-210C1065.97,-210 1095.84,-210 1122.27,-210"/>
<polygon fill="midnightblue" stroke="midnightblue" points="1039.59,-206.5 1029.59,-210 1039.59,-213.5 1039.59,-206.5"/>
</g>
<!-- Node3 -->
<g id="node4" class="node"><title>Node3</title>
<a xlink:href="a00127.html" target="_top" xlink:title="Base class for visible components.">
<polygon fill="none" stroke="black" points="597,-490.5 597,-511.5 701,-511.5 701,-490.5 597,-490.5"/>
<text text-anchor="middle" x="649" y="-498.5" font-family="FreeSans" font-size="10.00">Urho3D::Drawable</text>
</a>
</g>
<!-- Node3&#45;&gt;Node2 -->
<g id="edge4" class="edge"><title>Node3&#45;&gt;Node2</title>
<path fill="none" stroke="midnightblue" d="M687.923,-486.729C746.628,-464.426 853.58,-420.5 878,-388 905.39,-351.547 875.175,-327.563 896,-287 910.489,-258.778 938.808,-234.083 956.2,-220.676"/>
<polygon fill="midnightblue" stroke="midnightblue" points="686.368,-483.575 678.244,-490.376 688.836,-490.125 686.368,-483.575"/>
</g>
<!-- Node6 -->
<g id="node10" class="node"><title>Node6</title>
<a xlink:href="a00360.html" target="_top" xlink:title="Component that describes global rendering properties">
<polygon fill="none" stroke="red" points="928.5,-551.5 928.5,-572.5 1013.5,-572.5 1013.5,-551.5 928.5,-551.5"/>
<text text-anchor="middle" x="971" y="-559.5" font-family="FreeSans" font-size="10.00">Urho3D::Zone</text>
</a>
</g>
<!-- Node3&#45;&gt;Node6 -->
<g id="edge12" class="edge"><title>Node3&#45;&gt;Node6</title>
<path fill="none" stroke="midnightblue" d="M711.485,-512.11C757.559,-520.387 821.741,-532.095 878,-543 894.502,-546.199 912.618,-549.865 928.442,-553.118"/>
<polygon fill="midnightblue" stroke="midnightblue" points="711.814,-508.613 701.353,-510.292 710.578,-515.503 711.814,-508.613"/>
</g>
<!-- Node11 -->
<g id="node22" class="node"><title>Node11</title>
<a xlink:href="a00173.html" target="_top" xlink:title="Light component.">
<polygon fill="none" stroke="red" points="929.5,-473.5 929.5,-494.5 1012.5,-494.5 1012.5,-473.5 929.5,-473.5"/>
<text text-anchor="middle" x="971" y="-481.5" font-family="FreeSans" font-size="10.00">Urho3D::Light</text>
</a>
</g>
<!-- Node3&#45;&gt;Node11 -->
<g id="edge26" class="edge"><title>Node3&#45;&gt;Node11</title>
<path fill="none" stroke="midnightblue" d="M709.752,-488.848C719.817,-487.259 730.174,-485.879 740,-485 805.909,-479.106 882.82,-480.394 929.17,-482.055"/>
<polygon fill="midnightblue" stroke="midnightblue" points="709.106,-485.407 699.814,-490.497 710.252,-492.313 709.106,-485.407"/>
</g>
<!-- Node4 -->
<g id="node6" class="node"><title>Node4</title>
<a xlink:href="a00096.html" target="_top" xlink:title="Base class for components. Components can be created to scene nodes.">
<polygon fill="none" stroke="red" points="3,-283.5 3,-304.5 119,-304.5 119,-283.5 3,-283.5"/>
<text text-anchor="middle" x="61" y="-291.5" font-family="FreeSans" font-size="10.00">Urho3D::Component</text>
</a>
</g>
<!-- Node4&#45;&gt;Node3 -->
<g id="edge6" class="edge"><title>Node4&#45;&gt;Node3</title>
<path fill="none" stroke="midnightblue" d="M129.518,-299.218C229.277,-309.235 417.868,-337.46 558,-414 594.254,-433.802 626.577,-471.785 641.013,-490.311"/>
<polygon fill="midnightblue" stroke="midnightblue" points="129.559,-295.705 119.267,-298.221 128.882,-302.672 129.559,-295.705"/>
</g>
<!-- Node14 -->
<g id="node32" class="node"><title>Node14</title>
<a xlink:href="a00129.html" target="_top" xlink:title="2D drawable proxy components.">
<polygon fill="none" stroke="red" points="255.5,-165.5 255.5,-186.5 398.5,-186.5 398.5,-165.5 255.5,-165.5"/>
<text text-anchor="middle" x="327" y="-173.5" font-family="FreeSans" font-size="10.00">Urho3D::DrawableProxy2D</text>
</a>
</g>
<!-- Node4&#45;&gt;Node14 -->
<g id="edge40" class="edge"><title>Node4&#45;&gt;Node14</title>
<path fill="none" stroke="midnightblue" d="M87.4928,-278.097C123.621,-256.954 190.854,-219.529 252,-196 261.307,-192.419 271.5,-189.237 281.289,-186.522"/>
<polygon fill="midnightblue" stroke="midnightblue" points="85.4152,-275.258 78.5792,-283.353 88.9709,-281.288 85.4152,-275.258"/>
</g>
<!-- Node5 -->
<g id="node8" class="node"><title>Node5</title>
<a xlink:href="a00157.html" target="_top" xlink:title="Urho3D::HashSet\&lt; Urho3D\l::Camera * \&gt;">
<polygon fill="none" stroke="red" points="252.5,-503 252.5,-537 401.5,-537 401.5,-503 252.5,-503"/>
<text text-anchor="start" x="260.5" y="-524" font-family="FreeSans" font-size="10.00">Urho3D::HashSet&lt; Urho3D</text>
<text text-anchor="middle" x="327" y="-511" font-family="FreeSans" font-size="10.00">::Camera * &gt;</text>
</a>
</g>
<!-- Node5&#45;&gt;Node3 -->
<g id="edge8" class="edge"><title>Node5&#45;&gt;Node3</title>
<path fill="none" stroke="#9a32cd" stroke-dasharray="5,2" d="M411.691,-515.003C470.429,-511.537 546.796,-507.031 596.818,-504.079"/>
<polygon fill="#9a32cd" stroke="#9a32cd" points="411.459,-511.51 401.683,-515.593 411.871,-518.498 411.459,-511.51"/>
<text text-anchor="middle" x="489" y="-518" font-family="FreeSans" font-size="10.00"> viewCameras_</text>
</g>
<!-- Node6&#45;&gt;Node3 -->
<g id="edge10" class="edge"><title>Node6&#45;&gt;Node3</title>
<path fill="none" stroke="#9a32cd" stroke-dasharray="5,2" d="M918.148,-561.592C870.805,-560.142 799.822,-555.27 740,-540 714.352,-533.453 686.631,-520.67 668.612,-511.522"/>
<polygon fill="#9a32cd" stroke="#9a32cd" points="918.084,-565.092 928.173,-561.859 918.27,-558.094 918.084,-565.092"/>
<text text-anchor="middle" x="809" y="-563" font-family="FreeSans" font-size="10.00"> zone_</text>
</g>
<!-- Node7 -->
<g id="node13" class="node"><title>Node7</title>
<a xlink:href="a00079.html" target="_top" xlink:title="Three&#45;dimensional axis&#45;aligned bounding box.">
<polygon fill="none" stroke="red" points="0,-646.5 0,-667.5 122,-667.5 122,-646.5 0,-646.5"/>
<text text-anchor="middle" x="61" y="-654.5" font-family="FreeSans" font-size="10.00">Urho3D::BoundingBox</text>
</a>
</g>
<!-- Node7&#45;&gt;Node3 -->
<g id="edge28" class="edge"><title>Node7&#45;&gt;Node3</title>
<path fill="none" stroke="#9a32cd" stroke-dasharray="5,2" d="M132.362,-659.291C233.523,-659.464 421.485,-648.228 558,-572 589.317,-554.513 621.33,-526.768 637.754,-511.66"/>
<polygon fill="#9a32cd" stroke="#9a32cd" points="132.272,-655.791 122.252,-659.235 132.233,-662.79 132.272,-655.791"/>
<text text-anchor="middle" x="327" y="-670" font-family="FreeSans" font-size="10.00"> worldBoundingBox_</text>
<text text-anchor="middle" x="327" y="-657" font-family="FreeSans" font-size="10.00">boundingBox_</text>
</g>
<!-- Node7&#45;&gt;Node6 -->
<g id="edge14" class="edge"><title>Node7&#45;&gt;Node6</title>
<path fill="none" stroke="#9a32cd" stroke-dasharray="5,2" d="M127.996,-669.2C132.053,-669.837 136.078,-670.443 140,-671 189.565,-678.039 202.009,-680.33 252,-683 318.572,-686.556 335.699,-689.972 402,-683 606.144,-661.534 844.798,-597.881 934.482,-572.561"/>
<polygon fill="#9a32cd" stroke="#9a32cd" points="128.315,-665.706 117.884,-667.562 127.196,-672.616 128.315,-665.706"/>
<text text-anchor="middle" x="489" y="-684" font-family="FreeSans" font-size="10.00"> lastWorldBoundingBox_</text>
</g>
<!-- Node12 -->
<g id="node26" class="node"><title>Node12</title>
<a xlink:href="a00219.html" target="_top" xlink:title="Octree octant">
<polygon fill="none" stroke="red" points="281,-555.5 281,-576.5 373,-576.5 373,-555.5 281,-555.5"/>
<text text-anchor="middle" x="327" y="-563.5" font-family="FreeSans" font-size="10.00">Urho3D::Octant</text>
</a>
</g>
<!-- Node7&#45;&gt;Node12 -->
<g id="edge32" class="edge"><title>Node7&#45;&gt;Node12</title>
<path fill="none" stroke="#9a32cd" stroke-dasharray="5,2" d="M88.5071,-641.339C103.413,-633.3 122.347,-623.796 140,-617 186.793,-598.987 242.464,-584.665 280.827,-575.84"/>
<polygon fill="#9a32cd" stroke="#9a32cd" points="86.4298,-638.486 79.3479,-646.367 89.7982,-644.623 86.4298,-638.486"/>
<text text-anchor="middle" x="187" y="-634" font-family="FreeSans" font-size="10.00"> cullingBox_</text>
<text text-anchor="middle" x="187" y="-621" font-family="FreeSans" font-size="10.00">worldBoundingBox_</text>
</g>
<!-- Node8 -->
<g id="node15" class="node"><title>Node8</title>
<a xlink:href="a00240.html" target="_top" xlink:title="Urho3D::PODVector\&lt;\l Urho3D::Light * \&gt;">
<polygon fill="none" stroke="black" points="267.5,-399 267.5,-433 386.5,-433 386.5,-399 267.5,-399"/>
<text text-anchor="start" x="275.5" y="-420" font-family="FreeSans" font-size="10.00">Urho3D::PODVector&lt;</text>
<text text-anchor="middle" x="327" y="-407" font-family="FreeSans" font-size="10.00"> Urho3D::Light * &gt;</text>
</a>
</g>
<!-- Node8&#45;&gt;Node3 -->
<g id="edge16" class="edge"><title>Node8&#45;&gt;Node3</title>
<path fill="none" stroke="#9a32cd" stroke-dasharray="5,2" d="M397.005,-417.09C443.75,-419.663 505.96,-426.693 558,-445 588.099,-455.588 618.831,-477.228 635.759,-490.289"/>
<polygon fill="#9a32cd" stroke="#9a32cd" points="397.137,-413.592 386.975,-416.593 396.79,-420.584 397.137,-413.592"/>
<text text-anchor="middle" x="489" y="-462" font-family="FreeSans" font-size="10.00"> vertexLights_</text>
<text text-anchor="middle" x="489" y="-449" font-family="FreeSans" font-size="10.00">lights_</text>
</g>
<!-- Node9 -->
<g id="node17" class="node"><title>Node9</title>
<a xlink:href="a00342.html" target="_top" xlink:title="Vector base class.">
<polygon fill="none" stroke="black" points="4,-377.5 4,-398.5 118,-398.5 118,-377.5 4,-377.5"/>
<text text-anchor="middle" x="61" y="-385.5" font-family="FreeSans" font-size="10.00">Urho3D::VectorBase</text>
</a>
</g>
<!-- Node9&#45;&gt;Node8 -->
<g id="edge18" class="edge"><title>Node9&#45;&gt;Node8</title>
<path fill="none" stroke="midnightblue" d="M128.114,-395.065C170.938,-399.572 225.953,-405.364 267.263,-409.712"/>
<polygon fill="midnightblue" stroke="midnightblue" points="128.375,-391.573 118.064,-394.007 127.642,-398.534 128.375,-391.573"/>
</g>
<!-- Node10 -->
<g id="node19" class="node"><title>Node10</title>
<a xlink:href="a00338.html" target="_top" xlink:title="Urho3D::Vector\&lt; Urho3D\l::SourceBatch \&gt;">
<polygon fill="none" stroke="black" points="258,-451 258,-485 396,-485 396,-451 258,-451"/>
<text text-anchor="start" x="266" y="-472" font-family="FreeSans" font-size="10.00">Urho3D::Vector&lt; Urho3D</text>
<text text-anchor="middle" x="327" y="-459" font-family="FreeSans" font-size="10.00">::SourceBatch &gt;</text>
</a>
</g>
<!-- Node9&#45;&gt;Node10 -->
<g id="edge22" class="edge"><title>Node9&#45;&gt;Node10</title>
<path fill="none" stroke="midnightblue" d="M100.286,-401.886C112.92,-406.229 127.009,-410.942 140,-415 180.906,-427.777 227.248,-440.921 263.565,-450.923"/>
<polygon fill="midnightblue" stroke="midnightblue" points="101.109,-398.468 90.514,-398.503 98.8185,-405.082 101.109,-398.468"/>
</g>
<!-- Node18 -->
<g id="node41" class="node"><title>Node18</title>
<a xlink:href="a00338.html" target="_top" xlink:title="Urho3D::Vector\&lt; Urho3D\l::Vertex2D \&gt;">
<polygon fill="none" stroke="black" points="420,-281 420,-315 558,-315 558,-281 420,-281"/>
<text text-anchor="start" x="428" y="-302" font-family="FreeSans" font-size="10.00">Urho3D::Vector&lt; Urho3D</text>
<text text-anchor="middle" x="489" y="-289" font-family="FreeSans" font-size="10.00">::Vertex2D &gt;</text>
</a>
</g>
<!-- Node9&#45;&gt;Node18 -->
<g id="edge50" class="edge"><title>Node9&#45;&gt;Node18</title>
<path fill="none" stroke="midnightblue" d="M93.3474,-373.56C107.449,-367.725 124.312,-361.354 140,-357 235.332,-330.544 348.791,-314.029 419.872,-305.415"/>
<polygon fill="midnightblue" stroke="midnightblue" points="91.9203,-370.363 84.0744,-377.483 94.6479,-376.81 91.9203,-370.363"/>
</g>
<!-- Node23 -->
<g id="node52" class="node"><title>Node23</title>
<a xlink:href="a00338.html" target="_top" xlink:title="Urho3D::Vector\&lt; Urho3D\l::Particle2D \&gt;">
<polygon fill="none" stroke="black" points="740,-345 740,-379 878,-379 878,-345 740,-345"/>
<text text-anchor="start" x="748" y="-366" font-family="FreeSans" font-size="10.00">Urho3D::Vector&lt; Urho3D</text>
<text text-anchor="middle" x="809" y="-353" font-family="FreeSans" font-size="10.00">::Particle2D &gt;</text>
</a>
</g>
<!-- Node9&#45;&gt;Node23 -->
<g id="edge62" class="edge"><title>Node9&#45;&gt;Node23</title>
<path fill="none" stroke="midnightblue" d="M128.415,-385.657C269.939,-380.737 596.707,-369.379 739.786,-364.406"/>
<polygon fill="midnightblue" stroke="midnightblue" points="128.016,-382.168 118.144,-386.014 128.259,-389.164 128.016,-382.168"/>
</g>
<!-- Node10&#45;&gt;Node3 -->
<g id="edge20" class="edge"><title>Node10&#45;&gt;Node3</title>
<path fill="none" stroke="#9a32cd" stroke-dasharray="5,2" d="M406.258,-474.408C450.879,-478.215 507.596,-483.388 558,-489 570.512,-490.393 583.967,-492.069 596.593,-493.721"/>
<polygon fill="#9a32cd" stroke="#9a32cd" points="406.32,-470.901 396.06,-473.543 405.729,-477.876 406.32,-470.901"/>
<text text-anchor="middle" x="489" y="-493" font-family="FreeSans" font-size="10.00"> batches_</text>
</g>
<!-- Node11&#45;&gt;Node3 -->
<g id="edge24" class="edge"><title>Node11&#45;&gt;Node3</title>
<path fill="none" stroke="#9a32cd" stroke-dasharray="5,2" d="M919.236,-486.733C859.307,-489.897 761.162,-495.078 701.093,-498.25"/>
<polygon fill="#9a32cd" stroke="#9a32cd" points="919.437,-490.227 929.239,-486.205 919.068,-483.237 919.437,-490.227"/>
<text text-anchor="middle" x="809" y="-499" font-family="FreeSans" font-size="10.00"> firstLight_</text>
</g>
<!-- Node12&#45;&gt;Node3 -->
<g id="edge30" class="edge"><title>Node12&#45;&gt;Node3</title>
<path fill="none" stroke="#9a32cd" stroke-dasharray="5,2" d="M383.023,-560.184C430.12,-554.659 499.007,-545.088 558,-531 579.519,-525.861 603.241,-517.964 621.068,-511.563"/>
<polygon fill="#9a32cd" stroke="#9a32cd" points="382.554,-556.715 373.02,-561.335 383.354,-563.669 382.554,-556.715"/>
<text text-anchor="middle" x="489" y="-559" font-family="FreeSans" font-size="10.00"> octant_</text>
</g>
<!-- Node12&#45;&gt;Node12 -->
<g id="edge34" class="edge"><title>Node12&#45;&gt;Node12</title>
<path fill="none" stroke="#9a32cd" stroke-dasharray="5,2" d="M301.063,-586.055C302.764,-591.164 311.41,-595 327,-595 351.336,-595 358.751,-585.653 349.245,-576.708"/>
<polygon fill="#9a32cd" stroke="#9a32cd" points="304.336,-587.294 304.755,-576.708 297.826,-584.722 304.336,-587.294"/>
<text text-anchor="middle" x="327" y="-612" font-family="FreeSans" font-size="10.00"> parent_</text>
<text text-anchor="middle" x="327" y="-599" font-family="FreeSans" font-size="10.00">children_</text>
</g>
<!-- Node13 -->
<g id="node30" class="node"><title>Node13</title>
<a xlink:href="a00351.html" target="_top" xlink:title="Urho3D::WeakPtr\&lt; Urho3D\l::DrawableProxy2D \&gt;">
<polygon fill="none" stroke="black" points="576,-193 576,-227 722,-227 722,-193 576,-193"/>
<text text-anchor="start" x="584" y="-214" font-family="FreeSans" font-size="10.00">Urho3D::WeakPtr&lt; Urho3D</text>
<text text-anchor="middle" x="649" y="-201" font-family="FreeSans" font-size="10.00">::DrawableProxy2D &gt;</text>
</a>
</g>
<!-- Node13&#45;&gt;Node2 -->
<g id="edge36" class="edge"><title>Node13&#45;&gt;Node2</title>
<path fill="none" stroke="#9a32cd" stroke-dasharray="5,2" d="M732.408,-210C788.884,-210 862.101,-210 912.45,-210"/>
<polygon fill="#9a32cd" stroke="#9a32cd" points="732.067,-206.5 722.067,-210 732.067,-213.5 732.067,-206.5"/>
<text text-anchor="middle" x="809" y="-214" font-family="FreeSans" font-size="10.00"> drawableProxy_</text>
</g>
<!-- Node14&#45;&gt;Node13 -->
<g id="edge38" class="edge"><title>Node14&#45;&gt;Node13</title>
<path fill="none" stroke="#9a32cd" stroke-dasharray="5,2" d="M408.85,-180.452C453.113,-183.345 508.666,-187.756 558,-194 563.729,-194.725 569.646,-195.563 575.586,-196.467"/>
<polygon fill="#9a32cd" stroke="#9a32cd" points="408.923,-176.95 398.72,-179.804 408.476,-183.936 408.923,-176.95"/>
<text text-anchor="middle" x="489" y="-198" font-family="FreeSans" font-size="10.00"> ptr_</text>
</g>
<!-- Node15 -->
<g id="node35" class="node"><title>Node15</title>
<a xlink:href="a00253.html" target="_top" xlink:title="Reference count structure.">
<polygon fill="none" stroke="black" points="276,-205.5 276,-226.5 378,-226.5 378,-205.5 276,-205.5"/>
<text text-anchor="middle" x="327" y="-213.5" font-family="FreeSans" font-size="10.00">Urho3D::RefCount</text>
</a>
</g>
<!-- Node15&#45;&gt;Node13 -->
<g id="edge42" class="edge"><title>Node15&#45;&gt;Node13</title>
<path fill="none" stroke="#9a32cd" stroke-dasharray="5,2" d="M388.028,-214.863C441.406,-213.868 519.046,-212.421 575.763,-211.365"/>
<polygon fill="#9a32cd" stroke="#9a32cd" points="387.955,-211.363 378.022,-215.049 388.085,-218.362 387.955,-211.363"/>
<text text-anchor="middle" x="489" y="-218" font-family="FreeSans" font-size="10.00"> refCount_</text>
</g>
<!-- Node16 -->
<g id="node37" class="node"><title>Node16</title>
<a xlink:href="a00290.html" target="_top" xlink:title="Urho3D::SharedPtr\&lt;\l Urho3D::Sprite2D \&gt;">
<polygon fill="none" stroke="black" points="269,-27 269,-61 385,-61 385,-27 269,-27"/>
<text text-anchor="start" x="277" y="-48" font-family="FreeSans" font-size="10.00">Urho3D::SharedPtr&lt;</text>
<text text-anchor="middle" x="327" y="-35" font-family="FreeSans" font-size="10.00"> Urho3D::Sprite2D &gt;</text>
</a>
</g>
<!-- Node16&#45;&gt;Node2 -->
<g id="edge44" class="edge"><title>Node16&#45;&gt;Node2</title>
<path fill="none" stroke="#9a32cd" stroke-dasharray="5,2" d="M395.537,-46.0541C491.594,-49.2656 661.308,-56.2442 722,-67 793.301,-79.6358 816.152,-76.3397 878,-114 916.054,-137.172 949.339,-179.586 963.604,-199.345"/>
<polygon fill="#9a32cd" stroke="#9a32cd" points="395.449,-42.5494 385.339,-45.7181 395.219,-49.5456 395.449,-42.5494"/>
<text text-anchor="middle" x="649" y="-71" font-family="FreeSans" font-size="10.00"> sprite_</text>
</g>
<!-- Node25 -->
<g id="node57" class="node"><title>Node25</title>
<a xlink:href="a00233.html" target="_top" xlink:title="2D particle emitter component.">
<polygon fill="none" stroke="red" points="581,-0.5 581,-21.5 717,-21.5 717,-0.5 581,-0.5"/>
<text text-anchor="middle" x="649" y="-8.5" font-family="FreeSans" font-size="10.00">Urho3D::ParticleModel2D</text>
</a>
</g>
<!-- Node16&#45;&gt;Node25 -->
<g id="edge68" class="edge"><title>Node16&#45;&gt;Node25</title>
<path fill="none" stroke="#9a32cd" stroke-dasharray="5,2" d="M395.486,-34.0169C403.738,-32.9353 412.054,-31.9018 420,-31 473.929,-24.8799 535.188,-19.6179 580.769,-16.0295"/>
<polygon fill="#9a32cd" stroke="#9a32cd" points="394.929,-30.5601 385.482,-35.3546 395.857,-37.4984 394.929,-30.5601"/>
<text text-anchor="middle" x="489" y="-35" font-family="FreeSans" font-size="10.00"> sprite_</text>
</g>
<!-- Node17 -->
<g id="node39" class="node"><title>Node17</title>
<a xlink:href="a00306.html" target="_top" xlink:title="Sprite.">
<polygon fill="none" stroke="red" points="10.5,-33.5 10.5,-54.5 111.5,-54.5 111.5,-33.5 10.5,-33.5"/>
<text text-anchor="middle" x="61" y="-41.5" font-family="FreeSans" font-size="10.00">Urho3D::Sprite2D</text>
</a>
</g>
<!-- Node17&#45;&gt;Node16 -->
<g id="edge46" class="edge"><title>Node17&#45;&gt;Node16</title>
<path fill="none" stroke="#9a32cd" stroke-dasharray="5,2" d="M121.671,-44C165.768,-44 225.11,-44 268.657,-44"/>
<polygon fill="#9a32cd" stroke="#9a32cd" points="121.659,-40.5001 111.659,-44 121.659,-47.5001 121.659,-40.5001"/>
<text text-anchor="middle" x="187" y="-48" font-family="FreeSans" font-size="10.00"> ptr_</text>
</g>
<!-- Node18&#45;&gt;Node2 -->
<g id="edge48" class="edge"><title>Node18&#45;&gt;Node2</title>
<path fill="none" stroke="#9a32cd" stroke-dasharray="5,2" d="M568.367,-302.809C648.76,-305.05 775.523,-301.276 878,-265 908.238,-254.296 939.575,-233.352 957.051,-220.624"/>
<polygon fill="#9a32cd" stroke="#9a32cd" points="568.418,-299.309 558.312,-302.491 568.196,-306.305 568.418,-299.309"/>
<text text-anchor="middle" x="649" y="-307" font-family="FreeSans" font-size="10.00"> vertices_</text>
</g>
<!-- Node19 -->
<g id="node44" class="node"><title>Node19</title>
<a xlink:href="a00290.html" target="_top" xlink:title="Urho3D::SharedPtr\&lt;\l Urho3D::Geometry \&gt;">
<polygon fill="none" stroke="black" points="588,-245 588,-279 710,-279 710,-245 588,-245"/>
<text text-anchor="start" x="596" y="-266" font-family="FreeSans" font-size="10.00">Urho3D::SharedPtr&lt;</text>
<text text-anchor="middle" x="649" y="-253" font-family="FreeSans" font-size="10.00"> Urho3D::Geometry &gt;</text>
</a>
</g>
<!-- Node19&#45;&gt;Node2 -->
<g id="edge52" class="edge"><title>Node19&#45;&gt;Node2</title>
<path fill="none" stroke="#9a32cd" stroke-dasharray="5,2" d="M720.316,-251.646C765.546,-244.945 825.268,-235.847 878,-227 889.978,-224.99 902.803,-222.722 914.983,-220.512"/>
<polygon fill="#9a32cd" stroke="#9a32cd" points="719.692,-248.2 710.311,-253.125 720.716,-255.125 719.692,-248.2"/>
<text text-anchor="middle" x="809" y="-252" font-family="FreeSans" font-size="10.00"> geometry_</text>
</g>
<!-- Node20 -->
<g id="node46" class="node"><title>Node20</title>
<a xlink:href="a00148.html" target="_top" xlink:title="Defines one or more vertex buffers, an index buffer and a draw range.">
<polygon fill="none" stroke="red" points="273.5,-245.5 273.5,-266.5 380.5,-266.5 380.5,-245.5 273.5,-245.5"/>
<text text-anchor="middle" x="327" y="-253.5" font-family="FreeSans" font-size="10.00">Urho3D::Geometry</text>
</a>
</g>
<!-- Node20&#45;&gt;Node19 -->
<g id="edge54" class="edge"><title>Node20&#45;&gt;Node19</title>
<path fill="none" stroke="#9a32cd" stroke-dasharray="5,2" d="M390.888,-256.487C437.268,-256.925 501.524,-257.702 558,-259 567.64,-259.221 577.852,-259.508 587.818,-259.815"/>
<polygon fill="#9a32cd" stroke="#9a32cd" points="390.715,-252.986 380.683,-256.394 390.651,-259.985 390.715,-252.986"/>
<text text-anchor="middle" x="489" y="-263" font-family="FreeSans" font-size="10.00"> ptr_</text>
</g>
<!-- Node21 -->
<g id="node48" class="node"><title>Node21</title>
<a xlink:href="a00290.html" target="_top" xlink:title="Urho3D::SharedPtr\&lt;\l Urho3D::VertexBuffer \&gt;">
<polygon fill="none" stroke="red" points="582.5,-141 582.5,-175 715.5,-175 715.5,-141 582.5,-141"/>
<text text-anchor="start" x="590.5" y="-162" font-family="FreeSans" font-size="10.00">Urho3D::SharedPtr&lt;</text>
<text text-anchor="middle" x="649" y="-149" font-family="FreeSans" font-size="10.00"> Urho3D::VertexBuffer &gt;</text>
</a>
</g>
<!-- Node21&#45;&gt;Node2 -->
<g id="edge56" class="edge"><title>Node21&#45;&gt;Node2</title>
<path fill="none" stroke="#9a32cd" stroke-dasharray="5,2" d="M725.879,-169.179C770.37,-175.791 827.403,-184.511 878,-193 889.978,-195.01 902.803,-197.278 914.983,-199.488"/>
<polygon fill="#9a32cd" stroke="#9a32cd" points="726.124,-165.677 715.719,-167.673 725.098,-172.602 726.124,-165.677"/>
<text text-anchor="middle" x="809" y="-197" font-family="FreeSans" font-size="10.00"> vertexBuffer_</text>
</g>
<!-- Node22 -->
<g id="node50" class="node"><title>Node22</title>
<a xlink:href="a00290.html" target="_top" xlink:title="Urho3D::SharedPtr\&lt;\l Urho3D::Material \&gt;">
<polygon fill="none" stroke="red" points="591,-89 591,-123 707,-123 707,-89 591,-89"/>
<text text-anchor="start" x="599" y="-110" font-family="FreeSans" font-size="10.00">Urho3D::SharedPtr&lt;</text>
<text text-anchor="middle" x="649" y="-97" font-family="FreeSans" font-size="10.00"> Urho3D::Material &gt;</text>
</a>
</g>
<!-- Node22&#45;&gt;Node2 -->
<g id="edge58" class="edge"><title>Node22&#45;&gt;Node2</title>
<path fill="none" stroke="#9a32cd" stroke-dasharray="5,2" d="M716.972,-114.147C763.462,-121.178 825.869,-133.521 878,-154 907.997,-165.784 939.415,-186.811 956.971,-199.476"/>
<polygon fill="#9a32cd" stroke="#9a32cd" points="717.408,-110.674 707.005,-112.684 716.391,-117.6 717.408,-110.674"/>
<text text-anchor="middle" x="809" y="-158" font-family="FreeSans" font-size="10.00"> material_</text>
</g>
<!-- Node23&#45;&gt;Node1 -->
<g id="edge60" class="edge"><title>Node23&#45;&gt;Node1</title>
<path fill="none" stroke="#9a32cd" stroke-dasharray="5,2" d="M861.96,-341.091C945.394,-308.151 1104.41,-245.369 1167.38,-220.511"/>
<polygon fill="#9a32cd" stroke="#9a32cd" points="860.432,-337.931 852.416,-344.859 863.003,-344.442 860.432,-337.931"/>
<text text-anchor="middle" x="971" y="-330" font-family="FreeSans" font-size="10.00"> particles_</text>
</g>
<!-- Node24 -->
<g id="node55" class="node"><title>Node24</title>
<a xlink:href="a00290.html" target="_top" xlink:title="Urho3D::SharedPtr\&lt;\l Urho3D::ParticleModel2D \&gt;">
<polygon fill="none" stroke="black" points="896,-76 896,-110 1046,-110 1046,-76 896,-76"/>
<text text-anchor="start" x="904" y="-97" font-family="FreeSans" font-size="10.00">Urho3D::SharedPtr&lt;</text>
<text text-anchor="middle" x="971" y="-84" font-family="FreeSans" font-size="10.00"> Urho3D::ParticleModel2D &gt;</text>
</a>
</g>
<!-- Node24&#45;&gt;Node1 -->
<g id="edge64" class="edge"><title>Node24&#45;&gt;Node1</title>
<path fill="none" stroke="#9a32cd" stroke-dasharray="5,2" d="M1012.32,-114.679C1060.29,-139.849 1137.47,-180.343 1173.83,-199.417"/>
<polygon fill="#9a32cd" stroke="#9a32cd" points="1013.91,-111.56 1003.43,-110.013 1010.66,-117.758 1013.91,-111.56"/>
<text text-anchor="middle" x="1084" y="-165" font-family="FreeSans" font-size="10.00"> model_</text>
</g>
<!-- Node25&#45;&gt;Node24 -->
<g id="edge66" class="edge"><title>Node25&#45;&gt;Node24</title>
<path fill="none" stroke="#9a32cd" stroke-dasharray="5,2" d="M727.282,-8.31051C772.493,-9.07719 829.776,-14.0737 878,-31 906.014,-40.8327 933.761,-61.0582 951.555,-75.7417"/>
<polygon fill="#9a32cd" stroke="#9a32cd" points="727.276,-4.81036 717.24,-8.2058 727.203,-11.81 727.276,-4.81036"/>
<text text-anchor="middle" x="809" y="-35" font-family="FreeSans" font-size="10.00"> ptr_</text>
</g>
</g>
</svg>
