<?xml version="1.0" encoding="UTF-8" standalone="no"?>
<!DOCTYPE svg PUBLIC "-//W3C//DTD SVG 1.1//EN"
 "http://www.w3.org/Graphics/SVG/1.1/DTD/svg11.dtd">
<!-- Generated by graphviz version 2.26.3 (20100126.1600)
 -->
<!-- Title: Urho3D::BorderImage Pages: 1 -->
<!--zoomable 230 -->
<svg id="main" version="1.1" xmlns="http://www.w3.org/2000/svg" xmlns:xlink="http://www.w3.org/1999/xlink" xml:space="preserve" onload="init(evt)">
        <defs>
                <circle id="rim" cx="0" cy="0" r="7"/>
                <circle id="rim2" cx="0" cy="0" r="3.5"/>
                <g id="zoomPlus">
                        <use xlink:href="#rim" fill="#404040">
                                <set attributeName="fill" to="#808080" begin="zoomplus.mouseover" end="zoomplus.mouseout"/>
                        </use>
                        <path d="M-4,0h8M0,-4v8" fill="none" stroke="white" stroke-width="1.5" pointer-events="none"/>
                </g>
                <g id="zoomMin">
                        <use xlink:href="#rim" fill="#404040">
                                <set attributeName="fill" to="#808080" begin="zoomminus.mouseover" end="zoomminus.mouseout"/>
                        </use>
                        <path d="M-4,0h8" fill="none" stroke="white" stroke-width="1.5" pointer-events="none"/>
                </g>
                <g id="dirArrow">
                        <path fill="none" stroke="white" stroke-width="1.5" d="M0,-3.0v7 M-2.5,-0.5L0,-3.0L2.5,-0.5"/>
                </g>
               <g id="resetDef">
                       <use xlink:href="#rim2" fill="#404040">
                               <set attributeName="fill" to="#808080" begin="reset.mouseover" end="reset.mouseout"/>
                       </use>
               </g>
        </defs>

<script type="text/javascript">
var viewWidth = 1290;
var viewHeight = 230;
var sectionId = 'dynsection-0';
</script>
<script xlink:href="svgpan.js"/>
<svg id="graph" class="graph">
<g id="viewport">
<title>Urho3D::BorderImage</title>
<!-- Node1 -->
<g id="node1" class="node"><title>Node1</title>
<polygon fill="#bfbfbf" stroke="black" points="722,-100.5 722,-121.5 844,-121.5 844,-100.5 722,-100.5"/>
<text text-anchor="middle" x="783" y="-108.5" font-family="FreeSans" font-size="10.00">Urho3D::BorderImage</text>
</g>
<!-- Node7 -->
<g id="node13" class="node"><title>Node7</title>
<a xlink:href="a00087.html" target="_top" xlink:title="Pushbutton UI element.">
<polygon fill="none" stroke="black" points="888,-200.5 888,-221.5 980,-221.5 980,-200.5 888,-200.5"/>
<text text-anchor="middle" x="934" y="-208.5" font-family="FreeSans" font-size="10.00">Urho3D::Button</text>
</a>
</g>
<!-- Node1&#45;&gt;Node7 -->
<g id="edge12" class="edge"><title>Node1&#45;&gt;Node7</title>
<path fill="none" stroke="midnightblue" d="M800.823,-128.87C819.299,-146.59 849.675,-173.549 880,-191 886.239,-194.59 893.24,-197.743 900.081,-200.42"/>
<polygon fill="midnightblue" stroke="midnightblue" points="803.044,-126.147 793.441,-121.671 798.157,-131.159 803.044,-126.147"/>
</g>
<!-- Node10 -->
<g id="node19" class="node"><title>Node10</title>
<a xlink:href="a00091.html" target="_top" xlink:title="UI element that can be toggled between unchecked and checked state.">
<polygon fill="none" stroke="black" points="880.5,-160.5 880.5,-181.5 987.5,-181.5 987.5,-160.5 880.5,-160.5"/>
<text text-anchor="middle" x="934" y="-168.5" font-family="FreeSans" font-size="10.00">Urho3D::CheckBox</text>
</a>
</g>
<!-- Node1&#45;&gt;Node10 -->
<g id="edge18" class="edge"><title>Node1&#45;&gt;Node10</title>
<path fill="none" stroke="midnightblue" d="M817.485,-125.578C835.961,-133.298 859.15,-142.843 880,-151 888.007,-154.132 896.728,-157.417 904.78,-160.399"/>
<polygon fill="midnightblue" stroke="midnightblue" points="818.597,-122.249 808.021,-121.611 815.891,-128.705 818.597,-122.249"/>
</g>
<!-- Node11 -->
<g id="node21" class="node"><title>Node11</title>
<a xlink:href="a00130.html" target="_top" xlink:title="Mouse cursor UI element.">
<polygon fill="none" stroke="black" points="888.5,-120.5 888.5,-141.5 979.5,-141.5 979.5,-120.5 888.5,-120.5"/>
<text text-anchor="middle" x="934" y="-128.5" font-family="FreeSans" font-size="10.00">Urho3D::Cursor</text>
</a>
</g>
<!-- Node1&#45;&gt;Node11 -->
<g id="edge20" class="edge"><title>Node1&#45;&gt;Node11</title>
<path fill="none" stroke="midnightblue" d="M854.493,-120.469C866.027,-121.997 877.685,-123.541 888.388,-124.959"/>
<polygon fill="midnightblue" stroke="midnightblue" points="854.79,-116.978 844.417,-119.135 853.871,-123.918 854.79,-116.978"/>
</g>
<!-- Node12 -->
<g id="node23" class="node"><title>Node12</title>
<a xlink:href="a00201.html" target="_top" xlink:title="Single&#45;line text editor UI element.">
<polygon fill="none" stroke="black" points="885.5,-80.5 885.5,-101.5 982.5,-101.5 982.5,-80.5 885.5,-80.5"/>
<text text-anchor="middle" x="934" y="-88.5" font-family="FreeSans" font-size="10.00">Urho3D::LineEdit</text>
</a>
</g>
<!-- Node1&#45;&gt;Node12 -->
<g id="edge22" class="edge"><title>Node1&#45;&gt;Node12</title>
<path fill="none" stroke="midnightblue" d="M854.35,-101.55C864.77,-100.17 875.296,-98.7753 885.131,-97.4727"/>
<polygon fill="midnightblue" stroke="midnightblue" points="853.871,-98.0824 844.417,-102.865 854.79,-105.022 853.871,-98.0824"/>
</g>
<!-- Node13 -->
<g id="node25" class="node"><title>Node13</title>
<a xlink:href="a00325.html" target="_top" xlink:title="Slider bar UI element.">
<polygon fill="none" stroke="black" points="891,-40.5 891,-61.5 977,-61.5 977,-40.5 891,-40.5"/>
<text text-anchor="middle" x="934" y="-48.5" font-family="FreeSans" font-size="10.00">Urho3D::Slider</text>
</a>
</g>
<!-- Node1&#45;&gt;Node13 -->
<g id="edge24" class="edge"><title>Node1&#45;&gt;Node13</title>
<path fill="none" stroke="midnightblue" d="M817.485,-96.4218C835.961,-88.702 859.15,-79.1571 880,-71 888.007,-67.8676 896.728,-64.5827 904.78,-61.6012"/>
<polygon fill="midnightblue" stroke="midnightblue" points="815.891,-93.2949 808.021,-100.389 818.597,-99.7507 815.891,-93.2949"/>
</g>
<!-- Node14 -->
<g id="node27" class="node"><title>Node14</title>
<a xlink:href="a00389.html" target="_top" xlink:title="Window UI element that can optionally by moved or resized.">
<polygon fill="none" stroke="black" points="886.5,-0.5 886.5,-21.5 981.5,-21.5 981.5,-0.5 886.5,-0.5"/>
<text text-anchor="middle" x="934" y="-8.5" font-family="FreeSans" font-size="10.00">Urho3D::Window</text>
</a>
</g>
<!-- Node1&#45;&gt;Node14 -->
<g id="edge26" class="edge"><title>Node1&#45;&gt;Node14</title>
<path fill="none" stroke="midnightblue" d="M800.823,-93.1299C819.299,-75.4096 849.675,-48.4506 880,-31 886.239,-27.4098 893.24,-24.2571 900.081,-21.5797"/>
<polygon fill="midnightblue" stroke="midnightblue" points="798.157,-90.8414 793.441,-100.329 803.044,-95.8528 798.157,-90.8414"/>
</g>
<!-- Node2 -->
<g id="node2" class="node"><title>Node2</title>
<a xlink:href="a00365.html" target="_top" xlink:title="Base class for UI elements.">
<polygon fill="none" stroke="black" points="576.5,-100.5 576.5,-121.5 685.5,-121.5 685.5,-100.5 576.5,-100.5"/>
<text text-anchor="middle" x="631" y="-108.5" font-family="FreeSans" font-size="10.00">Urho3D::UIElement</text>
</a>
</g>
<!-- Node2&#45;&gt;Node1 -->
<g id="edge2" class="edge"><title>Node2&#45;&gt;Node1</title>
<path fill="none" stroke="midnightblue" d="M696.129,-111C704.635,-111 713.326,-111 721.764,-111"/>
<polygon fill="midnightblue" stroke="midnightblue" points="695.876,-107.5 685.875,-111 695.875,-114.5 695.876,-107.5"/>
</g>
<!-- Node3 -->
<g id="node4" class="node"><title>Node3</title>
<a xlink:href="a00054.html" target="_top" xlink:title="Base class for animatable object, an animatable object can be set animation on it&#39;s attributes...">
<polygon fill="none" stroke="black" points="426,-100.5 426,-121.5 540,-121.5 540,-100.5 426,-100.5"/>
<text text-anchor="middle" x="483" y="-108.5" font-family="FreeSans" font-size="10.00">Urho3D::Animatable</text>
</a>
</g>
<!-- Node3&#45;&gt;Node2 -->
<g id="edge4" class="edge"><title>Node3&#45;&gt;Node2</title>
<path fill="none" stroke="midnightblue" d="M550.356,-111C559.063,-111 567.894,-111 576.362,-111"/>
<polygon fill="midnightblue" stroke="midnightblue" points="550.221,-107.5 540.221,-111 550.221,-114.5 550.221,-107.5"/>
</g>
<!-- Node4 -->
<g id="node6" class="node"><title>Node4</title>
<a xlink:href="a00311.html" target="_top" xlink:title="Base class for objects with automatic serialization through attributes.">
<polygon fill="none" stroke="black" points="276,-100.5 276,-121.5 390,-121.5 390,-100.5 276,-100.5"/>
<text text-anchor="middle" x="333" y="-108.5" font-family="FreeSans" font-size="10.00">Urho3D::Serializable</text>
</a>
</g>
<!-- Node4&#45;&gt;Node3 -->
<g id="edge6" class="edge"><title>Node4&#45;&gt;Node3</title>
<path fill="none" stroke="midnightblue" d="M400.311,-111C408.728,-111 417.277,-111 425.525,-111"/>
<polygon fill="midnightblue" stroke="midnightblue" points="400.137,-107.5 390.136,-111 400.136,-114.5 400.137,-107.5"/>
</g>
<!-- Node5 -->
<g id="node8" class="node"><title>Node5</title>
<a xlink:href="a00241.html" target="_top" xlink:title="Base class for objects with type identification, subsystem access and event sending/receiving capabil...">
<polygon fill="none" stroke="black" points="150,-100.5 150,-121.5 240,-121.5 240,-100.5 150,-100.5"/>
<text text-anchor="middle" x="195" y="-108.5" font-family="FreeSans" font-size="10.00">Urho3D::Object</text>
</a>
</g>
<!-- Node5&#45;&gt;Node4 -->
<g id="edge8" class="edge"><title>Node5&#45;&gt;Node4</title>
<path fill="none" stroke="midnightblue" d="M250.212,-111C258.574,-111 267.218,-111 275.625,-111"/>
<polygon fill="midnightblue" stroke="midnightblue" points="250.186,-107.5 240.186,-111 250.186,-114.5 250.186,-107.5"/>
</g>
<!-- Node6 -->
<g id="node10" class="node"><title>Node6</title>
<a xlink:href="a00283.html" target="_top" xlink:title="Base class for intrusively reference&#45;counted objects. These are noncopyable and non&#45;assignable.">
<polygon fill="none" stroke="black" points="0,-100.5 0,-121.5 114,-121.5 114,-100.5 0,-100.5"/>
<text text-anchor="middle" x="57" y="-108.5" font-family="FreeSans" font-size="10.00">Urho3D::RefCounted</text>
</a>
</g>
<!-- Node6&#45;&gt;Node5 -->
<g id="edge10" class="edge"><title>Node6&#45;&gt;Node5</title>
<path fill="none" stroke="midnightblue" d="M124.403,-111C133.027,-111 141.686,-111 149.838,-111"/>
<polygon fill="midnightblue" stroke="midnightblue" points="124.326,-107.5 114.326,-111 124.326,-114.5 124.326,-107.5"/>
</g>
<!-- Node8 -->
<g id="node15" class="node"><title>Node8</title>
<a xlink:href="a00223.html" target="_top" xlink:title="Menu UI element that optionally shows a popup.">
<polygon fill="none" stroke="black" points="1029,-200.5 1029,-221.5 1115,-221.5 1115,-200.5 1029,-200.5"/>
<text text-anchor="middle" x="1072" y="-208.5" font-family="FreeSans" font-size="10.00">Urho3D::Menu</text>
</a>
</g>
<!-- Node7&#45;&gt;Node8 -->
<g id="edge14" class="edge"><title>Node7&#45;&gt;Node8</title>
<path fill="none" stroke="midnightblue" d="M990.445,-211C1003.25,-211 1016.66,-211 1028.82,-211"/>
<polygon fill="midnightblue" stroke="midnightblue" points="990.336,-207.5 980.336,-211 990.336,-214.5 990.336,-207.5"/>
</g>
<!-- Node9 -->
<g id="node17" class="node"><title>Node9</title>
<a xlink:href="a00149.html" target="_top" xlink:title="Menu UI element that displays a popup list view.">
<polygon fill="none" stroke="black" points="1156.5,-200.5 1156.5,-221.5 1281.5,-221.5 1281.5,-200.5 1156.5,-200.5"/>
<text text-anchor="middle" x="1219" y="-208.5" font-family="FreeSans" font-size="10.00">Urho3D::DropDownList</text>
</a>
</g>
<!-- Node8&#45;&gt;Node9 -->
<g id="edge16" class="edge"><title>Node8&#45;&gt;Node9</title>
<path fill="none" stroke="midnightblue" d="M1125.53,-211C1135.56,-211 1146.12,-211 1156.39,-211"/>
<polygon fill="midnightblue" stroke="midnightblue" points="1125.31,-207.5 1115.31,-211 1125.31,-214.5 1125.31,-207.5"/>
</g>
<!-- Node15 -->
<g id="node29" class="node"><title>Node15</title>
<a xlink:href="a00385.html" target="_top" xlink:title="UI element which renders a 3D scene.">
<polygon fill="none" stroke="black" points="1024.5,-0.5 1024.5,-21.5 1119.5,-21.5 1119.5,-0.5 1024.5,-0.5"/>
<text text-anchor="middle" x="1072" y="-8.5" font-family="FreeSans" font-size="10.00">Urho3D::View3D</text>
</a>
</g>
<!-- Node14&#45;&gt;Node15 -->
<g id="edge28" class="edge"><title>Node14&#45;&gt;Node15</title>
<path fill="none" stroke="midnightblue" d="M992.014,-11C1002.74,-11 1013.83,-11 1024.21,-11"/>
<polygon fill="midnightblue" stroke="midnightblue" points="991.878,-7.5001 981.878,-11 991.878,-14.5001 991.878,-7.5001"/>
</g>
</g>
</svg>
        <g id="navigator" transform="translate(0 0)" fill="#404254">
                <rect fill="#f2f5e9" fill-opacity="0.5" stroke="#606060" stroke-width=".5" x="0" y="0" width="60" height="60"/>
                <use id="zoomplus" xlink:href="#zoomPlus" x="17" y="9" onmousedown="handleZoom(evt,'in')"/>
                <use id="zoomminus" xlink:href="#zoomMin" x="42" y="9" onmousedown="handleZoom(evt,'out')"/>
                <use id="reset" xlink:href="#resetDef" x="30" y="36" onmousedown="handleReset()"/>
                <g id="arrowUp" xlink:href="#dirArrow" transform="translate(30 24)" onmousedown="handlePan(0,-1)">
                  <use xlink:href="#rim" fill="#404040">
                        <set attributeName="fill" to="#808080" begin="arrowUp.mouseover" end="arrowUp.mouseout"/>
                  </use>
                  <path fill="none" stroke="white" stroke-width="1.5" d="M0,-3.0v7 M-2.5,-0.5L0,-3.0L2.5,-0.5"/>
                </g>
                <g id="arrowRight" xlink:href="#dirArrow" transform="rotate(90) translate(36 -43)" onmousedown="handlePan(1,0)">
                  <use xlink:href="#rim" fill="#404040">
                        <set attributeName="fill" to="#808080" begin="arrowRight.mouseover" end="arrowRight.mouseout"/>
                  </use>
                  <path fill="none" stroke="white" stroke-width="1.5" d="M0,-3.0v7 M-2.5,-0.5L0,-3.0L2.5,-0.5"/>
                </g>
                <g id="arrowDown" xlink:href="#dirArrow" transform="rotate(180) translate(-30 -48)" onmousedown="handlePan(0,1)">
                  <use xlink:href="#rim" fill="#404040">
                        <set attributeName="fill" to="#808080" begin="arrowDown.mouseover" end="arrowDown.mouseout"/>
                  </use>
                  <path fill="none" stroke="white" stroke-width="1.5" d="M0,-3.0v7 M-2.5,-0.5L0,-3.0L2.5,-0.5"/>
                </g>
                <g id="arrowLeft" xlink:href="#dirArrow" transform="rotate(270) translate(-36 17)" onmousedown="handlePan(-1,0)">
                  <use xlink:href="#rim" fill="#404040">
                        <set attributeName="fill" to="#808080" begin="arrowLeft.mouseover" end="arrowLeft.mouseout"/>
                  </use>
                  <path fill="none" stroke="white" stroke-width="1.5" d="M0,-3.0v7 M-2.5,-0.5L0,-3.0L2.5,-0.5"/>
                </g>
        </g>
        <svg viewBox="0 0 15 15" width="100%" height="30px" preserveAspectRatio="xMaxYMin meet">
         <g id="arrow_out" transform="scale(0.3 0.3)">
          <a xlink:href="a01572_org.svg" target="_base">
           <rect id="button" ry="5" rx="5" y="6" x="6" height="38" width="38"
                fill="#f2f5e9" fill-opacity="0.5" stroke="#606060" stroke-width="1.0"/>
           <path id="arrow"
             d="M 11.500037,31.436501 C 11.940474,20.09759 22.043105,11.32322 32.158766,21.979434 L 37.068811,17.246167 C 37.068811,17.246167 37.088388,32 37.088388,32 L 22.160133,31.978069 C 22.160133,31.978069 26.997745,27.140456 26.997745,27.140456 C 18.528582,18.264221 13.291696,25.230495 11.500037,31.436501 z"
             style="fill:#404040;"/>
          </a>
         </g>
        </svg>
</svg>
