<?xml version="1.0" encoding="UTF-8" standalone="no"?>
<!DOCTYPE svg PUBLIC "-//W3C//DTD SVG 1.1//EN"
 "http://www.w3.org/Graphics/SVG/1.1/DTD/svg11.dtd">
<!-- Generated by graphviz version 2.26.3 (20100126.1600)
 -->
<!-- Title: Urho3D::ConstraintPulley2D Pages: 1 -->
<!--zoomable 783 -->
<svg id="main" version="1.1" xmlns="http://www.w3.org/2000/svg" xmlns:xlink="http://www.w3.org/1999/xlink" xml:space="preserve" onload="init(evt)">
        <defs>
                <circle id="rim" cx="0" cy="0" r="7"/>
                <circle id="rim2" cx="0" cy="0" r="3.5"/>
                <g id="zoomPlus">
                        <use xlink:href="#rim" fill="#404040">
                                <set attributeName="fill" to="#808080" begin="zoomplus.mouseover" end="zoomplus.mouseout"/>
                        </use>
                        <path d="M-4,0h8M0,-4v8" fill="none" stroke="white" stroke-width="1.5" pointer-events="none"/>
                </g>
                <g id="zoomMin">
                        <use xlink:href="#rim" fill="#404040">
                                <set attributeName="fill" to="#808080" begin="zoomminus.mouseover" end="zoomminus.mouseout"/>
                        </use>
                        <path d="M-4,0h8" fill="none" stroke="white" stroke-width="1.5" pointer-events="none"/>
                </g>
                <g id="dirArrow">
                        <path fill="none" stroke="white" stroke-width="1.5" d="M0,-3.0v7 M-2.5,-0.5L0,-3.0L2.5,-0.5"/>
                </g>
               <g id="resetDef">
                       <use xlink:href="#rim2" fill="#404040">
                               <set attributeName="fill" to="#808080" begin="reset.mouseover" end="reset.mouseout"/>
                       </use>
               </g>
        </defs>

<script type="text/javascript">
var viewWidth = 2268;
var viewHeight = 783;
var sectionId = 'dynsection-1';
</script>
<script xlink:href="svgpan.js"/>
<svg id="graph" class="graph">
<g id="viewport">
<title>Urho3D::ConstraintPulley2D</title>
<!-- Node1 -->
<g id="node1" class="node"><title>Node1</title>
<polygon fill="#bfbfbf" stroke="black" points="2110,-424.722 2110,-445.722 2260,-445.722 2260,-424.722 2110,-424.722"/>
<text text-anchor="middle" x="2185" y="-432.722" font-family="FreeSans" font-size="10.00">Urho3D::ConstraintPulley2D</text>
</g>
<!-- Node2 -->
<g id="node2" class="node"><title>Node2</title>
<a xlink:href="a00109.html" target="_top" xlink:title="2D physics constraint component.">
<polygon fill="none" stroke="black" points="1950,-559.722 1950,-580.722 2072,-580.722 2072,-559.722 1950,-559.722"/>
<text text-anchor="middle" x="2011" y="-567.722" font-family="FreeSans" font-size="10.00">Urho3D::Constraint2D</text>
</a>
</g>
<!-- Node2&#45;&gt;Node1 -->
<g id="edge2" class="edge"><title>Node2&#45;&gt;Node1</title>
<path fill="none" stroke="midnightblue" d="M2032.67,-553.41C2069.05,-525.186 2141.36,-469.083 2171.41,-445.766"/>
<polygon fill="midnightblue" stroke="midnightblue" points="2030.41,-550.733 2024.65,-559.629 2034.7,-556.264 2030.41,-550.733"/>
</g>
<!-- Node3 -->
<g id="node4" class="node"><title>Node3</title>
<a xlink:href="a00099.html" target="_top" xlink:title="Base class for components. Components can be created to scene nodes.">
<polygon fill="none" stroke="black" points="814,-568.722 814,-589.722 930,-589.722 930,-568.722 814,-568.722"/>
<text text-anchor="middle" x="872" y="-576.722" font-family="FreeSans" font-size="10.00">Urho3D::Component</text>
</a>
</g>
<!-- Node3&#45;&gt;Node2 -->
<g id="edge4" class="edge"><title>Node3&#45;&gt;Node2</title>
<path fill="none" stroke="midnightblue" d="M907.333,-593.433C947.331,-608.214 1014.77,-629.222 1075,-629.222 1075,-629.222 1075,-629.222 1783,-629.222 1859.46,-629.222 1945.87,-597.741 1986.9,-580.77"/>
<polygon fill="midnightblue" stroke="midnightblue" points="908.368,-590.083 897.777,-589.826 905.896,-596.632 908.368,-590.083"/>
</g>
<!-- Node21 -->
<g id="node53" class="node"><title>Node21</title>
<a xlink:href="a00280.html" target="_top" xlink:title="2D rigid body component.">
<polygon fill="none" stroke="red" points="1482.5,-478.722 1482.5,-499.722 1601.5,-499.722 1601.5,-478.722 1482.5,-478.722"/>
<text text-anchor="middle" x="1542" y="-486.722" font-family="FreeSans" font-size="10.00">Urho3D::RigidBody2D</text>
</a>
</g>
<!-- Node3&#45;&gt;Node21 -->
<g id="edge68" class="edge"><title>Node3&#45;&gt;Node21</title>
<path fill="none" stroke="midnightblue" d="M897.397,-563.261C923.874,-547.56 967.135,-524.496 1008,-514.222 1175.87,-472.017 1382.56,-478.038 1482.41,-484.417"/>
<polygon fill="midnightblue" stroke="midnightblue" points="895.515,-560.309 888.763,-568.474 899.133,-566.301 895.515,-560.309"/>
</g>
<!-- Node23 -->
<g id="node58" class="node"><title>Node23</title>
<a xlink:href="a00250.html" target="_top" xlink:title="2D physics simulation world component. Should be added only to the root scene node.">
<polygon fill="none" stroke="red" points="1008,-568.722 1008,-589.722 1142,-589.722 1142,-568.722 1008,-568.722"/>
<text text-anchor="middle" x="1075" y="-576.722" font-family="FreeSans" font-size="10.00">Urho3D::PhysicsWorld2D</text>
</a>
</g>
<!-- Node3&#45;&gt;Node23 -->
<g id="edge74" class="edge"><title>Node3&#45;&gt;Node23</title>
<path fill="none" stroke="midnightblue" d="M940.328,-579.222C962.107,-579.222 986.174,-579.222 1007.87,-579.222"/>
<polygon fill="midnightblue" stroke="midnightblue" points="940.172,-575.722 930.172,-579.222 940.172,-582.722 940.172,-575.722"/>
</g>
<!-- Node4 -->
<g id="node6" class="node"><title>Node4</title>
<a xlink:href="a00282.html" target="_top" xlink:title="Base class for scene objects.">
<polygon fill="none" stroke="black" points="358,-675.722 358,-696.722 478,-696.722 478,-675.722 358,-675.722"/>
<text text-anchor="middle" x="418" y="-683.722" font-family="FreeSans" font-size="10.00">Urho3D::SceneObject</text>
</a>
</g>
<!-- Node4&#45;&gt;Node3 -->
<g id="edge6" class="edge"><title>Node4&#45;&gt;Node3</title>
<path fill="none" stroke="midnightblue" d="M488.49,-687.214C531.566,-686.464 587.514,-683.052 636,-672.222 719.166,-653.646 811.441,-610.019 851.54,-589.823"/>
<polygon fill="midnightblue" stroke="midnightblue" points="488.342,-683.716 478.388,-687.346 488.433,-690.715 488.342,-683.716"/>
</g>
<!-- Node7 -->
<g id="node12" class="node"><title>Node7</title>
<a xlink:href="a00220.html" target="_top" xlink:title="Scene node that may contain components and child nodes.">
<polygon fill="none" stroke="red" points="654.5,-344.722 654.5,-365.722 739.5,-365.722 739.5,-344.722 654.5,-344.722"/>
<text text-anchor="middle" x="697" y="-352.722" font-family="FreeSans" font-size="10.00">Urho3D::Node</text>
</a>
</g>
<!-- Node4&#45;&gt;Node7 -->
<g id="edge14" class="edge"><title>Node4&#45;&gt;Node7</title>
<path fill="none" stroke="midnightblue" d="M488.27,-677.617C547.856,-669.679 625.328,-657.59 636,-647.222 677.603,-606.805 693.104,-413.555 696.329,-365.874"/>
<polygon fill="midnightblue" stroke="midnightblue" points="487.582,-674.177 478.124,-678.952 488.496,-681.117 487.582,-674.177"/>
</g>
<!-- Node5 -->
<g id="node8" class="node"><title>Node5</title>
<a xlink:href="a00294.html" target="_top" xlink:title="Base class for objects with automatic serialization through attributes.">
<polygon fill="none" stroke="red" points="31,-675.722 31,-696.722 145,-696.722 145,-675.722 31,-675.722"/>
<text text-anchor="middle" x="88" y="-683.722" font-family="FreeSans" font-size="10.00">Urho3D::Serializable</text>
</a>
</g>
<!-- Node5&#45;&gt;Node4 -->
<g id="edge8" class="edge"><title>Node5&#45;&gt;Node4</title>
<path fill="none" stroke="midnightblue" d="M155.154,-686.222C214.653,-686.222 300.727,-686.222 357.972,-686.222"/>
<polygon fill="midnightblue" stroke="midnightblue" points="155.105,-682.722 145.105,-686.222 155.105,-689.722 155.105,-682.722"/>
</g>
<!-- Node6 -->
<g id="node10" class="node"><title>Node6</title>
<a xlink:href="a00163.html" target="_top" xlink:title="Urho3D::HashMap\&lt; const\l Urho3D::AttributeInfo\l *, Urho3D::SharedPtr\&lt;\l Urho3D::AttributeAnimation \&gt; \&gt;">
<polygon fill="none" stroke="red" points="0,-715.222 0,-775.222 176,-775.222 176,-715.222 0,-715.222"/>
<text text-anchor="start" x="8" y="-762.222" font-family="FreeSans" font-size="10.00">Urho3D::HashMap&lt; const</text>
<text text-anchor="start" x="8" y="-749.222" font-family="FreeSans" font-size="10.00"> Urho3D::AttributeInfo</text>
<text text-anchor="start" x="8" y="-736.222" font-family="FreeSans" font-size="10.00"> *, Urho3D::SharedPtr&lt;</text>
<text text-anchor="middle" x="88" y="-723.222" font-family="FreeSans" font-size="10.00"> Urho3D::AttributeAnimation &gt; &gt;</text>
</a>
</g>
<!-- Node6&#45;&gt;Node4 -->
<g id="edge10" class="edge"><title>Node6&#45;&gt;Node4</title>
<path fill="none" stroke="#9a32cd" stroke-dasharray="5,2" d="M185.997,-727.701C242.288,-717.637 311.113,-705.332 359.12,-696.749"/>
<polygon fill="#9a32cd" stroke="#9a32cd" points="185.228,-724.283 176,-729.489 186.46,-731.174 185.228,-724.283"/>
<text text-anchor="middle" x="246" y="-729.222" font-family="FreeSans" font-size="10.00"> attributeAnimations_</text>
</g>
<!-- Node7&#45;&gt;Node3 -->
<g id="edge12" class="edge"><title>Node7&#45;&gt;Node3</title>
<path fill="none" stroke="#9a32cd" stroke-dasharray="5,2" d="M706.647,-375.494C724.336,-411.242 764.708,-486.583 814,-538.222 825.58,-550.353 841.225,-561.166 853.348,-568.638"/>
<polygon fill="#9a32cd" stroke="#9a32cd" points="709.61,-373.585 702.085,-366.126 703.317,-376.649 709.61,-373.585"/>
<text text-anchor="middle" x="777" y="-519.222" font-family="FreeSans" font-size="10.00"> node_</text>
</g>
<!-- Node7&#45;&gt;Node7 -->
<g id="edge44" class="edge"><title>Node7&#45;&gt;Node7</title>
<path fill="none" stroke="#9a32cd" stroke-dasharray="5,2" d="M682.349,-376.015C683.642,-380.751 688.526,-384.222 697,-384.222 710.906,-384.222 715.143,-374.875 709.711,-365.93"/>
<polygon fill="#9a32cd" stroke="#9a32cd" points="685.837,-376.411 684.289,-365.93 678.963,-375.089 685.837,-376.411"/>
<text text-anchor="middle" x="697" y="-388.222" font-family="FreeSans" font-size="10.00"> parent_</text>
</g>
<!-- Node9 -->
<g id="node17" class="node"><title>Node9</title>
<a xlink:href="a00281.html" target="_top" xlink:title="Root scene node, represents the whole scene.">
<polygon fill="none" stroke="red" points="827.5,-117.722 827.5,-138.722 916.5,-138.722 916.5,-117.722 827.5,-117.722"/>
<text text-anchor="middle" x="872" y="-125.722" font-family="FreeSans" font-size="10.00">Urho3D::Scene</text>
</a>
</g>
<!-- Node7&#45;&gt;Node9 -->
<g id="edge20" class="edge"><title>Node7&#45;&gt;Node9</title>
<path fill="none" stroke="midnightblue" d="M703.335,-334.963C712.462,-307.876 731.21,-259.219 758,-224.222 786.31,-187.24 831.169,-154.803 855.309,-138.803"/>
<polygon fill="midnightblue" stroke="midnightblue" points="699.989,-333.934 700.212,-344.527 706.643,-336.107 699.989,-333.934"/>
</g>
<!-- Node8 -->
<g id="node15" class="node"><title>Node8</title>
<a xlink:href="a00252.html" target="_top" xlink:title="Urho3D::PODVector\&lt;\l Urho3D::Node * \&gt;">
<polygon fill="none" stroke="red" points="358.5,-464.222 358.5,-498.222 477.5,-498.222 477.5,-464.222 358.5,-464.222"/>
<text text-anchor="start" x="366.5" y="-485.222" font-family="FreeSans" font-size="10.00">Urho3D::PODVector&lt;</text>
<text text-anchor="middle" x="418" y="-472.222" font-family="FreeSans" font-size="10.00"> Urho3D::Node * &gt;</text>
</a>
</g>
<!-- Node8&#45;&gt;Node7 -->
<g id="edge16" class="edge"><title>Node8&#45;&gt;Node7</title>
<path fill="none" stroke="#9a32cd" stroke-dasharray="5,2" d="M487.684,-484.35C533.185,-483.196 592.078,-475.376 636,-447.222 666.978,-427.366 685.801,-385.544 693.277,-365.874"/>
<polygon fill="#9a32cd" stroke="#9a32cd" points="487.548,-480.851 477.603,-484.503 487.655,-487.851 487.548,-480.851"/>
<text text-anchor="middle" x="587" y="-483.222" font-family="FreeSans" font-size="10.00"> dependencyNodes_</text>
</g>
<!-- Node9&#45;&gt;Node7 -->
<g id="edge18" class="edge"><title>Node9&#45;&gt;Node7</title>
<path fill="none" stroke="#9a32cd" stroke-dasharray="5,2" d="M857.514,-147.012C822.24,-192.768 732.764,-308.831 705.206,-344.578"/>
<polygon fill="#9a32cd" stroke="#9a32cd" points="860.478,-148.9 863.812,-138.843 854.934,-144.626 860.478,-148.9"/>
<text text-anchor="middle" x="777" y="-280.222" font-family="FreeSans" font-size="10.00"> scene_</text>
</g>
<!-- Node10 -->
<g id="node20" class="node"><title>Node10</title>
<a xlink:href="a00326.html" target="_top" xlink:title="String class.">
<polygon fill="none" stroke="black" points="44,-402.722 44,-423.722 132,-423.722 132,-402.722 44,-402.722"/>
<text text-anchor="middle" x="88" y="-410.722" font-family="FreeSans" font-size="10.00">Urho3D::String</text>
</a>
</g>
<!-- Node10&#45;&gt;Node7 -->
<g id="edge42" class="edge"><title>Node10&#45;&gt;Node7</title>
<path fill="none" stroke="#9a32cd" stroke-dasharray="5,2" d="M142.168,-416.88C158.789,-417.843 177.14,-418.745 194,-419.222 338.946,-423.321 376.018,-423.407 520,-406.222 572.024,-400.013 586.235,-401.608 636,-385.222 651.021,-380.276 667.03,-372.288 678.877,-365.798"/>
<polygon fill="#9a32cd" stroke="#9a32cd" points="142.262,-413.379 132.071,-416.275 141.844,-420.367 142.262,-413.379"/>
<text text-anchor="middle" x="418" y="-426.222" font-family="FreeSans" font-size="10.00"> name_</text>
</g>
<!-- Node10&#45;&gt;Node9 -->
<g id="edge22" class="edge"><title>Node10&#45;&gt;Node9</title>
<path fill="none" stroke="#9a32cd" stroke-dasharray="5,2" d="M94.4544,-393.056C114.966,-333.109 185.14,-157.13 316,-108.222 500.8,-39.154 744.646,-93.0294 835.68,-117.633"/>
<polygon fill="#9a32cd" stroke="#9a32cd" points="91.1329,-391.953 91.2945,-402.547 97.7744,-394.165 91.1329,-391.953"/>
<text text-anchor="middle" x="587" y="-84.222" font-family="FreeSans" font-size="10.00"> fileName_</text>
</g>
<!-- Node10&#45;&gt;Node10 -->
<g id="edge24" class="edge"><title>Node10&#45;&gt;Node10</title>
<path fill="none" stroke="#9a32cd" stroke-dasharray="5,2" d="M58.7278,-433.277C60.6479,-438.386 70.4053,-442.222 88,-442.222 115.465,-442.222 123.833,-432.875 113.105,-423.93"/>
<polygon fill="#9a32cd" stroke="#9a32cd" points="62.0198,-434.488 62.8954,-423.93 55.6265,-431.638 62.0198,-434.488"/>
<text text-anchor="middle" x="88" y="-446.222" font-family="FreeSans" font-size="10.00"> EMPTY</text>
</g>
<!-- Node19 -->
<g id="node45" class="node"><title>Node19</title>
<a xlink:href="a00103.html" target="_top" xlink:title="Connection to a remote network host.">
<polygon fill="none" stroke="red" points="361.5,-516.722 361.5,-537.722 474.5,-537.722 474.5,-516.722 361.5,-516.722"/>
<text text-anchor="middle" x="418" y="-524.722" font-family="FreeSans" font-size="10.00">Urho3D::Connection</text>
</a>
</g>
<!-- Node10&#45;&gt;Node19 -->
<g id="edge60" class="edge"><title>Node10&#45;&gt;Node19</title>
<path fill="none" stroke="#9a32cd" stroke-dasharray="5,2" d="M130.666,-426.941C149.998,-433.148 173.147,-440.569 194,-447.222 240.199,-461.961 259.25,-451.067 298,-480.222 309.525,-488.893 304.002,-499.22 316,-507.222 329.361,-516.134 345.761,-521.266 361.471,-524.17"/>
<polygon fill="#9a32cd" stroke="#9a32cd" points="131.528,-423.542 120.937,-423.816 129.388,-430.206 131.528,-423.542"/>
<text text-anchor="middle" x="246" y="-484.222" font-family="FreeSans" font-size="10.00"> sceneFileName_</text>
</g>
<!-- Node11 -->
<g id="node23" class="node"><title>Node11</title>
<a xlink:href="a00163.html" target="_top" xlink:title="Urho3D::HashMap\&lt; ShortString\lHash, Variant \&gt;">
<polygon fill="none" stroke="red" points="3,-31.222 3,-65.222 173,-65.222 173,-31.222 3,-31.222"/>
<text text-anchor="start" x="11" y="-52.222" font-family="FreeSans" font-size="10.00">Urho3D::HashMap&lt; ShortString</text>
<text text-anchor="middle" x="88" y="-39.222" font-family="FreeSans" font-size="10.00">Hash, Variant &gt;</text>
</a>
</g>
<!-- Node11&#45;&gt;Node7 -->
<g id="edge52" class="edge"><title>Node11&#45;&gt;Node7</title>
<path fill="none" stroke="#9a32cd" stroke-dasharray="5,2" d="M183.222,-38.0171C321.811,-25.3541 569.805,-11.651 636,-67.222 679.842,-104.027 693.664,-296.923 696.434,-344.572"/>
<polygon fill="#9a32cd" stroke="#9a32cd" points="182.661,-34.5541 173.028,-38.9647 183.309,-41.524 182.661,-34.5541"/>
<text text-anchor="middle" x="418" y="-36.222" font-family="FreeSans" font-size="10.00"> vars_</text>
</g>
<!-- Node11&#45;&gt;Node9 -->
<g id="edge26" class="edge"><title>Node11&#45;&gt;Node9</title>
<path fill="none" stroke="#9a32cd" stroke-dasharray="5,2" d="M171.508,-29.4327C179.085,-28.1698 186.665,-27.0664 194,-26.222 389.188,-3.75242 442.393,15.2344 636,-18.222 710.386,-31.0764 728.889,-40.6581 796,-75.222 819.739,-87.4483 844.647,-106.104 859.227,-117.709"/>
<polygon fill="#9a32cd" stroke="#9a32cd" points="170.814,-26.0008 161.569,-31.1765 172.024,-32.8955 170.814,-26.0008"/>
<text text-anchor="middle" x="587" y="-22.222" font-family="FreeSans" font-size="10.00"> smoothingData_</text>
</g>
<!-- Node11&#45;&gt;Node19 -->
<g id="edge62" class="edge"><title>Node11&#45;&gt;Node19</title>
<path fill="none" stroke="#9a32cd" stroke-dasharray="5,2" d="M105.271,-73.7205C144.971,-133.434 243.493,-288.066 298,-430.222 310.582,-463.037 290.705,-482.822 316,-507.222 328.079,-518.873 344.843,-524.699 361.294,-527.393"/>
<polygon fill="#9a32cd" stroke="#9a32cd" points="108.102,-71.6583 99.6355,-65.2892 102.282,-75.5481 108.102,-71.6583"/>
<text text-anchor="middle" x="246" y="-434.222" font-family="FreeSans" font-size="10.00"> identity_</text>
</g>
<!-- Node12 -->
<g id="node25" class="node"><title>Node12</title>
<a xlink:href="a00257.html" target="_top" xlink:title="Rotation represented as a four&#45;dimensional normalized vector.">
<polygon fill="none" stroke="black" points="361.5,-344.722 361.5,-365.722 474.5,-365.722 474.5,-344.722 361.5,-344.722"/>
<text text-anchor="middle" x="418" y="-352.722" font-family="FreeSans" font-size="10.00">Urho3D::Quaternion</text>
</a>
</g>
<!-- Node12&#45;&gt;Node7 -->
<g id="edge28" class="edge"><title>Node12&#45;&gt;Node7</title>
<path fill="none" stroke="#9a32cd" stroke-dasharray="5,2" d="M485.055,-355.222C537.686,-355.222 609.359,-355.222 654.399,-355.222"/>
<polygon fill="#9a32cd" stroke="#9a32cd" points="484.796,-351.722 474.796,-355.222 484.796,-358.722 484.796,-351.722"/>
<text text-anchor="middle" x="587" y="-372.222" font-family="FreeSans" font-size="10.00"> worldRotation_</text>
<text text-anchor="middle" x="587" y="-359.222" font-family="FreeSans" font-size="10.00">rotation_</text>
</g>
<!-- Node12&#45;&gt;Node12 -->
<g id="edge30" class="edge"><title>Node12&#45;&gt;Node12</title>
<path fill="none" stroke="#9a32cd" stroke-dasharray="5,2" d="M386.741,-374.901C388.416,-380.197 398.835,-384.222 418,-384.222 447.203,-384.222 456.101,-374.875 444.693,-365.93"/>
<polygon fill="#9a32cd" stroke="#9a32cd" points="389.89,-376.43 391.307,-365.93 383.651,-373.254 389.89,-376.43"/>
<text text-anchor="middle" x="418" y="-388.222" font-family="FreeSans" font-size="10.00"> IDENTITY</text>
</g>
<!-- Node13 -->
<g id="node28" class="node"><title>Node13</title>
<a xlink:href="a00352.html" target="_top" xlink:title="Urho3D::Vector\&lt; Urho3D\l::WeakPtr\&lt; Urho3D::Component \&gt; \&gt;">
<polygon fill="none" stroke="red" points="321,-292.222 321,-326.222 515,-326.222 515,-292.222 321,-292.222"/>
<text text-anchor="start" x="329" y="-313.222" font-family="FreeSans" font-size="10.00">Urho3D::Vector&lt; Urho3D</text>
<text text-anchor="middle" x="418" y="-300.222" font-family="FreeSans" font-size="10.00">::WeakPtr&lt; Urho3D::Component &gt; &gt;</text>
</a>
</g>
<!-- Node13&#45;&gt;Node7 -->
<g id="edge32" class="edge"><title>Node13&#45;&gt;Node7</title>
<path fill="none" stroke="#9a32cd" stroke-dasharray="5,2" d="M525.425,-320.489C560.817,-325.004 600.254,-330.901 636,-338.222 644.616,-339.987 653.804,-342.309 662.365,-344.667"/>
<polygon fill="#9a32cd" stroke="#9a32cd" points="525.428,-316.962 515.07,-319.192 524.558,-323.908 525.428,-316.962"/>
<text text-anchor="middle" x="587" y="-342.222" font-family="FreeSans" font-size="10.00"> listeners_</text>
</g>
<!-- Node14 -->
<g id="node30" class="node"><title>Node14</title>
<a xlink:href="a00357.html" target="_top" xlink:title="Dynamically sized buffer that can be read and written to as a stream.">
<polygon fill="none" stroke="red" points="28.5,-635.722 28.5,-656.722 147.5,-656.722 147.5,-635.722 28.5,-635.722"/>
<text text-anchor="middle" x="88" y="-643.722" font-family="FreeSans" font-size="10.00">Urho3D::VectorBuffer</text>
</a>
</g>
<!-- Node14&#45;&gt;Node7 -->
<g id="edge34" class="edge"><title>Node14&#45;&gt;Node7</title>
<path fill="none" stroke="#9a32cd" stroke-dasharray="5,2" d="M157.767,-646.919C289.95,-646.689 569.623,-638.3 636,-573.222 666.659,-543.163 689.42,-405.605 695.43,-365.95"/>
<polygon fill="#9a32cd" stroke="#9a32cd" points="157.742,-643.419 147.743,-646.921 157.744,-650.419 157.742,-643.419"/>
<text text-anchor="middle" x="418" y="-646.222" font-family="FreeSans" font-size="10.00"> attrBuffer_</text>
</g>
<!-- Node14&#45;&gt;Node19 -->
<g id="edge56" class="edge"><title>Node14&#45;&gt;Node19</title>
<path fill="none" stroke="#9a32cd" stroke-dasharray="5,2" d="M157.35,-634.206C163.827,-631.98 170.149,-629.344 176,-626.222 185.708,-621.042 184.899,-615.408 194,-609.222 243.498,-575.58 259.552,-572.108 316,-552.222 332.165,-546.527 350.211,-541.644 366.577,-537.744"/>
<polygon fill="#9a32cd" stroke="#9a32cd" points="156.294,-630.869 147.786,-637.183 158.374,-637.553 156.294,-630.869"/>
<text text-anchor="middle" x="246" y="-613.222" font-family="FreeSans" font-size="10.00"> msg_</text>
</g>
<!-- Node15 -->
<g id="node32" class="node"><title>Node15</title>
<a xlink:href="a00352.html" target="_top" xlink:title="Urho3D::Vector\&lt; Urho3D\l::SharedPtr\&lt; Urho3D::Component \&gt; \&gt;">
<polygon fill="none" stroke="red" points="316.5,-240.222 316.5,-274.222 519.5,-274.222 519.5,-240.222 316.5,-240.222"/>
<text text-anchor="start" x="324.5" y="-261.222" font-family="FreeSans" font-size="10.00">Urho3D::Vector&lt; Urho3D</text>
<text text-anchor="middle" x="418" y="-248.222" font-family="FreeSans" font-size="10.00">::SharedPtr&lt; Urho3D::Component &gt; &gt;</text>
</a>
</g>
<!-- Node15&#45;&gt;Node7 -->
<g id="edge36" class="edge"><title>Node15&#45;&gt;Node7</title>
<path fill="none" stroke="#9a32cd" stroke-dasharray="5,2" d="M529.52,-272.155C564.725,-279.5 603.017,-290.334 636,-306.222 656.07,-315.89 675.46,-333.281 686.804,-344.531"/>
<polygon fill="#9a32cd" stroke="#9a32cd" points="530.174,-268.716 519.68,-270.174 528.793,-275.578 530.174,-268.716"/>
<text text-anchor="middle" x="587" y="-310.222" font-family="FreeSans" font-size="10.00"> components_</text>
</g>
<!-- Node16 -->
<g id="node34" class="node"><title>Node16</title>
<a xlink:href="a00354.html" target="_top" xlink:title="Three&#45;dimensional vector.">
<polygon fill="none" stroke="black" points="40,-473.722 40,-494.722 136,-494.722 136,-473.722 40,-473.722"/>
<text text-anchor="middle" x="88" y="-481.722" font-family="FreeSans" font-size="10.00">Urho3D::Vector3</text>
</a>
</g>
<!-- Node16&#45;&gt;Node7 -->
<g id="edge38" class="edge"><title>Node16&#45;&gt;Node7</title>
<path fill="none" stroke="#9a32cd" stroke-dasharray="5,2" d="M119.112,-498.989C139.901,-508.316 168.087,-519.941 194,-527.222 288.657,-553.82 556.645,-605.274 636,-547.222 666.557,-524.868 689.058,-403.003 695.274,-365.928"/>
<polygon fill="#9a32cd" stroke="#9a32cd" points="120.38,-495.721 109.829,-494.756 117.476,-502.09 120.38,-495.721"/>
<text text-anchor="middle" x="418" y="-590.222" font-family="FreeSans" font-size="10.00"> scale_</text>
<text text-anchor="middle" x="418" y="-577.222" font-family="FreeSans" font-size="10.00">position_</text>
</g>
<!-- Node16&#45;&gt;Node16 -->
<g id="edge40" class="edge"><title>Node16&#45;&gt;Node16</title>
<path fill="none" stroke="#9a32cd" stroke-dasharray="5,2" d="M58.7278,-504.277C60.6479,-509.386 70.4053,-513.222 88,-513.222 115.465,-513.222 123.833,-503.875 113.105,-494.93"/>
<polygon fill="#9a32cd" stroke="#9a32cd" points="62.0198,-505.488 62.8954,-494.93 55.6265,-502.638 62.0198,-505.488"/>
<text text-anchor="middle" x="88" y="-608.222" font-family="FreeSans" font-size="10.00"> ONE</text>
<text text-anchor="middle" x="88" y="-595.222" font-family="FreeSans" font-size="10.00">DOWN</text>
<text text-anchor="middle" x="88" y="-582.222" font-family="FreeSans" font-size="10.00">BACK</text>
<text text-anchor="middle" x="88" y="-569.222" font-family="FreeSans" font-size="10.00">RIGHT</text>
<text text-anchor="middle" x="88" y="-556.222" font-family="FreeSans" font-size="10.00">LEFT</text>
<text text-anchor="middle" x="88" y="-543.222" font-family="FreeSans" font-size="10.00">ZERO</text>
<text text-anchor="middle" x="88" y="-530.222" font-family="FreeSans" font-size="10.00">FORWARD</text>
<text text-anchor="middle" x="88" y="-517.222" font-family="FreeSans" font-size="10.00">UP</text>
</g>
<!-- Node16&#45;&gt;Node19 -->
<g id="edge58" class="edge"><title>Node16&#45;&gt;Node19</title>
<path fill="none" stroke="#9a32cd" stroke-dasharray="5,2" d="M146.511,-491.846C207.136,-499.746 301.246,-512.009 361.223,-519.824"/>
<polygon fill="#9a32cd" stroke="#9a32cd" points="146.707,-488.342 136.338,-490.521 145.802,-495.283 146.707,-488.342"/>
<text text-anchor="middle" x="246" y="-514.222" font-family="FreeSans" font-size="10.00"> position_</text>
</g>
<!-- Node17 -->
<g id="node39" class="node"><title>Node17</title>
<a xlink:href="a00327.html" target="_top" xlink:title="32&#45;bit hash value for a string.">
<polygon fill="none" stroke="black" points="361.5,-169.722 361.5,-190.722 474.5,-190.722 474.5,-169.722 361.5,-169.722"/>
<text text-anchor="middle" x="418" y="-177.722" font-family="FreeSans" font-size="10.00">Urho3D::StringHash</text>
</a>
</g>
<!-- Node17&#45;&gt;Node7 -->
<g id="edge46" class="edge"><title>Node17&#45;&gt;Node7</title>
<path fill="none" stroke="#9a32cd" stroke-dasharray="5,2" d="M484.893,-192.519C531.188,-203.705 592.123,-224.015 636,-259.222 665.571,-282.95 685.098,-325.086 693.013,-344.671"/>
<polygon fill="#9a32cd" stroke="#9a32cd" points="485.485,-189.063 474.951,-190.202 483.896,-195.88 485.485,-189.063"/>
<text text-anchor="middle" x="587" y="-263.222" font-family="FreeSans" font-size="10.00"> nameHash_</text>
</g>
<!-- Node17&#45;&gt;Node17 -->
<g id="edge48" class="edge"><title>Node17&#45;&gt;Node17</title>
<path fill="none" stroke="#9a32cd" stroke-dasharray="5,2" d="M386.741,-199.901C388.416,-205.197 398.835,-209.222 418,-209.222 447.203,-209.222 456.101,-199.875 444.693,-190.93"/>
<polygon fill="#9a32cd" stroke="#9a32cd" points="389.89,-201.43 391.307,-190.93 383.651,-198.254 389.89,-201.43"/>
<text text-anchor="middle" x="418" y="-213.222" font-family="FreeSans" font-size="10.00"> ZERO</text>
</g>
<!-- Node18 -->
<g id="node42" class="node"><title>Node18</title>
<a xlink:href="a00352.html" target="_top" xlink:title="Urho3D::Vector\&lt; Urho3D\l::SharedPtr\&lt; Urho3D::Node \&gt; \&gt;">
<polygon fill="none" stroke="red" points="331.5,-117.222 331.5,-151.222 504.5,-151.222 504.5,-117.222 331.5,-117.222"/>
<text text-anchor="start" x="339.5" y="-138.222" font-family="FreeSans" font-size="10.00">Urho3D::Vector&lt; Urho3D</text>
<text text-anchor="middle" x="418" y="-125.222" font-family="FreeSans" font-size="10.00">::SharedPtr&lt; Urho3D::Node &gt; &gt;</text>
</a>
</g>
<!-- Node18&#45;&gt;Node7 -->
<g id="edge50" class="edge"><title>Node18&#45;&gt;Node7</title>
<path fill="none" stroke="#9a32cd" stroke-dasharray="5,2" d="M514.595,-140.629C556.389,-147.977 603.147,-162.988 636,-193.222 681.775,-235.349 693.406,-315.268 696.182,-344.319"/>
<polygon fill="#9a32cd" stroke="#9a32cd" points="515.082,-137.162 504.649,-139.005 513.954,-144.071 515.082,-137.162"/>
<text text-anchor="middle" x="587" y="-197.222" font-family="FreeSans" font-size="10.00"> children_</text>
</g>
<!-- Node19&#45;&gt;Node7 -->
<g id="edge54" class="edge"><title>Node19&#45;&gt;Node7</title>
<path fill="none" stroke="#9a32cd" stroke-dasharray="5,2" d="M484.833,-533.88C531.653,-534.978 593.249,-528.848 636,-496.222 679.466,-463.051 692.435,-392.589 695.877,-365.831"/>
<polygon fill="#9a32cd" stroke="#9a32cd" points="484.894,-530.38 474.778,-533.529 484.65,-537.375 484.894,-530.38"/>
<text text-anchor="middle" x="587" y="-534.222" font-family="FreeSans" font-size="10.00"> owner_</text>
</g>
<!-- Node20 -->
<g id="node51" class="node"><title>Node20</title>
<a xlink:href="a00365.html" target="_top" xlink:title="Urho3D::WeakPtr\&lt; Urho3D\l::RigidBody2D \&gt;">
<polygon fill="none" stroke="black" points="1710,-511.222 1710,-545.222 1856,-545.222 1856,-511.222 1710,-511.222"/>
<text text-anchor="start" x="1718" y="-532.222" font-family="FreeSans" font-size="10.00">Urho3D::WeakPtr&lt; Urho3D</text>
<text text-anchor="middle" x="1783" y="-519.222" font-family="FreeSans" font-size="10.00">::RigidBody2D &gt;</text>
</a>
</g>
<!-- Node20&#45;&gt;Node2 -->
<g id="edge64" class="edge"><title>Node20&#45;&gt;Node2</title>
<path fill="none" stroke="#9a32cd" stroke-dasharray="5,2" d="M1866.4,-539.849C1887.84,-543.179 1910.83,-547.049 1932,-551.222 1944.46,-553.677 1957.92,-556.754 1970.14,-559.712"/>
<polygon fill="#9a32cd" stroke="#9a32cd" points="1866.76,-536.363 1856.34,-538.308 1865.7,-543.282 1866.76,-536.363"/>
<text text-anchor="middle" x="1903" y="-568.222" font-family="FreeSans" font-size="10.00"> otherBody_</text>
<text text-anchor="middle" x="1903" y="-555.222" font-family="FreeSans" font-size="10.00">ownerBody_</text>
</g>
<!-- Node21&#45;&gt;Node20 -->
<g id="edge66" class="edge"><title>Node21&#45;&gt;Node20</title>
<path fill="none" stroke="#9a32cd" stroke-dasharray="5,2" d="M1611.79,-491.775C1637.2,-493.5 1666.04,-496.387 1692,-501.222 1705.28,-503.696 1719.4,-507.355 1732.44,-511.187"/>
<polygon fill="#9a32cd" stroke="#9a32cd" points="1611.71,-488.263 1601.51,-491.127 1611.27,-495.249 1611.71,-488.263"/>
<text text-anchor="middle" x="1657" y="-505.222" font-family="FreeSans" font-size="10.00"> ptr_</text>
</g>
<!-- Node22 -->
<g id="node56" class="node"><title>Node22</title>
<a xlink:href="a00365.html" target="_top" xlink:title="Urho3D::WeakPtr\&lt; Urho3D\l::PhysicsWorld2D \&gt;">
<polygon fill="none" stroke="black" points="1228,-561.222 1228,-595.222 1374,-595.222 1374,-561.222 1228,-561.222"/>
<text text-anchor="start" x="1236" y="-582.222" font-family="FreeSans" font-size="10.00">Urho3D::WeakPtr&lt; Urho3D</text>
<text text-anchor="middle" x="1301" y="-569.222" font-family="FreeSans" font-size="10.00">::PhysicsWorld2D &gt;</text>
</a>
</g>
<!-- Node22&#45;&gt;Node2 -->
<g id="edge84" class="edge"><title>Node22&#45;&gt;Node2</title>
<path fill="none" stroke="#9a32cd" stroke-dasharray="5,2" d="M1384.69,-580.397C1505.57,-583.014 1736.07,-586.041 1932,-577.222 1937.78,-576.962 1943.79,-576.599 1949.79,-576.173"/>
<polygon fill="#9a32cd" stroke="#9a32cd" points="1384.47,-576.891 1374.4,-580.169 1384.32,-583.89 1384.47,-576.891"/>
<text text-anchor="middle" x="1657" y="-586.222" font-family="FreeSans" font-size="10.00"> physicsWorld_</text>
</g>
<!-- Node22&#45;&gt;Node21 -->
<g id="edge70" class="edge"><title>Node22&#45;&gt;Node21</title>
<path fill="none" stroke="#9a32cd" stroke-dasharray="5,2" d="M1384.08,-564.934C1409.67,-559.317 1437.53,-551.602 1462,-541.222 1487.47,-530.42 1513.75,-511.583 1528.95,-499.79"/>
<polygon fill="#9a32cd" stroke="#9a32cd" points="1383.09,-561.568 1374.03,-567.062 1384.54,-568.416 1383.09,-561.568"/>
<text text-anchor="middle" x="1427" y="-566.222" font-family="FreeSans" font-size="10.00"> physicsWorld_</text>
</g>
<!-- Node23&#45;&gt;Node22 -->
<g id="edge72" class="edge"><title>Node23&#45;&gt;Node22</title>
<path fill="none" stroke="#9a32cd" stroke-dasharray="5,2" d="M1152.48,-578.879C1176.85,-578.771 1203.68,-578.653 1227.75,-578.546"/>
<polygon fill="#9a32cd" stroke="#9a32cd" points="1152.18,-575.38 1142.2,-578.925 1152.21,-582.38 1152.18,-575.38"/>
<text text-anchor="middle" x="1185" y="-582.222" font-family="FreeSans" font-size="10.00"> ptr_</text>
</g>
<!-- Node24 -->
<g id="node61" class="node"><title>Node24</title>
<a xlink:href="a00353.html" target="_top" xlink:title="Two&#45;dimensional vector.">
<polygon fill="none" stroke="black" points="824,-411.722 824,-432.722 920,-432.722 920,-411.722 824,-411.722"/>
<text text-anchor="middle" x="872" y="-419.722" font-family="FreeSans" font-size="10.00">Urho3D::Vector2</text>
</a>
</g>
<!-- Node24&#45;&gt;Node1 -->
<g id="edge86" class="edge"><title>Node24&#45;&gt;Node1</title>
<path fill="none" stroke="#9a32cd" stroke-dasharray="5,2" d="M914.513,-408.84C955.258,-397.213 1018.71,-382.222 1075,-382.222 1075,-382.222 1075,-382.222 2011,-382.222 2068.63,-382.222 2132.52,-409.157 2164.46,-424.624"/>
<polygon fill="#9a32cd" stroke="#9a32cd" points="913.282,-405.553 904.661,-411.712 915.241,-412.273 913.282,-405.553"/>
<text text-anchor="middle" x="1542" y="-451.222" font-family="FreeSans" font-size="10.00"> otherBodyAnchor_</text>
<text text-anchor="start" x="1480" y="-438.222" font-family="FreeSans" font-size="10.00">ownerBodyGroundAnchor</text>
<text text-anchor="middle" x="1542" y="-425.222" font-family="FreeSans" font-size="10.00">_</text>
<text text-anchor="start" x="1480" y="-412.222" font-family="FreeSans" font-size="10.00">ownerBodyAnchor</text>
<text text-anchor="middle" x="1542" y="-399.222" font-family="FreeSans" font-size="10.00">_</text>
<text text-anchor="middle" x="1542" y="-386.222" font-family="FreeSans" font-size="10.00">otherBodyGroundAnchor_</text>
</g>
<!-- Node24&#45;&gt;Node23 -->
<g id="edge76" class="edge"><title>Node24&#45;&gt;Node23</title>
<path fill="none" stroke="#9a32cd" stroke-dasharray="5,2" d="M886.774,-440.84C909.917,-468.912 957.34,-522.192 1008,-554.222 1017.23,-560.061 1028.04,-564.839 1038.24,-568.597"/>
<polygon fill="#9a32cd" stroke="#9a32cd" points="889.417,-438.542 880.394,-432.988 883.984,-442.956 889.417,-438.542"/>
<text text-anchor="middle" x="969" y="-543.222" font-family="FreeSans" font-size="10.00"> gravity_</text>
</g>
<!-- Node24&#45;&gt;Node24 -->
<g id="edge78" class="edge"><title>Node24&#45;&gt;Node24</title>
<path fill="none" stroke="#9a32cd" stroke-dasharray="5,2" d="M854.677,-442.649C856.013,-447.571 861.788,-451.222 872,-451.222 888.34,-451.222 893.318,-441.875 886.936,-432.93"/>
<polygon fill="#9a32cd" stroke="#9a32cd" points="858.078,-443.476 857.064,-432.93 851.28,-441.806 858.078,-443.476"/>
<text text-anchor="middle" x="872" y="-520.222" font-family="FreeSans" font-size="10.00"> ONE</text>
<text text-anchor="middle" x="872" y="-507.222" font-family="FreeSans" font-size="10.00">DOWN</text>
<text text-anchor="middle" x="872" y="-494.222" font-family="FreeSans" font-size="10.00">RIGHT</text>
<text text-anchor="middle" x="872" y="-481.222" font-family="FreeSans" font-size="10.00">LEFT</text>
<text text-anchor="middle" x="872" y="-468.222" font-family="FreeSans" font-size="10.00">ZERO</text>
<text text-anchor="middle" x="872" y="-455.222" font-family="FreeSans" font-size="10.00">UP</text>
</g>
<!-- Node25 -->
<g id="node64" class="node"><title>Node25</title>
<a xlink:href="a00265.html" target="_top" xlink:title="Reference count structure.">
<polygon fill="none" stroke="black" points="1024,-523.722 1024,-544.722 1126,-544.722 1126,-523.722 1024,-523.722"/>
<text text-anchor="middle" x="1075" y="-531.722" font-family="FreeSans" font-size="10.00">Urho3D::RefCount</text>
</a>
</g>
<!-- Node25&#45;&gt;Node20 -->
<g id="edge82" class="edge"><title>Node25&#45;&gt;Node20</title>
<path fill="none" stroke="#9a32cd" stroke-dasharray="5,2" d="M1136.34,-531.714C1200.18,-529.237 1303.08,-525.624 1392,-524.222 1502.81,-522.475 1631.3,-524.583 1709.85,-526.339"/>
<polygon fill="#9a32cd" stroke="#9a32cd" points="1135.9,-528.228 1126.05,-532.116 1136.18,-535.223 1135.9,-528.228"/>
<text text-anchor="middle" x="1427" y="-528.222" font-family="FreeSans" font-size="10.00"> refCount_</text>
</g>
<!-- Node25&#45;&gt;Node22 -->
<g id="edge80" class="edge"><title>Node25&#45;&gt;Node22</title>
<path fill="none" stroke="#9a32cd" stroke-dasharray="5,2" d="M1136.15,-546.128C1164.45,-551.636 1198.27,-558.222 1227.9,-563.99"/>
<polygon fill="#9a32cd" stroke="#9a32cd" points="1136.49,-542.627 1126,-544.151 1135.15,-549.498 1136.49,-542.627"/>
<text text-anchor="middle" x="1185" y="-563.222" font-family="FreeSans" font-size="10.00"> refCount_</text>
</g>
</g>
</svg>
        <g id="navigator" transform="translate(0 0)" fill="#404254">
                <rect fill="#f2f5e9" fill-opacity="0.5" stroke="#606060" stroke-width=".5" x="0" y="0" width="60" height="60"/>
                <use id="zoomplus" xlink:href="#zoomPlus" x="17" y="9" onmousedown="handleZoom(evt,'in')"/>
                <use id="zoomminus" xlink:href="#zoomMin" x="42" y="9" onmousedown="handleZoom(evt,'out')"/>
                <use id="reset" xlink:href="#resetDef" x="30" y="36" onmousedown="handleReset()"/>
                <g id="arrowUp" xlink:href="#dirArrow" transform="translate(30 24)" onmousedown="handlePan(0,-1)">
                  <use xlink:href="#rim" fill="#404040">
                        <set attributeName="fill" to="#808080" begin="arrowUp.mouseover" end="arrowUp.mouseout"/>
                  </use>
                  <path fill="none" stroke="white" stroke-width="1.5" d="M0,-3.0v7 M-2.5,-0.5L0,-3.0L2.5,-0.5"/>
                </g>
                <g id="arrowRight" xlink:href="#dirArrow" transform="rotate(90) translate(36 -43)" onmousedown="handlePan(1,0)">
                  <use xlink:href="#rim" fill="#404040">
                        <set attributeName="fill" to="#808080" begin="arrowRight.mouseover" end="arrowRight.mouseout"/>
                  </use>
                  <path fill="none" stroke="white" stroke-width="1.5" d="M0,-3.0v7 M-2.5,-0.5L0,-3.0L2.5,-0.5"/>
                </g>
                <g id="arrowDown" xlink:href="#dirArrow" transform="rotate(180) translate(-30 -48)" onmousedown="handlePan(0,1)">
                  <use xlink:href="#rim" fill="#404040">
                        <set attributeName="fill" to="#808080" begin="arrowDown.mouseover" end="arrowDown.mouseout"/>
                  </use>
                  <path fill="none" stroke="white" stroke-width="1.5" d="M0,-3.0v7 M-2.5,-0.5L0,-3.0L2.5,-0.5"/>
                </g>
                <g id="arrowLeft" xlink:href="#dirArrow" transform="rotate(270) translate(-36 17)" onmousedown="handlePan(-1,0)">
                  <use xlink:href="#rim" fill="#404040">
                        <set attributeName="fill" to="#808080" begin="arrowLeft.mouseover" end="arrowLeft.mouseout"/>
                  </use>
                  <path fill="none" stroke="white" stroke-width="1.5" d="M0,-3.0v7 M-2.5,-0.5L0,-3.0L2.5,-0.5"/>
                </g>
        </g>
        <svg viewBox="0 0 15 15" width="100%" height="30px" preserveAspectRatio="xMaxYMin meet">
         <g id="arrow_out" transform="scale(0.3 0.3)">
          <a xlink:href="a01611_org.svg" target="_base">
           <rect id="button" ry="5" rx="5" y="6" x="6" height="38" width="38"
                fill="#f2f5e9" fill-opacity="0.5" stroke="#606060" stroke-width="1.0"/>
           <path id="arrow"
             d="M 11.500037,31.436501 C 11.940474,20.09759 22.043105,11.32322 32.158766,21.979434 L 37.068811,17.246167 C 37.068811,17.246167 37.088388,32 37.088388,32 L 22.160133,31.978069 C 22.160133,31.978069 26.997745,27.140456 26.997745,27.140456 C 18.528582,18.264221 13.291696,25.230495 11.500037,31.436501 z"
             style="fill:#404040;"/>
          </a>
         </g>
        </svg>
</svg>
