<?xml version="1.0" encoding="UTF-8" standalone="no"?>
<!DOCTYPE svg PUBLIC "-//W3C//DTD SVG 1.1//EN"
 "http://www.w3.org/Graphics/SVG/1.1/DTD/svg11.dtd">
<!-- Generated by graphviz version 2.26.3 (20100126.1600)
 -->
<!-- Title: Urho3D::ToolTip Pages: 1 -->
<svg width="2040pt" height="711pt"
 viewBox="0.00 0.00 2040.00 711.00" xmlns="http://www.w3.org/2000/svg" xmlns:xlink="http://www.w3.org/1999/xlink">
<g id="graph1" class="graph" transform="scale(1 1) rotate(0) translate(4 707)">
<title>Urho3D::ToolTip</title>
<!-- Node1 -->
<g id="node1" class="node"><title>Node1</title>
<polygon fill="#bfbfbf" stroke="black" points="1940.5,-90.5 1940.5,-111.5 2031.5,-111.5 2031.5,-90.5 1940.5,-90.5"/>
<text text-anchor="middle" x="1986" y="-98.5" font-family="FreeSans" font-size="10.00">Urho3D::ToolTip</text>
</g>
<!-- Node2 -->
<g id="node2" class="node"><title>Node2</title>
<a xlink:href="a00379.html" target="_top" xlink:title="Base class for UI elements.">
<polygon fill="none" stroke="black" points="1478.5,-250.5 1478.5,-271.5 1587.5,-271.5 1587.5,-250.5 1478.5,-250.5"/>
<text text-anchor="middle" x="1533" y="-258.5" font-family="FreeSans" font-size="10.00">Urho3D::UIElement</text>
</a>
</g>
<!-- Node2&#45;&gt;Node1 -->
<g id="edge2" class="edge"><title>Node2&#45;&gt;Node1</title>
<path fill="none" stroke="midnightblue" d="M1572.57,-247.026C1661.81,-215.503 1877.16,-139.443 1956.23,-111.514"/>
<polygon fill="midnightblue" stroke="midnightblue" points="1571.34,-243.747 1563.07,-250.378 1573.67,-250.348 1571.34,-243.747"/>
</g>
<!-- Node2&#45;&gt;Node2 -->
<g id="edge42" class="edge"><title>Node2&#45;&gt;Node2</title>
<path fill="none" stroke="#9a32cd" stroke-dasharray="5,2" d="M1511.99,-281.427C1513.61,-286.349 1520.61,-290 1533,-290 1552.82,-290 1558.85,-280.653 1551.11,-271.708"/>
<polygon fill="#9a32cd" stroke="#9a32cd" points="1515.39,-282.291 1514.89,-271.708 1508.68,-280.292 1515.39,-282.291"/>
<text text-anchor="middle" x="1533" y="-294" font-family="FreeSans" font-size="10.00"> parent_</text>
</g>
<!-- Node23 -->
<g id="node54" class="node"><title>Node23</title>
<a xlink:href="a00402.html" target="_top" xlink:title="Urho3D::WeakPtr\&lt; Urho3D\l::UIElement \&gt;">
<polygon fill="none" stroke="black" points="1706,-244 1706,-278 1852,-278 1852,-244 1706,-244"/>
<text text-anchor="start" x="1714" y="-265" font-family="FreeSans" font-size="10.00">Urho3D::WeakPtr&lt; Urho3D</text>
<text text-anchor="middle" x="1779" y="-252" font-family="FreeSans" font-size="10.00">::UIElement &gt;</text>
</a>
</g>
<!-- Node2&#45;&gt;Node23 -->
<g id="edge66" class="edge"><title>Node2&#45;&gt;Node23</title>
<path fill="none" stroke="#9a32cd" stroke-dasharray="5,2" d="M1597.66,-261C1630.89,-261 1671.52,-261 1705.89,-261"/>
<polygon fill="#9a32cd" stroke="#9a32cd" points="1597.6,-257.5 1587.6,-261 1597.6,-264.5 1597.6,-257.5"/>
<text text-anchor="middle" x="1647" y="-265" font-family="FreeSans" font-size="10.00"> ptr_</text>
</g>
<!-- Node3 -->
<g id="node4" class="node"><title>Node3</title>
<a xlink:href="a00054.html" target="_top" xlink:title="Base class for animatable object, an animatable object can be set animation on it&#39;s attributes...">
<polygon fill="none" stroke="black" points="1198,-428.5 1198,-449.5 1312,-449.5 1312,-428.5 1198,-428.5"/>
<text text-anchor="middle" x="1255" y="-436.5" font-family="FreeSans" font-size="10.00">Urho3D::Animatable</text>
</a>
</g>
<!-- Node3&#45;&gt;Node2 -->
<g id="edge4" class="edge"><title>Node3&#45;&gt;Node2</title>
<path fill="none" stroke="midnightblue" d="M1322.29,-435.063C1367.7,-428.743 1425.44,-412.94 1460,-374 1479.05,-352.541 1462.93,-336.419 1478,-312 1488.12,-295.598 1504.92,-281.115 1517.3,-271.815"/>
<polygon fill="midnightblue" stroke="midnightblue" points="1321.69,-431.61 1312.21,-436.339 1322.57,-438.554 1321.69,-431.61"/>
</g>
<!-- Node4 -->
<g id="node6" class="node"><title>Node4</title>
<a xlink:href="a00321.html" target="_top" xlink:title="Base class for objects with automatic serialization through attributes.">
<polygon fill="none" stroke="black" points="898,-538.5 898,-559.5 1012,-559.5 1012,-538.5 898,-538.5"/>
<text text-anchor="middle" x="955" y="-546.5" font-family="FreeSans" font-size="10.00">Urho3D::Serializable</text>
</a>
</g>
<!-- Node4&#45;&gt;Node3 -->
<g id="edge6" class="edge"><title>Node4&#45;&gt;Node3</title>
<path fill="none" stroke="midnightblue" d="M993.405,-534.918C1054.41,-512.551 1172.07,-469.407 1226.32,-449.515"/>
<polygon fill="midnightblue" stroke="midnightblue" points="991.949,-531.724 983.765,-538.453 994.359,-538.296 991.949,-531.724"/>
</g>
<!-- Node5 -->
<g id="node8" class="node"><title>Node5</title>
<a xlink:href="a00249.html" target="_top" xlink:title="Base class for objects with type identification, subsystem access and event sending/receiving capabil...">
<polygon fill="none" stroke="red" points="525,-520.5 525,-541.5 615,-541.5 615,-520.5 525,-520.5"/>
<text text-anchor="middle" x="570" y="-528.5" font-family="FreeSans" font-size="10.00">Urho3D::Object</text>
</a>
</g>
<!-- Node5&#45;&gt;Node4 -->
<g id="edge8" class="edge"><title>Node5&#45;&gt;Node4</title>
<path fill="none" stroke="midnightblue" d="M625.593,-533.599C698.107,-536.989 824.343,-542.891 897.693,-546.321"/>
<polygon fill="midnightblue" stroke="midnightblue" points="625.449,-530.089 615.297,-533.118 625.122,-537.081 625.449,-530.089"/>
</g>
<!-- Node6 -->
<g id="node10" class="node"><title>Node6</title>
<a xlink:href="a00184.html" target="_top" xlink:title="Hash map template class.">
<polygon fill="none" stroke="black" points="336,-586.5 336,-607.5 482,-607.5 482,-586.5 336,-586.5"/>
<text text-anchor="middle" x="409" y="-594.5" font-family="FreeSans" font-size="10.00">Urho3D::HashMap&lt; T, U &gt;</text>
</a>
</g>
<!-- Node6&#45;&gt;Node4 -->
<g id="edge10" class="edge"><title>Node6&#45;&gt;Node4</title>
<path fill="none" stroke="#9a32cd" stroke-dasharray="5,2" d="M492.003,-601.828C583.125,-605.375 733.327,-606.048 860,-582 884.872,-577.278 912.047,-567.318 930.936,-559.569"/>
<polygon fill="#9a32cd" stroke="#9a32cd" points="492.144,-598.331 482.009,-601.418 491.857,-605.325 492.144,-598.331"/>
<text text-anchor="middle" x="570" y="-607" font-family="FreeSans" font-size="10.00"> instanceDefaultValues_</text>
</g>
<!-- Node7 -->
<g id="node12" class="node"><title>Node7</title>
<a xlink:href="a00182.html" target="_top" xlink:title="Hash set/map base class.">
<polygon fill="none" stroke="red" points="0,-415.5 0,-436.5 108,-436.5 108,-415.5 0,-415.5"/>
<text text-anchor="middle" x="54" y="-423.5" font-family="FreeSans" font-size="10.00">Urho3D::HashBase</text>
</a>
</g>
<!-- Node7&#45;&gt;Node6 -->
<g id="edge12" class="edge"><title>Node7&#45;&gt;Node6</title>
<path fill="none" stroke="midnightblue" d="M67.8488,-444.565C84.2899,-465.346 113.594,-498.636 146,-518 207.388,-554.681 287.131,-575.499 342.643,-586.45"/>
<polygon fill="midnightblue" stroke="midnightblue" points="70.5024,-442.274 61.6186,-436.501 64.9632,-446.554 70.5024,-442.274"/>
</g>
<!-- Node9 -->
<g id="node16" class="node"><title>Node9</title>
<a xlink:href="a00184.html" target="_top" xlink:title="Urho3D::HashMap\&lt; StringHash,\l Variant \&gt;">
<polygon fill="none" stroke="black" points="146,-475 146,-509 318,-509 318,-475 146,-475"/>
<text text-anchor="start" x="154" y="-496" font-family="FreeSans" font-size="10.00">Urho3D::HashMap&lt; StringHash,</text>
<text text-anchor="middle" x="232" y="-483" font-family="FreeSans" font-size="10.00"> Variant &gt;</text>
</a>
</g>
<!-- Node7&#45;&gt;Node9 -->
<g id="edge18" class="edge"><title>Node7&#45;&gt;Node9</title>
<path fill="none" stroke="midnightblue" d="M92.2622,-440.187C119.774,-450.388 156.999,-464.191 186.11,-474.985"/>
<polygon fill="midnightblue" stroke="midnightblue" points="93.1918,-436.799 82.5988,-436.604 90.7582,-443.362 93.1918,-436.799"/>
</g>
<!-- Node10 -->
<g id="node19" class="node"><title>Node10</title>
<a xlink:href="a00184.html" target="_top" xlink:title="Urho3D::HashMap\&lt; Urho3D\l::String, Urho3D::SharedPtr\l\&lt; Urho3D::AttributeAnimationInfo \&gt; \&gt;">
<polygon fill="none" stroke="black" points="658.5,-367.5 658.5,-414.5 859.5,-414.5 859.5,-367.5 658.5,-367.5"/>
<text text-anchor="start" x="666.5" y="-401.5" font-family="FreeSans" font-size="10.00">Urho3D::HashMap&lt; Urho3D</text>
<text text-anchor="start" x="666.5" y="-388.5" font-family="FreeSans" font-size="10.00">::String, Urho3D::SharedPtr</text>
<text text-anchor="middle" x="759" y="-375.5" font-family="FreeSans" font-size="10.00">&lt; Urho3D::AttributeAnimationInfo &gt; &gt;</text>
</a>
</g>
<!-- Node7&#45;&gt;Node10 -->
<g id="edge22" class="edge"><title>Node7&#45;&gt;Node10</title>
<path fill="none" stroke="midnightblue" d="M118.17,-422.814C241.186,-416.707 511.022,-403.311 658.27,-396.001"/>
<polygon fill="midnightblue" stroke="midnightblue" points="117.964,-419.32 108.15,-423.312 118.311,-426.311 117.964,-419.32"/>
</g>
<!-- Node13 -->
<g id="node26" class="node"><title>Node13</title>
<a xlink:href="a00186.html" target="_top" xlink:title="Urho3D::HashSet\&lt; const\l Urho3D::AttributeInfo * \&gt;">
<polygon fill="none" stroke="black" points="338.5,-332 338.5,-366 479.5,-366 479.5,-332 338.5,-332"/>
<text text-anchor="start" x="346.5" y="-353" font-family="FreeSans" font-size="10.00">Urho3D::HashSet&lt; const</text>
<text text-anchor="middle" x="409" y="-340" font-family="FreeSans" font-size="10.00"> Urho3D::AttributeInfo * &gt;</text>
</a>
</g>
<!-- Node7&#45;&gt;Node13 -->
<g id="edge30" class="edge"><title>Node7&#45;&gt;Node13</title>
<path fill="none" stroke="midnightblue" d="M75.4252,-409.487C89.1297,-399.822 107.711,-388.312 126,-382 195.553,-357.996 279.826,-350.746 338.229,-348.884"/>
<polygon fill="midnightblue" stroke="midnightblue" points="73.1963,-406.78 67.1758,-415.498 77.3189,-412.437 73.1963,-406.78"/>
</g>
<!-- Node8 -->
<g id="node14" class="node"><title>Node8</title>
<a xlink:href="a00242.html" target="_top" xlink:title="Per&#45;object attribute state for network replication, allocated on demand.">
<polygon fill="none" stroke="red" points="507.5,-560.5 507.5,-581.5 632.5,-581.5 632.5,-560.5 507.5,-560.5"/>
<text text-anchor="middle" x="570" y="-568.5" font-family="FreeSans" font-size="10.00">Urho3D::NetworkState</text>
</a>
</g>
<!-- Node8&#45;&gt;Node4 -->
<g id="edge14" class="edge"><title>Node8&#45;&gt;Node4</title>
<path fill="none" stroke="#9a32cd" stroke-dasharray="5,2" d="M642.898,-566.834C716.975,-562.601 830.188,-556.132 897.967,-552.259"/>
<polygon fill="#9a32cd" stroke="#9a32cd" points="642.498,-563.351 632.714,-567.416 642.897,-570.34 642.498,-563.351"/>
<text text-anchor="middle" x="759" y="-569" font-family="FreeSans" font-size="10.00"> networkState_</text>
</g>
<!-- Node9&#45;&gt;Node2 -->
<g id="edge40" class="edge"><title>Node9&#45;&gt;Node2</title>
<path fill="none" stroke="#9a32cd" stroke-dasharray="5,2" d="M328.345,-492C395.968,-492 488.51,-492 570,-492 570,-492 570,-492 1255,-492 1352.8,-492 1399.59,-488.916 1460,-412 1487.89,-376.485 1456.33,-351.617 1478,-312 1487.25,-295.092 1504.19,-280.689 1516.83,-271.544"/>
<polygon fill="#9a32cd" stroke="#9a32cd" points="328.132,-488.5 318.132,-492 328.132,-495.5 328.132,-488.5"/>
<text text-anchor="middle" x="955" y="-496" font-family="FreeSans" font-size="10.00"> vars_</text>
</g>
<!-- Node9&#45;&gt;Node8 -->
<g id="edge16" class="edge"><title>Node9&#45;&gt;Node8</title>
<path fill="none" stroke="#9a32cd" stroke-dasharray="5,2" d="M314.91,-511.378C381.032,-526.833 471.143,-547.894 524.673,-560.406"/>
<polygon fill="#9a32cd" stroke="#9a32cd" points="315.459,-507.912 304.925,-509.045 313.866,-514.729 315.459,-507.912"/>
<text text-anchor="middle" x="409" y="-553" font-family="FreeSans" font-size="10.00"> previousVars_</text>
</g>
<!-- Node10&#45;&gt;Node3 -->
<g id="edge20" class="edge"><title>Node10&#45;&gt;Node3</title>
<path fill="none" stroke="#9a32cd" stroke-dasharray="5,2" d="M869.842,-391.134C919.541,-392.1 978.824,-394.501 1032,-400 1063.72,-403.28 1144.81,-418.068 1199.94,-428.459"/>
<polygon fill="#9a32cd" stroke="#9a32cd" points="869.772,-387.633 859.711,-390.955 869.648,-394.632 869.772,-387.633"/>
<text text-anchor="middle" x="955" y="-404" font-family="FreeSans" font-size="10.00"> attributeAnimationInfos_</text>
</g>
<!-- Node11 -->
<g id="node22" class="node"><title>Node11</title>
<a xlink:href="a00331.html" target="_top" xlink:title="Urho3D::SharedPtr\&lt;\l Urho3D::ObjectAnimation \&gt;">
<polygon fill="none" stroke="black" points="878.5,-422 878.5,-456 1031.5,-456 1031.5,-422 878.5,-422"/>
<text text-anchor="start" x="886.5" y="-443" font-family="FreeSans" font-size="10.00">Urho3D::SharedPtr&lt;</text>
<text text-anchor="middle" x="955" y="-430" font-family="FreeSans" font-size="10.00"> Urho3D::ObjectAnimation &gt;</text>
</a>
</g>
<!-- Node11&#45;&gt;Node3 -->
<g id="edge24" class="edge"><title>Node11&#45;&gt;Node3</title>
<path fill="none" stroke="#9a32cd" stroke-dasharray="5,2" d="M1042.05,-439C1092.17,-439 1153.74,-439 1197.76,-439"/>
<polygon fill="#9a32cd" stroke="#9a32cd" points="1041.87,-435.5 1031.87,-439 1041.87,-442.5 1041.87,-435.5"/>
<text text-anchor="middle" x="1094" y="-443" font-family="FreeSans" font-size="10.00"> objectAnimation_</text>
</g>
<!-- Node12 -->
<g id="node24" class="node"><title>Node12</title>
<a xlink:href="a00250.html" target="_top" xlink:title="Object animation class, an object animation include one or more attribute animations and theirs wrap ...">
<polygon fill="none" stroke="red" points="500.5,-428.5 500.5,-449.5 639.5,-449.5 639.5,-428.5 500.5,-428.5"/>
<text text-anchor="middle" x="570" y="-436.5" font-family="FreeSans" font-size="10.00">Urho3D::ObjectAnimation</text>
</a>
</g>
<!-- Node12&#45;&gt;Node11 -->
<g id="edge26" class="edge"><title>Node12&#45;&gt;Node11</title>
<path fill="none" stroke="#9a32cd" stroke-dasharray="5,2" d="M649.814,-439C716.852,-439 812.029,-439 878.203,-439"/>
<polygon fill="#9a32cd" stroke="#9a32cd" points="649.721,-435.5 639.721,-439 649.721,-442.5 649.721,-435.5"/>
<text text-anchor="middle" x="759" y="-443" font-family="FreeSans" font-size="10.00"> ptr_</text>
</g>
<!-- Node13&#45;&gt;Node3 -->
<g id="edge28" class="edge"><title>Node13&#45;&gt;Node3</title>
<path fill="none" stroke="#9a32cd" stroke-dasharray="5,2" d="M489.733,-347.375C538.461,-346.476 601.795,-345.451 658,-345 872.623,-343.276 952.306,-290.373 1138,-398 1148.64,-404.164 1145.4,-412.778 1156,-419 1168.63,-426.411 1183.55,-431.116 1197.93,-434.09"/>
<polygon fill="#9a32cd" stroke="#9a32cd" points="489.498,-343.879 479.565,-347.565 489.628,-350.877 489.498,-343.879"/>
<text text-anchor="middle" x="759" y="-349" font-family="FreeSans" font-size="10.00"> animatedNetworkAttributes_</text>
</g>
<!-- Node14 -->
<g id="node29" class="node"><title>Node14</title>
<a xlink:href="a00196.html" target="_top" xlink:title="Two&#45;dimensional bounding rectangle with integer values.">
<polygon fill="none" stroke="black" points="1209,-357.5 1209,-378.5 1301,-378.5 1301,-357.5 1209,-357.5"/>
<text text-anchor="middle" x="1255" y="-365.5" font-family="FreeSans" font-size="10.00">Urho3D::IntRect</text>
</a>
</g>
<!-- Node14&#45;&gt;Node2 -->
<g id="edge32" class="edge"><title>Node14&#45;&gt;Node2</title>
<path fill="none" stroke="#9a32cd" stroke-dasharray="5,2" d="M1311.2,-358.994C1353.69,-350.706 1412.61,-335.988 1460,-312 1482.62,-300.549 1506.22,-282.839 1520.26,-271.589"/>
<polygon fill="#9a32cd" stroke="#9a32cd" points="1310.49,-355.567 1301.31,-360.865 1311.79,-362.445 1310.49,-355.567"/>
<text text-anchor="middle" x="1416" y="-361" font-family="FreeSans" font-size="10.00"> clipBorder_</text>
<text text-anchor="middle" x="1416" y="-348" font-family="FreeSans" font-size="10.00">layoutBorder_</text>
</g>
<!-- Node14&#45;&gt;Node14 -->
<g id="edge34" class="edge"><title>Node14&#45;&gt;Node14</title>
<path fill="none" stroke="#9a32cd" stroke-dasharray="5,2" d="M1225.36,-388.055C1227.3,-393.164 1237.18,-397 1255,-397 1282.81,-397 1291.29,-387.653 1280.42,-378.708"/>
<polygon fill="#9a32cd" stroke="#9a32cd" points="1228.65,-389.262 1229.58,-378.708 1222.27,-386.382 1228.65,-389.262"/>
<text text-anchor="middle" x="1255" y="-401" font-family="FreeSans" font-size="10.00"> ZERO</text>
</g>
<!-- Node15 -->
<g id="node32" class="node"><title>Node15</title>
<a xlink:href="a00388.html" target="_top" xlink:title="Urho3D::Vector\&lt; Urho3D\l::SharedPtr\&lt; Urho3D::UIElement \&gt; \&gt;">
<polygon fill="none" stroke="black" points="1156.5,-305 1156.5,-339 1353.5,-339 1353.5,-305 1156.5,-305"/>
<text text-anchor="start" x="1164.5" y="-326" font-family="FreeSans" font-size="10.00">Urho3D::Vector&lt; Urho3D</text>
<text text-anchor="middle" x="1255" y="-313" font-family="FreeSans" font-size="10.00">::SharedPtr&lt; Urho3D::UIElement &gt; &gt;</text>
</a>
</g>
<!-- Node15&#45;&gt;Node2 -->
<g id="edge36" class="edge"><title>Node15&#45;&gt;Node2</title>
<path fill="none" stroke="#9a32cd" stroke-dasharray="5,2" d="M1342.69,-302.758C1389.71,-292.441 1445.84,-280.126 1484.9,-271.554"/>
<polygon fill="#9a32cd" stroke="#9a32cd" points="1341.83,-299.365 1332.81,-304.927 1343.33,-306.202 1341.83,-299.365"/>
<text text-anchor="middle" x="1416" y="-299" font-family="FreeSans" font-size="10.00"> children_</text>
</g>
<!-- Node16 -->
<g id="node34" class="node"><title>Node16</title>
<a xlink:href="a00392.html" target="_top" xlink:title="Vector base class.">
<polygon fill="none" stroke="black" points="898,-295.5 898,-316.5 1012,-316.5 1012,-295.5 898,-295.5"/>
<text text-anchor="middle" x="955" y="-303.5" font-family="FreeSans" font-size="10.00">Urho3D::VectorBase</text>
</a>
</g>
<!-- Node16&#45;&gt;Node15 -->
<g id="edge38" class="edge"><title>Node16&#45;&gt;Node15</title>
<path fill="none" stroke="midnightblue" d="M1022.19,-309.584C1061.73,-311.692 1112.45,-314.397 1156.44,-316.744"/>
<polygon fill="midnightblue" stroke="midnightblue" points="1022.31,-306.085 1012.13,-309.047 1021.93,-313.075 1022.31,-306.085"/>
</g>
<!-- Node17 -->
<g id="node38" class="node"><title>Node17</title>
<a xlink:href="a00354.html" target="_top" xlink:title="String class.">
<polygon fill="none" stroke="black" points="911,-218.5 911,-239.5 999,-239.5 999,-218.5 911,-218.5"/>
<text text-anchor="middle" x="955" y="-226.5" font-family="FreeSans" font-size="10.00">Urho3D::String</text>
</a>
</g>
<!-- Node17&#45;&gt;Node2 -->
<g id="edge44" class="edge"><title>Node17&#45;&gt;Node2</title>
<path fill="none" stroke="#9a32cd" stroke-dasharray="5,2" d="M1009.31,-237.353C1022.59,-239.141 1036.79,-240.839 1050,-242 1204.86,-255.61 1388.52,-259.472 1478.2,-260.567"/>
<polygon fill="#9a32cd" stroke="#9a32cd" points="1009.75,-233.88 999.364,-235.975 1008.79,-240.814 1009.75,-233.88"/>
<text text-anchor="middle" x="1255" y="-275" font-family="FreeSans" font-size="10.00"> appliedStyle_</text>
<text text-anchor="middle" x="1255" y="-262" font-family="FreeSans" font-size="10.00">name_</text>
</g>
<!-- Node17&#45;&gt;Node17 -->
<g id="edge46" class="edge"><title>Node17&#45;&gt;Node17</title>
<path fill="none" stroke="#9a32cd" stroke-dasharray="5,2" d="M929.433,-249.055C931.11,-254.164 939.633,-258 955,-258 978.988,-258 986.297,-248.653 976.927,-239.708"/>
<polygon fill="#9a32cd" stroke="#9a32cd" points="932.706,-250.296 933.073,-239.708 926.183,-247.756 932.706,-250.296"/>
<text text-anchor="middle" x="955" y="-262" font-family="FreeSans" font-size="10.00"> EMPTY</text>
</g>
<!-- Node18 -->
<g id="node41" class="node"><title>Node18</title>
<a xlink:href="a00409.html" target="_top" xlink:title="XPath query.">
<polygon fill="none" stroke="black" points="1197.5,-203.5 1197.5,-224.5 1312.5,-224.5 1312.5,-203.5 1197.5,-203.5"/>
<text text-anchor="middle" x="1255" y="-211.5" font-family="FreeSans" font-size="10.00">Urho3D::XPathQuery</text>
</a>
</g>
<!-- Node17&#45;&gt;Node18 -->
<g id="edge50" class="edge"><title>Node17&#45;&gt;Node18</title>
<path fill="none" stroke="#9a32cd" stroke-dasharray="5,2" d="M1009.52,-226.274C1062.69,-223.616 1143.25,-219.587 1197.44,-216.878"/>
<polygon fill="#9a32cd" stroke="#9a32cd" points="1009.08,-222.792 999.266,-226.787 1009.43,-229.783 1009.08,-222.792"/>
<text text-anchor="middle" x="1094" y="-229" font-family="FreeSans" font-size="10.00"> queryString_</text>
</g>
<!-- Node18&#45;&gt;Node2 -->
<g id="edge48" class="edge"><title>Node18&#45;&gt;Node2</title>
<path fill="none" stroke="#9a32cd" stroke-dasharray="5,2" d="M1322.62,-216.23C1362.92,-218.636 1414.86,-223.632 1460,-234 1476.86,-237.872 1495.11,-244.622 1509.14,-250.404"/>
<polygon fill="#9a32cd" stroke="#9a32cd" points="1322.81,-212.735 1312.63,-215.672 1322.42,-219.724 1322.81,-212.735"/>
<text text-anchor="middle" x="1416" y="-238" font-family="FreeSans" font-size="10.00"> styleXPathQuery_</text>
</g>
<!-- Node19 -->
<g id="node44" class="node"><title>Node19</title>
<a xlink:href="a00331.html" target="_top" xlink:title="Urho3D::SharedPtr\&lt;\l Urho3D::XMLFile \&gt;">
<polygon fill="none" stroke="black" points="1197,-151 1197,-185 1313,-185 1313,-151 1197,-151"/>
<text text-anchor="start" x="1205" y="-172" font-family="FreeSans" font-size="10.00">Urho3D::SharedPtr&lt;</text>
<text text-anchor="middle" x="1255" y="-159" font-family="FreeSans" font-size="10.00"> Urho3D::XMLFile &gt;</text>
</a>
</g>
<!-- Node19&#45;&gt;Node2 -->
<g id="edge52" class="edge"><title>Node19&#45;&gt;Node2</title>
<path fill="none" stroke="#9a32cd" stroke-dasharray="5,2" d="M1323.48,-171.665C1364.53,-175.868 1416.93,-184.849 1460,-204 1485.27,-215.237 1509.54,-237.105 1522.74,-250.246"/>
<polygon fill="#9a32cd" stroke="#9a32cd" points="1323.59,-168.159 1313.31,-170.696 1322.93,-175.128 1323.59,-168.159"/>
<text text-anchor="middle" x="1416" y="-208" font-family="FreeSans" font-size="10.00"> defaultStyle_</text>
</g>
<!-- Node20 -->
<g id="node46" class="node"><title>Node20</title>
<a xlink:href="a00408.html" target="_top" xlink:title="XML document resource.">
<polygon fill="none" stroke="red" points="908,-157.5 908,-178.5 1002,-178.5 1002,-157.5 908,-157.5"/>
<text text-anchor="middle" x="955" y="-165.5" font-family="FreeSans" font-size="10.00">Urho3D::XMLFile</text>
</a>
</g>
<!-- Node20&#45;&gt;Node19 -->
<g id="edge54" class="edge"><title>Node20&#45;&gt;Node19</title>
<path fill="none" stroke="#9a32cd" stroke-dasharray="5,2" d="M1012.44,-168C1065.38,-168 1143.57,-168 1196.76,-168"/>
<polygon fill="#9a32cd" stroke="#9a32cd" points="1012.21,-164.5 1002.21,-168 1012.2,-171.5 1012.21,-164.5"/>
<text text-anchor="middle" x="1094" y="-172" font-family="FreeSans" font-size="10.00"> ptr_</text>
</g>
<!-- Node21 -->
<g id="node48" class="node"><title>Node21</title>
<a xlink:href="a00197.html" target="_top" xlink:title="Two&#45;dimensional vector with integer values.">
<polygon fill="none" stroke="black" points="1201,-56.5 1201,-77.5 1309,-77.5 1309,-56.5 1201,-56.5"/>
<text text-anchor="middle" x="1255" y="-64.5" font-family="FreeSans" font-size="10.00">Urho3D::IntVector2</text>
</a>
</g>
<!-- Node21&#45;&gt;Node1 -->
<g id="edge72" class="edge"><title>Node21&#45;&gt;Node1</title>
<path fill="none" stroke="#9a32cd" stroke-dasharray="5,2" d="M1319.58,-65.0477C1336.63,-64.6136 1355.01,-64.2178 1372,-64 1411.11,-63.4987 1420.91,-62.627 1460,-64 1637.95,-70.2508 1849.13,-88.3613 1940.32,-96.7021"/>
<polygon fill="#9a32cd" stroke="#9a32cd" points="1319.07,-61.5598 1309.17,-65.3217 1319.26,-68.5574 1319.07,-61.5598"/>
<text text-anchor="middle" x="1647" y="-81" font-family="FreeSans" font-size="10.00"> originalPosition_</text>
</g>
<!-- Node21&#45;&gt;Node2 -->
<g id="edge56" class="edge"><title>Node21&#45;&gt;Node2</title>
<path fill="none" stroke="#9a32cd" stroke-dasharray="5,2" d="M1319.25,-65.2035C1370.88,-65.0362 1438.24,-68.0959 1460,-84 1516.62,-125.387 1529.5,-218.793 1532.27,-250.352"/>
<polygon fill="#9a32cd" stroke="#9a32cd" points="1319.13,-61.7042 1309.15,-65.2772 1319.18,-68.7041 1319.13,-61.7042"/>
<text text-anchor="middle" x="1416" y="-166" font-family="FreeSans" font-size="10.00"> maxSize_</text>
<text text-anchor="middle" x="1416" y="-153" font-family="FreeSans" font-size="10.00">childOffset_</text>
<text text-anchor="middle" x="1416" y="-140" font-family="FreeSans" font-size="10.00">size_</text>
<text text-anchor="middle" x="1416" y="-127" font-family="FreeSans" font-size="10.00">position_</text>
<text text-anchor="start" x="1381" y="-114" font-family="FreeSans" font-size="10.00">screenPosition</text>
<text text-anchor="middle" x="1416" y="-101" font-family="FreeSans" font-size="10.00">_</text>
<text text-anchor="middle" x="1416" y="-88" font-family="FreeSans" font-size="10.00">minSize_</text>
</g>
<!-- Node21&#45;&gt;Node21 -->
<g id="edge58" class="edge"><title>Node21&#45;&gt;Node21</title>
<path fill="none" stroke="#9a32cd" stroke-dasharray="5,2" d="M1225.36,-87.0551C1227.3,-92.164 1237.18,-96 1255,-96 1282.81,-96 1291.29,-86.6531 1280.42,-77.7079"/>
<polygon fill="#9a32cd" stroke="#9a32cd" points="1228.65,-88.2622 1229.58,-77.7079 1222.27,-85.3816 1228.65,-88.2622"/>
<text text-anchor="middle" x="1255" y="-100" font-family="FreeSans" font-size="10.00"> ZERO</text>
</g>
<!-- Node22 -->
<g id="node51" class="node"><title>Node22</title>
<a xlink:href="a00104.html" target="_top" xlink:title="RGBA color.">
<polygon fill="none" stroke="black" points="1213,-520.5 1213,-541.5 1297,-541.5 1297,-520.5 1213,-520.5"/>
<text text-anchor="middle" x="1255" y="-528.5" font-family="FreeSans" font-size="10.00">Urho3D::Color</text>
</a>
</g>
<!-- Node22&#45;&gt;Node2 -->
<g id="edge60" class="edge"><title>Node22&#45;&gt;Node2</title>
<path fill="none" stroke="#9a32cd" stroke-dasharray="5,2" d="M1307.36,-540.996C1354.19,-546.617 1421.24,-545.889 1460,-506 1490.17,-474.947 1458.86,-350.838 1478,-312 1486.46,-294.829 1503.34,-280.562 1516.18,-271.525"/>
<polygon fill="#9a32cd" stroke="#9a32cd" points="1307.77,-537.52 1297.4,-539.669 1306.85,-544.459 1307.77,-537.52"/>
<text text-anchor="middle" x="1416" y="-558" font-family="FreeSans" font-size="10.00"> derivedColor_</text>
<text text-anchor="middle" x="1416" y="-545" font-family="FreeSans" font-size="10.00">color_</text>
</g>
<!-- Node22&#45;&gt;Node22 -->
<g id="edge62" class="edge"><title>Node22&#45;&gt;Node22</title>
<path fill="none" stroke="#9a32cd" stroke-dasharray="5,2" d="M1225.36,-551.055C1227.3,-556.164 1237.18,-560 1255,-560 1282.81,-560 1291.29,-550.653 1280.42,-541.708"/>
<polygon fill="#9a32cd" stroke="#9a32cd" points="1228.65,-552.262 1229.58,-541.708 1222.27,-549.382 1228.65,-552.262"/>
<text text-anchor="middle" x="1255" y="-694" font-family="FreeSans" font-size="10.00"> CYAN</text>
<text text-anchor="middle" x="1255" y="-681" font-family="FreeSans" font-size="10.00">GRAY</text>
<text text-anchor="middle" x="1255" y="-668" font-family="FreeSans" font-size="10.00">YELLOW</text>
<text text-anchor="middle" x="1255" y="-655" font-family="FreeSans" font-size="10.00">MAGENTA</text>
<text text-anchor="middle" x="1255" y="-642" font-family="FreeSans" font-size="10.00">WHITE</text>
<text text-anchor="middle" x="1255" y="-629" font-family="FreeSans" font-size="10.00">TRANSPARENT</text>
<text text-anchor="middle" x="1255" y="-616" font-family="FreeSans" font-size="10.00">BLUE</text>
<text text-anchor="middle" x="1255" y="-603" font-family="FreeSans" font-size="10.00">BLACK</text>
<text text-anchor="middle" x="1255" y="-590" font-family="FreeSans" font-size="10.00">RED</text>
<text text-anchor="middle" x="1255" y="-577" font-family="FreeSans" font-size="10.00">GREEN</text>
<text text-anchor="middle" x="1255" y="-564" font-family="FreeSans" font-size="10.00">...</text>
</g>
<!-- Node23&#45;&gt;Node1 -->
<g id="edge64" class="edge"><title>Node23&#45;&gt;Node1</title>
<path fill="none" stroke="#9a32cd" stroke-dasharray="5,2" d="M1817.26,-238.588C1846.95,-220.495 1888.56,-193.588 1922,-166 1943.01,-148.666 1964.68,-125.283 1976.64,-111.803"/>
<polygon fill="#9a32cd" stroke="#9a32cd" points="1815.2,-235.745 1808.45,-243.911 1818.82,-241.736 1815.2,-235.745"/>
<text text-anchor="middle" x="1896" y="-207" font-family="FreeSans" font-size="10.00"> target_</text>
</g>
<!-- Node24 -->
<g id="node57" class="node"><title>Node24</title>
<a xlink:href="a00291.html" target="_top" xlink:title="Reference count structure.">
<polygon fill="none" stroke="black" points="1482,-321.5 1482,-342.5 1584,-342.5 1584,-321.5 1482,-321.5"/>
<text text-anchor="middle" x="1533" y="-329.5" font-family="FreeSans" font-size="10.00">Urho3D::RefCount</text>
</a>
</g>
<!-- Node24&#45;&gt;Node23 -->
<g id="edge68" class="edge"><title>Node24&#45;&gt;Node23</title>
<path fill="none" stroke="#9a32cd" stroke-dasharray="5,2" d="M1579.27,-318.645C1619.05,-307.165 1676.65,-290.541 1719.78,-278.092"/>
<polygon fill="#9a32cd" stroke="#9a32cd" points="1578.2,-315.311 1569.56,-321.447 1580.14,-322.037 1578.2,-315.311"/>
<text text-anchor="middle" x="1647" y="-313" font-family="FreeSans" font-size="10.00"> refCount_</text>
</g>
<!-- Node25 -->
<g id="node59" class="node"><title>Node25</title>
<a xlink:href="a00371.html" target="_top" xlink:title="Low&#45;resolution operating system timer.">
<polygon fill="none" stroke="black" points="1736,-0.5 1736,-21.5 1822,-21.5 1822,-0.5 1736,-0.5"/>
<text text-anchor="middle" x="1779" y="-8.5" font-family="FreeSans" font-size="10.00">Urho3D::Timer</text>
</a>
</g>
<!-- Node25&#45;&gt;Node1 -->
<g id="edge70" class="edge"><title>Node25&#45;&gt;Node1</title>
<path fill="none" stroke="#9a32cd" stroke-dasharray="5,2" d="M1832.18,-5.81982C1860.36,-5.37944 1894.7,-8.65665 1922,-23 1951,-38.2334 1971.78,-72.8314 1980.88,-90.3751"/>
<polygon fill="#9a32cd" stroke="#9a32cd" points="1831.98,-2.32414 1822.1,-6.13666 1832.2,-9.32068 1831.98,-2.32414"/>
<text text-anchor="middle" x="1896" y="-27" font-family="FreeSans" font-size="10.00"> displayAt_</text>
</g>
</g>
</svg>
