<?xml version="1.0" encoding="UTF-8" standalone="no"?>
<!DOCTYPE svg PUBLIC "-//W3C//DTD SVG 1.1//EN"
 "http://www.w3.org/Graphics/SVG/1.1/DTD/svg11.dtd">
<!-- Generated by graphviz version 2.26.3 (20100126.1600)
 -->
<!-- Title: Urho3D::Drawable2D Pages: 1 -->
<svg width="1692pt" height="477pt"
 viewBox="0.00 0.00 1692.00 477.00" xmlns="http://www.w3.org/2000/svg" xmlns:xlink="http://www.w3.org/1999/xlink">
<g id="graph1" class="graph" transform="scale(1 1) rotate(0) translate(4 473)">
<title>Urho3D::Drawable2D</title>
<!-- Node1 -->
<g id="node1" class="node"><title>Node1</title>
<polygon fill="#bfbfbf" stroke="black" points="1566.5,-261.5 1566.5,-282.5 1683.5,-282.5 1683.5,-261.5 1566.5,-261.5"/>
<text text-anchor="middle" x="1625" y="-269.5" font-family="FreeSans" font-size="10.00">Urho3D::Drawable2D</text>
</g>
<!-- Node2 -->
<g id="node2" class="node"><title>Node2</title>
<a xlink:href="a00141.html" target="_top" xlink:title="Base class for visible components.">
<polygon fill="none" stroke="black" points="728,-252.5 728,-273.5 832,-273.5 832,-252.5 728,-252.5"/>
<text text-anchor="middle" x="780" y="-260.5" font-family="FreeSans" font-size="10.00">Urho3D::Drawable</text>
</a>
</g>
<!-- Node2&#45;&gt;Node1 -->
<g id="edge2" class="edge"><title>Node2&#45;&gt;Node1</title>
<path fill="none" stroke="midnightblue" d="M801.729,-279.669C814.968,-288.95 832.634,-299.844 850,-306 917.599,-329.964 938.512,-321.22 1010,-327 1204.92,-342.76 1255.83,-349.205 1450,-326 1494.14,-320.725 1505.65,-319.5 1548,-306 1567.63,-299.743 1589,-290.064 1604.23,-282.631"/>
<polygon fill="midnightblue" stroke="midnightblue" points="803.478,-276.614 793.328,-273.579 799.37,-282.282 803.478,-276.614"/>
</g>
<!-- Node8 -->
<g id="node16" class="node"><title>Node8</title>
<a xlink:href="a00378.html" target="_top" xlink:title="Component that describes global rendering properties">
<polygon fill="none" stroke="red" points="1039.5,-163.5 1039.5,-184.5 1124.5,-184.5 1124.5,-163.5 1039.5,-163.5"/>
<text text-anchor="middle" x="1082" y="-171.5" font-family="FreeSans" font-size="10.00">Urho3D::Zone</text>
</a>
</g>
<!-- Node2&#45;&gt;Node8 -->
<g id="edge20" class="edge"><title>Node2&#45;&gt;Node8</title>
<path fill="none" stroke="midnightblue" d="M793.224,-243.969C805.769,-227.61 826.204,-204.974 850,-194 911.125,-165.812 990.877,-165.83 1039.17,-169.288"/>
<polygon fill="midnightblue" stroke="midnightblue" points="790.204,-242.168 787.096,-252.297 795.842,-246.317 790.204,-242.168"/>
</g>
<!-- Node15 -->
<g id="node33" class="node"><title>Node15</title>
<a xlink:href="a00187.html" target="_top" xlink:title="Light component.">
<polygon fill="none" stroke="red" points="1040.5,-216.5 1040.5,-237.5 1123.5,-237.5 1123.5,-216.5 1040.5,-216.5"/>
<text text-anchor="middle" x="1082" y="-224.5" font-family="FreeSans" font-size="10.00">Urho3D::Light</text>
</a>
</g>
<!-- Node2&#45;&gt;Node15 -->
<g id="edge40" class="edge"><title>Node2&#45;&gt;Node15</title>
<path fill="none" stroke="midnightblue" d="M842.528,-274.408C885.9,-279.622 944.226,-281.164 992,-263 1002,-259.196 1000.6,-252.12 1010,-247 1019.34,-241.911 1030.09,-238.03 1040.38,-235.106"/>
<polygon fill="midnightblue" stroke="midnightblue" points="842.766,-270.909 832.399,-273.091 841.864,-277.851 842.766,-270.909"/>
</g>
<!-- Node18 -->
<g id="node43" class="node"><title>Node18</title>
<a xlink:href="a00143.html" target="_top" xlink:title="Proxy for 2D visible components.">
<polygon fill="none" stroke="red" points="1010.5,-296.5 1010.5,-317.5 1153.5,-317.5 1153.5,-296.5 1010.5,-296.5"/>
<text text-anchor="middle" x="1082" y="-304.5" font-family="FreeSans" font-size="10.00">Urho3D::DrawableProxy2D</text>
</a>
</g>
<!-- Node2&#45;&gt;Node18 -->
<g id="edge54" class="edge"><title>Node2&#45;&gt;Node18</title>
<path fill="none" stroke="midnightblue" d="M820.409,-276.564C830.019,-279.387 840.3,-282.083 850,-284 903.207,-294.517 964.278,-300.325 1010.4,-303.473"/>
<polygon fill="midnightblue" stroke="midnightblue" points="821.277,-273.169 810.691,-273.603 819.237,-279.866 821.277,-273.169"/>
</g>
<!-- Node3 -->
<g id="node4" class="node"><title>Node3</title>
<a xlink:href="a00098.html" target="_top" xlink:title="Base class for components. Components can be created to scene nodes.">
<polygon fill="none" stroke="black" points="421,-381.5 421,-402.5 537,-402.5 537,-381.5 421,-381.5"/>
<text text-anchor="middle" x="479" y="-389.5" font-family="FreeSans" font-size="10.00">Urho3D::Component</text>
</a>
</g>
<!-- Node3&#45;&gt;Node2 -->
<g id="edge4" class="edge"><title>Node3&#45;&gt;Node2</title>
<path fill="none" stroke="midnightblue" d="M547.074,-381.444C610.061,-371.287 696.02,-356.286 710,-348 741.082,-329.577 764.423,-292.027 774.512,-273.633"/>
<polygon fill="midnightblue" stroke="midnightblue" points="546.496,-377.992 537.177,-383.031 547.605,-384.904 546.496,-377.992"/>
</g>
<!-- Node23 -->
<g id="node56" class="node"><title>Node23</title>
<a xlink:href="a00205.html" target="_top" xlink:title="Material cache for 2D.">
<polygon fill="none" stroke="red" points="850.5,-381.5 850.5,-402.5 991.5,-402.5 991.5,-381.5 850.5,-381.5"/>
<text text-anchor="middle" x="921" y="-389.5" font-family="FreeSans" font-size="10.00">Urho3D::MaterialCache2D</text>
</a>
</g>
<!-- Node3&#45;&gt;Node23 -->
<g id="edge70" class="edge"><title>Node3&#45;&gt;Node23</title>
<path fill="none" stroke="midnightblue" d="M547.48,-392C629.716,-392 766.955,-392 850.207,-392"/>
<polygon fill="midnightblue" stroke="midnightblue" points="547.238,-388.5 537.238,-392 547.238,-395.5 547.238,-388.5"/>
</g>
<!-- Node4 -->
<g id="node6" class="node"><title>Node4</title>
<a xlink:href="a00298.html" target="_top" xlink:title="Base class for objects with automatic serialization through attributes.">
<polygon fill="none" stroke="red" points="0,-393.5 0,-414.5 114,-414.5 114,-393.5 0,-393.5"/>
<text text-anchor="middle" x="57" y="-401.5" font-family="FreeSans" font-size="10.00">Urho3D::Serializable</text>
</a>
</g>
<!-- Node4&#45;&gt;Node3 -->
<g id="edge6" class="edge"><title>Node4&#45;&gt;Node3</title>
<path fill="none" stroke="midnightblue" d="M124.556,-402.079C206.498,-399.749 343.255,-395.86 420.757,-393.656"/>
<polygon fill="midnightblue" stroke="midnightblue" points="124.248,-398.586 114.352,-402.369 124.447,-405.583 124.248,-398.586"/>
</g>
<!-- Node5 -->
<g id="node8" class="node"><title>Node5</title>
<a xlink:href="a00225.html" target="_top" xlink:title="Scene node that may contain components and child nodes.">
<polygon fill="none" stroke="red" points="170.5,-416.5 170.5,-437.5 255.5,-437.5 255.5,-416.5 170.5,-416.5"/>
<text text-anchor="middle" x="213" y="-424.5" font-family="FreeSans" font-size="10.00">Urho3D::Node</text>
</a>
</g>
<!-- Node4&#45;&gt;Node5 -->
<g id="edge10" class="edge"><title>Node4&#45;&gt;Node5</title>
<path fill="none" stroke="midnightblue" d="M124.372,-413.933C140.016,-416.239 156.24,-418.632 170.466,-420.729"/>
<polygon fill="midnightblue" stroke="midnightblue" points="124.606,-410.43 114.203,-412.434 123.585,-417.355 124.606,-410.43"/>
</g>
<!-- Node5&#45;&gt;Node3 -->
<g id="edge8" class="edge"><title>Node5&#45;&gt;Node3</title>
<path fill="none" stroke="#9a32cd" stroke-dasharray="5,2" d="M265.836,-420.048C310.632,-414.154 374.783,-405.713 420.992,-399.633"/>
<polygon fill="#9a32cd" stroke="#9a32cd" points="265.195,-416.602 255.738,-421.377 266.109,-423.542 265.195,-416.602"/>
<text text-anchor="middle" x="339" y="-419" font-family="FreeSans" font-size="10.00"> node_</text>
</g>
<!-- Node5&#45;&gt;Node5 -->
<g id="edge12" class="edge"><title>Node5&#45;&gt;Node5</title>
<path fill="none" stroke="#9a32cd" stroke-dasharray="5,2" d="M198.349,-447.793C199.642,-452.529 204.526,-456 213,-456 226.906,-456 231.143,-446.653 225.711,-437.708"/>
<polygon fill="#9a32cd" stroke="#9a32cd" points="201.837,-448.189 200.289,-437.708 194.963,-446.867 201.837,-448.189"/>
<text text-anchor="middle" x="213" y="-460" font-family="FreeSans" font-size="10.00"> parent_</text>
</g>
<!-- Node6 -->
<g id="node12" class="node"><title>Node6</title>
<a xlink:href="a00171.html" target="_top" xlink:title="Urho3D::HashSet\&lt; Urho3D\l::Camera * \&gt;">
<polygon fill="none" stroke="black" points="404.5,-329 404.5,-363 553.5,-363 553.5,-329 404.5,-329"/>
<text text-anchor="start" x="412.5" y="-350" font-family="FreeSans" font-size="10.00">Urho3D::HashSet&lt; Urho3D</text>
<text text-anchor="middle" x="479" y="-337" font-family="FreeSans" font-size="10.00">::Camera * &gt;</text>
</a>
</g>
<!-- Node6&#45;&gt;Node2 -->
<g id="edge14" class="edge"><title>Node6&#45;&gt;Node2</title>
<path fill="none" stroke="#9a32cd" stroke-dasharray="5,2" d="M563.619,-334.499C607.995,-327.048 662.795,-315.585 710,-299 728.824,-292.386 748.945,-281.607 762.761,-273.565"/>
<polygon fill="#9a32cd" stroke="#9a32cd" points="563.038,-331.048 553.737,-336.121 564.172,-337.955 563.038,-331.048"/>
<text text-anchor="middle" x="641" y="-336" font-family="FreeSans" font-size="10.00"> viewCameras_</text>
</g>
<!-- Node7 -->
<g id="node14" class="node"><title>Node7</title>
<a xlink:href="a00167.html" target="_top" xlink:title="Hash set/map base class.">
<polygon fill="none" stroke="red" points="159,-335.5 159,-356.5 267,-356.5 267,-335.5 159,-335.5"/>
<text text-anchor="middle" x="213" y="-343.5" font-family="FreeSans" font-size="10.00">Urho3D::HashBase</text>
</a>
</g>
<!-- Node7&#45;&gt;Node6 -->
<g id="edge16" class="edge"><title>Node7&#45;&gt;Node6</title>
<path fill="none" stroke="midnightblue" d="M277.638,-346C315.851,-346 364.405,-346 404.26,-346"/>
<polygon fill="midnightblue" stroke="midnightblue" points="277.15,-342.5 267.15,-346 277.15,-349.5 277.15,-342.5"/>
</g>
<!-- Node8&#45;&gt;Node2 -->
<g id="edge18" class="edge"><title>Node8&#45;&gt;Node2</title>
<path fill="none" stroke="#9a32cd" stroke-dasharray="5,2" d="M1029.35,-183.997C1017.09,-186.309 1004.09,-188.751 992,-191 928.921,-202.732 909.554,-193.128 850,-217 828.133,-225.765 805.91,-241.858 792.538,-252.494"/>
<polygon fill="#9a32cd" stroke="#9a32cd" points="1030.26,-187.387 1039.43,-182.091 1028.96,-180.509 1030.26,-187.387"/>
<text text-anchor="middle" x="921" y="-221" font-family="FreeSans" font-size="10.00"> zone_</text>
</g>
<!-- Node9 -->
<g id="node19" class="node"><title>Node9</title>
<a xlink:href="a00369.html" target="_top" xlink:title="Urho3D::WeakPtr\&lt; Urho3D\l::Zone \&gt;">
<polygon fill="none" stroke="black" points="1304,-157 1304,-191 1450,-191 1450,-157 1304,-157"/>
<text text-anchor="start" x="1312" y="-178" font-family="FreeSans" font-size="10.00">Urho3D::WeakPtr&lt; Urho3D</text>
<text text-anchor="middle" x="1377" y="-165" font-family="FreeSans" font-size="10.00">::Zone &gt;</text>
</a>
</g>
<!-- Node8&#45;&gt;Node9 -->
<g id="edge24" class="edge"><title>Node8&#45;&gt;Node9</title>
<path fill="none" stroke="#9a32cd" stroke-dasharray="5,2" d="M1134.88,-174C1182.01,-174 1251.46,-174 1303.91,-174"/>
<polygon fill="#9a32cd" stroke="#9a32cd" points="1134.58,-170.5 1124.58,-174 1134.58,-177.5 1134.58,-170.5"/>
<text text-anchor="middle" x="1229" y="-178" font-family="FreeSans" font-size="10.00"> ptr_</text>
</g>
<!-- Node9&#45;&gt;Node8 -->
<g id="edge22" class="edge"><title>Node9&#45;&gt;Node8</title>
<path fill="none" stroke="#9a32cd" stroke-dasharray="5,2" d="M1342.78,-151.021C1317.06,-133.757 1286.21,-113.064 1286,-113 1237.53,-98.2562 1220.44,-98.1322 1172,-113 1139.7,-122.915 1108.57,-148.788 1092.76,-163.455"/>
<polygon fill="#9a32cd" stroke="#9a32cd" points="1341,-154.042 1351.25,-156.71 1344.9,-148.23 1341,-154.042"/>
<text text-anchor="start" x="1172.5" y="-143" font-family="FreeSans" font-size="10.00"> lastAmbientEndZone</text>
<text text-anchor="middle" x="1229" y="-130" font-family="FreeSans" font-size="10.00">_</text>
<text text-anchor="middle" x="1229" y="-117" font-family="FreeSans" font-size="10.00">lastAmbientStartZone_</text>
</g>
<!-- Node10 -->
<g id="node22" class="node"><title>Node10</title>
<a xlink:href="a00270.html" target="_top" xlink:title="Reference count structure.">
<polygon fill="none" stroke="black" points="1031,-256.5 1031,-277.5 1133,-277.5 1133,-256.5 1031,-256.5"/>
<text text-anchor="middle" x="1082" y="-264.5" font-family="FreeSans" font-size="10.00">Urho3D::RefCount</text>
</a>
</g>
<!-- Node10&#45;&gt;Node9 -->
<g id="edge26" class="edge"><title>Node10&#45;&gt;Node9</title>
<path fill="none" stroke="#9a32cd" stroke-dasharray="5,2" d="M1142.69,-253.174C1146.64,-251.36 1150.46,-249.312 1154,-247 1164.58,-240.098 1161.33,-231.758 1172,-225 1193.92,-211.119 1254.24,-197.002 1303.81,-187.15"/>
<polygon fill="#9a32cd" stroke="#9a32cd" points="1141.23,-249.99 1133.28,-256.992 1143.86,-256.477 1141.23,-249.99"/>
<text text-anchor="middle" x="1229" y="-229" font-family="FreeSans" font-size="10.00"> refCount_</text>
</g>
<!-- Node17 -->
<g id="node41" class="node"><title>Node17</title>
<a xlink:href="a00369.html" target="_top" xlink:title="Urho3D::WeakPtr\&lt; Urho3D\l::DrawableProxy2D \&gt;">
<polygon fill="none" stroke="black" points="1304,-231 1304,-265 1450,-265 1450,-231 1304,-231"/>
<text text-anchor="start" x="1312" y="-252" font-family="FreeSans" font-size="10.00">Urho3D::WeakPtr&lt; Urho3D</text>
<text text-anchor="middle" x="1377" y="-239" font-family="FreeSans" font-size="10.00">::DrawableProxy2D &gt;</text>
</a>
</g>
<!-- Node10&#45;&gt;Node17 -->
<g id="edge56" class="edge"><title>Node10&#45;&gt;Node17</title>
<path fill="none" stroke="#9a32cd" stroke-dasharray="5,2" d="M1130.6,-254.165C1143.92,-251.205 1158.43,-248.489 1172,-247 1215.52,-242.223 1264.54,-242.268 1303.73,-243.603"/>
<polygon fill="#9a32cd" stroke="#9a32cd" points="1129.63,-250.797 1120.67,-256.46 1131.2,-257.617 1129.63,-250.797"/>
<text text-anchor="middle" x="1229" y="-251" font-family="FreeSans" font-size="10.00"> refCount_</text>
</g>
<!-- Node22 -->
<g id="node54" class="node"><title>Node22</title>
<a xlink:href="a00369.html" target="_top" xlink:title="Urho3D::WeakPtr\&lt; Urho3D\l::MaterialCache2D \&gt;">
<polygon fill="none" stroke="black" points="1304,-283 1304,-317 1450,-317 1450,-283 1304,-283"/>
<text text-anchor="start" x="1312" y="-304" font-family="FreeSans" font-size="10.00">Urho3D::WeakPtr&lt; Urho3D</text>
<text text-anchor="middle" x="1377" y="-291" font-family="FreeSans" font-size="10.00">::MaterialCache2D &gt;</text>
</a>
</g>
<!-- Node10&#45;&gt;Node22 -->
<g id="edge72" class="edge"><title>Node10&#45;&gt;Node22</title>
<path fill="none" stroke="#9a32cd" stroke-dasharray="5,2" d="M1143.31,-270.102C1183.91,-272.576 1238.27,-276.689 1286,-283 1291.74,-283.759 1297.66,-284.64 1303.6,-285.595"/>
<polygon fill="#9a32cd" stroke="#9a32cd" points="1143.49,-266.607 1133.3,-269.508 1143.07,-273.594 1143.49,-266.607"/>
<text text-anchor="middle" x="1229" y="-287" font-family="FreeSans" font-size="10.00"> refCount_</text>
</g>
<!-- Node11 -->
<g id="node24" class="node"><title>Node11</title>
<a xlink:href="a00080.html" target="_top" xlink:title="Three&#45;dimensional axis&#45;aligned bounding box.">
<polygon fill="none" stroke="red" points="152,-183.5 152,-204.5 274,-204.5 274,-183.5 152,-183.5"/>
<text text-anchor="middle" x="213" y="-191.5" font-family="FreeSans" font-size="10.00">Urho3D::BoundingBox</text>
</a>
</g>
<!-- Node11&#45;&gt;Node2 -->
<g id="edge42" class="edge"><title>Node11&#45;&gt;Node2</title>
<path fill="none" stroke="#9a32cd" stroke-dasharray="5,2" d="M245.567,-208.517C282.941,-224.318 346.498,-248.588 404,-258 518.357,-276.718 654.894,-271.883 727.877,-267.158"/>
<polygon fill="#9a32cd" stroke="#9a32cd" points="246.768,-205.224 236.198,-204.501 244.01,-211.658 246.768,-205.224"/>
<text text-anchor="middle" x="479" y="-287" font-family="FreeSans" font-size="10.00"> worldBoundingBox_</text>
<text text-anchor="middle" x="479" y="-274" font-family="FreeSans" font-size="10.00">boundingBox_</text>
</g>
<!-- Node11&#45;&gt;Node8 -->
<g id="edge28" class="edge"><title>Node11&#45;&gt;Node8</title>
<path fill="none" stroke="#9a32cd" stroke-dasharray="5,2" d="M284.727,-184.892C320.5,-180.757 364.465,-176.287 404,-174 601.904,-162.554 651.768,-170.111 850,-169 913.11,-168.646 928.913,-167.249 992,-169 1007.49,-169.43 1024.45,-170.275 1039.44,-171.15"/>
<polygon fill="#9a32cd" stroke="#9a32cd" points="283.909,-181.464 274.385,-186.104 284.724,-188.416 283.909,-181.464"/>
<text text-anchor="middle" x="641" y="-172" font-family="FreeSans" font-size="10.00"> lastWorldBoundingBox_</text>
</g>
<!-- Node16 -->
<g id="node37" class="node"><title>Node16</title>
<a xlink:href="a00234.html" target="_top" xlink:title="Octree octant">
<polygon fill="none" stroke="red" points="433,-183.5 433,-204.5 525,-204.5 525,-183.5 433,-183.5"/>
<text text-anchor="middle" x="479" y="-191.5" font-family="FreeSans" font-size="10.00">Urho3D::Octant</text>
</a>
</g>
<!-- Node11&#45;&gt;Node16 -->
<g id="edge46" class="edge"><title>Node11&#45;&gt;Node16</title>
<path fill="none" stroke="#9a32cd" stroke-dasharray="5,2" d="M284.176,-194C331.322,-194 391.798,-194 432.774,-194"/>
<polygon fill="#9a32cd" stroke="#9a32cd" points="284.026,-190.5 274.026,-194 284.026,-197.5 284.026,-190.5"/>
<text text-anchor="middle" x="339" y="-211" font-family="FreeSans" font-size="10.00"> cullingBox_</text>
<text text-anchor="middle" x="339" y="-198" font-family="FreeSans" font-size="10.00">worldBoundingBox_</text>
</g>
<!-- Node12 -->
<g id="node26" class="node"><title>Node12</title>
<a xlink:href="a00257.html" target="_top" xlink:title="Urho3D::PODVector\&lt;\l Urho3D::Light * \&gt;">
<polygon fill="none" stroke="black" points="419.5,-41 419.5,-75 538.5,-75 538.5,-41 419.5,-41"/>
<text text-anchor="start" x="427.5" y="-62" font-family="FreeSans" font-size="10.00">Urho3D::PODVector&lt;</text>
<text text-anchor="middle" x="479" y="-49" font-family="FreeSans" font-size="10.00"> Urho3D::Light * &gt;</text>
</a>
</g>
<!-- Node12&#45;&gt;Node2 -->
<g id="edge30" class="edge"><title>Node12&#45;&gt;Node2</title>
<path fill="none" stroke="#9a32cd" stroke-dasharray="5,2" d="M548.963,-51.0276C607.444,-46.7097 685.156,-44.9665 710,-63 742.376,-86.5011 770.267,-214.436 777.923,-252.385"/>
<polygon fill="#9a32cd" stroke="#9a32cd" points="548.351,-47.5645 538.653,-51.8295 548.894,-54.5434 548.351,-47.5645"/>
<text text-anchor="middle" x="641" y="-80" font-family="FreeSans" font-size="10.00"> vertexLights_</text>
<text text-anchor="middle" x="641" y="-67" font-family="FreeSans" font-size="10.00">lights_</text>
</g>
<!-- Node13 -->
<g id="node28" class="node"><title>Node13</title>
<a xlink:href="a00360.html" target="_top" xlink:title="Vector base class.">
<polygon fill="none" stroke="black" points="156,-47.5 156,-68.5 270,-68.5 270,-47.5 156,-47.5"/>
<text text-anchor="middle" x="213" y="-55.5" font-family="FreeSans" font-size="10.00">Urho3D::VectorBase</text>
</a>
</g>
<!-- Node13&#45;&gt;Node12 -->
<g id="edge32" class="edge"><title>Node13&#45;&gt;Node12</title>
<path fill="none" stroke="midnightblue" d="M280.114,-58C322.938,-58 377.953,-58 419.263,-58"/>
<polygon fill="midnightblue" stroke="midnightblue" points="280.064,-54.5001 270.064,-58 280.064,-61.5001 280.064,-54.5001"/>
</g>
<!-- Node14 -->
<g id="node30" class="node"><title>Node14</title>
<a xlink:href="a00356.html" target="_top" xlink:title="Urho3D::Vector\&lt; Urho3D\l::SourceBatch \&gt;">
<polygon fill="none" stroke="black" points="410,-93 410,-127 548,-127 548,-93 410,-93"/>
<text text-anchor="start" x="418" y="-114" font-family="FreeSans" font-size="10.00">Urho3D::Vector&lt; Urho3D</text>
<text text-anchor="middle" x="479" y="-101" font-family="FreeSans" font-size="10.00">::SourceBatch &gt;</text>
</a>
</g>
<!-- Node13&#45;&gt;Node14 -->
<g id="edge36" class="edge"><title>Node13&#45;&gt;Node14</title>
<path fill="none" stroke="midnightblue" d="M276.749,-70.4622C316.804,-78.2925 368.482,-88.3949 409.573,-96.4278"/>
<polygon fill="midnightblue" stroke="midnightblue" points="277.315,-67.0066 266.829,-68.523 275.972,-73.8766 277.315,-67.0066"/>
</g>
<!-- Node21 -->
<g id="node51" class="node"><title>Node21</title>
<a xlink:href="a00356.html" target="_top" xlink:title="Urho3D::Vector\&lt; Urho3D\l::Vertex2D \&gt;">
<polygon fill="none" stroke="black" points="572,-0 572,-34 710,-34 710,-0 572,-0"/>
<text text-anchor="start" x="580" y="-21" font-family="FreeSans" font-size="10.00">Urho3D::Vector&lt; Urho3D</text>
<text text-anchor="middle" x="641" y="-8" font-family="FreeSans" font-size="10.00">::Vertex2D &gt;</text>
</a>
</g>
<!-- Node13&#45;&gt;Node21 -->
<g id="edge64" class="edge"><title>Node13&#45;&gt;Node21</title>
<path fill="none" stroke="midnightblue" d="M280.167,-47.6518C316.712,-42.3259 362.755,-36.1071 404,-32 460.41,-26.3829 524.594,-22.4725 571.929,-20.0559"/>
<polygon fill="midnightblue" stroke="midnightblue" points="279.509,-44.211 270.124,-49.1278 280.526,-51.1366 279.509,-44.211"/>
</g>
<!-- Node14&#45;&gt;Node2 -->
<g id="edge34" class="edge"><title>Node14&#45;&gt;Node2</title>
<path fill="none" stroke="#9a32cd" stroke-dasharray="5,2" d="M558.021,-94.33C605.749,-89.239 665.705,-91.0161 710,-120 757.647,-151.177 773.939,-224.774 778.485,-252.334"/>
<polygon fill="#9a32cd" stroke="#9a32cd" points="557.55,-90.8612 548.031,-95.5133 558.374,-97.8126 557.55,-90.8612"/>
<text text-anchor="middle" x="641" y="-124" font-family="FreeSans" font-size="10.00"> batches_</text>
</g>
<!-- Node15&#45;&gt;Node2 -->
<g id="edge38" class="edge"><title>Node15&#45;&gt;Node2</title>
<path fill="none" stroke="#9a32cd" stroke-dasharray="5,2" d="M1030.12,-230.876C983.005,-234.697 911.657,-241.235 850,-250 844.248,-250.818 838.249,-251.773 832.287,-252.789"/>
<polygon fill="#9a32cd" stroke="#9a32cd" points="1030.69,-234.342 1040.38,-230.056 1030.14,-227.364 1030.69,-234.342"/>
<text text-anchor="middle" x="921" y="-254" font-family="FreeSans" font-size="10.00"> firstLight_</text>
</g>
<!-- Node16&#45;&gt;Node2 -->
<g id="edge44" class="edge"><title>Node16&#45;&gt;Node2</title>
<path fill="none" stroke="#9a32cd" stroke-dasharray="5,2" d="M535.03,-206.844C592.402,-219.996 680.521,-240.196 733.962,-252.446"/>
<polygon fill="#9a32cd" stroke="#9a32cd" points="535.572,-203.378 525.043,-204.555 534.008,-210.201 535.572,-203.378"/>
<text text-anchor="middle" x="641" y="-250" font-family="FreeSans" font-size="10.00"> octant_</text>
</g>
<!-- Node16&#45;&gt;Node16 -->
<g id="edge48" class="edge"><title>Node16&#45;&gt;Node16</title>
<path fill="none" stroke="#9a32cd" stroke-dasharray="5,2" d="M453.063,-214.055C454.764,-219.164 463.41,-223 479,-223 503.336,-223 510.751,-213.653 501.245,-204.708"/>
<polygon fill="#9a32cd" stroke="#9a32cd" points="456.336,-215.294 456.755,-204.708 449.826,-212.722 456.336,-215.294"/>
<text text-anchor="middle" x="479" y="-240" font-family="FreeSans" font-size="10.00"> parent_</text>
<text text-anchor="middle" x="479" y="-227" font-family="FreeSans" font-size="10.00">children_</text>
</g>
<!-- Node17&#45;&gt;Node1 -->
<g id="edge50" class="edge"><title>Node17&#45;&gt;Node1</title>
<path fill="none" stroke="#9a32cd" stroke-dasharray="5,2" d="M1460.15,-250.04C1488.14,-251.347 1519.49,-253.49 1548,-257 1557.19,-258.132 1566.93,-259.72 1576.28,-261.444"/>
<polygon fill="#9a32cd" stroke="#9a32cd" points="1460.15,-246.537 1450,-249.595 1459.84,-253.53 1460.15,-246.537"/>
<text text-anchor="middle" x="1508" y="-261" font-family="FreeSans" font-size="10.00"> drawableProxy_</text>
</g>
<!-- Node18&#45;&gt;Node17 -->
<g id="edge52" class="edge"><title>Node18&#45;&gt;Node17</title>
<path fill="none" stroke="#9a32cd" stroke-dasharray="5,2" d="M1163.89,-317.381C1202.81,-318.718 1248.83,-314.854 1286,-296 1297.27,-290.284 1293.67,-281.275 1304,-274 1308.73,-270.669 1313.93,-267.723 1319.31,-265.128"/>
<polygon fill="#9a32cd" stroke="#9a32cd" points="1163.79,-313.872 1153.63,-316.904 1163.46,-320.865 1163.79,-313.872"/>
<text text-anchor="middle" x="1229" y="-321" font-family="FreeSans" font-size="10.00"> ptr_</text>
</g>
<!-- Node19 -->
<g id="node47" class="node"><title>Node19</title>
<a xlink:href="a00307.html" target="_top" xlink:title="Urho3D::SharedPtr\&lt;\l Urho3D::Sprite2D \&gt;">
<polygon fill="none" stroke="black" points="1319,-395 1319,-429 1435,-429 1435,-395 1319,-395"/>
<text text-anchor="start" x="1327" y="-416" font-family="FreeSans" font-size="10.00">Urho3D::SharedPtr&lt;</text>
<text text-anchor="middle" x="1377" y="-403" font-family="FreeSans" font-size="10.00"> Urho3D::Sprite2D &gt;</text>
</a>
</g>
<!-- Node19&#45;&gt;Node1 -->
<g id="edge58" class="edge"><title>Node19&#45;&gt;Node1</title>
<path fill="none" stroke="#9a32cd" stroke-dasharray="5,2" d="M1445.09,-400.423C1478.04,-392.623 1517.06,-379.99 1548,-360 1580.23,-339.18 1606.84,-301.137 1618.56,-282.65"/>
<polygon fill="#9a32cd" stroke="#9a32cd" points="1444.05,-397.069 1435.07,-402.691 1445.6,-403.896 1444.05,-397.069"/>
<text text-anchor="middle" x="1508" y="-397" font-family="FreeSans" font-size="10.00"> sprite_</text>
</g>
<!-- Node20 -->
<g id="node49" class="node"><title>Node20</title>
<a xlink:href="a00324.html" target="_top" xlink:title="Sprite.">
<polygon fill="none" stroke="red" points="1031.5,-423.5 1031.5,-444.5 1132.5,-444.5 1132.5,-423.5 1031.5,-423.5"/>
<text text-anchor="middle" x="1082" y="-431.5" font-family="FreeSans" font-size="10.00">Urho3D::Sprite2D</text>
</a>
</g>
<!-- Node20&#45;&gt;Node19 -->
<g id="edge60" class="edge"><title>Node20&#45;&gt;Node19</title>
<path fill="none" stroke="#9a32cd" stroke-dasharray="5,2" d="M1142.73,-429.471C1194.36,-425.621 1267.99,-420.129 1318.86,-416.336"/>
<polygon fill="#9a32cd" stroke="#9a32cd" points="1142.42,-425.984 1132.71,-430.218 1142.94,-432.965 1142.42,-425.984"/>
<text text-anchor="middle" x="1229" y="-430" font-family="FreeSans" font-size="10.00"> ptr_</text>
</g>
<!-- Node21&#45;&gt;Node1 -->
<g id="edge62" class="edge"><title>Node21&#45;&gt;Node1</title>
<path fill="none" stroke="#9a32cd" stroke-dasharray="5,2" d="M720.247,-20.0366C776.307,-21.9265 853.25,-24 921,-24 921,-24 921,-24 1377,-24 1513.39,-24 1600.97,-213.875 1620.74,-261.344"/>
<polygon fill="#9a32cd" stroke="#9a32cd" points="720.143,-16.5311 710.029,-19.6864 719.903,-23.527 720.143,-16.5311"/>
<text text-anchor="middle" x="1082" y="-28" font-family="FreeSans" font-size="10.00"> vertices_</text>
</g>
<!-- Node22&#45;&gt;Node1 -->
<g id="edge66" class="edge"><title>Node22&#45;&gt;Node1</title>
<path fill="none" stroke="#9a32cd" stroke-dasharray="5,2" d="M1460.21,-290.606C1494.96,-286.682 1534.53,-282.215 1566.18,-278.641"/>
<polygon fill="#9a32cd" stroke="#9a32cd" points="1459.61,-287.151 1450.07,-291.751 1460.4,-294.106 1459.61,-287.151"/>
<text text-anchor="middle" x="1508" y="-293" font-family="FreeSans" font-size="10.00"> materialCache_</text>
</g>
<!-- Node23&#45;&gt;Node22 -->
<g id="edge68" class="edge"><title>Node23&#45;&gt;Node22</title>
<path fill="none" stroke="#9a32cd" stroke-dasharray="5,2" d="M1002.1,-383.824C1076.71,-375.196 1190,-359.289 1286,-334 1302.8,-329.575 1320.81,-323.207 1336.34,-317.175"/>
<polygon fill="#9a32cd" stroke="#9a32cd" points="1001.38,-380.384 991.839,-384.993 1002.17,-387.339 1001.38,-380.384"/>
<text text-anchor="middle" x="1082" y="-386" font-family="FreeSans" font-size="10.00"> ptr_</text>
</g>
<!-- Node24 -->
<g id="node60" class="node"><title>Node24</title>
<a xlink:href="a00307.html" target="_top" xlink:title="Urho3D::SharedPtr\&lt;\l Urho3D::Material \&gt;">
<polygon fill="none" stroke="black" points="1319,-82 1319,-116 1435,-116 1435,-82 1319,-82"/>
<text text-anchor="start" x="1327" y="-103" font-family="FreeSans" font-size="10.00">Urho3D::SharedPtr&lt;</text>
<text text-anchor="middle" x="1377" y="-90" font-family="FreeSans" font-size="10.00"> Urho3D::Material &gt;</text>
</a>
</g>
<!-- Node24&#45;&gt;Node1 -->
<g id="edge74" class="edge"><title>Node24&#45;&gt;Node1</title>
<path fill="none" stroke="#9a32cd" stroke-dasharray="5,2" d="M1411.37,-121.81C1423.61,-130.002 1437.46,-139.352 1450,-148 1509.77,-189.226 1580.02,-239.594 1610.11,-261.256"/>
<polygon fill="#9a32cd" stroke="#9a32cd" points="1413.04,-118.72 1402.78,-116.077 1409.16,-124.541 1413.04,-118.72"/>
<text text-anchor="middle" x="1508" y="-232" font-family="FreeSans" font-size="10.00"> material_</text>
<text text-anchor="middle" x="1508" y="-219" font-family="FreeSans" font-size="10.00">defaultMaterial_</text>
</g>
<!-- Node25 -->
<g id="node62" class="node"><title>Node25</title>
<a xlink:href="a00204.html" target="_top" xlink:title="Describes how to render 3D geometries.">
<polygon fill="none" stroke="red" points="1033,-65.5 1033,-86.5 1131,-86.5 1131,-65.5 1033,-65.5"/>
<text text-anchor="middle" x="1082" y="-73.5" font-family="FreeSans" font-size="10.00">Urho3D::Material</text>
</a>
</g>
<!-- Node25&#45;&gt;Node24 -->
<g id="edge76" class="edge"><title>Node25&#45;&gt;Node24</title>
<path fill="none" stroke="#9a32cd" stroke-dasharray="5,2" d="M1141.2,-76.9153C1181.98,-77.9612 1237.38,-80.2015 1286,-85 1296.66,-86.0518 1307.97,-87.512 1318.86,-89.0948"/>
<polygon fill="#9a32cd" stroke="#9a32cd" points="1141.24,-73.4154 1131.16,-76.6743 1141.07,-80.4134 1141.24,-73.4154"/>
<text text-anchor="middle" x="1229" y="-89" font-family="FreeSans" font-size="10.00"> ptr_</text>
</g>
</g>
</svg>
