<?xml version="1.0" encoding="UTF-8" standalone="no"?>
<!DOCTYPE svg PUBLIC "-//W3C//DTD SVG 1.1//EN"
 "http://www.w3.org/Graphics/SVG/1.1/DTD/svg11.dtd">
<!-- Generated by graphviz version 2.26.3 (20100126.1600)
 -->
<!-- Title: Urho3D::Text3D Pages: 1 -->
<svg width="1090pt" height="873pt"
 viewBox="0.00 0.00 1090.00 873.49" xmlns="http://www.w3.org/2000/svg" xmlns:xlink="http://www.w3.org/1999/xlink">
<g id="graph1" class="graph" transform="scale(1 1) rotate(0) translate(4 869.491)">
<title>Urho3D::Text3D</title>
<!-- Node1 -->
<g id="node1" class="node"><title>Node1</title>
<polygon fill="#bfbfbf" stroke="black" points="990,-216.991 990,-237.991 1082,-237.991 1082,-216.991 990,-216.991"/>
<text text-anchor="middle" x="1036" y="-224.991" font-family="FreeSans" font-size="10.00">Urho3D::Text3D</text>
</g>
<!-- Node2 -->
<g id="node2" class="node"><title>Node2</title>
<a xlink:href="a00146.html" target="_top" xlink:title="Base class for visible components.">
<polygon fill="none" stroke="black" points="717,-584.991 717,-605.991 821,-605.991 821,-584.991 717,-584.991"/>
<text text-anchor="middle" x="769" y="-592.991" font-family="FreeSans" font-size="10.00">Urho3D::Drawable</text>
</a>
</g>
<!-- Node2&#45;&gt;Node1 -->
<g id="edge2" class="edge"><title>Node2&#45;&gt;Node1</title>
<path fill="none" stroke="midnightblue" d="M789.252,-577.873C802.681,-566.065 820.598,-550.068 836,-535.491 844.217,-527.715 844.211,-523.163 854,-517.491 901.018,-490.251 933.995,-524.329 972,-485.491 1007.83,-448.879 1029.65,-281.747 1034.81,-237.998"/>
<polygon fill="midnightblue" stroke="midnightblue" points="786.75,-575.412 781.534,-584.634 791.362,-580.678 786.75,-575.412"/>
</g>
<!-- Node5 -->
<g id="node8" class="node"><title>Node5</title>
<a xlink:href="a00398.html" target="_top" xlink:title="Component that describes global rendering properties">
<polygon fill="none" stroke="red" points="993.5,-632.991 993.5,-653.991 1078.5,-653.991 1078.5,-632.991 993.5,-632.991"/>
<text text-anchor="middle" x="1036" y="-640.991" font-family="FreeSans" font-size="10.00">Urho3D::Zone</text>
</a>
</g>
<!-- Node2&#45;&gt;Node5 -->
<g id="edge10" class="edge"><title>Node2&#45;&gt;Node5</title>
<path fill="none" stroke="midnightblue" d="M790.796,-611.99C807.202,-623.324 830.766,-637.384 854,-643.491 900.45,-655.701 955.903,-653.411 993.292,-649.536"/>
<polygon fill="midnightblue" stroke="midnightblue" points="792.637,-609.005 782.465,-606.042 788.57,-614.701 792.637,-609.005"/>
</g>
<!-- Node11 -->
<g id="node23" class="node"><title>Node11</title>
<a xlink:href="a00198.html" target="_top" xlink:title="Light component.">
<polygon fill="none" stroke="red" points="994.5,-513.991 994.5,-534.991 1077.5,-534.991 1077.5,-513.991 994.5,-513.991"/>
<text text-anchor="middle" x="1036" y="-521.991" font-family="FreeSans" font-size="10.00">Urho3D::Light</text>
</a>
</g>
<!-- Node2&#45;&gt;Node11 -->
<g id="edge28" class="edge"><title>Node2&#45;&gt;Node11</title>
<path fill="none" stroke="midnightblue" d="M788.298,-578.263C804.57,-564.852 829.126,-547.116 854,-538.491 900.111,-522.504 956.606,-520.685 994.306,-521.774"/>
<polygon fill="midnightblue" stroke="midnightblue" points="785.943,-575.67 780.585,-584.81 790.474,-581.007 785.943,-575.67"/>
</g>
<!-- Node3 -->
<g id="node4" class="node"><title>Node3</title>
<a xlink:href="a00102.html" target="_top" xlink:title="Base class for components. Components can be created to scene nodes.">
<polygon fill="none" stroke="red" points="303,-489.991 303,-510.991 419,-510.991 419,-489.991 303,-489.991"/>
<text text-anchor="middle" x="361" y="-497.991" font-family="FreeSans" font-size="10.00">Urho3D::Component</text>
</a>
</g>
<!-- Node3&#45;&gt;Node2 -->
<g id="edge4" class="edge"><title>Node3&#45;&gt;Node2</title>
<path fill="none" stroke="midnightblue" d="M429.48,-505.355C495.864,-511.495 598.75,-524.809 684,-552.491 708.852,-560.561 735.406,-575.05 752.094,-584.959"/>
<polygon fill="midnightblue" stroke="midnightblue" points="429.42,-501.836 419.148,-504.43 428.796,-508.808 429.42,-501.836"/>
</g>
<!-- Node4 -->
<g id="node6" class="node"><title>Node4</title>
<a xlink:href="a00180.html" target="_top" xlink:title="Urho3D::HashSet\&lt; Urho3D\l::Camera * \&gt;">
<polygon fill="none" stroke="red" points="286.5,-779.491 286.5,-813.491 435.5,-813.491 435.5,-779.491 286.5,-779.491"/>
<text text-anchor="start" x="294.5" y="-800.491" font-family="FreeSans" font-size="10.00">Urho3D::HashSet&lt; Urho3D</text>
<text text-anchor="middle" x="361" y="-787.491" font-family="FreeSans" font-size="10.00">::Camera * &gt;</text>
</a>
</g>
<!-- Node4&#45;&gt;Node2 -->
<g id="edge6" class="edge"><title>Node4&#45;&gt;Node2</title>
<path fill="none" stroke="#9a32cd" stroke-dasharray="5,2" d="M445.829,-803.886C515.703,-805.653 614.278,-797.754 684,-749.491 735.977,-713.513 759.472,-635.029 766.563,-606.303"/>
<polygon fill="#9a32cd" stroke="#9a32cd" points="445.843,-800.385 435.735,-803.559 445.616,-807.381 445.843,-800.385"/>
<text text-anchor="middle" x="586" y="-806.491" font-family="FreeSans" font-size="10.00"> viewCameras_</text>
</g>
<!-- Node5&#45;&gt;Node2 -->
<g id="edge8" class="edge"><title>Node5&#45;&gt;Node2</title>
<path fill="none" stroke="#9a32cd" stroke-dasharray="5,2" d="M983.266,-632.651C979.456,-631.907 975.67,-631.18 972,-630.491 920.858,-620.891 862.275,-610.897 821.229,-604.059"/>
<polygon fill="#9a32cd" stroke="#9a32cd" points="982.857,-636.138 993.346,-634.644 984.215,-629.271 982.857,-636.138"/>
<text text-anchor="middle" x="913" y="-634.491" font-family="FreeSans" font-size="10.00"> zone_</text>
</g>
<!-- Node6 -->
<g id="node11" class="node"><title>Node6</title>
<a xlink:href="a00084.html" target="_top" xlink:title="Three&#45;dimensional axis&#45;aligned bounding box.">
<polygon fill="none" stroke="red" points="0,-724.991 0,-745.991 122,-745.991 122,-724.991 0,-724.991"/>
<text text-anchor="middle" x="61" y="-732.991" font-family="FreeSans" font-size="10.00">Urho3D::BoundingBox</text>
</a>
</g>
<!-- Node6&#45;&gt;Node2 -->
<g id="edge32" class="edge"><title>Node6&#45;&gt;Node2</title>
<path fill="none" stroke="#9a32cd" stroke-dasharray="5,2" d="M132.487,-740.645C252.493,-746.352 499.43,-745.311 684,-659.491 713.648,-645.706 742.932,-620.388 758.182,-606.076"/>
<polygon fill="#9a32cd" stroke="#9a32cd" points="132.487,-737.141 122.322,-740.131 132.133,-744.132 132.487,-737.141"/>
<text text-anchor="middle" x="361" y="-758.491" font-family="FreeSans" font-size="10.00"> worldBoundingBox_</text>
<text text-anchor="middle" x="361" y="-745.491" font-family="FreeSans" font-size="10.00">boundingBox_</text>
</g>
<!-- Node6&#45;&gt;Node5 -->
<g id="edge12" class="edge"><title>Node6&#45;&gt;Node5</title>
<path fill="none" stroke="#9a32cd" stroke-dasharray="5,2" d="M86.2337,-751.265C121.667,-772.391 188.913,-808.8 252,-822.491 439.637,-863.213 497.445,-864.914 684,-819.491 825.068,-785.144 974.48,-686.549 1021.18,-654.034"/>
<polygon fill="#9a32cd" stroke="#9a32cd" points="87.8902,-748.177 77.5224,-745.995 84.2668,-754.166 87.8902,-748.177"/>
<text text-anchor="middle" x="586" y="-856.491" font-family="FreeSans" font-size="10.00"> lastWorldBoundingBox_</text>
</g>
<!-- Node12 -->
<g id="node28" class="node"><title>Node12</title>
<a xlink:href="a00247.html" target="_top" xlink:title="Octree octant">
<polygon fill="none" stroke="red" points="315,-633.991 315,-654.991 407,-654.991 407,-633.991 315,-633.991"/>
<text text-anchor="middle" x="361" y="-641.991" font-family="FreeSans" font-size="10.00">Urho3D::Octant</text>
</a>
</g>
<!-- Node6&#45;&gt;Node12 -->
<g id="edge36" class="edge"><title>Node6&#45;&gt;Node12</title>
<path fill="none" stroke="#9a32cd" stroke-dasharray="5,2" d="M88.1045,-719.709C103.024,-711.555 122.098,-701.981 140,-695.491 198.676,-674.223 269.412,-659.74 314.781,-651.794"/>
<polygon fill="#9a32cd" stroke="#9a32cd" points="85.9803,-716.887 78.9539,-724.816 89.3917,-722.999 85.9803,-716.887"/>
<text text-anchor="middle" x="187" y="-712.491" font-family="FreeSans" font-size="10.00"> cullingBox_</text>
<text text-anchor="middle" x="187" y="-699.491" font-family="FreeSans" font-size="10.00">worldBoundingBox_</text>
</g>
<!-- Node7 -->
<g id="node13" class="node"><title>Node7</title>
<a xlink:href="a00219.html" target="_top" xlink:title="3x4 matrix for scene node transform calculations.">
<polygon fill="none" stroke="black" points="716,-460.991 716,-481.991 822,-481.991 822,-460.991 716,-460.991"/>
<text text-anchor="middle" x="769" y="-468.991" font-family="FreeSans" font-size="10.00">Urho3D::Matrix3x4</text>
</a>
</g>
<!-- Node7&#45;&gt;Node1 -->
<g id="edge76" class="edge"><title>Node7&#45;&gt;Node1</title>
<path fill="none" stroke="#9a32cd" stroke-dasharray="5,2" d="M816.623,-457.882C861.796,-442.82 928.985,-414.535 972,-369.491 1009.91,-329.792 1027.94,-263.764 1033.78,-238.126"/>
<polygon fill="#9a32cd" stroke="#9a32cd" points="815.486,-454.571 807.053,-460.985 817.645,-461.23 815.486,-454.571"/>
<text text-anchor="middle" x="913" y="-447.491" font-family="FreeSans" font-size="10.00"> customWorldTransform_</text>
</g>
<!-- Node7&#45;&gt;Node5 -->
<g id="edge14" class="edge"><title>Node7&#45;&gt;Node5</title>
<path fill="none" stroke="#9a32cd" stroke-dasharray="5,2" d="M779.806,-490.98C793.753,-514.157 820.285,-552.133 854,-571.491 900.195,-598.015 923.459,-570.553 972,-592.491 993.491,-602.204 1014.02,-620.765 1025.8,-632.615"/>
<polygon fill="#9a32cd" stroke="#9a32cd" points="782.667,-488.937 774.615,-482.05 776.615,-492.455 782.667,-488.937"/>
<text text-anchor="middle" x="913" y="-596.491" font-family="FreeSans" font-size="10.00"> inverseWorld_</text>
</g>
<!-- Node7&#45;&gt;Node7 -->
<g id="edge16" class="edge"><title>Node7&#45;&gt;Node7</title>
<path fill="none" stroke="#9a32cd" stroke-dasharray="5,2" d="M742.322,-491.546C744.072,-496.655 752.964,-500.491 769,-500.491 794.031,-500.491 801.658,-491.144 791.88,-482.199"/>
<polygon fill="#9a32cd" stroke="#9a32cd" points="745.598,-492.781 746.12,-482.199 739.113,-490.146 745.598,-492.781"/>
<text text-anchor="middle" x="769" y="-517.491" font-family="FreeSans" font-size="10.00"> IDENTITY</text>
<text text-anchor="middle" x="769" y="-504.491" font-family="FreeSans" font-size="10.00">ZERO</text>
</g>
<!-- Node7&#45;&gt;Node11 -->
<g id="edge30" class="edge"><title>Node7&#45;&gt;Node11</title>
<path fill="none" stroke="#9a32cd" stroke-dasharray="5,2" d="M832.345,-475.16C872.827,-478.589 926.142,-485.13 972,-497.491 986.788,-501.478 1002.65,-508.154 1014.89,-513.87"/>
<polygon fill="#9a32cd" stroke="#9a32cd" points="832.591,-471.669 822.342,-474.354 832.028,-478.646 832.591,-471.669"/>
<text text-anchor="middle" x="913" y="-501.491" font-family="FreeSans" font-size="10.00"> volumeTransform_</text>
</g>
<!-- Node8 -->
<g id="node16" class="node"><title>Node8</title>
<a xlink:href="a00270.html" target="_top" xlink:title="Urho3D::PODVector\&lt;\l Urho3D::Light * \&gt;">
<polygon fill="none" stroke="black" points="301.5,-581.491 301.5,-615.491 420.5,-615.491 420.5,-581.491 301.5,-581.491"/>
<text text-anchor="start" x="309.5" y="-602.491" font-family="FreeSans" font-size="10.00">Urho3D::PODVector&lt;</text>
<text text-anchor="middle" x="361" y="-589.491" font-family="FreeSans" font-size="10.00"> Urho3D::Light * &gt;</text>
</a>
</g>
<!-- Node8&#45;&gt;Node2 -->
<g id="edge18" class="edge"><title>Node8&#45;&gt;Node2</title>
<path fill="none" stroke="#9a32cd" stroke-dasharray="5,2" d="M430.9,-597.238C449.459,-596.947 469.488,-596.67 488,-596.491 567.882,-595.72 660.542,-595.526 716.95,-595.487"/>
<polygon fill="#9a32cd" stroke="#9a32cd" points="430.702,-593.74 420.759,-597.4 430.814,-600.739 430.702,-593.74"/>
<text text-anchor="middle" x="586" y="-613.491" font-family="FreeSans" font-size="10.00"> vertexLights_</text>
<text text-anchor="middle" x="586" y="-600.491" font-family="FreeSans" font-size="10.00">lights_</text>
</g>
<!-- Node9 -->
<g id="node18" class="node"><title>Node9</title>
<a xlink:href="a00380.html" target="_top" xlink:title="Vector base class.">
<polygon fill="none" stroke="black" points="4,-245.991 4,-266.991 118,-266.991 118,-245.991 4,-245.991"/>
<text text-anchor="middle" x="61" y="-253.991" font-family="FreeSans" font-size="10.00">Urho3D::VectorBase</text>
</a>
</g>
<!-- Node9&#45;&gt;Node8 -->
<g id="edge20" class="edge"><title>Node9&#45;&gt;Node8</title>
<path fill="none" stroke="midnightblue" d="M65.1824,-276.876C74.0279,-316.6 97.4019,-406.035 140,-469.491 177.692,-525.64 192.294,-540.732 252,-572.491 267.115,-580.531 284.718,-586.116 301.313,-589.983"/>
<polygon fill="midnightblue" stroke="midnightblue" points="68.5941,-276.093 63.0689,-267.053 61.7507,-277.565 68.5941,-276.093"/>
</g>
<!-- Node10 -->
<g id="node20" class="node"><title>Node10</title>
<a xlink:href="a00376.html" target="_top" xlink:title="Urho3D::Vector\&lt; Urho3D\l::SourceBatch \&gt;">
<polygon fill="none" stroke="black" points="292,-529.491 292,-563.491 430,-563.491 430,-529.491 292,-529.491"/>
<text text-anchor="start" x="300" y="-550.491" font-family="FreeSans" font-size="10.00">Urho3D::Vector&lt; Urho3D</text>
<text text-anchor="middle" x="361" y="-537.491" font-family="FreeSans" font-size="10.00">::SourceBatch &gt;</text>
</a>
</g>
<!-- Node9&#45;&gt;Node10 -->
<g id="edge24" class="edge"><title>Node9&#45;&gt;Node10</title>
<path fill="none" stroke="midnightblue" d="M69.4071,-276.484C91.4182,-326.259 155.767,-456.326 252,-520.491 263.897,-528.424 277.948,-533.945 291.934,-537.785"/>
<polygon fill="midnightblue" stroke="midnightblue" points="72.5434,-274.919 65.3566,-267.134 66.1202,-277.702 72.5434,-274.919"/>
</g>
<!-- Node15 -->
<g id="node36" class="node"><title>Node15</title>
<a xlink:href="a00376.html" target="_top" xlink:title="Urho3D::Vector\&lt; Urho3D\l::SharedPtr\&lt; Urho3D::Geometry \&gt; \&gt;">
<polygon fill="none" stroke="black" points="488.5,-48.4914 488.5,-82.4914 683.5,-82.4914 683.5,-48.4914 488.5,-48.4914"/>
<text text-anchor="start" x="496.5" y="-69.4914" font-family="FreeSans" font-size="10.00">Urho3D::Vector&lt; Urho3D</text>
<text text-anchor="middle" x="586" y="-56.4914" font-family="FreeSans" font-size="10.00">::SharedPtr&lt; Urho3D::Geometry &gt; &gt;</text>
</a>
</g>
<!-- Node9&#45;&gt;Node15 -->
<g id="edge46" class="edge"><title>Node9&#45;&gt;Node15</title>
<path fill="none" stroke="midnightblue" d="M68.0035,-236.131C78.9217,-207.356 102.7,-155.016 140,-125.491 238.628,-47.4226 389.604,-43.8183 488.074,-51.8942"/>
<polygon fill="midnightblue" stroke="midnightblue" points="64.5762,-235.314 64.4473,-245.909 71.1546,-237.707 64.5762,-235.314"/>
</g>
<!-- Node20 -->
<g id="node48" class="node"><title>Node20</title>
<a xlink:href="a00270.html" target="_top" xlink:title="Urho3D::PODVector\&lt;\l int \&gt;">
<polygon fill="none" stroke="black" points="301.5,-397.491 301.5,-431.491 420.5,-431.491 420.5,-397.491 301.5,-397.491"/>
<text text-anchor="start" x="309.5" y="-418.491" font-family="FreeSans" font-size="10.00">Urho3D::PODVector&lt;</text>
<text text-anchor="middle" x="361" y="-405.491" font-family="FreeSans" font-size="10.00"> int &gt;</text>
</a>
</g>
<!-- Node9&#45;&gt;Node20 -->
<g id="edge60" class="edge"><title>Node9&#45;&gt;Node20</title>
<path fill="none" stroke="midnightblue" d="M78.9815,-274.113C94.4427,-288.783 117.711,-309.741 140,-325.491 186.643,-358.45 198.82,-367.664 252,-388.491 267.579,-394.593 284.992,-399.529 301.248,-403.394"/>
<polygon fill="midnightblue" stroke="midnightblue" points="81.2912,-271.479 71.6544,-267.076 76.4423,-276.527 81.2912,-271.479"/>
</g>
<!-- Node22 -->
<g id="node53" class="node"><title>Node22</title>
<a xlink:href="a00270.html" target="_top" xlink:title="Urho3D::PODVector\&lt;\l Urho3D::CharLocation \&gt;">
<polygon fill="none" stroke="black" points="292.5,-345.491 292.5,-379.491 429.5,-379.491 429.5,-345.491 292.5,-345.491"/>
<text text-anchor="start" x="300.5" y="-366.491" font-family="FreeSans" font-size="10.00">Urho3D::PODVector&lt;</text>
<text text-anchor="middle" x="361" y="-353.491" font-family="FreeSans" font-size="10.00"> Urho3D::CharLocation &gt;</text>
</a>
</g>
<!-- Node9&#45;&gt;Node22 -->
<g id="edge66" class="edge"><title>Node9&#45;&gt;Node22</title>
<path fill="none" stroke="midnightblue" d="M92.2339,-271.429C129.574,-288.849 194.272,-317.655 252,-336.491 264.946,-340.716 278.962,-344.574 292.495,-347.95"/>
<polygon fill="midnightblue" stroke="midnightblue" points="93.4428,-268.13 82.9034,-267.047 90.467,-274.466 93.4428,-268.13"/>
</g>
<!-- Node23 -->
<g id="node56" class="node"><title>Node23</title>
<a xlink:href="a00376.html" target="_top" xlink:title="Urho3D::Vector\&lt; Urho3D\l::PODVector\&lt; Urho3D::GlyphLocation \&gt; \&gt;">
<polygon fill="none" stroke="black" points="252,-170.491 252,-204.491 470,-204.491 470,-170.491 252,-170.491"/>
<text text-anchor="start" x="260" y="-191.491" font-family="FreeSans" font-size="10.00">Urho3D::Vector&lt; Urho3D</text>
<text text-anchor="middle" x="361" y="-178.491" font-family="FreeSans" font-size="10.00">::PODVector&lt; Urho3D::GlyphLocation &gt; &gt;</text>
</a>
</g>
<!-- Node9&#45;&gt;Node23 -->
<g id="edge70" class="edge"><title>Node9&#45;&gt;Node23</title>
<path fill="none" stroke="midnightblue" d="M116.777,-243.663C164.709,-232.638 234.212,-216.653 286.827,-204.551"/>
<polygon fill="midnightblue" stroke="midnightblue" points="115.851,-240.284 106.89,-245.937 117.42,-247.106 115.851,-240.284"/>
</g>
<!-- Node24 -->
<g id="node59" class="node"><title>Node24</title>
<a xlink:href="a00270.html" target="_top" xlink:title="Urho3D::PODVector\&lt;\l float \&gt;">
<polygon fill="none" stroke="black" points="526.5,-9.49135 526.5,-43.4914 645.5,-43.4914 645.5,-9.49135 526.5,-9.49135"/>
<text text-anchor="start" x="534.5" y="-30.4914" font-family="FreeSans" font-size="10.00">Urho3D::PODVector&lt;</text>
<text text-anchor="middle" x="586" y="-17.4914" font-family="FreeSans" font-size="10.00"> float &gt;</text>
</a>
</g>
<!-- Node9&#45;&gt;Node24 -->
<g id="edge74" class="edge"><title>Node9&#45;&gt;Node24</title>
<path fill="none" stroke="midnightblue" d="M63.8087,-235.878C70.1386,-197.658 89.1579,-115.761 140,-72.4914 249.222,20.4638 432.255,3.44264 526.274,-13.4004"/>
<polygon fill="midnightblue" stroke="midnightblue" points="60.3372,-235.427 62.2868,-245.841 67.2569,-236.484 60.3372,-235.427"/>
</g>
<!-- Node25 -->
<g id="node63" class="node"><title>Node25</title>
<a xlink:href="a00270.html" target="_top" xlink:title="Urho3D::PODVector\&lt;\l Urho3D::UIBatch \&gt;">
<polygon fill="none" stroke="black" points="526.5,-87.4914 526.5,-121.491 645.5,-121.491 645.5,-87.4914 526.5,-87.4914"/>
<text text-anchor="start" x="534.5" y="-108.491" font-family="FreeSans" font-size="10.00">Urho3D::PODVector&lt;</text>
<text text-anchor="middle" x="586" y="-95.4914" font-family="FreeSans" font-size="10.00"> Urho3D::UIBatch &gt;</text>
</a>
</g>
<!-- Node9&#45;&gt;Node25 -->
<g id="edge80" class="edge"><title>Node9&#45;&gt;Node25</title>
<path fill="none" stroke="midnightblue" d="M78.5044,-238.739C109.941,-208.198 179.477,-146.581 252,-121.491 343.771,-89.7428 458.19,-92.2221 526.495,-97.757"/>
<polygon fill="midnightblue" stroke="midnightblue" points="76.0151,-236.278 71.3543,-245.793 80.9312,-241.261 76.0151,-236.278"/>
</g>
<!-- Node10&#45;&gt;Node2 -->
<g id="edge22" class="edge"><title>Node10&#45;&gt;Node2</title>
<path fill="none" stroke="#9a32cd" stroke-dasharray="5,2" d="M440.495,-552.169C506.041,-557.377 601.337,-566.161 684,-578.491 695.908,-580.268 708.674,-582.594 720.599,-584.953"/>
<polygon fill="#9a32cd" stroke="#9a32cd" points="440.481,-548.657 430.238,-551.364 439.933,-555.636 440.481,-548.657"/>
<text text-anchor="middle" x="586" y="-582.491" font-family="FreeSans" font-size="10.00"> batches_</text>
</g>
<!-- Node11&#45;&gt;Node2 -->
<g id="edge26" class="edge"><title>Node11&#45;&gt;Node2</title>
<path fill="none" stroke="#9a32cd" stroke-dasharray="5,2" d="M984.443,-533.509C935.092,-542.241 866.363,-554.699 854,-558.491 831.381,-565.429 806.712,-576.599 789.805,-584.854"/>
<polygon fill="#9a32cd" stroke="#9a32cd" points="985.103,-536.947 994.342,-531.762 983.886,-530.054 985.103,-536.947"/>
<text text-anchor="middle" x="913" y="-562.491" font-family="FreeSans" font-size="10.00"> firstLight_</text>
</g>
<!-- Node12&#45;&gt;Node2 -->
<g id="edge34" class="edge"><title>Node12&#45;&gt;Node2</title>
<path fill="none" stroke="#9a32cd" stroke-dasharray="5,2" d="M417.188,-644.721C482.036,-644.052 591.62,-640.046 684,-622.491 703.623,-618.763 725.053,-611.936 741.486,-606.08"/>
<polygon fill="#9a32cd" stroke="#9a32cd" points="417.145,-641.221 407.174,-644.801 417.202,-648.22 417.145,-641.221"/>
<text text-anchor="middle" x="586" y="-646.491" font-family="FreeSans" font-size="10.00"> octant_</text>
</g>
<!-- Node12&#45;&gt;Node12 -->
<g id="edge38" class="edge"><title>Node12&#45;&gt;Node12</title>
<path fill="none" stroke="#9a32cd" stroke-dasharray="5,2" d="M328.624,-664.17C330.359,-669.466 341.151,-673.491 361,-673.491 391.246,-673.491 400.462,-664.144 388.647,-655.199"/>
<polygon fill="#9a32cd" stroke="#9a32cd" points="331.786,-665.678 333.353,-655.199 325.594,-662.413 331.786,-665.678"/>
<text text-anchor="middle" x="361" y="-690.491" font-family="FreeSans" font-size="10.00"> parent_</text>
<text text-anchor="middle" x="361" y="-677.491" font-family="FreeSans" font-size="10.00">children_</text>
</g>
<!-- Node13 -->
<g id="node32" class="node"><title>Node13</title>
<a xlink:href="a00322.html" target="_top" xlink:title="Urho3D::SharedPtr\&lt;\l Urho3D::VertexBuffer \&gt;">
<polygon fill="none" stroke="black" points="702.5,-395.491 702.5,-429.491 835.5,-429.491 835.5,-395.491 702.5,-395.491"/>
<text text-anchor="start" x="710.5" y="-416.491" font-family="FreeSans" font-size="10.00">Urho3D::SharedPtr&lt;</text>
<text text-anchor="middle" x="769" y="-403.491" font-family="FreeSans" font-size="10.00"> Urho3D::VertexBuffer &gt;</text>
</a>
</g>
<!-- Node13&#45;&gt;Node1 -->
<g id="edge40" class="edge"><title>Node13&#45;&gt;Node1</title>
<path fill="none" stroke="#9a32cd" stroke-dasharray="5,2" d="M802.095,-389.561C860.195,-349.304 978.38,-267.416 1020.59,-238.17"/>
<polygon fill="#9a32cd" stroke="#9a32cd" points="799.866,-386.846 793.64,-395.419 803.853,-392.6 799.866,-386.846"/>
<text text-anchor="middle" x="913" y="-356.491" font-family="FreeSans" font-size="10.00"> vertexBuffer_</text>
</g>
<!-- Node14 -->
<g id="node34" class="node"><title>Node14</title>
<a xlink:href="a00383.html" target="_top" xlink:title="Hardware vertex buffer.">
<polygon fill="none" stroke="red" points="301.5,-449.991 301.5,-470.991 420.5,-470.991 420.5,-449.991 301.5,-449.991"/>
<text text-anchor="middle" x="361" y="-457.991" font-family="FreeSans" font-size="10.00">Urho3D::VertexBuffer</text>
</a>
</g>
<!-- Node14&#45;&gt;Node13 -->
<g id="edge42" class="edge"><title>Node14&#45;&gt;Node13</title>
<path fill="none" stroke="#9a32cd" stroke-dasharray="5,2" d="M430.756,-452.799C496.198,-445.512 596.78,-434.13 684,-423.491 689.908,-422.771 696.045,-422.007 702.196,-421.23"/>
<polygon fill="#9a32cd" stroke="#9a32cd" points="430.114,-449.349 420.562,-453.933 430.888,-456.306 430.114,-449.349"/>
<text text-anchor="middle" x="586" y="-449.491" font-family="FreeSans" font-size="10.00"> ptr_</text>
</g>
<!-- Node15&#45;&gt;Node1 -->
<g id="edge44" class="edge"><title>Node15&#45;&gt;Node1</title>
<path fill="none" stroke="#9a32cd" stroke-dasharray="5,2" d="M693.869,-73.6709C775.742,-84.1456 888.138,-108.031 972,-162.491 995.376,-177.672 1016.86,-202.702 1028,-216.863"/>
<polygon fill="#9a32cd" stroke="#9a32cd" points="694.141,-70.1781 683.789,-72.429 693.286,-77.1255 694.141,-70.1781"/>
<text text-anchor="middle" x="769" y="-104.491" font-family="FreeSans" font-size="10.00"> geometries_</text>
</g>
<!-- Node16 -->
<g id="node39" class="node"><title>Node16</title>
<a xlink:href="a00322.html" target="_top" xlink:title="Urho3D::SharedPtr\&lt;\l Urho3D::Material \&gt;">
<polygon fill="none" stroke="black" points="711,-188.491 711,-222.491 827,-222.491 827,-188.491 711,-188.491"/>
<text text-anchor="start" x="719" y="-209.491" font-family="FreeSans" font-size="10.00">Urho3D::SharedPtr&lt;</text>
<text text-anchor="middle" x="769" y="-196.491" font-family="FreeSans" font-size="10.00"> Urho3D::Material &gt;</text>
</a>
</g>
<!-- Node16&#45;&gt;Node1 -->
<g id="edge48" class="edge"><title>Node16&#45;&gt;Node1</title>
<path fill="none" stroke="#9a32cd" stroke-dasharray="5,2" d="M837.064,-204.525C876.611,-204.789 927.303,-206.541 972,-212.491 980.032,-213.561 988.531,-215.19 996.621,-216.988"/>
<polygon fill="#9a32cd" stroke="#9a32cd" points="837.014,-201.025 827.001,-204.488 836.988,-208.025 837.014,-201.025"/>
<text text-anchor="middle" x="913" y="-216.491" font-family="FreeSans" font-size="10.00"> material_</text>
</g>
<!-- Node17 -->
<g id="node41" class="node"><title>Node17</title>
<a xlink:href="a00215.html" target="_top" xlink:title="Describes how to render 3D geometries.">
<polygon fill="none" stroke="red" points="312,-130.991 312,-151.991 410,-151.991 410,-130.991 312,-130.991"/>
<text text-anchor="middle" x="361" y="-138.991" font-family="FreeSans" font-size="10.00">Urho3D::Material</text>
</a>
</g>
<!-- Node17&#45;&gt;Node16 -->
<g id="edge50" class="edge"><title>Node17&#45;&gt;Node16</title>
<path fill="none" stroke="#9a32cd" stroke-dasharray="5,2" d="M420.207,-137.2C486.017,-134.201 594.782,-134.553 684,-160.491 692.788,-163.046 693.944,-166.15 702,-170.491 712.975,-176.405 725.031,-182.75 735.855,-188.391"/>
<polygon fill="#9a32cd" stroke="#9a32cd" points="419.837,-133.714 410.023,-137.707 420.185,-140.706 419.837,-133.714"/>
<text text-anchor="middle" x="586" y="-164.491" font-family="FreeSans" font-size="10.00"> ptr_</text>
</g>
<!-- Node18 -->
<g id="node43" class="node"><title>Node18</title>
<a xlink:href="a00351.html" target="_top" xlink:title="Text UI element.">
<polygon fill="none" stroke="red" points="730,-242.991 730,-263.991 808,-263.991 808,-242.991 730,-242.991"/>
<text text-anchor="middle" x="769" y="-250.991" font-family="FreeSans" font-size="10.00">Urho3D::Text</text>
</a>
</g>
<!-- Node18&#45;&gt;Node1 -->
<g id="edge52" class="edge"><title>Node18&#45;&gt;Node1</title>
<path fill="none" stroke="#9a32cd" stroke-dasharray="5,2" d="M818.146,-248.706C867.086,-243.94 941.646,-236.679 989.6,-232.01"/>
<polygon fill="#9a32cd" stroke="#9a32cd" points="817.724,-245.23 808.11,-249.683 818.402,-252.197 817.724,-245.23"/>
<text text-anchor="middle" x="913" y="-248.491" font-family="FreeSans" font-size="10.00"> text_</text>
</g>
<!-- Node19 -->
<g id="node45" class="node"><title>Node19</title>
<a xlink:href="a00366.html" target="_top" xlink:title="Base class for UI elements.">
<polygon fill="none" stroke="red" points="306.5,-274.991 306.5,-295.991 415.5,-295.991 415.5,-274.991 306.5,-274.991"/>
<text text-anchor="middle" x="361" y="-282.991" font-family="FreeSans" font-size="10.00">Urho3D::UIElement</text>
</a>
</g>
<!-- Node19&#45;&gt;Node18 -->
<g id="edge54" class="edge"><title>Node19&#45;&gt;Node18</title>
<path fill="none" stroke="midnightblue" d="M425.76,-281.537C491.01,-277.398 594.566,-270.408 684,-262.491 698.929,-261.17 715.309,-259.49 729.671,-257.941"/>
<polygon fill="midnightblue" stroke="midnightblue" points="425.384,-278.054 415.624,-282.177 425.825,-285.04 425.384,-278.054"/>
</g>
<!-- Node19&#45;&gt;Node19 -->
<g id="edge56" class="edge"><title>Node19&#45;&gt;Node19</title>
<path fill="none" stroke="#9a32cd" stroke-dasharray="5,2" d="M328.624,-305.17C330.359,-310.466 341.151,-314.491 361,-314.491 391.246,-314.491 400.462,-305.144 388.647,-296.199"/>
<polygon fill="#9a32cd" stroke="#9a32cd" points="331.786,-306.678 333.353,-296.199 325.594,-303.413 331.786,-306.678"/>
<text text-anchor="middle" x="361" y="-318.491" font-family="FreeSans" font-size="10.00"> parent_</text>
</g>
<!-- Node20&#45;&gt;Node18 -->
<g id="edge58" class="edge"><title>Node20&#45;&gt;Node18</title>
<path fill="none" stroke="#9a32cd" stroke-dasharray="5,2" d="M430.937,-405.716C512.557,-394.565 641.749,-373.814 684,-349.491 721.234,-328.056 750.638,-284.377 762.855,-264.177"/>
<polygon fill="#9a32cd" stroke="#9a32cd" points="430.178,-402.287 420.736,-407.094 431.115,-409.224 430.178,-402.287"/>
<text text-anchor="middle" x="586" y="-400.491" font-family="FreeSans" font-size="10.00"> rowWidths_</text>
</g>
<!-- Node21 -->
<g id="node51" class="node"><title>Node21</title>
<a xlink:href="a00389.html" target="_top" xlink:title="Urho3D::WeakPtr\&lt; Urho3D\l::FontFace \&gt;">
<polygon fill="none" stroke="red" points="288,-222.491 288,-256.491 434,-256.491 434,-222.491 288,-222.491"/>
<text text-anchor="start" x="296" y="-243.491" font-family="FreeSans" font-size="10.00">Urho3D::WeakPtr&lt; Urho3D</text>
<text text-anchor="middle" x="361" y="-230.491" font-family="FreeSans" font-size="10.00">::FontFace &gt;</text>
</a>
</g>
<!-- Node21&#45;&gt;Node18 -->
<g id="edge62" class="edge"><title>Node21&#45;&gt;Node18</title>
<path fill="none" stroke="#9a32cd" stroke-dasharray="5,2" d="M444.357,-241.704C509.589,-243.525 602.583,-246.316 684,-249.491 698.91,-250.073 715.285,-250.818 729.649,-251.508"/>
<polygon fill="#9a32cd" stroke="#9a32cd" points="444.226,-238.199 434.132,-241.42 444.031,-245.196 444.226,-238.199"/>
<text text-anchor="middle" x="586" y="-253.491" font-family="FreeSans" font-size="10.00"> fontFace_</text>
</g>
<!-- Node22&#45;&gt;Node18 -->
<g id="edge64" class="edge"><title>Node22&#45;&gt;Node18</title>
<path fill="none" stroke="#9a32cd" stroke-dasharray="5,2" d="M439.486,-345.659C505.27,-330.988 601.416,-308.229 684,-283.491 703.338,-277.699 724.771,-270.126 741.276,-264.039"/>
<polygon fill="#9a32cd" stroke="#9a32cd" points="438.604,-342.269 429.601,-347.854 440.122,-349.103 438.604,-342.269"/>
<text text-anchor="middle" x="586" y="-336.491" font-family="FreeSans" font-size="10.00"> charLocations_</text>
</g>
<!-- Node23&#45;&gt;Node18 -->
<g id="edge68" class="edge"><title>Node23&#45;&gt;Node18</title>
<path fill="none" stroke="#9a32cd" stroke-dasharray="5,2" d="M480.444,-195.673C541.792,-201.352 617.441,-210.647 684,-225.491 692.231,-227.327 693.994,-228.843 702,-231.491 713.275,-235.222 725.624,-239.283 736.616,-242.89"/>
<polygon fill="#9a32cd" stroke="#9a32cd" points="480.61,-192.174 470.336,-194.758 479.979,-199.145 480.61,-192.174"/>
<text text-anchor="middle" x="586" y="-229.491" font-family="FreeSans" font-size="10.00"> pageGlyphLocations_</text>
</g>
<!-- Node24&#45;&gt;Node1 -->
<g id="edge72" class="edge"><title>Node24&#45;&gt;Node1</title>
<path fill="none" stroke="#9a32cd" stroke-dasharray="5,2" d="M655.728,-21.5279C740.566,-19.3753 883.413,-28.81 972,-105.491 1007.99,-136.642 1026.7,-193.083 1033.25,-216.673"/>
<polygon fill="#9a32cd" stroke="#9a32cd" points="655.562,-18.0313 645.677,-21.8441 655.782,-25.0278 655.562,-18.0313"/>
<text text-anchor="middle" x="769" y="-41.4914" font-family="FreeSans" font-size="10.00"> uiVertexData_</text>
</g>
<!-- Node25&#45;&gt;Node1 -->
<g id="edge78" class="edge"><title>Node25&#45;&gt;Node1</title>
<path fill="none" stroke="#9a32cd" stroke-dasharray="5,2" d="M655.873,-118.417C733.922,-134.766 863.547,-164.298 972,-200.491 985.956,-205.149 1001.15,-211.499 1013.22,-216.871"/>
<polygon fill="#9a32cd" stroke="#9a32cd" points="656.183,-114.907 645.679,-116.296 654.756,-121.76 656.183,-114.907"/>
<text text-anchor="middle" x="769" y="-162.491" font-family="FreeSans" font-size="10.00"> uiBatches_</text>
</g>
</g>
</svg>
