<?xml version="1.0" encoding="UTF-8" standalone="no"?>
<!DOCTYPE svg PUBLIC "-//W3C//DTD SVG 1.1//EN"
 "http://www.w3.org/Graphics/SVG/1.1/DTD/svg11.dtd">
<!-- Generated by graphviz version 2.26.3 (20100126.1600)
 -->
<!-- Title: Urho3D::Constraint2D Pages: 1 -->
<svg width="1064pt" height="190pt"
 viewBox="0.00 0.00 1064.00 190.00" xmlns="http://www.w3.org/2000/svg" xmlns:xlink="http://www.w3.org/1999/xlink">
<g id="graph1" class="graph" transform="scale(1 1) rotate(0) translate(4 186)">
<title>Urho3D::Constraint2D</title>
<!-- Node1 -->
<g id="node1" class="node"><title>Node1</title>
<polygon fill="#bfbfbf" stroke="black" points="734,-80.5 734,-101.5 856,-101.5 856,-80.5 734,-80.5"/>
<text text-anchor="middle" x="795" y="-88.5" font-family="FreeSans" font-size="10.00">Urho3D::Constraint2D</text>
</g>
<!-- Node7 -->
<g id="node13" class="node"><title>Node7</title>
<a xlink:href="a00110.html" target="_top" xlink:title="2D distance constraint component.">
<polygon fill="none" stroke="black" points="892,-160.5 892,-181.5 1056,-181.5 1056,-160.5 892,-160.5"/>
<text text-anchor="middle" x="974" y="-168.5" font-family="FreeSans" font-size="10.00">Urho3D::ConstraintDistance2D</text>
</a>
</g>
<!-- Node1&#45;&gt;Node7 -->
<g id="edge12" class="edge"><title>Node1&#45;&gt;Node7</title>
<path fill="none" stroke="midnightblue" d="M817.276,-107.616C836.258,-121.061 864.722,-139.577 892,-151 900.921,-154.736 910.692,-157.875 920.282,-160.476"/>
<polygon fill="midnightblue" stroke="midnightblue" points="819.171,-104.668 809.013,-101.659 815.077,-110.346 819.171,-104.668"/>
</g>
<!-- Node8 -->
<g id="node15" class="node"><title>Node8</title>
<a xlink:href="a00111.html" target="_top" xlink:title="2D friction constraint component.">
<polygon fill="none" stroke="black" points="896,-120.5 896,-141.5 1052,-141.5 1052,-120.5 896,-120.5"/>
<text text-anchor="middle" x="974" y="-128.5" font-family="FreeSans" font-size="10.00">Urho3D::ConstraintFriction2D</text>
</a>
</g>
<!-- Node1&#45;&gt;Node8 -->
<g id="edge14" class="edge"><title>Node1&#45;&gt;Node8</title>
<path fill="none" stroke="midnightblue" d="M851.806,-103.694C876.023,-109.106 903.941,-115.344 926.974,-120.491"/>
<polygon fill="midnightblue" stroke="midnightblue" points="852.553,-100.275 842.03,-101.51 851.026,-107.106 852.553,-100.275"/>
</g>
<!-- Node9 -->
<g id="node17" class="node"><title>Node9</title>
<a xlink:href="a00112.html" target="_top" xlink:title="2D pulley constraint component.">
<polygon fill="none" stroke="black" points="899,-80.5 899,-101.5 1049,-101.5 1049,-80.5 899,-80.5"/>
<text text-anchor="middle" x="974" y="-88.5" font-family="FreeSans" font-size="10.00">Urho3D::ConstraintPulley2D</text>
</a>
</g>
<!-- Node1&#45;&gt;Node9 -->
<g id="edge16" class="edge"><title>Node1&#45;&gt;Node9</title>
<path fill="none" stroke="midnightblue" d="M866.263,-91C877.002,-91 888.107,-91 898.923,-91"/>
<polygon fill="midnightblue" stroke="midnightblue" points="866.101,-87.5001 856.101,-91 866.101,-94.5001 866.101,-87.5001"/>
</g>
<!-- Node10 -->
<g id="node19" class="node"><title>Node10</title>
<a xlink:href="a00113.html" target="_top" xlink:title="2D revolute constraint component.">
<polygon fill="none" stroke="black" points="892.5,-40.5 892.5,-61.5 1055.5,-61.5 1055.5,-40.5 892.5,-40.5"/>
<text text-anchor="middle" x="974" y="-48.5" font-family="FreeSans" font-size="10.00">Urho3D::ConstraintRevolute2D</text>
</a>
</g>
<!-- Node1&#45;&gt;Node10 -->
<g id="edge18" class="edge"><title>Node1&#45;&gt;Node10</title>
<path fill="none" stroke="midnightblue" d="M851.806,-78.3059C876.023,-72.8944 903.941,-66.6557 926.974,-61.5087"/>
<polygon fill="midnightblue" stroke="midnightblue" points="851.026,-74.8938 842.03,-80.4905 852.553,-81.7253 851.026,-74.8938"/>
</g>
<!-- Node11 -->
<g id="node21" class="node"><title>Node11</title>
<a xlink:href="a00114.html" target="_top" xlink:title="2D rope constraint component.">
<polygon fill="none" stroke="black" points="901,-0.5 901,-21.5 1047,-21.5 1047,-0.5 901,-0.5"/>
<text text-anchor="middle" x="974" y="-8.5" font-family="FreeSans" font-size="10.00">Urho3D::ConstraintRope2D</text>
</a>
</g>
<!-- Node1&#45;&gt;Node11 -->
<g id="edge20" class="edge"><title>Node1&#45;&gt;Node11</title>
<path fill="none" stroke="midnightblue" d="M817.276,-74.3836C836.258,-60.9388 864.722,-42.4234 892,-31 900.921,-27.2642 910.692,-24.1253 920.282,-21.5239"/>
<polygon fill="midnightblue" stroke="midnightblue" points="815.077,-71.6539 809.013,-80.3415 819.171,-77.3318 815.077,-71.6539"/>
</g>
<!-- Node2 -->
<g id="node2" class="node"><title>Node2</title>
<a xlink:href="a00099.html" target="_top" xlink:title="Base class for components. Components can be created to scene nodes.">
<polygon fill="none" stroke="black" points="582,-80.5 582,-101.5 698,-101.5 698,-80.5 582,-80.5"/>
<text text-anchor="middle" x="640" y="-88.5" font-family="FreeSans" font-size="10.00">Urho3D::Component</text>
</a>
</g>
<!-- Node2&#45;&gt;Node1 -->
<g id="edge2" class="edge"><title>Node2&#45;&gt;Node1</title>
<path fill="none" stroke="midnightblue" d="M708.417,-91C716.912,-91 725.554,-91 733.928,-91"/>
<polygon fill="midnightblue" stroke="midnightblue" points="708.157,-87.5001 698.157,-91 708.157,-94.5001 708.157,-87.5001"/>
</g>
<!-- Node3 -->
<g id="node4" class="node"><title>Node3</title>
<a xlink:href="a00282.html" target="_top" xlink:title="Base class for scene objects.">
<polygon fill="none" stroke="black" points="426,-80.5 426,-101.5 546,-101.5 546,-80.5 426,-80.5"/>
<text text-anchor="middle" x="486" y="-88.5" font-family="FreeSans" font-size="10.00">Urho3D::SceneObject</text>
</a>
</g>
<!-- Node3&#45;&gt;Node2 -->
<g id="edge4" class="edge"><title>Node3&#45;&gt;Node2</title>
<path fill="none" stroke="midnightblue" d="M556.613,-91C565.03,-91 573.551,-91 581.767,-91"/>
<polygon fill="midnightblue" stroke="midnightblue" points="556.423,-87.5001 546.423,-91 556.423,-94.5001 556.423,-87.5001"/>
</g>
<!-- Node4 -->
<g id="node6" class="node"><title>Node4</title>
<a xlink:href="a00294.html" target="_top" xlink:title="Base class for objects with automatic serialization through attributes.">
<polygon fill="none" stroke="black" points="276,-80.5 276,-101.5 390,-101.5 390,-80.5 276,-80.5"/>
<text text-anchor="middle" x="333" y="-88.5" font-family="FreeSans" font-size="10.00">Urho3D::Serializable</text>
</a>
</g>
<!-- Node4&#45;&gt;Node3 -->
<g id="edge6" class="edge"><title>Node4&#45;&gt;Node3</title>
<path fill="none" stroke="midnightblue" d="M400.61,-91C409.057,-91 417.651,-91 425.972,-91"/>
<polygon fill="midnightblue" stroke="midnightblue" points="400.407,-87.5001 390.407,-91 400.407,-94.5001 400.407,-87.5001"/>
</g>
<!-- Node5 -->
<g id="node8" class="node"><title>Node5</title>
<a xlink:href="a00225.html" target="_top" xlink:title="Base class for objects with type identification, subsystem access and event sending/receiving capabil...">
<polygon fill="none" stroke="black" points="150,-80.5 150,-101.5 240,-101.5 240,-80.5 150,-80.5"/>
<text text-anchor="middle" x="195" y="-88.5" font-family="FreeSans" font-size="10.00">Urho3D::Object</text>
</a>
</g>
<!-- Node5&#45;&gt;Node4 -->
<g id="edge8" class="edge"><title>Node5&#45;&gt;Node4</title>
<path fill="none" stroke="midnightblue" d="M250.212,-91C258.574,-91 267.218,-91 275.625,-91"/>
<polygon fill="midnightblue" stroke="midnightblue" points="250.186,-87.5001 240.186,-91 250.186,-94.5001 250.186,-87.5001"/>
</g>
<!-- Node6 -->
<g id="node10" class="node"><title>Node6</title>
<a xlink:href="a00266.html" target="_top" xlink:title="Base class for intrusively reference&#45;counted objects. These are noncopyable and non&#45;assignable.">
<polygon fill="none" stroke="black" points="0,-80.5 0,-101.5 114,-101.5 114,-80.5 0,-80.5"/>
<text text-anchor="middle" x="57" y="-88.5" font-family="FreeSans" font-size="10.00">Urho3D::RefCounted</text>
</a>
</g>
<!-- Node6&#45;&gt;Node5 -->
<g id="edge10" class="edge"><title>Node6&#45;&gt;Node5</title>
<path fill="none" stroke="midnightblue" d="M124.403,-91C133.027,-91 141.686,-91 149.838,-91"/>
<polygon fill="midnightblue" stroke="midnightblue" points="124.326,-87.5001 114.326,-91 124.326,-94.5001 124.326,-87.5001"/>
</g>
</g>
</svg>
