<?xml version="1.0" encoding="UTF-8" standalone="no"?>
<!DOCTYPE svg PUBLIC "-//W3C//DTD SVG 1.1//EN"
 "http://www.w3.org/Graphics/SVG/1.1/DTD/svg11.dtd">
<!-- Generated by graphviz version 2.26.3 (20100126.1600)
 -->
<!-- Title: Urho3D::BorderImage Pages: 1 -->
<svg width="1776pt" height="775pt"
 viewBox="0.00 0.00 1776.00 775.02" xmlns="http://www.w3.org/2000/svg" xmlns:xlink="http://www.w3.org/1999/xlink">
<g id="graph1" class="graph" transform="scale(1 1) rotate(0) translate(4 771.016)">
<title>Urho3D::BorderImage</title>
<!-- Node1 -->
<g id="node1" class="node"><title>Node1</title>
<polygon fill="#bfbfbf" stroke="black" points="1646,-210.516 1646,-231.516 1768,-231.516 1768,-210.516 1646,-210.516"/>
<text text-anchor="middle" x="1707" y="-218.516" font-family="FreeSans" font-size="10.00">Urho3D::BorderImage</text>
</g>
<!-- Node2 -->
<g id="node2" class="node"><title>Node2</title>
<a xlink:href="a00379.html" target="_top" xlink:title="Base class for UI elements.">
<polygon fill="none" stroke="black" points="1453.5,-355.516 1453.5,-376.516 1562.5,-376.516 1562.5,-355.516 1453.5,-355.516"/>
<text text-anchor="middle" x="1508" y="-363.516" font-family="FreeSans" font-size="10.00">Urho3D::UIElement</text>
</a>
</g>
<!-- Node2&#45;&gt;Node1 -->
<g id="edge2" class="edge"><title>Node2&#45;&gt;Node1</title>
<path fill="none" stroke="midnightblue" d="M1530.97,-349.277C1572.29,-319.168 1658.04,-256.691 1692.35,-231.694"/>
<polygon fill="midnightblue" stroke="midnightblue" points="1528.65,-346.636 1522.63,-355.354 1532.78,-352.293 1528.65,-346.636"/>
</g>
<!-- Node2&#45;&gt;Node2 -->
<g id="edge40" class="edge"><title>Node2&#45;&gt;Node2</title>
<path fill="none" stroke="#9a32cd" stroke-dasharray="5,2" d="M1489.94,-386.443C1491.33,-391.365 1497.35,-395.016 1508,-395.016 1525.04,-395.016 1530.23,-385.669 1523.57,-376.724"/>
<polygon fill="#9a32cd" stroke="#9a32cd" points="1493.34,-387.279 1492.43,-376.724 1486.56,-385.543 1493.34,-387.279"/>
<text text-anchor="middle" x="1508" y="-399.016" font-family="FreeSans" font-size="10.00"> parent_</text>
</g>
<!-- Node3 -->
<g id="node4" class="node"><title>Node3</title>
<a xlink:href="a00054.html" target="_top" xlink:title="Base class for animatable object, an animatable object can be set animation on it&#39;s attributes...">
<polygon fill="none" stroke="black" points="1180,-467.516 1180,-488.516 1294,-488.516 1294,-467.516 1180,-467.516"/>
<text text-anchor="middle" x="1237" y="-475.516" font-family="FreeSans" font-size="10.00">Urho3D::Animatable</text>
</a>
</g>
<!-- Node3&#45;&gt;Node2 -->
<g id="edge4" class="edge"><title>Node3&#45;&gt;Node2</title>
<path fill="none" stroke="midnightblue" d="M1275.53,-463.916C1315.11,-449.223 1378.32,-425.154 1432,-402.016 1450.64,-393.982 1471.44,-384.059 1486.56,-376.667"/>
<polygon fill="midnightblue" stroke="midnightblue" points="1274.17,-460.69 1266,-467.444 1276.6,-467.255 1274.17,-460.69"/>
</g>
<!-- Node4 -->
<g id="node6" class="node"><title>Node4</title>
<a xlink:href="a00321.html" target="_top" xlink:title="Base class for objects with automatic serialization through attributes.">
<polygon fill="none" stroke="black" points="880,-555.516 880,-576.516 994,-576.516 994,-555.516 880,-555.516"/>
<text text-anchor="middle" x="937" y="-563.516" font-family="FreeSans" font-size="10.00">Urho3D::Serializable</text>
</a>
</g>
<!-- Node4&#45;&gt;Node3 -->
<g id="edge6" class="edge"><title>Node4&#45;&gt;Node3</title>
<path fill="none" stroke="midnightblue" d="M1004.3,-560.948C1039.41,-557.004 1082.7,-550.08 1120,-538.016 1158.01,-525.721 1198.73,-502.198 1220.69,-488.543"/>
<polygon fill="midnightblue" stroke="midnightblue" points="1003.72,-557.489 994.151,-562.031 1004.47,-564.449 1003.72,-557.489"/>
</g>
<!-- Node5 -->
<g id="node8" class="node"><title>Node5</title>
<a xlink:href="a00249.html" target="_top" xlink:title="Base class for objects with type identification, subsystem access and event sending/receiving capabil...">
<polygon fill="none" stroke="red" points="187,-475.516 187,-496.516 277,-496.516 277,-475.516 187,-475.516"/>
<text text-anchor="middle" x="232" y="-483.516" font-family="FreeSans" font-size="10.00">Urho3D::Object</text>
</a>
</g>
<!-- Node5&#45;&gt;Node4 -->
<g id="edge8" class="edge"><title>Node5&#45;&gt;Node4</title>
<path fill="none" stroke="midnightblue" d="M287.389,-492.301C418.578,-507.188 747.18,-544.476 879.984,-559.546"/>
<polygon fill="midnightblue" stroke="midnightblue" points="287.504,-488.792 277.173,-491.142 286.715,-495.747 287.504,-488.792"/>
</g>
<!-- Node20 -->
<g id="node46" class="node"><title>Node20</title>
<a xlink:href="a00301.html" target="_top" xlink:title="Base class for resources.">
<polygon fill="none" stroke="red" points="567.5,-282.516 567.5,-303.516 670.5,-303.516 670.5,-282.516 567.5,-282.516"/>
<text text-anchor="middle" x="619" y="-290.516" font-family="FreeSans" font-size="10.00">Urho3D::Resource</text>
</a>
</g>
<!-- Node5&#45;&gt;Node20 -->
<g id="edge56" class="edge"><title>Node5&#45;&gt;Node20</title>
<path fill="none" stroke="midnightblue" d="M287.149,-488.531C364.065,-490.966 498.562,-491.003 538,-464.016 594.931,-425.059 612.966,-334.948 617.609,-303.822"/>
<polygon fill="midnightblue" stroke="midnightblue" points="287.264,-485.033 277.151,-488.19 287.026,-492.028 287.264,-485.033"/>
</g>
<!-- Node6 -->
<g id="node10" class="node"><title>Node6</title>
<a xlink:href="a00184.html" target="_top" xlink:title="Hash map template class.">
<polygon fill="none" stroke="black" points="364,-555.516 364,-576.516 510,-576.516 510,-555.516 364,-555.516"/>
<text text-anchor="middle" x="437" y="-563.516" font-family="FreeSans" font-size="10.00">Urho3D::HashMap&lt; T, U &gt;</text>
</a>
</g>
<!-- Node6&#45;&gt;Node4 -->
<g id="edge10" class="edge"><title>Node6&#45;&gt;Node4</title>
<path fill="none" stroke="#9a32cd" stroke-dasharray="5,2" d="M520.488,-566.016C622.338,-566.016 791.803,-566.016 879.889,-566.016"/>
<polygon fill="#9a32cd" stroke="#9a32cd" points="520.24,-562.516 510.24,-566.016 520.24,-569.516 520.24,-562.516"/>
<text text-anchor="middle" x="619" y="-570.016" font-family="FreeSans" font-size="10.00"> instanceDefaultValues_</text>
</g>
<!-- Node7 -->
<g id="node12" class="node"><title>Node7</title>
<a xlink:href="a00182.html" target="_top" xlink:title="Hash set/map base class.">
<polygon fill="none" stroke="red" points="0,-536.516 0,-557.516 108,-557.516 108,-536.516 0,-536.516"/>
<text text-anchor="middle" x="54" y="-544.516" font-family="FreeSans" font-size="10.00">Urho3D::HashBase</text>
</a>
</g>
<!-- Node7&#45;&gt;Node6 -->
<g id="edge12" class="edge"><title>Node7&#45;&gt;Node6</title>
<path fill="none" stroke="midnightblue" d="M118.192,-550.2C186.035,-553.566 292.847,-558.865 363.889,-562.389"/>
<polygon fill="midnightblue" stroke="midnightblue" points="118.223,-546.698 108.062,-549.698 117.876,-553.689 118.223,-546.698"/>
</g>
<!-- Node9 -->
<g id="node16" class="node"><title>Node9</title>
<a xlink:href="a00184.html" target="_top" xlink:title="Urho3D::HashMap\&lt; StringHash,\l Variant \&gt;">
<polygon fill="none" stroke="black" points="146,-594.016 146,-628.016 318,-628.016 318,-594.016 146,-594.016"/>
<text text-anchor="start" x="154" y="-615.016" font-family="FreeSans" font-size="10.00">Urho3D::HashMap&lt; StringHash,</text>
<text text-anchor="middle" x="232" y="-602.016" font-family="FreeSans" font-size="10.00"> Variant &gt;</text>
</a>
</g>
<!-- Node7&#45;&gt;Node9 -->
<g id="edge18" class="edge"><title>Node7&#45;&gt;Node9</title>
<path fill="none" stroke="midnightblue" d="M84.2861,-562.084C96.9941,-568.093 112.038,-574.806 126,-580.016 139.473,-585.043 154.149,-589.786 168.168,-593.978"/>
<polygon fill="midnightblue" stroke="midnightblue" points="85.6097,-558.837 75.0802,-557.662 82.5787,-565.146 85.6097,-558.837"/>
</g>
<!-- Node10 -->
<g id="node19" class="node"><title>Node10</title>
<a xlink:href="a00184.html" target="_top" xlink:title="Urho3D::HashMap\&lt; Urho3D\l::String, Urho3D::SharedPtr\l\&lt; Urho3D::AttributeAnimationInfo \&gt; \&gt;">
<polygon fill="none" stroke="black" points="336.5,-415.516 336.5,-462.516 537.5,-462.516 537.5,-415.516 336.5,-415.516"/>
<text text-anchor="start" x="344.5" y="-449.516" font-family="FreeSans" font-size="10.00">Urho3D::HashMap&lt; Urho3D</text>
<text text-anchor="start" x="344.5" y="-436.516" font-family="FreeSans" font-size="10.00">::String, Urho3D::SharedPtr</text>
<text text-anchor="middle" x="437" y="-423.516" font-family="FreeSans" font-size="10.00">&lt; Urho3D::AttributeAnimationInfo &gt; &gt;</text>
</a>
</g>
<!-- Node7&#45;&gt;Node10 -->
<g id="edge22" class="edge"><title>Node7&#45;&gt;Node10</title>
<path fill="none" stroke="midnightblue" d="M68.7599,-528.424C85.2919,-509.109 113.999,-479.818 146,-466.016 205.634,-440.295 278.384,-433.545 336.225,-433.225"/>
<polygon fill="midnightblue" stroke="midnightblue" points="65.9474,-526.332 62.2492,-536.261 71.3317,-530.805 65.9474,-526.332"/>
</g>
<!-- Node12 -->
<g id="node24" class="node"><title>Node12</title>
<a xlink:href="a00186.html" target="_top" xlink:title="Urho3D::HashSet\&lt; const\l Urho3D::AttributeInfo * \&gt;">
<polygon fill="none" stroke="black" points="700.5,-468.016 700.5,-502.016 841.5,-502.016 841.5,-468.016 700.5,-468.016"/>
<text text-anchor="start" x="708.5" y="-489.016" font-family="FreeSans" font-size="10.00">Urho3D::HashSet&lt; const</text>
<text text-anchor="middle" x="771" y="-476.016" font-family="FreeSans" font-size="10.00"> Urho3D::AttributeInfo * &gt;</text>
</a>
</g>
<!-- Node7&#45;&gt;Node12 -->
<g id="edge28" class="edge"><title>Node7&#45;&gt;Node12</title>
<path fill="none" stroke="midnightblue" d="M118.307,-541.455C252.433,-529.857 561.11,-503.165 700.461,-491.116"/>
<polygon fill="midnightblue" stroke="midnightblue" points="117.847,-537.982 108.185,-542.33 118.45,-544.956 117.847,-537.982"/>
</g>
<!-- Node8 -->
<g id="node14" class="node"><title>Node8</title>
<a xlink:href="a00242.html" target="_top" xlink:title="Per&#45;object attribute state for network replication, allocated on demand.">
<polygon fill="none" stroke="red" points="556.5,-597.516 556.5,-618.516 681.5,-618.516 681.5,-597.516 556.5,-597.516"/>
<text text-anchor="middle" x="619" y="-605.516" font-family="FreeSans" font-size="10.00">Urho3D::NetworkState</text>
</a>
</g>
<!-- Node8&#45;&gt;Node4 -->
<g id="edge14" class="edge"><title>Node8&#45;&gt;Node4</title>
<path fill="none" stroke="#9a32cd" stroke-dasharray="5,2" d="M691.479,-599.313C735.122,-593.974 791.786,-586.868 842,-580.016 854.223,-578.348 867.318,-576.475 879.759,-574.654"/>
<polygon fill="#9a32cd" stroke="#9a32cd" points="691.029,-595.842 681.527,-600.528 691.877,-602.791 691.029,-595.842"/>
<text text-anchor="middle" x="771" y="-601.016" font-family="FreeSans" font-size="10.00"> networkState_</text>
</g>
<!-- Node9&#45;&gt;Node2 -->
<g id="edge38" class="edge"><title>Node9&#45;&gt;Node2</title>
<path fill="none" stroke="#9a32cd" stroke-dasharray="5,2" d="M328.266,-626.339C330.869,-626.588 333.45,-626.815 336,-627.016 433.477,-634.693 458.221,-627.794 556,-628.016 612,-628.143 626.053,-630.459 682,-628.016 878.744,-619.425 929.572,-611.206 1120,-561.016 1216.7,-535.53 1245.81,-541.202 1336,-498.016 1382.93,-475.546 1390.85,-462.852 1432,-431.016 1455.62,-412.744 1481.81,-389.683 1496.45,-376.516"/>
<polygon fill="#9a32cd" stroke="#9a32cd" points="328.457,-622.84 318.146,-625.274 327.724,-629.802 328.457,-622.84"/>
<text text-anchor="middle" x="937" y="-619.016" font-family="FreeSans" font-size="10.00"> vars_</text>
</g>
<!-- Node9&#45;&gt;Node8 -->
<g id="edge16" class="edge"><title>Node9&#45;&gt;Node8</title>
<path fill="none" stroke="#9a32cd" stroke-dasharray="5,2" d="M328.703,-610.266C399.954,-609.714 494.79,-608.979 556.361,-608.501"/>
<polygon fill="#9a32cd" stroke="#9a32cd" points="328.341,-606.769 318.369,-610.346 328.396,-613.769 328.341,-606.769"/>
<text text-anchor="middle" x="437" y="-614.016" font-family="FreeSans" font-size="10.00"> previousVars_</text>
</g>
<!-- Node10&#45;&gt;Node3 -->
<g id="edge20" class="edge"><title>Node10&#45;&gt;Node3</title>
<path fill="none" stroke="#9a32cd" stroke-dasharray="5,2" d="M547.565,-423.403C630.721,-415.798 746.307,-414.157 842,-446.016 851.363,-449.133 850.69,-455.744 860,-459.016 968.045,-496.983 1104.25,-491.969 1179.83,-484.962"/>
<polygon fill="#9a32cd" stroke="#9a32cd" points="547.21,-419.921 537.589,-424.358 547.877,-426.889 547.21,-419.921"/>
<text text-anchor="middle" x="771" y="-450.016" font-family="FreeSans" font-size="10.00"> attributeAnimationInfos_</text>
</g>
<!-- Node11 -->
<g id="node22" class="node"><title>Node11</title>
<a xlink:href="a00331.html" target="_top" xlink:title="Urho3D::SharedPtr\&lt;\l Urho3D::ObjectAnimation \&gt;">
<polygon fill="none" stroke="red" points="860.5,-416.016 860.5,-450.016 1013.5,-450.016 1013.5,-416.016 860.5,-416.016"/>
<text text-anchor="start" x="868.5" y="-437.016" font-family="FreeSans" font-size="10.00">Urho3D::SharedPtr&lt;</text>
<text text-anchor="middle" x="937" y="-424.016" font-family="FreeSans" font-size="10.00"> Urho3D::ObjectAnimation &gt;</text>
</a>
</g>
<!-- Node11&#45;&gt;Node3 -->
<g id="edge24" class="edge"><title>Node11&#45;&gt;Node3</title>
<path fill="none" stroke="#9a32cd" stroke-dasharray="5,2" d="M1024.03,-439.27C1054.5,-442.069 1088.87,-445.914 1120,-451.016 1145.92,-455.263 1174.67,-461.87 1197.18,-467.485"/>
<polygon fill="#9a32cd" stroke="#9a32cd" points="1024.13,-435.765 1013.86,-438.361 1023.51,-442.737 1024.13,-435.765"/>
<text text-anchor="middle" x="1076" y="-455.016" font-family="FreeSans" font-size="10.00"> objectAnimation_</text>
</g>
<!-- Node12&#45;&gt;Node3 -->
<g id="edge26" class="edge"><title>Node12&#45;&gt;Node3</title>
<path fill="none" stroke="#9a32cd" stroke-dasharray="5,2" d="M851.886,-491.652C854.623,-491.789 857.333,-491.911 860,-492.016 975.467,-496.55 1004.65,-498.893 1120,-492.016 1139.6,-490.847 1160.96,-488.586 1179.99,-486.217"/>
<polygon fill="#9a32cd" stroke="#9a32cd" points="852.075,-488.157 841.896,-491.096 851.686,-495.146 852.075,-488.157"/>
<text text-anchor="middle" x="937" y="-500.016" font-family="FreeSans" font-size="10.00"> animatedNetworkAttributes_</text>
</g>
<!-- Node13 -->
<g id="node27" class="node"><title>Node13</title>
<a xlink:href="a00196.html" target="_top" xlink:title="Two&#45;dimensional bounding rectangle with integer values.">
<polygon fill="none" stroke="black" points="1191,-714.516 1191,-735.516 1283,-735.516 1283,-714.516 1191,-714.516"/>
<text text-anchor="middle" x="1237" y="-722.516" font-family="FreeSans" font-size="10.00">Urho3D::IntRect</text>
</a>
</g>
<!-- Node13&#45;&gt;Node1 -->
<g id="edge68" class="edge"><title>Node13&#45;&gt;Node1</title>
<path fill="none" stroke="#9a32cd" stroke-dasharray="5,2" d="M1290.31,-737.213C1331.93,-743.708 1389.63,-745.781 1432,-720.016 1626.39,-601.805 1693.46,-293.217 1705.08,-231.754"/>
<polygon fill="#9a32cd" stroke="#9a32cd" points="1290.8,-733.746 1280.35,-735.529 1289.63,-740.648 1290.8,-733.746"/>
<text text-anchor="middle" x="1508" y="-736.016" font-family="FreeSans" font-size="10.00"> imageRect_</text>
<text text-anchor="middle" x="1508" y="-723.016" font-family="FreeSans" font-size="10.00">border_</text>
<text text-anchor="middle" x="1508" y="-710.016" font-family="FreeSans" font-size="10.00">imageBorder_</text>
</g>
<!-- Node13&#45;&gt;Node2 -->
<g id="edge30" class="edge"><title>Node13&#45;&gt;Node2</title>
<path fill="none" stroke="#9a32cd" stroke-dasharray="5,2" d="M1286.13,-711.804C1343.03,-696.408 1429.38,-672.717 1432,-670.016 1474.53,-626.194 1500.91,-425.441 1506.76,-376.701"/>
<polygon fill="#9a32cd" stroke="#9a32cd" points="1284.97,-708.493 1276.23,-714.481 1286.79,-715.251 1284.97,-708.493"/>
<text text-anchor="middle" x="1393" y="-709.016" font-family="FreeSans" font-size="10.00"> clipBorder_</text>
<text text-anchor="middle" x="1393" y="-696.016" font-family="FreeSans" font-size="10.00">layoutBorder_</text>
</g>
<!-- Node13&#45;&gt;Node13 -->
<g id="edge32" class="edge"><title>Node13&#45;&gt;Node13</title>
<path fill="none" stroke="#9a32cd" stroke-dasharray="5,2" d="M1208.1,-745.071C1209.99,-750.18 1219.63,-754.016 1237,-754.016 1264.12,-754.016 1272.38,-744.669 1261.79,-735.724"/>
<polygon fill="#9a32cd" stroke="#9a32cd" points="1211.39,-746.286 1212.21,-735.724 1204.98,-743.466 1211.39,-746.286"/>
<text text-anchor="middle" x="1237" y="-758.016" font-family="FreeSans" font-size="10.00"> ZERO</text>
</g>
<!-- Node14 -->
<g id="node30" class="node"><title>Node14</title>
<a xlink:href="a00388.html" target="_top" xlink:title="Urho3D::Vector\&lt; Urho3D\l::SharedPtr\&lt; Urho3D::UIElement \&gt; \&gt;">
<polygon fill="none" stroke="black" points="1138.5,-652.016 1138.5,-686.016 1335.5,-686.016 1335.5,-652.016 1138.5,-652.016"/>
<text text-anchor="start" x="1146.5" y="-673.016" font-family="FreeSans" font-size="10.00">Urho3D::Vector&lt; Urho3D</text>
<text text-anchor="middle" x="1237" y="-660.016" font-family="FreeSans" font-size="10.00">::SharedPtr&lt; Urho3D::UIElement &gt; &gt;</text>
</a>
</g>
<!-- Node14&#45;&gt;Node2 -->
<g id="edge34" class="edge"><title>Node14&#45;&gt;Node2</title>
<path fill="none" stroke="#9a32cd" stroke-dasharray="5,2" d="M1345.64,-655.004C1386.47,-648.807 1424.84,-641.476 1432,-635.016 1472.09,-598.85 1499.9,-422.347 1506.5,-376.772"/>
<polygon fill="#9a32cd" stroke="#9a32cd" points="1344.88,-651.578 1335.5,-656.512 1345.91,-658.502 1344.88,-651.578"/>
<text text-anchor="middle" x="1393" y="-657.016" font-family="FreeSans" font-size="10.00"> children_</text>
</g>
<!-- Node15 -->
<g id="node32" class="node"><title>Node15</title>
<a xlink:href="a00392.html" target="_top" xlink:title="Vector base class.">
<polygon fill="none" stroke="black" points="880,-658.516 880,-679.516 994,-679.516 994,-658.516 880,-658.516"/>
<text text-anchor="middle" x="937" y="-666.516" font-family="FreeSans" font-size="10.00">Urho3D::VectorBase</text>
</a>
</g>
<!-- Node15&#45;&gt;Node14 -->
<g id="edge36" class="edge"><title>Node15&#45;&gt;Node14</title>
<path fill="none" stroke="midnightblue" d="M1004.19,-669.016C1043.73,-669.016 1094.45,-669.016 1138.44,-669.016"/>
<polygon fill="midnightblue" stroke="midnightblue" points="1004.13,-665.516 994.134,-669.016 1004.13,-672.516 1004.13,-665.516"/>
</g>
<!-- Node16 -->
<g id="node36" class="node"><title>Node16</title>
<a xlink:href="a00354.html" target="_top" xlink:title="String class.">
<polygon fill="none" stroke="black" points="188,-323.516 188,-344.516 276,-344.516 276,-323.516 188,-323.516"/>
<text text-anchor="middle" x="232" y="-331.516" font-family="FreeSans" font-size="10.00">Urho3D::String</text>
</a>
</g>
<!-- Node16&#45;&gt;Node2 -->
<g id="edge42" class="edge"><title>Node16&#45;&gt;Node2</title>
<path fill="none" stroke="#9a32cd" stroke-dasharray="5,2" d="M286.351,-334.653C413.584,-336.218 740.708,-340.667 1014,-348.016 1173.57,-352.307 1362.04,-359.865 1453.18,-363.677"/>
<polygon fill="#9a32cd" stroke="#9a32cd" points="286.142,-331.15 276.1,-334.528 286.056,-338.15 286.142,-331.15"/>
<text text-anchor="middle" x="937" y="-365.016" font-family="FreeSans" font-size="10.00"> appliedStyle_</text>
<text text-anchor="middle" x="937" y="-352.016" font-family="FreeSans" font-size="10.00">name_</text>
</g>
<!-- Node16&#45;&gt;Node16 -->
<g id="edge44" class="edge"><title>Node16&#45;&gt;Node16</title>
<path fill="none" stroke="#9a32cd" stroke-dasharray="5,2" d="M212.834,-354.443C214.312,-359.365 220.701,-363.016 232,-363.016 250.078,-363.016 255.586,-353.669 248.525,-344.724"/>
<polygon fill="#9a32cd" stroke="#9a32cd" points="216.23,-355.292 215.475,-344.724 209.475,-353.456 216.23,-355.292"/>
<text text-anchor="middle" x="232" y="-367.016" font-family="FreeSans" font-size="10.00"> EMPTY</text>
</g>
<!-- Node17 -->
<g id="node39" class="node"><title>Node17</title>
<a xlink:href="a00409.html" target="_top" xlink:title="XPath query.">
<polygon fill="none" stroke="black" points="713.5,-373.516 713.5,-394.516 828.5,-394.516 828.5,-373.516 713.5,-373.516"/>
<text text-anchor="middle" x="771" y="-381.516" font-family="FreeSans" font-size="10.00">Urho3D::XPathQuery</text>
</a>
</g>
<!-- Node16&#45;&gt;Node17 -->
<g id="edge48" class="edge"><title>Node16&#45;&gt;Node17</title>
<path fill="none" stroke="#9a32cd" stroke-dasharray="5,2" d="M286.449,-341.881C302.397,-344.039 319.88,-346.265 336,-348.016 470.851,-362.663 629.796,-374.428 713.211,-380.18"/>
<polygon fill="#9a32cd" stroke="#9a32cd" points="286.603,-338.369 276.22,-340.477 285.651,-345.304 286.603,-338.369"/>
<text text-anchor="middle" x="437" y="-370.016" font-family="FreeSans" font-size="10.00"> queryString_</text>
</g>
<!-- Node16&#45;&gt;Node20 -->
<g id="edge58" class="edge"><title>Node16&#45;&gt;Node20</title>
<path fill="none" stroke="#9a32cd" stroke-dasharray="5,2" d="M275.005,-320.741C293.584,-315.558 315.68,-310.123 336,-307.016 416.113,-294.767 510.32,-292.486 567.3,-292.415"/>
<polygon fill="#9a32cd" stroke="#9a32cd" points="274.014,-317.384 265.36,-323.496 275.937,-324.115 274.014,-317.384"/>
<text text-anchor="middle" x="437" y="-311.016" font-family="FreeSans" font-size="10.00"> name_</text>
</g>
<!-- Node17&#45;&gt;Node2 -->
<g id="edge46" class="edge"><title>Node17&#45;&gt;Node2</title>
<path fill="none" stroke="#9a32cd" stroke-dasharray="5,2" d="M838.611,-382.365C983.407,-378.828 1321.04,-370.582 1453.39,-367.35"/>
<polygon fill="#9a32cd" stroke="#9a32cd" points="838.436,-378.868 828.524,-382.611 838.607,-385.866 838.436,-378.868"/>
<text text-anchor="middle" x="1076" y="-381.016" font-family="FreeSans" font-size="10.00"> styleXPathQuery_</text>
</g>
<!-- Node18 -->
<g id="node42" class="node"><title>Node18</title>
<a xlink:href="a00331.html" target="_top" xlink:title="Urho3D::SharedPtr\&lt;\l Urho3D::XMLFile \&gt;">
<polygon fill="none" stroke="black" points="1179,-277.016 1179,-311.016 1295,-311.016 1295,-277.016 1179,-277.016"/>
<text text-anchor="start" x="1187" y="-298.016" font-family="FreeSans" font-size="10.00">Urho3D::SharedPtr&lt;</text>
<text text-anchor="middle" x="1237" y="-285.016" font-family="FreeSans" font-size="10.00"> Urho3D::XMLFile &gt;</text>
</a>
</g>
<!-- Node18&#45;&gt;Node2 -->
<g id="edge50" class="edge"><title>Node18&#45;&gt;Node2</title>
<path fill="none" stroke="#9a32cd" stroke-dasharray="5,2" d="M1305.09,-291.698C1343.45,-292.488 1391.62,-297.05 1432,-312.016 1458.1,-321.69 1483.44,-342.741 1497.25,-355.514"/>
<polygon fill="#9a32cd" stroke="#9a32cd" points="1305.1,-288.198 1295.06,-291.572 1305.01,-295.197 1305.1,-288.198"/>
<text text-anchor="middle" x="1393" y="-316.016" font-family="FreeSans" font-size="10.00"> defaultStyle_</text>
</g>
<!-- Node19 -->
<g id="node44" class="node"><title>Node19</title>
<a xlink:href="a00408.html" target="_top" xlink:title="XML document resource.">
<polygon fill="none" stroke="black" points="890,-276.516 890,-297.516 984,-297.516 984,-276.516 890,-276.516"/>
<text text-anchor="middle" x="937" y="-284.516" font-family="FreeSans" font-size="10.00">Urho3D::XMLFile</text>
</a>
</g>
<!-- Node19&#45;&gt;Node18 -->
<g id="edge52" class="edge"><title>Node19&#45;&gt;Node18</title>
<path fill="none" stroke="#9a32cd" stroke-dasharray="5,2" d="M994.441,-288.356C1047.38,-289.591 1125.57,-291.416 1178.76,-292.657"/>
<polygon fill="#9a32cd" stroke="#9a32cd" points="994.284,-284.852 984.205,-288.117 994.121,-291.85 994.284,-284.852"/>
<text text-anchor="middle" x="1076" y="-295.016" font-family="FreeSans" font-size="10.00"> ptr_</text>
</g>
<!-- Node20&#45;&gt;Node19 -->
<g id="edge54" class="edge"><title>Node20&#45;&gt;Node19</title>
<path fill="none" stroke="midnightblue" d="M681.099,-291.844C742.306,-290.689 834.481,-288.95 889.892,-287.905"/>
<polygon fill="midnightblue" stroke="midnightblue" points="680.732,-288.35 670.8,-292.039 680.864,-295.349 680.732,-288.35"/>
</g>
<!-- Node24 -->
<g id="node59" class="node"><title>Node24</title>
<a xlink:href="a00362.html" target="_top" xlink:title="Base class for texture resources.">
<polygon fill="none" stroke="black" points="1190,-35.5159 1190,-56.5159 1284,-56.5159 1284,-35.5159 1190,-35.5159"/>
<text text-anchor="middle" x="1237" y="-43.5159" font-family="FreeSans" font-size="10.00">Urho3D::Texture</text>
</a>
</g>
<!-- Node20&#45;&gt;Node24 -->
<g id="edge74" class="edge"><title>Node20&#45;&gt;Node24</title>
<path fill="none" stroke="midnightblue" d="M629.065,-273.299C657.09,-220.891 741.798,-78.5564 860,-26.0159 978.888,26.8293 1140.07,-14.3014 1206.48,-35.4442"/>
<polygon fill="midnightblue" stroke="midnightblue" points="625.909,-271.782 624.359,-282.263 632.106,-275.036 625.909,-271.782"/>
</g>
<!-- Node21 -->
<g id="node50" class="node"><title>Node21</title>
<a xlink:href="a00197.html" target="_top" xlink:title="Two&#45;dimensional vector with integer values.">
<polygon fill="none" stroke="black" points="1183,-126.516 1183,-147.516 1291,-147.516 1291,-126.516 1183,-126.516"/>
<text text-anchor="middle" x="1237" y="-134.516" font-family="FreeSans" font-size="10.00">Urho3D::IntVector2</text>
</a>
</g>
<!-- Node21&#45;&gt;Node1 -->
<g id="edge82" class="edge"><title>Node21&#45;&gt;Node1</title>
<path fill="none" stroke="#9a32cd" stroke-dasharray="5,2" d="M1301.59,-135.714C1318.63,-135.425 1337.01,-135.161 1354,-135.016 1388.67,-134.72 1397.73,-129.782 1432,-135.016 1527.19,-149.553 1634.72,-190.855 1682.2,-210.45"/>
<polygon fill="#9a32cd" stroke="#9a32cd" points="1301.11,-132.222 1291.17,-135.897 1301.23,-139.221 1301.11,-132.222"/>
<text text-anchor="middle" x="1508" y="-172.016" font-family="FreeSans" font-size="10.00"> hoverOffset_</text>
</g>
<!-- Node21&#45;&gt;Node2 -->
<g id="edge60" class="edge"><title>Node21&#45;&gt;Node2</title>
<path fill="none" stroke="#9a32cd" stroke-dasharray="5,2" d="M1301.24,-135.703C1350.06,-136.01 1412.11,-139.622 1432,-155.016 1465.64,-181.048 1497.22,-316.354 1505.75,-355.435"/>
<polygon fill="#9a32cd" stroke="#9a32cd" points="1301.04,-132.203 1291.04,-135.685 1301.03,-139.203 1301.04,-132.203"/>
<text text-anchor="middle" x="1393" y="-237.016" font-family="FreeSans" font-size="10.00"> maxSize_</text>
<text text-anchor="middle" x="1393" y="-224.016" font-family="FreeSans" font-size="10.00">childOffset_</text>
<text text-anchor="middle" x="1393" y="-211.016" font-family="FreeSans" font-size="10.00">size_</text>
<text text-anchor="middle" x="1393" y="-198.016" font-family="FreeSans" font-size="10.00">position_</text>
<text text-anchor="start" x="1358" y="-185.016" font-family="FreeSans" font-size="10.00">screenPosition</text>
<text text-anchor="middle" x="1393" y="-172.016" font-family="FreeSans" font-size="10.00">_</text>
<text text-anchor="middle" x="1393" y="-159.016" font-family="FreeSans" font-size="10.00">minSize_</text>
</g>
<!-- Node21&#45;&gt;Node21 -->
<g id="edge62" class="edge"><title>Node21&#45;&gt;Node21</title>
<path fill="none" stroke="#9a32cd" stroke-dasharray="5,2" d="M1208.1,-157.071C1209.99,-162.18 1219.63,-166.016 1237,-166.016 1264.12,-166.016 1272.38,-156.669 1261.79,-147.724"/>
<polygon fill="#9a32cd" stroke="#9a32cd" points="1211.39,-158.286 1212.21,-147.724 1204.98,-155.466 1211.39,-158.286"/>
<text text-anchor="middle" x="1237" y="-170.016" font-family="FreeSans" font-size="10.00"> ZERO</text>
</g>
<!-- Node22 -->
<g id="node53" class="node"><title>Node22</title>
<a xlink:href="a00104.html" target="_top" xlink:title="RGBA color.">
<polygon fill="none" stroke="black" points="895,-75.5159 895,-96.5159 979,-96.5159 979,-75.5159 895,-75.5159"/>
<text text-anchor="middle" x="937" y="-83.5159" font-family="FreeSans" font-size="10.00">Urho3D::Color</text>
</a>
</g>
<!-- Node22&#45;&gt;Node2 -->
<g id="edge64" class="edge"><title>Node22&#45;&gt;Node2</title>
<path fill="none" stroke="#9a32cd" stroke-dasharray="5,2" d="M963.557,-101.704C1001.28,-123.471 1073.04,-162.973 1138,-188.016 1267.19,-237.815 1319.75,-209.967 1432,-291.016 1459.05,-310.549 1485.64,-339.692 1499.04,-355.275"/>
<polygon fill="#9a32cd" stroke="#9a32cd" points="965.129,-98.5695 954.724,-96.572 961.612,-104.622 965.129,-98.5695"/>
<text text-anchor="middle" x="1237" y="-256.016" font-family="FreeSans" font-size="10.00"> derivedColor_</text>
<text text-anchor="middle" x="1237" y="-243.016" font-family="FreeSans" font-size="10.00">color_</text>
</g>
<!-- Node22&#45;&gt;Node22 -->
<g id="edge66" class="edge"><title>Node22&#45;&gt;Node22</title>
<path fill="none" stroke="#9a32cd" stroke-dasharray="5,2" d="M911.433,-106.071C913.11,-111.18 921.633,-115.016 937,-115.016 960.988,-115.016 968.297,-105.669 958.927,-96.7238"/>
<polygon fill="#9a32cd" stroke="#9a32cd" points="914.706,-107.312 915.073,-96.7238 908.183,-104.772 914.706,-107.312"/>
<text text-anchor="middle" x="937" y="-249.016" font-family="FreeSans" font-size="10.00"> CYAN</text>
<text text-anchor="middle" x="937" y="-236.016" font-family="FreeSans" font-size="10.00">GRAY</text>
<text text-anchor="middle" x="937" y="-223.016" font-family="FreeSans" font-size="10.00">YELLOW</text>
<text text-anchor="middle" x="937" y="-210.016" font-family="FreeSans" font-size="10.00">MAGENTA</text>
<text text-anchor="middle" x="937" y="-197.016" font-family="FreeSans" font-size="10.00">WHITE</text>
<text text-anchor="middle" x="937" y="-184.016" font-family="FreeSans" font-size="10.00">TRANSPARENT</text>
<text text-anchor="middle" x="937" y="-171.016" font-family="FreeSans" font-size="10.00">BLUE</text>
<text text-anchor="middle" x="937" y="-158.016" font-family="FreeSans" font-size="10.00">BLACK</text>
<text text-anchor="middle" x="937" y="-145.016" font-family="FreeSans" font-size="10.00">RED</text>
<text text-anchor="middle" x="937" y="-132.016" font-family="FreeSans" font-size="10.00">GREEN</text>
<text text-anchor="middle" x="937" y="-119.016" font-family="FreeSans" font-size="10.00">...</text>
</g>
<!-- Node22&#45;&gt;Node24 -->
<g id="edge80" class="edge"><title>Node22&#45;&gt;Node24</title>
<path fill="none" stroke="#9a32cd" stroke-dasharray="5,2" d="M989.196,-79.0564C1045.78,-71.512 1135.28,-59.5785 1189.82,-52.3065"/>
<polygon fill="#9a32cd" stroke="#9a32cd" points="988.479,-75.6209 979.03,-80.412 989.404,-82.5595 988.479,-75.6209"/>
<text text-anchor="middle" x="1076" y="-78.0159" font-family="FreeSans" font-size="10.00"> borderColor_</text>
</g>
<!-- Node23 -->
<g id="node57" class="node"><title>Node23</title>
<a xlink:href="a00331.html" target="_top" xlink:title="Urho3D::SharedPtr\&lt;\l Urho3D::Texture \&gt;">
<polygon fill="none" stroke="black" points="1450,-51.0159 1450,-85.0159 1566,-85.0159 1566,-51.0159 1450,-51.0159"/>
<text text-anchor="start" x="1458" y="-72.0159" font-family="FreeSans" font-size="10.00">Urho3D::SharedPtr&lt;</text>
<text text-anchor="middle" x="1508" y="-59.0159" font-family="FreeSans" font-size="10.00"> Urho3D::Texture &gt;</text>
</a>
</g>
<!-- Node23&#45;&gt;Node1 -->
<g id="edge70" class="edge"><title>Node23&#45;&gt;Node1</title>
<path fill="none" stroke="#9a32cd" stroke-dasharray="5,2" d="M1576.08,-73.0942C1594.17,-76.9226 1612.86,-83.3449 1628,-94.0159 1670.88,-124.229 1695.28,-185.835 1703.66,-210.48"/>
<polygon fill="#9a32cd" stroke="#9a32cd" points="1576.6,-69.63 1566.12,-71.2237 1575.3,-76.5097 1576.6,-69.63"/>
<text text-anchor="middle" x="1606" y="-98.0159" font-family="FreeSans" font-size="10.00"> texture_</text>
</g>
<!-- Node23&#45;&gt;Node24 -->
<g id="edge78" class="edge"><title>Node23&#45;&gt;Node24</title>
<path fill="none" stroke="#9a32cd" stroke-dasharray="5,2" d="M1439.43,-62.4495C1390.91,-58.5107 1327.1,-53.3305 1284.2,-49.848"/>
<polygon fill="#9a32cd" stroke="#9a32cd" points="1439.29,-65.9494 1449.54,-63.2702 1439.86,-58.9724 1439.29,-65.9494"/>
<text text-anchor="middle" x="1393" y="-66.0159" font-family="FreeSans" font-size="10.00"> backupTexture_</text>
</g>
<!-- Node24&#45;&gt;Node23 -->
<g id="edge72" class="edge"><title>Node24&#45;&gt;Node23</title>
<path fill="none" stroke="#9a32cd" stroke-dasharray="5,2" d="M1294.47,-36.8375C1333.58,-32.2524 1386.32,-29.3263 1432,-38.0159 1445.8,-40.6403 1460.29,-45.7214 1472.87,-50.9666"/>
<polygon fill="#9a32cd" stroke="#9a32cd" points="1293.82,-33.3914 1284.33,-38.0994 1294.68,-40.3379 1293.82,-33.3914"/>
<text text-anchor="middle" x="1393" y="-42.0159" font-family="FreeSans" font-size="10.00"> ptr_</text>
</g>
<!-- Node25 -->
<g id="node62" class="node"><title>Node25</title>
<a xlink:href="a00179.html" target="_top" xlink:title="Base class for GPU resources.">
<polygon fill="none" stroke="red" points="881.5,-35.5159 881.5,-56.5159 992.5,-56.5159 992.5,-35.5159 881.5,-35.5159"/>
<text text-anchor="middle" x="937" y="-43.5159" font-family="FreeSans" font-size="10.00">Urho3D::GPUObject</text>
</a>
</g>
<!-- Node25&#45;&gt;Node24 -->
<g id="edge76" class="edge"><title>Node25&#45;&gt;Node24</title>
<path fill="none" stroke="midnightblue" d="M1003,-46.0159C1059.58,-46.0159 1139.68,-46.0159 1189.96,-46.0159"/>
<polygon fill="midnightblue" stroke="midnightblue" points="1002.72,-42.516 992.725,-46.0159 1002.72,-49.516 1002.72,-42.516"/>
</g>
</g>
</svg>
