<?xml version="1.0" encoding="UTF-8" standalone="no"?>
<!DOCTYPE svg PUBLIC "-//W3C//DTD SVG 1.1//EN"
 "http://www.w3.org/Graphics/SVG/1.1/DTD/svg11.dtd">
<!-- Generated by graphviz version 2.26.3 (20100126.1600)
 -->
<!-- Title: Urho3D::Constraint2D Pages: 1 -->
<!--zoomable 721 -->
<svg id="main" version="1.1" xmlns="http://www.w3.org/2000/svg" xmlns:xlink="http://www.w3.org/1999/xlink" xml:space="preserve" onload="init(evt)">
        <defs>
                <circle id="rim" cx="0" cy="0" r="7"/>
                <circle id="rim2" cx="0" cy="0" r="3.5"/>
                <g id="zoomPlus">
                        <use xlink:href="#rim" fill="#404040">
                                <set attributeName="fill" to="#808080" begin="zoomplus.mouseover" end="zoomplus.mouseout"/>
                        </use>
                        <path d="M-4,0h8M0,-4v8" fill="none" stroke="white" stroke-width="1.5" pointer-events="none"/>
                </g>
                <g id="zoomMin">
                        <use xlink:href="#rim" fill="#404040">
                                <set attributeName="fill" to="#808080" begin="zoomminus.mouseover" end="zoomminus.mouseout"/>
                        </use>
                        <path d="M-4,0h8" fill="none" stroke="white" stroke-width="1.5" pointer-events="none"/>
                </g>
                <g id="dirArrow">
                        <path fill="none" stroke="white" stroke-width="1.5" d="M0,-3.0v7 M-2.5,-0.5L0,-3.0L2.5,-0.5"/>
                </g>
               <g id="resetDef">
                       <use xlink:href="#rim2" fill="#404040">
                               <set attributeName="fill" to="#808080" begin="reset.mouseover" end="reset.mouseout"/>
                       </use>
               </g>
        </defs>

<script type="text/javascript">
var viewWidth = 2578;
var viewHeight = 721;
var sectionId = 'dynsection-1';
</script>
<script xlink:href="svgpan.js"/>
<svg id="graph" class="graph">
<g id="viewport">
<title>Urho3D::Constraint2D</title>
<!-- Node1 -->
<g id="node1" class="node"><title>Node1</title>
<polygon fill="#bfbfbf" stroke="black" points="2164,-551.5 2164,-572.5 2286,-572.5 2286,-551.5 2164,-551.5"/>
<text text-anchor="middle" x="2225" y="-559.5" font-family="FreeSans" font-size="10.00">Urho3D::Constraint2D</text>
</g>
<!-- Node25 -->
<g id="node67" class="node"><title>Node25</title>
<a xlink:href="a00372.html" target="_top" xlink:title="Urho3D::WeakPtr\&lt; Urho3D\l::Constraint2D \&gt;">
<polygon fill="none" stroke="black" points="2424,-509 2424,-543 2570,-543 2570,-509 2424,-509"/>
<text text-anchor="start" x="2432" y="-530" font-family="FreeSans" font-size="10.00">Urho3D::WeakPtr&lt; Urho3D</text>
<text text-anchor="middle" x="2497" y="-517" font-family="FreeSans" font-size="10.00">::Constraint2D &gt;</text>
</a>
</g>
<!-- Node1&#45;&gt;Node25 -->
<g id="edge88" class="edge"><title>Node1&#45;&gt;Node25</title>
<path fill="none" stroke="#9a32cd" stroke-dasharray="5,2" d="M2249.5,-546.245C2264.56,-537.508 2284.63,-527.52 2304,-523 2342.83,-513.936 2387.27,-513.947 2423.7,-516.555"/>
<polygon fill="#9a32cd" stroke="#9a32cd" points="2247.58,-543.311 2240.81,-551.462 2251.19,-549.311 2247.58,-543.311"/>
<text text-anchor="middle" x="2355" y="-527" font-family="FreeSans" font-size="10.00"> ptr_</text>
</g>
<!-- Node2 -->
<g id="node2" class="node"><title>Node2</title>
<a xlink:href="a00101.html" target="_top" xlink:title="Base class for components. Components can be created to scene nodes.">
<polygon fill="none" stroke="black" points="1072,-551.5 1072,-572.5 1188,-572.5 1188,-551.5 1072,-551.5"/>
<text text-anchor="middle" x="1130" y="-559.5" font-family="FreeSans" font-size="10.00">Urho3D::Component</text>
</a>
</g>
<!-- Node2&#45;&gt;Node1 -->
<g id="edge2" class="edge"><title>Node2&#45;&gt;Node1</title>
<path fill="none" stroke="midnightblue" d="M1158.01,-577.375C1189.77,-593.337 1243.56,-616 1293,-616 1293,-616 1293,-616 1997,-616 2071.64,-616 2156.43,-588.255 2198.46,-572.54"/>
<polygon fill="midnightblue" stroke="midnightblue" points="1159.39,-574.145 1148.9,-572.669 1156.18,-580.365 1159.39,-574.145"/>
</g>
<!-- Node21 -->
<g id="node55" class="node"><title>Node21</title>
<a xlink:href="a00288.html" target="_top" xlink:title="2D rigid body component.">
<polygon fill="none" stroke="red" points="1698.5,-511.5 1698.5,-532.5 1817.5,-532.5 1817.5,-511.5 1698.5,-511.5"/>
<text text-anchor="middle" x="1758" y="-519.5" font-family="FreeSans" font-size="10.00">Urho3D::RigidBody2D</text>
</a>
</g>
<!-- Node2&#45;&gt;Node21 -->
<g id="edge72" class="edge"><title>Node2&#45;&gt;Node21</title>
<path fill="none" stroke="midnightblue" d="M1182.71,-549.361C1196.7,-546.462 1211.86,-543.727 1226,-542 1396.42,-521.194 1599.61,-520.052 1698.3,-520.991"/>
<polygon fill="midnightblue" stroke="midnightblue" points="1181.8,-545.976 1172.75,-551.49 1183.27,-552.821 1181.8,-545.976"/>
</g>
<!-- Node23 -->
<g id="node60" class="node"><title>Node23</title>
<a xlink:href="a00258.html" target="_top" xlink:title="2D physics simulation world component. Should be added only to the root scene node.">
<polygon fill="none" stroke="red" points="1226,-551.5 1226,-572.5 1360,-572.5 1360,-551.5 1226,-551.5"/>
<text text-anchor="middle" x="1293" y="-559.5" font-family="FreeSans" font-size="10.00">Urho3D::PhysicsWorld2D</text>
</a>
</g>
<!-- Node2&#45;&gt;Node23 -->
<g id="edge78" class="edge"><title>Node2&#45;&gt;Node23</title>
<path fill="none" stroke="midnightblue" d="M1198.5,-562C1207.55,-562 1216.83,-562 1225.87,-562"/>
<polygon fill="midnightblue" stroke="midnightblue" points="1198.39,-558.5 1188.39,-562 1198.39,-565.5 1198.39,-558.5"/>
</g>
<!-- Node3 -->
<g id="node4" class="node"><title>Node3</title>
<a xlink:href="a00301.html" target="_top" xlink:title="Base class for objects with automatic serialization through attributes.">
<polygon fill="none" stroke="black" points="619,-657.5 619,-678.5 733,-678.5 733,-657.5 619,-657.5"/>
<text text-anchor="middle" x="676" y="-665.5" font-family="FreeSans" font-size="10.00">Urho3D::Serializable</text>
</a>
</g>
<!-- Node3&#45;&gt;Node2 -->
<g id="edge4" class="edge"><title>Node3&#45;&gt;Node2</title>
<path fill="none" stroke="midnightblue" d="M743.304,-668.981C786.775,-668.32 844.294,-665.007 894,-654 976.865,-635.651 1068.92,-592.678 1109.21,-572.639"/>
<polygon fill="midnightblue" stroke="midnightblue" points="743.092,-665.483 733.131,-669.092 743.168,-672.483 743.092,-665.483"/>
</g>
<!-- Node8 -->
<g id="node14" class="node"><title>Node8</title>
<a xlink:href="a00228.html" target="_top" xlink:title="Scene node that may contain components and child nodes.">
<polygon fill="none" stroke="red" points="912.5,-364.5 912.5,-385.5 997.5,-385.5 997.5,-364.5 912.5,-364.5"/>
<text text-anchor="middle" x="955" y="-372.5" font-family="FreeSans" font-size="10.00">Urho3D::Node</text>
</a>
</g>
<!-- Node3&#45;&gt;Node8 -->
<g id="edge16" class="edge"><title>Node3&#45;&gt;Node8</title>
<path fill="none" stroke="midnightblue" d="M743.379,-663.255C799.189,-657.934 872.674,-647.254 894,-627 930.149,-592.67 949.41,-429.092 953.945,-385.626"/>
<polygon fill="midnightblue" stroke="midnightblue" points="742.821,-659.792 733.181,-664.187 743.458,-666.763 742.821,-659.792"/>
</g>
<!-- Node4 -->
<g id="node6" class="node"><title>Node4</title>
<a xlink:href="a00233.html" target="_top" xlink:title="Base class for objects with type identification, subsystem access and event sending/receiving capabil...">
<polygon fill="none" stroke="red" points="304,-608.5 304,-629.5 394,-629.5 394,-608.5 304,-608.5"/>
<text text-anchor="middle" x="349" y="-616.5" font-family="FreeSans" font-size="10.00">Urho3D::Object</text>
</a>
</g>
<!-- Node4&#45;&gt;Node3 -->
<g id="edge6" class="edge"><title>Node4&#45;&gt;Node3</title>
<path fill="none" stroke="midnightblue" d="M404.119,-627.259C463.809,-636.204 558.567,-650.403 618.987,-659.457"/>
<polygon fill="midnightblue" stroke="midnightblue" points="404.533,-623.782 394.125,-625.762 403.496,-630.705 404.533,-623.782"/>
</g>
<!-- Node19 -->
<g id="node46" class="node"><title>Node19</title>
<a xlink:href="a00105.html" target="_top" xlink:title="Connection to a remote network host.">
<polygon fill="none" stroke="red" points="619.5,-364.5 619.5,-385.5 732.5,-385.5 732.5,-364.5 619.5,-364.5"/>
<text text-anchor="middle" x="676" y="-372.5" font-family="FreeSans" font-size="10.00">Urho3D::Connection</text>
</a>
</g>
<!-- Node4&#45;&gt;Node19 -->
<g id="edge58" class="edge"><title>Node4&#45;&gt;Node19</title>
<path fill="none" stroke="midnightblue" d="M404.428,-619.017C458.579,-617.761 535.731,-612.157 556,-591 586.258,-559.416 544.69,-427.465 574,-395 585.488,-382.275 602.496,-376.241 619.346,-373.683"/>
<polygon fill="midnightblue" stroke="midnightblue" points="404.198,-615.521 394.266,-619.209 404.33,-622.519 404.198,-615.521"/>
</g>
<!-- Node5 -->
<g id="node8" class="node"><title>Node5</title>
<a xlink:href="a00172.html" target="_top" xlink:title="Hash map template class.">
<polygon fill="none" stroke="red" points="276,-651.5 276,-672.5 422,-672.5 422,-651.5 276,-651.5"/>
<text text-anchor="middle" x="349" y="-659.5" font-family="FreeSans" font-size="10.00">Urho3D::HashMap&lt; T, U &gt;</text>
</a>
</g>
<!-- Node5&#45;&gt;Node3 -->
<g id="edge8" class="edge"><title>Node5&#45;&gt;Node3</title>
<path fill="none" stroke="#9a32cd" stroke-dasharray="5,2" d="M432.693,-663.536C491.05,-664.606 567.379,-666.007 618.858,-666.952"/>
<polygon fill="#9a32cd" stroke="#9a32cd" points="432.448,-660.031 422.385,-663.347 432.319,-667.029 432.448,-660.031"/>
<text text-anchor="middle" x="498" y="-669" font-family="FreeSans" font-size="10.00"> instanceDefaultValues_</text>
</g>
<!-- Node6 -->
<g id="node10" class="node"><title>Node6</title>
<a xlink:href="a00226.html" target="_top" xlink:title="Per&#45;object attribute state for network replication, allocated on demand.">
<polygon fill="none" stroke="red" points="286.5,-691.5 286.5,-712.5 411.5,-712.5 411.5,-691.5 286.5,-691.5"/>
<text text-anchor="middle" x="349" y="-699.5" font-family="FreeSans" font-size="10.00">Urho3D::NetworkState</text>
</a>
</g>
<!-- Node6&#45;&gt;Node3 -->
<g id="edge10" class="edge"><title>Node6&#45;&gt;Node3</title>
<path fill="none" stroke="#9a32cd" stroke-dasharray="5,2" d="M421.729,-694.438C481.147,-688.26 563.979,-679.647 618.751,-673.953"/>
<polygon fill="#9a32cd" stroke="#9a32cd" points="421.246,-690.969 411.662,-695.485 421.97,-697.932 421.246,-690.969"/>
<text text-anchor="middle" x="498" y="-695" font-family="FreeSans" font-size="10.00"> networkState_</text>
</g>
<!-- Node7 -->
<g id="node12" class="node"><title>Node7</title>
<a xlink:href="a00172.html" target="_top" xlink:title="Urho3D::HashMap\&lt; ShortString\lHash, Variant \&gt;">
<polygon fill="none" stroke="red" points="0,-438 0,-472 170,-472 170,-438 0,-438"/>
<text text-anchor="start" x="8" y="-459" font-family="FreeSans" font-size="10.00">Urho3D::HashMap&lt; ShortString</text>
<text text-anchor="middle" x="85" y="-446" font-family="FreeSans" font-size="10.00">Hash, Variant &gt;</text>
</a>
</g>
<!-- Node7&#45;&gt;Node6 -->
<g id="edge12" class="edge"><title>Node7&#45;&gt;Node6</title>
<path fill="none" stroke="#9a32cd" stroke-dasharray="5,2" d="M98.8116,-480.878C125.895,-528.913 190.836,-631.552 276,-682 282.444,-685.817 289.638,-688.926 296.928,-691.453"/>
<polygon fill="#9a32cd" stroke="#9a32cd" points="101.816,-479.079 93.9049,-472.031 95.6942,-482.474 101.816,-479.079"/>
<text text-anchor="middle" x="223" y="-672" font-family="FreeSans" font-size="10.00"> previousVars_</text>
</g>
<!-- Node7&#45;&gt;Node8 -->
<g id="edge54" class="edge"><title>Node7&#45;&gt;Node8</title>
<path fill="none" stroke="#9a32cd" stroke-dasharray="5,2" d="M116.055,-477.839C152.297,-502.947 215.062,-541.748 276,-557 345.672,-574.438 626.932,-591.975 778,-554 834.492,-539.799 852.956,-534.333 894,-493 926.012,-460.763 944.878,-408.264 951.874,-385.777"/>
<polygon fill="#9a32cd" stroke="#9a32cd" points="118.058,-474.969 107.864,-472.084 114.034,-480.697 118.058,-474.969"/>
<text text-anchor="middle" x="498" y="-580" font-family="FreeSans" font-size="10.00"> vars_</text>
</g>
<!-- Node10 -->
<g id="node19" class="node"><title>Node10</title>
<a xlink:href="a00289.html" target="_top" xlink:title="Root scene node, represents the whole scene.">
<polygon fill="none" stroke="red" points="1085.5,-77.5 1085.5,-98.5 1174.5,-98.5 1174.5,-77.5 1085.5,-77.5"/>
<text text-anchor="middle" x="1130" y="-85.5" font-family="FreeSans" font-size="10.00">Urho3D::Scene</text>
</a>
</g>
<!-- Node7&#45;&gt;Node10 -->
<g id="edge28" class="edge"><title>Node7&#45;&gt;Node10</title>
<path fill="none" stroke="#9a32cd" stroke-dasharray="5,2" d="M87.5523,-428.001C98.4171,-330.174 149.839,-0 349,-0 349,-0 349,-0 955,-0 1023.01,-0 1091.57,-53.7109 1118.31,-77.2095"/>
<polygon fill="#9a32cd" stroke="#9a32cd" points="84.0667,-427.681 86.4958,-437.994 91.0279,-428.417 84.0667,-427.681"/>
<text text-anchor="middle" x="676" y="-4" font-family="FreeSans" font-size="10.00"> smoothingData_</text>
</g>
<!-- Node7&#45;&gt;Node19 -->
<g id="edge66" class="edge"><title>Node7&#45;&gt;Node19</title>
<path fill="none" stroke="#9a32cd" stroke-dasharray="5,2" d="M113.29,-431.557C148.724,-403.866 212.525,-359.371 276,-342 339.093,-324.734 524.79,-350.544 619.321,-365.532"/>
<polygon fill="#9a32cd" stroke="#9a32cd" points="110.99,-428.914 105.33,-437.871 115.34,-434.399 110.99,-428.914"/>
<text text-anchor="middle" x="349" y="-346" font-family="FreeSans" font-size="10.00"> identity_</text>
</g>
<!-- Node8&#45;&gt;Node2 -->
<g id="edge14" class="edge"><title>Node8&#45;&gt;Node2</title>
<path fill="none" stroke="#9a32cd" stroke-dasharray="5,2" d="M971.807,-392.96C1007.66,-431.27 1090.73,-520.038 1119.76,-551.061"/>
<polygon fill="#9a32cd" stroke="#9a32cd" points="974.299,-390.5 964.91,-385.59 969.188,-395.283 974.299,-390.5"/>
<text text-anchor="middle" x="1035" y="-484" font-family="FreeSans" font-size="10.00"> node_</text>
</g>
<!-- Node8&#45;&gt;Node8 -->
<g id="edge46" class="edge"><title>Node8&#45;&gt;Node8</title>
<path fill="none" stroke="#9a32cd" stroke-dasharray="5,2" d="M940.349,-395.793C941.642,-400.529 946.526,-404 955,-404 968.906,-404 973.143,-394.653 967.711,-385.708"/>
<polygon fill="#9a32cd" stroke="#9a32cd" points="943.837,-396.189 942.289,-385.708 936.963,-394.867 943.837,-396.189"/>
<text text-anchor="middle" x="955" y="-408" font-family="FreeSans" font-size="10.00"> parent_</text>
</g>
<!-- Node8&#45;&gt;Node10 -->
<g id="edge22" class="edge"><title>Node8&#45;&gt;Node10</title>
<path fill="none" stroke="midnightblue" d="M959.892,-354.348C968.132,-322.067 986.799,-258.44 1016,-211 1045.15,-163.642 1094.26,-118.482 1117.32,-98.6028"/>
<polygon fill="midnightblue" stroke="midnightblue" points="956.414,-353.833 957.412,-364.381 963.209,-355.513 956.414,-353.833"/>
</g>
<!-- Node9 -->
<g id="node17" class="node"><title>Node9</title>
<a xlink:href="a00260.html" target="_top" xlink:title="Urho3D::PODVector\&lt;\l Urho3D::Node * \&gt;">
<polygon fill="none" stroke="red" points="616.5,-404 616.5,-438 735.5,-438 735.5,-404 616.5,-404"/>
<text text-anchor="start" x="624.5" y="-425" font-family="FreeSans" font-size="10.00">Urho3D::PODVector&lt;</text>
<text text-anchor="middle" x="676" y="-412" font-family="FreeSans" font-size="10.00"> Urho3D::Node * &gt;</text>
</a>
</g>
<!-- Node9&#45;&gt;Node8 -->
<g id="edge18" class="edge"><title>Node9&#45;&gt;Node8</title>
<path fill="none" stroke="#9a32cd" stroke-dasharray="5,2" d="M745.669,-414.238C788.671,-409.446 844.828,-402.071 894,-392 902.616,-390.235 911.804,-387.913 920.365,-385.555"/>
<polygon fill="#9a32cd" stroke="#9a32cd" points="745.15,-410.774 735.591,-415.341 745.912,-417.733 745.15,-410.774"/>
<text text-anchor="middle" x="845" y="-412" font-family="FreeSans" font-size="10.00"> dependencyNodes_</text>
</g>
<!-- Node10&#45;&gt;Node8 -->
<g id="edge20" class="edge"><title>Node10&#45;&gt;Node8</title>
<path fill="none" stroke="#9a32cd" stroke-dasharray="5,2" d="M1118.3,-107.192C1084.48,-162.655 987.376,-321.903 961.436,-364.445"/>
<polygon fill="#9a32cd" stroke="#9a32cd" points="1121.29,-109.011 1123.51,-98.6508 1115.31,-105.367 1121.29,-109.011"/>
<text text-anchor="middle" x="1035" y="-278" font-family="FreeSans" font-size="10.00"> scene_</text>
</g>
<!-- Node11 -->
<g id="node22" class="node"><title>Node11</title>
<a xlink:href="a00333.html" target="_top" xlink:title="String class.">
<polygon fill="none" stroke="black" points="305,-147.5 305,-168.5 393,-168.5 393,-147.5 305,-147.5"/>
<text text-anchor="middle" x="349" y="-155.5" font-family="FreeSans" font-size="10.00">Urho3D::String</text>
</a>
</g>
<!-- Node11&#45;&gt;Node8 -->
<g id="edge44" class="edge"><title>Node11&#45;&gt;Node8</title>
<path fill="none" stroke="#9a32cd" stroke-dasharray="5,2" d="M403.143,-153.295C485.127,-147.477 645.278,-141.233 778,-167 832.129,-177.509 855.136,-171.885 894,-211 938.321,-255.608 950.85,-335.304 954.022,-364.178"/>
<polygon fill="#9a32cd" stroke="#9a32cd" points="402.777,-149.812 393.061,-154.036 403.291,-156.793 402.777,-149.812"/>
<text text-anchor="middle" x="676" y="-171" font-family="FreeSans" font-size="10.00"> name_</text>
</g>
<!-- Node11&#45;&gt;Node10 -->
<g id="edge24" class="edge"><title>Node11&#45;&gt;Node10</title>
<path fill="none" stroke="#9a32cd" stroke-dasharray="5,2" d="M375.301,-142.248C416.12,-118.817 497.96,-75.8411 574,-60 760.872,-21.0697 990.331,-58.8729 1085.44,-78.1831"/>
<polygon fill="#9a32cd" stroke="#9a32cd" points="373.417,-139.295 366.531,-147.346 376.935,-145.347 373.417,-139.295"/>
<text text-anchor="middle" x="845" y="-54" font-family="FreeSans" font-size="10.00"> fileName_</text>
</g>
<!-- Node11&#45;&gt;Node11 -->
<g id="edge26" class="edge"><title>Node11&#45;&gt;Node11</title>
<path fill="none" stroke="#9a32cd" stroke-dasharray="5,2" d="M325.78,-178.427C327.571,-183.349 335.311,-187 349,-187 370.902,-187 377.576,-177.653 369.02,-168.708"/>
<polygon fill="#9a32cd" stroke="#9a32cd" points="329.176,-179.301 328.98,-168.708 322.528,-177.111 329.176,-179.301"/>
<text text-anchor="middle" x="349" y="-191" font-family="FreeSans" font-size="10.00"> EMPTY</text>
</g>
<!-- Node11&#45;&gt;Node19 -->
<g id="edge64" class="edge"><title>Node11&#45;&gt;Node19</title>
<path fill="none" stroke="#9a32cd" stroke-dasharray="5,2" d="M381.073,-173.124C426.165,-195.917 508.133,-243.174 556,-306 570.06,-324.455 556.348,-339.944 574,-355 586.563,-365.715 603.176,-371.326 619.339,-374.112"/>
<polygon fill="#9a32cd" stroke="#9a32cd" points="382.549,-169.95 372.036,-168.635 379.434,-176.219 382.549,-169.95"/>
<text text-anchor="middle" x="498" y="-310" font-family="FreeSans" font-size="10.00"> sceneFileName_</text>
</g>
<!-- Node12 -->
<g id="node26" class="node"><title>Node12</title>
<a xlink:href="a00265.html" target="_top" xlink:title="Rotation represented as a four&#45;dimensional normalized vector.">
<polygon fill="none" stroke="black" points="619.5,-293.5 619.5,-314.5 732.5,-314.5 732.5,-293.5 619.5,-293.5"/>
<text text-anchor="middle" x="676" y="-301.5" font-family="FreeSans" font-size="10.00">Urho3D::Quaternion</text>
</a>
</g>
<!-- Node12&#45;&gt;Node8 -->
<g id="edge30" class="edge"><title>Node12&#45;&gt;Node8</title>
<path fill="none" stroke="#9a32cd" stroke-dasharray="5,2" d="M742.573,-311.748C786.362,-317.999 844.51,-328.518 894,-345 909.004,-349.997 925.014,-357.982 936.866,-364.459"/>
<polygon fill="#9a32cd" stroke="#9a32cd" points="742.998,-308.273 732.612,-310.364 742.035,-315.207 742.998,-308.273"/>
<text text-anchor="middle" x="845" y="-362" font-family="FreeSans" font-size="10.00"> worldRotation_</text>
<text text-anchor="middle" x="845" y="-349" font-family="FreeSans" font-size="10.00">rotation_</text>
</g>
<!-- Node12&#45;&gt;Node12 -->
<g id="edge32" class="edge"><title>Node12&#45;&gt;Node12</title>
<path fill="none" stroke="#9a32cd" stroke-dasharray="5,2" d="M644.741,-323.679C646.416,-328.975 656.835,-333 676,-333 705.203,-333 714.101,-323.653 702.693,-314.708"/>
<polygon fill="#9a32cd" stroke="#9a32cd" points="647.89,-325.208 649.307,-314.708 641.651,-322.032 647.89,-325.208"/>
<text text-anchor="middle" x="676" y="-337" font-family="FreeSans" font-size="10.00"> IDENTITY</text>
</g>
<!-- Node13 -->
<g id="node29" class="node"><title>Node13</title>
<a xlink:href="a00359.html" target="_top" xlink:title="Urho3D::Vector\&lt; Urho3D\l::WeakPtr\&lt; Urho3D::Component \&gt; \&gt;">
<polygon fill="none" stroke="red" points="579,-241 579,-275 773,-275 773,-241 579,-241"/>
<text text-anchor="start" x="587" y="-262" font-family="FreeSans" font-size="10.00">Urho3D::Vector&lt; Urho3D</text>
<text text-anchor="middle" x="676" y="-249" font-family="FreeSans" font-size="10.00">::WeakPtr&lt; Urho3D::Component &gt; &gt;</text>
</a>
</g>
<!-- Node13&#45;&gt;Node8 -->
<g id="edge34" class="edge"><title>Node13&#45;&gt;Node8</title>
<path fill="none" stroke="#9a32cd" stroke-dasharray="5,2" d="M783.459,-267.24C820.397,-273.93 860.779,-285.394 894,-305 919.127,-319.829 939.216,-348.682 948.831,-364.314"/>
<polygon fill="#9a32cd" stroke="#9a32cd" points="783.587,-263.711 773.141,-265.477 782.408,-270.611 783.587,-263.711"/>
<text text-anchor="middle" x="845" y="-309" font-family="FreeSans" font-size="10.00"> listeners_</text>
</g>
<!-- Node14 -->
<g id="node31" class="node"><title>Node14</title>
<a xlink:href="a00364.html" target="_top" xlink:title="Dynamically sized buffer that can be read and written to as a stream.">
<polygon fill="none" stroke="red" points="289.5,-526.5 289.5,-547.5 408.5,-547.5 408.5,-526.5 289.5,-526.5"/>
<text text-anchor="middle" x="349" y="-534.5" font-family="FreeSans" font-size="10.00">Urho3D::VectorBuffer</text>
</a>
</g>
<!-- Node14&#45;&gt;Node8 -->
<g id="edge36" class="edge"><title>Node14&#45;&gt;Node8</title>
<path fill="none" stroke="#9a32cd" stroke-dasharray="5,2" d="M418.849,-539.693C504.764,-541.288 654.413,-538.451 778,-507 832.931,-493.021 849.604,-489.24 894,-454 918.973,-434.178 939.56,-402.038 949.165,-385.528"/>
<polygon fill="#9a32cd" stroke="#9a32cd" points="418.765,-536.191 408.693,-539.479 418.617,-543.189 418.765,-536.191"/>
<text text-anchor="middle" x="676" y="-541" font-family="FreeSans" font-size="10.00"> attrBuffer_</text>
</g>
<!-- Node14&#45;&gt;Node19 -->
<g id="edge60" class="edge"><title>Node14&#45;&gt;Node19</title>
<path fill="none" stroke="#9a32cd" stroke-dasharray="5,2" d="M407.827,-523.185C412.719,-521.348 417.507,-519.293 422,-517 499.158,-477.624 495.442,-431.503 574,-395 588.074,-388.46 604.203,-384.057 619.418,-381.094"/>
<polygon fill="#9a32cd" stroke="#9a32cd" points="406.654,-519.887 398.339,-526.454 408.934,-526.506 406.654,-519.887"/>
<text text-anchor="middle" x="498" y="-510" font-family="FreeSans" font-size="10.00"> msg_</text>
</g>
<!-- Node15 -->
<g id="node33" class="node"><title>Node15</title>
<a xlink:href="a00359.html" target="_top" xlink:title="Urho3D::Vector\&lt; Urho3D\l::SharedPtr\&lt; Urho3D::Component \&gt; \&gt;">
<polygon fill="none" stroke="red" points="574.5,-189 574.5,-223 777.5,-223 777.5,-189 574.5,-189"/>
<text text-anchor="start" x="582.5" y="-210" font-family="FreeSans" font-size="10.00">Urho3D::Vector&lt; Urho3D</text>
<text text-anchor="middle" x="676" y="-197" font-family="FreeSans" font-size="10.00">::SharedPtr&lt; Urho3D::Component &gt; &gt;</text>
</a>
</g>
<!-- Node15&#45;&gt;Node8 -->
<g id="edge38" class="edge"><title>Node15&#45;&gt;Node8</title>
<path fill="none" stroke="#9a32cd" stroke-dasharray="5,2" d="M788.046,-211.611C824.818,-218.146 863.924,-230.644 894,-254 931.162,-282.858 947.49,-340.478 952.855,-364.306"/>
<polygon fill="#9a32cd" stroke="#9a32cd" points="788.181,-208.087 777.746,-209.922 787.048,-214.994 788.181,-208.087"/>
<text text-anchor="middle" x="845" y="-258" font-family="FreeSans" font-size="10.00"> components_</text>
</g>
<!-- Node16 -->
<g id="node35" class="node"><title>Node16</title>
<a xlink:href="a00361.html" target="_top" xlink:title="Three&#45;dimensional vector.">
<polygon fill="none" stroke="black" points="301,-364.5 301,-385.5 397,-385.5 397,-364.5 301,-364.5"/>
<text text-anchor="middle" x="349" y="-372.5" font-family="FreeSans" font-size="10.00">Urho3D::Vector3</text>
</a>
</g>
<!-- Node16&#45;&gt;Node8 -->
<g id="edge40" class="edge"><title>Node16&#45;&gt;Node8</title>
<path fill="none" stroke="#9a32cd" stroke-dasharray="5,2" d="M362.135,-393.828C377.88,-414.57 406.389,-446.744 440,-460 534.132,-497.125 802.322,-467.828 894,-425 914.594,-415.379 934.129,-397.212 945.319,-385.627"/>
<polygon fill="#9a32cd" stroke="#9a32cd" points="364.929,-391.719 356.192,-385.727 359.285,-395.86 364.929,-391.719"/>
<text text-anchor="middle" x="676" y="-494" font-family="FreeSans" font-size="10.00"> scale_</text>
<text text-anchor="middle" x="676" y="-481" font-family="FreeSans" font-size="10.00">position_</text>
</g>
<!-- Node16&#45;&gt;Node16 -->
<g id="edge42" class="edge"><title>Node16&#45;&gt;Node16</title>
<path fill="none" stroke="#9a32cd" stroke-dasharray="5,2" d="M325.78,-395.427C327.571,-400.349 335.311,-404 349,-404 370.902,-404 377.576,-394.653 369.02,-385.708"/>
<polygon fill="#9a32cd" stroke="#9a32cd" points="329.176,-396.301 328.98,-385.708 322.528,-394.111 329.176,-396.301"/>
<text text-anchor="middle" x="349" y="-499" font-family="FreeSans" font-size="10.00"> ONE</text>
<text text-anchor="middle" x="349" y="-486" font-family="FreeSans" font-size="10.00">DOWN</text>
<text text-anchor="middle" x="349" y="-473" font-family="FreeSans" font-size="10.00">BACK</text>
<text text-anchor="middle" x="349" y="-460" font-family="FreeSans" font-size="10.00">RIGHT</text>
<text text-anchor="middle" x="349" y="-447" font-family="FreeSans" font-size="10.00">LEFT</text>
<text text-anchor="middle" x="349" y="-434" font-family="FreeSans" font-size="10.00">ZERO</text>
<text text-anchor="middle" x="349" y="-421" font-family="FreeSans" font-size="10.00">FORWARD</text>
<text text-anchor="middle" x="349" y="-408" font-family="FreeSans" font-size="10.00">UP</text>
</g>
<!-- Node16&#45;&gt;Node19 -->
<g id="edge62" class="edge"><title>Node16&#45;&gt;Node19</title>
<path fill="none" stroke="#9a32cd" stroke-dasharray="5,2" d="M407.311,-375C467.249,-375 559.962,-375 619.304,-375"/>
<polygon fill="#9a32cd" stroke="#9a32cd" points="407.25,-371.5 397.25,-375 407.25,-378.5 407.25,-371.5"/>
<text text-anchor="middle" x="498" y="-379" font-family="FreeSans" font-size="10.00"> position_</text>
</g>
<!-- Node17 -->
<g id="node40" class="node"><title>Node17</title>
<a xlink:href="a00334.html" target="_top" xlink:title="32&#45;bit hash value for a string.">
<polygon fill="none" stroke="black" points="619.5,-69.5 619.5,-90.5 732.5,-90.5 732.5,-69.5 619.5,-69.5"/>
<text text-anchor="middle" x="676" y="-77.5" font-family="FreeSans" font-size="10.00">Urho3D::StringHash</text>
</a>
</g>
<!-- Node17&#45;&gt;Node8 -->
<g id="edge48" class="edge"><title>Node17&#45;&gt;Node8</title>
<path fill="none" stroke="#9a32cd" stroke-dasharray="5,2" d="M742.943,-78.2478C791.161,-80.679 854.444,-92.0399 894,-131 928.375,-164.858 948.86,-322.1 953.819,-364.463"/>
<polygon fill="#9a32cd" stroke="#9a32cd" points="743.025,-74.7484 732.896,-77.8578 742.753,-81.7431 743.025,-74.7484"/>
<text text-anchor="middle" x="845" y="-135" font-family="FreeSans" font-size="10.00"> nameHash_</text>
</g>
<!-- Node17&#45;&gt;Node17 -->
<g id="edge50" class="edge"><title>Node17&#45;&gt;Node17</title>
<path fill="none" stroke="#9a32cd" stroke-dasharray="5,2" d="M644.741,-99.6791C646.416,-104.975 656.835,-109 676,-109 705.203,-109 714.101,-99.6531 702.693,-90.7079"/>
<polygon fill="#9a32cd" stroke="#9a32cd" points="647.89,-101.208 649.307,-90.7079 641.651,-98.0325 647.89,-101.208"/>
<text text-anchor="middle" x="676" y="-113" font-family="FreeSans" font-size="10.00"> ZERO</text>
</g>
<!-- Node18 -->
<g id="node43" class="node"><title>Node18</title>
<a xlink:href="a00359.html" target="_top" xlink:title="Urho3D::Vector\&lt; Urho3D\l::SharedPtr\&lt; Urho3D::Node \&gt; \&gt;">
<polygon fill="none" stroke="red" points="589.5,-605 589.5,-639 762.5,-639 762.5,-605 589.5,-605"/>
<text text-anchor="start" x="597.5" y="-626" font-family="FreeSans" font-size="10.00">Urho3D::Vector&lt; Urho3D</text>
<text text-anchor="middle" x="676" y="-613" font-family="FreeSans" font-size="10.00">::SharedPtr&lt; Urho3D::Node &gt; &gt;</text>
</a>
</g>
<!-- Node18&#45;&gt;Node8 -->
<g id="edge52" class="edge"><title>Node18&#45;&gt;Node8</title>
<path fill="none" stroke="#9a32cd" stroke-dasharray="5,2" d="M772.595,-613.137C826.4,-607.346 884.466,-599.335 894,-591 926.05,-562.98 947.827,-425.438 953.52,-385.743"/>
<polygon fill="#9a32cd" stroke="#9a32cd" points="772.187,-609.66 762.61,-614.191 772.923,-616.621 772.187,-609.66"/>
<text text-anchor="middle" x="845" y="-614" font-family="FreeSans" font-size="10.00"> children_</text>
</g>
<!-- Node19&#45;&gt;Node8 -->
<g id="edge56" class="edge"><title>Node19&#45;&gt;Node8</title>
<path fill="none" stroke="#9a32cd" stroke-dasharray="5,2" d="M743.055,-375C795.686,-375 867.359,-375 912.399,-375"/>
<polygon fill="#9a32cd" stroke="#9a32cd" points="742.796,-371.5 732.796,-375 742.796,-378.5 742.796,-371.5"/>
<text text-anchor="middle" x="845" y="-379" font-family="FreeSans" font-size="10.00"> owner_</text>
</g>
<!-- Node20 -->
<g id="node53" class="node"><title>Node20</title>
<a xlink:href="a00372.html" target="_top" xlink:title="Urho3D::WeakPtr\&lt; Urho3D\l::RigidBody2D \&gt;">
<polygon fill="none" stroke="black" points="1924,-505 1924,-539 2070,-539 2070,-505 1924,-505"/>
<text text-anchor="start" x="1932" y="-526" font-family="FreeSans" font-size="10.00">Urho3D::WeakPtr&lt; Urho3D</text>
<text text-anchor="middle" x="1997" y="-513" font-family="FreeSans" font-size="10.00">::RigidBody2D &gt;</text>
</a>
</g>
<!-- Node20&#45;&gt;Node1 -->
<g id="edge68" class="edge"><title>Node20&#45;&gt;Node1</title>
<path fill="none" stroke="#9a32cd" stroke-dasharray="5,2" d="M2080.28,-528.15C2101.81,-530.502 2124.87,-533.696 2146,-538 2162.43,-541.348 2180.35,-546.648 2194.96,-551.418"/>
<polygon fill="#9a32cd" stroke="#9a32cd" points="2080.49,-524.653 2070.18,-527.095 2079.76,-531.615 2080.49,-524.653"/>
<text text-anchor="middle" x="2117" y="-555" font-family="FreeSans" font-size="10.00"> otherBody_</text>
<text text-anchor="middle" x="2117" y="-542" font-family="FreeSans" font-size="10.00">ownerBody_</text>
</g>
<!-- Node21&#45;&gt;Node20 -->
<g id="edge70" class="edge"><title>Node21&#45;&gt;Node20</title>
<path fill="none" stroke="#9a32cd" stroke-dasharray="5,2" d="M1827.74,-522C1857.98,-522 1893.4,-522 1923.99,-522"/>
<polygon fill="#9a32cd" stroke="#9a32cd" points="1827.69,-518.5 1817.69,-522 1827.69,-525.5 1827.69,-518.5"/>
<text text-anchor="middle" x="1871" y="-526" font-family="FreeSans" font-size="10.00"> ptr_</text>
</g>
<!-- Node22 -->
<g id="node58" class="node"><title>Node22</title>
<a xlink:href="a00372.html" target="_top" xlink:title="Urho3D::WeakPtr\&lt; Urho3D\l::PhysicsWorld2D \&gt;">
<polygon fill="none" stroke="black" points="1446,-545 1446,-579 1592,-579 1592,-545 1446,-545"/>
<text text-anchor="start" x="1454" y="-566" font-family="FreeSans" font-size="10.00">Urho3D::WeakPtr&lt; Urho3D</text>
<text text-anchor="middle" x="1519" y="-553" font-family="FreeSans" font-size="10.00">::PhysicsWorld2D &gt;</text>
</a>
</g>
<!-- Node22&#45;&gt;Node1 -->
<g id="edge84" class="edge"><title>Node22&#45;&gt;Node1</title>
<path fill="none" stroke="#9a32cd" stroke-dasharray="5,2" d="M1602.22,-563.903C1604.84,-563.939 1607.44,-563.972 1610,-564 1848.21,-566.617 1907.8,-567.015 2146,-564 2151.76,-563.927 2157.76,-563.824 2163.76,-563.703"/>
<polygon fill="#9a32cd" stroke="#9a32cd" points="1602.06,-560.4 1592.01,-563.746 1601.96,-567.399 1602.06,-560.4"/>
<text text-anchor="middle" x="1871" y="-571" font-family="FreeSans" font-size="10.00"> physicsWorld_</text>
</g>
<!-- Node22&#45;&gt;Node21 -->
<g id="edge74" class="edge"><title>Node22&#45;&gt;Node21</title>
<path fill="none" stroke="#9a32cd" stroke-dasharray="5,2" d="M1602.14,-548.086C1633.79,-542.788 1669.21,-536.861 1698.27,-531.997"/>
<polygon fill="#9a32cd" stroke="#9a32cd" points="1601.29,-544.679 1592.01,-549.781 1602.45,-551.583 1601.29,-544.679"/>
<text text-anchor="middle" x="1645" y="-551" font-family="FreeSans" font-size="10.00"> physicsWorld_</text>
</g>
<!-- Node23&#45;&gt;Node22 -->
<g id="edge76" class="edge"><title>Node23&#45;&gt;Node22</title>
<path fill="none" stroke="#9a32cd" stroke-dasharray="5,2" d="M1370.48,-562C1394.85,-562 1421.68,-562 1445.75,-562"/>
<polygon fill="#9a32cd" stroke="#9a32cd" points="1370.2,-558.5 1360.2,-562 1370.2,-565.5 1370.2,-558.5"/>
<text text-anchor="middle" x="1403" y="-566" font-family="FreeSans" font-size="10.00"> ptr_</text>
</g>
<!-- Node24 -->
<g id="node63" class="node"><title>Node24</title>
<a xlink:href="a00273.html" target="_top" xlink:title="Reference count structure.">
<polygon fill="none" stroke="black" points="1242,-448.5 1242,-469.5 1344,-469.5 1344,-448.5 1242,-448.5"/>
<text text-anchor="middle" x="1293" y="-456.5" font-family="FreeSans" font-size="10.00">Urho3D::RefCount</text>
</a>
</g>
<!-- Node24&#45;&gt;Node20 -->
<g id="edge82" class="edge"><title>Node24&#45;&gt;Node20</title>
<path fill="none" stroke="#9a32cd" stroke-dasharray="5,2" d="M1354.11,-463.417C1452.08,-470.629 1650.3,-485.767 1818,-502 1852.86,-505.374 1891.48,-509.624 1923.9,-513.338"/>
<polygon fill="#9a32cd" stroke="#9a32cd" points="1354.32,-459.923 1344.09,-462.681 1353.81,-466.904 1354.32,-459.923"/>
<text text-anchor="middle" x="1645" y="-494" font-family="FreeSans" font-size="10.00"> refCount_</text>
</g>
<!-- Node24&#45;&gt;Node22 -->
<g id="edge80" class="edge"><title>Node24&#45;&gt;Node22</title>
<path fill="none" stroke="#9a32cd" stroke-dasharray="5,2" d="M1325.68,-473.894C1367.04,-492.746 1438.13,-525.145 1481.62,-544.962"/>
<polygon fill="#9a32cd" stroke="#9a32cd" points="1326.89,-470.597 1316.33,-469.635 1323.98,-476.967 1326.89,-470.597"/>
<text text-anchor="middle" x="1403" y="-524" font-family="FreeSans" font-size="10.00"> refCount_</text>
</g>
<!-- Node24&#45;&gt;Node25 -->
<g id="edge90" class="edge"><title>Node24&#45;&gt;Node25</title>
<path fill="none" stroke="#9a32cd" stroke-dasharray="5,2" d="M1341.75,-445.977C1387.26,-434.977 1457.23,-421 1519,-421 1519,-421 1519,-421 2225,-421 2321.43,-421 2424.96,-479.143 2471.63,-508.896"/>
<polygon fill="#9a32cd" stroke="#9a32cd" points="1340.73,-442.624 1331.86,-448.415 1342.41,-449.42 1340.73,-442.624"/>
<text text-anchor="middle" x="1871" y="-425" font-family="FreeSans" font-size="10.00"> refCount_</text>
</g>
<!-- Node25&#45;&gt;Node1 -->
<g id="edge86" class="edge"><title>Node25&#45;&gt;Node1</title>
<path fill="none" stroke="#9a32cd" stroke-dasharray="5,2" d="M2413.58,-538.94C2411.03,-539.303 2408.49,-539.657 2406,-540 2366.17,-545.483 2321.32,-550.94 2286.22,-555.047"/>
<polygon fill="#9a32cd" stroke="#9a32cd" points="2414.12,-542.398 2423.52,-537.509 2413.13,-535.47 2414.12,-542.398"/>
<text text-anchor="middle" x="2355" y="-557" font-family="FreeSans" font-size="10.00"> attachedConstraint_</text>
</g>
</g>
</svg>
        <g id="navigator" transform="translate(0 0)" fill="#404254">
                <rect fill="#f2f5e9" fill-opacity="0.5" stroke="#606060" stroke-width=".5" x="0" y="0" width="60" height="60"/>
                <use id="zoomplus" xlink:href="#zoomPlus" x="17" y="9" onmousedown="handleZoom(evt,'in')"/>
                <use id="zoomminus" xlink:href="#zoomMin" x="42" y="9" onmousedown="handleZoom(evt,'out')"/>
                <use id="reset" xlink:href="#resetDef" x="30" y="36" onmousedown="handleReset()"/>
                <g id="arrowUp" xlink:href="#dirArrow" transform="translate(30 24)" onmousedown="handlePan(0,-1)">
                  <use xlink:href="#rim" fill="#404040">
                        <set attributeName="fill" to="#808080" begin="arrowUp.mouseover" end="arrowUp.mouseout"/>
                  </use>
                  <path fill="none" stroke="white" stroke-width="1.5" d="M0,-3.0v7 M-2.5,-0.5L0,-3.0L2.5,-0.5"/>
                </g>
                <g id="arrowRight" xlink:href="#dirArrow" transform="rotate(90) translate(36 -43)" onmousedown="handlePan(1,0)">
                  <use xlink:href="#rim" fill="#404040">
                        <set attributeName="fill" to="#808080" begin="arrowRight.mouseover" end="arrowRight.mouseout"/>
                  </use>
                  <path fill="none" stroke="white" stroke-width="1.5" d="M0,-3.0v7 M-2.5,-0.5L0,-3.0L2.5,-0.5"/>
                </g>
                <g id="arrowDown" xlink:href="#dirArrow" transform="rotate(180) translate(-30 -48)" onmousedown="handlePan(0,1)">
                  <use xlink:href="#rim" fill="#404040">
                        <set attributeName="fill" to="#808080" begin="arrowDown.mouseover" end="arrowDown.mouseout"/>
                  </use>
                  <path fill="none" stroke="white" stroke-width="1.5" d="M0,-3.0v7 M-2.5,-0.5L0,-3.0L2.5,-0.5"/>
                </g>
                <g id="arrowLeft" xlink:href="#dirArrow" transform="rotate(270) translate(-36 17)" onmousedown="handlePan(-1,0)">
                  <use xlink:href="#rim" fill="#404040">
                        <set attributeName="fill" to="#808080" begin="arrowLeft.mouseover" end="arrowLeft.mouseout"/>
                  </use>
                  <path fill="none" stroke="white" stroke-width="1.5" d="M0,-3.0v7 M-2.5,-0.5L0,-3.0L2.5,-0.5"/>
                </g>
        </g>
        <svg viewBox="0 0 15 15" width="100%" height="30px" preserveAspectRatio="xMaxYMin meet">
         <g id="arrow_out" transform="scale(0.3 0.3)">
          <a xlink:href="a01619_org.svg" target="_base">
           <rect id="button" ry="5" rx="5" y="6" x="6" height="38" width="38"
                fill="#f2f5e9" fill-opacity="0.5" stroke="#606060" stroke-width="1.0"/>
           <path id="arrow"
             d="M 11.500037,31.436501 C 11.940474,20.09759 22.043105,11.32322 32.158766,21.979434 L 37.068811,17.246167 C 37.068811,17.246167 37.088388,32 37.088388,32 L 22.160133,31.978069 C 22.160133,31.978069 26.997745,27.140456 26.997745,27.140456 C 18.528582,18.264221 13.291696,25.230495 11.500037,31.436501 z"
             style="fill:#404040;"/>
          </a>
         </g>
        </svg>
</svg>
