<?xml version="1.0" encoding="UTF-8" standalone="no"?>
<!DOCTYPE svg PUBLIC "-//W3C//DTD SVG 1.1//EN"
 "http://www.w3.org/Graphics/SVG/1.1/DTD/svg11.dtd">
<!-- Generated by graphviz version 2.26.3 (20100126.1600)
 -->
<!-- Title: Urho3D::UI Pages: 1 -->
<svg width="1938pt" height="713pt"
 viewBox="0.00 0.00 1938.00 713.00" xmlns="http://www.w3.org/2000/svg" xmlns:xlink="http://www.w3.org/1999/xlink">
<g id="graph1" class="graph" transform="scale(1 1) rotate(0) translate(4 709)">
<title>Urho3D::UI</title>
<!-- Node1 -->
<g id="node1" class="node"><title>Node1</title>
<polygon fill="#bfbfbf" stroke="black" points="1860.5,-273.5 1860.5,-294.5 1929.5,-294.5 1929.5,-273.5 1860.5,-273.5"/>
<text text-anchor="middle" x="1895" y="-281.5" font-family="FreeSans" font-size="10.00">Urho3D::UI</text>
</g>
<!-- Node2 -->
<g id="node2" class="node"><title>Node2</title>
<a xlink:href="a00249.html" target="_top" xlink:title="Base class for objects with type identification, subsystem access and event sending/receiving capabil...">
<polygon fill="none" stroke="black" points="790,-555.5 790,-576.5 880,-576.5 880,-555.5 790,-555.5"/>
<text text-anchor="middle" x="835" y="-563.5" font-family="FreeSans" font-size="10.00">Urho3D::Object</text>
</a>
</g>
<!-- Node2&#45;&gt;Node1 -->
<g id="edge2" class="edge"><title>Node2&#45;&gt;Node1</title>
<path fill="none" stroke="midnightblue" d="M890.256,-563.603C1090.32,-554.442 1768.95,-519.009 1842,-457 1867.62,-435.249 1887.44,-328.972 1893.26,-294.685"/>
<polygon fill="midnightblue" stroke="midnightblue" points="890.091,-560.106 880.261,-564.057 890.409,-567.099 890.091,-560.106"/>
</g>
<!-- Node11 -->
<g id="node22" class="node"><title>Node11</title>
<a xlink:href="a00180.html" target="_top" xlink:title="Graphics subsystem. Manages the application window, rendering state and GPU resources.">
<polygon fill="none" stroke="red" points="1286.5,-579.5 1286.5,-600.5 1387.5,-600.5 1387.5,-579.5 1286.5,-579.5"/>
<text text-anchor="middle" x="1337" y="-587.5" font-family="FreeSans" font-size="10.00">Urho3D::Graphics</text>
</a>
</g>
<!-- Node2&#45;&gt;Node11 -->
<g id="edge26" class="edge"><title>Node2&#45;&gt;Node11</title>
<path fill="none" stroke="midnightblue" d="M890.462,-568.652C988.716,-573.349 1191.89,-583.062 1286.49,-587.585"/>
<polygon fill="midnightblue" stroke="midnightblue" points="890.59,-565.154 880.435,-568.172 890.256,-572.146 890.59,-565.154"/>
</g>
<!-- Node12 -->
<g id="node25" class="node"><title>Node12</title>
<a xlink:href="a00395.html" target="_top" xlink:title="Hardware vertex buffer.">
<polygon fill="none" stroke="red" points="1036.5,-613.5 1036.5,-634.5 1155.5,-634.5 1155.5,-613.5 1036.5,-613.5"/>
<text text-anchor="middle" x="1096" y="-621.5" font-family="FreeSans" font-size="10.00">Urho3D::VertexBuffer</text>
</a>
</g>
<!-- Node2&#45;&gt;Node12 -->
<g id="edge30" class="edge"><title>Node2&#45;&gt;Node12</title>
<path fill="none" stroke="midnightblue" d="M859.936,-581.696C871.166,-588.06 884.839,-594.87 898,-599 943.125,-613.16 996.421,-619.327 1036.34,-621.999"/>
<polygon fill="midnightblue" stroke="midnightblue" points="861.535,-578.576 851.141,-576.523 857.986,-584.61 861.535,-578.576"/>
</g>
<!-- Node3 -->
<g id="node4" class="node"><title>Node3</title>
<a xlink:href="a00292.html" target="_top" xlink:title="Base class for intrusively reference&#45;counted objects. These are noncopyable and non&#45;assignable.">
<polygon fill="none" stroke="black" points="203,-561.5 203,-582.5 317,-582.5 317,-561.5 203,-561.5"/>
<text text-anchor="middle" x="260" y="-569.5" font-family="FreeSans" font-size="10.00">Urho3D::RefCounted</text>
</a>
</g>
<!-- Node3&#45;&gt;Node2 -->
<g id="edge4" class="edge"><title>Node3&#45;&gt;Node2</title>
<path fill="none" stroke="midnightblue" d="M327.29,-573.522C425.205,-575.362 612.663,-577.469 772,-571 777.81,-570.764 783.915,-570.412 789.943,-570.001"/>
<polygon fill="midnightblue" stroke="midnightblue" points="327.302,-570.022 317.236,-573.329 327.166,-577.021 327.302,-570.022"/>
</g>
<!-- Node5 -->
<g id="node8" class="node"><title>Node5</title>
<a xlink:href="a00129.html" target="_top" xlink:title="Urho3D execution context. Provides access to subsystems, object factories and attributes, and event receivers.">
<polygon fill="none" stroke="red" points="512.5,-535.5 512.5,-556.5 609.5,-556.5 609.5,-535.5 512.5,-535.5"/>
<text text-anchor="middle" x="561" y="-543.5" font-family="FreeSans" font-size="10.00">Urho3D::Context</text>
</a>
</g>
<!-- Node3&#45;&gt;Node5 -->
<g id="edge10" class="edge"><title>Node3&#45;&gt;Node5</title>
<path fill="none" stroke="midnightblue" d="M327.534,-566.167C383.67,-561.318 462.205,-554.534 512.34,-550.203"/>
<polygon fill="midnightblue" stroke="midnightblue" points="326.986,-562.701 317.324,-567.048 327.588,-569.675 326.986,-562.701"/>
</g>
<!-- Node4 -->
<g id="node6" class="node"><title>Node4</title>
<a xlink:href="a00291.html" target="_top" xlink:title="Reference count structure.">
<polygon fill="none" stroke="black" points="6,-561.5 6,-582.5 108,-582.5 108,-561.5 6,-561.5"/>
<text text-anchor="middle" x="57" y="-569.5" font-family="FreeSans" font-size="10.00">Urho3D::RefCount</text>
</a>
</g>
<!-- Node4&#45;&gt;Node3 -->
<g id="edge6" class="edge"><title>Node4&#45;&gt;Node3</title>
<path fill="none" stroke="#9a32cd" stroke-dasharray="5,2" d="M118.263,-572C145.075,-572 176.357,-572 202.702,-572"/>
<polygon fill="#9a32cd" stroke="#9a32cd" points="118.226,-568.5 108.225,-572 118.225,-575.5 118.226,-568.5"/>
<text text-anchor="middle" x="157" y="-576" font-family="FreeSans" font-size="10.00"> refCount_</text>
</g>
<!-- Node10 -->
<g id="node20" class="node"><title>Node10</title>
<a xlink:href="a00402.html" target="_top" xlink:title="Urho3D::WeakPtr\&lt; Urho3D\l::Graphics \&gt;">
<polygon fill="none" stroke="black" points="1571,-577 1571,-611 1717,-611 1717,-577 1571,-577"/>
<text text-anchor="start" x="1579" y="-598" font-family="FreeSans" font-size="10.00">Urho3D::WeakPtr&lt; Urho3D</text>
<text text-anchor="middle" x="1644" y="-585" font-family="FreeSans" font-size="10.00">::Graphics &gt;</text>
</a>
</g>
<!-- Node4&#45;&gt;Node10 -->
<g id="edge36" class="edge"><title>Node4&#45;&gt;Node10</title>
<path fill="none" stroke="#9a32cd" stroke-dasharray="5,2" d="M73.2315,-589.971C105.349,-623.449 180.785,-692 260,-692 260,-692 260,-692 1337,-692 1429.21,-692 1458.47,-712.468 1544,-678 1553.41,-674.207 1598.55,-634.65 1624.86,-611.197"/>
<polygon fill="#9a32cd" stroke="#9a32cd" points="75.757,-587.548 66.3626,-582.649 70.6517,-592.337 75.757,-587.548"/>
<text text-anchor="middle" x="835" y="-696" font-family="FreeSans" font-size="10.00"> refCount_</text>
</g>
<!-- Node19 -->
<g id="node45" class="node"><title>Node19</title>
<a xlink:href="a00402.html" target="_top" xlink:title="Urho3D::WeakPtr\&lt; Urho3D\l::UIElement \&gt;">
<polygon fill="none" stroke="black" points="1571,-331 1571,-365 1717,-365 1717,-331 1571,-331"/>
<text text-anchor="start" x="1579" y="-352" font-family="FreeSans" font-size="10.00">Urho3D::WeakPtr&lt; Urho3D</text>
<text text-anchor="middle" x="1644" y="-339" font-family="FreeSans" font-size="10.00">::UIElement &gt;</text>
</a>
</g>
<!-- Node4&#45;&gt;Node19 -->
<g id="edge58" class="edge"><title>Node4&#45;&gt;Node19</title>
<path fill="none" stroke="#9a32cd" stroke-dasharray="5,2" d="M64.8678,-552.007C86.9687,-499.552 154.94,-362 260,-362 260,-362 260,-362 1096,-362 1186.23,-362 1443.46,-354.319 1570.78,-350.335"/>
<polygon fill="#9a32cd" stroke="#9a32cd" points="61.614,-550.717 61.0618,-561.297 68.0915,-553.371 61.614,-550.717"/>
<text text-anchor="middle" x="835" y="-366" font-family="FreeSans" font-size="10.00"> refCount_</text>
</g>
<!-- Node5&#45;&gt;Node2 -->
<g id="edge8" class="edge"><title>Node5&#45;&gt;Node2</title>
<path fill="none" stroke="#9a32cd" stroke-dasharray="5,2" d="M619.817,-548.249C662.187,-550.136 720.693,-553.289 772,-558 777.819,-558.534 783.929,-559.19 789.96,-559.895"/>
<polygon fill="#9a32cd" stroke="#9a32cd" points="619.821,-544.746 609.679,-547.808 619.517,-551.739 619.821,-544.746"/>
<text text-anchor="middle" x="712" y="-562" font-family="FreeSans" font-size="10.00"> context_</text>
</g>
<!-- Node6 -->
<g id="node11" class="node"><title>Node6</title>
<a xlink:href="a00278.html" target="_top" xlink:title="Urho3D::PODVector\&lt;\l Urho3D::Object * \&gt;">
<polygon fill="none" stroke="black" points="200.5,-223 200.5,-257 319.5,-257 319.5,-223 200.5,-223"/>
<text text-anchor="start" x="208.5" y="-244" font-family="FreeSans" font-size="10.00">Urho3D::PODVector&lt;</text>
<text text-anchor="middle" x="260" y="-231" font-family="FreeSans" font-size="10.00"> Urho3D::Object * &gt;</text>
</a>
</g>
<!-- Node6&#45;&gt;Node5 -->
<g id="edge12" class="edge"><title>Node6&#45;&gt;Node5</title>
<path fill="none" stroke="#9a32cd" stroke-dasharray="5,2" d="M273.403,-266.295C303.625,-322.874 382.737,-456.645 488,-526 495.352,-530.844 503.856,-534.522 512.405,-537.313"/>
<polygon fill="#9a32cd" stroke="#9a32cd" points="276.41,-264.494 268.653,-257.278 270.217,-267.756 276.41,-264.494"/>
<text text-anchor="middle" x="404" y="-512" font-family="FreeSans" font-size="10.00"> eventSenders_</text>
</g>
<!-- Node7 -->
<g id="node13" class="node"><title>Node7</title>
<a xlink:href="a00392.html" target="_top" xlink:title="Vector base class.">
<polygon fill="none" stroke="black" points="0,-72.5 0,-93.5 114,-93.5 114,-72.5 0,-72.5"/>
<text text-anchor="middle" x="57" y="-80.5" font-family="FreeSans" font-size="10.00">Urho3D::VectorBase</text>
</a>
</g>
<!-- Node7&#45;&gt;Node6 -->
<g id="edge14" class="edge"><title>Node7&#45;&gt;Node6</title>
<path fill="none" stroke="midnightblue" d="M78.6884,-99.7738C117.537,-129.819 198.588,-192.504 237.802,-222.832"/>
<polygon fill="midnightblue" stroke="midnightblue" points="80.6862,-96.8942 70.6346,-93.545 76.4037,-102.431 80.6862,-96.8942"/>
</g>
<!-- Node9 -->
<g id="node17" class="node"><title>Node9</title>
<a xlink:href="a00278.html" target="_top" xlink:title="Urho3D::PODVector\&lt;\l Urho3D::UIElement * \&gt;">
<polygon fill="none" stroke="black" points="338.5,-46 338.5,-80 469.5,-80 469.5,-46 338.5,-46"/>
<text text-anchor="start" x="346.5" y="-67" font-family="FreeSans" font-size="10.00">Urho3D::PODVector&lt;</text>
<text text-anchor="middle" x="404" y="-54" font-family="FreeSans" font-size="10.00"> Urho3D::UIElement * &gt;</text>
</a>
</g>
<!-- Node7&#45;&gt;Node9 -->
<g id="edge20" class="edge"><title>Node7&#45;&gt;Node9</title>
<path fill="none" stroke="midnightblue" d="M124.337,-79.1189C186.118,-75.5581 277.073,-70.3157 338.324,-66.7854"/>
<polygon fill="midnightblue" stroke="midnightblue" points="124.082,-75.6277 114.3,-79.6974 124.485,-82.6161 124.082,-75.6277"/>
</g>
<!-- Node24 -->
<g id="node60" class="node"><title>Node24</title>
<a xlink:href="a00278.html" target="_top" xlink:title="Urho3D::PODVector\&lt;\l float \&gt;">
<polygon fill="none" stroke="black" points="652.5,-0 652.5,-34 771.5,-34 771.5,-0 652.5,-0"/>
<text text-anchor="start" x="660.5" y="-21" font-family="FreeSans" font-size="10.00">Urho3D::PODVector&lt;</text>
<text text-anchor="middle" x="712" y="-8" font-family="FreeSans" font-size="10.00"> float &gt;</text>
</a>
</g>
<!-- Node7&#45;&gt;Node24 -->
<g id="edge76" class="edge"><title>Node7&#45;&gt;Node24</title>
<path fill="none" stroke="midnightblue" d="M120.277,-70.6186C177.053,-59.9934 262.776,-45.144 338,-37 448.544,-25.0321 578.28,-20.1289 652.246,-18.1923"/>
<polygon fill="midnightblue" stroke="midnightblue" points="119.551,-67.1938 110.372,-72.4845 120.847,-74.0728 119.551,-67.1938"/>
</g>
<!-- Node25 -->
<g id="node63" class="node"><title>Node25</title>
<a xlink:href="a00278.html" target="_top" xlink:title="Urho3D::PODVector\&lt;\l Urho3D::UIBatch \&gt;">
<polygon fill="none" stroke="black" points="898.5,-86 898.5,-120 1017.5,-120 1017.5,-86 898.5,-86"/>
<text text-anchor="start" x="906.5" y="-107" font-family="FreeSans" font-size="10.00">Urho3D::PODVector&lt;</text>
<text text-anchor="middle" x="958" y="-94" font-family="FreeSans" font-size="10.00"> Urho3D::UIBatch &gt;</text>
</a>
</g>
<!-- Node7&#45;&gt;Node25 -->
<g id="edge80" class="edge"><title>Node7&#45;&gt;Node25</title>
<path fill="none" stroke="midnightblue" d="M124.199,-92.9614C163.659,-97.9743 214.554,-103 260,-103 260,-103 260,-103 712,-103 775.635,-103 848.53,-103 898.349,-103"/>
<polygon fill="midnightblue" stroke="midnightblue" points="124.533,-89.4755 114.165,-91.656 123.63,-96.417 124.533,-89.4755"/>
</g>
<!-- Node8 -->
<g id="node15" class="node"><title>Node8</title>
<a xlink:href="a00209.html" target="_top" xlink:title="Urho3D::LinkedList\l\&lt; Urho3D::EventHandler \&gt;">
<polygon fill="none" stroke="red" points="488,-483 488,-517 634,-517 634,-483 488,-483"/>
<text text-anchor="start" x="496" y="-504" font-family="FreeSans" font-size="10.00">Urho3D::LinkedList</text>
<text text-anchor="middle" x="561" y="-491" font-family="FreeSans" font-size="10.00">&lt; Urho3D::EventHandler &gt;</text>
</a>
</g>
<!-- Node8&#45;&gt;Node2 -->
<g id="edge16" class="edge"><title>Node8&#45;&gt;Node2</title>
<path fill="none" stroke="#9a32cd" stroke-dasharray="5,2" d="M644.272,-506.672C683.705,-511.428 731.028,-519.475 772,-533 788.649,-538.496 806.212,-548.048 818.552,-555.466"/>
<polygon fill="#9a32cd" stroke="#9a32cd" points="644.498,-503.175 634.163,-505.504 643.695,-510.129 644.498,-503.175"/>
<text text-anchor="middle" x="712" y="-537" font-family="FreeSans" font-size="10.00"> eventHandlers_</text>
</g>
<!-- Node9&#45;&gt;Node1 -->
<g id="edge18" class="edge"><title>Node9&#45;&gt;Node1</title>
<path fill="none" stroke="#9a32cd" stroke-dasharray="5,2" d="M479.931,-62.2326C542.27,-61.6685 632.854,-61 712,-61 712,-61 712,-61 1644,-61 1733.29,-61 1775.69,-35.209 1842,-95 1869.33,-119.646 1888.27,-237.254 1893.52,-273.404"/>
<polygon fill="#9a32cd" stroke="#9a32cd" points="479.757,-58.7339 469.789,-62.3257 479.821,-65.7336 479.757,-58.7339"/>
<text text-anchor="middle" x="1096" y="-65" font-family="FreeSans" font-size="10.00"> tempElements_</text>
</g>
<!-- Node10&#45;&gt;Node1 -->
<g id="edge22" class="edge"><title>Node10&#45;&gt;Node1</title>
<path fill="none" stroke="#9a32cd" stroke-dasharray="5,2" d="M1727.28,-601.627C1766.93,-600.608 1812.1,-591.942 1842,-563 1881.5,-524.763 1892.4,-341.436 1894.55,-294.807"/>
<polygon fill="#9a32cd" stroke="#9a32cd" points="1727.03,-598.129 1717.06,-601.727 1727.1,-605.129 1727.03,-598.129"/>
<text text-anchor="middle" x="1793" y="-604" font-family="FreeSans" font-size="10.00"> graphics_</text>
</g>
<!-- Node11&#45;&gt;Node10 -->
<g id="edge24" class="edge"><title>Node11&#45;&gt;Node10</title>
<path fill="none" stroke="#9a32cd" stroke-dasharray="5,2" d="M1397.98,-590.794C1447.7,-591.442 1518.07,-592.359 1570.83,-593.047"/>
<polygon fill="#9a32cd" stroke="#9a32cd" points="1397.74,-587.291 1387.69,-590.661 1397.65,-594.291 1397.74,-587.291"/>
<text text-anchor="middle" x="1477" y="-596" font-family="FreeSans" font-size="10.00"> ptr_</text>
</g>
<!-- Node12&#45;&gt;Node11 -->
<g id="edge28" class="edge"><title>Node12&#45;&gt;Node11</title>
<path fill="none" stroke="#9a32cd" stroke-dasharray="5,2" d="M1165.68,-614.169C1204.22,-608.733 1251.23,-602.1 1286.26,-597.159"/>
<polygon fill="#9a32cd" stroke="#9a32cd" points="1164.99,-610.733 1155.57,-615.596 1165.96,-617.664 1164.99,-610.733"/>
<text text-anchor="middle" x="1219" y="-616" font-family="FreeSans" font-size="10.00"> vertexBuffers_</text>
</g>
<!-- Node23 -->
<g id="node55" class="node"><title>Node23</title>
<a xlink:href="a00331.html" target="_top" xlink:title="Urho3D::SharedPtr\&lt;\l Urho3D::VertexBuffer \&gt;">
<polygon fill="none" stroke="black" points="1410.5,-635 1410.5,-669 1543.5,-669 1543.5,-635 1410.5,-635"/>
<text text-anchor="start" x="1418.5" y="-656" font-family="FreeSans" font-size="10.00">Urho3D::SharedPtr&lt;</text>
<text text-anchor="middle" x="1477" y="-643" font-family="FreeSans" font-size="10.00"> Urho3D::VertexBuffer &gt;</text>
</a>
</g>
<!-- Node12&#45;&gt;Node23 -->
<g id="edge68" class="edge"><title>Node12&#45;&gt;Node23</title>
<path fill="none" stroke="#9a32cd" stroke-dasharray="5,2" d="M1165.53,-629.11C1235.15,-634.227 1341.55,-642.046 1410.2,-647.091"/>
<polygon fill="#9a32cd" stroke="#9a32cd" points="1165.76,-625.617 1155.53,-628.375 1165.25,-632.599 1165.76,-625.617"/>
<text text-anchor="middle" x="1219" y="-640" font-family="FreeSans" font-size="10.00"> ptr_</text>
</g>
<!-- Node13 -->
<g id="node28" class="node"><title>Node13</title>
<a xlink:href="a00354.html" target="_top" xlink:title="String class.">
<polygon fill="none" stroke="black" points="1052,-425.5 1052,-446.5 1140,-446.5 1140,-425.5 1052,-425.5"/>
<text text-anchor="middle" x="1096" y="-433.5" font-family="FreeSans" font-size="10.00">Urho3D::String</text>
</a>
</g>
<!-- Node13&#45;&gt;Node1 -->
<g id="edge70" class="edge"><title>Node13&#45;&gt;Node1</title>
<path fill="none" stroke="#9a32cd" stroke-dasharray="5,2" d="M1150.48,-439.417C1312.93,-449.114 1786.12,-473.637 1842,-434 1865.77,-417.143 1886.36,-326.173 1892.87,-294.713"/>
<polygon fill="#9a32cd" stroke="#9a32cd" points="1150.43,-435.907 1140.24,-438.8 1150.01,-442.895 1150.43,-435.907"/>
<text text-anchor="middle" x="1477" y="-459" font-family="FreeSans" font-size="10.00"> clipBoard_</text>
</g>
<!-- Node13&#45;&gt;Node11 -->
<g id="edge32" class="edge"><title>Node13&#45;&gt;Node11</title>
<path fill="none" stroke="#9a32cd" stroke-dasharray="5,2" d="M1144.53,-449.629C1179.81,-461.043 1227.58,-479.72 1264,-506 1293.14,-527.028 1318.47,-561.843 1330.15,-579.31"/>
<polygon fill="#9a32cd" stroke="#9a32cd" points="1145.51,-446.27 1134.92,-446.601 1143.41,-452.946 1145.51,-446.27"/>
<text text-anchor="middle" x="1219" y="-562" font-family="FreeSans" font-size="10.00"> lastShaderName_</text>
<text text-anchor="middle" x="1219" y="-549" font-family="FreeSans" font-size="10.00">windowTitle_</text>
<text text-anchor="middle" x="1219" y="-536" font-family="FreeSans" font-size="10.00">shaderPath_</text>
<text text-anchor="middle" x="1219" y="-523" font-family="FreeSans" font-size="10.00">orientations_</text>
<text text-anchor="middle" x="1219" y="-510" font-family="FreeSans" font-size="10.00">shaderExtension_</text>
</g>
<!-- Node13&#45;&gt;Node13 -->
<g id="edge34" class="edge"><title>Node13&#45;&gt;Node13</title>
<path fill="none" stroke="#9a32cd" stroke-dasharray="5,2" d="M1073.52,-456.427C1075.25,-461.349 1082.75,-465 1096,-465 1117.21,-465 1123.67,-455.653 1115.38,-446.708"/>
<polygon fill="#9a32cd" stroke="#9a32cd" points="1076.91,-457.299 1076.62,-446.708 1070.24,-455.172 1076.91,-457.299"/>
<text text-anchor="middle" x="1096" y="-469" font-family="FreeSans" font-size="10.00"> EMPTY</text>
</g>
<!-- Node17 -->
<g id="node38" class="node"><title>Node17</title>
<a xlink:href="a00379.html" target="_top" xlink:title="Base class for UI elements.">
<polygon fill="none" stroke="red" points="1282.5,-370.5 1282.5,-391.5 1391.5,-391.5 1391.5,-370.5 1282.5,-370.5"/>
<text text-anchor="middle" x="1337" y="-378.5" font-family="FreeSans" font-size="10.00">Urho3D::UIElement</text>
</a>
</g>
<!-- Node13&#45;&gt;Node17 -->
<g id="edge48" class="edge"><title>Node13&#45;&gt;Node17</title>
<path fill="none" stroke="#9a32cd" stroke-dasharray="5,2" d="M1120.56,-420.317C1135.43,-411.622 1155.12,-401.486 1174,-396 1209.2,-385.77 1250.32,-382.041 1282.45,-380.859"/>
<polygon fill="#9a32cd" stroke="#9a32cd" points="1118.73,-417.332 1111.97,-425.49 1122.34,-423.328 1118.73,-417.332"/>
<text text-anchor="middle" x="1219" y="-413" font-family="FreeSans" font-size="10.00"> appliedStyle_</text>
<text text-anchor="middle" x="1219" y="-400" font-family="FreeSans" font-size="10.00">name_</text>
</g>
<!-- Node14 -->
<g id="node32" class="node"><title>Node14</title>
<a xlink:href="a00331.html" target="_top" xlink:title="Urho3D::SharedPtr\&lt;\l Urho3D::Cursor \&gt;">
<polygon fill="none" stroke="black" points="1586,-279 1586,-313 1702,-313 1702,-279 1586,-279"/>
<text text-anchor="start" x="1594" y="-300" font-family="FreeSans" font-size="10.00">Urho3D::SharedPtr&lt;</text>
<text text-anchor="middle" x="1644" y="-287" font-family="FreeSans" font-size="10.00"> Urho3D::Cursor &gt;</text>
</a>
</g>
<!-- Node14&#45;&gt;Node1 -->
<g id="edge38" class="edge"><title>Node14&#45;&gt;Node1</title>
<path fill="none" stroke="#9a32cd" stroke-dasharray="5,2" d="M1712.18,-287.552C1722.82,-286.508 1733.69,-285.599 1744,-285 1783.91,-282.679 1829.86,-282.768 1860.48,-283.22"/>
<polygon fill="#9a32cd" stroke="#9a32cd" points="1711.67,-284.086 1702.08,-288.588 1712.39,-291.049 1711.67,-284.086"/>
<text text-anchor="middle" x="1793" y="-289" font-family="FreeSans" font-size="10.00"> cursor_</text>
</g>
<!-- Node15 -->
<g id="node34" class="node"><title>Node15</title>
<a xlink:href="a00135.html" target="_top" xlink:title="Mouse cursor UI element.">
<polygon fill="none" stroke="red" points="1291.5,-285.5 1291.5,-306.5 1382.5,-306.5 1382.5,-285.5 1291.5,-285.5"/>
<text text-anchor="middle" x="1337" y="-293.5" font-family="FreeSans" font-size="10.00">Urho3D::Cursor</text>
</a>
</g>
<!-- Node15&#45;&gt;Node14 -->
<g id="edge40" class="edge"><title>Node15&#45;&gt;Node14</title>
<path fill="none" stroke="#9a32cd" stroke-dasharray="5,2" d="M1392.83,-296C1447.46,-296 1530.33,-296 1585.78,-296"/>
<polygon fill="#9a32cd" stroke="#9a32cd" points="1392.63,-292.5 1382.63,-296 1392.63,-299.5 1392.63,-292.5"/>
<text text-anchor="middle" x="1477" y="-300" font-family="FreeSans" font-size="10.00"> ptr_</text>
</g>
<!-- Node16 -->
<g id="node36" class="node"><title>Node16</title>
<a xlink:href="a00331.html" target="_top" xlink:title="Urho3D::SharedPtr\&lt;\l Urho3D::UIElement \&gt;">
<polygon fill="none" stroke="black" points="1582.5,-389 1582.5,-423 1705.5,-423 1705.5,-389 1582.5,-389"/>
<text text-anchor="start" x="1590.5" y="-410" font-family="FreeSans" font-size="10.00">Urho3D::SharedPtr&lt;</text>
<text text-anchor="middle" x="1644" y="-397" font-family="FreeSans" font-size="10.00"> Urho3D::UIElement &gt;</text>
</a>
</g>
<!-- Node16&#45;&gt;Node1 -->
<g id="edge42" class="edge"><title>Node16&#45;&gt;Node1</title>
<path fill="none" stroke="#9a32cd" stroke-dasharray="5,2" d="M1715.8,-405.796C1763.85,-404.352 1821.85,-399.673 1842,-386 1874.37,-364.04 1888.24,-315.916 1892.96,-294.564"/>
<polygon fill="#9a32cd" stroke="#9a32cd" points="1715.62,-402.3 1705.71,-406.058 1715.8,-409.297 1715.62,-402.3"/>
<text text-anchor="middle" x="1793" y="-421" font-family="FreeSans" font-size="10.00"> rootModalElement_</text>
<text text-anchor="middle" x="1793" y="-408" font-family="FreeSans" font-size="10.00">rootElement_</text>
</g>
<!-- Node17&#45;&gt;Node16 -->
<g id="edge44" class="edge"><title>Node17&#45;&gt;Node16</title>
<path fill="none" stroke="#9a32cd" stroke-dasharray="5,2" d="M1401.75,-388.222C1404.54,-388.493 1407.3,-388.754 1410,-389 1468.41,-394.321 1535.15,-399.035 1582.36,-402.141"/>
<polygon fill="#9a32cd" stroke="#9a32cd" points="1401.89,-384.718 1391.59,-387.203 1401.19,-391.684 1401.89,-384.718"/>
<text text-anchor="middle" x="1477" y="-403" font-family="FreeSans" font-size="10.00"> ptr_</text>
</g>
<!-- Node17&#45;&gt;Node17 -->
<g id="edge46" class="edge"><title>Node17&#45;&gt;Node17</title>
<path fill="none" stroke="#9a32cd" stroke-dasharray="5,2" d="M1315.25,-401.427C1316.93,-406.349 1324.18,-410 1337,-410 1357.51,-410 1363.76,-400.653 1355.75,-391.708"/>
<polygon fill="#9a32cd" stroke="#9a32cd" points="1318.65,-402.295 1318.25,-391.708 1311.96,-400.232 1318.65,-402.295"/>
<text text-anchor="middle" x="1337" y="-414" font-family="FreeSans" font-size="10.00"> parent_</text>
</g>
<!-- Node17&#45;&gt;Node19 -->
<g id="edge56" class="edge"><title>Node17&#45;&gt;Node19</title>
<path fill="none" stroke="#9a32cd" stroke-dasharray="5,2" d="M1401.75,-372.946C1404.54,-372.622 1407.3,-372.305 1410,-372 1463.87,-365.917 1524.79,-359.689 1570.97,-355.103"/>
<polygon fill="#9a32cd" stroke="#9a32cd" points="1401.12,-369.497 1391.6,-374.145 1401.94,-376.448 1401.12,-369.497"/>
<text text-anchor="middle" x="1477" y="-376" font-family="FreeSans" font-size="10.00"> ptr_</text>
</g>
<!-- Node18 -->
<g id="node42" class="node"><title>Node18</title>
<a xlink:href="a00197.html" target="_top" xlink:title="Two&#45;dimensional vector with integer values.">
<polygon fill="none" stroke="black" points="1042,-229.5 1042,-250.5 1150,-250.5 1150,-229.5 1042,-229.5"/>
<text text-anchor="middle" x="1096" y="-237.5" font-family="FreeSans" font-size="10.00">Urho3D::IntVector2</text>
</a>
</g>
<!-- Node18&#45;&gt;Node1 -->
<g id="edge72" class="edge"><title>Node18&#45;&gt;Node1</title>
<path fill="none" stroke="#9a32cd" stroke-dasharray="5,2" d="M1160.44,-241.551C1191.71,-242.398 1229.82,-243.567 1264,-245 1469.45,-253.615 1520.75,-257.37 1726,-270 1777.58,-273.174 1790.53,-273.314 1842,-278 1847.9,-278.537 1854.17,-279.181 1860.24,-279.844"/>
<polygon fill="#9a32cd" stroke="#9a32cd" points="1160.2,-238.044 1150.11,-241.277 1160.01,-245.041 1160.2,-238.044"/>
<text text-anchor="middle" x="1477" y="-262" font-family="FreeSans" font-size="10.00"> dragBeginPos_</text>
</g>
<!-- Node18&#45;&gt;Node17 -->
<g id="edge50" class="edge"><title>Node18&#45;&gt;Node17</title>
<path fill="none" stroke="#9a32cd" stroke-dasharray="5,2" d="M1160.35,-246.048C1193.97,-251.897 1234.19,-263.396 1264,-286 1276.39,-295.396 1272.95,-303.357 1282,-316 1296.46,-336.193 1315.63,-357.876 1327.1,-370.397"/>
<polygon fill="#9a32cd" stroke="#9a32cd" points="1160.57,-242.539 1150.14,-244.408 1159.46,-249.451 1160.57,-242.539"/>
<text text-anchor="middle" x="1219" y="-368" font-family="FreeSans" font-size="10.00"> maxSize_</text>
<text text-anchor="middle" x="1219" y="-355" font-family="FreeSans" font-size="10.00">childOffset_</text>
<text text-anchor="middle" x="1219" y="-342" font-family="FreeSans" font-size="10.00">size_</text>
<text text-anchor="middle" x="1219" y="-329" font-family="FreeSans" font-size="10.00">position_</text>
<text text-anchor="start" x="1184" y="-316" font-family="FreeSans" font-size="10.00">screenPosition</text>
<text text-anchor="middle" x="1219" y="-303" font-family="FreeSans" font-size="10.00">_</text>
<text text-anchor="middle" x="1219" y="-290" font-family="FreeSans" font-size="10.00">minSize_</text>
</g>
<!-- Node18&#45;&gt;Node18 -->
<g id="edge52" class="edge"><title>Node18&#45;&gt;Node18</title>
<path fill="none" stroke="#9a32cd" stroke-dasharray="5,2" d="M1073.52,-260.427C1075.25,-265.349 1082.75,-269 1096,-269 1117.21,-269 1123.67,-259.653 1115.38,-250.708"/>
<polygon fill="#9a32cd" stroke="#9a32cd" points="1076.91,-261.299 1076.62,-250.708 1070.24,-259.172 1076.91,-261.299"/>
<text text-anchor="middle" x="1096" y="-273" font-family="FreeSans" font-size="10.00"> ZERO</text>
</g>
<!-- Node19&#45;&gt;Node1 -->
<g id="edge54" class="edge"><title>Node19&#45;&gt;Node1</title>
<path fill="none" stroke="#9a32cd" stroke-dasharray="5,2" d="M1715.65,-328.347C1725.17,-325.826 1734.81,-323.318 1744,-321 1787.38,-310.056 1798.59,-308.825 1842,-298 1847.91,-296.526 1854.18,-294.914 1860.25,-293.326"/>
<polygon fill="#9a32cd" stroke="#9a32cd" points="1714.56,-325.015 1705.8,-330.971 1716.36,-331.779 1714.56,-325.015"/>
<text text-anchor="start" x="1744.5" y="-377" font-family="FreeSans" font-size="10.00"> doubleClickElement</text>
<text text-anchor="middle" x="1793" y="-364" font-family="FreeSans" font-size="10.00">_</text>
<text text-anchor="middle" x="1793" y="-351" font-family="FreeSans" font-size="10.00">clickElement_</text>
<text text-anchor="middle" x="1793" y="-338" font-family="FreeSans" font-size="10.00">dragElement_</text>
<text text-anchor="middle" x="1793" y="-325" font-family="FreeSans" font-size="10.00">focusElement_</text>
</g>
<!-- Node20 -->
<g id="node49" class="node"><title>Node20</title>
<a xlink:href="a00184.html" target="_top" xlink:title="Urho3D::HashMap\&lt; Urho3D\l::WeakPtr\&lt; Urho3D::UIElement\l \&gt;, bool \&gt;">
<polygon fill="none" stroke="black" points="1562,-175.5 1562,-222.5 1726,-222.5 1726,-175.5 1562,-175.5"/>
<text text-anchor="start" x="1570" y="-209.5" font-family="FreeSans" font-size="10.00">Urho3D::HashMap&lt; Urho3D</text>
<text text-anchor="start" x="1570" y="-196.5" font-family="FreeSans" font-size="10.00">::WeakPtr&lt; Urho3D::UIElement</text>
<text text-anchor="middle" x="1644" y="-183.5" font-family="FreeSans" font-size="10.00"> &gt;, bool &gt;</text>
</a>
</g>
<!-- Node20&#45;&gt;Node1 -->
<g id="edge60" class="edge"><title>Node20&#45;&gt;Node1</title>
<path fill="none" stroke="#9a32cd" stroke-dasharray="5,2" d="M1736.62,-197.142C1771.34,-199.841 1810.08,-207.121 1842,-224 1863.62,-235.435 1880.57,-259.506 1889.04,-273.434"/>
<polygon fill="#9a32cd" stroke="#9a32cd" points="1736.67,-193.638 1726.46,-196.472 1736.21,-200.623 1736.67,-193.638"/>
<text text-anchor="middle" x="1793" y="-228" font-family="FreeSans" font-size="10.00"> hoveredElements_</text>
</g>
<!-- Node21 -->
<g id="node51" class="node"><title>Node21</title>
<a xlink:href="a00182.html" target="_top" xlink:title="Hash set/map base class.">
<polygon fill="none" stroke="red" points="1283,-188.5 1283,-209.5 1391,-209.5 1391,-188.5 1283,-188.5"/>
<text text-anchor="middle" x="1337" y="-196.5" font-family="FreeSans" font-size="10.00">Urho3D::HashBase</text>
</a>
</g>
<!-- Node21&#45;&gt;Node20 -->
<g id="edge62" class="edge"><title>Node21&#45;&gt;Node20</title>
<path fill="none" stroke="midnightblue" d="M1401.46,-199C1448.09,-199 1511.49,-199 1561.77,-199"/>
<polygon fill="midnightblue" stroke="midnightblue" points="1401.18,-195.5 1391.18,-199 1401.18,-202.5 1401.18,-195.5"/>
</g>
<!-- Node22 -->
<g id="node53" class="node"><title>Node22</title>
<a xlink:href="a00371.html" target="_top" xlink:title="Low&#45;resolution operating system timer.">
<polygon fill="none" stroke="black" points="1601,-135.5 1601,-156.5 1687,-156.5 1687,-135.5 1601,-135.5"/>
<text text-anchor="middle" x="1644" y="-143.5" font-family="FreeSans" font-size="10.00">Urho3D::Timer</text>
</a>
</g>
<!-- Node22&#45;&gt;Node1 -->
<g id="edge64" class="edge"><title>Node22&#45;&gt;Node1</title>
<path fill="none" stroke="#9a32cd" stroke-dasharray="5,2" d="M1697.33,-138.457C1740.36,-135.306 1800.37,-137.871 1842,-168 1877.69,-193.832 1889.92,-249.598 1893.6,-273.15"/>
<polygon fill="#9a32cd" stroke="#9a32cd" points="1696.99,-134.973 1687.33,-139.314 1697.59,-141.947 1696.99,-134.973"/>
<text text-anchor="middle" x="1793" y="-185" font-family="FreeSans" font-size="10.00"> dragBeginTimer_</text>
<text text-anchor="middle" x="1793" y="-172" font-family="FreeSans" font-size="10.00">clickTimer_</text>
</g>
<!-- Node23&#45;&gt;Node1 -->
<g id="edge66" class="edge"><title>Node23&#45;&gt;Node1</title>
<path fill="none" stroke="#9a32cd" stroke-dasharray="5,2" d="M1553.75,-669.173C1636.15,-682.684 1765.51,-688.87 1842,-617 1866.26,-594.201 1889.26,-348.941 1894.08,-294.615"/>
<polygon fill="#9a32cd" stroke="#9a32cd" points="1554.13,-665.688 1543.69,-667.449 1552.95,-672.588 1554.13,-665.688"/>
<text text-anchor="middle" x="1644" y="-694" font-family="FreeSans" font-size="10.00"> vertexBuffer_</text>
<text text-anchor="middle" x="1644" y="-681" font-family="FreeSans" font-size="10.00">debugVertexBuffer_</text>
</g>
<!-- Node24&#45;&gt;Node1 -->
<g id="edge74" class="edge"><title>Node24&#45;&gt;Node1</title>
<path fill="none" stroke="#9a32cd" stroke-dasharray="5,2" d="M781.871,-16.1298C831.108,-15.5905 898.588,-15 958,-15 958,-15 958,-15 1644,-15 1733.14,-15 1777.11,14.121 1842,-47 1875.84,-78.872 1890.7,-231.667 1894.18,-273.43"/>
<polygon fill="#9a32cd" stroke="#9a32cd" points="781.61,-12.6324 771.65,-16.2439 781.689,-19.632 781.61,-12.6324"/>
<text text-anchor="middle" x="1219" y="-32" font-family="FreeSans" font-size="10.00"> vertexData_</text>
<text text-anchor="middle" x="1219" y="-19" font-family="FreeSans" font-size="10.00">debugVertexData_</text>
</g>
<!-- Node25&#45;&gt;Node1 -->
<g id="edge78" class="edge"><title>Node25&#45;&gt;Node1</title>
<path fill="none" stroke="#9a32cd" stroke-dasharray="5,2" d="M1027.82,-104.651C1080.38,-105.752 1154.21,-107 1219,-107 1219,-107 1219,-107 1644,-107 1732.81,-107 1773.13,-77.9237 1842,-134 1864.6,-152.398 1885.95,-242.368 1892.76,-273.43"/>
<polygon fill="#9a32cd" stroke="#9a32cd" points="1027.67,-101.147 1017.6,-104.433 1027.52,-108.145 1027.67,-101.147"/>
<text text-anchor="middle" x="1337" y="-124" font-family="FreeSans" font-size="10.00"> batches_</text>
<text text-anchor="middle" x="1337" y="-111" font-family="FreeSans" font-size="10.00">debugDrawBatches_</text>
</g>
</g>
</svg>
