<?xml version="1.0" encoding="UTF-8" standalone="no"?>
<!DOCTYPE svg PUBLIC "-//W3C//DTD SVG 1.1//EN"
 "http://www.w3.org/Graphics/SVG/1.1/DTD/svg11.dtd">
<!-- Generated by graphviz version 2.26.3 (20100126.1600)
 -->
<!-- Title: Urho3D::Button Pages: 1 -->
<svg width="1772pt" height="674pt"
 viewBox="0.00 0.00 1772.00 674.00" xmlns="http://www.w3.org/2000/svg" xmlns:xlink="http://www.w3.org/1999/xlink">
<g id="graph1" class="graph" transform="scale(1 1) rotate(0) translate(4 670)">
<title>Urho3D::Button</title>
<!-- Node1 -->
<g id="node1" class="node"><title>Node1</title>
<polygon fill="#bfbfbf" stroke="black" points="1672,-569.5 1672,-590.5 1764,-590.5 1764,-569.5 1672,-569.5"/>
<text text-anchor="middle" x="1718" y="-577.5" font-family="FreeSans" font-size="10.00">Urho3D::Button</text>
</g>
<!-- Node2 -->
<g id="node2" class="node"><title>Node2</title>
<a xlink:href="a00086.html" target="_top" xlink:title="Image UI element with optional border.">
<polygon fill="none" stroke="black" points="1512,-359.5 1512,-380.5 1634,-380.5 1634,-359.5 1512,-359.5"/>
<text text-anchor="middle" x="1573" y="-367.5" font-family="FreeSans" font-size="10.00">Urho3D::BorderImage</text>
</a>
</g>
<!-- Node2&#45;&gt;Node1 -->
<g id="edge2" class="edge"><title>Node2&#45;&gt;Node1</title>
<path fill="none" stroke="midnightblue" d="M1586.24,-389.168C1616.01,-432.291 1687.47,-535.788 1710.62,-569.319"/>
<polygon fill="midnightblue" stroke="midnightblue" points="1588.95,-386.943 1580.39,-380.703 1583.19,-390.92 1588.95,-386.943"/>
</g>
<!-- Node3 -->
<g id="node4" class="node"><title>Node3</title>
<a xlink:href="a00379.html" target="_top" xlink:title="Base class for UI elements.">
<polygon fill="none" stroke="black" points="1269.5,-359.5 1269.5,-380.5 1378.5,-380.5 1378.5,-359.5 1269.5,-359.5"/>
<text text-anchor="middle" x="1324" y="-367.5" font-family="FreeSans" font-size="10.00">Urho3D::UIElement</text>
</a>
</g>
<!-- Node3&#45;&gt;Node2 -->
<g id="edge4" class="edge"><title>Node3&#45;&gt;Node2</title>
<path fill="none" stroke="midnightblue" d="M1389.08,-370C1427.06,-370 1474.66,-370 1511.93,-370"/>
<polygon fill="midnightblue" stroke="midnightblue" points="1388.64,-366.5 1378.64,-370 1388.64,-373.5 1388.64,-366.5"/>
</g>
<!-- Node3&#45;&gt;Node3 -->
<g id="edge38" class="edge"><title>Node3&#45;&gt;Node3</title>
<path fill="none" stroke="#9a32cd" stroke-dasharray="5,2" d="M1302.99,-390.427C1304.61,-395.349 1311.61,-399 1324,-399 1343.82,-399 1349.85,-389.653 1342.11,-380.708"/>
<polygon fill="#9a32cd" stroke="#9a32cd" points="1306.39,-391.291 1305.89,-380.708 1299.68,-389.292 1306.39,-391.291"/>
<text text-anchor="middle" x="1324" y="-403" font-family="FreeSans" font-size="10.00"> parent_</text>
</g>
<!-- Node4 -->
<g id="node6" class="node"><title>Node4</title>
<a xlink:href="a00054.html" target="_top" xlink:title="Base class for animatable object, an animatable object can be set animation on it&#39;s attributes...">
<polygon fill="none" stroke="black" points="996,-543.5 996,-564.5 1110,-564.5 1110,-543.5 996,-543.5"/>
<text text-anchor="middle" x="1053" y="-551.5" font-family="FreeSans" font-size="10.00">Urho3D::Animatable</text>
</a>
</g>
<!-- Node4&#45;&gt;Node3 -->
<g id="edge6" class="edge"><title>Node4&#45;&gt;Node3</title>
<path fill="none" stroke="midnightblue" d="M1078.58,-538.2C1101.87,-524.198 1137.49,-503.746 1170,-489 1203.54,-473.784 1217.81,-482.095 1248,-461 1280.06,-438.602 1306.39,-399.324 1317.84,-380.561"/>
<polygon fill="midnightblue" stroke="midnightblue" points="1076.73,-535.23 1069.99,-543.407 1080.35,-541.216 1076.73,-535.23"/>
</g>
<!-- Node5 -->
<g id="node8" class="node"><title>Node5</title>
<a xlink:href="a00321.html" target="_top" xlink:title="Base class for objects with automatic serialization through attributes.">
<polygon fill="none" stroke="red" points="612,-497.5 612,-518.5 726,-518.5 726,-497.5 612,-497.5"/>
<text text-anchor="middle" x="669" y="-505.5" font-family="FreeSans" font-size="10.00">Urho3D::Serializable</text>
</a>
</g>
<!-- Node5&#45;&gt;Node4 -->
<g id="edge8" class="edge"><title>Node5&#45;&gt;Node4</title>
<path fill="none" stroke="midnightblue" d="M736.164,-516.046C809.77,-524.863 926.586,-538.857 995.926,-547.163"/>
<polygon fill="midnightblue" stroke="midnightblue" points="736.419,-512.551 726.074,-514.837 735.587,-519.502 736.419,-512.551"/>
</g>
<!-- Node6 -->
<g id="node10" class="node"><title>Node6</title>
<a xlink:href="a00249.html" target="_top" xlink:title="Base class for objects with type identification, subsystem access and event sending/receiving capabil...">
<polygon fill="none" stroke="red" points="9,-461.5 9,-482.5 99,-482.5 99,-461.5 9,-461.5"/>
<text text-anchor="middle" x="54" y="-469.5" font-family="FreeSans" font-size="10.00">Urho3D::Object</text>
</a>
</g>
<!-- Node6&#45;&gt;Node5 -->
<g id="edge10" class="edge"><title>Node6&#45;&gt;Node5</title>
<path fill="none" stroke="midnightblue" d="M109.322,-475.238C225.557,-482.042 494.106,-497.762 611.887,-504.657"/>
<polygon fill="midnightblue" stroke="midnightblue" points="109.41,-471.738 99.2224,-474.647 109.001,-478.726 109.41,-471.738"/>
</g>
<!-- Node20 -->
<g id="node45" class="node"><title>Node20</title>
<a xlink:href="a00301.html" target="_top" xlink:title="Base class for resources.">
<polygon fill="none" stroke="red" points="229.5,-357.5 229.5,-378.5 332.5,-378.5 332.5,-357.5 229.5,-357.5"/>
<text text-anchor="middle" x="281" y="-365.5" font-family="FreeSans" font-size="10.00">Urho3D::Resource</text>
</a>
</g>
<!-- Node6&#45;&gt;Node20 -->
<g id="edge54" class="edge"><title>Node6&#45;&gt;Node20</title>
<path fill="none" stroke="midnightblue" d="M86.3193,-457.193C132.765,-435.914 217.261,-397.202 257.924,-378.572"/>
<polygon fill="midnightblue" stroke="midnightblue" points="84.6486,-454.108 77.0152,-461.456 87.5643,-460.472 84.6486,-454.108"/>
</g>
<!-- Node7 -->
<g id="node12" class="node"><title>Node7</title>
<a xlink:href="a00184.html" target="_top" xlink:title="Hash map template class.">
<polygon fill="none" stroke="black" points="208,-538.5 208,-559.5 354,-559.5 354,-538.5 208,-538.5"/>
<text text-anchor="middle" x="281" y="-546.5" font-family="FreeSans" font-size="10.00">Urho3D::HashMap&lt; T, U &gt;</text>
</a>
</g>
<!-- Node7&#45;&gt;Node5 -->
<g id="edge12" class="edge"><title>Node7&#45;&gt;Node5</title>
<path fill="none" stroke="#9a32cd" stroke-dasharray="5,2" d="M364.2,-541.958C422.9,-536.767 503.346,-529.207 574,-521 586.236,-519.579 599.336,-517.893 611.779,-516.214"/>
<polygon fill="#9a32cd" stroke="#9a32cd" points="363.892,-538.471 354.237,-542.834 364.506,-545.444 363.892,-538.471"/>
<text text-anchor="middle" x="473" y="-545" font-family="FreeSans" font-size="10.00"> instanceDefaultValues_</text>
</g>
<!-- Node8 -->
<g id="node14" class="node"><title>Node8</title>
<a xlink:href="a00182.html" target="_top" xlink:title="Hash set/map base class.">
<polygon fill="none" stroke="red" points="0,-560.5 0,-581.5 108,-581.5 108,-560.5 0,-560.5"/>
<text text-anchor="middle" x="54" y="-568.5" font-family="FreeSans" font-size="10.00">Urho3D::HashBase</text>
</a>
</g>
<!-- Node8&#45;&gt;Node7 -->
<g id="edge14" class="edge"><title>Node8&#45;&gt;Node7</title>
<path fill="none" stroke="midnightblue" d="M118.107,-564.787C145.965,-562.087 178.754,-558.909 207.584,-556.115"/>
<polygon fill="midnightblue" stroke="midnightblue" points="117.699,-561.31 108.084,-565.758 118.375,-568.277 117.699,-561.31"/>
</g>
<!-- Node9 -->
<g id="node16" class="node"><title>Node9</title>
<a xlink:href="a00184.html" target="_top" xlink:title="Urho3D::HashMap\&lt; Urho3D\l::String, Urho3D::SharedPtr\l\&lt; Urho3D::AttributeAnimationInfo \&gt; \&gt;">
<polygon fill="none" stroke="black" points="372.5,-567.5 372.5,-614.5 573.5,-614.5 573.5,-567.5 372.5,-567.5"/>
<text text-anchor="start" x="380.5" y="-601.5" font-family="FreeSans" font-size="10.00">Urho3D::HashMap&lt; Urho3D</text>
<text text-anchor="start" x="380.5" y="-588.5" font-family="FreeSans" font-size="10.00">::String, Urho3D::SharedPtr</text>
<text text-anchor="middle" x="473" y="-575.5" font-family="FreeSans" font-size="10.00">&lt; Urho3D::AttributeAnimationInfo &gt; &gt;</text>
</a>
</g>
<!-- Node8&#45;&gt;Node9 -->
<g id="edge18" class="edge"><title>Node8&#45;&gt;Node9</title>
<path fill="none" stroke="midnightblue" d="M118.442,-574.076C186.086,-577.305 293.359,-582.425 372.211,-586.189"/>
<polygon fill="midnightblue" stroke="midnightblue" points="118.503,-570.575 108.347,-573.594 118.169,-577.567 118.503,-570.575"/>
</g>
<!-- Node11 -->
<g id="node21" class="node"><title>Node11</title>
<a xlink:href="a00186.html" target="_top" xlink:title="Urho3D::HashSet\&lt; const\l Urho3D::AttributeInfo * \&gt;">
<polygon fill="none" stroke="black" points="402.5,-632 402.5,-666 543.5,-666 543.5,-632 402.5,-632"/>
<text text-anchor="start" x="410.5" y="-653" font-family="FreeSans" font-size="10.00">Urho3D::HashSet&lt; const</text>
<text text-anchor="middle" x="473" y="-640" font-family="FreeSans" font-size="10.00"> Urho3D::AttributeInfo * &gt;</text>
</a>
</g>
<!-- Node8&#45;&gt;Node11 -->
<g id="edge24" class="edge"><title>Node8&#45;&gt;Node11</title>
<path fill="none" stroke="midnightblue" d="M103.83,-583.964C111.242,-585.745 118.806,-587.481 126,-589 221.111,-609.083 331.934,-627.365 402.262,-638.335"/>
<polygon fill="midnightblue" stroke="midnightblue" points="104.412,-580.503 93.8667,-581.524 102.747,-587.302 104.412,-580.503"/>
</g>
<!-- Node15 -->
<g id="node31" class="node"><title>Node15</title>
<a xlink:href="a00184.html" target="_top" xlink:title="Urho3D::HashMap\&lt; StringHash,\l Variant \&gt;">
<polygon fill="none" stroke="black" points="764,-448 764,-482 936,-482 936,-448 764,-448"/>
<text text-anchor="start" x="772" y="-469" font-family="FreeSans" font-size="10.00">Urho3D::HashMap&lt; StringHash,</text>
<text text-anchor="middle" x="850" y="-456" font-family="FreeSans" font-size="10.00"> Variant &gt;</text>
</a>
</g>
<!-- Node8&#45;&gt;Node15 -->
<g id="edge36" class="edge"><title>Node8&#45;&gt;Node15</title>
<path fill="none" stroke="midnightblue" d="M96.6165,-557.402C127.296,-548.1 169.831,-536.195 208,-529 404.892,-491.887 640.075,-475.391 763.912,-468.821"/>
<polygon fill="midnightblue" stroke="midnightblue" points="95.2243,-554.168 86.69,-560.446 97.2767,-560.861 95.2243,-554.168"/>
</g>
<!-- Node9&#45;&gt;Node4 -->
<g id="edge16" class="edge"><title>Node9&#45;&gt;Node4</title>
<path fill="none" stroke="#9a32cd" stroke-dasharray="5,2" d="M584.006,-589.482C677.941,-587.414 816.035,-582.529 936,-571 955.512,-569.125 976.749,-566.283 995.708,-563.456"/>
<polygon fill="#9a32cd" stroke="#9a32cd" points="583.84,-585.985 573.917,-589.697 583.989,-592.983 583.84,-585.985"/>
<text text-anchor="middle" x="669" y="-593" font-family="FreeSans" font-size="10.00"> attributeAnimationInfos_</text>
</g>
<!-- Node10 -->
<g id="node19" class="node"><title>Node10</title>
<a xlink:href="a00331.html" target="_top" xlink:title="Urho3D::SharedPtr\&lt;\l Urho3D::ObjectAnimation \&gt;">
<polygon fill="none" stroke="red" points="592.5,-537 592.5,-571 745.5,-571 745.5,-537 592.5,-537"/>
<text text-anchor="start" x="600.5" y="-558" font-family="FreeSans" font-size="10.00">Urho3D::SharedPtr&lt;</text>
<text text-anchor="middle" x="669" y="-545" font-family="FreeSans" font-size="10.00"> Urho3D::ObjectAnimation &gt;</text>
</a>
</g>
<!-- Node10&#45;&gt;Node4 -->
<g id="edge20" class="edge"><title>Node10&#45;&gt;Node4</title>
<path fill="none" stroke="#9a32cd" stroke-dasharray="5,2" d="M755.936,-554C829.318,-554 932.285,-554 995.714,-554"/>
<polygon fill="#9a32cd" stroke="#9a32cd" points="755.785,-550.5 745.785,-554 755.785,-557.5 755.785,-550.5"/>
<text text-anchor="middle" x="850" y="-558" font-family="FreeSans" font-size="10.00"> objectAnimation_</text>
</g>
<!-- Node11&#45;&gt;Node4 -->
<g id="edge22" class="edge"><title>Node11&#45;&gt;Node4</title>
<path fill="none" stroke="#9a32cd" stroke-dasharray="5,2" d="M554.025,-642.918C647.015,-634.961 803.732,-618.555 936,-590 966.33,-583.452 1000.12,-572.664 1023.56,-564.601"/>
<polygon fill="#9a32cd" stroke="#9a32cd" points="553.511,-639.449 543.841,-643.778 554.1,-646.424 553.511,-639.449"/>
<text text-anchor="middle" x="669" y="-642" font-family="FreeSans" font-size="10.00"> animatedNetworkAttributes_</text>
</g>
<!-- Node12 -->
<g id="node24" class="node"><title>Node12</title>
<a xlink:href="a00196.html" target="_top" xlink:title="Two&#45;dimensional bounding rectangle with integer values.">
<polygon fill="none" stroke="black" points="1007,-120.5 1007,-141.5 1099,-141.5 1099,-120.5 1007,-120.5"/>
<text text-anchor="middle" x="1053" y="-128.5" font-family="FreeSans" font-size="10.00">Urho3D::IntRect</text>
</a>
</g>
<!-- Node12&#45;&gt;Node2 -->
<g id="edge66" class="edge"><title>Node12&#45;&gt;Node2</title>
<path fill="none" stroke="#9a32cd" stroke-dasharray="5,2" d="M1109.36,-126.907C1149.19,-125.88 1203.23,-128.308 1248,-144 1388.74,-193.325 1524.4,-321.415 1562.47,-359.297"/>
<polygon fill="#9a32cd" stroke="#9a32cd" points="1109.18,-123.412 1099.3,-127.248 1109.41,-130.408 1109.18,-123.412"/>
<text text-anchor="middle" x="1324" y="-242" font-family="FreeSans" font-size="10.00"> imageRect_</text>
<text text-anchor="middle" x="1324" y="-229" font-family="FreeSans" font-size="10.00">border_</text>
<text text-anchor="middle" x="1324" y="-216" font-family="FreeSans" font-size="10.00">imageBorder_</text>
</g>
<!-- Node12&#45;&gt;Node3 -->
<g id="edge26" class="edge"><title>Node12&#45;&gt;Node3</title>
<path fill="none" stroke="#9a32cd" stroke-dasharray="5,2" d="M1109.36,-134.327C1159.28,-138.361 1227.36,-146.875 1248,-164 1310.79,-216.084 1321.71,-325.041 1323.6,-359.391"/>
<polygon fill="#9a32cd" stroke="#9a32cd" points="1109.56,-130.832 1099.32,-133.555 1109.02,-137.811 1109.56,-130.832"/>
<text text-anchor="middle" x="1209" y="-181" font-family="FreeSans" font-size="10.00"> clipBorder_</text>
<text text-anchor="middle" x="1209" y="-168" font-family="FreeSans" font-size="10.00">layoutBorder_</text>
</g>
<!-- Node12&#45;&gt;Node12 -->
<g id="edge28" class="edge"><title>Node12&#45;&gt;Node12</title>
<path fill="none" stroke="#9a32cd" stroke-dasharray="5,2" d="M1024.1,-151.055C1025.99,-156.164 1035.63,-160 1053,-160 1080.12,-160 1088.38,-150.653 1077.79,-141.708"/>
<polygon fill="#9a32cd" stroke="#9a32cd" points="1027.39,-152.27 1028.21,-141.708 1020.98,-149.45 1027.39,-152.27"/>
<text text-anchor="middle" x="1053" y="-164" font-family="FreeSans" font-size="10.00"> ZERO</text>
</g>
<!-- Node13 -->
<g id="node27" class="node"><title>Node13</title>
<a xlink:href="a00388.html" target="_top" xlink:title="Urho3D::Vector\&lt; Urho3D\l::SharedPtr\&lt; Urho3D::UIElement \&gt; \&gt;">
<polygon fill="none" stroke="black" points="954.5,-301 954.5,-335 1151.5,-335 1151.5,-301 954.5,-301"/>
<text text-anchor="start" x="962.5" y="-322" font-family="FreeSans" font-size="10.00">Urho3D::Vector&lt; Urho3D</text>
<text text-anchor="middle" x="1053" y="-309" font-family="FreeSans" font-size="10.00">::SharedPtr&lt; Urho3D::UIElement &gt; &gt;</text>
</a>
</g>
<!-- Node13&#45;&gt;Node3 -->
<g id="edge30" class="edge"><title>Node13&#45;&gt;Node3</title>
<path fill="none" stroke="#9a32cd" stroke-dasharray="5,2" d="M1161.72,-336.67C1189.86,-341.735 1220.1,-347.379 1248,-353 1257.81,-354.976 1268.3,-357.23 1278.25,-359.437"/>
<polygon fill="#9a32cd" stroke="#9a32cd" points="1162.32,-333.221 1151.86,-334.904 1161.08,-340.112 1162.32,-333.221"/>
<text text-anchor="middle" x="1209" y="-357" font-family="FreeSans" font-size="10.00"> children_</text>
</g>
<!-- Node14 -->
<g id="node29" class="node"><title>Node14</title>
<a xlink:href="a00392.html" target="_top" xlink:title="Vector base class.">
<polygon fill="none" stroke="black" points="612,-317.5 612,-338.5 726,-338.5 726,-317.5 612,-317.5"/>
<text text-anchor="middle" x="669" y="-325.5" font-family="FreeSans" font-size="10.00">Urho3D::VectorBase</text>
</a>
</g>
<!-- Node14&#45;&gt;Node13 -->
<g id="edge32" class="edge"><title>Node14&#45;&gt;Node13</title>
<path fill="none" stroke="midnightblue" d="M736.239,-326.249C796.537,-324.679 885.79,-322.354 954.201,-320.573"/>
<polygon fill="midnightblue" stroke="midnightblue" points="735.979,-322.754 726.074,-326.514 736.162,-329.752 735.979,-322.754"/>
</g>
<!-- Node15&#45;&gt;Node3 -->
<g id="edge34" class="edge"><title>Node15&#45;&gt;Node3</title>
<path fill="none" stroke="#9a32cd" stroke-dasharray="5,2" d="M946.427,-471.166C1029.26,-473.03 1150.4,-467.437 1248,-429 1275.35,-418.228 1301.02,-394.38 1314.39,-380.528"/>
<polygon fill="#9a32cd" stroke="#9a32cd" points="946.357,-467.663 936.267,-470.896 946.17,-474.661 946.357,-467.663"/>
<text text-anchor="middle" x="1053" y="-475" font-family="FreeSans" font-size="10.00"> vars_</text>
</g>
<!-- Node16 -->
<g id="node35" class="node"><title>Node16</title>
<a xlink:href="a00354.html" target="_top" xlink:title="String class.">
<polygon fill="none" stroke="black" points="10,-357.5 10,-378.5 98,-378.5 98,-357.5 10,-357.5"/>
<text text-anchor="middle" x="54" y="-365.5" font-family="FreeSans" font-size="10.00">Urho3D::String</text>
</a>
</g>
<!-- Node16&#45;&gt;Node3 -->
<g id="edge40" class="edge"><title>Node16&#45;&gt;Node3</title>
<path fill="none" stroke="#9a32cd" stroke-dasharray="5,2" d="M94.4693,-381.589C139.472,-395.471 214.587,-415 281,-415 281,-415 281,-415 1053,-415 1136.7,-415 1233,-393.851 1285.29,-380.551"/>
<polygon fill="#9a32cd" stroke="#9a32cd" points="95.3816,-378.207 84.7922,-378.548 93.2825,-384.885 95.3816,-378.207"/>
<text text-anchor="middle" x="669" y="-432" font-family="FreeSans" font-size="10.00"> appliedStyle_</text>
<text text-anchor="middle" x="669" y="-419" font-family="FreeSans" font-size="10.00">name_</text>
</g>
<!-- Node16&#45;&gt;Node16 -->
<g id="edge42" class="edge"><title>Node16&#45;&gt;Node16</title>
<path fill="none" stroke="#9a32cd" stroke-dasharray="5,2" d="M34.8339,-388.427C36.3125,-393.349 42.7012,-397 54,-397 72.0781,-397 77.5863,-387.653 70.5245,-378.708"/>
<polygon fill="#9a32cd" stroke="#9a32cd" points="38.23,-389.276 37.4755,-378.708 31.4751,-387.44 38.23,-389.276"/>
<text text-anchor="middle" x="54" y="-401" font-family="FreeSans" font-size="10.00"> EMPTY</text>
</g>
<!-- Node17 -->
<g id="node38" class="node"><title>Node17</title>
<a xlink:href="a00409.html" target="_top" xlink:title="XPath query.">
<polygon fill="none" stroke="black" points="415.5,-45.5 415.5,-66.5 530.5,-66.5 530.5,-45.5 415.5,-45.5"/>
<text text-anchor="middle" x="473" y="-53.5" font-family="FreeSans" font-size="10.00">Urho3D::XPathQuery</text>
</a>
</g>
<!-- Node16&#45;&gt;Node17 -->
<g id="edge46" class="edge"><title>Node16&#45;&gt;Node17</title>
<path fill="none" stroke="#9a32cd" stroke-dasharray="5,2" d="M67.7676,-349.277C107.922,-296.201 231.021,-144.073 372,-74 385.318,-67.3804 400.693,-63.1641 415.367,-60.4875"/>
<polygon fill="#9a32cd" stroke="#9a32cd" points="64.8338,-347.356 61.644,-357.459 70.4381,-351.55 64.8338,-347.356"/>
<text text-anchor="middle" x="158" y="-279" font-family="FreeSans" font-size="10.00"> queryString_</text>
</g>
<!-- Node16&#45;&gt;Node20 -->
<g id="edge56" class="edge"><title>Node16&#45;&gt;Node20</title>
<path fill="none" stroke="#9a32cd" stroke-dasharray="5,2" d="M108.055,-368C144.727,-368 192.933,-368 229.133,-368"/>
<polygon fill="#9a32cd" stroke="#9a32cd" points="108.037,-364.5 98.037,-368 108.037,-371.5 108.037,-364.5"/>
<text text-anchor="middle" x="158" y="-372" font-family="FreeSans" font-size="10.00"> name_</text>
</g>
<!-- Node17&#45;&gt;Node3 -->
<g id="edge44" class="edge"><title>Node17&#45;&gt;Node3</title>
<path fill="none" stroke="#9a32cd" stroke-dasharray="5,2" d="M540.927,-53.9069C599.953,-55.3197 685.278,-65.4587 746,-107 758.52,-115.565 751.722,-127.091 764,-136 781.962,-149.033 1130.92,-224.073 1152,-231 1195.91,-245.428 1211.36,-242.827 1248,-271 1280.98,-296.357 1307.24,-339.366 1318.31,-359.286"/>
<polygon fill="#9a32cd" stroke="#9a32cd" points="540.645,-50.4021 530.59,-53.7419 540.533,-57.4012 540.645,-50.4021"/>
<text text-anchor="middle" x="850" y="-184" font-family="FreeSans" font-size="10.00"> styleXPathQuery_</text>
</g>
<!-- Node18 -->
<g id="node41" class="node"><title>Node18</title>
<a xlink:href="a00331.html" target="_top" xlink:title="Urho3D::SharedPtr\&lt;\l Urho3D::XMLFile \&gt;">
<polygon fill="none" stroke="black" points="995,-353 995,-387 1111,-387 1111,-353 995,-353"/>
<text text-anchor="start" x="1003" y="-374" font-family="FreeSans" font-size="10.00">Urho3D::SharedPtr&lt;</text>
<text text-anchor="middle" x="1053" y="-361" font-family="FreeSans" font-size="10.00"> Urho3D::XMLFile &gt;</text>
</a>
</g>
<!-- Node18&#45;&gt;Node3 -->
<g id="edge48" class="edge"><title>Node18&#45;&gt;Node3</title>
<path fill="none" stroke="#9a32cd" stroke-dasharray="5,2" d="M1121.27,-370C1167.04,-370 1226.52,-370 1269.19,-370"/>
<polygon fill="#9a32cd" stroke="#9a32cd" points="1121.14,-366.5 1111.14,-370 1121.14,-373.5 1121.14,-366.5"/>
<text text-anchor="middle" x="1209" y="-374" font-family="FreeSans" font-size="10.00"> defaultStyle_</text>
</g>
<!-- Node19 -->
<g id="node43" class="node"><title>Node19</title>
<a xlink:href="a00408.html" target="_top" xlink:title="XML document resource.">
<polygon fill="none" stroke="black" points="622,-357.5 622,-378.5 716,-378.5 716,-357.5 622,-357.5"/>
<text text-anchor="middle" x="669" y="-365.5" font-family="FreeSans" font-size="10.00">Urho3D::XMLFile</text>
</a>
</g>
<!-- Node19&#45;&gt;Node18 -->
<g id="edge50" class="edge"><title>Node19&#45;&gt;Node18</title>
<path fill="none" stroke="#9a32cd" stroke-dasharray="5,2" d="M726.367,-368.299C798.657,-368.675 922.209,-369.319 994.861,-369.697"/>
<polygon fill="#9a32cd" stroke="#9a32cd" points="726.104,-364.797 716.086,-368.245 726.068,-371.797 726.104,-364.797"/>
<text text-anchor="middle" x="850" y="-374" font-family="FreeSans" font-size="10.00"> ptr_</text>
</g>
<!-- Node20&#45;&gt;Node19 -->
<g id="edge52" class="edge"><title>Node20&#45;&gt;Node19</title>
<path fill="none" stroke="midnightblue" d="M342.636,-368C420.218,-368 551.782,-368 621.827,-368"/>
<polygon fill="midnightblue" stroke="midnightblue" points="342.523,-364.5 332.523,-368 342.523,-371.5 342.523,-364.5"/>
</g>
<!-- Node24 -->
<g id="node58" class="node"><title>Node24</title>
<a xlink:href="a00362.html" target="_top" xlink:title="Base class for texture resources.">
<polygon fill="none" stroke="black" points="1006,-77.5 1006,-98.5 1100,-98.5 1100,-77.5 1006,-77.5"/>
<text text-anchor="middle" x="1053" y="-85.5" font-family="FreeSans" font-size="10.00">Urho3D::Texture</text>
</a>
</g>
<!-- Node20&#45;&gt;Node24 -->
<g id="edge72" class="edge"><title>Node20&#45;&gt;Node24</title>
<path fill="none" stroke="midnightblue" d="M295.55,-349.165C335.957,-298.551 455.595,-159.859 592,-107 734.286,-51.8619 920.087,-68.2636 1005.85,-80.2663"/>
<polygon fill="midnightblue" stroke="midnightblue" points="292.586,-347.272 289.142,-357.292 298.083,-351.606 292.586,-347.272"/>
</g>
<!-- Node21 -->
<g id="node49" class="node"><title>Node21</title>
<a xlink:href="a00197.html" target="_top" xlink:title="Two&#45;dimensional vector with integer values.">
<polygon fill="none" stroke="black" points="999,-603.5 999,-624.5 1107,-624.5 1107,-603.5 999,-603.5"/>
<text text-anchor="middle" x="1053" y="-611.5" font-family="FreeSans" font-size="10.00">Urho3D::IntVector2</text>
</a>
</g>
<!-- Node21&#45;&gt;Node1 -->
<g id="edge82" class="edge"><title>Node21&#45;&gt;Node1</title>
<path fill="none" stroke="#9a32cd" stroke-dasharray="5,2" d="M1117.56,-618.555C1134.6,-619.568 1152.99,-620.492 1170,-621 1356.43,-626.572 1577.71,-599.723 1671.88,-586.721"/>
<polygon fill="#9a32cd" stroke="#9a32cd" points="1117.34,-615.035 1107.14,-617.916 1116.91,-622.022 1117.34,-615.035"/>
<text text-anchor="start" x="1400" y="-644" font-family="FreeSans" font-size="10.00"> pressedChildOffset</text>
<text text-anchor="middle" x="1447" y="-631" font-family="FreeSans" font-size="10.00">_</text>
<text text-anchor="middle" x="1447" y="-618" font-family="FreeSans" font-size="10.00">pressedOffset_</text>
</g>
<!-- Node21&#45;&gt;Node2 -->
<g id="edge80" class="edge"><title>Node21&#45;&gt;Node2</title>
<path fill="none" stroke="#9a32cd" stroke-dasharray="5,2" d="M1117.3,-617.966C1156.2,-618.291 1206.2,-614.964 1248,-600 1389.55,-549.328 1525.17,-418.737 1562.76,-380.603"/>
<polygon fill="#9a32cd" stroke="#9a32cd" points="1117.21,-614.464 1107.15,-617.797 1117.09,-621.463 1117.21,-614.464"/>
<text text-anchor="middle" x="1324" y="-595" font-family="FreeSans" font-size="10.00"> hoverOffset_</text>
</g>
<!-- Node21&#45;&gt;Node3 -->
<g id="edge58" class="edge"><title>Node21&#45;&gt;Node3</title>
<path fill="none" stroke="#9a32cd" stroke-dasharray="5,2" d="M1112.73,-599.933C1127.24,-594.017 1141.57,-585.687 1152,-574 1171.96,-551.632 1148.98,-530.371 1170,-509 1195.34,-483.232 1218.98,-507.548 1248,-486 1286.27,-457.578 1310.81,-403.729 1319.96,-380.788"/>
<polygon fill="#9a32cd" stroke="#9a32cd" points="1111.35,-596.712 1103.2,-603.482 1113.79,-603.271 1111.35,-596.712"/>
<text text-anchor="middle" x="1209" y="-591" font-family="FreeSans" font-size="10.00"> maxSize_</text>
<text text-anchor="middle" x="1209" y="-578" font-family="FreeSans" font-size="10.00">childOffset_</text>
<text text-anchor="middle" x="1209" y="-565" font-family="FreeSans" font-size="10.00">size_</text>
<text text-anchor="middle" x="1209" y="-552" font-family="FreeSans" font-size="10.00">position_</text>
<text text-anchor="start" x="1174" y="-539" font-family="FreeSans" font-size="10.00">screenPosition</text>
<text text-anchor="middle" x="1209" y="-526" font-family="FreeSans" font-size="10.00">_</text>
<text text-anchor="middle" x="1209" y="-513" font-family="FreeSans" font-size="10.00">minSize_</text>
</g>
<!-- Node21&#45;&gt;Node21 -->
<g id="edge60" class="edge"><title>Node21&#45;&gt;Node21</title>
<path fill="none" stroke="#9a32cd" stroke-dasharray="5,2" d="M1024.1,-634.055C1025.99,-639.164 1035.63,-643 1053,-643 1080.12,-643 1088.38,-633.653 1077.79,-624.708"/>
<polygon fill="#9a32cd" stroke="#9a32cd" points="1027.39,-635.27 1028.21,-624.708 1020.98,-632.45 1027.39,-635.27"/>
<text text-anchor="middle" x="1053" y="-647" font-family="FreeSans" font-size="10.00"> ZERO</text>
</g>
<!-- Node22 -->
<g id="node52" class="node"><title>Node22</title>
<a xlink:href="a00104.html" target="_top" xlink:title="RGBA color.">
<polygon fill="none" stroke="black" points="627,-116.5 627,-137.5 711,-137.5 711,-116.5 627,-116.5"/>
<text text-anchor="middle" x="669" y="-124.5" font-family="FreeSans" font-size="10.00">Urho3D::Color</text>
</a>
</g>
<!-- Node22&#45;&gt;Node3 -->
<g id="edge62" class="edge"><title>Node22&#45;&gt;Node3</title>
<path fill="none" stroke="#9a32cd" stroke-dasharray="5,2" d="M687.035,-144.632C705.009,-161.132 734.166,-185.116 764,-198 924.726,-267.409 988.068,-204.545 1152,-266 1216.04,-290.008 1282.84,-338.217 1310.64,-359.496"/>
<polygon fill="#9a32cd" stroke="#9a32cd" points="689.284,-141.943 679.601,-137.644 684.49,-147.043 689.284,-141.943"/>
<text text-anchor="middle" x="1053" y="-283" font-family="FreeSans" font-size="10.00"> derivedColor_</text>
<text text-anchor="middle" x="1053" y="-270" font-family="FreeSans" font-size="10.00">color_</text>
</g>
<!-- Node22&#45;&gt;Node22 -->
<g id="edge64" class="edge"><title>Node22&#45;&gt;Node22</title>
<path fill="none" stroke="#9a32cd" stroke-dasharray="5,2" d="M635.508,-146.679C637.302,-151.975 648.467,-156 669,-156 700.289,-156 709.822,-146.653 697.6,-137.708"/>
<polygon fill="#9a32cd" stroke="#9a32cd" points="638.685,-148.163 640.4,-137.708 632.539,-144.812 638.685,-148.163"/>
<text text-anchor="middle" x="669" y="-290" font-family="FreeSans" font-size="10.00"> CYAN</text>
<text text-anchor="middle" x="669" y="-277" font-family="FreeSans" font-size="10.00">GRAY</text>
<text text-anchor="middle" x="669" y="-264" font-family="FreeSans" font-size="10.00">YELLOW</text>
<text text-anchor="middle" x="669" y="-251" font-family="FreeSans" font-size="10.00">MAGENTA</text>
<text text-anchor="middle" x="669" y="-238" font-family="FreeSans" font-size="10.00">WHITE</text>
<text text-anchor="middle" x="669" y="-225" font-family="FreeSans" font-size="10.00">TRANSPARENT</text>
<text text-anchor="middle" x="669" y="-212" font-family="FreeSans" font-size="10.00">BLUE</text>
<text text-anchor="middle" x="669" y="-199" font-family="FreeSans" font-size="10.00">BLACK</text>
<text text-anchor="middle" x="669" y="-186" font-family="FreeSans" font-size="10.00">RED</text>
<text text-anchor="middle" x="669" y="-173" font-family="FreeSans" font-size="10.00">GREEN</text>
<text text-anchor="middle" x="669" y="-160" font-family="FreeSans" font-size="10.00">...</text>
</g>
<!-- Node22&#45;&gt;Node24 -->
<g id="edge78" class="edge"><title>Node22&#45;&gt;Node24</title>
<path fill="none" stroke="#9a32cd" stroke-dasharray="5,2" d="M721.108,-122.52C774.952,-117.798 861.412,-109.953 936,-102 958.987,-99.549 984.477,-96.534 1005.78,-93.9305"/>
<polygon fill="#9a32cd" stroke="#9a32cd" points="720.773,-119.036 711.116,-123.394 721.382,-126.01 720.773,-119.036"/>
<text text-anchor="middle" x="850" y="-123" font-family="FreeSans" font-size="10.00"> borderColor_</text>
</g>
<!-- Node23 -->
<g id="node56" class="node"><title>Node23</title>
<a xlink:href="a00331.html" target="_top" xlink:title="Urho3D::SharedPtr\&lt;\l Urho3D::Texture \&gt;">
<polygon fill="none" stroke="black" points="1266,-60 1266,-94 1382,-94 1382,-60 1266,-60"/>
<text text-anchor="start" x="1274" y="-81" font-family="FreeSans" font-size="10.00">Urho3D::SharedPtr&lt;</text>
<text text-anchor="middle" x="1324" y="-68" font-family="FreeSans" font-size="10.00"> Urho3D::Texture &gt;</text>
</a>
</g>
<!-- Node23&#45;&gt;Node2 -->
<g id="edge68" class="edge"><title>Node23&#45;&gt;Node2</title>
<path fill="none" stroke="#9a32cd" stroke-dasharray="5,2" d="M1392.5,-71.2309C1426.73,-72.0367 1466.58,-79.073 1494,-103 1534.52,-138.358 1564.28,-313.947 1571.38,-359.297"/>
<polygon fill="#9a32cd" stroke="#9a32cd" points="1392.1,-67.7285 1382.08,-71.169 1392.06,-74.7284 1392.1,-67.7285"/>
<text text-anchor="middle" x="1447" y="-107" font-family="FreeSans" font-size="10.00"> texture_</text>
</g>
<!-- Node23&#45;&gt;Node24 -->
<g id="edge76" class="edge"><title>Node23&#45;&gt;Node24</title>
<path fill="none" stroke="#9a32cd" stroke-dasharray="5,2" d="M1255.63,-64.749C1253.06,-64.465 1250.51,-64.2131 1248,-64 1213.46,-61.067 1204.49,-60.4991 1170,-64 1144.52,-66.5861 1116.4,-72.2626 1094.11,-77.4458"/>
<polygon fill="#9a32cd" stroke="#9a32cd" points="1255.27,-68.2306 1265.62,-65.9885 1256.13,-61.2838 1255.27,-68.2306"/>
<text text-anchor="middle" x="1209" y="-68" font-family="FreeSans" font-size="10.00"> backupTexture_</text>
</g>
<!-- Node24&#45;&gt;Node23 -->
<g id="edge70" class="edge"><title>Node24&#45;&gt;Node23</title>
<path fill="none" stroke="#9a32cd" stroke-dasharray="5,2" d="M1110.24,-85.6767C1155.89,-83.8237 1219.57,-81.2387 1265.54,-79.3729"/>
<polygon fill="#9a32cd" stroke="#9a32cd" points="1110.05,-82.1812 1100.2,-86.0839 1110.34,-89.1754 1110.05,-82.1812"/>
<text text-anchor="middle" x="1209" y="-88" font-family="FreeSans" font-size="10.00"> ptr_</text>
</g>
<!-- Node25 -->
<g id="node61" class="node"><title>Node25</title>
<a xlink:href="a00179.html" target="_top" xlink:title="Base class for GPU resources.">
<polygon fill="none" stroke="red" points="613.5,-0.5 613.5,-21.5 724.5,-21.5 724.5,-0.5 613.5,-0.5"/>
<text text-anchor="middle" x="669" y="-8.5" font-family="FreeSans" font-size="10.00">Urho3D::GPUObject</text>
</a>
</g>
<!-- Node25&#45;&gt;Node24 -->
<g id="edge74" class="edge"><title>Node25&#45;&gt;Node24</title>
<path fill="none" stroke="midnightblue" d="M731.612,-23.555C808.425,-38.9575 936.911,-64.7218 1005.86,-78.548"/>
<polygon fill="midnightblue" stroke="midnightblue" points="732.081,-20.0795 721.588,-21.5451 730.705,-26.9429 732.081,-20.0795"/>
</g>
</g>
</svg>
