<?xml version="1.0" encoding="UTF-8" standalone="no"?>
<!DOCTYPE svg PUBLIC "-//W3C//DTD SVG 1.1//EN"
 "http://www.w3.org/Graphics/SVG/1.1/DTD/svg11.dtd">
<!-- Generated by graphviz version 2.26.3 (20100126.1600)
 -->
<!-- Title: Urho3D::SpriteSheet2D Pages: 1 -->
<!--zoomable 818 -->
<svg id="main" version="1.1" xmlns="http://www.w3.org/2000/svg" xmlns:xlink="http://www.w3.org/1999/xlink" xml:space="preserve" onload="init(evt)">
        <defs>
                <circle id="rim" cx="0" cy="0" r="7"/>
                <circle id="rim2" cx="0" cy="0" r="3.5"/>
                <g id="zoomPlus">
                        <use xlink:href="#rim" fill="#404040">
                                <set attributeName="fill" to="#808080" begin="zoomplus.mouseover" end="zoomplus.mouseout"/>
                        </use>
                        <path d="M-4,0h8M0,-4v8" fill="none" stroke="white" stroke-width="1.5" pointer-events="none"/>
                </g>
                <g id="zoomMin">
                        <use xlink:href="#rim" fill="#404040">
                                <set attributeName="fill" to="#808080" begin="zoomminus.mouseover" end="zoomminus.mouseout"/>
                        </use>
                        <path d="M-4,0h8" fill="none" stroke="white" stroke-width="1.5" pointer-events="none"/>
                </g>
                <g id="dirArrow">
                        <path fill="none" stroke="white" stroke-width="1.5" d="M0,-3.0v7 M-2.5,-0.5L0,-3.0L2.5,-0.5"/>
                </g>
               <g id="resetDef">
                       <use xlink:href="#rim2" fill="#404040">
                               <set attributeName="fill" to="#808080" begin="reset.mouseover" end="reset.mouseout"/>
                       </use>
               </g>
        </defs>

<script type="text/javascript">
var viewWidth = 1780;
var viewHeight = 818;
var sectionId = 'dynsection-1';
</script>
<script xlink:href="svgpan.js"/>
<svg id="graph" class="graph">
<g id="viewport">
<title>Urho3D::SpriteSheet2D</title>
<!-- Node1 -->
<g id="node1" class="node"><title>Node1</title>
<polygon fill="#bfbfbf" stroke="black" points="1642,-575.941 1642,-596.941 1772,-596.941 1772,-575.941 1642,-575.941"/>
<text text-anchor="middle" x="1707" y="-583.941" font-family="FreeSans" font-size="10.00">Urho3D::SpriteSheet2D</text>
</g>
<!-- Node2 -->
<g id="node2" class="node"><title>Node2</title>
<a xlink:href="a00295.html" target="_top" xlink:title="Base class for resources.">
<polygon fill="none" stroke="black" points="671.5,-682.941 671.5,-703.941 774.5,-703.941 774.5,-682.941 671.5,-682.941"/>
<text text-anchor="middle" x="723" y="-690.941" font-family="FreeSans" font-size="10.00">Urho3D::Resource</text>
</a>
</g>
<!-- Node2&#45;&gt;Node1 -->
<g id="edge2" class="edge"><title>Node2&#45;&gt;Node1</title>
<path fill="none" stroke="midnightblue" d="M784.844,-693.168C857.266,-692.872 980.84,-692.441 1087,-692.441 1087,-692.441 1087,-692.441 1501,-692.441 1583.85,-692.441 1666.75,-623.804 1695.98,-596.992"/>
<polygon fill="midnightblue" stroke="midnightblue" points="784.524,-689.669 774.539,-693.21 784.553,-696.669 784.524,-689.669"/>
</g>
<!-- Node24 -->
<g id="node58" class="node"><title>Node24</title>
<a xlink:href="a00355.html" target="_top" xlink:title="Base class for texture resources.">
<polygon fill="none" stroke="red" points="1040,-642.941 1040,-663.941 1134,-663.941 1134,-642.941 1040,-642.941"/>
<text text-anchor="middle" x="1087" y="-650.941" font-family="FreeSans" font-size="10.00">Urho3D::Texture</text>
</a>
</g>
<!-- Node2&#45;&gt;Node24 -->
<g id="edge72" class="edge"><title>Node2&#45;&gt;Node24</title>
<path fill="none" stroke="midnightblue" d="M784.808,-685.527C803.788,-683.165 824.745,-680.625 844,-678.441 912.056,-670.723 990.955,-662.793 1039.93,-657.991"/>
<polygon fill="midnightblue" stroke="midnightblue" points="784.276,-682.066 774.788,-686.781 785.145,-689.012 784.276,-682.066"/>
</g>
<!-- Node3 -->
<g id="node4" class="node"><title>Node3</title>
<a xlink:href="a00243.html" target="_top" xlink:title="Base class for objects with type identification, subsystem access and event sending/receiving capabil...">
<polygon fill="none" stroke="black" points="420,-547.941 420,-568.941 510,-568.941 510,-547.941 420,-547.941"/>
<text text-anchor="middle" x="465" y="-555.941" font-family="FreeSans" font-size="10.00">Urho3D::Object</text>
</a>
</g>
<!-- Node3&#45;&gt;Node2 -->
<g id="edge4" class="edge"><title>Node3&#45;&gt;Node2</title>
<path fill="none" stroke="midnightblue" d="M486.957,-575.25C501.552,-586.02 521.389,-599.903 540,-610.441 566.31,-625.339 574.46,-625.963 602,-638.441 636.05,-653.868 675.46,-671.795 699.811,-682.88"/>
<polygon fill="midnightblue" stroke="midnightblue" points="488.709,-572.19 478.605,-569.004 484.517,-577.796 488.709,-572.19"/>
</g>
<!-- Node8 -->
<g id="node15" class="node"><title>Node8</title>
<a xlink:href="a00152.html" target="_top" xlink:title="Internal helper class for invoking event handler functions.">
<polygon fill="none" stroke="red" points="661,-548.941 661,-569.941 785,-569.941 785,-548.941 661,-548.941"/>
<text text-anchor="middle" x="723" y="-556.941" font-family="FreeSans" font-size="10.00">Urho3D::EventHandler</text>
</a>
</g>
<!-- Node3&#45;&gt;Node8 -->
<g id="edge18" class="edge"><title>Node3&#45;&gt;Node8</title>
<path fill="none" stroke="#9a32cd" stroke-dasharray="5,2" d="M520.385,-558.656C561.654,-558.816 618.034,-559.034 660.843,-559.2"/>
<polygon fill="#9a32cd" stroke="#9a32cd" points="520.249,-555.155 510.235,-558.616 520.222,-562.155 520.249,-555.155"/>
<text text-anchor="middle" x="571" y="-576.441" font-family="FreeSans" font-size="10.00"> sender_</text>
<text text-anchor="middle" x="571" y="-563.441" font-family="FreeSans" font-size="10.00">receiver_</text>
</g>
<!-- Node4 -->
<g id="node6" class="node"><title>Node4</title>
<a xlink:href="a00286.html" target="_top" xlink:title="Base class for intrusively reference&#45;counted objects. These are noncopyable and non&#45;assignable.">
<polygon fill="none" stroke="black" points="198,-137.941 198,-158.941 312,-158.941 312,-137.941 198,-137.941"/>
<text text-anchor="middle" x="255" y="-145.941" font-family="FreeSans" font-size="10.00">Urho3D::RefCounted</text>
</a>
</g>
<!-- Node4&#45;&gt;Node3 -->
<g id="edge6" class="edge"><title>Node4&#45;&gt;Node3</title>
<path fill="none" stroke="midnightblue" d="M266.849,-167.542C280.619,-189.976 303.779,-228.449 322,-262.441 330.64,-278.559 327.447,-286.142 340,-299.441 357.483,-317.963 373.844,-307.751 390,-327.441 447.236,-397.198 461.19,-511.751 464.228,-547.461"/>
<polygon fill="midnightblue" stroke="midnightblue" points="269.791,-165.645 261.564,-158.969 263.833,-169.319 269.791,-165.645"/>
</g>
<!-- Node6 -->
<g id="node10" class="node"><title>Node6</title>
<a xlink:href="a00126.html" target="_top" xlink:title="Urho3D execution context. Provides access to subsystems, object factories and attributes, and event receivers.">
<polygon fill="none" stroke="red" points="1038.5,-302.941 1038.5,-323.941 1135.5,-323.941 1135.5,-302.941 1038.5,-302.941"/>
<text text-anchor="middle" x="1087" y="-310.941" font-family="FreeSans" font-size="10.00">Urho3D::Context</text>
</a>
</g>
<!-- Node4&#45;&gt;Node6 -->
<g id="edge12" class="edge"><title>Node4&#45;&gt;Node6</title>
<path fill="none" stroke="midnightblue" d="M283.555,-133.102C389.277,-78.6173 764.279,93.9087 996,-67.4409 1037.39,-96.2591 1075.28,-259.371 1084.74,-302.812"/>
<polygon fill="midnightblue" stroke="midnightblue" points="281.704,-130.12 274.454,-137.846 284.939,-136.327 281.704,-130.12"/>
</g>
<!-- Node5 -->
<g id="node8" class="node"><title>Node5</title>
<a xlink:href="a00285.html" target="_top" xlink:title="Reference count structure.">
<polygon fill="none" stroke="black" points="0,-137.941 0,-158.941 102,-158.941 102,-137.941 0,-137.941"/>
<text text-anchor="middle" x="51" y="-145.941" font-family="FreeSans" font-size="10.00">Urho3D::RefCount</text>
</a>
</g>
<!-- Node5&#45;&gt;Node4 -->
<g id="edge8" class="edge"><title>Node5&#45;&gt;Node4</title>
<path fill="none" stroke="#9a32cd" stroke-dasharray="5,2" d="M112.345,-148.441C139.414,-148.441 171.051,-148.441 197.643,-148.441"/>
<polygon fill="#9a32cd" stroke="#9a32cd" points="112.215,-144.941 102.214,-148.441 112.214,-151.941 112.215,-144.941"/>
<text text-anchor="middle" x="145" y="-152.441" font-family="FreeSans" font-size="10.00"> refCount_</text>
</g>
<!-- Node6&#45;&gt;Node3 -->
<g id="edge10" class="edge"><title>Node6&#45;&gt;Node3</title>
<path fill="none" stroke="#9a32cd" stroke-dasharray="5,2" d="M1078.06,-333.547C1064.45,-361.872 1035.82,-413.212 996,-441.441 856.232,-540.528 788.3,-494.37 620,-526.441 582.887,-533.513 540.926,-542.22 510.031,-548.765"/>
<polygon fill="#9a32cd" stroke="#9a32cd" points="1081.35,-334.781 1082.39,-324.238 1075,-331.828 1081.35,-334.781"/>
<text text-anchor="middle" x="723" y="-530.441" font-family="FreeSans" font-size="10.00"> context_</text>
</g>
<!-- Node7 -->
<g id="node13" class="node"><title>Node7</title>
<a xlink:href="a00272.html" target="_top" xlink:title="Urho3D::PODVector\&lt;\l Urho3D::Object * \&gt;">
<polygon fill="none" stroke="red" points="663.5,-119.441 663.5,-153.441 782.5,-153.441 782.5,-119.441 663.5,-119.441"/>
<text text-anchor="start" x="671.5" y="-140.441" font-family="FreeSans" font-size="10.00">Urho3D::PODVector&lt;</text>
<text text-anchor="middle" x="723" y="-127.441" font-family="FreeSans" font-size="10.00"> Urho3D::Object * &gt;</text>
</a>
</g>
<!-- Node7&#45;&gt;Node6 -->
<g id="edge14" class="edge"><title>Node7&#45;&gt;Node6</title>
<path fill="none" stroke="#9a32cd" stroke-dasharray="5,2" d="M792.939,-139.535C851.203,-144.966 934.325,-159.572 996,-198.441 1038.86,-225.454 1070.08,-279.961 1081.85,-302.894"/>
<polygon fill="#9a32cd" stroke="#9a32cd" points="792.987,-136.026 782.723,-138.653 792.384,-143 792.987,-136.026"/>
<text text-anchor="middle" x="920" y="-202.441" font-family="FreeSans" font-size="10.00"> eventSenders_</text>
</g>
<!-- Node8&#45;&gt;Node6 -->
<g id="edge16" class="edge"><title>Node8&#45;&gt;Node6</title>
<path fill="none" stroke="#9a32cd" stroke-dasharray="5,2" d="M795.486,-550.85C873.634,-541.324 988.016,-526.501 996,-520.441 1062.92,-469.649 1081.55,-359.125 1085.86,-324.226"/>
<polygon fill="#9a32cd" stroke="#9a32cd" points="794.697,-547.42 785.192,-552.1 795.541,-554.369 794.697,-547.42"/>
<text text-anchor="middle" x="920" y="-548.441" font-family="FreeSans" font-size="10.00"> eventHandler_</text>
</g>
<!-- Node18 -->
<g id="node42" class="node"><title>Node18</title>
<a xlink:href="a00203.html" target="_top" xlink:title="Urho3D::LinkedList\l\&lt; Urho3D::EventHandler \&gt;">
<polygon fill="none" stroke="black" points="1014,-589.441 1014,-623.441 1160,-623.441 1160,-589.441 1014,-589.441"/>
<text text-anchor="start" x="1022" y="-610.441" font-family="FreeSans" font-size="10.00">Urho3D::LinkedList</text>
<text text-anchor="middle" x="1087" y="-597.441" font-family="FreeSans" font-size="10.00">&lt; Urho3D::EventHandler &gt;</text>
</a>
</g>
<!-- Node8&#45;&gt;Node18 -->
<g id="edge52" class="edge"><title>Node8&#45;&gt;Node18</title>
<path fill="none" stroke="#9a32cd" stroke-dasharray="5,2" d="M795.073,-560.5C850.425,-562.329 928.556,-567.114 996,-579.441 1009.29,-581.871 1023.41,-585.514 1036.45,-589.344"/>
<polygon fill="#9a32cd" stroke="#9a32cd" points="795.113,-557 785.01,-560.192 794.898,-563.997 795.113,-557"/>
<text text-anchor="middle" x="920" y="-583.441" font-family="FreeSans" font-size="10.00"> head_</text>
</g>
<!-- Node9 -->
<g id="node18" class="node"><title>Node9</title>
<a xlink:href="a00348.html" target="_top" xlink:title="32&#45;bit hash value for a string.">
<polygon fill="none" stroke="black" points="408.5,-646.941 408.5,-667.941 521.5,-667.941 521.5,-646.941 408.5,-646.941"/>
<text text-anchor="middle" x="465" y="-654.941" font-family="FreeSans" font-size="10.00">Urho3D::StringHash</text>
</a>
</g>
<!-- Node9&#45;&gt;Node2 -->
<g id="edge60" class="edge"><title>Node9&#45;&gt;Node2</title>
<path fill="none" stroke="#9a32cd" stroke-dasharray="5,2" d="M528.933,-669.663C532.673,-670.289 536.383,-670.887 540,-671.441 584.124,-678.204 634.5,-684.129 671.212,-688.121"/>
<polygon fill="#9a32cd" stroke="#9a32cd" points="529.452,-666.201 519.004,-667.955 528.265,-673.1 529.452,-666.201"/>
<text text-anchor="middle" x="571" y="-683.441" font-family="FreeSans" font-size="10.00"> nameHash_</text>
</g>
<!-- Node9&#45;&gt;Node8 -->
<g id="edge20" class="edge"><title>Node9&#45;&gt;Node8</title>
<path fill="none" stroke="#9a32cd" stroke-dasharray="5,2" d="M493.221,-642.021C523.741,-625.855 574.187,-600.602 620,-584.441 636.225,-578.717 654.338,-573.84 670.796,-569.954"/>
<polygon fill="#9a32cd" stroke="#9a32cd" points="491.212,-639.126 484.043,-646.927 494.512,-645.299 491.212,-639.126"/>
<text text-anchor="middle" x="571" y="-620.441" font-family="FreeSans" font-size="10.00"> eventType_</text>
</g>
<!-- Node9&#45;&gt;Node9 -->
<g id="edge22" class="edge"><title>Node9&#45;&gt;Node9</title>
<path fill="none" stroke="#9a32cd" stroke-dasharray="5,2" d="M446.571,-677.868C447.993,-682.79 454.136,-686.441 465,-686.441 482.383,-686.441 487.679,-677.094 480.889,-668.149"/>
<polygon fill="#9a32cd" stroke="#9a32cd" points="449.969,-678.709 449.111,-668.149 443.196,-676.939 449.969,-678.709"/>
<text text-anchor="middle" x="465" y="-690.441" font-family="FreeSans" font-size="10.00"> ZERO</text>
</g>
<!-- Node10 -->
<g id="node21" class="node"><title>Node10</title>
<a xlink:href="a00179.html" target="_top" xlink:title="Urho3D::HashMap\&lt; Urho3D\l::StringHash, Urho3D::\lHashSet\&lt; Urho3D::Object * \&gt; \&gt;">
<polygon fill="none" stroke="black" points="636.5,-171.941 636.5,-218.941 809.5,-218.941 809.5,-171.941 636.5,-171.941"/>
<text text-anchor="start" x="644.5" y="-205.941" font-family="FreeSans" font-size="10.00">Urho3D::HashMap&lt; Urho3D</text>
<text text-anchor="start" x="644.5" y="-192.941" font-family="FreeSans" font-size="10.00">::StringHash, Urho3D::</text>
<text text-anchor="middle" x="723" y="-179.941" font-family="FreeSans" font-size="10.00">HashSet&lt; Urho3D::Object * &gt; &gt;</text>
</a>
</g>
<!-- Node10&#45;&gt;Node6 -->
<g id="edge24" class="edge"><title>Node10&#45;&gt;Node6</title>
<path fill="none" stroke="#9a32cd" stroke-dasharray="5,2" d="M819.653,-208.801C872.998,-218.193 939.659,-233.301 996,-256.441 1025.49,-268.552 1056.18,-289.916 1073.32,-302.768"/>
<polygon fill="#9a32cd" stroke="#9a32cd" points="819.959,-205.303 809.511,-207.056 818.772,-212.201 819.959,-205.303"/>
<text text-anchor="middle" x="920" y="-260.441" font-family="FreeSans" font-size="10.00"> eventReceivers_</text>
</g>
<!-- Node11 -->
<g id="node23" class="node"><title>Node11</title>
<a xlink:href="a00177.html" target="_top" xlink:title="Hash set/map base class.">
<polygon fill="none" stroke="black" points="411,-302.941 411,-323.941 519,-323.941 519,-302.941 411,-302.941"/>
<text text-anchor="middle" x="465" y="-310.941" font-family="FreeSans" font-size="10.00">Urho3D::HashBase</text>
</a>
</g>
<!-- Node11&#45;&gt;Node10 -->
<g id="edge26" class="edge"><title>Node11&#45;&gt;Node10</title>
<path fill="none" stroke="midnightblue" d="M490.26,-297.614C520.331,-279.244 572.469,-248.864 620,-228.441 627.763,-225.105 635.98,-221.922 644.251,-218.942"/>
<polygon fill="midnightblue" stroke="midnightblue" points="488.346,-294.682 481.665,-302.905 492.016,-300.643 488.346,-294.682"/>
</g>
<!-- Node14 -->
<g id="node31" class="node"><title>Node14</title>
<a xlink:href="a00179.html" target="_top" xlink:title="Urho3D::HashMap\&lt; Urho3D\l::Object *, Urho3D::HashMap\l\&lt; Urho3D::StringHash, Urho3D\l::HashSet\&lt; Urho3D::Object * \&gt; \&gt; \&gt;">
<polygon fill="none" stroke="black" points="627.5,-421.441 627.5,-481.441 818.5,-481.441 818.5,-421.441 627.5,-421.441"/>
<text text-anchor="start" x="635.5" y="-468.441" font-family="FreeSans" font-size="10.00">Urho3D::HashMap&lt; Urho3D</text>
<text text-anchor="start" x="635.5" y="-455.441" font-family="FreeSans" font-size="10.00">::Object *, Urho3D::HashMap</text>
<text text-anchor="start" x="635.5" y="-442.441" font-family="FreeSans" font-size="10.00">&lt; Urho3D::StringHash, Urho3D</text>
<text text-anchor="middle" x="723" y="-429.441" font-family="FreeSans" font-size="10.00">::HashSet&lt; Urho3D::Object * &gt; &gt; &gt;</text>
</a>
</g>
<!-- Node11&#45;&gt;Node14 -->
<g id="edge38" class="edge"><title>Node11&#45;&gt;Node14</title>
<path fill="none" stroke="midnightblue" d="M487.698,-330.064C517.143,-351.122 570.603,-387.648 620,-412.441 626.152,-415.529 632.611,-418.519 639.168,-421.379"/>
<polygon fill="midnightblue" stroke="midnightblue" points="489.521,-327.064 479.362,-324.056 485.428,-332.742 489.521,-327.064"/>
</g>
<!-- Node15 -->
<g id="node34" class="node"><title>Node15</title>
<a xlink:href="a00179.html" target="_top" xlink:title="Urho3D::HashMap\&lt; Urho3D\l::StringHash, Urho3D::\lSharedPtr\&lt; Urho3D::Object \&gt; \&gt;">
<polygon fill="none" stroke="black" points="637,-355.941 637,-402.941 809,-402.941 809,-355.941 637,-355.941"/>
<text text-anchor="start" x="645" y="-389.941" font-family="FreeSans" font-size="10.00">Urho3D::HashMap&lt; Urho3D</text>
<text text-anchor="start" x="645" y="-376.941" font-family="FreeSans" font-size="10.00">::StringHash, Urho3D::</text>
<text text-anchor="middle" x="723" y="-363.941" font-family="FreeSans" font-size="10.00">SharedPtr&lt; Urho3D::Object &gt; &gt;</text>
</a>
</g>
<!-- Node11&#45;&gt;Node15 -->
<g id="edge42" class="edge"><title>Node11&#45;&gt;Node15</title>
<path fill="none" stroke="midnightblue" d="M516,-326.487C550.439,-335.297 596.753,-347.145 636.841,-357.4"/>
<polygon fill="midnightblue" stroke="midnightblue" points="516.722,-323.059 506.166,-323.972 514.987,-329.841 516.722,-323.059"/>
</g>
<!-- Node17 -->
<g id="node39" class="node"><title>Node17</title>
<a xlink:href="a00179.html" target="_top" xlink:title="Urho3D::HashMap\&lt; Urho3D\l::StringHash, Urho3D::\lSharedPtr\&lt; Urho3D::ObjectFactory \&gt; \&gt;">
<polygon fill="none" stroke="black" points="620,-289.941 620,-336.941 826,-336.941 826,-289.941 620,-289.941"/>
<text text-anchor="start" x="628" y="-323.941" font-family="FreeSans" font-size="10.00">Urho3D::HashMap&lt; Urho3D</text>
<text text-anchor="start" x="628" y="-310.941" font-family="FreeSans" font-size="10.00">::StringHash, Urho3D::</text>
<text text-anchor="middle" x="723" y="-297.941" font-family="FreeSans" font-size="10.00">SharedPtr&lt; Urho3D::ObjectFactory &gt; &gt;</text>
</a>
</g>
<!-- Node11&#45;&gt;Node17 -->
<g id="edge48" class="edge"><title>Node11&#45;&gt;Node17</title>
<path fill="none" stroke="midnightblue" d="M529.316,-313.441C556.72,-313.441 589.378,-313.441 619.998,-313.441"/>
<polygon fill="midnightblue" stroke="midnightblue" points="529.085,-309.941 519.085,-313.441 529.085,-316.941 529.085,-309.941"/>
</g>
<!-- Node21 -->
<g id="node51" class="node"><title>Node21</title>
<a xlink:href="a00179.html" target="_top" xlink:title="Urho3D::HashMap\&lt; Urho3D\l::String, Urho3D::SharedPtr\l\&lt; Urho3D::Sprite2D \&gt; \&gt;">
<polygon fill="none" stroke="black" points="844,-68.9409 844,-115.941 996,-115.941 996,-68.9409 844,-68.9409"/>
<text text-anchor="start" x="852" y="-102.941" font-family="FreeSans" font-size="10.00">Urho3D::HashMap&lt; Urho3D</text>
<text text-anchor="start" x="852" y="-89.9409" font-family="FreeSans" font-size="10.00">::String, Urho3D::SharedPtr</text>
<text text-anchor="middle" x="920" y="-76.9409" font-family="FreeSans" font-size="10.00">&lt; Urho3D::Sprite2D &gt; &gt;</text>
</a>
</g>
<!-- Node11&#45;&gt;Node21 -->
<g id="edge64" class="edge"><title>Node11&#45;&gt;Node21</title>
<path fill="none" stroke="midnightblue" d="M473.153,-293.658C491.847,-251.198 542.261,-151.836 620,-110.441 689.082,-73.6552 780.205,-73.7979 843.823,-80.2229"/>
<polygon fill="midnightblue" stroke="midnightblue" points="469.899,-292.366 469.179,-302.936 476.334,-295.122 469.899,-292.366"/>
</g>
<!-- Node12 -->
<g id="node25" class="node"><title>Node12</title>
<a xlink:href="a00180.html" target="_top" xlink:title="Hash set/map node base class.">
<polygon fill="none" stroke="black" points="188,-342.941 188,-363.941 322,-363.941 322,-342.941 188,-342.941"/>
<text text-anchor="middle" x="255" y="-350.941" font-family="FreeSans" font-size="10.00">Urho3D::HashNodeBase</text>
</a>
</g>
<!-- Node12&#45;&gt;Node11 -->
<g id="edge28" class="edge"><title>Node12&#45;&gt;Node11</title>
<path fill="none" stroke="#9a32cd" stroke-dasharray="5,2" d="M320.254,-341.012C349.363,-335.467 383.253,-329.012 410.92,-323.742"/>
<polygon fill="#9a32cd" stroke="#9a32cd" points="319.343,-337.622 310.175,-342.931 320.653,-344.498 319.343,-337.622"/>
<text text-anchor="middle" x="365" y="-367.441" font-family="FreeSans" font-size="10.00"> ptrs_</text>
<text text-anchor="middle" x="365" y="-354.441" font-family="FreeSans" font-size="10.00">tail_</text>
<text text-anchor="middle" x="365" y="-341.441" font-family="FreeSans" font-size="10.00">head_</text>
</g>
<!-- Node12&#45;&gt;Node12 -->
<g id="edge30" class="edge"><title>Node12&#45;&gt;Node12</title>
<path fill="none" stroke="#9a32cd" stroke-dasharray="5,2" d="M234.728,-373.868C236.292,-378.79 243.049,-382.441 255,-382.441 274.121,-382.441 279.947,-373.094 272.478,-364.149"/>
<polygon fill="#9a32cd" stroke="#9a32cd" points="238.123,-374.727 237.522,-364.149 231.395,-372.792 238.123,-374.727"/>
<text text-anchor="middle" x="255" y="-412.441" font-family="FreeSans" font-size="10.00"> next_</text>
<text text-anchor="middle" x="255" y="-399.441" font-family="FreeSans" font-size="10.00">prev_</text>
<text text-anchor="middle" x="255" y="-386.441" font-family="FreeSans" font-size="10.00">down_</text>
</g>
<!-- Node13 -->
<g id="node28" class="node"><title>Node13</title>
<a xlink:href="a00052.html" target="_top" xlink:title="Allocator memory block.">
<polygon fill="none" stroke="red" points="191.5,-271.941 191.5,-292.941 318.5,-292.941 318.5,-271.941 191.5,-271.941"/>
<text text-anchor="middle" x="255" y="-279.941" font-family="FreeSans" font-size="10.00">Urho3D::AllocatorBlock</text>
</a>
</g>
<!-- Node13&#45;&gt;Node11 -->
<g id="edge32" class="edge"><title>Node13&#45;&gt;Node11</title>
<path fill="none" stroke="#9a32cd" stroke-dasharray="5,2" d="M328.77,-293.331C355.797,-297.32 385.861,-301.758 410.856,-305.448"/>
<polygon fill="#9a32cd" stroke="#9a32cd" points="328.981,-289.824 318.577,-291.826 327.958,-296.749 328.981,-289.824"/>
<text text-anchor="middle" x="365" y="-306.441" font-family="FreeSans" font-size="10.00"> allocator_</text>
</g>
<!-- Node13&#45;&gt;Node13 -->
<g id="edge34" class="edge"><title>Node13&#45;&gt;Node13</title>
<path fill="none" stroke="#9a32cd" stroke-dasharray="5,2" d="M234.728,-302.868C236.292,-307.79 243.049,-311.441 255,-311.441 274.121,-311.441 279.947,-302.094 272.478,-293.149"/>
<polygon fill="#9a32cd" stroke="#9a32cd" points="238.123,-303.727 237.522,-293.149 231.395,-301.792 238.123,-303.727"/>
<text text-anchor="middle" x="255" y="-315.441" font-family="FreeSans" font-size="10.00"> next_</text>
</g>
<!-- Node14&#45;&gt;Node6 -->
<g id="edge36" class="edge"><title>Node14&#45;&gt;Node6</title>
<path fill="none" stroke="#9a32cd" stroke-dasharray="5,2" d="M828.68,-429.875C880.485,-417.259 942.976,-398.934 996,-374.441 1025.87,-360.643 1056.93,-337.636 1073.93,-324.168"/>
<polygon fill="#9a32cd" stroke="#9a32cd" points="827.711,-426.508 818.803,-432.243 829.343,-433.315 827.711,-426.508"/>
<text text-anchor="middle" x="920" y="-428.441" font-family="FreeSans" font-size="10.00"> specificEventReceivers_</text>
</g>
<!-- Node15&#45;&gt;Node6 -->
<g id="edge40" class="edge"><title>Node15&#45;&gt;Node6</title>
<path fill="none" stroke="#9a32cd" stroke-dasharray="5,2" d="M819.041,-362.374C871.372,-353.032 937.263,-341.198 996,-330.441 1009.75,-327.922 1024.67,-325.152 1038.37,-322.592"/>
<polygon fill="#9a32cd" stroke="#9a32cd" points="818.326,-358.946 809.097,-364.149 819.556,-365.838 818.326,-358.946"/>
<text text-anchor="middle" x="920" y="-361.441" font-family="FreeSans" font-size="10.00"> subsystems_</text>
</g>
<!-- Node16 -->
<g id="node37" class="node"><title>Node16</title>
<a xlink:href="a00272.html" target="_top" xlink:title="Urho3D::PODVector\&lt;\l Urho3D::HashMap * \&gt;">
<polygon fill="none" stroke="red" points="659.5,-237.441 659.5,-271.441 786.5,-271.441 786.5,-237.441 659.5,-237.441"/>
<text text-anchor="start" x="667.5" y="-258.441" font-family="FreeSans" font-size="10.00">Urho3D::PODVector&lt;</text>
<text text-anchor="middle" x="723" y="-245.441" font-family="FreeSans" font-size="10.00"> Urho3D::HashMap * &gt;</text>
</a>
</g>
<!-- Node16&#45;&gt;Node6 -->
<g id="edge44" class="edge"><title>Node16&#45;&gt;Node6</title>
<path fill="none" stroke="#9a32cd" stroke-dasharray="5,2" d="M796.538,-265.102C851.545,-273.235 928.578,-284.96 996,-296.441 1009.78,-298.788 1024.71,-301.503 1038.41,-304.065"/>
<polygon fill="#9a32cd" stroke="#9a32cd" points="796.934,-261.623 786.53,-263.626 795.912,-268.548 796.934,-261.623"/>
<text text-anchor="middle" x="920" y="-300.441" font-family="FreeSans" font-size="10.00"> eventDataMaps_</text>
</g>
<!-- Node17&#45;&gt;Node6 -->
<g id="edge46" class="edge"><title>Node17&#45;&gt;Node6</title>
<path fill="none" stroke="#9a32cd" stroke-dasharray="5,2" d="M836.655,-313.441C904.471,-313.441 987.099,-313.441 1038.39,-313.441"/>
<polygon fill="#9a32cd" stroke="#9a32cd" points="836.334,-309.941 826.334,-313.441 836.334,-316.941 836.334,-309.941"/>
<text text-anchor="middle" x="920" y="-317.441" font-family="FreeSans" font-size="10.00"> factories_</text>
</g>
<!-- Node18&#45;&gt;Node3 -->
<g id="edge50" class="edge"><title>Node18&#45;&gt;Node3</title>
<path fill="none" stroke="#9a32cd" stroke-dasharray="5,2" d="M1003.44,-611.112C895.363,-615.364 701.77,-616.882 540,-585.441 522.204,-581.982 502.982,-574.993 488.453,-568.992"/>
<polygon fill="#9a32cd" stroke="#9a32cd" points="1003.78,-614.601 1013.63,-610.693 1003.5,-607.607 1003.78,-614.601"/>
<text text-anchor="middle" x="723" y="-616.441" font-family="FreeSans" font-size="10.00"> eventHandlers_</text>
</g>
<!-- Node19 -->
<g id="node45" class="node"><title>Node19</title>
<a xlink:href="a00364.html" target="_top" xlink:title="Low&#45;resolution operating system timer.">
<polygon fill="none" stroke="black" points="422,-788.941 422,-809.941 508,-809.941 508,-788.941 422,-788.941"/>
<text text-anchor="middle" x="465" y="-796.941" font-family="FreeSans" font-size="10.00">Urho3D::Timer</text>
</a>
</g>
<!-- Node19&#45;&gt;Node2 -->
<g id="edge54" class="edge"><title>Node19&#45;&gt;Node2</title>
<path fill="none" stroke="#9a32cd" stroke-dasharray="5,2" d="M505.872,-785.472C511.315,-783.503 516.807,-781.46 522,-779.441 587.09,-754.129 662.45,-720.775 699.691,-704.016"/>
<polygon fill="#9a32cd" stroke="#9a32cd" points="504.446,-782.264 496.2,-788.916 506.795,-788.858 504.446,-782.264"/>
<text text-anchor="middle" x="571" y="-774.441" font-family="FreeSans" font-size="10.00"> useTimer_</text>
</g>
<!-- Node20 -->
<g id="node47" class="node"><title>Node20</title>
<a xlink:href="a00347.html" target="_top" xlink:title="String class.">
<polygon fill="none" stroke="black" points="421,-717.941 421,-738.941 509,-738.941 509,-717.941 421,-717.941"/>
<text text-anchor="middle" x="465" y="-725.941" font-family="FreeSans" font-size="10.00">Urho3D::String</text>
</a>
</g>
<!-- Node20&#45;&gt;Node2 -->
<g id="edge56" class="edge"><title>Node20&#45;&gt;Node2</title>
<path fill="none" stroke="#9a32cd" stroke-dasharray="5,2" d="M519.163,-721.093C563.909,-715.023 627.02,-706.462 671.124,-700.478"/>
<polygon fill="#9a32cd" stroke="#9a32cd" points="518.497,-717.651 509.059,-722.464 519.438,-724.588 518.497,-717.651"/>
<text text-anchor="middle" x="571" y="-721.441" font-family="FreeSans" font-size="10.00"> name_</text>
</g>
<!-- Node20&#45;&gt;Node20 -->
<g id="edge58" class="edge"><title>Node20&#45;&gt;Node20</title>
<path fill="none" stroke="#9a32cd" stroke-dasharray="5,2" d="M446.571,-748.868C447.993,-753.79 454.136,-757.441 465,-757.441 482.383,-757.441 487.679,-748.094 480.889,-739.149"/>
<polygon fill="#9a32cd" stroke="#9a32cd" points="449.969,-749.709 449.111,-739.149 443.196,-747.939 449.969,-749.709"/>
<text text-anchor="middle" x="465" y="-761.441" font-family="FreeSans" font-size="10.00"> EMPTY</text>
</g>
<!-- Node21&#45;&gt;Node1 -->
<g id="edge62" class="edge"><title>Node21&#45;&gt;Node1</title>
<path fill="none" stroke="#9a32cd" stroke-dasharray="5,2" d="M975.662,-120.365C1034.21,-147.114 1129.77,-183.441 1217,-183.441 1217,-183.441 1217,-183.441 1501,-183.441 1682.51,-183.441 1704.18,-511.573 1706.68,-575.662"/>
<polygon fill="#9a32cd" stroke="#9a32cd" points="976.781,-117.025 966.237,-115.994 973.837,-123.376 976.781,-117.025"/>
<text text-anchor="middle" x="1328" y="-187.441" font-family="FreeSans" font-size="10.00"> spriteMapping_</text>
</g>
<!-- Node22 -->
<g id="node54" class="node"><title>Node22</title>
<a xlink:href="a00325.html" target="_top" xlink:title="Urho3D::SharedPtr\&lt;\l Urho3D::Texture2D \&gt;">
<polygon fill="none" stroke="black" points="1440,-569.441 1440,-603.441 1562,-603.441 1562,-569.441 1440,-569.441"/>
<text text-anchor="start" x="1448" y="-590.441" font-family="FreeSans" font-size="10.00">Urho3D::SharedPtr&lt;</text>
<text text-anchor="middle" x="1501" y="-577.441" font-family="FreeSans" font-size="10.00"> Urho3D::Texture2D &gt;</text>
</a>
</g>
<!-- Node22&#45;&gt;Node1 -->
<g id="edge66" class="edge"><title>Node22&#45;&gt;Node1</title>
<path fill="none" stroke="#9a32cd" stroke-dasharray="5,2" d="M1572.41,-586.441C1594.91,-586.441 1619.63,-586.441 1641.68,-586.441"/>
<polygon fill="#9a32cd" stroke="#9a32cd" points="1572.25,-582.941 1562.25,-586.441 1572.25,-589.941 1572.25,-582.941"/>
<text text-anchor="middle" x="1602" y="-590.441" font-family="FreeSans" font-size="10.00"> texture_</text>
</g>
<!-- Node23 -->
<g id="node56" class="node"><title>Node23</title>
<a xlink:href="a00356.html" target="_top" xlink:title="2D texture resource.">
<polygon fill="none" stroke="black" points="1274.5,-575.941 1274.5,-596.941 1381.5,-596.941 1381.5,-575.941 1274.5,-575.941"/>
<text text-anchor="middle" x="1328" y="-583.941" font-family="FreeSans" font-size="10.00">Urho3D::Texture2D</text>
</a>
</g>
<!-- Node23&#45;&gt;Node22 -->
<g id="edge68" class="edge"><title>Node23&#45;&gt;Node22</title>
<path fill="none" stroke="#9a32cd" stroke-dasharray="5,2" d="M1391.94,-586.441C1407.65,-586.441 1424.43,-586.441 1440,-586.441"/>
<polygon fill="#9a32cd" stroke="#9a32cd" points="1391.79,-582.941 1381.79,-586.441 1391.79,-589.941 1391.79,-582.941"/>
<text text-anchor="middle" x="1411" y="-590.441" font-family="FreeSans" font-size="10.00"> ptr_</text>
</g>
<!-- Node24&#45;&gt;Node23 -->
<g id="edge70" class="edge"><title>Node24&#45;&gt;Node23</title>
<path fill="none" stroke="midnightblue" d="M1134.56,-640.218C1180.07,-627.566 1247.84,-608.726 1289.9,-597.032"/>
<polygon fill="midnightblue" stroke="midnightblue" points="1133.62,-636.848 1124.92,-642.898 1135.49,-643.592 1133.62,-636.848"/>
</g>
<!-- Node25 -->
<g id="node61" class="node"><title>Node25</title>
<a xlink:href="a00325.html" target="_top" xlink:title="Urho3D::SharedPtr\&lt;\l Urho3D::RenderSurface \&gt;">
<polygon fill="none" stroke="red" points="1015.5,-537.441 1015.5,-571.441 1158.5,-571.441 1158.5,-537.441 1015.5,-537.441"/>
<text text-anchor="start" x="1023.5" y="-558.441" font-family="FreeSans" font-size="10.00">Urho3D::SharedPtr&lt;</text>
<text text-anchor="middle" x="1087" y="-545.441" font-family="FreeSans" font-size="10.00"> Urho3D::RenderSurface &gt;</text>
</a>
</g>
<!-- Node25&#45;&gt;Node23 -->
<g id="edge74" class="edge"><title>Node25&#45;&gt;Node23</title>
<path fill="none" stroke="#9a32cd" stroke-dasharray="5,2" d="M1168.81,-565.303C1203.61,-569.924 1243.22,-575.184 1274.23,-579.301"/>
<polygon fill="#9a32cd" stroke="#9a32cd" points="1169.03,-561.802 1158.66,-563.955 1168.11,-568.741 1169.03,-561.802"/>
<text text-anchor="middle" x="1217" y="-580.441" font-family="FreeSans" font-size="10.00"> renderSurface_</text>
</g>
</g>
</svg>
        <g id="navigator" transform="translate(0 0)" fill="#404254">
                <rect fill="#f2f5e9" fill-opacity="0.5" stroke="#606060" stroke-width=".5" x="0" y="0" width="60" height="60"/>
                <use id="zoomplus" xlink:href="#zoomPlus" x="17" y="9" onmousedown="handleZoom(evt,'in')"/>
                <use id="zoomminus" xlink:href="#zoomMin" x="42" y="9" onmousedown="handleZoom(evt,'out')"/>
                <use id="reset" xlink:href="#resetDef" x="30" y="36" onmousedown="handleReset()"/>
                <g id="arrowUp" xlink:href="#dirArrow" transform="translate(30 24)" onmousedown="handlePan(0,-1)">
                  <use xlink:href="#rim" fill="#404040">
                        <set attributeName="fill" to="#808080" begin="arrowUp.mouseover" end="arrowUp.mouseout"/>
                  </use>
                  <path fill="none" stroke="white" stroke-width="1.5" d="M0,-3.0v7 M-2.5,-0.5L0,-3.0L2.5,-0.5"/>
                </g>
                <g id="arrowRight" xlink:href="#dirArrow" transform="rotate(90) translate(36 -43)" onmousedown="handlePan(1,0)">
                  <use xlink:href="#rim" fill="#404040">
                        <set attributeName="fill" to="#808080" begin="arrowRight.mouseover" end="arrowRight.mouseout"/>
                  </use>
                  <path fill="none" stroke="white" stroke-width="1.5" d="M0,-3.0v7 M-2.5,-0.5L0,-3.0L2.5,-0.5"/>
                </g>
                <g id="arrowDown" xlink:href="#dirArrow" transform="rotate(180) translate(-30 -48)" onmousedown="handlePan(0,1)">
                  <use xlink:href="#rim" fill="#404040">
                        <set attributeName="fill" to="#808080" begin="arrowDown.mouseover" end="arrowDown.mouseout"/>
                  </use>
                  <path fill="none" stroke="white" stroke-width="1.5" d="M0,-3.0v7 M-2.5,-0.5L0,-3.0L2.5,-0.5"/>
                </g>
                <g id="arrowLeft" xlink:href="#dirArrow" transform="rotate(270) translate(-36 17)" onmousedown="handlePan(-1,0)">
                  <use xlink:href="#rim" fill="#404040">
                        <set attributeName="fill" to="#808080" begin="arrowLeft.mouseover" end="arrowLeft.mouseout"/>
                  </use>
                  <path fill="none" stroke="white" stroke-width="1.5" d="M0,-3.0v7 M-2.5,-0.5L0,-3.0L2.5,-0.5"/>
                </g>
        </g>
        <svg viewBox="0 0 15 15" width="100%" height="30px" preserveAspectRatio="xMaxYMin meet">
         <g id="arrow_out" transform="scale(0.3 0.3)">
          <a xlink:href="a01777_org.svg" target="_base">
           <rect id="button" ry="5" rx="5" y="6" x="6" height="38" width="38"
                fill="#f2f5e9" fill-opacity="0.5" stroke="#606060" stroke-width="1.0"/>
           <path id="arrow"
             d="M 11.500037,31.436501 C 11.940474,20.09759 22.043105,11.32322 32.158766,21.979434 L 37.068811,17.246167 C 37.068811,17.246167 37.088388,32 37.088388,32 L 22.160133,31.978069 C 22.160133,31.978069 26.997745,27.140456 26.997745,27.140456 C 18.528582,18.264221 13.291696,25.230495 11.500037,31.436501 z"
             style="fill:#404040;"/>
          </a>
         </g>
        </svg>
</svg>
