<?xml version="1.0" encoding="UTF-8" standalone="no"?>
<!DOCTYPE svg PUBLIC "-//W3C//DTD SVG 1.1//EN"
 "http://www.w3.org/Graphics/SVG/1.1/DTD/svg11.dtd">
<!-- Generated by graphviz version 2.26.3 (20100126.1600)
 -->
<!-- Title: Urho3D::PhysicsRaycastResult2D Pages: 1 -->
<svg width="2198pt" height="824pt"
 viewBox="0.00 0.00 2198.00 824.25" xmlns="http://www.w3.org/2000/svg" xmlns:xlink="http://www.w3.org/1999/xlink">
<g id="graph1" class="graph" transform="scale(1 1) rotate(0) translate(4 820.254)">
<title>Urho3D::PhysicsRaycastResult2D</title>
<!-- Node1 -->
<g id="node1" class="node"><title>Node1</title>
<polygon fill="#bfbfbf" stroke="black" points="2016,-597.5 2016,-618.5 2190,-618.5 2190,-597.5 2016,-597.5"/>
<text text-anchor="middle" x="2103" y="-605.5" font-family="FreeSans" font-size="10.00">Urho3D::PhysicsRaycastResult2D</text>
</g>
<!-- Node2 -->
<g id="node2" class="node"><title>Node2</title>
<a xlink:href="a00296.html" target="_top" xlink:title="2D rigid body component.">
<polygon fill="none" stroke="black" points="1828.5,-552.5 1828.5,-573.5 1947.5,-573.5 1947.5,-552.5 1828.5,-552.5"/>
<text text-anchor="middle" x="1888" y="-560.5" font-family="FreeSans" font-size="10.00">Urho3D::RigidBody2D</text>
</a>
</g>
<!-- Node2&#45;&gt;Node1 -->
<g id="edge2" class="edge"><title>Node2&#45;&gt;Node1</title>
<path fill="none" stroke="#9a32cd" stroke-dasharray="5,2" d="M1948.35,-575.631C1981.2,-582.506 2021.37,-590.914 2052.54,-597.438"/>
<polygon fill="#9a32cd" stroke="#9a32cd" points="1948.91,-572.173 1938.41,-573.551 1947.48,-579.025 1948.91,-572.173"/>
<text text-anchor="middle" x="1982" y="-589" font-family="FreeSans" font-size="10.00"> body_</text>
</g>
<!-- Node3 -->
<g id="node4" class="node"><title>Node3</title>
<a xlink:href="a00102.html" target="_top" xlink:title="Base class for components. Components can be created to scene nodes.">
<polygon fill="none" stroke="black" points="1122,-461.5 1122,-482.5 1238,-482.5 1238,-461.5 1122,-461.5"/>
<text text-anchor="middle" x="1180" y="-469.5" font-family="FreeSans" font-size="10.00">Urho3D::Component</text>
</a>
</g>
<!-- Node3&#45;&gt;Node2 -->
<g id="edge4" class="edge"><title>Node3&#45;&gt;Node2</title>
<path fill="none" stroke="midnightblue" d="M1248.18,-479.38C1351.02,-490.69 1551.88,-513.484 1722,-537 1757.25,-541.873 1796.61,-548.006 1828.15,-553.092"/>
<polygon fill="midnightblue" stroke="midnightblue" points="1248.56,-475.9 1238.24,-478.288 1247.8,-482.859 1248.56,-475.9"/>
</g>
<!-- Node21 -->
<g id="node50" class="node"><title>Node21</title>
<a xlink:href="a00266.html" target="_top" xlink:title="2D physics simulation world component. Should be added only to the root scene node.">
<polygon fill="none" stroke="red" points="1356,-533.5 1356,-554.5 1490,-554.5 1490,-533.5 1356,-533.5"/>
<text text-anchor="middle" x="1423" y="-541.5" font-family="FreeSans" font-size="10.00">Urho3D::PhysicsWorld2D</text>
</a>
</g>
<!-- Node3&#45;&gt;Node21 -->
<g id="edge62" class="edge"><title>Node3&#45;&gt;Node21</title>
<path fill="none" stroke="midnightblue" d="M1225.19,-485.388C1272.03,-499.269 1344.31,-520.686 1387.31,-533.425"/>
<polygon fill="midnightblue" stroke="midnightblue" points="1226.18,-482.032 1215.59,-482.547 1224.19,-488.743 1226.18,-482.032"/>
</g>
<!-- Node4 -->
<g id="node6" class="node"><title>Node4</title>
<a xlink:href="a00054.html" target="_top" xlink:title="Base class for animatable object, an animatable object can be set animation on it&#39;s attributes...">
<polygon fill="none" stroke="black" points="451,-126.5 451,-147.5 565,-147.5 565,-126.5 451,-126.5"/>
<text text-anchor="middle" x="508" y="-134.5" font-family="FreeSans" font-size="10.00">Urho3D::Animatable</text>
</a>
</g>
<!-- Node4&#45;&gt;Node3 -->
<g id="edge6" class="edge"><title>Node4&#45;&gt;Node3</title>
<path fill="none" stroke="midnightblue" d="M575.586,-134.426C632.589,-134.559 715.31,-140.25 782,-167 961.771,-239.108 1129.7,-416.271 1170.57,-461.403"/>
<polygon fill="midnightblue" stroke="midnightblue" points="575.238,-130.927 565.251,-134.462 575.263,-137.927 575.238,-130.927"/>
</g>
<!-- Node9 -->
<g id="node16" class="node"><title>Node9</title>
<a xlink:href="a00236.html" target="_top" xlink:title="Scene node that may contain components and child nodes.">
<polygon fill="none" stroke="red" points="800.5,-497.5 800.5,-518.5 885.5,-518.5 885.5,-497.5 800.5,-497.5"/>
<text text-anchor="middle" x="843" y="-505.5" font-family="FreeSans" font-size="10.00">Urho3D::Node</text>
</a>
</g>
<!-- Node4&#45;&gt;Node9 -->
<g id="edge18" class="edge"><title>Node4&#45;&gt;Node9</title>
<path fill="none" stroke="midnightblue" d="M535.299,-152.967C556.907,-166.352 587.147,-186.796 610,-209 619.563,-218.291 617.381,-224.937 628,-233 686.503,-277.42 732.585,-238.65 782,-293 796.356,-308.789 831.088,-456.224 840.572,-497.377"/>
<polygon fill="midnightblue" stroke="midnightblue" points="536.975,-149.89 526.613,-147.679 533.334,-155.869 536.975,-149.89"/>
</g>
<!-- Node5 -->
<g id="node8" class="node"><title>Node5</title>
<a xlink:href="a00310.html" target="_top" xlink:title="Base class for objects with automatic serialization through attributes.">
<polygon fill="none" stroke="red" points="55,-118.5 55,-139.5 169,-139.5 169,-118.5 55,-118.5"/>
<text text-anchor="middle" x="112" y="-126.5" font-family="FreeSans" font-size="10.00">Urho3D::Serializable</text>
</a>
</g>
<!-- Node5&#45;&gt;Node4 -->
<g id="edge8" class="edge"><title>Node5&#45;&gt;Node4</title>
<path fill="none" stroke="midnightblue" d="M179.62,-130.366C256.026,-131.91 379.064,-134.395 450.858,-135.846"/>
<polygon fill="midnightblue" stroke="midnightblue" points="179.228,-126.858 169.159,-130.155 179.086,-133.856 179.228,-126.858"/>
</g>
<!-- Node6 -->
<g id="node10" class="node"><title>Node6</title>
<a xlink:href="a00319.html" target="_top" xlink:title="Urho3D::SharedPtr\&lt;\l Urho3D::ObjectAnimation \&gt;">
<polygon fill="none" stroke="red" points="35.5,-66 35.5,-100 188.5,-100 188.5,-66 35.5,-66"/>
<text text-anchor="start" x="43.5" y="-87" font-family="FreeSans" font-size="10.00">Urho3D::SharedPtr&lt;</text>
<text text-anchor="middle" x="112" y="-74" font-family="FreeSans" font-size="10.00"> Urho3D::ObjectAnimation &gt;</text>
</a>
</g>
<!-- Node6&#45;&gt;Node4 -->
<g id="edge10" class="edge"><title>Node6&#45;&gt;Node4</title>
<path fill="none" stroke="#9a32cd" stroke-dasharray="5,2" d="M198.62,-90.9897C253.115,-96.4462 324.833,-104.414 388,-114 410.965,-117.485 436.239,-122.197 457.645,-126.448"/>
<polygon fill="#9a32cd" stroke="#9a32cd" points="198.948,-87.5052 188.651,-90.0003 198.257,-94.4709 198.948,-87.5052"/>
<text text-anchor="middle" x="315" y="-118" font-family="FreeSans" font-size="10.00"> objectAnimation_</text>
</g>
<!-- Node7 -->
<g id="node12" class="node"><title>Node7</title>
<a xlink:href="a00176.html" target="_top" xlink:title="Urho3D::HashMap\&lt; Urho3D\l::String, Urho3D::SharedPtr\l\&lt; Urho3D::AttributeAnimationInstance \&gt; \&gt;">
<polygon fill="none" stroke="red" points="0,-0.5 0,-47.5 224,-47.5 224,-0.5 0,-0.5"/>
<text text-anchor="start" x="8" y="-34.5" font-family="FreeSans" font-size="10.00">Urho3D::HashMap&lt; Urho3D</text>
<text text-anchor="start" x="8" y="-21.5" font-family="FreeSans" font-size="10.00">::String, Urho3D::SharedPtr</text>
<text text-anchor="middle" x="112" y="-8.5" font-family="FreeSans" font-size="10.00">&lt; Urho3D::AttributeAnimationInstance &gt; &gt;</text>
</a>
</g>
<!-- Node7&#45;&gt;Node4 -->
<g id="edge12" class="edge"><title>Node7&#45;&gt;Node4</title>
<path fill="none" stroke="#9a32cd" stroke-dasharray="5,2" d="M234.14,-40.7666C282.767,-49.2754 338.762,-61.4048 388,-78 426.059,-90.8274 467.48,-113.262 490.339,-126.461"/>
<polygon fill="#9a32cd" stroke="#9a32cd" points="234.648,-37.3026 224.199,-39.0593 233.463,-44.2016 234.648,-37.3026"/>
<text text-anchor="middle" x="315" y="-82" font-family="FreeSans" font-size="10.00"> attributeAnimationInstances_</text>
</g>
<!-- Node8 -->
<g id="node14" class="node"><title>Node8</title>
<a xlink:href="a00178.html" target="_top" xlink:title="Urho3D::HashSet\&lt; const\l Urho3D::AttributeInfo * \&gt;">
<polygon fill="none" stroke="red" points="41.5,-158 41.5,-192 182.5,-192 182.5,-158 41.5,-158"/>
<text text-anchor="start" x="49.5" y="-179" font-family="FreeSans" font-size="10.00">Urho3D::HashSet&lt; const</text>
<text text-anchor="middle" x="112" y="-166" font-family="FreeSans" font-size="10.00"> Urho3D::AttributeInfo * &gt;</text>
</a>
</g>
<!-- Node8&#45;&gt;Node4 -->
<g id="edge14" class="edge"><title>Node8&#45;&gt;Node4</title>
<path fill="none" stroke="#9a32cd" stroke-dasharray="5,2" d="M192.913,-167.236C269.72,-159.865 383.213,-148.974 450.965,-142.473"/>
<polygon fill="#9a32cd" stroke="#9a32cd" points="192.417,-163.767 182.797,-168.206 193.085,-170.735 192.417,-163.767"/>
<text text-anchor="middle" x="315" y="-165" font-family="FreeSans" font-size="10.00"> animatedNetworkAttributes_</text>
</g>
<!-- Node9&#45;&gt;Node3 -->
<g id="edge16" class="edge"><title>Node9&#45;&gt;Node3</title>
<path fill="none" stroke="#9a32cd" stroke-dasharray="5,2" d="M883.449,-494.705C890.249,-492.863 897.28,-491.195 904,-490 978.46,-476.756 1065.77,-472.995 1121.93,-472.061"/>
<polygon fill="#9a32cd" stroke="#9a32cd" points="882.364,-491.375 873.714,-497.494 884.291,-498.104 882.364,-491.375"/>
<text text-anchor="middle" x="1004" y="-494" font-family="FreeSans" font-size="10.00"> node_</text>
</g>
<!-- Node9&#45;&gt;Node9 -->
<g id="edge52" class="edge"><title>Node9&#45;&gt;Node9</title>
<path fill="none" stroke="#9a32cd" stroke-dasharray="5,2" d="M817.433,-528.055C819.11,-533.164 827.633,-537 843,-537 866.988,-537 874.297,-527.653 864.927,-518.708"/>
<polygon fill="#9a32cd" stroke="#9a32cd" points="820.706,-529.296 821.073,-518.708 814.183,-526.756 820.706,-529.296"/>
<text text-anchor="middle" x="843" y="-541" font-family="FreeSans" font-size="10.00"> parent_</text>
</g>
<!-- Node12 -->
<g id="node23" class="node"><title>Node12</title>
<a xlink:href="a00298.html" target="_top" xlink:title="Root scene node, represents the whole scene.">
<polygon fill="none" stroke="red" points="1135.5,-501.5 1135.5,-522.5 1224.5,-522.5 1224.5,-501.5 1135.5,-501.5"/>
<text text-anchor="middle" x="1180" y="-509.5" font-family="FreeSans" font-size="10.00">Urho3D::Scene</text>
</a>
</g>
<!-- Node9&#45;&gt;Node12 -->
<g id="edge26" class="edge"><title>Node9&#45;&gt;Node12</title>
<path fill="none" stroke="midnightblue" d="M893.282,-520.472C896.893,-521.081 900.493,-521.603 904,-522 992.324,-532.005 1015.3,-527.81 1104,-522 1114.23,-521.33 1125.18,-520.159 1135.49,-518.848"/>
<polygon fill="midnightblue" stroke="midnightblue" points="893.613,-516.973 883.137,-518.56 892.316,-523.852 893.613,-516.973"/>
</g>
<!-- Node10 -->
<g id="node19" class="node"><title>Node10</title>
<a xlink:href="a00268.html" target="_top" xlink:title="Urho3D::PODVector\&lt;\l Urho3D::Node * \&gt;">
<polygon fill="none" stroke="black" points="448.5,-491 448.5,-525 567.5,-525 567.5,-491 448.5,-491"/>
<text text-anchor="start" x="456.5" y="-512" font-family="FreeSans" font-size="10.00">Urho3D::PODVector&lt;</text>
<text text-anchor="middle" x="508" y="-499" font-family="FreeSans" font-size="10.00"> Urho3D::Node * &gt;</text>
</a>
</g>
<!-- Node10&#45;&gt;Node9 -->
<g id="edge20" class="edge"><title>Node10&#45;&gt;Node9</title>
<path fill="none" stroke="#9a32cd" stroke-dasharray="5,2" d="M577.572,-508C644.665,-508 744.068,-508 800.251,-508"/>
<polygon fill="#9a32cd" stroke="#9a32cd" points="577.505,-504.5 567.505,-508 577.505,-511.5 577.505,-504.5"/>
<text text-anchor="middle" x="705" y="-512" font-family="FreeSans" font-size="10.00"> dependencyNodes_</text>
</g>
<!-- Node11 -->
<g id="node21" class="node"><title>Node11</title>
<a xlink:href="a00377.html" target="_top" xlink:title="Vector base class.">
<polygon fill="none" stroke="black" points="55,-549.5 55,-570.5 169,-570.5 169,-549.5 55,-549.5"/>
<text text-anchor="middle" x="112" y="-557.5" font-family="FreeSans" font-size="10.00">Urho3D::VectorBase</text>
</a>
</g>
<!-- Node11&#45;&gt;Node10 -->
<g id="edge22" class="edge"><title>Node11&#45;&gt;Node10</title>
<path fill="none" stroke="midnightblue" d="M179.498,-551.137C254.984,-541.224 376.095,-525.321 448.267,-515.844"/>
<polygon fill="midnightblue" stroke="midnightblue" points="178.618,-547.722 169.159,-552.494 179.529,-554.662 178.618,-547.722"/>
</g>
<!-- Node15 -->
<g id="node32" class="node"><title>Node15</title>
<a xlink:href="a00373.html" target="_top" xlink:title="Urho3D::Vector\&lt; Urho3D\l::WeakPtr\&lt; Urho3D::Component \&gt; \&gt;">
<polygon fill="none" stroke="black" points="411,-543 411,-577 605,-577 605,-543 411,-543"/>
<text text-anchor="start" x="419" y="-564" font-family="FreeSans" font-size="10.00">Urho3D::Vector&lt; Urho3D</text>
<text text-anchor="middle" x="508" y="-551" font-family="FreeSans" font-size="10.00">::WeakPtr&lt; Urho3D::Component &gt; &gt;</text>
</a>
</g>
<!-- Node11&#45;&gt;Node15 -->
<g id="edge38" class="edge"><title>Node11&#45;&gt;Node15</title>
<path fill="none" stroke="midnightblue" d="M179.458,-560C242.986,-560 338.854,-560 410.659,-560"/>
<polygon fill="midnightblue" stroke="midnightblue" points="179.159,-556.5 169.159,-560 179.159,-563.5 179.159,-556.5"/>
</g>
<!-- Node17 -->
<g id="node37" class="node"><title>Node17</title>
<a xlink:href="a00373.html" target="_top" xlink:title="Urho3D::Vector\&lt; Urho3D\l::SharedPtr\&lt; Urho3D::Component \&gt; \&gt;">
<polygon fill="none" stroke="black" points="406.5,-595 406.5,-629 609.5,-629 609.5,-595 406.5,-595"/>
<text text-anchor="start" x="414.5" y="-616" font-family="FreeSans" font-size="10.00">Urho3D::Vector&lt; Urho3D</text>
<text text-anchor="middle" x="508" y="-603" font-family="FreeSans" font-size="10.00">::SharedPtr&lt; Urho3D::Component &gt; &gt;</text>
</a>
</g>
<!-- Node11&#45;&gt;Node17 -->
<g id="edge44" class="edge"><title>Node11&#45;&gt;Node17</title>
<path fill="none" stroke="midnightblue" d="M179.26,-568.832C241.535,-577.01 335.011,-589.284 406.385,-598.657"/>
<polygon fill="midnightblue" stroke="midnightblue" points="179.529,-565.338 169.159,-567.506 178.618,-572.278 179.529,-565.338"/>
</g>
<!-- Node24 -->
<g id="node58" class="node"><title>Node24</title>
<a xlink:href="a00373.html" target="_top" xlink:title="Urho3D::Vector\&lt; Urho3D\l::WeakPtr\&lt; Urho3D::Collision\lShape2D \&gt; \&gt;">
<polygon fill="none" stroke="black" points="628,-176.5 628,-223.5 782,-223.5 782,-176.5 628,-176.5"/>
<text text-anchor="start" x="636" y="-210.5" font-family="FreeSans" font-size="10.00">Urho3D::Vector&lt; Urho3D</text>
<text text-anchor="start" x="636" y="-197.5" font-family="FreeSans" font-size="10.00">::WeakPtr&lt; Urho3D::Collision</text>
<text text-anchor="middle" x="705" y="-184.5" font-family="FreeSans" font-size="10.00">Shape2D &gt; &gt;</text>
</a>
</g>
<!-- Node11&#45;&gt;Node24 -->
<g id="edge72" class="edge"><title>Node11&#45;&gt;Node24</title>
<path fill="none" stroke="midnightblue" d="M121.148,-539.994C151.17,-477.068 253.58,-282.969 406,-209 475.382,-175.329 564.881,-177.693 627.811,-185.616"/>
<polygon fill="midnightblue" stroke="midnightblue" points="117.889,-538.701 116.811,-549.241 124.226,-541.674 117.889,-538.701"/>
</g>
<!-- Node25 -->
<g id="node61" class="node"><title>Node25</title>
<a xlink:href="a00373.html" target="_top" xlink:title="Urho3D::Vector\&lt; Urho3D\l::WeakPtr\&lt; Urho3D::Constraint2D \&gt; \&gt;">
<polygon fill="none" stroke="black" points="904,-758 904,-792 1104,-792 1104,-758 904,-758"/>
<text text-anchor="start" x="912" y="-779" font-family="FreeSans" font-size="10.00">Urho3D::Vector&lt; Urho3D</text>
<text text-anchor="middle" x="1004" y="-766" font-family="FreeSans" font-size="10.00">::WeakPtr&lt; Urho3D::Constraint2D &gt; &gt;</text>
</a>
</g>
<!-- Node11&#45;&gt;Node25 -->
<g id="edge76" class="edge"><title>Node11&#45;&gt;Node25</title>
<path fill="none" stroke="midnightblue" d="M128.017,-578.273C168.859,-623.295 282.429,-738.884 406,-780 582.338,-838.673 804.445,-812.851 922.103,-792.009"/>
<polygon fill="midnightblue" stroke="midnightblue" points="130.531,-575.834 121.252,-570.721 125.318,-580.505 130.531,-575.834"/>
</g>
<!-- Node12&#45;&gt;Node9 -->
<g id="edge24" class="edge"><title>Node12&#45;&gt;Node9</title>
<path fill="none" stroke="#9a32cd" stroke-dasharray="5,2" d="M1125.1,-509.6C1118,-509.358 1110.83,-509.148 1104,-509 1026.99,-507.333 937.161,-507.439 885.501,-507.698"/>
<polygon fill="#9a32cd" stroke="#9a32cd" points="1125.28,-513.109 1135.4,-509.974 1125.53,-506.114 1125.28,-513.109"/>
<text text-anchor="middle" x="1004" y="-513" font-family="FreeSans" font-size="10.00"> scene_</text>
</g>
<!-- Node13 -->
<g id="node26" class="node"><title>Node13</title>
<a xlink:href="a00342.html" target="_top" xlink:title="String class.">
<polygon fill="none" stroke="black" points="464,-718.5 464,-739.5 552,-739.5 552,-718.5 464,-718.5"/>
<text text-anchor="middle" x="508" y="-726.5" font-family="FreeSans" font-size="10.00">Urho3D::String</text>
</a>
</g>
<!-- Node13&#45;&gt;Node9 -->
<g id="edge50" class="edge"><title>Node13&#45;&gt;Node9</title>
<path fill="none" stroke="#9a32cd" stroke-dasharray="5,2" d="M562.348,-723.838C578.279,-720.891 595.344,-716.264 610,-709 619.59,-704.247 618.362,-697.657 628,-693 690.568,-662.769 728.317,-710.122 782,-666 829.022,-627.353 839.884,-547.901 842.319,-518.902"/>
<polygon fill="#9a32cd" stroke="#9a32cd" points="561.371,-720.452 552.08,-725.543 562.518,-727.358 561.371,-720.452"/>
<text text-anchor="middle" x="705" y="-697" font-family="FreeSans" font-size="10.00"> name_</text>
</g>
<!-- Node13&#45;&gt;Node12 -->
<g id="edge28" class="edge"><title>Node13&#45;&gt;Node12</title>
<path fill="none" stroke="#9a32cd" stroke-dasharray="5,2" d="M562.193,-730.572C618.28,-730.792 707.896,-727.179 782,-706 945.215,-659.353 965.818,-598.5 1122,-532 1129.94,-528.62 1138.66,-525.377 1146.87,-522.522"/>
<polygon fill="#9a32cd" stroke="#9a32cd" points="562.15,-727.072 552.122,-730.49 562.093,-734.072 562.15,-727.072"/>
<text text-anchor="middle" x="843" y="-703" font-family="FreeSans" font-size="10.00"> fileName_</text>
</g>
<!-- Node13&#45;&gt;Node13 -->
<g id="edge30" class="edge"><title>Node13&#45;&gt;Node13</title>
<path fill="none" stroke="#9a32cd" stroke-dasharray="5,2" d="M472.155,-748.299C473.628,-753.781 485.576,-758 508,-758 541.375,-758 551.544,-748.653 538.507,-739.708"/>
<polygon fill="#9a32cd" stroke="#9a32cd" points="475.188,-750.049 477.493,-739.708 469.243,-746.355 475.188,-750.049"/>
<text text-anchor="middle" x="508" y="-762" font-family="FreeSans" font-size="10.00"> EMPTY</text>
</g>
<!-- Node14 -->
<g id="node29" class="node"><title>Node14</title>
<a xlink:href="a00273.html" target="_top" xlink:title="Rotation represented as a four&#45;dimensional normalized vector.">
<polygon fill="none" stroke="black" points="451.5,-420.5 451.5,-441.5 564.5,-441.5 564.5,-420.5 451.5,-420.5"/>
<text text-anchor="middle" x="508" y="-428.5" font-family="FreeSans" font-size="10.00">Urho3D::Quaternion</text>
</a>
</g>
<!-- Node14&#45;&gt;Node9 -->
<g id="edge32" class="edge"><title>Node14&#45;&gt;Node9</title>
<path fill="none" stroke="#9a32cd" stroke-dasharray="5,2" d="M574.962,-437.059C631.245,-443.428 713.277,-455.723 782,-478 797.044,-482.877 813.052,-490.868 824.893,-497.377"/>
<polygon fill="#9a32cd" stroke="#9a32cd" points="575.084,-433.551 564.762,-435.937 574.319,-440.509 575.084,-433.551"/>
<text text-anchor="middle" x="705" y="-495" font-family="FreeSans" font-size="10.00"> worldRotation_</text>
<text text-anchor="middle" x="705" y="-482" font-family="FreeSans" font-size="10.00">rotation_</text>
</g>
<!-- Node14&#45;&gt;Node14 -->
<g id="edge34" class="edge"><title>Node14&#45;&gt;Node14</title>
<path fill="none" stroke="#9a32cd" stroke-dasharray="5,2" d="M472.155,-450.299C473.628,-455.781 485.576,-460 508,-460 541.375,-460 551.544,-450.653 538.507,-441.708"/>
<polygon fill="#9a32cd" stroke="#9a32cd" points="475.188,-452.049 477.493,-441.708 469.243,-448.355 475.188,-452.049"/>
<text text-anchor="middle" x="508" y="-464" font-family="FreeSans" font-size="10.00"> IDENTITY</text>
</g>
<!-- Node15&#45;&gt;Node9 -->
<g id="edge36" class="edge"><title>Node15&#45;&gt;Node9</title>
<path fill="none" stroke="#9a32cd" stroke-dasharray="5,2" d="M615.267,-549.936C666.087,-544.242 727.466,-536.022 782,-525 790.621,-523.258 799.811,-520.944 808.372,-518.587"/>
<polygon fill="#9a32cd" stroke="#9a32cd" points="614.804,-546.466 605.249,-551.041 615.572,-553.424 614.804,-546.466"/>
<text text-anchor="middle" x="705" y="-551" font-family="FreeSans" font-size="10.00"> listeners_</text>
</g>
<!-- Node16 -->
<g id="node35" class="node"><title>Node16</title>
<a xlink:href="a00378.html" target="_top" xlink:title="Dynamically sized buffer that can be read and written to as a stream.">
<polygon fill="none" stroke="red" points="448.5,-380.5 448.5,-401.5 567.5,-401.5 567.5,-380.5 448.5,-380.5"/>
<text text-anchor="middle" x="508" y="-388.5" font-family="FreeSans" font-size="10.00">Urho3D::VectorBuffer</text>
</a>
</g>
<!-- Node16&#45;&gt;Node9 -->
<g id="edge40" class="edge"><title>Node16&#45;&gt;Node9</title>
<path fill="none" stroke="#9a32cd" stroke-dasharray="5,2" d="M577.784,-385.762C636.192,-384.597 719.737,-390.688 782,-427 810.589,-443.673 830.086,-479.542 838.426,-497.42"/>
<polygon fill="#9a32cd" stroke="#9a32cd" points="577.444,-382.27 567.545,-386.046 577.638,-389.267 577.444,-382.27"/>
<text text-anchor="middle" x="705" y="-431" font-family="FreeSans" font-size="10.00"> attrBuffer_</text>
</g>
<!-- Node17&#45;&gt;Node9 -->
<g id="edge42" class="edge"><title>Node17&#45;&gt;Node9</title>
<path fill="none" stroke="#9a32cd" stroke-dasharray="5,2" d="M619.734,-606.792C671.261,-600.855 731.95,-588.676 782,-564 804.178,-553.066 824.091,-531.545 834.771,-518.599"/>
<polygon fill="#9a32cd" stroke="#9a32cd" points="619.119,-603.338 609.556,-607.898 619.876,-610.297 619.119,-603.338"/>
<text text-anchor="middle" x="705" y="-609" font-family="FreeSans" font-size="10.00"> components_</text>
</g>
<!-- Node18 -->
<g id="node40" class="node"><title>Node18</title>
<a xlink:href="a00375.html" target="_top" xlink:title="Three&#45;dimensional vector.">
<polygon fill="none" stroke="black" points="460,-218.5 460,-239.5 556,-239.5 556,-218.5 460,-218.5"/>
<text text-anchor="middle" x="508" y="-226.5" font-family="FreeSans" font-size="10.00">Urho3D::Vector3</text>
</a>
</g>
<!-- Node18&#45;&gt;Node9 -->
<g id="edge46" class="edge"><title>Node18&#45;&gt;Node9</title>
<path fill="none" stroke="#9a32cd" stroke-dasharray="5,2" d="M535.335,-244.548C559.411,-258.007 595.592,-277.667 628,-293 694.999,-324.699 729.851,-304.33 782,-357 822.78,-398.188 837.365,-470.24 841.557,-497.313"/>
<polygon fill="#9a32cd" stroke="#9a32cd" points="536.856,-241.388 526.424,-239.54 533.427,-247.49 536.856,-241.388"/>
<text text-anchor="middle" x="705" y="-374" font-family="FreeSans" font-size="10.00"> scale_</text>
<text text-anchor="middle" x="705" y="-361" font-family="FreeSans" font-size="10.00">position_</text>
</g>
<!-- Node18&#45;&gt;Node18 -->
<g id="edge48" class="edge"><title>Node18&#45;&gt;Node18</title>
<path fill="none" stroke="#9a32cd" stroke-dasharray="5,2" d="M472.155,-248.299C473.628,-253.781 485.576,-258 508,-258 541.375,-258 551.544,-248.653 538.507,-239.708"/>
<polygon fill="#9a32cd" stroke="#9a32cd" points="475.188,-250.049 477.493,-239.708 469.243,-246.355 475.188,-250.049"/>
<text text-anchor="middle" x="508" y="-353" font-family="FreeSans" font-size="10.00"> ONE</text>
<text text-anchor="middle" x="508" y="-340" font-family="FreeSans" font-size="10.00">DOWN</text>
<text text-anchor="middle" x="508" y="-327" font-family="FreeSans" font-size="10.00">BACK</text>
<text text-anchor="middle" x="508" y="-314" font-family="FreeSans" font-size="10.00">RIGHT</text>
<text text-anchor="middle" x="508" y="-301" font-family="FreeSans" font-size="10.00">LEFT</text>
<text text-anchor="middle" x="508" y="-288" font-family="FreeSans" font-size="10.00">ZERO</text>
<text text-anchor="middle" x="508" y="-275" font-family="FreeSans" font-size="10.00">FORWARD</text>
<text text-anchor="middle" x="508" y="-262" font-family="FreeSans" font-size="10.00">UP</text>
</g>
<!-- Node19 -->
<g id="node45" class="node"><title>Node19</title>
<a xlink:href="a00343.html" target="_top" xlink:title="32&#45;bit hash value for a string.">
<polygon fill="none" stroke="black" points="451.5,-647.5 451.5,-668.5 564.5,-668.5 564.5,-647.5 451.5,-647.5"/>
<text text-anchor="middle" x="508" y="-655.5" font-family="FreeSans" font-size="10.00">Urho3D::StringHash</text>
</a>
</g>
<!-- Node19&#45;&gt;Node9 -->
<g id="edge54" class="edge"><title>Node19&#45;&gt;Node9</title>
<path fill="none" stroke="#9a32cd" stroke-dasharray="5,2" d="M574.747,-656.129C644.867,-652.975 749.419,-644.532 782,-622 818.739,-596.592 835.22,-541.799 840.738,-518.659"/>
<polygon fill="#9a32cd" stroke="#9a32cd" points="574.507,-652.636 564.664,-656.558 574.804,-659.63 574.507,-652.636"/>
<text text-anchor="middle" x="705" y="-656" font-family="FreeSans" font-size="10.00"> nameHash_</text>
</g>
<!-- Node19&#45;&gt;Node19 -->
<g id="edge56" class="edge"><title>Node19&#45;&gt;Node19</title>
<path fill="none" stroke="#9a32cd" stroke-dasharray="5,2" d="M472.155,-677.299C473.628,-682.781 485.576,-687 508,-687 541.375,-687 551.544,-677.653 538.507,-668.708"/>
<polygon fill="#9a32cd" stroke="#9a32cd" points="475.188,-679.049 477.493,-668.708 469.243,-675.355 475.188,-679.049"/>
<text text-anchor="middle" x="508" y="-691" font-family="FreeSans" font-size="10.00"> ZERO</text>
</g>
<!-- Node20 -->
<g id="node48" class="node"><title>Node20</title>
<a xlink:href="a00386.html" target="_top" xlink:title="Urho3D::WeakPtr\&lt; Urho3D\l::PhysicsWorld2D \&gt;">
<polygon fill="none" stroke="black" points="1576,-546 1576,-580 1722,-580 1722,-546 1576,-546"/>
<text text-anchor="start" x="1584" y="-567" font-family="FreeSans" font-size="10.00">Urho3D::WeakPtr&lt; Urho3D</text>
<text text-anchor="middle" x="1649" y="-554" font-family="FreeSans" font-size="10.00">::PhysicsWorld2D &gt;</text>
</a>
</g>
<!-- Node20&#45;&gt;Node2 -->
<g id="edge58" class="edge"><title>Node20&#45;&gt;Node2</title>
<path fill="none" stroke="#9a32cd" stroke-dasharray="5,2" d="M1732.14,-563C1763.79,-563 1799.21,-563 1828.27,-563"/>
<polygon fill="#9a32cd" stroke="#9a32cd" points="1732.01,-559.5 1722.01,-563 1732.01,-566.5 1732.01,-559.5"/>
<text text-anchor="middle" x="1775" y="-567" font-family="FreeSans" font-size="10.00"> physicsWorld_</text>
</g>
<!-- Node21&#45;&gt;Node20 -->
<g id="edge60" class="edge"><title>Node21&#45;&gt;Node20</title>
<path fill="none" stroke="#9a32cd" stroke-dasharray="5,2" d="M1500.13,-545.318C1519.08,-546.066 1539.3,-547.221 1558,-549 1563.73,-549.545 1569.65,-550.213 1575.58,-550.96"/>
<polygon fill="#9a32cd" stroke="#9a32cd" points="1500.17,-541.817 1490.05,-544.953 1499.92,-548.813 1500.17,-541.817"/>
<text text-anchor="middle" x="1533" y="-553" font-family="FreeSans" font-size="10.00"> ptr_</text>
</g>
<!-- Node22 -->
<g id="node53" class="node"><title>Node22</title>
<a xlink:href="a00374.html" target="_top" xlink:title="Two&#45;dimensional vector.">
<polygon fill="none" stroke="black" points="1132,-541.5 1132,-562.5 1228,-562.5 1228,-541.5 1132,-541.5"/>
<text text-anchor="middle" x="1180" y="-549.5" font-family="FreeSans" font-size="10.00">Urho3D::Vector2</text>
</a>
</g>
<!-- Node22&#45;&gt;Node1 -->
<g id="edge78" class="edge"><title>Node22&#45;&gt;Node1</title>
<path fill="none" stroke="#9a32cd" stroke-dasharray="5,2" d="M1207.1,-567.44C1250.99,-590.944 1340.97,-633 1423,-633 1423,-633 1423,-633 1888,-633 1941.17,-633 2001.25,-625.362 2044.35,-618.53"/>
<polygon fill="#9a32cd" stroke="#9a32cd" points="1208.66,-564.304 1198.21,-562.589 1205.31,-570.45 1208.66,-564.304"/>
<text text-anchor="middle" x="1649" y="-650" font-family="FreeSans" font-size="10.00"> normal_</text>
<text text-anchor="middle" x="1649" y="-637" font-family="FreeSans" font-size="10.00">position_</text>
</g>
<!-- Node22&#45;&gt;Node21 -->
<g id="edge64" class="edge"><title>Node22&#45;&gt;Node21</title>
<path fill="none" stroke="#9a32cd" stroke-dasharray="5,2" d="M1238.18,-550.085C1273.55,-548.92 1318.87,-547.428 1355.77,-546.213"/>
<polygon fill="#9a32cd" stroke="#9a32cd" points="1237.89,-546.592 1228.01,-550.419 1238.12,-553.588 1237.89,-546.592"/>
<text text-anchor="middle" x="1297" y="-553" font-family="FreeSans" font-size="10.00"> gravity_</text>
</g>
<!-- Node22&#45;&gt;Node22 -->
<g id="edge66" class="edge"><title>Node22&#45;&gt;Node22</title>
<path fill="none" stroke="#9a32cd" stroke-dasharray="5,2" d="M1158.62,-572.427C1160.27,-577.349 1167.4,-581 1180,-581 1200.16,-581 1206.31,-571.653 1198.43,-562.708"/>
<polygon fill="#9a32cd" stroke="#9a32cd" points="1162.02,-573.293 1161.57,-562.708 1155.32,-571.262 1162.02,-573.293"/>
<text text-anchor="middle" x="1180" y="-650" font-family="FreeSans" font-size="10.00"> ONE</text>
<text text-anchor="middle" x="1180" y="-637" font-family="FreeSans" font-size="10.00">DOWN</text>
<text text-anchor="middle" x="1180" y="-624" font-family="FreeSans" font-size="10.00">RIGHT</text>
<text text-anchor="middle" x="1180" y="-611" font-family="FreeSans" font-size="10.00">LEFT</text>
<text text-anchor="middle" x="1180" y="-598" font-family="FreeSans" font-size="10.00">ZERO</text>
<text text-anchor="middle" x="1180" y="-585" font-family="FreeSans" font-size="10.00">UP</text>
</g>
<!-- Node23 -->
<g id="node56" class="node"><title>Node23</title>
<a xlink:href="a00281.html" target="_top" xlink:title="Reference count structure.">
<polygon fill="none" stroke="black" points="1372,-573.5 1372,-594.5 1474,-594.5 1474,-573.5 1372,-573.5"/>
<text text-anchor="middle" x="1423" y="-581.5" font-family="FreeSans" font-size="10.00">Urho3D::RefCount</text>
</a>
</g>
<!-- Node23&#45;&gt;Node20 -->
<g id="edge68" class="edge"><title>Node23&#45;&gt;Node20</title>
<path fill="none" stroke="#9a32cd" stroke-dasharray="5,2" d="M1484.15,-578.317C1512.45,-575.689 1546.27,-572.546 1575.9,-569.793"/>
<polygon fill="#9a32cd" stroke="#9a32cd" points="1483.63,-574.851 1474,-579.261 1484.28,-581.821 1483.63,-574.851"/>
<text text-anchor="middle" x="1533" y="-579" font-family="FreeSans" font-size="10.00"> refCount_</text>
</g>
<!-- Node24&#45;&gt;Node2 -->
<g id="edge70" class="edge"><title>Node24&#45;&gt;Node2</title>
<path fill="none" stroke="#9a32cd" stroke-dasharray="5,2" d="M777.711,-227.346C779.153,-227.901 780.584,-228.453 782,-229 880.999,-267.261 897.864,-317 1004,-317 1004,-317 1004,-317 1649,-317 1782.38,-317 1865.33,-505.344 1883.98,-552.43"/>
<polygon fill="#9a32cd" stroke="#9a32cd" points="778.656,-223.96 768.066,-223.651 776.152,-230.497 778.656,-223.96"/>
<text text-anchor="middle" x="1297" y="-321" font-family="FreeSans" font-size="10.00"> collisionShapes_</text>
</g>
<!-- Node25&#45;&gt;Node2 -->
<g id="edge74" class="edge"><title>Node25&#45;&gt;Node2</title>
<path fill="none" stroke="#9a32cd" stroke-dasharray="5,2" d="M1114.42,-770.952C1258.27,-762.746 1515.73,-737.935 1722,-663 1783.66,-640.598 1847.7,-594.303 1874.72,-573.512"/>
<polygon fill="#9a32cd" stroke="#9a32cd" points="1114.06,-767.467 1104.27,-771.515 1114.44,-774.457 1114.06,-767.467"/>
<text text-anchor="middle" x="1423" y="-751" font-family="FreeSans" font-size="10.00"> constraints_</text>
</g>
</g>
</svg>
