<?xml version="1.0" encoding="UTF-8" standalone="no"?>
<!DOCTYPE svg PUBLIC "-//W3C//DTD SVG 1.1//EN"
 "http://www.w3.org/Graphics/SVG/1.1/DTD/svg11.dtd">
<!-- Generated by graphviz version 2.26.3 (20100126.1600)
 -->
<!-- Title: Urho3D::ConstraintPulley2D Pages: 1 -->
<svg width="2432pt" height="683pt"
 viewBox="0.00 0.00 2432.00 683.00" xmlns="http://www.w3.org/2000/svg" xmlns:xlink="http://www.w3.org/1999/xlink">
<g id="graph1" class="graph" transform="scale(1 1) rotate(0) translate(4 679)">
<title>Urho3D::ConstraintPulley2D</title>
<!-- Node1 -->
<g id="node1" class="node"><title>Node1</title>
<polygon fill="#bfbfbf" stroke="black" points="2274,-393.5 2274,-414.5 2424,-414.5 2424,-393.5 2274,-393.5"/>
<text text-anchor="middle" x="2349" y="-401.5" font-family="FreeSans" font-size="10.00">Urho3D::ConstraintPulley2D</text>
</g>
<!-- Node2 -->
<g id="node2" class="node"><title>Node2</title>
<a xlink:href="a00112.html" target="_top" xlink:title="2D physics constraint component.">
<polygon fill="none" stroke="black" points="2014,-482.5 2014,-503.5 2136,-503.5 2136,-482.5 2014,-482.5"/>
<text text-anchor="middle" x="2075" y="-490.5" font-family="FreeSans" font-size="10.00">Urho3D::Constraint2D</text>
</a>
</g>
<!-- Node2&#45;&gt;Node1 -->
<g id="edge2" class="edge"><title>Node2&#45;&gt;Node1</title>
<path fill="none" stroke="midnightblue" d="M2117.28,-479.267C2172.21,-461.426 2266.92,-430.662 2316.53,-414.545"/>
<polygon fill="midnightblue" stroke="midnightblue" points="2115.94,-476.023 2107.51,-482.441 2118.1,-482.68 2115.94,-476.023"/>
</g>
<!-- Node25 -->
<g id="node61" class="node"><title>Node25</title>
<a xlink:href="a00389.html" target="_top" xlink:title="Urho3D::WeakPtr\&lt; Urho3D\l::Constraint2D \&gt;">
<polygon fill="none" stroke="black" points="2276,-512 2276,-546 2422,-546 2422,-512 2276,-512"/>
<text text-anchor="start" x="2284" y="-533" font-family="FreeSans" font-size="10.00">Urho3D::WeakPtr&lt; Urho3D</text>
<text text-anchor="middle" x="2349" y="-520" font-family="FreeSans" font-size="10.00">::Constraint2D &gt;</text>
</a>
</g>
<!-- Node2&#45;&gt;Node25 -->
<g id="edge76" class="edge"><title>Node2&#45;&gt;Node25</title>
<path fill="none" stroke="#9a32cd" stroke-dasharray="5,2" d="M2142,-505.174C2146.06,-505.818 2150.08,-506.432 2154,-507 2194.12,-512.813 2239.08,-517.975 2275.71,-521.836"/>
<polygon fill="#9a32cd" stroke="#9a32cd" points="2142.32,-501.68 2131.89,-503.523 2141.2,-508.589 2142.32,-501.68"/>
<text text-anchor="middle" x="2205" y="-524" font-family="FreeSans" font-size="10.00"> ptr_</text>
</g>
<!-- Node3 -->
<g id="node4" class="node"><title>Node3</title>
<a xlink:href="a00102.html" target="_top" xlink:title="Base class for components. Components can be created to scene nodes.">
<polygon fill="none" stroke="black" points="878,-505.5 878,-526.5 994,-526.5 994,-505.5 878,-505.5"/>
<text text-anchor="middle" x="936" y="-513.5" font-family="FreeSans" font-size="10.00">Urho3D::Component</text>
</a>
</g>
<!-- Node3&#45;&gt;Node2 -->
<g id="edge4" class="edge"><title>Node3&#45;&gt;Node2</title>
<path fill="none" stroke="midnightblue" d="M961.585,-500.088C983.375,-486.549 1011.29,-469.246 1012,-469 1065.69,-450.501 1082.21,-455 1139,-455 1139,-455 1139,-455 1847,-455 1914.02,-455 1990.62,-471.171 2035.79,-482.415"/>
<polygon fill="midnightblue" stroke="midnightblue" points="959.659,-497.163 953.014,-505.415 963.355,-503.109 959.659,-497.163"/>
</g>
<!-- Node20 -->
<g id="node46" class="node"><title>Node20</title>
<a xlink:href="a00298.html" target="_top" xlink:title="2D rigid body component.">
<polygon fill="none" stroke="red" points="1546.5,-535.5 1546.5,-556.5 1665.5,-556.5 1665.5,-535.5 1546.5,-535.5"/>
<text text-anchor="middle" x="1606" y="-543.5" font-family="FreeSans" font-size="10.00">Urho3D::RigidBody2D</text>
</a>
</g>
<!-- Node3&#45;&gt;Node20 -->
<g id="edge56" class="edge"><title>Node3&#45;&gt;Node20</title>
<path fill="none" stroke="midnightblue" d="M1004.31,-522.998C1062.61,-528.658 1148.72,-536.276 1224,-540 1337.94,-545.636 1471.22,-546.407 1546.41,-546.306"/>
<polygon fill="midnightblue" stroke="midnightblue" points="1004.41,-519.492 994.118,-522.001 1003.73,-526.458 1004.41,-519.492"/>
</g>
<!-- Node22 -->
<g id="node51" class="node"><title>Node22</title>
<a xlink:href="a00268.html" target="_top" xlink:title="2D physics simulation world component. Should be added only to the root scene node.">
<polygon fill="none" stroke="red" points="1072,-483.5 1072,-504.5 1206,-504.5 1206,-483.5 1072,-483.5"/>
<text text-anchor="middle" x="1139" y="-491.5" font-family="FreeSans" font-size="10.00">Urho3D::PhysicsWorld2D</text>
</a>
</g>
<!-- Node3&#45;&gt;Node22 -->
<g id="edge62" class="edge"><title>Node3&#45;&gt;Node22</title>
<path fill="none" stroke="midnightblue" d="M1004.33,-508.595C1026.11,-506.235 1050.17,-503.626 1071.87,-501.275"/>
<polygon fill="midnightblue" stroke="midnightblue" points="1003.74,-505.139 994.172,-509.696 1004.49,-512.098 1003.74,-505.139"/>
</g>
<!-- Node4 -->
<g id="node6" class="node"><title>Node4</title>
<a xlink:href="a00054.html" target="_top" xlink:title="Base class for animatable object, an animatable object can be set animation on it&#39;s attributes...">
<polygon fill="none" stroke="black" points="425,-571.5 425,-592.5 539,-592.5 539,-571.5 425,-571.5"/>
<text text-anchor="middle" x="482" y="-579.5" font-family="FreeSans" font-size="10.00">Urho3D::Animatable</text>
</a>
</g>
<!-- Node4&#45;&gt;Node3 -->
<g id="edge6" class="edge"><title>Node4&#45;&gt;Node3</title>
<path fill="none" stroke="midnightblue" d="M549.275,-580.332C592.503,-578.607 649.765,-575.105 700,-568 769.998,-558.1 850.092,-538.704 896.667,-526.602"/>
<polygon fill="midnightblue" stroke="midnightblue" points="549.021,-576.839 539.16,-580.714 549.285,-583.834 549.021,-576.839"/>
</g>
<!-- Node9 -->
<g id="node16" class="node"><title>Node9</title>
<a xlink:href="a00238.html" target="_top" xlink:title="Scene node that may contain components and child nodes.">
<polygon fill="none" stroke="red" points="718.5,-265.5 718.5,-286.5 803.5,-286.5 803.5,-265.5 718.5,-265.5"/>
<text text-anchor="middle" x="761" y="-273.5" font-family="FreeSans" font-size="10.00">Urho3D::Node</text>
</a>
</g>
<!-- Node4&#45;&gt;Node9 -->
<g id="edge18" class="edge"><title>Node4&#45;&gt;Node9</title>
<path fill="none" stroke="midnightblue" d="M549.458,-576.659C605.32,-570.841 678.835,-559.495 700,-539 737.376,-502.807 755.801,-331.607 760.036,-286.77"/>
<polygon fill="midnightblue" stroke="midnightblue" points="548.851,-573.202 539.25,-577.682 549.549,-580.168 548.851,-573.202"/>
</g>
<!-- Node5 -->
<g id="node8" class="node"><title>Node5</title>
<a xlink:href="a00312.html" target="_top" xlink:title="Base class for objects with automatic serialization through attributes.">
<polygon fill="none" stroke="red" points="44,-653.5 44,-674.5 158,-674.5 158,-653.5 44,-653.5"/>
<text text-anchor="middle" x="101" y="-661.5" font-family="FreeSans" font-size="10.00">Urho3D::Serializable</text>
</a>
</g>
<!-- Node5&#45;&gt;Node4 -->
<g id="edge8" class="edge"><title>Node5&#45;&gt;Node4</title>
<path fill="none" stroke="midnightblue" d="M168.155,-654.846C221.156,-647.039 296.778,-634.609 362,-619 392.956,-611.591 427.633,-600.599 451.719,-592.52"/>
<polygon fill="midnightblue" stroke="midnightblue" points="167.588,-651.391 158.197,-656.297 168.598,-658.318 167.588,-651.391"/>
</g>
<!-- Node6 -->
<g id="node10" class="node"><title>Node6</title>
<a xlink:href="a00178.html" target="_top" xlink:title="Urho3D::HashMap\&lt; Urho3D\l::String, Urho3D::SharedPtr\l\&lt; Urho3D::AttributeAnimationInfo \&gt; \&gt;">
<polygon fill="none" stroke="red" points="0.5,-587.5 0.5,-634.5 201.5,-634.5 201.5,-587.5 0.5,-587.5"/>
<text text-anchor="start" x="8.5" y="-621.5" font-family="FreeSans" font-size="10.00">Urho3D::HashMap&lt; Urho3D</text>
<text text-anchor="start" x="8.5" y="-608.5" font-family="FreeSans" font-size="10.00">::String, Urho3D::SharedPtr</text>
<text text-anchor="middle" x="101" y="-595.5" font-family="FreeSans" font-size="10.00">&lt; Urho3D::AttributeAnimationInfo &gt; &gt;</text>
</a>
</g>
<!-- Node6&#45;&gt;Node4 -->
<g id="edge10" class="edge"><title>Node6&#45;&gt;Node4</title>
<path fill="none" stroke="#9a32cd" stroke-dasharray="5,2" d="M211.769,-602.569C281.579,-597.255 368.818,-590.615 424.967,-586.341"/>
<polygon fill="#9a32cd" stroke="#9a32cd" points="211.307,-599.094 201.602,-603.343 211.838,-606.074 211.307,-599.094"/>
<text text-anchor="middle" x="291" y="-606" font-family="FreeSans" font-size="10.00"> attributeAnimationInfos_</text>
</g>
<!-- Node7 -->
<g id="node12" class="node"><title>Node7</title>
<a xlink:href="a00322.html" target="_top" xlink:title="Urho3D::SharedPtr\&lt;\l Urho3D::ObjectAnimation \&gt;">
<polygon fill="none" stroke="red" points="24.5,-535 24.5,-569 177.5,-569 177.5,-535 24.5,-535"/>
<text text-anchor="start" x="32.5" y="-556" font-family="FreeSans" font-size="10.00">Urho3D::SharedPtr&lt;</text>
<text text-anchor="middle" x="101" y="-543" font-family="FreeSans" font-size="10.00"> Urho3D::ObjectAnimation &gt;</text>
</a>
</g>
<!-- Node7&#45;&gt;Node4 -->
<g id="edge12" class="edge"><title>Node7&#45;&gt;Node4</title>
<path fill="none" stroke="#9a32cd" stroke-dasharray="5,2" d="M187.689,-558.826C260.297,-564.543 361.871,-572.541 424.716,-577.489"/>
<polygon fill="#9a32cd" stroke="#9a32cd" points="187.887,-555.331 177.643,-558.035 187.337,-562.309 187.887,-555.331"/>
<text text-anchor="middle" x="291" y="-577" font-family="FreeSans" font-size="10.00"> objectAnimation_</text>
</g>
<!-- Node8 -->
<g id="node14" class="node"><title>Node8</title>
<a xlink:href="a00180.html" target="_top" xlink:title="Urho3D::HashSet\&lt; const\l Urho3D::AttributeInfo * \&gt;">
<polygon fill="none" stroke="red" points="30.5,-483 30.5,-517 171.5,-517 171.5,-483 30.5,-483"/>
<text text-anchor="start" x="38.5" y="-504" font-family="FreeSans" font-size="10.00">Urho3D::HashSet&lt; const</text>
<text text-anchor="middle" x="101" y="-491" font-family="FreeSans" font-size="10.00"> Urho3D::AttributeInfo * &gt;</text>
</a>
</g>
<!-- Node8&#45;&gt;Node4 -->
<g id="edge14" class="edge"><title>Node8&#45;&gt;Node4</title>
<path fill="none" stroke="#9a32cd" stroke-dasharray="5,2" d="M181.878,-501.912C235.436,-506.001 305.884,-516.932 362,-545 371.842,-549.922 370.215,-556.965 380,-562 393.719,-569.059 409.652,-573.634 424.79,-576.597"/>
<polygon fill="#9a32cd" stroke="#9a32cd" points="181.961,-498.41 171.741,-501.204 181.473,-505.393 181.961,-498.41"/>
<text text-anchor="middle" x="291" y="-549" font-family="FreeSans" font-size="10.00"> animatedNetworkAttributes_</text>
</g>
<!-- Node9&#45;&gt;Node3 -->
<g id="edge16" class="edge"><title>Node9&#45;&gt;Node3</title>
<path fill="none" stroke="#9a32cd" stroke-dasharray="5,2" d="M768.756,-296.514C784.445,-335.903 823.179,-423.239 878,-480 888.127,-490.485 901.912,-499.205 913.502,-505.436"/>
<polygon fill="#9a32cd" stroke="#9a32cd" points="771.92,-294.996 765.027,-286.95 765.399,-297.539 771.92,-294.996"/>
<text text-anchor="middle" x="841" y="-461" font-family="FreeSans" font-size="10.00"> node_</text>
</g>
<!-- Node9&#45;&gt;Node9 -->
<g id="edge46" class="edge"><title>Node9&#45;&gt;Node9</title>
<path fill="none" stroke="#9a32cd" stroke-dasharray="5,2" d="M746.349,-296.793C747.642,-301.529 752.526,-305 761,-305 774.906,-305 779.143,-295.653 773.711,-286.708"/>
<polygon fill="#9a32cd" stroke="#9a32cd" points="749.837,-297.189 748.289,-286.708 742.963,-295.867 749.837,-297.189"/>
<text text-anchor="middle" x="761" y="-309" font-family="FreeSans" font-size="10.00"> parent_</text>
</g>
<!-- Node11 -->
<g id="node21" class="node"><title>Node11</title>
<a xlink:href="a00300.html" target="_top" xlink:title="Root scene node, represents the whole scene.">
<polygon fill="none" stroke="red" points="891.5,-232.5 891.5,-253.5 980.5,-253.5 980.5,-232.5 891.5,-232.5"/>
<text text-anchor="middle" x="936" y="-240.5" font-family="FreeSans" font-size="10.00">Urho3D::Scene</text>
</a>
</g>
<!-- Node9&#45;&gt;Node11 -->
<g id="edge24" class="edge"><title>Node9&#45;&gt;Node11</title>
<path fill="none" stroke="midnightblue" d="M801.035,-262.409C807.97,-260.378 815.152,-258.475 822,-257 844.613,-252.131 870.139,-248.8 891.296,-246.613"/>
<polygon fill="midnightblue" stroke="midnightblue" points="799.661,-259.169 791.121,-265.44 801.708,-265.863 799.661,-259.169"/>
</g>
<!-- Node10 -->
<g id="node19" class="node"><title>Node10</title>
<a xlink:href="a00270.html" target="_top" xlink:title="Urho3D::PODVector\&lt;\l Urho3D::Node * \&gt;">
<polygon fill="none" stroke="red" points="422.5,-142 422.5,-176 541.5,-176 541.5,-142 422.5,-142"/>
<text text-anchor="start" x="430.5" y="-163" font-family="FreeSans" font-size="10.00">Urho3D::PODVector&lt;</text>
<text text-anchor="middle" x="482" y="-150" font-family="FreeSans" font-size="10.00"> Urho3D::Node * &gt;</text>
</a>
</g>
<!-- Node10&#45;&gt;Node9 -->
<g id="edge20" class="edge"><title>Node10&#45;&gt;Node9</title>
<path fill="none" stroke="#9a32cd" stroke-dasharray="5,2" d="M551.452,-168.532C596.088,-176.831 654.096,-191.798 700,-218 721.829,-230.46 741.862,-252.359 752.658,-265.389"/>
<polygon fill="#9a32cd" stroke="#9a32cd" points="552.025,-165.079 541.565,-166.762 550.791,-171.97 552.025,-165.079"/>
<text text-anchor="middle" x="651" y="-222" font-family="FreeSans" font-size="10.00"> dependencyNodes_</text>
</g>
<!-- Node11&#45;&gt;Node9 -->
<g id="edge22" class="edge"><title>Node11&#45;&gt;Node9</title>
<path fill="none" stroke="#9a32cd" stroke-dasharray="5,2" d="M881.425,-253.291C856.414,-258.008 827.2,-263.517 803.81,-267.927"/>
<polygon fill="#9a32cd" stroke="#9a32cd" points="882.32,-256.684 891.498,-251.392 881.023,-249.806 882.32,-256.684"/>
<text text-anchor="middle" x="841" y="-269" font-family="FreeSans" font-size="10.00"> scene_</text>
</g>
<!-- Node12 -->
<g id="node24" class="node"><title>Node12</title>
<a xlink:href="a00345.html" target="_top" xlink:title="String class.">
<polygon fill="none" stroke="black" points="438,-0.5 438,-21.5 526,-21.5 526,-0.5 438,-0.5"/>
<text text-anchor="middle" x="482" y="-8.5" font-family="FreeSans" font-size="10.00">Urho3D::String</text>
</a>
</g>
<!-- Node12&#45;&gt;Node9 -->
<g id="edge44" class="edge"><title>Node12&#45;&gt;Node9</title>
<path fill="none" stroke="#9a32cd" stroke-dasharray="5,2" d="M536.329,-16.3386C585.42,-23.9695 656.46,-42.4355 700,-87 725.963,-113.574 751.441,-229.338 758.852,-265.301"/>
<polygon fill="#9a32cd" stroke="#9a32cd" points="536.603,-12.8419 526.204,-14.8692 535.598,-19.7693 536.603,-12.8419"/>
<text text-anchor="middle" x="651" y="-91" font-family="FreeSans" font-size="10.00"> name_</text>
</g>
<!-- Node12&#45;&gt;Node11 -->
<g id="edge26" class="edge"><title>Node12&#45;&gt;Node11</title>
<path fill="none" stroke="#9a32cd" stroke-dasharray="5,2" d="M536.454,-6.03122C582.032,-4.04483 647.805,-6.3474 700,-29 809.591,-76.562 902.259,-196.213 928.542,-232.442"/>
<polygon fill="#9a32cd" stroke="#9a32cd" points="535.991,-2.55049 526.187,-6.56589 536.355,-9.54101 535.991,-2.55049"/>
<text text-anchor="middle" x="761" y="-98" font-family="FreeSans" font-size="10.00"> fileName_</text>
</g>
<!-- Node12&#45;&gt;Node12 -->
<g id="edge28" class="edge"><title>Node12&#45;&gt;Node12</title>
<path fill="none" stroke="#9a32cd" stroke-dasharray="5,2" d="M450.741,-30.6791C452.416,-35.9746 462.835,-40 482,-40 511.203,-40 520.101,-30.6531 508.693,-21.7079"/>
<polygon fill="#9a32cd" stroke="#9a32cd" points="453.89,-32.2076 455.307,-21.7079 447.651,-29.0325 453.89,-32.2076"/>
<text text-anchor="middle" x="482" y="-44" font-family="FreeSans" font-size="10.00"> EMPTY</text>
</g>
<!-- Node13 -->
<g id="node27" class="node"><title>Node13</title>
<a xlink:href="a00275.html" target="_top" xlink:title="Rotation represented as a four&#45;dimensional normalized vector.">
<polygon fill="none" stroke="black" points="425.5,-71.5 425.5,-92.5 538.5,-92.5 538.5,-71.5 425.5,-71.5"/>
<text text-anchor="middle" x="482" y="-79.5" font-family="FreeSans" font-size="10.00">Urho3D::Quaternion</text>
</a>
</g>
<!-- Node13&#45;&gt;Node9 -->
<g id="edge30" class="edge"><title>Node13&#45;&gt;Node9</title>
<path fill="none" stroke="#9a32cd" stroke-dasharray="5,2" d="M548.647,-89.1066C595.659,-97.1896 657.569,-114.406 700,-151 736.573,-182.541 753.232,-241.093 758.77,-265.2"/>
<polygon fill="#9a32cd" stroke="#9a32cd" points="548.984,-85.6156 538.553,-87.4708 547.864,-92.5255 548.984,-85.6156"/>
<text text-anchor="middle" x="651" y="-168" font-family="FreeSans" font-size="10.00"> worldRotation_</text>
<text text-anchor="middle" x="651" y="-155" font-family="FreeSans" font-size="10.00">rotation_</text>
</g>
<!-- Node13&#45;&gt;Node13 -->
<g id="edge32" class="edge"><title>Node13&#45;&gt;Node13</title>
<path fill="none" stroke="#9a32cd" stroke-dasharray="5,2" d="M450.741,-101.679C452.416,-106.975 462.835,-111 482,-111 511.203,-111 520.101,-101.653 508.693,-92.7079"/>
<polygon fill="#9a32cd" stroke="#9a32cd" points="453.89,-103.208 455.307,-92.7079 447.651,-100.032 453.89,-103.208"/>
<text text-anchor="middle" x="482" y="-115" font-family="FreeSans" font-size="10.00"> IDENTITY</text>
</g>
<!-- Node14 -->
<g id="node30" class="node"><title>Node14</title>
<a xlink:href="a00376.html" target="_top" xlink:title="Urho3D::Vector\&lt; Urho3D\l::WeakPtr\&lt; Urho3D::Component \&gt; \&gt;">
<polygon fill="none" stroke="red" points="385,-519 385,-553 579,-553 579,-519 385,-519"/>
<text text-anchor="start" x="393" y="-540" font-family="FreeSans" font-size="10.00">Urho3D::Vector&lt; Urho3D</text>
<text text-anchor="middle" x="482" y="-527" font-family="FreeSans" font-size="10.00">::WeakPtr&lt; Urho3D::Component &gt; &gt;</text>
</a>
</g>
<!-- Node14&#45;&gt;Node9 -->
<g id="edge34" class="edge"><title>Node14&#45;&gt;Node9</title>
<path fill="none" stroke="#9a32cd" stroke-dasharray="5,2" d="M589.355,-524.899C635.788,-518.015 683.312,-507.464 700,-492 731.225,-463.064 753.586,-326.169 759.467,-286.684"/>
<polygon fill="#9a32cd" stroke="#9a32cd" points="588.569,-521.476 579.165,-526.356 589.559,-528.406 588.569,-521.476"/>
<text text-anchor="middle" x="651" y="-526" font-family="FreeSans" font-size="10.00"> listeners_</text>
</g>
<!-- Node15 -->
<g id="node32" class="node"><title>Node15</title>
<a xlink:href="a00381.html" target="_top" xlink:title="Dynamically sized buffer that can be read and written to as a stream.">
<polygon fill="none" stroke="red" points="422.5,-479.5 422.5,-500.5 541.5,-500.5 541.5,-479.5 422.5,-479.5"/>
<text text-anchor="middle" x="482" y="-487.5" font-family="FreeSans" font-size="10.00">Urho3D::VectorBuffer</text>
</a>
</g>
<!-- Node15&#45;&gt;Node9 -->
<g id="edge36" class="edge"><title>Node15&#45;&gt;Node9</title>
<path fill="none" stroke="#9a32cd" stroke-dasharray="5,2" d="M551.88,-485.517C599.464,-478.878 660.712,-462.764 700,-424 740.555,-383.986 755.275,-313.152 759.53,-286.517"/>
<polygon fill="#9a32cd" stroke="#9a32cd" points="551.418,-482.047 541.946,-486.794 552.311,-488.99 551.418,-482.047"/>
<text text-anchor="middle" x="651" y="-479" font-family="FreeSans" font-size="10.00"> attrBuffer_</text>
</g>
<!-- Node16 -->
<g id="node34" class="node"><title>Node16</title>
<a xlink:href="a00376.html" target="_top" xlink:title="Urho3D::Vector\&lt; Urho3D\l::SharedPtr\&lt; Urho3D::Component \&gt; \&gt;">
<polygon fill="none" stroke="red" points="380.5,-427 380.5,-461 583.5,-461 583.5,-427 380.5,-427"/>
<text text-anchor="start" x="388.5" y="-448" font-family="FreeSans" font-size="10.00">Urho3D::Vector&lt; Urho3D</text>
<text text-anchor="middle" x="482" y="-435" font-family="FreeSans" font-size="10.00">::SharedPtr&lt; Urho3D::Component &gt; &gt;</text>
</a>
</g>
<!-- Node16&#45;&gt;Node9 -->
<g id="edge38" class="edge"><title>Node16&#45;&gt;Node9</title>
<path fill="none" stroke="#9a32cd" stroke-dasharray="5,2" d="M572.152,-423.329C576.214,-421.678 580.183,-419.905 584,-418 655.912,-382.116 725.611,-313.251 750.959,-286.755"/>
<polygon fill="#9a32cd" stroke="#9a32cd" points="570.654,-420.153 562.535,-426.96 573.127,-426.702 570.654,-420.153"/>
<text text-anchor="middle" x="651" y="-411" font-family="FreeSans" font-size="10.00"> components_</text>
</g>
<!-- Node17 -->
<g id="node36" class="node"><title>Node17</title>
<a xlink:href="a00378.html" target="_top" xlink:title="Three&#45;dimensional vector.">
<polygon fill="none" stroke="black" points="434,-265.5 434,-286.5 530,-286.5 530,-265.5 434,-265.5"/>
<text text-anchor="middle" x="482" y="-273.5" font-family="FreeSans" font-size="10.00">Urho3D::Vector3</text>
</a>
</g>
<!-- Node17&#45;&gt;Node9 -->
<g id="edge40" class="edge"><title>Node17&#45;&gt;Node9</title>
<path fill="none" stroke="#9a32cd" stroke-dasharray="5,2" d="M540.573,-276C593.719,-276 670.818,-276 718.334,-276"/>
<polygon fill="#9a32cd" stroke="#9a32cd" points="540.28,-272.5 530.28,-276 540.28,-279.5 540.28,-272.5"/>
<text text-anchor="middle" x="651" y="-293" font-family="FreeSans" font-size="10.00"> scale_</text>
<text text-anchor="middle" x="651" y="-280" font-family="FreeSans" font-size="10.00">position_</text>
</g>
<!-- Node17&#45;&gt;Node17 -->
<g id="edge42" class="edge"><title>Node17&#45;&gt;Node17</title>
<path fill="none" stroke="#9a32cd" stroke-dasharray="5,2" d="M450.741,-295.679C452.416,-300.975 462.835,-305 482,-305 511.203,-305 520.101,-295.653 508.693,-286.708"/>
<polygon fill="#9a32cd" stroke="#9a32cd" points="453.89,-297.208 455.307,-286.708 447.651,-294.032 453.89,-297.208"/>
<text text-anchor="middle" x="482" y="-400" font-family="FreeSans" font-size="10.00"> ONE</text>
<text text-anchor="middle" x="482" y="-387" font-family="FreeSans" font-size="10.00">DOWN</text>
<text text-anchor="middle" x="482" y="-374" font-family="FreeSans" font-size="10.00">BACK</text>
<text text-anchor="middle" x="482" y="-361" font-family="FreeSans" font-size="10.00">RIGHT</text>
<text text-anchor="middle" x="482" y="-348" font-family="FreeSans" font-size="10.00">LEFT</text>
<text text-anchor="middle" x="482" y="-335" font-family="FreeSans" font-size="10.00">ZERO</text>
<text text-anchor="middle" x="482" y="-322" font-family="FreeSans" font-size="10.00">FORWARD</text>
<text text-anchor="middle" x="482" y="-309" font-family="FreeSans" font-size="10.00">UP</text>
</g>
<!-- Node18 -->
<g id="node41" class="node"><title>Node18</title>
<a xlink:href="a00346.html" target="_top" xlink:title="32&#45;bit hash value for a string.">
<polygon fill="none" stroke="black" points="425.5,-194.5 425.5,-215.5 538.5,-215.5 538.5,-194.5 425.5,-194.5"/>
<text text-anchor="middle" x="482" y="-202.5" font-family="FreeSans" font-size="10.00">Urho3D::StringHash</text>
</a>
</g>
<!-- Node18&#45;&gt;Node9 -->
<g id="edge48" class="edge"><title>Node18&#45;&gt;Node9</title>
<path fill="none" stroke="#9a32cd" stroke-dasharray="5,2" d="M536.303,-217.989C580.476,-228.666 644.378,-244.364 700,-259 707.761,-261.042 716.056,-263.302 723.95,-265.49"/>
<polygon fill="#9a32cd" stroke="#9a32cd" points="536.895,-214.531 526.353,-215.588 535.254,-221.336 536.895,-214.531"/>
<text text-anchor="middle" x="651" y="-263" font-family="FreeSans" font-size="10.00"> nameHash_</text>
</g>
<!-- Node18&#45;&gt;Node18 -->
<g id="edge50" class="edge"><title>Node18&#45;&gt;Node18</title>
<path fill="none" stroke="#9a32cd" stroke-dasharray="5,2" d="M450.741,-224.679C452.416,-229.975 462.835,-234 482,-234 511.203,-234 520.101,-224.653 508.693,-215.708"/>
<polygon fill="#9a32cd" stroke="#9a32cd" points="453.89,-226.208 455.307,-215.708 447.651,-223.032 453.89,-226.208"/>
<text text-anchor="middle" x="482" y="-238" font-family="FreeSans" font-size="10.00"> ZERO</text>
</g>
<!-- Node19 -->
<g id="node44" class="node"><title>Node19</title>
<a xlink:href="a00389.html" target="_top" xlink:title="Urho3D::WeakPtr\&lt; Urho3D\l::RigidBody2D \&gt;">
<polygon fill="none" stroke="black" points="1774,-529 1774,-563 1920,-563 1920,-529 1774,-529"/>
<text text-anchor="start" x="1782" y="-550" font-family="FreeSans" font-size="10.00">Urho3D::WeakPtr&lt; Urho3D</text>
<text text-anchor="middle" x="1847" y="-537" font-family="FreeSans" font-size="10.00">::RigidBody2D &gt;</text>
</a>
</g>
<!-- Node19&#45;&gt;Node2 -->
<g id="edge52" class="edge"><title>Node19&#45;&gt;Node2</title>
<path fill="none" stroke="#9a32cd" stroke-dasharray="5,2" d="M1929.91,-526.727C1963.53,-518.913 2001.05,-510.19 2029.51,-503.574"/>
<polygon fill="#9a32cd" stroke="#9a32cd" points="1929.03,-523.338 1920.08,-529.012 1930.61,-530.157 1929.03,-523.338"/>
<text text-anchor="middle" x="1967" y="-542" font-family="FreeSans" font-size="10.00"> otherBody_</text>
<text text-anchor="middle" x="1967" y="-529" font-family="FreeSans" font-size="10.00">ownerBody_</text>
</g>
<!-- Node20&#45;&gt;Node19 -->
<g id="edge54" class="edge"><title>Node20&#45;&gt;Node19</title>
<path fill="none" stroke="#9a32cd" stroke-dasharray="5,2" d="M1675.79,-546C1706.57,-546 1742.76,-546 1773.91,-546"/>
<polygon fill="#9a32cd" stroke="#9a32cd" points="1675.57,-542.5 1665.57,-546 1675.57,-549.5 1675.57,-542.5"/>
<text text-anchor="middle" x="1721" y="-550" font-family="FreeSans" font-size="10.00"> ptr_</text>
</g>
<!-- Node21 -->
<g id="node49" class="node"><title>Node21</title>
<a xlink:href="a00389.html" target="_top" xlink:title="Urho3D::WeakPtr\&lt; Urho3D\l::PhysicsWorld2D \&gt;">
<polygon fill="none" stroke="black" points="1292,-487 1292,-521 1438,-521 1438,-487 1292,-487"/>
<text text-anchor="start" x="1300" y="-508" font-family="FreeSans" font-size="10.00">Urho3D::WeakPtr&lt; Urho3D</text>
<text text-anchor="middle" x="1365" y="-495" font-family="FreeSans" font-size="10.00">::PhysicsWorld2D &gt;</text>
</a>
</g>
<!-- Node21&#45;&gt;Node2 -->
<g id="edge72" class="edge"><title>Node21&#45;&gt;Node2</title>
<path fill="none" stroke="#9a32cd" stroke-dasharray="5,2" d="M1448.45,-502.707C1592.98,-500.468 1886.58,-495.919 2013.86,-493.947"/>
<polygon fill="#9a32cd" stroke="#9a32cd" points="1448.25,-499.21 1438.31,-502.864 1448.36,-506.209 1448.25,-499.21"/>
<text text-anchor="middle" x="1721" y="-504" font-family="FreeSans" font-size="10.00"> physicsWorld_</text>
</g>
<!-- Node21&#45;&gt;Node20 -->
<g id="edge58" class="edge"><title>Node21&#45;&gt;Node20</title>
<path fill="none" stroke="#9a32cd" stroke-dasharray="5,2" d="M1448.36,-514.433C1473.4,-517.963 1500.89,-522.234 1526,-527 1538.62,-529.395 1552.26,-532.455 1564.63,-535.415"/>
<polygon fill="#9a32cd" stroke="#9a32cd" points="1448.55,-510.925 1438.17,-513.016 1447.59,-517.859 1448.55,-510.925"/>
<text text-anchor="middle" x="1491" y="-531" font-family="FreeSans" font-size="10.00"> physicsWorld_</text>
</g>
<!-- Node22&#45;&gt;Node21 -->
<g id="edge60" class="edge"><title>Node22&#45;&gt;Node21</title>
<path fill="none" stroke="#9a32cd" stroke-dasharray="5,2" d="M1216.33,-491.154C1218.92,-491.096 1221.48,-491.044 1224,-491 1246.22,-490.608 1251.83,-489.425 1274,-491 1279.73,-491.407 1285.65,-491.957 1291.59,-492.601"/>
<polygon fill="#9a32cd" stroke="#9a32cd" points="1216.18,-487.657 1206.27,-491.407 1216.36,-494.655 1216.18,-487.657"/>
<text text-anchor="middle" x="1249" y="-495" font-family="FreeSans" font-size="10.00"> ptr_</text>
</g>
<!-- Node23 -->
<g id="node54" class="node"><title>Node23</title>
<a xlink:href="a00377.html" target="_top" xlink:title="Two&#45;dimensional vector.">
<polygon fill="none" stroke="black" points="888,-353.5 888,-374.5 984,-374.5 984,-353.5 888,-353.5"/>
<text text-anchor="middle" x="936" y="-361.5" font-family="FreeSans" font-size="10.00">Urho3D::Vector2</text>
</a>
</g>
<!-- Node23&#45;&gt;Node1 -->
<g id="edge80" class="edge"><title>Node23&#45;&gt;Node1</title>
<path fill="none" stroke="#9a32cd" stroke-dasharray="5,2" d="M994.298,-357.402C1034.83,-353.377 1090.13,-349 1139,-349 1139,-349 1139,-349 2075,-349 2164.27,-349 2266.77,-377.413 2317.36,-393.395"/>
<polygon fill="#9a32cd" stroke="#9a32cd" points="993.92,-353.922 984.325,-358.415 994.628,-360.886 993.92,-353.922"/>
<text text-anchor="middle" x="1606" y="-418" font-family="FreeSans" font-size="10.00"> otherBodyAnchor_</text>
<text text-anchor="start" x="1544" y="-405" font-family="FreeSans" font-size="10.00">ownerBodyGroundAnchor</text>
<text text-anchor="middle" x="1606" y="-392" font-family="FreeSans" font-size="10.00">_</text>
<text text-anchor="start" x="1544" y="-379" font-family="FreeSans" font-size="10.00">ownerBodyAnchor</text>
<text text-anchor="middle" x="1606" y="-366" font-family="FreeSans" font-size="10.00">_</text>
<text text-anchor="middle" x="1606" y="-353" font-family="FreeSans" font-size="10.00">otherBodyGroundAnchor_</text>
</g>
<!-- Node23&#45;&gt;Node22 -->
<g id="edge64" class="edge"><title>Node23&#45;&gt;Node22</title>
<path fill="none" stroke="#9a32cd" stroke-dasharray="5,2" d="M961.18,-380.125C1003.31,-407.102 1086.94,-460.661 1122.44,-483.397"/>
<polygon fill="#9a32cd" stroke="#9a32cd" points="962.921,-377.084 952.612,-374.638 959.146,-382.979 962.921,-377.084"/>
<text text-anchor="middle" x="1033" y="-441" font-family="FreeSans" font-size="10.00"> gravity_</text>
</g>
<!-- Node23&#45;&gt;Node23 -->
<g id="edge66" class="edge"><title>Node23&#45;&gt;Node23</title>
<path fill="none" stroke="#9a32cd" stroke-dasharray="5,2" d="M918.677,-384.427C920.013,-389.349 925.788,-393 936,-393 952.34,-393 957.318,-383.653 950.936,-374.708"/>
<polygon fill="#9a32cd" stroke="#9a32cd" points="922.078,-385.254 921.064,-374.708 915.28,-383.584 922.078,-385.254"/>
<text text-anchor="middle" x="936" y="-462" font-family="FreeSans" font-size="10.00"> ONE</text>
<text text-anchor="middle" x="936" y="-449" font-family="FreeSans" font-size="10.00">DOWN</text>
<text text-anchor="middle" x="936" y="-436" font-family="FreeSans" font-size="10.00">RIGHT</text>
<text text-anchor="middle" x="936" y="-423" font-family="FreeSans" font-size="10.00">LEFT</text>
<text text-anchor="middle" x="936" y="-410" font-family="FreeSans" font-size="10.00">ZERO</text>
<text text-anchor="middle" x="936" y="-397" font-family="FreeSans" font-size="10.00">UP</text>
</g>
<!-- Node24 -->
<g id="node57" class="node"><title>Node24</title>
<a xlink:href="a00283.html" target="_top" xlink:title="Reference count structure.">
<polygon fill="none" stroke="black" points="1088,-582.5 1088,-603.5 1190,-603.5 1190,-582.5 1088,-582.5"/>
<text text-anchor="middle" x="1139" y="-590.5" font-family="FreeSans" font-size="10.00">Urho3D::RefCount</text>
</a>
</g>
<!-- Node24&#45;&gt;Node19 -->
<g id="edge70" class="edge"><title>Node24&#45;&gt;Node19</title>
<path fill="none" stroke="#9a32cd" stroke-dasharray="5,2" d="M1200.41,-592.775C1311.61,-591.755 1553.55,-586.72 1756,-563 1761.75,-562.327 1767.68,-561.507 1773.62,-560.594"/>
<polygon fill="#9a32cd" stroke="#9a32cd" points="1200.36,-589.276 1190.39,-592.86 1200.42,-596.275 1200.36,-589.276"/>
<text text-anchor="middle" x="1491" y="-590" font-family="FreeSans" font-size="10.00"> refCount_</text>
</g>
<!-- Node24&#45;&gt;Node21 -->
<g id="edge68" class="edge"><title>Node24&#45;&gt;Node21</title>
<path fill="none" stroke="#9a32cd" stroke-dasharray="5,2" d="M1175.15,-578.764C1214.99,-563.074 1279.06,-537.842 1321.59,-521.093"/>
<polygon fill="#9a32cd" stroke="#9a32cd" points="1173.83,-575.52 1165.81,-582.441 1176.4,-582.033 1173.83,-575.52"/>
<text text-anchor="middle" x="1249" y="-564" font-family="FreeSans" font-size="10.00"> refCount_</text>
</g>
<!-- Node24&#45;&gt;Node25 -->
<g id="edge78" class="edge"><title>Node24&#45;&gt;Node25</title>
<path fill="none" stroke="#9a32cd" stroke-dasharray="5,2" d="M1188.59,-605.873C1234.13,-616.553 1303.64,-630 1365,-630 1365,-630 1365,-630 2075,-630 2170.82,-630 2274.5,-574.949 2322.21,-546.133"/>
<polygon fill="#9a32cd" stroke="#9a32cd" points="1189.23,-602.425 1178.69,-603.504 1187.6,-609.234 1189.23,-602.425"/>
<text text-anchor="middle" x="1721" y="-634" font-family="FreeSans" font-size="10.00"> refCount_</text>
</g>
<!-- Node25&#45;&gt;Node2 -->
<g id="edge74" class="edge"><title>Node25&#45;&gt;Node2</title>
<path fill="none" stroke="#9a32cd" stroke-dasharray="5,2" d="M2303.34,-508.142C2288.55,-502.392 2271.86,-496.932 2256,-494 2216.6,-486.719 2171.55,-486.443 2136.25,-488"/>
<polygon fill="#9a32cd" stroke="#9a32cd" points="2302.17,-511.445 2312.75,-511.939 2304.79,-504.953 2302.17,-511.445"/>
<text text-anchor="middle" x="2205" y="-498" font-family="FreeSans" font-size="10.00"> attachedConstraint_</text>
</g>
</g>
</svg>
