<?xml version="1.0" encoding="UTF-8" standalone="no"?>
<!DOCTYPE svg PUBLIC "-//W3C//DTD SVG 1.1//EN"
 "http://www.w3.org/Graphics/SVG/1.1/DTD/svg11.dtd">
<!-- Generated by graphviz version 2.26.3 (20100126.1600)
 -->
<!-- Title: Urho3D::ParticleEmitter2D Pages: 1 -->
<!--zoomable 586 -->
<svg id="main" version="1.1" xmlns="http://www.w3.org/2000/svg" xmlns:xlink="http://www.w3.org/1999/xlink" xml:space="preserve" onload="init(evt)">
        <defs>
                <circle id="rim" cx="0" cy="0" r="7"/>
                <circle id="rim2" cx="0" cy="0" r="3.5"/>
                <g id="zoomPlus">
                        <use xlink:href="#rim" fill="#404040">
                                <set attributeName="fill" to="#808080" begin="zoomplus.mouseover" end="zoomplus.mouseout"/>
                        </use>
                        <path d="M-4,0h8M0,-4v8" fill="none" stroke="white" stroke-width="1.5" pointer-events="none"/>
                </g>
                <g id="zoomMin">
                        <use xlink:href="#rim" fill="#404040">
                                <set attributeName="fill" to="#808080" begin="zoomminus.mouseover" end="zoomminus.mouseout"/>
                        </use>
                        <path d="M-4,0h8" fill="none" stroke="white" stroke-width="1.5" pointer-events="none"/>
                </g>
                <g id="dirArrow">
                        <path fill="none" stroke="white" stroke-width="1.5" d="M0,-3.0v7 M-2.5,-0.5L0,-3.0L2.5,-0.5"/>
                </g>
               <g id="resetDef">
                       <use xlink:href="#rim2" fill="#404040">
                               <set attributeName="fill" to="#808080" begin="reset.mouseover" end="reset.mouseout"/>
                       </use>
               </g>
        </defs>

<script type="text/javascript">
var viewWidth = 1982;
var viewHeight = 586;
var sectionId = 'dynsection-1';
</script>
<script xlink:href="svgpan.js"/>
<svg id="graph" class="graph">
<g id="viewport">
<title>Urho3D::ParticleEmitter2D</title>
<!-- Node1 -->
<g id="node1" class="node"><title>Node1</title>
<polygon fill="#bfbfbf" stroke="black" points="1830.5,-135.5 1830.5,-156.5 1973.5,-156.5 1973.5,-135.5 1830.5,-135.5"/>
<text text-anchor="middle" x="1902" y="-143.5" font-family="FreeSans" font-size="10.00">Urho3D::ParticleEmitter2D</text>
</g>
<!-- Node2 -->
<g id="node2" class="node"><title>Node2</title>
<a xlink:href="a00150.html" target="_top" xlink:title="Base class for 2D visible components.">
<polygon fill="none" stroke="black" points="1624.5,-371.5 1624.5,-392.5 1741.5,-392.5 1741.5,-371.5 1624.5,-371.5"/>
<text text-anchor="middle" x="1683" y="-379.5" font-family="FreeSans" font-size="10.00">Urho3D::Drawable2D</text>
</a>
</g>
<!-- Node2&#45;&gt;Node1 -->
<g id="edge2" class="edge"><title>Node2&#45;&gt;Node1</title>
<path fill="none" stroke="midnightblue" d="M1700.02,-363.654C1743.58,-316.72 1858.01,-193.4 1892.21,-156.547"/>
<polygon fill="midnightblue" stroke="midnightblue" points="1697.22,-361.535 1692.98,-371.246 1702.35,-366.297 1697.22,-361.535"/>
</g>
<!-- Node3 -->
<g id="node4" class="node"><title>Node3</title>
<a xlink:href="a00149.html" target="_top" xlink:title="Base class for visible components.">
<polygon fill="none" stroke="black" points="746,-319.5 746,-340.5 850,-340.5 850,-319.5 746,-319.5"/>
<text text-anchor="middle" x="798" y="-327.5" font-family="FreeSans" font-size="10.00">Urho3D::Drawable</text>
</a>
</g>
<!-- Node3&#45;&gt;Node2 -->
<g id="edge4" class="edge"><title>Node3&#45;&gt;Node2</title>
<path fill="none" stroke="midnightblue" d="M817.277,-347.348C830.568,-358.287 849.171,-371.684 868,-379 934.851,-404.977 956.496,-394.424 1028,-400 1233.63,-416.036 1285.96,-417.441 1492,-408 1535.69,-405.998 1546.67,-404.938 1590,-399 1603.01,-397.217 1616.97,-394.889 1630.02,-392.529"/>
<polygon fill="midnightblue" stroke="midnightblue" points="819.243,-344.425 809.361,-340.603 814.703,-349.753 819.243,-344.425"/>
</g>
<!-- Node6 -->
<g id="node10" class="node"><title>Node6</title>
<a xlink:href="a00388.html" target="_top" xlink:title="Component that describes global rendering properties">
<polygon fill="none" stroke="red" points="1057.5,-283.5 1057.5,-304.5 1142.5,-304.5 1142.5,-283.5 1057.5,-283.5"/>
<text text-anchor="middle" x="1100" y="-291.5" font-family="FreeSans" font-size="10.00">Urho3D::Zone</text>
</a>
</g>
<!-- Node3&#45;&gt;Node6 -->
<g id="edge12" class="edge"><title>Node3&#45;&gt;Node6</title>
<path fill="none" stroke="midnightblue" d="M860.54,-322.545C919.35,-315.534 1005.81,-305.228 1057.16,-299.107"/>
<polygon fill="midnightblue" stroke="midnightblue" points="859.775,-319.111 850.26,-323.77 860.604,-326.062 859.775,-319.111"/>
</g>
<!-- Node12 -->
<g id="node25" class="node"><title>Node12</title>
<a xlink:href="a00195.html" target="_top" xlink:title="Light component.">
<polygon fill="none" stroke="red" points="1058.5,-326.5 1058.5,-347.5 1141.5,-347.5 1141.5,-326.5 1058.5,-326.5"/>
<text text-anchor="middle" x="1100" y="-334.5" font-family="FreeSans" font-size="10.00">Urho3D::Light</text>
</a>
</g>
<!-- Node3&#45;&gt;Node12 -->
<g id="edge30" class="edge"><title>Node3&#45;&gt;Node12</title>
<path fill="none" stroke="midnightblue" d="M860.319,-340.299C862.91,-340.567 865.478,-340.803 868,-341 934.467,-346.191 1011.96,-342.998 1058.44,-340.092"/>
<polygon fill="midnightblue" stroke="midnightblue" points="860.6,-336.808 850.262,-339.124 859.788,-343.761 860.6,-336.808"/>
</g>
<!-- Node15 -->
<g id="node36" class="node"><title>Node15</title>
<a xlink:href="a00151.html" target="_top" xlink:title="Proxy for 2D visible components.">
<polygon fill="none" stroke="red" points="1028.5,-369.5 1028.5,-390.5 1171.5,-390.5 1171.5,-369.5 1028.5,-369.5"/>
<text text-anchor="middle" x="1100" y="-377.5" font-family="FreeSans" font-size="10.00">Urho3D::DrawableProxy2D</text>
</a>
</g>
<!-- Node3&#45;&gt;Node15 -->
<g id="edge46" class="edge"><title>Node3&#45;&gt;Node15</title>
<path fill="none" stroke="midnightblue" d="M831.408,-344.365C842.825,-348.745 855.795,-353.15 868,-356 920.938,-368.359 982.155,-374.356 1028.41,-377.265"/>
<polygon fill="midnightblue" stroke="midnightblue" points="832.419,-341.001 821.833,-340.563 829.835,-347.507 832.419,-341.001"/>
</g>
<!-- Node4 -->
<g id="node6" class="node"><title>Node4</title>
<a xlink:href="a00106.html" target="_top" xlink:title="Base class for components. Components can be created to scene nodes.">
<polygon fill="none" stroke="red" points="439,-462.5 439,-483.5 555,-483.5 555,-462.5 439,-462.5"/>
<text text-anchor="middle" x="497" y="-470.5" font-family="FreeSans" font-size="10.00">Urho3D::Component</text>
</a>
</g>
<!-- Node4&#45;&gt;Node3 -->
<g id="edge6" class="edge"><title>Node4&#45;&gt;Node3</title>
<path fill="none" stroke="midnightblue" d="M552.072,-459.942C600.693,-446.889 672.301,-423.861 728,-390 751.525,-375.699 775.037,-353.53 787.934,-340.521"/>
<polygon fill="midnightblue" stroke="midnightblue" points="551.143,-456.567 542.363,-462.498 552.925,-463.337 551.143,-456.567"/>
</g>
<!-- Node21 -->
<g id="node51" class="node"><title>Node21</title>
<a xlink:href="a00213.html" target="_top" xlink:title="Material cache for 2D.">
<polygon fill="none" stroke="red" points="868.5,-462.5 868.5,-483.5 1009.5,-483.5 1009.5,-462.5 868.5,-462.5"/>
<text text-anchor="middle" x="939" y="-470.5" font-family="FreeSans" font-size="10.00">Urho3D::MaterialCache2D</text>
</a>
</g>
<!-- Node4&#45;&gt;Node21 -->
<g id="edge64" class="edge"><title>Node4&#45;&gt;Node21</title>
<path fill="none" stroke="midnightblue" d="M565.48,-473C647.716,-473 784.955,-473 868.207,-473"/>
<polygon fill="midnightblue" stroke="midnightblue" points="565.238,-469.5 555.238,-473 565.238,-476.5 565.238,-469.5"/>
</g>
<!-- Node5 -->
<g id="node8" class="node"><title>Node5</title>
<a xlink:href="a00179.html" target="_top" xlink:title="Urho3D::HashSet\&lt; Urho3D\l::Camera * \&gt;">
<polygon fill="none" stroke="red" points="422.5,-212 422.5,-246 571.5,-246 571.5,-212 422.5,-212"/>
<text text-anchor="start" x="430.5" y="-233" font-family="FreeSans" font-size="10.00">Urho3D::HashSet&lt; Urho3D</text>
<text text-anchor="middle" x="497" y="-220" font-family="FreeSans" font-size="10.00">::Camera * &gt;</text>
</a>
</g>
<!-- Node5&#45;&gt;Node3 -->
<g id="edge8" class="edge"><title>Node5&#45;&gt;Node3</title>
<path fill="none" stroke="#9a32cd" stroke-dasharray="5,2" d="M581.632,-233.238C626.834,-238.115 682.394,-248.41 728,-270 753.172,-281.917 776.464,-305.353 788.803,-319.144"/>
<polygon fill="#9a32cd" stroke="#9a32cd" points="581.864,-229.744 571.563,-232.222 581.161,-236.708 581.864,-229.744"/>
<text text-anchor="middle" x="659" y="-274" font-family="FreeSans" font-size="10.00"> viewCameras_</text>
</g>
<!-- Node6&#45;&gt;Node3 -->
<g id="edge10" class="edge"><title>Node6&#45;&gt;Node3</title>
<path fill="none" stroke="#9a32cd" stroke-dasharray="5,2" d="M1049.6,-280.691C1042.32,-278.568 1034.94,-276.307 1028,-274 1019.85,-271.292 1018.44,-268.583 1010,-267 947.971,-255.363 926.922,-244.39 868,-267 840.524,-277.544 817.079,-304.407 805.58,-319.427"/>
<polygon fill="#9a32cd" stroke="#9a32cd" points="1048.84,-284.115 1059.42,-283.492 1050.76,-277.384 1048.84,-284.115"/>
<text text-anchor="middle" x="939" y="-271" font-family="FreeSans" font-size="10.00"> zone_</text>
</g>
<!-- Node7 -->
<g id="node13" class="node"><title>Node7</title>
<a xlink:href="a00088.html" target="_top" xlink:title="Three&#45;dimensional axis&#45;aligned bounding box.">
<polygon fill="none" stroke="black" points="170,-345.5 170,-366.5 292,-366.5 292,-345.5 170,-345.5"/>
<text text-anchor="middle" x="231" y="-353.5" font-family="FreeSans" font-size="10.00">Urho3D::BoundingBox</text>
</a>
</g>
<!-- Node7&#45;&gt;Node3 -->
<g id="edge32" class="edge"><title>Node7&#45;&gt;Node3</title>
<path fill="none" stroke="#9a32cd" stroke-dasharray="5,2" d="M302.411,-350.572C338.281,-347.989 382.424,-345.03 422,-343 537.622,-337.068 673.387,-333.118 745.973,-331.25"/>
<polygon fill="#9a32cd" stroke="#9a32cd" points="301.762,-347.109 292.042,-351.324 302.269,-354.091 301.762,-347.109"/>
<text text-anchor="middle" x="497" y="-360" font-family="FreeSans" font-size="10.00"> worldBoundingBox_</text>
<text text-anchor="middle" x="497" y="-347" font-family="FreeSans" font-size="10.00">boundingBox_</text>
</g>
<!-- Node7&#45;&gt;Node6 -->
<g id="edge14" class="edge"><title>Node7&#45;&gt;Node6</title>
<path fill="none" stroke="#9a32cd" stroke-dasharray="5,2" d="M241.641,-336.387C266.442,-293.027 332.822,-189.799 422,-151 543.504,-98.1372 902.877,-172.01 1010,-250 1020.78,-257.848 1016.99,-266.481 1028,-274 1036.68,-279.926 1047.07,-284.104 1057.23,-287.047"/>
<polygon fill="#9a32cd" stroke="#9a32cd" points="238.442,-334.936 236.611,-345.371 244.55,-338.355 238.442,-334.936"/>
<text text-anchor="middle" x="659" y="-157" font-family="FreeSans" font-size="10.00"> lastWorldBoundingBox_</text>
</g>
<!-- Node13 -->
<g id="node29" class="node"><title>Node13</title>
<a xlink:href="a00243.html" target="_top" xlink:title="Octree octant">
<polygon fill="none" stroke="red" points="451,-378.5 451,-399.5 543,-399.5 543,-378.5 451,-378.5"/>
<text text-anchor="middle" x="497" y="-386.5" font-family="FreeSans" font-size="10.00">Urho3D::Octant</text>
</a>
</g>
<!-- Node7&#45;&gt;Node13 -->
<g id="edge38" class="edge"><title>Node7&#45;&gt;Node13</title>
<path fill="none" stroke="#9a32cd" stroke-dasharray="5,2" d="M302.176,-364.83C349.322,-370.679 409.798,-378.182 450.774,-383.265"/>
<polygon fill="#9a32cd" stroke="#9a32cd" points="302.381,-361.329 292.026,-363.571 301.519,-368.275 302.381,-361.329"/>
<text text-anchor="middle" x="357" y="-394" font-family="FreeSans" font-size="10.00"> cullingBox_</text>
<text text-anchor="middle" x="357" y="-381" font-family="FreeSans" font-size="10.00">worldBoundingBox_</text>
</g>
<!-- Node7&#45;&gt;Node15 -->
<g id="edge48" class="edge"><title>Node7&#45;&gt;Node15</title>
<path fill="none" stroke="#9a32cd" stroke-dasharray="5,2" d="M257.526,-371.778C268.363,-378.416 280.928,-386.36 292,-394 351.775,-435.245 353.187,-469.781 422,-493 543.973,-534.156 941.916,-425.681 1064.04,-390.554"/>
<polygon fill="#9a32cd" stroke="#9a32cd" points="259.265,-368.739 248.9,-366.545 255.634,-374.724 259.265,-368.739"/>
<text text-anchor="middle" x="659" y="-499" font-family="FreeSans" font-size="10.00"> frustumBoundingBox_</text>
</g>
<!-- Node8 -->
<g id="node15" class="node"><title>Node8</title>
<a xlink:href="a00368.html" target="_top" xlink:title="Three&#45;dimensional vector.">
<polygon fill="none" stroke="black" points="4,-345.5 4,-366.5 100,-366.5 100,-345.5 4,-345.5"/>
<text text-anchor="middle" x="52" y="-353.5" font-family="FreeSans" font-size="10.00">Urho3D::Vector3</text>
</a>
</g>
<!-- Node8&#45;&gt;Node1 -->
<g id="edge76" class="edge"><title>Node8&#45;&gt;Node1</title>
<path fill="none" stroke="#9a32cd" stroke-dasharray="5,2" d="M52.6776,-335.106C56.3613,-258.853 79.9875,-0 231,-0 231,-0 231,-0 1683,-0 1780.33,-0 1867.31,-101.072 1893.78,-135.026"/>
<polygon fill="#9a32cd" stroke="#9a32cd" points="49.1704,-335.209 52.2534,-345.346 56.1644,-335.499 49.1704,-335.209"/>
<text text-anchor="start" x="883" y="-30" font-family="FreeSans" font-size="10.00"> boundingBoxMinPoint</text>
<text text-anchor="middle" x="939" y="-17" font-family="FreeSans" font-size="10.00">_</text>
<text text-anchor="middle" x="939" y="-4" font-family="FreeSans" font-size="10.00">boundingBoxMaxPoint_</text>
</g>
<!-- Node8&#45;&gt;Node7 -->
<g id="edge16" class="edge"><title>Node8&#45;&gt;Node7</title>
<path fill="none" stroke="#9a32cd" stroke-dasharray="5,2" d="M110.441,-356C129.416,-356 150.516,-356 169.694,-356"/>
<polygon fill="#9a32cd" stroke="#9a32cd" points="110.44,-352.5 100.44,-356 110.44,-359.5 110.44,-352.5"/>
<text text-anchor="middle" x="137" y="-373" font-family="FreeSans" font-size="10.00"> max_</text>
<text text-anchor="middle" x="137" y="-360" font-family="FreeSans" font-size="10.00">min_</text>
</g>
<!-- Node8&#45;&gt;Node8 -->
<g id="edge18" class="edge"><title>Node8&#45;&gt;Node8</title>
<path fill="none" stroke="#9a32cd" stroke-dasharray="5,2" d="M36.6167,-376.793C37.9744,-381.529 43.1022,-385 52,-385 66.6016,-385 71.0505,-375.653 65.3467,-366.708"/>
<polygon fill="#9a32cd" stroke="#9a32cd" points="40.1046,-377.203 38.6533,-366.708 33.2431,-375.817 40.1046,-377.203"/>
<text text-anchor="middle" x="52" y="-480" font-family="FreeSans" font-size="10.00"> ONE</text>
<text text-anchor="middle" x="52" y="-467" font-family="FreeSans" font-size="10.00">DOWN</text>
<text text-anchor="middle" x="52" y="-454" font-family="FreeSans" font-size="10.00">BACK</text>
<text text-anchor="middle" x="52" y="-441" font-family="FreeSans" font-size="10.00">RIGHT</text>
<text text-anchor="middle" x="52" y="-428" font-family="FreeSans" font-size="10.00">LEFT</text>
<text text-anchor="middle" x="52" y="-415" font-family="FreeSans" font-size="10.00">ZERO</text>
<text text-anchor="middle" x="52" y="-402" font-family="FreeSans" font-size="10.00">FORWARD</text>
<text text-anchor="middle" x="52" y="-389" font-family="FreeSans" font-size="10.00">UP</text>
</g>
<!-- Node8&#45;&gt;Node13 -->
<g id="edge36" class="edge"><title>Node8&#45;&gt;Node13</title>
<path fill="none" stroke="#9a32cd" stroke-dasharray="5,2" d="M81.5275,-370.94C93.7635,-376.522 108.281,-382.379 122,-386 243.518,-418.075 278.893,-418.996 404,-407 419.716,-405.493 436.723,-402.585 451.842,-399.539"/>
<polygon fill="#9a32cd" stroke="#9a32cd" points="82.8,-367.671 72.2624,-366.571 79.814,-374.002 82.8,-367.671"/>
<text text-anchor="middle" x="231" y="-431" font-family="FreeSans" font-size="10.00"> center_</text>
<text text-anchor="middle" x="231" y="-418" font-family="FreeSans" font-size="10.00">halfSize_</text>
</g>
<!-- Node9 -->
<g id="node18" class="node"><title>Node9</title>
<a xlink:href="a00266.html" target="_top" xlink:title="Urho3D::PODVector\&lt;\l Urho3D::Light * \&gt;">
<polygon fill="none" stroke="black" points="437.5,-160 437.5,-194 556.5,-194 556.5,-160 437.5,-160"/>
<text text-anchor="start" x="445.5" y="-181" font-family="FreeSans" font-size="10.00">Urho3D::PODVector&lt;</text>
<text text-anchor="middle" x="497" y="-168" font-family="FreeSans" font-size="10.00"> Urho3D::Light * &gt;</text>
</a>
</g>
<!-- Node9&#45;&gt;Node3 -->
<g id="edge20" class="edge"><title>Node9&#45;&gt;Node3</title>
<path fill="none" stroke="#9a32cd" stroke-dasharray="5,2" d="M566.837,-169.659C615.87,-168.051 680.85,-173.398 728,-205 769.735,-232.972 789.191,-294.628 795.541,-319.395"/>
<polygon fill="#9a32cd" stroke="#9a32cd" points="566.467,-166.171 556.628,-170.1 566.769,-173.165 566.467,-166.171"/>
<text text-anchor="middle" x="659" y="-222" font-family="FreeSans" font-size="10.00"> vertexLights_</text>
<text text-anchor="middle" x="659" y="-209" font-family="FreeSans" font-size="10.00">lights_</text>
</g>
<!-- Node10 -->
<g id="node20" class="node"><title>Node10</title>
<a xlink:href="a00370.html" target="_top" xlink:title="Vector base class.">
<polygon fill="none" stroke="black" points="174,-93.5 174,-114.5 288,-114.5 288,-93.5 174,-93.5"/>
<text text-anchor="middle" x="231" y="-101.5" font-family="FreeSans" font-size="10.00">Urho3D::VectorBase</text>
</a>
</g>
<!-- Node10&#45;&gt;Node9 -->
<g id="edge22" class="edge"><title>Node10&#45;&gt;Node9</title>
<path fill="none" stroke="midnightblue" d="M298.385,-109.697C330.845,-113.652 370.009,-120.221 404,-131 426.493,-138.133 450.319,-150.011 468.223,-159.91"/>
<polygon fill="midnightblue" stroke="midnightblue" points="298.434,-106.179 288.097,-108.502 297.627,-113.132 298.434,-106.179"/>
</g>
<!-- Node11 -->
<g id="node22" class="node"><title>Node11</title>
<a xlink:href="a00366.html" target="_top" xlink:title="Urho3D::Vector\&lt; Urho3D\l::SourceBatch \&gt;">
<polygon fill="none" stroke="black" points="428,-264 428,-298 566,-298 566,-264 428,-264"/>
<text text-anchor="start" x="436" y="-285" font-family="FreeSans" font-size="10.00">Urho3D::Vector&lt; Urho3D</text>
<text text-anchor="middle" x="497" y="-272" font-family="FreeSans" font-size="10.00">::SourceBatch &gt;</text>
</a>
</g>
<!-- Node10&#45;&gt;Node11 -->
<g id="edge26" class="edge"><title>Node10&#45;&gt;Node11</title>
<path fill="none" stroke="midnightblue" d="M249.012,-121.733C281.233,-152.609 351.946,-216.608 422,-255 427.922,-258.245 434.324,-261.201 440.807,-263.859"/>
<polygon fill="midnightblue" stroke="midnightblue" points="251.294,-119.07 241.673,-114.632 246.426,-124.101 251.294,-119.07"/>
</g>
<!-- Node19 -->
<g id="node46" class="node"><title>Node19</title>
<a xlink:href="a00366.html" target="_top" xlink:title="Urho3D::Vector\&lt; Urho3D\l::Vertex2D \&gt;">
<polygon fill="none" stroke="black" points="590,-76 590,-110 728,-110 728,-76 590,-76"/>
<text text-anchor="start" x="598" y="-97" font-family="FreeSans" font-size="10.00">Urho3D::Vector&lt; Urho3D</text>
<text text-anchor="middle" x="659" y="-84" font-family="FreeSans" font-size="10.00">::Vertex2D &gt;</text>
</a>
</g>
<!-- Node10&#45;&gt;Node19 -->
<g id="edge58" class="edge"><title>Node10&#45;&gt;Node19</title>
<path fill="none" stroke="midnightblue" d="M298.666,-102.261C378.183,-100.217 509.429,-96.8441 589.662,-94.782"/>
<polygon fill="midnightblue" stroke="midnightblue" points="298.185,-98.772 288.278,-102.528 298.365,-105.77 298.185,-98.772"/>
</g>
<!-- Node25 -->
<g id="node63" class="node"><title>Node25</title>
<a xlink:href="a00366.html" target="_top" xlink:title="Urho3D::Vector\&lt; Urho3D\l::Particle2D \&gt;">
<polygon fill="none" stroke="black" points="1190,-41 1190,-75 1328,-75 1328,-41 1190,-41"/>
<text text-anchor="start" x="1198" y="-62" font-family="FreeSans" font-size="10.00">Urho3D::Vector&lt; Urho3D</text>
<text text-anchor="middle" x="1259" y="-49" font-family="FreeSans" font-size="10.00">::Particle2D &gt;</text>
</a>
</g>
<!-- Node10&#45;&gt;Node25 -->
<g id="edge80" class="edge"><title>Node10&#45;&gt;Node25</title>
<path fill="none" stroke="midnightblue" d="M274.674,-90.6276C326.991,-75.8165 417.54,-54 497,-54 497,-54 497,-54 939,-54 1025.4,-54 1124.9,-55.4758 1189.71,-56.6346"/>
<polygon fill="midnightblue" stroke="midnightblue" points="273.691,-87.2684 265.048,-93.3963 275.626,-93.9956 273.691,-87.2684"/>
</g>
<!-- Node11&#45;&gt;Node3 -->
<g id="edge24" class="edge"><title>Node11&#45;&gt;Node3</title>
<path fill="none" stroke="#9a32cd" stroke-dasharray="5,2" d="M576.058,-285.861C620.979,-289.626 678.054,-296.105 728,-307 742.248,-310.108 757.687,-315.009 770.432,-319.49"/>
<polygon fill="#9a32cd" stroke="#9a32cd" points="576.333,-282.372 566.083,-285.052 575.767,-289.349 576.333,-282.372"/>
<text text-anchor="middle" x="659" y="-311" font-family="FreeSans" font-size="10.00"> batches_</text>
</g>
<!-- Node12&#45;&gt;Node3 -->
<g id="edge28" class="edge"><title>Node12&#45;&gt;Node3</title>
<path fill="none" stroke="#9a32cd" stroke-dasharray="5,2" d="M1048.15,-330.924C1035.67,-329.709 1022.38,-328.617 1010,-328 946.967,-324.856 931.105,-327.099 868,-328 862.286,-328.082 856.311,-328.201 850.363,-328.341"/>
<polygon fill="#9a32cd" stroke="#9a32cd" points="1048.09,-334.436 1058.39,-331.966 1048.8,-327.472 1048.09,-334.436"/>
<text text-anchor="middle" x="939" y="-332" font-family="FreeSans" font-size="10.00"> firstLight_</text>
</g>
<!-- Node13&#45;&gt;Node3 -->
<g id="edge34" class="edge"><title>Node13&#45;&gt;Node3</title>
<path fill="none" stroke="#9a32cd" stroke-dasharray="5,2" d="M553.189,-380.254C600.11,-372.657 668.666,-360.875 728,-348 738.178,-345.791 749.115,-343.123 759.248,-340.525"/>
<polygon fill="#9a32cd" stroke="#9a32cd" points="552.539,-376.813 543.222,-381.857 553.651,-383.725 552.539,-376.813"/>
<text text-anchor="middle" x="659" y="-377" font-family="FreeSans" font-size="10.00"> octant_</text>
</g>
<!-- Node13&#45;&gt;Node13 -->
<g id="edge40" class="edge"><title>Node13&#45;&gt;Node13</title>
<path fill="none" stroke="#9a32cd" stroke-dasharray="5,2" d="M471.063,-409.055C472.764,-414.164 481.41,-418 497,-418 521.336,-418 528.751,-408.653 519.245,-399.708"/>
<polygon fill="#9a32cd" stroke="#9a32cd" points="474.336,-410.294 474.755,-399.708 467.826,-407.722 474.336,-410.294"/>
<text text-anchor="middle" x="497" y="-435" font-family="FreeSans" font-size="10.00"> parent_</text>
<text text-anchor="middle" x="497" y="-422" font-family="FreeSans" font-size="10.00">children_</text>
</g>
<!-- Node14 -->
<g id="node34" class="node"><title>Node14</title>
<a xlink:href="a00379.html" target="_top" xlink:title="Urho3D::WeakPtr\&lt; Urho3D\l::DrawableProxy2D \&gt;">
<polygon fill="none" stroke="black" points="1346,-313 1346,-347 1492,-347 1492,-313 1346,-313"/>
<text text-anchor="start" x="1354" y="-334" font-family="FreeSans" font-size="10.00">Urho3D::WeakPtr&lt; Urho3D</text>
<text text-anchor="middle" x="1419" y="-321" font-family="FreeSans" font-size="10.00">::DrawableProxy2D &gt;</text>
</a>
</g>
<!-- Node14&#45;&gt;Node2 -->
<g id="edge42" class="edge"><title>Node14&#45;&gt;Node2</title>
<path fill="none" stroke="#9a32cd" stroke-dasharray="5,2" d="M1502.04,-346.356C1543.64,-354.551 1592.81,-364.235 1629.38,-371.439"/>
<polygon fill="#9a32cd" stroke="#9a32cd" points="1502.68,-342.914 1492.19,-344.416 1501.32,-349.783 1502.68,-342.914"/>
<text text-anchor="middle" x="1550" y="-366" font-family="FreeSans" font-size="10.00"> drawableProxy_</text>
</g>
<!-- Node15&#45;&gt;Node14 -->
<g id="edge44" class="edge"><title>Node15&#45;&gt;Node14</title>
<path fill="none" stroke="#9a32cd" stroke-dasharray="5,2" d="M1177.31,-367.883C1228.63,-359.838 1295.58,-349.345 1346,-341.443"/>
<polygon fill="#9a32cd" stroke="#9a32cd" points="1176.6,-364.451 1167.26,-369.457 1177.68,-371.367 1176.6,-364.451"/>
<text text-anchor="middle" x="1259" y="-369" font-family="FreeSans" font-size="10.00"> ptr_</text>
</g>
<!-- Node16 -->
<g id="node40" class="node"><title>Node16</title>
<a xlink:href="a00279.html" target="_top" xlink:title="Reference count structure.">
<polygon fill="none" stroke="black" points="1049,-243.5 1049,-264.5 1151,-264.5 1151,-243.5 1049,-243.5"/>
<text text-anchor="middle" x="1100" y="-251.5" font-family="FreeSans" font-size="10.00">Urho3D::RefCount</text>
</a>
</g>
<!-- Node16&#45;&gt;Node14 -->
<g id="edge50" class="edge"><title>Node16&#45;&gt;Node14</title>
<path fill="none" stroke="#9a32cd" stroke-dasharray="5,2" d="M1161.39,-247.747C1208.32,-245.133 1273.94,-246.227 1328,-265 1356.79,-274.999 1384.5,-297.181 1401.62,-312.842"/>
<polygon fill="#9a32cd" stroke="#9a32cd" points="1161.13,-244.256 1151.37,-248.376 1161.57,-251.242 1161.13,-244.256"/>
<text text-anchor="middle" x="1259" y="-269" font-family="FreeSans" font-size="10.00"> refCount_</text>
</g>
<!-- Node20 -->
<g id="node49" class="node"><title>Node20</title>
<a xlink:href="a00379.html" target="_top" xlink:title="Urho3D::WeakPtr\&lt; Urho3D\l::MaterialCache2D \&gt;">
<polygon fill="none" stroke="black" points="1346,-365 1346,-399 1492,-399 1492,-365 1346,-365"/>
<text text-anchor="start" x="1354" y="-386" font-family="FreeSans" font-size="10.00">Urho3D::WeakPtr&lt; Urho3D</text>
<text text-anchor="middle" x="1419" y="-373" font-family="FreeSans" font-size="10.00">::MaterialCache2D &gt;</text>
</a>
</g>
<!-- Node16&#45;&gt;Node20 -->
<g id="edge66" class="edge"><title>Node16&#45;&gt;Node20</title>
<path fill="none" stroke="#9a32cd" stroke-dasharray="5,2" d="M1149.53,-267.36C1157.08,-269.511 1164.76,-271.766 1172,-274 1241.97,-295.586 1270.67,-281.447 1328,-327 1339.88,-336.437 1334.19,-346.476 1346,-356 1350.19,-359.378 1354.85,-362.336 1359.74,-364.921"/>
<polygon fill="#9a32cd" stroke="#9a32cd" points="1150.3,-263.943 1139.73,-264.603 1148.41,-270.681 1150.3,-263.943"/>
<text text-anchor="middle" x="1259" y="-331" font-family="FreeSans" font-size="10.00"> refCount_</text>
</g>
<!-- Node17 -->
<g id="node42" class="node"><title>Node17</title>
<a xlink:href="a00317.html" target="_top" xlink:title="Urho3D::SharedPtr\&lt;\l Urho3D::Sprite2D \&gt;">
<polygon fill="none" stroke="black" points="1042,-526 1042,-560 1158,-560 1158,-526 1042,-526"/>
<text text-anchor="start" x="1050" y="-547" font-family="FreeSans" font-size="10.00">Urho3D::SharedPtr&lt;</text>
<text text-anchor="middle" x="1100" y="-534" font-family="FreeSans" font-size="10.00"> Urho3D::Sprite2D &gt;</text>
</a>
</g>
<!-- Node17&#45;&gt;Node2 -->
<g id="edge52" class="edge"><title>Node17&#45;&gt;Node2</title>
<path fill="none" stroke="#9a32cd" stroke-dasharray="5,2" d="M1168.63,-538.613C1294.74,-530.129 1553.76,-510.58 1590,-491 1601.11,-484.994 1599.87,-478.674 1608,-469 1631.34,-441.208 1659.4,-408.96 1673.67,-392.639"/>
<polygon fill="#9a32cd" stroke="#9a32cd" points="1168.07,-535.143 1158.32,-539.302 1168.53,-542.127 1168.07,-535.143"/>
<text text-anchor="middle" x="1419" y="-528" font-family="FreeSans" font-size="10.00"> sprite_</text>
</g>
<!-- Node24 -->
<g id="node59" class="node"><title>Node24</title>
<a xlink:href="a00256.html" target="_top" xlink:title="2D particle effect resource.">
<polygon fill="none" stroke="red" points="1352,-556.5 1352,-577.5 1486,-577.5 1486,-556.5 1352,-556.5"/>
<text text-anchor="middle" x="1419" y="-564.5" font-family="FreeSans" font-size="10.00">Urho3D::ParticleEffect2D</text>
</a>
</g>
<!-- Node17&#45;&gt;Node24 -->
<g id="edge74" class="edge"><title>Node17&#45;&gt;Node24</title>
<path fill="none" stroke="#9a32cd" stroke-dasharray="5,2" d="M1168.35,-548.142C1222.58,-552.222 1297.96,-557.894 1351.87,-561.95"/>
<polygon fill="#9a32cd" stroke="#9a32cd" points="1168.37,-544.634 1158.14,-547.374 1167.85,-551.615 1168.37,-544.634"/>
<text text-anchor="middle" x="1259" y="-563" font-family="FreeSans" font-size="10.00"> sprite_</text>
</g>
<!-- Node18 -->
<g id="node44" class="node"><title>Node18</title>
<a xlink:href="a00334.html" target="_top" xlink:title="Sprite.">
<polygon fill="none" stroke="red" points="747.5,-532.5 747.5,-553.5 848.5,-553.5 848.5,-532.5 747.5,-532.5"/>
<text text-anchor="middle" x="798" y="-540.5" font-family="FreeSans" font-size="10.00">Urho3D::Sprite2D</text>
</a>
</g>
<!-- Node18&#45;&gt;Node17 -->
<g id="edge54" class="edge"><title>Node18&#45;&gt;Node17</title>
<path fill="none" stroke="#9a32cd" stroke-dasharray="5,2" d="M858.555,-543C911.917,-543 989.141,-543 1041.79,-543"/>
<polygon fill="#9a32cd" stroke="#9a32cd" points="858.548,-539.5 848.548,-543 858.548,-546.5 858.548,-539.5"/>
<text text-anchor="middle" x="939" y="-547" font-family="FreeSans" font-size="10.00"> ptr_</text>
</g>
<!-- Node19&#45;&gt;Node2 -->
<g id="edge56" class="edge"><title>Node19&#45;&gt;Node2</title>
<path fill="none" stroke="#9a32cd" stroke-dasharray="5,2" d="M738.128,-107.136C864.238,-130.47 1118.01,-180.717 1328,-243 1402.56,-265.113 1419.55,-275.747 1492,-304 1551.73,-327.293 1621.31,-356.147 1657.77,-371.397"/>
<polygon fill="#9a32cd" stroke="#9a32cd" points="738.636,-103.671 728.167,-105.3 737.367,-110.555 738.636,-103.671"/>
<text text-anchor="middle" x="1100" y="-205" font-family="FreeSans" font-size="10.00"> vertices_</text>
</g>
<!-- Node20&#45;&gt;Node2 -->
<g id="edge60" class="edge"><title>Node20&#45;&gt;Node2</title>
<path fill="none" stroke="#9a32cd" stroke-dasharray="5,2" d="M1502.37,-382C1542.01,-382 1588.45,-382 1624.32,-382"/>
<polygon fill="#9a32cd" stroke="#9a32cd" points="1502.19,-378.5 1492.19,-382 1502.19,-385.5 1502.19,-378.5"/>
<text text-anchor="middle" x="1550" y="-386" font-family="FreeSans" font-size="10.00"> materialCache_</text>
</g>
<!-- Node21&#45;&gt;Node20 -->
<g id="edge62" class="edge"><title>Node21&#45;&gt;Node20</title>
<path fill="none" stroke="#9a32cd" stroke-dasharray="5,2" d="M1004.51,-460.58C1093.62,-443.686 1252.56,-413.555 1345.59,-395.918"/>
<polygon fill="#9a32cd" stroke="#9a32cd" points="1003.7,-457.171 994.531,-462.472 1005.01,-464.048 1003.7,-457.171"/>
<text text-anchor="middle" x="1100" y="-458" font-family="FreeSans" font-size="10.00"> ptr_</text>
</g>
<!-- Node22 -->
<g id="node55" class="node"><title>Node22</title>
<a xlink:href="a00317.html" target="_top" xlink:title="Urho3D::SharedPtr\&lt;\l Urho3D::Material \&gt;">
<polygon fill="none" stroke="red" points="1361,-455 1361,-489 1477,-489 1477,-455 1361,-455"/>
<text text-anchor="start" x="1369" y="-476" font-family="FreeSans" font-size="10.00">Urho3D::SharedPtr&lt;</text>
<text text-anchor="middle" x="1419" y="-463" font-family="FreeSans" font-size="10.00"> Urho3D::Material &gt;</text>
</a>
</g>
<!-- Node22&#45;&gt;Node2 -->
<g id="edge68" class="edge"><title>Node22&#45;&gt;Node2</title>
<path fill="none" stroke="#9a32cd" stroke-dasharray="5,2" d="M1487.28,-465.745C1519.27,-461.285 1557.41,-453.727 1590,-441 1620.99,-428.896 1652.82,-405.99 1670.03,-392.557"/>
<polygon fill="#9a32cd" stroke="#9a32cd" points="1486.58,-462.307 1477.12,-467.087 1487.5,-469.246 1486.58,-462.307"/>
<text text-anchor="middle" x="1550" y="-478" font-family="FreeSans" font-size="10.00"> material_</text>
<text text-anchor="middle" x="1550" y="-465" font-family="FreeSans" font-size="10.00">defaultMaterial_</text>
</g>
<!-- Node23 -->
<g id="node57" class="node"><title>Node23</title>
<a xlink:href="a00317.html" target="_top" xlink:title="Urho3D::SharedPtr\&lt;\l Urho3D::ParticleEffect2D \&gt;">
<polygon fill="none" stroke="black" points="1608.5,-478 1608.5,-512 1757.5,-512 1757.5,-478 1608.5,-478"/>
<text text-anchor="start" x="1616.5" y="-499" font-family="FreeSans" font-size="10.00">Urho3D::SharedPtr&lt;</text>
<text text-anchor="middle" x="1683" y="-486" font-family="FreeSans" font-size="10.00"> Urho3D::ParticleEffect2D &gt;</text>
</a>
</g>
<!-- Node23&#45;&gt;Node1 -->
<g id="edge70" class="edge"><title>Node23&#45;&gt;Node1</title>
<path fill="none" stroke="#9a32cd" stroke-dasharray="5,2" d="M1705.05,-470.017C1720.66,-451.777 1741.65,-426.123 1758,-402 1819.5,-311.238 1879.27,-192.361 1896.83,-156.612"/>
<polygon fill="#9a32cd" stroke="#9a32cd" points="1702.17,-467.988 1698.29,-477.843 1707.47,-472.564 1702.17,-467.988"/>
<text text-anchor="middle" x="1794" y="-372" font-family="FreeSans" font-size="10.00"> effect_</text>
</g>
<!-- Node24&#45;&gt;Node23 -->
<g id="edge72" class="edge"><title>Node24&#45;&gt;Node23</title>
<path fill="none" stroke="#9a32cd" stroke-dasharray="5,2" d="M1496.1,-559.036C1525.87,-554.757 1559.94,-548.368 1590,-539 1611.66,-532.251 1634.71,-521.369 1652.45,-512.116"/>
<polygon fill="#9a32cd" stroke="#9a32cd" points="1495.61,-555.571 1486.19,-560.407 1496.57,-562.505 1495.61,-555.571"/>
<text text-anchor="middle" x="1550" y="-560" font-family="FreeSans" font-size="10.00"> ptr_</text>
</g>
<!-- Node25&#45;&gt;Node1 -->
<g id="edge78" class="edge"><title>Node25&#45;&gt;Node1</title>
<path fill="none" stroke="#9a32cd" stroke-dasharray="5,2" d="M1338.23,-57.499C1405.52,-58.0495 1504.5,-61.1639 1590,-73 1691.67,-87.0745 1808.85,-118.779 1866.37,-135.391"/>
<polygon fill="#9a32cd" stroke="#9a32cd" points="1338.14,-53.9985 1328.12,-57.4337 1338.1,-60.9983 1338.14,-53.9985"/>
<text text-anchor="middle" x="1550" y="-77" font-family="FreeSans" font-size="10.00"> particles_</text>
</g>
</g>
</svg>
        <g id="navigator" transform="translate(0 0)" fill="#404254">
                <rect fill="#f2f5e9" fill-opacity="0.5" stroke="#606060" stroke-width=".5" x="0" y="0" width="60" height="60"/>
                <use id="zoomplus" xlink:href="#zoomPlus" x="17" y="9" onmousedown="handleZoom(evt,'in')"/>
                <use id="zoomminus" xlink:href="#zoomMin" x="42" y="9" onmousedown="handleZoom(evt,'out')"/>
                <use id="reset" xlink:href="#resetDef" x="30" y="36" onmousedown="handleReset()"/>
                <g id="arrowUp" xlink:href="#dirArrow" transform="translate(30 24)" onmousedown="handlePan(0,-1)">
                  <use xlink:href="#rim" fill="#404040">
                        <set attributeName="fill" to="#808080" begin="arrowUp.mouseover" end="arrowUp.mouseout"/>
                  </use>
                  <path fill="none" stroke="white" stroke-width="1.5" d="M0,-3.0v7 M-2.5,-0.5L0,-3.0L2.5,-0.5"/>
                </g>
                <g id="arrowRight" xlink:href="#dirArrow" transform="rotate(90) translate(36 -43)" onmousedown="handlePan(1,0)">
                  <use xlink:href="#rim" fill="#404040">
                        <set attributeName="fill" to="#808080" begin="arrowRight.mouseover" end="arrowRight.mouseout"/>
                  </use>
                  <path fill="none" stroke="white" stroke-width="1.5" d="M0,-3.0v7 M-2.5,-0.5L0,-3.0L2.5,-0.5"/>
                </g>
                <g id="arrowDown" xlink:href="#dirArrow" transform="rotate(180) translate(-30 -48)" onmousedown="handlePan(0,1)">
                  <use xlink:href="#rim" fill="#404040">
                        <set attributeName="fill" to="#808080" begin="arrowDown.mouseover" end="arrowDown.mouseout"/>
                  </use>
                  <path fill="none" stroke="white" stroke-width="1.5" d="M0,-3.0v7 M-2.5,-0.5L0,-3.0L2.5,-0.5"/>
                </g>
                <g id="arrowLeft" xlink:href="#dirArrow" transform="rotate(270) translate(-36 17)" onmousedown="handlePan(-1,0)">
                  <use xlink:href="#rim" fill="#404040">
                        <set attributeName="fill" to="#808080" begin="arrowLeft.mouseover" end="arrowLeft.mouseout"/>
                  </use>
                  <path fill="none" stroke="white" stroke-width="1.5" d="M0,-3.0v7 M-2.5,-0.5L0,-3.0L2.5,-0.5"/>
                </g>
        </g>
        <svg viewBox="0 0 15 15" width="100%" height="30px" preserveAspectRatio="xMaxYMin meet">
         <g id="arrow_out" transform="scale(0.3 0.3)">
          <a xlink:href="a01703_org.svg" target="_base">
           <rect id="button" ry="5" rx="5" y="6" x="6" height="38" width="38"
                fill="#f2f5e9" fill-opacity="0.5" stroke="#606060" stroke-width="1.0"/>
           <path id="arrow"
             d="M 11.500037,31.436501 C 11.940474,20.09759 22.043105,11.32322 32.158766,21.979434 L 37.068811,17.246167 C 37.068811,17.246167 37.088388,32 37.088388,32 L 22.160133,31.978069 C 22.160133,31.978069 26.997745,27.140456 26.997745,27.140456 C 18.528582,18.264221 13.291696,25.230495 11.500037,31.436501 z"
             style="fill:#404040;"/>
          </a>
         </g>
        </svg>
</svg>
