<?xml version="1.0" encoding="UTF-8" standalone="no"?>
<!DOCTYPE svg PUBLIC "-//W3C//DTD SVG 1.1//EN"
 "http://www.w3.org/Graphics/SVG/1.1/DTD/svg11.dtd">
<!-- Generated by graphviz version 2.26.3 (20100126.1600)
 -->
<!-- Title: Urho3D::AnimationSet2D Pages: 1 -->
<svg width="1778pt" height="750pt"
 viewBox="0.00 0.00 1778.00 750.00" xmlns="http://www.w3.org/2000/svg" xmlns:xlink="http://www.w3.org/1999/xlink">
<g id="graph1" class="graph" transform="scale(1 1) rotate(0) translate(4 746)">
<title>Urho3D::AnimationSet2D</title>
<!-- Node1 -->
<g id="node1" class="node"><title>Node1</title>
<polygon fill="#bfbfbf" stroke="black" points="1632,-351.5 1632,-372.5 1770,-372.5 1770,-351.5 1632,-351.5"/>
<text text-anchor="middle" x="1701" y="-359.5" font-family="FreeSans" font-size="10.00">Urho3D::AnimationSet2D</text>
</g>
<!-- Node2 -->
<g id="node2" class="node"><title>Node2</title>
<a xlink:href="a00299.html" target="_top" xlink:title="Base class for resources.">
<polygon fill="none" stroke="black" points="671.5,-514.5 671.5,-535.5 774.5,-535.5 774.5,-514.5 671.5,-514.5"/>
<text text-anchor="middle" x="723" y="-522.5" font-family="FreeSans" font-size="10.00">Urho3D::Resource</text>
</a>
</g>
<!-- Node2&#45;&gt;Node1 -->
<g id="edge2" class="edge"><title>Node2&#45;&gt;Node1</title>
<path fill="none" stroke="midnightblue" d="M784.841,-527.828C922.392,-532.336 1262.77,-533.591 1532,-453 1569.33,-441.827 1579.49,-440.081 1614,-422 1641.79,-407.44 1671.27,-385.56 1687.79,-372.636"/>
<polygon fill="midnightblue" stroke="midnightblue" points="784.624,-524.318 774.509,-527.47 784.382,-531.314 784.624,-524.318"/>
</g>
<!-- Node25 -->
<g id="node62" class="node"><title>Node25</title>
<a xlink:href="a00407.html" target="_top" xlink:title="XML document resource.">
<polygon fill="none" stroke="black" points="1098,-471.5 1098,-492.5 1192,-492.5 1192,-471.5 1098,-471.5"/>
<text text-anchor="middle" x="1145" y="-479.5" font-family="FreeSans" font-size="10.00">Urho3D::XMLFile</text>
</a>
</g>
<!-- Node2&#45;&gt;Node25 -->
<g id="edge78" class="edge"><title>Node2&#45;&gt;Node25</title>
<path fill="none" stroke="midnightblue" d="M784.795,-516.97C803.774,-514.603 824.735,-512.09 844,-510 933.613,-500.28 1038.47,-490.999 1097.77,-485.943"/>
<polygon fill="midnightblue" stroke="midnightblue" points="784.261,-513.509 774.775,-518.228 785.134,-520.455 784.261,-513.509"/>
</g>
<!-- Node3 -->
<g id="node4" class="node"><title>Node3</title>
<a xlink:href="a00247.html" target="_top" xlink:title="Base class for objects with type identification, subsystem access and event sending/receiving capabil...">
<polygon fill="none" stroke="black" points="420,-671.5 420,-692.5 510,-692.5 510,-671.5 420,-671.5"/>
<text text-anchor="middle" x="465" y="-679.5" font-family="FreeSans" font-size="10.00">Urho3D::Object</text>
</a>
</g>
<!-- Node3&#45;&gt;Node2 -->
<g id="edge4" class="edge"><title>Node3&#45;&gt;Node2</title>
<path fill="none" stroke="midnightblue" d="M506.956,-667.959C512.061,-666.051 517.174,-664.043 522,-662 522.143,-661.939 601.869,-622.084 602,-622 645.076,-594.408 690.863,-554.341 711.609,-535.516"/>
<polygon fill="midnightblue" stroke="midnightblue" points="505.434,-664.788 497.227,-671.489 507.821,-671.368 505.434,-664.788"/>
</g>
<!-- Node9 -->
<g id="node17" class="node"><title>Node9</title>
<a xlink:href="a00154.html" target="_top" xlink:title="Internal helper class for invoking event handler functions.">
<polygon fill="none" stroke="red" points="661,-624.5 661,-645.5 785,-645.5 785,-624.5 661,-624.5"/>
<text text-anchor="middle" x="723" y="-632.5" font-family="FreeSans" font-size="10.00">Urho3D::EventHandler</text>
</a>
</g>
<!-- Node3&#45;&gt;Node9 -->
<g id="edge20" class="edge"><title>Node3&#45;&gt;Node9</title>
<path fill="none" stroke="#9a32cd" stroke-dasharray="5,2" d="M520.171,-671.95C562.852,-664.174 621.787,-653.438 665.134,-645.542"/>
<polygon fill="#9a32cd" stroke="#9a32cd" points="519.446,-668.524 510.235,-673.759 520.701,-675.41 519.446,-668.524"/>
<text text-anchor="middle" x="571" y="-685" font-family="FreeSans" font-size="10.00"> sender_</text>
<text text-anchor="middle" x="571" y="-672" font-family="FreeSans" font-size="10.00">receiver_</text>
</g>
<!-- Node4 -->
<g id="node6" class="node"><title>Node4</title>
<a xlink:href="a00290.html" target="_top" xlink:title="Base class for intrusively reference&#45;counted objects. These are noncopyable and non&#45;assignable.">
<polygon fill="none" stroke="black" points="198,-462.5 198,-483.5 312,-483.5 312,-462.5 198,-462.5"/>
<text text-anchor="middle" x="255" y="-470.5" font-family="FreeSans" font-size="10.00">Urho3D::RefCounted</text>
</a>
</g>
<!-- Node4&#45;&gt;Node3 -->
<g id="edge6" class="edge"><title>Node4&#45;&gt;Node3</title>
<path fill="none" stroke="midnightblue" d="M265.9,-492.768C287.877,-530.878 341.159,-614.898 408,-662 413.315,-665.745 419.399,-668.85 425.567,-671.404"/>
<polygon fill="midnightblue" stroke="midnightblue" points="268.744,-490.687 260.771,-483.71 262.653,-494.137 268.744,-490.687"/>
</g>
<!-- Node6 -->
<g id="node10" class="node"><title>Node6</title>
<a xlink:href="a00128.html" target="_top" xlink:title="Urho3D execution context. Provides access to subsystems, object factories and attributes, and event receivers.">
<polygon fill="none" stroke="red" points="1096.5,-358.5 1096.5,-379.5 1193.5,-379.5 1193.5,-358.5 1096.5,-358.5"/>
<text text-anchor="middle" x="1145" y="-366.5" font-family="FreeSans" font-size="10.00">Urho3D::Context</text>
</a>
</g>
<!-- Node4&#45;&gt;Node6 -->
<g id="edge12" class="edge"><title>Node4&#45;&gt;Node6</title>
<path fill="none" stroke="midnightblue" d="M322.151,-473.841C489.15,-475.195 919.426,-473.972 1054,-428 1085.36,-417.288 1116.61,-393.418 1133.08,-379.546"/>
<polygon fill="midnightblue" stroke="midnightblue" points="322.043,-470.34 312.013,-473.753 321.982,-477.339 322.043,-470.34"/>
</g>
<!-- Node5 -->
<g id="node8" class="node"><title>Node5</title>
<a xlink:href="a00289.html" target="_top" xlink:title="Reference count structure.">
<polygon fill="none" stroke="black" points="0,-462.5 0,-483.5 102,-483.5 102,-462.5 0,-462.5"/>
<text text-anchor="middle" x="51" y="-470.5" font-family="FreeSans" font-size="10.00">Urho3D::RefCount</text>
</a>
</g>
<!-- Node5&#45;&gt;Node4 -->
<g id="edge8" class="edge"><title>Node5&#45;&gt;Node4</title>
<path fill="none" stroke="#9a32cd" stroke-dasharray="5,2" d="M112.345,-473C139.414,-473 171.051,-473 197.643,-473"/>
<polygon fill="#9a32cd" stroke="#9a32cd" points="112.215,-469.5 102.214,-473 112.214,-476.5 112.215,-469.5"/>
<text text-anchor="middle" x="145" y="-477" font-family="FreeSans" font-size="10.00"> refCount_</text>
</g>
<!-- Node6&#45;&gt;Node3 -->
<g id="edge10" class="edge"><title>Node6&#45;&gt;Node3</title>
<path fill="none" stroke="#9a32cd" stroke-dasharray="5,2" d="M1125.63,-386.795C1108.21,-404.119 1083.62,-432.142 1072,-462 1053.09,-510.603 1092.27,-660.564 1054,-696 1033.05,-715.402 568.434,-698.631 540,-696 530.24,-695.097 519.855,-693.546 510.023,-691.797"/>
<polygon fill="#9a32cd" stroke="#9a32cd" points="1128.3,-389.084 1133.06,-379.619 1123.44,-384.049 1128.3,-389.084"/>
<text text-anchor="middle" x="723" y="-708" font-family="FreeSans" font-size="10.00"> context_</text>
</g>
<!-- Node7 -->
<g id="node13" class="node"><title>Node7</title>
<a xlink:href="a00276.html" target="_top" xlink:title="Urho3D::PODVector\&lt;\l Urho3D::Object * \&gt;">
<polygon fill="none" stroke="black" points="663.5,-404 663.5,-438 782.5,-438 782.5,-404 663.5,-404"/>
<text text-anchor="start" x="671.5" y="-425" font-family="FreeSans" font-size="10.00">Urho3D::PODVector&lt;</text>
<text text-anchor="middle" x="723" y="-412" font-family="FreeSans" font-size="10.00"> Urho3D::Object * &gt;</text>
</a>
</g>
<!-- Node7&#45;&gt;Node6 -->
<g id="edge14" class="edge"><title>Node7&#45;&gt;Node6</title>
<path fill="none" stroke="#9a32cd" stroke-dasharray="5,2" d="M792.71,-415.248C859.834,-409.328 964.125,-399.125 1054,-386 1067.84,-383.979 1082.78,-381.369 1096.48,-378.803"/>
<polygon fill="#9a32cd" stroke="#9a32cd" points="792.33,-411.768 782.673,-416.126 792.94,-418.741 792.33,-411.768"/>
<text text-anchor="middle" x="949" y="-415" font-family="FreeSans" font-size="10.00"> eventSenders_</text>
</g>
<!-- Node8 -->
<g id="node15" class="node"><title>Node8</title>
<a xlink:href="a00391.html" target="_top" xlink:title="Vector base class.">
<polygon fill="none" stroke="black" points="408,-358.5 408,-379.5 522,-379.5 522,-358.5 408,-358.5"/>
<text text-anchor="middle" x="465" y="-366.5" font-family="FreeSans" font-size="10.00">Urho3D::VectorBase</text>
</a>
</g>
<!-- Node8&#45;&gt;Node7 -->
<g id="edge16" class="edge"><title>Node8&#45;&gt;Node7</title>
<path fill="none" stroke="midnightblue" d="M527.153,-381.527C568.451,-389.851 622.378,-400.72 663.187,-408.945"/>
<polygon fill="midnightblue" stroke="midnightblue" points="527.705,-378.068 517.21,-379.523 526.321,-384.93 527.705,-378.068"/>
</g>
<!-- Node17 -->
<g id="node39" class="node"><title>Node17</title>
<a xlink:href="a00276.html" target="_top" xlink:title="Urho3D::PODVector\&lt;\l Urho3D::HashMap * \&gt;">
<polygon fill="none" stroke="black" points="659.5,-352 659.5,-386 786.5,-386 786.5,-352 659.5,-352"/>
<text text-anchor="start" x="667.5" y="-373" font-family="FreeSans" font-size="10.00">Urho3D::PODVector&lt;</text>
<text text-anchor="middle" x="723" y="-360" font-family="FreeSans" font-size="10.00"> Urho3D::HashMap * &gt;</text>
</a>
</g>
<!-- Node8&#45;&gt;Node17 -->
<g id="edge48" class="edge"><title>Node8&#45;&gt;Node17</title>
<path fill="none" stroke="midnightblue" d="M532.497,-369C571.625,-369 620.608,-369 659.106,-369"/>
<polygon fill="midnightblue" stroke="midnightblue" points="532.259,-365.5 522.259,-369 532.259,-372.5 532.259,-365.5"/>
</g>
<!-- Node22 -->
<g id="node54" class="node"><title>Node22</title>
<a xlink:href="a00387.html" target="_top" xlink:title="Urho3D::Vector\&lt; Urho3D\l::SharedPtr\&lt; Urho3D::Animation2D \&gt; \&gt;">
<polygon fill="none" stroke="black" points="844.5,-310 844.5,-344 1053.5,-344 1053.5,-310 844.5,-310"/>
<text text-anchor="start" x="852.5" y="-331" font-family="FreeSans" font-size="10.00">Urho3D::Vector&lt; Urho3D</text>
<text text-anchor="middle" x="949" y="-318" font-family="FreeSans" font-size="10.00">::SharedPtr&lt; Urho3D::Animation2D &gt; &gt;</text>
</a>
</g>
<!-- Node8&#45;&gt;Node22 -->
<g id="edge68" class="edge"><title>Node8&#45;&gt;Node22</title>
<path fill="none" stroke="midnightblue" d="M528.285,-356.654C556.286,-351.64 589.678,-346.269 620,-343 694.766,-334.94 779.531,-330.938 844.295,-328.953"/>
<polygon fill="midnightblue" stroke="midnightblue" points="527.442,-353.25 518.228,-358.481 528.693,-360.137 527.442,-353.25"/>
</g>
<!-- Node9&#45;&gt;Node6 -->
<g id="edge18" class="edge"><title>Node9&#45;&gt;Node6</title>
<path fill="none" stroke="#9a32cd" stroke-dasharray="5,2" d="M767.491,-621.287C834.461,-599.157 963.002,-550.772 1054,-480 1064.08,-472.16 1116.37,-405.697 1136.8,-379.527"/>
<polygon fill="#9a32cd" stroke="#9a32cd" points="766.1,-618.059 757.678,-624.487 768.27,-624.714 766.1,-618.059"/>
<text text-anchor="middle" x="949" y="-595" font-family="FreeSans" font-size="10.00"> eventHandler_</text>
</g>
<!-- Node19 -->
<g id="node45" class="node"><title>Node19</title>
<a xlink:href="a00207.html" target="_top" xlink:title="Urho3D::LinkedList\l\&lt; Urho3D::EventHandler \&gt;">
<polygon fill="none" stroke="black" points="1072,-703 1072,-737 1218,-737 1218,-703 1072,-703"/>
<text text-anchor="start" x="1080" y="-724" font-family="FreeSans" font-size="10.00">Urho3D::LinkedList</text>
<text text-anchor="middle" x="1145" y="-711" font-family="FreeSans" font-size="10.00">&lt; Urho3D::EventHandler &gt;</text>
</a>
</g>
<!-- Node9&#45;&gt;Node19 -->
<g id="edge56" class="edge"><title>Node9&#45;&gt;Node19</title>
<path fill="none" stroke="#9a32cd" stroke-dasharray="5,2" d="M785.115,-647.511C861.407,-662.878 990.645,-688.909 1071.72,-705.239"/>
<polygon fill="#9a32cd" stroke="#9a32cd" points="785.663,-644.051 775.169,-645.508 784.281,-650.914 785.663,-644.051"/>
<text text-anchor="middle" x="949" y="-705" font-family="FreeSans" font-size="10.00"> head_</text>
</g>
<!-- Node10 -->
<g id="node20" class="node"><title>Node10</title>
<a xlink:href="a00353.html" target="_top" xlink:title="32&#45;bit hash value for a string.">
<polygon fill="none" stroke="black" points="408.5,-600.5 408.5,-621.5 521.5,-621.5 521.5,-600.5 408.5,-600.5"/>
<text text-anchor="middle" x="465" y="-608.5" font-family="FreeSans" font-size="10.00">Urho3D::StringHash</text>
</a>
</g>
<!-- Node10&#45;&gt;Node2 -->
<g id="edge64" class="edge"><title>Node10&#45;&gt;Node2</title>
<path fill="none" stroke="#9a32cd" stroke-dasharray="5,2" d="M506.434,-597.189C557.884,-580.039 644.534,-551.155 691.105,-535.632"/>
<polygon fill="#9a32cd" stroke="#9a32cd" points="505.016,-593.972 496.636,-600.455 507.23,-600.613 505.016,-593.972"/>
<text text-anchor="middle" x="571" y="-589" font-family="FreeSans" font-size="10.00"> nameHash_</text>
</g>
<!-- Node10&#45;&gt;Node9 -->
<g id="edge22" class="edge"><title>Node10&#45;&gt;Node9</title>
<path fill="none" stroke="#9a32cd" stroke-dasharray="5,2" d="M531.754,-617.21C571.523,-620.909 621.673,-625.574 660.639,-629.199"/>
<polygon fill="#9a32cd" stroke="#9a32cd" points="531.9,-613.708 521.619,-616.267 531.252,-620.678 531.9,-613.708"/>
<text text-anchor="middle" x="571" y="-627" font-family="FreeSans" font-size="10.00"> eventType_</text>
</g>
<!-- Node10&#45;&gt;Node10 -->
<g id="edge24" class="edge"><title>Node10&#45;&gt;Node10</title>
<path fill="none" stroke="#9a32cd" stroke-dasharray="5,2" d="M446.571,-631.427C447.993,-636.349 454.136,-640 465,-640 482.383,-640 487.679,-630.653 480.889,-621.708"/>
<polygon fill="#9a32cd" stroke="#9a32cd" points="449.969,-632.268 449.111,-621.708 443.196,-630.498 449.969,-632.268"/>
<text text-anchor="middle" x="465" y="-644" font-family="FreeSans" font-size="10.00"> ZERO</text>
</g>
<!-- Node11 -->
<g id="node23" class="node"><title>Node11</title>
<a xlink:href="a00182.html" target="_top" xlink:title="Urho3D::HashMap\&lt; Urho3D\l::StringHash, Urho3D::\lHashSet\&lt; Urho3D::Object * \&gt; \&gt;">
<polygon fill="none" stroke="black" points="636.5,-0.5 636.5,-47.5 809.5,-47.5 809.5,-0.5 636.5,-0.5"/>
<text text-anchor="start" x="644.5" y="-34.5" font-family="FreeSans" font-size="10.00">Urho3D::HashMap&lt; Urho3D</text>
<text text-anchor="start" x="644.5" y="-21.5" font-family="FreeSans" font-size="10.00">::StringHash, Urho3D::</text>
<text text-anchor="middle" x="723" y="-8.5" font-family="FreeSans" font-size="10.00">HashSet&lt; Urho3D::Object * &gt; &gt;</text>
</a>
</g>
<!-- Node11&#45;&gt;Node6 -->
<g id="edge26" class="edge"><title>Node11&#45;&gt;Node6</title>
<path fill="none" stroke="#9a32cd" stroke-dasharray="5,2" d="M819.86,-14.4418C892.604,-12.7009 990.264,-22.6923 1054,-78 1098.78,-116.856 1134.87,-310.511 1143.19,-358.317"/>
<polygon fill="#9a32cd" stroke="#9a32cd" points="819.651,-10.9465 809.767,-14.7618 819.872,-17.943 819.651,-10.9465"/>
<text text-anchor="middle" x="949" y="-82" font-family="FreeSans" font-size="10.00"> eventReceivers_</text>
</g>
<!-- Node12 -->
<g id="node25" class="node"><title>Node12</title>
<a xlink:href="a00180.html" target="_top" xlink:title="Hash set/map base class.">
<polygon fill="none" stroke="black" points="411,-131.5 411,-152.5 519,-152.5 519,-131.5 411,-131.5"/>
<text text-anchor="middle" x="465" y="-139.5" font-family="FreeSans" font-size="10.00">Urho3D::HashBase</text>
</a>
</g>
<!-- Node12&#45;&gt;Node11 -->
<g id="edge28" class="edge"><title>Node12&#45;&gt;Node11</title>
<path fill="none" stroke="midnightblue" d="M490.26,-126.173C520.331,-107.803 572.469,-77.423 620,-57 627.763,-53.6642 635.98,-50.4814 644.251,-47.501"/>
<polygon fill="midnightblue" stroke="midnightblue" points="488.346,-123.241 481.665,-131.465 492.016,-129.202 488.346,-123.241"/>
</g>
<!-- Node15 -->
<g id="node33" class="node"><title>Node15</title>
<a xlink:href="a00182.html" target="_top" xlink:title="Urho3D::HashMap\&lt; Urho3D\l::Object *, Urho3D::HashMap\l\&lt; Urho3D::StringHash, Urho3D\l::HashSet\&lt; Urho3D::Object * \&gt; \&gt; \&gt;">
<polygon fill="none" stroke="black" points="627.5,-236 627.5,-296 818.5,-296 818.5,-236 627.5,-236"/>
<text text-anchor="start" x="635.5" y="-283" font-family="FreeSans" font-size="10.00">Urho3D::HashMap&lt; Urho3D</text>
<text text-anchor="start" x="635.5" y="-270" font-family="FreeSans" font-size="10.00">::Object *, Urho3D::HashMap</text>
<text text-anchor="start" x="635.5" y="-257" font-family="FreeSans" font-size="10.00">&lt; Urho3D::StringHash, Urho3D</text>
<text text-anchor="middle" x="723" y="-244" font-family="FreeSans" font-size="10.00">::HashSet&lt; Urho3D::Object * &gt; &gt; &gt;</text>
</a>
</g>
<!-- Node12&#45;&gt;Node15 -->
<g id="edge40" class="edge"><title>Node12&#45;&gt;Node15</title>
<path fill="none" stroke="midnightblue" d="M490.941,-157.688C521.266,-175.681 573.268,-205.467 620,-227 626.599,-230.041 633.509,-233.038 640.491,-235.938"/>
<polygon fill="midnightblue" stroke="midnightblue" points="492.636,-154.624 482.255,-152.505 489.049,-160.635 492.636,-154.624"/>
</g>
<!-- Node16 -->
<g id="node36" class="node"><title>Node16</title>
<a xlink:href="a00182.html" target="_top" xlink:title="Urho3D::HashMap\&lt; Urho3D\l::StringHash, Urho3D::\lSharedPtr\&lt; Urho3D::Object \&gt; \&gt;">
<polygon fill="none" stroke="black" points="637,-170.5 637,-217.5 809,-217.5 809,-170.5 637,-170.5"/>
<text text-anchor="start" x="645" y="-204.5" font-family="FreeSans" font-size="10.00">Urho3D::HashMap&lt; Urho3D</text>
<text text-anchor="start" x="645" y="-191.5" font-family="FreeSans" font-size="10.00">::StringHash, Urho3D::</text>
<text text-anchor="middle" x="723" y="-178.5" font-family="FreeSans" font-size="10.00">SharedPtr&lt; Urho3D::Object &gt; &gt;</text>
</a>
</g>
<!-- Node12&#45;&gt;Node16 -->
<g id="edge44" class="edge"><title>Node12&#45;&gt;Node16</title>
<path fill="none" stroke="midnightblue" d="M527.145,-154.525C560.033,-161.154 600.933,-169.397 636.838,-176.634"/>
<polygon fill="midnightblue" stroke="midnightblue" points="527.705,-151.068 517.21,-152.523 526.321,-157.93 527.705,-151.068"/>
</g>
<!-- Node18 -->
<g id="node42" class="node"><title>Node18</title>
<a xlink:href="a00182.html" target="_top" xlink:title="Urho3D::HashMap\&lt; Urho3D\l::StringHash, Urho3D::\lSharedPtr\&lt; Urho3D::ObjectFactory \&gt; \&gt;">
<polygon fill="none" stroke="black" points="620,-66.5 620,-113.5 826,-113.5 826,-66.5 620,-66.5"/>
<text text-anchor="start" x="628" y="-100.5" font-family="FreeSans" font-size="10.00">Urho3D::HashMap&lt; Urho3D</text>
<text text-anchor="start" x="628" y="-87.5" font-family="FreeSans" font-size="10.00">::StringHash, Urho3D::</text>
<text text-anchor="middle" x="723" y="-74.5" font-family="FreeSans" font-size="10.00">SharedPtr&lt; Urho3D::ObjectFactory &gt; &gt;</text>
</a>
</g>
<!-- Node12&#45;&gt;Node18 -->
<g id="edge52" class="edge"><title>Node12&#45;&gt;Node18</title>
<path fill="none" stroke="midnightblue" d="M527.185,-129.467C555.004,-123.86 588.548,-117.099 619.951,-110.77"/>
<polygon fill="midnightblue" stroke="midnightblue" points="526.321,-126.07 517.21,-131.477 527.705,-132.932 526.321,-126.07"/>
</g>
<!-- Node23 -->
<g id="node57" class="node"><title>Node23</title>
<a xlink:href="a00182.html" target="_top" xlink:title="Urho3D::HashMap\&lt; unsigned,\l Urho3D::SharedPtr\&lt; Urho3D\l::Sprite2D \&gt; \&gt;">
<polygon fill="none" stroke="black" points="1236,-188.5 1236,-235.5 1398,-235.5 1398,-188.5 1236,-188.5"/>
<text text-anchor="start" x="1244" y="-222.5" font-family="FreeSans" font-size="10.00">Urho3D::HashMap&lt; unsigned,</text>
<text text-anchor="start" x="1244" y="-209.5" font-family="FreeSans" font-size="10.00"> Urho3D::SharedPtr&lt; Urho3D</text>
<text text-anchor="middle" x="1317" y="-196.5" font-family="FreeSans" font-size="10.00">::Sprite2D &gt; &gt;</text>
</a>
</g>
<!-- Node12&#45;&gt;Node23 -->
<g id="edge72" class="edge"><title>Node12&#45;&gt;Node23</title>
<path fill="none" stroke="midnightblue" d="M529.482,-144.46C601.746,-147.435 722.37,-153.051 826,-161 927.549,-168.79 952.695,-173.498 1054,-184 1114.97,-190.321 1183.88,-197.664 1235.85,-203.244"/>
<polygon fill="midnightblue" stroke="midnightblue" points="529.313,-140.951 519.178,-144.041 529.028,-147.945 529.313,-140.951"/>
</g>
<!-- Node13 -->
<g id="node27" class="node"><title>Node13</title>
<a xlink:href="a00183.html" target="_top" xlink:title="Hash set/map node base class.">
<polygon fill="none" stroke="black" points="188,-166.5 188,-187.5 322,-187.5 322,-166.5 188,-166.5"/>
<text text-anchor="middle" x="255" y="-174.5" font-family="FreeSans" font-size="10.00">Urho3D::HashNodeBase</text>
</a>
</g>
<!-- Node13&#45;&gt;Node12 -->
<g id="edge30" class="edge"><title>Node13&#45;&gt;Node12</title>
<path fill="none" stroke="#9a32cd" stroke-dasharray="5,2" d="M327.895,-164.851C355.169,-160.305 385.641,-155.227 410.918,-151.014"/>
<polygon fill="#9a32cd" stroke="#9a32cd" points="327.295,-161.402 318.007,-166.499 328.446,-168.307 327.295,-161.402"/>
<text text-anchor="middle" x="365" y="-193" font-family="FreeSans" font-size="10.00"> ptrs_</text>
<text text-anchor="middle" x="365" y="-180" font-family="FreeSans" font-size="10.00">tail_</text>
<text text-anchor="middle" x="365" y="-167" font-family="FreeSans" font-size="10.00">head_</text>
</g>
<!-- Node13&#45;&gt;Node13 -->
<g id="edge32" class="edge"><title>Node13&#45;&gt;Node13</title>
<path fill="none" stroke="#9a32cd" stroke-dasharray="5,2" d="M234.728,-197.427C236.292,-202.349 243.049,-206 255,-206 274.121,-206 279.947,-196.653 272.478,-187.708"/>
<polygon fill="#9a32cd" stroke="#9a32cd" points="238.123,-198.286 237.522,-187.708 231.395,-196.352 238.123,-198.286"/>
<text text-anchor="middle" x="255" y="-236" font-family="FreeSans" font-size="10.00"> next_</text>
<text text-anchor="middle" x="255" y="-223" font-family="FreeSans" font-size="10.00">prev_</text>
<text text-anchor="middle" x="255" y="-210" font-family="FreeSans" font-size="10.00">down_</text>
</g>
<!-- Node14 -->
<g id="node30" class="node"><title>Node14</title>
<a xlink:href="a00052.html" target="_top" xlink:title="Allocator memory block.">
<polygon fill="none" stroke="red" points="191.5,-95.5 191.5,-116.5 318.5,-116.5 318.5,-95.5 191.5,-95.5"/>
<text text-anchor="middle" x="255" y="-103.5" font-family="FreeSans" font-size="10.00">Urho3D::AllocatorBlock</text>
</a>
</g>
<!-- Node14&#45;&gt;Node12 -->
<g id="edge34" class="edge"><title>Node14&#45;&gt;Node12</title>
<path fill="none" stroke="#9a32cd" stroke-dasharray="5,2" d="M326.307,-118.224C353.927,-122.959 385.026,-128.29 410.765,-132.703"/>
<polygon fill="#9a32cd" stroke="#9a32cd" points="326.753,-114.75 316.305,-116.509 325.57,-121.649 326.753,-114.75"/>
<text text-anchor="middle" x="365" y="-133" font-family="FreeSans" font-size="10.00"> allocator_</text>
</g>
<!-- Node14&#45;&gt;Node14 -->
<g id="edge36" class="edge"><title>Node14&#45;&gt;Node14</title>
<path fill="none" stroke="#9a32cd" stroke-dasharray="5,2" d="M234.728,-126.427C236.292,-131.349 243.049,-135 255,-135 274.121,-135 279.947,-125.653 272.478,-116.708"/>
<polygon fill="#9a32cd" stroke="#9a32cd" points="238.123,-127.286 237.522,-116.708 231.395,-125.352 238.123,-127.286"/>
<text text-anchor="middle" x="255" y="-139" font-family="FreeSans" font-size="10.00"> next_</text>
</g>
<!-- Node15&#45;&gt;Node6 -->
<g id="edge38" class="edge"><title>Node15&#45;&gt;Node6</title>
<path fill="none" stroke="#9a32cd" stroke-dasharray="5,2" d="M828.919,-255.885C895.941,-253.567 983.016,-258.252 1054,-288 1090.87,-303.451 1122.9,-340.237 1137.14,-358.434"/>
<polygon fill="#9a32cd" stroke="#9a32cd" points="828.611,-252.395 818.761,-256.295 828.894,-259.389 828.611,-252.395"/>
<text text-anchor="middle" x="949" y="-292" font-family="FreeSans" font-size="10.00"> specificEventReceivers_</text>
</g>
<!-- Node16&#45;&gt;Node6 -->
<g id="edge42" class="edge"><title>Node16&#45;&gt;Node6</title>
<path fill="none" stroke="#9a32cd" stroke-dasharray="5,2" d="M819.253,-187.318C889.202,-186.936 983.564,-196.048 1054,-239 1101.75,-268.117 1130.99,-332.8 1141.05,-358.335"/>
<polygon fill="#9a32cd" stroke="#9a32cd" points="819.073,-183.82 809.116,-187.441 819.157,-190.82 819.073,-183.82"/>
<text text-anchor="middle" x="949" y="-243" font-family="FreeSans" font-size="10.00"> subsystems_</text>
</g>
<!-- Node17&#45;&gt;Node6 -->
<g id="edge46" class="edge"><title>Node17&#45;&gt;Node6</title>
<path fill="none" stroke="#9a32cd" stroke-dasharray="5,2" d="M796.86,-369C882.963,-369 1022.82,-369 1096.32,-369"/>
<polygon fill="#9a32cd" stroke="#9a32cd" points="796.635,-365.5 786.635,-369 796.635,-372.5 796.635,-365.5"/>
<text text-anchor="middle" x="949" y="-373" font-family="FreeSans" font-size="10.00"> eventDataMaps_</text>
</g>
<!-- Node18&#45;&gt;Node6 -->
<g id="edge50" class="edge"><title>Node18&#45;&gt;Node6</title>
<path fill="none" stroke="#9a32cd" stroke-dasharray="5,2" d="M836.468,-93.4079C906.084,-100.949 993.224,-120.84 1054,-171 1116.15,-222.293 1137.88,-325.302 1143.42,-358.459"/>
<polygon fill="#9a32cd" stroke="#9a32cd" points="836.63,-89.9066 826.329,-92.3828 835.926,-96.8711 836.63,-89.9066"/>
<text text-anchor="middle" x="949" y="-175" font-family="FreeSans" font-size="10.00"> factories_</text>
</g>
<!-- Node19&#45;&gt;Node3 -->
<g id="edge54" class="edge"><title>Node19&#45;&gt;Node3</title>
<path fill="none" stroke="#9a32cd" stroke-dasharray="5,2" d="M1061.78,-723.762C1059.16,-723.847 1056.56,-723.927 1054,-724 861.185,-729.505 812.86,-730.615 620,-727 584.426,-726.333 574.253,-733.627 540,-724 517.013,-717.539 493.463,-702.748 479.033,-692.564"/>
<polygon fill="#9a32cd" stroke="#9a32cd" points="1062.12,-727.252 1071.99,-723.407 1061.88,-720.256 1062.12,-727.252"/>
<text text-anchor="middle" x="723" y="-733" font-family="FreeSans" font-size="10.00"> eventHandlers_</text>
</g>
<!-- Node20 -->
<g id="node48" class="node"><title>Node20</title>
<a xlink:href="a00369.html" target="_top" xlink:title="Low&#45;resolution operating system timer.">
<polygon fill="none" stroke="black" points="422,-560.5 422,-581.5 508,-581.5 508,-560.5 422,-560.5"/>
<text text-anchor="middle" x="465" y="-568.5" font-family="FreeSans" font-size="10.00">Urho3D::Timer</text>
</a>
</g>
<!-- Node20&#45;&gt;Node2 -->
<g id="edge58" class="edge"><title>Node20&#45;&gt;Node2</title>
<path fill="none" stroke="#9a32cd" stroke-dasharray="5,2" d="M510.244,-556.666C514.295,-554.924 518.271,-553.033 522,-551 530.898,-546.148 530.526,-540.601 540,-537 582.112,-520.992 633.58,-519.014 671.195,-520.447"/>
<polygon fill="#9a32cd" stroke="#9a32cd" points="508.727,-553.503 500.736,-560.459 511.321,-560.005 508.727,-553.503"/>
<text text-anchor="middle" x="571" y="-541" font-family="FreeSans" font-size="10.00"> useTimer_</text>
</g>
<!-- Node21 -->
<g id="node50" class="node"><title>Node21</title>
<a xlink:href="a00352.html" target="_top" xlink:title="String class.">
<polygon fill="none" stroke="black" points="421,-489.5 421,-510.5 509,-510.5 509,-489.5 421,-489.5"/>
<text text-anchor="middle" x="465" y="-497.5" font-family="FreeSans" font-size="10.00">Urho3D::String</text>
</a>
</g>
<!-- Node21&#45;&gt;Node2 -->
<g id="edge60" class="edge"><title>Node21&#45;&gt;Node2</title>
<path fill="none" stroke="#9a32cd" stroke-dasharray="5,2" d="M519.334,-498.05C544.538,-497.746 574.859,-498.234 602,-501 628.206,-503.67 657.163,-509.315 680.177,-514.46"/>
<polygon fill="#9a32cd" stroke="#9a32cd" points="519.17,-494.552 509.229,-498.217 519.286,-501.551 519.17,-494.552"/>
<text text-anchor="middle" x="571" y="-505" font-family="FreeSans" font-size="10.00"> name_</text>
</g>
<!-- Node21&#45;&gt;Node21 -->
<g id="edge62" class="edge"><title>Node21&#45;&gt;Node21</title>
<path fill="none" stroke="#9a32cd" stroke-dasharray="5,2" d="M446.571,-520.427C447.993,-525.349 454.136,-529 465,-529 482.383,-529 487.679,-519.653 480.889,-510.708"/>
<polygon fill="#9a32cd" stroke="#9a32cd" points="449.969,-521.268 449.111,-510.708 443.196,-519.498 449.969,-521.268"/>
<text text-anchor="middle" x="465" y="-533" font-family="FreeSans" font-size="10.00"> EMPTY</text>
</g>
<!-- Node22&#45;&gt;Node1 -->
<g id="edge66" class="edge"><title>Node22&#45;&gt;Node1</title>
<path fill="none" stroke="#9a32cd" stroke-dasharray="5,2" d="M1063.81,-332.344C1222.13,-339.712 1502.56,-352.764 1632,-358.789"/>
<polygon fill="#9a32cd" stroke="#9a32cd" points="1063.71,-328.835 1053.56,-331.867 1063.39,-335.828 1063.71,-328.835"/>
<text text-anchor="middle" x="1317" y="-352" font-family="FreeSans" font-size="10.00"> animations_</text>
</g>
<!-- Node23&#45;&gt;Node1 -->
<g id="edge70" class="edge"><title>Node23&#45;&gt;Node1</title>
<path fill="none" stroke="#9a32cd" stroke-dasharray="5,2" d="M1405.66,-238.605C1465.46,-257.551 1545.63,-284.91 1614,-315 1638.83,-325.926 1666.15,-341.268 1683.43,-351.414"/>
<polygon fill="#9a32cd" stroke="#9a32cd" points="1406.46,-235.186 1395.87,-235.52 1404.35,-241.863 1406.46,-235.186"/>
<text text-anchor="middle" x="1474" y="-285" font-family="FreeSans" font-size="10.00"> sprites_</text>
</g>
<!-- Node24 -->
<g id="node60" class="node"><title>Node24</title>
<a xlink:href="a00329.html" target="_top" xlink:title="Urho3D::SharedPtr\&lt;\l Urho3D::XMLFile \&gt;">
<polygon fill="none" stroke="black" points="1416,-410 1416,-444 1532,-444 1532,-410 1416,-410"/>
<text text-anchor="start" x="1424" y="-431" font-family="FreeSans" font-size="10.00">Urho3D::SharedPtr&lt;</text>
<text text-anchor="middle" x="1474" y="-418" font-family="FreeSans" font-size="10.00"> Urho3D::XMLFile &gt;</text>
</a>
</g>
<!-- Node24&#45;&gt;Node1 -->
<g id="edge74" class="edge"><title>Node24&#45;&gt;Node1</title>
<path fill="none" stroke="#9a32cd" stroke-dasharray="5,2" d="M1541.89,-407.559C1582.04,-396.063 1631.32,-381.952 1664.3,-372.508"/>
<polygon fill="#9a32cd" stroke="#9a32cd" points="1540.81,-404.228 1532.16,-410.345 1542.74,-410.957 1540.81,-404.228"/>
<text text-anchor="middle" x="1582" y="-409" font-family="FreeSans" font-size="10.00"> loadXMLFile_</text>
</g>
<!-- Node25&#45;&gt;Node24 -->
<g id="edge76" class="edge"><title>Node25&#45;&gt;Node24</title>
<path fill="none" stroke="#9a32cd" stroke-dasharray="5,2" d="M1202.18,-472.441C1262.06,-462.43 1355.61,-446.791 1415.86,-436.72"/>
<polygon fill="#9a32cd" stroke="#9a32cd" points="1201.42,-469.019 1192.14,-474.12 1202.58,-475.923 1201.42,-469.019"/>
<text text-anchor="middle" x="1317" y="-470" font-family="FreeSans" font-size="10.00"> ptr_</text>
</g>
</g>
</svg>
