<?xml version="1.0" encoding="UTF-8" standalone="no"?>
<!DOCTYPE svg PUBLIC "-//W3C//DTD SVG 1.1//EN"
 "http://www.w3.org/Graphics/SVG/1.1/DTD/svg11.dtd">
<!-- Generated by graphviz version 2.26.3 (20100126.1600)
 -->
<!-- Title: Urho3D::MaterialCache2D Pages: 1 -->
<svg width="1604pt" height="962pt"
 viewBox="0.00 0.00 1604.00 962.00" xmlns="http://www.w3.org/2000/svg" xmlns:xlink="http://www.w3.org/1999/xlink">
<g id="graph1" class="graph" transform="scale(1 1) rotate(0) translate(4 958)">
<title>Urho3D::MaterialCache2D</title>
<!-- Node1 -->
<g id="node1" class="node"><title>Node1</title>
<polygon fill="#bfbfbf" stroke="black" points="1454.5,-136.5 1454.5,-157.5 1595.5,-157.5 1595.5,-136.5 1454.5,-136.5"/>
<text text-anchor="middle" x="1525" y="-144.5" font-family="FreeSans" font-size="10.00">Urho3D::MaterialCache2D</text>
</g>
<!-- Node2 -->
<g id="node2" class="node"><title>Node2</title>
<a xlink:href="a00103.html" target="_top" xlink:title="Base class for components. Components can be created to scene nodes.">
<polygon fill="none" stroke="black" points="1300,-459.5 1300,-480.5 1416,-480.5 1416,-459.5 1300,-459.5"/>
<text text-anchor="middle" x="1358" y="-467.5" font-family="FreeSans" font-size="10.00">Urho3D::Component</text>
</a>
</g>
<!-- Node2&#45;&gt;Node1 -->
<g id="edge2" class="edge"><title>Node2&#45;&gt;Node1</title>
<path fill="none" stroke="midnightblue" d="M1392.17,-454.491C1400.84,-449.283 1409.52,-442.778 1416,-435 1490.96,-345.063 1517.44,-198.237 1523.53,-157.673"/>
<polygon fill="midnightblue" stroke="midnightblue" points="1390.28,-451.537 1383.23,-459.449 1393.67,-457.658 1390.28,-451.537"/>
</g>
<!-- Node3 -->
<g id="node4" class="node"><title>Node3</title>
<a xlink:href="a00054.html" target="_top" xlink:title="Base class for animatable object, an animatable object can be set animation on it&#39;s attributes...">
<polygon fill="none" stroke="black" points="847,-841.5 847,-862.5 961,-862.5 961,-841.5 847,-841.5"/>
<text text-anchor="middle" x="904" y="-849.5" font-family="FreeSans" font-size="10.00">Urho3D::Animatable</text>
</a>
</g>
<!-- Node3&#45;&gt;Node2 -->
<g id="edge4" class="edge"><title>Node3&#45;&gt;Node2</title>
<path fill="none" stroke="midnightblue" d="M959.669,-864.362C1041.76,-879.007 1194.95,-892.073 1282,-810 1331.84,-763.009 1352.98,-533.015 1357.19,-480.632"/>
<polygon fill="midnightblue" stroke="midnightblue" points="960.248,-860.909 949.778,-862.528 958.972,-867.792 960.248,-860.909"/>
</g>
<!-- Node11 -->
<g id="node23" class="node"><title>Node11</title>
<a xlink:href="a00238.html" target="_top" xlink:title="Scene node that may contain components and child nodes.">
<polygon fill="none" stroke="black" points="1140.5,-423.5 1140.5,-444.5 1225.5,-444.5 1225.5,-423.5 1140.5,-423.5"/>
<text text-anchor="middle" x="1183" y="-431.5" font-family="FreeSans" font-size="10.00">Urho3D::Node</text>
</a>
</g>
<!-- Node3&#45;&gt;Node11 -->
<g id="edge28" class="edge"><title>Node3&#45;&gt;Node11</title>
<path fill="none" stroke="midnightblue" d="M971.405,-843.267C1031.45,-834.857 1111.42,-821.851 1122,-811 1174.76,-756.877 1181.93,-500.119 1182.86,-444.601"/>
<polygon fill="midnightblue" stroke="midnightblue" points="970.628,-839.841 961.202,-844.679 971.588,-846.775 970.628,-839.841"/>
</g>
<!-- Node4 -->
<g id="node6" class="node"><title>Node4</title>
<a xlink:href="a00315.html" target="_top" xlink:title="Base class for objects with automatic serialization through attributes.">
<polygon fill="none" stroke="red" points="410,-880.5 410,-901.5 524,-901.5 524,-880.5 410,-880.5"/>
<text text-anchor="middle" x="467" y="-888.5" font-family="FreeSans" font-size="10.00">Urho3D::Serializable</text>
</a>
</g>
<!-- Node4&#45;&gt;Node3 -->
<g id="edge6" class="edge"><title>Node4&#45;&gt;Node3</title>
<path fill="none" stroke="midnightblue" d="M533.99,-885.582C598.167,-880.323 697.73,-871.987 784,-864 804.535,-862.099 827.033,-859.884 846.944,-857.879"/>
<polygon fill="midnightblue" stroke="midnightblue" points="533.682,-882.095 524.001,-886.399 534.253,-889.072 533.682,-882.095"/>
</g>
<!-- Node5 -->
<g id="node8" class="node"><title>Node5</title>
<a xlink:href="a00179.html" target="_top" xlink:title="Urho3D::HashMap\&lt; Urho3D\l::String, Urho3D::SharedPtr\l\&lt; Urho3D::AttributeAnimationInfo \&gt; \&gt;">
<polygon fill="none" stroke="black" points="366.5,-814.5 366.5,-861.5 567.5,-861.5 567.5,-814.5 366.5,-814.5"/>
<text text-anchor="start" x="374.5" y="-848.5" font-family="FreeSans" font-size="10.00">Urho3D::HashMap&lt; Urho3D</text>
<text text-anchor="start" x="374.5" y="-835.5" font-family="FreeSans" font-size="10.00">::String, Urho3D::SharedPtr</text>
<text text-anchor="middle" x="467" y="-822.5" font-family="FreeSans" font-size="10.00">&lt; Urho3D::AttributeAnimationInfo &gt; &gt;</text>
</a>
</g>
<!-- Node5&#45;&gt;Node3 -->
<g id="edge8" class="edge"><title>Node5&#45;&gt;Node3</title>
<path fill="none" stroke="#9a32cd" stroke-dasharray="5,2" d="M577.571,-841.542C663.31,-844.289 778.656,-847.984 846.789,-850.167"/>
<polygon fill="#9a32cd" stroke="#9a32cd" points="577.638,-838.043 567.531,-841.221 577.414,-845.039 577.638,-838.043"/>
<text text-anchor="middle" x="685" y="-851" font-family="FreeSans" font-size="10.00"> attributeAnimationInfos_</text>
</g>
<!-- Node6 -->
<g id="node10" class="node"><title>Node6</title>
<a xlink:href="a00177.html" target="_top" xlink:title="Hash set/map base class.">
<polygon fill="none" stroke="black" points="220,-426.5 220,-447.5 328,-447.5 328,-426.5 220,-426.5"/>
<text text-anchor="middle" x="274" y="-434.5" font-family="FreeSans" font-size="10.00">Urho3D::HashBase</text>
</a>
</g>
<!-- Node6&#45;&gt;Node5 -->
<g id="edge10" class="edge"><title>Node6&#45;&gt;Node5</title>
<path fill="none" stroke="midnightblue" d="M276.547,-457.816C285.502,-527.793 317.632,-753.079 366,-805 369.269,-808.509 372.916,-811.646 376.831,-814.45"/>
<polygon fill="midnightblue" stroke="midnightblue" points="279.987,-457.115 275.268,-447.629 273.041,-457.988 279.987,-457.115"/>
</g>
<!-- Node10 -->
<g id="node20" class="node"><title>Node10</title>
<a xlink:href="a00181.html" target="_top" xlink:title="Urho3D::HashSet\&lt; const\l Urho3D::AttributeInfo * \&gt;">
<polygon fill="none" stroke="black" points="396.5,-920 396.5,-954 537.5,-954 537.5,-920 396.5,-920"/>
<text text-anchor="start" x="404.5" y="-941" font-family="FreeSans" font-size="10.00">Urho3D::HashSet&lt; const</text>
<text text-anchor="middle" x="467" y="-928" font-family="FreeSans" font-size="10.00"> Urho3D::AttributeInfo * &gt;</text>
</a>
</g>
<!-- Node6&#45;&gt;Node10 -->
<g id="edge24" class="edge"><title>Node6&#45;&gt;Node10</title>
<path fill="none" stroke="midnightblue" d="M275.154,-457.797C280.151,-540.345 302.612,-843.673 366,-911 374.254,-919.767 385.035,-925.733 396.473,-929.763"/>
<polygon fill="midnightblue" stroke="midnightblue" points="278.639,-457.441 274.562,-447.662 271.651,-457.849 278.639,-457.441"/>
</g>
<!-- Node14 -->
<g id="node31" class="node"><title>Node14</title>
<a xlink:href="a00179.html" target="_top" xlink:title="Urho3D::HashMap\&lt; StringHash,\l Variant \&gt;">
<polygon fill="none" stroke="black" points="381,-148 381,-182 553,-182 553,-148 381,-148"/>
<text text-anchor="start" x="389" y="-169" font-family="FreeSans" font-size="10.00">Urho3D::HashMap&lt; StringHash,</text>
<text text-anchor="middle" x="467" y="-156" font-family="FreeSans" font-size="10.00"> Variant &gt;</text>
</a>
</g>
<!-- Node6&#45;&gt;Node14 -->
<g id="edge38" class="edge"><title>Node6&#45;&gt;Node14</title>
<path fill="none" stroke="midnightblue" d="M286.461,-417.783C303.872,-391.088 336.647,-341.393 366,-300 396.478,-257.022 434.029,-207.74 453.639,-182.267"/>
<polygon fill="midnightblue" stroke="midnightblue" points="283.495,-415.925 280.974,-426.215 289.362,-419.743 283.495,-415.925"/>
</g>
<!-- Node25 -->
<g id="node66" class="node"><title>Node25</title>
<a xlink:href="a00179.html" target="_top" xlink:title="Urho3D::HashMap\&lt; Urho3D\l::Texture2D *, Urho3D\l::HashMap\&lt; int, Urho3D\l::SharedPtr\&lt; Urho3D::Material \&gt; \&gt; \&gt;">
<polygon fill="none" stroke="black" points="586.5,-0 586.5,-60 783.5,-60 783.5,-0 586.5,-0"/>
<text text-anchor="start" x="594.5" y="-47" font-family="FreeSans" font-size="10.00">Urho3D::HashMap&lt; Urho3D</text>
<text text-anchor="start" x="594.5" y="-34" font-family="FreeSans" font-size="10.00">::Texture2D *, Urho3D</text>
<text text-anchor="start" x="594.5" y="-21" font-family="FreeSans" font-size="10.00">::HashMap&lt; int, Urho3D</text>
<text text-anchor="middle" x="685" y="-8" font-family="FreeSans" font-size="10.00">::SharedPtr&lt; Urho3D::Material &gt; &gt; &gt;</text>
</a>
</g>
<!-- Node6&#45;&gt;Node25 -->
<g id="edge86" class="edge"><title>Node6&#45;&gt;Node25</title>
<path fill="none" stroke="midnightblue" d="M277.861,-416.305C289.557,-355.645 326.238,-179.966 366,-139 423.985,-79.2604 516.025,-52.256 586.37,-40.0525"/>
<polygon fill="midnightblue" stroke="midnightblue" points="274.403,-415.757 275.973,-426.235 281.28,-417.065 274.403,-415.757"/>
</g>
<!-- Node7 -->
<g id="node12" class="node"><title>Node7</title>
<a xlink:href="a00180.html" target="_top" xlink:title="Hash set/map node base class.">
<polygon fill="none" stroke="black" points="0,-470.5 0,-491.5 134,-491.5 134,-470.5 0,-470.5"/>
<text text-anchor="middle" x="67" y="-478.5" font-family="FreeSans" font-size="10.00">Urho3D::HashNodeBase</text>
</a>
</g>
<!-- Node7&#45;&gt;Node6 -->
<g id="edge12" class="edge"><title>Node7&#45;&gt;Node6</title>
<path fill="none" stroke="#9a32cd" stroke-dasharray="5,2" d="M126.414,-468.371C157.457,-461.772 195.009,-453.79 224.465,-447.529"/>
<polygon fill="#9a32cd" stroke="#9a32cd" points="125.635,-464.958 116.582,-470.461 127.091,-471.805 125.635,-464.958"/>
<text text-anchor="middle" x="177" y="-491" font-family="FreeSans" font-size="10.00"> ptrs_</text>
<text text-anchor="middle" x="177" y="-478" font-family="FreeSans" font-size="10.00">tail_</text>
<text text-anchor="middle" x="177" y="-465" font-family="FreeSans" font-size="10.00">head_</text>
</g>
<!-- Node7&#45;&gt;Node7 -->
<g id="edge14" class="edge"><title>Node7&#45;&gt;Node7</title>
<path fill="none" stroke="#9a32cd" stroke-dasharray="5,2" d="M46.7282,-501.427C48.292,-506.349 55.0493,-510 67,-510 86.1211,-510 91.9471,-500.653 84.4779,-491.708"/>
<polygon fill="#9a32cd" stroke="#9a32cd" points="50.1229,-502.286 49.5221,-491.708 43.3954,-500.352 50.1229,-502.286"/>
<text text-anchor="middle" x="67" y="-540" font-family="FreeSans" font-size="10.00"> next_</text>
<text text-anchor="middle" x="67" y="-527" font-family="FreeSans" font-size="10.00">prev_</text>
<text text-anchor="middle" x="67" y="-514" font-family="FreeSans" font-size="10.00">down_</text>
</g>
<!-- Node8 -->
<g id="node15" class="node"><title>Node8</title>
<a xlink:href="a00052.html" target="_top" xlink:title="Allocator memory block.">
<polygon fill="none" stroke="red" points="3.5,-399.5 3.5,-420.5 130.5,-420.5 130.5,-399.5 3.5,-399.5"/>
<text text-anchor="middle" x="67" y="-407.5" font-family="FreeSans" font-size="10.00">Urho3D::AllocatorBlock</text>
</a>
</g>
<!-- Node8&#45;&gt;Node6 -->
<g id="edge16" class="edge"><title>Node8&#45;&gt;Node6</title>
<path fill="none" stroke="#9a32cd" stroke-dasharray="5,2" d="M140.721,-419.616C166.762,-423.012 195.551,-426.768 219.689,-429.916"/>
<polygon fill="#9a32cd" stroke="#9a32cd" points="140.882,-416.107 130.514,-418.284 139.977,-423.048 140.882,-416.107"/>
<text text-anchor="middle" x="177" y="-432" font-family="FreeSans" font-size="10.00"> allocator_</text>
</g>
<!-- Node8&#45;&gt;Node8 -->
<g id="edge18" class="edge"><title>Node8&#45;&gt;Node8</title>
<path fill="none" stroke="#9a32cd" stroke-dasharray="5,2" d="M46.7282,-430.427C48.292,-435.349 55.0493,-439 67,-439 86.1211,-439 91.9471,-429.653 84.4779,-420.708"/>
<polygon fill="#9a32cd" stroke="#9a32cd" points="50.1229,-431.286 49.5221,-420.708 43.3954,-429.352 50.1229,-431.286"/>
<text text-anchor="middle" x="67" y="-443" font-family="FreeSans" font-size="10.00"> next_</text>
</g>
<!-- Node9 -->
<g id="node18" class="node"><title>Node9</title>
<a xlink:href="a00325.html" target="_top" xlink:title="Urho3D::SharedPtr\&lt;\l Urho3D::ObjectAnimation \&gt;">
<polygon fill="none" stroke="red" points="390.5,-762 390.5,-796 543.5,-796 543.5,-762 390.5,-762"/>
<text text-anchor="start" x="398.5" y="-783" font-family="FreeSans" font-size="10.00">Urho3D::SharedPtr&lt;</text>
<text text-anchor="middle" x="467" y="-770" font-family="FreeSans" font-size="10.00"> Urho3D::ObjectAnimation &gt;</text>
</a>
</g>
<!-- Node9&#45;&gt;Node3 -->
<g id="edge20" class="edge"><title>Node9&#45;&gt;Node3</title>
<path fill="none" stroke="#9a32cd" stroke-dasharray="5,2" d="M553.71,-793.08C564.576,-794.775 575.542,-796.452 586,-798 673.857,-811.002 696.596,-809.238 784,-825 809.849,-829.662 838.56,-836.077 861.417,-841.484"/>
<polygon fill="#9a32cd" stroke="#9a32cd" points="554.199,-789.614 543.777,-791.522 553.114,-796.53 554.199,-789.614"/>
<text text-anchor="middle" x="685" y="-829" font-family="FreeSans" font-size="10.00"> objectAnimation_</text>
</g>
<!-- Node10&#45;&gt;Node3 -->
<g id="edge22" class="edge"><title>Node10&#45;&gt;Node3</title>
<path fill="none" stroke="#9a32cd" stroke-dasharray="5,2" d="M547.723,-926.66C612.082,-917.782 704.312,-903.636 784,-886 813.704,-879.426 846.949,-869.827 870.901,-862.503"/>
<polygon fill="#9a32cd" stroke="#9a32cd" points="547.073,-923.217 537.64,-928.04 548.022,-930.152 547.073,-923.217"/>
<text text-anchor="middle" x="685" y="-924" font-family="FreeSans" font-size="10.00"> animatedNetworkAttributes_</text>
</g>
<!-- Node11&#45;&gt;Node2 -->
<g id="edge26" class="edge"><title>Node11&#45;&gt;Node2</title>
<path fill="none" stroke="#9a32cd" stroke-dasharray="5,2" d="M1235.88,-444.878C1258.41,-449.512 1284.59,-454.898 1306.92,-459.492"/>
<polygon fill="#9a32cd" stroke="#9a32cd" points="1236.31,-441.393 1225.81,-442.807 1234.9,-448.25 1236.31,-441.393"/>
<text text-anchor="middle" x="1263" y="-458" font-family="FreeSans" font-size="10.00"> node_</text>
</g>
<!-- Node11&#45;&gt;Node11 -->
<g id="edge62" class="edge"><title>Node11&#45;&gt;Node11</title>
<path fill="none" stroke="#9a32cd" stroke-dasharray="5,2" d="M1168.35,-454.793C1169.64,-459.529 1174.53,-463 1183,-463 1196.91,-463 1201.14,-453.653 1195.71,-444.708"/>
<polygon fill="#9a32cd" stroke="#9a32cd" points="1171.84,-455.189 1170.29,-444.708 1164.96,-453.867 1171.84,-455.189"/>
<text text-anchor="middle" x="1183" y="-467" font-family="FreeSans" font-size="10.00"> parent_</text>
</g>
<!-- Node13 -->
<g id="node28" class="node"><title>Node13</title>
<a xlink:href="a00303.html" target="_top" xlink:title="Root scene node, represents the whole scene.">
<polygon fill="none" stroke="red" points="1313.5,-404.5 1313.5,-425.5 1402.5,-425.5 1402.5,-404.5 1313.5,-404.5"/>
<text text-anchor="middle" x="1358" y="-412.5" font-family="FreeSans" font-size="10.00">Urho3D::Scene</text>
</a>
</g>
<!-- Node11&#45;&gt;Node13 -->
<g id="edge34" class="edge"><title>Node11&#45;&gt;Node13</title>
<path fill="none" stroke="midnightblue" d="M1234.13,-421.555C1237.46,-420.965 1240.77,-420.438 1244,-420 1266.77,-416.914 1292.31,-415.598 1313.44,-415.081"/>
<polygon fill="midnightblue" stroke="midnightblue" points="1233.31,-418.149 1224.16,-423.486 1234.64,-425.022 1233.31,-418.149"/>
</g>
<!-- Node12 -->
<g id="node26" class="node"><title>Node12</title>
<a xlink:href="a00272.html" target="_top" xlink:title="Urho3D::PODVector\&lt;\l Urho3D::Node * \&gt;">
<polygon fill="none" stroke="red" points="844.5,-324 844.5,-358 963.5,-358 963.5,-324 844.5,-324"/>
<text text-anchor="start" x="852.5" y="-345" font-family="FreeSans" font-size="10.00">Urho3D::PODVector&lt;</text>
<text text-anchor="middle" x="904" y="-332" font-family="FreeSans" font-size="10.00"> Urho3D::Node * &gt;</text>
</a>
</g>
<!-- Node12&#45;&gt;Node11 -->
<g id="edge30" class="edge"><title>Node12&#45;&gt;Node11</title>
<path fill="none" stroke="#9a32cd" stroke-dasharray="5,2" d="M973.974,-341.222C1018.42,-343.883 1076.03,-352.124 1122,-375 1144.95,-386.421 1164.88,-409.573 1175.3,-423.233"/>
<polygon fill="#9a32cd" stroke="#9a32cd" points="974.007,-337.719 963.839,-340.698 973.645,-344.71 974.007,-337.719"/>
<text text-anchor="middle" x="1073" y="-379" font-family="FreeSans" font-size="10.00"> dependencyNodes_</text>
</g>
<!-- Node13&#45;&gt;Node11 -->
<g id="edge32" class="edge"><title>Node13&#45;&gt;Node11</title>
<path fill="none" stroke="#9a32cd" stroke-dasharray="5,2" d="M1303.43,-420.925C1278.41,-423.641 1249.2,-426.813 1225.81,-429.352"/>
<polygon fill="#9a32cd" stroke="#9a32cd" points="1303.93,-424.391 1313.5,-419.832 1303.18,-417.432 1303.93,-424.391"/>
<text text-anchor="middle" x="1263" y="-432" font-family="FreeSans" font-size="10.00"> scene_</text>
</g>
<!-- Node14&#45;&gt;Node11 -->
<g id="edge58" class="edge"><title>Node14&#45;&gt;Node11</title>
<path fill="none" stroke="#9a32cd" stroke-dasharray="5,2" d="M563.115,-147.849C726.136,-121.259 1046.54,-80.6381 1122,-157 1160.59,-196.055 1178.24,-377.258 1182.14,-423.325"/>
<polygon fill="#9a32cd" stroke="#9a32cd" points="562.385,-144.422 553.086,-149.499 563.521,-151.329 562.385,-144.422"/>
<text text-anchor="middle" x="904" y="-122" font-family="FreeSans" font-size="10.00"> vars_</text>
</g>
<!-- Node14&#45;&gt;Node13 -->
<g id="edge36" class="edge"><title>Node14&#45;&gt;Node13</title>
<path fill="none" stroke="#9a32cd" stroke-dasharray="5,2" d="M509.521,-143.663C531.727,-133.61 559.693,-122.613 586,-117 819.047,-67.2766 908.565,1.9666 1122,-104 1257.68,-171.364 1336.33,-358.152 1354.12,-404.493"/>
<polygon fill="#9a32cd" stroke="#9a32cd" points="507.983,-140.518 500.378,-147.896 510.923,-146.871 507.983,-140.518"/>
<text text-anchor="middle" x="1073" y="-108" font-family="FreeSans" font-size="10.00"> smoothingData_</text>
</g>
<!-- Node23 -->
<g id="node57" class="node"><title>Node23</title>
<a xlink:href="a00107.html" target="_top" xlink:title="Connection to a remote network host.">
<polygon fill="none" stroke="red" points="847.5,-376.5 847.5,-397.5 960.5,-397.5 960.5,-376.5 847.5,-376.5"/>
<text text-anchor="middle" x="904" y="-384.5" font-family="FreeSans" font-size="10.00">Urho3D::Connection</text>
</a>
</g>
<!-- Node14&#45;&gt;Node23 -->
<g id="edge76" class="edge"><title>Node14&#45;&gt;Node23</title>
<path fill="none" stroke="#9a32cd" stroke-dasharray="5,2" d="M540.684,-185.096C611.59,-207.875 717.563,-251.451 784,-323 798.377,-338.483 785.678,-353.583 802,-367 814.685,-377.428 831.241,-382.97 847.312,-385.781"/>
<polygon fill="#9a32cd" stroke="#9a32cd" points="541.508,-181.687 530.919,-182.02 539.405,-188.363 541.508,-181.687"/>
<text text-anchor="middle" x="685" y="-327" font-family="FreeSans" font-size="10.00"> identity_</text>
</g>
<!-- Node15 -->
<g id="node34" class="node"><title>Node15</title>
<a xlink:href="a00347.html" target="_top" xlink:title="String class.">
<polygon fill="none" stroke="black" points="423,-691.5 423,-712.5 511,-712.5 511,-691.5 423,-691.5"/>
<text text-anchor="middle" x="467" y="-699.5" font-family="FreeSans" font-size="10.00">Urho3D::String</text>
</a>
</g>
<!-- Node15&#45;&gt;Node11 -->
<g id="edge60" class="edge"><title>Node15&#45;&gt;Node11</title>
<path fill="none" stroke="#9a32cd" stroke-dasharray="5,2" d="M521.282,-705.583C619.439,-710.7 832.375,-715.545 1006,-676 1060.57,-663.571 1084.32,-668.381 1122,-627 1171.92,-572.176 1180.99,-476.614 1182.64,-444.712"/>
<polygon fill="#9a32cd" stroke="#9a32cd" points="521.192,-702.073 511.017,-705.024 520.812,-709.063 521.192,-702.073"/>
<text text-anchor="middle" x="904" y="-708" font-family="FreeSans" font-size="10.00"> name_</text>
</g>
<!-- Node15&#45;&gt;Node13 -->
<g id="edge40" class="edge"><title>Node15&#45;&gt;Node13</title>
<path fill="none" stroke="#9a32cd" stroke-dasharray="5,2" d="M512.004,-715.404C575.815,-733.643 696.568,-765.342 802,-777 892.117,-786.964 915.347,-778.563 1006,-777 1057.58,-776.111 1078.04,-799.998 1122,-773 1191.83,-730.107 1243.2,-509.078 1300,-450 1309.78,-439.827 1323.14,-431.5 1334.57,-425.525"/>
<polygon fill="#9a32cd" stroke="#9a32cd" points="512.841,-712.003 502.263,-712.598 510.903,-718.73 512.841,-712.003"/>
<text text-anchor="middle" x="1073" y="-789" font-family="FreeSans" font-size="10.00"> fileName_</text>
</g>
<!-- Node15&#45;&gt;Node15 -->
<g id="edge42" class="edge"><title>Node15&#45;&gt;Node15</title>
<path fill="none" stroke="#9a32cd" stroke-dasharray="5,2" d="M444.885,-722.427C446.591,-727.349 453.963,-731 467,-731 487.859,-731 494.215,-721.653 486.067,-712.708"/>
<polygon fill="#9a32cd" stroke="#9a32cd" points="448.28,-723.297 447.933,-712.708 441.601,-721.202 448.28,-723.297"/>
<text text-anchor="middle" x="467" y="-735" font-family="FreeSans" font-size="10.00"> EMPTY</text>
</g>
<!-- Node15&#45;&gt;Node23 -->
<g id="edge78" class="edge"><title>Node15&#45;&gt;Node23</title>
<path fill="none" stroke="#9a32cd" stroke-dasharray="5,2" d="M482.367,-683.633C526.433,-632.211 659.257,-485.76 802,-412 816.011,-404.76 832.199,-399.558 847.493,-395.844"/>
<polygon fill="#9a32cd" stroke="#9a32cd" points="479.653,-681.422 475.846,-691.309 484.988,-685.954 479.653,-681.422"/>
<text text-anchor="middle" x="685" y="-572" font-family="FreeSans" font-size="10.00"> sceneFileName_</text>
</g>
<!-- Node16 -->
<g id="node37" class="node"><title>Node16</title>
<a xlink:href="a00277.html" target="_top" xlink:title="Rotation represented as a four&#45;dimensional normalized vector.">
<polygon fill="none" stroke="black" points="847.5,-204.5 847.5,-225.5 960.5,-225.5 960.5,-204.5 847.5,-204.5"/>
<text text-anchor="middle" x="904" y="-212.5" font-family="FreeSans" font-size="10.00">Urho3D::Quaternion</text>
</a>
</g>
<!-- Node16&#45;&gt;Node11 -->
<g id="edge44" class="edge"><title>Node16&#45;&gt;Node11</title>
<path fill="none" stroke="#9a32cd" stroke-dasharray="5,2" d="M970.951,-209.761C1018.4,-209.712 1080.71,-217.573 1122,-253 1149.05,-276.213 1173.69,-388.102 1180.89,-423.345"/>
<polygon fill="#9a32cd" stroke="#9a32cd" points="970.715,-206.263 960.761,-209.891 970.805,-213.263 970.715,-206.263"/>
<text text-anchor="middle" x="1073" y="-270" font-family="FreeSans" font-size="10.00"> worldRotation_</text>
<text text-anchor="middle" x="1073" y="-257" font-family="FreeSans" font-size="10.00">rotation_</text>
</g>
<!-- Node16&#45;&gt;Node16 -->
<g id="edge46" class="edge"><title>Node16&#45;&gt;Node16</title>
<path fill="none" stroke="#9a32cd" stroke-dasharray="5,2" d="M872.741,-234.679C874.416,-239.975 884.835,-244 904,-244 933.203,-244 942.101,-234.653 930.693,-225.708"/>
<polygon fill="#9a32cd" stroke="#9a32cd" points="875.89,-236.208 877.307,-225.708 869.651,-233.032 875.89,-236.208"/>
<text text-anchor="middle" x="904" y="-248" font-family="FreeSans" font-size="10.00"> IDENTITY</text>
</g>
<!-- Node17 -->
<g id="node40" class="node"><title>Node17</title>
<a xlink:href="a00382.html" target="_top" xlink:title="Urho3D::Vector\&lt; Urho3D\l::WeakPtr\&lt; Urho3D::Component \&gt; \&gt;">
<polygon fill="none" stroke="red" points="807,-152 807,-186 1001,-186 1001,-152 807,-152"/>
<text text-anchor="start" x="815" y="-173" font-family="FreeSans" font-size="10.00">Urho3D::Vector&lt; Urho3D</text>
<text text-anchor="middle" x="904" y="-160" font-family="FreeSans" font-size="10.00">::WeakPtr&lt; Urho3D::Component &gt; &gt;</text>
</a>
</g>
<!-- Node17&#45;&gt;Node11 -->
<g id="edge48" class="edge"><title>Node17&#45;&gt;Node11</title>
<path fill="none" stroke="#9a32cd" stroke-dasharray="5,2" d="M1011.62,-159.101C1050.54,-161.153 1092.2,-170.686 1122,-197 1157.11,-228.003 1176.99,-381.426 1181.83,-423.38"/>
<polygon fill="#9a32cd" stroke="#9a32cd" points="1011.38,-155.59 1001.26,-158.723 1011.13,-162.585 1011.38,-155.59"/>
<text text-anchor="middle" x="1073" y="-201" font-family="FreeSans" font-size="10.00"> listeners_</text>
</g>
<!-- Node18 -->
<g id="node42" class="node"><title>Node18</title>
<a xlink:href="a00387.html" target="_top" xlink:title="Dynamically sized buffer that can be read and written to as a stream.">
<polygon fill="none" stroke="red" points="407.5,-309.5 407.5,-330.5 526.5,-330.5 526.5,-309.5 407.5,-309.5"/>
<text text-anchor="middle" x="467" y="-317.5" font-family="FreeSans" font-size="10.00">Urho3D::VectorBuffer</text>
</a>
</g>
<!-- Node18&#45;&gt;Node11 -->
<g id="edge50" class="edge"><title>Node18&#45;&gt;Node11</title>
<path fill="none" stroke="#9a32cd" stroke-dasharray="5,2" d="M536.546,-308.769C639.818,-294.094 839.442,-273.431 1006,-302 1059.89,-311.244 1078.8,-309.474 1122,-343 1150.55,-365.157 1170.32,-404.551 1178.62,-423.391"/>
<polygon fill="#9a32cd" stroke="#9a32cd" points="535.951,-305.319 526.555,-310.213 536.953,-312.247 535.951,-305.319"/>
<text text-anchor="middle" x="904" y="-306" font-family="FreeSans" font-size="10.00"> attrBuffer_</text>
</g>
<!-- Node18&#45;&gt;Node23 -->
<g id="edge72" class="edge"><title>Node18&#45;&gt;Node23</title>
<path fill="none" stroke="#9a32cd" stroke-dasharray="5,2" d="M536.793,-330.701C622.916,-343.905 767.693,-366.102 847.3,-378.307"/>
<polygon fill="#9a32cd" stroke="#9a32cd" points="537.262,-327.232 526.847,-329.176 536.201,-334.151 537.262,-327.232"/>
<text text-anchor="middle" x="685" y="-372" font-family="FreeSans" font-size="10.00"> msg_</text>
</g>
<!-- Node19 -->
<g id="node44" class="node"><title>Node19</title>
<a xlink:href="a00382.html" target="_top" xlink:title="Urho3D::Vector\&lt; Urho3D\l::SharedPtr\&lt; Urho3D::Component \&gt; \&gt;">
<polygon fill="none" stroke="red" points="802.5,-734 802.5,-768 1005.5,-768 1005.5,-734 802.5,-734"/>
<text text-anchor="start" x="810.5" y="-755" font-family="FreeSans" font-size="10.00">Urho3D::Vector&lt; Urho3D</text>
<text text-anchor="middle" x="904" y="-742" font-family="FreeSans" font-size="10.00">::SharedPtr&lt; Urho3D::Component &gt; &gt;</text>
</a>
</g>
<!-- Node19&#45;&gt;Node11 -->
<g id="edge52" class="edge"><title>Node19&#45;&gt;Node11</title>
<path fill="none" stroke="#9a32cd" stroke-dasharray="5,2" d="M1015.8,-757.929C1053.84,-754.496 1093.81,-743.612 1122,-717 1162.84,-678.444 1178.86,-491.505 1182.27,-444.661"/>
<polygon fill="#9a32cd" stroke="#9a32cd" points="1015.38,-754.451 1005.67,-758.677 1015.9,-761.432 1015.38,-754.451"/>
<text text-anchor="middle" x="1073" y="-760" font-family="FreeSans" font-size="10.00"> components_</text>
</g>
<!-- Node20 -->
<g id="node46" class="node"><title>Node20</title>
<a xlink:href="a00384.html" target="_top" xlink:title="Three&#45;dimensional vector.">
<polygon fill="none" stroke="black" points="419,-400.5 419,-421.5 515,-421.5 515,-400.5 419,-400.5"/>
<text text-anchor="middle" x="467" y="-408.5" font-family="FreeSans" font-size="10.00">Urho3D::Vector3</text>
</a>
</g>
<!-- Node20&#45;&gt;Node11 -->
<g id="edge54" class="edge"><title>Node20&#45;&gt;Node11</title>
<path fill="none" stroke="#9a32cd" stroke-dasharray="5,2" d="M525.198,-416.01C544.531,-417.512 566.179,-419.019 586,-420 793.613,-430.278 1042.22,-433.044 1140.26,-433.761"/>
<polygon fill="#9a32cd" stroke="#9a32cd" points="525.267,-412.505 515.022,-415.204 524.715,-419.483 525.267,-412.505"/>
<text text-anchor="middle" x="904" y="-449" font-family="FreeSans" font-size="10.00"> scale_</text>
<text text-anchor="middle" x="904" y="-436" font-family="FreeSans" font-size="10.00">position_</text>
</g>
<!-- Node20&#45;&gt;Node20 -->
<g id="edge56" class="edge"><title>Node20&#45;&gt;Node20</title>
<path fill="none" stroke="#9a32cd" stroke-dasharray="5,2" d="M444.885,-431.427C446.591,-436.349 453.963,-440 467,-440 487.859,-440 494.215,-430.653 486.067,-421.708"/>
<polygon fill="#9a32cd" stroke="#9a32cd" points="448.28,-432.297 447.933,-421.708 441.601,-430.202 448.28,-432.297"/>
<text text-anchor="middle" x="467" y="-535" font-family="FreeSans" font-size="10.00"> ONE</text>
<text text-anchor="middle" x="467" y="-522" font-family="FreeSans" font-size="10.00">DOWN</text>
<text text-anchor="middle" x="467" y="-509" font-family="FreeSans" font-size="10.00">BACK</text>
<text text-anchor="middle" x="467" y="-496" font-family="FreeSans" font-size="10.00">RIGHT</text>
<text text-anchor="middle" x="467" y="-483" font-family="FreeSans" font-size="10.00">LEFT</text>
<text text-anchor="middle" x="467" y="-470" font-family="FreeSans" font-size="10.00">ZERO</text>
<text text-anchor="middle" x="467" y="-457" font-family="FreeSans" font-size="10.00">FORWARD</text>
<text text-anchor="middle" x="467" y="-444" font-family="FreeSans" font-size="10.00">UP</text>
</g>
<!-- Node20&#45;&gt;Node23 -->
<g id="edge74" class="edge"><title>Node20&#45;&gt;Node23</title>
<path fill="none" stroke="#9a32cd" stroke-dasharray="5,2" d="M525.166,-407.806C609.305,-403.185 763.991,-394.689 847.301,-390.114"/>
<polygon fill="#9a32cd" stroke="#9a32cd" points="524.81,-404.32 515.017,-408.363 525.194,-411.309 524.81,-404.32"/>
<text text-anchor="middle" x="685" y="-408" font-family="FreeSans" font-size="10.00"> position_</text>
</g>
<!-- Node21 -->
<g id="node52" class="node"><title>Node21</title>
<a xlink:href="a00348.html" target="_top" xlink:title="32&#45;bit hash value for a string.">
<polygon fill="none" stroke="black" points="847.5,-614.5 847.5,-635.5 960.5,-635.5 960.5,-614.5 847.5,-614.5"/>
<text text-anchor="middle" x="904" y="-622.5" font-family="FreeSans" font-size="10.00">Urho3D::StringHash</text>
</a>
</g>
<!-- Node21&#45;&gt;Node11 -->
<g id="edge64" class="edge"><title>Node21&#45;&gt;Node11</title>
<path fill="none" stroke="#9a32cd" stroke-dasharray="5,2" d="M971.016,-621.051C1018.49,-614.915 1080.82,-599.639 1122,-562 1158.52,-528.617 1175.3,-468.748 1180.82,-444.563"/>
<polygon fill="#9a32cd" stroke="#9a32cd" points="970.338,-617.606 960.819,-622.259 971.161,-624.558 970.338,-617.606"/>
<text text-anchor="middle" x="1073" y="-614" font-family="FreeSans" font-size="10.00"> nameHash_</text>
</g>
<!-- Node21&#45;&gt;Node21 -->
<g id="edge66" class="edge"><title>Node21&#45;&gt;Node21</title>
<path fill="none" stroke="#9a32cd" stroke-dasharray="5,2" d="M872.741,-644.679C874.416,-649.975 884.835,-654 904,-654 933.203,-654 942.101,-644.653 930.693,-635.708"/>
<polygon fill="#9a32cd" stroke="#9a32cd" points="875.89,-646.208 877.307,-635.708 869.651,-643.032 875.89,-646.208"/>
<text text-anchor="middle" x="904" y="-658" font-family="FreeSans" font-size="10.00"> ZERO</text>
</g>
<!-- Node22 -->
<g id="node55" class="node"><title>Node22</title>
<a xlink:href="a00382.html" target="_top" xlink:title="Urho3D::Vector\&lt; Urho3D\l::SharedPtr\&lt; Urho3D::Node \&gt; \&gt;">
<polygon fill="none" stroke="red" points="817.5,-562 817.5,-596 990.5,-596 990.5,-562 817.5,-562"/>
<text text-anchor="start" x="825.5" y="-583" font-family="FreeSans" font-size="10.00">Urho3D::Vector&lt; Urho3D</text>
<text text-anchor="middle" x="904" y="-570" font-family="FreeSans" font-size="10.00">::SharedPtr&lt; Urho3D::Node &gt; &gt;</text>
</a>
</g>
<!-- Node22&#45;&gt;Node11 -->
<g id="edge68" class="edge"><title>Node22&#45;&gt;Node11</title>
<path fill="none" stroke="#9a32cd" stroke-dasharray="5,2" d="M990.637,-558.82C995.889,-557.011 1001.05,-555.072 1006,-553 1061.55,-529.758 1072.64,-517.488 1122,-483 1139.59,-470.708 1158.71,-454.923 1170.76,-444.64"/>
<polygon fill="#9a32cd" stroke="#9a32cd" points="989.522,-555.502 981.105,-561.936 991.697,-562.155 989.522,-555.502"/>
<text text-anchor="middle" x="1073" y="-549" font-family="FreeSans" font-size="10.00"> children_</text>
</g>
<!-- Node23&#45;&gt;Node11 -->
<g id="edge70" class="edge"><title>Node23&#45;&gt;Node11</title>
<path fill="none" stroke="#9a32cd" stroke-dasharray="5,2" d="M971.074,-387.548C1014.69,-389.268 1072.45,-394.131 1122,-407 1136.46,-410.755 1151.84,-417.582 1163.53,-423.431"/>
<polygon fill="#9a32cd" stroke="#9a32cd" points="970.985,-384.043 960.869,-387.192 970.741,-391.039 970.985,-384.043"/>
<text text-anchor="middle" x="1073" y="-411" font-family="FreeSans" font-size="10.00"> owner_</text>
</g>
<!-- Node24 -->
<g id="node63" class="node"><title>Node24</title>
<a xlink:href="a00221.html" target="_top" xlink:title="3x4 matrix for scene node transform calculations.">
<polygon fill="none" stroke="black" points="851,-478.5 851,-499.5 957,-499.5 957,-478.5 851,-478.5"/>
<text text-anchor="middle" x="904" y="-486.5" font-family="FreeSans" font-size="10.00">Urho3D::Matrix3x4</text>
</a>
</g>
<!-- Node24&#45;&gt;Node11 -->
<g id="edge80" class="edge"><title>Node24&#45;&gt;Node11</title>
<path fill="none" stroke="#9a32cd" stroke-dasharray="5,2" d="M967.313,-477.778C1010.89,-469.886 1070.06,-458.839 1122,-448 1127.96,-446.757 1134.23,-445.388 1140.39,-444.007"/>
<polygon fill="#9a32cd" stroke="#9a32cd" points="966.643,-474.343 957.424,-479.563 967.886,-481.231 966.643,-474.343"/>
<text text-anchor="middle" x="1073" y="-470" font-family="FreeSans" font-size="10.00"> worldTransform_</text>
</g>
<!-- Node24&#45;&gt;Node24 -->
<g id="edge82" class="edge"><title>Node24&#45;&gt;Node24</title>
<path fill="none" stroke="#9a32cd" stroke-dasharray="5,2" d="M872.741,-508.679C874.416,-513.975 884.835,-518 904,-518 933.203,-518 942.101,-508.653 930.693,-499.708"/>
<polygon fill="#9a32cd" stroke="#9a32cd" points="875.89,-510.208 877.307,-499.708 869.651,-507.032 875.89,-510.208"/>
<text text-anchor="middle" x="904" y="-535" font-family="FreeSans" font-size="10.00"> IDENTITY</text>
<text text-anchor="middle" x="904" y="-522" font-family="FreeSans" font-size="10.00">ZERO</text>
</g>
<!-- Node25&#45;&gt;Node1 -->
<g id="edge84" class="edge"><title>Node25&#45;&gt;Node1</title>
<path fill="none" stroke="#9a32cd" stroke-dasharray="5,2" d="M794.165,-30.863C871.913,-31.4042 978.877,-32 1073,-32 1073,-32 1073,-32 1358,-32 1431.22,-32 1495.7,-107.918 1517.31,-136.387"/>
<polygon fill="#9a32cd" stroke="#9a32cd" points="793.898,-27.3611 783.873,-30.7905 793.848,-34.3609 793.898,-27.3611"/>
<text text-anchor="middle" x="1183" y="-36" font-family="FreeSans" font-size="10.00"> materials_</text>
</g>
</g>
</svg>
