<?xml version="1.0" encoding="UTF-8" standalone="no"?>
<!DOCTYPE svg PUBLIC "-//W3C//DTD SVG 1.1//EN"
 "http://www.w3.org/Graphics/SVG/1.1/DTD/svg11.dtd">
<!-- Generated by graphviz version 2.26.3 (20100126.1600)
 -->
<!-- Title: Urho3D::ConstraintPrismatic2D Pages: 1 -->
<svg width="174pt" height="378pt"
 viewBox="0.00 0.00 174.00 378.00" xmlns="http://www.w3.org/2000/svg" xmlns:xlink="http://www.w3.org/1999/xlink">
<g id="graph1" class="graph" transform="scale(1 1) rotate(0) translate(4 374)">
<title>Urho3D::ConstraintPrismatic2D</title>
<!-- Node1 -->
<g id="node1" class="node"><title>Node1</title>
<polygon fill="#bfbfbf" stroke="black" points="-0.5,-0.5 -0.5,-21.5 166.5,-21.5 166.5,-0.5 -0.5,-0.5"/>
<text text-anchor="middle" x="83" y="-8.5" font-family="FreeSans" font-size="10.00">Urho3D::ConstraintPrismatic2D</text>
</g>
<!-- Node2 -->
<g id="node2" class="node"><title>Node2</title>
<a xlink:href="class_urho3_d_1_1_constraint2_d.html" target="_top" xlink:title="2D physics constraint component.">
<polygon fill="none" stroke="black" points="22,-58.5 22,-79.5 144,-79.5 144,-58.5 22,-58.5"/>
<text text-anchor="middle" x="83" y="-66.5" font-family="FreeSans" font-size="10.00">Urho3D::Constraint2D</text>
</a>
</g>
<!-- Node2&#45;&gt;Node1 -->
<g id="edge2" class="edge"><title>Node2&#45;&gt;Node1</title>
<path fill="none" stroke="midnightblue" d="M83,-48.1906C83,-39.1684 83,-28.9941 83,-21.5707"/>
<polygon fill="midnightblue" stroke="midnightblue" points="79.5001,-48.3619 83,-58.3619 86.5001,-48.3619 79.5001,-48.3619"/>
</g>
<!-- Node3 -->
<g id="node4" class="node"><title>Node3</title>
<a xlink:href="class_urho3_d_1_1_component.html" target="_top" xlink:title="Base class for components. Components can be created to scene nodes.">
<polygon fill="none" stroke="black" points="25,-116.5 25,-137.5 141,-137.5 141,-116.5 25,-116.5"/>
<text text-anchor="middle" x="83" y="-124.5" font-family="FreeSans" font-size="10.00">Urho3D::Component</text>
</a>
</g>
<!-- Node3&#45;&gt;Node2 -->
<g id="edge4" class="edge"><title>Node3&#45;&gt;Node2</title>
<path fill="none" stroke="midnightblue" d="M83,-106.191C83,-97.1684 83,-86.9941 83,-79.5707"/>
<polygon fill="midnightblue" stroke="midnightblue" points="79.5001,-106.362 83,-116.362 86.5001,-106.362 79.5001,-106.362"/>
</g>
<!-- Node4 -->
<g id="node6" class="node"><title>Node4</title>
<a xlink:href="class_urho3_d_1_1_animatable.html" target="_top" xlink:title="Base class for animatable object, an animatable object can be set animation on it&#39;s attributes...">
<polygon fill="none" stroke="black" points="26,-174.5 26,-195.5 140,-195.5 140,-174.5 26,-174.5"/>
<text text-anchor="middle" x="83" y="-182.5" font-family="FreeSans" font-size="10.00">Urho3D::Animatable</text>
</a>
</g>
<!-- Node4&#45;&gt;Node3 -->
<g id="edge6" class="edge"><title>Node4&#45;&gt;Node3</title>
<path fill="none" stroke="midnightblue" d="M83,-164.191C83,-155.168 83,-144.994 83,-137.571"/>
<polygon fill="midnightblue" stroke="midnightblue" points="79.5001,-164.362 83,-174.362 86.5001,-164.362 79.5001,-164.362"/>
</g>
<!-- Node5 -->
<g id="node8" class="node"><title>Node5</title>
<a xlink:href="class_urho3_d_1_1_serializable.html" target="_top" xlink:title="Base class for objects with automatic serialization through attributes.">
<polygon fill="none" stroke="black" points="26,-232.5 26,-253.5 140,-253.5 140,-232.5 26,-232.5"/>
<text text-anchor="middle" x="83" y="-240.5" font-family="FreeSans" font-size="10.00">Urho3D::Serializable</text>
</a>
</g>
<!-- Node5&#45;&gt;Node4 -->
<g id="edge8" class="edge"><title>Node5&#45;&gt;Node4</title>
<path fill="none" stroke="midnightblue" d="M83,-222.191C83,-213.168 83,-202.994 83,-195.571"/>
<polygon fill="midnightblue" stroke="midnightblue" points="79.5001,-222.362 83,-232.362 86.5001,-222.362 79.5001,-222.362"/>
</g>
<!-- Node6 -->
<g id="node10" class="node"><title>Node6</title>
<a xlink:href="class_urho3_d_1_1_object.html" target="_top" xlink:title="Base class for objects with type identification, subsystem access and event sending/receiving capabil...">
<polygon fill="none" stroke="black" points="38,-290.5 38,-311.5 128,-311.5 128,-290.5 38,-290.5"/>
<text text-anchor="middle" x="83" y="-298.5" font-family="FreeSans" font-size="10.00">Urho3D::Object</text>
</a>
</g>
<!-- Node6&#45;&gt;Node5 -->
<g id="edge10" class="edge"><title>Node6&#45;&gt;Node5</title>
<path fill="none" stroke="midnightblue" d="M83,-280.191C83,-271.168 83,-260.994 83,-253.571"/>
<polygon fill="midnightblue" stroke="midnightblue" points="79.5001,-280.362 83,-290.362 86.5001,-280.362 79.5001,-280.362"/>
</g>
<!-- Node7 -->
<g id="node12" class="node"><title>Node7</title>
<a xlink:href="class_urho3_d_1_1_ref_counted.html" target="_top" xlink:title="Base class for intrusively reference&#45;counted objects. These are noncopyable and non&#45;assignable.">
<polygon fill="none" stroke="black" points="26,-348.5 26,-369.5 140,-369.5 140,-348.5 26,-348.5"/>
<text text-anchor="middle" x="83" y="-356.5" font-family="FreeSans" font-size="10.00">Urho3D::RefCounted</text>
</a>
</g>
<!-- Node7&#45;&gt;Node6 -->
<g id="edge12" class="edge"><title>Node7&#45;&gt;Node6</title>
<path fill="none" stroke="midnightblue" d="M83,-338.191C83,-329.168 83,-318.994 83,-311.571"/>
<polygon fill="midnightblue" stroke="midnightblue" points="79.5001,-338.362 83,-348.362 86.5001,-338.362 79.5001,-338.362"/>
</g>
</g>
</svg>
