<?xml version="1.0" encoding="UTF-8" standalone="no"?>
<!DOCTYPE svg PUBLIC "-//W3C//DTD SVG 1.1//EN"
 "http://www.w3.org/Graphics/SVG/1.1/DTD/svg11.dtd">
<!-- Generated by graphviz version 2.26.3 (20100126.1600)
 -->
<!-- Title: Urho3D::PackageUpload Pages: 1 -->
<!--zoomable 943 -->
<svg id="main" version="1.1" xmlns="http://www.w3.org/2000/svg" xmlns:xlink="http://www.w3.org/1999/xlink" xml:space="preserve" onload="init(evt)">
        <defs>
                <circle id="rim" cx="0" cy="0" r="7"/>
                <circle id="rim2" cx="0" cy="0" r="3.5"/>
                <g id="zoomPlus">
                        <use xlink:href="#rim" fill="#404040">
                                <set attributeName="fill" to="#808080" begin="zoomplus.mouseover" end="zoomplus.mouseout"/>
                        </use>
                        <path d="M-4,0h8M0,-4v8" fill="none" stroke="white" stroke-width="1.5" pointer-events="none"/>
                </g>
                <g id="zoomMin">
                        <use xlink:href="#rim" fill="#404040">
                                <set attributeName="fill" to="#808080" begin="zoomminus.mouseover" end="zoomminus.mouseout"/>
                        </use>
                        <path d="M-4,0h8" fill="none" stroke="white" stroke-width="1.5" pointer-events="none"/>
                </g>
                <g id="dirArrow">
                        <path fill="none" stroke="white" stroke-width="1.5" d="M0,-3.0v7 M-2.5,-0.5L0,-3.0L2.5,-0.5"/>
                </g>
               <g id="resetDef">
                       <use xlink:href="#rim2" fill="#404040">
                               <set attributeName="fill" to="#808080" begin="reset.mouseover" end="reset.mouseout"/>
                       </use>
               </g>
        </defs>

<script type="text/javascript">
var viewWidth = 1402;
var viewHeight = 943;
var sectionId = 'dynsection-0';
</script>
<script xlink:href="svgpan.js"/>
<svg id="graph" class="graph">
<g id="viewport">
<title>Urho3D::PackageUpload</title>
<!-- Node1 -->
<g id="node1" class="node"><title>Node1</title>
<polygon fill="#bfbfbf" stroke="black" points="1260.5,-80.5 1260.5,-101.5 1393.5,-101.5 1393.5,-80.5 1260.5,-80.5"/>
<text text-anchor="middle" x="1327" y="-88.5" font-family="FreeSans" font-size="10.00">Urho3D::PackageUpload</text>
</g>
<!-- Node2 -->
<g id="node2" class="node"><title>Node2</title>
<a xlink:href="class_urho3_d_1_1_shared_ptr.html" target="_top" xlink:title="Urho3D::SharedPtr\&lt;\l Urho3D::File \&gt;">
<polygon fill="none" stroke="black" points="1071,-74 1071,-108 1187,-108 1187,-74 1071,-74"/>
<text text-anchor="start" x="1079" y="-95" font-family="FreeSans" font-size="10.00">Urho3D::SharedPtr&lt;</text>
<text text-anchor="middle" x="1129" y="-82" font-family="FreeSans" font-size="10.00"> Urho3D::File &gt;</text>
</a>
</g>
<!-- Node2&#45;&gt;Node1 -->
<g id="edge2" class="edge"><title>Node2&#45;&gt;Node1</title>
<path fill="none" stroke="#9a32cd" stroke-dasharray="5,2" d="M1197.22,-91C1217.61,-91 1239.93,-91 1260.22,-91"/>
<polygon fill="#9a32cd" stroke="#9a32cd" points="1197.07,-87.5001 1187.07,-91 1197.07,-94.5001 1197.07,-87.5001"/>
<text text-anchor="middle" x="1231" y="-95" font-family="FreeSans" font-size="10.00"> file_</text>
</g>
<!-- Node3 -->
<g id="node4" class="node"><title>Node3</title>
<a xlink:href="class_urho3_d_1_1_file.html" target="_top" xlink:title="File opened either through the filesystem or from within a package file.">
<polygon fill="none" stroke="black" points="764,-80.5 764,-101.5 838,-101.5 838,-80.5 764,-80.5"/>
<text text-anchor="middle" x="801" y="-88.5" font-family="FreeSans" font-size="10.00">Urho3D::File</text>
</a>
</g>
<!-- Node3&#45;&gt;Node2 -->
<g id="edge4" class="edge"><title>Node3&#45;&gt;Node2</title>
<path fill="none" stroke="#9a32cd" stroke-dasharray="5,2" d="M848.431,-91C907.218,-91 1007.37,-91 1070.76,-91"/>
<polygon fill="#9a32cd" stroke="#9a32cd" points="848.306,-87.5001 838.306,-91 848.306,-94.5001 848.306,-87.5001"/>
<text text-anchor="middle" x="980" y="-95" font-family="FreeSans" font-size="10.00"> ptr_</text>
</g>
<!-- Node4 -->
<g id="node6" class="node"><title>Node4</title>
<a xlink:href="class_urho3_d_1_1_object.html" target="_top" xlink:title="Base class for objects with type identification, subsystem access and event sending/receiving capabil...">
<polygon fill="none" stroke="black" points="493,-235.5 493,-256.5 583,-256.5 583,-235.5 493,-235.5"/>
<text text-anchor="middle" x="538" y="-243.5" font-family="FreeSans" font-size="10.00">Urho3D::Object</text>
</a>
</g>
<!-- Node4&#45;&gt;Node3 -->
<g id="edge6" class="edge"><title>Node4&#45;&gt;Node3</title>
<path fill="none" stroke="midnightblue" d="M570.631,-231.248C609.348,-213.68 669.946,-185.954 680,-180 721.736,-155.286 766.699,-119.502 788.168,-101.781"/>
<polygon fill="midnightblue" stroke="midnightblue" points="568.966,-228.159 561.304,-235.476 571.857,-234.535 568.966,-228.159"/>
</g>
<!-- Node10 -->
<g id="node19" class="node"><title>Node10</title>
<a xlink:href="class_urho3_d_1_1_event_handler.html" target="_top" xlink:title="Internal helper class for invoking event handler functions.">
<polygon fill="none" stroke="black" points="739,-299.5 739,-320.5 863,-320.5 863,-299.5 739,-299.5"/>
<text text-anchor="middle" x="801" y="-307.5" font-family="FreeSans" font-size="10.00">Urho3D::EventHandler</text>
</a>
</g>
<!-- Node4&#45;&gt;Node10 -->
<g id="edge26" class="edge"><title>Node4&#45;&gt;Node10</title>
<path fill="none" stroke="#9a32cd" stroke-dasharray="5,2" d="M570.648,-260.611C585.986,-267.01 604.672,-274.15 622,-279 660.117,-289.669 703.88,-297.327 738.593,-302.363"/>
<polygon fill="#9a32cd" stroke="#9a32cd" points="571.671,-257.243 561.099,-256.545 568.928,-263.683 571.671,-257.243"/>
<text text-anchor="middle" x="651" y="-308" font-family="FreeSans" font-size="10.00"> sender_</text>
<text text-anchor="middle" x="651" y="-295" font-family="FreeSans" font-size="10.00">receiver_</text>
</g>
<!-- Node5 -->
<g id="node8" class="node"><title>Node5</title>
<a xlink:href="class_urho3_d_1_1_ref_counted.html" target="_top" xlink:title="Base class for intrusively reference&#45;counted objects. These are noncopyable and non&#45;assignable.">
<polygon fill="none" stroke="black" points="188,-235.5 188,-256.5 302,-256.5 302,-235.5 188,-235.5"/>
<text text-anchor="middle" x="245" y="-243.5" font-family="FreeSans" font-size="10.00">Urho3D::RefCounted</text>
</a>
</g>
<!-- Node5&#45;&gt;Node4 -->
<g id="edge8" class="edge"><title>Node5&#45;&gt;Node4</title>
<path fill="none" stroke="midnightblue" d="M312.272,-246C367.681,-246 444.716,-246 492.942,-246"/>
<polygon fill="midnightblue" stroke="midnightblue" points="312.189,-242.5 302.189,-246 312.189,-249.5 312.189,-242.5"/>
</g>
<!-- Node7 -->
<g id="node12" class="node"><title>Node7</title>
<a xlink:href="class_urho3_d_1_1_context.html" target="_top" xlink:title="Urho3D execution context. Provides access to subsystems, object factories and attributes, and event receivers.">
<polygon fill="none" stroke="black" points="1080.5,-562.5 1080.5,-583.5 1177.5,-583.5 1177.5,-562.5 1080.5,-562.5"/>
<text text-anchor="middle" x="1129" y="-570.5" font-family="FreeSans" font-size="10.00">Urho3D::Context</text>
</a>
</g>
<!-- Node5&#45;&gt;Node7 -->
<g id="edge14" class="edge"><title>Node5&#45;&gt;Node7</title>
<path fill="none" stroke="midnightblue" d="M246.377,-266.677C253.111,-349.915 290.119,-662.912 472,-807 669.302,-963.305 840.566,-983.137 1038,-827 1078.78,-794.748 1117.27,-627.421 1126.77,-583.544"/>
<polygon fill="midnightblue" stroke="midnightblue" points="249.866,-266.404 245.629,-256.694 242.886,-266.927 249.866,-266.404"/>
</g>
<!-- Node6 -->
<g id="node10" class="node"><title>Node6</title>
<a xlink:href="struct_urho3_d_1_1_ref_count.html" target="_top" xlink:title="Reference count structure.">
<polygon fill="none" stroke="black" points="0,-208.5 0,-229.5 102,-229.5 102,-208.5 0,-208.5"/>
<text text-anchor="middle" x="51" y="-216.5" font-family="FreeSans" font-size="10.00">Urho3D::RefCount</text>
</a>
</g>
<!-- Node6&#45;&gt;Node5 -->
<g id="edge10" class="edge"><title>Node6&#45;&gt;Node5</title>
<path fill="none" stroke="#9a32cd" stroke-dasharray="5,2" d="M112.327,-227.535C136.436,-230.891 163.96,-234.721 187.666,-238.021"/>
<polygon fill="#9a32cd" stroke="#9a32cd" points="112.612,-224.041 102.225,-226.129 111.647,-230.974 112.612,-224.041"/>
<text text-anchor="middle" x="145" y="-238" font-family="FreeSans" font-size="10.00"> refCount_</text>
</g>
<!-- Node24 -->
<g id="node57" class="node"><title>Node24</title>
<a xlink:href="class_urho3_d_1_1_shared_array_ptr.html" target="_top" xlink:title="Urho3D::SharedArrayPtr\l\&lt; unsigned char \&gt;">
<polygon fill="none" stroke="black" points="320.5,-162 320.5,-196 453.5,-196 453.5,-162 320.5,-162"/>
<text text-anchor="start" x="328.5" y="-183" font-family="FreeSans" font-size="10.00">Urho3D::SharedArrayPtr</text>
<text text-anchor="middle" x="387" y="-170" font-family="FreeSans" font-size="10.00">&lt; unsigned char &gt;</text>
</a>
</g>
<!-- Node6&#45;&gt;Node24 -->
<g id="edge70" class="edge"><title>Node6&#45;&gt;Node24</title>
<path fill="none" stroke="#9a32cd" stroke-dasharray="5,2" d="M112.299,-211.703C171.161,-204.695 259.838,-194.138 320.41,-186.927"/>
<polygon fill="#9a32cd" stroke="#9a32cd" points="111.547,-208.267 102.031,-212.925 112.375,-215.218 111.547,-208.267"/>
<text text-anchor="middle" x="145" y="-214" font-family="FreeSans" font-size="10.00"> refCount_</text>
</g>
<!-- Node7&#45;&gt;Node4 -->
<g id="edge12" class="edge"><title>Node7&#45;&gt;Node4</title>
<path fill="none" stroke="#9a32cd" stroke-dasharray="5,2" d="M1125.59,-552.292C1115.17,-491.668 1081.75,-316.649 1038,-282 1020.3,-267.986 702.802,-253.038 583.133,-247.878"/>
<polygon fill="#9a32cd" stroke="#9a32cd" points="1122.15,-552.943 1127.27,-562.221 1129.06,-551.778 1122.15,-552.943"/>
<text text-anchor="middle" x="801" y="-268" font-family="FreeSans" font-size="10.00"> context_</text>
</g>
<!-- Node8 -->
<g id="node15" class="node"><title>Node8</title>
<a xlink:href="class_urho3_d_1_1_p_o_d_vector.html" target="_top" xlink:title="Urho3D::PODVector\&lt;\l Urho3D::Object * \&gt;">
<polygon fill="none" stroke="black" points="741.5,-747 741.5,-781 860.5,-781 860.5,-747 741.5,-747"/>
<text text-anchor="start" x="749.5" y="-768" font-family="FreeSans" font-size="10.00">Urho3D::PODVector&lt;</text>
<text text-anchor="middle" x="801" y="-755" font-family="FreeSans" font-size="10.00"> Urho3D::Object * &gt;</text>
</a>
</g>
<!-- Node8&#45;&gt;Node7 -->
<g id="edge16" class="edge"><title>Node8&#45;&gt;Node7</title>
<path fill="none" stroke="#9a32cd" stroke-dasharray="5,2" d="M870.715,-757.229C921.015,-749.501 988.501,-733.025 1038,-698 1082.04,-666.835 1113.02,-607.55 1124.3,-583.514"/>
<polygon fill="#9a32cd" stroke="#9a32cd" points="869.967,-753.801 860.575,-758.705 870.975,-760.728 869.967,-753.801"/>
<text text-anchor="middle" x="980" y="-751" font-family="FreeSans" font-size="10.00"> eventSenders_</text>
</g>
<!-- Node9 -->
<g id="node17" class="node"><title>Node9</title>
<a xlink:href="class_urho3_d_1_1_vector_base.html" target="_top" xlink:title="Vector base class.">
<polygon fill="none" stroke="black" points="481,-776.5 481,-797.5 595,-797.5 595,-776.5 481,-776.5"/>
<text text-anchor="middle" x="538" y="-784.5" font-family="FreeSans" font-size="10.00">Urho3D::VectorBase</text>
</a>
</g>
<!-- Node9&#45;&gt;Node8 -->
<g id="edge18" class="edge"><title>Node9&#45;&gt;Node8</title>
<path fill="none" stroke="midnightblue" d="M605.205,-781.123C647.203,-777.45 700.807,-772.762 741.306,-769.22"/>
<polygon fill="midnightblue" stroke="midnightblue" points="604.724,-777.651 595.067,-782.009 605.334,-784.625 604.724,-777.651"/>
</g>
<!-- Node17 -->
<g id="node38" class="node"><title>Node17</title>
<a xlink:href="class_urho3_d_1_1_p_o_d_vector.html" target="_top" xlink:title="Urho3D::PODVector\&lt;\l Urho3D::HashMap * \&gt;">
<polygon fill="none" stroke="black" points="737.5,-799 737.5,-833 864.5,-833 864.5,-799 737.5,-799"/>
<text text-anchor="start" x="745.5" y="-820" font-family="FreeSans" font-size="10.00">Urho3D::PODVector&lt;</text>
<text text-anchor="middle" x="801" y="-807" font-family="FreeSans" font-size="10.00"> Urho3D::HashMap * &gt;</text>
</a>
</g>
<!-- Node9&#45;&gt;Node17 -->
<g id="edge46" class="edge"><title>Node9&#45;&gt;Node17</title>
<path fill="none" stroke="midnightblue" d="M605.136,-794.403C645.714,-798.877 697.146,-804.548 737.123,-808.956"/>
<polygon fill="midnightblue" stroke="midnightblue" points="605.39,-790.91 595.067,-793.293 604.623,-797.868 605.39,-790.91"/>
</g>
<!-- Node10&#45;&gt;Node7 -->
<g id="edge20" class="edge"><title>Node10&#45;&gt;Node7</title>
<path fill="none" stroke="#9a32cd" stroke-dasharray="5,2" d="M873.321,-313.425C924.956,-319.488 992.972,-335.348 1038,-376 1097.28,-429.522 1120.79,-529.499 1127.11,-562.285"/>
<polygon fill="#9a32cd" stroke="#9a32cd" points="873.541,-309.928 863.223,-312.338 872.791,-316.888 873.541,-309.928"/>
<text text-anchor="middle" x="980" y="-380" font-family="FreeSans" font-size="10.00"> eventHandler_</text>
</g>
<!-- Node21 -->
<g id="node50" class="node"><title>Node21</title>
<a xlink:href="class_urho3_d_1_1_linked_list.html" target="_top" xlink:title="Urho3D::LinkedList\l\&lt; Urho3D::EventHandler \&gt;">
<polygon fill="none" stroke="black" points="1056,-246 1056,-280 1202,-280 1202,-246 1056,-246"/>
<text text-anchor="start" x="1064" y="-267" font-family="FreeSans" font-size="10.00">Urho3D::LinkedList</text>
<text text-anchor="middle" x="1129" y="-254" font-family="FreeSans" font-size="10.00">&lt; Urho3D::EventHandler &gt;</text>
</a>
</g>
<!-- Node10&#45;&gt;Node21 -->
<g id="edge62" class="edge"><title>Node10&#45;&gt;Node21</title>
<path fill="none" stroke="#9a32cd" stroke-dasharray="5,2" d="M873.298,-299.64C927.467,-291.878 1001.31,-281.298 1055.71,-273.501"/>
<polygon fill="#9a32cd" stroke="#9a32cd" points="872.482,-296.221 863.08,-301.104 873.475,-303.15 872.482,-296.221"/>
<text text-anchor="middle" x="980" y="-296" font-family="FreeSans" font-size="10.00"> head_</text>
</g>
<!-- Node11 -->
<g id="node21" class="node"><title>Node11</title>
<a xlink:href="struct_urho3_d_1_1_linked_list_node.html" target="_top" xlink:title="Singly&#45;linked list node base class.">
<polygon fill="none" stroke="black" points="472,-389.5 472,-410.5 604,-410.5 604,-389.5 472,-389.5"/>
<text text-anchor="middle" x="538" y="-397.5" font-family="FreeSans" font-size="10.00">Urho3D::LinkedListNode</text>
</a>
</g>
<!-- Node11&#45;&gt;Node10 -->
<g id="edge22" class="edge"><title>Node11&#45;&gt;Node10</title>
<path fill="none" stroke="midnightblue" d="M585.393,-386.361C591.687,-384.339 598.026,-382.194 604,-380 638.567,-367.306 649.263,-367.28 680,-347 689.185,-340.94 688.211,-335.026 698,-330 710.559,-323.552 724.954,-319.175 738.921,-316.207"/>
<polygon fill="midnightblue" stroke="midnightblue" points="584.095,-383.1 575.597,-389.426 586.186,-389.78 584.095,-383.1"/>
</g>
<!-- Node11&#45;&gt;Node11 -->
<g id="edge24" class="edge"><title>Node11&#45;&gt;Node11</title>
<path fill="none" stroke="#9a32cd" stroke-dasharray="5,2" d="M517.36,-420.427C518.952,-425.349 525.832,-429 538,-429 557.469,-429 563.401,-419.653 555.796,-410.708"/>
<polygon fill="#9a32cd" stroke="#9a32cd" points="520.754,-421.288 520.204,-410.708 514.036,-419.322 520.754,-421.288"/>
<text text-anchor="middle" x="538" y="-433" font-family="FreeSans" font-size="10.00"> next_</text>
</g>
<!-- Node12 -->
<g id="node25" class="node"><title>Node12</title>
<a xlink:href="class_urho3_d_1_1_string_hash.html" target="_top" xlink:title="32&#45;bit hash value for a string.">
<polygon fill="none" stroke="black" points="481.5,-318.5 481.5,-339.5 594.5,-339.5 594.5,-318.5 481.5,-318.5"/>
<text text-anchor="middle" x="538" y="-326.5" font-family="FreeSans" font-size="10.00">Urho3D::StringHash</text>
</a>
</g>
<!-- Node12&#45;&gt;Node10 -->
<g id="edge28" class="edge"><title>Node12&#45;&gt;Node10</title>
<path fill="none" stroke="#9a32cd" stroke-dasharray="5,2" d="M605.041,-330.461C628.752,-330.467 655.591,-329.892 680,-328 700.222,-326.433 722.195,-323.53 741.799,-320.506"/>
<polygon fill="#9a32cd" stroke="#9a32cd" points="604.751,-326.96 594.738,-330.423 604.725,-333.96 604.751,-326.96"/>
<text text-anchor="middle" x="651" y="-334" font-family="FreeSans" font-size="10.00"> eventType_</text>
</g>
<!-- Node12&#45;&gt;Node12 -->
<g id="edge30" class="edge"><title>Node12&#45;&gt;Node12</title>
<path fill="none" stroke="#9a32cd" stroke-dasharray="5,2" d="M517.36,-349.427C518.952,-354.349 525.832,-358 538,-358 557.469,-358 563.401,-348.653 555.796,-339.708"/>
<polygon fill="#9a32cd" stroke="#9a32cd" points="520.754,-350.288 520.204,-339.708 514.036,-348.322 520.754,-350.288"/>
<text text-anchor="middle" x="538" y="-362" font-family="FreeSans" font-size="10.00"> ZERO</text>
</g>
<!-- Node13 -->
<g id="node28" class="node"><title>Node13</title>
<a xlink:href="class_urho3_d_1_1_hash_map.html" target="_top" xlink:title="Urho3D::HashMap\&lt; Urho3D\l::StringHash, Urho3D::\lHashSet\&lt; Urho3D::Object * \&gt; \&gt;">
<polygon fill="none" stroke="black" points="714.5,-483.5 714.5,-530.5 887.5,-530.5 887.5,-483.5 714.5,-483.5"/>
<text text-anchor="start" x="722.5" y="-517.5" font-family="FreeSans" font-size="10.00">Urho3D::HashMap&lt; Urho3D</text>
<text text-anchor="start" x="722.5" y="-504.5" font-family="FreeSans" font-size="10.00">::StringHash, Urho3D::</text>
<text text-anchor="middle" x="801" y="-491.5" font-family="FreeSans" font-size="10.00">HashSet&lt; Urho3D::Object * &gt; &gt;</text>
</a>
</g>
<!-- Node13&#45;&gt;Node7 -->
<g id="edge32" class="edge"><title>Node13&#45;&gt;Node7</title>
<path fill="none" stroke="#9a32cd" stroke-dasharray="5,2" d="M897.486,-526.415C957.492,-538.489 1032.11,-553.503 1080.14,-563.168"/>
<polygon fill="#9a32cd" stroke="#9a32cd" points="898.101,-522.969 887.607,-524.427 896.72,-529.831 898.101,-522.969"/>
<text text-anchor="middle" x="980" y="-557" font-family="FreeSans" font-size="10.00"> eventReceivers_</text>
</g>
<!-- Node14 -->
<g id="node30" class="node"><title>Node14</title>
<a xlink:href="class_urho3_d_1_1_hash_base.html" target="_top" xlink:title="Hash set/map base class.">
<polygon fill="none" stroke="red" points="484,-519.5 484,-540.5 592,-540.5 592,-519.5 484,-519.5"/>
<text text-anchor="middle" x="538" y="-527.5" font-family="FreeSans" font-size="10.00">Urho3D::HashBase</text>
</a>
</g>
<!-- Node14&#45;&gt;Node13 -->
<g id="edge34" class="edge"><title>Node14&#45;&gt;Node13</title>
<path fill="none" stroke="midnightblue" d="M602.359,-524.372C636.051,-521.425 677.78,-517.776 714.282,-514.584"/>
<polygon fill="midnightblue" stroke="midnightblue" points="601.832,-520.904 592.175,-525.262 602.442,-527.878 601.832,-520.904"/>
</g>
<!-- Node15 -->
<g id="node32" class="node"><title>Node15</title>
<a xlink:href="class_urho3_d_1_1_hash_map.html" target="_top" xlink:title="Urho3D::HashMap\&lt; Urho3D\l::Object *, Urho3D::HashMap\l\&lt; Urho3D::StringHash, Urho3D\l::HashSet\&lt; Urho3D::Object * \&gt; \&gt; \&gt;">
<polygon fill="none" stroke="black" points="705.5,-405 705.5,-465 896.5,-465 896.5,-405 705.5,-405"/>
<text text-anchor="start" x="713.5" y="-452" font-family="FreeSans" font-size="10.00">Urho3D::HashMap&lt; Urho3D</text>
<text text-anchor="start" x="713.5" y="-439" font-family="FreeSans" font-size="10.00">::Object *, Urho3D::HashMap</text>
<text text-anchor="start" x="713.5" y="-426" font-family="FreeSans" font-size="10.00">&lt; Urho3D::StringHash, Urho3D</text>
<text text-anchor="middle" x="801" y="-413" font-family="FreeSans" font-size="10.00">::HashSet&lt; Urho3D::Object * &gt; &gt; &gt;</text>
</a>
</g>
<!-- Node14&#45;&gt;Node15 -->
<g id="edge38" class="edge"><title>Node14&#45;&gt;Node15</title>
<path fill="none" stroke="midnightblue" d="M576.56,-516.072C613.528,-502.718 670.545,-482.122 717.859,-465.032"/>
<polygon fill="midnightblue" stroke="midnightblue" points="575.367,-512.781 567.15,-519.47 577.745,-519.365 575.367,-512.781"/>
</g>
<!-- Node16 -->
<g id="node35" class="node"><title>Node16</title>
<a xlink:href="class_urho3_d_1_1_hash_map.html" target="_top" xlink:title="Urho3D::HashMap\&lt; Urho3D\l::StringHash, Urho3D::\lSharedPtr\&lt; Urho3D::Object \&gt; \&gt;">
<polygon fill="none" stroke="black" points="715,-339.5 715,-386.5 887,-386.5 887,-339.5 715,-339.5"/>
<text text-anchor="start" x="723" y="-373.5" font-family="FreeSans" font-size="10.00">Urho3D::HashMap&lt; Urho3D</text>
<text text-anchor="start" x="723" y="-360.5" font-family="FreeSans" font-size="10.00">::StringHash, Urho3D::</text>
<text text-anchor="middle" x="801" y="-347.5" font-family="FreeSans" font-size="10.00">SharedPtr&lt; Urho3D::Object &gt; &gt;</text>
</a>
</g>
<!-- Node14&#45;&gt;Node16 -->
<g id="edge42" class="edge"><title>Node14&#45;&gt;Node16</title>
<path fill="none" stroke="midnightblue" d="M554.707,-512.095C582.101,-483.707 639.406,-428.286 698,-396 704.249,-392.556 710.913,-389.408 717.73,-386.543"/>
<polygon fill="midnightblue" stroke="midnightblue" points="552.164,-509.69 547.797,-519.343 557.231,-514.52 552.164,-509.69"/>
</g>
<!-- Node18 -->
<g id="node41" class="node"><title>Node18</title>
<a xlink:href="class_urho3_d_1_1_hash_map.html" target="_top" xlink:title="Urho3D::HashMap\&lt; Urho3D\l::StringHash, Urho3D::\lSharedPtr\&lt; Urho3D::ObjectFactory \&gt; \&gt;">
<polygon fill="none" stroke="black" points="698,-681.5 698,-728.5 904,-728.5 904,-681.5 698,-681.5"/>
<text text-anchor="start" x="706" y="-715.5" font-family="FreeSans" font-size="10.00">Urho3D::HashMap&lt; Urho3D</text>
<text text-anchor="start" x="706" y="-702.5" font-family="FreeSans" font-size="10.00">::StringHash, Urho3D::</text>
<text text-anchor="middle" x="801" y="-689.5" font-family="FreeSans" font-size="10.00">SharedPtr&lt; Urho3D::ObjectFactory &gt; &gt;</text>
</a>
</g>
<!-- Node14&#45;&gt;Node18 -->
<g id="edge50" class="edge"><title>Node14&#45;&gt;Node18</title>
<path fill="none" stroke="midnightblue" d="M553.682,-548.147C580.426,-578.035 637.83,-637.712 698,-672 704.036,-675.44 710.479,-678.575 717.085,-681.421"/>
<polygon fill="midnightblue" stroke="midnightblue" points="556.218,-545.732 546.975,-540.553 550.971,-550.366 556.218,-545.732"/>
</g>
<!-- Node19 -->
<g id="node44" class="node"><title>Node19</title>
<a xlink:href="class_urho3_d_1_1_hash_map.html" target="_top" xlink:title="Urho3D::HashMap\&lt; Urho3D\l::String, Urho3D::Vector\l\&lt; Urho3D::StringHash \&gt; \&gt;">
<polygon fill="none" stroke="black" points="725,-615.5 725,-662.5 877,-662.5 877,-615.5 725,-615.5"/>
<text text-anchor="start" x="733" y="-649.5" font-family="FreeSans" font-size="10.00">Urho3D::HashMap&lt; Urho3D</text>
<text text-anchor="start" x="733" y="-636.5" font-family="FreeSans" font-size="10.00">::String, Urho3D::Vector</text>
<text text-anchor="middle" x="801" y="-623.5" font-family="FreeSans" font-size="10.00">&lt; Urho3D::StringHash &gt; &gt;</text>
</a>
</g>
<!-- Node14&#45;&gt;Node19 -->
<g id="edge54" class="edge"><title>Node14&#45;&gt;Node19</title>
<path fill="none" stroke="midnightblue" d="M567.478,-545.464C599.189,-561.75 651.354,-587.544 698,-606 706.643,-609.42 715.794,-612.751 724.935,-615.899"/>
<polygon fill="midnightblue" stroke="midnightblue" points="568.813,-542.214 558.323,-540.733 565.6,-548.433 568.813,-542.214"/>
</g>
<!-- Node20 -->
<g id="node47" class="node"><title>Node20</title>
<a xlink:href="class_urho3_d_1_1_hash_map.html" target="_top" xlink:title="Urho3D::HashMap\&lt; Urho3D\l::StringHash, Urho3D::\lVector\&lt; Urho3D::AttributeInfo \&gt; \&gt;">
<polygon fill="none" stroke="black" points="709.5,-549.5 709.5,-596.5 892.5,-596.5 892.5,-549.5 709.5,-549.5"/>
<text text-anchor="start" x="717.5" y="-583.5" font-family="FreeSans" font-size="10.00">Urho3D::HashMap&lt; Urho3D</text>
<text text-anchor="start" x="717.5" y="-570.5" font-family="FreeSans" font-size="10.00">::StringHash, Urho3D::</text>
<text text-anchor="middle" x="801" y="-557.5" font-family="FreeSans" font-size="10.00">Vector&lt; Urho3D::AttributeInfo &gt; &gt;</text>
</a>
</g>
<!-- Node14&#45;&gt;Node20 -->
<g id="edge58" class="edge"><title>Node14&#45;&gt;Node20</title>
<path fill="none" stroke="midnightblue" d="M602.352,-540.521C634.536,-545.784 674.055,-552.245 709.346,-558.015"/>
<polygon fill="midnightblue" stroke="midnightblue" points="602.609,-537.017 592.175,-538.857 601.479,-543.925 602.609,-537.017"/>
</g>
<!-- Node15&#45;&gt;Node7 -->
<g id="edge36" class="edge"><title>Node15&#45;&gt;Node7</title>
<path fill="none" stroke="#9a32cd" stroke-dasharray="5,2" d="M906.446,-464.567C948.299,-477.843 996.301,-495.037 1038,-515 1066.73,-528.753 1097.43,-549.817 1114.82,-562.417"/>
<polygon fill="#9a32cd" stroke="#9a32cd" points="907.373,-461.19 896.784,-461.536 905.278,-467.869 907.373,-461.19"/>
<text text-anchor="middle" x="980" y="-519" font-family="FreeSans" font-size="10.00"> specificEventReceivers_</text>
</g>
<!-- Node16&#45;&gt;Node7 -->
<g id="edge40" class="edge"><title>Node16&#45;&gt;Node7</title>
<path fill="none" stroke="#9a32cd" stroke-dasharray="5,2" d="M896.718,-385.145C942.758,-399.164 996.761,-420.856 1038,-453 1078.83,-484.826 1110.94,-539.206 1123.39,-562.213"/>
<polygon fill="#9a32cd" stroke="#9a32cd" points="897.605,-381.757 887.023,-382.269 895.614,-388.468 897.605,-381.757"/>
<text text-anchor="middle" x="980" y="-457" font-family="FreeSans" font-size="10.00"> subsystems_</text>
</g>
<!-- Node17&#45;&gt;Node7 -->
<g id="edge44" class="edge"><title>Node17&#45;&gt;Node7</title>
<path fill="none" stroke="#9a32cd" stroke-dasharray="5,2" d="M874.839,-816.207C925.615,-812.722 991.936,-800.575 1038,-764 1098.98,-715.578 1121.37,-616.369 1127.26,-583.696"/>
<polygon fill="#9a32cd" stroke="#9a32cd" points="874.355,-812.729 864.577,-816.809 874.765,-819.717 874.355,-812.729"/>
<text text-anchor="middle" x="980" y="-814" font-family="FreeSans" font-size="10.00"> eventDataMaps_</text>
</g>
<!-- Node18&#45;&gt;Node7 -->
<g id="edge48" class="edge"><title>Node18&#45;&gt;Node7</title>
<path fill="none" stroke="#9a32cd" stroke-dasharray="5,2" d="M913.953,-683.713C954.3,-673.744 999.319,-659.816 1038,-641 1069.75,-625.557 1101.59,-598.465 1117.87,-583.564"/>
<polygon fill="#9a32cd" stroke="#9a32cd" points="912.973,-680.348 904.074,-686.098 914.616,-687.153 912.973,-680.348"/>
<text text-anchor="middle" x="980" y="-685" font-family="FreeSans" font-size="10.00"> factories_</text>
</g>
<!-- Node19&#45;&gt;Node7 -->
<g id="edge52" class="edge"><title>Node19&#45;&gt;Node7</title>
<path fill="none" stroke="#9a32cd" stroke-dasharray="5,2" d="M887.211,-629.44C932.457,-623.535 988.608,-614.805 1038,-603 1059.52,-597.857 1083.24,-589.961 1101.07,-583.56"/>
<polygon fill="#9a32cd" stroke="#9a32cd" points="886.614,-625.987 877.14,-630.731 887.504,-632.931 886.614,-625.987"/>
<text text-anchor="middle" x="980" y="-628" font-family="FreeSans" font-size="10.00"> objectCategories_</text>
</g>
<!-- Node20&#45;&gt;Node7 -->
<g id="edge56" class="edge"><title>Node20&#45;&gt;Node7</title>
<path fill="none" stroke="#9a32cd" stroke-dasharray="5,2" d="M902.925,-573C962.019,-573 1033.73,-573 1080.31,-573"/>
<polygon fill="#9a32cd" stroke="#9a32cd" points="902.802,-569.5 892.802,-573 902.802,-576.5 902.802,-569.5"/>
<text text-anchor="middle" x="980" y="-590" font-family="FreeSans" font-size="10.00"> attributes_</text>
<text text-anchor="middle" x="980" y="-577" font-family="FreeSans" font-size="10.00">networkAttributes_</text>
</g>
<!-- Node21&#45;&gt;Node4 -->
<g id="edge60" class="edge"><title>Node21&#45;&gt;Node4</title>
<path fill="none" stroke="#9a32cd" stroke-dasharray="5,2" d="M1045.8,-249.23C1003.48,-242.907 951.142,-236.129 904,-233 812.645,-226.937 789.48,-229.29 698,-233 659.154,-234.576 615.134,-238.294 583.113,-241.352"/>
<polygon fill="#9a32cd" stroke="#9a32cd" points="1045.37,-252.704 1055.78,-250.739 1046.41,-245.783 1045.37,-252.704"/>
<text text-anchor="middle" x="801" y="-237" font-family="FreeSans" font-size="10.00"> eventHandlers_</text>
</g>
<!-- Node22 -->
<g id="node53" class="node"><title>Node22</title>
<a xlink:href="class_urho3_d_1_1_deserializer.html" target="_top" xlink:title="Abstract stream for reading.">
<polygon fill="none" stroke="black" points="480,-40.5 480,-61.5 596,-61.5 596,-40.5 480,-40.5"/>
<text text-anchor="middle" x="538" y="-48.5" font-family="FreeSans" font-size="10.00">Urho3D::Deserializer</text>
</a>
</g>
<!-- Node22&#45;&gt;Node3 -->
<g id="edge64" class="edge"><title>Node22&#45;&gt;Node3</title>
<path fill="none" stroke="midnightblue" d="M606.187,-61.3706C656.453,-69.0157 722.931,-79.1264 763.79,-85.3408"/>
<polygon fill="midnightblue" stroke="midnightblue" points="606.455,-57.8712 596.042,-59.8277 605.402,-64.7916 606.455,-57.8712"/>
</g>
<!-- Node23 -->
<g id="node55" class="node"><title>Node23</title>
<a xlink:href="class_urho3_d_1_1_serializer.html" target="_top" xlink:title="Abstract stream for writing.">
<polygon fill="none" stroke="black" points="486,-0.5 486,-21.5 590,-21.5 590,-0.5 486,-0.5"/>
<text text-anchor="middle" x="538" y="-8.5" font-family="FreeSans" font-size="10.00">Urho3D::Serializer</text>
</a>
</g>
<!-- Node23&#45;&gt;Node3 -->
<g id="edge66" class="edge"><title>Node23&#45;&gt;Node3</title>
<path fill="none" stroke="midnightblue" d="M582.558,-24.493C589.728,-26.667 597.069,-28.8944 604,-31 660.958,-48.3036 727.158,-68.4795 766.485,-80.4719"/>
<polygon fill="midnightblue" stroke="midnightblue" points="583.526,-21.1292 572.94,-21.578 581.495,-27.8283 583.526,-21.1292"/>
</g>
<!-- Node24&#45;&gt;Node3 -->
<g id="edge68" class="edge"><title>Node24&#45;&gt;Node3</title>
<path fill="none" stroke="#9a32cd" stroke-dasharray="5,2" d="M463.834,-167.52C505.477,-160.891 557.74,-151.913 604,-142 660.308,-129.934 724.777,-112.557 764.187,-101.524"/>
<polygon fill="#9a32cd" stroke="#9a32cd" points="463.091,-164.094 453.759,-169.111 464.183,-171.008 463.091,-164.094"/>
<text text-anchor="middle" x="538" y="-183" font-family="FreeSans" font-size="10.00"> inputBuffer_</text>
<text text-anchor="middle" x="538" y="-170" font-family="FreeSans" font-size="10.00">readBuffer_</text>
</g>
<!-- Node25 -->
<g id="node60" class="node"><title>Node25</title>
<a xlink:href="class_urho3_d_1_1_string.html" target="_top" xlink:title="String class.">
<polygon fill="none" stroke="black" points="494,-80.5 494,-101.5 582,-101.5 582,-80.5 494,-80.5"/>
<text text-anchor="middle" x="538" y="-88.5" font-family="FreeSans" font-size="10.00">Urho3D::String</text>
</a>
</g>
<!-- Node25&#45;&gt;Node3 -->
<g id="edge72" class="edge"><title>Node25&#45;&gt;Node3</title>
<path fill="none" stroke="#9a32cd" stroke-dasharray="5,2" d="M592.241,-91C643.446,-91 718.869,-91 763.654,-91"/>
<polygon fill="#9a32cd" stroke="#9a32cd" points="592.02,-87.5001 582.02,-91 592.02,-94.5001 592.02,-87.5001"/>
<text text-anchor="middle" x="651" y="-95" font-family="FreeSans" font-size="10.00"> fileName_</text>
</g>
<!-- Node25&#45;&gt;Node25 -->
<g id="edge74" class="edge"><title>Node25&#45;&gt;Node25</title>
<path fill="none" stroke="#9a32cd" stroke-dasharray="5,2" d="M517.36,-111.427C518.952,-116.349 525.832,-120 538,-120 557.469,-120 563.401,-110.653 555.796,-101.708"/>
<polygon fill="#9a32cd" stroke="#9a32cd" points="520.754,-112.288 520.204,-101.708 514.036,-110.322 520.754,-112.288"/>
<text text-anchor="middle" x="538" y="-124" font-family="FreeSans" font-size="10.00"> EMPTY</text>
</g>
</g>
</svg>
        <g id="navigator" transform="translate(0 0)" fill="#404254">
                <rect fill="#f2f5e9" fill-opacity="0.5" stroke="#606060" stroke-width=".5" x="0" y="0" width="60" height="60"/>
                <use id="zoomplus" xlink:href="#zoomPlus" x="17" y="9" onmousedown="handleZoom(evt,'in')"/>
                <use id="zoomminus" xlink:href="#zoomMin" x="42" y="9" onmousedown="handleZoom(evt,'out')"/>
                <use id="reset" xlink:href="#resetDef" x="30" y="36" onmousedown="handleReset()"/>
                <g id="arrowUp" xlink:href="#dirArrow" transform="translate(30 24)" onmousedown="handlePan(0,-1)">
                  <use xlink:href="#rim" fill="#404040">
                        <set attributeName="fill" to="#808080" begin="arrowUp.mouseover" end="arrowUp.mouseout"/>
                  </use>
                  <path fill="none" stroke="white" stroke-width="1.5" d="M0,-3.0v7 M-2.5,-0.5L0,-3.0L2.5,-0.5"/>
                </g>
                <g id="arrowRight" xlink:href="#dirArrow" transform="rotate(90) translate(36 -43)" onmousedown="handlePan(1,0)">
                  <use xlink:href="#rim" fill="#404040">
                        <set attributeName="fill" to="#808080" begin="arrowRight.mouseover" end="arrowRight.mouseout"/>
                  </use>
                  <path fill="none" stroke="white" stroke-width="1.5" d="M0,-3.0v7 M-2.5,-0.5L0,-3.0L2.5,-0.5"/>
                </g>
                <g id="arrowDown" xlink:href="#dirArrow" transform="rotate(180) translate(-30 -48)" onmousedown="handlePan(0,1)">
                  <use xlink:href="#rim" fill="#404040">
                        <set attributeName="fill" to="#808080" begin="arrowDown.mouseover" end="arrowDown.mouseout"/>
                  </use>
                  <path fill="none" stroke="white" stroke-width="1.5" d="M0,-3.0v7 M-2.5,-0.5L0,-3.0L2.5,-0.5"/>
                </g>
                <g id="arrowLeft" xlink:href="#dirArrow" transform="rotate(270) translate(-36 17)" onmousedown="handlePan(-1,0)">
                  <use xlink:href="#rim" fill="#404040">
                        <set attributeName="fill" to="#808080" begin="arrowLeft.mouseover" end="arrowLeft.mouseout"/>
                  </use>
                  <path fill="none" stroke="white" stroke-width="1.5" d="M0,-3.0v7 M-2.5,-0.5L0,-3.0L2.5,-0.5"/>
                </g>
        </g>
        <svg viewBox="0 0 15 15" width="100%" height="30px" preserveAspectRatio="xMaxYMin meet">
         <g id="arrow_out" transform="scale(0.3 0.3)">
          <a xlink:href="struct_urho3_d_1_1_package_upload__coll__graph_org.svg" target="_base">
           <rect id="button" ry="5" rx="5" y="6" x="6" height="38" width="38"
                fill="#f2f5e9" fill-opacity="0.5" stroke="#606060" stroke-width="1.0"/>
           <path id="arrow"
             d="M 11.500037,31.436501 C 11.940474,20.09759 22.043105,11.32322 32.158766,21.979434 L 37.068811,17.246167 C 37.068811,17.246167 37.088388,32 37.088388,32 L 22.160133,31.978069 C 22.160133,31.978069 26.997745,27.140456 26.997745,27.140456 C 18.528582,18.264221 13.291696,25.230495 11.500037,31.436501 z"
             style="fill:#404040;"/>
          </a>
         </g>
        </svg>
</svg>
