<?xml version="1.0" encoding="UTF-8" standalone="no"?>
<!DOCTYPE svg PUBLIC "-//W3C//DTD SVG 1.1//EN"
 "http://www.w3.org/Graphics/SVG/1.1/DTD/svg11.dtd">
<!-- Generated by graphviz version 2.26.3 (20100126.1600)
 -->
<!-- Title: Urho3D::ReplicationState Pages: 1 -->
<!--zoomable 942 -->
<svg id="main" version="1.1" xmlns="http://www.w3.org/2000/svg" xmlns:xlink="http://www.w3.org/1999/xlink" xml:space="preserve" onload="init(evt)">
        <defs>
                <circle id="rim" cx="0" cy="0" r="7"/>
                <circle id="rim2" cx="0" cy="0" r="3.5"/>
                <g id="zoomPlus">
                        <use xlink:href="#rim" fill="#404040">
                                <set attributeName="fill" to="#808080" begin="zoomplus.mouseover" end="zoomplus.mouseout"/>
                        </use>
                        <path d="M-4,0h8M0,-4v8" fill="none" stroke="white" stroke-width="1.5" pointer-events="none"/>
                </g>
                <g id="zoomMin">
                        <use xlink:href="#rim" fill="#404040">
                                <set attributeName="fill" to="#808080" begin="zoomminus.mouseover" end="zoomminus.mouseout"/>
                        </use>
                        <path d="M-4,0h8" fill="none" stroke="white" stroke-width="1.5" pointer-events="none"/>
                </g>
                <g id="dirArrow">
                        <path fill="none" stroke="white" stroke-width="1.5" d="M0,-3.0v7 M-2.5,-0.5L0,-3.0L2.5,-0.5"/>
                </g>
               <g id="resetDef">
                       <use xlink:href="#rim2" fill="#404040">
                               <set attributeName="fill" to="#808080" begin="reset.mouseover" end="reset.mouseout"/>
                       </use>
               </g>
        </defs>

<script type="text/javascript">
var viewWidth = 1290;
var viewHeight = 942;
var sectionId = 'dynsection-1';
</script>
<script xlink:href="svgpan.js"/>
<svg id="graph" class="graph">
<g id="viewport">
<title>Urho3D::ReplicationState</title>
<!-- Node1 -->
<g id="node1" class="node"><title>Node1</title>
<polygon fill="#bfbfbf" stroke="black" points="213.5,-701.577 213.5,-722.577 350.5,-722.577 350.5,-701.577 213.5,-701.577"/>
<text text-anchor="middle" x="282" y="-709.577" font-family="FreeSans" font-size="10.00">Urho3D::ReplicationState</text>
</g>
<!-- Node8 -->
<g id="node15" class="node"><title>Node8</title>
<a xlink:href="struct_urho3_d_1_1_scene_replication_state.html" target="_top" xlink:title="Per&#45;user scene network replication state.">
<polygon fill="none" stroke="black" points="561,-649.077 561,-683.077 701,-683.077 701,-649.077 561,-649.077"/>
<text text-anchor="start" x="569" y="-670.077" font-family="FreeSans" font-size="10.00">Urho3D::SceneReplication</text>
<text text-anchor="middle" x="631" y="-657.077" font-family="FreeSans" font-size="10.00">State</text>
</a>
</g>
<!-- Node1&#45;&gt;Node8 -->
<g id="edge18" class="edge"><title>Node1&#45;&gt;Node8</title>
<path fill="none" stroke="midnightblue" d="M360.514,-702.943C411.676,-696.842 479.857,-688.431 540,-680.077 546.808,-679.131 553.896,-678.108 560.979,-677.06"/>
<polygon fill="midnightblue" stroke="midnightblue" points="360.032,-699.475 350.516,-704.131 360.859,-706.426 360.032,-699.475"/>
</g>
<!-- Node2 -->
<g id="node2" class="node"><title>Node2</title>
<a xlink:href="class_urho3_d_1_1_connection.html" target="_top" xlink:title="Connection to a remote network host.">
<polygon fill="none" stroke="black" points="1168.5,-467.577 1168.5,-488.577 1281.5,-488.577 1281.5,-467.577 1168.5,-467.577"/>
<text text-anchor="middle" x="1225" y="-475.577" font-family="FreeSans" font-size="10.00">Urho3D::Connection</text>
</a>
</g>
<!-- Node2&#45;&gt;Node1 -->
<g id="edge2" class="edge"><title>Node2&#45;&gt;Node1</title>
<path fill="none" stroke="#9a32cd" stroke-dasharray="5,2" d="M1220.96,-498.532C1210.69,-548.345 1182.12,-673.783 1150,-700.077 1029.01,-799.121 533.892,-745.489 350.631,-721.612"/>
<polygon fill="#9a32cd" stroke="#9a32cd" points="1224.41,-499.099 1222.97,-488.604 1217.55,-497.711 1224.41,-499.099"/>
<text text-anchor="middle" x="807" y="-761.077" font-family="FreeSans" font-size="10.00"> connection_</text>
</g>
<!-- Node3 -->
<g id="node4" class="node"><title>Node3</title>
<a xlink:href="class_urho3_d_1_1_object.html" target="_top" xlink:title="Base class for objects with type identification, subsystem access and event sending/receiving capabil...">
<polygon fill="none" stroke="black" points="938,-871.577 938,-892.577 1028,-892.577 1028,-871.577 938,-871.577"/>
<text text-anchor="middle" x="983" y="-879.577" font-family="FreeSans" font-size="10.00">Urho3D::Object</text>
</a>
</g>
<!-- Node3&#45;&gt;Node2 -->
<g id="edge4" class="edge"><title>Node3&#45;&gt;Node2</title>
<path fill="none" stroke="midnightblue" d="M1038.42,-877.462C1075.21,-871.441 1121.77,-857.639 1150,-826.077 1196.66,-773.908 1219.47,-541.635 1224.1,-488.797"/>
<polygon fill="midnightblue" stroke="midnightblue" points="1037.7,-874.03 1028.32,-878.962 1038.73,-880.954 1037.7,-874.03"/>
</g>
<!-- Node4 -->
<g id="node6" class="node"><title>Node4</title>
<a xlink:href="class_urho3_d_1_1_ref_counted.html" target="_top" xlink:title="Base class for intrusively reference&#45;counted objects. These are noncopyable and non&#45;assignable.">
<polygon fill="none" stroke="black" points="225,-845.577 225,-866.577 339,-866.577 339,-845.577 225,-845.577"/>
<text text-anchor="middle" x="282" y="-853.577" font-family="FreeSans" font-size="10.00">Urho3D::RefCounted</text>
</a>
</g>
<!-- Node4&#45;&gt;Node3 -->
<g id="edge6" class="edge"><title>Node4&#45;&gt;Node3</title>
<path fill="none" stroke="midnightblue" d="M324.522,-869.752C378.236,-886.245 473.829,-913.006 558,-923.077 705.523,-940.726 745.862,-935.878 892,-909.077 912.91,-905.242 935.853,-898.416 953.471,-892.587"/>
<polygon fill="midnightblue" stroke="midnightblue" points="325.261,-866.317 314.673,-866.699 323.188,-873.003 325.261,-866.317"/>
</g>
<!-- Node6 -->
<g id="node10" class="node"><title>Node6</title>
<a xlink:href="class_urho3_d_1_1_context.html" target="_top" xlink:title="Urho3D execution context. Provides access to subsystems, object factories and attributes, and event receivers.">
<polygon fill="none" stroke="red" points="582.5,-840.577 582.5,-861.577 679.5,-861.577 679.5,-840.577 582.5,-840.577"/>
<text text-anchor="middle" x="631" y="-848.577" font-family="FreeSans" font-size="10.00">Urho3D::Context</text>
</a>
</g>
<!-- Node4&#45;&gt;Node6 -->
<g id="edge12" class="edge"><title>Node4&#45;&gt;Node6</title>
<path fill="none" stroke="midnightblue" d="M349.472,-855.11C417.814,-854.131 521.84,-852.64 582.458,-851.772"/>
<polygon fill="midnightblue" stroke="midnightblue" points="349.188,-851.613 339.239,-855.256 349.289,-858.613 349.188,-851.613"/>
</g>
<!-- Node5 -->
<g id="node8" class="node"><title>Node5</title>
<a xlink:href="struct_urho3_d_1_1_ref_count.html" target="_top" xlink:title="Reference count structure.">
<polygon fill="none" stroke="black" points="3,-824.577 3,-845.577 105,-845.577 105,-824.577 3,-824.577"/>
<text text-anchor="middle" x="54" y="-832.577" font-family="FreeSans" font-size="10.00">Urho3D::RefCount</text>
</a>
</g>
<!-- Node5&#45;&gt;Node4 -->
<g id="edge8" class="edge"><title>Node5&#45;&gt;Node4</title>
<path fill="none" stroke="#9a32cd" stroke-dasharray="5,2" d="M115.469,-840.738C149.552,-843.877 191.653,-847.755 224.996,-850.826"/>
<polygon fill="#9a32cd" stroke="#9a32cd" points="115.447,-837.221 105.168,-839.789 114.804,-844.192 115.447,-837.221"/>
<text text-anchor="middle" x="151" y="-850.077" font-family="FreeSans" font-size="10.00"> refCount_</text>
</g>
<!-- Node12 -->
<g id="node25" class="node"><title>Node12</title>
<a xlink:href="class_urho3_d_1_1_weak_ptr.html" target="_top" xlink:title="Urho3D::WeakPtr\&lt; Urho3D\l::Scene \&gt;">
<polygon fill="none" stroke="black" points="910,-669.077 910,-703.077 1056,-703.077 1056,-669.077 910,-669.077"/>
<text text-anchor="start" x="918" y="-690.077" font-family="FreeSans" font-size="10.00">Urho3D::WeakPtr&lt; Urho3D</text>
<text text-anchor="middle" x="983" y="-677.077" font-family="FreeSans" font-size="10.00">::Scene &gt;</text>
</a>
</g>
<!-- Node5&#45;&gt;Node12 -->
<g id="edge42" class="edge"><title>Node5&#45;&gt;Node12</title>
<path fill="none" stroke="#9a32cd" stroke-dasharray="5,2" d="M115.409,-832.819C283.782,-825.981 749.66,-802.534 892,-748.077 919.139,-737.693 946.132,-717.783 963.584,-703.319"/>
<polygon fill="#9a32cd" stroke="#9a32cd" points="115.082,-829.329 105.231,-833.227 115.363,-836.323 115.082,-829.329"/>
<text text-anchor="middle" x="464" y="-821.077" font-family="FreeSans" font-size="10.00"> refCount_</text>
</g>
<!-- Node6&#45;&gt;Node3 -->
<g id="edge10" class="edge"><title>Node6&#45;&gt;Node3</title>
<path fill="none" stroke="#9a32cd" stroke-dasharray="5,2" d="M689.901,-853.908C742.87,-856.747 822.766,-861.754 892,-869.077 906.918,-870.654 923.15,-872.826 937.72,-874.943"/>
<polygon fill="#9a32cd" stroke="#9a32cd" points="689.847,-850.4 679.677,-853.369 689.479,-857.391 689.847,-850.4"/>
<text text-anchor="middle" x="807" y="-873.077" font-family="FreeSans" font-size="10.00"> context_</text>
</g>
<!-- Node7 -->
<g id="node13" class="node"><title>Node7</title>
<a xlink:href="class_urho3_d_1_1_linked_list.html" target="_top" xlink:title="Urho3D::LinkedList\l\&lt; Urho3D::EventHandler \&gt;">
<polygon fill="none" stroke="red" points="558,-880.077 558,-914.077 704,-914.077 704,-880.077 558,-880.077"/>
<text text-anchor="start" x="566" y="-901.077" font-family="FreeSans" font-size="10.00">Urho3D::LinkedList</text>
<text text-anchor="middle" x="631" y="-888.077" font-family="FreeSans" font-size="10.00">&lt; Urho3D::EventHandler &gt;</text>
</a>
</g>
<!-- Node7&#45;&gt;Node3 -->
<g id="edge14" class="edge"><title>Node7&#45;&gt;Node3</title>
<path fill="none" stroke="#9a32cd" stroke-dasharray="5,2" d="M714.479,-893.519C784.444,-890.538 881.663,-886.395 937.894,-883.999"/>
<polygon fill="#9a32cd" stroke="#9a32cd" points="714.204,-890.028 704.362,-893.95 714.502,-897.021 714.204,-890.028"/>
<text text-anchor="middle" x="807" y="-896.077" font-family="FreeSans" font-size="10.00"> eventHandlers_</text>
</g>
<!-- Node8&#45;&gt;Node2 -->
<g id="edge16" class="edge"><title>Node8&#45;&gt;Node2</title>
<path fill="none" stroke="#9a32cd" stroke-dasharray="5,2" d="M711.094,-660.75C847.582,-651.096 1114.05,-629.522 1150,-606.077 1193.79,-577.514 1215.29,-513.763 1222.32,-488.591"/>
<polygon fill="#9a32cd" stroke="#9a32cd" points="710.827,-657.26 701.096,-661.452 711.317,-664.243 710.827,-657.26"/>
<text text-anchor="middle" x="983" y="-648.077" font-family="FreeSans" font-size="10.00"> sceneState_</text>
</g>
<!-- Node9 -->
<g id="node18" class="node"><title>Node9</title>
<a xlink:href="class_urho3_d_1_1_hash_map.html" target="_top" xlink:title="Urho3D::HashMap\&lt; unsigned,\l Urho3D::NodeReplicationState \&gt;">
<polygon fill="none" stroke="black" points="194,-640.077 194,-674.077 370,-674.077 370,-640.077 194,-640.077"/>
<text text-anchor="start" x="202" y="-661.077" font-family="FreeSans" font-size="10.00">Urho3D::HashMap&lt; unsigned,</text>
<text text-anchor="middle" x="282" y="-648.077" font-family="FreeSans" font-size="10.00"> Urho3D::NodeReplicationState &gt;</text>
</a>
</g>
<!-- Node9&#45;&gt;Node8 -->
<g id="edge20" class="edge"><title>Node9&#45;&gt;Node8</title>
<path fill="none" stroke="#9a32cd" stroke-dasharray="5,2" d="M380.267,-659.611C437.755,-661.093 508.984,-662.93 560.814,-664.267"/>
<polygon fill="#9a32cd" stroke="#9a32cd" points="380.154,-656.107 370.067,-659.348 379.974,-663.104 380.154,-656.107"/>
<text text-anchor="middle" x="464" y="-667.077" font-family="FreeSans" font-size="10.00"> nodeStates_</text>
</g>
<!-- Node10 -->
<g id="node20" class="node"><title>Node10</title>
<a xlink:href="class_urho3_d_1_1_hash_base.html" target="_top" xlink:title="Hash set/map base class.">
<polygon fill="none" stroke="red" points="0,-490.577 0,-511.577 108,-511.577 108,-490.577 0,-490.577"/>
<text text-anchor="middle" x="54" y="-498.577" font-family="FreeSans" font-size="10.00">Urho3D::HashBase</text>
</a>
</g>
<!-- Node10&#45;&gt;Node9 -->
<g id="edge22" class="edge"><title>Node10&#45;&gt;Node9</title>
<path fill="none" stroke="midnightblue" d="M72.8338,-518.89C98.7194,-542.773 147.399,-585.577 194,-615.077 208.733,-624.403 225.856,-633.023 241.061,-639.996"/>
<polygon fill="midnightblue" stroke="midnightblue" points="74.9662,-516.093 65.2619,-511.841 70.1966,-521.217 74.9662,-516.093"/>
</g>
<!-- Node11 -->
<g id="node22" class="node"><title>Node11</title>
<a xlink:href="class_urho3_d_1_1_hash_set.html" target="_top" xlink:title="Urho3D::HashSet\&lt; unsigned \&gt;">
<polygon fill="none" stroke="black" points="198.5,-584.577 198.5,-605.577 365.5,-605.577 365.5,-584.577 198.5,-584.577"/>
<text text-anchor="middle" x="282" y="-592.577" font-family="FreeSans" font-size="10.00">Urho3D::HashSet&lt; unsigned &gt;</text>
</a>
</g>
<!-- Node10&#45;&gt;Node11 -->
<g id="edge26" class="edge"><title>Node10&#45;&gt;Node11</title>
<path fill="none" stroke="midnightblue" d="M87.3303,-515.763C115.606,-528.126 157.306,-546.13 194,-561.077 213.871,-569.17 236.448,-577.884 253.759,-584.463"/>
<polygon fill="midnightblue" stroke="midnightblue" points="88.483,-512.447 77.9189,-511.64 85.6739,-518.859 88.483,-512.447"/>
</g>
<!-- Node14 -->
<g id="node29" class="node"><title>Node14</title>
<a xlink:href="class_urho3_d_1_1_hash_map.html" target="_top" xlink:title="Urho3D::HashMap\&lt; StringHash,\l Variant \&gt;">
<polygon fill="none" stroke="black" points="196,-371.077 196,-405.077 368,-405.077 368,-371.077 196,-371.077"/>
<text text-anchor="start" x="204" y="-392.077" font-family="FreeSans" font-size="10.00">Urho3D::HashMap&lt; StringHash,</text>
<text text-anchor="middle" x="282" y="-379.077" font-family="FreeSans" font-size="10.00"> Variant &gt;</text>
</a>
</g>
<!-- Node10&#45;&gt;Node14 -->
<g id="edge34" class="edge"><title>Node10&#45;&gt;Node14</title>
<path fill="none" stroke="midnightblue" d="M73.9063,-483.721C87.8071,-472.228 107.176,-457.422 126,-447.077 157.466,-429.783 195.05,-415.4 225.442,-405.165"/>
<polygon fill="midnightblue" stroke="midnightblue" points="71.3994,-481.256 66.0115,-490.379 75.9123,-486.607 71.3994,-481.256"/>
</g>
<!-- Node16 -->
<g id="node37" class="node"><title>Node16</title>
<a xlink:href="class_urho3_d_1_1_hash_map.html" target="_top" xlink:title="Urho3D::HashMap\&lt; Urho3D\l::StringHash, Urho3D::\lPackageUpload \&gt;">
<polygon fill="none" stroke="black" points="388,-116.577 388,-163.577 540,-163.577 540,-116.577 388,-116.577"/>
<text text-anchor="start" x="396" y="-150.577" font-family="FreeSans" font-size="10.00">Urho3D::HashMap&lt; Urho3D</text>
<text text-anchor="start" x="396" y="-137.577" font-family="FreeSans" font-size="10.00">::StringHash, Urho3D::</text>
<text text-anchor="middle" x="464" y="-124.577" font-family="FreeSans" font-size="10.00">PackageUpload &gt;</text>
</a>
</g>
<!-- Node10&#45;&gt;Node16 -->
<g id="edge46" class="edge"><title>Node10&#45;&gt;Node16</title>
<path fill="none" stroke="midnightblue" d="M68.9759,-482.436C83.0388,-465.327 105.001,-439.599 126,-419.077 231.024,-316.433 369.802,-209.98 431.747,-163.802"/>
<polygon fill="midnightblue" stroke="midnightblue" points="65.9901,-480.56 62.389,-490.524 71.4178,-484.98 65.9901,-480.56"/>
</g>
<!-- Node20 -->
<g id="node46" class="node"><title>Node20</title>
<a xlink:href="class_urho3_d_1_1_hash_map.html" target="_top" xlink:title="Urho3D::HashMap\&lt; Urho3D\l::StringHash, Urho3D::\lPackageDownload \&gt;">
<polygon fill="none" stroke="black" points="388,-746.577 388,-793.577 540,-793.577 540,-746.577 388,-746.577"/>
<text text-anchor="start" x="396" y="-780.577" font-family="FreeSans" font-size="10.00">Urho3D::HashMap&lt; Urho3D</text>
<text text-anchor="start" x="396" y="-767.577" font-family="FreeSans" font-size="10.00">::StringHash, Urho3D::</text>
<text text-anchor="middle" x="464" y="-754.577" font-family="FreeSans" font-size="10.00">PackageDownload &gt;</text>
</a>
</g>
<!-- Node10&#45;&gt;Node20 -->
<g id="edge56" class="edge"><title>Node10&#45;&gt;Node20</title>
<path fill="none" stroke="midnightblue" d="M59.7348,-521.371C73.9236,-567.497 115.347,-680.221 194,-732.077 251.206,-769.792 330.042,-777.006 387.758,-776.153"/>
<polygon fill="midnightblue" stroke="midnightblue" points="63.0435,-520.217 56.8423,-511.627 56.3329,-522.209 63.0435,-520.217"/>
</g>
<!-- Node25 -->
<g id="node61" class="node"><title>Node25</title>
<a xlink:href="class_urho3_d_1_1_hash_map.html" target="_top" xlink:title="Urho3D::HashMap\&lt; unsigned,\l Urho3D::PODVector\&lt; unsigned\l char \&gt; \&gt;">
<polygon fill="none" stroke="black" points="722.5,-454.577 722.5,-501.577 891.5,-501.577 891.5,-454.577 722.5,-454.577"/>
<text text-anchor="start" x="730.5" y="-488.577" font-family="FreeSans" font-size="10.00">Urho3D::HashMap&lt; unsigned,</text>
<text text-anchor="start" x="730.5" y="-475.577" font-family="FreeSans" font-size="10.00"> Urho3D::PODVector&lt; unsigned</text>
<text text-anchor="middle" x="807" y="-462.577" font-family="FreeSans" font-size="10.00"> char &gt; &gt;</text>
</a>
</g>
<!-- Node10&#45;&gt;Node25 -->
<g id="edge76" class="edge"><title>Node10&#45;&gt;Node25</title>
<path fill="none" stroke="midnightblue" d="M118.163,-496.018C141.979,-494.145 169.222,-492.008 194,-490.077 280.218,-483.356 301.585,-478.412 388,-475.077 455.505,-472.471 472.446,-474.697 540,-475.077 600.959,-475.419 669.742,-476.201 722.227,-476.881"/>
<polygon fill="midnightblue" stroke="midnightblue" points="117.877,-492.53 108.183,-496.804 118.426,-499.508 117.877,-492.53"/>
</g>
<!-- Node11&#45;&gt;Node2 -->
<g id="edge78" class="edge"><title>Node11&#45;&gt;Node2</title>
<path fill="none" stroke="#9a32cd" stroke-dasharray="5,2" d="M375.917,-595.781C424.839,-595.97 485.644,-595.926 540,-595.077 813.457,-590.805 893.679,-609.455 1150,-514.077 1169.36,-506.874 1190.49,-496.485 1205.38,-488.717"/>
<polygon fill="#9a32cd" stroke="#9a32cd" points="375.679,-592.28 365.664,-595.738 375.649,-599.28 375.679,-592.28"/>
<text text-anchor="middle" x="807" y="-597.077" font-family="FreeSans" font-size="10.00"> nodesToProcess_</text>
</g>
<!-- Node11&#45;&gt;Node8 -->
<g id="edge24" class="edge"><title>Node11&#45;&gt;Node8</title>
<path fill="none" stroke="#9a32cd" stroke-dasharray="5,2" d="M332.818,-608.019C350.243,-612.201 369.91,-616.641 388,-620.077 455.061,-632.812 473.112,-628.462 540,-642.077 549.766,-644.064 560.045,-646.468 570.038,-648.975"/>
<polygon fill="#9a32cd" stroke="#9a32cd" points="333.389,-604.556 322.845,-605.595 331.736,-611.358 333.389,-604.556"/>
<text text-anchor="middle" x="464" y="-646.077" font-family="FreeSans" font-size="10.00"> dirtyNodes_</text>
</g>
<!-- Node13 -->
<g id="node27" class="node"><title>Node13</title>
<a xlink:href="class_urho3_d_1_1_scene.html" target="_top" xlink:title="Root scene node, represents the whole scene.">
<polygon fill="none" stroke="red" points="586.5,-544.577 586.5,-565.577 675.5,-565.577 675.5,-544.577 586.5,-544.577"/>
<text text-anchor="middle" x="631" y="-552.577" font-family="FreeSans" font-size="10.00">Urho3D::Scene</text>
</a>
</g>
<!-- Node11&#45;&gt;Node13 -->
<g id="edge40" class="edge"><title>Node11&#45;&gt;Node13</title>
<path fill="none" stroke="#9a32cd" stroke-dasharray="5,2" d="M318.591,-580.903C346.319,-570.283 380.836,-557.368 388,-556.077 456.298,-543.766 537.159,-546.863 586.237,-550.65"/>
<polygon fill="#9a32cd" stroke="#9a32cd" points="317.202,-577.687 309.122,-584.54 319.712,-584.221 317.202,-577.687"/>
<text text-anchor="start" x="394" y="-586.077" font-family="FreeSans" font-size="10.00"> networkUpdateNodes</text>
<text text-anchor="middle" x="464" y="-573.077" font-family="FreeSans" font-size="10.00">_</text>
<text text-anchor="middle" x="464" y="-560.077" font-family="FreeSans" font-size="10.00">networkUpdateComponents_</text>
</g>
<!-- Node12&#45;&gt;Node2 -->
<g id="edge28" class="edge"><title>Node12&#45;&gt;Node2</title>
<path fill="none" stroke="#9a32cd" stroke-dasharray="5,2" d="M1066.57,-684.57C1095.6,-680.286 1126.69,-671.02 1150,-652.077 1203.61,-608.514 1219.74,-519.335 1223.8,-488.692"/>
<polygon fill="#9a32cd" stroke="#9a32cd" points="1065.87,-681.131 1056.4,-685.885 1066.77,-688.073 1065.87,-681.131"/>
<text text-anchor="middle" x="1112" y="-687.077" font-family="FreeSans" font-size="10.00"> scene_</text>
</g>
<!-- Node13&#45;&gt;Node12 -->
<g id="edge30" class="edge"><title>Node13&#45;&gt;Node12</title>
<path fill="none" stroke="#9a32cd" stroke-dasharray="5,2" d="M685.72,-550.978C753.062,-547.17 862.171,-545.414 892,-571.077 920.943,-595.978 885.692,-625.633 910,-655.077 914.558,-660.598 920.277,-665.155 926.496,-668.912"/>
<polygon fill="#9a32cd" stroke="#9a32cd" points="685.469,-547.487 675.695,-551.578 685.886,-554.475 685.469,-547.487"/>
<text text-anchor="middle" x="807" y="-575.077" font-family="FreeSans" font-size="10.00"> ptr_</text>
</g>
<!-- Node14&#45;&gt;Node2 -->
<g id="edge68" class="edge"><title>Node14&#45;&gt;Node2</title>
<path fill="none" stroke="#9a32cd" stroke-dasharray="5,2" d="M378.61,-381.515C526.091,-373.609 815.597,-366.421 1056,-411.077 1098.29,-418.931 1110.14,-417.913 1150,-434.077 1171.96,-442.983 1195.2,-457.514 1209.88,-467.421"/>
<polygon fill="#9a32cd" stroke="#9a32cd" points="378.033,-378.041 368.24,-382.085 378.417,-385.031 378.033,-378.041"/>
<text text-anchor="middle" x="807" y="-391.077" font-family="FreeSans" font-size="10.00"> identity_</text>
</g>
<!-- Node14&#45;&gt;Node13 -->
<g id="edge32" class="edge"><title>Node14&#45;&gt;Node13</title>
<path fill="none" stroke="#9a32cd" stroke-dasharray="5,2" d="M338.326,-408.728C391.444,-428.932 472.725,-461.745 540,-497.077 567.865,-511.711 598.348,-532.116 616.012,-544.416"/>
<polygon fill="#9a32cd" stroke="#9a32cd" points="339.337,-405.368 328.745,-405.104 336.86,-411.915 339.337,-405.368"/>
<text text-anchor="middle" x="464" y="-501.077" font-family="FreeSans" font-size="10.00"> smoothingData_</text>
</g>
<!-- Node23 -->
<g id="node54" class="node"><title>Node23</title>
<a xlink:href="class_urho3_d_1_1_controls.html" target="_top" xlink:title="Controls sent over the network.">
<polygon fill="none" stroke="black" points="757.5,-218.577 757.5,-239.577 856.5,-239.577 856.5,-218.577 757.5,-218.577"/>
<text text-anchor="middle" x="807" y="-226.577" font-family="FreeSans" font-size="10.00">Urho3D::Controls</text>
</a>
</g>
<!-- Node14&#45;&gt;Node23 -->
<g id="edge66" class="edge"><title>Node14&#45;&gt;Node23</title>
<path fill="none" stroke="#9a32cd" stroke-dasharray="5,2" d="M319.14,-366.061C339.04,-354.977 364.283,-342.03 388,-333.077 517.372,-284.239 677.901,-251.777 757.479,-237.454"/>
<polygon fill="#9a32cd" stroke="#9a32cd" points="317.381,-363.035 310.397,-371.002 320.825,-369.129 317.381,-363.035"/>
<text text-anchor="middle" x="464" y="-337.077" font-family="FreeSans" font-size="10.00"> extraData_</text>
</g>
<!-- Node15 -->
<g id="node32" class="node"><title>Node15</title>
<a xlink:href="class_urho3_d_1_1_string.html" target="_top" xlink:title="String class.">
<polygon fill="none" stroke="black" points="238,-499.577 238,-520.577 326,-520.577 326,-499.577 238,-499.577"/>
<text text-anchor="middle" x="282" y="-507.577" font-family="FreeSans" font-size="10.00">Urho3D::String</text>
</a>
</g>
<!-- Node15&#45;&gt;Node2 -->
<g id="edge72" class="edge"><title>Node15&#45;&gt;Node2</title>
<path fill="none" stroke="#9a32cd" stroke-dasharray="5,2" d="M336.21,-510.057C509.244,-509.978 1038.09,-509.613 1056,-508.077 1097.86,-504.485 1144.88,-495.749 1178.67,-488.625"/>
<polygon fill="#9a32cd" stroke="#9a32cd" points="336.057,-506.557 326.059,-510.061 336.06,-513.557 336.057,-506.557"/>
<text text-anchor="middle" x="807" y="-513.077" font-family="FreeSans" font-size="10.00"> sceneFileName_</text>
</g>
<!-- Node15&#45;&gt;Node13 -->
<g id="edge36" class="edge"><title>Node15&#45;&gt;Node13</title>
<path fill="none" stroke="#9a32cd" stroke-dasharray="5,2" d="M336.235,-511.279C388.703,-513.147 470.295,-517.915 540,-530.077 559.691,-533.512 581.281,-539.351 598.488,-544.522"/>
<polygon fill="#9a32cd" stroke="#9a32cd" points="336.253,-507.778 326.142,-510.943 336.02,-514.774 336.253,-507.778"/>
<text text-anchor="middle" x="464" y="-534.077" font-family="FreeSans" font-size="10.00"> fileName_</text>
</g>
<!-- Node15&#45;&gt;Node15 -->
<g id="edge38" class="edge"><title>Node15&#45;&gt;Node15</title>
<path fill="none" stroke="#9a32cd" stroke-dasharray="5,2" d="M258.042,-530.503C259.891,-535.425 267.876,-539.077 282,-539.077 304.598,-539.077 311.483,-529.73 302.656,-520.784"/>
<polygon fill="#9a32cd" stroke="#9a32cd" points="261.441,-531.379 261.344,-520.784 254.813,-529.127 261.441,-531.379"/>
<text text-anchor="middle" x="282" y="-543.077" font-family="FreeSans" font-size="10.00"> EMPTY</text>
</g>
<!-- Node16&#45;&gt;Node2 -->
<g id="edge44" class="edge"><title>Node16&#45;&gt;Node2</title>
<path fill="none" stroke="#9a32cd" stroke-dasharray="5,2" d="M517.38,-111.974C644.772,-49.2172 969.389,84.5933 1150,-77.0765 1210.42,-131.163 1222.76,-409.36 1224.69,-467.441"/>
<polygon fill="#9a32cd" stroke="#9a32cd" points="515.585,-108.957 508.192,-116.546 518.704,-115.224 515.585,-108.957"/>
<text text-anchor="middle" x="807" y="-34.0765" font-family="FreeSans" font-size="10.00"> uploads_</text>
</g>
<!-- Node17 -->
<g id="node40" class="node"><title>Node17</title>
<a xlink:href="class_urho3_d_1_1_vector_buffer.html" target="_top" xlink:title="Dynamically sized buffer that can be read and written to as a stream.">
<polygon fill="none" stroke="red" points="923.5,-420.577 923.5,-441.577 1042.5,-441.577 1042.5,-420.577 923.5,-420.577"/>
<text text-anchor="middle" x="983" y="-428.577" font-family="FreeSans" font-size="10.00">Urho3D::VectorBuffer</text>
</a>
</g>
<!-- Node17&#45;&gt;Node2 -->
<g id="edge48" class="edge"><title>Node17&#45;&gt;Node2</title>
<path fill="none" stroke="#9a32cd" stroke-dasharray="5,2" d="M1052.72,-435.877C1082.9,-438.865 1118.47,-443.615 1150,-451.077 1167.1,-455.124 1185.69,-461.801 1200.09,-467.502"/>
<polygon fill="#9a32cd" stroke="#9a32cd" points="1052.98,-432.386 1042.7,-434.929 1052.32,-439.355 1052.98,-432.386"/>
<text text-anchor="middle" x="1112" y="-455.077" font-family="FreeSans" font-size="10.00"> msg_</text>
</g>
<!-- Node18 -->
<g id="node42" class="node"><title>Node18</title>
<a xlink:href="class_urho3_d_1_1_deserializer.html" target="_top" xlink:title="Abstract stream for reading.">
<polygon fill="none" stroke="black" points="573,-428.577 573,-449.577 689,-449.577 689,-428.577 573,-428.577"/>
<text text-anchor="middle" x="631" y="-436.577" font-family="FreeSans" font-size="10.00">Urho3D::Deserializer</text>
</a>
</g>
<!-- Node18&#45;&gt;Node17 -->
<g id="edge50" class="edge"><title>Node18&#45;&gt;Node17</title>
<path fill="none" stroke="midnightblue" d="M699.281,-437.525C764.33,-436.046 861.279,-433.843 923.316,-432.433"/>
<polygon fill="midnightblue" stroke="midnightblue" points="699.044,-434.029 689.126,-437.755 699.203,-441.027 699.044,-434.029"/>
</g>
<!-- Node19 -->
<g id="node44" class="node"><title>Node19</title>
<a xlink:href="class_urho3_d_1_1_serializer.html" target="_top" xlink:title="Abstract stream for writing.">
<polygon fill="none" stroke="black" points="579,-388.577 579,-409.577 683,-409.577 683,-388.577 579,-388.577"/>
<text text-anchor="middle" x="631" y="-396.577" font-family="FreeSans" font-size="10.00">Urho3D::Serializer</text>
</a>
</g>
<!-- Node19&#45;&gt;Node17 -->
<g id="edge52" class="edge"><title>Node19&#45;&gt;Node17</title>
<path fill="none" stroke="midnightblue" d="M693.424,-404.751C758.389,-410.657 859.392,-419.839 923.32,-425.651"/>
<polygon fill="midnightblue" stroke="midnightblue" points="693.594,-401.253 683.318,-403.833 692.96,-408.224 693.594,-401.253"/>
</g>
<!-- Node20&#45;&gt;Node2 -->
<g id="edge54" class="edge"><title>Node20&#45;&gt;Node2</title>
<path fill="none" stroke="#9a32cd" stroke-dasharray="5,2" d="M550.111,-796.071C691.748,-833.09 975.536,-882.359 1150,-745.077 1192.19,-711.878 1217.79,-533.917 1223.69,-488.588"/>
<polygon fill="#9a32cd" stroke="#9a32cd" points="550.725,-792.613 540.162,-793.43 548.929,-799.379 550.725,-792.613"/>
<text text-anchor="middle" x="807" y="-839.077" font-family="FreeSans" font-size="10.00"> downloads_</text>
</g>
<!-- Node21 -->
<g id="node49" class="node"><title>Node21</title>
<a xlink:href="class_urho3_d_1_1_vector3.html" target="_top" xlink:title="Three&#45;dimensional vector.">
<polygon fill="none" stroke="black" points="935,-220.577 935,-241.577 1031,-241.577 1031,-220.577 935,-220.577"/>
<text text-anchor="middle" x="983" y="-228.577" font-family="FreeSans" font-size="10.00">Urho3D::Vector3</text>
</a>
</g>
<!-- Node21&#45;&gt;Node2 -->
<g id="edge58" class="edge"><title>Node21&#45;&gt;Node2</title>
<path fill="none" stroke="#9a32cd" stroke-dasharray="5,2" d="M1008.12,-247.539C1042.66,-270.952 1105.58,-316.455 1150,-365.077 1180.81,-398.801 1207.99,-446.305 1219.35,-467.337"/>
<polygon fill="#9a32cd" stroke="#9a32cd" points="1009.83,-244.47 999.572,-241.805 1005.93,-250.283 1009.83,-244.47"/>
<text text-anchor="middle" x="1112" y="-369.077" font-family="FreeSans" font-size="10.00"> position_</text>
</g>
<!-- Node21&#45;&gt;Node21 -->
<g id="edge60" class="edge"><title>Node21&#45;&gt;Node21</title>
<path fill="none" stroke="#9a32cd" stroke-dasharray="5,2" d="M959.411,-251.503C961.231,-256.425 969.094,-260.077 983,-260.077 1005.25,-260.077 1012.03,-250.73 1003.34,-241.784"/>
<polygon fill="#9a32cd" stroke="#9a32cd" points="962.809,-252.378 962.662,-241.784 956.17,-250.157 962.809,-252.378"/>
<text text-anchor="middle" x="983" y="-355.077" font-family="FreeSans" font-size="10.00"> ONE</text>
<text text-anchor="middle" x="983" y="-342.077" font-family="FreeSans" font-size="10.00">DOWN</text>
<text text-anchor="middle" x="983" y="-329.077" font-family="FreeSans" font-size="10.00">BACK</text>
<text text-anchor="middle" x="983" y="-316.077" font-family="FreeSans" font-size="10.00">RIGHT</text>
<text text-anchor="middle" x="983" y="-303.077" font-family="FreeSans" font-size="10.00">LEFT</text>
<text text-anchor="middle" x="983" y="-290.077" font-family="FreeSans" font-size="10.00">ZERO</text>
<text text-anchor="middle" x="983" y="-277.077" font-family="FreeSans" font-size="10.00">FORWARD</text>
<text text-anchor="middle" x="983" y="-264.077" font-family="FreeSans" font-size="10.00">UP</text>
</g>
<!-- Node22 -->
<g id="node52" class="node"><title>Node22</title>
<a xlink:href="class_urho3_d_1_1_vector.html" target="_top" xlink:title="Urho3D::Vector\&lt; Urho3D\l::RemoteEvent \&gt;">
<polygon fill="none" stroke="red" points="914,-168.077 914,-202.077 1052,-202.077 1052,-168.077 914,-168.077"/>
<text text-anchor="start" x="922" y="-189.077" font-family="FreeSans" font-size="10.00">Urho3D::Vector&lt; Urho3D</text>
<text text-anchor="middle" x="983" y="-176.077" font-family="FreeSans" font-size="10.00">::RemoteEvent &gt;</text>
</a>
</g>
<!-- Node22&#45;&gt;Node2 -->
<g id="edge62" class="edge"><title>Node22&#45;&gt;Node2</title>
<path fill="none" stroke="#9a32cd" stroke-dasharray="5,2" d="M1044.81,-206.089C1080.58,-221.295 1123.6,-245.337 1150,-280.077 1196.71,-341.536 1217.25,-435.4 1223.13,-467.148"/>
<polygon fill="#9a32cd" stroke="#9a32cd" points="1045.99,-202.791 1035.41,-202.223 1043.33,-209.264 1045.99,-202.791"/>
<text text-anchor="middle" x="1112" y="-284.077" font-family="FreeSans" font-size="10.00"> remoteEvents_</text>
</g>
<!-- Node23&#45;&gt;Node2 -->
<g id="edge64" class="edge"><title>Node23&#45;&gt;Node2</title>
<path fill="none" stroke="#9a32cd" stroke-dasharray="5,2" d="M822.29,-210.9C840.678,-190.597 873.644,-158.902 910,-146.077 971.193,-124.489 994.476,-125.452 1056,-146.077 1105.64,-162.717 1120.36,-173.92 1150,-217.077 1207.79,-301.213 1221.47,-429.711 1224.32,-467.362"/>
<polygon fill="#9a32cd" stroke="#9a32cd" points="819.525,-208.743 815.548,-218.563 824.781,-213.366 819.525,-208.743"/>
<text text-anchor="middle" x="983" y="-150.077" font-family="FreeSans" font-size="10.00"> controls_</text>
</g>
<!-- Node24 -->
<g id="node58" class="node"><title>Node24</title>
<a xlink:href="class_urho3_d_1_1_timer.html" target="_top" xlink:title="Low&#45;resolution operating system timer.">
<polygon fill="none" stroke="black" points="940,-79.5765 940,-100.577 1026,-100.577 1026,-79.5765 940,-79.5765"/>
<text text-anchor="middle" x="983" y="-87.5765" font-family="FreeSans" font-size="10.00">Urho3D::Timer</text>
</a>
</g>
<!-- Node24&#45;&gt;Node2 -->
<g id="edge70" class="edge"><title>Node24&#45;&gt;Node2</title>
<path fill="none" stroke="#9a32cd" stroke-dasharray="5,2" d="M1036.03,-81.6297C1072.6,-78.9774 1119.87,-82.3157 1150,-110.077 1204.55,-160.331 1221.38,-411.889 1224.45,-467.278"/>
<polygon fill="#9a32cd" stroke="#9a32cd" points="1035.67,-78.1476 1026.02,-82.5213 1036.3,-85.12 1035.67,-78.1476"/>
<text text-anchor="middle" x="1112" y="-114.077" font-family="FreeSans" font-size="10.00"> statsTimer_</text>
</g>
<!-- Node25&#45;&gt;Node2 -->
<g id="edge74" class="edge"><title>Node25&#45;&gt;Node2</title>
<path fill="none" stroke="#9a32cd" stroke-dasharray="5,2" d="M901.678,-478.077C983.777,-478.077 1099.87,-478.077 1168.3,-478.077"/>
<polygon fill="#9a32cd" stroke="#9a32cd" points="901.589,-474.577 891.589,-478.077 901.589,-481.577 901.589,-474.577"/>
<text text-anchor="middle" x="983" y="-495.077" font-family="FreeSans" font-size="10.00"> nodeLatestData_</text>
<text text-anchor="middle" x="983" y="-482.077" font-family="FreeSans" font-size="10.00">componentLatestData_</text>
</g>
</g>
</svg>
        <g id="navigator" transform="translate(0 0)" fill="#404254">
                <rect fill="#f2f5e9" fill-opacity="0.5" stroke="#606060" stroke-width=".5" x="0" y="0" width="60" height="60"/>
                <use id="zoomplus" xlink:href="#zoomPlus" x="17" y="9" onmousedown="handleZoom(evt,'in')"/>
                <use id="zoomminus" xlink:href="#zoomMin" x="42" y="9" onmousedown="handleZoom(evt,'out')"/>
                <use id="reset" xlink:href="#resetDef" x="30" y="36" onmousedown="handleReset()"/>
                <g id="arrowUp" xlink:href="#dirArrow" transform="translate(30 24)" onmousedown="handlePan(0,-1)">
                  <use xlink:href="#rim" fill="#404040">
                        <set attributeName="fill" to="#808080" begin="arrowUp.mouseover" end="arrowUp.mouseout"/>
                  </use>
                  <path fill="none" stroke="white" stroke-width="1.5" d="M0,-3.0v7 M-2.5,-0.5L0,-3.0L2.5,-0.5"/>
                </g>
                <g id="arrowRight" xlink:href="#dirArrow" transform="rotate(90) translate(36 -43)" onmousedown="handlePan(1,0)">
                  <use xlink:href="#rim" fill="#404040">
                        <set attributeName="fill" to="#808080" begin="arrowRight.mouseover" end="arrowRight.mouseout"/>
                  </use>
                  <path fill="none" stroke="white" stroke-width="1.5" d="M0,-3.0v7 M-2.5,-0.5L0,-3.0L2.5,-0.5"/>
                </g>
                <g id="arrowDown" xlink:href="#dirArrow" transform="rotate(180) translate(-30 -48)" onmousedown="handlePan(0,1)">
                  <use xlink:href="#rim" fill="#404040">
                        <set attributeName="fill" to="#808080" begin="arrowDown.mouseover" end="arrowDown.mouseout"/>
                  </use>
                  <path fill="none" stroke="white" stroke-width="1.5" d="M0,-3.0v7 M-2.5,-0.5L0,-3.0L2.5,-0.5"/>
                </g>
                <g id="arrowLeft" xlink:href="#dirArrow" transform="rotate(270) translate(-36 17)" onmousedown="handlePan(-1,0)">
                  <use xlink:href="#rim" fill="#404040">
                        <set attributeName="fill" to="#808080" begin="arrowLeft.mouseover" end="arrowLeft.mouseout"/>
                  </use>
                  <path fill="none" stroke="white" stroke-width="1.5" d="M0,-3.0v7 M-2.5,-0.5L0,-3.0L2.5,-0.5"/>
                </g>
        </g>
        <svg viewBox="0 0 15 15" width="100%" height="30px" preserveAspectRatio="xMaxYMin meet">
         <g id="arrow_out" transform="scale(0.3 0.3)">
          <a xlink:href="struct_urho3_d_1_1_replication_state__coll__graph_org.svg" target="_base">
           <rect id="button" ry="5" rx="5" y="6" x="6" height="38" width="38"
                fill="#f2f5e9" fill-opacity="0.5" stroke="#606060" stroke-width="1.0"/>
           <path id="arrow"
             d="M 11.500037,31.436501 C 11.940474,20.09759 22.043105,11.32322 32.158766,21.979434 L 37.068811,17.246167 C 37.068811,17.246167 37.088388,32 37.088388,32 L 22.160133,31.978069 C 22.160133,31.978069 26.997745,27.140456 26.997745,27.140456 C 18.528582,18.264221 13.291696,25.230495 11.500037,31.436501 z"
             style="fill:#404040;"/>
          </a>
         </g>
        </svg>
</svg>
