<?xml version="1.0" encoding="UTF-8" standalone="no"?>
<!DOCTYPE svg PUBLIC "-//W3C//DTD SVG 1.1//EN"
 "http://www.w3.org/Graphics/SVG/1.1/DTD/svg11.dtd">
<!-- Generated by graphviz version 2.26.3 (20100126.1600)
 -->
<!-- Title: Urho3D::FrameInfo Pages: 1 -->
<!--zoomable 938 -->
<svg id="main" version="1.1" xmlns="http://www.w3.org/2000/svg" xmlns:xlink="http://www.w3.org/1999/xlink" xml:space="preserve" onload="init(evt)">
        <defs>
                <circle id="rim" cx="0" cy="0" r="7"/>
                <circle id="rim2" cx="0" cy="0" r="3.5"/>
                <g id="zoomPlus">
                        <use xlink:href="#rim" fill="#404040">
                                <set attributeName="fill" to="#808080" begin="zoomplus.mouseover" end="zoomplus.mouseout"/>
                        </use>
                        <path d="M-4,0h8M0,-4v8" fill="none" stroke="white" stroke-width="1.5" pointer-events="none"/>
                </g>
                <g id="zoomMin">
                        <use xlink:href="#rim" fill="#404040">
                                <set attributeName="fill" to="#808080" begin="zoomminus.mouseover" end="zoomminus.mouseout"/>
                        </use>
                        <path d="M-4,0h8" fill="none" stroke="white" stroke-width="1.5" pointer-events="none"/>
                </g>
                <g id="dirArrow">
                        <path fill="none" stroke="white" stroke-width="1.5" d="M0,-3.0v7 M-2.5,-0.5L0,-3.0L2.5,-0.5"/>
                </g>
               <g id="resetDef">
                       <use xlink:href="#rim2" fill="#404040">
                               <set attributeName="fill" to="#808080" begin="reset.mouseover" end="reset.mouseout"/>
                       </use>
               </g>
        </defs>

<script type="text/javascript">
var viewWidth = 1468;
var viewHeight = 938;
var sectionId = 'dynsection-0';
</script>
<script xlink:href="svgpan.js"/>
<svg id="graph" class="graph">
<g id="viewport">
<title>Urho3D::FrameInfo</title>
<!-- Node1 -->
<g id="node1" class="node"><title>Node1</title>
<polygon fill="#bfbfbf" stroke="black" points="1352.5,-220.5 1352.5,-241.5 1459.5,-241.5 1459.5,-220.5 1352.5,-220.5"/>
<text text-anchor="middle" x="1406" y="-228.5" font-family="FreeSans" font-size="10.00">Urho3D::FrameInfo</text>
</g>
<!-- Node2 -->
<g id="node2" class="node"><title>Node2</title>
<a xlink:href="class_urho3_d_1_1_camera.html" target="_top" xlink:title="Camera component.">
<polygon fill="none" stroke="black" points="1163,-252.5 1163,-273.5 1261,-273.5 1261,-252.5 1163,-252.5"/>
<text text-anchor="middle" x="1212" y="-260.5" font-family="FreeSans" font-size="10.00">Urho3D::Camera</text>
</a>
</g>
<!-- Node2&#45;&gt;Node1 -->
<g id="edge2" class="edge"><title>Node2&#45;&gt;Node1</title>
<path fill="none" stroke="#9a32cd" stroke-dasharray="5,2" d="M1271.26,-253.225C1297.12,-248.959 1327.23,-243.993 1352.41,-239.839"/>
<polygon fill="#9a32cd" stroke="#9a32cd" points="1270.5,-249.803 1261.21,-254.884 1271.64,-256.709 1270.5,-249.803"/>
<text text-anchor="middle" x="1309" y="-255" font-family="FreeSans" font-size="10.00"> camera_</text>
</g>
<!-- Node3 -->
<g id="node4" class="node"><title>Node3</title>
<a xlink:href="class_urho3_d_1_1_component.html" target="_top" xlink:title="Base class for components. Components can be created to scene nodes.">
<polygon fill="none" stroke="black" points="920,-650.5 920,-671.5 1036,-671.5 1036,-650.5 920,-650.5"/>
<text text-anchor="middle" x="978" y="-658.5" font-family="FreeSans" font-size="10.00">Urho3D::Component</text>
</a>
</g>
<!-- Node3&#45;&gt;Node2 -->
<g id="edge4" class="edge"><title>Node3&#45;&gt;Node2</title>
<path fill="none" stroke="midnightblue" d="M989.44,-641.543C1031.06,-570.752 1173.66,-328.213 1205.61,-273.865"/>
<polygon fill="midnightblue" stroke="midnightblue" points="986.31,-639.96 984.259,-650.354 992.344,-643.508 986.31,-639.96"/>
</g>
<!-- Node4 -->
<g id="node6" class="node"><title>Node4</title>
<a xlink:href="class_urho3_d_1_1_animatable.html" target="_top" xlink:title="Base class for animatable object, an animatable object can be set animation on it&#39;s attributes...">
<polygon fill="none" stroke="black" points="425,-764.5 425,-785.5 539,-785.5 539,-764.5 425,-764.5"/>
<text text-anchor="middle" x="482" y="-772.5" font-family="FreeSans" font-size="10.00">Urho3D::Animatable</text>
</a>
</g>
<!-- Node4&#45;&gt;Node3 -->
<g id="edge6" class="edge"><title>Node4&#45;&gt;Node3</title>
<path fill="none" stroke="midnightblue" d="M549.22,-780.353C592.658,-782.277 650.171,-781.936 700,-772 802.186,-751.624 914.834,-695.077 958.875,-671.516"/>
<polygon fill="midnightblue" stroke="midnightblue" points="549.216,-776.849 539.056,-779.85 548.87,-783.84 549.216,-776.849"/>
</g>
<!-- Node9 -->
<g id="node16" class="node"><title>Node9</title>
<a xlink:href="class_urho3_d_1_1_node.html" target="_top" xlink:title="Scene node that may contain components and child nodes.">
<polygon fill="none" stroke="red" points="718.5,-650.5 718.5,-671.5 803.5,-671.5 803.5,-650.5 718.5,-650.5"/>
<text text-anchor="middle" x="761" y="-658.5" font-family="FreeSans" font-size="10.00">Urho3D::Node</text>
</a>
</g>
<!-- Node4&#45;&gt;Node9 -->
<g id="edge18" class="edge"><title>Node4&#45;&gt;Node9</title>
<path fill="none" stroke="midnightblue" d="M544.245,-761.851C557.568,-758.288 571.415,-754.003 584,-749 592.504,-745.62 593.545,-742.502 602,-739 643.85,-721.665 659.872,-732.017 700,-711 719.894,-700.581 739.333,-682.991 750.736,-671.694"/>
<polygon fill="midnightblue" stroke="midnightblue" points="543.002,-758.557 534.188,-764.436 544.745,-765.337 543.002,-758.557"/>
</g>
<!-- Node5 -->
<g id="node8" class="node"><title>Node5</title>
<a xlink:href="class_urho3_d_1_1_serializable.html" target="_top" xlink:title="Base class for objects with automatic serialization through attributes.">
<polygon fill="none" stroke="red" points="44,-846.5 44,-867.5 158,-867.5 158,-846.5 44,-846.5"/>
<text text-anchor="middle" x="101" y="-854.5" font-family="FreeSans" font-size="10.00">Urho3D::Serializable</text>
</a>
</g>
<!-- Node5&#45;&gt;Node4 -->
<g id="edge8" class="edge"><title>Node5&#45;&gt;Node4</title>
<path fill="none" stroke="midnightblue" d="M168.114,-847.384C221.094,-839.263 296.706,-826.492 362,-811 392.369,-803.795 426.397,-793.355 450.44,-785.572"/>
<polygon fill="midnightblue" stroke="midnightblue" points="167.522,-843.934 158.162,-848.896 168.574,-850.854 167.522,-843.934"/>
</g>
<!-- Node6 -->
<g id="node10" class="node"><title>Node6</title>
<a xlink:href="class_urho3_d_1_1_hash_map.html" target="_top" xlink:title="Urho3D::HashMap\&lt; Urho3D\l::String, Urho3D::SharedPtr\l\&lt; Urho3D::AttributeAnimationInfo \&gt; \&gt;">
<polygon fill="none" stroke="red" points="0.5,-780.5 0.5,-827.5 201.5,-827.5 201.5,-780.5 0.5,-780.5"/>
<text text-anchor="start" x="8.5" y="-814.5" font-family="FreeSans" font-size="10.00">Urho3D::HashMap&lt; Urho3D</text>
<text text-anchor="start" x="8.5" y="-801.5" font-family="FreeSans" font-size="10.00">::String, Urho3D::SharedPtr</text>
<text text-anchor="middle" x="101" y="-788.5" font-family="FreeSans" font-size="10.00">&lt; Urho3D::AttributeAnimationInfo &gt; &gt;</text>
</a>
</g>
<!-- Node6&#45;&gt;Node4 -->
<g id="edge10" class="edge"><title>Node6&#45;&gt;Node4</title>
<path fill="none" stroke="#9a32cd" stroke-dasharray="5,2" d="M211.769,-795.569C281.579,-790.255 368.818,-783.615 424.967,-779.341"/>
<polygon fill="#9a32cd" stroke="#9a32cd" points="211.307,-792.094 201.602,-796.343 211.838,-799.074 211.307,-792.094"/>
<text text-anchor="middle" x="291" y="-798" font-family="FreeSans" font-size="10.00"> attributeAnimationInfos_</text>
</g>
<!-- Node7 -->
<g id="node12" class="node"><title>Node7</title>
<a xlink:href="class_urho3_d_1_1_shared_ptr.html" target="_top" xlink:title="Urho3D::SharedPtr\&lt;\l Urho3D::ObjectAnimation \&gt;">
<polygon fill="none" stroke="red" points="24.5,-728 24.5,-762 177.5,-762 177.5,-728 24.5,-728"/>
<text text-anchor="start" x="32.5" y="-749" font-family="FreeSans" font-size="10.00">Urho3D::SharedPtr&lt;</text>
<text text-anchor="middle" x="101" y="-736" font-family="FreeSans" font-size="10.00"> Urho3D::ObjectAnimation &gt;</text>
</a>
</g>
<!-- Node7&#45;&gt;Node4 -->
<g id="edge12" class="edge"><title>Node7&#45;&gt;Node4</title>
<path fill="none" stroke="#9a32cd" stroke-dasharray="5,2" d="M187.689,-751.826C260.297,-757.543 361.871,-765.541 424.716,-770.489"/>
<polygon fill="#9a32cd" stroke="#9a32cd" points="187.887,-748.331 177.643,-751.035 187.337,-755.309 187.887,-748.331"/>
<text text-anchor="middle" x="291" y="-770" font-family="FreeSans" font-size="10.00"> objectAnimation_</text>
</g>
<!-- Node8 -->
<g id="node14" class="node"><title>Node8</title>
<a xlink:href="class_urho3_d_1_1_hash_set.html" target="_top" xlink:title="Urho3D::HashSet\&lt; const\l Urho3D::AttributeInfo * \&gt;">
<polygon fill="none" stroke="red" points="30.5,-676 30.5,-710 171.5,-710 171.5,-676 30.5,-676"/>
<text text-anchor="start" x="38.5" y="-697" font-family="FreeSans" font-size="10.00">Urho3D::HashSet&lt; const</text>
<text text-anchor="middle" x="101" y="-684" font-family="FreeSans" font-size="10.00"> Urho3D::AttributeInfo * &gt;</text>
</a>
</g>
<!-- Node8&#45;&gt;Node4 -->
<g id="edge14" class="edge"><title>Node8&#45;&gt;Node4</title>
<path fill="none" stroke="#9a32cd" stroke-dasharray="5,2" d="M181.536,-698.978C234.203,-704.787 303.776,-716.108 362,-738 370.776,-741.3 371.361,-745.357 380,-749 395.155,-755.391 412.261,-760.501 428.073,-764.442"/>
<polygon fill="#9a32cd" stroke="#9a32cd" points="181.884,-695.495 171.571,-697.922 181.146,-702.457 181.884,-695.495"/>
<text text-anchor="middle" x="291" y="-742" font-family="FreeSans" font-size="10.00"> animatedNetworkAttributes_</text>
</g>
<!-- Node9&#45;&gt;Node3 -->
<g id="edge16" class="edge"><title>Node9&#45;&gt;Node3</title>
<path fill="none" stroke="#9a32cd" stroke-dasharray="5,2" d="M813.698,-661C845.795,-661 886.842,-661 919.88,-661"/>
<polygon fill="#9a32cd" stroke="#9a32cd" points="813.613,-657.5 803.613,-661 813.613,-664.5 813.613,-657.5"/>
<text text-anchor="middle" x="862" y="-665" font-family="FreeSans" font-size="10.00"> node_</text>
</g>
<!-- Node9&#45;&gt;Node9 -->
<g id="edge50" class="edge"><title>Node9&#45;&gt;Node9</title>
<path fill="none" stroke="#9a32cd" stroke-dasharray="5,2" d="M742.571,-681.427C743.993,-686.349 750.136,-690 761,-690 778.383,-690 783.679,-680.653 776.889,-671.708"/>
<polygon fill="#9a32cd" stroke="#9a32cd" points="745.969,-682.268 745.111,-671.708 739.196,-680.498 745.969,-682.268"/>
<text text-anchor="middle" x="761" y="-694" font-family="FreeSans" font-size="10.00"> parent_</text>
</g>
<!-- Node11 -->
<g id="node21" class="node"><title>Node11</title>
<a xlink:href="class_urho3_d_1_1_scene.html" target="_top" xlink:title="Root scene node, represents the whole scene.">
<polygon fill="none" stroke="red" points="933.5,-822.5 933.5,-843.5 1022.5,-843.5 1022.5,-822.5 933.5,-822.5"/>
<text text-anchor="middle" x="978" y="-830.5" font-family="FreeSans" font-size="10.00">Urho3D::Scene</text>
</a>
</g>
<!-- Node9&#45;&gt;Node11 -->
<g id="edge24" class="edge"><title>Node9&#45;&gt;Node11</title>
<path fill="none" stroke="midnightblue" d="M782.343,-677.917C826.798,-713.153 928.209,-793.534 964.65,-822.418"/>
<polygon fill="midnightblue" stroke="midnightblue" points="784.259,-674.969 774.248,-671.5 779.91,-680.455 784.259,-674.969"/>
</g>
<!-- Node10 -->
<g id="node19" class="node"><title>Node10</title>
<a xlink:href="class_urho3_d_1_1_p_o_d_vector.html" target="_top" xlink:title="Urho3D::PODVector\&lt;\l Urho3D::Node * \&gt;">
<polygon fill="none" stroke="red" points="422.5,-491 422.5,-525 541.5,-525 541.5,-491 422.5,-491"/>
<text text-anchor="start" x="430.5" y="-512" font-family="FreeSans" font-size="10.00">Urho3D::PODVector&lt;</text>
<text text-anchor="middle" x="482" y="-499" font-family="FreeSans" font-size="10.00"> Urho3D::Node * &gt;</text>
</a>
</g>
<!-- Node10&#45;&gt;Node9 -->
<g id="edge20" class="edge"><title>Node10&#45;&gt;Node9</title>
<path fill="none" stroke="#9a32cd" stroke-dasharray="5,2" d="M551.849,-512.995C597.684,-519.272 656.894,-533.376 700,-565 730.569,-587.427 749.597,-630.213 757.201,-650.205"/>
<polygon fill="#9a32cd" stroke="#9a32cd" points="552.054,-509.493 541.691,-511.701 551.169,-516.437 552.054,-509.493"/>
<text text-anchor="middle" x="651" y="-569" font-family="FreeSans" font-size="10.00"> dependencyNodes_</text>
</g>
<!-- Node11&#45;&gt;Node9 -->
<g id="edge22" class="edge"><title>Node11&#45;&gt;Node9</title>
<path fill="none" stroke="#9a32cd" stroke-dasharray="5,2" d="M923.646,-822.92C881.889,-814.768 830.026,-803.597 822,-797 781.418,-763.644 766.84,-697.672 762.543,-671.785"/>
<polygon fill="#9a32cd" stroke="#9a32cd" points="922.983,-826.356 933.466,-824.818 924.312,-819.484 922.983,-826.356"/>
<text text-anchor="middle" x="862" y="-822" font-family="FreeSans" font-size="10.00"> scene_</text>
</g>
<!-- Node12 -->
<g id="node24" class="node"><title>Node12</title>
<a xlink:href="class_urho3_d_1_1_hash_map.html" target="_top" xlink:title="Urho3D::HashMap\&lt; StringHash,\l Variant \&gt;">
<polygon fill="none" stroke="red" points="396,-817 396,-851 568,-851 568,-817 396,-817"/>
<text text-anchor="start" x="404" y="-838" font-family="FreeSans" font-size="10.00">Urho3D::HashMap&lt; StringHash,</text>
<text text-anchor="middle" x="482" y="-825" font-family="FreeSans" font-size="10.00"> Variant &gt;</text>
</a>
</g>
<!-- Node12&#45;&gt;Node9 -->
<g id="edge46" class="edge"><title>Node12&#45;&gt;Node9</title>
<path fill="none" stroke="#9a32cd" stroke-dasharray="5,2" d="M541.679,-813.286C555.77,-807.821 570.591,-801.592 584,-795 592.414,-790.864 593.781,-788.511 602,-784 644.516,-760.663 662.037,-766.183 700,-736 723.779,-717.094 744.427,-687.431 754.484,-671.672"/>
<polygon fill="#9a32cd" stroke="#9a32cd" points="540.168,-810.116 532.066,-816.943 542.657,-816.659 540.168,-810.116"/>
<text text-anchor="middle" x="651" y="-788" font-family="FreeSans" font-size="10.00"> vars_</text>
</g>
<!-- Node12&#45;&gt;Node11 -->
<g id="edge26" class="edge"><title>Node12&#45;&gt;Node11</title>
<path fill="none" stroke="#9a32cd" stroke-dasharray="5,2" d="M578.275,-833.806C685.311,-833.59 853.586,-833.251 933.286,-833.09"/>
<polygon fill="#9a32cd" stroke="#9a32cd" points="578.106,-830.306 568.113,-833.826 578.12,-837.306 578.106,-830.306"/>
<text text-anchor="middle" x="761" y="-837" font-family="FreeSans" font-size="10.00"> smoothingData_</text>
</g>
<!-- Node13 -->
<g id="node26" class="node"><title>Node13</title>
<a xlink:href="class_urho3_d_1_1_string.html" target="_top" xlink:title="String class.">
<polygon fill="none" stroke="black" points="438,-877.5 438,-898.5 526,-898.5 526,-877.5 438,-877.5"/>
<text text-anchor="middle" x="482" y="-885.5" font-family="FreeSans" font-size="10.00">Urho3D::String</text>
</a>
</g>
<!-- Node13&#45;&gt;Node9 -->
<g id="edge48" class="edge"><title>Node13&#45;&gt;Node9</title>
<path fill="none" stroke="#9a32cd" stroke-dasharray="5,2" d="M536.115,-878.622C585.283,-867.381 656.573,-843.854 700,-797 735.357,-758.852 752.797,-696.768 758.659,-671.853"/>
<polygon fill="#9a32cd" stroke="#9a32cd" points="535.305,-875.216 526.285,-880.773 536.802,-882.054 535.305,-875.216"/>
<text text-anchor="middle" x="651" y="-861" font-family="FreeSans" font-size="10.00"> name_</text>
</g>
<!-- Node13&#45;&gt;Node11 -->
<g id="edge28" class="edge"><title>Node13&#45;&gt;Node11</title>
<path fill="none" stroke="#9a32cd" stroke-dasharray="5,2" d="M536.648,-884.154C616.956,-878.165 771.468,-865.36 902,-847 912.23,-845.561 923.182,-843.721 933.495,-841.852"/>
<polygon fill="#9a32cd" stroke="#9a32cd" points="536.003,-880.692 526.288,-884.919 536.519,-887.673 536.003,-880.692"/>
<text text-anchor="middle" x="761" y="-872" font-family="FreeSans" font-size="10.00"> fileName_</text>
</g>
<!-- Node13&#45;&gt;Node13 -->
<g id="edge30" class="edge"><title>Node13&#45;&gt;Node13</title>
<path fill="none" stroke="#9a32cd" stroke-dasharray="5,2" d="M450.741,-907.679C452.416,-912.975 462.835,-917 482,-917 511.203,-917 520.101,-907.653 508.693,-898.708"/>
<polygon fill="#9a32cd" stroke="#9a32cd" points="453.89,-909.208 455.307,-898.708 447.651,-906.032 453.89,-909.208"/>
<text text-anchor="middle" x="482" y="-921" font-family="FreeSans" font-size="10.00"> EMPTY</text>
</g>
<!-- Node14 -->
<g id="node29" class="node"><title>Node14</title>
<a xlink:href="class_urho3_d_1_1_quaternion.html" target="_top" xlink:title="Rotation represented as a four&#45;dimensional normalized vector.">
<polygon fill="none" stroke="black" points="425.5,-420.5 425.5,-441.5 538.5,-441.5 538.5,-420.5 425.5,-420.5"/>
<text text-anchor="middle" x="482" y="-428.5" font-family="FreeSans" font-size="10.00">Urho3D::Quaternion</text>
</a>
</g>
<!-- Node14&#45;&gt;Node9 -->
<g id="edge32" class="edge"><title>Node14&#45;&gt;Node9</title>
<path fill="none" stroke="#9a32cd" stroke-dasharray="5,2" d="M548.783,-434.635C596.437,-440.604 659.082,-455.808 700,-494 746.935,-537.808 757.87,-620.674 760.321,-650.209"/>
<polygon fill="#9a32cd" stroke="#9a32cd" points="548.883,-431.123 538.55,-433.464 548.088,-438.078 548.883,-431.123"/>
<text text-anchor="middle" x="651" y="-511" font-family="FreeSans" font-size="10.00"> worldRotation_</text>
<text text-anchor="middle" x="651" y="-498" font-family="FreeSans" font-size="10.00">rotation_</text>
</g>
<!-- Node14&#45;&gt;Node14 -->
<g id="edge34" class="edge"><title>Node14&#45;&gt;Node14</title>
<path fill="none" stroke="#9a32cd" stroke-dasharray="5,2" d="M450.741,-450.679C452.416,-455.975 462.835,-460 482,-460 511.203,-460 520.101,-450.653 508.693,-441.708"/>
<polygon fill="#9a32cd" stroke="#9a32cd" points="453.89,-452.208 455.307,-441.708 447.651,-449.032 453.89,-452.208"/>
<text text-anchor="middle" x="482" y="-464" font-family="FreeSans" font-size="10.00"> IDENTITY</text>
</g>
<!-- Node15 -->
<g id="node32" class="node"><title>Node15</title>
<a xlink:href="class_urho3_d_1_1_vector.html" target="_top" xlink:title="Urho3D::Vector\&lt; Urho3D\l::WeakPtr\&lt; Urho3D::Component \&gt; \&gt;">
<polygon fill="none" stroke="red" points="385,-706 385,-740 579,-740 579,-706 385,-706"/>
<text text-anchor="start" x="393" y="-727" font-family="FreeSans" font-size="10.00">Urho3D::Vector&lt; Urho3D</text>
<text text-anchor="middle" x="482" y="-714" font-family="FreeSans" font-size="10.00">::WeakPtr&lt; Urho3D::Component &gt; &gt;</text>
</a>
</g>
<!-- Node15&#45;&gt;Node9 -->
<g id="edge36" class="edge"><title>Node15&#45;&gt;Node9</title>
<path fill="none" stroke="#9a32cd" stroke-dasharray="5,2" d="M570.152,-703.777C609.852,-695.071 657.301,-684.6 700,-675 705.937,-673.665 712.195,-672.244 718.35,-670.839"/>
<polygon fill="#9a32cd" stroke="#9a32cd" points="569.253,-700.391 560.234,-705.95 570.751,-707.228 569.253,-700.391"/>
<text text-anchor="middle" x="651" y="-701" font-family="FreeSans" font-size="10.00"> listeners_</text>
</g>
<!-- Node16 -->
<g id="node34" class="node"><title>Node16</title>
<a xlink:href="class_urho3_d_1_1_vector_buffer.html" target="_top" xlink:title="Dynamically sized buffer that can be read and written to as a stream.">
<polygon fill="none" stroke="red" points="422.5,-666.5 422.5,-687.5 541.5,-687.5 541.5,-666.5 422.5,-666.5"/>
<text text-anchor="middle" x="482" y="-674.5" font-family="FreeSans" font-size="10.00">Urho3D::VectorBuffer</text>
</a>
</g>
<!-- Node16&#45;&gt;Node9 -->
<g id="edge38" class="edge"><title>Node16&#45;&gt;Node9</title>
<path fill="none" stroke="#9a32cd" stroke-dasharray="5,2" d="M551.766,-666.867C568.205,-664.872 585.691,-663.067 602,-662 641.391,-659.423 686.387,-659.413 718.435,-659.906"/>
<polygon fill="#9a32cd" stroke="#9a32cd" points="551.173,-663.414 541.685,-668.13 552.042,-670.36 551.173,-663.414"/>
<text text-anchor="middle" x="651" y="-666" font-family="FreeSans" font-size="10.00"> attrBuffer_</text>
</g>
<!-- Node17 -->
<g id="node36" class="node"><title>Node17</title>
<a xlink:href="class_urho3_d_1_1_vector.html" target="_top" xlink:title="Urho3D::Vector\&lt; Urho3D\l::SharedPtr\&lt; Urho3D::Component \&gt; \&gt;">
<polygon fill="none" stroke="red" points="380.5,-614 380.5,-648 583.5,-648 583.5,-614 380.5,-614"/>
<text text-anchor="start" x="388.5" y="-635" font-family="FreeSans" font-size="10.00">Urho3D::Vector&lt; Urho3D</text>
<text text-anchor="middle" x="482" y="-622" font-family="FreeSans" font-size="10.00">::SharedPtr&lt; Urho3D::Component &gt; &gt;</text>
</a>
</g>
<!-- Node17&#45;&gt;Node9 -->
<g id="edge40" class="edge"><title>Node17&#45;&gt;Node9</title>
<path fill="none" stroke="#9a32cd" stroke-dasharray="5,2" d="M593.801,-632.177C628.065,-633.87 665.749,-637.087 700,-643 710.01,-644.728 720.704,-647.539 730.297,-650.431"/>
<polygon fill="#9a32cd" stroke="#9a32cd" points="593.91,-628.678 583.761,-631.719 593.591,-635.671 593.91,-628.678"/>
<text text-anchor="middle" x="651" y="-647" font-family="FreeSans" font-size="10.00"> components_</text>
</g>
<!-- Node18 -->
<g id="node38" class="node"><title>Node18</title>
<a xlink:href="class_urho3_d_1_1_vector3.html" target="_top" xlink:title="Three&#45;dimensional vector.">
<polygon fill="none" stroke="black" points="434,-174.5 434,-195.5 530,-195.5 530,-174.5 434,-174.5"/>
<text text-anchor="middle" x="482" y="-182.5" font-family="FreeSans" font-size="10.00">Urho3D::Vector3</text>
</a>
</g>
<!-- Node18&#45;&gt;Node9 -->
<g id="edge42" class="edge"><title>Node18&#45;&gt;Node9</title>
<path fill="none" stroke="#9a32cd" stroke-dasharray="5,2" d="M510.604,-200.676C558.055,-228.268 652.518,-290.222 700,-370 729.436,-419.458 753.876,-603.563 759.688,-650.206"/>
<polygon fill="#9a32cd" stroke="#9a32cd" points="512.186,-197.549 501.768,-195.621 508.71,-203.625 512.186,-197.549"/>
<text text-anchor="middle" x="651" y="-387" font-family="FreeSans" font-size="10.00"> scale_</text>
<text text-anchor="middle" x="651" y="-374" font-family="FreeSans" font-size="10.00">position_</text>
</g>
<!-- Node18&#45;&gt;Node18 -->
<g id="edge44" class="edge"><title>Node18&#45;&gt;Node18</title>
<path fill="none" stroke="#9a32cd" stroke-dasharray="5,2" d="M450.741,-204.679C452.416,-209.975 462.835,-214 482,-214 511.203,-214 520.101,-204.653 508.693,-195.708"/>
<polygon fill="#9a32cd" stroke="#9a32cd" points="453.89,-206.208 455.307,-195.708 447.651,-203.032 453.89,-206.208"/>
<text text-anchor="middle" x="482" y="-309" font-family="FreeSans" font-size="10.00"> ONE</text>
<text text-anchor="middle" x="482" y="-296" font-family="FreeSans" font-size="10.00">DOWN</text>
<text text-anchor="middle" x="482" y="-283" font-family="FreeSans" font-size="10.00">BACK</text>
<text text-anchor="middle" x="482" y="-270" font-family="FreeSans" font-size="10.00">RIGHT</text>
<text text-anchor="middle" x="482" y="-257" font-family="FreeSans" font-size="10.00">LEFT</text>
<text text-anchor="middle" x="482" y="-244" font-family="FreeSans" font-size="10.00">ZERO</text>
<text text-anchor="middle" x="482" y="-231" font-family="FreeSans" font-size="10.00">FORWARD</text>
<text text-anchor="middle" x="482" y="-218" font-family="FreeSans" font-size="10.00">UP</text>
</g>
<!-- Node21 -->
<g id="node50" class="node"><title>Node21</title>
<a xlink:href="class_urho3_d_1_1_plane.html" target="_top" xlink:title="Surface in three&#45;dimensional space.">
<polygon fill="none" stroke="black" points="718,-220.5 718,-241.5 804,-241.5 804,-220.5 718,-220.5"/>
<text text-anchor="middle" x="761" y="-228.5" font-family="FreeSans" font-size="10.00">Urho3D::Plane</text>
</a>
</g>
<!-- Node18&#45;&gt;Node21 -->
<g id="edge64" class="edge"><title>Node18&#45;&gt;Node21</title>
<path fill="none" stroke="#9a32cd" stroke-dasharray="5,2" d="M540.211,-194.598C593.202,-203.334 670.226,-216.034 717.886,-223.892"/>
<polygon fill="#9a32cd" stroke="#9a32cd" points="540.716,-191.134 530.28,-192.96 539.577,-198.04 540.716,-191.134"/>
<text text-anchor="middle" x="651" y="-237" font-family="FreeSans" font-size="10.00"> normal_</text>
<text text-anchor="middle" x="651" y="-224" font-family="FreeSans" font-size="10.00">absNormal_</text>
</g>
<!-- Node22 -->
<g id="node54" class="node"><title>Node22</title>
<a xlink:href="class_urho3_d_1_1_frustum.html" target="_top" xlink:title="Convex constructed of 6 planes.">
<polygon fill="none" stroke="black" points="929,-220.5 929,-241.5 1027,-241.5 1027,-220.5 929,-220.5"/>
<text text-anchor="middle" x="978" y="-228.5" font-family="FreeSans" font-size="10.00">Urho3D::Frustum</text>
</a>
</g>
<!-- Node18&#45;&gt;Node22 -->
<g id="edge70" class="edge"><title>Node18&#45;&gt;Node22</title>
<path fill="none" stroke="#9a32cd" stroke-dasharray="5,2" d="M540.575,-184.784C605.258,-185.146 712.381,-187.52 804,-198 847.989,-203.032 897.545,-212.844 932.487,-220.467"/>
<polygon fill="#9a32cd" stroke="#9a32cd" points="540.191,-181.283 530.177,-184.742 540.162,-188.283 540.191,-181.283"/>
<text text-anchor="middle" x="761" y="-202" font-family="FreeSans" font-size="10.00"> vertices_</text>
</g>
<!-- Node19 -->
<g id="node44" class="node"><title>Node19</title>
<a xlink:href="class_urho3_d_1_1_string_hash.html" target="_top" xlink:title="32&#45;bit hash value for a string.">
<polygon fill="none" stroke="black" points="425.5,-543.5 425.5,-564.5 538.5,-564.5 538.5,-543.5 425.5,-543.5"/>
<text text-anchor="middle" x="482" y="-551.5" font-family="FreeSans" font-size="10.00">Urho3D::StringHash</text>
</a>
</g>
<!-- Node19&#45;&gt;Node9 -->
<g id="edge52" class="edge"><title>Node19&#45;&gt;Node9</title>
<path fill="none" stroke="#9a32cd" stroke-dasharray="5,2" d="M548.481,-566.409C592.868,-576.238 651.728,-592.303 700,-616 718.665,-625.163 737.527,-640.157 749.232,-650.294"/>
<polygon fill="#9a32cd" stroke="#9a32cd" points="549.184,-562.981 538.669,-564.286 547.703,-569.822 549.184,-562.981"/>
<text text-anchor="middle" x="651" y="-620" font-family="FreeSans" font-size="10.00"> nameHash_</text>
</g>
<!-- Node19&#45;&gt;Node19 -->
<g id="edge54" class="edge"><title>Node19&#45;&gt;Node19</title>
<path fill="none" stroke="#9a32cd" stroke-dasharray="5,2" d="M450.741,-573.679C452.416,-578.975 462.835,-583 482,-583 511.203,-583 520.101,-573.653 508.693,-564.708"/>
<polygon fill="#9a32cd" stroke="#9a32cd" points="453.89,-575.208 455.307,-564.708 447.651,-572.032 453.89,-575.208"/>
<text text-anchor="middle" x="482" y="-587" font-family="FreeSans" font-size="10.00"> ZERO</text>
</g>
<!-- Node20 -->
<g id="node47" class="node"><title>Node20</title>
<a xlink:href="class_urho3_d_1_1_matrix3x4.html" target="_top" xlink:title="3x4 matrix for scene node transform calculations.">
<polygon fill="none" stroke="black" points="429,-336.5 429,-357.5 535,-357.5 535,-336.5 429,-336.5"/>
<text text-anchor="middle" x="482" y="-344.5" font-family="FreeSans" font-size="10.00">Urho3D::Matrix3x4</text>
</a>
</g>
<!-- Node20&#45;&gt;Node2 -->
<g id="edge80" class="edge"><title>Node20&#45;&gt;Node2</title>
<path fill="none" stroke="#9a32cd" stroke-dasharray="5,2" d="M545.469,-342.614C648.593,-335.161 858.847,-318.605 1036,-296 1082.46,-290.072 1094.01,-287.861 1140,-279 1148.55,-277.353 1157.64,-275.451 1166.37,-273.548"/>
<polygon fill="#9a32cd" stroke="#9a32cd" points="544.952,-339.142 535.229,-343.35 545.454,-346.124 544.952,-339.142"/>
<text text-anchor="middle" x="862" y="-337" font-family="FreeSans" font-size="10.00"> view_</text>
<text text-anchor="middle" x="862" y="-324" font-family="FreeSans" font-size="10.00">reflectionMatrix_</text>
</g>
<!-- Node20&#45;&gt;Node9 -->
<g id="edge56" class="edge"><title>Node20&#45;&gt;Node9</title>
<path fill="none" stroke="#9a32cd" stroke-dasharray="5,2" d="M513.03,-362.118C536.98,-373.439 571.13,-388.833 602,-400 644.597,-415.409 668.327,-395.615 700,-428 732.16,-460.884 754.095,-609.325 759.628,-650.424"/>
<polygon fill="#9a32cd" stroke="#9a32cd" points="514.279,-358.836 503.746,-357.692 511.267,-365.155 514.279,-358.836"/>
<text text-anchor="middle" x="651" y="-432" font-family="FreeSans" font-size="10.00"> worldTransform_</text>
</g>
<!-- Node20&#45;&gt;Node20 -->
<g id="edge58" class="edge"><title>Node20&#45;&gt;Node20</title>
<path fill="none" stroke="#9a32cd" stroke-dasharray="5,2" d="M450.741,-366.679C452.416,-371.975 462.835,-376 482,-376 511.203,-376 520.101,-366.653 508.693,-357.708"/>
<polygon fill="#9a32cd" stroke="#9a32cd" points="453.89,-368.208 455.307,-357.708 447.651,-365.032 453.89,-368.208"/>
<text text-anchor="middle" x="482" y="-393" font-family="FreeSans" font-size="10.00"> IDENTITY</text>
<text text-anchor="middle" x="482" y="-380" font-family="FreeSans" font-size="10.00">ZERO</text>
</g>
<!-- Node21&#45;&gt;Node2 -->
<g id="edge60" class="edge"><title>Node21&#45;&gt;Node2</title>
<path fill="none" stroke="#9a32cd" stroke-dasharray="5,2" d="M803.924,-244.133C809.95,-245.633 816.1,-246.985 822,-248 961.464,-271.987 998.491,-264.983 1140,-264 1147.38,-263.949 1155.18,-263.868 1162.81,-263.774"/>
<polygon fill="#9a32cd" stroke="#9a32cd" points="804.526,-240.672 793.964,-241.502 802.738,-247.44 804.526,-240.672"/>
<text text-anchor="middle" x="978" y="-283" font-family="FreeSans" font-size="10.00"> clipPlane_</text>
<text text-anchor="middle" x="978" y="-270" font-family="FreeSans" font-size="10.00">reflectionPlane_</text>
</g>
<!-- Node21&#45;&gt;Node21 -->
<g id="edge62" class="edge"><title>Node21&#45;&gt;Node21</title>
<path fill="none" stroke="#9a32cd" stroke-dasharray="5,2" d="M742.571,-251.427C743.993,-256.349 750.136,-260 761,-260 778.383,-260 783.679,-250.653 776.889,-241.708"/>
<polygon fill="#9a32cd" stroke="#9a32cd" points="745.969,-252.268 745.111,-241.708 739.196,-250.498 745.969,-252.268"/>
<text text-anchor="middle" x="761" y="-264" font-family="FreeSans" font-size="10.00"> UP</text>
</g>
<!-- Node21&#45;&gt;Node22 -->
<g id="edge68" class="edge"><title>Node21&#45;&gt;Node22</title>
<path fill="none" stroke="#9a32cd" stroke-dasharray="5,2" d="M814.175,-231C849.197,-231 894.72,-231 928.887,-231"/>
<polygon fill="#9a32cd" stroke="#9a32cd" points="814.132,-227.5 804.132,-231 814.132,-234.5 814.132,-227.5"/>
<text text-anchor="middle" x="862" y="-235" font-family="FreeSans" font-size="10.00"> planes_</text>
</g>
<!-- Node22&#45;&gt;Node2 -->
<g id="edge66" class="edge"><title>Node22&#45;&gt;Node2</title>
<path fill="none" stroke="#9a32cd" stroke-dasharray="5,2" d="M1037.45,-237.729C1068.12,-241.355 1106.11,-246.086 1140,-251 1147.4,-252.073 1155.21,-253.289 1162.86,-254.524"/>
<polygon fill="#9a32cd" stroke="#9a32cd" points="1037.68,-234.233 1027.35,-236.543 1036.87,-241.185 1037.68,-234.233"/>
<text text-anchor="middle" x="1097" y="-255" font-family="FreeSans" font-size="10.00"> frustum_</text>
</g>
<!-- Node23 -->
<g id="node58" class="node"><title>Node23</title>
<a xlink:href="class_urho3_d_1_1_vector2.html" target="_top" xlink:title="Two&#45;dimensional vector.">
<polygon fill="none" stroke="black" points="930,-84.5 930,-105.5 1026,-105.5 1026,-84.5 930,-84.5"/>
<text text-anchor="middle" x="978" y="-92.5" font-family="FreeSans" font-size="10.00">Urho3D::Vector2</text>
</a>
</g>
<!-- Node23&#45;&gt;Node2 -->
<g id="edge72" class="edge"><title>Node23&#45;&gt;Node2</title>
<path fill="none" stroke="#9a32cd" stroke-dasharray="5,2" d="M1001.36,-111.516C1033.77,-134.859 1093.64,-179.518 1140,-223 1148.72,-231.181 1148.11,-236.284 1158,-243 1163.46,-246.706 1169.69,-249.83 1175.94,-252.426"/>
<polygon fill="#9a32cd" stroke="#9a32cd" points="1003.15,-108.492 992.978,-105.516 999.072,-114.183 1003.15,-108.492"/>
<text text-anchor="middle" x="1097" y="-227" font-family="FreeSans" font-size="10.00"> projectionOffset_</text>
</g>
<!-- Node23&#45;&gt;Node23 -->
<g id="edge74" class="edge"><title>Node23&#45;&gt;Node23</title>
<path fill="none" stroke="#9a32cd" stroke-dasharray="5,2" d="M956.622,-115.427C958.272,-120.349 965.397,-124 978,-124 998.164,-124 1004.31,-114.653 996.431,-105.708"/>
<polygon fill="#9a32cd" stroke="#9a32cd" points="960.017,-116.293 959.569,-105.708 953.318,-114.262 960.017,-116.293"/>
<text text-anchor="middle" x="978" y="-193" font-family="FreeSans" font-size="10.00"> ONE</text>
<text text-anchor="middle" x="978" y="-180" font-family="FreeSans" font-size="10.00">DOWN</text>
<text text-anchor="middle" x="978" y="-167" font-family="FreeSans" font-size="10.00">RIGHT</text>
<text text-anchor="middle" x="978" y="-154" font-family="FreeSans" font-size="10.00">LEFT</text>
<text text-anchor="middle" x="978" y="-141" font-family="FreeSans" font-size="10.00">ZERO</text>
<text text-anchor="middle" x="978" y="-128" font-family="FreeSans" font-size="10.00">UP</text>
</g>
<!-- Node24 -->
<g id="node61" class="node"><title>Node24</title>
<a xlink:href="class_urho3_d_1_1_matrix4.html" target="_top" xlink:title="4x4 matrix for arbitrary linear transforms including projection.">
<polygon fill="none" stroke="black" points="930.5,-0.5 930.5,-21.5 1025.5,-21.5 1025.5,-0.5 930.5,-0.5"/>
<text text-anchor="middle" x="978" y="-8.5" font-family="FreeSans" font-size="10.00">Urho3D::Matrix4</text>
</a>
</g>
<!-- Node24&#45;&gt;Node2 -->
<g id="edge76" class="edge"><title>Node24&#45;&gt;Node2</title>
<path fill="none" stroke="#9a32cd" stroke-dasharray="5,2" d="M1010.32,-26.0387C1048.01,-45.3821 1109.07,-82.7014 1140,-134 1165.35,-176.05 1126.75,-205.128 1158,-243 1161.18,-246.856 1165.18,-249.968 1169.56,-252.481"/>
<polygon fill="#9a32cd" stroke="#9a32cd" points="1011.78,-22.8574 1001.27,-21.5106 1008.65,-29.1168 1011.78,-22.8574"/>
<text text-anchor="middle" x="1097" y="-138" font-family="FreeSans" font-size="10.00"> projection_</text>
</g>
<!-- Node24&#45;&gt;Node24 -->
<g id="edge78" class="edge"><title>Node24&#45;&gt;Node24</title>
<path fill="none" stroke="#9a32cd" stroke-dasharray="5,2" d="M956.622,-31.4266C958.272,-36.3489 965.397,-40 978,-40 998.164,-40 1004.31,-30.6531 996.431,-21.7079"/>
<polygon fill="#9a32cd" stroke="#9a32cd" points="960.017,-32.2932 959.569,-21.7079 953.318,-30.2623 960.017,-32.2932"/>
<text text-anchor="middle" x="978" y="-57" font-family="FreeSans" font-size="10.00"> IDENTITY</text>
<text text-anchor="middle" x="978" y="-44" font-family="FreeSans" font-size="10.00">ZERO</text>
</g>
<!-- Node25 -->
<g id="node65" class="node"><title>Node25</title>
<a xlink:href="class_urho3_d_1_1_int_vector2.html" target="_top" xlink:title="Two&#45;dimensional vector with integer values.">
<polygon fill="none" stroke="black" points="1158,-181.5 1158,-202.5 1266,-202.5 1266,-181.5 1158,-181.5"/>
<text text-anchor="middle" x="1212" y="-189.5" font-family="FreeSans" font-size="10.00">Urho3D::IntVector2</text>
</a>
</g>
<!-- Node25&#45;&gt;Node1 -->
<g id="edge82" class="edge"><title>Node25&#45;&gt;Node1</title>
<path fill="none" stroke="#9a32cd" stroke-dasharray="5,2" d="M1274.23,-204.509C1299.84,-209.658 1329.18,-215.557 1353.66,-220.479"/>
<polygon fill="#9a32cd" stroke="#9a32cd" points="1274.74,-201.042 1264.24,-202.503 1273.36,-207.905 1274.74,-201.042"/>
<text text-anchor="middle" x="1309" y="-221" font-family="FreeSans" font-size="10.00"> viewSize_</text>
</g>
<!-- Node25&#45;&gt;Node25 -->
<g id="edge84" class="edge"><title>Node25&#45;&gt;Node25</title>
<path fill="none" stroke="#9a32cd" stroke-dasharray="5,2" d="M1194.31,-212.427C1195.67,-217.349 1201.57,-221 1212,-221 1228.69,-221 1233.77,-211.653 1227.25,-202.708"/>
<polygon fill="#9a32cd" stroke="#9a32cd" points="1197.71,-213.259 1196.75,-202.708 1190.92,-211.556 1197.71,-213.259"/>
<text text-anchor="middle" x="1212" y="-225" font-family="FreeSans" font-size="10.00"> ZERO</text>
</g>
</g>
</svg>
        <g id="navigator" transform="translate(0 0)" fill="#404254">
                <rect fill="#f2f5e9" fill-opacity="0.5" stroke="#606060" stroke-width=".5" x="0" y="0" width="60" height="60"/>
                <use id="zoomplus" xlink:href="#zoomPlus" x="17" y="9" onmousedown="handleZoom(evt,'in')"/>
                <use id="zoomminus" xlink:href="#zoomMin" x="42" y="9" onmousedown="handleZoom(evt,'out')"/>
                <use id="reset" xlink:href="#resetDef" x="30" y="36" onmousedown="handleReset()"/>
                <g id="arrowUp" xlink:href="#dirArrow" transform="translate(30 24)" onmousedown="handlePan(0,-1)">
                  <use xlink:href="#rim" fill="#404040">
                        <set attributeName="fill" to="#808080" begin="arrowUp.mouseover" end="arrowUp.mouseout"/>
                  </use>
                  <path fill="none" stroke="white" stroke-width="1.5" d="M0,-3.0v7 M-2.5,-0.5L0,-3.0L2.5,-0.5"/>
                </g>
                <g id="arrowRight" xlink:href="#dirArrow" transform="rotate(90) translate(36 -43)" onmousedown="handlePan(1,0)">
                  <use xlink:href="#rim" fill="#404040">
                        <set attributeName="fill" to="#808080" begin="arrowRight.mouseover" end="arrowRight.mouseout"/>
                  </use>
                  <path fill="none" stroke="white" stroke-width="1.5" d="M0,-3.0v7 M-2.5,-0.5L0,-3.0L2.5,-0.5"/>
                </g>
                <g id="arrowDown" xlink:href="#dirArrow" transform="rotate(180) translate(-30 -48)" onmousedown="handlePan(0,1)">
                  <use xlink:href="#rim" fill="#404040">
                        <set attributeName="fill" to="#808080" begin="arrowDown.mouseover" end="arrowDown.mouseout"/>
                  </use>
                  <path fill="none" stroke="white" stroke-width="1.5" d="M0,-3.0v7 M-2.5,-0.5L0,-3.0L2.5,-0.5"/>
                </g>
                <g id="arrowLeft" xlink:href="#dirArrow" transform="rotate(270) translate(-36 17)" onmousedown="handlePan(-1,0)">
                  <use xlink:href="#rim" fill="#404040">
                        <set attributeName="fill" to="#808080" begin="arrowLeft.mouseover" end="arrowLeft.mouseout"/>
                  </use>
                  <path fill="none" stroke="white" stroke-width="1.5" d="M0,-3.0v7 M-2.5,-0.5L0,-3.0L2.5,-0.5"/>
                </g>
        </g>
        <svg viewBox="0 0 15 15" width="100%" height="30px" preserveAspectRatio="xMaxYMin meet">
         <g id="arrow_out" transform="scale(0.3 0.3)">
          <a xlink:href="struct_urho3_d_1_1_frame_info__coll__graph_org.svg" target="_base">
           <rect id="button" ry="5" rx="5" y="6" x="6" height="38" width="38"
                fill="#f2f5e9" fill-opacity="0.5" stroke="#606060" stroke-width="1.0"/>
           <path id="arrow"
             d="M 11.500037,31.436501 C 11.940474,20.09759 22.043105,11.32322 32.158766,21.979434 L 37.068811,17.246167 C 37.068811,17.246167 37.088388,32 37.088388,32 L 22.160133,31.978069 C 22.160133,31.978069 26.997745,27.140456 26.997745,27.140456 C 18.528582,18.264221 13.291696,25.230495 11.500037,31.436501 z"
             style="fill:#404040;"/>
          </a>
         </g>
        </svg>
</svg>
